<?xml version="1.0" encoding="UTF-8"?>
<svg xmlns="http://www.w3.org/2000/svg" viewBox="0 0 28.00 39.00">
<path d="M 5 10 L 14 10" fill="none" stroke="#111" stroke-width="1.37" stroke-linecap="round" stroke-linejoin="round"/>
<path d="M 5 14 L 14 14" fill="none" stroke="#111" stroke-width="1.37" stroke-linecap="round" stroke-linejoin="round"/>
<path d="M 5 10 L 5 14" fill="none" stroke="#111" stroke-width="1.37" stroke-linecap="round" stroke-linejoin="round"/>
<path d="M 14 10 L 14 14" fill="none" stroke="#111" stroke-width="1.37" stroke-linecap="round" stroke-linejoin="round"/>
<path d="M 4 7 L 15 7" fill="none" stroke="#111" stroke-width="1.37" stroke-linecap="round" stroke-linejoin="round"/>
<path d="M 12 4 L 9 4 L 9 20 L 6 20" fill="none" stroke="#111" stroke-width="1.37" stroke-linecap="round" stroke-linejoin="round"/>
<path d="M 4 17 L 14 17" fill="none" stroke="#111" stroke-width="1.37" stroke-linecap="round" stroke-linejoin="round"/>
<path d="M 11 22 L 24 22" fill="none" stroke="#111" stroke-width="1.37" stroke-linecap="round" stroke-linejoin="round"/>
<path d="M 14 25 L 14 30" fill="none" stroke="#111" stroke-width="1.37" stroke-linecap="round" stroke-linejoin="round"/>
<path d="M 14 25 L 22 25 L 22 29 L 14 29" fill="none" stroke="#111" stroke-width="1.37" stroke-linecap="round" stroke-linejoin="round"/>
<path d="M 21 19 L 18 19 L 18 35" fill="none" stroke="#111" stroke-width="1.37" stroke-linecap="round" stroke-linejoin="round"/>
<path d="M 18 32 L 23 32" fill="none" stroke="#111" stroke-width="1.37" stroke-linecap="round" stroke-linejoin="round"/>
<path d="M 14 29 L 14 32" fill="none" stroke="#111" stroke-width="1.37" stroke-linecap="round" stroke-linejoin="round"/>
</svg>
