<?xml version="1.0" encoding="UTF-8"?>
<svg xmlns="http://www.w3.org/2000/svg" viewBox="0 0 28.00 40.00">
<path d="M 13 5 L 10 15" fill="none" stroke="#111" stroke-width="1.40" stroke-linecap="round" stroke-linejoin="round"/>
<path d="M 12 9 L 16 14 L 14 20 L 14 36" fill="none" stroke="#111" stroke-width="1.40" stroke-linecap="round" stroke-linejoin="round"/>
<path d="M 6 10 L 6 19" fill="none" stroke="#111" stroke-width="1.40" stroke-linecap="round" stroke-linejoin="round"/>
<path d="M 4 13 L 6 16 L 6 16" fill="none" stroke="#111" stroke-width="1.40" stroke-linecap="round" stroke-linejoin="round"/>
<path d="M 9 12 L 6 16" fill="none" stroke="#111" stroke-width="1.40" stroke-linecap="round" stroke-linejoin="round"/>
<path d="M 8 23 L 8 34" fill="none" stroke="#111" stroke-width="1.40" stroke-linecap="round" stroke-linejoin="round"/>
<path d="M 5 26 L 8 29" fill="none" stroke="#111" stroke-width="1.40" stroke-linecap="round" stroke-linejoin="round"/>
<path d="M 11 25 L 8 29" fill="none" stroke="#111" stroke-width="1.40" stroke-linecap="round" stroke-linejoin="round"/>
<path d="M 20 4 L 20 15" fill="none" stroke="#111" stroke-width="1.40" stroke-linecap="round" stroke-linejoin="round"/>
<path d="M 16 7 L 20 11" fill="none" stroke="#111" stroke-width="1.40" stroke-linecap="round" stroke-linejoin="round"/>
<path d="M 24 6 L 20 11" fill="none" stroke="#111" stroke-width="1.40" stroke-linecap="round" stroke-linejoin="round"/>
<path d="M 19 22 L 19 35" fill="none" stroke="#111" stroke-width="1.40" stroke-linecap="round" stroke-linejoin="round"/>
<path d="M 16 25 L 19 29" fill="none" stroke="#111" stroke-width="1.40" stroke-linecap="round" stroke-linejoin="round"/>
<path d="M 24 24 L 19 29" fill="none" stroke="#111" stroke-width="1.40" stroke-linecap="round" stroke-linejoin="round"/>
</svg>
