<?xml version="1.0" encoding="UTF-8"?>
<svg xmlns="http://www.w3.org/2000/svg" viewBox="0 0 31.00 39.00">
<path d="M 15 5 L 15 9 L 9 13" fill="none" stroke="#111" stroke-width="1.37" stroke-linecap="round" stroke-linejoin="round"/>
<path d="M 15 9 L 21 11" fill="none" stroke="#111" stroke-width="1.37" stroke-linecap="round" stroke-linejoin="round"/>
<path d="M 12 11 L 10 22" fill="none" stroke="#111" stroke-width="1.37" stroke-linecap="round" stroke-linejoin="round"/>
<path d="M 17 10 L 20 20" fill="none" stroke="#111" stroke-width="1.37" stroke-linecap="round" stroke-linejoin="round"/>
<path d="M 12 14 L 17 13" fill="none" stroke="#111" stroke-width="1.37" stroke-linecap="round" stroke-linejoin="round"/>
<path d="M 11 18 L 19 17" fill="none" stroke="#111" stroke-width="1.37" stroke-linecap="round" stroke-linejoin="round"/>
<path d="M 6 22 L 23 20" fill="none" stroke="#111" stroke-width="1.37" stroke-linecap="round" stroke-linejoin="round"/>
<path d="M 10 22 L 4 33" fill="none" stroke="#111" stroke-width="1.37" stroke-linecap="round" stroke-linejoin="round"/>
<path d="M 20 20 L 27 29" fill="none" stroke="#111" stroke-width="1.37" stroke-linecap="round" stroke-linejoin="round"/>
<path d="M 12 24 L 13 29 L 18 29" fill="none" stroke="#111" stroke-width="1.37" stroke-linecap="round" stroke-linejoin="round"/>
<path d="M 18 23 L 18 29" fill="none" stroke="#111" stroke-width="1.37" stroke-linecap="round" stroke-linejoin="round"/>
<path d="M 13 26 L 18 25" fill="none" stroke="#111" stroke-width="1.37" stroke-linecap="round" stroke-linejoin="round"/>
<path d="M 4 7 L 10 7" fill="none" stroke="#111" stroke-width="1.37" stroke-linecap="round" stroke-linejoin="round"/>
<path d="M 8 4 L 8 12" fill="none" stroke="#111" stroke-width="1.37" stroke-linecap="round" stroke-linejoin="round"/>
<path d="M 18 7 L 24 6" fill="none" stroke="#111" stroke-width="1.37" stroke-linecap="round" stroke-linejoin="round"/>
<path d="M 21 4 L 21 10" fill="none" stroke="#111" stroke-width="1.37" stroke-linecap="round" stroke-linejoin="round"/>
<path d="M 18 31 L 24 30" fill="none" stroke="#111" stroke-width="1.37" stroke-linecap="round" stroke-linejoin="round"/>
<path d="M 21 27 L 21 35" fill="none" stroke="#111" stroke-width="1.37" stroke-linecap="round" stroke-linejoin="round"/>
<path d="M 9 27 L 9 33" fill="none" stroke="#111" stroke-width="1.37" stroke-linecap="round" stroke-linejoin="round"/>
<path d="M 7 30 L 11 30" fill="none" stroke="#111" stroke-width="1.37" stroke-linecap="round" stroke-linejoin="round"/>
</svg>
