<?xml version="1.0" encoding="UTF-8"?>
<svg xmlns="http://www.w3.org/2000/svg" viewBox="0 0 28.00 54.00">
<path d="M 5 49 L 5 50 L 6 50 L 6 49 L 5 49" fill="none" stroke="#111" stroke-width="1.89" stroke-linecap="round" stroke-linejoin="round"/>
<path d="M 11 5 L 13 5 L 14 7 L 20 7 L 20 4 L 22 4 L 22 4" fill="none" stroke="#111" stroke-width="1.89" stroke-linecap="round" stroke-linejoin="round"/>
<path d="M 17 7 L 17 16" fill="none" stroke="#111" stroke-width="1.89" stroke-linecap="round" stroke-linejoin="round"/>
<path d="M 15 8 L 14 10" fill="none" stroke="#111" stroke-width="1.89" stroke-linecap="round" stroke-linejoin="round"/>
<path d="M 15 8 L 16 10 L 16 10" fill="none" stroke="#111" stroke-width="1.89" stroke-linecap="round" stroke-linejoin="round"/>
<path d="M 19 7 L 18 10" fill="none" stroke="#111" stroke-width="1.89" stroke-linecap="round" stroke-linejoin="round"/>
<path d="M 19 7 L 20 10" fill="none" stroke="#111" stroke-width="1.89" stroke-linecap="round" stroke-linejoin="round"/>
<path d="M 14 12 L 14 30" fill="none" stroke="#111" stroke-width="1.89" stroke-linecap="round" stroke-linejoin="round"/>
<path d="M 11 22 L 11 26" fill="none" stroke="#111" stroke-width="1.89" stroke-linecap="round" stroke-linejoin="round"/>
<path d="M 12 22 L 17 22" fill="none" stroke="#111" stroke-width="1.89" stroke-linecap="round" stroke-linejoin="round"/>
<path d="M 17 22 L 17 26" fill="none" stroke="#111" stroke-width="1.89" stroke-linecap="round" stroke-linejoin="round"/>
<path d="M 4 24 L 24 24" fill="none" stroke="#111" stroke-width="1.89" stroke-linecap="round" stroke-linejoin="round"/>
<path d="M 11 26 L 17 26" fill="none" stroke="#111" stroke-width="1.89" stroke-linecap="round" stroke-linejoin="round"/>
<path d="M 7 22 L 6 24 L 8 26 L 10 24 L 9 21 L 7 22 L 7 22" fill="none" stroke="#111" stroke-width="1.89" stroke-linecap="round" stroke-linejoin="round"/>
<path d="M 8 21 L 8 26" fill="none" stroke="#111" stroke-width="1.89" stroke-linecap="round" stroke-linejoin="round"/>
<path d="M 19 21 L 19 26 L 23 27 L 23 22 L 19 21 L 19 21" fill="none" stroke="#111" stroke-width="1.89" stroke-linecap="round" stroke-linejoin="round"/>
<path d="M 21 21 L 21 26" fill="none" stroke="#111" stroke-width="1.89" stroke-linecap="round" stroke-linejoin="round"/>
</svg>
