<?xml version="1.0" encoding="UTF-8"?>
<svg xmlns="http://www.w3.org/2000/svg" viewBox="0 0 29.00 42.00">
<path d="M 8 6 L 8 19" fill="none" stroke="#111" stroke-width="1.47" stroke-linecap="round" stroke-linejoin="round"/>
<path d="M 4 8 L 8 12 L 8 12" fill="none" stroke="#111" stroke-width="1.47" stroke-linecap="round" stroke-linejoin="round"/>
<path d="M 13 7 L 8 12" fill="none" stroke="#111" stroke-width="1.47" stroke-linecap="round" stroke-linejoin="round"/>
<path d="M 8 12 L 4 17" fill="none" stroke="#111" stroke-width="1.47" stroke-linecap="round" stroke-linejoin="round"/>
<path d="M 8 12 L 11 15" fill="none" stroke="#111" stroke-width="1.47" stroke-linecap="round" stroke-linejoin="round"/>
<path d="M 4 21 L 4 26" fill="none" stroke="#111" stroke-width="1.47" stroke-linecap="round" stroke-linejoin="round"/>
<path d="M 4 21 L 12 21 L 12 26" fill="none" stroke="#111" stroke-width="1.47" stroke-linecap="round" stroke-linejoin="round"/>
<path d="M 4 26 L 12 26" fill="none" stroke="#111" stroke-width="1.47" stroke-linecap="round" stroke-linejoin="round"/>
<path d="M 4 24 L 9 24" fill="none" stroke="#111" stroke-width="1.47" stroke-linecap="round" stroke-linejoin="round"/>
<path d="M 15 10 L 12 15" fill="none" stroke="#111" stroke-width="1.47" stroke-linecap="round" stroke-linejoin="round"/>
<path d="M 12 15 L 15 19" fill="none" stroke="#111" stroke-width="1.47" stroke-linecap="round" stroke-linejoin="round"/>
<path d="M 12 26 L 15 33" fill="none" stroke="#111" stroke-width="1.47" stroke-linecap="round" stroke-linejoin="round"/>
<path d="M 21 6 L 21 21" fill="none" stroke="#111" stroke-width="1.47" stroke-linecap="round" stroke-linejoin="round"/>
<path d="M 18 10 L 21 13" fill="none" stroke="#111" stroke-width="1.47" stroke-linecap="round" stroke-linejoin="round"/>
<path d="M 25 8 L 21 13" fill="none" stroke="#111" stroke-width="1.47" stroke-linecap="round" stroke-linejoin="round"/>
<path d="M 21 15 L 18 19" fill="none" stroke="#111" stroke-width="1.47" stroke-linecap="round" stroke-linejoin="round"/>
<path d="M 21 15 L 25 19" fill="none" stroke="#111" stroke-width="1.47" stroke-linecap="round" stroke-linejoin="round"/>
<path d="M 19 23 L 19 38" fill="none" stroke="#111" stroke-width="1.47" stroke-linecap="round" stroke-linejoin="round"/>
<path d="M 16 27 L 19 29" fill="none" stroke="#111" stroke-width="1.47" stroke-linecap="round" stroke-linejoin="round"/>
<path d="M 23 23 L 19 28" fill="none" stroke="#111" stroke-width="1.47" stroke-linecap="round" stroke-linejoin="round"/>
<path d="M 19 31 L 16 34" fill="none" stroke="#111" stroke-width="1.47" stroke-linecap="round" stroke-linejoin="round"/>
<path d="M 20 31 L 24 34" fill="none" stroke="#111" stroke-width="1.47" stroke-linecap="round" stroke-linejoin="round"/>
<path d="M 16 4 L 16 16 L 15 21 L 13 30 L 9 35" fill="none" stroke="#111" stroke-width="1.47" stroke-linecap="round" stroke-linejoin="round"/>
</svg>
