<?xml version="1.0" encoding="UTF-8"?>
<svg xmlns="http://www.w3.org/2000/svg" viewBox="0 0 22.00 36.00">
<path d="M 6 13 L 11 13 L 12 15 L 6 20 L 5 23 L 4 26 L 4 26" fill="none" stroke="#111" stroke-width="1.26" stroke-linecap="round" stroke-linejoin="round"/>
<path d="M 7 20 L 8 24 L 8 24" fill="none" stroke="#111" stroke-width="1.26" stroke-linecap="round" stroke-linejoin="round"/>
<path d="M 5 9 L 13 8" fill="none" stroke="#111" stroke-width="1.26" stroke-linecap="round" stroke-linejoin="round"/>
<path d="M 6 5 L 7 9" fill="none" stroke="#111" stroke-width="1.26" stroke-linecap="round" stroke-linejoin="round"/>
<path d="M 8 4 L 8 8" fill="none" stroke="#111" stroke-width="1.26" stroke-linecap="round" stroke-linejoin="round"/>
<path d="M 10 4 L 10 8" fill="none" stroke="#111" stroke-width="1.26" stroke-linecap="round" stroke-linejoin="round"/>
<path d="M 7 9 L 8 14 L 16 19" fill="none" stroke="#111" stroke-width="1.26" stroke-linecap="round" stroke-linejoin="round"/>
<path d="M 10 9 L 8 13" fill="none" stroke="#111" stroke-width="1.26" stroke-linecap="round" stroke-linejoin="round"/>
<path d="M 9 18 L 18 23" fill="none" stroke="#111" stroke-width="1.26" stroke-linecap="round" stroke-linejoin="round"/>
<path d="M 9 19 L 14 26" fill="none" stroke="#111" stroke-width="1.26" stroke-linecap="round" stroke-linejoin="round"/>
<path d="M 11 22 L 9 24 L 11 32" fill="none" stroke="#111" stroke-width="1.26" stroke-linecap="round" stroke-linejoin="round"/>
<path d="M 14 21 L 15 25" fill="none" stroke="#111" stroke-width="1.26" stroke-linecap="round" stroke-linejoin="round"/>
<path d="M 14 7 L 14 13" fill="none" stroke="#111" stroke-width="1.26" stroke-linecap="round" stroke-linejoin="round"/>
<path d="M 14 8 L 17 8" fill="none" stroke="#111" stroke-width="1.26" stroke-linecap="round" stroke-linejoin="round"/>
<path d="M 14 10 L 18 10" fill="none" stroke="#111" stroke-width="1.26" stroke-linecap="round" stroke-linejoin="round"/>
<path d="M 18 5 L 18 15" fill="none" stroke="#111" stroke-width="1.26" stroke-linecap="round" stroke-linejoin="round"/>
</svg>
