<?xml version="1.0" encoding="UTF-8"?>
<svg xmlns="http://www.w3.org/2000/svg" viewBox="0 0 31.00 42.00">
<path d="M 18 8 L 15 11 L 13 14 L 15 17 L 18 16 L 20 15 L 20 12 L 17 9 L 14 8" fill="none" stroke="#111" stroke-width="1.47" stroke-linecap="round" stroke-linejoin="round"/>
<path d="M 17 15 L 17 34" fill="none" stroke="#111" stroke-width="1.47" stroke-linecap="round" stroke-linejoin="round"/>
<path d="M 13 27 L 17 32" fill="none" stroke="#111" stroke-width="1.47" stroke-linecap="round" stroke-linejoin="round"/>
<path d="M 20 27 L 17 32" fill="none" stroke="#111" stroke-width="1.47" stroke-linecap="round" stroke-linejoin="round"/>
<path d="M 14 5 L 10 10 L 9 15 L 9 30 L 11 33 L 13 36 L 18 38 L 21 35 L 24 32 L 24 28 L 24 17 L 25 14 L 22 8 L 14 5 L 14 5" fill="none" stroke="#111" stroke-width="1.47" stroke-linecap="round" stroke-linejoin="round"/>
<path d="M 25 13 L 27 9 L 26 5 L 23 4 L 21 8" fill="none" stroke="#111" stroke-width="1.47" stroke-linecap="round" stroke-linejoin="round"/>
<path d="M 6 6 L 5 11 L 6 14 L 4 26 L 6 31 L 7 38" fill="none" stroke="#111" stroke-width="1.47" stroke-linecap="round" stroke-linejoin="round"/>
</svg>
