<?xml version="1.0" encoding="UTF-8"?>
<svg xmlns="http://www.w3.org/2000/svg" viewBox="0 0 16.00 36.00">
<path d="M 5 4 L 5 9 L 12 11 L 12 13" fill="none" stroke="#111" stroke-width="1.26" stroke-linecap="round" stroke-linejoin="round"/>
<path d="M 5 5 L 11 8 L 11 5" fill="none" stroke="#111" stroke-width="1.26" stroke-linecap="round" stroke-linejoin="round"/>
<path d="M 8 6 L 8 10 L 8 18 L 11 19 L 11 24" fill="none" stroke="#111" stroke-width="1.26" stroke-linecap="round" stroke-linejoin="round"/>
<path d="M 8 13 L 11 14" fill="none" stroke="#111" stroke-width="1.26" stroke-linecap="round" stroke-linejoin="round"/>
<path d="M 6 11 L 6 20 L 8 22 L 8 26" fill="none" stroke="#111" stroke-width="1.26" stroke-linecap="round" stroke-linejoin="round"/>
<path d="M 5 23 L 8 24" fill="none" stroke="#111" stroke-width="1.26" stroke-linecap="round" stroke-linejoin="round"/>
<path d="M 4 23 L 4 25 L 11 28 L 11 31" fill="none" stroke="#111" stroke-width="1.26" stroke-linecap="round" stroke-linejoin="round"/>
<path d="M 11 28 L 4 31" fill="none" stroke="#111" stroke-width="1.26" stroke-linecap="round" stroke-linejoin="round"/>
<path d="M 4 29 L 4 32" fill="none" stroke="#111" stroke-width="1.26" stroke-linecap="round" stroke-linejoin="round"/>
<path d="M 7 27 L 7 30" fill="none" stroke="#111" stroke-width="1.26" stroke-linecap="round" stroke-linejoin="round"/>
<path d="M 8 29 L 11 31" fill="none" stroke="#111" stroke-width="1.26" stroke-linecap="round" stroke-linejoin="round"/>
</svg>
