<?xml version="1.0" encoding="UTF-8"?>
<svg xmlns="http://www.w3.org/2000/svg" viewBox="0 0 22.00 31.00">
<path d="M 14 7 L 12 10 L 15 13 L 18 10 L 17 7 L 13 7 L 13 7" fill="none" stroke="#111" stroke-width="1.09" stroke-linecap="round" stroke-linejoin="round"/>
<path d="M 13 10 L 18 9" fill="none" stroke="#111" stroke-width="1.09" stroke-linecap="round" stroke-linejoin="round"/>
<path d="M 15 7 L 15 12" fill="none" stroke="#111" stroke-width="1.09" stroke-linecap="round" stroke-linejoin="round"/>
<path d="M 12 4 L 9 13 L 11 15 L 9 17 L 7 19 L 8 22 L 8 26 L 5 27" fill="none" stroke="#111" stroke-width="1.09" stroke-linecap="round" stroke-linejoin="round"/>
<path d="M 4 7 L 12 5" fill="none" stroke="#111" stroke-width="1.09" stroke-linecap="round" stroke-linejoin="round"/>
<path d="M 14 19 L 12 20 L 12 21 L 12 21 L 13 23 L 14 23 L 16 23 L 17 22 L 17 22 L 17 21 L 16 20 L 15 19 L 14 19 L 14 19" fill="none" stroke="#111" stroke-width="1.09" stroke-linecap="round" stroke-linejoin="round"/>
<path d="M 12 21 L 17 21 L 14 19 L 14 23" fill="none" stroke="#111" stroke-width="1.09" stroke-linecap="round" stroke-linejoin="round"/>
</svg>
