<?xml version="1.0" encoding="UTF-8"?>
<svg xmlns="http://www.w3.org/2000/svg" viewBox="0 0 23.00 38.00">
<path d="M 8 4 L 8 14 L 11 17 L 14 17 L 16 15 L 16 4" fill="none" stroke="#111" stroke-width="1.33" stroke-linecap="round" stroke-linejoin="round"/>
<path d="M 8 4 L 12 8 L 16 4" fill="none" stroke="#111" stroke-width="1.33" stroke-linecap="round" stroke-linejoin="round"/>
<path d="M 8 8 L 16 8" fill="none" stroke="#111" stroke-width="1.33" stroke-linecap="round" stroke-linejoin="round"/>
<path d="M 8 11 L 16 11" fill="none" stroke="#111" stroke-width="1.33" stroke-linecap="round" stroke-linejoin="round"/>
<path d="M 11 17 L 11 24" fill="none" stroke="#111" stroke-width="1.33" stroke-linecap="round" stroke-linejoin="round"/>
<path d="M 14 17 L 14 23" fill="none" stroke="#111" stroke-width="1.33" stroke-linecap="round" stroke-linejoin="round"/>
<path d="M 11 17 L 8 21" fill="none" stroke="#111" stroke-width="1.33" stroke-linecap="round" stroke-linejoin="round"/>
<path d="M 14 19 L 17 21" fill="none" stroke="#111" stroke-width="1.33" stroke-linecap="round" stroke-linejoin="round"/>
<path d="M 5 19 L 5 25 L 10 29" fill="none" stroke="#111" stroke-width="1.33" stroke-linecap="round" stroke-linejoin="round"/>
<path d="M 9 22 L 6 26 L 4 33" fill="none" stroke="#111" stroke-width="1.33" stroke-linecap="round" stroke-linejoin="round"/>
<path d="M 19 19 L 14 28" fill="none" stroke="#111" stroke-width="1.33" stroke-linecap="round" stroke-linejoin="round"/>
<path d="M 15 22 L 19 34" fill="none" stroke="#111" stroke-width="1.33" stroke-linecap="round" stroke-linejoin="round"/>
</svg>
