<?xml version="1.0" encoding="UTF-8"?>
<svg xmlns="http://www.w3.org/2000/svg" viewBox="0 0 24.00 35.00">
<path d="M 9 5 L 9 12" fill="none" stroke="#111" stroke-width="1.23" stroke-linecap="round" stroke-linejoin="round"/>
<path d="M 7 5 L 9 8" fill="none" stroke="#111" stroke-width="1.23" stroke-linecap="round" stroke-linejoin="round"/>
<path d="M 12 4 L 9 8" fill="none" stroke="#111" stroke-width="1.23" stroke-linecap="round" stroke-linejoin="round"/>
<path d="M 9 8 L 6 13" fill="none" stroke="#111" stroke-width="1.23" stroke-linecap="round" stroke-linejoin="round"/>
<path d="M 9 8 L 12 12" fill="none" stroke="#111" stroke-width="1.23" stroke-linecap="round" stroke-linejoin="round"/>
<path d="M 7 14 L 7 30" fill="none" stroke="#111" stroke-width="1.23" stroke-linecap="round" stroke-linejoin="round"/>
<path d="M 5 15 L 7 19" fill="none" stroke="#111" stroke-width="1.23" stroke-linecap="round" stroke-linejoin="round"/>
<path d="M 10 15 L 7 19" fill="none" stroke="#111" stroke-width="1.23" stroke-linecap="round" stroke-linejoin="round"/>
<path d="M 7 25 L 4 28" fill="none" stroke="#111" stroke-width="1.23" stroke-linecap="round" stroke-linejoin="round"/>
<path d="M 7 24 L 10 28" fill="none" stroke="#111" stroke-width="1.23" stroke-linecap="round" stroke-linejoin="round"/>
<path d="M 14 12 L 15 31" fill="none" stroke="#111" stroke-width="1.23" stroke-linecap="round" stroke-linejoin="round"/>
<path d="M 11 13 L 14 20" fill="none" stroke="#111" stroke-width="1.23" stroke-linecap="round" stroke-linejoin="round"/>
<path d="M 20 11 L 14 16" fill="none" stroke="#111" stroke-width="1.23" stroke-linecap="round" stroke-linejoin="round"/>
<path d="M 14 23 L 11 26" fill="none" stroke="#111" stroke-width="1.23" stroke-linecap="round" stroke-linejoin="round"/>
<path d="M 14 22 L 20 27" fill="none" stroke="#111" stroke-width="1.23" stroke-linecap="round" stroke-linejoin="round"/>
</svg>
