<?xml version="1.0" encoding="UTF-8"?>
<svg xmlns="http://www.w3.org/2000/svg" viewBox="0 0 23.00 29.00">
<path d="M 7 4 L 4 11 L 5 19 L 11 21 L 16 20 L 19 14 L 17 9 L 14 5" fill="none" stroke="#111" stroke-width="1.02" stroke-linecap="round" stroke-linejoin="round"/>
<path d="M 11 10 L 8 13 L 9 17 L 14 17 L 15 14 L 13 11 L 11 10" fill="none" stroke="#111" stroke-width="1.02" stroke-linecap="round" stroke-linejoin="round"/>
<path d="M 10 12 L 9 11 L 11 13" fill="none" stroke="#111" stroke-width="1.02" stroke-linecap="round" stroke-linejoin="round"/>
<path d="M 14 12 L 12 13" fill="none" stroke="#111" stroke-width="1.02" stroke-linecap="round" stroke-linejoin="round"/>
<path d="M 11 14 L 11 17" fill="none" stroke="#111" stroke-width="1.02" stroke-linecap="round" stroke-linejoin="round"/>
<path d="M 5 9 L 9 8" fill="none" stroke="#111" stroke-width="1.02" stroke-linecap="round" stroke-linejoin="round"/>
<path d="M 13 10 L 17 9" fill="none" stroke="#111" stroke-width="1.02" stroke-linecap="round" stroke-linejoin="round"/>
<path d="M 9 20 L 7 24" fill="none" stroke="#111" stroke-width="1.02" stroke-linecap="round" stroke-linejoin="round"/>
<path d="M 14 20 L 15 24" fill="none" stroke="#111" stroke-width="1.02" stroke-linecap="round" stroke-linejoin="round"/>
<path d="M 4 25 L 19 24" fill="none" stroke="#111" stroke-width="1.02" stroke-linecap="round" stroke-linejoin="round"/>
</svg>
