<?xml version="1.0" encoding="UTF-8"?>
<svg xmlns="http://www.w3.org/2000/svg" viewBox="0 0 31.00 34.00">
<path d="M 10 4 L 11 8 L 20 7 L 20 4" fill="none" stroke="#111" stroke-width="1.19" stroke-linecap="round" stroke-linejoin="round"/>
<path d="M 15 8 L 15 27" fill="none" stroke="#111" stroke-width="1.19" stroke-linecap="round" stroke-linejoin="round"/>
<path d="M 12 8 L 11 13 L 10 15" fill="none" stroke="#111" stroke-width="1.19" stroke-linecap="round" stroke-linejoin="round"/>
<path d="M 11 13 L 12 15" fill="none" stroke="#111" stroke-width="1.19" stroke-linecap="round" stroke-linejoin="round"/>
<path d="M 7 9 L 13 12" fill="none" stroke="#111" stroke-width="1.19" stroke-linecap="round" stroke-linejoin="round"/>
<path d="M 10 8 L 9 9 L 9 12" fill="none" stroke="#111" stroke-width="1.19" stroke-linecap="round" stroke-linejoin="round"/>
<path d="M 18 8 L 18 16 L 17 19" fill="none" stroke="#111" stroke-width="1.19" stroke-linecap="round" stroke-linejoin="round"/>
<path d="M 18 16 L 21 18" fill="none" stroke="#111" stroke-width="1.19" stroke-linecap="round" stroke-linejoin="round"/>
<path d="M 16 14 L 18 11 L 20 15" fill="none" stroke="#111" stroke-width="1.19" stroke-linecap="round" stroke-linejoin="round"/>
<path d="M 20 9 L 24 14" fill="none" stroke="#111" stroke-width="1.19" stroke-linecap="round" stroke-linejoin="round"/>
<path d="M 21 7 L 22 9 L 19 11" fill="none" stroke="#111" stroke-width="1.19" stroke-linecap="round" stroke-linejoin="round"/>
<path d="M 24 10 L 22 11" fill="none" stroke="#111" stroke-width="1.19" stroke-linecap="round" stroke-linejoin="round"/>
<path d="M 11 23 L 19 23 L 19 29 L 12 29 L 11 23" fill="none" stroke="#111" stroke-width="1.19" stroke-linecap="round" stroke-linejoin="round"/>
<path d="M 4 25 L 4 28" fill="none" stroke="#111" stroke-width="1.19" stroke-linecap="round" stroke-linejoin="round"/>
<path d="M 5 27 L 26 26" fill="none" stroke="#111" stroke-width="1.19" stroke-linecap="round" stroke-linejoin="round"/>
<path d="M 27 23 L 27 28" fill="none" stroke="#111" stroke-width="1.19" stroke-linecap="round" stroke-linejoin="round"/>
<path d="M 6 26 L 8 24 L 11 26 L 9 30 L 6 29 L 6 27" fill="none" stroke="#111" stroke-width="1.19" stroke-linecap="round" stroke-linejoin="round"/>
<path d="M 8 25 L 9 29" fill="none" stroke="#111" stroke-width="1.19" stroke-linecap="round" stroke-linejoin="round"/>
<path d="M 23 22 L 25 25 L 25 27 L 23 29 L 20 26 L 22 23" fill="none" stroke="#111" stroke-width="1.19" stroke-linecap="round" stroke-linejoin="round"/>
<path d="M 23 23 L 23 27" fill="none" stroke="#111" stroke-width="1.19" stroke-linecap="round" stroke-linejoin="round"/>
</svg>
