<?xml version="1.0" encoding="UTF-8"?>
<svg xmlns="http://www.w3.org/2000/svg" viewBox="0 0 24.00 40.00">
<path d="M 12 4 L 10 6" fill="none" stroke="#111" stroke-width="1.40" stroke-linecap="round" stroke-linejoin="round"/>
<path d="M 9 5 L 11 8" fill="none" stroke="#111" stroke-width="1.40" stroke-linecap="round" stroke-linejoin="round"/>
<path d="M 13 5 L 10 12" fill="none" stroke="#111" stroke-width="1.40" stroke-linecap="round" stroke-linejoin="round"/>
<path d="M 8 10 L 16 20" fill="none" stroke="#111" stroke-width="1.40" stroke-linecap="round" stroke-linejoin="round"/>
<path d="M 16 20 L 10 24 L 12 36" fill="none" stroke="#111" stroke-width="1.40" stroke-linecap="round" stroke-linejoin="round"/>
<path d="M 13 9 L 14 11" fill="none" stroke="#111" stroke-width="1.40" stroke-linecap="round" stroke-linejoin="round"/>
<path d="M 16 10 L 12 13" fill="none" stroke="#111" stroke-width="1.40" stroke-linecap="round" stroke-linejoin="round"/>
<path d="M 11 17 L 10 20" fill="none" stroke="#111" stroke-width="1.40" stroke-linecap="round" stroke-linejoin="round"/>
<path d="M 8 19 L 12 22" fill="none" stroke="#111" stroke-width="1.40" stroke-linecap="round" stroke-linejoin="round"/>
<path d="M 4 9 L 7 9" fill="none" stroke="#111" stroke-width="1.40" stroke-linecap="round" stroke-linejoin="round"/>
<path d="M 4 7 L 4 11 L 6 12 L 7 11" fill="none" stroke="#111" stroke-width="1.40" stroke-linecap="round" stroke-linejoin="round"/>
<path d="M 7 7 L 7 11" fill="none" stroke="#111" stroke-width="1.40" stroke-linecap="round" stroke-linejoin="round"/>
<path d="M 17 10 L 20 10" fill="none" stroke="#111" stroke-width="1.40" stroke-linecap="round" stroke-linejoin="round"/>
<path d="M 17 8 L 17 12 L 19 13 L 20 12" fill="none" stroke="#111" stroke-width="1.40" stroke-linecap="round" stroke-linejoin="round"/>
<path d="M 20 7 L 20 12" fill="none" stroke="#111" stroke-width="1.40" stroke-linecap="round" stroke-linejoin="round"/>
<path d="M 11 28 L 5 35" fill="none" stroke="#111" stroke-width="1.40" stroke-linecap="round" stroke-linejoin="round"/>
<path d="M 11 28 L 19 31" fill="none" stroke="#111" stroke-width="1.40" stroke-linecap="round" stroke-linejoin="round"/>
<path d="M 4 23 L 4 27 L 6 28 L 8 27" fill="none" stroke="#111" stroke-width="1.40" stroke-linecap="round" stroke-linejoin="round"/>
<path d="M 8 22 L 8 27" fill="none" stroke="#111" stroke-width="1.40" stroke-linecap="round" stroke-linejoin="round"/>
<path d="M 4 24 L 8 24" fill="none" stroke="#111" stroke-width="1.40" stroke-linecap="round" stroke-linejoin="round"/>
<path d="M 16 25 L 20 25" fill="none" stroke="#111" stroke-width="1.40" stroke-linecap="round" stroke-linejoin="round"/>
<path d="M 16 23 L 16 28 L 19 29 L 20 28" fill="none" stroke="#111" stroke-width="1.40" stroke-linecap="round" stroke-linejoin="round"/>
<path d="M 20 23 L 20 28" fill="none" stroke="#111" stroke-width="1.40" stroke-linecap="round" stroke-linejoin="round"/>
</svg>
