<?xml version="1.0" encoding="UTF-8"?>
<svg xmlns="http://www.w3.org/2000/svg" viewBox="0 0 30.00 47.00">
<path d="M 12 12 L 10 18 L 11 22 L 14 23 L 18 18 L 17 14 L 15 11 L 12 12" fill="none" stroke="#111" stroke-width="1.65" stroke-linecap="round" stroke-linejoin="round"/>
<path d="M 11 15 L 18 17" fill="none" stroke="#111" stroke-width="1.65" stroke-linecap="round" stroke-linejoin="round"/>
<path d="M 10 18 L 15 21" fill="none" stroke="#111" stroke-width="1.65" stroke-linecap="round" stroke-linejoin="round"/>
<path d="M 18 16 L 21 13 L 20 10 L 19 12 L 16 12" fill="none" stroke="#111" stroke-width="1.65" stroke-linecap="round" stroke-linejoin="round"/>
<path d="M 5 10 L 5 14" fill="none" stroke="#111" stroke-width="1.65" stroke-linecap="round" stroke-linejoin="round"/>
<path d="M 6 8 L 9 12 L 7 20 L 9 21" fill="none" stroke="#111" stroke-width="1.65" stroke-linecap="round" stroke-linejoin="round"/>
<path d="M 9 13 L 10 14" fill="none" stroke="#111" stroke-width="1.65" stroke-linecap="round" stroke-linejoin="round"/>
<path d="M 8 17 L 9 18" fill="none" stroke="#111" stroke-width="1.65" stroke-linecap="round" stroke-linejoin="round"/>
<path d="M 13 11 L 13 7 L 16 4 L 19 4 L 24 6 L 26 8" fill="none" stroke="#111" stroke-width="1.65" stroke-linecap="round" stroke-linejoin="round"/>
<path d="M 14 11 L 15 7 L 18 6 L 21 7 L 24 10" fill="none" stroke="#111" stroke-width="1.65" stroke-linecap="round" stroke-linejoin="round"/>
<path d="M 18 16 L 23 31 L 15 34 L 17 38 L 23 35 L 20 43" fill="none" stroke="#111" stroke-width="1.65" stroke-linecap="round" stroke-linejoin="round"/>
<path d="M 6 22 L 8 24" fill="none" stroke="#111" stroke-width="1.65" stroke-linecap="round" stroke-linejoin="round"/>
<path d="M 9 25 L 14 27 L 20 22" fill="none" stroke="#111" stroke-width="1.65" stroke-linecap="round" stroke-linejoin="round"/>
<path d="M 6 27 L 5 30 L 6 33 L 9 35 L 13 33 L 16 30 L 15 28 L 15 28" fill="none" stroke="#111" stroke-width="1.65" stroke-linecap="round" stroke-linejoin="round"/>
<path d="M 8 34 L 7 38" fill="none" stroke="#111" stroke-width="1.65" stroke-linecap="round" stroke-linejoin="round"/>
<path d="M 12 34 L 13 38" fill="none" stroke="#111" stroke-width="1.65" stroke-linecap="round" stroke-linejoin="round"/>
<path d="M 4 37 L 6 39 L 10 40 L 13 39 L 15 38" fill="none" stroke="#111" stroke-width="1.65" stroke-linecap="round" stroke-linejoin="round"/>
<path d="M 15 11 L 16 9 L 17 8 L 19 8 L 21 9 L 23 11" fill="none" stroke="#111" stroke-width="1.65" stroke-linecap="round" stroke-linejoin="round"/>
</svg>
