<?xml version="1.0" encoding="UTF-8"?>
<svg xmlns="http://www.w3.org/2000/svg" viewBox="0 0 27.00 28.00">
<path d="M 6 6 L 11 10 L 11 18 L 5 24" fill="none" stroke="#111" stroke-width="0.98" stroke-linecap="round" stroke-linejoin="round"/>
<path d="M 6 6 L 6 10 L 8 12 L 7 13 L 4 13 L 4 15 L 6 15 L 8 18 L 7 22" fill="none" stroke="#111" stroke-width="0.98" stroke-linecap="round" stroke-linejoin="round"/>
<path d="M 19 4 L 16 8 L 14 13 L 14 18 L 15 21 L 16 23 L 19 24 L 22 24" fill="none" stroke="#111" stroke-width="0.98" stroke-linecap="round" stroke-linejoin="round"/>
<path d="M 19 4 L 18 8 L 18 13 L 20 15 L 23 15" fill="none" stroke="#111" stroke-width="0.98" stroke-linecap="round" stroke-linejoin="round"/>
<path d="M 18 23 L 18 19 L 20 15 L 23 15" fill="none" stroke="#111" stroke-width="0.98" stroke-linecap="round" stroke-linejoin="round"/>
<path d="M 21 12 L 21 18" fill="none" stroke="#111" stroke-width="0.98" stroke-linecap="round" stroke-linejoin="round"/>
</svg>
