<?xml version="1.0" encoding="UTF-8"?>
<svg xmlns="http://www.w3.org/2000/svg" viewBox="0 0 28.00 38.00">
<path d="M 9 8 L 7 24 L 13 28 L 13 31 L 7 26 L 8 34" fill="none" stroke="#111" stroke-width="1.33" stroke-linecap="round" stroke-linejoin="round"/>
<path d="M 4 17 L 4 13 L 11 14 L 13 23" fill="none" stroke="#111" stroke-width="1.33" stroke-linecap="round" stroke-linejoin="round"/>
<path d="M 14 19 L 4 17" fill="none" stroke="#111" stroke-width="1.33" stroke-linecap="round" stroke-linejoin="round"/>
<path d="M 14 17 L 16 15 L 14 13 L 12 15 L 17 20 L 18 20 L 22 16 L 21 13 L 22 11 L 24 14 L 22 16" fill="none" stroke="#111" stroke-width="1.33" stroke-linecap="round" stroke-linejoin="round"/>
<path d="M 17 10 L 16 7 L 17 4 L 19 7 L 17 10 L 18 30" fill="none" stroke="#111" stroke-width="1.33" stroke-linecap="round" stroke-linejoin="round"/>
<path d="M 14 26 L 18 23 L 23 27" fill="none" stroke="#111" stroke-width="1.33" stroke-linecap="round" stroke-linejoin="round"/>
</svg>
