<?xml version="1.0" encoding="UTF-8"?>
<svg xmlns="http://www.w3.org/2000/svg" viewBox="0 0 24.00 32.00">
<path d="M 9 4 L 7 7 L 8 10 L 15 11 L 18 6 L 16 4 L 9 4" fill="none" stroke="#111" stroke-width="1.12" stroke-linecap="round" stroke-linejoin="round"/>
<path d="M 10 7 L 14 7" fill="none" stroke="#111" stroke-width="1.12" stroke-linecap="round" stroke-linejoin="round"/>
<path d="M 4 13 L 7 16 L 9 13 L 11 16 L 12 13 L 15 16 L 17 12" fill="none" stroke="#111" stroke-width="1.12" stroke-linecap="round" stroke-linejoin="round"/>
<path d="M 7 18 L 9 21 L 11 18 L 13 22 L 15 17 L 16 21 L 18 16" fill="none" stroke="#111" stroke-width="1.12" stroke-linecap="round" stroke-linejoin="round"/>
<path d="M 4 24 L 7 28 L 10 24 L 13 28 L 15 23 L 17 28 L 20 21" fill="none" stroke="#111" stroke-width="1.12" stroke-linecap="round" stroke-linejoin="round"/>
</svg>
