<?xml version="1.0" encoding="UTF-8"?>
<svg xmlns="http://www.w3.org/2000/svg" viewBox="0 0 25.00 34.00">
<path d="M 8 10 L 5 12 L 4 14 L 4 16 L 5 18 L 8 19 L 11 18 L 13 16 L 13 13 L 11 11 L 8 10" fill="none" stroke="#111" stroke-width="1.19" stroke-linecap="round" stroke-linejoin="round"/>
<path d="M 5 12 L 7 14 L 10 11" fill="none" stroke="#111" stroke-width="1.19" stroke-linecap="round" stroke-linejoin="round"/>
<path d="M 5 18 L 6 17 L 7 15 L 8 16 L 8 17 L 8 18" fill="none" stroke="#111" stroke-width="1.19" stroke-linecap="round" stroke-linejoin="round"/>
<path d="M 10 14 L 10 15 L 10 16 L 13 15 L 13 15" fill="none" stroke="#111" stroke-width="1.19" stroke-linecap="round" stroke-linejoin="round"/>
<path d="M 12 10 L 18 8 L 21 8 L 18 13 L 19 17 L 19 18 L 18 20 L 16 24 L 13 30 L 13 30" fill="none" stroke="#111" stroke-width="1.19" stroke-linecap="round" stroke-linejoin="round"/>
<path d="M 16 4 L 15 9" fill="none" stroke="#111" stroke-width="1.19" stroke-linecap="round" stroke-linejoin="round"/>
<path d="M 14 9 L 17 11" fill="none" stroke="#111" stroke-width="1.19" stroke-linecap="round" stroke-linejoin="round"/>
</svg>
