<?xml version="1.0" encoding="UTF-8"?>
<svg xmlns="http://www.w3.org/2000/svg" viewBox="0 0 20.00 37.00">
<path d="M 6 5 L 10 8 L 10 8" fill="none" stroke="#111" stroke-width="1.30" stroke-linecap="round" stroke-linejoin="round"/>
<path d="M 13 4 L 10 8" fill="none" stroke="#111" stroke-width="1.30" stroke-linecap="round" stroke-linejoin="round"/>
<path d="M 5 9 L 14 9" fill="none" stroke="#111" stroke-width="1.30" stroke-linecap="round" stroke-linejoin="round"/>
<path d="M 5 9 L 4 16" fill="none" stroke="#111" stroke-width="1.30" stroke-linecap="round" stroke-linejoin="round"/>
<path d="M 15 9 L 16 14" fill="none" stroke="#111" stroke-width="1.30" stroke-linecap="round" stroke-linejoin="round"/>
<path d="M 5 11 L 16 12" fill="none" stroke="#111" stroke-width="1.30" stroke-linecap="round" stroke-linejoin="round"/>
<path d="M 10 9 L 10 19" fill="none" stroke="#111" stroke-width="1.30" stroke-linecap="round" stroke-linejoin="round"/>
<path d="M 8 20 L 4 24 L 11 33 L 16 23 L 12 20 L 12 20" fill="none" stroke="#111" stroke-width="1.30" stroke-linecap="round" stroke-linejoin="round"/>
<path d="M 12 20 L 11 23 L 11 23" fill="none" stroke="#111" stroke-width="1.30" stroke-linecap="round" stroke-linejoin="round"/>
<path d="M 8 20 L 8 23" fill="none" stroke="#111" stroke-width="1.30" stroke-linecap="round" stroke-linejoin="round"/>
<path d="M 8 28 L 9 25" fill="none" stroke="#111" stroke-width="1.30" stroke-linecap="round" stroke-linejoin="round"/>
<path d="M 14 27 L 11 25" fill="none" stroke="#111" stroke-width="1.30" stroke-linecap="round" stroke-linejoin="round"/>
</svg>
