<?xml version="1.0" encoding="UTF-8"?>
<svg xmlns="http://www.w3.org/2000/svg" viewBox="0 0 29.00 25.00">
<path d="M 7 14 L 10 14" fill="none" stroke="#111" stroke-width="1.02" stroke-linecap="round" stroke-linejoin="round"/>
<path d="M 7 14 L 6 18 L 4 21" fill="none" stroke="#111" stroke-width="1.02" stroke-linecap="round" stroke-linejoin="round"/>
<path d="M 10 14 L 10 18" fill="none" stroke="#111" stroke-width="1.02" stroke-linecap="round" stroke-linejoin="round"/>
<path d="M 10 18 L 10 20" fill="none" stroke="#111" stroke-width="1.02" stroke-linecap="round" stroke-linejoin="round"/>
<path d="M 6 17 L 10 17" fill="none" stroke="#111" stroke-width="1.02" stroke-linecap="round" stroke-linejoin="round"/>
<path d="M 19 14 L 19 17 L 19 17" fill="none" stroke="#111" stroke-width="1.02" stroke-linecap="round" stroke-linejoin="round"/>
<path d="M 19 14 L 22 14" fill="none" stroke="#111" stroke-width="1.02" stroke-linecap="round" stroke-linejoin="round"/>
<path d="M 22 14 L 22 17 L 25 20 L 25 20" fill="none" stroke="#111" stroke-width="1.02" stroke-linecap="round" stroke-linejoin="round"/>
<path d="M 19 17 L 22 17" fill="none" stroke="#111" stroke-width="1.02" stroke-linecap="round" stroke-linejoin="round"/>
<path d="M 20 17 L 20 19" fill="none" stroke="#111" stroke-width="1.02" stroke-linecap="round" stroke-linejoin="round"/>
<path d="M 4 11 L 7 13" fill="none" stroke="#111" stroke-width="1.02" stroke-linecap="round" stroke-linejoin="round"/>
<path d="M 25 9 L 22 13" fill="none" stroke="#111" stroke-width="1.02" stroke-linecap="round" stroke-linejoin="round"/>
<path d="M 8 12 L 10 5 L 16 4 L 22 8 L 22 13" fill="none" stroke="#111" stroke-width="1.02" stroke-linecap="round" stroke-linejoin="round"/>
<path d="M 10 13 L 12 9 L 18 10 L 19 14" fill="none" stroke="#111" stroke-width="1.02" stroke-linecap="round" stroke-linejoin="round"/>
</svg>
