<?xml version="1.0" encoding="UTF-8"?>
<svg xmlns="http://www.w3.org/2000/svg" viewBox="0 0 28.00 37.00">
<path d="M 19 4 L 19 17 L 21 24 L 14 27 L 15 31 L 23 26 L 24 30 L 21 33" fill="none" stroke="#111" stroke-width="1.30" stroke-linecap="round" stroke-linejoin="round"/>
<path d="M 19 10 L 22 11 L 21 14 L 12 21" fill="none" stroke="#111" stroke-width="1.30" stroke-linecap="round" stroke-linejoin="round"/>
<path d="M 18 10 L 15 13 L 16 21" fill="none" stroke="#111" stroke-width="1.30" stroke-linecap="round" stroke-linejoin="round"/>
<path d="M 7 14 L 7 9 L 10 9 L 10 14 L 12 15 L 12 19 L 10 19 L 10 23 L 7 23 L 7 19 L 4 19 L 4 16 L 5 15" fill="none" stroke="#111" stroke-width="1.30" stroke-linecap="round" stroke-linejoin="round"/>
<path d="M 7 14 L 5 15" fill="none" stroke="#111" stroke-width="1.30" stroke-linecap="round" stroke-linejoin="round"/>
</svg>
