<?xml version="1.0" encoding="UTF-8"?>
<svg xmlns="http://www.w3.org/2000/svg" viewBox="0 0 24.00 30.00">
<path d="M 9 5 L 8 7 L 9 8 L 10 8 L 11 6 L 9 5 L 9 5" fill="none" stroke="#111" stroke-width="1.05" stroke-linecap="round" stroke-linejoin="round"/>
<path d="M 10 8 L 11 14 L 9 16 L 8 13 L 8 13" fill="none" stroke="#111" stroke-width="1.05" stroke-linecap="round" stroke-linejoin="round"/>
<path d="M 14 4 L 13 7 L 15 10 L 16 7 L 14 4 L 14 4" fill="none" stroke="#111" stroke-width="1.05" stroke-linecap="round" stroke-linejoin="round"/>
<path d="M 15 11 L 16 13 L 14 16 L 14 14" fill="none" stroke="#111" stroke-width="1.05" stroke-linecap="round" stroke-linejoin="round"/>
<path d="M 4 8 L 6 15 L 8 20 L 13 21 L 18 19 L 18 15 L 18 8" fill="none" stroke="#111" stroke-width="1.05" stroke-linecap="round" stroke-linejoin="round"/>
<path d="M 11 21 L 11 25" fill="none" stroke="#111" stroke-width="1.05" stroke-linecap="round" stroke-linejoin="round"/>
<path d="M 15 21 L 15 25" fill="none" stroke="#111" stroke-width="1.05" stroke-linecap="round" stroke-linejoin="round"/>
<path d="M 7 26 L 20 25" fill="none" stroke="#111" stroke-width="1.05" stroke-linecap="round" stroke-linejoin="round"/>
</svg>
