<?xml version="1.0" encoding="UTF-8"?>
<svg xmlns="http://www.w3.org/2000/svg" viewBox="0 0 20.00 41.00">
<path d="M 12 11 L 10 8 L 12 4 L 14 7 L 14 9 L 12 11" fill="none" stroke="#111" stroke-width="1.44" stroke-linecap="round" stroke-linejoin="round"/>
<path d="M 12 11 L 12 17" fill="none" stroke="#111" stroke-width="1.44" stroke-linecap="round" stroke-linejoin="round"/>
<path d="M 12 17 L 14 17 L 16 20 L 16 23 L 16 27 L 12 29 L 8 31 L 8 34 L 14 31 L 14 33 L 12 37" fill="none" stroke="#111" stroke-width="1.44" stroke-linecap="round" stroke-linejoin="round"/>
<path d="M 4 25 L 6 20 L 11 16 L 15 15 L 16 12 L 13 12 L 9 14 L 6 17 L 6 20 L 6 24" fill="none" stroke="#111" stroke-width="1.44" stroke-linecap="round" stroke-linejoin="round"/>
<path d="M 12 17 L 10 20 L 9 25 L 10 27 L 12 29" fill="none" stroke="#111" stroke-width="1.44" stroke-linecap="round" stroke-linejoin="round"/>
<path d="M 12 20 L 13 23 L 13 26" fill="none" stroke="#111" stroke-width="1.44" stroke-linecap="round" stroke-linejoin="round"/>
<path d="M 13 22 L 11 24" fill="none" stroke="#111" stroke-width="1.44" stroke-linecap="round" stroke-linejoin="round"/>
</svg>
