<?xml version="1.0" encoding="UTF-8"?>
<svg xmlns="http://www.w3.org/2000/svg" viewBox="0 0 31.00 34.00">
<path d="M 19 4 L 17 7 L 19 8 L 20 8 L 21 4 L 19 4" fill="none" stroke="#111" stroke-width="1.19" stroke-linecap="round" stroke-linejoin="round"/>
<path d="M 4 21 L 7 12 L 10 10 L 11 8 L 11 4 L 16 4 L 21 4 L 24 6 L 27 9 L 25 9 L 21 8 L 20 8 L 17 8 L 15 8 L 14 10 L 16 14 L 19 15 L 19 17 L 19 21 L 17 23 L 13 26" fill="none" stroke="#111" stroke-width="1.19" stroke-linecap="round" stroke-linejoin="round"/>
<path d="M 17 15 L 15 17 L 10 20 L 8 23" fill="none" stroke="#111" stroke-width="1.19" stroke-linecap="round" stroke-linejoin="round"/>
<path d="M 11 11 L 12 15" fill="none" stroke="#111" stroke-width="1.19" stroke-linecap="round" stroke-linejoin="round"/>
<path d="M 11 12 L 9 15 L 7 20" fill="none" stroke="#111" stroke-width="1.19" stroke-linecap="round" stroke-linejoin="round"/>
<path d="M 22 20 L 21 15 L 20 11 L 23 13 L 27 16" fill="none" stroke="#111" stroke-width="1.19" stroke-linecap="round" stroke-linejoin="round"/>
<path d="M 24 13 L 21 15" fill="none" stroke="#111" stroke-width="1.19" stroke-linecap="round" stroke-linejoin="round"/>
<path d="M 17 23 L 17 26 L 14 28" fill="none" stroke="#111" stroke-width="1.19" stroke-linecap="round" stroke-linejoin="round"/>
<path d="M 17 25 L 17 29 L 16 30" fill="none" stroke="#111" stroke-width="1.19" stroke-linecap="round" stroke-linejoin="round"/>
</svg>
