<?xml version="1.0" encoding="UTF-8"?>
<svg xmlns="http://www.w3.org/2000/svg" viewBox="0 0 25.00 38.00">
<path d="M 12 14 L 18 12" fill="none" stroke="#111" stroke-width="1.33" stroke-linecap="round" stroke-linejoin="round"/>
<path d="M 15 4 L 15 14 L 18 25 L 11 28 L 11 32 L 19 28 L 18 34" fill="none" stroke="#111" stroke-width="1.33" stroke-linecap="round" stroke-linejoin="round"/>
<path d="M 13 17 L 10 15 L 11 12 L 8 14 L 7 16 L 9 19 L 12 17" fill="none" stroke="#111" stroke-width="1.33" stroke-linecap="round" stroke-linejoin="round"/>
<path d="M 9 19 L 8 26" fill="none" stroke="#111" stroke-width="1.33" stroke-linecap="round" stroke-linejoin="round"/>
<path d="M 5 21 L 12 20" fill="none" stroke="#111" stroke-width="1.33" stroke-linecap="round" stroke-linejoin="round"/>
<path d="M 4 21 L 5 15 L 7 11 L 12 9 L 17 9 L 20 11 L 21 15 L 19 17 L 17 19 L 14 21 L 12 24 L 8 24 L 4 25" fill="none" stroke="#111" stroke-width="1.33" stroke-linecap="round" stroke-linejoin="round"/>
</svg>
