<?xml version="1.0" encoding="UTF-8"?>
<svg xmlns="http://www.w3.org/2000/svg" viewBox="0 0 27.00 39.00">
<path d="M 6 13 L 15 14 L 14 20 L 5 20 L 6 13" fill="none" stroke="#111" stroke-width="1.37" stroke-linecap="round" stroke-linejoin="round"/>
<path d="M 6 4 L 6 9 L 10 9 L 12 7 L 11 4" fill="none" stroke="#111" stroke-width="1.37" stroke-linecap="round" stroke-linejoin="round"/>
<path d="M 9 5 L 9 12" fill="none" stroke="#111" stroke-width="1.37" stroke-linecap="round" stroke-linejoin="round"/>
<path d="M 9 20 L 7 26 L 12 26 L 10 20" fill="none" stroke="#111" stroke-width="1.37" stroke-linecap="round" stroke-linejoin="round"/>
<path d="M 4 26 L 5 31 L 12 32 L 14 28 L 14 25" fill="none" stroke="#111" stroke-width="1.37" stroke-linecap="round" stroke-linejoin="round"/>
<path d="M 5 27 L 13 28" fill="none" stroke="#111" stroke-width="1.37" stroke-linecap="round" stroke-linejoin="round"/>
<path d="M 16 21 L 17 15 L 22 14 L 23 18 L 17 19 L 14 21" fill="none" stroke="#111" stroke-width="1.37" stroke-linecap="round" stroke-linejoin="round"/>
<path d="M 20 6 L 19 14 L 21 24 L 17 25 L 17 28 L 22 26 L 20 31 L 16 35" fill="none" stroke="#111" stroke-width="1.37" stroke-linecap="round" stroke-linejoin="round"/>
</svg>
