<?xml version="1.0" encoding="UTF-8"?>
<svg xmlns="http://www.w3.org/2000/svg" viewBox="0 0 25.00 37.59">
<path d="M 7.0 4.0 L 7.38 4.0 L 7.75 4.0 L 8.12 4.0 L 8.5 4.0 L 8.88 4.0 L 9.25 4.0 L 9.62 4.0 L 10.0 4.0 L 10.38 4.0 L 10.75 4.0 L 11.12 4.0 L 11.5 4.0 L 11.88 4.0 L 12.25 4.0 L 12.62 4.0 L 13.0 4.0 L 13.38 4.0 L 13.75 4.0 L 14.12 4.0 L 14.5 4.0 L 14.88 4.0 L 15.25 4.0 L 15.62 4.0 L 16.0 4.0" fill="none" stroke="#111" stroke-width="1.32" stroke-linecap="round" stroke-linejoin="round"/>
<path d="M 4.0 8.0 L 4.71 8.0 L 5.42 8.0 L 6.12 8.0 L 6.83 8.0 L 7.54 8.0 L 8.25 8.0 L 8.96 8.0 L 9.67 8.0 L 10.38 8.0 L 11.08 8.0 L 11.79 8.0 L 12.5 8.0 L 13.21 8.0 L 13.92 8.0 L 14.62 8.0 L 15.33 8.0 L 16.04 8.0 L 16.75 8.0 L 17.46 8.0 L 18.17 8.0 L 18.88 8.0 L 19.58 8.0 L 20.29 8.0 L 21.0 8.0" fill="none" stroke="#111" stroke-width="1.32" stroke-linecap="round" stroke-linejoin="round"/>
<path d="M 12.0 8.0 L 12.08 8.46 L 12.17 8.92 L 12.25 9.38 L 12.33 9.83 L 12.42 10.29 L 12.5 10.75 L 12.58 11.21 L 12.67 11.67 L 12.75 12.12 L 12.83 12.58 L 12.92 13.04 L 13.0 13.5 L 13.08 13.96 L 13.17 14.42 L 13.25 14.88 L 13.33 15.33 L 13.42 15.79 L 13.5 16.25 L 13.58 16.71 L 13.67 17.17 L 13.75 17.62 L 13.83 18.08 L 13.92 18.54 L 14.0 19.0 L 14.0 19.0 L 13.42 19.38 L 12.87 19.8 L 12.34 20.25 L 11.84 20.74 L 11.38 21.25 L 10.95 21.79 L 10.55 22.36 L 10.19 22.96 L 9.87 23.57 L 9.59 24.21 L 9.34 24.86 L 9.15 25.52 L 8.99 26.2 L 8.87 26.88 L 8.8 27.57 L 8.77 28.27 L 8.79 28.96 L 8.85 29.65 L 8.96 30.34 L 9.1 31.01 L 9.29 31.68 L 9.52 32.34 L 9.8 32.97 L 10.11 33.59" fill="none" stroke="#111" stroke-width="1.32" stroke-linecap="round" stroke-linejoin="round"/>
<path d="M 13.0 11.0 L 12.67 11.38 L 12.33 11.75 L 12.0 12.12 L 11.67 12.5 L 11.33 12.88 L 11.0 13.25 L 10.67 13.62 L 10.33 14.0 L 10.0 14.38 L 9.67 14.75 L 9.33 15.12 L 9.0 15.5 L 8.67 15.88 L 8.33 16.25 L 8.0 16.62 L 7.67 17.0 L 7.33 17.38 L 7.0 17.75 L 6.67 18.12 L 6.33 18.5 L 6.0 18.88 L 5.67 19.25 L 5.33 19.62 L 5.0 20.0" fill="none" stroke="#111" stroke-width="1.32" stroke-linecap="round" stroke-linejoin="round"/>
</svg>
