<?xml version="1.0" encoding="UTF-8"?>
<svg xmlns="http://www.w3.org/2000/svg" viewBox="0 0 24.03 37.00">
<path d="M 4.0 4.0 L 4.21 4.04 L 4.42 4.08 L 4.62 4.12 L 4.83 4.17 L 5.04 4.21 L 5.25 4.25 L 5.46 4.29 L 5.67 4.33 L 5.88 4.38 L 6.08 4.42 L 6.29 4.46 L 6.5 4.5 L 6.71 4.54 L 6.92 4.58 L 7.12 4.62 L 7.33 4.67 L 7.54 4.71 L 7.75 4.75 L 7.96 4.79 L 8.17 4.83 L 8.38 4.88 L 8.58 4.92 L 8.79 4.96 L 9.0 5.0" fill="none" stroke="#111" stroke-width="1.30" stroke-linecap="round" stroke-linejoin="round"/>
<path d="M 8.0 5.0 L 8.04 5.79 L 8.08 6.58 L 8.12 7.38 L 8.17 8.17 L 8.21 8.96 L 8.25 9.75 L 8.29 10.54 L 8.33 11.33 L 8.38 12.12 L 8.42 12.92 L 8.46 13.71 L 8.5 14.5 L 8.54 15.29 L 8.58 16.08 L 8.62 16.88 L 8.67 17.67 L 8.71 18.46 L 8.75 19.25 L 8.79 20.04 L 8.83 20.83 L 8.88 21.62 L 8.92 22.42 L 8.96 23.21 L 9.0 24.0 L 9.0 24.0 L 9.5 23.78 L 10.02 23.61 L 10.56 23.5 L 11.1 23.43 L 11.65 23.42 L 12.2 23.47 L 12.74 23.56 L 13.26 23.71 L 13.77 23.91 L 14.26 24.16 L 14.72 24.46 L 15.15 24.8 L 15.54 25.18 L 15.9 25.6 L 16.21 26.05 L 16.48 26.53 L 16.7 27.03 L 16.86 27.55 L 16.98 28.08 L 17.04 28.63 L 17.05 29.18 L 17.01 29.72 L 16.91 30.26 L 16.76 30.79 L 17.0 31.0 L 16.56 31.04 L 16.12 31.07 L 15.68 31.08 L 15.23 31.07 L 14.79 31.06 L 14.35 31.02 L 13.91 30.98 L 13.47 30.91 L 13.04 30.84 L 12.6 30.75 L 12.18 30.64 L 11.75 30.52 L 11.33 30.39 L 10.91 30.24 L 10.5 30.08 L 10.09 29.9 L 9.69 29.71 L 9.3 29.51 L 8.91 29.29 L 8.54 29.07 L 8.16 28.82 L 7.8 28.57 L 7.45 28.31 L 7.1 28.03 L 7.0 28.0 L 7.08 28.21 L 7.17 28.42 L 7.25 28.62 L 7.33 28.83 L 7.42 29.04 L 7.5 29.25 L 7.58 29.46 L 7.67 29.67 L 7.75 29.88 L 7.83 30.08 L 7.92 30.29 L 8.0 30.5 L 8.08 30.71 L 8.17 30.92 L 8.25 31.12 L 8.33 31.33 L 8.42 31.54 L 8.5 31.75 L 8.58 31.96 L 8.67 32.17 L 8.75 32.38 L 8.83 32.58 L 8.92 32.79 L 9.0 33.0" fill="none" stroke="#111" stroke-width="1.30" stroke-linecap="round" stroke-linejoin="round"/>
<path d="M 8.0 8.0 L 8.21 8.04 L 8.42 8.08 L 8.62 8.12 L 8.83 8.17 L 9.04 8.21 L 9.25 8.25 L 9.46 8.29 L 9.67 8.33 L 9.88 8.38 L 10.08 8.42 L 10.29 8.46 L 10.5 8.5 L 10.71 8.54 L 10.92 8.58 L 11.12 8.62 L 11.33 8.67 L 11.54 8.71 L 11.75 8.75 L 11.96 8.79 L 12.17 8.83 L 12.38 8.88 L 12.58 8.92 L 12.79 8.96 L 13.0 9.0 L 13.0 9.0 L 13.0 9.36 L 13.0 9.73 L 13.02 10.09 L 13.05 10.45 L 13.09 10.81 L 13.15 11.17 L 13.21 11.52 L 13.29 11.88 L 13.38 12.23 L 13.48 12.58 L 13.59 12.92 L 13.71 13.27 L 13.84 13.6 L 13.99 13.94 L 14.14 14.27 L 14.31 14.59 L 14.48 14.91 L 14.67 15.22 L 14.86 15.52 L 15.07 15.82 L 15.28 16.11 L 15.51 16.4 L 15.74 16.68 L 15.98 16.95 L 16.0 17.0 L 16.3 16.99 L 16.61 17.01 L 16.91 17.05 L 17.2 17.12 L 17.49 17.2 L 17.78 17.32 L 18.05 17.45 L 18.31 17.6 L 18.56 17.78 L 18.79 17.97 L 19.01 18.19 L 19.21 18.42 L 19.39 18.66 L 19.55 18.92 L 19.68 19.19 L 19.8 19.47 L 19.89 19.76 L 19.97 20.05 L 20.01 20.35 L 20.03 20.66 L 20.03 20.96 L 20.01 21.26 L 19.96 21.56 L 19.88 21.85" fill="none" stroke="#111" stroke-width="1.30" stroke-linecap="round" stroke-linejoin="round"/>
<path d="M 12.0 14.0 L 12.04 14.08 L 12.08 14.17 L 12.12 14.25 L 12.17 14.33 L 12.21 14.42 L 12.25 14.5 L 12.29 14.58 L 12.33 14.67 L 12.38 14.75 L 12.42 14.83 L 12.46 14.92 L 12.5 15.0 L 12.54 15.08 L 12.58 15.17 L 12.62 15.25 L 12.67 15.33 L 12.71 15.42 L 12.75 15.5 L 12.79 15.58 L 12.83 15.67 L 12.88 15.75 L 12.92 15.83 L 12.96 15.92 L 13.0 16.0" fill="none" stroke="#111" stroke-width="1.30" stroke-linecap="round" stroke-linejoin="round"/>
<path d="M 15.0 17.0 L 15.0 17.08 L 15.0 17.17 L 15.0 17.25 L 15.0 17.33 L 15.0 17.42 L 15.0 17.5 L 15.0 17.58 L 15.0 17.67 L 15.0 17.75 L 15.0 17.83 L 15.0 17.92 L 15.0 18.0 L 15.0 18.08 L 15.0 18.17 L 15.0 18.25 L 15.0 18.33 L 15.0 18.42 L 15.0 18.5 L 15.0 18.58 L 15.0 18.67 L 15.0 18.75 L 15.0 18.83 L 15.0 18.92 L 15.0 19.0" fill="none" stroke="#111" stroke-width="1.30" stroke-linecap="round" stroke-linejoin="round"/>
<path d="M 17.0 18.0 L 17.0 18.08 L 17.0 18.17 L 17.0 18.25 L 17.0 18.33 L 17.0 18.42 L 17.0 18.5 L 17.0 18.58 L 17.0 18.67 L 17.0 18.75 L 17.0 18.83 L 17.0 18.92 L 17.0 19.0 L 17.0 19.08 L 17.0 19.17 L 17.0 19.25 L 17.0 19.33 L 17.0 19.42 L 17.0 19.5 L 17.0 19.58 L 17.0 19.67 L 17.0 19.75 L 17.0 19.83 L 17.0 19.92 L 17.0 20.0" fill="none" stroke="#111" stroke-width="1.30" stroke-linecap="round" stroke-linejoin="round"/>
</svg>
