<?xml version="1.0" encoding="UTF-8"?>
<svg xmlns="http://www.w3.org/2000/svg" viewBox="0 0 26.00 40.00">
<path d="M 6.0 4.0 L 6.67 4.0 L 7.33 4.0 L 8.0 4.0 L 8.67 4.0 L 9.33 4.0 L 10.0 4.0 L 10.67 4.0 L 11.33 4.0 L 12.0 4.0 L 12.67 4.0 L 13.33 4.0 L 14.0 4.0 L 14.67 4.0 L 15.33 4.0 L 16.0 4.0 L 16.67 4.0 L 17.33 4.0 L 18.0 4.0 L 18.67 4.0 L 19.33 4.0 L 20.0 4.0 L 20.67 4.0 L 21.33 4.0 L 22.0 4.0" fill="none" stroke="#111" stroke-width="1.40" stroke-linecap="round" stroke-linejoin="round"/>
<path d="M 13.0 4.0 L 12.96 5.33 L 12.92 6.67 L 12.88 8.0 L 12.83 9.33 L 12.79 10.67 L 12.75 12.0 L 12.71 13.33 L 12.67 14.67 L 12.62 16.0 L 12.58 17.33 L 12.54 18.67 L 12.5 20.0 L 12.46 21.33 L 12.42 22.67 L 12.38 24.0 L 12.33 25.33 L 12.29 26.67 L 12.25 28.0 L 12.21 29.33 L 12.17 30.67 L 12.12 32.0 L 12.08 33.33 L 12.04 34.67 L 12.0 36.0" fill="none" stroke="#111" stroke-width="1.40" stroke-linecap="round" stroke-linejoin="round"/>
<path d="M 7.0 4.0 L 7.25 4.38 L 7.5 4.75 L 7.75 5.12 L 8.0 5.5 L 8.25 5.88 L 8.5 6.25 L 8.75 6.62 L 9.0 7.0 L 9.25 7.38 L 9.5 7.75 L 9.75 8.12 L 10.0 8.5 L 10.25 8.88 L 10.5 9.25 L 10.75 9.62 L 11.0 10.0 L 11.25 10.38 L 11.5 10.75 L 11.75 11.12 L 12.0 11.5 L 12.25 11.88 L 12.5 12.25 L 12.75 12.62 L 13.0 13.0 L 13.0 13.0 L 13.25 12.62 L 13.5 12.25 L 13.75 11.88 L 14.0 11.5 L 14.25 11.12 L 14.5 10.75 L 14.75 10.38 L 15.0 10.0 L 15.25 9.62 L 15.5 9.25 L 15.75 8.88 L 16.0 8.5 L 16.25 8.12 L 16.5 7.75 L 16.75 7.38 L 17.0 7.0 L 17.25 6.62 L 17.5 6.25 L 17.75 5.88 L 18.0 5.5 L 18.25 5.12 L 18.5 4.75 L 18.75 4.38 L 19.0 4.0" fill="none" stroke="#111" stroke-width="1.40" stroke-linecap="round" stroke-linejoin="round"/>
<path d="M 5.0 10.0 L 5.0 10.33 L 5.0 10.67 L 5.0 11.0 L 5.0 11.33 L 5.0 11.67 L 5.0 12.0 L 5.0 12.33 L 5.0 12.67 L 5.0 13.0 L 5.0 13.33 L 5.0 13.67 L 5.0 14.0 L 5.0 14.33 L 5.0 14.67 L 5.0 15.0 L 5.0 15.33 L 5.0 15.67 L 5.0 16.0 L 5.0 16.33 L 5.0 16.67 L 5.0 17.0 L 5.0 17.33 L 5.0 17.67 L 5.0 18.0" fill="none" stroke="#111" stroke-width="1.40" stroke-linecap="round" stroke-linejoin="round"/>
<path d="M 5.0 14.0 L 5.67 14.0 L 6.33 14.0 L 7.0 14.0 L 7.67 14.0 L 8.33 14.0 L 9.0 14.0 L 9.67 14.0 L 10.33 14.0 L 11.0 14.0 L 11.67 14.0 L 12.33 14.0 L 13.0 14.0 L 13.67 14.0 L 14.33 14.0 L 15.0 14.0 L 15.67 14.0 L 16.33 14.0 L 17.0 14.0 L 17.67 14.0 L 18.33 14.0 L 19.0 14.0 L 19.67 14.0 L 20.33 14.0 L 21.0 14.0" fill="none" stroke="#111" stroke-width="1.40" stroke-linecap="round" stroke-linejoin="round"/>
<path d="M 21.0 10.0 L 21.0 10.42 L 21.0 10.83 L 21.0 11.25 L 21.0 11.67 L 21.0 12.08 L 21.0 12.5 L 21.0 12.92 L 21.0 13.33 L 21.0 13.75 L 21.0 14.17 L 21.0 14.58 L 21.0 15.0 L 21.0 15.42 L 21.0 15.83 L 21.0 16.25 L 21.0 16.67 L 21.0 17.08 L 21.0 17.5 L 21.0 17.92 L 21.0 18.33 L 21.0 18.75 L 21.0 19.17 L 21.0 19.58 L 21.0 20.0" fill="none" stroke="#111" stroke-width="1.40" stroke-linecap="round" stroke-linejoin="round"/>
<path d="M 13.0 18.0 L 12.62 18.46 L 12.25 18.92 L 11.88 19.38 L 11.5 19.83 L 11.12 20.29 L 10.75 20.75 L 10.38 21.21 L 10.0 21.67 L 9.62 22.12 L 9.25 22.58 L 8.88 23.04 L 8.5 23.5 L 8.12 23.96 L 7.75 24.42 L 7.38 24.88 L 7.0 25.33 L 6.62 25.79 L 6.25 26.25 L 5.88 26.71 L 5.5 27.17 L 5.12 27.62 L 4.75 28.08 L 4.38 28.54 L 4.0 29.0" fill="none" stroke="#111" stroke-width="1.40" stroke-linecap="round" stroke-linejoin="round"/>
<path d="M 13.0 18.0 L 13.33 18.5 L 13.67 19.0 L 14.0 19.5 L 14.33 20.0 L 14.67 20.5 L 15.0 21.0 L 15.33 21.5 L 15.67 22.0 L 16.0 22.5 L 16.33 23.0 L 16.67 23.5 L 17.0 24.0 L 17.33 24.5 L 17.67 25.0 L 18.0 25.5 L 18.33 26.0 L 18.67 26.5 L 19.0 27.0 L 19.33 27.5 L 19.67 28.0 L 20.0 28.5 L 20.33 29.0 L 20.67 29.5 L 21.0 30.0" fill="none" stroke="#111" stroke-width="1.40" stroke-linecap="round" stroke-linejoin="round"/>
</svg>
