<?xml version="1.0" encoding="UTF-8"?>
<svg xmlns="http://www.w3.org/2000/svg" viewBox="0 0 21.77 26.00">
<path d="M 11.0 4.0 L 10.3 4.46 L 9.63 4.96 L 8.99 5.51 L 8.4 6.11 L 7.86 6.75 L 7.36 7.42 L 6.91 8.13 L 6.52 8.87 L 6.18 9.64 L 5.89 10.43 L 5.67 11.24 L 5.5 12.06 L 5.39 12.89 L 5.34 13.73 L 5.35 14.57 L 5.43 15.41 L 5.56 16.23 L 5.76 17.05 L 6.01 17.85 L 6.32 18.63 L 6.68 19.39 L 7.1 20.12 L 7.57 20.81 L 8.09 21.47 L 8.0 22.0 L 8.25 22.0 L 8.5 22.0 L 8.75 22.0 L 9.0 22.0 L 9.25 22.0 L 9.5 22.0 L 9.75 22.0 L 10.0 22.0 L 10.25 22.0 L 10.5 22.0 L 10.75 22.0 L 11.0 22.0 L 11.25 22.0 L 11.5 22.0 L 11.75 22.0 L 12.0 22.0 L 12.25 22.0 L 12.5 22.0 L 12.75 22.0 L 13.0 22.0 L 13.25 22.0 L 13.5 22.0 L 13.75 22.0 L 14.0 22.0 L 14.0 22.0 L 14.44 21.87 L 14.87 21.69 L 15.27 21.48 L 15.66 21.23 L 16.02 20.95 L 16.36 20.63 L 16.66 20.29 L 16.93 19.91 L 17.17 19.52 L 17.37 19.11 L 17.53 18.67 L 17.65 18.23 L 17.73 17.78 L 17.77 17.32 L 17.76 16.86 L 17.71 16.4 L 17.62 15.95 L 17.49 15.51 L 17.33 15.08 L 17.12 14.67 L 16.87 14.28 L 16.59 13.92 L 16.28 13.58 L 15.94 13.27 L 16.0 13.0 L 15.79 12.63 L 15.58 12.25 L 15.38 11.88 L 15.17 11.5 L 14.96 11.13 L 14.75 10.75 L 14.54 10.38 L 14.33 10.0 L 14.12 9.63 L 13.92 9.25 L 13.71 8.88 L 13.5 8.5 L 13.29 8.13 L 13.08 7.75 L 12.88 7.38 L 12.67 7.0 L 12.46 6.63 L 12.25 6.25 L 12.04 5.88 L 11.83 5.5 L 11.62 5.13 L 11.42 4.75 L 11.21 4.38 L 11.0 4.0" fill="none" stroke="#111" stroke-width="0.91" stroke-linecap="round" stroke-linejoin="round"/>
<path d="M 4.0 15.0 L 4.46 14.92 L 4.92 14.83 L 5.38 14.75 L 5.83 14.67 L 6.29 14.58 L 6.75 14.5 L 7.21 14.42 L 7.67 14.33 L 8.12 14.25 L 8.58 14.17 L 9.04 14.08 L 9.5 14.0 L 9.96 13.92 L 10.42 13.83 L 10.88 13.75 L 11.33 13.67 L 11.79 13.58 L 12.25 13.5 L 12.71 13.42 L 13.17 13.33 L 13.62 13.25 L 14.08 13.17 L 14.54 13.08 L 15.0 13.0" fill="none" stroke="#111" stroke-width="0.91" stroke-linecap="round" stroke-linejoin="round"/>
</svg>
