<?xml version="1.0" encoding="UTF-8"?>
<svg xmlns="http://www.w3.org/2000/svg" viewBox="0 0 26.00 41.00">
<path d="M 6.0 5.0 L 6.67 5.0 L 7.33 5.0 L 8.0 5.0 L 8.67 5.0 L 9.33 5.0 L 10.0 5.0 L 10.67 5.0 L 11.33 5.0 L 12.0 5.0 L 12.67 5.0 L 13.33 5.0 L 14.0 5.0 L 14.67 5.0 L 15.33 5.0 L 16.0 5.0 L 16.67 5.0 L 17.33 5.0 L 18.0 5.0 L 18.67 5.0 L 19.33 5.0 L 20.0 5.0 L 20.67 5.0 L 21.33 5.0 L 22.0 5.0" fill="none" stroke="#111" stroke-width="1.44" stroke-linecap="round" stroke-linejoin="round"/>
<path d="M 4.0 10.0 L 4.75 9.96 L 5.5 9.92 L 6.25 9.88 L 7.0 9.83 L 7.75 9.79 L 8.5 9.75 L 9.25 9.71 L 10.0 9.67 L 10.75 9.62 L 11.5 9.58 L 12.25 9.54 L 13.0 9.5 L 13.75 9.46 L 14.5 9.42 L 15.25 9.38 L 16.0 9.33 L 16.75 9.29 L 17.5 9.25 L 18.25 9.21 L 19.0 9.17 L 19.75 9.12 L 20.5 9.08 L 21.25 9.04 L 22.0 9.0" fill="none" stroke="#111" stroke-width="1.44" stroke-linecap="round" stroke-linejoin="round"/>
<path d="M 4.0 5.0 L 4.0 5.62 L 4.0 6.25 L 4.0 6.88 L 4.0 7.5 L 4.0 8.12 L 4.0 8.75 L 4.0 9.38 L 4.0 10.0 L 4.0 10.62 L 4.0 11.25 L 4.0 11.88 L 4.0 12.5 L 4.0 13.12 L 4.0 13.75 L 4.0 14.38 L 4.0 15.0 L 4.0 15.62 L 4.0 16.25 L 4.0 16.88 L 4.0 17.5 L 4.0 18.12 L 4.0 18.75 L 4.0 19.38 L 4.0 20.0" fill="none" stroke="#111" stroke-width="1.44" stroke-linecap="round" stroke-linejoin="round"/>
<path d="M 20.0 4.0 L 20.04 4.67 L 20.08 5.33 L 20.12 6.0 L 20.17 6.67 L 20.21 7.33 L 20.25 8.0 L 20.29 8.67 L 20.33 9.33 L 20.38 10.0 L 20.42 10.67 L 20.46 11.33 L 20.5 12.0 L 20.54 12.67 L 20.58 13.33 L 20.62 14.0 L 20.67 14.67 L 20.71 15.33 L 20.75 16.0 L 20.79 16.67 L 20.83 17.33 L 20.88 18.0 L 20.92 18.67 L 20.96 19.33 L 21.0 20.0" fill="none" stroke="#111" stroke-width="1.44" stroke-linecap="round" stroke-linejoin="round"/>
<path d="M 11.0 12.0 L 11.04 13.04 L 11.08 14.08 L 11.12 15.12 L 11.17 16.17 L 11.21 17.21 L 11.25 18.25 L 11.29 19.29 L 11.33 20.33 L 11.38 21.38 L 11.42 22.42 L 11.46 23.46 L 11.5 24.5 L 11.54 25.54 L 11.58 26.58 L 11.62 27.62 L 11.67 28.67 L 11.71 29.71 L 11.75 30.75 L 11.79 31.79 L 11.83 32.83 L 11.87 33.88 L 11.92 34.92 L 11.96 35.96 L 12.0 37.0" fill="none" stroke="#111" stroke-width="1.44" stroke-linecap="round" stroke-linejoin="round"/>
<path d="M 6.0 16.0 L 6.0 16.29 L 6.0 16.58 L 6.0 16.88 L 6.0 17.17 L 6.0 17.46 L 6.0 17.75 L 6.0 18.04 L 6.0 18.33 L 6.0 18.62 L 6.0 18.92 L 6.0 19.21 L 6.0 19.5 L 6.0 19.79 L 6.0 20.08 L 6.0 20.38 L 6.0 20.67 L 6.0 20.96 L 6.0 21.25 L 6.0 21.54 L 6.0 21.83 L 6.0 22.12 L 6.0 22.42 L 6.0 22.71 L 6.0 23.0" fill="none" stroke="#111" stroke-width="1.44" stroke-linecap="round" stroke-linejoin="round"/>
<path d="M 6.0 19.0 L 6.46 18.96 L 6.92 18.92 L 7.38 18.88 L 7.83 18.83 L 8.29 18.79 L 8.75 18.75 L 9.21 18.71 L 9.67 18.67 L 10.12 18.62 L 10.58 18.58 L 11.04 18.54 L 11.5 18.5 L 11.96 18.46 L 12.42 18.42 L 12.88 18.38 L 13.33 18.33 L 13.79 18.29 L 14.25 18.25 L 14.71 18.21 L 15.17 18.17 L 15.62 18.12 L 16.08 18.08 L 16.54 18.04 L 17.0 18.0" fill="none" stroke="#111" stroke-width="1.44" stroke-linecap="round" stroke-linejoin="round"/>
<path d="M 17.0 15.0 L 17.0 15.29 L 17.0 15.58 L 17.0 15.88 L 17.0 16.17 L 17.0 16.46 L 17.0 16.75 L 17.0 17.04 L 17.0 17.33 L 17.0 17.62 L 17.0 17.92 L 17.0 18.21 L 17.0 18.5 L 17.0 18.79 L 17.0 19.08 L 17.0 19.38 L 17.0 19.67 L 17.0 19.96 L 17.0 20.25 L 17.0 20.54 L 17.0 20.83 L 17.0 21.12 L 17.0 21.42 L 17.0 21.71 L 17.0 22.0" fill="none" stroke="#111" stroke-width="1.44" stroke-linecap="round" stroke-linejoin="round"/>
<path d="M 12.0 23.0 L 12.29 23.33 L 12.58 23.67 L 12.88 24.0 L 13.17 24.33 L 13.46 24.67 L 13.75 25.0 L 14.04 25.33 L 14.33 25.67 L 14.62 26.0 L 14.92 26.33 L 15.21 26.67 L 15.5 27.0 L 15.79 27.33 L 16.08 27.67 L 16.38 28.0 L 16.67 28.33 L 16.96 28.67 L 17.25 29.0 L 17.54 29.33 L 17.83 29.67 L 18.12 30.0 L 18.42 30.33 L 18.71 30.67 L 19.0 31.0" fill="none" stroke="#111" stroke-width="1.44" stroke-linecap="round" stroke-linejoin="round"/>
</svg>
