<?xml version="1.0" encoding="UTF-8"?>
<svg xmlns="http://www.w3.org/2000/svg" viewBox="0 0 30.79 16.41">
<path d="M 4.0 8.41 L 4.79 7.73 L 5.62 7.11 L 6.49 6.53 L 7.39 6.01 L 8.33 5.55 L 9.29 5.14 L 10.27 4.8 L 11.27 4.51 L 12.29 4.29 L 13.32 4.13 L 14.36 4.03 L 15.4 4.0 L 16.44 4.03 L 17.48 4.13 L 18.51 4.29 L 19.52 4.51 L 20.52 4.8 L 21.51 5.14 L 22.47 5.55 L 23.4 6.01 L 24.3 6.53 L 25.17 7.11 L 26.0 7.73 L 26.79 8.41" fill="none" stroke="#111" stroke-width="1.08" stroke-linecap="round" stroke-linejoin="round"/>
<path d="M 8.0 12.41 L 8.54 12.41 L 9.08 12.41 L 9.62 12.41 L 10.17 12.41 L 10.71 12.41 L 11.25 12.41 L 11.79 12.41 L 12.33 12.41 L 12.88 12.41 L 13.42 12.41 L 13.96 12.41 L 14.5 12.41 L 15.04 12.41 L 15.58 12.41 L 16.12 12.41 L 16.67 12.41 L 17.21 12.41 L 17.75 12.41 L 18.29 12.41 L 18.83 12.41 L 19.38 12.41 L 19.92 12.41 L 20.46 12.41 L 21.0 12.41" fill="none" stroke="#111" stroke-width="1.08" stroke-linecap="round" stroke-linejoin="round"/>
</svg>
