<?xml version="1.0" encoding="UTF-8"?>
<svg xmlns="http://www.w3.org/2000/svg" viewBox="0 0 26.55 32.00">
<path d="M 5.0 4.0 L 5.29 4.0 L 5.58 4.0 L 5.88 4.0 L 6.17 4.0 L 6.46 4.0 L 6.75 4.0 L 7.04 4.0 L 7.33 4.0 L 7.62 4.0 L 7.92 4.0 L 8.21 4.0 L 8.5 4.0 L 8.79 4.0 L 9.08 4.0 L 9.38 4.0 L 9.67 4.0 L 9.96 4.0 L 10.25 4.0 L 10.54 4.0 L 10.83 4.0 L 11.12 4.0 L 11.42 4.0 L 11.71 4.0 L 12.0 4.0" fill="none" stroke="#111" stroke-width="1.12" stroke-linecap="round" stroke-linejoin="round"/>
<path d="M 4.0 8.0 L 4.38 8.0 L 4.75 8.0 L 5.12 8.0 L 5.5 8.0 L 5.88 8.0 L 6.25 8.0 L 6.62 8.0 L 7.0 8.0 L 7.38 8.0 L 7.75 8.0 L 8.12 8.0 L 8.5 8.0 L 8.88 8.0 L 9.25 8.0 L 9.62 8.0 L 10.0 8.0 L 10.38 8.0 L 10.75 8.0 L 11.12 8.0 L 11.5 8.0 L 11.88 8.0 L 12.25 8.0 L 12.62 8.0 L 13.0 8.0" fill="none" stroke="#111" stroke-width="1.12" stroke-linecap="round" stroke-linejoin="round"/>
<path d="M 9.0 8.0 L 9.0 8.42 L 9.0 8.83 L 9.0 9.25 L 9.0 9.67 L 9.0 10.08 L 9.0 10.5 L 9.0 10.92 L 9.0 11.33 L 9.0 11.75 L 9.0 12.17 L 9.0 12.58 L 9.0 13.0 L 9.0 13.42 L 9.0 13.83 L 9.0 14.25 L 9.0 14.67 L 9.0 15.08 L 9.0 15.5 L 9.0 15.92 L 9.0 16.33 L 9.0 16.75 L 9.0 17.17 L 9.0 17.58 L 9.0 18.0" fill="none" stroke="#111" stroke-width="1.12" stroke-linecap="round" stroke-linejoin="round"/>
<path d="M 5.0 10.0 L 5.0 10.17 L 5.0 10.33 L 5.0 10.5 L 5.0 10.67 L 5.0 10.83 L 5.0 11.0 L 5.0 11.17 L 5.0 11.33 L 5.0 11.5 L 5.0 11.67 L 5.0 11.83 L 5.0 12.0 L 5.0 12.17 L 5.0 12.33 L 5.0 12.5 L 5.0 12.67 L 5.0 12.83 L 5.0 13.0 L 5.0 13.17 L 5.0 13.33 L 5.0 13.5 L 5.0 13.67 L 5.0 13.83 L 5.0 14.0" fill="none" stroke="#111" stroke-width="1.12" stroke-linecap="round" stroke-linejoin="round"/>
<path d="M 12.0 10.0 L 12.0 10.12 L 12.0 10.25 L 12.0 10.38 L 12.0 10.5 L 12.0 10.62 L 12.0 10.75 L 12.0 10.88 L 12.0 11.0 L 12.0 11.12 L 12.0 11.25 L 12.0 11.38 L 12.0 11.5 L 12.0 11.62 L 12.0 11.75 L 12.0 11.88 L 12.0 12.0 L 12.0 12.12 L 12.0 12.25 L 12.0 12.38 L 12.0 12.5 L 12.0 12.62 L 12.0 12.75 L 12.0 12.88 L 12.0 13.0" fill="none" stroke="#111" stroke-width="1.12" stroke-linecap="round" stroke-linejoin="round"/>
<path d="M 12.0 16.0 L 12.42 16.0 L 12.83 16.0 L 13.25 16.0 L 13.67 16.0 L 14.08 16.0 L 14.5 16.0 L 14.92 16.0 L 15.33 16.0 L 15.75 16.0 L 16.17 16.0 L 16.58 16.0 L 17.0 16.0 L 17.42 16.0 L 17.83 16.0 L 18.25 16.0 L 18.67 16.0 L 19.08 16.0 L 19.5 16.0 L 19.92 16.0 L 20.33 16.0 L 20.75 16.0 L 21.17 16.0 L 21.58 16.0 L 22.0 16.0" fill="none" stroke="#111" stroke-width="1.12" stroke-linecap="round" stroke-linejoin="round"/>
<path d="M 16.0 11.0 L 16.18 11.29 L 16.35 11.59 L 16.51 11.89 L 16.66 12.2 L 16.8 12.51 L 16.92 12.83 L 17.04 13.16 L 17.14 13.49 L 17.22 13.82 L 17.3 14.15 L 17.36 14.49 L 17.41 14.83 L 17.45 15.17 L 17.47 15.51 L 17.48 15.86 L 17.48 16.2 L 17.46 16.54 L 17.43 16.89 L 17.39 17.23 L 17.33 17.56 L 17.27 17.9 L 17.19 18.23 L 17.09 18.56 L 16.99 18.89" fill="none" stroke="#111" stroke-width="1.12" stroke-linecap="round" stroke-linejoin="round"/>
<path d="M 12.0 18.0 L 11.78 18.47 L 11.6 18.96 L 11.46 19.47 L 11.36 19.98 L 11.3 20.5 L 11.27 21.02 L 11.29 21.54 L 11.35 22.06 L 11.45 22.57 L 11.59 23.08 L 11.77 23.57 L 11.98 24.04 L 12.23 24.5 L 12.52 24.94 L 12.84 25.35 L 13.19 25.74 L 13.57 26.1 L 13.98 26.42 L 14.41 26.72 L 14.86 26.98 L 15.33 27.21 L 15.82 27.39 L 16.32 27.54 L 16.83 27.65 L 17.0 28.0 L 17.51 27.89 L 18.01 27.74 L 18.5 27.55 L 18.97 27.33 L 19.42 27.06 L 19.85 26.77 L 20.26 26.44 L 20.64 26.08 L 20.99 25.7 L 21.31 25.28 L 21.59 24.85 L 21.84 24.39 L 22.06 23.91 L 22.24 23.42 L 22.38 22.92 L 22.48 22.41 L 22.53 21.89 L 22.55 21.36 L 22.53 20.84 L 22.47 20.32 L 22.37 19.81 L 22.23 19.31 L 22.05 18.82 L 21.83 18.35" fill="none" stroke="#111" stroke-width="1.12" stroke-linecap="round" stroke-linejoin="round"/>
<path d="M 12.0 22.0 L 12.38 22.0 L 12.75 22.0 L 13.12 22.0 L 13.5 22.0 L 13.88 22.0 L 14.25 22.0 L 14.62 22.0 L 15.0 22.0 L 15.38 22.0 L 15.75 22.0 L 16.12 22.0 L 16.5 22.0 L 16.88 22.0 L 17.25 22.0 L 17.62 22.0 L 18.0 22.0 L 18.38 22.0 L 18.75 22.0 L 19.12 22.0 L 19.5 22.0 L 19.88 22.0 L 20.25 22.0 L 20.62 22.0 L 21.0 22.0" fill="none" stroke="#111" stroke-width="1.12" stroke-linecap="round" stroke-linejoin="round"/>
</svg>
