<?xml version="1.0" encoding="UTF-8"?>
<svg xmlns="http://www.w3.org/2000/svg" viewBox="0 0 26.00 28.00">
<path d="M 4.0 4.0 L 4.75 4.0 L 5.5 4.0 L 6.25 4.0 L 7.0 4.0 L 7.75 4.0 L 8.5 4.0 L 9.25 4.0 L 10.0 4.0 L 10.75 4.0 L 11.5 4.0 L 12.25 4.0 L 13.0 4.0 L 13.75 4.0 L 14.5 4.0 L 15.25 4.0 L 16.0 4.0 L 16.75 4.0 L 17.5 4.0 L 18.25 4.0 L 19.0 4.0 L 19.75 4.0 L 20.5 4.0 L 21.25 4.0 L 22.0 4.0" fill="none" stroke="#111" stroke-width="0.98" stroke-linecap="round" stroke-linejoin="round"/>
<path d="M 9.0 5.0 L 9.07 5.41 L 9.11 5.83 L 9.13 6.25 L 9.12 6.67 L 9.08 7.09 L 9.02 7.5 L 8.93 7.91 L 8.82 8.32 L 8.68 8.71 L 8.51 9.1 L 8.33 9.47 L 8.11 9.84 L 7.88 10.18 L 7.63 10.52 L 7.35 10.83 L 7.06 11.13 L 6.74 11.41 L 6.41 11.67 L 6.07 11.91 L 5.71 12.13 L 5.34 12.32 L 4.95 12.49 L 4.56 12.63 L 4.16 12.75" fill="none" stroke="#111" stroke-width="0.98" stroke-linecap="round" stroke-linejoin="round"/>
<path d="M 9.0 8.0 L 9.21 8.21 L 9.42 8.42 L 9.62 8.62 L 9.83 8.83 L 10.04 9.04 L 10.25 9.25 L 10.46 9.46 L 10.67 9.67 L 10.88 9.88 L 11.08 10.08 L 11.29 10.29 L 11.5 10.5 L 11.71 10.71 L 11.92 10.92 L 12.12 11.12 L 12.33 11.33 L 12.54 11.54 L 12.75 11.75 L 12.96 11.96 L 13.17 12.17 L 13.38 12.38 L 13.58 12.58 L 13.79 12.79 L 14.0 13.0" fill="none" stroke="#111" stroke-width="0.98" stroke-linecap="round" stroke-linejoin="round"/>
<path d="M 9.0 10.0 L 9.08 10.6 L 9.14 11.2 L 9.18 11.81 L 9.21 12.41 L 9.22 13.02 L 9.2 13.63 L 9.18 14.23 L 9.13 14.83 L 9.06 15.44 L 8.98 16.04 L 8.88 16.64 L 8.76 17.23 L 8.63 17.82 L 8.47 18.41 L 8.3 18.99 L 8.12 19.56 L 7.91 20.13 L 7.69 20.7 L 7.45 21.26 L 7.2 21.81 L 6.92 22.35 L 6.64 22.88 L 6.34 23.41 L 6.02 23.92" fill="none" stroke="#111" stroke-width="0.98" stroke-linecap="round" stroke-linejoin="round"/>
<path d="M 10.0 14.0 L 10.12 14.42 L 10.25 14.83 L 10.38 15.25 L 10.5 15.67 L 10.62 16.08 L 10.75 16.5 L 10.88 16.92 L 11.0 17.33 L 11.12 17.75 L 11.25 18.17 L 11.38 18.58 L 11.5 19.0 L 11.62 19.42 L 11.75 19.83 L 11.88 20.25 L 12.0 20.67 L 12.12 21.08 L 12.25 21.5 L 12.38 21.92 L 12.5 22.33 L 12.62 22.75 L 12.75 23.17 L 12.88 23.58 L 13.0 24.0" fill="none" stroke="#111" stroke-width="0.98" stroke-linecap="round" stroke-linejoin="round"/>
<path d="M 18.0 5.0 L 17.92 5.38 L 17.83 5.75 L 17.75 6.12 L 17.67 6.5 L 17.58 6.88 L 17.5 7.25 L 17.42 7.62 L 17.33 8.0 L 17.25 8.38 L 17.17 8.75 L 17.08 9.12 L 17.0 9.5 L 16.92 9.88 L 16.83 10.25 L 16.75 10.62 L 16.67 11.0 L 16.58 11.38 L 16.5 11.75 L 16.42 12.12 L 16.33 12.5 L 16.25 12.88 L 16.17 13.25 L 16.08 13.62 L 16.0 14.0" fill="none" stroke="#111" stroke-width="0.98" stroke-linecap="round" stroke-linejoin="round"/>
<path d="M 18.0 7.0 L 18.17 7.29 L 18.33 7.58 L 18.5 7.88 L 18.67 8.17 L 18.83 8.46 L 19.0 8.75 L 19.17 9.04 L 19.33 9.33 L 19.5 9.62 L 19.67 9.92 L 19.83 10.21 L 20.0 10.5 L 20.17 10.79 L 20.33 11.08 L 20.5 11.38 L 20.67 11.67 L 20.83 11.96 L 21.0 12.25 L 21.17 12.54 L 21.33 12.83 L 21.5 13.12 L 21.67 13.42 L 21.83 13.71 L 22.0 14.0" fill="none" stroke="#111" stroke-width="0.98" stroke-linecap="round" stroke-linejoin="round"/>
<path d="M 18.0 7.0 L 18.12 7.64 L 18.22 8.28 L 18.3 8.93 L 18.36 9.58 L 18.39 10.23 L 18.41 10.88 L 18.4 11.53 L 18.37 12.18 L 18.31 12.83 L 18.24 13.47 L 18.15 14.12 L 18.03 14.76 L 17.89 15.39 L 17.73 16.02 L 17.55 16.65 L 17.35 17.27 L 17.13 17.88 L 16.88 18.48 L 16.62 19.08 L 16.34 19.66 L 16.04 20.24 L 15.72 20.8 L 15.38 21.36 L 15.02 21.9" fill="none" stroke="#111" stroke-width="0.98" stroke-linecap="round" stroke-linejoin="round"/>
<path d="M 19.0 15.0 L 19.04 15.38 L 19.08 15.75 L 19.12 16.12 L 19.17 16.5 L 19.21 16.88 L 19.25 17.25 L 19.29 17.62 L 19.33 18.0 L 19.38 18.38 L 19.42 18.75 L 19.46 19.12 L 19.5 19.5 L 19.54 19.88 L 19.58 20.25 L 19.62 20.62 L 19.67 21.0 L 19.71 21.38 L 19.75 21.75 L 19.79 22.12 L 19.83 22.5 L 19.88 22.88 L 19.92 23.25 L 19.96 23.62 L 20.0 24.0" fill="none" stroke="#111" stroke-width="0.98" stroke-linecap="round" stroke-linejoin="round"/>
</svg>
