<?xml version="1.0" encoding="UTF-8"?>
<svg xmlns="http://www.w3.org/2000/svg" viewBox="0 0 28.00 34.00">
<path d="M 10.0 4.0 L 10.46 4.0 L 10.92 4.0 L 11.38 4.0 L 11.83 4.0 L 12.29 4.0 L 12.75 4.0 L 13.21 4.0 L 13.67 4.0 L 14.12 4.0 L 14.58 4.0 L 15.04 4.0 L 15.5 4.0 L 15.96 4.0 L 16.42 4.0 L 16.88 4.0 L 17.33 4.0 L 17.79 4.0 L 18.25 4.0 L 18.71 4.0 L 19.17 4.0 L 19.62 4.0 L 20.08 4.0 L 20.54 4.0 L 21.0 4.0" fill="none" stroke="#111" stroke-width="1.19" stroke-linecap="round" stroke-linejoin="round"/>
<path d="M 15.0 4.0 L 15.0 4.5 L 15.0 5.0 L 15.0 5.5 L 15.0 6.0 L 15.0 6.5 L 15.0 7.0 L 15.0 7.5 L 15.0 8.0 L 15.0 8.5 L 15.0 9.0 L 15.0 9.5 L 15.0 10.0 L 15.0 10.5 L 15.0 11.0 L 15.0 11.5 L 15.0 12.0 L 15.0 12.5 L 15.0 13.0 L 15.0 13.5 L 15.0 14.0 L 15.0 14.5 L 15.0 15.0 L 15.0 15.5 L 15.0 16.0" fill="none" stroke="#111" stroke-width="1.19" stroke-linecap="round" stroke-linejoin="round"/>
<path d="M 10.0 6.0 L 10.0 6.25 L 10.0 6.5 L 10.0 6.75 L 10.0 7.0 L 10.0 7.25 L 10.0 7.5 L 10.0 7.75 L 10.0 8.0 L 10.0 8.25 L 10.0 8.5 L 10.0 8.75 L 10.0 9.0 L 10.0 9.25 L 10.0 9.5 L 10.0 9.75 L 10.0 10.0 L 10.0 10.25 L 10.0 10.5 L 10.0 10.75 L 10.0 11.0 L 10.0 11.25 L 10.0 11.5 L 10.0 11.75 L 10.0 12.0" fill="none" stroke="#111" stroke-width="1.19" stroke-linecap="round" stroke-linejoin="round"/>
<path d="M 10.0 9.0 L 10.42 9.0 L 10.83 9.0 L 11.25 9.0 L 11.67 9.0 L 12.08 9.0 L 12.5 9.0 L 12.92 9.0 L 13.33 9.0 L 13.75 9.0 L 14.17 9.0 L 14.58 9.0 L 15.0 9.0 L 15.42 9.0 L 15.83 9.0 L 16.25 9.0 L 16.67 9.0 L 17.08 9.0 L 17.5 9.0 L 17.92 9.0 L 18.33 9.0 L 18.75 9.0 L 19.17 9.0 L 19.58 9.0 L 20.0 9.0" fill="none" stroke="#111" stroke-width="1.19" stroke-linecap="round" stroke-linejoin="round"/>
<path d="M 20.0 6.0 L 20.0 6.25 L 20.0 6.5 L 20.0 6.75 L 20.0 7.0 L 20.0 7.25 L 20.0 7.5 L 20.0 7.75 L 20.0 8.0 L 20.0 8.25 L 20.0 8.5 L 20.0 8.75 L 20.0 9.0 L 20.0 9.25 L 20.0 9.5 L 20.0 9.75 L 20.0 10.0 L 20.0 10.25 L 20.0 10.5 L 20.0 10.75 L 20.0 11.0 L 20.0 11.25 L 20.0 11.5 L 20.0 11.75 L 20.0 12.0" fill="none" stroke="#111" stroke-width="1.19" stroke-linecap="round" stroke-linejoin="round"/>
<path d="M 15.0 16.0 L 14.71 16.25 L 14.42 16.5 L 14.12 16.75 L 13.83 17.0 L 13.54 17.25 L 13.25 17.5 L 12.96 17.75 L 12.67 18.0 L 12.38 18.25 L 12.08 18.5 L 11.79 18.75 L 11.5 19.0 L 11.21 19.25 L 10.92 19.5 L 10.62 19.75 L 10.33 20.0 L 10.04 20.25 L 9.75 20.5 L 9.46 20.75 L 9.17 21.0 L 8.88 21.25 L 8.58 21.5 L 8.29 21.75 L 8.0 22.0 L 8.0 22.0 L 8.29 22.33 L 8.58 22.67 L 8.88 23.0 L 9.17 23.33 L 9.46 23.67 L 9.75 24.0 L 10.04 24.33 L 10.33 24.67 L 10.62 25.0 L 10.92 25.33 L 11.21 25.67 L 11.5 26.0 L 11.79 26.33 L 12.08 26.67 L 12.38 27.0 L 12.67 27.33 L 12.96 27.67 L 13.25 28.0 L 13.54 28.33 L 13.83 28.67 L 14.12 29.0 L 14.42 29.33 L 14.71 29.67 L 15.0 30.0" fill="none" stroke="#111" stroke-width="1.19" stroke-linecap="round" stroke-linejoin="round"/>
<path d="M 15.0 16.0 L 15.65 16.31 L 16.26 16.69 L 16.83 17.12 L 17.36 17.6 L 17.84 18.14 L 18.27 18.72 L 18.64 19.33 L 18.94 19.98 L 19.18 20.66 L 19.36 21.36 L 19.46 22.07 L 19.49 22.78 L 19.46 23.5 L 19.36 24.21 L 19.18 24.91 L 18.94 25.59 L 18.64 26.24 L 18.27 26.85 L 17.84 27.43 L 17.36 27.97 L 16.83 28.45 L 16.26 28.88 L 15.65 29.26 L 15.0 29.57" fill="none" stroke="#111" stroke-width="1.19" stroke-linecap="round" stroke-linejoin="round"/>
<path d="M 15.0 19.0 L 15.0 19.21 L 15.0 19.42 L 15.0 19.62 L 15.0 19.83 L 15.0 20.04 L 15.0 20.25 L 15.0 20.46 L 15.0 20.67 L 15.0 20.88 L 15.0 21.08 L 15.0 21.29 L 15.0 21.5 L 15.0 21.71 L 15.0 21.92 L 15.0 22.12 L 15.0 22.33 L 15.0 22.54 L 15.0 22.75 L 15.0 22.96 L 15.0 23.17 L 15.0 23.38 L 15.0 23.58 L 15.0 23.79 L 15.0 24.0" fill="none" stroke="#111" stroke-width="1.19" stroke-linecap="round" stroke-linejoin="round"/>
<path d="M 4.0 17.0 L 4.0 17.38 L 4.0 17.75 L 4.0 18.12 L 4.0 18.5 L 4.0 18.88 L 4.0 19.25 L 4.0 19.62 L 4.0 20.0 L 4.0 20.38 L 4.0 20.75 L 4.0 21.12 L 4.0 21.5 L 4.0 21.88 L 4.0 22.25 L 4.0 22.62 L 4.0 23.0 L 4.0 23.38 L 4.0 23.75 L 4.0 24.12 L 4.0 24.5 L 4.0 24.88 L 4.0 25.25 L 4.0 25.62 L 4.0 26.0" fill="none" stroke="#111" stroke-width="1.19" stroke-linecap="round" stroke-linejoin="round"/>
<path d="M 24.0 16.0 L 24.0 16.46 L 24.0 16.92 L 24.0 17.38 L 24.0 17.83 L 24.0 18.29 L 24.0 18.75 L 24.0 19.21 L 24.0 19.67 L 24.0 20.12 L 24.0 20.58 L 24.0 21.04 L 24.0 21.5 L 24.0 21.96 L 24.0 22.42 L 24.0 22.88 L 24.0 23.33 L 24.0 23.79 L 24.0 24.25 L 24.0 24.71 L 24.0 25.17 L 24.0 25.62 L 24.0 26.08 L 24.0 26.54 L 24.0 27.0" fill="none" stroke="#111" stroke-width="1.19" stroke-linecap="round" stroke-linejoin="round"/>
</svg>
