<?xml version="1.0" encoding="UTF-8"?>
<svg xmlns="http://www.w3.org/2000/svg" viewBox="0 0 31.00 30.00">
<path d="M 9.0 6.0 L 9.25 6.25 L 9.5 6.5 L 9.75 6.75 L 10.0 7.0 L 10.25 7.25 L 10.5 7.5 L 10.75 7.75 L 11.0 8.0 L 11.25 8.25 L 11.5 8.5 L 11.75 8.75 L 12.0 9.0 L 12.25 9.25 L 12.5 9.5 L 12.75 9.75 L 13.0 10.0 L 13.25 10.25 L 13.5 10.5 L 13.75 10.75 L 14.0 11.0 L 14.25 11.25 L 14.5 11.5 L 14.75 11.75 L 15.0 12.0 L 15.0 12.0 L 15.21 11.67 L 15.42 11.33 L 15.62 11.0 L 15.83 10.67 L 16.04 10.33 L 16.25 10.0 L 16.46 9.67 L 16.67 9.33 L 16.88 9.0 L 17.08 8.67 L 17.29 8.33 L 17.5 8.0 L 17.71 7.67 L 17.92 7.33 L 18.12 7.0 L 18.33 6.67 L 18.54 6.33 L 18.75 6.0 L 18.96 5.67 L 19.17 5.33 L 19.38 5.0 L 19.58 4.67 L 19.79 4.33 L 20.0 4.0" fill="none" stroke="#111" stroke-width="1.09" stroke-linecap="round" stroke-linejoin="round"/>
<path d="M 9.0 6.0 L 8.83 6.08 L 8.67 6.17 L 8.5 6.25 L 8.33 6.33 L 8.17 6.42 L 8.0 6.5 L 7.83 6.58 L 7.67 6.67 L 7.5 6.75 L 7.33 6.83 L 7.17 6.92 L 7.0 7.0 L 6.83 7.08 L 6.67 7.17 L 6.5 7.25 L 6.33 7.33 L 6.17 7.42 L 6.0 7.5 L 5.83 7.58 L 5.67 7.67 L 5.5 7.75 L 5.33 7.83 L 5.17 7.92 L 5.0 8.0 L 5.0 8.0 L 5.04 8.12 L 5.08 8.25 L 5.12 8.38 L 5.17 8.5 L 5.21 8.62 L 5.25 8.75 L 5.29 8.88 L 5.33 9.0 L 5.38 9.12 L 5.42 9.25 L 5.46 9.38 L 5.5 9.5 L 5.54 9.62 L 5.58 9.75 L 5.62 9.88 L 5.67 10.0 L 5.71 10.12 L 5.75 10.25 L 5.79 10.38 L 5.83 10.5 L 5.88 10.62 L 5.92 10.75 L 5.96 10.88 L 6.0 11.0 L 6.0 11.0 L 6.08 10.96 L 6.17 10.92 L 6.25 10.88 L 6.33 10.83 L 6.42 10.79 L 6.5 10.75 L 6.58 10.71 L 6.67 10.67 L 6.75 10.62 L 6.83 10.58 L 6.92 10.54 L 7.0 10.5 L 7.08 10.46 L 7.17 10.42 L 7.25 10.38 L 7.33 10.33 L 7.42 10.29 L 7.5 10.25 L 7.58 10.21 L 7.67 10.17 L 7.75 10.12 L 7.83 10.08 L 7.92 10.04 L 8.0 10.0 L 8.0 10.0 L 8.0 10.0 L 8.0 10.0 L 8.0 10.0 L 8.0 10.0 L 8.0 10.0 L 8.0 10.0 L 8.0 10.0 L 8.0 10.0 L 8.0 10.0 L 8.0 10.0 L 8.0 10.0 L 8.0 10.0 L 8.0 10.0 L 8.0 10.0 L 8.0 10.0 L 8.0 10.0 L 8.0 10.0 L 8.0 10.0 L 8.0 10.0 L 8.0 10.0 L 8.0 10.0 L 8.0 10.0 L 8.0 10.0 L 8.0 10.0" fill="none" stroke="#111" stroke-width="1.09" stroke-linecap="round" stroke-linejoin="round"/>
<path d="M 20.0 4.0 L 20.17 4.12 L 20.33 4.25 L 20.5 4.38 L 20.67 4.5 L 20.83 4.62 L 21.0 4.75 L 21.17 4.88 L 21.33 5.0 L 21.5 5.12 L 21.67 5.25 L 21.83 5.38 L 22.0 5.5 L 22.17 5.62 L 22.33 5.75 L 22.5 5.88 L 22.67 6.0 L 22.83 6.12 L 23.0 6.25 L 23.17 6.38 L 23.33 6.5 L 23.5 6.62 L 23.67 6.75 L 23.83 6.88 L 24.0 7.0 L 24.0 7.0 L 23.88 7.12 L 23.75 7.25 L 23.62 7.38 L 23.5 7.5 L 23.38 7.62 L 23.25 7.75 L 23.12 7.88 L 23.0 8.0 L 22.88 8.12 L 22.75 8.25 L 22.62 8.38 L 22.5 8.5 L 22.38 8.62 L 22.25 8.75 L 22.12 8.88 L 22.0 9.0 L 21.88 9.12 L 21.75 9.25 L 21.62 9.38 L 21.5 9.5 L 21.38 9.62 L 21.25 9.75 L 21.12 9.88 L 21.0 10.0" fill="none" stroke="#111" stroke-width="1.09" stroke-linecap="round" stroke-linejoin="round"/>
<path d="M 15.0 12.0 L 15.0 12.25 L 15.0 12.5 L 15.0 12.75 L 15.0 13.0 L 15.0 13.25 L 15.0 13.5 L 15.0 13.75 L 15.0 14.0 L 15.0 14.25 L 15.0 14.5 L 15.0 14.75 L 15.0 15.0 L 15.0 15.25 L 15.0 15.5 L 15.0 15.75 L 15.0 16.0 L 15.0 16.25 L 15.0 16.5 L 15.0 16.75 L 15.0 17.0 L 15.0 17.25 L 15.0 17.5 L 15.0 17.75 L 15.0 18.0" fill="none" stroke="#111" stroke-width="1.09" stroke-linecap="round" stroke-linejoin="round"/>
<path d="M 4.0 13.0 L 4.78 13.81 L 5.63 14.55 L 6.54 15.22 L 7.5 15.81 L 8.51 16.32 L 9.56 16.73 L 10.64 17.06 L 11.74 17.29 L 12.86 17.43 L 13.99 17.48 L 15.12 17.43 L 16.24 17.28 L 17.34 17.04 L 18.42 16.71 L 19.46 16.29 L 20.47 15.78 L 21.43 15.18 L 22.33 14.51 L 23.18 13.76 L 23.96 12.95 L 24.67 12.07 L 25.3 11.13 L 25.85 10.15 L 26.31 9.12" fill="none" stroke="#111" stroke-width="1.09" stroke-linecap="round" stroke-linejoin="round"/>
<path d="M 10.0 16.0 L 10.0 16.42 L 10.0 16.83 L 10.0 17.25 L 10.0 17.67 L 10.0 18.08 L 10.0 18.5 L 10.0 18.92 L 10.0 19.33 L 10.0 19.75 L 10.0 20.17 L 10.0 20.58 L 10.0 21.0 L 10.0 21.42 L 10.0 21.83 L 10.0 22.25 L 10.0 22.67 L 10.0 23.08 L 10.0 23.5 L 10.0 23.92 L 10.0 24.33 L 10.0 24.75 L 10.0 25.17 L 10.0 25.58 L 10.0 26.0 L 10.0 26.0 L 10.29 26.0 L 10.58 26.0 L 10.88 26.0 L 11.17 26.0 L 11.46 26.0 L 11.75 26.0 L 12.04 26.0 L 12.33 26.0 L 12.62 26.0 L 12.92 26.0 L 13.21 26.0 L 13.5 26.0 L 13.79 26.0 L 14.08 26.0 L 14.38 26.0 L 14.67 26.0 L 14.96 26.0 L 15.25 26.0 L 15.54 26.0 L 15.83 26.0 L 16.12 26.0 L 16.42 26.0 L 16.71 26.0 L 17.0 26.0" fill="none" stroke="#111" stroke-width="1.09" stroke-linecap="round" stroke-linejoin="round"/>
<path d="M 19.0 16.0 L 18.96 16.42 L 18.92 16.83 L 18.88 17.25 L 18.83 17.67 L 18.79 18.08 L 18.75 18.5 L 18.71 18.92 L 18.67 19.33 L 18.62 19.75 L 18.58 20.17 L 18.54 20.58 L 18.5 21.0 L 18.46 21.42 L 18.42 21.83 L 18.38 22.25 L 18.33 22.67 L 18.29 23.08 L 18.25 23.5 L 18.21 23.92 L 18.17 24.33 L 18.12 24.75 L 18.08 25.17 L 18.04 25.58 L 18.0 26.0" fill="none" stroke="#111" stroke-width="1.09" stroke-linecap="round" stroke-linejoin="round"/>
<path d="M 4.0 13.0 L 4.25 13.54 L 4.5 14.08 L 4.75 14.62 L 5.0 15.17 L 5.25 15.71 L 5.5 16.25 L 5.75 16.79 L 6.0 17.33 L 6.25 17.88 L 6.5 18.42 L 6.75 18.96 L 7.0 19.5 L 7.25 20.04 L 7.5 20.58 L 7.75 21.12 L 8.0 21.67 L 8.25 22.21 L 8.5 22.75 L 8.75 23.29 L 9.0 23.83 L 9.25 24.38 L 9.5 24.92 L 9.75 25.46 L 10.0 26.0" fill="none" stroke="#111" stroke-width="1.09" stroke-linecap="round" stroke-linejoin="round"/>
<path d="M 27.0 9.0 L 26.62 9.71 L 26.25 10.42 L 25.88 11.12 L 25.5 11.83 L 25.12 12.54 L 24.75 13.25 L 24.38 13.96 L 24.0 14.67 L 23.62 15.38 L 23.25 16.08 L 22.88 16.79 L 22.5 17.5 L 22.12 18.21 L 21.75 18.92 L 21.38 19.62 L 21.0 20.33 L 20.62 21.04 L 20.25 21.75 L 19.88 22.46 L 19.5 23.17 L 19.12 23.88 L 18.75 24.58 L 18.38 25.29 L 18.0 26.0" fill="none" stroke="#111" stroke-width="1.09" stroke-linecap="round" stroke-linejoin="round"/>
</svg>
