<?xml version="1.0" encoding="UTF-8"?>
<svg xmlns="http://www.w3.org/2000/svg" viewBox="0 0 30.00 34.00">
<path d="M 6.0 4.0 L 6.46 4.0 L 6.92 4.0 L 7.38 4.0 L 7.83 4.0 L 8.29 4.0 L 8.75 4.0 L 9.21 4.0 L 9.67 4.0 L 10.12 4.0 L 10.58 4.0 L 11.04 4.0 L 11.5 4.0 L 11.96 4.0 L 12.42 4.0 L 12.88 4.0 L 13.33 4.0 L 13.79 4.0 L 14.25 4.0 L 14.71 4.0 L 15.17 4.0 L 15.62 4.0 L 16.08 4.0 L 16.54 4.0 L 17.0 4.0" fill="none" stroke="#111" stroke-width="1.19" stroke-linecap="round" stroke-linejoin="round"/>
<path d="M 4.0 8.0 L 4.62 8.0 L 5.25 8.0 L 5.88 8.0 L 6.5 8.0 L 7.12 8.0 L 7.75 8.0 L 8.38 8.0 L 9.0 8.0 L 9.62 8.0 L 10.25 8.0 L 10.88 8.0 L 11.5 8.0 L 12.12 8.0 L 12.75 8.0 L 13.38 8.0 L 14.0 8.0 L 14.62 8.0 L 15.25 8.0 L 15.88 8.0 L 16.5 8.0 L 17.12 8.0 L 17.75 8.0 L 18.38 8.0 L 19.0 8.0" fill="none" stroke="#111" stroke-width="1.19" stroke-linecap="round" stroke-linejoin="round"/>
<path d="M 11.0 8.0 L 11.0 8.92 L 11.0 9.83 L 11.0 10.75 L 11.0 11.67 L 11.0 12.58 L 11.0 13.5 L 11.0 14.42 L 11.0 15.33 L 11.0 16.25 L 11.0 17.17 L 11.0 18.08 L 11.0 19.0 L 11.0 19.92 L 11.0 20.83 L 11.0 21.75 L 11.0 22.67 L 11.0 23.58 L 11.0 24.5 L 11.0 25.42 L 11.0 26.33 L 11.0 27.25 L 11.0 28.17 L 11.0 29.08 L 11.0 30.0" fill="none" stroke="#111" stroke-width="1.19" stroke-linecap="round" stroke-linejoin="round"/>
<path d="M 14.0 11.0 L 14.21 11.62 L 14.42 12.25 L 14.62 12.88 L 14.83 13.5 L 15.04 14.12 L 15.25 14.75 L 15.46 15.38 L 15.67 16.0 L 15.88 16.62 L 16.08 17.25 L 16.29 17.88 L 16.5 18.5 L 16.71 19.12 L 16.92 19.75 L 17.12 20.38 L 17.33 21.0 L 17.54 21.62 L 17.75 22.25 L 17.96 22.88 L 18.17 23.5 L 18.38 24.12 L 18.58 24.75 L 18.79 25.38 L 19.0 26.0" fill="none" stroke="#111" stroke-width="1.19" stroke-linecap="round" stroke-linejoin="round"/>
<path d="M 19.0 26.0 L 19.0 26.0 L 19.0 26.0 L 19.0 26.0 L 19.0 26.0 L 19.0 26.0 L 19.0 26.0 L 19.0 26.0 L 19.0 26.0 L 19.0 26.0 L 19.0 26.0 L 19.0 26.0 L 19.0 26.0 L 19.0 26.0 L 19.0 26.0 L 19.0 26.0 L 19.0 26.0 L 19.0 26.0 L 19.0 26.0 L 19.0 26.0 L 19.0 26.0 L 19.0 26.0 L 19.0 26.0 L 19.0 26.0 L 19.0 26.0" fill="none" stroke="#111" stroke-width="1.19" stroke-linecap="round" stroke-linejoin="round"/>
<path d="M 20.0 9.0 L 19.96 9.71 L 19.92 10.42 L 19.88 11.12 L 19.83 11.83 L 19.79 12.54 L 19.75 13.25 L 19.71 13.96 L 19.67 14.67 L 19.62 15.38 L 19.58 16.08 L 19.54 16.79 L 19.5 17.5 L 19.46 18.21 L 19.42 18.92 L 19.38 19.62 L 19.33 20.33 L 19.29 21.04 L 19.25 21.75 L 19.21 22.46 L 19.17 23.17 L 19.12 23.88 L 19.08 24.58 L 19.04 25.29 L 19.0 26.0" fill="none" stroke="#111" stroke-width="1.19" stroke-linecap="round" stroke-linejoin="round"/>
<path d="M 16.0 16.0 L 16.42 15.79 L 16.83 15.58 L 17.25 15.38 L 17.67 15.17 L 18.08 14.96 L 18.5 14.75 L 18.92 14.54 L 19.33 14.33 L 19.75 14.12 L 20.17 13.92 L 20.58 13.71 L 21.0 13.5 L 21.42 13.29 L 21.83 13.08 L 22.25 12.88 L 22.67 12.67 L 23.08 12.46 L 23.5 12.25 L 23.92 12.04 L 24.33 11.83 L 24.75 11.62 L 25.17 11.42 L 25.58 11.21 L 26.0 11.0" fill="none" stroke="#111" stroke-width="1.19" stroke-linecap="round" stroke-linejoin="round"/>
</svg>
