<?xml version="1.0" encoding="UTF-8"?>
<svg xmlns="http://www.w3.org/2000/svg" viewBox="0 0 24.66 34.00">
<path d="M 11.47 4.0 L 10.77 4.41 L 10.09 4.86 L 9.44 5.35 L 8.82 5.87 L 8.22 6.43 L 7.66 7.02 L 7.14 7.64 L 6.65 8.29 L 6.2 8.97 L 5.78 9.67 L 5.41 10.39 L 5.08 11.13 L 4.79 11.89 L 4.55 12.67 L 4.35 13.46 L 4.19 14.26 L 4.08 15.06 L 4.02 15.87 L 4.0 16.69 L 4.03 17.5 L 4.1 18.31 L 4.22 19.12 L 4.39 19.91 L 4.6 20.7" fill="none" stroke="#111" stroke-width="1.19" stroke-linecap="round" stroke-linejoin="round"/>
<path d="M 11.47 4.0 L 12.24 4.21 L 12.99 4.47 L 13.72 4.78 L 14.43 5.14 L 15.11 5.55 L 15.77 5.99 L 16.39 6.48 L 16.98 7.02 L 17.53 7.58 L 18.05 8.19 L 18.52 8.83 L 18.95 9.49 L 19.34 10.19 L 19.68 10.9 L 19.97 11.64 L 20.21 12.4 L 20.4 13.17 L 20.54 13.95 L 20.63 14.74 L 20.66 15.53 L 20.64 16.33 L 20.57 17.12 L 20.45 17.9 L 20.28 18.68" fill="none" stroke="#111" stroke-width="1.19" stroke-linecap="round" stroke-linejoin="round"/>
<path d="M 8.47 10.0 L 8.72 10.0 L 8.97 10.0 L 9.22 10.0 L 9.47 10.0 L 9.72 10.0 L 9.97 10.0 L 10.22 10.0 L 10.47 10.0 L 10.72 10.0 L 10.97 10.0 L 11.22 10.0 L 11.47 10.0 L 11.72 10.0 L 11.97 10.0 L 12.22 10.0 L 12.47 10.0 L 12.72 10.0 L 12.97 10.0 L 13.22 10.0 L 13.47 10.0 L 13.72 10.0 L 13.97 10.0 L 14.22 10.0 L 14.47 10.0" fill="none" stroke="#111" stroke-width="1.19" stroke-linecap="round" stroke-linejoin="round"/>
<path d="M 9.47 10.0 L 9.47 10.29 L 9.47 10.58 L 9.47 10.88 L 9.47 11.17 L 9.47 11.46 L 9.47 11.75 L 9.47 12.04 L 9.47 12.33 L 9.47 12.62 L 9.47 12.92 L 9.47 13.21 L 9.47 13.5 L 9.47 13.79 L 9.47 14.08 L 9.47 14.38 L 9.47 14.67 L 9.47 14.96 L 9.47 15.25 L 9.47 15.54 L 9.47 15.83 L 9.47 16.12 L 9.47 16.42 L 9.47 16.71 L 9.47 17.0" fill="none" stroke="#111" stroke-width="1.19" stroke-linecap="round" stroke-linejoin="round"/>
<path d="M 13.47 10.0 L 13.47 10.29 L 13.47 10.58 L 13.47 10.88 L 13.47 11.17 L 13.47 11.46 L 13.47 11.75 L 13.47 12.04 L 13.47 12.33 L 13.47 12.62 L 13.47 12.92 L 13.47 13.21 L 13.47 13.5 L 13.47 13.79 L 13.47 14.08 L 13.47 14.38 L 13.47 14.67 L 13.47 14.96 L 13.47 15.25 L 13.47 15.54 L 13.47 15.83 L 13.47 16.12 L 13.47 16.42 L 13.47 16.71 L 13.47 17.0" fill="none" stroke="#111" stroke-width="1.19" stroke-linecap="round" stroke-linejoin="round"/>
<path d="M 7.47 14.0 L 7.56 14.0 L 7.64 14.0 L 7.72 14.0 L 7.81 14.0 L 7.89 14.0 L 7.97 14.0 L 8.06 14.0 L 8.14 14.0 L 8.22 14.0 L 8.31 14.0 L 8.39 14.0 L 8.47 14.0 L 8.56 14.0 L 8.64 14.0 L 8.72 14.0 L 8.81 14.0 L 8.89 14.0 L 8.97 14.0 L 9.06 14.0 L 9.14 14.0 L 9.22 14.0 L 9.31 14.0 L 9.39 14.0 L 9.47 14.0" fill="none" stroke="#111" stroke-width="1.19" stroke-linecap="round" stroke-linejoin="round"/>
<path d="M 13.47 14.0 L 13.6 14.0 L 13.72 14.0 L 13.85 14.0 L 13.97 14.0 L 14.1 14.0 L 14.22 14.0 L 14.35 14.0 L 14.47 14.0 L 14.6 14.0 L 14.72 14.0 L 14.85 14.0 L 14.97 14.0 L 15.1 14.0 L 15.22 14.0 L 15.35 14.0 L 15.47 14.0 L 15.6 14.0 L 15.72 14.0 L 15.85 14.0 L 15.97 14.0 L 16.1 14.0 L 16.22 14.0 L 16.35 14.0 L 16.47 14.0" fill="none" stroke="#111" stroke-width="1.19" stroke-linecap="round" stroke-linejoin="round"/>
<path d="M 7.47 17.0 L 7.85 17.0 L 8.22 17.0 L 8.6 17.0 L 8.97 17.0 L 9.35 17.0 L 9.72 17.0 L 10.1 17.0 L 10.47 17.0 L 10.85 17.0 L 11.22 17.0 L 11.6 17.0 L 11.97 17.0 L 12.35 17.0 L 12.72 17.0 L 13.1 17.0 L 13.47 17.0 L 13.85 17.0 L 14.22 17.0 L 14.6 17.0 L 14.97 17.0 L 15.35 17.0 L 15.72 17.0 L 16.1 17.0 L 16.47 17.0" fill="none" stroke="#111" stroke-width="1.19" stroke-linecap="round" stroke-linejoin="round"/>
<path d="M 11.47 23.0 L 11.39 22.83 L 11.31 22.67 L 11.22 22.5 L 11.14 22.33 L 11.06 22.17 L 10.97 22.0 L 10.89 21.83 L 10.81 21.67 L 10.72 21.5 L 10.64 21.33 L 10.56 21.17 L 10.47 21.0 L 10.39 20.83 L 10.31 20.67 L 10.22 20.5 L 10.14 20.33 L 10.06 20.17 L 9.97 20.0 L 9.89 19.83 L 9.81 19.67 L 9.72 19.5 L 9.64 19.33 L 9.56 19.17 L 9.47 19.0 L 9.47 19.0 L 9.06 19.27 L 8.68 19.57 L 8.33 19.91 L 8.01 20.28 L 7.72 20.68 L 7.48 21.1 L 7.28 21.55 L 7.12 22.01 L 7.01 22.49 L 6.94 22.97 L 6.92 23.46 L 6.94 23.95 L 7.02 24.43 L 7.13 24.91 L 7.3 25.37 L 7.5 25.81 L 7.75 26.23 L 8.03 26.63 L 8.36 27.0 L 8.71 27.34 L 9.1 27.64 L 9.51 27.9 L 9.95 28.12 L 10.4 28.3 L 10.47 29.0 L 10.47 28.92 L 10.47 28.83 L 10.47 28.75 L 10.47 28.67 L 10.47 28.58 L 10.47 28.5 L 10.47 28.42 L 10.47 28.33 L 10.47 28.25 L 10.47 28.17 L 10.47 28.08 L 10.47 28.0 L 10.47 27.92 L 10.47 27.83 L 10.47 27.75 L 10.47 27.67 L 10.47 27.58 L 10.47 27.5 L 10.47 27.42 L 10.47 27.33 L 10.47 27.25 L 10.47 27.17 L 10.47 27.08 L 10.47 27.0" fill="none" stroke="#111" stroke-width="1.19" stroke-linecap="round" stroke-linejoin="round"/>
<path d="M 11.47 22.0 L 11.51 21.88 L 11.56 21.75 L 11.6 21.62 L 11.64 21.5 L 11.68 21.38 L 11.72 21.25 L 11.76 21.12 L 11.81 21.0 L 11.85 20.88 L 11.89 20.75 L 11.93 20.62 L 11.97 20.5 L 12.01 20.38 L 12.06 20.25 L 12.1 20.12 L 12.14 20.0 L 12.18 19.88 L 12.22 19.75 L 12.26 19.62 L 12.31 19.5 L 12.35 19.38 L 12.39 19.25 L 12.43 19.12 L 12.47 19.0 L 12.47 19.0 L 12.85 19.22 L 13.21 19.45 L 13.56 19.71 L 13.9 19.98 L 14.22 20.27 L 14.52 20.58 L 14.81 20.91 L 15.08 21.25 L 15.32 21.6 L 15.55 21.97 L 15.76 22.35 L 15.95 22.74 L 16.11 23.14 L 16.26 23.55 L 16.38 23.97 L 16.47 24.39 L 16.55 24.82 L 16.6 25.25 L 16.62 25.68 L 16.63 26.12 L 16.6 26.55 L 16.56 26.98 L 16.49 27.41 L 16.4 27.83 L 16.47 28.0 L 16.35 28.08 L 16.22 28.17 L 16.1 28.25 L 15.97 28.33 L 15.85 28.42 L 15.72 28.5 L 15.6 28.58 L 15.47 28.67 L 15.35 28.75 L 15.22 28.83 L 15.1 28.92 L 14.97 29.0 L 14.85 29.08 L 14.72 29.17 L 14.6 29.25 L 14.47 29.33 L 14.35 29.42 L 14.22 29.5 L 14.1 29.58 L 13.97 29.67 L 13.85 29.75 L 13.72 29.83 L 13.6 29.92 L 13.47 30.0 L 13.47 30.0 L 13.43 29.92 L 13.39 29.83 L 13.35 29.75 L 13.31 29.67 L 13.26 29.58 L 13.22 29.5 L 13.18 29.42 L 13.14 29.33 L 13.1 29.25 L 13.06 29.17 L 13.01 29.08 L 12.97 29.0 L 12.93 28.92 L 12.89 28.83 L 12.85 28.75 L 12.81 28.67 L 12.76 28.58 L 12.72 28.5 L 12.68 28.42 L 12.64 28.33 L 12.6 28.25 L 12.56 28.17 L 12.51 28.08 L 12.47 28.0" fill="none" stroke="#111" stroke-width="1.19" stroke-linecap="round" stroke-linejoin="round"/>
<path d="M 12.47 24.0 L 12.64 24.12 L 12.81 24.25 L 12.97 24.38 L 13.14 24.5 L 13.31 24.62 L 13.47 24.75 L 13.64 24.88 L 13.81 25.0 L 13.97 25.12 L 14.14 25.25 L 14.31 25.38 L 14.47 25.5 L 14.64 25.62 L 14.81 25.75 L 14.97 25.88 L 15.14 26.0 L 15.31 26.12 L 15.47 26.25 L 15.64 26.38 L 15.81 26.5 L 15.97 26.62 L 16.14 26.75 L 16.31 26.88 L 16.47 27.0" fill="none" stroke="#111" stroke-width="1.19" stroke-linecap="round" stroke-linejoin="round"/>
<path d="M 10.47 24.0 L 10.35 24.08 L 10.22 24.17 L 10.1 24.25 L 9.97 24.33 L 9.85 24.42 L 9.72 24.5 L 9.6 24.58 L 9.47 24.67 L 9.35 24.75 L 9.22 24.83 L 9.1 24.92 L 8.97 25.0 L 8.85 25.08 L 8.72 25.17 L 8.6 25.25 L 8.47 25.33 L 8.35 25.42 L 8.22 25.5 L 8.1 25.58 L 7.97 25.67 L 7.85 25.75 L 7.72 25.83 L 7.6 25.92 L 7.47 26.0" fill="none" stroke="#111" stroke-width="1.19" stroke-linecap="round" stroke-linejoin="round"/>
</svg>
