<?xml version="1.0" encoding="UTF-8"?>
<svg xmlns="http://www.w3.org/2000/svg" viewBox="0 0 25.51 34.00">
<path d="M 7.0 6.0 L 7.38 6.0 L 7.75 6.0 L 8.12 6.0 L 8.5 6.0 L 8.88 6.0 L 9.25 6.0 L 9.62 6.0 L 10.0 6.0 L 10.38 6.0 L 10.75 6.0 L 11.12 6.0 L 11.5 6.0 L 11.88 6.0 L 12.25 6.0 L 12.62 6.0 L 13.0 6.0 L 13.38 6.0 L 13.75 6.0 L 14.12 6.0 L 14.5 6.0 L 14.88 6.0 L 15.25 6.0 L 15.62 6.0 L 16.0 6.0" fill="none" stroke="#111" stroke-width="1.19" stroke-linecap="round" stroke-linejoin="round"/>
<path d="M 7.0 10.0 L 7.38 10.0 L 7.75 10.0 L 8.12 10.0 L 8.5 10.0 L 8.88 10.0 L 9.25 10.0 L 9.62 10.0 L 10.0 10.0 L 10.38 10.0 L 10.75 10.0 L 11.12 10.0 L 11.5 10.0 L 11.88 10.0 L 12.25 10.0 L 12.62 10.0 L 13.0 10.0 L 13.38 10.0 L 13.75 10.0 L 14.12 10.0 L 14.5 10.0 L 14.88 10.0 L 15.25 10.0 L 15.62 10.0 L 16.0 10.0" fill="none" stroke="#111" stroke-width="1.19" stroke-linecap="round" stroke-linejoin="round"/>
<path d="M 11.0 10.0 L 11.0 10.83 L 11.0 11.67 L 11.0 12.5 L 11.0 13.33 L 11.0 14.17 L 11.0 15.0 L 11.0 15.83 L 11.0 16.67 L 11.0 17.5 L 11.0 18.33 L 11.0 19.17 L 11.0 20.0 L 11.0 20.83 L 11.0 21.67 L 11.0 22.5 L 11.0 23.33 L 11.0 24.17 L 11.0 25.0 L 11.0 25.83 L 11.0 26.67 L 11.0 27.5 L 11.0 28.33 L 11.0 29.17 L 11.0 30.0" fill="none" stroke="#111" stroke-width="1.19" stroke-linecap="round" stroke-linejoin="round"/>
<path d="M 17.0 4.0 L 17.7 4.47 L 18.36 5.0 L 18.97 5.59 L 19.52 6.23 L 20.02 6.91 L 20.44 7.64 L 20.8 8.41 L 21.09 9.2 L 21.31 10.02 L 21.45 10.85 L 21.51 11.69 L 21.5 12.54 L 21.42 13.38 L 21.25 14.21 L 21.01 15.02 L 20.7 15.81 L 20.32 16.56 L 19.88 17.28 L 19.37 17.95 L 18.8 18.58 L 18.17 19.15 L 17.5 19.66 L 16.78 20.11 L 16.03 20.49" fill="none" stroke="#111" stroke-width="1.19" stroke-linecap="round" stroke-linejoin="round"/>
<path d="M 16.0 12.0 L 16.21 12.67 L 16.42 13.33 L 16.62 14.0 L 16.83 14.67 L 17.04 15.33 L 17.25 16.0 L 17.46 16.67 L 17.67 17.33 L 17.88 18.0 L 18.08 18.67 L 18.29 19.33 L 18.5 20.0 L 18.71 20.67 L 18.92 21.33 L 19.12 22.0 L 19.33 22.67 L 19.54 23.33 L 19.75 24.0 L 19.96 24.67 L 20.17 25.33 L 20.38 26.0 L 20.58 26.67 L 20.79 27.33 L 21.0 28.0" fill="none" stroke="#111" stroke-width="1.19" stroke-linecap="round" stroke-linejoin="round"/>
<path d="M 4.0 7.0 L 4.0 7.25 L 4.0 7.5 L 4.0 7.75 L 4.0 8.0 L 4.0 8.25 L 4.0 8.5 L 4.0 8.75 L 4.0 9.0 L 4.0 9.25 L 4.0 9.5 L 4.0 9.75 L 4.0 10.0 L 4.0 10.25 L 4.0 10.5 L 4.0 10.75 L 4.0 11.0 L 4.0 11.25 L 4.0 11.5 L 4.0 11.75 L 4.0 12.0 L 4.0 12.25 L 4.0 12.5 L 4.0 12.75 L 4.0 13.0" fill="none" stroke="#111" stroke-width="1.19" stroke-linecap="round" stroke-linejoin="round"/>
<path d="M 6.0 18.0 L 6.08 18.25 L 6.17 18.5 L 6.25 18.75 L 6.33 19.0 L 6.42 19.25 L 6.5 19.5 L 6.58 19.75 L 6.67 20.0 L 6.75 20.25 L 6.83 20.5 L 6.92 20.75 L 7.0 21.0 L 7.08 21.25 L 7.17 21.5 L 7.25 21.75 L 7.33 22.0 L 7.42 22.25 L 7.5 22.5 L 7.58 22.75 L 7.67 23.0 L 7.75 23.25 L 7.83 23.5 L 7.92 23.75 L 8.0 24.0" fill="none" stroke="#111" stroke-width="1.19" stroke-linecap="round" stroke-linejoin="round"/>
<path d="M 14.0 19.0 L 14.0 19.17 L 14.0 19.33 L 14.0 19.5 L 14.0 19.67 L 14.0 19.83 L 14.0 20.0 L 14.0 20.17 L 14.0 20.33 L 14.0 20.5 L 14.0 20.67 L 14.0 20.83 L 14.0 21.0 L 14.0 21.17 L 14.0 21.33 L 14.0 21.5 L 14.0 21.67 L 14.0 21.83 L 14.0 22.0 L 14.0 22.17 L 14.0 22.33 L 14.0 22.5 L 14.0 22.67 L 14.0 22.83 L 14.0 23.0" fill="none" stroke="#111" stroke-width="1.19" stroke-linecap="round" stroke-linejoin="round"/>
<path d="M 16.0 7.0 L 16.04 7.08 L 16.08 7.17 L 16.12 7.25 L 16.17 7.33 L 16.21 7.42 L 16.25 7.5 L 16.29 7.58 L 16.33 7.67 L 16.38 7.75 L 16.42 7.83 L 16.46 7.92 L 16.5 8.0 L 16.54 8.08 L 16.58 8.17 L 16.62 8.25 L 16.67 8.33 L 16.71 8.42 L 16.75 8.5 L 16.79 8.58 L 16.83 8.67 L 16.88 8.75 L 16.92 8.83 L 16.96 8.92 L 17.0 9.0" fill="none" stroke="#111" stroke-width="1.19" stroke-linecap="round" stroke-linejoin="round"/>
</svg>
