<?xml version="1.0" encoding="UTF-8"?>
<svg xmlns="http://www.w3.org/2000/svg" viewBox="0 0 26.17 40.00">
<path d="M 11.0 5.0 L 10.71 5.38 L 10.42 5.75 L 10.12 6.12 L 9.83 6.5 L 9.54 6.88 L 9.25 7.25 L 8.96 7.62 L 8.67 8.0 L 8.38 8.38 L 8.08 8.75 L 7.79 9.12 L 7.5 9.5 L 7.21 9.88 L 6.92 10.25 L 6.62 10.62 L 6.33 11.0 L 6.04 11.38 L 5.75 11.75 L 5.46 12.12 L 5.17 12.5 L 4.88 12.87 L 4.58 13.25 L 4.29 13.62 L 4.0 14.0 L 4.0 14.0 L 4.21 14.17 L 4.42 14.33 L 4.62 14.5 L 4.83 14.67 L 5.04 14.83 L 5.25 15.0 L 5.46 15.17 L 5.67 15.33 L 5.88 15.5 L 6.08 15.67 L 6.29 15.83 L 6.5 16.0 L 6.71 16.17 L 6.92 16.33 L 7.12 16.5 L 7.33 16.67 L 7.54 16.83 L 7.75 17.0 L 7.96 17.17 L 8.17 17.33 L 8.38 17.5 L 8.58 17.67 L 8.79 17.83 L 9.0 18.0" fill="none" stroke="#111" stroke-width="1.40" stroke-linecap="round" stroke-linejoin="round"/>
<path d="M 16.0 9.0 L 15.71 9.38 L 15.42 9.75 L 15.12 10.12 L 14.83 10.5 L 14.54 10.88 L 14.25 11.25 L 13.96 11.62 L 13.67 12.0 L 13.38 12.38 L 13.08 12.75 L 12.79 13.12 L 12.5 13.5 L 12.21 13.88 L 11.92 14.25 L 11.62 14.62 L 11.33 15.0 L 11.04 15.38 L 10.75 15.75 L 10.46 16.12 L 10.17 16.5 L 9.88 16.88 L 9.58 17.25 L 9.29 17.62 L 9.0 18.0" fill="none" stroke="#111" stroke-width="1.40" stroke-linecap="round" stroke-linejoin="round"/>
<path d="M 7.0 10.0 L 7.25 10.12 L 7.5 10.25 L 7.75 10.38 L 8.0 10.5 L 8.25 10.62 L 8.5 10.75 L 8.75 10.88 L 9.0 11.0 L 9.25 11.12 L 9.5 11.25 L 9.75 11.38 L 10.0 11.5 L 10.25 11.62 L 10.5 11.75 L 10.75 11.88 L 11.0 12.0 L 11.25 12.12 L 11.5 12.25 L 11.75 12.38 L 12.0 12.5 L 12.25 12.62 L 12.5 12.75 L 12.75 12.88 L 13.0 13.0" fill="none" stroke="#111" stroke-width="1.40" stroke-linecap="round" stroke-linejoin="round"/>
<path d="M 17.0 5.0 L 17.82 5.42 L 18.59 5.92 L 19.31 6.51 L 19.96 7.16 L 20.53 7.88 L 21.03 8.66 L 21.44 9.48 L 21.76 10.34 L 21.99 11.24 L 22.13 12.15 L 22.17 13.07 L 22.11 13.99 L 21.95 14.9 L 21.7 15.78 L 21.36 16.64 L 20.93 17.45 L 20.41 18.22 L 19.82 18.92 L 19.16 19.56 L 18.43 20.13 L 17.65 20.62 L 16.82 21.02 L 15.95 21.33 L 15.05 21.55" fill="none" stroke="#111" stroke-width="1.40" stroke-linecap="round" stroke-linejoin="round"/>
<path d="M 16.0 11.0 L 16.24 12.04 L 16.48 13.09 L 16.72 14.13 L 16.96 15.18 L 17.2 16.22 L 17.45 17.26 L 17.69 18.31 L 17.94 19.35 L 18.18 20.39 L 18.43 21.43 L 18.68 22.47 L 18.93 23.52 L 19.18 24.56 L 19.43 25.6 L 19.68 26.64 L 19.94 27.68 L 20.19 28.72 L 20.45 29.76 L 20.7 30.8 L 20.96 31.84 L 21.22 32.88 L 21.48 33.92 L 21.74 34.96 L 22.0 36.0" fill="none" stroke="#111" stroke-width="1.40" stroke-linecap="round" stroke-linejoin="round"/>
<path d="M 13.0 4.0 L 13.0 4.17 L 13.0 4.33 L 13.0 4.5 L 13.0 4.67 L 13.0 4.83 L 13.0 5.0 L 13.0 5.17 L 13.0 5.33 L 13.0 5.5 L 13.0 5.67 L 13.0 5.83 L 13.0 6.0 L 13.0 6.17 L 13.0 6.33 L 13.0 6.5 L 13.0 6.67 L 13.0 6.83 L 13.0 7.0 L 13.0 7.17 L 13.0 7.33 L 13.0 7.5 L 13.0 7.67 L 13.0 7.83 L 13.0 8.0" fill="none" stroke="#111" stroke-width="1.40" stroke-linecap="round" stroke-linejoin="round"/>
<path d="M 5.0 23.0 L 5.0 23.21 L 5.0 23.42 L 5.0 23.62 L 5.0 23.83 L 5.0 24.04 L 5.0 24.25 L 5.0 24.46 L 5.0 24.67 L 5.0 24.88 L 5.0 25.08 L 5.0 25.29 L 5.0 25.5 L 5.0 25.71 L 5.0 25.92 L 5.0 26.12 L 5.0 26.33 L 5.0 26.54 L 5.0 26.75 L 5.0 26.96 L 5.0 27.17 L 5.0 27.38 L 5.0 27.58 L 5.0 27.79 L 5.0 28.0" fill="none" stroke="#111" stroke-width="1.40" stroke-linecap="round" stroke-linejoin="round"/>
<path d="M 10.0 20.0 L 10.0 20.17 L 10.0 20.33 L 10.0 20.5 L 10.0 20.67 L 10.0 20.83 L 10.0 21.0 L 10.0 21.17 L 10.0 21.33 L 10.0 21.5 L 10.0 21.67 L 10.0 21.83 L 10.0 22.0 L 10.0 22.17 L 10.0 22.33 L 10.0 22.5 L 10.0 22.67 L 10.0 22.83 L 10.0 23.0 L 10.0 23.17 L 10.0 23.33 L 10.0 23.5 L 10.0 23.67 L 10.0 23.83 L 10.0 24.0" fill="none" stroke="#111" stroke-width="1.40" stroke-linecap="round" stroke-linejoin="round"/>
<path d="M 14.0 25.0 L 14.0 25.21 L 14.0 25.42 L 14.0 25.62 L 14.0 25.83 L 14.0 26.04 L 14.0 26.25 L 14.0 26.46 L 14.0 26.67 L 14.0 26.88 L 14.0 27.08 L 14.0 27.29 L 14.0 27.5 L 14.0 27.71 L 14.0 27.92 L 14.0 28.12 L 14.0 28.33 L 14.0 28.54 L 14.0 28.75 L 14.0 28.96 L 14.0 29.17 L 14.0 29.38 L 14.0 29.58 L 14.0 29.79 L 14.0 30.0" fill="none" stroke="#111" stroke-width="1.40" stroke-linecap="round" stroke-linejoin="round"/>
</svg>
