<?xml version="1.0" encoding="UTF-8"?>
<svg xmlns="http://www.w3.org/2000/svg" viewBox="0 0 27.00 36.00">
<path d="M 9.0 5.0 L 8.88 5.21 L 8.75 5.42 L 8.62 5.62 L 8.5 5.83 L 8.38 6.04 L 8.25 6.25 L 8.12 6.46 L 8.0 6.67 L 7.88 6.88 L 7.75 7.08 L 7.63 7.29 L 7.5 7.5 L 7.38 7.71 L 7.25 7.92 L 7.12 8.12 L 7.0 8.33 L 6.88 8.54 L 6.75 8.75 L 6.63 8.96 L 6.5 9.17 L 6.38 9.38 L 6.25 9.58 L 6.13 9.79 L 6.0 10.0" fill="none" stroke="#111" stroke-width="1.26" stroke-linecap="round" stroke-linejoin="round"/>
<path d="M 9.0 5.0 L 9.08 5.17 L 9.17 5.33 L 9.25 5.5 L 9.33 5.67 L 9.42 5.83 L 9.5 6.0 L 9.58 6.17 L 9.67 6.33 L 9.75 6.5 L 9.83 6.67 L 9.92 6.83 L 10.0 7.0 L 10.08 7.17 L 10.17 7.33 L 10.25 7.5 L 10.33 7.67 L 10.42 7.83 L 10.5 8.0 L 10.58 8.17 L 10.67 8.33 L 10.75 8.5 L 10.83 8.67 L 10.92 8.83 L 11.0 9.0" fill="none" stroke="#111" stroke-width="1.26" stroke-linecap="round" stroke-linejoin="round"/>
<path d="M 9.0 6.0 L 9.13 6.54 L 9.23 7.08 L 9.3 7.62 L 9.35 8.17 L 9.37 8.72 L 9.37 9.27 L 9.34 9.82 L 9.28 10.37 L 9.2 10.91 L 9.09 11.45 L 8.95 11.98 L 8.79 12.51 L 8.6 13.03 L 8.39 13.54 L 8.16 14.03 L 7.9 14.52 L 7.62 14.99 L 7.31 15.45 L 6.98 15.89 L 6.64 16.32 L 6.27 16.73 L 5.88 17.12 L 5.48 17.49 L 5.05 17.84 L 5.0 18.0 L 5.38 18.43 L 5.74 18.88 L 6.07 19.34 L 6.39 19.83 L 6.67 20.32 L 6.94 20.83 L 7.17 21.36 L 7.39 21.89 L 7.57 22.43 L 7.73 22.99 L 7.86 23.54 L 7.96 24.11 L 8.03 24.68 L 8.08 25.25 L 8.09 25.83 L 8.08 26.4 L 8.04 26.97 L 7.97 27.54 L 7.87 28.11 L 7.75 28.67 L 7.59 29.22 L 7.41 29.77 L 7.21 30.3 L 6.97 30.83" fill="none" stroke="#111" stroke-width="1.26" stroke-linecap="round" stroke-linejoin="round"/>
<path d="M 4.0 25.0 L 4.12 25.12 L 4.25 25.25 L 4.38 25.38 L 4.5 25.5 L 4.62 25.62 L 4.75 25.75 L 4.88 25.88 L 5.0 26.0 L 5.12 26.12 L 5.25 26.25 L 5.38 26.38 L 5.5 26.5 L 5.62 26.62 L 5.75 26.75 L 5.88 26.88 L 6.0 27.0 L 6.12 27.12 L 6.25 27.25 L 6.38 27.38 L 6.5 27.5 L 6.62 27.62 L 6.75 27.75 L 6.88 27.88 L 7.0 28.0" fill="none" stroke="#111" stroke-width="1.26" stroke-linecap="round" stroke-linejoin="round"/>
<path d="M 7.0 28.0 L 7.12 27.92 L 7.25 27.83 L 7.38 27.75 L 7.5 27.67 L 7.62 27.58 L 7.75 27.5 L 7.88 27.42 L 8.0 27.33 L 8.12 27.25 L 8.25 27.17 L 8.38 27.08 L 8.5 27.0 L 8.62 26.92 L 8.75 26.83 L 8.88 26.75 L 9.0 26.67 L 9.12 26.58 L 9.25 26.5 L 9.38 26.42 L 9.5 26.33 L 9.62 26.25 L 9.75 26.17 L 9.88 26.08 L 10.0 26.0" fill="none" stroke="#111" stroke-width="1.26" stroke-linecap="round" stroke-linejoin="round"/>
<path d="M 9.0 12.0 L 9.42 12.32 L 9.81 12.66 L 10.17 13.04 L 10.49 13.45 L 10.79 13.88 L 11.05 14.33 L 11.27 14.8 L 11.46 15.29 L 11.6 15.79 L 11.71 16.31 L 11.77 16.82 L 11.79 17.35 L 11.77 17.87 L 11.71 18.39 L 11.6 18.9 L 11.46 19.4 L 11.27 19.89 L 11.05 20.36 L 10.79 20.82 L 10.49 21.25 L 10.17 21.65 L 9.81 22.03 L 9.42 22.38 L 9.0 22.69" fill="none" stroke="#111" stroke-width="1.26" stroke-linecap="round" stroke-linejoin="round"/>
<path d="M 6.0 19.0 L 6.33 18.79 L 6.67 18.58 L 7.0 18.38 L 7.33 18.17 L 7.67 17.96 L 8.0 17.75 L 8.33 17.54 L 8.67 17.33 L 9.0 17.12 L 9.33 16.92 L 9.67 16.71 L 10.0 16.5 L 10.33 16.29 L 10.67 16.08 L 11.0 15.88 L 11.33 15.67 L 11.67 15.46 L 12.0 15.25 L 12.33 15.04 L 12.67 14.83 L 13.0 14.62 L 13.33 14.42 L 13.67 14.21 L 14.0 14.0" fill="none" stroke="#111" stroke-width="1.26" stroke-linecap="round" stroke-linejoin="round"/>
<path d="M 14.0 10.0 L 13.88 10.12 L 13.75 10.25 L 13.62 10.38 L 13.5 10.5 L 13.38 10.62 L 13.25 10.75 L 13.12 10.88 L 13.0 11.0 L 12.88 11.12 L 12.75 11.25 L 12.62 11.38 L 12.5 11.5 L 12.38 11.62 L 12.25 11.75 L 12.12 11.88 L 12.0 12.0 L 11.88 12.12 L 11.75 12.25 L 11.62 12.38 L 11.5 12.5 L 11.38 12.62 L 11.25 12.75 L 11.12 12.88 L 11.0 13.0" fill="none" stroke="#111" stroke-width="1.26" stroke-linecap="round" stroke-linejoin="round"/>
<path d="M 14.0 5.0 L 14.08 5.58 L 14.17 6.17 L 14.25 6.75 L 14.33 7.33 L 14.42 7.92 L 14.5 8.5 L 14.58 9.08 L 14.67 9.67 L 14.75 10.25 L 14.83 10.83 L 14.92 11.42 L 15.0 12.0 L 15.08 12.58 L 15.17 13.17 L 15.25 13.75 L 15.33 14.33 L 15.42 14.92 L 15.5 15.5 L 15.58 16.08 L 15.67 16.67 L 15.75 17.25 L 15.83 17.83 L 15.92 18.42 L 16.0 19.0 L 16.0 19.0 L 15.61 19.11 L 15.23 19.25 L 14.86 19.42 L 14.5 19.62 L 14.17 19.85 L 13.85 20.11 L 13.55 20.39 L 13.28 20.69 L 13.04 21.02 L 12.82 21.36 L 12.63 21.73 L 12.47 22.1 L 12.35 22.49 L 12.25 22.88 L 12.19 23.29 L 12.16 23.69 L 12.16 24.1 L 12.2 24.51 L 12.27 24.91 L 12.37 25.3 L 12.51 25.69 L 12.67 26.06 L 12.87 26.42 L 13.09 26.76 L 13.0 27.0 L 13.17 26.88 L 13.33 26.75 L 13.5 26.62 L 13.67 26.5 L 13.83 26.38 L 14.0 26.25 L 14.17 26.12 L 14.33 26.0 L 14.5 25.88 L 14.67 25.75 L 14.83 25.62 L 15.0 25.5 L 15.17 25.38 L 15.33 25.25 L 15.5 25.12 L 15.67 25.0 L 15.83 24.88 L 16.0 24.75 L 16.17 24.62 L 16.33 24.5 L 16.5 24.38 L 16.67 24.25 L 16.83 24.12 L 17.0 24.0 L 17.0 24.0 L 16.83 24.33 L 16.67 24.67 L 16.5 25.0 L 16.33 25.33 L 16.17 25.67 L 16.0 26.0 L 15.83 26.33 L 15.67 26.67 L 15.5 27.0 L 15.33 27.33 L 15.17 27.67 L 15.0 28.0 L 14.83 28.33 L 14.67 28.67 L 14.5 29.0 L 14.33 29.33 L 14.17 29.67 L 14.0 30.0 L 13.83 30.33 L 13.67 30.67 L 13.5 31.0 L 13.33 31.33 L 13.17 31.67 L 13.0 32.0" fill="none" stroke="#111" stroke-width="1.26" stroke-linecap="round" stroke-linejoin="round"/>
<path d="M 17.0 9.0 L 17.02 9.32 L 17.07 9.64 L 17.14 9.95 L 17.24 10.26 L 17.36 10.55 L 17.5 10.84 L 17.67 11.12 L 17.86 11.38 L 18.06 11.62 L 18.29 11.85 L 18.53 12.06 L 18.79 12.25 L 19.07 12.41 L 19.35 12.56 L 19.65 12.68 L 19.96 12.78 L 20.27 12.85 L 20.59 12.9 L 20.91 12.92 L 21.23 12.92 L 21.55 12.89 L 21.87 12.84 L 22.18 12.76 L 22.48 12.65 L 23.0 13.0 L 22.96 13.42 L 22.92 13.83 L 22.88 14.25 L 22.83 14.67 L 22.79 15.08 L 22.75 15.5 L 22.71 15.92 L 22.67 16.33 L 22.62 16.75 L 22.58 17.17 L 22.54 17.58 L 22.5 18.0 L 22.46 18.42 L 22.42 18.83 L 22.38 19.25 L 22.33 19.67 L 22.29 20.08 L 22.25 20.5 L 22.21 20.92 L 22.17 21.33 L 22.12 21.75 L 22.08 22.17 L 22.04 22.58 L 22.0 23.0" fill="none" stroke="#111" stroke-width="1.26" stroke-linecap="round" stroke-linejoin="round"/>
<path d="M 19.0 4.0 L 19.0 4.5 L 19.0 5.0 L 19.0 5.5 L 19.0 6.0 L 19.0 6.5 L 19.0 7.0 L 19.0 7.5 L 19.0 8.0 L 19.0 8.5 L 19.0 9.0 L 19.0 9.5 L 19.0 10.0 L 19.0 10.5 L 19.0 11.0 L 19.0 11.5 L 19.0 12.0 L 19.0 12.5 L 19.0 13.0 L 19.0 13.5 L 19.0 14.0 L 19.0 14.5 L 19.0 15.0 L 19.0 15.5 L 19.0 16.0" fill="none" stroke="#111" stroke-width="1.26" stroke-linecap="round" stroke-linejoin="round"/>
</svg>
