<?xml version="1.0" encoding="UTF-8"?>
<svg xmlns="http://www.w3.org/2000/svg" viewBox="0 0 19.66 38.40">
<path d="M 5.66 6.0 L 5.7 6.29 L 5.74 6.58 L 5.78 6.88 L 5.82 7.17 L 5.87 7.46 L 5.91 7.75 L 5.95 8.04 L 5.99 8.33 L 6.03 8.62 L 6.07 8.92 L 6.12 9.21 L 6.16 9.5 L 6.2 9.79 L 6.24 10.08 L 6.28 10.38 L 6.32 10.67 L 6.37 10.96 L 6.41 11.25 L 6.45 11.54 L 6.49 11.83 L 6.53 12.12 L 6.57 12.42 L 6.62 12.71 L 6.66 13.0 L 6.66 13.0 L 7.03 13.0 L 7.41 13.0 L 7.78 13.0 L 8.16 13.0 L 8.53 13.0 L 8.91 13.0 L 9.28 13.0 L 9.66 13.0 L 10.03 13.0 L 10.41 13.0 L 10.78 13.0 L 11.16 13.0 L 11.53 13.0 L 11.91 13.0 L 12.28 13.0 L 12.66 13.0 L 13.03 13.0 L 13.41 13.0 L 13.78 13.0 L 14.16 13.0 L 14.53 13.0 L 14.91 13.0 L 15.28 13.0 L 15.66 13.0 L 15.66 13.0 L 15.66 12.62 L 15.66 12.25 L 15.66 11.88 L 15.66 11.5 L 15.66 11.12 L 15.66 10.75 L 15.66 10.38 L 15.66 10.0 L 15.66 9.62 L 15.66 9.25 L 15.66 8.88 L 15.66 8.5 L 15.66 8.12 L 15.66 7.75 L 15.66 7.38 L 15.66 7.0 L 15.66 6.62 L 15.66 6.25 L 15.66 5.88 L 15.66 5.5 L 15.66 5.12 L 15.66 4.75 L 15.66 4.38 L 15.66 4.0 L 15.66 4.0 L 15.28 4.08 L 14.91 4.17 L 14.53 4.25 L 14.16 4.33 L 13.78 4.42 L 13.41 4.5 L 13.03 4.58 L 12.66 4.67 L 12.28 4.75 L 11.91 4.83 L 11.53 4.92 L 11.16 5.0 L 10.78 5.08 L 10.41 5.17 L 10.03 5.25 L 9.66 5.33 L 9.28 5.42 L 8.91 5.5 L 8.53 5.58 L 8.16 5.67 L 7.78 5.75 L 7.41 5.83 L 7.03 5.92 L 6.66 6.0" fill="none" stroke="#111" stroke-width="1.34" stroke-linecap="round" stroke-linejoin="round"/>
<path d="M 5.66 9.0 L 6.03 9.0 L 6.41 9.0 L 6.78 9.0 L 7.16 9.0 L 7.53 9.0 L 7.91 9.0 L 8.28 9.0 L 8.66 9.0 L 9.03 9.0 L 9.41 9.0 L 9.78 9.0 L 10.16 9.0 L 10.53 9.0 L 10.91 9.0 L 11.28 9.0 L 11.66 9.0 L 12.03 9.0 L 12.41 9.0 L 12.78 9.0 L 13.16 9.0 L 13.53 9.0 L 13.91 9.0 L 14.28 9.0 L 14.66 9.0" fill="none" stroke="#111" stroke-width="1.34" stroke-linecap="round" stroke-linejoin="round"/>
<path d="M 10.66 6.0 L 10.66 6.29 L 10.66 6.58 L 10.66 6.88 L 10.66 7.17 L 10.66 7.46 L 10.66 7.75 L 10.66 8.04 L 10.66 8.33 L 10.66 8.62 L 10.66 8.92 L 10.66 9.21 L 10.66 9.5 L 10.66 9.79 L 10.66 10.08 L 10.66 10.38 L 10.66 10.67 L 10.66 10.96 L 10.66 11.25 L 10.66 11.54 L 10.66 11.83 L 10.66 12.12 L 10.66 12.42 L 10.66 12.71 L 10.66 13.0" fill="none" stroke="#111" stroke-width="1.34" stroke-linecap="round" stroke-linejoin="round"/>
<path d="M 5.66 18.0 L 6.57 18.22 L 7.45 18.56 L 8.28 19.01 L 9.05 19.55 L 9.74 20.19 L 10.35 20.9 L 10.87 21.69 L 11.28 22.54 L 11.58 23.43 L 11.77 24.35 L 11.85 25.29 L 11.8 26.23 L 11.64 27.16 L 11.36 28.06 L 10.97 28.92 L 10.48 29.72 L 9.89 30.46 L 9.22 31.11 L 8.47 31.68 L 7.65 32.15 L 6.78 32.51 L 5.87 32.76 L 4.94 32.9 L 4.0 32.92" fill="none" stroke="#111" stroke-width="1.34" stroke-linecap="round" stroke-linejoin="round"/>
<path d="M 10.66 13.0 L 10.66 13.17 L 10.66 13.33 L 10.66 13.5 L 10.66 13.67 L 10.66 13.83 L 10.66 14.0 L 10.66 14.17 L 10.66 14.33 L 10.66 14.5 L 10.66 14.67 L 10.66 14.83 L 10.66 15.0 L 10.66 15.17 L 10.66 15.33 L 10.66 15.5 L 10.66 15.67 L 10.66 15.83 L 10.66 16.0 L 10.66 16.17 L 10.66 16.33 L 10.66 16.5 L 10.66 16.67 L 10.66 16.83 L 10.66 17.0" fill="none" stroke="#111" stroke-width="1.34" stroke-linecap="round" stroke-linejoin="round"/>
<path d="M 6.66 20.0 L 7.43 20.15 L 8.19 20.36 L 8.93 20.63 L 9.65 20.95 L 10.34 21.33 L 11.0 21.76 L 11.62 22.24 L 12.21 22.77 L 12.75 23.34 L 13.25 23.95 L 13.7 24.6 L 14.09 25.28 L 14.44 25.99 L 14.73 26.72 L 14.96 27.48 L 15.13 28.25 L 15.24 29.03 L 15.29 29.81 L 15.28 30.6 L 15.21 31.39 L 15.08 32.16 L 14.89 32.93 L 14.64 33.67 L 14.34 34.4" fill="none" stroke="#111" stroke-width="1.34" stroke-linecap="round" stroke-linejoin="round"/>
</svg>
