<?xml version="1.0" encoding="UTF-8"?>
<svg xmlns="http://www.w3.org/2000/svg" viewBox="0 0 26.00 41.00">
<path d="M 4.0 5.0 L 4.75 4.96 L 5.5 4.92 L 6.25 4.88 L 7.0 4.83 L 7.75 4.79 L 8.5 4.75 L 9.25 4.71 L 10.0 4.67 L 10.75 4.62 L 11.5 4.58 L 12.25 4.54 L 13.0 4.5 L 13.75 4.46 L 14.5 4.42 L 15.25 4.38 L 16.0 4.33 L 16.75 4.29 L 17.5 4.25 L 18.25 4.21 L 19.0 4.17 L 19.75 4.12 L 20.5 4.08 L 21.25 4.04 L 22.0 4.0" fill="none" stroke="#111" stroke-width="1.44" stroke-linecap="round" stroke-linejoin="round"/>
<path d="M 13.0 4.0 L 12.96 5.38 L 12.92 6.75 L 12.88 8.12 L 12.83 9.5 L 12.79 10.88 L 12.75 12.25 L 12.71 13.62 L 12.67 15.0 L 12.62 16.38 L 12.58 17.75 L 12.54 19.12 L 12.5 20.5 L 12.46 21.88 L 12.42 23.25 L 12.38 24.62 L 12.33 26.0 L 12.29 27.38 L 12.25 28.75 L 12.21 30.12 L 12.17 31.5 L 12.12 32.88 L 12.08 34.25 L 12.04 35.62 L 12.0 37.0" fill="none" stroke="#111" stroke-width="1.44" stroke-linecap="round" stroke-linejoin="round"/>
<path d="M 5.0 14.0 L 5.0 14.25 L 5.0 14.5 L 5.0 14.75 L 5.0 15.0 L 5.0 15.25 L 5.0 15.5 L 5.0 15.75 L 5.0 16.0 L 5.0 16.25 L 5.0 16.5 L 5.0 16.75 L 5.0 17.0 L 5.0 17.25 L 5.0 17.5 L 5.0 17.75 L 5.0 18.0 L 5.0 18.25 L 5.0 18.5 L 5.0 18.75 L 5.0 19.0 L 5.0 19.25 L 5.0 19.5 L 5.0 19.75 L 5.0 20.0" fill="none" stroke="#111" stroke-width="1.44" stroke-linecap="round" stroke-linejoin="round"/>
<path d="M 5.0 14.0 L 5.67 14.0 L 6.33 14.0 L 7.0 14.0 L 7.67 14.0 L 8.33 14.0 L 9.0 14.0 L 9.67 14.0 L 10.33 14.0 L 11.0 14.0 L 11.67 14.0 L 12.33 14.0 L 13.0 14.0 L 13.67 14.0 L 14.33 14.0 L 15.0 14.0 L 15.67 14.0 L 16.33 14.0 L 17.0 14.0 L 17.67 14.0 L 18.33 14.0 L 19.0 14.0 L 19.67 14.0 L 20.33 14.0 L 21.0 14.0" fill="none" stroke="#111" stroke-width="1.44" stroke-linecap="round" stroke-linejoin="round"/>
<path d="M 21.0 14.0 L 21.0 14.25 L 21.0 14.5 L 21.0 14.75 L 21.0 15.0 L 21.0 15.25 L 21.0 15.5 L 21.0 15.75 L 21.0 16.0 L 21.0 16.25 L 21.0 16.5 L 21.0 16.75 L 21.0 17.0 L 21.0 17.25 L 21.0 17.5 L 21.0 17.75 L 21.0 18.0 L 21.0 18.25 L 21.0 18.5 L 21.0 18.75 L 21.0 19.0 L 21.0 19.25 L 21.0 19.5 L 21.0 19.75 L 21.0 20.0" fill="none" stroke="#111" stroke-width="1.44" stroke-linecap="round" stroke-linejoin="round"/>
<path d="M 5.0 20.0 L 5.67 20.0 L 6.33 20.0 L 7.0 20.0 L 7.67 20.0 L 8.33 20.0 L 9.0 20.0 L 9.67 20.0 L 10.33 20.0 L 11.0 20.0 L 11.67 20.0 L 12.33 20.0 L 13.0 20.0 L 13.67 20.0 L 14.33 20.0 L 15.0 20.0 L 15.67 20.0 L 16.33 20.0 L 17.0 20.0 L 17.67 20.0 L 18.33 20.0 L 19.0 20.0 L 19.67 20.0 L 20.33 20.0 L 21.0 20.0" fill="none" stroke="#111" stroke-width="1.44" stroke-linecap="round" stroke-linejoin="round"/>
<path d="M 5.0 5.0 L 5.33 5.29 L 5.67 5.58 L 6.0 5.88 L 6.33 6.17 L 6.67 6.46 L 7.0 6.75 L 7.33 7.04 L 7.67 7.33 L 8.0 7.62 L 8.33 7.92 L 8.67 8.21 L 9.0 8.5 L 9.33 8.79 L 9.67 9.08 L 10.0 9.38 L 10.33 9.67 L 10.67 9.96 L 11.0 10.25 L 11.33 10.54 L 11.67 10.83 L 12.0 11.12 L 12.33 11.42 L 12.67 11.71 L 13.0 12.0" fill="none" stroke="#111" stroke-width="1.44" stroke-linecap="round" stroke-linejoin="round"/>
<path d="M 20.0 4.0 L 19.71 4.33 L 19.42 4.67 L 19.12 5.0 L 18.83 5.33 L 18.54 5.67 L 18.25 6.0 L 17.96 6.33 L 17.67 6.67 L 17.38 7.0 L 17.08 7.33 L 16.79 7.67 L 16.5 8.0 L 16.21 8.33 L 15.92 8.67 L 15.62 9.0 L 15.33 9.33 L 15.04 9.67 L 14.75 10.0 L 14.46 10.33 L 14.17 10.67 L 13.88 11.0 L 13.58 11.33 L 13.29 11.67 L 13.0 12.0" fill="none" stroke="#111" stroke-width="1.44" stroke-linecap="round" stroke-linejoin="round"/>
<path d="M 11.0 20.0 L 10.71 20.5 L 10.42 21.0 L 10.12 21.5 L 9.83 22.0 L 9.54 22.5 L 9.25 23.0 L 8.96 23.5 L 8.67 24.0 L 8.38 24.5 L 8.08 25.0 L 7.79 25.5 L 7.5 26.0 L 7.21 26.5 L 6.92 27.0 L 6.63 27.5 L 6.33 28.0 L 6.04 28.5 L 5.75 29.0 L 5.46 29.5 L 5.17 30.0 L 4.88 30.5 L 4.58 31.0 L 4.29 31.5 L 4.0 32.0" fill="none" stroke="#111" stroke-width="1.44" stroke-linecap="round" stroke-linejoin="round"/>
<path d="M 15.0 20.0 L 15.25 20.54 L 15.5 21.08 L 15.75 21.62 L 16.0 22.17 L 16.25 22.71 L 16.5 23.25 L 16.75 23.79 L 17.0 24.33 L 17.25 24.88 L 17.5 25.42 L 17.75 25.96 L 18.0 26.5 L 18.25 27.04 L 18.5 27.58 L 18.75 28.12 L 19.0 28.67 L 19.25 29.21 L 19.5 29.75 L 19.75 30.29 L 20.0 30.83 L 20.25 31.38 L 20.5 31.92 L 20.75 32.46 L 21.0 33.0" fill="none" stroke="#111" stroke-width="1.44" stroke-linecap="round" stroke-linejoin="round"/>
</svg>
