<?xml version="1.0" encoding="UTF-8"?>
<svg xmlns="http://www.w3.org/2000/svg" viewBox="0 0 21.18 42.00">
<path d="M 10.18 9.0 L 10.18 9.5 L 10.18 10.0 L 10.18 10.5 L 10.18 11.0 L 10.18 11.5 L 10.18 12.0 L 10.18 12.5 L 10.18 13.0 L 10.18 13.5 L 10.18 14.0 L 10.18 14.5 L 10.18 15.0 L 10.18 15.5 L 10.18 16.0 L 10.18 16.5 L 10.18 17.0 L 10.18 17.5 L 10.18 18.0 L 10.18 18.5 L 10.18 19.0 L 10.18 19.5 L 10.18 20.0 L 10.18 20.5 L 10.18 21.0" fill="none" stroke="#111" stroke-width="1.47" stroke-linecap="round" stroke-linejoin="round"/>
<path d="M 7.18 10.0 L 7.3 10.17 L 7.43 10.33 L 7.55 10.5 L 7.68 10.67 L 7.8 10.83 L 7.93 11.0 L 8.05 11.17 L 8.18 11.33 L 8.3 11.5 L 8.43 11.67 L 8.55 11.83 L 8.68 12.0 L 8.8 12.17 L 8.93 12.33 L 9.05 12.5 L 9.18 12.67 L 9.3 12.83 L 9.43 13.0 L 9.55 13.17 L 9.68 13.33 L 9.8 13.5 L 9.93 13.67 L 10.05 13.83 L 10.18 14.0" fill="none" stroke="#111" stroke-width="1.47" stroke-linecap="round" stroke-linejoin="round"/>
<path d="M 13.18 9.0 L 13.05 9.21 L 12.93 9.42 L 12.8 9.62 L 12.68 9.83 L 12.55 10.04 L 12.43 10.25 L 12.3 10.46 L 12.18 10.67 L 12.05 10.88 L 11.93 11.08 L 11.8 11.29 L 11.68 11.5 L 11.55 11.71 L 11.43 11.92 L 11.3 12.12 L 11.18 12.33 L 11.05 12.54 L 10.93 12.75 L 10.8 12.96 L 10.68 13.17 L 10.55 13.38 L 10.43 13.58 L 10.3 13.79 L 10.18 14.0" fill="none" stroke="#111" stroke-width="1.47" stroke-linecap="round" stroke-linejoin="round"/>
<path d="M 10.18 14.0 L 9.97 14.25 L 9.76 14.5 L 9.55 14.75 L 9.34 15.0 L 9.13 15.25 L 8.93 15.5 L 8.72 15.75 L 8.51 16.0 L 8.3 16.25 L 8.09 16.5 L 7.88 16.75 L 7.68 17.0 L 7.47 17.25 L 7.26 17.5 L 7.05 17.75 L 6.84 18.0 L 6.63 18.25 L 6.43 18.5 L 6.22 18.75 L 6.01 19.0 L 5.8 19.25 L 5.59 19.5 L 5.38 19.75 L 5.18 20.0" fill="none" stroke="#111" stroke-width="1.47" stroke-linecap="round" stroke-linejoin="round"/>
<path d="M 10.18 14.0 L 10.34 14.25 L 10.51 14.5 L 10.68 14.75 L 10.84 15.0 L 11.01 15.25 L 11.18 15.5 L 11.34 15.75 L 11.51 16.0 L 11.68 16.25 L 11.84 16.5 L 12.01 16.75 L 12.18 17.0 L 12.34 17.25 L 12.51 17.5 L 12.68 17.75 L 12.84 18.0 L 13.01 18.25 L 13.18 18.5 L 13.34 18.75 L 13.51 19.0 L 13.68 19.25 L 13.84 19.5 L 14.01 19.75 L 14.18 20.0" fill="none" stroke="#111" stroke-width="1.47" stroke-linecap="round" stroke-linejoin="round"/>
<path d="M 7.18 24.0 L 7.43 24.0 L 7.68 24.0 L 7.93 24.0 L 8.18 24.0 L 8.43 24.0 L 8.68 24.0 L 8.93 24.0 L 9.18 24.0 L 9.43 24.0 L 9.68 24.0 L 9.93 24.0 L 10.18 24.0 L 10.43 24.0 L 10.68 24.0 L 10.93 24.0 L 11.18 24.0 L 11.43 24.0 L 11.68 24.0 L 11.93 24.0 L 12.18 24.0 L 12.43 24.0 L 12.68 24.0 L 12.93 24.0 L 13.18 24.0" fill="none" stroke="#111" stroke-width="1.47" stroke-linecap="round" stroke-linejoin="round"/>
<path d="M 5.18 27.0 L 5.59 27.0 L 6.01 27.0 L 6.43 27.0 L 6.84 27.0 L 7.26 27.0 L 7.68 27.0 L 8.09 27.0 L 8.51 27.0 L 8.93 27.0 L 9.34 27.0 L 9.76 27.0 L 10.18 27.0 L 10.59 27.0 L 11.01 27.0 L 11.43 27.0 L 11.84 27.0 L 12.26 27.0 L 12.68 27.0 L 13.09 27.0 L 13.51 27.0 L 13.93 27.0 L 14.34 27.0 L 14.76 27.0 L 15.18 27.0" fill="none" stroke="#111" stroke-width="1.47" stroke-linecap="round" stroke-linejoin="round"/>
<path d="M 10.18 27.0 L 10.18 27.46 L 10.18 27.92 L 10.18 28.38 L 10.18 28.83 L 10.18 29.29 L 10.18 29.75 L 10.18 30.21 L 10.18 30.67 L 10.18 31.12 L 10.18 31.58 L 10.18 32.04 L 10.18 32.5 L 10.18 32.96 L 10.18 33.42 L 10.18 33.88 L 10.18 34.33 L 10.18 34.79 L 10.18 35.25 L 10.18 35.71 L 10.18 36.17 L 10.18 36.62 L 10.18 37.08 L 10.18 37.54 L 10.18 38.0" fill="none" stroke="#111" stroke-width="1.47" stroke-linecap="round" stroke-linejoin="round"/>
<path d="M 6.18 6.0 L 5.89 6.24 L 5.63 6.51 L 5.39 6.79 L 5.17 7.09 L 4.97 7.41 L 4.8 7.74 L 4.65 8.08 L 4.53 8.43 L 4.43 8.79 L 4.36 9.16 L 4.32 9.53 L 4.31 9.9 L 4.32 10.27 L 4.36 10.64 L 4.43 11.01 L 4.53 11.37 L 4.65 11.72 L 4.8 12.06 L 4.97 12.39 L 5.17 12.71 L 5.39 13.01 L 5.63 13.29 L 5.89 13.55 L 6.18 13.8" fill="none" stroke="#111" stroke-width="1.47" stroke-linecap="round" stroke-linejoin="round"/>
<path d="M 4.18 4.0 L 4.12 4.26 L 4.07 4.53 L 4.03 4.8 L 4.01 5.07 L 4.0 5.34 L 4.0 5.61 L 4.02 5.88 L 4.05 6.15 L 4.09 6.42 L 4.15 6.69 L 4.21 6.95 L 4.29 7.21 L 4.38 7.47 L 4.49 7.72 L 4.6 7.96 L 4.73 8.2 L 4.87 8.43 L 5.02 8.66 L 5.18 8.88 L 5.35 9.09 L 5.53 9.29 L 5.72 9.49 L 5.92 9.67 L 6.13 9.85" fill="none" stroke="#111" stroke-width="1.47" stroke-linecap="round" stroke-linejoin="round"/>
<path d="M 16.18 4.0 L 16.38 4.32 L 16.57 4.65 L 16.73 5.0 L 16.86 5.35 L 16.97 5.71 L 17.06 6.09 L 17.11 6.46 L 17.14 6.84 L 17.14 7.22 L 17.12 7.6 L 17.07 7.98 L 16.99 8.35 L 16.88 8.71 L 16.75 9.07 L 16.59 9.42 L 16.41 9.75 L 16.21 10.07 L 15.98 10.38 L 15.74 10.66 L 15.47 10.93 L 15.18 11.18 L 14.88 11.41 L 14.56 11.62 L 14.23 11.8" fill="none" stroke="#111" stroke-width="1.47" stroke-linecap="round" stroke-linejoin="round"/>
<path d="M 14.18 7.0 L 14.3 7.21 L 14.43 7.42 L 14.55 7.62 L 14.68 7.83 L 14.8 8.04 L 14.93 8.25 L 15.05 8.46 L 15.18 8.67 L 15.3 8.88 L 15.43 9.08 L 15.55 9.29 L 15.68 9.5 L 15.8 9.71 L 15.93 9.92 L 16.05 10.12 L 16.18 10.33 L 16.3 10.54 L 16.43 10.75 L 16.55 10.96 L 16.68 11.17 L 16.8 11.38 L 16.93 11.58 L 17.05 11.79 L 17.18 12.0" fill="none" stroke="#111" stroke-width="1.47" stroke-linecap="round" stroke-linejoin="round"/>
</svg>
