<?xml version="1.0" encoding="UTF-8"?>
<svg xmlns="http://www.w3.org/2000/svg" viewBox="0 0 24.00 38.00">
<path d="M 6.0 6.0 L 6.64 6.99 L 7.21 8.02 L 7.73 9.08 L 8.2 10.16 L 8.59 11.27 L 8.93 12.4 L 9.2 13.55 L 9.41 14.71 L 9.56 15.88 L 9.63 17.05 L 9.65 18.23 L 9.59 19.41 L 9.47 20.58 L 9.29 21.75 L 9.04 22.9 L 8.72 24.04 L 8.34 25.15 L 7.91 26.25 L 7.41 27.31 L 6.85 28.35 L 6.23 29.36 L 5.56 30.33 L 4.84 31.26 L 4.06 32.15" fill="none" stroke="#111" stroke-width="1.33" stroke-linecap="round" stroke-linejoin="round"/>
<path d="M 18.0 4.0 L 17.4 5.15 L 16.86 6.33 L 16.38 7.53 L 15.95 8.75 L 15.58 9.99 L 15.27 11.25 L 15.02 12.52 L 14.83 13.81 L 14.7 15.1 L 14.63 16.39 L 14.63 17.69 L 14.68 18.98 L 14.8 20.27 L 14.98 21.56 L 15.22 22.83 L 15.52 24.09 L 15.87 25.34 L 16.29 26.56 L 16.76 27.77 L 17.3 28.95 L 17.88 30.11 L 18.52 31.23 L 19.22 32.33 L 19.96 33.39" fill="none" stroke="#111" stroke-width="1.33" stroke-linecap="round" stroke-linejoin="round"/>
<path d="M 9.0 12.0 L 9.25 12.0 L 9.5 12.0 L 9.75 12.0 L 10.0 12.0 L 10.25 12.0 L 10.5 12.0 L 10.75 12.0 L 11.0 12.0 L 11.25 12.0 L 11.5 12.0 L 11.75 12.0 L 12.0 12.0 L 12.25 12.0 L 12.5 12.0 L 12.75 12.0 L 13.0 12.0 L 13.25 12.0 L 13.5 12.0 L 13.75 12.0 L 14.0 12.0 L 14.25 12.0 L 14.5 12.0 L 14.75 12.0 L 15.0 12.0" fill="none" stroke="#111" stroke-width="1.33" stroke-linecap="round" stroke-linejoin="round"/>
<path d="M 9.0 15.0 L 9.29 15.08 L 9.58 15.17 L 9.88 15.25 L 10.17 15.33 L 10.46 15.42 L 10.75 15.5 L 11.04 15.58 L 11.33 15.67 L 11.62 15.75 L 11.92 15.83 L 12.21 15.92 L 12.5 16.0 L 12.79 16.08 L 13.08 16.17 L 13.38 16.25 L 13.67 16.33 L 13.96 16.42 L 14.25 16.5 L 14.54 16.58 L 14.83 16.67 L 15.12 16.75 L 15.42 16.83 L 15.71 16.92 L 16.0 17.0" fill="none" stroke="#111" stroke-width="1.33" stroke-linecap="round" stroke-linejoin="round"/>
<path d="M 12.0 18.0 L 12.0 18.5 L 12.0 19.0 L 12.0 19.5 L 12.0 20.0 L 12.0 20.5 L 12.0 21.0 L 12.0 21.5 L 12.0 22.0 L 12.0 22.5 L 12.0 23.0 L 12.0 23.5 L 12.0 24.0 L 12.0 24.5 L 12.0 25.0 L 12.0 25.5 L 12.0 26.0 L 12.0 26.5 L 12.0 27.0 L 12.0 27.5 L 12.0 28.0 L 12.0 28.5 L 12.0 29.0 L 12.0 29.5 L 12.0 30.0" fill="none" stroke="#111" stroke-width="1.33" stroke-linecap="round" stroke-linejoin="round"/>
<path d="M 7.0 20.0 L 7.21 20.17 L 7.42 20.33 L 7.62 20.5 L 7.83 20.67 L 8.04 20.83 L 8.25 21.0 L 8.46 21.17 L 8.67 21.33 L 8.88 21.5 L 9.08 21.67 L 9.29 21.83 L 9.5 22.0 L 9.71 22.17 L 9.92 22.33 L 10.12 22.5 L 10.33 22.67 L 10.54 22.83 L 10.75 23.0 L 10.96 23.17 L 11.17 23.33 L 11.38 23.5 L 11.58 23.67 L 11.79 23.83 L 12.0 24.0" fill="none" stroke="#111" stroke-width="1.33" stroke-linecap="round" stroke-linejoin="round"/>
<path d="M 4.0 33.0 L 4.67 33.04 L 5.33 33.08 L 6.0 33.12 L 6.67 33.17 L 7.33 33.21 L 8.0 33.25 L 8.67 33.29 L 9.33 33.33 L 10.0 33.38 L 10.67 33.42 L 11.33 33.46 L 12.0 33.5 L 12.67 33.54 L 13.33 33.58 L 14.0 33.62 L 14.67 33.67 L 15.33 33.71 L 16.0 33.75 L 16.67 33.79 L 17.33 33.83 L 18.0 33.88 L 18.67 33.92 L 19.33 33.96 L 20.0 34.0" fill="none" stroke="#111" stroke-width="1.33" stroke-linecap="round" stroke-linejoin="round"/>
</svg>
