<?xml version="1.0" encoding="UTF-8"?>
<svg xmlns="http://www.w3.org/2000/svg" viewBox="0 0 25.00 40.95">
<path d="M 15.0 4.0 L 14.58 4.46 L 14.17 4.92 L 13.75 5.38 L 13.33 5.83 L 12.92 6.29 L 12.5 6.75 L 12.08 7.21 L 11.67 7.67 L 11.25 8.12 L 10.83 8.58 L 10.42 9.04 L 10.0 9.5 L 9.58 9.96 L 9.17 10.42 L 8.75 10.88 L 8.33 11.33 L 7.92 11.79 L 7.5 12.25 L 7.08 12.71 L 6.67 13.17 L 6.25 13.62 L 5.83 14.08 L 5.42 14.54 L 5.0 15.0" fill="none" stroke="#111" stroke-width="1.43" stroke-linecap="round" stroke-linejoin="round"/>
<path d="M 9.0 4.0 L 9.99 5.11 L 10.92 6.27 L 11.78 7.48 L 12.57 8.74 L 13.29 10.04 L 13.94 11.38 L 14.51 12.75 L 15.0 14.15 L 15.42 15.58 L 15.75 17.03 L 16.0 18.49 L 16.18 19.97 L 16.27 21.45 L 16.27 22.94 L 16.2 24.42 L 16.04 25.9 L 15.8 27.37 L 15.47 28.82 L 15.07 30.25 L 14.59 31.66 L 14.03 33.03 L 13.4 34.38 L 12.69 35.68 L 11.91 36.95" fill="none" stroke="#111" stroke-width="1.43" stroke-linecap="round" stroke-linejoin="round"/>
<path d="M 14.0 11.0 L 14.29 11.29 L 14.58 11.58 L 14.88 11.88 L 15.17 12.17 L 15.46 12.46 L 15.75 12.75 L 16.04 13.04 L 16.33 13.33 L 16.62 13.62 L 16.92 13.92 L 17.21 14.21 L 17.5 14.5 L 17.79 14.79 L 18.08 15.08 L 18.38 15.38 L 18.67 15.67 L 18.96 15.96 L 19.25 16.25 L 19.54 16.54 L 19.83 16.83 L 20.12 17.12 L 20.42 17.42 L 20.71 17.71 L 21.0 18.0" fill="none" stroke="#111" stroke-width="1.43" stroke-linecap="round" stroke-linejoin="round"/>
<path d="M 14.0 17.0 L 14.29 17.25 L 14.58 17.5 L 14.88 17.75 L 15.17 18.0 L 15.46 18.25 L 15.75 18.5 L 16.04 18.75 L 16.33 19.0 L 16.62 19.25 L 16.92 19.5 L 17.21 19.75 L 17.5 20.0 L 17.79 20.25 L 18.08 20.5 L 18.38 20.75 L 18.67 21.0 L 18.96 21.25 L 19.25 21.5 L 19.54 21.75 L 19.83 22.0 L 20.12 22.25 L 20.42 22.5 L 20.71 22.75 L 21.0 23.0" fill="none" stroke="#111" stroke-width="1.43" stroke-linecap="round" stroke-linejoin="round"/>
<path d="M 13.0 26.0 L 13.29 26.29 L 13.58 26.58 L 13.88 26.88 L 14.17 27.17 L 14.46 27.46 L 14.75 27.75 L 15.04 28.04 L 15.33 28.33 L 15.62 28.62 L 15.92 28.92 L 16.21 29.21 L 16.5 29.5 L 16.79 29.79 L 17.08 30.08 L 17.38 30.38 L 17.67 30.67 L 17.96 30.96 L 18.25 31.25 L 18.54 31.54 L 18.83 31.83 L 19.12 32.12 L 19.42 32.42 L 19.71 32.71 L 20.0 33.0" fill="none" stroke="#111" stroke-width="1.43" stroke-linecap="round" stroke-linejoin="round"/>
<path d="M 13.0 26.0 L 12.67 26.29 L 12.33 26.58 L 12.0 26.88 L 11.67 27.17 L 11.33 27.46 L 11.0 27.75 L 10.67 28.04 L 10.33 28.33 L 10.0 28.62 L 9.67 28.92 L 9.33 29.21 L 9.0 29.5 L 8.67 29.79 L 8.33 30.08 L 8.0 30.38 L 7.67 30.67 L 7.33 30.96 L 7.0 31.25 L 6.67 31.54 L 6.33 31.83 L 6.0 32.12 L 5.67 32.42 L 5.33 32.71 L 5.0 33.0" fill="none" stroke="#111" stroke-width="1.43" stroke-linecap="round" stroke-linejoin="round"/>
<path d="M 14.0 17.0 L 13.58 17.33 L 13.17 17.67 L 12.75 18.0 L 12.33 18.33 L 11.92 18.67 L 11.5 19.0 L 11.08 19.33 L 10.67 19.67 L 10.25 20.0 L 9.83 20.33 L 9.42 20.67 L 9.0 21.0 L 8.58 21.33 L 8.17 21.67 L 7.75 22.0 L 7.33 22.33 L 6.92 22.67 L 6.5 23.0 L 6.08 23.33 L 5.67 23.67 L 5.25 24.0 L 4.83 24.33 L 4.42 24.67 L 4.0 25.0" fill="none" stroke="#111" stroke-width="1.43" stroke-linecap="round" stroke-linejoin="round"/>
</svg>
