<?xml version="1.0" encoding="UTF-8"?>
<svg xmlns="http://www.w3.org/2000/svg" viewBox="0 0 14.00 33.20">
<path d="M 7.0 4.0 L 6.88 4.33 L 6.75 4.67 L 6.62 5.0 L 6.5 5.33 L 6.38 5.67 L 6.25 6.0 L 6.12 6.33 L 6.0 6.67 L 5.88 7.0 L 5.75 7.33 L 5.63 7.67 L 5.5 8.0 L 5.38 8.33 L 5.25 8.67 L 5.13 9.0 L 5.0 9.33 L 4.88 9.67 L 4.75 10.0 L 4.63 10.33 L 4.5 10.67 L 4.38 11.0 L 4.25 11.33 L 4.13 11.67 L 4.0 12.0 L 4.0 12.0 L 4.51 12.58 L 4.99 13.2 L 5.44 13.84 L 5.84 14.5 L 6.21 15.19 L 6.54 15.89 L 6.82 16.62 L 7.06 17.36 L 7.27 18.11 L 7.42 18.87 L 7.53 19.64 L 7.6 20.42 L 7.63 21.19 L 7.6 21.97 L 7.54 22.75 L 7.43 23.52 L 7.27 24.28 L 7.07 25.03 L 6.83 25.77 L 6.55 26.5 L 6.22 27.2 L 5.86 27.89 L 5.45 28.56 L 5.01 29.2" fill="none" stroke="#111" stroke-width="1.16" stroke-linecap="round" stroke-linejoin="round"/>
<path d="M 5.0 8.0 L 5.17 8.12 L 5.33 8.25 L 5.5 8.38 L 5.67 8.5 L 5.83 8.62 L 6.0 8.75 L 6.17 8.88 L 6.33 9.0 L 6.5 9.12 L 6.67 9.25 L 6.83 9.38 L 7.0 9.5 L 7.17 9.62 L 7.33 9.75 L 7.5 9.88 L 7.67 10.0 L 7.83 10.12 L 8.0 10.25 L 8.17 10.38 L 8.33 10.5 L 8.5 10.62 L 8.67 10.75 L 8.83 10.88 L 9.0 11.0" fill="none" stroke="#111" stroke-width="1.16" stroke-linecap="round" stroke-linejoin="round"/>
<path d="M 10.0 6.0 L 9.92 6.21 L 9.83 6.42 L 9.75 6.62 L 9.67 6.83 L 9.58 7.04 L 9.5 7.25 L 9.42 7.46 L 9.33 7.67 L 9.25 7.88 L 9.17 8.08 L 9.08 8.29 L 9.0 8.5 L 8.92 8.71 L 8.83 8.92 L 8.75 9.12 L 8.67 9.33 L 8.58 9.54 L 8.5 9.75 L 8.42 9.96 L 8.33 10.17 L 8.25 10.38 L 8.17 10.58 L 8.08 10.79 L 8.0 11.0" fill="none" stroke="#111" stroke-width="1.16" stroke-linecap="round" stroke-linejoin="round"/>
</svg>
