<?xml version="1.0" encoding="UTF-8"?>
<svg xmlns="http://www.w3.org/2000/svg" viewBox="0 0 22.41 34.00">
<path d="M 7.0 4.0 L 7.04 4.25 L 7.08 4.5 L 7.12 4.75 L 7.17 5.0 L 7.21 5.25 L 7.25 5.5 L 7.29 5.75 L 7.33 6.0 L 7.38 6.25 L 7.42 6.5 L 7.46 6.75 L 7.5 7.0 L 7.54 7.25 L 7.58 7.5 L 7.62 7.75 L 7.67 8.0 L 7.71 8.25 L 7.75 8.5 L 7.79 8.75 L 7.83 9.0 L 7.88 9.25 L 7.92 9.5 L 7.96 9.75 L 8.0 10.0" fill="none" stroke="#111" stroke-width="1.19" stroke-linecap="round" stroke-linejoin="round"/>
<path d="M 7.0 4.0 L 7.29 4.0 L 7.58 4.0 L 7.88 4.0 L 8.17 4.0 L 8.46 4.0 L 8.75 4.0 L 9.04 4.0 L 9.33 4.0 L 9.62 4.0 L 9.92 4.0 L 10.21 4.0 L 10.5 4.0 L 10.79 4.0 L 11.08 4.0 L 11.38 4.0 L 11.67 4.0 L 11.96 4.0 L 12.25 4.0 L 12.54 4.0 L 12.83 4.0 L 13.12 4.0 L 13.42 4.0 L 13.71 4.0 L 14.0 4.0" fill="none" stroke="#111" stroke-width="1.19" stroke-linecap="round" stroke-linejoin="round"/>
<path d="M 14.0 4.0 L 14.04 4.21 L 14.08 4.42 L 14.12 4.62 L 14.17 4.83 L 14.21 5.04 L 14.25 5.25 L 14.29 5.46 L 14.33 5.67 L 14.38 5.88 L 14.42 6.08 L 14.46 6.29 L 14.5 6.5 L 14.54 6.71 L 14.58 6.92 L 14.62 7.12 L 14.67 7.33 L 14.71 7.54 L 14.75 7.75 L 14.79 7.96 L 14.83 8.17 L 14.88 8.38 L 14.92 8.58 L 14.96 8.79 L 15.0 9.0" fill="none" stroke="#111" stroke-width="1.19" stroke-linecap="round" stroke-linejoin="round"/>
<path d="M 8.0 10.0 L 8.33 9.96 L 8.67 9.92 L 9.0 9.88 L 9.33 9.83 L 9.67 9.79 L 10.0 9.75 L 10.33 9.71 L 10.67 9.67 L 11.0 9.62 L 11.33 9.58 L 11.67 9.54 L 12.0 9.5 L 12.33 9.46 L 12.67 9.42 L 13.0 9.38 L 13.33 9.33 L 13.67 9.29 L 14.0 9.25 L 14.33 9.21 L 14.67 9.17 L 15.0 9.12 L 15.33 9.08 L 15.67 9.04 L 16.0 9.0" fill="none" stroke="#111" stroke-width="1.19" stroke-linecap="round" stroke-linejoin="round"/>
<path d="M 11.0 12.0 L 10.83 12.17 L 10.67 12.33 L 10.5 12.5 L 10.33 12.67 L 10.17 12.83 L 10.0 13.0 L 9.83 13.17 L 9.67 13.33 L 9.5 13.5 L 9.33 13.67 L 9.17 13.83 L 9.0 14.0 L 8.83 14.17 L 8.67 14.33 L 8.5 14.5 L 8.33 14.67 L 8.17 14.83 L 8.0 15.0 L 7.83 15.17 L 7.67 15.33 L 7.5 15.5 L 7.33 15.67 L 7.17 15.83 L 7.0 16.0" fill="none" stroke="#111" stroke-width="1.19" stroke-linecap="round" stroke-linejoin="round"/>
<path d="M 10.0 12.0 L 10.21 12.12 L 10.42 12.25 L 10.62 12.38 L 10.83 12.5 L 11.04 12.62 L 11.25 12.75 L 11.46 12.88 L 11.67 13.0 L 11.88 13.12 L 12.08 13.25 L 12.29 13.38 L 12.5 13.5 L 12.71 13.62 L 12.92 13.75 L 13.12 13.88 L 13.33 14.0 L 13.54 14.12 L 13.75 14.25 L 13.96 14.38 L 14.17 14.5 L 14.38 14.62 L 14.58 14.75 L 14.79 14.88 L 15.0 15.0" fill="none" stroke="#111" stroke-width="1.19" stroke-linecap="round" stroke-linejoin="round"/>
<path d="M 11.0 12.0 L 10.83 12.33 L 10.67 12.67 L 10.5 13.0 L 10.33 13.33 L 10.17 13.67 L 10.0 14.0 L 9.83 14.33 L 9.67 14.67 L 9.5 15.0 L 9.33 15.33 L 9.17 15.67 L 9.0 16.0 L 8.83 16.33 L 8.67 16.67 L 8.5 17.0 L 8.33 17.33 L 8.17 17.67 L 8.0 18.0 L 7.83 18.33 L 7.67 18.67 L 7.5 19.0 L 7.33 19.33 L 7.17 19.67 L 7.0 20.0" fill="none" stroke="#111" stroke-width="1.19" stroke-linecap="round" stroke-linejoin="round"/>
<path d="M 7.0 20.0 L 6.88 20.21 L 6.75 20.42 L 6.62 20.62 L 6.5 20.83 L 6.38 21.04 L 6.25 21.25 L 6.12 21.46 L 6.0 21.67 L 5.88 21.88 L 5.75 22.08 L 5.63 22.29 L 5.5 22.5 L 5.38 22.71 L 5.25 22.92 L 5.12 23.12 L 5.0 23.33 L 4.88 23.54 L 4.75 23.75 L 4.63 23.96 L 4.5 24.17 L 4.38 24.38 L 4.25 24.58 L 4.13 24.79 L 4.0 25.0 L 4.0 25.0 L 4.12 25.21 L 4.25 25.42 L 4.38 25.62 L 4.5 25.83 L 4.62 26.04 L 4.75 26.25 L 4.88 26.46 L 5.0 26.67 L 5.12 26.88 L 5.25 27.08 L 5.38 27.29 L 5.5 27.5 L 5.62 27.71 L 5.75 27.92 L 5.88 28.12 L 6.0 28.33 L 6.12 28.54 L 6.25 28.75 L 6.38 28.96 L 6.5 29.17 L 6.62 29.38 L 6.75 29.58 L 6.88 29.79 L 7.0 30.0 L 7.0 30.0 L 7.39 29.8 L 7.77 29.58 L 8.13 29.32 L 8.46 29.02 L 8.76 28.71 L 9.04 28.36 L 9.28 28.0 L 9.49 27.61 L 9.67 27.21 L 9.81 26.79 L 9.92 26.36 L 9.98 25.93 L 10.01 25.49 L 10.0 25.05 L 9.96 24.61 L 9.87 24.18 L 9.75 23.76 L 9.59 23.35 L 9.4 22.95 L 9.17 22.57 L 8.91 22.22 L 8.62 21.89 L 8.31 21.58 L 7.97 21.3" fill="none" stroke="#111" stroke-width="1.19" stroke-linecap="round" stroke-linejoin="round"/>
<path d="M 7.0 20.0 L 7.29 20.0 L 7.58 20.0 L 7.88 20.0 L 8.17 20.0 L 8.46 20.0 L 8.75 20.0 L 9.04 20.0 L 9.33 20.0 L 9.62 20.0 L 9.92 20.0 L 10.21 20.0 L 10.5 20.0 L 10.79 20.0 L 11.08 20.0 L 11.38 20.0 L 11.67 20.0 L 11.96 20.0 L 12.25 20.0 L 12.54 20.0 L 12.83 20.0 L 13.12 20.0 L 13.42 20.0 L 13.71 20.0 L 14.0 20.0" fill="none" stroke="#111" stroke-width="1.19" stroke-linecap="round" stroke-linejoin="round"/>
<path d="M 10.0 13.0 L 10.33 13.38 L 10.67 13.75 L 11.0 14.12 L 11.33 14.5 L 11.67 14.88 L 12.0 15.25 L 12.33 15.62 L 12.67 16.0 L 13.0 16.38 L 13.33 16.75 L 13.67 17.12 L 14.0 17.5 L 14.33 17.88 L 14.67 18.25 L 15.0 18.62 L 15.33 19.0 L 15.67 19.38 L 16.0 19.75 L 16.33 20.12 L 16.67 20.5 L 17.0 20.88 L 17.33 21.25 L 17.67 21.62 L 18.0 22.0" fill="none" stroke="#111" stroke-width="1.19" stroke-linecap="round" stroke-linejoin="round"/>
<path d="M 18.0 22.0 L 18.11 22.34 L 18.2 22.69 L 18.28 23.04 L 18.34 23.39 L 18.38 23.75 L 18.4 24.11 L 18.41 24.46 L 18.4 24.82 L 18.37 25.18 L 18.33 25.54 L 18.27 25.89 L 18.19 26.24 L 18.09 26.58 L 17.98 26.93 L 17.85 27.26 L 17.71 27.59 L 17.55 27.91 L 17.37 28.22 L 17.18 28.53 L 16.98 28.82 L 16.76 29.1 L 16.53 29.38 L 16.28 29.64 L 16.03 29.89 L 16.0 30.0 L 15.59 29.76 L 15.2 29.5 L 14.83 29.21 L 14.49 28.89 L 14.16 28.54 L 13.87 28.18 L 13.6 27.79 L 13.36 27.38 L 13.15 26.96 L 12.98 26.52 L 12.84 26.07 L 12.73 25.61 L 12.65 25.15 L 12.61 24.68 L 12.6 24.21 L 12.63 23.74 L 12.7 23.27 L 12.8 22.81 L 12.93 22.36 L 13.09 21.92 L 13.29 21.49 L 13.52 21.07 L 13.77 20.68 L 14.06 20.31" fill="none" stroke="#111" stroke-width="1.19" stroke-linecap="round" stroke-linejoin="round"/>
<path d="M 13.0 20.0 L 13.12 20.0 L 13.25 20.0 L 13.38 20.0 L 13.5 20.0 L 13.62 20.0 L 13.75 20.0 L 13.88 20.0 L 14.0 20.0 L 14.12 20.0 L 14.25 20.0 L 14.38 20.0 L 14.5 20.0 L 14.62 20.0 L 14.75 20.0 L 14.88 20.0 L 15.0 20.0 L 15.12 20.0 L 15.25 20.0 L 15.38 20.0 L 15.5 20.0 L 15.62 20.0 L 15.75 20.0 L 15.88 20.0 L 16.0 20.0" fill="none" stroke="#111" stroke-width="1.19" stroke-linecap="round" stroke-linejoin="round"/>
</svg>
