<?xml version="1.0" encoding="UTF-8"?>
<svg xmlns="http://www.w3.org/2000/svg" viewBox="0 0 25.00 36.73">
<path d="M 10.0 4.0 L 10.33 4.12 L 10.67 4.25 L 11.0 4.38 L 11.33 4.5 L 11.67 4.62 L 12.0 4.75 L 12.33 4.88 L 12.67 5.0 L 13.0 5.12 L 13.33 5.25 L 13.67 5.38 L 14.0 5.5 L 14.33 5.62 L 14.67 5.75 L 15.0 5.88 L 15.33 6.0 L 15.67 6.12 L 16.0 6.25 L 16.33 6.38 L 16.67 6.5 L 17.0 6.62 L 17.33 6.75 L 17.67 6.88 L 18.0 7.0 L 18.0 7.0 L 18.04 7.76 L 18.03 8.51 L 17.96 9.27 L 17.83 10.01 L 17.64 10.74 L 17.4 11.46 L 17.1 12.16 L 16.75 12.83 L 16.35 13.47 L 15.9 14.08 L 15.4 14.65 L 14.87 15.18 L 14.29 15.67 L 13.68 16.12 L 13.03 16.51 L 12.36 16.85 L 11.66 17.14 L 10.94 17.38 L 10.2 17.56 L 9.46 17.68 L 8.7 17.75 L 7.95 17.76 L 7.19 17.7 L 6.44 17.59" fill="none" stroke="#111" stroke-width="1.29" stroke-linecap="round" stroke-linejoin="round"/>
<path d="M 9.0 23.0 L 9.5 22.96 L 10.0 22.92 L 10.5 22.88 L 11.0 22.83 L 11.5 22.79 L 12.0 22.75 L 12.5 22.71 L 13.0 22.67 L 13.5 22.62 L 14.0 22.58 L 14.5 22.54 L 15.0 22.5 L 15.5 22.46 L 16.0 22.42 L 16.5 22.38 L 17.0 22.33 L 17.5 22.29 L 18.0 22.25 L 18.5 22.21 L 19.0 22.17 L 19.5 22.12 L 20.0 22.08 L 20.5 22.04 L 21.0 22.0" fill="none" stroke="#111" stroke-width="1.29" stroke-linecap="round" stroke-linejoin="round"/>
<path d="M 13.0 17.0 L 12.82 17.75 L 12.69 18.51 L 12.6 19.28 L 12.55 20.05 L 12.54 20.82 L 12.58 21.59 L 12.66 22.36 L 12.78 23.12 L 12.95 23.88 L 13.16 24.62 L 13.4 25.35 L 13.69 26.07 L 14.02 26.77 L 14.39 27.45 L 14.8 28.1 L 15.24 28.74 L 15.71 29.34 L 16.22 29.92 L 16.76 30.48 L 17.34 30.99 L 17.93 31.48 L 18.56 31.93 L 19.21 32.35 L 19.88 32.73" fill="none" stroke="#111" stroke-width="1.29" stroke-linecap="round" stroke-linejoin="round"/>
<path d="M 10.0 8.0 L 10.0 8.21 L 10.0 8.42 L 10.0 8.62 L 10.0 8.83 L 10.0 9.04 L 10.0 9.25 L 10.0 9.46 L 10.0 9.67 L 10.0 9.88 L 10.0 10.08 L 10.0 10.29 L 10.0 10.5 L 10.0 10.71 L 10.0 10.92 L 10.0 11.12 L 10.0 11.33 L 10.0 11.54 L 10.0 11.75 L 10.0 11.96 L 10.0 12.17 L 10.0 12.38 L 10.0 12.58 L 10.0 12.79 L 10.0 13.0" fill="none" stroke="#111" stroke-width="1.29" stroke-linecap="round" stroke-linejoin="round"/>
<path d="M 4.0 22.0 L 4.04 22.21 L 4.08 22.42 L 4.12 22.62 L 4.17 22.83 L 4.21 23.04 L 4.25 23.25 L 4.29 23.46 L 4.33 23.67 L 4.38 23.88 L 4.42 24.08 L 4.46 24.29 L 4.5 24.5 L 4.54 24.71 L 4.58 24.92 L 4.62 25.12 L 4.67 25.33 L 4.71 25.54 L 4.75 25.75 L 4.79 25.96 L 4.83 26.17 L 4.88 26.38 L 4.92 26.58 L 4.96 26.79 L 5.0 27.0" fill="none" stroke="#111" stroke-width="1.29" stroke-linecap="round" stroke-linejoin="round"/>
<path d="M 16.0 16.0 L 16.08 16.12 L 16.17 16.25 L 16.25 16.38 L 16.33 16.5 L 16.42 16.62 L 16.5 16.75 L 16.58 16.88 L 16.67 17.0 L 16.75 17.12 L 16.83 17.25 L 16.92 17.38 L 17.0 17.5 L 17.08 17.62 L 17.17 17.75 L 17.25 17.88 L 17.33 18.0 L 17.42 18.12 L 17.5 18.25 L 17.58 18.38 L 17.67 18.5 L 17.75 18.62 L 17.83 18.75 L 17.92 18.88 L 18.0 19.0" fill="none" stroke="#111" stroke-width="1.29" stroke-linecap="round" stroke-linejoin="round"/>
</svg>
