<?xml version="1.0" encoding="UTF-8"?>
<svg xmlns="http://www.w3.org/2000/svg" viewBox="0 0 28.02 33.82">
<path d="M 8.0 4.0 L 8.04 4.62 L 8.08 5.25 L 8.12 5.88 L 8.17 6.5 L 8.21 7.12 L 8.25 7.75 L 8.29 8.38 L 8.33 9.0 L 8.38 9.62 L 8.42 10.25 L 8.46 10.88 L 8.5 11.5 L 8.54 12.12 L 8.58 12.75 L 8.62 13.37 L 8.67 14.0 L 8.71 14.62 L 8.75 15.25 L 8.79 15.88 L 8.83 16.5 L 8.88 17.12 L 8.92 17.75 L 8.96 18.38 L 9.0 19.0" fill="none" stroke="#111" stroke-width="1.18" stroke-linecap="round" stroke-linejoin="round"/>
<path d="M 5.0 18.0 L 4.61 17.22 L 4.36 16.38 L 4.27 15.51 L 4.33 14.64 L 4.54 13.79 L 4.9 12.99 L 5.39 12.27 L 6.0 11.65 L 6.71 11.14 L 7.5 10.77 L 8.35 10.54 L 9.22 10.46 L 10.09 10.54 L 10.93 10.77 L 11.72 11.14 L 12.43 11.65 L 13.05 12.27 L 13.54 12.99 L 13.9 13.79 L 14.11 14.64 L 14.17 15.51 L 14.07 16.38 L 13.83 17.22 L 13.44 18.0" fill="none" stroke="#111" stroke-width="1.18" stroke-linecap="round" stroke-linejoin="round"/>
<path d="M 6.0 6.0 L 5.92 6.21 L 5.83 6.42 L 5.75 6.62 L 5.67 6.83 L 5.58 7.04 L 5.5 7.25 L 5.42 7.46 L 5.33 7.67 L 5.25 7.88 L 5.17 8.08 L 5.08 8.29 L 5.0 8.5 L 4.92 8.71 L 4.83 8.92 L 4.75 9.12 L 4.67 9.33 L 4.58 9.54 L 4.5 9.75 L 4.42 9.96 L 4.33 10.17 L 4.25 10.38 L 4.17 10.58 L 4.08 10.79 L 4.0 11.0" fill="none" stroke="#111" stroke-width="1.18" stroke-linecap="round" stroke-linejoin="round"/>
<path d="M 10.0 5.0 L 10.08 5.12 L 10.17 5.25 L 10.25 5.38 L 10.33 5.5 L 10.42 5.62 L 10.5 5.75 L 10.58 5.88 L 10.67 6.0 L 10.75 6.12 L 10.83 6.25 L 10.92 6.38 L 11.0 6.5 L 11.08 6.62 L 11.17 6.75 L 11.25 6.88 L 11.33 7.0 L 11.42 7.12 L 11.5 7.25 L 11.58 7.38 L 11.67 7.5 L 11.75 7.62 L 11.83 7.75 L 11.92 7.88 L 12.0 8.0" fill="none" stroke="#111" stroke-width="1.18" stroke-linecap="round" stroke-linejoin="round"/>
<path d="M 15.0 9.0 L 15.04 9.42 L 15.08 9.83 L 15.12 10.25 L 15.17 10.67 L 15.21 11.08 L 15.25 11.5 L 15.29 11.92 L 15.33 12.33 L 15.38 12.75 L 15.42 13.17 L 15.46 13.58 L 15.5 14.0 L 15.54 14.42 L 15.58 14.83 L 15.62 15.25 L 15.67 15.67 L 15.71 16.08 L 15.75 16.5 L 15.79 16.92 L 15.83 17.33 L 15.88 17.75 L 15.92 18.17 L 15.96 18.58 L 16.0 19.0" fill="none" stroke="#111" stroke-width="1.18" stroke-linecap="round" stroke-linejoin="round"/>
<path d="M 19.0 13.0 L 19.17 13.21 L 19.33 13.42 L 19.5 13.62 L 19.67 13.83 L 19.83 14.04 L 20.0 14.25 L 20.17 14.46 L 20.33 14.67 L 20.5 14.88 L 20.67 15.08 L 20.83 15.29 L 21.0 15.5 L 21.17 15.71 L 21.33 15.92 L 21.5 16.12 L 21.67 16.33 L 21.83 16.54 L 22.0 16.75 L 22.17 16.96 L 22.33 17.17 L 22.5 17.38 L 22.67 17.58 L 22.83 17.79 L 23.0 18.0 L 23.0 18.0 L 22.67 18.25 L 22.33 18.5 L 22.0 18.75 L 21.67 19.0 L 21.33 19.25 L 21.0 19.5 L 20.67 19.75 L 20.33 20.0 L 20.0 20.25 L 19.67 20.5 L 19.33 20.75 L 19.0 21.0 L 18.67 21.25 L 18.33 21.5 L 18.0 21.75 L 17.67 22.0 L 17.33 22.25 L 17.0 22.5 L 16.67 22.75 L 16.33 23.0 L 16.0 23.25 L 15.67 23.5 L 15.33 23.75 L 15.0 24.0" fill="none" stroke="#111" stroke-width="1.18" stroke-linecap="round" stroke-linejoin="round"/>
<path d="M 18.0 17.0 L 18.51 17.35 L 19.0 17.73 L 19.48 18.12 L 19.94 18.54 L 20.37 18.98 L 20.79 19.44 L 21.18 19.92 L 21.55 20.42 L 21.9 20.93 L 22.22 21.46 L 22.52 22.01 L 22.79 22.56 L 23.04 23.13 L 23.26 23.71 L 23.45 24.3 L 23.62 24.9 L 23.75 25.5 L 23.86 26.11 L 23.94 26.73 L 24.0 27.34 L 24.02 27.96 L 24.01 28.58 L 23.98 29.2 L 23.92 29.82" fill="none" stroke="#111" stroke-width="1.18" stroke-linecap="round" stroke-linejoin="round"/>
</svg>
