<?xml version="1.0" encoding="UTF-8"?>
<svg xmlns="http://www.w3.org/2000/svg" viewBox="0 0 25.00 41.00">
<path d="M 12.0 4.0 L 12.0 5.38 L 12.0 6.75 L 12.0 8.12 L 12.0 9.5 L 12.0 10.88 L 12.0 12.25 L 12.0 13.62 L 12.0 15.0 L 12.0 16.38 L 12.0 17.75 L 12.0 19.12 L 12.0 20.5 L 12.0 21.88 L 12.0 23.25 L 12.0 24.62 L 12.0 26.0 L 12.0 27.38 L 12.0 28.75 L 12.0 30.12 L 12.0 31.5 L 12.0 32.88 L 12.0 34.25 L 12.0 35.62 L 12.0 37.0" fill="none" stroke="#111" stroke-width="1.44" stroke-linecap="round" stroke-linejoin="round"/>
<path d="M 4.0 15.0 L 4.33 15.33 L 4.67 15.67 L 5.0 16.0 L 5.33 16.33 L 5.67 16.67 L 6.0 17.0 L 6.33 17.33 L 6.67 17.67 L 7.0 18.0 L 7.33 18.33 L 7.67 18.67 L 8.0 19.0 L 8.33 19.33 L 8.67 19.67 L 9.0 20.0 L 9.33 20.33 L 9.67 20.67 L 10.0 21.0 L 10.33 21.33 L 10.67 21.67 L 11.0 22.0 L 11.33 22.33 L 11.67 22.67 L 12.0 23.0" fill="none" stroke="#111" stroke-width="1.44" stroke-linecap="round" stroke-linejoin="round"/>
<path d="M 21.0 15.0 L 20.62 15.33 L 20.25 15.67 L 19.88 16.0 L 19.5 16.33 L 19.12 16.67 L 18.75 17.0 L 18.38 17.33 L 18.0 17.67 L 17.62 18.0 L 17.25 18.33 L 16.88 18.67 L 16.5 19.0 L 16.12 19.33 L 15.75 19.67 L 15.38 20.0 L 15.0 20.33 L 14.62 20.67 L 14.25 21.0 L 13.88 21.33 L 13.5 21.67 L 13.12 22.0 L 12.75 22.33 L 12.38 22.67 L 12.0 23.0" fill="none" stroke="#111" stroke-width="1.44" stroke-linecap="round" stroke-linejoin="round"/>
</svg>
