<?xml version="1.0" encoding="UTF-8"?>
<svg xmlns="http://www.w3.org/2000/svg" viewBox="0 0 26.20 45.92">
<path d="M 14.2 4.0 L 12.93 4.17 L 11.7 4.49 L 10.5 4.95 L 9.37 5.54 L 8.32 6.26 L 7.35 7.1 L 6.49 8.04 L 5.74 9.07 L 5.12 10.18 L 4.62 11.36 L 4.27 12.59 L 4.06 13.85 L 4.0 15.13 L 4.08 16.4 L 4.32 17.66 L 4.69 18.88 L 5.2 20.05 L 5.85 21.15 L 6.61 22.17 L 7.49 23.1 L 8.47 23.91 L 9.54 24.61 L 10.68 25.19 L 11.88 25.62" fill="none" stroke="#111" stroke-width="1.61" stroke-linecap="round" stroke-linejoin="round"/>
<path d="M 11.2 32.0 L 11.91 31.95 L 12.62 32.0 L 13.31 32.15 L 13.98 32.4 L 14.6 32.74 L 15.17 33.17 L 15.68 33.67 L 16.1 34.24 L 16.45 34.86 L 16.69 35.53 L 16.85 36.23 L 16.9 36.94 L 16.85 37.64 L 16.69 38.34 L 16.45 39.01 L 16.1 39.63 L 15.68 40.2 L 15.17 40.7 L 14.6 41.13 L 13.98 41.47 L 13.31 41.72 L 12.62 41.87 L 11.91 41.92 L 11.2 41.87" fill="none" stroke="#111" stroke-width="1.61" stroke-linecap="round" stroke-linejoin="round"/>
<path d="M 9.2 9.0 L 9.57 8.88 L 9.95 8.75 L 10.32 8.62 L 10.7 8.5 L 11.07 8.38 L 11.45 8.25 L 11.82 8.12 L 12.2 8.0 L 12.57 7.88 L 12.95 7.75 L 13.32 7.62 L 13.7 7.5 L 14.07 7.38 L 14.45 7.25 L 14.82 7.12 L 15.2 7.0 L 15.57 6.88 L 15.95 6.75 L 16.32 6.62 L 16.7 6.5 L 17.07 6.38 L 17.45 6.25 L 17.82 6.12 L 18.2 6.0" fill="none" stroke="#111" stroke-width="1.61" stroke-linecap="round" stroke-linejoin="round"/>
<path d="M 9.2 15.0 L 9.66 14.79 L 10.11 14.58 L 10.57 14.38 L 11.03 14.17 L 11.49 13.96 L 11.95 13.75 L 12.41 13.54 L 12.86 13.33 L 13.32 13.12 L 13.78 12.92 L 14.24 12.71 L 14.7 12.5 L 15.16 12.29 L 15.61 12.08 L 16.07 11.88 L 16.53 11.67 L 16.99 11.46 L 17.45 11.25 L 17.91 11.04 L 18.36 10.83 L 18.82 10.62 L 19.28 10.42 L 19.74 10.21 L 20.2 10.0 L 20.2 10.0 L 20.28 10.29 L 20.36 10.58 L 20.45 10.88 L 20.53 11.17 L 20.61 11.46 L 20.7 11.75 L 20.78 12.04 L 20.86 12.33 L 20.95 12.62 L 21.03 12.92 L 21.11 13.21 L 21.2 13.5 L 21.28 13.79 L 21.36 14.08 L 21.45 14.38 L 21.53 14.67 L 21.61 14.96 L 21.7 15.25 L 21.78 15.54 L 21.86 15.83 L 21.95 16.12 L 22.03 16.42 L 22.11 16.71 L 22.2 17.0" fill="none" stroke="#111" stroke-width="1.61" stroke-linecap="round" stroke-linejoin="round"/>
<path d="M 9.2 15.0 L 9.24 15.38 L 9.28 15.75 L 9.32 16.12 L 9.36 16.5 L 9.41 16.88 L 9.45 17.25 L 9.49 17.62 L 9.53 18.0 L 9.57 18.38 L 9.61 18.75 L 9.66 19.12 L 9.7 19.5 L 9.74 19.88 L 9.78 20.25 L 9.82 20.62 L 9.86 21.0 L 9.91 21.38 L 9.95 21.75 L 9.99 22.12 L 10.03 22.5 L 10.07 22.88 L 10.11 23.25 L 10.16 23.62 L 10.2 24.0" fill="none" stroke="#111" stroke-width="1.61" stroke-linecap="round" stroke-linejoin="round"/>
<path d="M 7.2 25.0 L 7.33 24.23 L 7.52 23.48 L 7.77 22.74 L 8.08 22.03 L 8.44 21.34 L 8.86 20.68 L 9.33 20.06 L 9.84 19.48 L 10.4 18.94 L 11.0 18.44 L 11.64 18.0 L 12.31 17.6 L 13.01 17.26 L 13.74 16.98 L 14.48 16.76 L 15.24 16.59 L 16.02 16.49 L 16.79 16.45 L 17.57 16.47 L 18.34 16.55 L 19.11 16.69 L 19.86 16.9 L 20.59 17.16 L 21.3 17.48" fill="none" stroke="#111" stroke-width="1.61" stroke-linecap="round" stroke-linejoin="round"/>
<path d="M 12.2 16.0 L 12.2 16.08 L 12.2 16.17 L 12.2 16.25 L 12.2 16.33 L 12.2 16.42 L 12.2 16.5 L 12.2 16.58 L 12.2 16.67 L 12.2 16.75 L 12.2 16.83 L 12.2 16.92 L 12.2 17.0 L 12.2 17.08 L 12.2 17.17 L 12.2 17.25 L 12.2 17.33 L 12.2 17.42 L 12.2 17.5 L 12.2 17.58 L 12.2 17.67 L 12.2 17.75 L 12.2 17.83 L 12.2 17.92 L 12.2 18.0" fill="none" stroke="#111" stroke-width="1.61" stroke-linecap="round" stroke-linejoin="round"/>
<path d="M 17.2 13.0 L 17.24 13.12 L 17.28 13.25 L 17.32 13.38 L 17.36 13.5 L 17.41 13.62 L 17.45 13.75 L 17.49 13.88 L 17.53 14.0 L 17.57 14.12 L 17.61 14.25 L 17.66 14.38 L 17.7 14.5 L 17.74 14.62 L 17.78 14.75 L 17.82 14.88 L 17.86 15.0 L 17.91 15.12 L 17.95 15.25 L 17.99 15.38 L 18.03 15.5 L 18.07 15.62 L 18.11 15.75 L 18.16 15.88 L 18.2 16.0" fill="none" stroke="#111" stroke-width="1.61" stroke-linecap="round" stroke-linejoin="round"/>
</svg>
