<?xml version="1.0" encoding="UTF-8"?>
<svg xmlns="http://www.w3.org/2000/svg" viewBox="0 0 25.00 35.62">
<path d="M 12.0 4.0 L 12.44 4.4 L 12.85 4.84 L 13.23 5.3 L 13.58 5.79 L 13.89 6.31 L 14.16 6.84 L 14.39 7.39 L 14.58 7.96 L 14.73 8.54 L 14.84 9.13 L 14.9 9.72 L 14.92 10.32 L 14.9 10.92 L 14.84 11.52 L 14.73 12.11 L 14.58 12.69 L 14.39 13.25 L 14.16 13.81 L 13.89 14.34 L 13.58 14.85 L 13.23 15.34 L 12.85 15.81 L 12.44 16.24 L 12.0 16.65 L 12.0 17.0 L 11.92 17.46 L 11.83 17.92 L 11.75 18.38 L 11.67 18.83 L 11.58 19.29 L 11.5 19.75 L 11.42 20.21 L 11.33 20.67 L 11.25 21.12 L 11.17 21.58 L 11.08 22.04 L 11.0 22.5 L 10.92 22.96 L 10.83 23.42 L 10.75 23.88 L 10.67 24.33 L 10.58 24.79 L 10.5 25.25 L 10.42 25.71 L 10.33 26.17 L 10.25 26.62 L 10.17 27.08 L 10.08 27.54 L 10.0 28.0" fill="none" stroke="#111" stroke-width="1.25" stroke-linecap="round" stroke-linejoin="round"/>
<path d="M 13.0 7.0 L 12.87 7.17 L 12.75 7.33 L 12.62 7.5 L 12.5 7.67 L 12.37 7.83 L 12.25 8.0 L 12.12 8.17 L 12.0 8.33 L 11.87 8.5 L 11.75 8.67 L 11.62 8.83 L 11.5 9.0 L 11.37 9.17 L 11.25 9.33 L 11.12 9.5 L 11.0 9.67 L 10.87 9.83 L 10.75 10.0 L 10.62 10.17 L 10.5 10.33 L 10.37 10.5 L 10.25 10.67 L 10.12 10.83 L 10.0 11.0" fill="none" stroke="#111" stroke-width="1.25" stroke-linecap="round" stroke-linejoin="round"/>
<path d="M 11.0 21.0 L 11.29 20.79 L 11.58 20.58 L 11.87 20.38 L 12.17 20.17 L 12.46 19.96 L 12.75 19.75 L 13.04 19.54 L 13.33 19.33 L 13.62 19.12 L 13.92 18.92 L 14.21 18.71 L 14.5 18.5 L 14.79 18.29 L 15.08 18.08 L 15.37 17.88 L 15.67 17.67 L 15.96 17.46 L 16.25 17.25 L 16.54 17.04 L 16.83 16.83 L 17.12 16.62 L 17.42 16.42 L 17.71 16.21 L 18.0 16.0" fill="none" stroke="#111" stroke-width="1.25" stroke-linecap="round" stroke-linejoin="round"/>
<path d="M 13.0 20.0 L 13.17 20.12 L 13.33 20.25 L 13.5 20.38 L 13.67 20.5 L 13.83 20.62 L 14.0 20.75 L 14.17 20.88 L 14.33 21.0 L 14.5 21.12 L 14.67 21.25 L 14.83 21.38 L 15.0 21.5 L 15.17 21.62 L 15.33 21.75 L 15.5 21.88 L 15.67 22.0 L 15.83 22.12 L 16.0 22.25 L 16.17 22.38 L 16.33 22.5 L 16.5 22.62 L 16.67 22.75 L 16.83 22.88 L 17.0 23.0 L 17.0 23.0 L 17.0 22.75 L 17.0 22.5 L 17.0 22.25 L 17.0 22.0 L 17.0 21.75 L 17.0 21.5 L 17.0 21.25 L 17.0 21.0 L 17.0 20.75 L 17.0 20.5 L 17.0 20.25 L 17.0 20.0 L 17.0 19.75 L 17.0 19.5 L 17.0 19.25 L 17.0 19.0 L 17.0 18.75 L 17.0 18.5 L 17.0 18.25 L 17.0 18.0 L 17.0 17.75 L 17.0 17.5 L 17.0 17.25 L 17.0 17.0" fill="none" stroke="#111" stroke-width="1.25" stroke-linecap="round" stroke-linejoin="round"/>
<path d="M 13.0 25.0 L 13.33 24.79 L 13.67 24.58 L 14.0 24.38 L 14.33 24.17 L 14.67 23.96 L 15.0 23.75 L 15.33 23.54 L 15.67 23.33 L 16.0 23.12 L 16.33 22.92 L 16.67 22.71 L 17.0 22.5 L 17.33 22.29 L 17.67 22.08 L 18.0 21.88 L 18.33 21.67 L 18.67 21.46 L 19.0 21.25 L 19.33 21.04 L 19.67 20.83 L 20.0 20.62 L 20.33 20.42 L 20.67 20.21 L 21.0 20.0" fill="none" stroke="#111" stroke-width="1.25" stroke-linecap="round" stroke-linejoin="round"/>
<path d="M 17.0 22.0 L 17.35 22.38 L 17.66 22.78 L 17.93 23.22 L 18.16 23.67 L 18.35 24.15 L 18.5 24.64 L 18.6 25.14 L 18.66 25.65 L 18.67 26.16 L 18.64 26.67 L 18.56 27.17 L 18.43 27.67 L 18.26 28.15 L 18.05 28.62 L 17.8 29.06 L 17.51 29.48 L 17.18 29.88 L 16.82 30.24 L 16.43 30.57 L 16.01 30.86 L 15.56 31.11 L 15.09 31.32 L 14.61 31.49 L 14.12 31.62" fill="none" stroke="#111" stroke-width="1.25" stroke-linecap="round" stroke-linejoin="round"/>
<path d="M 8.0 6.0 L 7.87 6.33 L 7.75 6.67 L 7.62 7.0 L 7.5 7.33 L 7.37 7.67 L 7.25 8.0 L 7.12 8.33 L 7.0 8.67 L 6.87 9.0 L 6.75 9.33 L 6.62 9.67 L 6.5 10.0 L 6.37 10.33 L 6.25 10.67 L 6.12 11.0 L 6.0 11.33 L 5.87 11.67 L 5.75 12.0 L 5.62 12.33 L 5.5 12.67 L 5.37 13.0 L 5.25 13.33 L 5.12 13.67 L 5.0 14.0" fill="none" stroke="#111" stroke-width="1.25" stroke-linecap="round" stroke-linejoin="round"/>
<path d="M 8.0 19.0 L 7.83 19.25 L 7.67 19.5 L 7.5 19.75 L 7.33 20.0 L 7.17 20.25 L 7.0 20.5 L 6.83 20.75 L 6.67 21.0 L 6.5 21.25 L 6.33 21.5 L 6.17 21.75 L 6.0 22.0 L 5.83 22.25 L 5.67 22.5 L 5.5 22.75 L 5.33 23.0 L 5.17 23.25 L 5.0 23.5 L 4.83 23.75 L 4.67 24.0 L 4.5 24.25 L 4.33 24.5 L 4.17 24.75 L 4.0 25.0" fill="none" stroke="#111" stroke-width="1.25" stroke-linecap="round" stroke-linejoin="round"/>
<path d="M 7.0 21.0 L 7.0 21.38 L 7.0 21.75 L 7.0 22.12 L 7.0 22.5 L 7.0 22.88 L 7.0 23.25 L 7.0 23.62 L 7.0 24.0 L 7.0 24.38 L 7.0 24.75 L 7.0 25.12 L 7.0 25.5 L 7.0 25.88 L 7.0 26.25 L 7.0 26.62 L 7.0 27.0 L 7.0 27.38 L 7.0 27.75 L 7.0 28.12 L 7.0 28.5 L 7.0 28.88 L 7.0 29.25 L 7.0 29.62 L 7.0 30.0" fill="none" stroke="#111" stroke-width="1.25" stroke-linecap="round" stroke-linejoin="round"/>
</svg>
