<?xml version="1.0" encoding="UTF-8"?>
<svg xmlns="http://www.w3.org/2000/svg" viewBox="0 0 25.63 40.00">
<path d="M 9.63 4.0 L 9.59 4.54 L 9.55 5.08 L 9.51 5.62 L 9.47 6.17 L 9.42 6.71 L 9.38 7.25 L 9.34 7.79 L 9.3 8.33 L 9.26 8.88 L 9.22 9.42 L 9.17 9.96 L 9.13 10.5 L 9.09 11.04 L 9.05 11.58 L 9.01 12.13 L 8.97 12.67 L 8.92 13.21 L 8.88 13.75 L 8.84 14.29 L 8.8 14.83 L 8.76 15.38 L 8.72 15.92 L 8.67 16.46 L 8.63 17.0" fill="none" stroke="#111" stroke-width="1.40" stroke-linecap="round" stroke-linejoin="round"/>
<path d="M 5.63 8.0 L 5.76 8.17 L 5.88 8.33 L 6.01 8.5 L 6.13 8.67 L 6.26 8.83 L 6.38 9.0 L 6.51 9.17 L 6.63 9.33 L 6.76 9.5 L 6.88 9.67 L 7.01 9.83 L 7.13 10.0 L 7.26 10.17 L 7.38 10.33 L 7.51 10.5 L 7.63 10.67 L 7.76 10.83 L 7.88 11.0 L 8.01 11.17 L 8.13 11.33 L 8.26 11.5 L 8.38 11.67 L 8.51 11.83 L 8.63 12.0" fill="none" stroke="#111" stroke-width="1.40" stroke-linecap="round" stroke-linejoin="round"/>
<path d="M 12.63 6.0 L 12.47 6.25 L 12.3 6.5 L 12.13 6.75 L 11.97 7.0 L 11.8 7.25 L 11.63 7.5 L 11.47 7.75 L 11.3 8.0 L 11.13 8.25 L 10.97 8.5 L 10.8 8.75 L 10.63 9.0 L 10.47 9.25 L 10.3 9.5 L 10.13 9.75 L 9.97 10.0 L 9.8 10.25 L 9.63 10.5 L 9.47 10.75 L 9.3 11.0 L 9.13 11.25 L 8.97 11.5 L 8.8 11.75 L 8.63 12.0" fill="none" stroke="#111" stroke-width="1.40" stroke-linecap="round" stroke-linejoin="round"/>
<path d="M 4.63 18.0 L 5.11 17.7 L 5.63 17.47 L 6.17 17.3 L 6.73 17.2 L 7.29 17.17 L 7.86 17.21 L 8.42 17.31 L 8.95 17.49 L 9.47 17.73 L 9.94 18.04 L 10.38 18.4 L 10.77 18.81 L 11.11 19.27 L 11.38 19.76 L 11.59 20.29 L 11.74 20.83 L 11.82 21.4 L 11.82 21.96 L 11.76 22.52 L 11.63 23.08 L 11.43 23.61 L 11.16 24.11 L 10.84 24.57 L 10.46 24.99" fill="none" stroke="#111" stroke-width="1.40" stroke-linecap="round" stroke-linejoin="round"/>
<path d="M 4.63 18.0 L 4.42 18.36 L 4.25 18.75 L 4.13 19.15 L 4.04 19.56 L 4.0 19.98 L 4.0 20.4 L 4.05 20.82 L 4.14 21.23 L 4.28 21.63 L 4.45 22.01 L 4.67 22.37 L 4.92 22.71 L 5.2 23.02 L 5.52 23.29 L 5.87 23.54 L 6.23 23.74 L 6.62 23.9 L 7.02 24.03 L 7.44 24.11 L 7.86 24.14 L 8.28 24.13 L 8.69 24.08 L 9.1 23.98 L 9.5 23.84" fill="none" stroke="#111" stroke-width="1.40" stroke-linecap="round" stroke-linejoin="round"/>
<path d="M 8.63 24.0 L 8.59 24.42 L 8.55 24.83 L 8.51 25.25 L 8.47 25.67 L 8.42 26.08 L 8.38 26.5 L 8.34 26.92 L 8.3 27.33 L 8.26 27.75 L 8.22 28.17 L 8.17 28.58 L 8.13 29.0 L 8.09 29.42 L 8.05 29.83 L 8.01 30.25 L 7.97 30.67 L 7.92 31.08 L 7.88 31.5 L 7.84 31.92 L 7.8 32.33 L 7.76 32.75 L 7.72 33.17 L 7.67 33.58 L 7.63 34.0" fill="none" stroke="#111" stroke-width="1.40" stroke-linecap="round" stroke-linejoin="round"/>
<path d="M 4.63 26.0 L 4.76 26.12 L 4.88 26.25 L 5.01 26.38 L 5.13 26.5 L 5.26 26.62 L 5.38 26.75 L 5.51 26.88 L 5.63 27.0 L 5.76 27.12 L 5.88 27.25 L 6.01 27.38 L 6.13 27.5 L 6.26 27.62 L 6.38 27.75 L 6.51 27.88 L 6.63 28.0 L 6.76 28.12 L 6.88 28.25 L 7.01 28.38 L 7.13 28.5 L 7.26 28.62 L 7.38 28.75 L 7.51 28.88 L 7.63 29.0" fill="none" stroke="#111" stroke-width="1.40" stroke-linecap="round" stroke-linejoin="round"/>
<path d="M 11.63 25.0 L 11.47 25.17 L 11.3 25.33 L 11.13 25.5 L 10.97 25.67 L 10.8 25.83 L 10.63 26.0 L 10.47 26.17 L 10.3 26.33 L 10.13 26.5 L 9.97 26.67 L 9.8 26.83 L 9.63 27.0 L 9.47 27.17 L 9.3 27.33 L 9.13 27.5 L 8.97 27.67 L 8.8 27.83 L 8.63 28.0 L 8.47 28.17 L 8.3 28.33 L 8.13 28.5 L 7.97 28.67 L 7.8 28.83 L 7.63 29.0" fill="none" stroke="#111" stroke-width="1.40" stroke-linecap="round" stroke-linejoin="round"/>
<path d="M 12.63 11.0 L 13.09 11.69 L 13.52 12.4 L 13.91 13.14 L 14.26 13.89 L 14.57 14.66 L 14.84 15.45 L 15.07 16.25 L 15.26 17.06 L 15.41 17.87 L 15.52 18.7 L 15.58 19.53 L 15.6 20.36 L 15.58 21.19 L 15.52 22.02 L 15.41 22.84 L 15.26 23.66 L 15.07 24.47 L 14.84 25.27 L 14.57 26.05 L 14.26 26.82 L 13.91 27.58 L 13.52 28.31 L 13.09 29.02 L 12.63 29.71" fill="none" stroke="#111" stroke-width="1.40" stroke-linecap="round" stroke-linejoin="round"/>
<path d="M 17.63 7.0 L 17.63 7.5 L 17.63 8.0 L 17.63 8.5 L 17.63 9.0 L 17.63 9.5 L 17.63 10.0 L 17.63 10.5 L 17.63 11.0 L 17.63 11.5 L 17.63 12.0 L 17.63 12.5 L 17.63 13.0 L 17.63 13.5 L 17.63 14.0 L 17.63 14.5 L 17.63 15.0 L 17.63 15.5 L 17.63 16.0 L 17.63 16.5 L 17.63 17.0 L 17.63 17.5 L 17.63 18.0 L 17.63 18.5 L 17.63 19.0" fill="none" stroke="#111" stroke-width="1.40" stroke-linecap="round" stroke-linejoin="round"/>
<path d="M 14.63 10.0 L 14.76 10.17 L 14.88 10.33 L 15.01 10.5 L 15.13 10.67 L 15.26 10.83 L 15.38 11.0 L 15.51 11.17 L 15.63 11.33 L 15.76 11.5 L 15.88 11.67 L 16.01 11.83 L 16.13 12.0 L 16.26 12.17 L 16.38 12.33 L 16.51 12.5 L 16.63 12.67 L 16.76 12.83 L 16.88 13.0 L 17.01 13.17 L 17.13 13.33 L 17.26 13.5 L 17.38 13.67 L 17.51 13.83 L 17.63 14.0" fill="none" stroke="#111" stroke-width="1.40" stroke-linecap="round" stroke-linejoin="round"/>
<path d="M 20.63 10.0 L 20.51 10.17 L 20.38 10.33 L 20.26 10.5 L 20.13 10.67 L 20.01 10.83 L 19.88 11.0 L 19.76 11.17 L 19.63 11.33 L 19.51 11.5 L 19.38 11.67 L 19.26 11.83 L 19.13 12.0 L 19.01 12.17 L 18.88 12.33 L 18.76 12.5 L 18.63 12.67 L 18.51 12.83 L 18.38 13.0 L 18.26 13.17 L 18.13 13.33 L 18.01 13.5 L 17.88 13.67 L 17.76 13.83 L 17.63 14.0" fill="none" stroke="#111" stroke-width="1.40" stroke-linecap="round" stroke-linejoin="round"/>
<path d="M 17.63 25.0 L 17.63 25.46 L 17.63 25.92 L 17.63 26.38 L 17.63 26.83 L 17.63 27.29 L 17.63 27.75 L 17.63 28.21 L 17.63 28.67 L 17.63 29.12 L 17.63 29.58 L 17.63 30.04 L 17.63 30.5 L 17.63 30.96 L 17.63 31.42 L 17.63 31.88 L 17.63 32.33 L 17.63 32.79 L 17.63 33.25 L 17.63 33.71 L 17.63 34.17 L 17.63 34.62 L 17.63 35.08 L 17.63 35.54 L 17.63 36.0" fill="none" stroke="#111" stroke-width="1.40" stroke-linecap="round" stroke-linejoin="round"/>
<path d="M 14.63 28.0 L 14.76 28.12 L 14.88 28.25 L 15.01 28.38 L 15.13 28.5 L 15.26 28.62 L 15.38 28.75 L 15.51 28.88 L 15.63 29.0 L 15.76 29.12 L 15.88 29.25 L 16.01 29.38 L 16.13 29.5 L 16.26 29.62 L 16.38 29.75 L 16.51 29.88 L 16.63 30.0 L 16.76 30.12 L 16.88 30.25 L 17.01 30.38 L 17.13 30.5 L 17.26 30.62 L 17.38 30.75 L 17.51 30.88 L 17.63 31.0" fill="none" stroke="#111" stroke-width="1.40" stroke-linecap="round" stroke-linejoin="round"/>
<path d="M 21.63 25.0 L 21.47 25.25 L 21.3 25.5 L 21.13 25.75 L 20.97 26.0 L 20.8 26.25 L 20.63 26.5 L 20.47 26.75 L 20.3 27.0 L 20.13 27.25 L 19.97 27.5 L 19.8 27.75 L 19.63 28.0 L 19.47 28.25 L 19.3 28.5 L 19.13 28.75 L 18.97 29.0 L 18.8 29.25 L 18.63 29.5 L 18.47 29.75 L 18.3 30.0 L 18.13 30.25 L 17.97 30.5 L 17.8 30.75 L 17.63 31.0" fill="none" stroke="#111" stroke-width="1.40" stroke-linecap="round" stroke-linejoin="round"/>
</svg>
