<?xml version="1.0" encoding="UTF-8"?>
<svg xmlns="http://www.w3.org/2000/svg" viewBox="0 0 20.00 35.00">
<path d="M 10.0 4.0 L 9.75 4.21 L 9.5 4.42 L 9.25 4.62 L 9.0 4.83 L 8.75 5.04 L 8.5 5.25 L 8.25 5.46 L 8.0 5.67 L 7.75 5.88 L 7.5 6.08 L 7.25 6.29 L 7.0 6.5 L 6.75 6.71 L 6.5 6.92 L 6.25 7.12 L 6.0 7.33 L 5.75 7.54 L 5.5 7.75 L 5.25 7.96 L 5.0 8.17 L 4.75 8.38 L 4.5 8.58 L 4.25 8.79 L 4.0 9.0" fill="none" stroke="#111" stroke-width="1.23" stroke-linecap="round" stroke-linejoin="round"/>
<path d="M 4.0 9.0 L 4.0 9.54 L 4.0 10.08 L 4.0 10.62 L 4.0 11.17 L 4.0 11.71 L 4.0 12.25 L 4.0 12.79 L 4.0 13.33 L 4.0 13.88 L 4.0 14.42 L 4.0 14.96 L 4.0 15.5 L 4.0 16.04 L 4.0 16.58 L 4.0 17.12 L 4.0 17.67 L 4.0 18.21 L 4.0 18.75 L 4.0 19.29 L 4.0 19.83 L 4.0 20.38 L 4.0 20.92 L 4.0 21.46 L 4.0 22.0" fill="none" stroke="#111" stroke-width="1.23" stroke-linecap="round" stroke-linejoin="round"/>
<path d="M 10.0 4.0 L 10.25 4.21 L 10.5 4.42 L 10.75 4.62 L 11.0 4.83 L 11.25 5.04 L 11.5 5.25 L 11.75 5.46 L 12.0 5.67 L 12.25 5.88 L 12.5 6.08 L 12.75 6.29 L 13.0 6.5 L 13.25 6.71 L 13.5 6.92 L 13.75 7.12 L 14.0 7.33 L 14.25 7.54 L 14.5 7.75 L 14.75 7.96 L 15.0 8.17 L 15.25 8.38 L 15.5 8.58 L 15.75 8.79 L 16.0 9.0" fill="none" stroke="#111" stroke-width="1.23" stroke-linecap="round" stroke-linejoin="round"/>
<path d="M 16.0 9.0 L 16.0 9.62 L 16.0 10.25 L 16.0 10.88 L 16.0 11.5 L 16.0 12.12 L 16.0 12.75 L 16.0 13.38 L 16.0 14.0 L 16.0 14.62 L 16.0 15.25 L 16.0 15.88 L 16.0 16.5 L 16.0 17.12 L 16.0 17.75 L 16.0 18.38 L 16.0 19.0 L 16.0 19.62 L 16.0 20.25 L 16.0 20.88 L 16.0 21.5 L 16.0 22.12 L 16.0 22.75 L 16.0 23.38 L 16.0 24.0" fill="none" stroke="#111" stroke-width="1.23" stroke-linecap="round" stroke-linejoin="round"/>
<path d="M 8.0 9.0 L 8.12 9.0 L 8.25 9.0 L 8.38 9.0 L 8.5 9.0 L 8.62 9.0 L 8.75 9.0 L 8.88 9.0 L 9.0 9.0 L 9.12 9.0 L 9.25 9.0 L 9.38 9.0 L 9.5 9.0 L 9.62 9.0 L 9.75 9.0 L 9.88 9.0 L 10.0 9.0 L 10.12 9.0 L 10.25 9.0 L 10.38 9.0 L 10.5 9.0 L 10.62 9.0 L 10.75 9.0 L 10.88 9.0 L 11.0 9.0" fill="none" stroke="#111" stroke-width="1.23" stroke-linecap="round" stroke-linejoin="round"/>
<path d="M 6.0 11.0 L 6.29 11.04 L 6.58 11.08 L 6.88 11.12 L 7.17 11.17 L 7.46 11.21 L 7.75 11.25 L 8.04 11.29 L 8.33 11.33 L 8.62 11.38 L 8.92 11.42 L 9.21 11.46 L 9.5 11.5 L 9.79 11.54 L 10.08 11.58 L 10.38 11.62 L 10.67 11.67 L 10.96 11.71 L 11.25 11.75 L 11.54 11.79 L 11.83 11.83 L 12.13 11.88 L 12.42 11.92 L 12.71 11.96 L 13.0 12.0" fill="none" stroke="#111" stroke-width="1.23" stroke-linecap="round" stroke-linejoin="round"/>
<path d="M 11.0 12.0 L 11.0 12.42 L 11.0 12.83 L 11.0 13.25 L 11.0 13.67 L 11.0 14.08 L 11.0 14.5 L 11.0 14.92 L 11.0 15.33 L 11.0 15.75 L 11.0 16.17 L 11.0 16.58 L 11.0 17.0 L 11.0 17.42 L 11.0 17.83 L 11.0 18.25 L 11.0 18.67 L 11.0 19.08 L 11.0 19.5 L 11.0 19.92 L 11.0 20.33 L 11.0 20.75 L 11.0 21.17 L 11.0 21.58 L 11.0 22.0" fill="none" stroke="#111" stroke-width="1.23" stroke-linecap="round" stroke-linejoin="round"/>
<path d="M 11.0 12.0 L 10.83 12.29 L 10.67 12.58 L 10.5 12.88 L 10.33 13.17 L 10.17 13.46 L 10.0 13.75 L 9.83 14.04 L 9.67 14.33 L 9.5 14.62 L 9.33 14.92 L 9.17 15.21 L 9.0 15.5 L 8.83 15.79 L 8.67 16.08 L 8.5 16.38 L 8.33 16.67 L 8.17 16.96 L 8.0 17.25 L 7.83 17.54 L 7.67 17.83 L 7.5 18.12 L 7.33 18.42 L 7.17 18.71 L 7.0 19.0" fill="none" stroke="#111" stroke-width="1.23" stroke-linecap="round" stroke-linejoin="round"/>
<path d="M 6.0 24.0 L 6.04 24.25 L 6.08 24.5 L 6.13 24.75 L 6.17 25.0 L 6.21 25.25 L 6.25 25.5 L 6.29 25.75 L 6.33 26.0 L 6.38 26.25 L 6.42 26.5 L 6.46 26.75 L 6.5 27.0 L 6.54 27.25 L 6.58 27.5 L 6.62 27.75 L 6.67 28.0 L 6.71 28.25 L 6.75 28.5 L 6.79 28.75 L 6.83 29.0 L 6.88 29.25 L 6.92 29.5 L 6.96 29.75 L 7.0 30.0" fill="none" stroke="#111" stroke-width="1.23" stroke-linecap="round" stroke-linejoin="round"/>
<path d="M 7.0 30.0 L 7.08 30.04 L 7.17 30.08 L 7.25 30.12 L 7.33 30.17 L 7.42 30.21 L 7.5 30.25 L 7.58 30.29 L 7.67 30.33 L 7.75 30.38 L 7.83 30.42 L 7.92 30.46 L 8.0 30.5 L 8.08 30.54 L 8.17 30.58 L 8.25 30.62 L 8.33 30.67 L 8.42 30.71 L 8.5 30.75 L 8.58 30.79 L 8.67 30.83 L 8.75 30.88 L 8.83 30.92 L 8.92 30.96 L 9.0 31.0" fill="none" stroke="#111" stroke-width="1.23" stroke-linecap="round" stroke-linejoin="round"/>
<path d="M 9.0 31.0 L 9.04 30.62 L 9.08 30.25 L 9.12 29.88 L 9.17 29.5 L 9.21 29.12 L 9.25 28.75 L 9.29 28.38 L 9.33 28.0 L 9.38 27.62 L 9.42 27.25 L 9.46 26.88 L 9.5 26.5 L 9.54 26.12 L 9.58 25.75 L 9.62 25.38 L 9.67 25.0 L 9.71 24.62 L 9.75 24.25 L 9.79 23.88 L 9.83 23.5 L 9.88 23.12 L 9.92 22.75 L 9.96 22.38 L 10.0 22.0" fill="none" stroke="#111" stroke-width="1.23" stroke-linecap="round" stroke-linejoin="round"/>
<path d="M 7.0 27.0 L 7.29 26.88 L 7.58 26.75 L 7.88 26.62 L 8.17 26.5 L 8.46 26.38 L 8.75 26.25 L 9.04 26.12 L 9.33 26.0 L 9.62 25.88 L 9.92 25.75 L 10.21 25.62 L 10.5 25.5 L 10.79 25.38 L 11.08 25.25 L 11.38 25.12 L 11.67 25.0 L 11.96 24.88 L 12.25 24.75 L 12.54 24.62 L 12.83 24.5 L 13.13 24.38 L 13.42 24.25 L 13.71 24.12 L 14.0 24.0" fill="none" stroke="#111" stroke-width="1.23" stroke-linecap="round" stroke-linejoin="round"/>
</svg>
