<?xml version="1.0" encoding="UTF-8"?>
<svg xmlns="http://www.w3.org/2000/svg" viewBox="0 0 26.00 38.77">
<path d="M 13.0 4.0 L 13.29 5.31 L 13.54 6.64 L 13.74 7.97 L 13.89 9.31 L 13.99 10.65 L 14.05 12.0 L 14.06 13.34 L 14.02 14.69 L 13.93 16.03 L 13.79 17.37 L 13.61 18.7 L 13.37 20.03 L 13.09 21.35 L 12.77 22.65 L 12.39 23.95 L 11.98 25.23 L 11.51 26.49 L 11.0 27.74 L 10.45 28.97 L 9.85 30.17 L 9.21 31.36 L 8.53 32.52 L 7.81 33.66 L 7.05 34.77" fill="none" stroke="#111" stroke-width="1.36" stroke-linecap="round" stroke-linejoin="round"/>
<path d="M 13.0 8.0 L 12.71 8.33 L 12.42 8.67 L 12.12 9.0 L 11.83 9.33 L 11.54 9.67 L 11.25 10.0 L 10.96 10.33 L 10.67 10.67 L 10.38 11.0 L 10.08 11.33 L 9.79 11.67 L 9.5 12.0 L 9.21 12.33 L 8.92 12.67 L 8.62 13.0 L 8.33 13.33 L 8.04 13.67 L 7.75 14.0 L 7.46 14.33 L 7.17 14.67 L 6.88 15.0 L 6.58 15.33 L 6.29 15.67 L 6.0 16.0" fill="none" stroke="#111" stroke-width="1.36" stroke-linecap="round" stroke-linejoin="round"/>
<path d="M 13.0 8.0 L 13.38 8.25 L 13.75 8.5 L 14.12 8.75 L 14.5 9.0 L 14.88 9.25 L 15.25 9.5 L 15.62 9.75 L 16.0 10.0 L 16.38 10.25 L 16.75 10.5 L 17.12 10.75 L 17.5 11.0 L 17.88 11.25 L 18.25 11.5 L 18.62 11.75 L 19.0 12.0 L 19.38 12.25 L 19.75 12.5 L 20.12 12.75 L 20.5 13.0 L 20.88 13.25 L 21.25 13.5 L 21.62 13.75 L 22.0 14.0" fill="none" stroke="#111" stroke-width="1.36" stroke-linecap="round" stroke-linejoin="round"/>
<path d="M 13.0 22.0 L 13.29 22.17 L 13.58 22.33 L 13.88 22.5 L 14.17 22.67 L 14.46 22.83 L 14.75 23.0 L 15.04 23.17 L 15.33 23.33 L 15.62 23.5 L 15.92 23.67 L 16.21 23.83 L 16.5 24.0 L 16.79 24.17 L 17.08 24.33 L 17.38 24.5 L 17.67 24.67 L 17.96 24.83 L 18.25 25.0 L 18.54 25.17 L 18.83 25.33 L 19.12 25.5 L 19.42 25.67 L 19.71 25.83 L 20.0 26.0" fill="none" stroke="#111" stroke-width="1.36" stroke-linecap="round" stroke-linejoin="round"/>
<path d="M 13.0 22.0 L 12.71 22.17 L 12.42 22.33 L 12.12 22.5 L 11.83 22.67 L 11.54 22.83 L 11.25 23.0 L 10.96 23.17 L 10.67 23.33 L 10.38 23.5 L 10.08 23.67 L 9.79 23.83 L 9.5 24.0 L 9.21 24.17 L 8.92 24.33 L 8.62 24.5 L 8.33 24.67 L 8.04 24.83 L 7.75 25.0 L 7.46 25.17 L 7.17 25.33 L 6.88 25.5 L 6.58 25.67 L 6.29 25.83 L 6.0 26.0" fill="none" stroke="#111" stroke-width="1.36" stroke-linecap="round" stroke-linejoin="round"/>
<path d="M 13.0 22.0 L 13.04 22.25 L 13.08 22.5 L 13.12 22.75 L 13.17 23.0 L 13.21 23.25 L 13.25 23.5 L 13.29 23.75 L 13.33 24.0 L 13.38 24.25 L 13.42 24.5 L 13.46 24.75 L 13.5 25.0 L 13.54 25.25 L 13.58 25.5 L 13.62 25.75 L 13.67 26.0 L 13.71 26.25 L 13.75 26.5 L 13.79 26.75 L 13.83 27.0 L 13.88 27.25 L 13.92 27.5 L 13.96 27.75 L 14.0 28.0" fill="none" stroke="#111" stroke-width="1.36" stroke-linecap="round" stroke-linejoin="round"/>
<path d="M 10.0 28.0 L 9.75 28.12 L 9.5 28.25 L 9.25 28.38 L 9.0 28.5 L 8.75 28.62 L 8.5 28.75 L 8.25 28.88 L 8.0 29.0 L 7.75 29.12 L 7.5 29.25 L 7.25 29.38 L 7.0 29.5 L 6.75 29.62 L 6.5 29.75 L 6.25 29.88 L 6.0 30.0 L 5.75 30.12 L 5.5 30.25 L 5.25 30.38 L 5.0 30.5 L 4.75 30.62 L 4.5 30.75 L 4.25 30.88 L 4.0 31.0" fill="none" stroke="#111" stroke-width="1.36" stroke-linecap="round" stroke-linejoin="round"/>
<path d="M 10.0 28.0 L 10.08 28.21 L 10.17 28.42 L 10.25 28.62 L 10.33 28.83 L 10.42 29.04 L 10.5 29.25 L 10.58 29.46 L 10.67 29.67 L 10.75 29.88 L 10.83 30.08 L 10.92 30.29 L 11.0 30.5 L 11.08 30.71 L 11.17 30.92 L 11.25 31.12 L 11.33 31.33 L 11.42 31.54 L 11.5 31.75 L 11.58 31.96 L 11.67 32.17 L 11.75 32.38 L 11.83 32.58 L 11.92 32.79 L 12.0 33.0" fill="none" stroke="#111" stroke-width="1.36" stroke-linecap="round" stroke-linejoin="round"/>
</svg>
