<?xml version="1.0" encoding="UTF-8"?>
<svg xmlns="http://www.w3.org/2000/svg" viewBox="0 0 21.99 34.97">
<path d="M 4.0 4.0 L 4.33 4.0 L 4.67 4.0 L 5.0 4.0 L 5.33 4.0 L 5.67 4.0 L 6.0 4.0 L 6.33 4.0 L 6.67 4.0 L 7.0 4.0 L 7.33 4.0 L 7.67 4.0 L 8.0 4.0 L 8.33 4.0 L 8.67 4.0 L 9.0 4.0 L 9.33 4.0 L 9.67 4.0 L 10.0 4.0 L 10.33 4.0 L 10.67 4.0 L 11.0 4.0 L 11.33 4.0 L 11.67 4.0 L 12.0 4.0" fill="none" stroke="#111" stroke-width="1.22" stroke-linecap="round" stroke-linejoin="round"/>
<path d="M 6.0 4.0 L 6.0 4.38 L 6.0 4.75 L 6.0 5.12 L 6.0 5.5 L 6.0 5.88 L 6.0 6.25 L 6.0 6.62 L 6.0 7.0 L 6.0 7.38 L 6.0 7.75 L 6.0 8.12 L 6.0 8.5 L 6.0 8.88 L 6.0 9.25 L 6.0 9.62 L 6.0 10.0 L 6.0 10.38 L 6.0 10.75 L 6.0 11.12 L 6.0 11.5 L 6.0 11.88 L 6.0 12.25 L 6.0 12.62 L 6.0 13.0" fill="none" stroke="#111" stroke-width="1.22" stroke-linecap="round" stroke-linejoin="round"/>
<path d="M 9.0 4.0 L 9.0 4.38 L 9.0 4.75 L 9.0 5.12 L 9.0 5.5 L 9.0 5.88 L 9.0 6.25 L 9.0 6.62 L 9.0 7.0 L 9.0 7.38 L 9.0 7.75 L 9.0 8.12 L 9.0 8.5 L 9.0 8.88 L 9.0 9.25 L 9.0 9.62 L 9.0 10.0 L 9.0 10.38 L 9.0 10.75 L 9.0 11.12 L 9.0 11.5 L 9.0 11.88 L 9.0 12.25 L 9.0 12.62 L 9.0 13.0" fill="none" stroke="#111" stroke-width="1.22" stroke-linecap="round" stroke-linejoin="round"/>
<path d="M 4.0 7.0 L 4.08 7.0 L 4.17 7.0 L 4.25 7.0 L 4.33 7.0 L 4.42 7.0 L 4.5 7.0 L 4.58 7.0 L 4.67 7.0 L 4.75 7.0 L 4.83 7.0 L 4.92 7.0 L 5.0 7.0 L 5.08 7.0 L 5.17 7.0 L 5.25 7.0 L 5.33 7.0 L 5.42 7.0 L 5.5 7.0 L 5.58 7.0 L 5.67 7.0 L 5.75 7.0 L 5.83 7.0 L 5.92 7.0 L 6.0 7.0" fill="none" stroke="#111" stroke-width="1.22" stroke-linecap="round" stroke-linejoin="round"/>
<path d="M 4.0 10.0 L 4.08 10.0 L 4.17 10.0 L 4.25 10.0 L 4.33 10.0 L 4.42 10.0 L 4.5 10.0 L 4.58 10.0 L 4.67 10.0 L 4.75 10.0 L 4.83 10.0 L 4.92 10.0 L 5.0 10.0 L 5.08 10.0 L 5.17 10.0 L 5.25 10.0 L 5.33 10.0 L 5.42 10.0 L 5.5 10.0 L 5.58 10.0 L 5.67 10.0 L 5.75 10.0 L 5.83 10.0 L 5.92 10.0 L 6.0 10.0" fill="none" stroke="#111" stroke-width="1.22" stroke-linecap="round" stroke-linejoin="round"/>
<path d="M 9.0 7.0 L 9.12 7.0 L 9.25 7.0 L 9.38 7.0 L 9.5 7.0 L 9.62 7.0 L 9.75 7.0 L 9.88 7.0 L 10.0 7.0 L 10.12 7.0 L 10.25 7.0 L 10.38 7.0 L 10.5 7.0 L 10.62 7.0 L 10.75 7.0 L 10.88 7.0 L 11.0 7.0 L 11.12 7.0 L 11.25 7.0 L 11.38 7.0 L 11.5 7.0 L 11.62 7.0 L 11.75 7.0 L 11.88 7.0 L 12.0 7.0" fill="none" stroke="#111" stroke-width="1.22" stroke-linecap="round" stroke-linejoin="round"/>
<path d="M 9.0 9.0 L 9.17 9.0 L 9.33 9.0 L 9.5 9.0 L 9.67 9.0 L 9.83 9.0 L 10.0 9.0 L 10.17 9.0 L 10.33 9.0 L 10.5 9.0 L 10.67 9.0 L 10.83 9.0 L 11.0 9.0 L 11.17 9.0 L 11.33 9.0 L 11.5 9.0 L 11.67 9.0 L 11.83 9.0 L 12.0 9.0 L 12.17 9.0 L 12.33 9.0 L 12.5 9.0 L 12.67 9.0 L 12.83 9.0 L 13.0 9.0" fill="none" stroke="#111" stroke-width="1.22" stroke-linecap="round" stroke-linejoin="round"/>
<path d="M 4.0 14.0 L 4.33 14.0 L 4.67 14.0 L 5.0 14.0 L 5.33 14.0 L 5.67 14.0 L 6.0 14.0 L 6.33 14.0 L 6.67 14.0 L 7.0 14.0 L 7.33 14.0 L 7.67 14.0 L 8.0 14.0 L 8.33 14.0 L 8.67 14.0 L 9.0 14.0 L 9.33 14.0 L 9.67 14.0 L 10.0 14.0 L 10.33 14.0 L 10.67 14.0 L 11.0 14.0 L 11.33 14.0 L 11.67 14.0 L 12.0 14.0" fill="none" stroke="#111" stroke-width="1.22" stroke-linecap="round" stroke-linejoin="round"/>
<path d="M 14.0 9.0 L 14.47 9.33 L 14.9 9.7 L 15.29 10.11 L 15.65 10.56 L 15.95 11.04 L 16.21 11.55 L 16.41 12.08 L 16.56 12.63 L 16.66 13.19 L 16.69 13.76 L 16.68 14.33 L 16.6 14.89 L 16.47 15.45 L 16.29 15.98 L 16.05 16.5 L 15.77 17.0 L 15.43 17.46 L 15.05 17.88 L 14.64 18.27 L 14.18 18.61 L 13.69 18.91 L 13.18 19.15 L 12.65 19.35 L 12.09 19.49" fill="none" stroke="#111" stroke-width="1.22" stroke-linecap="round" stroke-linejoin="round"/>
<path d="M 13.0 12.0 L 13.34 12.75 L 13.67 13.5 L 13.99 14.26 L 14.3 15.02 L 14.6 15.79 L 14.88 16.56 L 15.15 17.33 L 15.42 18.11 L 15.67 18.89 L 15.9 19.68 L 16.13 20.47 L 16.35 21.26 L 16.55 22.06 L 16.74 22.86 L 16.92 23.66 L 17.09 24.47 L 17.24 25.27 L 17.39 26.08 L 17.52 26.89 L 17.64 27.71 L 17.74 28.52 L 17.84 29.34 L 17.92 30.15 L 17.99 30.97" fill="none" stroke="#111" stroke-width="1.22" stroke-linecap="round" stroke-linejoin="round"/>
</svg>
