<?xml version="1.0" encoding="UTF-8"?>
<svg xmlns="http://www.w3.org/2000/svg" viewBox="0 0 30.00 36.00">
<path d="M 12.0 6.0 L 11.94 6.51 L 11.93 7.03 L 11.95 7.55 L 12.02 8.06 L 12.12 8.57 L 12.27 9.07 L 12.45 9.55 L 12.67 10.02 L 12.92 10.47 L 13.21 10.9 L 13.53 11.31 L 13.88 11.69 L 14.26 12.04 L 14.67 12.36 L 15.1 12.65 L 15.55 12.91 L 16.02 13.13 L 16.5 13.31 L 17.0 13.45 L 17.51 13.56 L 18.02 13.62 L 18.54 13.64 L 19.06 13.63 L 19.57 13.57" fill="none" stroke="#111" stroke-width="1.26" stroke-linecap="round" stroke-linejoin="round"/>
<path d="M 11.0 12.0 L 11.0 12.08 L 11.0 12.17 L 11.0 12.25 L 11.0 12.33 L 11.0 12.42 L 11.0 12.5 L 11.0 12.58 L 11.0 12.67 L 11.0 12.75 L 11.0 12.83 L 11.0 12.92 L 11.0 13.0 L 11.0 13.08 L 11.0 13.17 L 11.0 13.25 L 11.0 13.33 L 11.0 13.42 L 11.0 13.5 L 11.0 13.58 L 11.0 13.67 L 11.0 13.75 L 11.0 13.83 L 11.0 13.92 L 11.0 14.0 L 11.0 14.0 L 11.38 14.0 L 11.75 14.0 L 12.12 14.0 L 12.5 14.0 L 12.88 14.0 L 13.25 14.0 L 13.62 14.0 L 14.0 14.0 L 14.38 14.0 L 14.75 14.0 L 15.12 14.0 L 15.5 14.0 L 15.88 14.0 L 16.25 14.0 L 16.62 14.0 L 17.0 14.0 L 17.38 14.0 L 17.75 14.0 L 18.12 14.0 L 18.5 14.0 L 18.88 14.0 L 19.25 14.0 L 19.62 14.0 L 20.0 14.0" fill="none" stroke="#111" stroke-width="1.26" stroke-linecap="round" stroke-linejoin="round"/>
<path d="M 18.0 6.0 L 17.79 6.33 L 17.58 6.67 L 17.38 7.0 L 17.17 7.33 L 16.96 7.67 L 16.75 8.0 L 16.54 8.33 L 16.33 8.67 L 16.12 9.0 L 15.92 9.33 L 15.71 9.67 L 15.5 10.0 L 15.29 10.33 L 15.08 10.67 L 14.88 11.0 L 14.67 11.33 L 14.46 11.67 L 14.25 12.0 L 14.04 12.33 L 13.83 12.67 L 13.62 13.0 L 13.42 13.33 L 13.21 13.67 L 13.0 14.0" fill="none" stroke="#111" stroke-width="1.26" stroke-linecap="round" stroke-linejoin="round"/>
<path d="M 8.0 9.0 L 7.7 9.2 L 7.42 9.43 L 7.16 9.69 L 6.93 9.97 L 6.73 10.27 L 6.56 10.59 L 6.42 10.93 L 6.31 11.28 L 6.24 11.63 L 6.21 11.99 L 6.2 12.36 L 6.24 12.72 L 6.31 13.07 L 6.41 13.42 L 6.55 13.76 L 6.71 14.08 L 6.91 14.38 L 7.14 14.67 L 7.4 14.92 L 7.67 15.16 L 7.97 15.36 L 8.29 15.54 L 8.62 15.68 L 8.97 15.79" fill="none" stroke="#111" stroke-width="1.26" stroke-linecap="round" stroke-linejoin="round"/>
<path d="M 10.0 11.0 L 9.79 11.38 L 9.58 11.75 L 9.38 12.12 L 9.17 12.5 L 8.96 12.88 L 8.75 13.25 L 8.54 13.62 L 8.33 14.0 L 8.12 14.38 L 7.92 14.75 L 7.71 15.12 L 7.5 15.5 L 7.29 15.88 L 7.08 16.25 L 6.88 16.62 L 6.67 17.0 L 6.46 17.38 L 6.25 17.75 L 6.04 18.12 L 5.83 18.5 L 5.62 18.88 L 5.42 19.25 L 5.21 19.62 L 5.0 20.0" fill="none" stroke="#111" stroke-width="1.26" stroke-linecap="round" stroke-linejoin="round"/>
<path d="M 15.0 14.0 L 14.83 14.67 L 14.67 15.33 L 14.5 16.0 L 14.33 16.67 L 14.17 17.33 L 14.0 18.0 L 13.83 18.67 L 13.67 19.33 L 13.5 20.0 L 13.33 20.67 L 13.17 21.33 L 13.0 22.0 L 12.83 22.67 L 12.67 23.33 L 12.5 24.0 L 12.33 24.67 L 12.17 25.33 L 12.0 26.0 L 11.83 26.67 L 11.67 27.33 L 11.5 28.0 L 11.33 28.67 L 11.17 29.33 L 11.0 30.0" fill="none" stroke="#111" stroke-width="1.26" stroke-linecap="round" stroke-linejoin="round"/>
<path d="M 15.0 14.0 L 15.12 14.67 L 15.25 15.33 L 15.38 16.0 L 15.5 16.67 L 15.62 17.33 L 15.75 18.0 L 15.88 18.67 L 16.0 19.33 L 16.12 20.0 L 16.25 20.67 L 16.38 21.33 L 16.5 22.0 L 16.62 22.67 L 16.75 23.33 L 16.88 24.0 L 17.0 24.67 L 17.12 25.33 L 17.25 26.0 L 17.38 26.67 L 17.5 27.33 L 17.62 28.0 L 17.75 28.67 L 17.88 29.33 L 18.0 30.0" fill="none" stroke="#111" stroke-width="1.26" stroke-linecap="round" stroke-linejoin="round"/>
<path d="M 13.0 21.0 L 13.12 21.0 L 13.25 21.0 L 13.38 21.0 L 13.5 21.0 L 13.62 21.0 L 13.75 21.0 L 13.88 21.0 L 14.0 21.0 L 14.12 21.0 L 14.25 21.0 L 14.38 21.0 L 14.5 21.0 L 14.62 21.0 L 14.75 21.0 L 14.88 21.0 L 15.0 21.0 L 15.12 21.0 L 15.25 21.0 L 15.38 21.0 L 15.5 21.0 L 15.62 21.0 L 15.75 21.0 L 15.88 21.0 L 16.0 21.0" fill="none" stroke="#111" stroke-width="1.26" stroke-linecap="round" stroke-linejoin="round"/>
<path d="M 12.0 25.0 L 12.21 25.0 L 12.42 25.0 L 12.62 25.0 L 12.83 25.0 L 13.04 25.0 L 13.25 25.0 L 13.46 25.0 L 13.67 25.0 L 13.88 25.0 L 14.08 25.0 L 14.29 25.0 L 14.5 25.0 L 14.71 25.0 L 14.92 25.0 L 15.12 25.0 L 15.33 25.0 L 15.54 25.0 L 15.75 25.0 L 15.96 25.0 L 16.17 25.0 L 16.38 25.0 L 16.58 25.0 L 16.79 25.0 L 17.0 25.0" fill="none" stroke="#111" stroke-width="1.26" stroke-linecap="round" stroke-linejoin="round"/>
<path d="M 8.0 30.0 L 8.54 30.0 L 9.08 30.0 L 9.62 30.0 L 10.17 30.0 L 10.71 30.0 L 11.25 30.0 L 11.79 30.0 L 12.33 30.0 L 12.88 30.0 L 13.42 30.0 L 13.96 30.0 L 14.5 30.0 L 15.04 30.0 L 15.58 30.0 L 16.12 30.0 L 16.67 30.0 L 17.21 30.0 L 17.75 30.0 L 18.29 30.0 L 18.83 30.0 L 19.38 30.0 L 19.92 30.0 L 20.46 30.0 L 21.0 30.0" fill="none" stroke="#111" stroke-width="1.26" stroke-linecap="round" stroke-linejoin="round"/>
<path d="M 9.0 4.0 L 9.0 4.21 L 9.0 4.42 L 9.0 4.62 L 9.0 4.83 L 9.0 5.04 L 9.0 5.25 L 9.0 5.46 L 9.0 5.67 L 9.0 5.88 L 9.0 6.08 L 9.0 6.29 L 9.0 6.5 L 9.0 6.71 L 9.0 6.92 L 9.0 7.12 L 9.0 7.33 L 9.0 7.54 L 9.0 7.75 L 9.0 7.96 L 9.0 8.17 L 9.0 8.38 L 9.0 8.58 L 9.0 8.79 L 9.0 9.0" fill="none" stroke="#111" stroke-width="1.26" stroke-linecap="round" stroke-linejoin="round"/>
<path d="M 7.0 5.0 L 7.08 5.08 L 7.17 5.17 L 7.25 5.25 L 7.33 5.33 L 7.42 5.42 L 7.5 5.5 L 7.58 5.58 L 7.67 5.67 L 7.75 5.75 L 7.83 5.83 L 7.92 5.92 L 8.0 6.0 L 8.08 6.08 L 8.17 6.17 L 8.25 6.25 L 8.33 6.33 L 8.42 6.42 L 8.5 6.5 L 8.58 6.58 L 8.67 6.67 L 8.75 6.75 L 8.83 6.83 L 8.92 6.92 L 9.0 7.0" fill="none" stroke="#111" stroke-width="1.26" stroke-linecap="round" stroke-linejoin="round"/>
<path d="M 12.0 4.0 L 11.88 4.12 L 11.75 4.25 L 11.62 4.38 L 11.5 4.5 L 11.38 4.62 L 11.25 4.75 L 11.12 4.88 L 11.0 5.0 L 10.88 5.12 L 10.75 5.25 L 10.62 5.38 L 10.5 5.5 L 10.38 5.62 L 10.25 5.75 L 10.12 5.88 L 10.0 6.0 L 9.88 6.12 L 9.75 6.25 L 9.62 6.38 L 9.5 6.5 L 9.38 6.62 L 9.25 6.75 L 9.12 6.88 L 9.0 7.0" fill="none" stroke="#111" stroke-width="1.26" stroke-linecap="round" stroke-linejoin="round"/>
<path d="M 6.0 20.0 L 6.0 20.5 L 6.0 21.0 L 6.0 21.5 L 6.0 22.0 L 6.0 22.5 L 6.0 23.0 L 6.0 23.5 L 6.0 24.0 L 6.0 24.5 L 6.0 25.0 L 6.0 25.5 L 6.0 26.0 L 6.0 26.5 L 6.0 27.0 L 6.0 27.5 L 6.0 28.0 L 6.0 28.5 L 6.0 29.0 L 6.0 29.5 L 6.0 30.0 L 6.0 30.5 L 6.0 31.0 L 6.0 31.5 L 6.0 32.0" fill="none" stroke="#111" stroke-width="1.26" stroke-linecap="round" stroke-linejoin="round"/>
<path d="M 4.0 22.0 L 4.08 22.12 L 4.17 22.25 L 4.25 22.38 L 4.33 22.5 L 4.42 22.62 L 4.5 22.75 L 4.58 22.88 L 4.67 23.0 L 4.75 23.12 L 4.83 23.25 L 4.92 23.38 L 5.0 23.5 L 5.08 23.62 L 5.17 23.75 L 5.25 23.88 L 5.33 24.0 L 5.42 24.12 L 5.5 24.25 L 5.58 24.38 L 5.67 24.5 L 5.75 24.62 L 5.83 24.75 L 5.92 24.88 L 6.0 25.0" fill="none" stroke="#111" stroke-width="1.26" stroke-linecap="round" stroke-linejoin="round"/>
<path d="M 10.0 21.0 L 9.83 21.17 L 9.67 21.33 L 9.5 21.5 L 9.33 21.67 L 9.17 21.83 L 9.0 22.0 L 8.83 22.17 L 8.67 22.33 L 8.5 22.5 L 8.33 22.67 L 8.17 22.83 L 8.0 23.0 L 7.83 23.17 L 7.67 23.33 L 7.5 23.5 L 7.33 23.67 L 7.17 23.83 L 7.0 24.0 L 6.83 24.17 L 6.67 24.33 L 6.5 24.5 L 6.33 24.67 L 6.17 24.83 L 6.0 25.0" fill="none" stroke="#111" stroke-width="1.26" stroke-linecap="round" stroke-linejoin="round"/>
<path d="M 21.0 4.0 L 21.0 4.5 L 21.0 5.0 L 21.0 5.5 L 21.0 6.0 L 21.0 6.5 L 21.0 7.0 L 21.0 7.5 L 21.0 8.0 L 21.0 8.5 L 21.0 9.0 L 21.0 9.5 L 21.0 10.0 L 21.0 10.5 L 21.0 11.0 L 21.0 11.5 L 21.0 12.0 L 21.0 12.5 L 21.0 13.0 L 21.0 13.5 L 21.0 14.0 L 21.0 14.5 L 21.0 15.0 L 21.0 15.5 L 21.0 16.0" fill="none" stroke="#111" stroke-width="1.26" stroke-linecap="round" stroke-linejoin="round"/>
<path d="M 18.0 9.0 L 18.12 9.12 L 18.25 9.25 L 18.38 9.38 L 18.5 9.5 L 18.62 9.62 L 18.75 9.75 L 18.88 9.88 L 19.0 10.0 L 19.12 10.12 L 19.25 10.25 L 19.38 10.38 L 19.5 10.5 L 19.62 10.62 L 19.75 10.75 L 19.88 10.88 L 20.0 11.0 L 20.12 11.12 L 20.25 11.25 L 20.38 11.38 L 20.5 11.5 L 20.62 11.62 L 20.75 11.75 L 20.88 11.88 L 21.0 12.0" fill="none" stroke="#111" stroke-width="1.26" stroke-linecap="round" stroke-linejoin="round"/>
<path d="M 25.0 7.0 L 24.83 7.21 L 24.67 7.42 L 24.5 7.62 L 24.33 7.83 L 24.17 8.04 L 24.0 8.25 L 23.83 8.46 L 23.67 8.67 L 23.5 8.88 L 23.33 9.08 L 23.17 9.29 L 23.0 9.5 L 22.83 9.71 L 22.67 9.92 L 22.5 10.12 L 22.33 10.33 L 22.17 10.54 L 22.0 10.75 L 21.83 10.96 L 21.67 11.17 L 21.5 11.38 L 21.33 11.58 L 21.17 11.79 L 21.0 12.0" fill="none" stroke="#111" stroke-width="1.26" stroke-linecap="round" stroke-linejoin="round"/>
<path d="M 22.0 21.0 L 22.0 21.46 L 22.0 21.92 L 22.0 22.38 L 22.0 22.83 L 22.0 23.29 L 22.0 23.75 L 22.0 24.21 L 22.0 24.67 L 22.0 25.12 L 22.0 25.58 L 22.0 26.04 L 22.0 26.5 L 22.0 26.96 L 22.0 27.42 L 22.0 27.88 L 22.0 28.33 L 22.0 28.79 L 22.0 29.25 L 22.0 29.71 L 22.0 30.17 L 22.0 30.62 L 22.0 31.08 L 22.0 31.54 L 22.0 32.0" fill="none" stroke="#111" stroke-width="1.26" stroke-linecap="round" stroke-linejoin="round"/>
<path d="M 19.0 25.0 L 19.12 25.12 L 19.25 25.25 L 19.38 25.38 L 19.5 25.5 L 19.62 25.62 L 19.75 25.75 L 19.88 25.88 L 20.0 26.0 L 20.12 26.12 L 20.25 26.25 L 20.38 26.38 L 20.5 26.5 L 20.62 26.62 L 20.75 26.75 L 20.88 26.88 L 21.0 27.0 L 21.12 27.12 L 21.25 27.25 L 21.38 27.38 L 21.5 27.5 L 21.62 27.62 L 21.75 27.75 L 21.88 27.88 L 22.0 28.0" fill="none" stroke="#111" stroke-width="1.26" stroke-linecap="round" stroke-linejoin="round"/>
<path d="M 26.0 22.0 L 25.83 22.25 L 25.67 22.5 L 25.5 22.75 L 25.33 23.0 L 25.17 23.25 L 25.0 23.5 L 24.83 23.75 L 24.67 24.0 L 24.5 24.25 L 24.33 24.5 L 24.17 24.75 L 24.0 25.0 L 23.83 25.25 L 23.67 25.5 L 23.5 25.75 L 23.33 26.0 L 23.17 26.25 L 23.0 26.5 L 22.83 26.75 L 22.67 27.0 L 22.5 27.25 L 22.33 27.5 L 22.17 27.75 L 22.0 28.0" fill="none" stroke="#111" stroke-width="1.26" stroke-linecap="round" stroke-linejoin="round"/>
</svg>
