<?xml version="1.0" encoding="UTF-8"?>
<svg xmlns="http://www.w3.org/2000/svg" viewBox="0 0 23.00 35.00">
<path d="M 11.0 4.0 L 11.0 4.67 L 11.0 5.33 L 11.0 6.0 L 11.0 6.67 L 11.0 7.33 L 11.0 8.0 L 11.0 8.67 L 11.0 9.33 L 11.0 10.0 L 11.0 10.67 L 11.0 11.33 L 11.0 12.0 L 11.0 12.67 L 11.0 13.33 L 11.0 14.0 L 11.0 14.67 L 11.0 15.33 L 11.0 16.0 L 11.0 16.67 L 11.0 17.33 L 11.0 18.0 L 11.0 18.67 L 11.0 19.33 L 11.0 20.0" fill="none" stroke="#111" stroke-width="1.23" stroke-linecap="round" stroke-linejoin="round"/>
<path d="M 6.0 5.0 L 6.21 5.33 L 6.42 5.67 L 6.62 6.0 L 6.83 6.33 L 7.04 6.67 L 7.25 7.0 L 7.46 7.33 L 7.67 7.67 L 7.88 8.0 L 8.08 8.33 L 8.29 8.67 L 8.5 9.0 L 8.71 9.33 L 8.92 9.67 L 9.12 10.0 L 9.33 10.33 L 9.54 10.67 L 9.75 11.0 L 9.96 11.33 L 10.17 11.67 L 10.38 12.0 L 10.58 12.33 L 10.79 12.67 L 11.0 13.0 L 11.0 13.0 L 11.29 12.67 L 11.58 12.33 L 11.88 12.0 L 12.17 11.67 L 12.46 11.33 L 12.75 11.0 L 13.04 10.67 L 13.33 10.33 L 13.62 10.0 L 13.92 9.67 L 14.21 9.33 L 14.5 9.0 L 14.79 8.67 L 15.08 8.33 L 15.38 8.0 L 15.67 7.67 L 15.96 7.33 L 16.25 7.0 L 16.54 6.67 L 16.83 6.33 L 17.12 6.0 L 17.42 5.67 L 17.71 5.33 L 18.0 5.0" fill="none" stroke="#111" stroke-width="1.23" stroke-linecap="round" stroke-linejoin="round"/>
<path d="M 8.0 18.0 L 8.12 17.83 L 8.25 17.67 L 8.38 17.5 L 8.5 17.33 L 8.62 17.17 L 8.75 17.0 L 8.88 16.83 L 9.0 16.67 L 9.12 16.5 L 9.25 16.33 L 9.38 16.17 L 9.5 16.0 L 9.62 15.83 L 9.75 15.67 L 9.88 15.5 L 10.0 15.33 L 10.12 15.17 L 10.25 15.0 L 10.38 14.83 L 10.5 14.67 L 10.62 14.5 L 10.75 14.33 L 10.88 14.17 L 11.0 14.0 L 11.0 14.0 L 11.17 14.12 L 11.33 14.25 L 11.5 14.38 L 11.67 14.5 L 11.83 14.62 L 12.0 14.75 L 12.17 14.88 L 12.33 15.0 L 12.5 15.12 L 12.67 15.25 L 12.83 15.38 L 13.0 15.5 L 13.17 15.62 L 13.33 15.75 L 13.5 15.88 L 13.67 16.0 L 13.83 16.12 L 14.0 16.25 L 14.17 16.38 L 14.33 16.5 L 14.5 16.62 L 14.67 16.75 L 14.83 16.88 L 15.0 17.0" fill="none" stroke="#111" stroke-width="1.23" stroke-linecap="round" stroke-linejoin="round"/>
<path d="M 4.0 20.0 L 4.0 20.46 L 4.0 20.92 L 4.0 21.38 L 4.0 21.83 L 4.0 22.29 L 4.0 22.75 L 4.0 23.21 L 4.0 23.67 L 4.0 24.12 L 4.0 24.58 L 4.0 25.04 L 4.0 25.5 L 4.0 25.96 L 4.0 26.42 L 4.0 26.88 L 4.0 27.33 L 4.0 27.79 L 4.0 28.25 L 4.0 28.71 L 4.0 29.17 L 4.0 29.62 L 4.0 30.08 L 4.0 30.54 L 4.0 31.0" fill="none" stroke="#111" stroke-width="1.23" stroke-linecap="round" stroke-linejoin="round"/>
<path d="M 4.0 20.0 L 4.62 20.0 L 5.25 20.0 L 5.88 20.0 L 6.5 20.0 L 7.12 20.0 L 7.75 20.0 L 8.38 20.0 L 9.0 20.0 L 9.62 20.0 L 10.25 20.0 L 10.88 20.0 L 11.5 20.0 L 12.12 20.0 L 12.75 20.0 L 13.38 20.0 L 14.0 20.0 L 14.62 20.0 L 15.25 20.0 L 15.88 20.0 L 16.5 20.0 L 17.12 20.0 L 17.75 20.0 L 18.38 20.0 L 19.0 20.0 L 19.0 20.0 L 19.0 20.42 L 19.0 20.83 L 19.0 21.25 L 19.0 21.67 L 19.0 22.08 L 19.0 22.5 L 19.0 22.92 L 19.0 23.33 L 19.0 23.75 L 19.0 24.17 L 19.0 24.58 L 19.0 25.0 L 19.0 25.42 L 19.0 25.83 L 19.0 26.25 L 19.0 26.67 L 19.0 27.08 L 19.0 27.5 L 19.0 27.92 L 19.0 28.33 L 19.0 28.75 L 19.0 29.17 L 19.0 29.58 L 19.0 30.0" fill="none" stroke="#111" stroke-width="1.23" stroke-linecap="round" stroke-linejoin="round"/>
<path d="M 11.0 20.0 L 11.03 20.46 L 11.04 20.92 L 11.01 21.37 L 10.95 21.83 L 10.86 22.28 L 10.73 22.72 L 10.58 23.15 L 10.4 23.57 L 10.19 23.98 L 9.95 24.37 L 9.69 24.74 L 9.4 25.1 L 9.08 25.43 L 8.75 25.74 L 8.39 26.03 L 8.01 26.29 L 7.62 26.53 L 7.21 26.74 L 6.79 26.92 L 6.36 27.07 L 5.92 27.19 L 5.47 27.28 L 5.01 27.34 L 4.56 27.36" fill="none" stroke="#111" stroke-width="1.23" stroke-linecap="round" stroke-linejoin="round"/>
<path d="M 10.0 20.0 L 10.38 20.29 L 10.75 20.58 L 11.12 20.88 L 11.5 21.17 L 11.88 21.46 L 12.25 21.75 L 12.62 22.04 L 13.0 22.33 L 13.38 22.62 L 13.75 22.92 L 14.12 23.21 L 14.5 23.5 L 14.88 23.79 L 15.25 24.08 L 15.62 24.38 L 16.0 24.67 L 16.38 24.96 L 16.75 25.25 L 17.12 25.54 L 17.5 25.83 L 17.88 26.12 L 18.25 26.42 L 18.62 26.71 L 19.0 27.0" fill="none" stroke="#111" stroke-width="1.23" stroke-linecap="round" stroke-linejoin="round"/>
</svg>
