<?xml version="1.0" encoding="UTF-8"?>
<svg xmlns="http://www.w3.org/2000/svg" viewBox="0 0 28.00 40.00">
<path d="M 13.0 5.0 L 12.88 5.42 L 12.75 5.83 L 12.62 6.25 L 12.5 6.67 L 12.38 7.08 L 12.25 7.5 L 12.12 7.92 L 12.0 8.33 L 11.88 8.75 L 11.75 9.17 L 11.62 9.58 L 11.5 10.0 L 11.38 10.42 L 11.25 10.83 L 11.12 11.25 L 11.0 11.67 L 10.88 12.08 L 10.75 12.5 L 10.62 12.92 L 10.5 13.33 L 10.38 13.75 L 10.25 14.17 L 10.12 14.58 L 10.0 15.0" fill="none" stroke="#111" stroke-width="1.40" stroke-linecap="round" stroke-linejoin="round"/>
<path d="M 12.0 9.0 L 12.47 9.24 L 12.92 9.52 L 13.35 9.84 L 13.75 10.18 L 14.12 10.56 L 14.46 10.97 L 14.77 11.4 L 15.04 11.85 L 15.28 12.33 L 15.47 12.82 L 15.63 13.33 L 15.74 13.85 L 15.82 14.37 L 15.85 14.9 L 15.84 15.43 L 15.79 15.96 L 15.69 16.48 L 15.56 16.99 L 15.38 17.49 L 15.17 17.98 L 14.91 18.44 L 14.63 18.89 L 14.3 19.31 L 13.95 19.7 L 14.0 20.0 L 14.0 20.67 L 14.0 21.33 L 14.0 22.0 L 14.0 22.67 L 14.0 23.33 L 14.0 24.0 L 14.0 24.67 L 14.0 25.33 L 14.0 26.0 L 14.0 26.67 L 14.0 27.33 L 14.0 28.0 L 14.0 28.67 L 14.0 29.33 L 14.0 30.0 L 14.0 30.67 L 14.0 31.33 L 14.0 32.0 L 14.0 32.67 L 14.0 33.33 L 14.0 34.0 L 14.0 34.67 L 14.0 35.33 L 14.0 36.0" fill="none" stroke="#111" stroke-width="1.40" stroke-linecap="round" stroke-linejoin="round"/>
<path d="M 6.0 10.0 L 6.0 10.38 L 6.0 10.75 L 6.0 11.12 L 6.0 11.5 L 6.0 11.88 L 6.0 12.25 L 6.0 12.62 L 6.0 13.0 L 6.0 13.38 L 6.0 13.75 L 6.0 14.12 L 6.0 14.5 L 6.0 14.88 L 6.0 15.25 L 6.0 15.62 L 6.0 16.0 L 6.0 16.38 L 6.0 16.75 L 6.0 17.12 L 6.0 17.5 L 6.0 17.88 L 6.0 18.25 L 6.0 18.62 L 6.0 19.0" fill="none" stroke="#111" stroke-width="1.40" stroke-linecap="round" stroke-linejoin="round"/>
<path d="M 4.0 13.0 L 4.08 13.12 L 4.17 13.25 L 4.25 13.38 L 4.33 13.5 L 4.42 13.62 L 4.5 13.75 L 4.58 13.88 L 4.67 14.0 L 4.75 14.12 L 4.83 14.25 L 4.92 14.38 L 5.0 14.5 L 5.08 14.62 L 5.17 14.75 L 5.25 14.88 L 5.33 15.0 L 5.42 15.12 L 5.5 15.25 L 5.58 15.38 L 5.67 15.5 L 5.75 15.62 L 5.83 15.75 L 5.92 15.88 L 6.0 16.0" fill="none" stroke="#111" stroke-width="1.40" stroke-linecap="round" stroke-linejoin="round"/>
<path d="M 9.0 12.0 L 8.88 12.17 L 8.75 12.33 L 8.62 12.5 L 8.5 12.67 L 8.38 12.83 L 8.25 13.0 L 8.12 13.17 L 8.0 13.33 L 7.88 13.5 L 7.75 13.67 L 7.62 13.83 L 7.5 14.0 L 7.38 14.17 L 7.25 14.33 L 7.12 14.5 L 7.0 14.67 L 6.88 14.83 L 6.75 15.0 L 6.62 15.17 L 6.5 15.33 L 6.38 15.5 L 6.25 15.67 L 6.12 15.83 L 6.0 16.0" fill="none" stroke="#111" stroke-width="1.40" stroke-linecap="round" stroke-linejoin="round"/>
<path d="M 8.0 23.0 L 8.0 23.46 L 8.0 23.92 L 8.0 24.38 L 8.0 24.83 L 8.0 25.29 L 8.0 25.75 L 8.0 26.21 L 8.0 26.67 L 8.0 27.12 L 8.0 27.58 L 8.0 28.04 L 8.0 28.5 L 8.0 28.96 L 8.0 29.42 L 8.0 29.88 L 8.0 30.33 L 8.0 30.79 L 8.0 31.25 L 8.0 31.71 L 8.0 32.17 L 8.0 32.62 L 8.0 33.08 L 8.0 33.54 L 8.0 34.0" fill="none" stroke="#111" stroke-width="1.40" stroke-linecap="round" stroke-linejoin="round"/>
<path d="M 5.0 26.0 L 5.12 26.12 L 5.25 26.25 L 5.38 26.38 L 5.5 26.5 L 5.62 26.62 L 5.75 26.75 L 5.88 26.88 L 6.0 27.0 L 6.12 27.12 L 6.25 27.25 L 6.38 27.38 L 6.5 27.5 L 6.62 27.62 L 6.75 27.75 L 6.88 27.88 L 7.0 28.0 L 7.12 28.12 L 7.25 28.25 L 7.38 28.38 L 7.5 28.5 L 7.62 28.62 L 7.75 28.75 L 7.88 28.88 L 8.0 29.0" fill="none" stroke="#111" stroke-width="1.40" stroke-linecap="round" stroke-linejoin="round"/>
<path d="M 11.0 25.0 L 10.88 25.17 L 10.75 25.33 L 10.62 25.5 L 10.5 25.67 L 10.38 25.83 L 10.25 26.0 L 10.12 26.17 L 10.0 26.33 L 9.88 26.5 L 9.75 26.67 L 9.62 26.83 L 9.5 27.0 L 9.38 27.17 L 9.25 27.33 L 9.12 27.5 L 9.0 27.67 L 8.88 27.83 L 8.75 28.0 L 8.62 28.17 L 8.5 28.33 L 8.38 28.5 L 8.25 28.67 L 8.12 28.83 L 8.0 29.0" fill="none" stroke="#111" stroke-width="1.40" stroke-linecap="round" stroke-linejoin="round"/>
<path d="M 20.0 4.0 L 20.0 4.46 L 20.0 4.92 L 20.0 5.38 L 20.0 5.83 L 20.0 6.29 L 20.0 6.75 L 20.0 7.21 L 20.0 7.67 L 20.0 8.12 L 20.0 8.58 L 20.0 9.04 L 20.0 9.5 L 20.0 9.96 L 20.0 10.42 L 20.0 10.88 L 20.0 11.33 L 20.0 11.79 L 20.0 12.25 L 20.0 12.71 L 20.0 13.17 L 20.0 13.62 L 20.0 14.08 L 20.0 14.54 L 20.0 15.0" fill="none" stroke="#111" stroke-width="1.40" stroke-linecap="round" stroke-linejoin="round"/>
<path d="M 16.0 7.0 L 16.17 7.17 L 16.33 7.33 L 16.5 7.5 L 16.67 7.67 L 16.83 7.83 L 17.0 8.0 L 17.17 8.17 L 17.33 8.33 L 17.5 8.5 L 17.67 8.67 L 17.83 8.83 L 18.0 9.0 L 18.17 9.17 L 18.33 9.33 L 18.5 9.5 L 18.67 9.67 L 18.83 9.83 L 19.0 10.0 L 19.17 10.17 L 19.33 10.33 L 19.5 10.5 L 19.67 10.67 L 19.83 10.83 L 20.0 11.0" fill="none" stroke="#111" stroke-width="1.40" stroke-linecap="round" stroke-linejoin="round"/>
<path d="M 24.0 6.0 L 23.83 6.21 L 23.67 6.42 L 23.5 6.62 L 23.33 6.83 L 23.17 7.04 L 23.0 7.25 L 22.83 7.46 L 22.67 7.67 L 22.5 7.88 L 22.33 8.08 L 22.17 8.29 L 22.0 8.5 L 21.83 8.71 L 21.67 8.92 L 21.5 9.12 L 21.33 9.33 L 21.17 9.54 L 21.0 9.75 L 20.83 9.96 L 20.67 10.17 L 20.5 10.38 L 20.33 10.58 L 20.17 10.79 L 20.0 11.0" fill="none" stroke="#111" stroke-width="1.40" stroke-linecap="round" stroke-linejoin="round"/>
<path d="M 19.0 22.0 L 19.0 22.54 L 19.0 23.08 L 19.0 23.62 L 19.0 24.17 L 19.0 24.71 L 19.0 25.25 L 19.0 25.79 L 19.0 26.33 L 19.0 26.88 L 19.0 27.42 L 19.0 27.96 L 19.0 28.5 L 19.0 29.04 L 19.0 29.58 L 19.0 30.12 L 19.0 30.67 L 19.0 31.21 L 19.0 31.75 L 19.0 32.29 L 19.0 32.83 L 19.0 33.38 L 19.0 33.92 L 19.0 34.46 L 19.0 35.0" fill="none" stroke="#111" stroke-width="1.40" stroke-linecap="round" stroke-linejoin="round"/>
<path d="M 16.0 25.0 L 16.12 25.17 L 16.25 25.33 L 16.38 25.5 L 16.5 25.67 L 16.62 25.83 L 16.75 26.0 L 16.88 26.17 L 17.0 26.33 L 17.12 26.5 L 17.25 26.67 L 17.38 26.83 L 17.5 27.0 L 17.62 27.17 L 17.75 27.33 L 17.88 27.5 L 18.0 27.67 L 18.12 27.83 L 18.25 28.0 L 18.38 28.17 L 18.5 28.33 L 18.62 28.5 L 18.75 28.67 L 18.88 28.83 L 19.0 29.0" fill="none" stroke="#111" stroke-width="1.40" stroke-linecap="round" stroke-linejoin="round"/>
<path d="M 24.0 24.0 L 23.79 24.21 L 23.58 24.42 L 23.38 24.62 L 23.17 24.83 L 22.96 25.04 L 22.75 25.25 L 22.54 25.46 L 22.33 25.67 L 22.12 25.88 L 21.92 26.08 L 21.71 26.29 L 21.5 26.5 L 21.29 26.71 L 21.08 26.92 L 20.88 27.12 L 20.67 27.33 L 20.46 27.54 L 20.25 27.75 L 20.04 27.96 L 19.83 28.17 L 19.62 28.38 L 19.42 28.58 L 19.21 28.79 L 19.0 29.0" fill="none" stroke="#111" stroke-width="1.40" stroke-linecap="round" stroke-linejoin="round"/>
</svg>
