<?xml version="1.0" encoding="UTF-8"?>
<svg xmlns="http://www.w3.org/2000/svg" viewBox="0 0 31.00 39.00">
<path d="M 15.0 5.0 L 15.12 5.45 L 15.2 5.91 L 15.24 6.38 L 15.25 6.84 L 15.22 7.31 L 15.16 7.77 L 15.06 8.23 L 14.92 8.68 L 14.75 9.11 L 14.55 9.53 L 14.31 9.94 L 14.05 10.32 L 13.75 10.68 L 13.43 11.02 L 13.08 11.33 L 12.71 11.62 L 12.32 11.87 L 11.91 12.1 L 11.49 12.29 L 11.05 12.45 L 10.6 12.57 L 10.14 12.66 L 9.67 12.71 L 9.21 12.72" fill="none" stroke="#111" stroke-width="1.37" stroke-linecap="round" stroke-linejoin="round"/>
<path d="M 15.0 9.0 L 15.25 9.08 L 15.5 9.17 L 15.75 9.25 L 16.0 9.33 L 16.25 9.42 L 16.5 9.5 L 16.75 9.58 L 17.0 9.67 L 17.25 9.75 L 17.5 9.83 L 17.75 9.92 L 18.0 10.0 L 18.25 10.08 L 18.5 10.17 L 18.75 10.25 L 19.0 10.33 L 19.25 10.42 L 19.5 10.5 L 19.75 10.58 L 20.0 10.67 L 20.25 10.75 L 20.5 10.83 L 20.75 10.92 L 21.0 11.0" fill="none" stroke="#111" stroke-width="1.37" stroke-linecap="round" stroke-linejoin="round"/>
<path d="M 12.0 11.0 L 11.92 11.46 L 11.83 11.92 L 11.75 12.38 L 11.67 12.83 L 11.58 13.29 L 11.5 13.75 L 11.42 14.21 L 11.33 14.67 L 11.25 15.12 L 11.17 15.58 L 11.08 16.04 L 11.0 16.5 L 10.92 16.96 L 10.83 17.42 L 10.75 17.88 L 10.67 18.33 L 10.58 18.79 L 10.5 19.25 L 10.42 19.71 L 10.33 20.17 L 10.25 20.62 L 10.17 21.08 L 10.08 21.54 L 10.0 22.0" fill="none" stroke="#111" stroke-width="1.37" stroke-linecap="round" stroke-linejoin="round"/>
<path d="M 17.0 10.0 L 17.12 10.42 L 17.25 10.83 L 17.38 11.25 L 17.5 11.67 L 17.62 12.08 L 17.75 12.5 L 17.88 12.92 L 18.0 13.33 L 18.12 13.75 L 18.25 14.17 L 18.38 14.58 L 18.5 15.0 L 18.62 15.42 L 18.75 15.83 L 18.88 16.25 L 19.0 16.67 L 19.12 17.08 L 19.25 17.5 L 19.38 17.92 L 19.5 18.33 L 19.62 18.75 L 19.75 19.17 L 19.88 19.58 L 20.0 20.0" fill="none" stroke="#111" stroke-width="1.37" stroke-linecap="round" stroke-linejoin="round"/>
<path d="M 12.0 14.0 L 12.21 13.96 L 12.42 13.92 L 12.62 13.88 L 12.83 13.83 L 13.04 13.79 L 13.25 13.75 L 13.46 13.71 L 13.67 13.67 L 13.88 13.62 L 14.08 13.58 L 14.29 13.54 L 14.5 13.5 L 14.71 13.46 L 14.92 13.42 L 15.12 13.38 L 15.33 13.33 L 15.54 13.29 L 15.75 13.25 L 15.96 13.21 L 16.17 13.17 L 16.38 13.12 L 16.58 13.08 L 16.79 13.04 L 17.0 13.0" fill="none" stroke="#111" stroke-width="1.37" stroke-linecap="round" stroke-linejoin="round"/>
<path d="M 11.0 18.0 L 11.33 17.96 L 11.67 17.92 L 12.0 17.88 L 12.33 17.83 L 12.67 17.79 L 13.0 17.75 L 13.33 17.71 L 13.67 17.67 L 14.0 17.62 L 14.33 17.58 L 14.67 17.54 L 15.0 17.5 L 15.33 17.46 L 15.67 17.42 L 16.0 17.38 L 16.33 17.33 L 16.67 17.29 L 17.0 17.25 L 17.33 17.21 L 17.67 17.17 L 18.0 17.12 L 18.33 17.08 L 18.67 17.04 L 19.0 17.0" fill="none" stroke="#111" stroke-width="1.37" stroke-linecap="round" stroke-linejoin="round"/>
<path d="M 6.0 22.0 L 6.71 21.92 L 7.42 21.83 L 8.12 21.75 L 8.83 21.67 L 9.54 21.58 L 10.25 21.5 L 10.96 21.42 L 11.67 21.33 L 12.38 21.25 L 13.08 21.17 L 13.79 21.08 L 14.5 21.0 L 15.21 20.92 L 15.92 20.83 L 16.62 20.75 L 17.33 20.67 L 18.04 20.58 L 18.75 20.5 L 19.46 20.42 L 20.17 20.33 L 20.88 20.25 L 21.58 20.17 L 22.29 20.08 L 23.0 20.0" fill="none" stroke="#111" stroke-width="1.37" stroke-linecap="round" stroke-linejoin="round"/>
<path d="M 10.0 22.0 L 9.75 22.46 L 9.5 22.92 L 9.25 23.38 L 9.0 23.83 L 8.75 24.29 L 8.5 24.75 L 8.25 25.21 L 8.0 25.67 L 7.75 26.12 L 7.5 26.58 L 7.25 27.04 L 7.0 27.5 L 6.75 27.96 L 6.5 28.42 L 6.25 28.88 L 6.0 29.33 L 5.75 29.79 L 5.5 30.25 L 5.25 30.71 L 5.0 31.17 L 4.75 31.62 L 4.5 32.08 L 4.25 32.54 L 4.0 33.0" fill="none" stroke="#111" stroke-width="1.37" stroke-linecap="round" stroke-linejoin="round"/>
<path d="M 20.0 20.0 L 20.29 20.38 L 20.58 20.75 L 20.88 21.12 L 21.17 21.5 L 21.46 21.88 L 21.75 22.25 L 22.04 22.62 L 22.33 23.0 L 22.62 23.38 L 22.92 23.75 L 23.21 24.12 L 23.5 24.5 L 23.79 24.88 L 24.08 25.25 L 24.38 25.62 L 24.67 26.0 L 24.96 26.38 L 25.25 26.75 L 25.54 27.12 L 25.83 27.5 L 26.12 27.88 L 26.42 28.25 L 26.71 28.62 L 27.0 29.0" fill="none" stroke="#111" stroke-width="1.37" stroke-linecap="round" stroke-linejoin="round"/>
<path d="M 12.0 24.0 L 11.86 24.4 L 11.76 24.81 L 11.71 25.22 L 11.7 25.64 L 11.74 26.06 L 11.81 26.48 L 11.94 26.88 L 12.1 27.27 L 12.3 27.63 L 12.55 27.98 L 12.82 28.29 L 13.13 28.58 L 13.47 28.83 L 13.83 29.05 L 14.21 29.22 L 14.61 29.36 L 15.02 29.45 L 15.44 29.5 L 15.86 29.5 L 16.28 29.46 L 16.69 29.37 L 17.09 29.25 L 17.48 29.08 L 17.84 28.87" fill="none" stroke="#111" stroke-width="1.37" stroke-linecap="round" stroke-linejoin="round"/>
<path d="M 18.0 23.0 L 18.0 23.25 L 18.0 23.5 L 18.0 23.75 L 18.0 24.0 L 18.0 24.25 L 18.0 24.5 L 18.0 24.75 L 18.0 25.0 L 18.0 25.25 L 18.0 25.5 L 18.0 25.75 L 18.0 26.0 L 18.0 26.25 L 18.0 26.5 L 18.0 26.75 L 18.0 27.0 L 18.0 27.25 L 18.0 27.5 L 18.0 27.75 L 18.0 28.0 L 18.0 28.25 L 18.0 28.5 L 18.0 28.75 L 18.0 29.0" fill="none" stroke="#111" stroke-width="1.37" stroke-linecap="round" stroke-linejoin="round"/>
<path d="M 13.0 26.0 L 13.21 25.96 L 13.42 25.92 L 13.62 25.88 L 13.83 25.83 L 14.04 25.79 L 14.25 25.75 L 14.46 25.71 L 14.67 25.67 L 14.88 25.62 L 15.08 25.58 L 15.29 25.54 L 15.5 25.5 L 15.71 25.46 L 15.92 25.42 L 16.12 25.38 L 16.33 25.33 L 16.54 25.29 L 16.75 25.25 L 16.96 25.21 L 17.17 25.17 L 17.38 25.12 L 17.58 25.08 L 17.79 25.04 L 18.0 25.0" fill="none" stroke="#111" stroke-width="1.37" stroke-linecap="round" stroke-linejoin="round"/>
<path d="M 4.0 7.0 L 4.25 7.0 L 4.5 7.0 L 4.75 7.0 L 5.0 7.0 L 5.25 7.0 L 5.5 7.0 L 5.75 7.0 L 6.0 7.0 L 6.25 7.0 L 6.5 7.0 L 6.75 7.0 L 7.0 7.0 L 7.25 7.0 L 7.5 7.0 L 7.75 7.0 L 8.0 7.0 L 8.25 7.0 L 8.5 7.0 L 8.75 7.0 L 9.0 7.0 L 9.25 7.0 L 9.5 7.0 L 9.75 7.0 L 10.0 7.0" fill="none" stroke="#111" stroke-width="1.37" stroke-linecap="round" stroke-linejoin="round"/>
<path d="M 8.0 4.0 L 8.0 4.33 L 8.0 4.67 L 8.0 5.0 L 8.0 5.33 L 8.0 5.67 L 8.0 6.0 L 8.0 6.33 L 8.0 6.67 L 8.0 7.0 L 8.0 7.33 L 8.0 7.67 L 8.0 8.0 L 8.0 8.33 L 8.0 8.67 L 8.0 9.0 L 8.0 9.33 L 8.0 9.67 L 8.0 10.0 L 8.0 10.33 L 8.0 10.67 L 8.0 11.0 L 8.0 11.33 L 8.0 11.67 L 8.0 12.0" fill="none" stroke="#111" stroke-width="1.37" stroke-linecap="round" stroke-linejoin="round"/>
<path d="M 18.0 7.0 L 18.25 6.96 L 18.5 6.92 L 18.75 6.88 L 19.0 6.83 L 19.25 6.79 L 19.5 6.75 L 19.75 6.71 L 20.0 6.67 L 20.25 6.62 L 20.5 6.58 L 20.75 6.54 L 21.0 6.5 L 21.25 6.46 L 21.5 6.42 L 21.75 6.38 L 22.0 6.33 L 22.25 6.29 L 22.5 6.25 L 22.75 6.21 L 23.0 6.17 L 23.25 6.12 L 23.5 6.08 L 23.75 6.04 L 24.0 6.0" fill="none" stroke="#111" stroke-width="1.37" stroke-linecap="round" stroke-linejoin="round"/>
<path d="M 21.0 4.0 L 21.0 4.25 L 21.0 4.5 L 21.0 4.75 L 21.0 5.0 L 21.0 5.25 L 21.0 5.5 L 21.0 5.75 L 21.0 6.0 L 21.0 6.25 L 21.0 6.5 L 21.0 6.75 L 21.0 7.0 L 21.0 7.25 L 21.0 7.5 L 21.0 7.75 L 21.0 8.0 L 21.0 8.25 L 21.0 8.5 L 21.0 8.75 L 21.0 9.0 L 21.0 9.25 L 21.0 9.5 L 21.0 9.75 L 21.0 10.0" fill="none" stroke="#111" stroke-width="1.37" stroke-linecap="round" stroke-linejoin="round"/>
<path d="M 18.0 31.0 L 18.25 30.96 L 18.5 30.92 L 18.75 30.88 L 19.0 30.83 L 19.25 30.79 L 19.5 30.75 L 19.75 30.71 L 20.0 30.67 L 20.25 30.62 L 20.5 30.58 L 20.75 30.54 L 21.0 30.5 L 21.25 30.46 L 21.5 30.42 L 21.75 30.38 L 22.0 30.33 L 22.25 30.29 L 22.5 30.25 L 22.75 30.21 L 23.0 30.17 L 23.25 30.12 L 23.5 30.08 L 23.75 30.04 L 24.0 30.0" fill="none" stroke="#111" stroke-width="1.37" stroke-linecap="round" stroke-linejoin="round"/>
<path d="M 21.0 27.0 L 21.0 27.33 L 21.0 27.67 L 21.0 28.0 L 21.0 28.33 L 21.0 28.67 L 21.0 29.0 L 21.0 29.33 L 21.0 29.67 L 21.0 30.0 L 21.0 30.33 L 21.0 30.67 L 21.0 31.0 L 21.0 31.33 L 21.0 31.67 L 21.0 32.0 L 21.0 32.33 L 21.0 32.67 L 21.0 33.0 L 21.0 33.33 L 21.0 33.67 L 21.0 34.0 L 21.0 34.33 L 21.0 34.67 L 21.0 35.0" fill="none" stroke="#111" stroke-width="1.37" stroke-linecap="round" stroke-linejoin="round"/>
<path d="M 9.0 27.0 L 9.0 27.25 L 9.0 27.5 L 9.0 27.75 L 9.0 28.0 L 9.0 28.25 L 9.0 28.5 L 9.0 28.75 L 9.0 29.0 L 9.0 29.25 L 9.0 29.5 L 9.0 29.75 L 9.0 30.0 L 9.0 30.25 L 9.0 30.5 L 9.0 30.75 L 9.0 31.0 L 9.0 31.25 L 9.0 31.5 L 9.0 31.75 L 9.0 32.0 L 9.0 32.25 L 9.0 32.5 L 9.0 32.75 L 9.0 33.0" fill="none" stroke="#111" stroke-width="1.37" stroke-linecap="round" stroke-linejoin="round"/>
<path d="M 7.0 30.0 L 7.17 30.0 L 7.33 30.0 L 7.5 30.0 L 7.67 30.0 L 7.83 30.0 L 8.0 30.0 L 8.17 30.0 L 8.33 30.0 L 8.5 30.0 L 8.67 30.0 L 8.83 30.0 L 9.0 30.0 L 9.17 30.0 L 9.33 30.0 L 9.5 30.0 L 9.67 30.0 L 9.83 30.0 L 10.0 30.0 L 10.17 30.0 L 10.33 30.0 L 10.5 30.0 L 10.67 30.0 L 10.83 30.0 L 11.0 30.0" fill="none" stroke="#111" stroke-width="1.37" stroke-linecap="round" stroke-linejoin="round"/>
</svg>
