<?xml version="1.0" encoding="UTF-8"?>
<svg xmlns="http://www.w3.org/2000/svg" viewBox="0 0 20.08 34.00">
<path d="M 16.08 4.0 L 16.0 4.21 L 15.92 4.42 L 15.83 4.62 L 15.75 4.83 L 15.67 5.04 L 15.58 5.25 L 15.5 5.46 L 15.42 5.67 L 15.33 5.88 L 15.25 6.08 L 15.17 6.29 L 15.08 6.5 L 15.0 6.71 L 14.92 6.92 L 14.83 7.12 L 14.75 7.33 L 14.67 7.54 L 14.58 7.75 L 14.5 7.96 L 14.42 8.17 L 14.33 8.38 L 14.25 8.58 L 14.17 8.79 L 14.08 9.0 L 14.08 9.0 L 14.43 9.86 L 14.74 10.74 L 15.0 11.63 L 15.23 12.53 L 15.41 13.44 L 15.55 14.36 L 15.66 15.29 L 15.71 16.21 L 15.73 17.14 L 15.7 18.07 L 15.64 19.0 L 15.52 19.92 L 15.37 20.84 L 15.18 21.75 L 14.94 22.65 L 14.67 23.54 L 14.35 24.41 L 14.0 25.27 L 13.6 26.11 L 13.17 26.93 L 12.7 27.74 L 12.2 28.52 L 11.66 29.27 L 11.08 30.0" fill="none" stroke="#111" stroke-width="1.19" stroke-linecap="round" stroke-linejoin="round"/>
<path d="M 14.08 19.0 L 13.92 19.29 L 13.75 19.58 L 13.58 19.88 L 13.42 20.17 L 13.25 20.46 L 13.08 20.75 L 12.92 21.04 L 12.75 21.33 L 12.58 21.62 L 12.42 21.92 L 12.25 22.21 L 12.08 22.5 L 11.92 22.79 L 11.75 23.08 L 11.58 23.38 L 11.42 23.67 L 11.25 23.96 L 11.08 24.25 L 10.92 24.54 L 10.75 24.83 L 10.58 25.12 L 10.42 25.42 L 10.25 25.71 L 10.08 26.0" fill="none" stroke="#111" stroke-width="1.19" stroke-linecap="round" stroke-linejoin="round"/>
<path d="M 10.08 8.0 L 10.0 8.58 L 9.92 9.17 L 9.83 9.75 L 9.75 10.33 L 9.67 10.92 L 9.58 11.5 L 9.5 12.08 L 9.42 12.67 L 9.33 13.25 L 9.25 13.83 L 9.17 14.42 L 9.08 15.0 L 9.0 15.58 L 8.92 16.17 L 8.83 16.75 L 8.75 17.33 L 8.67 17.92 L 8.58 18.5 L 8.5 19.08 L 8.42 19.67 L 8.33 20.25 L 8.25 20.83 L 8.17 21.42 L 8.08 22.0" fill="none" stroke="#111" stroke-width="1.19" stroke-linecap="round" stroke-linejoin="round"/>
<path d="M 4.08 8.0 L 4.03 8.42 L 4.0 8.84 L 4.0 9.26 L 4.02 9.68 L 4.07 10.1 L 4.14 10.51 L 4.24 10.92 L 4.36 11.32 L 4.5 11.72 L 4.67 12.1 L 4.86 12.48 L 5.07 12.84 L 5.31 13.19 L 5.56 13.53 L 5.83 13.85 L 6.13 14.15 L 6.44 14.44 L 6.76 14.7 L 7.1 14.95 L 7.46 15.17 L 7.83 15.38 L 8.2 15.56 L 8.59 15.72 L 8.99 15.86" fill="none" stroke="#111" stroke-width="1.19" stroke-linecap="round" stroke-linejoin="round"/>
</svg>
