<?xml version="1.0" encoding="UTF-8"?>
<svg xmlns="http://www.w3.org/2000/svg" viewBox="0 0 25.86 26.34">
<path d="M 10.92 4.0 L 9.44 4.53 L 8.08 5.3 L 6.86 6.29 L 5.82 7.46 L 5.0 8.8 L 4.41 10.25 L 4.08 11.78 L 4.0 13.35 L 4.19 14.9 L 4.63 16.41 L 5.32 17.81 L 6.24 19.09 L 7.36 20.19 L 8.64 21.08 L 10.06 21.75 L 11.57 22.18 L 13.13 22.34 L 14.69 22.24 L 16.22 21.88 L 17.66 21.27 L 18.98 20.43 L 20.14 19.38 L 21.11 18.15 L 21.86 16.77 L 16.92 11.0 L 16.67 10.71 L 16.42 10.42 L 16.17 10.12 L 15.92 9.83 L 15.67 9.54 L 15.42 9.25 L 15.17 8.96 L 14.92 8.67 L 14.67 8.38 L 14.42 8.08 L 14.17 7.79 L 13.92 7.5 L 13.67 7.21 L 13.42 6.92 L 13.17 6.63 L 12.92 6.33 L 12.67 6.04 L 12.42 5.75 L 12.17 5.46 L 11.92 5.17 L 11.67 4.88 L 11.42 4.58 L 11.17 4.29 L 10.92 4.0" fill="none" stroke="#111" stroke-width="0.92" stroke-linecap="round" stroke-linejoin="round"/>
<path d="M 4.92 13.0 L 5.42 13.0 L 5.92 13.0 L 6.42 13.0 L 6.92 13.0 L 7.42 13.0 L 7.92 13.0 L 8.42 13.0 L 8.92 13.0 L 9.42 13.0 L 9.92 13.0 L 10.42 13.0 L 10.92 13.0 L 11.42 13.0 L 11.92 13.0 L 12.42 13.0 L 12.92 13.0 L 13.42 13.0 L 13.92 13.0 L 14.42 13.0 L 14.92 13.0 L 15.42 13.0 L 15.92 13.0 L 16.42 13.0 L 16.92 13.0" fill="none" stroke="#111" stroke-width="0.92" stroke-linecap="round" stroke-linejoin="round"/>
</svg>
