<?xml version="1.0" encoding="UTF-8"?>
<svg xmlns="http://www.w3.org/2000/svg" viewBox="0 0 22.00 37.00">
<path d="M 5.0 18.0 L 5.54 18.0 L 6.08 18.0 L 6.62 18.0 L 7.17 18.0 L 7.71 18.0 L 8.25 18.0 L 8.79 18.0 L 9.33 18.0 L 9.87 18.0 L 10.42 18.0 L 10.96 18.0 L 11.5 18.0 L 12.04 18.0 L 12.58 18.0 L 13.12 18.0 L 13.67 18.0 L 14.21 18.0 L 14.75 18.0 L 15.29 18.0 L 15.83 18.0 L 16.38 18.0 L 16.92 18.0 L 17.46 18.0 L 18.0 18.0" fill="none" stroke="#111" stroke-width="1.30" stroke-linecap="round" stroke-linejoin="round"/>
<path d="M 10.0 4.0 L 9.75 4.33 L 9.5 4.67 L 9.25 5.0 L 9.0 5.33 L 8.75 5.67 L 8.5 6.0 L 8.25 6.33 L 8.0 6.67 L 7.75 7.0 L 7.5 7.33 L 7.25 7.67 L 7.0 8.0 L 6.75 8.33 L 6.5 8.67 L 6.25 9.0 L 6.0 9.33 L 5.75 9.67 L 5.5 10.0 L 5.25 10.33 L 5.0 10.67 L 4.75 11.0 L 4.5 11.33 L 4.25 11.67 L 4.0 12.0" fill="none" stroke="#111" stroke-width="1.30" stroke-linecap="round" stroke-linejoin="round"/>
<path d="M 10.0 4.0 L 10.29 4.29 L 10.58 4.58 L 10.87 4.88 L 11.17 5.17 L 11.46 5.46 L 11.75 5.75 L 12.04 6.04 L 12.33 6.33 L 12.62 6.62 L 12.92 6.92 L 13.21 7.21 L 13.5 7.5 L 13.79 7.79 L 14.08 8.08 L 14.38 8.38 L 14.67 8.67 L 14.96 8.96 L 15.25 9.25 L 15.54 9.54 L 15.83 9.83 L 16.12 10.12 L 16.42 10.42 L 16.71 10.71 L 17.0 11.0" fill="none" stroke="#111" stroke-width="1.30" stroke-linecap="round" stroke-linejoin="round"/>
<path d="M 7.0 8.0 L 7.0 8.42 L 7.0 8.83 L 7.0 9.25 L 7.0 9.67 L 7.0 10.08 L 7.0 10.5 L 7.0 10.92 L 7.0 11.33 L 7.0 11.75 L 7.0 12.17 L 7.0 12.58 L 7.0 13.0 L 7.0 13.42 L 7.0 13.83 L 7.0 14.25 L 7.0 14.67 L 7.0 15.08 L 7.0 15.5 L 7.0 15.92 L 7.0 16.33 L 7.0 16.75 L 7.0 17.17 L 7.0 17.58 L 7.0 18.0" fill="none" stroke="#111" stroke-width="1.30" stroke-linecap="round" stroke-linejoin="round"/>
<path d="M 15.0 9.0 L 15.0 9.38 L 15.0 9.75 L 15.0 10.12 L 15.0 10.5 L 15.0 10.88 L 15.0 11.25 L 15.0 11.62 L 15.0 12.0 L 15.0 12.38 L 15.0 12.75 L 15.0 13.12 L 15.0 13.5 L 15.0 13.88 L 15.0 14.25 L 15.0 14.62 L 15.0 15.0 L 15.0 15.38 L 15.0 15.75 L 15.0 16.12 L 15.0 16.5 L 15.0 16.88 L 15.0 17.25 L 15.0 17.62 L 15.0 18.0" fill="none" stroke="#111" stroke-width="1.30" stroke-linecap="round" stroke-linejoin="round"/>
<path d="M 7.0 12.0 L 7.33 12.0 L 7.67 12.0 L 8.0 12.0 L 8.33 12.0 L 8.67 12.0 L 9.0 12.0 L 9.33 12.0 L 9.67 12.0 L 10.0 12.0 L 10.33 12.0 L 10.67 12.0 L 11.0 12.0 L 11.33 12.0 L 11.67 12.0 L 12.0 12.0 L 12.33 12.0 L 12.67 12.0 L 13.0 12.0 L 13.33 12.0 L 13.67 12.0 L 14.0 12.0 L 14.33 12.0 L 14.67 12.0 L 15.0 12.0" fill="none" stroke="#111" stroke-width="1.30" stroke-linecap="round" stroke-linejoin="round"/>
<path d="M 7.0 14.0 L 7.33 14.0 L 7.67 14.0 L 8.0 14.0 L 8.33 14.0 L 8.67 14.0 L 9.0 14.0 L 9.33 14.0 L 9.67 14.0 L 10.0 14.0 L 10.33 14.0 L 10.67 14.0 L 11.0 14.0 L 11.33 14.0 L 11.67 14.0 L 12.0 14.0 L 12.33 14.0 L 12.67 14.0 L 13.0 14.0 L 13.33 14.0 L 13.67 14.0 L 14.0 14.0 L 14.33 14.0 L 14.67 14.0 L 15.0 14.0" fill="none" stroke="#111" stroke-width="1.30" stroke-linecap="round" stroke-linejoin="round"/>
<path d="M 6.0 18.0 L 6.0 18.42 L 6.0 18.83 L 6.0 19.25 L 6.0 19.67 L 6.0 20.08 L 6.0 20.5 L 6.0 20.92 L 6.0 21.33 L 6.0 21.75 L 6.0 22.17 L 6.0 22.58 L 6.0 23.0 L 6.0 23.42 L 6.0 23.83 L 6.0 24.25 L 6.0 24.67 L 6.0 25.08 L 6.0 25.5 L 6.0 25.92 L 6.0 26.33 L 6.0 26.75 L 6.0 27.17 L 6.0 27.58 L 6.0 28.0" fill="none" stroke="#111" stroke-width="1.30" stroke-linecap="round" stroke-linejoin="round"/>
<path d="M 18.0 18.0 L 17.96 18.42 L 17.92 18.83 L 17.88 19.25 L 17.83 19.67 L 17.79 20.08 L 17.75 20.5 L 17.71 20.92 L 17.67 21.33 L 17.62 21.75 L 17.58 22.17 L 17.54 22.58 L 17.5 23.0 L 17.46 23.42 L 17.42 23.83 L 17.38 24.25 L 17.33 24.67 L 17.29 25.08 L 17.25 25.5 L 17.21 25.92 L 17.17 26.33 L 17.12 26.75 L 17.08 27.17 L 17.04 27.58 L 17.0 28.0" fill="none" stroke="#111" stroke-width="1.30" stroke-linecap="round" stroke-linejoin="round"/>
<path d="M 6.0 21.0 L 6.36 21.43 L 6.75 21.83 L 7.17 22.2 L 7.62 22.53 L 8.1 22.83 L 8.59 23.1 L 9.1 23.33 L 9.63 23.51 L 10.17 23.66 L 10.72 23.76 L 11.28 23.83 L 11.84 23.85 L 12.4 23.83 L 12.95 23.76 L 13.5 23.66 L 14.04 23.51 L 14.57 23.33 L 15.08 23.1 L 15.58 22.83 L 16.05 22.53 L 16.5 22.2 L 16.92 21.83 L 17.31 21.43 L 17.67 21.0" fill="none" stroke="#111" stroke-width="1.30" stroke-linecap="round" stroke-linejoin="round"/>
<path d="M 6.0 23.0 L 6.24 23.51 L 6.53 24.0 L 6.87 24.46 L 7.25 24.88 L 7.67 25.26 L 8.13 25.6 L 8.61 25.89 L 9.12 26.13 L 9.66 26.32 L 10.21 26.46 L 10.77 26.54 L 11.34 26.57 L 11.9 26.54 L 12.46 26.46 L 13.01 26.32 L 13.55 26.13 L 14.06 25.89 L 14.54 25.6 L 15.0 25.26 L 15.42 24.88 L 15.8 24.46 L 16.14 24.0 L 16.43 23.51 L 16.67 23.0" fill="none" stroke="#111" stroke-width="1.30" stroke-linecap="round" stroke-linejoin="round"/>
<path d="M 14.0 21.0 L 13.58 21.06 L 13.17 21.15 L 12.77 21.28 L 12.38 21.45 L 12.01 21.66 L 11.66 21.9 L 11.33 22.17 L 11.04 22.47 L 10.77 22.79 L 10.53 23.15 L 10.33 23.52 L 10.16 23.91 L 10.03 24.31 L 9.94 24.72 L 9.89 25.14 L 9.87 25.57 L 9.9 25.99 L 9.97 26.41 L 10.07 26.82 L 10.22 27.21 L 10.4 27.6 L 10.61 27.96 L 10.86 28.3 L 11.14 28.62 L 11.0 29.0 L 10.92 29.17 L 10.83 29.33 L 10.75 29.5 L 10.67 29.67 L 10.58 29.83 L 10.5 30.0 L 10.42 30.17 L 10.33 30.33 L 10.25 30.5 L 10.17 30.67 L 10.08 30.83 L 10.0 31.0 L 9.92 31.17 L 9.83 31.33 L 9.75 31.5 L 9.67 31.67 L 9.58 31.83 L 9.5 32.0 L 9.42 32.17 L 9.33 32.33 L 9.25 32.5 L 9.17 32.67 L 9.08 32.83 L 9.0 33.0" fill="none" stroke="#111" stroke-width="1.30" stroke-linecap="round" stroke-linejoin="round"/>
</svg>
