<?xml version="1.0" encoding="UTF-8"?>
<svg xmlns="http://www.w3.org/2000/svg" viewBox="0 0 25.62 32.72">
<path d="M 10.4 5.0 L 10.44 5.96 L 10.48 6.92 L 10.53 7.88 L 10.57 8.83 L 10.61 9.79 L 10.65 10.75 L 10.69 11.71 L 10.73 12.67 L 10.78 13.62 L 10.82 14.58 L 10.86 15.54 L 10.9 16.5 L 10.94 17.46 L 10.98 18.42 L 11.03 19.38 L 11.07 20.33 L 11.11 21.29 L 11.15 22.25 L 11.19 23.21 L 11.23 24.17 L 11.28 25.12 L 11.32 26.08 L 11.36 27.04 L 11.4 28.0" fill="none" stroke="#111" stroke-width="1.15" stroke-linecap="round" stroke-linejoin="round"/>
<path d="M 15.4 7.0 L 14.99 7.11 L 14.58 7.23 L 14.17 7.38 L 13.77 7.54 L 13.38 7.72 L 13.0 7.92 L 12.63 8.14 L 12.27 8.37 L 11.93 8.62 L 11.59 8.89 L 11.26 9.17 L 10.95 9.46 L 10.66 9.78 L 10.38 10.1 L 10.11 10.44 L 9.86 10.78 L 9.63 11.14 L 9.41 11.52 L 9.21 11.9 L 9.03 12.28 L 8.87 12.68 L 8.72 13.09 L 8.6 13.5 L 8.49 13.91 L 8.4 14.0 L 7.67 14.3 L 6.99 14.69 L 6.35 15.16 L 5.77 15.7 L 5.27 16.3 L 4.84 16.97 L 4.5 17.67 L 4.24 18.42 L 4.07 19.19 L 4.0 19.98 L 4.02 20.77 L 4.14 21.55 L 4.35 22.31 L 4.66 23.04 L 5.04 23.72 L 5.51 24.36 L 6.05 24.93 L 6.66 25.44 L 7.32 25.87 L 8.03 26.21 L 8.77 26.47 L 9.55 26.64 L 10.33 26.71 L 11.12 26.68" fill="none" stroke="#111" stroke-width="1.15" stroke-linecap="round" stroke-linejoin="round"/>
<path d="M 6.4 8.0 L 7.35 8.42 L 8.27 8.91 L 9.14 9.48 L 9.96 10.11 L 10.73 10.8 L 11.45 11.56 L 12.1 12.37 L 12.69 13.22 L 13.21 14.12 L 13.65 15.06 L 14.02 16.03 L 14.31 17.03 L 14.53 18.05 L 14.66 19.08 L 14.71 20.12 L 14.67 21.15 L 14.56 22.19 L 14.36 23.21 L 14.09 24.21 L 13.73 25.18 L 13.3 26.13 L 12.8 27.04 L 12.22 27.9 L 11.58 28.72" fill="none" stroke="#111" stroke-width="1.15" stroke-linecap="round" stroke-linejoin="round"/>
<path d="M 5.4 20.0 L 5.82 20.0 L 6.23 20.0 L 6.65 20.0 L 7.07 20.0 L 7.48 20.0 L 7.9 20.0 L 8.32 20.0 L 8.73 20.0 L 9.15 20.0 L 9.57 20.0 L 9.98 20.0 L 10.4 20.0 L 10.82 20.0 L 11.23 20.0 L 11.65 20.0 L 12.07 20.0 L 12.48 20.0 L 12.9 20.0 L 13.32 20.0 L 13.73 20.0 L 14.15 20.0 L 14.57 20.0 L 14.98 20.0 L 15.4 20.0" fill="none" stroke="#111" stroke-width="1.15" stroke-linecap="round" stroke-linejoin="round"/>
<path d="M 19.4 4.0 L 19.84 4.53 L 20.23 5.09 L 20.58 5.68 L 20.88 6.3 L 21.13 6.94 L 21.33 7.59 L 21.48 8.26 L 21.58 8.94 L 21.62 9.63 L 21.61 10.31 L 21.55 11.0 L 21.43 11.67 L 21.26 12.34 L 21.04 12.99 L 20.77 13.62 L 20.45 14.22 L 20.08 14.8 L 19.67 15.35 L 19.22 15.87 L 18.73 16.35 L 18.2 16.79 L 17.64 17.18 L 17.05 17.53 L 16.44 17.84" fill="none" stroke="#111" stroke-width="1.15" stroke-linecap="round" stroke-linejoin="round"/>
<path d="M 16.4 12.0 L 16.72 12.37 L 17.02 12.75 L 17.3 13.15 L 17.56 13.57 L 17.79 14.0 L 18.0 14.44 L 18.19 14.89 L 18.35 15.35 L 18.48 15.82 L 18.59 16.29 L 18.68 16.77 L 18.73 17.26 L 18.77 17.74 L 18.77 18.23 L 18.75 18.72 L 18.7 19.2 L 18.62 19.68 L 18.52 20.16 L 18.4 20.63 L 18.24 21.1 L 18.06 21.55 L 17.86 21.99 L 17.64 22.43 L 17.39 22.85" fill="none" stroke="#111" stroke-width="1.15" stroke-linecap="round" stroke-linejoin="round"/>
</svg>
