<?xml version="1.0" encoding="UTF-8"?>
<svg xmlns="http://www.w3.org/2000/svg" viewBox="0 0 28.87 28.68">
<path d="M 6.96 9.0 L 7.48 9.49 L 7.96 10.03 L 8.39 10.6 L 8.76 11.22 L 9.08 11.86 L 9.34 12.53 L 9.54 13.22 L 9.67 13.92 L 9.74 14.64 L 9.75 15.36 L 9.7 16.07 L 9.58 16.78 L 9.4 17.48 L 9.16 18.15 L 8.85 18.8 L 8.49 19.42 L 8.08 20.01 L 7.62 20.56 L 7.11 21.06 L 6.55 21.52 L 5.96 21.92 L 5.33 22.28 L 4.68 22.57 L 4.0 22.8" fill="none" stroke="#111" stroke-width="1.01" stroke-linecap="round" stroke-linejoin="round"/>
<path d="M 18.96 4.0 L 18.37 4.85 L 17.85 5.75 L 17.39 6.68 L 17.01 7.64 L 16.71 8.64 L 16.48 9.65 L 16.33 10.67 L 16.26 11.71 L 16.27 12.74 L 16.36 13.78 L 16.53 14.8 L 16.78 15.81 L 17.1 16.79 L 17.5 17.75 L 17.97 18.67 L 18.51 19.56 L 19.11 20.4 L 19.78 21.19 L 20.51 21.93 L 21.29 22.61 L 22.12 23.23 L 23.0 23.78 L 23.91 24.26 L 24.87 24.68" fill="none" stroke="#111" stroke-width="1.01" stroke-linecap="round" stroke-linejoin="round"/>
</svg>
