<?xml version="1.0" encoding="UTF-8"?>
<svg xmlns="http://www.w3.org/2000/svg" viewBox="0 0 26.21 33.86">
<path d="M 4.02 20.0 L 4.77 20.0 L 5.52 20.0 L 6.27 20.0 L 7.02 20.0 L 7.77 20.0 L 8.52 20.0 L 9.27 20.0 L 10.02 20.0 L 10.77 20.0 L 11.52 20.0 L 12.27 20.0 L 13.02 20.0 L 13.77 20.0 L 14.52 20.0 L 15.27 20.0 L 16.02 20.0 L 16.77 20.0 L 17.52 20.0 L 18.27 20.0 L 19.02 20.0 L 19.77 20.0 L 20.52 20.0 L 21.27 20.0 L 22.02 20.0" fill="none" stroke="#111" stroke-width="1.19" stroke-linecap="round" stroke-linejoin="round"/>
<path d="M 4.02 20.0 L 4.0 21.25 L 4.16 22.5 L 4.48 23.71 L 4.97 24.87 L 5.61 25.94 L 6.4 26.92 L 7.31 27.79 L 8.33 28.51 L 9.44 29.1 L 10.62 29.52 L 11.85 29.78 L 13.1 29.86 L 14.36 29.78 L 15.58 29.52 L 16.76 29.1 L 17.88 28.51 L 18.9 27.79 L 19.81 26.92 L 20.59 25.94 L 21.24 24.87 L 21.73 23.71 L 22.05 22.5 L 22.21 21.25 L 22.19 20.0" fill="none" stroke="#111" stroke-width="1.19" stroke-linecap="round" stroke-linejoin="round"/>
<path d="M 5.02 24.0 L 5.64 24.0 L 6.27 24.0 L 6.89 24.0 L 7.52 24.0 L 8.14 24.0 L 8.77 24.0 L 9.39 24.0 L 10.02 24.0 L 10.64 24.0 L 11.27 24.0 L 11.89 24.0 L 12.52 24.0 L 13.14 24.0 L 13.77 24.0 L 14.39 24.0 L 15.02 24.0 L 15.64 24.0 L 16.27 24.0 L 16.89 24.0 L 17.52 24.0 L 18.14 24.0 L 18.77 24.0 L 19.39 24.0 L 20.02 24.0" fill="none" stroke="#111" stroke-width="1.19" stroke-linecap="round" stroke-linejoin="round"/>
<path d="M 12.02 20.0 L 12.02 20.33 L 12.02 20.67 L 12.02 21.0 L 12.02 21.33 L 12.02 21.67 L 12.02 22.0 L 12.02 22.33 L 12.02 22.67 L 12.02 23.0 L 12.02 23.33 L 12.02 23.67 L 12.02 24.0 L 12.02 24.33 L 12.02 24.67 L 12.02 25.0 L 12.02 25.33 L 12.02 25.67 L 12.02 26.0 L 12.02 26.33 L 12.02 26.67 L 12.02 27.0 L 12.02 27.33 L 12.02 27.67 L 12.02 28.0" fill="none" stroke="#111" stroke-width="1.19" stroke-linecap="round" stroke-linejoin="round"/>
<path d="M 6.02 4.0 L 6.5 4.54 L 6.97 5.1 L 7.41 5.67 L 7.84 6.25 L 8.25 6.85 L 8.64 7.46 L 9.02 8.08 L 9.37 8.72 L 9.7 9.36 L 10.0 10.02 L 10.29 10.69 L 10.56 11.36 L 10.8 12.05 L 11.02 12.74 L 11.22 13.43 L 11.4 14.14 L 11.55 14.85 L 11.68 15.56 L 11.79 16.28 L 11.87 17.0 L 11.93 17.72 L 11.97 18.44 L 11.99 19.17 L 11.98 19.89" fill="none" stroke="#111" stroke-width="1.19" stroke-linecap="round" stroke-linejoin="round"/>
<path d="M 17.02 5.0 L 17.02 5.62 L 17.02 6.25 L 17.02 6.88 L 17.02 7.5 L 17.02 8.12 L 17.02 8.75 L 17.02 9.38 L 17.02 10.0 L 17.02 10.62 L 17.02 11.25 L 17.02 11.88 L 17.02 12.5 L 17.02 13.12 L 17.02 13.75 L 17.02 14.38 L 17.02 15.0 L 17.02 15.62 L 17.02 16.25 L 17.02 16.88 L 17.02 17.5 L 17.02 18.12 L 17.02 18.75 L 17.02 19.38 L 17.02 20.0" fill="none" stroke="#111" stroke-width="1.19" stroke-linecap="round" stroke-linejoin="round"/>
</svg>
