<?xml version="1.0" encoding="UTF-8"?>
<svg xmlns="http://www.w3.org/2000/svg" viewBox="0 0 22.33 32.68">
<path d="M 4.33 4.0 L 4.91 4.0 L 5.5 4.0 L 6.08 4.0 L 6.66 4.0 L 7.25 4.0 L 7.83 4.0 L 8.41 4.0 L 9.0 4.0 L 9.58 4.0 L 10.16 4.0 L 10.75 4.0 L 11.33 4.0 L 11.91 4.0 L 12.5 4.0 L 13.08 4.0 L 13.66 4.0 L 14.25 4.0 L 14.83 4.0 L 15.41 4.0 L 16.0 4.0 L 16.58 4.0 L 17.16 4.0 L 17.75 4.0 L 18.33 4.0" fill="none" stroke="#111" stroke-width="1.14" stroke-linecap="round" stroke-linejoin="round"/>
<path d="M 7.33 4.0 L 7.45 4.25 L 7.58 4.5 L 7.7 4.75 L 7.83 5.0 L 7.95 5.25 L 8.08 5.5 L 8.2 5.75 L 8.33 6.0 L 8.45 6.25 L 8.58 6.5 L 8.7 6.75 L 8.83 7.0 L 8.95 7.25 L 9.08 7.5 L 9.2 7.75 L 9.33 8.0 L 9.45 8.25 L 9.58 8.5 L 9.7 8.75 L 9.83 9.0 L 9.95 9.25 L 10.08 9.5 L 10.2 9.75 L 10.33 10.0" fill="none" stroke="#111" stroke-width="1.14" stroke-linecap="round" stroke-linejoin="round"/>
<path d="M 15.33 4.0 L 15.12 4.25 L 14.91 4.5 L 14.7 4.75 L 14.5 5.0 L 14.29 5.25 L 14.08 5.5 L 13.87 5.75 L 13.66 6.0 L 13.45 6.25 L 13.25 6.5 L 13.04 6.75 L 12.83 7.0 L 12.62 7.25 L 12.41 7.5 L 12.2 7.75 L 12.0 8.0 L 11.79 8.25 L 11.58 8.5 L 11.37 8.75 L 11.16 9.0 L 10.95 9.25 L 10.75 9.5 L 10.54 9.75 L 10.33 10.0" fill="none" stroke="#111" stroke-width="1.14" stroke-linecap="round" stroke-linejoin="round"/>
<path d="M 10.33 10.0 L 9.73 10.44 L 9.15 10.91 L 8.6 11.4 L 8.07 11.93 L 7.57 12.48 L 7.1 13.05 L 6.66 13.65 L 6.25 14.26 L 5.87 14.9 L 5.53 15.56 L 5.21 16.23 L 4.94 16.92 L 4.69 17.62 L 4.49 18.34 L 4.31 19.06 L 4.18 19.79 L 4.08 20.53 L 4.02 21.27 L 4.0 22.01 L 4.01 22.75 L 4.07 23.49 L 4.16 24.23 L 4.28 24.96 L 4.45 25.68" fill="none" stroke="#111" stroke-width="1.14" stroke-linecap="round" stroke-linejoin="round"/>
<path d="M 10.33 10.0 L 10.16 10.65 L 10.01 11.31 L 9.87 11.97 L 9.75 12.63 L 9.64 13.29 L 9.55 13.96 L 9.47 14.63 L 9.4 15.3 L 9.35 15.97 L 9.31 16.64 L 9.29 17.31 L 9.28 17.99 L 9.29 18.66 L 9.31 19.33 L 9.35 20.0 L 9.4 20.67 L 9.47 21.34 L 9.55 22.01 L 9.64 22.68 L 9.75 23.34 L 9.87 24.01 L 10.01 24.66 L 10.16 25.32 L 10.33 25.97" fill="none" stroke="#111" stroke-width="1.14" stroke-linecap="round" stroke-linejoin="round"/>
<path d="M 10.33 10.0 L 11.09 10.48 L 11.81 11.0 L 12.51 11.56 L 13.17 12.17 L 13.79 12.81 L 14.37 13.49 L 14.9 14.21 L 15.39 14.96 L 15.84 15.73 L 16.23 16.53 L 16.58 17.36 L 16.88 18.2 L 17.12 19.06 L 17.31 19.94 L 17.45 20.82 L 17.53 21.71 L 17.55 22.61 L 17.53 23.5 L 17.44 24.39 L 17.31 25.28 L 17.12 26.15 L 16.87 27.01 L 16.58 27.86 L 16.23 28.68" fill="none" stroke="#111" stroke-width="1.14" stroke-linecap="round" stroke-linejoin="round"/>
</svg>
