<?xml version="1.0" encoding="UTF-8"?>
<svg xmlns="http://www.w3.org/2000/svg" viewBox="0 0 21.00 39.00">
<path d="M 8.0 4.0 L 7.87 4.38 L 7.75 4.75 L 7.62 5.12 L 7.5 5.5 L 7.37 5.88 L 7.25 6.25 L 7.12 6.62 L 7.0 7.0 L 6.87 7.38 L 6.75 7.75 L 6.62 8.12 L 6.5 8.5 L 6.37 8.88 L 6.25 9.25 L 6.12 9.62 L 6.0 10.0 L 5.87 10.38 L 5.75 10.75 L 5.62 11.12 L 5.5 11.5 L 5.37 11.88 L 5.25 12.25 L 5.12 12.62 L 5.0 13.0" fill="none" stroke="#111" stroke-width="1.37" stroke-linecap="round" stroke-linejoin="round"/>
<path d="M 11.0 4.0 L 11.21 4.46 L 11.42 4.92 L 11.62 5.38 L 11.83 5.83 L 12.04 6.29 L 12.25 6.75 L 12.46 7.21 L 12.67 7.67 L 12.87 8.12 L 13.08 8.58 L 13.29 9.04 L 13.5 9.5 L 13.71 9.96 L 13.92 10.42 L 14.12 10.88 L 14.33 11.33 L 14.54 11.79 L 14.75 12.25 L 14.96 12.71 L 15.17 13.17 L 15.38 13.62 L 15.58 14.08 L 15.79 14.54 L 16.0 15.0" fill="none" stroke="#111" stroke-width="1.37" stroke-linecap="round" stroke-linejoin="round"/>
<path d="M 6.0 13.0 L 6.46 13.25 L 6.92 13.5 L 7.37 13.75 L 7.83 14.0 L 8.29 14.25 L 8.75 14.5 L 9.21 14.75 L 9.67 15.0 L 10.12 15.25 L 10.58 15.5 L 11.04 15.75 L 11.5 16.0 L 11.96 16.25 L 12.42 16.5 L 12.87 16.75 L 13.33 17.0 L 13.79 17.25 L 14.25 17.5 L 14.71 17.75 L 15.17 18.0 L 15.62 18.25 L 16.08 18.5 L 16.54 18.75 L 17.0 19.0" fill="none" stroke="#111" stroke-width="1.37" stroke-linecap="round" stroke-linejoin="round"/>
<path d="M 10.0 12.0 L 10.62 12.81 L 11.18 13.67 L 11.68 14.57 L 12.12 15.5 L 12.48 16.46 L 12.77 17.44 L 13.0 18.44 L 13.14 19.45 L 13.22 20.48 L 13.22 21.5 L 13.15 22.52 L 13.0 23.54 L 12.78 24.54 L 12.49 25.52 L 12.13 26.48 L 11.7 27.41 L 11.2 28.31 L 10.64 29.17 L 10.02 29.98 L 9.34 30.75 L 8.61 31.47 L 7.83 32.13 L 7.0 32.74 L 6.13 33.28" fill="none" stroke="#111" stroke-width="1.37" stroke-linecap="round" stroke-linejoin="round"/>
<path d="M 10.0 17.0 L 9.75 17.33 L 9.5 17.67 L 9.25 18.0 L 9.0 18.33 L 8.75 18.67 L 8.5 19.0 L 8.25 19.33 L 8.0 19.67 L 7.75 20.0 L 7.5 20.33 L 7.25 20.67 L 7.0 21.0 L 6.75 21.33 L 6.5 21.67 L 6.25 22.0 L 6.0 22.33 L 5.75 22.67 L 5.5 23.0 L 5.25 23.33 L 5.0 23.67 L 4.75 24.0 L 4.5 24.33 L 4.25 24.67 L 4.0 25.0" fill="none" stroke="#111" stroke-width="1.37" stroke-linecap="round" stroke-linejoin="round"/>
<path d="M 7.0 21.0 L 7.08 21.42 L 7.17 21.83 L 7.25 22.25 L 7.33 22.67 L 7.42 23.08 L 7.5 23.5 L 7.58 23.92 L 7.67 24.33 L 7.75 24.75 L 7.83 25.17 L 7.92 25.58 L 8.0 26.0 L 8.08 26.42 L 8.17 26.83 L 8.25 27.25 L 8.33 27.67 L 8.42 28.08 L 8.5 28.5 L 8.58 28.92 L 8.67 29.33 L 8.75 29.75 L 8.83 30.17 L 8.92 30.58 L 9.0 31.0" fill="none" stroke="#111" stroke-width="1.37" stroke-linecap="round" stroke-linejoin="round"/>
<path d="M 10.0 30.0 L 10.12 30.21 L 10.25 30.42 L 10.37 30.62 L 10.5 30.83 L 10.62 31.04 L 10.75 31.25 L 10.87 31.46 L 11.0 31.67 L 11.12 31.88 L 11.25 32.08 L 11.37 32.29 L 11.5 32.5 L 11.62 32.71 L 11.75 32.92 L 11.87 33.12 L 12.0 33.33 L 12.12 33.54 L 12.25 33.75 L 12.37 33.96 L 12.5 34.17 L 12.62 34.38 L 12.75 34.58 L 12.87 34.79 L 13.0 35.0" fill="none" stroke="#111" stroke-width="1.37" stroke-linecap="round" stroke-linejoin="round"/>
</svg>
