<?xml version="1.0" encoding="UTF-8"?>
<svg xmlns="http://www.w3.org/2000/svg" viewBox="0 0 33.00 36.00">
<path d="M 17.0 4.0 L 16.96 4.38 L 16.92 4.75 L 16.88 5.12 L 16.83 5.5 L 16.79 5.88 L 16.75 6.25 L 16.71 6.62 L 16.67 7.0 L 16.62 7.38 L 16.58 7.75 L 16.54 8.12 L 16.5 8.5 L 16.46 8.88 L 16.42 9.25 L 16.38 9.62 L 16.33 10.0 L 16.29 10.38 L 16.25 10.75 L 16.21 11.12 L 16.17 11.5 L 16.12 11.88 L 16.08 12.25 L 16.04 12.63 L 16.0 13.0" fill="none" stroke="#111" stroke-width="1.26" stroke-linecap="round" stroke-linejoin="round"/>
<path d="M 18.0 20.0 L 18.17 20.32 L 18.32 20.64 L 18.44 20.98 L 18.53 21.33 L 18.59 21.68 L 18.63 22.04 L 18.64 22.39 L 18.62 22.75 L 18.57 23.11 L 18.5 23.46 L 18.4 23.8 L 18.27 24.14 L 18.12 24.46 L 17.94 24.77 L 17.73 25.07 L 17.51 25.35 L 17.26 25.61 L 17.0 25.85 L 16.71 26.07 L 16.41 26.26 L 16.1 26.43 L 15.77 26.58 L 15.43 26.7 L 15.09 26.79" fill="none" stroke="#111" stroke-width="1.26" stroke-linecap="round" stroke-linejoin="round"/>
<path d="M 14.0 25.0 L 14.08 25.29 L 14.17 25.58 L 14.25 25.88 L 14.33 26.17 L 14.42 26.46 L 14.5 26.75 L 14.58 27.04 L 14.67 27.33 L 14.75 27.62 L 14.83 27.92 L 14.92 28.21 L 15.0 28.5 L 15.08 28.79 L 15.17 29.08 L 15.25 29.38 L 15.33 29.67 L 15.42 29.96 L 15.5 30.25 L 15.58 30.54 L 15.67 30.83 L 15.75 31.12 L 15.83 31.42 L 15.92 31.71 L 16.0 32.0" fill="none" stroke="#111" stroke-width="1.26" stroke-linecap="round" stroke-linejoin="round"/>
<path d="M 17.0 24.0 L 16.96 24.33 L 16.92 24.67 L 16.88 25.0 L 16.83 25.33 L 16.79 25.67 L 16.75 26.0 L 16.71 26.33 L 16.67 26.67 L 16.62 27.0 L 16.58 27.33 L 16.54 27.67 L 16.5 28.0 L 16.46 28.33 L 16.42 28.67 L 16.38 29.0 L 16.33 29.33 L 16.29 29.67 L 16.25 30.0 L 16.21 30.33 L 16.17 30.67 L 16.12 31.0 L 16.08 31.33 L 16.04 31.67 L 16.0 32.0" fill="none" stroke="#111" stroke-width="1.26" stroke-linecap="round" stroke-linejoin="round"/>
<path d="M 6.0 16.0 L 6.21 16.0 L 6.42 16.0 L 6.62 16.0 L 6.83 16.0 L 7.04 16.0 L 7.25 16.0 L 7.46 16.0 L 7.67 16.0 L 7.88 16.0 L 8.08 16.0 L 8.29 16.0 L 8.5 16.0 L 8.71 16.0 L 8.92 16.0 L 9.12 16.0 L 9.33 16.0 L 9.54 16.0 L 9.75 16.0 L 9.96 16.0 L 10.17 16.0 L 10.38 16.0 L 10.58 16.0 L 10.79 16.0 L 11.0 16.0" fill="none" stroke="#111" stroke-width="1.26" stroke-linecap="round" stroke-linejoin="round"/>
<path d="M 6.0 16.0 L 6.0 16.12 L 6.0 16.25 L 6.0 16.38 L 6.0 16.5 L 6.0 16.62 L 6.0 16.75 L 6.0 16.88 L 6.0 17.0 L 6.0 17.12 L 6.0 17.25 L 6.0 17.38 L 6.0 17.5 L 6.0 17.62 L 6.0 17.75 L 6.0 17.88 L 6.0 18.0 L 6.0 18.12 L 6.0 18.25 L 6.0 18.38 L 6.0 18.5 L 6.0 18.62 L 6.0 18.75 L 6.0 18.88 L 6.0 19.0 L 6.0 19.0 L 6.29 19.0 L 6.58 19.0 L 6.88 19.0 L 7.17 19.0 L 7.46 19.0 L 7.75 19.0 L 8.04 19.0 L 8.33 19.0 L 8.62 19.0 L 8.92 19.0 L 9.21 19.0 L 9.5 19.0 L 9.79 19.0 L 10.08 19.0 L 10.38 19.0 L 10.67 19.0 L 10.96 19.0 L 11.25 19.0 L 11.54 19.0 L 11.83 19.0 L 12.12 19.0 L 12.42 19.0 L 12.71 19.0 L 13.0 19.0" fill="none" stroke="#111" stroke-width="1.26" stroke-linecap="round" stroke-linejoin="round"/>
<path d="M 9.0 16.0 L 8.93 16.29 L 8.88 16.59 L 8.85 16.9 L 8.85 17.2 L 8.87 17.5 L 8.92 17.8 L 8.99 18.1 L 9.08 18.39 L 9.2 18.67 L 9.34 18.94 L 9.5 19.19 L 9.68 19.44 L 9.88 19.67 L 10.09 19.88 L 10.33 20.07 L 10.57 20.25 L 10.84 20.4 L 11.11 20.54 L 11.39 20.65 L 11.68 20.74 L 11.98 20.8 L 12.28 20.84 L 12.58 20.86 L 12.88 20.85" fill="none" stroke="#111" stroke-width="1.26" stroke-linecap="round" stroke-linejoin="round"/>
<path d="M 20.0 15.0 L 20.21 15.0 L 20.42 15.0 L 20.62 15.0 L 20.83 15.0 L 21.04 15.0 L 21.25 15.0 L 21.46 15.0 L 21.67 15.0 L 21.88 15.0 L 22.08 15.0 L 22.29 15.0 L 22.5 15.0 L 22.71 15.0 L 22.92 15.0 L 23.12 15.0 L 23.33 15.0 L 23.54 15.0 L 23.75 15.0 L 23.96 15.0 L 24.17 15.0 L 24.38 15.0 L 24.58 15.0 L 24.79 15.0 L 25.0 15.0" fill="none" stroke="#111" stroke-width="1.26" stroke-linecap="round" stroke-linejoin="round"/>
<path d="M 20.0 15.0 L 20.0 15.08 L 20.0 15.17 L 20.0 15.25 L 20.0 15.33 L 20.0 15.42 L 20.0 15.5 L 20.0 15.58 L 20.0 15.67 L 20.0 15.75 L 20.0 15.83 L 20.0 15.92 L 20.0 16.0 L 20.0 16.08 L 20.0 16.17 L 20.0 16.25 L 20.0 16.33 L 20.0 16.42 L 20.0 16.5 L 20.0 16.58 L 20.0 16.67 L 20.0 16.75 L 20.0 16.83 L 20.0 16.92 L 20.0 17.0 L 20.0 17.0 L 20.29 17.0 L 20.58 17.0 L 20.88 17.0 L 21.17 17.0 L 21.46 17.0 L 21.75 17.0 L 22.04 17.0 L 22.33 17.0 L 22.62 17.0 L 22.92 17.0 L 23.21 17.0 L 23.5 17.0 L 23.79 17.0 L 24.08 17.0 L 24.38 17.0 L 24.67 17.0 L 24.96 17.0 L 25.25 17.0 L 25.54 17.0 L 25.83 17.0 L 26.12 17.0 L 26.42 17.0 L 26.71 17.0 L 27.0 17.0" fill="none" stroke="#111" stroke-width="1.26" stroke-linecap="round" stroke-linejoin="round"/>
<path d="M 23.0 15.0 L 23.0 15.17 L 23.0 15.33 L 23.0 15.5 L 23.0 15.67 L 23.0 15.83 L 23.0 16.0 L 23.0 16.17 L 23.0 16.33 L 23.0 16.5 L 23.0 16.67 L 23.0 16.83 L 23.0 17.0 L 23.0 17.17 L 23.0 17.33 L 23.0 17.5 L 23.0 17.67 L 23.0 17.83 L 23.0 18.0 L 23.0 18.17 L 23.0 18.33 L 23.0 18.5 L 23.0 18.67 L 23.0 18.83 L 23.0 19.0 L 23.0 19.0 L 23.17 19.0 L 23.33 19.0 L 23.5 19.0 L 23.67 19.0 L 23.83 19.0 L 24.0 19.0 L 24.17 19.0 L 24.33 19.0 L 24.5 19.0 L 24.67 19.0 L 24.83 19.0 L 25.0 19.0 L 25.17 19.0 L 25.33 19.0 L 25.5 19.0 L 25.67 19.0 L 25.83 19.0 L 26.0 19.0 L 26.17 19.0 L 26.33 19.0 L 26.5 19.0 L 26.67 19.0 L 26.83 19.0 L 27.0 19.0" fill="none" stroke="#111" stroke-width="1.26" stroke-linecap="round" stroke-linejoin="round"/>
<path d="M 14.0 5.0 L 14.08 5.33 L 14.17 5.67 L 14.25 6.0 L 14.33 6.33 L 14.42 6.67 L 14.5 7.0 L 14.58 7.33 L 14.67 7.67 L 14.75 8.0 L 14.83 8.33 L 14.92 8.67 L 15.0 9.0 L 15.08 9.33 L 15.17 9.67 L 15.25 10.0 L 15.33 10.33 L 15.42 10.67 L 15.5 11.0 L 15.58 11.33 L 15.67 11.67 L 15.75 12.0 L 15.83 12.33 L 15.92 12.67 L 16.0 13.0" fill="none" stroke="#111" stroke-width="1.26" stroke-linecap="round" stroke-linejoin="round"/>
<path d="M 15.0 8.0 L 15.25 7.88 L 15.5 7.75 L 15.75 7.62 L 16.0 7.5 L 16.25 7.38 L 16.5 7.25 L 16.75 7.12 L 17.0 7.0 L 17.25 6.88 L 17.5 6.75 L 17.75 6.62 L 18.0 6.5 L 18.25 6.38 L 18.5 6.25 L 18.75 6.12 L 19.0 6.0 L 19.25 5.88 L 19.5 5.75 L 19.75 5.62 L 20.0 5.5 L 20.25 5.38 L 20.5 5.25 L 20.75 5.12 L 21.0 5.0" fill="none" stroke="#111" stroke-width="1.26" stroke-linecap="round" stroke-linejoin="round"/>
<path d="M 4.0 13.0 L 4.33 13.0 L 4.67 13.0 L 5.0 13.0 L 5.33 13.0 L 5.67 13.0 L 6.0 13.0 L 6.33 13.0 L 6.67 13.0 L 7.0 13.0 L 7.33 13.0 L 7.67 13.0 L 8.0 13.0 L 8.33 13.0 L 8.67 13.0 L 9.0 13.0 L 9.33 13.0 L 9.67 13.0 L 10.0 13.0 L 10.33 13.0 L 10.67 13.0 L 11.0 13.0 L 11.33 13.0 L 11.67 13.0 L 12.0 13.0" fill="none" stroke="#111" stroke-width="1.26" stroke-linecap="round" stroke-linejoin="round"/>
<path d="M 12.0 4.0 L 12.0 4.38 L 12.0 4.75 L 12.0 5.12 L 12.0 5.5 L 12.0 5.88 L 12.0 6.25 L 12.0 6.62 L 12.0 7.0 L 12.0 7.38 L 12.0 7.75 L 12.0 8.12 L 12.0 8.5 L 12.0 8.88 L 12.0 9.25 L 12.0 9.62 L 12.0 10.0 L 12.0 10.38 L 12.0 10.75 L 12.0 11.12 L 12.0 11.5 L 12.0 11.88 L 12.0 12.25 L 12.0 12.62 L 12.0 13.0" fill="none" stroke="#111" stroke-width="1.26" stroke-linecap="round" stroke-linejoin="round"/>
<path d="M 5.0 23.0 L 5.33 23.0 L 5.67 23.0 L 6.0 23.0 L 6.33 23.0 L 6.67 23.0 L 7.0 23.0 L 7.33 23.0 L 7.67 23.0 L 8.0 23.0 L 8.33 23.0 L 8.67 23.0 L 9.0 23.0 L 9.33 23.0 L 9.67 23.0 L 10.0 23.0 L 10.33 23.0 L 10.67 23.0 L 11.0 23.0 L 11.33 23.0 L 11.67 23.0 L 12.0 23.0 L 12.33 23.0 L 12.67 23.0 L 13.0 23.0" fill="none" stroke="#111" stroke-width="1.26" stroke-linecap="round" stroke-linejoin="round"/>
<path d="M 13.0 23.0 L 12.96 23.33 L 12.92 23.67 L 12.88 24.0 L 12.83 24.33 L 12.79 24.67 L 12.75 25.0 L 12.71 25.33 L 12.67 25.67 L 12.62 26.0 L 12.58 26.33 L 12.54 26.67 L 12.5 27.0 L 12.46 27.33 L 12.42 27.67 L 12.38 28.0 L 12.33 28.33 L 12.29 28.67 L 12.25 29.0 L 12.21 29.33 L 12.17 29.67 L 12.12 30.0 L 12.08 30.33 L 12.04 30.67 L 12.0 31.0" fill="none" stroke="#111" stroke-width="1.26" stroke-linecap="round" stroke-linejoin="round"/>
<path d="M 22.0 4.0 L 22.0 4.29 L 22.0 4.58 L 22.0 4.88 L 22.0 5.17 L 22.0 5.46 L 22.0 5.75 L 22.0 6.04 L 22.0 6.33 L 22.0 6.62 L 22.0 6.92 L 22.0 7.21 L 22.0 7.5 L 22.0 7.79 L 22.0 8.08 L 22.0 8.38 L 22.0 8.67 L 22.0 8.96 L 22.0 9.25 L 22.0 9.54 L 22.0 9.83 L 22.0 10.12 L 22.0 10.42 L 22.0 10.71 L 22.0 11.0" fill="none" stroke="#111" stroke-width="1.26" stroke-linecap="round" stroke-linejoin="round"/>
<path d="M 22.0 11.0 L 22.17 11.0 L 22.33 11.0 L 22.5 11.0 L 22.67 11.0 L 22.83 11.0 L 23.0 11.0 L 23.17 11.0 L 23.33 11.0 L 23.5 11.0 L 23.67 11.0 L 23.83 11.0 L 24.0 11.0 L 24.17 11.0 L 24.33 11.0 L 24.5 11.0 L 24.67 11.0 L 24.83 11.0 L 25.0 11.0 L 25.17 11.0 L 25.33 11.0 L 25.5 11.0 L 25.67 11.0 L 25.83 11.0 L 26.0 11.0" fill="none" stroke="#111" stroke-width="1.26" stroke-linecap="round" stroke-linejoin="round"/>
<path d="M 22.0 23.0 L 22.29 23.0 L 22.58 23.0 L 22.88 23.0 L 23.17 23.0 L 23.46 23.0 L 23.75 23.0 L 24.04 23.0 L 24.33 23.0 L 24.62 23.0 L 24.92 23.0 L 25.21 23.0 L 25.5 23.0 L 25.79 23.0 L 26.08 23.0 L 26.38 23.0 L 26.67 23.0 L 26.96 23.0 L 27.25 23.0 L 27.54 23.0 L 27.83 23.0 L 28.12 23.0 L 28.42 23.0 L 28.71 23.0 L 29.0 23.0" fill="none" stroke="#111" stroke-width="1.26" stroke-linecap="round" stroke-linejoin="round"/>
<path d="M 22.0 23.0 L 22.0 23.38 L 22.0 23.75 L 22.0 24.12 L 22.0 24.5 L 22.0 24.88 L 22.0 25.25 L 22.0 25.62 L 22.0 26.0 L 22.0 26.38 L 22.0 26.75 L 22.0 27.12 L 22.0 27.5 L 22.0 27.88 L 22.0 28.25 L 22.0 28.62 L 22.0 29.0 L 22.0 29.38 L 22.0 29.75 L 22.0 30.12 L 22.0 30.5 L 22.0 30.88 L 22.0 31.25 L 22.0 31.62 L 22.0 32.0" fill="none" stroke="#111" stroke-width="1.26" stroke-linecap="round" stroke-linejoin="round"/>
</svg>
