<?xml version="1.0" encoding="UTF-8"?>
<svg xmlns="http://www.w3.org/2000/svg" viewBox="0 0 29.00 34.00">
<path d="M 11.0 4.0 L 10.79 4.42 L 10.58 4.83 L 10.38 5.25 L 10.17 5.67 L 9.96 6.08 L 9.75 6.5 L 9.54 6.92 L 9.33 7.33 L 9.12 7.75 L 8.92 8.17 L 8.71 8.58 L 8.5 9.0 L 8.29 9.42 L 8.08 9.83 L 7.88 10.25 L 7.67 10.67 L 7.46 11.08 L 7.25 11.5 L 7.04 11.92 L 6.83 12.33 L 6.62 12.75 L 6.42 13.17 L 6.21 13.58 L 6.0 14.0" fill="none" stroke="#111" stroke-width="1.19" stroke-linecap="round" stroke-linejoin="round"/>
<path d="M 17.0 5.0 L 17.29 5.42 L 17.58 5.83 L 17.88 6.25 L 18.17 6.67 L 18.46 7.08 L 18.75 7.5 L 19.04 7.92 L 19.33 8.33 L 19.62 8.75 L 19.92 9.17 L 20.21 9.58 L 20.5 10.0 L 20.79 10.42 L 21.08 10.83 L 21.38 11.25 L 21.67 11.67 L 21.96 12.08 L 22.25 12.5 L 22.54 12.92 L 22.83 13.33 L 23.12 13.75 L 23.42 14.17 L 23.71 14.58 L 24.0 15.0" fill="none" stroke="#111" stroke-width="1.19" stroke-linecap="round" stroke-linejoin="round"/>
<path d="M 11.0 18.0 L 10.71 18.46 L 10.42 18.92 L 10.12 19.38 L 9.83 19.83 L 9.54 20.29 L 9.25 20.75 L 8.96 21.21 L 8.67 21.67 L 8.38 22.12 L 8.08 22.58 L 7.79 23.04 L 7.5 23.5 L 7.21 23.96 L 6.92 24.42 L 6.62 24.88 L 6.33 25.33 L 6.04 25.79 L 5.75 26.25 L 5.46 26.71 L 5.17 27.17 L 4.88 27.62 L 4.58 28.08 L 4.29 28.54 L 4.0 29.0" fill="none" stroke="#111" stroke-width="1.19" stroke-linecap="round" stroke-linejoin="round"/>
<path d="M 16.0 16.0 L 16.38 16.58 L 16.75 17.17 L 17.12 17.75 L 17.5 18.33 L 17.88 18.92 L 18.25 19.5 L 18.62 20.08 L 19.0 20.67 L 19.38 21.25 L 19.75 21.83 L 20.12 22.42 L 20.5 23.0 L 20.88 23.58 L 21.25 24.17 L 21.62 24.75 L 22.0 25.33 L 22.38 25.92 L 22.75 26.5 L 23.12 27.08 L 23.5 27.67 L 23.88 28.25 L 24.25 28.83 L 24.62 29.42 L 25.0 30.0" fill="none" stroke="#111" stroke-width="1.19" stroke-linecap="round" stroke-linejoin="round"/>
</svg>
