<?xml version="1.0" encoding="UTF-8"?>
<svg xmlns="http://www.w3.org/2000/svg" viewBox="0 0 24.00 34.00">
<path d="M 4.0 9.0 L 4.67 8.96 L 5.33 8.92 L 6.0 8.88 L 6.67 8.83 L 7.33 8.79 L 8.0 8.75 L 8.67 8.71 L 9.33 8.67 L 10.0 8.62 L 10.67 8.58 L 11.33 8.54 L 12.0 8.5 L 12.67 8.46 L 13.33 8.42 L 14.0 8.38 L 14.67 8.33 L 15.33 8.29 L 16.0 8.25 L 16.67 8.21 L 17.33 8.17 L 18.0 8.12 L 18.67 8.08 L 19.33 8.04 L 20.0 8.0" fill="none" stroke="#111" stroke-width="1.19" stroke-linecap="round" stroke-linejoin="round"/>
<path d="M 12.0 4.0 L 12.0 5.08 L 12.0 6.17 L 12.0 7.25 L 12.0 8.33 L 12.0 9.42 L 12.0 10.5 L 12.0 11.58 L 12.0 12.67 L 12.0 13.75 L 12.0 14.83 L 12.0 15.92 L 12.0 17.0 L 12.0 18.08 L 12.0 19.17 L 12.0 20.25 L 12.0 21.33 L 12.0 22.42 L 12.0 23.5 L 12.0 24.58 L 12.0 25.67 L 12.0 26.75 L 12.0 27.83 L 12.0 28.92 L 12.0 30.0" fill="none" stroke="#111" stroke-width="1.19" stroke-linecap="round" stroke-linejoin="round"/>
<path d="M 6.0 9.0 L 6.25 9.46 L 6.5 9.92 L 6.75 10.38 L 7.0 10.83 L 7.25 11.29 L 7.5 11.75 L 7.75 12.21 L 8.0 12.67 L 8.25 13.12 L 8.5 13.58 L 8.75 14.04 L 9.0 14.5 L 9.25 14.96 L 9.5 15.42 L 9.75 15.88 L 10.0 16.33 L 10.25 16.79 L 10.5 17.25 L 10.75 17.71 L 11.0 18.17 L 11.25 18.62 L 11.5 19.08 L 11.75 19.54 L 12.0 20.0" fill="none" stroke="#111" stroke-width="1.19" stroke-linecap="round" stroke-linejoin="round"/>
<path d="M 18.0 8.0 L 17.75 8.5 L 17.5 9.0 L 17.25 9.5 L 17.0 10.0 L 16.75 10.5 L 16.5 11.0 L 16.25 11.5 L 16.0 12.0 L 15.75 12.5 L 15.5 13.0 L 15.25 13.5 L 15.0 14.0 L 14.75 14.5 L 14.5 15.0 L 14.25 15.5 L 14.0 16.0 L 13.75 16.5 L 13.5 17.0 L 13.25 17.5 L 13.0 18.0 L 12.75 18.5 L 12.5 19.0 L 12.25 19.5 L 12.0 20.0" fill="none" stroke="#111" stroke-width="1.19" stroke-linecap="round" stroke-linejoin="round"/>
</svg>
