<?xml version="1.0" encoding="UTF-8"?>
<svg xmlns="http://www.w3.org/2000/svg" viewBox="0 0 20.06 36.00">
<path d="M 10.02 9.0 L 9.4 9.34 L 8.86 9.79 L 8.4 10.34 L 8.06 10.96 L 7.85 11.64 L 7.76 12.34 L 7.81 13.05 L 7.99 13.73 L 8.29 14.37 L 8.71 14.94 L 9.23 15.43 L 9.83 15.8 L 10.49 16.06 L 11.19 16.18 L 11.9 16.18 L 12.59 16.04 L 13.25 15.77 L 13.84 15.38 L 14.36 14.89 L 14.76 14.31 L 15.06 13.67 L 15.22 12.98 L 15.26 12.27 L 15.16 11.57 L 12.02 10.0 L 11.94 9.96 L 11.86 9.92 L 11.77 9.88 L 11.69 9.83 L 11.61 9.79 L 11.52 9.75 L 11.44 9.71 L 11.36 9.67 L 11.27 9.62 L 11.19 9.58 L 11.11 9.54 L 11.02 9.5 L 10.94 9.46 L 10.86 9.42 L 10.77 9.38 L 10.69 9.33 L 10.61 9.29 L 10.52 9.25 L 10.44 9.21 L 10.36 9.17 L 10.27 9.12 L 10.19 9.08 L 10.11 9.04 L 10.02 9.0" fill="none" stroke="#111" stroke-width="1.26" stroke-linecap="round" stroke-linejoin="round"/>
<path d="M 10.02 4.0 L 10.02 4.21 L 10.02 4.42 L 10.02 4.62 L 10.02 4.83 L 10.02 5.04 L 10.02 5.25 L 10.02 5.46 L 10.02 5.67 L 10.02 5.88 L 10.02 6.08 L 10.02 6.29 L 10.02 6.5 L 10.02 6.71 L 10.02 6.92 L 10.02 7.12 L 10.02 7.33 L 10.02 7.54 L 10.02 7.75 L 10.02 7.96 L 10.02 8.17 L 10.02 8.38 L 10.02 8.58 L 10.02 8.79 L 10.02 9.0" fill="none" stroke="#111" stroke-width="1.26" stroke-linecap="round" stroke-linejoin="round"/>
<path d="M 10.02 17.0 L 10.02 17.62 L 10.02 18.25 L 10.02 18.88 L 10.02 19.5 L 10.02 20.12 L 10.02 20.75 L 10.02 21.38 L 10.02 22.0 L 10.02 22.62 L 10.02 23.25 L 10.02 23.88 L 10.02 24.5 L 10.02 25.12 L 10.02 25.75 L 10.02 26.38 L 10.02 27.0 L 10.02 27.62 L 10.02 28.25 L 10.02 28.88 L 10.02 29.5 L 10.02 30.12 L 10.02 30.75 L 10.02 31.38 L 10.02 32.0" fill="none" stroke="#111" stroke-width="1.26" stroke-linecap="round" stroke-linejoin="round"/>
<path d="M 10.02 5.0 L 9.63 5.38 L 9.26 5.79 L 8.92 6.21 L 8.59 6.65 L 8.3 7.11 L 8.02 7.58 L 7.78 8.07 L 7.56 8.57 L 7.37 9.08 L 7.21 9.61 L 7.07 10.14 L 6.97 10.67 L 6.89 11.21 L 6.85 11.76 L 6.83 12.31 L 6.85 12.85 L 6.89 13.4 L 6.96 13.94 L 7.07 14.48 L 7.2 15.01 L 7.36 15.53 L 7.55 16.04 L 7.77 16.54 L 8.02 17.03" fill="none" stroke="#111" stroke-width="1.26" stroke-linecap="round" stroke-linejoin="round"/>
<path d="M 8.02 8.0 L 8.02 8.04 L 8.02 8.08 L 8.02 8.12 L 8.02 8.17 L 8.02 8.21 L 8.02 8.25 L 8.02 8.29 L 8.02 8.33 L 8.02 8.38 L 8.02 8.42 L 8.02 8.46 L 8.02 8.5 L 8.02 8.54 L 8.02 8.58 L 8.02 8.62 L 8.02 8.67 L 8.02 8.71 L 8.02 8.75 L 8.02 8.79 L 8.02 8.83 L 8.02 8.88 L 8.02 8.92 L 8.02 8.96 L 8.02 9.0" fill="none" stroke="#111" stroke-width="1.26" stroke-linecap="round" stroke-linejoin="round"/>
<path d="M 7.02 10.0 L 7.02 10.04 L 7.02 10.08 L 7.02 10.12 L 7.02 10.17 L 7.02 10.21 L 7.02 10.25 L 7.02 10.29 L 7.02 10.33 L 7.02 10.38 L 7.02 10.42 L 7.02 10.46 L 7.02 10.5 L 7.02 10.54 L 7.02 10.58 L 7.02 10.62 L 7.02 10.67 L 7.02 10.71 L 7.02 10.75 L 7.02 10.79 L 7.02 10.83 L 7.02 10.88 L 7.02 10.92 L 7.02 10.96 L 7.02 11.0" fill="none" stroke="#111" stroke-width="1.26" stroke-linecap="round" stroke-linejoin="round"/>
<path d="M 5.02 15.0 L 4.83 15.26 L 4.66 15.53 L 4.51 15.81 L 4.37 16.11 L 4.26 16.41 L 4.16 16.72 L 4.09 17.03 L 4.04 17.35 L 4.01 17.67 L 4.0 17.99 L 4.01 18.31 L 4.05 18.63 L 4.1 18.95 L 4.18 19.26 L 4.28 19.57 L 4.4 19.87 L 4.54 20.16 L 4.7 20.44 L 4.87 20.71 L 5.07 20.96 L 5.28 21.21 L 5.5 21.44 L 5.75 21.65 L 6.0 21.84 L 6.02 22.0 L 6.2 21.78 L 6.36 21.55 L 6.5 21.31 L 6.62 21.06 L 6.73 20.8 L 6.82 20.54 L 6.88 20.27 L 6.93 19.99 L 6.95 19.71 L 6.96 19.43 L 6.94 19.15 L 6.91 18.88 L 6.85 18.6 L 6.78 18.33 L 6.68 18.07 L 6.57 17.82 L 6.43 17.57 L 6.28 17.34 L 6.11 17.11 L 5.93 16.9 L 5.73 16.7 L 5.52 16.52 L 5.3 16.36 L 5.06 16.21" fill="none" stroke="#111" stroke-width="1.26" stroke-linecap="round" stroke-linejoin="round"/>
<path d="M 16.02 16.0 L 15.85 16.18 L 15.68 16.36 L 15.52 16.55 L 15.36 16.74 L 15.2 16.94 L 15.04 17.13 L 14.89 17.33 L 14.75 17.53 L 14.61 17.74 L 14.47 17.95 L 14.33 18.16 L 14.2 18.37 L 14.08 18.58 L 13.95 18.8 L 13.84 19.02 L 13.72 19.24 L 13.61 19.47 L 13.51 19.7 L 13.41 19.92 L 13.31 20.15 L 13.22 20.39 L 13.13 20.62 L 13.05 20.86 L 12.97 21.09" fill="none" stroke="#111" stroke-width="1.26" stroke-linecap="round" stroke-linejoin="round"/>
<path d="M 16.02 16.0 L 16.06 16.48 L 16.06 16.96 L 16.04 17.44 L 15.99 17.91 L 15.91 18.39 L 15.81 18.85 L 15.68 19.31 L 15.52 19.77 L 15.34 20.21 L 15.14 20.64 L 14.9 21.06 L 14.65 21.47 L 14.37 21.86 L 14.07 22.24 L 13.75 22.59 L 13.41 22.93 L 13.06 23.25 L 12.68 23.55 L 12.29 23.82 L 11.88 24.07 L 11.46 24.3 L 11.03 24.51 L 10.58 24.69 L 10.13 24.84" fill="none" stroke="#111" stroke-width="1.26" stroke-linecap="round" stroke-linejoin="round"/>
<path d="M 6.02 22.0 L 6.19 22.12 L 6.36 22.25 L 6.52 22.38 L 6.69 22.5 L 6.86 22.62 L 7.02 22.75 L 7.19 22.88 L 7.36 23.0 L 7.52 23.12 L 7.69 23.25 L 7.86 23.38 L 8.02 23.5 L 8.19 23.62 L 8.36 23.75 L 8.52 23.88 L 8.69 24.0 L 8.86 24.12 L 9.02 24.25 L 9.19 24.38 L 9.36 24.5 L 9.52 24.62 L 9.69 24.75 L 9.86 24.88 L 10.02 25.0" fill="none" stroke="#111" stroke-width="1.26" stroke-linecap="round" stroke-linejoin="round"/>
<path d="M 5.02 30.0 L 5.23 29.79 L 5.44 29.58 L 5.65 29.38 L 5.86 29.17 L 6.07 28.96 L 6.27 28.75 L 6.48 28.54 L 6.69 28.33 L 6.9 28.12 L 7.11 27.92 L 7.32 27.71 L 7.52 27.5 L 7.73 27.29 L 7.94 27.08 L 8.15 26.88 L 8.36 26.67 L 8.57 26.46 L 8.77 26.25 L 8.98 26.04 L 9.19 25.83 L 9.4 25.62 L 9.61 25.42 L 9.82 25.21 L 10.02 25.0 L 10.02 25.0 L 10.23 25.21 L 10.44 25.42 L 10.65 25.62 L 10.86 25.83 L 11.07 26.04 L 11.27 26.25 L 11.48 26.46 L 11.69 26.67 L 11.9 26.88 L 12.11 27.08 L 12.32 27.29 L 12.52 27.5 L 12.73 27.71 L 12.94 27.92 L 13.15 28.12 L 13.36 28.33 L 13.57 28.54 L 13.77 28.75 L 13.98 28.96 L 14.19 29.17 L 14.4 29.38 L 14.61 29.58 L 14.82 29.79 L 15.02 30.0" fill="none" stroke="#111" stroke-width="1.26" stroke-linecap="round" stroke-linejoin="round"/>
</svg>
