<?xml version="1.0" encoding="UTF-8"?>
<svg xmlns="http://www.w3.org/2000/svg" viewBox="0 0 26.00 41.00">
<path d="M 13.0 4.0 L 12.62 4.58 L 12.25 5.17 L 11.88 5.75 L 11.5 6.33 L 11.12 6.92 L 10.75 7.5 L 10.38 8.08 L 10.0 8.67 L 9.62 9.25 L 9.25 9.83 L 8.88 10.42 L 8.5 11.0 L 8.12 11.58 L 7.75 12.17 L 7.38 12.75 L 7.0 13.33 L 6.62 13.92 L 6.25 14.5 L 5.88 15.08 L 5.5 15.67 L 5.12 16.25 L 4.75 16.83 L 4.38 17.42 L 4.0 18.0" fill="none" stroke="#111" stroke-width="1.44" stroke-linecap="round" stroke-linejoin="round"/>
<path d="M 13.0 4.0 L 13.38 4.62 L 13.75 5.25 L 14.12 5.88 L 14.5 6.5 L 14.88 7.12 L 15.25 7.75 L 15.62 8.38 L 16.0 9.0 L 16.38 9.62 L 16.75 10.25 L 17.12 10.88 L 17.5 11.5 L 17.88 12.12 L 18.25 12.75 L 18.62 13.38 L 19.0 14.0 L 19.38 14.62 L 19.75 15.25 L 20.12 15.88 L 20.5 16.5 L 20.88 17.12 L 21.25 17.75 L 21.62 18.38 L 22.0 19.0" fill="none" stroke="#111" stroke-width="1.44" stroke-linecap="round" stroke-linejoin="round"/>
<path d="M 8.0 12.0 L 8.42 12.0 L 8.83 12.0 L 9.25 12.0 L 9.67 12.0 L 10.08 12.0 L 10.5 12.0 L 10.92 12.0 L 11.33 12.0 L 11.75 12.0 L 12.17 12.0 L 12.58 12.0 L 13.0 12.0 L 13.42 12.0 L 13.83 12.0 L 14.25 12.0 L 14.67 12.0 L 15.08 12.0 L 15.5 12.0 L 15.92 12.0 L 16.33 12.0 L 16.75 12.0 L 17.17 12.0 L 17.58 12.0 L 18.0 12.0" fill="none" stroke="#111" stroke-width="1.44" stroke-linecap="round" stroke-linejoin="round"/>
<path d="M 13.0 12.0 L 13.0 13.04 L 13.0 14.08 L 13.0 15.12 L 13.0 16.17 L 13.0 17.21 L 13.0 18.25 L 13.0 19.29 L 13.0 20.33 L 13.0 21.38 L 13.0 22.42 L 13.0 23.46 L 13.0 24.5 L 13.0 25.54 L 13.0 26.58 L 13.0 27.62 L 13.0 28.67 L 13.0 29.71 L 13.0 30.75 L 13.0 31.79 L 13.0 32.83 L 13.0 33.88 L 13.0 34.92 L 13.0 35.96 L 13.0 37.0" fill="none" stroke="#111" stroke-width="1.44" stroke-linecap="round" stroke-linejoin="round"/>
<path d="M 7.0 19.0 L 7.25 19.29 L 7.5 19.58 L 7.75 19.88 L 8.0 20.17 L 8.25 20.46 L 8.5 20.75 L 8.75 21.04 L 9.0 21.33 L 9.25 21.62 L 9.5 21.92 L 9.75 22.21 L 10.0 22.5 L 10.25 22.79 L 10.5 23.08 L 10.75 23.38 L 11.0 23.67 L 11.25 23.96 L 11.5 24.25 L 11.75 24.54 L 12.0 24.83 L 12.25 25.12 L 12.5 25.42 L 12.75 25.71 L 13.0 26.0" fill="none" stroke="#111" stroke-width="1.44" stroke-linecap="round" stroke-linejoin="round"/>
<path d="M 20.0 17.0 L 19.71 17.38 L 19.42 17.75 L 19.12 18.12 L 18.83 18.5 L 18.54 18.88 L 18.25 19.25 L 17.96 19.62 L 17.67 20.0 L 17.38 20.38 L 17.08 20.75 L 16.79 21.12 L 16.5 21.5 L 16.21 21.88 L 15.92 22.25 L 15.62 22.62 L 15.33 23.0 L 15.04 23.38 L 14.75 23.75 L 14.46 24.12 L 14.17 24.5 L 13.88 24.88 L 13.58 25.25 L 13.29 25.62 L 13.0 26.0" fill="none" stroke="#111" stroke-width="1.44" stroke-linecap="round" stroke-linejoin="round"/>
</svg>
