<?xml version="1.0" encoding="UTF-8"?>
<svg xmlns="http://www.w3.org/2000/svg" viewBox="0 0 24.00 38.00">
<path d="M 12.0 6.0 L 12.0 7.12 L 12.0 8.25 L 12.0 9.38 L 12.0 10.5 L 12.0 11.62 L 12.0 12.75 L 12.0 13.88 L 12.0 15.0 L 12.0 16.12 L 12.0 17.25 L 12.0 18.38 L 12.0 19.5 L 12.0 20.62 L 12.0 21.75 L 12.0 22.88 L 12.0 24.0 L 12.0 25.12 L 12.0 26.25 L 12.0 27.38 L 12.0 28.5 L 12.0 29.62 L 12.0 30.75 L 12.0 31.88 L 12.0 33.0" fill="none" stroke="#111" stroke-width="1.33" stroke-linecap="round" stroke-linejoin="round"/>
<path d="M 4.0 20.0 L 4.67 20.0 L 5.33 20.0 L 6.0 20.0 L 6.67 20.0 L 7.33 20.0 L 8.0 20.0 L 8.67 20.0 L 9.33 20.0 L 10.0 20.0 L 10.67 20.0 L 11.33 20.0 L 12.0 20.0 L 12.67 20.0 L 13.33 20.0 L 14.0 20.0 L 14.67 20.0 L 15.33 20.0 L 16.0 20.0 L 16.67 20.0 L 17.33 20.0 L 18.0 20.0 L 18.67 20.0 L 19.33 20.0 L 20.0 20.0" fill="none" stroke="#111" stroke-width="1.33" stroke-linecap="round" stroke-linejoin="round"/>
<path d="M 6.0 6.0 L 6.0 6.25 L 6.0 6.5 L 6.0 6.75 L 6.0 7.0 L 6.0 7.25 L 6.0 7.5 L 6.0 7.75 L 6.0 8.0 L 6.0 8.25 L 6.0 8.5 L 6.0 8.75 L 6.0 9.0 L 6.0 9.25 L 6.0 9.5 L 6.0 9.75 L 6.0 10.0 L 6.0 10.25 L 6.0 10.5 L 6.0 10.75 L 6.0 11.0 L 6.0 11.25 L 6.0 11.5 L 6.0 11.75 L 6.0 12.0" fill="none" stroke="#111" stroke-width="1.33" stroke-linecap="round" stroke-linejoin="round"/>
<path d="M 18.0 4.0 L 18.0 4.29 L 18.0 4.58 L 18.0 4.88 L 18.0 5.17 L 18.0 5.46 L 18.0 5.75 L 18.0 6.04 L 18.0 6.33 L 18.0 6.62 L 18.0 6.92 L 18.0 7.21 L 18.0 7.5 L 18.0 7.79 L 18.0 8.08 L 18.0 8.38 L 18.0 8.67 L 18.0 8.96 L 18.0 9.25 L 18.0 9.54 L 18.0 9.83 L 18.0 10.12 L 18.0 10.42 L 18.0 10.71 L 18.0 11.0" fill="none" stroke="#111" stroke-width="1.33" stroke-linecap="round" stroke-linejoin="round"/>
<path d="M 5.0 26.0 L 5.0 26.29 L 5.0 26.58 L 5.0 26.88 L 5.0 27.17 L 5.0 27.46 L 5.0 27.75 L 5.0 28.04 L 5.0 28.33 L 5.0 28.62 L 5.0 28.92 L 5.0 29.21 L 5.0 29.5 L 5.0 29.79 L 5.0 30.08 L 5.0 30.38 L 5.0 30.67 L 5.0 30.96 L 5.0 31.25 L 5.0 31.54 L 5.0 31.83 L 5.0 32.12 L 5.0 32.42 L 5.0 32.71 L 5.0 33.0" fill="none" stroke="#111" stroke-width="1.33" stroke-linecap="round" stroke-linejoin="round"/>
<path d="M 18.0 26.0 L 18.0 26.33 L 18.0 26.67 L 18.0 27.0 L 18.0 27.33 L 18.0 27.67 L 18.0 28.0 L 18.0 28.33 L 18.0 28.67 L 18.0 29.0 L 18.0 29.33 L 18.0 29.67 L 18.0 30.0 L 18.0 30.33 L 18.0 30.67 L 18.0 31.0 L 18.0 31.33 L 18.0 31.67 L 18.0 32.0 L 18.0 32.33 L 18.0 32.67 L 18.0 33.0 L 18.0 33.33 L 18.0 33.67 L 18.0 34.0" fill="none" stroke="#111" stroke-width="1.33" stroke-linecap="round" stroke-linejoin="round"/>
</svg>
