<?xml version="1.0" encoding="UTF-8"?>
<svg xmlns="http://www.w3.org/2000/svg" viewBox="0 0 25.06 39.00">
<path d="M 13.06 11.0 L 13.06 12.0 L 13.06 13.0 L 13.06 14.0 L 13.06 15.0 L 13.06 16.0 L 13.06 17.0 L 13.06 18.0 L 13.06 19.0 L 13.06 20.0 L 13.06 21.0 L 13.06 22.0 L 13.06 23.0 L 13.06 24.0 L 13.06 25.0 L 13.06 26.0 L 13.06 27.0 L 13.06 28.0 L 13.06 29.0 L 13.06 30.0 L 13.06 31.0 L 13.06 32.0 L 13.06 33.0 L 13.06 34.0 L 13.06 35.0" fill="none" stroke="#111" stroke-width="1.37" stroke-linecap="round" stroke-linejoin="round"/>
<path d="M 6.06 4.0 L 5.56 4.7 L 5.12 5.43 L 4.75 6.21 L 4.45 7.01 L 4.22 7.84 L 4.07 8.69 L 4.0 9.54 L 4.0 10.4 L 4.09 11.26 L 4.25 12.1 L 4.48 12.93 L 4.79 13.73 L 5.17 14.5 L 5.62 15.23 L 6.13 15.92 L 6.7 16.56 L 7.33 17.15 L 8.0 17.67 L 8.73 18.14 L 9.49 18.53 L 10.28 18.86 L 11.1 19.11 L 11.94 19.29 L 12.8 19.39" fill="none" stroke="#111" stroke-width="1.37" stroke-linecap="round" stroke-linejoin="round"/>
<path d="M 19.06 4.0 L 19.51 4.72 L 19.89 5.46 L 20.22 6.24 L 20.48 7.04 L 20.69 7.86 L 20.83 8.69 L 20.9 9.52 L 20.91 10.37 L 20.85 11.21 L 20.73 12.04 L 20.55 12.86 L 20.3 13.66 L 19.99 14.45 L 19.62 15.2 L 19.19 15.93 L 18.7 16.62 L 18.17 17.27 L 17.58 17.87 L 16.95 18.43 L 16.28 18.94 L 15.58 19.4 L 14.83 19.79 L 14.06 20.13 L 13.27 20.41" fill="none" stroke="#111" stroke-width="1.37" stroke-linecap="round" stroke-linejoin="round"/>
<path d="M 6.06 24.0 L 6.35 24.21 L 6.64 24.42 L 6.94 24.62 L 7.23 24.83 L 7.52 25.04 L 7.81 25.25 L 8.1 25.46 L 8.39 25.67 L 8.69 25.88 L 8.98 26.08 L 9.27 26.29 L 9.56 26.5 L 9.85 26.71 L 10.14 26.92 L 10.44 27.12 L 10.73 27.33 L 11.02 27.54 L 11.31 27.75 L 11.6 27.96 L 11.89 28.17 L 12.19 28.38 L 12.48 28.58 L 12.77 28.79 L 13.06 29.0" fill="none" stroke="#111" stroke-width="1.37" stroke-linecap="round" stroke-linejoin="round"/>
<path d="M 21.06 23.0 L 20.73 23.25 L 20.39 23.5 L 20.06 23.75 L 19.73 24.0 L 19.39 24.25 L 19.06 24.5 L 18.73 24.75 L 18.39 25.0 L 18.06 25.25 L 17.73 25.5 L 17.39 25.75 L 17.06 26.0 L 16.73 26.25 L 16.39 26.5 L 16.06 26.75 L 15.73 27.0 L 15.39 27.25 L 15.06 27.5 L 14.73 27.75 L 14.39 28.0 L 14.06 28.25 L 13.73 28.5 L 13.39 28.75 L 13.06 29.0" fill="none" stroke="#111" stroke-width="1.37" stroke-linecap="round" stroke-linejoin="round"/>
</svg>
