<?xml version="1.0" encoding="UTF-8"?>
<svg xmlns="http://www.w3.org/2000/svg" viewBox="0 0 19.88 33.92">
<path d="M 11.88 11.0 L 11.88 11.58 L 11.88 12.17 L 11.88 12.75 L 11.88 13.33 L 11.88 13.92 L 11.88 14.5 L 11.88 15.08 L 11.88 15.67 L 11.88 16.25 L 11.88 16.83 L 11.88 17.42 L 11.88 18.0 L 11.88 18.58 L 11.88 19.17 L 11.88 19.75 L 11.88 20.33 L 11.88 20.92 L 11.88 21.5 L 11.88 22.08 L 11.88 22.67 L 11.88 23.25 L 11.88 23.83 L 11.88 24.42 L 11.88 25.0" fill="none" stroke="#111" stroke-width="1.19" stroke-linecap="round" stroke-linejoin="round"/>
<path d="M 6.88 11.0 L 6.88 11.46 L 6.88 11.92 L 6.88 12.38 L 6.88 12.83 L 6.88 13.29 L 6.88 13.75 L 6.88 14.21 L 6.88 14.67 L 6.88 15.12 L 6.88 15.58 L 6.88 16.04 L 6.88 16.5 L 6.88 16.96 L 6.88 17.42 L 6.88 17.88 L 6.88 18.33 L 6.88 18.79 L 6.88 19.25 L 6.88 19.71 L 6.88 20.17 L 6.88 20.62 L 6.88 21.08 L 6.88 21.54 L 6.88 22.0 L 6.88 22.0 L 7.09 22.0 L 7.3 22.0 L 7.51 22.0 L 7.72 22.0 L 7.93 22.0 L 8.13 22.0 L 8.34 22.0 L 8.55 22.0 L 8.76 22.0 L 8.97 22.0 L 9.18 22.0 L 9.38 22.0 L 9.59 22.0 L 9.8 22.0 L 10.01 22.0 L 10.22 22.0 L 10.43 22.0 L 10.63 22.0 L 10.84 22.0 L 11.05 22.0 L 11.26 22.0 L 11.47 22.0 L 11.68 22.0 L 11.88 22.0" fill="none" stroke="#111" stroke-width="1.19" stroke-linecap="round" stroke-linejoin="round"/>
<path d="M 6.88 13.0 L 7.09 13.0 L 7.3 13.0 L 7.51 13.0 L 7.72 13.0 L 7.93 13.0 L 8.13 13.0 L 8.34 13.0 L 8.55 13.0 L 8.76 13.0 L 8.97 13.0 L 9.18 13.0 L 9.38 13.0 L 9.59 13.0 L 9.8 13.0 L 10.01 13.0 L 10.22 13.0 L 10.43 13.0 L 10.63 13.0 L 10.84 13.0 L 11.05 13.0 L 11.26 13.0 L 11.47 13.0 L 11.68 13.0 L 11.88 13.0" fill="none" stroke="#111" stroke-width="1.19" stroke-linecap="round" stroke-linejoin="round"/>
<path d="M 6.88 17.0 L 7.09 17.0 L 7.3 17.0 L 7.51 17.0 L 7.72 17.0 L 7.93 17.0 L 8.13 17.0 L 8.34 17.0 L 8.55 17.0 L 8.76 17.0 L 8.97 17.0 L 9.18 17.0 L 9.38 17.0 L 9.59 17.0 L 9.8 17.0 L 10.01 17.0 L 10.22 17.0 L 10.43 17.0 L 10.63 17.0 L 10.84 17.0 L 11.05 17.0 L 11.26 17.0 L 11.47 17.0 L 11.68 17.0 L 11.88 17.0" fill="none" stroke="#111" stroke-width="1.19" stroke-linecap="round" stroke-linejoin="round"/>
<path d="M 8.88 4.0 L 8.92 4.36 L 8.94 4.71 L 8.92 5.07 L 8.89 5.43 L 8.83 5.78 L 8.74 6.13 L 8.63 6.47 L 8.5 6.8 L 8.34 7.12 L 8.16 7.43 L 7.96 7.73 L 7.74 8.01 L 7.5 8.28 L 7.25 8.53 L 6.97 8.76 L 6.69 8.97 L 6.38 9.17 L 6.07 9.33 L 5.74 9.48 L 5.4 9.61 L 5.06 9.71 L 4.71 9.78 L 4.36 9.83 L 4.0 9.86" fill="none" stroke="#111" stroke-width="1.19" stroke-linecap="round" stroke-linejoin="round"/>
<path d="M 8.88 4.0 L 9.18 4.25 L 9.47 4.5 L 9.76 4.75 L 10.05 5.0 L 10.34 5.25 L 10.63 5.5 L 10.93 5.75 L 11.22 6.0 L 11.51 6.25 L 11.8 6.5 L 12.09 6.75 L 12.38 7.0 L 12.68 7.25 L 12.97 7.5 L 13.26 7.75 L 13.55 8.0 L 13.84 8.25 L 14.13 8.5 L 14.43 8.75 L 14.72 9.0 L 15.01 9.25 L 15.3 9.5 L 15.59 9.75 L 15.88 10.0" fill="none" stroke="#111" stroke-width="1.19" stroke-linecap="round" stroke-linejoin="round"/>
<path d="M 7.88 8.0 L 8.09 8.0 L 8.3 8.0 L 8.51 8.0 L 8.72 8.0 L 8.93 8.0 L 9.13 8.0 L 9.34 8.0 L 9.55 8.0 L 9.76 8.0 L 9.97 8.0 L 10.18 8.0 L 10.38 8.0 L 10.59 8.0 L 10.8 8.0 L 11.01 8.0 L 11.22 8.0 L 11.43 8.0 L 11.63 8.0 L 11.84 8.0 L 12.05 8.0 L 12.26 8.0 L 12.47 8.0 L 12.68 8.0 L 12.88 8.0" fill="none" stroke="#111" stroke-width="1.19" stroke-linecap="round" stroke-linejoin="round"/>
<path d="M 5.88 24.0 L 5.88 24.21 L 5.88 24.42 L 5.88 24.62 L 5.88 24.83 L 5.88 25.04 L 5.88 25.25 L 5.88 25.46 L 5.88 25.67 L 5.88 25.88 L 5.88 26.08 L 5.88 26.29 L 5.88 26.5 L 5.88 26.71 L 5.88 26.92 L 5.88 27.12 L 5.88 27.33 L 5.88 27.54 L 5.88 27.75 L 5.88 27.96 L 5.88 28.17 L 5.88 28.38 L 5.88 28.58 L 5.88 28.79 L 5.88 29.0 L 5.88 29.0 L 6.3 29.26 L 6.74 29.49 L 7.2 29.67 L 7.68 29.8 L 8.16 29.88 L 8.66 29.92 L 9.15 29.91 L 9.64 29.85 L 10.12 29.75 L 10.59 29.59 L 11.04 29.4 L 11.47 29.16 L 11.88 28.87 L 12.26 28.55 L 12.6 28.2 L 12.9 27.81 L 13.17 27.4 L 13.4 26.96 L 13.58 26.5 L 13.72 26.02 L 13.8 25.54 L 13.85 25.05 L 13.84 24.55 L 13.78 24.06" fill="none" stroke="#111" stroke-width="1.19" stroke-linecap="round" stroke-linejoin="round"/>
<path d="M 5.88 26.0 L 6.18 26.0 L 6.47 26.0 L 6.76 26.0 L 7.05 26.0 L 7.34 26.0 L 7.63 26.0 L 7.93 26.0 L 8.22 26.0 L 8.51 26.0 L 8.8 26.0 L 9.09 26.0 L 9.38 26.0 L 9.68 26.0 L 9.97 26.0 L 10.26 26.0 L 10.55 26.0 L 10.84 26.0 L 11.13 26.0 L 11.43 26.0 L 11.72 26.0 L 12.01 26.0 L 12.3 26.0 L 12.59 26.0 L 12.88 26.0" fill="none" stroke="#111" stroke-width="1.19" stroke-linecap="round" stroke-linejoin="round"/>
</svg>
