<?xml version="1.0" encoding="UTF-8"?>
<svg xmlns="http://www.w3.org/2000/svg" viewBox="0 0 22.58 39.00">
<path d="M 4.58 5.0 L 4.58 5.62 L 4.58 6.25 L 4.58 6.88 L 4.58 7.5 L 4.58 8.12 L 4.58 8.75 L 4.58 9.38 L 4.58 10.0 L 4.58 10.62 L 4.58 11.25 L 4.58 11.88 L 4.58 12.5 L 4.58 13.12 L 4.58 13.75 L 4.58 14.38 L 4.58 15.0 L 4.58 15.62 L 4.58 16.25 L 4.58 16.88 L 4.58 17.5 L 4.58 18.12 L 4.58 18.75 L 4.58 19.38 L 4.58 20.0" fill="none" stroke="#111" stroke-width="1.37" stroke-linecap="round" stroke-linejoin="round"/>
<path d="M 10.58 4.0 L 10.58 4.62 L 10.58 5.25 L 10.58 5.88 L 10.58 6.5 L 10.58 7.12 L 10.58 7.75 L 10.58 8.38 L 10.58 9.0 L 10.58 9.62 L 10.58 10.25 L 10.58 10.88 L 10.58 11.5 L 10.58 12.12 L 10.58 12.75 L 10.58 13.38 L 10.58 14.0 L 10.58 14.62 L 10.58 15.25 L 10.58 15.88 L 10.58 16.5 L 10.58 17.12 L 10.58 17.75 L 10.58 18.38 L 10.58 19.0" fill="none" stroke="#111" stroke-width="1.37" stroke-linecap="round" stroke-linejoin="round"/>
<path d="M 10.58 6.0 L 10.33 6.21 L 10.08 6.42 L 9.83 6.62 L 9.58 6.83 L 9.33 7.04 L 9.08 7.25 L 8.83 7.46 L 8.58 7.67 L 8.33 7.88 L 8.08 8.08 L 7.83 8.29 L 7.58 8.5 L 7.33 8.71 L 7.08 8.92 L 6.83 9.12 L 6.58 9.33 L 6.33 9.54 L 6.08 9.75 L 5.83 9.96 L 5.58 10.17 L 5.33 10.38 L 5.08 10.58 L 4.83 10.79 L 4.58 11.0" fill="none" stroke="#111" stroke-width="1.37" stroke-linecap="round" stroke-linejoin="round"/>
<path d="M 4.58 6.0 L 4.83 6.17 L 5.08 6.33 L 5.33 6.5 L 5.58 6.67 L 5.83 6.83 L 6.08 7.0 L 6.33 7.17 L 6.58 7.33 L 6.83 7.5 L 7.08 7.67 L 7.33 7.83 L 7.58 8.0 L 7.83 8.17 L 8.08 8.33 L 8.33 8.5 L 8.58 8.67 L 8.83 8.83 L 9.08 9.0 L 9.33 9.17 L 9.58 9.33 L 9.83 9.5 L 10.08 9.67 L 10.33 9.83 L 10.58 10.0" fill="none" stroke="#111" stroke-width="1.37" stroke-linecap="round" stroke-linejoin="round"/>
<path d="M 10.58 12.0 L 10.33 12.21 L 10.08 12.42 L 9.83 12.62 L 9.58 12.83 L 9.33 13.04 L 9.08 13.25 L 8.83 13.46 L 8.58 13.67 L 8.33 13.88 L 8.08 14.08 L 7.83 14.29 L 7.58 14.5 L 7.33 14.71 L 7.08 14.92 L 6.83 15.12 L 6.58 15.33 L 6.33 15.54 L 6.08 15.75 L 5.83 15.96 L 5.58 16.17 L 5.33 16.38 L 5.08 16.58 L 4.83 16.79 L 4.58 17.0" fill="none" stroke="#111" stroke-width="1.37" stroke-linecap="round" stroke-linejoin="round"/>
<path d="M 4.58 12.0 L 4.83 12.17 L 5.08 12.33 L 5.33 12.5 L 5.58 12.67 L 5.83 12.83 L 6.08 13.0 L 6.33 13.17 L 6.58 13.33 L 6.83 13.5 L 7.08 13.67 L 7.33 13.83 L 7.58 14.0 L 7.83 14.17 L 8.08 14.33 L 8.33 14.5 L 8.58 14.67 L 8.83 14.83 L 9.08 15.0 L 9.33 15.17 L 9.58 15.33 L 9.83 15.5 L 10.08 15.67 L 10.33 15.83 L 10.58 16.0" fill="none" stroke="#111" stroke-width="1.37" stroke-linecap="round" stroke-linejoin="round"/>
<path d="M 7.58 21.0 L 7.58 21.58 L 7.58 22.17 L 7.58 22.75 L 7.58 23.33 L 7.58 23.92 L 7.58 24.5 L 7.58 25.08 L 7.58 25.67 L 7.58 26.25 L 7.58 26.83 L 7.58 27.42 L 7.58 28.0 L 7.58 28.58 L 7.58 29.17 L 7.58 29.75 L 7.58 30.33 L 7.58 30.92 L 7.58 31.5 L 7.58 32.08 L 7.58 32.67 L 7.58 33.25 L 7.58 33.83 L 7.58 34.42 L 7.58 35.0" fill="none" stroke="#111" stroke-width="1.37" stroke-linecap="round" stroke-linejoin="round"/>
<path d="M 4.58 21.0 L 4.42 21.25 L 4.28 21.51 L 4.17 21.79 L 4.08 22.08 L 4.03 22.37 L 4.0 22.67 L 4.0 22.97 L 4.03 23.26 L 4.09 23.56 L 4.18 23.84 L 4.29 24.12 L 4.44 24.38 L 4.6 24.63 L 4.79 24.86 L 5.0 25.07 L 5.23 25.26 L 5.48 25.43 L 5.74 25.57 L 6.01 25.68 L 6.3 25.77 L 6.59 25.83 L 6.89 25.87 L 7.19 25.87 L 7.48 25.84" fill="none" stroke="#111" stroke-width="1.37" stroke-linecap="round" stroke-linejoin="round"/>
<path d="M 10.58 20.0 L 10.75 20.32 L 10.89 20.64 L 11.01 20.98 L 11.11 21.33 L 11.17 21.68 L 11.21 22.04 L 11.22 22.39 L 11.2 22.75 L 11.15 23.11 L 11.08 23.46 L 10.98 23.8 L 10.85 24.14 L 10.69 24.46 L 10.52 24.77 L 10.31 25.07 L 10.09 25.35 L 9.84 25.61 L 9.58 25.85 L 9.29 26.07 L 8.99 26.26 L 8.68 26.43 L 8.35 26.58 L 8.01 26.7 L 7.67 26.79" fill="none" stroke="#111" stroke-width="1.37" stroke-linecap="round" stroke-linejoin="round"/>
<path d="M 4.58 28.0 L 4.7 28.12 L 4.83 28.25 L 4.95 28.38 L 5.08 28.5 L 5.2 28.62 L 5.33 28.75 L 5.45 28.88 L 5.58 29.0 L 5.7 29.12 L 5.83 29.25 L 5.95 29.38 L 6.08 29.5 L 6.2 29.62 L 6.33 29.75 L 6.45 29.88 L 6.58 30.0 L 6.7 30.12 L 6.83 30.25 L 6.95 30.38 L 7.08 30.5 L 7.2 30.62 L 7.33 30.75 L 7.45 30.88 L 7.58 31.0" fill="none" stroke="#111" stroke-width="1.37" stroke-linecap="round" stroke-linejoin="round"/>
<path d="M 10.58 28.0 L 10.45 28.12 L 10.33 28.25 L 10.2 28.38 L 10.08 28.5 L 9.95 28.62 L 9.83 28.75 L 9.7 28.88 L 9.58 29.0 L 9.45 29.12 L 9.33 29.25 L 9.2 29.38 L 9.08 29.5 L 8.95 29.62 L 8.83 29.75 L 8.7 29.88 L 8.58 30.0 L 8.45 30.12 L 8.33 30.25 L 8.2 30.38 L 8.08 30.5 L 7.95 30.62 L 7.83 30.75 L 7.7 30.88 L 7.58 31.0" fill="none" stroke="#111" stroke-width="1.37" stroke-linecap="round" stroke-linejoin="round"/>
<path d="M 18.58 5.0 L 18.26 5.56 L 17.97 6.14 L 17.7 6.73 L 17.47 7.34 L 17.25 7.95 L 17.07 8.57 L 16.91 9.2 L 16.78 9.83 L 16.68 10.47 L 16.61 11.12 L 16.57 11.76 L 16.55 12.41 L 16.57 13.06 L 16.61 13.7 L 16.68 14.35 L 16.78 14.99 L 16.91 15.62 L 17.07 16.25 L 17.25 16.87 L 17.47 17.48 L 17.7 18.08 L 17.97 18.67 L 18.26 19.25 L 18.58 19.82 L 18.58 20.0 L 18.37 20.38 L 18.16 20.75 L 17.95 21.12 L 17.74 21.5 L 17.54 21.88 L 17.33 22.25 L 17.12 22.62 L 16.91 23.0 L 16.7 23.38 L 16.49 23.75 L 16.29 24.12 L 16.08 24.5 L 15.87 24.88 L 15.66 25.25 L 15.45 25.62 L 15.24 26.0 L 15.04 26.38 L 14.83 26.75 L 14.62 27.12 L 14.41 27.5 L 14.2 27.88 L 13.99 28.25 L 13.79 28.62 L 13.58 29.0" fill="none" stroke="#111" stroke-width="1.37" stroke-linecap="round" stroke-linejoin="round"/>
<path d="M 17.58 16.0 L 17.37 16.29 L 17.16 16.58 L 16.95 16.88 L 16.74 17.17 L 16.54 17.46 L 16.33 17.75 L 16.12 18.04 L 15.91 18.33 L 15.7 18.62 L 15.49 18.92 L 15.29 19.21 L 15.08 19.5 L 14.87 19.79 L 14.66 20.08 L 14.45 20.38 L 14.24 20.67 L 14.04 20.96 L 13.83 21.25 L 13.62 21.54 L 13.41 21.83 L 13.2 22.12 L 12.99 22.42 L 12.79 22.71 L 12.58 23.0" fill="none" stroke="#111" stroke-width="1.37" stroke-linecap="round" stroke-linejoin="round"/>
</svg>
