<?xml version="1.0" encoding="UTF-8"?>
<svg xmlns="http://www.w3.org/2000/svg" viewBox="0 0 23.00 33.00">
<path d="M 8.0 7.0 L 8.0 7.83 L 8.0 8.67 L 8.0 9.5 L 8.0 10.33 L 8.0 11.17 L 8.0 12.0 L 8.0 12.83 L 8.0 13.67 L 8.0 14.5 L 8.0 15.33 L 8.0 16.17 L 8.0 17.0 L 8.0 17.83 L 8.0 18.67 L 8.0 19.5 L 8.0 20.33 L 8.0 21.17 L 8.0 22.0 L 8.0 22.83 L 8.0 23.67 L 8.0 24.5 L 8.0 25.33 L 8.0 26.17 L 8.0 27.0" fill="none" stroke="#111" stroke-width="1.16" stroke-linecap="round" stroke-linejoin="round"/>
<path d="M 11.0 7.0 L 10.88 7.21 L 10.75 7.42 L 10.62 7.62 L 10.5 7.83 L 10.38 8.04 L 10.25 8.25 L 10.12 8.46 L 10.0 8.67 L 9.88 8.88 L 9.75 9.08 L 9.62 9.29 L 9.5 9.5 L 9.38 9.71 L 9.25 9.92 L 9.12 10.12 L 9.0 10.33 L 8.88 10.54 L 8.75 10.75 L 8.62 10.96 L 8.5 11.17 L 8.38 11.38 L 8.25 11.58 L 8.13 11.79 L 8.0 12.0" fill="none" stroke="#111" stroke-width="1.16" stroke-linecap="round" stroke-linejoin="round"/>
<path d="M 8.0 12.0 L 7.7 12.28 L 7.41 12.56 L 7.13 12.87 L 6.87 13.18 L 6.62 13.5 L 6.38 13.84 L 6.16 14.19 L 5.96 14.54 L 5.77 14.9 L 5.6 15.28 L 5.44 15.66 L 5.3 16.04 L 5.18 16.43 L 5.08 16.83 L 4.99 17.23 L 4.93 17.63 L 4.88 18.04 L 4.85 18.45 L 4.83 18.86 L 4.84 19.27 L 4.86 19.68 L 4.9 20.08 L 4.96 20.49 L 5.04 20.89 L 5.0 21.0 L 5.12 21.08 L 5.25 21.17 L 5.38 21.25 L 5.5 21.33 L 5.62 21.42 L 5.75 21.5 L 5.88 21.58 L 6.0 21.67 L 6.12 21.75 L 6.25 21.83 L 6.38 21.92 L 6.5 22.0 L 6.62 22.08 L 6.75 22.17 L 6.88 22.25 L 7.0 22.33 L 7.12 22.42 L 7.25 22.5 L 7.38 22.58 L 7.5 22.67 L 7.62 22.75 L 7.75 22.83 L 7.88 22.92 L 8.0 23.0" fill="none" stroke="#111" stroke-width="1.16" stroke-linecap="round" stroke-linejoin="round"/>
<path d="M 8.0 23.0 L 7.83 23.17 L 7.67 23.33 L 7.5 23.5 L 7.33 23.67 L 7.17 23.83 L 7.0 24.0 L 6.83 24.17 L 6.67 24.33 L 6.5 24.5 L 6.33 24.67 L 6.17 24.83 L 6.0 25.0 L 5.83 25.17 L 5.67 25.33 L 5.5 25.5 L 5.33 25.67 L 5.17 25.83 L 5.0 26.0 L 4.83 26.17 L 4.67 26.33 L 4.5 26.5 L 4.33 26.67 L 4.17 26.83 L 4.0 27.0" fill="none" stroke="#111" stroke-width="1.16" stroke-linecap="round" stroke-linejoin="round"/>
<path d="M 8.0 23.0 L 8.08 23.08 L 8.17 23.17 L 8.25 23.25 L 8.33 23.33 L 8.42 23.42 L 8.5 23.5 L 8.58 23.58 L 8.67 23.67 L 8.75 23.75 L 8.83 23.83 L 8.92 23.92 L 9.0 24.0 L 9.08 24.08 L 9.17 24.17 L 9.25 24.25 L 9.33 24.33 L 9.42 24.42 L 9.5 24.5 L 9.58 24.58 L 9.67 24.67 L 9.75 24.75 L 9.83 24.83 L 9.92 24.92 L 10.0 25.0" fill="none" stroke="#111" stroke-width="1.16" stroke-linecap="round" stroke-linejoin="round"/>
<path d="M 5.0 8.0 L 5.12 8.17 L 5.25 8.33 L 5.38 8.5 L 5.5 8.67 L 5.62 8.83 L 5.75 9.0 L 5.88 9.17 L 6.0 9.33 L 6.12 9.5 L 6.25 9.67 L 6.38 9.83 L 6.5 10.0 L 6.62 10.17 L 6.75 10.33 L 6.88 10.5 L 7.0 10.67 L 7.12 10.83 L 7.25 11.0 L 7.38 11.17 L 7.5 11.33 L 7.62 11.5 L 7.75 11.67 L 7.88 11.83 L 8.0 12.0" fill="none" stroke="#111" stroke-width="1.16" stroke-linecap="round" stroke-linejoin="round"/>
<path d="M 8.0 12.0 L 8.12 12.25 L 8.25 12.5 L 8.38 12.75 L 8.5 13.0 L 8.62 13.25 L 8.75 13.5 L 8.88 13.75 L 9.0 14.0 L 9.12 14.25 L 9.25 14.5 L 9.38 14.75 L 9.5 15.0 L 9.62 15.25 L 9.75 15.5 L 9.88 15.75 L 10.0 16.0 L 10.12 16.25 L 10.25 16.5 L 10.38 16.75 L 10.5 17.0 L 10.62 17.25 L 10.75 17.5 L 10.88 17.75 L 11.0 18.0" fill="none" stroke="#111" stroke-width="1.16" stroke-linecap="round" stroke-linejoin="round"/>
<path d="M 11.0 18.0 L 10.88 18.21 L 10.75 18.42 L 10.62 18.62 L 10.5 18.83 L 10.38 19.04 L 10.25 19.25 L 10.12 19.46 L 10.0 19.67 L 9.88 19.88 L 9.75 20.08 L 9.62 20.29 L 9.5 20.5 L 9.38 20.71 L 9.25 20.92 L 9.12 21.12 L 9.0 21.33 L 8.88 21.54 L 8.75 21.75 L 8.62 21.96 L 8.5 22.17 L 8.38 22.38 L 8.25 22.58 L 8.13 22.79 L 8.0 23.0" fill="none" stroke="#111" stroke-width="1.16" stroke-linecap="round" stroke-linejoin="round"/>
<path d="M 5.0 18.0 L 5.21 18.0 L 5.42 18.0 L 5.62 18.0 L 5.83 18.0 L 6.04 18.0 L 6.25 18.0 L 6.46 18.0 L 6.67 18.0 L 6.88 18.0 L 7.08 18.0 L 7.29 18.0 L 7.5 18.0 L 7.71 18.0 L 7.92 18.0 L 8.12 18.0 L 8.33 18.0 L 8.54 18.0 L 8.75 18.0 L 8.96 18.0 L 9.17 18.0 L 9.38 18.0 L 9.58 18.0 L 9.79 18.0 L 10.0 18.0" fill="none" stroke="#111" stroke-width="1.16" stroke-linecap="round" stroke-linejoin="round"/>
<path d="M 15.0 4.0 L 15.0 5.04 L 15.0 6.08 L 15.0 7.12 L 15.0 8.17 L 15.0 9.21 L 15.0 10.25 L 15.0 11.29 L 15.0 12.33 L 15.0 13.38 L 15.0 14.42 L 15.0 15.46 L 15.0 16.5 L 15.0 17.54 L 15.0 18.58 L 15.0 19.62 L 15.0 20.67 L 15.0 21.71 L 15.0 22.75 L 15.0 23.79 L 15.0 24.83 L 15.0 25.88 L 15.0 26.92 L 15.0 27.96 L 15.0 29.0" fill="none" stroke="#111" stroke-width="1.16" stroke-linecap="round" stroke-linejoin="round"/>
<path d="M 13.0 6.0 L 13.08 6.12 L 13.17 6.25 L 13.25 6.38 L 13.33 6.5 L 13.42 6.62 L 13.5 6.75 L 13.58 6.88 L 13.67 7.0 L 13.75 7.12 L 13.83 7.25 L 13.92 7.38 L 14.0 7.5 L 14.08 7.62 L 14.17 7.75 L 14.25 7.88 L 14.33 8.0 L 14.42 8.12 L 14.5 8.25 L 14.58 8.38 L 14.67 8.5 L 14.75 8.62 L 14.83 8.75 L 14.92 8.88 L 15.0 9.0" fill="none" stroke="#111" stroke-width="1.16" stroke-linecap="round" stroke-linejoin="round"/>
<path d="M 19.0 5.0 L 18.83 5.17 L 18.67 5.33 L 18.5 5.5 L 18.33 5.67 L 18.17 5.83 L 18.0 6.0 L 17.83 6.17 L 17.67 6.33 L 17.5 6.5 L 17.33 6.67 L 17.17 6.83 L 17.0 7.0 L 16.83 7.17 L 16.67 7.33 L 16.5 7.5 L 16.33 7.67 L 16.17 7.83 L 16.0 8.0 L 15.83 8.17 L 15.67 8.33 L 15.5 8.5 L 15.33 8.67 L 15.17 8.83 L 15.0 9.0" fill="none" stroke="#111" stroke-width="1.16" stroke-linecap="round" stroke-linejoin="round"/>
<path d="M 15.0 9.0 L 14.92 9.21 L 14.83 9.42 L 14.75 9.62 L 14.67 9.83 L 14.58 10.04 L 14.5 10.25 L 14.42 10.46 L 14.33 10.67 L 14.25 10.88 L 14.17 11.08 L 14.08 11.29 L 14.0 11.5 L 13.92 11.71 L 13.83 11.92 L 13.75 12.12 L 13.67 12.33 L 13.58 12.54 L 13.5 12.75 L 13.42 12.96 L 13.33 13.17 L 13.25 13.38 L 13.17 13.58 L 13.08 13.79 L 13.0 14.0 L 13.0 14.0 L 13.0 14.25 L 13.0 14.5 L 13.0 14.75 L 13.0 15.0 L 13.0 15.25 L 13.0 15.5 L 13.0 15.75 L 13.0 16.0 L 13.0 16.25 L 13.0 16.5 L 13.0 16.75 L 13.0 17.0 L 13.0 17.25 L 13.0 17.5 L 13.0 17.75 L 13.0 18.0 L 13.0 18.25 L 13.0 18.5 L 13.0 18.75 L 13.0 19.0 L 13.0 19.25 L 13.0 19.5 L 13.0 19.75 L 13.0 20.0 L 13.0 20.0 L 13.08 20.17 L 13.17 20.33 L 13.25 20.5 L 13.33 20.67 L 13.42 20.83 L 13.5 21.0 L 13.58 21.17 L 13.67 21.33 L 13.75 21.5 L 13.83 21.67 L 13.92 21.83 L 14.0 22.0 L 14.08 22.17 L 14.17 22.33 L 14.25 22.5 L 14.33 22.67 L 14.42 22.83 L 14.5 23.0 L 14.58 23.17 L 14.67 23.33 L 14.75 23.5 L 14.83 23.67 L 14.92 23.83 L 15.0 24.0" fill="none" stroke="#111" stroke-width="1.16" stroke-linecap="round" stroke-linejoin="round"/>
<path d="M 15.0 9.0 L 15.17 9.33 L 15.33 9.67 L 15.5 10.0 L 15.67 10.33 L 15.83 10.67 L 16.0 11.0 L 16.17 11.33 L 16.33 11.67 L 16.5 12.0 L 16.67 12.33 L 16.83 12.67 L 17.0 13.0 L 17.17 13.33 L 17.33 13.67 L 17.5 14.0 L 17.67 14.33 L 17.83 14.67 L 18.0 15.0 L 18.17 15.33 L 18.33 15.67 L 18.5 16.0 L 18.67 16.33 L 18.83 16.67 L 19.0 17.0" fill="none" stroke="#111" stroke-width="1.16" stroke-linecap="round" stroke-linejoin="round"/>
<path d="M 19.0 17.0 L 18.96 17.17 L 18.92 17.33 L 18.88 17.5 L 18.83 17.67 L 18.79 17.83 L 18.75 18.0 L 18.71 18.17 L 18.67 18.33 L 18.62 18.5 L 18.58 18.67 L 18.54 18.83 L 18.5 19.0 L 18.46 19.17 L 18.42 19.33 L 18.38 19.5 L 18.33 19.67 L 18.29 19.83 L 18.25 20.0 L 18.21 20.17 L 18.17 20.33 L 18.12 20.5 L 18.08 20.67 L 18.04 20.83 L 18.0 21.0 L 18.0 21.0 L 17.88 21.12 L 17.75 21.25 L 17.62 21.38 L 17.5 21.5 L 17.38 21.62 L 17.25 21.75 L 17.12 21.88 L 17.0 22.0 L 16.88 22.12 L 16.75 22.25 L 16.62 22.38 L 16.5 22.5 L 16.38 22.62 L 16.25 22.75 L 16.12 22.88 L 16.0 23.0 L 15.88 23.12 L 15.75 23.25 L 15.62 23.38 L 15.5 23.5 L 15.38 23.62 L 15.25 23.75 L 15.12 23.88 L 15.0 24.0" fill="none" stroke="#111" stroke-width="1.16" stroke-linecap="round" stroke-linejoin="round"/>
<path d="M 13.0 17.0 L 13.21 17.0 L 13.42 17.0 L 13.62 17.0 L 13.83 17.0 L 14.04 17.0 L 14.25 17.0 L 14.46 17.0 L 14.67 17.0 L 14.88 17.0 L 15.08 17.0 L 15.29 17.0 L 15.5 17.0 L 15.71 17.0 L 15.92 17.0 L 16.12 17.0 L 16.33 17.0 L 16.54 17.0 L 16.75 17.0 L 16.96 17.0 L 17.17 17.0 L 17.38 17.0 L 17.58 17.0 L 17.79 17.0 L 18.0 17.0" fill="none" stroke="#111" stroke-width="1.16" stroke-linecap="round" stroke-linejoin="round"/>
<path d="M 15.0 24.0 L 14.88 24.12 L 14.75 24.25 L 14.62 24.38 L 14.5 24.5 L 14.38 24.62 L 14.25 24.75 L 14.12 24.88 L 14.0 25.0 L 13.88 25.12 L 13.75 25.25 L 13.62 25.38 L 13.5 25.5 L 13.38 25.62 L 13.25 25.75 L 13.12 25.88 L 13.0 26.0 L 12.88 26.12 L 12.75 26.25 L 12.62 26.38 L 12.5 26.5 L 12.38 26.62 L 12.25 26.75 L 12.12 26.88 L 12.0 27.0" fill="none" stroke="#111" stroke-width="1.16" stroke-linecap="round" stroke-linejoin="round"/>
<path d="M 15.0 24.0 L 15.17 24.12 L 15.33 24.25 L 15.5 24.38 L 15.67 24.5 L 15.83 24.62 L 16.0 24.75 L 16.17 24.88 L 16.33 25.0 L 16.5 25.12 L 16.67 25.25 L 16.83 25.38 L 17.0 25.5 L 17.17 25.62 L 17.33 25.75 L 17.5 25.88 L 17.67 26.0 L 17.83 26.12 L 18.0 26.25 L 18.17 26.38 L 18.33 26.5 L 18.5 26.62 L 18.67 26.75 L 18.83 26.88 L 19.0 27.0" fill="none" stroke="#111" stroke-width="1.16" stroke-linecap="round" stroke-linejoin="round"/>
</svg>
