<?xml version="1.0" encoding="UTF-8"?>
<svg xmlns="http://www.w3.org/2000/svg" viewBox="0 0 23.08 24.45">
<path d="M 9.0 5.0 L 9.0 5.42 L 9.0 5.83 L 9.0 6.25 L 9.0 6.67 L 9.0 7.08 L 9.0 7.5 L 9.0 7.92 L 9.0 8.33 L 9.0 8.75 L 9.0 9.17 L 9.0 9.58 L 9.0 10.0 L 9.0 10.42 L 9.0 10.83 L 9.0 11.25 L 9.0 11.67 L 9.0 12.08 L 9.0 12.5 L 9.0 12.92 L 9.0 13.33 L 9.0 13.75 L 9.0 14.17 L 9.0 14.58 L 9.0 15.0" fill="none" stroke="#111" stroke-width="0.86" stroke-linecap="round" stroke-linejoin="round"/>
<path d="M 15.0 4.0 L 15.0 4.46 L 15.0 4.92 L 15.0 5.38 L 15.0 5.83 L 15.0 6.29 L 15.0 6.75 L 15.0 7.21 L 15.0 7.67 L 15.0 8.12 L 15.0 8.58 L 15.0 9.04 L 15.0 9.5 L 15.0 9.96 L 15.0 10.42 L 15.0 10.88 L 15.0 11.33 L 15.0 11.79 L 15.0 12.25 L 15.0 12.71 L 15.0 13.17 L 15.0 13.62 L 15.0 14.08 L 15.0 14.54 L 15.0 15.0" fill="none" stroke="#111" stroke-width="0.86" stroke-linecap="round" stroke-linejoin="round"/>
<path d="M 11.0 5.0 L 10.79 5.25 L 10.58 5.5 L 10.38 5.75 L 10.17 6.0 L 9.96 6.25 L 9.75 6.5 L 9.54 6.75 L 9.33 7.0 L 9.12 7.25 L 8.92 7.5 L 8.71 7.75 L 8.5 8.0 L 8.29 8.25 L 8.08 8.5 L 7.88 8.75 L 7.67 9.0 L 7.46 9.25 L 7.25 9.5 L 7.04 9.75 L 6.83 10.0 L 6.62 10.25 L 6.42 10.5 L 6.21 10.75 L 6.0 11.0 L 6.0 11.0 L 6.21 11.12 L 6.42 11.25 L 6.62 11.38 L 6.83 11.5 L 7.04 11.62 L 7.25 11.75 L 7.46 11.88 L 7.67 12.0 L 7.88 12.12 L 8.08 12.25 L 8.29 12.38 L 8.5 12.5 L 8.71 12.62 L 8.92 12.75 L 9.12 12.88 L 9.33 13.0 L 9.54 13.12 L 9.75 13.25 L 9.96 13.38 L 10.17 13.5 L 10.38 13.62 L 10.58 13.75 L 10.79 13.88 L 11.0 14.0" fill="none" stroke="#111" stroke-width="0.86" stroke-linecap="round" stroke-linejoin="round"/>
<path d="M 6.0 6.0 L 6.25 6.17 L 6.5 6.33 L 6.75 6.5 L 7.0 6.67 L 7.25 6.83 L 7.5 7.0 L 7.75 7.17 L 8.0 7.33 L 8.25 7.5 L 8.5 7.67 L 8.75 7.83 L 9.0 8.0 L 9.25 8.17 L 9.5 8.33 L 9.75 8.5 L 10.0 8.67 L 10.25 8.83 L 10.5 9.0 L 10.75 9.17 L 11.0 9.33 L 11.25 9.5 L 11.5 9.67 L 11.75 9.83 L 12.0 10.0 L 12.0 10.0 L 11.75 10.21 L 11.5 10.42 L 11.25 10.62 L 11.0 10.83 L 10.75 11.04 L 10.5 11.25 L 10.25 11.46 L 10.0 11.67 L 9.75 11.88 L 9.5 12.08 L 9.25 12.29 L 9.0 12.5 L 8.75 12.71 L 8.5 12.92 L 8.25 13.12 L 8.0 13.33 L 7.75 13.54 L 7.5 13.75 L 7.25 13.96 L 7.0 14.17 L 6.75 14.38 L 6.5 14.58 L 6.25 14.79 L 6.0 15.0" fill="none" stroke="#111" stroke-width="0.86" stroke-linecap="round" stroke-linejoin="round"/>
<path d="M 6.0 11.0 L 6.25 10.96 L 6.5 10.92 L 6.75 10.88 L 7.0 10.83 L 7.25 10.79 L 7.5 10.75 L 7.75 10.71 L 8.0 10.67 L 8.25 10.62 L 8.5 10.58 L 8.75 10.54 L 9.0 10.5 L 9.25 10.46 L 9.5 10.42 L 9.75 10.38 L 10.0 10.33 L 10.25 10.29 L 10.5 10.25 L 10.75 10.21 L 11.0 10.17 L 11.25 10.12 L 11.5 10.08 L 11.75 10.04 L 12.0 10.0" fill="none" stroke="#111" stroke-width="0.86" stroke-linecap="round" stroke-linejoin="round"/>
<path d="M 17.0 4.0 L 16.83 4.25 L 16.67 4.5 L 16.5 4.75 L 16.33 5.0 L 16.17 5.25 L 16.0 5.5 L 15.83 5.75 L 15.67 6.0 L 15.5 6.25 L 15.33 6.5 L 15.17 6.75 L 15.0 7.0 L 14.83 7.25 L 14.67 7.5 L 14.5 7.75 L 14.33 8.0 L 14.17 8.25 L 14.0 8.5 L 13.83 8.75 L 13.67 9.0 L 13.5 9.25 L 13.33 9.5 L 13.17 9.75 L 13.0 10.0 L 13.0 10.0 L 13.17 10.12 L 13.33 10.25 L 13.5 10.38 L 13.67 10.5 L 13.83 10.62 L 14.0 10.75 L 14.17 10.88 L 14.33 11.0 L 14.5 11.12 L 14.67 11.25 L 14.83 11.38 L 15.0 11.5 L 15.17 11.62 L 15.33 11.75 L 15.5 11.88 L 15.67 12.0 L 15.83 12.12 L 16.0 12.25 L 16.17 12.38 L 16.33 12.5 L 16.5 12.62 L 16.67 12.75 L 16.83 12.88 L 17.0 13.0" fill="none" stroke="#111" stroke-width="0.86" stroke-linecap="round" stroke-linejoin="round"/>
<path d="M 13.0 5.0 L 13.25 5.17 L 13.5 5.33 L 13.75 5.5 L 14.0 5.67 L 14.25 5.83 L 14.5 6.0 L 14.75 6.17 L 15.0 6.33 L 15.25 6.5 L 15.5 6.67 L 15.75 6.83 L 16.0 7.0 L 16.25 7.17 L 16.5 7.33 L 16.75 7.5 L 17.0 7.67 L 17.25 7.83 L 17.5 8.0 L 17.75 8.17 L 18.0 8.33 L 18.25 8.5 L 18.5 8.67 L 18.75 8.83 L 19.0 9.0 L 19.0 9.0 L 18.75 9.21 L 18.5 9.42 L 18.25 9.62 L 18.0 9.83 L 17.75 10.04 L 17.5 10.25 L 17.25 10.46 L 17.0 10.67 L 16.75 10.88 L 16.5 11.08 L 16.25 11.29 L 16.0 11.5 L 15.75 11.71 L 15.5 11.92 L 15.25 12.12 L 15.0 12.33 L 14.75 12.54 L 14.5 12.75 L 14.25 12.96 L 14.0 13.17 L 13.75 13.38 L 13.5 13.58 L 13.25 13.79 L 13.0 14.0" fill="none" stroke="#111" stroke-width="0.86" stroke-linecap="round" stroke-linejoin="round"/>
<path d="M 13.0 10.0 L 13.25 9.96 L 13.5 9.92 L 13.75 9.88 L 14.0 9.83 L 14.25 9.79 L 14.5 9.75 L 14.75 9.71 L 15.0 9.67 L 15.25 9.62 L 15.5 9.58 L 15.75 9.54 L 16.0 9.5 L 16.25 9.46 L 16.5 9.42 L 16.75 9.38 L 17.0 9.33 L 17.25 9.29 L 17.5 9.25 L 17.75 9.21 L 18.0 9.17 L 18.25 9.12 L 18.5 9.08 L 18.75 9.04 L 19.0 9.0" fill="none" stroke="#111" stroke-width="0.86" stroke-linecap="round" stroke-linejoin="round"/>
<path d="M 7.0 17.0 L 7.42 17.0 L 7.83 17.0 L 8.25 17.0 L 8.67 17.0 L 9.08 17.0 L 9.5 17.0 L 9.92 17.0 L 10.33 17.0 L 10.75 17.0 L 11.17 17.0 L 11.58 17.0 L 12.0 17.0 L 12.42 17.0 L 12.83 17.0 L 13.25 17.0 L 13.67 17.0 L 14.08 17.0 L 14.5 17.0 L 14.92 17.0 L 15.33 17.0 L 15.75 17.0 L 16.17 17.0 L 16.58 17.0 L 17.0 17.0" fill="none" stroke="#111" stroke-width="0.86" stroke-linecap="round" stroke-linejoin="round"/>
<path d="M 4.0 15.0 L 4.31 15.85 L 4.73 16.65 L 5.23 17.4 L 5.81 18.09 L 6.48 18.7 L 7.21 19.23 L 8.0 19.67 L 8.83 20.02 L 9.7 20.27 L 10.59 20.41 L 11.49 20.45 L 12.39 20.39 L 13.28 20.21 L 14.14 19.94 L 14.96 19.57 L 15.74 19.1 L 16.45 18.55 L 17.09 17.91 L 17.66 17.21 L 18.14 16.44 L 18.52 15.63 L 18.81 14.77 L 19.0 13.89 L 19.08 12.99" fill="none" stroke="#111" stroke-width="0.86" stroke-linecap="round" stroke-linejoin="round"/>
</svg>
