<?xml version="1.0" encoding="UTF-8"?>
<svg xmlns="http://www.w3.org/2000/svg" viewBox="0 0 31.00 35.00">
<path d="M 6.0 18.0 L 6.88 18.0 L 7.75 18.0 L 8.62 18.0 L 9.5 18.0 L 10.38 18.0 L 11.25 18.0 L 12.12 18.0 L 13.0 18.0 L 13.88 18.0 L 14.75 18.0 L 15.62 18.0 L 16.5 18.0 L 17.38 18.0 L 18.25 18.0 L 19.12 18.0 L 20.0 18.0 L 20.88 18.0 L 21.75 18.0 L 22.62 18.0 L 23.5 18.0 L 24.38 18.0 L 25.25 18.0 L 26.12 18.0 L 27.0 18.0" fill="none" stroke="#111" stroke-width="1.23" stroke-linecap="round" stroke-linejoin="round"/>
<path d="M 4.0 24.0 L 4.96 24.0 L 5.92 24.0 L 6.88 24.0 L 7.83 24.0 L 8.79 24.0 L 9.75 24.0 L 10.71 24.0 L 11.67 24.0 L 12.62 24.0 L 13.58 24.0 L 14.54 24.0 L 15.5 24.0 L 16.46 24.0 L 17.42 24.0 L 18.38 24.0 L 19.33 24.0 L 20.29 24.0 L 21.25 24.0 L 22.21 24.0 L 23.17 24.0 L 24.12 24.0 L 25.08 24.0 L 26.04 24.0 L 27.0 24.0" fill="none" stroke="#111" stroke-width="1.23" stroke-linecap="round" stroke-linejoin="round"/>
<path d="M 6.0 14.0 L 6.0 14.42 L 6.0 14.83 L 6.0 15.25 L 6.0 15.67 L 6.0 16.08 L 6.0 16.5 L 6.0 16.92 L 6.0 17.33 L 6.0 17.75 L 6.0 18.17 L 6.0 18.58 L 6.0 19.0 L 6.0 19.42 L 6.0 19.83 L 6.0 20.25 L 6.0 20.67 L 6.0 21.08 L 6.0 21.5 L 6.0 21.92 L 6.0 22.33 L 6.0 22.75 L 6.0 23.17 L 6.0 23.58 L 6.0 24.0" fill="none" stroke="#111" stroke-width="1.23" stroke-linecap="round" stroke-linejoin="round"/>
<path d="M 27.0 18.0 L 27.0 18.25 L 27.0 18.5 L 27.0 18.75 L 27.0 19.0 L 27.0 19.25 L 27.0 19.5 L 27.0 19.75 L 27.0 20.0 L 27.0 20.25 L 27.0 20.5 L 27.0 20.75 L 27.0 21.0 L 27.0 21.25 L 27.0 21.5 L 27.0 21.75 L 27.0 22.0 L 27.0 22.25 L 27.0 22.5 L 27.0 22.75 L 27.0 23.0 L 27.0 23.25 L 27.0 23.5 L 27.0 23.75 L 27.0 24.0" fill="none" stroke="#111" stroke-width="1.23" stroke-linecap="round" stroke-linejoin="round"/>
<path d="M 10.0 4.0 L 10.0 5.12 L 10.0 6.25 L 10.0 7.38 L 10.0 8.5 L 10.0 9.62 L 10.0 10.75 L 10.0 11.88 L 10.0 13.0 L 10.0 14.12 L 10.0 15.25 L 10.0 16.38 L 10.0 17.5 L 10.0 18.62 L 10.0 19.75 L 10.0 20.88 L 10.0 22.0 L 10.0 23.12 L 10.0 24.25 L 10.0 25.38 L 10.0 26.5 L 10.0 27.62 L 10.0 28.75 L 10.0 29.88 L 10.0 31.0" fill="none" stroke="#111" stroke-width="1.23" stroke-linecap="round" stroke-linejoin="round"/>
<path d="M 17.0 4.0 L 17.0 4.92 L 17.0 5.83 L 17.0 6.75 L 17.0 7.67 L 17.0 8.58 L 17.0 9.5 L 17.0 10.42 L 17.0 11.33 L 17.0 12.25 L 17.0 13.17 L 17.0 14.08 L 17.0 15.0 L 17.0 15.92 L 17.0 16.83 L 17.0 17.75 L 17.0 18.67 L 17.0 19.58 L 17.0 20.5 L 17.0 21.42 L 17.0 22.33 L 17.0 23.25 L 17.0 24.17 L 17.0 25.08 L 17.0 26.0" fill="none" stroke="#111" stroke-width="1.23" stroke-linecap="round" stroke-linejoin="round"/>
<path d="M 23.0 4.0 L 23.0 5.04 L 23.0 6.08 L 23.0 7.12 L 23.0 8.17 L 23.0 9.21 L 23.0 10.25 L 23.0 11.29 L 23.0 12.33 L 23.0 13.38 L 23.0 14.42 L 23.0 15.46 L 23.0 16.5 L 23.0 17.54 L 23.0 18.58 L 23.0 19.62 L 23.0 20.67 L 23.0 21.71 L 23.0 22.75 L 23.0 23.79 L 23.0 24.83 L 23.0 25.88 L 23.0 26.92 L 23.0 27.96 L 23.0 29.0" fill="none" stroke="#111" stroke-width="1.23" stroke-linecap="round" stroke-linejoin="round"/>
<path d="M 13.0 18.0 L 13.0 18.25 L 13.0 18.5 L 13.0 18.75 L 13.0 19.0 L 13.0 19.25 L 13.0 19.5 L 13.0 19.75 L 13.0 20.0 L 13.0 20.25 L 13.0 20.5 L 13.0 20.75 L 13.0 21.0 L 13.0 21.25 L 13.0 21.5 L 13.0 21.75 L 13.0 22.0 L 13.0 22.25 L 13.0 22.5 L 13.0 22.75 L 13.0 23.0 L 13.0 23.25 L 13.0 23.5 L 13.0 23.75 L 13.0 24.0" fill="none" stroke="#111" stroke-width="1.23" stroke-linecap="round" stroke-linejoin="round"/>
<path d="M 20.0 18.0 L 20.0 18.25 L 20.0 18.5 L 20.0 18.75 L 20.0 19.0 L 20.0 19.25 L 20.0 19.5 L 20.0 19.75 L 20.0 20.0 L 20.0 20.25 L 20.0 20.5 L 20.0 20.75 L 20.0 21.0 L 20.0 21.25 L 20.0 21.5 L 20.0 21.75 L 20.0 22.0 L 20.0 22.25 L 20.0 22.5 L 20.0 22.75 L 20.0 23.0 L 20.0 23.25 L 20.0 23.5 L 20.0 23.75 L 20.0 24.0" fill="none" stroke="#111" stroke-width="1.23" stroke-linecap="round" stroke-linejoin="round"/>
</svg>
