<?xml version="1.0" encoding="UTF-8"?>
<svg xmlns="http://www.w3.org/2000/svg" viewBox="0 0 20.00 29.00">
<path d="M 4.0 4.0 L 4.04 4.79 L 4.08 5.58 L 4.12 6.38 L 4.17 7.17 L 4.21 7.96 L 4.25 8.75 L 4.29 9.54 L 4.33 10.33 L 4.38 11.12 L 4.42 11.92 L 4.46 12.71 L 4.5 13.5 L 4.54 14.29 L 4.58 15.08 L 4.63 15.88 L 4.67 16.67 L 4.71 17.46 L 4.75 18.25 L 4.79 19.04 L 4.83 19.83 L 4.88 20.62 L 4.92 21.42 L 4.96 22.21 L 5.0 23.0 L 5.0 23.0 L 5.21 23.08 L 5.42 23.17 L 5.62 23.25 L 5.83 23.33 L 6.04 23.42 L 6.25 23.5 L 6.46 23.58 L 6.67 23.67 L 6.88 23.75 L 7.08 23.83 L 7.29 23.92 L 7.5 24.0 L 7.71 24.08 L 7.92 24.17 L 8.12 24.25 L 8.33 24.33 L 8.54 24.42 L 8.75 24.5 L 8.96 24.58 L 9.17 24.67 L 9.38 24.75 L 9.58 24.83 L 9.79 24.92 L 10.0 25.0 L 10.0 25.0 L 10.25 24.92 L 10.5 24.83 L 10.75 24.75 L 11.0 24.67 L 11.25 24.58 L 11.5 24.5 L 11.75 24.42 L 12.0 24.33 L 12.25 24.25 L 12.5 24.17 L 12.75 24.08 L 13.0 24.0 L 13.25 23.92 L 13.5 23.83 L 13.75 23.75 L 14.0 23.67 L 14.25 23.58 L 14.5 23.5 L 14.75 23.42 L 15.0 23.33 L 15.25 23.25 L 15.5 23.17 L 15.75 23.08 L 16.0 23.0" fill="none" stroke="#111" stroke-width="1.02" stroke-linecap="round" stroke-linejoin="round"/>
<path d="M 16.0 4.0 L 16.0 4.79 L 16.0 5.58 L 16.0 6.38 L 16.0 7.17 L 16.0 7.96 L 16.0 8.75 L 16.0 9.54 L 16.0 10.33 L 16.0 11.12 L 16.0 11.92 L 16.0 12.71 L 16.0 13.5 L 16.0 14.29 L 16.0 15.08 L 16.0 15.88 L 16.0 16.67 L 16.0 17.46 L 16.0 18.25 L 16.0 19.04 L 16.0 19.83 L 16.0 20.62 L 16.0 21.42 L 16.0 22.21 L 16.0 23.0" fill="none" stroke="#111" stroke-width="1.02" stroke-linecap="round" stroke-linejoin="round"/>
<path d="M 5.0 14.0 L 5.46 14.0 L 5.92 14.0 L 6.38 14.0 L 6.83 14.0 L 7.29 14.0 L 7.75 14.0 L 8.21 14.0 L 8.67 14.0 L 9.12 14.0 L 9.58 14.0 L 10.04 14.0 L 10.5 14.0 L 10.96 14.0 L 11.42 14.0 L 11.88 14.0 L 12.33 14.0 L 12.79 14.0 L 13.25 14.0 L 13.71 14.0 L 14.17 14.0 L 14.62 14.0 L 15.08 14.0 L 15.54 14.0 L 16.0 14.0" fill="none" stroke="#111" stroke-width="1.02" stroke-linecap="round" stroke-linejoin="round"/>
</svg>
