<?xml version="1.0" encoding="UTF-8"?>
<svg xmlns="http://www.w3.org/2000/svg" viewBox="0 0 25.00 33.00">
<path d="M 21.0 4.0 L 20.29 4.04 L 19.58 4.08 L 18.88 4.12 L 18.17 4.17 L 17.46 4.21 L 16.75 4.25 L 16.04 4.29 L 15.33 4.33 L 14.62 4.38 L 13.92 4.42 L 13.21 4.46 L 12.5 4.5 L 11.79 4.54 L 11.08 4.58 L 10.38 4.63 L 9.67 4.67 L 8.96 4.71 L 8.25 4.75 L 7.54 4.79 L 6.83 4.83 L 6.12 4.88 L 5.42 4.92 L 4.71 4.96 L 4.0 5.0 L 4.0 5.0 L 4.0 6.0 L 4.0 7.0 L 4.0 8.0 L 4.0 9.0 L 4.0 10.0 L 4.0 11.0 L 4.0 12.0 L 4.0 13.0 L 4.0 14.0 L 4.0 15.0 L 4.0 16.0 L 4.0 17.0 L 4.0 18.0 L 4.0 19.0 L 4.0 20.0 L 4.0 21.0 L 4.0 22.0 L 4.0 23.0 L 4.0 24.0 L 4.0 25.0 L 4.0 26.0 L 4.0 27.0 L 4.0 28.0 L 4.0 29.0" fill="none" stroke="#111" stroke-width="1.16" stroke-linecap="round" stroke-linejoin="round"/>
<path d="M 13.0 4.0 L 12.71 4.62 L 12.42 5.25 L 12.12 5.88 L 11.83 6.5 L 11.54 7.12 L 11.25 7.75 L 10.96 8.38 L 10.67 9.0 L 10.37 9.62 L 10.08 10.25 L 9.79 10.88 L 9.5 11.5 L 9.21 12.12 L 8.92 12.75 L 8.62 13.38 L 8.33 14.0 L 8.04 14.62 L 7.75 15.25 L 7.46 15.87 L 7.17 16.5 L 6.87 17.12 L 6.58 17.75 L 6.29 18.37 L 6.0 19.0" fill="none" stroke="#111" stroke-width="1.16" stroke-linecap="round" stroke-linejoin="round"/>
</svg>
