<?xml version="1.0" encoding="UTF-8"?>
<svg xmlns="http://www.w3.org/2000/svg" viewBox="0 0 24.00 39.43">
<path d="M 4.0 15.0 L 4.58 14.79 L 5.17 14.58 L 5.75 14.38 L 6.33 14.17 L 6.92 13.96 L 7.5 13.75 L 8.08 13.54 L 8.67 13.33 L 9.25 13.12 L 9.83 12.92 L 10.42 12.71 L 11.0 12.5 L 11.58 12.29 L 12.17 12.08 L 12.75 11.88 L 13.33 11.67 L 13.92 11.46 L 14.5 11.25 L 15.08 11.04 L 15.67 10.83 L 16.25 10.62 L 16.83 10.42 L 17.42 10.21 L 18.0 10.0" fill="none" stroke="#111" stroke-width="1.38" stroke-linecap="round" stroke-linejoin="round"/>
<path d="M 10.0 4.0 L 9.75 4.46 L 9.5 4.92 L 9.25 5.38 L 9.0 5.83 L 8.75 6.29 L 8.5 6.75 L 8.25 7.21 L 8.0 7.67 L 7.75 8.12 L 7.5 8.58 L 7.25 9.04 L 7.0 9.5 L 6.75 9.96 L 6.5 10.42 L 6.25 10.88 L 6.0 11.33 L 5.75 11.79 L 5.5 12.25 L 5.25 12.71 L 5.0 13.17 L 4.75 13.63 L 4.5 14.08 L 4.25 14.54 L 4.0 15.0" fill="none" stroke="#111" stroke-width="1.38" stroke-linecap="round" stroke-linejoin="round"/>
<path d="M 8.0 8.0 L 8.12 8.17 L 8.25 8.33 L 8.38 8.5 L 8.5 8.67 L 8.62 8.83 L 8.75 9.0 L 8.88 9.17 L 9.0 9.33 L 9.12 9.5 L 9.25 9.67 L 9.38 9.83 L 9.5 10.0 L 9.62 10.17 L 9.75 10.33 L 9.88 10.5 L 10.0 10.67 L 10.12 10.83 L 10.25 11.0 L 10.38 11.17 L 10.5 11.33 L 10.62 11.5 L 10.75 11.67 L 10.88 11.83 L 11.0 12.0" fill="none" stroke="#111" stroke-width="1.38" stroke-linecap="round" stroke-linejoin="round"/>
<path d="M 13.0 6.0 L 12.88 6.17 L 12.75 6.33 L 12.62 6.5 L 12.5 6.67 L 12.38 6.83 L 12.25 7.0 L 12.12 7.17 L 12.0 7.33 L 11.88 7.5 L 11.75 7.67 L 11.62 7.83 L 11.5 8.0 L 11.38 8.17 L 11.25 8.33 L 11.12 8.5 L 11.0 8.67 L 10.88 8.83 L 10.75 9.0 L 10.62 9.17 L 10.5 9.33 L 10.38 9.5 L 10.25 9.67 L 10.12 9.83 L 10.0 10.0" fill="none" stroke="#111" stroke-width="1.38" stroke-linecap="round" stroke-linejoin="round"/>
<path d="M 13.0 12.0 L 13.22 12.84 L 13.4 13.69 L 13.55 14.55 L 13.66 15.41 L 13.74 16.28 L 13.79 17.14 L 13.81 18.01 L 13.79 18.88 L 13.73 19.75 L 13.65 20.61 L 13.53 21.48 L 13.37 22.33 L 13.19 23.18 L 12.97 24.02 L 12.71 24.85 L 12.43 25.67 L 12.11 26.48 L 11.76 27.28 L 11.39 28.06 L 10.98 28.83 L 10.54 29.58 L 10.07 30.31 L 9.58 31.03 L 9.06 31.72" fill="none" stroke="#111" stroke-width="1.38" stroke-linecap="round" stroke-linejoin="round"/>
<path d="M 9.0 13.0 L 8.31 13.8 L 7.67 14.64 L 7.09 15.53 L 6.58 16.45 L 6.13 17.41 L 5.75 18.4 L 5.44 19.41 L 5.21 20.44 L 5.04 21.48 L 4.95 22.54 L 4.93 23.59 L 4.98 24.65 L 5.11 25.7 L 5.31 26.74 L 5.59 27.76 L 5.93 28.76 L 6.34 29.73 L 6.82 30.67 L 7.37 31.58 L 7.97 32.44 L 8.64 33.27 L 9.36 34.04 L 10.13 34.76 L 10.95 35.43" fill="none" stroke="#111" stroke-width="1.38" stroke-linecap="round" stroke-linejoin="round"/>
<path d="M 6.0 29.0 L 6.54 28.92 L 7.08 28.83 L 7.62 28.75 L 8.17 28.67 L 8.71 28.58 L 9.25 28.5 L 9.79 28.42 L 10.33 28.33 L 10.88 28.25 L 11.42 28.17 L 11.96 28.08 L 12.5 28.0 L 13.04 27.92 L 13.58 27.83 L 14.12 27.75 L 14.67 27.67 L 15.21 27.58 L 15.75 27.5 L 16.29 27.42 L 16.83 27.33 L 17.38 27.25 L 17.92 27.17 L 18.46 27.08 L 19.0 27.0" fill="none" stroke="#111" stroke-width="1.38" stroke-linecap="round" stroke-linejoin="round"/>
<path d="M 15.0 14.0 L 15.04 14.25 L 15.08 14.5 L 15.12 14.75 L 15.17 15.0 L 15.21 15.25 L 15.25 15.5 L 15.29 15.75 L 15.33 16.0 L 15.38 16.25 L 15.42 16.5 L 15.46 16.75 L 15.5 17.0 L 15.54 17.25 L 15.58 17.5 L 15.62 17.75 L 15.67 18.0 L 15.71 18.25 L 15.75 18.5 L 15.79 18.75 L 15.83 19.0 L 15.88 19.25 L 15.92 19.5 L 15.96 19.75 L 16.0 20.0 L 16.0 20.0 L 16.17 20.0 L 16.33 20.0 L 16.5 20.0 L 16.67 20.0 L 16.83 20.0 L 17.0 20.0 L 17.17 20.0 L 17.33 20.0 L 17.5 20.0 L 17.67 20.0 L 17.83 20.0 L 18.0 20.0 L 18.17 20.0 L 18.33 20.0 L 18.5 20.0 L 18.67 20.0 L 18.83 20.0 L 19.0 20.0 L 19.17 20.0 L 19.33 20.0 L 19.5 20.0 L 19.67 20.0 L 19.83 20.0 L 20.0 20.0" fill="none" stroke="#111" stroke-width="1.38" stroke-linecap="round" stroke-linejoin="round"/>
<path d="M 19.0 13.0 L 19.04 13.29 L 19.08 13.58 L 19.12 13.88 L 19.17 14.17 L 19.21 14.46 L 19.25 14.75 L 19.29 15.04 L 19.33 15.33 L 19.38 15.62 L 19.42 15.92 L 19.46 16.21 L 19.5 16.5 L 19.54 16.79 L 19.58 17.08 L 19.62 17.38 L 19.67 17.67 L 19.71 17.96 L 19.75 18.25 L 19.79 18.54 L 19.83 18.83 L 19.88 19.12 L 19.92 19.42 L 19.96 19.71 L 20.0 20.0" fill="none" stroke="#111" stroke-width="1.38" stroke-linecap="round" stroke-linejoin="round"/>
<path d="M 15.0 16.0 L 15.21 16.0 L 15.42 16.0 L 15.62 16.0 L 15.83 16.0 L 16.04 16.0 L 16.25 16.0 L 16.46 16.0 L 16.67 16.0 L 16.88 16.0 L 17.08 16.0 L 17.29 16.0 L 17.5 16.0 L 17.71 16.0 L 17.92 16.0 L 18.12 16.0 L 18.33 16.0 L 18.54 16.0 L 18.75 16.0 L 18.96 16.0 L 19.17 16.0 L 19.38 16.0 L 19.58 16.0 L 19.79 16.0 L 20.0 16.0" fill="none" stroke="#111" stroke-width="1.38" stroke-linecap="round" stroke-linejoin="round"/>
</svg>
