<?xml version="1.0" encoding="UTF-8"?>
<svg xmlns="http://www.w3.org/2000/svg" viewBox="0 0 23.00 38.85">
<path d="M 4.0 8.0 L 4.25 8.0 L 4.5 8.0 L 4.75 8.0 L 5.0 8.0 L 5.25 8.0 L 5.5 8.0 L 5.75 8.0 L 6.0 8.0 L 6.25 8.0 L 6.5 8.0 L 6.75 8.0 L 7.0 8.0 L 7.25 8.0 L 7.5 8.0 L 7.75 8.0 L 8.0 8.0 L 8.25 8.0 L 8.5 8.0 L 8.75 8.0 L 9.0 8.0 L 9.25 8.0 L 9.5 8.0 L 9.75 8.0 L 10.0 8.0" fill="none" stroke="#111" stroke-width="1.36" stroke-linecap="round" stroke-linejoin="round"/>
<path d="M 4.0 8.0 L 4.0 8.17 L 4.0 8.33 L 4.0 8.5 L 4.0 8.67 L 4.0 8.83 L 4.0 9.0 L 4.0 9.17 L 4.0 9.33 L 4.0 9.5 L 4.0 9.67 L 4.0 9.83 L 4.0 10.0 L 4.0 10.17 L 4.0 10.33 L 4.0 10.5 L 4.0 10.67 L 4.0 10.83 L 4.0 11.0 L 4.0 11.17 L 4.0 11.33 L 4.0 11.5 L 4.0 11.67 L 4.0 11.83 L 4.0 12.0 L 4.0 12.0 L 4.25 12.0 L 4.5 12.0 L 4.75 12.0 L 5.0 12.0 L 5.25 12.0 L 5.5 12.0 L 5.75 12.0 L 6.0 12.0 L 6.25 12.0 L 6.5 12.0 L 6.75 12.0 L 7.0 12.0 L 7.25 12.0 L 7.5 12.0 L 7.75 12.0 L 8.0 12.0 L 8.25 12.0 L 8.5 12.0 L 8.75 12.0 L 9.0 12.0 L 9.25 12.0 L 9.5 12.0 L 9.75 12.0 L 10.0 12.0" fill="none" stroke="#111" stroke-width="1.36" stroke-linecap="round" stroke-linejoin="round"/>
<path d="M 8.0 8.0 L 8.0 8.17 L 8.0 8.33 L 8.0 8.5 L 8.0 8.67 L 8.0 8.83 L 8.0 9.0 L 8.0 9.17 L 8.0 9.33 L 8.0 9.5 L 8.0 9.67 L 8.0 9.83 L 8.0 10.0 L 8.0 10.17 L 8.0 10.33 L 8.0 10.5 L 8.0 10.67 L 8.0 10.83 L 8.0 11.0 L 8.0 11.17 L 8.0 11.33 L 8.0 11.5 L 8.0 11.67 L 8.0 11.83 L 8.0 12.0" fill="none" stroke="#111" stroke-width="1.36" stroke-linecap="round" stroke-linejoin="round"/>
<path d="M 5.0 12.0 L 5.0 12.5 L 5.0 13.0 L 5.0 13.5 L 5.0 14.0 L 5.0 14.5 L 5.0 15.0 L 5.0 15.5 L 5.0 16.0 L 5.0 16.5 L 5.0 17.0 L 5.0 17.5 L 5.0 18.0 L 5.0 18.5 L 5.0 19.0 L 5.0 19.5 L 5.0 20.0 L 5.0 20.5 L 5.0 21.0 L 5.0 21.5 L 5.0 22.0 L 5.0 22.5 L 5.0 23.0 L 5.0 23.5 L 5.0 24.0 L 5.0 24.0 L 5.21 24.08 L 5.42 24.17 L 5.62 24.25 L 5.83 24.33 L 6.04 24.42 L 6.25 24.5 L 6.46 24.58 L 6.67 24.67 L 6.88 24.75 L 7.08 24.83 L 7.29 24.92 L 7.5 25.0 L 7.71 25.08 L 7.92 25.17 L 8.12 25.25 L 8.33 25.33 L 8.54 25.42 L 8.75 25.5 L 8.96 25.58 L 9.17 25.67 L 9.38 25.75 L 9.58 25.83 L 9.79 25.92 L 10.0 26.0" fill="none" stroke="#111" stroke-width="1.36" stroke-linecap="round" stroke-linejoin="round"/>
<path d="M 10.0 26.0 L 10.0 26.12 L 10.0 26.25 L 10.0 26.38 L 10.0 26.5 L 10.0 26.62 L 10.0 26.75 L 10.0 26.88 L 10.0 27.0 L 10.0 27.12 L 10.0 27.25 L 10.0 27.38 L 10.0 27.5 L 10.0 27.62 L 10.0 27.75 L 10.0 27.88 L 10.0 28.0 L 10.0 28.12 L 10.0 28.25 L 10.0 28.38 L 10.0 28.5 L 10.0 28.62 L 10.0 28.75 L 10.0 28.88 L 10.0 29.0 L 10.0 29.0 L 9.75 28.92 L 9.5 28.83 L 9.25 28.75 L 9.0 28.67 L 8.75 28.58 L 8.5 28.5 L 8.25 28.42 L 8.0 28.33 L 7.75 28.25 L 7.5 28.17 L 7.25 28.08 L 7.0 28.0 L 6.75 27.92 L 6.5 27.83 L 6.25 27.75 L 6.0 27.67 L 5.75 27.58 L 5.5 27.5 L 5.25 27.42 L 5.0 27.33 L 4.75 27.25 L 4.5 27.17 L 4.25 27.08 L 4.0 27.0 L 4.0 27.0 L 4.05 27.5 L 4.13 28.0 L 4.25 28.49 L 4.39 28.97 L 4.56 29.45 L 4.75 29.91 L 4.98 30.36 L 5.23 30.8 L 5.5 31.22 L 5.8 31.63 L 6.12 32.01 L 6.47 32.38 L 6.84 32.73 L 7.22 33.05 L 7.63 33.35 L 8.05 33.62 L 8.49 33.87 L 8.94 34.1 L 9.4 34.29 L 9.88 34.46 L 10.36 34.6 L 10.85 34.72 L 11.35 34.8 L 11.85 34.85" fill="none" stroke="#111" stroke-width="1.36" stroke-linecap="round" stroke-linejoin="round"/>
<path d="M 5.0 12.0 L 5.17 12.54 L 5.33 13.08 L 5.5 13.62 L 5.67 14.17 L 5.83 14.71 L 6.0 15.25 L 6.17 15.79 L 6.33 16.33 L 6.5 16.88 L 6.67 17.42 L 6.83 17.96 L 7.0 18.5 L 7.17 19.04 L 7.33 19.58 L 7.5 20.12 L 7.67 20.67 L 7.83 21.21 L 8.0 21.75 L 8.17 22.29 L 8.33 22.83 L 8.5 23.38 L 8.67 23.92 L 8.83 24.46 L 9.0 25.0" fill="none" stroke="#111" stroke-width="1.36" stroke-linecap="round" stroke-linejoin="round"/>
<path d="M 12.0 6.0 L 12.25 5.92 L 12.5 5.83 L 12.75 5.75 L 13.0 5.67 L 13.25 5.58 L 13.5 5.5 L 13.75 5.42 L 14.0 5.33 L 14.25 5.25 L 14.5 5.17 L 14.75 5.08 L 15.0 5.0 L 15.25 4.92 L 15.5 4.83 L 15.75 4.75 L 16.0 4.67 L 16.25 4.58 L 16.5 4.5 L 16.75 4.42 L 17.0 4.33 L 17.25 4.25 L 17.5 4.17 L 17.75 4.08 L 18.0 4.0" fill="none" stroke="#111" stroke-width="1.36" stroke-linecap="round" stroke-linejoin="round"/>
<path d="M 18.0 4.0 L 18.04 4.21 L 18.08 4.42 L 18.12 4.62 L 18.17 4.83 L 18.21 5.04 L 18.25 5.25 L 18.29 5.46 L 18.33 5.67 L 18.38 5.88 L 18.42 6.08 L 18.46 6.29 L 18.5 6.5 L 18.54 6.71 L 18.58 6.92 L 18.62 7.12 L 18.67 7.33 L 18.71 7.54 L 18.75 7.75 L 18.79 7.96 L 18.83 8.17 L 18.88 8.38 L 18.92 8.58 L 18.96 8.79 L 19.0 9.0 L 19.0 9.0 L 18.71 9.04 L 18.42 9.08 L 18.12 9.12 L 17.83 9.17 L 17.54 9.21 L 17.25 9.25 L 16.96 9.29 L 16.67 9.33 L 16.38 9.38 L 16.08 9.42 L 15.79 9.46 L 15.5 9.5 L 15.21 9.54 L 14.92 9.58 L 14.62 9.63 L 14.33 9.67 L 14.04 9.71 L 13.75 9.75 L 13.46 9.79 L 13.17 9.83 L 12.88 9.88 L 12.58 9.92 L 12.29 9.96 L 12.0 10.0" fill="none" stroke="#111" stroke-width="1.36" stroke-linecap="round" stroke-linejoin="round"/>
<path d="M 15.0 5.0 L 15.0 5.17 L 15.0 5.33 L 15.0 5.5 L 15.0 5.67 L 15.0 5.83 L 15.0 6.0 L 15.0 6.17 L 15.0 6.33 L 15.0 6.5 L 15.0 6.67 L 15.0 6.83 L 15.0 7.0 L 15.0 7.17 L 15.0 7.33 L 15.0 7.5 L 15.0 7.67 L 15.0 7.83 L 15.0 8.0 L 15.0 8.17 L 15.0 8.33 L 15.0 8.5 L 15.0 8.67 L 15.0 8.83 L 15.0 9.0" fill="none" stroke="#111" stroke-width="1.36" stroke-linecap="round" stroke-linejoin="round"/>
</svg>
