<?xml version="1.0" encoding="UTF-8"?>
<svg xmlns="http://www.w3.org/2000/svg" viewBox="0 0 23.45 36.68">
<path d="M 11.45 4.0 L 10.27 4.85 L 9.17 5.8 L 8.15 6.84 L 7.24 7.97 L 6.42 9.18 L 5.72 10.45 L 5.13 11.78 L 4.66 13.16 L 4.31 14.57 L 4.09 16.01 L 4.0 17.46 L 4.04 18.92 L 4.2 20.37 L 4.49 21.79 L 4.91 23.19 L 5.44 24.54 L 6.1 25.84 L 6.86 27.07 L 7.74 28.24 L 8.71 29.32 L 9.77 30.31 L 10.92 31.21 L 12.14 32.0 L 13.43 32.68" fill="none" stroke="#111" stroke-width="1.28" stroke-linecap="round" stroke-linejoin="round"/>
<path d="M 9.45 7.0 L 9.45 7.92 L 9.45 8.83 L 9.45 9.75 L 9.45 10.67 L 9.45 11.58 L 9.45 12.5 L 9.45 13.42 L 9.45 14.33 L 9.45 15.25 L 9.45 16.17 L 9.45 17.08 L 9.45 18.0 L 9.45 18.92 L 9.45 19.83 L 9.45 20.75 L 9.45 21.67 L 9.45 22.58 L 9.45 23.5 L 9.45 24.42 L 9.45 25.33 L 9.45 26.25 L 9.45 27.17 L 9.45 28.08 L 9.45 29.0" fill="none" stroke="#111" stroke-width="1.28" stroke-linecap="round" stroke-linejoin="round"/>
<path d="M 13.45 17.0 L 13.45 17.33 L 13.45 17.67 L 13.45 18.0 L 13.45 18.33 L 13.45 18.67 L 13.45 19.0 L 13.45 19.33 L 13.45 19.67 L 13.45 20.0 L 13.45 20.33 L 13.45 20.67 L 13.45 21.0 L 13.45 21.33 L 13.45 21.67 L 13.45 22.0 L 13.45 22.33 L 13.45 22.67 L 13.45 23.0 L 13.45 23.33 L 13.45 23.67 L 13.45 24.0 L 13.45 24.33 L 13.45 24.67 L 13.45 25.0 L 13.45 25.0 L 13.67 25.15 L 13.89 25.29 L 14.12 25.42 L 14.36 25.53 L 14.6 25.63 L 14.85 25.72 L 15.1 25.79 L 15.36 25.86 L 15.62 25.9 L 15.88 25.94 L 16.14 25.96 L 16.41 25.97 L 16.67 25.96 L 16.93 25.94 L 17.19 25.9 L 17.45 25.86 L 17.71 25.79 L 17.96 25.72 L 18.21 25.63 L 18.45 25.53 L 18.69 25.42 L 18.92 25.29 L 19.15 25.15 L 19.36 25.0 L 19.45 25.0 L 19.45 25.0 L 19.45 25.0 L 19.45 25.0 L 19.45 25.0 L 19.45 25.0 L 19.45 25.0 L 19.45 25.0 L 19.45 25.0 L 19.45 25.0 L 19.45 25.0 L 19.45 25.0 L 19.45 25.0 L 19.45 25.0 L 19.45 25.0 L 19.45 25.0 L 19.45 25.0 L 19.45 25.0 L 19.45 25.0 L 19.45 25.0 L 19.45 25.0 L 19.45 25.0 L 19.45 25.0 L 19.45 25.0 L 19.45 25.0" fill="none" stroke="#111" stroke-width="1.28" stroke-linecap="round" stroke-linejoin="round"/>
<path d="M 19.45 17.0 L 19.45 17.33 L 19.45 17.67 L 19.45 18.0 L 19.45 18.33 L 19.45 18.67 L 19.45 19.0 L 19.45 19.33 L 19.45 19.67 L 19.45 20.0 L 19.45 20.33 L 19.45 20.67 L 19.45 21.0 L 19.45 21.33 L 19.45 21.67 L 19.45 22.0 L 19.45 22.33 L 19.45 22.67 L 19.45 23.0 L 19.45 23.33 L 19.45 23.67 L 19.45 24.0 L 19.45 24.33 L 19.45 24.67 L 19.45 25.0" fill="none" stroke="#111" stroke-width="1.28" stroke-linecap="round" stroke-linejoin="round"/>
<path d="M 13.45 20.0 L 13.7 20.0 L 13.95 20.0 L 14.2 20.0 L 14.45 20.0 L 14.7 20.0 L 14.95 20.0 L 15.2 20.0 L 15.45 20.0 L 15.7 20.0 L 15.95 20.0 L 16.2 20.0 L 16.45 20.0 L 16.7 20.0 L 16.95 20.0 L 17.2 20.0 L 17.45 20.0 L 17.7 20.0 L 17.95 20.0 L 18.2 20.0 L 18.45 20.0 L 18.7 20.0 L 18.95 20.0 L 19.2 20.0 L 19.45 20.0" fill="none" stroke="#111" stroke-width="1.28" stroke-linecap="round" stroke-linejoin="round"/>
</svg>
