<?xml version="1.0" encoding="UTF-8"?>
<svg xmlns="http://www.w3.org/2000/svg" viewBox="0 0 24.00 34.83">
<path d="M 4.0 4.0 L 4.0 4.96 L 4.0 5.92 L 4.0 6.88 L 4.0 7.83 L 4.0 8.79 L 4.0 9.75 L 4.0 10.71 L 4.0 11.67 L 4.0 12.62 L 4.0 13.58 L 4.0 14.54 L 4.0 15.5 L 4.0 16.46 L 4.0 17.42 L 4.0 18.38 L 4.0 19.33 L 4.0 20.29 L 4.0 21.25 L 4.0 22.21 L 4.0 23.17 L 4.0 24.12 L 4.0 25.08 L 4.0 26.04 L 4.0 27.0" fill="none" stroke="#111" stroke-width="1.22" stroke-linecap="round" stroke-linejoin="round"/>
<path d="M 9.0 6.0 L 9.0 6.71 L 9.0 7.42 L 9.0 8.12 L 9.0 8.83 L 9.0 9.54 L 9.0 10.25 L 9.0 10.96 L 9.0 11.67 L 9.0 12.38 L 9.0 13.08 L 9.0 13.79 L 9.0 14.5 L 9.0 15.21 L 9.0 15.92 L 9.0 16.62 L 9.0 17.33 L 9.0 18.04 L 9.0 18.75 L 9.0 19.46 L 9.0 20.17 L 9.0 20.88 L 9.0 21.58 L 9.0 22.29 L 9.0 23.0" fill="none" stroke="#111" stroke-width="1.22" stroke-linecap="round" stroke-linejoin="round"/>
<path d="M 4.0 6.0 L 4.21 6.0 L 4.42 6.0 L 4.62 6.0 L 4.83 6.0 L 5.04 6.0 L 5.25 6.0 L 5.46 6.0 L 5.67 6.0 L 5.88 6.0 L 6.08 6.0 L 6.29 6.0 L 6.5 6.0 L 6.71 6.0 L 6.92 6.0 L 7.12 6.0 L 7.33 6.0 L 7.54 6.0 L 7.75 6.0 L 7.96 6.0 L 8.17 6.0 L 8.38 6.0 L 8.58 6.0 L 8.79 6.0 L 9.0 6.0" fill="none" stroke="#111" stroke-width="1.22" stroke-linecap="round" stroke-linejoin="round"/>
<path d="M 4.0 14.0 L 4.21 14.0 L 4.42 14.0 L 4.62 14.0 L 4.83 14.0 L 5.04 14.0 L 5.25 14.0 L 5.46 14.0 L 5.67 14.0 L 5.88 14.0 L 6.08 14.0 L 6.29 14.0 L 6.5 14.0 L 6.71 14.0 L 6.92 14.0 L 7.12 14.0 L 7.33 14.0 L 7.54 14.0 L 7.75 14.0 L 7.96 14.0 L 8.17 14.0 L 8.38 14.0 L 8.58 14.0 L 8.79 14.0 L 9.0 14.0" fill="none" stroke="#111" stroke-width="1.22" stroke-linecap="round" stroke-linejoin="round"/>
<path d="M 4.0 24.0 L 4.21 23.96 L 4.42 23.92 L 4.62 23.88 L 4.83 23.83 L 5.04 23.79 L 5.25 23.75 L 5.46 23.71 L 5.67 23.67 L 5.88 23.62 L 6.08 23.58 L 6.29 23.54 L 6.5 23.5 L 6.71 23.46 L 6.92 23.42 L 7.12 23.38 L 7.33 23.33 L 7.54 23.29 L 7.75 23.25 L 7.96 23.21 L 8.17 23.17 L 8.38 23.12 L 8.58 23.08 L 8.79 23.04 L 9.0 23.0" fill="none" stroke="#111" stroke-width="1.22" stroke-linecap="round" stroke-linejoin="round"/>
<path d="M 20.0 4.0 L 20.0 4.96 L 20.0 5.92 L 20.0 6.88 L 20.0 7.83 L 20.0 8.79 L 20.0 9.75 L 20.0 10.71 L 20.0 11.67 L 20.0 12.62 L 20.0 13.58 L 20.0 14.54 L 20.0 15.5 L 20.0 16.46 L 20.0 17.42 L 20.0 18.38 L 20.0 19.33 L 20.0 20.29 L 20.0 21.25 L 20.0 22.21 L 20.0 23.17 L 20.0 24.12 L 20.0 25.08 L 20.0 26.04 L 20.0 27.0" fill="none" stroke="#111" stroke-width="1.22" stroke-linecap="round" stroke-linejoin="round"/>
<path d="M 15.0 6.0 L 15.0 6.67 L 15.0 7.33 L 15.0 8.0 L 15.0 8.67 L 15.0 9.33 L 15.0 10.0 L 15.0 10.67 L 15.0 11.33 L 15.0 12.0 L 15.0 12.67 L 15.0 13.33 L 15.0 14.0 L 15.0 14.67 L 15.0 15.33 L 15.0 16.0 L 15.0 16.67 L 15.0 17.33 L 15.0 18.0 L 15.0 18.67 L 15.0 19.33 L 15.0 20.0 L 15.0 20.67 L 15.0 21.33 L 15.0 22.0" fill="none" stroke="#111" stroke-width="1.22" stroke-linecap="round" stroke-linejoin="round"/>
<path d="M 15.0 6.0 L 15.21 6.0 L 15.42 6.0 L 15.62 6.0 L 15.83 6.0 L 16.04 6.0 L 16.25 6.0 L 16.46 6.0 L 16.67 6.0 L 16.88 6.0 L 17.08 6.0 L 17.29 6.0 L 17.5 6.0 L 17.71 6.0 L 17.92 6.0 L 18.12 6.0 L 18.33 6.0 L 18.54 6.0 L 18.75 6.0 L 18.96 6.0 L 19.17 6.0 L 19.38 6.0 L 19.58 6.0 L 19.79 6.0 L 20.0 6.0" fill="none" stroke="#111" stroke-width="1.22" stroke-linecap="round" stroke-linejoin="round"/>
<path d="M 15.0 14.0 L 15.21 14.0 L 15.42 14.0 L 15.62 14.0 L 15.83 14.0 L 16.04 14.0 L 16.25 14.0 L 16.46 14.0 L 16.67 14.0 L 16.88 14.0 L 17.08 14.0 L 17.29 14.0 L 17.5 14.0 L 17.71 14.0 L 17.92 14.0 L 18.12 14.0 L 18.33 14.0 L 18.54 14.0 L 18.75 14.0 L 18.96 14.0 L 19.17 14.0 L 19.38 14.0 L 19.58 14.0 L 19.79 14.0 L 20.0 14.0" fill="none" stroke="#111" stroke-width="1.22" stroke-linecap="round" stroke-linejoin="round"/>
<path d="M 15.0 22.0 L 15.21 22.08 L 15.42 22.17 L 15.62 22.25 L 15.83 22.33 L 16.04 22.42 L 16.25 22.5 L 16.46 22.58 L 16.67 22.67 L 16.88 22.75 L 17.08 22.83 L 17.29 22.92 L 17.5 23.0 L 17.71 23.08 L 17.92 23.17 L 18.12 23.25 L 18.33 23.33 L 18.54 23.42 L 18.75 23.5 L 18.96 23.58 L 19.17 23.67 L 19.38 23.75 L 19.58 23.83 L 19.79 23.92 L 20.0 24.0" fill="none" stroke="#111" stroke-width="1.22" stroke-linecap="round" stroke-linejoin="round"/>
<path d="M 9.0 24.0 L 8.75 24.34 L 8.53 24.7 L 8.34 25.08 L 8.2 25.47 L 8.1 25.88 L 8.04 26.3 L 8.03 26.72 L 8.05 27.14 L 8.12 27.56 L 8.23 27.97 L 8.38 28.36 L 8.57 28.74 L 8.8 29.09 L 9.06 29.42 L 9.36 29.72 L 9.68 29.99 L 10.03 30.23 L 10.4 30.43 L 10.79 30.59 L 11.19 30.71 L 11.61 30.79 L 12.03 30.83 L 12.45 30.82 L 12.87 30.77" fill="none" stroke="#111" stroke-width="1.22" stroke-linecap="round" stroke-linejoin="round"/>
<path d="M 16.0 23.0 L 16.2 23.34 L 16.38 23.7 L 16.53 24.07 L 16.65 24.46 L 16.74 24.85 L 16.8 25.24 L 16.83 25.64 L 16.82 26.04 L 16.79 26.44 L 16.72 26.83 L 16.63 27.22 L 16.5 27.6 L 16.35 27.97 L 16.17 28.33 L 15.95 28.67 L 15.72 28.99 L 15.46 29.29 L 15.17 29.58 L 14.87 29.84 L 14.55 30.07 L 14.2 30.28 L 13.85 30.46 L 13.48 30.61 L 13.1 30.74" fill="none" stroke="#111" stroke-width="1.22" stroke-linecap="round" stroke-linejoin="round"/>
<path d="M 9.0 27.0 L 9.29 27.0 L 9.58 27.0 L 9.88 27.0 L 10.17 27.0 L 10.46 27.0 L 10.75 27.0 L 11.04 27.0 L 11.33 27.0 L 11.62 27.0 L 11.92 27.0 L 12.21 27.0 L 12.5 27.0 L 12.79 27.0 L 13.08 27.0 L 13.38 27.0 L 13.67 27.0 L 13.96 27.0 L 14.25 27.0 L 14.54 27.0 L 14.83 27.0 L 15.12 27.0 L 15.42 27.0 L 15.71 27.0 L 16.0 27.0" fill="none" stroke="#111" stroke-width="1.22" stroke-linecap="round" stroke-linejoin="round"/>
</svg>
