<?xml version="1.0" encoding="UTF-8"?>
<svg xmlns="http://www.w3.org/2000/svg" viewBox="0 0 25.00 33.00">
<path d="M 21.0 4.0 L 20.29 4.04 L 19.58 4.08 L 18.88 4.12 L 18.17 4.17 L 17.46 4.21 L 16.75 4.25 L 16.04 4.29 L 15.33 4.33 L 14.62 4.38 L 13.92 4.42 L 13.21 4.46 L 12.5 4.5 L 11.79 4.54 L 11.08 4.58 L 10.38 4.63 L 9.67 4.67 L 8.96 4.71 L 8.25 4.75 L 7.54 4.79 L 6.83 4.83 L 6.12 4.88 L 5.42 4.92 L 4.71 4.96 L 4.0 5.0 L 4.0 5.0 L 4.0 6.0 L 4.0 7.0 L 4.0 8.0 L 4.0 9.0 L 4.0 10.0 L 4.0 11.0 L 4.0 12.0 L 4.0 13.0 L 4.0 14.0 L 4.0 15.0 L 4.0 16.0 L 4.0 17.0 L 4.0 18.0 L 4.0 19.0 L 4.0 20.0 L 4.0 21.0 L 4.0 22.0 L 4.0 23.0 L 4.0 24.0 L 4.0 25.0 L 4.0 26.0 L 4.0 27.0 L 4.0 28.0 L 4.0 29.0" fill="none" stroke="#111" stroke-width="1.16" stroke-linecap="round" stroke-linejoin="round"/>
<path d="M 16.0 4.0 L 15.5 4.29 L 15.0 4.58 L 14.5 4.88 L 14.0 5.17 L 13.5 5.46 L 13.0 5.75 L 12.5 6.04 L 12.0 6.33 L 11.5 6.62 L 11.0 6.92 L 10.5 7.21 L 10.0 7.5 L 9.5 7.79 L 9.0 8.08 L 8.5 8.38 L 8.0 8.67 L 7.5 8.96 L 7.0 9.25 L 6.5 9.54 L 6.0 9.83 L 5.5 10.12 L 5.0 10.42 L 4.5 10.71 L 4.0 11.0" fill="none" stroke="#111" stroke-width="1.16" stroke-linecap="round" stroke-linejoin="round"/>
<path d="M 8.0 9.0 L 8.18 9.49 L 8.38 9.97 L 8.61 10.43 L 8.87 10.88 L 9.16 11.32 L 9.47 11.73 L 9.81 12.13 L 10.17 12.51 L 10.55 12.86 L 10.95 13.19 L 11.37 13.5 L 11.81 13.78 L 12.26 14.03 L 12.73 14.26 L 13.21 14.46 L 13.7 14.63 L 14.2 14.77 L 14.71 14.88 L 15.23 14.96 L 15.75 15.01 L 16.27 15.02 L 16.79 15.01 L 17.3 14.97 L 17.82 14.89" fill="none" stroke="#111" stroke-width="1.16" stroke-linecap="round" stroke-linejoin="round"/>
<path d="M 5.0 14.0 L 5.38 14.47 L 5.78 14.92 L 6.2 15.35 L 6.64 15.76 L 7.1 16.15 L 7.58 16.52 L 8.07 16.87 L 8.58 17.2 L 9.1 17.5 L 9.63 17.78 L 10.18 18.03 L 10.74 18.26 L 11.3 18.46 L 11.88 18.64 L 12.46 18.79 L 13.05 18.92 L 13.65 19.02 L 14.24 19.09 L 14.85 19.13 L 15.45 19.15 L 16.05 19.14 L 16.65 19.1 L 17.25 19.03 L 17.85 18.94" fill="none" stroke="#111" stroke-width="1.16" stroke-linecap="round" stroke-linejoin="round"/>
<path d="M 12.0 14.0 L 11.92 14.17 L 11.83 14.33 L 11.75 14.5 L 11.67 14.67 L 11.58 14.83 L 11.5 15.0 L 11.42 15.17 L 11.33 15.33 L 11.25 15.5 L 11.17 15.67 L 11.08 15.83 L 11.0 16.0 L 10.92 16.17 L 10.83 16.33 L 10.75 16.5 L 10.67 16.67 L 10.58 16.83 L 10.5 17.0 L 10.42 17.17 L 10.33 17.33 L 10.25 17.5 L 10.17 17.67 L 10.08 17.83 L 10.0 18.0" fill="none" stroke="#111" stroke-width="1.16" stroke-linecap="round" stroke-linejoin="round"/>
<path d="M 14.0 10.0 L 14.25 10.12 L 14.5 10.25 L 14.75 10.38 L 15.0 10.5 L 15.25 10.62 L 15.5 10.75 L 15.75 10.88 L 16.0 11.0 L 16.25 11.12 L 16.5 11.25 L 16.75 11.38 L 17.0 11.5 L 17.25 11.62 L 17.5 11.75 L 17.75 11.88 L 18.0 12.0 L 18.25 12.12 L 18.5 12.25 L 18.75 12.38 L 19.0 12.5 L 19.25 12.62 L 19.5 12.75 L 19.75 12.88 L 20.0 13.0" fill="none" stroke="#111" stroke-width="1.16" stroke-linecap="round" stroke-linejoin="round"/>
<path d="M 19.0 9.0 L 19.24 9.8 L 19.46 10.61 L 19.66 11.43 L 19.84 12.25 L 20.0 13.07 L 20.14 13.9 L 20.26 14.73 L 20.35 15.57 L 20.43 16.4 L 20.48 17.24 L 20.51 18.08 L 20.52 18.92 L 20.51 19.76 L 20.48 20.6 L 20.43 21.44 L 20.35 22.28 L 20.26 23.11 L 20.14 23.94 L 20.0 24.77 L 19.84 25.59 L 19.66 26.41 L 19.46 27.23 L 19.24 28.04 L 19.0 28.84" fill="none" stroke="#111" stroke-width="1.16" stroke-linecap="round" stroke-linejoin="round"/>
</svg>
