<?xml version="1.0" encoding="UTF-8"?>
<svg xmlns="http://www.w3.org/2000/svg" viewBox="0 0 17.00 38.00">
<path d="M 4.0 4.0 L 4.0 5.08 L 4.0 6.17 L 4.0 7.25 L 4.0 8.33 L 4.0 9.42 L 4.0 10.5 L 4.0 11.58 L 4.0 12.67 L 4.0 13.75 L 4.0 14.83 L 4.0 15.92 L 4.0 17.0 L 4.0 18.08 L 4.0 19.17 L 4.0 20.25 L 4.0 21.33 L 4.0 22.42 L 4.0 23.5 L 4.0 24.58 L 4.0 25.67 L 4.0 26.75 L 4.0 27.83 L 4.0 28.92 L 4.0 30.0" fill="none" stroke="#111" stroke-width="1.33" stroke-linecap="round" stroke-linejoin="round"/>
<path d="M 9.0 6.0 L 9.0 6.79 L 9.0 7.58 L 9.0 8.38 L 9.0 9.17 L 9.0 9.96 L 9.0 10.75 L 9.0 11.54 L 9.0 12.33 L 9.0 13.12 L 9.0 13.92 L 9.0 14.71 L 9.0 15.5 L 9.0 16.29 L 9.0 17.08 L 9.0 17.88 L 9.0 18.67 L 9.0 19.46 L 9.0 20.25 L 9.0 21.04 L 9.0 21.83 L 9.0 22.62 L 9.0 23.42 L 9.0 24.21 L 9.0 25.0" fill="none" stroke="#111" stroke-width="1.33" stroke-linecap="round" stroke-linejoin="round"/>
<path d="M 4.0 8.0 L 4.21 8.0 L 4.42 8.0 L 4.62 8.0 L 4.83 8.0 L 5.04 8.0 L 5.25 8.0 L 5.46 8.0 L 5.67 8.0 L 5.88 8.0 L 6.08 8.0 L 6.29 8.0 L 6.5 8.0 L 6.71 8.0 L 6.92 8.0 L 7.12 8.0 L 7.33 8.0 L 7.54 8.0 L 7.75 8.0 L 7.96 8.0 L 8.17 8.0 L 8.38 8.0 L 8.58 8.0 L 8.79 8.0 L 9.0 8.0" fill="none" stroke="#111" stroke-width="1.33" stroke-linecap="round" stroke-linejoin="round"/>
<path d="M 4.0 23.0 L 4.21 23.0 L 4.42 23.0 L 4.62 23.0 L 4.83 23.0 L 5.04 23.0 L 5.25 23.0 L 5.46 23.0 L 5.67 23.0 L 5.88 23.0 L 6.08 23.0 L 6.29 23.0 L 6.5 23.0 L 6.71 23.0 L 6.92 23.0 L 7.12 23.0 L 7.33 23.0 L 7.54 23.0 L 7.75 23.0 L 7.96 23.0 L 8.17 23.0 L 8.38 23.0 L 8.58 23.0 L 8.79 23.0 L 9.0 23.0" fill="none" stroke="#111" stroke-width="1.33" stroke-linecap="round" stroke-linejoin="round"/>
<path d="M 4.0 15.0 L 4.21 15.0 L 4.42 15.0 L 4.62 15.0 L 4.83 15.0 L 5.04 15.0 L 5.25 15.0 L 5.46 15.0 L 5.67 15.0 L 5.88 15.0 L 6.08 15.0 L 6.29 15.0 L 6.5 15.0 L 6.71 15.0 L 6.92 15.0 L 7.12 15.0 L 7.33 15.0 L 7.54 15.0 L 7.75 15.0 L 7.96 15.0 L 8.17 15.0 L 8.38 15.0 L 8.58 15.0 L 8.79 15.0 L 9.0 15.0" fill="none" stroke="#111" stroke-width="1.33" stroke-linecap="round" stroke-linejoin="round"/>
<path d="M 7.0 27.0 L 6.83 27.32 L 6.68 27.64 L 6.56 27.98 L 6.47 28.33 L 6.41 28.68 L 6.37 29.04 L 6.36 29.39 L 6.38 29.75 L 6.43 30.11 L 6.5 30.46 L 6.6 30.8 L 6.73 31.14 L 6.88 31.46 L 7.06 31.77 L 7.27 32.07 L 7.49 32.35 L 7.74 32.61 L 8.0 32.85 L 8.29 33.07 L 8.59 33.26 L 8.9 33.43 L 9.23 33.58 L 9.57 33.7 L 9.91 33.79 L 10.0 34.0 L 10.12 33.92 L 10.25 33.83 L 10.38 33.75 L 10.5 33.67 L 10.62 33.58 L 10.75 33.5 L 10.88 33.42 L 11.0 33.33 L 11.12 33.25 L 11.25 33.17 L 11.38 33.08 L 11.5 33.0 L 11.62 32.92 L 11.75 32.83 L 11.88 32.75 L 12.0 32.67 L 12.12 32.58 L 12.25 32.5 L 12.38 32.42 L 12.5 32.33 L 12.62 32.25 L 12.75 32.17 L 12.88 32.08 L 13.0 32.0" fill="none" stroke="#111" stroke-width="1.33" stroke-linecap="round" stroke-linejoin="round"/>
<path d="M 13.0 25.0 L 13.0 25.29 L 13.0 25.58 L 13.0 25.88 L 13.0 26.17 L 13.0 26.46 L 13.0 26.75 L 13.0 27.04 L 13.0 27.33 L 13.0 27.62 L 13.0 27.92 L 13.0 28.21 L 13.0 28.5 L 13.0 28.79 L 13.0 29.08 L 13.0 29.38 L 13.0 29.67 L 13.0 29.96 L 13.0 30.25 L 13.0 30.54 L 13.0 30.83 L 13.0 31.12 L 13.0 31.42 L 13.0 31.71 L 13.0 32.0" fill="none" stroke="#111" stroke-width="1.33" stroke-linecap="round" stroke-linejoin="round"/>
<path d="M 7.0 29.0 L 7.25 29.0 L 7.5 29.0 L 7.75 29.0 L 8.0 29.0 L 8.25 29.0 L 8.5 29.0 L 8.75 29.0 L 9.0 29.0 L 9.25 29.0 L 9.5 29.0 L 9.75 29.0 L 10.0 29.0 L 10.25 29.0 L 10.5 29.0 L 10.75 29.0 L 11.0 29.0 L 11.25 29.0 L 11.5 29.0 L 11.75 29.0 L 12.0 29.0 L 12.25 29.0 L 12.5 29.0 L 12.75 29.0 L 13.0 29.0" fill="none" stroke="#111" stroke-width="1.33" stroke-linecap="round" stroke-linejoin="round"/>
</svg>
