<?xml version="1.0" encoding="UTF-8"?>
<svg xmlns="http://www.w3.org/2000/svg" viewBox="0 0 23.00 36.96">
<path d="M 12.0 4.0 L 11.71 4.67 L 11.42 5.33 L 11.12 6.0 L 10.83 6.67 L 10.54 7.33 L 10.25 8.0 L 9.96 8.67 L 9.67 9.33 L 9.38 10.0 L 9.08 10.67 L 8.79 11.33 L 8.5 12.0 L 8.21 12.67 L 7.92 13.33 L 7.63 14.0 L 7.33 14.67 L 7.04 15.33 L 6.75 16.0 L 6.46 16.67 L 6.17 17.33 L 5.88 18.0 L 5.58 18.67 L 5.29 19.33 L 5.0 20.0" fill="none" stroke="#111" stroke-width="1.29" stroke-linecap="round" stroke-linejoin="round"/>
<path d="M 12.0 4.0 L 12.29 4.67 L 12.58 5.33 L 12.88 6.0 L 13.17 6.67 L 13.46 7.33 L 13.75 8.0 L 14.04 8.67 L 14.33 9.33 L 14.62 10.0 L 14.92 10.67 L 15.21 11.33 L 15.5 12.0 L 15.79 12.67 L 16.08 13.33 L 16.38 14.0 L 16.67 14.67 L 16.96 15.33 L 17.25 16.0 L 17.54 16.67 L 17.83 17.33 L 18.12 18.0 L 18.42 18.67 L 18.71 19.33 L 19.0 20.0" fill="none" stroke="#111" stroke-width="1.29" stroke-linecap="round" stroke-linejoin="round"/>
<path d="M 5.0 20.0 L 5.17 20.0 L 5.33 20.0 L 5.5 20.0 L 5.67 20.0 L 5.83 20.0 L 6.0 20.0 L 6.17 20.0 L 6.33 20.0 L 6.5 20.0 L 6.67 20.0 L 6.83 20.0 L 7.0 20.0 L 7.17 20.0 L 7.33 20.0 L 7.5 20.0 L 7.67 20.0 L 7.83 20.0 L 8.0 20.0 L 8.17 20.0 L 8.33 20.0 L 8.5 20.0 L 8.67 20.0 L 8.83 20.0 L 9.0 20.0 L 9.0 20.0 L 9.0 20.17 L 9.0 20.33 L 9.0 20.5 L 9.0 20.67 L 9.0 20.83 L 9.0 21.0 L 9.0 21.17 L 9.0 21.33 L 9.0 21.5 L 9.0 21.67 L 9.0 21.83 L 9.0 22.0 L 9.0 22.17 L 9.0 22.33 L 9.0 22.5 L 9.0 22.67 L 9.0 22.83 L 9.0 23.0 L 9.0 23.17 L 9.0 23.33 L 9.0 23.5 L 9.0 23.67 L 9.0 23.83 L 9.0 24.0" fill="none" stroke="#111" stroke-width="1.29" stroke-linecap="round" stroke-linejoin="round"/>
<path d="M 4.0 24.0 L 4.21 24.0 L 4.42 24.0 L 4.62 24.0 L 4.83 24.0 L 5.04 24.0 L 5.25 24.0 L 5.46 24.0 L 5.67 24.0 L 5.88 24.0 L 6.08 24.0 L 6.29 24.0 L 6.5 24.0 L 6.71 24.0 L 6.92 24.0 L 7.12 24.0 L 7.33 24.0 L 7.54 24.0 L 7.75 24.0 L 7.96 24.0 L 8.17 24.0 L 8.38 24.0 L 8.58 24.0 L 8.79 24.0 L 9.0 24.0" fill="none" stroke="#111" stroke-width="1.29" stroke-linecap="round" stroke-linejoin="round"/>
<path d="M 14.0 20.0 L 14.21 20.0 L 14.42 20.0 L 14.62 20.0 L 14.83 20.0 L 15.04 20.0 L 15.25 20.0 L 15.46 20.0 L 15.67 20.0 L 15.88 20.0 L 16.08 20.0 L 16.29 20.0 L 16.5 20.0 L 16.71 20.0 L 16.92 20.0 L 17.12 20.0 L 17.33 20.0 L 17.54 20.0 L 17.75 20.0 L 17.96 20.0 L 18.17 20.0 L 18.38 20.0 L 18.58 20.0 L 18.79 20.0 L 19.0 20.0" fill="none" stroke="#111" stroke-width="1.29" stroke-linecap="round" stroke-linejoin="round"/>
<path d="M 14.0 20.0 L 14.0 20.17 L 14.0 20.33 L 14.0 20.5 L 14.0 20.67 L 14.0 20.83 L 14.0 21.0 L 14.0 21.17 L 14.0 21.33 L 14.0 21.5 L 14.0 21.67 L 14.0 21.83 L 14.0 22.0 L 14.0 22.17 L 14.0 22.33 L 14.0 22.5 L 14.0 22.67 L 14.0 22.83 L 14.0 23.0 L 14.0 23.17 L 14.0 23.33 L 14.0 23.5 L 14.0 23.67 L 14.0 23.83 L 14.0 24.0 L 14.0 24.0 L 14.21 24.0 L 14.42 24.0 L 14.62 24.0 L 14.83 24.0 L 15.04 24.0 L 15.25 24.0 L 15.46 24.0 L 15.67 24.0 L 15.88 24.0 L 16.08 24.0 L 16.29 24.0 L 16.5 24.0 L 16.71 24.0 L 16.92 24.0 L 17.12 24.0 L 17.33 24.0 L 17.54 24.0 L 17.75 24.0 L 17.96 24.0 L 18.17 24.0 L 18.38 24.0 L 18.58 24.0 L 18.79 24.0 L 19.0 24.0" fill="none" stroke="#111" stroke-width="1.29" stroke-linecap="round" stroke-linejoin="round"/>
<path d="M 4.0 27.0 L 4.62 27.0 L 5.25 27.0 L 5.88 27.0 L 6.5 27.0 L 7.12 27.0 L 7.75 27.0 L 8.38 27.0 L 9.0 27.0 L 9.62 27.0 L 10.25 27.0 L 10.88 27.0 L 11.5 27.0 L 12.12 27.0 L 12.75 27.0 L 13.38 27.0 L 14.0 27.0 L 14.62 27.0 L 15.25 27.0 L 15.88 27.0 L 16.5 27.0 L 17.12 27.0 L 17.75 27.0 L 18.38 27.0 L 19.0 27.0" fill="none" stroke="#111" stroke-width="1.29" stroke-linecap="round" stroke-linejoin="round"/>
<path d="M 4.0 24.0 L 4.0 24.29 L 4.0 24.58 L 4.0 24.88 L 4.0 25.17 L 4.0 25.46 L 4.0 25.75 L 4.0 26.04 L 4.0 26.33 L 4.0 26.62 L 4.0 26.92 L 4.0 27.21 L 4.0 27.5 L 4.0 27.79 L 4.0 28.08 L 4.0 28.38 L 4.0 28.67 L 4.0 28.96 L 4.0 29.25 L 4.0 29.54 L 4.0 29.83 L 4.0 30.12 L 4.0 30.42 L 4.0 30.71 L 4.0 31.0 L 4.0 31.0 L 4.57 31.31 L 5.15 31.59 L 5.74 31.85 L 6.35 32.08 L 6.96 32.29 L 7.58 32.46 L 8.21 32.62 L 8.85 32.74 L 9.49 32.84 L 10.13 32.91 L 10.77 32.95 L 11.42 32.96 L 12.07 32.95 L 12.71 32.91 L 13.36 32.84 L 14.0 32.74 L 14.63 32.62 L 15.26 32.46 L 15.88 32.29 L 16.5 32.08 L 17.1 31.85 L 17.69 31.59 L 18.27 31.31 L 18.84 31.0 L 19.0 31.0 L 19.0 30.71 L 19.0 30.42 L 19.0 30.12 L 19.0 29.83 L 19.0 29.54 L 19.0 29.25 L 19.0 28.96 L 19.0 28.67 L 19.0 28.38 L 19.0 28.08 L 19.0 27.79 L 19.0 27.5 L 19.0 27.21 L 19.0 26.92 L 19.0 26.62 L 19.0 26.33 L 19.0 26.04 L 19.0 25.75 L 19.0 25.46 L 19.0 25.17 L 19.0 24.88 L 19.0 24.58 L 19.0 24.29 L 19.0 24.0" fill="none" stroke="#111" stroke-width="1.29" stroke-linecap="round" stroke-linejoin="round"/>
</svg>
