<?xml version="1.0" encoding="UTF-8"?>
<svg xmlns="http://www.w3.org/2000/svg" viewBox="0 0 33.50 34.71">
<path d="M 12.05 9.0 L 12.17 9.46 L 12.3 9.92 L 12.42 10.38 L 12.55 10.83 L 12.67 11.29 L 12.8 11.75 L 12.92 12.21 L 13.05 12.67 L 13.17 13.12 L 13.3 13.58 L 13.42 14.04 L 13.55 14.5 L 13.67 14.96 L 13.8 15.42 L 13.92 15.88 L 14.05 16.33 L 14.17 16.79 L 14.3 17.25 L 14.42 17.71 L 14.55 18.17 L 14.67 18.62 L 14.8 19.08 L 14.92 19.54 L 15.05 20.0 L 15.05 20.0 L 14.58 20.02 L 14.11 20.07 L 13.66 20.15 L 13.21 20.28 L 12.77 20.44 L 12.34 20.63 L 11.93 20.85 L 11.54 21.11 L 11.17 21.39 L 10.82 21.7 L 10.5 22.04 L 10.21 22.4 L 9.94 22.79 L 9.7 23.19 L 9.5 23.61 L 9.33 24.05 L 9.2 24.49 L 9.1 24.95 L 9.03 25.41 L 9.0 25.88 L 9.01 26.35 L 9.06 26.81 L 9.14 27.27 L 9.25 27.72 L 9.05 28.0 L 9.05 27.47 L 9.12 26.94 L 9.26 26.42 L 9.47 25.94 L 9.75 25.48 L 10.09 25.07 L 10.48 24.7 L 10.91 24.39 L 11.38 24.15 L 11.89 23.97 L 12.41 23.86 L 12.94 23.82 L 13.47 23.86 L 14.0 23.97 L 14.5 24.15 L 14.97 24.39 L 15.41 24.7 L 15.8 25.07 L 16.13 25.48 L 16.41 25.94 L 16.62 26.42 L 16.77 26.94 L 16.84 27.47 L 16.84 28.0" fill="none" stroke="#111" stroke-width="1.21" stroke-linecap="round" stroke-linejoin="round"/>
<path d="M 13.05 12.0 L 12.8 12.41 L 12.57 12.82 L 12.35 13.24 L 12.14 13.67 L 11.95 14.1 L 11.78 14.54 L 11.61 14.99 L 11.46 15.44 L 11.33 15.89 L 11.2 16.35 L 11.1 16.81 L 11.01 17.28 L 10.93 17.75 L 10.86 18.22 L 10.82 18.69 L 10.78 19.16 L 10.77 19.64 L 10.76 20.11 L 10.77 20.58 L 10.8 21.06 L 10.84 21.53 L 10.9 22.0 L 10.97 22.47 L 11.06 22.94" fill="none" stroke="#111" stroke-width="1.21" stroke-linecap="round" stroke-linejoin="round"/>
<path d="M 7.05 4.0 L 6.94 4.5 L 6.86 5.0 L 6.81 5.51 L 6.78 6.01 L 6.77 6.52 L 6.79 7.03 L 6.83 7.54 L 6.9 8.04 L 6.99 8.54 L 7.1 9.04 L 7.24 9.53 L 7.4 10.01 L 7.59 10.48 L 7.8 10.95 L 8.03 11.4 L 8.28 11.84 L 8.55 12.27 L 8.84 12.69 L 9.16 13.09 L 9.49 13.48 L 9.84 13.85 L 10.21 14.2 L 10.59 14.53 L 10.99 14.85" fill="none" stroke="#111" stroke-width="1.21" stroke-linecap="round" stroke-linejoin="round"/>
<path d="M 10.05 7.0 L 9.96 7.46 L 9.88 7.92 L 9.8 8.38 L 9.71 8.83 L 9.63 9.29 L 9.55 9.75 L 9.46 10.21 L 9.38 10.67 L 9.3 11.12 L 9.21 11.58 L 9.13 12.04 L 9.05 12.5 L 8.96 12.96 L 8.88 13.42 L 8.8 13.88 L 8.71 14.33 L 8.63 14.79 L 8.55 15.25 L 8.46 15.71 L 8.38 16.17 L 8.3 16.62 L 8.21 17.08 L 8.13 17.54 L 8.05 18.0" fill="none" stroke="#111" stroke-width="1.21" stroke-linecap="round" stroke-linejoin="round"/>
<path d="M 17.05 4.0 L 17.34 4.44 L 17.6 4.9 L 17.83 5.38 L 18.02 5.88 L 18.17 6.38 L 18.28 6.9 L 18.36 7.43 L 18.4 7.96 L 18.39 8.49 L 18.35 9.01 L 18.27 9.54 L 18.15 10.05 L 17.99 10.56 L 17.8 11.05 L 17.56 11.53 L 17.3 11.99 L 17.0 12.43 L 16.67 12.84 L 16.3 13.23 L 15.91 13.59 L 15.5 13.92 L 15.06 14.22 L 14.6 14.48 L 14.12 14.71" fill="none" stroke="#111" stroke-width="1.21" stroke-linecap="round" stroke-linejoin="round"/>
<path d="M 15.05 8.0 L 15.24 8.3 L 15.43 8.61 L 15.61 8.92 L 15.78 9.23 L 15.95 9.54 L 16.12 9.86 L 16.28 10.18 L 16.43 10.51 L 16.58 10.83 L 16.72 11.16 L 16.85 11.49 L 16.98 11.83 L 17.1 12.16 L 17.22 12.5 L 17.33 12.84 L 17.43 13.19 L 17.53 13.53 L 17.62 13.88 L 17.71 14.23 L 17.79 14.57 L 17.86 14.93 L 17.93 15.28 L 17.99 15.63 L 18.04 15.98" fill="none" stroke="#111" stroke-width="1.21" stroke-linecap="round" stroke-linejoin="round"/>
<path d="M 6.05 11.0 L 5.09 12.76 L 4.42 14.65 L 4.05 16.62 L 4.0 18.63 L 4.26 20.62 L 4.83 22.54 L 5.7 24.35 L 6.83 26.0 L 8.21 27.45 L 9.81 28.67 L 11.57 29.63 L 13.46 30.3 L 15.43 30.66 L 17.44 30.71 L 19.42 30.44 L 21.35 29.87 L 23.15 29.0 L 24.81 27.87 L 26.26 26.48 L 27.47 24.89 L 28.43 23.12 L 29.09 21.23 L 29.45 19.26 L 29.5 17.25" fill="none" stroke="#111" stroke-width="1.21" stroke-linecap="round" stroke-linejoin="round"/>
</svg>
