<?xml version="1.0" encoding="UTF-8"?>
<svg xmlns="http://www.w3.org/2000/svg" viewBox="0 0 22.00 36.73">
<path d="M 11.0 4.0 L 11.0 4.96 L 11.0 5.92 L 11.0 6.88 L 11.0 7.83 L 11.0 8.79 L 11.0 9.75 L 11.0 10.71 L 11.0 11.67 L 11.0 12.62 L 11.0 13.58 L 11.0 14.54 L 11.0 15.5 L 11.0 16.46 L 11.0 17.42 L 11.0 18.38 L 11.0 19.33 L 11.0 20.29 L 11.0 21.25 L 11.0 22.21 L 11.0 23.17 L 11.0 24.12 L 11.0 25.08 L 11.0 26.04 L 11.0 27.0" fill="none" stroke="#111" stroke-width="1.29" stroke-linecap="round" stroke-linejoin="round"/>
<path d="M 7.0 5.0 L 7.17 5.17 L 7.33 5.33 L 7.5 5.5 L 7.67 5.67 L 7.83 5.83 L 8.0 6.0 L 8.17 6.17 L 8.33 6.33 L 8.5 6.5 L 8.67 6.67 L 8.83 6.83 L 9.0 7.0 L 9.17 7.17 L 9.33 7.33 L 9.5 7.5 L 9.67 7.67 L 9.83 7.83 L 10.0 8.0 L 10.17 8.17 L 10.33 8.33 L 10.5 8.5 L 10.67 8.67 L 10.83 8.83 L 11.0 9.0" fill="none" stroke="#111" stroke-width="1.29" stroke-linecap="round" stroke-linejoin="round"/>
<path d="M 15.0 5.0 L 14.83 5.17 L 14.67 5.33 L 14.5 5.5 L 14.33 5.67 L 14.17 5.83 L 14.0 6.0 L 13.83 6.17 L 13.67 6.33 L 13.5 6.5 L 13.33 6.67 L 13.17 6.83 L 13.0 7.0 L 12.83 7.17 L 12.67 7.33 L 12.5 7.5 L 12.33 7.67 L 12.17 7.83 L 12.0 8.0 L 11.83 8.17 L 11.67 8.33 L 11.5 8.5 L 11.33 8.67 L 11.17 8.83 L 11.0 9.0" fill="none" stroke="#111" stroke-width="1.29" stroke-linecap="round" stroke-linejoin="round"/>
<path d="M 11.0 9.0 L 10.49 9.04 L 9.99 9.12 L 9.5 9.24 L 9.01 9.4 L 8.54 9.6 L 8.09 9.83 L 7.66 10.1 L 7.25 10.4 L 6.86 10.73 L 6.5 11.09 L 6.17 11.48 L 5.87 11.89 L 5.61 12.32 L 5.38 12.78 L 5.18 13.25 L 5.03 13.73 L 4.91 14.22 L 4.83 14.73 L 4.79 15.23 L 4.79 15.74 L 4.83 16.25 L 4.91 16.75 L 5.02 17.25 L 5.18 17.73 L 5.0 18.0 L 5.25 18.08 L 5.5 18.17 L 5.75 18.25 L 6.0 18.33 L 6.25 18.42 L 6.5 18.5 L 6.75 18.58 L 7.0 18.67 L 7.25 18.75 L 7.5 18.83 L 7.75 18.92 L 8.0 19.0 L 8.25 19.08 L 8.5 19.17 L 8.75 19.25 L 9.0 19.33 L 9.25 19.42 L 9.5 19.5 L 9.75 19.58 L 10.0 19.67 L 10.25 19.75 L 10.5 19.83 L 10.75 19.92 L 11.0 20.0" fill="none" stroke="#111" stroke-width="1.29" stroke-linecap="round" stroke-linejoin="round"/>
<path d="M 11.0 9.0 L 11.75 9.02 L 12.48 9.13 L 13.2 9.35 L 13.88 9.66 L 14.51 10.06 L 15.08 10.53 L 15.58 11.09 L 16.01 11.7 L 16.35 12.36 L 16.59 13.07 L 16.74 13.8 L 16.79 14.54 L 16.74 15.29 L 16.59 16.02 L 16.35 16.72 L 16.01 17.39 L 15.58 18.0 L 15.08 18.55 L 14.51 19.03 L 13.88 19.43 L 13.2 19.74 L 12.48 19.95 L 11.75 20.07 L 11.0 20.09" fill="none" stroke="#111" stroke-width="1.29" stroke-linecap="round" stroke-linejoin="round"/>
<path d="M 5.0 15.0 L 5.5 15.0 L 6.0 15.0 L 6.5 15.0 L 7.0 15.0 L 7.5 15.0 L 8.0 15.0 L 8.5 15.0 L 9.0 15.0 L 9.5 15.0 L 10.0 15.0 L 10.5 15.0 L 11.0 15.0 L 11.5 15.0 L 12.0 15.0 L 12.5 15.0 L 13.0 15.0 L 13.5 15.0 L 14.0 15.0 L 14.5 15.0 L 15.0 15.0 L 15.5 15.0 L 16.0 15.0 L 16.5 15.0 L 17.0 15.0" fill="none" stroke="#111" stroke-width="1.29" stroke-linecap="round" stroke-linejoin="round"/>
<path d="M 5.0 18.0 L 4.96 18.29 L 4.92 18.58 L 4.88 18.88 L 4.83 19.17 L 4.79 19.46 L 4.75 19.75 L 4.71 20.04 L 4.67 20.33 L 4.62 20.62 L 4.58 20.92 L 4.54 21.21 L 4.5 21.5 L 4.46 21.79 L 4.42 22.08 L 4.38 22.38 L 4.33 22.67 L 4.29 22.96 L 4.25 23.25 L 4.21 23.54 L 4.17 23.83 L 4.12 24.12 L 4.08 24.42 L 4.04 24.71 L 4.0 25.0" fill="none" stroke="#111" stroke-width="1.29" stroke-linecap="round" stroke-linejoin="round"/>
<path d="M 17.0 17.0 L 17.04 17.33 L 17.08 17.67 L 17.12 18.0 L 17.17 18.33 L 17.21 18.67 L 17.25 19.0 L 17.29 19.33 L 17.33 19.67 L 17.38 20.0 L 17.42 20.33 L 17.46 20.67 L 17.5 21.0 L 17.54 21.33 L 17.58 21.67 L 17.62 22.0 L 17.67 22.33 L 17.71 22.67 L 17.75 23.0 L 17.79 23.33 L 17.83 23.67 L 17.88 24.0 L 17.92 24.33 L 17.96 24.67 L 18.0 25.0" fill="none" stroke="#111" stroke-width="1.29" stroke-linecap="round" stroke-linejoin="round"/>
<path d="M 7.0 25.0 L 6.63 25.49 L 6.33 26.03 L 6.11 26.6 L 5.95 27.19 L 5.88 27.8 L 5.89 28.41 L 5.98 29.02 L 6.14 29.61 L 6.38 30.17 L 6.7 30.7 L 7.07 31.18 L 7.51 31.61 L 8.0 31.98 L 8.54 32.28 L 9.11 32.51 L 9.7 32.66 L 10.31 32.73 L 10.92 32.73 L 11.53 32.64 L 12.12 32.48 L 12.69 32.24 L 13.21 31.92 L 13.7 31.55 L 14.13 31.11" fill="none" stroke="#111" stroke-width="1.29" stroke-linecap="round" stroke-linejoin="round"/>
<path d="M 14.0 24.0 L 14.0 24.29 L 14.0 24.58 L 14.0 24.88 L 14.0 25.17 L 14.0 25.46 L 14.0 25.75 L 14.0 26.04 L 14.0 26.33 L 14.0 26.62 L 14.0 26.92 L 14.0 27.21 L 14.0 27.5 L 14.0 27.79 L 14.0 28.08 L 14.0 28.38 L 14.0 28.67 L 14.0 28.96 L 14.0 29.25 L 14.0 29.54 L 14.0 29.83 L 14.0 30.12 L 14.0 30.42 L 14.0 30.71 L 14.0 31.0" fill="none" stroke="#111" stroke-width="1.29" stroke-linecap="round" stroke-linejoin="round"/>
<path d="M 7.0 28.0 L 7.29 28.0 L 7.58 28.0 L 7.88 28.0 L 8.17 28.0 L 8.46 28.0 L 8.75 28.0 L 9.04 28.0 L 9.33 28.0 L 9.62 28.0 L 9.92 28.0 L 10.21 28.0 L 10.5 28.0 L 10.79 28.0 L 11.08 28.0 L 11.38 28.0 L 11.67 28.0 L 11.96 28.0 L 12.25 28.0 L 12.54 28.0 L 12.83 28.0 L 13.12 28.0 L 13.42 28.0 L 13.71 28.0 L 14.0 28.0" fill="none" stroke="#111" stroke-width="1.29" stroke-linecap="round" stroke-linejoin="round"/>
</svg>
