<?xml version="1.0" encoding="UTF-8"?>
<svg xmlns="http://www.w3.org/2000/svg" viewBox="0 0 19.00 33.07">
<path d="M 6.0 8.07 L 6.04 8.27 L 6.08 8.48 L 6.12 8.69 L 6.17 8.9 L 6.21 9.11 L 6.25 9.32 L 6.29 9.52 L 6.33 9.73 L 6.38 9.94 L 6.42 10.15 L 6.46 10.36 L 6.5 10.57 L 6.54 10.77 L 6.58 10.98 L 6.62 11.19 L 6.67 11.4 L 6.71 11.61 L 6.75 11.82 L 6.79 12.02 L 6.83 12.23 L 6.88 12.44 L 6.92 12.65 L 6.96 12.86 L 7.0 13.07 L 7.0 13.07 L 7.83 13.41 L 8.72 13.59 L 9.62 13.6 L 10.51 13.44 L 11.35 13.13 L 12.12 12.66 L 12.79 12.05 L 13.33 11.33 L 13.73 10.52 L 13.97 9.65 L 14.05 8.76 L 13.95 7.86 L 13.7 7.0 L 13.28 6.2 L 12.72 5.49 L 12.04 4.9 L 11.26 4.44 L 10.42 4.14 L 9.52 4.0 L 8.62 4.03 L 7.74 4.23 L 6.92 4.59 L 6.17 5.09 L 5.53 5.73" fill="none" stroke="#111" stroke-width="1.16" stroke-linecap="round" stroke-linejoin="round"/>
<path d="M 7.0 17.07 L 7.12 17.27 L 7.25 17.48 L 7.38 17.69 L 7.5 17.9 L 7.62 18.11 L 7.75 18.32 L 7.88 18.52 L 8.0 18.73 L 8.12 18.94 L 8.25 19.15 L 8.38 19.36 L 8.5 19.57 L 8.62 19.77 L 8.75 19.98 L 8.88 20.19 L 9.0 20.4 L 9.12 20.61 L 9.25 20.82 L 9.38 21.02 L 9.5 21.23 L 9.62 21.44 L 9.75 21.65 L 9.88 21.86 L 10.0 22.07 L 10.0 22.07 L 10.21 21.86 L 10.42 21.65 L 10.62 21.44 L 10.83 21.23 L 11.04 21.02 L 11.25 20.82 L 11.46 20.61 L 11.67 20.4 L 11.88 20.19 L 12.08 19.98 L 12.29 19.77 L 12.5 19.57 L 12.71 19.36 L 12.92 19.15 L 13.12 18.94 L 13.33 18.73 L 13.54 18.52 L 13.75 18.32 L 13.96 18.11 L 14.17 17.9 L 14.38 17.69 L 14.58 17.48 L 14.79 17.27 L 15.0 17.07" fill="none" stroke="#111" stroke-width="1.16" stroke-linecap="round" stroke-linejoin="round"/>
<path d="M 11.0 13.07 L 10.96 13.73 L 10.92 14.4 L 10.88 15.07 L 10.83 15.73 L 10.79 16.4 L 10.75 17.07 L 10.71 17.73 L 10.67 18.4 L 10.62 19.07 L 10.58 19.73 L 10.54 20.4 L 10.5 21.07 L 10.46 21.73 L 10.42 22.4 L 10.38 23.07 L 10.33 23.73 L 10.29 24.4 L 10.25 25.07 L 10.21 25.73 L 10.17 26.4 L 10.12 27.07 L 10.08 27.73 L 10.04 28.4 L 10.0 29.07" fill="none" stroke="#111" stroke-width="1.16" stroke-linecap="round" stroke-linejoin="round"/>
<path d="M 4.0 23.07 L 4.25 23.32 L 4.5 23.57 L 4.75 23.82 L 5.0 24.07 L 5.25 24.32 L 5.5 24.57 L 5.75 24.82 L 6.0 25.07 L 6.25 25.32 L 6.5 25.57 L 6.75 25.82 L 7.0 26.07 L 7.25 26.32 L 7.5 26.57 L 7.75 26.82 L 8.0 27.07 L 8.25 27.32 L 8.5 27.57 L 8.75 27.82 L 9.0 28.07 L 9.25 28.32 L 9.5 28.57 L 9.75 28.82 L 10.0 29.07 L 10.0 29.07 L 10.21 28.86 L 10.42 28.65 L 10.62 28.44 L 10.83 28.23 L 11.04 28.02 L 11.25 27.82 L 11.46 27.61 L 11.67 27.4 L 11.88 27.19 L 12.08 26.98 L 12.29 26.77 L 12.5 26.57 L 12.71 26.36 L 12.92 26.15 L 13.12 25.94 L 13.33 25.73 L 13.54 25.52 L 13.75 25.32 L 13.96 25.11 L 14.17 24.9 L 14.38 24.69 L 14.58 24.48 L 14.79 24.27 L 15.0 24.07" fill="none" stroke="#111" stroke-width="1.16" stroke-linecap="round" stroke-linejoin="round"/>
</svg>
