<?xml version="1.0" encoding="UTF-8"?>
<svg xmlns="http://www.w3.org/2000/svg" viewBox="0 0 20.06 38.77">
<path d="M 10.0 4.0 L 9.75 4.5 L 9.5 5.0 L 9.25 5.5 L 9.0 6.0 L 8.75 6.5 L 8.5 7.0 L 8.25 7.5 L 8.0 8.0 L 7.75 8.5 L 7.5 9.0 L 7.25 9.5 L 7.0 10.0 L 6.75 10.5 L 6.5 11.0 L 6.25 11.5 L 6.0 12.0 L 5.75 12.5 L 5.5 13.0 L 5.25 13.5 L 5.0 14.0 L 4.75 14.5 L 4.5 15.0 L 4.25 15.5 L 4.0 16.0" fill="none" stroke="#111" stroke-width="1.36" stroke-linecap="round" stroke-linejoin="round"/>
<path d="M 10.0 4.0 L 10.23 4.65 L 10.43 5.32 L 10.6 5.99 L 10.75 6.66 L 10.87 7.34 L 10.96 8.03 L 11.03 8.72 L 11.07 9.41 L 11.08 10.1 L 11.06 10.79 L 11.01 11.48 L 10.94 12.17 L 10.84 12.85 L 10.72 13.53 L 10.56 14.21 L 10.38 14.88 L 10.18 15.54 L 9.94 16.19 L 9.68 16.83 L 9.4 17.46 L 9.09 18.08 L 8.76 18.69 L 8.4 19.28 L 8.02 19.86" fill="none" stroke="#111" stroke-width="1.36" stroke-linecap="round" stroke-linejoin="round"/>
<path d="M 7.0 11.0 L 7.68 11.35 L 8.34 11.75 L 8.98 12.19 L 9.58 12.67 L 10.15 13.19 L 10.69 13.74 L 11.19 14.32 L 11.65 14.94 L 12.08 15.58 L 12.46 16.25 L 12.8 16.94 L 13.09 17.65 L 13.34 18.38 L 13.54 19.13 L 13.69 19.88 L 13.79 20.64 L 13.85 21.41 L 13.86 22.18 L 13.81 22.95 L 13.72 23.72 L 13.58 24.47 L 13.39 25.22 L 13.16 25.95 L 12.88 26.67" fill="none" stroke="#111" stroke-width="1.36" stroke-linecap="round" stroke-linejoin="round"/>
<path d="M 5.0 29.0 L 5.42 29.0 L 5.83 29.0 L 6.25 29.0 L 6.67 29.0 L 7.08 29.0 L 7.5 29.0 L 7.92 29.0 L 8.33 29.0 L 8.75 29.0 L 9.17 29.0 L 9.58 29.0 L 10.0 29.0 L 10.42 29.0 L 10.83 29.0 L 11.25 29.0 L 11.67 29.0 L 12.08 29.0 L 12.5 29.0 L 12.92 29.0 L 13.33 29.0 L 13.75 29.0 L 14.17 29.0 L 14.58 29.0 L 15.0 29.0" fill="none" stroke="#111" stroke-width="1.36" stroke-linecap="round" stroke-linejoin="round"/>
<path d="M 5.0 26.0 L 5.0 26.29 L 5.0 26.58 L 5.0 26.88 L 5.0 27.17 L 5.0 27.46 L 5.0 27.75 L 5.0 28.04 L 5.0 28.33 L 5.0 28.62 L 5.0 28.92 L 5.0 29.21 L 5.0 29.5 L 5.0 29.79 L 5.0 30.08 L 5.0 30.38 L 5.0 30.67 L 5.0 30.96 L 5.0 31.25 L 5.0 31.54 L 5.0 31.83 L 5.0 32.12 L 5.0 32.42 L 5.0 32.71 L 5.0 33.0 L 5.0 33.0 L 5.6 33.5 L 6.26 33.92 L 6.96 34.27 L 7.7 34.52 L 8.46 34.69 L 9.24 34.77 L 10.02 34.75 L 10.8 34.64 L 11.55 34.44 L 12.28 34.16 L 12.96 33.78 L 13.6 33.33 L 14.18 32.81 L 14.7 32.22 L 15.14 31.57 L 15.5 30.88 L 15.77 30.15 L 15.96 29.39 L 16.06 28.61 L 16.06 27.83 L 15.97 27.06 L 15.79 26.3 L 15.52 25.56 L 15.17 24.87" fill="none" stroke="#111" stroke-width="1.36" stroke-linecap="round" stroke-linejoin="round"/>
</svg>
