<?xml version="1.0" encoding="UTF-8"?>
<svg xmlns="http://www.w3.org/2000/svg" viewBox="0 0 24.60 35.46">
<path d="M 12.29 4.0 L 12.37 4.36 L 12.43 4.72 L 12.46 5.09 L 12.45 5.46 L 12.42 5.82 L 12.36 6.19 L 12.27 6.54 L 12.15 6.89 L 12.0 7.23 L 11.83 7.55 L 11.63 7.86 L 11.4 8.15 L 11.16 8.42 L 10.89 8.68 L 10.6 8.91 L 10.29 9.11 L 9.97 9.29 L 9.64 9.45 L 9.29 9.57 L 8.94 9.67 L 8.58 9.74 L 8.21 9.78 L 7.85 9.79 L 7.48 9.77" fill="none" stroke="#111" stroke-width="1.24" stroke-linecap="round" stroke-linejoin="round"/>
<path d="M 13.29 6.0 L 13.45 6.12 L 13.62 6.25 L 13.79 6.38 L 13.95 6.5 L 14.12 6.62 L 14.29 6.75 L 14.45 6.88 L 14.62 7.0 L 14.79 7.12 L 14.95 7.25 L 15.12 7.38 L 15.29 7.5 L 15.45 7.62 L 15.62 7.75 L 15.79 7.88 L 15.95 8.0 L 16.12 8.12 L 16.29 8.25 L 16.45 8.38 L 16.62 8.5 L 16.79 8.62 L 16.95 8.75 L 17.12 8.88 L 17.29 9.0" fill="none" stroke="#111" stroke-width="1.24" stroke-linecap="round" stroke-linejoin="round"/>
<path d="M 12.29 7.0 L 12.36 7.35 L 12.41 7.69 L 12.45 8.05 L 12.48 8.4 L 12.5 8.75 L 12.5 9.1 L 12.48 9.46 L 12.46 9.81 L 12.42 10.16 L 12.37 10.51 L 12.3 10.85 L 12.22 11.2 L 12.13 11.54 L 12.03 11.88 L 11.91 12.21 L 11.78 12.54 L 11.63 12.86 L 11.48 13.18 L 11.31 13.49 L 11.13 13.79 L 10.94 14.09 L 10.74 14.38 L 10.53 14.66 L 10.3 14.93 L 10.29 15.0 L 10.2 15.29 L 10.12 15.58 L 10.04 15.88 L 9.95 16.17 L 9.87 16.46 L 9.79 16.75 L 9.7 17.04 L 9.62 17.33 L 9.54 17.62 L 9.45 17.92 L 9.37 18.21 L 9.29 18.5 L 9.2 18.79 L 9.12 19.08 L 9.04 19.38 L 8.95 19.67 L 8.87 19.96 L 8.79 20.25 L 8.7 20.54 L 8.62 20.83 L 8.54 21.12 L 8.45 21.42 L 8.37 21.71 L 8.29 22.0" fill="none" stroke="#111" stroke-width="1.24" stroke-linecap="round" stroke-linejoin="round"/>
<path d="M 12.29 11.0 L 12.61 11.31 L 12.92 11.64 L 13.22 11.98 L 13.5 12.34 L 13.76 12.7 L 14.01 13.08 L 14.24 13.47 L 14.45 13.86 L 14.65 14.27 L 14.82 14.69 L 14.98 15.11 L 15.12 15.54 L 15.24 15.97 L 15.34 16.41 L 15.42 16.86 L 15.48 17.3 L 15.53 17.75 L 15.55 18.2 L 15.55 18.66 L 15.53 19.11 L 15.49 19.56 L 15.43 20.0 L 15.35 20.45 L 15.25 20.89" fill="none" stroke="#111" stroke-width="1.24" stroke-linecap="round" stroke-linejoin="round"/>
<path d="M 4.29 21.0 L 4.05 22.2 L 4.0 23.43 L 4.13 24.65 L 4.43 25.83 L 4.91 26.96 L 5.55 28.01 L 6.33 28.95 L 7.25 29.77 L 8.27 30.44 L 9.39 30.95 L 10.56 31.29 L 11.78 31.46 L 13.0 31.45 L 14.21 31.25 L 15.38 30.88 L 16.48 30.34 L 17.49 29.65 L 18.39 28.81 L 19.15 27.85 L 19.77 26.79 L 20.22 25.65 L 20.5 24.46 L 20.6 23.24 L 20.51 22.01" fill="none" stroke="#111" stroke-width="1.24" stroke-linecap="round" stroke-linejoin="round"/>
<path d="M 5.29 22.0 L 5.45 22.21 L 5.62 22.42 L 5.79 22.62 L 5.95 22.83 L 6.12 23.04 L 6.29 23.25 L 6.45 23.46 L 6.62 23.67 L 6.79 23.88 L 6.95 24.08 L 7.12 24.29 L 7.29 24.5 L 7.45 24.71 L 7.62 24.92 L 7.79 25.12 L 7.95 25.33 L 8.12 25.54 L 8.29 25.75 L 8.45 25.96 L 8.62 26.17 L 8.79 26.38 L 8.95 26.58 L 9.12 26.79 L 9.29 27.0" fill="none" stroke="#111" stroke-width="1.24" stroke-linecap="round" stroke-linejoin="round"/>
<path d="M 9.29 26.0 L 9.41 25.79 L 9.54 25.58 L 9.66 25.38 L 9.79 25.17 L 9.91 24.96 L 10.04 24.75 L 10.16 24.54 L 10.29 24.33 L 10.41 24.12 L 10.54 23.92 L 10.66 23.71 L 10.79 23.5 L 10.91 23.29 L 11.04 23.08 L 11.16 22.88 L 11.29 22.67 L 11.41 22.46 L 11.54 22.25 L 11.66 22.04 L 11.79 21.83 L 11.91 21.62 L 12.04 21.42 L 12.16 21.21 L 12.29 21.0 L 12.29 21.0 L 12.37 21.25 L 12.45 21.5 L 12.54 21.75 L 12.62 22.0 L 12.7 22.25 L 12.79 22.5 L 12.87 22.75 L 12.95 23.0 L 13.04 23.25 L 13.12 23.5 L 13.2 23.75 L 13.29 24.0 L 13.37 24.25 L 13.45 24.5 L 13.54 24.75 L 13.62 25.0 L 13.7 25.25 L 13.79 25.5 L 13.87 25.75 L 13.95 26.0 L 14.04 26.25 L 14.12 26.5 L 14.2 26.75 L 14.29 27.0 L 14.29 27.0 L 14.54 26.83 L 14.79 26.67 L 15.04 26.5 L 15.29 26.33 L 15.54 26.17 L 15.79 26.0 L 16.04 25.83 L 16.29 25.67 L 16.54 25.5 L 16.79 25.33 L 17.04 25.17 L 17.29 25.0 L 17.54 24.83 L 17.79 24.67 L 18.04 24.5 L 18.29 24.33 L 18.54 24.17 L 18.79 24.0 L 19.04 23.83 L 19.29 23.67 L 19.54 23.5 L 19.79 23.33 L 20.04 23.17 L 20.29 23.0" fill="none" stroke="#111" stroke-width="1.24" stroke-linecap="round" stroke-linejoin="round"/>
</svg>
