<?xml version="1.0" encoding="UTF-8"?>
<svg xmlns="http://www.w3.org/2000/svg" viewBox="0 0 25.00 33.00">
<path d="M 4.0 7.0 L 4.12 7.33 L 4.25 7.67 L 4.38 8.0 L 4.5 8.33 L 4.62 8.67 L 4.75 9.0 L 4.88 9.33 L 5.0 9.67 L 5.12 10.0 L 5.25 10.33 L 5.38 10.67 L 5.5 11.0 L 5.62 11.33 L 5.75 11.67 L 5.88 12.0 L 6.0 12.33 L 6.12 12.67 L 6.25 13.0 L 6.38 13.33 L 6.5 13.67 L 6.62 14.0 L 6.75 14.33 L 6.88 14.67 L 7.0 15.0 L 7.0 15.0 L 6.73 15.49 L 6.49 15.99 L 6.26 16.49 L 6.05 17.01 L 5.85 17.53 L 5.68 18.06 L 5.53 18.6 L 5.4 19.14 L 5.28 19.68 L 5.19 20.23 L 5.12 20.78 L 5.06 21.34 L 5.03 21.89 L 5.02 22.45 L 5.03 23.01 L 5.05 23.56 L 5.1 24.12 L 5.17 24.67 L 5.26 25.22 L 5.37 25.77 L 5.5 26.31 L 5.65 26.84 L 5.82 27.37 L 6.01 27.9" fill="none" stroke="#111" stroke-width="1.16" stroke-linecap="round" stroke-linejoin="round"/>
<path d="M 7.0 20.0 L 7.0 20.08 L 7.0 20.17 L 7.0 20.25 L 7.0 20.33 L 7.0 20.42 L 7.0 20.5 L 7.0 20.58 L 7.0 20.67 L 7.0 20.75 L 7.0 20.83 L 7.0 20.92 L 7.0 21.0 L 7.0 21.08 L 7.0 21.17 L 7.0 21.25 L 7.0 21.33 L 7.0 21.42 L 7.0 21.5 L 7.0 21.58 L 7.0 21.67 L 7.0 21.75 L 7.0 21.83 L 7.0 21.92 L 7.0 22.0" fill="none" stroke="#111" stroke-width="1.16" stroke-linecap="round" stroke-linejoin="round"/>
<path d="M 9.0 4.0 L 9.12 4.0 L 9.25 4.0 L 9.38 4.0 L 9.5 4.0 L 9.62 4.0 L 9.75 4.0 L 9.88 4.0 L 10.0 4.0 L 10.12 4.0 L 10.25 4.0 L 10.38 4.0 L 10.5 4.0 L 10.62 4.0 L 10.75 4.0 L 10.88 4.0 L 11.0 4.0 L 11.12 4.0 L 11.25 4.0 L 11.38 4.0 L 11.5 4.0 L 11.62 4.0 L 11.75 4.0 L 11.88 4.0 L 12.0 4.0" fill="none" stroke="#111" stroke-width="1.16" stroke-linecap="round" stroke-linejoin="round"/>
<path d="M 7.0 10.0 L 7.17 9.79 L 7.35 9.59 L 7.54 9.4 L 7.73 9.21 L 7.93 9.02 L 8.13 8.84 L 8.33 8.67 L 8.54 8.5 L 8.76 8.34 L 8.98 8.18 L 9.21 8.04 L 9.44 7.89 L 9.67 7.76 L 9.91 7.63 L 10.15 7.51 L 10.39 7.39 L 10.64 7.29 L 10.89 7.18 L 11.14 7.09 L 11.4 7.01 L 11.65 6.93 L 11.91 6.86 L 12.18 6.79 L 12.44 6.74 L 12.0 7.0 L 12.0 7.92 L 12.0 8.83 L 12.0 9.75 L 12.0 10.67 L 12.0 11.58 L 12.0 12.5 L 12.0 13.42 L 12.0 14.33 L 12.0 15.25 L 12.0 16.17 L 12.0 17.08 L 12.0 18.0 L 12.0 18.92 L 12.0 19.83 L 12.0 20.75 L 12.0 21.67 L 12.0 22.58 L 12.0 23.5 L 12.0 24.42 L 12.0 25.33 L 12.0 26.25 L 12.0 27.17 L 12.0 28.08 L 12.0 29.0" fill="none" stroke="#111" stroke-width="1.16" stroke-linecap="round" stroke-linejoin="round"/>
<path d="M 7.0 25.0 L 7.14 25.09 L 7.29 25.16 L 7.45 25.22 L 7.61 25.25 L 7.78 25.27 L 7.94 25.27 L 8.11 25.24 L 8.27 25.2 L 8.42 25.14 L 8.57 25.06 L 8.71 24.97 L 8.83 24.86 L 8.94 24.73 L 9.04 24.6 L 9.12 24.45 L 9.18 24.29 L 9.22 24.13 L 9.24 23.97 L 9.24 23.8 L 9.23 23.63 L 9.19 23.47 L 9.14 23.31 L 9.07 23.16 L 8.98 23.02 L 9.0 23.0 L 9.12 22.92 L 9.25 22.83 L 9.38 22.75 L 9.5 22.67 L 9.62 22.58 L 9.75 22.5 L 9.88 22.42 L 10.0 22.33 L 10.12 22.25 L 10.25 22.17 L 10.38 22.08 L 10.5 22.0 L 10.62 21.92 L 10.75 21.83 L 10.88 21.75 L 11.0 21.67 L 11.12 21.58 L 11.25 21.5 L 11.38 21.42 L 11.5 21.33 L 11.62 21.25 L 11.75 21.17 L 11.88 21.08 L 12.0 21.0" fill="none" stroke="#111" stroke-width="1.16" stroke-linecap="round" stroke-linejoin="round"/>
<path d="M 9.0 14.0 L 9.25 14.0 L 9.5 14.0 L 9.75 14.0 L 10.0 14.0 L 10.25 14.0 L 10.5 14.0 L 10.75 14.0 L 11.0 14.0 L 11.25 14.0 L 11.5 14.0 L 11.75 14.0 L 12.0 14.0 L 12.25 14.0 L 12.5 14.0 L 12.75 14.0 L 13.0 14.0 L 13.25 14.0 L 13.5 14.0 L 13.75 14.0 L 14.0 14.0 L 14.25 14.0 L 14.5 14.0 L 14.75 14.0 L 15.0 14.0 L 15.0 14.0 L 15.0 14.12 L 15.0 14.25 L 15.0 14.38 L 15.0 14.5 L 15.0 14.62 L 15.0 14.75 L 15.0 14.88 L 15.0 15.0 L 15.0 15.12 L 15.0 15.25 L 15.0 15.38 L 15.0 15.5 L 15.0 15.62 L 15.0 15.75 L 15.0 15.88 L 15.0 16.0 L 15.0 16.12 L 15.0 16.25 L 15.0 16.38 L 15.0 16.5 L 15.0 16.62 L 15.0 16.75 L 15.0 16.88 L 15.0 17.0 L 15.0 17.0 L 14.79 17.0 L 14.58 17.0 L 14.38 17.0 L 14.17 17.0 L 13.96 17.0 L 13.75 17.0 L 13.54 17.0 L 13.33 17.0 L 13.12 17.0 L 12.92 17.0 L 12.71 17.0 L 12.5 17.0 L 12.29 17.0 L 12.08 17.0 L 11.88 17.0 L 11.67 17.0 L 11.46 17.0 L 11.25 17.0 L 11.04 17.0 L 10.83 17.0 L 10.62 17.0 L 10.42 17.0 L 10.21 17.0 L 10.0 17.0 L 10.0 17.0 L 10.0 16.88 L 10.0 16.75 L 10.0 16.62 L 10.0 16.5 L 10.0 16.38 L 10.0 16.25 L 10.0 16.12 L 10.0 16.0 L 10.0 15.88 L 10.0 15.75 L 10.0 15.62 L 10.0 15.5 L 10.0 15.38 L 10.0 15.25 L 10.0 15.12 L 10.0 15.0 L 10.0 14.88 L 10.0 14.75 L 10.0 14.62 L 10.0 14.5 L 10.0 14.38 L 10.0 14.25 L 10.0 14.12 L 10.0 14.0" fill="none" stroke="#111" stroke-width="1.16" stroke-linecap="round" stroke-linejoin="round"/>
<path d="M 14.0 7.0 L 14.0 7.12 L 14.0 7.25 L 14.0 7.38 L 14.0 7.5 L 14.0 7.62 L 14.0 7.75 L 14.0 7.88 L 14.0 8.0 L 14.0 8.12 L 14.0 8.25 L 14.0 8.38 L 14.0 8.5 L 14.0 8.62 L 14.0 8.75 L 14.0 8.88 L 14.0 9.0 L 14.0 9.12 L 14.0 9.25 L 14.0 9.38 L 14.0 9.5 L 14.0 9.62 L 14.0 9.75 L 14.0 9.88 L 14.0 10.0" fill="none" stroke="#111" stroke-width="1.16" stroke-linecap="round" stroke-linejoin="round"/>
<path d="M 15.0 5.0 L 15.53 5.64 L 16.02 6.31 L 16.47 7.01 L 16.89 7.73 L 17.26 8.48 L 17.59 9.24 L 17.88 10.02 L 18.13 10.81 L 18.33 11.62 L 18.49 12.44 L 18.6 13.26 L 18.67 14.09 L 18.69 14.92 L 18.67 15.76 L 18.59 16.59 L 18.48 17.41 L 18.32 18.23 L 18.11 19.03 L 17.86 19.83 L 17.56 20.6 L 17.23 21.36 L 16.85 22.11 L 16.43 22.83 L 15.97 23.52 L 16.0 24.0 L 16.21 24.17 L 16.42 24.33 L 16.62 24.5 L 16.83 24.67 L 17.04 24.83 L 17.25 25.0 L 17.46 25.17 L 17.67 25.33 L 17.88 25.5 L 18.08 25.67 L 18.29 25.83 L 18.5 26.0 L 18.71 26.17 L 18.92 26.33 L 19.12 26.5 L 19.33 26.67 L 19.54 26.83 L 19.75 27.0 L 19.96 27.17 L 20.17 27.33 L 20.38 27.5 L 20.58 27.67 L 20.79 27.83 L 21.0 28.0" fill="none" stroke="#111" stroke-width="1.16" stroke-linecap="round" stroke-linejoin="round"/>
</svg>
