<?xml version="1.0" encoding="UTF-8"?>
<svg xmlns="http://www.w3.org/2000/svg" viewBox="0 0 30.59 39.89">
<path d="M 14.59 4.0 L 14.17 5.03 L 13.81 6.08 L 13.5 7.14 L 13.24 8.22 L 13.04 9.31 L 12.9 10.41 L 12.81 11.51 L 12.78 12.62 L 12.8 13.73 L 12.88 14.83 L 13.01 15.93 L 13.2 17.02 L 13.45 18.11 L 13.75 19.17 L 14.1 20.22 L 14.5 21.26 L 14.96 22.27 L 15.47 23.25 L 16.02 24.21 L 16.63 25.14 L 17.28 26.04 L 17.97 26.9 L 18.71 27.73 L 19.49 28.52" fill="none" stroke="#111" stroke-width="1.40" stroke-linecap="round" stroke-linejoin="round"/>
<path d="M 10.59 5.0 L 10.36 5.6 L 10.17 6.21 L 10.02 6.84 L 9.9 7.47 L 9.81 8.1 L 9.76 8.74 L 9.74 9.38 L 9.76 10.03 L 9.82 10.67 L 9.91 11.3 L 10.03 11.93 L 10.19 12.55 L 10.38 13.16 L 10.61 13.76 L 10.87 14.35 L 11.16 14.92 L 11.48 15.48 L 11.84 16.01 L 12.22 16.53 L 12.63 17.02 L 13.06 17.5 L 13.52 17.94 L 14.01 18.36 L 14.52 18.76" fill="none" stroke="#111" stroke-width="1.40" stroke-linecap="round" stroke-linejoin="round"/>
<path d="M 18.59 4.0 L 18.54 4.46 L 18.5 4.92 L 18.47 5.38 L 18.45 5.84 L 18.43 6.31 L 18.43 6.77 L 18.43 7.23 L 18.43 7.69 L 18.45 8.16 L 18.47 8.62 L 18.5 9.08 L 18.54 9.54 L 18.59 10.0 L 18.64 10.46 L 18.7 10.92 L 18.77 11.38 L 18.85 11.83 L 18.93 12.29 L 19.02 12.74 L 19.12 13.19 L 19.22 13.64 L 19.34 14.09 L 19.46 14.54 L 19.58 14.98 L 19.59 15.0 L 19.38 15.17 L 19.17 15.33 L 18.96 15.5 L 18.75 15.67 L 18.54 15.83 L 18.34 16.0 L 18.13 16.17 L 17.92 16.33 L 17.71 16.5 L 17.5 16.67 L 17.29 16.83 L 17.09 17.0 L 16.88 17.17 L 16.67 17.33 L 16.46 17.5 L 16.25 17.67 L 16.04 17.83 L 15.84 18.0 L 15.63 18.17 L 15.42 18.33 L 15.21 18.5 L 15.0 18.67 L 14.79 18.83 L 14.59 19.0" fill="none" stroke="#111" stroke-width="1.40" stroke-linecap="round" stroke-linejoin="round"/>
<path d="M 14.59 22.0 L 14.37 22.55 L 14.17 23.1 L 13.98 23.66 L 13.8 24.23 L 13.65 24.79 L 13.5 25.37 L 13.38 25.94 L 13.26 26.52 L 13.17 27.11 L 13.09 27.69 L 13.02 28.28 L 12.97 28.86 L 12.94 29.45 L 12.92 30.04 L 12.92 30.63 L 12.93 31.22 L 12.96 31.81 L 13.0 32.4 L 13.06 32.99 L 13.14 33.57 L 13.23 34.16 L 13.33 34.74 L 13.46 35.31 L 13.59 35.89" fill="none" stroke="#111" stroke-width="1.40" stroke-linecap="round" stroke-linejoin="round"/>
<path d="M 4.59 10.0 L 4.75 10.0 L 4.92 10.0 L 5.09 10.0 L 5.25 10.0 L 5.42 10.0 L 5.59 10.0 L 5.75 10.0 L 5.92 10.0 L 6.09 10.0 L 6.25 10.0 L 6.42 10.0 L 6.59 10.0 L 6.75 10.0 L 6.92 10.0 L 7.09 10.0 L 7.25 10.0 L 7.42 10.0 L 7.59 10.0 L 7.75 10.0 L 7.92 10.0 L 8.09 10.0 L 8.25 10.0 L 8.42 10.0 L 8.59 10.0" fill="none" stroke="#111" stroke-width="1.40" stroke-linecap="round" stroke-linejoin="round"/>
<path d="M 4.59 8.0 L 4.44 8.29 L 4.32 8.6 L 4.22 8.9 L 4.13 9.22 L 4.07 9.54 L 4.03 9.86 L 4.0 10.19 L 4.0 10.51 L 4.02 10.84 L 4.06 11.16 L 4.12 11.48 L 4.2 11.8 L 4.3 12.11 L 4.41 12.42 L 4.55 12.71 L 4.71 13.0 L 4.88 13.27 L 5.07 13.54 L 5.28 13.79 L 5.51 14.03 L 5.74 14.25 L 5.99 14.46 L 6.26 14.65 L 6.53 14.82 L 6.59 15.0 L 6.67 14.96 L 6.75 14.92 L 6.84 14.88 L 6.92 14.83 L 7.0 14.79 L 7.09 14.75 L 7.17 14.71 L 7.25 14.67 L 7.34 14.62 L 7.42 14.58 L 7.5 14.54 L 7.59 14.5 L 7.67 14.46 L 7.75 14.42 L 7.84 14.38 L 7.92 14.33 L 8.0 14.29 L 8.09 14.25 L 8.17 14.21 L 8.25 14.17 L 8.34 14.12 L 8.42 14.08 L 8.5 14.04 L 8.59 14.0" fill="none" stroke="#111" stroke-width="1.40" stroke-linecap="round" stroke-linejoin="round"/>
<path d="M 8.59 8.0 L 8.59 8.21 L 8.59 8.42 L 8.59 8.62 L 8.59 8.83 L 8.59 9.04 L 8.59 9.25 L 8.59 9.46 L 8.59 9.67 L 8.59 9.88 L 8.59 10.08 L 8.59 10.29 L 8.59 10.5 L 8.59 10.71 L 8.59 10.92 L 8.59 11.12 L 8.59 11.33 L 8.59 11.54 L 8.59 11.75 L 8.59 11.96 L 8.59 12.17 L 8.59 12.38 L 8.59 12.58 L 8.59 12.79 L 8.59 13.0" fill="none" stroke="#111" stroke-width="1.40" stroke-linecap="round" stroke-linejoin="round"/>
<path d="M 21.59 11.0 L 21.75 11.0 L 21.92 11.0 L 22.09 11.0 L 22.25 11.0 L 22.42 11.0 L 22.59 11.0 L 22.75 11.0 L 22.92 11.0 L 23.09 11.0 L 23.25 11.0 L 23.42 11.0 L 23.59 11.0 L 23.75 11.0 L 23.92 11.0 L 24.09 11.0 L 24.25 11.0 L 24.42 11.0 L 24.59 11.0 L 24.75 11.0 L 24.92 11.0 L 25.09 11.0 L 25.25 11.0 L 25.42 11.0 L 25.59 11.0" fill="none" stroke="#111" stroke-width="1.40" stroke-linecap="round" stroke-linejoin="round"/>
<path d="M 21.59 8.0 L 21.37 8.26 L 21.17 8.55 L 21.0 8.84 L 20.85 9.15 L 20.73 9.48 L 20.64 9.81 L 20.58 10.14 L 20.55 10.48 L 20.54 10.83 L 20.56 11.17 L 20.61 11.51 L 20.69 11.84 L 20.8 12.17 L 20.94 12.48 L 21.1 12.79 L 21.29 13.07 L 21.5 13.35 L 21.73 13.6 L 21.98 13.83 L 22.25 14.04 L 22.54 14.23 L 22.84 14.39 L 23.16 14.53 L 23.48 14.64 L 23.59 15.0 L 23.71 14.96 L 23.84 14.92 L 23.96 14.88 L 24.09 14.83 L 24.21 14.79 L 24.34 14.75 L 24.46 14.71 L 24.59 14.67 L 24.71 14.62 L 24.84 14.58 L 24.96 14.54 L 25.09 14.5 L 25.21 14.46 L 25.34 14.42 L 25.46 14.38 L 25.59 14.33 L 25.71 14.29 L 25.84 14.25 L 25.96 14.21 L 26.09 14.17 L 26.21 14.12 L 26.34 14.08 L 26.46 14.04 L 26.59 14.0 L 26.59 14.0 L 26.59 14.0 L 26.59 14.0 L 26.59 14.0 L 26.59 14.0 L 26.59 14.0 L 26.59 14.0 L 26.59 14.0 L 26.59 14.0 L 26.59 14.0 L 26.59 14.0 L 26.59 14.0 L 26.59 14.0 L 26.59 14.0 L 26.59 14.0 L 26.59 14.0 L 26.59 14.0 L 26.59 14.0 L 26.59 14.0 L 26.59 14.0 L 26.59 14.0 L 26.59 14.0 L 26.59 14.0 L 26.59 14.0 L 26.59 14.0" fill="none" stroke="#111" stroke-width="1.40" stroke-linecap="round" stroke-linejoin="round"/>
<path d="M 26.59 7.0 L 26.59 7.29 L 26.59 7.58 L 26.59 7.88 L 26.59 8.17 L 26.59 8.46 L 26.59 8.75 L 26.59 9.04 L 26.59 9.33 L 26.59 9.62 L 26.59 9.92 L 26.59 10.21 L 26.59 10.5 L 26.59 10.79 L 26.59 11.08 L 26.59 11.38 L 26.59 11.67 L 26.59 11.96 L 26.59 12.25 L 26.59 12.54 L 26.59 12.83 L 26.59 13.12 L 26.59 13.42 L 26.59 13.71 L 26.59 14.0" fill="none" stroke="#111" stroke-width="1.40" stroke-linecap="round" stroke-linejoin="round"/>
</svg>
