<?xml version="1.0" encoding="UTF-8"?>
<svg xmlns="http://www.w3.org/2000/svg" viewBox="0 0 27.87 32.74">
<path d="M 12.24 6.0 L 12.28 6.58 L 12.32 7.17 L 12.36 7.75 L 12.41 8.33 L 12.45 8.92 L 12.49 9.5 L 12.53 10.08 L 12.57 10.67 L 12.61 11.25 L 12.66 11.83 L 12.7 12.42 L 12.74 13.0 L 12.78 13.58 L 12.82 14.17 L 12.86 14.75 L 12.91 15.33 L 12.95 15.92 L 12.99 16.5 L 13.03 17.08 L 13.07 17.67 L 13.11 18.25 L 13.16 18.83 L 13.2 19.42 L 13.24 20.0 L 13.24 20.0 L 12.87 20.12 L 12.52 20.28 L 12.19 20.48 L 11.88 20.71 L 11.6 20.97 L 11.35 21.26 L 11.14 21.58 L 10.96 21.92 L 10.81 22.28 L 10.71 22.65 L 10.65 23.03 L 10.62 23.41 L 10.65 23.8 L 10.71 24.18 L 10.81 24.55 L 10.96 24.91 L 11.14 25.25 L 11.35 25.56 L 11.6 25.86 L 11.88 26.12 L 12.19 26.35 L 12.52 26.55 L 12.87 26.71 L 13.24 26.83 L 13.24 27.0 L 13.51 26.81 L 13.77 26.59 L 14.01 26.36 L 14.23 26.1 L 14.43 25.83 L 14.6 25.54 L 14.75 25.24 L 14.88 24.93 L 14.97 24.6 L 15.04 24.27 L 15.08 23.94 L 15.1 23.6 L 15.08 23.27 L 15.04 22.93 L 14.97 22.6 L 14.88 22.28 L 14.75 21.97 L 14.6 21.67 L 14.43 21.38 L 14.23 21.11 L 14.01 20.85 L 13.77 20.62 L 13.51 20.4 L 13.24 20.21" fill="none" stroke="#111" stroke-width="1.15" stroke-linecap="round" stroke-linejoin="round"/>
<path d="M 9.24 6.0 L 9.24 6.25 L 9.24 6.5 L 9.24 6.75 L 9.24 7.0 L 9.24 7.25 L 9.24 7.5 L 9.24 7.75 L 9.24 8.0 L 9.24 8.25 L 9.24 8.5 L 9.24 8.75 L 9.24 9.0 L 9.24 9.25 L 9.24 9.5 L 9.24 9.75 L 9.24 10.0 L 9.24 10.25 L 9.24 10.5 L 9.24 10.75 L 9.24 11.0 L 9.24 11.25 L 9.24 11.5 L 9.24 11.75 L 9.24 12.0" fill="none" stroke="#111" stroke-width="1.15" stroke-linecap="round" stroke-linejoin="round"/>
<path d="M 14.24 4.0 L 14.24 4.29 L 14.24 4.58 L 14.24 4.88 L 14.24 5.17 L 14.24 5.46 L 14.24 5.75 L 14.24 6.04 L 14.24 6.33 L 14.24 6.62 L 14.24 6.92 L 14.24 7.21 L 14.24 7.5 L 14.24 7.79 L 14.24 8.08 L 14.24 8.38 L 14.24 8.67 L 14.24 8.96 L 14.24 9.25 L 14.24 9.54 L 14.24 9.83 L 14.24 10.12 L 14.24 10.42 L 14.24 10.71 L 14.24 11.0" fill="none" stroke="#111" stroke-width="1.15" stroke-linecap="round" stroke-linejoin="round"/>
<path d="M 12.24 7.0 L 11.99 7.17 L 11.74 7.33 L 11.49 7.5 L 11.24 7.67 L 10.99 7.83 L 10.74 8.0 L 10.49 8.17 L 10.24 8.33 L 9.99 8.5 L 9.74 8.67 L 9.49 8.83 L 9.24 9.0 L 8.99 9.17 L 8.74 9.33 L 8.49 9.5 L 8.24 9.67 L 7.99 9.83 L 7.74 10.0 L 7.49 10.17 L 7.24 10.33 L 6.99 10.5 L 6.74 10.67 L 6.49 10.83 L 6.24 11.0" fill="none" stroke="#111" stroke-width="1.15" stroke-linecap="round" stroke-linejoin="round"/>
<path d="M 13.24 8.0 L 13.57 8.17 L 13.91 8.33 L 14.24 8.5 L 14.57 8.67 L 14.91 8.83 L 15.24 9.0 L 15.57 9.17 L 15.91 9.33 L 16.24 9.5 L 16.57 9.67 L 16.91 9.83 L 17.24 10.0 L 17.57 10.17 L 17.91 10.33 L 18.24 10.5 L 18.57 10.67 L 18.91 10.83 L 19.24 11.0 L 19.57 11.17 L 19.91 11.33 L 20.24 11.5 L 20.57 11.67 L 20.91 11.83 L 21.24 12.0" fill="none" stroke="#111" stroke-width="1.15" stroke-linecap="round" stroke-linejoin="round"/>
<path d="M 5.24 14.0 L 4.54 15.57 L 4.12 17.23 L 4.0 18.95 L 4.17 20.65 L 4.64 22.31 L 5.38 23.85 L 6.37 25.25 L 7.6 26.46 L 9.01 27.43 L 10.57 28.15 L 12.23 28.59 L 13.94 28.74 L 15.65 28.59 L 17.3 28.15 L 18.86 27.43 L 20.27 26.46 L 21.5 25.25 L 22.49 23.85 L 23.24 22.31 L 23.7 20.65 L 23.87 18.95 L 23.75 17.23 L 23.33 15.57 L 22.63 14.0" fill="none" stroke="#111" stroke-width="1.15" stroke-linecap="round" stroke-linejoin="round"/>
</svg>
