<?xml version="1.0" encoding="UTF-8"?>
<svg xmlns="http://www.w3.org/2000/svg" viewBox="0 0 16.00 30.00">
<path d="M 7.0 4.0 L 6.88 4.21 L 6.75 4.42 L 6.62 4.62 L 6.5 4.83 L 6.38 5.04 L 6.25 5.25 L 6.12 5.46 L 6.0 5.67 L 5.88 5.88 L 5.75 6.08 L 5.63 6.29 L 5.5 6.5 L 5.38 6.71 L 5.25 6.92 L 5.12 7.13 L 5.0 7.33 L 4.88 7.54 L 4.75 7.75 L 4.63 7.96 L 4.5 8.17 L 4.38 8.38 L 4.25 8.58 L 4.13 8.79 L 4.0 9.0 L 4.0 9.0 L 4.12 9.12 L 4.25 9.25 L 4.38 9.38 L 4.5 9.5 L 4.62 9.62 L 4.75 9.75 L 4.88 9.88 L 5.0 10.0 L 5.12 10.12 L 5.25 10.25 L 5.38 10.38 L 5.5 10.5 L 5.62 10.62 L 5.75 10.75 L 5.88 10.88 L 6.0 11.0 L 6.12 11.12 L 6.25 11.25 L 6.38 11.38 L 6.5 11.5 L 6.62 11.62 L 6.75 11.75 L 6.88 11.88 L 7.0 12.0 L 7.0 12.0 L 7.28 11.76 L 7.54 11.49 L 7.79 11.21 L 8.01 10.91 L 8.2 10.59 L 8.38 10.26 L 8.53 9.92 L 8.65 9.57 L 8.75 9.21 L 8.81 8.84 L 8.86 8.47 L 8.87 8.1 L 8.86 7.73 L 8.81 7.36 L 8.75 6.99 L 8.65 6.63 L 8.53 6.28 L 8.38 5.94 L 8.2 5.61 L 8.01 5.29 L 7.79 4.99 L 7.54 4.71 L 7.28 4.45 L 7.0 4.2 L 7.0 4.0 L 7.0 4.0 L 7.0 4.0 L 7.0 4.0 L 7.0 4.0 L 7.0 4.0 L 7.0 4.0 L 7.0 4.0 L 7.0 4.0 L 7.0 4.0 L 7.0 4.0 L 7.0 4.0 L 7.0 4.0 L 7.0 4.0 L 7.0 4.0 L 7.0 4.0 L 7.0 4.0 L 7.0 4.0 L 7.0 4.0 L 7.0 4.0 L 7.0 4.0 L 7.0 4.0 L 7.0 4.0 L 7.0 4.0 L 7.0 4.0" fill="none" stroke="#111" stroke-width="1.05" stroke-linecap="round" stroke-linejoin="round"/>
<path d="M 7.0 12.0 L 6.52 12.49 L 6.08 13.03 L 5.68 13.6 L 5.34 14.2 L 5.05 14.82 L 4.82 15.47 L 4.64 16.14 L 4.52 16.82 L 4.45 17.51 L 4.45 18.2 L 4.51 18.89 L 4.62 19.57 L 4.8 20.24 L 5.03 20.9 L 5.31 21.53 L 5.65 22.13 L 6.04 22.7 L 6.48 23.24 L 6.96 23.73 L 7.48 24.19 L 8.04 24.6 L 8.63 24.95 L 9.25 25.26 L 9.9 25.51 L 10.0 26.0 L 10.08 25.83 L 10.17 25.67 L 10.25 25.5 L 10.33 25.33 L 10.42 25.17 L 10.5 25.0 L 10.58 24.83 L 10.67 24.67 L 10.75 24.5 L 10.83 24.33 L 10.92 24.17 L 11.0 24.0 L 11.08 23.83 L 11.17 23.67 L 11.25 23.5 L 11.33 23.33 L 11.42 23.17 L 11.5 23.0 L 11.58 22.83 L 11.67 22.67 L 11.75 22.5 L 11.83 22.33 L 11.92 22.17 L 12.0 22.0" fill="none" stroke="#111" stroke-width="1.05" stroke-linecap="round" stroke-linejoin="round"/>
</svg>
