<?xml version="1.0" encoding="UTF-8"?>
<svg xmlns="http://www.w3.org/2000/svg" viewBox="0 0 24.76 39.40">
<path d="M 12.76 4.0 L 12.68 4.08 L 12.59 4.17 L 12.51 4.25 L 12.43 4.33 L 12.34 4.42 L 12.26 4.5 L 12.18 4.58 L 12.09 4.67 L 12.01 4.75 L 11.93 4.83 L 11.84 4.92 L 11.76 5.0 L 11.68 5.08 L 11.59 5.17 L 11.51 5.25 L 11.43 5.33 L 11.34 5.42 L 11.26 5.5 L 11.18 5.58 L 11.09 5.67 L 11.01 5.75 L 10.93 5.83 L 10.84 5.92 L 10.76 6.0" fill="none" stroke="#111" stroke-width="1.38" stroke-linecap="round" stroke-linejoin="round"/>
<path d="M 9.76 5.0 L 9.84 5.12 L 9.93 5.25 L 10.01 5.38 L 10.09 5.5 L 10.18 5.62 L 10.26 5.75 L 10.34 5.88 L 10.43 6.0 L 10.51 6.12 L 10.59 6.25 L 10.68 6.38 L 10.76 6.5 L 10.84 6.62 L 10.93 6.75 L 11.01 6.88 L 11.09 7.0 L 11.18 7.12 L 11.26 7.25 L 11.34 7.38 L 11.43 7.5 L 11.51 7.62 L 11.59 7.75 L 11.68 7.88 L 11.76 8.0" fill="none" stroke="#111" stroke-width="1.38" stroke-linecap="round" stroke-linejoin="round"/>
<path d="M 13.76 5.0 L 13.64 5.29 L 13.51 5.58 L 13.39 5.88 L 13.26 6.17 L 13.14 6.46 L 13.01 6.75 L 12.89 7.04 L 12.76 7.33 L 12.64 7.62 L 12.51 7.92 L 12.39 8.21 L 12.26 8.5 L 12.14 8.79 L 12.01 9.08 L 11.89 9.38 L 11.76 9.67 L 11.64 9.96 L 11.51 10.25 L 11.39 10.54 L 11.26 10.83 L 11.14 11.12 L 11.01 11.42 L 10.89 11.71 L 10.76 12.0" fill="none" stroke="#111" stroke-width="1.38" stroke-linecap="round" stroke-linejoin="round"/>
<path d="M 8.76 10.0 L 9.09 10.42 L 9.43 10.83 L 9.76 11.25 L 10.09 11.67 L 10.43 12.08 L 10.76 12.5 L 11.09 12.92 L 11.43 13.33 L 11.76 13.75 L 12.09 14.17 L 12.43 14.58 L 12.76 15.0 L 13.09 15.42 L 13.43 15.83 L 13.76 16.25 L 14.09 16.67 L 14.43 17.08 L 14.76 17.5 L 15.09 17.92 L 15.43 18.33 L 15.76 18.75 L 16.09 19.17 L 16.43 19.58 L 16.76 20.0" fill="none" stroke="#111" stroke-width="1.38" stroke-linecap="round" stroke-linejoin="round"/>
<path d="M 16.76 20.0 L 15.99 20.24 L 15.24 20.54 L 14.53 20.91 L 13.85 21.35 L 13.21 21.84 L 12.61 22.39 L 12.07 22.99 L 11.59 23.63 L 11.16 24.31 L 10.79 25.04 L 10.5 25.78 L 10.26 26.56 L 10.1 27.35 L 10.01 28.15 L 10.0 28.96 L 10.05 29.76 L 10.18 30.56 L 10.37 31.34 L 10.64 32.11 L 10.97 32.84 L 11.37 33.54 L 11.83 34.21 L 12.34 34.83 L 12.91 35.4" fill="none" stroke="#111" stroke-width="1.38" stroke-linecap="round" stroke-linejoin="round"/>
<path d="M 13.76 9.0 L 13.8 9.08 L 13.84 9.17 L 13.89 9.25 L 13.93 9.33 L 13.97 9.42 L 14.01 9.5 L 14.05 9.58 L 14.09 9.67 L 14.14 9.75 L 14.18 9.83 L 14.22 9.92 L 14.26 10.0 L 14.3 10.08 L 14.34 10.17 L 14.39 10.25 L 14.43 10.33 L 14.47 10.42 L 14.51 10.5 L 14.55 10.58 L 14.59 10.67 L 14.64 10.75 L 14.68 10.83 L 14.72 10.92 L 14.76 11.0" fill="none" stroke="#111" stroke-width="1.38" stroke-linecap="round" stroke-linejoin="round"/>
<path d="M 16.76 10.0 L 16.59 10.12 L 16.43 10.25 L 16.26 10.38 L 16.09 10.5 L 15.93 10.62 L 15.76 10.75 L 15.59 10.88 L 15.43 11.0 L 15.26 11.12 L 15.09 11.25 L 14.93 11.38 L 14.76 11.5 L 14.59 11.62 L 14.43 11.75 L 14.26 11.88 L 14.09 12.0 L 13.93 12.12 L 13.76 12.25 L 13.59 12.38 L 13.43 12.5 L 13.26 12.62 L 13.09 12.75 L 12.93 12.88 L 12.76 13.0" fill="none" stroke="#111" stroke-width="1.38" stroke-linecap="round" stroke-linejoin="round"/>
<path d="M 11.76 17.0 L 11.72 17.12 L 11.68 17.25 L 11.64 17.38 L 11.59 17.5 L 11.55 17.62 L 11.51 17.75 L 11.47 17.88 L 11.43 18.0 L 11.39 18.12 L 11.34 18.25 L 11.3 18.38 L 11.26 18.5 L 11.22 18.62 L 11.18 18.75 L 11.14 18.88 L 11.09 19.0 L 11.05 19.12 L 11.01 19.25 L 10.97 19.38 L 10.93 19.5 L 10.89 19.62 L 10.84 19.75 L 10.8 19.88 L 10.76 20.0" fill="none" stroke="#111" stroke-width="1.38" stroke-linecap="round" stroke-linejoin="round"/>
<path d="M 8.76 19.0 L 8.93 19.12 L 9.09 19.25 L 9.26 19.38 L 9.43 19.5 L 9.59 19.62 L 9.76 19.75 L 9.93 19.88 L 10.09 20.0 L 10.26 20.12 L 10.43 20.25 L 10.59 20.38 L 10.76 20.5 L 10.93 20.62 L 11.09 20.75 L 11.26 20.88 L 11.43 21.0 L 11.59 21.12 L 11.76 21.25 L 11.93 21.38 L 12.09 21.5 L 12.26 21.62 L 12.43 21.75 L 12.59 21.88 L 12.76 22.0" fill="none" stroke="#111" stroke-width="1.38" stroke-linecap="round" stroke-linejoin="round"/>
<path d="M 4.76 9.0 L 4.89 9.0 L 5.01 9.0 L 5.14 9.0 L 5.26 9.0 L 5.39 9.0 L 5.51 9.0 L 5.64 9.0 L 5.76 9.0 L 5.89 9.0 L 6.01 9.0 L 6.14 9.0 L 6.26 9.0 L 6.39 9.0 L 6.51 9.0 L 6.64 9.0 L 6.76 9.0 L 6.89 9.0 L 7.01 9.0 L 7.14 9.0 L 7.26 9.0 L 7.39 9.0 L 7.51 9.0 L 7.64 9.0 L 7.76 9.0" fill="none" stroke="#111" stroke-width="1.38" stroke-linecap="round" stroke-linejoin="round"/>
<path d="M 4.76 7.0 L 4.61 7.21 L 4.48 7.44 L 4.37 7.67 L 4.28 7.92 L 4.21 8.17 L 4.17 8.42 L 4.14 8.68 L 4.14 8.94 L 4.16 9.2 L 4.2 9.46 L 4.27 9.71 L 4.35 9.95 L 4.46 10.19 L 4.59 10.42 L 4.73 10.63 L 4.9 10.83 L 5.08 11.02 L 5.27 11.19 L 5.48 11.34 L 5.71 11.48 L 5.94 11.59 L 6.18 11.69 L 6.43 11.76 L 6.69 11.81 L 6.76 12.0 L 6.8 11.96 L 6.84 11.92 L 6.89 11.88 L 6.93 11.83 L 6.97 11.79 L 7.01 11.75 L 7.05 11.71 L 7.09 11.67 L 7.14 11.62 L 7.18 11.58 L 7.22 11.54 L 7.26 11.5 L 7.3 11.46 L 7.34 11.42 L 7.39 11.38 L 7.43 11.33 L 7.47 11.29 L 7.51 11.25 L 7.55 11.21 L 7.59 11.17 L 7.64 11.12 L 7.68 11.08 L 7.72 11.04 L 7.76 11.0" fill="none" stroke="#111" stroke-width="1.38" stroke-linecap="round" stroke-linejoin="round"/>
<path d="M 7.76 7.0 L 7.76 7.17 L 7.76 7.33 L 7.76 7.5 L 7.76 7.67 L 7.76 7.83 L 7.76 8.0 L 7.76 8.17 L 7.76 8.33 L 7.76 8.5 L 7.76 8.67 L 7.76 8.83 L 7.76 9.0 L 7.76 9.17 L 7.76 9.33 L 7.76 9.5 L 7.76 9.67 L 7.76 9.83 L 7.76 10.0 L 7.76 10.17 L 7.76 10.33 L 7.76 10.5 L 7.76 10.67 L 7.76 10.83 L 7.76 11.0" fill="none" stroke="#111" stroke-width="1.38" stroke-linecap="round" stroke-linejoin="round"/>
<path d="M 17.76 10.0 L 17.89 10.0 L 18.01 10.0 L 18.14 10.0 L 18.26 10.0 L 18.39 10.0 L 18.51 10.0 L 18.64 10.0 L 18.76 10.0 L 18.89 10.0 L 19.01 10.0 L 19.14 10.0 L 19.26 10.0 L 19.39 10.0 L 19.51 10.0 L 19.64 10.0 L 19.76 10.0 L 19.89 10.0 L 20.01 10.0 L 20.14 10.0 L 20.26 10.0 L 20.39 10.0 L 20.51 10.0 L 20.64 10.0 L 20.76 10.0" fill="none" stroke="#111" stroke-width="1.38" stroke-linecap="round" stroke-linejoin="round"/>
<path d="M 17.76 8.0 L 17.61 8.21 L 17.48 8.44 L 17.37 8.67 L 17.28 8.92 L 17.21 9.17 L 17.17 9.42 L 17.14 9.68 L 17.14 9.94 L 17.16 10.2 L 17.2 10.46 L 17.27 10.71 L 17.35 10.95 L 17.46 11.19 L 17.59 11.42 L 17.73 11.63 L 17.9 11.83 L 18.08 12.02 L 18.27 12.19 L 18.48 12.34 L 18.71 12.48 L 18.94 12.59 L 19.18 12.69 L 19.43 12.76 L 19.69 12.81 L 19.76 13.0 L 19.8 12.96 L 19.84 12.92 L 19.89 12.88 L 19.93 12.83 L 19.97 12.79 L 20.01 12.75 L 20.05 12.71 L 20.09 12.67 L 20.14 12.62 L 20.18 12.58 L 20.22 12.54 L 20.26 12.5 L 20.3 12.46 L 20.34 12.42 L 20.39 12.38 L 20.43 12.33 L 20.47 12.29 L 20.51 12.25 L 20.55 12.21 L 20.59 12.17 L 20.64 12.12 L 20.68 12.08 L 20.72 12.04 L 20.76 12.0" fill="none" stroke="#111" stroke-width="1.38" stroke-linecap="round" stroke-linejoin="round"/>
<path d="M 20.76 7.0 L 20.76 7.21 L 20.76 7.42 L 20.76 7.62 L 20.76 7.83 L 20.76 8.04 L 20.76 8.25 L 20.76 8.46 L 20.76 8.67 L 20.76 8.88 L 20.76 9.08 L 20.76 9.29 L 20.76 9.5 L 20.76 9.71 L 20.76 9.92 L 20.76 10.12 L 20.76 10.33 L 20.76 10.54 L 20.76 10.75 L 20.76 10.96 L 20.76 11.17 L 20.76 11.38 L 20.76 11.58 L 20.76 11.79 L 20.76 12.0" fill="none" stroke="#111" stroke-width="1.38" stroke-linecap="round" stroke-linejoin="round"/>
<path d="M 11.76 28.0 L 11.51 28.29 L 11.26 28.58 L 11.01 28.88 L 10.76 29.17 L 10.51 29.46 L 10.26 29.75 L 10.01 30.04 L 9.76 30.33 L 9.51 30.62 L 9.26 30.92 L 9.01 31.21 L 8.76 31.5 L 8.51 31.79 L 8.26 32.08 L 8.01 32.38 L 7.76 32.67 L 7.51 32.96 L 7.26 33.25 L 7.01 33.54 L 6.76 33.83 L 6.51 34.12 L 6.26 34.42 L 6.01 34.71 L 5.76 35.0" fill="none" stroke="#111" stroke-width="1.38" stroke-linecap="round" stroke-linejoin="round"/>
<path d="M 11.76 28.0 L 12.09 28.12 L 12.43 28.25 L 12.76 28.38 L 13.09 28.5 L 13.43 28.62 L 13.76 28.75 L 14.09 28.88 L 14.43 29.0 L 14.76 29.12 L 15.09 29.25 L 15.43 29.38 L 15.76 29.5 L 16.09 29.62 L 16.43 29.75 L 16.76 29.88 L 17.09 30.0 L 17.43 30.12 L 17.76 30.25 L 18.09 30.38 L 18.43 30.5 L 18.76 30.62 L 19.09 30.75 L 19.43 30.88 L 19.76 31.0" fill="none" stroke="#111" stroke-width="1.38" stroke-linecap="round" stroke-linejoin="round"/>
<path d="M 4.76 23.0 L 4.53 23.27 L 4.34 23.57 L 4.19 23.89 L 4.08 24.22 L 4.02 24.57 L 4.0 24.92 L 4.03 25.27 L 4.1 25.62 L 4.21 25.95 L 4.37 26.27 L 4.57 26.56 L 4.8 26.82 L 5.06 27.06 L 5.36 27.25 L 5.67 27.41 L 6.01 27.53 L 6.35 27.6 L 6.7 27.62 L 7.06 27.6 L 7.4 27.54 L 7.74 27.43 L 8.06 27.28 L 8.35 27.09 L 8.62 26.86" fill="none" stroke="#111" stroke-width="1.38" stroke-linecap="round" stroke-linejoin="round"/>
<path d="M 8.76 22.0 L 8.76 22.21 L 8.76 22.42 L 8.76 22.62 L 8.76 22.83 L 8.76 23.04 L 8.76 23.25 L 8.76 23.46 L 8.76 23.67 L 8.76 23.88 L 8.76 24.08 L 8.76 24.29 L 8.76 24.5 L 8.76 24.71 L 8.76 24.92 L 8.76 25.12 L 8.76 25.33 L 8.76 25.54 L 8.76 25.75 L 8.76 25.96 L 8.76 26.17 L 8.76 26.38 L 8.76 26.58 L 8.76 26.79 L 8.76 27.0" fill="none" stroke="#111" stroke-width="1.38" stroke-linecap="round" stroke-linejoin="round"/>
<path d="M 4.76 24.0 L 4.93 24.0 L 5.09 24.0 L 5.26 24.0 L 5.43 24.0 L 5.59 24.0 L 5.76 24.0 L 5.93 24.0 L 6.09 24.0 L 6.26 24.0 L 6.43 24.0 L 6.59 24.0 L 6.76 24.0 L 6.93 24.0 L 7.09 24.0 L 7.26 24.0 L 7.43 24.0 L 7.59 24.0 L 7.76 24.0 L 7.93 24.0 L 8.09 24.0 L 8.26 24.0 L 8.43 24.0 L 8.59 24.0 L 8.76 24.0" fill="none" stroke="#111" stroke-width="1.38" stroke-linecap="round" stroke-linejoin="round"/>
<path d="M 16.76 25.0 L 16.93 25.0 L 17.09 25.0 L 17.26 25.0 L 17.43 25.0 L 17.59 25.0 L 17.76 25.0 L 17.93 25.0 L 18.09 25.0 L 18.26 25.0 L 18.43 25.0 L 18.59 25.0 L 18.76 25.0 L 18.93 25.0 L 19.09 25.0 L 19.26 25.0 L 19.43 25.0 L 19.59 25.0 L 19.76 25.0 L 19.93 25.0 L 20.09 25.0 L 20.26 25.0 L 20.43 25.0 L 20.59 25.0 L 20.76 25.0" fill="none" stroke="#111" stroke-width="1.38" stroke-linecap="round" stroke-linejoin="round"/>
<path d="M 16.76 23.0 L 16.56 23.27 L 16.38 23.56 L 16.23 23.87 L 16.12 24.19 L 16.03 24.52 L 15.97 24.85 L 15.95 25.19 L 15.96 25.53 L 16.01 25.87 L 16.08 26.2 L 16.19 26.52 L 16.32 26.83 L 16.49 27.13 L 16.69 27.41 L 16.91 27.67 L 17.15 27.9 L 17.41 28.12 L 17.7 28.3 L 18.0 28.46 L 18.32 28.59 L 18.64 28.69 L 18.98 28.75 L 19.31 28.78 L 19.65 28.78 L 19.76 29.0 L 19.8 28.96 L 19.84 28.92 L 19.89 28.88 L 19.93 28.83 L 19.97 28.79 L 20.01 28.75 L 20.05 28.71 L 20.09 28.67 L 20.14 28.62 L 20.18 28.58 L 20.22 28.54 L 20.26 28.5 L 20.3 28.46 L 20.34 28.42 L 20.39 28.38 L 20.43 28.33 L 20.47 28.29 L 20.51 28.25 L 20.55 28.21 L 20.59 28.17 L 20.64 28.12 L 20.68 28.08 L 20.72 28.04 L 20.76 28.0" fill="none" stroke="#111" stroke-width="1.38" stroke-linecap="round" stroke-linejoin="round"/>
<path d="M 20.76 23.0 L 20.76 23.21 L 20.76 23.42 L 20.76 23.62 L 20.76 23.83 L 20.76 24.04 L 20.76 24.25 L 20.76 24.46 L 20.76 24.67 L 20.76 24.88 L 20.76 25.08 L 20.76 25.29 L 20.76 25.5 L 20.76 25.71 L 20.76 25.92 L 20.76 26.12 L 20.76 26.33 L 20.76 26.54 L 20.76 26.75 L 20.76 26.96 L 20.76 27.17 L 20.76 27.38 L 20.76 27.58 L 20.76 27.79 L 20.76 28.0" fill="none" stroke="#111" stroke-width="1.38" stroke-linecap="round" stroke-linejoin="round"/>
</svg>
