<?xml version="1.0" encoding="UTF-8"?>
<svg xmlns="http://www.w3.org/2000/svg" viewBox="0 0 22.00 35.00">
<path d="M 11.0 7.0 L 11.0 8.0 L 11.0 9.0 L 11.0 10.0 L 11.0 11.0 L 11.0 12.0 L 11.0 13.0 L 11.0 14.0 L 11.0 15.0 L 11.0 16.0 L 11.0 17.0 L 11.0 18.0 L 11.0 19.0 L 11.0 20.0 L 11.0 21.0 L 11.0 22.0 L 11.0 23.0 L 11.0 24.0 L 11.0 25.0 L 11.0 26.0 L 11.0 27.0 L 11.0 28.0 L 11.0 29.0 L 11.0 30.0 L 11.0 31.0" fill="none" stroke="#111" stroke-width="1.23" stroke-linecap="round" stroke-linejoin="round"/>
<path d="M 4.0 16.0 L 4.0 16.62 L 4.0 17.25 L 4.0 17.88 L 4.0 18.5 L 4.0 19.12 L 4.0 19.75 L 4.0 20.38 L 4.0 21.0 L 4.0 21.62 L 4.0 22.25 L 4.0 22.88 L 4.0 23.5 L 4.0 24.12 L 4.0 24.75 L 4.0 25.38 L 4.0 26.0 L 4.0 26.62 L 4.0 27.25 L 4.0 27.88 L 4.0 28.5 L 4.0 29.12 L 4.0 29.75 L 4.0 30.38 L 4.0 31.0" fill="none" stroke="#111" stroke-width="1.23" stroke-linecap="round" stroke-linejoin="round"/>
<path d="M 4.0 31.0 L 4.29 31.0 L 4.58 31.0 L 4.88 31.0 L 5.17 31.0 L 5.46 31.0 L 5.75 31.0 L 6.04 31.0 L 6.33 31.0 L 6.62 31.0 L 6.92 31.0 L 7.21 31.0 L 7.5 31.0 L 7.79 31.0 L 8.08 31.0 L 8.38 31.0 L 8.67 31.0 L 8.96 31.0 L 9.25 31.0 L 9.54 31.0 L 9.83 31.0 L 10.12 31.0 L 10.42 31.0 L 10.71 31.0 L 11.0 31.0" fill="none" stroke="#111" stroke-width="1.23" stroke-linecap="round" stroke-linejoin="round"/>
<path d="M 4.0 23.0 L 4.46 22.88 L 4.92 22.75 L 5.38 22.62 L 5.83 22.5 L 6.29 22.38 L 6.75 22.25 L 7.21 22.12 L 7.67 22.0 L 8.12 21.88 L 8.58 21.75 L 9.04 21.62 L 9.5 21.5 L 9.96 21.38 L 10.42 21.25 L 10.87 21.12 L 11.33 21.0 L 11.79 20.88 L 12.25 20.75 L 12.71 20.62 L 13.17 20.5 L 13.62 20.38 L 14.08 20.25 L 14.54 20.12 L 15.0 20.0" fill="none" stroke="#111" stroke-width="1.23" stroke-linecap="round" stroke-linejoin="round"/>
<path d="M 18.0 4.0 L 17.88 4.67 L 17.75 5.33 L 17.62 6.0 L 17.5 6.67 L 17.38 7.33 L 17.25 8.0 L 17.12 8.67 L 17.0 9.33 L 16.88 10.0 L 16.75 10.67 L 16.62 11.33 L 16.5 12.0 L 16.38 12.67 L 16.25 13.33 L 16.12 14.0 L 16.0 14.67 L 15.88 15.33 L 15.75 16.0 L 15.62 16.67 L 15.5 17.33 L 15.37 18.0 L 15.25 18.67 L 15.12 19.33 L 15.0 20.0" fill="none" stroke="#111" stroke-width="1.23" stroke-linecap="round" stroke-linejoin="round"/>
</svg>
