<?xml version="1.0" encoding="UTF-8"?>
<svg xmlns="http://www.w3.org/2000/svg" viewBox="0 0 29.34 41.40">
<path d="M 4.0 5.06 L 4.5 5.06 L 5.0 5.06 L 5.5 5.06 L 6.0 5.06 L 6.5 5.06 L 7.0 5.06 L 7.5 5.06 L 8.0 5.06 L 8.5 5.06 L 9.0 5.06 L 9.5 5.06 L 10.0 5.06 L 10.5 5.06 L 11.0 5.06 L 11.5 5.06 L 12.0 5.06 L 12.5 5.06 L 13.0 5.06 L 13.5 5.06 L 14.0 5.06 L 14.5 5.06 L 15.0 5.06 L 15.5 5.06 L 16.0 5.06" fill="none" stroke="#111" stroke-width="1.45" stroke-linecap="round" stroke-linejoin="round"/>
<path d="M 5.0 6.06 L 5.17 6.77 L 5.34 7.49 L 5.5 8.21 L 5.65 8.92 L 5.79 9.64 L 5.93 10.36 L 6.06 11.09 L 6.18 11.81 L 6.29 12.53 L 6.4 13.26 L 6.49 13.99 L 6.58 14.72 L 6.67 15.44 L 6.74 16.17 L 6.81 16.91 L 6.86 17.64 L 6.92 18.37 L 6.96 19.1 L 6.99 19.83 L 7.02 20.57 L 7.04 21.3 L 7.05 22.03 L 7.06 22.77 L 7.05 23.5 L 7.0 23.06 L 7.21 23.23 L 7.42 23.4 L 7.62 23.56 L 7.83 23.73 L 8.04 23.9 L 8.25 24.06 L 8.46 24.23 L 8.67 24.4 L 8.88 24.56 L 9.08 24.73 L 9.29 24.9 L 9.5 25.06 L 9.71 25.23 L 9.92 25.4 L 10.12 25.56 L 10.33 25.73 L 10.54 25.9 L 10.75 26.06 L 10.96 26.23 L 11.17 26.4 L 11.38 26.56 L 11.58 26.73 L 11.79 26.9 L 12.0 27.06 L 12.0 27.06 L 12.35 26.46 L 12.67 25.85 L 12.97 25.22 L 13.23 24.58 L 13.47 23.93 L 13.68 23.27 L 13.85 22.6 L 13.99 21.92 L 14.1 21.24 L 14.18 20.55 L 14.23 19.86 L 14.25 19.17 L 14.23 18.47 L 14.18 17.78 L 14.1 17.09 L 13.99 16.41 L 13.85 15.73 L 13.68 15.06 L 13.47 14.4 L 13.23 13.75 L 12.97 13.11 L 12.67 12.48 L 12.35 11.87 L 12.0 11.27 L 12.0 11.06 L 12.17 10.81 L 12.33 10.56 L 12.5 10.31 L 12.67 10.06 L 12.83 9.81 L 13.0 9.56 L 13.17 9.31 L 13.33 9.06 L 13.5 8.81 L 13.67 8.56 L 13.83 8.31 L 14.0 8.06 L 14.17 7.81 L 14.33 7.56 L 14.5 7.31 L 14.67 7.06 L 14.83 6.81 L 15.0 6.56 L 15.17 6.31 L 15.33 6.06 L 15.5 5.81 L 15.67 5.56 L 15.83 5.31 L 16.0 5.06" fill="none" stroke="#111" stroke-width="1.45" stroke-linecap="round" stroke-linejoin="round"/>
<path d="M 7.0 11.06 L 7.17 11.06 L 7.33 11.06 L 7.5 11.06 L 7.67 11.06 L 7.83 11.06 L 8.0 11.06 L 8.17 11.06 L 8.33 11.06 L 8.5 11.06 L 8.67 11.06 L 8.83 11.06 L 9.0 11.06 L 9.17 11.06 L 9.33 11.06 L 9.5 11.06 L 9.67 11.06 L 9.83 11.06 L 10.0 11.06 L 10.17 11.06 L 10.33 11.06 L 10.5 11.06 L 10.67 11.06 L 10.83 11.06 L 11.0 11.06" fill="none" stroke="#111" stroke-width="1.45" stroke-linecap="round" stroke-linejoin="round"/>
<path d="M 10.0 7.06 L 10.0 7.15 L 10.0 7.23 L 10.0 7.31 L 10.0 7.4 L 10.0 7.48 L 10.0 7.56 L 10.0 7.65 L 10.0 7.73 L 10.0 7.81 L 10.0 7.9 L 10.0 7.98 L 10.0 8.06 L 10.0 8.15 L 10.0 8.23 L 10.0 8.31 L 10.0 8.4 L 10.0 8.48 L 10.0 8.56 L 10.0 8.65 L 10.0 8.73 L 10.0 8.81 L 10.0 8.9 L 10.0 8.98 L 10.0 9.06" fill="none" stroke="#111" stroke-width="1.45" stroke-linecap="round" stroke-linejoin="round"/>
<path d="M 9.0 15.06 L 9.0 15.15 L 9.0 15.23 L 9.0 15.31 L 9.0 15.4 L 9.0 15.48 L 9.0 15.56 L 9.0 15.65 L 9.0 15.73 L 9.0 15.81 L 9.0 15.9 L 9.0 15.98 L 9.0 16.06 L 9.0 16.15 L 9.0 16.23 L 9.0 16.31 L 9.0 16.4 L 9.0 16.48 L 9.0 16.56 L 9.0 16.65 L 9.0 16.73 L 9.0 16.81 L 9.0 16.9 L 9.0 16.98 L 9.0 17.06" fill="none" stroke="#111" stroke-width="1.45" stroke-linecap="round" stroke-linejoin="round"/>
<path d="M 11.0 15.06 L 11.0 15.15 L 11.0 15.23 L 11.0 15.31 L 11.0 15.4 L 11.0 15.48 L 11.0 15.56 L 11.0 15.65 L 11.0 15.73 L 11.0 15.81 L 11.0 15.9 L 11.0 15.98 L 11.0 16.06 L 11.0 16.15 L 11.0 16.23 L 11.0 16.31 L 11.0 16.4 L 11.0 16.48 L 11.0 16.56 L 11.0 16.65 L 11.0 16.73 L 11.0 16.81 L 11.0 16.9 L 11.0 16.98 L 11.0 17.06" fill="none" stroke="#111" stroke-width="1.45" stroke-linecap="round" stroke-linejoin="round"/>
<path d="M 10.0 19.06 L 10.0 19.23 L 10.0 19.4 L 10.0 19.56 L 10.0 19.73 L 10.0 19.9 L 10.0 20.06 L 10.0 20.23 L 10.0 20.4 L 10.0 20.56 L 10.0 20.73 L 10.0 20.9 L 10.0 21.06 L 10.0 21.23 L 10.0 21.4 L 10.0 21.56 L 10.0 21.73 L 10.0 21.9 L 10.0 22.06 L 10.0 22.23 L 10.0 22.4 L 10.0 22.56 L 10.0 22.73 L 10.0 22.9 L 10.0 23.06" fill="none" stroke="#111" stroke-width="1.45" stroke-linecap="round" stroke-linejoin="round"/>
<path d="M 17.0 5.06 L 17.81 4.55 L 18.7 4.19 L 19.64 4.01 L 20.6 4.0 L 21.55 4.17 L 22.44 4.51 L 23.26 5.01 L 23.97 5.66 L 24.56 6.42 L 24.98 7.28 L 25.25 8.2 L 25.34 9.15 L 25.25 10.11 L 24.98 11.03 L 24.56 11.89 L 23.97 12.65 L 23.26 13.3 L 22.44 13.8 L 21.55 14.14 L 20.6 14.31 L 19.64 14.3 L 18.7 14.12 L 17.81 13.76 L 17.0 13.25 L 17.0 11.06 L 17.0 10.85 L 17.0 10.65 L 17.0 10.44 L 17.0 10.23 L 17.0 10.02 L 17.0 9.81 L 17.0 9.6 L 17.0 9.4 L 17.0 9.19 L 17.0 8.98 L 17.0 8.77 L 17.0 8.56 L 17.0 8.35 L 17.0 8.15 L 17.0 7.94 L 17.0 7.73 L 17.0 7.52 L 17.0 7.31 L 17.0 7.1 L 17.0 6.9 L 17.0 6.69 L 17.0 6.48 L 17.0 6.27 L 17.0 6.06" fill="none" stroke="#111" stroke-width="1.45" stroke-linecap="round" stroke-linejoin="round"/>
<path d="M 17.0 7.06 L 17.33 7.06 L 17.67 7.06 L 18.0 7.06 L 18.33 7.06 L 18.67 7.06 L 19.0 7.06 L 19.33 7.06 L 19.67 7.06 L 20.0 7.06 L 20.33 7.06 L 20.67 7.06 L 21.0 7.06 L 21.33 7.06 L 21.67 7.06 L 22.0 7.06 L 22.33 7.06 L 22.67 7.06 L 23.0 7.06 L 23.33 7.06 L 23.67 7.06 L 24.0 7.06 L 24.33 7.06 L 24.67 7.06 L 25.0 7.06" fill="none" stroke="#111" stroke-width="1.45" stroke-linecap="round" stroke-linejoin="round"/>
<path d="M 21.0 5.06 L 21.06 5.69 L 21.12 6.31 L 21.17 6.94 L 21.23 7.57 L 21.28 8.19 L 21.33 8.82 L 21.38 9.45 L 21.43 10.08 L 21.48 10.7 L 21.53 11.33 L 21.57 11.96 L 21.61 12.59 L 21.65 13.21 L 21.69 13.84 L 21.73 14.47 L 21.77 15.1 L 21.8 15.73 L 21.84 16.35 L 21.87 16.98 L 21.9 17.61 L 21.93 18.24 L 21.95 18.87 L 21.98 19.5 L 22.0 20.13 L 22.0 20.06 L 21.67 20.37 L 21.35 20.68 L 21.02 20.99 L 20.7 21.3 L 20.37 21.61 L 20.05 21.92 L 19.73 22.24 L 19.41 22.55 L 19.09 22.87 L 18.77 23.18 L 18.45 23.5 L 18.13 23.82 L 17.81 24.13 L 17.5 24.45 L 17.18 24.77 L 16.87 25.09 L 16.55 25.41 L 16.24 25.74 L 15.93 26.06 L 15.61 26.38 L 15.3 26.71 L 14.99 27.03 L 14.68 27.36 L 14.38 27.69 L 15.0 27.06 L 15.7 26.72 L 16.43 26.48 L 17.19 26.32 L 17.97 26.26 L 18.74 26.3 L 19.51 26.43 L 20.25 26.66 L 20.96 26.98 L 21.62 27.38 L 22.23 27.86 L 22.77 28.42 L 23.24 29.03 L 23.63 29.71 L 23.94 30.42 L 24.15 31.17 L 24.27 31.94 L 24.29 32.71 L 24.21 33.48 L 24.04 34.24 L 23.78 34.97 L 23.42 35.66 L 22.99 36.31 L 22.48 36.89 L 21.89 37.4" fill="none" stroke="#111" stroke-width="1.45" stroke-linecap="round" stroke-linejoin="round"/>
<path d="M 21.0 12.06 L 20.75 12.49 L 20.51 12.91 L 20.28 13.34 L 20.06 13.78 L 19.84 14.22 L 19.62 14.66 L 19.42 15.1 L 19.22 15.55 L 19.03 16.0 L 18.84 16.45 L 18.66 16.91 L 18.49 17.37 L 18.33 17.83 L 18.17 18.29 L 18.02 18.76 L 17.88 19.23 L 17.75 19.7 L 17.62 20.17 L 17.5 20.65 L 17.39 21.12 L 17.28 21.6 L 17.18 22.08 L 17.09 22.56 L 17.01 23.04" fill="none" stroke="#111" stroke-width="1.45" stroke-linecap="round" stroke-linejoin="round"/>
</svg>
