<?xml version="1.0" encoding="UTF-8"?>
<svg xmlns="http://www.w3.org/2000/svg" viewBox="0 0 26.00 38.00">
<path d="M 8.0 4.0 L 8.0 4.79 L 8.0 5.58 L 8.0 6.38 L 8.0 7.17 L 8.0 7.96 L 8.0 8.75 L 8.0 9.54 L 8.0 10.33 L 8.0 11.12 L 8.0 11.92 L 8.0 12.71 L 8.0 13.5 L 8.0 14.29 L 8.0 15.08 L 8.0 15.88 L 8.0 16.67 L 8.0 17.46 L 8.0 18.25 L 8.0 19.04 L 8.0 19.83 L 8.0 20.62 L 8.0 21.42 L 8.0 22.21 L 8.0 23.0" fill="none" stroke="#111" stroke-width="1.33" stroke-linecap="round" stroke-linejoin="round"/>
<path d="M 8.0 4.0 L 8.17 4.0 L 8.33 4.0 L 8.5 4.0 L 8.67 4.0 L 8.83 4.0 L 9.0 4.0 L 9.17 4.0 L 9.33 4.0 L 9.5 4.0 L 9.67 4.0 L 9.83 4.0 L 10.0 4.0 L 10.17 4.0 L 10.33 4.0 L 10.5 4.0 L 10.67 4.0 L 10.83 4.0 L 11.0 4.0 L 11.17 4.0 L 11.33 4.0 L 11.5 4.0 L 11.67 4.0 L 11.83 4.0 L 12.0 4.0 L 12.0 4.0 L 12.0 4.21 L 12.0 4.42 L 12.0 4.62 L 12.0 4.83 L 12.0 5.04 L 12.0 5.25 L 12.0 5.46 L 12.0 5.67 L 12.0 5.88 L 12.0 6.08 L 12.0 6.29 L 12.0 6.5 L 12.0 6.71 L 12.0 6.92 L 12.0 7.12 L 12.0 7.33 L 12.0 7.54 L 12.0 7.75 L 12.0 7.96 L 12.0 8.17 L 12.0 8.38 L 12.0 8.58 L 12.0 8.79 L 12.0 9.0" fill="none" stroke="#111" stroke-width="1.33" stroke-linecap="round" stroke-linejoin="round"/>
<path d="M 5.0 5.0 L 5.12 5.12 L 5.25 5.25 L 5.38 5.38 L 5.5 5.5 L 5.62 5.62 L 5.75 5.75 L 5.88 5.88 L 6.0 6.0 L 6.12 6.12 L 6.25 6.25 L 6.38 6.38 L 6.5 6.5 L 6.62 6.62 L 6.75 6.75 L 6.88 6.88 L 7.0 7.0 L 7.12 7.12 L 7.25 7.25 L 7.38 7.38 L 7.5 7.5 L 7.62 7.62 L 7.75 7.75 L 7.88 7.88 L 8.0 8.0" fill="none" stroke="#111" stroke-width="1.33" stroke-linecap="round" stroke-linejoin="round"/>
<path d="M 11.0 10.0 L 10.88 10.12 L 10.75 10.25 L 10.62 10.38 L 10.5 10.5 L 10.38 10.62 L 10.25 10.75 L 10.12 10.88 L 10.0 11.0 L 9.88 11.12 L 9.75 11.25 L 9.62 11.38 L 9.5 11.5 L 9.38 11.62 L 9.25 11.75 L 9.12 11.88 L 9.0 12.0 L 8.88 12.12 L 8.75 12.25 L 8.62 12.38 L 8.5 12.5 L 8.38 12.62 L 8.25 12.75 L 8.12 12.88 L 8.0 13.0" fill="none" stroke="#111" stroke-width="1.33" stroke-linecap="round" stroke-linejoin="round"/>
<path d="M 8.0 16.0 L 7.83 16.17 L 7.67 16.33 L 7.5 16.5 L 7.33 16.67 L 7.17 16.83 L 7.0 17.0 L 6.83 17.17 L 6.67 17.33 L 6.5 17.5 L 6.33 17.67 L 6.17 17.83 L 6.0 18.0 L 5.83 18.17 L 5.67 18.33 L 5.5 18.5 L 5.33 18.67 L 5.17 18.83 L 5.0 19.0 L 4.83 19.17 L 4.67 19.33 L 4.5 19.5 L 4.33 19.67 L 4.17 19.83 L 4.0 20.0" fill="none" stroke="#111" stroke-width="1.33" stroke-linecap="round" stroke-linejoin="round"/>
<path d="M 8.0 16.0 L 8.21 16.12 L 8.42 16.25 L 8.62 16.38 L 8.83 16.5 L 9.04 16.62 L 9.25 16.75 L 9.46 16.88 L 9.67 17.0 L 9.88 17.12 L 10.08 17.25 L 10.29 17.38 L 10.5 17.5 L 10.71 17.62 L 10.92 17.75 L 11.12 17.88 L 11.33 18.0 L 11.54 18.12 L 11.75 18.25 L 11.96 18.38 L 12.17 18.5 L 12.38 18.62 L 12.58 18.75 L 12.79 18.88 L 13.0 19.0" fill="none" stroke="#111" stroke-width="1.33" stroke-linecap="round" stroke-linejoin="round"/>
<path d="M 17.0 8.0 L 17.0 8.67 L 17.0 9.33 L 17.0 10.0 L 17.0 10.67 L 17.0 11.33 L 17.0 12.0 L 17.0 12.67 L 17.0 13.33 L 17.0 14.0 L 17.0 14.67 L 17.0 15.33 L 17.0 16.0 L 17.0 16.67 L 17.0 17.33 L 17.0 18.0 L 17.0 18.67 L 17.0 19.33 L 17.0 20.0 L 17.0 20.67 L 17.0 21.33 L 17.0 22.0 L 17.0 22.67 L 17.0 23.33 L 17.0 24.0" fill="none" stroke="#111" stroke-width="1.33" stroke-linecap="round" stroke-linejoin="round"/>
<path d="M 18.0 7.0 L 18.17 7.0 L 18.33 7.0 L 18.5 7.0 L 18.67 7.0 L 18.83 7.0 L 19.0 7.0 L 19.17 7.0 L 19.33 7.0 L 19.5 7.0 L 19.67 7.0 L 19.83 7.0 L 20.0 7.0 L 20.17 7.0 L 20.33 7.0 L 20.5 7.0 L 20.67 7.0 L 20.83 7.0 L 21.0 7.0 L 21.17 7.0 L 21.33 7.0 L 21.5 7.0 L 21.67 7.0 L 21.83 7.0 L 22.0 7.0 L 22.0 7.0 L 22.0 7.17 L 22.0 7.33 L 22.0 7.5 L 22.0 7.67 L 22.0 7.83 L 22.0 8.0 L 22.0 8.17 L 22.0 8.33 L 22.0 8.5 L 22.0 8.67 L 22.0 8.83 L 22.0 9.0 L 22.0 9.17 L 22.0 9.33 L 22.0 9.5 L 22.0 9.67 L 22.0 9.83 L 22.0 10.0 L 22.0 10.17 L 22.0 10.33 L 22.0 10.5 L 22.0 10.67 L 22.0 10.83 L 22.0 11.0" fill="none" stroke="#111" stroke-width="1.33" stroke-linecap="round" stroke-linejoin="round"/>
<path d="M 14.0 7.0 L 14.12 7.17 L 14.25 7.33 L 14.38 7.5 L 14.5 7.67 L 14.62 7.83 L 14.75 8.0 L 14.88 8.17 L 15.0 8.33 L 15.12 8.5 L 15.25 8.67 L 15.38 8.83 L 15.5 9.0 L 15.62 9.17 L 15.75 9.33 L 15.88 9.5 L 16.0 9.67 L 16.12 9.83 L 16.25 10.0 L 16.38 10.17 L 16.5 10.33 L 16.62 10.5 L 16.75 10.67 L 16.88 10.83 L 17.0 11.0" fill="none" stroke="#111" stroke-width="1.33" stroke-linecap="round" stroke-linejoin="round"/>
<path d="M 20.0 13.0 L 19.88 13.17 L 19.75 13.33 L 19.62 13.5 L 19.5 13.67 L 19.38 13.83 L 19.25 14.0 L 19.12 14.17 L 19.0 14.33 L 18.88 14.5 L 18.75 14.67 L 18.62 14.83 L 18.5 15.0 L 18.38 15.17 L 18.25 15.33 L 18.12 15.5 L 18.0 15.67 L 17.88 15.83 L 17.75 16.0 L 17.62 16.17 L 17.5 16.33 L 17.38 16.5 L 17.25 16.67 L 17.12 16.83 L 17.0 17.0" fill="none" stroke="#111" stroke-width="1.33" stroke-linecap="round" stroke-linejoin="round"/>
<path d="M 17.0 17.0 L 16.83 17.21 L 16.67 17.42 L 16.5 17.62 L 16.33 17.83 L 16.17 18.04 L 16.0 18.25 L 15.83 18.46 L 15.67 18.67 L 15.5 18.88 L 15.33 19.08 L 15.17 19.29 L 15.0 19.5 L 14.83 19.71 L 14.67 19.92 L 14.5 20.12 L 14.33 20.33 L 14.17 20.54 L 14.0 20.75 L 13.83 20.96 L 13.67 21.17 L 13.5 21.38 L 13.33 21.58 L 13.17 21.79 L 13.0 22.0" fill="none" stroke="#111" stroke-width="1.33" stroke-linecap="round" stroke-linejoin="round"/>
<path d="M 18.0 19.0 L 18.17 19.12 L 18.33 19.25 L 18.5 19.38 L 18.67 19.5 L 18.83 19.62 L 19.0 19.75 L 19.17 19.88 L 19.33 20.0 L 19.5 20.12 L 19.67 20.25 L 19.83 20.38 L 20.0 20.5 L 20.17 20.62 L 20.33 20.75 L 20.5 20.88 L 20.67 21.0 L 20.83 21.12 L 21.0 21.25 L 21.17 21.38 L 21.33 21.5 L 21.5 21.62 L 21.67 21.75 L 21.83 21.88 L 22.0 22.0" fill="none" stroke="#111" stroke-width="1.33" stroke-linecap="round" stroke-linejoin="round"/>
<path d="M 12.0 25.0 L 12.0 25.38 L 12.0 25.75 L 12.0 26.12 L 12.0 26.5 L 12.0 26.88 L 12.0 27.25 L 12.0 27.62 L 12.0 28.0 L 12.0 28.38 L 12.0 28.75 L 12.0 29.12 L 12.0 29.5 L 12.0 29.88 L 12.0 30.25 L 12.0 30.62 L 12.0 31.0 L 12.0 31.38 L 12.0 31.75 L 12.0 32.12 L 12.0 32.5 L 12.0 32.88 L 12.0 33.25 L 12.0 33.62 L 12.0 34.0" fill="none" stroke="#111" stroke-width="1.33" stroke-linecap="round" stroke-linejoin="round"/>
<path d="M 10.0 25.0 L 10.0 25.17 L 10.0 25.33 L 10.0 25.5 L 10.0 25.67 L 10.0 25.83 L 10.0 26.0 L 10.0 26.17 L 10.0 26.33 L 10.0 26.5 L 10.0 26.67 L 10.0 26.83 L 10.0 27.0 L 10.0 27.17 L 10.0 27.33 L 10.0 27.5 L 10.0 27.67 L 10.0 27.83 L 10.0 28.0 L 10.0 28.17 L 10.0 28.33 L 10.0 28.5 L 10.0 28.67 L 10.0 28.83 L 10.0 29.0 L 10.0 29.0 L 10.17 29.0 L 10.33 29.0 L 10.5 29.0 L 10.67 29.0 L 10.83 29.0 L 11.0 29.0 L 11.17 29.0 L 11.33 29.0 L 11.5 29.0 L 11.67 29.0 L 11.83 29.0 L 12.0 29.0 L 12.17 29.0 L 12.33 29.0 L 12.5 29.0 L 12.67 29.0 L 12.83 29.0 L 13.0 29.0 L 13.17 29.0 L 13.33 29.0 L 13.5 29.0 L 13.67 29.0 L 13.83 29.0 L 14.0 29.0" fill="none" stroke="#111" stroke-width="1.33" stroke-linecap="round" stroke-linejoin="round"/>
<path d="M 14.0 26.0 L 14.0 26.33 L 14.0 26.67 L 14.0 27.0 L 14.0 27.33 L 14.0 27.67 L 14.0 28.0 L 14.0 28.33 L 14.0 28.67 L 14.0 29.0 L 14.0 29.33 L 14.0 29.67 L 14.0 30.0 L 14.0 30.33 L 14.0 30.67 L 14.0 31.0 L 14.0 31.33 L 14.0 31.67 L 14.0 32.0 L 14.0 32.33 L 14.0 32.67 L 14.0 33.0 L 14.0 33.33 L 14.0 33.67 L 14.0 34.0" fill="none" stroke="#111" stroke-width="1.33" stroke-linecap="round" stroke-linejoin="round"/>
<path d="M 12.0 34.0 L 12.08 34.0 L 12.17 34.0 L 12.25 34.0 L 12.33 34.0 L 12.42 34.0 L 12.5 34.0 L 12.58 34.0 L 12.67 34.0 L 12.75 34.0 L 12.83 34.0 L 12.92 34.0 L 13.0 34.0 L 13.08 34.0 L 13.17 34.0 L 13.25 34.0 L 13.33 34.0 L 13.42 34.0 L 13.5 34.0 L 13.58 34.0 L 13.67 34.0 L 13.75 34.0 L 13.83 34.0 L 13.92 34.0 L 14.0 34.0" fill="none" stroke="#111" stroke-width="1.33" stroke-linecap="round" stroke-linejoin="round"/>
</svg>
