<?xml version="1.0" encoding="UTF-8"?>
<svg xmlns="http://www.w3.org/2000/svg" viewBox="0 0 27.52 30.08">
<path d="M 11.56 5.0 L 11.6 5.71 L 11.65 6.42 L 11.69 7.12 L 11.73 7.83 L 11.77 8.54 L 11.81 9.25 L 11.85 9.96 L 11.9 10.67 L 11.94 11.38 L 11.98 12.08 L 12.02 12.79 L 12.06 13.5 L 12.1 14.21 L 12.15 14.92 L 12.19 15.62 L 12.23 16.33 L 12.27 17.04 L 12.31 17.75 L 12.35 18.46 L 12.4 19.17 L 12.44 19.88 L 12.48 20.58 L 12.52 21.29 L 12.56 22.0" fill="none" stroke="#111" stroke-width="1.05" stroke-linecap="round" stroke-linejoin="round"/>
<path d="M 15.56 5.0 L 15.44 5.71 L 15.31 6.42 L 15.19 7.12 L 15.06 7.83 L 14.94 8.54 L 14.81 9.25 L 14.69 9.96 L 14.56 10.67 L 14.44 11.38 L 14.31 12.08 L 14.19 12.79 L 14.06 13.5 L 13.94 14.21 L 13.81 14.92 L 13.69 15.62 L 13.56 16.33 L 13.44 17.04 L 13.31 17.75 L 13.19 18.46 L 13.06 19.17 L 12.94 19.88 L 12.81 20.58 L 12.69 21.29 L 12.56 22.0" fill="none" stroke="#111" stroke-width="1.05" stroke-linecap="round" stroke-linejoin="round"/>
<path d="M 6.56 4.0 L 6.64 4.47 L 6.74 4.93 L 6.88 5.38 L 7.04 5.82 L 7.22 6.26 L 7.43 6.68 L 7.67 7.09 L 7.93 7.48 L 8.21 7.86 L 8.52 8.22 L 8.84 8.56 L 9.19 8.89 L 9.55 9.19 L 9.94 9.46 L 10.33 9.72 L 10.75 9.95 L 11.17 10.15 L 11.61 10.33 L 12.05 10.49 L 12.51 10.61 L 12.97 10.71 L 13.44 10.78 L 13.91 10.83 L 14.38 10.84" fill="none" stroke="#111" stroke-width="1.05" stroke-linecap="round" stroke-linejoin="round"/>
<path d="M 5.56 11.0 L 4.75 12.54 L 4.22 14.21 L 4.0 15.94 L 4.09 17.68 L 4.49 19.38 L 5.18 20.98 L 6.15 22.43 L 7.36 23.69 L 8.77 24.71 L 10.34 25.46 L 12.02 25.92 L 13.76 26.08 L 15.5 25.92 L 17.18 25.46 L 18.75 24.71 L 20.17 23.69 L 21.38 22.43 L 22.34 20.98 L 23.04 19.38 L 23.43 17.68 L 23.52 15.94 L 23.3 14.21 L 22.77 12.54 L 21.96 11.0 L 19.56 11.0 L 19.56 11.0 L 19.56 11.0 L 19.56 11.0 L 19.56 11.0 L 19.56 11.0 L 19.56 11.0 L 19.56 11.0 L 19.56 11.0 L 19.56 11.0 L 19.56 11.0 L 19.56 11.0 L 19.56 11.0 L 19.56 11.0 L 19.56 11.0 L 19.56 11.0 L 19.56 11.0 L 19.56 11.0 L 19.56 11.0 L 19.56 11.0 L 19.56 11.0 L 19.56 11.0 L 19.56 11.0 L 19.56 11.0 L 19.56 11.0" fill="none" stroke="#111" stroke-width="1.05" stroke-linecap="round" stroke-linejoin="round"/>
</svg>
