<?xml version="1.0" encoding="UTF-8"?>
<svg xmlns="http://www.w3.org/2000/svg" viewBox="0 0 26.00 39.72">
<path d="M 13.0 4.0 L 13.97 5.06 L 14.87 6.17 L 15.71 7.33 L 16.49 8.54 L 17.19 9.79 L 17.83 11.07 L 18.39 12.39 L 18.87 13.74 L 19.28 15.12 L 19.61 16.51 L 19.86 17.93 L 20.03 19.35 L 20.12 20.78 L 20.13 22.22 L 20.05 23.65 L 19.9 25.07 L 19.67 26.49 L 19.36 27.89 L 18.96 29.27 L 18.5 30.62 L 17.95 31.95 L 17.33 33.24 L 16.64 34.5 L 15.88 35.72" fill="none" stroke="#111" stroke-width="1.39" stroke-linecap="round" stroke-linejoin="round"/>
<path d="M 12.0 9.0 L 12.21 9.21 L 12.42 9.42 L 12.62 9.62 L 12.83 9.83 L 13.04 10.04 L 13.25 10.25 L 13.46 10.46 L 13.67 10.67 L 13.88 10.88 L 14.08 11.08 L 14.29 11.29 L 14.5 11.5 L 14.71 11.71 L 14.92 11.92 L 15.12 12.12 L 15.33 12.33 L 15.54 12.54 L 15.75 12.75 L 15.96 12.96 L 16.17 13.17 L 16.38 13.38 L 16.58 13.58 L 16.79 13.79 L 17.0 14.0" fill="none" stroke="#111" stroke-width="1.39" stroke-linecap="round" stroke-linejoin="round"/>
<path d="M 12.0 14.0 L 12.21 14.21 L 12.42 14.42 L 12.62 14.62 L 12.83 14.83 L 13.04 15.04 L 13.25 15.25 L 13.46 15.46 L 13.67 15.67 L 13.88 15.88 L 14.08 16.08 L 14.29 16.29 L 14.5 16.5 L 14.71 16.71 L 14.92 16.92 L 15.12 17.12 L 15.33 17.33 L 15.54 17.54 L 15.75 17.75 L 15.96 17.96 L 16.17 18.17 L 16.38 18.38 L 16.58 18.58 L 16.79 18.79 L 17.0 19.0" fill="none" stroke="#111" stroke-width="1.39" stroke-linecap="round" stroke-linejoin="round"/>
<path d="M 11.0 18.0 L 11.0 18.33 L 11.0 18.67 L 11.0 19.0 L 11.0 19.33 L 11.0 19.67 L 11.0 20.0 L 11.0 20.33 L 11.0 20.67 L 11.0 21.0 L 11.0 21.33 L 11.0 21.67 L 11.0 22.0 L 11.0 22.33 L 11.0 22.67 L 11.0 23.0 L 11.0 23.33 L 11.0 23.67 L 11.0 24.0 L 11.0 24.33 L 11.0 24.67 L 11.0 25.0 L 11.0 25.33 L 11.0 25.67 L 11.0 26.0" fill="none" stroke="#111" stroke-width="1.39" stroke-linecap="round" stroke-linejoin="round"/>
<path d="M 11.0 22.0 L 11.42 22.0 L 11.83 22.0 L 12.25 22.0 L 12.67 22.0 L 13.08 22.0 L 13.5 22.0 L 13.92 22.0 L 14.33 22.0 L 14.75 22.0 L 15.17 22.0 L 15.58 22.0 L 16.0 22.0 L 16.42 22.0 L 16.83 22.0 L 17.25 22.0 L 17.67 22.0 L 18.08 22.0 L 18.5 22.0 L 18.92 22.0 L 19.33 22.0 L 19.75 22.0 L 20.17 22.0 L 20.58 22.0 L 21.0 22.0" fill="none" stroke="#111" stroke-width="1.39" stroke-linecap="round" stroke-linejoin="round"/>
<path d="M 21.0 18.0 L 21.0 18.33 L 21.0 18.67 L 21.0 19.0 L 21.0 19.33 L 21.0 19.67 L 21.0 20.0 L 21.0 20.33 L 21.0 20.67 L 21.0 21.0 L 21.0 21.33 L 21.0 21.67 L 21.0 22.0 L 21.0 22.33 L 21.0 22.67 L 21.0 23.0 L 21.0 23.33 L 21.0 23.67 L 21.0 24.0 L 21.0 24.33 L 21.0 24.67 L 21.0 25.0 L 21.0 25.33 L 21.0 25.67 L 21.0 26.0" fill="none" stroke="#111" stroke-width="1.39" stroke-linecap="round" stroke-linejoin="round"/>
<path d="M 16.0 26.0 L 15.79 26.25 L 15.58 26.5 L 15.38 26.75 L 15.17 27.0 L 14.96 27.25 L 14.75 27.5 L 14.54 27.75 L 14.33 28.0 L 14.12 28.25 L 13.92 28.5 L 13.71 28.75 L 13.5 29.0 L 13.29 29.25 L 13.08 29.5 L 12.88 29.75 L 12.67 30.0 L 12.46 30.25 L 12.25 30.5 L 12.04 30.75 L 11.83 31.0 L 11.62 31.25 L 11.42 31.5 L 11.21 31.75 L 11.0 32.0" fill="none" stroke="#111" stroke-width="1.39" stroke-linecap="round" stroke-linejoin="round"/>
<path d="M 17.0 26.0 L 17.21 26.25 L 17.42 26.5 L 17.62 26.75 L 17.83 27.0 L 18.04 27.25 L 18.25 27.5 L 18.46 27.75 L 18.67 28.0 L 18.88 28.25 L 19.08 28.5 L 19.29 28.75 L 19.5 29.0 L 19.71 29.25 L 19.92 29.5 L 20.12 29.75 L 20.33 30.0 L 20.54 30.25 L 20.75 30.5 L 20.96 30.75 L 21.17 31.0 L 21.38 31.25 L 21.58 31.5 L 21.79 31.75 L 22.0 32.0" fill="none" stroke="#111" stroke-width="1.39" stroke-linecap="round" stroke-linejoin="round"/>
<path d="M 7.0 5.0 L 6.88 5.71 L 6.75 6.42 L 6.62 7.12 L 6.5 7.83 L 6.38 8.54 L 6.25 9.25 L 6.12 9.96 L 6.0 10.67 L 5.88 11.38 L 5.75 12.08 L 5.62 12.79 L 5.5 13.5 L 5.38 14.21 L 5.25 14.92 L 5.12 15.62 L 5.0 16.33 L 4.88 17.04 L 4.75 17.75 L 4.62 18.46 L 4.5 19.17 L 4.38 19.88 L 4.25 20.58 L 4.12 21.29 L 4.0 22.0" fill="none" stroke="#111" stroke-width="1.39" stroke-linecap="round" stroke-linejoin="round"/>
<path d="M 7.0 6.0 L 7.21 6.08 L 7.42 6.17 L 7.62 6.25 L 7.83 6.33 L 8.04 6.42 L 8.25 6.5 L 8.46 6.58 L 8.67 6.67 L 8.88 6.75 L 9.08 6.83 L 9.29 6.92 L 9.5 7.0 L 9.71 7.08 L 9.92 7.17 L 10.12 7.25 L 10.33 7.33 L 10.54 7.42 L 10.75 7.5 L 10.96 7.58 L 11.17 7.67 L 11.38 7.75 L 11.58 7.83 L 11.79 7.92 L 12.0 8.0" fill="none" stroke="#111" stroke-width="1.39" stroke-linecap="round" stroke-linejoin="round"/>
<path d="M 12.0 8.0 L 11.75 8.12 L 11.5 8.25 L 11.25 8.38 L 11.0 8.5 L 10.75 8.62 L 10.5 8.75 L 10.25 8.88 L 10.0 9.0 L 9.75 9.12 L 9.5 9.25 L 9.25 9.38 L 9.0 9.5 L 8.75 9.62 L 8.5 9.75 L 8.25 9.88 L 8.0 10.0 L 7.75 10.12 L 7.5 10.25 L 7.25 10.38 L 7.0 10.5 L 6.75 10.62 L 6.5 10.75 L 6.25 10.88 L 6.0 11.0" fill="none" stroke="#111" stroke-width="1.39" stroke-linecap="round" stroke-linejoin="round"/>
<path d="M 5.0 13.0 L 5.21 13.08 L 5.42 13.17 L 5.62 13.25 L 5.83 13.33 L 6.04 13.42 L 6.25 13.5 L 6.46 13.58 L 6.67 13.67 L 6.88 13.75 L 7.08 13.83 L 7.29 13.92 L 7.5 14.0 L 7.71 14.08 L 7.92 14.17 L 8.12 14.25 L 8.33 14.33 L 8.54 14.42 L 8.75 14.5 L 8.96 14.58 L 9.17 14.67 L 9.38 14.75 L 9.58 14.83 L 9.79 14.92 L 10.0 15.0" fill="none" stroke="#111" stroke-width="1.39" stroke-linecap="round" stroke-linejoin="round"/>
<path d="M 10.0 15.0 L 9.75 15.29 L 9.5 15.58 L 9.25 15.88 L 9.0 16.17 L 8.75 16.46 L 8.5 16.75 L 8.25 17.04 L 8.0 17.33 L 7.75 17.62 L 7.5 17.92 L 7.25 18.21 L 7.0 18.5 L 6.75 18.79 L 6.5 19.08 L 6.25 19.38 L 6.0 19.67 L 5.75 19.96 L 5.5 20.25 L 5.25 20.54 L 5.0 20.83 L 4.75 21.12 L 4.5 21.42 L 4.25 21.71 L 4.0 22.0" fill="none" stroke="#111" stroke-width="1.39" stroke-linecap="round" stroke-linejoin="round"/>
</svg>
