<?xml version="1.0" encoding="UTF-8"?>
<svg xmlns="http://www.w3.org/2000/svg" viewBox="0 0 22.07 39.78">
<path d="M 11.0 5.0 L 12.0 5.77 L 12.93 6.63 L 13.78 7.57 L 14.54 8.58 L 15.21 9.65 L 15.78 10.78 L 16.24 11.96 L 16.6 13.17 L 16.84 14.41 L 16.98 15.67 L 17.0 16.94 L 16.9 18.2 L 16.69 19.45 L 16.38 20.67 L 15.95 21.86 L 15.42 23.01 L 14.78 24.1 L 14.05 25.14 L 13.24 26.1 L 12.33 26.99 L 11.35 27.79 L 10.31 28.5 L 9.2 29.11 L 8.04 29.63" fill="none" stroke="#111" stroke-width="1.39" stroke-linecap="round" stroke-linejoin="round"/>
<path d="M 9.0 14.0 L 9.78 14.66 L 10.54 15.35 L 11.26 16.07 L 11.95 16.83 L 12.61 17.61 L 13.24 18.41 L 13.84 19.25 L 14.39 20.11 L 14.92 20.99 L 15.4 21.89 L 15.85 22.81 L 16.25 23.75 L 16.62 24.7 L 16.95 25.67 L 17.23 26.65 L 17.48 27.65 L 17.68 28.65 L 17.84 29.66 L 17.96 30.67 L 18.04 31.7 L 18.07 32.72 L 18.06 33.74 L 18.01 34.76 L 17.91 35.78" fill="none" stroke="#111" stroke-width="1.39" stroke-linecap="round" stroke-linejoin="round"/>
<path d="M 8.0 4.0 L 8.0 4.33 L 8.0 4.67 L 8.0 5.0 L 8.0 5.33 L 8.0 5.67 L 8.0 6.0 L 8.0 6.33 L 8.0 6.67 L 8.0 7.0 L 8.0 7.33 L 8.0 7.67 L 8.0 8.0 L 8.0 8.33 L 8.0 8.67 L 8.0 9.0 L 8.0 9.33 L 8.0 9.67 L 8.0 10.0 L 8.0 10.33 L 8.0 10.67 L 8.0 11.0 L 8.0 11.33 L 8.0 11.67 L 8.0 12.0" fill="none" stroke="#111" stroke-width="1.39" stroke-linecap="round" stroke-linejoin="round"/>
<path d="M 5.0 7.0 L 5.12 7.21 L 5.25 7.42 L 5.38 7.62 L 5.5 7.83 L 5.62 8.04 L 5.75 8.25 L 5.88 8.46 L 6.0 8.67 L 6.12 8.88 L 6.25 9.08 L 6.38 9.29 L 6.5 9.5 L 6.62 9.71 L 6.75 9.92 L 6.88 10.12 L 7.0 10.33 L 7.12 10.54 L 7.25 10.75 L 7.38 10.96 L 7.5 11.17 L 7.62 11.38 L 7.75 11.58 L 7.88 11.79 L 8.0 12.0" fill="none" stroke="#111" stroke-width="1.39" stroke-linecap="round" stroke-linejoin="round"/>
<path d="M 12.0 7.0 L 11.83 7.21 L 11.67 7.42 L 11.5 7.62 L 11.33 7.83 L 11.17 8.04 L 11.0 8.25 L 10.83 8.46 L 10.67 8.67 L 10.5 8.88 L 10.33 9.08 L 10.17 9.29 L 10.0 9.5 L 9.83 9.71 L 9.67 9.92 L 9.5 10.12 L 9.33 10.33 L 9.17 10.54 L 9.0 10.75 L 8.83 10.96 L 8.67 11.17 L 8.5 11.38 L 8.33 11.58 L 8.17 11.79 L 8.0 12.0" fill="none" stroke="#111" stroke-width="1.39" stroke-linecap="round" stroke-linejoin="round"/>
<path d="M 7.0 16.0 L 7.04 16.46 L 7.08 16.92 L 7.12 17.38 L 7.17 17.83 L 7.21 18.29 L 7.25 18.75 L 7.29 19.21 L 7.33 19.67 L 7.38 20.12 L 7.42 20.58 L 7.46 21.04 L 7.5 21.5 L 7.54 21.96 L 7.58 22.42 L 7.63 22.88 L 7.67 23.33 L 7.71 23.79 L 7.75 24.25 L 7.79 24.71 L 7.83 25.17 L 7.88 25.62 L 7.92 26.08 L 7.96 26.54 L 8.0 27.0" fill="none" stroke="#111" stroke-width="1.39" stroke-linecap="round" stroke-linejoin="round"/>
<path d="M 4.0 19.0 L 4.17 19.17 L 4.33 19.33 L 4.5 19.5 L 4.67 19.67 L 4.83 19.83 L 5.0 20.0 L 5.17 20.17 L 5.33 20.33 L 5.5 20.5 L 5.67 20.67 L 5.83 20.83 L 6.0 21.0 L 6.17 21.17 L 6.33 21.33 L 6.5 21.5 L 6.67 21.67 L 6.83 21.83 L 7.0 22.0 L 7.17 22.17 L 7.33 22.33 L 7.5 22.5 L 7.67 22.67 L 7.83 22.83 L 8.0 23.0" fill="none" stroke="#111" stroke-width="1.39" stroke-linecap="round" stroke-linejoin="round"/>
<path d="M 10.0 18.0 L 9.92 18.21 L 9.83 18.42 L 9.75 18.62 L 9.67 18.83 L 9.58 19.04 L 9.5 19.25 L 9.42 19.46 L 9.33 19.67 L 9.25 19.88 L 9.17 20.08 L 9.08 20.29 L 9.0 20.5 L 8.92 20.71 L 8.83 20.92 L 8.75 21.12 L 8.67 21.33 L 8.58 21.54 L 8.5 21.75 L 8.42 21.96 L 8.33 22.17 L 8.25 22.38 L 8.17 22.58 L 8.08 22.79 L 8.0 23.0" fill="none" stroke="#111" stroke-width="1.39" stroke-linecap="round" stroke-linejoin="round"/>
</svg>
