<?xml version="1.0" encoding="UTF-8"?>
<svg xmlns="http://www.w3.org/2000/svg" viewBox="0 0 21.00 35.00">
<path d="M 8.0 16.0 L 8.04 16.12 L 8.08 16.25 L 8.12 16.38 L 8.17 16.5 L 8.21 16.62 L 8.25 16.75 L 8.29 16.88 L 8.33 17.0 L 8.38 17.12 L 8.42 17.25 L 8.46 17.38 L 8.5 17.5 L 8.54 17.62 L 8.58 17.75 L 8.62 17.88 L 8.67 18.0 L 8.71 18.12 L 8.75 18.25 L 8.79 18.38 L 8.83 18.5 L 8.88 18.62 L 8.92 18.75 L 8.96 18.88 L 9.0 19.0" fill="none" stroke="#111" stroke-width="1.23" stroke-linecap="round" stroke-linejoin="round"/>
<path d="M 9.0 19.0 L 9.21 18.96 L 9.42 18.92 L 9.62 18.88 L 9.83 18.83 L 10.04 18.79 L 10.25 18.75 L 10.46 18.71 L 10.67 18.67 L 10.88 18.62 L 11.08 18.58 L 11.29 18.54 L 11.5 18.5 L 11.71 18.46 L 11.92 18.42 L 12.12 18.38 L 12.33 18.33 L 12.54 18.29 L 12.75 18.25 L 12.96 18.21 L 13.17 18.17 L 13.38 18.12 L 13.58 18.08 L 13.79 18.04 L 14.0 18.0" fill="none" stroke="#111" stroke-width="1.23" stroke-linecap="round" stroke-linejoin="round"/>
<path d="M 8.0 16.0 L 8.29 15.96 L 8.58 15.92 L 8.88 15.88 L 9.17 15.83 L 9.46 15.79 L 9.75 15.75 L 10.04 15.71 L 10.33 15.67 L 10.62 15.62 L 10.92 15.58 L 11.21 15.54 L 11.5 15.5 L 11.79 15.46 L 12.08 15.42 L 12.38 15.38 L 12.67 15.33 L 12.96 15.29 L 13.25 15.25 L 13.54 15.21 L 13.83 15.17 L 14.12 15.12 L 14.42 15.08 L 14.71 15.04 L 15.0 15.0" fill="none" stroke="#111" stroke-width="1.23" stroke-linecap="round" stroke-linejoin="round"/>
<path d="M 15.0 15.0 L 14.96 15.12 L 14.92 15.25 L 14.88 15.38 L 14.83 15.5 L 14.79 15.62 L 14.75 15.75 L 14.71 15.88 L 14.67 16.0 L 14.62 16.12 L 14.58 16.25 L 14.54 16.38 L 14.5 16.5 L 14.46 16.62 L 14.42 16.75 L 14.38 16.88 L 14.33 17.0 L 14.29 17.12 L 14.25 17.25 L 14.21 17.38 L 14.17 17.5 L 14.12 17.62 L 14.08 17.75 L 14.04 17.88 L 14.0 18.0" fill="none" stroke="#111" stroke-width="1.23" stroke-linecap="round" stroke-linejoin="round"/>
<path d="M 7.0 5.0 L 7.04 5.38 L 7.08 5.75 L 7.12 6.12 L 7.17 6.5 L 7.21 6.88 L 7.25 7.25 L 7.29 7.62 L 7.33 8.0 L 7.38 8.38 L 7.42 8.75 L 7.46 9.12 L 7.5 9.5 L 7.54 9.88 L 7.58 10.25 L 7.62 10.62 L 7.67 11.0 L 7.71 11.38 L 7.75 11.75 L 7.79 12.12 L 7.83 12.5 L 7.88 12.88 L 7.92 13.25 L 7.96 13.63 L 8.0 14.0" fill="none" stroke="#111" stroke-width="1.23" stroke-linecap="round" stroke-linejoin="round"/>
<path d="M 5.0 5.0 L 5.08 5.12 L 5.17 5.25 L 5.25 5.38 L 5.33 5.5 L 5.42 5.62 L 5.5 5.75 L 5.58 5.88 L 5.67 6.0 L 5.75 6.12 L 5.83 6.25 L 5.92 6.38 L 6.0 6.5 L 6.08 6.62 L 6.17 6.75 L 6.25 6.88 L 6.33 7.0 L 6.42 7.12 L 6.5 7.25 L 6.58 7.38 L 6.67 7.5 L 6.75 7.62 L 6.83 7.75 L 6.92 7.88 L 7.0 8.0" fill="none" stroke="#111" stroke-width="1.23" stroke-linecap="round" stroke-linejoin="round"/>
<path d="M 10.0 5.0 L 9.88 5.12 L 9.75 5.25 L 9.62 5.38 L 9.5 5.5 L 9.38 5.62 L 9.25 5.75 L 9.12 5.88 L 9.0 6.0 L 8.88 6.12 L 8.75 6.25 L 8.62 6.38 L 8.5 6.5 L 8.38 6.62 L 8.25 6.75 L 8.12 6.88 L 8.0 7.0 L 7.88 7.12 L 7.75 7.25 L 7.62 7.38 L 7.5 7.5 L 7.38 7.62 L 7.25 7.75 L 7.12 7.88 L 7.0 8.0" fill="none" stroke="#111" stroke-width="1.23" stroke-linecap="round" stroke-linejoin="round"/>
<path d="M 7.0 8.0 L 6.88 8.29 L 6.75 8.58 L 6.62 8.88 L 6.5 9.17 L 6.38 9.46 L 6.25 9.75 L 6.12 10.04 L 6.0 10.33 L 5.88 10.62 L 5.75 10.92 L 5.62 11.21 L 5.5 11.5 L 5.38 11.79 L 5.25 12.08 L 5.12 12.38 L 5.0 12.67 L 4.88 12.96 L 4.75 13.25 L 4.63 13.54 L 4.5 13.83 L 4.38 14.12 L 4.25 14.42 L 4.12 14.71 L 4.0 15.0" fill="none" stroke="#111" stroke-width="1.23" stroke-linecap="round" stroke-linejoin="round"/>
<path d="M 7.0 8.0 L 7.08 8.21 L 7.17 8.42 L 7.25 8.62 L 7.33 8.83 L 7.42 9.04 L 7.5 9.25 L 7.58 9.46 L 7.67 9.67 L 7.75 9.88 L 7.83 10.08 L 7.92 10.29 L 8.0 10.5 L 8.08 10.71 L 8.17 10.92 L 8.25 11.12 L 8.33 11.33 L 8.42 11.54 L 8.5 11.75 L 8.58 11.96 L 8.67 12.17 L 8.75 12.38 L 8.83 12.58 L 8.92 12.79 L 9.0 13.0" fill="none" stroke="#111" stroke-width="1.23" stroke-linecap="round" stroke-linejoin="round"/>
<path d="M 14.0 4.0 L 14.04 4.38 L 14.08 4.75 L 14.12 5.12 L 14.17 5.5 L 14.21 5.88 L 14.25 6.25 L 14.29 6.62 L 14.33 7.0 L 14.38 7.38 L 14.42 7.75 L 14.46 8.12 L 14.5 8.5 L 14.54 8.88 L 14.58 9.25 L 14.62 9.62 L 14.67 10.0 L 14.71 10.38 L 14.75 10.75 L 14.79 11.12 L 14.83 11.5 L 14.88 11.88 L 14.92 12.25 L 14.96 12.63 L 15.0 13.0" fill="none" stroke="#111" stroke-width="1.23" stroke-linecap="round" stroke-linejoin="round"/>
<path d="M 12.0 5.0 L 12.08 5.12 L 12.17 5.25 L 12.25 5.38 L 12.33 5.5 L 12.42 5.62 L 12.5 5.75 L 12.58 5.88 L 12.67 6.0 L 12.75 6.12 L 12.83 6.25 L 12.92 6.38 L 13.0 6.5 L 13.08 6.62 L 13.17 6.75 L 13.25 6.88 L 13.33 7.0 L 13.42 7.12 L 13.5 7.25 L 13.58 7.38 L 13.67 7.5 L 13.75 7.62 L 13.83 7.75 L 13.92 7.88 L 14.0 8.0" fill="none" stroke="#111" stroke-width="1.23" stroke-linecap="round" stroke-linejoin="round"/>
<path d="M 17.0 4.0 L 16.88 4.17 L 16.75 4.33 L 16.62 4.5 L 16.5 4.67 L 16.38 4.83 L 16.25 5.0 L 16.12 5.17 L 16.0 5.33 L 15.88 5.5 L 15.75 5.67 L 15.62 5.83 L 15.5 6.0 L 15.38 6.17 L 15.25 6.33 L 15.12 6.5 L 15.0 6.67 L 14.88 6.83 L 14.75 7.0 L 14.62 7.17 L 14.5 7.33 L 14.38 7.5 L 14.25 7.67 L 14.12 7.83 L 14.0 8.0" fill="none" stroke="#111" stroke-width="1.23" stroke-linecap="round" stroke-linejoin="round"/>
<path d="M 14.0 8.0 L 13.92 8.21 L 13.83 8.42 L 13.75 8.62 L 13.67 8.83 L 13.58 9.04 L 13.5 9.25 L 13.42 9.46 L 13.33 9.67 L 13.25 9.88 L 13.17 10.08 L 13.08 10.29 L 13.0 10.5 L 12.92 10.71 L 12.83 10.92 L 12.75 11.12 L 12.67 11.33 L 12.58 11.54 L 12.5 11.75 L 12.42 11.96 L 12.33 12.17 L 12.25 12.38 L 12.17 12.58 L 12.08 12.79 L 12.0 13.0" fill="none" stroke="#111" stroke-width="1.23" stroke-linecap="round" stroke-linejoin="round"/>
<path d="M 14.0 8.0 L 14.12 8.21 L 14.25 8.42 L 14.38 8.62 L 14.5 8.83 L 14.62 9.04 L 14.75 9.25 L 14.88 9.46 L 15.0 9.67 L 15.12 9.88 L 15.25 10.08 L 15.38 10.29 L 15.5 10.5 L 15.62 10.71 L 15.75 10.92 L 15.88 11.12 L 16.0 11.33 L 16.12 11.54 L 16.25 11.75 L 16.38 11.96 L 16.5 12.17 L 16.62 12.38 L 16.75 12.58 L 16.88 12.79 L 17.0 13.0" fill="none" stroke="#111" stroke-width="1.23" stroke-linecap="round" stroke-linejoin="round"/>
<path d="M 9.0 23.0 L 9.12 23.33 L 9.25 23.67 L 9.38 24.0 L 9.5 24.33 L 9.62 24.67 L 9.75 25.0 L 9.88 25.33 L 10.0 25.67 L 10.12 26.0 L 10.25 26.33 L 10.38 26.67 L 10.5 27.0 L 10.62 27.33 L 10.75 27.67 L 10.88 28.0 L 11.0 28.33 L 11.12 28.67 L 11.25 29.0 L 11.38 29.33 L 11.5 29.67 L 11.62 30.0 L 11.75 30.33 L 11.88 30.67 L 12.0 31.0" fill="none" stroke="#111" stroke-width="1.23" stroke-linecap="round" stroke-linejoin="round"/>
<path d="M 12.0 22.0 L 12.0 22.33 L 12.0 22.67 L 12.0 23.0 L 12.0 23.33 L 12.0 23.67 L 12.0 24.0 L 12.0 24.33 L 12.0 24.67 L 12.0 25.0 L 12.0 25.33 L 12.0 25.67 L 12.0 26.0 L 12.0 26.33 L 12.0 26.67 L 12.0 27.0 L 12.0 27.33 L 12.0 27.67 L 12.0 28.0 L 12.0 28.33 L 12.0 28.67 L 12.0 29.0 L 12.0 29.33 L 12.0 29.67 L 12.0 30.0" fill="none" stroke="#111" stroke-width="1.23" stroke-linecap="round" stroke-linejoin="round"/>
<path d="M 10.0 26.0 L 10.41 26.12 L 10.83 26.19 L 11.25 26.23 L 11.67 26.23 L 12.1 26.2 L 12.51 26.12 L 12.92 26.0 L 13.32 25.85 L 13.7 25.66 L 14.06 25.44 L 14.4 25.18 L 14.71 24.89 L 15.0 24.58 L 15.26 24.24 L 15.48 23.88 L 15.67 23.5 L 15.82 23.1 L 15.94 22.69 L 16.02 22.28 L 16.05 21.85 L 16.05 21.43 L 16.02 21.01 L 15.94 20.59 L 15.82 20.18" fill="none" stroke="#111" stroke-width="1.23" stroke-linecap="round" stroke-linejoin="round"/>
</svg>
