<?xml version="1.0" encoding="UTF-8"?>
<svg xmlns="http://www.w3.org/2000/svg" viewBox="0 0 23.00 36.00">
<path d="M 8.0 4.0 L 8.0 4.5 L 8.0 5.0 L 8.0 5.5 L 8.0 6.0 L 8.0 6.5 L 8.0 7.0 L 8.0 7.5 L 8.0 8.0 L 8.0 8.5 L 8.0 9.0 L 8.0 9.5 L 8.0 10.0 L 8.0 10.5 L 8.0 11.0 L 8.0 11.5 L 8.0 12.0 L 8.0 12.5 L 8.0 13.0 L 8.0 13.5 L 8.0 14.0 L 8.0 14.5 L 8.0 15.0 L 8.0 15.5 L 8.0 16.0" fill="none" stroke="#111" stroke-width="1.26" stroke-linecap="round" stroke-linejoin="round"/>
<path d="M 8.0 4.0 L 8.46 4.0 L 8.92 4.0 L 9.38 4.0 L 9.83 4.0 L 10.29 4.0 L 10.75 4.0 L 11.21 4.0 L 11.67 4.0 L 12.12 4.0 L 12.58 4.0 L 13.04 4.0 L 13.5 4.0 L 13.96 4.0 L 14.42 4.0 L 14.88 4.0 L 15.33 4.0 L 15.79 4.0 L 16.25 4.0 L 16.71 4.0 L 17.17 4.0 L 17.62 4.0 L 18.08 4.0 L 18.54 4.0 L 19.0 4.0 L 19.0 4.0 L 19.0 4.38 L 19.0 4.75 L 19.0 5.12 L 19.0 5.5 L 19.0 5.88 L 19.0 6.25 L 19.0 6.62 L 19.0 7.0 L 19.0 7.38 L 19.0 7.75 L 19.0 8.12 L 19.0 8.5 L 19.0 8.88 L 19.0 9.25 L 19.0 9.62 L 19.0 10.0 L 19.0 10.38 L 19.0 10.75 L 19.0 11.12 L 19.0 11.5 L 19.0 11.88 L 19.0 12.25 L 19.0 12.62 L 19.0 13.0" fill="none" stroke="#111" stroke-width="1.26" stroke-linecap="round" stroke-linejoin="round"/>
<path d="M 8.0 13.0 L 8.46 13.0 L 8.92 13.0 L 9.38 13.0 L 9.83 13.0 L 10.29 13.0 L 10.75 13.0 L 11.21 13.0 L 11.67 13.0 L 12.12 13.0 L 12.58 13.0 L 13.04 13.0 L 13.5 13.0 L 13.96 13.0 L 14.42 13.0 L 14.88 13.0 L 15.33 13.0 L 15.79 13.0 L 16.25 13.0 L 16.71 13.0 L 17.17 13.0 L 17.62 13.0 L 18.08 13.0 L 18.54 13.0 L 19.0 13.0" fill="none" stroke="#111" stroke-width="1.26" stroke-linecap="round" stroke-linejoin="round"/>
<path d="M 4.0 21.0 L 4.0 21.46 L 4.0 21.92 L 4.0 22.38 L 4.0 22.83 L 4.0 23.29 L 4.0 23.75 L 4.0 24.21 L 4.0 24.67 L 4.0 25.12 L 4.0 25.58 L 4.0 26.04 L 4.0 26.5 L 4.0 26.96 L 4.0 27.42 L 4.0 27.88 L 4.0 28.33 L 4.0 28.79 L 4.0 29.25 L 4.0 29.71 L 4.0 30.17 L 4.0 30.62 L 4.0 31.08 L 4.0 31.54 L 4.0 32.0" fill="none" stroke="#111" stroke-width="1.26" stroke-linecap="round" stroke-linejoin="round"/>
<path d="M 9.0 19.0 L 9.0 19.42 L 9.0 19.83 L 9.0 20.25 L 9.0 20.67 L 9.0 21.08 L 9.0 21.5 L 9.0 21.92 L 9.0 22.33 L 9.0 22.75 L 9.0 23.17 L 9.0 23.58 L 9.0 24.0 L 9.0 24.42 L 9.0 24.83 L 9.0 25.25 L 9.0 25.67 L 9.0 26.08 L 9.0 26.5 L 9.0 26.92 L 9.0 27.33 L 9.0 27.75 L 9.0 28.17 L 9.0 28.58 L 9.0 29.0" fill="none" stroke="#111" stroke-width="1.26" stroke-linecap="round" stroke-linejoin="round"/>
<path d="M 4.0 32.0 L 4.21 31.88 L 4.42 31.75 L 4.62 31.62 L 4.83 31.5 L 5.04 31.38 L 5.25 31.25 L 5.46 31.12 L 5.67 31.0 L 5.88 30.88 L 6.08 30.75 L 6.29 30.62 L 6.5 30.5 L 6.71 30.38 L 6.92 30.25 L 7.12 30.12 L 7.33 30.0 L 7.54 29.88 L 7.75 29.75 L 7.96 29.62 L 8.17 29.5 L 8.38 29.38 L 8.58 29.25 L 8.79 29.12 L 9.0 29.0" fill="none" stroke="#111" stroke-width="1.26" stroke-linecap="round" stroke-linejoin="round"/>
<path d="M 4.0 27.0 L 4.38 26.83 L 4.75 26.67 L 5.12 26.5 L 5.5 26.33 L 5.88 26.17 L 6.25 26.0 L 6.62 25.83 L 7.0 25.67 L 7.38 25.5 L 7.75 25.33 L 8.12 25.17 L 8.5 25.0 L 8.88 24.83 L 9.25 24.67 L 9.62 24.5 L 10.0 24.33 L 10.38 24.17 L 10.75 24.0 L 11.12 23.83 L 11.5 23.67 L 11.88 23.5 L 12.25 23.33 L 12.62 23.17 L 13.0 23.0" fill="none" stroke="#111" stroke-width="1.26" stroke-linecap="round" stroke-linejoin="round"/>
<path d="M 13.0 17.0 L 13.0 17.25 L 13.0 17.5 L 13.0 17.75 L 13.0 18.0 L 13.0 18.25 L 13.0 18.5 L 13.0 18.75 L 13.0 19.0 L 13.0 19.25 L 13.0 19.5 L 13.0 19.75 L 13.0 20.0 L 13.0 20.25 L 13.0 20.5 L 13.0 20.75 L 13.0 21.0 L 13.0 21.25 L 13.0 21.5 L 13.0 21.75 L 13.0 22.0 L 13.0 22.25 L 13.0 22.5 L 13.0 22.75 L 13.0 23.0" fill="none" stroke="#111" stroke-width="1.26" stroke-linecap="round" stroke-linejoin="round"/>
</svg>
