<?xml version="1.0" encoding="UTF-8"?>
<svg xmlns="http://www.w3.org/2000/svg" viewBox="0 0 28.80 37.00">
<path d="M 11.0 12.0 L 11.12 12.33 L 11.25 12.67 L 11.37 13.0 L 11.5 13.33 L 11.62 13.67 L 11.75 14.0 L 11.87 14.33 L 12.0 14.67 L 12.12 15.0 L 12.25 15.33 L 12.37 15.67 L 12.5 16.0 L 12.62 16.33 L 12.75 16.67 L 12.87 17.0 L 13.0 17.33 L 13.12 17.67 L 13.25 18.0 L 13.37 18.33 L 13.5 18.67 L 13.62 19.0 L 13.75 19.33 L 13.87 19.67 L 14.0 20.0" fill="none" stroke="#111" stroke-width="1.30" stroke-linecap="round" stroke-linejoin="round"/>
<path d="M 14.0 9.0 L 14.0 9.46 L 14.0 9.92 L 14.0 10.38 L 14.0 10.83 L 14.0 11.29 L 14.0 11.75 L 14.0 12.21 L 14.0 12.67 L 14.0 13.12 L 14.0 13.58 L 14.0 14.04 L 14.0 14.5 L 14.0 14.96 L 14.0 15.42 L 14.0 15.88 L 14.0 16.33 L 14.0 16.79 L 14.0 17.25 L 14.0 17.71 L 14.0 18.17 L 14.0 18.62 L 14.0 19.08 L 14.0 19.54 L 14.0 20.0" fill="none" stroke="#111" stroke-width="1.30" stroke-linecap="round" stroke-linejoin="round"/>
<path d="M 12.0 14.0 L 12.37 13.95 L 12.74 13.89 L 13.1 13.8 L 13.46 13.69 L 13.81 13.56 L 14.16 13.41 L 14.49 13.24 L 14.82 13.05 L 15.13 12.84 L 15.43 12.62 L 15.71 12.38 L 15.99 12.12 L 16.24 11.85 L 16.49 11.56 L 16.71 11.26 L 16.92 10.95 L 17.1 10.62 L 17.27 10.29 L 17.42 9.95 L 17.55 9.6 L 17.66 9.24 L 17.75 8.87 L 17.82 8.5 L 17.87 8.13" fill="none" stroke="#111" stroke-width="1.30" stroke-linecap="round" stroke-linejoin="round"/>
<path d="M 9.0 4.0 L 9.26 4.61 L 9.49 5.24 L 9.69 5.88 L 9.85 6.52 L 9.98 7.18 L 10.08 7.84 L 10.14 8.5 L 10.16 9.17 L 10.15 9.83 L 10.11 10.5 L 10.03 11.16 L 9.91 11.82 L 9.77 12.47 L 9.58 13.11 L 9.37 13.74 L 9.12 14.36 L 8.84 14.96 L 8.53 15.55 L 8.19 16.12 L 7.82 16.68 L 7.42 17.21 L 6.99 17.73 L 6.54 18.21 L 6.06 18.68" fill="none" stroke="#111" stroke-width="1.30" stroke-linecap="round" stroke-linejoin="round"/>
<path d="M 9.0 20.0 L 8.79 20.29 L 8.58 20.58 L 8.37 20.88 L 8.17 21.17 L 7.96 21.46 L 7.75 21.75 L 7.54 22.04 L 7.33 22.33 L 7.12 22.62 L 6.92 22.92 L 6.71 23.21 L 6.5 23.5 L 6.29 23.79 L 6.08 24.08 L 5.88 24.38 L 5.67 24.67 L 5.46 24.96 L 5.25 25.25 L 5.04 25.54 L 4.83 25.83 L 4.62 26.12 L 4.42 26.42 L 4.21 26.71 L 4.0 27.0" fill="none" stroke="#111" stroke-width="1.30" stroke-linecap="round" stroke-linejoin="round"/>
<path d="M 8.0 22.0 L 8.0 22.33 L 8.0 22.67 L 8.0 23.0 L 8.0 23.33 L 8.0 23.67 L 8.0 24.0 L 8.0 24.33 L 8.0 24.67 L 8.0 25.0 L 8.0 25.33 L 8.0 25.67 L 8.0 26.0 L 8.0 26.33 L 8.0 26.67 L 8.0 27.0 L 8.0 27.33 L 8.0 27.67 L 8.0 28.0 L 8.0 28.33 L 8.0 28.67 L 8.0 29.0 L 8.0 29.33 L 8.0 29.67 L 8.0 30.0" fill="none" stroke="#111" stroke-width="1.30" stroke-linecap="round" stroke-linejoin="round"/>
<path d="M 20.0 5.0 L 19.58 5.61 L 19.21 6.25 L 18.89 6.92 L 18.62 7.62 L 18.42 8.33 L 18.27 9.06 L 18.18 9.8 L 18.15 10.54 L 18.18 11.28 L 18.26 12.02 L 18.41 12.75 L 18.62 13.46 L 18.88 14.15 L 19.2 14.83 L 19.57 15.47 L 19.99 16.08 L 20.46 16.66 L 20.98 17.19 L 21.53 17.68 L 22.13 18.13 L 22.75 18.53 L 23.41 18.87 L 24.1 19.16 L 24.8 19.4" fill="none" stroke="#111" stroke-width="1.30" stroke-linecap="round" stroke-linejoin="round"/>
<path d="M 18.0 23.0 L 18.0 23.42 L 18.0 23.83 L 18.0 24.25 L 18.0 24.67 L 18.0 25.08 L 18.0 25.5 L 18.0 25.92 L 18.0 26.33 L 18.0 26.75 L 18.0 27.17 L 18.0 27.58 L 18.0 28.0 L 18.0 28.42 L 18.0 28.83 L 18.0 29.25 L 18.0 29.67 L 18.0 30.08 L 18.0 30.5 L 18.0 30.92 L 18.0 31.33 L 18.0 31.75 L 18.0 32.17 L 18.0 32.58 L 18.0 33.0" fill="none" stroke="#111" stroke-width="1.30" stroke-linecap="round" stroke-linejoin="round"/>
<path d="M 18.0 23.0 L 18.21 23.08 L 18.42 23.17 L 18.62 23.25 L 18.83 23.33 L 19.04 23.42 L 19.25 23.5 L 19.46 23.58 L 19.67 23.67 L 19.88 23.75 L 20.08 23.83 L 20.29 23.92 L 20.5 24.0 L 20.71 24.08 L 20.92 24.17 L 21.12 24.25 L 21.33 24.33 L 21.54 24.42 L 21.75 24.5 L 21.96 24.58 L 22.17 24.67 L 22.38 24.75 L 22.58 24.83 L 22.79 24.92 L 23.0 25.0" fill="none" stroke="#111" stroke-width="1.30" stroke-linecap="round" stroke-linejoin="round"/>
</svg>
