<?xml version="1.0" encoding="UTF-8"?>
<svg xmlns="http://www.w3.org/2000/svg" viewBox="0 0 29.00 42.00">
<path d="M 8.0 6.0 L 8.0 6.54 L 8.0 7.08 L 8.0 7.62 L 8.0 8.17 L 8.0 8.71 L 8.0 9.25 L 8.0 9.79 L 8.0 10.33 L 8.0 10.88 L 8.0 11.42 L 8.0 11.96 L 8.0 12.5 L 8.0 13.04 L 8.0 13.58 L 8.0 14.12 L 8.0 14.67 L 8.0 15.21 L 8.0 15.75 L 8.0 16.29 L 8.0 16.83 L 8.0 17.38 L 8.0 17.92 L 8.0 18.46 L 8.0 19.0" fill="none" stroke="#111" stroke-width="1.47" stroke-linecap="round" stroke-linejoin="round"/>
<path d="M 4.0 8.0 L 4.17 8.17 L 4.33 8.33 L 4.5 8.5 L 4.67 8.67 L 4.83 8.83 L 5.0 9.0 L 5.17 9.17 L 5.33 9.33 L 5.5 9.5 L 5.67 9.67 L 5.83 9.83 L 6.0 10.0 L 6.17 10.17 L 6.33 10.33 L 6.5 10.5 L 6.67 10.67 L 6.83 10.83 L 7.0 11.0 L 7.17 11.17 L 7.33 11.33 L 7.5 11.5 L 7.67 11.67 L 7.83 11.83 L 8.0 12.0" fill="none" stroke="#111" stroke-width="1.47" stroke-linecap="round" stroke-linejoin="round"/>
<path d="M 13.0 7.0 L 12.79 7.21 L 12.58 7.42 L 12.38 7.62 L 12.17 7.83 L 11.96 8.04 L 11.75 8.25 L 11.54 8.46 L 11.33 8.67 L 11.12 8.88 L 10.92 9.08 L 10.71 9.29 L 10.5 9.5 L 10.29 9.71 L 10.08 9.92 L 9.88 10.12 L 9.67 10.33 L 9.46 10.54 L 9.25 10.75 L 9.04 10.96 L 8.83 11.17 L 8.62 11.38 L 8.42 11.58 L 8.21 11.79 L 8.0 12.0" fill="none" stroke="#111" stroke-width="1.47" stroke-linecap="round" stroke-linejoin="round"/>
<path d="M 8.0 12.0 L 7.83 12.21 L 7.67 12.42 L 7.5 12.62 L 7.33 12.83 L 7.17 13.04 L 7.0 13.25 L 6.83 13.46 L 6.67 13.67 L 6.5 13.88 L 6.33 14.08 L 6.17 14.29 L 6.0 14.5 L 5.83 14.71 L 5.67 14.92 L 5.5 15.12 L 5.33 15.33 L 5.17 15.54 L 5.0 15.75 L 4.83 15.96 L 4.67 16.17 L 4.5 16.38 L 4.33 16.58 L 4.17 16.79 L 4.0 17.0" fill="none" stroke="#111" stroke-width="1.47" stroke-linecap="round" stroke-linejoin="round"/>
<path d="M 8.0 12.0 L 8.12 12.12 L 8.25 12.25 L 8.38 12.38 L 8.5 12.5 L 8.62 12.62 L 8.75 12.75 L 8.88 12.88 L 9.0 13.0 L 9.12 13.12 L 9.25 13.25 L 9.38 13.38 L 9.5 13.5 L 9.62 13.62 L 9.75 13.75 L 9.88 13.88 L 10.0 14.0 L 10.12 14.12 L 10.25 14.25 L 10.38 14.38 L 10.5 14.5 L 10.62 14.62 L 10.75 14.75 L 10.88 14.88 L 11.0 15.0" fill="none" stroke="#111" stroke-width="1.47" stroke-linecap="round" stroke-linejoin="round"/>
<path d="M 4.0 21.0 L 4.0 21.21 L 4.0 21.42 L 4.0 21.62 L 4.0 21.83 L 4.0 22.04 L 4.0 22.25 L 4.0 22.46 L 4.0 22.67 L 4.0 22.88 L 4.0 23.08 L 4.0 23.29 L 4.0 23.5 L 4.0 23.71 L 4.0 23.92 L 4.0 24.12 L 4.0 24.33 L 4.0 24.54 L 4.0 24.75 L 4.0 24.96 L 4.0 25.17 L 4.0 25.38 L 4.0 25.58 L 4.0 25.79 L 4.0 26.0" fill="none" stroke="#111" stroke-width="1.47" stroke-linecap="round" stroke-linejoin="round"/>
<path d="M 4.0 21.0 L 4.33 21.0 L 4.67 21.0 L 5.0 21.0 L 5.33 21.0 L 5.67 21.0 L 6.0 21.0 L 6.33 21.0 L 6.67 21.0 L 7.0 21.0 L 7.33 21.0 L 7.67 21.0 L 8.0 21.0 L 8.33 21.0 L 8.67 21.0 L 9.0 21.0 L 9.33 21.0 L 9.67 21.0 L 10.0 21.0 L 10.33 21.0 L 10.67 21.0 L 11.0 21.0 L 11.33 21.0 L 11.67 21.0 L 12.0 21.0 L 12.0 21.0 L 12.0 21.21 L 12.0 21.42 L 12.0 21.62 L 12.0 21.83 L 12.0 22.04 L 12.0 22.25 L 12.0 22.46 L 12.0 22.67 L 12.0 22.88 L 12.0 23.08 L 12.0 23.29 L 12.0 23.5 L 12.0 23.71 L 12.0 23.92 L 12.0 24.12 L 12.0 24.33 L 12.0 24.54 L 12.0 24.75 L 12.0 24.96 L 12.0 25.17 L 12.0 25.38 L 12.0 25.58 L 12.0 25.79 L 12.0 26.0" fill="none" stroke="#111" stroke-width="1.47" stroke-linecap="round" stroke-linejoin="round"/>
<path d="M 4.0 26.0 L 4.33 26.0 L 4.67 26.0 L 5.0 26.0 L 5.33 26.0 L 5.67 26.0 L 6.0 26.0 L 6.33 26.0 L 6.67 26.0 L 7.0 26.0 L 7.33 26.0 L 7.67 26.0 L 8.0 26.0 L 8.33 26.0 L 8.67 26.0 L 9.0 26.0 L 9.33 26.0 L 9.67 26.0 L 10.0 26.0 L 10.33 26.0 L 10.67 26.0 L 11.0 26.0 L 11.33 26.0 L 11.67 26.0 L 12.0 26.0" fill="none" stroke="#111" stroke-width="1.47" stroke-linecap="round" stroke-linejoin="round"/>
<path d="M 4.0 24.0 L 4.21 24.0 L 4.42 24.0 L 4.62 24.0 L 4.83 24.0 L 5.04 24.0 L 5.25 24.0 L 5.46 24.0 L 5.67 24.0 L 5.88 24.0 L 6.08 24.0 L 6.29 24.0 L 6.5 24.0 L 6.71 24.0 L 6.92 24.0 L 7.12 24.0 L 7.33 24.0 L 7.54 24.0 L 7.75 24.0 L 7.96 24.0 L 8.17 24.0 L 8.38 24.0 L 8.58 24.0 L 8.79 24.0 L 9.0 24.0" fill="none" stroke="#111" stroke-width="1.47" stroke-linecap="round" stroke-linejoin="round"/>
<path d="M 15.0 10.0 L 14.88 10.21 L 14.75 10.42 L 14.62 10.62 L 14.5 10.83 L 14.38 11.04 L 14.25 11.25 L 14.12 11.46 L 14.0 11.67 L 13.88 11.88 L 13.75 12.08 L 13.62 12.29 L 13.5 12.5 L 13.38 12.71 L 13.25 12.92 L 13.12 13.12 L 13.0 13.33 L 12.88 13.54 L 12.75 13.75 L 12.62 13.96 L 12.5 14.17 L 12.38 14.38 L 12.25 14.58 L 12.13 14.79 L 12.0 15.0" fill="none" stroke="#111" stroke-width="1.47" stroke-linecap="round" stroke-linejoin="round"/>
<path d="M 12.0 15.0 L 12.12 15.17 L 12.25 15.33 L 12.38 15.5 L 12.5 15.67 L 12.62 15.83 L 12.75 16.0 L 12.88 16.17 L 13.0 16.33 L 13.12 16.5 L 13.25 16.67 L 13.38 16.83 L 13.5 17.0 L 13.62 17.17 L 13.75 17.33 L 13.88 17.5 L 14.0 17.67 L 14.12 17.83 L 14.25 18.0 L 14.38 18.17 L 14.5 18.33 L 14.62 18.5 L 14.75 18.67 L 14.88 18.83 L 15.0 19.0" fill="none" stroke="#111" stroke-width="1.47" stroke-linecap="round" stroke-linejoin="round"/>
<path d="M 12.0 26.0 L 12.12 26.29 L 12.25 26.58 L 12.38 26.88 L 12.5 27.17 L 12.62 27.46 L 12.75 27.75 L 12.88 28.04 L 13.0 28.33 L 13.12 28.62 L 13.25 28.92 L 13.38 29.21 L 13.5 29.5 L 13.62 29.79 L 13.75 30.08 L 13.88 30.38 L 14.0 30.67 L 14.12 30.96 L 14.25 31.25 L 14.38 31.54 L 14.5 31.83 L 14.62 32.12 L 14.75 32.42 L 14.88 32.71 L 15.0 33.0" fill="none" stroke="#111" stroke-width="1.47" stroke-linecap="round" stroke-linejoin="round"/>
<path d="M 21.0 6.0 L 21.0 6.62 L 21.0 7.25 L 21.0 7.88 L 21.0 8.5 L 21.0 9.12 L 21.0 9.75 L 21.0 10.38 L 21.0 11.0 L 21.0 11.62 L 21.0 12.25 L 21.0 12.88 L 21.0 13.5 L 21.0 14.12 L 21.0 14.75 L 21.0 15.38 L 21.0 16.0 L 21.0 16.62 L 21.0 17.25 L 21.0 17.88 L 21.0 18.5 L 21.0 19.12 L 21.0 19.75 L 21.0 20.38 L 21.0 21.0" fill="none" stroke="#111" stroke-width="1.47" stroke-linecap="round" stroke-linejoin="round"/>
<path d="M 18.0 10.0 L 18.12 10.12 L 18.25 10.25 L 18.38 10.38 L 18.5 10.5 L 18.62 10.62 L 18.75 10.75 L 18.88 10.88 L 19.0 11.0 L 19.12 11.12 L 19.25 11.25 L 19.38 11.38 L 19.5 11.5 L 19.62 11.62 L 19.75 11.75 L 19.88 11.88 L 20.0 12.0 L 20.12 12.12 L 20.25 12.25 L 20.38 12.38 L 20.5 12.5 L 20.62 12.62 L 20.75 12.75 L 20.88 12.88 L 21.0 13.0" fill="none" stroke="#111" stroke-width="1.47" stroke-linecap="round" stroke-linejoin="round"/>
<path d="M 25.0 8.0 L 24.83 8.21 L 24.67 8.42 L 24.5 8.62 L 24.33 8.83 L 24.17 9.04 L 24.0 9.25 L 23.83 9.46 L 23.67 9.67 L 23.5 9.88 L 23.33 10.08 L 23.17 10.29 L 23.0 10.5 L 22.83 10.71 L 22.67 10.92 L 22.5 11.12 L 22.33 11.33 L 22.17 11.54 L 22.0 11.75 L 21.83 11.96 L 21.67 12.17 L 21.5 12.38 L 21.33 12.58 L 21.17 12.79 L 21.0 13.0" fill="none" stroke="#111" stroke-width="1.47" stroke-linecap="round" stroke-linejoin="round"/>
<path d="M 21.0 15.0 L 20.88 15.17 L 20.75 15.33 L 20.62 15.5 L 20.5 15.67 L 20.38 15.83 L 20.25 16.0 L 20.12 16.17 L 20.0 16.33 L 19.88 16.5 L 19.75 16.67 L 19.62 16.83 L 19.5 17.0 L 19.38 17.17 L 19.25 17.33 L 19.12 17.5 L 19.0 17.67 L 18.88 17.83 L 18.75 18.0 L 18.62 18.17 L 18.5 18.33 L 18.38 18.5 L 18.25 18.67 L 18.12 18.83 L 18.0 19.0" fill="none" stroke="#111" stroke-width="1.47" stroke-linecap="round" stroke-linejoin="round"/>
<path d="M 21.0 15.0 L 21.17 15.17 L 21.33 15.33 L 21.5 15.5 L 21.67 15.67 L 21.83 15.83 L 22.0 16.0 L 22.17 16.17 L 22.33 16.33 L 22.5 16.5 L 22.67 16.67 L 22.83 16.83 L 23.0 17.0 L 23.17 17.17 L 23.33 17.33 L 23.5 17.5 L 23.67 17.67 L 23.83 17.83 L 24.0 18.0 L 24.17 18.17 L 24.33 18.33 L 24.5 18.5 L 24.67 18.67 L 24.83 18.83 L 25.0 19.0" fill="none" stroke="#111" stroke-width="1.47" stroke-linecap="round" stroke-linejoin="round"/>
<path d="M 19.0 23.0 L 19.0 23.62 L 19.0 24.25 L 19.0 24.88 L 19.0 25.5 L 19.0 26.12 L 19.0 26.75 L 19.0 27.38 L 19.0 28.0 L 19.0 28.62 L 19.0 29.25 L 19.0 29.88 L 19.0 30.5 L 19.0 31.12 L 19.0 31.75 L 19.0 32.38 L 19.0 33.0 L 19.0 33.62 L 19.0 34.25 L 19.0 34.88 L 19.0 35.5 L 19.0 36.12 L 19.0 36.75 L 19.0 37.38 L 19.0 38.0" fill="none" stroke="#111" stroke-width="1.47" stroke-linecap="round" stroke-linejoin="round"/>
<path d="M 16.0 27.0 L 16.12 27.08 L 16.25 27.17 L 16.38 27.25 L 16.5 27.33 L 16.62 27.42 L 16.75 27.5 L 16.88 27.58 L 17.0 27.67 L 17.12 27.75 L 17.25 27.83 L 17.38 27.92 L 17.5 28.0 L 17.62 28.08 L 17.75 28.17 L 17.88 28.25 L 18.0 28.33 L 18.12 28.42 L 18.25 28.5 L 18.38 28.58 L 18.5 28.67 L 18.62 28.75 L 18.75 28.83 L 18.88 28.92 L 19.0 29.0" fill="none" stroke="#111" stroke-width="1.47" stroke-linecap="round" stroke-linejoin="round"/>
<path d="M 23.0 23.0 L 22.83 23.21 L 22.67 23.42 L 22.5 23.62 L 22.33 23.83 L 22.17 24.04 L 22.0 24.25 L 21.83 24.46 L 21.67 24.67 L 21.5 24.88 L 21.33 25.08 L 21.17 25.29 L 21.0 25.5 L 20.83 25.71 L 20.67 25.92 L 20.5 26.12 L 20.33 26.33 L 20.17 26.54 L 20.0 26.75 L 19.83 26.96 L 19.67 27.17 L 19.5 27.38 L 19.33 27.58 L 19.17 27.79 L 19.0 28.0" fill="none" stroke="#111" stroke-width="1.47" stroke-linecap="round" stroke-linejoin="round"/>
<path d="M 19.0 31.0 L 18.88 31.12 L 18.75 31.25 L 18.62 31.38 L 18.5 31.5 L 18.38 31.62 L 18.25 31.75 L 18.12 31.88 L 18.0 32.0 L 17.88 32.12 L 17.75 32.25 L 17.62 32.38 L 17.5 32.5 L 17.38 32.62 L 17.25 32.75 L 17.12 32.88 L 17.0 33.0 L 16.88 33.12 L 16.75 33.25 L 16.62 33.38 L 16.5 33.5 L 16.38 33.62 L 16.25 33.75 L 16.12 33.88 L 16.0 34.0" fill="none" stroke="#111" stroke-width="1.47" stroke-linecap="round" stroke-linejoin="round"/>
<path d="M 20.0 31.0 L 20.17 31.12 L 20.33 31.25 L 20.5 31.38 L 20.67 31.5 L 20.83 31.62 L 21.0 31.75 L 21.17 31.88 L 21.33 32.0 L 21.5 32.12 L 21.67 32.25 L 21.83 32.38 L 22.0 32.5 L 22.17 32.62 L 22.33 32.75 L 22.5 32.88 L 22.67 33.0 L 22.83 33.12 L 23.0 33.25 L 23.17 33.38 L 23.33 33.5 L 23.5 33.62 L 23.67 33.75 L 23.83 33.88 L 24.0 34.0" fill="none" stroke="#111" stroke-width="1.47" stroke-linecap="round" stroke-linejoin="round"/>
<path d="M 16.0 4.0 L 16.29 5.33 L 16.53 6.67 L 16.72 8.02 L 16.86 9.38 L 16.95 10.74 L 16.98 12.1 L 16.97 13.47 L 16.9 14.83 L 16.78 16.19 L 16.6 17.54 L 16.38 18.88 L 16.11 20.22 L 15.78 21.54 L 15.4 22.85 L 14.98 24.15 L 14.5 25.43 L 13.98 26.69 L 13.41 27.92 L 12.79 29.14 L 12.13 30.33 L 11.42 31.5 L 10.67 32.63 L 9.88 33.74 L 9.04 34.82" fill="none" stroke="#111" stroke-width="1.47" stroke-linecap="round" stroke-linejoin="round"/>
</svg>
