<?xml version="1.0" encoding="UTF-8"?>
<svg xmlns="http://www.w3.org/2000/svg" viewBox="0 0 18.00 35.51">
<path d="M 4.0 13.0 L 4.42 12.92 L 4.83 12.83 L 5.25 12.75 L 5.67 12.67 L 6.08 12.58 L 6.5 12.5 L 6.92 12.42 L 7.33 12.33 L 7.75 12.25 L 8.17 12.17 L 8.58 12.08 L 9.0 12.0 L 9.42 11.92 L 9.83 11.83 L 10.25 11.75 L 10.67 11.67 L 11.08 11.58 L 11.5 11.5 L 11.92 11.42 L 12.33 11.33 L 12.75 11.25 L 13.17 11.17 L 13.58 11.08 L 14.0 11.0" fill="none" stroke="#111" stroke-width="1.24" stroke-linecap="round" stroke-linejoin="round"/>
<path d="M 4.0 13.0 L 4.04 13.12 L 4.08 13.25 L 4.12 13.38 L 4.17 13.5 L 4.21 13.62 L 4.25 13.75 L 4.29 13.88 L 4.33 14.0 L 4.38 14.12 L 4.42 14.25 L 4.46 14.38 L 4.5 14.5 L 4.54 14.62 L 4.58 14.75 L 4.62 14.88 L 4.67 15.0 L 4.71 15.12 L 4.75 15.25 L 4.79 15.38 L 4.83 15.5 L 4.88 15.62 L 4.92 15.75 L 4.96 15.88 L 5.0 16.0 L 5.0 16.0 L 5.38 15.92 L 5.75 15.83 L 6.12 15.75 L 6.5 15.67 L 6.88 15.58 L 7.25 15.5 L 7.62 15.42 L 8.0 15.33 L 8.38 15.25 L 8.75 15.17 L 9.12 15.08 L 9.5 15.0 L 9.88 14.92 L 10.25 14.83 L 10.62 14.75 L 11.0 14.67 L 11.38 14.58 L 11.75 14.5 L 12.12 14.42 L 12.5 14.33 L 12.88 14.25 L 13.25 14.17 L 13.62 14.08 L 14.0 14.0 L 14.0 14.0 L 14.0 13.83 L 14.0 13.67 L 14.0 13.5 L 14.0 13.33 L 14.0 13.17 L 14.0 13.0 L 14.0 12.83 L 14.0 12.67 L 14.0 12.5 L 14.0 12.33 L 14.0 12.17 L 14.0 12.0 L 14.0 11.83 L 14.0 11.67 L 14.0 11.5 L 14.0 11.33 L 14.0 11.17 L 14.0 11.0 L 14.0 10.83 L 14.0 10.67 L 14.0 10.5 L 14.0 10.33 L 14.0 10.17 L 14.0 10.0" fill="none" stroke="#111" stroke-width="1.24" stroke-linecap="round" stroke-linejoin="round"/>
<path d="M 7.0 8.0 L 7.0 8.17 L 7.0 8.33 L 7.0 8.5 L 7.0 8.67 L 7.0 8.83 L 7.0 9.0 L 7.0 9.17 L 7.0 9.33 L 7.0 9.5 L 7.0 9.67 L 7.0 9.83 L 7.0 10.0 L 7.0 10.17 L 7.0 10.33 L 7.0 10.5 L 7.0 10.67 L 7.0 10.83 L 7.0 11.0 L 7.0 11.17 L 7.0 11.33 L 7.0 11.5 L 7.0 11.67 L 7.0 11.83 L 7.0 12.0" fill="none" stroke="#111" stroke-width="1.24" stroke-linecap="round" stroke-linejoin="round"/>
<path d="M 11.0 7.0 L 11.0 7.21 L 11.0 7.42 L 11.0 7.62 L 11.0 7.83 L 11.0 8.04 L 11.0 8.25 L 11.0 8.46 L 11.0 8.67 L 11.0 8.88 L 11.0 9.08 L 11.0 9.29 L 11.0 9.5 L 11.0 9.71 L 11.0 9.92 L 11.0 10.12 L 11.0 10.33 L 11.0 10.54 L 11.0 10.75 L 11.0 10.96 L 11.0 11.17 L 11.0 11.38 L 11.0 11.58 L 11.0 11.79 L 11.0 12.0" fill="none" stroke="#111" stroke-width="1.24" stroke-linecap="round" stroke-linejoin="round"/>
<path d="M 8.0 4.0 L 7.83 4.17 L 7.67 4.33 L 7.5 4.5 L 7.33 4.67 L 7.17 4.83 L 7.0 5.0 L 6.83 5.17 L 6.67 5.33 L 6.5 5.5 L 6.33 5.67 L 6.17 5.83 L 6.0 6.0 L 5.83 6.17 L 5.67 6.33 L 5.5 6.5 L 5.33 6.67 L 5.17 6.83 L 5.0 7.0 L 4.83 7.17 L 4.67 7.33 L 4.5 7.5 L 4.33 7.67 L 4.17 7.83 L 4.0 8.0" fill="none" stroke="#111" stroke-width="1.24" stroke-linecap="round" stroke-linejoin="round"/>
<path d="M 9.0 4.0 L 9.21 4.12 L 9.42 4.25 L 9.62 4.38 L 9.83 4.5 L 10.04 4.62 L 10.25 4.75 L 10.46 4.88 L 10.67 5.0 L 10.88 5.12 L 11.08 5.25 L 11.29 5.38 L 11.5 5.5 L 11.71 5.62 L 11.92 5.75 L 12.12 5.88 L 12.33 6.0 L 12.54 6.12 L 12.75 6.25 L 12.96 6.38 L 13.17 6.5 L 13.38 6.62 L 13.58 6.75 L 13.79 6.88 L 14.0 7.0" fill="none" stroke="#111" stroke-width="1.24" stroke-linecap="round" stroke-linejoin="round"/>
<path d="M 4.0 8.0 L 4.42 7.96 L 4.83 7.92 L 5.25 7.88 L 5.67 7.83 L 6.08 7.79 L 6.5 7.75 L 6.92 7.71 L 7.33 7.67 L 7.75 7.62 L 8.17 7.58 L 8.58 7.54 L 9.0 7.5 L 9.42 7.46 L 9.83 7.42 L 10.25 7.38 L 10.67 7.33 L 11.08 7.29 L 11.5 7.25 L 11.92 7.21 L 12.33 7.17 L 12.75 7.12 L 13.17 7.08 L 13.58 7.04 L 14.0 7.0" fill="none" stroke="#111" stroke-width="1.24" stroke-linecap="round" stroke-linejoin="round"/>
<path d="M 5.0 18.0 L 5.12 18.0 L 5.25 18.0 L 5.38 18.0 L 5.5 18.0 L 5.62 18.0 L 5.75 18.0 L 5.88 18.0 L 6.0 18.0 L 6.12 18.0 L 6.25 18.0 L 6.38 18.0 L 6.5 18.0 L 6.62 18.0 L 6.75 18.0 L 6.88 18.0 L 7.0 18.0 L 7.12 18.0 L 7.25 18.0 L 7.38 18.0 L 7.5 18.0 L 7.62 18.0 L 7.75 18.0 L 7.88 18.0 L 8.0 18.0" fill="none" stroke="#111" stroke-width="1.24" stroke-linecap="round" stroke-linejoin="round"/>
<path d="M 11.0 17.0 L 11.12 16.96 L 11.25 16.92 L 11.38 16.88 L 11.5 16.83 L 11.62 16.79 L 11.75 16.75 L 11.88 16.71 L 12.0 16.67 L 12.12 16.62 L 12.25 16.58 L 12.38 16.54 L 12.5 16.5 L 12.62 16.46 L 12.75 16.42 L 12.88 16.38 L 13.0 16.33 L 13.12 16.29 L 13.25 16.25 L 13.38 16.21 L 13.5 16.17 L 13.62 16.12 L 13.75 16.08 L 13.88 16.04 L 14.0 16.0" fill="none" stroke="#111" stroke-width="1.24" stroke-linecap="round" stroke-linejoin="round"/>
<path d="M 7.0 20.0 L 7.41 20.34 L 7.8 20.71 L 8.17 21.1 L 8.51 21.51 L 8.82 21.94 L 9.11 22.39 L 9.37 22.86 L 9.6 23.34 L 9.8 23.83 L 9.97 24.34 L 10.11 24.86 L 10.21 25.38 L 10.28 25.91 L 10.32 26.44 L 10.33 26.98 L 10.3 27.51 L 10.24 28.04 L 10.14 28.57 L 10.02 29.09 L 9.86 29.6 L 9.67 30.1 L 9.45 30.59 L 9.2 31.06 L 8.92 31.51" fill="none" stroke="#111" stroke-width="1.24" stroke-linecap="round" stroke-linejoin="round"/>
<path d="M 12.0 19.0 L 11.88 19.12 L 11.75 19.25 L 11.62 19.38 L 11.5 19.5 L 11.38 19.62 L 11.25 19.75 L 11.12 19.88 L 11.0 20.0 L 10.88 20.12 L 10.75 20.25 L 10.62 20.38 L 10.5 20.5 L 10.38 20.62 L 10.25 20.75 L 10.12 20.88 L 10.0 21.0 L 9.88 21.12 L 9.75 21.25 L 9.62 21.38 L 9.5 21.5 L 9.38 21.62 L 9.25 21.75 L 9.12 21.88 L 9.0 22.0" fill="none" stroke="#111" stroke-width="1.24" stroke-linecap="round" stroke-linejoin="round"/>
<path d="M 5.0 24.0 L 5.08 23.83 L 5.17 23.67 L 5.25 23.5 L 5.33 23.33 L 5.42 23.17 L 5.5 23.0 L 5.58 22.83 L 5.67 22.67 L 5.75 22.5 L 5.83 22.33 L 5.92 22.17 L 6.0 22.0 L 6.08 21.83 L 6.17 21.67 L 6.25 21.5 L 6.33 21.33 L 6.42 21.17 L 6.5 21.0 L 6.58 20.83 L 6.67 20.67 L 6.75 20.5 L 6.83 20.33 L 6.92 20.17 L 7.0 20.0" fill="none" stroke="#111" stroke-width="1.24" stroke-linecap="round" stroke-linejoin="round"/>
<path d="M 12.0 19.0 L 12.04 19.12 L 12.08 19.25 L 12.12 19.38 L 12.17 19.5 L 12.21 19.62 L 12.25 19.75 L 12.29 19.88 L 12.33 20.0 L 12.38 20.12 L 12.42 20.25 L 12.46 20.38 L 12.5 20.5 L 12.54 20.62 L 12.58 20.75 L 12.62 20.88 L 12.67 21.0 L 12.71 21.12 L 12.75 21.25 L 12.79 21.38 L 12.83 21.5 L 12.88 21.62 L 12.92 21.75 L 12.96 21.88 L 13.0 22.0" fill="none" stroke="#111" stroke-width="1.24" stroke-linecap="round" stroke-linejoin="round"/>
<path d="M 7.0 23.0 L 7.08 23.17 L 7.17 23.33 L 7.25 23.5 L 7.33 23.67 L 7.42 23.83 L 7.5 24.0 L 7.58 24.17 L 7.67 24.33 L 7.75 24.5 L 7.83 24.67 L 7.92 24.83 L 8.0 25.0 L 8.08 25.17 L 8.17 25.33 L 8.25 25.5 L 8.33 25.67 L 8.42 25.83 L 8.5 26.0 L 8.58 26.17 L 8.67 26.33 L 8.75 26.5 L 8.83 26.67 L 8.92 26.83 L 9.0 27.0 L 9.0 27.0 L 9.12 26.83 L 9.25 26.67 L 9.38 26.5 L 9.5 26.33 L 9.62 26.17 L 9.75 26.0 L 9.88 25.83 L 10.0 25.67 L 10.12 25.5 L 10.25 25.33 L 10.38 25.17 L 10.5 25.0 L 10.62 24.83 L 10.75 24.67 L 10.88 24.5 L 11.0 24.33 L 11.12 24.17 L 11.25 24.0 L 11.38 23.83 L 11.5 23.67 L 11.62 23.5 L 11.75 23.33 L 11.88 23.17 L 12.0 23.0" fill="none" stroke="#111" stroke-width="1.24" stroke-linecap="round" stroke-linejoin="round"/>
<path d="M 6.0 26.0 L 6.12 26.12 L 6.25 26.25 L 6.38 26.38 L 6.5 26.5 L 6.62 26.62 L 6.75 26.75 L 6.88 26.88 L 7.0 27.0 L 7.12 27.12 L 7.25 27.25 L 7.38 27.38 L 7.5 27.5 L 7.62 27.62 L 7.75 27.75 L 7.88 27.88 L 8.0 28.0 L 8.12 28.12 L 8.25 28.25 L 8.38 28.38 L 8.5 28.5 L 8.62 28.62 L 8.75 28.75 L 8.88 28.88 L 9.0 29.0 L 9.0 29.0 L 9.12 28.88 L 9.25 28.75 L 9.38 28.62 L 9.5 28.5 L 9.62 28.38 L 9.75 28.25 L 9.88 28.12 L 10.0 28.0 L 10.12 27.88 L 10.25 27.75 L 10.38 27.62 L 10.5 27.5 L 10.62 27.38 L 10.75 27.25 L 10.88 27.12 L 11.0 27.0 L 11.12 26.88 L 11.25 26.75 L 11.38 26.62 L 11.5 26.5 L 11.62 26.38 L 11.75 26.25 L 11.88 26.12 L 12.0 26.0" fill="none" stroke="#111" stroke-width="1.24" stroke-linecap="round" stroke-linejoin="round"/>
</svg>
