<?xml version="1.0" encoding="UTF-8"?>
<svg xmlns="http://www.w3.org/2000/svg" viewBox="0 0 25.84 38.00">
<path d="M 5.08 4.0 L 4.91 4.39 L 4.76 4.79 L 4.64 5.2 L 4.55 5.62 L 4.49 6.04 L 4.45 6.47 L 4.43 6.89 L 4.45 7.32 L 4.49 7.74 L 4.56 8.16 L 4.66 8.58 L 4.78 8.99 L 4.93 9.39 L 5.1 9.78 L 5.3 10.16 L 5.52 10.52 L 5.76 10.87 L 6.03 11.21 L 6.31 11.52 L 6.62 11.82 L 6.94 12.1 L 7.28 12.35 L 7.64 12.59 L 8.01 12.8" fill="none" stroke="#111" stroke-width="1.33" stroke-linecap="round" stroke-linejoin="round"/>
<path d="M 10.08 4.0 L 10.21 4.38 L 10.32 4.76 L 10.42 5.15 L 10.49 5.54 L 10.55 5.94 L 10.59 6.34 L 10.61 6.74 L 10.61 7.14 L 10.59 7.54 L 10.55 7.94 L 10.49 8.33 L 10.41 8.72 L 10.31 9.11 L 10.2 9.5 L 10.07 9.87 L 9.92 10.24 L 9.75 10.61 L 9.56 10.96 L 9.36 11.31 L 9.14 11.64 L 8.9 11.97 L 8.65 12.28 L 8.39 12.58 L 8.11 12.86" fill="none" stroke="#111" stroke-width="1.33" stroke-linecap="round" stroke-linejoin="round"/>
<path d="M 8.08 13.0 L 8.08 13.42 L 8.08 13.83 L 8.08 14.25 L 8.08 14.67 L 8.08 15.08 L 8.08 15.5 L 8.08 15.92 L 8.08 16.33 L 8.08 16.75 L 8.08 17.17 L 8.08 17.58 L 8.08 18.0 L 8.08 18.42 L 8.08 18.83 L 8.08 19.25 L 8.08 19.67 L 8.08 20.08 L 8.08 20.5 L 8.08 20.92 L 8.08 21.33 L 8.08 21.75 L 8.08 22.17 L 8.08 22.58 L 8.08 23.0" fill="none" stroke="#111" stroke-width="1.33" stroke-linecap="round" stroke-linejoin="round"/>
<path d="M 5.08 14.0 L 4.87 14.27 L 4.7 14.56 L 4.55 14.87 L 4.43 15.19 L 4.35 15.52 L 4.29 15.85 L 4.27 16.19 L 4.28 16.53 L 4.32 16.87 L 4.4 17.2 L 4.5 17.52 L 4.64 17.83 L 4.81 18.13 L 5.0 18.41 L 5.22 18.67 L 5.47 18.9 L 5.73 19.12 L 6.02 19.3 L 6.32 19.46 L 6.63 19.59 L 6.96 19.69 L 7.29 19.75 L 7.63 19.78 L 7.97 19.78" fill="none" stroke="#111" stroke-width="1.33" stroke-linecap="round" stroke-linejoin="round"/>
<path d="M 8.08 25.0 L 8.12 25.38 L 8.16 25.75 L 8.2 26.12 L 8.24 26.5 L 8.29 26.88 L 8.33 27.25 L 8.37 27.62 L 8.41 28.0 L 8.45 28.38 L 8.49 28.75 L 8.54 29.12 L 8.58 29.5 L 8.62 29.88 L 8.66 30.25 L 8.7 30.62 L 8.74 31.0 L 8.79 31.38 L 8.83 31.75 L 8.87 32.12 L 8.91 32.5 L 8.95 32.88 L 8.99 33.25 L 9.04 33.62 L 9.08 34.0" fill="none" stroke="#111" stroke-width="1.33" stroke-linecap="round" stroke-linejoin="round"/>
<path d="M 11.08 26.0 L 10.99 26.33 L 10.91 26.67 L 10.83 27.0 L 10.74 27.33 L 10.66 27.67 L 10.58 28.0 L 10.49 28.33 L 10.41 28.67 L 10.33 29.0 L 10.24 29.33 L 10.16 29.67 L 10.08 30.0 L 9.99 30.33 L 9.91 30.67 L 9.83 31.0 L 9.74 31.33 L 9.66 31.67 L 9.58 32.0 L 9.49 32.33 L 9.41 32.67 L 9.33 33.0 L 9.24 33.33 L 9.16 33.67 L 9.08 34.0" fill="none" stroke="#111" stroke-width="1.33" stroke-linecap="round" stroke-linejoin="round"/>
<path d="M 4.08 23.0 L 4.02 23.38 L 4.0 23.76 L 4.01 24.15 L 4.06 24.53 L 4.14 24.9 L 4.25 25.27 L 4.4 25.63 L 4.57 25.97 L 4.78 26.29 L 5.01 26.6 L 5.27 26.88 L 5.55 27.14 L 5.86 27.37 L 6.19 27.58 L 6.53 27.75 L 6.88 27.9 L 7.25 28.01 L 7.63 28.09 L 8.01 28.13 L 8.39 28.14 L 8.78 28.12 L 9.16 28.06 L 9.53 27.97 L 9.89 27.85" fill="none" stroke="#111" stroke-width="1.33" stroke-linecap="round" stroke-linejoin="round"/>
<path d="M 14.08 6.0 L 13.77 6.62 L 13.52 7.26 L 13.34 7.92 L 13.22 8.6 L 13.16 9.29 L 13.17 9.98 L 13.24 10.66 L 13.38 11.34 L 13.58 12.0 L 13.84 12.63 L 14.16 13.24 L 14.54 13.82 L 14.97 14.36 L 15.45 14.85 L 15.98 15.3 L 16.54 15.69 L 17.14 16.03 L 17.77 16.31 L 18.43 16.53 L 19.1 16.69 L 19.78 16.78 L 20.47 16.81 L 21.16 16.77 L 21.84 16.67" fill="none" stroke="#111" stroke-width="1.33" stroke-linecap="round" stroke-linejoin="round"/>
<path d="M 11.08 14.0 L 11.08 14.25 L 11.08 14.5 L 11.08 14.75 L 11.08 15.0 L 11.08 15.25 L 11.08 15.5 L 11.08 15.75 L 11.08 16.0 L 11.08 16.25 L 11.08 16.5 L 11.08 16.75 L 11.08 17.0 L 11.08 17.25 L 11.08 17.5 L 11.08 17.75 L 11.08 18.0 L 11.08 18.25 L 11.08 18.5 L 11.08 18.75 L 11.08 19.0 L 11.08 19.25 L 11.08 19.5 L 11.08 19.75 L 11.08 20.0 L 11.08 20.0 L 10.95 20.0 L 10.83 20.0 L 10.7 20.0 L 10.58 20.0 L 10.45 20.0 L 10.33 20.0 L 10.2 20.0 L 10.08 20.0 L 9.95 20.0 L 9.83 20.0 L 9.7 20.0 L 9.58 20.0 L 9.45 20.0 L 9.33 20.0 L 9.2 20.0 L 9.08 20.0 L 8.95 20.0 L 8.83 20.0 L 8.7 20.0 L 8.58 20.0 L 8.45 20.0 L 8.33 20.0 L 8.2 20.0 L 8.08 20.0" fill="none" stroke="#111" stroke-width="1.33" stroke-linecap="round" stroke-linejoin="round"/>
<path d="M 14.08 17.0 L 14.08 17.54 L 14.08 18.08 L 14.08 18.62 L 14.08 19.17 L 14.08 19.71 L 14.08 20.25 L 14.08 20.79 L 14.08 21.33 L 14.08 21.88 L 14.08 22.42 L 14.08 22.96 L 14.08 23.5 L 14.08 24.04 L 14.08 24.58 L 14.08 25.12 L 14.08 25.67 L 14.08 26.21 L 14.08 26.75 L 14.08 27.29 L 14.08 27.83 L 14.08 28.38 L 14.08 28.92 L 14.08 29.46 L 14.08 30.0" fill="none" stroke="#111" stroke-width="1.33" stroke-linecap="round" stroke-linejoin="round"/>
<path d="M 14.08 17.0 L 14.33 17.21 L 14.58 17.42 L 14.83 17.62 L 15.08 17.83 L 15.33 18.04 L 15.58 18.25 L 15.83 18.46 L 16.08 18.67 L 16.33 18.88 L 16.58 19.08 L 16.83 19.29 L 17.08 19.5 L 17.33 19.71 L 17.58 19.92 L 17.83 20.12 L 18.08 20.33 L 18.33 20.54 L 18.58 20.75 L 18.83 20.96 L 19.08 21.17 L 19.33 21.38 L 19.58 21.58 L 19.83 21.79 L 20.08 22.0" fill="none" stroke="#111" stroke-width="1.33" stroke-linecap="round" stroke-linejoin="round"/>
</svg>
