<?xml version="1.0" encoding="UTF-8"?>
<svg xmlns="http://www.w3.org/2000/svg" viewBox="0 0 23.92 34.00">
<path d="M 15.92 4.0 L 15.83 4.33 L 15.75 4.67 L 15.67 5.0 L 15.58 5.33 L 15.5 5.67 L 15.42 6.0 L 15.33 6.33 L 15.25 6.67 L 15.17 7.0 L 15.08 7.33 L 15.0 7.67 L 14.92 8.0 L 14.83 8.33 L 14.75 8.67 L 14.67 9.0 L 14.58 9.33 L 14.5 9.67 L 14.42 10.0 L 14.33 10.33 L 14.25 10.67 L 14.17 11.0 L 14.08 11.33 L 14.0 11.67 L 13.92 12.0" fill="none" stroke="#111" stroke-width="1.19" stroke-linecap="round" stroke-linejoin="round"/>
<path d="M 13.92 12.0 L 13.75 12.17 L 13.58 12.33 L 13.42 12.5 L 13.25 12.67 L 13.08 12.83 L 12.92 13.0 L 12.75 13.17 L 12.58 13.33 L 12.42 13.5 L 12.25 13.67 L 12.08 13.83 L 11.92 14.0 L 11.75 14.17 L 11.58 14.33 L 11.42 14.5 L 11.25 14.67 L 11.08 14.83 L 10.92 15.0 L 10.75 15.17 L 10.58 15.33 L 10.42 15.5 L 10.25 15.67 L 10.08 15.83 L 9.92 16.0 L 9.92 16.0 L 10.14 16.62 L 10.47 17.19 L 10.89 17.7 L 11.4 18.12 L 11.97 18.45 L 12.58 18.68 L 13.23 18.79 L 13.89 18.79 L 14.54 18.68 L 15.16 18.45 L 15.73 18.12 L 16.24 17.7 L 16.66 17.19 L 16.99 16.62 L 17.21 16.0 L 17.33 15.36 L 17.33 14.7 L 17.21 14.05 L 16.99 13.43 L 16.66 12.86 L 16.23 12.35 L 15.73 11.93 L 15.16 11.6 L 14.54 11.38" fill="none" stroke="#111" stroke-width="1.19" stroke-linecap="round" stroke-linejoin="round"/>
<path d="M 14.92 19.0 L 14.96 19.46 L 15.0 19.92 L 15.04 20.38 L 15.08 20.83 L 15.12 21.29 L 15.17 21.75 L 15.21 22.21 L 15.25 22.67 L 15.29 23.12 L 15.33 23.58 L 15.37 24.04 L 15.42 24.5 L 15.46 24.96 L 15.5 25.42 L 15.54 25.88 L 15.58 26.33 L 15.62 26.79 L 15.67 27.25 L 15.71 27.71 L 15.75 28.17 L 15.79 28.62 L 15.83 29.08 L 15.87 29.54 L 15.92 30.0" fill="none" stroke="#111" stroke-width="1.19" stroke-linecap="round" stroke-linejoin="round"/>
<path d="M 14.92 7.0 L 15.08 7.08 L 15.25 7.17 L 15.42 7.25 L 15.58 7.33 L 15.75 7.42 L 15.92 7.5 L 16.08 7.58 L 16.25 7.67 L 16.42 7.75 L 16.58 7.83 L 16.75 7.92 L 16.92 8.0 L 17.08 8.08 L 17.25 8.17 L 17.42 8.25 L 17.58 8.33 L 17.75 8.42 L 17.92 8.5 L 18.08 8.58 L 18.25 8.67 L 18.42 8.75 L 18.58 8.83 L 18.75 8.92 L 18.92 9.0" fill="none" stroke="#111" stroke-width="1.19" stroke-linecap="round" stroke-linejoin="round"/>
<path d="M 11.92 22.0 L 12.08 22.12 L 12.25 22.25 L 12.42 22.38 L 12.58 22.5 L 12.75 22.62 L 12.92 22.75 L 13.08 22.88 L 13.25 23.0 L 13.42 23.12 L 13.58 23.25 L 13.75 23.38 L 13.92 23.5 L 14.08 23.62 L 14.25 23.75 L 14.42 23.88 L 14.58 24.0 L 14.75 24.12 L 14.92 24.25 L 15.08 24.38 L 15.25 24.5 L 15.42 24.62 L 15.58 24.75 L 15.75 24.88 L 15.92 25.0 L 15.92 25.0 L 16.08 24.71 L 16.25 24.42 L 16.42 24.12 L 16.58 23.83 L 16.75 23.54 L 16.92 23.25 L 17.08 22.96 L 17.25 22.67 L 17.42 22.38 L 17.58 22.08 L 17.75 21.79 L 17.92 21.5 L 18.08 21.21 L 18.25 20.92 L 18.42 20.62 L 18.58 20.33 L 18.75 20.04 L 18.92 19.75 L 19.08 19.46 L 19.25 19.17 L 19.42 18.88 L 19.58 18.58 L 19.75 18.29 L 19.92 18.0" fill="none" stroke="#111" stroke-width="1.19" stroke-linecap="round" stroke-linejoin="round"/>
<path d="M 8.92 6.0 L 9.09 6.59 L 9.23 7.19 L 9.33 7.8 L 9.4 8.41 L 9.44 9.03 L 9.44 9.65 L 9.41 10.26 L 9.34 10.88 L 9.24 11.48 L 9.1 12.09 L 8.93 12.68 L 8.72 13.26 L 8.48 13.83 L 8.21 14.38 L 7.91 14.92 L 7.58 15.44 L 7.22 15.95 L 6.83 16.43 L 6.42 16.88 L 5.98 17.32 L 5.52 17.72 L 5.03 18.1 L 4.53 18.46 L 4.0 18.78" fill="none" stroke="#111" stroke-width="1.19" stroke-linecap="round" stroke-linejoin="round"/>
<path d="M 9.92 20.0 L 9.75 20.29 L 9.58 20.58 L 9.42 20.88 L 9.25 21.17 L 9.08 21.46 L 8.92 21.75 L 8.75 22.04 L 8.58 22.33 L 8.42 22.62 L 8.25 22.92 L 8.08 23.21 L 7.92 23.5 L 7.75 23.79 L 7.58 24.08 L 7.42 24.38 L 7.25 24.67 L 7.08 24.96 L 6.92 25.25 L 6.75 25.54 L 6.58 25.83 L 6.42 26.12 L 6.25 26.42 L 6.08 26.71 L 5.92 27.0" fill="none" stroke="#111" stroke-width="1.19" stroke-linecap="round" stroke-linejoin="round"/>
<path d="M 8.92 22.0 L 8.96 22.33 L 9.0 22.67 L 9.04 23.0 L 9.08 23.33 L 9.12 23.67 L 9.17 24.0 L 9.21 24.33 L 9.25 24.67 L 9.29 25.0 L 9.33 25.33 L 9.37 25.67 L 9.42 26.0 L 9.46 26.33 L 9.5 26.67 L 9.54 27.0 L 9.58 27.33 L 9.62 27.67 L 9.67 28.0 L 9.71 28.33 L 9.75 28.67 L 9.79 29.0 L 9.83 29.33 L 9.87 29.67 L 9.92 30.0" fill="none" stroke="#111" stroke-width="1.19" stroke-linecap="round" stroke-linejoin="round"/>
</svg>
