<?xml version="1.0" encoding="UTF-8"?>
<svg xmlns="http://www.w3.org/2000/svg" viewBox="0 0 26.00 41.00">
<path d="M 13.0 4.0 L 12.83 4.33 L 12.68 4.66 L 12.55 5.01 L 12.45 5.36 L 12.36 5.72 L 12.3 6.08 L 12.27 6.45 L 12.25 6.81 L 12.26 7.18 L 12.29 7.55 L 12.35 7.91 L 12.43 8.27 L 12.53 8.63 L 12.65 8.97 L 12.79 9.31 L 12.96 9.64 L 13.14 9.96 L 13.35 10.26 L 13.57 10.55 L 13.82 10.83 L 14.07 11.09 L 14.35 11.34 L 14.64 11.56 L 14.94 11.77" fill="none" stroke="#111" stroke-width="1.44" stroke-linecap="round" stroke-linejoin="round"/>
<path d="M 18.0 4.0 L 18.14 4.36 L 18.26 4.73 L 18.35 5.1 L 18.42 5.48 L 18.47 5.86 L 18.49 6.24 L 18.49 6.63 L 18.46 7.01 L 18.41 7.39 L 18.33 7.77 L 18.23 8.14 L 18.11 8.51 L 17.96 8.86 L 17.79 9.21 L 17.6 9.54 L 17.39 9.87 L 17.16 10.17 L 16.91 10.47 L 16.64 10.74 L 16.35 11.0 L 16.05 11.24 L 15.73 11.46 L 15.4 11.66 L 15.06 11.83" fill="none" stroke="#111" stroke-width="1.44" stroke-linecap="round" stroke-linejoin="round"/>
<path d="M 9.0 6.0 L 9.29 6.08 L 9.58 6.17 L 9.87 6.25 L 10.17 6.33 L 10.46 6.42 L 10.75 6.5 L 11.04 6.58 L 11.33 6.67 L 11.62 6.75 L 11.92 6.83 L 12.21 6.92 L 12.5 7.0 L 12.79 7.08 L 13.08 7.17 L 13.37 7.25 L 13.67 7.33 L 13.96 7.42 L 14.25 7.5 L 14.54 7.58 L 14.83 7.67 L 15.12 7.75 L 15.42 7.83 L 15.71 7.92 L 16.0 8.0" fill="none" stroke="#111" stroke-width="1.44" stroke-linecap="round" stroke-linejoin="round"/>
<path d="M 21.0 5.0 L 20.79 5.12 L 20.58 5.25 L 20.38 5.38 L 20.17 5.5 L 19.96 5.62 L 19.75 5.75 L 19.54 5.88 L 19.33 6.0 L 19.12 6.12 L 18.92 6.25 L 18.71 6.38 L 18.5 6.5 L 18.29 6.62 L 18.08 6.75 L 17.88 6.88 L 17.67 7.0 L 17.46 7.12 L 17.25 7.25 L 17.04 7.38 L 16.83 7.5 L 16.62 7.62 L 16.42 7.75 L 16.21 7.88 L 16.0 8.0" fill="none" stroke="#111" stroke-width="1.44" stroke-linecap="round" stroke-linejoin="round"/>
<path d="M 10.0 13.0 L 10.46 13.0 L 10.92 13.0 L 11.37 13.0 L 11.83 13.0 L 12.29 13.0 L 12.75 13.0 L 13.21 13.0 L 13.67 13.0 L 14.12 13.0 L 14.58 13.0 L 15.04 13.0 L 15.5 13.0 L 15.96 13.0 L 16.42 13.0 L 16.88 13.0 L 17.33 13.0 L 17.79 13.0 L 18.25 13.0 L 18.71 13.0 L 19.17 13.0 L 19.62 13.0 L 20.08 13.0 L 20.54 13.0 L 21.0 13.0" fill="none" stroke="#111" stroke-width="1.44" stroke-linecap="round" stroke-linejoin="round"/>
<path d="M 15.0 12.0 L 15.08 12.23 L 15.15 12.46 L 15.21 12.7 L 15.25 12.94 L 15.27 13.18 L 15.28 13.42 L 15.27 13.66 L 15.25 13.91 L 15.21 14.15 L 15.16 14.38 L 15.09 14.62 L 15.01 14.84 L 14.91 15.07 L 14.8 15.28 L 14.67 15.49 L 14.53 15.69 L 14.38 15.88 L 14.22 16.06 L 14.05 16.23 L 13.87 16.39 L 13.67 16.54 L 13.47 16.67 L 13.26 16.79 L 13.04 16.9 L 13.0 17.0 L 13.0 17.33 L 13.0 17.67 L 13.0 18.0 L 13.0 18.33 L 13.0 18.67 L 13.0 19.0 L 13.0 19.33 L 13.0 19.67 L 13.0 20.0 L 13.0 20.33 L 13.0 20.67 L 13.0 21.0 L 13.0 21.33 L 13.0 21.67 L 13.0 22.0 L 13.0 22.33 L 13.0 22.67 L 13.0 23.0 L 13.0 23.33 L 13.0 23.67 L 13.0 24.0 L 13.0 24.33 L 13.0 24.67 L 13.0 25.0" fill="none" stroke="#111" stroke-width="1.44" stroke-linecap="round" stroke-linejoin="round"/>
<path d="M 15.0 15.0 L 15.17 15.08 L 15.33 15.17 L 15.5 15.25 L 15.67 15.33 L 15.83 15.42 L 16.0 15.5 L 16.17 15.58 L 16.33 15.67 L 16.5 15.75 L 16.67 15.83 L 16.83 15.92 L 17.0 16.0 L 17.17 16.08 L 17.33 16.17 L 17.5 16.25 L 17.67 16.33 L 17.83 16.42 L 18.0 16.5 L 18.17 16.58 L 18.33 16.67 L 18.5 16.75 L 18.67 16.83 L 18.83 16.92 L 19.0 17.0" fill="none" stroke="#111" stroke-width="1.44" stroke-linecap="round" stroke-linejoin="round"/>
<path d="M 19.0 17.0 L 19.0 17.25 L 19.0 17.5 L 19.0 17.75 L 19.0 18.0 L 19.0 18.25 L 19.0 18.5 L 19.0 18.75 L 19.0 19.0 L 19.0 19.25 L 19.0 19.5 L 19.0 19.75 L 19.0 20.0 L 19.0 20.25 L 19.0 20.5 L 19.0 20.75 L 19.0 21.0 L 19.0 21.25 L 19.0 21.5 L 19.0 21.75 L 19.0 22.0 L 19.0 22.25 L 19.0 22.5 L 19.0 22.75 L 19.0 23.0" fill="none" stroke="#111" stroke-width="1.44" stroke-linecap="round" stroke-linejoin="round"/>
<path d="M 15.0 18.0 L 14.83 18.21 L 14.67 18.42 L 14.5 18.62 L 14.33 18.83 L 14.17 19.04 L 14.0 19.25 L 13.83 19.46 L 13.67 19.67 L 13.5 19.88 L 13.33 20.08 L 13.17 20.29 L 13.0 20.5 L 12.83 20.71 L 12.67 20.92 L 12.5 21.12 L 12.33 21.33 L 12.17 21.54 L 12.0 21.75 L 11.83 21.96 L 11.67 22.17 L 11.5 22.38 L 11.33 22.58 L 11.17 22.79 L 11.0 23.0" fill="none" stroke="#111" stroke-width="1.44" stroke-linecap="round" stroke-linejoin="round"/>
<path d="M 16.0 18.0 L 16.25 18.17 L 16.5 18.33 L 16.75 18.5 L 17.0 18.67 L 17.25 18.83 L 17.5 19.0 L 17.75 19.17 L 18.0 19.33 L 18.25 19.5 L 18.5 19.67 L 18.75 19.83 L 19.0 20.0 L 19.25 20.17 L 19.5 20.33 L 19.75 20.5 L 20.0 20.67 L 20.25 20.83 L 20.5 21.0 L 20.75 21.17 L 21.0 21.33 L 21.25 21.5 L 21.5 21.67 L 21.75 21.83 L 22.0 22.0" fill="none" stroke="#111" stroke-width="1.44" stroke-linecap="round" stroke-linejoin="round"/>
<path d="M 13.0 26.0 L 13.08 26.46 L 13.17 26.92 L 13.25 27.38 L 13.33 27.83 L 13.42 28.29 L 13.5 28.75 L 13.58 29.21 L 13.67 29.67 L 13.75 30.12 L 13.83 30.58 L 13.92 31.04 L 14.0 31.5 L 14.08 31.96 L 14.17 32.42 L 14.25 32.88 L 14.33 33.33 L 14.42 33.79 L 14.5 34.25 L 14.58 34.71 L 14.67 35.17 L 14.75 35.62 L 14.83 36.08 L 14.92 36.54 L 15.0 37.0" fill="none" stroke="#111" stroke-width="1.44" stroke-linecap="round" stroke-linejoin="round"/>
<path d="M 16.0 26.0 L 15.96 26.42 L 15.92 26.83 L 15.87 27.25 L 15.83 27.67 L 15.79 28.08 L 15.75 28.5 L 15.71 28.92 L 15.67 29.33 L 15.62 29.75 L 15.58 30.17 L 15.54 30.58 L 15.5 31.0 L 15.46 31.42 L 15.42 31.83 L 15.37 32.25 L 15.33 32.67 L 15.29 33.08 L 15.25 33.5 L 15.21 33.92 L 15.17 34.33 L 15.12 34.75 L 15.08 35.17 L 15.04 35.58 L 15.0 36.0" fill="none" stroke="#111" stroke-width="1.44" stroke-linecap="round" stroke-linejoin="round"/>
<path d="M 20.0 24.0 L 19.97 24.36 L 19.92 24.71 L 19.85 25.06 L 19.75 25.4 L 19.62 25.73 L 19.48 26.06 L 19.31 26.37 L 19.12 26.67 L 18.91 26.96 L 18.68 27.23 L 18.43 27.48 L 18.16 27.72 L 17.88 27.94 L 17.59 28.14 L 17.28 28.32 L 16.96 28.47 L 16.63 28.6 L 16.29 28.71 L 15.94 28.8 L 15.59 28.86 L 15.24 28.9 L 14.88 28.91 L 14.53 28.89 L 14.17 28.86" fill="none" stroke="#111" stroke-width="1.44" stroke-linecap="round" stroke-linejoin="round"/>
<path d="M 7.0 7.0 L 7.1 7.51 L 7.19 8.01 L 7.26 8.53 L 7.31 9.04 L 7.34 9.55 L 7.37 10.07 L 7.37 10.59 L 7.36 11.1 L 7.33 11.62 L 7.28 12.13 L 7.22 12.64 L 7.15 13.15 L 7.05 13.66 L 6.95 14.17 L 6.82 14.67 L 6.68 15.16 L 6.52 15.66 L 6.35 16.14 L 6.17 16.62 L 5.97 17.1 L 5.75 17.57 L 5.52 18.03 L 5.27 18.48 L 5.01 18.93" fill="none" stroke="#111" stroke-width="1.44" stroke-linecap="round" stroke-linejoin="round"/>
<path d="M 9.0 17.0 L 8.79 17.29 L 8.58 17.58 L 8.37 17.88 L 8.17 18.17 L 7.96 18.46 L 7.75 18.75 L 7.54 19.04 L 7.33 19.33 L 7.12 19.62 L 6.92 19.92 L 6.71 20.21 L 6.5 20.5 L 6.29 20.79 L 6.08 21.08 L 5.88 21.38 L 5.67 21.67 L 5.46 21.96 L 5.25 22.25 L 5.04 22.54 L 4.83 22.83 L 4.62 23.12 L 4.42 23.42 L 4.21 23.71 L 4.0 24.0" fill="none" stroke="#111" stroke-width="1.44" stroke-linecap="round" stroke-linejoin="round"/>
<path d="M 8.0 18.0 L 8.0 18.46 L 8.0 18.92 L 8.0 19.38 L 8.0 19.83 L 8.0 20.29 L 8.0 20.75 L 8.0 21.21 L 8.0 21.67 L 8.0 22.12 L 8.0 22.58 L 8.0 23.04 L 8.0 23.5 L 8.0 23.96 L 8.0 24.42 L 8.0 24.88 L 8.0 25.33 L 8.0 25.79 L 8.0 26.25 L 8.0 26.71 L 8.0 27.17 L 8.0 27.62 L 8.0 28.08 L 8.0 28.54 L 8.0 29.0" fill="none" stroke="#111" stroke-width="1.44" stroke-linecap="round" stroke-linejoin="round"/>
</svg>
