<?xml version="1.0" encoding="UTF-8"?>
<svg xmlns="http://www.w3.org/2000/svg" viewBox="0 0 27.19 33.00">
<path d="M 8.24 4.0 L 8.74 4.04 L 9.24 4.08 L 9.74 4.12 L 10.24 4.17 L 10.74 4.21 L 11.24 4.25 L 11.74 4.29 L 12.24 4.33 L 12.74 4.38 L 13.24 4.42 L 13.74 4.46 L 14.24 4.5 L 14.74 4.54 L 15.24 4.58 L 15.74 4.62 L 16.24 4.67 L 16.74 4.71 L 17.24 4.75 L 17.74 4.79 L 18.24 4.83 L 18.74 4.88 L 19.24 4.92 L 19.74 4.96 L 20.24 5.0 L 20.24 5.0 L 19.71 5.88 L 19.22 6.79 L 18.79 7.73 L 18.42 8.69 L 18.1 9.67 L 17.84 10.67 L 17.64 11.68 L 17.5 12.7 L 17.43 13.73 L 17.41 14.76 L 17.45 15.79 L 17.55 16.82 L 17.72 17.84 L 17.94 18.85 L 18.22 19.84 L 18.56 20.81 L 18.96 21.76 L 19.41 22.69 L 19.92 23.59 L 20.47 24.46 L 21.08 25.29 L 21.74 26.09 L 22.44 26.84 L 23.19 27.56" fill="none" stroke="#111" stroke-width="1.16" stroke-linecap="round" stroke-linejoin="round"/>
<path d="M 10.24 9.0 L 10.58 9.08 L 10.91 9.17 L 11.24 9.25 L 11.58 9.33 L 11.91 9.42 L 12.24 9.5 L 12.58 9.58 L 12.91 9.67 L 13.24 9.75 L 13.58 9.83 L 13.91 9.92 L 14.24 10.0 L 14.58 10.08 L 14.91 10.17 L 15.24 10.25 L 15.58 10.33 L 15.91 10.42 L 16.24 10.5 L 16.58 10.58 L 16.91 10.67 L 17.24 10.75 L 17.58 10.83 L 17.91 10.92 L 18.24 11.0" fill="none" stroke="#111" stroke-width="1.16" stroke-linecap="round" stroke-linejoin="round"/>
<path d="M 5.24 19.0 L 4.94 19.43 L 4.68 19.87 L 4.46 20.34 L 4.28 20.83 L 4.15 21.33 L 4.05 21.84 L 4.0 22.36 L 4.0 22.88 L 4.04 23.4 L 4.13 23.91 L 4.25 24.41 L 4.43 24.9 L 4.64 25.38 L 4.89 25.83 L 5.19 26.26 L 5.51 26.66 L 5.87 27.04 L 6.27 27.38 L 6.69 27.68 L 7.13 27.95 L 7.6 28.18 L 8.08 28.37 L 8.58 28.52 L 9.09 28.62 L 9.24 29.0 L 9.37 28.92 L 9.49 28.83 L 9.62 28.75 L 9.74 28.67 L 9.87 28.58 L 9.99 28.5 L 10.12 28.42 L 10.24 28.33 L 10.37 28.25 L 10.49 28.17 L 10.62 28.08 L 10.74 28.0 L 10.87 27.92 L 10.99 27.83 L 11.12 27.75 L 11.24 27.67 L 11.37 27.58 L 11.49 27.5 L 11.62 27.42 L 11.74 27.33 L 11.87 27.25 L 11.99 27.17 L 12.12 27.08 L 12.24 27.0" fill="none" stroke="#111" stroke-width="1.16" stroke-linecap="round" stroke-linejoin="round"/>
<path d="M 13.24 16.0 L 13.2 16.46 L 13.16 16.92 L 13.12 17.38 L 13.08 17.83 L 13.03 18.29 L 12.99 18.75 L 12.95 19.21 L 12.91 19.67 L 12.87 20.12 L 12.83 20.58 L 12.78 21.04 L 12.74 21.5 L 12.7 21.96 L 12.66 22.42 L 12.62 22.88 L 12.58 23.33 L 12.53 23.79 L 12.49 24.25 L 12.45 24.71 L 12.41 25.17 L 12.37 25.62 L 12.33 26.08 L 12.28 26.54 L 12.24 27.0" fill="none" stroke="#111" stroke-width="1.16" stroke-linecap="round" stroke-linejoin="round"/>
<path d="M 5.24 23.0 L 5.53 23.0 L 5.83 23.0 L 6.12 23.0 L 6.41 23.0 L 6.7 23.0 L 6.99 23.0 L 7.28 23.0 L 7.58 23.0 L 7.87 23.0 L 8.16 23.0 L 8.45 23.0 L 8.74 23.0 L 9.03 23.0 L 9.33 23.0 L 9.62 23.0 L 9.91 23.0 L 10.2 23.0 L 10.49 23.0 L 10.78 23.0 L 11.08 23.0 L 11.37 23.0 L 11.66 23.0 L 11.95 23.0 L 12.24 23.0" fill="none" stroke="#111" stroke-width="1.16" stroke-linecap="round" stroke-linejoin="round"/>
</svg>
