<?xml version="1.0" encoding="UTF-8"?>
<svg xmlns="http://www.w3.org/2000/svg" viewBox="0 0 27.00 35.00">
<path d="M 15.0 4.0 L 15.31 4.5 L 15.58 5.02 L 15.82 5.55 L 16.03 6.1 L 16.21 6.66 L 16.35 7.22 L 16.45 7.8 L 16.53 8.38 L 16.56 8.97 L 16.56 9.55 L 16.53 10.14 L 16.45 10.72 L 16.35 11.29 L 16.21 11.86 L 16.03 12.42 L 15.82 12.97 L 15.58 13.5 L 15.3 14.02 L 15.0 14.52 L 14.66 15.0 L 14.3 15.45 L 13.91 15.89 L 13.49 16.3 L 13.05 16.69 L 13.0 17.0 L 13.08 17.58 L 13.17 18.17 L 13.25 18.75 L 13.33 19.33 L 13.42 19.92 L 13.5 20.5 L 13.58 21.08 L 13.67 21.67 L 13.75 22.25 L 13.83 22.83 L 13.92 23.42 L 14.0 24.0 L 14.08 24.58 L 14.17 25.17 L 14.25 25.75 L 14.33 26.33 L 14.42 26.92 L 14.5 27.5 L 14.58 28.08 L 14.67 28.67 L 14.75 29.25 L 14.83 29.83 L 14.92 30.42 L 15.0 31.0" fill="none" stroke="#111" stroke-width="1.23" stroke-linecap="round" stroke-linejoin="round"/>
<path d="M 16.0 13.0 L 16.29 13.38 L 16.58 13.75 L 16.88 14.12 L 17.17 14.5 L 17.46 14.88 L 17.75 15.25 L 18.04 15.62 L 18.33 16.0 L 18.62 16.38 L 18.92 16.75 L 19.21 17.12 L 19.5 17.5 L 19.79 17.88 L 20.08 18.25 L 20.38 18.62 L 20.67 19.0 L 20.96 19.38 L 21.25 19.75 L 21.54 20.12 L 21.83 20.5 L 22.12 20.88 L 22.42 21.25 L 22.71 21.62 L 23.0 22.0" fill="none" stroke="#111" stroke-width="1.23" stroke-linecap="round" stroke-linejoin="round"/>
<path d="M 8.0 15.0 L 8.12 15.62 L 8.25 16.25 L 8.38 16.88 L 8.5 17.5 L 8.62 18.12 L 8.75 18.75 L 8.88 19.38 L 9.0 20.0 L 9.12 20.62 L 9.25 21.25 L 9.38 21.88 L 9.5 22.5 L 9.62 23.12 L 9.75 23.75 L 9.88 24.38 L 10.0 25.0 L 10.12 25.63 L 10.25 26.25 L 10.38 26.88 L 10.5 27.5 L 10.62 28.12 L 10.75 28.75 L 10.88 29.38 L 11.0 30.0" fill="none" stroke="#111" stroke-width="1.23" stroke-linecap="round" stroke-linejoin="round"/>
<path d="M 4.0 21.0 L 4.29 21.38 L 4.58 21.75 L 4.88 22.12 L 5.17 22.5 L 5.46 22.88 L 5.75 23.25 L 6.04 23.62 L 6.33 24.0 L 6.62 24.38 L 6.92 24.75 L 7.21 25.12 L 7.5 25.5 L 7.79 25.88 L 8.08 26.25 L 8.38 26.62 L 8.67 27.0 L 8.96 27.38 L 9.25 27.75 L 9.54 28.12 L 9.83 28.5 L 10.12 28.88 L 10.42 29.25 L 10.71 29.62 L 11.0 30.0" fill="none" stroke="#111" stroke-width="1.23" stroke-linecap="round" stroke-linejoin="round"/>
<path d="M 6.0 23.0 L 6.25 22.62 L 6.5 22.25 L 6.75 21.88 L 7.0 21.5 L 7.25 21.12 L 7.5 20.75 L 7.75 20.38 L 8.0 20.0 L 8.25 19.62 L 8.5 19.25 L 8.75 18.88 L 9.0 18.5 L 9.25 18.12 L 9.5 17.75 L 9.75 17.38 L 10.0 17.0 L 10.25 16.62 L 10.5 16.25 L 10.75 15.88 L 11.0 15.5 L 11.25 15.12 L 11.5 14.75 L 11.75 14.38 L 12.0 14.0" fill="none" stroke="#111" stroke-width="1.23" stroke-linecap="round" stroke-linejoin="round"/>
</svg>
