<?xml version="1.0" encoding="UTF-8"?>
<svg xmlns="http://www.w3.org/2000/svg" viewBox="0 0 31.65 36.00">
<path d="M 10.9 11.0 L 10.98 10.83 L 11.07 10.67 L 11.15 10.5 L 11.23 10.33 L 11.32 10.17 L 11.4 10.0 L 11.48 9.83 L 11.57 9.67 L 11.65 9.5 L 11.73 9.33 L 11.82 9.17 L 11.9 9.0 L 11.98 8.83 L 12.07 8.67 L 12.15 8.5 L 12.23 8.33 L 12.32 8.17 L 12.4 8.0 L 12.48 7.83 L 12.57 7.67 L 12.65 7.5 L 12.73 7.33 L 12.82 7.17 L 12.9 7.0 L 12.9 7.0 L 13.19 7.0 L 13.48 7.0 L 13.78 7.0 L 14.07 7.0 L 14.36 7.0 L 14.65 7.0 L 14.94 7.0 L 15.23 7.0 L 15.53 7.0 L 15.82 7.0 L 16.11 7.0 L 16.4 7.0 L 16.69 7.0 L 16.98 7.0 L 17.28 7.0 L 17.57 7.0 L 17.86 7.0 L 18.15 7.0 L 18.44 7.0 L 18.73 7.0 L 19.03 7.0 L 19.32 7.0 L 19.61 7.0 L 19.9 7.0" fill="none" stroke="#111" stroke-width="1.26" stroke-linecap="round" stroke-linejoin="round"/>
<path d="M 10.9 11.0 L 11.32 11.06 L 11.75 11.09 L 12.17 11.11 L 12.6 11.1 L 13.02 11.08 L 13.44 11.03 L 13.86 10.97 L 14.28 10.88 L 14.69 10.78 L 15.1 10.65 L 15.5 10.51 L 15.89 10.34 L 16.28 10.16 L 16.65 9.96 L 17.02 9.74 L 17.37 9.51 L 17.71 9.26 L 18.05 8.99 L 18.36 8.7 L 18.67 8.41 L 18.95 8.09 L 19.23 7.77 L 19.48 7.43 L 19.73 7.08" fill="none" stroke="#111" stroke-width="1.26" stroke-linecap="round" stroke-linejoin="round"/>
<path d="M 13.9 7.0 L 13.86 7.08 L 13.82 7.17 L 13.78 7.25 L 13.73 7.33 L 13.69 7.42 L 13.65 7.5 L 13.61 7.58 L 13.57 7.67 L 13.53 7.75 L 13.48 7.83 L 13.44 7.92 L 13.4 8.0 L 13.36 8.08 L 13.32 8.17 L 13.28 8.25 L 13.23 8.33 L 13.19 8.42 L 13.15 8.5 L 13.11 8.58 L 13.07 8.67 L 13.03 8.75 L 12.98 8.83 L 12.94 8.92 L 12.9 9.0 L 12.9 9.0 L 12.98 9.04 L 13.07 9.08 L 13.15 9.12 L 13.23 9.17 L 13.32 9.21 L 13.4 9.25 L 13.48 9.29 L 13.57 9.33 L 13.65 9.38 L 13.73 9.42 L 13.82 9.46 L 13.9 9.5 L 13.98 9.54 L 14.07 9.58 L 14.15 9.62 L 14.23 9.67 L 14.32 9.71 L 14.4 9.75 L 14.48 9.79 L 14.57 9.83 L 14.65 9.88 L 14.73 9.92 L 14.82 9.96 L 14.9 10.0" fill="none" stroke="#111" stroke-width="1.26" stroke-linecap="round" stroke-linejoin="round"/>
<path d="M 13.9 7.0 L 13.98 7.0 L 14.07 7.0 L 14.15 7.0 L 14.23 7.0 L 14.32 7.0 L 14.4 7.0 L 14.48 7.0 L 14.57 7.0 L 14.65 7.0 L 14.73 7.0 L 14.82 7.0 L 14.9 7.0 L 14.98 7.0 L 15.07 7.0 L 15.15 7.0 L 15.23 7.0 L 15.32 7.0 L 15.4 7.0 L 15.48 7.0 L 15.57 7.0 L 15.65 7.0 L 15.73 7.0 L 15.82 7.0 L 15.9 7.0 L 15.9 7.0 L 15.92 7.13 L 15.93 7.27 L 15.93 7.4 L 15.93 7.54 L 15.93 7.67 L 15.92 7.81 L 15.9 7.94 L 15.88 8.07 L 15.86 8.21 L 15.83 8.34 L 15.79 8.47 L 15.75 8.6 L 15.71 8.72 L 15.66 8.85 L 15.6 8.97 L 15.54 9.09 L 15.48 9.21 L 15.41 9.33 L 15.34 9.44 L 15.26 9.55 L 15.18 9.66 L 15.09 9.77 L 15.0 9.87 L 14.91 9.96" fill="none" stroke="#111" stroke-width="1.26" stroke-linecap="round" stroke-linejoin="round"/>
<path d="M 11.9 22.0 L 12.23 22.0 L 12.57 22.0 L 12.9 22.0 L 13.23 22.0 L 13.57 22.0 L 13.9 22.0 L 14.23 22.0 L 14.57 22.0 L 14.9 22.0 L 15.23 22.0 L 15.57 22.0 L 15.9 22.0 L 16.23 22.0 L 16.57 22.0 L 16.9 22.0 L 17.23 22.0 L 17.57 22.0 L 17.9 22.0 L 18.23 22.0 L 18.57 22.0 L 18.9 22.0 L 19.23 22.0 L 19.57 22.0 L 19.9 22.0" fill="none" stroke="#111" stroke-width="1.26" stroke-linecap="round" stroke-linejoin="round"/>
<path d="M 15.9 18.0 L 15.9 18.54 L 15.9 19.08 L 15.9 19.62 L 15.9 20.17 L 15.9 20.71 L 15.9 21.25 L 15.9 21.79 L 15.9 22.33 L 15.9 22.88 L 15.9 23.42 L 15.9 23.96 L 15.9 24.5 L 15.9 25.04 L 15.9 25.58 L 15.9 26.12 L 15.9 26.67 L 15.9 27.21 L 15.9 27.75 L 15.9 28.29 L 15.9 28.83 L 15.9 29.38 L 15.9 29.92 L 15.9 30.46 L 15.9 31.0" fill="none" stroke="#111" stroke-width="1.26" stroke-linecap="round" stroke-linejoin="round"/>
<path d="M 15.9 22.0 L 15.78 22.33 L 15.65 22.67 L 15.53 23.0 L 15.4 23.33 L 15.28 23.67 L 15.15 24.0 L 15.03 24.33 L 14.9 24.67 L 14.78 25.0 L 14.65 25.33 L 14.53 25.67 L 14.4 26.0 L 14.28 26.33 L 14.15 26.67 L 14.03 27.0 L 13.9 27.33 L 13.78 27.67 L 13.65 28.0 L 13.53 28.33 L 13.4 28.67 L 13.28 29.0 L 13.15 29.33 L 13.03 29.67 L 12.9 30.0" fill="none" stroke="#111" stroke-width="1.26" stroke-linecap="round" stroke-linejoin="round"/>
<path d="M 7.9 6.0 L 8.23 6.54 L 8.51 7.1 L 8.75 7.68 L 8.96 8.28 L 9.11 8.89 L 9.22 9.51 L 9.29 10.14 L 9.31 10.77 L 9.28 11.4 L 9.21 12.03 L 9.09 12.64 L 8.93 13.25 L 8.72 13.85 L 8.47 14.43 L 8.18 14.99 L 7.85 15.52 L 7.47 16.03 L 7.07 16.51 L 6.63 16.96 L 6.16 17.38 L 5.65 17.76 L 5.12 18.11 L 4.57 18.41 L 4.0 18.68" fill="none" stroke="#111" stroke-width="1.26" stroke-linecap="round" stroke-linejoin="round"/>
<path d="M 9.9 19.0 L 9.69 19.21 L 9.48 19.42 L 9.28 19.62 L 9.07 19.83 L 8.86 20.04 L 8.65 20.25 L 8.44 20.46 L 8.23 20.67 L 8.03 20.88 L 7.82 21.08 L 7.61 21.29 L 7.4 21.5 L 7.19 21.71 L 6.98 21.92 L 6.78 22.12 L 6.57 22.33 L 6.36 22.54 L 6.15 22.75 L 5.94 22.96 L 5.73 23.17 L 5.53 23.38 L 5.32 23.58 L 5.11 23.79 L 4.9 24.0" fill="none" stroke="#111" stroke-width="1.26" stroke-linecap="round" stroke-linejoin="round"/>
<path d="M 8.9 20.0 L 8.9 20.46 L 8.9 20.92 L 8.9 21.38 L 8.9 21.83 L 8.9 22.29 L 8.9 22.75 L 8.9 23.21 L 8.9 23.67 L 8.9 24.12 L 8.9 24.58 L 8.9 25.04 L 8.9 25.5 L 8.9 25.96 L 8.9 26.42 L 8.9 26.88 L 8.9 27.33 L 8.9 27.79 L 8.9 28.25 L 8.9 28.71 L 8.9 29.17 L 8.9 29.62 L 8.9 30.08 L 8.9 30.54 L 8.9 31.0" fill="none" stroke="#111" stroke-width="1.26" stroke-linecap="round" stroke-linejoin="round"/>
<path d="M 11.9 5.0 L 12.03 4.94 L 12.16 4.9 L 12.3 4.86 L 12.44 4.82 L 12.58 4.8 L 12.72 4.79 L 12.86 4.79 L 13.01 4.79 L 13.15 4.8 L 13.29 4.83 L 13.43 4.86 L 13.56 4.9 L 13.7 4.95 L 13.83 5.01 L 13.95 5.07 L 14.07 5.15 L 14.19 5.23 L 14.3 5.32 L 14.41 5.41 L 14.51 5.51 L 14.6 5.62 L 14.69 5.74 L 14.76 5.85 L 14.83 5.98" fill="none" stroke="#111" stroke-width="1.26" stroke-linecap="round" stroke-linejoin="round"/>
<path d="M 15.9 4.0 L 15.98 4.0 L 16.07 4.0 L 16.15 4.0 L 16.23 4.0 L 16.32 4.0 L 16.4 4.0 L 16.48 4.0 L 16.57 4.0 L 16.65 4.0 L 16.73 4.0 L 16.82 4.0 L 16.9 4.0 L 16.98 4.0 L 17.07 4.0 L 17.15 4.0 L 17.23 4.0 L 17.32 4.0 L 17.4 4.0 L 17.48 4.0 L 17.57 4.0 L 17.65 4.0 L 17.73 4.0 L 17.82 4.0 L 17.9 4.0 L 17.9 4.0 L 17.9 4.12 L 17.9 4.25 L 17.9 4.38 L 17.9 4.5 L 17.9 4.62 L 17.9 4.75 L 17.9 4.88 L 17.9 5.0 L 17.9 5.12 L 17.9 5.25 L 17.9 5.38 L 17.9 5.5 L 17.9 5.62 L 17.9 5.75 L 17.9 5.88 L 17.9 6.0 L 17.9 6.12 L 17.9 6.25 L 17.9 6.38 L 17.9 6.5 L 17.9 6.62 L 17.9 6.75 L 17.9 6.88 L 17.9 7.0" fill="none" stroke="#111" stroke-width="1.26" stroke-linecap="round" stroke-linejoin="round"/>
<path d="M 20.9 6.0 L 20.57 6.6 L 20.3 7.22 L 20.08 7.87 L 19.92 8.53 L 19.83 9.21 L 19.79 9.89 L 19.81 10.57 L 19.9 11.25 L 20.04 11.91 L 20.25 12.56 L 20.51 13.19 L 20.82 13.8 L 21.19 14.37 L 21.61 14.91 L 22.08 15.41 L 22.59 15.86 L 23.14 16.27 L 23.72 16.62 L 24.33 16.93 L 24.96 17.17 L 25.62 17.36 L 26.29 17.49 L 26.97 17.56 L 27.65 17.57" fill="none" stroke="#111" stroke-width="1.26" stroke-linecap="round" stroke-linejoin="round"/>
<path d="M 21.9 20.0 L 21.9 20.5 L 21.9 21.0 L 21.9 21.5 L 21.9 22.0 L 21.9 22.5 L 21.9 23.0 L 21.9 23.5 L 21.9 24.0 L 21.9 24.5 L 21.9 25.0 L 21.9 25.5 L 21.9 26.0 L 21.9 26.5 L 21.9 27.0 L 21.9 27.5 L 21.9 28.0 L 21.9 28.5 L 21.9 29.0 L 21.9 29.5 L 21.9 30.0 L 21.9 30.5 L 21.9 31.0 L 21.9 31.5 L 21.9 32.0" fill="none" stroke="#111" stroke-width="1.26" stroke-linecap="round" stroke-linejoin="round"/>
<path d="M 21.9 20.0 L 22.11 20.17 L 22.32 20.33 L 22.53 20.5 L 22.73 20.67 L 22.94 20.83 L 23.15 21.0 L 23.36 21.17 L 23.57 21.33 L 23.78 21.5 L 23.98 21.67 L 24.19 21.83 L 24.4 22.0 L 24.61 22.17 L 24.82 22.33 L 25.03 22.5 L 25.23 22.67 L 25.44 22.83 L 25.65 23.0 L 25.86 23.17 L 26.07 23.33 L 26.28 23.5 L 26.48 23.67 L 26.69 23.83 L 26.9 24.0" fill="none" stroke="#111" stroke-width="1.26" stroke-linecap="round" stroke-linejoin="round"/>
</svg>
