<?xml version="1.0" encoding="UTF-8"?>
<svg xmlns="http://www.w3.org/2000/svg" viewBox="0 0 20.00 37.00">
<path d="M 10.0 5.0 L 9.89 5.35 L 9.77 5.69 L 9.64 6.03 L 9.5 6.36 L 9.35 6.69 L 9.19 7.02 L 9.03 7.34 L 8.85 7.66 L 8.67 7.98 L 8.48 8.29 L 8.28 8.59 L 8.07 8.89 L 7.86 9.18 L 7.64 9.47 L 7.41 9.75 L 7.17 10.02 L 6.92 10.29 L 6.67 10.55 L 6.41 10.81 L 6.15 11.05 L 5.87 11.29 L 5.6 11.53 L 5.31 11.75 L 5.02 11.97" fill="none" stroke="#111" stroke-width="1.30" stroke-linecap="round" stroke-linejoin="round"/>
<path d="M 10.0 5.0 L 10.17 5.25 L 10.33 5.5 L 10.5 5.75 L 10.67 6.0 L 10.83 6.25 L 11.0 6.5 L 11.17 6.75 L 11.33 7.0 L 11.5 7.25 L 11.67 7.5 L 11.83 7.75 L 12.0 8.0 L 12.17 8.25 L 12.33 8.5 L 12.5 8.75 L 12.67 9.0 L 12.83 9.25 L 13.0 9.5 L 13.17 9.75 L 13.33 10.0 L 13.5 10.25 L 13.67 10.5 L 13.83 10.75 L 14.0 11.0" fill="none" stroke="#111" stroke-width="1.30" stroke-linecap="round" stroke-linejoin="round"/>
<path d="M 10.0 4.0 L 10.0 5.21 L 10.0 6.42 L 10.0 7.62 L 10.0 8.83 L 10.0 10.04 L 10.0 11.25 L 10.0 12.46 L 10.0 13.67 L 10.0 14.88 L 10.0 16.08 L 10.0 17.29 L 10.0 18.5 L 10.0 19.71 L 10.0 20.92 L 10.0 22.12 L 10.0 23.33 L 10.0 24.54 L 10.0 25.75 L 10.0 26.96 L 10.0 28.17 L 10.0 29.38 L 10.0 30.58 L 10.0 31.79 L 10.0 33.0" fill="none" stroke="#111" stroke-width="1.30" stroke-linecap="round" stroke-linejoin="round"/>
<path d="M 4.0 13.0 L 4.0 13.25 L 4.0 13.5 L 4.0 13.75 L 4.0 14.0 L 4.0 14.25 L 4.0 14.5 L 4.0 14.75 L 4.0 15.0 L 4.0 15.25 L 4.0 15.5 L 4.0 15.75 L 4.0 16.0 L 4.0 16.25 L 4.0 16.5 L 4.0 16.75 L 4.0 17.0 L 4.0 17.25 L 4.0 17.5 L 4.0 17.75 L 4.0 18.0 L 4.0 18.25 L 4.0 18.5 L 4.0 18.75 L 4.0 19.0" fill="none" stroke="#111" stroke-width="1.30" stroke-linecap="round" stroke-linejoin="round"/>
<path d="M 4.0 15.0 L 4.5 15.0 L 5.0 15.0 L 5.5 15.0 L 6.0 15.0 L 6.5 15.0 L 7.0 15.0 L 7.5 15.0 L 8.0 15.0 L 8.5 15.0 L 9.0 15.0 L 9.5 15.0 L 10.0 15.0 L 10.5 15.0 L 11.0 15.0 L 11.5 15.0 L 12.0 15.0 L 12.5 15.0 L 13.0 15.0 L 13.5 15.0 L 14.0 15.0 L 14.5 15.0 L 15.0 15.0 L 15.5 15.0 L 16.0 15.0" fill="none" stroke="#111" stroke-width="1.30" stroke-linecap="round" stroke-linejoin="round"/>
<path d="M 16.0 13.0 L 16.0 13.29 L 16.0 13.58 L 16.0 13.88 L 16.0 14.17 L 16.0 14.46 L 16.0 14.75 L 16.0 15.04 L 16.0 15.33 L 16.0 15.62 L 16.0 15.92 L 16.0 16.21 L 16.0 16.5 L 16.0 16.79 L 16.0 17.08 L 16.0 17.38 L 16.0 17.67 L 16.0 17.96 L 16.0 18.25 L 16.0 18.54 L 16.0 18.83 L 16.0 19.12 L 16.0 19.42 L 16.0 19.71 L 16.0 20.0" fill="none" stroke="#111" stroke-width="1.30" stroke-linecap="round" stroke-linejoin="round"/>
<path d="M 10.0 24.0 L 9.79 24.17 L 9.58 24.33 L 9.38 24.5 L 9.17 24.67 L 8.96 24.83 L 8.75 25.0 L 8.54 25.17 L 8.33 25.33 L 8.12 25.5 L 7.92 25.67 L 7.71 25.83 L 7.5 26.0 L 7.29 26.17 L 7.08 26.33 L 6.88 26.5 L 6.67 26.67 L 6.46 26.83 L 6.25 27.0 L 6.04 27.17 L 5.83 27.33 L 5.62 27.5 L 5.42 27.67 L 5.21 27.83 L 5.0 28.0" fill="none" stroke="#111" stroke-width="1.30" stroke-linecap="round" stroke-linejoin="round"/>
<path d="M 10.0 23.0 L 10.17 23.21 L 10.33 23.42 L 10.5 23.62 L 10.67 23.83 L 10.83 24.04 L 11.0 24.25 L 11.17 24.46 L 11.33 24.67 L 11.5 24.88 L 11.67 25.08 L 11.83 25.29 L 12.0 25.5 L 12.17 25.71 L 12.33 25.92 L 12.5 26.12 L 12.67 26.33 L 12.83 26.54 L 13.0 26.75 L 13.17 26.96 L 13.33 27.17 L 13.5 27.38 L 13.67 27.58 L 13.83 27.79 L 14.0 28.0" fill="none" stroke="#111" stroke-width="1.30" stroke-linecap="round" stroke-linejoin="round"/>
</svg>
