<?xml version="1.0" encoding="UTF-8"?>
<svg xmlns="http://www.w3.org/2000/svg" viewBox="0 0 18.83 34.31">
<path d="M 10.0 4.0 L 9.22 4.48 L 8.49 5.03 L 7.8 5.64 L 7.17 6.3 L 6.59 7.01 L 6.08 7.77 L 5.63 8.57 L 5.25 9.4 L 4.94 10.26 L 4.7 11.15 L 4.54 12.05 L 4.45 12.96 L 4.44 13.88 L 4.51 14.79 L 4.65 15.7 L 4.87 16.59 L 5.16 17.46 L 5.52 18.3 L 5.95 19.11 L 6.45 19.87 L 7.01 20.6 L 7.63 21.27 L 8.31 21.9 L 9.03 22.46" fill="none" stroke="#111" stroke-width="1.20" stroke-linecap="round" stroke-linejoin="round"/>
<path d="M 10.0 4.0 L 10.08 4.17 L 10.17 4.33 L 10.25 4.5 L 10.33 4.67 L 10.42 4.83 L 10.5 5.0 L 10.58 5.17 L 10.67 5.33 L 10.75 5.5 L 10.83 5.67 L 10.92 5.83 L 11.0 6.0 L 11.08 6.17 L 11.17 6.33 L 11.25 6.5 L 11.33 6.67 L 11.42 6.83 L 11.5 7.0 L 11.58 7.17 L 11.67 7.33 L 11.75 7.5 L 11.83 7.67 L 11.92 7.83 L 12.0 8.0 L 12.0 8.0 L 11.67 8.21 L 11.33 8.42 L 11.0 8.62 L 10.67 8.83 L 10.33 9.04 L 10.0 9.25 L 9.67 9.46 L 9.33 9.67 L 9.0 9.88 L 8.67 10.08 L 8.33 10.29 L 8.0 10.5 L 7.67 10.71 L 7.33 10.92 L 7.0 11.12 L 6.67 11.33 L 6.33 11.54 L 6.0 11.75 L 5.67 11.96 L 5.33 12.17 L 5.0 12.38 L 4.67 12.58 L 4.33 12.79 L 4.0 13.0" fill="none" stroke="#111" stroke-width="1.20" stroke-linecap="round" stroke-linejoin="round"/>
<path d="M 4.0 13.0 L 4.6 12.94 L 5.2 12.94 L 5.79 13.01 L 6.38 13.13 L 6.95 13.32 L 7.49 13.57 L 8.01 13.87 L 8.49 14.22 L 8.93 14.63 L 9.33 15.08 L 9.68 15.56 L 9.98 16.08 L 10.22 16.63 L 10.4 17.2 L 10.52 17.79 L 10.57 18.39 L 10.57 18.99 L 10.5 19.58 L 10.37 20.17 L 10.18 20.73 L 9.93 21.28 L 9.62 21.79 L 9.26 22.27 L 8.86 22.72" fill="none" stroke="#111" stroke-width="1.20" stroke-linecap="round" stroke-linejoin="round"/>
<path d="M 6.0 25.0 L 5.86 25.71 L 5.85 26.44 L 5.96 27.16 L 6.2 27.85 L 6.56 28.48 L 7.01 29.05 L 7.56 29.52 L 8.19 29.9 L 8.86 30.16 L 9.58 30.3 L 10.31 30.31 L 11.02 30.19 L 11.71 29.96 L 12.35 29.6 L 12.91 29.15 L 13.39 28.6 L 13.76 27.97 L 14.02 27.29 L 14.16 26.58 L 14.17 25.85 L 14.06 25.14 L 13.82 24.45 L 13.47 23.81 L 13.01 23.25" fill="none" stroke="#111" stroke-width="1.20" stroke-linecap="round" stroke-linejoin="round"/>
<path d="M 6.0 28.0 L 6.59 27.91 L 7.18 27.78 L 7.75 27.62 L 8.32 27.42 L 8.88 27.19 L 9.41 26.93 L 9.94 26.64 L 10.44 26.31 L 10.93 25.96 L 11.39 25.58 L 11.83 25.17 L 12.24 24.74 L 12.63 24.28 L 12.99 23.8 L 13.32 23.3 L 13.62 22.78 L 13.89 22.25 L 14.13 21.7 L 14.33 21.13 L 14.5 20.56 L 14.63 19.98 L 14.73 19.38 L 14.8 18.79 L 14.83 18.19" fill="none" stroke="#111" stroke-width="1.20" stroke-linecap="round" stroke-linejoin="round"/>
</svg>
