<?xml version="1.0" encoding="UTF-8"?>
<svg xmlns="http://www.w3.org/2000/svg" viewBox="0 0 23.00 37.00">
<path d="M 6.0 14.0 L 6.0 13.83 L 6.0 13.67 L 6.0 13.5 L 6.0 13.33 L 6.0 13.17 L 6.0 13.0 L 6.0 12.83 L 6.0 12.67 L 6.0 12.5 L 6.0 12.33 L 6.0 12.17 L 6.0 12.0 L 6.0 11.83 L 6.0 11.67 L 6.0 11.5 L 6.0 11.33 L 6.0 11.17 L 6.0 11.0 L 6.0 10.83 L 6.0 10.67 L 6.0 10.5 L 6.0 10.33 L 6.0 10.17 L 6.0 10.0 L 6.0 10.0 L 6.5 10.0 L 7.0 10.0 L 7.5 10.0 L 8.0 10.0 L 8.5 10.0 L 9.0 10.0 L 9.5 10.0 L 10.0 10.0 L 10.5 10.0 L 11.0 10.0 L 11.5 10.0 L 12.0 10.0 L 12.5 10.0 L 13.0 10.0 L 13.5 10.0 L 14.0 10.0 L 14.5 10.0 L 15.0 10.0 L 15.5 10.0 L 16.0 10.0 L 16.5 10.0 L 17.0 10.0 L 17.5 10.0 L 18.0 10.0" fill="none" stroke="#111" stroke-width="1.30" stroke-linecap="round" stroke-linejoin="round"/>
<path d="M 10.0 10.0 L 9.82 10.17 L 9.65 10.36 L 9.51 10.56 L 9.38 10.77 L 9.27 11.0 L 9.18 11.23 L 9.11 11.47 L 9.06 11.71 L 9.03 11.96 L 9.02 12.21 L 9.04 12.46 L 9.08 12.71 L 9.14 12.95 L 9.22 13.19 L 9.32 13.41 L 9.44 13.63 L 9.58 13.84 L 9.74 14.03 L 9.91 14.21 L 10.1 14.38 L 10.3 14.52 L 10.51 14.65 L 10.74 14.76 L 10.97 14.85 L 11.0 15.0 L 11.08 14.92 L 11.17 14.83 L 11.25 14.75 L 11.33 14.67 L 11.42 14.58 L 11.5 14.5 L 11.58 14.42 L 11.67 14.33 L 11.75 14.25 L 11.83 14.17 L 11.92 14.08 L 12.0 14.0 L 12.08 13.92 L 12.17 13.83 L 12.25 13.75 L 12.33 13.67 L 12.42 13.58 L 12.5 13.5 L 12.58 13.42 L 12.67 13.33 L 12.75 13.25 L 12.83 13.17 L 12.92 13.08 L 13.0 13.0 L 13.0 13.0 L 12.96 12.88 L 12.92 12.75 L 12.88 12.62 L 12.83 12.5 L 12.79 12.38 L 12.75 12.25 L 12.71 12.12 L 12.67 12.0 L 12.62 11.88 L 12.58 11.75 L 12.54 11.62 L 12.5 11.5 L 12.46 11.38 L 12.42 11.25 L 12.38 11.12 L 12.33 11.0 L 12.29 10.88 L 12.25 10.75 L 12.21 10.62 L 12.17 10.5 L 12.12 10.38 L 12.08 10.25 L 12.04 10.12 L 12.0 10.0" fill="none" stroke="#111" stroke-width="1.30" stroke-linecap="round" stroke-linejoin="round"/>
<path d="M 9.0 4.0 L 8.82 4.22 L 8.66 4.45 L 8.52 4.7 L 8.4 4.95 L 8.29 5.21 L 8.2 5.48 L 8.14 5.75 L 8.09 6.03 L 8.07 6.31 L 8.06 6.59 L 8.08 6.87 L 8.11 7.15 L 8.17 7.43 L 8.25 7.7 L 8.34 7.97 L 8.46 8.22 L 8.59 8.47 L 8.74 8.71 L 8.91 8.94 L 9.1 9.15 L 9.3 9.35 L 9.51 9.53 L 9.74 9.7 L 9.98 9.85" fill="none" stroke="#111" stroke-width="1.30" stroke-linecap="round" stroke-linejoin="round"/>
<path d="M 11.0 5.0 L 10.88 5.08 L 10.75 5.17 L 10.62 5.25 L 10.5 5.33 L 10.38 5.42 L 10.25 5.5 L 10.12 5.58 L 10.0 5.67 L 9.88 5.75 L 9.75 5.83 L 9.62 5.92 L 9.5 6.0 L 9.38 6.08 L 9.25 6.17 L 9.12 6.25 L 9.0 6.33 L 8.88 6.42 L 8.75 6.5 L 8.62 6.58 L 8.5 6.67 L 8.38 6.75 L 8.25 6.83 L 8.12 6.92 L 8.0 7.0" fill="none" stroke="#111" stroke-width="1.30" stroke-linecap="round" stroke-linejoin="round"/>
<path d="M 11.0 7.0 L 10.92 7.04 L 10.83 7.08 L 10.75 7.12 L 10.67 7.17 L 10.58 7.21 L 10.5 7.25 L 10.42 7.29 L 10.33 7.33 L 10.25 7.38 L 10.17 7.42 L 10.08 7.46 L 10.0 7.5 L 9.92 7.54 L 9.83 7.58 L 9.75 7.62 L 9.67 7.67 L 9.58 7.71 L 9.5 7.75 L 9.42 7.79 L 9.33 7.83 L 9.25 7.88 L 9.17 7.92 L 9.08 7.96 L 9.0 8.0" fill="none" stroke="#111" stroke-width="1.30" stroke-linecap="round" stroke-linejoin="round"/>
<path d="M 15.0 4.0 L 14.88 4.21 L 14.75 4.42 L 14.62 4.62 L 14.5 4.83 L 14.38 5.04 L 14.25 5.25 L 14.12 5.46 L 14.0 5.67 L 13.88 5.88 L 13.75 6.08 L 13.62 6.29 L 13.5 6.5 L 13.38 6.71 L 13.25 6.92 L 13.12 7.12 L 13.0 7.33 L 12.88 7.54 L 12.75 7.75 L 12.62 7.96 L 12.5 8.17 L 12.38 8.38 L 12.25 8.58 L 12.13 8.79 L 12.0 9.0" fill="none" stroke="#111" stroke-width="1.30" stroke-linecap="round" stroke-linejoin="round"/>
<path d="M 13.0 4.0 L 13.04 4.08 L 13.08 4.17 L 13.12 4.25 L 13.17 4.33 L 13.21 4.42 L 13.25 4.5 L 13.29 4.58 L 13.33 4.67 L 13.38 4.75 L 13.42 4.83 L 13.46 4.92 L 13.5 5.0 L 13.54 5.08 L 13.58 5.17 L 13.62 5.25 L 13.67 5.33 L 13.71 5.42 L 13.75 5.5 L 13.79 5.58 L 13.83 5.67 L 13.88 5.75 L 13.92 5.83 L 13.96 5.92 L 14.0 6.0" fill="none" stroke="#111" stroke-width="1.30" stroke-linecap="round" stroke-linejoin="round"/>
<path d="M 12.0 5.0 L 12.04 5.08 L 12.08 5.17 L 12.12 5.25 L 12.17 5.33 L 12.21 5.42 L 12.25 5.5 L 12.29 5.58 L 12.33 5.67 L 12.38 5.75 L 12.42 5.83 L 12.46 5.92 L 12.5 6.0 L 12.54 6.08 L 12.58 6.17 L 12.62 6.25 L 12.67 6.33 L 12.71 6.42 L 12.75 6.5 L 12.79 6.58 L 12.83 6.67 L 12.88 6.75 L 12.92 6.83 L 12.96 6.92 L 13.0 7.0" fill="none" stroke="#111" stroke-width="1.30" stroke-linecap="round" stroke-linejoin="round"/>
<path d="M 11.0 7.0 L 11.04 7.04 L 11.08 7.08 L 11.12 7.12 L 11.17 7.17 L 11.21 7.21 L 11.25 7.25 L 11.29 7.29 L 11.33 7.33 L 11.38 7.38 L 11.42 7.42 L 11.46 7.46 L 11.5 7.5 L 11.54 7.54 L 11.58 7.58 L 11.62 7.62 L 11.67 7.67 L 11.71 7.71 L 11.75 7.75 L 11.79 7.79 L 11.83 7.83 L 11.88 7.88 L 11.92 7.92 L 11.96 7.96 L 12.0 8.0" fill="none" stroke="#111" stroke-width="1.30" stroke-linecap="round" stroke-linejoin="round"/>
<path d="M 11.0 15.0 L 10.79 15.17 L 10.58 15.33 L 10.38 15.5 L 10.17 15.67 L 9.96 15.83 L 9.75 16.0 L 9.54 16.17 L 9.33 16.33 L 9.12 16.5 L 8.92 16.67 L 8.71 16.83 L 8.5 17.0 L 8.29 17.17 L 8.08 17.33 L 7.88 17.5 L 7.67 17.67 L 7.46 17.83 L 7.25 18.0 L 7.04 18.17 L 6.83 18.33 L 6.62 18.5 L 6.42 18.67 L 6.21 18.83 L 6.0 19.0 L 6.0 19.0 L 5.92 19.25 L 5.83 19.5 L 5.75 19.75 L 5.67 20.0 L 5.58 20.25 L 5.5 20.5 L 5.42 20.75 L 5.33 21.0 L 5.25 21.25 L 5.17 21.5 L 5.08 21.75 L 5.0 22.0 L 4.92 22.25 L 4.83 22.5 L 4.75 22.75 L 4.67 23.0 L 4.58 23.25 L 4.5 23.5 L 4.42 23.75 L 4.33 24.0 L 4.25 24.25 L 4.17 24.5 L 4.08 24.75 L 4.0 25.0" fill="none" stroke="#111" stroke-width="1.30" stroke-linecap="round" stroke-linejoin="round"/>
<path d="M 16.0 17.0 L 16.04 17.33 L 16.08 17.67 L 16.12 18.0 L 16.17 18.33 L 16.21 18.67 L 16.25 19.0 L 16.29 19.33 L 16.33 19.67 L 16.38 20.0 L 16.42 20.33 L 16.46 20.67 L 16.5 21.0 L 16.54 21.33 L 16.58 21.67 L 16.62 22.0 L 16.67 22.33 L 16.71 22.67 L 16.75 23.0 L 16.79 23.33 L 16.83 23.67 L 16.88 24.0 L 16.92 24.33 L 16.96 24.67 L 17.0 25.0" fill="none" stroke="#111" stroke-width="1.30" stroke-linecap="round" stroke-linejoin="round"/>
<path d="M 6.0 19.0 L 6.43 19.07 L 6.86 19.13 L 7.29 19.17 L 7.72 19.2 L 8.15 19.22 L 8.58 19.22 L 9.02 19.21 L 9.45 19.19 L 9.88 19.15 L 10.31 19.1 L 10.74 19.04 L 11.16 18.96 L 11.58 18.87 L 12.0 18.76 L 12.42 18.64 L 12.83 18.51 L 13.24 18.37 L 13.64 18.21 L 14.04 18.04 L 14.44 17.86 L 14.82 17.67 L 15.2 17.46 L 15.58 17.24 L 15.94 17.01" fill="none" stroke="#111" stroke-width="1.30" stroke-linecap="round" stroke-linejoin="round"/>
<path d="M 5.0 23.0 L 5.46 22.92 L 5.92 22.83 L 6.38 22.75 L 6.83 22.67 L 7.29 22.58 L 7.75 22.5 L 8.21 22.42 L 8.67 22.33 L 9.12 22.25 L 9.58 22.17 L 10.04 22.08 L 10.5 22.0 L 10.96 21.92 L 11.42 21.83 L 11.88 21.75 L 12.33 21.67 L 12.79 21.58 L 13.25 21.5 L 13.71 21.42 L 14.17 21.33 L 14.62 21.25 L 15.08 21.17 L 15.54 21.08 L 16.0 21.0" fill="none" stroke="#111" stroke-width="1.30" stroke-linecap="round" stroke-linejoin="round"/>
<path d="M 4.0 24.0 L 4.17 24.08 L 4.33 24.17 L 4.5 24.25 L 4.67 24.33 L 4.83 24.42 L 5.0 24.5 L 5.17 24.58 L 5.33 24.67 L 5.5 24.75 L 5.67 24.83 L 5.83 24.92 L 6.0 25.0 L 6.17 25.08 L 6.33 25.17 L 6.5 25.25 L 6.67 25.33 L 6.83 25.42 L 7.0 25.5 L 7.17 25.58 L 7.33 25.67 L 7.5 25.75 L 7.67 25.83 L 7.83 25.92 L 8.0 26.0" fill="none" stroke="#111" stroke-width="1.30" stroke-linecap="round" stroke-linejoin="round"/>
<path d="M 13.0 25.0 L 13.11 25.33 L 13.2 25.66 L 13.28 25.99 L 13.35 26.33 L 13.4 26.67 L 13.44 27.01 L 13.47 27.35 L 13.49 27.69 L 13.49 28.03 L 13.48 28.38 L 13.46 28.72 L 13.42 29.06 L 13.38 29.4 L 13.31 29.74 L 13.24 30.07 L 13.15 30.4 L 13.05 30.73 L 12.94 31.06 L 12.81 31.38 L 12.68 31.69 L 12.53 32.0 L 12.37 32.3 L 12.2 32.6 L 12.01 32.89" fill="none" stroke="#111" stroke-width="1.30" stroke-linecap="round" stroke-linejoin="round"/>
<path d="M 10.0 26.0 L 10.08 26.29 L 10.17 26.58 L 10.25 26.88 L 10.33 27.17 L 10.42 27.46 L 10.5 27.75 L 10.58 28.04 L 10.67 28.33 L 10.75 28.62 L 10.83 28.92 L 10.92 29.21 L 11.0 29.5 L 11.08 29.79 L 11.17 30.08 L 11.25 30.38 L 11.33 30.67 L 11.42 30.96 L 11.5 31.25 L 11.58 31.54 L 11.67 31.83 L 11.75 32.12 L 11.83 32.42 L 11.92 32.71 L 12.0 33.0" fill="none" stroke="#111" stroke-width="1.30" stroke-linecap="round" stroke-linejoin="round"/>
<path d="M 11.0 28.0 L 11.33 27.92 L 11.67 27.83 L 12.0 27.75 L 12.33 27.67 L 12.67 27.58 L 13.0 27.5 L 13.33 27.42 L 13.67 27.33 L 14.0 27.25 L 14.33 27.17 L 14.67 27.08 L 15.0 27.0 L 15.33 26.92 L 15.67 26.83 L 16.0 26.75 L 16.33 26.67 L 16.67 26.58 L 17.0 26.5 L 17.33 26.42 L 17.67 26.33 L 18.0 26.25 L 18.33 26.17 L 18.67 26.08 L 19.0 26.0" fill="none" stroke="#111" stroke-width="1.30" stroke-linecap="round" stroke-linejoin="round"/>
</svg>
