<?xml version="1.0" encoding="UTF-8"?>
<svg xmlns="http://www.w3.org/2000/svg" viewBox="0 0 20.70 32.00">
<path d="M 5.7 4.0 L 5.37 4.54 L 5.08 5.09 L 4.81 5.66 L 4.59 6.24 L 4.4 6.84 L 4.25 7.45 L 4.13 8.07 L 4.05 8.69 L 4.01 9.31 L 4.0 9.94 L 4.03 10.57 L 4.1 11.19 L 4.21 11.81 L 4.35 12.42 L 4.53 13.02 L 4.75 13.61 L 5.0 14.18 L 5.29 14.74 L 5.6 15.28 L 5.95 15.8 L 6.33 16.3 L 6.74 16.77 L 7.18 17.22 L 7.65 17.64 L 7.7 18.0 L 7.57 18.42 L 7.45 18.83 L 7.32 19.25 L 7.2 19.67 L 7.07 20.08 L 6.95 20.5 L 6.82 20.92 L 6.7 21.33 L 6.57 21.75 L 6.45 22.17 L 6.32 22.58 L 6.2 23.0 L 6.07 23.42 L 5.95 23.83 L 5.82 24.25 L 5.7 24.67 L 5.57 25.08 L 5.45 25.5 L 5.32 25.92 L 5.2 26.33 L 5.07 26.75 L 4.95 27.17 L 4.82 27.58 L 4.7 28.0" fill="none" stroke="#111" stroke-width="1.12" stroke-linecap="round" stroke-linejoin="round"/>
<path d="M 5.7 9.0 L 5.78 9.04 L 5.86 9.08 L 5.95 9.12 L 6.03 9.17 L 6.11 9.21 L 6.2 9.25 L 6.28 9.29 L 6.36 9.33 L 6.45 9.38 L 6.53 9.42 L 6.61 9.46 L 6.7 9.5 L 6.78 9.54 L 6.86 9.58 L 6.95 9.62 L 7.03 9.67 L 7.11 9.71 L 7.2 9.75 L 7.28 9.79 L 7.36 9.83 L 7.45 9.88 L 7.53 9.92 L 7.61 9.96 L 7.7 10.0" fill="none" stroke="#111" stroke-width="1.12" stroke-linecap="round" stroke-linejoin="round"/>
<path d="M 12.7 4.0 L 12.17 4.45 L 11.69 4.94 L 11.25 5.48 L 10.86 6.04 L 10.53 6.65 L 10.24 7.27 L 10.01 7.92 L 9.84 8.59 L 9.73 9.27 L 9.68 9.96 L 9.68 10.65 L 9.75 11.34 L 9.88 12.01 L 10.06 12.68 L 10.31 13.32 L 10.61 13.95 L 10.96 14.54 L 11.36 15.1 L 11.81 15.62 L 12.3 16.11 L 12.83 16.54 L 13.4 16.93 L 14.0 17.27 L 14.63 17.56 L 14.7 18.0 L 14.57 18.42 L 14.45 18.83 L 14.32 19.25 L 14.2 19.67 L 14.07 20.08 L 13.95 20.5 L 13.82 20.92 L 13.7 21.33 L 13.57 21.75 L 13.45 22.17 L 13.32 22.58 L 13.2 23.0 L 13.07 23.42 L 12.95 23.83 L 12.82 24.25 L 12.7 24.67 L 12.57 25.08 L 12.45 25.5 L 12.32 25.92 L 12.2 26.33 L 12.07 26.75 L 11.95 27.17 L 11.82 27.58 L 11.7 28.0" fill="none" stroke="#111" stroke-width="1.12" stroke-linecap="round" stroke-linejoin="round"/>
<path d="M 11.7 8.0 L 11.9 8.12 L 12.11 8.25 L 12.32 8.38 L 12.53 8.5 L 12.74 8.62 L 12.95 8.75 L 13.15 8.88 L 13.36 9.0 L 13.57 9.12 L 13.78 9.25 L 13.99 9.38 L 14.2 9.5 L 14.4 9.62 L 14.61 9.75 L 14.82 9.88 L 15.03 10.0 L 15.24 10.12 L 15.45 10.25 L 15.65 10.38 L 15.86 10.5 L 16.07 10.62 L 16.28 10.75 L 16.49 10.88 L 16.7 11.0" fill="none" stroke="#111" stroke-width="1.12" stroke-linecap="round" stroke-linejoin="round"/>
</svg>
