<?xml version="1.0" encoding="UTF-8"?>
<svg xmlns="http://www.w3.org/2000/svg" viewBox="0 0 23.71 32.00">
<path d="M 7.0 4.0 L 7.02 4.4 L 7.04 4.8 L 7.03 5.2 L 7.02 5.6 L 6.99 6.0 L 6.95 6.4 L 6.89 6.8 L 6.82 7.19 L 6.74 7.58 L 6.65 7.97 L 6.54 8.36 L 6.42 8.74 L 6.29 9.12 L 6.14 9.49 L 5.98 9.86 L 5.81 10.22 L 5.63 10.58 L 5.44 10.93 L 5.23 11.27 L 5.01 11.61 L 4.79 11.94 L 4.55 12.26 L 4.3 12.58 L 4.04 12.88" fill="none" stroke="#111" stroke-width="1.12" stroke-linecap="round" stroke-linejoin="round"/>
<path d="M 7.0 14.0 L 6.88 14.29 L 6.75 14.58 L 6.62 14.88 L 6.5 15.17 L 6.38 15.46 L 6.25 15.75 L 6.12 16.04 L 6.0 16.33 L 5.88 16.62 L 5.75 16.92 L 5.62 17.21 L 5.5 17.5 L 5.38 17.79 L 5.25 18.08 L 5.12 18.38 L 5.0 18.67 L 4.88 18.96 L 4.75 19.25 L 4.63 19.54 L 4.5 19.83 L 4.38 20.12 L 4.25 20.42 L 4.12 20.71 L 4.0 21.0" fill="none" stroke="#111" stroke-width="1.12" stroke-linecap="round" stroke-linejoin="round"/>
<path d="M 6.0 16.0 L 6.04 16.5 L 6.08 17.0 L 6.12 17.5 L 6.17 18.0 L 6.21 18.5 L 6.25 19.0 L 6.29 19.5 L 6.33 20.0 L 6.38 20.5 L 6.42 21.0 L 6.46 21.5 L 6.5 22.0 L 6.54 22.5 L 6.58 23.0 L 6.62 23.5 L 6.67 24.0 L 6.71 24.5 L 6.75 25.0 L 6.79 25.5 L 6.83 26.0 L 6.88 26.5 L 6.92 27.0 L 6.96 27.5 L 7.0 28.0" fill="none" stroke="#111" stroke-width="1.12" stroke-linecap="round" stroke-linejoin="round"/>
<path d="M 11.0 6.0 L 10.92 6.38 L 10.83 6.75 L 10.75 7.12 L 10.67 7.5 L 10.58 7.88 L 10.5 8.25 L 10.42 8.62 L 10.33 9.0 L 10.25 9.38 L 10.17 9.75 L 10.08 10.12 L 10.0 10.5 L 9.92 10.88 L 9.83 11.25 L 9.75 11.62 L 9.67 12.0 L 9.58 12.38 L 9.5 12.75 L 9.42 13.12 L 9.33 13.5 L 9.25 13.88 L 9.17 14.25 L 9.08 14.62 L 9.0 15.0" fill="none" stroke="#111" stroke-width="1.12" stroke-linecap="round" stroke-linejoin="round"/>
<path d="M 10.0 10.0 L 10.54 10.29 L 11.06 10.63 L 11.54 11.02 L 11.99 11.44 L 12.4 11.9 L 12.76 12.39 L 13.09 12.92 L 13.36 13.47 L 13.59 14.04 L 13.77 14.63 L 13.9 15.23 L 13.97 15.84 L 13.99 16.46 L 13.96 17.07 L 13.87 17.68 L 13.74 18.28 L 13.55 18.87 L 13.31 19.43 L 13.02 19.98 L 12.68 20.5 L 12.31 20.98 L 11.89 21.43 L 11.43 21.85 L 10.94 22.22" fill="none" stroke="#111" stroke-width="1.12" stroke-linecap="round" stroke-linejoin="round"/>
<path d="M 17.0 5.0 L 16.92 5.25 L 16.83 5.5 L 16.75 5.75 L 16.67 6.0 L 16.58 6.25 L 16.5 6.5 L 16.42 6.75 L 16.33 7.0 L 16.25 7.25 L 16.17 7.5 L 16.08 7.75 L 16.0 8.0 L 15.92 8.25 L 15.83 8.5 L 15.75 8.75 L 15.67 9.0 L 15.58 9.25 L 15.5 9.5 L 15.42 9.75 L 15.33 10.0 L 15.25 10.25 L 15.17 10.5 L 15.08 10.75 L 15.0 11.0" fill="none" stroke="#111" stroke-width="1.12" stroke-linecap="round" stroke-linejoin="round"/>
<path d="M 16.0 8.0 L 16.54 8.31 L 17.05 8.67 L 17.53 9.08 L 17.97 9.52 L 18.36 10.01 L 18.71 10.52 L 19.01 11.07 L 19.26 11.65 L 19.46 12.24 L 19.6 12.85 L 19.69 13.47 L 19.71 14.09 L 19.69 14.72 L 19.6 15.33 L 19.46 15.94 L 19.26 16.54 L 19.01 17.11 L 18.71 17.66 L 18.36 18.18 L 17.97 18.66 L 17.53 19.11 L 17.05 19.51 L 16.54 19.87 L 16.0 20.18" fill="none" stroke="#111" stroke-width="1.12" stroke-linecap="round" stroke-linejoin="round"/>
</svg>
