<?xml version="1.0" encoding="UTF-8"?>
<svg xmlns="http://www.w3.org/2000/svg" viewBox="0 0 21.00 36.00">
<path d="M 10.0 4.0 L 9.75 4.46 L 9.5 4.92 L 9.25 5.38 L 9.0 5.83 L 8.75 6.29 L 8.5 6.75 L 8.25 7.21 L 8.0 7.67 L 7.75 8.12 L 7.5 8.58 L 7.25 9.04 L 7.0 9.5 L 6.75 9.96 L 6.5 10.42 L 6.25 10.88 L 6.0 11.33 L 5.75 11.79 L 5.5 12.25 L 5.25 12.71 L 5.0 13.17 L 4.75 13.63 L 4.5 14.08 L 4.25 14.54 L 4.0 15.0" fill="none" stroke="#111" stroke-width="1.26" stroke-linecap="round" stroke-linejoin="round"/>
<path d="M 10.0 4.0 L 10.29 4.38 L 10.58 4.75 L 10.87 5.12 L 11.17 5.5 L 11.46 5.88 L 11.75 6.25 L 12.04 6.62 L 12.33 7.0 L 12.62 7.38 L 12.92 7.75 L 13.21 8.12 L 13.5 8.5 L 13.79 8.88 L 14.08 9.25 L 14.37 9.62 L 14.67 10.0 L 14.96 10.38 L 15.25 10.75 L 15.54 11.12 L 15.83 11.5 L 16.12 11.88 L 16.42 12.25 L 16.71 12.62 L 17.0 13.0" fill="none" stroke="#111" stroke-width="1.26" stroke-linecap="round" stroke-linejoin="round"/>
<path d="M 7.0 9.0 L 7.29 9.0 L 7.58 9.0 L 7.87 9.0 L 8.17 9.0 L 8.46 9.0 L 8.75 9.0 L 9.04 9.0 L 9.33 9.0 L 9.62 9.0 L 9.92 9.0 L 10.21 9.0 L 10.5 9.0 L 10.79 9.0 L 11.08 9.0 L 11.37 9.0 L 11.67 9.0 L 11.96 9.0 L 12.25 9.0 L 12.54 9.0 L 12.83 9.0 L 13.12 9.0 L 13.42 9.0 L 13.71 9.0 L 14.0 9.0" fill="none" stroke="#111" stroke-width="1.26" stroke-linecap="round" stroke-linejoin="round"/>
<path d="M 6.0 12.0 L 6.37 11.96 L 6.75 11.92 L 7.12 11.88 L 7.5 11.83 L 7.87 11.79 L 8.25 11.75 L 8.62 11.71 L 9.0 11.67 L 9.37 11.62 L 9.75 11.58 L 10.12 11.54 L 10.5 11.5 L 10.87 11.46 L 11.25 11.42 L 11.62 11.38 L 12.0 11.33 L 12.37 11.29 L 12.75 11.25 L 13.12 11.21 L 13.5 11.17 L 13.87 11.12 L 14.25 11.08 L 14.62 11.04 L 15.0 11.0" fill="none" stroke="#111" stroke-width="1.26" stroke-linecap="round" stroke-linejoin="round"/>
<path d="M 10.0 7.0 L 10.0 7.67 L 10.0 8.33 L 10.0 9.0 L 10.0 9.67 L 10.0 10.33 L 10.0 11.0 L 10.0 11.67 L 10.0 12.33 L 10.0 13.0 L 10.0 13.67 L 10.0 14.33 L 10.0 15.0 L 10.0 15.67 L 10.0 16.33 L 10.0 17.0 L 10.0 17.67 L 10.0 18.33 L 10.0 19.0 L 10.0 19.67 L 10.0 20.33 L 10.0 21.0 L 10.0 21.67 L 10.0 22.33 L 10.0 23.0" fill="none" stroke="#111" stroke-width="1.26" stroke-linecap="round" stroke-linejoin="round"/>
<path d="M 7.0 14.0 L 7.12 14.17 L 7.25 14.33 L 7.37 14.5 L 7.5 14.67 L 7.62 14.83 L 7.75 15.0 L 7.87 15.17 L 8.0 15.33 L 8.12 15.5 L 8.25 15.67 L 8.37 15.83 L 8.5 16.0 L 8.62 16.17 L 8.75 16.33 L 8.87 16.5 L 9.0 16.67 L 9.12 16.83 L 9.25 17.0 L 9.37 17.17 L 9.5 17.33 L 9.62 17.5 L 9.75 17.67 L 9.87 17.83 L 10.0 18.0 L 10.0 18.0 L 10.12 17.83 L 10.25 17.67 L 10.37 17.5 L 10.5 17.33 L 10.62 17.17 L 10.75 17.0 L 10.87 16.83 L 11.0 16.67 L 11.12 16.5 L 11.25 16.33 L 11.37 16.17 L 11.5 16.0 L 11.62 15.83 L 11.75 15.67 L 11.87 15.5 L 12.0 15.33 L 12.12 15.17 L 12.25 15.0 L 12.37 14.83 L 12.5 14.67 L 12.62 14.5 L 12.75 14.33 L 12.87 14.17 L 13.0 14.0" fill="none" stroke="#111" stroke-width="1.26" stroke-linecap="round" stroke-linejoin="round"/>
<path d="M 6.0 23.0 L 6.25 23.17 L 6.5 23.33 L 6.75 23.5 L 7.0 23.67 L 7.25 23.83 L 7.5 24.0 L 7.75 24.17 L 8.0 24.33 L 8.25 24.5 L 8.5 24.67 L 8.75 24.83 L 9.0 25.0 L 9.25 25.17 L 9.5 25.33 L 9.75 25.5 L 10.0 25.67 L 10.25 25.83 L 10.5 26.0 L 10.75 26.17 L 11.0 26.33 L 11.25 26.5 L 11.5 26.67 L 11.75 26.83 L 12.0 27.0" fill="none" stroke="#111" stroke-width="1.26" stroke-linecap="round" stroke-linejoin="round"/>
<path d="M 10.0 24.0 L 9.94 24.33 L 9.89 24.67 L 9.84 25.01 L 9.81 25.35 L 9.78 25.69 L 9.76 26.02 L 9.76 26.36 L 9.76 26.7 L 9.77 27.04 L 9.79 27.38 L 9.82 27.72 L 9.85 28.06 L 9.9 28.4 L 9.96 28.73 L 10.02 29.07 L 10.1 29.4 L 10.18 29.73 L 10.27 30.06 L 10.37 30.38 L 10.48 30.7 L 10.59 31.02 L 10.72 31.34 L 10.85 31.65 L 11.0 31.96" fill="none" stroke="#111" stroke-width="1.26" stroke-linecap="round" stroke-linejoin="round"/>
<path d="M 13.0 23.0 L 12.92 23.38 L 12.83 23.75 L 12.75 24.12 L 12.67 24.5 L 12.58 24.88 L 12.5 25.25 L 12.42 25.62 L 12.33 26.0 L 12.25 26.38 L 12.17 26.75 L 12.08 27.12 L 12.0 27.5 L 11.92 27.88 L 11.83 28.25 L 11.75 28.62 L 11.67 29.0 L 11.58 29.38 L 11.5 29.75 L 11.42 30.12 L 11.33 30.5 L 11.25 30.88 L 11.17 31.25 L 11.08 31.62 L 11.0 32.0" fill="none" stroke="#111" stroke-width="1.26" stroke-linecap="round" stroke-linejoin="round"/>
</svg>
