<?xml version="1.0" encoding="UTF-8"?>
<svg xmlns="http://www.w3.org/2000/svg" viewBox="0 0 26.00 36.00">
<path d="M 11.0 4.0 L 10.92 4.17 L 10.83 4.33 L 10.75 4.5 L 10.67 4.67 L 10.58 4.83 L 10.5 5.0 L 10.42 5.17 L 10.33 5.33 L 10.25 5.5 L 10.17 5.67 L 10.08 5.83 L 10.0 6.0 L 9.92 6.17 L 9.83 6.33 L 9.75 6.5 L 9.67 6.67 L 9.58 6.83 L 9.5 7.0 L 9.42 7.17 L 9.33 7.33 L 9.25 7.5 L 9.17 7.67 L 9.08 7.83 L 9.0 8.0 L 9.0 8.0 L 9.54 8.25 L 10.08 8.5 L 10.62 8.75 L 11.17 9.0 L 11.71 9.25 L 12.25 9.5 L 12.79 9.75 L 13.33 10.0 L 13.88 10.25 L 14.42 10.5 L 14.96 10.75 L 15.5 11.0 L 16.04 11.25 L 16.58 11.5 L 17.12 11.75 L 17.67 12.0 L 18.21 12.25 L 18.75 12.5 L 19.29 12.75 L 19.83 13.0 L 20.38 13.25 L 20.92 13.5 L 21.46 13.75 L 22.0 14.0 L 22.0 14.0 L 21.5 14.08 L 21.0 14.17 L 20.5 14.25 L 20.0 14.33 L 19.5 14.42 L 19.0 14.5 L 18.5 14.58 L 18.0 14.67 L 17.5 14.75 L 17.0 14.83 L 16.5 14.92 L 16.0 15.0 L 15.5 15.08 L 15.0 15.17 L 14.5 15.25 L 14.0 15.33 L 13.5 15.42 L 13.0 15.5 L 12.5 15.58 L 12.0 15.67 L 11.5 15.75 L 11.0 15.83 L 10.5 15.92 L 10.0 16.0" fill="none" stroke="#111" stroke-width="1.26" stroke-linecap="round" stroke-linejoin="round"/>
<path d="M 17.0 6.0 L 16.51 6.3 L 16.05 6.63 L 15.6 6.98 L 15.16 7.36 L 14.75 7.75 L 14.37 8.17 L 14.0 8.61 L 13.66 9.07 L 13.35 9.55 L 13.06 10.04 L 12.8 10.55 L 12.56 11.07 L 12.36 11.61 L 12.18 12.15 L 12.03 12.7 L 11.92 13.26 L 11.83 13.83 L 11.77 14.4 L 11.75 14.97 L 11.75 15.54 L 11.79 16.11 L 11.86 16.68 L 11.96 17.24 L 12.08 17.8" fill="none" stroke="#111" stroke-width="1.26" stroke-linecap="round" stroke-linejoin="round"/>
<path d="M 8.0 8.0 L 7.55 8.5 L 7.13 9.03 L 6.75 9.59 L 6.4 10.17 L 6.09 10.76 L 5.82 11.38 L 5.59 12.02 L 5.4 12.66 L 5.25 13.32 L 5.14 13.99 L 5.08 14.66 L 5.06 15.33 L 5.08 16.01 L 5.14 16.68 L 5.25 17.35 L 5.4 18.0 L 5.59 18.65 L 5.82 19.28 L 6.09 19.9 L 6.4 20.5 L 6.75 21.08 L 7.13 21.64 L 7.55 22.17 L 8.0 22.67 L 8.0 23.0 L 7.88 23.38 L 7.75 23.75 L 7.62 24.12 L 7.5 24.5 L 7.38 24.88 L 7.25 25.25 L 7.12 25.62 L 7.0 26.0 L 6.88 26.38 L 6.75 26.75 L 6.62 27.12 L 6.5 27.5 L 6.37 27.88 L 6.25 28.25 L 6.12 28.62 L 6.0 29.0 L 5.88 29.38 L 5.75 29.75 L 5.62 30.12 L 5.5 30.5 L 5.38 30.88 L 5.25 31.25 L 5.12 31.62 L 5.0 32.0" fill="none" stroke="#111" stroke-width="1.26" stroke-linecap="round" stroke-linejoin="round"/>
<path d="M 4.0 20.0 L 4.0 20.21 L 4.0 20.42 L 4.0 20.62 L 4.0 20.83 L 4.0 21.04 L 4.0 21.25 L 4.0 21.46 L 4.0 21.67 L 4.0 21.88 L 4.0 22.08 L 4.0 22.29 L 4.0 22.5 L 4.0 22.71 L 4.0 22.92 L 4.0 23.12 L 4.0 23.33 L 4.0 23.54 L 4.0 23.75 L 4.0 23.96 L 4.0 24.17 L 4.0 24.38 L 4.0 24.58 L 4.0 24.79 L 4.0 25.0" fill="none" stroke="#111" stroke-width="1.26" stroke-linecap="round" stroke-linejoin="round"/>
<path d="M 8.0 12.0 L 8.04 12.17 L 8.08 12.33 L 8.12 12.5 L 8.17 12.67 L 8.21 12.83 L 8.25 13.0 L 8.29 13.17 L 8.33 13.33 L 8.38 13.5 L 8.42 13.67 L 8.46 13.83 L 8.5 14.0 L 8.54 14.17 L 8.58 14.33 L 8.62 14.5 L 8.67 14.67 L 8.71 14.83 L 8.75 15.0 L 8.79 15.17 L 8.83 15.33 L 8.88 15.5 L 8.92 15.67 L 8.96 15.83 L 9.0 16.0" fill="none" stroke="#111" stroke-width="1.26" stroke-linecap="round" stroke-linejoin="round"/>
<path d="M 17.0 16.0 L 16.75 16.58 L 16.5 17.17 L 16.25 17.75 L 16.0 18.33 L 15.75 18.92 L 15.5 19.5 L 15.25 20.08 L 15.0 20.67 L 14.75 21.25 L 14.5 21.83 L 14.25 22.42 L 14.0 23.0 L 13.75 23.58 L 13.5 24.17 L 13.25 24.75 L 13.0 25.33 L 12.75 25.92 L 12.5 26.5 L 12.25 27.08 L 12.0 27.67 L 11.75 28.25 L 11.5 28.83 L 11.25 29.42 L 11.0 30.0" fill="none" stroke="#111" stroke-width="1.26" stroke-linecap="round" stroke-linejoin="round"/>
<path d="M 17.0 17.0 L 17.08 17.54 L 17.17 18.08 L 17.25 18.62 L 17.33 19.17 L 17.42 19.71 L 17.5 20.25 L 17.58 20.79 L 17.67 21.33 L 17.75 21.88 L 17.83 22.42 L 17.92 22.96 L 18.0 23.5 L 18.08 24.04 L 18.17 24.58 L 18.25 25.12 L 18.33 25.67 L 18.42 26.21 L 18.5 26.75 L 18.58 27.29 L 18.67 27.83 L 18.75 28.38 L 18.83 28.92 L 18.92 29.46 L 19.0 30.0" fill="none" stroke="#111" stroke-width="1.26" stroke-linecap="round" stroke-linejoin="round"/>
<path d="M 14.0 21.0 L 14.17 21.04 L 14.33 21.08 L 14.5 21.12 L 14.67 21.17 L 14.83 21.21 L 15.0 21.25 L 15.17 21.29 L 15.33 21.33 L 15.5 21.38 L 15.67 21.42 L 15.83 21.46 L 16.0 21.5 L 16.17 21.54 L 16.33 21.58 L 16.5 21.62 L 16.67 21.67 L 16.83 21.71 L 17.0 21.75 L 17.17 21.79 L 17.33 21.83 L 17.5 21.88 L 17.67 21.92 L 17.83 21.96 L 18.0 22.0" fill="none" stroke="#111" stroke-width="1.26" stroke-linecap="round" stroke-linejoin="round"/>
<path d="M 14.0 24.0 L 14.12 24.04 L 14.25 24.08 L 14.38 24.12 L 14.5 24.17 L 14.62 24.21 L 14.75 24.25 L 14.88 24.29 L 15.0 24.33 L 15.12 24.38 L 15.25 24.42 L 15.38 24.46 L 15.5 24.5 L 15.62 24.54 L 15.75 24.58 L 15.88 24.62 L 16.0 24.67 L 16.12 24.71 L 16.25 24.75 L 16.38 24.79 L 16.5 24.83 L 16.62 24.88 L 16.75 24.92 L 16.88 24.96 L 17.0 25.0" fill="none" stroke="#111" stroke-width="1.26" stroke-linecap="round" stroke-linejoin="round"/>
<path d="M 8.0 30.0 L 8.58 29.96 L 9.17 29.92 L 9.75 29.88 L 10.33 29.83 L 10.92 29.79 L 11.5 29.75 L 12.08 29.71 L 12.67 29.67 L 13.25 29.62 L 13.83 29.58 L 14.42 29.54 L 15.0 29.5 L 15.58 29.46 L 16.17 29.42 L 16.75 29.38 L 17.33 29.33 L 17.92 29.29 L 18.5 29.25 L 19.08 29.21 L 19.67 29.17 L 20.25 29.12 L 20.83 29.08 L 21.42 29.04 L 22.0 29.0" fill="none" stroke="#111" stroke-width="1.26" stroke-linecap="round" stroke-linejoin="round"/>
</svg>
