<?xml version="1.0" encoding="UTF-8"?>
<svg xmlns="http://www.w3.org/2000/svg" viewBox="0 0 24.32 32.00">
<path d="M 8.0 7.0 L 8.03 7.46 L 8.05 7.92 L 8.05 8.38 L 8.03 8.85 L 7.99 9.31 L 7.93 9.76 L 7.86 10.22 L 7.76 10.67 L 7.65 11.12 L 7.52 11.56 L 7.38 12.0 L 7.21 12.43 L 7.03 12.86 L 6.84 13.28 L 6.62 13.69 L 6.4 14.09 L 6.15 14.48 L 5.89 14.86 L 5.62 15.23 L 5.33 15.59 L 5.02 15.94 L 4.71 16.28 L 4.38 16.6 L 4.04 16.91" fill="none" stroke="#111" stroke-width="1.12" stroke-linecap="round" stroke-linejoin="round"/>
<path d="M 8.0 18.0 L 7.83 18.17 L 7.67 18.33 L 7.5 18.5 L 7.33 18.67 L 7.17 18.83 L 7.0 19.0 L 6.83 19.17 L 6.67 19.33 L 6.5 19.5 L 6.33 19.67 L 6.17 19.83 L 6.0 20.0 L 5.83 20.17 L 5.67 20.33 L 5.5 20.5 L 5.33 20.67 L 5.17 20.83 L 5.0 21.0 L 4.83 21.17 L 4.67 21.33 L 4.5 21.5 L 4.33 21.67 L 4.17 21.83 L 4.0 22.0" fill="none" stroke="#111" stroke-width="1.12" stroke-linecap="round" stroke-linejoin="round"/>
<path d="M 7.0 20.0 L 7.0 20.33 L 7.0 20.67 L 7.0 21.0 L 7.0 21.33 L 7.0 21.67 L 7.0 22.0 L 7.0 22.33 L 7.0 22.67 L 7.0 23.0 L 7.0 23.33 L 7.0 23.67 L 7.0 24.0 L 7.0 24.33 L 7.0 24.67 L 7.0 25.0 L 7.0 25.33 L 7.0 25.67 L 7.0 26.0 L 7.0 26.33 L 7.0 26.67 L 7.0 27.0 L 7.0 27.33 L 7.0 27.67 L 7.0 28.0" fill="none" stroke="#111" stroke-width="1.12" stroke-linecap="round" stroke-linejoin="round"/>
<path d="M 14.0 4.0 L 14.41 4.56 L 14.8 5.15 L 15.15 5.75 L 15.48 6.37 L 15.77 7.0 L 16.04 7.65 L 16.27 8.31 L 16.46 8.99 L 16.63 9.67 L 16.76 10.35 L 16.85 11.05 L 16.91 11.74 L 16.94 12.44 L 16.93 13.14 L 16.89 13.84 L 16.81 14.53 L 16.7 15.22 L 16.55 15.91 L 16.37 16.59 L 16.16 17.25 L 15.91 17.91 L 15.64 18.55 L 15.33 19.18 L 14.99 19.79" fill="none" stroke="#111" stroke-width="1.12" stroke-linecap="round" stroke-linejoin="round"/>
<path d="M 13.0 7.0 L 12.96 7.21 L 12.92 7.42 L 12.88 7.62 L 12.83 7.83 L 12.79 8.04 L 12.75 8.25 L 12.71 8.46 L 12.67 8.67 L 12.62 8.88 L 12.58 9.08 L 12.54 9.29 L 12.5 9.5 L 12.46 9.71 L 12.42 9.92 L 12.38 10.12 L 12.33 10.33 L 12.29 10.54 L 12.25 10.75 L 12.21 10.96 L 12.17 11.17 L 12.12 11.38 L 12.08 11.58 L 12.04 11.79 L 12.0 12.0" fill="none" stroke="#111" stroke-width="1.12" stroke-linecap="round" stroke-linejoin="round"/>
<path d="M 17.0 5.0 L 17.08 5.12 L 17.17 5.25 L 17.25 5.38 L 17.33 5.5 L 17.42 5.62 L 17.5 5.75 L 17.58 5.88 L 17.67 6.0 L 17.75 6.12 L 17.83 6.25 L 17.92 6.38 L 18.0 6.5 L 18.08 6.62 L 18.17 6.75 L 18.25 6.88 L 18.33 7.0 L 18.42 7.12 L 18.5 7.25 L 18.58 7.38 L 18.67 7.5 L 18.75 7.62 L 18.83 7.75 L 18.92 7.88 L 19.0 8.0" fill="none" stroke="#111" stroke-width="1.12" stroke-linecap="round" stroke-linejoin="round"/>
<path d="M 19.0 11.0 L 19.0 11.21 L 19.0 11.42 L 19.0 11.62 L 19.0 11.83 L 19.0 12.04 L 19.0 12.25 L 19.0 12.46 L 19.0 12.67 L 19.0 12.88 L 19.0 13.08 L 19.0 13.29 L 19.0 13.5 L 19.0 13.71 L 19.0 13.92 L 19.0 14.12 L 19.0 14.33 L 19.0 14.54 L 19.0 14.75 L 19.0 14.96 L 19.0 15.17 L 19.0 15.38 L 19.0 15.58 L 19.0 15.79 L 19.0 16.0" fill="none" stroke="#111" stroke-width="1.12" stroke-linecap="round" stroke-linejoin="round"/>
<path d="M 11.0 21.0 L 10.75 21.76 L 10.63 22.55 L 10.64 23.34 L 10.77 24.13 L 11.04 24.88 L 11.42 25.58 L 11.92 26.21 L 12.51 26.74 L 13.17 27.18 L 13.91 27.5 L 14.68 27.69 L 15.47 27.76 L 16.27 27.69 L 17.04 27.5 L 17.77 27.18 L 18.44 26.74 L 19.03 26.21 L 19.53 25.58 L 19.91 24.88 L 20.17 24.13 L 20.31 23.34 L 20.32 22.55 L 20.2 21.76 L 19.95 21.0" fill="none" stroke="#111" stroke-width="1.12" stroke-linecap="round" stroke-linejoin="round"/>
<path d="M 19.0 23.0 L 18.67 23.0 L 18.33 23.0 L 18.0 23.0 L 17.67 23.0 L 17.33 23.0 L 17.0 23.0 L 16.67 23.0 L 16.33 23.0 L 16.0 23.0 L 15.67 23.0 L 15.33 23.0 L 15.0 23.0 L 14.67 23.0 L 14.33 23.0 L 14.0 23.0 L 13.67 23.0 L 13.33 23.0 L 13.0 23.0 L 12.67 23.0 L 12.33 23.0 L 12.0 23.0 L 11.67 23.0 L 11.33 23.0 L 11.0 23.0" fill="none" stroke="#111" stroke-width="1.12" stroke-linecap="round" stroke-linejoin="round"/>
</svg>
