<?xml version="1.0" encoding="UTF-8"?>
<svg xmlns="http://www.w3.org/2000/svg" viewBox="0 0 17.00 37.00">
<path d="M 4.0 8.0 L 4.0 8.42 L 4.0 8.83 L 4.0 9.25 L 4.0 9.67 L 4.0 10.08 L 4.0 10.5 L 4.0 10.92 L 4.0 11.33 L 4.0 11.75 L 4.0 12.17 L 4.0 12.58 L 4.0 13.0 L 4.0 13.42 L 4.0 13.83 L 4.0 14.25 L 4.0 14.67 L 4.0 15.08 L 4.0 15.5 L 4.0 15.92 L 4.0 16.33 L 4.0 16.75 L 4.0 17.17 L 4.0 17.58 L 4.0 18.0" fill="none" stroke="#111" stroke-width="1.30" stroke-linecap="round" stroke-linejoin="round"/>
<path d="M 4.0 8.0 L 4.25 8.0 L 4.5 8.0 L 4.75 8.0 L 5.0 8.0 L 5.25 8.0 L 5.5 8.0 L 5.75 8.0 L 6.0 8.0 L 6.25 8.0 L 6.5 8.0 L 6.75 8.0 L 7.0 8.0 L 7.25 8.0 L 7.5 8.0 L 7.75 8.0 L 8.0 8.0 L 8.25 8.0 L 8.5 8.0 L 8.75 8.0 L 9.0 8.0 L 9.25 8.0 L 9.5 8.0 L 9.75 8.0 L 10.0 8.0" fill="none" stroke="#111" stroke-width="1.30" stroke-linecap="round" stroke-linejoin="round"/>
<path d="M 10.0 8.0 L 10.0 8.42 L 10.0 8.83 L 10.0 9.25 L 10.0 9.67 L 10.0 10.08 L 10.0 10.5 L 10.0 10.92 L 10.0 11.33 L 10.0 11.75 L 10.0 12.17 L 10.0 12.58 L 10.0 13.0 L 10.0 13.42 L 10.0 13.83 L 10.0 14.25 L 10.0 14.67 L 10.0 15.08 L 10.0 15.5 L 10.0 15.92 L 10.0 16.33 L 10.0 16.75 L 10.0 17.17 L 10.0 17.58 L 10.0 18.0" fill="none" stroke="#111" stroke-width="1.30" stroke-linecap="round" stroke-linejoin="round"/>
<path d="M 4.0 18.0 L 4.25 18.0 L 4.5 18.0 L 4.75 18.0 L 5.0 18.0 L 5.25 18.0 L 5.5 18.0 L 5.75 18.0 L 6.0 18.0 L 6.25 18.0 L 6.5 18.0 L 6.75 18.0 L 7.0 18.0 L 7.25 18.0 L 7.5 18.0 L 7.75 18.0 L 8.0 18.0 L 8.25 18.0 L 8.5 18.0 L 8.75 18.0 L 9.0 18.0 L 9.25 18.0 L 9.5 18.0 L 9.75 18.0 L 10.0 18.0" fill="none" stroke="#111" stroke-width="1.30" stroke-linecap="round" stroke-linejoin="round"/>
<path d="M 5.0 4.0 L 5.0 4.17 L 5.0 4.33 L 5.0 4.5 L 5.0 4.67 L 5.0 4.83 L 5.0 5.0 L 5.0 5.17 L 5.0 5.33 L 5.0 5.5 L 5.0 5.67 L 5.0 5.83 L 5.0 6.0 L 5.0 6.17 L 5.0 6.33 L 5.0 6.5 L 5.0 6.67 L 5.0 6.83 L 5.0 7.0 L 5.0 7.17 L 5.0 7.33 L 5.0 7.5 L 5.0 7.67 L 5.0 7.83 L 5.0 8.0" fill="none" stroke="#111" stroke-width="1.30" stroke-linecap="round" stroke-linejoin="round"/>
<path d="M 5.0 4.0 L 5.17 4.0 L 5.33 4.0 L 5.5 4.0 L 5.67 4.0 L 5.83 4.0 L 6.0 4.0 L 6.17 4.0 L 6.33 4.0 L 6.5 4.0 L 6.67 4.0 L 6.83 4.0 L 7.0 4.0 L 7.17 4.0 L 7.33 4.0 L 7.5 4.0 L 7.67 4.0 L 7.83 4.0 L 8.0 4.0 L 8.17 4.0 L 8.33 4.0 L 8.5 4.0 L 8.67 4.0 L 8.83 4.0 L 9.0 4.0 L 9.0 4.0 L 9.0 4.17 L 9.0 4.33 L 9.0 4.5 L 9.0 4.67 L 9.0 4.83 L 9.0 5.0 L 9.0 5.17 L 9.0 5.33 L 9.0 5.5 L 9.0 5.67 L 9.0 5.83 L 9.0 6.0 L 9.0 6.17 L 9.0 6.33 L 9.0 6.5 L 9.0 6.67 L 9.0 6.83 L 9.0 7.0 L 9.0 7.17 L 9.0 7.33 L 9.0 7.5 L 9.0 7.67 L 9.0 7.83 L 9.0 8.0" fill="none" stroke="#111" stroke-width="1.30" stroke-linecap="round" stroke-linejoin="round"/>
<path d="M 6.0 18.0 L 6.0 18.17 L 6.0 18.33 L 6.0 18.5 L 6.0 18.67 L 6.0 18.83 L 6.0 19.0 L 6.0 19.17 L 6.0 19.33 L 6.0 19.5 L 6.0 19.67 L 6.0 19.83 L 6.0 20.0 L 6.0 20.17 L 6.0 20.33 L 6.0 20.5 L 6.0 20.67 L 6.0 20.83 L 6.0 21.0 L 6.0 21.17 L 6.0 21.33 L 6.0 21.5 L 6.0 21.67 L 6.0 21.83 L 6.0 22.0 L 6.0 22.0 L 6.12 22.0 L 6.25 22.0 L 6.38 22.0 L 6.5 22.0 L 6.62 22.0 L 6.75 22.0 L 6.88 22.0 L 7.0 22.0 L 7.12 22.0 L 7.25 22.0 L 7.38 22.0 L 7.5 22.0 L 7.62 22.0 L 7.75 22.0 L 7.88 22.0 L 8.0 22.0 L 8.12 22.0 L 8.25 22.0 L 8.38 22.0 L 8.5 22.0 L 8.62 22.0 L 8.75 22.0 L 8.88 22.0 L 9.0 22.0" fill="none" stroke="#111" stroke-width="1.30" stroke-linecap="round" stroke-linejoin="round"/>
<path d="M 9.0 18.0 L 9.0 18.17 L 9.0 18.33 L 9.0 18.5 L 9.0 18.67 L 9.0 18.83 L 9.0 19.0 L 9.0 19.17 L 9.0 19.33 L 9.0 19.5 L 9.0 19.67 L 9.0 19.83 L 9.0 20.0 L 9.0 20.17 L 9.0 20.33 L 9.0 20.5 L 9.0 20.67 L 9.0 20.83 L 9.0 21.0 L 9.0 21.17 L 9.0 21.33 L 9.0 21.5 L 9.0 21.67 L 9.0 21.83 L 9.0 22.0" fill="none" stroke="#111" stroke-width="1.30" stroke-linecap="round" stroke-linejoin="round"/>
<path d="M 7.0 22.0 L 6.92 22.25 L 6.83 22.5 L 6.75 22.75 L 6.67 23.0 L 6.58 23.25 L 6.5 23.5 L 6.42 23.75 L 6.33 24.0 L 6.25 24.25 L 6.17 24.5 L 6.08 24.75 L 6.0 25.0 L 5.92 25.25 L 5.83 25.5 L 5.75 25.75 L 5.67 26.0 L 5.58 26.25 L 5.5 26.5 L 5.42 26.75 L 5.33 27.0 L 5.25 27.25 L 5.17 27.5 L 5.08 27.75 L 5.0 28.0" fill="none" stroke="#111" stroke-width="1.30" stroke-linecap="round" stroke-linejoin="round"/>
<path d="M 7.0 23.0 L 7.04 23.0 L 7.08 23.0 L 7.12 23.0 L 7.17 23.0 L 7.21 23.0 L 7.25 23.0 L 7.29 23.0 L 7.33 23.0 L 7.38 23.0 L 7.42 23.0 L 7.46 23.0 L 7.5 23.0 L 7.54 23.0 L 7.58 23.0 L 7.62 23.0 L 7.67 23.0 L 7.71 23.0 L 7.75 23.0 L 7.79 23.0 L 7.83 23.0 L 7.88 23.0 L 7.92 23.0 L 7.96 23.0 L 8.0 23.0 L 8.0 23.0 L 7.92 23.29 L 7.83 23.58 L 7.75 23.88 L 7.67 24.17 L 7.58 24.46 L 7.5 24.75 L 7.42 25.04 L 7.33 25.33 L 7.25 25.62 L 7.17 25.92 L 7.08 26.21 L 7.0 26.5 L 6.92 26.79 L 6.83 27.08 L 6.75 27.38 L 6.67 27.67 L 6.58 27.96 L 6.5 28.25 L 6.42 28.54 L 6.33 28.83 L 6.25 29.12 L 6.17 29.42 L 6.08 29.71 L 6.0 30.0" fill="none" stroke="#111" stroke-width="1.30" stroke-linecap="round" stroke-linejoin="round"/>
<path d="M 6.0 24.0 L 6.29 24.38 L 6.58 24.75 L 6.88 25.12 L 7.17 25.5 L 7.46 25.88 L 7.75 26.25 L 8.04 26.62 L 8.33 27.0 L 8.62 27.38 L 8.92 27.75 L 9.21 28.12 L 9.5 28.5 L 9.79 28.88 L 10.08 29.25 L 10.38 29.62 L 10.67 30.0 L 10.96 30.38 L 11.25 30.75 L 11.54 31.12 L 11.83 31.5 L 12.12 31.88 L 12.42 32.25 L 12.71 32.62 L 13.0 33.0" fill="none" stroke="#111" stroke-width="1.30" stroke-linecap="round" stroke-linejoin="round"/>
</svg>
