<?xml version="1.0" encoding="UTF-8"?>
<svg xmlns="http://www.w3.org/2000/svg" viewBox="0 0 23.00 33.00">
<path d="M 14.0 4.0 L 14.0 4.17 L 14.0 4.33 L 14.0 4.5 L 14.0 4.67 L 14.0 4.83 L 14.0 5.0 L 14.0 5.17 L 14.0 5.33 L 14.0 5.5 L 14.0 5.67 L 14.0 5.83 L 14.0 6.0 L 14.0 6.17 L 14.0 6.33 L 14.0 6.5 L 14.0 6.67 L 14.0 6.83 L 14.0 7.0 L 14.0 7.17 L 14.0 7.33 L 14.0 7.5 L 14.0 7.67 L 14.0 7.83 L 14.0 8.0" fill="none" stroke="#111" stroke-width="1.16" stroke-linecap="round" stroke-linejoin="round"/>
<path d="M 14.0 8.0 L 13.83 8.17 L 13.67 8.33 L 13.5 8.5 L 13.33 8.67 L 13.17 8.83 L 13.0 9.0 L 12.83 9.17 L 12.67 9.33 L 12.5 9.5 L 12.33 9.67 L 12.17 9.83 L 12.0 10.0 L 11.83 10.17 L 11.67 10.33 L 11.5 10.5 L 11.33 10.67 L 11.17 10.83 L 11.0 11.0 L 10.83 11.17 L 10.67 11.33 L 10.5 11.5 L 10.33 11.67 L 10.17 11.83 L 10.0 12.0" fill="none" stroke="#111" stroke-width="1.16" stroke-linecap="round" stroke-linejoin="round"/>
<path d="M 14.0 8.0 L 14.21 8.12 L 14.42 8.25 L 14.62 8.38 L 14.83 8.5 L 15.04 8.62 L 15.25 8.75 L 15.46 8.88 L 15.67 9.0 L 15.88 9.12 L 16.08 9.25 L 16.29 9.38 L 16.5 9.5 L 16.71 9.62 L 16.92 9.75 L 17.12 9.88 L 17.33 10.0 L 17.54 10.12 L 17.75 10.25 L 17.96 10.38 L 18.17 10.5 L 18.38 10.62 L 18.58 10.75 L 18.79 10.88 L 19.0 11.0" fill="none" stroke="#111" stroke-width="1.16" stroke-linecap="round" stroke-linejoin="round"/>
<path d="M 14.0 8.0 L 14.0 8.25 L 14.0 8.5 L 14.0 8.75 L 14.0 9.0 L 14.0 9.25 L 14.0 9.5 L 14.0 9.75 L 14.0 10.0 L 14.0 10.25 L 14.0 10.5 L 14.0 10.75 L 14.0 11.0 L 14.0 11.25 L 14.0 11.5 L 14.0 11.75 L 14.0 12.0 L 14.0 12.25 L 14.0 12.5 L 14.0 12.75 L 14.0 13.0 L 14.0 13.25 L 14.0 13.5 L 14.0 13.75 L 14.0 14.0" fill="none" stroke="#111" stroke-width="1.16" stroke-linecap="round" stroke-linejoin="round"/>
<path d="M 14.0 14.0 L 13.83 14.17 L 13.67 14.33 L 13.5 14.5 L 13.33 14.67 L 13.17 14.83 L 13.0 15.0 L 12.83 15.17 L 12.67 15.33 L 12.5 15.5 L 12.33 15.67 L 12.17 15.83 L 12.0 16.0 L 11.83 16.17 L 11.67 16.33 L 11.5 16.5 L 11.33 16.67 L 11.17 16.83 L 11.0 17.0 L 10.83 17.17 L 10.67 17.33 L 10.5 17.5 L 10.33 17.67 L 10.17 17.83 L 10.0 18.0" fill="none" stroke="#111" stroke-width="1.16" stroke-linecap="round" stroke-linejoin="round"/>
<path d="M 14.0 14.0 L 14.17 14.17 L 14.33 14.33 L 14.5 14.5 L 14.67 14.67 L 14.83 14.83 L 15.0 15.0 L 15.17 15.17 L 15.33 15.33 L 15.5 15.5 L 15.67 15.67 L 15.83 15.83 L 16.0 16.0 L 16.17 16.17 L 16.33 16.33 L 16.5 16.5 L 16.67 16.67 L 16.83 16.83 L 17.0 17.0 L 17.17 17.17 L 17.33 17.33 L 17.5 17.5 L 17.67 17.67 L 17.83 17.83 L 18.0 18.0" fill="none" stroke="#111" stroke-width="1.16" stroke-linecap="round" stroke-linejoin="round"/>
<path d="M 12.0 21.0 L 12.0 21.29 L 12.0 21.58 L 12.0 21.88 L 12.0 22.17 L 12.0 22.46 L 12.0 22.75 L 12.0 23.04 L 12.0 23.33 L 12.0 23.62 L 12.0 23.92 L 12.0 24.21 L 12.0 24.5 L 12.0 24.79 L 12.0 25.08 L 12.0 25.38 L 12.0 25.67 L 12.0 25.96 L 12.0 26.25 L 12.0 26.54 L 12.0 26.83 L 12.0 27.12 L 12.0 27.42 L 12.0 27.71 L 12.0 28.0 L 12.0 28.0 L 12.17 27.96 L 12.33 27.92 L 12.5 27.88 L 12.67 27.83 L 12.83 27.79 L 13.0 27.75 L 13.17 27.71 L 13.33 27.67 L 13.5 27.62 L 13.67 27.58 L 13.83 27.54 L 14.0 27.5 L 14.17 27.46 L 14.33 27.42 L 14.5 27.38 L 14.67 27.33 L 14.83 27.29 L 15.0 27.25 L 15.17 27.21 L 15.33 27.17 L 15.5 27.12 L 15.67 27.08 L 15.83 27.04 L 16.0 27.0" fill="none" stroke="#111" stroke-width="1.16" stroke-linecap="round" stroke-linejoin="round"/>
<path d="M 15.0 20.0 L 15.04 20.29 L 15.08 20.58 L 15.12 20.88 L 15.17 21.17 L 15.21 21.46 L 15.25 21.75 L 15.29 22.04 L 15.33 22.33 L 15.38 22.62 L 15.42 22.92 L 15.46 23.21 L 15.5 23.5 L 15.54 23.79 L 15.58 24.08 L 15.62 24.38 L 15.67 24.67 L 15.71 24.96 L 15.75 25.25 L 15.79 25.54 L 15.83 25.83 L 15.88 26.12 L 15.92 26.42 L 15.96 26.71 L 16.0 27.0" fill="none" stroke="#111" stroke-width="1.16" stroke-linecap="round" stroke-linejoin="round"/>
<path d="M 12.0 24.0 L 12.36 24.12 L 12.74 24.21 L 13.12 24.27 L 13.5 24.3 L 13.88 24.28 L 14.27 24.24 L 14.64 24.16 L 15.01 24.05 L 15.37 23.91 L 15.71 23.73 L 16.03 23.53 L 16.34 23.29 L 16.62 23.04 L 16.88 22.75 L 17.12 22.45 L 17.32 22.12 L 17.5 21.78 L 17.64 21.43 L 17.76 21.06 L 17.83 20.68 L 17.88 20.3 L 17.89 19.92 L 17.87 19.53 L 17.81 19.15" fill="none" stroke="#111" stroke-width="1.16" stroke-linecap="round" stroke-linejoin="round"/>
<path d="M 8.0 8.0 L 8.12 8.46 L 8.21 8.93 L 8.28 9.4 L 8.32 9.87 L 8.34 10.34 L 8.33 10.82 L 8.29 11.29 L 8.23 11.76 L 8.14 12.23 L 8.02 12.69 L 7.89 13.15 L 7.72 13.59 L 7.53 14.03 L 7.32 14.45 L 7.09 14.87 L 6.83 15.26 L 6.55 15.65 L 6.25 16.02 L 5.93 16.37 L 5.59 16.7 L 5.23 17.01 L 4.86 17.31 L 4.47 17.58 L 4.07 17.83" fill="none" stroke="#111" stroke-width="1.16" stroke-linecap="round" stroke-linejoin="round"/>
<path d="M 8.0 19.0 L 7.83 19.21 L 7.67 19.42 L 7.5 19.62 L 7.33 19.83 L 7.17 20.04 L 7.0 20.25 L 6.83 20.46 L 6.67 20.67 L 6.5 20.88 L 6.33 21.08 L 6.17 21.29 L 6.0 21.5 L 5.83 21.71 L 5.67 21.92 L 5.5 22.12 L 5.33 22.33 L 5.17 22.54 L 5.0 22.75 L 4.83 22.96 L 4.67 23.17 L 4.5 23.38 L 4.33 23.58 L 4.17 23.79 L 4.0 24.0" fill="none" stroke="#111" stroke-width="1.16" stroke-linecap="round" stroke-linejoin="round"/>
<path d="M 7.0 20.0 L 7.0 20.38 L 7.0 20.75 L 7.0 21.12 L 7.0 21.5 L 7.0 21.88 L 7.0 22.25 L 7.0 22.62 L 7.0 23.0 L 7.0 23.38 L 7.0 23.75 L 7.0 24.12 L 7.0 24.5 L 7.0 24.88 L 7.0 25.25 L 7.0 25.62 L 7.0 26.0 L 7.0 26.38 L 7.0 26.75 L 7.0 27.12 L 7.0 27.5 L 7.0 27.88 L 7.0 28.25 L 7.0 28.62 L 7.0 29.0" fill="none" stroke="#111" stroke-width="1.16" stroke-linecap="round" stroke-linejoin="round"/>
</svg>
