<?xml version="1.0" encoding="UTF-8"?>
<svg xmlns="http://www.w3.org/2000/svg" viewBox="0 0 19.00 28.00">
<path d="M 4.0 5.0 L 4.0 5.79 L 4.0 6.58 L 4.0 7.38 L 4.0 8.17 L 4.0 8.96 L 4.0 9.75 L 4.0 10.54 L 4.0 11.33 L 4.0 12.12 L 4.0 12.92 L 4.0 13.71 L 4.0 14.5 L 4.0 15.29 L 4.0 16.08 L 4.0 16.88 L 4.0 17.67 L 4.0 18.46 L 4.0 19.25 L 4.0 20.04 L 4.0 20.83 L 4.0 21.62 L 4.0 22.42 L 4.0 23.21 L 4.0 24.0" fill="none" stroke="#111" stroke-width="0.98" stroke-linecap="round" stroke-linejoin="round"/>
<path d="M 14.0 4.0 L 14.04 4.83 L 14.08 5.67 L 14.12 6.5 L 14.17 7.33 L 14.21 8.17 L 14.25 9.0 L 14.29 9.83 L 14.33 10.67 L 14.38 11.5 L 14.42 12.33 L 14.46 13.17 L 14.5 14.0 L 14.54 14.83 L 14.58 15.67 L 14.62 16.5 L 14.67 17.33 L 14.71 18.17 L 14.75 19.0 L 14.79 19.83 L 14.83 20.67 L 14.88 21.5 L 14.92 22.33 L 14.96 23.17 L 15.0 24.0" fill="none" stroke="#111" stroke-width="0.98" stroke-linecap="round" stroke-linejoin="round"/>
<path d="M 4.0 11.0 L 4.42 10.96 L 4.83 10.92 L 5.25 10.88 L 5.67 10.83 L 6.08 10.79 L 6.5 10.75 L 6.92 10.71 L 7.33 10.67 L 7.75 10.62 L 8.17 10.58 L 8.58 10.54 L 9.0 10.5 L 9.42 10.46 L 9.83 10.42 L 10.25 10.38 L 10.67 10.33 L 11.08 10.29 L 11.5 10.25 L 11.92 10.21 L 12.33 10.17 L 12.75 10.12 L 13.17 10.08 L 13.58 10.04 L 14.0 10.0" fill="none" stroke="#111" stroke-width="0.98" stroke-linecap="round" stroke-linejoin="round"/>
<path d="M 4.0 18.0 L 4.46 18.0 L 4.92 18.0 L 5.38 18.0 L 5.83 18.0 L 6.29 18.0 L 6.75 18.0 L 7.21 18.0 L 7.67 18.0 L 8.12 18.0 L 8.58 18.0 L 9.04 18.0 L 9.5 18.0 L 9.96 18.0 L 10.42 18.0 L 10.88 18.0 L 11.33 18.0 L 11.79 18.0 L 12.25 18.0 L 12.71 18.0 L 13.17 18.0 L 13.62 18.0 L 14.08 18.0 L 14.54 18.0 L 15.0 18.0" fill="none" stroke="#111" stroke-width="0.98" stroke-linecap="round" stroke-linejoin="round"/>
<path d="M 7.0 14.0 L 7.17 14.0 L 7.33 14.0 L 7.5 14.0 L 7.67 14.0 L 7.83 14.0 L 8.0 14.0 L 8.17 14.0 L 8.33 14.0 L 8.5 14.0 L 8.67 14.0 L 8.83 14.0 L 9.0 14.0 L 9.17 14.0 L 9.33 14.0 L 9.5 14.0 L 9.67 14.0 L 9.83 14.0 L 10.0 14.0 L 10.17 14.0 L 10.33 14.0 L 10.5 14.0 L 10.67 14.0 L 10.83 14.0 L 11.0 14.0" fill="none" stroke="#111" stroke-width="0.98" stroke-linecap="round" stroke-linejoin="round"/>
</svg>
