<?xml version="1.0" encoding="UTF-8"?>
<svg xmlns="http://www.w3.org/2000/svg" viewBox="0 0 25.00 33.00">
<path d="M 4.0 6.0 L 4.0 6.88 L 4.0 7.75 L 4.0 8.62 L 4.0 9.5 L 4.0 10.38 L 4.0 11.25 L 4.0 12.12 L 4.0 13.0 L 4.0 13.88 L 4.0 14.75 L 4.0 15.62 L 4.0 16.5 L 4.0 17.38 L 4.0 18.25 L 4.0 19.12 L 4.0 20.0 L 4.0 20.88 L 4.0 21.75 L 4.0 22.62 L 4.0 23.5 L 4.0 24.38 L 4.0 25.25 L 4.0 26.12 L 4.0 27.0" fill="none" stroke="#111" stroke-width="1.16" stroke-linecap="round" stroke-linejoin="round"/>
<path d="M 10.0 5.0 L 10.0 6.0 L 10.0 7.0 L 10.0 8.0 L 10.0 9.0 L 10.0 10.0 L 10.0 11.0 L 10.0 12.0 L 10.0 13.0 L 10.0 14.0 L 10.0 15.0 L 10.0 16.0 L 10.0 17.0 L 10.0 18.0 L 10.0 19.0 L 10.0 20.0 L 10.0 21.0 L 10.0 22.0 L 10.0 23.0 L 10.0 24.0 L 10.0 25.0 L 10.0 26.0 L 10.0 27.0 L 10.0 28.0 L 10.0 29.0" fill="none" stroke="#111" stroke-width="1.16" stroke-linecap="round" stroke-linejoin="round"/>
<path d="M 4.0 6.0 L 4.25 5.96 L 4.5 5.92 L 4.75 5.88 L 5.0 5.83 L 5.25 5.79 L 5.5 5.75 L 5.75 5.71 L 6.0 5.67 L 6.25 5.62 L 6.5 5.58 L 6.75 5.54 L 7.0 5.5 L 7.25 5.46 L 7.5 5.42 L 7.75 5.38 L 8.0 5.33 L 8.25 5.29 L 8.5 5.25 L 8.75 5.21 L 9.0 5.17 L 9.25 5.12 L 9.5 5.08 L 9.75 5.04 L 10.0 5.0" fill="none" stroke="#111" stroke-width="1.16" stroke-linecap="round" stroke-linejoin="round"/>
<path d="M 5.0 12.0 L 5.04 11.83 L 5.08 11.67 L 5.12 11.5 L 5.17 11.33 L 5.21 11.17 L 5.25 11.0 L 5.29 10.83 L 5.33 10.67 L 5.38 10.5 L 5.42 10.33 L 5.46 10.17 L 5.5 10.0 L 5.54 9.83 L 5.58 9.67 L 5.62 9.5 L 5.67 9.33 L 5.71 9.17 L 5.75 9.0 L 5.79 8.83 L 5.83 8.67 L 5.88 8.5 L 5.92 8.33 L 5.96 8.17 L 6.0 8.0 L 6.0 8.0 L 6.12 8.17 L 6.25 8.33 L 6.38 8.5 L 6.5 8.67 L 6.62 8.83 L 6.75 9.0 L 6.88 9.17 L 7.0 9.33 L 7.12 9.5 L 7.25 9.67 L 7.38 9.83 L 7.5 10.0 L 7.62 10.17 L 7.75 10.33 L 7.88 10.5 L 8.0 10.67 L 8.12 10.83 L 8.25 11.0 L 8.38 11.17 L 8.5 11.33 L 8.62 11.5 L 8.75 11.67 L 8.88 11.83 L 9.0 12.0" fill="none" stroke="#111" stroke-width="1.16" stroke-linecap="round" stroke-linejoin="round"/>
<path d="M 4.0 17.0 L 4.12 16.88 L 4.25 16.75 L 4.38 16.62 L 4.5 16.5 L 4.62 16.38 L 4.75 16.25 L 4.88 16.12 L 5.0 16.0 L 5.12 15.88 L 5.25 15.75 L 5.38 15.62 L 5.5 15.5 L 5.62 15.38 L 5.75 15.25 L 5.88 15.12 L 6.0 15.0 L 6.12 14.88 L 6.25 14.75 L 6.38 14.62 L 6.5 14.5 L 6.62 14.38 L 6.75 14.25 L 6.88 14.12 L 7.0 14.0 L 7.0 14.0 L 7.12 14.12 L 7.25 14.25 L 7.38 14.38 L 7.5 14.5 L 7.62 14.62 L 7.75 14.75 L 7.88 14.88 L 8.0 15.0 L 8.12 15.12 L 8.25 15.25 L 8.38 15.38 L 8.5 15.5 L 8.62 15.62 L 8.75 15.75 L 8.88 15.88 L 9.0 16.0 L 9.12 16.12 L 9.25 16.25 L 9.38 16.38 L 9.5 16.5 L 9.62 16.62 L 9.75 16.75 L 9.88 16.88 L 10.0 17.0" fill="none" stroke="#111" stroke-width="1.16" stroke-linecap="round" stroke-linejoin="round"/>
<path d="M 5.0 22.0 L 5.08 21.88 L 5.17 21.75 L 5.25 21.62 L 5.33 21.5 L 5.42 21.38 L 5.5 21.25 L 5.58 21.12 L 5.67 21.0 L 5.75 20.88 L 5.83 20.75 L 5.92 20.62 L 6.0 20.5 L 6.08 20.38 L 6.17 20.25 L 6.25 20.12 L 6.33 20.0 L 6.42 19.88 L 6.5 19.75 L 6.58 19.62 L 6.67 19.5 L 6.75 19.38 L 6.83 19.25 L 6.92 19.12 L 7.0 19.0 L 7.0 19.0 L 7.08 19.12 L 7.17 19.25 L 7.25 19.38 L 7.33 19.5 L 7.42 19.62 L 7.5 19.75 L 7.58 19.88 L 7.67 20.0 L 7.75 20.12 L 7.83 20.25 L 7.92 20.38 L 8.0 20.5 L 8.08 20.62 L 8.17 20.75 L 8.25 20.88 L 8.33 21.0 L 8.42 21.12 L 8.5 21.25 L 8.58 21.38 L 8.67 21.5 L 8.75 21.62 L 8.83 21.75 L 8.92 21.88 L 9.0 22.0" fill="none" stroke="#111" stroke-width="1.16" stroke-linecap="round" stroke-linejoin="round"/>
<path d="M 4.0 27.0 L 4.25 27.0 L 4.5 27.0 L 4.75 27.0 L 5.0 27.0 L 5.25 27.0 L 5.5 27.0 L 5.75 27.0 L 6.0 27.0 L 6.25 27.0 L 6.5 27.0 L 6.75 27.0 L 7.0 27.0 L 7.25 27.0 L 7.5 27.0 L 7.75 27.0 L 8.0 27.0 L 8.25 27.0 L 8.5 27.0 L 8.75 27.0 L 9.0 27.0 L 9.25 27.0 L 9.5 27.0 L 9.75 27.0 L 10.0 27.0" fill="none" stroke="#111" stroke-width="1.16" stroke-linecap="round" stroke-linejoin="round"/>
<path d="M 14.0 4.0 L 14.0 4.46 L 14.0 4.92 L 14.0 5.38 L 14.0 5.83 L 14.0 6.29 L 14.0 6.75 L 14.0 7.21 L 14.0 7.67 L 14.0 8.12 L 14.0 8.58 L 14.0 9.04 L 14.0 9.5 L 14.0 9.96 L 14.0 10.42 L 14.0 10.88 L 14.0 11.33 L 14.0 11.79 L 14.0 12.25 L 14.0 12.71 L 14.0 13.17 L 14.0 13.62 L 14.0 14.08 L 14.0 14.54 L 14.0 15.0" fill="none" stroke="#111" stroke-width="1.16" stroke-linecap="round" stroke-linejoin="round"/>
<path d="M 14.0 12.0 L 14.65 12.38 L 15.26 12.81 L 15.82 13.31 L 16.34 13.85 L 16.8 14.44 L 17.19 15.08 L 17.53 15.75 L 17.8 16.45 L 18.0 17.17 L 18.13 17.91 L 18.19 18.66 L 18.18 19.41 L 18.09 20.15 L 17.94 20.88 L 17.71 21.6 L 17.41 22.29 L 17.05 22.94 L 16.63 23.56 L 16.15 24.14 L 15.62 24.67 L 15.03 25.14 L 14.41 25.55 L 13.75 25.91 L 13.05 26.19" fill="none" stroke="#111" stroke-width="1.16" stroke-linecap="round" stroke-linejoin="round"/>
<path d="M 14.0 17.0 L 14.29 17.5 L 14.58 18.0 L 14.88 18.5 L 15.17 19.0 L 15.46 19.5 L 15.75 20.0 L 16.04 20.5 L 16.33 21.0 L 16.62 21.5 L 16.92 22.0 L 17.21 22.5 L 17.5 23.0 L 17.79 23.5 L 18.08 24.0 L 18.38 24.5 L 18.67 25.0 L 18.96 25.5 L 19.25 26.0 L 19.54 26.5 L 19.83 27.0 L 20.12 27.5 L 20.42 28.0 L 20.71 28.5 L 21.0 29.0" fill="none" stroke="#111" stroke-width="1.16" stroke-linecap="round" stroke-linejoin="round"/>
</svg>
