<?xml version="1.0" encoding="UTF-8"?>
<svg xmlns="http://www.w3.org/2000/svg" viewBox="0 0 24.79 33.00">
<path d="M 12.79 4.0 L 11.84 4.59 L 10.93 5.25 L 10.06 5.95 L 9.24 6.72 L 8.47 7.53 L 7.75 8.39 L 7.09 9.29 L 6.48 10.24 L 5.94 11.22 L 5.46 12.23 L 5.05 13.27 L 4.7 14.34 L 4.42 15.42 L 4.21 16.52 L 4.07 17.63 L 4.0 18.75 L 4.0 19.87 L 4.07 20.99 L 4.22 22.1 L 4.43 23.2 L 4.71 24.29 L 5.07 25.35 L 5.48 26.39 L 5.97 27.4" fill="none" stroke="#111" stroke-width="1.16" stroke-linecap="round" stroke-linejoin="round"/>
<path d="M 11.79 4.0 L 12.17 4.38 L 12.54 4.75 L 12.92 5.12 L 13.29 5.5 L 13.67 5.88 L 14.04 6.25 L 14.42 6.62 L 14.79 7.0 L 15.17 7.38 L 15.54 7.75 L 15.92 8.12 L 16.29 8.5 L 16.67 8.88 L 17.04 9.25 L 17.42 9.62 L 17.79 10.0 L 18.17 10.38 L 18.54 10.75 L 18.92 11.12 L 19.29 11.5 L 19.67 11.88 L 20.04 12.25 L 20.42 12.62 L 20.79 13.0" fill="none" stroke="#111" stroke-width="1.16" stroke-linecap="round" stroke-linejoin="round"/>
<path d="M 20.79 13.0 L 20.75 13.58 L 20.71 14.17 L 20.67 14.75 L 20.62 15.33 L 20.58 15.92 L 20.54 16.5 L 20.5 17.08 L 20.46 17.67 L 20.42 18.25 L 20.37 18.83 L 20.33 19.42 L 20.29 20.0 L 20.25 20.58 L 20.21 21.17 L 20.17 21.75 L 20.12 22.33 L 20.08 22.92 L 20.04 23.5 L 20.0 24.08 L 19.96 24.67 L 19.92 25.25 L 19.87 25.83 L 19.83 26.42 L 19.79 27.0" fill="none" stroke="#111" stroke-width="1.16" stroke-linecap="round" stroke-linejoin="round"/>
<path d="M 14.79 10.0 L 14.71 10.12 L 14.62 10.25 L 14.54 10.38 L 14.46 10.5 L 14.37 10.62 L 14.29 10.75 L 14.21 10.88 L 14.12 11.0 L 14.04 11.12 L 13.96 11.25 L 13.87 11.38 L 13.79 11.5 L 13.71 11.62 L 13.62 11.75 L 13.54 11.88 L 13.46 12.0 L 13.37 12.12 L 13.29 12.25 L 13.21 12.38 L 13.12 12.5 L 13.04 12.62 L 12.96 12.75 L 12.87 12.88 L 12.79 13.0" fill="none" stroke="#111" stroke-width="1.16" stroke-linecap="round" stroke-linejoin="round"/>
<path d="M 13.79 10.0 L 13.87 10.12 L 13.96 10.25 L 14.04 10.38 L 14.12 10.5 L 14.21 10.62 L 14.29 10.75 L 14.37 10.88 L 14.46 11.0 L 14.54 11.12 L 14.62 11.25 L 14.71 11.38 L 14.79 11.5 L 14.87 11.62 L 14.96 11.75 L 15.04 11.88 L 15.12 12.0 L 15.21 12.12 L 15.29 12.25 L 15.37 12.38 L 15.46 12.5 L 15.54 12.62 L 15.62 12.75 L 15.71 12.88 L 15.79 13.0" fill="none" stroke="#111" stroke-width="1.16" stroke-linecap="round" stroke-linejoin="round"/>
<path d="M 14.79 13.0 L 14.5 13.29 L 14.23 13.6 L 13.98 13.93 L 13.76 14.27 L 13.56 14.63 L 13.38 15.0 L 13.23 15.38 L 13.11 15.77 L 13.01 16.17 L 12.94 16.58 L 12.9 16.99 L 12.88 17.4 L 12.9 17.81 L 12.94 18.22 L 13.01 18.62 L 13.11 19.02 L 13.23 19.41 L 13.38 19.79 L 13.56 20.16 L 13.76 20.52 L 13.98 20.86 L 14.23 21.19 L 14.5 21.5 L 14.79 21.79 L 14.79 22.0 L 15.1 21.72 L 15.38 21.42 L 15.65 21.1 L 15.89 20.77 L 16.1 20.41 L 16.29 20.04 L 16.45 19.66 L 16.58 19.27 L 16.69 18.87 L 16.76 18.46 L 16.81 18.05 L 16.82 17.64 L 16.81 17.23 L 16.76 16.81 L 16.69 16.41 L 16.58 16.01 L 16.45 15.62 L 16.29 15.23 L 16.1 14.87 L 15.89 14.51 L 15.65 14.17 L 15.38 13.86 L 15.1 13.56 L 14.79 13.28" fill="none" stroke="#111" stroke-width="1.16" stroke-linecap="round" stroke-linejoin="round"/>
<path d="M 14.79 22.0 L 14.79 22.29 L 14.79 22.58 L 14.79 22.88 L 14.79 23.17 L 14.79 23.46 L 14.79 23.75 L 14.79 24.04 L 14.79 24.33 L 14.79 24.62 L 14.79 24.92 L 14.79 25.21 L 14.79 25.5 L 14.79 25.79 L 14.79 26.08 L 14.79 26.38 L 14.79 26.67 L 14.79 26.96 L 14.79 27.25 L 14.79 27.54 L 14.79 27.83 L 14.79 28.12 L 14.79 28.42 L 14.79 28.71 L 14.79 29.0" fill="none" stroke="#111" stroke-width="1.16" stroke-linecap="round" stroke-linejoin="round"/>
<path d="M 9.79 10.0 L 9.9 10.34 L 9.99 10.69 L 10.07 11.04 L 10.13 11.39 L 10.17 11.75 L 10.19 12.11 L 10.2 12.46 L 10.19 12.82 L 10.16 13.18 L 10.12 13.54 L 10.06 13.89 L 9.98 14.24 L 9.88 14.58 L 9.77 14.93 L 9.64 15.26 L 9.5 15.59 L 9.34 15.91 L 9.17 16.22 L 8.98 16.53 L 8.77 16.82 L 8.55 17.1 L 8.32 17.38 L 8.08 17.64 L 7.82 17.89 L 7.79 18.0 L 8.05 18.35 L 8.3 18.71 L 8.53 19.08 L 8.75 19.46 L 8.95 19.84 L 9.14 20.24 L 9.31 20.64 L 9.47 21.05 L 9.61 21.46 L 9.74 21.88 L 9.85 22.3 L 9.94 22.72 L 10.02 23.15 L 10.08 23.59 L 10.12 24.02 L 10.15 24.46 L 10.16 24.89 L 10.16 25.33 L 10.13 25.76 L 10.1 26.2 L 10.04 26.63 L 9.97 27.06 L 9.88 27.49 L 9.77 27.91" fill="none" stroke="#111" stroke-width="1.16" stroke-linecap="round" stroke-linejoin="round"/>
<path d="M 7.79 18.0 L 8.0 18.0 L 8.21 18.0 L 8.42 18.0 L 8.62 18.0 L 8.83 18.0 L 9.04 18.0 L 9.25 18.0 L 9.46 18.0 L 9.67 18.0 L 9.87 18.0 L 10.08 18.0 L 10.29 18.0 L 10.5 18.0 L 10.71 18.0 L 10.92 18.0 L 11.12 18.0 L 11.33 18.0 L 11.54 18.0 L 11.75 18.0 L 11.96 18.0 L 12.17 18.0 L 12.37 18.0 L 12.58 18.0 L 12.79 18.0" fill="none" stroke="#111" stroke-width="1.16" stroke-linecap="round" stroke-linejoin="round"/>
<path d="M 11.79 22.0 L 11.92 22.08 L 12.04 22.17 L 12.17 22.25 L 12.29 22.33 L 12.42 22.42 L 12.54 22.5 L 12.67 22.58 L 12.79 22.67 L 12.92 22.75 L 13.04 22.83 L 13.17 22.92 L 13.29 23.0 L 13.42 23.08 L 13.54 23.17 L 13.67 23.25 L 13.79 23.33 L 13.92 23.42 L 14.04 23.5 L 14.17 23.58 L 14.29 23.67 L 14.42 23.75 L 14.54 23.83 L 14.67 23.92 L 14.79 24.0" fill="none" stroke="#111" stroke-width="1.16" stroke-linecap="round" stroke-linejoin="round"/>
<path d="M 17.79 21.0 L 17.67 21.12 L 17.54 21.25 L 17.42 21.38 L 17.29 21.5 L 17.17 21.62 L 17.04 21.75 L 16.92 21.88 L 16.79 22.0 L 16.67 22.12 L 16.54 22.25 L 16.42 22.38 L 16.29 22.5 L 16.17 22.62 L 16.04 22.75 L 15.92 22.88 L 15.79 23.0 L 15.67 23.12 L 15.54 23.25 L 15.42 23.38 L 15.29 23.5 L 15.17 23.62 L 15.04 23.75 L 14.92 23.88 L 14.79 24.0" fill="none" stroke="#111" stroke-width="1.16" stroke-linecap="round" stroke-linejoin="round"/>
<path d="M 11.79 18.0 L 12.04 18.0 L 12.29 18.0 L 12.54 18.0 L 12.79 18.0 L 13.04 18.0 L 13.29 18.0 L 13.54 18.0 L 13.79 18.0 L 14.04 18.0 L 14.29 18.0 L 14.54 18.0 L 14.79 18.0 L 15.04 18.0 L 15.29 18.0 L 15.54 18.0 L 15.79 18.0 L 16.04 18.0 L 16.29 18.0 L 16.54 18.0 L 16.79 18.0 L 17.04 18.0 L 17.29 18.0 L 17.54 18.0 L 17.79 18.0" fill="none" stroke="#111" stroke-width="1.16" stroke-linecap="round" stroke-linejoin="round"/>
</svg>
