<?xml version="1.0" encoding="UTF-8"?>
<svg xmlns="http://www.w3.org/2000/svg" viewBox="0 0 18.86 36.71">
<path d="M 9.6 12.0 L 8.91 12.28 L 8.28 12.69 L 7.74 13.2 L 7.3 13.8 L 6.97 14.47 L 6.78 15.19 L 6.72 15.94 L 6.79 16.68 L 7.0 17.39 L 7.34 18.06 L 7.79 18.65 L 8.35 19.15 L 8.98 19.54 L 9.68 19.81 L 10.41 19.95 L 11.16 19.95 L 11.89 19.82 L 12.59 19.55 L 13.23 19.16 L 13.78 18.66 L 14.23 18.07 L 14.57 17.4 L 14.78 16.69 L 14.86 15.95 L 13.6 15.0 L 13.6 14.92 L 13.6 14.83 L 13.6 14.75 L 13.6 14.67 L 13.6 14.58 L 13.6 14.5 L 13.6 14.42 L 13.6 14.33 L 13.6 14.25 L 13.6 14.17 L 13.6 14.08 L 13.6 14.0 L 13.6 13.92 L 13.6 13.83 L 13.6 13.75 L 13.6 13.67 L 13.6 13.58 L 13.6 13.5 L 13.6 13.42 L 13.6 13.33 L 13.6 13.25 L 13.6 13.17 L 13.6 13.08 L 13.6 13.0 L 13.6 13.0 L 13.47 12.89 L 13.32 12.78 L 13.18 12.68 L 13.03 12.59 L 12.88 12.5 L 12.72 12.41 L 12.57 12.33 L 12.4 12.26 L 12.24 12.2 L 12.07 12.14 L 11.9 12.09 L 11.73 12.04 L 11.56 12.0 L 11.39 11.97 L 11.21 11.94 L 11.04 11.92 L 10.86 11.91 L 10.69 11.9 L 10.51 11.9 L 10.33 11.91 L 10.16 11.93 L 9.98 11.95 L 9.81 11.97 L 9.64 12.01" fill="none" stroke="#111" stroke-width="1.28" stroke-linecap="round" stroke-linejoin="round"/>
<path d="M 6.6 6.0 L 6.94 6.7 L 7.26 7.41 L 7.56 8.12 L 7.84 8.84 L 8.11 9.57 L 8.36 10.31 L 8.59 11.05 L 8.8 11.79 L 8.99 12.54 L 9.17 13.3 L 9.32 14.06 L 9.46 14.82 L 9.58 15.59 L 9.68 16.36 L 9.76 17.13 L 9.82 17.9 L 9.86 18.68 L 9.88 19.45 L 9.89 20.23 L 9.87 21.0 L 9.84 21.78 L 9.78 22.55 L 9.71 23.32 L 9.62 24.09" fill="none" stroke="#111" stroke-width="1.28" stroke-linecap="round" stroke-linejoin="round"/>
<path d="M 12.6 7.0 L 12.28 7.65 L 11.97 8.32 L 11.69 8.98 L 11.41 9.66 L 11.16 10.34 L 10.92 11.03 L 10.7 11.72 L 10.49 12.42 L 10.3 13.13 L 10.13 13.83 L 9.98 14.55 L 9.84 15.26 L 9.73 15.98 L 9.63 16.7 L 9.54 17.43 L 9.48 18.15 L 9.43 18.88 L 9.4 19.61 L 9.39 20.34 L 9.4 21.06 L 9.43 21.79 L 9.47 22.52 L 9.53 23.25 L 9.61 23.97" fill="none" stroke="#111" stroke-width="1.28" stroke-linecap="round" stroke-linejoin="round"/>
<path d="M 9.6 21.0 L 10.05 21.02 L 10.49 21.11 L 10.92 21.25 L 11.32 21.46 L 11.68 21.73 L 12.01 22.04 L 12.28 22.4 L 12.5 22.79 L 12.66 23.21 L 12.76 23.65 L 12.8 24.1 L 12.76 24.55 L 12.67 24.99 L 12.51 25.41 L 12.29 25.8 L 12.02 26.16 L 11.7 26.48 L 11.34 26.74 L 10.94 26.95 L 10.51 27.1 L 10.07 27.19 L 9.62 27.22 L 9.17 27.17 L 8.74 27.07" fill="none" stroke="#111" stroke-width="1.28" stroke-linecap="round" stroke-linejoin="round"/>
<path d="M 9.6 24.0 L 9.93 24.24 L 10.25 24.5 L 10.55 24.78 L 10.83 25.08 L 11.09 25.4 L 11.33 25.73 L 11.55 26.08 L 11.74 26.43 L 11.92 26.81 L 12.07 27.19 L 12.19 27.58 L 12.29 27.97 L 12.37 28.37 L 12.42 28.78 L 12.45 29.19 L 12.45 29.6 L 12.42 30.01 L 12.37 30.41 L 12.29 30.82 L 12.19 31.21 L 12.06 31.6 L 11.91 31.98 L 11.74 32.35 L 11.54 32.71" fill="none" stroke="#111" stroke-width="1.28" stroke-linecap="round" stroke-linejoin="round"/>
<path d="M 12.6 4.0 L 12.24 4.12 L 11.91 4.33 L 11.64 4.61 L 11.45 4.95 L 11.35 5.32 L 11.34 5.71 L 11.43 6.08 L 11.6 6.43 L 11.86 6.72 L 12.17 6.94 L 12.53 7.08 L 12.92 7.13 L 13.3 7.08 L 13.66 6.94 L 13.98 6.72 L 14.23 6.43 L 14.4 6.08 L 14.49 5.71 L 14.48 5.32 L 14.38 4.95 L 14.19 4.61 L 13.92 4.33 L 13.6 4.12 L 13.23 4.0" fill="none" stroke="#111" stroke-width="1.28" stroke-linecap="round" stroke-linejoin="round"/>
<path d="M 5.6 4.0 L 5.33 4.02 L 5.07 4.08 L 4.82 4.19 L 4.6 4.34 L 4.4 4.52 L 4.24 4.74 L 4.12 4.98 L 4.04 5.24 L 4.0 5.5 L 4.01 5.77 L 4.07 6.04 L 4.17 6.29 L 4.31 6.52 L 4.48 6.72 L 4.69 6.89 L 4.93 7.02 L 5.18 7.11 L 5.45 7.16 L 5.72 7.16 L 5.98 7.11 L 6.24 7.02 L 6.47 6.89 L 6.68 6.72 L 6.86 6.51 L 6.6 6.0 L 6.64 5.92 L 6.69 5.83 L 6.73 5.75 L 6.77 5.67 L 6.81 5.58 L 6.85 5.5 L 6.89 5.42 L 6.94 5.33 L 6.98 5.25 L 7.02 5.17 L 7.06 5.08 L 7.1 5.0 L 7.14 4.92 L 7.19 4.83 L 7.23 4.75 L 7.27 4.67 L 7.31 4.58 L 7.35 4.5 L 7.39 4.42 L 7.44 4.33 L 7.48 4.25 L 7.52 4.17 L 7.56 4.08 L 7.6 4.0 L 7.6 4.0 L 7.52 4.0 L 7.44 4.0 L 7.35 4.0 L 7.27 4.0 L 7.19 4.0 L 7.1 4.0 L 7.02 4.0 L 6.94 4.0 L 6.85 4.0 L 6.77 4.0 L 6.69 4.0 L 6.6 4.0 L 6.52 4.0 L 6.44 4.0 L 6.35 4.0 L 6.27 4.0 L 6.19 4.0 L 6.1 4.0 L 6.02 4.0 L 5.94 4.0 L 5.85 4.0 L 5.77 4.0 L 5.69 4.0 L 5.6 4.0" fill="none" stroke="#111" stroke-width="1.28" stroke-linecap="round" stroke-linejoin="round"/>
</svg>
