<?xml version="1.0" encoding="UTF-8"?>
<svg xmlns="http://www.w3.org/2000/svg" viewBox="0 0 21.00 26.00">
<path d="M 4.0 6.0 L 4.04 6.25 L 4.08 6.5 L 4.12 6.75 L 4.17 7.0 L 4.21 7.25 L 4.25 7.5 L 4.29 7.75 L 4.33 8.0 L 4.38 8.25 L 4.42 8.5 L 4.46 8.75 L 4.5 9.0 L 4.54 9.25 L 4.58 9.5 L 4.62 9.75 L 4.67 10.0 L 4.71 10.25 L 4.75 10.5 L 4.79 10.75 L 4.83 11.0 L 4.88 11.25 L 4.92 11.5 L 4.96 11.75 L 5.0 12.0" fill="none" stroke="#111" stroke-width="0.91" stroke-linecap="round" stroke-linejoin="round"/>
<path d="M 4.0 5.0 L 4.5 4.96 L 5.0 4.92 L 5.5 4.88 L 6.0 4.83 L 6.5 4.79 L 7.0 4.75 L 7.5 4.71 L 8.0 4.67 L 8.5 4.62 L 9.0 4.58 L 9.5 4.54 L 10.0 4.5 L 10.5 4.46 L 11.0 4.42 L 11.5 4.38 L 12.0 4.33 L 12.5 4.29 L 13.0 4.25 L 13.5 4.21 L 14.0 4.17 L 14.5 4.12 L 15.0 4.08 L 15.5 4.04 L 16.0 4.0" fill="none" stroke="#111" stroke-width="0.91" stroke-linecap="round" stroke-linejoin="round"/>
<path d="M 16.0 4.0 L 16.04 4.17 L 16.08 4.33 L 16.12 4.5 L 16.17 4.67 L 16.21 4.83 L 16.25 5.0 L 16.29 5.17 L 16.33 5.33 L 16.38 5.5 L 16.42 5.67 L 16.46 5.83 L 16.5 6.0 L 16.54 6.17 L 16.58 6.33 L 16.62 6.5 L 16.67 6.67 L 16.71 6.83 L 16.75 7.0 L 16.79 7.17 L 16.83 7.33 L 16.88 7.5 L 16.92 7.67 L 16.96 7.83 L 17.0 8.0" fill="none" stroke="#111" stroke-width="0.91" stroke-linecap="round" stroke-linejoin="round"/>
<path d="M 17.0 8.0 L 16.96 8.08 L 16.92 8.17 L 16.88 8.25 L 16.83 8.33 L 16.79 8.42 L 16.75 8.5 L 16.71 8.58 L 16.67 8.67 L 16.62 8.75 L 16.58 8.83 L 16.54 8.92 L 16.5 9.0 L 16.46 9.08 L 16.42 9.17 L 16.38 9.25 L 16.33 9.33 L 16.29 9.42 L 16.25 9.5 L 16.21 9.58 L 16.17 9.67 L 16.12 9.75 L 16.08 9.83 L 16.04 9.92 L 16.0 10.0" fill="none" stroke="#111" stroke-width="0.91" stroke-linecap="round" stroke-linejoin="round"/>
<path d="M 6.0 8.0 L 6.29 7.96 L 6.58 7.92 L 6.88 7.88 L 7.17 7.83 L 7.46 7.79 L 7.75 7.75 L 8.04 7.71 L 8.33 7.67 L 8.62 7.62 L 8.92 7.58 L 9.21 7.54 L 9.5 7.5 L 9.79 7.46 L 10.08 7.42 L 10.38 7.38 L 10.67 7.33 L 10.96 7.29 L 11.25 7.25 L 11.54 7.21 L 11.83 7.17 L 12.12 7.12 L 12.42 7.08 L 12.71 7.04 L 13.0 7.0" fill="none" stroke="#111" stroke-width="0.91" stroke-linecap="round" stroke-linejoin="round"/>
<path d="M 4.0 12.0 L 4.46 11.92 L 4.92 11.83 L 5.38 11.75 L 5.83 11.67 L 6.29 11.58 L 6.75 11.5 L 7.21 11.42 L 7.67 11.33 L 8.12 11.25 L 8.58 11.17 L 9.04 11.08 L 9.5 11.0 L 9.96 10.92 L 10.42 10.83 L 10.88 10.75 L 11.33 10.67 L 11.79 10.58 L 12.25 10.5 L 12.71 10.42 L 13.17 10.33 L 13.62 10.25 L 14.08 10.17 L 14.54 10.08 L 15.0 10.0" fill="none" stroke="#111" stroke-width="0.91" stroke-linecap="round" stroke-linejoin="round"/>
<path d="M 9.0 17.0 L 9.04 17.21 L 9.08 17.42 L 9.12 17.62 L 9.17 17.83 L 9.21 18.04 L 9.25 18.25 L 9.29 18.46 L 9.33 18.67 L 9.38 18.88 L 9.42 19.08 L 9.46 19.29 L 9.5 19.5 L 9.54 19.71 L 9.58 19.92 L 9.62 20.12 L 9.67 20.33 L 9.71 20.54 L 9.75 20.75 L 9.79 20.96 L 9.83 21.17 L 9.88 21.38 L 9.92 21.58 L 9.96 21.79 L 10.0 22.0" fill="none" stroke="#111" stroke-width="0.91" stroke-linecap="round" stroke-linejoin="round"/>
<path d="M 8.0 17.0 L 8.38 16.96 L 8.75 16.92 L 9.12 16.88 L 9.5 16.83 L 9.88 16.79 L 10.25 16.75 L 10.62 16.71 L 11.0 16.67 L 11.38 16.62 L 11.75 16.58 L 12.12 16.54 L 12.5 16.5 L 12.88 16.46 L 13.25 16.42 L 13.62 16.38 L 14.0 16.33 L 14.38 16.29 L 14.75 16.25 L 15.12 16.21 L 15.5 16.17 L 15.88 16.12 L 16.25 16.08 L 16.62 16.04 L 17.0 16.0" fill="none" stroke="#111" stroke-width="0.91" stroke-linecap="round" stroke-linejoin="round"/>
<path d="M 17.0 16.0 L 17.0 16.21 L 17.0 16.42 L 17.0 16.62 L 17.0 16.83 L 17.0 17.04 L 17.0 17.25 L 17.0 17.46 L 17.0 17.67 L 17.0 17.88 L 17.0 18.08 L 17.0 18.29 L 17.0 18.5 L 17.0 18.71 L 17.0 18.92 L 17.0 19.12 L 17.0 19.33 L 17.0 19.54 L 17.0 19.75 L 17.0 19.96 L 17.0 20.17 L 17.0 20.38 L 17.0 20.58 L 17.0 20.79 L 17.0 21.0" fill="none" stroke="#111" stroke-width="0.91" stroke-linecap="round" stroke-linejoin="round"/>
<path d="M 10.0 22.0 L 10.29 21.96 L 10.58 21.92 L 10.88 21.88 L 11.17 21.83 L 11.46 21.79 L 11.75 21.75 L 12.04 21.71 L 12.33 21.67 L 12.62 21.62 L 12.92 21.58 L 13.21 21.54 L 13.5 21.5 L 13.79 21.46 L 14.08 21.42 L 14.38 21.38 L 14.67 21.33 L 14.96 21.29 L 15.25 21.25 L 15.54 21.21 L 15.83 21.17 L 16.12 21.12 L 16.42 21.08 L 16.71 21.04 L 17.0 21.0" fill="none" stroke="#111" stroke-width="0.91" stroke-linecap="round" stroke-linejoin="round"/>
</svg>
