<?xml version="1.0" encoding="UTF-8"?>
<svg xmlns="http://www.w3.org/2000/svg" viewBox="0 0 25.00 34.00">
<path d="M 12.0 4.0 L 12.0 4.62 L 12.0 5.25 L 12.0 5.88 L 12.0 6.5 L 12.0 7.12 L 12.0 7.75 L 12.0 8.38 L 12.0 9.0 L 12.0 9.62 L 12.0 10.25 L 12.0 10.88 L 12.0 11.5 L 12.0 12.12 L 12.0 12.75 L 12.0 13.38 L 12.0 14.0 L 12.0 14.62 L 12.0 15.25 L 12.0 15.88 L 12.0 16.5 L 12.0 17.12 L 12.0 17.75 L 12.0 18.38 L 12.0 19.0" fill="none" stroke="#111" stroke-width="1.19" stroke-linecap="round" stroke-linejoin="round"/>
<path d="M 12.0 6.0 L 11.87 6.08 L 11.75 6.17 L 11.62 6.25 L 11.5 6.33 L 11.37 6.42 L 11.25 6.5 L 11.12 6.58 L 11.0 6.67 L 10.87 6.75 L 10.75 6.83 L 10.62 6.92 L 10.5 7.0 L 10.37 7.08 L 10.25 7.17 L 10.12 7.25 L 10.0 7.33 L 9.87 7.42 L 9.75 7.5 L 9.62 7.58 L 9.5 7.67 L 9.37 7.75 L 9.25 7.83 L 9.12 7.92 L 9.0 8.0 L 9.0 8.0 L 9.09 8.25 L 9.22 8.49 L 9.36 8.72 L 9.53 8.92 L 9.72 9.11 L 9.92 9.28 L 10.15 9.43 L 10.39 9.55 L 10.64 9.65 L 10.9 9.72 L 11.16 9.76 L 11.43 9.77 L 11.7 9.76 L 11.96 9.72 L 12.22 9.65 L 12.47 9.55 L 12.71 9.43 L 12.93 9.28 L 13.14 9.11 L 13.33 8.92 L 13.5 8.72 L 13.64 8.49 L 13.76 8.25 L 13.86 8.0 L 14.0 8.0 L 13.92 7.92 L 13.83 7.83 L 13.75 7.75 L 13.67 7.67 L 13.58 7.58 L 13.5 7.5 L 13.42 7.42 L 13.33 7.33 L 13.25 7.25 L 13.17 7.17 L 13.08 7.08 L 13.0 7.0 L 12.92 6.92 L 12.83 6.83 L 12.75 6.75 L 12.67 6.67 L 12.58 6.58 L 12.5 6.5 L 12.42 6.42 L 12.33 6.33 L 12.25 6.25 L 12.17 6.17 L 12.08 6.08 L 12.0 6.0" fill="none" stroke="#111" stroke-width="1.19" stroke-linecap="round" stroke-linejoin="round"/>
<path d="M 12.0 10.0 L 11.87 10.12 L 11.75 10.25 L 11.62 10.38 L 11.5 10.5 L 11.37 10.62 L 11.25 10.75 L 11.12 10.88 L 11.0 11.0 L 10.87 11.12 L 10.75 11.25 L 10.62 11.38 L 10.5 11.5 L 10.37 11.62 L 10.25 11.75 L 10.12 11.88 L 10.0 12.0 L 9.87 12.12 L 9.75 12.25 L 9.62 12.38 L 9.5 12.5 L 9.37 12.62 L 9.25 12.75 L 9.12 12.88 L 9.0 13.0 L 9.0 13.0 L 9.2 13.43 L 9.47 13.82 L 9.8 14.17 L 10.19 14.45 L 10.61 14.66 L 11.07 14.81 L 11.54 14.87 L 12.02 14.85 L 12.48 14.76 L 12.93 14.59 L 13.34 14.34 L 13.7 14.04 L 14.01 13.67 L 14.25 13.26 L 14.42 12.82 L 14.52 12.35 L 14.54 11.87 L 14.47 11.4 L 14.33 10.95 L 14.12 10.52 L 13.83 10.14 L 13.49 9.8 L 13.1 9.53 L 12.67 9.33" fill="none" stroke="#111" stroke-width="1.19" stroke-linecap="round" stroke-linejoin="round"/>
<path d="M 9.0 24.0 L 9.17 24.25 L 9.33 24.5 L 9.5 24.75 L 9.67 25.0 L 9.83 25.25 L 10.0 25.5 L 10.17 25.75 L 10.33 26.0 L 10.5 26.25 L 10.67 26.5 L 10.83 26.75 L 11.0 27.0 L 11.17 27.25 L 11.33 27.5 L 11.5 27.75 L 11.67 28.0 L 11.83 28.25 L 12.0 28.5 L 12.17 28.75 L 12.33 29.0 L 12.5 29.25 L 12.67 29.5 L 12.83 29.75 L 13.0 30.0" fill="none" stroke="#111" stroke-width="1.19" stroke-linecap="round" stroke-linejoin="round"/>
<path d="M 13.0 30.0 L 13.11 29.66 L 13.2 29.31 L 13.28 28.96 L 13.34 28.61 L 13.38 28.25 L 13.4 27.89 L 13.41 27.54 L 13.4 27.18 L 13.37 26.82 L 13.33 26.46 L 13.27 26.11 L 13.19 25.76 L 13.09 25.42 L 12.98 25.07 L 12.85 24.74 L 12.71 24.41 L 12.55 24.09 L 12.37 23.78 L 12.18 23.47 L 11.98 23.18 L 11.76 22.9 L 11.53 22.62 L 11.28 22.36 L 11.03 22.11" fill="none" stroke="#111" stroke-width="1.19" stroke-linecap="round" stroke-linejoin="round"/>
<path d="M 10.0 26.0 L 10.43 25.92 L 10.84 25.81 L 11.25 25.67 L 11.65 25.5 L 12.04 25.3 L 12.41 25.08 L 12.76 24.82 L 13.1 24.55 L 13.41 24.25 L 13.7 23.93 L 13.97 23.59 L 14.21 23.23 L 14.43 22.85 L 14.62 22.46 L 14.78 22.06 L 14.91 21.65 L 15.01 21.23 L 15.08 20.8 L 15.12 20.37 L 15.13 19.93 L 15.11 19.5 L 15.06 19.07 L 14.97 18.65 L 14.86 18.23" fill="none" stroke="#111" stroke-width="1.19" stroke-linecap="round" stroke-linejoin="round"/>
<path d="M 17.0 8.0 L 16.96 8.42 L 16.92 8.83 L 16.88 9.25 L 16.83 9.67 L 16.79 10.08 L 16.75 10.5 L 16.71 10.92 L 16.67 11.33 L 16.62 11.75 L 16.58 12.17 L 16.54 12.58 L 16.5 13.0 L 16.46 13.42 L 16.42 13.83 L 16.38 14.25 L 16.33 14.67 L 16.29 15.08 L 16.25 15.5 L 16.21 15.92 L 16.17 16.33 L 16.12 16.75 L 16.08 17.17 L 16.04 17.58 L 16.0 18.0" fill="none" stroke="#111" stroke-width="1.19" stroke-linecap="round" stroke-linejoin="round"/>
<path d="M 17.0 13.0 L 17.29 13.21 L 17.57 13.44 L 17.81 13.7 L 18.04 13.98 L 18.23 14.28 L 18.4 14.6 L 18.53 14.93 L 18.63 15.27 L 18.7 15.62 L 18.74 15.98 L 18.74 16.34 L 18.7 16.7 L 18.64 17.05 L 18.54 17.39 L 18.4 17.73 L 18.24 18.04 L 18.04 18.35 L 17.82 18.63 L 17.57 18.89 L 17.3 19.12 L 17.01 19.33 L 16.7 19.5 L 16.37 19.65 L 16.03 19.77" fill="none" stroke="#111" stroke-width="1.19" stroke-linecap="round" stroke-linejoin="round"/>
<path d="M 16.0 16.0 L 16.21 16.29 L 16.42 16.58 L 16.62 16.88 L 16.83 17.17 L 17.04 17.46 L 17.25 17.75 L 17.46 18.04 L 17.67 18.33 L 17.88 18.62 L 18.08 18.92 L 18.29 19.21 L 18.5 19.5 L 18.71 19.79 L 18.92 20.08 L 19.12 20.38 L 19.33 20.67 L 19.54 20.96 L 19.75 21.25 L 19.96 21.54 L 20.17 21.83 L 20.38 22.12 L 20.58 22.42 L 20.79 22.71 L 21.0 23.0" fill="none" stroke="#111" stroke-width="1.19" stroke-linecap="round" stroke-linejoin="round"/>
<path d="M 7.0 18.0 L 7.0 18.38 L 7.0 18.75 L 7.0 19.12 L 7.0 19.5 L 7.0 19.88 L 7.0 20.25 L 7.0 20.62 L 7.0 21.0 L 7.0 21.38 L 7.0 21.75 L 7.0 22.12 L 7.0 22.5 L 7.0 22.88 L 7.0 23.25 L 7.0 23.62 L 7.0 24.0 L 7.0 24.38 L 7.0 24.75 L 7.0 25.12 L 7.0 25.5 L 7.0 25.88 L 7.0 26.25 L 7.0 26.62 L 7.0 27.0" fill="none" stroke="#111" stroke-width="1.19" stroke-linecap="round" stroke-linejoin="round"/>
<path d="M 8.0 16.0 L 7.83 16.25 L 7.67 16.5 L 7.5 16.75 L 7.33 17.0 L 7.17 17.25 L 7.0 17.5 L 6.83 17.75 L 6.67 18.0 L 6.5 18.25 L 6.33 18.5 L 6.17 18.75 L 6.0 19.0 L 5.83 19.25 L 5.67 19.5 L 5.5 19.75 L 5.33 20.0 L 5.17 20.25 L 5.0 20.5 L 4.83 20.75 L 4.67 21.0 L 4.5 21.25 L 4.33 21.5 L 4.17 21.75 L 4.0 22.0" fill="none" stroke="#111" stroke-width="1.19" stroke-linecap="round" stroke-linejoin="round"/>
<path d="M 7.0 8.0 L 7.09 8.36 L 7.16 8.73 L 7.22 9.1 L 7.25 9.48 L 7.26 9.85 L 7.26 10.23 L 7.23 10.6 L 7.19 10.97 L 7.12 11.34 L 7.04 11.71 L 6.93 12.07 L 6.81 12.42 L 6.67 12.77 L 6.51 13.11 L 6.33 13.44 L 6.14 13.76 L 5.93 14.07 L 5.7 14.37 L 5.46 14.66 L 5.21 14.93 L 4.93 15.19 L 4.65 15.43 L 4.35 15.66 L 4.05 15.88" fill="none" stroke="#111" stroke-width="1.19" stroke-linecap="round" stroke-linejoin="round"/>
</svg>
