<?xml version="1.0" encoding="UTF-8"?>
<svg xmlns="http://www.w3.org/2000/svg" viewBox="0 0 27.19 37.00">
<path d="M 4.96 13.0 L 5.71 13.42 L 6.43 13.89 L 7.1 14.43 L 7.74 15.01 L 8.32 15.63 L 8.86 16.31 L 9.34 17.02 L 9.76 17.77 L 10.13 18.54 L 10.43 19.35 L 10.67 20.17 L 10.84 21.01 L 10.95 21.87 L 10.99 22.72 L 10.97 23.58 L 10.87 24.44 L 10.71 25.28 L 10.49 26.11 L 10.2 26.92 L 9.85 27.71 L 9.44 28.46 L 8.98 29.18 L 8.45 29.86 L 7.88 30.5" fill="none" stroke="#111" stroke-width="1.30" stroke-linecap="round" stroke-linejoin="round"/>
<path d="M 6.96 16.0 L 7.05 16.48 L 7.11 16.96 L 7.16 17.44 L 7.19 17.93 L 7.2 18.42 L 7.19 18.9 L 7.16 19.39 L 7.11 19.87 L 7.05 20.35 L 6.97 20.83 L 6.87 21.31 L 6.75 21.78 L 6.61 22.25 L 6.46 22.71 L 6.28 23.16 L 6.1 23.61 L 5.89 24.05 L 5.67 24.48 L 5.43 24.9 L 5.17 25.32 L 4.9 25.72 L 4.62 26.12 L 4.31 26.5 L 4.0 26.87" fill="none" stroke="#111" stroke-width="1.30" stroke-linecap="round" stroke-linejoin="round"/>
<path d="M 13.96 9.0 L 13.74 8.9 L 13.53 8.78 L 13.33 8.65 L 13.13 8.5 L 12.96 8.33 L 12.79 8.15 L 12.65 7.96 L 12.51 7.75 L 12.4 7.54 L 12.3 7.31 L 12.23 7.08 L 12.17 6.85 L 12.13 6.61 L 12.11 6.36 L 12.12 6.12 L 12.14 5.88 L 12.18 5.64 L 12.24 5.4 L 12.33 5.17 L 12.43 4.95 L 12.54 4.74 L 12.68 4.54 L 12.83 4.35 L 13.0 4.17 L 12.96 4.0 L 13.17 4.17 L 13.37 4.35 L 13.56 4.54 L 13.74 4.74 L 13.9 4.95 L 14.05 5.17 L 14.19 5.39 L 14.32 5.63 L 14.44 5.87 L 14.54 6.12 L 14.62 6.37 L 14.7 6.63 L 14.75 6.89 L 14.8 7.15 L 14.82 7.42 L 14.84 7.68 L 14.83 7.95 L 14.82 8.22 L 14.78 8.48 L 14.74 8.75 L 14.68 9.01 L 14.6 9.26 L 14.51 9.51 L 14.4 9.76 L 13.96 8.0 L 14.13 8.25 L 14.3 8.5 L 14.46 8.75 L 14.63 9.0 L 14.8 9.25 L 14.96 9.5 L 15.13 9.75 L 15.3 10.0 L 15.46 10.25 L 15.63 10.5 L 15.8 10.75 L 15.96 11.0 L 16.13 11.25 L 16.3 11.5 L 16.46 11.75 L 16.63 12.0 L 16.8 12.25 L 16.96 12.5 L 17.13 12.75 L 17.3 13.0 L 17.46 13.25 L 17.63 13.5 L 17.8 13.75 L 17.96 14.0 L 17.96 14.0 L 18.09 13.79 L 18.21 13.58 L 18.34 13.38 L 18.46 13.17 L 18.59 12.96 L 18.71 12.75 L 18.84 12.54 L 18.96 12.33 L 19.09 12.12 L 19.21 11.92 L 19.34 11.71 L 19.46 11.5 L 19.59 11.29 L 19.71 11.08 L 19.84 10.88 L 19.96 10.67 L 20.09 10.46 L 20.21 10.25 L 20.34 10.04 L 20.46 9.83 L 20.59 9.62 L 20.71 9.42 L 20.84 9.21 L 20.96 9.0 L 20.96 9.0 L 20.81 8.85 L 20.67 8.68 L 20.56 8.49 L 20.48 8.29 L 20.43 8.07 L 20.4 7.86 L 20.41 7.64 L 20.44 7.43 L 20.51 7.22 L 20.6 7.02 L 20.72 6.84 L 20.87 6.67 L 21.03 6.53 L 21.21 6.41 L 21.41 6.32 L 21.62 6.25 L 21.83 6.22 L 22.05 6.21 L 22.27 6.24 L 22.48 6.29 L 22.68 6.37 L 22.87 6.48 L 23.04 6.62 L 23.19 6.77" fill="none" stroke="#111" stroke-width="1.30" stroke-linecap="round" stroke-linejoin="round"/>
<path d="M 13.96 15.0 L 14.01 15.33 L 14.05 15.67 L 14.09 16.0 L 14.13 16.33 L 14.17 16.67 L 14.21 17.0 L 14.26 17.33 L 14.3 17.67 L 14.34 18.0 L 14.38 18.33 L 14.42 18.67 L 14.46 19.0 L 14.51 19.33 L 14.55 19.67 L 14.59 20.0 L 14.63 20.33 L 14.67 20.67 L 14.71 21.0 L 14.76 21.33 L 14.8 21.67 L 14.84 22.0 L 14.88 22.33 L 14.92 22.67 L 14.96 23.0 L 14.96 23.0 L 15.3 23.0 L 15.63 23.0 L 15.96 23.0 L 16.3 23.0 L 16.63 23.0 L 16.96 23.0 L 17.3 23.0 L 17.63 23.0 L 17.96 23.0 L 18.3 23.0 L 18.63 23.0 L 18.96 23.0 L 19.3 23.0 L 19.63 23.0 L 19.96 23.0 L 20.3 23.0 L 20.63 23.0 L 20.96 23.0 L 21.3 23.0 L 21.63 23.0 L 21.96 23.0 L 22.3 23.0 L 22.63 23.0 L 22.96 23.0 L 22.96 23.0 L 22.92 22.67 L 22.88 22.33 L 22.84 22.0 L 22.8 21.67 L 22.76 21.33 L 22.71 21.0 L 22.67 20.67 L 22.63 20.33 L 22.59 20.0 L 22.55 19.67 L 22.51 19.33 L 22.46 19.0 L 22.42 18.67 L 22.38 18.33 L 22.34 18.0 L 22.3 17.67 L 22.26 17.33 L 22.21 17.0 L 22.17 16.67 L 22.13 16.33 L 22.09 16.0 L 22.05 15.67 L 22.01 15.33 L 21.96 15.0 L 21.96 15.0 L 21.63 15.04 L 21.3 15.08 L 20.96 15.12 L 20.63 15.17 L 20.3 15.21 L 19.96 15.25 L 19.63 15.29 L 19.3 15.33 L 18.96 15.38 L 18.63 15.42 L 18.3 15.46 L 17.96 15.5 L 17.63 15.54 L 17.3 15.58 L 16.96 15.62 L 16.63 15.67 L 16.3 15.71 L 15.96 15.75 L 15.63 15.79 L 15.3 15.83 L 14.96 15.88 L 14.63 15.92 L 14.3 15.96 L 13.96 16.0" fill="none" stroke="#111" stroke-width="1.30" stroke-linecap="round" stroke-linejoin="round"/>
<path d="M 13.96 19.0 L 14.3 19.0 L 14.63 19.0 L 14.96 19.0 L 15.3 19.0 L 15.63 19.0 L 15.96 19.0 L 16.3 19.0 L 16.63 19.0 L 16.96 19.0 L 17.3 19.0 L 17.63 19.0 L 17.96 19.0 L 18.3 19.0 L 18.63 19.0 L 18.96 19.0 L 19.3 19.0 L 19.63 19.0 L 19.96 19.0 L 20.3 19.0 L 20.63 19.0 L 20.96 19.0 L 21.3 19.0 L 21.63 19.0 L 21.96 19.0" fill="none" stroke="#111" stroke-width="1.30" stroke-linecap="round" stroke-linejoin="round"/>
<path d="M 17.96 16.0 L 18.01 16.71 L 18.05 17.42 L 18.09 18.12 L 18.13 18.83 L 18.17 19.54 L 18.21 20.25 L 18.26 20.96 L 18.3 21.67 L 18.34 22.38 L 18.38 23.08 L 18.42 23.79 L 18.46 24.5 L 18.51 25.21 L 18.55 25.92 L 18.59 26.62 L 18.63 27.33 L 18.67 28.04 L 18.71 28.75 L 18.76 29.46 L 18.8 30.17 L 18.84 30.88 L 18.88 31.58 L 18.92 32.29 L 18.96 33.0" fill="none" stroke="#111" stroke-width="1.30" stroke-linecap="round" stroke-linejoin="round"/>
</svg>
