<?xml version="1.0" encoding="UTF-8"?>
<svg xmlns="http://www.w3.org/2000/svg" viewBox="0 0 28.00 36.00">
<path d="M 6.0 4.0 L 6.33 4.0 L 6.67 4.0 L 7.0 4.0 L 7.33 4.0 L 7.67 4.0 L 8.0 4.0 L 8.33 4.0 L 8.67 4.0 L 9.0 4.0 L 9.33 4.0 L 9.67 4.0 L 10.0 4.0 L 10.33 4.0 L 10.67 4.0 L 11.0 4.0 L 11.33 4.0 L 11.67 4.0 L 12.0 4.0 L 12.33 4.0 L 12.67 4.0 L 13.0 4.0 L 13.33 4.0 L 13.67 4.0 L 14.0 4.0" fill="none" stroke="#111" stroke-width="1.26" stroke-linecap="round" stroke-linejoin="round"/>
<path d="M 4.0 8.0 L 4.46 8.0 L 4.92 8.0 L 5.38 8.0 L 5.83 8.0 L 6.29 8.0 L 6.75 8.0 L 7.21 8.0 L 7.67 8.0 L 8.12 8.0 L 8.58 8.0 L 9.04 8.0 L 9.5 8.0 L 9.96 8.0 L 10.42 8.0 L 10.88 8.0 L 11.33 8.0 L 11.79 8.0 L 12.25 8.0 L 12.71 8.0 L 13.17 8.0 L 13.62 8.0 L 14.08 8.0 L 14.54 8.0 L 15.0 8.0" fill="none" stroke="#111" stroke-width="1.26" stroke-linecap="round" stroke-linejoin="round"/>
<path d="M 10.0 8.0 L 9.96 8.54 L 9.92 9.08 L 9.88 9.62 L 9.83 10.17 L 9.79 10.71 L 9.75 11.25 L 9.71 11.79 L 9.67 12.33 L 9.62 12.88 L 9.58 13.42 L 9.54 13.96 L 9.5 14.5 L 9.46 15.04 L 9.42 15.58 L 9.38 16.12 L 9.33 16.67 L 9.29 17.21 L 9.25 17.75 L 9.21 18.29 L 9.17 18.83 L 9.12 19.38 L 9.08 19.92 L 9.04 20.46 L 9.0 21.0" fill="none" stroke="#111" stroke-width="1.26" stroke-linecap="round" stroke-linejoin="round"/>
<path d="M 17.0 8.0 L 17.04 8.25 L 17.08 8.5 L 17.12 8.75 L 17.17 9.0 L 17.21 9.25 L 17.25 9.5 L 17.29 9.75 L 17.33 10.0 L 17.38 10.25 L 17.42 10.5 L 17.46 10.75 L 17.5 11.0 L 17.54 11.25 L 17.58 11.5 L 17.62 11.75 L 17.67 12.0 L 17.71 12.25 L 17.75 12.5 L 17.79 12.75 L 17.83 13.0 L 17.88 13.25 L 17.92 13.5 L 17.96 13.75 L 18.0 14.0" fill="none" stroke="#111" stroke-width="1.26" stroke-linecap="round" stroke-linejoin="round"/>
<path d="M 12.0 10.0 L 12.18 10.41 L 12.39 10.8 L 12.62 11.18 L 12.87 11.54 L 13.15 11.89 L 13.45 12.22 L 13.77 12.53 L 14.11 12.81 L 14.46 13.08 L 14.83 13.32 L 15.22 13.54 L 15.62 13.73 L 16.03 13.9 L 16.45 14.04 L 16.88 14.15 L 17.32 14.24 L 17.76 14.3 L 18.2 14.33 L 18.64 14.33 L 19.09 14.3 L 19.53 14.25 L 19.96 14.17 L 20.39 14.06 L 20.82 13.92" fill="none" stroke="#111" stroke-width="1.26" stroke-linecap="round" stroke-linejoin="round"/>
<path d="M 21.0 14.0 L 21.12 13.79 L 21.25 13.58 L 21.38 13.38 L 21.5 13.17 L 21.62 12.96 L 21.75 12.75 L 21.88 12.54 L 22.0 12.33 L 22.12 12.12 L 22.25 11.92 L 22.38 11.71 L 22.5 11.5 L 22.62 11.29 L 22.75 11.08 L 22.88 10.88 L 23.0 10.67 L 23.12 10.46 L 23.25 10.25 L 23.38 10.04 L 23.5 9.83 L 23.62 9.62 L 23.75 9.42 L 23.88 9.21 L 24.0 9.0" fill="none" stroke="#111" stroke-width="1.26" stroke-linecap="round" stroke-linejoin="round"/>
<path d="M 11.0 19.0 L 11.54 19.0 L 12.08 19.0 L 12.62 19.0 L 13.17 19.0 L 13.71 19.0 L 14.25 19.0 L 14.79 19.0 L 15.33 19.0 L 15.88 19.0 L 16.42 19.0 L 16.96 19.0 L 17.5 19.0 L 18.04 19.0 L 18.58 19.0 L 19.12 19.0 L 19.67 19.0 L 20.21 19.0 L 20.75 19.0 L 21.29 19.0 L 21.83 19.0 L 22.38 19.0 L 22.92 19.0 L 23.46 19.0 L 24.0 19.0" fill="none" stroke="#111" stroke-width="1.26" stroke-linecap="round" stroke-linejoin="round"/>
<path d="M 16.0 14.0 L 15.96 14.21 L 15.92 14.42 L 15.88 14.62 L 15.83 14.83 L 15.79 15.04 L 15.75 15.25 L 15.71 15.46 L 15.67 15.67 L 15.62 15.88 L 15.58 16.08 L 15.54 16.29 L 15.5 16.5 L 15.46 16.71 L 15.42 16.92 L 15.38 17.12 L 15.33 17.33 L 15.29 17.54 L 15.25 17.75 L 15.21 17.96 L 15.17 18.17 L 15.12 18.38 L 15.08 18.58 L 15.04 18.79 L 15.0 19.0" fill="none" stroke="#111" stroke-width="1.26" stroke-linecap="round" stroke-linejoin="round"/>
<path d="M 21.0 14.0 L 21.0 14.21 L 21.0 14.42 L 21.0 14.62 L 21.0 14.83 L 21.0 15.04 L 21.0 15.25 L 21.0 15.46 L 21.0 15.67 L 21.0 15.88 L 21.0 16.08 L 21.0 16.29 L 21.0 16.5 L 21.0 16.71 L 21.0 16.92 L 21.0 17.12 L 21.0 17.33 L 21.0 17.54 L 21.0 17.75 L 21.0 17.96 L 21.0 18.17 L 21.0 18.38 L 21.0 18.58 L 21.0 18.79 L 21.0 19.0" fill="none" stroke="#111" stroke-width="1.26" stroke-linecap="round" stroke-linejoin="round"/>
<path d="M 11.0 19.0 L 11.29 19.54 L 11.58 20.08 L 11.88 20.62 L 12.17 21.17 L 12.46 21.71 L 12.75 22.25 L 13.04 22.79 L 13.33 23.33 L 13.62 23.88 L 13.92 24.42 L 14.21 24.96 L 14.5 25.5 L 14.79 26.04 L 15.08 26.58 L 15.38 27.12 L 15.67 27.67 L 15.96 28.21 L 16.25 28.75 L 16.54 29.29 L 16.83 29.83 L 17.12 30.38 L 17.42 30.92 L 17.71 31.46 L 18.0 32.0" fill="none" stroke="#111" stroke-width="1.26" stroke-linecap="round" stroke-linejoin="round"/>
<path d="M 24.0 19.0 L 23.75 19.54 L 23.5 20.08 L 23.25 20.62 L 23.0 21.17 L 22.75 21.71 L 22.5 22.25 L 22.25 22.79 L 22.0 23.33 L 21.75 23.88 L 21.5 24.42 L 21.25 24.96 L 21.0 25.5 L 20.75 26.04 L 20.5 26.58 L 20.25 27.12 L 20.0 27.67 L 19.75 28.21 L 19.5 28.75 L 19.25 29.29 L 19.0 29.83 L 18.75 30.38 L 18.5 30.92 L 18.25 31.46 L 18.0 32.0" fill="none" stroke="#111" stroke-width="1.26" stroke-linecap="round" stroke-linejoin="round"/>
<path d="M 21.0 19.0 L 20.75 19.29 L 20.5 19.58 L 20.25 19.88 L 20.0 20.17 L 19.75 20.46 L 19.5 20.75 L 19.25 21.04 L 19.0 21.33 L 18.75 21.62 L 18.5 21.92 L 18.25 22.21 L 18.0 22.5 L 17.75 22.79 L 17.5 23.08 L 17.25 23.38 L 17.0 23.67 L 16.75 23.96 L 16.5 24.25 L 16.25 24.54 L 16.0 24.83 L 15.75 25.12 L 15.5 25.42 L 15.25 25.71 L 15.0 26.0" fill="none" stroke="#111" stroke-width="1.26" stroke-linecap="round" stroke-linejoin="round"/>
<path d="M 15.0 18.0 L 15.21 18.38 L 15.42 18.75 L 15.62 19.12 L 15.83 19.5 L 16.04 19.88 L 16.25 20.25 L 16.46 20.62 L 16.67 21.0 L 16.88 21.38 L 17.08 21.75 L 17.29 22.12 L 17.5 22.5 L 17.71 22.88 L 17.92 23.25 L 18.12 23.62 L 18.33 24.0 L 18.54 24.38 L 18.75 24.75 L 18.96 25.12 L 19.17 25.5 L 19.38 25.88 L 19.58 26.25 L 19.79 26.62 L 20.0 27.0" fill="none" stroke="#111" stroke-width="1.26" stroke-linecap="round" stroke-linejoin="round"/>
</svg>
