<?xml version="1.0" encoding="UTF-8"?>
<svg xmlns="http://www.w3.org/2000/svg" viewBox="0 0 26.00 36.37">
<path d="M 4.0 4.0 L 4.67 4.0 L 5.33 4.0 L 6.0 4.0 L 6.67 4.0 L 7.33 4.0 L 8.0 4.0 L 8.67 4.0 L 9.33 4.0 L 10.0 4.0 L 10.67 4.0 L 11.33 4.0 L 12.0 4.0 L 12.67 4.0 L 13.33 4.0 L 14.0 4.0 L 14.67 4.0 L 15.33 4.0 L 16.0 4.0 L 16.67 4.0 L 17.33 4.0 L 18.0 4.0 L 18.67 4.0 L 19.33 4.0 L 20.0 4.0" fill="none" stroke="#111" stroke-width="1.27" stroke-linecap="round" stroke-linejoin="round"/>
<path d="M 4.0 10.0 L 4.5 10.0 L 5.0 10.0 L 5.5 10.0 L 6.0 10.0 L 6.5 10.0 L 7.0 10.0 L 7.5 10.0 L 8.0 10.0 L 8.5 10.0 L 9.0 10.0 L 9.5 10.0 L 10.0 10.0 L 10.5 10.0 L 11.0 10.0 L 11.5 10.0 L 12.0 10.0 L 12.5 10.0 L 13.0 10.0 L 13.5 10.0 L 14.0 10.0 L 14.5 10.0 L 15.0 10.0 L 15.5 10.0 L 16.0 10.0" fill="none" stroke="#111" stroke-width="1.27" stroke-linecap="round" stroke-linejoin="round"/>
<path d="M 4.0 15.0 L 4.5 15.0 L 5.0 15.0 L 5.5 15.0 L 6.0 15.0 L 6.5 15.0 L 7.0 15.0 L 7.5 15.0 L 8.0 15.0 L 8.5 15.0 L 9.0 15.0 L 9.5 15.0 L 10.0 15.0 L 10.5 15.0 L 11.0 15.0 L 11.5 15.0 L 12.0 15.0 L 12.5 15.0 L 13.0 15.0 L 13.5 15.0 L 14.0 15.0 L 14.5 15.0 L 15.0 15.0 L 15.5 15.0 L 16.0 15.0" fill="none" stroke="#111" stroke-width="1.27" stroke-linecap="round" stroke-linejoin="round"/>
<path d="M 4.0 4.0 L 4.0 4.25 L 4.0 4.5 L 4.0 4.75 L 4.0 5.0 L 4.0 5.25 L 4.0 5.5 L 4.0 5.75 L 4.0 6.0 L 4.0 6.25 L 4.0 6.5 L 4.0 6.75 L 4.0 7.0 L 4.0 7.25 L 4.0 7.5 L 4.0 7.75 L 4.0 8.0 L 4.0 8.25 L 4.0 8.5 L 4.0 8.75 L 4.0 9.0 L 4.0 9.25 L 4.0 9.5 L 4.0 9.75 L 4.0 10.0" fill="none" stroke="#111" stroke-width="1.27" stroke-linecap="round" stroke-linejoin="round"/>
<path d="M 16.0 10.0 L 16.0 10.21 L 16.0 10.42 L 16.0 10.62 L 16.0 10.83 L 16.0 11.04 L 16.0 11.25 L 16.0 11.46 L 16.0 11.67 L 16.0 11.88 L 16.0 12.08 L 16.0 12.29 L 16.0 12.5 L 16.0 12.71 L 16.0 12.92 L 16.0 13.12 L 16.0 13.33 L 16.0 13.54 L 16.0 13.75 L 16.0 13.96 L 16.0 14.17 L 16.0 14.38 L 16.0 14.58 L 16.0 14.79 L 16.0 15.0" fill="none" stroke="#111" stroke-width="1.27" stroke-linecap="round" stroke-linejoin="round"/>
<path d="M 22.0 15.0 L 21.42 15.42 L 20.83 15.83 L 20.25 16.25 L 19.67 16.67 L 19.08 17.08 L 18.5 17.5 L 17.92 17.92 L 17.33 18.33 L 16.75 18.75 L 16.17 19.17 L 15.58 19.58 L 15.0 20.0 L 14.42 20.42 L 13.83 20.83 L 13.25 21.25 L 12.67 21.67 L 12.08 22.08 L 11.5 22.5 L 10.92 22.92 L 10.33 23.33 L 9.75 23.75 L 9.17 24.17 L 8.58 24.58 L 8.0 25.0" fill="none" stroke="#111" stroke-width="1.27" stroke-linecap="round" stroke-linejoin="round"/>
<path d="M 20.0 21.0 L 19.22 20.11 L 18.33 19.33 L 17.34 18.68 L 16.27 18.18 L 15.15 17.82 L 13.98 17.62 L 12.8 17.58 L 11.62 17.7 L 10.47 17.99 L 9.37 18.42 L 8.34 19.0 L 7.4 19.72 L 6.57 20.56 L 5.86 21.5 L 5.28 22.53 L 4.85 23.63 L 4.57 24.78 L 4.45 25.96 L 4.49 27.14 L 4.7 28.31 L 5.06 29.43 L 5.57 30.5 L 6.22 31.49 L 7.0 32.37" fill="none" stroke="#111" stroke-width="1.27" stroke-linecap="round" stroke-linejoin="round"/>
</svg>
