<?xml version="1.0" encoding="UTF-8"?>
<svg xmlns="http://www.w3.org/2000/svg" viewBox="0 0 28.79 33.59">
<path d="M 13.89 5.24 L 13.62 6.17 L 13.52 7.13 L 13.58 8.09 L 13.81 9.03 L 14.19 9.92 L 14.72 10.73 L 15.38 11.44 L 16.15 12.02 L 17.01 12.47 L 17.94 12.76 L 18.89 12.88 L 19.86 12.85 L 20.81 12.65 L 21.71 12.29 L 22.53 11.78 L 23.25 11.13 L 23.86 10.38 L 24.32 9.53 L 24.64 8.62 L 24.79 7.66 L 24.78 6.69 L 24.6 5.74 L 24.26 4.84 L 23.78 4.0" fill="none" stroke="#111" stroke-width="1.18" stroke-linecap="round" stroke-linejoin="round"/>
<path d="M 13.89 7.24 L 14.22 7.24 L 14.56 7.24 L 14.89 7.24 L 15.22 7.24 L 15.56 7.24 L 15.89 7.24 L 16.22 7.24 L 16.56 7.24 L 16.89 7.24 L 17.22 7.24 L 17.56 7.24 L 17.89 7.24 L 18.22 7.24 L 18.56 7.24 L 18.89 7.24 L 19.22 7.24 L 19.56 7.24 L 19.89 7.24 L 20.22 7.24 L 20.56 7.24 L 20.89 7.24 L 21.22 7.24 L 21.56 7.24 L 21.89 7.24" fill="none" stroke="#111" stroke-width="1.18" stroke-linecap="round" stroke-linejoin="round"/>
<path d="M 16.89 19.24 L 16.89 19.49 L 16.89 19.74 L 16.89 19.99 L 16.89 20.24 L 16.89 20.49 L 16.89 20.74 L 16.89 20.99 L 16.89 21.24 L 16.89 21.49 L 16.89 21.74 L 16.89 21.99 L 16.89 22.24 L 16.89 22.49 L 16.89 22.74 L 16.89 22.99 L 16.89 23.24 L 16.89 23.49 L 16.89 23.74 L 16.89 23.99 L 16.89 24.24 L 16.89 24.49 L 16.89 24.74 L 16.89 24.99 L 16.89 25.24 L 16.89 25.24 L 17.15 25.39 L 17.42 25.53 L 17.69 25.66 L 17.97 25.78 L 18.26 25.88 L 18.55 25.97 L 18.84 26.05 L 19.14 26.11 L 19.44 26.16 L 19.74 26.2 L 20.04 26.22 L 20.34 26.23 L 20.65 26.22 L 20.95 26.2 L 21.25 26.16 L 21.55 26.11 L 21.85 26.05 L 22.14 25.97 L 22.43 25.88 L 22.72 25.78 L 23.0 25.66 L 23.27 25.53 L 23.54 25.39 L 23.8 25.24 L 23.89 25.24 L 23.89 24.9 L 23.89 24.57 L 23.89 24.24 L 23.89 23.9 L 23.89 23.57 L 23.89 23.24 L 23.89 22.9 L 23.89 22.57 L 23.89 22.24 L 23.89 21.9 L 23.89 21.57 L 23.89 21.24 L 23.89 20.9 L 23.89 20.57 L 23.89 20.24 L 23.89 19.9 L 23.89 19.57 L 23.89 19.24 L 23.89 18.9 L 23.89 18.57 L 23.89 18.24 L 23.89 17.9 L 23.89 17.57 L 23.89 17.24" fill="none" stroke="#111" stroke-width="1.18" stroke-linecap="round" stroke-linejoin="round"/>
<path d="M 16.89 21.24 L 17.18 21.24 L 17.47 21.24 L 17.76 21.24 L 18.06 21.24 L 18.35 21.24 L 18.64 21.24 L 18.93 21.24 L 19.22 21.24 L 19.51 21.24 L 19.81 21.24 L 20.1 21.24 L 20.39 21.24 L 20.68 21.24 L 20.97 21.24 L 21.26 21.24 L 21.56 21.24 L 21.85 21.24 L 22.14 21.24 L 22.43 21.24 L 22.72 21.24 L 23.01 21.24 L 23.31 21.24 L 23.6 21.24 L 23.89 21.24" fill="none" stroke="#111" stroke-width="1.18" stroke-linecap="round" stroke-linejoin="round"/>
<path d="M 4.89 22.24 L 4.45 22.96 L 4.15 23.75 L 4.0 24.59 L 4.01 25.43 L 4.17 26.27 L 4.48 27.05 L 4.93 27.77 L 5.5 28.4 L 6.18 28.9 L 6.93 29.28 L 7.75 29.51 L 8.59 29.59 L 9.44 29.51 L 10.25 29.28 L 11.01 28.9 L 11.69 28.4 L 12.26 27.77 L 12.71 27.05 L 13.02 26.27 L 13.18 25.43 L 13.19 24.59 L 13.04 23.75 L 12.74 22.96 L 12.3 22.24" fill="none" stroke="#111" stroke-width="1.18" stroke-linecap="round" stroke-linejoin="round"/>
<path d="M 4.89 25.24 L 5.14 25.24 L 5.39 25.24 L 5.64 25.24 L 5.89 25.24 L 6.14 25.24 L 6.39 25.24 L 6.64 25.24 L 6.89 25.24 L 7.14 25.24 L 7.39 25.24 L 7.64 25.24 L 7.89 25.24 L 8.14 25.24 L 8.39 25.24 L 8.64 25.24 L 8.89 25.24 L 9.14 25.24 L 9.39 25.24 L 9.64 25.24 L 9.89 25.24 L 10.14 25.24 L 10.39 25.24 L 10.64 25.24 L 10.89 25.24" fill="none" stroke="#111" stroke-width="1.18" stroke-linecap="round" stroke-linejoin="round"/>
</svg>
