<?xml version="1.0" encoding="UTF-8"?>
<svg xmlns="http://www.w3.org/2000/svg" viewBox="0 0 24.00 35.00">
<path d="M 8.0 5.0 L 7.88 5.12 L 7.75 5.25 L 7.62 5.38 L 7.5 5.5 L 7.38 5.62 L 7.25 5.75 L 7.12 5.88 L 7.0 6.0 L 6.88 6.12 L 6.75 6.25 L 6.62 6.38 L 6.5 6.5 L 6.38 6.62 L 6.25 6.75 L 6.12 6.88 L 6.0 7.0 L 5.88 7.12 L 5.75 7.25 L 5.62 7.38 L 5.5 7.5 L 5.38 7.62 L 5.25 7.75 L 5.12 7.88 L 5.0 8.0 L 5.0 8.0 L 5.17 8.39 L 5.4 8.74 L 5.69 9.05 L 6.02 9.3 L 6.39 9.5 L 6.79 9.63 L 7.21 9.69 L 7.63 9.68 L 8.05 9.6 L 8.44 9.45 L 8.8 9.24 L 9.13 8.97 L 9.4 8.64 L 9.61 8.28 L 9.76 7.89 L 9.84 7.47 L 9.85 7.05 L 9.79 6.63 L 9.66 6.23 L 9.46 5.86 L 9.21 5.53 L 8.9 5.24 L 8.55 5.01 L 8.16 4.84" fill="none" stroke="#111" stroke-width="1.23" stroke-linecap="round" stroke-linejoin="round"/>
<path d="M 4.0 14.0 L 4.29 13.88 L 4.58 13.75 L 4.88 13.62 L 5.17 13.5 L 5.46 13.38 L 5.75 13.25 L 6.04 13.12 L 6.33 13.0 L 6.62 12.88 L 6.92 12.75 L 7.21 12.62 L 7.5 12.5 L 7.79 12.38 L 8.08 12.25 L 8.38 12.12 L 8.67 12.0 L 8.96 11.88 L 9.25 11.75 L 9.54 11.62 L 9.83 11.5 L 10.12 11.38 L 10.42 11.25 L 10.71 11.12 L 11.0 11.0" fill="none" stroke="#111" stroke-width="1.23" stroke-linecap="round" stroke-linejoin="round"/>
<path d="M 8.0 10.0 L 8.04 10.33 L 8.08 10.67 L 8.12 11.0 L 8.17 11.33 L 8.21 11.67 L 8.25 12.0 L 8.29 12.33 L 8.33 12.67 L 8.38 13.0 L 8.42 13.33 L 8.46 13.67 L 8.5 14.0 L 8.54 14.33 L 8.58 14.67 L 8.62 15.0 L 8.67 15.33 L 8.71 15.67 L 8.75 16.0 L 8.79 16.33 L 8.83 16.67 L 8.88 17.0 L 8.92 17.33 L 8.96 17.67 L 9.0 18.0" fill="none" stroke="#111" stroke-width="1.23" stroke-linecap="round" stroke-linejoin="round"/>
<path d="M 14.0 4.0 L 14.14 4.29 L 14.27 4.6 L 14.37 4.9 L 14.45 5.22 L 14.52 5.54 L 14.56 5.86 L 14.58 6.19 L 14.59 6.51 L 14.57 6.84 L 14.53 7.16 L 14.47 7.48 L 14.39 7.8 L 14.29 8.11 L 14.17 8.42 L 14.03 8.71 L 13.88 9.0 L 13.7 9.27 L 13.51 9.54 L 13.3 9.79 L 13.08 10.03 L 12.84 10.25 L 12.59 10.46 L 12.33 10.65 L 12.05 10.82" fill="none" stroke="#111" stroke-width="1.23" stroke-linecap="round" stroke-linejoin="round"/>
<path d="M 14.0 9.0 L 14.17 9.08 L 14.33 9.17 L 14.5 9.25 L 14.67 9.33 L 14.83 9.42 L 15.0 9.5 L 15.17 9.58 L 15.33 9.67 L 15.5 9.75 L 15.67 9.83 L 15.83 9.92 L 16.0 10.0 L 16.17 10.08 L 16.33 10.17 L 16.5 10.25 L 16.67 10.33 L 16.83 10.42 L 17.0 10.5 L 17.17 10.58 L 17.33 10.67 L 17.5 10.75 L 17.67 10.83 L 17.83 10.92 L 18.0 11.0" fill="none" stroke="#111" stroke-width="1.23" stroke-linecap="round" stroke-linejoin="round"/>
<path d="M 14.0 9.0 L 14.09 9.36 L 14.16 9.73 L 14.22 10.1 L 14.25 10.48 L 14.26 10.85 L 14.26 11.23 L 14.23 11.6 L 14.19 11.97 L 14.12 12.34 L 14.04 12.71 L 13.93 13.07 L 13.81 13.42 L 13.67 13.77 L 13.51 14.11 L 13.33 14.44 L 13.14 14.76 L 12.93 15.07 L 12.7 15.37 L 12.46 15.66 L 12.21 15.93 L 11.93 16.19 L 11.65 16.43 L 11.35 16.66 L 11.05 16.88" fill="none" stroke="#111" stroke-width="1.23" stroke-linecap="round" stroke-linejoin="round"/>
<path d="M 14.0 13.0 L 14.17 13.21 L 14.33 13.42 L 14.5 13.62 L 14.67 13.83 L 14.83 14.04 L 15.0 14.25 L 15.17 14.46 L 15.33 14.67 L 15.5 14.88 L 15.67 15.08 L 15.83 15.29 L 16.0 15.5 L 16.17 15.71 L 16.33 15.92 L 16.5 16.12 L 16.67 16.33 L 16.83 16.54 L 17.0 16.75 L 17.17 16.96 L 17.33 17.17 L 17.5 17.38 L 17.67 17.58 L 17.83 17.79 L 18.0 18.0" fill="none" stroke="#111" stroke-width="1.23" stroke-linecap="round" stroke-linejoin="round"/>
<path d="M 4.0 24.0 L 4.62 23.83 L 5.25 23.67 L 5.88 23.5 L 6.5 23.33 L 7.12 23.17 L 7.75 23.0 L 8.38 22.83 L 9.0 22.67 L 9.62 22.5 L 10.25 22.33 L 10.88 22.17 L 11.5 22.0 L 12.12 21.83 L 12.75 21.67 L 13.38 21.5 L 14.0 21.33 L 14.62 21.17 L 15.25 21.0 L 15.88 20.83 L 16.5 20.67 L 17.12 20.5 L 17.75 20.33 L 18.38 20.17 L 19.0 20.0" fill="none" stroke="#111" stroke-width="1.23" stroke-linecap="round" stroke-linejoin="round"/>
<path d="M 4.0 28.0 L 4.67 27.83 L 5.33 27.67 L 6.0 27.5 L 6.67 27.33 L 7.33 27.17 L 8.0 27.0 L 8.67 26.83 L 9.33 26.67 L 10.0 26.5 L 10.67 26.33 L 11.33 26.17 L 12.0 26.0 L 12.67 25.83 L 13.33 25.67 L 14.0 25.5 L 14.67 25.33 L 15.33 25.17 L 16.0 25.0 L 16.67 24.83 L 17.33 24.67 L 18.0 24.5 L 18.67 24.33 L 19.33 24.17 L 20.0 24.0" fill="none" stroke="#111" stroke-width="1.23" stroke-linecap="round" stroke-linejoin="round"/>
<path d="M 4.0 24.0 L 4.0 24.17 L 4.0 24.33 L 4.0 24.5 L 4.0 24.67 L 4.0 24.83 L 4.0 25.0 L 4.0 25.17 L 4.0 25.33 L 4.0 25.5 L 4.0 25.67 L 4.0 25.83 L 4.0 26.0 L 4.0 26.17 L 4.0 26.33 L 4.0 26.5 L 4.0 26.67 L 4.0 26.83 L 4.0 27.0 L 4.0 27.17 L 4.0 27.33 L 4.0 27.5 L 4.0 27.67 L 4.0 27.83 L 4.0 28.0" fill="none" stroke="#111" stroke-width="1.23" stroke-linecap="round" stroke-linejoin="round"/>
<path d="M 10.0 18.0 L 10.04 18.54 L 10.08 19.08 L 10.12 19.62 L 10.17 20.17 L 10.21 20.71 L 10.25 21.25 L 10.29 21.79 L 10.33 22.33 L 10.38 22.88 L 10.42 23.42 L 10.46 23.96 L 10.5 24.5 L 10.54 25.04 L 10.58 25.58 L 10.62 26.12 L 10.67 26.67 L 10.71 27.21 L 10.75 27.75 L 10.79 28.29 L 10.83 28.83 L 10.88 29.38 L 10.92 29.92 L 10.96 30.46 L 11.0 31.0" fill="none" stroke="#111" stroke-width="1.23" stroke-linecap="round" stroke-linejoin="round"/>
<path d="M 14.0 17.0 L 14.04 17.54 L 14.08 18.08 L 14.12 18.62 L 14.17 19.17 L 14.21 19.71 L 14.25 20.25 L 14.29 20.79 L 14.33 21.33 L 14.38 21.88 L 14.42 22.42 L 14.46 22.96 L 14.5 23.5 L 14.54 24.04 L 14.58 24.58 L 14.62 25.12 L 14.67 25.67 L 14.71 26.21 L 14.75 26.75 L 14.79 27.29 L 14.83 27.83 L 14.88 28.38 L 14.92 28.92 L 14.96 29.46 L 15.0 30.0" fill="none" stroke="#111" stroke-width="1.23" stroke-linecap="round" stroke-linejoin="round"/>
<path d="M 6.0 19.0 L 6.0 19.5 L 6.0 20.0 L 6.0 20.5 L 6.0 21.0 L 6.0 21.5 L 6.0 22.0 L 6.0 22.5 L 6.0 23.0 L 6.0 23.5 L 6.0 24.0 L 6.0 24.5 L 6.0 25.0 L 6.0 25.5 L 6.0 26.0 L 6.0 26.5 L 6.0 27.0 L 6.0 27.5 L 6.0 28.0 L 6.0 28.5 L 6.0 29.0 L 6.0 29.5 L 6.0 30.0 L 6.0 30.5 L 6.0 31.0" fill="none" stroke="#111" stroke-width="1.23" stroke-linecap="round" stroke-linejoin="round"/>
<path d="M 8.0 23.0 L 8.0 23.17 L 8.0 23.33 L 8.0 23.5 L 8.0 23.67 L 8.0 23.83 L 8.0 24.0 L 8.0 24.17 L 8.0 24.33 L 8.0 24.5 L 8.0 24.67 L 8.0 24.83 L 8.0 25.0 L 8.0 25.17 L 8.0 25.33 L 8.0 25.5 L 8.0 25.67 L 8.0 25.83 L 8.0 26.0 L 8.0 26.17 L 8.0 26.33 L 8.0 26.5 L 8.0 26.67 L 8.0 26.83 L 8.0 27.0" fill="none" stroke="#111" stroke-width="1.23" stroke-linecap="round" stroke-linejoin="round"/>
<path d="M 18.0 20.0 L 18.0 20.17 L 18.0 20.33 L 18.0 20.5 L 18.0 20.67 L 18.0 20.83 L 18.0 21.0 L 18.0 21.17 L 18.0 21.33 L 18.0 21.5 L 18.0 21.67 L 18.0 21.83 L 18.0 22.0 L 18.0 22.17 L 18.0 22.33 L 18.0 22.5 L 18.0 22.67 L 18.0 22.83 L 18.0 23.0 L 18.0 23.17 L 18.0 23.33 L 18.0 23.5 L 18.0 23.67 L 18.0 23.83 L 18.0 24.0" fill="none" stroke="#111" stroke-width="1.23" stroke-linecap="round" stroke-linejoin="round"/>
</svg>
