<?xml version="1.0" encoding="UTF-8"?>
<svg xmlns="http://www.w3.org/2000/svg" viewBox="0 0 28.67 35.00">
<path d="M 10.84 4.0 L 9.86 4.0 L 8.89 4.15 L 7.96 4.45 L 7.09 4.89 L 6.29 5.45 L 5.59 6.13 L 5.0 6.91 L 4.54 7.77 L 4.21 8.69 L 4.03 9.65 L 4.0 10.63 L 4.12 11.6 L 4.38 12.54 L 4.79 13.42 L 5.32 14.24 L 5.98 14.97 L 6.74 15.58 L 7.58 16.07 L 8.49 16.43 L 9.44 16.65 L 10.42 16.71 L 11.39 16.63 L 12.34 16.4 L 13.24 16.02" fill="none" stroke="#111" stroke-width="1.23" stroke-linecap="round" stroke-linejoin="round"/>
<path d="M 4.84 13.0 L 4.45 14.08 L 4.25 15.2 L 4.23 16.35 L 4.41 17.48 L 4.77 18.56 L 5.31 19.57 L 6.0 20.48 L 6.84 21.26 L 7.8 21.89 L 8.84 22.35 L 9.95 22.64 L 11.09 22.73 L 12.23 22.64 L 13.34 22.35 L 14.39 21.89 L 15.34 21.26 L 16.18 20.48 L 16.87 19.57 L 17.41 18.56 L 17.77 17.48 L 17.95 16.35 L 17.94 15.2 L 17.73 14.08 L 17.35 13.0" fill="none" stroke="#111" stroke-width="1.23" stroke-linecap="round" stroke-linejoin="round"/>
<path d="M 5.84 18.0 L 6.29 18.0 L 6.75 18.0 L 7.21 18.0 L 7.67 18.0 L 8.13 18.0 L 8.59 18.0 L 9.04 18.0 L 9.5 18.0 L 9.96 18.0 L 10.42 18.0 L 10.88 18.0 L 11.34 18.0 L 11.79 18.0 L 12.25 18.0 L 12.71 18.0 L 13.17 18.0 L 13.63 18.0 L 14.09 18.0 L 14.54 18.0 L 15.0 18.0 L 15.46 18.0 L 15.92 18.0 L 16.38 18.0 L 16.84 18.0" fill="none" stroke="#111" stroke-width="1.23" stroke-linecap="round" stroke-linejoin="round"/>
<path d="M 18.84 7.0 L 18.64 7.55 L 18.49 8.1 L 18.38 8.67 L 18.31 9.25 L 18.29 9.83 L 18.3 10.4 L 18.36 10.98 L 18.46 11.55 L 18.6 12.11 L 18.78 12.66 L 19.0 13.2 L 19.26 13.71 L 19.55 14.21 L 19.88 14.69 L 20.25 15.14 L 20.65 15.56 L 21.07 15.95 L 21.52 16.31 L 22.0 16.64 L 22.5 16.93 L 23.02 17.18 L 23.56 17.4 L 24.11 17.57 L 24.67 17.71" fill="none" stroke="#111" stroke-width="1.23" stroke-linecap="round" stroke-linejoin="round"/>
<path d="M 23.84 23.0 L 23.63 22.83 L 23.42 22.67 L 23.21 22.5 L 23.0 22.33 L 22.79 22.17 L 22.59 22.0 L 22.38 21.83 L 22.17 21.67 L 21.96 21.5 L 21.75 21.33 L 21.54 21.17 L 21.34 21.0 L 21.13 20.83 L 20.92 20.67 L 20.71 20.5 L 20.5 20.33 L 20.29 20.17 L 20.09 20.0 L 19.88 19.83 L 19.67 19.67 L 19.46 19.5 L 19.25 19.33 L 19.04 19.17 L 18.84 19.0 L 18.84 19.0 L 18.84 19.5 L 18.84 20.0 L 18.84 20.5 L 18.84 21.0 L 18.84 21.5 L 18.84 22.0 L 18.84 22.5 L 18.84 23.0 L 18.84 23.5 L 18.84 24.0 L 18.84 24.5 L 18.84 25.0 L 18.84 25.5 L 18.84 26.0 L 18.84 26.5 L 18.84 27.0 L 18.84 27.5 L 18.84 28.0 L 18.84 28.5 L 18.84 29.0 L 18.84 29.5 L 18.84 30.0 L 18.84 30.5 L 18.84 31.0" fill="none" stroke="#111" stroke-width="1.23" stroke-linecap="round" stroke-linejoin="round"/>
</svg>
