<?xml version="1.0" encoding="UTF-8"?>
<svg xmlns="http://www.w3.org/2000/svg" viewBox="0 0 28.00 32.00">
<path d="M 10.0 7.0 L 10.0 7.88 L 10.0 8.75 L 10.0 9.62 L 10.0 10.5 L 10.0 11.38 L 10.0 12.25 L 10.0 13.12 L 10.0 14.0 L 10.0 14.88 L 10.0 15.75 L 10.0 16.62 L 10.0 17.5 L 10.0 18.38 L 10.0 19.25 L 10.0 20.12 L 10.0 21.0 L 10.0 21.88 L 10.0 22.75 L 10.0 23.62 L 10.0 24.5 L 10.0 25.38 L 10.0 26.25 L 10.0 27.12 L 10.0 28.0" fill="none" stroke="#111" stroke-width="1.12" stroke-linecap="round" stroke-linejoin="round"/>
<path d="M 5.0 8.0 L 5.21 8.29 L 5.42 8.58 L 5.62 8.88 L 5.83 9.17 L 6.04 9.46 L 6.25 9.75 L 6.46 10.04 L 6.67 10.33 L 6.88 10.62 L 7.08 10.92 L 7.29 11.21 L 7.5 11.5 L 7.71 11.79 L 7.92 12.08 L 8.12 12.38 L 8.33 12.67 L 8.54 12.96 L 8.75 13.25 L 8.96 13.54 L 9.17 13.83 L 9.38 14.12 L 9.58 14.42 L 9.79 14.71 L 10.0 15.0 L 10.0 15.0 L 10.25 14.75 L 10.5 14.5 L 10.75 14.25 L 11.0 14.0 L 11.25 13.75 L 11.5 13.5 L 11.75 13.25 L 12.0 13.0 L 12.25 12.75 L 12.5 12.5 L 12.75 12.25 L 13.0 12.0 L 13.25 11.75 L 13.5 11.5 L 13.75 11.25 L 14.0 11.0 L 14.25 10.75 L 14.5 10.5 L 14.75 10.25 L 15.0 10.0 L 15.25 9.75 L 15.5 9.5 L 15.75 9.25 L 16.0 9.0" fill="none" stroke="#111" stroke-width="1.12" stroke-linecap="round" stroke-linejoin="round"/>
<path d="M 4.0 25.0 L 4.21 24.67 L 4.42 24.33 L 4.62 24.0 L 4.83 23.67 L 5.04 23.33 L 5.25 23.0 L 5.46 22.67 L 5.67 22.33 L 5.88 22.0 L 6.08 21.67 L 6.29 21.33 L 6.5 21.0 L 6.71 20.67 L 6.92 20.33 L 7.12 20.0 L 7.33 19.67 L 7.54 19.33 L 7.75 19.0 L 7.96 18.67 L 8.17 18.33 L 8.38 18.0 L 8.58 17.67 L 8.79 17.33 L 9.0 17.0 L 9.0 17.0 L 9.21 17.21 L 9.42 17.42 L 9.62 17.62 L 9.83 17.83 L 10.04 18.04 L 10.25 18.25 L 10.46 18.46 L 10.67 18.67 L 10.88 18.88 L 11.08 19.08 L 11.29 19.29 L 11.5 19.5 L 11.71 19.71 L 11.92 19.92 L 12.12 20.12 L 12.33 20.33 L 12.54 20.54 L 12.75 20.75 L 12.96 20.96 L 13.17 21.17 L 13.38 21.38 L 13.58 21.58 L 13.79 21.79 L 14.0 22.0" fill="none" stroke="#111" stroke-width="1.12" stroke-linecap="round" stroke-linejoin="round"/>
<path d="M 19.0 4.0 L 19.22 4.95 L 19.39 5.9 L 19.54 6.86 L 19.64 7.83 L 19.71 8.8 L 19.74 9.77 L 19.73 10.74 L 19.68 11.72 L 19.59 12.68 L 19.47 13.65 L 19.31 14.61 L 19.12 15.56 L 18.88 16.5 L 18.61 17.44 L 18.3 18.36 L 17.96 19.27 L 17.59 20.16 L 17.17 21.05 L 16.73 21.91 L 16.25 22.75 L 15.74 23.58 L 15.19 24.39 L 14.62 25.17 L 14.02 25.93" fill="none" stroke="#111" stroke-width="1.12" stroke-linecap="round" stroke-linejoin="round"/>
<path d="M 18.0 17.0 L 18.25 17.33 L 18.5 17.67 L 18.75 18.0 L 19.0 18.33 L 19.25 18.67 L 19.5 19.0 L 19.75 19.33 L 20.0 19.67 L 20.25 20.0 L 20.5 20.33 L 20.75 20.67 L 21.0 21.0 L 21.25 21.33 L 21.5 21.67 L 21.75 22.0 L 22.0 22.33 L 22.25 22.67 L 22.5 23.0 L 22.75 23.33 L 23.0 23.67 L 23.25 24.0 L 23.5 24.33 L 23.75 24.67 L 24.0 25.0" fill="none" stroke="#111" stroke-width="1.12" stroke-linecap="round" stroke-linejoin="round"/>
<path d="M 14.0 15.0 L 14.3 14.76 L 14.6 14.51 L 14.89 14.26 L 15.18 14.01 L 15.47 13.75 L 15.75 13.48 L 16.03 13.21 L 16.3 12.94 L 16.56 12.66 L 16.83 12.38 L 17.09 12.09 L 17.34 11.8 L 17.59 11.51 L 17.83 11.21 L 18.07 10.91 L 18.31 10.6 L 18.53 10.29 L 18.76 9.97 L 18.98 9.65 L 19.19 9.33 L 19.4 9.01 L 19.6 8.68 L 19.8 8.35 L 19.99 8.01" fill="none" stroke="#111" stroke-width="1.12" stroke-linecap="round" stroke-linejoin="round"/>
<path d="M 20.0 9.0 L 20.17 9.33 L 20.33 9.67 L 20.5 10.0 L 20.67 10.33 L 20.83 10.67 L 21.0 11.0 L 21.17 11.33 L 21.33 11.67 L 21.5 12.0 L 21.67 12.33 L 21.83 12.67 L 22.0 13.0 L 22.17 13.33 L 22.33 13.67 L 22.5 14.0 L 22.67 14.33 L 22.83 14.67 L 23.0 15.0 L 23.17 15.33 L 23.33 15.67 L 23.5 16.0 L 23.67 16.33 L 23.83 16.67 L 24.0 17.0" fill="none" stroke="#111" stroke-width="1.12" stroke-linecap="round" stroke-linejoin="round"/>
</svg>
