<?xml version="1.0" encoding="UTF-8"?>
<svg xmlns="http://www.w3.org/2000/svg" viewBox="0 0 19.00 33.00">
<path d="M 9.0 8.0 L 9.0 8.83 L 9.0 9.67 L 9.0 10.5 L 9.0 11.33 L 9.0 12.17 L 9.0 13.0 L 9.0 13.83 L 9.0 14.67 L 9.0 15.5 L 9.0 16.33 L 9.0 17.17 L 9.0 18.0 L 9.0 18.83 L 9.0 19.67 L 9.0 20.5 L 9.0 21.33 L 9.0 22.17 L 9.0 23.0 L 9.0 23.83 L 9.0 24.67 L 9.0 25.5 L 9.0 26.33 L 9.0 27.17 L 9.0 28.0" fill="none" stroke="#111" stroke-width="1.16" stroke-linecap="round" stroke-linejoin="round"/>
<path d="M 12.0 4.0 L 11.88 4.17 L 11.75 4.33 L 11.62 4.5 L 11.5 4.67 L 11.38 4.83 L 11.25 5.0 L 11.12 5.17 L 11.0 5.33 L 10.88 5.5 L 10.75 5.67 L 10.62 5.83 L 10.5 6.0 L 10.38 6.17 L 10.25 6.33 L 10.12 6.5 L 10.0 6.67 L 9.88 6.83 L 9.75 7.0 L 9.62 7.17 L 9.5 7.33 L 9.38 7.5 L 9.25 7.67 L 9.12 7.83 L 9.0 8.0" fill="none" stroke="#111" stroke-width="1.16" stroke-linecap="round" stroke-linejoin="round"/>
<path d="M 7.0 6.0 L 7.08 6.08 L 7.17 6.17 L 7.25 6.25 L 7.33 6.33 L 7.42 6.42 L 7.5 6.5 L 7.58 6.58 L 7.67 6.67 L 7.75 6.75 L 7.83 6.83 L 7.92 6.92 L 8.0 7.0 L 8.08 7.08 L 8.17 7.17 L 8.25 7.25 L 8.33 7.33 L 8.42 7.42 L 8.5 7.5 L 8.58 7.58 L 8.67 7.67 L 8.75 7.75 L 8.83 7.83 L 8.92 7.92 L 9.0 8.0" fill="none" stroke="#111" stroke-width="1.16" stroke-linecap="round" stroke-linejoin="round"/>
<path d="M 5.0 14.0 L 5.38 13.83 L 5.75 13.67 L 6.12 13.5 L 6.5 13.33 L 6.88 13.17 L 7.25 13.0 L 7.62 12.83 L 8.0 12.67 L 8.38 12.5 L 8.75 12.33 L 9.12 12.17 L 9.5 12.0 L 9.88 11.83 L 10.25 11.67 L 10.62 11.5 L 11.0 11.33 L 11.38 11.17 L 11.75 11.0 L 12.12 10.83 L 12.5 10.67 L 12.88 10.5 L 13.25 10.33 L 13.62 10.17 L 14.0 10.0 L 14.0 10.0 L 14.08 10.63 L 14.11 11.26 L 14.09 11.89 L 14.01 12.52 L 13.88 13.14 L 13.7 13.74 L 13.46 14.33 L 13.18 14.9 L 12.86 15.44 L 12.49 15.95 L 12.07 16.43 L 11.62 16.87 L 11.13 17.27 L 10.61 17.64 L 10.07 17.95 L 9.49 18.22 L 8.9 18.44 L 8.29 18.61 L 7.67 18.72 L 7.04 18.79 L 6.41 18.8 L 5.78 18.76 L 5.15 18.66 L 4.54 18.52 L 4.0 19.0 L 4.04 19.21 L 4.08 19.42 L 4.12 19.62 L 4.17 19.83 L 4.21 20.04 L 4.25 20.25 L 4.29 20.46 L 4.33 20.67 L 4.38 20.88 L 4.42 21.08 L 4.46 21.29 L 4.5 21.5 L 4.54 21.71 L 4.58 21.92 L 4.62 22.12 L 4.67 22.33 L 4.71 22.54 L 4.75 22.75 L 4.79 22.96 L 4.83 23.17 L 4.88 23.38 L 4.92 23.58 L 4.96 23.79 L 5.0 24.0 L 5.0 24.0 L 5.42 23.88 L 5.83 23.75 L 6.25 23.62 L 6.67 23.5 L 7.08 23.38 L 7.5 23.25 L 7.92 23.12 L 8.33 23.0 L 8.75 22.88 L 9.17 22.75 L 9.58 22.62 L 10.0 22.5 L 10.42 22.38 L 10.83 22.25 L 11.25 22.12 L 11.67 22.0 L 12.08 21.88 L 12.5 21.75 L 12.92 21.62 L 13.33 21.5 L 13.75 21.38 L 14.17 21.25 L 14.58 21.12 L 15.0 21.0" fill="none" stroke="#111" stroke-width="1.16" stroke-linecap="round" stroke-linejoin="round"/>
<path d="M 7.0 29.0 L 7.21 28.88 L 7.42 28.75 L 7.62 28.62 L 7.83 28.5 L 8.04 28.38 L 8.25 28.25 L 8.46 28.12 L 8.67 28.0 L 8.88 27.88 L 9.08 27.75 L 9.29 27.62 L 9.5 27.5 L 9.71 27.38 L 9.92 27.25 L 10.12 27.12 L 10.33 27.0 L 10.54 26.88 L 10.75 26.75 L 10.96 26.62 L 11.17 26.5 L 11.38 26.38 L 11.58 26.25 L 11.79 26.12 L 12.0 26.0" fill="none" stroke="#111" stroke-width="1.16" stroke-linecap="round" stroke-linejoin="round"/>
</svg>
