<?xml version="1.0" encoding="UTF-8"?>
<svg xmlns="http://www.w3.org/2000/svg" viewBox="0 0 21.76 38.62">
<path d="M 7.0 4.52 L 6.7 4.94 L 6.44 5.39 L 6.22 5.86 L 6.04 6.35 L 5.9 6.85 L 5.81 7.36 L 5.76 7.88 L 5.76 8.4 L 5.8 8.92 L 5.88 9.43 L 6.01 9.93 L 6.18 10.42 L 6.4 10.9 L 6.65 11.35 L 6.94 11.78 L 7.27 12.18 L 7.63 12.56 L 8.02 12.9 L 8.44 13.2 L 8.89 13.47 L 9.35 13.7 L 9.84 13.89 L 10.34 14.03 L 10.85 14.14 L 11.0 14.52 L 11.48 14.3 L 11.94 14.05 L 12.38 13.76 L 12.8 13.45 L 13.19 13.1 L 13.55 12.72 L 13.89 12.31 L 14.19 11.88 L 14.45 11.43 L 14.69 10.96 L 14.88 10.47 L 15.04 9.97 L 15.16 9.46 L 15.24 8.94 L 15.28 8.41 L 15.28 7.89 L 15.23 7.37 L 15.15 6.85 L 15.03 6.34 L 14.87 5.84 L 14.67 5.35 L 14.44 4.88 L 14.17 4.43 L 13.87 4.0" fill="none" stroke="#111" stroke-width="1.35" stroke-linecap="round" stroke-linejoin="round"/>
<path d="M 10.0 14.52 L 9.88 14.93 L 9.75 15.35 L 9.62 15.77 L 9.5 16.18 L 9.38 16.6 L 9.25 17.02 L 9.12 17.43 L 9.0 17.85 L 8.88 18.27 L 8.75 18.68 L 8.62 19.1 L 8.5 19.52 L 8.38 19.93 L 8.25 20.35 L 8.12 20.77 L 8.0 21.18 L 7.88 21.6 L 7.75 22.02 L 7.62 22.43 L 7.5 22.85 L 7.37 23.27 L 7.25 23.68 L 7.12 24.1 L 7.0 24.52" fill="none" stroke="#111" stroke-width="1.35" stroke-linecap="round" stroke-linejoin="round"/>
<path d="M 11.0 14.52 L 11.12 14.93 L 11.25 15.35 L 11.38 15.77 L 11.5 16.18 L 11.62 16.6 L 11.75 17.02 L 11.88 17.43 L 12.0 17.85 L 12.12 18.27 L 12.25 18.68 L 12.38 19.1 L 12.5 19.52 L 12.62 19.93 L 12.75 20.35 L 12.88 20.77 L 13.0 21.18 L 13.12 21.6 L 13.25 22.02 L 13.38 22.43 L 13.5 22.85 L 13.62 23.27 L 13.75 23.68 L 13.88 24.1 L 14.0 24.52" fill="none" stroke="#111" stroke-width="1.35" stroke-linecap="round" stroke-linejoin="round"/>
<path d="M 4.0 16.52 L 4.04 16.85 L 4.08 17.18 L 4.12 17.52 L 4.17 17.85 L 4.21 18.18 L 4.25 18.52 L 4.29 18.85 L 4.33 19.18 L 4.38 19.52 L 4.42 19.85 L 4.46 20.18 L 4.5 20.52 L 4.54 20.85 L 4.58 21.18 L 4.62 21.52 L 4.67 21.85 L 4.71 22.18 L 4.75 22.52 L 4.79 22.85 L 4.83 23.18 L 4.88 23.52 L 4.92 23.85 L 4.96 24.18 L 5.0 24.52 L 5.0 24.52 L 5.62 24.97 L 6.28 25.36 L 6.97 25.68 L 7.69 25.93 L 8.44 26.12 L 9.2 26.22 L 9.96 26.26 L 10.73 26.22 L 11.48 26.1 L 12.23 25.91 L 12.95 25.65 L 13.64 25.32 L 14.29 24.93 L 14.91 24.47 L 15.47 23.95 L 15.99 23.39 L 16.44 22.77 L 16.83 22.11 L 17.16 21.42 L 17.42 20.7 L 17.6 19.96 L 17.72 19.2 L 17.76 18.43 L 17.72 17.67" fill="none" stroke="#111" stroke-width="1.35" stroke-linecap="round" stroke-linejoin="round"/>
<path d="M 10.0 26.52 L 10.0 26.64 L 10.0 26.77 L 10.0 26.89 L 10.0 27.02 L 10.0 27.14 L 10.0 27.27 L 10.0 27.39 L 10.0 27.52 L 10.0 27.64 L 10.0 27.77 L 10.0 27.89 L 10.0 28.02 L 10.0 28.14 L 10.0 28.27 L 10.0 28.39 L 10.0 28.52 L 10.0 28.64 L 10.0 28.77 L 10.0 28.89 L 10.0 29.02 L 10.0 29.14 L 10.0 29.27 L 10.0 29.39 L 10.0 29.52" fill="none" stroke="#111" stroke-width="1.35" stroke-linecap="round" stroke-linejoin="round"/>
<path d="M 10.0 29.52 L 9.64 29.49 L 9.27 29.52 L 8.92 29.6 L 8.57 29.73 L 8.25 29.9 L 7.96 30.12 L 7.7 30.38 L 7.49 30.67 L 7.31 30.99 L 7.18 31.34 L 7.11 31.69 L 7.08 32.06 L 7.11 32.42 L 7.18 32.78 L 7.31 33.12 L 7.49 33.44 L 7.7 33.73 L 7.96 33.99 L 8.25 34.21 L 8.57 34.39 L 8.92 34.51 L 9.27 34.59 L 9.64 34.62 L 10.0 34.6 L 10.0 34.52 L 10.39 34.57 L 10.77 34.56 L 11.16 34.49 L 11.52 34.37 L 11.87 34.2 L 12.19 33.97 L 12.47 33.71 L 12.71 33.4 L 12.9 33.06 L 13.04 32.7 L 13.13 32.32 L 13.15 31.93 L 13.13 31.55 L 13.04 31.17 L 12.9 30.81 L 12.71 30.47 L 12.47 30.16 L 12.19 29.9 L 11.87 29.67 L 11.52 29.5 L 11.16 29.38 L 10.77 29.31 L 10.39 29.3 L 10.0 29.35" fill="none" stroke="#111" stroke-width="1.35" stroke-linecap="round" stroke-linejoin="round"/>
</svg>
