<?xml version="1.0" encoding="UTF-8"?>
<svg xmlns="http://www.w3.org/2000/svg" viewBox="0 0 27.18 31.00">
<path d="M 6.13 4.0 L 6.55 4.0 L 6.96 4.0 L 7.38 4.0 L 7.8 4.0 L 8.21 4.0 L 8.63 4.0 L 9.05 4.0 L 9.46 4.0 L 9.88 4.0 L 10.3 4.0 L 10.71 4.0 L 11.13 4.0 L 11.55 4.0 L 11.96 4.0 L 12.38 4.0 L 12.8 4.0 L 13.21 4.0 L 13.63 4.0 L 14.05 4.0 L 14.46 4.0 L 14.88 4.0 L 15.3 4.0 L 15.71 4.0 L 16.13 4.0" fill="none" stroke="#111" stroke-width="1.09" stroke-linecap="round" stroke-linejoin="round"/>
<path d="M 5.13 8.0 L 5.63 8.0 L 6.13 8.0 L 6.63 8.0 L 7.13 8.0 L 7.63 8.0 L 8.13 8.0 L 8.63 8.0 L 9.13 8.0 L 9.63 8.0 L 10.13 8.0 L 10.63 8.0 L 11.13 8.0 L 11.63 8.0 L 12.13 8.0 L 12.63 8.0 L 13.13 8.0 L 13.63 8.0 L 14.13 8.0 L 14.63 8.0 L 15.13 8.0 L 15.63 8.0 L 16.13 8.0 L 16.63 8.0 L 17.13 8.0" fill="none" stroke="#111" stroke-width="1.09" stroke-linecap="round" stroke-linejoin="round"/>
<path d="M 5.13 8.0 L 4.48 9.51 L 4.1 11.11 L 4.0 12.76 L 4.18 14.39 L 4.64 15.98 L 5.36 17.45 L 6.33 18.79 L 7.5 19.94 L 8.86 20.87 L 10.36 21.56 L 11.95 21.98 L 13.59 22.12 L 15.23 21.98 L 16.82 21.56 L 18.32 20.87 L 19.68 19.94 L 20.85 18.79 L 21.82 17.45 L 22.54 15.98 L 23.0 14.39 L 23.18 12.76 L 23.08 11.11 L 22.7 9.51 L 22.05 8.0" fill="none" stroke="#111" stroke-width="1.09" stroke-linecap="round" stroke-linejoin="round"/>
<path d="M 6.13 13.0 L 6.51 13.0 L 6.88 13.0 L 7.26 13.0 L 7.63 13.0 L 8.01 13.0 L 8.38 13.0 L 8.76 13.0 L 9.13 13.0 L 9.51 13.0 L 9.88 13.0 L 10.26 13.0 L 10.63 13.0 L 11.01 13.0 L 11.38 13.0 L 11.76 13.0 L 12.13 13.0 L 12.51 13.0 L 12.88 13.0 L 13.26 13.0 L 13.63 13.0 L 14.01 13.0 L 14.38 13.0 L 14.76 13.0 L 15.13 13.0" fill="none" stroke="#111" stroke-width="1.09" stroke-linecap="round" stroke-linejoin="round"/>
<path d="M 8.13 17.0 L 8.42 16.96 L 8.71 16.92 L 9.01 16.88 L 9.3 16.83 L 9.59 16.79 L 9.88 16.75 L 10.17 16.71 L 10.46 16.67 L 10.76 16.62 L 11.05 16.58 L 11.34 16.54 L 11.63 16.5 L 11.92 16.46 L 12.21 16.42 L 12.51 16.38 L 12.8 16.33 L 13.09 16.29 L 13.38 16.25 L 13.67 16.21 L 13.96 16.17 L 14.26 16.12 L 14.55 16.08 L 14.84 16.04 L 15.13 16.0" fill="none" stroke="#111" stroke-width="1.09" stroke-linecap="round" stroke-linejoin="round"/>
<path d="M 6.13 27.0 L 6.59 27.0 L 7.05 27.0 L 7.51 27.0 L 7.96 27.0 L 8.42 27.0 L 8.88 27.0 L 9.34 27.0 L 9.8 27.0 L 10.26 27.0 L 10.71 27.0 L 11.17 27.0 L 11.63 27.0 L 12.09 27.0 L 12.55 27.0 L 13.01 27.0 L 13.46 27.0 L 13.92 27.0 L 14.38 27.0 L 14.84 27.0 L 15.3 27.0 L 15.76 27.0 L 16.21 27.0 L 16.67 27.0 L 17.13 27.0" fill="none" stroke="#111" stroke-width="1.09" stroke-linecap="round" stroke-linejoin="round"/>
<path d="M 10.13 4.0 L 10.09 4.29 L 10.05 4.58 L 10.01 4.88 L 9.96 5.17 L 9.92 5.46 L 9.88 5.75 L 9.84 6.04 L 9.8 6.33 L 9.76 6.62 L 9.71 6.92 L 9.67 7.21 L 9.63 7.5 L 9.59 7.79 L 9.55 8.08 L 9.51 8.38 L 9.46 8.67 L 9.42 8.96 L 9.38 9.25 L 9.34 9.54 L 9.3 9.83 L 9.26 10.12 L 9.21 10.42 L 9.17 10.71 L 9.13 11.0" fill="none" stroke="#111" stroke-width="1.09" stroke-linecap="round" stroke-linejoin="round"/>
<path d="M 12.13 4.0 L 12.17 4.29 L 12.21 4.58 L 12.26 4.88 L 12.3 5.17 L 12.34 5.46 L 12.38 5.75 L 12.42 6.04 L 12.46 6.33 L 12.51 6.62 L 12.55 6.92 L 12.59 7.21 L 12.63 7.5 L 12.67 7.79 L 12.71 8.08 L 12.76 8.38 L 12.8 8.67 L 12.84 8.96 L 12.88 9.25 L 12.92 9.54 L 12.96 9.83 L 13.01 10.12 L 13.05 10.42 L 13.09 10.71 L 13.13 11.0" fill="none" stroke="#111" stroke-width="1.09" stroke-linecap="round" stroke-linejoin="round"/>
</svg>
