<?xml version="1.0" encoding="UTF-8"?>
<svg xmlns="http://www.w3.org/2000/svg" viewBox="0 0 22.00 31.00">
<path d="M 5.0 4.0 L 5.45 4.2 L 5.88 4.43 L 6.29 4.7 L 6.68 5.0 L 7.04 5.33 L 7.37 5.69 L 7.68 6.08 L 7.94 6.49 L 8.17 6.93 L 8.37 7.38 L 8.52 7.84 L 8.64 8.32 L 8.72 8.8 L 8.75 9.29 L 8.75 9.79 L 8.7 10.27 L 8.61 10.76 L 8.48 11.23 L 8.32 11.69 L 8.11 12.14 L 7.87 12.57 L 7.59 12.97 L 7.28 13.35 L 6.94 13.71 L 7.0 14.0 L 6.66 13.65 L 6.35 13.27 L 6.07 12.86 L 5.83 12.43 L 5.63 11.99 L 5.46 11.52 L 5.33 11.05 L 5.24 10.57 L 5.2 10.08 L 5.19 9.59 L 5.23 9.1 L 5.3 8.61 L 5.42 8.14 L 5.57 7.67 L 5.77 7.22 L 6.0 6.79 L 6.27 6.37 L 6.57 5.99 L 6.9 5.62 L 7.26 5.29 L 7.65 4.99 L 8.06 4.72 L 8.49 4.49 L 8.94 4.29" fill="none" stroke="#111" stroke-width="1.09" stroke-linecap="round" stroke-linejoin="round"/>
<path d="M 7.0 14.0 L 7.0 14.42 L 7.0 14.83 L 7.0 15.25 L 7.0 15.67 L 7.0 16.08 L 7.0 16.5 L 7.0 16.92 L 7.0 17.33 L 7.0 17.75 L 7.0 18.17 L 7.0 18.58 L 7.0 19.0 L 7.0 19.42 L 7.0 19.83 L 7.0 20.25 L 7.0 20.67 L 7.0 21.08 L 7.0 21.5 L 7.0 21.92 L 7.0 22.33 L 7.0 22.75 L 7.0 23.17 L 7.0 23.58 L 7.0 24.0" fill="none" stroke="#111" stroke-width="1.09" stroke-linecap="round" stroke-linejoin="round"/>
<path d="M 4.0 20.0 L 4.12 20.17 L 4.25 20.33 L 4.38 20.5 L 4.5 20.67 L 4.62 20.83 L 4.75 21.0 L 4.88 21.17 L 5.0 21.33 L 5.12 21.5 L 5.25 21.67 L 5.38 21.83 L 5.5 22.0 L 5.62 22.17 L 5.75 22.33 L 5.88 22.5 L 6.0 22.67 L 6.12 22.83 L 6.25 23.0 L 6.38 23.17 L 6.5 23.33 L 6.62 23.5 L 6.75 23.67 L 6.88 23.83 L 7.0 24.0 L 7.0 24.0 L 7.12 23.83 L 7.25 23.67 L 7.38 23.5 L 7.5 23.33 L 7.62 23.17 L 7.75 23.0 L 7.88 22.83 L 8.0 22.67 L 8.12 22.5 L 8.25 22.33 L 8.38 22.17 L 8.5 22.0 L 8.62 21.83 L 8.75 21.67 L 8.88 21.5 L 9.0 21.33 L 9.12 21.17 L 9.25 21.0 L 9.38 20.83 L 9.5 20.67 L 9.62 20.5 L 9.75 20.33 L 9.88 20.17 L 10.0 20.0" fill="none" stroke="#111" stroke-width="1.09" stroke-linecap="round" stroke-linejoin="round"/>
<path d="M 14.0 4.0 L 14.0 4.5 L 14.0 5.0 L 14.0 5.5 L 14.0 6.0 L 14.0 6.5 L 14.0 7.0 L 14.0 7.5 L 14.0 8.0 L 14.0 8.5 L 14.0 9.0 L 14.0 9.5 L 14.0 10.0 L 14.0 10.5 L 14.0 11.0 L 14.0 11.5 L 14.0 12.0 L 14.0 12.5 L 14.0 13.0 L 14.0 13.5 L 14.0 14.0 L 14.0 14.5 L 14.0 15.0 L 14.0 15.5 L 14.0 16.0 L 14.0 16.0 L 14.33 16.03 L 14.64 16.1 L 14.95 16.22 L 15.24 16.37 L 15.51 16.55 L 15.75 16.77 L 15.96 17.02 L 16.14 17.3 L 16.28 17.59 L 16.39 17.9 L 16.45 18.22 L 16.47 18.55 L 16.45 18.87 L 16.39 19.2 L 16.28 19.51 L 16.14 19.8 L 15.96 20.07 L 15.75 20.32 L 15.51 20.54 L 15.24 20.73 L 14.95 20.88 L 14.64 20.99 L 14.33 21.07 L 14.0 21.1 L 14.0 21.0 L 14.0 21.25 L 14.0 21.5 L 14.0 21.75 L 14.0 22.0 L 14.0 22.25 L 14.0 22.5 L 14.0 22.75 L 14.0 23.0 L 14.0 23.25 L 14.0 23.5 L 14.0 23.75 L 14.0 24.0 L 14.0 24.25 L 14.0 24.5 L 14.0 24.75 L 14.0 25.0 L 14.0 25.25 L 14.0 25.5 L 14.0 25.75 L 14.0 26.0 L 14.0 26.25 L 14.0 26.5 L 14.0 26.75 L 14.0 27.0" fill="none" stroke="#111" stroke-width="1.09" stroke-linecap="round" stroke-linejoin="round"/>
<path d="M 11.0 6.0 L 11.08 6.12 L 11.17 6.25 L 11.25 6.38 L 11.33 6.5 L 11.42 6.62 L 11.5 6.75 L 11.58 6.88 L 11.67 7.0 L 11.75 7.12 L 11.83 7.25 L 11.92 7.38 L 12.0 7.5 L 12.08 7.62 L 12.17 7.75 L 12.25 7.88 L 12.33 8.0 L 12.42 8.12 L 12.5 8.25 L 12.58 8.38 L 12.67 8.5 L 12.75 8.62 L 12.83 8.75 L 12.92 8.88 L 13.0 9.0 L 13.0 9.0 L 13.21 8.83 L 13.42 8.67 L 13.62 8.5 L 13.83 8.33 L 14.04 8.17 L 14.25 8.0 L 14.46 7.83 L 14.67 7.67 L 14.88 7.5 L 15.08 7.33 L 15.29 7.17 L 15.5 7.0 L 15.71 6.83 L 15.92 6.67 L 16.12 6.5 L 16.33 6.33 L 16.54 6.17 L 16.75 6.0 L 16.96 5.83 L 17.17 5.67 L 17.38 5.5 L 17.58 5.33 L 17.79 5.17 L 18.0 5.0" fill="none" stroke="#111" stroke-width="1.09" stroke-linecap="round" stroke-linejoin="round"/>
<path d="M 11.0 11.0 L 11.31 11.2 L 11.63 11.38 L 11.96 11.53 L 12.31 11.65 L 12.67 11.74 L 13.03 11.79 L 13.4 11.82 L 13.76 11.81 L 14.13 11.77 L 14.49 11.71 L 14.84 11.61 L 15.19 11.48 L 15.52 11.32 L 15.84 11.13 L 16.13 10.92 L 16.41 10.68 L 16.67 10.41 L 16.91 10.13 L 17.11 9.83 L 17.3 9.51 L 17.45 9.18 L 17.57 8.83 L 17.67 8.48 L 17.73 8.11" fill="none" stroke="#111" stroke-width="1.09" stroke-linecap="round" stroke-linejoin="round"/>
<path d="M 9.0 16.0 L 9.12 16.08 L 9.25 16.17 L 9.38 16.25 L 9.5 16.33 L 9.62 16.42 L 9.75 16.5 L 9.88 16.58 L 10.0 16.67 L 10.12 16.75 L 10.25 16.83 L 10.38 16.92 L 10.5 17.0 L 10.62 17.08 L 10.75 17.17 L 10.88 17.25 L 11.0 17.33 L 11.12 17.42 L 11.25 17.5 L 11.38 17.58 L 11.5 17.67 L 11.62 17.75 L 11.75 17.83 L 11.88 17.92 L 12.0 18.0 L 12.0 18.0 L 11.96 18.08 L 11.92 18.17 L 11.88 18.25 L 11.83 18.33 L 11.79 18.42 L 11.75 18.5 L 11.71 18.58 L 11.67 18.67 L 11.62 18.75 L 11.58 18.83 L 11.54 18.92 L 11.5 19.0 L 11.46 19.08 L 11.42 19.17 L 11.38 19.25 L 11.33 19.33 L 11.29 19.42 L 11.25 19.5 L 11.21 19.58 L 11.17 19.67 L 11.12 19.75 L 11.08 19.83 L 11.04 19.92 L 11.0 20.0" fill="none" stroke="#111" stroke-width="1.09" stroke-linecap="round" stroke-linejoin="round"/>
<path d="M 9.0 18.0 L 9.21 17.92 L 9.42 17.83 L 9.62 17.75 L 9.83 17.67 L 10.04 17.58 L 10.25 17.5 L 10.46 17.42 L 10.67 17.33 L 10.88 17.25 L 11.08 17.17 L 11.29 17.08 L 11.5 17.0 L 11.71 16.92 L 11.92 16.83 L 12.12 16.75 L 12.33 16.67 L 12.54 16.58 L 12.75 16.5 L 12.96 16.42 L 13.17 16.33 L 13.38 16.25 L 13.58 16.17 L 13.79 16.08 L 14.0 16.0" fill="none" stroke="#111" stroke-width="1.09" stroke-linecap="round" stroke-linejoin="round"/>
</svg>
