<?xml version="1.0" encoding="UTF-8"?>
<svg xmlns="http://www.w3.org/2000/svg" viewBox="0 0 24.00 35.00">
<path d="M 12.0 4.0 L 12.0 4.71 L 12.0 5.42 L 12.0 6.12 L 12.0 6.83 L 12.0 7.54 L 12.0 8.25 L 12.0 8.96 L 12.0 9.67 L 12.0 10.38 L 12.0 11.08 L 12.0 11.79 L 12.0 12.5 L 12.0 13.21 L 12.0 13.92 L 12.0 14.62 L 12.0 15.33 L 12.0 16.04 L 12.0 16.75 L 12.0 17.46 L 12.0 18.17 L 12.0 18.88 L 12.0 19.58 L 12.0 20.29 L 12.0 21.0" fill="none" stroke="#111" stroke-width="1.23" stroke-linecap="round" stroke-linejoin="round"/>
<path d="M 6.0 8.0 L 6.0 8.29 L 6.0 8.58 L 6.0 8.88 L 6.0 9.17 L 6.0 9.46 L 6.0 9.75 L 6.0 10.04 L 6.0 10.33 L 6.0 10.62 L 6.0 10.92 L 6.0 11.21 L 6.0 11.5 L 6.0 11.79 L 6.0 12.08 L 6.0 12.38 L 6.0 12.67 L 6.0 12.96 L 6.0 13.25 L 6.0 13.54 L 6.0 13.83 L 6.0 14.12 L 6.0 14.42 L 6.0 14.71 L 6.0 15.0" fill="none" stroke="#111" stroke-width="1.23" stroke-linecap="round" stroke-linejoin="round"/>
<path d="M 6.0 8.0 L 6.5 8.0 L 7.0 8.0 L 7.5 8.0 L 8.0 8.0 L 8.5 8.0 L 9.0 8.0 L 9.5 8.0 L 10.0 8.0 L 10.5 8.0 L 11.0 8.0 L 11.5 8.0 L 12.0 8.0 L 12.5 8.0 L 13.0 8.0 L 13.5 8.0 L 14.0 8.0 L 14.5 8.0 L 15.0 8.0 L 15.5 8.0 L 16.0 8.0 L 16.5 8.0 L 17.0 8.0 L 17.5 8.0 L 18.0 8.0 L 18.0 8.0 L 18.0 8.29 L 18.0 8.58 L 18.0 8.88 L 18.0 9.17 L 18.0 9.46 L 18.0 9.75 L 18.0 10.04 L 18.0 10.33 L 18.0 10.62 L 18.0 10.92 L 18.0 11.21 L 18.0 11.5 L 18.0 11.79 L 18.0 12.08 L 18.0 12.38 L 18.0 12.67 L 18.0 12.96 L 18.0 13.25 L 18.0 13.54 L 18.0 13.83 L 18.0 14.12 L 18.0 14.42 L 18.0 14.71 L 18.0 15.0" fill="none" stroke="#111" stroke-width="1.23" stroke-linecap="round" stroke-linejoin="round"/>
<path d="M 6.0 15.0 L 6.5 15.0 L 7.0 15.0 L 7.5 15.0 L 8.0 15.0 L 8.5 15.0 L 9.0 15.0 L 9.5 15.0 L 10.0 15.0 L 10.5 15.0 L 11.0 15.0 L 11.5 15.0 L 12.0 15.0 L 12.5 15.0 L 13.0 15.0 L 13.5 15.0 L 14.0 15.0 L 14.5 15.0 L 15.0 15.0 L 15.5 15.0 L 16.0 15.0 L 16.5 15.0 L 17.0 15.0 L 17.5 15.0 L 18.0 15.0" fill="none" stroke="#111" stroke-width="1.23" stroke-linecap="round" stroke-linejoin="round"/>
<path d="M 4.0 19.0 L 4.0 19.5 L 4.0 20.0 L 4.0 20.5 L 4.0 21.0 L 4.0 21.5 L 4.0 22.0 L 4.0 22.5 L 4.0 23.0 L 4.0 23.5 L 4.0 24.0 L 4.0 24.5 L 4.0 25.0 L 4.0 25.5 L 4.0 26.0 L 4.0 26.5 L 4.0 27.0 L 4.0 27.5 L 4.0 28.0 L 4.0 28.5 L 4.0 29.0 L 4.0 29.5 L 4.0 30.0 L 4.0 30.5 L 4.0 31.0 L 4.0 31.0 L 4.67 31.0 L 5.33 31.0 L 6.0 31.0 L 6.67 31.0 L 7.33 31.0 L 8.0 31.0 L 8.67 31.0 L 9.33 31.0 L 10.0 31.0 L 10.67 31.0 L 11.33 31.0 L 12.0 31.0 L 12.67 31.0 L 13.33 31.0 L 14.0 31.0 L 14.67 31.0 L 15.33 31.0 L 16.0 31.0 L 16.67 31.0 L 17.33 31.0 L 18.0 31.0 L 18.67 31.0 L 19.33 31.0 L 20.0 31.0 L 20.0 31.0 L 20.0 30.46 L 20.0 29.92 L 20.0 29.38 L 20.0 28.83 L 20.0 28.29 L 20.0 27.75 L 20.0 27.21 L 20.0 26.67 L 20.0 26.12 L 20.0 25.58 L 20.0 25.04 L 20.0 24.5 L 20.0 23.96 L 20.0 23.42 L 20.0 22.88 L 20.0 22.33 L 20.0 21.79 L 20.0 21.25 L 20.0 20.71 L 20.0 20.17 L 20.0 19.62 L 20.0 19.08 L 20.0 18.54 L 20.0 18.0" fill="none" stroke="#111" stroke-width="1.23" stroke-linecap="round" stroke-linejoin="round"/>
<path d="M 4.0 24.0 L 4.67 24.0 L 5.33 24.0 L 6.0 24.0 L 6.67 24.0 L 7.33 24.0 L 8.0 24.0 L 8.67 24.0 L 9.33 24.0 L 10.0 24.0 L 10.67 24.0 L 11.33 24.0 L 12.0 24.0 L 12.67 24.0 L 13.33 24.0 L 14.0 24.0 L 14.67 24.0 L 15.33 24.0 L 16.0 24.0 L 16.67 24.0 L 17.33 24.0 L 18.0 24.0 L 18.67 24.0 L 19.33 24.0 L 20.0 24.0" fill="none" stroke="#111" stroke-width="1.23" stroke-linecap="round" stroke-linejoin="round"/>
</svg>
