<?xml version="1.0" encoding="UTF-8"?>
<svg xmlns="http://www.w3.org/2000/svg" viewBox="0 0 26.58 31.90">
<path d="M 12.72 4.0 L 11.94 4.16 L 11.17 4.37 L 10.42 4.65 L 9.7 4.98 L 9.0 5.36 L 8.34 5.8 L 7.71 6.29 L 7.12 6.82 L 6.57 7.4 L 6.07 8.02 L 5.62 8.67 L 5.22 9.36 L 4.87 10.07 L 4.58 10.81 L 4.34 11.58 L 4.17 12.35 L 4.05 13.14 L 4.0 13.93 L 4.01 14.73 L 4.08 15.52 L 4.2 16.31 L 4.39 17.08 L 4.64 17.84 L 4.95 18.57" fill="none" stroke="#111" stroke-width="1.12" stroke-linecap="round" stroke-linejoin="round"/>
<path d="M 12.72 4.0 L 13.41 4.27 L 14.08 4.6 L 14.72 4.97 L 15.34 5.38 L 15.92 5.83 L 16.47 6.33 L 16.99 6.86 L 17.47 7.43 L 17.9 8.03 L 18.29 8.66 L 18.64 9.32 L 18.94 10.0 L 19.19 10.69 L 19.39 11.41 L 19.54 12.13 L 19.64 12.87 L 19.69 13.61 L 19.68 14.35 L 19.63 15.09 L 19.52 15.83 L 19.35 16.55 L 19.14 17.26 L 18.88 17.96 L 18.57 18.63" fill="none" stroke="#111" stroke-width="1.12" stroke-linecap="round" stroke-linejoin="round"/>
<path d="M 9.72 10.0 L 10.02 10.74 L 10.4 11.43 L 10.87 12.07 L 11.41 12.66 L 12.01 13.17 L 12.67 13.61 L 13.39 13.96 L 14.13 14.23 L 14.91 14.41 L 15.7 14.49 L 16.49 14.47 L 17.28 14.37 L 18.05 14.16 L 18.78 13.87 L 19.48 13.49 L 20.13 13.03 L 20.72 12.5 L 21.24 11.9 L 21.68 11.24 L 22.04 10.53 L 22.31 9.78 L 22.5 9.01 L 22.58 8.22 L 22.58 7.43" fill="none" stroke="#111" stroke-width="1.12" stroke-linecap="round" stroke-linejoin="round"/>
<path d="M 9.72 12.0 L 9.93 12.0 L 10.13 12.0 L 10.34 12.0 L 10.55 12.0 L 10.76 12.0 L 10.97 12.0 L 11.18 12.0 L 11.38 12.0 L 11.59 12.0 L 11.8 12.0 L 12.01 12.0 L 12.22 12.0 L 12.43 12.0 L 12.63 12.0 L 12.84 12.0 L 13.05 12.0 L 13.26 12.0 L 13.47 12.0 L 13.68 12.0 L 13.88 12.0 L 14.09 12.0 L 14.3 12.0 L 14.51 12.0 L 14.72 12.0" fill="none" stroke="#111" stroke-width="1.12" stroke-linecap="round" stroke-linejoin="round"/>
<path d="M 8.72 20.0 L 8.43 20.89 L 8.3 21.81 L 8.32 22.75 L 8.49 23.67 L 8.8 24.55 L 9.26 25.36 L 9.84 26.09 L 10.53 26.72 L 11.32 27.23 L 12.18 27.6 L 13.08 27.82 L 14.01 27.9 L 14.94 27.82 L 15.85 27.6 L 16.71 27.23 L 17.49 26.72 L 18.19 26.09 L 18.77 25.36 L 19.22 24.55 L 19.54 23.67 L 19.71 22.75 L 19.73 21.81 L 19.59 20.89 L 19.31 20.0" fill="none" stroke="#111" stroke-width="1.12" stroke-linecap="round" stroke-linejoin="round"/>
<path d="M 8.72 24.0 L 9.05 23.83 L 9.38 23.67 L 9.72 23.5 L 10.05 23.33 L 10.38 23.17 L 10.72 23.0 L 11.05 22.83 L 11.38 22.67 L 11.72 22.5 L 12.05 22.33 L 12.38 22.17 L 12.72 22.0 L 13.05 21.83 L 13.38 21.67 L 13.72 21.5 L 14.05 21.33 L 14.38 21.17 L 14.72 21.0 L 15.05 20.83 L 15.38 20.67 L 15.72 20.5 L 16.05 20.33 L 16.38 20.17 L 16.72 20.0" fill="none" stroke="#111" stroke-width="1.12" stroke-linecap="round" stroke-linejoin="round"/>
</svg>
