<?xml version="1.0" encoding="UTF-8"?>
<svg xmlns="http://www.w3.org/2000/svg" viewBox="0 0 18.17 38.00">
<path d="M 9.08 5.0 L 9.13 6.21 L 9.17 7.42 L 9.21 8.62 L 9.25 9.83 L 9.29 11.04 L 9.33 12.25 L 9.38 13.46 L 9.42 14.67 L 9.46 15.87 L 9.5 17.08 L 9.54 18.29 L 9.58 19.5 L 9.63 20.71 L 9.67 21.92 L 9.71 23.12 L 9.75 24.33 L 9.79 25.54 L 9.83 26.75 L 9.88 27.96 L 9.92 29.17 L 9.96 30.38 L 10.0 31.58 L 10.04 32.79 L 10.08 34.0" fill="none" stroke="#111" stroke-width="1.33" stroke-linecap="round" stroke-linejoin="round"/>
<path d="M 6.08 5.0 L 7.23 5.71 L 8.32 6.52 L 9.33 7.42 L 10.26 8.4 L 11.11 9.45 L 11.86 10.57 L 12.51 11.76 L 13.06 12.99 L 13.51 14.27 L 13.84 15.58 L 14.06 16.91 L 14.17 18.26 L 14.16 19.61 L 14.04 20.96 L 13.8 22.29 L 13.46 23.6 L 13.0 24.87 L 12.43 26.09 L 11.77 27.27 L 11.0 28.39 L 10.14 29.43 L 9.2 30.4 L 8.18 31.29 L 7.09 32.08" fill="none" stroke="#111" stroke-width="1.33" stroke-linecap="round" stroke-linejoin="round"/>
<path d="M 12.08 4.0 L 11.76 4.55 L 11.44 5.09 L 11.11 5.64 L 10.78 6.19 L 10.46 6.73 L 10.13 7.28 L 9.8 7.82 L 9.47 8.37 L 9.14 8.91 L 8.81 9.45 L 8.48 9.99 L 8.14 10.54 L 7.81 11.08 L 7.48 11.62 L 7.14 12.16 L 6.8 12.7 L 6.47 13.24 L 6.13 13.78 L 5.79 14.32 L 5.45 14.85 L 5.11 15.39 L 4.77 15.93 L 4.43 16.46 L 4.08 17.0 L 4.08 17.0 L 4.02 17.7 L 4.0 18.41 L 4.01 19.12 L 4.06 19.82 L 4.15 20.52 L 4.28 21.22 L 4.44 21.91 L 4.63 22.59 L 4.87 23.26 L 5.13 23.91 L 5.44 24.55 L 5.77 25.17 L 6.14 25.78 L 6.53 26.36 L 6.96 26.92 L 7.42 27.46 L 7.91 27.98 L 8.42 28.47 L 8.95 28.93 L 9.51 29.36 L 10.09 29.76 L 10.7 30.13 L 11.32 30.47 L 11.96 30.77" fill="none" stroke="#111" stroke-width="1.33" stroke-linecap="round" stroke-linejoin="round"/>
<path d="M 13.08 14.0 L 12.71 14.34 L 12.34 14.68 L 11.98 15.02 L 11.62 15.37 L 11.26 15.72 L 10.9 16.08 L 10.55 16.44 L 10.2 16.8 L 9.85 17.16 L 9.51 17.53 L 9.17 17.9 L 8.84 18.28 L 8.51 18.65 L 8.18 19.03 L 7.85 19.42 L 7.53 19.8 L 7.21 20.19 L 6.9 20.58 L 6.59 20.98 L 6.28 21.38 L 5.98 21.78 L 5.68 22.18 L 5.38 22.59 L 5.09 23.0" fill="none" stroke="#111" stroke-width="1.33" stroke-linecap="round" stroke-linejoin="round"/>
<path d="M 6.08 14.0 L 6.38 14.38 L 6.67 14.75 L 6.96 15.12 L 7.25 15.5 L 7.54 15.88 L 7.83 16.25 L 8.13 16.62 L 8.42 17.0 L 8.71 17.38 L 9.0 17.75 L 9.29 18.12 L 9.58 18.5 L 9.88 18.88 L 10.17 19.25 L 10.46 19.62 L 10.75 20.0 L 11.04 20.38 L 11.33 20.75 L 11.63 21.12 L 11.92 21.5 L 12.21 21.88 L 12.5 22.25 L 12.79 22.62 L 13.08 23.0" fill="none" stroke="#111" stroke-width="1.33" stroke-linecap="round" stroke-linejoin="round"/>
</svg>
