<?xml version="1.0" encoding="UTF-8"?>
<svg xmlns="http://www.w3.org/2000/svg" viewBox="0 0 26.54 35.09">
<path d="M 4.44 4.0 L 5.07 4.0 L 5.69 4.0 L 6.32 4.0 L 6.94 4.0 L 7.57 4.0 L 8.19 4.0 L 8.82 4.0 L 9.44 4.0 L 10.07 4.0 L 10.69 4.0 L 11.32 4.0 L 11.94 4.0 L 12.57 4.0 L 13.19 4.0 L 13.82 4.0 L 14.44 4.0 L 15.07 4.0 L 15.69 4.0 L 16.32 4.0 L 16.94 4.0 L 17.57 4.0 L 18.19 4.0 L 18.82 4.0 L 19.44 4.0" fill="none" stroke="#111" stroke-width="1.23" stroke-linecap="round" stroke-linejoin="round"/>
<path d="M 9.44 4.0 L 9.57 4.25 L 9.69 4.5 L 9.82 4.75 L 9.94 5.0 L 10.07 5.25 L 10.19 5.5 L 10.32 5.75 L 10.44 6.0 L 10.57 6.25 L 10.69 6.5 L 10.82 6.75 L 10.94 7.0 L 11.07 7.25 L 11.19 7.5 L 11.32 7.75 L 11.44 8.0 L 11.57 8.25 L 11.69 8.5 L 11.82 8.75 L 11.94 9.0 L 12.07 9.25 L 12.19 9.5 L 12.32 9.75 L 12.44 10.0 L 12.44 10.0 L 12.57 9.75 L 12.69 9.5 L 12.82 9.25 L 12.94 9.0 L 13.07 8.75 L 13.19 8.5 L 13.32 8.25 L 13.44 8.0 L 13.57 7.75 L 13.69 7.5 L 13.82 7.25 L 13.94 7.0 L 14.07 6.75 L 14.19 6.5 L 14.32 6.25 L 14.44 6.0 L 14.57 5.75 L 14.69 5.5 L 14.82 5.25 L 14.94 5.0 L 15.07 4.75 L 15.19 4.5 L 15.32 4.25 L 15.44 4.0" fill="none" stroke="#111" stroke-width="1.23" stroke-linecap="round" stroke-linejoin="round"/>
<path d="M 12.44 10.0 L 12.44 10.58 L 12.44 11.17 L 12.44 11.75 L 12.44 12.33 L 12.44 12.92 L 12.44 13.5 L 12.44 14.08 L 12.44 14.67 L 12.44 15.25 L 12.44 15.83 L 12.44 16.42 L 12.44 17.0 L 12.44 17.58 L 12.44 18.17 L 12.44 18.75 L 12.44 19.33 L 12.44 19.92 L 12.44 20.5 L 12.44 21.08 L 12.44 21.67 L 12.44 22.25 L 12.44 22.83 L 12.44 23.42 L 12.44 24.0" fill="none" stroke="#111" stroke-width="1.23" stroke-linecap="round" stroke-linejoin="round"/>
<path d="M 7.44 10.0 L 7.65 10.21 L 7.86 10.42 L 8.07 10.62 L 8.28 10.83 L 8.49 11.04 L 8.69 11.25 L 8.9 11.46 L 9.11 11.67 L 9.32 11.88 L 9.53 12.08 L 9.74 12.29 L 9.94 12.5 L 10.15 12.71 L 10.36 12.92 L 10.57 13.12 L 10.78 13.33 L 10.99 13.54 L 11.19 13.75 L 11.4 13.96 L 11.61 14.17 L 11.82 14.38 L 12.03 14.58 L 12.24 14.79 L 12.44 15.0 L 12.44 15.0 L 12.61 14.79 L 12.78 14.58 L 12.94 14.38 L 13.11 14.17 L 13.28 13.96 L 13.44 13.75 L 13.61 13.54 L 13.78 13.33 L 13.94 13.12 L 14.11 12.92 L 14.28 12.71 L 14.44 12.5 L 14.61 12.29 L 14.78 12.08 L 14.94 11.88 L 15.11 11.67 L 15.28 11.46 L 15.44 11.25 L 15.61 11.04 L 15.78 10.83 L 15.94 10.62 L 16.11 10.42 L 16.28 10.21 L 16.44 10.0" fill="none" stroke="#111" stroke-width="1.23" stroke-linecap="round" stroke-linejoin="round"/>
<path d="M 4.44 19.0 L 4.1 20.46 L 4.0 21.96 L 4.14 23.46 L 4.53 24.92 L 5.14 26.29 L 5.97 27.55 L 6.98 28.65 L 8.17 29.58 L 9.49 30.3 L 10.91 30.8 L 12.39 31.07 L 13.89 31.09 L 15.38 30.87 L 16.81 30.41 L 18.15 29.72 L 19.36 28.83 L 20.41 27.76 L 21.27 26.53 L 21.93 25.17 L 22.35 23.73 L 22.54 22.24 L 22.48 20.73 L 22.18 19.26 L 21.65 17.85" fill="none" stroke="#111" stroke-width="1.23" stroke-linecap="round" stroke-linejoin="round"/>
<path d="M 4.44 24.0 L 5.07 24.0 L 5.69 24.0 L 6.32 24.0 L 6.94 24.0 L 7.57 24.0 L 8.19 24.0 L 8.82 24.0 L 9.44 24.0 L 10.07 24.0 L 10.69 24.0 L 11.32 24.0 L 11.94 24.0 L 12.57 24.0 L 13.19 24.0 L 13.82 24.0 L 14.44 24.0 L 15.07 24.0 L 15.69 24.0 L 16.32 24.0 L 16.94 24.0 L 17.57 24.0 L 18.19 24.0 L 18.82 24.0 L 19.44 24.0" fill="none" stroke="#111" stroke-width="1.23" stroke-linecap="round" stroke-linejoin="round"/>
</svg>
