<?xml version="1.0" encoding="UTF-8"?>
<svg xmlns="http://www.w3.org/2000/svg" viewBox="0 0 28.31 37.79">
<path d="M 7.31 5.0 L 7.18 5.56 L 7.08 6.12 L 6.98 6.68 L 6.9 7.25 L 6.84 7.82 L 6.79 8.39 L 6.75 8.96 L 6.73 9.53 L 6.72 10.1 L 6.73 10.68 L 6.75 11.25 L 6.79 11.82 L 6.84 12.39 L 6.91 12.96 L 6.99 13.52 L 7.08 14.09 L 7.19 14.65 L 7.31 15.21 L 7.45 15.76 L 7.6 16.31 L 7.77 16.86 L 7.94 17.4 L 8.14 17.94 L 8.34 18.48 L 8.31 18.0 L 7.76 18.3 L 7.25 18.64 L 6.76 19.02 L 6.3 19.44 L 5.88 19.89 L 5.5 20.38 L 5.15 20.9 L 4.85 21.44 L 4.59 22.0 L 4.38 22.58 L 4.21 23.18 L 4.09 23.79 L 4.02 24.4 L 4.0 25.02 L 4.03 25.64 L 4.11 26.25 L 4.23 26.86 L 4.41 27.46 L 4.63 28.04 L 4.89 28.59 L 5.2 29.13 L 5.55 29.64 L 5.95 30.12 L 6.37 30.57" fill="none" stroke="#111" stroke-width="1.32" stroke-linecap="round" stroke-linejoin="round"/>
<path d="M 5.31 7.0 L 4.86 7.61 L 4.53 8.29 L 4.34 9.02 L 4.3 9.77 L 4.4 10.52 L 4.63 11.24 L 5.01 11.89 L 5.5 12.47 L 6.09 12.94 L 6.76 13.29 L 7.48 13.5 L 8.23 13.57 L 8.98 13.5 L 9.71 13.29 L 10.38 12.94 L 10.97 12.47 L 11.46 11.89 L 11.83 11.24 L 12.07 10.52 L 12.17 9.77 L 12.12 9.02 L 11.93 8.29 L 11.61 7.61 L 11.16 7.0" fill="none" stroke="#111" stroke-width="1.32" stroke-linecap="round" stroke-linejoin="round"/>
<path d="M 12.31 13.0 L 12.22 13.17 L 12.14 13.33 L 12.06 13.5 L 11.97 13.67 L 11.89 13.83 L 11.81 14.0 L 11.72 14.17 L 11.64 14.33 L 11.56 14.5 L 11.47 14.67 L 11.39 14.83 L 11.31 15.0 L 11.22 15.17 L 11.14 15.33 L 11.06 15.5 L 10.97 15.67 L 10.89 15.83 L 10.81 16.0 L 10.72 16.17 L 10.64 16.33 L 10.56 16.5 L 10.47 16.67 L 10.39 16.83 L 10.31 17.0" fill="none" stroke="#111" stroke-width="1.32" stroke-linecap="round" stroke-linejoin="round"/>
<path d="M 21.31 4.0 L 20.99 4.7 L 20.71 5.41 L 20.44 6.14 L 20.21 6.87 L 20.0 7.61 L 19.82 8.36 L 19.67 9.11 L 19.54 9.87 L 19.44 10.63 L 19.37 11.39 L 19.33 12.16 L 19.32 12.93 L 19.33 13.7 L 19.37 14.46 L 19.44 15.23 L 19.54 15.99 L 19.67 16.75 L 19.82 17.5 L 20.0 18.25 L 20.21 18.99 L 20.44 19.72 L 20.71 20.44 L 20.99 21.16 L 21.31 21.86 L 21.31 22.0 L 20.9 22.36 L 20.51 22.74 L 20.15 23.13 L 19.8 23.55 L 19.48 23.99 L 19.18 24.44 L 18.9 24.9 L 18.65 25.38 L 18.43 25.88 L 18.23 26.38 L 18.05 26.89 L 17.91 27.42 L 17.79 27.94 L 17.7 28.48 L 17.64 29.02 L 17.61 29.56 L 17.6 30.1 L 17.63 30.64 L 17.68 31.18 L 17.76 31.71 L 17.87 32.24 L 18.0 32.77 L 18.17 33.29 L 18.36 33.79" fill="none" stroke="#111" stroke-width="1.32" stroke-linecap="round" stroke-linejoin="round"/>
<path d="M 16.31 4.0 L 16.47 4.21 L 16.64 4.42 L 16.81 4.62 L 16.97 4.83 L 17.14 5.04 L 17.31 5.25 L 17.47 5.46 L 17.64 5.67 L 17.81 5.88 L 17.97 6.08 L 18.14 6.29 L 18.31 6.5 L 18.47 6.71 L 18.64 6.92 L 18.81 7.12 L 18.97 7.33 L 19.14 7.54 L 19.31 7.75 L 19.47 7.96 L 19.64 8.17 L 19.81 8.38 L 19.97 8.58 L 20.14 8.79 L 20.31 9.0" fill="none" stroke="#111" stroke-width="1.32" stroke-linecap="round" stroke-linejoin="round"/>
<path d="M 19.31 8.0 L 19.06 8.38 L 18.81 8.75 L 18.56 9.12 L 18.31 9.5 L 18.06 9.88 L 17.81 10.25 L 17.56 10.62 L 17.31 11.0 L 17.06 11.38 L 16.81 11.75 L 16.56 12.12 L 16.31 12.5 L 16.06 12.88 L 15.81 13.25 L 15.56 13.63 L 15.31 14.0 L 15.06 14.38 L 14.81 14.75 L 14.56 15.13 L 14.31 15.5 L 14.06 15.88 L 13.81 16.25 L 13.56 16.62 L 13.31 17.0" fill="none" stroke="#111" stroke-width="1.32" stroke-linecap="round" stroke-linejoin="round"/>
<path d="M 15.31 7.0 L 15.31 7.29 L 15.31 7.58 L 15.31 7.88 L 15.31 8.17 L 15.31 8.46 L 15.31 8.75 L 15.31 9.04 L 15.31 9.33 L 15.31 9.62 L 15.31 9.92 L 15.31 10.21 L 15.31 10.5 L 15.31 10.79 L 15.31 11.08 L 15.31 11.38 L 15.31 11.67 L 15.31 11.96 L 15.31 12.25 L 15.31 12.54 L 15.31 12.83 L 15.31 13.12 L 15.31 13.42 L 15.31 13.71 L 15.31 14.0 L 15.31 14.0 L 15.39 14.08 L 15.47 14.17 L 15.56 14.25 L 15.64 14.33 L 15.72 14.42 L 15.81 14.5 L 15.89 14.58 L 15.97 14.67 L 16.06 14.75 L 16.14 14.83 L 16.22 14.92 L 16.31 15.0 L 16.39 15.08 L 16.47 15.17 L 16.56 15.25 L 16.64 15.33 L 16.72 15.42 L 16.81 15.5 L 16.89 15.58 L 16.97 15.67 L 17.06 15.75 L 17.14 15.83 L 17.22 15.92 L 17.31 16.0" fill="none" stroke="#111" stroke-width="1.32" stroke-linecap="round" stroke-linejoin="round"/>
<path d="M 13.31 17.0 L 13.26 17.32 L 13.18 17.63 L 13.08 17.93 L 12.94 18.23 L 12.78 18.5 L 12.59 18.77 L 12.38 19.01 L 12.14 19.23 L 11.89 19.42 L 11.61 19.6 L 11.33 19.74 L 11.03 19.86 L 10.72 19.94 L 10.4 20.0 L 10.08 20.03 L 9.76 20.02 L 9.44 19.99 L 9.12 19.92 L 8.82 19.83 L 8.52 19.7 L 8.23 19.55 L 7.97 19.37 L 7.72 19.17 L 7.49 18.94" fill="none" stroke="#111" stroke-width="1.32" stroke-linecap="round" stroke-linejoin="round"/>
<path d="M 13.31 17.0 L 13.39 17.12 L 13.47 17.25 L 13.56 17.38 L 13.64 17.5 L 13.72 17.62 L 13.81 17.75 L 13.89 17.88 L 13.97 18.0 L 14.06 18.12 L 14.14 18.25 L 14.22 18.38 L 14.31 18.5 L 14.39 18.62 L 14.47 18.75 L 14.56 18.88 L 14.64 19.0 L 14.72 19.12 L 14.81 19.25 L 14.89 19.38 L 14.97 19.5 L 15.06 19.62 L 15.14 19.75 L 15.22 19.88 L 15.31 20.0 L 15.31 20.0 L 15.47 19.83 L 15.64 19.67 L 15.81 19.5 L 15.97 19.33 L 16.14 19.17 L 16.31 19.0 L 16.47 18.83 L 16.64 18.67 L 16.81 18.5 L 16.97 18.33 L 17.14 18.17 L 17.31 18.0 L 17.47 17.83 L 17.64 17.67 L 17.81 17.5 L 17.97 17.33 L 18.14 17.17 L 18.31 17.0 L 18.47 16.83 L 18.64 16.67 L 18.81 16.5 L 18.97 16.33 L 19.14 16.17 L 19.31 16.0" fill="none" stroke="#111" stroke-width="1.32" stroke-linecap="round" stroke-linejoin="round"/>
<path d="M 13.31 17.0 L 13.18 16.88 L 13.06 16.75 L 12.93 16.62 L 12.81 16.5 L 12.68 16.38 L 12.56 16.25 L 12.43 16.12 L 12.31 16.0 L 12.18 15.88 L 12.06 15.75 L 11.93 15.62 L 11.81 15.5 L 11.68 15.38 L 11.56 15.25 L 11.43 15.12 L 11.31 15.0 L 11.18 14.88 L 11.06 14.75 L 10.93 14.62 L 10.81 14.5 L 10.68 14.38 L 10.56 14.25 L 10.43 14.12 L 10.31 14.0" fill="none" stroke="#111" stroke-width="1.32" stroke-linecap="round" stroke-linejoin="round"/>
<path d="M 20.31 9.0 L 20.47 8.88 L 20.64 8.75 L 20.81 8.62 L 20.97 8.5 L 21.14 8.38 L 21.31 8.25 L 21.47 8.12 L 21.64 8.0 L 21.81 7.88 L 21.97 7.75 L 22.14 7.62 L 22.31 7.5 L 22.47 7.38 L 22.64 7.25 L 22.81 7.12 L 22.97 7.0 L 23.14 6.88 L 23.31 6.75 L 23.47 6.62 L 23.64 6.5 L 23.81 6.38 L 23.97 6.25 L 24.14 6.12 L 24.31 6.0" fill="none" stroke="#111" stroke-width="1.32" stroke-linecap="round" stroke-linejoin="round"/>
</svg>
