<?xml version="1.0" encoding="UTF-8"?>
<svg xmlns="http://www.w3.org/2000/svg" viewBox="0 0 31.00 36.73">
<path d="M 4.0 15.0 L 4.96 14.96 L 5.92 14.92 L 6.88 14.88 L 7.83 14.83 L 8.79 14.79 L 9.75 14.75 L 10.71 14.71 L 11.67 14.67 L 12.62 14.62 L 13.58 14.58 L 14.54 14.54 L 15.5 14.5 L 16.46 14.46 L 17.42 14.42 L 18.38 14.38 L 19.33 14.33 L 20.29 14.29 L 21.25 14.25 L 22.21 14.21 L 23.17 14.17 L 24.12 14.12 L 25.08 14.08 L 26.04 14.04 L 27.0 14.0" fill="none" stroke="#111" stroke-width="1.29" stroke-linecap="round" stroke-linejoin="round"/>
<path d="M 12.0 4.0 L 12.12 4.29 L 12.25 4.58 L 12.38 4.88 L 12.5 5.17 L 12.62 5.46 L 12.75 5.75 L 12.88 6.04 L 13.0 6.33 L 13.12 6.62 L 13.25 6.92 L 13.38 7.21 L 13.5 7.5 L 13.62 7.79 L 13.75 8.08 L 13.88 8.38 L 14.0 8.67 L 14.12 8.96 L 14.25 9.25 L 14.38 9.54 L 14.5 9.83 L 14.62 10.12 L 14.75 10.42 L 14.88 10.71 L 15.0 11.0" fill="none" stroke="#111" stroke-width="1.29" stroke-linecap="round" stroke-linejoin="round"/>
<path d="M 6.0 5.0 L 6.12 5.21 L 6.25 5.42 L 6.38 5.62 L 6.5 5.83 L 6.62 6.04 L 6.75 6.25 L 6.88 6.46 L 7.0 6.67 L 7.12 6.88 L 7.25 7.08 L 7.38 7.29 L 7.5 7.5 L 7.62 7.71 L 7.75 7.92 L 7.88 8.12 L 8.0 8.33 L 8.12 8.54 L 8.25 8.75 L 8.38 8.96 L 8.5 9.17 L 8.62 9.38 L 8.75 9.58 L 8.88 9.79 L 9.0 10.0" fill="none" stroke="#111" stroke-width="1.29" stroke-linecap="round" stroke-linejoin="round"/>
<path d="M 19.0 5.0 L 19.08 5.21 L 19.17 5.42 L 19.25 5.62 L 19.33 5.83 L 19.42 6.04 L 19.5 6.25 L 19.58 6.46 L 19.67 6.67 L 19.75 6.88 L 19.83 7.08 L 19.92 7.29 L 20.0 7.5 L 20.08 7.71 L 20.17 7.92 L 20.25 8.12 L 20.33 8.33 L 20.42 8.54 L 20.5 8.75 L 20.58 8.96 L 20.67 9.17 L 20.75 9.38 L 20.83 9.58 L 20.92 9.79 L 21.0 10.0" fill="none" stroke="#111" stroke-width="1.29" stroke-linecap="round" stroke-linejoin="round"/>
<path d="M 15.0 14.0 L 15.32 14.76 L 15.61 15.53 L 15.87 16.31 L 16.09 17.1 L 16.28 17.9 L 16.43 18.71 L 16.54 19.53 L 16.62 20.34 L 16.66 21.17 L 16.66 21.99 L 16.63 22.81 L 16.56 23.63 L 16.46 24.45 L 16.32 25.26 L 16.14 26.06 L 15.93 26.86 L 15.69 27.64 L 15.4 28.41 L 15.09 29.17 L 14.74 29.92 L 14.36 30.65 L 13.95 31.36 L 13.5 32.05 L 13.03 32.73" fill="none" stroke="#111" stroke-width="1.29" stroke-linecap="round" stroke-linejoin="round"/>
</svg>
