<?xml version="1.0" encoding="UTF-8"?>
<svg xmlns="http://www.w3.org/2000/svg" viewBox="0 0 28.00 37.71">
<path d="M 5.0 10.0 L 5.38 10.0 L 5.75 10.0 L 6.12 10.0 L 6.5 10.0 L 6.88 10.0 L 7.25 10.0 L 7.62 10.0 L 8.0 10.0 L 8.38 10.0 L 8.75 10.0 L 9.12 10.0 L 9.5 10.0 L 9.88 10.0 L 10.25 10.0 L 10.62 10.0 L 11.0 10.0 L 11.38 10.0 L 11.75 10.0 L 12.12 10.0 L 12.5 10.0 L 12.88 10.0 L 13.25 10.0 L 13.62 10.0 L 14.0 10.0" fill="none" stroke="#111" stroke-width="1.32" stroke-linecap="round" stroke-linejoin="round"/>
<path d="M 5.0 14.0 L 5.38 14.0 L 5.75 14.0 L 6.12 14.0 L 6.5 14.0 L 6.88 14.0 L 7.25 14.0 L 7.62 14.0 L 8.0 14.0 L 8.38 14.0 L 8.75 14.0 L 9.12 14.0 L 9.5 14.0 L 9.88 14.0 L 10.25 14.0 L 10.62 14.0 L 11.0 14.0 L 11.38 14.0 L 11.75 14.0 L 12.12 14.0 L 12.5 14.0 L 12.88 14.0 L 13.25 14.0 L 13.62 14.0 L 14.0 14.0" fill="none" stroke="#111" stroke-width="1.32" stroke-linecap="round" stroke-linejoin="round"/>
<path d="M 5.0 10.0 L 5.0 10.17 L 5.0 10.33 L 5.0 10.5 L 5.0 10.67 L 5.0 10.83 L 5.0 11.0 L 5.0 11.17 L 5.0 11.33 L 5.0 11.5 L 5.0 11.67 L 5.0 11.83 L 5.0 12.0 L 5.0 12.17 L 5.0 12.33 L 5.0 12.5 L 5.0 12.67 L 5.0 12.83 L 5.0 13.0 L 5.0 13.17 L 5.0 13.33 L 5.0 13.5 L 5.0 13.67 L 5.0 13.83 L 5.0 14.0" fill="none" stroke="#111" stroke-width="1.32" stroke-linecap="round" stroke-linejoin="round"/>
<path d="M 14.0 10.0 L 14.0 10.17 L 14.0 10.33 L 14.0 10.5 L 14.0 10.67 L 14.0 10.83 L 14.0 11.0 L 14.0 11.17 L 14.0 11.33 L 14.0 11.5 L 14.0 11.67 L 14.0 11.83 L 14.0 12.0 L 14.0 12.17 L 14.0 12.33 L 14.0 12.5 L 14.0 12.67 L 14.0 12.83 L 14.0 13.0 L 14.0 13.17 L 14.0 13.33 L 14.0 13.5 L 14.0 13.67 L 14.0 13.83 L 14.0 14.0" fill="none" stroke="#111" stroke-width="1.32" stroke-linecap="round" stroke-linejoin="round"/>
<path d="M 4.0 7.0 L 4.46 7.0 L 4.92 7.0 L 5.38 7.0 L 5.83 7.0 L 6.29 7.0 L 6.75 7.0 L 7.21 7.0 L 7.67 7.0 L 8.12 7.0 L 8.58 7.0 L 9.04 7.0 L 9.5 7.0 L 9.96 7.0 L 10.42 7.0 L 10.88 7.0 L 11.33 7.0 L 11.79 7.0 L 12.25 7.0 L 12.71 7.0 L 13.17 7.0 L 13.62 7.0 L 14.08 7.0 L 14.54 7.0 L 15.0 7.0" fill="none" stroke="#111" stroke-width="1.32" stroke-linecap="round" stroke-linejoin="round"/>
<path d="M 12.0 4.0 L 11.88 4.0 L 11.75 4.0 L 11.62 4.0 L 11.5 4.0 L 11.38 4.0 L 11.25 4.0 L 11.12 4.0 L 11.0 4.0 L 10.88 4.0 L 10.75 4.0 L 10.62 4.0 L 10.5 4.0 L 10.38 4.0 L 10.25 4.0 L 10.12 4.0 L 10.0 4.0 L 9.88 4.0 L 9.75 4.0 L 9.62 4.0 L 9.5 4.0 L 9.38 4.0 L 9.25 4.0 L 9.12 4.0 L 9.0 4.0 L 9.0 4.0 L 9.0 4.67 L 9.0 5.33 L 9.0 6.0 L 9.0 6.67 L 9.0 7.33 L 9.0 8.0 L 9.0 8.67 L 9.0 9.33 L 9.0 10.0 L 9.0 10.67 L 9.0 11.33 L 9.0 12.0 L 9.0 12.67 L 9.0 13.33 L 9.0 14.0 L 9.0 14.67 L 9.0 15.33 L 9.0 16.0 L 9.0 16.67 L 9.0 17.33 L 9.0 18.0 L 9.0 18.67 L 9.0 19.33 L 9.0 20.0 L 9.0 20.0 L 8.88 20.0 L 8.75 20.0 L 8.62 20.0 L 8.5 20.0 L 8.38 20.0 L 8.25 20.0 L 8.12 20.0 L 8.0 20.0 L 7.88 20.0 L 7.75 20.0 L 7.62 20.0 L 7.5 20.0 L 7.38 20.0 L 7.25 20.0 L 7.12 20.0 L 7.0 20.0 L 6.88 20.0 L 6.75 20.0 L 6.62 20.0 L 6.5 20.0 L 6.38 20.0 L 6.25 20.0 L 6.12 20.0 L 6.0 20.0" fill="none" stroke="#111" stroke-width="1.32" stroke-linecap="round" stroke-linejoin="round"/>
<path d="M 4.0 17.0 L 4.42 17.0 L 4.83 17.0 L 5.25 17.0 L 5.67 17.0 L 6.08 17.0 L 6.5 17.0 L 6.92 17.0 L 7.33 17.0 L 7.75 17.0 L 8.17 17.0 L 8.58 17.0 L 9.0 17.0 L 9.42 17.0 L 9.83 17.0 L 10.25 17.0 L 10.67 17.0 L 11.08 17.0 L 11.5 17.0 L 11.92 17.0 L 12.33 17.0 L 12.75 17.0 L 13.17 17.0 L 13.58 17.0 L 14.0 17.0" fill="none" stroke="#111" stroke-width="1.32" stroke-linecap="round" stroke-linejoin="round"/>
<path d="M 11.0 22.0 L 11.54 22.0 L 12.08 22.0 L 12.62 22.0 L 13.17 22.0 L 13.71 22.0 L 14.25 22.0 L 14.79 22.0 L 15.33 22.0 L 15.88 22.0 L 16.42 22.0 L 16.96 22.0 L 17.5 22.0 L 18.04 22.0 L 18.58 22.0 L 19.12 22.0 L 19.67 22.0 L 20.21 22.0 L 20.75 22.0 L 21.29 22.0 L 21.83 22.0 L 22.38 22.0 L 22.92 22.0 L 23.46 22.0 L 24.0 22.0" fill="none" stroke="#111" stroke-width="1.32" stroke-linecap="round" stroke-linejoin="round"/>
<path d="M 14.0 25.0 L 14.0 25.21 L 14.0 25.42 L 14.0 25.62 L 14.0 25.83 L 14.0 26.04 L 14.0 26.25 L 14.0 26.46 L 14.0 26.67 L 14.0 26.88 L 14.0 27.08 L 14.0 27.29 L 14.0 27.5 L 14.0 27.71 L 14.0 27.92 L 14.0 28.12 L 14.0 28.33 L 14.0 28.54 L 14.0 28.75 L 14.0 28.96 L 14.0 29.17 L 14.0 29.38 L 14.0 29.58 L 14.0 29.79 L 14.0 30.0" fill="none" stroke="#111" stroke-width="1.32" stroke-linecap="round" stroke-linejoin="round"/>
<path d="M 14.0 25.0 L 14.7 24.55 L 15.47 24.24 L 16.29 24.07 L 17.12 24.06 L 17.94 24.2 L 18.72 24.5 L 19.43 24.93 L 20.05 25.49 L 20.55 26.15 L 20.93 26.89 L 21.16 27.69 L 21.23 28.52 L 21.16 29.35 L 20.93 30.15 L 20.55 30.89 L 20.05 31.55 L 19.43 32.11 L 18.72 32.54 L 17.94 32.83 L 17.12 32.98 L 16.29 32.97 L 15.47 32.8 L 14.7 32.49 L 14.0 32.04" fill="none" stroke="#111" stroke-width="1.32" stroke-linecap="round" stroke-linejoin="round"/>
<path d="M 21.0 19.0 L 20.24 19.21 L 19.5 19.49 L 18.79 19.84 L 18.12 20.26 L 17.49 20.75 L 16.91 21.29 L 16.39 21.88 L 15.93 22.52 L 15.53 23.21 L 15.2 23.93 L 14.95 24.68 L 14.76 25.45 L 14.65 26.23 L 14.62 27.02 L 14.67 27.81 L 14.79 28.59 L 14.99 29.36 L 15.26 30.1 L 15.6 30.82 L 16.01 31.49 L 16.49 32.13 L 17.02 32.71 L 17.61 33.24 L 18.24 33.71" fill="none" stroke="#111" stroke-width="1.32" stroke-linecap="round" stroke-linejoin="round"/>
<path d="M 18.0 32.0 L 18.21 32.0 L 18.42 32.0 L 18.62 32.0 L 18.83 32.0 L 19.04 32.0 L 19.25 32.0 L 19.46 32.0 L 19.67 32.0 L 19.88 32.0 L 20.08 32.0 L 20.29 32.0 L 20.5 32.0 L 20.71 32.0 L 20.92 32.0 L 21.12 32.0 L 21.33 32.0 L 21.54 32.0 L 21.75 32.0 L 21.96 32.0 L 22.17 32.0 L 22.38 32.0 L 22.58 32.0 L 22.79 32.0 L 23.0 32.0" fill="none" stroke="#111" stroke-width="1.32" stroke-linecap="round" stroke-linejoin="round"/>
<path d="M 14.0 29.0 L 14.0 29.12 L 14.0 29.25 L 14.0 29.38 L 14.0 29.5 L 14.0 29.62 L 14.0 29.75 L 14.0 29.88 L 14.0 30.0 L 14.0 30.12 L 14.0 30.25 L 14.0 30.38 L 14.0 30.5 L 14.0 30.62 L 14.0 30.75 L 14.0 30.88 L 14.0 31.0 L 14.0 31.12 L 14.0 31.25 L 14.0 31.38 L 14.0 31.5 L 14.0 31.62 L 14.0 31.75 L 14.0 31.88 L 14.0 32.0" fill="none" stroke="#111" stroke-width="1.32" stroke-linecap="round" stroke-linejoin="round"/>
</svg>
