<?xml version="1.0" encoding="UTF-8"?>
<svg xmlns="http://www.w3.org/2000/svg" viewBox="0 0 23.01 32.00">
<path d="M 8.65 4.0 L 8.29 4.49 L 7.98 5.02 L 7.73 5.57 L 7.54 6.15 L 7.4 6.74 L 7.33 7.34 L 7.32 7.95 L 7.37 8.56 L 7.48 9.16 L 7.65 9.74 L 7.88 10.3 L 8.16 10.84 L 8.5 11.34 L 8.89 11.81 L 9.33 12.24 L 9.8 12.62 L 10.31 12.95 L 10.86 13.22 L 11.42 13.44 L 12.01 13.6 L 12.61 13.7 L 13.22 13.74 L 13.82 13.72 L 14.43 13.63 L 14.65 14.0 L 15.01 13.73 L 15.35 13.43 L 15.67 13.11 L 15.97 12.78 L 16.25 12.42 L 16.5 12.05 L 16.74 11.66 L 16.94 11.26 L 17.13 10.85 L 17.28 10.43 L 17.41 10.0 L 17.52 9.56 L 17.59 9.11 L 17.64 8.66 L 17.65 8.21 L 17.65 7.76 L 17.61 7.31 L 17.54 6.86 L 17.45 6.42 L 17.33 5.99 L 17.18 5.56 L 17.0 5.15 L 16.8 4.74 L 16.58 4.35" fill="none" stroke="#111" stroke-width="1.12" stroke-linecap="round" stroke-linejoin="round"/>
<path d="M 8.65 9.0 L 8.98 9.0 L 9.32 9.0 L 9.65 9.0 L 9.98 9.0 L 10.32 9.0 L 10.65 9.0 L 10.98 9.0 L 11.32 9.0 L 11.65 9.0 L 11.98 9.0 L 12.32 9.0 L 12.65 9.0 L 12.98 9.0 L 13.32 9.0 L 13.65 9.0 L 13.98 9.0 L 14.32 9.0 L 14.65 9.0 L 14.98 9.0 L 15.32 9.0 L 15.65 9.0 L 15.98 9.0 L 16.32 9.0 L 16.65 9.0" fill="none" stroke="#111" stroke-width="1.12" stroke-linecap="round" stroke-linejoin="round"/>
<path d="M 10.65 13.0 L 10.57 13.58 L 10.48 14.17 L 10.4 14.75 L 10.32 15.33 L 10.23 15.92 L 10.15 16.5 L 10.07 17.08 L 9.98 17.67 L 9.9 18.25 L 9.82 18.83 L 9.73 19.42 L 9.65 20.0 L 9.57 20.58 L 9.48 21.17 L 9.4 21.75 L 9.32 22.33 L 9.23 22.92 L 9.15 23.5 L 9.07 24.08 L 8.98 24.67 L 8.9 25.25 L 8.82 25.83 L 8.73 26.42 L 8.65 27.0" fill="none" stroke="#111" stroke-width="1.12" stroke-linecap="round" stroke-linejoin="round"/>
<path d="M 13.65 14.0 L 13.69 14.54 L 13.73 15.08 L 13.77 15.62 L 13.82 16.17 L 13.86 16.71 L 13.9 17.25 L 13.94 17.79 L 13.98 18.33 L 14.02 18.88 L 14.07 19.42 L 14.11 19.96 L 14.15 20.5 L 14.19 21.04 L 14.23 21.58 L 14.27 22.12 L 14.32 22.67 L 14.36 23.21 L 14.4 23.75 L 14.44 24.29 L 14.48 24.83 L 14.52 25.38 L 14.57 25.92 L 14.61 26.46 L 14.65 27.0" fill="none" stroke="#111" stroke-width="1.12" stroke-linecap="round" stroke-linejoin="round"/>
<path d="M 4.65 28.0 L 5.23 27.96 L 5.82 27.92 L 6.4 27.88 L 6.98 27.83 L 7.57 27.79 L 8.15 27.75 L 8.73 27.71 L 9.32 27.67 L 9.9 27.62 L 10.48 27.58 L 11.07 27.54 L 11.65 27.5 L 12.23 27.46 L 12.82 27.42 L 13.4 27.38 L 13.98 27.33 L 14.57 27.29 L 15.15 27.25 L 15.73 27.21 L 16.32 27.17 L 16.9 27.12 L 17.48 27.08 L 18.07 27.04 L 18.65 27.0" fill="none" stroke="#111" stroke-width="1.12" stroke-linecap="round" stroke-linejoin="round"/>
<path d="M 8.65 11.0 L 8.16 11.46 L 7.69 11.95 L 7.24 12.46 L 6.82 12.99 L 6.43 13.53 L 6.06 14.1 L 5.72 14.69 L 5.41 15.29 L 5.13 15.9 L 4.88 16.53 L 4.66 17.16 L 4.47 17.81 L 4.31 18.47 L 4.19 19.13 L 4.09 19.8 L 4.03 20.47 L 4.0 21.15 L 4.0 21.82 L 4.04 22.5 L 4.11 23.17 L 4.21 23.84 L 4.34 24.5 L 4.51 25.16 L 4.7 25.8" fill="none" stroke="#111" stroke-width="1.12" stroke-linecap="round" stroke-linejoin="round"/>
<path d="M 5.65 9.0 L 5.54 9.34 L 5.45 9.69 L 5.37 10.04 L 5.31 10.39 L 5.27 10.75 L 5.25 11.11 L 5.24 11.46 L 5.25 11.82 L 5.28 12.18 L 5.32 12.54 L 5.38 12.89 L 5.46 13.24 L 5.56 13.58 L 5.67 13.93 L 5.8 14.26 L 5.94 14.59 L 6.1 14.91 L 6.28 15.22 L 6.47 15.53 L 6.67 15.82 L 6.89 16.1 L 7.12 16.38 L 7.36 16.64 L 7.62 16.89" fill="none" stroke="#111" stroke-width="1.12" stroke-linecap="round" stroke-linejoin="round"/>
<path d="M 16.65 12.0 L 16.83 12.26 L 16.99 12.54 L 17.13 12.82 L 17.25 13.12 L 17.36 13.42 L 17.44 13.72 L 17.51 14.03 L 17.55 14.35 L 17.58 14.67 L 17.58 14.98 L 17.57 15.3 L 17.53 15.62 L 17.48 15.93 L 17.4 16.24 L 17.31 16.54 L 17.2 16.84 L 17.06 17.13 L 16.91 17.41 L 16.75 17.68 L 16.56 17.94 L 16.36 18.19 L 16.15 18.42 L 15.92 18.64 L 15.67 18.84" fill="none" stroke="#111" stroke-width="1.12" stroke-linecap="round" stroke-linejoin="round"/>
<path d="M 15.65 14.0 L 16.0 14.35 L 16.32 14.72 L 16.64 15.1 L 16.93 15.49 L 17.21 15.9 L 17.47 16.32 L 17.71 16.75 L 17.94 17.19 L 18.14 17.64 L 18.32 18.1 L 18.48 18.56 L 18.62 19.03 L 18.74 19.51 L 18.84 20.0 L 18.91 20.48 L 18.97 20.97 L 19.0 21.46 L 19.01 21.96 L 19.0 22.45 L 18.97 22.94 L 18.91 23.43 L 18.83 23.92 L 18.74 24.4 L 18.62 24.88" fill="none" stroke="#111" stroke-width="1.12" stroke-linecap="round" stroke-linejoin="round"/>
</svg>
