<?xml version="1.0" encoding="UTF-8"?>
<svg xmlns="http://www.w3.org/2000/svg" viewBox="0 0 22.21 38.00">
<path d="M 9.0 6.0 L 9.0 6.38 L 9.0 6.75 L 9.0 7.12 L 9.0 7.5 L 9.0 7.88 L 9.0 8.25 L 9.0 8.62 L 9.0 9.0 L 9.0 9.38 L 9.0 9.75 L 9.0 10.12 L 9.0 10.5 L 9.0 10.88 L 9.0 11.25 L 9.0 11.62 L 9.0 12.0 L 9.0 12.38 L 9.0 12.75 L 9.0 13.12 L 9.0 13.5 L 9.0 13.88 L 9.0 14.25 L 9.0 14.62 L 9.0 15.0" fill="none" stroke="#111" stroke-width="1.33" stroke-linecap="round" stroke-linejoin="round"/>
<path d="M 13.0 4.0 L 12.83 4.17 L 12.67 4.33 L 12.5 4.5 L 12.33 4.67 L 12.17 4.83 L 12.0 5.0 L 11.83 5.17 L 11.67 5.33 L 11.5 5.5 L 11.33 5.67 L 11.17 5.83 L 11.0 6.0 L 10.83 6.17 L 10.67 6.33 L 10.5 6.5 L 10.33 6.67 L 10.17 6.83 L 10.0 7.0 L 9.83 7.17 L 9.67 7.33 L 9.5 7.5 L 9.33 7.67 L 9.17 7.83 L 9.0 8.0" fill="none" stroke="#111" stroke-width="1.33" stroke-linecap="round" stroke-linejoin="round"/>
<path d="M 5.0 15.0 L 5.29 14.96 L 5.58 14.92 L 5.88 14.88 L 6.17 14.83 L 6.46 14.79 L 6.75 14.75 L 7.04 14.71 L 7.33 14.67 L 7.62 14.62 L 7.92 14.58 L 8.21 14.54 L 8.5 14.5 L 8.79 14.46 L 9.08 14.42 L 9.38 14.38 L 9.67 14.33 L 9.96 14.29 L 10.25 14.25 L 10.54 14.21 L 10.83 14.17 L 11.12 14.12 L 11.42 14.08 L 11.71 14.04 L 12.0 14.0" fill="none" stroke="#111" stroke-width="1.33" stroke-linecap="round" stroke-linejoin="round"/>
<path d="M 7.0 15.0 L 7.0 15.17 L 7.0 15.33 L 7.0 15.5 L 7.0 15.67 L 7.0 15.83 L 7.0 16.0 L 7.0 16.17 L 7.0 16.33 L 7.0 16.5 L 7.0 16.67 L 7.0 16.83 L 7.0 17.0 L 7.0 17.17 L 7.0 17.33 L 7.0 17.5 L 7.0 17.67 L 7.0 17.83 L 7.0 18.0 L 7.0 18.17 L 7.0 18.33 L 7.0 18.5 L 7.0 18.67 L 7.0 18.83 L 7.0 19.0" fill="none" stroke="#111" stroke-width="1.33" stroke-linecap="round" stroke-linejoin="round"/>
<path d="M 10.0 15.0 L 10.0 15.17 L 10.0 15.33 L 10.0 15.5 L 10.0 15.67 L 10.0 15.83 L 10.0 16.0 L 10.0 16.17 L 10.0 16.33 L 10.0 16.5 L 10.0 16.67 L 10.0 16.83 L 10.0 17.0 L 10.0 17.17 L 10.0 17.33 L 10.0 17.5 L 10.0 17.67 L 10.0 17.83 L 10.0 18.0 L 10.0 18.17 L 10.0 18.33 L 10.0 18.5 L 10.0 18.67 L 10.0 18.83 L 10.0 19.0" fill="none" stroke="#111" stroke-width="1.33" stroke-linecap="round" stroke-linejoin="round"/>
<path d="M 4.0 16.0 L 4.04 16.08 L 4.08 16.17 L 4.12 16.25 L 4.17 16.33 L 4.21 16.42 L 4.25 16.5 L 4.29 16.58 L 4.33 16.67 L 4.38 16.75 L 4.42 16.83 L 4.46 16.92 L 4.5 17.0 L 4.54 17.08 L 4.58 17.17 L 4.62 17.25 L 4.67 17.33 L 4.71 17.42 L 4.75 17.5 L 4.79 17.58 L 4.83 17.67 L 4.88 17.75 L 4.92 17.83 L 4.96 17.92 L 5.0 18.0" fill="none" stroke="#111" stroke-width="1.33" stroke-linecap="round" stroke-linejoin="round"/>
<path d="M 12.0 16.0 L 12.0 16.04 L 12.0 16.08 L 12.0 16.12 L 12.0 16.17 L 12.0 16.21 L 12.0 16.25 L 12.0 16.29 L 12.0 16.33 L 12.0 16.38 L 12.0 16.42 L 12.0 16.46 L 12.0 16.5 L 12.0 16.54 L 12.0 16.58 L 12.0 16.62 L 12.0 16.67 L 12.0 16.71 L 12.0 16.75 L 12.0 16.79 L 12.0 16.83 L 12.0 16.88 L 12.0 16.92 L 12.0 16.96 L 12.0 17.0" fill="none" stroke="#111" stroke-width="1.33" stroke-linecap="round" stroke-linejoin="round"/>
<path d="M 5.0 20.0 L 5.29 20.0 L 5.58 20.0 L 5.88 20.0 L 6.17 20.0 L 6.46 20.0 L 6.75 20.0 L 7.04 20.0 L 7.33 20.0 L 7.62 20.0 L 7.92 20.0 L 8.21 20.0 L 8.5 20.0 L 8.79 20.0 L 9.08 20.0 L 9.38 20.0 L 9.67 20.0 L 9.96 20.0 L 10.25 20.0 L 10.54 20.0 L 10.83 20.0 L 11.12 20.0 L 11.42 20.0 L 11.71 20.0 L 12.0 20.0" fill="none" stroke="#111" stroke-width="1.33" stroke-linecap="round" stroke-linejoin="round"/>
<path d="M 12.0 10.0 L 12.51 10.04 L 13.01 10.12 L 13.5 10.24 L 13.99 10.4 L 14.46 10.6 L 14.91 10.83 L 15.34 11.1 L 15.75 11.4 L 16.14 11.73 L 16.5 12.09 L 16.83 12.48 L 17.13 12.89 L 17.39 13.32 L 17.62 13.78 L 17.82 14.25 L 17.97 14.73 L 18.09 15.22 L 18.17 15.73 L 18.21 16.23 L 18.21 16.74 L 18.17 17.25 L 18.09 17.75 L 17.98 18.25 L 17.82 18.73" fill="none" stroke="#111" stroke-width="1.33" stroke-linecap="round" stroke-linejoin="round"/>
<path d="M 14.0 6.0 L 14.17 6.17 L 14.33 6.33 L 14.5 6.5 L 14.67 6.67 L 14.83 6.83 L 15.0 7.0 L 15.17 7.17 L 15.33 7.33 L 15.5 7.5 L 15.67 7.67 L 15.83 7.83 L 16.0 8.0 L 16.17 8.17 L 16.33 8.33 L 16.5 8.5 L 16.67 8.67 L 16.83 8.83 L 17.0 9.0 L 17.17 9.17 L 17.33 9.33 L 17.5 9.5 L 17.67 9.67 L 17.83 9.83 L 18.0 10.0 L 18.0 10.0 L 17.79 10.25 L 17.58 10.5 L 17.38 10.75 L 17.17 11.0 L 16.96 11.25 L 16.75 11.5 L 16.54 11.75 L 16.33 12.0 L 16.12 12.25 L 15.92 12.5 L 15.71 12.75 L 15.5 13.0 L 15.29 13.25 L 15.08 13.5 L 14.88 13.75 L 14.67 14.0 L 14.46 14.25 L 14.25 14.5 L 14.04 14.75 L 13.83 15.0 L 13.62 15.25 L 13.42 15.5 L 13.21 15.75 L 13.0 16.0" fill="none" stroke="#111" stroke-width="1.33" stroke-linecap="round" stroke-linejoin="round"/>
<path d="M 9.0 26.0 L 9.34 25.53 L 9.74 25.11 L 10.19 24.74 L 10.68 24.43 L 11.2 24.18 L 11.76 24.01 L 12.33 23.9 L 12.91 23.87 L 13.49 23.92 L 14.05 24.03 L 14.6 24.22 L 15.13 24.47 L 15.61 24.79 L 16.05 25.17 L 16.44 25.6 L 16.77 26.08 L 17.04 26.59 L 17.24 27.14 L 17.37 27.71 L 17.42 28.28 L 17.41 28.86 L 17.32 29.44 L 17.15 29.99 L 16.92 30.53 L 16.0 30.0 L 15.66 30.11 L 15.31 30.2 L 14.96 30.28 L 14.61 30.34 L 14.25 30.38 L 13.89 30.4 L 13.54 30.41 L 13.18 30.4 L 12.82 30.37 L 12.46 30.33 L 12.11 30.27 L 11.76 30.19 L 11.42 30.09 L 11.07 29.98 L 10.74 29.85 L 10.41 29.71 L 10.09 29.55 L 9.78 29.37 L 9.47 29.18 L 9.18 28.98 L 8.9 28.76 L 8.62 28.53 L 8.36 28.28 L 8.11 28.03 L 8.0 28.0 L 8.04 27.92 L 8.08 27.83 L 8.12 27.75 L 8.17 27.67 L 8.21 27.58 L 8.25 27.5 L 8.29 27.42 L 8.33 27.33 L 8.38 27.25 L 8.42 27.17 L 8.46 27.08 L 8.5 27.0 L 8.54 26.92 L 8.58 26.83 L 8.62 26.75 L 8.67 26.67 L 8.71 26.58 L 8.75 26.5 L 8.79 26.42 L 8.83 26.33 L 8.88 26.25 L 8.92 26.17 L 8.96 26.08 L 9.0 26.0" fill="none" stroke="#111" stroke-width="1.33" stroke-linecap="round" stroke-linejoin="round"/>
<path d="M 5.0 26.0 L 5.0 26.12 L 5.0 26.25 L 5.0 26.38 L 5.0 26.5 L 5.0 26.62 L 5.0 26.75 L 5.0 26.88 L 5.0 27.0 L 5.0 27.12 L 5.0 27.25 L 5.0 27.38 L 5.0 27.5 L 5.0 27.62 L 5.0 27.75 L 5.0 27.88 L 5.0 28.0 L 5.0 28.12 L 5.0 28.25 L 5.0 28.38 L 5.0 28.5 L 5.0 28.62 L 5.0 28.75 L 5.0 28.88 L 5.0 29.0" fill="none" stroke="#111" stroke-width="1.33" stroke-linecap="round" stroke-linejoin="round"/>
<path d="M 10.0 26.0 L 10.12 26.0 L 10.25 26.0 L 10.38 26.0 L 10.5 26.0 L 10.62 26.0 L 10.75 26.0 L 10.88 26.0 L 11.0 26.0 L 11.12 26.0 L 11.25 26.0 L 11.38 26.0 L 11.5 26.0 L 11.62 26.0 L 11.75 26.0 L 11.88 26.0 L 12.0 26.0 L 12.12 26.0 L 12.25 26.0 L 12.38 26.0 L 12.5 26.0 L 12.62 26.0 L 12.75 26.0 L 12.88 26.0 L 13.0 26.0" fill="none" stroke="#111" stroke-width="1.33" stroke-linecap="round" stroke-linejoin="round"/>
<path d="M 15.0 21.0 L 15.08 21.04 L 15.17 21.08 L 15.25 21.12 L 15.33 21.17 L 15.42 21.21 L 15.5 21.25 L 15.58 21.29 L 15.67 21.33 L 15.75 21.38 L 15.83 21.42 L 15.92 21.46 L 16.0 21.5 L 16.08 21.54 L 16.17 21.58 L 16.25 21.62 L 16.33 21.67 L 16.42 21.71 L 16.5 21.75 L 16.58 21.79 L 16.67 21.83 L 16.75 21.88 L 16.83 21.92 L 16.92 21.96 L 17.0 22.0" fill="none" stroke="#111" stroke-width="1.33" stroke-linecap="round" stroke-linejoin="round"/>
<path d="M 18.0 25.0 L 18.0 25.17 L 18.0 25.33 L 18.0 25.5 L 18.0 25.67 L 18.0 25.83 L 18.0 26.0 L 18.0 26.17 L 18.0 26.33 L 18.0 26.5 L 18.0 26.67 L 18.0 26.83 L 18.0 27.0 L 18.0 27.17 L 18.0 27.33 L 18.0 27.5 L 18.0 27.67 L 18.0 27.83 L 18.0 28.0 L 18.0 28.17 L 18.0 28.33 L 18.0 28.5 L 18.0 28.67 L 18.0 28.83 L 18.0 29.0" fill="none" stroke="#111" stroke-width="1.33" stroke-linecap="round" stroke-linejoin="round"/>
<path d="M 10.0 31.0 L 10.0 31.12 L 10.0 31.25 L 10.0 31.38 L 10.0 31.5 L 10.0 31.62 L 10.0 31.75 L 10.0 31.88 L 10.0 32.0 L 10.0 32.12 L 10.0 32.25 L 10.0 32.38 L 10.0 32.5 L 10.0 32.62 L 10.0 32.75 L 10.0 32.88 L 10.0 33.0 L 10.0 33.12 L 10.0 33.25 L 10.0 33.38 L 10.0 33.5 L 10.0 33.62 L 10.0 33.75 L 10.0 33.88 L 10.0 34.0" fill="none" stroke="#111" stroke-width="1.33" stroke-linecap="round" stroke-linejoin="round"/>
<path d="M 15.0 31.0 L 15.04 31.12 L 15.08 31.25 L 15.12 31.38 L 15.17 31.5 L 15.21 31.62 L 15.25 31.75 L 15.29 31.88 L 15.33 32.0 L 15.38 32.12 L 15.42 32.25 L 15.46 32.38 L 15.5 32.5 L 15.54 32.62 L 15.58 32.75 L 15.62 32.88 L 15.67 33.0 L 15.71 33.12 L 15.75 33.25 L 15.79 33.38 L 15.83 33.5 L 15.88 33.62 L 15.92 33.75 L 15.96 33.88 L 16.0 34.0" fill="none" stroke="#111" stroke-width="1.33" stroke-linecap="round" stroke-linejoin="round"/>
</svg>
