<?xml version="1.0" encoding="UTF-8"?>
<svg xmlns="http://www.w3.org/2000/svg" viewBox="0 0 27.00 34.00">
<path d="M 9.0 20.0 L 8.55 19.63 L 8.14 19.23 L 7.76 18.79 L 7.42 18.32 L 7.12 17.83 L 6.86 17.31 L 6.65 16.77 L 6.48 16.22 L 6.36 15.65 L 6.29 15.08 L 6.26 14.5 L 6.29 13.92 L 6.36 13.35 L 6.48 12.78 L 6.64 12.23 L 6.86 11.69 L 7.11 11.17 L 7.41 10.68 L 7.75 10.21 L 8.13 9.77 L 8.55 9.36 L 8.99 9.0 L 9.47 8.67 L 9.97 8.38 L 10.0 8.0 L 10.17 8.25 L 10.33 8.5 L 10.5 8.75 L 10.67 9.0 L 10.83 9.25 L 11.0 9.5 L 11.17 9.75 L 11.33 10.0 L 11.5 10.25 L 11.67 10.5 L 11.83 10.75 L 12.0 11.0 L 12.17 11.25 L 12.33 11.5 L 12.5 11.75 L 12.67 12.0 L 12.83 12.25 L 13.0 12.5 L 13.17 12.75 L 13.33 13.0 L 13.5 13.25 L 13.67 13.5 L 13.83 13.75 L 14.0 14.0 L 14.0 14.0 L 13.79 14.25 L 13.58 14.5 L 13.38 14.75 L 13.17 15.0 L 12.96 15.25 L 12.75 15.5 L 12.54 15.75 L 12.33 16.0 L 12.12 16.25 L 11.92 16.5 L 11.71 16.75 L 11.5 17.0 L 11.29 17.25 L 11.08 17.5 L 10.88 17.75 L 10.67 18.0 L 10.46 18.25 L 10.25 18.5 L 10.04 18.75 L 9.83 19.0 L 9.62 19.25 L 9.42 19.5 L 9.21 19.75 L 9.0 20.0" fill="none" stroke="#111" stroke-width="1.19" stroke-linecap="round" stroke-linejoin="round"/>
<path d="M 4.0 20.0 L 4.38 20.0 L 4.75 20.0 L 5.12 20.0 L 5.5 20.0 L 5.88 20.0 L 6.25 20.0 L 6.62 20.0 L 7.0 20.0 L 7.38 20.0 L 7.75 20.0 L 8.12 20.0 L 8.5 20.0 L 8.88 20.0 L 9.25 20.0 L 9.62 20.0 L 10.0 20.0 L 10.38 20.0 L 10.75 20.0 L 11.12 20.0 L 11.5 20.0 L 11.88 20.0 L 12.25 20.0 L 12.62 20.0 L 13.0 20.0" fill="none" stroke="#111" stroke-width="1.19" stroke-linecap="round" stroke-linejoin="round"/>
<path d="M 17.0 4.0 L 17.0 5.08 L 17.0 6.17 L 17.0 7.25 L 17.0 8.33 L 17.0 9.42 L 17.0 10.5 L 17.0 11.58 L 17.0 12.67 L 17.0 13.75 L 17.0 14.83 L 17.0 15.92 L 17.0 17.0 L 17.0 18.08 L 17.0 19.17 L 17.0 20.25 L 17.0 21.33 L 17.0 22.42 L 17.0 23.5 L 17.0 24.58 L 17.0 25.67 L 17.0 26.75 L 17.0 27.83 L 17.0 28.92 L 17.0 30.0" fill="none" stroke="#111" stroke-width="1.19" stroke-linecap="round" stroke-linejoin="round"/>
<path d="M 13.0 7.0 L 13.17 7.25 L 13.33 7.5 L 13.5 7.75 L 13.67 8.0 L 13.83 8.25 L 14.0 8.5 L 14.17 8.75 L 14.33 9.0 L 14.5 9.25 L 14.67 9.5 L 14.83 9.75 L 15.0 10.0 L 15.17 10.25 L 15.33 10.5 L 15.5 10.75 L 15.67 11.0 L 15.83 11.25 L 16.0 11.5 L 16.17 11.75 L 16.33 12.0 L 16.5 12.25 L 16.67 12.5 L 16.83 12.75 L 17.0 13.0 L 17.0 13.0 L 17.25 12.71 L 17.5 12.42 L 17.75 12.12 L 18.0 11.83 L 18.25 11.54 L 18.5 11.25 L 18.75 10.96 L 19.0 10.67 L 19.25 10.38 L 19.5 10.08 L 19.75 9.79 L 20.0 9.5 L 20.25 9.21 L 20.5 8.92 L 20.75 8.62 L 21.0 8.33 L 21.25 8.04 L 21.5 7.75 L 21.75 7.46 L 22.0 7.17 L 22.25 6.88 L 22.5 6.58 L 22.75 6.29 L 23.0 6.0" fill="none" stroke="#111" stroke-width="1.19" stroke-linecap="round" stroke-linejoin="round"/>
<path d="M 13.0 21.0 L 13.17 20.75 L 13.33 20.5 L 13.5 20.25 L 13.67 20.0 L 13.83 19.75 L 14.0 19.5 L 14.17 19.25 L 14.33 19.0 L 14.5 18.75 L 14.67 18.5 L 14.83 18.25 L 15.0 18.0 L 15.17 17.75 L 15.33 17.5 L 15.5 17.25 L 15.67 17.0 L 15.83 16.75 L 16.0 16.5 L 16.17 16.25 L 16.33 16.0 L 16.5 15.75 L 16.67 15.5 L 16.83 15.25 L 17.0 15.0" fill="none" stroke="#111" stroke-width="1.19" stroke-linecap="round" stroke-linejoin="round"/>
<path d="M 17.0 19.0 L 17.25 19.25 L 17.5 19.5 L 17.75 19.75 L 18.0 20.0 L 18.25 20.25 L 18.5 20.5 L 18.75 20.75 L 19.0 21.0 L 19.25 21.25 L 19.5 21.5 L 19.75 21.75 L 20.0 22.0 L 20.25 22.25 L 20.5 22.5 L 20.75 22.75 L 21.0 23.0 L 21.25 23.25 L 21.5 23.5 L 21.75 23.75 L 22.0 24.0 L 22.25 24.25 L 22.5 24.5 L 22.75 24.75 L 23.0 25.0" fill="none" stroke="#111" stroke-width="1.19" stroke-linecap="round" stroke-linejoin="round"/>
</svg>
