<?xml version="1.0" encoding="UTF-8"?>
<svg xmlns="http://www.w3.org/2000/svg" viewBox="0 0 21.94 40.00">
<path d="M 5.94 4.0 L 6.44 4.0 L 6.94 4.0 L 7.44 4.0 L 7.94 4.0 L 8.44 4.0 L 8.94 4.0 L 9.44 4.0 L 9.94 4.0 L 10.44 4.0 L 10.94 4.0 L 11.44 4.0 L 11.94 4.0 L 12.44 4.0 L 12.94 4.0 L 13.44 4.0 L 13.94 4.0 L 14.44 4.0 L 14.94 4.0 L 15.44 4.0 L 15.94 4.0 L 16.44 4.0 L 16.94 4.0 L 17.44 4.0 L 17.94 4.0" fill="none" stroke="#111" stroke-width="1.40" stroke-linecap="round" stroke-linejoin="round"/>
<path d="M 7.94 4.0 L 8.11 4.29 L 8.28 4.58 L 8.44 4.88 L 8.61 5.17 L 8.78 5.46 L 8.94 5.75 L 9.11 6.04 L 9.28 6.33 L 9.44 6.62 L 9.61 6.92 L 9.78 7.21 L 9.94 7.5 L 10.11 7.79 L 10.28 8.08 L 10.44 8.38 L 10.61 8.67 L 10.78 8.96 L 10.94 9.25 L 11.11 9.54 L 11.28 9.83 L 11.44 10.12 L 11.61 10.42 L 11.78 10.71 L 11.94 11.0 L 11.94 11.0 L 12.07 10.71 L 12.19 10.42 L 12.32 10.12 L 12.44 9.83 L 12.57 9.54 L 12.69 9.25 L 12.82 8.96 L 12.94 8.67 L 13.07 8.38 L 13.19 8.08 L 13.32 7.79 L 13.44 7.5 L 13.57 7.21 L 13.69 6.92 L 13.82 6.62 L 13.94 6.33 L 14.07 6.04 L 14.19 5.75 L 14.32 5.46 L 14.44 5.17 L 14.57 4.88 L 14.69 4.58 L 14.82 4.29 L 14.94 4.0" fill="none" stroke="#111" stroke-width="1.40" stroke-linecap="round" stroke-linejoin="round"/>
<path d="M 11.94 11.0 L 11.94 11.54 L 11.94 12.08 L 11.94 12.62 L 11.94 13.17 L 11.94 13.71 L 11.94 14.25 L 11.94 14.79 L 11.94 15.33 L 11.94 15.88 L 11.94 16.42 L 11.94 16.96 L 11.94 17.5 L 11.94 18.04 L 11.94 18.58 L 11.94 19.12 L 11.94 19.67 L 11.94 20.21 L 11.94 20.75 L 11.94 21.29 L 11.94 21.83 L 11.94 22.38 L 11.94 22.92 L 11.94 23.46 L 11.94 24.0 L 11.94 24.0 L 11.15 23.92 L 10.35 23.98 L 9.57 24.16 L 8.83 24.48 L 8.15 24.91 L 7.56 25.44 L 7.06 26.07 L 6.67 26.78 L 6.4 27.53 L 6.27 28.32 L 6.26 29.12 L 6.39 29.92 L 6.65 30.68 L 7.03 31.38 L 7.52 32.02 L 8.12 32.56 L 8.79 33.0 L 9.52 33.32 L 10.3 33.51 L 11.1 33.57 L 11.9 33.5 L 12.68 33.3 L 13.41 32.97 L 14.08 32.52 L 12.94 28.0 L 12.82 28.33 L 12.69 28.67 L 12.57 29.0 L 12.44 29.33 L 12.32 29.67 L 12.19 30.0 L 12.07 30.33 L 11.94 30.67 L 11.82 31.0 L 11.69 31.33 L 11.57 31.67 L 11.44 32.0 L 11.32 32.33 L 11.19 32.67 L 11.07 33.0 L 10.94 33.33 L 10.82 33.67 L 10.69 34.0 L 10.57 34.33 L 10.44 34.67 L 10.32 35.0 L 10.19 35.33 L 10.07 35.67 L 9.94 36.0" fill="none" stroke="#111" stroke-width="1.40" stroke-linecap="round" stroke-linejoin="round"/>
<path d="M 5.94 23.0 L 6.11 22.61 L 6.25 22.21 L 6.39 21.8 L 6.51 21.4 L 6.62 20.99 L 6.71 20.57 L 6.79 20.15 L 6.85 19.73 L 6.9 19.31 L 6.94 18.89 L 6.96 18.46 L 6.97 18.04 L 6.96 17.61 L 6.94 17.19 L 6.9 16.76 L 6.85 16.34 L 6.79 15.92 L 6.71 15.5 L 6.62 15.09 L 6.51 14.68 L 6.39 14.27 L 6.25 13.87 L 6.11 13.47 L 5.94 13.07 L 5.94 13.0 L 6.36 12.88 L 6.78 12.75 L 7.19 12.62 L 7.61 12.5 L 8.03 12.38 L 8.44 12.25 L 8.86 12.12 L 9.28 12.0 L 9.69 11.88 L 10.11 11.75 L 10.53 11.62 L 10.94 11.5 L 11.36 11.38 L 11.78 11.25 L 12.19 11.12 L 12.61 11.0 L 13.03 10.88 L 13.44 10.75 L 13.86 10.62 L 14.28 10.5 L 14.69 10.38 L 15.11 10.25 L 15.53 10.12 L 15.94 10.0" fill="none" stroke="#111" stroke-width="1.40" stroke-linecap="round" stroke-linejoin="round"/>
<path d="M 15.94 10.0 L 15.94 10.25 L 15.94 10.5 L 15.94 10.75 L 15.94 11.0 L 15.94 11.25 L 15.94 11.5 L 15.94 11.75 L 15.94 12.0 L 15.94 12.25 L 15.94 12.5 L 15.94 12.75 L 15.94 13.0 L 15.94 13.25 L 15.94 13.5 L 15.94 13.75 L 15.94 14.0 L 15.94 14.25 L 15.94 14.5 L 15.94 14.75 L 15.94 15.0 L 15.94 15.25 L 15.94 15.5 L 15.94 15.75 L 15.94 16.0 L 15.94 16.0 L 15.4 16.08 L 14.87 16.17 L 14.33 16.27 L 13.8 16.38 L 13.26 16.5 L 12.74 16.64 L 12.21 16.78 L 11.69 16.94 L 11.17 17.11 L 10.66 17.3 L 10.15 17.49 L 9.64 17.69 L 9.14 17.91 L 8.64 18.13 L 8.15 18.37 L 7.67 18.62 L 7.19 18.88 L 6.71 19.15 L 6.24 19.43 L 5.78 19.72 L 5.33 20.02 L 4.88 20.33 L 4.43 20.65 L 4.0 20.98" fill="none" stroke="#111" stroke-width="1.40" stroke-linecap="round" stroke-linejoin="round"/>
</svg>
