<?xml version="1.0" encoding="UTF-8"?>
<svg xmlns="http://www.w3.org/2000/svg" viewBox="0 0 28.56 33.94">
<path d="M 8.84 4.0 L 9.3 4.0 L 9.75 4.0 L 10.21 4.0 L 10.67 4.0 L 11.13 4.0 L 11.59 4.0 L 12.05 4.0 L 12.5 4.0 L 12.96 4.0 L 13.42 4.0 L 13.88 4.0 L 14.34 4.0 L 14.8 4.0 L 15.25 4.0 L 15.71 4.0 L 16.17 4.0 L 16.63 4.0 L 17.09 4.0 L 17.55 4.0 L 18.0 4.0 L 18.46 4.0 L 18.92 4.0 L 19.38 4.0 L 19.84 4.0" fill="none" stroke="#111" stroke-width="1.19" stroke-linecap="round" stroke-linejoin="round"/>
<path d="M 8.84 12.0 L 9.3 12.0 L 9.75 12.0 L 10.21 12.0 L 10.67 12.0 L 11.13 12.0 L 11.59 12.0 L 12.05 12.0 L 12.5 12.0 L 12.96 12.0 L 13.42 12.0 L 13.88 12.0 L 14.34 12.0 L 14.8 12.0 L 15.25 12.0 L 15.71 12.0 L 16.17 12.0 L 16.63 12.0 L 17.09 12.0 L 17.55 12.0 L 18.0 12.0 L 18.46 12.0 L 18.92 12.0 L 19.38 12.0 L 19.84 12.0" fill="none" stroke="#111" stroke-width="1.19" stroke-linecap="round" stroke-linejoin="round"/>
<path d="M 8.84 4.0 L 8.84 4.33 L 8.84 4.67 L 8.84 5.0 L 8.84 5.33 L 8.84 5.67 L 8.84 6.0 L 8.84 6.33 L 8.84 6.67 L 8.84 7.0 L 8.84 7.33 L 8.84 7.67 L 8.84 8.0 L 8.84 8.33 L 8.84 8.67 L 8.84 9.0 L 8.84 9.33 L 8.84 9.67 L 8.84 10.0 L 8.84 10.33 L 8.84 10.67 L 8.84 11.0 L 8.84 11.33 L 8.84 11.67 L 8.84 12.0" fill="none" stroke="#111" stroke-width="1.19" stroke-linecap="round" stroke-linejoin="round"/>
<path d="M 19.84 4.0 L 19.84 4.33 L 19.84 4.67 L 19.84 5.0 L 19.84 5.33 L 19.84 5.67 L 19.84 6.0 L 19.84 6.33 L 19.84 6.67 L 19.84 7.0 L 19.84 7.33 L 19.84 7.67 L 19.84 8.0 L 19.84 8.33 L 19.84 8.67 L 19.84 9.0 L 19.84 9.33 L 19.84 9.67 L 19.84 10.0 L 19.84 10.33 L 19.84 10.67 L 19.84 11.0 L 19.84 11.33 L 19.84 11.67 L 19.84 12.0" fill="none" stroke="#111" stroke-width="1.19" stroke-linecap="round" stroke-linejoin="round"/>
<path d="M 8.84 8.0 L 8.37 8.73 L 7.93 9.47 L 7.51 10.23 L 7.12 11.0 L 6.75 11.78 L 6.4 12.57 L 6.09 13.37 L 5.8 14.19 L 5.53 15.01 L 5.29 15.84 L 5.08 16.68 L 4.9 17.53 L 4.75 18.38 L 4.62 19.23 L 4.52 20.09 L 4.44 20.95 L 4.4 21.81 L 4.38 22.68 L 4.39 23.54 L 4.43 24.41 L 4.5 25.27 L 4.6 26.13 L 4.72 26.98 L 4.87 27.83" fill="none" stroke="#111" stroke-width="1.19" stroke-linecap="round" stroke-linejoin="round"/>
<path d="M 4.84 4.0 L 4.6 4.64 L 4.4 5.28 L 4.24 5.94 L 4.12 6.61 L 4.04 7.29 L 4.0 7.96 L 4.0 8.64 L 4.05 9.32 L 4.14 9.99 L 4.27 10.66 L 4.43 11.32 L 4.64 11.96 L 4.89 12.6 L 5.18 13.21 L 5.5 13.81 L 5.86 14.38 L 6.25 14.94 L 6.68 15.47 L 7.14 15.97 L 7.63 16.44 L 8.14 16.88 L 8.68 17.29 L 9.25 17.66 L 9.84 18.0" fill="none" stroke="#111" stroke-width="1.19" stroke-linecap="round" stroke-linejoin="round"/>
<path d="M 21.84 4.0 L 22.4 4.69 L 22.91 5.43 L 23.36 6.21 L 23.74 7.02 L 24.05 7.86 L 24.29 8.73 L 24.45 9.61 L 24.55 10.5 L 24.56 11.4 L 24.51 12.29 L 24.38 13.18 L 24.17 14.05 L 23.9 14.91 L 23.55 15.74 L 23.14 16.53 L 22.66 17.29 L 22.12 18.01 L 21.52 18.68 L 20.87 19.29 L 20.17 19.85 L 19.43 20.35 L 18.65 20.79 L 17.83 21.16 L 16.99 21.46" fill="none" stroke="#111" stroke-width="1.19" stroke-linecap="round" stroke-linejoin="round"/>
<path d="M 19.84 12.0 L 20.12 12.71 L 20.38 13.42 L 20.63 14.14 L 20.86 14.87 L 21.07 15.6 L 21.27 16.34 L 21.45 17.08 L 21.61 17.82 L 21.75 18.57 L 21.88 19.32 L 21.99 20.07 L 22.08 20.83 L 22.16 21.59 L 22.22 22.35 L 22.26 23.11 L 22.28 23.87 L 22.29 24.63 L 22.27 25.39 L 22.24 26.15 L 22.2 26.91 L 22.13 27.67 L 22.05 28.43 L 21.95 29.18 L 21.83 29.94" fill="none" stroke="#111" stroke-width="1.19" stroke-linecap="round" stroke-linejoin="round"/>
</svg>
