<?xml version="1.0" encoding="UTF-8"?>
<svg xmlns="http://www.w3.org/2000/svg" viewBox="0 0 28.95 37.00">
<path d="M 6.0 12.0 L 6.46 12.0 L 6.92 12.0 L 7.38 12.0 L 7.83 12.0 L 8.29 12.0 L 8.75 12.0 L 9.21 12.0 L 9.67 12.0 L 10.12 12.0 L 10.58 12.0 L 11.04 12.0 L 11.5 12.0 L 11.96 12.0 L 12.42 12.0 L 12.88 12.0 L 13.33 12.0 L 13.79 12.0 L 14.25 12.0 L 14.71 12.0 L 15.17 12.0 L 15.62 12.0 L 16.08 12.0 L 16.54 12.0 L 17.0 12.0" fill="none" stroke="#111" stroke-width="1.30" stroke-linecap="round" stroke-linejoin="round"/>
<path d="M 8.0 8.0 L 8.0 8.17 L 8.0 8.33 L 8.0 8.5 L 8.0 8.67 L 8.0 8.83 L 8.0 9.0 L 8.0 9.17 L 8.0 9.33 L 8.0 9.5 L 8.0 9.67 L 8.0 9.83 L 8.0 10.0 L 8.0 10.17 L 8.0 10.33 L 8.0 10.5 L 8.0 10.67 L 8.0 10.83 L 8.0 11.0 L 8.0 11.17 L 8.0 11.33 L 8.0 11.5 L 8.0 11.67 L 8.0 11.83 L 8.0 12.0" fill="none" stroke="#111" stroke-width="1.30" stroke-linecap="round" stroke-linejoin="round"/>
<path d="M 11.0 5.0 L 11.0 5.29 L 11.0 5.58 L 11.0 5.88 L 11.0 6.17 L 11.0 6.46 L 11.0 6.75 L 11.0 7.04 L 11.0 7.33 L 11.0 7.62 L 11.0 7.92 L 11.0 8.21 L 11.0 8.5 L 11.0 8.79 L 11.0 9.08 L 11.0 9.38 L 11.0 9.67 L 11.0 9.96 L 11.0 10.25 L 11.0 10.54 L 11.0 10.83 L 11.0 11.12 L 11.0 11.42 L 11.0 11.71 L 11.0 12.0" fill="none" stroke="#111" stroke-width="1.30" stroke-linecap="round" stroke-linejoin="round"/>
<path d="M 14.0 7.0 L 14.0 7.21 L 14.0 7.42 L 14.0 7.62 L 14.0 7.83 L 14.0 8.04 L 14.0 8.25 L 14.0 8.46 L 14.0 8.67 L 14.0 8.88 L 14.0 9.08 L 14.0 9.29 L 14.0 9.5 L 14.0 9.71 L 14.0 9.92 L 14.0 10.12 L 14.0 10.33 L 14.0 10.54 L 14.0 10.75 L 14.0 10.96 L 14.0 11.17 L 14.0 11.38 L 14.0 11.58 L 14.0 11.79 L 14.0 12.0" fill="none" stroke="#111" stroke-width="1.30" stroke-linecap="round" stroke-linejoin="round"/>
<path d="M 8.0 12.0 L 7.92 12.56 L 7.93 13.12 L 8.02 13.68 L 8.19 14.21 L 8.44 14.72 L 8.76 15.18 L 9.15 15.59 L 9.59 15.94 L 10.08 16.22 L 10.61 16.43 L 11.16 16.55 L 11.72 16.59 L 12.28 16.55 L 12.83 16.43 L 13.35 16.22 L 13.84 15.94 L 14.29 15.59 L 14.67 15.18 L 14.99 14.72 L 15.24 14.21 L 15.41 13.68 L 15.5 13.12 L 15.51 12.56 L 15.43 12.0" fill="none" stroke="#111" stroke-width="1.30" stroke-linecap="round" stroke-linejoin="round"/>
<path d="M 12.0 17.0 L 12.0 17.46 L 12.0 17.92 L 12.0 18.38 L 12.0 18.83 L 12.0 19.29 L 12.0 19.75 L 12.0 20.21 L 12.0 20.67 L 12.0 21.12 L 12.0 21.58 L 12.0 22.04 L 12.0 22.5 L 12.0 22.96 L 12.0 23.42 L 12.0 23.88 L 12.0 24.33 L 12.0 24.79 L 12.0 25.25 L 12.0 25.71 L 12.0 26.17 L 12.0 26.62 L 12.0 27.08 L 12.0 27.54 L 12.0 28.0" fill="none" stroke="#111" stroke-width="1.30" stroke-linecap="round" stroke-linejoin="round"/>
<path d="M 12.0 28.0 L 11.88 28.21 L 11.75 28.42 L 11.62 28.62 L 11.5 28.83 L 11.38 29.04 L 11.25 29.25 L 11.12 29.46 L 11.0 29.67 L 10.88 29.88 L 10.75 30.08 L 10.62 30.29 L 10.5 30.5 L 10.38 30.71 L 10.25 30.92 L 10.12 31.12 L 10.0 31.33 L 9.88 31.54 L 9.75 31.75 L 9.62 31.96 L 9.5 32.17 L 9.38 32.38 L 9.25 32.58 L 9.13 32.79 L 9.0 33.0" fill="none" stroke="#111" stroke-width="1.30" stroke-linecap="round" stroke-linejoin="round"/>
<path d="M 12.0 28.0 L 12.12 28.21 L 12.25 28.42 L 12.38 28.62 L 12.5 28.83 L 12.62 29.04 L 12.75 29.25 L 12.88 29.46 L 13.0 29.67 L 13.12 29.88 L 13.25 30.08 L 13.38 30.29 L 13.5 30.5 L 13.62 30.71 L 13.75 30.92 L 13.88 31.12 L 14.0 31.33 L 14.12 31.54 L 14.25 31.75 L 14.38 31.96 L 14.5 32.17 L 14.62 32.38 L 14.75 32.58 L 14.88 32.79 L 15.0 33.0" fill="none" stroke="#111" stroke-width="1.30" stroke-linecap="round" stroke-linejoin="round"/>
<path d="M 4.0 33.0 L 4.58 33.0 L 5.17 33.0 L 5.75 33.0 L 6.33 33.0 L 6.92 33.0 L 7.5 33.0 L 8.08 33.0 L 8.67 33.0 L 9.25 33.0 L 9.83 33.0 L 10.42 33.0 L 11.0 33.0 L 11.58 33.0 L 12.17 33.0 L 12.75 33.0 L 13.33 33.0 L 13.92 33.0 L 14.5 33.0 L 15.08 33.0 L 15.67 33.0 L 16.25 33.0 L 16.83 33.0 L 17.42 33.0 L 18.0 33.0" fill="none" stroke="#111" stroke-width="1.30" stroke-linecap="round" stroke-linejoin="round"/>
<path d="M 18.0 4.0 L 18.51 4.46 L 18.97 4.96 L 19.4 5.5 L 19.77 6.07 L 20.1 6.67 L 20.37 7.3 L 20.59 7.95 L 20.75 8.62 L 20.86 9.29 L 20.9 9.97 L 20.89 10.66 L 20.83 11.34 L 20.7 12.01 L 20.52 12.67 L 20.28 13.32 L 19.99 13.93 L 19.65 14.53 L 19.26 15.09 L 18.82 15.62 L 18.34 16.1 L 17.82 16.55 L 17.26 16.95 L 16.67 17.3 L 16.06 17.6" fill="none" stroke="#111" stroke-width="1.30" stroke-linecap="round" stroke-linejoin="round"/>
<path d="M 17.0 11.0 L 17.78 11.39 L 18.54 11.82 L 19.27 12.31 L 19.96 12.84 L 20.62 13.41 L 21.24 14.03 L 21.82 14.68 L 22.36 15.37 L 22.85 16.09 L 23.29 16.85 L 23.69 17.63 L 24.03 18.43 L 24.32 19.25 L 24.55 20.09 L 24.74 20.95 L 24.86 21.81 L 24.93 22.68 L 24.95 23.56 L 24.91 24.43 L 24.81 25.3 L 24.65 26.16 L 24.45 27.01 L 24.18 27.84 L 23.87 28.65" fill="none" stroke="#111" stroke-width="1.30" stroke-linecap="round" stroke-linejoin="round"/>
</svg>
