<?xml version="1.0" encoding="UTF-8"?>
<svg xmlns="http://www.w3.org/2000/svg" viewBox="0 0 23.77 40.65">
<path d="M 11.67 4.0 L 12.37 4.47 L 13.03 5.0 L 13.63 5.59 L 14.18 6.23 L 14.67 6.92 L 15.1 7.65 L 15.45 8.41 L 15.74 9.2 L 15.95 10.02 L 16.1 10.85 L 16.16 11.69 L 16.15 12.53 L 16.06 13.37 L 15.9 14.2 L 15.66 15.01 L 15.35 15.8 L 14.97 16.55 L 14.53 17.27 L 14.02 17.94 L 13.46 18.56 L 12.83 19.14 L 12.17 19.65 L 11.45 20.1 L 10.7 20.48" fill="none" stroke="#111" stroke-width="1.42" stroke-linecap="round" stroke-linejoin="round"/>
<path d="M 13.67 7.0 L 13.46 7.42 L 13.25 7.83 L 13.05 8.25 L 12.84 8.67 L 12.63 9.08 L 12.42 9.5 L 12.21 9.92 L 12.0 10.33 L 11.8 10.75 L 11.59 11.17 L 11.38 11.58 L 11.17 12.0 L 10.96 12.42 L 10.75 12.83 L 10.55 13.25 L 10.34 13.67 L 10.13 14.08 L 9.92 14.5 L 9.71 14.92 L 9.5 15.33 L 9.3 15.75 L 9.09 16.17 L 8.88 16.58 L 8.67 17.0" fill="none" stroke="#111" stroke-width="1.42" stroke-linecap="round" stroke-linejoin="round"/>
<path d="M 10.67 12.0 L 10.8 12.17 L 10.92 12.33 L 11.05 12.5 L 11.17 12.67 L 11.3 12.83 L 11.42 13.0 L 11.55 13.17 L 11.67 13.33 L 11.8 13.5 L 11.92 13.67 L 12.05 13.83 L 12.17 14.0 L 12.3 14.17 L 12.42 14.33 L 12.55 14.5 L 12.67 14.67 L 12.8 14.83 L 12.92 15.0 L 13.05 15.17 L 13.17 15.33 L 13.3 15.5 L 13.42 15.67 L 13.55 15.83 L 13.67 16.0" fill="none" stroke="#111" stroke-width="1.42" stroke-linecap="round" stroke-linejoin="round"/>
<path d="M 5.67 15.0 L 5.33 15.38 L 5.02 15.78 L 4.74 16.22 L 4.51 16.67 L 4.32 17.15 L 4.17 17.64 L 4.07 18.14 L 4.01 18.65 L 4.0 19.16 L 4.03 19.67 L 4.11 20.17 L 4.24 20.67 L 4.41 21.15 L 4.62 21.62 L 4.87 22.06 L 5.16 22.48 L 5.49 22.88 L 5.85 23.24 L 6.25 23.57 L 6.67 23.86 L 7.11 24.11 L 7.58 24.32 L 8.06 24.49 L 8.56 24.62" fill="none" stroke="#111" stroke-width="1.42" stroke-linecap="round" stroke-linejoin="round"/>
<path d="M 8.67 19.0 L 8.24 19.5 L 7.84 20.02 L 7.45 20.56 L 7.1 21.11 L 6.76 21.68 L 6.45 22.26 L 6.17 22.86 L 5.92 23.47 L 5.69 24.09 L 5.49 24.72 L 5.32 25.35 L 5.17 26.0 L 5.06 26.65 L 4.97 27.3 L 4.92 27.96 L 4.89 28.62 L 4.89 29.28 L 4.92 29.93 L 4.98 30.59 L 5.07 31.24 L 5.19 31.89 L 5.33 32.54 L 5.51 33.17 L 5.71 33.8" fill="none" stroke="#111" stroke-width="1.42" stroke-linecap="round" stroke-linejoin="round"/>
<path d="M 19.67 10.0 L 19.38 10.29 L 19.11 10.6 L 18.86 10.93 L 18.64 11.27 L 18.44 11.63 L 18.26 12.0 L 18.11 12.38 L 17.99 12.77 L 17.89 13.17 L 17.82 13.58 L 17.78 13.99 L 17.76 14.4 L 17.78 14.81 L 17.82 15.22 L 17.89 15.62 L 17.99 16.02 L 18.11 16.41 L 18.26 16.79 L 18.44 17.16 L 18.64 17.52 L 18.86 17.86 L 19.11 18.19 L 19.38 18.5 L 19.67 18.79 L 19.67 19.0 L 19.42 19.33 L 19.17 19.67 L 18.92 20.0 L 18.67 20.33 L 18.42 20.67 L 18.17 21.0 L 17.92 21.33 L 17.67 21.67 L 17.42 22.0 L 17.17 22.33 L 16.92 22.67 L 16.67 23.0 L 16.42 23.33 L 16.17 23.67 L 15.92 24.0 L 15.67 24.33 L 15.42 24.67 L 15.17 25.0 L 14.92 25.33 L 14.67 25.67 L 14.42 26.0 L 14.17 26.33 L 13.92 26.67 L 13.67 27.0" fill="none" stroke="#111" stroke-width="1.42" stroke-linecap="round" stroke-linejoin="round"/>
<path d="M 13.67 19.0 L 14.33 19.5 L 14.96 20.03 L 15.55 20.6 L 16.12 21.21 L 16.65 21.84 L 17.14 22.5 L 17.59 23.19 L 18.01 23.91 L 18.38 24.64 L 18.71 25.4 L 19.0 26.17 L 19.24 26.96 L 19.44 27.76 L 19.59 28.57 L 19.7 29.39 L 19.76 30.22 L 19.77 31.04 L 19.74 31.87 L 19.66 32.69 L 19.53 33.5 L 19.36 34.31 L 19.14 35.11 L 18.88 35.89 L 18.58 36.65" fill="none" stroke="#111" stroke-width="1.42" stroke-linecap="round" stroke-linejoin="round"/>
</svg>
