<?xml version="1.0" encoding="UTF-8"?>
<svg xmlns="http://www.w3.org/2000/svg" viewBox="0 0 28.00 35.00">
<path d="M 13.0 4.0 L 13.13 4.55 L 13.22 5.1 L 13.28 5.66 L 13.3 6.22 L 13.29 6.78 L 13.24 7.34 L 13.15 7.9 L 13.04 8.45 L 12.88 8.99 L 12.69 9.52 L 12.47 10.03 L 12.22 10.53 L 11.94 11.02 L 11.62 11.48 L 11.28 11.93 L 10.91 12.35 L 10.51 12.75 L 10.09 13.12 L 9.64 13.46 L 9.18 13.78 L 8.69 14.06 L 8.19 14.32 L 7.68 14.54 L 7.15 14.73" fill="none" stroke="#111" stroke-width="1.23" stroke-linecap="round" stroke-linejoin="round"/>
<path d="M 13.0 8.0 L 13.33 8.21 L 13.67 8.42 L 14.0 8.62 L 14.33 8.83 L 14.67 9.04 L 15.0 9.25 L 15.33 9.46 L 15.67 9.67 L 16.0 9.88 L 16.33 10.08 L 16.67 10.29 L 17.0 10.5 L 17.33 10.71 L 17.67 10.92 L 18.0 11.12 L 18.33 11.33 L 18.67 11.54 L 19.0 11.75 L 19.33 11.96 L 19.67 12.17 L 20.0 12.38 L 20.33 12.58 L 20.67 12.79 L 21.0 13.0" fill="none" stroke="#111" stroke-width="1.23" stroke-linecap="round" stroke-linejoin="round"/>
<path d="M 13.0 9.0 L 13.3 9.59 L 13.57 10.2 L 13.8 10.81 L 14.0 11.44 L 14.17 12.08 L 14.31 12.73 L 14.41 13.38 L 14.48 14.04 L 14.51 14.7 L 14.51 15.37 L 14.48 16.03 L 14.4 16.68 L 14.3 17.34 L 14.16 17.98 L 13.99 18.62 L 13.78 19.25 L 13.55 19.87 L 13.28 20.47 L 12.98 21.06 L 12.65 21.64 L 12.28 22.19 L 11.9 22.73 L 11.48 23.24 L 11.04 23.73" fill="none" stroke="#111" stroke-width="1.23" stroke-linecap="round" stroke-linejoin="round"/>
<path d="M 14.0 19.0 L 14.17 19.21 L 14.33 19.42 L 14.5 19.62 L 14.67 19.83 L 14.83 20.04 L 15.0 20.25 L 15.17 20.46 L 15.33 20.67 L 15.5 20.88 L 15.67 21.08 L 15.83 21.29 L 16.0 21.5 L 16.17 21.71 L 16.33 21.92 L 16.5 22.12 L 16.67 22.33 L 16.83 22.54 L 17.0 22.75 L 17.17 22.96 L 17.33 23.17 L 17.5 23.38 L 17.67 23.58 L 17.83 23.79 L 18.0 24.0" fill="none" stroke="#111" stroke-width="1.23" stroke-linecap="round" stroke-linejoin="round"/>
<path d="M 11.0 15.0 L 10.83 15.17 L 10.67 15.33 L 10.5 15.5 L 10.33 15.67 L 10.17 15.83 L 10.0 16.0 L 9.83 16.17 L 9.67 16.33 L 9.5 16.5 L 9.33 16.67 L 9.17 16.83 L 9.0 17.0 L 8.83 17.17 L 8.67 17.33 L 8.5 17.5 L 8.33 17.67 L 8.17 17.83 L 8.0 18.0 L 7.83 18.17 L 7.67 18.33 L 7.5 18.5 L 7.33 18.67 L 7.17 18.83 L 7.0 19.0" fill="none" stroke="#111" stroke-width="1.23" stroke-linecap="round" stroke-linejoin="round"/>
<path d="M 17.0 14.0 L 17.04 14.04 L 17.08 14.08 L 17.12 14.12 L 17.17 14.17 L 17.21 14.21 L 17.25 14.25 L 17.29 14.29 L 17.33 14.33 L 17.38 14.38 L 17.42 14.42 L 17.46 14.46 L 17.5 14.5 L 17.54 14.54 L 17.58 14.58 L 17.62 14.62 L 17.67 14.67 L 17.71 14.71 L 17.75 14.75 L 17.79 14.79 L 17.83 14.83 L 17.88 14.88 L 17.92 14.92 L 17.96 14.96 L 18.0 15.0" fill="none" stroke="#111" stroke-width="1.23" stroke-linecap="round" stroke-linejoin="round"/>
<path d="M 4.0 23.0 L 4.21 22.56 L 4.49 22.15 L 4.81 21.78 L 5.19 21.47 L 5.61 21.21 L 6.07 21.02 L 6.54 20.89 L 7.03 20.84 L 7.53 20.85 L 8.01 20.94 L 8.48 21.1 L 8.92 21.32 L 9.32 21.6 L 9.68 21.94 L 9.98 22.33 L 10.23 22.75 L 10.41 23.21 L 10.52 23.69 L 10.57 24.18 L 10.54 24.67 L 10.44 25.16 L 10.27 25.62 L 10.04 26.05 L 9.75 26.45 L 9.0 26.0 L 9.54 26.21 L 10.08 26.42 L 10.62 26.62 L 11.17 26.83 L 11.71 27.04 L 12.25 27.25 L 12.79 27.46 L 13.33 27.67 L 13.88 27.88 L 14.42 28.08 L 14.96 28.29 L 15.5 28.5 L 16.04 28.71 L 16.58 28.92 L 17.12 29.12 L 17.67 29.33 L 18.21 29.54 L 18.75 29.75 L 19.29 29.96 L 19.83 30.17 L 20.38 30.38 L 20.92 30.58 L 21.46 30.79 L 22.0 31.0" fill="none" stroke="#111" stroke-width="1.23" stroke-linecap="round" stroke-linejoin="round"/>
<path d="M 20.0 18.0 L 20.0 18.46 L 20.0 18.92 L 20.0 19.38 L 20.0 19.83 L 20.0 20.29 L 20.0 20.75 L 20.0 21.21 L 20.0 21.67 L 20.0 22.12 L 20.0 22.58 L 20.0 23.04 L 20.0 23.5 L 20.0 23.96 L 20.0 24.42 L 20.0 24.88 L 20.0 25.33 L 20.0 25.79 L 20.0 26.25 L 20.0 26.71 L 20.0 27.17 L 20.0 27.62 L 20.0 28.08 L 20.0 28.54 L 20.0 29.0" fill="none" stroke="#111" stroke-width="1.23" stroke-linecap="round" stroke-linejoin="round"/>
<path d="M 20.0 18.0 L 20.17 18.04 L 20.33 18.08 L 20.5 18.12 L 20.67 18.17 L 20.83 18.21 L 21.0 18.25 L 21.17 18.29 L 21.33 18.33 L 21.5 18.38 L 21.67 18.42 L 21.83 18.46 L 22.0 18.5 L 22.17 18.54 L 22.33 18.58 L 22.5 18.62 L 22.67 18.67 L 22.83 18.71 L 23.0 18.75 L 23.17 18.79 L 23.33 18.83 L 23.5 18.88 L 23.67 18.92 L 23.83 18.96 L 24.0 19.0" fill="none" stroke="#111" stroke-width="1.23" stroke-linecap="round" stroke-linejoin="round"/>
</svg>
