<?xml version="1.0" encoding="UTF-8"?>
<svg xmlns="http://www.w3.org/2000/svg" viewBox="0 0 24.00 38.00">
<path d="M 7.0 4.0 L 7.42 4.0 L 7.83 4.0 L 8.25 4.0 L 8.67 4.0 L 9.08 4.0 L 9.5 4.0 L 9.92 4.0 L 10.33 4.0 L 10.75 4.0 L 11.17 4.0 L 11.58 4.0 L 12.0 4.0 L 12.42 4.0 L 12.83 4.0 L 13.25 4.0 L 13.67 4.0 L 14.08 4.0 L 14.5 4.0 L 14.92 4.0 L 15.33 4.0 L 15.75 4.0 L 16.17 4.0 L 16.58 4.0 L 17.0 4.0" fill="none" stroke="#111" stroke-width="1.33" stroke-linecap="round" stroke-linejoin="round"/>
<path d="M 9.0 4.0 L 9.08 4.21 L 9.17 4.42 L 9.25 4.62 L 9.33 4.83 L 9.42 5.04 L 9.5 5.25 L 9.58 5.46 L 9.67 5.67 L 9.75 5.88 L 9.83 6.08 L 9.92 6.29 L 10.0 6.5 L 10.08 6.71 L 10.17 6.92 L 10.25 7.12 L 10.33 7.33 L 10.42 7.54 L 10.5 7.75 L 10.58 7.96 L 10.67 8.17 L 10.75 8.38 L 10.83 8.58 L 10.92 8.79 L 11.0 9.0 L 11.0 9.0 L 11.12 8.79 L 11.25 8.58 L 11.38 8.38 L 11.5 8.17 L 11.62 7.96 L 11.75 7.75 L 11.88 7.54 L 12.0 7.33 L 12.12 7.12 L 12.25 6.92 L 12.38 6.71 L 12.5 6.5 L 12.62 6.29 L 12.75 6.08 L 12.88 5.88 L 13.0 5.67 L 13.12 5.46 L 13.25 5.25 L 13.38 5.04 L 13.5 4.83 L 13.62 4.62 L 13.75 4.42 L 13.88 4.21 L 14.0 4.0" fill="none" stroke="#111" stroke-width="1.33" stroke-linecap="round" stroke-linejoin="round"/>
<path d="M 7.0 9.0 L 7.38 9.0 L 7.75 9.0 L 8.12 9.0 L 8.5 9.0 L 8.88 9.0 L 9.25 9.0 L 9.62 9.0 L 10.0 9.0 L 10.38 9.0 L 10.75 9.0 L 11.12 9.0 L 11.5 9.0 L 11.88 9.0 L 12.25 9.0 L 12.62 9.0 L 13.0 9.0 L 13.38 9.0 L 13.75 9.0 L 14.12 9.0 L 14.5 9.0 L 14.88 9.0 L 15.25 9.0 L 15.62 9.0 L 16.0 9.0" fill="none" stroke="#111" stroke-width="1.33" stroke-linecap="round" stroke-linejoin="round"/>
<path d="M 11.0 9.0 L 10.96 9.21 L 10.92 9.42 L 10.88 9.62 L 10.83 9.83 L 10.79 10.04 L 10.75 10.25 L 10.71 10.46 L 10.67 10.67 L 10.62 10.88 L 10.58 11.08 L 10.54 11.29 L 10.5 11.5 L 10.46 11.71 L 10.42 11.92 L 10.38 12.12 L 10.33 12.33 L 10.29 12.54 L 10.25 12.75 L 10.21 12.96 L 10.17 13.17 L 10.12 13.38 L 10.08 13.58 L 10.04 13.79 L 10.0 14.0" fill="none" stroke="#111" stroke-width="1.33" stroke-linecap="round" stroke-linejoin="round"/>
<path d="M 7.0 14.0 L 6.92 14.29 L 6.83 14.58 L 6.75 14.88 L 6.67 15.17 L 6.58 15.46 L 6.5 15.75 L 6.42 16.04 L 6.33 16.33 L 6.25 16.62 L 6.17 16.92 L 6.08 17.21 L 6.0 17.5 L 5.92 17.79 L 5.83 18.08 L 5.75 18.38 L 5.67 18.67 L 5.58 18.96 L 5.5 19.25 L 5.42 19.54 L 5.33 19.83 L 5.25 20.12 L 5.17 20.42 L 5.08 20.71 L 5.0 21.0" fill="none" stroke="#111" stroke-width="1.33" stroke-linecap="round" stroke-linejoin="round"/>
<path d="M 7.0 14.0 L 7.39 13.88 L 7.78 13.8 L 8.19 13.77 L 8.59 13.79 L 8.99 13.85 L 9.38 13.96 L 9.75 14.11 L 10.11 14.31 L 10.43 14.55 L 10.73 14.82 L 11.0 15.12 L 11.22 15.46 L 11.41 15.82 L 11.56 16.19 L 11.66 16.58 L 11.71 16.99 L 11.72 17.39 L 11.68 17.79 L 11.59 18.19 L 11.46 18.57 L 11.28 18.93 L 11.07 19.27 L 10.81 19.59 L 10.52 19.87" fill="none" stroke="#111" stroke-width="1.33" stroke-linecap="round" stroke-linejoin="round"/>
<path d="M 11.0 11.0 L 11.37 10.98 L 11.74 10.99 L 12.1 11.03 L 12.46 11.1 L 12.82 11.2 L 13.16 11.32 L 13.5 11.48 L 13.82 11.66 L 14.12 11.86 L 14.41 12.09 L 14.68 12.35 L 14.92 12.62 L 15.15 12.91 L 15.35 13.22 L 15.52 13.54 L 15.67 13.88 L 15.79 14.23 L 15.88 14.59 L 15.94 14.95 L 15.97 15.31 L 15.98 15.68 L 15.95 16.05 L 15.89 16.41 L 15.81 16.77 L 16.0 17.0 L 15.35 16.73 L 14.67 16.54 L 13.97 16.45 L 13.26 16.46 L 12.57 16.56 L 11.89 16.76 L 11.24 17.05 L 10.65 17.43 L 10.1 17.88 L 9.63 18.4 L 9.23 18.98 L 8.92 19.61 L 8.69 20.28 L 8.56 20.98 L 8.52 21.68 L 8.58 22.38 L 8.74 23.07 L 8.98 23.73 L 9.32 24.35 L 9.74 24.92 L 10.23 25.43 L 10.78 25.86 L 11.39 26.22 L 12.05 26.49 L 11.0 29.0 L 11.08 28.88 L 11.17 28.75 L 11.25 28.62 L 11.33 28.5 L 11.42 28.38 L 11.5 28.25 L 11.58 28.12 L 11.67 28.0 L 11.75 27.88 L 11.83 27.75 L 11.92 27.62 L 12.0 27.5 L 12.08 27.38 L 12.17 27.25 L 12.25 27.12 L 12.33 27.0 L 12.42 26.88 L 12.5 26.75 L 12.58 26.62 L 12.67 26.5 L 12.75 26.38 L 12.83 26.25 L 12.92 26.12 L 13.0 26.0" fill="none" stroke="#111" stroke-width="1.33" stroke-linecap="round" stroke-linejoin="round"/>
<path d="M 8.0 27.0 L 7.83 27.29 L 7.67 27.58 L 7.5 27.88 L 7.33 28.17 L 7.17 28.46 L 7.0 28.75 L 6.83 29.04 L 6.67 29.33 L 6.5 29.62 L 6.33 29.92 L 6.17 30.21 L 6.0 30.5 L 5.83 30.79 L 5.67 31.08 L 5.5 31.38 L 5.33 31.67 L 5.17 31.96 L 5.0 32.25 L 4.83 32.54 L 4.67 32.83 L 4.5 33.12 L 4.33 33.42 L 4.17 33.71 L 4.0 34.0" fill="none" stroke="#111" stroke-width="1.33" stroke-linecap="round" stroke-linejoin="round"/>
<path d="M 5.0 26.0 L 5.12 26.21 L 5.25 26.42 L 5.38 26.62 L 5.5 26.83 L 5.62 27.04 L 5.75 27.25 L 5.88 27.46 L 6.0 27.67 L 6.12 27.88 L 6.25 28.08 L 6.38 28.29 L 6.5 28.5 L 6.62 28.71 L 6.75 28.92 L 6.88 29.12 L 7.0 29.33 L 7.12 29.54 L 7.25 29.75 L 7.38 29.96 L 7.5 30.17 L 7.62 30.38 L 7.75 30.58 L 7.88 30.79 L 8.0 31.0" fill="none" stroke="#111" stroke-width="1.33" stroke-linecap="round" stroke-linejoin="round"/>
<path d="M 18.0 22.0 L 17.79 22.38 L 17.58 22.75 L 17.38 23.12 L 17.17 23.5 L 16.96 23.88 L 16.75 24.25 L 16.54 24.62 L 16.33 25.0 L 16.12 25.38 L 15.92 25.75 L 15.71 26.12 L 15.5 26.5 L 15.29 26.88 L 15.08 27.25 L 14.88 27.62 L 14.67 28.0 L 14.46 28.38 L 14.25 28.75 L 14.04 29.12 L 13.83 29.5 L 13.62 29.88 L 13.42 30.25 L 13.21 30.62 L 13.0 31.0" fill="none" stroke="#111" stroke-width="1.33" stroke-linecap="round" stroke-linejoin="round"/>
<path d="M 14.0 24.0 L 14.25 24.38 L 14.5 24.75 L 14.75 25.12 L 15.0 25.5 L 15.25 25.88 L 15.5 26.25 L 15.75 26.62 L 16.0 27.0 L 16.25 27.38 L 16.5 27.75 L 16.75 28.12 L 17.0 28.5 L 17.25 28.88 L 17.5 29.25 L 17.75 29.62 L 18.0 30.0 L 18.25 30.38 L 18.5 30.75 L 18.75 31.12 L 19.0 31.5 L 19.25 31.88 L 19.5 32.25 L 19.75 32.62 L 20.0 33.0" fill="none" stroke="#111" stroke-width="1.33" stroke-linecap="round" stroke-linejoin="round"/>
</svg>
