<?xml version="1.0" encoding="UTF-8"?>
<svg xmlns="http://www.w3.org/2000/svg" viewBox="0 0 22.00 14.00">
<path d="M 4.0 5.0 L 4.58 4.96 L 5.17 4.92 L 5.75 4.88 L 6.33 4.83 L 6.92 4.79 L 7.5 4.75 L 8.08 4.71 L 8.67 4.67 L 9.25 4.62 L 9.83 4.58 L 10.42 4.54 L 11.0 4.5 L 11.58 4.46 L 12.17 4.42 L 12.75 4.38 L 13.33 4.33 L 13.92 4.29 L 14.5 4.25 L 15.08 4.21 L 15.67 4.17 L 16.25 4.12 L 16.83 4.08 L 17.42 4.04 L 18.0 4.0" fill="none" stroke="#111" stroke-width="0.77" stroke-linecap="round" stroke-linejoin="round"/>
<path d="M 4.0 10.0 L 4.58 9.96 L 5.17 9.92 L 5.75 9.88 L 6.33 9.83 L 6.92 9.79 L 7.5 9.75 L 8.08 9.71 L 8.67 9.67 L 9.25 9.62 L 9.83 9.58 L 10.42 9.54 L 11.0 9.5 L 11.58 9.46 L 12.17 9.42 L 12.75 9.38 L 13.33 9.33 L 13.92 9.29 L 14.5 9.25 L 15.08 9.21 L 15.67 9.17 L 16.25 9.12 L 16.83 9.08 L 17.42 9.04 L 18.0 9.0" fill="none" stroke="#111" stroke-width="0.77" stroke-linecap="round" stroke-linejoin="round"/>
</svg>
