<?xml version="1.0" encoding="UTF-8"?>
<svg xmlns="http://www.w3.org/2000/svg" viewBox="0 0 25.77 34.00">
<path d="M 9.0 14.0 L 9.38 14.0 L 9.75 14.0 L 10.12 14.0 L 10.5 14.0 L 10.88 14.0 L 11.25 14.0 L 11.62 14.0 L 12.0 14.0 L 12.38 14.0 L 12.75 14.0 L 13.12 14.0 L 13.5 14.0 L 13.88 14.0 L 14.25 14.0 L 14.62 14.0 L 15.0 14.0 L 15.38 14.0 L 15.75 14.0 L 16.12 14.0 L 16.5 14.0 L 16.88 14.0 L 17.25 14.0 L 17.62 14.0 L 18.0 14.0 L 18.0 14.0 L 18.0 14.62 L 18.0 15.25 L 18.0 15.88 L 18.0 16.5 L 18.0 17.12 L 18.0 17.75 L 18.0 18.38 L 18.0 19.0 L 18.0 19.62 L 18.0 20.25 L 18.0 20.88 L 18.0 21.5 L 18.0 22.12 L 18.0 22.75 L 18.0 23.38 L 18.0 24.0 L 18.0 24.62 L 18.0 25.25 L 18.0 25.88 L 18.0 26.5 L 18.0 27.12 L 18.0 27.75 L 18.0 28.38 L 18.0 29.0" fill="none" stroke="#111" stroke-width="1.19" stroke-linecap="round" stroke-linejoin="round"/>
<path d="M 12.0 14.0 L 12.25 14.29 L 12.5 14.58 L 12.75 14.88 L 13.0 15.17 L 13.25 15.46 L 13.5 15.75 L 13.75 16.04 L 14.0 16.33 L 14.25 16.62 L 14.5 16.92 L 14.75 17.21 L 15.0 17.5 L 15.25 17.79 L 15.5 18.08 L 15.75 18.38 L 16.0 18.67 L 16.25 18.96 L 16.5 19.25 L 16.75 19.54 L 17.0 19.83 L 17.25 20.12 L 17.5 20.42 L 17.75 20.71 L 18.0 21.0" fill="none" stroke="#111" stroke-width="1.19" stroke-linecap="round" stroke-linejoin="round"/>
<path d="M 14.0 17.0 L 13.75 17.12 L 13.5 17.25 L 13.25 17.38 L 13.0 17.5 L 12.75 17.62 L 12.5 17.75 L 12.25 17.88 L 12.0 18.0 L 11.75 18.12 L 11.5 18.25 L 11.25 18.38 L 11.0 18.5 L 10.75 18.62 L 10.5 18.75 L 10.25 18.88 L 10.0 19.0 L 9.75 19.12 L 9.5 19.25 L 9.25 19.38 L 9.0 19.5 L 8.75 19.62 L 8.5 19.75 L 8.25 19.88 L 8.0 20.0" fill="none" stroke="#111" stroke-width="1.19" stroke-linecap="round" stroke-linejoin="round"/>
<path d="M 16.0 19.0 L 15.67 19.17 L 15.33 19.33 L 15.0 19.5 L 14.67 19.67 L 14.33 19.83 L 14.0 20.0 L 13.67 20.17 L 13.33 20.33 L 13.0 20.5 L 12.67 20.67 L 12.33 20.83 L 12.0 21.0 L 11.67 21.17 L 11.33 21.33 L 11.0 21.5 L 10.67 21.67 L 10.33 21.83 L 10.0 22.0 L 9.67 22.17 L 9.33 22.33 L 9.0 22.5 L 8.67 22.67 L 8.33 22.83 L 8.0 23.0" fill="none" stroke="#111" stroke-width="1.19" stroke-linecap="round" stroke-linejoin="round"/>
<path d="M 8.0 18.0 L 8.0 18.5 L 8.0 19.0 L 8.0 19.5 L 8.0 20.0 L 8.0 20.5 L 8.0 21.0 L 8.0 21.5 L 8.0 22.0 L 8.0 22.5 L 8.0 23.0 L 8.0 23.5 L 8.0 24.0 L 8.0 24.5 L 8.0 25.0 L 8.0 25.5 L 8.0 26.0 L 8.0 26.5 L 8.0 27.0 L 8.0 27.5 L 8.0 28.0 L 8.0 28.5 L 8.0 29.0 L 8.0 29.5 L 8.0 30.0" fill="none" stroke="#111" stroke-width="1.19" stroke-linecap="round" stroke-linejoin="round"/>
<path d="M 8.0 4.0 L 7.48 4.39 L 6.99 4.82 L 6.53 5.29 L 6.11 5.78 L 5.73 6.31 L 5.38 6.86 L 5.08 7.44 L 4.82 8.04 L 4.61 8.66 L 4.45 9.29 L 4.33 9.93 L 4.26 10.58 L 4.23 11.23 L 4.26 11.88 L 4.33 12.53 L 4.46 13.17 L 4.63 13.8 L 4.84 14.41 L 5.1 15.01 L 5.41 15.59 L 5.76 16.14 L 6.14 16.67 L 6.57 17.16 L 7.03 17.62" fill="none" stroke="#111" stroke-width="1.19" stroke-linecap="round" stroke-linejoin="round"/>
<path d="M 6.0 8.0 L 6.08 8.12 L 6.17 8.25 L 6.25 8.38 L 6.33 8.5 L 6.42 8.62 L 6.5 8.75 L 6.58 8.88 L 6.67 9.0 L 6.75 9.12 L 6.83 9.25 L 6.92 9.38 L 7.0 9.5 L 7.08 9.62 L 7.17 9.75 L 7.25 9.88 L 7.33 10.0 L 7.42 10.12 L 7.5 10.25 L 7.58 10.38 L 7.67 10.5 L 7.75 10.62 L 7.83 10.75 L 7.92 10.88 L 8.0 11.0" fill="none" stroke="#111" stroke-width="1.19" stroke-linecap="round" stroke-linejoin="round"/>
<path d="M 4.0 11.0 L 4.17 11.17 L 4.33 11.33 L 4.5 11.5 L 4.67 11.67 L 4.83 11.83 L 5.0 12.0 L 5.17 12.17 L 5.33 12.33 L 5.5 12.5 L 5.67 12.67 L 5.83 12.83 L 6.0 13.0 L 6.17 13.17 L 6.33 13.33 L 6.5 13.5 L 6.67 13.67 L 6.83 13.83 L 7.0 14.0 L 7.17 14.17 L 7.33 14.33 L 7.5 14.5 L 7.67 14.67 L 7.83 14.83 L 8.0 15.0" fill="none" stroke="#111" stroke-width="1.19" stroke-linecap="round" stroke-linejoin="round"/>
<path d="M 20.0 4.0 L 19.96 4.21 L 19.92 4.42 L 19.88 4.62 L 19.83 4.83 L 19.79 5.04 L 19.75 5.25 L 19.71 5.46 L 19.67 5.67 L 19.62 5.88 L 19.58 6.08 L 19.54 6.29 L 19.5 6.5 L 19.46 6.71 L 19.42 6.92 L 19.38 7.12 L 19.33 7.33 L 19.29 7.54 L 19.25 7.75 L 19.21 7.96 L 19.17 8.17 L 19.12 8.38 L 19.08 8.58 L 19.04 8.79 L 19.0 9.0 L 19.0 9.0 L 19.36 9.16 L 19.7 9.36 L 20.02 9.59 L 20.32 9.84 L 20.6 10.12 L 20.85 10.42 L 21.08 10.74 L 21.27 11.08 L 21.44 11.44 L 21.57 11.81 L 21.67 12.19 L 21.74 12.57 L 21.77 12.97 L 21.76 13.36 L 21.73 13.75 L 21.65 14.14 L 21.55 14.52 L 21.41 14.88 L 21.24 15.24 L 21.04 15.58 L 20.81 15.89 L 20.55 16.19 L 20.27 16.46 L 19.96 16.71" fill="none" stroke="#111" stroke-width="1.19" stroke-linecap="round" stroke-linejoin="round"/>
<path d="M 19.0 9.0 L 18.96 9.08 L 18.92 9.17 L 18.88 9.25 L 18.83 9.33 L 18.79 9.42 L 18.75 9.5 L 18.71 9.58 L 18.67 9.67 L 18.62 9.75 L 18.58 9.83 L 18.54 9.92 L 18.5 10.0 L 18.46 10.08 L 18.42 10.17 L 18.38 10.25 L 18.33 10.33 L 18.29 10.42 L 18.25 10.5 L 18.21 10.58 L 18.17 10.67 L 18.12 10.75 L 18.08 10.83 L 18.04 10.92 L 18.0 11.0" fill="none" stroke="#111" stroke-width="1.19" stroke-linecap="round" stroke-linejoin="round"/>
<path d="M 21.0 12.0 L 20.96 12.08 L 20.92 12.17 L 20.88 12.25 L 20.83 12.33 L 20.79 12.42 L 20.75 12.5 L 20.71 12.58 L 20.67 12.67 L 20.62 12.75 L 20.58 12.83 L 20.54 12.92 L 20.5 13.0 L 20.46 13.08 L 20.42 13.17 L 20.38 13.25 L 20.33 13.33 L 20.29 13.42 L 20.25 13.5 L 20.21 13.58 L 20.17 13.67 L 20.12 13.75 L 20.08 13.83 L 20.04 13.92 L 20.0 14.0" fill="none" stroke="#111" stroke-width="1.19" stroke-linecap="round" stroke-linejoin="round"/>
</svg>
