<?xml version="1.0" encoding="UTF-8"?>
<svg xmlns="http://www.w3.org/2000/svg" viewBox="0 0 22.68 32.00">
<path d="M 4.0 4.0 L 4.0 5.0 L 4.0 6.0 L 4.0 7.0 L 4.0 8.0 L 4.0 9.0 L 4.0 10.0 L 4.0 11.0 L 4.0 12.0 L 4.0 13.0 L 4.0 14.0 L 4.0 15.0 L 4.0 16.0 L 4.0 17.0 L 4.0 18.0 L 4.0 19.0 L 4.0 20.0 L 4.0 21.0 L 4.0 22.0 L 4.0 23.0 L 4.0 24.0 L 4.0 25.0 L 4.0 26.0 L 4.0 27.0 L 4.0 28.0" fill="none" stroke="#111" stroke-width="1.12" stroke-linecap="round" stroke-linejoin="round"/>
<path d="M 4.0 4.0 L 4.54 4.0 L 5.08 4.0 L 5.62 4.0 L 6.17 4.0 L 6.71 4.0 L 7.25 4.0 L 7.79 4.0 L 8.33 4.0 L 8.88 4.0 L 9.42 4.0 L 9.96 4.0 L 10.5 4.0 L 11.04 4.0 L 11.58 4.0 L 12.12 4.0 L 12.67 4.0 L 13.21 4.0 L 13.75 4.0 L 14.29 4.0 L 14.83 4.0 L 15.38 4.0 L 15.92 4.0 L 16.46 4.0 L 17.0 4.0" fill="none" stroke="#111" stroke-width="1.12" stroke-linecap="round" stroke-linejoin="round"/>
<path d="M 12.0 6.0 L 12.51 6.58 L 12.97 7.2 L 13.36 7.87 L 13.68 8.57 L 13.94 9.3 L 14.12 10.05 L 14.22 10.82 L 14.25 11.59 L 14.21 12.36 L 14.08 13.13 L 13.89 13.87 L 13.62 14.6 L 13.28 15.29 L 12.87 15.95 L 12.41 16.56 L 11.88 17.13 L 11.3 17.64 L 10.67 18.09 L 10.0 18.48 L 9.3 18.8 L 8.57 19.05 L 7.82 19.23 L 7.05 19.33 L 6.28 19.35" fill="none" stroke="#111" stroke-width="1.12" stroke-linecap="round" stroke-linejoin="round"/>
<path d="M 6.0 10.0 L 6.92 10.31 L 7.82 10.66 L 8.7 11.07 L 9.56 11.52 L 10.39 12.01 L 11.2 12.56 L 11.97 13.14 L 12.71 13.76 L 13.41 14.43 L 14.08 15.13 L 14.71 15.87 L 15.3 16.64 L 15.85 17.44 L 16.35 18.27 L 16.8 19.12 L 17.21 20.0 L 17.57 20.9 L 17.89 21.82 L 18.15 22.75 L 18.36 23.7 L 18.52 24.65 L 18.62 25.62 L 18.68 26.58 L 18.68 27.55" fill="none" stroke="#111" stroke-width="1.12" stroke-linecap="round" stroke-linejoin="round"/>
</svg>
