<?xml version="1.0" encoding="UTF-8"?>
<svg xmlns="http://www.w3.org/2000/svg" viewBox="0 0 28.95 40.00">
<path d="M 8.3 4.0 L 7.82 5.22 L 7.56 6.51 L 7.51 7.82 L 7.69 9.12 L 8.08 10.37 L 8.68 11.54 L 9.46 12.59 L 10.41 13.5 L 11.5 14.23 L 12.7 14.77 L 13.97 15.1 L 15.28 15.21 L 16.59 15.1 L 17.86 14.77 L 19.05 14.23 L 20.14 13.5 L 21.09 12.59 L 21.88 11.54 L 22.48 10.37 L 22.87 9.12 L 23.05 7.82 L 23.0 6.51 L 22.73 5.22 L 22.26 4.0" fill="none" stroke="#111" stroke-width="1.40" stroke-linecap="round" stroke-linejoin="round"/>
<path d="M 8.3 4.0 L 8.51 4.21 L 8.72 4.42 L 8.93 4.63 L 9.13 4.83 L 9.34 5.04 L 9.55 5.25 L 9.76 5.46 L 9.97 5.67 L 10.18 5.88 L 10.38 6.08 L 10.59 6.29 L 10.8 6.5 L 11.01 6.71 L 11.22 6.92 L 11.43 7.13 L 11.63 7.33 L 11.84 7.54 L 12.05 7.75 L 12.26 7.96 L 12.47 8.17 L 12.68 8.38 L 12.88 8.58 L 13.09 8.79 L 13.3 9.0" fill="none" stroke="#111" stroke-width="1.40" stroke-linecap="round" stroke-linejoin="round"/>
<path d="M 16.3 9.0 L 16.47 8.79 L 16.63 8.58 L 16.8 8.38 L 16.97 8.17 L 17.13 7.96 L 17.3 7.75 L 17.47 7.54 L 17.63 7.33 L 17.8 7.13 L 17.97 6.92 L 18.13 6.71 L 18.3 6.5 L 18.47 6.29 L 18.63 6.08 L 18.8 5.88 L 18.97 5.67 L 19.13 5.46 L 19.3 5.25 L 19.47 5.04 L 19.63 4.83 L 19.8 4.63 L 19.97 4.42 L 20.13 4.21 L 20.3 4.0" fill="none" stroke="#111" stroke-width="1.40" stroke-linecap="round" stroke-linejoin="round"/>
<path d="M 8.3 9.0 L 8.8 9.0 L 9.3 9.0 L 9.8 9.0 L 10.3 9.0 L 10.8 9.0 L 11.3 9.0 L 11.8 9.0 L 12.3 9.0 L 12.8 9.0 L 13.3 9.0 L 13.8 9.0 L 14.3 9.0 L 14.8 9.0 L 15.3 9.0 L 15.8 9.0 L 16.3 9.0 L 16.8 9.0 L 17.3 9.0 L 17.8 9.0 L 18.3 9.0 L 18.8 9.0 L 19.3 9.0 L 19.8 9.0 L 20.3 9.0" fill="none" stroke="#111" stroke-width="1.40" stroke-linecap="round" stroke-linejoin="round"/>
<path d="M 12.3 16.0 L 11.48 16.26 L 10.69 16.58 L 9.92 16.96 L 9.18 17.4 L 8.48 17.89 L 7.81 18.43 L 7.19 19.02 L 6.62 19.66 L 6.09 20.34 L 5.62 21.06 L 5.21 21.81 L 4.85 22.59 L 4.55 23.4 L 4.32 24.22 L 4.15 25.06 L 4.04 25.91 L 4.0 26.77 L 4.02 27.63 L 4.11 28.48 L 4.27 29.33 L 4.48 30.16 L 4.76 30.97 L 5.1 31.76 L 5.5 32.52" fill="none" stroke="#111" stroke-width="1.40" stroke-linecap="round" stroke-linejoin="round"/>
<path d="M 18.3 16.0 L 19.01 16.24 L 19.69 16.53 L 20.35 16.87 L 20.97 17.27 L 21.57 17.72 L 22.12 18.21 L 22.64 18.74 L 23.11 19.32 L 23.53 19.93 L 23.9 20.57 L 24.22 21.25 L 24.48 21.94 L 24.69 22.65 L 24.84 23.38 L 24.93 24.12 L 24.95 24.86 L 24.92 25.6 L 24.83 26.34 L 24.69 27.07 L 24.48 27.78 L 24.21 28.48 L 23.9 29.15 L 23.52 29.79 L 23.1 30.4" fill="none" stroke="#111" stroke-width="1.40" stroke-linecap="round" stroke-linejoin="round"/>
<path d="M 11.3 21.0 L 11.43 21.25 L 11.55 21.5 L 11.68 21.75 L 11.8 22.0 L 11.93 22.25 L 12.05 22.5 L 12.18 22.75 L 12.3 23.0 L 12.43 23.25 L 12.55 23.5 L 12.68 23.75 L 12.8 24.0 L 12.93 24.25 L 13.05 24.5 L 13.18 24.75 L 13.3 25.0 L 13.43 25.25 L 13.55 25.5 L 13.68 25.75 L 13.8 26.0 L 13.93 26.25 L 14.05 26.5 L 14.18 26.75 L 14.3 27.0 L 14.3 27.0 L 14.43 26.71 L 14.55 26.42 L 14.68 26.13 L 14.8 25.83 L 14.93 25.54 L 15.05 25.25 L 15.18 24.96 L 15.3 24.67 L 15.43 24.38 L 15.55 24.08 L 15.68 23.79 L 15.8 23.5 L 15.93 23.21 L 16.05 22.92 L 16.18 22.63 L 16.3 22.33 L 16.43 22.04 L 16.55 21.75 L 16.68 21.46 L 16.8 21.17 L 16.93 20.88 L 17.05 20.58 L 17.18 20.29 L 17.3 20.0" fill="none" stroke="#111" stroke-width="1.40" stroke-linecap="round" stroke-linejoin="round"/>
<path d="M 14.3 27.0 L 14.3 27.38 L 14.3 27.75 L 14.3 28.13 L 14.3 28.5 L 14.3 28.88 L 14.3 29.25 L 14.3 29.63 L 14.3 30.0 L 14.3 30.38 L 14.3 30.75 L 14.3 31.13 L 14.3 31.5 L 14.3 31.88 L 14.3 32.25 L 14.3 32.63 L 14.3 33.0 L 14.3 33.38 L 14.3 33.75 L 14.3 34.13 L 14.3 34.5 L 14.3 34.88 L 14.3 35.25 L 14.3 35.63 L 14.3 36.0" fill="none" stroke="#111" stroke-width="1.40" stroke-linecap="round" stroke-linejoin="round"/>
<path d="M 5.3 25.0 L 5.55 24.83 L 5.8 24.67 L 6.05 24.5 L 6.3 24.33 L 6.55 24.17 L 6.8 24.0 L 7.05 23.83 L 7.3 23.67 L 7.55 23.5 L 7.8 23.33 L 8.05 23.17 L 8.3 23.0 L 8.55 22.83 L 8.8 22.67 L 9.05 22.5 L 9.3 22.33 L 9.55 22.17 L 9.8 22.0 L 10.05 21.83 L 10.3 21.67 L 10.55 21.5 L 10.8 21.33 L 11.05 21.17 L 11.3 21.0" fill="none" stroke="#111" stroke-width="1.40" stroke-linecap="round" stroke-linejoin="round"/>
<path d="M 17.3 20.0 L 17.55 20.29 L 17.8 20.58 L 18.05 20.88 L 18.3 21.17 L 18.55 21.46 L 18.8 21.75 L 19.05 22.04 L 19.3 22.33 L 19.55 22.63 L 19.8 22.92 L 20.05 23.21 L 20.3 23.5 L 20.55 23.79 L 20.8 24.08 L 21.05 24.38 L 21.3 24.67 L 21.55 24.96 L 21.8 25.25 L 22.05 25.54 L 22.3 25.83 L 22.55 26.13 L 22.8 26.42 L 23.05 26.71 L 23.3 27.0" fill="none" stroke="#111" stroke-width="1.40" stroke-linecap="round" stroke-linejoin="round"/>
</svg>
