<?xml version="1.0" encoding="UTF-8"?>
<svg xmlns="http://www.w3.org/2000/svg" viewBox="0 0 27.31 41.69">
<path d="M 9.0 6.0 L 8.79 6.21 L 8.58 6.42 L 8.38 6.62 L 8.17 6.83 L 7.96 7.04 L 7.75 7.25 L 7.54 7.46 L 7.33 7.67 L 7.12 7.88 L 6.92 8.08 L 6.71 8.29 L 6.5 8.5 L 6.29 8.71 L 6.08 8.92 L 5.88 9.12 L 5.67 9.33 L 5.46 9.54 L 5.25 9.75 L 5.04 9.96 L 4.83 10.17 L 4.62 10.38 L 4.42 10.58 L 4.21 10.79 L 4.0 11.0" fill="none" stroke="#111" stroke-width="1.46" stroke-linecap="round" stroke-linejoin="round"/>
<path d="M 9.0 6.0 L 9.17 6.17 L 9.33 6.33 L 9.5 6.5 L 9.67 6.67 L 9.83 6.83 L 10.0 7.0 L 10.17 7.17 L 10.33 7.33 L 10.5 7.5 L 10.67 7.67 L 10.83 7.83 L 11.0 8.0 L 11.17 8.17 L 11.33 8.33 L 11.5 8.5 L 11.67 8.67 L 11.83 8.83 L 12.0 9.0 L 12.17 9.17 L 12.33 9.33 L 12.5 9.5 L 12.67 9.67 L 12.83 9.83 L 13.0 10.0" fill="none" stroke="#111" stroke-width="1.46" stroke-linecap="round" stroke-linejoin="round"/>
<path d="M 6.0 9.0 L 6.25 9.0 L 6.5 9.0 L 6.75 9.0 L 7.0 9.0 L 7.25 9.0 L 7.5 9.0 L 7.75 9.0 L 8.0 9.0 L 8.25 9.0 L 8.5 9.0 L 8.75 9.0 L 9.0 9.0 L 9.25 9.0 L 9.5 9.0 L 9.75 9.0 L 10.0 9.0 L 10.25 9.0 L 10.5 9.0 L 10.75 9.0 L 11.0 9.0 L 11.25 9.0 L 11.5 9.0 L 11.75 9.0 L 12.0 9.0" fill="none" stroke="#111" stroke-width="1.46" stroke-linecap="round" stroke-linejoin="round"/>
<path d="M 10.0 9.0 L 9.83 9.25 L 9.67 9.5 L 9.5 9.75 L 9.33 10.0 L 9.17 10.25 L 9.0 10.5 L 8.83 10.75 L 8.67 11.0 L 8.5 11.25 L 8.33 11.5 L 8.17 11.75 L 8.0 12.0 L 7.83 12.25 L 7.67 12.5 L 7.5 12.75 L 7.33 13.0 L 7.17 13.25 L 7.0 13.5 L 6.83 13.75 L 6.67 14.0 L 6.5 14.25 L 6.33 14.5 L 6.17 14.75 L 6.0 15.0 L 6.0 15.0 L 6.12 15.08 L 6.25 15.17 L 6.38 15.25 L 6.5 15.33 L 6.62 15.42 L 6.75 15.5 L 6.88 15.58 L 7.0 15.67 L 7.12 15.75 L 7.25 15.83 L 7.38 15.92 L 7.5 16.0 L 7.62 16.08 L 7.75 16.17 L 7.88 16.25 L 8.0 16.33 L 8.12 16.42 L 8.25 16.5 L 8.38 16.58 L 8.5 16.67 L 8.62 16.75 L 8.75 16.83 L 8.88 16.92 L 9.0 17.0 L 9.0 17.0 L 9.39 16.87 L 9.77 16.71 L 10.14 16.51 L 10.48 16.28 L 10.79 16.01 L 11.08 15.71 L 11.34 15.39 L 11.56 15.04 L 11.75 14.67 L 11.9 14.28 L 12.01 13.89 L 12.08 13.48 L 12.11 13.07 L 12.1 12.65 L 12.05 12.24 L 11.96 11.84 L 11.83 11.45 L 11.66 11.07 L 11.45 10.71 L 11.21 10.37 L 10.94 10.06 L 10.64 9.78 L 10.31 9.53 L 9.96 9.31" fill="none" stroke="#111" stroke-width="1.46" stroke-linecap="round" stroke-linejoin="round"/>
<path d="M 7.0 13.0 L 7.17 13.0 L 7.33 13.0 L 7.5 13.0 L 7.67 13.0 L 7.83 13.0 L 8.0 13.0 L 8.17 13.0 L 8.33 13.0 L 8.5 13.0 L 8.67 13.0 L 8.83 13.0 L 9.0 13.0 L 9.17 13.0 L 9.33 13.0 L 9.5 13.0 L 9.67 13.0 L 9.83 13.0 L 10.0 13.0 L 10.17 13.0 L 10.33 13.0 L 10.5 13.0 L 10.67 13.0 L 10.83 13.0 L 11.0 13.0" fill="none" stroke="#111" stroke-width="1.46" stroke-linecap="round" stroke-linejoin="round"/>
<path d="M 8.0 16.0 L 7.66 16.52 L 7.43 17.1 L 7.3 17.71 L 7.3 18.34 L 7.4 18.95 L 7.62 19.54 L 7.95 20.07 L 8.36 20.54 L 8.86 20.91 L 9.42 21.19 L 10.02 21.37 L 10.64 21.42 L 11.26 21.37 L 11.86 21.19 L 12.42 20.91 L 12.91 20.54 L 13.33 20.07 L 13.65 19.54 L 13.87 18.95 L 13.98 18.34 L 13.97 17.71 L 13.85 17.1 L 13.62 16.52 L 13.28 16.0" fill="none" stroke="#111" stroke-width="1.46" stroke-linecap="round" stroke-linejoin="round"/>
<path d="M 5.0 18.0 L 5.0 18.21 L 5.0 18.42 L 5.0 18.62 L 5.0 18.83 L 5.0 19.04 L 5.0 19.25 L 5.0 19.46 L 5.0 19.67 L 5.0 19.88 L 5.0 20.08 L 5.0 20.29 L 5.0 20.5 L 5.0 20.71 L 5.0 20.92 L 5.0 21.12 L 5.0 21.33 L 5.0 21.54 L 5.0 21.75 L 5.0 21.96 L 5.0 22.17 L 5.0 22.38 L 5.0 22.58 L 5.0 22.79 L 5.0 23.0" fill="none" stroke="#111" stroke-width="1.46" stroke-linecap="round" stroke-linejoin="round"/>
<path d="M 13.0 17.0 L 13.0 17.12 L 13.0 17.25 L 13.0 17.38 L 13.0 17.5 L 13.0 17.62 L 13.0 17.75 L 13.0 17.88 L 13.0 18.0 L 13.0 18.12 L 13.0 18.25 L 13.0 18.38 L 13.0 18.5 L 13.0 18.62 L 13.0 18.75 L 13.0 18.88 L 13.0 19.0 L 13.0 19.12 L 13.0 19.25 L 13.0 19.38 L 13.0 19.5 L 13.0 19.62 L 13.0 19.75 L 13.0 19.88 L 13.0 20.0" fill="none" stroke="#111" stroke-width="1.46" stroke-linecap="round" stroke-linejoin="round"/>
<path d="M 18.0 4.0 L 18.0 5.12 L 18.0 6.25 L 18.0 7.38 L 18.0 8.5 L 18.0 9.62 L 18.0 10.75 L 18.0 11.88 L 18.0 13.0 L 18.0 14.12 L 18.0 15.25 L 18.0 16.38 L 18.0 17.5 L 18.0 18.62 L 18.0 19.75 L 18.0 20.88 L 18.0 22.0 L 18.0 23.12 L 18.0 24.25 L 18.0 25.38 L 18.0 26.5 L 18.0 27.62 L 18.0 28.75 L 18.0 29.88 L 18.0 31.0" fill="none" stroke="#111" stroke-width="1.46" stroke-linecap="round" stroke-linejoin="round"/>
<path d="M 18.0 9.0 L 17.75 9.14 L 17.5 9.3 L 17.26 9.46 L 17.03 9.64 L 16.81 9.83 L 16.6 10.04 L 16.4 10.25 L 16.21 10.47 L 16.04 10.71 L 15.87 10.95 L 15.72 11.2 L 15.59 11.46 L 15.46 11.72 L 15.35 11.99 L 15.26 12.27 L 15.18 12.55 L 15.11 12.83 L 15.06 13.12 L 15.02 13.41 L 15.0 13.7 L 15.0 13.99 L 15.01 14.28 L 15.03 14.57 L 15.07 14.86 L 15.0 15.0 L 15.12 15.04 L 15.25 15.08 L 15.38 15.12 L 15.5 15.17 L 15.62 15.21 L 15.75 15.25 L 15.88 15.29 L 16.0 15.33 L 16.12 15.38 L 16.25 15.42 L 16.38 15.46 L 16.5 15.5 L 16.62 15.54 L 16.75 15.58 L 16.88 15.62 L 17.0 15.67 L 17.12 15.71 L 17.25 15.75 L 17.38 15.79 L 17.5 15.83 L 17.62 15.88 L 17.75 15.92 L 17.88 15.96 L 18.0 16.0" fill="none" stroke="#111" stroke-width="1.46" stroke-linecap="round" stroke-linejoin="round"/>
<path d="M 18.0 16.0 L 18.37 15.88 L 18.72 15.72 L 19.05 15.52 L 19.35 15.29 L 19.64 15.03 L 19.89 14.74 L 20.1 14.42 L 20.28 14.08 L 20.43 13.72 L 20.53 13.35 L 20.59 12.97 L 20.61 12.59 L 20.59 12.2 L 20.53 11.82 L 20.43 11.45 L 20.28 11.09 L 20.1 10.75 L 19.89 10.44 L 19.64 10.14 L 19.35 9.88 L 19.05 9.65 L 18.72 9.45 L 18.37 9.29 L 18.0 9.17" fill="none" stroke="#111" stroke-width="1.46" stroke-linecap="round" stroke-linejoin="round"/>
<path d="M 14.0 6.0 L 14.17 6.12 L 14.33 6.25 L 14.5 6.38 L 14.67 6.5 L 14.83 6.62 L 15.0 6.75 L 15.17 6.88 L 15.33 7.0 L 15.5 7.12 L 15.67 7.25 L 15.83 7.38 L 16.0 7.5 L 16.17 7.62 L 16.33 7.75 L 16.5 7.88 L 16.67 8.0 L 16.83 8.12 L 17.0 8.25 L 17.17 8.38 L 17.33 8.5 L 17.5 8.62 L 17.67 8.75 L 17.83 8.88 L 18.0 9.0" fill="none" stroke="#111" stroke-width="1.46" stroke-linecap="round" stroke-linejoin="round"/>
<path d="M 18.0 16.0 L 17.72 16.11 L 17.45 16.24 L 17.18 16.38 L 16.93 16.55 L 16.68 16.72 L 16.45 16.92 L 16.23 17.12 L 16.03 17.34 L 15.84 17.58 L 15.66 17.82 L 15.5 18.08 L 15.36 18.34 L 15.23 18.62 L 15.12 18.9 L 15.03 19.19 L 14.96 19.48 L 14.91 19.78 L 14.87 20.08 L 14.86 20.38 L 14.86 20.68 L 14.88 20.98 L 14.93 21.28 L 14.99 21.58 L 15.07 21.87 L 15.0 22.0 L 15.44 22.34 L 15.92 22.62 L 16.44 22.81 L 16.99 22.92 L 17.55 22.95 L 18.1 22.89 L 18.64 22.75 L 19.15 22.53 L 19.62 22.23 L 20.03 21.86 L 20.39 21.43 L 20.68 20.96 L 20.89 20.44 L 21.02 19.9 L 21.06 19.34 L 21.02 18.79 L 20.89 18.25 L 20.68 17.73 L 20.39 17.25 L 20.04 16.82 L 19.62 16.46 L 19.15 16.16 L 18.64 15.93 L 18.11 15.79" fill="none" stroke="#111" stroke-width="1.46" stroke-linecap="round" stroke-linejoin="round"/>
<path d="M 16.0 24.0 L 15.53 24.3 L 15.07 24.63 L 14.64 24.99 L 14.24 25.38 L 13.86 25.79 L 13.51 26.23 L 13.19 26.69 L 12.9 27.17 L 12.64 27.67 L 12.41 28.19 L 12.23 28.72 L 12.07 29.26 L 11.95 29.8 L 11.87 30.36 L 11.83 30.92 L 11.82 31.48 L 11.85 32.04 L 11.92 32.6 L 12.02 33.15 L 12.16 33.69 L 12.33 34.23 L 12.54 34.75 L 12.79 35.25 L 13.06 35.74" fill="none" stroke="#111" stroke-width="1.46" stroke-linecap="round" stroke-linejoin="round"/>
<path d="M 13.0 23.0 L 13.08 23.29 L 13.17 23.58 L 13.25 23.88 L 13.33 24.17 L 13.42 24.46 L 13.5 24.75 L 13.58 25.04 L 13.67 25.33 L 13.75 25.62 L 13.83 25.92 L 13.92 26.21 L 14.0 26.5 L 14.08 26.79 L 14.17 27.08 L 14.25 27.38 L 14.33 27.67 L 14.42 27.96 L 14.5 28.25 L 14.58 28.54 L 14.67 28.83 L 14.75 29.12 L 14.83 29.42 L 14.92 29.71 L 15.0 30.0" fill="none" stroke="#111" stroke-width="1.46" stroke-linecap="round" stroke-linejoin="round"/>
<path d="M 22.0 21.0 L 22.29 21.36 L 22.54 21.75 L 22.76 22.15 L 22.95 22.57 L 23.1 23.01 L 23.21 23.46 L 23.28 23.92 L 23.31 24.38 L 23.3 24.84 L 23.25 25.3 L 23.16 25.75 L 23.04 26.19 L 22.87 26.63 L 22.67 27.04 L 22.43 27.44 L 22.16 27.81 L 21.86 28.16 L 21.53 28.48 L 21.17 28.78 L 20.79 29.04 L 20.39 29.27 L 19.97 29.46 L 19.54 29.61 L 19.09 29.73" fill="none" stroke="#111" stroke-width="1.46" stroke-linecap="round" stroke-linejoin="round"/>
<path d="M 19.0 24.0 L 19.51 24.39 L 19.99 24.82 L 20.45 25.27 L 20.87 25.76 L 21.26 26.27 L 21.61 26.81 L 21.93 27.37 L 22.2 27.95 L 22.44 28.55 L 22.64 29.17 L 22.79 29.79 L 22.91 30.43 L 22.98 31.07 L 23.0 31.71 L 22.99 32.35 L 22.92 32.99 L 22.82 33.63 L 22.68 34.26 L 22.49 34.87 L 22.26 35.47 L 21.99 36.06 L 21.68 36.62 L 21.34 37.17 L 20.96 37.69" fill="none" stroke="#111" stroke-width="1.46" stroke-linecap="round" stroke-linejoin="round"/>
</svg>
