<?xml version="1.0" encoding="UTF-8"?>
<svg xmlns="http://www.w3.org/2000/svg" viewBox="0 0 23.00 34.00">
<path d="M 13.0 4.0 L 13.21 4.62 L 13.42 5.25 L 13.62 5.88 L 13.83 6.5 L 14.04 7.12 L 14.25 7.75 L 14.46 8.38 L 14.67 9.0 L 14.88 9.62 L 15.08 10.25 L 15.29 10.88 L 15.5 11.5 L 15.71 12.12 L 15.92 12.75 L 16.12 13.38 L 16.33 14.0 L 16.54 14.62 L 16.75 15.25 L 16.96 15.88 L 17.17 16.5 L 17.38 17.12 L 17.58 17.75 L 17.79 18.38 L 18.0 19.0 L 18.0 19.0 L 17.63 18.98 L 17.26 18.99 L 16.9 19.03 L 16.54 19.1 L 16.18 19.2 L 15.84 19.32 L 15.5 19.48 L 15.18 19.66 L 14.88 19.86 L 14.59 20.09 L 14.32 20.35 L 14.08 20.62 L 13.85 20.91 L 13.65 21.22 L 13.48 21.54 L 13.33 21.88 L 13.21 22.23 L 13.12 22.59 L 13.06 22.95 L 13.03 23.31 L 13.02 23.68 L 13.05 24.05 L 13.11 24.41 L 13.19 24.77 L 13.0 25.0 L 13.25 24.88 L 13.5 24.75 L 13.75 24.62 L 14.0 24.5 L 14.25 24.38 L 14.5 24.25 L 14.75 24.12 L 15.0 24.0 L 15.25 23.88 L 15.5 23.75 L 15.75 23.62 L 16.0 23.5 L 16.25 23.38 L 16.5 23.25 L 16.75 23.12 L 17.0 23.0 L 17.25 22.88 L 17.5 22.75 L 17.75 22.62 L 18.0 22.5 L 18.25 22.38 L 18.5 22.25 L 18.75 22.12 L 19.0 22.0 L 19.0 22.0 L 18.96 22.33 L 18.92 22.67 L 18.88 23.0 L 18.83 23.33 L 18.79 23.67 L 18.75 24.0 L 18.71 24.33 L 18.67 24.67 L 18.62 25.0 L 18.58 25.33 L 18.54 25.67 L 18.5 26.0 L 18.46 26.33 L 18.42 26.67 L 18.38 27.0 L 18.33 27.33 L 18.29 27.67 L 18.25 28.0 L 18.21 28.33 L 18.17 28.67 L 18.12 29.0 L 18.08 29.33 L 18.04 29.67 L 18.0 30.0" fill="none" stroke="#111" stroke-width="1.19" stroke-linecap="round" stroke-linejoin="round"/>
<path d="M 11.0 11.0 L 11.25 10.75 L 11.5 10.5 L 11.75 10.25 L 12.0 10.0 L 12.25 9.75 L 12.5 9.5 L 12.75 9.25 L 13.0 9.0 L 13.25 8.75 L 13.5 8.5 L 13.75 8.25 L 14.0 8.0 L 14.25 7.75 L 14.5 7.5 L 14.75 7.25 L 15.0 7.0 L 15.25 6.75 L 15.5 6.5 L 15.75 6.25 L 16.0 6.0 L 16.25 5.75 L 16.5 5.5 L 16.75 5.25 L 17.0 5.0 L 17.0 5.0 L 17.08 5.17 L 17.17 5.33 L 17.25 5.5 L 17.33 5.67 L 17.42 5.83 L 17.5 6.0 L 17.58 6.17 L 17.67 6.33 L 17.75 6.5 L 17.83 6.67 L 17.92 6.83 L 18.0 7.0 L 18.08 7.17 L 18.17 7.33 L 18.25 7.5 L 18.33 7.67 L 18.42 7.83 L 18.5 8.0 L 18.58 8.17 L 18.67 8.33 L 18.75 8.5 L 18.83 8.67 L 18.92 8.83 L 19.0 9.0 L 19.0 9.0 L 18.67 9.29 L 18.33 9.58 L 18.0 9.88 L 17.67 10.17 L 17.33 10.46 L 17.0 10.75 L 16.67 11.04 L 16.33 11.33 L 16.0 11.62 L 15.67 11.92 L 15.33 12.21 L 15.0 12.5 L 14.67 12.79 L 14.33 13.08 L 14.0 13.38 L 13.67 13.67 L 13.33 13.96 L 13.0 14.25 L 12.67 14.54 L 12.33 14.83 L 12.0 15.12 L 11.67 15.42 L 11.33 15.71 L 11.0 16.0" fill="none" stroke="#111" stroke-width="1.19" stroke-linecap="round" stroke-linejoin="round"/>
<path d="M 11.0 10.0 L 11.08 10.25 L 11.17 10.5 L 11.25 10.75 L 11.33 11.0 L 11.42 11.25 L 11.5 11.5 L 11.58 11.75 L 11.67 12.0 L 11.75 12.25 L 11.83 12.5 L 11.92 12.75 L 12.0 13.0 L 12.08 13.25 L 12.17 13.5 L 12.25 13.75 L 12.33 14.0 L 12.42 14.25 L 12.5 14.5 L 12.58 14.75 L 12.67 15.0 L 12.75 15.25 L 12.83 15.5 L 12.92 15.75 L 13.0 16.0" fill="none" stroke="#111" stroke-width="1.19" stroke-linecap="round" stroke-linejoin="round"/>
<path d="M 5.0 12.0 L 4.96 11.83 L 4.92 11.67 L 4.88 11.5 L 4.83 11.33 L 4.79 11.17 L 4.75 11.0 L 4.71 10.83 L 4.67 10.67 L 4.62 10.5 L 4.58 10.33 L 4.54 10.17 L 4.5 10.0 L 4.46 9.83 L 4.42 9.67 L 4.38 9.5 L 4.33 9.33 L 4.29 9.17 L 4.25 9.0 L 4.21 8.83 L 4.17 8.67 L 4.12 8.5 L 4.08 8.33 L 4.04 8.17 L 4.0 8.0 L 4.0 8.0 L 4.42 7.65 L 4.9 7.37 L 5.41 7.18 L 5.96 7.09 L 6.51 7.09 L 7.05 7.19 L 7.56 7.38 L 8.04 7.66 L 8.46 8.02 L 8.8 8.45 L 9.07 8.93 L 9.25 9.45 L 9.34 9.99 L 9.33 10.54 L 9.22 11.08 L 9.02 11.59 L 8.73 12.06 L 8.37 12.48 L 7.94 12.82 L 7.45 13.08 L 6.93 13.25 L 6.39 13.33 L 5.84 13.31 L 5.3 13.2" fill="none" stroke="#111" stroke-width="1.19" stroke-linecap="round" stroke-linejoin="round"/>
<path d="M 7.0 12.0 L 7.19 12.29 L 7.37 12.59 L 7.53 12.89 L 7.68 13.21 L 7.8 13.53 L 7.92 13.86 L 8.01 14.19 L 8.09 14.53 L 8.15 14.87 L 8.2 15.21 L 8.22 15.56 L 8.23 15.9 L 8.22 16.25 L 8.2 16.6 L 8.15 16.94 L 8.09 17.28 L 8.01 17.62 L 7.92 17.95 L 7.8 18.28 L 7.68 18.6 L 7.53 18.92 L 7.37 19.22 L 7.19 19.52 L 7.0 19.81 L 7.0 20.0 L 6.92 19.88 L 6.83 19.75 L 6.75 19.62 L 6.67 19.5 L 6.58 19.38 L 6.5 19.25 L 6.42 19.12 L 6.33 19.0 L 6.25 18.88 L 6.17 18.75 L 6.08 18.62 L 6.0 18.5 L 5.92 18.38 L 5.83 18.25 L 5.75 18.12 L 5.67 18.0 L 5.58 17.88 L 5.5 17.75 L 5.42 17.62 L 5.33 17.5 L 5.25 17.38 L 5.17 17.25 L 5.08 17.12 L 5.0 17.0" fill="none" stroke="#111" stroke-width="1.19" stroke-linecap="round" stroke-linejoin="round"/>
</svg>
