<?xml version="1.0" encoding="UTF-8"?>
<svg xmlns="http://www.w3.org/2000/svg" viewBox="0 0 27.92 36.44">
<path d="M 15.97 5.0 L 15.76 5.38 L 15.55 5.75 L 15.34 6.12 L 15.13 6.5 L 14.93 6.88 L 14.72 7.25 L 14.51 7.62 L 14.3 8.0 L 14.09 8.38 L 13.88 8.75 L 13.68 9.12 L 13.47 9.5 L 13.26 9.88 L 13.05 10.25 L 12.84 10.63 L 12.63 11.0 L 12.43 11.38 L 12.22 11.75 L 12.01 12.12 L 11.8 12.5 L 11.59 12.88 L 11.38 13.25 L 11.18 13.63 L 10.97 14.0 L 10.97 14.0 L 11.65 14.55 L 12.29 15.15 L 12.89 15.79 L 13.44 16.48 L 13.93 17.2 L 14.37 17.96 L 14.76 18.75 L 15.08 19.56 L 15.35 20.4 L 15.55 21.25 L 15.7 22.12 L 15.77 22.99 L 15.79 23.87 L 15.74 24.75 L 15.62 25.62 L 15.45 26.48 L 15.21 27.32 L 14.91 28.14 L 14.55 28.94 L 14.13 29.72 L 13.66 30.46 L 13.13 31.16 L 12.56 31.82 L 11.94 32.44" fill="none" stroke="#111" stroke-width="1.28" stroke-linecap="round" stroke-linejoin="round"/>
<path d="M 12.97 20.0 L 12.8 20.42 L 12.63 20.83 L 12.47 21.25 L 12.3 21.67 L 12.13 22.08 L 11.97 22.5 L 11.8 22.92 L 11.63 23.33 L 11.47 23.75 L 11.3 24.17 L 11.13 24.58 L 10.97 25.0 L 10.8 25.42 L 10.63 25.83 L 10.47 26.25 L 10.3 26.67 L 10.13 27.08 L 9.97 27.5 L 9.8 27.92 L 9.63 28.33 L 9.47 28.75 L 9.3 29.17 L 9.13 29.58 L 8.97 30.0" fill="none" stroke="#111" stroke-width="1.28" stroke-linecap="round" stroke-linejoin="round"/>
<path d="M 6.97 5.0 L 7.4 6.04 L 7.79 7.11 L 8.13 8.19 L 8.42 9.28 L 8.66 10.38 L 8.86 11.5 L 9.0 12.62 L 9.09 13.75 L 9.14 14.88 L 9.13 16.01 L 9.08 17.14 L 8.97 18.26 L 8.82 19.38 L 8.62 20.49 L 8.36 21.6 L 8.06 22.69 L 7.71 23.76 L 7.32 24.82 L 6.88 25.86 L 6.39 26.88 L 5.85 27.88 L 5.28 28.85 L 4.66 29.8 L 4.0 30.72" fill="none" stroke="#111" stroke-width="1.28" stroke-linecap="round" stroke-linejoin="round"/>
<path d="M 20.97 4.0 L 20.4 4.96 L 19.9 5.95 L 19.45 6.97 L 19.05 8.02 L 18.72 9.08 L 18.45 10.16 L 18.24 11.26 L 18.09 12.36 L 18.0 13.47 L 17.98 14.59 L 18.01 15.7 L 18.12 16.81 L 18.28 17.91 L 18.51 19.01 L 18.79 20.08 L 19.14 21.14 L 19.55 22.18 L 20.01 23.19 L 20.53 24.18 L 21.11 25.13 L 21.74 26.06 L 22.42 26.94 L 23.14 27.78 L 23.92 28.59" fill="none" stroke="#111" stroke-width="1.28" stroke-linecap="round" stroke-linejoin="round"/>
</svg>
