<?xml version="1.0" encoding="UTF-8"?>
<svg xmlns="http://www.w3.org/2000/svg" viewBox="0 0 27.00 37.08">
<path d="M 5.0 8.0 L 5.08 8.12 L 5.17 8.25 L 5.25 8.38 L 5.33 8.5 L 5.42 8.62 L 5.5 8.75 L 5.58 8.88 L 5.67 9.0 L 5.75 9.12 L 5.83 9.25 L 5.92 9.38 L 6.0 9.5 L 6.08 9.62 L 6.17 9.75 L 6.25 9.88 L 6.33 10.0 L 6.42 10.12 L 6.5 10.25 L 6.58 10.38 L 6.67 10.5 L 6.75 10.62 L 6.83 10.75 L 6.92 10.88 L 7.0 11.0" fill="none" stroke="#111" stroke-width="1.30" stroke-linecap="round" stroke-linejoin="round"/>
<path d="M 8.0 6.0 L 8.0 6.62 L 8.0 7.25 L 8.0 7.88 L 8.0 8.5 L 8.0 9.12 L 8.0 9.75 L 8.0 10.38 L 8.0 11.0 L 8.0 11.62 L 8.0 12.25 L 8.0 12.88 L 8.0 13.5 L 8.0 14.12 L 8.0 14.75 L 8.0 15.38 L 8.0 16.0 L 8.0 16.62 L 8.0 17.25 L 8.0 17.88 L 8.0 18.5 L 8.0 19.12 L 8.0 19.75 L 8.0 20.38 L 8.0 21.0" fill="none" stroke="#111" stroke-width="1.30" stroke-linecap="round" stroke-linejoin="round"/>
<path d="M 11.0 7.0 L 10.88 7.17 L 10.75 7.33 L 10.62 7.5 L 10.5 7.67 L 10.38 7.83 L 10.25 8.0 L 10.12 8.17 L 10.0 8.33 L 9.88 8.5 L 9.75 8.67 L 9.62 8.83 L 9.5 9.0 L 9.38 9.17 L 9.25 9.33 L 9.12 9.5 L 9.0 9.67 L 8.88 9.83 L 8.75 10.0 L 8.62 10.17 L 8.5 10.33 L 8.38 10.5 L 8.25 10.67 L 8.12 10.83 L 8.0 11.0" fill="none" stroke="#111" stroke-width="1.30" stroke-linecap="round" stroke-linejoin="round"/>
<path d="M 8.0 13.0 L 7.88 13.25 L 7.75 13.5 L 7.62 13.75 L 7.5 14.0 L 7.38 14.25 L 7.25 14.5 L 7.12 14.75 L 7.0 15.0 L 6.88 15.25 L 6.75 15.5 L 6.62 15.75 L 6.5 16.0 L 6.38 16.25 L 6.25 16.5 L 6.12 16.75 L 6.0 17.0 L 5.88 17.25 L 5.75 17.5 L 5.62 17.75 L 5.5 18.0 L 5.38 18.25 L 5.25 18.5 L 5.12 18.75 L 5.0 19.0" fill="none" stroke="#111" stroke-width="1.30" stroke-linecap="round" stroke-linejoin="round"/>
<path d="M 8.0 15.0 L 8.08 15.17 L 8.17 15.33 L 8.25 15.5 L 8.33 15.67 L 8.42 15.83 L 8.5 16.0 L 8.58 16.17 L 8.67 16.33 L 8.75 16.5 L 8.83 16.67 L 8.92 16.83 L 9.0 17.0 L 9.08 17.17 L 9.17 17.33 L 9.25 17.5 L 9.33 17.67 L 9.42 17.83 L 9.5 18.0 L 9.58 18.17 L 9.67 18.33 L 9.75 18.5 L 9.83 18.67 L 9.92 18.83 L 10.0 19.0" fill="none" stroke="#111" stroke-width="1.30" stroke-linecap="round" stroke-linejoin="round"/>
<path d="M 15.0 5.0 L 15.12 5.21 L 15.25 5.42 L 15.38 5.62 L 15.5 5.83 L 15.62 6.04 L 15.75 6.25 L 15.88 6.46 L 16.0 6.67 L 16.12 6.88 L 16.25 7.08 L 16.38 7.29 L 16.5 7.5 L 16.62 7.71 L 16.75 7.92 L 16.88 8.12 L 17.0 8.33 L 17.12 8.54 L 17.25 8.75 L 17.38 8.96 L 17.5 9.17 L 17.62 9.38 L 17.75 9.58 L 17.88 9.79 L 18.0 10.0" fill="none" stroke="#111" stroke-width="1.30" stroke-linecap="round" stroke-linejoin="round"/>
<path d="M 19.0 4.0 L 19.0 4.75 L 19.0 5.5 L 19.0 6.25 L 19.0 7.0 L 19.0 7.75 L 19.0 8.5 L 19.0 9.25 L 19.0 10.0 L 19.0 10.75 L 19.0 11.5 L 19.0 12.25 L 19.0 13.0 L 19.0 13.75 L 19.0 14.5 L 19.0 15.25 L 19.0 16.0 L 19.0 16.75 L 19.0 17.5 L 19.0 18.25 L 19.0 19.0 L 19.0 19.75 L 19.0 20.5 L 19.0 21.25 L 19.0 22.0" fill="none" stroke="#111" stroke-width="1.30" stroke-linecap="round" stroke-linejoin="round"/>
<path d="M 23.0 4.0 L 22.83 4.21 L 22.67 4.42 L 22.5 4.62 L 22.33 4.83 L 22.17 5.04 L 22.0 5.25 L 21.83 5.46 L 21.67 5.67 L 21.5 5.88 L 21.33 6.08 L 21.17 6.29 L 21.0 6.5 L 20.83 6.71 L 20.67 6.92 L 20.5 7.12 L 20.33 7.33 L 20.17 7.54 L 20.0 7.75 L 19.83 7.96 L 19.67 8.17 L 19.5 8.38 L 19.33 8.58 L 19.17 8.79 L 19.0 9.0" fill="none" stroke="#111" stroke-width="1.30" stroke-linecap="round" stroke-linejoin="round"/>
<path d="M 18.0 15.0 L 17.88 15.21 L 17.75 15.42 L 17.62 15.62 L 17.5 15.83 L 17.38 16.04 L 17.25 16.25 L 17.12 16.46 L 17.0 16.67 L 16.88 16.88 L 16.75 17.08 L 16.62 17.29 L 16.5 17.5 L 16.38 17.71 L 16.25 17.92 L 16.12 18.12 L 16.0 18.33 L 15.88 18.54 L 15.75 18.75 L 15.62 18.96 L 15.5 19.17 L 15.38 19.38 L 15.25 19.58 L 15.13 19.79 L 15.0 20.0" fill="none" stroke="#111" stroke-width="1.30" stroke-linecap="round" stroke-linejoin="round"/>
<path d="M 19.0 15.0 L 19.17 15.17 L 19.33 15.33 L 19.5 15.5 L 19.67 15.67 L 19.83 15.83 L 20.0 16.0 L 20.17 16.17 L 20.33 16.33 L 20.5 16.5 L 20.67 16.67 L 20.83 16.83 L 21.0 17.0 L 21.17 17.17 L 21.33 17.33 L 21.5 17.5 L 21.67 17.67 L 21.83 17.83 L 22.0 18.0 L 22.17 18.17 L 22.33 18.33 L 22.5 18.5 L 22.67 18.67 L 22.83 18.83 L 23.0 19.0" fill="none" stroke="#111" stroke-width="1.30" stroke-linecap="round" stroke-linejoin="round"/>
<path d="M 4.0 22.0 L 4.08 22.38 L 4.17 22.75 L 4.25 23.12 L 4.33 23.5 L 4.42 23.88 L 4.5 24.25 L 4.58 24.62 L 4.67 25.0 L 4.75 25.38 L 4.83 25.75 L 4.92 26.12 L 5.0 26.5 L 5.08 26.88 L 5.17 27.25 L 5.25 27.62 L 5.33 28.0 L 5.42 28.38 L 5.5 28.75 L 5.58 29.12 L 5.67 29.5 L 5.75 29.88 L 5.83 30.25 L 5.92 30.62 L 6.0 31.0 L 6.0 31.0 L 6.83 31.57 L 7.72 32.05 L 8.65 32.45 L 9.61 32.75 L 10.6 32.96 L 11.61 33.07 L 12.62 33.08 L 13.62 32.99 L 14.62 32.8 L 15.58 32.51 L 16.52 32.13 L 17.42 31.67 L 18.26 31.11 L 19.05 30.48 L 19.77 29.77 L 20.41 28.99 L 20.98 28.16 L 21.46 27.27 L 21.86 26.34 L 22.16 25.37 L 22.36 24.39 L 22.47 23.38 L 22.47 22.37 L 22.38 21.36" fill="none" stroke="#111" stroke-width="1.30" stroke-linecap="round" stroke-linejoin="round"/>
<path d="M 5.0 23.0 L 5.15 23.39 L 5.34 23.76 L 5.57 24.11 L 5.84 24.42 L 6.15 24.7 L 6.49 24.95 L 6.85 25.15 L 7.24 25.31 L 7.64 25.42 L 8.05 25.48 L 8.46 25.49 L 8.88 25.46 L 9.29 25.38 L 9.68 25.25 L 10.06 25.07 L 10.41 24.85 L 10.74 24.59 L 11.03 24.3 L 11.29 23.97 L 11.51 23.61 L 11.68 23.23 L 11.8 22.84 L 11.88 22.43 L 11.91 22.01 L 12.0 22.0 L 12.4 22.31 L 12.8 22.61 L 13.19 22.92 L 13.58 23.24 L 13.97 23.55 L 14.36 23.87 L 14.75 24.19 L 15.13 24.51 L 15.52 24.84 L 15.9 25.16 L 16.28 25.49 L 16.65 25.83 L 17.03 26.16 L 17.4 26.5 L 17.77 26.84 L 18.14 27.18 L 18.5 27.52 L 18.86 27.87 L 19.22 28.22 L 19.58 28.57 L 19.94 28.92 L 20.29 29.28 L 20.65 29.64 L 21.0 30.0" fill="none" stroke="#111" stroke-width="1.30" stroke-linecap="round" stroke-linejoin="round"/>
<path d="M 18.0 26.0 L 18.17 25.88 L 18.33 25.75 L 18.5 25.62 L 18.67 25.5 L 18.83 25.38 L 19.0 25.25 L 19.17 25.12 L 19.33 25.0 L 19.5 24.88 L 19.67 24.75 L 19.83 24.62 L 20.0 24.5 L 20.17 24.38 L 20.33 24.25 L 20.5 24.12 L 20.67 24.0 L 20.83 23.88 L 21.0 23.75 L 21.17 23.62 L 21.33 23.5 L 21.5 23.38 L 21.67 23.25 L 21.83 23.12 L 22.0 23.0" fill="none" stroke="#111" stroke-width="1.30" stroke-linecap="round" stroke-linejoin="round"/>
<path d="M 12.0 15.0 L 12.0 15.25 L 12.0 15.5 L 12.0 15.75 L 12.0 16.0 L 12.0 16.25 L 12.0 16.5 L 12.0 16.75 L 12.0 17.0 L 12.0 17.25 L 12.0 17.5 L 12.0 17.75 L 12.0 18.0 L 12.0 18.25 L 12.0 18.5 L 12.0 18.75 L 12.0 19.0 L 12.0 19.25 L 12.0 19.5 L 12.0 19.75 L 12.0 20.0 L 12.0 20.25 L 12.0 20.5 L 12.0 20.75 L 12.0 21.0" fill="none" stroke="#111" stroke-width="1.30" stroke-linecap="round" stroke-linejoin="round"/>
</svg>
