<?xml version="1.0" encoding="UTF-8"?>
<svg xmlns="http://www.w3.org/2000/svg" viewBox="0 0 22.53 35.47">
<path d="M 4.6 7.47 L 4.97 6.67 L 5.47 5.94 L 6.08 5.3 L 6.78 4.78 L 7.57 4.38 L 8.41 4.12 L 9.28 4.0 L 10.16 4.03 L 11.02 4.2 L 11.84 4.52 L 12.6 4.97 L 13.27 5.53 L 13.84 6.2 L 14.28 6.96 L 14.6 7.78 L 14.77 8.65 L 14.8 9.52 L 14.68 10.4 L 14.42 11.24 L 14.02 12.02 L 13.5 12.73 L 12.86 13.33 L 12.13 13.83 L 11.33 14.2" fill="none" stroke="#111" stroke-width="1.24" stroke-linecap="round" stroke-linejoin="round"/>
<path d="M 6.6 4.47 L 7.36 4.66 L 8.1 4.89 L 8.83 5.16 L 9.55 5.46 L 10.25 5.8 L 10.94 6.17 L 11.6 6.58 L 12.24 7.02 L 12.86 7.49 L 13.46 7.99 L 14.03 8.52 L 14.57 9.08 L 15.08 9.67 L 15.57 10.28 L 16.02 10.91 L 16.44 11.57 L 16.83 12.24 L 17.18 12.94 L 17.5 13.65 L 17.78 14.37 L 18.02 15.11 L 18.23 15.86 L 18.4 16.62 L 18.53 17.39" fill="none" stroke="#111" stroke-width="1.24" stroke-linecap="round" stroke-linejoin="round"/>
<path d="M 5.6 15.47 L 5.73 15.63 L 5.85 15.8 L 5.98 15.97 L 6.1 16.13 L 6.23 16.3 L 6.35 16.47 L 6.48 16.63 L 6.6 16.8 L 6.73 16.97 L 6.85 17.13 L 6.98 17.3 L 7.1 17.47 L 7.23 17.63 L 7.35 17.8 L 7.48 17.97 L 7.6 18.13 L 7.73 18.3 L 7.85 18.47 L 7.98 18.63 L 8.1 18.8 L 8.23 18.97 L 8.35 19.13 L 8.48 19.3 L 8.6 19.47 L 8.6 19.47 L 8.77 19.34 L 8.94 19.22 L 9.1 19.09 L 9.27 18.97 L 9.44 18.84 L 9.6 18.72 L 9.77 18.59 L 9.94 18.47 L 10.1 18.34 L 10.27 18.22 L 10.44 18.09 L 10.6 17.97 L 10.77 17.84 L 10.94 17.72 L 11.1 17.59 L 11.27 17.47 L 11.44 17.34 L 11.6 17.22 L 11.77 17.09 L 11.94 16.97 L 12.1 16.84 L 12.27 16.72 L 12.44 16.59 L 12.6 16.47" fill="none" stroke="#111" stroke-width="1.24" stroke-linecap="round" stroke-linejoin="round"/>
<path d="M 4.6 20.47 L 4.81 20.67 L 5.02 20.88 L 5.23 21.09 L 5.44 21.3 L 5.65 21.51 L 5.85 21.72 L 6.06 21.92 L 6.27 22.13 L 6.48 22.34 L 6.69 22.55 L 6.9 22.76 L 7.1 22.97 L 7.31 23.17 L 7.52 23.38 L 7.73 23.59 L 7.94 23.8 L 8.15 24.01 L 8.35 24.22 L 8.56 24.42 L 8.77 24.63 L 8.98 24.84 L 9.19 25.05 L 9.4 25.26 L 9.6 25.47 L 9.6 25.47 L 9.77 25.26 L 9.94 25.05 L 10.1 24.84 L 10.27 24.63 L 10.44 24.42 L 10.6 24.22 L 10.77 24.01 L 10.94 23.8 L 11.1 23.59 L 11.27 23.38 L 11.44 23.17 L 11.6 22.97 L 11.77 22.76 L 11.94 22.55 L 12.1 22.34 L 12.27 22.13 L 12.44 21.92 L 12.6 21.72 L 12.77 21.51 L 12.94 21.3 L 13.1 21.09 L 13.27 20.88 L 13.44 20.67 L 13.6 20.47" fill="none" stroke="#111" stroke-width="1.24" stroke-linecap="round" stroke-linejoin="round"/>
<path d="M 8.6 14.47 L 8.65 14.92 L 8.69 15.38 L 8.73 15.84 L 8.77 16.3 L 8.81 16.76 L 8.85 17.22 L 8.9 17.67 L 8.94 18.13 L 8.98 18.59 L 9.02 19.05 L 9.06 19.51 L 9.1 19.97 L 9.15 20.42 L 9.19 20.88 L 9.23 21.34 L 9.27 21.8 L 9.31 22.26 L 9.35 22.72 L 9.4 23.17 L 9.44 23.63 L 9.48 24.09 L 9.52 24.55 L 9.56 25.01 L 9.6 25.47 L 9.6 25.47 L 9.27 24.89 L 8.81 24.41 L 8.26 24.05 L 7.64 23.81 L 6.98 23.73 L 6.32 23.79 L 5.69 24.0 L 5.13 24.35 L 4.65 24.81 L 4.3 25.37 L 4.08 26.0 L 4.0 26.66 L 4.08 27.32 L 4.3 27.94 L 4.65 28.5 L 5.13 28.96 L 5.69 29.31 L 6.32 29.52 L 6.98 29.58 L 7.64 29.5 L 8.26 29.27 L 8.81 28.9 L 9.27 28.42 L 9.6 27.85 L 9.6 31.47 L 9.48 31.43 L 9.35 31.38 L 9.22 31.33 L 9.1 31.28 L 8.98 31.22 L 8.86 31.15 L 8.75 31.08 L 8.64 31.0 L 8.53 30.92 L 8.42 30.84 L 8.32 30.75 L 8.22 30.66 L 8.13 30.56 L 8.04 30.46 L 7.96 30.35 L 7.88 30.25 L 7.8 30.13 L 7.73 30.02 L 7.66 29.9 L 7.6 29.78 L 7.55 29.66 L 7.5 29.53 L 7.45 29.41 L 7.42 29.28" fill="none" stroke="#111" stroke-width="1.24" stroke-linecap="round" stroke-linejoin="round"/>
</svg>
