<?xml version="1.0" encoding="UTF-8"?>
<svg xmlns="http://www.w3.org/2000/svg" viewBox="0 0 16.24 40.81">
<path d="M 10.85 4.0 L 11.22 4.88 L 11.53 5.78 L 11.78 6.7 L 11.98 7.64 L 12.11 8.58 L 12.18 9.53 L 12.2 10.49 L 12.15 11.44 L 12.04 12.39 L 11.87 13.33 L 11.64 14.25 L 11.36 15.16 L 11.01 16.05 L 10.61 16.92 L 10.16 17.76 L 9.65 18.57 L 9.1 19.34 L 8.49 20.08 L 7.84 20.78 L 7.15 21.43 L 6.41 22.04 L 5.64 22.6 L 4.84 23.11 L 4.0 23.57" fill="none" stroke="#111" stroke-width="1.43" stroke-linecap="round" stroke-linejoin="round"/>
<path d="M 4.85 11.0 L 5.57 11.9 L 6.25 12.82 L 6.9 13.76 L 7.52 14.73 L 8.1 15.72 L 8.65 16.73 L 9.16 17.76 L 9.63 18.81 L 10.06 19.87 L 10.46 20.95 L 10.82 22.04 L 11.14 23.15 L 11.42 24.26 L 11.65 25.38 L 11.85 26.51 L 12.01 27.65 L 12.13 28.79 L 12.2 29.94 L 12.24 31.09 L 12.23 32.24 L 12.18 33.38 L 12.1 34.53 L 11.97 35.67 L 11.8 36.81" fill="none" stroke="#111" stroke-width="1.43" stroke-linecap="round" stroke-linejoin="round"/>
</svg>
