<?xml version="1.0" encoding="UTF-8"?>
<svg xmlns="http://www.w3.org/2000/svg" viewBox="0 0 19.28 36.68">
<path d="M 8.0 4.0 L 8.99 4.6 L 9.92 5.3 L 10.76 6.08 L 11.53 6.95 L 12.21 7.89 L 12.78 8.9 L 13.25 9.95 L 13.62 11.05 L 13.87 12.18 L 14.0 13.33 L 14.02 14.49 L 13.92 15.65 L 13.71 16.78 L 13.38 17.9 L 12.94 18.97 L 12.4 19.99 L 11.75 20.95 L 11.02 21.84 L 10.19 22.66 L 9.29 23.38 L 8.32 24.01 L 7.29 24.55 L 6.21 24.97 L 5.1 25.28" fill="none" stroke="#111" stroke-width="1.28" stroke-linecap="round" stroke-linejoin="round"/>
<path d="M 5.0 9.0 L 5.92 9.65 L 6.82 10.35 L 7.67 11.09 L 8.49 11.87 L 9.27 12.69 L 10.01 13.55 L 10.71 14.44 L 11.36 15.37 L 11.97 16.32 L 12.53 17.31 L 13.04 18.32 L 13.5 19.35 L 13.91 20.41 L 14.27 21.48 L 14.57 22.57 L 14.82 23.68 L 15.02 24.79 L 15.16 25.91 L 15.25 27.04 L 15.28 28.17 L 15.26 29.31 L 15.18 30.44 L 15.05 31.56 L 14.87 32.68" fill="none" stroke="#111" stroke-width="1.28" stroke-linecap="round" stroke-linejoin="round"/>
<path d="M 4.0 4.0 L 4.04 4.5 L 4.08 5.0 L 4.12 5.5 L 4.17 6.0 L 4.21 6.5 L 4.25 7.0 L 4.29 7.5 L 4.33 8.0 L 4.38 8.5 L 4.42 9.0 L 4.46 9.5 L 4.5 10.0 L 4.54 10.5 L 4.58 11.0 L 4.63 11.5 L 4.67 12.0 L 4.71 12.5 L 4.75 13.0 L 4.79 13.5 L 4.83 14.0 L 4.88 14.5 L 4.92 15.0 L 4.96 15.5 L 5.0 16.0" fill="none" stroke="#111" stroke-width="1.28" stroke-linecap="round" stroke-linejoin="round"/>
</svg>
