<?xml version="1.0" encoding="UTF-8"?>
<svg xmlns="http://www.w3.org/2000/svg" viewBox="0 0 23.28 36.00">
<path d="M 7.0 9.0 L 7.21 9.0 L 7.42 9.0 L 7.62 9.0 L 7.83 9.0 L 8.04 9.0 L 8.25 9.0 L 8.46 9.0 L 8.67 9.0 L 8.88 9.0 L 9.08 9.0 L 9.29 9.0 L 9.5 9.0 L 9.71 9.0 L 9.92 9.0 L 10.12 9.0 L 10.33 9.0 L 10.54 9.0 L 10.75 9.0 L 10.96 9.0 L 11.17 9.0 L 11.38 9.0 L 11.58 9.0 L 11.79 9.0 L 12.0 9.0 L 12.0 9.0 L 11.98 9.32 L 11.95 9.63 L 11.89 9.95 L 11.81 10.25 L 11.71 10.56 L 11.6 10.85 L 11.47 11.14 L 11.31 11.42 L 11.14 11.69 L 10.96 11.95 L 10.75 12.19 L 10.54 12.43 L 10.3 12.64 L 10.06 12.85 L 9.8 13.03 L 9.53 13.2 L 9.25 13.35 L 8.97 13.49 L 8.67 13.6 L 8.37 13.7 L 8.06 13.78 L 7.74 13.83 L 7.43 13.87 L 7.11 13.89 L 7.0 14.0 L 6.92 14.17 L 6.83 14.33 L 6.75 14.5 L 6.67 14.67 L 6.58 14.83 L 6.5 15.0 L 6.42 15.17 L 6.33 15.33 L 6.25 15.5 L 6.17 15.67 L 6.08 15.83 L 6.0 16.0 L 5.92 16.17 L 5.83 16.33 L 5.75 16.5 L 5.67 16.67 L 5.58 16.83 L 5.5 17.0 L 5.42 17.17 L 5.33 17.33 L 5.25 17.5 L 5.17 17.67 L 5.08 17.83 L 5.0 18.0 L 5.0 18.0 L 5.29 18.29 L 5.56 18.6 L 5.81 18.93 L 6.03 19.27 L 6.23 19.63 L 6.41 20.0 L 6.56 20.38 L 6.68 20.77 L 6.78 21.17 L 6.85 21.58 L 6.89 21.99 L 6.91 22.4 L 6.89 22.81 L 6.85 23.22 L 6.78 23.62 L 6.68 24.02 L 6.56 24.41 L 6.41 24.79 L 6.23 25.16 L 6.03 25.52 L 5.81 25.86 L 5.56 26.19 L 5.29 26.5 L 5.0 26.79" fill="none" stroke="#111" stroke-width="1.26" stroke-linecap="round" stroke-linejoin="round"/>
<path d="M 8.0 9.0 L 8.02 9.49 L 8.08 9.97 L 8.17 10.45 L 8.29 10.92 L 8.45 11.39 L 8.64 11.84 L 8.86 12.27 L 9.11 12.69 L 9.38 13.09 L 9.69 13.47 L 10.02 13.83 L 10.38 14.16 L 10.76 14.47 L 11.15 14.75 L 11.57 15.0 L 12.01 15.23 L 12.45 15.42 L 12.92 15.58 L 13.39 15.7 L 13.87 15.8 L 14.35 15.86 L 14.84 15.88 L 15.32 15.88 L 15.81 15.83" fill="none" stroke="#111" stroke-width="1.26" stroke-linecap="round" stroke-linejoin="round"/>
<path d="M 8.0 15.0 L 8.21 15.21 L 8.42 15.42 L 8.62 15.62 L 8.83 15.83 L 9.04 16.04 L 9.25 16.25 L 9.46 16.46 L 9.67 16.67 L 9.88 16.88 L 10.08 17.08 L 10.29 17.29 L 10.5 17.5 L 10.71 17.71 L 10.92 17.92 L 11.12 18.12 L 11.33 18.33 L 11.54 18.54 L 11.75 18.75 L 11.96 18.96 L 12.17 19.17 L 12.38 19.38 L 12.58 19.58 L 12.79 19.79 L 13.0 20.0" fill="none" stroke="#111" stroke-width="1.26" stroke-linecap="round" stroke-linejoin="round"/>
<path d="M 11.0 16.0 L 10.88 16.08 L 10.75 16.17 L 10.62 16.25 L 10.5 16.33 L 10.38 16.42 L 10.25 16.5 L 10.12 16.58 L 10.0 16.67 L 9.88 16.75 L 9.75 16.83 L 9.62 16.92 L 9.5 17.0 L 9.38 17.08 L 9.25 17.17 L 9.12 17.25 L 9.0 17.33 L 8.88 17.42 L 8.75 17.5 L 8.62 17.58 L 8.5 17.67 L 8.38 17.75 L 8.25 17.83 L 8.12 17.92 L 8.0 18.0" fill="none" stroke="#111" stroke-width="1.26" stroke-linecap="round" stroke-linejoin="round"/>
<path d="M 5.0 18.0 L 4.96 18.21 L 4.92 18.42 L 4.88 18.62 L 4.83 18.83 L 4.79 19.04 L 4.75 19.25 L 4.71 19.46 L 4.67 19.67 L 4.62 19.88 L 4.58 20.08 L 4.54 20.29 L 4.5 20.5 L 4.46 20.71 L 4.42 20.92 L 4.38 21.12 L 4.33 21.33 L 4.29 21.54 L 4.25 21.75 L 4.21 21.96 L 4.17 22.17 L 4.12 22.38 L 4.08 22.58 L 4.04 22.79 L 4.0 23.0" fill="none" stroke="#111" stroke-width="1.26" stroke-linecap="round" stroke-linejoin="round"/>
<path d="M 5.0 17.0 L 5.21 17.12 L 5.42 17.25 L 5.62 17.38 L 5.83 17.5 L 6.04 17.62 L 6.25 17.75 L 6.46 17.88 L 6.67 18.0 L 6.88 18.12 L 7.08 18.25 L 7.29 18.38 L 7.5 18.5 L 7.71 18.62 L 7.92 18.75 L 8.12 18.88 L 8.33 19.0 L 8.54 19.12 L 8.75 19.25 L 8.96 19.38 L 9.17 19.5 L 9.38 19.62 L 9.58 19.75 L 9.79 19.88 L 10.0 20.0" fill="none" stroke="#111" stroke-width="1.26" stroke-linecap="round" stroke-linejoin="round"/>
<path d="M 10.0 20.0 L 10.0 20.21 L 10.0 20.42 L 10.0 20.62 L 10.0 20.83 L 10.0 21.04 L 10.0 21.25 L 10.0 21.46 L 10.0 21.67 L 10.0 21.88 L 10.0 22.08 L 10.0 22.29 L 10.0 22.5 L 10.0 22.71 L 10.0 22.92 L 10.0 23.12 L 10.0 23.33 L 10.0 23.54 L 10.0 23.75 L 10.0 23.96 L 10.0 24.17 L 10.0 24.38 L 10.0 24.58 L 10.0 24.79 L 10.0 25.0 L 10.0 25.0 L 9.79 25.01 L 9.58 25.04 L 9.38 25.11 L 9.19 25.2 L 9.01 25.31 L 8.85 25.45 L 8.71 25.6 L 8.59 25.78 L 8.5 25.96 L 8.43 26.16 L 8.38 26.37 L 8.37 26.58 L 8.38 26.79 L 8.43 27.0 L 8.5 27.2 L 8.59 27.38 L 8.71 27.56 L 8.85 27.72 L 9.01 27.85 L 9.19 27.97 L 9.38 28.05 L 9.58 28.12 L 9.79 28.15 L 10.0 28.16 L 10.0 28.0 L 10.21 27.99 L 10.42 27.96 L 10.62 27.89 L 10.81 27.8 L 10.99 27.69 L 11.15 27.55 L 11.29 27.4 L 11.41 27.22 L 11.5 27.04 L 11.57 26.84 L 11.62 26.63 L 11.63 26.42 L 11.62 26.21 L 11.57 26.0 L 11.5 25.8 L 11.41 25.62 L 11.29 25.44 L 11.15 25.28 L 10.99 25.15 L 10.81 25.03 L 10.62 24.95 L 10.42 24.88 L 10.21 24.85 L 10.0 24.84" fill="none" stroke="#111" stroke-width="1.26" stroke-linecap="round" stroke-linejoin="round"/>
<path d="M 9.0 6.0 L 9.04 6.12 L 9.08 6.25 L 9.12 6.38 L 9.17 6.5 L 9.21 6.62 L 9.25 6.75 L 9.29 6.88 L 9.33 7.0 L 9.38 7.12 L 9.42 7.25 L 9.46 7.38 L 9.5 7.5 L 9.54 7.62 L 9.58 7.75 L 9.62 7.88 L 9.67 8.0 L 9.71 8.12 L 9.75 8.25 L 9.79 8.38 L 9.83 8.5 L 9.88 8.62 L 9.92 8.75 L 9.96 8.88 L 10.0 9.0" fill="none" stroke="#111" stroke-width="1.26" stroke-linecap="round" stroke-linejoin="round"/>
<path d="M 8.0 4.0 L 8.04 4.08 L 8.08 4.17 L 8.12 4.25 L 8.17 4.33 L 8.21 4.42 L 8.25 4.5 L 8.29 4.58 L 8.33 4.67 L 8.38 4.75 L 8.42 4.83 L 8.46 4.92 L 8.5 5.0 L 8.54 5.08 L 8.58 5.17 L 8.62 5.25 L 8.67 5.33 L 8.71 5.42 L 8.75 5.5 L 8.79 5.58 L 8.83 5.67 L 8.88 5.75 L 8.92 5.83 L 8.96 5.92 L 9.0 6.0 L 9.0 6.0 L 9.08 5.92 L 9.17 5.83 L 9.25 5.75 L 9.33 5.67 L 9.42 5.58 L 9.5 5.5 L 9.58 5.42 L 9.67 5.33 L 9.75 5.25 L 9.83 5.17 L 9.92 5.08 L 10.0 5.0 L 10.08 4.92 L 10.17 4.83 L 10.25 4.75 L 10.33 4.67 L 10.42 4.58 L 10.5 4.5 L 10.58 4.42 L 10.67 4.33 L 10.75 4.25 L 10.83 4.17 L 10.92 4.08 L 11.0 4.0" fill="none" stroke="#111" stroke-width="1.26" stroke-linecap="round" stroke-linejoin="round"/>
<path d="M 7.0 4.0 L 7.17 4.0 L 7.33 4.0 L 7.5 4.0 L 7.67 4.0 L 7.83 4.0 L 8.0 4.0 L 8.17 4.0 L 8.33 4.0 L 8.5 4.0 L 8.67 4.0 L 8.83 4.0 L 9.0 4.0 L 9.17 4.0 L 9.33 4.0 L 9.5 4.0 L 9.67 4.0 L 9.83 4.0 L 10.0 4.0 L 10.17 4.0 L 10.33 4.0 L 10.5 4.0 L 10.67 4.0 L 10.83 4.0 L 11.0 4.0" fill="none" stroke="#111" stroke-width="1.26" stroke-linecap="round" stroke-linejoin="round"/>
<path d="M 14.0 19.0 L 13.53 19.34 L 13.12 19.75 L 12.79 20.22 L 12.54 20.75 L 12.39 21.3 L 12.32 21.88 L 12.36 22.46 L 12.49 23.02 L 12.71 23.56 L 13.02 24.05 L 13.41 24.48 L 13.86 24.84 L 14.37 25.12 L 14.91 25.31 L 15.48 25.4 L 16.06 25.4 L 16.63 25.31 L 17.18 25.12 L 17.69 24.84 L 18.14 24.48 L 18.53 24.05 L 18.84 23.56 L 19.06 23.03 L 19.19 22.46 L 17.0 21.0 L 16.88 20.92 L 16.75 20.83 L 16.62 20.75 L 16.5 20.67 L 16.38 20.58 L 16.25 20.5 L 16.12 20.42 L 16.0 20.33 L 15.88 20.25 L 15.75 20.17 L 15.62 20.08 L 15.5 20.0 L 15.38 19.92 L 15.25 19.83 L 15.12 19.75 L 15.0 19.67 L 14.88 19.58 L 14.75 19.5 L 14.62 19.42 L 14.5 19.33 L 14.38 19.25 L 14.25 19.17 L 14.12 19.08 L 14.0 19.0" fill="none" stroke="#111" stroke-width="1.26" stroke-linecap="round" stroke-linejoin="round"/>
<path d="M 8.0 7.0 L 8.12 7.0 L 8.25 7.0 L 8.38 7.0 L 8.5 7.0 L 8.62 7.0 L 8.75 7.0 L 8.88 7.0 L 9.0 7.0 L 9.12 7.0 L 9.25 7.0 L 9.38 7.0 L 9.5 7.0 L 9.62 7.0 L 9.75 7.0 L 9.88 7.0 L 10.0 7.0 L 10.12 7.0 L 10.25 7.0 L 10.38 7.0 L 10.5 7.0 L 10.62 7.0 L 10.75 7.0 L 10.88 7.0 L 11.0 7.0" fill="none" stroke="#111" stroke-width="1.26" stroke-linecap="round" stroke-linejoin="round"/>
<path d="M 9.0 27.0 L 9.0 27.17 L 9.0 27.33 L 9.0 27.5 L 9.0 27.67 L 9.0 27.83 L 9.0 28.0 L 9.0 28.17 L 9.0 28.33 L 9.0 28.5 L 9.0 28.67 L 9.0 28.83 L 9.0 29.0 L 9.0 29.17 L 9.0 29.33 L 9.0 29.5 L 9.0 29.67 L 9.0 29.83 L 9.0 30.0 L 9.0 30.17 L 9.0 30.33 L 9.0 30.5 L 9.0 30.67 L 9.0 30.83 L 9.0 31.0" fill="none" stroke="#111" stroke-width="1.26" stroke-linecap="round" stroke-linejoin="round"/>
<path d="M 11.0 28.0 L 11.0 28.17 L 11.0 28.33 L 11.0 28.5 L 11.0 28.67 L 11.0 28.83 L 11.0 29.0 L 11.0 29.17 L 11.0 29.33 L 11.0 29.5 L 11.0 29.67 L 11.0 29.83 L 11.0 30.0 L 11.0 30.17 L 11.0 30.33 L 11.0 30.5 L 11.0 30.67 L 11.0 30.83 L 11.0 31.0 L 11.0 31.17 L 11.0 31.33 L 11.0 31.5 L 11.0 31.67 L 11.0 31.83 L 11.0 32.0" fill="none" stroke="#111" stroke-width="1.26" stroke-linecap="round" stroke-linejoin="round"/>
<path d="M 12.0 26.0 L 12.24 26.15 L 12.46 26.32 L 12.68 26.5 L 12.88 26.7 L 13.06 26.91 L 13.23 27.14 L 13.38 27.38 L 13.52 27.63 L 13.63 27.88 L 13.73 28.15 L 13.8 28.42 L 13.86 28.7 L 13.9 28.98 L 13.91 29.26 L 13.91 29.54 L 13.88 29.82 L 13.84 30.1 L 13.77 30.37 L 13.68 30.64 L 13.58 30.9 L 13.45 31.15 L 13.31 31.4 L 13.15 31.63 L 12.98 31.85" fill="none" stroke="#111" stroke-width="1.26" stroke-linecap="round" stroke-linejoin="round"/>
<path d="M 15.0 24.0 L 15.21 24.18 L 15.41 24.36 L 15.61 24.56 L 15.79 24.76 L 15.97 24.98 L 16.13 25.2 L 16.28 25.43 L 16.42 25.66 L 16.55 25.91 L 16.67 26.15 L 16.78 26.41 L 16.87 26.67 L 16.95 26.93 L 17.02 27.2 L 17.07 27.47 L 17.11 27.74 L 17.14 28.01 L 17.16 28.29 L 17.16 28.56 L 17.15 28.84 L 17.13 29.11 L 17.09 29.38 L 17.04 29.65 L 16.97 29.92" fill="none" stroke="#111" stroke-width="1.26" stroke-linecap="round" stroke-linejoin="round"/>
<path d="M 16.0 22.0 L 16.31 22.14 L 16.61 22.31 L 16.9 22.49 L 17.18 22.69 L 17.45 22.91 L 17.7 23.14 L 17.94 23.39 L 18.15 23.66 L 18.36 23.93 L 18.54 24.23 L 18.7 24.53 L 18.85 24.84 L 18.97 25.16 L 19.08 25.48 L 19.16 25.82 L 19.22 26.16 L 19.27 26.5 L 19.28 26.84 L 19.28 27.18 L 19.26 27.52 L 19.21 27.87 L 19.14 28.2 L 19.05 28.53 L 18.94 28.86" fill="none" stroke="#111" stroke-width="1.26" stroke-linecap="round" stroke-linejoin="round"/>
<path d="M 14.0 19.0 L 14.21 19.04 L 14.42 19.08 L 14.62 19.12 L 14.83 19.17 L 15.04 19.21 L 15.25 19.25 L 15.46 19.29 L 15.67 19.33 L 15.88 19.38 L 16.08 19.42 L 16.29 19.46 L 16.5 19.5 L 16.71 19.54 L 16.92 19.58 L 17.12 19.62 L 17.33 19.67 L 17.54 19.71 L 17.75 19.75 L 17.96 19.79 L 18.17 19.83 L 18.38 19.88 L 18.58 19.92 L 18.79 19.96 L 19.0 20.0" fill="none" stroke="#111" stroke-width="1.26" stroke-linecap="round" stroke-linejoin="round"/>
<path d="M 15.0 8.0 L 14.96 8.21 L 14.92 8.42 L 14.88 8.62 L 14.83 8.83 L 14.79 9.04 L 14.75 9.25 L 14.71 9.46 L 14.67 9.67 L 14.62 9.88 L 14.58 10.08 L 14.54 10.29 L 14.5 10.5 L 14.46 10.71 L 14.42 10.92 L 14.38 11.12 L 14.33 11.33 L 14.29 11.54 L 14.25 11.75 L 14.21 11.96 L 14.17 12.17 L 14.12 12.38 L 14.08 12.58 L 14.04 12.79 L 14.0 13.0" fill="none" stroke="#111" stroke-width="1.26" stroke-linecap="round" stroke-linejoin="round"/>
<path d="M 14.0 9.0 L 14.17 9.0 L 14.33 9.0 L 14.5 9.0 L 14.67 9.0 L 14.83 9.0 L 15.0 9.0 L 15.17 9.0 L 15.33 9.0 L 15.5 9.0 L 15.67 9.0 L 15.83 9.0 L 16.0 9.0 L 16.17 9.0 L 16.33 9.0 L 16.5 9.0 L 16.67 9.0 L 16.83 9.0 L 17.0 9.0 L 17.17 9.0 L 17.33 9.0 L 17.5 9.0 L 17.67 9.0 L 17.83 9.0 L 18.0 9.0" fill="none" stroke="#111" stroke-width="1.26" stroke-linecap="round" stroke-linejoin="round"/>
<path d="M 14.0 12.0 L 14.17 12.0 L 14.33 12.0 L 14.5 12.0 L 14.67 12.0 L 14.83 12.0 L 15.0 12.0 L 15.17 12.0 L 15.33 12.0 L 15.5 12.0 L 15.67 12.0 L 15.83 12.0 L 16.0 12.0 L 16.17 12.0 L 16.33 12.0 L 16.5 12.0 L 16.67 12.0 L 16.83 12.0 L 17.0 12.0 L 17.17 12.0 L 17.33 12.0 L 17.5 12.0 L 17.67 12.0 L 17.83 12.0 L 18.0 12.0" fill="none" stroke="#111" stroke-width="1.26" stroke-linecap="round" stroke-linejoin="round"/>
<path d="M 18.0 5.0 L 18.04 5.46 L 18.08 5.92 L 18.12 6.38 L 18.17 6.83 L 18.21 7.29 L 18.25 7.75 L 18.29 8.21 L 18.33 8.67 L 18.38 9.12 L 18.42 9.58 L 18.46 10.04 L 18.5 10.5 L 18.54 10.96 L 18.58 11.42 L 18.62 11.88 L 18.67 12.33 L 18.71 12.79 L 18.75 13.25 L 18.79 13.71 L 18.83 14.17 L 18.88 14.62 L 18.92 15.08 L 18.96 15.54 L 19.0 16.0" fill="none" stroke="#111" stroke-width="1.26" stroke-linecap="round" stroke-linejoin="round"/>
</svg>
