<?xml version="1.0" encoding="UTF-8"?>
<svg xmlns="http://www.w3.org/2000/svg" viewBox="0 0 25.00 38.00">
<path d="M 5.0 10.0 L 5.67 10.0 L 6.33 10.0 L 7.0 10.0 L 7.67 10.0 L 8.33 10.0 L 9.0 10.0 L 9.67 10.0 L 10.33 10.0 L 11.0 10.0 L 11.67 10.0 L 12.33 10.0 L 13.0 10.0 L 13.67 10.0 L 14.33 10.0 L 15.0 10.0 L 15.67 10.0 L 16.33 10.0 L 17.0 10.0 L 17.67 10.0 L 18.33 10.0 L 19.0 10.0 L 19.67 10.0 L 20.33 10.0 L 21.0 10.0" fill="none" stroke="#111" stroke-width="1.33" stroke-linecap="round" stroke-linejoin="round"/>
<path d="M 13.0 4.0 L 13.33 5.21 L 13.62 6.44 L 13.86 7.67 L 14.05 8.91 L 14.2 10.16 L 14.3 11.42 L 14.35 12.67 L 14.35 13.93 L 14.3 15.19 L 14.21 16.44 L 14.07 17.69 L 13.88 18.93 L 13.64 20.17 L 13.35 21.39 L 13.02 22.61 L 12.65 23.81 L 12.22 24.99 L 11.76 26.16 L 11.24 27.31 L 10.69 28.43 L 10.09 29.54 L 9.45 30.62 L 8.77 31.68 L 8.05 32.71" fill="none" stroke="#111" stroke-width="1.33" stroke-linecap="round" stroke-linejoin="round"/>
<path d="M 14.0 23.0 L 14.13 23.46 L 14.25 23.92 L 14.38 24.38 L 14.5 24.83 L 14.63 25.29 L 14.75 25.75 L 14.88 26.21 L 15.0 26.67 L 15.13 27.12 L 15.25 27.58 L 15.38 28.04 L 15.5 28.5 L 15.63 28.96 L 15.75 29.42 L 15.88 29.88 L 16.0 30.33 L 16.12 30.79 L 16.25 31.25 L 16.38 31.71 L 16.5 32.17 L 16.62 32.62 L 16.75 33.08 L 16.88 33.54 L 17.0 34.0" fill="none" stroke="#111" stroke-width="1.33" stroke-linecap="round" stroke-linejoin="round"/>
<path d="M 13.0 14.0 L 12.63 14.29 L 12.25 14.58 L 11.88 14.88 L 11.5 15.17 L 11.13 15.46 L 10.75 15.75 L 10.38 16.04 L 10.0 16.33 L 9.63 16.62 L 9.25 16.92 L 8.88 17.21 L 8.5 17.5 L 8.12 17.79 L 7.75 18.08 L 7.38 18.38 L 7.0 18.67 L 6.63 18.96 L 6.25 19.25 L 5.88 19.54 L 5.5 19.83 L 5.13 20.12 L 4.75 20.42 L 4.38 20.71 L 4.0 21.0" fill="none" stroke="#111" stroke-width="1.33" stroke-linecap="round" stroke-linejoin="round"/>
<path d="M 13.0 14.0 L 13.33 14.25 L 13.67 14.5 L 14.0 14.75 L 14.33 15.0 L 14.67 15.25 L 15.0 15.5 L 15.33 15.75 L 15.67 16.0 L 16.0 16.25 L 16.33 16.5 L 16.67 16.75 L 17.0 17.0 L 17.33 17.25 L 17.67 17.5 L 18.0 17.75 L 18.33 18.0 L 18.67 18.25 L 19.0 18.5 L 19.33 18.75 L 19.67 19.0 L 20.0 19.25 L 20.33 19.5 L 20.67 19.75 L 21.0 20.0" fill="none" stroke="#111" stroke-width="1.33" stroke-linecap="round" stroke-linejoin="round"/>
</svg>
