<?xml version="1.0" encoding="UTF-8"?>
<svg xmlns="http://www.w3.org/2000/svg" viewBox="0 0 25.73 33.94">
<path d="M 13.25 4.0 L 13.25 4.88 L 13.25 5.75 L 13.25 6.62 L 13.25 7.5 L 13.25 8.38 L 13.25 9.25 L 13.25 10.12 L 13.25 11.0 L 13.25 11.88 L 13.25 12.75 L 13.25 13.62 L 13.25 14.5 L 13.25 15.38 L 13.25 16.25 L 13.25 17.12 L 13.25 18.0 L 13.25 18.88 L 13.25 19.75 L 13.25 20.62 L 13.25 21.5 L 13.25 22.38 L 13.25 23.25 L 13.25 24.12 L 13.25 25.0" fill="none" stroke="#111" stroke-width="1.19" stroke-linecap="round" stroke-linejoin="round"/>
<path d="M 15.25 4.0 L 15.04 4.29 L 14.83 4.58 L 14.62 4.88 L 14.41 5.17 L 14.2 5.46 L 14.0 5.75 L 13.79 6.04 L 13.58 6.33 L 13.37 6.62 L 13.16 6.92 L 12.95 7.21 L 12.75 7.5 L 12.54 7.79 L 12.33 8.08 L 12.12 8.38 L 11.91 8.67 L 11.7 8.96 L 11.5 9.25 L 11.29 9.54 L 11.08 9.83 L 10.87 10.12 L 10.66 10.42 L 10.45 10.71 L 10.25 11.0 L 10.25 11.0 L 9.75 11.51 L 9.3 12.07 L 8.89 12.66 L 8.54 13.28 L 8.25 13.93 L 8.01 14.6 L 7.83 15.3 L 7.7 16.0 L 7.64 16.71 L 7.64 17.43 L 7.7 18.14 L 7.82 18.84 L 8.0 19.53 L 8.24 20.21 L 8.53 20.86 L 8.88 21.48 L 9.28 22.08 L 9.73 22.63 L 10.22 23.15 L 10.76 23.62 L 11.33 24.04 L 11.94 24.42 L 12.58 24.74 L 13.25 25.0" fill="none" stroke="#111" stroke-width="1.19" stroke-linecap="round" stroke-linejoin="round"/>
<path d="M 11.25 5.0 L 12.17 5.47 L 13.05 6.01 L 13.88 6.63 L 14.65 7.32 L 15.36 8.07 L 16.0 8.89 L 16.56 9.75 L 17.05 10.66 L 17.46 11.61 L 17.78 12.6 L 18.02 13.6 L 18.17 14.63 L 18.23 15.66 L 18.19 16.69 L 18.07 17.72 L 17.86 18.73 L 17.56 19.72 L 17.18 20.68 L 16.71 21.61 L 16.17 22.49 L 15.55 23.31 L 14.86 24.09 L 14.1 24.79 L 13.29 25.43" fill="none" stroke="#111" stroke-width="1.19" stroke-linecap="round" stroke-linejoin="round"/>
<path d="M 9.25 13.0 L 9.58 13.0 L 9.91 13.0 L 10.25 13.0 L 10.58 13.0 L 10.91 13.0 L 11.25 13.0 L 11.58 13.0 L 11.91 13.0 L 12.25 13.0 L 12.58 13.0 L 12.91 13.0 L 13.25 13.0 L 13.58 13.0 L 13.91 13.0 L 14.25 13.0 L 14.58 13.0 L 14.91 13.0 L 15.25 13.0 L 15.58 13.0 L 15.91 13.0 L 16.25 13.0 L 16.58 13.0 L 16.91 13.0 L 17.25 13.0" fill="none" stroke="#111" stroke-width="1.19" stroke-linecap="round" stroke-linejoin="round"/>
<path d="M 8.25 19.0 L 8.7 18.96 L 9.16 18.92 L 9.62 18.88 L 10.08 18.83 L 10.54 18.79 L 11.0 18.75 L 11.45 18.71 L 11.91 18.67 L 12.37 18.62 L 12.83 18.58 L 13.29 18.54 L 13.75 18.5 L 14.2 18.46 L 14.66 18.42 L 15.12 18.38 L 15.58 18.33 L 16.04 18.29 L 16.5 18.25 L 16.95 18.21 L 17.41 18.17 L 17.87 18.12 L 18.33 18.08 L 18.79 18.04 L 19.25 18.0" fill="none" stroke="#111" stroke-width="1.19" stroke-linecap="round" stroke-linejoin="round"/>
<path d="M 5.25 16.0 L 4.97 16.49 L 4.72 16.99 L 4.51 17.51 L 4.34 18.05 L 4.2 18.59 L 4.1 19.14 L 4.03 19.7 L 4.0 20.26 L 4.01 20.82 L 4.05 21.38 L 4.13 21.94 L 4.25 22.49 L 4.41 23.03 L 4.6 23.55 L 4.82 24.07 L 5.08 24.57 L 5.37 25.05 L 5.69 25.51 L 6.04 25.95 L 6.42 26.36 L 6.82 26.75 L 7.25 27.11 L 7.71 27.44 L 8.18 27.74" fill="none" stroke="#111" stroke-width="1.19" stroke-linecap="round" stroke-linejoin="round"/>
<path d="M 8.25 19.0 L 7.93 19.37 L 7.63 19.75 L 7.34 20.15 L 7.07 20.55 L 6.81 20.97 L 6.57 21.39 L 6.35 21.83 L 6.14 22.27 L 5.95 22.72 L 5.78 23.17 L 5.62 23.64 L 5.48 24.1 L 5.36 24.58 L 5.26 25.05 L 5.18 25.53 L 5.12 26.02 L 5.07 26.5 L 5.04 26.99 L 5.04 27.48 L 5.05 27.97 L 5.07 28.45 L 5.12 28.94 L 5.19 29.42 L 5.27 29.9" fill="none" stroke="#111" stroke-width="1.19" stroke-linecap="round" stroke-linejoin="round"/>
<path d="M 21.25 14.0 L 21.4 14.57 L 21.52 15.15 L 21.61 15.74 L 21.68 16.32 L 21.72 16.92 L 21.73 17.51 L 21.71 18.1 L 21.66 18.69 L 21.58 19.28 L 21.48 19.86 L 21.34 20.44 L 21.18 21.01 L 21.0 21.57 L 20.78 22.12 L 20.54 22.66 L 20.27 23.19 L 19.98 23.7 L 19.67 24.2 L 19.32 24.69 L 18.96 25.16 L 18.58 25.61 L 18.17 26.04 L 17.74 26.45 L 17.3 26.83" fill="none" stroke="#111" stroke-width="1.19" stroke-linecap="round" stroke-linejoin="round"/>
<path d="M 19.25 19.0 L 19.49 19.41 L 19.72 19.82 L 19.94 20.24 L 20.15 20.67 L 20.34 21.1 L 20.52 21.54 L 20.68 21.99 L 20.83 22.44 L 20.97 22.89 L 21.09 23.35 L 21.19 23.81 L 21.29 24.28 L 21.36 24.75 L 21.43 25.22 L 21.47 25.69 L 21.51 26.16 L 21.53 26.64 L 21.53 27.11 L 21.52 27.58 L 21.49 28.06 L 21.45 28.53 L 21.39 29.0 L 21.32 29.47 L 21.23 29.94" fill="none" stroke="#111" stroke-width="1.19" stroke-linecap="round" stroke-linejoin="round"/>
</svg>
