<?xml version="1.0" encoding="UTF-8"?>
<svg xmlns="http://www.w3.org/2000/svg" viewBox="0 0 23.00 31.00">
<path d="M 4.0 9.0 L 4.62 9.0 L 5.25 9.0 L 5.88 9.0 L 6.5 9.0 L 7.12 9.0 L 7.75 9.0 L 8.38 9.0 L 9.0 9.0 L 9.62 9.0 L 10.25 9.0 L 10.88 9.0 L 11.5 9.0 L 12.12 9.0 L 12.75 9.0 L 13.38 9.0 L 14.0 9.0 L 14.62 9.0 L 15.25 9.0 L 15.88 9.0 L 16.5 9.0 L 17.12 9.0 L 17.75 9.0 L 18.38 9.0 L 19.0 9.0" fill="none" stroke="#111" stroke-width="1.09" stroke-linecap="round" stroke-linejoin="round"/>
<path d="M 4.0 16.0 L 4.62 16.0 L 5.25 16.0 L 5.88 16.0 L 6.5 16.0 L 7.12 16.0 L 7.75 16.0 L 8.38 16.0 L 9.0 16.0 L 9.62 16.0 L 10.25 16.0 L 10.88 16.0 L 11.5 16.0 L 12.12 16.0 L 12.75 16.0 L 13.38 16.0 L 14.0 16.0 L 14.62 16.0 L 15.25 16.0 L 15.88 16.0 L 16.5 16.0 L 17.12 16.0 L 17.75 16.0 L 18.38 16.0 L 19.0 16.0" fill="none" stroke="#111" stroke-width="1.09" stroke-linecap="round" stroke-linejoin="round"/>
<path d="M 19.0 8.0 L 19.0 8.33 L 19.0 8.67 L 19.0 9.0 L 19.0 9.33 L 19.0 9.67 L 19.0 10.0 L 19.0 10.33 L 19.0 10.67 L 19.0 11.0 L 19.0 11.33 L 19.0 11.67 L 19.0 12.0 L 19.0 12.33 L 19.0 12.67 L 19.0 13.0 L 19.0 13.33 L 19.0 13.67 L 19.0 14.0 L 19.0 14.33 L 19.0 14.67 L 19.0 15.0 L 19.0 15.33 L 19.0 15.67 L 19.0 16.0" fill="none" stroke="#111" stroke-width="1.09" stroke-linecap="round" stroke-linejoin="round"/>
<path d="M 4.0 16.0 L 4.0 16.25 L 4.0 16.5 L 4.0 16.75 L 4.0 17.0 L 4.0 17.25 L 4.0 17.5 L 4.0 17.75 L 4.0 18.0 L 4.0 18.25 L 4.0 18.5 L 4.0 18.75 L 4.0 19.0 L 4.0 19.25 L 4.0 19.5 L 4.0 19.75 L 4.0 20.0 L 4.0 20.25 L 4.0 20.5 L 4.0 20.75 L 4.0 21.0 L 4.0 21.25 L 4.0 21.5 L 4.0 21.75 L 4.0 22.0 L 4.0 22.0 L 4.62 22.0 L 5.25 22.0 L 5.88 22.0 L 6.5 22.0 L 7.12 22.0 L 7.75 22.0 L 8.38 22.0 L 9.0 22.0 L 9.62 22.0 L 10.25 22.0 L 10.88 22.0 L 11.5 22.0 L 12.12 22.0 L 12.75 22.0 L 13.38 22.0 L 14.0 22.0 L 14.62 22.0 L 15.25 22.0 L 15.88 22.0 L 16.5 22.0 L 17.12 22.0 L 17.75 22.0 L 18.38 22.0 L 19.0 22.0" fill="none" stroke="#111" stroke-width="1.09" stroke-linecap="round" stroke-linejoin="round"/>
<path d="M 9.0 4.0 L 9.0 4.96 L 9.0 5.92 L 9.0 6.88 L 9.0 7.83 L 9.0 8.79 L 9.0 9.75 L 9.0 10.71 L 9.0 11.67 L 9.0 12.62 L 9.0 13.58 L 9.0 14.54 L 9.0 15.5 L 9.0 16.46 L 9.0 17.42 L 9.0 18.38 L 9.0 19.33 L 9.0 20.29 L 9.0 21.25 L 9.0 22.21 L 9.0 23.17 L 9.0 24.12 L 9.0 25.08 L 9.0 26.04 L 9.0 27.0" fill="none" stroke="#111" stroke-width="1.09" stroke-linecap="round" stroke-linejoin="round"/>
<path d="M 15.0 5.0 L 15.0 5.92 L 15.0 6.83 L 15.0 7.75 L 15.0 8.67 L 15.0 9.58 L 15.0 10.5 L 15.0 11.42 L 15.0 12.33 L 15.0 13.25 L 15.0 14.17 L 15.0 15.08 L 15.0 16.0 L 15.0 16.92 L 15.0 17.83 L 15.0 18.75 L 15.0 19.67 L 15.0 20.58 L 15.0 21.5 L 15.0 22.42 L 15.0 23.33 L 15.0 24.25 L 15.0 25.17 L 15.0 26.08 L 15.0 27.0" fill="none" stroke="#111" stroke-width="1.09" stroke-linecap="round" stroke-linejoin="round"/>
</svg>
