<?xml version="1.0" encoding="UTF-8"?>
<svg xmlns="http://www.w3.org/2000/svg" viewBox="0 0 16.00 39.93">
<path d="M 6.0 4.0 L 6.25 4.42 L 6.5 4.83 L 6.75 5.25 L 7.0 5.67 L 7.25 6.08 L 7.5 6.5 L 7.75 6.92 L 8.0 7.33 L 8.25 7.75 L 8.5 8.17 L 8.75 8.58 L 9.0 9.0 L 9.25 9.42 L 9.5 9.83 L 9.75 10.25 L 10.0 10.67 L 10.25 11.08 L 10.5 11.5 L 10.75 11.92 L 11.0 12.33 L 11.25 12.75 L 11.5 13.17 L 11.75 13.58 L 12.0 14.0" fill="none" stroke="#111" stroke-width="1.40" stroke-linecap="round" stroke-linejoin="round"/>
<path d="M 8.0 8.0 L 7.71 8.57 L 7.43 9.15 L 7.18 9.74 L 6.95 10.33 L 6.74 10.94 L 6.55 11.55 L 6.38 12.17 L 6.24 12.8 L 6.11 13.42 L 6.02 14.06 L 5.94 14.69 L 5.88 15.33 L 5.85 15.97 L 5.84 16.61 L 5.86 17.25 L 5.9 17.89 L 5.96 18.53 L 6.04 19.17 L 6.15 19.8 L 6.27 20.43 L 6.42 21.05 L 6.6 21.67 L 6.79 22.28 L 7.01 22.88 L 7.0 23.0 L 6.88 23.25 L 6.75 23.5 L 6.62 23.75 L 6.5 24.0 L 6.38 24.25 L 6.25 24.5 L 6.12 24.75 L 6.0 25.0 L 5.88 25.25 L 5.75 25.5 L 5.62 25.75 L 5.5 26.0 L 5.38 26.25 L 5.25 26.5 L 5.12 26.75 L 5.0 27.0 L 4.88 27.25 L 4.75 27.5 L 4.62 27.75 L 4.5 28.0 L 4.38 28.25 L 4.25 28.5 L 4.12 28.75 L 4.0 29.0" fill="none" stroke="#111" stroke-width="1.40" stroke-linecap="round" stroke-linejoin="round"/>
<path d="M 9.0 22.0 L 9.22 22.44 L 9.41 22.89 L 9.56 23.36 L 9.68 23.83 L 9.76 24.31 L 9.81 24.8 L 9.82 25.29 L 9.8 25.78 L 9.74 26.27 L 9.64 26.75 L 9.51 27.22 L 9.35 27.68 L 9.15 28.13 L 8.92 28.56 L 8.66 28.98 L 8.36 29.37 L 8.04 29.74 L 7.7 30.09 L 7.33 30.41 L 6.93 30.7 L 6.52 30.96 L 6.09 31.19 L 5.64 31.39 L 5.18 31.56" fill="none" stroke="#111" stroke-width="1.40" stroke-linecap="round" stroke-linejoin="round"/>
<path d="M 7.0 24.0 L 7.28 24.44 L 7.55 24.89 L 7.81 25.34 L 8.05 25.81 L 8.28 26.27 L 8.49 26.75 L 8.7 27.23 L 8.89 27.72 L 9.06 28.21 L 9.23 28.71 L 9.37 29.21 L 9.51 29.71 L 9.63 30.22 L 9.73 30.73 L 9.82 31.25 L 9.9 31.76 L 9.96 32.28 L 10.01 32.8 L 10.04 33.32 L 10.06 33.84 L 10.06 34.37 L 10.05 34.89 L 10.02 35.41 L 9.98 35.93" fill="none" stroke="#111" stroke-width="1.40" stroke-linecap="round" stroke-linejoin="round"/>
</svg>
