<?xml version="1.0" encoding="UTF-8"?>
<svg xmlns="http://www.w3.org/2000/svg" viewBox="0 0 23.31 37.31">
<path d="M 14.0 4.0 L 12.86 4.8 L 11.78 5.68 L 10.77 6.63 L 9.82 7.65 L 8.95 8.74 L 8.15 9.88 L 7.44 11.07 L 6.8 12.31 L 6.26 13.59 L 5.8 14.91 L 5.44 16.25 L 5.17 17.61 L 5.0 18.99 L 4.92 20.38 L 4.94 21.78 L 5.05 23.16 L 5.26 24.54 L 5.57 25.9 L 5.97 27.23 L 6.46 28.53 L 7.03 29.8 L 7.7 31.02 L 8.45 32.19 L 9.27 33.31" fill="none" stroke="#111" stroke-width="1.31" stroke-linecap="round" stroke-linejoin="round"/>
<path d="M 5.0 8.0 L 5.17 8.17 L 5.33 8.33 L 5.5 8.5 L 5.67 8.67 L 5.83 8.83 L 6.0 9.0 L 6.17 9.17 L 6.33 9.33 L 6.5 9.5 L 6.67 9.67 L 6.83 9.83 L 7.0 10.0 L 7.17 10.17 L 7.33 10.33 L 7.5 10.5 L 7.67 10.67 L 7.83 10.83 L 8.0 11.0 L 8.17 11.17 L 8.33 11.33 L 8.5 11.5 L 8.67 11.67 L 8.83 11.83 L 9.0 12.0" fill="none" stroke="#111" stroke-width="1.31" stroke-linecap="round" stroke-linejoin="round"/>
<path d="M 4.0 14.0 L 4.21 14.21 L 4.42 14.42 L 4.62 14.62 L 4.83 14.83 L 5.04 15.04 L 5.25 15.25 L 5.46 15.46 L 5.67 15.67 L 5.88 15.88 L 6.08 16.08 L 6.29 16.29 L 6.5 16.5 L 6.71 16.71 L 6.92 16.92 L 7.12 17.12 L 7.33 17.33 L 7.54 17.54 L 7.75 17.75 L 7.96 17.96 L 8.17 18.17 L 8.38 18.38 L 8.58 18.58 L 8.79 18.79 L 9.0 19.0" fill="none" stroke="#111" stroke-width="1.31" stroke-linecap="round" stroke-linejoin="round"/>
<path d="M 9.0 19.0 L 9.21 18.75 L 9.42 18.5 L 9.62 18.25 L 9.83 18.0 L 10.04 17.75 L 10.25 17.5 L 10.46 17.25 L 10.67 17.0 L 10.88 16.75 L 11.08 16.5 L 11.29 16.25 L 11.5 16.0 L 11.71 15.75 L 11.92 15.5 L 12.12 15.25 L 12.33 15.0 L 12.54 14.75 L 12.75 14.5 L 12.96 14.25 L 13.17 14.0 L 13.38 13.75 L 13.58 13.5 L 13.79 13.25 L 14.0 13.0" fill="none" stroke="#111" stroke-width="1.31" stroke-linecap="round" stroke-linejoin="round"/>
<path d="M 4.0 29.0 L 4.21 28.79 L 4.42 28.58 L 4.62 28.38 L 4.83 28.17 L 5.04 27.96 L 5.25 27.75 L 5.46 27.54 L 5.67 27.33 L 5.88 27.12 L 6.08 26.92 L 6.29 26.71 L 6.5 26.5 L 6.71 26.29 L 6.92 26.08 L 7.12 25.88 L 7.33 25.67 L 7.54 25.46 L 7.75 25.25 L 7.96 25.04 L 8.17 24.83 L 8.38 24.62 L 8.58 24.42 L 8.79 24.21 L 9.0 24.0" fill="none" stroke="#111" stroke-width="1.31" stroke-linecap="round" stroke-linejoin="round"/>
<path d="M 9.0 24.0 L 9.17 24.21 L 9.33 24.42 L 9.5 24.62 L 9.67 24.83 L 9.83 25.04 L 10.0 25.25 L 10.17 25.46 L 10.33 25.67 L 10.5 25.88 L 10.67 26.08 L 10.83 26.29 L 11.0 26.5 L 11.17 26.71 L 11.33 26.92 L 11.5 27.12 L 11.67 27.33 L 11.83 27.54 L 12.0 27.75 L 12.17 27.96 L 12.33 28.17 L 12.5 28.38 L 12.67 28.58 L 12.83 28.79 L 13.0 29.0" fill="none" stroke="#111" stroke-width="1.31" stroke-linecap="round" stroke-linejoin="round"/>
<path d="M 14.0 4.0 L 14.08 4.25 L 14.17 4.5 L 14.25 4.75 L 14.33 5.0 L 14.42 5.25 L 14.5 5.5 L 14.58 5.75 L 14.67 6.0 L 14.75 6.25 L 14.83 6.5 L 14.92 6.75 L 15.0 7.0 L 15.08 7.25 L 15.17 7.5 L 15.25 7.75 L 15.33 8.0 L 15.42 8.25 L 15.5 8.5 L 15.58 8.75 L 15.67 9.0 L 15.75 9.25 L 15.83 9.5 L 15.92 9.75 L 16.0 10.0" fill="none" stroke="#111" stroke-width="1.31" stroke-linecap="round" stroke-linejoin="round"/>
<path d="M 14.0 17.0 L 14.4 17.22 L 14.77 17.47 L 15.12 17.76 L 15.44 18.07 L 15.73 18.42 L 15.98 18.79 L 16.2 19.19 L 16.39 19.6 L 16.53 20.03 L 16.63 20.46 L 16.7 20.91 L 16.72 21.36 L 16.7 21.81 L 16.63 22.26 L 16.53 22.7 L 16.39 23.13 L 16.2 23.54 L 15.98 23.93 L 15.73 24.3 L 15.44 24.65 L 15.12 24.97 L 14.77 25.25 L 14.4 25.51 L 14.0 25.72" fill="none" stroke="#111" stroke-width="1.31" stroke-linecap="round" stroke-linejoin="round"/>
<path d="M 12.0 19.0 L 12.65 19.27 L 13.28 19.58 L 13.89 19.92 L 14.48 20.31 L 15.04 20.73 L 15.58 21.18 L 16.09 21.67 L 16.56 22.19 L 17.0 22.73 L 17.41 23.3 L 17.78 23.9 L 18.12 24.52 L 18.41 25.16 L 18.67 25.81 L 18.88 26.48 L 19.05 27.16 L 19.18 27.85 L 19.26 28.55 L 19.31 29.25 L 19.3 29.95 L 19.26 30.66 L 19.17 31.35 L 19.04 32.04 L 18.86 32.72" fill="none" stroke="#111" stroke-width="1.31" stroke-linecap="round" stroke-linejoin="round"/>
</svg>
