<?xml version="1.0" encoding="UTF-8"?>
<svg xmlns="http://www.w3.org/2000/svg" viewBox="0 0 24.66 36.45">
<path d="M 7.0 4.0 L 7.64 5.06 L 8.24 6.14 L 8.79 7.25 L 9.3 8.38 L 9.76 9.53 L 10.17 10.7 L 10.53 11.89 L 10.84 13.09 L 11.1 14.3 L 11.32 15.52 L 11.48 16.74 L 11.59 17.98 L 11.65 19.22 L 11.66 20.45 L 11.61 21.69 L 11.52 22.93 L 11.37 24.16 L 11.18 25.38 L 10.93 26.59 L 10.64 27.8 L 10.29 28.99 L 9.9 30.16 L 9.45 31.32 L 8.96 32.45" fill="none" stroke="#111" stroke-width="1.28" stroke-linecap="round" stroke-linejoin="round"/>
<path d="M 5.0 11.0 L 5.21 11.21 L 5.42 11.42 L 5.62 11.62 L 5.83 11.83 L 6.04 12.04 L 6.25 12.25 L 6.46 12.46 L 6.67 12.67 L 6.88 12.88 L 7.08 13.08 L 7.29 13.29 L 7.5 13.5 L 7.71 13.71 L 7.92 13.92 L 8.12 14.12 L 8.33 14.33 L 8.54 14.54 L 8.75 14.75 L 8.96 14.96 L 9.17 15.17 L 9.38 15.38 L 9.58 15.58 L 9.79 15.79 L 10.0 16.0" fill="none" stroke="#111" stroke-width="1.28" stroke-linecap="round" stroke-linejoin="round"/>
<path d="M 4.0 19.0 L 4.21 19.21 L 4.42 19.42 L 4.62 19.62 L 4.83 19.83 L 5.04 20.04 L 5.25 20.25 L 5.46 20.46 L 5.67 20.67 L 5.88 20.88 L 6.08 21.08 L 6.29 21.29 L 6.5 21.5 L 6.71 21.71 L 6.92 21.92 L 7.12 22.12 L 7.33 22.33 L 7.54 22.54 L 7.75 22.75 L 7.96 22.96 L 8.17 23.17 L 8.38 23.38 L 8.58 23.58 L 8.79 23.79 L 9.0 24.0" fill="none" stroke="#111" stroke-width="1.28" stroke-linecap="round" stroke-linejoin="round"/>
<path d="M 13.0 4.0 L 13.93 4.88 L 14.81 5.82 L 15.64 6.8 L 16.41 7.82 L 17.13 8.89 L 17.78 9.99 L 18.37 11.13 L 18.9 12.3 L 19.36 13.5 L 19.75 14.72 L 20.07 15.97 L 20.33 17.22 L 20.51 18.5 L 20.62 19.77 L 20.66 21.06 L 20.63 22.34 L 20.52 23.62 L 20.35 24.89 L 20.1 26.15 L 19.79 27.4 L 19.41 28.62 L 18.95 29.82 L 18.43 31.0 L 17.85 32.14" fill="none" stroke="#111" stroke-width="1.28" stroke-linecap="round" stroke-linejoin="round"/>
<path d="M 13.0 12.0 L 13.21 12.21 L 13.42 12.42 L 13.62 12.62 L 13.83 12.83 L 14.04 13.04 L 14.25 13.25 L 14.46 13.46 L 14.67 13.67 L 14.88 13.88 L 15.08 14.08 L 15.29 14.29 L 15.5 14.5 L 15.71 14.71 L 15.92 14.92 L 16.12 15.12 L 16.33 15.33 L 16.54 15.54 L 16.75 15.75 L 16.96 15.96 L 17.17 16.17 L 17.38 16.38 L 17.58 16.58 L 17.79 16.79 L 18.0 17.0" fill="none" stroke="#111" stroke-width="1.28" stroke-linecap="round" stroke-linejoin="round"/>
<path d="M 12.0 22.0 L 12.25 22.21 L 12.5 22.42 L 12.75 22.62 L 13.0 22.83 L 13.25 23.04 L 13.5 23.25 L 13.75 23.46 L 14.0 23.67 L 14.25 23.88 L 14.5 24.08 L 14.75 24.29 L 15.0 24.5 L 15.25 24.71 L 15.5 24.92 L 15.75 25.12 L 16.0 25.33 L 16.25 25.54 L 16.5 25.75 L 16.75 25.96 L 17.0 26.17 L 17.25 26.38 L 17.5 26.58 L 17.75 26.79 L 18.0 27.0" fill="none" stroke="#111" stroke-width="1.28" stroke-linecap="round" stroke-linejoin="round"/>
</svg>
