<?xml version="1.0" encoding="UTF-8"?>
<svg xmlns="http://www.w3.org/2000/svg" viewBox="0 0 18.06 39.81">
<path d="M 8.24 4.0 L 7.48 4.78 L 6.8 5.62 L 6.19 6.53 L 5.67 7.48 L 5.24 8.48 L 4.91 9.52 L 4.67 10.58 L 4.52 11.65 L 4.48 12.74 L 4.53 13.83 L 4.68 14.9 L 4.94 15.96 L 5.28 16.99 L 5.72 17.99 L 6.25 18.94 L 6.86 19.84 L 7.55 20.67 L 8.32 21.45 L 9.15 22.15 L 10.04 22.77 L 10.99 23.3 L 11.98 23.75 L 13.0 24.11 L 14.06 24.37" fill="none" stroke="#111" stroke-width="1.39" stroke-linecap="round" stroke-linejoin="round"/>
<path d="M 12.24 9.0 L 11.48 9.93 L 10.74 10.88 L 10.05 11.85 L 9.38 12.85 L 8.76 13.88 L 8.17 14.92 L 7.61 15.98 L 7.09 17.07 L 6.61 18.17 L 6.17 19.28 L 5.77 20.42 L 5.41 21.56 L 5.09 22.72 L 4.81 23.88 L 4.57 25.06 L 4.38 26.24 L 4.22 27.43 L 4.1 28.63 L 4.03 29.82 L 4.0 31.02 L 4.01 32.22 L 4.06 33.42 L 4.16 34.62 L 4.29 35.81" fill="none" stroke="#111" stroke-width="1.39" stroke-linecap="round" stroke-linejoin="round"/>
</svg>
