<?xml version="1.0" encoding="UTF-8"?>
<svg xmlns="http://www.w3.org/2000/svg" viewBox="0 0 31.98 39.98">
<path d="M 5.0 7.98 L 5.17 7.98 L 5.33 7.98 L 5.5 7.98 L 5.67 7.98 L 5.83 7.98 L 6.0 7.98 L 6.17 7.98 L 6.33 7.98 L 6.5 7.98 L 6.67 7.98 L 6.83 7.98 L 7.0 7.98 L 7.17 7.98 L 7.33 7.98 L 7.5 7.98 L 7.67 7.98 L 7.83 7.98 L 8.0 7.98 L 8.17 7.98 L 8.33 7.98 L 8.5 7.98 L 8.67 7.98 L 8.83 7.98 L 9.0 7.98" fill="none" stroke="#111" stroke-width="1.40" stroke-linecap="round" stroke-linejoin="round"/>
<path d="M 4.0 9.98 L 4.21 9.98 L 4.42 9.98 L 4.62 9.98 L 4.83 9.98 L 5.04 9.98 L 5.25 9.98 L 5.46 9.98 L 5.67 9.98 L 5.88 9.98 L 6.08 9.98 L 6.29 9.98 L 6.5 9.98 L 6.71 9.98 L 6.92 9.98 L 7.12 9.98 L 7.33 9.98 L 7.54 9.98 L 7.75 9.98 L 7.96 9.98 L 8.17 9.98 L 8.38 9.98 L 8.58 9.98 L 8.79 9.98 L 9.0 9.98" fill="none" stroke="#111" stroke-width="1.40" stroke-linecap="round" stroke-linejoin="round"/>
<path d="M 7.0 9.98 L 7.0 10.52 L 7.0 11.06 L 7.0 11.6 L 7.0 12.15 L 7.0 12.69 L 7.0 13.23 L 7.0 13.77 L 7.0 14.31 L 7.0 14.85 L 7.0 15.4 L 7.0 15.94 L 7.0 16.48 L 7.0 17.02 L 7.0 17.56 L 7.0 18.1 L 7.0 18.65 L 7.0 19.19 L 7.0 19.73 L 7.0 20.27 L 7.0 20.81 L 7.0 21.35 L 7.0 21.9 L 7.0 22.44 L 7.0 22.98" fill="none" stroke="#111" stroke-width="1.40" stroke-linecap="round" stroke-linejoin="round"/>
<path d="M 9.0 4.98 L 9.51 5.44 L 10.06 5.86 L 10.63 6.25 L 11.23 6.59 L 11.85 6.9 L 12.49 7.16 L 13.14 7.37 L 13.81 7.54 L 14.49 7.66 L 15.18 7.73 L 15.87 7.76 L 16.56 7.74 L 17.25 7.67 L 17.93 7.55 L 18.6 7.39 L 19.25 7.18 L 19.89 6.92 L 20.52 6.62 L 21.12 6.28 L 21.69 5.9 L 22.24 5.48 L 22.75 5.02 L 23.24 4.53 L 23.69 4.0" fill="none" stroke="#111" stroke-width="1.40" stroke-linecap="round" stroke-linejoin="round"/>
<path d="M 9.0 11.98 L 9.78 11.81 L 10.56 11.65 L 11.35 11.51 L 12.13 11.38 L 12.92 11.27 L 13.72 11.18 L 14.51 11.09 L 15.3 11.03 L 16.1 10.97 L 16.9 10.94 L 17.69 10.92 L 18.49 10.91 L 19.29 10.92 L 20.09 10.94 L 20.88 10.97 L 21.68 11.03 L 22.47 11.09 L 23.27 11.18 L 24.06 11.27 L 24.85 11.38 L 25.63 11.51 L 26.42 11.65 L 27.2 11.81 L 27.98 11.98" fill="none" stroke="#111" stroke-width="1.40" stroke-linecap="round" stroke-linejoin="round"/>
<path d="M 15.0 6.98 L 15.04 7.4 L 15.08 7.81 L 15.12 8.23 L 15.17 8.65 L 15.21 9.06 L 15.25 9.48 L 15.29 9.9 L 15.33 10.31 L 15.38 10.73 L 15.42 11.15 L 15.46 11.56 L 15.5 11.98 L 15.54 12.4 L 15.58 12.81 L 15.62 13.23 L 15.67 13.65 L 15.71 14.06 L 15.75 14.48 L 15.79 14.9 L 15.83 15.31 L 15.88 15.73 L 15.92 16.15 L 15.96 16.56 L 16.0 16.98" fill="none" stroke="#111" stroke-width="1.40" stroke-linecap="round" stroke-linejoin="round"/>
<path d="M 21.0 6.98 L 21.0 7.4 L 21.0 7.81 L 21.0 8.23 L 21.0 8.65 L 21.0 9.06 L 21.0 9.48 L 21.0 9.9 L 21.0 10.31 L 21.0 10.73 L 21.0 11.15 L 21.0 11.56 L 21.0 11.98 L 21.0 12.4 L 21.0 12.81 L 21.0 13.23 L 21.0 13.65 L 21.0 14.06 L 21.0 14.48 L 21.0 14.9 L 21.0 15.31 L 21.0 15.73 L 21.0 16.15 L 21.0 16.56 L 21.0 16.98" fill="none" stroke="#111" stroke-width="1.40" stroke-linecap="round" stroke-linejoin="round"/>
<path d="M 12.0 18.98 L 11.99 19.49 L 12.01 20.0 L 12.04 20.52 L 12.1 21.03 L 12.17 21.54 L 12.26 22.04 L 12.37 22.54 L 12.5 23.04 L 12.65 23.53 L 12.82 24.01 L 13.0 24.49 L 13.21 24.96 L 13.43 25.43 L 13.66 25.88 L 13.92 26.33 L 14.19 26.76 L 14.48 27.18 L 14.79 27.6 L 15.11 28.0 L 15.44 28.39 L 15.79 28.76 L 16.15 29.12 L 16.53 29.47 L 16.92 29.81" fill="none" stroke="#111" stroke-width="1.40" stroke-linecap="round" stroke-linejoin="round"/>
<path d="M 12.0 18.98 L 12.99 18.44 L 14.05 18.04 L 15.15 17.8 L 16.27 17.72 L 17.4 17.8 L 18.5 18.04 L 19.56 18.43 L 20.55 18.97 L 21.45 19.65 L 22.24 20.45 L 22.92 21.35 L 23.46 22.34 L 23.85 23.4 L 24.09 24.5 L 24.17 25.63 L 24.08 26.75 L 23.84 27.85 L 23.44 28.91 L 22.9 29.9 L 22.22 30.8 L 21.42 31.59 L 20.51 32.26 L 19.52 32.8 L 18.46 33.19" fill="none" stroke="#111" stroke-width="1.40" stroke-linecap="round" stroke-linejoin="round"/>
<path d="M 13.0 21.98 L 13.42 21.94 L 13.83 21.9 L 14.25 21.85 L 14.67 21.81 L 15.08 21.77 L 15.5 21.73 L 15.92 21.69 L 16.33 21.65 L 16.75 21.6 L 17.17 21.56 L 17.58 21.52 L 18.0 21.48 L 18.42 21.44 L 18.83 21.4 L 19.25 21.35 L 19.67 21.31 L 20.08 21.27 L 20.5 21.23 L 20.92 21.19 L 21.33 21.15 L 21.75 21.1 L 22.17 21.06 L 22.58 21.02 L 23.0 20.98" fill="none" stroke="#111" stroke-width="1.40" stroke-linecap="round" stroke-linejoin="round"/>
<path d="M 14.0 24.98 L 14.33 24.98 L 14.67 24.98 L 15.0 24.98 L 15.33 24.98 L 15.67 24.98 L 16.0 24.98 L 16.33 24.98 L 16.67 24.98 L 17.0 24.98 L 17.33 24.98 L 17.67 24.98 L 18.0 24.98 L 18.33 24.98 L 18.67 24.98 L 19.0 24.98 L 19.33 24.98 L 19.67 24.98 L 20.0 24.98 L 20.33 24.98 L 20.67 24.98 L 21.0 24.98 L 21.33 24.98 L 21.67 24.98 L 22.0 24.98" fill="none" stroke="#111" stroke-width="1.40" stroke-linecap="round" stroke-linejoin="round"/>
<path d="M 18.0 18.98 L 17.96 19.4 L 17.92 19.81 L 17.88 20.23 L 17.83 20.65 L 17.79 21.06 L 17.75 21.48 L 17.71 21.9 L 17.67 22.31 L 17.62 22.73 L 17.58 23.15 L 17.54 23.56 L 17.5 23.98 L 17.46 24.4 L 17.42 24.81 L 17.38 25.23 L 17.33 25.65 L 17.29 26.06 L 17.25 26.48 L 17.21 26.9 L 17.17 27.31 L 17.12 27.73 L 17.08 28.15 L 17.04 28.56 L 17.0 28.98" fill="none" stroke="#111" stroke-width="1.40" stroke-linecap="round" stroke-linejoin="round"/>
<path d="M 10.0 24.98 L 9.92 25.33 L 9.87 25.69 L 9.84 26.05 L 9.83 26.42 L 9.85 26.78 L 9.88 27.14 L 9.95 27.5 L 10.03 27.85 L 10.14 28.2 L 10.26 28.54 L 10.41 28.87 L 10.58 29.19 L 10.77 29.5 L 10.98 29.79 L 11.21 30.07 L 11.45 30.34 L 11.71 30.59 L 11.99 30.83 L 12.28 31.04 L 12.59 31.24 L 12.9 31.42 L 13.23 31.57 L 13.57 31.71 L 13.91 31.82" fill="none" stroke="#111" stroke-width="1.40" stroke-linecap="round" stroke-linejoin="round"/>
<path d="M 14.0 25.98 L 13.83 26.4 L 13.67 26.81 L 13.5 27.23 L 13.33 27.65 L 13.17 28.06 L 13.0 28.48 L 12.83 28.9 L 12.67 29.31 L 12.5 29.73 L 12.33 30.15 L 12.17 30.56 L 12.0 30.98 L 11.83 31.4 L 11.67 31.81 L 11.5 32.23 L 11.33 32.65 L 11.17 33.06 L 11.0 33.48 L 10.83 33.9 L 10.67 34.31 L 10.5 34.73 L 10.33 35.15 L 10.17 35.56 L 10.0 35.98" fill="none" stroke="#111" stroke-width="1.40" stroke-linecap="round" stroke-linejoin="round"/>
<path d="M 25.0 24.98 L 25.22 25.25 L 25.41 25.54 L 25.58 25.85 L 25.72 26.17 L 25.83 26.5 L 25.92 26.83 L 25.98 27.18 L 26.01 27.52 L 26.02 27.87 L 25.99 28.22 L 25.94 28.56 L 25.85 28.9 L 25.74 29.23 L 25.61 29.55 L 25.45 29.86 L 25.26 30.16 L 25.05 30.43 L 24.82 30.69 L 24.56 30.93 L 24.29 31.15 L 24.0 31.35 L 23.7 31.52 L 23.38 31.66 L 23.06 31.78" fill="none" stroke="#111" stroke-width="1.40" stroke-linecap="round" stroke-linejoin="round"/>
<path d="M 22.0 25.98 L 22.12 26.4 L 22.25 26.81 L 22.38 27.23 L 22.5 27.65 L 22.62 28.06 L 22.75 28.48 L 22.88 28.9 L 23.0 29.31 L 23.12 29.73 L 23.25 30.15 L 23.38 30.56 L 23.5 30.98 L 23.62 31.4 L 23.75 31.81 L 23.88 32.23 L 24.0 32.65 L 24.12 33.06 L 24.25 33.48 L 24.38 33.9 L 24.5 34.31 L 24.62 34.73 L 24.75 35.15 L 24.88 35.56 L 25.0 35.98" fill="none" stroke="#111" stroke-width="1.40" stroke-linecap="round" stroke-linejoin="round"/>
</svg>
