<?xml version="1.0" encoding="UTF-8"?>
<svg xmlns="http://www.w3.org/2000/svg" viewBox="0 0 21.00 38.00">
<path d="M 11.0 4.0 L 11.0 4.88 L 11.0 5.75 L 11.0 6.62 L 11.0 7.5 L 11.0 8.38 L 11.0 9.25 L 11.0 10.12 L 11.0 11.0 L 11.0 11.88 L 11.0 12.75 L 11.0 13.62 L 11.0 14.5 L 11.0 15.38 L 11.0 16.25 L 11.0 17.12 L 11.0 18.0 L 11.0 18.88 L 11.0 19.75 L 11.0 20.62 L 11.0 21.5 L 11.0 22.38 L 11.0 23.25 L 11.0 24.12 L 11.0 25.0" fill="none" stroke="#111" stroke-width="1.33" stroke-linecap="round" stroke-linejoin="round"/>
<path d="M 4.0 5.0 L 4.0 5.38 L 4.0 5.75 L 4.0 6.12 L 4.0 6.5 L 4.0 6.88 L 4.0 7.25 L 4.0 7.62 L 4.0 8.0 L 4.0 8.38 L 4.0 8.75 L 4.0 9.12 L 4.0 9.5 L 4.0 9.88 L 4.0 10.25 L 4.0 10.62 L 4.0 11.0 L 4.0 11.38 L 4.0 11.75 L 4.0 12.12 L 4.0 12.5 L 4.0 12.88 L 4.0 13.25 L 4.0 13.62 L 4.0 14.0 L 4.0 14.0 L 4.73 14.55 L 5.53 15.02 L 6.37 15.39 L 7.25 15.66 L 8.16 15.82 L 9.08 15.88 L 10.0 15.83 L 10.9 15.68 L 11.79 15.42 L 12.64 15.06 L 13.43 14.6 L 14.17 14.05 L 14.85 13.42 L 15.44 12.72 L 15.95 11.95 L 16.36 11.13 L 16.68 10.26 L 16.89 9.37 L 17.0 8.45 L 17.0 7.53 L 16.9 6.62 L 16.69 5.72 L 16.37 4.86 L 15.96 4.03" fill="none" stroke="#111" stroke-width="1.33" stroke-linecap="round" stroke-linejoin="round"/>
<path d="M 4.0 8.0 L 4.5 8.0 L 5.0 8.0 L 5.5 8.0 L 6.0 8.0 L 6.5 8.0 L 7.0 8.0 L 7.5 8.0 L 8.0 8.0 L 8.5 8.0 L 9.0 8.0 L 9.5 8.0 L 10.0 8.0 L 10.5 8.0 L 11.0 8.0 L 11.5 8.0 L 12.0 8.0 L 12.5 8.0 L 13.0 8.0 L 13.5 8.0 L 14.0 8.0 L 14.5 8.0 L 15.0 8.0 L 15.5 8.0 L 16.0 8.0" fill="none" stroke="#111" stroke-width="1.33" stroke-linecap="round" stroke-linejoin="round"/>
<path d="M 16.0 18.0 L 15.79 18.58 L 15.58 19.17 L 15.38 19.75 L 15.17 20.33 L 14.96 20.92 L 14.75 21.5 L 14.54 22.08 L 14.33 22.67 L 14.12 23.25 L 13.92 23.83 L 13.71 24.42 L 13.5 25.0 L 13.29 25.58 L 13.08 26.17 L 12.88 26.75 L 12.67 27.33 L 12.46 27.92 L 12.25 28.5 L 12.04 29.08 L 11.83 29.67 L 11.62 30.25 L 11.42 30.83 L 11.21 31.42 L 11.0 32.0" fill="none" stroke="#111" stroke-width="1.33" stroke-linecap="round" stroke-linejoin="round"/>
<path d="M 11.0 20.0 L 11.25 20.58 L 11.5 21.17 L 11.75 21.75 L 12.0 22.33 L 12.25 22.92 L 12.5 23.5 L 12.75 24.08 L 13.0 24.67 L 13.25 25.25 L 13.5 25.83 L 13.75 26.42 L 14.0 27.0 L 14.25 27.58 L 14.5 28.17 L 14.75 28.75 L 15.0 29.33 L 15.25 29.92 L 15.5 30.5 L 15.75 31.08 L 16.0 31.67 L 16.25 32.25 L 16.5 32.83 L 16.75 33.42 L 17.0 34.0" fill="none" stroke="#111" stroke-width="1.33" stroke-linecap="round" stroke-linejoin="round"/>
</svg>
