<?xml version="1.0" encoding="UTF-8"?>
<svg xmlns="http://www.w3.org/2000/svg" viewBox="0 0 22.00 33.00">
<path d="M 5.0 15.0 L 5.54 15.0 L 6.08 15.0 L 6.62 15.0 L 7.17 15.0 L 7.71 15.0 L 8.25 15.0 L 8.79 15.0 L 9.33 15.0 L 9.88 15.0 L 10.42 15.0 L 10.96 15.0 L 11.5 15.0 L 12.04 15.0 L 12.58 15.0 L 13.12 15.0 L 13.67 15.0 L 14.21 15.0 L 14.75 15.0 L 15.29 15.0 L 15.83 15.0 L 16.38 15.0 L 16.92 15.0 L 17.46 15.0 L 18.0 15.0" fill="none" stroke="#111" stroke-width="1.16" stroke-linecap="round" stroke-linejoin="round"/>
<path d="M 8.0 6.0 L 8.21 6.18 L 8.41 6.36 L 8.61 6.56 L 8.79 6.76 L 8.97 6.98 L 9.13 7.2 L 9.28 7.43 L 9.42 7.66 L 9.55 7.91 L 9.67 8.15 L 9.78 8.41 L 9.87 8.67 L 9.95 8.93 L 10.02 9.2 L 10.07 9.47 L 10.11 9.74 L 10.14 10.01 L 10.16 10.29 L 10.16 10.56 L 10.15 10.84 L 10.13 11.11 L 10.09 11.38 L 10.04 11.65 L 9.97 11.92 L 10.0 12.0 L 9.63 12.07 L 9.26 12.07 L 8.89 12.01 L 8.53 11.89 L 8.2 11.71 L 7.9 11.49 L 7.65 11.21 L 7.44 10.9 L 7.29 10.56 L 7.2 10.19 L 7.17 9.82 L 7.2 9.45 L 7.29 9.08 L 7.44 8.74 L 7.65 8.43 L 7.9 8.15 L 8.2 7.92 L 8.53 7.75 L 8.88 7.63 L 9.25 7.57 L 9.63 7.57 L 10.0 7.63 L 10.35 7.76 L 10.68 7.94" fill="none" stroke="#111" stroke-width="1.16" stroke-linecap="round" stroke-linejoin="round"/>
<path d="M 9.0 12.0 L 9.0 12.5 L 9.0 13.0 L 9.0 13.5 L 9.0 14.0 L 9.0 14.5 L 9.0 15.0 L 9.0 15.5 L 9.0 16.0 L 9.0 16.5 L 9.0 17.0 L 9.0 17.5 L 9.0 18.0 L 9.0 18.5 L 9.0 19.0 L 9.0 19.5 L 9.0 20.0 L 9.0 20.5 L 9.0 21.0 L 9.0 21.5 L 9.0 22.0 L 9.0 22.5 L 9.0 23.0 L 9.0 23.5 L 9.0 24.0" fill="none" stroke="#111" stroke-width="1.16" stroke-linecap="round" stroke-linejoin="round"/>
<path d="M 6.0 20.0 L 6.12 20.17 L 6.25 20.33 L 6.38 20.5 L 6.5 20.67 L 6.62 20.83 L 6.75 21.0 L 6.88 21.17 L 7.0 21.33 L 7.12 21.5 L 7.25 21.67 L 7.38 21.83 L 7.5 22.0 L 7.62 22.17 L 7.75 22.33 L 7.88 22.5 L 8.0 22.67 L 8.12 22.83 L 8.25 23.0 L 8.38 23.17 L 8.5 23.33 L 8.62 23.5 L 8.75 23.67 L 8.88 23.83 L 9.0 24.0 L 9.0 24.0 L 9.08 23.83 L 9.17 23.67 L 9.25 23.5 L 9.33 23.33 L 9.42 23.17 L 9.5 23.0 L 9.58 22.83 L 9.67 22.67 L 9.75 22.5 L 9.83 22.33 L 9.92 22.17 L 10.0 22.0 L 10.08 21.83 L 10.17 21.67 L 10.25 21.5 L 10.33 21.33 L 10.42 21.17 L 10.5 21.0 L 10.58 20.83 L 10.67 20.67 L 10.75 20.5 L 10.83 20.33 L 10.92 20.17 L 11.0 20.0" fill="none" stroke="#111" stroke-width="1.16" stroke-linecap="round" stroke-linejoin="round"/>
<path d="M 13.0 4.0 L 13.33 4.18 L 13.64 4.38 L 13.94 4.6 L 14.22 4.84 L 14.49 5.11 L 14.73 5.39 L 14.96 5.68 L 15.16 6.0 L 15.33 6.33 L 15.49 6.66 L 15.62 7.01 L 15.72 7.37 L 15.8 7.74 L 15.85 8.11 L 15.87 8.48 L 15.87 8.85 L 15.84 9.22 L 15.78 9.59 L 15.7 9.95 L 15.59 10.31 L 15.46 10.66 L 15.3 10.99 L 15.11 11.32 L 14.91 11.63 L 15.0 12.0 L 14.69 12.16 L 14.35 12.25 L 14.01 12.29 L 13.66 12.27 L 13.32 12.18 L 13.0 12.04 L 12.71 11.84 L 12.46 11.6 L 12.26 11.32 L 12.11 11.0 L 12.02 10.66 L 11.99 10.32 L 12.02 9.97 L 12.11 9.63 L 12.26 9.32 L 12.46 9.03 L 12.71 8.79 L 13.0 8.59 L 13.32 8.45 L 13.66 8.36 L 14.01 8.34 L 14.35 8.38 L 14.69 8.48 L 15.0 8.63" fill="none" stroke="#111" stroke-width="1.16" stroke-linecap="round" stroke-linejoin="round"/>
<path d="M 15.0 12.0 L 14.96 12.46 L 14.92 12.92 L 14.88 13.38 L 14.83 13.83 L 14.79 14.29 L 14.75 14.75 L 14.71 15.21 L 14.67 15.67 L 14.62 16.12 L 14.58 16.58 L 14.54 17.04 L 14.5 17.5 L 14.46 17.96 L 14.42 18.42 L 14.38 18.88 L 14.33 19.33 L 14.29 19.79 L 14.25 20.25 L 14.21 20.71 L 14.17 21.17 L 14.12 21.62 L 14.08 22.08 L 14.04 22.54 L 14.0 23.0" fill="none" stroke="#111" stroke-width="1.16" stroke-linecap="round" stroke-linejoin="round"/>
<path d="M 12.0 20.0 L 12.08 20.12 L 12.17 20.25 L 12.25 20.38 L 12.33 20.5 L 12.42 20.62 L 12.5 20.75 L 12.58 20.88 L 12.67 21.0 L 12.75 21.12 L 12.83 21.25 L 12.92 21.38 L 13.0 21.5 L 13.08 21.62 L 13.17 21.75 L 13.25 21.88 L 13.33 22.0 L 13.42 22.12 L 13.5 22.25 L 13.58 22.38 L 13.67 22.5 L 13.75 22.62 L 13.83 22.75 L 13.92 22.88 L 14.0 23.0 L 14.0 23.0 L 14.08 22.83 L 14.17 22.67 L 14.25 22.5 L 14.33 22.33 L 14.42 22.17 L 14.5 22.0 L 14.58 21.83 L 14.67 21.67 L 14.75 21.5 L 14.83 21.33 L 14.92 21.17 L 15.0 21.0 L 15.08 20.83 L 15.17 20.67 L 15.25 20.5 L 15.33 20.33 L 15.42 20.17 L 15.5 20.0 L 15.58 19.83 L 15.67 19.67 L 15.75 19.5 L 15.83 19.33 L 15.92 19.17 L 16.0 19.0" fill="none" stroke="#111" stroke-width="1.16" stroke-linecap="round" stroke-linejoin="round"/>
<path d="M 7.0 25.0 L 7.42 25.0 L 7.83 25.0 L 8.25 25.0 L 8.67 25.0 L 9.08 25.0 L 9.5 25.0 L 9.92 25.0 L 10.33 25.0 L 10.75 25.0 L 11.17 25.0 L 11.58 25.0 L 12.0 25.0 L 12.42 25.0 L 12.83 25.0 L 13.25 25.0 L 13.67 25.0 L 14.08 25.0 L 14.5 25.0 L 14.92 25.0 L 15.33 25.0 L 15.75 25.0 L 16.17 25.0 L 16.58 25.0 L 17.0 25.0" fill="none" stroke="#111" stroke-width="1.16" stroke-linecap="round" stroke-linejoin="round"/>
<path d="M 4.0 9.0 L 4.08 9.83 L 4.17 10.67 L 4.25 11.5 L 4.33 12.33 L 4.42 13.17 L 4.5 14.0 L 4.58 14.83 L 4.67 15.67 L 4.75 16.5 L 4.83 17.33 L 4.92 18.17 L 5.0 19.0 L 5.08 19.83 L 5.17 20.67 L 5.25 21.5 L 5.33 22.33 L 5.42 23.17 L 5.5 24.0 L 5.58 24.83 L 5.67 25.67 L 5.75 26.5 L 5.83 27.33 L 5.92 28.17 L 6.0 29.0" fill="none" stroke="#111" stroke-width="1.16" stroke-linecap="round" stroke-linejoin="round"/>
<path d="M 6.0 27.0 L 6.5 27.0 L 7.0 27.0 L 7.5 27.0 L 8.0 27.0 L 8.5 27.0 L 9.0 27.0 L 9.5 27.0 L 10.0 27.0 L 10.5 27.0 L 11.0 27.0 L 11.5 27.0 L 12.0 27.0 L 12.5 27.0 L 13.0 27.0 L 13.5 27.0 L 14.0 27.0 L 14.5 27.0 L 15.0 27.0 L 15.5 27.0 L 16.0 27.0 L 16.5 27.0 L 17.0 27.0 L 17.5 27.0 L 18.0 27.0" fill="none" stroke="#111" stroke-width="1.16" stroke-linecap="round" stroke-linejoin="round"/>
<path d="M 18.0 9.0 L 18.0 9.75 L 18.0 10.5 L 18.0 11.25 L 18.0 12.0 L 18.0 12.75 L 18.0 13.5 L 18.0 14.25 L 18.0 15.0 L 18.0 15.75 L 18.0 16.5 L 18.0 17.25 L 18.0 18.0 L 18.0 18.75 L 18.0 19.5 L 18.0 20.25 L 18.0 21.0 L 18.0 21.75 L 18.0 22.5 L 18.0 23.25 L 18.0 24.0 L 18.0 24.75 L 18.0 25.5 L 18.0 26.25 L 18.0 27.0" fill="none" stroke="#111" stroke-width="1.16" stroke-linecap="round" stroke-linejoin="round"/>
</svg>
