<?xml version="1.0" encoding="UTF-8"?>
<svg xmlns="http://www.w3.org/2000/svg" viewBox="0 0 22.98 33.15">
<path d="M 8.98 12.15 L 9.02 12.48 L 9.06 12.82 L 9.1 13.15 L 9.14 13.48 L 9.18 13.82 L 9.23 14.15 L 9.27 14.48 L 9.31 14.82 L 9.35 15.15 L 9.39 15.48 L 9.43 15.82 L 9.48 16.15 L 9.52 16.48 L 9.56 16.82 L 9.6 17.15 L 9.64 17.48 L 9.68 17.82 L 9.73 18.15 L 9.77 18.48 L 9.81 18.82 L 9.85 19.15 L 9.89 19.48 L 9.93 19.82 L 9.98 20.15" fill="none" stroke="#111" stroke-width="1.16" stroke-linecap="round" stroke-linejoin="round"/>
<path d="M 8.98 15.15 L 8.6 15.65 L 8.23 16.16 L 7.88 16.68 L 7.54 17.2 L 7.22 17.74 L 6.91 18.29 L 6.61 18.84 L 6.33 19.4 L 6.07 19.97 L 5.82 20.54 L 5.58 21.13 L 5.36 21.71 L 5.16 22.31 L 4.97 22.91 L 4.8 23.51 L 4.65 24.12 L 4.51 24.73 L 4.39 25.34 L 4.28 25.96 L 4.19 26.58 L 4.12 27.21 L 4.06 27.83 L 4.02 28.46 L 4.0 29.08" fill="none" stroke="#111" stroke-width="1.16" stroke-linecap="round" stroke-linejoin="round"/>
<path d="M 6.98 20.15 L 7.06 20.32 L 7.14 20.48 L 7.23 20.65 L 7.31 20.82 L 7.39 20.98 L 7.48 21.15 L 7.56 21.32 L 7.64 21.48 L 7.73 21.65 L 7.81 21.82 L 7.89 21.98 L 7.98 22.15 L 8.06 22.32 L 8.14 22.48 L 8.23 22.65 L 8.31 22.82 L 8.39 22.98 L 8.48 23.15 L 8.56 23.32 L 8.64 23.48 L 8.73 23.65 L 8.81 23.82 L 8.89 23.98 L 8.98 24.15" fill="none" stroke="#111" stroke-width="1.16" stroke-linecap="round" stroke-linejoin="round"/>
<path d="M 13.98 12.15 L 13.66 12.33 L 13.38 12.55 L 13.13 12.82 L 12.92 13.11 L 12.75 13.43 L 12.63 13.77 L 12.56 14.13 L 12.54 14.49 L 12.57 14.85 L 12.66 15.21 L 12.79 15.54 L 12.97 15.86 L 13.19 16.14 L 13.45 16.4 L 13.74 16.61 L 14.06 16.78 L 14.41 16.9 L 14.76 16.97 L 15.12 16.99 L 15.48 16.96 L 15.84 16.88 L 16.17 16.75 L 16.49 16.57 L 16.78 16.35" fill="none" stroke="#111" stroke-width="1.16" stroke-linecap="round" stroke-linejoin="round"/>
<path d="M 12.98 17.15 L 13.23 16.77 L 13.48 16.4 L 13.73 16.02 L 13.98 15.65 L 14.23 15.27 L 14.48 14.9 L 14.73 14.52 L 14.98 14.15 L 15.23 13.77 L 15.48 13.4 L 15.73 13.02 L 15.98 12.65 L 16.23 12.27 L 16.48 11.9 L 16.73 11.52 L 16.98 11.15 L 17.23 10.77 L 17.48 10.4 L 17.73 10.02 L 17.98 9.65 L 18.23 9.27 L 18.48 8.9 L 18.73 8.52 L 18.98 8.15 L 18.98 8.15 L 18.9 9.03 L 18.81 9.91 L 18.73 10.79 L 18.64 11.67 L 18.54 12.55 L 18.44 13.43 L 18.34 14.31 L 18.23 15.18 L 18.12 16.06 L 18.0 16.94 L 17.89 17.81 L 17.76 18.69 L 17.64 19.56 L 17.5 20.44 L 17.37 21.31 L 17.23 22.19 L 17.09 23.06 L 16.94 23.93 L 16.79 24.8 L 16.63 25.67 L 16.48 26.54 L 16.31 27.41 L 16.15 28.28 L 15.98 29.15" fill="none" stroke="#111" stroke-width="1.16" stroke-linecap="round" stroke-linejoin="round"/>
<path d="M 6.98 20.15 L 6.93 20.02 L 6.89 19.9 L 6.85 19.77 L 6.81 19.65 L 6.77 19.52 L 6.73 19.4 L 6.68 19.27 L 6.64 19.15 L 6.6 19.02 L 6.56 18.9 L 6.52 18.77 L 6.48 18.65 L 6.43 18.52 L 6.39 18.4 L 6.35 18.27 L 6.31 18.15 L 6.27 18.02 L 6.23 17.9 L 6.18 17.77 L 6.14 17.65 L 6.1 17.52 L 6.06 17.4 L 6.02 17.27 L 5.98 17.15" fill="none" stroke="#111" stroke-width="1.16" stroke-linecap="round" stroke-linejoin="round"/>
<path d="M 5.98 17.15 L 5.8 16.61 L 5.65 16.07 L 5.51 15.52 L 5.39 14.97 L 5.29 14.41 L 5.21 13.85 L 5.15 13.29 L 5.1 12.73 L 5.08 12.16 L 5.07 11.6 L 5.09 11.03 L 5.12 10.47 L 5.18 9.91 L 5.25 9.35 L 5.34 8.79 L 5.45 8.24 L 5.58 7.69 L 5.72 7.14 L 5.89 6.6 L 6.07 6.07 L 6.28 5.54 L 6.5 5.02 L 6.73 4.5 L 6.99 4.0" fill="none" stroke="#111" stroke-width="1.16" stroke-linecap="round" stroke-linejoin="round"/>
</svg>
