<?xml version="1.0" encoding="UTF-8"?>
<svg xmlns="http://www.w3.org/2000/svg" viewBox="0 0 28.00 38.00">
<path d="M 13.0 4.0 L 13.0 4.71 L 13.0 5.42 L 13.0 6.12 L 13.0 6.83 L 13.0 7.54 L 13.0 8.25 L 13.0 8.96 L 13.0 9.67 L 13.0 10.38 L 13.0 11.08 L 13.0 11.79 L 13.0 12.5 L 13.0 13.21 L 13.0 13.92 L 13.0 14.62 L 13.0 15.33 L 13.0 16.04 L 13.0 16.75 L 13.0 17.46 L 13.0 18.17 L 13.0 18.88 L 13.0 19.58 L 13.0 20.29 L 13.0 21.0" fill="none" stroke="#111" stroke-width="1.33" stroke-linecap="round" stroke-linejoin="round"/>
<path d="M 13.0 21.0 L 12.67 21.08 L 12.33 21.17 L 12.0 21.25 L 11.67 21.33 L 11.33 21.42 L 11.0 21.5 L 10.67 21.58 L 10.33 21.67 L 10.0 21.75 L 9.67 21.83 L 9.33 21.92 L 9.0 22.0 L 8.67 22.08 L 8.33 22.17 L 8.0 22.25 L 7.67 22.33 L 7.33 22.42 L 7.0 22.5 L 6.67 22.58 L 6.33 22.67 L 6.0 22.75 L 5.67 22.83 L 5.33 22.92 L 5.0 23.0" fill="none" stroke="#111" stroke-width="1.33" stroke-linecap="round" stroke-linejoin="round"/>
<path d="M 5.0 18.0 L 5.33 17.92 L 5.67 17.83 L 6.0 17.75 L 6.33 17.67 L 6.67 17.58 L 7.0 17.5 L 7.33 17.42 L 7.67 17.33 L 8.0 17.25 L 8.33 17.17 L 8.67 17.08 L 9.0 17.0 L 9.33 16.92 L 9.67 16.83 L 10.0 16.75 L 10.33 16.67 L 10.67 16.58 L 11.0 16.5 L 11.33 16.42 L 11.67 16.33 L 12.0 16.25 L 12.33 16.17 L 12.67 16.08 L 13.0 16.0" fill="none" stroke="#111" stroke-width="1.33" stroke-linecap="round" stroke-linejoin="round"/>
<path d="M 4.0 12.0 L 4.38 11.96 L 4.75 11.92 L 5.12 11.88 L 5.5 11.83 L 5.88 11.79 L 6.25 11.75 L 6.62 11.71 L 7.0 11.67 L 7.38 11.62 L 7.75 11.58 L 8.12 11.54 L 8.5 11.5 L 8.88 11.46 L 9.25 11.42 L 9.62 11.38 L 10.0 11.33 L 10.38 11.29 L 10.75 11.25 L 11.12 11.21 L 11.5 11.17 L 11.88 11.12 L 12.25 11.08 L 12.63 11.04 L 13.0 11.0" fill="none" stroke="#111" stroke-width="1.33" stroke-linecap="round" stroke-linejoin="round"/>
<path d="M 4.0 12.0 L 4.04 12.25 L 4.08 12.5 L 4.12 12.75 L 4.17 13.0 L 4.21 13.25 L 4.25 13.5 L 4.29 13.75 L 4.33 14.0 L 4.38 14.25 L 4.42 14.5 L 4.46 14.75 L 4.5 15.0 L 4.54 15.25 L 4.58 15.5 L 4.62 15.75 L 4.67 16.0 L 4.71 16.25 L 4.75 16.5 L 4.79 16.75 L 4.83 17.0 L 4.88 17.25 L 4.92 17.5 L 4.96 17.75 L 5.0 18.0" fill="none" stroke="#111" stroke-width="1.33" stroke-linecap="round" stroke-linejoin="round"/>
<path d="M 13.0 4.0 L 12.71 4.33 L 12.42 4.67 L 12.12 5.0 L 11.83 5.33 L 11.54 5.67 L 11.25 6.0 L 10.96 6.33 L 10.67 6.67 L 10.38 7.0 L 10.08 7.33 L 9.79 7.67 L 9.5 8.0 L 9.21 8.33 L 8.92 8.67 L 8.62 9.0 L 8.33 9.33 L 8.04 9.67 L 7.75 10.0 L 7.46 10.33 L 7.17 10.67 L 6.88 11.0 L 6.58 11.33 L 6.29 11.67 L 6.0 12.0" fill="none" stroke="#111" stroke-width="1.33" stroke-linecap="round" stroke-linejoin="round"/>
<path d="M 7.0 17.0 L 7.0 17.25 L 7.0 17.5 L 7.0 17.75 L 7.0 18.0 L 7.0 18.25 L 7.0 18.5 L 7.0 18.75 L 7.0 19.0 L 7.0 19.25 L 7.0 19.5 L 7.0 19.75 L 7.0 20.0 L 7.0 20.25 L 7.0 20.5 L 7.0 20.75 L 7.0 21.0 L 7.0 21.25 L 7.0 21.5 L 7.0 21.75 L 7.0 22.0 L 7.0 22.25 L 7.0 22.5 L 7.0 22.75 L 7.0 23.0" fill="none" stroke="#111" stroke-width="1.33" stroke-linecap="round" stroke-linejoin="round"/>
<path d="M 19.0 6.0 L 19.0 7.08 L 19.0 8.17 L 19.0 9.25 L 19.0 10.33 L 19.0 11.42 L 19.0 12.5 L 19.0 13.58 L 19.0 14.67 L 19.0 15.75 L 19.0 16.83 L 19.0 17.92 L 19.0 19.0 L 19.0 20.08 L 19.0 21.17 L 19.0 22.25 L 19.0 23.33 L 19.0 24.42 L 19.0 25.5 L 19.0 26.58 L 19.0 27.67 L 19.0 28.75 L 19.0 29.83 L 19.0 30.92 L 19.0 32.0" fill="none" stroke="#111" stroke-width="1.33" stroke-linecap="round" stroke-linejoin="round"/>
<path d="M 19.0 6.0 L 19.21 6.04 L 19.42 6.08 L 19.62 6.12 L 19.83 6.17 L 20.04 6.21 L 20.25 6.25 L 20.46 6.29 L 20.67 6.33 L 20.88 6.38 L 21.08 6.42 L 21.29 6.46 L 21.5 6.5 L 21.71 6.54 L 21.92 6.58 L 22.12 6.62 L 22.33 6.67 L 22.54 6.71 L 22.75 6.75 L 22.96 6.79 L 23.17 6.83 L 23.38 6.88 L 23.58 6.92 L 23.79 6.96 L 24.0 7.0" fill="none" stroke="#111" stroke-width="1.33" stroke-linecap="round" stroke-linejoin="round"/>
<path d="M 13.0 11.0 L 13.46 11.0 L 13.92 11.0 L 14.38 11.0 L 14.83 11.0 L 15.29 11.0 L 15.75 11.0 L 16.21 11.0 L 16.67 11.0 L 17.12 11.0 L 17.58 11.0 L 18.04 11.0 L 18.5 11.0 L 18.96 11.0 L 19.42 11.0 L 19.88 11.0 L 20.33 11.0 L 20.79 11.0 L 21.25 11.0 L 21.71 11.0 L 22.17 11.0 L 22.62 11.0 L 23.08 11.0 L 23.54 11.0 L 24.0 11.0" fill="none" stroke="#111" stroke-width="1.33" stroke-linecap="round" stroke-linejoin="round"/>
<path d="M 15.0 34.0 L 15.33 33.83 L 15.67 33.67 L 16.0 33.5 L 16.33 33.33 L 16.67 33.17 L 17.0 33.0 L 17.33 32.83 L 17.67 32.67 L 18.0 32.5 L 18.33 32.33 L 18.67 32.17 L 19.0 32.0 L 19.33 31.83 L 19.67 31.67 L 20.0 31.5 L 20.33 31.33 L 20.67 31.17 L 21.0 31.0 L 21.33 30.83 L 21.67 30.67 L 22.0 30.5 L 22.33 30.33 L 22.67 30.17 L 23.0 30.0" fill="none" stroke="#111" stroke-width="1.33" stroke-linecap="round" stroke-linejoin="round"/>
</svg>
