<?xml version="1.0" encoding="UTF-8"?>
<svg xmlns="http://www.w3.org/2000/svg" viewBox="0 0 18.90 41.00">
<path d="M 4.0 10.0 L 4.29 10.58 L 4.58 11.17 L 4.88 11.75 L 5.17 12.33 L 5.46 12.92 L 5.75 13.5 L 6.04 14.08 L 6.33 14.67 L 6.62 15.25 L 6.92 15.83 L 7.21 16.42 L 7.5 17.0 L 7.79 17.58 L 8.08 18.17 L 8.38 18.75 L 8.67 19.33 L 8.96 19.92 L 9.25 20.5 L 9.54 21.08 L 9.83 21.67 L 10.13 22.25 L 10.42 22.83 L 10.71 23.42 L 11.0 24.0 L 11.0 24.0 L 10.1 23.83 L 9.18 23.83 L 8.28 24.0 L 7.42 24.32 L 6.63 24.79 L 5.94 25.4 L 5.37 26.12 L 4.94 26.93 L 4.66 27.8 L 4.54 28.71 L 4.59 29.63 L 4.8 30.52 L 5.17 31.36 L 5.68 32.12 L 6.32 32.78 L 7.07 33.31 L 7.9 33.7 L 8.79 33.93 L 9.7 34.0 L 10.61 33.91 L 11.5 33.65 L 12.32 33.24 L 13.05 32.69 L 13.67 32.02" fill="none" stroke="#111" stroke-width="1.44" stroke-linecap="round" stroke-linejoin="round"/>
<path d="M 13.0 30.0 L 13.0 30.29 L 13.0 30.58 L 13.0 30.88 L 13.0 31.17 L 13.0 31.46 L 13.0 31.75 L 13.0 32.04 L 13.0 32.33 L 13.0 32.62 L 13.0 32.92 L 13.0 33.21 L 13.0 33.5 L 13.0 33.79 L 13.0 34.08 L 13.0 34.38 L 13.0 34.67 L 13.0 34.96 L 13.0 35.25 L 13.0 35.54 L 13.0 35.83 L 13.0 36.12 L 13.0 36.42 L 13.0 36.71 L 13.0 37.0" fill="none" stroke="#111" stroke-width="1.44" stroke-linecap="round" stroke-linejoin="round"/>
<path d="M 6.0 15.0 L 6.0 15.5 L 6.0 16.0 L 6.0 16.5 L 6.0 17.0 L 6.0 17.5 L 6.0 18.0 L 6.0 18.5 L 6.0 19.0 L 6.0 19.5 L 6.0 20.0 L 6.0 20.5 L 6.0 21.0 L 6.0 21.5 L 6.0 22.0 L 6.0 22.5 L 6.0 23.0 L 6.0 23.5 L 6.0 24.0 L 6.0 24.5 L 6.0 25.0 L 6.0 25.5 L 6.0 26.0 L 6.0 26.5 L 6.0 27.0" fill="none" stroke="#111" stroke-width="1.44" stroke-linecap="round" stroke-linejoin="round"/>
<path d="M 6.0 4.0 L 6.51 4.27 L 6.99 4.57 L 7.45 4.91 L 7.89 5.28 L 8.29 5.68 L 8.67 6.11 L 9.01 6.57 L 9.32 7.05 L 9.6 7.55 L 9.83 8.07 L 10.03 8.6 L 10.19 9.15 L 10.31 9.71 L 10.39 10.28 L 10.42 10.85 L 10.42 11.42 L 10.37 11.99 L 10.28 12.55 L 10.15 13.11 L 9.98 13.66 L 9.77 14.19 L 9.52 14.7 L 9.24 15.2 L 8.92 15.67" fill="none" stroke="#111" stroke-width="1.44" stroke-linecap="round" stroke-linejoin="round"/>
<path d="M 5.0 7.0 L 5.59 7.24 L 6.17 7.5 L 6.74 7.79 L 7.3 8.09 L 7.84 8.42 L 8.37 8.77 L 8.89 9.14 L 9.39 9.53 L 9.88 9.93 L 10.35 10.36 L 10.81 10.81 L 11.24 11.27 L 11.66 11.75 L 12.06 12.24 L 12.44 12.75 L 12.8 13.28 L 13.14 13.81 L 13.46 14.36 L 13.76 14.93 L 14.03 15.5 L 14.28 16.09 L 14.51 16.68 L 14.72 17.28 L 14.9 17.89" fill="none" stroke="#111" stroke-width="1.44" stroke-linecap="round" stroke-linejoin="round"/>
</svg>
