<?xml version="1.0" encoding="UTF-8"?>
<svg xmlns="http://www.w3.org/2000/svg" viewBox="0 0 21.00 38.00">
<path d="M 10.0 4.0 L 9.27 4.27 L 8.57 4.61 L 7.9 5.02 L 7.27 5.48 L 6.69 6.01 L 6.16 6.58 L 5.69 7.2 L 5.28 7.87 L 4.93 8.57 L 4.65 9.3 L 4.44 10.05 L 4.3 10.82 L 4.23 11.59 L 4.24 12.38 L 4.32 13.15 L 4.47 13.92 L 4.69 14.67 L 4.99 15.39 L 5.35 16.08 L 5.77 16.74 L 6.25 17.35 L 6.79 17.92 L 7.38 18.43 L 8.01 18.89" fill="none" stroke="#111" stroke-width="1.33" stroke-linecap="round" stroke-linejoin="round"/>
<path d="M 10.0 4.0 L 10.52 4.5 L 10.99 5.05 L 11.42 5.62 L 11.8 6.24 L 12.13 6.88 L 12.4 7.54 L 12.63 8.23 L 12.79 8.93 L 12.9 9.64 L 12.95 10.36 L 12.94 11.08 L 12.88 11.8 L 12.75 12.51 L 12.57 13.21 L 12.33 13.89 L 12.04 14.55 L 11.7 15.18 L 11.31 15.78 L 10.87 16.35 L 10.38 16.88 L 9.85 17.37 L 9.29 17.82 L 8.69 18.22 L 8.06 18.57" fill="none" stroke="#111" stroke-width="1.33" stroke-linecap="round" stroke-linejoin="round"/>
<path d="M 9.0 10.0 L 8.96 10.0 L 8.92 10.0 L 8.88 10.0 L 8.83 10.0 L 8.79 10.0 L 8.75 10.0 L 8.71 10.0 L 8.67 10.0 L 8.62 10.0 L 8.58 10.0 L 8.54 10.0 L 8.5 10.0 L 8.46 10.0 L 8.42 10.0 L 8.38 10.0 L 8.33 10.0 L 8.29 10.0 L 8.25 10.0 L 8.21 10.0 L 8.17 10.0 L 8.12 10.0 L 8.08 10.0 L 8.04 10.0 L 8.0 10.0 L 8.0 10.0 L 8.0 10.12 L 8.0 10.25 L 8.0 10.38 L 8.0 10.5 L 8.0 10.62 L 8.0 10.75 L 8.0 10.88 L 8.0 11.0 L 8.0 11.12 L 8.0 11.25 L 8.0 11.38 L 8.0 11.5 L 8.0 11.62 L 8.0 11.75 L 8.0 11.88 L 8.0 12.0 L 8.0 12.12 L 8.0 12.25 L 8.0 12.38 L 8.0 12.5 L 8.0 12.62 L 8.0 12.75 L 8.0 12.88 L 8.0 13.0 L 8.0 13.0 L 8.04 13.0 L 8.08 13.0 L 8.12 13.0 L 8.17 13.0 L 8.21 13.0 L 8.25 13.0 L 8.29 13.0 L 8.33 13.0 L 8.38 13.0 L 8.42 13.0 L 8.46 13.0 L 8.5 13.0 L 8.54 13.0 L 8.58 13.0 L 8.62 13.0 L 8.67 13.0 L 8.71 13.0 L 8.75 13.0 L 8.79 13.0 L 8.83 13.0 L 8.88 13.0 L 8.92 13.0 L 8.96 13.0 L 9.0 13.0 L 9.0 13.0 L 9.0 12.88 L 9.0 12.75 L 9.0 12.62 L 9.0 12.5 L 9.0 12.38 L 9.0 12.25 L 9.0 12.12 L 9.0 12.0 L 9.0 11.88 L 9.0 11.75 L 9.0 11.62 L 9.0 11.5 L 9.0 11.38 L 9.0 11.25 L 9.0 11.12 L 9.0 11.0 L 9.0 10.88 L 9.0 10.75 L 9.0 10.62 L 9.0 10.5 L 9.0 10.38 L 9.0 10.25 L 9.0 10.12 L 9.0 10.0" fill="none" stroke="#111" stroke-width="1.33" stroke-linecap="round" stroke-linejoin="round"/>
<path d="M 8.0 19.0 L 7.96 19.62 L 7.92 20.25 L 7.88 20.88 L 7.83 21.5 L 7.79 22.12 L 7.75 22.75 L 7.71 23.38 L 7.67 24.0 L 7.62 24.62 L 7.58 25.25 L 7.54 25.88 L 7.5 26.5 L 7.46 27.12 L 7.42 27.75 L 7.37 28.38 L 7.33 29.0 L 7.29 29.62 L 7.25 30.25 L 7.21 30.88 L 7.17 31.5 L 7.12 32.12 L 7.08 32.75 L 7.04 33.38 L 7.0 34.0" fill="none" stroke="#111" stroke-width="1.33" stroke-linecap="round" stroke-linejoin="round"/>
<path d="M 8.0 19.0 L 7.83 19.29 L 7.67 19.58 L 7.5 19.88 L 7.33 20.17 L 7.17 20.46 L 7.0 20.75 L 6.83 21.04 L 6.67 21.33 L 6.5 21.62 L 6.33 21.92 L 6.17 22.21 L 6.0 22.5 L 5.83 22.79 L 5.67 23.08 L 5.5 23.38 L 5.33 23.67 L 5.17 23.96 L 5.0 24.25 L 4.83 24.54 L 4.67 24.83 L 4.5 25.12 L 4.33 25.42 L 4.17 25.71 L 4.0 26.0" fill="none" stroke="#111" stroke-width="1.33" stroke-linecap="round" stroke-linejoin="round"/>
<path d="M 8.0 19.0 L 8.12 19.29 L 8.25 19.58 L 8.38 19.88 L 8.5 20.17 L 8.62 20.46 L 8.75 20.75 L 8.88 21.04 L 9.0 21.33 L 9.12 21.62 L 9.25 21.92 L 9.38 22.21 L 9.5 22.5 L 9.62 22.79 L 9.75 23.08 L 9.88 23.38 L 10.0 23.67 L 10.12 23.96 L 10.25 24.25 L 10.38 24.54 L 10.5 24.83 L 10.62 25.12 L 10.75 25.42 L 10.88 25.71 L 11.0 26.0" fill="none" stroke="#111" stroke-width="1.33" stroke-linecap="round" stroke-linejoin="round"/>
<path d="M 12.0 27.0 L 11.92 27.29 L 11.83 27.58 L 11.75 27.88 L 11.67 28.17 L 11.58 28.46 L 11.5 28.75 L 11.42 29.04 L 11.33 29.33 L 11.25 29.62 L 11.17 29.92 L 11.08 30.21 L 11.0 30.5 L 10.92 30.79 L 10.83 31.08 L 10.75 31.38 L 10.67 31.67 L 10.58 31.96 L 10.5 32.25 L 10.42 32.54 L 10.33 32.83 L 10.25 33.12 L 10.17 33.42 L 10.08 33.71 L 10.0 34.0" fill="none" stroke="#111" stroke-width="1.33" stroke-linecap="round" stroke-linejoin="round"/>
<path d="M 8.0 28.0 L 8.38 28.25 L 8.75 28.5 L 9.12 28.75 L 9.5 29.0 L 9.88 29.25 L 10.25 29.5 L 10.62 29.75 L 11.0 30.0 L 11.38 30.25 L 11.75 30.5 L 12.12 30.75 L 12.5 31.0 L 12.88 31.25 L 13.25 31.5 L 13.62 31.75 L 14.0 32.0 L 14.38 32.25 L 14.75 32.5 L 15.12 32.75 L 15.5 33.0 L 15.88 33.25 L 16.25 33.5 L 16.62 33.75 L 17.0 34.0" fill="none" stroke="#111" stroke-width="1.33" stroke-linecap="round" stroke-linejoin="round"/>
</svg>
