<?xml version="1.0" encoding="UTF-8"?>
<svg xmlns="http://www.w3.org/2000/svg" viewBox="0 0 29.91 42.91">
<path d="M 10.96 4.0 L 10.96 4.42 L 10.96 4.83 L 10.96 5.25 L 10.96 5.67 L 10.96 6.08 L 10.96 6.5 L 10.96 6.92 L 10.96 7.33 L 10.96 7.75 L 10.96 8.17 L 10.96 8.58 L 10.96 9.0 L 10.96 9.42 L 10.96 9.83 L 10.96 10.25 L 10.96 10.67 L 10.96 11.08 L 10.96 11.5 L 10.96 11.92 L 10.96 12.33 L 10.96 12.75 L 10.96 13.17 L 10.96 13.58 L 10.96 14.0" fill="none" stroke="#111" stroke-width="1.50" stroke-linecap="round" stroke-linejoin="round"/>
<path d="M 6.96 5.0 L 7.13 5.25 L 7.3 5.5 L 7.46 5.75 L 7.63 6.0 L 7.8 6.25 L 7.96 6.5 L 8.13 6.75 L 8.3 7.0 L 8.46 7.25 L 8.63 7.5 L 8.8 7.75 L 8.96 8.0 L 9.13 8.25 L 9.3 8.5 L 9.46 8.75 L 9.63 9.0 L 9.8 9.25 L 9.96 9.5 L 10.13 9.75 L 10.3 10.0 L 10.46 10.25 L 10.63 10.5 L 10.8 10.75 L 10.96 11.0 L 10.96 11.0 L 11.09 10.79 L 11.21 10.58 L 11.34 10.38 L 11.46 10.17 L 11.59 9.96 L 11.71 9.75 L 11.84 9.54 L 11.96 9.33 L 12.09 9.12 L 12.21 8.92 L 12.34 8.71 L 12.46 8.5 L 12.59 8.29 L 12.71 8.08 L 12.84 7.88 L 12.96 7.67 L 13.09 7.46 L 13.21 7.25 L 13.34 7.04 L 13.46 6.83 L 13.59 6.62 L 13.71 6.42 L 13.84 6.21 L 13.96 6.0" fill="none" stroke="#111" stroke-width="1.50" stroke-linecap="round" stroke-linejoin="round"/>
<path d="M 10.96 13.0 L 10.8 13.12 L 10.63 13.25 L 10.46 13.38 L 10.3 13.5 L 10.13 13.62 L 9.96 13.75 L 9.8 13.88 L 9.63 14.0 L 9.46 14.12 L 9.3 14.25 L 9.13 14.38 L 8.96 14.5 L 8.8 14.62 L 8.63 14.75 L 8.46 14.88 L 8.3 15.0 L 8.13 15.12 L 7.96 15.25 L 7.8 15.38 L 7.63 15.5 L 7.46 15.62 L 7.3 15.75 L 7.13 15.88 L 6.96 16.0" fill="none" stroke="#111" stroke-width="1.50" stroke-linecap="round" stroke-linejoin="round"/>
<path d="M 10.96 14.0 L 11.09 14.08 L 11.21 14.17 L 11.34 14.25 L 11.46 14.33 L 11.59 14.42 L 11.71 14.5 L 11.84 14.58 L 11.96 14.67 L 12.09 14.75 L 12.21 14.83 L 12.34 14.92 L 12.46 15.0 L 12.59 15.08 L 12.71 15.17 L 12.84 15.25 L 12.96 15.33 L 13.09 15.42 L 13.21 15.5 L 13.34 15.58 L 13.46 15.67 L 13.59 15.75 L 13.71 15.83 L 13.84 15.92 L 13.96 16.0" fill="none" stroke="#111" stroke-width="1.50" stroke-linecap="round" stroke-linejoin="round"/>
<path d="M 4.96 16.0 L 5.38 16.0 L 5.8 16.0 L 6.21 16.0 L 6.63 16.0 L 7.05 16.0 L 7.46 16.0 L 7.88 16.0 L 8.3 16.0 L 8.71 16.0 L 9.13 16.0 L 9.55 16.0 L 9.96 16.0 L 10.38 16.0 L 10.8 16.0 L 11.21 16.0 L 11.63 16.0 L 12.05 16.0 L 12.46 16.0 L 12.88 16.0 L 13.3 16.0 L 13.71 16.0 L 14.13 16.0 L 14.55 16.0 L 14.96 16.0" fill="none" stroke="#111" stroke-width="1.50" stroke-linecap="round" stroke-linejoin="round"/>
<path d="M 6.96 16.0 L 7.14 16.59 L 7.3 17.19 L 7.43 17.79 L 7.53 18.4 L 7.61 19.02 L 7.66 19.63 L 7.68 20.25 L 7.67 20.87 L 7.63 21.48 L 7.57 22.1 L 7.48 22.71 L 7.37 23.32 L 7.23 23.92 L 7.06 24.51 L 6.86 25.1 L 6.64 25.68 L 6.39 26.24 L 6.12 26.8 L 5.82 27.34 L 5.5 27.87 L 5.16 28.38 L 4.8 28.88 L 4.41 29.36 L 4.0 29.82" fill="none" stroke="#111" stroke-width="1.50" stroke-linecap="round" stroke-linejoin="round"/>
<path d="M 13.96 16.0 L 13.96 16.67 L 13.96 17.33 L 13.96 18.0 L 13.96 18.67 L 13.96 19.33 L 13.96 20.0 L 13.96 20.67 L 13.96 21.33 L 13.96 22.0 L 13.96 22.67 L 13.96 23.33 L 13.96 24.0 L 13.96 24.67 L 13.96 25.33 L 13.96 26.0 L 13.96 26.67 L 13.96 27.33 L 13.96 28.0 L 13.96 28.67 L 13.96 29.33 L 13.96 30.0 L 13.96 30.67 L 13.96 31.33 L 13.96 32.0" fill="none" stroke="#111" stroke-width="1.50" stroke-linecap="round" stroke-linejoin="round"/>
<path d="M 6.96 24.0 L 7.25 24.0 L 7.55 24.0 L 7.84 24.0 L 8.13 24.0 L 8.42 24.0 L 8.71 24.0 L 9.0 24.0 L 9.3 24.0 L 9.59 24.0 L 9.88 24.0 L 10.17 24.0 L 10.46 24.0 L 10.75 24.0 L 11.05 24.0 L 11.34 24.0 L 11.63 24.0 L 11.92 24.0 L 12.21 24.0 L 12.5 24.0 L 12.8 24.0 L 13.09 24.0 L 13.38 24.0 L 13.67 24.0 L 13.96 24.0" fill="none" stroke="#111" stroke-width="1.50" stroke-linecap="round" stroke-linejoin="round"/>
<path d="M 5.96 26.0 L 6.3 26.0 L 6.63 26.0 L 6.96 26.0 L 7.3 26.0 L 7.63 26.0 L 7.96 26.0 L 8.3 26.0 L 8.63 26.0 L 8.96 26.0 L 9.3 26.0 L 9.63 26.0 L 9.96 26.0 L 10.3 26.0 L 10.63 26.0 L 10.96 26.0 L 11.3 26.0 L 11.63 26.0 L 11.96 26.0 L 12.3 26.0 L 12.63 26.0 L 12.96 26.0 L 13.3 26.0 L 13.63 26.0 L 13.96 26.0" fill="none" stroke="#111" stroke-width="1.50" stroke-linecap="round" stroke-linejoin="round"/>
<path d="M 18.96 15.0 L 18.59 15.17 L 18.24 15.4 L 17.93 15.68 L 17.67 15.99 L 17.46 16.35 L 17.3 16.73 L 17.2 17.13 L 17.17 17.55 L 17.19 17.96 L 17.28 18.36 L 17.43 18.75 L 17.63 19.11 L 17.89 19.43 L 18.19 19.72 L 18.52 19.95 L 18.9 20.14 L 19.29 20.26 L 19.7 20.33 L 20.11 20.33 L 20.52 20.27 L 20.92 20.15 L 21.29 19.97 L 21.63 19.74 L 21.94 19.46 L 20.96 18.0 L 20.88 17.88 L 20.8 17.75 L 20.71 17.62 L 20.63 17.5 L 20.55 17.38 L 20.46 17.25 L 20.38 17.12 L 20.3 17.0 L 20.21 16.88 L 20.13 16.75 L 20.05 16.62 L 19.96 16.5 L 19.88 16.38 L 19.8 16.25 L 19.71 16.12 L 19.63 16.0 L 19.55 15.88 L 19.46 15.75 L 19.38 15.62 L 19.3 15.5 L 19.21 15.38 L 19.13 15.25 L 19.05 15.12 L 18.96 15.0" fill="none" stroke="#111" stroke-width="1.50" stroke-linecap="round" stroke-linejoin="round"/>
<path d="M 18.96 21.0 L 18.96 21.54 L 18.96 22.08 L 18.96 22.62 L 18.96 23.17 L 18.96 23.71 L 18.96 24.25 L 18.96 24.79 L 18.96 25.33 L 18.96 25.88 L 18.96 26.42 L 18.96 26.96 L 18.96 27.5 L 18.96 28.04 L 18.96 28.58 L 18.96 29.12 L 18.96 29.67 L 18.96 30.21 L 18.96 30.75 L 18.96 31.29 L 18.96 31.83 L 18.96 32.38 L 18.96 32.92 L 18.96 33.46 L 18.96 34.0" fill="none" stroke="#111" stroke-width="1.50" stroke-linecap="round" stroke-linejoin="round"/>
<path d="M 18.96 26.0 L 19.45 26.4 L 19.93 26.81 L 20.39 27.24 L 20.83 27.68 L 21.26 28.14 L 21.67 28.61 L 22.07 29.1 L 22.45 29.6 L 22.81 30.12 L 23.16 30.64 L 23.48 31.18 L 23.79 31.73 L 24.08 32.29 L 24.35 32.85 L 24.6 33.43 L 24.83 34.02 L 25.04 34.61 L 25.23 35.21 L 25.39 35.81 L 25.54 36.43 L 25.67 37.04 L 25.77 37.66 L 25.85 38.29 L 25.91 38.91" fill="none" stroke="#111" stroke-width="1.50" stroke-linecap="round" stroke-linejoin="round"/>
<path d="M 23.96 22.0 L 24.11 22.61 L 24.23 23.23 L 24.32 23.85 L 24.38 24.47 L 24.41 25.1 L 24.42 25.72 L 24.4 26.35 L 24.35 26.97 L 24.28 27.6 L 24.17 28.22 L 24.04 28.83 L 23.88 29.44 L 23.7 30.03 L 23.48 30.62 L 23.25 31.2 L 22.98 31.77 L 22.69 32.33 L 22.38 32.87 L 22.04 33.4 L 21.68 33.91 L 21.3 34.41 L 20.89 34.89 L 20.47 35.35 L 20.02 35.79" fill="none" stroke="#111" stroke-width="1.50" stroke-linecap="round" stroke-linejoin="round"/>
</svg>
