<?xml version="1.0" encoding="UTF-8"?>
<svg xmlns="http://www.w3.org/2000/svg" viewBox="0 0 26.60 38.01">
<path d="M 5.0 8.1 L 5.42 8.1 L 5.83 8.1 L 6.25 8.1 L 6.67 8.1 L 7.08 8.1 L 7.5 8.1 L 7.92 8.1 L 8.33 8.1 L 8.75 8.1 L 9.17 8.1 L 9.58 8.1 L 10.0 8.1 L 10.42 8.1 L 10.83 8.1 L 11.25 8.1 L 11.67 8.1 L 12.08 8.1 L 12.5 8.1 L 12.92 8.1 L 13.33 8.1 L 13.75 8.1 L 14.17 8.1 L 14.58 8.1 L 15.0 8.1" fill="none" stroke="#111" stroke-width="1.33" stroke-linecap="round" stroke-linejoin="round"/>
<path d="M 5.0 8.1 L 4.63 9.27 L 4.46 10.49 L 4.48 11.72 L 4.71 12.93 L 5.13 14.08 L 5.73 15.16 L 6.5 16.12 L 7.41 16.94 L 8.45 17.6 L 9.57 18.09 L 10.77 18.39 L 11.99 18.49 L 13.22 18.39 L 14.41 18.09 L 15.54 17.6 L 16.57 16.94 L 17.49 16.12 L 18.25 15.16 L 18.85 14.08 L 19.27 12.93 L 19.5 11.72 L 19.53 10.49 L 19.35 9.27 L 18.98 8.1" fill="none" stroke="#111" stroke-width="1.33" stroke-linecap="round" stroke-linejoin="round"/>
<path d="M 5.0 12.1 L 5.42 12.1 L 5.83 12.1 L 6.25 12.1 L 6.67 12.1 L 7.08 12.1 L 7.5 12.1 L 7.92 12.1 L 8.33 12.1 L 8.75 12.1 L 9.17 12.1 L 9.58 12.1 L 10.0 12.1 L 10.42 12.1 L 10.83 12.1 L 11.25 12.1 L 11.67 12.1 L 12.08 12.1 L 12.5 12.1 L 12.92 12.1 L 13.33 12.1 L 13.75 12.1 L 14.17 12.1 L 14.58 12.1 L 15.0 12.1" fill="none" stroke="#111" stroke-width="1.33" stroke-linecap="round" stroke-linejoin="round"/>
<path d="M 10.0 21.1 L 9.83 21.35 L 9.67 21.6 L 9.5 21.85 L 9.33 22.1 L 9.17 22.35 L 9.0 22.6 L 8.83 22.85 L 8.67 23.1 L 8.5 23.35 L 8.33 23.6 L 8.17 23.85 L 8.0 24.1 L 7.83 24.35 L 7.67 24.6 L 7.5 24.85 L 7.33 25.1 L 7.17 25.35 L 7.0 25.6 L 6.83 25.85 L 6.67 26.1 L 6.5 26.35 L 6.33 26.6 L 6.17 26.85 L 6.0 27.1" fill="none" stroke="#111" stroke-width="1.33" stroke-linecap="round" stroke-linejoin="round"/>
<path d="M 10.0 21.1 L 10.08 21.31 L 10.17 21.52 L 10.25 21.73 L 10.33 21.93 L 10.42 22.14 L 10.5 22.35 L 10.58 22.56 L 10.67 22.77 L 10.75 22.98 L 10.83 23.18 L 10.92 23.39 L 11.0 23.6 L 11.08 23.81 L 11.17 24.02 L 11.25 24.23 L 11.33 24.43 L 11.42 24.64 L 11.5 24.85 L 11.58 25.06 L 11.67 25.27 L 11.75 25.48 L 11.83 25.68 L 11.92 25.89 L 12.0 26.1" fill="none" stroke="#111" stroke-width="1.33" stroke-linecap="round" stroke-linejoin="round"/>
<path d="M 4.0 27.1 L 4.46 27.15 L 4.92 27.18 L 5.38 27.21 L 5.84 27.24 L 6.31 27.25 L 6.77 27.26 L 7.23 27.26 L 7.69 27.25 L 8.16 27.24 L 8.62 27.21 L 9.08 27.18 L 9.54 27.14 L 10.0 27.1 L 10.46 27.05 L 10.92 26.99 L 11.38 26.92 L 11.83 26.84 L 12.29 26.76 L 12.74 26.67 L 13.19 26.57 L 13.64 26.46 L 14.09 26.35 L 14.54 26.23 L 14.98 26.1" fill="none" stroke="#111" stroke-width="1.33" stroke-linecap="round" stroke-linejoin="round"/>
<path d="M 8.0 4.1 L 9.4 4.0 L 10.8 4.05 L 12.19 4.25 L 13.55 4.6 L 14.86 5.1 L 16.12 5.73 L 17.29 6.5 L 18.38 7.39 L 19.36 8.39 L 20.23 9.49 L 20.98 10.68 L 21.59 11.94 L 22.07 13.26 L 22.4 14.63 L 22.58 16.02 L 22.6 17.42 L 22.48 18.82 L 22.21 20.2 L 21.78 21.53 L 21.22 22.82 L 20.52 24.04 L 19.7 25.17 L 18.75 26.21 L 17.7 27.14" fill="none" stroke="#111" stroke-width="1.33" stroke-linecap="round" stroke-linejoin="round"/>
<path d="M 16.0 16.1 L 16.46 16.75 L 16.9 17.4 L 17.32 18.08 L 17.71 18.76 L 18.09 19.46 L 18.45 20.16 L 18.78 20.88 L 19.1 21.61 L 19.39 22.34 L 19.66 23.09 L 19.9 23.84 L 20.12 24.6 L 20.33 25.36 L 20.5 26.14 L 20.66 26.91 L 20.79 27.69 L 20.89 28.48 L 20.98 29.26 L 21.04 30.05 L 21.07 30.84 L 21.08 31.63 L 21.07 32.43 L 21.03 33.22 L 20.97 34.01" fill="none" stroke="#111" stroke-width="1.33" stroke-linecap="round" stroke-linejoin="round"/>
</svg>
