<?xml version="1.0" encoding="UTF-8"?>
<svg xmlns="http://www.w3.org/2000/svg" viewBox="0 0 26.70 29.00">
<path d="M 11.7 4.0 L 11.33 4.12 L 10.98 4.28 L 10.65 4.48 L 10.34 4.71 L 10.06 4.97 L 9.81 5.26 L 9.59 5.58 L 9.41 5.92 L 9.27 6.28 L 9.17 6.65 L 9.1 7.03 L 9.08 7.41 L 9.1 7.8 L 9.17 8.18 L 9.27 8.55 L 9.41 8.91 L 9.59 9.25 L 9.81 9.56 L 10.06 9.86 L 10.34 10.12 L 10.65 10.35 L 10.98 10.55 L 11.33 10.71 L 11.7 10.83 L 11.7 11.0 L 11.78 10.88 L 11.86 10.75 L 11.95 10.62 L 12.03 10.5 L 12.11 10.38 L 12.2 10.25 L 12.28 10.12 L 12.36 10.0 L 12.45 9.88 L 12.53 9.75 L 12.61 9.62 L 12.7 9.5 L 12.78 9.38 L 12.86 9.25 L 12.95 9.12 L 13.03 9.0 L 13.11 8.88 L 13.2 8.75 L 13.28 8.62 L 13.36 8.5 L 13.45 8.38 L 13.53 8.25 L 13.61 8.12 L 13.7 8.0 L 13.7 8.0 L 13.61 7.83 L 13.53 7.67 L 13.45 7.5 L 13.36 7.33 L 13.28 7.17 L 13.2 7.0 L 13.11 6.83 L 13.03 6.67 L 12.95 6.5 L 12.86 6.33 L 12.78 6.17 L 12.7 6.0 L 12.61 5.83 L 12.53 5.67 L 12.45 5.5 L 12.36 5.33 L 12.28 5.17 L 12.2 5.0 L 12.11 4.83 L 12.03 4.67 L 11.95 4.5 L 11.86 4.33 L 11.78 4.17 L 11.7 4.0" fill="none" stroke="#111" stroke-width="1.02" stroke-linecap="round" stroke-linejoin="round"/>
<path d="M 11.7 12.0 L 12.0 12.55 L 12.24 13.13 L 12.42 13.73 L 12.52 14.35 L 12.56 14.97 L 12.52 15.6 L 12.42 16.21 L 12.25 16.82 L 12.01 17.4 L 11.7 17.94 L 11.34 18.46 L 10.92 18.92 L 10.46 19.34 L 9.94 19.7 L 9.4 20.01 L 8.82 20.25 L 8.21 20.42 L 7.6 20.52 L 6.97 20.56 L 6.35 20.52 L 5.73 20.42 L 5.13 20.24 L 4.55 20.0 L 4.0 19.7" fill="none" stroke="#111" stroke-width="1.02" stroke-linecap="round" stroke-linejoin="round"/>
<path d="M 16.7 14.0 L 16.97 13.81 L 17.23 13.59 L 17.47 13.36 L 17.69 13.1 L 17.89 12.83 L 18.06 12.54 L 18.21 12.24 L 18.33 11.93 L 18.43 11.6 L 18.5 11.27 L 18.54 10.94 L 18.56 10.6 L 18.54 10.27 L 18.5 9.93 L 18.43 9.6 L 18.33 9.28 L 18.21 8.97 L 18.06 8.67 L 17.89 8.38 L 17.69 8.11 L 17.47 7.85 L 17.23 7.62 L 16.97 7.4 L 16.7 7.21 L 16.7 7.0 L 16.45 7.25 L 16.21 7.52 L 15.99 7.8 L 15.79 8.09 L 15.6 8.39 L 15.43 8.71 L 15.28 9.03 L 15.15 9.36 L 15.03 9.7 L 14.94 10.04 L 14.86 10.39 L 14.81 10.74 L 14.78 11.1 L 14.76 11.45 L 14.77 11.81 L 14.8 12.16 L 14.84 12.52 L 14.91 12.87 L 15.0 13.21 L 15.1 13.55 L 15.23 13.88 L 15.37 14.21 L 15.54 14.53 L 15.72 14.83 L 15.7 15.0 L 15.7 15.29 L 15.7 15.58 L 15.7 15.88 L 15.7 16.17 L 15.7 16.46 L 15.7 16.75 L 15.7 17.04 L 15.7 17.33 L 15.7 17.62 L 15.7 17.92 L 15.7 18.21 L 15.7 18.5 L 15.7 18.79 L 15.7 19.08 L 15.7 19.38 L 15.7 19.67 L 15.7 19.96 L 15.7 20.25 L 15.7 20.54 L 15.7 20.83 L 15.7 21.12 L 15.7 21.42 L 15.7 21.71 L 15.7 22.0" fill="none" stroke="#111" stroke-width="1.02" stroke-linecap="round" stroke-linejoin="round"/>
<path d="M 16.7 17.0 L 16.95 17.33 L 17.2 17.67 L 17.45 18.0 L 17.7 18.33 L 17.95 18.67 L 18.2 19.0 L 18.45 19.33 L 18.7 19.67 L 18.95 20.0 L 19.2 20.33 L 19.45 20.67 L 19.7 21.0 L 19.95 21.33 L 20.2 21.67 L 20.45 22.0 L 20.7 22.33 L 20.95 22.67 L 21.2 23.0 L 21.45 23.33 L 21.7 23.67 L 21.95 24.0 L 22.2 24.33 L 22.45 24.67 L 22.7 25.0" fill="none" stroke="#111" stroke-width="1.02" stroke-linecap="round" stroke-linejoin="round"/>
<path d="M 18.7 16.0 L 18.61 16.38 L 18.53 16.75 L 18.45 17.12 L 18.36 17.5 L 18.28 17.88 L 18.2 18.25 L 18.11 18.62 L 18.03 19.0 L 17.95 19.38 L 17.86 19.75 L 17.78 20.12 L 17.7 20.5 L 17.61 20.88 L 17.53 21.25 L 17.45 21.62 L 17.36 22.0 L 17.28 22.38 L 17.2 22.75 L 17.11 23.12 L 17.03 23.5 L 16.95 23.88 L 16.86 24.25 L 16.78 24.62 L 16.7 25.0" fill="none" stroke="#111" stroke-width="1.02" stroke-linecap="round" stroke-linejoin="round"/>
</svg>
