<?xml version="1.0" encoding="UTF-8"?>
<svg xmlns="http://www.w3.org/2000/svg" viewBox="0 0 25.18 37.07">
<path d="M 8.0 6.07 L 7.81 6.14 L 7.63 6.23 L 7.45 6.33 L 7.28 6.43 L 7.12 6.55 L 6.97 6.68 L 6.82 6.82 L 6.68 6.97 L 6.56 7.12 L 6.44 7.29 L 6.33 7.46 L 6.24 7.63 L 6.15 7.82 L 6.08 8.0 L 6.02 8.2 L 5.97 8.39 L 5.94 8.59 L 5.91 8.79 L 5.9 8.99 L 5.91 9.19 L 5.92 9.39 L 5.95 9.59 L 5.99 9.79 L 6.04 9.98 L 6.0 10.07 L 6.3 10.25 L 6.63 10.38 L 6.97 10.47 L 7.32 10.5 L 7.68 10.49 L 8.02 10.42 L 8.36 10.31 L 8.67 10.15 L 8.96 9.95 L 9.22 9.71 L 9.44 9.44 L 9.62 9.13 L 9.76 8.81 L 9.84 8.46 L 9.88 8.11 L 9.87 7.76 L 9.81 7.41 L 9.7 7.08 L 9.54 6.76 L 9.34 6.47 L 9.1 6.21 L 8.83 5.99 L 8.52 5.81 L 8.2 5.67" fill="none" stroke="#111" stroke-width="1.30" stroke-linecap="round" stroke-linejoin="round"/>
<path d="M 20.0 4.07 L 19.61 4.0 L 19.2 4.0 L 18.81 4.08 L 18.44 4.22 L 18.09 4.43 L 17.79 4.69 L 17.54 5.01 L 17.36 5.36 L 17.24 5.74 L 17.18 6.14 L 17.21 6.54 L 17.3 6.93 L 17.46 7.3 L 17.68 7.63 L 17.96 7.92 L 18.29 8.15 L 18.65 8.32 L 19.04 8.43 L 19.44 8.46 L 19.84 8.42 L 20.22 8.31 L 20.58 8.13 L 20.9 7.89 L 21.18 7.6 L 21.0 7.07 L 21.0 7.03 L 21.0 6.99 L 21.0 6.94 L 21.0 6.9 L 21.0 6.86 L 21.0 6.82 L 21.0 6.78 L 21.0 6.74 L 21.0 6.69 L 21.0 6.65 L 21.0 6.61 L 21.0 6.57 L 21.0 6.53 L 21.0 6.49 L 21.0 6.44 L 21.0 6.4 L 21.0 6.36 L 21.0 6.32 L 21.0 6.28 L 21.0 6.24 L 21.0 6.19 L 21.0 6.15 L 21.0 6.11 L 21.0 6.07 L 21.0 6.07 L 20.96 5.99 L 20.92 5.9 L 20.88 5.82 L 20.83 5.74 L 20.79 5.65 L 20.75 5.57 L 20.71 5.49 L 20.67 5.4 L 20.62 5.32 L 20.58 5.24 L 20.54 5.15 L 20.5 5.07 L 20.46 4.99 L 20.42 4.9 L 20.38 4.82 L 20.33 4.74 L 20.29 4.65 L 20.25 4.57 L 20.21 4.49 L 20.17 4.4 L 20.12 4.32 L 20.08 4.24 L 20.04 4.15 L 20.0 4.07" fill="none" stroke="#111" stroke-width="1.30" stroke-linecap="round" stroke-linejoin="round"/>
<path d="M 8.0 10.07 L 8.01 10.62 L 8.04 11.17 L 8.08 11.72 L 8.14 12.27 L 8.23 12.82 L 8.32 13.36 L 8.44 13.9 L 8.58 14.43 L 8.73 14.96 L 8.9 15.49 L 9.08 16.01 L 9.29 16.52 L 9.51 17.03 L 9.75 17.53 L 10.0 18.02 L 10.27 18.5 L 10.55 18.97 L 10.86 19.43 L 11.17 19.89 L 11.5 20.33 L 11.85 20.76 L 12.2 21.18 L 12.58 21.59 L 12.96 21.98" fill="none" stroke="#111" stroke-width="1.30" stroke-linecap="round" stroke-linejoin="round"/>
<path d="M 19.0 8.07 L 18.75 8.65 L 18.5 9.24 L 18.25 9.82 L 18.0 10.4 L 17.75 10.99 L 17.5 11.57 L 17.25 12.15 L 17.0 12.74 L 16.75 13.32 L 16.5 13.9 L 16.25 14.49 L 16.0 15.07 L 15.75 15.65 L 15.5 16.24 L 15.25 16.82 L 15.0 17.4 L 14.75 17.99 L 14.5 18.57 L 14.25 19.15 L 14.0 19.74 L 13.75 20.32 L 13.5 20.9 L 13.25 21.49 L 13.0 22.07" fill="none" stroke="#111" stroke-width="1.30" stroke-linecap="round" stroke-linejoin="round"/>
<path d="M 4.0 24.07 L 4.71 24.07 L 5.42 24.07 L 6.12 24.07 L 6.83 24.07 L 7.54 24.07 L 8.25 24.07 L 8.96 24.07 L 9.67 24.07 L 10.38 24.07 L 11.08 24.07 L 11.79 24.07 L 12.5 24.07 L 13.21 24.07 L 13.92 24.07 L 14.62 24.07 L 15.33 24.07 L 16.04 24.07 L 16.75 24.07 L 17.46 24.07 L 18.17 24.07 L 18.88 24.07 L 19.58 24.07 L 20.29 24.07 L 21.0 24.07" fill="none" stroke="#111" stroke-width="1.30" stroke-linecap="round" stroke-linejoin="round"/>
<path d="M 13.0 22.07 L 13.0 22.53 L 13.0 22.99 L 13.0 23.44 L 13.0 23.9 L 13.0 24.36 L 13.0 24.82 L 13.0 25.28 L 13.0 25.74 L 13.0 26.19 L 13.0 26.65 L 13.0 27.11 L 13.0 27.57 L 13.0 28.03 L 13.0 28.49 L 13.0 28.94 L 13.0 29.4 L 13.0 29.86 L 13.0 30.32 L 13.0 30.78 L 13.0 31.24 L 13.0 31.69 L 13.0 32.15 L 13.0 32.61 L 13.0 33.07" fill="none" stroke="#111" stroke-width="1.30" stroke-linecap="round" stroke-linejoin="round"/>
</svg>
