<?xml version="1.0" encoding="UTF-8"?>
<svg xmlns="http://www.w3.org/2000/svg" viewBox="0 0 23.02 40.86">
<path d="M 9.0 6.0 L 9.56 6.85 L 10.06 7.73 L 10.5 8.65 L 10.87 9.59 L 11.18 10.56 L 11.41 11.55 L 11.58 12.56 L 11.67 13.57 L 11.7 14.59 L 11.65 15.6 L 11.53 16.61 L 11.34 17.61 L 11.08 18.59 L 10.75 19.55 L 10.36 20.49 L 9.9 21.4 L 9.37 22.27 L 8.79 23.1 L 8.15 23.89 L 7.46 24.63 L 6.71 25.33 L 5.92 25.96 L 5.09 26.55 L 4.21 27.07 L 4.0 28.0 L 4.0 28.21 L 4.0 28.42 L 4.0 28.62 L 4.0 28.83 L 4.0 29.04 L 4.0 29.25 L 4.0 29.46 L 4.0 29.67 L 4.0 29.88 L 4.0 30.08 L 4.0 30.29 L 4.0 30.5 L 4.0 30.71 L 4.0 30.92 L 4.0 31.12 L 4.0 31.33 L 4.0 31.54 L 4.0 31.75 L 4.0 31.96 L 4.0 32.17 L 4.0 32.38 L 4.0 32.58 L 4.0 32.79 L 4.0 33.0 L 4.0 33.0 L 4.25 32.79 L 4.5 32.58 L 4.75 32.38 L 5.0 32.17 L 5.25 31.96 L 5.5 31.75 L 5.75 31.54 L 6.0 31.33 L 6.25 31.12 L 6.5 30.92 L 6.75 30.71 L 7.0 30.5 L 7.25 30.29 L 7.5 30.08 L 7.75 29.88 L 8.0 29.67 L 8.25 29.46 L 8.5 29.25 L 8.75 29.04 L 9.0 28.83 L 9.25 28.62 L 9.5 28.42 L 9.75 28.21 L 10.0 28.0 L 10.0 28.0 L 10.12 28.36 L 10.23 28.73 L 10.33 29.11 L 10.41 29.48 L 10.48 29.86 L 10.53 30.24 L 10.57 30.63 L 10.59 31.01 L 10.6 31.39 L 10.59 31.78 L 10.57 32.16 L 10.54 32.55 L 10.49 32.93 L 10.42 33.31 L 10.34 33.68 L 10.25 34.06 L 10.14 34.43 L 10.02 34.79 L 9.89 35.15 L 9.74 35.51 L 9.58 35.86 L 9.4 36.2 L 9.22 36.54 L 9.02 36.86" fill="none" stroke="#111" stroke-width="1.43" stroke-linecap="round" stroke-linejoin="round"/>
<path d="M 9.0 12.0 L 8.61 12.54 L 8.24 13.09 L 7.89 13.65 L 7.55 14.22 L 7.24 14.8 L 6.94 15.4 L 6.66 16.0 L 6.4 16.61 L 6.16 17.23 L 5.94 17.85 L 5.74 18.48 L 5.56 19.12 L 5.4 19.76 L 5.26 20.41 L 5.14 21.06 L 5.04 21.72 L 4.96 22.38 L 4.9 23.04 L 4.87 23.7 L 4.85 24.36 L 4.86 25.03 L 4.88 25.69 L 4.93 26.35 L 5.0 27.01" fill="none" stroke="#111" stroke-width="1.43" stroke-linecap="round" stroke-linejoin="round"/>
<path d="M 15.0 4.0 L 14.71 4.34 L 14.44 4.7 L 14.19 5.07 L 13.96 5.46 L 13.76 5.86 L 13.58 6.27 L 13.43 6.7 L 13.31 7.13 L 13.21 7.56 L 13.15 8.01 L 13.1 8.45 L 13.09 8.9 L 13.1 9.35 L 13.15 9.8 L 13.21 10.24 L 13.31 10.68 L 13.43 11.11 L 13.58 11.53 L 13.76 11.95 L 13.96 12.35 L 14.19 12.74 L 14.44 13.11 L 14.71 13.47 L 15.0 13.81 L 15.0 14.0 L 15.3 13.67 L 15.58 13.31 L 15.83 12.94 L 16.07 12.56 L 16.27 12.16 L 16.45 11.75 L 16.61 11.32 L 16.73 10.89 L 16.83 10.45 L 16.91 10.01 L 16.95 9.56 L 16.96 9.11 L 16.95 8.66 L 16.91 8.21 L 16.83 7.77 L 16.73 7.33 L 16.61 6.9 L 16.45 6.48 L 16.27 6.07 L 16.07 5.67 L 15.83 5.28 L 15.58 4.91 L 15.3 4.56 L 15.0 4.22" fill="none" stroke="#111" stroke-width="1.43" stroke-linecap="round" stroke-linejoin="round"/>
<path d="M 15.0 14.0 L 15.14 14.69 L 15.25 15.39 L 15.33 16.09 L 15.39 16.79 L 15.42 17.5 L 15.42 18.21 L 15.4 18.91 L 15.34 19.62 L 15.27 20.32 L 15.16 21.02 L 15.03 21.71 L 14.87 22.4 L 14.69 23.08 L 14.48 23.75 L 14.24 24.42 L 13.98 25.07 L 13.69 25.72 L 13.38 26.35 L 13.05 26.97 L 12.69 27.58 L 12.31 28.18 L 11.91 28.76 L 11.48 29.32 L 11.03 29.87" fill="none" stroke="#111" stroke-width="1.43" stroke-linecap="round" stroke-linejoin="round"/>
<path d="M 18.0 18.0 L 18.11 18.74 L 18.19 19.48 L 18.24 20.22 L 18.25 20.96 L 18.23 21.71 L 18.17 22.45 L 18.09 23.19 L 17.97 23.93 L 17.82 24.66 L 17.64 25.38 L 17.42 26.09 L 17.18 26.79 L 16.9 27.49 L 16.59 28.16 L 16.25 28.83 L 15.89 29.48 L 15.49 30.11 L 15.07 30.72 L 14.62 31.32 L 14.15 31.89 L 13.65 32.44 L 13.13 32.97 L 12.58 33.48 L 12.01 33.96" fill="none" stroke="#111" stroke-width="1.43" stroke-linecap="round" stroke-linejoin="round"/>
<path d="M 15.0 22.0 L 15.35 22.51 L 15.68 23.02 L 16.0 23.55 L 16.31 24.09 L 16.6 24.63 L 16.87 25.18 L 17.13 25.74 L 17.37 26.3 L 17.6 26.88 L 17.81 27.45 L 18.0 28.04 L 18.18 28.63 L 18.34 29.22 L 18.48 29.82 L 18.61 30.42 L 18.72 31.03 L 18.81 31.64 L 18.89 32.25 L 18.95 32.86 L 18.99 33.47 L 19.01 34.09 L 19.02 34.7 L 19.01 35.32 L 18.98 35.93" fill="none" stroke="#111" stroke-width="1.43" stroke-linecap="round" stroke-linejoin="round"/>
</svg>
