<?xml version="1.0" encoding="UTF-8"?>
<svg xmlns="http://www.w3.org/2000/svg" viewBox="0 0 22.00 32.00">
<path d="M 11.0 4.0 L 11.0 5.0 L 11.0 6.0 L 11.0 7.0 L 11.0 8.0 L 11.0 9.0 L 11.0 10.0 L 11.0 11.0 L 11.0 12.0 L 11.0 13.0 L 11.0 14.0 L 11.0 15.0 L 11.0 16.0 L 11.0 17.0 L 11.0 18.0 L 11.0 19.0 L 11.0 20.0 L 11.0 21.0 L 11.0 22.0 L 11.0 23.0 L 11.0 24.0 L 11.0 25.0 L 11.0 26.0 L 11.0 27.0 L 11.0 28.0" fill="none" stroke="#111" stroke-width="1.12" stroke-linecap="round" stroke-linejoin="round"/>
<path d="M 11.0 4.0 L 11.12 4.0 L 11.25 4.0 L 11.38 4.0 L 11.5 4.0 L 11.62 4.0 L 11.75 4.0 L 11.88 4.0 L 12.0 4.0 L 12.12 4.0 L 12.25 4.0 L 12.38 4.0 L 12.5 4.0 L 12.62 4.0 L 12.75 4.0 L 12.88 4.0 L 13.0 4.0 L 13.12 4.0 L 13.25 4.0 L 13.38 4.0 L 13.5 4.0 L 13.62 4.0 L 13.75 4.0 L 13.88 4.0 L 14.0 4.0" fill="none" stroke="#111" stroke-width="1.12" stroke-linecap="round" stroke-linejoin="round"/>
<path d="M 4.0 8.0 L 4.54 8.0 L 5.08 8.0 L 5.62 8.0 L 6.17 8.0 L 6.71 8.0 L 7.25 8.0 L 7.79 8.0 L 8.33 8.0 L 8.88 8.0 L 9.42 8.0 L 9.96 8.0 L 10.5 8.0 L 11.04 8.0 L 11.58 8.0 L 12.12 8.0 L 12.67 8.0 L 13.21 8.0 L 13.75 8.0 L 14.29 8.0 L 14.83 8.0 L 15.38 8.0 L 15.92 8.0 L 16.46 8.0 L 17.0 8.0" fill="none" stroke="#111" stroke-width="1.12" stroke-linecap="round" stroke-linejoin="round"/>
<path d="M 5.0 13.0 L 5.5 13.0 L 6.0 13.0 L 6.5 13.0 L 7.0 13.0 L 7.5 13.0 L 8.0 13.0 L 8.5 13.0 L 9.0 13.0 L 9.5 13.0 L 10.0 13.0 L 10.5 13.0 L 11.0 13.0 L 11.5 13.0 L 12.0 13.0 L 12.5 13.0 L 13.0 13.0 L 13.5 13.0 L 14.0 13.0 L 14.5 13.0 L 15.0 13.0 L 15.5 13.0 L 16.0 13.0 L 16.5 13.0 L 17.0 13.0" fill="none" stroke="#111" stroke-width="1.12" stroke-linecap="round" stroke-linejoin="round"/>
<path d="M 8.0 16.0 L 8.25 16.0 L 8.5 16.0 L 8.75 16.0 L 9.0 16.0 L 9.25 16.0 L 9.5 16.0 L 9.75 16.0 L 10.0 16.0 L 10.25 16.0 L 10.5 16.0 L 10.75 16.0 L 11.0 16.0 L 11.25 16.0 L 11.5 16.0 L 11.75 16.0 L 12.0 16.0 L 12.25 16.0 L 12.5 16.0 L 12.75 16.0 L 13.0 16.0 L 13.25 16.0 L 13.5 16.0 L 13.75 16.0 L 14.0 16.0" fill="none" stroke="#111" stroke-width="1.12" stroke-linecap="round" stroke-linejoin="round"/>
<path d="M 8.0 19.0 L 8.25 19.0 L 8.5 19.0 L 8.75 19.0 L 9.0 19.0 L 9.25 19.0 L 9.5 19.0 L 9.75 19.0 L 10.0 19.0 L 10.25 19.0 L 10.5 19.0 L 10.75 19.0 L 11.0 19.0 L 11.25 19.0 L 11.5 19.0 L 11.75 19.0 L 12.0 19.0 L 12.25 19.0 L 12.5 19.0 L 12.75 19.0 L 13.0 19.0 L 13.25 19.0 L 13.5 19.0 L 13.75 19.0 L 14.0 19.0" fill="none" stroke="#111" stroke-width="1.12" stroke-linecap="round" stroke-linejoin="round"/>
<path d="M 5.0 23.0 L 5.54 23.0 L 6.08 23.0 L 6.62 23.0 L 7.17 23.0 L 7.71 23.0 L 8.25 23.0 L 8.79 23.0 L 9.33 23.0 L 9.88 23.0 L 10.42 23.0 L 10.96 23.0 L 11.5 23.0 L 12.04 23.0 L 12.58 23.0 L 13.12 23.0 L 13.67 23.0 L 14.21 23.0 L 14.75 23.0 L 15.29 23.0 L 15.83 23.0 L 16.38 23.0 L 16.92 23.0 L 17.46 23.0 L 18.0 23.0" fill="none" stroke="#111" stroke-width="1.12" stroke-linecap="round" stroke-linejoin="round"/>
<path d="M 8.0 16.0 L 8.0 16.12 L 8.0 16.25 L 8.0 16.38 L 8.0 16.5 L 8.0 16.62 L 8.0 16.75 L 8.0 16.88 L 8.0 17.0 L 8.0 17.12 L 8.0 17.25 L 8.0 17.38 L 8.0 17.5 L 8.0 17.62 L 8.0 17.75 L 8.0 17.88 L 8.0 18.0 L 8.0 18.12 L 8.0 18.25 L 8.0 18.38 L 8.0 18.5 L 8.0 18.62 L 8.0 18.75 L 8.0 18.88 L 8.0 19.0" fill="none" stroke="#111" stroke-width="1.12" stroke-linecap="round" stroke-linejoin="round"/>
<path d="M 14.0 16.0 L 14.0 16.12 L 14.0 16.25 L 14.0 16.38 L 14.0 16.5 L 14.0 16.62 L 14.0 16.75 L 14.0 16.88 L 14.0 17.0 L 14.0 17.12 L 14.0 17.25 L 14.0 17.38 L 14.0 17.5 L 14.0 17.62 L 14.0 17.75 L 14.0 17.88 L 14.0 18.0 L 14.0 18.12 L 14.0 18.25 L 14.0 18.38 L 14.0 18.5 L 14.0 18.62 L 14.0 18.75 L 14.0 18.88 L 14.0 19.0" fill="none" stroke="#111" stroke-width="1.12" stroke-linecap="round" stroke-linejoin="round"/>
<path d="M 5.0 13.0 L 5.0 13.42 L 5.0 13.83 L 5.0 14.25 L 5.0 14.67 L 5.0 15.08 L 5.0 15.5 L 5.0 15.92 L 5.0 16.33 L 5.0 16.75 L 5.0 17.17 L 5.0 17.58 L 5.0 18.0 L 5.0 18.42 L 5.0 18.83 L 5.0 19.25 L 5.0 19.67 L 5.0 20.08 L 5.0 20.5 L 5.0 20.92 L 5.0 21.33 L 5.0 21.75 L 5.0 22.17 L 5.0 22.58 L 5.0 23.0" fill="none" stroke="#111" stroke-width="1.12" stroke-linecap="round" stroke-linejoin="round"/>
<path d="M 17.0 13.0 L 17.0 13.42 L 17.0 13.83 L 17.0 14.25 L 17.0 14.67 L 17.0 15.08 L 17.0 15.5 L 17.0 15.92 L 17.0 16.33 L 17.0 16.75 L 17.0 17.17 L 17.0 17.58 L 17.0 18.0 L 17.0 18.42 L 17.0 18.83 L 17.0 19.25 L 17.0 19.67 L 17.0 20.08 L 17.0 20.5 L 17.0 20.92 L 17.0 21.33 L 17.0 21.75 L 17.0 22.17 L 17.0 22.58 L 17.0 23.0" fill="none" stroke="#111" stroke-width="1.12" stroke-linecap="round" stroke-linejoin="round"/>
</svg>
