<?xml version="1.0" encoding="UTF-8"?>
<svg xmlns="http://www.w3.org/2000/svg" viewBox="0 0 25.81 40.90">
<path d="M 13.81 8.0 L 13.6 8.17 L 13.39 8.33 L 13.19 8.5 L 12.98 8.67 L 12.77 8.83 L 12.56 9.0 L 12.35 9.17 L 12.14 9.33 L 11.94 9.5 L 11.73 9.67 L 11.52 9.83 L 11.31 10.0 L 11.1 10.17 L 10.89 10.33 L 10.69 10.5 L 10.48 10.67 L 10.27 10.83 L 10.06 11.0 L 9.85 11.17 L 9.64 11.33 L 9.44 11.5 L 9.23 11.67 L 9.02 11.83 L 8.81 12.0 L 8.81 12.0 L 9.12 12.4 L 9.38 12.83 L 9.6 13.28 L 9.77 13.75 L 9.88 14.24 L 9.95 14.74 L 9.96 15.24 L 9.92 15.74 L 9.82 16.24 L 9.68 16.72 L 9.48 17.18 L 9.24 17.62 L 8.95 18.03 L 8.62 18.41 L 8.25 18.75 L 7.85 19.05 L 7.42 19.31 L 6.96 19.52 L 6.48 19.68 L 5.99 19.79 L 5.49 19.84 L 4.99 19.85 L 4.49 19.8 L 4.0 19.7" fill="none" stroke="#111" stroke-width="1.43" stroke-linecap="round" stroke-linejoin="round"/>
<path d="M 7.81 19.0 L 8.05 19.37 L 8.28 19.74 L 8.5 20.12 L 8.71 20.51 L 8.92 20.9 L 9.11 21.3 L 9.29 21.7 L 9.46 22.1 L 9.63 22.51 L 9.78 22.92 L 9.92 23.34 L 10.05 23.76 L 10.17 24.18 L 10.28 24.61 L 10.38 25.03 L 10.47 25.46 L 10.55 25.9 L 10.62 26.33 L 10.68 26.77 L 10.72 27.2 L 10.76 27.64 L 10.78 28.08 L 10.8 28.52 L 10.8 28.96 L 10.81 29.0 L 11.02 29.12 L 11.23 29.25 L 11.44 29.38 L 11.64 29.5 L 11.85 29.62 L 12.06 29.75 L 12.27 29.88 L 12.48 30.0 L 12.69 30.12 L 12.89 30.25 L 13.1 30.38 L 13.31 30.5 L 13.52 30.62 L 13.73 30.75 L 13.94 30.88 L 14.14 31.0 L 14.35 31.12 L 14.56 31.25 L 14.77 31.38 L 14.98 31.5 L 15.19 31.62 L 15.39 31.75 L 15.6 31.88 L 15.81 32.0" fill="none" stroke="#111" stroke-width="1.43" stroke-linecap="round" stroke-linejoin="round"/>
<path d="M 13.81 24.0 L 13.54 24.49 L 13.3 24.99 L 13.07 25.49 L 12.86 26.01 L 12.66 26.53 L 12.49 27.06 L 12.34 27.6 L 12.21 28.14 L 12.09 28.68 L 12.0 29.23 L 11.93 29.78 L 11.87 30.34 L 11.84 30.89 L 11.83 31.45 L 11.84 32.01 L 11.87 32.56 L 11.91 33.12 L 11.98 33.67 L 12.07 34.22 L 12.18 34.77 L 12.31 35.31 L 12.46 35.84 L 12.63 36.37 L 12.82 36.9" fill="none" stroke="#111" stroke-width="1.43" stroke-linecap="round" stroke-linejoin="round"/>
<path d="M 13.81 4.0 L 13.43 4.27 L 13.07 4.57 L 12.74 4.89 L 12.43 5.24 L 12.14 5.61 L 11.89 6.0 L 11.66 6.4 L 11.46 6.83 L 11.3 7.26 L 11.17 7.71 L 11.07 8.16 L 11.01 8.63 L 10.98 9.09 L 10.99 9.56 L 11.03 10.02 L 11.1 10.48 L 11.21 10.93 L 11.35 11.38 L 11.52 11.81 L 11.73 12.23 L 11.96 12.63 L 12.23 13.01 L 12.52 13.37 L 12.84 13.71" fill="none" stroke="#111" stroke-width="1.43" stroke-linecap="round" stroke-linejoin="round"/>
<path d="M 15.81 10.0 L 15.81 10.75 L 15.81 11.5 L 15.81 12.25 L 15.81 13.0 L 15.81 13.75 L 15.81 14.5 L 15.81 15.25 L 15.81 16.0 L 15.81 16.75 L 15.81 17.5 L 15.81 18.25 L 15.81 19.0 L 15.81 19.75 L 15.81 20.5 L 15.81 21.25 L 15.81 22.0 L 15.81 22.75 L 15.81 23.5 L 15.81 24.25 L 15.81 25.0 L 15.81 25.75 L 15.81 26.5 L 15.81 27.25 L 15.81 28.0" fill="none" stroke="#111" stroke-width="1.43" stroke-linecap="round" stroke-linejoin="round"/>
<path d="M 15.81 10.0 L 16.06 10.0 L 16.31 10.0 L 16.56 10.0 L 16.81 10.0 L 17.06 10.0 L 17.31 10.0 L 17.56 10.0 L 17.81 10.0 L 18.06 10.0 L 18.31 10.0 L 18.56 10.0 L 18.81 10.0 L 19.06 10.0 L 19.31 10.0 L 19.56 10.0 L 19.81 10.0 L 20.06 10.0 L 20.31 10.0 L 20.56 10.0 L 20.81 10.0 L 21.06 10.0 L 21.31 10.0 L 21.56 10.0 L 21.81 10.0" fill="none" stroke="#111" stroke-width="1.43" stroke-linecap="round" stroke-linejoin="round"/>
<path d="M 21.81 10.0 L 21.81 10.75 L 21.81 11.5 L 21.81 12.25 L 21.81 13.0 L 21.81 13.75 L 21.81 14.5 L 21.81 15.25 L 21.81 16.0 L 21.81 16.75 L 21.81 17.5 L 21.81 18.25 L 21.81 19.0 L 21.81 19.75 L 21.81 20.5 L 21.81 21.25 L 21.81 22.0 L 21.81 22.75 L 21.81 23.5 L 21.81 24.25 L 21.81 25.0 L 21.81 25.75 L 21.81 26.5 L 21.81 27.25 L 21.81 28.0" fill="none" stroke="#111" stroke-width="1.43" stroke-linecap="round" stroke-linejoin="round"/>
<path d="M 14.81 28.0 L 15.1 28.0 L 15.39 28.0 L 15.69 28.0 L 15.98 28.0 L 16.27 28.0 L 16.56 28.0 L 16.85 28.0 L 17.14 28.0 L 17.44 28.0 L 17.73 28.0 L 18.02 28.0 L 18.31 28.0 L 18.6 28.0 L 18.89 28.0 L 19.19 28.0 L 19.48 28.0 L 19.77 28.0 L 20.06 28.0 L 20.35 28.0 L 20.64 28.0 L 20.94 28.0 L 21.23 28.0 L 21.52 28.0 L 21.81 28.0" fill="none" stroke="#111" stroke-width="1.43" stroke-linecap="round" stroke-linejoin="round"/>
<path d="M 15.81 15.0 L 15.94 15.12 L 16.06 15.25 L 16.19 15.38 L 16.31 15.5 L 16.44 15.62 L 16.56 15.75 L 16.69 15.88 L 16.81 16.0 L 16.94 16.12 L 17.06 16.25 L 17.19 16.38 L 17.31 16.5 L 17.44 16.62 L 17.56 16.75 L 17.69 16.88 L 17.81 17.0 L 17.94 17.12 L 18.06 17.25 L 18.19 17.38 L 18.31 17.5 L 18.44 17.62 L 18.56 17.75 L 18.69 17.88 L 18.81 18.0 L 18.81 18.0 L 18.94 17.83 L 19.06 17.67 L 19.19 17.5 L 19.31 17.33 L 19.44 17.17 L 19.56 17.0 L 19.69 16.83 L 19.81 16.67 L 19.94 16.5 L 20.06 16.33 L 20.19 16.17 L 20.31 16.0 L 20.44 15.83 L 20.56 15.67 L 20.69 15.5 L 20.81 15.33 L 20.94 15.17 L 21.06 15.0 L 21.19 14.83 L 21.31 14.67 L 21.44 14.5 L 21.56 14.33 L 21.69 14.17 L 21.81 14.0" fill="none" stroke="#111" stroke-width="1.43" stroke-linecap="round" stroke-linejoin="round"/>
<path d="M 15.81 20.0 L 15.94 20.12 L 16.06 20.25 L 16.19 20.38 L 16.31 20.5 L 16.44 20.62 L 16.56 20.75 L 16.69 20.88 L 16.81 21.0 L 16.94 21.12 L 17.06 21.25 L 17.19 21.38 L 17.31 21.5 L 17.44 21.62 L 17.56 21.75 L 17.69 21.88 L 17.81 22.0 L 17.94 22.12 L 18.06 22.25 L 18.19 22.38 L 18.31 22.5 L 18.44 22.62 L 18.56 22.75 L 18.69 22.88 L 18.81 23.0 L 18.81 23.0 L 18.94 22.88 L 19.06 22.75 L 19.19 22.62 L 19.31 22.5 L 19.44 22.38 L 19.56 22.25 L 19.69 22.12 L 19.81 22.0 L 19.94 21.88 L 20.06 21.75 L 20.19 21.62 L 20.31 21.5 L 20.44 21.38 L 20.56 21.25 L 20.69 21.12 L 20.81 21.0 L 20.94 20.88 L 21.06 20.75 L 21.19 20.62 L 21.31 20.5 L 21.44 20.38 L 21.56 20.25 L 21.69 20.12 L 21.81 20.0" fill="none" stroke="#111" stroke-width="1.43" stroke-linecap="round" stroke-linejoin="round"/>
</svg>
