<?xml version="1.0" encoding="UTF-8"?>
<svg xmlns="http://www.w3.org/2000/svg" viewBox="0 0 16.00 36.00">
<path d="M 6.0 4.0 L 6.21 4.17 L 6.42 4.33 L 6.63 4.5 L 6.83 4.67 L 7.04 4.83 L 7.25 5.0 L 7.46 5.17 L 7.67 5.33 L 7.88 5.5 L 8.08 5.67 L 8.29 5.83 L 8.5 6.0 L 8.71 6.17 L 8.92 6.33 L 9.12 6.5 L 9.33 6.67 L 9.54 6.83 L 9.75 7.0 L 9.96 7.17 L 10.17 7.33 L 10.38 7.5 L 10.58 7.67 L 10.79 7.83 L 11.0 8.0" fill="none" stroke="#111" stroke-width="1.26" stroke-linecap="round" stroke-linejoin="round"/>
<path d="M 8.0 6.0 L 7.83 6.71 L 7.67 7.42 L 7.5 8.12 L 7.33 8.83 L 7.17 9.54 L 7.0 10.25 L 6.83 10.96 L 6.67 11.67 L 6.5 12.38 L 6.33 13.08 L 6.17 13.79 L 6.0 14.5 L 5.83 15.21 L 5.67 15.92 L 5.5 16.62 L 5.33 17.33 L 5.17 18.04 L 5.0 18.75 L 4.83 19.46 L 4.67 20.17 L 4.5 20.87 L 4.33 21.58 L 4.17 22.29 L 4.0 23.0" fill="none" stroke="#111" stroke-width="1.26" stroke-linecap="round" stroke-linejoin="round"/>
<path d="M 7.0 14.0 L 7.5 14.43 L 7.96 14.89 L 8.38 15.4 L 8.75 15.94 L 9.07 16.52 L 9.34 17.11 L 9.55 17.73 L 9.71 18.37 L 9.81 19.02 L 9.86 19.67 L 9.84 20.33 L 9.77 20.98 L 9.64 21.63 L 9.46 22.26 L 9.22 22.87 L 8.93 23.45 L 8.58 24.01 L 8.19 24.54 L 7.76 25.03 L 7.28 25.48 L 6.76 25.89 L 6.21 26.25 L 5.63 26.55 L 5.03 26.81" fill="none" stroke="#111" stroke-width="1.26" stroke-linecap="round" stroke-linejoin="round"/>
<path d="M 6.0 18.0 L 6.17 18.21 L 6.33 18.42 L 6.5 18.62 L 6.67 18.83 L 6.83 19.04 L 7.0 19.25 L 7.17 19.46 L 7.33 19.67 L 7.5 19.88 L 7.67 20.08 L 7.83 20.29 L 8.0 20.5 L 8.17 20.71 L 8.33 20.92 L 8.5 21.12 L 8.67 21.33 L 8.83 21.54 L 9.0 21.75 L 9.17 21.96 L 9.33 22.17 L 9.5 22.38 L 9.67 22.58 L 9.83 22.79 L 10.0 23.0 L 10.0 23.0 L 10.08 23.38 L 10.17 23.75 L 10.25 24.12 L 10.33 24.5 L 10.42 24.88 L 10.5 25.25 L 10.58 25.62 L 10.67 26.0 L 10.75 26.38 L 10.83 26.75 L 10.92 27.12 L 11.0 27.5 L 11.08 27.88 L 11.17 28.25 L 11.25 28.62 L 11.33 29.0 L 11.42 29.38 L 11.5 29.75 L 11.58 30.12 L 11.67 30.5 L 11.75 30.88 L 11.83 31.25 L 11.92 31.62 L 12.0 32.0" fill="none" stroke="#111" stroke-width="1.26" stroke-linecap="round" stroke-linejoin="round"/>
</svg>
