<?xml version="1.0" encoding="UTF-8"?>
<svg xmlns="http://www.w3.org/2000/svg" viewBox="0 0 25.51 33.38">
<path d="M 8.0 12.0 L 8.17 12.17 L 8.33 12.33 L 8.5 12.5 L 8.67 12.67 L 8.83 12.83 L 9.0 13.0 L 9.17 13.17 L 9.33 13.33 L 9.5 13.5 L 9.67 13.67 L 9.83 13.83 L 10.0 14.0 L 10.17 14.17 L 10.33 14.33 L 10.5 14.5 L 10.67 14.67 L 10.83 14.83 L 11.0 15.0 L 11.17 15.17 L 11.33 15.33 L 11.5 15.5 L 11.67 15.67 L 11.83 15.83 L 12.0 16.0 L 12.0 16.0 L 12.12 15.83 L 12.25 15.67 L 12.38 15.5 L 12.5 15.33 L 12.62 15.17 L 12.75 15.0 L 12.88 14.83 L 13.0 14.67 L 13.12 14.5 L 13.25 14.33 L 13.38 14.17 L 13.5 14.0 L 13.62 13.83 L 13.75 13.67 L 13.88 13.5 L 14.0 13.33 L 14.12 13.17 L 14.25 13.0 L 14.38 12.83 L 14.5 12.67 L 14.62 12.5 L 14.75 12.33 L 14.88 12.17 L 15.0 12.0" fill="none" stroke="#111" stroke-width="1.17" stroke-linecap="round" stroke-linejoin="round"/>
<path d="M 12.0 11.0 L 12.0 11.33 L 12.0 11.67 L 12.0 12.0 L 12.0 12.33 L 12.0 12.67 L 12.0 13.0 L 12.0 13.33 L 12.0 13.67 L 12.0 14.0 L 12.0 14.33 L 12.0 14.67 L 12.0 15.0 L 12.0 15.33 L 12.0 15.67 L 12.0 16.0 L 12.0 16.33 L 12.0 16.67 L 12.0 17.0 L 12.0 17.33 L 12.0 17.67 L 12.0 18.0 L 12.0 18.33 L 12.0 18.67 L 12.0 19.0" fill="none" stroke="#111" stroke-width="1.17" stroke-linecap="round" stroke-linejoin="round"/>
<path d="M 12.0 19.0 L 11.83 19.25 L 11.67 19.5 L 11.5 19.75 L 11.33 20.0 L 11.17 20.25 L 11.0 20.5 L 10.83 20.75 L 10.67 21.0 L 10.5 21.25 L 10.33 21.5 L 10.17 21.75 L 10.0 22.0 L 9.83 22.25 L 9.67 22.5 L 9.5 22.75 L 9.33 23.0 L 9.17 23.25 L 9.0 23.5 L 8.83 23.75 L 8.67 24.0 L 8.5 24.25 L 8.33 24.5 L 8.17 24.75 L 8.0 25.0" fill="none" stroke="#111" stroke-width="1.17" stroke-linecap="round" stroke-linejoin="round"/>
<path d="M 12.0 19.0 L 12.12 19.29 L 12.25 19.58 L 12.38 19.88 L 12.5 20.17 L 12.62 20.46 L 12.75 20.75 L 12.88 21.04 L 13.0 21.33 L 13.12 21.62 L 13.25 21.92 L 13.38 22.21 L 13.5 22.5 L 13.62 22.79 L 13.75 23.08 L 13.88 23.38 L 14.0 23.67 L 14.12 23.96 L 14.25 24.25 L 14.38 24.54 L 14.5 24.83 L 14.62 25.12 L 14.75 25.42 L 14.88 25.71 L 15.0 26.0" fill="none" stroke="#111" stroke-width="1.17" stroke-linecap="round" stroke-linejoin="round"/>
<path d="M 11.0 11.0 L 10.79 10.75 L 10.58 10.5 L 10.38 10.25 L 10.17 10.0 L 9.96 9.75 L 9.75 9.5 L 9.54 9.25 L 9.33 9.0 L 9.12 8.75 L 8.92 8.5 L 8.71 8.25 L 8.5 8.0 L 8.29 7.75 L 8.08 7.5 L 7.88 7.25 L 7.67 7.0 L 7.46 6.75 L 7.25 6.5 L 7.04 6.25 L 6.83 6.0 L 6.62 5.75 L 6.42 5.5 L 6.21 5.25 L 6.0 5.0 L 6.0 5.0 L 5.92 5.21 L 5.83 5.42 L 5.75 5.62 L 5.67 5.83 L 5.58 6.04 L 5.5 6.25 L 5.42 6.46 L 5.33 6.67 L 5.25 6.88 L 5.17 7.08 L 5.08 7.29 L 5.0 7.5 L 4.92 7.71 L 4.83 7.92 L 4.75 8.12 L 4.67 8.33 L 4.58 8.54 L 4.5 8.75 L 4.42 8.96 L 4.33 9.17 L 4.25 9.38 L 4.17 9.58 L 4.08 9.79 L 4.0 10.0" fill="none" stroke="#111" stroke-width="1.17" stroke-linecap="round" stroke-linejoin="round"/>
<path d="M 12.0 11.0 L 12.17 10.75 L 12.33 10.5 L 12.5 10.25 L 12.67 10.0 L 12.83 9.75 L 13.0 9.5 L 13.17 9.25 L 13.33 9.0 L 13.5 8.75 L 13.67 8.5 L 13.83 8.25 L 14.0 8.0 L 14.17 7.75 L 14.33 7.5 L 14.5 7.25 L 14.67 7.0 L 14.83 6.75 L 15.0 6.5 L 15.17 6.25 L 15.33 6.0 L 15.5 5.75 L 15.67 5.5 L 15.83 5.25 L 16.0 5.0 L 16.0 5.0 L 16.17 5.17 L 16.33 5.33 L 16.5 5.5 L 16.67 5.67 L 16.83 5.83 L 17.0 6.0 L 17.17 6.17 L 17.33 6.33 L 17.5 6.5 L 17.67 6.67 L 17.83 6.83 L 18.0 7.0 L 18.17 7.17 L 18.33 7.33 L 18.5 7.5 L 18.67 7.67 L 18.83 7.83 L 19.0 8.0 L 19.17 8.17 L 19.33 8.33 L 19.5 8.5 L 19.67 8.67 L 19.83 8.83 L 20.0 9.0" fill="none" stroke="#111" stroke-width="1.17" stroke-linecap="round" stroke-linejoin="round"/>
<path d="M 9.0 8.0 L 9.12 7.83 L 9.25 7.67 L 9.38 7.5 L 9.5 7.33 L 9.62 7.17 L 9.75 7.0 L 9.88 6.83 L 10.0 6.67 L 10.12 6.5 L 10.25 6.33 L 10.38 6.17 L 10.5 6.0 L 10.62 5.83 L 10.75 5.67 L 10.88 5.5 L 11.0 5.33 L 11.12 5.17 L 11.25 5.0 L 11.38 4.83 L 11.5 4.67 L 11.62 4.5 L 11.75 4.33 L 11.88 4.17 L 12.0 4.0 L 12.0 4.0 L 12.08 4.17 L 12.17 4.33 L 12.25 4.5 L 12.33 4.67 L 12.42 4.83 L 12.5 5.0 L 12.58 5.17 L 12.67 5.33 L 12.75 5.5 L 12.83 5.67 L 12.92 5.83 L 13.0 6.0 L 13.08 6.17 L 13.17 6.33 L 13.25 6.5 L 13.33 6.67 L 13.42 6.83 L 13.5 7.0 L 13.58 7.17 L 13.67 7.33 L 13.75 7.5 L 13.83 7.67 L 13.92 7.83 L 14.0 8.0" fill="none" stroke="#111" stroke-width="1.17" stroke-linecap="round" stroke-linejoin="round"/>
<path d="M 5.0 17.0 L 4.49 18.36 L 4.22 19.79 L 4.19 21.24 L 4.4 22.68 L 4.85 24.06 L 5.52 25.35 L 6.4 26.51 L 7.46 27.5 L 8.67 28.31 L 9.99 28.9 L 11.4 29.26 L 12.85 29.38 L 14.3 29.26 L 15.71 28.9 L 17.03 28.31 L 18.24 27.5 L 19.3 26.51 L 20.18 25.35 L 20.85 24.06 L 21.3 22.68 L 21.51 21.24 L 21.48 19.79 L 21.21 18.36 L 20.7 17.0" fill="none" stroke="#111" stroke-width="1.17" stroke-linecap="round" stroke-linejoin="round"/>
<path d="M 19.0 18.0 L 18.83 18.25 L 18.67 18.5 L 18.5 18.75 L 18.33 19.0 L 18.17 19.25 L 18.0 19.5 L 17.83 19.75 L 17.67 20.0 L 17.5 20.25 L 17.33 20.5 L 17.17 20.75 L 17.0 21.0 L 16.83 21.25 L 16.67 21.5 L 16.5 21.75 L 16.33 22.0 L 16.17 22.25 L 16.0 22.5 L 15.83 22.75 L 15.67 23.0 L 15.5 23.25 L 15.33 23.5 L 15.17 23.75 L 15.0 24.0" fill="none" stroke="#111" stroke-width="1.17" stroke-linecap="round" stroke-linejoin="round"/>
<path d="M 5.0 18.0 L 5.12 18.21 L 5.25 18.42 L 5.38 18.62 L 5.5 18.83 L 5.62 19.04 L 5.75 19.25 L 5.88 19.46 L 6.0 19.67 L 6.12 19.88 L 6.25 20.08 L 6.38 20.29 L 6.5 20.5 L 6.62 20.71 L 6.75 20.92 L 6.88 21.12 L 7.0 21.33 L 7.12 21.54 L 7.25 21.75 L 7.38 21.96 L 7.5 22.17 L 7.62 22.38 L 7.75 22.58 L 7.88 22.79 L 8.0 23.0" fill="none" stroke="#111" stroke-width="1.17" stroke-linecap="round" stroke-linejoin="round"/>
</svg>
