<?xml version="1.0" encoding="UTF-8"?>
<svg xmlns="http://www.w3.org/2000/svg" viewBox="0 0 24.49 35.51">
<path d="M 6.0 13.37 L 6.58 13.33 L 7.17 13.29 L 7.75 13.25 L 8.33 13.2 L 8.92 13.16 L 9.5 13.12 L 10.08 13.08 L 10.67 13.04 L 11.25 13.0 L 11.83 12.95 L 12.42 12.91 L 13.0 12.87 L 13.58 12.83 L 14.17 12.79 L 14.75 12.75 L 15.33 12.7 L 15.92 12.66 L 16.5 12.62 L 17.08 12.58 L 17.67 12.54 L 18.25 12.5 L 18.83 12.45 L 19.42 12.41 L 20.0 12.37" fill="none" stroke="#111" stroke-width="1.24" stroke-linecap="round" stroke-linejoin="round"/>
<path d="M 5.0 13.37 L 5.04 13.66 L 5.08 13.95 L 5.12 14.25 L 5.17 14.54 L 5.21 14.83 L 5.25 15.12 L 5.29 15.41 L 5.33 15.7 L 5.38 16.0 L 5.42 16.29 L 5.46 16.58 L 5.5 16.87 L 5.54 17.16 L 5.58 17.45 L 5.62 17.75 L 5.67 18.04 L 5.71 18.33 L 5.75 18.62 L 5.79 18.91 L 5.83 19.2 L 5.88 19.5 L 5.92 19.79 L 5.96 20.08 L 6.0 20.37" fill="none" stroke="#111" stroke-width="1.24" stroke-linecap="round" stroke-linejoin="round"/>
<path d="M 20.0 12.37 L 20.0 12.66 L 20.0 12.95 L 20.0 13.25 L 20.0 13.54 L 20.0 13.83 L 20.0 14.12 L 20.0 14.41 L 20.0 14.7 L 20.0 15.0 L 20.0 15.29 L 20.0 15.58 L 20.0 15.87 L 20.0 16.16 L 20.0 16.45 L 20.0 16.75 L 20.0 17.04 L 20.0 17.33 L 20.0 17.62 L 20.0 17.91 L 20.0 18.2 L 20.0 18.5 L 20.0 18.79 L 20.0 19.08 L 20.0 19.37" fill="none" stroke="#111" stroke-width="1.24" stroke-linecap="round" stroke-linejoin="round"/>
<path d="M 4.0 9.37 L 4.39 8.6 L 4.85 7.86 L 5.38 7.17 L 5.97 6.54 L 6.62 5.97 L 7.32 5.46 L 8.07 5.02 L 8.86 4.66 L 9.68 4.37 L 10.52 4.17 L 11.38 4.04 L 12.24 4.0 L 13.11 4.04 L 13.97 4.17 L 14.81 4.37 L 15.63 4.66 L 16.42 5.02 L 17.16 5.46 L 17.87 5.97 L 18.52 6.54 L 19.11 7.17 L 19.64 7.86 L 20.1 8.6 L 20.49 9.37" fill="none" stroke="#111" stroke-width="1.24" stroke-linecap="round" stroke-linejoin="round"/>
<path d="M 8.0 11.37 L 8.0 11.2 L 8.0 11.04 L 8.0 10.87 L 8.0 10.7 L 8.0 10.54 L 8.0 10.37 L 8.0 10.2 L 8.0 10.04 L 8.0 9.87 L 8.0 9.7 L 8.0 9.54 L 8.0 9.37 L 8.0 9.2 L 8.0 9.04 L 8.0 8.87 L 8.0 8.7 L 8.0 8.54 L 8.0 8.37 L 8.0 8.2 L 8.0 8.04 L 8.0 7.87 L 8.0 7.7 L 8.0 7.54 L 8.0 7.37 L 8.0 7.37 L 8.38 7.37 L 8.75 7.37 L 9.12 7.37 L 9.5 7.37 L 9.88 7.37 L 10.25 7.37 L 10.62 7.37 L 11.0 7.37 L 11.38 7.37 L 11.75 7.37 L 12.12 7.37 L 12.5 7.37 L 12.88 7.37 L 13.25 7.37 L 13.62 7.37 L 14.0 7.37 L 14.38 7.37 L 14.75 7.37 L 15.12 7.37 L 15.5 7.37 L 15.88 7.37 L 16.25 7.37 L 16.62 7.37 L 17.0 7.37 L 17.0 7.37 L 17.0 7.58 L 17.0 7.79 L 17.0 8.0 L 17.0 8.2 L 17.0 8.41 L 17.0 8.62 L 17.0 8.83 L 17.0 9.04 L 17.0 9.25 L 17.0 9.45 L 17.0 9.66 L 17.0 9.87 L 17.0 10.08 L 17.0 10.29 L 17.0 10.5 L 17.0 10.7 L 17.0 10.91 L 17.0 11.12 L 17.0 11.33 L 17.0 11.54 L 17.0 11.75 L 17.0 11.95 L 17.0 12.16 L 17.0 12.37" fill="none" stroke="#111" stroke-width="1.24" stroke-linecap="round" stroke-linejoin="round"/>
<path d="M 13.0 14.37 L 12.97 14.77 L 12.94 15.17 L 12.89 15.56 L 12.84 15.96 L 12.78 16.35 L 12.71 16.74 L 12.63 17.13 L 12.54 17.52 L 12.44 17.91 L 12.34 18.3 L 12.23 18.68 L 12.1 19.06 L 11.97 19.43 L 11.83 19.81 L 11.69 20.18 L 11.53 20.55 L 11.37 20.91 L 11.2 21.27 L 11.02 21.63 L 10.83 21.98 L 10.64 22.33 L 10.44 22.67 L 10.23 23.01 L 10.01 23.34" fill="none" stroke="#111" stroke-width="1.24" stroke-linecap="round" stroke-linejoin="round"/>
<path d="M 13.0 14.37 L 13.37 14.83 L 13.71 15.32 L 14.0 15.84 L 14.25 16.38 L 14.46 16.93 L 14.62 17.5 L 14.74 18.09 L 14.81 18.68 L 14.83 19.27 L 14.8 19.86 L 14.73 20.45 L 14.61 21.03 L 14.44 21.6 L 14.23 22.16 L 13.97 22.69 L 13.68 23.21 L 13.34 23.69 L 12.96 24.15 L 12.55 24.58 L 12.1 24.97 L 11.63 25.33 L 11.13 25.65 L 10.6 25.92 L 10.05 26.15" fill="none" stroke="#111" stroke-width="1.24" stroke-linecap="round" stroke-linejoin="round"/>
<path d="M 12.0 20.37 L 12.04 20.45 L 12.08 20.54 L 12.12 20.62 L 12.17 20.7 L 12.21 20.79 L 12.25 20.87 L 12.29 20.95 L 12.33 21.04 L 12.38 21.12 L 12.42 21.2 L 12.46 21.29 L 12.5 21.37 L 12.54 21.45 L 12.58 21.54 L 12.62 21.62 L 12.67 21.7 L 12.71 21.79 L 12.75 21.87 L 12.79 21.95 L 12.83 22.04 L 12.88 22.12 L 12.92 22.2 L 12.96 22.29 L 13.0 22.37" fill="none" stroke="#111" stroke-width="1.24" stroke-linecap="round" stroke-linejoin="round"/>
<path d="M 9.0 25.37 L 9.0 25.58 L 9.0 25.79 L 9.0 26.0 L 9.0 26.2 L 9.0 26.41 L 9.0 26.62 L 9.0 26.83 L 9.0 27.04 L 9.0 27.25 L 9.0 27.45 L 9.0 27.66 L 9.0 27.87 L 9.0 28.08 L 9.0 28.29 L 9.0 28.5 L 9.0 28.7 L 9.0 28.91 L 9.0 29.12 L 9.0 29.33 L 9.0 29.54 L 9.0 29.75 L 9.0 29.95 L 9.0 30.16 L 9.0 30.37 L 9.0 30.37 L 9.25 30.55 L 9.51 30.71 L 9.77 30.86 L 10.05 30.99 L 10.33 31.11 L 10.62 31.22 L 10.91 31.31 L 11.21 31.38 L 11.51 31.44 L 11.81 31.48 L 12.11 31.5 L 12.42 31.51 L 12.73 31.5 L 13.03 31.48 L 13.33 31.44 L 13.63 31.38 L 13.93 31.31 L 14.22 31.22 L 14.51 31.11 L 14.79 30.99 L 15.06 30.86 L 15.33 30.71 L 15.59 30.55 L 15.84 30.37 L 16.0 30.37 L 16.0 30.08 L 16.0 29.79 L 16.0 29.5 L 16.0 29.2 L 16.0 28.91 L 16.0 28.62 L 16.0 28.33 L 16.0 28.04 L 16.0 27.75 L 16.0 27.45 L 16.0 27.16 L 16.0 26.87 L 16.0 26.58 L 16.0 26.29 L 16.0 26.0 L 16.0 25.7 L 16.0 25.41 L 16.0 25.12 L 16.0 24.83 L 16.0 24.54 L 16.0 24.25 L 16.0 23.95 L 16.0 23.66 L 16.0 23.37" fill="none" stroke="#111" stroke-width="1.24" stroke-linecap="round" stroke-linejoin="round"/>
<path d="M 9.0 27.37 L 9.29 27.37 L 9.58 27.37 L 9.88 27.37 L 10.17 27.37 L 10.46 27.37 L 10.75 27.37 L 11.04 27.37 L 11.33 27.37 L 11.62 27.37 L 11.92 27.37 L 12.21 27.37 L 12.5 27.37 L 12.79 27.37 L 13.08 27.37 L 13.38 27.37 L 13.67 27.37 L 13.96 27.37 L 14.25 27.37 L 14.54 27.37 L 14.83 27.37 L 15.12 27.37 L 15.42 27.37 L 15.71 27.37 L 16.0 27.37" fill="none" stroke="#111" stroke-width="1.24" stroke-linecap="round" stroke-linejoin="round"/>
</svg>
