<?xml version="1.0" encoding="UTF-8"?>
<svg xmlns="http://www.w3.org/2000/svg" viewBox="0 0 21.00 37.00">
<path d="M 6.0 9.0 L 6.0 9.21 L 6.0 9.42 L 6.0 9.62 L 6.0 9.83 L 6.0 10.04 L 6.0 10.25 L 6.0 10.46 L 6.0 10.67 L 6.0 10.88 L 6.0 11.08 L 6.0 11.29 L 6.0 11.5 L 6.0 11.71 L 6.0 11.92 L 6.0 12.12 L 6.0 12.33 L 6.0 12.54 L 6.0 12.75 L 6.0 12.96 L 6.0 13.17 L 6.0 13.38 L 6.0 13.58 L 6.0 13.79 L 6.0 14.0 L 6.0 14.0 L 6.32 14.28 L 6.66 14.53 L 7.02 14.74 L 7.41 14.92 L 7.81 15.07 L 8.21 15.17 L 8.63 15.24 L 9.06 15.27 L 9.48 15.26 L 9.9 15.2 L 10.31 15.11 L 10.71 14.98 L 11.1 14.82 L 11.47 14.61 L 11.83 14.38 L 12.15 14.11 L 12.45 13.81 L 12.72 13.48 L 12.96 13.13 L 13.17 12.76 L 13.34 12.38 L 13.47 11.97 L 13.57 11.56 L 13.62 11.14 L 14.0 11.0 L 13.88 10.92 L 13.75 10.83 L 13.62 10.75 L 13.5 10.67 L 13.38 10.58 L 13.25 10.5 L 13.12 10.42 L 13.0 10.33 L 12.88 10.25 L 12.75 10.17 L 12.62 10.08 L 12.5 10.0 L 12.38 9.92 L 12.25 9.83 L 12.12 9.75 L 12.0 9.67 L 11.88 9.58 L 11.75 9.5 L 11.62 9.42 L 11.5 9.33 L 11.38 9.25 L 11.25 9.17 L 11.12 9.08 L 11.0 9.0 L 11.0 9.0 L 10.79 9.0 L 10.58 9.0 L 10.38 9.0 L 10.17 9.0 L 9.96 9.0 L 9.75 9.0 L 9.54 9.0 L 9.33 9.0 L 9.12 9.0 L 8.92 9.0 L 8.71 9.0 L 8.5 9.0 L 8.29 9.0 L 8.08 9.0 L 7.88 9.0 L 7.67 9.0 L 7.46 9.0 L 7.25 9.0 L 7.04 9.0 L 6.83 9.0 L 6.62 9.0 L 6.42 9.0 L 6.21 9.0 L 6.0 9.0" fill="none" stroke="#111" stroke-width="1.30" stroke-linecap="round" stroke-linejoin="round"/>
<path d="M 9.0 11.0 L 9.08 11.0 L 9.17 11.0 L 9.25 11.0 L 9.33 11.0 L 9.42 11.0 L 9.5 11.0 L 9.58 11.0 L 9.67 11.0 L 9.75 11.0 L 9.83 11.0 L 9.92 11.0 L 10.0 11.0 L 10.08 11.0 L 10.17 11.0 L 10.25 11.0 L 10.33 11.0 L 10.42 11.0 L 10.5 11.0 L 10.58 11.0 L 10.67 11.0 L 10.75 11.0 L 10.83 11.0 L 10.92 11.0 L 11.0 11.0" fill="none" stroke="#111" stroke-width="1.30" stroke-linecap="round" stroke-linejoin="round"/>
<path d="M 4.0 7.0 L 4.08 7.08 L 4.17 7.17 L 4.25 7.25 L 4.33 7.33 L 4.42 7.42 L 4.5 7.5 L 4.58 7.58 L 4.67 7.67 L 4.75 7.75 L 4.83 7.83 L 4.92 7.92 L 5.0 8.0 L 5.08 8.08 L 5.17 8.17 L 5.25 8.25 L 5.33 8.33 L 5.42 8.42 L 5.5 8.5 L 5.58 8.58 L 5.67 8.67 L 5.75 8.75 L 5.83 8.83 L 5.92 8.92 L 6.0 9.0" fill="none" stroke="#111" stroke-width="1.30" stroke-linecap="round" stroke-linejoin="round"/>
<path d="M 10.0 4.0 L 10.0 4.21 L 10.0 4.42 L 10.0 4.62 L 10.0 4.83 L 10.0 5.04 L 10.0 5.25 L 10.0 5.46 L 10.0 5.67 L 10.0 5.88 L 10.0 6.08 L 10.0 6.29 L 10.0 6.5 L 10.0 6.71 L 10.0 6.92 L 10.0 7.12 L 10.0 7.33 L 10.0 7.54 L 10.0 7.75 L 10.0 7.96 L 10.0 8.17 L 10.0 8.38 L 10.0 8.58 L 10.0 8.79 L 10.0 9.0" fill="none" stroke="#111" stroke-width="1.30" stroke-linecap="round" stroke-linejoin="round"/>
<path d="M 14.0 11.0 L 14.12 10.88 L 14.25 10.75 L 14.38 10.62 L 14.5 10.5 L 14.62 10.38 L 14.75 10.25 L 14.88 10.12 L 15.0 10.0 L 15.12 9.88 L 15.25 9.75 L 15.38 9.62 L 15.5 9.5 L 15.62 9.38 L 15.75 9.25 L 15.88 9.12 L 16.0 9.0 L 16.12 8.88 L 16.25 8.75 L 16.38 8.62 L 16.5 8.5 L 16.62 8.38 L 16.75 8.25 L 16.88 8.12 L 17.0 8.0" fill="none" stroke="#111" stroke-width="1.30" stroke-linecap="round" stroke-linejoin="round"/>
<path d="M 10.0 14.0 L 10.0 14.79 L 10.0 15.58 L 10.0 16.38 L 10.0 17.17 L 10.0 17.96 L 10.0 18.75 L 10.0 19.54 L 10.0 20.33 L 10.0 21.12 L 10.0 21.92 L 10.0 22.71 L 10.0 23.5 L 10.0 24.29 L 10.0 25.08 L 10.0 25.88 L 10.0 26.67 L 10.0 27.46 L 10.0 28.25 L 10.0 29.04 L 10.0 29.83 L 10.0 30.62 L 10.0 31.42 L 10.0 32.21 L 10.0 33.0" fill="none" stroke="#111" stroke-width="1.30" stroke-linecap="round" stroke-linejoin="round"/>
<path d="M 6.0 17.0 L 6.17 17.25 L 6.33 17.5 L 6.5 17.75 L 6.67 18.0 L 6.83 18.25 L 7.0 18.5 L 7.17 18.75 L 7.33 19.0 L 7.5 19.25 L 7.67 19.5 L 7.83 19.75 L 8.0 20.0 L 8.17 20.25 L 8.33 20.5 L 8.5 20.75 L 8.67 21.0 L 8.83 21.25 L 9.0 21.5 L 9.17 21.75 L 9.33 22.0 L 9.5 22.25 L 9.67 22.5 L 9.83 22.75 L 10.0 23.0 L 10.0 23.0 L 10.25 22.71 L 10.5 22.42 L 10.75 22.12 L 11.0 21.83 L 11.25 21.54 L 11.5 21.25 L 11.75 20.96 L 12.0 20.67 L 12.25 20.38 L 12.5 20.08 L 12.75 19.79 L 13.0 19.5 L 13.25 19.21 L 13.5 18.92 L 13.75 18.62 L 14.0 18.33 L 14.25 18.04 L 14.5 17.75 L 14.75 17.46 L 15.0 17.17 L 15.25 16.88 L 15.5 16.58 L 15.75 16.29 L 16.0 16.0" fill="none" stroke="#111" stroke-width="1.30" stroke-linecap="round" stroke-linejoin="round"/>
<path d="M 4.0 31.0 L 4.25 30.67 L 4.5 30.33 L 4.75 30.0 L 5.0 29.67 L 5.25 29.33 L 5.5 29.0 L 5.75 28.67 L 6.0 28.33 L 6.25 28.0 L 6.5 27.67 L 6.75 27.33 L 7.0 27.0 L 7.25 26.67 L 7.5 26.33 L 7.75 26.0 L 8.0 25.67 L 8.25 25.33 L 8.5 25.0 L 8.75 24.67 L 9.0 24.33 L 9.25 24.0 L 9.5 23.67 L 9.75 23.33 L 10.0 23.0 L 10.0 23.0 L 10.25 23.29 L 10.5 23.58 L 10.75 23.88 L 11.0 24.17 L 11.25 24.46 L 11.5 24.75 L 11.75 25.04 L 12.0 25.33 L 12.25 25.62 L 12.5 25.92 L 12.75 26.21 L 13.0 26.5 L 13.25 26.79 L 13.5 27.08 L 13.75 27.38 L 14.0 27.67 L 14.25 27.96 L 14.5 28.25 L 14.75 28.54 L 15.0 28.83 L 15.25 29.12 L 15.5 29.42 L 15.75 29.71 L 16.0 30.0" fill="none" stroke="#111" stroke-width="1.30" stroke-linecap="round" stroke-linejoin="round"/>
</svg>
