<?xml version="1.0" encoding="UTF-8"?>
<svg xmlns="http://www.w3.org/2000/svg" viewBox="0 0 22.00 37.00">
<path d="M 4.0 15.0 L 4.58 15.0 L 5.17 15.0 L 5.75 15.0 L 6.33 15.0 L 6.92 15.0 L 7.5 15.0 L 8.08 15.0 L 8.67 15.0 L 9.25 15.0 L 9.83 15.0 L 10.42 15.0 L 11.0 15.0 L 11.58 15.0 L 12.17 15.0 L 12.75 15.0 L 13.33 15.0 L 13.92 15.0 L 14.5 15.0 L 15.08 15.0 L 15.67 15.0 L 16.25 15.0 L 16.83 15.0 L 17.42 15.0 L 18.0 15.0 L 18.0 15.0 L 18.0 15.38 L 18.0 15.75 L 18.0 16.12 L 18.0 16.5 L 18.0 16.88 L 18.0 17.25 L 18.0 17.62 L 18.0 18.0 L 18.0 18.38 L 18.0 18.75 L 18.0 19.12 L 18.0 19.5 L 18.0 19.88 L 18.0 20.25 L 18.0 20.62 L 18.0 21.0 L 18.0 21.38 L 18.0 21.75 L 18.0 22.12 L 18.0 22.5 L 18.0 22.88 L 18.0 23.25 L 18.0 23.62 L 18.0 24.0" fill="none" stroke="#111" stroke-width="1.30" stroke-linecap="round" stroke-linejoin="round"/>
<path d="M 4.0 15.0 L 4.0 15.42 L 4.0 15.83 L 4.0 16.25 L 4.0 16.67 L 4.0 17.08 L 4.0 17.5 L 4.0 17.92 L 4.0 18.33 L 4.0 18.75 L 4.0 19.17 L 4.0 19.58 L 4.0 20.0 L 4.0 20.42 L 4.0 20.83 L 4.0 21.25 L 4.0 21.67 L 4.0 22.08 L 4.0 22.5 L 4.0 22.92 L 4.0 23.33 L 4.0 23.75 L 4.0 24.17 L 4.0 24.58 L 4.0 25.0" fill="none" stroke="#111" stroke-width="1.30" stroke-linecap="round" stroke-linejoin="round"/>
<path d="M 11.0 4.0 L 10.75 4.25 L 10.5 4.5 L 10.25 4.75 L 10.0 5.0 L 9.75 5.25 L 9.5 5.5 L 9.25 5.75 L 9.0 6.0 L 8.75 6.25 L 8.5 6.5 L 8.25 6.75 L 8.0 7.0 L 7.75 7.25 L 7.5 7.5 L 7.25 7.75 L 7.0 8.0 L 6.75 8.25 L 6.5 8.5 L 6.25 8.75 L 6.0 9.0 L 5.75 9.25 L 5.5 9.5 L 5.25 9.75 L 5.0 10.0" fill="none" stroke="#111" stroke-width="1.30" stroke-linecap="round" stroke-linejoin="round"/>
<path d="M 11.0 4.0 L 11.29 4.25 L 11.58 4.5 L 11.88 4.75 L 12.17 5.0 L 12.46 5.25 L 12.75 5.5 L 13.04 5.75 L 13.33 6.0 L 13.62 6.25 L 13.92 6.5 L 14.21 6.75 L 14.5 7.0 L 14.79 7.25 L 15.08 7.5 L 15.38 7.75 L 15.67 8.0 L 15.96 8.25 L 16.25 8.5 L 16.54 8.75 L 16.83 9.0 L 17.12 9.25 L 17.42 9.5 L 17.71 9.75 L 18.0 10.0" fill="none" stroke="#111" stroke-width="1.30" stroke-linecap="round" stroke-linejoin="round"/>
<path d="M 7.0 7.0 L 7.0 7.33 L 7.0 7.67 L 7.0 8.0 L 7.0 8.33 L 7.0 8.67 L 7.0 9.0 L 7.0 9.33 L 7.0 9.67 L 7.0 10.0 L 7.0 10.33 L 7.0 10.67 L 7.0 11.0 L 7.0 11.33 L 7.0 11.67 L 7.0 12.0 L 7.0 12.33 L 7.0 12.67 L 7.0 13.0 L 7.0 13.33 L 7.0 13.67 L 7.0 14.0 L 7.0 14.33 L 7.0 14.67 L 7.0 15.0" fill="none" stroke="#111" stroke-width="1.30" stroke-linecap="round" stroke-linejoin="round"/>
<path d="M 14.0 7.0 L 14.0 7.33 L 14.0 7.67 L 14.0 8.0 L 14.0 8.33 L 14.0 8.67 L 14.0 9.0 L 14.0 9.33 L 14.0 9.67 L 14.0 10.0 L 14.0 10.33 L 14.0 10.67 L 14.0 11.0 L 14.0 11.33 L 14.0 11.67 L 14.0 12.0 L 14.0 12.33 L 14.0 12.67 L 14.0 13.0 L 14.0 13.33 L 14.0 13.67 L 14.0 14.0 L 14.0 14.33 L 14.0 14.67 L 14.0 15.0" fill="none" stroke="#111" stroke-width="1.30" stroke-linecap="round" stroke-linejoin="round"/>
<path d="M 7.0 8.0 L 7.29 8.0 L 7.58 8.0 L 7.88 8.0 L 8.17 8.0 L 8.46 8.0 L 8.75 8.0 L 9.04 8.0 L 9.33 8.0 L 9.62 8.0 L 9.92 8.0 L 10.21 8.0 L 10.5 8.0 L 10.79 8.0 L 11.08 8.0 L 11.38 8.0 L 11.67 8.0 L 11.96 8.0 L 12.25 8.0 L 12.54 8.0 L 12.83 8.0 L 13.12 8.0 L 13.42 8.0 L 13.71 8.0 L 14.0 8.0" fill="none" stroke="#111" stroke-width="1.30" stroke-linecap="round" stroke-linejoin="round"/>
<path d="M 7.0 11.0 L 7.29 11.0 L 7.58 11.0 L 7.88 11.0 L 8.17 11.0 L 8.46 11.0 L 8.75 11.0 L 9.04 11.0 L 9.33 11.0 L 9.62 11.0 L 9.92 11.0 L 10.21 11.0 L 10.5 11.0 L 10.79 11.0 L 11.08 11.0 L 11.38 11.0 L 11.67 11.0 L 11.96 11.0 L 12.25 11.0 L 12.54 11.0 L 12.83 11.0 L 13.12 11.0 L 13.42 11.0 L 13.71 11.0 L 14.0 11.0" fill="none" stroke="#111" stroke-width="1.30" stroke-linecap="round" stroke-linejoin="round"/>
<path d="M 8.0 18.0 L 8.0 18.54 L 8.0 19.08 L 8.0 19.62 L 8.0 20.17 L 8.0 20.71 L 8.0 21.25 L 8.0 21.79 L 8.0 22.33 L 8.0 22.88 L 8.0 23.42 L 8.0 23.96 L 8.0 24.5 L 8.0 25.04 L 8.0 25.58 L 8.0 26.12 L 8.0 26.67 L 8.0 27.21 L 8.0 27.75 L 8.0 28.29 L 8.0 28.83 L 8.0 29.38 L 8.0 29.92 L 8.0 30.46 L 8.0 31.0" fill="none" stroke="#111" stroke-width="1.30" stroke-linecap="round" stroke-linejoin="round"/>
<path d="M 6.0 19.0 L 6.08 19.17 L 6.17 19.33 L 6.25 19.5 L 6.33 19.67 L 6.42 19.83 L 6.5 20.0 L 6.58 20.17 L 6.67 20.33 L 6.75 20.5 L 6.83 20.67 L 6.92 20.83 L 7.0 21.0 L 7.08 21.17 L 7.17 21.33 L 7.25 21.5 L 7.33 21.67 L 7.42 21.83 L 7.5 22.0 L 7.58 22.17 L 7.67 22.33 L 7.75 22.5 L 7.83 22.67 L 7.92 22.83 L 8.0 23.0 L 8.0 23.0 L 8.08 22.83 L 8.17 22.67 L 8.25 22.5 L 8.33 22.33 L 8.42 22.17 L 8.5 22.0 L 8.58 21.83 L 8.67 21.67 L 8.75 21.5 L 8.83 21.33 L 8.92 21.17 L 9.0 21.0 L 9.08 20.83 L 9.17 20.67 L 9.25 20.5 L 9.33 20.33 L 9.42 20.17 L 9.5 20.0 L 9.58 19.83 L 9.67 19.67 L 9.75 19.5 L 9.83 19.33 L 9.92 19.17 L 10.0 19.0" fill="none" stroke="#111" stroke-width="1.30" stroke-linecap="round" stroke-linejoin="round"/>
<path d="M 4.0 30.0 L 4.17 29.83 L 4.33 29.67 L 4.5 29.5 L 4.67 29.33 L 4.83 29.17 L 5.0 29.0 L 5.17 28.83 L 5.33 28.67 L 5.5 28.5 L 5.67 28.33 L 5.83 28.17 L 6.0 28.0 L 6.17 27.83 L 6.33 27.67 L 6.5 27.5 L 6.67 27.33 L 6.83 27.17 L 7.0 27.0 L 7.17 26.83 L 7.33 26.67 L 7.5 26.5 L 7.67 26.33 L 7.83 26.17 L 8.0 26.0 L 8.0 26.0 L 8.08 26.12 L 8.17 26.25 L 8.25 26.38 L 8.33 26.5 L 8.42 26.62 L 8.5 26.75 L 8.58 26.88 L 8.67 27.0 L 8.75 27.12 L 8.83 27.25 L 8.92 27.38 L 9.0 27.5 L 9.08 27.62 L 9.17 27.75 L 9.25 27.88 L 9.33 28.0 L 9.42 28.12 L 9.5 28.25 L 9.58 28.38 L 9.67 28.5 L 9.75 28.62 L 9.83 28.75 L 9.92 28.88 L 10.0 29.0" fill="none" stroke="#111" stroke-width="1.30" stroke-linecap="round" stroke-linejoin="round"/>
<path d="M 13.0 18.0 L 13.04 18.62 L 13.08 19.25 L 13.12 19.88 L 13.17 20.5 L 13.21 21.12 L 13.25 21.75 L 13.29 22.38 L 13.33 23.0 L 13.38 23.62 L 13.42 24.25 L 13.46 24.88 L 13.5 25.5 L 13.54 26.12 L 13.58 26.75 L 13.62 27.38 L 13.67 28.0 L 13.71 28.62 L 13.75 29.25 L 13.79 29.88 L 13.83 30.5 L 13.88 31.12 L 13.92 31.75 L 13.96 32.38 L 14.0 33.0" fill="none" stroke="#111" stroke-width="1.30" stroke-linecap="round" stroke-linejoin="round"/>
<path d="M 12.0 20.0 L 12.04 20.12 L 12.08 20.25 L 12.12 20.38 L 12.17 20.5 L 12.21 20.62 L 12.25 20.75 L 12.29 20.88 L 12.33 21.0 L 12.38 21.12 L 12.42 21.25 L 12.46 21.38 L 12.5 21.5 L 12.54 21.62 L 12.58 21.75 L 12.62 21.88 L 12.67 22.0 L 12.71 22.12 L 12.75 22.25 L 12.79 22.38 L 12.83 22.5 L 12.88 22.62 L 12.92 22.75 L 12.96 22.88 L 13.0 23.0 L 13.0 23.0 L 13.12 22.83 L 13.25 22.67 L 13.38 22.5 L 13.5 22.33 L 13.62 22.17 L 13.75 22.0 L 13.88 21.83 L 14.0 21.67 L 14.12 21.5 L 14.25 21.33 L 14.38 21.17 L 14.5 21.0 L 14.62 20.83 L 14.75 20.67 L 14.88 20.5 L 15.0 20.33 L 15.12 20.17 L 15.25 20.0 L 15.38 19.83 L 15.5 19.67 L 15.62 19.5 L 15.75 19.33 L 15.88 19.17 L 16.0 19.0" fill="none" stroke="#111" stroke-width="1.30" stroke-linecap="round" stroke-linejoin="round"/>
<path d="M 11.0 29.0 L 11.08 28.79 L 11.17 28.58 L 11.25 28.38 L 11.33 28.17 L 11.42 27.96 L 11.5 27.75 L 11.58 27.54 L 11.67 27.33 L 11.75 27.12 L 11.83 26.92 L 11.92 26.71 L 12.0 26.5 L 12.08 26.29 L 12.17 26.08 L 12.25 25.88 L 12.33 25.67 L 12.42 25.46 L 12.5 25.25 L 12.58 25.04 L 12.67 24.83 L 12.75 24.62 L 12.83 24.42 L 12.92 24.21 L 13.0 24.0 L 13.0 24.0 L 13.17 24.21 L 13.33 24.42 L 13.5 24.62 L 13.67 24.83 L 13.83 25.04 L 14.0 25.25 L 14.17 25.46 L 14.33 25.67 L 14.5 25.88 L 14.67 26.08 L 14.83 26.29 L 15.0 26.5 L 15.17 26.71 L 15.33 26.92 L 15.5 27.12 L 15.67 27.33 L 15.83 27.54 L 16.0 27.75 L 16.17 27.96 L 16.33 28.17 L 16.5 28.38 L 16.67 28.58 L 16.83 28.79 L 17.0 29.0" fill="none" stroke="#111" stroke-width="1.30" stroke-linecap="round" stroke-linejoin="round"/>
</svg>
