<?xml version="1.0" encoding="UTF-8"?>
<svg xmlns="http://www.w3.org/2000/svg" viewBox="0 0 22.28 36.27">
<path d="M 12.0 5.0 L 12.0 5.83 L 12.0 6.67 L 12.0 7.5 L 12.0 8.33 L 12.0 9.17 L 12.0 10.0 L 12.0 10.83 L 12.0 11.67 L 12.0 12.5 L 12.0 13.33 L 12.0 14.17 L 12.0 15.0 L 12.0 15.83 L 12.0 16.67 L 12.0 17.5 L 12.0 18.33 L 12.0 19.17 L 12.0 20.0 L 12.0 20.83 L 12.0 21.67 L 12.0 22.5 L 12.0 23.33 L 12.0 24.17 L 12.0 25.0" fill="none" stroke="#111" stroke-width="1.27" stroke-linecap="round" stroke-linejoin="round"/>
<path d="M 6.0 5.0 L 5.63 5.52 L 5.32 6.08 L 5.06 6.66 L 4.86 7.27 L 4.71 7.89 L 4.63 8.52 L 4.61 9.16 L 4.65 9.8 L 4.75 10.43 L 4.92 11.04 L 5.14 11.64 L 5.42 12.22 L 5.75 12.76 L 6.13 13.27 L 6.56 13.74 L 7.04 14.17 L 7.55 14.55 L 8.1 14.88 L 8.67 15.15 L 9.27 15.37 L 9.89 15.52 L 10.52 15.62 L 11.16 15.66 L 11.8 15.63" fill="none" stroke="#111" stroke-width="1.27" stroke-linecap="round" stroke-linejoin="round"/>
<path d="M 17.0 4.0 L 17.32 4.53 L 17.59 5.08 L 17.82 5.66 L 18.0 6.25 L 18.14 6.85 L 18.22 7.46 L 18.25 8.08 L 18.24 8.7 L 18.17 9.31 L 18.05 9.92 L 17.89 10.51 L 17.67 11.09 L 17.41 11.65 L 17.1 12.19 L 16.76 12.7 L 16.37 13.18 L 15.94 13.63 L 15.48 14.04 L 14.99 14.41 L 14.47 14.74 L 13.92 15.03 L 13.35 15.27 L 12.76 15.46 L 12.16 15.61" fill="none" stroke="#111" stroke-width="1.27" stroke-linecap="round" stroke-linejoin="round"/>
<path d="M 7.0 20.0 L 7.38 20.0 L 7.75 20.0 L 8.12 20.0 L 8.5 20.0 L 8.88 20.0 L 9.25 20.0 L 9.62 20.0 L 10.0 20.0 L 10.38 20.0 L 10.75 20.0 L 11.12 20.0 L 11.5 20.0 L 11.88 20.0 L 12.25 20.0 L 12.62 20.0 L 13.0 20.0 L 13.38 20.0 L 13.75 20.0 L 14.12 20.0 L 14.5 20.0 L 14.88 20.0 L 15.25 20.0 L 15.62 20.0 L 16.0 20.0" fill="none" stroke="#111" stroke-width="1.27" stroke-linecap="round" stroke-linejoin="round"/>
<path d="M 5.0 25.0 L 5.5 25.0 L 6.0 25.0 L 6.5 25.0 L 7.0 25.0 L 7.5 25.0 L 8.0 25.0 L 8.5 25.0 L 9.0 25.0 L 9.5 25.0 L 10.0 25.0 L 10.5 25.0 L 11.0 25.0 L 11.5 25.0 L 12.0 25.0 L 12.5 25.0 L 13.0 25.0 L 13.5 25.0 L 14.0 25.0 L 14.5 25.0 L 15.0 25.0 L 15.5 25.0 L 16.0 25.0 L 16.5 25.0 L 17.0 25.0" fill="none" stroke="#111" stroke-width="1.27" stroke-linecap="round" stroke-linejoin="round"/>
<path d="M 4.0 22.0 L 4.08 22.38 L 4.17 22.75 L 4.25 23.12 L 4.33 23.5 L 4.42 23.88 L 4.5 24.25 L 4.58 24.62 L 4.67 25.0 L 4.75 25.38 L 4.83 25.75 L 4.92 26.12 L 5.0 26.5 L 5.08 26.88 L 5.17 27.25 L 5.25 27.62 L 5.33 28.0 L 5.42 28.38 L 5.5 28.75 L 5.58 29.12 L 5.67 29.5 L 5.75 29.88 L 5.83 30.25 L 5.92 30.62 L 6.0 31.0 L 6.0 31.0 L 6.73 31.42 L 7.5 31.76 L 8.3 32.01 L 9.12 32.18 L 9.96 32.27 L 10.8 32.26 L 11.64 32.16 L 12.46 31.98 L 13.26 31.71 L 14.02 31.36 L 14.74 30.93 L 15.42 30.43 L 16.04 29.86 L 16.59 29.22 L 17.07 28.53 L 17.48 27.8 L 17.81 27.02 L 18.05 26.22 L 18.21 25.39 L 18.28 24.55 L 18.26 23.71 L 18.15 22.88 L 17.96 22.06 L 17.68 21.27" fill="none" stroke="#111" stroke-width="1.27" stroke-linecap="round" stroke-linejoin="round"/>
</svg>
