<?xml version="1.0" encoding="UTF-8"?>
<svg xmlns="http://www.w3.org/2000/svg" viewBox="0 0 22.00 38.88">
<path d="M 5.0 4.0 L 5.54 4.0 L 6.08 4.0 L 6.62 4.0 L 7.17 4.0 L 7.71 4.0 L 8.25 4.0 L 8.79 4.0 L 9.33 4.0 L 9.88 4.0 L 10.42 4.0 L 10.96 4.0 L 11.5 4.0 L 12.04 4.0 L 12.58 4.0 L 13.12 4.0 L 13.67 4.0 L 14.21 4.0 L 14.75 4.0 L 15.29 4.0 L 15.83 4.0 L 16.38 4.0 L 16.92 4.0 L 17.46 4.0 L 18.0 4.0" fill="none" stroke="#111" stroke-width="1.36" stroke-linecap="round" stroke-linejoin="round"/>
<path d="M 8.0 4.0 L 8.12 4.29 L 8.25 4.58 L 8.38 4.88 L 8.5 5.17 L 8.62 5.46 L 8.75 5.75 L 8.88 6.04 L 9.0 6.33 L 9.12 6.62 L 9.25 6.92 L 9.38 7.21 L 9.5 7.5 L 9.62 7.79 L 9.75 8.08 L 9.88 8.38 L 10.0 8.67 L 10.12 8.96 L 10.25 9.25 L 10.38 9.54 L 10.5 9.83 L 10.62 10.12 L 10.75 10.42 L 10.88 10.71 L 11.0 11.0" fill="none" stroke="#111" stroke-width="1.36" stroke-linecap="round" stroke-linejoin="round"/>
<path d="M 14.0 4.0 L 13.88 4.29 L 13.75 4.58 L 13.62 4.88 L 13.5 5.17 L 13.38 5.46 L 13.25 5.75 L 13.12 6.04 L 13.0 6.33 L 12.88 6.62 L 12.75 6.92 L 12.62 7.21 L 12.5 7.5 L 12.38 7.79 L 12.25 8.08 L 12.12 8.38 L 12.0 8.67 L 11.88 8.96 L 11.75 9.25 L 11.62 9.54 L 11.5 9.83 L 11.38 10.12 L 11.25 10.42 L 11.12 10.71 L 11.0 11.0" fill="none" stroke="#111" stroke-width="1.36" stroke-linecap="round" stroke-linejoin="round"/>
<path d="M 4.0 12.0 L 4.5 12.0 L 5.0 12.0 L 5.5 12.0 L 6.0 12.0 L 6.5 12.0 L 7.0 12.0 L 7.5 12.0 L 8.0 12.0 L 8.5 12.0 L 9.0 12.0 L 9.5 12.0 L 10.0 12.0 L 10.5 12.0 L 11.0 12.0 L 11.5 12.0 L 12.0 12.0 L 12.5 12.0 L 13.0 12.0 L 13.5 12.0 L 14.0 12.0 L 14.5 12.0 L 15.0 12.0 L 15.5 12.0 L 16.0 12.0" fill="none" stroke="#111" stroke-width="1.36" stroke-linecap="round" stroke-linejoin="round"/>
<path d="M 11.0 11.0 L 10.92 11.33 L 10.83 11.67 L 10.75 12.0 L 10.67 12.33 L 10.58 12.67 L 10.5 13.0 L 10.42 13.33 L 10.33 13.67 L 10.25 14.0 L 10.17 14.33 L 10.08 14.67 L 10.0 15.0 L 9.92 15.33 L 9.83 15.67 L 9.75 16.0 L 9.67 16.33 L 9.58 16.67 L 9.5 17.0 L 9.42 17.33 L 9.33 17.67 L 9.25 18.0 L 9.17 18.33 L 9.08 18.67 L 9.0 19.0" fill="none" stroke="#111" stroke-width="1.36" stroke-linecap="round" stroke-linejoin="round"/>
<path d="M 9.0 19.0 L 9.38 18.88 L 9.75 18.75 L 10.12 18.62 L 10.5 18.5 L 10.88 18.38 L 11.25 18.25 L 11.62 18.12 L 12.0 18.0 L 12.38 17.88 L 12.75 17.75 L 13.12 17.62 L 13.5 17.5 L 13.88 17.38 L 14.25 17.25 L 14.62 17.12 L 15.0 17.0 L 15.38 16.88 L 15.75 16.75 L 16.12 16.62 L 16.5 16.5 L 16.88 16.38 L 17.25 16.25 L 17.62 16.12 L 18.0 16.0 L 18.0 16.0 L 17.92 16.38 L 17.83 16.75 L 17.75 17.12 L 17.67 17.5 L 17.58 17.88 L 17.5 18.25 L 17.42 18.62 L 17.33 19.0 L 17.25 19.38 L 17.17 19.75 L 17.08 20.12 L 17.0 20.5 L 16.92 20.88 L 16.83 21.25 L 16.75 21.62 L 16.67 22.0 L 16.58 22.38 L 16.5 22.75 L 16.42 23.12 L 16.33 23.5 L 16.25 23.88 L 16.17 24.25 L 16.08 24.62 L 16.0 25.0 L 16.0 25.0 L 16.19 25.39 L 16.36 25.8 L 16.51 26.21 L 16.64 26.62 L 16.75 27.05 L 16.84 27.47 L 16.91 27.9 L 16.96 28.34 L 16.99 28.77 L 17.0 29.21 L 16.99 29.65 L 16.95 30.08 L 16.9 30.52 L 16.82 30.95 L 16.73 31.37 L 16.62 31.79 L 16.48 32.21 L 16.33 32.62 L 16.15 33.02 L 15.96 33.41 L 15.75 33.79 L 15.52 34.17 L 15.28 34.53 L 15.01 34.88" fill="none" stroke="#111" stroke-width="1.36" stroke-linecap="round" stroke-linejoin="round"/>
<path d="M 8.0 24.0 L 7.76 24.29 L 7.54 24.61 L 7.36 24.95 L 7.21 25.3 L 7.1 25.66 L 7.01 26.03 L 6.97 26.41 L 6.96 26.79 L 6.99 27.17 L 7.05 27.55 L 7.15 27.92 L 7.28 28.28 L 7.45 28.62 L 7.65 28.95 L 7.88 29.25 L 8.14 29.53 L 8.42 29.79 L 8.72 30.02 L 9.05 30.22 L 9.39 30.39 L 9.75 30.52 L 10.12 30.62 L 10.49 30.68 L 10.88 30.71 L 11.0 31.0 L 11.08 30.96 L 11.17 30.92 L 11.25 30.88 L 11.33 30.83 L 11.42 30.79 L 11.5 30.75 L 11.58 30.71 L 11.67 30.67 L 11.75 30.62 L 11.83 30.58 L 11.92 30.54 L 12.0 30.5 L 12.08 30.46 L 12.17 30.42 L 12.25 30.38 L 12.33 30.33 L 12.42 30.29 L 12.5 30.25 L 12.58 30.21 L 12.67 30.17 L 12.75 30.12 L 12.83 30.08 L 12.92 30.04 L 13.0 30.0" fill="none" stroke="#111" stroke-width="1.36" stroke-linecap="round" stroke-linejoin="round"/>
<path d="M 13.0 23.0 L 13.0 23.25 L 13.0 23.5 L 13.0 23.75 L 13.0 24.0 L 13.0 24.25 L 13.0 24.5 L 13.0 24.75 L 13.0 25.0 L 13.0 25.25 L 13.0 25.5 L 13.0 25.75 L 13.0 26.0 L 13.0 26.25 L 13.0 26.5 L 13.0 26.75 L 13.0 27.0 L 13.0 27.25 L 13.0 27.5 L 13.0 27.75 L 13.0 28.0 L 13.0 28.25 L 13.0 28.5 L 13.0 28.75 L 13.0 29.0" fill="none" stroke="#111" stroke-width="1.36" stroke-linecap="round" stroke-linejoin="round"/>
<path d="M 8.0 26.0 L 8.21 26.0 L 8.42 26.0 L 8.62 26.0 L 8.83 26.0 L 9.04 26.0 L 9.25 26.0 L 9.46 26.0 L 9.67 26.0 L 9.88 26.0 L 10.08 26.0 L 10.29 26.0 L 10.5 26.0 L 10.71 26.0 L 10.92 26.0 L 11.12 26.0 L 11.33 26.0 L 11.54 26.0 L 11.75 26.0 L 11.96 26.0 L 12.17 26.0 L 12.38 26.0 L 12.58 26.0 L 12.79 26.0 L 13.0 26.0" fill="none" stroke="#111" stroke-width="1.36" stroke-linecap="round" stroke-linejoin="round"/>
</svg>
