<?xml version="1.0" encoding="UTF-8"?>
<svg xmlns="http://www.w3.org/2000/svg" viewBox="0 0 21.00 35.00">
<path d="M 13.0 4.0 L 12.62 4.0 L 12.25 4.0 L 11.88 4.0 L 11.5 4.0 L 11.12 4.0 L 10.75 4.0 L 10.38 4.0 L 10.0 4.0 L 9.62 4.0 L 9.25 4.0 L 8.88 4.0 L 8.5 4.0 L 8.12 4.0 L 7.75 4.0 L 7.38 4.0 L 7.0 4.0 L 6.62 4.0 L 6.25 4.0 L 5.88 4.0 L 5.5 4.0 L 5.12 4.0 L 4.75 4.0 L 4.38 4.0 L 4.0 4.0 L 4.0 4.0 L 4.0 4.38 L 4.0 4.75 L 4.0 5.12 L 4.0 5.5 L 4.0 5.88 L 4.0 6.25 L 4.0 6.62 L 4.0 7.0 L 4.0 7.38 L 4.0 7.75 L 4.0 8.12 L 4.0 8.5 L 4.0 8.88 L 4.0 9.25 L 4.0 9.62 L 4.0 10.0 L 4.0 10.38 L 4.0 10.75 L 4.0 11.12 L 4.0 11.5 L 4.0 11.88 L 4.0 12.25 L 4.0 12.62 L 4.0 13.0" fill="none" stroke="#111" stroke-width="1.23" stroke-linecap="round" stroke-linejoin="round"/>
<path d="M 13.0 4.0 L 13.0 4.33 L 13.0 4.67 L 13.0 5.0 L 13.0 5.33 L 13.0 5.67 L 13.0 6.0 L 13.0 6.33 L 13.0 6.67 L 13.0 7.0 L 13.0 7.33 L 13.0 7.67 L 13.0 8.0 L 13.0 8.33 L 13.0 8.67 L 13.0 9.0 L 13.0 9.33 L 13.0 9.67 L 13.0 10.0 L 13.0 10.33 L 13.0 10.67 L 13.0 11.0 L 13.0 11.33 L 13.0 11.67 L 13.0 12.0" fill="none" stroke="#111" stroke-width="1.23" stroke-linecap="round" stroke-linejoin="round"/>
<path d="M 8.0 5.0 L 7.88 5.12 L 7.75 5.25 L 7.62 5.38 L 7.5 5.5 L 7.38 5.62 L 7.25 5.75 L 7.12 5.88 L 7.0 6.0 L 6.88 6.12 L 6.75 6.25 L 6.62 6.38 L 6.5 6.5 L 6.38 6.62 L 6.25 6.75 L 6.12 6.88 L 6.0 7.0 L 5.88 7.12 L 5.75 7.25 L 5.62 7.38 L 5.5 7.5 L 5.38 7.62 L 5.25 7.75 L 5.12 7.88 L 5.0 8.0" fill="none" stroke="#111" stroke-width="1.23" stroke-linecap="round" stroke-linejoin="round"/>
<path d="M 9.0 5.0 L 9.17 5.12 L 9.33 5.25 L 9.5 5.38 L 9.67 5.5 L 9.83 5.62 L 10.0 5.75 L 10.17 5.88 L 10.33 6.0 L 10.5 6.12 L 10.67 6.25 L 10.83 6.38 L 11.0 6.5 L 11.17 6.62 L 11.33 6.75 L 11.5 6.88 L 11.67 7.0 L 11.83 7.12 L 12.0 7.25 L 12.17 7.38 L 12.33 7.5 L 12.5 7.62 L 12.67 7.75 L 12.83 7.88 L 13.0 8.0" fill="none" stroke="#111" stroke-width="1.23" stroke-linecap="round" stroke-linejoin="round"/>
<path d="M 15.0 16.0 L 14.71 15.75 L 14.42 15.5 L 14.12 15.25 L 13.83 15.0 L 13.54 14.75 L 13.25 14.5 L 12.96 14.25 L 12.67 14.0 L 12.38 13.75 L 12.08 13.5 L 11.79 13.25 L 11.5 13.0 L 11.21 12.75 L 10.92 12.5 L 10.62 12.25 L 10.33 12.0 L 10.04 11.75 L 9.75 11.5 L 9.46 11.25 L 9.17 11.0 L 8.88 10.75 L 8.58 10.5 L 8.29 10.25 L 8.0 10.0 L 8.0 10.0 L 8.4 10.57 L 8.78 11.16 L 9.14 11.76 L 9.48 12.37 L 9.81 12.99 L 10.11 13.62 L 10.39 14.25 L 10.66 14.9 L 10.9 15.56 L 11.12 16.22 L 11.32 16.89 L 11.5 17.56 L 11.66 18.24 L 11.8 18.93 L 11.92 19.62 L 12.01 20.31 L 12.08 21.01 L 12.13 21.7 L 12.16 22.4 L 12.17 23.1 L 12.15 23.8 L 12.11 24.5 L 12.05 25.19 L 11.97 25.89" fill="none" stroke="#111" stroke-width="1.23" stroke-linecap="round" stroke-linejoin="round"/>
<path d="M 15.0 21.0 L 15.22 21.34 L 15.42 21.7 L 15.58 22.07 L 15.72 22.45 L 15.82 22.85 L 15.89 23.25 L 15.93 23.66 L 15.93 24.06 L 15.9 24.47 L 15.84 24.87 L 15.75 25.27 L 15.62 25.66 L 15.46 26.03 L 15.27 26.39 L 15.05 26.74 L 14.81 27.06 L 14.54 27.37 L 14.24 27.65 L 13.93 27.9 L 13.59 28.13 L 13.24 28.33 L 12.87 28.51 L 12.48 28.65 L 12.09 28.76" fill="none" stroke="#111" stroke-width="1.23" stroke-linecap="round" stroke-linejoin="round"/>
<path d="M 13.0 24.0 L 13.17 24.29 L 13.33 24.58 L 13.5 24.88 L 13.67 25.17 L 13.83 25.46 L 14.0 25.75 L 14.17 26.04 L 14.33 26.33 L 14.5 26.62 L 14.67 26.92 L 14.83 27.21 L 15.0 27.5 L 15.17 27.79 L 15.33 28.08 L 15.5 28.38 L 15.67 28.67 L 15.83 28.96 L 16.0 29.25 L 16.17 29.54 L 16.33 29.83 L 16.5 30.12 L 16.67 30.42 L 16.83 30.71 L 17.0 31.0" fill="none" stroke="#111" stroke-width="1.23" stroke-linecap="round" stroke-linejoin="round"/>
</svg>
