<?xml version="1.0" encoding="UTF-8"?>
<svg xmlns="http://www.w3.org/2000/svg" viewBox="0 0 19.76 32.86">
<path d="M 4.0 15.0 L 4.25 14.54 L 4.5 14.08 L 4.75 13.62 L 5.0 13.17 L 5.25 12.71 L 5.5 12.25 L 5.75 11.79 L 6.0 11.33 L 6.25 10.88 L 6.5 10.42 L 6.75 9.96 L 7.0 9.5 L 7.25 9.04 L 7.5 8.58 L 7.75 8.12 L 8.0 7.67 L 8.25 7.21 L 8.5 6.75 L 8.75 6.29 L 9.0 5.83 L 9.25 5.38 L 9.5 4.92 L 9.75 4.46 L 10.0 4.0 L 10.0 4.0 L 10.39 4.66 L 10.75 5.34 L 11.05 6.04 L 11.32 6.76 L 11.54 7.49 L 11.71 8.24 L 11.84 8.99 L 11.92 9.75 L 11.95 10.52 L 11.94 11.28 L 11.88 12.05 L 11.77 12.81 L 11.61 13.56 L 11.41 14.29 L 11.16 15.02 L 10.87 15.73 L 10.53 16.41 L 10.15 17.08 L 9.73 17.72 L 9.28 18.34 L 8.78 18.92 L 8.25 19.47 L 7.69 19.99 L 7.09 20.47" fill="none" stroke="#111" stroke-width="1.15" stroke-linecap="round" stroke-linejoin="round"/>
<path d="M 7.0 9.0 L 7.8 9.13 L 8.58 9.33 L 9.33 9.61 L 10.06 9.97 L 10.74 10.4 L 11.38 10.89 L 11.97 11.44 L 12.49 12.05 L 12.96 12.72 L 13.35 13.42 L 13.68 14.16 L 13.92 14.93 L 14.09 15.72 L 14.18 16.52 L 14.19 17.33 L 14.11 18.13 L 13.96 18.92 L 13.73 19.69 L 13.42 20.44 L 13.04 21.15 L 12.59 21.82 L 12.07 22.44 L 11.5 23.01 L 10.87 23.51" fill="none" stroke="#111" stroke-width="1.15" stroke-linecap="round" stroke-linejoin="round"/>
<path d="M 5.0 21.0 L 4.71 21.83 L 4.56 22.7 L 4.54 23.58 L 4.66 24.45 L 4.92 25.29 L 5.3 26.09 L 5.8 26.81 L 6.41 27.44 L 7.11 27.98 L 7.89 28.39 L 8.72 28.68 L 9.59 28.84 L 10.47 28.86 L 11.34 28.74 L 12.18 28.48 L 12.98 28.1 L 13.7 27.6 L 14.34 26.99 L 14.87 26.29 L 15.29 25.51 L 15.58 24.68 L 15.74 23.82 L 15.76 22.94 L 15.64 22.06" fill="none" stroke="#111" stroke-width="1.15" stroke-linecap="round" stroke-linejoin="round"/>
<path d="M 6.0 25.0 L 6.33 25.0 L 6.67 25.0 L 7.0 25.0 L 7.33 25.0 L 7.67 25.0 L 8.0 25.0 L 8.33 25.0 L 8.67 25.0 L 9.0 25.0 L 9.33 25.0 L 9.67 25.0 L 10.0 25.0 L 10.33 25.0 L 10.67 25.0 L 11.0 25.0 L 11.33 25.0 L 11.67 25.0 L 12.0 25.0 L 12.33 25.0 L 12.67 25.0 L 13.0 25.0 L 13.33 25.0 L 13.67 25.0 L 14.0 25.0" fill="none" stroke="#111" stroke-width="1.15" stroke-linecap="round" stroke-linejoin="round"/>
</svg>
