<?xml version="1.0" encoding="UTF-8"?>
<svg xmlns="http://www.w3.org/2000/svg" viewBox="0 0 24.28 32.00">
<path d="M 12.28 4.0 L 11.46 4.77 L 10.69 5.6 L 9.99 6.48 L 9.35 7.41 L 8.79 8.39 L 8.3 9.41 L 7.89 10.46 L 7.56 11.54 L 7.31 12.64 L 7.15 13.75 L 7.07 14.88 L 7.07 16.01 L 7.16 17.13 L 7.34 18.25 L 7.59 19.34 L 7.93 20.42 L 8.35 21.47 L 8.85 22.48 L 9.42 23.46 L 10.06 24.38 L 10.77 25.26 L 11.54 26.08 L 12.37 26.84 L 13.26 27.54" fill="none" stroke="#111" stroke-width="1.12" stroke-linecap="round" stroke-linejoin="round"/>
<path d="M 8.28 12.0 L 7.86 11.85 L 7.43 11.77 L 6.99 11.75 L 6.55 11.8 L 6.12 11.9 L 5.71 12.07 L 5.32 12.29 L 4.98 12.57 L 4.68 12.9 L 4.42 13.26 L 4.23 13.66 L 4.09 14.08 L 4.01 14.51 L 4.0 14.96 L 4.05 15.4 L 4.17 15.82 L 4.34 16.23 L 4.57 16.61 L 4.85 16.95 L 5.18 17.25 L 5.55 17.49 L 5.95 17.68 L 6.37 17.81 L 6.81 17.88" fill="none" stroke="#111" stroke-width="1.12" stroke-linecap="round" stroke-linejoin="round"/>
<path d="M 13.28 9.0 L 13.57 9.17 L 13.87 9.33 L 14.16 9.5 L 14.45 9.67 L 14.74 9.83 L 15.03 10.0 L 15.32 10.17 L 15.62 10.33 L 15.91 10.5 L 16.2 10.67 L 16.49 10.83 L 16.78 11.0 L 17.07 11.17 L 17.37 11.33 L 17.66 11.5 L 17.95 11.67 L 18.24 11.83 L 18.53 12.0 L 18.82 12.17 L 19.12 12.33 L 19.41 12.5 L 19.7 12.67 L 19.99 12.83 L 20.28 13.0" fill="none" stroke="#111" stroke-width="1.12" stroke-linecap="round" stroke-linejoin="round"/>
<path d="M 17.28 11.0 L 17.07 11.5 L 16.87 12.0 L 16.66 12.5 L 16.45 13.0 L 16.24 13.5 L 16.03 14.0 L 15.82 14.5 L 15.62 15.0 L 15.41 15.5 L 15.2 16.0 L 14.99 16.5 L 14.78 17.0 L 14.57 17.5 L 14.37 18.0 L 14.16 18.5 L 13.95 19.0 L 13.74 19.5 L 13.53 20.0 L 13.32 20.5 L 13.12 21.0 L 12.91 21.5 L 12.7 22.0 L 12.49 22.5 L 12.28 23.0" fill="none" stroke="#111" stroke-width="1.12" stroke-linecap="round" stroke-linejoin="round"/>
<path d="M 15.28 20.0 L 15.49 20.33 L 15.7 20.67 L 15.91 21.0 L 16.12 21.33 L 16.32 21.67 L 16.53 22.0 L 16.74 22.33 L 16.95 22.67 L 17.16 23.0 L 17.37 23.33 L 17.57 23.67 L 17.78 24.0 L 17.99 24.33 L 18.2 24.67 L 18.41 25.0 L 18.62 25.33 L 18.82 25.67 L 19.03 26.0 L 19.24 26.33 L 19.45 26.67 L 19.66 27.0 L 19.87 27.33 L 20.07 27.67 L 20.28 28.0" fill="none" stroke="#111" stroke-width="1.12" stroke-linecap="round" stroke-linejoin="round"/>
<path d="M 18.28 18.0 L 18.21 18.33 L 18.13 18.66 L 18.04 18.99 L 17.94 19.32 L 17.84 19.64 L 17.72 19.96 L 17.6 20.28 L 17.46 20.59 L 17.32 20.9 L 17.18 21.21 L 17.02 21.51 L 16.85 21.8 L 16.68 22.1 L 16.5 22.39 L 16.31 22.67 L 16.12 22.95 L 15.91 23.22 L 15.7 23.49 L 15.49 23.75 L 15.26 24.01 L 15.03 24.26 L 14.79 24.5 L 14.55 24.74 L 14.3 24.97" fill="none" stroke="#111" stroke-width="1.12" stroke-linecap="round" stroke-linejoin="round"/>
</svg>
