<?xml version="1.0" encoding="UTF-8"?>
<svg xmlns="http://www.w3.org/2000/svg" viewBox="0 0 23.08 34.95">
<path d="M 8.06 4.0 L 7.53 4.65 L 7.02 5.32 L 6.56 6.02 L 6.12 6.74 L 5.73 7.48 L 5.37 8.24 L 5.06 9.02 L 4.78 9.81 L 4.55 10.62 L 4.35 11.44 L 4.2 12.27 L 4.09 13.1 L 4.02 13.94 L 4.0 14.78 L 4.02 15.62 L 4.08 16.46 L 4.19 17.29 L 4.33 18.12 L 4.52 18.94 L 4.76 19.74 L 5.03 20.54 L 5.34 21.32 L 5.69 22.08 L 6.08 22.83" fill="none" stroke="#111" stroke-width="1.22" stroke-linecap="round" stroke-linejoin="round"/>
<path d="M 7.06 5.0 L 7.15 5.08 L 7.23 5.17 L 7.31 5.25 L 7.4 5.33 L 7.48 5.42 L 7.56 5.5 L 7.65 5.58 L 7.73 5.67 L 7.81 5.75 L 7.9 5.83 L 7.98 5.92 L 8.06 6.0 L 8.15 6.08 L 8.23 6.17 L 8.31 6.25 L 8.4 6.33 L 8.48 6.42 L 8.56 6.5 L 8.65 6.58 L 8.73 6.67 L 8.81 6.75 L 8.9 6.83 L 8.98 6.92 L 9.06 7.0" fill="none" stroke="#111" stroke-width="1.22" stroke-linecap="round" stroke-linejoin="round"/>
<path d="M 6.06 8.0 L 6.15 8.04 L 6.23 8.08 L 6.31 8.12 L 6.4 8.17 L 6.48 8.21 L 6.56 8.25 L 6.65 8.29 L 6.73 8.33 L 6.81 8.38 L 6.9 8.42 L 6.98 8.46 L 7.06 8.5 L 7.15 8.54 L 7.23 8.58 L 7.31 8.62 L 7.4 8.67 L 7.48 8.71 L 7.56 8.75 L 7.65 8.79 L 7.73 8.83 L 7.81 8.88 L 7.9 8.92 L 7.98 8.96 L 8.06 9.0" fill="none" stroke="#111" stroke-width="1.22" stroke-linecap="round" stroke-linejoin="round"/>
<path d="M 7.06 14.0 L 6.98 14.17 L 6.9 14.33 L 6.81 14.5 L 6.73 14.67 L 6.65 14.83 L 6.56 15.0 L 6.48 15.17 L 6.4 15.33 L 6.31 15.5 L 6.23 15.67 L 6.15 15.83 L 6.06 16.0 L 5.98 16.17 L 5.9 16.33 L 5.81 16.5 L 5.73 16.67 L 5.65 16.83 L 5.56 17.0 L 5.48 17.17 L 5.4 17.33 L 5.31 17.5 L 5.23 17.67 L 5.15 17.83 L 5.06 18.0" fill="none" stroke="#111" stroke-width="1.22" stroke-linecap="round" stroke-linejoin="round"/>
<path d="M 7.06 19.0 L 7.06 19.12 L 7.06 19.25 L 7.06 19.38 L 7.06 19.5 L 7.06 19.62 L 7.06 19.75 L 7.06 19.88 L 7.06 20.0 L 7.06 20.12 L 7.06 20.25 L 7.06 20.38 L 7.06 20.5 L 7.06 20.62 L 7.06 20.75 L 7.06 20.88 L 7.06 21.0 L 7.06 21.12 L 7.06 21.25 L 7.06 21.38 L 7.06 21.5 L 7.06 21.62 L 7.06 21.75 L 7.06 21.88 L 7.06 22.0" fill="none" stroke="#111" stroke-width="1.22" stroke-linecap="round" stroke-linejoin="round"/>
<path d="M 11.06 6.0 L 11.39 6.61 L 11.7 7.23 L 11.97 7.87 L 12.22 8.52 L 12.44 9.18 L 12.63 9.84 L 12.79 10.52 L 12.93 11.2 L 13.03 11.88 L 13.11 12.57 L 13.15 13.27 L 13.17 13.96 L 13.15 14.65 L 13.11 15.35 L 13.03 16.04 L 12.93 16.72 L 12.79 17.4 L 12.63 18.08 L 12.44 18.74 L 12.22 19.4 L 11.97 20.05 L 11.7 20.68 L 11.39 21.31 L 11.06 21.92" fill="none" stroke="#111" stroke-width="1.22" stroke-linecap="round" stroke-linejoin="round"/>
<path d="M 10.06 6.0 L 10.02 6.21 L 9.98 6.42 L 9.94 6.62 L 9.9 6.83 L 9.86 7.04 L 9.81 7.25 L 9.77 7.46 L 9.73 7.67 L 9.69 7.88 L 9.65 8.08 L 9.61 8.29 L 9.56 8.5 L 9.52 8.71 L 9.48 8.92 L 9.44 9.12 L 9.4 9.33 L 9.36 9.54 L 9.31 9.75 L 9.27 9.96 L 9.23 10.17 L 9.19 10.38 L 9.15 10.58 L 9.11 10.79 L 9.06 11.0" fill="none" stroke="#111" stroke-width="1.22" stroke-linecap="round" stroke-linejoin="round"/>
<path d="M 10.06 14.0 L 10.15 14.12 L 10.23 14.25 L 10.31 14.38 L 10.4 14.5 L 10.48 14.62 L 10.56 14.75 L 10.65 14.88 L 10.73 15.0 L 10.81 15.12 L 10.9 15.25 L 10.98 15.38 L 11.06 15.5 L 11.15 15.62 L 11.23 15.75 L 11.31 15.88 L 11.4 16.0 L 11.48 16.12 L 11.56 16.25 L 11.65 16.38 L 11.73 16.5 L 11.81 16.62 L 11.9 16.75 L 11.98 16.88 L 12.06 17.0" fill="none" stroke="#111" stroke-width="1.22" stroke-linecap="round" stroke-linejoin="round"/>
<path d="M 10.06 19.0 L 10.11 19.12 L 10.15 19.25 L 10.19 19.38 L 10.23 19.5 L 10.27 19.62 L 10.31 19.75 L 10.36 19.88 L 10.4 20.0 L 10.44 20.12 L 10.48 20.25 L 10.52 20.38 L 10.56 20.5 L 10.61 20.62 L 10.65 20.75 L 10.69 20.88 L 10.73 21.0 L 10.77 21.12 L 10.81 21.25 L 10.86 21.38 L 10.9 21.5 L 10.94 21.62 L 10.98 21.75 L 11.02 21.88 L 11.06 22.0" fill="none" stroke="#111" stroke-width="1.22" stroke-linecap="round" stroke-linejoin="round"/>
<path d="M 17.06 6.0 L 17.08 6.82 L 17.08 7.64 L 17.06 8.46 L 17.03 9.27 L 16.98 10.09 L 16.92 10.91 L 16.83 11.72 L 16.74 12.53 L 16.62 13.35 L 16.5 14.15 L 16.35 14.96 L 16.19 15.76 L 16.01 16.56 L 15.82 17.36 L 15.61 18.15 L 15.39 18.94 L 15.15 19.72 L 14.9 20.5 L 14.63 21.27 L 14.34 22.04 L 14.04 22.8 L 13.73 23.56 L 13.4 24.31 L 13.05 25.05" fill="none" stroke="#111" stroke-width="1.22" stroke-linecap="round" stroke-linejoin="round"/>
<path d="M 16.06 20.0 L 16.33 20.4 L 16.58 20.82 L 16.81 21.23 L 17.04 21.66 L 17.26 22.09 L 17.46 22.52 L 17.66 22.96 L 17.84 23.41 L 18.01 23.86 L 18.16 24.31 L 18.31 24.77 L 18.44 25.23 L 18.56 25.7 L 18.67 26.17 L 18.77 26.64 L 18.85 27.11 L 18.92 27.59 L 18.98 28.07 L 19.02 28.54 L 19.05 29.02 L 19.07 29.5 L 19.08 29.99 L 19.07 30.47 L 19.05 30.95" fill="none" stroke="#111" stroke-width="1.22" stroke-linecap="round" stroke-linejoin="round"/>
<path d="M 19.06 19.0 L 19.02 19.34 L 18.96 19.68 L 18.89 20.01 L 18.81 20.34 L 18.72 20.67 L 18.62 21.0 L 18.51 21.32 L 18.39 21.64 L 18.25 21.96 L 18.11 22.27 L 17.95 22.57 L 17.79 22.87 L 17.61 23.17 L 17.43 23.46 L 17.23 23.74 L 17.03 24.01 L 16.82 24.28 L 16.6 24.54 L 16.37 24.8 L 16.13 25.04 L 15.88 25.28 L 15.63 25.51 L 15.37 25.73 L 15.1 25.94" fill="none" stroke="#111" stroke-width="1.22" stroke-linecap="round" stroke-linejoin="round"/>
</svg>
