<?xml version="1.0" encoding="UTF-8"?>
<svg xmlns="http://www.w3.org/2000/svg" viewBox="0 0 25.38 38.00">
<path d="M 5.11 4.0 L 5.73 4.0 L 6.36 4.0 L 6.98 4.0 L 7.61 4.0 L 8.23 4.0 L 8.86 4.0 L 9.48 4.0 L 10.11 4.0 L 10.73 4.0 L 11.36 4.0 L 11.98 4.0 L 12.61 4.0 L 13.23 4.0 L 13.86 4.0 L 14.48 4.0 L 15.11 4.0 L 15.73 4.0 L 16.36 4.0 L 16.98 4.0 L 17.61 4.0 L 18.23 4.0 L 18.86 4.0 L 19.48 4.0 L 20.11 4.0" fill="none" stroke="#111" stroke-width="1.33" stroke-linecap="round" stroke-linejoin="round"/>
<path d="M 10.11 4.0 L 10.11 4.46 L 10.11 4.92 L 10.11 5.38 L 10.11 5.83 L 10.11 6.29 L 10.11 6.75 L 10.11 7.21 L 10.11 7.67 L 10.11 8.12 L 10.11 8.58 L 10.11 9.04 L 10.11 9.5 L 10.11 9.96 L 10.11 10.42 L 10.11 10.88 L 10.11 11.33 L 10.11 11.79 L 10.11 12.25 L 10.11 12.71 L 10.11 13.17 L 10.11 13.62 L 10.11 14.08 L 10.11 14.54 L 10.11 15.0" fill="none" stroke="#111" stroke-width="1.33" stroke-linecap="round" stroke-linejoin="round"/>
<path d="M 16.11 4.0 L 16.11 4.46 L 16.11 4.92 L 16.11 5.38 L 16.11 5.83 L 16.11 6.29 L 16.11 6.75 L 16.11 7.21 L 16.11 7.67 L 16.11 8.12 L 16.11 8.58 L 16.11 9.04 L 16.11 9.5 L 16.11 9.96 L 16.11 10.42 L 16.11 10.88 L 16.11 11.33 L 16.11 11.79 L 16.11 12.25 L 16.11 12.71 L 16.11 13.17 L 16.11 13.62 L 16.11 14.08 L 16.11 14.54 L 16.11 15.0" fill="none" stroke="#111" stroke-width="1.33" stroke-linecap="round" stroke-linejoin="round"/>
<path d="M 10.11 10.0 L 10.36 10.0 L 10.61 10.0 L 10.86 10.0 L 11.11 10.0 L 11.36 10.0 L 11.61 10.0 L 11.86 10.0 L 12.11 10.0 L 12.36 10.0 L 12.61 10.0 L 12.86 10.0 L 13.11 10.0 L 13.36 10.0 L 13.61 10.0 L 13.86 10.0 L 14.11 10.0 L 14.36 10.0 L 14.61 10.0 L 14.86 10.0 L 15.11 10.0 L 15.36 10.0 L 15.61 10.0 L 15.86 10.0 L 16.11 10.0" fill="none" stroke="#111" stroke-width="1.33" stroke-linecap="round" stroke-linejoin="round"/>
<path d="M 10.11 13.0 L 10.36 13.0 L 10.61 13.0 L 10.86 13.0 L 11.11 13.0 L 11.36 13.0 L 11.61 13.0 L 11.86 13.0 L 12.11 13.0 L 12.36 13.0 L 12.61 13.0 L 12.86 13.0 L 13.11 13.0 L 13.36 13.0 L 13.61 13.0 L 13.86 13.0 L 14.11 13.0 L 14.36 13.0 L 14.61 13.0 L 14.86 13.0 L 15.11 13.0 L 15.36 13.0 L 15.61 13.0 L 15.86 13.0 L 16.11 13.0" fill="none" stroke="#111" stroke-width="1.33" stroke-linecap="round" stroke-linejoin="round"/>
<path d="M 10.11 15.0 L 9.48 15.27 L 8.87 15.58 L 8.29 15.93 L 7.73 16.33 L 7.2 16.76 L 6.71 17.24 L 6.25 17.74 L 5.83 18.28 L 5.44 18.84 L 5.1 19.44 L 4.81 20.05 L 4.55 20.69 L 4.35 21.34 L 4.19 22.0 L 4.08 22.68 L 4.01 23.36 L 4.0 24.04 L 4.04 24.72 L 4.12 25.4 L 4.25 26.07 L 4.43 26.73 L 4.66 27.37 L 4.93 28.0 L 5.25 28.61" fill="none" stroke="#111" stroke-width="1.33" stroke-linecap="round" stroke-linejoin="round"/>
<path d="M 16.11 15.0 L 16.68 15.26 L 17.23 15.56 L 17.75 15.9 L 18.25 16.27 L 18.72 16.69 L 19.16 17.13 L 19.56 17.61 L 19.93 18.11 L 20.26 18.65 L 20.55 19.2 L 20.8 19.77 L 21.0 20.36 L 21.16 20.97 L 21.28 21.58 L 21.35 22.2 L 21.38 22.82 L 21.36 23.45 L 21.29 24.07 L 21.18 24.69 L 21.02 25.29 L 20.82 25.88 L 20.58 26.46 L 20.3 27.01 L 19.97 27.55" fill="none" stroke="#111" stroke-width="1.33" stroke-linecap="round" stroke-linejoin="round"/>
<path d="M 10.11 20.0 L 10.0 20.53 L 9.98 21.07 L 10.04 21.61 L 10.18 22.14 L 10.4 22.63 L 10.7 23.09 L 11.06 23.49 L 11.48 23.84 L 11.94 24.12 L 12.45 24.32 L 12.97 24.44 L 13.51 24.49 L 14.06 24.44 L 14.58 24.32 L 15.09 24.12 L 15.55 23.84 L 15.97 23.49 L 16.33 23.09 L 16.62 22.63 L 16.85 22.14 L 16.99 21.61 L 17.05 21.07 L 17.03 20.53 L 16.92 20.0" fill="none" stroke="#111" stroke-width="1.33" stroke-linecap="round" stroke-linejoin="round"/>
<path d="M 13.11 26.0 L 13.11 26.33 L 13.11 26.67 L 13.11 27.0 L 13.11 27.33 L 13.11 27.67 L 13.11 28.0 L 13.11 28.33 L 13.11 28.67 L 13.11 29.0 L 13.11 29.33 L 13.11 29.67 L 13.11 30.0 L 13.11 30.33 L 13.11 30.67 L 13.11 31.0 L 13.11 31.33 L 13.11 31.67 L 13.11 32.0 L 13.11 32.33 L 13.11 32.67 L 13.11 33.0 L 13.11 33.33 L 13.11 33.67 L 13.11 34.0" fill="none" stroke="#111" stroke-width="1.33" stroke-linecap="round" stroke-linejoin="round"/>
<path d="M 5.11 26.0 L 5.32 25.75 L 5.53 25.5 L 5.73 25.25 L 5.94 25.0 L 6.15 24.75 L 6.36 24.5 L 6.57 24.25 L 6.78 24.0 L 6.98 23.75 L 7.19 23.5 L 7.4 23.25 L 7.61 23.0 L 7.82 22.75 L 8.03 22.5 L 8.23 22.25 L 8.44 22.0 L 8.65 21.75 L 8.86 21.5 L 9.07 21.25 L 9.28 21.0 L 9.48 20.75 L 9.69 20.5 L 9.9 20.25 L 10.11 20.0" fill="none" stroke="#111" stroke-width="1.33" stroke-linecap="round" stroke-linejoin="round"/>
<path d="M 15.11 20.0 L 15.32 20.21 L 15.53 20.42 L 15.73 20.62 L 15.94 20.83 L 16.15 21.04 L 16.36 21.25 L 16.57 21.46 L 16.78 21.67 L 16.98 21.88 L 17.19 22.08 L 17.4 22.29 L 17.61 22.5 L 17.82 22.71 L 18.03 22.92 L 18.23 23.12 L 18.44 23.33 L 18.65 23.54 L 18.86 23.75 L 19.07 23.96 L 19.28 24.17 L 19.48 24.38 L 19.69 24.58 L 19.9 24.79 L 20.11 25.0" fill="none" stroke="#111" stroke-width="1.33" stroke-linecap="round" stroke-linejoin="round"/>
</svg>
