<?xml version="1.0" encoding="UTF-8"?>
<svg xmlns="http://www.w3.org/2000/svg" viewBox="0 0 24.00 32.00">
<path d="M 4.0 12.0 L 4.33 12.0 L 4.67 12.0 L 5.0 12.0 L 5.33 12.0 L 5.67 12.0 L 6.0 12.0 L 6.33 12.0 L 6.67 12.0 L 7.0 12.0 L 7.33 12.0 L 7.67 12.0 L 8.0 12.0 L 8.33 12.0 L 8.67 12.0 L 9.0 12.0 L 9.33 12.0 L 9.67 12.0 L 10.0 12.0 L 10.33 12.0 L 10.67 12.0 L 11.0 12.0 L 11.33 12.0 L 11.67 12.0 L 12.0 12.0" fill="none" stroke="#111" stroke-width="1.12" stroke-linecap="round" stroke-linejoin="round"/>
<path d="M 7.0 12.0 L 7.04 12.25 L 7.08 12.5 L 7.12 12.75 L 7.17 13.0 L 7.21 13.25 L 7.25 13.5 L 7.29 13.75 L 7.33 14.0 L 7.38 14.25 L 7.42 14.5 L 7.46 14.75 L 7.5 15.0 L 7.54 15.25 L 7.58 15.5 L 7.62 15.75 L 7.67 16.0 L 7.71 16.25 L 7.75 16.5 L 7.79 16.75 L 7.83 17.0 L 7.88 17.25 L 7.92 17.5 L 7.96 17.75 L 8.0 18.0" fill="none" stroke="#111" stroke-width="1.12" stroke-linecap="round" stroke-linejoin="round"/>
<path d="M 4.0 19.0 L 4.33 18.96 L 4.67 18.92 L 5.0 18.88 L 5.33 18.83 L 5.67 18.79 L 6.0 18.75 L 6.33 18.71 L 6.67 18.67 L 7.0 18.62 L 7.33 18.58 L 7.67 18.54 L 8.0 18.5 L 8.33 18.46 L 8.67 18.42 L 9.0 18.38 L 9.33 18.33 L 9.67 18.29 L 10.0 18.25 L 10.33 18.21 L 10.67 18.17 L 11.0 18.12 L 11.33 18.08 L 11.67 18.04 L 12.0 18.0" fill="none" stroke="#111" stroke-width="1.12" stroke-linecap="round" stroke-linejoin="round"/>
<path d="M 7.0 4.0 L 6.92 4.04 L 6.83 4.08 L 6.75 4.12 L 6.67 4.17 L 6.58 4.21 L 6.5 4.25 L 6.42 4.29 L 6.33 4.33 L 6.25 4.38 L 6.17 4.42 L 6.08 4.46 L 6.0 4.5 L 5.92 4.54 L 5.83 4.58 L 5.75 4.62 L 5.67 4.67 L 5.58 4.71 L 5.5 4.75 L 5.42 4.79 L 5.33 4.83 L 5.25 4.88 L 5.17 4.92 L 5.08 4.96 L 5.0 5.0 L 5.0 5.0 L 5.0 5.18 L 5.01 5.35 L 5.03 5.53 L 5.08 5.7 L 5.13 5.87 L 5.2 6.03 L 5.29 6.18 L 5.39 6.33 L 5.5 6.47 L 5.62 6.59 L 5.75 6.71 L 5.89 6.81 L 6.04 6.91 L 6.2 6.98 L 6.37 7.05 L 6.54 7.1 L 6.71 7.13 L 6.88 7.15 L 7.06 7.15 L 7.24 7.14 L 7.41 7.11 L 7.58 7.07 L 7.75 7.01 L 7.91 6.94 L 8.0 7.0 L 8.0 6.92 L 8.0 6.83 L 8.0 6.75 L 8.0 6.67 L 8.0 6.58 L 8.0 6.5 L 8.0 6.42 L 8.0 6.33 L 8.0 6.25 L 8.0 6.17 L 8.0 6.08 L 8.0 6.0 L 8.0 5.92 L 8.0 5.83 L 8.0 5.75 L 8.0 5.67 L 8.0 5.58 L 8.0 5.5 L 8.0 5.42 L 8.0 5.33 L 8.0 5.25 L 8.0 5.17 L 8.0 5.08 L 8.0 5.0 L 8.0 5.0 L 7.96 4.96 L 7.92 4.92 L 7.88 4.88 L 7.83 4.83 L 7.79 4.79 L 7.75 4.75 L 7.71 4.71 L 7.67 4.67 L 7.62 4.62 L 7.58 4.58 L 7.54 4.54 L 7.5 4.5 L 7.46 4.46 L 7.42 4.42 L 7.38 4.38 L 7.33 4.33 L 7.29 4.29 L 7.25 4.25 L 7.21 4.21 L 7.17 4.17 L 7.12 4.12 L 7.08 4.08 L 7.04 4.04 L 7.0 4.0" fill="none" stroke="#111" stroke-width="1.12" stroke-linecap="round" stroke-linejoin="round"/>
<path d="M 9.0 6.0 L 9.61 6.06 L 10.21 6.17 L 10.79 6.34 L 11.36 6.56 L 11.91 6.83 L 12.43 7.15 L 12.91 7.51 L 13.37 7.92 L 13.78 8.37 L 14.15 8.85 L 14.48 9.36 L 14.75 9.91 L 14.98 10.47 L 15.15 11.06 L 15.27 11.65 L 15.34 12.26 L 15.35 12.87 L 15.3 13.48 L 15.2 14.08 L 15.05 14.67 L 14.84 15.24 L 14.58 15.79 L 14.27 16.32 L 13.91 16.81 L 14.0 17.0 L 13.96 17.21 L 13.92 17.42 L 13.88 17.62 L 13.83 17.83 L 13.79 18.04 L 13.75 18.25 L 13.71 18.46 L 13.67 18.67 L 13.62 18.88 L 13.58 19.08 L 13.54 19.29 L 13.5 19.5 L 13.46 19.71 L 13.42 19.92 L 13.38 20.12 L 13.33 20.33 L 13.29 20.54 L 13.25 20.75 L 13.21 20.96 L 13.17 21.17 L 13.12 21.38 L 13.08 21.58 L 13.04 21.79 L 13.0 22.0" fill="none" stroke="#111" stroke-width="1.12" stroke-linecap="round" stroke-linejoin="round"/>
<path d="M 15.0 17.0 L 15.21 17.46 L 15.42 17.92 L 15.62 18.38 L 15.83 18.83 L 16.04 19.29 L 16.25 19.75 L 16.46 20.21 L 16.67 20.67 L 16.88 21.12 L 17.08 21.58 L 17.29 22.04 L 17.5 22.5 L 17.71 22.96 L 17.92 23.42 L 18.12 23.88 L 18.33 24.33 L 18.54 24.79 L 18.75 25.25 L 18.96 25.71 L 19.17 26.17 L 19.38 26.62 L 19.58 27.08 L 19.79 27.54 L 20.0 28.0" fill="none" stroke="#111" stroke-width="1.12" stroke-linecap="round" stroke-linejoin="round"/>
<path d="M 18.0 15.0 L 17.83 15.5 L 17.67 16.0 L 17.5 16.5 L 17.33 17.0 L 17.17 17.5 L 17.0 18.0 L 16.83 18.5 L 16.67 19.0 L 16.5 19.5 L 16.33 20.0 L 16.17 20.5 L 16.0 21.0 L 15.83 21.5 L 15.67 22.0 L 15.5 22.5 L 15.33 23.0 L 15.17 23.5 L 15.0 24.0 L 14.83 24.5 L 14.67 25.0 L 14.5 25.5 L 14.33 26.0 L 14.17 26.5 L 14.0 27.0" fill="none" stroke="#111" stroke-width="1.12" stroke-linecap="round" stroke-linejoin="round"/>
</svg>
