<?xml version="1.0" encoding="UTF-8"?>
<svg xmlns="http://www.w3.org/2000/svg" viewBox="0 0 22.72 34.00">
<path d="M 11.72 5.0 L 11.72 5.48 L 11.71 5.95 L 11.69 6.43 L 11.65 6.9 L 11.6 7.38 L 11.54 7.85 L 11.46 8.32 L 11.37 8.79 L 11.27 9.25 L 11.15 9.72 L 11.02 10.17 L 10.87 10.63 L 10.72 11.08 L 10.55 11.52 L 10.36 11.96 L 10.17 12.4 L 9.96 12.83 L 9.74 13.25 L 9.51 13.67 L 9.26 14.08 L 9.01 14.48 L 8.74 14.87 L 8.46 15.26 L 8.17 15.64" fill="none" stroke="#111" stroke-width="1.19" stroke-linecap="round" stroke-linejoin="round"/>
<path d="M 11.72 4.0 L 12.01 4.46 L 12.3 4.92 L 12.59 5.38 L 12.88 5.83 L 13.17 6.29 L 13.47 6.75 L 13.76 7.21 L 14.05 7.67 L 14.34 8.12 L 14.63 8.58 L 14.92 9.04 L 15.22 9.5 L 15.51 9.96 L 15.8 10.42 L 16.09 10.88 L 16.38 11.33 L 16.67 11.79 L 16.97 12.25 L 17.26 12.71 L 17.55 13.17 L 17.84 13.62 L 18.13 14.08 L 18.42 14.54 L 18.72 15.0" fill="none" stroke="#111" stroke-width="1.19" stroke-linecap="round" stroke-linejoin="round"/>
<path d="M 10.72 12.0 L 10.92 12.0 L 11.13 12.0 L 11.34 12.0 L 11.55 12.0 L 11.76 12.0 L 11.97 12.0 L 12.17 12.0 L 12.38 12.0 L 12.59 12.0 L 12.8 12.0 L 13.01 12.0 L 13.22 12.0 L 13.42 12.0 L 13.63 12.0 L 13.84 12.0 L 14.05 12.0 L 14.26 12.0 L 14.47 12.0 L 14.67 12.0 L 14.88 12.0 L 15.09 12.0 L 15.3 12.0 L 15.51 12.0 L 15.72 12.0" fill="none" stroke="#111" stroke-width="1.19" stroke-linecap="round" stroke-linejoin="round"/>
<path d="M 12.72 12.0 L 12.72 12.62 L 12.72 13.25 L 12.72 13.88 L 12.72 14.5 L 12.72 15.12 L 12.72 15.75 L 12.72 16.38 L 12.72 17.0 L 12.72 17.62 L 12.72 18.25 L 12.72 18.88 L 12.72 19.5 L 12.72 20.12 L 12.72 20.75 L 12.72 21.38 L 12.72 22.0 L 12.72 22.62 L 12.72 23.25 L 12.72 23.88 L 12.72 24.5 L 12.72 25.12 L 12.72 25.75 L 12.72 26.38 L 12.72 27.0" fill="none" stroke="#111" stroke-width="1.19" stroke-linecap="round" stroke-linejoin="round"/>
<path d="M 6.72 10.0 L 6.18 10.55 L 5.69 11.14 L 5.26 11.78 L 4.89 12.45 L 4.58 13.15 L 4.33 13.88 L 4.15 14.63 L 4.04 15.39 L 4.0 16.16 L 4.03 16.92 L 4.12 17.69 L 4.29 18.44 L 4.52 19.17 L 4.81 19.88 L 5.17 20.56 L 5.59 21.2 L 6.07 21.81 L 6.59 22.36 L 7.17 22.87 L 7.79 23.33 L 8.45 23.73 L 9.14 24.06 L 9.85 24.34 L 10.59 24.54" fill="none" stroke="#111" stroke-width="1.19" stroke-linecap="round" stroke-linejoin="round"/>
<path d="M 10.72 15.0 L 10.84 15.12 L 10.97 15.25 L 11.09 15.38 L 11.22 15.5 L 11.34 15.62 L 11.47 15.75 L 11.59 15.88 L 11.72 16.0 L 11.84 16.12 L 11.97 16.25 L 12.09 16.38 L 12.22 16.5 L 12.34 16.62 L 12.47 16.75 L 12.59 16.88 L 12.72 17.0 L 12.84 17.12 L 12.97 17.25 L 13.09 17.38 L 13.22 17.5 L 13.34 17.62 L 13.47 17.75 L 13.59 17.88 L 13.72 18.0 L 13.72 18.0 L 13.8 17.88 L 13.88 17.75 L 13.97 17.62 L 14.05 17.5 L 14.13 17.38 L 14.22 17.25 L 14.3 17.12 L 14.38 17.0 L 14.47 16.88 L 14.55 16.75 L 14.63 16.62 L 14.72 16.5 L 14.8 16.38 L 14.88 16.25 L 14.97 16.12 L 15.05 16.0 L 15.13 15.88 L 15.22 15.75 L 15.3 15.62 L 15.38 15.5 L 15.47 15.38 L 15.55 15.25 L 15.63 15.12 L 15.72 15.0" fill="none" stroke="#111" stroke-width="1.19" stroke-linecap="round" stroke-linejoin="round"/>
<path d="M 8.72 19.0 L 8.55 19.46 L 8.38 19.92 L 8.22 20.38 L 8.05 20.83 L 7.88 21.29 L 7.72 21.75 L 7.55 22.21 L 7.38 22.67 L 7.22 23.12 L 7.05 23.58 L 6.88 24.04 L 6.72 24.5 L 6.55 24.96 L 6.38 25.42 L 6.22 25.88 L 6.05 26.33 L 5.88 26.79 L 5.72 27.25 L 5.55 27.71 L 5.38 28.17 L 5.22 28.62 L 5.05 29.08 L 4.88 29.54 L 4.72 30.0" fill="none" stroke="#111" stroke-width="1.19" stroke-linecap="round" stroke-linejoin="round"/>
</svg>
