<?xml version="1.0" encoding="UTF-8"?>
<svg xmlns="http://www.w3.org/2000/svg" viewBox="0 0 21.00 27.00">
<path d="M 4.0 5.0 L 4.54 4.96 L 5.08 4.92 L 5.62 4.88 L 6.17 4.83 L 6.71 4.79 L 7.25 4.75 L 7.79 4.71 L 8.33 4.67 L 8.88 4.62 L 9.42 4.58 L 9.96 4.54 L 10.5 4.5 L 11.04 4.46 L 11.58 4.42 L 12.13 4.38 L 12.67 4.33 L 13.21 4.29 L 13.75 4.25 L 14.29 4.21 L 14.83 4.17 L 15.38 4.12 L 15.92 4.08 L 16.46 4.04 L 17.0 4.0" fill="none" stroke="#111" stroke-width="0.95" stroke-linecap="round" stroke-linejoin="round"/>
<path d="M 4.0 15.0 L 4.0 15.33 L 4.0 15.67 L 4.0 16.0 L 4.0 16.33 L 4.0 16.67 L 4.0 17.0 L 4.0 17.33 L 4.0 17.67 L 4.0 18.0 L 4.0 18.33 L 4.0 18.67 L 4.0 19.0 L 4.0 19.33 L 4.0 19.67 L 4.0 20.0 L 4.0 20.33 L 4.0 20.67 L 4.0 21.0 L 4.0 21.33 L 4.0 21.67 L 4.0 22.0 L 4.0 22.33 L 4.0 22.67 L 4.0 23.0 L 4.0 23.0 L 4.54 23.0 L 5.08 23.0 L 5.62 23.0 L 6.17 23.0 L 6.71 23.0 L 7.25 23.0 L 7.79 23.0 L 8.33 23.0 L 8.88 23.0 L 9.42 23.0 L 9.96 23.0 L 10.5 23.0 L 11.04 23.0 L 11.58 23.0 L 12.12 23.0 L 12.67 23.0 L 13.21 23.0 L 13.75 23.0 L 14.29 23.0 L 14.83 23.0 L 15.38 23.0 L 15.92 23.0 L 16.46 23.0 L 17.0 23.0 L 17.0 23.0 L 17.0 22.67 L 17.0 22.33 L 17.0 22.0 L 17.0 21.67 L 17.0 21.33 L 17.0 21.0 L 17.0 20.67 L 17.0 20.33 L 17.0 20.0 L 17.0 19.67 L 17.0 19.33 L 17.0 19.0 L 17.0 18.67 L 17.0 18.33 L 17.0 18.0 L 17.0 17.67 L 17.0 17.33 L 17.0 17.0 L 17.0 16.67 L 17.0 16.33 L 17.0 16.0 L 17.0 15.67 L 17.0 15.33 L 17.0 15.0 L 17.0 15.0 L 16.46 15.0 L 15.92 15.0 L 15.38 15.0 L 14.83 15.0 L 14.29 15.0 L 13.75 15.0 L 13.21 15.0 L 12.67 15.0 L 12.12 15.0 L 11.58 15.0 L 11.04 15.0 L 10.5 15.0 L 9.96 15.0 L 9.42 15.0 L 8.88 15.0 L 8.33 15.0 L 7.79 15.0 L 7.25 15.0 L 6.71 15.0 L 6.17 15.0 L 5.62 15.0 L 5.08 15.0 L 4.54 15.0 L 4.0 15.0" fill="none" stroke="#111" stroke-width="0.95" stroke-linecap="round" stroke-linejoin="round"/>
<path d="M 11.0 4.0 L 11.0 4.42 L 11.0 4.83 L 11.0 5.25 L 11.0 5.67 L 11.0 6.08 L 11.0 6.5 L 11.0 6.92 L 11.0 7.33 L 11.0 7.75 L 11.0 8.17 L 11.0 8.58 L 11.0 9.0 L 11.0 9.42 L 11.0 9.83 L 11.0 10.25 L 11.0 10.67 L 11.0 11.08 L 11.0 11.5 L 11.0 11.92 L 11.0 12.33 L 11.0 12.75 L 11.0 13.17 L 11.0 13.58 L 11.0 14.0" fill="none" stroke="#111" stroke-width="0.95" stroke-linecap="round" stroke-linejoin="round"/>
</svg>
