<?xml version="1.0" encoding="UTF-8"?>
<svg xmlns="http://www.w3.org/2000/svg" viewBox="0 0 15.00 34.00">
<path d="M 10.0 4.0 L 10.04 5.08 L 10.08 6.17 L 10.12 7.25 L 10.17 8.33 L 10.21 9.42 L 10.25 10.5 L 10.29 11.58 L 10.33 12.67 L 10.38 13.75 L 10.42 14.83 L 10.46 15.92 L 10.5 17.0 L 10.54 18.08 L 10.58 19.17 L 10.62 20.25 L 10.67 21.33 L 10.71 22.42 L 10.75 23.5 L 10.79 24.58 L 10.83 25.67 L 10.88 26.75 L 10.92 27.83 L 10.96 28.92 L 11.0 30.0" fill="none" stroke="#111" stroke-width="1.19" stroke-linecap="round" stroke-linejoin="round"/>
<path d="M 9.0 5.0 L 8.83 5.33 L 8.67 5.67 L 8.5 6.0 L 8.33 6.33 L 8.17 6.67 L 8.0 7.0 L 7.83 7.33 L 7.67 7.67 L 7.5 8.0 L 7.33 8.33 L 7.17 8.67 L 7.0 9.0 L 6.83 9.33 L 6.67 9.67 L 6.5 10.0 L 6.33 10.33 L 6.17 10.67 L 6.0 11.0 L 5.83 11.33 L 5.67 11.67 L 5.5 12.0 L 5.33 12.33 L 5.17 12.67 L 5.0 13.0 L 5.0 13.0 L 5.32 13.34 L 5.61 13.71 L 5.88 14.09 L 6.11 14.49 L 6.32 14.91 L 6.49 15.35 L 6.63 15.79 L 6.74 16.25 L 6.82 16.71 L 6.86 17.17 L 6.86 17.64 L 6.83 18.11 L 6.77 18.57 L 6.67 19.03 L 6.54 19.47 L 6.38 19.91 L 6.18 20.34 L 5.95 20.74 L 5.7 21.14 L 5.41 21.51 L 5.1 21.85 L 4.76 22.18 L 4.41 22.48 L 4.03 22.75 L 4.0 23.0 L 4.25 23.29 L 4.5 23.58 L 4.75 23.88 L 5.0 24.17 L 5.25 24.46 L 5.5 24.75 L 5.75 25.04 L 6.0 25.33 L 6.25 25.62 L 6.5 25.92 L 6.75 26.21 L 7.0 26.5 L 7.25 26.79 L 7.5 27.08 L 7.75 27.38 L 8.0 27.67 L 8.25 27.96 L 8.5 28.25 L 8.75 28.54 L 9.0 28.83 L 9.25 29.12 L 9.5 29.42 L 9.75 29.71 L 10.0 30.0" fill="none" stroke="#111" stroke-width="1.19" stroke-linecap="round" stroke-linejoin="round"/>
<path d="M 6.0 4.0 L 6.17 4.0 L 6.33 4.0 L 6.5 4.0 L 6.67 4.0 L 6.83 4.0 L 7.0 4.0 L 7.17 4.0 L 7.33 4.0 L 7.5 4.0 L 7.67 4.0 L 7.83 4.0 L 8.0 4.0 L 8.17 4.0 L 8.33 4.0 L 8.5 4.0 L 8.67 4.0 L 8.83 4.0 L 9.0 4.0 L 9.17 4.0 L 9.33 4.0 L 9.5 4.0 L 9.67 4.0 L 9.83 4.0 L 10.0 4.0" fill="none" stroke="#111" stroke-width="1.19" stroke-linecap="round" stroke-linejoin="round"/>
</svg>
