<?xml version="1.0" encoding="UTF-8"?>
<svg xmlns="http://www.w3.org/2000/svg" viewBox="0 0 25.00 33.00">
<path d="M 8.0 4.0 L 7.83 4.75 L 7.67 5.5 L 7.5 6.25 L 7.33 7.0 L 7.17 7.75 L 7.0 8.5 L 6.83 9.25 L 6.67 10.0 L 6.5 10.75 L 6.33 11.5 L 6.17 12.25 L 6.0 13.0 L 5.83 13.75 L 5.67 14.5 L 5.5 15.25 L 5.33 16.0 L 5.17 16.75 L 5.0 17.5 L 4.83 18.25 L 4.67 19.0 L 4.5 19.75 L 4.33 20.5 L 4.17 21.25 L 4.0 22.0" fill="none" stroke="#111" stroke-width="1.16" stroke-linecap="round" stroke-linejoin="round"/>
<path d="M 14.0 4.0 L 14.29 4.75 L 14.58 5.5 L 14.87 6.25 L 15.17 7.0 L 15.46 7.75 L 15.75 8.5 L 16.04 9.25 L 16.33 10.0 L 16.62 10.75 L 16.92 11.5 L 17.21 12.25 L 17.5 13.0 L 17.79 13.75 L 18.08 14.5 L 18.38 15.25 L 18.67 16.0 L 18.96 16.75 L 19.25 17.5 L 19.54 18.25 L 19.83 19.0 L 20.12 19.75 L 20.42 20.5 L 20.71 21.25 L 21.0 22.0" fill="none" stroke="#111" stroke-width="1.16" stroke-linecap="round" stroke-linejoin="round"/>
<path d="M 7.0 21.0 L 7.0 21.33 L 7.0 21.67 L 7.0 22.0 L 7.0 22.33 L 7.0 22.67 L 7.0 23.0 L 7.0 23.33 L 7.0 23.67 L 7.0 24.0 L 7.0 24.33 L 7.0 24.67 L 7.0 25.0 L 7.0 25.33 L 7.0 25.67 L 7.0 26.0 L 7.0 26.33 L 7.0 26.67 L 7.0 27.0 L 7.0 27.33 L 7.0 27.67 L 7.0 28.0 L 7.0 28.33 L 7.0 28.67 L 7.0 29.0" fill="none" stroke="#111" stroke-width="1.16" stroke-linecap="round" stroke-linejoin="round"/>
<path d="M 7.0 21.0 L 7.37 21.0 L 7.75 21.0 L 8.12 21.0 L 8.5 21.0 L 8.87 21.0 L 9.25 21.0 L 9.62 21.0 L 10.0 21.0 L 10.37 21.0 L 10.75 21.0 L 11.12 21.0 L 11.5 21.0 L 11.87 21.0 L 12.25 21.0 L 12.62 21.0 L 13.0 21.0 L 13.37 21.0 L 13.75 21.0 L 14.12 21.0 L 14.5 21.0 L 14.87 21.0 L 15.25 21.0 L 15.62 21.0 L 16.0 21.0 L 16.0 21.0 L 16.0 21.33 L 16.0 21.67 L 16.0 22.0 L 16.0 22.33 L 16.0 22.67 L 16.0 23.0 L 16.0 23.33 L 16.0 23.67 L 16.0 24.0 L 16.0 24.33 L 16.0 24.67 L 16.0 25.0 L 16.0 25.33 L 16.0 25.67 L 16.0 26.0 L 16.0 26.33 L 16.0 26.67 L 16.0 27.0 L 16.0 27.33 L 16.0 27.67 L 16.0 28.0 L 16.0 28.33 L 16.0 28.67 L 16.0 29.0" fill="none" stroke="#111" stroke-width="1.16" stroke-linecap="round" stroke-linejoin="round"/>
<path d="M 7.0 29.0 L 7.37 29.0 L 7.75 29.0 L 8.12 29.0 L 8.5 29.0 L 8.87 29.0 L 9.25 29.0 L 9.62 29.0 L 10.0 29.0 L 10.37 29.0 L 10.75 29.0 L 11.12 29.0 L 11.5 29.0 L 11.87 29.0 L 12.25 29.0 L 12.62 29.0 L 13.0 29.0 L 13.37 29.0 L 13.75 29.0 L 14.12 29.0 L 14.5 29.0 L 14.87 29.0 L 15.25 29.0 L 15.62 29.0 L 16.0 29.0" fill="none" stroke="#111" stroke-width="1.16" stroke-linecap="round" stroke-linejoin="round"/>
</svg>
