<?xml version="1.0" encoding="UTF-8"?>
<svg xmlns="http://www.w3.org/2000/svg" viewBox="0 0 22.82 36.00">
<path d="M 12.08 5.0 L 11.95 5.17 L 11.83 5.33 L 11.7 5.5 L 11.58 5.67 L 11.45 5.83 L 11.33 6.0 L 11.2 6.17 L 11.08 6.33 L 10.95 6.5 L 10.83 6.67 L 10.7 6.83 L 10.58 7.0 L 10.45 7.17 L 10.33 7.33 L 10.2 7.5 L 10.08 7.67 L 9.95 7.83 L 9.83 8.0 L 9.7 8.17 L 9.58 8.33 L 9.45 8.5 L 9.33 8.67 L 9.2 8.83 L 9.08 9.0" fill="none" stroke="#111" stroke-width="1.26" stroke-linecap="round" stroke-linejoin="round"/>
<path d="M 9.08 6.0 L 9.24 6.17 L 9.41 6.33 L 9.58 6.5 L 9.74 6.67 L 9.91 6.83 L 10.08 7.0 L 10.24 7.17 L 10.41 7.33 L 10.58 7.5 L 10.74 7.67 L 10.91 7.83 L 11.08 8.0 L 11.24 8.17 L 11.41 8.33 L 11.58 8.5 L 11.74 8.67 L 11.91 8.83 L 12.08 9.0 L 12.24 9.17 L 12.41 9.33 L 12.58 9.5 L 12.74 9.67 L 12.91 9.83 L 13.08 10.0" fill="none" stroke="#111" stroke-width="1.26" stroke-linecap="round" stroke-linejoin="round"/>
<path d="M 13.08 12.0 L 12.91 12.17 L 12.74 12.33 L 12.58 12.5 L 12.41 12.67 L 12.24 12.83 L 12.08 13.0 L 11.91 13.17 L 11.74 13.33 L 11.58 13.5 L 11.41 13.67 L 11.24 13.83 L 11.08 14.0 L 10.91 14.17 L 10.74 14.33 L 10.58 14.5 L 10.41 14.67 L 10.24 14.83 L 10.08 15.0 L 9.91 15.17 L 9.74 15.33 L 9.58 15.5 L 9.41 15.67 L 9.24 15.83 L 9.08 16.0" fill="none" stroke="#111" stroke-width="1.26" stroke-linecap="round" stroke-linejoin="round"/>
<path d="M 9.08 11.0 L 9.24 11.25 L 9.41 11.5 L 9.58 11.75 L 9.74 12.0 L 9.91 12.25 L 10.08 12.5 L 10.24 12.75 L 10.41 13.0 L 10.58 13.25 L 10.74 13.5 L 10.91 13.75 L 11.08 14.0 L 11.24 14.25 L 11.41 14.5 L 11.58 14.75 L 11.74 15.0 L 11.91 15.25 L 12.08 15.5 L 12.24 15.75 L 12.41 16.0 L 12.58 16.25 L 12.74 16.5 L 12.91 16.75 L 13.08 17.0" fill="none" stroke="#111" stroke-width="1.26" stroke-linecap="round" stroke-linejoin="round"/>
<path d="M 5.08 6.0 L 4.85 6.39 L 4.65 6.8 L 4.48 7.21 L 4.33 7.64 L 4.21 8.07 L 4.11 8.51 L 4.05 8.96 L 4.01 9.41 L 4.0 9.86 L 4.02 10.31 L 4.07 10.76 L 4.14 11.2 L 4.24 11.64 L 4.37 12.08 L 4.53 12.5 L 4.71 12.91 L 4.92 13.31 L 5.15 13.7 L 5.41 14.07 L 5.69 14.42 L 5.99 14.76 L 6.31 15.08 L 6.65 15.37 L 7.01 15.65" fill="none" stroke="#111" stroke-width="1.26" stroke-linecap="round" stroke-linejoin="round"/>
<path d="M 6.08 8.0 L 6.16 8.04 L 6.24 8.08 L 6.33 8.12 L 6.41 8.17 L 6.49 8.21 L 6.58 8.25 L 6.66 8.29 L 6.74 8.33 L 6.83 8.38 L 6.91 8.42 L 6.99 8.46 L 7.08 8.5 L 7.16 8.54 L 7.24 8.58 L 7.33 8.62 L 7.41 8.67 L 7.49 8.71 L 7.58 8.75 L 7.66 8.79 L 7.74 8.83 L 7.83 8.88 L 7.91 8.92 L 7.99 8.96 L 8.08 9.0" fill="none" stroke="#111" stroke-width="1.26" stroke-linecap="round" stroke-linejoin="round"/>
<path d="M 5.08 11.0 L 5.2 11.08 L 5.33 11.17 L 5.45 11.25 L 5.58 11.33 L 5.7 11.42 L 5.83 11.5 L 5.95 11.58 L 6.08 11.67 L 6.2 11.75 L 6.33 11.83 L 6.45 11.92 L 6.58 12.0 L 6.7 12.08 L 6.83 12.17 L 6.95 12.25 L 7.08 12.33 L 7.2 12.42 L 7.33 12.5 L 7.45 12.58 L 7.58 12.67 L 7.7 12.75 L 7.83 12.83 L 7.95 12.92 L 8.08 13.0" fill="none" stroke="#111" stroke-width="1.26" stroke-linecap="round" stroke-linejoin="round"/>
<path d="M 16.08 4.0 L 16.3 4.52 L 16.49 5.06 L 16.66 5.6 L 16.8 6.15 L 16.92 6.7 L 17.01 7.26 L 17.07 7.82 L 17.1 8.39 L 17.11 8.96 L 17.09 9.52 L 17.05 10.09 L 16.97 10.65 L 16.87 11.21 L 16.75 11.76 L 16.6 12.31 L 16.42 12.84 L 16.21 13.37 L 15.99 13.89 L 15.73 14.4 L 15.45 14.89 L 15.15 15.37 L 14.83 15.84 L 14.49 16.29 L 14.12 16.72" fill="none" stroke="#111" stroke-width="1.26" stroke-linecap="round" stroke-linejoin="round"/>
<path d="M 15.08 7.0 L 14.99 7.04 L 14.91 7.08 L 14.83 7.12 L 14.74 7.17 L 14.66 7.21 L 14.58 7.25 L 14.49 7.29 L 14.41 7.33 L 14.33 7.38 L 14.24 7.42 L 14.16 7.46 L 14.08 7.5 L 13.99 7.54 L 13.91 7.58 L 13.83 7.62 L 13.74 7.67 L 13.66 7.71 L 13.58 7.75 L 13.49 7.79 L 13.41 7.83 L 13.33 7.88 L 13.24 7.92 L 13.16 7.96 L 13.08 8.0" fill="none" stroke="#111" stroke-width="1.26" stroke-linecap="round" stroke-linejoin="round"/>
<path d="M 16.08 11.0 L 15.95 11.08 L 15.83 11.17 L 15.7 11.25 L 15.58 11.33 L 15.45 11.42 L 15.33 11.5 L 15.2 11.58 L 15.08 11.67 L 14.95 11.75 L 14.83 11.83 L 14.7 11.92 L 14.58 12.0 L 14.45 12.08 L 14.33 12.17 L 14.2 12.25 L 14.08 12.33 L 13.95 12.42 L 13.83 12.5 L 13.7 12.58 L 13.58 12.67 L 13.45 12.75 L 13.33 12.83 L 13.2 12.92 L 13.08 13.0" fill="none" stroke="#111" stroke-width="1.26" stroke-linecap="round" stroke-linejoin="round"/>
<path d="M 10.08 18.0 L 10.27 18.39 L 10.42 18.79 L 10.53 19.21 L 10.61 19.64 L 10.64 20.07 L 10.64 20.5 L 10.59 20.93 L 10.5 21.35 L 10.38 21.77 L 10.22 22.17 L 10.02 22.55 L 9.78 22.92 L 9.51 23.26 L 9.22 23.57 L 8.89 23.85 L 8.54 24.11 L 8.17 24.33 L 7.77 24.51 L 7.37 24.65 L 6.95 24.76 L 6.52 24.83 L 6.09 24.86 L 5.66 24.84 L 5.23 24.79" fill="none" stroke="#111" stroke-width="1.26" stroke-linecap="round" stroke-linejoin="round"/>
<path d="M 11.08 18.0 L 11.04 18.49 L 11.04 18.97 L 11.09 19.46 L 11.18 19.94 L 11.31 20.41 L 11.49 20.86 L 11.7 21.3 L 11.94 21.72 L 12.23 22.12 L 12.55 22.49 L 12.89 22.83 L 13.27 23.14 L 13.67 23.42 L 14.1 23.66 L 14.54 23.86 L 15.0 24.02 L 15.48 24.14 L 15.96 24.22 L 16.44 24.26 L 16.93 24.25 L 17.42 24.2 L 17.9 24.11 L 18.37 23.98 L 18.82 23.81" fill="none" stroke="#111" stroke-width="1.26" stroke-linecap="round" stroke-linejoin="round"/>
<path d="M 8.08 24.0 L 8.08 24.25 L 8.08 24.5 L 8.08 24.75 L 8.08 25.0 L 8.08 25.25 L 8.08 25.5 L 8.08 25.75 L 8.08 26.0 L 8.08 26.25 L 8.08 26.5 L 8.08 26.75 L 8.08 27.0 L 8.08 27.25 L 8.08 27.5 L 8.08 27.75 L 8.08 28.0 L 8.08 28.25 L 8.08 28.5 L 8.08 28.75 L 8.08 29.0 L 8.08 29.25 L 8.08 29.5 L 8.08 29.75 L 8.08 30.0" fill="none" stroke="#111" stroke-width="1.26" stroke-linecap="round" stroke-linejoin="round"/>
<path d="M 15.08 25.0 L 15.08 25.29 L 15.08 25.58 L 15.08 25.88 L 15.08 26.17 L 15.08 26.46 L 15.08 26.75 L 15.08 27.04 L 15.08 27.33 L 15.08 27.62 L 15.08 27.92 L 15.08 28.21 L 15.08 28.5 L 15.08 28.79 L 15.08 29.08 L 15.08 29.38 L 15.08 29.67 L 15.08 29.96 L 15.08 30.25 L 15.08 30.54 L 15.08 30.83 L 15.08 31.12 L 15.08 31.42 L 15.08 31.71 L 15.08 32.0" fill="none" stroke="#111" stroke-width="1.26" stroke-linecap="round" stroke-linejoin="round"/>
</svg>
