<?xml version="1.0" encoding="UTF-8"?>
<svg xmlns="http://www.w3.org/2000/svg" viewBox="0 0 26.91 26.73">
<path d="M 13.46 4.0 L 12.55 4.21 L 11.65 4.49 L 10.79 4.85 L 9.96 5.27 L 9.16 5.76 L 8.4 6.31 L 7.69 6.92 L 7.04 7.58 L 6.44 8.29 L 5.89 9.06 L 5.41 9.86 L 5.0 10.7 L 4.65 11.56 L 4.38 12.46 L 4.18 13.37 L 4.05 14.3 L 4.0 15.23 L 4.02 16.16 L 4.12 17.09 L 4.29 18.01 L 4.54 18.91 L 4.86 19.79 L 5.24 20.64 L 5.7 21.46" fill="none" stroke="#111" stroke-width="0.94" stroke-linecap="round" stroke-linejoin="round"/>
<path d="M 13.46 4.0 L 14.37 4.21 L 15.26 4.49 L 16.12 4.85 L 16.96 5.27 L 17.75 5.76 L 18.51 6.31 L 19.22 6.92 L 19.87 7.58 L 20.48 8.29 L 21.02 9.06 L 21.5 9.86 L 21.91 10.7 L 22.26 11.56 L 22.53 12.46 L 22.73 13.37 L 22.86 14.3 L 22.91 15.23 L 22.89 16.16 L 22.79 17.09 L 22.62 18.01 L 22.37 18.91 L 22.06 19.79 L 21.67 20.64 L 21.22 21.46" fill="none" stroke="#111" stroke-width="0.94" stroke-linecap="round" stroke-linejoin="round"/>
<path d="M 13.46 9.0 L 13.46 9.25 L 13.46 9.5 L 13.46 9.75 L 13.46 10.0 L 13.46 10.25 L 13.46 10.5 L 13.46 10.75 L 13.46 11.0 L 13.46 11.25 L 13.46 11.5 L 13.46 11.75 L 13.46 12.0 L 13.46 12.25 L 13.46 12.5 L 13.46 12.75 L 13.46 13.0 L 13.46 13.25 L 13.46 13.5 L 13.46 13.75 L 13.46 14.0 L 13.46 14.25 L 13.46 14.5 L 13.46 14.75 L 13.46 15.0 L 13.46 15.0 L 13.62 15.0 L 13.79 15.0 L 13.96 15.0 L 14.12 15.0 L 14.29 15.0 L 14.46 15.0 L 14.62 15.0 L 14.79 15.0 L 14.96 15.0 L 15.12 15.0 L 15.29 15.0 L 15.46 15.0 L 15.62 15.0 L 15.79 15.0 L 15.96 15.0 L 16.12 15.0 L 16.29 15.0 L 16.46 15.0 L 16.62 15.0 L 16.79 15.0 L 16.96 15.0 L 17.12 15.0 L 17.29 15.0 L 17.46 15.0 L 17.46 15.0 L 17.46 14.79 L 17.46 14.58 L 17.46 14.38 L 17.46 14.17 L 17.46 13.96 L 17.46 13.75 L 17.46 13.54 L 17.46 13.33 L 17.46 13.12 L 17.46 12.92 L 17.46 12.71 L 17.46 12.5 L 17.46 12.29 L 17.46 12.08 L 17.46 11.88 L 17.46 11.67 L 17.46 11.46 L 17.46 11.25 L 17.46 11.04 L 17.46 10.83 L 17.46 10.62 L 17.46 10.42 L 17.46 10.21 L 17.46 10.0 L 17.46 10.0 L 17.29 10.0 L 17.12 10.0 L 16.96 10.0 L 16.79 10.0 L 16.62 10.0 L 16.46 10.0 L 16.29 10.0 L 16.12 10.0 L 15.96 10.0 L 15.79 10.0 L 15.62 10.0 L 15.46 10.0 L 15.29 10.0 L 15.12 10.0 L 14.96 10.0 L 14.79 10.0 L 14.62 10.0 L 14.46 10.0 L 14.29 10.0 L 14.12 10.0 L 13.96 10.0 L 13.79 10.0 L 13.62 10.0 L 13.46 10.0" fill="none" stroke="#111" stroke-width="0.94" stroke-linecap="round" stroke-linejoin="round"/>
<path d="M 8.46 17.0 L 8.46 17.21 L 8.46 17.42 L 8.46 17.62 L 8.46 17.83 L 8.46 18.04 L 8.46 18.25 L 8.46 18.46 L 8.46 18.67 L 8.46 18.88 L 8.46 19.08 L 8.46 19.29 L 8.46 19.5 L 8.46 19.71 L 8.46 19.92 L 8.46 20.12 L 8.46 20.33 L 8.46 20.54 L 8.46 20.75 L 8.46 20.96 L 8.46 21.17 L 8.46 21.38 L 8.46 21.58 L 8.46 21.79 L 8.46 22.0" fill="none" stroke="#111" stroke-width="0.94" stroke-linecap="round" stroke-linejoin="round"/>
<path d="M 8.46 17.0 L 8.95 16.91 L 9.46 16.91 L 9.95 16.99 L 10.43 17.16 L 10.87 17.41 L 11.26 17.73 L 11.59 18.12 L 11.84 18.55 L 12.02 19.02 L 12.12 19.52 L 12.12 20.02 L 12.04 20.52 L 11.88 21.0 L 11.64 21.44 L 11.32 21.83 L 10.94 22.17 L 10.51 22.43 L 10.04 22.61 L 9.54 22.71 L 9.04 22.73 L 8.54 22.65 L 8.06 22.49 L 7.62 22.25 L 7.22 21.94" fill="none" stroke="#111" stroke-width="0.94" stroke-linecap="round" stroke-linejoin="round"/>
</svg>
