<?xml version="1.0" encoding="UTF-8"?>
<svg xmlns="http://www.w3.org/2000/svg" viewBox="0 0 20.19 32.00">
<path d="M 9.22 4.0 L 9.26 5.0 L 9.3 6.0 L 9.34 7.0 L 9.38 8.0 L 9.43 9.0 L 9.47 10.0 L 9.51 11.0 L 9.55 12.0 L 9.59 13.0 L 9.63 14.0 L 9.68 15.0 L 9.72 16.0 L 9.76 17.0 L 9.8 18.0 L 9.84 19.0 L 9.88 20.0 L 9.93 21.0 L 9.97 22.0 L 10.01 23.0 L 10.05 24.0 L 10.09 25.0 L 10.13 26.0 L 10.18 27.0 L 10.22 28.0" fill="none" stroke="#111" stroke-width="1.12" stroke-linecap="round" stroke-linejoin="round"/>
<path d="M 9.22 9.0 L 8.41 9.52 L 7.65 10.11 L 6.96 10.77 L 6.32 11.49 L 5.75 12.26 L 5.26 13.08 L 4.84 13.95 L 4.5 14.85 L 4.25 15.77 L 4.08 16.72 L 4.0 17.67 L 4.01 18.63 L 4.1 19.59 L 4.28 20.53 L 4.55 21.45 L 4.9 22.35 L 5.33 23.21 L 5.83 24.02 L 6.41 24.79 L 7.06 25.5 L 7.76 26.15 L 8.53 26.73 L 9.34 27.23 L 10.2 27.67" fill="none" stroke="#111" stroke-width="1.12" stroke-linecap="round" stroke-linejoin="round"/>
<path d="M 10.22 9.0 L 11.05 9.46 L 11.83 9.98 L 12.57 10.58 L 13.25 11.23 L 13.87 11.95 L 14.43 12.72 L 14.91 13.53 L 15.32 14.38 L 15.66 15.27 L 15.92 16.18 L 16.09 17.11 L 16.18 18.05 L 16.19 19.0 L 16.11 19.94 L 15.95 20.87 L 15.71 21.79 L 15.39 22.68 L 15.0 23.54 L 14.53 24.36 L 13.98 25.14 L 13.37 25.86 L 12.7 26.53 L 11.98 27.14 L 11.2 27.68" fill="none" stroke="#111" stroke-width="1.12" stroke-linecap="round" stroke-linejoin="round"/>
<path d="M 6.22 16.0 L 6.55 15.96 L 6.88 15.92 L 7.22 15.88 L 7.55 15.83 L 7.88 15.79 L 8.22 15.75 L 8.55 15.71 L 8.88 15.67 L 9.22 15.62 L 9.55 15.58 L 9.88 15.54 L 10.22 15.5 L 10.55 15.46 L 10.88 15.42 L 11.22 15.38 L 11.55 15.33 L 11.88 15.29 L 12.22 15.25 L 12.55 15.21 L 12.88 15.17 L 13.22 15.12 L 13.55 15.08 L 13.88 15.04 L 14.22 15.0" fill="none" stroke="#111" stroke-width="1.12" stroke-linecap="round" stroke-linejoin="round"/>
<path d="M 5.22 5.0 L 5.38 5.12 L 5.55 5.25 L 5.72 5.38 L 5.88 5.5 L 6.05 5.62 L 6.22 5.75 L 6.38 5.88 L 6.55 6.0 L 6.72 6.12 L 6.88 6.25 L 7.05 6.38 L 7.22 6.5 L 7.38 6.62 L 7.55 6.75 L 7.72 6.88 L 7.88 7.0 L 8.05 7.12 L 8.22 7.25 L 8.38 7.38 L 8.55 7.5 L 8.72 7.62 L 8.88 7.75 L 9.05 7.88 L 9.22 8.0" fill="none" stroke="#111" stroke-width="1.12" stroke-linecap="round" stroke-linejoin="round"/>
<path d="M 13.22 6.0 L 13.09 6.12 L 12.97 6.25 L 12.84 6.38 L 12.72 6.5 L 12.59 6.62 L 12.47 6.75 L 12.34 6.88 L 12.22 7.0 L 12.09 7.12 L 11.97 7.25 L 11.84 7.38 L 11.72 7.5 L 11.59 7.62 L 11.47 7.75 L 11.34 7.88 L 11.22 8.0 L 11.09 8.12 L 10.97 8.25 L 10.84 8.38 L 10.72 8.5 L 10.59 8.62 L 10.47 8.75 L 10.34 8.88 L 10.22 9.0" fill="none" stroke="#111" stroke-width="1.12" stroke-linecap="round" stroke-linejoin="round"/>
<path d="M 5.22 20.0 L 5.63 20.04 L 6.05 20.08 L 6.47 20.12 L 6.88 20.17 L 7.3 20.21 L 7.72 20.25 L 8.13 20.29 L 8.55 20.33 L 8.97 20.38 L 9.38 20.42 L 9.8 20.46 L 10.22 20.5 L 10.63 20.54 L 11.05 20.58 L 11.47 20.62 L 11.88 20.67 L 12.3 20.71 L 12.72 20.75 L 13.13 20.79 L 13.55 20.83 L 13.97 20.88 L 14.38 20.92 L 14.8 20.96 L 15.22 21.0" fill="none" stroke="#111" stroke-width="1.12" stroke-linecap="round" stroke-linejoin="round"/>
</svg>
