<?xml version="1.0" encoding="UTF-8"?>
<svg xmlns="http://www.w3.org/2000/svg" viewBox="0 0 19.05 41.00">
<path d="M 5.0 5.0 L 5.13 5.25 L 5.25 5.5 L 5.38 5.75 L 5.5 6.0 L 5.63 6.25 L 5.75 6.5 L 5.88 6.75 L 6.0 7.0 L 6.13 7.25 L 6.25 7.5 L 6.38 7.75 L 6.5 8.0 L 6.63 8.25 L 6.75 8.5 L 6.88 8.75 L 7.0 9.0 L 7.13 9.25 L 7.25 9.5 L 7.38 9.75 L 7.5 10.0 L 7.63 10.25 L 7.75 10.5 L 7.88 10.75 L 8.0 11.0 L 8.0 11.0 L 8.17 10.71 L 8.33 10.42 L 8.5 10.12 L 8.67 9.83 L 8.83 9.54 L 9.0 9.25 L 9.17 8.96 L 9.33 8.67 L 9.5 8.38 L 9.67 8.08 L 9.83 7.79 L 10.0 7.5 L 10.17 7.21 L 10.33 6.92 L 10.5 6.62 L 10.67 6.33 L 10.83 6.04 L 11.0 5.75 L 11.17 5.46 L 11.33 5.17 L 11.5 4.88 L 11.67 4.58 L 11.83 4.29 L 12.0 4.0" fill="none" stroke="#111" stroke-width="1.44" stroke-linecap="round" stroke-linejoin="round"/>
<path d="M 8.0 11.0 L 8.12 11.58 L 8.25 12.17 L 8.38 12.75 L 8.5 13.33 L 8.62 13.92 L 8.75 14.5 L 8.88 15.08 L 9.0 15.67 L 9.12 16.25 L 9.25 16.83 L 9.38 17.42 L 9.5 18.0 L 9.62 18.58 L 9.75 19.17 L 9.88 19.75 L 10.0 20.33 L 10.12 20.92 L 10.25 21.5 L 10.38 22.08 L 10.5 22.67 L 10.62 23.25 L 10.75 23.83 L 10.88 24.42 L 11.0 25.0 L 11.0 25.0 L 9.99 24.94 L 8.98 25.06 L 8.02 25.36 L 7.12 25.83 L 6.32 26.45 L 5.66 27.21 L 5.13 28.08 L 4.78 29.03 L 4.6 30.03 L 4.61 31.04 L 4.8 32.04 L 5.17 32.98 L 5.71 33.84 L 6.39 34.59 L 7.19 35.2 L 8.1 35.66 L 9.07 35.95 L 10.07 36.05 L 11.08 35.97 L 12.06 35.71 L 12.98 35.28 L 13.8 34.69 L 14.5 33.95 L 15.05 33.11 L 13.0 29.0 L 12.92 29.33 L 12.83 29.67 L 12.75 30.0 L 12.67 30.33 L 12.58 30.67 L 12.5 31.0 L 12.42 31.33 L 12.33 31.67 L 12.25 32.0 L 12.17 32.33 L 12.08 32.67 L 12.0 33.0 L 11.92 33.33 L 11.83 33.67 L 11.75 34.0 L 11.67 34.33 L 11.58 34.67 L 11.5 35.0 L 11.42 35.33 L 11.33 35.67 L 11.25 36.0 L 11.17 36.33 L 11.08 36.67 L 11.0 37.0" fill="none" stroke="#111" stroke-width="1.44" stroke-linecap="round" stroke-linejoin="round"/>
<path d="M 8.0 11.0 L 7.83 11.71 L 7.67 12.42 L 7.5 13.12 L 7.33 13.83 L 7.17 14.54 L 7.0 15.25 L 6.83 15.96 L 6.67 16.67 L 6.5 17.38 L 6.33 18.08 L 6.17 18.79 L 6.0 19.5 L 5.83 20.21 L 5.67 20.92 L 5.5 21.62 L 5.33 22.33 L 5.17 23.04 L 5.0 23.75 L 4.83 24.46 L 4.67 25.17 L 4.5 25.87 L 4.33 26.58 L 4.17 27.29 L 4.0 28.0" fill="none" stroke="#111" stroke-width="1.44" stroke-linecap="round" stroke-linejoin="round"/>
</svg>
