<?xml version="1.0" encoding="UTF-8"?>
<svg xmlns="http://www.w3.org/2000/svg" viewBox="0 0 25.00 34.00">
<path d="M 11.0 4.0 L 10.74 4.49 L 10.52 4.99 L 10.33 5.51 L 10.17 6.04 L 10.05 6.58 L 9.96 7.12 L 9.9 7.67 L 9.88 8.22 L 9.89 8.77 L 9.94 9.32 L 10.02 9.87 L 10.14 10.41 L 10.29 10.94 L 10.47 11.46 L 10.69 11.97 L 10.94 12.46 L 11.22 12.93 L 11.52 13.39 L 11.86 13.83 L 12.22 14.25 L 12.61 14.64 L 13.02 15.0 L 13.46 15.34 L 13.91 15.65 L 14.0 16.0 L 14.45 15.68 L 14.88 15.33 L 15.3 14.96 L 15.69 14.57 L 16.06 14.16 L 16.41 13.73 L 16.73 13.28 L 17.03 12.81 L 17.3 12.33 L 17.55 11.83 L 17.76 11.32 L 17.95 10.8 L 18.11 10.27 L 18.24 9.73 L 18.35 9.19 L 18.42 8.64 L 18.46 8.09 L 18.47 7.53 L 18.45 6.98 L 18.4 6.43 L 18.32 5.88 L 18.22 5.34 L 18.08 4.8 L 17.91 4.27" fill="none" stroke="#111" stroke-width="1.19" stroke-linecap="round" stroke-linejoin="round"/>
<path d="M 21.0 6.0 L 20.62 6.29 L 20.25 6.58 L 19.88 6.88 L 19.5 7.17 L 19.12 7.46 L 18.75 7.75 L 18.38 8.04 L 18.0 8.33 L 17.62 8.62 L 17.25 8.92 L 16.88 9.21 L 16.5 9.5 L 16.12 9.79 L 15.75 10.08 L 15.38 10.37 L 15.0 10.67 L 14.62 10.96 L 14.25 11.25 L 13.88 11.54 L 13.5 11.83 L 13.12 12.12 L 12.75 12.42 L 12.37 12.71 L 12.0 13.0" fill="none" stroke="#111" stroke-width="1.19" stroke-linecap="round" stroke-linejoin="round"/>
<path d="M 9.0 6.0 L 9.29 6.29 L 9.58 6.58 L 9.88 6.88 L 10.17 7.17 L 10.46 7.46 L 10.75 7.75 L 11.04 8.04 L 11.33 8.33 L 11.62 8.62 L 11.92 8.92 L 12.21 9.21 L 12.5 9.5 L 12.79 9.79 L 13.08 10.08 L 13.38 10.38 L 13.67 10.67 L 13.96 10.96 L 14.25 11.25 L 14.54 11.54 L 14.83 11.83 L 15.12 12.12 L 15.42 12.42 L 15.71 12.71 L 16.0 13.0" fill="none" stroke="#111" stroke-width="1.19" stroke-linecap="round" stroke-linejoin="round"/>
<path d="M 13.0 16.0 L 12.76 16.27 L 12.52 16.55 L 12.3 16.83 L 12.09 17.13 L 11.88 17.42 L 11.69 17.73 L 11.5 18.04 L 11.32 18.36 L 11.16 18.68 L 11.01 19.01 L 10.86 19.34 L 10.73 19.68 L 10.61 20.02 L 10.5 20.37 L 10.4 20.72 L 10.31 21.07 L 10.23 21.42 L 10.17 21.78 L 10.11 22.14 L 10.07 22.5 L 10.04 22.86 L 10.02 23.22 L 10.01 23.58 L 10.02 23.95" fill="none" stroke="#111" stroke-width="1.19" stroke-linecap="round" stroke-linejoin="round"/>
<path d="M 14.0 16.0 L 14.11 16.28 L 14.21 16.55 L 14.31 16.83 L 14.4 17.12 L 14.49 17.4 L 14.57 17.69 L 14.64 17.97 L 14.71 18.26 L 14.77 18.55 L 14.83 18.84 L 14.88 19.14 L 14.93 19.43 L 14.97 19.72 L 15.0 20.02 L 15.03 20.31 L 15.05 20.61 L 15.06 20.91 L 15.07 21.2 L 15.07 21.5 L 15.07 21.8 L 15.06 22.09 L 15.05 22.39 L 15.02 22.69 L 15.0 22.98" fill="none" stroke="#111" stroke-width="1.19" stroke-linecap="round" stroke-linejoin="round"/>
<path d="M 9.0 22.0 L 9.22 21.6 L 9.47 21.23 L 9.76 20.88 L 10.07 20.56 L 10.42 20.27 L 10.79 20.02 L 11.19 19.8 L 11.6 19.61 L 12.03 19.47 L 12.46 19.37 L 12.91 19.3 L 13.36 19.28 L 13.81 19.3 L 14.26 19.37 L 14.7 19.47 L 15.13 19.61 L 15.54 19.8 L 15.93 20.02 L 16.3 20.27 L 16.65 20.56 L 16.97 20.88 L 17.25 21.23 L 17.51 21.6 L 17.72 22.0" fill="none" stroke="#111" stroke-width="1.19" stroke-linecap="round" stroke-linejoin="round"/>
<path d="M 4.0 20.0 L 4.21 19.51 L 4.49 19.06 L 4.84 18.65 L 5.25 18.3 L 5.7 18.02 L 6.19 17.81 L 6.71 17.68 L 7.24 17.63 L 7.77 17.65 L 8.3 17.76 L 8.8 17.95 L 9.26 18.21 L 9.68 18.54 L 10.05 18.93 L 10.35 19.37 L 10.58 19.85 L 10.74 20.36 L 10.81 20.89 L 10.81 21.43 L 10.72 21.95 L 10.56 22.46 L 10.32 22.94 L 10.01 23.37 L 9.63 23.76" fill="none" stroke="#111" stroke-width="1.19" stroke-linecap="round" stroke-linejoin="round"/>
<path d="M 9.0 27.0 L 9.21 27.57 L 9.51 28.1 L 9.87 28.58 L 10.31 29.01 L 10.8 29.36 L 11.33 29.65 L 11.91 29.85 L 12.5 29.96 L 13.11 29.99 L 13.71 29.93 L 14.3 29.78 L 14.86 29.55 L 15.38 29.24 L 15.85 28.86 L 16.26 28.41 L 16.6 27.91 L 16.87 27.37 L 17.05 26.79 L 17.15 26.19 L 17.15 25.58 L 17.07 24.98 L 16.91 24.4 L 16.66 23.84 L 16.33 23.33" fill="none" stroke="#111" stroke-width="1.19" stroke-linecap="round" stroke-linejoin="round"/>
<path d="M 10.0 30.0 L 10.29 29.79 L 10.58 29.58 L 10.88 29.38 L 11.17 29.17 L 11.46 28.96 L 11.75 28.75 L 12.04 28.54 L 12.33 28.33 L 12.62 28.12 L 12.92 27.92 L 13.21 27.71 L 13.5 27.5 L 13.79 27.29 L 14.08 27.08 L 14.38 26.88 L 14.67 26.67 L 14.96 26.46 L 15.25 26.25 L 15.54 26.04 L 15.83 25.83 L 16.12 25.62 L 16.42 25.42 L 16.71 25.21 L 17.0 25.0" fill="none" stroke="#111" stroke-width="1.19" stroke-linecap="round" stroke-linejoin="round"/>
<path d="M 7.0 5.0 L 7.11 5.33 L 7.2 5.66 L 7.27 5.99 L 7.32 6.33 L 7.34 6.68 L 7.34 7.02 L 7.33 7.36 L 7.29 7.7 L 7.22 8.04 L 7.14 8.37 L 7.04 8.7 L 6.91 9.02 L 6.77 9.33 L 6.6 9.63 L 6.42 9.92 L 6.22 10.2 L 6.0 10.47 L 5.76 10.72 L 5.51 10.95 L 5.24 11.17 L 4.97 11.37 L 4.67 11.55 L 4.37 11.71 L 4.06 11.86" fill="none" stroke="#111" stroke-width="1.19" stroke-linecap="round" stroke-linejoin="round"/>
</svg>
