<?xml version="1.0" encoding="UTF-8"?>
<svg xmlns="http://www.w3.org/2000/svg" viewBox="0 0 22.91 33.05">
<path d="M 8.0 5.0 L 8.06 5.39 L 8.1 5.78 L 8.13 6.17 L 8.15 6.56 L 8.16 6.95 L 8.15 7.34 L 8.13 7.73 L 8.1 8.12 L 8.06 8.51 L 8.01 8.89 L 7.94 9.28 L 7.86 9.66 L 7.77 10.04 L 7.67 10.42 L 7.55 10.79 L 7.43 11.16 L 7.29 11.53 L 7.14 11.89 L 6.98 12.25 L 6.81 12.6 L 6.62 12.94 L 6.43 13.28 L 6.23 13.62 L 6.01 13.94" fill="none" stroke="#111" stroke-width="1.16" stroke-linecap="round" stroke-linejoin="round"/>
<path d="M 11.0 4.0 L 11.17 4.4 L 11.36 4.79 L 11.57 5.17 L 11.79 5.54 L 12.03 5.89 L 12.29 6.24 L 12.56 6.58 L 12.85 6.9 L 13.15 7.21 L 13.47 7.51 L 13.79 7.79 L 14.13 8.06 L 14.49 8.31 L 14.85 8.55 L 15.22 8.77 L 15.6 8.97 L 16.0 9.15 L 16.4 9.32 L 16.8 9.47 L 17.21 9.6 L 17.63 9.71 L 18.05 9.8 L 18.48 9.88 L 18.91 9.93" fill="none" stroke="#111" stroke-width="1.16" stroke-linecap="round" stroke-linejoin="round"/>
<path d="M 9.0 14.0 L 8.79 14.38 L 8.58 14.75 L 8.38 15.12 L 8.17 15.5 L 7.96 15.88 L 7.75 16.25 L 7.54 16.62 L 7.33 17.0 L 7.12 17.38 L 6.92 17.75 L 6.71 18.12 L 6.5 18.5 L 6.29 18.88 L 6.08 19.25 L 5.87 19.62 L 5.67 20.0 L 5.46 20.38 L 5.25 20.75 L 5.04 21.12 L 4.83 21.5 L 4.62 21.88 L 4.42 22.25 L 4.21 22.62 L 4.0 23.0" fill="none" stroke="#111" stroke-width="1.16" stroke-linecap="round" stroke-linejoin="round"/>
<path d="M 12.0 13.0 L 12.07 13.37 L 12.15 13.73 L 12.26 14.09 L 12.38 14.44 L 12.52 14.78 L 12.68 15.12 L 12.86 15.45 L 13.05 15.77 L 13.26 16.07 L 13.49 16.37 L 13.73 16.65 L 13.99 16.92 L 14.26 17.18 L 14.54 17.42 L 14.84 17.65 L 15.15 17.86 L 15.46 18.05 L 15.79 18.23 L 16.13 18.39 L 16.47 18.53 L 16.82 18.65 L 17.18 18.76 L 17.54 18.84 L 17.91 18.91" fill="none" stroke="#111" stroke-width="1.16" stroke-linecap="round" stroke-linejoin="round"/>
<path d="M 8.0 22.0 L 7.68 22.83 L 7.52 23.71 L 7.52 24.61 L 7.69 25.48 L 8.01 26.32 L 8.47 27.08 L 9.07 27.74 L 9.77 28.29 L 10.57 28.7 L 11.42 28.95 L 12.31 29.05 L 13.2 28.98 L 14.07 28.76 L 14.87 28.38 L 15.6 27.86 L 16.22 27.21 L 16.71 26.47 L 17.06 25.65 L 17.25 24.78 L 17.29 23.88 L 17.16 23.0 L 16.87 22.15 L 16.43 21.38 L 15.86 20.69" fill="none" stroke="#111" stroke-width="1.16" stroke-linecap="round" stroke-linejoin="round"/>
<path d="M 9.0 26.0 L 9.21 25.96 L 9.42 25.92 L 9.62 25.88 L 9.83 25.83 L 10.04 25.79 L 10.25 25.75 L 10.46 25.71 L 10.67 25.67 L 10.88 25.62 L 11.08 25.58 L 11.29 25.54 L 11.5 25.5 L 11.71 25.46 L 11.92 25.42 L 12.12 25.38 L 12.33 25.33 L 12.54 25.29 L 12.75 25.25 L 12.96 25.21 L 13.17 25.17 L 13.37 25.12 L 13.58 25.08 L 13.79 25.04 L 14.0 25.0" fill="none" stroke="#111" stroke-width="1.16" stroke-linecap="round" stroke-linejoin="round"/>
</svg>
