<?xml version="1.0" encoding="UTF-8"?>
<svg xmlns="http://www.w3.org/2000/svg" viewBox="0 0 27.00 19.51">
<path d="M 23.0 4.0 L 22.25 4.04 L 21.5 4.08 L 20.75 4.12 L 20.0 4.17 L 19.25 4.21 L 18.5 4.25 L 17.75 4.29 L 17.0 4.33 L 16.25 4.38 L 15.5 4.42 L 14.75 4.46 L 14.0 4.5 L 13.25 4.54 L 12.5 4.58 L 11.75 4.63 L 11.0 4.67 L 10.25 4.71 L 9.5 4.75 L 8.75 4.79 L 8.0 4.83 L 7.25 4.88 L 6.5 4.92 L 5.75 4.96 L 5.0 5.0 L 5.0 5.0 L 4.96 5.38 L 4.92 5.75 L 4.88 6.12 L 4.83 6.5 L 4.79 6.88 L 4.75 7.25 L 4.71 7.62 L 4.67 8.0 L 4.62 8.38 L 4.58 8.75 L 4.54 9.12 L 4.5 9.5 L 4.46 9.88 L 4.42 10.25 L 4.38 10.62 L 4.33 11.0 L 4.29 11.38 L 4.25 11.75 L 4.21 12.12 L 4.17 12.5 L 4.12 12.88 L 4.08 13.25 L 4.04 13.63 L 4.0 14.0" fill="none" stroke="#111" stroke-width="0.95" stroke-linecap="round" stroke-linejoin="round"/>
<path d="M 11.0 4.0 L 10.54 4.45 L 10.12 4.94 L 9.76 5.47 L 9.44 6.03 L 9.19 6.62 L 8.99 7.23 L 8.85 7.86 L 8.77 8.49 L 8.76 9.14 L 8.81 9.78 L 8.92 10.41 L 9.1 11.03 L 9.33 11.63 L 9.62 12.2 L 9.96 12.75 L 10.36 13.25 L 10.8 13.72 L 11.29 14.14 L 11.82 14.51 L 12.37 14.82 L 12.96 15.09 L 13.57 15.29 L 14.2 15.43 L 14.84 15.51" fill="none" stroke="#111" stroke-width="0.95" stroke-linecap="round" stroke-linejoin="round"/>
<path d="M 14.0 5.0 L 14.42 5.23 L 14.82 5.5 L 15.19 5.8 L 15.54 6.14 L 15.86 6.49 L 16.14 6.88 L 16.4 7.29 L 16.62 7.71 L 16.8 8.16 L 16.95 8.61 L 17.05 9.08 L 17.12 9.56 L 17.15 10.04 L 17.14 10.52 L 17.09 10.99 L 16.99 11.46 L 16.86 11.93 L 16.69 12.37 L 16.49 12.81 L 16.25 13.22 L 15.97 13.62 L 15.66 13.99 L 15.33 14.33 L 14.96 14.64" fill="none" stroke="#111" stroke-width="0.95" stroke-linecap="round" stroke-linejoin="round"/>
<path d="M 22.0 4.0 L 21.79 4.17 L 21.58 4.33 L 21.38 4.5 L 21.17 4.67 L 20.96 4.83 L 20.75 5.0 L 20.54 5.17 L 20.33 5.33 L 20.12 5.5 L 19.92 5.67 L 19.71 5.83 L 19.5 6.0 L 19.29 6.17 L 19.08 6.33 L 18.88 6.5 L 18.67 6.67 L 18.46 6.83 L 18.25 7.0 L 18.04 7.17 L 17.83 7.33 L 17.62 7.5 L 17.42 7.67 L 17.21 7.83 L 17.0 8.0" fill="none" stroke="#111" stroke-width="0.95" stroke-linecap="round" stroke-linejoin="round"/>
<path d="M 10.0 9.0 L 9.75 9.12 L 9.5 9.25 L 9.25 9.38 L 9.0 9.5 L 8.75 9.62 L 8.5 9.75 L 8.25 9.88 L 8.0 10.0 L 7.75 10.12 L 7.5 10.25 L 7.25 10.38 L 7.0 10.5 L 6.75 10.62 L 6.5 10.75 L 6.25 10.88 L 6.0 11.0 L 5.75 11.12 L 5.5 11.25 L 5.25 11.38 L 5.0 11.5 L 4.75 11.62 L 4.5 11.75 L 4.25 11.88 L 4.0 12.0" fill="none" stroke="#111" stroke-width="0.95" stroke-linecap="round" stroke-linejoin="round"/>
<path d="M 13.0 8.0 L 13.0 8.04 L 13.0 8.08 L 13.0 8.12 L 13.0 8.17 L 13.0 8.21 L 13.0 8.25 L 13.0 8.29 L 13.0 8.33 L 13.0 8.38 L 13.0 8.42 L 13.0 8.46 L 13.0 8.5 L 13.0 8.54 L 13.0 8.58 L 13.0 8.62 L 13.0 8.67 L 13.0 8.71 L 13.0 8.75 L 13.0 8.79 L 13.0 8.83 L 13.0 8.88 L 13.0 8.92 L 13.0 8.96 L 13.0 9.0" fill="none" stroke="#111" stroke-width="0.95" stroke-linecap="round" stroke-linejoin="round"/>
</svg>
