<?xml version="1.0" encoding="UTF-8"?>
<svg xmlns="http://www.w3.org/2000/svg" viewBox="0 0 19.31 35.02">
<path d="M 5.0 5.02 L 5.05 5.74 L 5.2 6.44 L 5.45 7.11 L 5.78 7.75 L 6.2 8.33 L 6.7 8.84 L 7.27 9.28 L 7.89 9.64 L 8.55 9.91 L 9.25 10.09 L 9.96 10.17 L 10.67 10.15 L 11.38 10.03 L 12.06 9.81 L 12.71 9.5 L 13.31 9.1 L 13.85 8.63 L 14.31 8.08 L 14.7 7.48 L 14.99 6.82 L 15.2 6.14 L 15.31 5.43 L 15.31 4.71 L 15.22 4.0" fill="none" stroke="#111" stroke-width="1.23" stroke-linecap="round" stroke-linejoin="round"/>
<path d="M 8.0 9.02 L 7.83 9.94 L 7.67 10.86 L 7.5 11.77 L 7.33 12.69 L 7.17 13.61 L 7.0 14.52 L 6.83 15.44 L 6.67 16.36 L 6.5 17.27 L 6.33 18.19 L 6.17 19.11 L 6.0 20.02 L 5.83 20.94 L 5.67 21.86 L 5.5 22.77 L 5.33 23.69 L 5.17 24.61 L 5.0 25.52 L 4.83 26.44 L 4.67 27.36 L 4.5 28.27 L 4.33 29.19 L 4.17 30.11 L 4.0 31.02 L 4.0 31.02 L 4.46 30.94 L 4.92 30.86 L 5.38 30.77 L 5.83 30.69 L 6.29 30.61 L 6.75 30.52 L 7.21 30.44 L 7.67 30.36 L 8.12 30.27 L 8.58 30.19 L 9.04 30.11 L 9.5 30.02 L 9.96 29.94 L 10.42 29.86 L 10.88 29.77 L 11.33 29.69 L 11.79 29.61 L 12.25 29.52 L 12.71 29.44 L 13.17 29.36 L 13.62 29.27 L 14.08 29.19 L 14.54 29.11 L 15.0 29.02 L 15.0 29.02 L 14.7 28.23 L 14.42 27.43 L 14.16 26.63 L 13.93 25.82 L 13.72 25.0 L 13.53 24.17 L 13.36 23.35 L 13.22 22.51 L 13.09 21.68 L 12.99 20.84 L 12.92 20.0 L 12.86 19.15 L 12.83 18.31 L 12.82 17.46 L 12.84 16.62 L 12.88 15.77 L 12.94 14.93 L 13.02 14.09 L 13.13 13.25 L 13.26 12.41 L 13.41 11.58 L 13.59 10.76 L 13.79 9.93 L 14.0 9.12" fill="none" stroke="#111" stroke-width="1.23" stroke-linecap="round" stroke-linejoin="round"/>
<path d="M 8.0 10.02 L 8.21 10.19 L 8.42 10.36 L 8.62 10.52 L 8.83 10.69 L 9.04 10.86 L 9.25 11.02 L 9.46 11.19 L 9.67 11.36 L 9.88 11.52 L 10.08 11.69 L 10.29 11.86 L 10.5 12.02 L 10.71 12.19 L 10.92 12.36 L 11.12 12.52 L 11.33 12.69 L 11.54 12.86 L 11.75 13.02 L 11.96 13.19 L 12.17 13.36 L 12.38 13.52 L 12.58 13.69 L 12.79 13.86 L 13.0 14.02" fill="none" stroke="#111" stroke-width="1.23" stroke-linecap="round" stroke-linejoin="round"/>
<path d="M 8.0 19.02 L 8.04 19.31 L 8.08 19.61 L 8.12 19.9 L 8.17 20.19 L 8.21 20.48 L 8.25 20.77 L 8.29 21.06 L 8.33 21.36 L 8.38 21.65 L 8.42 21.94 L 8.46 22.23 L 8.5 22.52 L 8.54 22.81 L 8.58 23.11 L 8.62 23.4 L 8.67 23.69 L 8.71 23.98 L 8.75 24.27 L 8.79 24.56 L 8.83 24.86 L 8.88 25.15 L 8.92 25.44 L 8.96 25.73 L 9.0 26.02" fill="none" stroke="#111" stroke-width="1.23" stroke-linecap="round" stroke-linejoin="round"/>
<path d="M 11.0 22.02 L 10.92 22.06 L 10.83 22.11 L 10.75 22.15 L 10.67 22.19 L 10.58 22.23 L 10.5 22.27 L 10.42 22.31 L 10.33 22.36 L 10.25 22.4 L 10.17 22.44 L 10.08 22.48 L 10.0 22.52 L 9.92 22.56 L 9.83 22.61 L 9.75 22.65 L 9.67 22.69 L 9.58 22.73 L 9.5 22.77 L 9.42 22.81 L 9.33 22.86 L 9.25 22.9 L 9.17 22.94 L 9.08 22.98 L 9.0 23.02" fill="none" stroke="#111" stroke-width="1.23" stroke-linecap="round" stroke-linejoin="round"/>
</svg>
