<?xml version="1.0" encoding="UTF-8"?>
<svg xmlns="http://www.w3.org/2000/svg" viewBox="0 0 25.42 36.82">
<path d="M 10.0 4.03 L 10.0 4.32 L 10.0 4.61 L 10.0 4.91 L 10.0 5.2 L 10.0 5.49 L 10.0 5.78 L 10.0 6.07 L 10.0 6.36 L 10.0 6.66 L 10.0 6.95 L 10.0 7.24 L 10.0 7.53 L 10.0 7.82 L 10.0 8.11 L 10.0 8.41 L 10.0 8.7 L 10.0 8.99 L 10.0 9.28 L 10.0 9.57 L 10.0 9.86 L 10.0 10.16 L 10.0 10.45 L 10.0 10.74 L 10.0 11.03" fill="none" stroke="#111" stroke-width="1.29" stroke-linecap="round" stroke-linejoin="round"/>
<path d="M 7.0 5.03 L 7.0 5.16 L 7.0 5.28 L 7.0 5.41 L 7.0 5.53 L 7.0 5.66 L 7.0 5.78 L 7.0 5.91 L 7.0 6.03 L 7.0 6.16 L 7.0 6.28 L 7.0 6.41 L 7.0 6.53 L 7.0 6.66 L 7.0 6.78 L 7.0 6.91 L 7.0 7.03 L 7.0 7.16 L 7.0 7.28 L 7.0 7.41 L 7.0 7.53 L 7.0 7.66 L 7.0 7.78 L 7.0 7.91 L 7.0 8.03 L 7.0 8.03 L 7.3 8.29 L 7.62 8.5 L 7.97 8.68 L 8.34 8.81 L 8.72 8.9 L 9.11 8.95 L 9.5 8.94 L 9.89 8.89 L 10.27 8.79 L 10.63 8.65 L 10.98 8.46 L 11.3 8.24 L 11.59 7.97 L 11.84 7.68 L 12.06 7.35 L 12.24 7.01 L 12.38 6.64 L 12.47 6.26 L 12.51 5.87 L 12.51 5.48 L 12.46 5.09 L 12.36 4.71 L 12.22 4.35 L 12.04 4.0" fill="none" stroke="#111" stroke-width="1.29" stroke-linecap="round" stroke-linejoin="round"/>
<path d="M 6.0 11.03 L 5.73 11.7 L 5.59 12.41 L 5.56 13.14 L 5.65 13.85 L 5.87 14.55 L 6.2 15.19 L 6.63 15.77 L 7.15 16.27 L 7.76 16.68 L 8.42 16.97 L 9.12 17.16 L 9.84 17.22 L 10.56 17.16 L 11.26 16.97 L 11.92 16.68 L 12.52 16.27 L 13.05 15.77 L 13.48 15.19 L 13.81 14.55 L 14.02 13.85 L 14.12 13.14 L 14.09 12.41 L 13.94 11.7 L 13.68 11.03 L 13.0 11.03 L 12.71 11.03 L 12.42 11.03 L 12.12 11.03 L 11.83 11.03 L 11.54 11.03 L 11.25 11.03 L 10.96 11.03 L 10.67 11.03 L 10.38 11.03 L 10.08 11.03 L 9.79 11.03 L 9.5 11.03 L 9.21 11.03 L 8.92 11.03 L 8.62 11.03 L 8.33 11.03 L 8.04 11.03 L 7.75 11.03 L 7.46 11.03 L 7.17 11.03 L 6.88 11.03 L 6.58 11.03 L 6.29 11.03 L 6.0 11.03" fill="none" stroke="#111" stroke-width="1.29" stroke-linecap="round" stroke-linejoin="round"/>
<path d="M 8.0 14.03 L 8.17 14.03 L 8.33 14.03 L 8.5 14.03 L 8.67 14.03 L 8.83 14.03 L 9.0 14.03 L 9.17 14.03 L 9.33 14.03 L 9.5 14.03 L 9.67 14.03 L 9.83 14.03 L 10.0 14.03 L 10.17 14.03 L 10.33 14.03 L 10.5 14.03 L 10.67 14.03 L 10.83 14.03 L 11.0 14.03 L 11.17 14.03 L 11.33 14.03 L 11.5 14.03 L 11.67 14.03 L 11.83 14.03 L 12.0 14.03" fill="none" stroke="#111" stroke-width="1.29" stroke-linecap="round" stroke-linejoin="round"/>
<path d="M 9.0 17.03 L 8.96 17.24 L 8.92 17.45 L 8.88 17.66 L 8.83 17.86 L 8.79 18.07 L 8.75 18.28 L 8.71 18.49 L 8.67 18.7 L 8.62 18.91 L 8.58 19.11 L 8.54 19.32 L 8.5 19.53 L 8.46 19.74 L 8.42 19.95 L 8.38 20.16 L 8.33 20.36 L 8.29 20.57 L 8.25 20.78 L 8.21 20.99 L 8.17 21.2 L 8.12 21.41 L 8.08 21.61 L 8.04 21.82 L 8.0 22.03" fill="none" stroke="#111" stroke-width="1.29" stroke-linecap="round" stroke-linejoin="round"/>
<path d="M 11.0 17.03 L 11.04 17.24 L 11.08 17.45 L 11.12 17.66 L 11.17 17.86 L 11.21 18.07 L 11.25 18.28 L 11.29 18.49 L 11.33 18.7 L 11.38 18.91 L 11.42 19.11 L 11.46 19.32 L 11.5 19.53 L 11.54 19.74 L 11.58 19.95 L 11.62 20.16 L 11.67 20.36 L 11.71 20.57 L 11.75 20.78 L 11.79 20.99 L 11.83 21.2 L 11.88 21.41 L 11.92 21.61 L 11.96 21.82 L 12.0 22.03" fill="none" stroke="#111" stroke-width="1.29" stroke-linecap="round" stroke-linejoin="round"/>
<path d="M 4.0 22.03 L 4.46 22.03 L 4.92 22.03 L 5.38 22.03 L 5.83 22.03 L 6.29 22.03 L 6.75 22.03 L 7.21 22.03 L 7.67 22.03 L 8.12 22.03 L 8.58 22.03 L 9.04 22.03 L 9.5 22.03 L 9.96 22.03 L 10.42 22.03 L 10.88 22.03 L 11.33 22.03 L 11.79 22.03 L 12.25 22.03 L 12.71 22.03 L 13.17 22.03 L 13.62 22.03 L 14.08 22.03 L 14.54 22.03 L 15.0 22.03" fill="none" stroke="#111" stroke-width="1.29" stroke-linecap="round" stroke-linejoin="round"/>
<path d="M 16.0 14.03 L 15.59 13.83 L 15.23 13.57 L 14.91 13.24 L 14.64 12.88 L 14.44 12.47 L 14.32 12.03 L 14.26 11.58 L 14.28 11.13 L 14.37 10.69 L 14.54 10.26 L 14.77 9.88 L 15.06 9.53 L 15.41 9.24 L 15.8 9.0 L 16.22 8.84 L 16.66 8.75 L 17.12 8.73 L 17.57 8.78 L 18.0 8.91 L 18.41 9.11 L 18.78 9.37 L 19.1 9.69 L 19.37 10.06 L 19.57 10.47 L 18.0 12.03 L 17.92 12.11 L 17.83 12.2 L 17.75 12.28 L 17.67 12.36 L 17.58 12.45 L 17.5 12.53 L 17.42 12.61 L 17.33 12.7 L 17.25 12.78 L 17.17 12.86 L 17.08 12.95 L 17.0 13.03 L 16.92 13.11 L 16.83 13.2 L 16.75 13.28 L 16.67 13.36 L 16.58 13.45 L 16.5 13.53 L 16.42 13.61 L 16.33 13.7 L 16.25 13.78 L 16.17 13.86 L 16.08 13.95 L 16.0 14.03" fill="none" stroke="#111" stroke-width="1.29" stroke-linecap="round" stroke-linejoin="round"/>
<path d="M 16.0 14.03 L 16.0 14.36 L 16.0 14.7 L 16.0 15.03 L 16.0 15.36 L 16.0 15.7 L 16.0 16.03 L 16.0 16.36 L 16.0 16.7 L 16.0 17.03 L 16.0 17.36 L 16.0 17.7 L 16.0 18.03 L 16.0 18.36 L 16.0 18.7 L 16.0 19.03 L 16.0 19.36 L 16.0 19.7 L 16.0 20.03 L 16.0 20.36 L 16.0 20.7 L 16.0 21.03 L 16.0 21.36 L 16.0 21.7 L 16.0 22.03" fill="none" stroke="#111" stroke-width="1.29" stroke-linecap="round" stroke-linejoin="round"/>
<path d="M 16.0 16.03 L 16.66 15.95 L 17.33 15.97 L 17.99 16.09 L 18.62 16.3 L 19.22 16.61 L 19.77 17.0 L 20.25 17.46 L 20.66 17.99 L 20.99 18.57 L 21.23 19.19 L 21.37 19.85 L 21.42 20.51 L 21.37 21.18 L 21.23 21.83 L 20.99 22.46 L 20.66 23.04 L 20.25 23.57 L 19.77 24.03 L 19.22 24.42 L 18.62 24.72 L 17.99 24.93 L 17.33 25.05 L 16.66 25.07 L 16.0 24.99" fill="none" stroke="#111" stroke-width="1.29" stroke-linecap="round" stroke-linejoin="round"/>
<path d="M 16.0 18.03 L 16.52 18.48 L 17.02 18.95 L 17.5 19.44 L 17.95 19.95 L 18.38 20.49 L 18.78 21.04 L 19.16 21.61 L 19.51 22.2 L 19.83 22.81 L 20.12 23.43 L 20.38 24.06 L 20.61 24.71 L 20.82 25.36 L 20.99 26.03 L 21.13 26.7 L 21.23 27.38 L 21.31 28.06 L 21.35 28.74 L 21.36 29.43 L 21.34 30.11 L 21.28 30.8 L 21.2 31.48 L 21.08 32.15 L 20.93 32.82" fill="none" stroke="#111" stroke-width="1.29" stroke-linecap="round" stroke-linejoin="round"/>
</svg>
