<?xml version="1.0" encoding="UTF-8"?>
<svg xmlns="http://www.w3.org/2000/svg" viewBox="0 0 21.01 32.50">
<path d="M 9.01 4.0 L 9.05 4.62 L 9.09 5.25 L 9.14 5.88 L 9.18 6.5 L 9.22 7.12 L 9.26 7.75 L 9.3 8.38 L 9.34 9.0 L 9.39 9.62 L 9.43 10.25 L 9.47 10.88 L 9.51 11.5 L 9.55 12.12 L 9.59 12.75 L 9.64 13.37 L 9.68 14.0 L 9.72 14.62 L 9.76 15.25 L 9.8 15.88 L 9.84 16.5 L 9.89 17.12 L 9.93 17.75 L 9.97 18.38 L 10.01 19.0" fill="none" stroke="#111" stroke-width="1.14" stroke-linecap="round" stroke-linejoin="round"/>
<path d="M 5.01 6.0 L 5.22 6.21 L 5.43 6.42 L 5.64 6.62 L 5.84 6.83 L 6.05 7.04 L 6.26 7.25 L 6.47 7.46 L 6.68 7.67 L 6.89 7.88 L 7.09 8.08 L 7.3 8.29 L 7.51 8.5 L 7.72 8.71 L 7.93 8.92 L 8.14 9.12 L 8.34 9.33 L 8.55 9.54 L 8.76 9.75 L 8.97 9.96 L 9.18 10.17 L 9.39 10.38 L 9.59 10.58 L 9.8 10.79 L 10.01 11.0 L 10.01 11.0 L 10.14 10.83 L 10.26 10.67 L 10.39 10.5 L 10.51 10.33 L 10.64 10.17 L 10.76 10.0 L 10.89 9.83 L 11.01 9.67 L 11.14 9.5 L 11.26 9.33 L 11.39 9.17 L 11.51 9.0 L 11.64 8.83 L 11.76 8.67 L 11.89 8.5 L 12.01 8.33 L 12.14 8.17 L 12.26 8.0 L 12.39 7.83 L 12.51 7.67 L 12.64 7.5 L 12.76 7.33 L 12.89 7.17 L 13.01 7.0" fill="none" stroke="#111" stroke-width="1.14" stroke-linecap="round" stroke-linejoin="round"/>
<path d="M 17.01 16.0 L 16.13 15.75 L 15.24 15.57 L 14.33 15.49 L 13.41 15.48 L 12.5 15.57 L 11.61 15.73 L 10.73 15.98 L 9.87 16.31 L 9.06 16.71 L 8.28 17.19 L 7.55 17.74 L 6.88 18.36 L 6.26 19.04 L 5.71 19.76 L 5.23 20.54 L 4.82 21.36 L 4.5 22.21 L 4.25 23.09 L 4.08 23.99 L 4.0 24.9 L 4.0 25.81 L 4.09 26.72 L 4.26 27.62 L 4.52 28.5" fill="none" stroke="#111" stroke-width="1.14" stroke-linecap="round" stroke-linejoin="round"/>
<path d="M 17.01 16.0 L 16.97 16.29 L 16.93 16.58 L 16.89 16.88 L 16.84 17.17 L 16.8 17.46 L 16.76 17.75 L 16.72 18.04 L 16.68 18.33 L 16.64 18.62 L 16.59 18.92 L 16.55 19.21 L 16.51 19.5 L 16.47 19.79 L 16.43 20.08 L 16.39 20.38 L 16.34 20.67 L 16.3 20.96 L 16.26 21.25 L 16.22 21.54 L 16.18 21.83 L 16.14 22.12 L 16.09 22.42 L 16.05 22.71 L 16.01 23.0 L 16.01 23.0 L 15.48 23.02 L 14.95 23.05 L 14.42 23.1 L 13.89 23.16 L 13.36 23.23 L 12.83 23.31 L 12.31 23.41 L 11.79 23.52 L 11.27 23.65 L 10.75 23.79 L 10.24 23.93 L 9.73 24.1 L 9.23 24.27 L 8.73 24.46 L 8.24 24.66 L 7.75 24.87 L 7.26 25.09 L 6.79 25.33 L 6.31 25.58 L 5.85 25.84 L 5.39 26.11 L 4.94 26.39 L 4.49 26.68 L 4.05 26.99" fill="none" stroke="#111" stroke-width="1.14" stroke-linecap="round" stroke-linejoin="round"/>
<path d="M 8.01 20.0 L 7.85 20.14 L 7.7 20.29 L 7.57 20.45 L 7.45 20.63 L 7.36 20.81 L 7.28 21.01 L 7.22 21.21 L 7.18 21.42 L 7.16 21.63 L 7.16 21.84 L 7.18 22.05 L 7.22 22.26 L 7.28 22.46 L 7.36 22.65 L 7.46 22.84 L 7.58 23.02 L 7.71 23.18 L 7.86 23.33 L 8.02 23.46 L 8.19 23.58 L 8.38 23.68 L 8.57 23.77 L 8.77 23.83 L 8.98 23.87" fill="none" stroke="#111" stroke-width="1.14" stroke-linecap="round" stroke-linejoin="round"/>
<path d="M 11.01 18.0 L 11.19 18.17 L 11.36 18.36 L 11.5 18.56 L 11.63 18.77 L 11.74 19.0 L 11.84 19.23 L 11.91 19.47 L 11.95 19.71 L 11.98 19.96 L 11.99 20.21 L 11.97 20.46 L 11.93 20.71 L 11.87 20.95 L 11.79 21.19 L 11.69 21.41 L 11.57 21.63 L 11.43 21.84 L 11.27 22.03 L 11.1 22.21 L 10.91 22.38 L 10.71 22.52 L 10.5 22.65 L 10.27 22.76 L 10.04 22.85" fill="none" stroke="#111" stroke-width="1.14" stroke-linecap="round" stroke-linejoin="round"/>
</svg>
