<?xml version="1.0" encoding="UTF-8"?>
<svg xmlns="http://www.w3.org/2000/svg" viewBox="0 0 20.67 35.76">
<path d="M 5.32 4.0 L 5.36 4.5 L 5.4 5.0 L 5.45 5.5 L 5.49 6.0 L 5.53 6.5 L 5.57 7.0 L 5.61 7.5 L 5.65 8.0 L 5.7 8.5 L 5.74 9.0 L 5.78 9.5 L 5.82 10.0 L 5.86 10.5 L 5.9 11.0 L 5.95 11.5 L 5.99 12.0 L 6.03 12.5 L 6.07 13.0 L 6.11 13.5 L 6.15 14.0 L 6.2 14.5 L 6.24 15.0 L 6.28 15.5 L 6.32 16.0" fill="none" stroke="#111" stroke-width="1.25" stroke-linecap="round" stroke-linejoin="round"/>
<path d="M 6.32 5.0 L 7.07 4.9 L 7.82 4.91 L 8.56 5.02 L 9.28 5.25 L 9.95 5.58 L 10.57 6.01 L 11.12 6.53 L 11.58 7.12 L 11.96 7.77 L 12.23 8.47 L 12.39 9.2 L 12.45 9.95 L 12.39 10.7 L 12.23 11.43 L 11.96 12.13 L 11.58 12.79 L 11.12 13.38 L 10.57 13.89 L 9.95 14.32 L 9.28 14.65 L 8.56 14.88 L 7.82 15.0 L 7.07 15.01 L 6.32 14.9" fill="none" stroke="#111" stroke-width="1.25" stroke-linecap="round" stroke-linejoin="round"/>
<path d="M 6.32 9.0 L 6.49 9.0 L 6.65 9.0 L 6.82 9.0 L 6.99 9.0 L 7.15 9.0 L 7.32 9.0 L 7.49 9.0 L 7.65 9.0 L 7.82 9.0 L 7.99 9.0 L 8.15 9.0 L 8.32 9.0 L 8.49 9.0 L 8.65 9.0 L 8.82 9.0 L 8.99 9.0 L 9.15 9.0 L 9.32 9.0 L 9.49 9.0 L 9.65 9.0 L 9.82 9.0 L 9.99 9.0 L 10.15 9.0 L 10.32 9.0" fill="none" stroke="#111" stroke-width="1.25" stroke-linecap="round" stroke-linejoin="round"/>
<path d="M 13.32 18.0 L 12.55 17.56 L 11.72 17.23 L 10.86 17.04 L 9.97 16.97 L 9.08 17.03 L 8.22 17.23 L 7.39 17.55 L 6.62 17.99 L 5.92 18.55 L 5.31 19.2 L 4.81 19.93 L 4.41 20.73 L 4.15 21.57 L 4.01 22.45 L 4.0 23.34 L 4.12 24.22 L 4.38 25.07 L 4.76 25.88 L 5.25 26.62 L 5.85 27.28 L 6.53 27.84 L 7.3 28.3 L 8.12 28.63 L 8.98 28.84" fill="none" stroke="#111" stroke-width="1.25" stroke-linecap="round" stroke-linejoin="round"/>
<path d="M 12.32 18.0 L 12.2 18.17 L 12.07 18.33 L 11.95 18.5 L 11.82 18.67 L 11.7 18.83 L 11.57 19.0 L 11.45 19.17 L 11.32 19.33 L 11.2 19.5 L 11.07 19.67 L 10.95 19.83 L 10.82 20.0 L 10.7 20.17 L 10.57 20.33 L 10.45 20.5 L 10.32 20.67 L 10.2 20.83 L 10.07 21.0 L 9.95 21.17 L 9.82 21.33 L 9.7 21.5 L 9.57 21.67 L 9.45 21.83 L 9.32 22.0" fill="none" stroke="#111" stroke-width="1.25" stroke-linecap="round" stroke-linejoin="round"/>
<path d="M 7.32 21.0 L 7.98 20.81 L 8.66 20.69 L 9.34 20.63 L 10.03 20.64 L 10.71 20.72 L 11.38 20.86 L 12.04 21.07 L 12.67 21.34 L 13.27 21.67 L 13.84 22.05 L 14.37 22.49 L 14.85 22.98 L 15.29 23.51 L 15.67 24.08 L 15.99 24.69 L 16.26 25.32 L 16.46 25.98 L 16.59 26.65 L 16.66 27.33 L 16.67 28.02 L 16.61 28.7 L 16.48 29.38 L 16.28 30.04 L 16.03 30.67" fill="none" stroke="#111" stroke-width="1.25" stroke-linecap="round" stroke-linejoin="round"/>
<path d="M 7.32 24.0 L 7.83 23.9 L 8.34 23.85 L 8.85 23.85 L 9.36 23.9 L 9.86 24.0 L 10.36 24.15 L 10.83 24.35 L 11.28 24.59 L 11.71 24.87 L 12.11 25.2 L 12.47 25.56 L 12.8 25.95 L 13.09 26.38 L 13.33 26.83 L 13.53 27.3 L 13.69 27.79 L 13.79 28.3 L 13.85 28.81 L 13.85 29.32 L 13.81 29.83 L 13.71 30.34 L 13.57 30.83 L 13.38 31.31 L 13.14 31.76" fill="none" stroke="#111" stroke-width="1.25" stroke-linecap="round" stroke-linejoin="round"/>
<path d="M 7.32 25.0 L 7.49 25.21 L 7.65 25.42 L 7.82 25.62 L 7.99 25.83 L 8.15 26.04 L 8.32 26.25 L 8.49 26.46 L 8.65 26.67 L 8.82 26.88 L 8.99 27.08 L 9.15 27.29 L 9.32 27.5 L 9.49 27.71 L 9.65 27.92 L 9.82 28.12 L 9.99 28.33 L 10.15 28.54 L 10.32 28.75 L 10.49 28.96 L 10.65 29.17 L 10.82 29.38 L 10.99 29.58 L 11.15 29.79 L 11.32 30.0" fill="none" stroke="#111" stroke-width="1.25" stroke-linecap="round" stroke-linejoin="round"/>
<path d="M 9.32 18.0 L 9.36 18.08 L 9.4 18.17 L 9.45 18.25 L 9.49 18.33 L 9.53 18.42 L 9.57 18.5 L 9.61 18.58 L 9.65 18.67 L 9.7 18.75 L 9.74 18.83 L 9.78 18.92 L 9.82 19.0 L 9.86 19.08 L 9.9 19.17 L 9.95 19.25 L 9.99 19.33 L 10.03 19.42 L 10.07 19.5 L 10.11 19.58 L 10.15 19.67 L 10.2 19.75 L 10.24 19.83 L 10.28 19.92 L 10.32 20.0" fill="none" stroke="#111" stroke-width="1.25" stroke-linecap="round" stroke-linejoin="round"/>
</svg>
