<?xml version="1.0" encoding="UTF-8"?>
<svg xmlns="http://www.w3.org/2000/svg" viewBox="0 0 20.96 35.76">
<path d="M 10.96 7.0 L 10.96 7.29 L 10.96 7.58 L 10.96 7.88 L 10.96 8.17 L 10.96 8.46 L 10.96 8.75 L 10.96 9.04 L 10.96 9.33 L 10.96 9.62 L 10.96 9.92 L 10.96 10.21 L 10.96 10.5 L 10.96 10.79 L 10.96 11.08 L 10.96 11.38 L 10.96 11.67 L 10.96 11.96 L 10.96 12.25 L 10.96 12.54 L 10.96 12.83 L 10.96 13.12 L 10.96 13.42 L 10.96 13.71 L 10.96 14.0" fill="none" stroke="#111" stroke-width="1.25" stroke-linecap="round" stroke-linejoin="round"/>
<path d="M 15.96 14.0 L 16.0 14.29 L 16.04 14.58 L 16.09 14.88 L 16.13 15.17 L 16.17 15.46 L 16.21 15.75 L 16.25 16.04 L 16.29 16.33 L 16.34 16.62 L 16.38 16.92 L 16.42 17.21 L 16.46 17.5 L 16.5 17.79 L 16.54 18.08 L 16.59 18.38 L 16.63 18.67 L 16.67 18.96 L 16.71 19.25 L 16.75 19.54 L 16.79 19.83 L 16.84 20.12 L 16.88 20.42 L 16.92 20.71 L 16.96 21.0" fill="none" stroke="#111" stroke-width="1.25" stroke-linecap="round" stroke-linejoin="round"/>
<path d="M 16.96 5.0 L 16.29 5.13 L 15.64 5.33 L 15.01 5.6 L 14.42 5.94 L 13.87 6.35 L 13.37 6.82 L 12.93 7.34 L 12.54 7.9 L 12.23 8.51 L 11.98 9.15 L 11.81 9.81 L 11.72 10.49 L 11.7 11.17 L 11.76 11.85 L 11.89 12.52 L 12.11 13.17 L 12.39 13.79 L 12.74 14.38 L 13.15 14.92 L 13.63 15.41 L 14.16 15.85 L 14.73 16.22 L 15.34 16.53 L 15.98 16.77 L 15.96 17.0 L 15.71 17.21 L 15.46 17.42 L 15.21 17.62 L 14.96 17.83 L 14.71 18.04 L 14.46 18.25 L 14.21 18.46 L 13.96 18.67 L 13.71 18.88 L 13.46 19.08 L 13.21 19.29 L 12.96 19.5 L 12.71 19.71 L 12.46 19.92 L 12.21 20.12 L 11.96 20.33 L 11.71 20.54 L 11.46 20.75 L 11.21 20.96 L 10.96 21.17 L 10.71 21.38 L 10.46 21.58 L 10.21 21.79 L 9.96 22.0" fill="none" stroke="#111" stroke-width="1.25" stroke-linecap="round" stroke-linejoin="round"/>
<path d="M 6.96 4.0 L 7.0 4.42 L 7.04 4.83 L 7.09 5.25 L 7.13 5.67 L 7.17 6.08 L 7.21 6.5 L 7.25 6.92 L 7.29 7.33 L 7.34 7.75 L 7.38 8.17 L 7.42 8.58 L 7.46 9.0 L 7.5 9.42 L 7.54 9.83 L 7.59 10.25 L 7.63 10.67 L 7.67 11.08 L 7.71 11.5 L 7.75 11.92 L 7.79 12.33 L 7.84 12.75 L 7.88 13.17 L 7.92 13.58 L 7.96 14.0 L 7.96 14.0 L 7.36 14.58 L 6.8 15.2 L 6.29 15.85 L 5.82 16.55 L 5.4 17.27 L 5.04 18.02 L 4.72 18.79 L 4.46 19.58 L 4.26 20.39 L 4.12 21.22 L 4.03 22.04 L 4.0 22.88 L 4.03 23.71 L 4.12 24.54 L 4.26 25.36 L 4.46 26.17 L 4.72 26.97 L 5.04 27.74 L 5.4 28.49 L 5.82 29.21 L 6.29 29.9 L 6.8 30.56 L 7.36 31.18 L 7.96 31.76" fill="none" stroke="#111" stroke-width="1.25" stroke-linecap="round" stroke-linejoin="round"/>
<path d="M 4.96 19.0 L 5.13 19.33 L 5.29 19.67 L 5.46 20.0 L 5.63 20.33 L 5.79 20.67 L 5.96 21.0 L 6.13 21.33 L 6.29 21.67 L 6.46 22.0 L 6.63 22.33 L 6.79 22.67 L 6.96 23.0 L 7.13 23.33 L 7.29 23.67 L 7.46 24.0 L 7.63 24.33 L 7.79 24.67 L 7.96 25.0 L 8.13 25.33 L 8.29 25.67 L 8.46 26.0 L 8.63 26.33 L 8.79 26.67 L 8.96 27.0" fill="none" stroke="#111" stroke-width="1.25" stroke-linecap="round" stroke-linejoin="round"/>
</svg>
