<?xml version="1.0" encoding="UTF-8"?>
<svg xmlns="http://www.w3.org/2000/svg" viewBox="0 0 22.00 37.79">
<path d="M 18.0 5.0 L 17.15 4.68 L 16.27 4.44 L 15.37 4.28 L 14.47 4.2 L 13.55 4.21 L 12.65 4.31 L 11.76 4.48 L 10.88 4.74 L 10.04 5.08 L 9.23 5.5 L 8.46 5.99 L 7.74 6.55 L 7.08 7.18 L 6.48 7.86 L 5.94 8.6 L 5.48 9.38 L 5.09 10.2 L 4.77 11.06 L 4.54 11.94 L 4.39 12.84 L 4.33 13.74 L 4.35 14.66 L 4.45 15.56 L 4.64 16.45" fill="none" stroke="#111" stroke-width="1.32" stroke-linecap="round" stroke-linejoin="round"/>
<path d="M 11.0 9.0 L 10.81 9.26 L 10.64 9.53 L 10.48 9.81 L 10.35 10.11 L 10.23 10.41 L 10.14 10.72 L 10.07 11.03 L 10.02 11.35 L 9.99 11.67 L 9.98 11.99 L 9.99 12.31 L 10.02 12.63 L 10.08 12.95 L 10.16 13.26 L 10.26 13.57 L 10.38 13.87 L 10.51 14.16 L 10.67 14.44 L 10.85 14.71 L 11.04 14.96 L 11.25 15.21 L 11.48 15.44 L 11.72 15.65 L 11.98 15.84 L 12.0 16.0 L 12.27 15.76 L 12.53 15.51 L 12.77 15.24 L 13.0 14.95 L 13.2 14.65 L 13.39 14.34 L 13.55 14.02 L 13.7 13.69 L 13.82 13.35 L 13.92 13.0 L 14.0 12.64 L 14.06 12.29 L 14.09 11.92 L 14.1 11.56 L 14.09 11.2 L 14.05 10.84 L 14.0 10.48 L 13.92 10.13 L 13.81 9.78 L 13.69 9.44 L 13.54 9.11 L 13.37 8.79 L 13.18 8.48 L 12.98 8.18" fill="none" stroke="#111" stroke-width="1.32" stroke-linecap="round" stroke-linejoin="round"/>
<path d="M 4.0 8.0 L 4.08 8.0 L 4.17 8.0 L 4.25 8.0 L 4.33 8.0 L 4.42 8.0 L 4.5 8.0 L 4.58 8.0 L 4.67 8.0 L 4.75 8.0 L 4.83 8.0 L 4.92 8.0 L 5.0 8.0 L 5.08 8.0 L 5.17 8.0 L 5.25 8.0 L 5.33 8.0 L 5.42 8.0 L 5.5 8.0 L 5.58 8.0 L 5.67 8.0 L 5.75 8.0 L 5.83 8.0 L 5.92 8.0 L 6.0 8.0 L 6.0 8.0 L 6.0 8.04 L 6.0 8.08 L 6.0 8.12 L 6.0 8.17 L 6.0 8.21 L 6.0 8.25 L 6.0 8.29 L 6.0 8.33 L 6.0 8.38 L 6.0 8.42 L 6.0 8.46 L 6.0 8.5 L 6.0 8.54 L 6.0 8.58 L 6.0 8.62 L 6.0 8.67 L 6.0 8.71 L 6.0 8.75 L 6.0 8.79 L 6.0 8.83 L 6.0 8.88 L 6.0 8.92 L 6.0 8.96 L 6.0 9.0" fill="none" stroke="#111" stroke-width="1.32" stroke-linecap="round" stroke-linejoin="round"/>
<path d="M 4.0 16.0 L 4.25 15.88 L 4.5 15.75 L 4.75 15.62 L 5.0 15.5 L 5.25 15.38 L 5.5 15.25 L 5.75 15.12 L 6.0 15.0 L 6.25 14.88 L 6.5 14.75 L 6.75 14.62 L 7.0 14.5 L 7.25 14.38 L 7.5 14.25 L 7.75 14.12 L 8.0 14.0 L 8.25 13.88 L 8.5 13.75 L 8.75 13.62 L 9.0 13.5 L 9.25 13.38 L 9.5 13.25 L 9.75 13.12 L 10.0 13.0" fill="none" stroke="#111" stroke-width="1.32" stroke-linecap="round" stroke-linejoin="round"/>
<path d="M 18.0 6.0 L 17.83 6.25 L 17.67 6.5 L 17.5 6.75 L 17.33 7.0 L 17.17 7.25 L 17.0 7.5 L 16.83 7.75 L 16.67 8.0 L 16.5 8.25 L 16.33 8.5 L 16.17 8.75 L 16.0 9.0 L 15.83 9.25 L 15.67 9.5 L 15.5 9.75 L 15.33 10.0 L 15.17 10.25 L 15.0 10.5 L 14.83 10.75 L 14.67 11.0 L 14.5 11.25 L 14.33 11.5 L 14.17 11.75 L 14.0 12.0" fill="none" stroke="#111" stroke-width="1.32" stroke-linecap="round" stroke-linejoin="round"/>
<path d="M 12.0 5.0 L 12.08 4.96 L 12.17 4.92 L 12.25 4.88 L 12.33 4.83 L 12.42 4.79 L 12.5 4.75 L 12.58 4.71 L 12.67 4.67 L 12.75 4.62 L 12.83 4.58 L 12.92 4.54 L 13.0 4.5 L 13.08 4.46 L 13.17 4.42 L 13.25 4.38 L 13.33 4.33 L 13.42 4.29 L 13.5 4.25 L 13.58 4.21 L 13.67 4.17 L 13.75 4.12 L 13.83 4.08 L 13.92 4.04 L 14.0 4.0 L 14.0 4.0 L 14.0 4.12 L 14.0 4.25 L 14.0 4.38 L 14.0 4.5 L 14.0 4.62 L 14.0 4.75 L 14.0 4.88 L 14.0 5.0 L 14.0 5.12 L 14.0 5.25 L 14.0 5.38 L 14.0 5.5 L 14.0 5.62 L 14.0 5.75 L 14.0 5.88 L 14.0 6.0 L 14.0 6.12 L 14.0 6.25 L 14.0 6.38 L 14.0 6.5 L 14.0 6.62 L 14.0 6.75 L 14.0 6.88 L 14.0 7.0" fill="none" stroke="#111" stroke-width="1.32" stroke-linecap="round" stroke-linejoin="round"/>
<path d="M 9.0 6.0 L 9.08 5.96 L 9.17 5.92 L 9.25 5.88 L 9.33 5.83 L 9.42 5.79 L 9.5 5.75 L 9.58 5.71 L 9.67 5.67 L 9.75 5.62 L 9.83 5.58 L 9.92 5.54 L 10.0 5.5 L 10.08 5.46 L 10.17 5.42 L 10.25 5.38 L 10.33 5.33 L 10.42 5.29 L 10.5 5.25 L 10.58 5.21 L 10.67 5.17 L 10.75 5.12 L 10.83 5.08 L 10.92 5.04 L 11.0 5.0 L 11.0 5.0 L 11.0 5.12 L 11.0 5.25 L 11.0 5.38 L 11.0 5.5 L 11.0 5.62 L 11.0 5.75 L 11.0 5.88 L 11.0 6.0 L 11.0 6.12 L 11.0 6.25 L 11.0 6.38 L 11.0 6.5 L 11.0 6.62 L 11.0 6.75 L 11.0 6.88 L 11.0 7.0 L 11.0 7.12 L 11.0 7.25 L 11.0 7.38 L 11.0 7.5 L 11.0 7.62 L 11.0 7.75 L 11.0 7.88 L 11.0 8.0" fill="none" stroke="#111" stroke-width="1.32" stroke-linecap="round" stroke-linejoin="round"/>
<path d="M 12.0 17.0 L 11.83 17.29 L 11.67 17.58 L 11.5 17.88 L 11.33 18.17 L 11.17 18.46 L 11.0 18.75 L 10.83 19.04 L 10.67 19.33 L 10.5 19.62 L 10.33 19.92 L 10.17 20.21 L 10.0 20.5 L 9.83 20.79 L 9.67 21.08 L 9.5 21.38 L 9.33 21.67 L 9.17 21.96 L 9.0 22.25 L 8.83 22.54 L 8.67 22.83 L 8.5 23.12 L 8.33 23.42 L 8.17 23.71 L 8.0 24.0" fill="none" stroke="#111" stroke-width="1.32" stroke-linecap="round" stroke-linejoin="round"/>
<path d="M 12.0 18.0 L 12.25 18.63 L 12.48 19.26 L 12.68 19.91 L 12.87 20.55 L 13.03 21.21 L 13.17 21.87 L 13.3 22.53 L 13.39 23.2 L 13.47 23.87 L 13.53 24.54 L 13.56 25.22 L 13.57 25.89 L 13.56 26.57 L 13.53 27.24 L 13.47 27.92 L 13.39 28.59 L 13.3 29.25 L 13.17 29.92 L 13.03 30.58 L 12.87 31.23 L 12.68 31.88 L 12.48 32.52 L 12.25 33.16 L 12.0 33.79" fill="none" stroke="#111" stroke-width="1.32" stroke-linecap="round" stroke-linejoin="round"/>
</svg>
