<?xml version="1.0" encoding="UTF-8"?>
<svg xmlns="http://www.w3.org/2000/svg" viewBox="0 0 19.14 36.00">
<path d="M 10.0 4.0 L 10.26 4.47 L 10.49 4.97 L 10.67 5.47 L 10.82 6.0 L 10.94 6.53 L 11.01 7.06 L 11.04 7.6 L 11.03 8.14 L 10.98 8.68 L 10.89 9.22 L 10.77 9.74 L 10.6 10.26 L 10.4 10.76 L 10.16 11.25 L 9.88 11.71 L 9.57 12.16 L 9.23 12.58 L 8.86 12.97 L 8.46 13.34 L 8.03 13.67 L 7.58 13.97 L 7.11 14.24 L 6.62 14.48 L 6.12 14.67" fill="none" stroke="#111" stroke-width="1.26" stroke-linecap="round" stroke-linejoin="round"/>
<path d="M 10.0 12.0 L 10.12 12.08 L 10.25 12.17 L 10.38 12.25 L 10.5 12.33 L 10.62 12.42 L 10.75 12.5 L 10.88 12.58 L 11.0 12.67 L 11.12 12.75 L 11.25 12.83 L 11.38 12.92 L 11.5 13.0 L 11.62 13.08 L 11.75 13.17 L 11.88 13.25 L 12.0 13.33 L 12.12 13.42 L 12.25 13.5 L 12.38 13.58 L 12.5 13.67 L 12.62 13.75 L 12.75 13.83 L 12.88 13.92 L 13.0 14.0" fill="none" stroke="#111" stroke-width="1.26" stroke-linecap="round" stroke-linejoin="round"/>
<path d="M 4.0 9.0 L 4.08 9.33 L 4.17 9.67 L 4.25 10.0 L 4.33 10.33 L 4.42 10.67 L 4.5 11.0 L 4.58 11.33 L 4.67 11.67 L 4.75 12.0 L 4.83 12.33 L 4.92 12.67 L 5.0 13.0 L 5.08 13.33 L 5.17 13.67 L 5.25 14.0 L 5.33 14.33 L 5.42 14.67 L 5.5 15.0 L 5.58 15.33 L 5.67 15.67 L 5.75 16.0 L 5.83 16.33 L 5.92 16.67 L 6.0 17.0 L 6.0 17.0 L 5.8 17.21 L 5.61 17.43 L 5.45 17.67 L 5.3 17.92 L 5.18 18.18 L 5.07 18.45 L 4.99 18.73 L 4.93 19.01 L 4.9 19.3 L 4.89 19.59 L 4.9 19.88 L 4.93 20.16 L 4.99 20.45 L 5.08 20.72 L 5.18 20.99 L 5.31 21.26 L 5.45 21.5 L 5.62 21.74 L 5.81 21.96 L 6.01 22.17 L 6.23 22.36 L 6.46 22.53 L 6.71 22.68 L 6.97 22.81 L 7.0 23.0 L 6.56 23.22 L 6.15 23.48 L 5.77 23.78 L 5.43 24.13 L 5.12 24.51 L 4.85 24.91 L 4.63 25.35 L 4.45 25.8 L 4.33 26.27 L 4.25 26.76 L 4.23 27.24 L 4.26 27.73 L 4.34 28.21 L 4.47 28.68 L 4.65 29.13 L 4.87 29.57 L 5.14 29.97 L 5.45 30.35 L 5.8 30.69 L 6.19 30.99 L 6.6 31.25 L 7.04 31.46 L 7.5 31.63 L 7.97 31.74" fill="none" stroke="#111" stroke-width="1.26" stroke-linecap="round" stroke-linejoin="round"/>
<path d="M 15.0 8.0 L 14.92 8.58 L 14.83 9.17 L 14.75 9.75 L 14.67 10.33 L 14.58 10.92 L 14.5 11.5 L 14.42 12.08 L 14.33 12.67 L 14.25 13.25 L 14.17 13.83 L 14.08 14.42 L 14.0 15.0 L 13.92 15.58 L 13.83 16.17 L 13.75 16.75 L 13.67 17.33 L 13.58 17.92 L 13.5 18.5 L 13.42 19.08 L 13.33 19.67 L 13.25 20.25 L 13.17 20.83 L 13.08 21.42 L 13.0 22.0 L 13.0 22.0 L 13.32 22.21 L 13.61 22.45 L 13.89 22.71 L 14.14 23.0 L 14.37 23.3 L 14.57 23.63 L 14.74 23.97 L 14.89 24.32 L 15.0 24.69 L 15.08 25.06 L 15.13 25.44 L 15.14 25.82 L 15.13 26.2 L 15.08 26.58 L 15.0 26.95 L 14.89 27.31 L 14.74 27.67 L 14.57 28.01 L 14.37 28.33 L 14.14 28.64 L 13.89 28.92 L 13.61 29.19 L 13.32 29.42 L 13.0 29.64" fill="none" stroke="#111" stroke-width="1.26" stroke-linecap="round" stroke-linejoin="round"/>
<path d="M 6.0 17.0 L 6.29 17.0 L 6.58 17.0 L 6.88 17.0 L 7.17 17.0 L 7.46 17.0 L 7.75 17.0 L 8.04 17.0 L 8.33 17.0 L 8.62 17.0 L 8.92 17.0 L 9.21 17.0 L 9.5 17.0 L 9.79 17.0 L 10.08 17.0 L 10.38 17.0 L 10.67 17.0 L 10.96 17.0 L 11.25 17.0 L 11.54 17.0 L 11.83 17.0 L 12.12 17.0 L 12.42 17.0 L 12.71 17.0 L 13.0 17.0" fill="none" stroke="#111" stroke-width="1.26" stroke-linecap="round" stroke-linejoin="round"/>
<path d="M 6.0 20.0 L 6.29 20.0 L 6.58 20.0 L 6.88 20.0 L 7.17 20.0 L 7.46 20.0 L 7.75 20.0 L 8.04 20.0 L 8.33 20.0 L 8.62 20.0 L 8.92 20.0 L 9.21 20.0 L 9.5 20.0 L 9.79 20.0 L 10.08 20.0 L 10.38 20.0 L 10.67 20.0 L 10.96 20.0 L 11.25 20.0 L 11.54 20.0 L 11.83 20.0 L 12.12 20.0 L 12.42 20.0 L 12.71 20.0 L 13.0 20.0" fill="none" stroke="#111" stroke-width="1.26" stroke-linecap="round" stroke-linejoin="round"/>
<path d="M 9.0 29.0 L 9.0 29.12 L 9.0 29.25 L 9.0 29.38 L 9.0 29.5 L 9.0 29.62 L 9.0 29.75 L 9.0 29.88 L 9.0 30.0 L 9.0 30.12 L 9.0 30.25 L 9.0 30.38 L 9.0 30.5 L 9.0 30.62 L 9.0 30.75 L 9.0 30.88 L 9.0 31.0 L 9.0 31.12 L 9.0 31.25 L 9.0 31.38 L 9.0 31.5 L 9.0 31.62 L 9.0 31.75 L 9.0 31.88 L 9.0 32.0" fill="none" stroke="#111" stroke-width="1.26" stroke-linecap="round" stroke-linejoin="round"/>
<path d="M 12.0 27.0 L 12.0 27.21 L 12.0 27.42 L 12.0 27.62 L 12.0 27.83 L 12.0 28.04 L 12.0 28.25 L 12.0 28.46 L 12.0 28.67 L 12.0 28.88 L 12.0 29.08 L 12.0 29.29 L 12.0 29.5 L 12.0 29.71 L 12.0 29.92 L 12.0 30.12 L 12.0 30.33 L 12.0 30.54 L 12.0 30.75 L 12.0 30.96 L 12.0 31.17 L 12.0 31.38 L 12.0 31.58 L 12.0 31.79 L 12.0 32.0" fill="none" stroke="#111" stroke-width="1.26" stroke-linecap="round" stroke-linejoin="round"/>
</svg>
