<?xml version="1.0" encoding="UTF-8"?>
<svg xmlns="http://www.w3.org/2000/svg" viewBox="0 0 23.00 27.00">
<path d="M 5.0 4.0 L 5.21 4.0 L 5.42 4.0 L 5.62 4.0 L 5.83 4.0 L 6.04 4.0 L 6.25 4.0 L 6.46 4.0 L 6.67 4.0 L 6.88 4.0 L 7.08 4.0 L 7.29 4.0 L 7.5 4.0 L 7.71 4.0 L 7.92 4.0 L 8.12 4.0 L 8.33 4.0 L 8.54 4.0 L 8.75 4.0 L 8.96 4.0 L 9.17 4.0 L 9.38 4.0 L 9.58 4.0 L 9.79 4.0 L 10.0 4.0" fill="none" stroke="#111" stroke-width="0.95" stroke-linecap="round" stroke-linejoin="round"/>
<path d="M 4.0 8.0 L 4.25 7.96 L 4.5 7.92 L 4.75 7.88 L 5.0 7.83 L 5.25 7.79 L 5.5 7.75 L 5.75 7.71 L 6.0 7.67 L 6.25 7.62 L 6.5 7.58 L 6.75 7.54 L 7.0 7.5 L 7.25 7.46 L 7.5 7.42 L 7.75 7.38 L 8.0 7.33 L 8.25 7.29 L 8.5 7.25 L 8.75 7.21 L 9.0 7.17 L 9.25 7.12 L 9.5 7.08 L 9.75 7.04 L 10.0 7.0" fill="none" stroke="#111" stroke-width="0.95" stroke-linecap="round" stroke-linejoin="round"/>
<path d="M 6.0 8.0 L 6.0 8.62 L 6.0 9.25 L 6.0 9.88 L 6.0 10.5 L 6.0 11.12 L 6.0 11.75 L 6.0 12.38 L 6.0 13.0 L 6.0 13.62 L 6.0 14.25 L 6.0 14.88 L 6.0 15.5 L 6.0 16.12 L 6.0 16.75 L 6.0 17.38 L 6.0 18.0 L 6.0 18.62 L 6.0 19.25 L 6.0 19.88 L 6.0 20.5 L 6.0 21.12 L 6.0 21.75 L 6.0 22.38 L 6.0 23.0" fill="none" stroke="#111" stroke-width="0.95" stroke-linecap="round" stroke-linejoin="round"/>
<path d="M 9.0 13.0 L 9.04 13.17 L 9.08 13.33 L 9.12 13.5 L 9.17 13.67 L 9.21 13.83 L 9.25 14.0 L 9.29 14.17 L 9.33 14.33 L 9.38 14.5 L 9.42 14.67 L 9.46 14.83 L 9.5 15.0 L 9.54 15.17 L 9.58 15.33 L 9.62 15.5 L 9.67 15.67 L 9.71 15.83 L 9.75 16.0 L 9.79 16.17 L 9.83 16.33 L 9.88 16.5 L 9.92 16.67 L 9.96 16.83 L 10.0 17.0 L 10.0 17.0 L 10.29 17.03 L 10.59 17.04 L 10.88 17.01 L 11.17 16.96 L 11.46 16.88 L 11.73 16.76 L 11.99 16.63 L 12.24 16.46 L 12.47 16.28 L 12.68 16.07 L 12.87 15.84 L 13.03 15.6 L 13.17 15.34 L 13.29 15.06 L 13.37 14.78 L 13.43 14.49 L 13.45 14.19 L 13.45 13.9 L 13.42 13.6 L 13.36 13.32 L 13.27 13.03 L 13.16 12.76 L 13.01 12.5 L 12.84 12.26" fill="none" stroke="#111" stroke-width="0.95" stroke-linecap="round" stroke-linejoin="round"/>
<path d="M 9.0 14.0 L 9.12 14.0 L 9.25 14.0 L 9.38 14.0 L 9.5 14.0 L 9.62 14.0 L 9.75 14.0 L 9.88 14.0 L 10.0 14.0 L 10.12 14.0 L 10.25 14.0 L 10.38 14.0 L 10.5 14.0 L 10.62 14.0 L 10.75 14.0 L 10.88 14.0 L 11.0 14.0 L 11.12 14.0 L 11.25 14.0 L 11.38 14.0 L 11.5 14.0 L 11.62 14.0 L 11.75 14.0 L 11.88 14.0 L 12.0 14.0" fill="none" stroke="#111" stroke-width="0.95" stroke-linecap="round" stroke-linejoin="round"/>
<path d="M 16.0 4.0 L 16.36 4.75 L 16.67 5.52 L 16.95 6.31 L 17.18 7.11 L 17.37 7.92 L 17.53 8.74 L 17.63 9.57 L 17.7 10.4 L 17.72 11.23 L 17.7 12.06 L 17.63 12.89 L 17.52 13.72 L 17.37 14.54 L 17.18 15.35 L 16.94 16.15 L 16.66 16.94 L 16.35 17.71 L 15.99 18.46 L 15.6 19.19 L 15.16 19.9 L 14.69 20.59 L 14.19 21.26 L 13.65 21.89 L 13.08 22.5" fill="none" stroke="#111" stroke-width="0.95" stroke-linecap="round" stroke-linejoin="round"/>
<path d="M 16.0 19.0 L 16.12 19.17 L 16.25 19.33 L 16.38 19.5 L 16.5 19.67 L 16.62 19.83 L 16.75 20.0 L 16.88 20.17 L 17.0 20.33 L 17.12 20.5 L 17.25 20.67 L 17.38 20.83 L 17.5 21.0 L 17.62 21.17 L 17.75 21.33 L 17.88 21.5 L 18.0 21.67 L 18.12 21.83 L 18.25 22.0 L 18.38 22.17 L 18.5 22.33 L 18.62 22.5 L 18.75 22.67 L 18.88 22.83 L 19.0 23.0" fill="none" stroke="#111" stroke-width="0.95" stroke-linecap="round" stroke-linejoin="round"/>
<path d="M 16.0 4.0 L 15.88 4.25 L 15.75 4.5 L 15.62 4.75 L 15.5 5.0 L 15.38 5.25 L 15.25 5.5 L 15.12 5.75 L 15.0 6.0 L 14.88 6.25 L 14.75 6.5 L 14.62 6.75 L 14.5 7.0 L 14.38 7.25 L 14.25 7.5 L 14.12 7.75 L 14.0 8.0 L 13.88 8.25 L 13.75 8.5 L 13.62 8.75 L 13.5 9.0 L 13.38 9.25 L 13.25 9.5 L 13.12 9.75 L 13.0 10.0" fill="none" stroke="#111" stroke-width="0.95" stroke-linecap="round" stroke-linejoin="round"/>
<path d="M 16.0 4.0 L 16.12 4.25 L 16.25 4.5 L 16.38 4.75 L 16.5 5.0 L 16.62 5.25 L 16.75 5.5 L 16.88 5.75 L 17.0 6.0 L 17.12 6.25 L 17.25 6.5 L 17.38 6.75 L 17.5 7.0 L 17.62 7.25 L 17.75 7.5 L 17.88 7.75 L 18.0 8.0 L 18.12 8.25 L 18.25 8.5 L 18.38 8.75 L 18.5 9.0 L 18.62 9.25 L 18.75 9.5 L 18.88 9.75 L 19.0 10.0" fill="none" stroke="#111" stroke-width="0.95" stroke-linecap="round" stroke-linejoin="round"/>
</svg>
