<?xml version="1.0" encoding="UTF-8"?>
<svg xmlns="http://www.w3.org/2000/svg" viewBox="0 0 21.72 37.00">
<path d="M 6.89 14.0 L 7.65 13.57 L 8.48 13.29 L 9.35 13.16 L 10.22 13.19 L 11.08 13.37 L 11.89 13.71 L 12.63 14.18 L 13.26 14.79 L 13.78 15.49 L 14.16 16.28 L 14.4 17.12 L 14.48 18.0 L 14.4 18.87 L 14.16 19.71 L 13.78 20.5 L 13.26 21.21 L 12.63 21.81 L 11.89 22.29 L 11.08 22.62 L 10.22 22.81 L 9.35 22.84 L 8.48 22.71 L 7.65 22.42 L 6.89 21.99" fill="none" stroke="#111" stroke-width="1.30" stroke-linecap="round" stroke-linejoin="round"/>
<path d="M 11.89 8.0 L 11.89 8.29 L 11.89 8.58 L 11.89 8.88 L 11.89 9.17 L 11.89 9.46 L 11.89 9.75 L 11.89 10.04 L 11.89 10.33 L 11.89 10.62 L 11.89 10.92 L 11.89 11.21 L 11.89 11.5 L 11.89 11.79 L 11.89 12.08 L 11.89 12.38 L 11.89 12.67 L 11.89 12.96 L 11.89 13.25 L 11.89 13.54 L 11.89 13.83 L 11.89 14.12 L 11.89 14.42 L 11.89 14.71 L 11.89 15.0 L 11.89 15.0 L 12.39 15.29 L 12.87 15.6 L 13.33 15.95 L 13.77 16.31 L 14.19 16.71 L 14.59 17.12 L 14.96 17.56 L 15.31 18.02 L 15.63 18.5 L 15.93 18.99 L 16.19 19.5 L 16.43 20.03 L 16.64 20.56 L 16.81 21.11 L 16.96 21.67 L 17.07 22.23 L 17.15 22.8 L 17.2 23.37 L 17.21 23.95 L 17.19 24.52 L 17.14 25.1 L 17.06 25.67 L 16.95 26.23 L 16.8 26.79" fill="none" stroke="#111" stroke-width="1.30" stroke-linecap="round" stroke-linejoin="round"/>
<path d="M 6.89 18.0 L 6.89 18.17 L 6.89 18.33 L 6.89 18.5 L 6.89 18.67 L 6.89 18.83 L 6.89 19.0 L 6.89 19.17 L 6.89 19.33 L 6.89 19.5 L 6.89 19.67 L 6.89 19.83 L 6.89 20.0 L 6.89 20.17 L 6.89 20.33 L 6.89 20.5 L 6.89 20.67 L 6.89 20.83 L 6.89 21.0 L 6.89 21.17 L 6.89 21.33 L 6.89 21.5 L 6.89 21.67 L 6.89 21.83 L 6.89 22.0 L 6.89 22.0 L 7.3 21.65 L 7.75 21.36 L 8.24 21.14 L 8.76 20.99 L 9.29 20.91 L 9.83 20.9 L 10.36 20.97 L 10.88 21.12 L 11.37 21.33 L 11.83 21.61 L 12.25 21.95 L 12.61 22.35 L 12.92 22.79 L 13.16 23.27 L 13.33 23.78 L 13.43 24.31 L 13.46 24.84 L 13.41 25.38 L 13.28 25.9 L 13.09 26.4 L 12.83 26.87 L 12.5 27.3 L 12.12 27.68 L 11.69 28.0" fill="none" stroke="#111" stroke-width="1.30" stroke-linecap="round" stroke-linejoin="round"/>
<path d="M 7.89 22.0 L 8.12 22.44 L 8.31 22.91 L 8.47 23.38 L 8.6 23.86 L 8.68 24.36 L 8.73 24.85 L 8.75 25.35 L 8.73 25.85 L 8.67 26.35 L 8.57 26.84 L 8.44 27.32 L 8.27 27.79 L 8.06 28.25 L 7.83 28.69 L 7.56 29.11 L 7.26 29.51 L 6.93 29.89 L 6.58 30.24 L 6.2 30.57 L 5.8 30.86 L 5.37 31.13 L 4.93 31.36 L 4.47 31.56 L 4.0 31.72" fill="none" stroke="#111" stroke-width="1.30" stroke-linecap="round" stroke-linejoin="round"/>
<path d="M 11.89 8.0 L 11.76 7.83 L 11.64 7.67 L 11.51 7.5 L 11.39 7.33 L 11.26 7.17 L 11.14 7.0 L 11.01 6.83 L 10.89 6.67 L 10.76 6.5 L 10.64 6.33 L 10.51 6.17 L 10.39 6.0 L 10.26 5.83 L 10.14 5.67 L 10.01 5.5 L 9.89 5.33 L 9.76 5.17 L 9.64 5.0 L 9.51 4.83 L 9.39 4.67 L 9.26 4.5 L 9.14 4.33 L 9.01 4.17 L 8.89 4.0 L 8.89 4.0 L 8.81 4.12 L 8.72 4.25 L 8.64 4.38 L 8.56 4.5 L 8.47 4.62 L 8.39 4.75 L 8.31 4.88 L 8.22 5.0 L 8.14 5.12 L 8.06 5.25 L 7.97 5.38 L 7.89 5.5 L 7.81 5.62 L 7.72 5.75 L 7.64 5.88 L 7.56 6.0 L 7.47 6.12 L 7.39 6.25 L 7.31 6.38 L 7.22 6.5 L 7.14 6.62 L 7.06 6.75 L 6.97 6.88 L 6.89 7.0" fill="none" stroke="#111" stroke-width="1.30" stroke-linecap="round" stroke-linejoin="round"/>
<path d="M 11.89 7.0 L 11.95 6.68 L 12.05 6.37 L 12.18 6.07 L 12.34 5.78 L 12.52 5.51 L 12.74 5.27 L 12.98 5.05 L 13.24 4.85 L 13.52 4.69 L 13.82 4.55 L 14.13 4.45 L 14.45 4.37 L 14.78 4.34 L 15.1 4.34 L 15.43 4.37 L 15.75 4.43 L 16.06 4.53 L 16.36 4.67 L 16.64 4.83 L 16.91 5.02 L 17.15 5.24 L 17.37 5.48 L 17.56 5.74 L 17.72 6.03" fill="none" stroke="#111" stroke-width="1.30" stroke-linecap="round" stroke-linejoin="round"/>
<path d="M 5.89 8.0 L 5.84 8.37 L 5.84 8.75 L 5.9 9.12 L 6.02 9.47 L 6.18 9.81 L 6.4 10.12 L 6.65 10.39 L 6.95 10.62 L 7.27 10.81 L 7.62 10.94 L 7.99 11.03 L 8.36 11.05 L 8.73 11.03 L 9.1 10.94 L 9.45 10.81 L 9.77 10.62 L 10.07 10.39 L 10.33 10.12 L 10.54 9.81 L 10.7 9.47 L 10.82 9.12 L 10.88 8.75 L 10.88 8.37 L 10.83 8.0" fill="none" stroke="#111" stroke-width="1.30" stroke-linecap="round" stroke-linejoin="round"/>
<path d="M 5.89 9.0 L 6.01 9.0 L 6.14 9.0 L 6.26 9.0 L 6.39 9.0 L 6.51 9.0 L 6.64 9.0 L 6.76 9.0 L 6.89 9.0 L 7.01 9.0 L 7.14 9.0 L 7.26 9.0 L 7.39 9.0 L 7.51 9.0 L 7.64 9.0 L 7.76 9.0 L 7.89 9.0 L 8.01 9.0 L 8.14 9.0 L 8.26 9.0 L 8.39 9.0 L 8.51 9.0 L 8.64 9.0 L 8.76 9.0 L 8.89 9.0" fill="none" stroke="#111" stroke-width="1.30" stroke-linecap="round" stroke-linejoin="round"/>
<path d="M 4.89 26.0 L 4.97 26.17 L 5.06 26.33 L 5.14 26.5 L 5.22 26.67 L 5.31 26.83 L 5.39 27.0 L 5.47 27.17 L 5.56 27.33 L 5.64 27.5 L 5.72 27.67 L 5.81 27.83 L 5.89 28.0 L 5.97 28.17 L 6.06 28.33 L 6.14 28.5 L 6.22 28.67 L 6.31 28.83 L 6.39 29.0 L 6.47 29.17 L 6.56 29.33 L 6.64 29.5 L 6.72 29.67 L 6.81 29.83 L 6.89 30.0" fill="none" stroke="#111" stroke-width="1.30" stroke-linecap="round" stroke-linejoin="round"/>
<path d="M 5.89 31.0 L 5.93 31.08 L 5.97 31.17 L 6.01 31.25 L 6.06 31.33 L 6.1 31.42 L 6.14 31.5 L 6.18 31.58 L 6.22 31.67 L 6.26 31.75 L 6.31 31.83 L 6.35 31.92 L 6.39 32.0 L 6.43 32.08 L 6.47 32.17 L 6.51 32.25 L 6.56 32.33 L 6.6 32.42 L 6.64 32.5 L 6.68 32.58 L 6.72 32.67 L 6.76 32.75 L 6.81 32.83 L 6.85 32.92 L 6.89 33.0" fill="none" stroke="#111" stroke-width="1.30" stroke-linecap="round" stroke-linejoin="round"/>
<path d="M 8.89 28.0 L 8.97 28.04 L 9.06 28.08 L 9.14 28.12 L 9.22 28.17 L 9.31 28.21 L 9.39 28.25 L 9.47 28.29 L 9.56 28.33 L 9.64 28.38 L 9.72 28.42 L 9.81 28.46 L 9.89 28.5 L 9.97 28.54 L 10.06 28.58 L 10.14 28.62 L 10.22 28.67 L 10.31 28.71 L 10.39 28.75 L 10.47 28.79 L 10.56 28.83 L 10.64 28.88 L 10.72 28.92 L 10.81 28.96 L 10.89 29.0" fill="none" stroke="#111" stroke-width="1.30" stroke-linecap="round" stroke-linejoin="round"/>
<path d="M 13.89 8.0 L 13.89 8.12 L 13.89 8.25 L 13.89 8.38 L 13.89 8.5 L 13.89 8.62 L 13.89 8.75 L 13.89 8.88 L 13.89 9.0 L 13.89 9.12 L 13.89 9.25 L 13.89 9.38 L 13.89 9.5 L 13.89 9.62 L 13.89 9.75 L 13.89 9.88 L 13.89 10.0 L 13.89 10.12 L 13.89 10.25 L 13.89 10.38 L 13.89 10.5 L 13.89 10.62 L 13.89 10.75 L 13.89 10.88 L 13.89 11.0 L 13.89 11.0 L 14.01 11.0 L 14.14 11.0 L 14.26 11.0 L 14.39 11.0 L 14.51 11.0 L 14.64 11.0 L 14.76 11.0 L 14.89 11.0 L 15.01 11.0 L 15.14 11.0 L 15.26 11.0 L 15.39 11.0 L 15.51 11.0 L 15.64 11.0 L 15.76 11.0 L 15.89 11.0 L 16.01 11.0 L 16.14 11.0 L 16.26 11.0 L 16.39 11.0 L 16.51 11.0 L 16.64 11.0 L 16.76 11.0 L 16.89 11.0 L 16.89 11.0 L 16.89 10.83 L 16.89 10.67 L 16.89 10.5 L 16.89 10.33 L 16.89 10.17 L 16.89 10.0 L 16.89 9.83 L 16.89 9.67 L 16.89 9.5 L 16.89 9.33 L 16.89 9.17 L 16.89 9.0 L 16.89 8.83 L 16.89 8.67 L 16.89 8.5 L 16.89 8.33 L 16.89 8.17 L 16.89 8.0 L 16.89 7.83 L 16.89 7.67 L 16.89 7.5 L 16.89 7.33 L 16.89 7.17 L 16.89 7.0" fill="none" stroke="#111" stroke-width="1.30" stroke-linecap="round" stroke-linejoin="round"/>
<path d="M 13.89 9.0 L 14.01 8.96 L 14.14 8.92 L 14.26 8.88 L 14.39 8.83 L 14.51 8.79 L 14.64 8.75 L 14.76 8.71 L 14.89 8.67 L 15.01 8.62 L 15.14 8.58 L 15.26 8.54 L 15.39 8.5 L 15.51 8.46 L 15.64 8.42 L 15.76 8.38 L 15.89 8.33 L 16.01 8.29 L 16.14 8.25 L 16.26 8.21 L 16.39 8.17 L 16.51 8.12 L 16.64 8.08 L 16.76 8.04 L 16.89 8.0" fill="none" stroke="#111" stroke-width="1.30" stroke-linecap="round" stroke-linejoin="round"/>
</svg>
