<?xml version="1.0" encoding="UTF-8"?>
<svg xmlns="http://www.w3.org/2000/svg" viewBox="0 0 29.12 35.52">
<path d="M 15.99 4.0 L 14.81 4.31 L 13.66 4.72 L 12.54 5.22 L 11.47 5.8 L 10.45 6.47 L 9.48 7.22 L 8.58 8.04 L 7.74 8.93 L 6.98 9.89 L 6.3 10.9 L 5.69 11.96 L 5.18 13.07 L 4.76 14.21 L 4.42 15.39 L 4.19 16.59 L 4.04 17.8 L 4.0 19.02 L 4.05 20.24 L 4.2 21.45 L 4.45 22.65 L 4.79 23.82 L 5.22 24.97 L 5.74 26.07 L 6.35 27.13" fill="none" stroke="#111" stroke-width="1.24" stroke-linecap="round" stroke-linejoin="round"/>
<path d="M 16.99 4.0 L 17.91 4.63 L 18.78 5.31 L 19.61 6.04 L 20.4 6.83 L 21.13 7.67 L 21.81 8.55 L 22.43 9.47 L 22.99 10.43 L 23.49 11.42 L 23.92 12.44 L 24.29 13.49 L 24.6 14.56 L 24.83 15.64 L 25.0 16.74 L 25.09 17.85 L 25.12 18.96 L 25.08 20.07 L 24.96 21.17 L 24.78 22.27 L 24.53 23.35 L 24.21 24.41 L 23.82 25.45 L 23.37 26.47 L 22.85 27.45" fill="none" stroke="#111" stroke-width="1.24" stroke-linecap="round" stroke-linejoin="round"/>
<path d="M 11.99 13.0 L 12.2 12.83 L 12.4 12.67 L 12.61 12.5 L 12.82 12.33 L 13.03 12.17 L 13.24 12.0 L 13.45 11.83 L 13.65 11.67 L 13.86 11.5 L 14.07 11.33 L 14.28 11.17 L 14.49 11.0 L 14.7 10.83 L 14.9 10.67 L 15.11 10.5 L 15.32 10.33 L 15.53 10.17 L 15.74 10.0 L 15.95 9.83 L 16.15 9.67 L 16.36 9.5 L 16.57 9.33 L 16.78 9.17 L 16.99 9.0 L 16.99 9.0 L 17.07 9.12 L 17.15 9.25 L 17.24 9.38 L 17.32 9.5 L 17.4 9.62 L 17.49 9.75 L 17.57 9.88 L 17.65 10.0 L 17.74 10.12 L 17.82 10.25 L 17.9 10.38 L 17.99 10.5 L 18.07 10.62 L 18.15 10.75 L 18.24 10.88 L 18.32 11.0 L 18.4 11.12 L 18.49 11.25 L 18.57 11.38 L 18.65 11.5 L 18.74 11.62 L 18.82 11.75 L 18.9 11.88 L 18.99 12.0" fill="none" stroke="#111" stroke-width="1.24" stroke-linecap="round" stroke-linejoin="round"/>
<path d="M 16.99 9.0 L 16.95 9.46 L 16.9 9.92 L 16.86 10.38 L 16.82 10.83 L 16.78 11.29 L 16.74 11.75 L 16.7 12.21 L 16.65 12.67 L 16.61 13.12 L 16.57 13.58 L 16.53 14.04 L 16.49 14.5 L 16.45 14.96 L 16.4 15.42 L 16.36 15.88 L 16.32 16.33 L 16.28 16.79 L 16.24 17.25 L 16.2 17.71 L 16.15 18.17 L 16.11 18.62 L 16.07 19.08 L 16.03 19.54 L 15.99 20.0" fill="none" stroke="#111" stroke-width="1.24" stroke-linecap="round" stroke-linejoin="round"/>
<path d="M 11.99 14.0 L 11.99 14.29 L 11.99 14.58 L 11.99 14.88 L 11.99 15.17 L 11.99 15.46 L 11.99 15.75 L 11.99 16.04 L 11.99 16.33 L 11.99 16.62 L 11.99 16.92 L 11.99 17.21 L 11.99 17.5 L 11.99 17.79 L 11.99 18.08 L 11.99 18.38 L 11.99 18.67 L 11.99 18.96 L 11.99 19.25 L 11.99 19.54 L 11.99 19.83 L 11.99 20.12 L 11.99 20.42 L 11.99 20.71 L 11.99 21.0 L 11.99 21.0 L 12.32 21.0 L 12.65 21.0 L 12.99 21.0 L 13.32 21.0 L 13.65 21.0 L 13.99 21.0 L 14.32 21.0 L 14.65 21.0 L 14.99 21.0 L 15.32 21.0 L 15.65 21.0 L 15.99 21.0 L 16.32 21.0 L 16.65 21.0 L 16.99 21.0 L 17.32 21.0 L 17.65 21.0 L 17.99 21.0 L 18.32 21.0 L 18.65 21.0 L 18.99 21.0 L 19.32 21.0 L 19.65 21.0 L 19.99 21.0 L 19.99 21.0 L 19.99 20.71 L 19.99 20.42 L 19.99 20.12 L 19.99 19.83 L 19.99 19.54 L 19.99 19.25 L 19.99 18.96 L 19.99 18.67 L 19.99 18.38 L 19.99 18.08 L 19.99 17.79 L 19.99 17.5 L 19.99 17.21 L 19.99 16.92 L 19.99 16.62 L 19.99 16.33 L 19.99 16.04 L 19.99 15.75 L 19.99 15.46 L 19.99 15.17 L 19.99 14.88 L 19.99 14.58 L 19.99 14.29 L 19.99 14.0 L 19.99 14.0 L 19.65 14.04 L 19.32 14.08 L 18.99 14.12 L 18.65 14.17 L 18.32 14.21 L 17.99 14.25 L 17.65 14.29 L 17.32 14.33 L 16.99 14.38 L 16.65 14.42 L 16.32 14.46 L 15.99 14.5 L 15.65 14.54 L 15.32 14.58 L 14.99 14.62 L 14.65 14.67 L 14.32 14.71 L 13.99 14.75 L 13.65 14.79 L 13.32 14.83 L 12.99 14.88 L 12.65 14.92 L 12.32 14.96 L 11.99 15.0" fill="none" stroke="#111" stroke-width="1.24" stroke-linecap="round" stroke-linejoin="round"/>
<path d="M 11.99 17.0 L 12.32 17.0 L 12.65 17.0 L 12.99 17.0 L 13.32 17.0 L 13.65 17.0 L 13.99 17.0 L 14.32 17.0 L 14.65 17.0 L 14.99 17.0 L 15.32 17.0 L 15.65 17.0 L 15.99 17.0 L 16.32 17.0 L 16.65 17.0 L 16.99 17.0 L 17.32 17.0 L 17.65 17.0 L 17.99 17.0 L 18.32 17.0 L 18.65 17.0 L 18.99 17.0 L 19.32 17.0 L 19.65 17.0 L 19.99 17.0" fill="none" stroke="#111" stroke-width="1.24" stroke-linecap="round" stroke-linejoin="round"/>
<path d="M 11.99 28.0 L 12.28 27.22 L 12.67 26.48 L 13.15 25.8 L 13.71 25.19 L 14.35 24.66 L 15.05 24.21 L 15.81 23.86 L 16.6 23.61 L 17.42 23.46 L 18.25 23.42 L 19.08 23.49 L 19.89 23.67 L 20.68 23.95 L 21.42 24.33 L 22.1 24.8 L 22.72 25.36 L 23.26 25.99 L 23.72 26.69 L 24.08 27.44 L 24.34 28.23 L 24.49 29.05 L 24.54 29.88 L 24.48 30.71 L 24.32 31.52" fill="none" stroke="#111" stroke-width="1.24" stroke-linecap="round" stroke-linejoin="round"/>
</svg>
