<?xml version="1.0" encoding="UTF-8"?>
<svg xmlns="http://www.w3.org/2000/svg" viewBox="0 0 20.12 34.84">
<path d="M 5.57 5.0 L 5.41 5.35 L 5.27 5.71 L 5.14 6.07 L 5.02 6.43 L 4.92 6.8 L 4.83 7.18 L 4.75 7.55 L 4.69 7.93 L 4.64 8.31 L 4.6 8.7 L 4.58 9.08 L 4.58 9.46 L 4.58 9.85 L 4.6 10.23 L 4.64 10.62 L 4.69 11.0 L 4.75 11.38 L 4.83 11.75 L 4.92 12.13 L 5.02 12.5 L 5.14 12.86 L 5.27 13.22 L 5.41 13.58 L 5.57 13.93 L 5.57 14.0 L 6.28 14.26 L 7.0 14.44 L 7.74 14.56 L 8.49 14.6 L 9.24 14.57 L 9.98 14.46 L 10.71 14.28 L 11.42 14.03 L 12.09 13.71 L 12.74 13.33 L 13.34 12.88 L 13.9 12.38 L 14.4 11.82 L 14.85 11.22 L 15.23 10.58 L 15.55 9.9 L 15.8 9.19 L 15.98 8.46 L 16.09 7.72 L 16.12 6.97 L 16.08 6.22 L 15.96 5.48 L 15.78 4.76 L 15.52 4.05 L 15.57 4.0 L 15.15 4.04 L 14.74 4.08 L 14.32 4.12 L 13.9 4.17 L 13.49 4.21 L 13.07 4.25 L 12.65 4.29 L 12.24 4.33 L 11.82 4.38 L 11.4 4.42 L 10.99 4.46 L 10.57 4.5 L 10.15 4.54 L 9.74 4.58 L 9.32 4.62 L 8.9 4.67 L 8.49 4.71 L 8.07 4.75 L 7.65 4.79 L 7.24 4.83 L 6.82 4.88 L 6.4 4.92 L 5.99 4.96 L 5.57 5.0" fill="none" stroke="#111" stroke-width="1.22" stroke-linecap="round" stroke-linejoin="round"/>
<path d="M 4.57 9.0 L 5.03 8.96 L 5.49 8.92 L 5.95 8.88 L 6.4 8.83 L 6.86 8.79 L 7.32 8.75 L 7.78 8.71 L 8.24 8.67 L 8.7 8.62 L 9.15 8.58 L 9.61 8.54 L 10.07 8.5 L 10.53 8.46 L 10.99 8.42 L 11.45 8.38 L 11.9 8.33 L 12.36 8.29 L 12.82 8.25 L 13.28 8.21 L 13.74 8.17 L 14.2 8.12 L 14.65 8.08 L 15.11 8.04 L 15.57 8.0" fill="none" stroke="#111" stroke-width="1.22" stroke-linecap="round" stroke-linejoin="round"/>
<path d="M 5.57 15.0 L 5.22 15.65 L 4.91 16.33 L 4.64 17.03 L 4.42 17.74 L 4.24 18.46 L 4.11 19.19 L 4.03 19.93 L 4.0 20.67 L 4.01 21.42 L 4.08 22.16 L 4.19 22.9 L 4.34 23.62 L 4.55 24.34 L 4.8 25.04 L 5.09 25.72 L 5.43 26.39 L 5.81 27.03 L 6.23 27.64 L 6.68 28.23 L 7.18 28.78 L 7.71 29.31 L 8.27 29.79 L 8.86 30.24 L 9.48 30.65" fill="none" stroke="#111" stroke-width="1.22" stroke-linecap="round" stroke-linejoin="round"/>
<path d="M 11.57 15.0 L 11.82 15.65 L 12.04 16.31 L 12.23 16.98 L 12.39 17.65 L 12.53 18.33 L 12.63 19.02 L 12.71 19.71 L 12.75 20.4 L 12.77 21.1 L 12.76 21.79 L 12.72 22.48 L 12.64 23.18 L 12.54 23.86 L 12.41 24.55 L 12.25 25.22 L 12.07 25.89 L 11.85 26.55 L 11.61 27.2 L 11.34 27.84 L 11.04 28.47 L 10.72 29.08 L 10.37 29.68 L 9.99 30.27 L 9.59 30.84" fill="none" stroke="#111" stroke-width="1.22" stroke-linecap="round" stroke-linejoin="round"/>
<path d="M 5.57 20.0 L 5.82 20.0 L 6.07 20.0 L 6.32 20.0 L 6.57 20.0 L 6.82 20.0 L 7.07 20.0 L 7.32 20.0 L 7.57 20.0 L 7.82 20.0 L 8.07 20.0 L 8.32 20.0 L 8.57 20.0 L 8.82 20.0 L 9.07 20.0 L 9.32 20.0 L 9.57 20.0 L 9.82 20.0 L 10.07 20.0 L 10.32 20.0 L 10.57 20.0 L 10.82 20.0 L 11.07 20.0 L 11.32 20.0 L 11.57 20.0" fill="none" stroke="#111" stroke-width="1.22" stroke-linecap="round" stroke-linejoin="round"/>
<path d="M 5.57 23.0 L 5.82 23.0 L 6.07 23.0 L 6.32 23.0 L 6.57 23.0 L 6.82 23.0 L 7.07 23.0 L 7.32 23.0 L 7.57 23.0 L 7.82 23.0 L 8.07 23.0 L 8.32 23.0 L 8.57 23.0 L 8.82 23.0 L 9.07 23.0 L 9.32 23.0 L 9.57 23.0 L 9.82 23.0 L 10.07 23.0 L 10.32 23.0 L 10.57 23.0 L 10.82 23.0 L 11.07 23.0 L 11.32 23.0 L 11.57 23.0" fill="none" stroke="#111" stroke-width="1.22" stroke-linecap="round" stroke-linejoin="round"/>
</svg>
