<?xml version="1.0" encoding="UTF-8"?>
<svg xmlns="http://www.w3.org/2000/svg" viewBox="0 0 26.00 32.40">
<path d="M 17.0 4.0 L 16.31 4.85 L 15.67 5.75 L 15.09 6.67 L 14.55 7.63 L 14.07 8.61 L 13.64 9.62 L 13.27 10.65 L 12.96 11.7 L 12.71 12.77 L 12.51 13.85 L 12.38 14.94 L 12.3 16.03 L 12.29 17.13 L 12.34 18.22 L 12.44 19.31 L 12.61 20.39 L 12.84 21.47 L 13.13 22.52 L 13.47 23.57 L 13.87 24.59 L 14.33 25.58 L 14.84 26.55 L 15.41 27.49 L 16.02 28.4" fill="none" stroke="#111" stroke-width="1.13" stroke-linecap="round" stroke-linejoin="round"/>
<path d="M 17.0 4.0 L 17.21 4.17 L 17.42 4.33 L 17.62 4.5 L 17.83 4.67 L 18.04 4.83 L 18.25 5.0 L 18.46 5.17 L 18.67 5.33 L 18.88 5.5 L 19.08 5.67 L 19.29 5.83 L 19.5 6.0 L 19.71 6.17 L 19.92 6.33 L 20.12 6.5 L 20.33 6.67 L 20.54 6.83 L 20.75 7.0 L 20.96 7.17 L 21.17 7.33 L 21.38 7.5 L 21.58 7.67 L 21.79 7.83 L 22.0 8.0" fill="none" stroke="#111" stroke-width="1.13" stroke-linecap="round" stroke-linejoin="round"/>
<path d="M 19.0 6.0 L 18.63 6.61 L 18.3 7.25 L 18.0 7.9 L 17.75 8.57 L 17.53 9.25 L 17.35 9.95 L 17.21 10.65 L 17.12 11.36 L 17.06 12.07 L 17.05 12.79 L 17.07 13.5 L 17.14 14.22 L 17.25 14.92 L 17.4 15.62 L 17.59 16.31 L 17.82 16.99 L 18.09 17.66 L 18.4 18.3 L 18.74 18.93 L 19.12 19.54 L 19.53 20.12 L 19.98 20.68 L 20.46 21.22 L 20.97 21.72" fill="none" stroke="#111" stroke-width="1.13" stroke-linecap="round" stroke-linejoin="round"/>
<path d="M 22.0 8.0 L 21.88 8.25 L 21.75 8.5 L 21.62 8.75 L 21.5 9.0 L 21.38 9.25 L 21.25 9.5 L 21.12 9.75 L 21.0 10.0 L 20.88 10.25 L 20.75 10.5 L 20.62 10.75 L 20.5 11.0 L 20.38 11.25 L 20.25 11.5 L 20.12 11.75 L 20.0 12.0 L 19.88 12.25 L 19.75 12.5 L 19.62 12.75 L 19.5 13.0 L 19.38 13.25 L 19.25 13.5 L 19.12 13.75 L 19.0 14.0" fill="none" stroke="#111" stroke-width="1.13" stroke-linecap="round" stroke-linejoin="round"/>
<path d="M 15.0 8.0 L 15.21 8.12 L 15.42 8.25 L 15.62 8.38 L 15.83 8.5 L 16.04 8.62 L 16.25 8.75 L 16.46 8.88 L 16.67 9.0 L 16.88 9.12 L 17.08 9.25 L 17.29 9.38 L 17.5 9.5 L 17.71 9.62 L 17.92 9.75 L 18.12 9.88 L 18.33 10.0 L 18.54 10.12 L 18.75 10.25 L 18.96 10.38 L 19.17 10.5 L 19.38 10.62 L 19.58 10.75 L 19.79 10.88 L 20.0 11.0" fill="none" stroke="#111" stroke-width="1.13" stroke-linecap="round" stroke-linejoin="round"/>
<path d="M 19.0 17.0 L 18.96 17.17 L 18.92 17.33 L 18.88 17.5 L 18.83 17.67 L 18.79 17.83 L 18.75 18.0 L 18.71 18.17 L 18.67 18.33 L 18.62 18.5 L 18.58 18.67 L 18.54 18.83 L 18.5 19.0 L 18.46 19.17 L 18.42 19.33 L 18.38 19.5 L 18.33 19.67 L 18.29 19.83 L 18.25 20.0 L 18.21 20.17 L 18.17 20.33 L 18.12 20.5 L 18.08 20.67 L 18.04 20.83 L 18.0 21.0" fill="none" stroke="#111" stroke-width="1.13" stroke-linecap="round" stroke-linejoin="round"/>
<path d="M 21.0 23.0 L 20.83 23.21 L 20.67 23.42 L 20.5 23.62 L 20.33 23.83 L 20.17 24.04 L 20.0 24.25 L 19.83 24.46 L 19.67 24.67 L 19.5 24.88 L 19.33 25.08 L 19.17 25.29 L 19.0 25.5 L 18.83 25.71 L 18.67 25.92 L 18.5 26.12 L 18.33 26.33 L 18.17 26.54 L 18.0 26.75 L 17.83 26.96 L 17.67 27.17 L 17.5 27.38 L 17.33 27.58 L 17.17 27.79 L 17.0 28.0" fill="none" stroke="#111" stroke-width="1.13" stroke-linecap="round" stroke-linejoin="round"/>
<path d="M 20.0 21.0 L 19.79 21.08 L 19.58 21.17 L 19.38 21.25 L 19.17 21.33 L 18.96 21.42 L 18.75 21.5 L 18.54 21.58 L 18.33 21.67 L 18.12 21.75 L 17.92 21.83 L 17.71 21.92 L 17.5 22.0 L 17.29 22.08 L 17.08 22.17 L 16.88 22.25 L 16.67 22.33 L 16.46 22.42 L 16.25 22.5 L 16.04 22.58 L 15.83 22.67 L 15.62 22.75 L 15.42 22.83 L 15.21 22.92 L 15.0 23.0" fill="none" stroke="#111" stroke-width="1.13" stroke-linecap="round" stroke-linejoin="round"/>
<path d="M 19.0 17.0 L 18.83 17.08 L 18.67 17.17 L 18.5 17.25 L 18.33 17.33 L 18.17 17.42 L 18.0 17.5 L 17.83 17.58 L 17.67 17.67 L 17.5 17.75 L 17.33 17.83 L 17.17 17.92 L 17.0 18.0 L 16.83 18.08 L 16.67 18.17 L 16.5 18.25 L 16.33 18.33 L 16.17 18.42 L 16.0 18.5 L 15.83 18.58 L 15.67 18.67 L 15.5 18.75 L 15.33 18.83 L 15.17 18.92 L 15.0 19.0" fill="none" stroke="#111" stroke-width="1.13" stroke-linecap="round" stroke-linejoin="round"/>
<path d="M 9.0 5.0 L 9.06 5.8 L 9.11 6.61 L 9.14 7.42 L 9.15 8.22 L 9.15 9.03 L 9.13 9.84 L 9.09 10.64 L 9.04 11.45 L 8.97 12.25 L 8.89 13.05 L 8.78 13.85 L 8.67 14.65 L 8.53 15.45 L 8.38 16.24 L 8.22 17.03 L 8.03 17.82 L 7.84 18.6 L 7.62 19.38 L 7.39 20.15 L 7.15 20.92 L 6.89 21.68 L 6.61 22.44 L 6.32 23.19 L 6.01 23.94" fill="none" stroke="#111" stroke-width="1.13" stroke-linecap="round" stroke-linejoin="round"/>
<path d="M 8.0 17.0 L 8.12 17.21 L 8.25 17.42 L 8.38 17.62 L 8.5 17.83 L 8.62 18.04 L 8.75 18.25 L 8.88 18.46 L 9.0 18.67 L 9.12 18.88 L 9.25 19.08 L 9.38 19.29 L 9.5 19.5 L 9.62 19.71 L 9.75 19.92 L 9.88 20.12 L 10.0 20.33 L 10.12 20.54 L 10.25 20.75 L 10.38 20.96 L 10.5 21.17 L 10.62 21.38 L 10.75 21.58 L 10.88 21.79 L 11.0 22.0" fill="none" stroke="#111" stroke-width="1.13" stroke-linecap="round" stroke-linejoin="round"/>
<path d="M 4.0 23.0 L 4.38 22.96 L 4.75 22.92 L 5.12 22.88 L 5.5 22.83 L 5.88 22.79 L 6.25 22.75 L 6.62 22.71 L 7.0 22.67 L 7.38 22.62 L 7.75 22.58 L 8.12 22.54 L 8.5 22.5 L 8.88 22.46 L 9.25 22.42 L 9.62 22.38 L 10.0 22.33 L 10.38 22.29 L 10.75 22.25 L 11.12 22.21 L 11.5 22.17 L 11.88 22.12 L 12.25 22.08 L 12.63 22.04 L 13.0 22.0" fill="none" stroke="#111" stroke-width="1.13" stroke-linecap="round" stroke-linejoin="round"/>
<path d="M 6.0 14.0 L 6.12 13.75 L 6.25 13.5 L 6.38 13.25 L 6.5 13.0 L 6.62 12.75 L 6.75 12.5 L 6.88 12.25 L 7.0 12.0 L 7.12 11.75 L 7.25 11.5 L 7.38 11.25 L 7.5 11.0 L 7.62 10.75 L 7.75 10.5 L 7.88 10.25 L 8.0 10.0 L 8.12 9.75 L 8.25 9.5 L 8.38 9.25 L 8.5 9.0 L 8.62 8.75 L 8.75 8.5 L 8.88 8.25 L 9.0 8.0 L 9.0 8.0 L 9.12 8.21 L 9.25 8.42 L 9.38 8.62 L 9.5 8.83 L 9.62 9.04 L 9.75 9.25 L 9.88 9.46 L 10.0 9.67 L 10.12 9.88 L 10.25 10.08 L 10.38 10.29 L 10.5 10.5 L 10.62 10.71 L 10.75 10.92 L 10.88 11.12 L 11.0 11.33 L 11.12 11.54 L 11.25 11.75 L 11.38 11.96 L 11.5 12.17 L 11.62 12.38 L 11.75 12.58 L 11.88 12.79 L 12.0 13.0" fill="none" stroke="#111" stroke-width="1.13" stroke-linecap="round" stroke-linejoin="round"/>
</svg>
