<?xml version="1.0" encoding="UTF-8"?>
<svg xmlns="http://www.w3.org/2000/svg" viewBox="0 0 21.00 33.84">
<path d="M 7.0 5.0 L 7.29 4.96 L 7.58 4.92 L 7.88 4.88 L 8.17 4.83 L 8.46 4.79 L 8.75 4.75 L 9.04 4.71 L 9.33 4.67 L 9.62 4.62 L 9.92 4.58 L 10.21 4.54 L 10.5 4.5 L 10.79 4.46 L 11.08 4.42 L 11.38 4.38 L 11.67 4.33 L 11.96 4.29 L 12.25 4.25 L 12.54 4.21 L 12.83 4.17 L 13.12 4.12 L 13.42 4.08 L 13.71 4.04 L 14.0 4.0 L 14.0 4.0 L 14.12 4.45 L 14.2 4.92 L 14.23 5.39 L 14.22 5.85 L 14.16 6.32 L 14.06 6.78 L 13.91 7.22 L 13.71 7.65 L 13.48 8.06 L 13.21 8.44 L 12.9 8.8 L 12.56 9.12 L 12.19 9.41 L 11.79 9.66 L 11.37 9.87 L 10.93 10.04 L 10.48 10.16 L 10.02 10.24 L 9.55 10.27 L 9.08 10.26 L 8.61 10.2 L 8.15 10.1 L 7.71 9.95 L 7.28 9.76" fill="none" stroke="#111" stroke-width="1.18" stroke-linecap="round" stroke-linejoin="round"/>
<path d="M 9.0 5.0 L 9.33 5.29 L 9.67 5.58 L 10.0 5.88 L 10.33 6.17 L 10.67 6.46 L 11.0 6.75 L 11.33 7.04 L 11.67 7.33 L 12.0 7.62 L 12.33 7.92 L 12.67 8.21 L 13.0 8.5 L 13.33 8.79 L 13.67 9.08 L 14.0 9.38 L 14.33 9.67 L 14.67 9.96 L 15.0 10.25 L 15.33 10.54 L 15.67 10.83 L 16.0 11.12 L 16.33 11.42 L 16.67 11.71 L 17.0 12.0" fill="none" stroke="#111" stroke-width="1.18" stroke-linecap="round" stroke-linejoin="round"/>
<path d="M 6.0 10.0 L 6.0 10.33 L 6.0 10.67 L 6.0 11.0 L 6.0 11.33 L 6.0 11.67 L 6.0 12.0 L 6.0 12.33 L 6.0 12.67 L 6.0 13.0 L 6.0 13.33 L 6.0 13.67 L 6.0 14.0 L 6.0 14.33 L 6.0 14.67 L 6.0 15.0 L 6.0 15.33 L 6.0 15.67 L 6.0 16.0 L 6.0 16.33 L 6.0 16.67 L 6.0 17.0 L 6.0 17.33 L 6.0 17.67 L 6.0 18.0 L 6.0 18.0 L 6.43 17.99 L 6.85 18.01 L 7.27 18.07 L 7.69 18.16 L 8.1 18.28 L 8.49 18.43 L 8.88 18.61 L 9.25 18.82 L 9.6 19.06 L 9.93 19.32 L 10.25 19.61 L 10.54 19.92 L 10.8 20.26 L 11.04 20.61 L 11.25 20.98 L 11.43 21.37 L 11.58 21.76 L 11.7 22.17 L 11.79 22.59 L 11.84 23.01 L 11.87 23.43 L 11.86 23.86 L 11.82 24.28 L 11.74 24.7" fill="none" stroke="#111" stroke-width="1.18" stroke-linecap="round" stroke-linejoin="round"/>
<path d="M 7.0 10.0 L 7.48 10.29 L 7.93 10.61 L 8.37 10.96 L 8.78 11.34 L 9.16 11.75 L 9.52 12.17 L 9.85 12.62 L 10.15 13.09 L 10.42 13.58 L 10.66 14.09 L 10.86 14.61 L 11.03 15.14 L 11.17 15.68 L 11.27 16.23 L 11.34 16.78 L 11.36 17.34 L 11.36 17.9 L 11.32 18.46 L 11.24 19.01 L 11.12 19.55 L 10.97 20.09 L 10.79 20.62 L 10.57 21.13 L 10.32 21.63" fill="none" stroke="#111" stroke-width="1.18" stroke-linecap="round" stroke-linejoin="round"/>
<path d="M 13.0 14.0 L 13.43 14.39 L 13.84 14.81 L 14.23 15.25 L 14.59 15.7 L 14.93 16.18 L 15.24 16.67 L 15.53 17.18 L 15.79 17.7 L 16.02 18.23 L 16.23 18.78 L 16.4 19.33 L 16.55 19.9 L 16.67 20.47 L 16.75 21.05 L 16.81 21.63 L 16.83 22.21 L 16.83 22.79 L 16.79 23.38 L 16.72 23.96 L 16.63 24.53 L 16.5 25.1 L 16.34 25.66 L 16.16 26.22 L 15.94 26.76" fill="none" stroke="#111" stroke-width="1.18" stroke-linecap="round" stroke-linejoin="round"/>
<path d="M 6.0 18.0 L 5.92 18.12 L 5.83 18.25 L 5.75 18.38 L 5.67 18.5 L 5.58 18.62 L 5.5 18.75 L 5.42 18.88 L 5.33 19.0 L 5.25 19.12 L 5.17 19.25 L 5.08 19.38 L 5.0 19.5 L 4.92 19.62 L 4.83 19.75 L 4.75 19.88 L 4.67 20.0 L 4.58 20.12 L 4.5 20.25 L 4.42 20.38 L 4.33 20.5 L 4.25 20.62 L 4.17 20.75 L 4.08 20.88 L 4.0 21.0 L 4.0 21.0 L 4.2 21.1 L 4.41 21.19 L 4.61 21.29 L 4.81 21.38 L 5.02 21.48 L 5.22 21.57 L 5.43 21.66 L 5.64 21.75 L 5.84 21.83 L 6.05 21.92 L 6.26 22.01 L 6.47 22.09 L 6.68 22.17 L 6.89 22.25 L 7.1 22.34 L 7.31 22.41 L 7.52 22.49 L 7.73 22.57 L 7.94 22.64 L 8.15 22.72 L 8.37 22.79 L 8.58 22.86 L 8.79 22.93 L 9.01 23.0" fill="none" stroke="#111" stroke-width="1.18" stroke-linecap="round" stroke-linejoin="round"/>
<path d="M 6.0 23.0 L 5.81 23.26 L 5.64 23.53 L 5.48 23.81 L 5.35 24.11 L 5.23 24.41 L 5.14 24.72 L 5.07 25.03 L 5.02 25.35 L 4.99 25.67 L 4.98 25.99 L 4.99 26.31 L 5.02 26.63 L 5.08 26.95 L 5.16 27.26 L 5.26 27.57 L 5.38 27.87 L 5.51 28.16 L 5.67 28.44 L 5.85 28.71 L 6.04 28.96 L 6.25 29.21 L 6.48 29.44 L 6.72 29.65 L 6.98 29.84" fill="none" stroke="#111" stroke-width="1.18" stroke-linecap="round" stroke-linejoin="round"/>
<path d="M 5.0 25.0 L 5.12 25.04 L 5.25 25.08 L 5.38 25.12 L 5.5 25.17 L 5.62 25.21 L 5.75 25.25 L 5.88 25.29 L 6.0 25.33 L 6.12 25.38 L 6.25 25.42 L 6.38 25.46 L 6.5 25.5 L 6.62 25.54 L 6.75 25.58 L 6.88 25.62 L 7.0 25.67 L 7.12 25.71 L 7.25 25.75 L 7.38 25.79 L 7.5 25.83 L 7.62 25.88 L 7.75 25.92 L 7.88 25.96 L 8.0 26.0" fill="none" stroke="#111" stroke-width="1.18" stroke-linecap="round" stroke-linejoin="round"/>
</svg>
