<?xml version="1.0" encoding="UTF-8"?>
<svg xmlns="http://www.w3.org/2000/svg" viewBox="0 0 19.83 36.77">
<path d="M 4.0 12.0 L 4.42 11.83 L 4.83 11.67 L 5.25 11.5 L 5.67 11.33 L 6.08 11.17 L 6.5 11.0 L 6.92 10.83 L 7.33 10.67 L 7.75 10.5 L 8.17 10.33 L 8.58 10.17 L 9.0 10.0 L 9.42 9.83 L 9.83 9.67 L 10.25 9.5 L 10.67 9.33 L 11.08 9.17 L 11.5 9.0 L 11.92 8.83 L 12.33 8.67 L 12.75 8.5 L 13.17 8.33 L 13.58 8.17 L 14.0 8.0" fill="none" stroke="#111" stroke-width="1.29" stroke-linecap="round" stroke-linejoin="round"/>
<path d="M 14.0 8.0 L 14.0 8.12 L 14.0 8.25 L 14.0 8.38 L 14.0 8.5 L 14.0 8.62 L 14.0 8.75 L 14.0 8.88 L 14.0 9.0 L 14.0 9.12 L 14.0 9.25 L 14.0 9.38 L 14.0 9.5 L 14.0 9.62 L 14.0 9.75 L 14.0 9.88 L 14.0 10.0 L 14.0 10.12 L 14.0 10.25 L 14.0 10.38 L 14.0 10.5 L 14.0 10.62 L 14.0 10.75 L 14.0 10.88 L 14.0 11.0" fill="none" stroke="#111" stroke-width="1.29" stroke-linecap="round" stroke-linejoin="round"/>
<path d="M 14.0 11.0 L 13.16 11.1 L 12.34 11.28 L 11.54 11.56 L 10.77 11.92 L 10.05 12.36 L 9.39 12.88 L 8.78 13.47 L 8.24 14.12 L 7.78 14.83 L 7.39 15.58 L 7.1 16.37 L 6.88 17.19 L 6.76 18.03 L 6.74 18.87 L 6.8 19.72 L 6.96 20.55 L 7.2 21.36 L 7.54 22.13 L 7.95 22.87 L 8.45 23.55 L 9.01 24.18 L 9.64 24.74 L 10.33 25.23 L 11.07 25.65" fill="none" stroke="#111" stroke-width="1.29" stroke-linecap="round" stroke-linejoin="round"/>
<path d="M 9.0 15.0 L 9.17 15.33 L 9.33 15.67 L 9.5 16.0 L 9.67 16.33 L 9.83 16.67 L 10.0 17.0 L 10.17 17.33 L 10.33 17.67 L 10.5 18.0 L 10.67 18.33 L 10.83 18.67 L 11.0 19.0 L 11.17 19.33 L 11.33 19.67 L 11.5 20.0 L 11.67 20.33 L 11.83 20.67 L 12.0 21.0 L 12.17 21.33 L 12.33 21.67 L 12.5 22.0 L 12.67 22.33 L 12.83 22.67 L 13.0 23.0" fill="none" stroke="#111" stroke-width="1.29" stroke-linecap="round" stroke-linejoin="round"/>
<path d="M 10.0 10.0 L 10.6 10.37 L 11.18 10.77 L 11.73 11.21 L 12.25 11.68 L 12.75 12.18 L 13.21 12.71 L 13.64 13.27 L 14.04 13.85 L 14.4 14.46 L 14.72 15.08 L 15.0 15.73 L 15.24 16.39 L 15.44 17.06 L 15.61 17.75 L 15.72 18.44 L 15.8 19.14 L 15.83 19.84 L 15.82 20.55 L 15.77 21.25 L 15.68 21.95 L 15.54 22.64 L 15.36 23.32 L 15.14 23.99 L 14.88 24.64" fill="none" stroke="#111" stroke-width="1.29" stroke-linecap="round" stroke-linejoin="round"/>
<path d="M 10.0 26.0 L 9.66 26.12 L 9.33 26.26 L 9.02 26.44 L 8.73 26.65 L 8.46 26.88 L 8.21 27.14 L 7.99 27.42 L 7.8 27.72 L 7.63 28.04 L 7.5 28.38 L 7.4 28.72 L 7.33 29.07 L 7.3 29.43 L 7.3 29.79 L 7.33 30.14 L 7.4 30.5 L 7.5 30.84 L 7.64 31.17 L 7.8 31.49 L 8.0 31.79 L 8.22 32.07 L 8.47 32.33 L 8.74 32.56 L 9.03 32.77" fill="none" stroke="#111" stroke-width="1.29" stroke-linecap="round" stroke-linejoin="round"/>
<path d="M 11.0 26.0 L 11.14 26.07 L 11.26 26.15 L 11.39 26.24 L 11.5 26.35 L 11.6 26.46 L 11.69 26.58 L 11.76 26.71 L 11.83 26.85 L 11.88 27.0 L 11.91 27.14 L 11.93 27.29 L 11.94 27.45 L 11.93 27.6 L 11.91 27.75 L 11.88 27.9 L 11.83 28.04 L 11.76 28.18 L 11.69 28.31 L 11.6 28.43 L 11.5 28.55 L 11.39 28.65 L 11.26 28.74 L 11.14 28.82 L 11.0 28.89" fill="none" stroke="#111" stroke-width="1.29" stroke-linecap="round" stroke-linejoin="round"/>
<path d="M 9.0 29.0 L 9.04 29.04 L 9.08 29.08 L 9.12 29.12 L 9.17 29.17 L 9.21 29.21 L 9.25 29.25 L 9.29 29.29 L 9.33 29.33 L 9.38 29.38 L 9.42 29.42 L 9.46 29.46 L 9.5 29.5 L 9.54 29.54 L 9.58 29.58 L 9.62 29.62 L 9.67 29.67 L 9.71 29.71 L 9.75 29.75 L 9.79 29.79 L 9.83 29.83 L 9.88 29.88 L 9.92 29.92 L 9.96 29.96 L 10.0 30.0" fill="none" stroke="#111" stroke-width="1.29" stroke-linecap="round" stroke-linejoin="round"/>
<path d="M 4.0 7.0 L 4.0 7.12 L 4.0 7.25 L 4.0 7.38 L 4.0 7.5 L 4.0 7.62 L 4.0 7.75 L 4.0 7.88 L 4.0 8.0 L 4.0 8.12 L 4.0 8.25 L 4.0 8.38 L 4.0 8.5 L 4.0 8.62 L 4.0 8.75 L 4.0 8.88 L 4.0 9.0 L 4.0 9.12 L 4.0 9.25 L 4.0 9.38 L 4.0 9.5 L 4.0 9.62 L 4.0 9.75 L 4.0 9.88 L 4.0 10.0" fill="none" stroke="#111" stroke-width="1.29" stroke-linecap="round" stroke-linejoin="round"/>
<path d="M 8.0 4.0 L 8.0 4.17 L 8.0 4.33 L 8.0 4.5 L 8.0 4.67 L 8.0 4.83 L 8.0 5.0 L 8.0 5.17 L 8.0 5.33 L 8.0 5.5 L 8.0 5.67 L 8.0 5.83 L 8.0 6.0 L 8.0 6.17 L 8.0 6.33 L 8.0 6.5 L 8.0 6.67 L 8.0 6.83 L 8.0 7.0 L 8.0 7.17 L 8.0 7.33 L 8.0 7.5 L 8.0 7.67 L 8.0 7.83 L 8.0 8.0" fill="none" stroke="#111" stroke-width="1.29" stroke-linecap="round" stroke-linejoin="round"/>
<path d="M 14.0 4.0 L 14.04 4.12 L 14.08 4.25 L 14.12 4.38 L 14.17 4.5 L 14.21 4.62 L 14.25 4.75 L 14.29 4.88 L 14.33 5.0 L 14.38 5.12 L 14.42 5.25 L 14.46 5.38 L 14.5 5.5 L 14.54 5.62 L 14.58 5.75 L 14.62 5.88 L 14.67 6.0 L 14.71 6.12 L 14.75 6.25 L 14.79 6.38 L 14.83 6.5 L 14.88 6.62 L 14.92 6.75 L 14.96 6.88 L 15.0 7.0" fill="none" stroke="#111" stroke-width="1.29" stroke-linecap="round" stroke-linejoin="round"/>
</svg>
