<?xml version="1.0" encoding="UTF-8"?>
<svg xmlns="http://www.w3.org/2000/svg" viewBox="0 0 29.63 32.86">
<path d="M 18.27 8.0 L 18.48 7.88 L 18.69 7.75 L 18.9 7.62 L 19.1 7.5 L 19.31 7.38 L 19.52 7.25 L 19.73 7.12 L 19.94 7.0 L 20.15 6.88 L 20.35 6.75 L 20.56 6.62 L 20.77 6.5 L 20.98 6.38 L 21.19 6.25 L 21.4 6.12 L 21.6 6.0 L 21.81 5.88 L 22.02 5.75 L 22.23 5.62 L 22.44 5.5 L 22.65 5.38 L 22.85 5.25 L 23.06 5.12 L 23.27 5.0 L 23.27 5.0 L 23.31 5.17 L 23.35 5.33 L 23.4 5.5 L 23.44 5.67 L 23.48 5.83 L 23.52 6.0 L 23.56 6.17 L 23.6 6.33 L 23.65 6.5 L 23.69 6.67 L 23.73 6.83 L 23.77 7.0 L 23.81 7.17 L 23.85 7.33 L 23.9 7.5 L 23.94 7.67 L 23.98 7.83 L 24.02 8.0 L 24.06 8.17 L 24.1 8.33 L 24.15 8.5 L 24.19 8.67 L 24.23 8.83 L 24.27 9.0" fill="none" stroke="#111" stroke-width="1.15" stroke-linecap="round" stroke-linejoin="round"/>
<path d="M 21.27 7.0 L 21.71 7.45 L 22.13 7.92 L 22.52 8.41 L 22.9 8.91 L 23.25 9.43 L 23.58 9.96 L 23.89 10.51 L 24.18 11.07 L 24.44 11.64 L 24.67 12.22 L 24.88 12.81 L 25.07 13.41 L 25.23 14.02 L 25.36 14.63 L 25.47 15.25 L 25.55 15.87 L 25.6 16.49 L 25.63 17.12 L 25.63 17.75 L 25.6 18.38 L 25.55 19.0 L 25.47 19.62 L 25.36 20.24 L 25.23 20.86" fill="none" stroke="#111" stroke-width="1.15" stroke-linecap="round" stroke-linejoin="round"/>
<path d="M 23.27 9.0 L 22.74 9.16 L 22.22 9.37 L 21.72 9.63 L 21.25 9.92 L 20.81 10.26 L 20.39 10.63 L 20.01 11.04 L 19.67 11.48 L 19.37 11.95 L 19.11 12.45 L 18.89 12.96 L 18.72 13.49 L 18.6 14.04 L 18.52 14.59 L 18.5 15.15 L 18.52 15.7 L 18.59 16.26 L 18.71 16.8 L 18.88 17.34 L 19.09 17.85 L 19.35 18.35 L 19.64 18.82 L 19.98 19.26 L 20.36 19.67 L 20.27 20.0 L 20.15 20.33 L 20.02 20.67 L 19.9 21.0 L 19.77 21.33 L 19.65 21.67 L 19.52 22.0 L 19.4 22.33 L 19.27 22.67 L 19.15 23.0 L 19.02 23.33 L 18.9 23.67 L 18.77 24.0 L 18.65 24.33 L 18.52 24.67 L 18.4 25.0 L 18.27 25.33 L 18.15 25.67 L 18.02 26.0 L 17.9 26.33 L 17.77 26.67 L 17.65 27.0 L 17.52 27.33 L 17.4 27.67 L 17.27 28.0" fill="none" stroke="#111" stroke-width="1.15" stroke-linecap="round" stroke-linejoin="round"/>
<path d="M 19.27 21.0 L 19.31 21.29 L 19.35 21.58 L 19.4 21.88 L 19.44 22.17 L 19.48 22.46 L 19.52 22.75 L 19.56 23.04 L 19.6 23.33 L 19.65 23.62 L 19.69 23.92 L 19.73 24.21 L 19.77 24.5 L 19.81 24.79 L 19.85 25.08 L 19.9 25.38 L 19.94 25.67 L 19.98 25.96 L 20.02 26.25 L 20.06 26.54 L 20.1 26.83 L 20.15 27.12 L 20.19 27.42 L 20.23 27.71 L 20.27 28.0" fill="none" stroke="#111" stroke-width="1.15" stroke-linecap="round" stroke-linejoin="round"/>
<path d="M 20.27 12.0 L 20.55 12.29 L 20.82 12.59 L 21.07 12.9 L 21.3 13.22 L 21.52 13.56 L 21.72 13.9 L 21.91 14.26 L 22.08 14.62 L 22.23 14.99 L 22.36 15.37 L 22.48 15.75 L 22.57 16.14 L 22.65 16.53 L 22.71 16.93 L 22.75 17.33 L 22.77 17.73 L 22.77 18.13 L 22.75 18.53 L 22.71 18.92 L 22.66 19.32 L 22.58 19.71 L 22.49 20.1 L 22.37 20.49 L 22.24 20.86" fill="none" stroke="#111" stroke-width="1.15" stroke-linecap="round" stroke-linejoin="round"/>
<path d="M 10.27 8.0 L 10.35 7.83 L 10.44 7.67 L 10.52 7.5 L 10.6 7.33 L 10.69 7.17 L 10.77 7.0 L 10.85 6.83 L 10.94 6.67 L 11.02 6.5 L 11.1 6.33 L 11.19 6.17 L 11.27 6.0 L 11.35 5.83 L 11.44 5.67 L 11.52 5.5 L 11.6 5.33 L 11.69 5.17 L 11.77 5.0 L 11.85 4.83 L 11.94 4.67 L 12.02 4.5 L 12.1 4.33 L 12.19 4.17 L 12.27 4.0 L 12.27 4.0 L 12.4 4.17 L 12.52 4.33 L 12.65 4.5 L 12.77 4.67 L 12.9 4.83 L 13.02 5.0 L 13.15 5.17 L 13.27 5.33 L 13.4 5.5 L 13.52 5.67 L 13.65 5.83 L 13.77 6.0 L 13.9 6.17 L 14.02 6.33 L 14.15 6.5 L 14.27 6.67 L 14.4 6.83 L 14.52 7.0 L 14.65 7.17 L 14.77 7.33 L 14.9 7.5 L 15.02 7.67 L 15.15 7.83 L 15.27 8.0" fill="none" stroke="#111" stroke-width="1.15" stroke-linecap="round" stroke-linejoin="round"/>
<path d="M 12.27 5.0 L 11.23 4.84 L 10.17 4.84 L 9.12 5.01 L 8.12 5.34 L 7.18 5.82 L 6.32 6.45 L 5.58 7.2 L 4.96 8.05 L 4.48 9.0 L 4.16 10.01 L 4.0 11.05 L 4.0 12.11 L 4.18 13.15 L 4.51 14.16 L 4.99 15.1 L 5.62 15.95 L 6.37 16.69 L 7.23 17.31 L 8.17 17.79 L 9.18 18.11 L 10.23 18.27 L 11.29 18.26 L 12.33 18.09 L 13.33 17.75" fill="none" stroke="#111" stroke-width="1.15" stroke-linecap="round" stroke-linejoin="round"/>
<path d="M 13.27 22.0 L 13.38 22.33 L 13.47 22.66 L 13.54 22.99 L 13.59 23.33 L 13.61 23.68 L 13.62 24.02 L 13.6 24.36 L 13.56 24.7 L 13.49 25.04 L 13.41 25.37 L 13.31 25.7 L 13.18 26.02 L 13.04 26.33 L 12.87 26.63 L 12.69 26.92 L 12.49 27.2 L 12.27 27.47 L 12.03 27.72 L 11.78 27.95 L 11.52 28.17 L 11.24 28.37 L 10.95 28.55 L 10.64 28.71 L 10.33 28.86" fill="none" stroke="#111" stroke-width="1.15" stroke-linecap="round" stroke-linejoin="round"/>
<path d="M 16.27 11.0 L 16.02 11.0 L 15.77 11.0 L 15.52 11.0 L 15.27 11.0 L 15.02 11.0 L 14.77 11.0 L 14.52 11.0 L 14.27 11.0 L 14.02 11.0 L 13.77 11.0 L 13.52 11.0 L 13.27 11.0 L 13.02 11.0 L 12.77 11.0 L 12.52 11.0 L 12.27 11.0 L 12.02 11.0 L 11.77 11.0 L 11.52 11.0 L 11.27 11.0 L 11.02 11.0 L 10.77 11.0 L 10.52 11.0 L 10.27 11.0 L 10.27 11.0 L 10.27 11.12 L 10.27 11.25 L 10.27 11.38 L 10.27 11.5 L 10.27 11.62 L 10.27 11.75 L 10.27 11.88 L 10.27 12.0 L 10.27 12.12 L 10.27 12.25 L 10.27 12.38 L 10.27 12.5 L 10.27 12.62 L 10.27 12.75 L 10.27 12.88 L 10.27 13.0 L 10.27 13.12 L 10.27 13.25 L 10.27 13.38 L 10.27 13.5 L 10.27 13.62 L 10.27 13.75 L 10.27 13.88 L 10.27 14.0" fill="none" stroke="#111" stroke-width="1.15" stroke-linecap="round" stroke-linejoin="round"/>
<path d="M 15.27 16.0 L 15.27 16.17 L 15.27 16.33 L 15.27 16.5 L 15.27 16.67 L 15.27 16.83 L 15.27 17.0 L 15.27 17.17 L 15.27 17.33 L 15.27 17.5 L 15.27 17.67 L 15.27 17.83 L 15.27 18.0 L 15.27 18.17 L 15.27 18.33 L 15.27 18.5 L 15.27 18.67 L 15.27 18.83 L 15.27 19.0 L 15.27 19.17 L 15.27 19.33 L 15.27 19.5 L 15.27 19.67 L 15.27 19.83 L 15.27 20.0 L 15.27 20.0 L 15.1 20.0 L 14.94 20.0 L 14.77 20.0 L 14.6 20.0 L 14.44 20.0 L 14.27 20.0 L 14.1 20.0 L 13.94 20.0 L 13.77 20.0 L 13.6 20.0 L 13.44 20.0 L 13.27 20.0 L 13.1 20.0 L 12.94 20.0 L 12.77 20.0 L 12.6 20.0 L 12.44 20.0 L 12.27 20.0 L 12.1 20.0 L 11.94 20.0 L 11.77 20.0 L 11.6 20.0 L 11.44 20.0 L 11.27 20.0" fill="none" stroke="#111" stroke-width="1.15" stroke-linecap="round" stroke-linejoin="round"/>
<path d="M 10.27 14.0 L 10.48 14.08 L 10.69 14.17 L 10.9 14.25 L 11.1 14.33 L 11.31 14.42 L 11.52 14.5 L 11.73 14.58 L 11.94 14.67 L 12.15 14.75 L 12.35 14.83 L 12.56 14.92 L 12.77 15.0 L 12.98 15.08 L 13.19 15.17 L 13.4 15.25 L 13.6 15.33 L 13.81 15.42 L 14.02 15.5 L 14.23 15.58 L 14.44 15.67 L 14.65 15.75 L 14.85 15.83 L 15.06 15.92 L 15.27 16.0" fill="none" stroke="#111" stroke-width="1.15" stroke-linecap="round" stroke-linejoin="round"/>
</svg>
