<?xml version="1.0" encoding="UTF-8"?>
<svg xmlns="http://www.w3.org/2000/svg" viewBox="0 0 24.31 33.00">
<path d="M 16.26 4.0 L 16.1 4.29 L 15.93 4.58 L 15.76 4.88 L 15.6 5.17 L 15.43 5.46 L 15.26 5.75 L 15.1 6.04 L 14.93 6.33 L 14.76 6.62 L 14.6 6.92 L 14.43 7.21 L 14.26 7.5 L 14.1 7.79 L 13.93 8.08 L 13.76 8.38 L 13.6 8.67 L 13.43 8.96 L 13.26 9.25 L 13.1 9.54 L 12.93 9.83 L 12.76 10.12 L 12.6 10.42 L 12.43 10.71 L 12.26 11.0 L 12.26 11.0 L 12.36 11.72 L 12.45 12.45 L 12.52 13.18 L 12.58 13.91 L 12.61 14.64 L 12.63 15.37 L 12.64 16.1 L 12.63 16.83 L 12.6 17.56 L 12.56 18.29 L 12.49 19.02 L 12.42 19.75 L 12.32 20.47 L 12.21 21.19 L 12.09 21.91 L 11.95 22.63 L 11.79 23.35 L 11.61 24.06 L 11.42 24.76 L 11.22 25.46 L 10.99 26.16 L 10.76 26.85 L 10.5 27.54 L 10.24 28.22" fill="none" stroke="#111" stroke-width="1.16" stroke-linecap="round" stroke-linejoin="round"/>
<path d="M 18.26 6.0 L 17.84 6.41 L 17.44 6.84 L 17.07 7.29 L 16.73 7.77 L 16.42 8.27 L 16.15 8.79 L 15.9 9.32 L 15.7 9.87 L 15.52 10.43 L 15.39 11.0 L 15.29 11.58 L 15.22 12.16 L 15.2 12.75 L 15.21 13.33 L 15.25 13.92 L 15.34 14.5 L 15.46 15.07 L 15.62 15.63 L 15.81 16.19 L 16.04 16.73 L 16.3 17.25 L 16.6 17.76 L 16.93 18.25 L 17.28 18.71 L 17.26 19.0 L 16.98 19.25 L 16.7 19.51 L 16.44 19.79 L 16.18 20.07 L 15.93 20.35 L 15.69 20.65 L 15.46 20.95 L 15.25 21.26 L 15.04 21.58 L 14.84 21.91 L 14.65 22.24 L 14.48 22.58 L 14.31 22.92 L 14.16 23.27 L 14.02 23.62 L 13.89 23.98 L 13.77 24.34 L 13.67 24.7 L 13.57 25.07 L 13.49 25.44 L 13.42 25.82 L 13.36 26.19 L 13.32 26.57 L 13.29 26.95" fill="none" stroke="#111" stroke-width="1.16" stroke-linecap="round" stroke-linejoin="round"/>
<path d="M 14.26 7.0 L 14.35 7.08 L 14.43 7.17 L 14.51 7.25 L 14.6 7.33 L 14.68 7.42 L 14.76 7.5 L 14.85 7.58 L 14.93 7.67 L 15.01 7.75 L 15.1 7.83 L 15.18 7.92 L 15.26 8.0 L 15.35 8.08 L 15.43 8.17 L 15.51 8.25 L 15.6 8.33 L 15.68 8.42 L 15.76 8.5 L 15.85 8.58 L 15.93 8.67 L 16.01 8.75 L 16.1 8.83 L 16.18 8.92 L 16.26 9.0" fill="none" stroke="#111" stroke-width="1.16" stroke-linecap="round" stroke-linejoin="round"/>
<path d="M 12.26 10.0 L 12.43 10.0 L 12.6 10.0 L 12.76 10.0 L 12.93 10.0 L 13.1 10.0 L 13.26 10.0 L 13.43 10.0 L 13.6 10.0 L 13.76 10.0 L 13.93 10.0 L 14.1 10.0 L 14.26 10.0 L 14.43 10.0 L 14.6 10.0 L 14.76 10.0 L 14.93 10.0 L 15.1 10.0 L 15.26 10.0 L 15.43 10.0 L 15.6 10.0 L 15.76 10.0 L 15.93 10.0 L 16.1 10.0 L 16.26 10.0" fill="none" stroke="#111" stroke-width="1.16" stroke-linecap="round" stroke-linejoin="round"/>
<path d="M 17.26 19.0 L 17.53 19.19 L 17.79 19.39 L 18.04 19.61 L 18.28 19.83 L 18.51 20.07 L 18.73 20.32 L 18.93 20.58 L 19.13 20.85 L 19.31 21.13 L 19.47 21.41 L 19.62 21.71 L 19.76 22.01 L 19.88 22.31 L 19.99 22.62 L 20.08 22.94 L 20.16 23.26 L 20.22 23.59 L 20.27 23.91 L 20.3 24.24 L 20.31 24.57 L 20.31 24.9 L 20.3 25.23 L 20.26 25.56 L 20.21 25.89 L 20.26 26.0 L 20.05 26.12 L 19.85 26.25 L 19.64 26.38 L 19.43 26.5 L 19.22 26.62 L 19.01 26.75 L 18.8 26.88 L 18.6 27.0 L 18.39 27.12 L 18.18 27.25 L 17.97 27.38 L 17.76 27.5 L 17.55 27.62 L 17.35 27.75 L 17.14 27.88 L 16.93 28.0 L 16.72 28.12 L 16.51 28.25 L 16.3 28.38 L 16.1 28.5 L 15.89 28.62 L 15.68 28.75 L 15.47 28.88 L 15.26 29.0" fill="none" stroke="#111" stroke-width="1.16" stroke-linecap="round" stroke-linejoin="round"/>
<path d="M 20.26 26.0 L 20.22 26.12 L 20.18 26.25 L 20.14 26.38 L 20.1 26.5 L 20.05 26.62 L 20.01 26.75 L 19.97 26.88 L 19.93 27.0 L 19.89 27.12 L 19.85 27.25 L 19.8 27.38 L 19.76 27.5 L 19.72 27.62 L 19.68 27.75 L 19.64 27.88 L 19.6 28.0 L 19.55 28.12 L 19.51 28.25 L 19.47 28.38 L 19.43 28.5 L 19.39 28.62 L 19.35 28.75 L 19.3 28.88 L 19.26 29.0" fill="none" stroke="#111" stroke-width="1.16" stroke-linecap="round" stroke-linejoin="round"/>
<path d="M 7.26 6.0 L 6.73 6.52 L 6.24 7.07 L 5.79 7.67 L 5.39 8.29 L 5.04 8.94 L 4.73 9.62 L 4.48 10.31 L 4.28 11.03 L 4.13 11.75 L 4.04 12.49 L 4.0 13.23 L 4.02 13.97 L 4.09 14.71 L 4.22 15.44 L 4.4 16.16 L 4.64 16.86 L 4.93 17.55 L 5.27 18.21 L 5.65 18.84 L 6.09 19.44 L 6.56 20.01 L 7.08 20.54 L 7.64 21.03 L 8.23 21.48" fill="none" stroke="#111" stroke-width="1.16" stroke-linecap="round" stroke-linejoin="round"/>
<path d="M 9.26 15.0 L 8.82 15.44 L 8.39 15.9 L 7.99 16.38 L 7.6 16.88 L 7.24 17.39 L 6.9 17.92 L 6.59 18.46 L 6.3 19.02 L 6.04 19.59 L 5.8 20.17 L 5.59 20.76 L 5.4 21.36 L 5.24 21.96 L 5.11 22.58 L 5.01 23.19 L 4.93 23.82 L 4.88 24.44 L 4.86 25.07 L 4.87 25.69 L 4.9 26.32 L 4.97 26.94 L 5.06 27.57 L 5.18 28.18 L 5.32 28.79" fill="none" stroke="#111" stroke-width="1.16" stroke-linecap="round" stroke-linejoin="round"/>
<path d="M 9.26 17.0 L 9.26 17.21 L 9.26 17.42 L 9.26 17.62 L 9.26 17.83 L 9.26 18.04 L 9.26 18.25 L 9.26 18.46 L 9.26 18.67 L 9.26 18.88 L 9.26 19.08 L 9.26 19.29 L 9.26 19.5 L 9.26 19.71 L 9.26 19.92 L 9.26 20.12 L 9.26 20.33 L 9.26 20.54 L 9.26 20.75 L 9.26 20.96 L 9.26 21.17 L 9.26 21.38 L 9.26 21.58 L 9.26 21.79 L 9.26 22.0" fill="none" stroke="#111" stroke-width="1.16" stroke-linecap="round" stroke-linejoin="round"/>
<path d="M 8.26 18.0 L 8.3 18.04 L 8.35 18.08 L 8.39 18.12 L 8.43 18.17 L 8.47 18.21 L 8.51 18.25 L 8.55 18.29 L 8.6 18.33 L 8.64 18.38 L 8.68 18.42 L 8.72 18.46 L 8.76 18.5 L 8.8 18.54 L 8.85 18.58 L 8.89 18.62 L 8.93 18.67 L 8.97 18.71 L 9.01 18.75 L 9.05 18.79 L 9.1 18.83 L 9.14 18.88 L 9.18 18.92 L 9.22 18.96 L 9.26 19.0 L 9.26 19.0 L 9.35 18.92 L 9.43 18.83 L 9.51 18.75 L 9.6 18.67 L 9.68 18.58 L 9.76 18.5 L 9.85 18.42 L 9.93 18.33 L 10.01 18.25 L 10.1 18.17 L 10.18 18.08 L 10.26 18.0 L 10.35 17.92 L 10.43 17.83 L 10.51 17.75 L 10.6 17.67 L 10.68 17.58 L 10.76 17.5 L 10.85 17.42 L 10.93 17.33 L 11.01 17.25 L 11.1 17.17 L 11.18 17.08 L 11.26 17.0" fill="none" stroke="#111" stroke-width="1.16" stroke-linecap="round" stroke-linejoin="round"/>
<path d="M 8.26 9.0 L 8.26 9.21 L 8.26 9.42 L 8.26 9.62 L 8.26 9.83 L 8.26 10.04 L 8.26 10.25 L 8.26 10.46 L 8.26 10.67 L 8.26 10.88 L 8.26 11.08 L 8.26 11.29 L 8.26 11.5 L 8.26 11.71 L 8.26 11.92 L 8.26 12.12 L 8.26 12.33 L 8.26 12.54 L 8.26 12.75 L 8.26 12.96 L 8.26 13.17 L 8.26 13.38 L 8.26 13.58 L 8.26 13.79 L 8.26 14.0" fill="none" stroke="#111" stroke-width="1.16" stroke-linecap="round" stroke-linejoin="round"/>
<path d="M 7.26 11.0 L 7.3 11.04 L 7.35 11.08 L 7.39 11.12 L 7.43 11.17 L 7.47 11.21 L 7.51 11.25 L 7.55 11.29 L 7.6 11.33 L 7.64 11.38 L 7.68 11.42 L 7.72 11.46 L 7.76 11.5 L 7.8 11.54 L 7.85 11.58 L 7.89 11.62 L 7.93 11.67 L 7.97 11.71 L 8.01 11.75 L 8.05 11.79 L 8.1 11.83 L 8.14 11.88 L 8.18 11.92 L 8.22 11.96 L 8.26 12.0 L 8.26 12.0 L 8.35 11.92 L 8.43 11.83 L 8.51 11.75 L 8.6 11.67 L 8.68 11.58 L 8.76 11.5 L 8.85 11.42 L 8.93 11.33 L 9.01 11.25 L 9.1 11.17 L 9.18 11.08 L 9.26 11.0 L 9.35 10.92 L 9.43 10.83 L 9.51 10.75 L 9.6 10.67 L 9.68 10.58 L 9.76 10.5 L 9.85 10.42 L 9.93 10.33 L 10.01 10.25 L 10.1 10.17 L 10.18 10.08 L 10.26 10.0" fill="none" stroke="#111" stroke-width="1.16" stroke-linecap="round" stroke-linejoin="round"/>
</svg>
