<?xml version="1.0" encoding="UTF-8"?>
<svg xmlns="http://www.w3.org/2000/svg" viewBox="0 0 16.00 37.00">
<path d="M 5.0 15.0 L 5.0 15.38 L 5.0 15.75 L 5.0 16.12 L 5.0 16.5 L 5.0 16.88 L 5.0 17.25 L 5.0 17.62 L 5.0 18.0 L 5.0 18.38 L 5.0 18.75 L 5.0 19.12 L 5.0 19.5 L 5.0 19.88 L 5.0 20.25 L 5.0 20.62 L 5.0 21.0 L 5.0 21.38 L 5.0 21.75 L 5.0 22.12 L 5.0 22.5 L 5.0 22.88 L 5.0 23.25 L 5.0 23.62 L 5.0 24.0" fill="none" stroke="#111" stroke-width="1.30" stroke-linecap="round" stroke-linejoin="round"/>
<path d="M 12.0 16.0 L 12.0 16.33 L 12.0 16.67 L 12.0 17.0 L 12.0 17.33 L 12.0 17.67 L 12.0 18.0 L 12.0 18.33 L 12.0 18.67 L 12.0 19.0 L 12.0 19.33 L 12.0 19.67 L 12.0 20.0 L 12.0 20.33 L 12.0 20.67 L 12.0 21.0 L 12.0 21.33 L 12.0 21.67 L 12.0 22.0 L 12.0 22.33 L 12.0 22.67 L 12.0 23.0 L 12.0 23.33 L 12.0 23.67 L 12.0 24.0" fill="none" stroke="#111" stroke-width="1.30" stroke-linecap="round" stroke-linejoin="round"/>
<path d="M 12.0 16.0 L 11.71 16.17 L 11.42 16.33 L 11.12 16.5 L 10.83 16.67 L 10.54 16.83 L 10.25 17.0 L 9.96 17.17 L 9.67 17.33 L 9.38 17.5 L 9.08 17.67 L 8.79 17.83 L 8.5 18.0 L 8.21 18.17 L 7.92 18.33 L 7.63 18.5 L 7.33 18.67 L 7.04 18.83 L 6.75 19.0 L 6.46 19.17 L 6.17 19.33 L 5.88 19.5 L 5.58 19.67 L 5.29 19.83 L 5.0 20.0" fill="none" stroke="#111" stroke-width="1.30" stroke-linecap="round" stroke-linejoin="round"/>
<path d="M 5.0 17.0 L 5.29 17.17 L 5.58 17.33 L 5.88 17.5 L 6.17 17.67 L 6.46 17.83 L 6.75 18.0 L 7.04 18.17 L 7.33 18.33 L 7.62 18.5 L 7.92 18.67 L 8.21 18.83 L 8.5 19.0 L 8.79 19.17 L 9.08 19.33 L 9.38 19.5 L 9.67 19.67 L 9.96 19.83 L 10.25 20.0 L 10.54 20.17 L 10.83 20.33 L 11.12 20.5 L 11.42 20.67 L 11.71 20.83 L 12.0 21.0" fill="none" stroke="#111" stroke-width="1.30" stroke-linecap="round" stroke-linejoin="round"/>
<path d="M 5.0 24.0 L 5.29 24.0 L 5.58 24.0 L 5.88 24.0 L 6.17 24.0 L 6.46 24.0 L 6.75 24.0 L 7.04 24.0 L 7.33 24.0 L 7.62 24.0 L 7.92 24.0 L 8.21 24.0 L 8.5 24.0 L 8.79 24.0 L 9.08 24.0 L 9.38 24.0 L 9.67 24.0 L 9.96 24.0 L 10.25 24.0 L 10.54 24.0 L 10.83 24.0 L 11.12 24.0 L 11.42 24.0 L 11.71 24.0 L 12.0 24.0" fill="none" stroke="#111" stroke-width="1.30" stroke-linecap="round" stroke-linejoin="round"/>
<path d="M 4.0 29.0 L 4.33 28.96 L 4.67 28.92 L 5.0 28.88 L 5.33 28.83 L 5.67 28.79 L 6.0 28.75 L 6.33 28.71 L 6.67 28.67 L 7.0 28.62 L 7.33 28.58 L 7.67 28.54 L 8.0 28.5 L 8.33 28.46 L 8.67 28.42 L 9.0 28.38 L 9.33 28.33 L 9.67 28.29 L 10.0 28.25 L 10.33 28.21 L 10.67 28.17 L 11.0 28.12 L 11.33 28.08 L 11.67 28.04 L 12.0 28.0" fill="none" stroke="#111" stroke-width="1.30" stroke-linecap="round" stroke-linejoin="round"/>
<path d="M 8.0 25.0 L 8.0 25.33 L 8.0 25.67 L 8.0 26.0 L 8.0 26.33 L 8.0 26.67 L 8.0 27.0 L 8.0 27.33 L 8.0 27.67 L 8.0 28.0 L 8.0 28.33 L 8.0 28.67 L 8.0 29.0 L 8.0 29.33 L 8.0 29.67 L 8.0 30.0 L 8.0 30.33 L 8.0 30.67 L 8.0 31.0 L 8.0 31.33 L 8.0 31.67 L 8.0 32.0 L 8.0 32.33 L 8.0 32.67 L 8.0 33.0" fill="none" stroke="#111" stroke-width="1.30" stroke-linecap="round" stroke-linejoin="round"/>
<path d="M 12.0 4.0 L 11.83 4.08 L 11.67 4.17 L 11.5 4.25 L 11.33 4.33 L 11.17 4.42 L 11.0 4.5 L 10.83 4.58 L 10.67 4.67 L 10.5 4.75 L 10.33 4.83 L 10.17 4.92 L 10.0 5.0 L 9.83 5.08 L 9.67 5.17 L 9.5 5.25 L 9.33 5.33 L 9.17 5.42 L 9.0 5.5 L 8.83 5.58 L 8.67 5.67 L 8.5 5.75 L 8.33 5.83 L 8.17 5.92 L 8.0 6.0 L 8.0 6.0 L 8.0 6.08 L 8.0 6.17 L 8.0 6.25 L 8.0 6.33 L 8.0 6.42 L 8.0 6.5 L 8.0 6.58 L 8.0 6.67 L 8.0 6.75 L 8.0 6.83 L 8.0 6.92 L 8.0 7.0 L 8.0 7.08 L 8.0 7.17 L 8.0 7.25 L 8.0 7.33 L 8.0 7.42 L 8.0 7.5 L 8.0 7.58 L 8.0 7.67 L 8.0 7.75 L 8.0 7.83 L 8.0 7.92 L 8.0 8.0 L 8.0 8.0 L 8.18 7.88 L 8.36 7.78 L 8.56 7.69 L 8.76 7.62 L 8.97 7.57 L 9.18 7.54 L 9.39 7.53 L 9.61 7.54 L 9.82 7.57 L 10.02 7.62 L 10.23 7.69 L 10.42 7.78 L 10.61 7.88 L 10.78 8.0 L 10.95 8.14 L 11.1 8.29 L 11.23 8.45 L 11.35 8.63 L 11.46 8.82 L 11.54 9.01 L 11.61 9.22 L 11.66 9.42 L 11.69 9.63 L 11.7 9.85 L 12.0 10.0 L 11.75 10.21 L 11.5 10.42 L 11.25 10.62 L 11.0 10.83 L 10.75 11.04 L 10.5 11.25 L 10.25 11.46 L 10.0 11.67 L 9.75 11.88 L 9.5 12.08 L 9.25 12.29 L 9.0 12.5 L 8.75 12.71 L 8.5 12.92 L 8.25 13.12 L 8.0 13.33 L 7.75 13.54 L 7.5 13.75 L 7.25 13.96 L 7.0 14.17 L 6.75 14.38 L 6.5 14.58 L 6.25 14.79 L 6.0 15.0" fill="none" stroke="#111" stroke-width="1.30" stroke-linecap="round" stroke-linejoin="round"/>
<path d="M 9.0 13.0 L 9.0 13.17 L 9.0 13.33 L 9.0 13.5 L 9.0 13.67 L 9.0 13.83 L 9.0 14.0 L 9.0 14.17 L 9.0 14.33 L 9.0 14.5 L 9.0 14.67 L 9.0 14.83 L 9.0 15.0 L 9.0 15.17 L 9.0 15.33 L 9.0 15.5 L 9.0 15.67 L 9.0 15.83 L 9.0 16.0 L 9.0 16.17 L 9.0 16.33 L 9.0 16.5 L 9.0 16.67 L 9.0 16.83 L 9.0 17.0" fill="none" stroke="#111" stroke-width="1.30" stroke-linecap="round" stroke-linejoin="round"/>
<path d="M 10.0 5.0 L 10.11 5.33 L 10.2 5.66 L 10.27 5.99 L 10.32 6.33 L 10.34 6.68 L 10.34 7.02 L 10.33 7.36 L 10.29 7.7 L 10.22 8.04 L 10.14 8.37 L 10.04 8.7 L 9.91 9.02 L 9.77 9.33 L 9.6 9.63 L 9.42 9.92 L 9.22 10.2 L 9.0 10.47 L 8.76 10.72 L 8.51 10.95 L 8.24 11.17 L 7.97 11.37 L 7.67 11.55 L 7.37 11.71 L 7.06 11.86" fill="none" stroke="#111" stroke-width="1.30" stroke-linecap="round" stroke-linejoin="round"/>
</svg>
