<?xml version="1.0" encoding="UTF-8"?>
<svg xmlns="http://www.w3.org/2000/svg" viewBox="0 0 21.00 34.00">
<path d="M 10.0 4.0 L 9.88 4.17 L 9.75 4.33 L 9.62 4.5 L 9.5 4.67 L 9.38 4.83 L 9.25 5.0 L 9.12 5.17 L 9.0 5.33 L 8.88 5.5 L 8.75 5.67 L 8.62 5.83 L 8.5 6.0 L 8.38 6.17 L 8.25 6.33 L 8.12 6.5 L 8.0 6.67 L 7.88 6.83 L 7.75 7.0 L 7.62 7.17 L 7.5 7.33 L 7.38 7.5 L 7.25 7.67 L 7.12 7.83 L 7.0 8.0" fill="none" stroke="#111" stroke-width="1.19" stroke-linecap="round" stroke-linejoin="round"/>
<path d="M 10.0 4.0 L 10.33 4.27 L 10.63 4.58 L 10.9 4.92 L 11.12 5.28 L 11.3 5.67 L 11.44 6.08 L 11.53 6.5 L 11.58 6.92 L 11.57 7.35 L 11.52 7.78 L 11.42 8.19 L 11.27 8.6 L 11.08 8.98 L 10.85 9.34 L 10.57 9.67 L 10.27 9.97 L 9.93 10.24 L 9.56 10.46 L 9.17 10.64 L 8.77 10.78 L 8.35 10.87 L 7.92 10.91 L 7.49 10.9 L 7.06 10.85 L 7.0 11.0 L 7.12 11.21 L 7.25 11.42 L 7.38 11.62 L 7.5 11.83 L 7.62 12.04 L 7.75 12.25 L 7.88 12.46 L 8.0 12.67 L 8.12 12.88 L 8.25 13.08 L 8.38 13.29 L 8.5 13.5 L 8.62 13.71 L 8.75 13.92 L 8.88 14.12 L 9.0 14.33 L 9.12 14.54 L 9.25 14.75 L 9.38 14.96 L 9.5 15.17 L 9.62 15.38 L 9.75 15.58 L 9.88 15.79 L 10.0 16.0" fill="none" stroke="#111" stroke-width="1.19" stroke-linecap="round" stroke-linejoin="round"/>
<path d="M 9.0 9.0 L 9.21 9.21 L 9.42 9.42 L 9.62 9.62 L 9.83 9.83 L 10.04 10.04 L 10.25 10.25 L 10.46 10.46 L 10.67 10.67 L 10.88 10.88 L 11.08 11.08 L 11.29 11.29 L 11.5 11.5 L 11.71 11.71 L 11.92 11.92 L 12.12 12.12 L 12.33 12.33 L 12.54 12.54 L 12.75 12.75 L 12.96 12.96 L 13.17 13.17 L 13.38 13.38 L 13.58 13.58 L 13.79 13.79 L 14.0 14.0" fill="none" stroke="#111" stroke-width="1.19" stroke-linecap="round" stroke-linejoin="round"/>
<path d="M 9.0 6.0 L 9.46 6.22 L 9.91 6.46 L 10.36 6.72 L 10.79 6.99 L 11.22 7.27 L 11.63 7.57 L 12.04 7.88 L 12.43 8.21 L 12.82 8.55 L 13.19 8.9 L 13.55 9.26 L 13.89 9.64 L 14.23 10.03 L 14.55 10.43 L 14.85 10.84 L 15.14 11.26 L 15.42 11.69 L 15.68 12.13 L 15.93 12.58 L 16.16 13.03 L 16.38 13.49 L 16.58 13.97 L 16.77 14.44 L 16.93 14.93" fill="none" stroke="#111" stroke-width="1.19" stroke-linecap="round" stroke-linejoin="round"/>
<path d="M 10.0 15.0 L 9.92 15.17 L 9.83 15.33 L 9.75 15.5 L 9.67 15.67 L 9.58 15.83 L 9.5 16.0 L 9.42 16.17 L 9.33 16.33 L 9.25 16.5 L 9.17 16.67 L 9.08 16.83 L 9.0 17.0 L 8.92 17.17 L 8.83 17.33 L 8.75 17.5 L 8.67 17.67 L 8.58 17.83 L 8.5 18.0 L 8.42 18.17 L 8.33 18.33 L 8.25 18.5 L 8.17 18.67 L 8.08 18.83 L 8.0 19.0" fill="none" stroke="#111" stroke-width="1.19" stroke-linecap="round" stroke-linejoin="round"/>
<path d="M 4.0 20.0 L 4.33 19.96 L 4.67 19.92 L 5.0 19.88 L 5.33 19.83 L 5.67 19.79 L 6.0 19.75 L 6.33 19.71 L 6.67 19.67 L 7.0 19.62 L 7.33 19.58 L 7.67 19.54 L 8.0 19.5 L 8.33 19.46 L 8.67 19.42 L 9.0 19.38 L 9.33 19.33 L 9.67 19.29 L 10.0 19.25 L 10.33 19.21 L 10.67 19.17 L 11.0 19.12 L 11.33 19.08 L 11.67 19.04 L 12.0 19.0 L 12.0 19.0 L 12.0 19.21 L 12.0 19.42 L 12.0 19.62 L 12.0 19.83 L 12.0 20.04 L 12.0 20.25 L 12.0 20.46 L 12.0 20.67 L 12.0 20.88 L 12.0 21.08 L 12.0 21.29 L 12.0 21.5 L 12.0 21.71 L 12.0 21.92 L 12.0 22.12 L 12.0 22.33 L 12.0 22.54 L 12.0 22.75 L 12.0 22.96 L 12.0 23.17 L 12.0 23.38 L 12.0 23.58 L 12.0 23.79 L 12.0 24.0 L 12.0 24.0 L 11.67 24.04 L 11.33 24.08 L 11.0 24.12 L 10.67 24.17 L 10.33 24.21 L 10.0 24.25 L 9.67 24.29 L 9.33 24.33 L 9.0 24.38 L 8.67 24.42 L 8.33 24.46 L 8.0 24.5 L 7.67 24.54 L 7.33 24.58 L 7.0 24.62 L 6.67 24.67 L 6.33 24.71 L 6.0 24.75 L 5.67 24.79 L 5.33 24.83 L 5.0 24.88 L 4.67 24.92 L 4.33 24.96 L 4.0 25.0 L 4.0 25.0 L 4.0 24.79 L 4.0 24.58 L 4.0 24.38 L 4.0 24.17 L 4.0 23.96 L 4.0 23.75 L 4.0 23.54 L 4.0 23.33 L 4.0 23.12 L 4.0 22.92 L 4.0 22.71 L 4.0 22.5 L 4.0 22.29 L 4.0 22.08 L 4.0 21.88 L 4.0 21.67 L 4.0 21.46 L 4.0 21.25 L 4.0 21.04 L 4.0 20.83 L 4.0 20.62 L 4.0 20.42 L 4.0 20.21 L 4.0 20.0" fill="none" stroke="#111" stroke-width="1.19" stroke-linecap="round" stroke-linejoin="round"/>
<path d="M 9.0 22.0 L 9.0 22.33 L 9.0 22.67 L 9.0 23.0 L 9.0 23.33 L 9.0 23.67 L 9.0 24.0 L 9.0 24.33 L 9.0 24.67 L 9.0 25.0 L 9.0 25.33 L 9.0 25.67 L 9.0 26.0 L 9.0 26.33 L 9.0 26.67 L 9.0 27.0 L 9.0 27.33 L 9.0 27.67 L 9.0 28.0 L 9.0 28.33 L 9.0 28.67 L 9.0 29.0 L 9.0 29.33 L 9.0 29.67 L 9.0 30.0 L 9.0 30.0 L 9.33 29.96 L 9.67 29.92 L 10.0 29.88 L 10.33 29.83 L 10.67 29.79 L 11.0 29.75 L 11.33 29.71 L 11.67 29.67 L 12.0 29.62 L 12.33 29.58 L 12.67 29.54 L 13.0 29.5 L 13.33 29.46 L 13.67 29.42 L 14.0 29.38 L 14.33 29.33 L 14.67 29.29 L 15.0 29.25 L 15.33 29.21 L 15.67 29.17 L 16.0 29.12 L 16.33 29.08 L 16.67 29.04 L 17.0 29.0 L 17.0 29.0 L 17.0 28.71 L 17.0 28.42 L 17.0 28.12 L 17.0 27.83 L 17.0 27.54 L 17.0 27.25 L 17.0 26.96 L 17.0 26.67 L 17.0 26.38 L 17.0 26.08 L 17.0 25.79 L 17.0 25.5 L 17.0 25.21 L 17.0 24.92 L 17.0 24.62 L 17.0 24.33 L 17.0 24.04 L 17.0 23.75 L 17.0 23.46 L 17.0 23.17 L 17.0 22.88 L 17.0 22.58 L 17.0 22.29 L 17.0 22.0 L 17.0 22.0 L 16.62 22.0 L 16.25 22.0 L 15.88 22.0 L 15.5 22.0 L 15.12 22.0 L 14.75 22.0 L 14.38 22.0 L 14.0 22.0 L 13.62 22.0 L 13.25 22.0 L 12.88 22.0 L 12.5 22.0 L 12.12 22.0 L 11.75 22.0 L 11.38 22.0 L 11.0 22.0 L 10.62 22.0 L 10.25 22.0 L 9.88 22.0 L 9.5 22.0 L 9.12 22.0 L 8.75 22.0 L 8.38 22.0 L 8.0 22.0" fill="none" stroke="#111" stroke-width="1.19" stroke-linecap="round" stroke-linejoin="round"/>
</svg>
