<?xml version="1.0" encoding="UTF-8"?>
<svg xmlns="http://www.w3.org/2000/svg" viewBox="0 0 20.00 34.99">
<path d="M 4.0 5.0 L 4.5 4.96 L 5.0 4.92 L 5.5 4.88 L 6.0 4.83 L 6.5 4.79 L 7.0 4.75 L 7.5 4.71 L 8.0 4.67 L 8.5 4.62 L 9.0 4.58 L 9.5 4.54 L 10.0 4.5 L 10.5 4.46 L 11.0 4.42 L 11.5 4.38 L 12.0 4.33 L 12.5 4.29 L 13.0 4.25 L 13.5 4.21 L 14.0 4.17 L 14.5 4.12 L 15.0 4.08 L 15.5 4.04 L 16.0 4.0" fill="none" stroke="#111" stroke-width="1.22" stroke-linecap="round" stroke-linejoin="round"/>
<path d="M 10.0 5.0 L 9.96 5.84 L 9.93 6.67 L 9.9 7.51 L 9.89 8.34 L 9.87 9.18 L 9.87 10.02 L 9.87 10.85 L 9.88 11.69 L 9.9 12.52 L 9.92 13.36 L 9.96 14.2 L 9.99 15.03 L 10.04 15.87 L 10.09 16.7 L 10.15 17.54 L 10.22 18.37 L 10.29 19.2 L 10.37 20.03 L 10.46 20.87 L 10.55 21.7 L 10.65 22.53 L 10.76 23.36 L 10.88 24.18 L 11.0 25.01 L 11.0 25.0 L 10.74 25.29 L 10.49 25.57 L 10.22 25.85 L 9.96 26.13 L 9.69 26.41 L 9.42 26.68 L 9.14 26.95 L 8.86 27.22 L 8.58 27.48 L 8.29 27.74 L 8.01 27.99 L 7.72 28.25 L 7.42 28.49 L 7.13 28.74 L 6.83 28.98 L 6.52 29.22 L 6.22 29.45 L 5.91 29.69 L 5.6 29.91 L 5.29 30.14 L 4.97 30.36 L 4.65 30.57 L 4.33 30.79 L 4.01 30.99" fill="none" stroke="#111" stroke-width="1.22" stroke-linecap="round" stroke-linejoin="round"/>
<path d="M 9.0 16.0 L 8.83 16.25 L 8.67 16.5 L 8.5 16.75 L 8.33 17.0 L 8.17 17.25 L 8.0 17.5 L 7.83 17.75 L 7.67 18.0 L 7.5 18.25 L 7.33 18.5 L 7.17 18.75 L 7.0 19.0 L 6.83 19.25 L 6.67 19.5 L 6.5 19.75 L 6.33 20.0 L 6.17 20.25 L 6.0 20.5 L 5.83 20.75 L 5.67 21.0 L 5.5 21.25 L 5.33 21.5 L 5.17 21.75 L 5.0 22.0" fill="none" stroke="#111" stroke-width="1.22" stroke-linecap="round" stroke-linejoin="round"/>
<path d="M 6.0 8.0 L 5.96 8.29 L 5.92 8.58 L 5.88 8.88 L 5.83 9.17 L 5.79 9.46 L 5.75 9.75 L 5.71 10.04 L 5.67 10.33 L 5.62 10.62 L 5.58 10.92 L 5.54 11.21 L 5.5 11.5 L 5.46 11.79 L 5.42 12.08 L 5.38 12.38 L 5.33 12.67 L 5.29 12.96 L 5.25 13.25 L 5.21 13.54 L 5.17 13.83 L 5.12 14.12 L 5.08 14.42 L 5.04 14.71 L 5.0 15.0" fill="none" stroke="#111" stroke-width="1.22" stroke-linecap="round" stroke-linejoin="round"/>
<path d="M 6.0 12.0 L 6.17 11.96 L 6.33 11.92 L 6.5 11.88 L 6.67 11.83 L 6.83 11.79 L 7.0 11.75 L 7.17 11.71 L 7.33 11.67 L 7.5 11.62 L 7.67 11.58 L 7.83 11.54 L 8.0 11.5 L 8.17 11.46 L 8.33 11.42 L 8.5 11.38 L 8.67 11.33 L 8.83 11.29 L 9.0 11.25 L 9.17 11.21 L 9.33 11.17 L 9.5 11.12 L 9.67 11.08 L 9.83 11.04 L 10.0 11.0" fill="none" stroke="#111" stroke-width="1.22" stroke-linecap="round" stroke-linejoin="round"/>
</svg>
