<?xml version="1.0" encoding="UTF-8"?>
<svg xmlns="http://www.w3.org/2000/svg" viewBox="0 0 21.96 35.72">
<path d="M 16.96 6.0 L 16.62 6.17 L 16.29 6.33 L 15.96 6.5 L 15.62 6.67 L 15.29 6.83 L 14.96 7.0 L 14.62 7.17 L 14.29 7.33 L 13.96 7.5 L 13.62 7.67 L 13.29 7.83 L 12.96 8.0 L 12.62 8.17 L 12.29 8.33 L 11.96 8.5 L 11.62 8.67 L 11.29 8.83 L 10.96 9.0 L 10.62 9.17 L 10.29 9.33 L 9.96 9.5 L 9.62 9.67 L 9.29 9.83 L 8.96 10.0 L 8.96 10.0 L 9.04 10.46 L 9.15 10.91 L 9.28 11.36 L 9.44 11.8 L 9.63 12.23 L 9.84 12.65 L 10.08 13.05 L 10.34 13.44 L 10.62 13.81 L 10.92 14.17 L 11.25 14.51 L 11.59 14.82 L 11.95 15.12 L 12.33 15.4 L 12.72 15.65 L 13.13 15.88 L 13.55 16.09 L 13.98 16.27 L 14.42 16.42 L 14.87 16.55 L 15.33 16.65 L 15.79 16.73 L 16.25 16.78 L 16.72 16.8 L 16.96 17.0 L 16.96 17.25 L 16.96 17.5 L 16.96 17.75 L 16.96 18.0 L 16.96 18.25 L 16.96 18.5 L 16.96 18.75 L 16.96 19.0 L 16.96 19.25 L 16.96 19.5 L 16.96 19.75 L 16.96 20.0 L 16.96 20.25 L 16.96 20.5 L 16.96 20.75 L 16.96 21.0 L 16.96 21.25 L 16.96 21.5 L 16.96 21.75 L 16.96 22.0 L 16.96 22.25 L 16.96 22.5 L 16.96 22.75 L 16.96 23.0 L 16.96 23.0 L 16.48 23.09 L 16.02 23.21 L 15.56 23.37 L 15.12 23.56 L 14.7 23.78 L 14.29 24.04 L 13.91 24.33 L 13.54 24.64 L 13.21 24.99 L 12.9 25.36 L 12.62 25.75 L 12.37 26.16 L 12.15 26.59 L 11.97 27.03 L 11.82 27.49 L 11.7 27.96 L 11.63 28.43 L 11.59 28.91 L 11.58 29.39 L 11.62 29.87 L 11.69 30.35 L 11.79 30.81 L 11.93 31.27 L 12.11 31.72" fill="none" stroke="#111" stroke-width="1.25" stroke-linecap="round" stroke-linejoin="round"/>
<path d="M 11.96 9.0 L 12.45 9.34 L 12.9 9.75 L 13.28 10.21 L 13.6 10.73 L 13.84 11.28 L 13.99 11.86 L 14.07 12.46 L 14.05 13.07 L 13.95 13.66 L 13.77 14.24 L 13.51 14.78 L 13.18 15.28 L 12.77 15.73 L 12.31 16.12 L 11.8 16.44 L 11.24 16.68 L 10.66 16.84 L 10.06 16.92 L 9.46 16.91 L 8.86 16.81 L 8.29 16.64 L 7.74 16.38 L 7.24 16.05 L 6.79 15.65" fill="none" stroke="#111" stroke-width="1.25" stroke-linecap="round" stroke-linejoin="round"/>
<path d="M 14.96 15.0 L 14.46 15.43 L 13.98 15.87 L 13.52 16.34 L 13.08 16.82 L 12.66 17.32 L 12.26 17.83 L 11.88 18.36 L 11.52 18.91 L 11.18 19.47 L 10.87 20.04 L 10.58 20.62 L 10.31 21.22 L 10.06 21.82 L 9.84 22.44 L 9.64 23.06 L 9.47 23.69 L 9.33 24.33 L 9.2 24.97 L 9.11 25.61 L 9.04 26.26 L 8.99 26.92 L 8.97 27.57 L 8.98 28.22 L 9.01 28.87" fill="none" stroke="#111" stroke-width="1.25" stroke-linecap="round" stroke-linejoin="round"/>
<path d="M 8.96 16.0 L 9.04 16.12 L 9.12 16.25 L 9.21 16.38 L 9.29 16.5 L 9.37 16.62 L 9.46 16.75 L 9.54 16.88 L 9.62 17.0 L 9.71 17.12 L 9.79 17.25 L 9.87 17.38 L 9.96 17.5 L 10.04 17.62 L 10.12 17.75 L 10.21 17.88 L 10.29 18.0 L 10.37 18.12 L 10.46 18.25 L 10.54 18.38 L 10.62 18.5 L 10.71 18.62 L 10.79 18.75 L 10.87 18.88 L 10.96 19.0" fill="none" stroke="#111" stroke-width="1.25" stroke-linecap="round" stroke-linejoin="round"/>
<path d="M 9.96 17.0 L 9.75 17.22 L 9.54 17.44 L 9.34 17.66 L 9.14 17.89 L 8.95 18.12 L 8.76 18.36 L 8.57 18.59 L 8.39 18.83 L 8.21 19.07 L 8.03 19.32 L 7.86 19.56 L 7.69 19.81 L 7.52 20.07 L 7.36 20.32 L 7.21 20.58 L 7.05 20.84 L 6.9 21.1 L 6.76 21.36 L 6.61 21.63 L 6.48 21.9 L 6.34 22.17 L 6.21 22.44 L 6.09 22.71 L 5.96 22.99 L 5.96 23.0 L 6.07 23.26 L 6.17 23.53 L 6.24 23.8 L 6.31 24.08 L 6.35 24.36 L 6.38 24.64 L 6.38 24.93 L 6.37 25.21 L 6.35 25.5 L 6.3 25.78 L 6.24 26.05 L 6.16 26.33 L 6.06 26.59 L 5.94 26.85 L 5.81 27.11 L 5.66 27.35 L 5.5 27.58 L 5.32 27.8 L 5.13 28.02 L 4.93 28.21 L 4.71 28.4 L 4.49 28.57 L 4.25 28.73 L 4.0 28.87" fill="none" stroke="#111" stroke-width="1.25" stroke-linecap="round" stroke-linejoin="round"/>
<path d="M 15.96 24.0 L 16.04 24.21 L 16.12 24.42 L 16.21 24.62 L 16.29 24.83 L 16.37 25.04 L 16.46 25.25 L 16.54 25.46 L 16.62 25.67 L 16.71 25.88 L 16.79 26.08 L 16.87 26.29 L 16.96 26.5 L 17.04 26.71 L 17.12 26.92 L 17.21 27.12 L 17.29 27.33 L 17.37 27.54 L 17.46 27.75 L 17.54 27.96 L 17.62 28.17 L 17.71 28.38 L 17.79 28.58 L 17.87 28.79 L 17.96 29.0" fill="none" stroke="#111" stroke-width="1.25" stroke-linecap="round" stroke-linejoin="round"/>
<path d="M 10.96 8.0 L 11.0 7.83 L 11.04 7.67 L 11.08 7.5 L 11.12 7.33 L 11.16 7.17 L 11.21 7.0 L 11.25 6.83 L 11.29 6.67 L 11.33 6.5 L 11.37 6.33 L 11.41 6.17 L 11.46 6.0 L 11.5 5.83 L 11.54 5.67 L 11.58 5.5 L 11.62 5.33 L 11.66 5.17 L 11.71 5.0 L 11.75 4.83 L 11.79 4.67 L 11.83 4.5 L 11.87 4.33 L 11.91 4.17 L 11.96 4.0 L 11.96 4.0 L 12.04 4.04 L 12.12 4.08 L 12.21 4.12 L 12.29 4.17 L 12.37 4.21 L 12.46 4.25 L 12.54 4.29 L 12.62 4.33 L 12.71 4.38 L 12.79 4.42 L 12.87 4.46 L 12.96 4.5 L 13.04 4.54 L 13.12 4.58 L 13.21 4.62 L 13.29 4.67 L 13.37 4.71 L 13.46 4.75 L 13.54 4.79 L 13.62 4.83 L 13.71 4.88 L 13.79 4.92 L 13.87 4.96 L 13.96 5.0" fill="none" stroke="#111" stroke-width="1.25" stroke-linecap="round" stroke-linejoin="round"/>
<path d="M 9.96 7.0 L 9.85 6.72 L 9.7 6.45 L 9.52 6.21 L 9.3 6.0 L 9.06 5.82 L 8.79 5.68 L 8.5 5.58 L 8.21 5.52 L 7.9 5.5 L 7.6 5.53 L 7.31 5.61 L 7.03 5.72 L 6.77 5.88 L 6.53 6.07 L 6.32 6.29 L 6.15 6.54 L 6.02 6.82 L 5.93 7.11 L 5.88 7.41 L 5.88 7.71 L 5.92 8.01 L 6.0 8.3 L 6.13 8.58 L 6.29 8.83" fill="none" stroke="#111" stroke-width="1.25" stroke-linecap="round" stroke-linejoin="round"/>
</svg>
