<?xml version="1.0" encoding="UTF-8"?>
<svg xmlns="http://www.w3.org/2000/svg" viewBox="0 0 21.99 34.00">
<path d="M 9.2 8.0 L 9.56 7.97 L 9.92 7.97 L 10.27 8.01 L 10.62 8.09 L 10.96 8.21 L 11.28 8.36 L 11.59 8.54 L 11.88 8.75 L 12.14 8.99 L 12.38 9.26 L 12.59 9.55 L 12.77 9.86 L 12.91 10.19 L 13.02 10.53 L 13.09 10.88 L 13.12 11.24 L 13.12 11.6 L 13.08 11.95 L 13.01 12.3 L 12.9 12.64 L 12.75 12.97 L 12.57 13.28 L 12.36 13.57 L 12.12 13.83" fill="none" stroke="#111" stroke-width="1.19" stroke-linecap="round" stroke-linejoin="round"/>
<path d="M 13.2 8.0 L 13.08 8.17 L 12.95 8.33 L 12.83 8.5 L 12.7 8.67 L 12.58 8.83 L 12.45 9.0 L 12.33 9.17 L 12.2 9.33 L 12.08 9.5 L 11.95 9.67 L 11.83 9.83 L 11.7 10.0 L 11.58 10.17 L 11.45 10.33 L 11.33 10.5 L 11.2 10.67 L 11.08 10.83 L 10.95 11.0 L 10.83 11.17 L 10.7 11.33 L 10.58 11.5 L 10.45 11.67 L 10.33 11.83 L 10.2 12.0" fill="none" stroke="#111" stroke-width="1.19" stroke-linecap="round" stroke-linejoin="round"/>
<path d="M 10.2 12.0 L 10.28 12.08 L 10.37 12.17 L 10.45 12.25 L 10.53 12.33 L 10.62 12.42 L 10.7 12.5 L 10.78 12.58 L 10.87 12.67 L 10.95 12.75 L 11.03 12.83 L 11.12 12.92 L 11.2 13.0 L 11.28 13.08 L 11.37 13.17 L 11.45 13.25 L 11.53 13.33 L 11.62 13.42 L 11.7 13.5 L 11.78 13.58 L 11.87 13.67 L 11.95 13.75 L 12.03 13.83 L 12.12 13.92 L 12.2 14.0" fill="none" stroke="#111" stroke-width="1.19" stroke-linecap="round" stroke-linejoin="round"/>
<path d="M 12.2 14.0 L 12.2 14.54 L 12.2 15.08 L 12.2 15.62 L 12.2 16.17 L 12.2 16.71 L 12.2 17.25 L 12.2 17.79 L 12.2 18.33 L 12.2 18.88 L 12.2 19.42 L 12.2 19.96 L 12.2 20.5 L 12.2 21.04 L 12.2 21.58 L 12.2 22.12 L 12.2 22.67 L 12.2 23.21 L 12.2 23.75 L 12.2 24.29 L 12.2 24.83 L 12.2 25.38 L 12.2 25.92 L 12.2 26.46 L 12.2 27.0" fill="none" stroke="#111" stroke-width="1.19" stroke-linecap="round" stroke-linejoin="round"/>
<path d="M 9.2 17.0 L 9.33 17.21 L 9.45 17.42 L 9.58 17.62 L 9.7 17.83 L 9.83 18.04 L 9.95 18.25 L 10.08 18.46 L 10.2 18.67 L 10.33 18.88 L 10.45 19.08 L 10.58 19.29 L 10.7 19.5 L 10.83 19.71 L 10.95 19.92 L 11.08 20.12 L 11.2 20.33 L 11.33 20.54 L 11.45 20.75 L 11.58 20.96 L 11.7 21.17 L 11.83 21.38 L 11.95 21.58 L 12.08 21.79 L 12.2 22.0" fill="none" stroke="#111" stroke-width="1.19" stroke-linecap="round" stroke-linejoin="round"/>
<path d="M 15.2 16.0 L 15.08 16.25 L 14.95 16.5 L 14.83 16.75 L 14.7 17.0 L 14.58 17.25 L 14.45 17.5 L 14.33 17.75 L 14.2 18.0 L 14.08 18.25 L 13.95 18.5 L 13.83 18.75 L 13.7 19.0 L 13.58 19.25 L 13.45 19.5 L 13.33 19.75 L 13.2 20.0 L 13.08 20.25 L 12.95 20.5 L 12.83 20.75 L 12.7 21.0 L 12.58 21.25 L 12.45 21.5 L 12.33 21.75 L 12.2 22.0" fill="none" stroke="#111" stroke-width="1.19" stroke-linecap="round" stroke-linejoin="round"/>
<path d="M 13.2 4.0 L 12.95 4.17 L 12.7 4.33 L 12.45 4.5 L 12.2 4.67 L 11.95 4.83 L 11.7 5.0 L 11.45 5.17 L 11.2 5.33 L 10.95 5.5 L 10.7 5.67 L 10.45 5.83 L 10.2 6.0 L 9.95 6.17 L 9.7 6.33 L 9.45 6.5 L 9.2 6.67 L 8.95 6.83 L 8.7 7.0 L 8.45 7.17 L 8.2 7.33 L 7.95 7.5 L 7.7 7.67 L 7.45 7.83 L 7.2 8.0 L 7.2 8.0 L 7.26 8.92 L 7.32 9.84 L 7.39 10.76 L 7.45 11.67 L 7.52 12.59 L 7.59 13.51 L 7.66 14.43 L 7.74 15.35 L 7.81 16.26 L 7.89 17.18 L 7.97 18.1 L 8.05 19.02 L 8.14 19.93 L 8.23 20.85 L 8.31 21.77 L 8.4 22.68 L 8.5 23.6 L 8.59 24.51 L 8.69 25.43 L 8.79 26.35 L 8.89 27.26 L 8.99 28.18 L 9.09 29.09 L 9.2 30.0" fill="none" stroke="#111" stroke-width="1.19" stroke-linecap="round" stroke-linejoin="round"/>
<path d="M 9.2 30.0 L 9.41 30.0 L 9.62 30.0 L 9.83 30.0 L 10.03 30.0 L 10.24 30.0 L 10.45 30.0 L 10.66 30.0 L 10.87 30.0 L 11.08 30.0 L 11.28 30.0 L 11.49 30.0 L 11.7 30.0 L 11.91 30.0 L 12.12 30.0 L 12.33 30.0 L 12.53 30.0 L 12.74 30.0 L 12.95 30.0 L 13.16 30.0 L 13.37 30.0 L 13.58 30.0 L 13.78 30.0 L 13.99 30.0 L 14.2 30.0" fill="none" stroke="#111" stroke-width="1.19" stroke-linecap="round" stroke-linejoin="round"/>
<path d="M 14.2 30.0 L 14.79 29.02 L 15.34 28.02 L 15.83 26.99 L 16.28 25.94 L 16.68 24.88 L 17.02 23.79 L 17.32 22.69 L 17.56 21.57 L 17.75 20.45 L 17.88 19.31 L 17.96 18.17 L 17.99 17.03 L 17.96 15.89 L 17.88 14.76 L 17.75 13.62 L 17.56 12.5 L 17.32 11.38 L 17.02 10.28 L 16.68 9.19 L 16.28 8.12 L 15.83 7.07 L 15.34 6.05 L 14.79 5.04 L 14.2 4.07" fill="none" stroke="#111" stroke-width="1.19" stroke-linecap="round" stroke-linejoin="round"/>
<path d="M 7.2 13.0 L 7.08 13.12 L 6.95 13.25 L 6.83 13.38 L 6.7 13.5 L 6.58 13.62 L 6.45 13.75 L 6.33 13.88 L 6.2 14.0 L 6.08 14.12 L 5.95 14.25 L 5.83 14.38 L 5.7 14.5 L 5.58 14.62 L 5.45 14.75 L 5.33 14.88 L 5.2 15.0 L 5.08 15.12 L 4.95 15.25 L 4.83 15.38 L 4.7 15.5 L 4.58 15.62 L 4.45 15.75 L 4.33 15.88 L 4.2 16.0" fill="none" stroke="#111" stroke-width="1.19" stroke-linecap="round" stroke-linejoin="round"/>
<path d="M 4.2 16.0 L 4.11 16.32 L 4.05 16.65 L 4.01 16.98 L 4.0 17.31 L 4.01 17.65 L 4.05 17.98 L 4.11 18.31 L 4.19 18.63 L 4.3 18.94 L 4.43 19.25 L 4.58 19.55 L 4.76 19.83 L 4.95 20.1 L 5.17 20.36 L 5.4 20.59 L 5.65 20.81 L 5.91 21.02 L 6.19 21.2 L 6.49 21.36 L 6.79 21.5 L 7.1 21.61 L 7.42 21.7 L 7.75 21.77 L 8.08 21.82" fill="none" stroke="#111" stroke-width="1.19" stroke-linecap="round" stroke-linejoin="round"/>
</svg>
