<?xml version="1.0" encoding="UTF-8"?>
<svg xmlns="http://www.w3.org/2000/svg" viewBox="0 0 21.76 34.93">
<path d="M 7.33 10.0 L 7.66 9.79 L 7.99 9.58 L 8.33 9.38 L 8.66 9.17 L 8.99 8.96 L 9.33 8.75 L 9.66 8.54 L 9.99 8.33 L 10.33 8.12 L 10.66 7.92 L 10.99 7.71 L 11.33 7.5 L 11.66 7.29 L 11.99 7.08 L 12.33 6.88 L 12.66 6.67 L 12.99 6.46 L 13.33 6.25 L 13.66 6.04 L 13.99 5.83 L 14.33 5.62 L 14.66 5.42 L 14.99 5.21 L 15.33 5.0 L 15.33 5.0 L 15.41 5.55 L 15.46 6.1 L 15.47 6.65 L 15.44 7.21 L 15.38 7.76 L 15.28 8.3 L 15.14 8.84 L 14.97 9.37 L 14.77 9.88 L 14.53 10.38 L 14.26 10.86 L 13.95 11.33 L 13.62 11.77 L 13.26 12.19 L 12.87 12.58 L 12.46 12.95 L 12.02 13.29 L 11.56 13.6 L 11.09 13.88 L 10.59 14.13 L 10.08 14.35 L 9.56 14.53 L 9.02 14.67 L 8.48 14.78 L 8.33 15.0 L 8.28 15.5 L 8.24 16.0 L 8.2 16.5 L 8.16 17.0 L 8.12 17.5 L 8.08 18.0 L 8.03 18.5 L 7.99 19.0 L 7.95 19.5 L 7.91 20.0 L 7.87 20.5 L 7.83 21.0 L 7.78 21.5 L 7.74 22.0 L 7.7 22.5 L 7.66 23.0 L 7.62 23.5 L 7.58 24.0 L 7.53 24.5 L 7.49 25.0 L 7.45 25.5 L 7.41 26.0 L 7.37 26.5 L 7.33 27.0" fill="none" stroke="#111" stroke-width="1.22" stroke-linecap="round" stroke-linejoin="round"/>
<path d="M 11.33 8.0 L 11.94 8.43 L 12.53 8.89 L 13.1 9.38 L 13.64 9.9 L 14.16 10.44 L 14.64 11.02 L 15.09 11.61 L 15.51 12.23 L 15.9 12.88 L 16.26 13.54 L 16.57 14.22 L 16.85 14.91 L 17.1 15.62 L 17.31 16.34 L 17.48 17.07 L 17.61 17.81 L 17.7 18.55 L 17.75 19.3 L 17.76 20.05 L 17.73 20.8 L 17.67 21.55 L 17.56 22.29 L 17.42 23.03 L 17.23 23.75" fill="none" stroke="#111" stroke-width="1.22" stroke-linecap="round" stroke-linejoin="round"/>
<path d="M 10.33 14.0 L 10.68 14.29 L 11.03 14.59 L 11.35 14.91 L 11.66 15.25 L 11.95 15.61 L 12.22 15.97 L 12.47 16.36 L 12.71 16.75 L 12.92 17.16 L 13.1 17.58 L 13.27 18.01 L 13.41 18.44 L 13.53 18.88 L 13.63 19.33 L 13.7 19.78 L 13.75 20.24 L 13.78 20.7 L 13.78 21.16 L 13.75 21.61 L 13.71 22.07 L 13.64 22.52 L 13.54 22.97 L 13.42 23.41 L 13.28 23.85" fill="none" stroke="#111" stroke-width="1.22" stroke-linecap="round" stroke-linejoin="round"/>
<path d="M 8.33 22.0 L 8.41 22.21 L 8.49 22.42 L 8.58 22.62 L 8.66 22.83 L 8.74 23.04 L 8.83 23.25 L 8.91 23.46 L 8.99 23.67 L 9.08 23.88 L 9.16 24.08 L 9.24 24.29 L 9.33 24.5 L 9.41 24.71 L 9.49 24.92 L 9.58 25.12 L 9.66 25.33 L 9.74 25.54 L 9.83 25.75 L 9.91 25.96 L 9.99 26.17 L 10.08 26.38 L 10.16 26.58 L 10.24 26.79 L 10.33 27.0" fill="none" stroke="#111" stroke-width="1.22" stroke-linecap="round" stroke-linejoin="round"/>
<path d="M 5.33 23.0 L 4.79 23.66 L 4.38 24.4 L 4.12 25.2 L 4.0 26.04 L 4.04 26.89 L 4.22 27.71 L 4.56 28.49 L 5.03 29.19 L 5.62 29.8 L 6.31 30.29 L 7.07 30.65 L 7.89 30.86 L 8.74 30.93 L 9.58 30.84 L 10.39 30.6 L 11.14 30.21 L 11.82 29.7 L 12.39 29.07 L 12.83 28.35 L 13.14 27.56 L 13.3 26.73 L 13.31 25.89 L 13.16 25.05 L 12.87 24.26" fill="none" stroke="#111" stroke-width="1.22" stroke-linecap="round" stroke-linejoin="round"/>
<path d="M 10.33 8.0 L 10.28 7.66 L 10.19 7.33 L 10.04 7.02 L 9.85 6.73 L 9.62 6.48 L 9.35 6.26 L 9.06 6.09 L 8.74 5.97 L 8.4 5.9 L 8.06 5.87 L 7.72 5.91 L 7.39 5.99 L 7.07 6.12 L 6.78 6.3 L 6.52 6.52 L 6.29 6.78 L 6.11 7.08 L 5.98 7.39 L 5.89 7.72 L 5.86 8.07 L 5.88 8.41 L 5.95 8.74 L 6.07 9.06 L 6.24 9.36" fill="none" stroke="#111" stroke-width="1.22" stroke-linecap="round" stroke-linejoin="round"/>
<path d="M 11.33 7.0 L 11.33 6.88 L 11.33 6.75 L 11.33 6.62 L 11.33 6.5 L 11.33 6.38 L 11.33 6.25 L 11.33 6.12 L 11.33 6.0 L 11.33 5.88 L 11.33 5.75 L 11.33 5.62 L 11.33 5.5 L 11.33 5.38 L 11.33 5.25 L 11.33 5.12 L 11.33 5.0 L 11.33 4.88 L 11.33 4.75 L 11.33 4.62 L 11.33 4.5 L 11.33 4.38 L 11.33 4.25 L 11.33 4.12 L 11.33 4.0 L 11.33 4.0 L 11.41 4.04 L 11.49 4.08 L 11.58 4.12 L 11.66 4.17 L 11.74 4.21 L 11.83 4.25 L 11.91 4.29 L 11.99 4.33 L 12.08 4.38 L 12.16 4.42 L 12.24 4.46 L 12.33 4.5 L 12.41 4.54 L 12.49 4.58 L 12.58 4.62 L 12.66 4.67 L 12.74 4.71 L 12.83 4.75 L 12.91 4.79 L 12.99 4.83 L 13.08 4.88 L 13.16 4.92 L 13.24 4.96 L 13.33 5.0" fill="none" stroke="#111" stroke-width="1.22" stroke-linecap="round" stroke-linejoin="round"/>
</svg>
