<?xml version="1.0" encoding="UTF-8"?>
<svg xmlns="http://www.w3.org/2000/svg" viewBox="0 0 22.52 35.00">
<path d="M 4.52 21.0 L 5.1 20.96 L 5.68 20.92 L 6.27 20.88 L 6.85 20.83 L 7.43 20.79 L 8.02 20.75 L 8.6 20.71 L 9.18 20.67 L 9.77 20.62 L 10.35 20.58 L 10.93 20.54 L 11.52 20.5 L 12.1 20.46 L 12.68 20.42 L 13.27 20.38 L 13.85 20.33 L 14.43 20.29 L 15.02 20.25 L 15.6 20.21 L 16.18 20.17 L 16.77 20.12 L 17.35 20.08 L 17.93 20.04 L 18.52 20.0" fill="none" stroke="#111" stroke-width="1.23" stroke-linecap="round" stroke-linejoin="round"/>
<path d="M 13.52 18.0 L 13.43 18.0 L 13.35 18.0 L 13.27 18.0 L 13.18 18.0 L 13.1 18.0 L 13.02 18.0 L 12.93 18.0 L 12.85 18.0 L 12.77 18.0 L 12.68 18.0 L 12.6 18.0 L 12.52 18.0 L 12.43 18.0 L 12.35 18.0 L 12.27 18.0 L 12.18 18.0 L 12.1 18.0 L 12.02 18.0 L 11.93 18.0 L 11.85 18.0 L 11.77 18.0 L 11.68 18.0 L 11.6 18.0 L 11.52 18.0 L 11.52 18.0 L 11.68 18.0 L 11.85 18.0 L 12.02 18.0 L 12.18 18.0 L 12.35 18.0 L 12.52 18.0 L 12.68 18.0 L 12.85 18.0 L 13.02 18.0 L 13.18 18.0 L 13.35 18.0 L 13.52 18.0 L 13.68 18.0 L 13.85 18.0 L 14.02 18.0 L 14.18 18.0 L 14.35 18.0 L 14.52 18.0 L 14.68 18.0 L 14.85 18.0 L 15.02 18.0 L 15.18 18.0 L 15.35 18.0 L 15.52 18.0" fill="none" stroke="#111" stroke-width="1.23" stroke-linecap="round" stroke-linejoin="round"/>
<path d="M 13.52 17.0 L 13.47 17.58 L 13.43 18.17 L 13.39 18.75 L 13.35 19.33 L 13.31 19.92 L 13.27 20.5 L 13.22 21.08 L 13.18 21.67 L 13.14 22.25 L 13.1 22.83 L 13.06 23.42 L 13.02 24.0 L 12.97 24.58 L 12.93 25.17 L 12.89 25.75 L 12.85 26.33 L 12.81 26.92 L 12.77 27.5 L 12.72 28.08 L 12.68 28.67 L 12.64 29.25 L 12.6 29.83 L 12.56 30.42 L 12.52 31.0" fill="none" stroke="#111" stroke-width="1.23" stroke-linecap="round" stroke-linejoin="round"/>
<path d="M 10.52 31.0 L 10.72 31.0 L 10.93 31.0 L 11.14 31.0 L 11.35 31.0 L 11.56 31.0 L 11.77 31.0 L 11.97 31.0 L 12.18 31.0 L 12.39 31.0 L 12.6 31.0 L 12.81 31.0 L 13.02 31.0 L 13.22 31.0 L 13.43 31.0 L 13.64 31.0 L 13.85 31.0 L 14.06 31.0 L 14.27 31.0 L 14.47 31.0 L 14.68 31.0 L 14.89 31.0 L 15.1 31.0 L 15.31 31.0 L 15.52 31.0" fill="none" stroke="#111" stroke-width="1.23" stroke-linecap="round" stroke-linejoin="round"/>
<path d="M 4.52 14.0 L 4.3 13.43 L 4.15 12.85 L 4.05 12.25 L 4.0 11.65 L 4.01 11.04 L 4.08 10.44 L 4.21 9.85 L 4.39 9.27 L 4.62 8.71 L 4.91 8.17 L 5.24 7.67 L 5.62 7.2 L 6.05 6.77 L 6.51 6.37 L 7.0 6.03 L 7.53 5.73 L 8.08 5.48 L 8.66 5.29 L 9.25 5.15 L 9.85 5.07 L 10.45 5.04 L 11.06 5.07 L 11.66 5.16 L 12.25 5.3" fill="none" stroke="#111" stroke-width="1.23" stroke-linecap="round" stroke-linejoin="round"/>
<path d="M 6.52 7.0 L 6.56 7.17 L 6.6 7.33 L 6.64 7.5 L 6.68 7.67 L 6.72 7.83 L 6.77 8.0 L 6.81 8.17 L 6.85 8.33 L 6.89 8.5 L 6.93 8.67 L 6.97 8.83 L 7.02 9.0 L 7.06 9.17 L 7.1 9.33 L 7.14 9.5 L 7.18 9.67 L 7.22 9.83 L 7.27 10.0 L 7.31 10.17 L 7.35 10.33 L 7.39 10.5 L 7.43 10.67 L 7.47 10.83 L 7.52 11.0 L 7.52 11.0 L 7.56 11.0 L 7.6 11.0 L 7.64 11.0 L 7.68 11.0 L 7.72 11.0 L 7.77 11.0 L 7.81 11.0 L 7.85 11.0 L 7.89 11.0 L 7.93 11.0 L 7.97 11.0 L 8.02 11.0 L 8.06 11.0 L 8.1 11.0 L 8.14 11.0 L 8.18 11.0 L 8.22 11.0 L 8.27 11.0 L 8.31 11.0 L 8.35 11.0 L 8.39 11.0 L 8.43 11.0 L 8.47 11.0 L 8.52 11.0 L 8.52 11.0 L 8.67 10.89 L 8.82 10.77 L 8.96 10.64 L 9.09 10.5 L 9.2 10.35 L 9.3 10.19 L 9.39 10.02 L 9.46 9.84 L 9.52 9.66 L 9.56 9.47 L 9.58 9.28 L 9.59 9.09 L 9.58 8.9 L 9.56 8.71 L 9.52 8.52 L 9.46 8.34 L 9.39 8.17 L 9.3 8.0 L 9.2 7.83 L 9.09 7.68 L 8.96 7.54 L 8.82 7.41 L 8.67 7.29 L 8.52 7.18" fill="none" stroke="#111" stroke-width="1.23" stroke-linecap="round" stroke-linejoin="round"/>
<path d="M 12.52 5.0 L 12.46 5.5 L 12.38 6.0 L 12.27 6.49 L 12.13 6.97 L 11.96 7.45 L 11.76 7.91 L 11.54 8.36 L 11.29 8.8 L 11.01 9.22 L 10.71 9.63 L 10.39 10.01 L 10.05 10.38 L 9.68 10.73 L 9.29 11.05 L 8.89 11.35 L 8.47 11.62 L 8.03 11.87 L 7.58 12.1 L 7.11 12.29 L 6.64 12.46 L 6.15 12.6 L 5.66 12.72 L 5.17 12.8 L 4.67 12.85" fill="none" stroke="#111" stroke-width="1.23" stroke-linecap="round" stroke-linejoin="round"/>
<path d="M 8.52 11.0 L 8.4 11.19 L 8.31 11.38 L 8.23 11.59 L 8.17 11.8 L 8.13 12.01 L 8.11 12.23 L 8.1 12.45 L 8.12 12.66 L 8.15 12.88 L 8.21 13.09 L 8.28 13.3 L 8.37 13.5 L 8.47 13.69 L 8.59 13.87 L 8.73 14.04 L 8.88 14.19 L 9.05 14.34 L 9.22 14.46 L 9.41 14.58 L 9.61 14.67 L 9.81 14.75 L 10.02 14.81 L 10.24 14.85 L 10.45 14.87 L 10.52 15.0 L 10.31 15.42 L 10.1 15.83 L 9.89 16.25 L 9.68 16.67 L 9.47 17.08 L 9.27 17.5 L 9.06 17.92 L 8.85 18.33 L 8.64 18.75 L 8.43 19.17 L 8.22 19.58 L 8.02 20.0 L 7.81 20.42 L 7.6 20.83 L 7.39 21.25 L 7.18 21.67 L 6.97 22.08 L 6.77 22.5 L 6.56 22.92 L 6.35 23.33 L 6.14 23.75 L 5.93 24.17 L 5.72 24.58 L 5.52 25.0" fill="none" stroke="#111" stroke-width="1.23" stroke-linecap="round" stroke-linejoin="round"/>
<path d="M 6.52 5.0 L 6.52 5.08 L 6.52 5.17 L 6.52 5.25 L 6.52 5.33 L 6.52 5.42 L 6.52 5.5 L 6.52 5.58 L 6.52 5.67 L 6.52 5.75 L 6.52 5.83 L 6.52 5.92 L 6.52 6.0 L 6.52 6.08 L 6.52 6.17 L 6.52 6.25 L 6.52 6.33 L 6.52 6.42 L 6.52 6.5 L 6.52 6.58 L 6.52 6.67 L 6.52 6.75 L 6.52 6.83 L 6.52 6.92 L 6.52 7.0" fill="none" stroke="#111" stroke-width="1.23" stroke-linecap="round" stroke-linejoin="round"/>
<path d="M 9.52 4.0 L 9.56 4.08 L 9.6 4.17 L 9.64 4.25 L 9.68 4.33 L 9.72 4.42 L 9.77 4.5 L 9.81 4.58 L 9.85 4.67 L 9.89 4.75 L 9.93 4.83 L 9.97 4.92 L 10.02 5.0 L 10.06 5.08 L 10.1 5.17 L 10.14 5.25 L 10.18 5.33 L 10.22 5.42 L 10.27 5.5 L 10.31 5.58 L 10.35 5.67 L 10.39 5.75 L 10.43 5.83 L 10.47 5.92 L 10.52 6.0" fill="none" stroke="#111" stroke-width="1.23" stroke-linecap="round" stroke-linejoin="round"/>
</svg>
