<?xml version="1.0" encoding="UTF-8"?>
<svg xmlns="http://www.w3.org/2000/svg" viewBox="0 0 24.00 33.00">
<path d="M 8.0 4.0 L 7.96 4.58 L 7.92 5.17 L 7.88 5.75 L 7.83 6.33 L 7.79 6.92 L 7.75 7.5 L 7.71 8.08 L 7.67 8.67 L 7.62 9.25 L 7.58 9.83 L 7.54 10.42 L 7.5 11.0 L 7.46 11.58 L 7.42 12.17 L 7.37 12.75 L 7.33 13.33 L 7.29 13.92 L 7.25 14.5 L 7.21 15.08 L 7.17 15.67 L 7.12 16.25 L 7.08 16.83 L 7.04 17.42 L 7.0 18.0 L 7.0 18.0 L 7.44 17.94 L 7.89 17.92 L 8.33 17.94 L 8.78 17.99 L 9.21 18.09 L 9.64 18.22 L 10.05 18.39 L 10.45 18.59 L 10.83 18.83 L 11.18 19.1 L 11.51 19.39 L 11.82 19.72 L 12.09 20.07 L 12.34 20.44 L 12.55 20.84 L 12.73 21.25 L 12.86 21.67 L 12.97 22.1 L 13.03 22.55 L 13.06 22.99 L 13.05 23.44 L 13.0 23.88 L 12.91 24.32 L 12.78 24.74 L 13.0 25.0 L 12.75 24.83 L 12.5 24.67 L 12.25 24.5 L 12.0 24.33 L 11.75 24.17 L 11.5 24.0 L 11.25 23.83 L 11.0 23.67 L 10.75 23.5 L 10.5 23.33 L 10.25 23.17 L 10.0 23.0 L 9.75 22.83 L 9.5 22.67 L 9.25 22.5 L 9.0 22.33 L 8.75 22.17 L 8.5 22.0 L 8.25 21.83 L 8.0 21.67 L 7.75 21.5 L 7.5 21.33 L 7.25 21.17 L 7.0 21.0 L 7.0 21.0 L 7.0 21.33 L 7.0 21.67 L 7.0 22.0 L 7.0 22.33 L 7.0 22.67 L 7.0 23.0 L 7.0 23.33 L 7.0 23.67 L 7.0 24.0 L 7.0 24.33 L 7.0 24.67 L 7.0 25.0 L 7.0 25.33 L 7.0 25.67 L 7.0 26.0 L 7.0 26.33 L 7.0 26.67 L 7.0 27.0 L 7.0 27.33 L 7.0 27.67 L 7.0 28.0 L 7.0 28.33 L 7.0 28.67 L 7.0 29.0" fill="none" stroke="#111" stroke-width="1.16" stroke-linecap="round" stroke-linejoin="round"/>
<path d="M 4.0 6.0 L 4.61 5.97 L 5.21 5.99 L 5.82 6.07 L 6.41 6.21 L 6.98 6.41 L 7.54 6.65 L 8.07 6.95 L 8.57 7.3 L 9.03 7.69 L 9.46 8.12 L 9.84 8.59 L 10.18 9.1 L 10.46 9.63 L 10.7 10.19 L 10.88 10.77 L 11.01 11.37 L 11.08 11.97 L 11.09 12.58 L 11.05 13.18 L 10.95 13.78 L 10.79 14.37 L 10.58 14.94 L 10.32 15.49 L 10.0 16.01" fill="none" stroke="#111" stroke-width="1.16" stroke-linecap="round" stroke-linejoin="round"/>
<path d="M 5.0 7.0 L 4.9 7.53 L 4.84 8.06 L 4.82 8.6 L 4.86 9.14 L 4.93 9.68 L 5.06 10.2 L 5.23 10.71 L 5.44 11.21 L 5.69 11.69 L 5.98 12.14 L 6.31 12.57 L 6.67 12.96 L 7.07 13.33 L 7.5 13.66 L 7.95 13.95 L 8.43 14.2 L 8.92 14.41 L 9.44 14.58 L 9.96 14.7 L 10.49 14.78 L 11.03 14.81 L 11.57 14.8 L 12.11 14.74 L 12.64 14.64" fill="none" stroke="#111" stroke-width="1.16" stroke-linecap="round" stroke-linejoin="round"/>
<path d="M 14.0 12.0 L 13.69 11.6 L 13.45 11.16 L 13.29 10.68 L 13.22 10.18 L 13.23 9.68 L 13.33 9.18 L 13.51 8.71 L 13.78 8.28 L 14.11 7.9 L 14.5 7.59 L 14.94 7.34 L 15.42 7.18 L 15.92 7.1 L 16.42 7.11 L 16.92 7.2 L 17.39 7.38 L 17.82 7.64 L 18.21 7.96 L 18.53 8.35 L 18.78 8.79 L 18.95 9.27 L 19.03 9.76 L 19.03 10.27 L 18.94 10.76 L 18.0 11.0 L 17.83 11.04 L 17.67 11.08 L 17.5 11.12 L 17.33 11.17 L 17.17 11.21 L 17.0 11.25 L 16.83 11.29 L 16.67 11.33 L 16.5 11.38 L 16.33 11.42 L 16.17 11.46 L 16.0 11.5 L 15.83 11.54 L 15.67 11.58 L 15.5 11.62 L 15.33 11.67 L 15.17 11.71 L 15.0 11.75 L 14.83 11.79 L 14.67 11.83 L 14.5 11.88 L 14.33 11.92 L 14.17 11.96 L 14.0 12.0" fill="none" stroke="#111" stroke-width="1.16" stroke-linecap="round" stroke-linejoin="round"/>
<path d="M 13.0 13.0 L 13.29 13.0 L 13.58 13.0 L 13.88 13.0 L 14.17 13.0 L 14.46 13.0 L 14.75 13.0 L 15.04 13.0 L 15.33 13.0 L 15.62 13.0 L 15.92 13.0 L 16.21 13.0 L 16.5 13.0 L 16.79 13.0 L 17.08 13.0 L 17.38 13.0 L 17.67 13.0 L 17.96 13.0 L 18.25 13.0 L 18.54 13.0 L 18.83 13.0 L 19.12 13.0 L 19.42 13.0 L 19.71 13.0 L 20.0 13.0" fill="none" stroke="#111" stroke-width="1.16" stroke-linecap="round" stroke-linejoin="round"/>
<path d="M 16.0 12.0 L 15.97 12.54 L 15.94 13.09 L 15.92 13.63 L 15.91 14.18 L 15.9 14.72 L 15.9 15.27 L 15.91 15.81 L 15.92 16.35 L 15.94 16.9 L 15.97 17.44 L 16.0 17.99 L 16.04 18.53 L 16.08 19.07 L 16.13 19.61 L 16.19 20.16 L 16.26 20.7 L 16.33 21.24 L 16.4 21.78 L 16.49 22.31 L 16.58 22.85 L 16.67 23.39 L 16.78 23.92 L 16.88 24.46 L 17.0 24.99" fill="none" stroke="#111" stroke-width="1.16" stroke-linecap="round" stroke-linejoin="round"/>
</svg>
