<?xml version="1.0" encoding="UTF-8"?>
<svg xmlns="http://www.w3.org/2000/svg" viewBox="0 0 22.86 34.26">
<path d="M 7.86 5.0 L 8.85 5.7 L 9.78 6.47 L 10.65 7.3 L 11.46 8.2 L 12.2 9.16 L 12.88 10.16 L 13.47 11.21 L 13.99 12.31 L 14.42 13.44 L 14.77 14.59 L 15.04 15.77 L 15.21 16.97 L 15.3 18.17 L 15.3 19.38 L 15.21 20.59 L 15.04 21.78 L 14.78 22.96 L 14.43 24.12 L 13.99 25.25 L 13.48 26.34 L 12.89 27.4 L 12.22 28.4 L 11.48 29.36 L 10.67 30.26" fill="none" stroke="#111" stroke-width="1.20" stroke-linecap="round" stroke-linejoin="round"/>
<path d="M 7.86 5.0 L 7.78 5.25 L 7.69 5.5 L 7.61 5.75 L 7.53 6.0 L 7.44 6.25 L 7.36 6.5 L 7.28 6.75 L 7.19 7.0 L 7.11 7.25 L 7.03 7.5 L 6.94 7.75 L 6.86 8.0 L 6.78 8.25 L 6.69 8.5 L 6.61 8.75 L 6.53 9.0 L 6.44 9.25 L 6.36 9.5 L 6.28 9.75 L 6.19 10.0 L 6.11 10.25 L 6.03 10.5 L 5.94 10.75 L 5.86 11.0" fill="none" stroke="#111" stroke-width="1.20" stroke-linecap="round" stroke-linejoin="round"/>
<path d="M 5.86 11.0 L 5.58 11.19 L 5.33 11.41 L 5.09 11.64 L 4.87 11.9 L 4.67 12.17 L 4.5 12.46 L 4.35 12.76 L 4.22 13.07 L 4.13 13.4 L 4.06 13.73 L 4.01 14.06 L 4.0 14.4 L 4.01 14.73 L 4.06 15.07 L 4.13 15.4 L 4.22 15.72 L 4.35 16.03 L 4.5 16.33 L 4.67 16.62 L 4.87 16.89 L 5.09 17.15 L 5.33 17.38 L 5.58 17.6 L 5.86 17.79 L 5.86 18.0 L 6.01 17.74 L 6.16 17.47 L 6.29 17.2 L 6.4 16.92 L 6.51 16.63 L 6.6 16.34 L 6.68 16.05 L 6.74 15.75 L 6.79 15.45 L 6.82 15.15 L 6.84 14.85 L 6.85 14.54 L 6.84 14.24 L 6.82 13.94 L 6.79 13.64 L 6.74 13.34 L 6.68 13.04 L 6.6 12.75 L 6.51 12.46 L 6.4 12.17 L 6.29 11.89 L 6.16 11.62 L 6.01 11.35 L 5.86 11.09" fill="none" stroke="#111" stroke-width="1.20" stroke-linecap="round" stroke-linejoin="round"/>
<path d="M 11.86 10.0 L 12.11 9.75 L 12.36 9.5 L 12.61 9.25 L 12.86 9.0 L 13.11 8.75 L 13.36 8.5 L 13.61 8.25 L 13.86 8.0 L 14.11 7.75 L 14.36 7.5 L 14.61 7.25 L 14.86 7.0 L 15.11 6.75 L 15.36 6.5 L 15.61 6.25 L 15.86 6.0 L 16.11 5.75 L 16.36 5.5 L 16.61 5.25 L 16.86 5.0 L 17.11 4.75 L 17.36 4.5 L 17.61 4.25 L 17.86 4.0" fill="none" stroke="#111" stroke-width="1.20" stroke-linecap="round" stroke-linejoin="round"/>
<path d="M 7.86 15.0 L 7.98 15.17 L 8.11 15.33 L 8.23 15.5 L 8.36 15.67 L 8.48 15.83 L 8.61 16.0 L 8.73 16.17 L 8.86 16.33 L 8.98 16.5 L 9.11 16.67 L 9.23 16.83 L 9.36 17.0 L 9.48 17.17 L 9.61 17.33 L 9.73 17.5 L 9.86 17.67 L 9.98 17.83 L 10.11 18.0 L 10.23 18.17 L 10.36 18.33 L 10.48 18.5 L 10.61 18.67 L 10.73 18.83 L 10.86 19.0" fill="none" stroke="#111" stroke-width="1.20" stroke-linecap="round" stroke-linejoin="round"/>
<path d="M 10.86 19.0 L 11.19 18.71 L 11.53 18.42 L 11.86 18.12 L 12.19 17.83 L 12.53 17.54 L 12.86 17.25 L 13.19 16.96 L 13.53 16.67 L 13.86 16.38 L 14.19 16.08 L 14.53 15.79 L 14.86 15.5 L 15.19 15.21 L 15.53 14.92 L 15.86 14.62 L 16.19 14.33 L 16.53 14.04 L 16.86 13.75 L 17.19 13.46 L 17.53 13.17 L 17.86 12.88 L 18.19 12.58 L 18.53 12.29 L 18.86 12.0" fill="none" stroke="#111" stroke-width="1.20" stroke-linecap="round" stroke-linejoin="round"/>
<path d="M 10.86 24.0 L 10.65 24.21 L 10.44 24.42 L 10.23 24.62 L 10.03 24.83 L 9.82 25.04 L 9.61 25.25 L 9.4 25.46 L 9.19 25.67 L 8.98 25.88 L 8.78 26.08 L 8.57 26.29 L 8.36 26.5 L 8.15 26.71 L 7.94 26.92 L 7.73 27.12 L 7.53 27.33 L 7.32 27.54 L 7.11 27.75 L 6.9 27.96 L 6.69 28.17 L 6.48 28.38 L 6.28 28.58 L 6.07 28.79 L 5.86 29.0" fill="none" stroke="#111" stroke-width="1.20" stroke-linecap="round" stroke-linejoin="round"/>
<path d="M 10.86 24.0 L 11.07 24.17 L 11.28 24.33 L 11.48 24.5 L 11.69 24.67 L 11.9 24.83 L 12.11 25.0 L 12.32 25.17 L 12.53 25.33 L 12.73 25.5 L 12.94 25.67 L 13.15 25.83 L 13.36 26.0 L 13.57 26.17 L 13.78 26.33 L 13.98 26.5 L 14.19 26.67 L 14.4 26.83 L 14.61 27.0 L 14.82 27.17 L 15.03 27.33 L 15.23 27.5 L 15.44 27.67 L 15.65 27.83 L 15.86 28.0" fill="none" stroke="#111" stroke-width="1.20" stroke-linecap="round" stroke-linejoin="round"/>
</svg>
