<?xml version="1.0" encoding="UTF-8"?>
<svg xmlns="http://www.w3.org/2000/svg" viewBox="0 0 23.00 30.40">
<path d="M 12.0 4.0 L 11.67 4.46 L 11.33 4.92 L 11.0 5.38 L 10.67 5.83 L 10.33 6.29 L 10.0 6.75 L 9.67 7.21 L 9.33 7.67 L 9.0 8.12 L 8.67 8.58 L 8.33 9.04 L 8.0 9.5 L 7.67 9.96 L 7.33 10.42 L 7.0 10.88 L 6.67 11.33 L 6.33 11.79 L 6.0 12.25 L 5.67 12.71 L 5.33 13.17 L 5.0 13.62 L 4.67 14.08 L 4.33 14.54 L 4.0 15.0" fill="none" stroke="#111" stroke-width="1.06" stroke-linecap="round" stroke-linejoin="round"/>
<path d="M 12.0 4.0 L 12.29 4.42 L 12.58 4.83 L 12.88 5.25 L 13.17 5.67 L 13.46 6.08 L 13.75 6.5 L 14.04 6.92 L 14.33 7.33 L 14.62 7.75 L 14.92 8.17 L 15.21 8.58 L 15.5 9.0 L 15.79 9.42 L 16.08 9.83 L 16.38 10.25 L 16.67 10.67 L 16.96 11.08 L 17.25 11.5 L 17.54 11.92 L 17.83 12.33 L 18.12 12.75 L 18.42 13.17 L 18.71 13.58 L 19.0 14.0" fill="none" stroke="#111" stroke-width="1.06" stroke-linecap="round" stroke-linejoin="round"/>
<path d="M 8.0 10.0 L 8.33 9.96 L 8.67 9.92 L 9.0 9.88 L 9.33 9.83 L 9.67 9.79 L 10.0 9.75 L 10.33 9.71 L 10.67 9.67 L 11.0 9.62 L 11.33 9.58 L 11.67 9.54 L 12.0 9.5 L 12.33 9.46 L 12.67 9.42 L 13.0 9.38 L 13.33 9.33 L 13.67 9.29 L 14.0 9.25 L 14.33 9.21 L 14.67 9.17 L 15.0 9.12 L 15.33 9.08 L 15.67 9.04 L 16.0 9.0" fill="none" stroke="#111" stroke-width="1.06" stroke-linecap="round" stroke-linejoin="round"/>
<path d="M 8.0 18.0 L 8.04 18.33 L 8.08 18.67 L 8.12 19.0 L 8.17 19.33 L 8.21 19.67 L 8.25 20.0 L 8.29 20.33 L 8.33 20.67 L 8.38 21.0 L 8.42 21.33 L 8.46 21.67 L 8.5 22.0 L 8.54 22.33 L 8.58 22.67 L 8.62 23.0 L 8.67 23.33 L 8.71 23.67 L 8.75 24.0 L 8.79 24.33 L 8.83 24.67 L 8.88 25.0 L 8.92 25.33 L 8.96 25.67 L 9.0 26.0 L 9.0 26.0 L 9.65 26.21 L 10.31 26.34 L 10.99 26.4 L 11.67 26.39 L 12.34 26.3 L 13.0 26.14 L 13.64 25.9 L 14.25 25.6 L 14.82 25.23 L 15.34 24.8 L 15.82 24.32 L 16.24 23.79 L 16.6 23.21 L 16.89 22.6 L 17.11 21.95 L 17.26 21.29 L 17.34 20.62 L 17.34 19.94 L 17.27 19.26 L 17.12 18.6 L 16.9 17.96 L 16.61 17.34 L 16.26 16.76 L 15.84 16.23" fill="none" stroke="#111" stroke-width="1.06" stroke-linecap="round" stroke-linejoin="round"/>
<path d="M 8.0 21.0 L 8.33 20.92 L 8.67 20.83 L 9.0 20.75 L 9.33 20.67 L 9.67 20.58 L 10.0 20.5 L 10.33 20.42 L 10.67 20.33 L 11.0 20.25 L 11.33 20.17 L 11.67 20.08 L 12.0 20.0 L 12.33 19.92 L 12.67 19.83 L 13.0 19.75 L 13.33 19.67 L 13.67 19.58 L 14.0 19.5 L 14.33 19.42 L 14.67 19.33 L 15.0 19.25 L 15.33 19.17 L 15.67 19.08 L 16.0 19.0" fill="none" stroke="#111" stroke-width="1.06" stroke-linecap="round" stroke-linejoin="round"/>
</svg>
