<?xml version="1.0" encoding="UTF-8"?>
<svg xmlns="http://www.w3.org/2000/svg" viewBox="0 0 29.26 34.20">
<path d="M 9.0 8.2 L 9.04 8.54 L 9.08 8.87 L 9.12 9.2 L 9.17 9.54 L 9.21 9.87 L 9.25 10.2 L 9.29 10.54 L 9.33 10.87 L 9.38 11.2 L 9.42 11.54 L 9.46 11.87 L 9.5 12.2 L 9.54 12.54 L 9.58 12.87 L 9.62 13.2 L 9.67 13.54 L 9.71 13.87 L 9.75 14.2 L 9.79 14.54 L 9.83 14.87 L 9.88 15.2 L 9.92 15.54 L 9.96 15.87 L 10.0 16.2" fill="none" stroke="#111" stroke-width="1.20" stroke-linecap="round" stroke-linejoin="round"/>
<path d="M 16.0 6.2 L 16.0 6.58 L 16.0 6.95 L 16.0 7.33 L 16.0 7.7 L 16.0 8.08 L 16.0 8.45 L 16.0 8.83 L 16.0 9.2 L 16.0 9.58 L 16.0 9.95 L 16.0 10.33 L 16.0 10.7 L 16.0 11.08 L 16.0 11.45 L 16.0 11.83 L 16.0 12.2 L 16.0 12.58 L 16.0 12.95 L 16.0 13.33 L 16.0 13.7 L 16.0 14.08 L 16.0 14.45 L 16.0 14.83 L 16.0 15.2" fill="none" stroke="#111" stroke-width="1.20" stroke-linecap="round" stroke-linejoin="round"/>
<path d="M 7.0 12.2 L 7.12 12.37 L 7.25 12.54 L 7.38 12.7 L 7.5 12.87 L 7.62 13.04 L 7.75 13.2 L 7.88 13.37 L 8.0 13.54 L 8.12 13.7 L 8.25 13.87 L 8.38 14.04 L 8.5 14.2 L 8.62 14.37 L 8.75 14.54 L 8.88 14.7 L 9.0 14.87 L 9.12 15.04 L 9.25 15.2 L 9.38 15.37 L 9.5 15.54 L 9.62 15.7 L 9.75 15.87 L 9.88 16.04 L 10.0 16.2 L 10.0 16.2 L 10.08 15.99 L 10.17 15.79 L 10.25 15.58 L 10.33 15.37 L 10.42 15.16 L 10.5 14.95 L 10.58 14.74 L 10.67 14.54 L 10.75 14.33 L 10.83 14.12 L 10.92 13.91 L 11.0 13.7 L 11.08 13.49 L 11.17 13.29 L 11.25 13.08 L 11.33 12.87 L 11.42 12.66 L 11.5 12.45 L 11.58 12.24 L 11.67 12.04 L 11.75 11.83 L 11.83 11.62 L 11.92 11.41 L 12.0 11.2" fill="none" stroke="#111" stroke-width="1.20" stroke-linecap="round" stroke-linejoin="round"/>
<path d="M 5.0 9.2 L 5.0 9.08 L 5.0 8.95 L 5.0 8.83 L 5.0 8.7 L 5.0 8.58 L 5.0 8.45 L 5.0 8.33 L 5.0 8.2 L 5.0 8.08 L 5.0 7.95 L 5.0 7.83 L 5.0 7.7 L 5.0 7.58 L 5.0 7.45 L 5.0 7.33 L 5.0 7.2 L 5.0 7.08 L 5.0 6.95 L 5.0 6.83 L 5.0 6.7 L 5.0 6.58 L 5.0 6.45 L 5.0 6.33 L 5.0 6.2 L 5.0 6.2 L 5.17 6.29 L 5.33 6.37 L 5.5 6.45 L 5.67 6.54 L 5.83 6.62 L 6.0 6.7 L 6.17 6.79 L 6.33 6.87 L 6.5 6.95 L 6.67 7.04 L 6.83 7.12 L 7.0 7.2 L 7.17 7.29 L 7.33 7.37 L 7.5 7.45 L 7.67 7.54 L 7.83 7.62 L 8.0 7.7 L 8.17 7.79 L 8.33 7.87 L 8.5 7.95 L 8.67 8.04 L 8.83 8.12 L 9.0 8.2 L 9.0 8.2 L 9.08 7.91 L 9.18 7.63 L 9.31 7.36 L 9.46 7.09 L 9.64 6.85 L 9.83 6.62 L 10.04 6.4 L 10.27 6.21 L 10.52 6.03 L 10.77 5.88 L 11.05 5.75 L 11.33 5.64 L 11.62 5.56 L 11.91 5.5 L 12.21 5.47 L 12.51 5.46 L 12.82 5.48 L 13.11 5.52 L 13.41 5.59 L 13.69 5.68 L 13.97 5.8 L 14.24 5.94 L 14.49 6.11 L 14.73 6.29" fill="none" stroke="#111" stroke-width="1.20" stroke-linecap="round" stroke-linejoin="round"/>
<path d="M 13.0 11.2 L 13.12 11.37 L 13.25 11.54 L 13.38 11.7 L 13.5 11.87 L 13.62 12.04 L 13.75 12.2 L 13.88 12.37 L 14.0 12.54 L 14.12 12.7 L 14.25 12.87 L 14.38 13.04 L 14.5 13.2 L 14.62 13.37 L 14.75 13.54 L 14.88 13.7 L 15.0 13.87 L 15.12 14.04 L 15.25 14.2 L 15.38 14.37 L 15.5 14.54 L 15.62 14.7 L 15.75 14.87 L 15.88 15.04 L 16.0 15.2 L 16.0 15.2 L 16.08 15.04 L 16.17 14.87 L 16.25 14.7 L 16.33 14.54 L 16.42 14.37 L 16.5 14.2 L 16.58 14.04 L 16.67 13.87 L 16.75 13.7 L 16.83 13.54 L 16.92 13.37 L 17.0 13.2 L 17.08 13.04 L 17.17 12.87 L 17.25 12.7 L 17.33 12.54 L 17.42 12.37 L 17.5 12.2 L 17.58 12.04 L 17.67 11.87 L 17.75 11.7 L 17.83 11.54 L 17.92 11.37 L 18.0 11.2" fill="none" stroke="#111" stroke-width="1.20" stroke-linecap="round" stroke-linejoin="round"/>
<path d="M 14.0 9.2 L 14.1 8.51 L 14.28 7.83 L 14.55 7.18 L 14.89 6.57 L 15.31 6.01 L 15.8 5.5 L 16.34 5.06 L 16.93 4.68 L 17.57 4.39 L 18.24 4.17 L 18.93 4.04 L 19.63 4.0 L 20.33 4.04 L 21.02 4.17 L 21.69 4.39 L 22.32 4.68 L 22.92 5.06 L 23.46 5.5 L 23.95 6.01 L 24.36 6.57 L 24.71 7.18 L 24.97 7.83 L 25.16 8.51 L 25.26 9.2" fill="none" stroke="#111" stroke-width="1.20" stroke-linecap="round" stroke-linejoin="round"/>
<path d="M 4.0 23.2 L 4.06 22.3 L 4.22 21.41 L 4.49 20.54 L 4.86 19.72 L 5.33 18.94 L 5.89 18.23 L 6.53 17.59 L 7.24 17.03 L 8.01 16.56 L 8.84 16.19 L 9.7 15.91 L 10.59 15.75 L 11.49 15.69 L 12.4 15.74 L 13.29 15.9 L 14.15 16.17 L 14.98 16.53 L 15.76 17.0 L 16.47 17.55 L 17.12 18.19 L 17.68 18.89 L 18.16 19.67 L 18.53 20.49 L 18.81 21.35" fill="none" stroke="#111" stroke-width="1.20" stroke-linecap="round" stroke-linejoin="round"/>
<path d="M 9.0 20.2 L 9.0 20.58 L 9.0 20.95 L 9.0 21.33 L 9.0 21.7 L 9.0 22.08 L 9.0 22.45 L 9.0 22.83 L 9.0 23.2 L 9.0 23.58 L 9.0 23.95 L 9.0 24.33 L 9.0 24.7 L 9.0 25.08 L 9.0 25.45 L 9.0 25.83 L 9.0 26.2 L 9.0 26.58 L 9.0 26.95 L 9.0 27.33 L 9.0 27.7 L 9.0 28.08 L 9.0 28.45 L 9.0 28.83 L 9.0 29.2" fill="none" stroke="#111" stroke-width="1.20" stroke-linecap="round" stroke-linejoin="round"/>
<path d="M 6.0 24.2 L 6.12 24.41 L 6.25 24.62 L 6.38 24.83 L 6.5 25.04 L 6.62 25.24 L 6.75 25.45 L 6.88 25.66 L 7.0 25.87 L 7.12 26.08 L 7.25 26.29 L 7.38 26.49 L 7.5 26.7 L 7.62 26.91 L 7.75 27.12 L 7.88 27.33 L 8.0 27.54 L 8.12 27.74 L 8.25 27.95 L 8.38 28.16 L 8.5 28.37 L 8.62 28.58 L 8.75 28.79 L 8.88 28.99 L 9.0 29.2 L 9.0 29.2 L 9.08 29.04 L 9.17 28.87 L 9.25 28.7 L 9.33 28.54 L 9.42 28.37 L 9.5 28.2 L 9.58 28.04 L 9.67 27.87 L 9.75 27.7 L 9.83 27.54 L 9.92 27.37 L 10.0 27.2 L 10.08 27.04 L 10.17 26.87 L 10.25 26.7 L 10.33 26.54 L 10.42 26.37 L 10.5 26.2 L 10.58 26.04 L 10.67 25.87 L 10.75 25.7 L 10.83 25.54 L 10.92 25.37 L 11.0 25.2" fill="none" stroke="#111" stroke-width="1.20" stroke-linecap="round" stroke-linejoin="round"/>
<path d="M 13.0 24.2 L 13.0 23.46 L 13.08 22.73 L 13.26 22.02 L 13.53 21.33 L 13.88 20.68 L 14.3 20.08 L 14.8 19.54 L 15.36 19.06 L 15.98 18.66 L 16.64 18.33 L 17.34 18.1 L 18.06 17.95 L 18.8 17.89 L 19.54 17.92 L 20.26 18.05 L 20.97 18.26 L 21.64 18.56 L 22.27 18.94 L 22.85 19.4 L 23.37 19.92 L 23.81 20.51 L 24.19 21.15 L 24.47 21.82 L 24.68 22.53" fill="none" stroke="#111" stroke-width="1.20" stroke-linecap="round" stroke-linejoin="round"/>
<path d="M 16.0 22.2 L 16.0 22.54 L 16.0 22.87 L 16.0 23.2 L 16.0 23.54 L 16.0 23.87 L 16.0 24.2 L 16.0 24.54 L 16.0 24.87 L 16.0 25.2 L 16.0 25.54 L 16.0 25.87 L 16.0 26.2 L 16.0 26.54 L 16.0 26.87 L 16.0 27.2 L 16.0 27.54 L 16.0 27.87 L 16.0 28.2 L 16.0 28.54 L 16.0 28.87 L 16.0 29.2 L 16.0 29.54 L 16.0 29.87 L 16.0 30.2" fill="none" stroke="#111" stroke-width="1.20" stroke-linecap="round" stroke-linejoin="round"/>
<path d="M 13.0 25.2 L 13.12 25.41 L 13.25 25.62 L 13.38 25.83 L 13.5 26.04 L 13.62 26.24 L 13.75 26.45 L 13.88 26.66 L 14.0 26.87 L 14.12 27.08 L 14.25 27.29 L 14.38 27.49 L 14.5 27.7 L 14.62 27.91 L 14.75 28.12 L 14.88 28.33 L 15.0 28.54 L 15.12 28.74 L 15.25 28.95 L 15.38 29.16 L 15.5 29.37 L 15.62 29.58 L 15.75 29.79 L 15.88 29.99 L 16.0 30.2 L 16.0 30.2 L 16.12 29.95 L 16.25 29.7 L 16.38 29.45 L 16.5 29.2 L 16.62 28.95 L 16.75 28.7 L 16.88 28.45 L 17.0 28.2 L 17.12 27.95 L 17.25 27.7 L 17.38 27.45 L 17.5 27.2 L 17.62 26.95 L 17.75 26.7 L 17.88 26.45 L 18.0 26.2 L 18.12 25.95 L 18.25 25.7 L 18.38 25.45 L 18.5 25.2 L 18.62 24.95 L 18.75 24.7 L 18.88 24.45 L 19.0 24.2" fill="none" stroke="#111" stroke-width="1.20" stroke-linecap="round" stroke-linejoin="round"/>
</svg>
