<?xml version="1.0" encoding="UTF-8"?>
<svg xmlns="http://www.w3.org/2000/svg" viewBox="0 0 32.00 37.46">
<path d="M 12.0 5.0 L 11.67 5.42 L 11.33 5.83 L 11.0 6.25 L 10.67 6.67 L 10.33 7.08 L 10.0 7.5 L 9.67 7.92 L 9.33 8.33 L 9.0 8.75 L 8.67 9.17 L 8.33 9.58 L 8.0 10.0 L 7.67 10.42 L 7.33 10.83 L 7.0 11.25 L 6.67 11.67 L 6.33 12.08 L 6.0 12.5 L 5.67 12.92 L 5.33 13.33 L 5.0 13.75 L 4.67 14.17 L 4.33 14.58 L 4.0 15.0" fill="none" stroke="#111" stroke-width="1.31" stroke-linecap="round" stroke-linejoin="round"/>
<path d="M 12.0 5.0 L 12.29 5.33 L 12.58 5.67 L 12.88 6.0 L 13.17 6.33 L 13.46 6.67 L 13.75 7.0 L 14.04 7.33 L 14.33 7.67 L 14.63 8.0 L 14.92 8.33 L 15.21 8.67 L 15.5 9.0 L 15.79 9.33 L 16.08 9.67 L 16.38 10.0 L 16.67 10.33 L 16.96 10.67 L 17.25 11.0 L 17.54 11.33 L 17.83 11.67 L 18.12 12.0 L 18.42 12.33 L 18.71 12.67 L 19.0 13.0" fill="none" stroke="#111" stroke-width="1.31" stroke-linecap="round" stroke-linejoin="round"/>
<path d="M 7.0 11.0 L 7.42 11.0 L 7.83 11.0 L 8.25 11.0 L 8.67 11.0 L 9.08 11.0 L 9.5 11.0 L 9.92 11.0 L 10.33 11.0 L 10.75 11.0 L 11.17 11.0 L 11.58 11.0 L 12.0 11.0 L 12.42 11.0 L 12.83 11.0 L 13.25 11.0 L 13.67 11.0 L 14.08 11.0 L 14.5 11.0 L 14.92 11.0 L 15.33 11.0 L 15.75 11.0 L 16.17 11.0 L 16.58 11.0 L 17.0 11.0" fill="none" stroke="#111" stroke-width="1.31" stroke-linecap="round" stroke-linejoin="round"/>
<path d="M 10.0 16.0 L 10.0 16.62 L 10.0 17.25 L 10.0 17.88 L 10.0 18.5 L 10.0 19.12 L 10.0 19.75 L 10.0 20.38 L 10.0 21.0 L 10.0 21.62 L 10.0 22.25 L 10.0 22.88 L 10.0 23.5 L 10.0 24.12 L 10.0 24.75 L 10.0 25.38 L 10.0 26.0 L 10.0 26.62 L 10.0 27.25 L 10.0 27.88 L 10.0 28.5 L 10.0 29.12 L 10.0 29.75 L 10.0 30.38 L 10.0 31.0" fill="none" stroke="#111" stroke-width="1.31" stroke-linecap="round" stroke-linejoin="round"/>
<path d="M 13.0 16.0 L 13.0 16.58 L 13.0 17.17 L 13.0 17.75 L 13.0 18.33 L 13.0 18.92 L 13.0 19.5 L 13.0 20.08 L 13.0 20.67 L 13.0 21.25 L 13.0 21.83 L 13.0 22.42 L 13.0 23.0 L 13.0 23.58 L 13.0 24.17 L 13.0 24.75 L 13.0 25.33 L 13.0 25.92 L 13.0 26.5 L 13.0 27.08 L 13.0 27.67 L 13.0 28.25 L 13.0 28.83 L 13.0 29.42 L 13.0 30.0" fill="none" stroke="#111" stroke-width="1.31" stroke-linecap="round" stroke-linejoin="round"/>
<path d="M 7.0 16.0 L 7.0 16.62 L 7.0 17.25 L 7.0 17.88 L 7.0 18.5 L 7.0 19.12 L 7.0 19.75 L 7.0 20.38 L 7.0 21.0 L 7.0 21.62 L 7.0 22.25 L 7.0 22.88 L 7.0 23.5 L 7.0 24.12 L 7.0 24.75 L 7.0 25.38 L 7.0 26.0 L 7.0 26.62 L 7.0 27.25 L 7.0 27.88 L 7.0 28.5 L 7.0 29.12 L 7.0 29.75 L 7.0 30.38 L 7.0 31.0" fill="none" stroke="#111" stroke-width="1.31" stroke-linecap="round" stroke-linejoin="round"/>
<path d="M 15.0 16.0 L 15.0 16.62 L 15.0 17.25 L 15.0 17.88 L 15.0 18.5 L 15.0 19.12 L 15.0 19.75 L 15.0 20.38 L 15.0 21.0 L 15.0 21.62 L 15.0 22.25 L 15.0 22.88 L 15.0 23.5 L 15.0 24.12 L 15.0 24.75 L 15.0 25.38 L 15.0 26.0 L 15.0 26.62 L 15.0 27.25 L 15.0 27.88 L 15.0 28.5 L 15.0 29.12 L 15.0 29.75 L 15.0 30.38 L 15.0 31.0" fill="none" stroke="#111" stroke-width="1.31" stroke-linecap="round" stroke-linejoin="round"/>
<path d="M 7.0 23.0 L 7.33 23.0 L 7.67 23.0 L 8.0 23.0 L 8.33 23.0 L 8.67 23.0 L 9.0 23.0 L 9.33 23.0 L 9.67 23.0 L 10.0 23.0 L 10.33 23.0 L 10.67 23.0 L 11.0 23.0 L 11.33 23.0 L 11.67 23.0 L 12.0 23.0 L 12.33 23.0 L 12.67 23.0 L 13.0 23.0 L 13.33 23.0 L 13.67 23.0 L 14.0 23.0 L 14.33 23.0 L 14.67 23.0 L 15.0 23.0" fill="none" stroke="#111" stroke-width="1.31" stroke-linecap="round" stroke-linejoin="round"/>
<path d="M 7.0 26.0 L 7.33 26.0 L 7.67 26.0 L 8.0 26.0 L 8.33 26.0 L 8.67 26.0 L 9.0 26.0 L 9.33 26.0 L 9.67 26.0 L 10.0 26.0 L 10.33 26.0 L 10.67 26.0 L 11.0 26.0 L 11.33 26.0 L 11.67 26.0 L 12.0 26.0 L 12.33 26.0 L 12.67 26.0 L 13.0 26.0 L 13.33 26.0 L 13.67 26.0 L 14.0 26.0 L 14.33 26.0 L 14.67 26.0 L 15.0 26.0" fill="none" stroke="#111" stroke-width="1.31" stroke-linecap="round" stroke-linejoin="round"/>
<path d="M 19.0 10.0 L 19.0 9.75 L 19.0 9.5 L 19.0 9.25 L 19.0 9.0 L 19.0 8.75 L 19.0 8.5 L 19.0 8.25 L 19.0 8.0 L 19.0 7.75 L 19.0 7.5 L 19.0 7.25 L 19.0 7.0 L 19.0 6.75 L 19.0 6.5 L 19.0 6.25 L 19.0 6.0 L 19.0 5.75 L 19.0 5.5 L 19.0 5.25 L 19.0 5.0 L 19.0 4.75 L 19.0 4.5 L 19.0 4.25 L 19.0 4.0" fill="none" stroke="#111" stroke-width="1.31" stroke-linecap="round" stroke-linejoin="round"/>
<path d="M 19.0 6.0 L 19.91 6.87 L 20.76 7.8 L 21.56 8.78 L 22.29 9.8 L 22.96 10.87 L 23.57 11.97 L 24.1 13.11 L 24.57 14.28 L 24.96 15.48 L 25.28 16.7 L 25.53 17.93 L 25.69 19.18 L 25.78 20.44 L 25.8 21.7 L 25.74 22.96 L 25.6 24.21 L 25.38 25.45 L 25.09 26.68 L 24.73 27.88 L 24.29 29.06 L 23.78 30.22 L 23.2 31.33 L 22.55 32.42 L 21.84 33.46" fill="none" stroke="#111" stroke-width="1.31" stroke-linecap="round" stroke-linejoin="round"/>
<path d="M 28.0 10.0 L 27.75 10.25 L 27.5 10.5 L 27.25 10.75 L 27.0 11.0 L 26.75 11.25 L 26.5 11.5 L 26.25 11.75 L 26.0 12.0 L 25.75 12.25 L 25.5 12.5 L 25.25 12.75 L 25.0 13.0 L 24.75 13.25 L 24.5 13.5 L 24.25 13.75 L 24.0 14.0 L 23.75 14.25 L 23.5 14.5 L 23.25 14.75 L 23.0 15.0 L 22.75 15.25 L 22.5 15.5 L 22.25 15.75 L 22.0 16.0" fill="none" stroke="#111" stroke-width="1.31" stroke-linecap="round" stroke-linejoin="round"/>
<path d="M 20.0 20.0 L 20.25 20.42 L 20.5 20.83 L 20.75 21.25 L 21.0 21.67 L 21.25 22.08 L 21.5 22.5 L 21.75 22.92 L 22.0 23.33 L 22.25 23.75 L 22.5 24.17 L 22.75 24.58 L 23.0 25.0 L 23.25 25.42 L 23.5 25.83 L 23.75 26.25 L 24.0 26.67 L 24.25 27.08 L 24.5 27.5 L 24.75 27.92 L 25.0 28.33 L 25.25 28.75 L 25.5 29.17 L 25.75 29.58 L 26.0 30.0" fill="none" stroke="#111" stroke-width="1.31" stroke-linecap="round" stroke-linejoin="round"/>
<path d="M 22.0 23.0 L 21.83 23.29 L 21.67 23.58 L 21.5 23.88 L 21.33 24.17 L 21.17 24.46 L 21.0 24.75 L 20.83 25.04 L 20.67 25.33 L 20.5 25.62 L 20.33 25.92 L 20.17 26.21 L 20.0 26.5 L 19.83 26.79 L 19.67 27.08 L 19.5 27.38 L 19.33 27.67 L 19.17 27.96 L 19.0 28.25 L 18.83 28.54 L 18.67 28.83 L 18.5 29.12 L 18.33 29.42 L 18.17 29.71 L 18.0 30.0" fill="none" stroke="#111" stroke-width="1.31" stroke-linecap="round" stroke-linejoin="round"/>
</svg>
