<?xml version="1.0" encoding="UTF-8"?>
<svg xmlns="http://www.w3.org/2000/svg" viewBox="0 0 24.00 36.00">
<path d="M 9.0 4.0 L 9.25 4.0 L 9.5 4.0 L 9.75 4.0 L 10.0 4.0 L 10.25 4.0 L 10.5 4.0 L 10.75 4.0 L 11.0 4.0 L 11.25 4.0 L 11.5 4.0 L 11.75 4.0 L 12.0 4.0 L 12.25 4.0 L 12.5 4.0 L 12.75 4.0 L 13.0 4.0 L 13.25 4.0 L 13.5 4.0 L 13.75 4.0 L 14.0 4.0 L 14.25 4.0 L 14.5 4.0 L 14.75 4.0 L 15.0 4.0" fill="none" stroke="#111" stroke-width="1.26" stroke-linecap="round" stroke-linejoin="round"/>
<path d="M 6.0 7.0 L 6.42 7.0 L 6.83 7.0 L 7.25 7.0 L 7.67 7.0 L 8.08 7.0 L 8.5 7.0 L 8.92 7.0 L 9.33 7.0 L 9.75 7.0 L 10.17 7.0 L 10.58 7.0 L 11.0 7.0 L 11.42 7.0 L 11.83 7.0 L 12.25 7.0 L 12.67 7.0 L 13.08 7.0 L 13.5 7.0 L 13.92 7.0 L 14.33 7.0 L 14.75 7.0 L 15.17 7.0 L 15.58 7.0 L 16.0 7.0" fill="none" stroke="#111" stroke-width="1.26" stroke-linecap="round" stroke-linejoin="round"/>
<path d="M 7.0 7.0 L 7.0 7.29 L 7.0 7.58 L 7.0 7.88 L 7.0 8.17 L 7.0 8.46 L 7.0 8.75 L 7.0 9.04 L 7.0 9.33 L 7.0 9.62 L 7.0 9.92 L 7.0 10.21 L 7.0 10.5 L 7.0 10.79 L 7.0 11.08 L 7.0 11.38 L 7.0 11.67 L 7.0 11.96 L 7.0 12.25 L 7.0 12.54 L 7.0 12.83 L 7.0 13.12 L 7.0 13.42 L 7.0 13.71 L 7.0 14.0" fill="none" stroke="#111" stroke-width="1.26" stroke-linecap="round" stroke-linejoin="round"/>
<path d="M 16.0 7.0 L 16.08 7.21 L 16.17 7.42 L 16.25 7.62 L 16.33 7.83 L 16.42 8.04 L 16.5 8.25 L 16.58 8.46 L 16.67 8.67 L 16.75 8.88 L 16.83 9.08 L 16.92 9.29 L 17.0 9.5 L 17.08 9.71 L 17.17 9.92 L 17.25 10.12 L 17.33 10.33 L 17.42 10.54 L 17.5 10.75 L 17.58 10.96 L 17.67 11.17 L 17.75 11.38 L 17.83 11.58 L 17.92 11.79 L 18.0 12.0" fill="none" stroke="#111" stroke-width="1.26" stroke-linecap="round" stroke-linejoin="round"/>
<path d="M 12.0 7.0 L 12.0 7.25 L 12.0 7.5 L 12.0 7.75 L 12.0 8.0 L 12.0 8.25 L 12.0 8.5 L 12.0 8.75 L 12.0 9.0 L 12.0 9.25 L 12.0 9.5 L 12.0 9.75 L 12.0 10.0 L 12.0 10.25 L 12.0 10.5 L 12.0 10.75 L 12.0 11.0 L 12.0 11.25 L 12.0 11.5 L 12.0 11.75 L 12.0 12.0 L 12.0 12.25 L 12.0 12.5 L 12.0 12.75 L 12.0 13.0" fill="none" stroke="#111" stroke-width="1.26" stroke-linecap="round" stroke-linejoin="round"/>
<path d="M 11.0 14.0 L 11.33 14.43 L 11.63 14.88 L 11.9 15.35 L 12.14 15.84 L 12.34 16.34 L 12.52 16.85 L 12.66 17.37 L 12.77 17.9 L 12.85 18.44 L 12.89 18.98 L 12.89 19.52 L 12.87 20.06 L 12.8 20.6 L 12.71 21.13 L 12.58 21.66 L 12.41 22.18 L 12.22 22.68 L 11.99 23.17 L 11.73 23.65 L 11.45 24.11 L 11.13 24.55 L 10.79 24.97 L 10.42 25.36 L 10.02 25.73 L 10.0 26.0 L 10.12 26.25 L 10.25 26.5 L 10.38 26.75 L 10.5 27.0 L 10.62 27.25 L 10.75 27.5 L 10.88 27.75 L 11.0 28.0 L 11.12 28.25 L 11.25 28.5 L 11.38 28.75 L 11.5 29.0 L 11.62 29.25 L 11.75 29.5 L 11.88 29.75 L 12.0 30.0 L 12.12 30.25 L 12.25 30.5 L 12.38 30.75 L 12.5 31.0 L 12.62 31.25 L 12.75 31.5 L 12.88 31.75 L 13.0 32.0" fill="none" stroke="#111" stroke-width="1.26" stroke-linecap="round" stroke-linejoin="round"/>
<path d="M 11.0 15.0 L 10.84 15.38 L 10.71 15.78 L 10.61 16.18 L 10.54 16.6 L 10.5 17.01 L 10.49 17.43 L 10.51 17.84 L 10.57 18.26 L 10.65 18.66 L 10.76 19.06 L 10.91 19.46 L 11.08 19.83 L 11.28 20.2 L 11.51 20.55 L 11.76 20.88 L 12.03 21.19 L 12.33 21.48 L 12.65 21.75 L 12.99 21.99 L 13.35 22.21 L 13.72 22.4 L 14.1 22.56 L 14.5 22.7 L 14.9 22.8" fill="none" stroke="#111" stroke-width="1.26" stroke-linecap="round" stroke-linejoin="round"/>
<path d="M 11.0 22.0 L 11.12 22.08 L 11.25 22.17 L 11.38 22.25 L 11.5 22.33 L 11.62 22.42 L 11.75 22.5 L 11.88 22.58 L 12.0 22.67 L 12.12 22.75 L 12.25 22.83 L 12.38 22.92 L 12.5 23.0 L 12.62 23.08 L 12.75 23.17 L 12.88 23.25 L 13.0 23.33 L 13.12 23.42 L 13.25 23.5 L 13.38 23.58 L 13.5 23.67 L 13.62 23.75 L 13.75 23.83 L 13.88 23.92 L 14.0 24.0" fill="none" stroke="#111" stroke-width="1.26" stroke-linecap="round" stroke-linejoin="round"/>
<path d="M 10.0 25.0 L 10.12 25.08 L 10.25 25.17 L 10.38 25.25 L 10.5 25.33 L 10.62 25.42 L 10.75 25.5 L 10.88 25.58 L 11.0 25.67 L 11.12 25.75 L 11.25 25.83 L 11.38 25.92 L 11.5 26.0 L 11.62 26.08 L 11.75 26.17 L 11.88 26.25 L 12.0 26.33 L 12.12 26.42 L 12.25 26.5 L 12.38 26.58 L 12.5 26.67 L 12.62 26.75 L 12.75 26.83 L 12.88 26.92 L 13.0 27.0" fill="none" stroke="#111" stroke-width="1.26" stroke-linecap="round" stroke-linejoin="round"/>
<path d="M 4.0 14.0 L 4.43 14.3 L 4.83 14.64 L 5.2 15.01 L 5.54 15.42 L 5.85 15.84 L 6.12 16.29 L 6.35 16.77 L 6.54 17.26 L 6.69 17.76 L 6.8 18.27 L 6.86 18.79 L 6.89 19.32 L 6.86 19.84 L 6.8 20.37 L 6.69 20.88 L 6.54 21.38 L 6.35 21.87 L 6.12 22.35 L 5.85 22.8 L 5.54 23.22 L 5.2 23.62 L 4.83 24.0 L 4.43 24.33 L 4.0 24.64 L 4.0 25.0 L 4.04 25.25 L 4.08 25.5 L 4.12 25.75 L 4.17 26.0 L 4.21 26.25 L 4.25 26.5 L 4.29 26.75 L 4.33 27.0 L 4.38 27.25 L 4.42 27.5 L 4.46 27.75 L 4.5 28.0 L 4.54 28.25 L 4.58 28.5 L 4.62 28.75 L 4.67 29.0 L 4.71 29.25 L 4.75 29.5 L 4.79 29.75 L 4.83 30.0 L 4.88 30.25 L 4.92 30.5 L 4.96 30.75 L 5.0 31.0" fill="none" stroke="#111" stroke-width="1.26" stroke-linecap="round" stroke-linejoin="round"/>
<path d="M 5.0 15.0 L 4.88 15.35 L 4.78 15.72 L 4.71 16.08 L 4.67 16.46 L 4.65 16.83 L 4.67 17.21 L 4.71 17.58 L 4.77 17.95 L 4.87 18.31 L 4.99 18.66 L 5.14 19.01 L 5.32 19.34 L 5.51 19.66 L 5.73 19.96 L 5.98 20.25 L 6.24 20.51 L 6.52 20.76 L 6.82 20.98 L 7.14 21.19 L 7.47 21.36 L 7.81 21.52 L 8.17 21.64 L 8.53 21.74 L 8.89 21.82" fill="none" stroke="#111" stroke-width="1.26" stroke-linecap="round" stroke-linejoin="round"/>
<path d="M 6.0 21.0 L 6.08 21.08 L 6.17 21.17 L 6.25 21.25 L 6.33 21.33 L 6.42 21.42 L 6.5 21.5 L 6.58 21.58 L 6.67 21.67 L 6.75 21.75 L 6.83 21.83 L 6.92 21.92 L 7.0 22.0 L 7.08 22.08 L 7.17 22.17 L 7.25 22.25 L 7.33 22.33 L 7.42 22.42 L 7.5 22.5 L 7.58 22.58 L 7.67 22.67 L 7.75 22.75 L 7.83 22.83 L 7.92 22.92 L 8.0 23.0" fill="none" stroke="#111" stroke-width="1.26" stroke-linecap="round" stroke-linejoin="round"/>
<path d="M 5.0 23.0 L 5.08 23.12 L 5.17 23.25 L 5.25 23.38 L 5.33 23.5 L 5.42 23.62 L 5.5 23.75 L 5.58 23.88 L 5.67 24.0 L 5.75 24.12 L 5.83 24.25 L 5.92 24.38 L 6.0 24.5 L 6.08 24.62 L 6.17 24.75 L 6.25 24.88 L 6.33 25.0 L 6.42 25.12 L 6.5 25.25 L 6.58 25.38 L 6.67 25.5 L 6.75 25.62 L 6.83 25.75 L 6.92 25.88 L 7.0 26.0" fill="none" stroke="#111" stroke-width="1.26" stroke-linecap="round" stroke-linejoin="round"/>
<path d="M 4.0 25.0 L 4.12 25.17 L 4.25 25.33 L 4.38 25.5 L 4.5 25.67 L 4.62 25.83 L 4.75 26.0 L 4.88 26.17 L 5.0 26.33 L 5.12 26.5 L 5.25 26.67 L 5.38 26.83 L 5.5 27.0 L 5.62 27.17 L 5.75 27.33 L 5.88 27.5 L 6.0 27.67 L 6.12 27.83 L 6.25 28.0 L 6.38 28.17 L 6.5 28.33 L 6.62 28.5 L 6.75 28.67 L 6.88 28.83 L 7.0 29.0" fill="none" stroke="#111" stroke-width="1.26" stroke-linecap="round" stroke-linejoin="round"/>
<path d="M 17.0 13.0 L 17.3 13.45 L 17.57 13.93 L 17.82 14.41 L 18.03 14.91 L 18.22 15.42 L 18.38 15.95 L 18.5 16.47 L 18.6 17.01 L 18.66 17.55 L 18.7 18.09 L 18.7 18.64 L 18.67 19.18 L 18.61 19.72 L 18.52 20.26 L 18.39 20.79 L 18.24 21.31 L 18.06 21.83 L 17.84 22.33 L 17.6 22.81 L 17.33 23.29 L 17.04 23.75 L 16.72 24.18 L 16.37 24.6 L 16.0 25.0 L 16.0 25.0 L 16.04 25.21 L 16.08 25.42 L 16.12 25.62 L 16.17 25.83 L 16.21 26.04 L 16.25 26.25 L 16.29 26.46 L 16.33 26.67 L 16.38 26.88 L 16.42 27.08 L 16.46 27.29 L 16.5 27.5 L 16.54 27.71 L 16.58 27.92 L 16.62 28.12 L 16.67 28.33 L 16.71 28.54 L 16.75 28.75 L 16.79 28.96 L 16.83 29.17 L 16.88 29.38 L 16.92 29.58 L 16.96 29.79 L 17.0 30.0" fill="none" stroke="#111" stroke-width="1.26" stroke-linecap="round" stroke-linejoin="round"/>
<path d="M 17.0 15.0 L 16.93 15.33 L 16.89 15.66 L 16.85 15.99 L 16.84 16.32 L 16.84 16.65 L 16.87 16.99 L 16.9 17.32 L 16.96 17.65 L 17.03 17.97 L 17.12 18.29 L 17.23 18.61 L 17.35 18.92 L 17.49 19.22 L 17.65 19.52 L 17.82 19.8 L 18.0 20.08 L 18.2 20.35 L 18.41 20.6 L 18.64 20.85 L 18.88 21.08 L 19.13 21.3 L 19.39 21.51 L 19.66 21.7 L 19.95 21.88" fill="none" stroke="#111" stroke-width="1.26" stroke-linecap="round" stroke-linejoin="round"/>
<path d="M 18.0 22.0 L 18.08 22.12 L 18.17 22.25 L 18.25 22.38 L 18.33 22.5 L 18.42 22.62 L 18.5 22.75 L 18.58 22.88 L 18.67 23.0 L 18.75 23.12 L 18.83 23.25 L 18.92 23.38 L 19.0 23.5 L 19.08 23.62 L 19.17 23.75 L 19.25 23.88 L 19.33 24.0 L 19.42 24.12 L 19.5 24.25 L 19.58 24.38 L 19.67 24.5 L 19.75 24.62 L 19.83 24.75 L 19.92 24.88 L 20.0 25.0" fill="none" stroke="#111" stroke-width="1.26" stroke-linecap="round" stroke-linejoin="round"/>
<path d="M 17.0 24.0 L 17.08 24.08 L 17.17 24.17 L 17.25 24.25 L 17.33 24.33 L 17.42 24.42 L 17.5 24.5 L 17.58 24.58 L 17.67 24.67 L 17.75 24.75 L 17.83 24.83 L 17.92 24.92 L 18.0 25.0 L 18.08 25.08 L 18.17 25.17 L 18.25 25.25 L 18.33 25.33 L 18.42 25.42 L 18.5 25.5 L 18.58 25.58 L 18.67 25.67 L 18.75 25.75 L 18.83 25.83 L 18.92 25.92 L 19.0 26.0" fill="none" stroke="#111" stroke-width="1.26" stroke-linecap="round" stroke-linejoin="round"/>
<path d="M 16.0 27.0 L 16.17 27.08 L 16.33 27.17 L 16.5 27.25 L 16.67 27.33 L 16.83 27.42 L 17.0 27.5 L 17.17 27.58 L 17.33 27.67 L 17.5 27.75 L 17.67 27.83 L 17.83 27.92 L 18.0 28.0 L 18.17 28.08 L 18.33 28.17 L 18.5 28.25 L 18.67 28.33 L 18.83 28.42 L 19.0 28.5 L 19.17 28.58 L 19.33 28.67 L 19.5 28.75 L 19.67 28.83 L 19.83 28.92 L 20.0 29.0" fill="none" stroke="#111" stroke-width="1.26" stroke-linecap="round" stroke-linejoin="round"/>
</svg>
