<?xml version="1.0" encoding="UTF-8"?>
<svg xmlns="http://www.w3.org/2000/svg" viewBox="0 0 24.00 37.44">
<path d="M 4.0 7.0 L 4.25 6.96 L 4.5 6.92 L 4.75 6.88 L 5.0 6.83 L 5.25 6.79 L 5.5 6.75 L 5.75 6.71 L 6.0 6.67 L 6.25 6.62 L 6.5 6.58 L 6.75 6.54 L 7.0 6.5 L 7.25 6.46 L 7.5 6.42 L 7.75 6.38 L 8.0 6.33 L 8.25 6.29 L 8.5 6.25 L 8.75 6.21 L 9.0 6.17 L 9.25 6.12 L 9.5 6.08 L 9.75 6.04 L 10.0 6.0 L 10.0 6.0 L 10.0 6.17 L 10.0 6.33 L 10.0 6.5 L 10.0 6.67 L 10.0 6.83 L 10.0 7.0 L 10.0 7.17 L 10.0 7.33 L 10.0 7.5 L 10.0 7.67 L 10.0 7.83 L 10.0 8.0 L 10.0 8.17 L 10.0 8.33 L 10.0 8.5 L 10.0 8.67 L 10.0 8.83 L 10.0 9.0 L 10.0 9.17 L 10.0 9.33 L 10.0 9.5 L 10.0 9.67 L 10.0 9.83 L 10.0 10.0 L 10.0 10.0 L 9.79 10.0 L 9.58 10.0 L 9.38 10.0 L 9.17 10.0 L 8.96 10.0 L 8.75 10.0 L 8.54 10.0 L 8.33 10.0 L 8.12 10.0 L 7.92 10.0 L 7.71 10.0 L 7.5 10.0 L 7.29 10.0 L 7.08 10.0 L 6.88 10.0 L 6.67 10.0 L 6.46 10.0 L 6.25 10.0 L 6.04 10.0 L 5.83 10.0 L 5.62 10.0 L 5.42 10.0 L 5.21 10.0 L 5.0 10.0" fill="none" stroke="#111" stroke-width="1.31" stroke-linecap="round" stroke-linejoin="round"/>
<path d="M 6.0 7.0 L 6.21 7.21 L 6.42 7.42 L 6.62 7.62 L 6.83 7.83 L 7.04 8.04 L 7.25 8.25 L 7.46 8.46 L 7.67 8.67 L 7.88 8.88 L 8.08 9.08 L 8.29 9.29 L 8.5 9.5 L 8.71 9.71 L 8.92 9.92 L 9.12 10.12 L 9.33 10.33 L 9.54 10.54 L 9.75 10.75 L 9.96 10.96 L 10.17 11.17 L 10.38 11.38 L 10.58 11.58 L 10.79 11.79 L 11.0 12.0" fill="none" stroke="#111" stroke-width="1.31" stroke-linecap="round" stroke-linejoin="round"/>
<path d="M 5.0 10.0 L 4.95 10.31 L 4.91 10.62 L 4.89 10.93 L 4.87 11.24 L 4.87 11.55 L 4.88 11.86 L 4.9 12.17 L 4.93 12.48 L 4.98 12.79 L 5.03 13.09 L 5.1 13.4 L 5.18 13.7 L 5.27 14.0 L 5.37 14.29 L 5.49 14.58 L 5.61 14.87 L 5.75 15.15 L 5.89 15.42 L 6.05 15.69 L 6.22 15.95 L 6.39 16.21 L 6.58 16.46 L 6.78 16.7 L 6.98 16.93" fill="none" stroke="#111" stroke-width="1.31" stroke-linecap="round" stroke-linejoin="round"/>
<path d="M 5.0 11.0 L 5.12 11.08 L 5.25 11.17 L 5.38 11.25 L 5.5 11.33 L 5.62 11.42 L 5.75 11.5 L 5.88 11.58 L 6.0 11.67 L 6.12 11.75 L 6.25 11.83 L 6.38 11.92 L 6.5 12.0 L 6.62 12.08 L 6.75 12.17 L 6.88 12.25 L 7.0 12.33 L 7.12 12.42 L 7.25 12.5 L 7.38 12.58 L 7.5 12.67 L 7.62 12.75 L 7.75 12.83 L 7.88 12.92 L 8.0 13.0" fill="none" stroke="#111" stroke-width="1.31" stroke-linecap="round" stroke-linejoin="round"/>
<path d="M 5.0 14.0 L 5.12 14.04 L 5.25 14.08 L 5.38 14.12 L 5.5 14.17 L 5.62 14.21 L 5.75 14.25 L 5.88 14.29 L 6.0 14.33 L 6.12 14.38 L 6.25 14.42 L 6.38 14.46 L 6.5 14.5 L 6.62 14.54 L 6.75 14.58 L 6.88 14.62 L 7.0 14.67 L 7.12 14.71 L 7.25 14.75 L 7.38 14.79 L 7.5 14.83 L 7.62 14.88 L 7.75 14.92 L 7.88 14.96 L 8.0 15.0" fill="none" stroke="#111" stroke-width="1.31" stroke-linecap="round" stroke-linejoin="round"/>
<path d="M 13.0 7.0 L 13.25 6.88 L 13.5 6.75 L 13.75 6.62 L 14.0 6.5 L 14.25 6.38 L 14.5 6.25 L 14.75 6.12 L 15.0 6.0 L 15.25 5.88 L 15.5 5.75 L 15.75 5.62 L 16.0 5.5 L 16.25 5.38 L 16.5 5.25 L 16.75 5.12 L 17.0 5.0 L 17.25 4.88 L 17.5 4.75 L 17.75 4.62 L 18.0 4.5 L 18.25 4.38 L 18.5 4.25 L 18.75 4.12 L 19.0 4.0 L 19.0 4.0 L 19.0 4.17 L 19.0 4.33 L 19.0 4.5 L 19.0 4.67 L 19.0 4.83 L 19.0 5.0 L 19.0 5.17 L 19.0 5.33 L 19.0 5.5 L 19.0 5.67 L 19.0 5.83 L 19.0 6.0 L 19.0 6.17 L 19.0 6.33 L 19.0 6.5 L 19.0 6.67 L 19.0 6.83 L 19.0 7.0 L 19.0 7.17 L 19.0 7.33 L 19.0 7.5 L 19.0 7.67 L 19.0 7.83 L 19.0 8.0" fill="none" stroke="#111" stroke-width="1.31" stroke-linecap="round" stroke-linejoin="round"/>
<path d="M 15.0 5.0 L 15.21 5.21 L 15.42 5.42 L 15.62 5.62 L 15.83 5.83 L 16.04 6.04 L 16.25 6.25 L 16.46 6.46 L 16.67 6.67 L 16.88 6.88 L 17.08 7.08 L 17.29 7.29 L 17.5 7.5 L 17.71 7.71 L 17.92 7.92 L 18.12 8.12 L 18.33 8.33 L 18.54 8.54 L 18.75 8.75 L 18.96 8.96 L 19.17 9.17 L 19.38 9.38 L 19.58 9.58 L 19.79 9.79 L 20.0 10.0" fill="none" stroke="#111" stroke-width="1.31" stroke-linecap="round" stroke-linejoin="round"/>
<path d="M 18.0 8.0 L 17.79 8.08 L 17.58 8.17 L 17.38 8.25 L 17.17 8.33 L 16.96 8.42 L 16.75 8.5 L 16.54 8.58 L 16.33 8.67 L 16.12 8.75 L 15.92 8.83 L 15.71 8.92 L 15.5 9.0 L 15.29 9.08 L 15.08 9.17 L 14.88 9.25 L 14.67 9.33 L 14.46 9.42 L 14.25 9.5 L 14.04 9.58 L 13.83 9.67 L 13.62 9.75 L 13.42 9.83 L 13.21 9.92 L 13.0 10.0 L 13.0 10.0 L 12.98 10.22 L 12.97 10.45 L 12.98 10.67 L 13.01 10.9 L 13.04 11.12 L 13.1 11.34 L 13.16 11.55 L 13.24 11.76 L 13.33 11.97 L 13.44 12.17 L 13.55 12.36 L 13.68 12.54 L 13.82 12.72 L 13.97 12.89 L 14.14 13.04 L 14.31 13.19 L 14.49 13.32 L 14.68 13.45 L 14.87 13.56 L 15.07 13.65 L 15.28 13.74 L 15.5 13.81 L 15.71 13.87 L 15.93 13.91 L 16.0 14.0 L 16.0 14.21 L 16.0 14.42 L 16.0 14.62 L 16.0 14.83 L 16.0 15.04 L 16.0 15.25 L 16.0 15.46 L 16.0 15.67 L 16.0 15.88 L 16.0 16.08 L 16.0 16.29 L 16.0 16.5 L 16.0 16.71 L 16.0 16.92 L 16.0 17.12 L 16.0 17.33 L 16.0 17.54 L 16.0 17.75 L 16.0 17.96 L 16.0 18.17 L 16.0 18.38 L 16.0 18.58 L 16.0 18.79 L 16.0 19.0" fill="none" stroke="#111" stroke-width="1.31" stroke-linecap="round" stroke-linejoin="round"/>
<path d="M 15.0 9.0 L 15.12 9.12 L 15.25 9.25 L 15.38 9.38 L 15.5 9.5 L 15.62 9.62 L 15.75 9.75 L 15.88 9.88 L 16.0 10.0 L 16.12 10.12 L 16.25 10.25 L 16.38 10.38 L 16.5 10.5 L 16.62 10.62 L 16.75 10.75 L 16.88 10.88 L 17.0 11.0 L 17.12 11.12 L 17.25 11.25 L 17.38 11.38 L 17.5 11.5 L 17.62 11.62 L 17.75 11.75 L 17.88 11.88 L 18.0 12.0" fill="none" stroke="#111" stroke-width="1.31" stroke-linecap="round" stroke-linejoin="round"/>
<path d="M 20.0 10.0 L 20.0 10.17 L 20.0 10.33 L 20.0 10.5 L 20.0 10.67 L 20.0 10.83 L 20.0 11.0 L 20.0 11.17 L 20.0 11.33 L 20.0 11.5 L 20.0 11.67 L 20.0 11.83 L 20.0 12.0 L 20.0 12.17 L 20.0 12.33 L 20.0 12.5 L 20.0 12.67 L 20.0 12.83 L 20.0 13.0 L 20.0 13.17 L 20.0 13.33 L 20.0 13.5 L 20.0 13.67 L 20.0 13.83 L 20.0 14.0" fill="none" stroke="#111" stroke-width="1.31" stroke-linecap="round" stroke-linejoin="round"/>
<path d="M 18.0 12.0 L 17.96 12.21 L 17.92 12.42 L 17.88 12.62 L 17.83 12.83 L 17.79 13.04 L 17.75 13.25 L 17.71 13.46 L 17.67 13.67 L 17.62 13.88 L 17.58 14.08 L 17.54 14.29 L 17.5 14.5 L 17.46 14.71 L 17.42 14.92 L 17.38 15.12 L 17.33 15.33 L 17.29 15.54 L 17.25 15.75 L 17.21 15.96 L 17.17 16.17 L 17.12 16.38 L 17.08 16.58 L 17.04 16.79 L 17.0 17.0" fill="none" stroke="#111" stroke-width="1.31" stroke-linecap="round" stroke-linejoin="round"/>
<path d="M 11.0 20.0 L 11.49 20.42 L 11.95 20.87 L 12.38 21.35 L 12.76 21.87 L 13.11 22.41 L 13.41 22.98 L 13.67 23.57 L 13.89 24.18 L 14.06 24.8 L 14.18 25.44 L 14.25 26.08 L 14.28 26.72 L 14.25 27.37 L 14.18 28.01 L 14.06 28.64 L 13.89 29.26 L 13.67 29.87 L 13.41 30.46 L 13.11 31.03 L 12.76 31.57 L 12.38 32.09 L 11.95 32.58 L 11.49 33.03 L 11.0 33.44 L 11.0 26.0 L 11.37 25.92 L 11.75 25.88 L 12.12 25.88 L 12.5 25.92 L 12.87 26.0 L 13.23 26.11 L 13.58 26.27 L 13.91 26.45 L 14.21 26.67 L 14.5 26.92 L 14.75 27.2 L 14.98 27.51 L 15.17 27.83 L 15.33 28.17 L 15.45 28.53 L 15.54 28.9 L 15.58 29.28 L 15.59 29.65 L 15.56 30.03 L 15.49 30.4 L 15.38 30.76 L 15.23 31.11 L 15.05 31.45 L 14.84 31.76" fill="none" stroke="#111" stroke-width="1.31" stroke-linecap="round" stroke-linejoin="round"/>
<path d="M 12.0 26.0 L 12.0 26.12 L 12.0 26.25 L 12.0 26.38 L 12.0 26.5 L 12.0 26.62 L 12.0 26.75 L 12.0 26.88 L 12.0 27.0 L 12.0 27.12 L 12.0 27.25 L 12.0 27.38 L 12.0 27.5 L 12.0 27.62 L 12.0 27.75 L 12.0 27.88 L 12.0 28.0 L 12.0 28.12 L 12.0 28.25 L 12.0 28.38 L 12.0 28.5 L 12.0 28.62 L 12.0 28.75 L 12.0 28.88 L 12.0 29.0 L 12.0 29.0 L 11.82 29.0 L 11.65 29.01 L 11.47 29.03 L 11.3 29.08 L 11.13 29.13 L 10.97 29.2 L 10.82 29.29 L 10.67 29.39 L 10.53 29.5 L 10.41 29.62 L 10.29 29.75 L 10.19 29.89 L 10.09 30.04 L 10.02 30.2 L 9.95 30.37 L 9.9 30.54 L 9.87 30.71 L 9.85 30.88 L 9.85 31.06 L 9.86 31.24 L 9.89 31.41 L 9.93 31.58 L 9.99 31.75 L 10.06 31.91" fill="none" stroke="#111" stroke-width="1.31" stroke-linecap="round" stroke-linejoin="round"/>
<path d="M 12.0 29.0 L 12.0 29.08 L 12.0 29.17 L 12.0 29.25 L 12.0 29.33 L 12.0 29.42 L 12.0 29.5 L 12.0 29.58 L 12.0 29.67 L 12.0 29.75 L 12.0 29.83 L 12.0 29.92 L 12.0 30.0 L 12.0 30.08 L 12.0 30.17 L 12.0 30.25 L 12.0 30.33 L 12.0 30.42 L 12.0 30.5 L 12.0 30.58 L 12.0 30.67 L 12.0 30.75 L 12.0 30.83 L 12.0 30.92 L 12.0 31.0" fill="none" stroke="#111" stroke-width="1.31" stroke-linecap="round" stroke-linejoin="round"/>
<path d="M 12.0 20.0 L 12.29 20.25 L 12.58 20.5 L 12.88 20.75 L 13.17 21.0 L 13.46 21.25 L 13.75 21.5 L 14.04 21.75 L 14.33 22.0 L 14.62 22.25 L 14.92 22.5 L 15.21 22.75 L 15.5 23.0 L 15.79 23.25 L 16.08 23.5 L 16.38 23.75 L 16.67 24.0 L 16.96 24.25 L 17.25 24.5 L 17.54 24.75 L 17.83 25.0 L 18.12 25.25 L 18.42 25.5 L 18.71 25.75 L 19.0 26.0" fill="none" stroke="#111" stroke-width="1.31" stroke-linecap="round" stroke-linejoin="round"/>
</svg>
