<?xml version="1.0" encoding="UTF-8"?>
<svg xmlns="http://www.w3.org/2000/svg" viewBox="0 0 23.00 34.13">
<path d="M 11.0 4.13 L 11.65 5.14 L 12.22 6.2 L 12.72 7.29 L 13.14 8.41 L 13.49 9.56 L 13.75 10.73 L 13.94 11.92 L 14.04 13.11 L 14.06 14.31 L 13.99 15.51 L 13.84 16.7 L 13.61 17.88 L 13.3 19.04 L 12.92 20.18 L 12.45 21.28 L 11.91 22.35 L 11.29 23.38 L 10.61 24.37 L 9.86 25.31 L 9.04 26.19 L 8.17 27.01 L 7.24 27.77 L 6.26 28.47 L 5.24 29.09" fill="none" stroke="#111" stroke-width="1.19" stroke-linecap="round" stroke-linejoin="round"/>
<path d="M 11.0 24.13 L 11.21 24.38 L 11.42 24.63 L 11.62 24.88 L 11.83 25.13 L 12.04 25.38 L 12.25 25.63 L 12.46 25.88 L 12.67 26.13 L 12.88 26.38 L 13.08 26.63 L 13.29 26.88 L 13.5 27.13 L 13.71 27.38 L 13.92 27.63 L 14.12 27.88 L 14.33 28.13 L 14.54 28.38 L 14.75 28.63 L 14.96 28.88 L 15.17 29.13 L 15.38 29.38 L 15.58 29.63 L 15.79 29.88 L 16.0 30.13" fill="none" stroke="#111" stroke-width="1.19" stroke-linecap="round" stroke-linejoin="round"/>
<path d="M 10.0 5.13 L 9.79 5.47 L 9.58 5.8 L 9.38 6.13 L 9.17 6.47 L 8.96 6.8 L 8.75 7.13 L 8.54 7.47 L 8.33 7.8 L 8.12 8.13 L 7.92 8.47 L 7.71 8.8 L 7.5 9.13 L 7.29 9.47 L 7.08 9.8 L 6.88 10.13 L 6.67 10.47 L 6.46 10.8 L 6.25 11.13 L 6.04 11.47 L 5.83 11.8 L 5.63 12.13 L 5.42 12.47 L 5.21 12.8 L 5.0 13.13 L 5.0 13.13 L 5.6 13.87 L 6.31 14.51 L 7.1 15.03 L 7.97 15.41 L 8.89 15.65 L 9.84 15.75 L 10.79 15.69 L 11.72 15.49 L 12.61 15.14 L 13.43 14.66 L 14.16 14.05 L 14.79 13.34 L 15.3 12.54 L 15.67 11.66 L 15.91 10.74 L 15.99 9.79 L 15.93 8.84 L 15.72 7.92 L 15.36 7.03 L 14.87 6.22 L 14.26 5.49 L 13.54 4.87 L 12.73 4.37 L 11.85 4.0" fill="none" stroke="#111" stroke-width="1.19" stroke-linecap="round" stroke-linejoin="round"/>
<path d="M 4.0 24.13 L 4.29 23.8 L 4.58 23.47 L 4.88 23.13 L 5.17 22.8 L 5.46 22.47 L 5.75 22.13 L 6.04 21.8 L 6.33 21.47 L 6.62 21.13 L 6.92 20.8 L 7.21 20.47 L 7.5 20.13 L 7.79 19.8 L 8.08 19.47 L 8.38 19.13 L 8.67 18.8 L 8.96 18.47 L 9.25 18.13 L 9.54 17.8 L 9.83 17.47 L 10.12 17.13 L 10.42 16.8 L 10.71 16.47 L 11.0 16.13 L 11.0 16.13 L 11.33 16.47 L 11.67 16.8 L 12.0 17.13 L 12.33 17.47 L 12.67 17.8 L 13.0 18.13 L 13.33 18.47 L 13.67 18.8 L 14.0 19.13 L 14.33 19.47 L 14.67 19.8 L 15.0 20.13 L 15.33 20.47 L 15.67 20.8 L 16.0 21.13 L 16.33 21.47 L 16.67 21.8 L 17.0 22.13 L 17.33 22.47 L 17.67 22.8 L 18.0 23.13 L 18.33 23.47 L 18.67 23.8 L 19.0 24.13" fill="none" stroke="#111" stroke-width="1.19" stroke-linecap="round" stroke-linejoin="round"/>
</svg>
