<?xml version="1.0" encoding="UTF-8"?>
<svg xmlns="http://www.w3.org/2000/svg" viewBox="0 0 19.00 35.00">
<path d="M 8.0 14.0 L 8.21 13.96 L 8.42 13.92 L 8.62 13.88 L 8.83 13.83 L 9.04 13.79 L 9.25 13.75 L 9.46 13.71 L 9.67 13.67 L 9.88 13.62 L 10.08 13.58 L 10.29 13.54 L 10.5 13.5 L 10.71 13.46 L 10.92 13.42 L 11.12 13.38 L 11.33 13.33 L 11.54 13.29 L 11.75 13.25 L 11.96 13.21 L 12.17 13.17 L 12.38 13.12 L 12.58 13.08 L 12.79 13.04 L 13.0 13.0" fill="none" stroke="#111" stroke-width="1.23" stroke-linecap="round" stroke-linejoin="round"/>
<path d="M 11.0 13.0 L 11.0 13.38 L 11.0 13.75 L 11.0 14.12 L 11.0 14.5 L 11.0 14.88 L 11.0 15.25 L 11.0 15.62 L 11.0 16.0 L 11.0 16.38 L 11.0 16.75 L 11.0 17.12 L 11.0 17.5 L 11.0 17.88 L 11.0 18.25 L 11.0 18.62 L 11.0 19.0 L 11.0 19.38 L 11.0 19.75 L 11.0 20.12 L 11.0 20.5 L 11.0 20.88 L 11.0 21.25 L 11.0 21.62 L 11.0 22.0" fill="none" stroke="#111" stroke-width="1.23" stroke-linecap="round" stroke-linejoin="round"/>
<path d="M 8.0 22.0 L 8.21 21.96 L 8.42 21.92 L 8.62 21.88 L 8.83 21.83 L 9.04 21.79 L 9.25 21.75 L 9.46 21.71 L 9.67 21.67 L 9.88 21.62 L 10.08 21.58 L 10.29 21.54 L 10.5 21.5 L 10.71 21.46 L 10.92 21.42 L 11.12 21.38 L 11.33 21.33 L 11.54 21.29 L 11.75 21.25 L 11.96 21.21 L 12.17 21.17 L 12.38 21.12 L 12.58 21.08 L 12.79 21.04 L 13.0 21.0" fill="none" stroke="#111" stroke-width="1.23" stroke-linecap="round" stroke-linejoin="round"/>
<path d="M 11.0 14.0 L 10.63 14.12 L 10.28 14.28 L 9.95 14.48 L 9.65 14.71 L 9.36 14.97 L 9.11 15.26 L 8.9 15.58 L 8.72 15.92 L 8.57 16.28 L 8.47 16.65 L 8.41 17.03 L 8.39 17.41 L 8.41 17.8 L 8.47 18.18 L 8.57 18.55 L 8.72 18.91 L 8.9 19.25 L 9.11 19.56 L 9.36 19.86 L 9.65 20.12 L 9.95 20.35 L 10.28 20.55 L 10.63 20.71 L 11.0 20.83" fill="none" stroke="#111" stroke-width="1.23" stroke-linecap="round" stroke-linejoin="round"/>
<path d="M 13.0 4.0 L 13.08 5.12 L 13.17 6.25 L 13.25 7.38 L 13.33 8.5 L 13.42 9.62 L 13.5 10.75 L 13.58 11.88 L 13.67 13.0 L 13.75 14.12 L 13.83 15.25 L 13.92 16.38 L 14.0 17.5 L 14.08 18.62 L 14.17 19.75 L 14.25 20.88 L 14.33 22.0 L 14.42 23.12 L 14.5 24.25 L 14.58 25.38 L 14.67 26.5 L 14.75 27.62 L 14.83 28.75 L 14.92 29.87 L 15.0 31.0" fill="none" stroke="#111" stroke-width="1.23" stroke-linecap="round" stroke-linejoin="round"/>
<path d="M 10.0 4.0 L 10.12 4.0 L 10.25 4.0 L 10.38 4.0 L 10.5 4.0 L 10.62 4.0 L 10.75 4.0 L 10.88 4.0 L 11.0 4.0 L 11.12 4.0 L 11.25 4.0 L 11.38 4.0 L 11.5 4.0 L 11.62 4.0 L 11.75 4.0 L 11.88 4.0 L 12.0 4.0 L 12.12 4.0 L 12.25 4.0 L 12.38 4.0 L 12.5 4.0 L 12.62 4.0 L 12.75 4.0 L 12.88 4.0 L 13.0 4.0" fill="none" stroke="#111" stroke-width="1.23" stroke-linecap="round" stroke-linejoin="round"/>
<path d="M 13.0 7.0 L 12.67 7.25 L 12.33 7.5 L 12.0 7.75 L 11.67 8.0 L 11.33 8.25 L 11.0 8.5 L 10.67 8.75 L 10.33 9.0 L 10.0 9.25 L 9.67 9.5 L 9.33 9.75 L 9.0 10.0 L 8.67 10.25 L 8.33 10.5 L 8.0 10.75 L 7.67 11.0 L 7.33 11.25 L 7.0 11.5 L 6.67 11.75 L 6.33 12.0 L 6.0 12.25 L 5.67 12.5 L 5.33 12.75 L 5.0 13.0 L 5.0 13.0 L 5.18 13.31 L 5.35 13.62 L 5.5 13.95 L 5.63 14.28 L 5.74 14.63 L 5.82 14.97 L 5.89 15.32 L 5.94 15.68 L 5.97 16.04 L 5.98 16.39 L 5.96 16.75 L 5.93 17.11 L 5.87 17.46 L 5.8 17.81 L 5.7 18.16 L 5.59 18.5 L 5.46 18.83 L 5.3 19.15 L 5.13 19.47 L 4.94 19.77 L 4.73 20.06 L 4.51 20.34 L 4.27 20.61 L 4.02 20.86 L 4.0 21.0 L 4.42 21.33 L 4.83 21.67 L 5.25 22.0 L 5.67 22.33 L 6.08 22.67 L 6.5 23.0 L 6.92 23.33 L 7.33 23.67 L 7.75 24.0 L 8.17 24.33 L 8.58 24.67 L 9.0 25.0 L 9.42 25.33 L 9.83 25.67 L 10.25 26.0 L 10.67 26.33 L 11.08 26.67 L 11.5 27.0 L 11.92 27.33 L 12.33 27.67 L 12.75 28.0 L 13.17 28.33 L 13.58 28.67 L 14.0 29.0" fill="none" stroke="#111" stroke-width="1.23" stroke-linecap="round" stroke-linejoin="round"/>
</svg>
