<?xml version="1.0" encoding="UTF-8"?>
<svg xmlns="http://www.w3.org/2000/svg" viewBox="0 0 23.83 35.96">
<path d="M 12.0 4.0 L 12.12 4.21 L 12.25 4.42 L 12.38 4.62 L 12.5 4.83 L 12.62 5.04 L 12.75 5.25 L 12.88 5.46 L 13.0 5.67 L 13.12 5.88 L 13.25 6.08 L 13.38 6.29 L 13.5 6.5 L 13.62 6.71 L 13.75 6.92 L 13.88 7.12 L 14.0 7.33 L 14.12 7.54 L 14.25 7.75 L 14.38 7.96 L 14.5 8.17 L 14.62 8.38 L 14.75 8.58 L 14.88 8.79 L 15.0 9.0 L 15.0 9.0 L 14.92 9.46 L 14.84 9.92 L 14.74 10.37 L 14.64 10.82 L 14.53 11.28 L 14.41 11.72 L 14.28 12.17 L 14.14 12.62 L 14.0 13.06 L 13.84 13.5 L 13.68 13.93 L 13.51 14.37 L 13.34 14.8 L 13.15 15.22 L 12.96 15.65 L 12.76 16.07 L 12.55 16.48 L 12.34 16.9 L 12.11 17.3 L 11.88 17.71 L 11.65 18.11 L 11.4 18.5 L 11.15 18.89 L 10.89 19.28 L 11.0 19.0 L 11.29 19.21 L 11.58 19.42 L 11.88 19.62 L 12.17 19.83 L 12.46 20.04 L 12.75 20.25 L 13.04 20.46 L 13.33 20.67 L 13.62 20.88 L 13.92 21.08 L 14.21 21.29 L 14.5 21.5 L 14.79 21.71 L 15.08 21.92 L 15.38 22.12 L 15.67 22.33 L 15.96 22.54 L 16.25 22.75 L 16.54 22.96 L 16.83 23.17 L 17.12 23.38 L 17.42 23.58 L 17.71 23.79 L 18.0 24.0" fill="none" stroke="#111" stroke-width="1.26" stroke-linecap="round" stroke-linejoin="round"/>
<path d="M 13.0 6.0 L 12.85 6.64 L 12.73 7.3 L 12.66 7.96 L 12.63 8.62 L 12.64 9.28 L 12.7 9.94 L 12.79 10.59 L 12.93 11.24 L 13.11 11.88 L 13.32 12.51 L 13.58 13.12 L 13.88 13.71 L 14.21 14.28 L 14.58 14.83 L 14.98 15.36 L 15.41 15.86 L 15.88 16.33 L 16.37 16.77 L 16.9 17.18 L 17.44 17.55 L 18.01 17.89 L 18.6 18.2 L 19.21 18.46 L 19.83 18.68" fill="none" stroke="#111" stroke-width="1.26" stroke-linecap="round" stroke-linejoin="round"/>
<path d="M 16.0 16.0 L 15.53 16.31 L 15.1 16.67 L 14.7 17.06 L 14.34 17.49 L 14.01 17.95 L 13.74 18.44 L 13.51 18.95 L 13.33 19.49 L 13.2 20.03 L 13.12 20.59 L 13.09 21.15 L 13.11 21.71 L 13.19 22.27 L 13.32 22.81 L 13.5 23.35 L 13.73 23.86 L 14.0 24.35 L 14.32 24.81 L 14.68 25.25 L 15.08 25.64 L 15.51 26.0 L 15.98 26.31 L 16.47 26.59 L 16.98 26.81" fill="none" stroke="#111" stroke-width="1.26" stroke-linecap="round" stroke-linejoin="round"/>
<path d="M 7.0 8.0 L 7.0 8.46 L 7.0 8.92 L 7.0 9.38 L 7.0 9.83 L 7.0 10.29 L 7.0 10.75 L 7.0 11.21 L 7.0 11.67 L 7.0 12.12 L 7.0 12.58 L 7.0 13.04 L 7.0 13.5 L 7.0 13.96 L 7.0 14.42 L 7.0 14.88 L 7.0 15.33 L 7.0 15.79 L 7.0 16.25 L 7.0 16.71 L 7.0 17.17 L 7.0 17.62 L 7.0 18.08 L 7.0 18.54 L 7.0 19.0" fill="none" stroke="#111" stroke-width="1.26" stroke-linecap="round" stroke-linejoin="round"/>
<path d="M 13.0 24.0 L 12.94 24.33 L 12.89 24.67 L 12.84 25.01 L 12.81 25.35 L 12.78 25.69 L 12.76 26.02 L 12.76 26.36 L 12.76 26.7 L 12.77 27.04 L 12.79 27.38 L 12.82 27.72 L 12.85 28.06 L 12.9 28.4 L 12.96 28.73 L 13.02 29.07 L 13.1 29.4 L 13.18 29.73 L 13.27 30.06 L 13.37 30.38 L 13.48 30.7 L 13.59 31.02 L 13.72 31.34 L 13.85 31.65 L 14.0 31.96" fill="none" stroke="#111" stroke-width="1.26" stroke-linecap="round" stroke-linejoin="round"/>
<path d="M 13.0 26.0 L 13.08 26.08 L 13.17 26.17 L 13.25 26.25 L 13.33 26.33 L 13.42 26.42 L 13.5 26.5 L 13.58 26.58 L 13.67 26.67 L 13.75 26.75 L 13.83 26.83 L 13.92 26.92 L 14.0 27.0 L 14.08 27.08 L 14.17 27.17 L 14.25 27.25 L 14.33 27.33 L 14.42 27.42 L 14.5 27.5 L 14.58 27.58 L 14.67 27.67 L 14.75 27.75 L 14.83 27.83 L 14.92 27.92 L 15.0 28.0" fill="none" stroke="#111" stroke-width="1.26" stroke-linecap="round" stroke-linejoin="round"/>
<path d="M 5.0 8.0 L 5.17 8.0 L 5.33 8.0 L 5.5 8.0 L 5.67 8.0 L 5.83 8.0 L 6.0 8.0 L 6.17 8.0 L 6.33 8.0 L 6.5 8.0 L 6.67 8.0 L 6.83 8.0 L 7.0 8.0 L 7.17 8.0 L 7.33 8.0 L 7.5 8.0 L 7.67 8.0 L 7.83 8.0 L 8.0 8.0 L 8.17 8.0 L 8.33 8.0 L 8.5 8.0 L 8.67 8.0 L 8.83 8.0 L 9.0 8.0" fill="none" stroke="#111" stroke-width="1.26" stroke-linecap="round" stroke-linejoin="round"/>
<path d="M 4.0 18.0 L 4.21 18.04 L 4.42 18.08 L 4.62 18.12 L 4.83 18.17 L 5.04 18.21 L 5.25 18.25 L 5.46 18.29 L 5.67 18.33 L 5.88 18.38 L 6.08 18.42 L 6.29 18.46 L 6.5 18.5 L 6.71 18.54 L 6.92 18.58 L 7.12 18.62 L 7.33 18.67 L 7.54 18.71 L 7.75 18.75 L 7.96 18.79 L 8.17 18.83 L 8.38 18.88 L 8.58 18.92 L 8.79 18.96 L 9.0 19.0" fill="none" stroke="#111" stroke-width="1.26" stroke-linecap="round" stroke-linejoin="round"/>
</svg>
