<?xml version="1.0" encoding="UTF-8"?>
<svg xmlns="http://www.w3.org/2000/svg" viewBox="0 0 21.94 33.00">
<path d="M 15.94 4.0 L 15.94 4.46 L 15.94 4.92 L 15.94 5.38 L 15.94 5.83 L 15.94 6.29 L 15.94 6.75 L 15.94 7.21 L 15.94 7.67 L 15.94 8.12 L 15.94 8.58 L 15.94 9.04 L 15.94 9.5 L 15.94 9.96 L 15.94 10.42 L 15.94 10.88 L 15.94 11.33 L 15.94 11.79 L 15.94 12.25 L 15.94 12.71 L 15.94 13.17 L 15.94 13.62 L 15.94 14.08 L 15.94 14.54 L 15.94 15.0" fill="none" stroke="#111" stroke-width="1.16" stroke-linecap="round" stroke-linejoin="round"/>
<path d="M 14.94 5.0 L 14.52 5.15 L 14.1 5.32 L 13.68 5.51 L 13.28 5.7 L 12.88 5.91 L 12.48 6.13 L 12.1 6.36 L 11.72 6.61 L 11.35 6.86 L 10.99 7.13 L 10.63 7.41 L 10.29 7.71 L 9.95 8.01 L 9.63 8.32 L 9.31 8.64 L 9.01 8.98 L 8.72 9.32 L 8.43 9.67 L 8.16 10.03 L 7.9 10.4 L 7.66 10.78 L 7.42 11.17 L 7.2 11.56 L 6.99 11.96" fill="none" stroke="#111" stroke-width="1.16" stroke-linecap="round" stroke-linejoin="round"/>
<path d="M 16.94 18.0 L 16.73 17.83 L 16.52 17.67 L 16.32 17.5 L 16.11 17.33 L 15.9 17.17 L 15.69 17.0 L 15.48 16.83 L 15.27 16.67 L 15.07 16.5 L 14.86 16.33 L 14.65 16.17 L 14.44 16.0 L 14.23 15.83 L 14.02 15.67 L 13.82 15.5 L 13.61 15.33 L 13.4 15.17 L 13.19 15.0 L 12.98 14.83 L 12.77 14.67 L 12.57 14.5 L 12.36 14.33 L 12.15 14.17 L 11.94 14.0 L 11.94 14.0 L 11.87 14.35 L 11.81 14.71 L 11.78 15.07 L 11.78 15.43 L 11.79 15.79 L 11.83 16.15 L 11.89 16.5 L 11.98 16.85 L 12.08 17.2 L 12.21 17.54 L 12.36 17.87 L 12.53 18.18 L 12.72 18.49 L 12.92 18.79 L 13.15 19.07 L 13.39 19.33 L 13.65 19.58 L 13.93 19.82 L 14.22 20.03 L 14.52 20.23 L 14.83 20.41 L 15.16 20.56 L 15.49 20.7 L 15.83 20.81 L 15.94 21.0 L 16.02 21.25 L 16.11 21.5 L 16.19 21.75 L 16.27 22.0 L 16.36 22.25 L 16.44 22.5 L 16.52 22.75 L 16.61 23.0 L 16.69 23.25 L 16.77 23.5 L 16.86 23.75 L 16.94 24.0 L 17.02 24.25 L 17.11 24.5 L 17.19 24.75 L 17.27 25.0 L 17.36 25.25 L 17.44 25.5 L 17.52 25.75 L 17.61 26.0 L 17.69 26.25 L 17.77 26.5 L 17.86 26.75 L 17.94 27.0" fill="none" stroke="#111" stroke-width="1.16" stroke-linecap="round" stroke-linejoin="round"/>
<path d="M 14.94 21.0 L 14.86 21.33 L 14.77 21.67 L 14.69 22.0 L 14.61 22.33 L 14.52 22.67 L 14.44 23.0 L 14.36 23.33 L 14.27 23.67 L 14.19 24.0 L 14.11 24.33 L 14.02 24.67 L 13.94 25.0 L 13.86 25.33 L 13.77 25.67 L 13.69 26.0 L 13.61 26.33 L 13.52 26.67 L 13.44 27.0 L 13.36 27.33 L 13.27 27.67 L 13.19 28.0 L 13.11 28.33 L 13.02 28.67 L 12.94 29.0" fill="none" stroke="#111" stroke-width="1.16" stroke-linecap="round" stroke-linejoin="round"/>
<path d="M 14.94 17.0 L 14.73 17.33 L 14.52 17.67 L 14.32 18.0 L 14.11 18.33 L 13.9 18.67 L 13.69 19.0 L 13.48 19.33 L 13.27 19.67 L 13.07 20.0 L 12.86 20.33 L 12.65 20.67 L 12.44 21.0 L 12.23 21.33 L 12.02 21.67 L 11.82 22.0 L 11.61 22.33 L 11.4 22.67 L 11.19 23.0 L 10.98 23.33 L 10.77 23.67 L 10.57 24.0 L 10.36 24.33 L 10.15 24.67 L 9.94 25.0" fill="none" stroke="#111" stroke-width="1.16" stroke-linecap="round" stroke-linejoin="round"/>
<path d="M 7.94 13.0 L 7.86 13.33 L 7.77 13.67 L 7.69 14.0 L 7.61 14.33 L 7.52 14.67 L 7.44 15.0 L 7.36 15.33 L 7.27 15.67 L 7.19 16.0 L 7.11 16.33 L 7.02 16.67 L 6.94 17.0 L 6.86 17.33 L 6.77 17.67 L 6.69 18.0 L 6.61 18.33 L 6.52 18.67 L 6.44 19.0 L 6.36 19.33 L 6.27 19.67 L 6.19 20.0 L 6.11 20.33 L 6.02 20.67 L 5.94 21.0 L 5.94 21.0 L 6.14 21.32 L 6.31 21.65 L 6.46 22.0 L 6.58 22.35 L 6.68 22.71 L 6.76 23.08 L 6.81 23.45 L 6.83 23.82 L 6.83 24.2 L 6.81 24.57 L 6.75 24.94 L 6.68 25.31 L 6.57 25.67 L 6.44 26.02 L 6.29 26.36 L 6.12 26.69 L 5.92 27.01 L 5.7 27.32 L 5.46 27.6 L 5.2 27.87 L 4.93 28.13 L 4.63 28.36 L 4.32 28.57 L 4.0 28.76" fill="none" stroke="#111" stroke-width="1.16" stroke-linecap="round" stroke-linejoin="round"/>
<path d="M 6.94 14.0 L 7.07 14.21 L 7.19 14.42 L 7.32 14.62 L 7.44 14.83 L 7.57 15.04 L 7.69 15.25 L 7.82 15.46 L 7.94 15.67 L 8.07 15.88 L 8.19 16.08 L 8.32 16.29 L 8.44 16.5 L 8.57 16.71 L 8.69 16.92 L 8.82 17.12 L 8.94 17.33 L 9.07 17.54 L 9.19 17.75 L 9.32 17.96 L 9.44 18.17 L 9.57 18.38 L 9.69 18.58 L 9.82 18.79 L 9.94 19.0" fill="none" stroke="#111" stroke-width="1.16" stroke-linecap="round" stroke-linejoin="round"/>
</svg>
