<?xml version="1.0" encoding="UTF-8"?>
<svg xmlns="http://www.w3.org/2000/svg" viewBox="0 0 25.05 31.00">
<path d="M 7.05 4.0 L 7.46 4.0 L 7.88 4.0 L 8.3 4.0 L 8.71 4.0 L 9.13 4.0 L 9.55 4.0 L 9.96 4.0 L 10.38 4.0 L 10.8 4.0 L 11.21 4.0 L 11.63 4.0 L 12.05 4.0 L 12.46 4.0 L 12.88 4.0 L 13.3 4.0 L 13.71 4.0 L 14.13 4.0 L 14.55 4.0 L 14.96 4.0 L 15.38 4.0 L 15.8 4.0 L 16.21 4.0 L 16.63 4.0 L 17.05 4.0" fill="none" stroke="#111" stroke-width="1.09" stroke-linecap="round" stroke-linejoin="round"/>
<path d="M 12.05 4.0 L 11.21 4.63 L 10.41 5.3 L 9.65 6.02 L 8.93 6.78 L 8.26 7.58 L 7.64 8.42 L 7.07 9.3 L 6.55 10.21 L 6.09 11.14 L 5.68 12.11 L 5.33 13.09 L 5.03 14.09 L 4.8 15.11 L 4.62 16.14 L 4.51 17.18 L 4.46 18.23 L 4.47 19.27 L 4.54 20.32 L 4.67 21.35 L 4.86 22.38 L 5.12 23.4 L 5.43 24.4 L 5.8 25.37 L 6.22 26.33" fill="none" stroke="#111" stroke-width="1.09" stroke-linecap="round" stroke-linejoin="round"/>
<path d="M 12.05 4.0 L 12.67 4.13 L 13.27 4.32 L 13.85 4.57 L 14.41 4.87 L 14.93 5.23 L 15.42 5.64 L 15.86 6.09 L 16.26 6.58 L 16.61 7.1 L 16.9 7.66 L 17.15 8.25 L 17.33 8.85 L 17.45 9.47 L 17.52 10.1 L 17.52 10.74 L 17.46 11.37 L 17.34 11.99 L 17.16 12.6 L 16.92 13.18 L 16.62 13.74 L 16.28 14.27 L 15.88 14.76 L 15.44 15.22 L 14.95 15.62 L 15.05 16.0 L 15.13 16.46 L 15.21 16.92 L 15.3 17.38 L 15.38 17.83 L 15.46 18.29 L 15.55 18.75 L 15.63 19.21 L 15.71 19.67 L 15.8 20.12 L 15.88 20.58 L 15.96 21.04 L 16.05 21.5 L 16.13 21.96 L 16.21 22.42 L 16.3 22.88 L 16.38 23.33 L 16.46 23.79 L 16.55 24.25 L 16.63 24.71 L 16.71 25.17 L 16.8 25.62 L 16.88 26.08 L 16.96 26.54 L 17.05 27.0" fill="none" stroke="#111" stroke-width="1.09" stroke-linecap="round" stroke-linejoin="round"/>
<path d="M 11.05 13.0 L 11.18 13.6 L 11.27 14.2 L 11.32 14.82 L 11.33 15.43 L 11.29 16.04 L 11.22 16.65 L 11.1 17.25 L 10.95 17.84 L 10.75 18.42 L 10.51 18.99 L 10.24 19.54 L 9.93 20.07 L 9.58 20.57 L 9.2 21.05 L 8.79 21.51 L 8.34 21.93 L 7.87 22.32 L 7.38 22.68 L 6.86 23.01 L 6.32 23.3 L 5.76 23.55 L 5.19 23.77 L 4.6 23.94 L 4.0 24.07" fill="none" stroke="#111" stroke-width="1.09" stroke-linecap="round" stroke-linejoin="round"/>
<path d="M 8.05 22.0 L 8.38 22.0 L 8.71 22.0 L 9.05 22.0 L 9.38 22.0 L 9.71 22.0 L 10.05 22.0 L 10.38 22.0 L 10.71 22.0 L 11.05 22.0 L 11.38 22.0 L 11.71 22.0 L 12.05 22.0 L 12.38 22.0 L 12.71 22.0 L 13.05 22.0 L 13.38 22.0 L 13.71 22.0 L 14.05 22.0 L 14.38 22.0 L 14.71 22.0 L 15.05 22.0 L 15.38 22.0 L 15.71 22.0 L 16.05 22.0" fill="none" stroke="#111" stroke-width="1.09" stroke-linecap="round" stroke-linejoin="round"/>
<path d="M 11.05 17.0 L 11.46 17.29 L 11.88 17.58 L 12.3 17.88 L 12.71 18.17 L 13.13 18.46 L 13.55 18.75 L 13.96 19.04 L 14.38 19.33 L 14.8 19.62 L 15.21 19.92 L 15.63 20.21 L 16.05 20.5 L 16.46 20.79 L 16.88 21.08 L 17.3 21.38 L 17.71 21.67 L 18.13 21.96 L 18.55 22.25 L 18.96 22.54 L 19.38 22.83 L 19.8 23.12 L 20.21 23.42 L 20.63 23.71 L 21.05 24.0" fill="none" stroke="#111" stroke-width="1.09" stroke-linecap="round" stroke-linejoin="round"/>
</svg>
