<?xml version="1.0" encoding="UTF-8"?>
<svg xmlns="http://www.w3.org/2000/svg" viewBox="0 0 24.00 33.69">
<path d="M 4.0 16.0 L 4.67 16.0 L 5.33 16.0 L 6.0 16.0 L 6.67 16.0 L 7.33 16.0 L 8.0 16.0 L 8.67 16.0 L 9.33 16.0 L 10.0 16.0 L 10.67 16.0 L 11.33 16.0 L 12.0 16.0 L 12.67 16.0 L 13.33 16.0 L 14.0 16.0 L 14.67 16.0 L 15.33 16.0 L 16.0 16.0 L 16.67 16.0 L 17.33 16.0 L 18.0 16.0 L 18.67 16.0 L 19.33 16.0 L 20.0 16.0" fill="none" stroke="#111" stroke-width="1.18" stroke-linecap="round" stroke-linejoin="round"/>
<path d="M 11.0 16.0 L 10.86 16.68 L 10.76 17.36 L 10.69 18.05 L 10.67 18.75 L 10.69 19.44 L 10.75 20.13 L 10.85 20.81 L 10.98 21.49 L 11.16 22.16 L 11.38 22.82 L 11.63 23.47 L 11.93 24.09 L 12.25 24.7 L 12.62 25.29 L 13.01 25.86 L 13.44 26.41 L 13.9 26.92 L 14.39 27.42 L 14.91 27.88 L 15.45 28.31 L 16.02 28.7 L 16.61 29.07 L 17.22 29.4 L 17.85 29.69" fill="none" stroke="#111" stroke-width="1.18" stroke-linecap="round" stroke-linejoin="round"/>
<path d="M 5.0 4.0 L 5.0 4.29 L 5.0 4.58 L 5.0 4.88 L 5.0 5.17 L 5.0 5.46 L 5.0 5.75 L 5.0 6.04 L 5.0 6.33 L 5.0 6.62 L 5.0 6.92 L 5.0 7.21 L 5.0 7.5 L 5.0 7.79 L 5.0 8.08 L 5.0 8.38 L 5.0 8.67 L 5.0 8.96 L 5.0 9.25 L 5.0 9.54 L 5.0 9.83 L 5.0 10.12 L 5.0 10.42 L 5.0 10.71 L 5.0 11.0" fill="none" stroke="#111" stroke-width="1.18" stroke-linecap="round" stroke-linejoin="round"/>
<path d="M 10.0 4.0 L 10.0 4.25 L 10.0 4.5 L 10.0 4.75 L 10.0 5.0 L 10.0 5.25 L 10.0 5.5 L 10.0 5.75 L 10.0 6.0 L 10.0 6.25 L 10.0 6.5 L 10.0 6.75 L 10.0 7.0 L 10.0 7.25 L 10.0 7.5 L 10.0 7.75 L 10.0 8.0 L 10.0 8.25 L 10.0 8.5 L 10.0 8.75 L 10.0 9.0 L 10.0 9.25 L 10.0 9.5 L 10.0 9.75 L 10.0 10.0" fill="none" stroke="#111" stroke-width="1.18" stroke-linecap="round" stroke-linejoin="round"/>
<path d="M 14.0 4.0 L 14.0 4.29 L 14.0 4.58 L 14.0 4.88 L 14.0 5.17 L 14.0 5.46 L 14.0 5.75 L 14.0 6.04 L 14.0 6.33 L 14.0 6.62 L 14.0 6.92 L 14.0 7.21 L 14.0 7.5 L 14.0 7.79 L 14.0 8.08 L 14.0 8.38 L 14.0 8.67 L 14.0 8.96 L 14.0 9.25 L 14.0 9.54 L 14.0 9.83 L 14.0 10.12 L 14.0 10.42 L 14.0 10.71 L 14.0 11.0" fill="none" stroke="#111" stroke-width="1.18" stroke-linecap="round" stroke-linejoin="round"/>
</svg>
