<?xml version="1.0" encoding="UTF-8"?>
<svg xmlns="http://www.w3.org/2000/svg" viewBox="0 0 23.00 35.83">
<path d="M 11.0 16.0 L 10.79 16.21 L 10.58 16.42 L 10.38 16.62 L 10.17 16.83 L 9.96 17.04 L 9.75 17.25 L 9.54 17.46 L 9.33 17.67 L 9.12 17.88 L 8.92 18.08 L 8.71 18.29 L 8.5 18.5 L 8.29 18.71 L 8.08 18.92 L 7.88 19.12 L 7.67 19.33 L 7.46 19.54 L 7.25 19.75 L 7.04 19.96 L 6.83 20.17 L 6.62 20.38 L 6.42 20.58 L 6.21 20.79 L 6.0 21.0 L 6.0 21.0 L 6.44 21.32 L 6.85 21.68 L 7.23 22.08 L 7.57 22.5 L 7.87 22.96 L 8.13 23.44 L 8.34 23.94 L 8.51 24.46 L 8.63 24.99 L 8.71 25.54 L 8.73 26.08 L 8.71 26.63 L 8.63 27.17 L 8.51 27.7 L 8.34 28.22 L 8.13 28.72 L 7.87 29.2 L 7.56 29.66 L 7.22 30.08 L 6.85 30.48 L 6.43 30.84 L 5.99 31.16 L 5.52 31.44 L 5.03 31.67" fill="none" stroke="#111" stroke-width="1.25" stroke-linecap="round" stroke-linejoin="round"/>
<path d="M 11.0 16.0 L 11.17 16.21 L 11.33 16.42 L 11.5 16.62 L 11.67 16.83 L 11.83 17.04 L 12.0 17.25 L 12.17 17.46 L 12.33 17.67 L 12.5 17.88 L 12.67 18.08 L 12.83 18.29 L 13.0 18.5 L 13.17 18.71 L 13.33 18.92 L 13.5 19.12 L 13.67 19.33 L 13.83 19.54 L 14.0 19.75 L 14.17 19.96 L 14.33 20.17 L 14.5 20.38 L 14.67 20.58 L 14.83 20.79 L 15.0 21.0 L 15.0 21.0 L 14.78 21.43 L 14.58 21.86 L 14.4 22.31 L 14.24 22.77 L 14.11 23.23 L 14.0 23.7 L 13.91 24.17 L 13.85 24.65 L 13.81 25.12 L 13.79 25.61 L 13.8 26.09 L 13.83 26.57 L 13.89 27.04 L 13.97 27.52 L 14.07 27.99 L 14.19 28.45 L 14.34 28.91 L 14.51 29.36 L 14.71 29.8 L 14.92 30.23 L 15.16 30.65 L 15.41 31.06 L 15.69 31.45 L 15.98 31.83" fill="none" stroke="#111" stroke-width="1.25" stroke-linecap="round" stroke-linejoin="round"/>
<path d="M 4.0 29.0 L 4.29 28.67 L 4.58 28.33 L 4.88 28.0 L 5.17 27.67 L 5.46 27.33 L 5.75 27.0 L 6.04 26.67 L 6.33 26.33 L 6.62 26.0 L 6.92 25.67 L 7.21 25.33 L 7.5 25.0 L 7.79 24.67 L 8.08 24.33 L 8.38 24.0 L 8.67 23.67 L 8.96 23.33 L 9.25 23.0 L 9.54 22.67 L 9.83 22.33 L 10.12 22.0 L 10.42 21.67 L 10.71 21.33 L 11.0 21.0 L 11.0 21.0 L 11.33 21.33 L 11.67 21.67 L 12.0 22.0 L 12.33 22.33 L 12.67 22.67 L 13.0 23.0 L 13.33 23.33 L 13.67 23.67 L 14.0 24.0 L 14.33 24.33 L 14.67 24.67 L 15.0 25.0 L 15.33 25.33 L 15.67 25.67 L 16.0 26.0 L 16.33 26.33 L 16.67 26.67 L 17.0 27.0 L 17.33 27.33 L 17.67 27.67 L 18.0 28.0 L 18.33 28.33 L 18.67 28.67 L 19.0 29.0" fill="none" stroke="#111" stroke-width="1.25" stroke-linecap="round" stroke-linejoin="round"/>
<path d="M 9.0 4.0 L 9.12 4.25 L 9.25 4.5 L 9.38 4.75 L 9.5 5.0 L 9.62 5.25 L 9.75 5.5 L 9.88 5.75 L 10.0 6.0 L 10.12 6.25 L 10.25 6.5 L 10.38 6.75 L 10.5 7.0 L 10.62 7.25 L 10.75 7.5 L 10.88 7.75 L 11.0 8.0 L 11.12 8.25 L 11.25 8.5 L 11.38 8.75 L 11.5 9.0 L 11.62 9.25 L 11.75 9.5 L 11.88 9.75 L 12.0 10.0 L 12.0 10.0 L 11.65 10.23 L 11.31 10.48 L 10.99 10.75 L 10.69 11.04 L 10.41 11.36 L 10.15 11.69 L 9.91 12.04 L 9.7 12.4 L 9.52 12.78 L 9.36 13.17 L 9.22 13.57 L 9.12 13.98 L 9.04 14.39 L 8.99 14.81 L 8.97 15.23 L 8.98 15.65 L 9.02 16.07 L 9.08 16.48 L 9.18 16.89 L 9.3 17.3 L 9.45 17.69 L 9.62 18.07 L 9.82 18.44 L 10.04 18.8" fill="none" stroke="#111" stroke-width="1.25" stroke-linecap="round" stroke-linejoin="round"/>
<path d="M 12.0 9.0 L 12.04 9.12 L 12.08 9.25 L 12.12 9.38 L 12.17 9.5 L 12.21 9.62 L 12.25 9.75 L 12.29 9.88 L 12.33 10.0 L 12.38 10.12 L 12.42 10.25 L 12.46 10.38 L 12.5 10.5 L 12.54 10.62 L 12.58 10.75 L 12.62 10.88 L 12.67 11.0 L 12.71 11.12 L 12.75 11.25 L 12.79 11.38 L 12.83 11.5 L 12.88 11.62 L 12.92 11.75 L 12.96 11.88 L 13.0 12.0" fill="none" stroke="#111" stroke-width="1.25" stroke-linecap="round" stroke-linejoin="round"/>
<path d="M 10.0 12.0 L 10.12 12.08 L 10.25 12.17 L 10.38 12.25 L 10.5 12.33 L 10.62 12.42 L 10.75 12.5 L 10.88 12.58 L 11.0 12.67 L 11.12 12.75 L 11.25 12.83 L 11.38 12.92 L 11.5 13.0 L 11.62 13.08 L 11.75 13.17 L 11.88 13.25 L 12.0 13.33 L 12.12 13.42 L 12.25 13.5 L 12.38 13.58 L 12.5 13.67 L 12.62 13.75 L 12.75 13.83 L 12.88 13.92 L 13.0 14.0" fill="none" stroke="#111" stroke-width="1.25" stroke-linecap="round" stroke-linejoin="round"/>
</svg>
