<?xml version="1.0" encoding="UTF-8"?>
<svg xmlns="http://www.w3.org/2000/svg" viewBox="0 0 23.00 17.04">
<path d="M 5.0 4.0 L 5.45 4.45 L 5.94 4.86 L 6.45 5.24 L 6.98 5.59 L 7.54 5.9 L 8.12 6.17 L 8.71 6.4 L 9.32 6.6 L 9.94 6.74 L 10.57 6.85 L 11.2 6.92 L 11.84 6.94 L 12.47 6.92 L 13.11 6.85 L 13.74 6.74 L 14.36 6.6 L 14.96 6.4 L 15.56 6.17 L 16.14 5.9 L 16.69 5.59 L 17.23 5.24 L 17.74 4.86 L 18.22 4.45 L 18.67 4.0 L 19.0 4.0 L 18.96 4.25 L 18.92 4.5 L 18.88 4.75 L 18.83 5.0 L 18.79 5.25 L 18.75 5.5 L 18.71 5.75 L 18.67 6.0 L 18.62 6.25 L 18.58 6.5 L 18.54 6.75 L 18.5 7.0 L 18.46 7.25 L 18.42 7.5 L 18.38 7.75 L 18.33 8.0 L 18.29 8.25 L 18.25 8.5 L 18.21 8.75 L 18.17 9.0 L 18.12 9.25 L 18.08 9.5 L 18.04 9.75 L 18.0 10.0 L 18.0 10.0 L 17.49 10.25 L 16.97 10.49 L 16.45 10.72 L 15.93 10.94 L 15.4 11.15 L 14.87 11.35 L 14.33 11.54 L 13.79 11.72 L 13.24 11.88 L 12.7 12.04 L 12.15 12.18 L 11.59 12.32 L 11.04 12.44 L 10.48 12.55 L 9.92 12.65 L 9.36 12.74 L 8.79 12.82 L 8.23 12.88 L 7.66 12.94 L 7.1 12.98 L 6.53 13.01 L 5.96 13.03 L 5.39 13.04 L 4.82 13.04" fill="none" stroke="#111" stroke-width="0.81" stroke-linecap="round" stroke-linejoin="round"/>
<path d="M 5.0 4.0 L 5.0 4.17 L 5.0 4.33 L 5.0 4.5 L 5.0 4.67 L 5.0 4.83 L 5.0 5.0 L 5.0 5.17 L 5.0 5.33 L 5.0 5.5 L 5.0 5.67 L 5.0 5.83 L 5.0 6.0 L 5.0 6.17 L 5.0 6.33 L 5.0 6.5 L 5.0 6.67 L 5.0 6.83 L 5.0 7.0 L 5.0 7.17 L 5.0 7.33 L 5.0 7.5 L 5.0 7.67 L 5.0 7.83 L 5.0 8.0" fill="none" stroke="#111" stroke-width="0.81" stroke-linecap="round" stroke-linejoin="round"/>
<path d="M 5.0 11.0 L 4.96 11.08 L 4.92 11.17 L 4.88 11.25 L 4.83 11.33 L 4.79 11.42 L 4.75 11.5 L 4.71 11.58 L 4.67 11.67 L 4.62 11.75 L 4.58 11.83 L 4.54 11.92 L 4.5 12.0 L 4.46 12.08 L 4.42 12.17 L 4.38 12.25 L 4.33 12.33 L 4.29 12.42 L 4.25 12.5 L 4.21 12.58 L 4.17 12.67 L 4.12 12.75 L 4.08 12.83 L 4.04 12.92 L 4.0 13.0" fill="none" stroke="#111" stroke-width="0.81" stroke-linecap="round" stroke-linejoin="round"/>
<path d="M 8.0 6.0 L 7.96 6.29 L 7.92 6.58 L 7.88 6.88 L 7.83 7.17 L 7.79 7.46 L 7.75 7.75 L 7.71 8.04 L 7.67 8.33 L 7.62 8.62 L 7.58 8.92 L 7.54 9.21 L 7.5 9.5 L 7.46 9.79 L 7.42 10.08 L 7.38 10.38 L 7.33 10.67 L 7.29 10.96 L 7.25 11.25 L 7.21 11.54 L 7.17 11.83 L 7.12 12.12 L 7.08 12.42 L 7.04 12.71 L 7.0 13.0" fill="none" stroke="#111" stroke-width="0.81" stroke-linecap="round" stroke-linejoin="round"/>
<path d="M 12.0 6.0 L 11.92 6.25 L 11.83 6.5 L 11.75 6.75 L 11.67 7.0 L 11.58 7.25 L 11.5 7.5 L 11.42 7.75 L 11.33 8.0 L 11.25 8.25 L 11.17 8.5 L 11.08 8.75 L 11.0 9.0 L 10.92 9.25 L 10.83 9.5 L 10.75 9.75 L 10.67 10.0 L 10.58 10.25 L 10.5 10.5 L 10.42 10.75 L 10.33 11.0 L 10.25 11.25 L 10.17 11.5 L 10.08 11.75 L 10.0 12.0" fill="none" stroke="#111" stroke-width="0.81" stroke-linecap="round" stroke-linejoin="round"/>
<path d="M 13.0 6.0 L 13.08 6.25 L 13.17 6.5 L 13.25 6.75 L 13.33 7.0 L 13.42 7.25 L 13.5 7.5 L 13.58 7.75 L 13.67 8.0 L 13.75 8.25 L 13.83 8.5 L 13.92 8.75 L 14.0 9.0 L 14.08 9.25 L 14.17 9.5 L 14.25 9.75 L 14.33 10.0 L 14.42 10.25 L 14.5 10.5 L 14.58 10.75 L 14.67 11.0 L 14.75 11.25 L 14.83 11.5 L 14.92 11.75 L 15.0 12.0" fill="none" stroke="#111" stroke-width="0.81" stroke-linecap="round" stroke-linejoin="round"/>
</svg>
