<?xml version="1.0" encoding="UTF-8"?>
<svg xmlns="http://www.w3.org/2000/svg" viewBox="0 0 18.90 36.00">
<path d="M 5.22 5.0 L 5.41 5.4 L 5.64 5.78 L 5.91 6.13 L 6.22 6.45 L 6.56 6.73 L 6.93 6.98 L 7.33 7.18 L 7.74 7.34 L 8.17 7.45 L 8.61 7.52 L 9.05 7.54 L 9.5 7.51 L 9.93 7.43 L 10.36 7.3 L 10.77 7.13 L 11.16 6.91 L 11.52 6.66 L 11.85 6.36 L 12.15 6.03 L 12.41 5.68 L 12.63 5.29 L 12.81 4.88 L 12.94 4.46 L 13.03 4.02" fill="none" stroke="#111" stroke-width="1.26" stroke-linecap="round" stroke-linejoin="round"/>
<path d="M 9.22 4.0 L 9.26 4.88 L 9.3 5.75 L 9.35 6.62 L 9.39 7.5 L 9.43 8.38 L 9.47 9.25 L 9.51 10.12 L 9.55 11.0 L 9.6 11.88 L 9.64 12.75 L 9.68 13.62 L 9.72 14.5 L 9.76 15.38 L 9.8 16.25 L 9.85 17.12 L 9.89 18.0 L 9.93 18.88 L 9.97 19.75 L 10.01 20.63 L 10.05 21.5 L 10.1 22.38 L 10.14 23.25 L 10.18 24.13 L 10.22 25.0" fill="none" stroke="#111" stroke-width="1.26" stroke-linecap="round" stroke-linejoin="round"/>
<path d="M 9.22 8.0 L 9.05 8.21 L 8.89 8.42 L 8.72 8.62 L 8.55 8.83 L 8.39 9.04 L 8.22 9.25 L 8.05 9.46 L 7.89 9.67 L 7.72 9.88 L 7.55 10.08 L 7.39 10.29 L 7.22 10.5 L 7.05 10.71 L 6.89 10.92 L 6.72 11.12 L 6.55 11.33 L 6.39 11.54 L 6.22 11.75 L 6.05 11.96 L 5.89 12.17 L 5.72 12.38 L 5.55 12.58 L 5.39 12.79 L 5.22 13.0 L 5.22 13.0 L 4.93 13.5 L 4.67 14.03 L 4.46 14.57 L 4.28 15.13 L 4.15 15.69 L 4.05 16.27 L 4.01 16.85 L 4.0 17.43 L 4.04 18.02 L 4.12 18.59 L 4.24 19.16 L 4.4 19.72 L 4.61 20.27 L 4.85 20.8 L 5.13 21.31 L 5.45 21.8 L 5.81 22.26 L 6.2 22.7 L 6.62 23.1 L 7.06 23.48 L 7.54 23.82 L 8.04 24.12 L 8.55 24.39 L 9.09 24.61 L 9.22 25.0 L 9.84 24.81 L 10.43 24.57 L 11.01 24.28 L 11.56 23.94 L 12.08 23.56 L 12.56 23.13 L 13.01 22.67 L 13.41 22.17 L 13.77 21.63 L 14.09 21.07 L 14.36 20.49 L 14.57 19.88 L 14.73 19.25 L 14.84 18.62 L 14.9 17.98 L 14.9 17.33 L 14.85 16.69 L 14.74 16.06 L 14.58 15.43 L 14.37 14.82 L 14.1 14.24 L 13.79 13.67 L 13.43 13.14 L 13.03 12.63 L 13.22 12.0 L 13.05 11.83 L 12.89 11.67 L 12.72 11.5 L 12.55 11.33 L 12.39 11.17 L 12.22 11.0 L 12.05 10.83 L 11.89 10.67 L 11.72 10.5 L 11.55 10.33 L 11.39 10.17 L 11.22 10.0 L 11.05 9.83 L 10.89 9.67 L 10.72 9.5 L 10.55 9.33 L 10.39 9.17 L 10.22 9.0 L 10.05 8.83 L 9.89 8.67 L 9.72 8.5 L 9.55 8.33 L 9.39 8.17 L 9.22 8.0" fill="none" stroke="#111" stroke-width="1.26" stroke-linecap="round" stroke-linejoin="round"/>
<path d="M 5.22 16.0 L 5.51 15.88 L 5.8 15.75 L 6.1 15.62 L 6.39 15.5 L 6.68 15.38 L 6.97 15.25 L 7.26 15.12 L 7.55 15.0 L 7.85 14.88 L 8.14 14.75 L 8.43 14.62 L 8.72 14.5 L 9.01 14.38 L 9.3 14.25 L 9.6 14.12 L 9.89 14.0 L 10.18 13.88 L 10.47 13.75 L 10.76 13.62 L 11.05 13.5 L 11.35 13.38 L 11.64 13.25 L 11.93 13.12 L 12.22 13.0" fill="none" stroke="#111" stroke-width="1.26" stroke-linecap="round" stroke-linejoin="round"/>
<path d="M 6.22 20.0 L 6.47 19.88 L 6.72 19.75 L 6.97 19.62 L 7.22 19.5 L 7.47 19.38 L 7.72 19.25 L 7.97 19.12 L 8.22 19.0 L 8.47 18.88 L 8.72 18.75 L 8.97 18.62 L 9.22 18.5 L 9.47 18.38 L 9.72 18.25 L 9.97 18.12 L 10.22 18.0 L 10.47 17.88 L 10.72 17.75 L 10.97 17.62 L 11.22 17.5 L 11.47 17.38 L 11.72 17.25 L 11.97 17.12 L 12.22 17.0" fill="none" stroke="#111" stroke-width="1.26" stroke-linecap="round" stroke-linejoin="round"/>
<path d="M 9.22 25.0 L 8.94 25.19 L 8.69 25.41 L 8.45 25.64 L 8.23 25.9 L 8.03 26.17 L 7.86 26.46 L 7.71 26.76 L 7.58 27.07 L 7.49 27.4 L 7.42 27.73 L 7.37 28.06 L 7.36 28.4 L 7.37 28.73 L 7.42 29.07 L 7.49 29.4 L 7.58 29.72 L 7.71 30.03 L 7.86 30.33 L 8.03 30.62 L 8.23 30.89 L 8.45 31.15 L 8.69 31.38 L 8.94 31.6 L 9.22 31.79 L 9.22 32.0 L 9.35 31.88 L 9.47 31.75 L 9.6 31.62 L 9.72 31.5 L 9.85 31.38 L 9.97 31.25 L 10.1 31.12 L 10.22 31.0 L 10.35 30.88 L 10.47 30.75 L 10.6 30.62 L 10.72 30.5 L 10.85 30.38 L 10.97 30.25 L 11.1 30.12 L 11.22 30.0 L 11.35 29.88 L 11.47 29.75 L 11.6 29.62 L 11.72 29.5 L 11.85 29.38 L 11.97 29.25 L 12.1 29.12 L 12.22 29.0 L 12.22 29.0 L 12.14 28.83 L 12.05 28.67 L 11.97 28.5 L 11.89 28.33 L 11.8 28.17 L 11.72 28.0 L 11.64 27.83 L 11.55 27.67 L 11.47 27.5 L 11.39 27.33 L 11.3 27.17 L 11.22 27.0 L 11.14 26.83 L 11.05 26.67 L 10.97 26.5 L 10.89 26.33 L 10.8 26.17 L 10.72 26.0 L 10.64 25.83 L 10.55 25.67 L 10.47 25.5 L 10.39 25.33 L 10.3 25.17 L 10.22 25.0" fill="none" stroke="#111" stroke-width="1.26" stroke-linecap="round" stroke-linejoin="round"/>
</svg>
