<?xml version="1.0" encoding="UTF-8"?>
<svg xmlns="http://www.w3.org/2000/svg" viewBox="0 0 32.10 37.00">
<path d="M 15.0 15.0 L 14.56 14.67 L 14.09 14.38 L 13.6 14.14 L 13.09 13.93 L 12.56 13.77 L 12.02 13.66 L 11.48 13.59 L 10.93 13.57 L 10.38 13.6 L 9.83 13.67 L 9.29 13.79 L 8.77 13.95 L 8.26 14.16 L 7.77 14.42 L 7.31 14.71 L 6.87 15.04 L 6.46 15.41 L 6.08 15.82 L 5.75 16.25 L 5.44 16.71 L 5.18 17.2 L 4.97 17.7 L 4.79 18.22 L 4.67 18.76 L 4.0 19.0 L 4.31 19.67 L 4.68 20.3 L 5.11 20.9 L 5.6 21.45 L 6.14 21.94 L 6.73 22.38 L 7.36 22.77 L 8.02 23.08 L 8.72 23.33 L 9.43 23.51 L 10.16 23.62 L 10.89 23.66 L 11.62 23.62 L 12.35 23.51 L 13.06 23.33 L 13.76 23.08 L 14.42 22.77 L 15.05 22.38 L 15.64 21.94 L 16.18 21.45 L 16.67 20.9 L 17.1 20.3 L 17.47 19.67 L 17.78 19.0 L 18.0 19.0 L 17.88 18.83 L 17.75 18.67 L 17.62 18.5 L 17.5 18.33 L 17.38 18.17 L 17.25 18.0 L 17.12 17.83 L 17.0 17.67 L 16.88 17.5 L 16.75 17.33 L 16.62 17.17 L 16.5 17.0 L 16.38 16.83 L 16.25 16.67 L 16.12 16.5 L 16.0 16.33 L 15.88 16.17 L 15.75 16.0 L 15.62 15.83 L 15.5 15.67 L 15.38 15.5 L 15.25 15.33 L 15.12 15.17 L 15.0 15.0" fill="none" stroke="#111" stroke-width="1.30" stroke-linecap="round" stroke-linejoin="round"/>
<path d="M 4.0 19.0 L 4.54 19.0 L 5.08 19.0 L 5.62 19.0 L 6.17 19.0 L 6.71 19.0 L 7.25 19.0 L 7.79 19.0 L 8.33 19.0 L 8.88 19.0 L 9.42 19.0 L 9.96 19.0 L 10.5 19.0 L 11.04 19.0 L 11.58 19.0 L 12.12 19.0 L 12.67 19.0 L 13.21 19.0 L 13.75 19.0 L 14.29 19.0 L 14.83 19.0 L 15.38 19.0 L 15.92 19.0 L 16.46 19.0 L 17.0 19.0" fill="none" stroke="#111" stroke-width="1.30" stroke-linecap="round" stroke-linejoin="round"/>
<path d="M 8.0 5.0 L 8.08 5.08 L 8.17 5.17 L 8.25 5.25 L 8.33 5.33 L 8.42 5.42 L 8.5 5.5 L 8.58 5.58 L 8.67 5.67 L 8.75 5.75 L 8.83 5.83 L 8.92 5.92 L 9.0 6.0 L 9.08 6.08 L 9.17 6.17 L 9.25 6.25 L 9.33 6.33 L 9.42 6.42 L 9.5 6.5 L 9.58 6.58 L 9.67 6.67 L 9.75 6.75 L 9.83 6.83 L 9.92 6.92 L 10.0 7.0 L 10.0 7.0 L 10.08 6.92 L 10.17 6.83 L 10.25 6.75 L 10.33 6.67 L 10.42 6.58 L 10.5 6.5 L 10.58 6.42 L 10.67 6.33 L 10.75 6.25 L 10.83 6.17 L 10.92 6.08 L 11.0 6.0 L 11.08 5.92 L 11.17 5.83 L 11.25 5.75 L 11.33 5.67 L 11.42 5.58 L 11.5 5.5 L 11.58 5.42 L 11.67 5.33 L 11.75 5.25 L 11.83 5.17 L 11.92 5.08 L 12.0 5.0" fill="none" stroke="#111" stroke-width="1.30" stroke-linecap="round" stroke-linejoin="round"/>
<path d="M 10.0 4.0 L 10.0 4.79 L 10.0 5.58 L 10.0 6.38 L 10.0 7.17 L 10.0 7.96 L 10.0 8.75 L 10.0 9.54 L 10.0 10.33 L 10.0 11.12 L 10.0 11.92 L 10.0 12.71 L 10.0 13.5 L 10.0 14.29 L 10.0 15.08 L 10.0 15.88 L 10.0 16.67 L 10.0 17.46 L 10.0 18.25 L 10.0 19.04 L 10.0 19.83 L 10.0 20.62 L 10.0 21.42 L 10.0 22.21 L 10.0 23.0" fill="none" stroke="#111" stroke-width="1.30" stroke-linecap="round" stroke-linejoin="round"/>
<path d="M 6.0 15.0 L 6.2 13.73 L 6.55 12.49 L 7.03 11.3 L 7.65 10.17 L 8.39 9.12 L 9.24 8.15 L 10.19 7.29 L 11.24 6.55 L 12.37 5.92 L 13.55 5.43 L 14.79 5.07 L 16.06 4.86 L 17.34 4.79 L 18.63 4.86 L 19.89 5.08 L 21.13 5.45 L 22.31 5.95 L 23.44 6.58 L 24.48 7.33 L 25.43 8.19 L 26.28 9.16 L 27.01 10.22 L 27.62 11.35 L 28.1 12.54" fill="none" stroke="#111" stroke-width="1.30" stroke-linecap="round" stroke-linejoin="round"/>
<path d="M 10.0 25.0 L 10.0 25.33 L 10.0 25.67 L 10.0 26.0 L 10.0 26.33 L 10.0 26.67 L 10.0 27.0 L 10.0 27.33 L 10.0 27.67 L 10.0 28.0 L 10.0 28.33 L 10.0 28.67 L 10.0 29.0 L 10.0 29.33 L 10.0 29.67 L 10.0 30.0 L 10.0 30.33 L 10.0 30.67 L 10.0 31.0 L 10.0 31.33 L 10.0 31.67 L 10.0 32.0 L 10.0 32.33 L 10.0 32.67 L 10.0 33.0" fill="none" stroke="#111" stroke-width="1.30" stroke-linecap="round" stroke-linejoin="round"/>
<path d="M 10.0 33.0 L 9.88 32.75 L 9.75 32.5 L 9.62 32.25 L 9.5 32.0 L 9.38 31.75 L 9.25 31.5 L 9.12 31.25 L 9.0 31.0 L 8.88 30.75 L 8.75 30.5 L 8.62 30.25 L 8.5 30.0 L 8.38 29.75 L 8.25 29.5 L 8.12 29.25 L 8.0 29.0 L 7.88 28.75 L 7.75 28.5 L 7.62 28.25 L 7.5 28.0 L 7.38 27.75 L 7.25 27.5 L 7.12 27.25 L 7.0 27.0" fill="none" stroke="#111" stroke-width="1.30" stroke-linecap="round" stroke-linejoin="round"/>
<path d="M 8.0 29.0 L 8.29 28.88 L 8.58 28.75 L 8.88 28.62 L 9.17 28.5 L 9.46 28.38 L 9.75 28.25 L 10.04 28.12 L 10.33 28.0 L 10.62 27.88 L 10.92 27.75 L 11.21 27.62 L 11.5 27.5 L 11.79 27.38 L 12.08 27.25 L 12.38 27.12 L 12.67 27.0 L 12.96 26.88 L 13.25 26.75 L 13.54 26.62 L 13.83 26.5 L 14.12 26.38 L 14.42 26.25 L 14.71 26.12 L 15.0 26.0" fill="none" stroke="#111" stroke-width="1.30" stroke-linecap="round" stroke-linejoin="round"/>
</svg>
