<?xml version="1.0" encoding="UTF-8"?>
<svg xmlns="http://www.w3.org/2000/svg" viewBox="0 0 16.00 35.64">
<path d="M 12.0 8.0 L 11.67 8.67 L 11.33 9.33 L 11.0 10.0 L 10.67 10.67 L 10.33 11.33 L 10.0 12.0 L 9.67 12.67 L 9.33 13.33 L 9.0 14.0 L 8.67 14.67 L 8.33 15.33 L 8.0 16.0 L 7.67 16.67 L 7.33 17.33 L 7.0 18.0 L 6.67 18.67 L 6.33 19.33 L 6.0 20.0 L 5.67 20.67 L 5.33 21.33 L 5.0 22.0 L 4.67 22.67 L 4.33 23.33 L 4.0 24.0" fill="none" stroke="#111" stroke-width="1.25" stroke-linecap="round" stroke-linejoin="round"/>
<path d="M 6.0 4.0 L 6.08 4.12 L 6.17 4.25 L 6.25 4.38 L 6.33 4.5 L 6.42 4.62 L 6.5 4.75 L 6.58 4.88 L 6.67 5.0 L 6.75 5.12 L 6.83 5.25 L 6.92 5.38 L 7.0 5.5 L 7.08 5.62 L 7.17 5.75 L 7.25 5.88 L 7.33 6.0 L 7.42 6.12 L 7.5 6.25 L 7.58 6.38 L 7.67 6.5 L 7.75 6.62 L 7.83 6.75 L 7.92 6.88 L 8.0 7.0 L 8.0 7.0 L 7.65 7.1 L 7.32 7.24 L 7.0 7.41 L 6.7 7.61 L 6.42 7.84 L 6.17 8.09 L 5.94 8.37 L 5.74 8.67 L 5.57 8.99 L 5.43 9.32 L 5.33 9.67 L 5.26 10.02 L 5.23 10.38 L 5.23 10.74 L 5.27 11.1 L 5.34 11.46 L 5.45 11.8 L 5.59 12.13 L 5.76 12.45 L 5.97 12.75 L 6.2 13.02 L 6.46 13.27 L 6.74 13.5 L 7.04 13.69" fill="none" stroke="#111" stroke-width="1.25" stroke-linecap="round" stroke-linejoin="round"/>
<path d="M 11.0 20.0 L 10.75 20.29 L 10.5 20.58 L 10.25 20.88 L 10.0 21.17 L 9.75 21.46 L 9.5 21.75 L 9.25 22.04 L 9.0 22.33 L 8.75 22.62 L 8.5 22.92 L 8.25 23.21 L 8.0 23.5 L 7.75 23.79 L 7.5 24.08 L 7.25 24.38 L 7.0 24.67 L 6.75 24.96 L 6.5 25.25 L 6.25 25.54 L 6.0 25.83 L 5.75 26.12 L 5.5 26.42 L 5.25 26.71 L 5.0 27.0" fill="none" stroke="#111" stroke-width="1.25" stroke-linecap="round" stroke-linejoin="round"/>
<path d="M 7.0 20.0 L 7.34 20.4 L 7.66 20.81 L 7.96 21.24 L 8.23 21.69 L 8.48 22.15 L 8.7 22.62 L 8.9 23.11 L 9.07 23.6 L 9.21 24.11 L 9.32 24.62 L 9.41 25.13 L 9.47 25.65 L 9.5 26.18 L 9.5 26.7 L 9.47 27.22 L 9.41 27.74 L 9.33 28.26 L 9.21 28.77 L 9.07 29.27 L 8.9 29.77 L 8.71 30.25 L 8.49 30.73 L 8.24 31.19 L 7.97 31.64" fill="none" stroke="#111" stroke-width="1.25" stroke-linecap="round" stroke-linejoin="round"/>
<path d="M 8.0 7.0 L 8.04 7.08 L 8.08 7.17 L 8.12 7.25 L 8.17 7.33 L 8.21 7.42 L 8.25 7.5 L 8.29 7.58 L 8.33 7.67 L 8.38 7.75 L 8.42 7.83 L 8.46 7.92 L 8.5 8.0 L 8.54 8.08 L 8.58 8.17 L 8.62 8.25 L 8.67 8.33 L 8.71 8.42 L 8.75 8.5 L 8.79 8.58 L 8.83 8.67 L 8.88 8.75 L 8.92 8.83 L 8.96 8.92 L 9.0 9.0" fill="none" stroke="#111" stroke-width="1.25" stroke-linecap="round" stroke-linejoin="round"/>
<path d="M 7.0 9.0 L 7.04 9.08 L 7.08 9.17 L 7.12 9.25 L 7.17 9.33 L 7.21 9.42 L 7.25 9.5 L 7.29 9.58 L 7.33 9.67 L 7.38 9.75 L 7.42 9.83 L 7.46 9.92 L 7.5 10.0 L 7.54 10.08 L 7.58 10.17 L 7.62 10.25 L 7.67 10.33 L 7.71 10.42 L 7.75 10.5 L 7.79 10.58 L 7.83 10.67 L 7.88 10.75 L 7.92 10.83 L 7.96 10.92 L 8.0 11.0" fill="none" stroke="#111" stroke-width="1.25" stroke-linecap="round" stroke-linejoin="round"/>
</svg>
