<?xml version="1.0" encoding="UTF-8"?>
<svg xmlns="http://www.w3.org/2000/svg" viewBox="0 0 20.82 33.00">
<path d="M 7.82 6.0 L 8.97 5.91 L 10.13 6.01 L 11.25 6.28 L 12.32 6.73 L 13.31 7.34 L 14.18 8.1 L 14.93 8.98 L 15.53 9.97 L 15.97 11.05 L 16.23 12.18 L 16.31 13.33 L 16.21 14.48 L 15.93 15.61 L 15.48 16.68 L 14.86 17.66 L 14.1 18.53 L 13.22 19.27 L 12.22 19.87 L 11.15 20.3 L 10.02 20.56 L 8.86 20.64 L 7.71 20.53 L 6.59 20.25 L 5.52 19.79" fill="none" stroke="#111" stroke-width="1.16" stroke-linecap="round" stroke-linejoin="round"/>
<path d="M 6.82 4.0 L 6.82 4.12 L 6.82 4.25 L 6.82 4.38 L 6.82 4.5 L 6.82 4.62 L 6.82 4.75 L 6.82 4.88 L 6.82 5.0 L 6.82 5.12 L 6.82 5.25 L 6.82 5.38 L 6.82 5.5 L 6.82 5.62 L 6.82 5.75 L 6.82 5.88 L 6.82 6.0 L 6.82 6.12 L 6.82 6.25 L 6.82 6.38 L 6.82 6.5 L 6.82 6.62 L 6.82 6.75 L 6.82 6.88 L 6.82 7.0" fill="none" stroke="#111" stroke-width="1.16" stroke-linecap="round" stroke-linejoin="round"/>
<path d="M 6.82 10.0 L 6.78 10.08 L 6.74 10.17 L 6.69 10.25 L 6.65 10.33 L 6.61 10.42 L 6.57 10.5 L 6.53 10.58 L 6.49 10.67 L 6.44 10.75 L 6.4 10.83 L 6.36 10.92 L 6.32 11.0 L 6.28 11.08 L 6.24 11.17 L 6.19 11.25 L 6.15 11.33 L 6.11 11.42 L 6.07 11.5 L 6.03 11.58 L 5.99 11.67 L 5.94 11.75 L 5.9 11.83 L 5.86 11.92 L 5.82 12.0" fill="none" stroke="#111" stroke-width="1.16" stroke-linecap="round" stroke-linejoin="round"/>
<path d="M 11.82 6.0 L 11.75 6.61 L 11.69 7.23 L 11.66 7.85 L 11.65 8.47 L 11.67 9.09 L 11.7 9.7 L 11.75 10.32 L 11.83 10.93 L 11.93 11.54 L 12.05 12.15 L 12.18 12.76 L 12.34 13.35 L 12.52 13.94 L 12.72 14.53 L 12.95 15.11 L 13.19 15.68 L 13.45 16.24 L 13.72 16.79 L 14.02 17.33 L 14.34 17.87 L 14.67 18.39 L 15.03 18.89 L 15.4 19.39 L 15.78 19.87 L 15.82 20.0 L 15.29 20.06 L 14.77 20.18 L 14.27 20.35 L 13.79 20.59 L 13.34 20.88 L 12.93 21.22 L 12.56 21.61 L 12.25 22.04 L 11.98 22.5 L 11.77 22.99 L 11.62 23.5 L 11.53 24.03 L 11.5 24.56 L 11.54 25.09 L 11.63 25.62 L 11.79 26.13 L 12.01 26.61 L 12.28 27.07 L 12.61 27.5 L 12.98 27.88 L 13.39 28.21 L 13.84 28.5 L 14.33 28.73 L 14.83 28.9 L 14.82 29.0 L 14.9 28.88 L 14.99 28.75 L 15.07 28.62 L 15.15 28.5 L 15.24 28.38 L 15.32 28.25 L 15.4 28.12 L 15.49 28.0 L 15.57 27.88 L 15.65 27.75 L 15.74 27.62 L 15.82 27.5 L 15.9 27.38 L 15.99 27.25 L 16.07 27.12 L 16.15 27.0 L 16.24 26.88 L 16.32 26.75 L 16.4 26.62 L 16.49 26.5 L 16.57 26.38 L 16.65 26.25 L 16.74 26.12 L 16.82 26.0" fill="none" stroke="#111" stroke-width="1.16" stroke-linecap="round" stroke-linejoin="round"/>
<path d="M 13.82 6.0 L 13.82 6.17 L 13.82 6.33 L 13.82 6.5 L 13.82 6.67 L 13.82 6.83 L 13.82 7.0 L 13.82 7.17 L 13.82 7.33 L 13.82 7.5 L 13.82 7.67 L 13.82 7.83 L 13.82 8.0 L 13.82 8.17 L 13.82 8.33 L 13.82 8.5 L 13.82 8.67 L 13.82 8.83 L 13.82 9.0 L 13.82 9.17 L 13.82 9.33 L 13.82 9.5 L 13.82 9.67 L 13.82 9.83 L 13.82 10.0" fill="none" stroke="#111" stroke-width="1.16" stroke-linecap="round" stroke-linejoin="round"/>
<path d="M 4.82 15.0 L 4.41 15.69 L 4.13 16.44 L 4.0 17.23 L 4.01 18.02 L 4.17 18.81 L 4.46 19.55 L 4.89 20.23 L 5.43 20.81 L 6.07 21.29 L 6.79 21.65 L 7.56 21.86 L 8.36 21.94 L 9.15 21.86 L 9.92 21.65 L 10.64 21.29 L 11.28 20.81 L 11.82 20.23 L 12.25 19.55 L 12.55 18.81 L 12.7 18.02 L 12.71 17.23 L 12.58 16.44 L 12.3 15.69 L 11.89 15.0" fill="none" stroke="#111" stroke-width="1.16" stroke-linecap="round" stroke-linejoin="round"/>
<path d="M 4.82 17.0 L 4.99 17.0 L 5.15 17.0 L 5.32 17.0 L 5.49 17.0 L 5.65 17.0 L 5.82 17.0 L 5.99 17.0 L 6.15 17.0 L 6.32 17.0 L 6.49 17.0 L 6.65 17.0 L 6.82 17.0 L 6.99 17.0 L 7.15 17.0 L 7.32 17.0 L 7.49 17.0 L 7.65 17.0 L 7.82 17.0 L 7.99 17.0 L 8.15 17.0 L 8.32 17.0 L 8.49 17.0 L 8.65 17.0 L 8.82 17.0" fill="none" stroke="#111" stroke-width="1.16" stroke-linecap="round" stroke-linejoin="round"/>
</svg>
