<?xml version="1.0" encoding="UTF-8"?>
<svg xmlns="http://www.w3.org/2000/svg" viewBox="0 0 20.96 36.88">
<path d="M 7.0 10.0 L 7.29 10.49 L 7.6 10.96 L 7.92 11.43 L 8.25 11.89 L 8.59 12.35 L 8.94 12.79 L 9.31 13.23 L 9.68 13.65 L 10.07 14.07 L 10.46 14.47 L 10.87 14.87 L 11.29 15.25 L 11.71 15.63 L 12.15 15.99 L 12.59 16.34 L 13.05 16.68 L 13.51 17.01 L 13.98 17.33 L 14.46 17.63 L 14.95 17.92 L 15.44 18.2 L 15.94 18.47 L 16.45 18.72 L 16.96 18.97" fill="none" stroke="#111" stroke-width="1.29" stroke-linecap="round" stroke-linejoin="round"/>
<path d="M 4.0 12.0 L 4.12 12.61 L 4.27 13.21 L 4.45 13.8 L 4.66 14.38 L 4.9 14.95 L 5.17 15.5 L 5.46 16.04 L 5.79 16.57 L 6.14 17.08 L 6.51 17.56 L 6.92 18.03 L 7.34 18.48 L 7.79 18.91 L 8.26 19.31 L 8.75 19.68 L 9.25 20.04 L 9.78 20.36 L 10.32 20.66 L 10.88 20.93 L 11.45 21.17 L 12.03 21.38 L 12.62 21.56 L 13.22 21.7 L 13.82 21.82" fill="none" stroke="#111" stroke-width="1.29" stroke-linecap="round" stroke-linejoin="round"/>
<path d="M 8.0 10.0 L 7.92 10.17 L 7.83 10.33 L 7.75 10.5 L 7.67 10.67 L 7.58 10.83 L 7.5 11.0 L 7.42 11.17 L 7.33 11.33 L 7.25 11.5 L 7.17 11.67 L 7.08 11.83 L 7.0 12.0 L 6.92 12.17 L 6.83 12.33 L 6.75 12.5 L 6.67 12.67 L 6.58 12.83 L 6.5 13.0 L 6.42 13.17 L 6.33 13.33 L 6.25 13.5 L 6.17 13.67 L 6.08 13.83 L 6.0 14.0" fill="none" stroke="#111" stroke-width="1.29" stroke-linecap="round" stroke-linejoin="round"/>
<path d="M 12.0 16.0 L 11.92 16.17 L 11.83 16.33 L 11.75 16.5 L 11.67 16.67 L 11.58 16.83 L 11.5 17.0 L 11.42 17.17 L 11.33 17.33 L 11.25 17.5 L 11.17 17.67 L 11.08 17.83 L 11.0 18.0 L 10.92 18.17 L 10.83 18.33 L 10.75 18.5 L 10.67 18.67 L 10.58 18.83 L 10.5 19.0 L 10.42 19.17 L 10.33 19.33 L 10.25 19.5 L 10.17 19.67 L 10.08 19.83 L 10.0 20.0" fill="none" stroke="#111" stroke-width="1.29" stroke-linecap="round" stroke-linejoin="round"/>
<path d="M 13.0 17.0 L 13.0 17.17 L 13.0 17.33 L 13.0 17.5 L 13.0 17.67 L 13.0 17.83 L 13.0 18.0 L 13.0 18.17 L 13.0 18.33 L 13.0 18.5 L 13.0 18.67 L 13.0 18.83 L 13.0 19.0 L 13.0 19.17 L 13.0 19.33 L 13.0 19.5 L 13.0 19.67 L 13.0 19.83 L 13.0 20.0 L 13.0 20.17 L 13.0 20.33 L 13.0 20.5 L 13.0 20.67 L 13.0 20.83 L 13.0 21.0" fill="none" stroke="#111" stroke-width="1.29" stroke-linecap="round" stroke-linejoin="round"/>
<path d="M 9.0 4.0 L 9.37 4.15 L 9.72 4.34 L 10.06 4.56 L 10.38 4.81 L 10.67 5.09 L 10.93 5.39 L 11.17 5.71 L 11.37 6.06 L 11.54 6.42 L 11.68 6.8 L 11.79 7.18 L 11.85 7.58 L 11.88 7.98 L 11.88 8.38 L 11.84 8.78 L 11.76 9.17 L 11.65 9.56 L 11.5 9.93 L 11.32 10.29 L 11.1 10.62 L 10.86 10.94 L 10.59 11.24 L 10.29 11.51 L 9.97 11.75" fill="none" stroke="#111" stroke-width="1.29" stroke-linecap="round" stroke-linejoin="round"/>
<path d="M 9.0 6.0 L 9.12 6.17 L 9.25 6.33 L 9.38 6.5 L 9.5 6.67 L 9.62 6.83 L 9.75 7.0 L 9.88 7.17 L 10.0 7.33 L 10.12 7.5 L 10.25 7.67 L 10.38 7.83 L 10.5 8.0 L 10.62 8.17 L 10.75 8.33 L 10.88 8.5 L 11.0 8.67 L 11.12 8.83 L 11.25 9.0 L 11.38 9.17 L 11.5 9.33 L 11.62 9.5 L 11.75 9.67 L 11.88 9.83 L 12.0 10.0" fill="none" stroke="#111" stroke-width="1.29" stroke-linecap="round" stroke-linejoin="round"/>
<path d="M 7.0 20.0 L 7.16 20.43 L 7.34 20.86 L 7.56 21.27 L 7.79 21.66 L 8.05 22.04 L 8.34 22.41 L 8.64 22.76 L 8.97 23.08 L 9.31 23.39 L 9.68 23.67 L 10.06 23.93 L 10.46 24.17 L 10.87 24.38 L 11.29 24.57 L 11.72 24.73 L 12.16 24.86 L 12.61 24.96 L 13.07 25.04 L 13.53 25.09 L 13.99 25.11 L 14.45 25.1 L 14.91 25.06 L 15.37 24.99 L 15.82 24.9" fill="none" stroke="#111" stroke-width="1.29" stroke-linecap="round" stroke-linejoin="round"/>
<path d="M 11.0 21.0 L 10.96 21.21 L 10.92 21.42 L 10.88 21.62 L 10.83 21.83 L 10.79 22.04 L 10.75 22.25 L 10.71 22.46 L 10.67 22.67 L 10.62 22.88 L 10.58 23.08 L 10.54 23.29 L 10.5 23.5 L 10.46 23.71 L 10.42 23.92 L 10.38 24.12 L 10.33 24.33 L 10.29 24.54 L 10.25 24.75 L 10.21 24.96 L 10.17 25.17 L 10.12 25.38 L 10.08 25.58 L 10.04 25.79 L 10.0 26.0 L 10.0 26.0 L 10.36 26.12 L 10.72 26.25 L 11.06 26.41 L 11.4 26.58 L 11.73 26.77 L 12.05 26.99 L 12.35 27.21 L 12.64 27.46 L 12.92 27.72 L 13.18 27.99 L 13.42 28.28 L 13.65 28.59 L 13.87 28.9 L 14.06 29.23 L 14.24 29.57 L 14.39 29.91 L 14.53 30.27 L 14.65 30.63 L 14.74 31.0 L 14.82 31.37 L 14.88 31.74 L 14.91 32.12 L 14.92 32.5 L 14.92 32.88" fill="none" stroke="#111" stroke-width="1.29" stroke-linecap="round" stroke-linejoin="round"/>
</svg>
