<?xml version="1.0" encoding="UTF-8"?>
<svg xmlns="http://www.w3.org/2000/svg" viewBox="0 0 23.00 34.00">
<path d="M 11.0 15.0 L 11.08 14.54 L 11.17 14.08 L 11.25 13.63 L 11.33 13.17 L 11.42 12.71 L 11.5 12.25 L 11.58 11.79 L 11.67 11.33 L 11.75 10.88 L 11.83 10.42 L 11.92 9.96 L 12.0 9.5 L 12.08 9.04 L 12.17 8.58 L 12.25 8.13 L 12.33 7.67 L 12.42 7.21 L 12.5 6.75 L 12.58 6.29 L 12.67 5.83 L 12.75 5.38 L 12.83 4.92 L 12.92 4.46 L 13.0 4.0" fill="none" stroke="#111" stroke-width="1.19" stroke-linecap="round" stroke-linejoin="round"/>
<path d="M 12.0 8.0 L 12.21 8.17 L 12.42 8.33 L 12.62 8.5 L 12.83 8.67 L 13.04 8.83 L 13.25 9.0 L 13.46 9.17 L 13.67 9.33 L 13.88 9.5 L 14.08 9.67 L 14.29 9.83 L 14.5 10.0 L 14.71 10.17 L 14.92 10.33 L 15.12 10.5 L 15.33 10.67 L 15.54 10.83 L 15.75 11.0 L 15.96 11.17 L 16.17 11.33 L 16.38 11.5 L 16.58 11.67 L 16.79 11.83 L 17.0 12.0" fill="none" stroke="#111" stroke-width="1.19" stroke-linecap="round" stroke-linejoin="round"/>
<path d="M 8.0 16.0 L 8.0 16.58 L 8.0 17.17 L 8.0 17.75 L 8.0 18.33 L 8.0 18.92 L 8.0 19.5 L 8.0 20.08 L 8.0 20.67 L 8.0 21.25 L 8.0 21.83 L 8.0 22.42 L 8.0 23.0 L 8.0 23.58 L 8.0 24.17 L 8.0 24.75 L 8.0 25.33 L 8.0 25.92 L 8.0 26.5 L 8.0 27.08 L 8.0 27.67 L 8.0 28.25 L 8.0 28.83 L 8.0 29.42 L 8.0 30.0" fill="none" stroke="#111" stroke-width="1.19" stroke-linecap="round" stroke-linejoin="round"/>
<path d="M 8.0 16.0 L 8.33 16.0 L 8.67 16.0 L 9.0 16.0 L 9.33 16.0 L 9.67 16.0 L 10.0 16.0 L 10.33 16.0 L 10.67 16.0 L 11.0 16.0 L 11.33 16.0 L 11.67 16.0 L 12.0 16.0 L 12.33 16.0 L 12.67 16.0 L 13.0 16.0 L 13.33 16.0 L 13.67 16.0 L 14.0 16.0 L 14.33 16.0 L 14.67 16.0 L 15.0 16.0 L 15.33 16.0 L 15.67 16.0 L 16.0 16.0 L 16.0 16.0 L 15.96 16.54 L 15.92 17.08 L 15.88 17.62 L 15.83 18.17 L 15.79 18.71 L 15.75 19.25 L 15.71 19.79 L 15.67 20.33 L 15.62 20.88 L 15.58 21.42 L 15.54 21.96 L 15.5 22.5 L 15.46 23.04 L 15.42 23.58 L 15.38 24.13 L 15.33 24.67 L 15.29 25.21 L 15.25 25.75 L 15.21 26.29 L 15.17 26.83 L 15.12 27.38 L 15.08 27.92 L 15.04 28.46 L 15.0 29.0" fill="none" stroke="#111" stroke-width="1.19" stroke-linecap="round" stroke-linejoin="round"/>
<path d="M 12.0 20.0 L 11.96 20.21 L 11.92 20.42 L 11.88 20.62 L 11.83 20.83 L 11.79 21.04 L 11.75 21.25 L 11.71 21.46 L 11.67 21.67 L 11.62 21.88 L 11.58 22.08 L 11.54 22.29 L 11.5 22.5 L 11.46 22.71 L 11.42 22.92 L 11.38 23.12 L 11.33 23.33 L 11.29 23.54 L 11.25 23.75 L 11.21 23.96 L 11.17 24.17 L 11.12 24.38 L 11.08 24.58 L 11.04 24.79 L 11.0 25.0" fill="none" stroke="#111" stroke-width="1.19" stroke-linecap="round" stroke-linejoin="round"/>
<path d="M 4.0 16.0 L 4.0 16.29 L 4.0 16.58 L 4.0 16.88 L 4.0 17.17 L 4.0 17.46 L 4.0 17.75 L 4.0 18.04 L 4.0 18.33 L 4.0 18.62 L 4.0 18.92 L 4.0 19.21 L 4.0 19.5 L 4.0 19.79 L 4.0 20.08 L 4.0 20.38 L 4.0 20.67 L 4.0 20.96 L 4.0 21.25 L 4.0 21.54 L 4.0 21.83 L 4.0 22.12 L 4.0 22.42 L 4.0 22.71 L 4.0 23.0" fill="none" stroke="#111" stroke-width="1.19" stroke-linecap="round" stroke-linejoin="round"/>
<path d="M 19.0 15.0 L 19.0 15.21 L 19.0 15.42 L 19.0 15.63 L 19.0 15.83 L 19.0 16.04 L 19.0 16.25 L 19.0 16.46 L 19.0 16.67 L 19.0 16.88 L 19.0 17.08 L 19.0 17.29 L 19.0 17.5 L 19.0 17.71 L 19.0 17.92 L 19.0 18.12 L 19.0 18.33 L 19.0 18.54 L 19.0 18.75 L 19.0 18.96 L 19.0 19.17 L 19.0 19.38 L 19.0 19.58 L 19.0 19.79 L 19.0 20.0" fill="none" stroke="#111" stroke-width="1.19" stroke-linecap="round" stroke-linejoin="round"/>
</svg>
