<?xml version="1.0" encoding="UTF-8"?>
<svg xmlns="http://www.w3.org/2000/svg" viewBox="0 0 23.00 38.66">
<path d="M 14.0 4.0 L 13.78 4.1 L 13.56 4.22 L 13.36 4.35 L 13.17 4.5 L 12.99 4.67 L 12.83 4.85 L 12.68 5.04 L 12.55 5.25 L 12.44 5.46 L 12.34 5.69 L 12.26 5.92 L 12.21 6.15 L 12.17 6.39 L 12.15 6.64 L 12.15 6.88 L 12.18 7.12 L 12.22 7.36 L 12.28 7.6 L 12.36 7.83 L 12.46 8.05 L 12.58 8.26 L 12.72 8.46 L 12.87 8.65 L 13.03 8.83 L 13.0 9.0 L 13.23 8.91 L 13.46 8.8 L 13.67 8.67 L 13.87 8.53 L 14.06 8.36 L 14.23 8.18 L 14.39 7.99 L 14.53 7.78 L 14.65 7.56 L 14.75 7.33 L 14.83 7.1 L 14.89 6.86 L 14.93 6.61 L 14.95 6.36 L 14.94 6.11 L 14.91 5.86 L 14.86 5.62 L 14.79 5.38 L 14.7 5.15 L 14.59 4.92 L 14.46 4.71 L 14.32 4.51 L 14.15 4.32 L 13.97 4.15" fill="none" stroke="#111" stroke-width="1.35" stroke-linecap="round" stroke-linejoin="round"/>
<path d="M 13.0 5.0 L 12.67 4.96 L 12.33 4.92 L 12.0 4.88 L 11.67 4.83 L 11.33 4.79 L 11.0 4.75 L 10.67 4.71 L 10.33 4.67 L 10.0 4.62 L 9.67 4.58 L 9.33 4.54 L 9.0 4.5 L 8.67 4.46 L 8.33 4.42 L 8.0 4.38 L 7.67 4.33 L 7.33 4.29 L 7.0 4.25 L 6.67 4.21 L 6.33 4.17 L 6.0 4.12 L 5.67 4.08 L 5.33 4.04 L 5.0 4.0 L 5.0 4.0 L 4.96 4.71 L 4.92 5.42 L 4.88 6.12 L 4.83 6.83 L 4.79 7.54 L 4.75 8.25 L 4.71 8.96 L 4.67 9.67 L 4.62 10.38 L 4.58 11.08 L 4.54 11.79 L 4.5 12.5 L 4.46 13.21 L 4.42 13.92 L 4.38 14.62 L 4.33 15.33 L 4.29 16.04 L 4.25 16.75 L 4.21 17.46 L 4.17 18.17 L 4.12 18.88 L 4.08 19.58 L 4.04 20.29 L 4.0 21.0 L 4.0 21.0 L 4.68 21.22 L 5.34 21.49 L 5.97 21.82 L 6.57 22.21 L 7.13 22.65 L 7.66 23.13 L 8.13 23.66 L 8.56 24.23 L 8.94 24.84 L 9.26 25.48 L 9.52 26.14 L 9.73 26.82 L 9.87 27.52 L 9.95 28.23 L 9.96 28.94 L 9.92 29.66 L 9.81 30.36 L 9.64 31.05 L 9.4 31.73 L 9.11 32.38 L 8.77 33.0 L 8.36 33.59 L 7.91 34.15 L 7.41 34.66" fill="none" stroke="#111" stroke-width="1.35" stroke-linecap="round" stroke-linejoin="round"/>
<path d="M 5.0 8.0 L 5.64 8.26 L 6.25 8.56 L 6.84 8.92 L 7.39 9.31 L 7.92 9.76 L 8.41 10.24 L 8.85 10.76 L 9.26 11.31 L 9.62 11.89 L 9.93 12.5 L 10.2 13.13 L 10.41 13.78 L 10.58 14.45 L 10.68 15.13 L 10.74 15.81 L 10.74 16.49 L 10.69 17.18 L 10.58 17.85 L 10.42 18.52 L 10.21 19.17 L 9.95 19.81 L 9.64 20.42 L 9.28 21.0 L 8.87 21.55" fill="none" stroke="#111" stroke-width="1.35" stroke-linecap="round" stroke-linejoin="round"/>
<path d="M 13.0 12.0 L 13.04 12.29 L 13.08 12.58 L 13.12 12.88 L 13.17 13.17 L 13.21 13.46 L 13.25 13.75 L 13.29 14.04 L 13.33 14.33 L 13.38 14.62 L 13.42 14.92 L 13.46 15.21 L 13.5 15.5 L 13.54 15.79 L 13.58 16.08 L 13.62 16.38 L 13.67 16.67 L 13.71 16.96 L 13.75 17.25 L 13.79 17.54 L 13.83 17.83 L 13.88 18.12 L 13.92 18.42 L 13.96 18.71 L 14.0 19.0" fill="none" stroke="#111" stroke-width="1.35" stroke-linecap="round" stroke-linejoin="round"/>
<path d="M 12.0 19.0 L 12.25 18.96 L 12.5 18.92 L 12.75 18.88 L 13.0 18.83 L 13.25 18.79 L 13.5 18.75 L 13.75 18.71 L 14.0 18.67 L 14.25 18.62 L 14.5 18.58 L 14.75 18.54 L 15.0 18.5 L 15.25 18.46 L 15.5 18.42 L 15.75 18.38 L 16.0 18.33 L 16.25 18.29 L 16.5 18.25 L 16.75 18.21 L 17.0 18.17 L 17.25 18.12 L 17.5 18.08 L 17.75 18.04 L 18.0 18.0 L 18.0 18.0 L 18.04 18.29 L 18.08 18.58 L 18.12 18.88 L 18.17 19.17 L 18.21 19.46 L 18.25 19.75 L 18.29 20.04 L 18.33 20.33 L 18.38 20.62 L 18.42 20.92 L 18.46 21.21 L 18.5 21.5 L 18.54 21.79 L 18.58 22.08 L 18.62 22.38 L 18.67 22.67 L 18.71 22.96 L 18.75 23.25 L 18.79 23.54 L 18.83 23.83 L 18.88 24.12 L 18.92 24.42 L 18.96 24.71 L 19.0 25.0" fill="none" stroke="#111" stroke-width="1.35" stroke-linecap="round" stroke-linejoin="round"/>
<path d="M 12.0 19.0 L 12.08 19.25 L 12.17 19.5 L 12.25 19.75 L 12.33 20.0 L 12.42 20.25 L 12.5 20.5 L 12.58 20.75 L 12.67 21.0 L 12.75 21.25 L 12.83 21.5 L 12.92 21.75 L 13.0 22.0 L 13.08 22.25 L 13.17 22.5 L 13.25 22.75 L 13.33 23.0 L 13.42 23.25 L 13.5 23.5 L 13.58 23.75 L 13.67 24.0 L 13.75 24.25 L 13.83 24.5 L 13.92 24.75 L 14.0 25.0" fill="none" stroke="#111" stroke-width="1.35" stroke-linecap="round" stroke-linejoin="round"/>
<path d="M 17.0 19.0 L 16.83 19.08 L 16.67 19.17 L 16.5 19.25 L 16.33 19.33 L 16.17 19.42 L 16.0 19.5 L 15.83 19.58 L 15.67 19.67 L 15.5 19.75 L 15.33 19.83 L 15.17 19.92 L 15.0 20.0 L 14.83 20.08 L 14.67 20.17 L 14.5 20.25 L 14.33 20.33 L 14.17 20.42 L 14.0 20.5 L 13.83 20.58 L 13.67 20.67 L 13.5 20.75 L 13.33 20.83 L 13.17 20.92 L 13.0 21.0" fill="none" stroke="#111" stroke-width="1.35" stroke-linecap="round" stroke-linejoin="round"/>
<path d="M 14.0 14.0 L 13.88 14.12 L 13.75 14.25 L 13.62 14.38 L 13.5 14.5 L 13.38 14.62 L 13.25 14.75 L 13.12 14.88 L 13.0 15.0 L 12.88 15.12 L 12.75 15.25 L 12.62 15.38 L 12.5 15.5 L 12.38 15.62 L 12.25 15.75 L 12.12 15.88 L 12.0 16.0 L 11.88 16.12 L 11.75 16.25 L 11.62 16.38 L 11.5 16.5 L 11.38 16.62 L 11.25 16.75 L 11.12 16.88 L 11.0 17.0" fill="none" stroke="#111" stroke-width="1.35" stroke-linecap="round" stroke-linejoin="round"/>
</svg>
