<?xml version="1.0" encoding="UTF-8"?>
<svg xmlns="http://www.w3.org/2000/svg" viewBox="0 0 19.05 40.87">
<path d="M 4.0 7.0 L 4.33 7.0 L 4.67 7.0 L 5.0 7.0 L 5.33 7.0 L 5.67 7.0 L 6.0 7.0 L 6.33 7.0 L 6.67 7.0 L 7.0 7.0 L 7.33 7.0 L 7.67 7.0 L 8.0 7.0 L 8.33 7.0 L 8.67 7.0 L 9.0 7.0 L 9.33 7.0 L 9.67 7.0 L 10.0 7.0 L 10.33 7.0 L 10.67 7.0 L 11.0 7.0 L 11.33 7.0 L 11.67 7.0 L 12.0 7.0" fill="none" stroke="#111" stroke-width="1.43" stroke-linecap="round" stroke-linejoin="round"/>
<path d="M 8.0 4.0 L 8.08 4.0 L 8.17 4.0 L 8.25 4.0 L 8.33 4.0 L 8.42 4.0 L 8.5 4.0 L 8.58 4.0 L 8.67 4.0 L 8.75 4.0 L 8.83 4.0 L 8.92 4.0 L 9.0 4.0 L 9.08 4.0 L 9.17 4.0 L 9.25 4.0 L 9.33 4.0 L 9.42 4.0 L 9.5 4.0 L 9.58 4.0 L 9.67 4.0 L 9.75 4.0 L 9.83 4.0 L 9.92 4.0 L 10.0 4.0" fill="none" stroke="#111" stroke-width="1.43" stroke-linecap="round" stroke-linejoin="round"/>
<path d="M 8.0 4.0 L 8.0 4.67 L 8.0 5.33 L 8.0 6.0 L 8.0 6.67 L 8.0 7.33 L 8.0 8.0 L 8.0 8.67 L 8.0 9.33 L 8.0 10.0 L 8.0 10.67 L 8.0 11.33 L 8.0 12.0 L 8.0 12.67 L 8.0 13.33 L 8.0 14.0 L 8.0 14.67 L 8.0 15.33 L 8.0 16.0 L 8.0 16.67 L 8.0 17.33 L 8.0 18.0 L 8.0 18.67 L 8.0 19.33 L 8.0 20.0" fill="none" stroke="#111" stroke-width="1.43" stroke-linecap="round" stroke-linejoin="round"/>
<path d="M 13.0 13.0 L 13.46 13.64 L 13.86 14.31 L 14.21 15.01 L 14.5 15.74 L 14.73 16.49 L 14.9 17.26 L 15.01 18.03 L 15.05 18.82 L 15.04 19.6 L 14.96 20.38 L 14.81 21.15 L 14.61 21.91 L 14.35 22.65 L 14.02 23.37 L 13.65 24.05 L 13.21 24.71 L 12.73 25.32 L 12.2 25.9 L 11.62 26.43 L 11.01 26.92 L 10.35 27.35 L 9.67 27.73 L 8.95 28.06 L 8.21 28.32 L 8.0 29.0 L 8.0 29.39 L 8.06 29.77 L 8.15 30.15 L 8.3 30.51 L 8.48 30.85 L 8.71 31.17 L 8.97 31.45 L 9.26 31.71 L 9.58 31.92 L 9.93 32.1 L 10.3 32.23 L 10.68 32.32 L 11.06 32.36 L 11.45 32.35 L 11.83 32.3 L 12.21 32.2 L 12.57 32.06 L 12.91 31.87 L 13.23 31.64 L 13.51 31.38 L 13.76 31.08 L 13.98 30.76 L 14.15 30.41 L 14.28 30.05 L 14.0 30.0 L 14.03 30.32 L 14.05 30.65 L 14.06 30.98 L 14.05 31.3 L 14.02 31.63 L 13.98 31.95 L 13.93 32.27 L 13.86 32.59 L 13.78 32.91 L 13.69 33.22 L 13.58 33.53 L 13.46 33.83 L 13.32 34.13 L 13.18 34.42 L 13.01 34.7 L 12.84 34.98 L 12.66 35.25 L 12.46 35.51 L 12.25 35.76 L 12.03 36.0 L 11.8 36.23 L 11.56 36.46 L 11.32 36.67 L 11.06 36.87" fill="none" stroke="#111" stroke-width="1.43" stroke-linecap="round" stroke-linejoin="round"/>
<path d="M 8.0 17.0 L 8.21 17.0 L 8.42 17.0 L 8.62 17.0 L 8.83 17.0 L 9.04 17.0 L 9.25 17.0 L 9.46 17.0 L 9.67 17.0 L 9.88 17.0 L 10.08 17.0 L 10.29 17.0 L 10.5 17.0 L 10.71 17.0 L 10.92 17.0 L 11.12 17.0 L 11.33 17.0 L 11.54 17.0 L 11.75 17.0 L 11.96 17.0 L 12.17 17.0 L 12.38 17.0 L 12.58 17.0 L 12.79 17.0 L 13.0 17.0" fill="none" stroke="#111" stroke-width="1.43" stroke-linecap="round" stroke-linejoin="round"/>
<path d="M 10.0 15.0 L 10.0 15.17 L 10.0 15.33 L 10.0 15.5 L 10.0 15.67 L 10.0 15.83 L 10.0 16.0 L 10.0 16.17 L 10.0 16.33 L 10.0 16.5 L 10.0 16.67 L 10.0 16.83 L 10.0 17.0 L 10.0 17.17 L 10.0 17.33 L 10.0 17.5 L 10.0 17.67 L 10.0 17.83 L 10.0 18.0 L 10.0 18.17 L 10.0 18.33 L 10.0 18.5 L 10.0 18.67 L 10.0 18.83 L 10.0 19.0" fill="none" stroke="#111" stroke-width="1.43" stroke-linecap="round" stroke-linejoin="round"/>
<path d="M 8.0 15.0 L 7.72 15.11 L 7.45 15.24 L 7.18 15.38 L 6.93 15.55 L 6.68 15.72 L 6.45 15.92 L 6.23 16.12 L 6.03 16.34 L 5.84 16.58 L 5.66 16.82 L 5.5 17.08 L 5.36 17.34 L 5.23 17.62 L 5.12 17.9 L 5.03 18.19 L 4.96 18.48 L 4.91 18.78 L 4.87 19.08 L 4.86 19.38 L 4.86 19.68 L 4.88 19.98 L 4.93 20.28 L 4.99 20.58 L 5.07 20.87" fill="none" stroke="#111" stroke-width="1.43" stroke-linecap="round" stroke-linejoin="round"/>
<path d="M 5.0 21.0 L 5.33 21.0 L 5.67 21.0 L 6.0 21.0 L 6.33 21.0 L 6.67 21.0 L 7.0 21.0 L 7.33 21.0 L 7.67 21.0 L 8.0 21.0 L 8.33 21.0 L 8.67 21.0 L 9.0 21.0 L 9.33 21.0 L 9.67 21.0 L 10.0 21.0 L 10.33 21.0 L 10.67 21.0 L 11.0 21.0 L 11.33 21.0 L 11.67 21.0 L 12.0 21.0 L 12.33 21.0 L 12.67 21.0 L 13.0 21.0" fill="none" stroke="#111" stroke-width="1.43" stroke-linecap="round" stroke-linejoin="round"/>
<path d="M 6.0 14.0 L 5.95 14.21 L 5.9 14.43 L 5.87 14.64 L 5.84 14.86 L 5.82 15.07 L 5.81 15.29 L 5.81 15.51 L 5.81 15.73 L 5.83 15.95 L 5.85 16.16 L 5.88 16.38 L 5.92 16.59 L 5.96 16.81 L 6.02 17.02 L 6.08 17.23 L 6.15 17.43 L 6.23 17.64 L 6.32 17.84 L 6.41 18.03 L 6.51 18.23 L 6.62 18.42 L 6.74 18.6 L 6.86 18.78 L 6.99 18.96" fill="none" stroke="#111" stroke-width="1.43" stroke-linecap="round" stroke-linejoin="round"/>
</svg>
