<?xml version="1.0" encoding="UTF-8"?>
<svg xmlns="http://www.w3.org/2000/svg" viewBox="0 0 20.51 21.87">
<path d="M 4.72 4.0 L 5.18 4.08 L 5.63 4.17 L 6.09 4.25 L 6.55 4.33 L 7.01 4.42 L 7.47 4.5 L 7.93 4.58 L 8.38 4.67 L 8.84 4.75 L 9.3 4.83 L 9.76 4.92 L 10.22 5.0 L 10.68 5.08 L 11.13 5.17 L 11.59 5.25 L 12.05 5.33 L 12.51 5.42 L 12.97 5.5 L 13.43 5.58 L 13.88 5.67 L 14.34 5.75 L 14.8 5.83 L 15.26 5.92 L 15.72 6.0 L 15.72 6.0 L 16.05 6.81 L 16.29 7.66 L 16.45 8.53 L 16.51 9.4 L 16.47 10.28 L 16.35 11.15 L 16.13 12.0 L 15.83 12.83 L 15.44 13.62 L 14.97 14.36 L 14.42 15.05 L 13.81 15.68 L 13.13 16.24 L 12.39 16.72 L 11.61 17.13 L 10.79 17.44 L 9.95 17.68 L 9.08 17.82 L 8.2 17.87 L 7.32 17.82 L 6.45 17.68 L 5.6 17.46 L 4.78 17.14 L 4.0 16.74" fill="none" stroke="#111" stroke-width="0.77" stroke-linecap="round" stroke-linejoin="round"/>
<path d="M 8.72 4.0 L 8.72 4.54 L 8.72 5.08 L 8.72 5.62 L 8.72 6.17 L 8.72 6.71 L 8.72 7.25 L 8.72 7.79 L 8.72 8.33 L 8.72 8.88 L 8.72 9.42 L 8.72 9.96 L 8.72 10.5 L 8.72 11.04 L 8.72 11.58 L 8.72 12.12 L 8.72 12.67 L 8.72 13.21 L 8.72 13.75 L 8.72 14.29 L 8.72 14.83 L 8.72 15.38 L 8.72 15.92 L 8.72 16.46 L 8.72 17.0" fill="none" stroke="#111" stroke-width="0.77" stroke-linecap="round" stroke-linejoin="round"/>
</svg>
