<?xml version="1.0" encoding="UTF-8"?>
<svg xmlns="http://www.w3.org/2000/svg" viewBox="0 0 22.00 34.00">
<path d="M 4.0 13.0 L 4.08 13.21 L 4.17 13.42 L 4.25 13.62 L 4.33 13.83 L 4.42 14.04 L 4.5 14.25 L 4.58 14.46 L 4.67 14.67 L 4.75 14.88 L 4.83 15.08 L 4.92 15.29 L 5.0 15.5 L 5.08 15.71 L 5.17 15.92 L 5.25 16.12 L 5.33 16.33 L 5.42 16.54 L 5.5 16.75 L 5.58 16.96 L 5.67 17.17 L 5.75 17.38 L 5.83 17.58 L 5.92 17.79 L 6.0 18.0 L 6.0 18.0 L 5.82 18.35 L 5.65 18.71 L 5.51 19.08 L 5.38 19.46 L 5.27 19.84 L 5.19 20.22 L 5.12 20.61 L 5.07 21.01 L 5.05 21.4 L 5.04 21.8 L 5.05 22.19 L 5.09 22.59 L 5.14 22.98 L 5.21 23.37 L 5.31 23.76 L 5.42 24.14 L 5.55 24.51 L 5.7 24.87 L 5.87 25.23 L 6.06 25.58 L 6.27 25.92 L 6.49 26.25 L 6.73 26.56 L 6.99 26.87" fill="none" stroke="#111" stroke-width="1.19" stroke-linecap="round" stroke-linejoin="round"/>
<path d="M 12.0 4.0 L 11.75 4.25 L 11.5 4.5 L 11.25 4.75 L 11.0 5.0 L 10.75 5.25 L 10.5 5.5 L 10.25 5.75 L 10.0 6.0 L 9.75 6.25 L 9.5 6.5 L 9.25 6.75 L 9.0 7.0 L 8.75 7.25 L 8.5 7.5 L 8.25 7.75 L 8.0 8.0 L 7.75 8.25 L 7.5 8.5 L 7.25 8.75 L 7.0 9.0 L 6.75 9.25 L 6.5 9.5 L 6.25 9.75 L 6.0 10.0" fill="none" stroke="#111" stroke-width="1.19" stroke-linecap="round" stroke-linejoin="round"/>
<path d="M 11.0 5.0 L 11.36 5.39 L 11.68 5.81 L 11.97 6.26 L 12.22 6.72 L 12.44 7.21 L 12.61 7.71 L 12.75 8.22 L 12.84 8.74 L 12.89 9.27 L 12.9 9.8 L 12.87 10.33 L 12.8 10.85 L 12.68 11.37 L 12.53 11.88 L 12.33 12.37 L 12.1 12.85 L 11.82 13.3 L 11.52 13.73 L 11.18 14.14 L 10.8 14.52 L 10.4 14.87 L 9.98 15.18 L 9.53 15.46 L 9.05 15.7 L 9.0 16.0 L 9.08 16.58 L 9.17 17.17 L 9.25 17.75 L 9.33 18.33 L 9.42 18.92 L 9.5 19.5 L 9.58 20.08 L 9.67 20.67 L 9.75 21.25 L 9.83 21.83 L 9.92 22.42 L 10.0 23.0 L 10.08 23.58 L 10.17 24.17 L 10.25 24.75 L 10.33 25.33 L 10.42 25.92 L 10.5 26.5 L 10.58 27.08 L 10.67 27.67 L 10.75 28.25 L 10.83 28.83 L 10.92 29.42 L 11.0 30.0" fill="none" stroke="#111" stroke-width="1.19" stroke-linecap="round" stroke-linejoin="round"/>
<path d="M 9.0 8.0 L 9.33 8.25 L 9.67 8.5 L 10.0 8.75 L 10.33 9.0 L 10.67 9.25 L 11.0 9.5 L 11.33 9.75 L 11.67 10.0 L 12.0 10.25 L 12.33 10.5 L 12.67 10.75 L 13.0 11.0 L 13.33 11.25 L 13.67 11.5 L 14.0 11.75 L 14.33 12.0 L 14.67 12.25 L 15.0 12.5 L 15.33 12.75 L 15.67 13.0 L 16.0 13.25 L 16.33 13.5 L 16.67 13.75 L 17.0 14.0" fill="none" stroke="#111" stroke-width="1.19" stroke-linecap="round" stroke-linejoin="round"/>
<path d="M 9.0 17.0 L 9.25 16.83 L 9.5 16.67 L 9.75 16.5 L 10.0 16.33 L 10.25 16.17 L 10.5 16.0 L 10.75 15.83 L 11.0 15.67 L 11.25 15.5 L 11.5 15.33 L 11.75 15.17 L 12.0 15.0 L 12.25 14.83 L 12.5 14.67 L 12.75 14.5 L 13.0 14.33 L 13.25 14.17 L 13.5 14.0 L 13.75 13.83 L 14.0 13.67 L 14.25 13.5 L 14.5 13.33 L 14.75 13.17 L 15.0 13.0" fill="none" stroke="#111" stroke-width="1.19" stroke-linecap="round" stroke-linejoin="round"/>
<path d="M 12.0 12.0 L 12.25 12.42 L 12.5 12.83 L 12.75 13.25 L 13.0 13.67 L 13.25 14.08 L 13.5 14.5 L 13.75 14.92 L 14.0 15.33 L 14.25 15.75 L 14.5 16.17 L 14.75 16.58 L 15.0 17.0 L 15.25 17.42 L 15.5 17.83 L 15.75 18.25 L 16.0 18.67 L 16.25 19.08 L 16.5 19.5 L 16.75 19.92 L 17.0 20.33 L 17.25 20.75 L 17.5 21.17 L 17.75 21.58 L 18.0 22.0" fill="none" stroke="#111" stroke-width="1.19" stroke-linecap="round" stroke-linejoin="round"/>
<path d="M 10.0 17.0 L 10.21 17.33 L 10.42 17.67 L 10.62 18.0 L 10.83 18.33 L 11.04 18.67 L 11.25 19.0 L 11.46 19.33 L 11.67 19.67 L 11.88 20.0 L 12.08 20.33 L 12.29 20.67 L 12.5 21.0 L 12.71 21.33 L 12.92 21.67 L 13.12 22.0 L 13.33 22.33 L 13.54 22.67 L 13.75 23.0 L 13.96 23.33 L 14.17 23.67 L 14.38 24.0 L 14.58 24.33 L 14.79 24.67 L 15.0 25.0" fill="none" stroke="#111" stroke-width="1.19" stroke-linecap="round" stroke-linejoin="round"/>
</svg>
