<?xml version="1.0" encoding="UTF-8"?>
<svg xmlns="http://www.w3.org/2000/svg" viewBox="0 0 24.00 30.00">
<path d="M 6.0 4.0 L 6.15 4.14 L 6.31 4.28 L 6.46 4.43 L 6.6 4.58 L 6.75 4.73 L 6.89 4.88 L 7.03 5.04 L 7.17 5.19 L 7.3 5.35 L 7.44 5.52 L 7.57 5.68 L 7.69 5.85 L 7.82 6.02 L 7.94 6.19 L 8.06 6.36 L 8.17 6.53 L 8.29 6.71 L 8.4 6.89 L 8.5 7.07 L 8.61 7.25 L 8.71 7.43 L 8.81 7.62 L 8.9 7.8 L 8.99 7.99" fill="none" stroke="#111" stroke-width="1.05" stroke-linecap="round" stroke-linejoin="round"/>
<path d="M 4.0 6.0 L 4.42 6.37 L 4.82 6.76 L 5.18 7.19 L 5.51 7.64 L 5.81 8.11 L 6.07 8.61 L 6.29 9.12 L 6.47 9.65 L 6.62 10.19 L 6.72 10.73 L 6.78 11.29 L 6.81 11.85 L 6.78 12.41 L 6.72 12.96 L 6.62 13.51 L 6.47 14.05 L 6.29 14.58 L 6.07 15.09 L 5.81 15.59 L 5.51 16.06 L 5.18 16.51 L 4.82 16.94 L 4.42 17.33 L 4.0 17.7 L 4.0 18.0 L 4.12 18.29 L 4.25 18.58 L 4.38 18.88 L 4.5 19.17 L 4.62 19.46 L 4.75 19.75 L 4.88 20.04 L 5.0 20.33 L 5.12 20.62 L 5.25 20.92 L 5.38 21.21 L 5.5 21.5 L 5.62 21.79 L 5.75 22.08 L 5.88 22.38 L 6.0 22.67 L 6.12 22.96 L 6.25 23.25 L 6.38 23.54 L 6.5 23.83 L 6.62 24.12 L 6.75 24.42 L 6.88 24.71 L 7.0 25.0" fill="none" stroke="#111" stroke-width="1.05" stroke-linecap="round" stroke-linejoin="round"/>
<path d="M 7.0 16.0 L 7.0 16.12 L 7.0 16.25 L 7.0 16.38 L 7.0 16.5 L 7.0 16.62 L 7.0 16.75 L 7.0 16.88 L 7.0 17.0 L 7.0 17.12 L 7.0 17.25 L 7.0 17.38 L 7.0 17.5 L 7.0 17.62 L 7.0 17.75 L 7.0 17.88 L 7.0 18.0 L 7.0 18.12 L 7.0 18.25 L 7.0 18.38 L 7.0 18.5 L 7.0 18.62 L 7.0 18.75 L 7.0 18.88 L 7.0 19.0" fill="none" stroke="#111" stroke-width="1.05" stroke-linecap="round" stroke-linejoin="round"/>
<path d="M 11.0 9.0 L 11.33 8.96 L 11.67 8.92 L 12.0 8.88 L 12.33 8.83 L 12.67 8.79 L 13.0 8.75 L 13.33 8.71 L 13.67 8.67 L 14.0 8.62 L 14.33 8.58 L 14.67 8.54 L 15.0 8.5 L 15.33 8.46 L 15.67 8.42 L 16.0 8.38 L 16.33 8.33 L 16.67 8.29 L 17.0 8.25 L 17.33 8.21 L 17.67 8.17 L 18.0 8.12 L 18.33 8.08 L 18.67 8.04 L 19.0 8.0 L 19.0 8.0 L 19.0 8.38 L 19.0 8.75 L 19.0 9.12 L 19.0 9.5 L 19.0 9.88 L 19.0 10.25 L 19.0 10.62 L 19.0 11.0 L 19.0 11.38 L 19.0 11.75 L 19.0 12.12 L 19.0 12.5 L 19.0 12.88 L 19.0 13.25 L 19.0 13.62 L 19.0 14.0 L 19.0 14.38 L 19.0 14.75 L 19.0 15.12 L 19.0 15.5 L 19.0 15.88 L 19.0 16.25 L 19.0 16.62 L 19.0 17.0 L 19.0 17.0 L 18.54 17.66 L 17.97 18.24 L 17.31 18.71 L 16.59 19.07 L 15.81 19.3 L 15.01 19.39 L 14.2 19.35 L 13.41 19.17 L 12.66 18.86 L 11.98 18.43 L 11.37 17.9 L 10.87 17.26 L 10.48 16.55 L 10.21 15.79 L 10.08 14.99 L 10.08 14.18 L 10.22 13.39 L 10.49 12.62 L 10.89 11.92 L 11.4 11.29 L 12.01 10.75 L 12.7 10.33 L 13.45 10.03 L 14.24 9.86" fill="none" stroke="#111" stroke-width="1.05" stroke-linecap="round" stroke-linejoin="round"/>
<path d="M 14.0 21.0 L 14.0 21.21 L 14.0 21.42 L 14.0 21.62 L 14.0 21.83 L 14.0 22.04 L 14.0 22.25 L 14.0 22.46 L 14.0 22.67 L 14.0 22.88 L 14.0 23.08 L 14.0 23.29 L 14.0 23.5 L 14.0 23.71 L 14.0 23.92 L 14.0 24.12 L 14.0 24.33 L 14.0 24.54 L 14.0 24.75 L 14.0 24.96 L 14.0 25.17 L 14.0 25.38 L 14.0 25.58 L 14.0 25.79 L 14.0 26.0" fill="none" stroke="#111" stroke-width="1.05" stroke-linecap="round" stroke-linejoin="round"/>
<path d="M 20.0 19.0 L 20.0 19.17 L 20.0 19.33 L 20.0 19.5 L 20.0 19.67 L 20.0 19.83 L 20.0 20.0 L 20.0 20.17 L 20.0 20.33 L 20.0 20.5 L 20.0 20.67 L 20.0 20.83 L 20.0 21.0 L 20.0 21.17 L 20.0 21.33 L 20.0 21.5 L 20.0 21.67 L 20.0 21.83 L 20.0 22.0 L 20.0 22.17 L 20.0 22.33 L 20.0 22.5 L 20.0 22.67 L 20.0 22.83 L 20.0 23.0" fill="none" stroke="#111" stroke-width="1.05" stroke-linecap="round" stroke-linejoin="round"/>
</svg>
