<?xml version="1.0" encoding="UTF-8"?>
<svg xmlns="http://www.w3.org/2000/svg" viewBox="0 0 18.99 35.99">
<path d="M 4.99 13.0 L 5.2 13.0 L 5.41 13.0 L 5.62 13.0 L 5.83 13.0 L 6.03 13.0 L 6.24 13.0 L 6.45 13.0 L 6.66 13.0 L 6.87 13.0 L 7.08 13.0 L 7.28 13.0 L 7.49 13.0 L 7.7 13.0 L 7.91 13.0 L 8.12 13.0 L 8.33 13.0 L 8.53 13.0 L 8.74 13.0 L 8.95 13.0 L 9.16 13.0 L 9.37 13.0 L 9.58 13.0 L 9.78 13.0 L 9.99 13.0" fill="none" stroke="#111" stroke-width="1.26" stroke-linecap="round" stroke-linejoin="round"/>
<path d="M 4.99 15.0 L 5.24 15.04 L 5.49 15.08 L 5.74 15.12 L 5.99 15.17 L 6.24 15.21 L 6.49 15.25 L 6.74 15.29 L 6.99 15.33 L 7.24 15.38 L 7.49 15.42 L 7.74 15.46 L 7.99 15.5 L 8.24 15.54 L 8.49 15.58 L 8.74 15.62 L 8.99 15.67 L 9.24 15.71 L 9.49 15.75 L 9.74 15.79 L 9.99 15.83 L 10.24 15.88 L 10.49 15.92 L 10.74 15.96 L 10.99 16.0" fill="none" stroke="#111" stroke-width="1.26" stroke-linecap="round" stroke-linejoin="round"/>
<path d="M 5.99 13.0 L 6.03 13.08 L 6.08 13.17 L 6.12 13.25 L 6.16 13.33 L 6.2 13.42 L 6.24 13.5 L 6.28 13.58 L 6.33 13.67 L 6.37 13.75 L 6.41 13.83 L 6.45 13.92 L 6.49 14.0 L 6.53 14.08 L 6.58 14.17 L 6.62 14.25 L 6.66 14.33 L 6.7 14.42 L 6.74 14.5 L 6.78 14.58 L 6.83 14.67 L 6.87 14.75 L 6.91 14.83 L 6.95 14.92 L 6.99 15.0" fill="none" stroke="#111" stroke-width="1.26" stroke-linecap="round" stroke-linejoin="round"/>
<path d="M 8.99 13.0 L 8.95 13.08 L 8.91 13.17 L 8.87 13.25 L 8.83 13.33 L 8.78 13.42 L 8.74 13.5 L 8.7 13.58 L 8.66 13.67 L 8.62 13.75 L 8.58 13.83 L 8.53 13.92 L 8.49 14.0 L 8.45 14.08 L 8.41 14.17 L 8.37 14.25 L 8.33 14.33 L 8.28 14.42 L 8.24 14.5 L 8.2 14.58 L 8.16 14.67 L 8.12 14.75 L 8.08 14.83 L 8.03 14.92 L 7.99 15.0" fill="none" stroke="#111" stroke-width="1.26" stroke-linecap="round" stroke-linejoin="round"/>
<path d="M 5.99 15.0 L 6.16 15.26 L 6.31 15.53 L 6.44 15.81 L 6.56 16.1 L 6.65 16.39 L 6.73 16.69 L 6.79 16.99 L 6.84 17.3 L 6.86 17.6 L 6.86 17.91 L 6.85 18.22 L 6.81 18.53 L 6.76 18.83 L 6.69 19.13 L 6.6 19.43 L 6.49 19.72 L 6.36 20.0 L 6.22 20.27 L 6.06 20.54 L 5.89 20.79 L 5.69 21.03 L 5.49 21.26 L 5.27 21.48 L 5.04 21.69 L 4.99 22.0 L 5.24 22.0 L 5.49 22.0 L 5.74 22.0 L 5.99 22.0 L 6.24 22.0 L 6.49 22.0 L 6.74 22.0 L 6.99 22.0 L 7.24 22.0 L 7.49 22.0 L 7.74 22.0 L 7.99 22.0 L 8.24 22.0 L 8.49 22.0 L 8.74 22.0 L 8.99 22.0 L 9.24 22.0 L 9.49 22.0 L 9.74 22.0 L 9.99 22.0 L 10.24 22.0 L 10.49 22.0 L 10.74 22.0 L 10.99 22.0 L 10.99 22.0 L 10.73 21.87 L 10.49 21.72 L 10.25 21.55 L 10.03 21.36 L 9.83 21.15 L 9.64 20.93 L 9.48 20.69 L 9.33 20.44 L 9.2 20.18 L 9.1 19.91 L 9.02 19.64 L 8.96 19.35 L 8.92 19.07 L 8.91 18.78 L 8.92 18.49 L 8.96 18.2 L 9.01 17.92 L 9.1 17.64 L 9.2 17.37 L 9.32 17.11 L 9.47 16.86 L 9.64 16.62 L 9.82 16.4 L 10.02 16.19" fill="none" stroke="#111" stroke-width="1.26" stroke-linecap="round" stroke-linejoin="round"/>
<path d="M 7.99 22.0 L 7.95 22.12 L 7.91 22.25 L 7.87 22.38 L 7.83 22.5 L 7.78 22.62 L 7.74 22.75 L 7.7 22.88 L 7.66 23.0 L 7.62 23.12 L 7.58 23.25 L 7.53 23.38 L 7.49 23.5 L 7.45 23.62 L 7.41 23.75 L 7.37 23.88 L 7.33 24.0 L 7.28 24.12 L 7.24 24.25 L 7.2 24.38 L 7.16 24.5 L 7.12 24.62 L 7.08 24.75 L 7.03 24.88 L 6.99 25.0" fill="none" stroke="#111" stroke-width="1.26" stroke-linecap="round" stroke-linejoin="round"/>
<path d="M 8.99 22.0 L 9.03 22.12 L 9.08 22.25 L 9.12 22.38 L 9.16 22.5 L 9.2 22.62 L 9.24 22.75 L 9.28 22.88 L 9.33 23.0 L 9.37 23.12 L 9.41 23.25 L 9.45 23.38 L 9.49 23.5 L 9.53 23.62 L 9.58 23.75 L 9.62 23.88 L 9.66 24.0 L 9.7 24.12 L 9.74 24.25 L 9.78 24.38 L 9.83 24.5 L 9.87 24.62 L 9.91 24.75 L 9.95 24.88 L 9.99 25.0" fill="none" stroke="#111" stroke-width="1.26" stroke-linecap="round" stroke-linejoin="round"/>
<path d="M 4.99 24.0 L 5.24 24.0 L 5.49 24.0 L 5.74 24.0 L 5.99 24.0 L 6.24 24.0 L 6.49 24.0 L 6.74 24.0 L 6.99 24.0 L 7.24 24.0 L 7.49 24.0 L 7.74 24.0 L 7.99 24.0 L 8.24 24.0 L 8.49 24.0 L 8.74 24.0 L 8.99 24.0 L 9.24 24.0 L 9.49 24.0 L 9.74 24.0 L 9.99 24.0 L 10.24 24.0 L 10.49 24.0 L 10.74 24.0 L 10.99 24.0" fill="none" stroke="#111" stroke-width="1.26" stroke-linecap="round" stroke-linejoin="round"/>
<path d="M 9.99 29.0 L 9.95 28.83 L 9.91 28.67 L 9.87 28.5 L 9.83 28.33 L 9.78 28.17 L 9.74 28.0 L 9.7 27.83 L 9.66 27.67 L 9.62 27.5 L 9.58 27.33 L 9.53 27.17 L 9.49 27.0 L 9.45 26.83 L 9.41 26.67 L 9.37 26.5 L 9.33 26.33 L 9.28 26.17 L 9.24 26.0 L 9.2 25.83 L 9.16 25.67 L 9.12 25.5 L 9.08 25.33 L 9.03 25.17 L 8.99 25.0 L 8.99 25.0 L 8.81 25.14 L 8.64 25.29 L 8.48 25.44 L 8.33 25.61 L 8.19 25.79 L 8.06 25.97 L 7.95 26.17 L 7.84 26.37 L 7.75 26.57 L 7.67 26.79 L 7.61 27.0 L 7.56 27.22 L 7.52 27.44 L 7.5 27.67 L 7.49 27.89 L 7.49 28.12 L 7.51 28.34 L 7.55 28.57 L 7.59 28.79 L 7.65 29.01 L 7.73 29.22 L 7.81 29.43 L 7.91 29.63 L 8.03 29.82" fill="none" stroke="#111" stroke-width="1.26" stroke-linecap="round" stroke-linejoin="round"/>
<path d="M 8.99 26.0 L 8.74 26.21 L 8.49 26.42 L 8.24 26.63 L 8.0 26.85 L 7.76 27.08 L 7.53 27.31 L 7.3 27.54 L 7.07 27.77 L 6.85 28.01 L 6.63 28.25 L 6.41 28.5 L 6.2 28.75 L 5.99 29.0 L 5.79 29.26 L 5.59 29.52 L 5.4 29.78 L 5.21 30.05 L 5.02 30.32 L 4.84 30.59 L 4.66 30.86 L 4.49 31.14 L 4.32 31.42 L 4.16 31.7 L 4.0 31.99" fill="none" stroke="#111" stroke-width="1.26" stroke-linecap="round" stroke-linejoin="round"/>
<path d="M 8.99 6.0 L 9.41 5.97 L 9.82 5.97 L 10.23 6.02 L 10.64 6.11 L 11.03 6.24 L 11.41 6.4 L 11.77 6.61 L 12.11 6.84 L 12.43 7.11 L 12.71 7.41 L 12.97 7.74 L 13.19 8.09 L 13.38 8.46 L 13.53 8.84 L 13.64 9.24 L 13.72 9.65 L 13.75 10.06 L 13.74 10.48 L 13.69 10.89 L 13.6 11.3 L 13.47 11.69 L 13.3 12.07 L 13.1 12.43 L 12.86 12.77" fill="none" stroke="#111" stroke-width="1.26" stroke-linecap="round" stroke-linejoin="round"/>
<path d="M 10.99 7.0 L 10.77 7.23 L 10.56 7.48 L 10.38 7.75 L 10.23 8.03 L 10.11 8.33 L 10.01 8.63 L 9.94 8.95 L 9.91 9.27 L 9.9 9.59 L 9.93 9.91 L 9.99 10.23 L 10.07 10.54 L 10.19 10.84 L 10.34 11.13 L 10.51 11.4 L 10.7 11.65 L 10.92 11.89 L 11.17 12.1 L 11.43 12.29 L 11.7 12.45 L 12.0 12.59 L 12.3 12.69 L 12.61 12.77 L 12.93 12.82" fill="none" stroke="#111" stroke-width="1.26" stroke-linecap="round" stroke-linejoin="round"/>
<path d="M 12.99 14.0 L 13.08 14.25 L 13.16 14.5 L 13.24 14.75 L 13.33 15.0 L 13.41 15.25 L 13.49 15.5 L 13.58 15.75 L 13.66 16.0 L 13.74 16.25 L 13.83 16.5 L 13.91 16.75 L 13.99 17.0 L 14.08 17.25 L 14.16 17.5 L 14.24 17.75 L 14.33 18.0 L 14.41 18.25 L 14.49 18.5 L 14.58 18.75 L 14.66 19.0 L 14.74 19.25 L 14.83 19.5 L 14.91 19.75 L 14.99 20.0" fill="none" stroke="#111" stroke-width="1.26" stroke-linecap="round" stroke-linejoin="round"/>
<path d="M 8.99 4.0 L 8.83 4.29 L 8.66 4.58 L 8.49 4.88 L 8.33 5.17 L 8.16 5.46 L 7.99 5.75 L 7.83 6.04 L 7.66 6.33 L 7.49 6.62 L 7.33 6.92 L 7.16 7.21 L 6.99 7.5 L 6.83 7.79 L 6.66 8.08 L 6.49 8.38 L 6.33 8.67 L 6.16 8.96 L 5.99 9.25 L 5.83 9.54 L 5.66 9.83 L 5.49 10.12 L 5.33 10.42 L 5.16 10.71 L 4.99 11.0" fill="none" stroke="#111" stroke-width="1.26" stroke-linecap="round" stroke-linejoin="round"/>
</svg>
