<?xml version="1.0" encoding="UTF-8"?>
<svg xmlns="http://www.w3.org/2000/svg" viewBox="0 0 23.00 34.00">
<path d="M 4.0 10.0 L 4.63 9.96 L 5.25 9.92 L 5.88 9.88 L 6.5 9.83 L 7.12 9.79 L 7.75 9.75 L 8.38 9.71 L 9.0 9.67 L 9.62 9.62 L 10.25 9.58 L 10.88 9.54 L 11.5 9.5 L 12.12 9.46 L 12.75 9.42 L 13.38 9.38 L 14.0 9.33 L 14.62 9.29 L 15.25 9.25 L 15.88 9.21 L 16.5 9.17 L 17.12 9.12 L 17.75 9.08 L 18.38 9.04 L 19.0 9.0" fill="none" stroke="#111" stroke-width="1.19" stroke-linecap="round" stroke-linejoin="round"/>
<path d="M 16.0 4.0 L 14.91 4.43 L 13.87 4.96 L 12.88 5.59 L 11.96 6.31 L 11.12 7.12 L 10.35 8.0 L 9.67 8.96 L 9.09 9.97 L 8.62 11.04 L 8.24 12.15 L 7.98 13.29 L 7.82 14.45 L 7.78 15.61 L 7.86 16.78 L 8.04 17.94 L 8.34 19.07 L 8.74 20.17 L 9.25 21.22 L 9.86 22.22 L 10.56 23.15 L 11.35 24.02 L 12.22 24.8 L 13.16 25.5 L 14.16 26.1" fill="none" stroke="#111" stroke-width="1.19" stroke-linecap="round" stroke-linejoin="round"/>
<path d="M 7.0 12.0 L 7.44 12.46 L 7.85 12.94 L 8.22 13.46 L 8.56 13.99 L 8.87 14.55 L 9.13 15.13 L 9.36 15.72 L 9.55 16.33 L 9.7 16.95 L 9.8 17.57 L 9.86 18.21 L 9.89 18.84 L 9.86 19.48 L 9.8 20.11 L 9.7 20.74 L 9.55 21.35 L 9.36 21.96 L 9.13 22.55 L 8.87 23.13 L 8.56 23.69 L 8.22 24.23 L 7.85 24.74 L 7.44 25.22 L 7.0 25.68" fill="none" stroke="#111" stroke-width="1.19" stroke-linecap="round" stroke-linejoin="round"/>
<path d="M 11.0 30.0 L 11.29 29.83 L 11.58 29.67 L 11.88 29.5 L 12.17 29.33 L 12.46 29.17 L 12.75 29.0 L 13.04 28.83 L 13.33 28.67 L 13.62 28.5 L 13.92 28.33 L 14.21 28.17 L 14.5 28.0 L 14.79 27.83 L 15.08 27.67 L 15.38 27.5 L 15.67 27.33 L 15.96 27.17 L 16.25 27.0 L 16.54 26.83 L 16.83 26.67 L 17.12 26.5 L 17.42 26.33 L 17.71 26.17 L 18.0 26.0" fill="none" stroke="#111" stroke-width="1.19" stroke-linecap="round" stroke-linejoin="round"/>
<path d="M 7.0 13.0 L 6.88 13.42 L 6.75 13.83 L 6.63 14.25 L 6.5 14.67 L 6.38 15.08 L 6.25 15.5 L 6.12 15.92 L 6.0 16.33 L 5.88 16.75 L 5.75 17.17 L 5.63 17.58 L 5.5 18.0 L 5.38 18.42 L 5.25 18.83 L 5.12 19.25 L 5.0 19.67 L 4.88 20.08 L 4.75 20.5 L 4.63 20.92 L 4.5 21.33 L 4.38 21.75 L 4.25 22.17 L 4.12 22.58 L 4.0 23.0" fill="none" stroke="#111" stroke-width="1.19" stroke-linecap="round" stroke-linejoin="round"/>
<path d="M 6.0 17.0 L 6.08 17.21 L 6.17 17.42 L 6.25 17.62 L 6.33 17.83 L 6.42 18.04 L 6.5 18.25 L 6.58 18.46 L 6.67 18.67 L 6.75 18.88 L 6.83 19.08 L 6.92 19.29 L 7.0 19.5 L 7.08 19.71 L 7.17 19.92 L 7.25 20.12 L 7.33 20.33 L 7.42 20.54 L 7.5 20.75 L 7.58 20.96 L 7.67 21.17 L 7.75 21.38 L 7.83 21.58 L 7.92 21.79 L 8.0 22.0" fill="none" stroke="#111" stroke-width="1.19" stroke-linecap="round" stroke-linejoin="round"/>
</svg>
