<?xml version="1.0" encoding="UTF-8"?>
<svg xmlns="http://www.w3.org/2000/svg" viewBox="0 0 32.00 36.00">
<path d="M 17.0 6.0 L 16.75 6.29 L 16.5 6.58 L 16.25 6.88 L 16.0 7.17 L 15.75 7.46 L 15.5 7.75 L 15.25 8.04 L 15.0 8.33 L 14.75 8.62 L 14.5 8.92 L 14.25 9.21 L 14.0 9.5 L 13.75 9.79 L 13.5 10.08 L 13.25 10.38 L 13.0 10.67 L 12.75 10.96 L 12.5 11.25 L 12.25 11.54 L 12.0 11.83 L 11.75 12.12 L 11.5 12.42 L 11.25 12.71 L 11.0 13.0" fill="none" stroke="#111" stroke-width="1.26" stroke-linecap="round" stroke-linejoin="round"/>
<path d="M 15.0 8.0 L 15.47 8.41 L 15.89 8.86 L 16.27 9.35 L 16.59 9.88 L 16.85 10.44 L 17.06 11.03 L 17.2 11.64 L 17.27 12.25 L 17.29 12.87 L 17.23 13.49 L 17.12 14.1 L 16.93 14.69 L 16.69 15.26 L 16.39 15.81 L 16.03 16.31 L 15.63 16.78 L 15.17 17.21 L 14.68 17.58 L 14.14 17.9 L 13.58 18.16 L 12.99 18.36 L 12.39 18.5 L 11.77 18.57 L 11.15 18.58 L 11.0 19.0 L 11.04 19.25 L 11.08 19.5 L 11.12 19.75 L 11.17 20.0 L 11.21 20.25 L 11.25 20.5 L 11.29 20.75 L 11.33 21.0 L 11.38 21.25 L 11.42 21.5 L 11.46 21.75 L 11.5 22.0 L 11.54 22.25 L 11.58 22.5 L 11.62 22.75 L 11.67 23.0 L 11.71 23.25 L 11.75 23.5 L 11.79 23.75 L 11.83 24.0 L 11.88 24.25 L 11.92 24.5 L 11.96 24.75 L 12.0 25.0 L 12.0 25.0 L 12.33 25.21 L 12.67 25.42 L 13.0 25.62 L 13.33 25.83 L 13.67 26.04 L 14.0 26.25 L 14.33 26.46 L 14.67 26.67 L 15.0 26.88 L 15.33 27.08 L 15.67 27.29 L 16.0 27.5 L 16.33 27.71 L 16.67 27.92 L 17.0 28.12 L 17.33 28.33 L 17.67 28.54 L 18.0 28.75 L 18.33 28.96 L 18.67 29.17 L 19.0 29.38 L 19.33 29.58 L 19.67 29.79 L 20.0 30.0" fill="none" stroke="#111" stroke-width="1.26" stroke-linecap="round" stroke-linejoin="round"/>
<path d="M 13.0 11.0 L 13.33 11.33 L 13.67 11.67 L 14.0 12.0 L 14.33 12.33 L 14.67 12.67 L 15.0 13.0 L 15.33 13.33 L 15.67 13.67 L 16.0 14.0 L 16.33 14.33 L 16.67 14.67 L 17.0 15.0 L 17.33 15.33 L 17.67 15.67 L 18.0 16.0 L 18.33 16.33 L 18.67 16.67 L 19.0 17.0 L 19.33 17.33 L 19.67 17.67 L 20.0 18.0 L 20.33 18.33 L 20.67 18.67 L 21.0 19.0" fill="none" stroke="#111" stroke-width="1.26" stroke-linecap="round" stroke-linejoin="round"/>
<path d="M 12.0 18.0 L 12.29 18.25 L 12.58 18.5 L 12.88 18.75 L 13.17 19.0 L 13.46 19.25 L 13.75 19.5 L 14.04 19.75 L 14.33 20.0 L 14.62 20.25 L 14.92 20.5 L 15.21 20.75 L 15.5 21.0 L 15.79 21.25 L 16.08 21.5 L 16.38 21.75 L 16.67 22.0 L 16.96 22.25 L 17.25 22.5 L 17.54 22.75 L 17.83 23.0 L 18.12 23.25 L 18.42 23.5 L 18.71 23.75 L 19.0 24.0" fill="none" stroke="#111" stroke-width="1.26" stroke-linecap="round" stroke-linejoin="round"/>
<path d="M 15.0 27.0 L 14.92 27.21 L 14.83 27.42 L 14.75 27.62 L 14.67 27.83 L 14.58 28.04 L 14.5 28.25 L 14.42 28.46 L 14.33 28.67 L 14.25 28.88 L 14.17 29.08 L 14.08 29.29 L 14.0 29.5 L 13.92 29.71 L 13.83 29.92 L 13.75 30.12 L 13.67 30.33 L 13.58 30.54 L 13.5 30.75 L 13.42 30.96 L 13.33 31.17 L 13.25 31.38 L 13.17 31.58 L 13.08 31.79 L 13.0 32.0" fill="none" stroke="#111" stroke-width="1.26" stroke-linecap="round" stroke-linejoin="round"/>
<path d="M 7.0 7.0 L 7.0 7.67 L 7.0 8.33 L 7.0 9.0 L 7.0 9.67 L 7.0 10.33 L 7.0 11.0 L 7.0 11.67 L 7.0 12.33 L 7.0 13.0 L 7.0 13.67 L 7.0 14.33 L 7.0 15.0 L 7.0 15.67 L 7.0 16.33 L 7.0 17.0 L 7.0 17.67 L 7.0 18.33 L 7.0 19.0 L 7.0 19.67 L 7.0 20.33 L 7.0 21.0 L 7.0 21.67 L 7.0 22.33 L 7.0 23.0" fill="none" stroke="#111" stroke-width="1.26" stroke-linecap="round" stroke-linejoin="round"/>
<path d="M 4.0 10.0 L 4.12 10.12 L 4.25 10.25 L 4.38 10.38 L 4.5 10.5 L 4.62 10.62 L 4.75 10.75 L 4.88 10.88 L 5.0 11.0 L 5.12 11.12 L 5.25 11.25 L 5.38 11.38 L 5.5 11.5 L 5.62 11.62 L 5.75 11.75 L 5.88 11.88 L 6.0 12.0 L 6.12 12.12 L 6.25 12.25 L 6.38 12.38 L 6.5 12.5 L 6.62 12.62 L 6.75 12.75 L 6.88 12.88 L 7.0 13.0" fill="none" stroke="#111" stroke-width="1.26" stroke-linecap="round" stroke-linejoin="round"/>
<path d="M 11.0 9.0 L 10.83 9.17 L 10.67 9.33 L 10.5 9.5 L 10.33 9.67 L 10.17 9.83 L 10.0 10.0 L 9.83 10.17 L 9.67 10.33 L 9.5 10.5 L 9.33 10.67 L 9.17 10.83 L 9.0 11.0 L 8.83 11.17 L 8.67 11.33 L 8.5 11.5 L 8.33 11.67 L 8.17 11.83 L 8.0 12.0 L 7.83 12.17 L 7.67 12.33 L 7.5 12.5 L 7.33 12.67 L 7.17 12.83 L 7.0 13.0" fill="none" stroke="#111" stroke-width="1.26" stroke-linecap="round" stroke-linejoin="round"/>
<path d="M 7.0 17.0 L 6.88 17.17 L 6.75 17.33 L 6.62 17.5 L 6.5 17.67 L 6.38 17.83 L 6.25 18.0 L 6.12 18.17 L 6.0 18.33 L 5.88 18.5 L 5.75 18.67 L 5.62 18.83 L 5.5 19.0 L 5.38 19.17 L 5.25 19.33 L 5.12 19.5 L 5.0 19.67 L 4.88 19.83 L 4.75 20.0 L 4.62 20.17 L 4.5 20.33 L 4.38 20.5 L 4.25 20.67 L 4.12 20.83 L 4.0 21.0" fill="none" stroke="#111" stroke-width="1.26" stroke-linecap="round" stroke-linejoin="round"/>
<path d="M 7.0 17.0 L 7.12 17.12 L 7.25 17.25 L 7.38 17.38 L 7.5 17.5 L 7.62 17.62 L 7.75 17.75 L 7.88 17.88 L 8.0 18.0 L 8.12 18.12 L 8.25 18.25 L 8.38 18.38 L 8.5 18.5 L 8.62 18.62 L 8.75 18.75 L 8.88 18.88 L 9.0 19.0 L 9.12 19.12 L 9.25 19.25 L 9.38 19.38 L 9.5 19.5 L 9.62 19.62 L 9.75 19.75 L 9.88 19.88 L 10.0 20.0" fill="none" stroke="#111" stroke-width="1.26" stroke-linecap="round" stroke-linejoin="round"/>
<path d="M 23.0 4.0 L 23.0 4.88 L 23.0 5.75 L 23.0 6.62 L 23.0 7.5 L 23.0 8.38 L 23.0 9.25 L 23.0 10.12 L 23.0 11.0 L 23.0 11.88 L 23.0 12.75 L 23.0 13.62 L 23.0 14.5 L 23.0 15.38 L 23.0 16.25 L 23.0 17.12 L 23.0 18.0 L 23.0 18.88 L 23.0 19.75 L 23.0 20.62 L 23.0 21.5 L 23.0 22.38 L 23.0 23.25 L 23.0 24.12 L 23.0 25.0" fill="none" stroke="#111" stroke-width="1.26" stroke-linecap="round" stroke-linejoin="round"/>
<path d="M 18.0 5.0 L 18.21 5.17 L 18.42 5.33 L 18.62 5.5 L 18.83 5.67 L 19.04 5.83 L 19.25 6.0 L 19.46 6.17 L 19.67 6.33 L 19.88 6.5 L 20.08 6.67 L 20.29 6.83 L 20.5 7.0 L 20.71 7.17 L 20.92 7.33 L 21.12 7.5 L 21.33 7.67 L 21.54 7.83 L 21.75 8.0 L 21.96 8.17 L 22.17 8.33 L 22.38 8.5 L 22.58 8.67 L 22.79 8.83 L 23.0 9.0" fill="none" stroke="#111" stroke-width="1.26" stroke-linecap="round" stroke-linejoin="round"/>
<path d="M 28.0 4.0 L 27.79 4.21 L 27.58 4.42 L 27.38 4.62 L 27.17 4.83 L 26.96 5.04 L 26.75 5.25 L 26.54 5.46 L 26.33 5.67 L 26.12 5.88 L 25.92 6.08 L 25.71 6.29 L 25.5 6.5 L 25.29 6.71 L 25.08 6.92 L 24.88 7.12 L 24.67 7.33 L 24.46 7.54 L 24.25 7.75 L 24.04 7.96 L 23.83 8.17 L 23.62 8.38 L 23.42 8.58 L 23.21 8.79 L 23.0 9.0" fill="none" stroke="#111" stroke-width="1.26" stroke-linecap="round" stroke-linejoin="round"/>
<path d="M 23.0 9.0 L 22.88 9.25 L 22.75 9.5 L 22.62 9.75 L 22.5 10.0 L 22.38 10.25 L 22.25 10.5 L 22.12 10.75 L 22.0 11.0 L 21.88 11.25 L 21.75 11.5 L 21.62 11.75 L 21.5 12.0 L 21.38 12.25 L 21.25 12.5 L 21.12 12.75 L 21.0 13.0 L 20.88 13.25 L 20.75 13.5 L 20.62 13.75 L 20.5 14.0 L 20.38 14.25 L 20.25 14.5 L 20.12 14.75 L 20.0 15.0" fill="none" stroke="#111" stroke-width="1.26" stroke-linecap="round" stroke-linejoin="round"/>
<path d="M 23.0 9.0 L 23.12 9.25 L 23.25 9.5 L 23.38 9.75 L 23.5 10.0 L 23.62 10.25 L 23.75 10.5 L 23.88 10.75 L 24.0 11.0 L 24.12 11.25 L 24.25 11.5 L 24.38 11.75 L 24.5 12.0 L 24.62 12.25 L 24.75 12.5 L 24.88 12.75 L 25.0 13.0 L 25.12 13.25 L 25.25 13.5 L 25.38 13.75 L 25.5 14.0 L 25.62 14.25 L 25.75 14.5 L 25.88 14.75 L 26.0 15.0" fill="none" stroke="#111" stroke-width="1.26" stroke-linecap="round" stroke-linejoin="round"/>
</svg>
