<?xml version="1.0" encoding="UTF-8"?>
<svg xmlns="http://www.w3.org/2000/svg" viewBox="0 0 17.07 34.67">
<path d="M 13.0 4.0 L 12.83 4.21 L 12.67 4.42 L 12.5 4.62 L 12.33 4.83 L 12.17 5.04 L 12.0 5.25 L 11.83 5.46 L 11.67 5.67 L 11.5 5.88 L 11.33 6.08 L 11.17 6.29 L 11.0 6.5 L 10.83 6.71 L 10.67 6.92 L 10.5 7.12 L 10.33 7.33 L 10.17 7.54 L 10.0 7.75 L 9.83 7.96 L 9.67 8.17 L 9.5 8.38 L 9.33 8.58 L 9.17 8.79 L 9.0 9.0 L 9.0 9.0 L 9.04 9.25 L 9.08 9.5 L 9.12 9.75 L 9.17 10.0 L 9.21 10.25 L 9.25 10.5 L 9.29 10.75 L 9.33 11.0 L 9.37 11.25 L 9.42 11.5 L 9.46 11.75 L 9.5 12.0 L 9.54 12.25 L 9.58 12.5 L 9.62 12.75 L 9.67 13.0 L 9.71 13.25 L 9.75 13.5 L 9.79 13.75 L 9.83 14.0 L 9.87 14.25 L 9.92 14.5 L 9.96 14.75 L 10.0 15.0 L 10.0 15.0 L 10.6 15.58 L 11.14 16.2 L 11.62 16.88 L 12.03 17.59 L 12.39 18.34 L 12.67 19.12 L 12.88 19.92 L 13.01 20.74 L 13.07 21.56 L 13.06 22.39 L 12.97 23.21 L 12.81 24.03 L 12.57 24.82 L 12.26 25.59 L 11.88 26.32 L 11.44 27.02 L 10.94 27.68 L 10.38 28.29 L 9.76 28.84 L 9.1 29.34 L 8.39 29.77 L 7.65 30.14 L 6.88 30.44 L 6.08 30.67" fill="none" stroke="#111" stroke-width="1.21" stroke-linecap="round" stroke-linejoin="round"/>
<path d="M 10.0 16.0 L 9.75 16.46 L 9.5 16.92 L 9.25 17.38 L 9.0 17.83 L 8.75 18.29 L 8.5 18.75 L 8.25 19.21 L 8.0 19.67 L 7.75 20.12 L 7.5 20.58 L 7.25 21.04 L 7.0 21.5 L 6.75 21.96 L 6.5 22.42 L 6.25 22.88 L 6.0 23.33 L 5.75 23.79 L 5.5 24.25 L 5.25 24.71 L 5.0 25.17 L 4.75 25.62 L 4.5 26.08 L 4.25 26.54 L 4.0 27.0" fill="none" stroke="#111" stroke-width="1.21" stroke-linecap="round" stroke-linejoin="round"/>
</svg>
