<?xml version="1.0" encoding="UTF-8"?>
<svg xmlns="http://www.w3.org/2000/svg" viewBox="0 0 23.44 30.00">
<path d="M 4.0 12.0 L 4.45 10.72 L 5.16 9.56 L 6.1 8.58 L 7.23 7.82 L 8.49 7.32 L 9.82 7.09 L 11.18 7.15 L 12.49 7.49 L 13.7 8.1 L 14.76 8.96 L 15.61 10.01 L 16.22 11.23 L 16.56 12.54 L 16.61 13.9 L 16.38 15.24 L 15.87 16.49 L 15.11 17.62 L 14.12 18.55 L 12.96 19.26 L 11.68 19.71 L 10.34 19.87 L 8.98 19.75 L 7.69 19.35 L 6.51 18.68" fill="none" stroke="#111" stroke-width="1.05" stroke-linecap="round" stroke-linejoin="round"/>
<path d="M 4.0 26.0 L 4.25 25.71 L 4.5 25.42 L 4.75 25.12 L 5.0 24.83 L 5.25 24.54 L 5.5 24.25 L 5.75 23.96 L 6.0 23.67 L 6.25 23.38 L 6.5 23.08 L 6.75 22.79 L 7.0 22.5 L 7.25 22.21 L 7.5 21.92 L 7.75 21.62 L 8.0 21.33 L 8.25 21.04 L 8.5 20.75 L 8.75 20.46 L 9.0 20.17 L 9.25 19.88 L 9.5 19.58 L 9.75 19.29 L 10.0 19.0 L 10.0 19.0 L 10.21 19.25 L 10.42 19.5 L 10.62 19.75 L 10.83 20.0 L 11.04 20.25 L 11.25 20.5 L 11.46 20.75 L 11.67 21.0 L 11.88 21.25 L 12.08 21.5 L 12.29 21.75 L 12.5 22.0 L 12.71 22.25 L 12.92 22.5 L 13.12 22.75 L 13.33 23.0 L 13.54 23.25 L 13.75 23.5 L 13.96 23.75 L 14.17 24.0 L 14.38 24.25 L 14.58 24.5 L 14.79 24.75 L 15.0 25.0" fill="none" stroke="#111" stroke-width="1.05" stroke-linecap="round" stroke-linejoin="round"/>
<path d="M 7.0 12.0 L 7.17 12.17 L 7.33 12.33 L 7.5 12.5 L 7.67 12.67 L 7.83 12.83 L 8.0 13.0 L 8.17 13.17 L 8.33 13.33 L 8.5 13.5 L 8.67 13.67 L 8.83 13.83 L 9.0 14.0 L 9.17 14.17 L 9.33 14.33 L 9.5 14.5 L 9.67 14.67 L 9.83 14.83 L 10.0 15.0 L 10.17 15.17 L 10.33 15.33 L 10.5 15.5 L 10.67 15.67 L 10.83 15.83 L 11.0 16.0" fill="none" stroke="#111" stroke-width="1.05" stroke-linecap="round" stroke-linejoin="round"/>
<path d="M 15.0 4.0 L 14.83 4.25 L 14.67 4.5 L 14.5 4.75 L 14.33 5.0 L 14.17 5.25 L 14.0 5.5 L 13.83 5.75 L 13.67 6.0 L 13.5 6.25 L 13.33 6.5 L 13.17 6.75 L 13.0 7.0 L 12.83 7.25 L 12.67 7.5 L 12.5 7.75 L 12.33 8.0 L 12.17 8.25 L 12.0 8.5 L 11.83 8.75 L 11.67 9.0 L 11.5 9.25 L 11.33 9.5 L 11.17 9.75 L 11.0 10.0" fill="none" stroke="#111" stroke-width="1.05" stroke-linecap="round" stroke-linejoin="round"/>
<path d="M 18.0 4.0 L 18.31 4.68 L 18.58 5.38 L 18.82 6.09 L 19.02 6.82 L 19.18 7.55 L 19.3 8.29 L 19.38 9.03 L 19.43 9.78 L 19.44 10.53 L 19.4 11.28 L 19.33 12.03 L 19.22 12.77 L 19.07 13.5 L 18.88 14.23 L 18.66 14.95 L 18.39 15.65 L 18.1 16.34 L 17.76 17.01 L 17.39 17.66 L 16.99 18.29 L 16.56 18.91 L 16.09 19.49 L 15.6 20.06 L 15.07 20.59" fill="none" stroke="#111" stroke-width="1.05" stroke-linecap="round" stroke-linejoin="round"/>
<path d="M 17.0 9.0 L 17.04 9.0 L 17.08 9.0 L 17.12 9.0 L 17.17 9.0 L 17.21 9.0 L 17.25 9.0 L 17.29 9.0 L 17.33 9.0 L 17.38 9.0 L 17.42 9.0 L 17.46 9.0 L 17.5 9.0 L 17.54 9.0 L 17.58 9.0 L 17.62 9.0 L 17.67 9.0 L 17.71 9.0 L 17.75 9.0 L 17.79 9.0 L 17.83 9.0 L 17.88 9.0 L 17.92 9.0 L 17.96 9.0 L 18.0 9.0 L 18.0 9.0 L 17.75 9.29 L 17.5 9.58 L 17.25 9.88 L 17.0 10.17 L 16.75 10.46 L 16.5 10.75 L 16.25 11.04 L 16.0 11.33 L 15.75 11.62 L 15.5 11.92 L 15.25 12.21 L 15.0 12.5 L 14.75 12.79 L 14.5 13.08 L 14.25 13.38 L 14.0 13.67 L 13.75 13.96 L 13.5 14.25 L 13.25 14.54 L 13.0 14.83 L 12.75 15.12 L 12.5 15.42 L 12.25 15.71 L 12.0 16.0" fill="none" stroke="#111" stroke-width="1.05" stroke-linecap="round" stroke-linejoin="round"/>
<path d="M 14.0 8.0 L 13.96 8.17 L 13.92 8.33 L 13.88 8.5 L 13.83 8.67 L 13.79 8.83 L 13.75 9.0 L 13.71 9.17 L 13.67 9.33 L 13.62 9.5 L 13.58 9.67 L 13.54 9.83 L 13.5 10.0 L 13.46 10.17 L 13.42 10.33 L 13.38 10.5 L 13.33 10.67 L 13.29 10.83 L 13.25 11.0 L 13.21 11.17 L 13.17 11.33 L 13.12 11.5 L 13.08 11.67 L 13.04 11.83 L 13.0 12.0" fill="none" stroke="#111" stroke-width="1.05" stroke-linecap="round" stroke-linejoin="round"/>
<path d="M 14.0 16.0 L 13.96 16.12 L 13.92 16.25 L 13.88 16.38 L 13.83 16.5 L 13.79 16.62 L 13.75 16.75 L 13.71 16.88 L 13.67 17.0 L 13.62 17.12 L 13.58 17.25 L 13.54 17.38 L 13.5 17.5 L 13.46 17.62 L 13.42 17.75 L 13.38 17.88 L 13.33 18.0 L 13.29 18.12 L 13.25 18.25 L 13.21 18.38 L 13.17 18.5 L 13.12 18.62 L 13.08 18.75 L 13.04 18.88 L 13.0 19.0" fill="none" stroke="#111" stroke-width="1.05" stroke-linecap="round" stroke-linejoin="round"/>
</svg>
