<?xml version="1.0" encoding="UTF-8"?>
<svg xmlns="http://www.w3.org/2000/svg" viewBox="0 0 29.00 38.00">
<path d="M 8.0 12.0 L 8.46 11.88 L 8.92 11.75 L 9.38 11.62 L 9.83 11.5 L 10.29 11.38 L 10.75 11.25 L 11.21 11.12 L 11.67 11.0 L 12.12 10.88 L 12.58 10.75 L 13.04 10.62 L 13.5 10.5 L 13.96 10.38 L 14.42 10.25 L 14.87 10.12 L 15.33 10.0 L 15.79 9.88 L 16.25 9.75 L 16.71 9.62 L 17.17 9.5 L 17.62 9.38 L 18.08 9.25 L 18.54 9.12 L 19.0 9.0" fill="none" stroke="#111" stroke-width="1.33" stroke-linecap="round" stroke-linejoin="round"/>
<path d="M 18.0 4.0 L 18.42 5.17 L 18.78 6.36 L 19.11 7.56 L 19.39 8.78 L 19.62 10.0 L 19.8 11.23 L 19.93 12.47 L 20.02 13.71 L 20.06 14.95 L 20.05 16.2 L 20.0 17.44 L 19.89 18.68 L 19.74 19.92 L 19.54 21.15 L 19.29 22.37 L 19.0 23.58 L 18.66 24.77 L 18.27 25.96 L 17.84 27.12 L 17.37 28.28 L 16.85 29.41 L 16.29 30.52 L 15.68 31.6 L 15.03 32.67" fill="none" stroke="#111" stroke-width="1.33" stroke-linecap="round" stroke-linejoin="round"/>
<path d="M 14.0 7.0 L 14.33 7.04 L 14.67 7.08 L 15.0 7.12 L 15.33 7.17 L 15.67 7.21 L 16.0 7.25 L 16.33 7.29 L 16.67 7.33 L 17.0 7.38 L 17.33 7.42 L 17.67 7.46 L 18.0 7.5 L 18.33 7.54 L 18.67 7.58 L 19.0 7.62 L 19.33 7.67 L 19.67 7.71 L 20.0 7.75 L 20.33 7.79 L 20.67 7.83 L 21.0 7.88 L 21.33 7.92 L 21.67 7.96 L 22.0 8.0" fill="none" stroke="#111" stroke-width="1.33" stroke-linecap="round" stroke-linejoin="round"/>
<path d="M 10.0 20.0 L 9.75 20.42 L 9.5 20.83 L 9.25 21.25 L 9.0 21.67 L 8.75 22.08 L 8.5 22.5 L 8.25 22.92 L 8.0 23.33 L 7.75 23.75 L 7.5 24.17 L 7.25 24.58 L 7.0 25.0 L 6.75 25.42 L 6.5 25.83 L 6.25 26.25 L 6.0 26.67 L 5.75 27.08 L 5.5 27.5 L 5.25 27.92 L 5.0 28.33 L 4.75 28.75 L 4.5 29.17 L 4.25 29.58 L 4.0 30.0" fill="none" stroke="#111" stroke-width="1.33" stroke-linecap="round" stroke-linejoin="round"/>
<path d="M 10.0 20.0 L 10.38 19.96 L 10.75 19.92 L 11.12 19.88 L 11.5 19.83 L 11.88 19.79 L 12.25 19.75 L 12.62 19.71 L 13.0 19.67 L 13.38 19.62 L 13.75 19.58 L 14.12 19.54 L 14.5 19.5 L 14.88 19.46 L 15.25 19.42 L 15.62 19.38 L 16.0 19.33 L 16.38 19.29 L 16.75 19.25 L 17.12 19.21 L 17.5 19.17 L 17.88 19.12 L 18.25 19.08 L 18.62 19.04 L 19.0 19.0" fill="none" stroke="#111" stroke-width="1.33" stroke-linecap="round" stroke-linejoin="round"/>
<path d="M 11.0 13.0 L 11.0 13.58 L 11.0 14.17 L 11.0 14.75 L 11.0 15.33 L 11.0 15.92 L 11.0 16.5 L 11.0 17.08 L 11.0 17.67 L 11.0 18.25 L 11.0 18.83 L 11.0 19.42 L 11.0 20.0 L 11.0 20.58 L 11.0 21.17 L 11.0 21.75 L 11.0 22.33 L 11.0 22.92 L 11.0 23.5 L 11.0 24.08 L 11.0 24.67 L 11.0 25.25 L 11.0 25.83 L 11.0 26.42 L 11.0 27.0" fill="none" stroke="#111" stroke-width="1.33" stroke-linecap="round" stroke-linejoin="round"/>
<path d="M 6.0 19.0 L 6.08 19.29 L 6.17 19.58 L 6.25 19.88 L 6.33 20.17 L 6.42 20.46 L 6.5 20.75 L 6.58 21.04 L 6.67 21.33 L 6.75 21.62 L 6.83 21.92 L 6.92 22.21 L 7.0 22.5 L 7.08 22.79 L 7.17 23.08 L 7.25 23.38 L 7.33 23.67 L 7.42 23.96 L 7.5 24.25 L 7.58 24.54 L 7.67 24.83 L 7.75 25.12 L 7.83 25.42 L 7.92 25.71 L 8.0 26.0" fill="none" stroke="#111" stroke-width="1.33" stroke-linecap="round" stroke-linejoin="round"/>
<path d="M 9.0 29.0 L 9.42 28.79 L 9.83 28.58 L 10.25 28.38 L 10.67 28.17 L 11.08 27.96 L 11.5 27.75 L 11.92 27.54 L 12.33 27.33 L 12.75 27.12 L 13.17 26.92 L 13.58 26.71 L 14.0 26.5 L 14.42 26.29 L 14.83 26.08 L 15.25 25.88 L 15.67 25.67 L 16.08 25.46 L 16.5 25.25 L 16.92 25.04 L 17.33 24.83 L 17.75 24.62 L 18.17 24.42 L 18.58 24.21 L 19.0 24.0" fill="none" stroke="#111" stroke-width="1.33" stroke-linecap="round" stroke-linejoin="round"/>
<path d="M 13.0 15.0 L 13.11 15.45 L 13.22 15.9 L 13.32 16.36 L 13.41 16.81 L 13.5 17.27 L 13.58 17.73 L 13.66 18.19 L 13.73 18.65 L 13.79 19.11 L 13.85 19.57 L 13.9 20.03 L 13.95 20.49 L 13.99 20.96 L 14.02 21.42 L 14.04 21.89 L 14.07 22.35 L 14.08 22.82 L 14.09 23.28 L 14.09 23.75 L 14.09 24.21 L 14.07 24.68 L 14.06 25.14 L 14.04 25.61 L 14.01 26.07" fill="none" stroke="#111" stroke-width="1.33" stroke-linecap="round" stroke-linejoin="round"/>
<path d="M 13.0 14.0 L 13.12 14.04 L 13.25 14.08 L 13.38 14.12 L 13.5 14.17 L 13.62 14.21 L 13.75 14.25 L 13.88 14.29 L 14.0 14.33 L 14.12 14.38 L 14.25 14.42 L 14.38 14.46 L 14.5 14.5 L 14.62 14.54 L 14.75 14.58 L 14.88 14.62 L 15.0 14.67 L 15.12 14.71 L 15.25 14.75 L 15.38 14.79 L 15.5 14.83 L 15.62 14.88 L 15.75 14.92 L 15.88 14.96 L 16.0 15.0 L 16.0 15.0 L 15.92 15.12 L 15.83 15.25 L 15.75 15.38 L 15.67 15.5 L 15.58 15.62 L 15.5 15.75 L 15.42 15.88 L 15.33 16.0 L 15.25 16.12 L 15.17 16.25 L 15.08 16.38 L 15.0 16.5 L 14.92 16.62 L 14.83 16.75 L 14.75 16.88 L 14.67 17.0 L 14.58 17.12 L 14.5 17.25 L 14.42 17.38 L 14.33 17.5 L 14.25 17.62 L 14.17 17.75 L 14.08 17.88 L 14.0 18.0" fill="none" stroke="#111" stroke-width="1.33" stroke-linecap="round" stroke-linejoin="round"/>
<path d="M 23.0 18.0 L 23.23 18.58 L 23.43 19.17 L 23.61 19.78 L 23.75 20.39 L 23.86 21.0 L 23.93 21.62 L 23.98 22.25 L 23.99 22.87 L 23.97 23.5 L 23.92 24.12 L 23.84 24.74 L 23.72 25.36 L 23.57 25.97 L 23.4 26.57 L 23.19 27.16 L 22.95 27.74 L 22.68 28.3 L 22.38 28.85 L 22.06 29.39 L 21.71 29.91 L 21.33 30.41 L 20.93 30.89 L 20.5 31.34 L 20.05 31.78" fill="none" stroke="#111" stroke-width="1.33" stroke-linecap="round" stroke-linejoin="round"/>
<path d="M 20.0 21.0 L 20.21 21.54 L 20.42 22.08 L 20.62 22.62 L 20.83 23.17 L 21.04 23.71 L 21.25 24.25 L 21.46 24.79 L 21.67 25.33 L 21.88 25.88 L 22.08 26.42 L 22.29 26.96 L 22.5 27.5 L 22.71 28.04 L 22.92 28.58 L 23.12 29.12 L 23.33 29.67 L 23.54 30.21 L 23.75 30.75 L 23.96 31.29 L 24.17 31.83 L 24.38 32.38 L 24.58 32.92 L 24.79 33.46 L 25.0 34.0" fill="none" stroke="#111" stroke-width="1.33" stroke-linecap="round" stroke-linejoin="round"/>
</svg>
