<?xml version="1.0" encoding="UTF-8"?>
<svg xmlns="http://www.w3.org/2000/svg" viewBox="0 0 27.11 31.18">
<path d="M 4.0 12.0 L 4.29 11.67 L 4.58 11.33 L 4.88 11.0 L 5.17 10.67 L 5.46 10.33 L 5.75 10.0 L 6.04 9.67 L 6.33 9.33 L 6.62 9.0 L 6.92 8.67 L 7.21 8.33 L 7.5 8.0 L 7.79 7.67 L 8.08 7.33 L 8.38 7.0 L 8.67 6.67 L 8.96 6.33 L 9.25 6.0 L 9.54 5.67 L 9.83 5.33 L 10.12 5.0 L 10.42 4.67 L 10.71 4.33 L 11.0 4.0 L 11.0 4.0 L 11.25 4.25 L 11.5 4.5 L 11.75 4.75 L 12.0 5.0 L 12.25 5.25 L 12.5 5.5 L 12.75 5.75 L 13.0 6.0 L 13.25 6.25 L 13.5 6.5 L 13.75 6.75 L 14.0 7.0 L 14.25 7.25 L 14.5 7.5 L 14.75 7.75 L 15.0 8.0 L 15.25 8.25 L 15.5 8.5 L 15.75 8.75 L 16.0 9.0 L 16.25 9.25 L 16.5 9.5 L 16.75 9.75 L 17.0 10.0" fill="none" stroke="#111" stroke-width="1.09" stroke-linecap="round" stroke-linejoin="round"/>
<path d="M 8.0 15.0 L 7.86 15.5 L 7.77 16.01 L 7.72 16.52 L 7.71 17.04 L 7.75 17.55 L 7.83 18.06 L 7.96 18.56 L 8.13 19.05 L 8.34 19.53 L 8.59 19.98 L 8.87 20.41 L 9.2 20.81 L 9.55 21.18 L 9.94 21.53 L 10.36 21.83 L 10.8 22.1 L 11.26 22.34 L 11.74 22.53 L 12.23 22.68 L 12.74 22.78 L 13.25 22.85 L 13.77 22.86 L 14.28 22.84 L 14.8 22.77" fill="none" stroke="#111" stroke-width="1.09" stroke-linecap="round" stroke-linejoin="round"/>
<path d="M 10.0 11.0 L 9.79 11.21 L 9.58 11.42 L 9.38 11.62 L 9.17 11.83 L 8.96 12.04 L 8.75 12.25 L 8.54 12.46 L 8.33 12.67 L 8.12 12.88 L 7.92 13.08 L 7.71 13.29 L 7.5 13.5 L 7.29 13.71 L 7.08 13.92 L 6.88 14.12 L 6.67 14.33 L 6.46 14.54 L 6.25 14.75 L 6.04 14.96 L 5.83 15.17 L 5.62 15.38 L 5.42 15.58 L 5.21 15.79 L 5.0 16.0" fill="none" stroke="#111" stroke-width="1.09" stroke-linecap="round" stroke-linejoin="round"/>
<path d="M 11.0 19.0 L 11.12 19.0 L 11.25 19.0 L 11.38 19.0 L 11.5 19.0 L 11.62 19.0 L 11.75 19.0 L 11.88 19.0 L 12.0 19.0 L 12.12 19.0 L 12.25 19.0 L 12.38 19.0 L 12.5 19.0 L 12.62 19.0 L 12.75 19.0 L 12.88 19.0 L 13.0 19.0 L 13.12 19.0 L 13.25 19.0 L 13.38 19.0 L 13.5 19.0 L 13.62 19.0 L 13.75 19.0 L 13.88 19.0 L 14.0 19.0 L 14.0 19.0 L 13.99 18.69 L 13.98 18.39 L 13.96 18.08 L 13.93 17.78 L 13.9 17.48 L 13.85 17.17 L 13.81 16.87 L 13.75 16.57 L 13.69 16.27 L 13.62 15.97 L 13.55 15.68 L 13.47 15.38 L 13.38 15.09 L 13.29 14.8 L 13.19 14.51 L 13.08 14.22 L 12.97 13.94 L 12.85 13.66 L 12.72 13.38 L 12.59 13.1 L 12.46 12.83 L 12.31 12.56 L 12.16 12.29 L 12.01 12.03 L 12.0 12.0 L 12.21 12.12 L 12.42 12.25 L 12.62 12.38 L 12.83 12.5 L 13.04 12.62 L 13.25 12.75 L 13.46 12.88 L 13.67 13.0 L 13.88 13.12 L 14.08 13.25 L 14.29 13.38 L 14.5 13.5 L 14.71 13.62 L 14.92 13.75 L 15.12 13.88 L 15.33 14.0 L 15.54 14.12 L 15.75 14.25 L 15.96 14.38 L 16.17 14.5 L 16.38 14.62 L 16.58 14.75 L 16.79 14.88 L 17.0 15.0" fill="none" stroke="#111" stroke-width="1.09" stroke-linecap="round" stroke-linejoin="round"/>
<path d="M 21.0 4.0 L 21.51 5.0 L 21.95 6.02 L 22.32 7.08 L 22.62 8.15 L 22.85 9.25 L 23.01 10.35 L 23.1 11.47 L 23.11 12.59 L 23.05 13.7 L 22.92 14.81 L 22.71 15.91 L 22.43 17.0 L 22.09 18.06 L 21.67 19.1 L 21.18 20.1 L 20.64 21.08 L 20.02 22.01 L 19.35 22.91 L 18.62 23.75 L 17.84 24.55 L 17.01 25.3 L 16.13 25.99 L 15.2 26.61 L 14.24 27.18" fill="none" stroke="#111" stroke-width="1.09" stroke-linecap="round" stroke-linejoin="round"/>
<path d="M 20.0 16.0 L 19.83 16.17 L 19.67 16.33 L 19.5 16.5 L 19.33 16.67 L 19.17 16.83 L 19.0 17.0 L 18.83 17.17 L 18.67 17.33 L 18.5 17.5 L 18.33 17.67 L 18.17 17.83 L 18.0 18.0 L 17.83 18.17 L 17.67 18.33 L 17.5 18.5 L 17.33 18.67 L 17.17 18.83 L 17.0 19.0 L 16.83 19.17 L 16.67 19.33 L 16.5 19.5 L 16.33 19.67 L 16.17 19.83 L 16.0 20.0" fill="none" stroke="#111" stroke-width="1.09" stroke-linecap="round" stroke-linejoin="round"/>
</svg>
