<?xml version="1.0" encoding="UTF-8"?>
<svg xmlns="http://www.w3.org/2000/svg" viewBox="0 0 23.00 34.00">
<path d="M 4.0 6.0 L 4.04 6.92 L 4.08 7.83 L 4.12 8.75 L 4.17 9.67 L 4.21 10.58 L 4.25 11.5 L 4.29 12.42 L 4.33 13.33 L 4.38 14.25 L 4.42 15.17 L 4.46 16.08 L 4.5 17.0 L 4.54 17.92 L 4.58 18.83 L 4.62 19.75 L 4.67 20.67 L 4.71 21.58 L 4.75 22.5 L 4.79 23.42 L 4.83 24.33 L 4.88 25.25 L 4.92 26.17 L 4.96 27.08 L 5.0 28.0" fill="none" stroke="#111" stroke-width="1.19" stroke-linecap="round" stroke-linejoin="round"/>
<path d="M 12.0 5.0 L 12.0 5.88 L 12.0 6.75 L 12.0 7.62 L 12.0 8.5 L 12.0 9.38 L 12.0 10.25 L 12.0 11.12 L 12.0 12.0 L 12.0 12.88 L 12.0 13.75 L 12.0 14.62 L 12.0 15.5 L 12.0 16.38 L 12.0 17.25 L 12.0 18.12 L 12.0 19.0 L 12.0 19.88 L 12.0 20.75 L 12.0 21.62 L 12.0 22.5 L 12.0 23.38 L 12.0 24.25 L 12.0 25.12 L 12.0 26.0" fill="none" stroke="#111" stroke-width="1.19" stroke-linecap="round" stroke-linejoin="round"/>
<path d="M 5.0 9.0 L 5.25 9.38 L 5.5 9.75 L 5.75 10.12 L 6.0 10.5 L 6.25 10.88 L 6.5 11.25 L 6.75 11.62 L 7.0 12.0 L 7.25 12.38 L 7.5 12.75 L 7.75 13.12 L 8.0 13.5 L 8.25 13.88 L 8.5 14.25 L 8.75 14.62 L 9.0 15.0 L 9.25 15.38 L 9.5 15.75 L 9.75 16.12 L 10.0 16.5 L 10.25 16.88 L 10.5 17.25 L 10.75 17.62 L 11.0 18.0" fill="none" stroke="#111" stroke-width="1.19" stroke-linecap="round" stroke-linejoin="round"/>
<path d="M 11.0 10.0 L 10.79 10.33 L 10.58 10.67 L 10.38 11.0 L 10.17 11.33 L 9.96 11.67 L 9.75 12.0 L 9.54 12.33 L 9.33 12.67 L 9.12 13.0 L 8.92 13.33 L 8.71 13.67 L 8.5 14.0 L 8.29 14.33 L 8.08 14.67 L 7.88 15.0 L 7.67 15.33 L 7.46 15.67 L 7.25 16.0 L 7.04 16.33 L 6.83 16.67 L 6.63 17.0 L 6.42 17.33 L 6.21 17.67 L 6.0 18.0" fill="none" stroke="#111" stroke-width="1.19" stroke-linecap="round" stroke-linejoin="round"/>
<path d="M 6.0 19.0 L 6.25 19.25 L 6.5 19.5 L 6.75 19.75 L 7.0 20.0 L 7.25 20.25 L 7.5 20.5 L 7.75 20.75 L 8.0 21.0 L 8.25 21.25 L 8.5 21.5 L 8.75 21.75 L 9.0 22.0 L 9.25 22.25 L 9.5 22.5 L 9.75 22.75 L 10.0 23.0 L 10.25 23.25 L 10.5 23.5 L 10.75 23.75 L 11.0 24.0 L 11.25 24.25 L 11.5 24.5 L 11.75 24.75 L 12.0 25.0" fill="none" stroke="#111" stroke-width="1.19" stroke-linecap="round" stroke-linejoin="round"/>
<path d="M 11.0 19.0 L 10.75 19.17 L 10.5 19.33 L 10.25 19.5 L 10.0 19.67 L 9.75 19.83 L 9.5 20.0 L 9.25 20.17 L 9.0 20.33 L 8.75 20.5 L 8.5 20.67 L 8.25 20.83 L 8.0 21.0 L 7.75 21.17 L 7.5 21.33 L 7.25 21.5 L 7.0 21.67 L 6.75 21.83 L 6.5 22.0 L 6.25 22.17 L 6.0 22.33 L 5.75 22.5 L 5.5 22.67 L 5.25 22.83 L 5.0 23.0" fill="none" stroke="#111" stroke-width="1.19" stroke-linecap="round" stroke-linejoin="round"/>
<path d="M 19.0 4.0 L 18.56 4.7 L 18.15 5.42 L 17.77 6.17 L 17.43 6.93 L 17.14 7.7 L 16.87 8.49 L 16.65 9.29 L 16.47 10.1 L 16.33 10.92 L 16.23 11.75 L 16.17 12.57 L 16.15 13.4 L 16.17 14.24 L 16.23 15.06 L 16.33 15.89 L 16.47 16.71 L 16.65 17.52 L 16.87 18.32 L 17.14 19.11 L 17.43 19.88 L 17.77 20.64 L 18.15 21.38 L 18.56 22.11 L 19.0 22.81 L 19.0 23.0 L 18.75 23.29 L 18.5 23.58 L 18.25 23.88 L 18.0 24.17 L 17.75 24.46 L 17.5 24.75 L 17.25 25.04 L 17.0 25.33 L 16.75 25.62 L 16.5 25.92 L 16.25 26.21 L 16.0 26.5 L 15.75 26.79 L 15.5 27.08 L 15.25 27.38 L 15.0 27.67 L 14.75 27.96 L 14.5 28.25 L 14.25 28.54 L 14.0 28.83 L 13.75 29.12 L 13.5 29.42 L 13.25 29.71 L 13.0 30.0" fill="none" stroke="#111" stroke-width="1.19" stroke-linecap="round" stroke-linejoin="round"/>
<path d="M 17.0 19.0 L 16.88 19.21 L 16.75 19.42 L 16.62 19.62 L 16.5 19.83 L 16.38 20.04 L 16.25 20.25 L 16.12 20.46 L 16.0 20.67 L 15.88 20.88 L 15.75 21.08 L 15.62 21.29 L 15.5 21.5 L 15.38 21.71 L 15.25 21.92 L 15.12 22.12 L 15.0 22.33 L 14.88 22.54 L 14.75 22.75 L 14.62 22.96 L 14.5 23.17 L 14.38 23.38 L 14.25 23.58 L 14.13 23.79 L 14.0 24.0" fill="none" stroke="#111" stroke-width="1.19" stroke-linecap="round" stroke-linejoin="round"/>
</svg>
