<?xml version="1.0" encoding="UTF-8"?>
<svg xmlns="http://www.w3.org/2000/svg" viewBox="0 0 21.00 37.00">
<path d="M 7.0 5.0 L 7.21 5.21 L 7.42 5.42 L 7.62 5.62 L 7.83 5.83 L 8.04 6.04 L 8.25 6.25 L 8.46 6.46 L 8.67 6.67 L 8.88 6.88 L 9.08 7.08 L 9.29 7.29 L 9.5 7.5 L 9.71 7.71 L 9.92 7.92 L 10.12 8.12 L 10.33 8.33 L 10.54 8.54 L 10.75 8.75 L 10.96 8.96 L 11.17 9.17 L 11.38 9.38 L 11.58 9.58 L 11.79 9.79 L 12.0 10.0 L 12.0 10.0 L 11.96 10.08 L 11.92 10.17 L 11.88 10.25 L 11.83 10.33 L 11.79 10.42 L 11.75 10.5 L 11.71 10.58 L 11.67 10.67 L 11.62 10.75 L 11.58 10.83 L 11.54 10.92 L 11.5 11.0 L 11.46 11.08 L 11.42 11.17 L 11.38 11.25 L 11.33 11.33 L 11.29 11.42 L 11.25 11.5 L 11.21 11.58 L 11.17 11.67 L 11.12 11.75 L 11.08 11.83 L 11.04 11.92 L 11.0 12.0" fill="none" stroke="#111" stroke-width="1.30" stroke-linecap="round" stroke-linejoin="round"/>
<path d="M 12.0 4.0 L 11.79 4.25 L 11.58 4.5 L 11.38 4.75 L 11.17 5.0 L 10.96 5.25 L 10.75 5.5 L 10.54 5.75 L 10.33 6.0 L 10.12 6.25 L 9.92 6.5 L 9.71 6.75 L 9.5 7.0 L 9.29 7.25 L 9.08 7.5 L 8.88 7.75 L 8.67 8.0 L 8.46 8.25 L 8.25 8.5 L 8.04 8.75 L 7.83 9.0 L 7.62 9.25 L 7.42 9.5 L 7.21 9.75 L 7.0 10.0 L 7.0 10.0 L 7.04 10.08 L 7.08 10.17 L 7.12 10.25 L 7.17 10.33 L 7.21 10.42 L 7.25 10.5 L 7.29 10.58 L 7.33 10.67 L 7.38 10.75 L 7.42 10.83 L 7.46 10.92 L 7.5 11.0 L 7.54 11.08 L 7.58 11.17 L 7.62 11.25 L 7.67 11.33 L 7.71 11.42 L 7.75 11.5 L 7.79 11.58 L 7.83 11.67 L 7.88 11.75 L 7.92 11.83 L 7.96 11.92 L 8.0 12.0" fill="none" stroke="#111" stroke-width="1.30" stroke-linecap="round" stroke-linejoin="round"/>
<path d="M 4.0 13.0 L 4.5 13.0 L 5.0 13.0 L 5.5 13.0 L 6.0 13.0 L 6.5 13.0 L 7.0 13.0 L 7.5 13.0 L 8.0 13.0 L 8.5 13.0 L 9.0 13.0 L 9.5 13.0 L 10.0 13.0 L 10.5 13.0 L 11.0 13.0 L 11.5 13.0 L 12.0 13.0 L 12.5 13.0 L 13.0 13.0 L 13.5 13.0 L 14.0 13.0 L 14.5 13.0 L 15.0 13.0 L 15.5 13.0 L 16.0 13.0" fill="none" stroke="#111" stroke-width="1.30" stroke-linecap="round" stroke-linejoin="round"/>
<path d="M 10.0 13.0 L 10.0 13.83 L 10.0 14.67 L 10.0 15.5 L 10.0 16.33 L 10.0 17.17 L 10.0 18.0 L 10.0 18.83 L 10.0 19.67 L 10.0 20.5 L 10.0 21.33 L 10.0 22.17 L 10.0 23.0 L 10.0 23.83 L 10.0 24.67 L 10.0 25.5 L 10.0 26.33 L 10.0 27.17 L 10.0 28.0 L 10.0 28.83 L 10.0 29.67 L 10.0 30.5 L 10.0 31.33 L 10.0 32.17 L 10.0 33.0" fill="none" stroke="#111" stroke-width="1.30" stroke-linecap="round" stroke-linejoin="round"/>
<path d="M 7.0 21.0 L 7.12 21.21 L 7.25 21.42 L 7.38 21.62 L 7.5 21.83 L 7.62 22.04 L 7.75 22.25 L 7.88 22.46 L 8.0 22.67 L 8.12 22.88 L 8.25 23.08 L 8.38 23.29 L 8.5 23.5 L 8.62 23.71 L 8.75 23.92 L 8.88 24.12 L 9.0 24.33 L 9.12 24.54 L 9.25 24.75 L 9.38 24.96 L 9.5 25.17 L 9.62 25.38 L 9.75 25.58 L 9.88 25.79 L 10.0 26.0 L 10.0 26.0 L 10.12 25.83 L 10.25 25.67 L 10.38 25.5 L 10.5 25.33 L 10.62 25.17 L 10.75 25.0 L 10.88 24.83 L 11.0 24.67 L 11.12 24.5 L 11.25 24.33 L 11.38 24.17 L 11.5 24.0 L 11.62 23.83 L 11.75 23.67 L 11.88 23.5 L 12.0 23.33 L 12.12 23.17 L 12.25 23.0 L 12.38 22.83 L 12.5 22.67 L 12.62 22.5 L 12.75 22.33 L 12.88 22.17 L 13.0 22.0" fill="none" stroke="#111" stroke-width="1.30" stroke-linecap="round" stroke-linejoin="round"/>
<path d="M 4.0 7.0 L 4.0 7.96 L 4.0 8.92 L 4.0 9.88 L 4.0 10.83 L 4.0 11.79 L 4.0 12.75 L 4.0 13.71 L 4.0 14.67 L 4.0 15.62 L 4.0 16.58 L 4.0 17.54 L 4.0 18.5 L 4.0 19.46 L 4.0 20.42 L 4.0 21.38 L 4.0 22.33 L 4.0 23.29 L 4.0 24.25 L 4.0 25.21 L 4.0 26.17 L 4.0 27.12 L 4.0 28.08 L 4.0 29.04 L 4.0 30.0" fill="none" stroke="#111" stroke-width="1.30" stroke-linecap="round" stroke-linejoin="round"/>
<path d="M 17.0 6.0 L 16.81 7.07 L 16.64 8.14 L 16.47 9.22 L 16.32 10.29 L 16.19 11.37 L 16.06 12.45 L 15.95 13.53 L 15.85 14.61 L 15.76 15.69 L 15.69 16.78 L 15.63 17.86 L 15.58 18.95 L 15.54 20.03 L 15.52 21.12 L 15.51 22.2 L 15.51 23.29 L 15.53 24.38 L 15.56 25.46 L 15.6 26.55 L 15.66 27.63 L 15.72 28.72 L 15.8 29.8 L 15.9 30.88 L 16.0 31.96" fill="none" stroke="#111" stroke-width="1.30" stroke-linecap="round" stroke-linejoin="round"/>
<path d="M 4.0 28.0 L 4.46 28.0 L 4.92 28.0 L 5.38 28.0 L 5.83 28.0 L 6.29 28.0 L 6.75 28.0 L 7.21 28.0 L 7.67 28.0 L 8.12 28.0 L 8.58 28.0 L 9.04 28.0 L 9.5 28.0 L 9.96 28.0 L 10.42 28.0 L 10.88 28.0 L 11.33 28.0 L 11.79 28.0 L 12.25 28.0 L 12.71 28.0 L 13.17 28.0 L 13.62 28.0 L 14.08 28.0 L 14.54 28.0 L 15.0 28.0" fill="none" stroke="#111" stroke-width="1.30" stroke-linecap="round" stroke-linejoin="round"/>
<path d="M 4.0 30.0 L 4.5 30.0 L 5.0 30.0 L 5.5 30.0 L 6.0 30.0 L 6.5 30.0 L 7.0 30.0 L 7.5 30.0 L 8.0 30.0 L 8.5 30.0 L 9.0 30.0 L 9.5 30.0 L 10.0 30.0 L 10.5 30.0 L 11.0 30.0 L 11.5 30.0 L 12.0 30.0 L 12.5 30.0 L 13.0 30.0 L 13.5 30.0 L 14.0 30.0 L 14.5 30.0 L 15.0 30.0 L 15.5 30.0 L 16.0 30.0" fill="none" stroke="#111" stroke-width="1.30" stroke-linecap="round" stroke-linejoin="round"/>
</svg>
