<?xml version="1.0" encoding="UTF-8"?>
<svg xmlns="http://www.w3.org/2000/svg" viewBox="0 0 19.00 36.00">
<path d="M 10.0 4.0 L 9.75 4.29 L 9.5 4.58 L 9.25 4.88 L 9.0 5.17 L 8.75 5.46 L 8.5 5.75 L 8.25 6.04 L 8.0 6.33 L 7.75 6.62 L 7.5 6.92 L 7.25 7.21 L 7.0 7.5 L 6.75 7.79 L 6.5 8.08 L 6.25 8.38 L 6.0 8.67 L 5.75 8.96 L 5.5 9.25 L 5.25 9.54 L 5.0 9.83 L 4.75 10.12 L 4.5 10.42 L 4.25 10.71 L 4.0 11.0" fill="none" stroke="#111" stroke-width="1.26" stroke-linecap="round" stroke-linejoin="round"/>
<path d="M 10.0 4.0 L 10.21 4.17 L 10.42 4.33 L 10.62 4.5 L 10.83 4.67 L 11.04 4.83 L 11.25 5.0 L 11.46 5.17 L 11.67 5.33 L 11.88 5.5 L 12.08 5.67 L 12.29 5.83 L 12.5 6.0 L 12.71 6.17 L 12.92 6.33 L 13.12 6.5 L 13.33 6.67 L 13.54 6.83 L 13.75 7.0 L 13.96 7.17 L 14.17 7.33 L 14.38 7.5 L 14.58 7.67 L 14.79 7.83 L 15.0 8.0" fill="none" stroke="#111" stroke-width="1.26" stroke-linecap="round" stroke-linejoin="round"/>
<path d="M 7.0 9.0 L 7.25 8.96 L 7.5 8.92 L 7.75 8.88 L 8.0 8.83 L 8.25 8.79 L 8.5 8.75 L 8.75 8.71 L 9.0 8.67 L 9.25 8.62 L 9.5 8.58 L 9.75 8.54 L 10.0 8.5 L 10.25 8.46 L 10.5 8.42 L 10.75 8.38 L 11.0 8.33 L 11.25 8.29 L 11.5 8.25 L 11.75 8.21 L 12.0 8.17 L 12.25 8.12 L 12.5 8.08 L 12.75 8.04 L 13.0 8.0" fill="none" stroke="#111" stroke-width="1.26" stroke-linecap="round" stroke-linejoin="round"/>
<path d="M 6.0 12.0 L 6.38 12.0 L 6.75 12.0 L 7.13 12.0 L 7.5 12.0 L 7.88 12.0 L 8.25 12.0 L 8.62 12.0 L 9.0 12.0 L 9.38 12.0 L 9.75 12.0 L 10.12 12.0 L 10.5 12.0 L 10.88 12.0 L 11.25 12.0 L 11.62 12.0 L 12.0 12.0 L 12.38 12.0 L 12.75 12.0 L 13.12 12.0 L 13.5 12.0 L 13.88 12.0 L 14.25 12.0 L 14.62 12.0 L 15.0 12.0" fill="none" stroke="#111" stroke-width="1.26" stroke-linecap="round" stroke-linejoin="round"/>
<path d="M 6.0 15.0 L 6.38 15.0 L 6.75 15.0 L 7.13 15.0 L 7.5 15.0 L 7.88 15.0 L 8.25 15.0 L 8.62 15.0 L 9.0 15.0 L 9.38 15.0 L 9.75 15.0 L 10.12 15.0 L 10.5 15.0 L 10.88 15.0 L 11.25 15.0 L 11.62 15.0 L 12.0 15.0 L 12.38 15.0 L 12.75 15.0 L 13.12 15.0 L 13.5 15.0 L 13.88 15.0 L 14.25 15.0 L 14.62 15.0 L 15.0 15.0" fill="none" stroke="#111" stroke-width="1.26" stroke-linecap="round" stroke-linejoin="round"/>
<path d="M 6.0 19.0 L 6.38 19.0 L 6.75 19.0 L 7.13 19.0 L 7.5 19.0 L 7.88 19.0 L 8.25 19.0 L 8.62 19.0 L 9.0 19.0 L 9.38 19.0 L 9.75 19.0 L 10.12 19.0 L 10.5 19.0 L 10.88 19.0 L 11.25 19.0 L 11.62 19.0 L 12.0 19.0 L 12.38 19.0 L 12.75 19.0 L 13.12 19.0 L 13.5 19.0 L 13.88 19.0 L 14.25 19.0 L 14.62 19.0 L 15.0 19.0" fill="none" stroke="#111" stroke-width="1.26" stroke-linecap="round" stroke-linejoin="round"/>
<path d="M 6.0 12.0 L 6.0 12.25 L 6.0 12.5 L 6.0 12.75 L 6.0 13.0 L 6.0 13.25 L 6.0 13.5 L 6.0 13.75 L 6.0 14.0 L 6.0 14.25 L 6.0 14.5 L 6.0 14.75 L 6.0 15.0 L 6.0 15.25 L 6.0 15.5 L 6.0 15.75 L 6.0 16.0 L 6.0 16.25 L 6.0 16.5 L 6.0 16.75 L 6.0 17.0 L 6.0 17.25 L 6.0 17.5 L 6.0 17.75 L 6.0 18.0" fill="none" stroke="#111" stroke-width="1.26" stroke-linecap="round" stroke-linejoin="round"/>
<path d="M 15.0 12.0 L 15.0 12.29 L 15.0 12.58 L 15.0 12.88 L 15.0 13.17 L 15.0 13.46 L 15.0 13.75 L 15.0 14.04 L 15.0 14.33 L 15.0 14.62 L 15.0 14.92 L 15.0 15.21 L 15.0 15.5 L 15.0 15.79 L 15.0 16.08 L 15.0 16.38 L 15.0 16.67 L 15.0 16.96 L 15.0 17.25 L 15.0 17.54 L 15.0 17.83 L 15.0 18.12 L 15.0 18.42 L 15.0 18.71 L 15.0 19.0" fill="none" stroke="#111" stroke-width="1.26" stroke-linecap="round" stroke-linejoin="round"/>
<path d="M 10.0 19.0 L 9.83 19.54 L 9.67 20.08 L 9.5 20.62 L 9.33 21.17 L 9.17 21.71 L 9.0 22.25 L 8.83 22.79 L 8.67 23.33 L 8.5 23.88 L 8.33 24.42 L 8.17 24.96 L 8.0 25.5 L 7.83 26.04 L 7.67 26.58 L 7.5 27.12 L 7.33 27.67 L 7.17 28.21 L 7.0 28.75 L 6.83 29.29 L 6.67 29.83 L 6.5 30.38 L 6.33 30.92 L 6.17 31.46 L 6.0 32.0" fill="none" stroke="#111" stroke-width="1.26" stroke-linecap="round" stroke-linejoin="round"/>
<path d="M 11.0 19.0 L 11.34 19.4 L 11.66 19.82 L 11.97 20.25 L 12.25 20.69 L 12.52 21.15 L 12.78 21.61 L 13.01 22.08 L 13.23 22.56 L 13.42 23.05 L 13.6 23.55 L 13.76 24.05 L 13.9 24.56 L 14.01 25.08 L 14.11 25.6 L 14.19 26.12 L 14.25 26.64 L 14.28 27.17 L 14.3 27.7 L 14.29 28.22 L 14.27 28.75 L 14.22 29.28 L 14.15 29.8 L 14.07 30.32 L 13.96 30.84" fill="none" stroke="#111" stroke-width="1.26" stroke-linecap="round" stroke-linejoin="round"/>
<path d="M 10.0 8.0 L 10.0 8.42 L 10.0 8.83 L 10.0 9.25 L 10.0 9.67 L 10.0 10.08 L 10.0 10.5 L 10.0 10.92 L 10.0 11.33 L 10.0 11.75 L 10.0 12.17 L 10.0 12.58 L 10.0 13.0 L 10.0 13.42 L 10.0 13.83 L 10.0 14.25 L 10.0 14.67 L 10.0 15.08 L 10.0 15.5 L 10.0 15.92 L 10.0 16.33 L 10.0 16.75 L 10.0 17.17 L 10.0 17.58 L 10.0 18.0" fill="none" stroke="#111" stroke-width="1.26" stroke-linecap="round" stroke-linejoin="round"/>
</svg>
