<?xml version="1.0" encoding="UTF-8"?>
<svg xmlns="http://www.w3.org/2000/svg" viewBox="0 0 23.00 35.78">
<path d="M 9.0 4.0 L 8.93 4.4 L 8.87 4.79 L 8.84 5.2 L 8.82 5.6 L 8.81 6.0 L 8.83 6.4 L 8.86 6.8 L 8.91 7.2 L 8.98 7.6 L 9.06 7.99 L 9.17 8.38 L 9.29 8.77 L 9.42 9.15 L 9.57 9.52 L 9.74 9.88 L 9.92 10.24 L 10.12 10.59 L 10.34 10.93 L 10.57 11.26 L 10.81 11.58 L 11.07 11.89 L 11.34 12.19 L 11.62 12.48 L 11.92 12.75" fill="none" stroke="#111" stroke-width="1.25" stroke-linecap="round" stroke-linejoin="round"/>
<path d="M 15.0 4.0 L 15.08 4.4 L 15.14 4.81 L 15.18 5.22 L 15.2 5.62 L 15.2 6.03 L 15.19 6.44 L 15.16 6.85 L 15.11 7.26 L 15.04 7.66 L 14.96 8.06 L 14.85 8.46 L 14.73 8.85 L 14.59 9.24 L 14.44 9.61 L 14.27 9.99 L 14.08 10.35 L 13.87 10.71 L 13.66 11.05 L 13.42 11.39 L 13.17 11.71 L 12.91 12.03 L 12.63 12.33 L 12.34 12.62 L 12.04 12.89" fill="none" stroke="#111" stroke-width="1.25" stroke-linecap="round" stroke-linejoin="round"/>
<path d="M 12.0 13.0 L 12.23 13.8 L 12.43 14.61 L 12.6 15.43 L 12.73 16.26 L 12.82 17.09 L 12.88 17.92 L 12.9 18.76 L 12.89 19.6 L 12.84 20.43 L 12.76 21.26 L 12.64 22.09 L 12.48 22.91 L 12.29 23.72 L 12.07 24.53 L 11.81 25.32 L 11.52 26.11 L 11.19 26.88 L 10.84 27.63 L 10.45 28.37 L 10.03 29.09 L 9.57 29.8 L 9.09 30.48 L 8.58 31.14 L 8.05 31.78" fill="none" stroke="#111" stroke-width="1.25" stroke-linecap="round" stroke-linejoin="round"/>
<path d="M 12.0 25.0 L 12.08 25.25 L 12.17 25.5 L 12.25 25.75 L 12.33 26.0 L 12.42 26.25 L 12.5 26.5 L 12.58 26.75 L 12.67 27.0 L 12.75 27.25 L 12.83 27.5 L 12.92 27.75 L 13.0 28.0 L 13.08 28.25 L 13.17 28.5 L 13.25 28.75 L 13.33 29.0 L 13.42 29.25 L 13.5 29.5 L 13.58 29.75 L 13.67 30.0 L 13.75 30.25 L 13.83 30.5 L 13.92 30.75 L 14.0 31.0" fill="none" stroke="#111" stroke-width="1.25" stroke-linecap="round" stroke-linejoin="round"/>
<path d="M 10.0 18.0 L 10.17 18.0 L 10.33 18.0 L 10.5 18.0 L 10.67 18.0 L 10.83 18.0 L 11.0 18.0 L 11.17 18.0 L 11.33 18.0 L 11.5 18.0 L 11.67 18.0 L 11.83 18.0 L 12.0 18.0 L 12.17 18.0 L 12.33 18.0 L 12.5 18.0 L 12.67 18.0 L 12.83 18.0 L 13.0 18.0 L 13.17 18.0 L 13.33 18.0 L 13.5 18.0 L 13.67 18.0 L 13.83 18.0 L 14.0 18.0" fill="none" stroke="#111" stroke-width="1.25" stroke-linecap="round" stroke-linejoin="round"/>
<path d="M 9.0 23.0 L 9.21 23.0 L 9.42 23.0 L 9.62 23.0 L 9.83 23.0 L 10.04 23.0 L 10.25 23.0 L 10.46 23.0 L 10.67 23.0 L 10.88 23.0 L 11.08 23.0 L 11.29 23.0 L 11.5 23.0 L 11.71 23.0 L 11.92 23.0 L 12.12 23.0 L 12.33 23.0 L 12.54 23.0 L 12.75 23.0 L 12.96 23.0 L 13.17 23.0 L 13.38 23.0 L 13.58 23.0 L 13.79 23.0 L 14.0 23.0" fill="none" stroke="#111" stroke-width="1.25" stroke-linecap="round" stroke-linejoin="round"/>
<path d="M 6.0 8.0 L 6.0 8.0 L 6.0 8.0 L 6.0 8.0 L 6.0 8.0 L 6.0 8.0 L 6.0 8.0 L 6.0 8.0 L 6.0 8.0 L 6.0 8.0 L 6.0 8.0 L 6.0 8.0 L 6.0 8.0 L 6.0 8.0 L 6.0 8.0 L 6.0 8.0 L 6.0 8.0 L 6.0 8.0 L 6.0 8.0 L 6.0 8.0 L 6.0 8.0 L 6.0 8.0 L 6.0 8.0 L 6.0 8.0 L 6.0 8.0" fill="none" stroke="#111" stroke-width="1.25" stroke-linecap="round" stroke-linejoin="round"/>
<path d="M 6.0 8.0 L 6.54 7.96 L 7.08 7.92 L 7.62 7.88 L 8.17 7.83 L 8.71 7.79 L 9.25 7.75 L 9.79 7.71 L 10.33 7.67 L 10.88 7.62 L 11.42 7.58 L 11.96 7.54 L 12.5 7.5 L 13.04 7.46 L 13.58 7.42 L 14.13 7.38 L 14.67 7.33 L 15.21 7.29 L 15.75 7.25 L 16.29 7.21 L 16.83 7.17 L 17.38 7.12 L 17.92 7.08 L 18.46 7.04 L 19.0 7.0" fill="none" stroke="#111" stroke-width="1.25" stroke-linecap="round" stroke-linejoin="round"/>
<path d="M 4.0 6.0 L 4.07 6.51 L 4.14 7.03 L 4.22 7.54 L 4.3 8.05 L 4.39 8.57 L 4.48 9.08 L 4.58 9.59 L 4.68 10.09 L 4.79 10.6 L 4.91 11.11 L 5.02 11.61 L 5.15 12.12 L 5.28 12.62 L 5.41 13.12 L 5.55 13.62 L 5.69 14.12 L 5.84 14.62 L 5.99 15.11 L 6.15 15.61 L 6.31 16.1 L 6.48 16.59 L 6.65 17.08 L 6.83 17.57 L 7.01 18.06 L 7.0 18.0 L 6.88 18.21 L 6.75 18.42 L 6.62 18.62 L 6.5 18.83 L 6.38 19.04 L 6.25 19.25 L 6.12 19.46 L 6.0 19.67 L 5.88 19.88 L 5.75 20.08 L 5.63 20.29 L 5.5 20.5 L 5.38 20.71 L 5.25 20.92 L 5.12 21.12 L 5.0 21.33 L 4.88 21.54 L 4.75 21.75 L 4.63 21.96 L 4.5 22.17 L 4.38 22.38 L 4.25 22.58 L 4.13 22.79 L 4.0 23.0 L 4.0 23.0 L 4.12 23.29 L 4.25 23.58 L 4.38 23.88 L 4.5 24.17 L 4.62 24.46 L 4.75 24.75 L 4.88 25.04 L 5.0 25.33 L 5.12 25.62 L 5.25 25.92 L 5.38 26.21 L 5.5 26.5 L 5.62 26.79 L 5.75 27.08 L 5.88 27.38 L 6.0 27.67 L 6.12 27.96 L 6.25 28.25 L 6.38 28.54 L 6.5 28.83 L 6.62 29.12 L 6.75 29.42 L 6.88 29.71 L 7.0 30.0" fill="none" stroke="#111" stroke-width="1.25" stroke-linecap="round" stroke-linejoin="round"/>
</svg>
