<?xml version="1.0" encoding="UTF-8"?>
<svg xmlns="http://www.w3.org/2000/svg" viewBox="0 0 24.73 33.74">
<path d="M 9.73 4.0 L 9.73 4.33 L 9.73 4.67 L 9.73 5.0 L 9.73 5.33 L 9.73 5.67 L 9.73 6.0 L 9.73 6.33 L 9.73 6.67 L 9.73 7.0 L 9.73 7.33 L 9.73 7.67 L 9.73 8.0 L 9.73 8.33 L 9.73 8.67 L 9.73 9.0 L 9.73 9.33 L 9.73 9.67 L 9.73 10.0 L 9.73 10.33 L 9.73 10.67 L 9.73 11.0 L 9.73 11.33 L 9.73 11.67 L 9.73 12.0 L 9.73 12.0 L 9.6 12.04 L 9.48 12.08 L 9.35 12.12 L 9.23 12.17 L 9.1 12.21 L 8.98 12.25 L 8.85 12.29 L 8.73 12.33 L 8.6 12.38 L 8.48 12.42 L 8.35 12.46 L 8.23 12.5 L 8.1 12.54 L 7.98 12.58 L 7.85 12.62 L 7.73 12.67 L 7.6 12.71 L 7.48 12.75 L 7.35 12.79 L 7.23 12.83 L 7.1 12.88 L 6.98 12.92 L 6.85 12.96 L 6.73 13.0" fill="none" stroke="#111" stroke-width="1.18" stroke-linecap="round" stroke-linejoin="round"/>
<path d="M 4.73 11.0 L 4.94 10.79 L 5.14 10.58 L 5.35 10.38 L 5.56 10.17 L 5.77 9.96 L 5.98 9.75 L 6.19 9.54 L 6.39 9.33 L 6.6 9.12 L 6.81 8.92 L 7.02 8.71 L 7.23 8.5 L 7.44 8.29 L 7.64 8.08 L 7.85 7.88 L 8.06 7.67 L 8.27 7.46 L 8.48 7.25 L 8.69 7.04 L 8.89 6.83 L 9.1 6.62 L 9.31 6.42 L 9.52 6.21 L 9.73 6.0 L 9.73 6.0 L 9.85 6.17 L 9.98 6.33 L 10.1 6.5 L 10.23 6.67 L 10.35 6.83 L 10.48 7.0 L 10.6 7.17 L 10.73 7.33 L 10.85 7.5 L 10.98 7.67 L 11.1 7.83 L 11.23 8.0 L 11.35 8.17 L 11.48 8.33 L 11.6 8.5 L 11.73 8.67 L 11.85 8.83 L 11.98 9.0 L 12.1 9.17 L 12.23 9.33 L 12.35 9.5 L 12.48 9.67 L 12.6 9.83 L 12.73 10.0" fill="none" stroke="#111" stroke-width="1.18" stroke-linecap="round" stroke-linejoin="round"/>
<path d="M 9.73 12.0 L 9.81 12.04 L 9.89 12.08 L 9.98 12.12 L 10.06 12.17 L 10.14 12.21 L 10.23 12.25 L 10.31 12.29 L 10.39 12.33 L 10.48 12.38 L 10.56 12.42 L 10.64 12.46 L 10.73 12.5 L 10.81 12.54 L 10.89 12.58 L 10.98 12.62 L 11.06 12.67 L 11.14 12.71 L 11.23 12.75 L 11.31 12.79 L 11.39 12.83 L 11.48 12.88 L 11.56 12.92 L 11.64 12.96 L 11.73 13.0" fill="none" stroke="#111" stroke-width="1.18" stroke-linecap="round" stroke-linejoin="round"/>
<path d="M 6.73 13.0 L 6.73 13.67 L 6.73 14.33 L 6.73 15.0 L 6.73 15.67 L 6.73 16.33 L 6.73 17.0 L 6.73 17.67 L 6.73 18.33 L 6.73 19.0 L 6.73 19.67 L 6.73 20.33 L 6.73 21.0 L 6.73 21.67 L 6.73 22.33 L 6.73 23.0 L 6.73 23.67 L 6.73 24.33 L 6.73 25.0 L 6.73 25.67 L 6.73 26.33 L 6.73 27.0 L 6.73 27.67 L 6.73 28.33 L 6.73 29.0" fill="none" stroke="#111" stroke-width="1.18" stroke-linecap="round" stroke-linejoin="round"/>
<path d="M 11.73 13.0 L 11.73 13.25 L 11.73 13.5 L 11.73 13.75 L 11.73 14.0 L 11.73 14.25 L 11.73 14.5 L 11.73 14.75 L 11.73 15.0 L 11.73 15.25 L 11.73 15.5 L 11.73 15.75 L 11.73 16.0 L 11.73 16.25 L 11.73 16.5 L 11.73 16.75 L 11.73 17.0 L 11.73 17.25 L 11.73 17.5 L 11.73 17.75 L 11.73 18.0 L 11.73 18.25 L 11.73 18.5 L 11.73 18.75 L 11.73 19.0" fill="none" stroke="#111" stroke-width="1.18" stroke-linecap="round" stroke-linejoin="round"/>
<path d="M 4.73 27.0 L 4.94 27.0 L 5.14 27.0 L 5.35 27.0 L 5.56 27.0 L 5.77 27.0 L 5.98 27.0 L 6.19 27.0 L 6.39 27.0 L 6.6 27.0 L 6.81 27.0 L 7.02 27.0 L 7.23 27.0 L 7.44 27.0 L 7.64 27.0 L 7.85 27.0 L 8.06 27.0 L 8.27 27.0 L 8.48 27.0 L 8.69 27.0 L 8.89 27.0 L 9.1 27.0 L 9.31 27.0 L 9.52 27.0 L 9.73 27.0 L 9.73 27.0 L 9.65 27.29 L 9.54 27.57 L 9.42 27.85 L 9.26 28.11 L 9.09 28.35 L 8.9 28.59 L 8.69 28.8 L 8.46 29.0 L 8.21 29.17 L 7.95 29.32 L 7.68 29.46 L 7.4 29.56 L 7.11 29.65 L 6.81 29.7 L 6.51 29.74 L 6.21 29.74 L 5.91 29.72 L 5.61 29.68 L 5.32 29.61 L 5.03 29.52 L 4.76 29.4 L 4.49 29.26 L 4.24 29.09 L 4.0 28.91" fill="none" stroke="#111" stroke-width="1.18" stroke-linecap="round" stroke-linejoin="round"/>
<path d="M 14.73 16.0 L 14.73 16.38 L 14.73 16.75 L 14.73 17.12 L 14.73 17.5 L 14.73 17.88 L 14.73 18.25 L 14.73 18.62 L 14.73 19.0 L 14.73 19.38 L 14.73 19.75 L 14.73 20.12 L 14.73 20.5 L 14.73 20.88 L 14.73 21.25 L 14.73 21.62 L 14.73 22.0 L 14.73 22.38 L 14.73 22.75 L 14.73 23.12 L 14.73 23.5 L 14.73 23.88 L 14.73 24.25 L 14.73 24.62 L 14.73 25.0" fill="none" stroke="#111" stroke-width="1.18" stroke-linecap="round" stroke-linejoin="round"/>
<path d="M 12.73 18.0 L 12.81 18.04 L 12.89 18.08 L 12.98 18.12 L 13.06 18.17 L 13.14 18.21 L 13.23 18.25 L 13.31 18.29 L 13.39 18.33 L 13.48 18.38 L 13.56 18.42 L 13.64 18.46 L 13.73 18.5 L 13.81 18.54 L 13.89 18.58 L 13.98 18.62 L 14.06 18.67 L 14.14 18.71 L 14.23 18.75 L 14.31 18.79 L 14.39 18.83 L 14.48 18.88 L 14.56 18.92 L 14.64 18.96 L 14.73 19.0" fill="none" stroke="#111" stroke-width="1.18" stroke-linecap="round" stroke-linejoin="round"/>
<path d="M 11.73 20.0 L 11.85 20.04 L 11.98 20.08 L 12.1 20.12 L 12.23 20.17 L 12.35 20.21 L 12.48 20.25 L 12.6 20.29 L 12.73 20.33 L 12.85 20.38 L 12.98 20.42 L 13.1 20.46 L 13.23 20.5 L 13.35 20.54 L 13.48 20.58 L 13.6 20.62 L 13.73 20.67 L 13.85 20.71 L 13.98 20.75 L 14.1 20.79 L 14.23 20.83 L 14.35 20.88 L 14.48 20.92 L 14.6 20.96 L 14.73 21.0" fill="none" stroke="#111" stroke-width="1.18" stroke-linecap="round" stroke-linejoin="round"/>
<path d="M 11.73 23.0 L 11.85 23.0 L 11.98 23.0 L 12.1 23.0 L 12.23 23.0 L 12.35 23.0 L 12.48 23.0 L 12.6 23.0 L 12.73 23.0 L 12.85 23.0 L 12.98 23.0 L 13.1 23.0 L 13.23 23.0 L 13.35 23.0 L 13.48 23.0 L 13.6 23.0 L 13.73 23.0 L 13.85 23.0 L 13.98 23.0 L 14.1 23.0 L 14.23 23.0 L 14.35 23.0 L 14.48 23.0 L 14.6 23.0 L 14.73 23.0" fill="none" stroke="#111" stroke-width="1.18" stroke-linecap="round" stroke-linejoin="round"/>
<path d="M 14.73 24.0 L 14.98 24.17 L 15.23 24.33 L 15.48 24.5 L 15.73 24.67 L 15.98 24.83 L 16.23 25.0 L 16.48 25.17 L 16.73 25.33 L 16.98 25.5 L 17.23 25.67 L 17.48 25.83 L 17.73 26.0 L 17.98 26.17 L 18.23 26.33 L 18.48 26.5 L 18.73 26.67 L 18.98 26.83 L 19.23 27.0 L 19.48 27.17 L 19.73 27.33 L 19.98 27.5 L 20.23 27.67 L 20.48 27.83 L 20.73 28.0" fill="none" stroke="#111" stroke-width="1.18" stroke-linecap="round" stroke-linejoin="round"/>
<path d="M 17.73 22.0 L 17.6 22.29 L 17.48 22.58 L 17.35 22.88 L 17.23 23.17 L 17.1 23.46 L 16.98 23.75 L 16.85 24.04 L 16.73 24.33 L 16.6 24.62 L 16.48 24.92 L 16.35 25.21 L 16.23 25.5 L 16.1 25.79 L 15.98 26.08 L 15.85 26.38 L 15.73 26.67 L 15.6 26.96 L 15.48 27.25 L 15.35 27.54 L 15.23 27.83 L 15.1 28.12 L 14.98 28.42 L 14.85 28.71 L 14.73 29.0" fill="none" stroke="#111" stroke-width="1.18" stroke-linecap="round" stroke-linejoin="round"/>
</svg>
