<?xml version="1.0" encoding="UTF-8"?>
<svg xmlns="http://www.w3.org/2000/svg" viewBox="0 0 26.82 30.00">
<path d="M 11.0 9.0 L 11.0 9.71 L 11.0 10.42 L 11.0 11.12 L 11.0 11.83 L 11.0 12.54 L 11.0 13.25 L 11.0 13.96 L 11.0 14.67 L 11.0 15.38 L 11.0 16.08 L 11.0 16.79 L 11.0 17.5 L 11.0 18.21 L 11.0 18.92 L 11.0 19.62 L 11.0 20.33 L 11.0 21.04 L 11.0 21.75 L 11.0 22.46 L 11.0 23.17 L 11.0 23.88 L 11.0 24.58 L 11.0 25.29 L 11.0 26.0" fill="none" stroke="#111" stroke-width="1.05" stroke-linecap="round" stroke-linejoin="round"/>
<path d="M 7.0 7.0 L 7.3 7.34 L 7.64 7.64 L 8.01 7.9 L 8.4 8.13 L 8.81 8.31 L 9.25 8.45 L 9.69 8.55 L 10.14 8.6 L 10.59 8.6 L 11.04 8.56 L 11.49 8.46 L 11.92 8.33 L 12.33 8.15 L 12.73 7.92 L 13.1 7.66 L 13.44 7.36 L 13.74 7.03 L 14.01 6.67 L 14.25 6.28 L 14.44 5.87 L 14.58 5.44 L 14.69 5.0 L 14.74 4.55 L 14.75 4.09" fill="none" stroke="#111" stroke-width="1.05" stroke-linecap="round" stroke-linejoin="round"/>
<path d="M 7.0 7.0 L 7.0 7.29 L 7.0 7.58 L 7.0 7.88 L 7.0 8.17 L 7.0 8.46 L 7.0 8.75 L 7.0 9.04 L 7.0 9.33 L 7.0 9.62 L 7.0 9.92 L 7.0 10.21 L 7.0 10.5 L 7.0 10.79 L 7.0 11.08 L 7.0 11.38 L 7.0 11.67 L 7.0 11.96 L 7.0 12.25 L 7.0 12.54 L 7.0 12.83 L 7.0 13.12 L 7.0 13.42 L 7.0 13.71 L 7.0 14.0" fill="none" stroke="#111" stroke-width="1.05" stroke-linecap="round" stroke-linejoin="round"/>
<path d="M 4.0 13.0 L 4.12 12.88 L 4.25 12.75 L 4.38 12.62 L 4.5 12.5 L 4.62 12.38 L 4.75 12.25 L 4.88 12.12 L 5.0 12.0 L 5.12 11.88 L 5.25 11.75 L 5.38 11.62 L 5.5 11.5 L 5.62 11.38 L 5.75 11.25 L 5.88 11.12 L 6.0 11.0 L 6.12 10.88 L 6.25 10.75 L 6.38 10.62 L 6.5 10.5 L 6.62 10.38 L 6.75 10.25 L 6.88 10.12 L 7.0 10.0 L 7.0 10.0 L 7.08 10.12 L 7.17 10.25 L 7.25 10.38 L 7.33 10.5 L 7.42 10.62 L 7.5 10.75 L 7.58 10.88 L 7.67 11.0 L 7.75 11.12 L 7.83 11.25 L 7.92 11.38 L 8.0 11.5 L 8.08 11.62 L 8.17 11.75 L 8.25 11.88 L 8.33 12.0 L 8.42 12.12 L 8.5 12.25 L 8.58 12.38 L 8.67 12.5 L 8.75 12.62 L 8.83 12.75 L 8.92 12.88 L 9.0 13.0" fill="none" stroke="#111" stroke-width="1.05" stroke-linecap="round" stroke-linejoin="round"/>
<path d="M 15.0 4.0 L 15.0 4.29 L 15.0 4.58 L 15.0 4.88 L 15.0 5.17 L 15.0 5.46 L 15.0 5.75 L 15.0 6.04 L 15.0 6.33 L 15.0 6.62 L 15.0 6.92 L 15.0 7.21 L 15.0 7.5 L 15.0 7.79 L 15.0 8.08 L 15.0 8.38 L 15.0 8.67 L 15.0 8.96 L 15.0 9.25 L 15.0 9.54 L 15.0 9.83 L 15.0 10.12 L 15.0 10.42 L 15.0 10.71 L 15.0 11.0" fill="none" stroke="#111" stroke-width="1.05" stroke-linecap="round" stroke-linejoin="round"/>
<path d="M 13.0 11.0 L 13.08 10.83 L 13.17 10.67 L 13.25 10.5 L 13.33 10.33 L 13.42 10.17 L 13.5 10.0 L 13.58 9.83 L 13.67 9.67 L 13.75 9.5 L 13.83 9.33 L 13.92 9.17 L 14.0 9.0 L 14.08 8.83 L 14.17 8.67 L 14.25 8.5 L 14.33 8.33 L 14.42 8.17 L 14.5 8.0 L 14.58 7.83 L 14.67 7.67 L 14.75 7.5 L 14.83 7.33 L 14.92 7.17 L 15.0 7.0 L 15.0 7.0 L 15.12 7.12 L 15.25 7.25 L 15.38 7.38 L 15.5 7.5 L 15.62 7.62 L 15.75 7.75 L 15.88 7.88 L 16.0 8.0 L 16.12 8.12 L 16.25 8.25 L 16.38 8.38 L 16.5 8.5 L 16.62 8.62 L 16.75 8.75 L 16.88 8.88 L 17.0 9.0 L 17.12 9.12 L 17.25 9.25 L 17.38 9.38 L 17.5 9.5 L 17.62 9.62 L 17.75 9.75 L 17.88 9.88 L 18.0 10.0" fill="none" stroke="#111" stroke-width="1.05" stroke-linecap="round" stroke-linejoin="round"/>
<path d="M 6.0 23.0 L 6.21 22.75 L 6.42 22.5 L 6.62 22.25 L 6.83 22.0 L 7.04 21.75 L 7.25 21.5 L 7.46 21.25 L 7.67 21.0 L 7.88 20.75 L 8.08 20.5 L 8.29 20.25 L 8.5 20.0 L 8.71 19.75 L 8.92 19.5 L 9.12 19.25 L 9.33 19.0 L 9.54 18.75 L 9.75 18.5 L 9.96 18.25 L 10.17 18.0 L 10.38 17.75 L 10.58 17.5 L 10.79 17.25 L 11.0 17.0 L 11.0 17.0 L 11.17 17.25 L 11.33 17.5 L 11.5 17.75 L 11.67 18.0 L 11.83 18.25 L 12.0 18.5 L 12.17 18.75 L 12.33 19.0 L 12.5 19.25 L 12.67 19.5 L 12.83 19.75 L 13.0 20.0 L 13.17 20.25 L 13.33 20.5 L 13.5 20.75 L 13.67 21.0 L 13.83 21.25 L 14.0 21.5 L 14.17 21.75 L 14.33 22.0 L 14.5 22.25 L 14.67 22.5 L 14.83 22.75 L 15.0 23.0" fill="none" stroke="#111" stroke-width="1.05" stroke-linecap="round" stroke-linejoin="round"/>
<path d="M 22.0 4.0 L 22.25 4.76 L 22.45 5.53 L 22.61 6.31 L 22.73 7.09 L 22.8 7.89 L 22.82 8.68 L 22.8 9.48 L 22.74 10.27 L 22.63 11.06 L 22.47 11.84 L 22.27 12.61 L 22.03 13.37 L 21.74 14.11 L 21.41 14.84 L 21.05 15.54 L 20.64 16.23 L 20.19 16.89 L 19.71 17.52 L 19.19 18.12 L 18.63 18.7 L 18.05 19.24 L 17.44 19.74 L 16.79 20.21 L 16.12 20.65" fill="none" stroke="#111" stroke-width="1.05" stroke-linecap="round" stroke-linejoin="round"/>
<path d="M 21.0 11.0 L 20.75 11.21 L 20.5 11.42 L 20.25 11.62 L 20.0 11.83 L 19.75 12.04 L 19.5 12.25 L 19.25 12.46 L 19.0 12.67 L 18.75 12.88 L 18.5 13.08 L 18.25 13.29 L 18.0 13.5 L 17.75 13.71 L 17.5 13.92 L 17.25 14.12 L 17.0 14.33 L 16.75 14.54 L 16.5 14.75 L 16.25 14.96 L 16.0 15.17 L 15.75 15.38 L 15.5 15.58 L 15.25 15.79 L 15.0 16.0" fill="none" stroke="#111" stroke-width="1.05" stroke-linecap="round" stroke-linejoin="round"/>
</svg>
