<?xml version="1.0" encoding="UTF-8"?>
<svg xmlns="http://www.w3.org/2000/svg" viewBox="0 0 21.92 26.97">
<path d="M 8.29 4.0 L 7.33 4.79 L 6.48 5.69 L 5.73 6.69 L 5.11 7.76 L 4.62 8.91 L 4.27 10.1 L 4.06 11.32 L 4.0 12.56 L 4.08 13.8 L 4.32 15.02 L 4.69 16.21 L 5.2 17.34 L 5.84 18.4 L 6.6 19.39 L 7.47 20.27 L 8.44 21.05 L 9.5 21.7 L 10.62 22.23 L 11.8 22.62 L 13.02 22.86 L 14.26 22.97 L 15.5 22.92 L 16.73 22.73 L 17.92 22.4" fill="none" stroke="#111" stroke-width="0.94" stroke-linecap="round" stroke-linejoin="round"/>
<path d="M 8.29 16.0 L 8.4 16.44 L 8.54 16.88 L 8.72 17.3 L 8.94 17.7 L 9.18 18.09 L 9.45 18.46 L 9.75 18.8 L 10.08 19.12 L 10.43 19.41 L 10.8 19.68 L 11.2 19.91 L 11.61 20.11 L 12.03 20.28 L 12.47 20.42 L 12.91 20.52 L 13.37 20.58 L 13.82 20.61 L 14.28 20.6 L 14.73 20.56 L 15.18 20.48 L 15.63 20.37 L 16.06 20.22 L 16.48 20.03 L 16.88 19.82" fill="none" stroke="#111" stroke-width="0.94" stroke-linecap="round" stroke-linejoin="round"/>
<path d="M 12.29 6.0 L 12.37 6.42 L 12.46 6.83 L 12.54 7.25 L 12.62 7.67 L 12.71 8.08 L 12.79 8.5 L 12.87 8.92 L 12.96 9.33 L 13.04 9.75 L 13.12 10.17 L 13.21 10.58 L 13.29 11.0 L 13.37 11.42 L 13.46 11.83 L 13.54 12.25 L 13.62 12.67 L 13.71 13.08 L 13.79 13.5 L 13.87 13.92 L 13.96 14.33 L 14.04 14.75 L 14.12 15.17 L 14.21 15.58 L 14.29 16.0" fill="none" stroke="#111" stroke-width="0.94" stroke-linecap="round" stroke-linejoin="round"/>
</svg>
