<?xml version="1.0" encoding="UTF-8"?>
<svg xmlns="http://www.w3.org/2000/svg" viewBox="0 0 24.00 33.66">
<path d="M 7.0 6.0 L 7.0 6.62 L 7.0 7.25 L 7.0 7.88 L 7.0 8.5 L 7.0 9.12 L 7.0 9.75 L 7.0 10.38 L 7.0 11.0 L 7.0 11.62 L 7.0 12.25 L 7.0 12.88 L 7.0 13.5 L 7.0 14.12 L 7.0 14.75 L 7.0 15.38 L 7.0 16.0 L 7.0 16.62 L 7.0 17.25 L 7.0 17.88 L 7.0 18.5 L 7.0 19.12 L 7.0 19.75 L 7.0 20.38 L 7.0 21.0" fill="none" stroke="#111" stroke-width="1.18" stroke-linecap="round" stroke-linejoin="round"/>
<path d="M 4.0 20.0 L 4.25 19.88 L 4.5 19.75 L 4.75 19.62 L 5.0 19.5 L 5.25 19.38 L 5.5 19.25 L 5.75 19.12 L 6.0 19.0 L 6.25 18.88 L 6.5 18.75 L 6.75 18.62 L 7.0 18.5 L 7.25 18.38 L 7.5 18.25 L 7.75 18.12 L 8.0 18.0 L 8.25 17.88 L 8.5 17.75 L 8.75 17.62 L 9.0 17.5 L 9.25 17.38 L 9.5 17.25 L 9.75 17.12 L 10.0 17.0" fill="none" stroke="#111" stroke-width="1.18" stroke-linecap="round" stroke-linejoin="round"/>
<path d="M 7.0 21.0 L 6.88 21.29 L 6.75 21.58 L 6.62 21.88 L 6.5 22.17 L 6.38 22.46 L 6.25 22.75 L 6.12 23.04 L 6.0 23.33 L 5.88 23.62 L 5.75 23.92 L 5.62 24.21 L 5.5 24.5 L 5.38 24.79 L 5.25 25.08 L 5.12 25.38 L 5.0 25.67 L 4.88 25.96 L 4.75 26.25 L 4.63 26.54 L 4.5 26.83 L 4.38 27.12 L 4.25 27.42 L 4.12 27.71 L 4.0 28.0" fill="none" stroke="#111" stroke-width="1.18" stroke-linecap="round" stroke-linejoin="round"/>
<path d="M 7.0 21.0 L 7.32 21.29 L 7.61 21.6 L 7.88 21.94 L 8.12 22.29 L 8.33 22.67 L 8.51 23.06 L 8.65 23.47 L 8.76 23.88 L 8.84 24.3 L 8.88 24.73 L 8.88 25.16 L 8.85 25.59 L 8.79 26.01 L 8.69 26.43 L 8.55 26.84 L 8.39 27.24 L 8.19 27.62 L 7.96 27.98 L 7.7 28.32 L 7.41 28.64 L 7.1 28.94 L 6.77 29.21 L 6.41 29.45 L 6.04 29.66" fill="none" stroke="#111" stroke-width="1.18" stroke-linecap="round" stroke-linejoin="round"/>
<path d="M 6.0 24.0 L 6.08 24.04 L 6.17 24.08 L 6.25 24.12 L 6.33 24.17 L 6.42 24.21 L 6.5 24.25 L 6.58 24.29 L 6.67 24.33 L 6.75 24.38 L 6.83 24.42 L 6.92 24.46 L 7.0 24.5 L 7.08 24.54 L 7.17 24.58 L 7.25 24.62 L 7.33 24.67 L 7.42 24.71 L 7.5 24.75 L 7.58 24.79 L 7.67 24.83 L 7.75 24.88 L 7.83 24.92 L 7.92 24.96 L 8.0 25.0" fill="none" stroke="#111" stroke-width="1.18" stroke-linecap="round" stroke-linejoin="round"/>
<path d="M 4.0 27.0 L 4.12 27.0 L 4.25 27.0 L 4.38 27.0 L 4.5 27.0 L 4.62 27.0 L 4.75 27.0 L 4.88 27.0 L 5.0 27.0 L 5.12 27.0 L 5.25 27.0 L 5.38 27.0 L 5.5 27.0 L 5.62 27.0 L 5.75 27.0 L 5.88 27.0 L 6.0 27.0 L 6.12 27.0 L 6.25 27.0 L 6.38 27.0 L 6.5 27.0 L 6.62 27.0 L 6.75 27.0 L 6.88 27.0 L 7.0 27.0" fill="none" stroke="#111" stroke-width="1.18" stroke-linecap="round" stroke-linejoin="round"/>
<path d="M 8.0 6.0 L 8.24 6.15 L 8.46 6.32 L 8.68 6.5 L 8.88 6.7 L 9.06 6.91 L 9.23 7.14 L 9.38 7.38 L 9.52 7.63 L 9.63 7.88 L 9.73 8.15 L 9.8 8.42 L 9.86 8.7 L 9.9 8.98 L 9.91 9.26 L 9.91 9.54 L 9.88 9.82 L 9.84 10.1 L 9.77 10.37 L 9.68 10.64 L 9.58 10.9 L 9.45 11.15 L 9.31 11.4 L 9.15 11.63 L 8.98 11.85" fill="none" stroke="#111" stroke-width="1.18" stroke-linecap="round" stroke-linejoin="round"/>
<path d="M 9.0 13.0 L 9.26 13.19 L 9.51 13.4 L 9.75 13.63 L 9.96 13.88 L 10.16 14.13 L 10.35 14.41 L 10.51 14.69 L 10.65 14.98 L 10.77 15.29 L 10.88 15.6 L 10.95 15.91 L 11.01 16.23 L 11.05 16.56 L 11.06 16.89 L 11.05 17.21 L 11.02 17.54 L 10.96 17.86 L 10.88 18.18 L 10.79 18.49 L 10.67 18.79 L 10.53 19.09 L 10.36 19.37 L 10.18 19.64 L 9.99 19.9" fill="none" stroke="#111" stroke-width="1.18" stroke-linecap="round" stroke-linejoin="round"/>
<path d="M 8.0 9.0 L 8.35 8.96 L 8.7 8.95 L 9.05 8.96 L 9.4 8.99 L 9.74 9.05 L 10.08 9.13 L 10.41 9.24 L 10.74 9.37 L 11.05 9.52 L 11.36 9.7 L 11.65 9.89 L 11.93 10.11 L 12.19 10.34 L 12.43 10.59 L 12.66 10.86 L 12.86 11.14 L 13.05 11.44 L 13.21 11.75 L 13.36 12.07 L 13.48 12.39 L 13.58 12.73 L 13.65 13.07 L 13.7 13.42 L 13.72 13.77 L 14.0 14.0 L 14.08 13.83 L 14.17 13.67 L 14.25 13.5 L 14.33 13.33 L 14.42 13.17 L 14.5 13.0 L 14.58 12.83 L 14.67 12.67 L 14.75 12.5 L 14.83 12.33 L 14.92 12.17 L 15.0 12.0 L 15.08 11.83 L 15.17 11.67 L 15.25 11.5 L 15.33 11.33 L 15.42 11.17 L 15.5 11.0 L 15.58 10.83 L 15.67 10.67 L 15.75 10.5 L 15.83 10.33 L 15.92 10.17 L 16.0 10.0" fill="none" stroke="#111" stroke-width="1.18" stroke-linecap="round" stroke-linejoin="round"/>
<path d="M 10.0 16.0 L 10.22 15.99 L 10.44 15.98 L 10.65 16.0 L 10.87 16.02 L 11.09 16.06 L 11.3 16.11 L 11.51 16.18 L 11.71 16.26 L 11.91 16.35 L 12.1 16.45 L 12.29 16.56 L 12.47 16.69 L 12.64 16.83 L 12.8 16.97 L 12.95 17.13 L 13.09 17.3 L 13.23 17.47 L 13.35 17.65 L 13.46 17.84 L 13.55 18.04 L 13.64 18.24 L 13.71 18.44 L 13.77 18.65 L 13.82 18.87 L 14.0 19.0 L 14.12 18.96 L 14.25 18.92 L 14.38 18.88 L 14.5 18.83 L 14.62 18.79 L 14.75 18.75 L 14.88 18.71 L 15.0 18.67 L 15.12 18.62 L 15.25 18.58 L 15.38 18.54 L 15.5 18.5 L 15.62 18.46 L 15.75 18.42 L 15.88 18.38 L 16.0 18.33 L 16.12 18.29 L 16.25 18.25 L 16.38 18.21 L 16.5 18.17 L 16.62 18.12 L 16.75 18.08 L 16.88 18.04 L 17.0 18.0" fill="none" stroke="#111" stroke-width="1.18" stroke-linecap="round" stroke-linejoin="round"/>
<path d="M 11.0 21.0 L 11.25 21.14 L 11.49 21.3 L 11.71 21.47 L 11.93 21.65 L 12.13 21.85 L 12.32 22.06 L 12.5 22.28 L 12.66 22.52 L 12.81 22.76 L 12.94 23.01 L 13.06 23.27 L 13.16 23.54 L 13.24 23.81 L 13.3 24.09 L 13.35 24.37 L 13.37 24.65 L 13.38 24.94 L 13.38 25.22 L 13.35 25.51 L 13.31 25.79 L 13.24 26.07 L 13.17 26.34 L 13.07 26.61 L 12.96 26.87" fill="none" stroke="#111" stroke-width="1.18" stroke-linecap="round" stroke-linejoin="round"/>
<path d="M 11.0 25.0 L 11.29 25.04 L 11.58 25.08 L 11.88 25.12 L 12.17 25.17 L 12.46 25.21 L 12.75 25.25 L 13.04 25.29 L 13.33 25.33 L 13.62 25.38 L 13.92 25.42 L 14.21 25.46 L 14.5 25.5 L 14.79 25.54 L 15.08 25.58 L 15.38 25.62 L 15.67 25.67 L 15.96 25.71 L 16.25 25.75 L 16.54 25.79 L 16.83 25.83 L 17.12 25.88 L 17.42 25.92 L 17.71 25.96 L 18.0 26.0 L 18.0 26.0 L 17.71 26.04 L 17.42 26.08 L 17.12 26.12 L 16.83 26.17 L 16.54 26.21 L 16.25 26.25 L 15.96 26.29 L 15.67 26.33 L 15.38 26.38 L 15.08 26.42 L 14.79 26.46 L 14.5 26.5 L 14.21 26.54 L 13.92 26.58 L 13.62 26.62 L 13.33 26.67 L 13.04 26.71 L 12.75 26.75 L 12.46 26.79 L 12.17 26.83 L 11.88 26.88 L 11.58 26.92 L 11.29 26.96 L 11.0 27.0" fill="none" stroke="#111" stroke-width="1.18" stroke-linecap="round" stroke-linejoin="round"/>
<path d="M 16.0 4.0 L 15.88 4.46 L 15.79 4.93 L 15.72 5.4 L 15.68 5.87 L 15.66 6.34 L 15.67 6.82 L 15.71 7.29 L 15.77 7.76 L 15.86 8.23 L 15.98 8.69 L 16.11 9.15 L 16.28 9.59 L 16.47 10.03 L 16.68 10.45 L 16.91 10.87 L 17.17 11.26 L 17.45 11.65 L 17.75 12.02 L 18.07 12.37 L 18.41 12.7 L 18.77 13.01 L 19.14 13.31 L 19.53 13.58 L 19.93 13.83 L 20.0 14.0 L 19.88 14.5 L 19.75 15.0 L 19.62 15.5 L 19.5 16.0 L 19.38 16.5 L 19.25 17.0 L 19.12 17.5 L 19.0 18.0 L 18.88 18.5 L 18.75 19.0 L 18.62 19.5 L 18.5 20.0 L 18.38 20.5 L 18.25 21.0 L 18.12 21.5 L 18.0 22.0 L 17.88 22.5 L 17.75 23.0 L 17.62 23.5 L 17.5 24.0 L 17.38 24.5 L 17.25 25.0 L 17.12 25.5 L 17.0 26.0" fill="none" stroke="#111" stroke-width="1.18" stroke-linecap="round" stroke-linejoin="round"/>
</svg>
