<?xml version="1.0" encoding="UTF-8"?>
<svg xmlns="http://www.w3.org/2000/svg" viewBox="0 0 26.24 28.67">
<path d="M 11.8 4.0 L 11.8 4.38 L 11.8 4.75 L 11.8 5.12 L 11.8 5.5 L 11.8 5.88 L 11.8 6.25 L 11.8 6.62 L 11.8 7.0 L 11.8 7.38 L 11.8 7.75 L 11.8 8.12 L 11.8 8.5 L 11.8 8.88 L 11.8 9.25 L 11.8 9.62 L 11.8 10.0 L 11.8 10.38 L 11.8 10.75 L 11.8 11.12 L 11.8 11.5 L 11.8 11.88 L 11.8 12.25 L 11.8 12.62 L 11.8 13.0 L 11.8 13.0 L 11.67 13.12 L 11.55 13.25 L 11.42 13.38 L 11.3 13.5 L 11.17 13.62 L 11.05 13.75 L 10.92 13.88 L 10.8 14.0 L 10.67 14.12 L 10.55 14.25 L 10.42 14.38 L 10.3 14.5 L 10.17 14.62 L 10.05 14.75 L 9.92 14.88 L 9.8 15.0 L 9.67 15.12 L 9.55 15.25 L 9.42 15.38 L 9.3 15.5 L 9.17 15.62 L 9.05 15.75 L 8.92 15.88 L 8.8 16.0" fill="none" stroke="#111" stroke-width="1.00" stroke-linecap="round" stroke-linejoin="round"/>
<path d="M 5.8 10.0 L 5.92 10.17 L 6.05 10.33 L 6.17 10.5 L 6.3 10.67 L 6.42 10.83 L 6.55 11.0 L 6.67 11.17 L 6.8 11.33 L 6.92 11.5 L 7.05 11.67 L 7.17 11.83 L 7.3 12.0 L 7.42 12.17 L 7.55 12.33 L 7.67 12.5 L 7.8 12.67 L 7.92 12.83 L 8.05 13.0 L 8.17 13.17 L 8.3 13.33 L 8.42 13.5 L 8.55 13.67 L 8.67 13.83 L 8.8 14.0" fill="none" stroke="#111" stroke-width="1.00" stroke-linecap="round" stroke-linejoin="round"/>
<path d="M 5.8 10.0 L 5.06 11.16 L 4.51 12.42 L 4.16 13.75 L 4.0 15.12 L 4.05 16.49 L 4.3 17.85 L 4.76 19.14 L 5.4 20.36 L 6.22 21.47 L 7.19 22.44 L 8.29 23.26 L 9.51 23.9 L 10.81 24.36 L 12.16 24.62 L 13.53 24.67 L 14.9 24.52 L 16.23 24.16 L 17.49 23.61 L 18.65 22.88 L 19.7 21.99 L 20.6 20.95 L 21.33 19.78 L 21.88 18.52 L 22.24 17.19 L 21.8 17.0 L 21.63 16.67 L 21.46 16.33 L 21.3 16.0 L 21.13 15.67 L 20.96 15.33 L 20.8 15.0 L 20.63 14.67 L 20.46 14.33 L 20.3 14.0 L 20.13 13.67 L 19.96 13.33 L 19.8 13.0 L 19.63 12.67 L 19.46 12.33 L 19.3 12.0 L 19.13 11.67 L 18.96 11.33 L 18.8 11.0 L 18.63 10.67 L 18.46 10.33 L 18.3 10.0 L 18.13 9.67 L 17.96 9.33 L 17.8 9.0 L 17.8 9.0 L 17.75 9.33 L 17.71 9.67 L 17.67 10.0 L 17.63 10.33 L 17.59 10.67 L 17.55 11.0 L 17.5 11.33 L 17.46 11.67 L 17.42 12.0 L 17.38 12.33 L 17.34 12.67 L 17.3 13.0 L 17.25 13.33 L 17.21 13.67 L 17.17 14.0 L 17.13 14.33 L 17.09 14.67 L 17.05 15.0 L 17.0 15.33 L 16.96 15.67 L 16.92 16.0 L 16.88 16.33 L 16.84 16.67 L 16.8 17.0 L 16.8 17.0 L 16.59 16.83 L 16.38 16.67 L 16.17 16.5 L 15.96 16.33 L 15.75 16.17 L 15.55 16.0 L 15.34 15.83 L 15.13 15.67 L 14.92 15.5 L 14.71 15.33 L 14.5 15.17 L 14.3 15.0 L 14.09 14.83 L 13.88 14.67 L 13.67 14.5 L 13.46 14.33 L 13.25 14.17 L 13.05 14.0 L 12.84 13.83 L 12.63 13.67 L 12.42 13.5 L 12.21 13.33 L 12.0 13.17 L 11.8 13.0" fill="none" stroke="#111" stroke-width="1.00" stroke-linecap="round" stroke-linejoin="round"/>
</svg>
