<?xml version="1.0" encoding="UTF-8"?>
<svg xmlns="http://www.w3.org/2000/svg" viewBox="0 0 24.07 31.00">
<path d="M 7.07 10.0 L 7.53 9.96 L 7.99 9.92 L 8.45 9.88 L 8.91 9.83 L 9.36 9.79 L 9.82 9.75 L 10.28 9.71 L 10.74 9.67 L 11.2 9.62 L 11.66 9.58 L 12.11 9.54 L 12.57 9.5 L 13.03 9.46 L 13.49 9.42 L 13.95 9.38 L 14.41 9.33 L 14.86 9.29 L 15.32 9.25 L 15.78 9.21 L 16.24 9.17 L 16.7 9.12 L 17.16 9.08 L 17.61 9.04 L 18.07 9.0" fill="none" stroke="#111" stroke-width="1.09" stroke-linecap="round" stroke-linejoin="round"/>
<path d="M 18.07 4.0 L 17.86 4.04 L 17.66 4.08 L 17.45 4.12 L 17.24 4.17 L 17.03 4.21 L 16.82 4.25 L 16.61 4.29 L 16.41 4.33 L 16.2 4.38 L 15.99 4.42 L 15.78 4.46 L 15.57 4.5 L 15.36 4.54 L 15.16 4.58 L 14.95 4.62 L 14.74 4.67 L 14.53 4.71 L 14.32 4.75 L 14.11 4.79 L 13.91 4.83 L 13.7 4.88 L 13.49 4.92 L 13.28 4.96 L 13.07 5.0 L 13.07 5.0 L 13.2 5.88 L 13.32 6.75 L 13.45 7.62 L 13.57 8.5 L 13.7 9.38 L 13.82 10.25 L 13.95 11.12 L 14.07 12.0 L 14.2 12.88 L 14.32 13.75 L 14.45 14.62 L 14.57 15.5 L 14.7 16.38 L 14.82 17.25 L 14.95 18.12 L 15.07 19.0 L 15.2 19.88 L 15.32 20.75 L 15.45 21.62 L 15.57 22.5 L 15.7 23.38 L 15.82 24.25 L 15.95 25.12 L 16.07 26.0" fill="none" stroke="#111" stroke-width="1.09" stroke-linecap="round" stroke-linejoin="round"/>
<path d="M 17.07 14.0 L 16.86 14.21 L 16.66 14.42 L 16.45 14.62 L 16.24 14.83 L 16.03 15.04 L 15.82 15.25 L 15.61 15.46 L 15.41 15.67 L 15.2 15.88 L 14.99 16.08 L 14.78 16.29 L 14.57 16.5 L 14.36 16.71 L 14.16 16.92 L 13.95 17.12 L 13.74 17.33 L 13.53 17.54 L 13.32 17.75 L 13.11 17.96 L 12.91 18.17 L 12.7 18.38 L 12.49 18.58 L 12.28 18.79 L 12.07 19.0" fill="none" stroke="#111" stroke-width="1.09" stroke-linecap="round" stroke-linejoin="round"/>
<path d="M 20.07 25.0 L 19.74 25.08 L 19.41 25.17 L 19.07 25.25 L 18.74 25.33 L 18.41 25.42 L 18.07 25.5 L 17.74 25.58 L 17.41 25.67 L 17.07 25.75 L 16.74 25.83 L 16.41 25.92 L 16.07 26.0 L 15.74 26.08 L 15.41 26.17 L 15.07 26.25 L 14.74 26.33 L 14.41 26.42 L 14.07 26.5 L 13.74 26.58 L 13.41 26.67 L 13.07 26.75 L 12.74 26.83 L 12.41 26.92 L 12.07 27.0" fill="none" stroke="#111" stroke-width="1.09" stroke-linecap="round" stroke-linejoin="round"/>
<path d="M 4.07 17.0 L 4.0 17.84 L 4.08 18.69 L 4.3 19.5 L 4.67 20.27 L 5.16 20.95 L 5.77 21.54 L 6.47 22.02 L 7.24 22.36 L 8.06 22.56 L 8.91 22.61 L 9.75 22.51 L 10.56 22.27 L 11.31 21.89 L 11.99 21.38 L 12.57 20.76 L 13.02 20.05 L 13.35 19.26 L 13.53 18.44 L 13.56 17.59 L 13.44 16.75 L 13.18 15.95 L 12.78 15.2 L 12.26 14.54 L 11.62 13.98 L 9.07 15.0 L 9.07 15.0 L 9.07 15.0 L 9.07 15.0 L 9.07 15.0 L 9.07 15.0 L 9.07 15.0 L 9.07 15.0 L 9.07 15.0 L 9.07 15.0 L 9.07 15.0 L 9.07 15.0 L 9.07 15.0 L 9.07 15.0 L 9.07 15.0 L 9.07 15.0 L 9.07 15.0 L 9.07 15.0 L 9.07 15.0 L 9.07 15.0 L 9.07 15.0 L 9.07 15.0 L 9.07 15.0 L 9.07 15.0 L 9.07 15.0" fill="none" stroke="#111" stroke-width="1.09" stroke-linecap="round" stroke-linejoin="round"/>
<path d="M 9.07 18.0 L 8.91 18.04 L 8.74 18.08 L 8.57 18.12 L 8.41 18.17 L 8.24 18.21 L 8.07 18.25 L 7.91 18.29 L 7.74 18.33 L 7.57 18.38 L 7.41 18.42 L 7.24 18.46 L 7.07 18.5 L 6.91 18.54 L 6.74 18.58 L 6.57 18.62 L 6.41 18.67 L 6.24 18.71 L 6.07 18.75 L 5.91 18.79 L 5.74 18.83 L 5.57 18.88 L 5.41 18.92 L 5.24 18.96 L 5.07 19.0" fill="none" stroke="#111" stroke-width="1.09" stroke-linecap="round" stroke-linejoin="round"/>
</svg>
