<?xml version="1.0" encoding="UTF-8"?>
<svg xmlns="http://www.w3.org/2000/svg" viewBox="0 0 24.04 38.00">
<path d="M 12.04 7.0 L 11.32 6.93 L 10.61 6.98 L 9.91 7.14 L 9.25 7.42 L 8.64 7.81 L 8.11 8.29 L 7.66 8.85 L 7.31 9.48 L 7.08 10.15 L 6.95 10.86 L 6.95 11.58 L 7.06 12.29 L 7.3 12.97 L 7.64 13.6 L 8.08 14.16 L 8.61 14.65 L 9.21 15.04 L 9.87 15.33 L 10.56 15.5 L 11.28 15.55 L 11.99 15.49 L 12.69 15.31 L 13.34 15.01 L 13.94 14.61" fill="none" stroke="#111" stroke-width="1.33" stroke-linecap="round" stroke-linejoin="round"/>
<path d="M 9.04 7.0 L 9.04 7.17 L 9.04 7.33 L 9.04 7.5 L 9.04 7.67 L 9.04 7.83 L 9.04 8.0 L 9.04 8.17 L 9.04 8.33 L 9.04 8.5 L 9.04 8.67 L 9.04 8.83 L 9.04 9.0 L 9.04 9.17 L 9.04 9.33 L 9.04 9.5 L 9.04 9.67 L 9.04 9.83 L 9.04 10.0 L 9.04 10.17 L 9.04 10.33 L 9.04 10.5 L 9.04 10.67 L 9.04 10.83 L 9.04 11.0" fill="none" stroke="#111" stroke-width="1.33" stroke-linecap="round" stroke-linejoin="round"/>
<path d="M 7.04 13.0 L 6.99 13.42 L 6.95 13.83 L 6.91 14.25 L 6.87 14.67 L 6.83 15.08 L 6.79 15.5 L 6.74 15.92 L 6.7 16.33 L 6.66 16.75 L 6.62 17.17 L 6.58 17.58 L 6.54 18.0 L 6.49 18.42 L 6.45 18.83 L 6.41 19.25 L 6.37 19.67 L 6.33 20.08 L 6.29 20.5 L 6.24 20.92 L 6.2 21.33 L 6.16 21.75 L 6.12 22.17 L 6.08 22.58 L 6.04 23.0 L 6.04 23.0 L 6.29 23.08 L 6.54 23.17 L 6.79 23.25 L 7.04 23.33 L 7.29 23.42 L 7.54 23.5 L 7.79 23.58 L 8.04 23.67 L 8.29 23.75 L 8.54 23.83 L 8.79 23.92 L 9.04 24.0 L 9.29 24.08 L 9.54 24.17 L 9.79 24.25 L 10.04 24.33 L 10.29 24.42 L 10.54 24.5 L 10.79 24.58 L 11.04 24.67 L 11.29 24.75 L 11.54 24.83 L 11.79 24.92 L 12.04 25.0" fill="none" stroke="#111" stroke-width="1.33" stroke-linecap="round" stroke-linejoin="round"/>
<path d="M 7.04 14.0 L 7.86 14.55 L 8.63 15.18 L 9.33 15.88 L 9.95 16.64 L 10.5 17.47 L 10.96 18.34 L 11.33 19.26 L 11.61 20.21 L 11.79 21.19 L 11.88 22.17 L 11.86 23.16 L 11.75 24.15 L 11.54 25.11 L 11.23 26.05 L 10.83 26.96 L 10.34 27.82 L 9.77 28.63 L 9.12 29.38 L 8.4 30.06 L 7.62 30.66 L 6.77 31.18 L 5.89 31.62 L 4.96 31.96 L 4.0 32.21 L 5.04 26.0 L 5.2 26.33 L 5.37 26.67 L 5.54 27.0 L 5.7 27.33 L 5.87 27.67 L 6.04 28.0 L 6.2 28.33 L 6.37 28.67 L 6.54 29.0 L 6.7 29.33 L 6.87 29.67 L 7.04 30.0 L 7.2 30.33 L 7.37 30.67 L 7.54 31.0 L 7.7 31.33 L 7.87 31.67 L 8.04 32.0 L 8.2 32.33 L 8.37 32.67 L 8.54 33.0 L 8.7 33.33 L 8.87 33.67 L 9.04 34.0" fill="none" stroke="#111" stroke-width="1.33" stroke-linecap="round" stroke-linejoin="round"/>
<path d="M 12.04 4.0 L 12.08 4.21 L 12.12 4.42 L 12.16 4.62 L 12.2 4.83 L 12.24 5.04 L 12.29 5.25 L 12.33 5.46 L 12.37 5.67 L 12.41 5.88 L 12.45 6.08 L 12.49 6.29 L 12.54 6.5 L 12.58 6.71 L 12.62 6.92 L 12.66 7.12 L 12.7 7.33 L 12.74 7.54 L 12.79 7.75 L 12.83 7.96 L 12.87 8.17 L 12.91 8.38 L 12.95 8.58 L 12.99 8.79 L 13.04 9.0" fill="none" stroke="#111" stroke-width="1.33" stroke-linecap="round" stroke-linejoin="round"/>
<path d="M 13.04 6.0 L 13.33 6.25 L 13.62 6.5 L 13.91 6.75 L 14.2 7.0 L 14.49 7.25 L 14.79 7.5 L 15.08 7.75 L 15.37 8.0 L 15.66 8.25 L 15.95 8.5 L 16.24 8.75 L 16.54 9.0 L 16.83 9.25 L 17.12 9.5 L 17.41 9.75 L 17.7 10.0 L 17.99 10.25 L 18.29 10.5 L 18.58 10.75 L 18.87 11.0 L 19.16 11.25 L 19.45 11.5 L 19.74 11.75 L 20.04 12.0" fill="none" stroke="#111" stroke-width="1.33" stroke-linecap="round" stroke-linejoin="round"/>
<path d="M 19.04 8.0 L 19.04 8.29 L 19.04 8.58 L 19.04 8.88 L 19.04 9.17 L 19.04 9.46 L 19.04 9.75 L 19.04 10.04 L 19.04 10.33 L 19.04 10.62 L 19.04 10.92 L 19.04 11.21 L 19.04 11.5 L 19.04 11.79 L 19.04 12.08 L 19.04 12.38 L 19.04 12.67 L 19.04 12.96 L 19.04 13.25 L 19.04 13.54 L 19.04 13.83 L 19.04 14.12 L 19.04 14.42 L 19.04 14.71 L 19.04 15.0" fill="none" stroke="#111" stroke-width="1.33" stroke-linecap="round" stroke-linejoin="round"/>
<path d="M 19.04 12.0 L 18.79 12.17 L 18.54 12.33 L 18.29 12.5 L 18.04 12.67 L 17.79 12.83 L 17.54 13.0 L 17.29 13.17 L 17.04 13.33 L 16.79 13.5 L 16.54 13.67 L 16.29 13.83 L 16.04 14.0 L 15.79 14.17 L 15.54 14.33 L 15.29 14.5 L 15.04 14.67 L 14.79 14.83 L 14.54 15.0 L 14.29 15.17 L 14.04 15.33 L 13.79 15.5 L 13.54 15.67 L 13.29 15.83 L 13.04 16.0" fill="none" stroke="#111" stroke-width="1.33" stroke-linecap="round" stroke-linejoin="round"/>
<path d="M 12.04 13.0 L 12.08 13.29 L 12.12 13.58 L 12.16 13.88 L 12.2 14.17 L 12.24 14.46 L 12.29 14.75 L 12.33 15.04 L 12.37 15.33 L 12.41 15.62 L 12.45 15.92 L 12.49 16.21 L 12.54 16.5 L 12.58 16.79 L 12.62 17.08 L 12.66 17.38 L 12.7 17.67 L 12.74 17.96 L 12.79 18.25 L 12.83 18.54 L 12.87 18.83 L 12.91 19.12 L 12.95 19.42 L 12.99 19.71 L 13.04 20.0" fill="none" stroke="#111" stroke-width="1.33" stroke-linecap="round" stroke-linejoin="round"/>
<path d="M 13.04 18.0 L 13.4 18.09 L 13.76 18.2 L 14.12 18.33 L 14.46 18.49 L 14.8 18.66 L 15.12 18.86 L 15.43 19.08 L 15.73 19.31 L 16.01 19.56 L 16.27 19.83 L 16.52 20.12 L 16.75 20.42 L 16.96 20.73 L 17.15 21.06 L 17.32 21.4 L 17.47 21.75 L 17.59 22.1 L 17.7 22.47 L 17.78 22.83 L 17.83 23.21 L 17.87 23.58 L 17.88 23.96 L 17.87 24.34 L 17.83 24.72" fill="none" stroke="#111" stroke-width="1.33" stroke-linecap="round" stroke-linejoin="round"/>
</svg>
