<?xml version="1.0" encoding="UTF-8"?>
<svg xmlns="http://www.w3.org/2000/svg" viewBox="0 0 28.00 43.00">
<path d="M 7.0 11.0 L 7.25 10.71 L 7.5 10.42 L 7.75 10.12 L 8.0 9.83 L 8.25 9.54 L 8.5 9.25 L 8.75 8.96 L 9.0 8.67 L 9.25 8.38 L 9.5 8.08 L 9.75 7.79 L 10.0 7.5 L 10.25 7.21 L 10.5 6.92 L 10.75 6.62 L 11.0 6.33 L 11.25 6.04 L 11.5 5.75 L 11.75 5.46 L 12.0 5.17 L 12.25 4.88 L 12.5 4.58 L 12.75 4.29 L 13.0 4.0" fill="none" stroke="#111" stroke-width="1.51" stroke-linecap="round" stroke-linejoin="round"/>
<path d="M 13.0 4.0 L 13.55 4.52 L 14.05 5.1 L 14.49 5.72 L 14.86 6.39 L 15.16 7.08 L 15.38 7.81 L 15.53 8.56 L 15.6 9.31 L 15.6 10.07 L 15.52 10.83 L 15.36 11.57 L 15.12 12.3 L 14.81 12.99 L 14.43 13.65 L 13.99 14.27 L 13.48 14.84 L 12.92 15.35 L 12.31 15.8 L 11.65 16.19 L 10.96 16.51 L 10.24 16.76 L 9.5 16.93 L 8.75 17.02 L 7.99 17.04 L 8.0 17.0 L 8.0 17.79 L 8.0 18.58 L 8.0 19.38 L 8.0 20.17 L 8.0 20.96 L 8.0 21.75 L 8.0 22.54 L 8.0 23.33 L 8.0 24.12 L 8.0 24.92 L 8.0 25.71 L 8.0 26.5 L 8.0 27.29 L 8.0 28.08 L 8.0 28.88 L 8.0 29.67 L 8.0 30.46 L 8.0 31.25 L 8.0 32.04 L 8.0 32.83 L 8.0 33.62 L 8.0 34.42 L 8.0 35.21 L 8.0 36.0" fill="none" stroke="#111" stroke-width="1.51" stroke-linecap="round" stroke-linejoin="round"/>
<path d="M 11.0 7.0 L 11.54 7.75 L 12.08 8.5 L 12.62 9.25 L 13.17 10.0 L 13.71 10.75 L 14.25 11.5 L 14.79 12.25 L 15.33 13.0 L 15.88 13.75 L 16.42 14.5 L 16.96 15.25 L 17.5 16.0 L 18.04 16.75 L 18.58 17.5 L 19.12 18.25 L 19.67 19.0 L 20.21 19.75 L 20.75 20.5 L 21.29 21.25 L 21.83 22.0 L 22.38 22.75 L 22.92 23.5 L 23.46 24.25 L 24.0 25.0" fill="none" stroke="#111" stroke-width="1.51" stroke-linecap="round" stroke-linejoin="round"/>
<path d="M 15.0 13.0 L 15.1 13.45 L 15.17 13.91 L 15.22 14.36 L 15.23 14.83 L 15.22 15.29 L 15.17 15.75 L 15.1 16.2 L 15.0 16.65 L 14.87 17.09 L 14.71 17.53 L 14.53 17.95 L 14.32 18.36 L 14.08 18.76 L 13.82 19.14 L 13.53 19.5 L 13.23 19.84 L 12.9 20.17 L 12.55 20.47 L 12.18 20.75 L 11.8 21.0 L 11.4 21.24 L 10.99 21.44 L 10.56 21.62 L 10.13 21.77" fill="none" stroke="#111" stroke-width="1.51" stroke-linecap="round" stroke-linejoin="round"/>
<path d="M 14.0 19.0 L 14.29 19.38 L 14.58 19.75 L 14.88 20.12 L 15.17 20.5 L 15.46 20.88 L 15.75 21.25 L 16.04 21.62 L 16.33 22.0 L 16.62 22.38 L 16.92 22.75 L 17.21 23.12 L 17.5 23.5 L 17.79 23.88 L 18.08 24.25 L 18.38 24.62 L 18.67 25.0 L 18.96 25.38 L 19.25 25.75 L 19.54 26.12 L 19.83 26.5 L 20.12 26.88 L 20.42 27.25 L 20.71 27.62 L 21.0 28.0" fill="none" stroke="#111" stroke-width="1.51" stroke-linecap="round" stroke-linejoin="round"/>
<path d="M 10.0 24.0 L 10.59 24.33 L 11.17 24.69 L 11.73 25.06 L 12.28 25.46 L 12.81 25.88 L 13.32 26.32 L 13.82 26.79 L 14.29 27.27 L 14.75 27.76 L 15.19 28.28 L 15.61 28.81 L 16.0 29.36 L 16.38 29.93 L 16.73 30.5 L 17.06 31.1 L 17.37 31.7 L 17.65 32.32 L 17.9 32.94 L 18.14 33.58 L 18.34 34.22 L 18.52 34.88 L 18.68 35.54 L 18.81 36.2 L 18.91 36.87" fill="none" stroke="#111" stroke-width="1.51" stroke-linecap="round" stroke-linejoin="round"/>
<path d="M 21.0 23.0 L 21.04 23.17 L 21.08 23.33 L 21.12 23.5 L 21.17 23.67 L 21.21 23.83 L 21.25 24.0 L 21.29 24.17 L 21.33 24.33 L 21.38 24.5 L 21.42 24.67 L 21.46 24.83 L 21.5 25.0 L 21.54 25.17 L 21.58 25.33 L 21.62 25.5 L 21.67 25.67 L 21.71 25.83 L 21.75 26.0 L 21.79 26.17 L 21.83 26.33 L 21.88 26.5 L 21.92 26.67 L 21.96 26.83 L 22.0 27.0" fill="none" stroke="#111" stroke-width="1.51" stroke-linecap="round" stroke-linejoin="round"/>
<path d="M 12.0 34.0 L 12.04 34.21 L 12.08 34.42 L 12.12 34.62 L 12.17 34.83 L 12.21 35.04 L 12.25 35.25 L 12.29 35.46 L 12.33 35.67 L 12.38 35.88 L 12.42 36.08 L 12.46 36.29 L 12.5 36.5 L 12.54 36.71 L 12.58 36.92 L 12.62 37.12 L 12.67 37.33 L 12.71 37.54 L 12.75 37.75 L 12.79 37.96 L 12.83 38.17 L 12.88 38.38 L 12.92 38.58 L 12.96 38.79 L 13.0 39.0" fill="none" stroke="#111" stroke-width="1.51" stroke-linecap="round" stroke-linejoin="round"/>
<path d="M 5.0 32.0 L 5.04 32.17 L 5.08 32.33 L 5.12 32.5 L 5.17 32.67 L 5.21 32.83 L 5.25 33.0 L 5.29 33.17 L 5.33 33.33 L 5.38 33.5 L 5.42 33.67 L 5.46 33.83 L 5.5 34.0 L 5.54 34.17 L 5.58 34.33 L 5.62 34.5 L 5.67 34.67 L 5.71 34.83 L 5.75 35.0 L 5.79 35.17 L 5.83 35.33 L 5.88 35.5 L 5.92 35.67 L 5.96 35.83 L 6.0 36.0" fill="none" stroke="#111" stroke-width="1.51" stroke-linecap="round" stroke-linejoin="round"/>
<path d="M 5.0 11.0 L 4.96 11.46 L 4.92 11.92 L 4.88 12.38 L 4.83 12.83 L 4.79 13.29 L 4.75 13.75 L 4.71 14.21 L 4.67 14.67 L 4.62 15.12 L 4.58 15.58 L 4.54 16.04 L 4.5 16.5 L 4.46 16.96 L 4.42 17.42 L 4.38 17.88 L 4.33 18.33 L 4.29 18.79 L 4.25 19.25 L 4.21 19.71 L 4.17 20.17 L 4.12 20.62 L 4.08 21.08 L 4.04 21.54 L 4.0 22.0" fill="none" stroke="#111" stroke-width="1.51" stroke-linecap="round" stroke-linejoin="round"/>
<path d="M 19.0 6.0 L 19.0 6.25 L 19.0 6.5 L 19.0 6.75 L 19.0 7.0 L 19.0 7.25 L 19.0 7.5 L 19.0 7.75 L 19.0 8.0 L 19.0 8.25 L 19.0 8.5 L 19.0 8.75 L 19.0 9.0 L 19.0 9.25 L 19.0 9.5 L 19.0 9.75 L 19.0 10.0 L 19.0 10.25 L 19.0 10.5 L 19.0 10.75 L 19.0 11.0 L 19.0 11.25 L 19.0 11.5 L 19.0 11.75 L 19.0 12.0" fill="none" stroke="#111" stroke-width="1.51" stroke-linecap="round" stroke-linejoin="round"/>
</svg>
