<?xml version="1.0" encoding="UTF-8"?>
<svg xmlns="http://www.w3.org/2000/svg" viewBox="0 0 21.00 26.00">
<path d="M 4.0 13.0 L 4.54 13.0 L 5.08 13.0 L 5.62 13.0 L 6.17 13.0 L 6.71 13.0 L 7.25 13.0 L 7.79 13.0 L 8.33 13.0 L 8.88 13.0 L 9.42 13.0 L 9.96 13.0 L 10.5 13.0 L 11.04 13.0 L 11.58 13.0 L 12.12 13.0 L 12.67 13.0 L 13.21 13.0 L 13.75 13.0 L 14.29 13.0 L 14.83 13.0 L 15.38 13.0 L 15.92 13.0 L 16.46 13.0 L 17.0 13.0" fill="none" stroke="#111" stroke-width="0.91" stroke-linecap="round" stroke-linejoin="round"/>
<path d="M 10.0 5.0 L 10.0 5.67 L 10.0 6.33 L 10.0 7.0 L 10.0 7.67 L 10.0 8.33 L 10.0 9.0 L 10.0 9.67 L 10.0 10.33 L 10.0 11.0 L 10.0 11.67 L 10.0 12.33 L 10.0 13.0 L 10.0 13.67 L 10.0 14.33 L 10.0 15.0 L 10.0 15.67 L 10.0 16.33 L 10.0 17.0 L 10.0 17.67 L 10.0 18.33 L 10.0 19.0 L 10.0 19.67 L 10.0 20.33 L 10.0 21.0" fill="none" stroke="#111" stroke-width="0.91" stroke-linecap="round" stroke-linejoin="round"/>
<path d="M 4.0 9.0 L 4.04 9.42 L 4.08 9.83 L 4.12 10.25 L 4.17 10.67 L 4.21 11.08 L 4.25 11.5 L 4.29 11.92 L 4.33 12.33 L 4.38 12.75 L 4.42 13.17 L 4.46 13.58 L 4.5 14.0 L 4.54 14.42 L 4.58 14.83 L 4.62 15.25 L 4.67 15.67 L 4.71 16.08 L 4.75 16.5 L 4.79 16.92 L 4.83 17.33 L 4.87 17.75 L 4.92 18.17 L 4.96 18.58 L 5.0 19.0" fill="none" stroke="#111" stroke-width="0.91" stroke-linecap="round" stroke-linejoin="round"/>
<path d="M 5.0 4.0 L 5.38 4.04 L 5.75 4.08 L 6.12 4.12 L 6.5 4.17 L 6.88 4.21 L 7.25 4.25 L 7.62 4.29 L 8.0 4.33 L 8.38 4.38 L 8.75 4.42 L 9.12 4.46 L 9.5 4.5 L 9.88 4.54 L 10.25 4.58 L 10.62 4.62 L 11.0 4.67 L 11.38 4.71 L 11.75 4.75 L 12.12 4.79 L 12.5 4.83 L 12.88 4.88 L 13.25 4.92 L 13.63 4.96 L 14.0 5.0" fill="none" stroke="#111" stroke-width="0.91" stroke-linecap="round" stroke-linejoin="round"/>
<path d="M 6.0 22.0 L 6.38 22.0 L 6.75 22.0 L 7.12 22.0 L 7.5 22.0 L 7.88 22.0 L 8.25 22.0 L 8.62 22.0 L 9.0 22.0 L 9.38 22.0 L 9.75 22.0 L 10.12 22.0 L 10.5 22.0 L 10.88 22.0 L 11.25 22.0 L 11.62 22.0 L 12.0 22.0 L 12.38 22.0 L 12.75 22.0 L 13.12 22.0 L 13.5 22.0 L 13.88 22.0 L 14.25 22.0 L 14.62 22.0 L 15.0 22.0" fill="none" stroke="#111" stroke-width="0.91" stroke-linecap="round" stroke-linejoin="round"/>
<path d="M 17.0 6.0 L 17.0 6.5 L 17.0 7.0 L 17.0 7.5 L 17.0 8.0 L 17.0 8.5 L 17.0 9.0 L 17.0 9.5 L 17.0 10.0 L 17.0 10.5 L 17.0 11.0 L 17.0 11.5 L 17.0 12.0 L 17.0 12.5 L 17.0 13.0 L 17.0 13.5 L 17.0 14.0 L 17.0 14.5 L 17.0 15.0 L 17.0 15.5 L 17.0 16.0 L 17.0 16.5 L 17.0 17.0 L 17.0 17.5 L 17.0 18.0" fill="none" stroke="#111" stroke-width="0.91" stroke-linecap="round" stroke-linejoin="round"/>
</svg>
