<?xml version="1.0" encoding="UTF-8"?>
<svg xmlns="http://www.w3.org/2000/svg" viewBox="0 0 25.30 26.06">
<path d="M 6.45 4.06 L 5.93 4.75 L 5.47 5.49 L 5.06 6.25 L 4.72 7.05 L 4.44 7.87 L 4.23 8.71 L 4.08 9.57 L 4.01 10.43 L 4.0 11.3 L 4.06 12.17 L 4.19 13.02 L 4.39 13.87 L 4.66 14.7 L 4.99 15.5 L 5.38 16.27 L 5.83 17.01 L 6.34 17.71 L 6.91 18.37 L 7.53 18.98 L 8.19 19.54 L 8.89 20.05 L 9.64 20.5 L 10.41 20.89 L 11.22 21.21 L 11.45 22.06 L 12.46 21.95 L 13.45 21.74 L 14.41 21.43 L 15.34 21.04 L 16.23 20.56 L 17.07 19.99 L 17.85 19.35 L 18.57 18.63 L 19.21 17.85 L 19.77 17.01 L 20.26 16.12 L 20.65 15.19 L 20.95 14.23 L 21.16 13.24 L 21.28 12.23 L 21.3 11.22 L 21.21 10.22 L 21.04 9.22 L 20.77 8.25 L 20.4 7.3 L 19.95 6.4 L 19.41 5.54 L 18.8 4.74 L 18.11 4.0" fill="none" stroke="#111" stroke-width="0.91" stroke-linecap="round" stroke-linejoin="round"/>
<path d="M 6.45 14.06 L 6.93 14.27 L 7.41 14.45 L 7.9 14.62 L 8.4 14.77 L 8.91 14.89 L 9.42 14.99 L 9.93 15.07 L 10.44 15.13 L 10.96 15.16 L 11.48 15.17 L 12.0 15.16 L 12.52 15.13 L 13.03 15.08 L 13.55 15.0 L 14.06 14.9 L 14.56 14.78 L 15.06 14.64 L 15.55 14.48 L 16.04 14.29 L 16.52 14.09 L 16.98 13.86 L 17.44 13.62 L 17.89 13.35 L 18.32 13.07" fill="none" stroke="#111" stroke-width="0.91" stroke-linecap="round" stroke-linejoin="round"/>
<path d="M 9.45 9.06 L 9.66 9.06 L 9.87 9.06 L 10.08 9.06 L 10.29 9.06 L 10.49 9.06 L 10.7 9.06 L 10.91 9.06 L 11.12 9.06 L 11.33 9.06 L 11.54 9.06 L 11.74 9.06 L 11.95 9.06 L 12.16 9.06 L 12.37 9.06 L 12.58 9.06 L 12.79 9.06 L 12.99 9.06 L 13.2 9.06 L 13.41 9.06 L 13.62 9.06 L 13.83 9.06 L 14.04 9.06 L 14.24 9.06 L 14.45 9.06" fill="none" stroke="#111" stroke-width="0.91" stroke-linecap="round" stroke-linejoin="round"/>
</svg>
