<?xml version="1.0" encoding="UTF-8"?>
<svg xmlns="http://www.w3.org/2000/svg" viewBox="0 0 35.46 29.00">
<path d="M 13.0 4.0 L 13.0 4.38 L 13.0 4.75 L 13.0 5.12 L 13.0 5.5 L 13.0 5.88 L 13.0 6.25 L 13.0 6.62 L 13.0 7.0 L 13.0 7.38 L 13.0 7.75 L 13.0 8.12 L 13.0 8.5 L 13.0 8.88 L 13.0 9.25 L 13.0 9.62 L 13.0 10.0 L 13.0 10.38 L 13.0 10.75 L 13.0 11.12 L 13.0 11.5 L 13.0 11.88 L 13.0 12.25 L 13.0 12.62 L 13.0 13.0" fill="none" stroke="#111" stroke-width="1.24" stroke-linecap="round" stroke-linejoin="round"/>
<path d="M 11.0 14.0 L 11.25 14.0 L 11.5 14.0 L 11.75 14.0 L 12.0 14.0 L 12.25 14.0 L 12.5 14.0 L 12.75 14.0 L 13.0 14.0 L 13.25 14.0 L 13.5 14.0 L 13.75 14.0 L 14.0 14.0 L 14.25 14.0 L 14.5 14.0 L 14.75 14.0 L 15.0 14.0 L 15.25 14.0 L 15.5 14.0 L 15.75 14.0 L 16.0 14.0 L 16.25 14.0 L 16.5 14.0 L 16.75 14.0 L 17.0 14.0" fill="none" stroke="#111" stroke-width="1.24" stroke-linecap="round" stroke-linejoin="round"/>
<path d="M 7.0 11.0 L 6.94 12.71 L 7.12 14.41 L 7.54 16.07 L 8.18 17.65 L 9.04 19.14 L 10.09 20.48 L 11.32 21.67 L 12.71 22.67 L 14.22 23.48 L 15.82 24.06 L 17.5 24.42 L 19.2 24.54 L 20.91 24.42 L 22.58 24.06 L 24.19 23.48 L 25.7 22.67 L 27.08 21.67 L 28.32 20.48 L 29.37 19.14 L 30.23 17.65 L 30.87 16.07 L 31.28 14.41 L 31.46 12.71 L 31.41 11.0 L 20.0 11.0 L 20.0 11.0 L 20.0 11.0 L 20.0 11.0 L 20.0 11.0 L 20.0 11.0 L 20.0 11.0 L 20.0 11.0 L 20.0 11.0 L 20.0 11.0 L 20.0 11.0 L 20.0 11.0 L 20.0 11.0 L 20.0 11.0 L 20.0 11.0 L 20.0 11.0 L 20.0 11.0 L 20.0 11.0 L 20.0 11.0 L 20.0 11.0 L 20.0 11.0 L 20.0 11.0 L 20.0 11.0 L 20.0 11.0 L 20.0 11.0" fill="none" stroke="#111" stroke-width="1.24" stroke-linecap="round" stroke-linejoin="round"/>
<path d="M 4.0 11.0 L 4.25 11.0 L 4.5 11.0 L 4.75 11.0 L 5.0 11.0 L 5.25 11.0 L 5.5 11.0 L 5.75 11.0 L 6.0 11.0 L 6.25 11.0 L 6.5 11.0 L 6.75 11.0 L 7.0 11.0 L 7.25 11.0 L 7.5 11.0 L 7.75 11.0 L 8.0 11.0 L 8.25 11.0 L 8.5 11.0 L 8.75 11.0 L 9.0 11.0 L 9.25 11.0 L 9.5 11.0 L 9.75 11.0 L 10.0 11.0" fill="none" stroke="#111" stroke-width="1.24" stroke-linecap="round" stroke-linejoin="round"/>
<path d="M 18.0 11.0 L 18.17 11.0 L 18.33 11.0 L 18.5 11.0 L 18.67 11.0 L 18.83 11.0 L 19.0 11.0 L 19.17 11.0 L 19.33 11.0 L 19.5 11.0 L 19.67 11.0 L 19.83 11.0 L 20.0 11.0 L 20.17 11.0 L 20.33 11.0 L 20.5 11.0 L 20.67 11.0 L 20.83 11.0 L 21.0 11.0 L 21.17 11.0 L 21.33 11.0 L 21.5 11.0 L 21.67 11.0 L 21.83 11.0 L 22.0 11.0" fill="none" stroke="#111" stroke-width="1.24" stroke-linecap="round" stroke-linejoin="round"/>
<path d="M 8.0 15.0 L 8.46 15.42 L 8.92 15.83 L 9.38 16.25 L 9.83 16.67 L 10.29 17.08 L 10.75 17.5 L 11.21 17.92 L 11.67 18.33 L 12.12 18.75 L 12.58 19.17 L 13.04 19.58 L 13.5 20.0 L 13.96 20.42 L 14.42 20.83 L 14.88 21.25 L 15.33 21.67 L 15.79 22.08 L 16.25 22.5 L 16.71 22.92 L 17.17 23.33 L 17.62 23.75 L 18.08 24.17 L 18.54 24.58 L 19.0 25.0" fill="none" stroke="#111" stroke-width="1.24" stroke-linecap="round" stroke-linejoin="round"/>
<path d="M 19.0 16.0 L 18.54 16.33 L 18.08 16.67 L 17.62 17.0 L 17.17 17.33 L 16.71 17.67 L 16.25 18.0 L 15.79 18.33 L 15.33 18.67 L 14.88 19.0 L 14.42 19.33 L 13.96 19.67 L 13.5 20.0 L 13.04 20.33 L 12.58 20.67 L 12.12 21.0 L 11.67 21.33 L 11.21 21.67 L 10.75 22.0 L 10.29 22.33 L 9.83 22.67 L 9.37 23.0 L 8.92 23.33 L 8.46 23.67 L 8.0 24.0" fill="none" stroke="#111" stroke-width="1.24" stroke-linecap="round" stroke-linejoin="round"/>
</svg>
