<?xml version="1.0" encoding="UTF-8"?>
<svg xmlns="http://www.w3.org/2000/svg" viewBox="0 0 23.28 31.40">
<path d="M 4.28 6.0 L 4.9 5.92 L 5.53 5.83 L 6.15 5.75 L 6.78 5.67 L 7.4 5.58 L 8.03 5.5 L 8.65 5.42 L 9.28 5.33 L 9.9 5.25 L 10.53 5.17 L 11.15 5.08 L 11.78 5.0 L 12.4 4.92 L 13.03 4.83 L 13.65 4.75 L 14.28 4.67 L 14.9 4.58 L 15.53 4.5 L 16.15 4.42 L 16.78 4.33 L 17.4 4.25 L 18.03 4.17 L 18.65 4.08 L 19.28 4.0" fill="none" stroke="#111" stroke-width="1.10" stroke-linecap="round" stroke-linejoin="round"/>
<path d="M 18.28 4.0 L 18.34 4.33 L 18.39 4.66 L 18.42 4.99 L 18.44 5.32 L 18.43 5.65 L 18.41 5.99 L 18.37 6.32 L 18.32 6.65 L 18.24 6.97 L 18.15 7.29 L 18.05 7.61 L 17.92 7.92 L 17.79 8.22 L 17.63 8.52 L 17.46 8.8 L 17.28 9.08 L 17.08 9.35 L 16.86 9.6 L 16.64 9.85 L 16.4 10.08 L 16.15 10.3 L 15.89 10.51 L 15.61 10.7 L 15.33 10.88 L 15.28 11.0 L 15.59 11.92 L 15.82 12.87 L 15.98 13.83 L 16.05 14.8 L 16.06 15.77 L 15.98 16.74 L 15.82 17.7 L 15.59 18.65 L 15.28 19.57 L 14.9 20.47 L 14.45 21.33 L 13.93 22.15 L 13.35 22.93 L 12.71 23.66 L 12.01 24.34 L 11.25 24.96 L 10.45 25.51 L 9.61 26.0 L 8.73 26.42 L 7.83 26.77 L 6.89 27.04 L 5.94 27.24 L 4.97 27.36 L 4.0 27.4" fill="none" stroke="#111" stroke-width="1.10" stroke-linecap="round" stroke-linejoin="round"/>
</svg>
