<?xml version="1.0" encoding="UTF-8"?>
<svg xmlns="http://www.w3.org/2000/svg" viewBox="0 0 26.87 32.00">
<path d="M 9.0 5.0 L 8.12 6.16 L 7.47 7.47 L 7.07 8.87 L 6.93 10.32 L 7.06 11.77 L 7.44 13.18 L 8.08 14.49 L 8.95 15.66 L 10.01 16.66 L 11.24 17.44 L 12.59 17.99 L 14.02 18.28 L 15.48 18.31 L 16.92 18.07 L 18.29 17.58 L 19.54 16.84 L 20.65 15.89 L 21.56 14.75 L 22.24 13.46 L 22.69 12.07 L 22.87 10.63 L 22.78 9.17 L 22.44 7.75 L 21.83 6.43" fill="none" stroke="#111" stroke-width="1.12" stroke-linecap="round" stroke-linejoin="round"/>
<path d="M 21.0 7.0 L 20.12 7.62 L 19.26 8.27 L 18.41 8.94 L 17.58 9.62 L 16.77 10.33 L 15.97 11.06 L 15.19 11.8 L 14.43 12.57 L 13.69 13.35 L 12.97 14.15 L 12.27 14.96 L 11.58 15.8 L 10.92 16.65 L 10.28 17.51 L 9.66 18.39 L 9.06 19.29 L 8.48 20.2 L 7.92 21.12 L 7.39 22.06 L 6.88 23.0 L 6.39 23.97 L 5.93 24.94 L 5.49 25.92 L 5.07 26.91" fill="none" stroke="#111" stroke-width="1.12" stroke-linecap="round" stroke-linejoin="round"/>
<path d="M 4.0 19.0 L 4.25 19.25 L 4.5 19.5 L 4.75 19.75 L 5.0 20.0 L 5.25 20.25 L 5.5 20.5 L 5.75 20.75 L 6.0 21.0 L 6.25 21.25 L 6.5 21.5 L 6.75 21.75 L 7.0 22.0 L 7.25 22.25 L 7.5 22.5 L 7.75 22.75 L 8.0 23.0 L 8.25 23.25 L 8.5 23.5 L 8.75 23.75 L 9.0 24.0 L 9.25 24.25 L 9.5 24.5 L 9.75 24.75 L 10.0 25.0" fill="none" stroke="#111" stroke-width="1.12" stroke-linecap="round" stroke-linejoin="round"/>
<path d="M 7.0 7.0 L 7.59 7.23 L 8.18 7.49 L 8.75 7.76 L 9.32 8.07 L 9.87 8.39 L 10.4 8.73 L 10.92 9.1 L 11.43 9.49 L 11.92 9.9 L 12.4 10.32 L 12.85 10.77 L 13.29 11.23 L 13.71 11.71 L 14.11 12.21 L 14.49 12.72 L 14.85 13.25 L 15.19 13.79 L 15.5 14.34 L 15.79 14.91 L 16.06 15.49 L 16.31 16.08 L 16.53 16.68 L 16.73 17.28 L 16.9 17.9" fill="none" stroke="#111" stroke-width="1.12" stroke-linecap="round" stroke-linejoin="round"/>
<path d="M 18.0 19.0 L 18.12 19.38 L 18.25 19.75 L 18.38 20.12 L 18.5 20.5 L 18.62 20.88 L 18.75 21.25 L 18.88 21.62 L 19.0 22.0 L 19.12 22.38 L 19.25 22.75 L 19.38 23.12 L 19.5 23.5 L 19.62 23.88 L 19.75 24.25 L 19.88 24.62 L 20.0 25.0 L 20.12 25.38 L 20.25 25.75 L 20.38 26.12 L 20.5 26.5 L 20.62 26.88 L 20.75 27.25 L 20.88 27.62 L 21.0 28.0" fill="none" stroke="#111" stroke-width="1.12" stroke-linecap="round" stroke-linejoin="round"/>
<path d="M 22.0 18.0 L 21.9 18.38 L 21.78 18.76 L 21.64 19.13 L 21.5 19.49 L 21.33 19.85 L 21.16 20.21 L 20.97 20.55 L 20.77 20.89 L 20.55 21.23 L 20.33 21.55 L 20.09 21.86 L 19.84 22.17 L 19.57 22.46 L 19.3 22.75 L 19.02 23.02 L 18.72 23.28 L 18.42 23.53 L 18.1 23.77 L 17.78 24.0 L 17.45 24.21 L 17.11 24.42 L 16.76 24.6 L 16.41 24.78 L 16.05 24.94" fill="none" stroke="#111" stroke-width="1.12" stroke-linecap="round" stroke-linejoin="round"/>
<path d="M 11.0 4.0 L 11.0 4.12 L 11.0 4.25 L 11.0 4.38 L 11.0 4.5 L 11.0 4.62 L 11.0 4.75 L 11.0 4.88 L 11.0 5.0 L 11.0 5.12 L 11.0 5.25 L 11.0 5.38 L 11.0 5.5 L 11.0 5.62 L 11.0 5.75 L 11.0 5.88 L 11.0 6.0 L 11.0 6.12 L 11.0 6.25 L 11.0 6.38 L 11.0 6.5 L 11.0 6.62 L 11.0 6.75 L 11.0 6.88 L 11.0 7.0" fill="none" stroke="#111" stroke-width="1.12" stroke-linecap="round" stroke-linejoin="round"/>
<path d="M 14.0 4.0 L 14.0 4.17 L 14.0 4.33 L 14.0 4.5 L 14.0 4.67 L 14.0 4.83 L 14.0 5.0 L 14.0 5.17 L 14.0 5.33 L 14.0 5.5 L 14.0 5.67 L 14.0 5.83 L 14.0 6.0 L 14.0 6.17 L 14.0 6.33 L 14.0 6.5 L 14.0 6.67 L 14.0 6.83 L 14.0 7.0 L 14.0 7.17 L 14.0 7.33 L 14.0 7.5 L 14.0 7.67 L 14.0 7.83 L 14.0 8.0" fill="none" stroke="#111" stroke-width="1.12" stroke-linecap="round" stroke-linejoin="round"/>
</svg>
