<?xml version="1.0" encoding="UTF-8"?>
<svg xmlns="http://www.w3.org/2000/svg" viewBox="0 0 28.48 33.35">
<path d="M 9.36 26.0 L 9.36 25.46 L 9.36 24.92 L 9.36 24.38 L 9.36 23.83 L 9.36 23.29 L 9.36 22.75 L 9.36 22.21 L 9.36 21.67 L 9.36 21.12 L 9.36 20.58 L 9.36 20.04 L 9.36 19.5 L 9.36 18.96 L 9.36 18.42 L 9.36 17.88 L 9.36 17.33 L 9.36 16.79 L 9.36 16.25 L 9.36 15.71 L 9.36 15.17 L 9.36 14.62 L 9.36 14.08 L 9.36 13.54 L 9.36 13.0 L 9.36 13.0 L 9.65 12.62 L 9.95 12.25 L 10.24 11.88 L 10.53 11.5 L 10.82 11.12 L 11.11 10.75 L 11.4 10.38 L 11.7 10.0 L 11.99 9.62 L 12.28 9.25 L 12.57 8.88 L 12.86 8.5 L 13.15 8.12 L 13.45 7.75 L 13.74 7.38 L 14.03 7.0 L 14.32 6.62 L 14.61 6.25 L 14.9 5.88 L 15.2 5.5 L 15.49 5.12 L 15.78 4.75 L 16.07 4.38 L 16.36 4.0" fill="none" stroke="#111" stroke-width="1.17" stroke-linecap="round" stroke-linejoin="round"/>
<path d="M 13.36 25.0 L 13.19 24.12 L 13.03 23.24 L 12.91 22.35 L 12.81 21.45 L 12.74 20.56 L 12.69 19.66 L 12.67 18.77 L 12.68 17.87 L 12.71 16.97 L 12.77 16.08 L 12.86 15.18 L 12.97 14.29 L 13.11 13.41 L 13.28 12.52 L 13.47 11.65 L 13.69 10.78 L 13.94 9.91 L 14.21 9.06 L 14.5 8.21 L 14.82 7.37 L 15.17 6.54 L 15.53 5.72 L 15.93 4.92 L 16.35 4.12" fill="none" stroke="#111" stroke-width="1.17" stroke-linecap="round" stroke-linejoin="round"/>
<path d="M 8.36 27.0 L 9.2 27.2 L 10.05 27.32 L 10.91 27.35 L 11.76 27.28 L 12.61 27.13 L 13.43 26.89 L 14.22 26.56 L 14.98 26.16 L 15.69 25.67 L 16.34 25.12 L 16.94 24.5 L 17.46 23.82 L 17.91 23.09 L 18.28 22.31 L 18.57 21.51 L 18.78 20.67 L 18.89 19.82 L 18.92 18.96 L 18.85 18.11 L 18.7 17.26 L 18.46 16.44 L 18.13 15.65 L 17.72 14.89 L 17.24 14.18 L 17.36 14.0 L 17.32 13.58 L 17.28 13.17 L 17.24 12.75 L 17.2 12.33 L 17.15 11.92 L 17.11 11.5 L 17.07 11.08 L 17.03 10.67 L 16.99 10.25 L 16.95 9.83 L 16.9 9.42 L 16.86 9.0 L 16.82 8.58 L 16.78 8.17 L 16.74 7.75 L 16.7 7.33 L 16.65 6.92 L 16.61 6.5 L 16.57 6.08 L 16.53 5.67 L 16.49 5.25 L 16.45 4.83 L 16.4 4.42 L 16.36 4.0" fill="none" stroke="#111" stroke-width="1.17" stroke-linecap="round" stroke-linejoin="round"/>
<path d="M 11.36 12.0 L 11.57 12.0 L 11.78 12.0 L 11.99 12.0 L 12.2 12.0 L 12.4 12.0 L 12.61 12.0 L 12.82 12.0 L 13.03 12.0 L 13.24 12.0 L 13.45 12.0 L 13.65 12.0 L 13.86 12.0 L 14.07 12.0 L 14.28 12.0 L 14.49 12.0 L 14.7 12.0 L 14.9 12.0 L 15.11 12.0 L 15.32 12.0 L 15.53 12.0 L 15.74 12.0 L 15.95 12.0 L 16.15 12.0 L 16.36 12.0" fill="none" stroke="#111" stroke-width="1.17" stroke-linecap="round" stroke-linejoin="round"/>
<path d="M 9.36 17.0 L 9.61 17.0 L 9.86 17.0 L 10.11 17.0 L 10.36 17.0 L 10.61 17.0 L 10.86 17.0 L 11.11 17.0 L 11.36 17.0 L 11.61 17.0 L 11.86 17.0 L 12.11 17.0 L 12.36 17.0 L 12.61 17.0 L 12.86 17.0 L 13.11 17.0 L 13.36 17.0 L 13.61 17.0 L 13.86 17.0 L 14.11 17.0 L 14.36 17.0 L 14.61 17.0 L 14.86 17.0 L 15.11 17.0 L 15.36 17.0" fill="none" stroke="#111" stroke-width="1.17" stroke-linecap="round" stroke-linejoin="round"/>
<path d="M 9.36 21.0 L 9.61 20.96 L 9.86 20.92 L 10.11 20.88 L 10.36 20.83 L 10.61 20.79 L 10.86 20.75 L 11.11 20.71 L 11.36 20.67 L 11.61 20.62 L 11.86 20.58 L 12.11 20.54 L 12.36 20.5 L 12.61 20.46 L 12.86 20.42 L 13.11 20.38 L 13.36 20.33 L 13.61 20.29 L 13.86 20.25 L 14.11 20.21 L 14.36 20.17 L 14.61 20.12 L 14.86 20.08 L 15.11 20.04 L 15.36 20.0" fill="none" stroke="#111" stroke-width="1.17" stroke-linecap="round" stroke-linejoin="round"/>
<path d="M 5.36 14.0 L 4.61 15.62 L 4.15 17.34 L 4.0 19.12 L 4.16 20.9 L 4.62 22.62 L 5.38 24.23 L 6.4 25.7 L 7.66 26.96 L 9.13 27.98 L 10.74 28.73 L 12.47 29.19 L 14.24 29.35 L 16.02 29.19 L 17.74 28.73 L 19.36 27.98 L 20.82 26.96 L 22.08 25.7 L 23.11 24.23 L 23.86 22.62 L 24.33 20.9 L 24.48 19.12 L 24.33 17.34 L 23.87 15.62 L 23.12 14.0 L 21.36 14.0 L 21.36 14.0 L 21.36 14.0 L 21.36 14.0 L 21.36 14.0 L 21.36 14.0 L 21.36 14.0 L 21.36 14.0 L 21.36 14.0 L 21.36 14.0 L 21.36 14.0 L 21.36 14.0 L 21.36 14.0 L 21.36 14.0 L 21.36 14.0 L 21.36 14.0 L 21.36 14.0 L 21.36 14.0 L 21.36 14.0 L 21.36 14.0 L 21.36 14.0 L 21.36 14.0 L 21.36 14.0 L 21.36 14.0 L 21.36 14.0" fill="none" stroke="#111" stroke-width="1.17" stroke-linecap="round" stroke-linejoin="round"/>
</svg>
