<?xml version="1.0" encoding="UTF-8"?>
<svg xmlns="http://www.w3.org/2000/svg" viewBox="0 0 27.00 35.96">
<path d="M 13.0 8.0 L 12.89 8.29 L 12.8 8.58 L 12.74 8.88 L 12.69 9.18 L 12.67 9.48 L 12.67 9.79 L 12.69 10.09 L 12.73 10.4 L 12.8 10.7 L 12.88 10.99 L 12.99 11.27 L 13.11 11.55 L 13.26 11.82 L 13.43 12.08 L 13.61 12.32 L 13.81 12.55 L 14.03 12.77 L 14.26 12.97 L 14.5 13.15 L 14.76 13.32 L 15.03 13.46 L 15.31 13.59 L 15.59 13.69 L 15.89 13.78 L 16.0 14.0 L 16.19 13.74 L 16.36 13.47 L 16.51 13.2 L 16.64 12.91 L 16.75 12.61 L 16.84 12.31 L 16.92 12.0 L 16.97 11.68 L 17.0 11.37 L 17.0 11.05 L 16.99 10.73 L 16.96 10.42 L 16.9 10.1 L 16.82 9.8 L 16.73 9.49 L 16.61 9.2 L 16.47 8.91 L 16.32 8.64 L 16.15 8.37 L 15.96 8.12 L 15.75 7.88 L 15.52 7.65 L 15.29 7.44 L 15.04 7.25" fill="none" stroke="#111" stroke-width="1.26" stroke-linecap="round" stroke-linejoin="round"/>
<path d="M 14.0 11.0 L 14.12 11.0 L 14.25 11.0 L 14.38 11.0 L 14.5 11.0 L 14.62 11.0 L 14.75 11.0 L 14.88 11.0 L 15.0 11.0 L 15.12 11.0 L 15.25 11.0 L 15.38 11.0 L 15.5 11.0 L 15.62 11.0 L 15.75 11.0 L 15.88 11.0 L 16.0 11.0 L 16.12 11.0 L 16.25 11.0 L 16.38 11.0 L 16.5 11.0 L 16.62 11.0 L 16.75 11.0 L 16.88 11.0 L 17.0 11.0" fill="none" stroke="#111" stroke-width="1.26" stroke-linecap="round" stroke-linejoin="round"/>
<path d="M 16.0 14.0 L 16.0 14.29 L 16.0 14.58 L 16.0 14.88 L 16.0 15.17 L 16.0 15.46 L 16.0 15.75 L 16.0 16.04 L 16.0 16.33 L 16.0 16.62 L 16.0 16.92 L 16.0 17.21 L 16.0 17.5 L 16.0 17.79 L 16.0 18.08 L 16.0 18.38 L 16.0 18.67 L 16.0 18.96 L 16.0 19.25 L 16.0 19.54 L 16.0 19.83 L 16.0 20.12 L 16.0 20.42 L 16.0 20.71 L 16.0 21.0 L 16.0 21.0 L 15.56 21.13 L 15.13 21.3 L 14.72 21.5 L 14.32 21.72 L 13.94 21.98 L 13.58 22.27 L 13.25 22.58 L 12.93 22.91 L 12.65 23.27 L 12.39 23.64 L 12.15 24.04 L 11.95 24.45 L 11.78 24.88 L 11.64 25.31 L 11.54 25.76 L 11.47 26.21 L 11.43 26.67 L 11.42 27.13 L 11.45 27.58 L 11.52 28.04 L 11.62 28.48 L 11.75 28.92 L 11.91 29.35 L 12.1 29.77" fill="none" stroke="#111" stroke-width="1.26" stroke-linecap="round" stroke-linejoin="round"/>
<path d="M 16.0 20.0 L 16.16 20.48 L 16.31 20.96 L 16.44 21.45 L 16.57 21.94 L 16.69 22.43 L 16.8 22.92 L 16.89 23.42 L 16.98 23.92 L 17.06 24.41 L 17.13 24.91 L 17.19 25.42 L 17.23 25.92 L 17.27 26.42 L 17.3 26.93 L 17.31 27.43 L 17.32 27.94 L 17.31 28.44 L 17.3 28.95 L 17.27 29.45 L 17.24 29.96 L 17.19 30.46 L 17.14 30.96 L 17.07 31.46 L 17.0 31.96" fill="none" stroke="#111" stroke-width="1.26" stroke-linecap="round" stroke-linejoin="round"/>
<path d="M 13.0 23.0 L 13.04 23.08 L 13.08 23.17 L 13.12 23.25 L 13.17 23.33 L 13.21 23.42 L 13.25 23.5 L 13.29 23.58 L 13.33 23.67 L 13.38 23.75 L 13.42 23.83 L 13.46 23.92 L 13.5 24.0 L 13.54 24.08 L 13.58 24.17 L 13.62 24.25 L 13.67 24.33 L 13.71 24.42 L 13.75 24.5 L 13.79 24.58 L 13.83 24.67 L 13.88 24.75 L 13.92 24.83 L 13.96 24.92 L 14.0 25.0" fill="none" stroke="#111" stroke-width="1.26" stroke-linecap="round" stroke-linejoin="round"/>
<path d="M 13.0 26.0 L 13.04 26.04 L 13.08 26.08 L 13.12 26.12 L 13.17 26.17 L 13.21 26.21 L 13.25 26.25 L 13.29 26.29 L 13.33 26.33 L 13.38 26.38 L 13.42 26.42 L 13.46 26.46 L 13.5 26.5 L 13.54 26.54 L 13.58 26.58 L 13.62 26.62 L 13.67 26.67 L 13.71 26.71 L 13.75 26.75 L 13.79 26.79 L 13.83 26.83 L 13.88 26.88 L 13.92 26.92 L 13.96 26.96 L 14.0 27.0" fill="none" stroke="#111" stroke-width="1.26" stroke-linecap="round" stroke-linejoin="round"/>
<path d="M 16.0 25.0 L 16.04 25.08 L 16.08 25.17 L 16.12 25.25 L 16.17 25.33 L 16.21 25.42 L 16.25 25.5 L 16.29 25.58 L 16.33 25.67 L 16.38 25.75 L 16.42 25.83 L 16.46 25.92 L 16.5 26.0 L 16.54 26.08 L 16.58 26.17 L 16.62 26.25 L 16.67 26.33 L 16.71 26.42 L 16.75 26.5 L 16.79 26.58 L 16.83 26.67 L 16.88 26.75 L 16.92 26.83 L 16.96 26.92 L 17.0 27.0 L 17.0 27.0 L 17.04 26.92 L 17.08 26.83 L 17.12 26.75 L 17.17 26.67 L 17.21 26.58 L 17.25 26.5 L 17.29 26.42 L 17.33 26.33 L 17.38 26.25 L 17.42 26.17 L 17.46 26.08 L 17.5 26.0 L 17.54 25.92 L 17.58 25.83 L 17.62 25.75 L 17.67 25.67 L 17.71 25.58 L 17.75 25.5 L 17.79 25.42 L 17.83 25.33 L 17.88 25.25 L 17.92 25.17 L 17.96 25.08 L 18.0 25.0" fill="none" stroke="#111" stroke-width="1.26" stroke-linecap="round" stroke-linejoin="round"/>
<path d="M 17.0 9.0 L 17.08 9.04 L 17.17 9.08 L 17.25 9.12 L 17.33 9.17 L 17.42 9.21 L 17.5 9.25 L 17.58 9.29 L 17.67 9.33 L 17.75 9.38 L 17.83 9.42 L 17.92 9.46 L 18.0 9.5 L 18.08 9.54 L 18.17 9.58 L 18.25 9.62 L 18.33 9.67 L 18.42 9.71 L 18.5 9.75 L 18.58 9.79 L 18.67 9.83 L 18.75 9.88 L 18.83 9.92 L 18.92 9.96 L 19.0 10.0 L 19.0 10.0 L 18.96 10.38 L 18.92 10.75 L 18.88 11.12 L 18.83 11.5 L 18.79 11.88 L 18.75 12.25 L 18.71 12.62 L 18.67 13.0 L 18.62 13.38 L 18.58 13.75 L 18.54 14.12 L 18.5 14.5 L 18.46 14.88 L 18.42 15.25 L 18.38 15.62 L 18.33 16.0 L 18.29 16.38 L 18.25 16.75 L 18.21 17.12 L 18.17 17.5 L 18.12 17.88 L 18.08 18.25 L 18.04 18.62 L 18.0 19.0" fill="none" stroke="#111" stroke-width="1.26" stroke-linecap="round" stroke-linejoin="round"/>
<path d="M 20.0 8.0 L 19.96 8.08 L 19.92 8.17 L 19.88 8.25 L 19.83 8.33 L 19.79 8.42 L 19.75 8.5 L 19.71 8.58 L 19.67 8.67 L 19.62 8.75 L 19.58 8.83 L 19.54 8.92 L 19.5 9.0 L 19.46 9.08 L 19.42 9.17 L 19.38 9.25 L 19.33 9.33 L 19.29 9.42 L 19.25 9.5 L 19.21 9.58 L 19.17 9.67 L 19.12 9.75 L 19.08 9.83 L 19.04 9.92 L 19.0 10.0" fill="none" stroke="#111" stroke-width="1.26" stroke-linecap="round" stroke-linejoin="round"/>
<path d="M 21.0 11.0 L 20.92 11.04 L 20.83 11.08 L 20.75 11.12 L 20.67 11.17 L 20.58 11.21 L 20.5 11.25 L 20.42 11.29 L 20.33 11.33 L 20.25 11.38 L 20.17 11.42 L 20.08 11.46 L 20.0 11.5 L 19.92 11.54 L 19.83 11.58 L 19.75 11.62 L 19.67 11.67 L 19.58 11.71 L 19.5 11.75 L 19.42 11.79 L 19.33 11.83 L 19.25 11.88 L 19.17 11.92 L 19.08 11.96 L 19.0 12.0" fill="none" stroke="#111" stroke-width="1.26" stroke-linecap="round" stroke-linejoin="round"/>
<path d="M 22.0 12.0 L 21.83 12.08 L 21.67 12.17 L 21.5 12.25 L 21.33 12.33 L 21.17 12.42 L 21.0 12.5 L 20.83 12.58 L 20.67 12.67 L 20.5 12.75 L 20.33 12.83 L 20.17 12.92 L 20.0 13.0 L 19.83 13.08 L 19.67 13.17 L 19.5 13.25 L 19.33 13.33 L 19.17 13.42 L 19.0 13.5 L 18.83 13.58 L 18.67 13.67 L 18.5 13.75 L 18.33 13.83 L 18.17 13.92 L 18.0 14.0" fill="none" stroke="#111" stroke-width="1.26" stroke-linecap="round" stroke-linejoin="round"/>
<path d="M 19.0 17.0 L 19.28 17.39 L 19.54 17.79 L 19.79 18.2 L 20.02 18.62 L 20.23 19.04 L 20.43 19.48 L 20.61 19.92 L 20.78 20.37 L 20.93 20.82 L 21.06 21.28 L 21.17 21.75 L 21.26 22.22 L 21.34 22.69 L 21.4 23.16 L 21.44 23.64 L 21.46 24.12 L 21.46 24.59 L 21.45 25.07 L 21.42 25.55 L 21.37 26.02 L 21.3 26.5 L 21.21 26.97 L 21.1 27.43 L 20.98 27.9" fill="none" stroke="#111" stroke-width="1.26" stroke-linecap="round" stroke-linejoin="round"/>
<path d="M 19.0 24.0 L 19.08 23.92 L 19.17 23.83 L 19.25 23.75 L 19.33 23.67 L 19.42 23.58 L 19.5 23.5 L 19.58 23.42 L 19.67 23.33 L 19.75 23.25 L 19.83 23.17 L 19.92 23.08 L 20.0 23.0 L 20.08 22.92 L 20.17 22.83 L 20.25 22.75 L 20.33 22.67 L 20.42 22.58 L 20.5 22.5 L 20.58 22.42 L 20.67 22.33 L 20.75 22.25 L 20.83 22.17 L 20.92 22.08 L 21.0 22.0 L 21.0 22.0 L 21.08 22.08 L 21.17 22.17 L 21.25 22.25 L 21.33 22.33 L 21.42 22.42 L 21.5 22.5 L 21.58 22.58 L 21.67 22.67 L 21.75 22.75 L 21.83 22.83 L 21.92 22.92 L 22.0 23.0 L 22.08 23.08 L 22.17 23.17 L 22.25 23.25 L 22.33 23.33 L 22.42 23.42 L 22.5 23.5 L 22.58 23.58 L 22.67 23.67 L 22.75 23.75 L 22.83 23.83 L 22.92 23.92 L 23.0 24.0" fill="none" stroke="#111" stroke-width="1.26" stroke-linecap="round" stroke-linejoin="round"/>
<path d="M 9.0 7.0 L 9.0 7.17 L 9.0 7.33 L 9.0 7.5 L 9.0 7.67 L 9.0 7.83 L 9.0 8.0 L 9.0 8.17 L 9.0 8.33 L 9.0 8.5 L 9.0 8.67 L 9.0 8.83 L 9.0 9.0 L 9.0 9.17 L 9.0 9.33 L 9.0 9.5 L 9.0 9.67 L 9.0 9.83 L 9.0 10.0 L 9.0 10.17 L 9.0 10.33 L 9.0 10.5 L 9.0 10.67 L 9.0 10.83 L 9.0 11.0" fill="none" stroke="#111" stroke-width="1.26" stroke-linecap="round" stroke-linejoin="round"/>
<path d="M 9.0 11.0 L 8.62 11.09 L 8.27 11.24 L 7.94 11.45 L 7.66 11.71 L 7.42 12.01 L 7.24 12.35 L 7.11 12.71 L 7.05 13.09 L 7.05 13.48 L 7.11 13.86 L 7.24 14.22 L 7.42 14.56 L 7.66 14.86 L 7.95 15.12 L 8.28 15.32 L 8.63 15.47 L 9.01 15.56 L 9.39 15.58 L 9.78 15.54 L 10.15 15.44 L 10.5 15.27 L 10.81 15.05 L 11.09 14.78 L 11.31 14.47 L 11.0 14.0 L 10.92 13.88 L 10.83 13.75 L 10.75 13.62 L 10.67 13.5 L 10.58 13.38 L 10.5 13.25 L 10.42 13.12 L 10.33 13.0 L 10.25 12.88 L 10.17 12.75 L 10.08 12.62 L 10.0 12.5 L 9.92 12.38 L 9.83 12.25 L 9.75 12.12 L 9.67 12.0 L 9.58 11.88 L 9.5 11.75 L 9.42 11.62 L 9.33 11.5 L 9.25 11.38 L 9.17 11.25 L 9.08 11.12 L 9.0 11.0" fill="none" stroke="#111" stroke-width="1.26" stroke-linecap="round" stroke-linejoin="round"/>
<path d="M 9.0 16.0 L 8.96 16.29 L 8.92 16.58 L 8.88 16.88 L 8.83 17.17 L 8.79 17.46 L 8.75 17.75 L 8.71 18.04 L 8.67 18.33 L 8.62 18.62 L 8.58 18.92 L 8.54 19.21 L 8.5 19.5 L 8.46 19.79 L 8.42 20.08 L 8.38 20.38 L 8.33 20.67 L 8.29 20.96 L 8.25 21.25 L 8.21 21.54 L 8.17 21.83 L 8.12 22.12 L 8.08 22.42 L 8.04 22.71 L 8.0 23.0" fill="none" stroke="#111" stroke-width="1.26" stroke-linecap="round" stroke-linejoin="round"/>
<path d="M 8.0 23.0 L 7.88 23.33 L 7.75 23.67 L 7.62 24.0 L 7.5 24.33 L 7.38 24.67 L 7.25 25.0 L 7.12 25.33 L 7.0 25.67 L 6.88 26.0 L 6.75 26.33 L 6.63 26.67 L 6.5 27.0 L 6.38 27.33 L 6.25 27.67 L 6.13 28.0 L 6.0 28.33 L 5.88 28.67 L 5.75 29.0 L 5.63 29.33 L 5.5 29.67 L 5.38 30.0 L 5.25 30.33 L 5.13 30.67 L 5.0 31.0" fill="none" stroke="#111" stroke-width="1.26" stroke-linecap="round" stroke-linejoin="round"/>
<path d="M 8.0 21.0 L 8.04 21.38 L 8.08 21.75 L 8.12 22.12 L 8.17 22.5 L 8.21 22.88 L 8.25 23.25 L 8.29 23.62 L 8.33 24.0 L 8.38 24.38 L 8.42 24.75 L 8.46 25.12 L 8.5 25.5 L 8.54 25.88 L 8.58 26.25 L 8.62 26.62 L 8.67 27.0 L 8.71 27.38 L 8.75 27.75 L 8.79 28.12 L 8.83 28.5 L 8.88 28.88 L 8.92 29.25 L 8.96 29.62 L 9.0 30.0" fill="none" stroke="#111" stroke-width="1.26" stroke-linecap="round" stroke-linejoin="round"/>
<path d="M 4.0 21.0 L 4.13 20.69 L 4.28 20.39 L 4.46 20.11 L 4.66 19.83 L 4.88 19.58 L 5.11 19.34 L 5.37 19.12 L 5.64 18.93 L 5.93 18.75 L 6.23 18.6 L 6.54 18.47 L 6.86 18.36 L 7.18 18.28 L 7.51 18.23 L 7.85 18.2 L 8.19 18.2 L 8.52 18.22 L 8.85 18.27 L 9.18 18.35 L 9.5 18.45 L 9.81 18.58 L 10.11 18.73 L 10.4 18.9 L 10.68 19.09" fill="none" stroke="#111" stroke-width="1.26" stroke-linecap="round" stroke-linejoin="round"/>
<path d="M 7.0 4.0 L 6.96 4.25 L 6.92 4.5 L 6.88 4.75 L 6.83 5.0 L 6.79 5.25 L 6.75 5.5 L 6.71 5.75 L 6.67 6.0 L 6.62 6.25 L 6.58 6.5 L 6.54 6.75 L 6.5 7.0 L 6.46 7.25 L 6.42 7.5 L 6.38 7.75 L 6.33 8.0 L 6.29 8.25 L 6.25 8.5 L 6.21 8.75 L 6.17 9.0 L 6.12 9.25 L 6.08 9.5 L 6.04 9.75 L 6.0 10.0 L 6.0 10.0 L 6.08 10.04 L 6.17 10.08 L 6.25 10.12 L 6.33 10.17 L 6.42 10.21 L 6.5 10.25 L 6.58 10.29 L 6.67 10.33 L 6.75 10.38 L 6.83 10.42 L 6.92 10.46 L 7.0 10.5 L 7.08 10.54 L 7.17 10.58 L 7.25 10.62 L 7.33 10.67 L 7.42 10.71 L 7.5 10.75 L 7.58 10.79 L 7.67 10.83 L 7.75 10.88 L 7.83 10.92 L 7.92 10.96 L 8.0 11.0" fill="none" stroke="#111" stroke-width="1.26" stroke-linecap="round" stroke-linejoin="round"/>
<path d="M 7.0 6.0 L 7.04 6.08 L 7.08 6.17 L 7.12 6.25 L 7.17 6.33 L 7.21 6.42 L 7.25 6.5 L 7.29 6.58 L 7.33 6.67 L 7.38 6.75 L 7.42 6.83 L 7.46 6.92 L 7.5 7.0 L 7.54 7.08 L 7.58 7.17 L 7.62 7.25 L 7.67 7.33 L 7.71 7.42 L 7.75 7.5 L 7.79 7.58 L 7.83 7.67 L 7.88 7.75 L 7.92 7.83 L 7.96 7.92 L 8.0 8.0" fill="none" stroke="#111" stroke-width="1.26" stroke-linecap="round" stroke-linejoin="round"/>
<path d="M 6.0 8.0 L 6.08 8.08 L 6.17 8.17 L 6.25 8.25 L 6.33 8.33 L 6.42 8.42 L 6.5 8.5 L 6.58 8.58 L 6.67 8.67 L 6.75 8.75 L 6.83 8.83 L 6.92 8.92 L 7.0 9.0 L 7.08 9.08 L 7.17 9.17 L 7.25 9.25 L 7.33 9.33 L 7.42 9.42 L 7.5 9.5 L 7.58 9.58 L 7.67 9.67 L 7.75 9.75 L 7.83 9.83 L 7.92 9.92 L 8.0 10.0" fill="none" stroke="#111" stroke-width="1.26" stroke-linecap="round" stroke-linejoin="round"/>
</svg>
