<?xml version="1.0" encoding="UTF-8"?>
<svg xmlns="http://www.w3.org/2000/svg" viewBox="0 0 25.43 23.43">
<path d="M 4.57 5.98 L 5.27 6.22 L 5.97 6.43 L 6.68 6.61 L 7.4 6.77 L 8.12 6.89 L 8.85 6.99 L 9.58 7.06 L 10.31 7.1 L 11.04 7.12 L 11.77 7.1 L 12.51 7.06 L 13.24 6.99 L 13.96 6.89 L 14.68 6.76 L 15.4 6.6 L 16.11 6.42 L 16.81 6.21 L 17.51 5.97 L 18.19 5.71 L 18.86 5.42 L 19.53 5.1 L 20.17 4.76 L 20.81 4.39 L 21.43 4.0" fill="none" stroke="#111" stroke-width="0.89" stroke-linecap="round" stroke-linejoin="round"/>
<path d="M 13.57 6.98 L 13.73 7.72 L 13.83 8.46 L 13.88 9.22 L 13.87 9.97 L 13.8 10.72 L 13.68 11.46 L 13.5 12.19 L 13.26 12.91 L 12.98 13.6 L 12.64 14.28 L 12.25 14.92 L 11.81 15.53 L 11.33 16.11 L 10.81 16.65 L 10.25 17.15 L 9.65 17.61 L 9.02 18.02 L 8.35 18.38 L 7.67 18.69 L 6.96 18.95 L 6.24 19.15 L 5.5 19.3 L 4.75 19.39 L 4.0 19.43" fill="none" stroke="#111" stroke-width="0.89" stroke-linecap="round" stroke-linejoin="round"/>
</svg>
