<?xml version="1.0" encoding="UTF-8"?>
<svg xmlns="http://www.w3.org/2000/svg" viewBox="0 0 23.73 36.14">
<path d="M 5.11 5.26 L 4.49 6.56 L 4.11 7.96 L 4.0 9.4 L 4.15 10.84 L 4.56 12.22 L 5.22 13.51 L 6.11 14.65 L 7.19 15.62 L 8.42 16.37 L 9.78 16.88 L 11.2 17.13 L 12.65 17.12 L 14.07 16.84 L 15.41 16.31 L 16.64 15.54 L 17.7 14.56 L 18.57 13.41 L 19.21 12.11 L 19.6 10.72 L 19.73 9.28 L 19.59 7.84 L 19.19 6.45 L 18.55 5.15 L 17.68 4.0" fill="none" stroke="#111" stroke-width="1.26" stroke-linecap="round" stroke-linejoin="round"/>
<path d="M 5.11 11.26 L 5.57 11.26 L 6.03 11.26 L 6.49 11.26 L 6.95 11.26 L 7.41 11.26 L 7.86 11.26 L 8.32 11.26 L 8.78 11.26 L 9.24 11.26 L 9.7 11.26 L 10.16 11.26 L 10.61 11.26 L 11.07 11.26 L 11.53 11.26 L 11.99 11.26 L 12.45 11.26 L 12.91 11.26 L 13.36 11.26 L 13.82 11.26 L 14.28 11.26 L 14.74 11.26 L 15.2 11.26 L 15.66 11.26 L 16.11 11.26" fill="none" stroke="#111" stroke-width="1.26" stroke-linecap="round" stroke-linejoin="round"/>
<path d="M 5.11 8.26 L 5.53 8.26 L 5.95 8.26 L 6.36 8.26 L 6.78 8.26 L 7.2 8.26 L 7.61 8.26 L 8.03 8.26 L 8.45 8.26 L 8.86 8.26 L 9.28 8.26 L 9.7 8.26 L 10.11 8.26 L 10.53 8.26 L 10.95 8.26 L 11.36 8.26 L 11.78 8.26 L 12.2 8.26 L 12.61 8.26 L 13.03 8.26 L 13.45 8.26 L 13.86 8.26 L 14.28 8.26 L 14.7 8.26 L 15.11 8.26" fill="none" stroke="#111" stroke-width="1.26" stroke-linecap="round" stroke-linejoin="round"/>
<path d="M 10.11 4.26 L 10.16 4.8 L 10.2 5.34 L 10.24 5.88 L 10.28 6.42 L 10.32 6.96 L 10.36 7.51 L 10.41 8.05 L 10.45 8.59 L 10.49 9.13 L 10.53 9.67 L 10.57 10.21 L 10.61 10.76 L 10.66 11.3 L 10.7 11.84 L 10.74 12.38 L 10.78 12.92 L 10.82 13.46 L 10.86 14.01 L 10.91 14.55 L 10.95 15.09 L 10.99 15.63 L 11.03 16.17 L 11.07 16.71 L 11.11 17.26" fill="none" stroke="#111" stroke-width="1.26" stroke-linecap="round" stroke-linejoin="round"/>
<path d="M 4.11 22.26 L 4.61 22.33 L 5.11 22.4 L 5.62 22.45 L 6.12 22.5 L 6.62 22.53 L 7.13 22.56 L 7.63 22.57 L 8.14 22.58 L 8.64 22.57 L 9.15 22.56 L 9.65 22.53 L 10.16 22.49 L 10.66 22.44 L 11.16 22.39 L 11.66 22.32 L 12.16 22.24 L 12.66 22.15 L 13.15 22.06 L 13.65 21.95 L 14.14 21.83 L 14.63 21.7 L 15.11 21.56 L 15.6 21.42 L 16.08 21.26" fill="none" stroke="#111" stroke-width="1.26" stroke-linecap="round" stroke-linejoin="round"/>
<path d="M 10.11 22.26 L 10.11 22.74 L 10.12 23.22 L 10.15 23.7 L 10.2 24.17 L 10.28 24.65 L 10.37 25.12 L 10.48 25.59 L 10.61 26.05 L 10.76 26.5 L 10.93 26.95 L 11.12 27.39 L 11.32 27.83 L 11.55 28.25 L 11.79 28.67 L 12.04 29.07 L 12.32 29.47 L 12.61 29.85 L 12.92 30.22 L 13.24 30.57 L 13.58 30.92 L 13.93 31.24 L 14.29 31.56 L 14.67 31.86 L 15.06 32.14" fill="none" stroke="#111" stroke-width="1.26" stroke-linecap="round" stroke-linejoin="round"/>
</svg>
