<?xml version="1.0" encoding="UTF-8"?>
<svg xmlns="http://www.w3.org/2000/svg" viewBox="0 0 24.00 34.09">
<path d="M 4.0 10.0 L 4.67 9.75 L 5.33 9.5 L 6.0 9.25 L 6.67 9.0 L 7.33 8.75 L 8.0 8.5 L 8.67 8.25 L 9.33 8.0 L 10.0 7.75 L 10.67 7.5 L 11.33 7.25 L 12.0 7.0 L 12.67 6.75 L 13.33 6.5 L 14.0 6.25 L 14.67 6.0 L 15.33 5.75 L 16.0 5.5 L 16.67 5.25 L 17.33 5.0 L 18.0 4.75 L 18.67 4.5 L 19.33 4.25 L 20.0 4.0" fill="none" stroke="#111" stroke-width="1.19" stroke-linecap="round" stroke-linejoin="round"/>
<path d="M 18.0 5.0 L 17.92 6.06 L 17.83 7.11 L 17.73 8.17 L 17.62 9.22 L 17.51 10.28 L 17.39 11.33 L 17.26 12.38 L 17.13 13.43 L 16.99 14.48 L 16.84 15.53 L 16.68 16.58 L 16.52 17.63 L 16.35 18.67 L 16.17 19.72 L 15.98 20.76 L 15.79 21.8 L 15.59 22.85 L 15.38 23.88 L 15.17 24.92 L 14.95 25.96 L 14.72 26.99 L 14.48 28.03 L 14.24 29.06 L 13.99 30.09" fill="none" stroke="#111" stroke-width="1.19" stroke-linecap="round" stroke-linejoin="round"/>
<path d="M 7.0 14.0 L 6.68 14.91 L 6.52 15.86 L 6.54 16.82 L 6.74 17.77 L 7.09 18.66 L 7.61 19.47 L 8.26 20.18 L 9.03 20.77 L 9.89 21.2 L 10.81 21.47 L 11.77 21.57 L 12.73 21.5 L 13.66 21.26 L 14.53 20.85 L 15.32 20.29 L 15.99 19.6 L 16.53 18.81 L 16.92 17.92 L 17.14 16.99 L 17.19 16.02 L 17.06 15.07 L 16.77 14.15 L 16.32 13.3 L 15.72 12.55 L 13.0 13.0 L 13.0 13.0 L 13.0 13.0 L 13.0 13.0 L 13.0 13.0 L 13.0 13.0 L 13.0 13.0 L 13.0 13.0 L 13.0 13.0 L 13.0 13.0 L 13.0 13.0 L 13.0 13.0 L 13.0 13.0 L 13.0 13.0 L 13.0 13.0 L 13.0 13.0 L 13.0 13.0 L 13.0 13.0 L 13.0 13.0 L 13.0 13.0 L 13.0 13.0 L 13.0 13.0 L 13.0 13.0 L 13.0 13.0 L 13.0 13.0" fill="none" stroke="#111" stroke-width="1.19" stroke-linecap="round" stroke-linejoin="round"/>
<path d="M 7.0 17.0 L 7.21 17.0 L 7.42 17.0 L 7.62 17.0 L 7.83 17.0 L 8.04 17.0 L 8.25 17.0 L 8.46 17.0 L 8.67 17.0 L 8.88 17.0 L 9.08 17.0 L 9.29 17.0 L 9.5 17.0 L 9.71 17.0 L 9.92 17.0 L 10.12 17.0 L 10.33 17.0 L 10.54 17.0 L 10.75 17.0 L 10.96 17.0 L 11.17 17.0 L 11.38 17.0 L 11.58 17.0 L 11.79 17.0 L 12.0 17.0" fill="none" stroke="#111" stroke-width="1.19" stroke-linecap="round" stroke-linejoin="round"/>
</svg>
