<?xml version="1.0" encoding="UTF-8"?>
<svg xmlns="http://www.w3.org/2000/svg" viewBox="0 0 22.00 36.00">
<path d="M 8.0 4.0 L 8.38 4.0 L 8.75 4.0 L 9.12 4.0 L 9.5 4.0 L 9.88 4.0 L 10.25 4.0 L 10.62 4.0 L 11.0 4.0 L 11.38 4.0 L 11.75 4.0 L 12.12 4.0 L 12.5 4.0 L 12.88 4.0 L 13.25 4.0 L 13.62 4.0 L 14.0 4.0 L 14.38 4.0 L 14.75 4.0 L 15.12 4.0 L 15.5 4.0 L 15.88 4.0 L 16.25 4.0 L 16.62 4.0 L 17.0 4.0" fill="none" stroke="#111" stroke-width="1.26" stroke-linecap="round" stroke-linejoin="round"/>
<path d="M 9.0 4.0 L 8.81 4.46 L 8.68 4.94 L 8.6 5.44 L 8.58 5.94 L 8.62 6.44 L 8.72 6.93 L 8.87 7.4 L 9.08 7.86 L 9.34 8.28 L 9.64 8.68 L 9.99 9.04 L 10.38 9.35 L 10.81 9.62 L 11.26 9.83 L 11.73 9.99 L 12.22 10.1 L 12.72 10.15 L 13.22 10.14 L 13.71 10.07 L 14.19 9.95 L 14.66 9.77 L 15.1 9.53 L 15.52 9.25 L 15.89 8.92 L 16.0 9.0 L 15.96 9.25 L 15.92 9.5 L 15.88 9.75 L 15.83 10.0 L 15.79 10.25 L 15.75 10.5 L 15.71 10.75 L 15.67 11.0 L 15.62 11.25 L 15.58 11.5 L 15.54 11.75 L 15.5 12.0 L 15.46 12.25 L 15.42 12.5 L 15.38 12.75 L 15.33 13.0 L 15.29 13.25 L 15.25 13.5 L 15.21 13.75 L 15.17 14.0 L 15.12 14.25 L 15.08 14.5 L 15.04 14.75 L 15.0 15.0" fill="none" stroke="#111" stroke-width="1.26" stroke-linecap="round" stroke-linejoin="round"/>
<path d="M 12.0 5.0 L 12.14 5.36 L 12.25 5.74 L 12.32 6.12 L 12.36 6.51 L 12.36 6.9 L 12.33 7.29 L 12.26 7.68 L 12.15 8.05 L 12.01 8.42 L 11.83 8.77 L 11.63 9.1 L 11.39 9.41 L 11.13 9.7 L 10.84 9.96 L 10.53 10.2 L 10.19 10.4 L 9.84 10.57 L 9.48 10.71 L 9.1 10.82 L 8.72 10.89 L 8.33 10.92 L 7.94 10.92 L 7.55 10.88 L 7.16 10.8 L 7.0 11.0 L 6.88 11.21 L 6.75 11.42 L 6.62 11.62 L 6.5 11.83 L 6.38 12.04 L 6.25 12.25 L 6.12 12.46 L 6.0 12.67 L 5.88 12.88 L 5.75 13.08 L 5.63 13.29 L 5.5 13.5 L 5.38 13.71 L 5.25 13.92 L 5.12 14.12 L 5.0 14.33 L 4.88 14.54 L 4.75 14.75 L 4.63 14.96 L 4.5 15.17 L 4.38 15.38 L 4.25 15.58 L 4.13 15.79 L 4.0 16.0" fill="none" stroke="#111" stroke-width="1.26" stroke-linecap="round" stroke-linejoin="round"/>
<path d="M 16.0 10.0 L 15.49 10.09 L 14.98 10.2 L 14.47 10.34 L 13.98 10.51 L 13.49 10.69 L 13.01 10.9 L 12.54 11.14 L 12.09 11.39 L 11.64 11.67 L 11.22 11.97 L 10.8 12.28 L 10.4 12.62 L 10.02 12.98 L 9.66 13.35 L 9.31 13.74 L 8.98 14.15 L 8.68 14.57 L 8.39 15.01 L 8.13 15.46 L 7.88 15.92 L 7.66 16.4 L 7.47 16.88 L 7.29 17.37 L 7.14 17.87" fill="none" stroke="#111" stroke-width="1.26" stroke-linecap="round" stroke-linejoin="round"/>
<path d="M 15.0 14.0 L 14.6 14.17 L 14.21 14.36 L 13.83 14.57 L 13.46 14.79 L 13.11 15.03 L 12.76 15.29 L 12.42 15.56 L 12.1 15.85 L 11.79 16.15 L 11.49 16.47 L 11.21 16.79 L 10.94 17.13 L 10.69 17.49 L 10.45 17.85 L 10.23 18.22 L 10.03 18.6 L 9.85 19.0 L 9.68 19.4 L 9.53 19.8 L 9.4 20.21 L 9.29 20.63 L 9.2 21.05 L 9.12 21.48 L 9.07 21.91" fill="none" stroke="#111" stroke-width="1.26" stroke-linecap="round" stroke-linejoin="round"/>
<path d="M 15.0 14.0 L 15.0 14.75 L 15.0 15.5 L 15.0 16.25 L 15.0 17.0 L 15.0 17.75 L 15.0 18.5 L 15.0 19.25 L 15.0 20.0 L 15.0 20.75 L 15.0 21.5 L 15.0 22.25 L 15.0 23.0 L 15.0 23.75 L 15.0 24.5 L 15.0 25.25 L 15.0 26.0 L 15.0 26.75 L 15.0 27.5 L 15.0 28.25 L 15.0 29.0 L 15.0 29.75 L 15.0 30.5 L 15.0 31.25 L 15.0 32.0" fill="none" stroke="#111" stroke-width="1.26" stroke-linecap="round" stroke-linejoin="round"/>
<path d="M 12.0 21.0 L 12.08 21.12 L 12.17 21.25 L 12.25 21.38 L 12.33 21.5 L 12.42 21.62 L 12.5 21.75 L 12.58 21.88 L 12.67 22.0 L 12.75 22.12 L 12.83 22.25 L 12.92 22.38 L 13.0 22.5 L 13.08 22.62 L 13.17 22.75 L 13.25 22.88 L 13.33 23.0 L 13.42 23.12 L 13.5 23.25 L 13.58 23.38 L 13.67 23.5 L 13.75 23.62 L 13.83 23.75 L 13.92 23.88 L 14.0 24.0" fill="none" stroke="#111" stroke-width="1.26" stroke-linecap="round" stroke-linejoin="round"/>
<path d="M 18.0 16.0 L 17.83 16.21 L 17.67 16.42 L 17.5 16.62 L 17.33 16.83 L 17.17 17.04 L 17.0 17.25 L 16.83 17.46 L 16.67 17.67 L 16.5 17.88 L 16.33 18.08 L 16.17 18.29 L 16.0 18.5 L 15.83 18.71 L 15.67 18.92 L 15.5 19.12 L 15.33 19.33 L 15.17 19.54 L 15.0 19.75 L 14.83 19.96 L 14.67 20.17 L 14.5 20.38 L 14.33 20.58 L 14.17 20.79 L 14.0 21.0" fill="none" stroke="#111" stroke-width="1.26" stroke-linecap="round" stroke-linejoin="round"/>
<path d="M 10.0 30.0 L 10.16 29.64 L 10.36 29.3 L 10.59 28.98 L 10.84 28.68 L 11.12 28.4 L 11.42 28.15 L 11.74 27.92 L 12.08 27.73 L 12.44 27.56 L 12.81 27.43 L 13.19 27.33 L 13.57 27.26 L 13.97 27.23 L 14.36 27.24 L 14.75 27.27 L 15.14 27.35 L 15.52 27.45 L 15.88 27.59 L 16.24 27.76 L 16.58 27.96 L 16.89 28.19 L 17.19 28.45 L 17.46 28.73 L 17.71 29.04" fill="none" stroke="#111" stroke-width="1.26" stroke-linecap="round" stroke-linejoin="round"/>
</svg>
