<?xml version="1.0" encoding="UTF-8"?>
<svg xmlns="http://www.w3.org/2000/svg" viewBox="0 0 21.49 36.97">
<path d="M 4.0 9.0 L 4.38 9.02 L 4.76 9.03 L 5.13 9.04 L 5.51 9.04 L 5.89 9.04 L 6.27 9.03 L 6.65 9.02 L 7.03 9.0 L 7.4 8.97 L 7.78 8.95 L 8.16 8.91 L 8.53 8.87 L 8.91 8.83 L 9.29 8.78 L 9.66 8.72 L 10.03 8.66 L 10.41 8.6 L 10.78 8.53 L 11.15 8.45 L 11.52 8.37 L 11.89 8.29 L 12.26 8.2 L 12.62 8.1 L 12.99 8.0" fill="none" stroke="#111" stroke-width="1.29" stroke-linecap="round" stroke-linejoin="round"/>
<path d="M 4.0 16.0 L 4.38 15.92 L 4.75 15.83 L 5.12 15.75 L 5.5 15.67 L 5.88 15.58 L 6.25 15.5 L 6.62 15.42 L 7.0 15.33 L 7.38 15.25 L 7.75 15.17 L 8.12 15.08 L 8.5 15.0 L 8.88 14.92 L 9.25 14.83 L 9.62 14.75 L 10.0 14.67 L 10.38 14.58 L 10.75 14.5 L 11.12 14.42 L 11.5 14.33 L 11.88 14.25 L 12.25 14.17 L 12.62 14.08 L 13.0 14.0" fill="none" stroke="#111" stroke-width="1.29" stroke-linecap="round" stroke-linejoin="round"/>
<path d="M 9.0 9.0 L 9.02 9.86 L 9.02 10.71 L 9.01 11.57 L 8.98 12.42 L 8.94 13.28 L 8.87 14.13 L 8.8 14.98 L 8.7 15.83 L 8.59 16.68 L 8.46 17.53 L 8.32 18.37 L 8.16 19.21 L 7.98 20.05 L 7.79 20.88 L 7.58 21.71 L 7.36 22.54 L 7.12 23.36 L 6.87 24.17 L 6.59 24.98 L 6.31 25.79 L 6.01 26.59 L 5.69 27.39 L 5.36 28.17 L 5.01 28.96" fill="none" stroke="#111" stroke-width="1.29" stroke-linecap="round" stroke-linejoin="round"/>
<path d="M 13.0 4.0 L 13.0 4.29 L 13.0 4.58 L 13.0 4.88 L 13.0 5.17 L 13.0 5.46 L 13.0 5.75 L 13.0 6.04 L 13.0 6.33 L 13.0 6.62 L 13.0 6.92 L 13.0 7.21 L 13.0 7.5 L 13.0 7.79 L 13.0 8.08 L 13.0 8.38 L 13.0 8.67 L 13.0 8.96 L 13.0 9.25 L 13.0 9.54 L 13.0 9.83 L 13.0 10.12 L 13.0 10.42 L 13.0 10.71 L 13.0 11.0 L 13.0 11.0 L 13.6 10.94 L 14.19 10.97 L 14.78 11.09 L 15.34 11.3 L 15.86 11.61 L 16.32 11.98 L 16.72 12.43 L 17.04 12.93 L 17.28 13.48 L 17.43 14.06 L 17.49 14.66 L 17.45 15.26 L 17.32 15.84 L 17.1 16.4 L 16.79 16.91 L 16.41 17.37 L 15.96 17.76 L 15.45 18.08 L 14.9 18.31 L 14.32 18.46 L 13.72 18.51 L 13.12 18.46 L 12.54 18.32 L 11.99 18.09 L 12.0 18.0 L 11.97 18.65 L 11.92 19.3 L 11.86 19.95 L 11.79 20.59 L 11.71 21.24 L 11.62 21.88 L 11.51 22.53 L 11.4 23.17 L 11.27 23.8 L 11.13 24.44 L 10.98 25.07 L 10.82 25.7 L 10.64 26.33 L 10.46 26.95 L 10.26 27.57 L 10.06 28.19 L 9.84 28.8 L 9.61 29.41 L 9.37 30.02 L 9.12 30.62 L 8.86 31.21 L 8.58 31.8 L 8.3 32.39 L 8.01 32.97" fill="none" stroke="#111" stroke-width="1.29" stroke-linecap="round" stroke-linejoin="round"/>
</svg>
