<?xml version="1.0" encoding="UTF-8"?>
<svg xmlns="http://www.w3.org/2000/svg" viewBox="0 0 18.00 33.00">
<path d="M 9.0 4.0 L 9.0 4.58 L 9.0 5.17 L 9.0 5.75 L 9.0 6.33 L 9.0 6.92 L 9.0 7.5 L 9.0 8.08 L 9.0 8.67 L 9.0 9.25 L 9.0 9.83 L 9.0 10.42 L 9.0 11.0 L 9.0 11.58 L 9.0 12.17 L 9.0 12.75 L 9.0 13.33 L 9.0 13.92 L 9.0 14.5 L 9.0 15.08 L 9.0 15.67 L 9.0 16.25 L 9.0 16.83 L 9.0 17.42 L 9.0 18.0" fill="none" stroke="#111" stroke-width="1.16" stroke-linecap="round" stroke-linejoin="round"/>
<path d="M 6.0 4.0 L 5.76 4.5 L 5.61 5.04 L 5.56 5.6 L 5.61 6.15 L 5.75 6.69 L 5.99 7.2 L 6.31 7.66 L 6.7 8.05 L 7.15 8.37 L 7.66 8.61 L 8.2 8.75 L 8.75 8.8 L 9.31 8.75 L 9.85 8.61 L 10.35 8.37 L 10.81 8.05 L 11.2 7.66 L 11.52 7.2 L 11.75 6.69 L 11.9 6.15 L 11.94 5.6 L 11.89 5.04 L 11.75 4.5 L 11.51 4.0" fill="none" stroke="#111" stroke-width="1.16" stroke-linecap="round" stroke-linejoin="round"/>
<path d="M 6.0 10.0 L 6.12 10.08 L 6.25 10.17 L 6.38 10.25 L 6.5 10.33 L 6.62 10.42 L 6.75 10.5 L 6.88 10.58 L 7.0 10.67 L 7.12 10.75 L 7.25 10.83 L 7.38 10.92 L 7.5 11.0 L 7.62 11.08 L 7.75 11.17 L 7.88 11.25 L 8.0 11.33 L 8.12 11.42 L 8.25 11.5 L 8.38 11.58 L 8.5 11.67 L 8.62 11.75 L 8.75 11.83 L 8.88 11.92 L 9.0 12.0 L 9.0 12.0 L 9.08 11.88 L 9.17 11.75 L 9.25 11.62 L 9.33 11.5 L 9.42 11.38 L 9.5 11.25 L 9.58 11.12 L 9.67 11.0 L 9.75 10.88 L 9.83 10.75 L 9.92 10.62 L 10.0 10.5 L 10.08 10.38 L 10.17 10.25 L 10.25 10.12 L 10.33 10.0 L 10.42 9.88 L 10.5 9.75 L 10.58 9.62 L 10.67 9.5 L 10.75 9.38 L 10.83 9.25 L 10.92 9.12 L 11.0 9.0" fill="none" stroke="#111" stroke-width="1.16" stroke-linecap="round" stroke-linejoin="round"/>
<path d="M 5.0 17.0 L 4.8 17.61 L 4.68 18.24 L 4.65 18.88 L 4.71 19.52 L 4.85 20.15 L 5.08 20.75 L 5.39 21.32 L 5.77 21.83 L 6.22 22.29 L 6.72 22.69 L 7.28 23.01 L 7.87 23.26 L 8.5 23.42 L 9.13 23.49 L 9.78 23.48 L 10.41 23.38 L 11.03 23.19 L 11.61 22.93 L 12.15 22.58 L 12.64 22.17 L 13.07 21.69 L 13.44 21.16 L 13.72 20.58 L 13.93 19.98 L 14.0 20.0 L 13.96 19.88 L 13.92 19.75 L 13.88 19.62 L 13.83 19.5 L 13.79 19.38 L 13.75 19.25 L 13.71 19.12 L 13.67 19.0 L 13.62 18.88 L 13.58 18.75 L 13.54 18.62 L 13.5 18.5 L 13.46 18.38 L 13.42 18.25 L 13.38 18.12 L 13.33 18.0 L 13.29 17.88 L 13.25 17.75 L 13.21 17.62 L 13.17 17.5 L 13.12 17.38 L 13.08 17.25 L 13.04 17.12 L 13.0 17.0 L 13.0 17.0 L 12.67 17.0 L 12.33 17.0 L 12.0 17.0 L 11.67 17.0 L 11.33 17.0 L 11.0 17.0 L 10.67 17.0 L 10.33 17.0 L 10.0 17.0 L 9.67 17.0 L 9.33 17.0 L 9.0 17.0 L 8.67 17.0 L 8.33 17.0 L 8.0 17.0 L 7.67 17.0 L 7.33 17.0 L 7.0 17.0 L 6.67 17.0 L 6.33 17.0 L 6.0 17.0 L 5.67 17.0 L 5.33 17.0 L 5.0 17.0" fill="none" stroke="#111" stroke-width="1.16" stroke-linecap="round" stroke-linejoin="round"/>
<path d="M 7.0 19.0 L 6.92 19.28 L 6.88 19.57 L 6.89 19.86 L 6.95 20.15 L 7.05 20.42 L 7.19 20.67 L 7.38 20.9 L 7.59 21.09 L 7.84 21.25 L 8.11 21.36 L 8.39 21.43 L 8.68 21.46 L 8.97 21.43 L 9.25 21.36 L 9.52 21.25 L 9.77 21.09 L 9.98 20.9 L 10.17 20.67 L 10.31 20.42 L 10.41 20.15 L 10.47 19.86 L 10.48 19.57 L 10.44 19.28 L 10.36 19.0 L 10.0 19.0 L 9.88 19.0 L 9.75 19.0 L 9.62 19.0 L 9.5 19.0 L 9.38 19.0 L 9.25 19.0 L 9.12 19.0 L 9.0 19.0 L 8.88 19.0 L 8.75 19.0 L 8.62 19.0 L 8.5 19.0 L 8.38 19.0 L 8.25 19.0 L 8.12 19.0 L 8.0 19.0 L 7.88 19.0 L 7.75 19.0 L 7.62 19.0 L 7.5 19.0 L 7.38 19.0 L 7.25 19.0 L 7.12 19.0 L 7.0 19.0" fill="none" stroke="#111" stroke-width="1.16" stroke-linecap="round" stroke-linejoin="round"/>
<path d="M 7.0 23.0 L 6.96 23.25 L 6.92 23.5 L 6.88 23.75 L 6.83 24.0 L 6.79 24.25 L 6.75 24.5 L 6.71 24.75 L 6.67 25.0 L 6.62 25.25 L 6.58 25.5 L 6.54 25.75 L 6.5 26.0 L 6.46 26.25 L 6.42 26.5 L 6.38 26.75 L 6.33 27.0 L 6.29 27.25 L 6.25 27.5 L 6.21 27.75 L 6.17 28.0 L 6.12 28.25 L 6.08 28.5 L 6.04 28.75 L 6.0 29.0" fill="none" stroke="#111" stroke-width="1.16" stroke-linecap="round" stroke-linejoin="round"/>
<path d="M 10.0 23.0 L 10.04 23.25 L 10.08 23.5 L 10.12 23.75 L 10.17 24.0 L 10.21 24.25 L 10.25 24.5 L 10.29 24.75 L 10.33 25.0 L 10.38 25.25 L 10.42 25.5 L 10.46 25.75 L 10.5 26.0 L 10.54 26.25 L 10.58 26.5 L 10.62 26.75 L 10.67 27.0 L 10.71 27.25 L 10.75 27.5 L 10.79 27.75 L 10.83 28.0 L 10.88 28.25 L 10.92 28.5 L 10.96 28.75 L 11.0 29.0" fill="none" stroke="#111" stroke-width="1.16" stroke-linecap="round" stroke-linejoin="round"/>
<path d="M 4.0 29.0 L 4.38 29.0 L 4.75 29.0 L 5.12 29.0 L 5.5 29.0 L 5.88 29.0 L 6.25 29.0 L 6.62 29.0 L 7.0 29.0 L 7.38 29.0 L 7.75 29.0 L 8.12 29.0 L 8.5 29.0 L 8.88 29.0 L 9.25 29.0 L 9.62 29.0 L 10.0 29.0 L 10.38 29.0 L 10.75 29.0 L 11.12 29.0 L 11.5 29.0 L 11.88 29.0 L 12.25 29.0 L 12.62 29.0 L 13.0 29.0" fill="none" stroke="#111" stroke-width="1.16" stroke-linecap="round" stroke-linejoin="round"/>
</svg>
