<?xml version="1.0" encoding="UTF-8"?>
<svg xmlns="http://www.w3.org/2000/svg" viewBox="0 0 24.00 31.00">
<path d="M 6.0 5.0 L 6.0 5.46 L 6.0 5.92 L 6.0 6.38 L 6.0 6.83 L 6.0 7.29 L 6.0 7.75 L 6.0 8.21 L 6.0 8.67 L 6.0 9.12 L 6.0 9.58 L 6.0 10.04 L 6.0 10.5 L 6.0 10.96 L 6.0 11.42 L 6.0 11.88 L 6.0 12.33 L 6.0 12.79 L 6.0 13.25 L 6.0 13.71 L 6.0 14.17 L 6.0 14.62 L 6.0 15.08 L 6.0 15.54 L 6.0 16.0 L 6.0 16.0 L 6.79 16.66 L 7.66 17.21 L 8.59 17.64 L 9.57 17.96 L 10.58 18.14 L 11.61 18.19 L 12.64 18.11 L 13.64 17.9 L 14.61 17.56 L 15.53 17.1 L 16.39 16.53 L 17.16 15.85 L 17.84 15.08 L 18.41 14.22 L 18.87 13.3 L 19.21 12.33 L 19.42 11.33 L 19.5 10.3 L 19.45 9.27 L 19.27 8.26 L 18.96 7.28 L 18.52 6.35 L 17.97 5.48 L 17.31 4.69 L 18.0 4.0 L 18.0 4.0 L 18.0 4.0 L 18.0 4.0 L 18.0 4.0 L 18.0 4.0 L 18.0 4.0 L 18.0 4.0 L 18.0 4.0 L 18.0 4.0 L 18.0 4.0 L 18.0 4.0 L 18.0 4.0 L 18.0 4.0 L 18.0 4.0 L 18.0 4.0 L 18.0 4.0 L 18.0 4.0 L 18.0 4.0 L 18.0 4.0 L 18.0 4.0 L 18.0 4.0 L 18.0 4.0 L 18.0 4.0 L 18.0 4.0" fill="none" stroke="#111" stroke-width="1.09" stroke-linecap="round" stroke-linejoin="round"/>
<path d="M 6.0 7.0 L 6.48 7.16 L 6.97 7.3 L 7.46 7.43 L 7.95 7.55 L 8.45 7.65 L 8.95 7.74 L 9.45 7.82 L 9.95 7.88 L 10.45 7.93 L 10.96 7.96 L 11.47 7.98 L 11.97 7.99 L 12.48 7.98 L 12.99 7.96 L 13.49 7.93 L 14.0 7.88 L 14.5 7.82 L 15.0 7.74 L 15.5 7.65 L 16.0 7.55 L 16.49 7.43 L 16.98 7.3 L 17.47 7.16 L 17.95 7.0" fill="none" stroke="#111" stroke-width="1.09" stroke-linecap="round" stroke-linejoin="round"/>
<path d="M 6.0 11.0 L 6.5 11.0 L 7.0 11.0 L 7.5 11.0 L 8.0 11.0 L 8.5 11.0 L 9.0 11.0 L 9.5 11.0 L 10.0 11.0 L 10.5 11.0 L 11.0 11.0 L 11.5 11.0 L 12.0 11.0 L 12.5 11.0 L 13.0 11.0 L 13.5 11.0 L 14.0 11.0 L 14.5 11.0 L 15.0 11.0 L 15.5 11.0 L 16.0 11.0 L 16.5 11.0 L 17.0 11.0 L 17.5 11.0 L 18.0 11.0" fill="none" stroke="#111" stroke-width="1.09" stroke-linecap="round" stroke-linejoin="round"/>
<path d="M 10.0 17.0 L 10.0 17.42 L 10.0 17.83 L 10.0 18.25 L 10.0 18.67 L 10.0 19.08 L 10.0 19.5 L 10.0 19.92 L 10.0 20.33 L 10.0 20.75 L 10.0 21.17 L 10.0 21.58 L 10.0 22.0 L 10.0 22.42 L 10.0 22.83 L 10.0 23.25 L 10.0 23.67 L 10.0 24.08 L 10.0 24.5 L 10.0 24.92 L 10.0 25.33 L 10.0 25.75 L 10.0 26.17 L 10.0 26.58 L 10.0 27.0" fill="none" stroke="#111" stroke-width="1.09" stroke-linecap="round" stroke-linejoin="round"/>
<path d="M 15.0 17.0 L 15.0 17.42 L 15.0 17.83 L 15.0 18.25 L 15.0 18.67 L 15.0 19.08 L 15.0 19.5 L 15.0 19.92 L 15.0 20.33 L 15.0 20.75 L 15.0 21.17 L 15.0 21.58 L 15.0 22.0 L 15.0 22.42 L 15.0 22.83 L 15.0 23.25 L 15.0 23.67 L 15.0 24.08 L 15.0 24.5 L 15.0 24.92 L 15.0 25.33 L 15.0 25.75 L 15.0 26.17 L 15.0 26.58 L 15.0 27.0" fill="none" stroke="#111" stroke-width="1.09" stroke-linecap="round" stroke-linejoin="round"/>
<path d="M 4.0 27.0 L 4.67 27.0 L 5.33 27.0 L 6.0 27.0 L 6.67 27.0 L 7.33 27.0 L 8.0 27.0 L 8.67 27.0 L 9.33 27.0 L 10.0 27.0 L 10.67 27.0 L 11.33 27.0 L 12.0 27.0 L 12.67 27.0 L 13.33 27.0 L 14.0 27.0 L 14.67 27.0 L 15.33 27.0 L 16.0 27.0 L 16.67 27.0 L 17.33 27.0 L 18.0 27.0 L 18.67 27.0 L 19.33 27.0 L 20.0 27.0" fill="none" stroke="#111" stroke-width="1.09" stroke-linecap="round" stroke-linejoin="round"/>
</svg>
