<?xml version="1.0" encoding="UTF-8"?>
<svg xmlns="http://www.w3.org/2000/svg" viewBox="0 0 25.00 37.00">
<path d="M 10.0 14.0 L 10.25 14.0 L 10.5 14.0 L 10.75 14.0 L 11.0 14.0 L 11.25 14.0 L 11.5 14.0 L 11.75 14.0 L 12.0 14.0 L 12.25 14.0 L 12.5 14.0 L 12.75 14.0 L 13.0 14.0 L 13.25 14.0 L 13.5 14.0 L 13.75 14.0 L 14.0 14.0 L 14.25 14.0 L 14.5 14.0 L 14.75 14.0 L 15.0 14.0 L 15.25 14.0 L 15.5 14.0 L 15.75 14.0 L 16.0 14.0" fill="none" stroke="#111" stroke-width="1.30" stroke-linecap="round" stroke-linejoin="round"/>
<path d="M 10.0 13.0 L 9.71 13.5 L 9.51 14.05 L 9.42 14.62 L 9.43 15.2 L 9.55 15.77 L 9.76 16.3 L 10.07 16.79 L 10.47 17.22 L 10.93 17.56 L 11.45 17.82 L 12.01 17.97 L 12.59 18.03 L 13.17 17.97 L 13.73 17.82 L 14.25 17.56 L 14.71 17.22 L 15.11 16.79 L 15.42 16.3 L 15.63 15.77 L 15.75 15.2 L 15.76 14.62 L 15.67 14.05 L 15.47 13.5 L 15.18 13.0" fill="none" stroke="#111" stroke-width="1.30" stroke-linecap="round" stroke-linejoin="round"/>
<path d="M 12.0 18.0 L 11.96 18.12 L 11.92 18.25 L 11.88 18.38 L 11.83 18.5 L 11.79 18.62 L 11.75 18.75 L 11.71 18.88 L 11.67 19.0 L 11.62 19.12 L 11.58 19.25 L 11.54 19.38 L 11.5 19.5 L 11.46 19.62 L 11.42 19.75 L 11.38 19.88 L 11.33 20.0 L 11.29 20.12 L 11.25 20.25 L 11.21 20.38 L 11.17 20.5 L 11.12 20.62 L 11.08 20.75 L 11.04 20.88 L 11.0 21.0" fill="none" stroke="#111" stroke-width="1.30" stroke-linecap="round" stroke-linejoin="round"/>
<path d="M 13.0 17.0 L 13.08 17.17 L 13.17 17.33 L 13.25 17.5 L 13.33 17.67 L 13.42 17.83 L 13.5 18.0 L 13.58 18.17 L 13.67 18.33 L 13.75 18.5 L 13.83 18.67 L 13.92 18.83 L 14.0 19.0 L 14.08 19.17 L 14.17 19.33 L 14.25 19.5 L 14.33 19.67 L 14.42 19.83 L 14.5 20.0 L 14.58 20.17 L 14.67 20.33 L 14.75 20.5 L 14.83 20.67 L 14.92 20.83 L 15.0 21.0" fill="none" stroke="#111" stroke-width="1.30" stroke-linecap="round" stroke-linejoin="round"/>
<path d="M 10.0 21.0 L 10.25 21.0 L 10.5 21.0 L 10.75 21.0 L 11.0 21.0 L 11.25 21.0 L 11.5 21.0 L 11.75 21.0 L 12.0 21.0 L 12.25 21.0 L 12.5 21.0 L 12.75 21.0 L 13.0 21.0 L 13.25 21.0 L 13.5 21.0 L 13.75 21.0 L 14.0 21.0 L 14.25 21.0 L 14.5 21.0 L 14.75 21.0 L 15.0 21.0 L 15.25 21.0 L 15.5 21.0 L 15.75 21.0 L 16.0 21.0" fill="none" stroke="#111" stroke-width="1.30" stroke-linecap="round" stroke-linejoin="round"/>
<path d="M 9.0 18.0 L 8.86 18.31 L 8.72 18.62 L 8.6 18.94 L 8.48 19.26 L 8.37 19.58 L 8.27 19.9 L 8.18 20.23 L 8.1 20.56 L 8.03 20.89 L 7.96 21.23 L 7.91 21.56 L 7.86 21.9 L 7.82 22.24 L 7.79 22.58 L 7.77 22.92 L 7.76 23.26 L 7.76 23.6 L 7.77 23.94 L 7.79 24.28 L 7.81 24.62 L 7.85 24.95 L 7.89 25.29 L 7.94 25.63 L 8.0 25.96" fill="none" stroke="#111" stroke-width="1.30" stroke-linecap="round" stroke-linejoin="round"/>
<path d="M 9.0 21.0 L 8.79 21.25 L 8.58 21.5 L 8.38 21.75 L 8.17 22.0 L 7.96 22.25 L 7.75 22.5 L 7.54 22.75 L 7.33 23.0 L 7.12 23.25 L 6.92 23.5 L 6.71 23.75 L 6.5 24.0 L 6.29 24.25 L 6.08 24.5 L 5.88 24.75 L 5.67 25.0 L 5.46 25.25 L 5.25 25.5 L 5.04 25.75 L 4.83 26.0 L 4.62 26.25 L 4.42 26.5 L 4.21 26.75 L 4.0 27.0" fill="none" stroke="#111" stroke-width="1.30" stroke-linecap="round" stroke-linejoin="round"/>
<path d="M 16.0 17.0 L 16.08 17.12 L 16.17 17.25 L 16.25 17.38 L 16.33 17.5 L 16.42 17.62 L 16.5 17.75 L 16.58 17.88 L 16.67 18.0 L 16.75 18.12 L 16.83 18.25 L 16.92 18.38 L 17.0 18.5 L 17.08 18.62 L 17.17 18.75 L 17.25 18.88 L 17.33 19.0 L 17.42 19.12 L 17.5 19.25 L 17.58 19.38 L 17.67 19.5 L 17.75 19.62 L 17.83 19.75 L 17.92 19.88 L 18.0 20.0 L 18.0 20.0 L 17.92 20.17 L 17.83 20.33 L 17.75 20.5 L 17.67 20.67 L 17.58 20.83 L 17.5 21.0 L 17.42 21.17 L 17.33 21.33 L 17.25 21.5 L 17.17 21.67 L 17.08 21.83 L 17.0 22.0 L 16.92 22.17 L 16.83 22.33 L 16.75 22.5 L 16.67 22.67 L 16.58 22.83 L 16.5 23.0 L 16.42 23.17 L 16.33 23.33 L 16.25 23.5 L 16.17 23.67 L 16.08 23.83 L 16.0 24.0" fill="none" stroke="#111" stroke-width="1.30" stroke-linecap="round" stroke-linejoin="round"/>
<path d="M 15.0 19.0 L 15.25 19.33 L 15.5 19.67 L 15.75 20.0 L 16.0 20.33 L 16.25 20.67 L 16.5 21.0 L 16.75 21.33 L 17.0 21.67 L 17.25 22.0 L 17.5 22.33 L 17.75 22.67 L 18.0 23.0 L 18.25 23.33 L 18.5 23.67 L 18.75 24.0 L 19.0 24.33 L 19.25 24.67 L 19.5 25.0 L 19.75 25.33 L 20.0 25.67 L 20.25 26.0 L 20.5 26.33 L 20.75 26.67 L 21.0 27.0" fill="none" stroke="#111" stroke-width="1.30" stroke-linecap="round" stroke-linejoin="round"/>
<path d="M 14.0 23.0 L 13.83 23.12 L 13.67 23.25 L 13.5 23.38 L 13.33 23.5 L 13.17 23.62 L 13.0 23.75 L 12.83 23.88 L 12.67 24.0 L 12.5 24.12 L 12.33 24.25 L 12.17 24.38 L 12.0 24.5 L 11.83 24.62 L 11.67 24.75 L 11.5 24.88 L 11.33 25.0 L 11.17 25.12 L 11.0 25.25 L 10.83 25.38 L 10.67 25.5 L 10.5 25.62 L 10.33 25.75 L 10.17 25.88 L 10.0 26.0" fill="none" stroke="#111" stroke-width="1.30" stroke-linecap="round" stroke-linejoin="round"/>
<path d="M 13.0 24.0 L 13.0 24.38 L 13.0 24.75 L 13.0 25.12 L 13.0 25.5 L 13.0 25.88 L 13.0 26.25 L 13.0 26.62 L 13.0 27.0 L 13.0 27.38 L 13.0 27.75 L 13.0 28.12 L 13.0 28.5 L 13.0 28.88 L 13.0 29.25 L 13.0 29.62 L 13.0 30.0 L 13.0 30.38 L 13.0 30.75 L 13.0 31.12 L 13.0 31.5 L 13.0 31.88 L 13.0 32.25 L 13.0 32.62 L 13.0 33.0" fill="none" stroke="#111" stroke-width="1.30" stroke-linecap="round" stroke-linejoin="round"/>
<path d="M 15.0 26.0 L 14.79 26.25 L 14.58 26.5 L 14.38 26.75 L 14.17 27.0 L 13.96 27.25 L 13.75 27.5 L 13.54 27.75 L 13.33 28.0 L 13.12 28.25 L 12.92 28.5 L 12.71 28.75 L 12.5 29.0 L 12.29 29.25 L 12.08 29.5 L 11.88 29.75 L 11.67 30.0 L 11.46 30.25 L 11.25 30.5 L 11.04 30.75 L 10.83 31.0 L 10.62 31.25 L 10.42 31.5 L 10.21 31.75 L 10.0 32.0" fill="none" stroke="#111" stroke-width="1.30" stroke-linecap="round" stroke-linejoin="round"/>
<path d="M 11.0 27.0 L 11.17 27.17 L 11.33 27.33 L 11.5 27.5 L 11.67 27.67 L 11.83 27.83 L 12.0 28.0 L 12.17 28.17 L 12.33 28.33 L 12.5 28.5 L 12.67 28.67 L 12.83 28.83 L 13.0 29.0 L 13.17 29.17 L 13.33 29.33 L 13.5 29.5 L 13.67 29.67 L 13.83 29.83 L 14.0 30.0 L 14.17 30.17 L 14.33 30.33 L 14.5 30.5 L 14.67 30.67 L 14.83 30.83 L 15.0 31.0" fill="none" stroke="#111" stroke-width="1.30" stroke-linecap="round" stroke-linejoin="round"/>
<path d="M 9.0 5.0 L 9.0 5.08 L 9.0 5.17 L 9.0 5.25 L 9.0 5.33 L 9.0 5.42 L 9.0 5.5 L 9.0 5.58 L 9.0 5.67 L 9.0 5.75 L 9.0 5.83 L 9.0 5.92 L 9.0 6.0 L 9.0 6.08 L 9.0 6.17 L 9.0 6.25 L 9.0 6.33 L 9.0 6.42 L 9.0 6.5 L 9.0 6.58 L 9.0 6.67 L 9.0 6.75 L 9.0 6.83 L 9.0 6.92 L 9.0 7.0" fill="none" stroke="#111" stroke-width="1.30" stroke-linecap="round" stroke-linejoin="round"/>
<path d="M 10.0 8.0 L 10.0 8.12 L 10.0 8.25 L 10.0 8.38 L 10.0 8.5 L 10.0 8.62 L 10.0 8.75 L 10.0 8.88 L 10.0 9.0 L 10.0 9.12 L 10.0 9.25 L 10.0 9.38 L 10.0 9.5 L 10.0 9.62 L 10.0 9.75 L 10.0 9.88 L 10.0 10.0 L 10.0 10.12 L 10.0 10.25 L 10.0 10.38 L 10.0 10.5 L 10.0 10.62 L 10.0 10.75 L 10.0 10.88 L 10.0 11.0" fill="none" stroke="#111" stroke-width="1.30" stroke-linecap="round" stroke-linejoin="round"/>
<path d="M 12.0 6.0 L 12.04 6.04 L 12.08 6.08 L 12.12 6.12 L 12.17 6.17 L 12.21 6.21 L 12.25 6.25 L 12.29 6.29 L 12.33 6.33 L 12.38 6.38 L 12.42 6.42 L 12.46 6.46 L 12.5 6.5 L 12.54 6.54 L 12.58 6.58 L 12.62 6.62 L 12.67 6.67 L 12.71 6.71 L 12.75 6.75 L 12.79 6.79 L 12.83 6.83 L 12.88 6.88 L 12.92 6.92 L 12.96 6.96 L 13.0 7.0" fill="none" stroke="#111" stroke-width="1.30" stroke-linecap="round" stroke-linejoin="round"/>
<path d="M 13.0 9.0 L 13.0 9.08 L 13.0 9.17 L 13.0 9.25 L 13.0 9.33 L 13.0 9.42 L 13.0 9.5 L 13.0 9.58 L 13.0 9.67 L 13.0 9.75 L 13.0 9.83 L 13.0 9.92 L 13.0 10.0 L 13.0 10.08 L 13.0 10.17 L 13.0 10.25 L 13.0 10.33 L 13.0 10.42 L 13.0 10.5 L 13.0 10.58 L 13.0 10.67 L 13.0 10.75 L 13.0 10.83 L 13.0 10.92 L 13.0 11.0" fill="none" stroke="#111" stroke-width="1.30" stroke-linecap="round" stroke-linejoin="round"/>
<path d="M 15.0 4.0 L 15.0 4.17 L 15.0 4.33 L 15.0 4.5 L 15.0 4.67 L 15.0 4.83 L 15.0 5.0 L 15.0 5.17 L 15.0 5.33 L 15.0 5.5 L 15.0 5.67 L 15.0 5.83 L 15.0 6.0 L 15.0 6.17 L 15.0 6.33 L 15.0 6.5 L 15.0 6.67 L 15.0 6.83 L 15.0 7.0 L 15.0 7.17 L 15.0 7.33 L 15.0 7.5 L 15.0 7.67 L 15.0 7.83 L 15.0 8.0" fill="none" stroke="#111" stroke-width="1.30" stroke-linecap="round" stroke-linejoin="round"/>
<path d="M 16.0 9.0 L 16.0 9.12 L 16.0 9.25 L 16.0 9.38 L 16.0 9.5 L 16.0 9.62 L 16.0 9.75 L 16.0 9.88 L 16.0 10.0 L 16.0 10.12 L 16.0 10.25 L 16.0 10.38 L 16.0 10.5 L 16.0 10.62 L 16.0 10.75 L 16.0 10.88 L 16.0 11.0 L 16.0 11.12 L 16.0 11.25 L 16.0 11.38 L 16.0 11.5 L 16.0 11.62 L 16.0 11.75 L 16.0 11.88 L 16.0 12.0" fill="none" stroke="#111" stroke-width="1.30" stroke-linecap="round" stroke-linejoin="round"/>
</svg>
