<?xml version="1.0" encoding="UTF-8"?>
<svg xmlns="http://www.w3.org/2000/svg" viewBox="0 0 31.00 41.00">
<path d="M 15.0 4.0 L 15.0 4.46 L 15.0 4.92 L 15.0 5.38 L 15.0 5.83 L 15.0 6.29 L 15.0 6.75 L 15.0 7.21 L 15.0 7.67 L 15.0 8.12 L 15.0 8.58 L 15.0 9.04 L 15.0 9.5 L 15.0 9.96 L 15.0 10.42 L 15.0 10.88 L 15.0 11.33 L 15.0 11.79 L 15.0 12.25 L 15.0 12.71 L 15.0 13.17 L 15.0 13.62 L 15.0 14.08 L 15.0 14.54 L 15.0 15.0 L 15.0 15.0 L 14.11 15.48 L 13.26 16.03 L 12.47 16.67 L 11.75 17.37 L 11.09 18.14 L 10.51 18.97 L 10.01 19.85 L 9.6 20.78 L 9.27 21.73 L 9.03 22.72 L 8.89 23.72 L 8.84 24.73 L 8.89 25.74 L 9.03 26.75 L 9.27 27.73 L 9.6 28.69 L 10.01 29.61 L 10.51 30.49 L 11.09 31.32 L 11.75 32.09 L 12.47 32.8 L 13.26 33.43 L 14.11 33.99 L 15.0 34.46 L 15.0 35.0 L 15.04 34.71 L 15.08 34.42 L 15.12 34.12 L 15.17 33.83 L 15.21 33.54 L 15.25 33.25 L 15.29 32.96 L 15.33 32.67 L 15.38 32.38 L 15.42 32.08 L 15.46 31.79 L 15.5 31.5 L 15.54 31.21 L 15.58 30.92 L 15.62 30.62 L 15.67 30.33 L 15.71 30.04 L 15.75 29.75 L 15.79 29.46 L 15.83 29.17 L 15.88 28.88 L 15.92 28.58 L 15.96 28.29 L 16.0 28.0" fill="none" stroke="#111" stroke-width="1.44" stroke-linecap="round" stroke-linejoin="round"/>
<path d="M 15.0 15.0 L 15.57 15.47 L 16.12 15.97 L 16.66 16.47 L 17.18 17.0 L 17.69 17.53 L 18.19 18.09 L 18.66 18.65 L 19.12 19.23 L 19.57 19.82 L 19.99 20.43 L 20.4 21.05 L 20.79 21.68 L 21.16 22.32 L 21.51 22.97 L 21.85 23.63 L 22.16 24.3 L 22.46 24.98 L 22.73 25.66 L 22.99 26.36 L 23.22 27.06 L 23.44 27.77 L 23.63 28.48 L 23.8 29.2 L 23.96 29.93 L 24.0 30.0 L 23.79 30.21 L 23.58 30.42 L 23.38 30.62 L 23.17 30.83 L 22.96 31.04 L 22.75 31.25 L 22.54 31.46 L 22.33 31.67 L 22.12 31.88 L 21.92 32.08 L 21.71 32.29 L 21.5 32.5 L 21.29 32.71 L 21.08 32.92 L 20.88 33.12 L 20.67 33.33 L 20.46 33.54 L 20.25 33.75 L 20.04 33.96 L 19.83 34.17 L 19.62 34.38 L 19.42 34.58 L 19.21 34.79 L 19.0 35.0 L 19.0 35.0 L 18.96 34.71 L 18.92 34.42 L 18.88 34.12 L 18.83 33.83 L 18.79 33.54 L 18.75 33.25 L 18.71 32.96 L 18.67 32.67 L 18.62 32.38 L 18.58 32.08 L 18.54 31.79 L 18.5 31.5 L 18.46 31.21 L 18.42 30.92 L 18.38 30.62 L 18.33 30.33 L 18.29 30.04 L 18.25 29.75 L 18.21 29.46 L 18.17 29.17 L 18.12 28.88 L 18.08 28.58 L 18.04 28.29 L 18.0 28.0" fill="none" stroke="#111" stroke-width="1.44" stroke-linecap="round" stroke-linejoin="round"/>
<path d="M 8.0 9.0 L 8.04 9.58 L 8.08 10.17 L 8.12 10.75 L 8.17 11.33 L 8.21 11.92 L 8.25 12.5 L 8.29 13.08 L 8.33 13.67 L 8.38 14.25 L 8.42 14.83 L 8.46 15.42 L 8.5 16.0 L 8.54 16.58 L 8.58 17.17 L 8.62 17.75 L 8.67 18.33 L 8.71 18.92 L 8.75 19.5 L 8.79 20.08 L 8.83 20.67 L 8.88 21.25 L 8.92 21.83 L 8.96 22.42 L 9.0 23.0 L 9.0 23.0 L 9.87 23.34 L 10.76 23.6 L 11.67 23.78 L 12.6 23.87 L 13.53 23.87 L 14.46 23.78 L 15.38 23.61 L 16.27 23.34 L 17.14 23.0 L 17.97 22.58 L 18.75 22.08 L 19.49 21.5 L 20.16 20.87 L 20.78 20.17 L 21.32 19.41 L 21.8 18.61 L 22.19 17.76 L 22.5 16.89 L 22.73 15.98 L 22.87 15.06 L 22.93 14.13 L 22.9 13.2 L 22.77 12.28 L 22.57 11.37" fill="none" stroke="#111" stroke-width="1.44" stroke-linecap="round" stroke-linejoin="round"/>
<path d="M 4.0 13.0 L 4.15 13.22 L 4.29 13.44 L 4.42 13.67 L 4.53 13.91 L 4.63 14.15 L 4.72 14.4 L 4.79 14.65 L 4.86 14.91 L 4.9 15.17 L 4.94 15.43 L 4.96 15.69 L 4.97 15.96 L 4.96 16.22 L 4.94 16.48 L 4.9 16.74 L 4.86 17.0 L 4.79 17.26 L 4.72 17.51 L 4.63 17.76 L 4.53 18.0 L 4.42 18.24 L 4.29 18.47 L 4.15 18.69 L 4.0 18.91" fill="none" stroke="#111" stroke-width="1.44" stroke-linecap="round" stroke-linejoin="round"/>
<path d="M 25.0 8.0 L 24.82 8.14 L 24.65 8.3 L 24.49 8.47 L 24.35 8.65 L 24.22 8.84 L 24.1 9.04 L 24.01 9.25 L 23.93 9.46 L 23.86 9.69 L 23.82 9.91 L 23.79 10.14 L 23.78 10.37 L 23.79 10.6 L 23.82 10.83 L 23.86 11.06 L 23.93 11.28 L 24.01 11.49 L 24.1 11.7 L 24.22 11.9 L 24.35 12.1 L 24.49 12.28 L 24.65 12.44 L 24.82 12.6 L 25.0 12.74" fill="none" stroke="#111" stroke-width="1.44" stroke-linecap="round" stroke-linejoin="round"/>
<path d="M 7.0 32.0 L 7.12 32.21 L 7.25 32.42 L 7.38 32.62 L 7.5 32.83 L 7.62 33.04 L 7.75 33.25 L 7.88 33.46 L 8.0 33.67 L 8.12 33.88 L 8.25 34.08 L 8.38 34.29 L 8.5 34.5 L 8.62 34.71 L 8.75 34.92 L 8.88 35.12 L 9.0 35.33 L 9.12 35.54 L 9.25 35.75 L 9.38 35.96 L 9.5 36.17 L 9.62 36.38 L 9.75 36.58 L 9.88 36.79 L 10.0 37.0" fill="none" stroke="#111" stroke-width="1.44" stroke-linecap="round" stroke-linejoin="round"/>
<path d="M 25.0 22.0 L 25.08 22.25 L 25.17 22.5 L 25.25 22.75 L 25.33 23.0 L 25.42 23.25 L 25.5 23.5 L 25.58 23.75 L 25.67 24.0 L 25.75 24.25 L 25.83 24.5 L 25.92 24.75 L 26.0 25.0 L 26.08 25.25 L 26.17 25.5 L 26.25 25.75 L 26.33 26.0 L 26.42 26.25 L 26.5 26.5 L 26.58 26.75 L 26.67 27.0 L 26.75 27.25 L 26.83 27.5 L 26.92 27.75 L 27.0 28.0" fill="none" stroke="#111" stroke-width="1.44" stroke-linecap="round" stroke-linejoin="round"/>
</svg>
