<?xml version="1.0" encoding="UTF-8"?>
<svg xmlns="http://www.w3.org/2000/svg" viewBox="0 0 19.82 35.93">
<path d="M 6.0 16.0 L 6.33 16.0 L 6.67 16.0 L 7.0 16.0 L 7.33 16.0 L 7.67 16.0 L 8.0 16.0 L 8.33 16.0 L 8.67 16.0 L 9.0 16.0 L 9.33 16.0 L 9.67 16.0 L 10.0 16.0 L 10.33 16.0 L 10.67 16.0 L 11.0 16.0 L 11.33 16.0 L 11.67 16.0 L 12.0 16.0 L 12.33 16.0 L 12.67 16.0 L 13.0 16.0 L 13.33 16.0 L 13.67 16.0 L 14.0 16.0" fill="none" stroke="#111" stroke-width="1.26" stroke-linecap="round" stroke-linejoin="round"/>
<path d="M 10.0 8.0 L 10.0 8.5 L 10.0 9.0 L 10.0 9.5 L 10.0 10.0 L 10.0 10.5 L 10.0 11.0 L 10.0 11.5 L 10.0 12.0 L 10.0 12.5 L 10.0 13.0 L 10.0 13.5 L 10.0 14.0 L 10.0 14.5 L 10.0 15.0 L 10.0 15.5 L 10.0 16.0 L 10.0 16.5 L 10.0 17.0 L 10.0 17.5 L 10.0 18.0 L 10.0 18.5 L 10.0 19.0 L 10.0 19.5 L 10.0 20.0" fill="none" stroke="#111" stroke-width="1.26" stroke-linecap="round" stroke-linejoin="round"/>
<path d="M 6.0 7.0 L 6.0 7.21 L 6.0 7.42 L 6.0 7.62 L 6.0 7.83 L 6.0 8.04 L 6.0 8.25 L 6.0 8.46 L 6.0 8.67 L 6.0 8.88 L 6.0 9.08 L 6.0 9.29 L 6.0 9.5 L 6.0 9.71 L 6.0 9.92 L 6.0 10.12 L 6.0 10.33 L 6.0 10.54 L 6.0 10.75 L 6.0 10.96 L 6.0 11.17 L 6.0 11.38 L 6.0 11.58 L 6.0 11.79 L 6.0 12.0 L 6.0 12.0 L 6.31 12.15 L 6.62 12.3 L 6.94 12.42 L 7.26 12.54 L 7.59 12.64 L 7.92 12.73 L 8.26 12.81 L 8.59 12.87 L 8.94 12.92 L 9.28 12.95 L 9.62 12.97 L 9.96 12.98 L 10.31 12.97 L 10.65 12.95 L 10.99 12.92 L 11.33 12.87 L 11.67 12.81 L 12.0 12.73 L 12.34 12.64 L 12.66 12.54 L 12.99 12.42 L 13.31 12.3 L 13.62 12.15 L 13.93 12.0 L 14.0 12.0 L 13.96 11.79 L 13.92 11.58 L 13.88 11.38 L 13.83 11.17 L 13.79 10.96 L 13.75 10.75 L 13.71 10.54 L 13.67 10.33 L 13.62 10.12 L 13.58 9.92 L 13.54 9.71 L 13.5 9.5 L 13.46 9.29 L 13.42 9.08 L 13.38 8.88 L 13.33 8.67 L 13.29 8.46 L 13.25 8.25 L 13.21 8.04 L 13.17 7.83 L 13.12 7.62 L 13.08 7.42 L 13.04 7.21 L 13.0 7.0" fill="none" stroke="#111" stroke-width="1.26" stroke-linecap="round" stroke-linejoin="round"/>
<path d="M 7.0 4.0 L 7.08 4.0 L 7.17 4.0 L 7.25 4.0 L 7.33 4.0 L 7.42 4.0 L 7.5 4.0 L 7.58 4.0 L 7.67 4.0 L 7.75 4.0 L 7.83 4.0 L 7.92 4.0 L 8.0 4.0 L 8.08 4.0 L 8.17 4.0 L 8.25 4.0 L 8.33 4.0 L 8.42 4.0 L 8.5 4.0 L 8.58 4.0 L 8.67 4.0 L 8.75 4.0 L 8.83 4.0 L 8.92 4.0 L 9.0 4.0" fill="none" stroke="#111" stroke-width="1.26" stroke-linecap="round" stroke-linejoin="round"/>
<path d="M 7.0 6.0 L 7.08 6.0 L 7.17 6.0 L 7.25 6.0 L 7.33 6.0 L 7.42 6.0 L 7.5 6.0 L 7.58 6.0 L 7.67 6.0 L 7.75 6.0 L 7.83 6.0 L 7.92 6.0 L 8.0 6.0 L 8.08 6.0 L 8.17 6.0 L 8.25 6.0 L 8.33 6.0 L 8.42 6.0 L 8.5 6.0 L 8.58 6.0 L 8.67 6.0 L 8.75 6.0 L 8.83 6.0 L 8.92 6.0 L 9.0 6.0" fill="none" stroke="#111" stroke-width="1.26" stroke-linecap="round" stroke-linejoin="round"/>
<path d="M 8.0 4.0 L 8.0 4.21 L 8.0 4.42 L 8.0 4.62 L 8.0 4.83 L 8.0 5.04 L 8.0 5.25 L 8.0 5.46 L 8.0 5.67 L 8.0 5.88 L 8.0 6.08 L 8.0 6.29 L 8.0 6.5 L 8.0 6.71 L 8.0 6.92 L 8.0 7.12 L 8.0 7.33 L 8.0 7.54 L 8.0 7.75 L 8.0 7.96 L 8.0 8.17 L 8.0 8.38 L 8.0 8.58 L 8.0 8.79 L 8.0 9.0" fill="none" stroke="#111" stroke-width="1.26" stroke-linecap="round" stroke-linejoin="round"/>
<path d="M 7.0 9.0 L 7.04 9.0 L 7.08 9.0 L 7.12 9.0 L 7.17 9.0 L 7.21 9.0 L 7.25 9.0 L 7.29 9.0 L 7.33 9.0 L 7.38 9.0 L 7.42 9.0 L 7.46 9.0 L 7.5 9.0 L 7.54 9.0 L 7.58 9.0 L 7.62 9.0 L 7.67 9.0 L 7.71 9.0 L 7.75 9.0 L 7.79 9.0 L 7.83 9.0 L 7.88 9.0 L 7.92 9.0 L 7.96 9.0 L 8.0 9.0" fill="none" stroke="#111" stroke-width="1.26" stroke-linecap="round" stroke-linejoin="round"/>
<path d="M 10.0 4.0 L 10.12 4.0 L 10.25 4.0 L 10.38 4.0 L 10.5 4.0 L 10.62 4.0 L 10.75 4.0 L 10.88 4.0 L 11.0 4.0 L 11.12 4.0 L 11.25 4.0 L 11.38 4.0 L 11.5 4.0 L 11.62 4.0 L 11.75 4.0 L 11.88 4.0 L 12.0 4.0 L 12.12 4.0 L 12.25 4.0 L 12.38 4.0 L 12.5 4.0 L 12.62 4.0 L 12.75 4.0 L 12.88 4.0 L 13.0 4.0" fill="none" stroke="#111" stroke-width="1.26" stroke-linecap="round" stroke-linejoin="round"/>
<path d="M 10.0 6.0 L 10.08 6.0 L 10.17 6.0 L 10.25 6.0 L 10.33 6.0 L 10.42 6.0 L 10.5 6.0 L 10.58 6.0 L 10.67 6.0 L 10.75 6.0 L 10.83 6.0 L 10.92 6.0 L 11.0 6.0 L 11.08 6.0 L 11.17 6.0 L 11.25 6.0 L 11.33 6.0 L 11.42 6.0 L 11.5 6.0 L 11.58 6.0 L 11.67 6.0 L 11.75 6.0 L 11.83 6.0 L 11.92 6.0 L 12.0 6.0" fill="none" stroke="#111" stroke-width="1.26" stroke-linecap="round" stroke-linejoin="round"/>
<path d="M 11.0 4.0 L 11.0 4.21 L 11.0 4.42 L 11.0 4.62 L 11.0 4.83 L 11.0 5.04 L 11.0 5.25 L 11.0 5.46 L 11.0 5.67 L 11.0 5.88 L 11.0 6.08 L 11.0 6.29 L 11.0 6.5 L 11.0 6.71 L 11.0 6.92 L 11.0 7.12 L 11.0 7.33 L 11.0 7.54 L 11.0 7.75 L 11.0 7.96 L 11.0 8.17 L 11.0 8.38 L 11.0 8.58 L 11.0 8.79 L 11.0 9.0" fill="none" stroke="#111" stroke-width="1.26" stroke-linecap="round" stroke-linejoin="round"/>
<path d="M 10.0 9.0 L 10.08 9.0 L 10.17 9.0 L 10.25 9.0 L 10.33 9.0 L 10.42 9.0 L 10.5 9.0 L 10.58 9.0 L 10.67 9.0 L 10.75 9.0 L 10.83 9.0 L 10.92 9.0 L 11.0 9.0 L 11.08 9.0 L 11.17 9.0 L 11.25 9.0 L 11.33 9.0 L 11.42 9.0 L 11.5 9.0 L 11.58 9.0 L 11.67 9.0 L 11.75 9.0 L 11.83 9.0 L 11.92 9.0 L 12.0 9.0" fill="none" stroke="#111" stroke-width="1.26" stroke-linecap="round" stroke-linejoin="round"/>
<path d="M 6.0 20.0 L 6.0 20.21 L 6.0 20.42 L 6.0 20.62 L 6.0 20.83 L 6.0 21.04 L 6.0 21.25 L 6.0 21.46 L 6.0 21.67 L 6.0 21.88 L 6.0 22.08 L 6.0 22.29 L 6.0 22.5 L 6.0 22.71 L 6.0 22.92 L 6.0 23.12 L 6.0 23.33 L 6.0 23.54 L 6.0 23.75 L 6.0 23.96 L 6.0 24.17 L 6.0 24.38 L 6.0 24.58 L 6.0 24.79 L 6.0 25.0 L 6.0 25.0 L 6.33 25.0 L 6.67 25.0 L 7.0 25.0 L 7.33 25.0 L 7.67 25.0 L 8.0 25.0 L 8.33 25.0 L 8.67 25.0 L 9.0 25.0 L 9.33 25.0 L 9.67 25.0 L 10.0 25.0 L 10.33 25.0 L 10.67 25.0 L 11.0 25.0 L 11.33 25.0 L 11.67 25.0 L 12.0 25.0 L 12.33 25.0 L 12.67 25.0 L 13.0 25.0 L 13.33 25.0 L 13.67 25.0 L 14.0 25.0 L 14.0 25.0 L 14.0 24.75 L 14.0 24.5 L 14.0 24.25 L 14.0 24.0 L 14.0 23.75 L 14.0 23.5 L 14.0 23.25 L 14.0 23.0 L 14.0 22.75 L 14.0 22.5 L 14.0 22.25 L 14.0 22.0 L 14.0 21.75 L 14.0 21.5 L 14.0 21.25 L 14.0 21.0 L 14.0 20.75 L 14.0 20.5 L 14.0 20.25 L 14.0 20.0 L 14.0 19.75 L 14.0 19.5 L 14.0 19.25 L 14.0 19.0 L 14.0 19.0 L 13.67 19.04 L 13.33 19.08 L 13.0 19.12 L 12.67 19.17 L 12.33 19.21 L 12.0 19.25 L 11.67 19.29 L 11.33 19.33 L 11.0 19.38 L 10.67 19.42 L 10.33 19.46 L 10.0 19.5 L 9.67 19.54 L 9.33 19.58 L 9.0 19.62 L 8.67 19.67 L 8.33 19.71 L 8.0 19.75 L 7.67 19.79 L 7.33 19.83 L 7.0 19.88 L 6.67 19.92 L 6.33 19.96 L 6.0 20.0" fill="none" stroke="#111" stroke-width="1.26" stroke-linecap="round" stroke-linejoin="round"/>
<path d="M 8.0 22.0 L 8.17 22.0 L 8.33 22.0 L 8.5 22.0 L 8.67 22.0 L 8.83 22.0 L 9.0 22.0 L 9.17 22.0 L 9.33 22.0 L 9.5 22.0 L 9.67 22.0 L 9.83 22.0 L 10.0 22.0 L 10.17 22.0 L 10.33 22.0 L 10.5 22.0 L 10.67 22.0 L 10.83 22.0 L 11.0 22.0 L 11.17 22.0 L 11.33 22.0 L 11.5 22.0 L 11.67 22.0 L 11.83 22.0 L 12.0 22.0" fill="none" stroke="#111" stroke-width="1.26" stroke-linecap="round" stroke-linejoin="round"/>
<path d="M 9.0 25.0 L 8.96 25.25 L 8.92 25.5 L 8.88 25.75 L 8.83 26.0 L 8.79 26.25 L 8.75 26.5 L 8.71 26.75 L 8.67 27.0 L 8.62 27.25 L 8.58 27.5 L 8.54 27.75 L 8.5 28.0 L 8.46 28.25 L 8.42 28.5 L 8.38 28.75 L 8.33 29.0 L 8.29 29.25 L 8.25 29.5 L 8.21 29.75 L 8.17 30.0 L 8.12 30.25 L 8.08 30.5 L 8.04 30.75 L 8.0 31.0" fill="none" stroke="#111" stroke-width="1.26" stroke-linecap="round" stroke-linejoin="round"/>
<path d="M 11.0 25.0 L 11.04 25.25 L 11.08 25.5 L 11.12 25.75 L 11.17 26.0 L 11.21 26.25 L 11.25 26.5 L 11.29 26.75 L 11.33 27.0 L 11.38 27.25 L 11.42 27.5 L 11.46 27.75 L 11.5 28.0 L 11.54 28.25 L 11.58 28.5 L 11.62 28.75 L 11.67 29.0 L 11.71 29.25 L 11.75 29.5 L 11.79 29.75 L 11.83 30.0 L 11.88 30.25 L 11.92 30.5 L 11.96 30.75 L 12.0 31.0" fill="none" stroke="#111" stroke-width="1.26" stroke-linecap="round" stroke-linejoin="round"/>
<path d="M 4.0 30.0 L 4.43 30.3 L 4.88 30.58 L 5.34 30.83 L 5.82 31.06 L 6.31 31.26 L 6.8 31.44 L 7.31 31.59 L 7.82 31.71 L 8.34 31.81 L 8.86 31.88 L 9.38 31.92 L 9.91 31.93 L 10.44 31.92 L 10.96 31.88 L 11.49 31.81 L 12.0 31.71 L 12.52 31.59 L 13.02 31.44 L 13.52 31.26 L 14.0 31.06 L 14.48 30.83 L 14.94 30.58 L 15.39 30.3 L 15.82 30.0" fill="none" stroke="#111" stroke-width="1.26" stroke-linecap="round" stroke-linejoin="round"/>
</svg>
