<?xml version="1.0" encoding="UTF-8"?>
<svg xmlns="http://www.w3.org/2000/svg" viewBox="0 0 22.00 34.00">
<path d="M 6.0 5.0 L 6.0 5.25 L 6.0 5.5 L 6.0 5.75 L 6.0 6.0 L 6.0 6.25 L 6.0 6.5 L 6.0 6.75 L 6.0 7.0 L 6.0 7.25 L 6.0 7.5 L 6.0 7.75 L 6.0 8.0 L 6.0 8.25 L 6.0 8.5 L 6.0 8.75 L 6.0 9.0 L 6.0 9.25 L 6.0 9.5 L 6.0 9.75 L 6.0 10.0 L 6.0 10.25 L 6.0 10.5 L 6.0 10.75 L 6.0 11.0" fill="none" stroke="#111" stroke-width="1.19" stroke-linecap="round" stroke-linejoin="round"/>
<path d="M 15.0 4.0 L 15.22 4.8 L 15.38 5.61 L 15.48 6.43 L 15.51 7.26 L 15.48 8.08 L 15.39 8.9 L 15.23 9.72 L 15.01 10.51 L 14.72 11.29 L 14.38 12.04 L 13.98 12.77 L 13.53 13.46 L 13.02 14.11 L 12.47 14.73 L 11.87 15.29 L 11.22 15.81 L 10.54 16.28 L 9.82 16.7 L 9.08 17.05 L 8.3 17.35 L 7.51 17.59 L 6.7 17.76 L 5.88 17.87 L 5.06 17.92" fill="none" stroke="#111" stroke-width="1.19" stroke-linecap="round" stroke-linejoin="round"/>
<path d="M 4.0 14.0 L 4.04 14.29 L 4.08 14.58 L 4.12 14.88 L 4.17 15.17 L 4.21 15.46 L 4.25 15.75 L 4.29 16.04 L 4.33 16.33 L 4.38 16.62 L 4.42 16.92 L 4.46 17.21 L 4.5 17.5 L 4.54 17.79 L 4.58 18.08 L 4.62 18.38 L 4.67 18.67 L 4.71 18.96 L 4.75 19.25 L 4.79 19.54 L 4.83 19.83 L 4.88 20.12 L 4.92 20.42 L 4.96 20.71 L 5.0 21.0" fill="none" stroke="#111" stroke-width="1.19" stroke-linecap="round" stroke-linejoin="round"/>
<path d="M 15.0 7.0 L 14.79 7.12 L 14.58 7.25 L 14.38 7.38 L 14.17 7.5 L 13.96 7.62 L 13.75 7.75 L 13.54 7.88 L 13.33 8.0 L 13.12 8.12 L 12.92 8.25 L 12.71 8.38 L 12.5 8.5 L 12.29 8.62 L 12.08 8.75 L 11.88 8.88 L 11.67 9.0 L 11.46 9.12 L 11.25 9.25 L 11.04 9.38 L 10.83 9.5 L 10.62 9.62 L 10.42 9.75 L 10.21 9.88 L 10.0 10.0" fill="none" stroke="#111" stroke-width="1.19" stroke-linecap="round" stroke-linejoin="round"/>
<path d="M 6.0 7.0 L 6.29 7.25 L 6.58 7.5 L 6.88 7.75 L 7.17 8.0 L 7.46 8.25 L 7.75 8.5 L 8.04 8.75 L 8.33 9.0 L 8.62 9.25 L 8.92 9.5 L 9.21 9.75 L 9.5 10.0 L 9.79 10.25 L 10.08 10.5 L 10.38 10.75 L 10.67 11.0 L 10.96 11.25 L 11.25 11.5 L 11.54 11.75 L 11.83 12.0 L 12.12 12.25 L 12.42 12.5 L 12.71 12.75 L 13.0 13.0" fill="none" stroke="#111" stroke-width="1.19" stroke-linecap="round" stroke-linejoin="round"/>
<path d="M 11.0 15.0 L 10.83 15.61 L 10.66 16.22 L 10.5 16.83 L 10.35 17.44 L 10.2 18.06 L 10.07 18.68 L 9.94 19.29 L 9.82 19.91 L 9.71 20.54 L 9.61 21.16 L 9.51 21.79 L 9.42 22.41 L 9.34 23.04 L 9.27 23.67 L 9.21 24.29 L 9.15 24.92 L 9.11 25.55 L 9.07 26.19 L 9.04 26.82 L 9.01 27.45 L 9.0 28.08 L 8.99 28.71 L 8.99 29.34 L 9.0 29.98" fill="none" stroke="#111" stroke-width="1.19" stroke-linecap="round" stroke-linejoin="round"/>
<path d="M 12.0 15.0 L 12.48 15.46 L 12.93 15.95 L 13.36 16.47 L 13.76 17.0 L 14.13 17.55 L 14.47 18.13 L 14.78 18.72 L 15.06 19.32 L 15.31 19.94 L 15.52 20.57 L 15.7 21.21 L 15.85 21.86 L 15.96 22.52 L 16.04 23.18 L 16.09 23.85 L 16.1 24.51 L 16.07 25.18 L 16.01 25.84 L 15.92 26.5 L 15.79 27.16 L 15.62 27.8 L 15.43 28.44 L 15.2 29.07 L 14.94 29.68" fill="none" stroke="#111" stroke-width="1.19" stroke-linecap="round" stroke-linejoin="round"/>
<path d="M 10.0 20.0 L 10.21 20.0 L 10.42 20.0 L 10.62 20.0 L 10.83 20.0 L 11.04 20.0 L 11.25 20.0 L 11.46 20.0 L 11.67 20.0 L 11.88 20.0 L 12.08 20.0 L 12.29 20.0 L 12.5 20.0 L 12.71 20.0 L 12.92 20.0 L 13.12 20.0 L 13.33 20.0 L 13.54 20.0 L 13.75 20.0 L 13.96 20.0 L 14.17 20.0 L 14.38 20.0 L 14.58 20.0 L 14.79 20.0 L 15.0 20.0" fill="none" stroke="#111" stroke-width="1.19" stroke-linecap="round" stroke-linejoin="round"/>
<path d="M 9.0 25.0 L 9.25 25.0 L 9.5 25.0 L 9.75 25.0 L 10.0 25.0 L 10.25 25.0 L 10.5 25.0 L 10.75 25.0 L 11.0 25.0 L 11.25 25.0 L 11.5 25.0 L 11.75 25.0 L 12.0 25.0 L 12.25 25.0 L 12.5 25.0 L 12.75 25.0 L 13.0 25.0 L 13.25 25.0 L 13.5 25.0 L 13.75 25.0 L 14.0 25.0 L 14.25 25.0 L 14.5 25.0 L 14.75 25.0 L 15.0 25.0" fill="none" stroke="#111" stroke-width="1.19" stroke-linecap="round" stroke-linejoin="round"/>
<path d="M 5.0 30.0 L 5.54 30.0 L 6.08 30.0 L 6.62 30.0 L 7.17 30.0 L 7.71 30.0 L 8.25 30.0 L 8.79 30.0 L 9.33 30.0 L 9.88 30.0 L 10.42 30.0 L 10.96 30.0 L 11.5 30.0 L 12.04 30.0 L 12.58 30.0 L 13.12 30.0 L 13.67 30.0 L 14.21 30.0 L 14.75 30.0 L 15.29 30.0 L 15.83 30.0 L 16.38 30.0 L 16.92 30.0 L 17.46 30.0 L 18.0 30.0" fill="none" stroke="#111" stroke-width="1.19" stroke-linecap="round" stroke-linejoin="round"/>
</svg>
