<?xml version="1.0" encoding="UTF-8"?>
<svg xmlns="http://www.w3.org/2000/svg" viewBox="0 0 22.23 28.00">
<path d="M 5.02 4.0 L 5.11 4.12 L 5.19 4.25 L 5.27 4.38 L 5.36 4.5 L 5.44 4.62 L 5.52 4.75 L 5.61 4.88 L 5.69 5.0 L 5.77 5.12 L 5.86 5.25 L 5.94 5.38 L 6.02 5.5 L 6.11 5.62 L 6.19 5.75 L 6.27 5.88 L 6.36 6.0 L 6.44 6.12 L 6.52 6.25 L 6.61 6.38 L 6.69 6.5 L 6.77 6.62 L 6.86 6.75 L 6.94 6.88 L 7.02 7.0 L 7.02 7.0 L 6.43 7.64 L 5.91 8.33 L 5.47 9.08 L 5.12 9.87 L 4.85 10.69 L 4.67 11.54 L 4.58 12.4 L 4.59 13.27 L 4.69 14.13 L 4.88 14.98 L 5.16 15.8 L 5.53 16.58 L 5.98 17.32 L 6.51 18.01 L 7.11 18.64 L 7.78 19.19 L 8.5 19.68 L 9.27 20.08 L 10.07 20.4 L 10.91 20.62 L 11.77 20.76 L 12.63 20.81 L 13.5 20.76 L 14.35 20.61 L 14.02 20.0 L 14.44 19.77 L 14.84 19.5 L 15.21 19.2 L 15.56 18.86 L 15.88 18.51 L 16.17 18.12 L 16.42 17.71 L 16.64 17.29 L 16.83 16.84 L 16.97 16.39 L 17.08 15.92 L 17.15 15.44 L 17.17 14.96 L 17.16 14.48 L 17.11 14.01 L 17.02 13.54 L 16.89 13.07 L 16.72 12.63 L 16.51 12.19 L 16.27 11.78 L 16.0 11.38 L 15.69 11.01 L 15.35 10.67 L 14.99 10.36 L 15.02 10.0 L 15.07 9.75 L 15.11 9.5 L 15.15 9.25 L 15.19 9.0 L 15.23 8.75 L 15.27 8.5 L 15.32 8.25 L 15.36 8.0 L 15.4 7.75 L 15.44 7.5 L 15.48 7.25 L 15.52 7.0 L 15.57 6.75 L 15.61 6.5 L 15.65 6.25 L 15.69 6.0 L 15.73 5.75 L 15.77 5.5 L 15.82 5.25 L 15.86 5.0 L 15.9 4.75 L 15.94 4.5 L 15.98 4.25 L 16.02 4.0 L 16.02 4.0 L 16.37 4.15 L 16.7 4.33 L 17.01 4.55 L 17.29 4.81 L 17.54 5.09 L 17.75 5.4 L 17.93 5.74 L 18.07 6.09 L 18.16 6.45 L 18.22 6.83 L 18.23 7.2 L 18.2 7.58 L 18.12 7.95 L 18.01 8.31 L 17.85 8.66 L 17.65 8.98 L 17.42 9.28 L 17.16 9.55 L 16.87 9.79 L 16.55 9.99 L 16.21 10.16 L 15.85 10.28 L 15.48 10.37 L 15.11 10.41" fill="none" stroke="#111" stroke-width="0.98" stroke-linecap="round" stroke-linejoin="round"/>
<path d="M 5.02 4.0 L 4.83 4.26 L 4.66 4.53 L 4.51 4.81 L 4.37 5.11 L 4.26 5.41 L 4.16 5.72 L 4.09 6.03 L 4.04 6.35 L 4.01 6.67 L 4.0 6.99 L 4.01 7.31 L 4.05 7.63 L 4.1 7.95 L 4.18 8.26 L 4.28 8.57 L 4.4 8.87 L 4.54 9.16 L 4.7 9.44 L 4.87 9.71 L 5.07 9.96 L 5.28 10.21 L 5.5 10.44 L 5.75 10.65 L 6.0 10.84" fill="none" stroke="#111" stroke-width="0.98" stroke-linecap="round" stroke-linejoin="round"/>
<path d="M 8.02 19.0 L 7.94 19.21 L 7.86 19.42 L 7.77 19.62 L 7.69 19.83 L 7.61 20.04 L 7.52 20.25 L 7.44 20.46 L 7.36 20.67 L 7.27 20.88 L 7.19 21.08 L 7.11 21.29 L 7.02 21.5 L 6.94 21.71 L 6.86 21.92 L 6.77 22.12 L 6.69 22.33 L 6.61 22.54 L 6.52 22.75 L 6.44 22.96 L 6.36 23.17 L 6.27 23.38 L 6.19 23.58 L 6.11 23.79 L 6.02 24.0" fill="none" stroke="#111" stroke-width="0.98" stroke-linecap="round" stroke-linejoin="round"/>
<path d="M 15.02 19.0 L 15.07 19.21 L 15.11 19.42 L 15.15 19.62 L 15.19 19.83 L 15.23 20.04 L 15.27 20.25 L 15.32 20.46 L 15.36 20.67 L 15.4 20.88 L 15.44 21.08 L 15.48 21.29 L 15.52 21.5 L 15.57 21.71 L 15.61 21.92 L 15.65 22.12 L 15.69 22.33 L 15.73 22.54 L 15.77 22.75 L 15.82 22.96 L 15.86 23.17 L 15.9 23.38 L 15.94 23.58 L 15.98 23.79 L 16.02 24.0" fill="none" stroke="#111" stroke-width="0.98" stroke-linecap="round" stroke-linejoin="round"/>
<path d="M 4.02 24.0 L 4.61 24.0 L 5.19 24.0 L 5.77 24.0 L 6.36 24.0 L 6.94 24.0 L 7.52 24.0 L 8.11 24.0 L 8.69 24.0 L 9.27 24.0 L 9.86 24.0 L 10.44 24.0 L 11.02 24.0 L 11.61 24.0 L 12.19 24.0 L 12.77 24.0 L 13.36 24.0 L 13.94 24.0 L 14.52 24.0 L 15.11 24.0 L 15.69 24.0 L 16.27 24.0 L 16.86 24.0 L 17.44 24.0 L 18.02 24.0" fill="none" stroke="#111" stroke-width="0.98" stroke-linecap="round" stroke-linejoin="round"/>
</svg>
