<?xml version="1.0" encoding="UTF-8"?>
<svg xmlns="http://www.w3.org/2000/svg" viewBox="0 0 24.10 34.00">
<path d="M 7.0 9.0 L 7.38 8.79 L 7.75 8.58 L 8.12 8.38 L 8.5 8.17 L 8.88 7.96 L 9.25 7.75 L 9.62 7.54 L 10.0 7.33 L 10.38 7.12 L 10.75 6.92 L 11.12 6.71 L 11.5 6.5 L 11.88 6.29 L 12.25 6.08 L 12.63 5.88 L 13.0 5.67 L 13.38 5.46 L 13.75 5.25 L 14.12 5.04 L 14.5 4.83 L 14.88 4.62 L 15.25 4.42 L 15.63 4.21 L 16.0 4.0" fill="none" stroke="#111" stroke-width="1.19" stroke-linecap="round" stroke-linejoin="round"/>
<path d="M 10.0 12.0 L 10.25 11.83 L 10.5 11.67 L 10.75 11.5 L 11.0 11.33 L 11.25 11.17 L 11.5 11.0 L 11.75 10.83 L 12.0 10.67 L 12.25 10.5 L 12.5 10.33 L 12.75 10.17 L 13.0 10.0 L 13.25 9.83 L 13.5 9.67 L 13.75 9.5 L 14.0 9.33 L 14.25 9.17 L 14.5 9.0 L 14.75 8.83 L 15.0 8.67 L 15.25 8.5 L 15.5 8.33 L 15.75 8.17 L 16.0 8.0" fill="none" stroke="#111" stroke-width="1.19" stroke-linecap="round" stroke-linejoin="round"/>
<path d="M 12.0 6.0 L 12.16 6.52 L 12.3 7.05 L 12.43 7.59 L 12.55 8.12 L 12.66 8.66 L 12.75 9.2 L 12.82 9.74 L 12.89 10.29 L 12.94 10.83 L 12.97 11.38 L 12.99 11.93 L 13.0 12.47 L 12.99 13.02 L 12.97 13.57 L 12.94 14.12 L 12.89 14.66 L 12.82 15.21 L 12.75 15.75 L 12.66 16.29 L 12.55 16.83 L 12.43 17.36 L 12.3 17.9 L 12.16 18.43 L 12.0 18.95" fill="none" stroke="#111" stroke-width="1.19" stroke-linecap="round" stroke-linejoin="round"/>
<path d="M 6.0 12.0 L 5.64 13.19 L 5.48 14.43 L 5.53 15.67 L 5.8 16.89 L 6.26 18.04 L 6.92 19.1 L 7.74 20.03 L 8.71 20.81 L 9.8 21.41 L 10.98 21.82 L 12.21 22.03 L 13.45 22.02 L 14.68 21.8 L 15.85 21.38 L 16.93 20.77 L 17.9 19.98 L 18.71 19.04 L 19.36 17.97 L 19.81 16.81 L 20.06 15.59 L 20.1 14.35 L 19.93 13.11 L 19.55 11.93 L 18.98 10.82" fill="none" stroke="#111" stroke-width="1.19" stroke-linecap="round" stroke-linejoin="round"/>
<path d="M 10.0 23.0 L 9.92 23.25 L 9.83 23.5 L 9.75 23.75 L 9.67 24.0 L 9.58 24.25 L 9.5 24.5 L 9.42 24.75 L 9.33 25.0 L 9.25 25.25 L 9.17 25.5 L 9.08 25.75 L 9.0 26.0 L 8.92 26.25 L 8.83 26.5 L 8.75 26.75 L 8.67 27.0 L 8.58 27.25 L 8.5 27.5 L 8.42 27.75 L 8.33 28.0 L 8.25 28.25 L 8.17 28.5 L 8.08 28.75 L 8.0 29.0" fill="none" stroke="#111" stroke-width="1.19" stroke-linecap="round" stroke-linejoin="round"/>
<path d="M 14.0 22.0 L 14.04 22.29 L 14.08 22.58 L 14.12 22.88 L 14.17 23.17 L 14.21 23.46 L 14.25 23.75 L 14.29 24.04 L 14.33 24.33 L 14.38 24.62 L 14.42 24.92 L 14.46 25.21 L 14.5 25.5 L 14.54 25.79 L 14.58 26.08 L 14.62 26.38 L 14.67 26.67 L 14.71 26.96 L 14.75 27.25 L 14.79 27.54 L 14.83 27.83 L 14.88 28.12 L 14.92 28.42 L 14.96 28.71 L 15.0 29.0" fill="none" stroke="#111" stroke-width="1.19" stroke-linecap="round" stroke-linejoin="round"/>
<path d="M 4.0 30.0 L 4.62 29.96 L 5.25 29.92 L 5.88 29.88 L 6.5 29.83 L 7.12 29.79 L 7.75 29.75 L 8.38 29.71 L 9.0 29.67 L 9.62 29.62 L 10.25 29.58 L 10.88 29.54 L 11.5 29.5 L 12.12 29.46 L 12.75 29.42 L 13.37 29.38 L 14.0 29.33 L 14.62 29.29 L 15.25 29.25 L 15.88 29.21 L 16.5 29.17 L 17.12 29.12 L 17.75 29.08 L 18.38 29.04 L 19.0 29.0" fill="none" stroke="#111" stroke-width="1.19" stroke-linecap="round" stroke-linejoin="round"/>
</svg>
