<?xml version="1.0" encoding="UTF-8"?>
<svg xmlns="http://www.w3.org/2000/svg" viewBox="0 0 25.72 35.11">
<path d="M 6.72 8.19 L 6.18 8.93 L 5.69 9.71 L 5.27 10.52 L 4.9 11.36 L 4.59 12.23 L 4.35 13.11 L 4.17 14.01 L 4.05 14.92 L 4.0 15.83 L 4.02 16.75 L 4.1 17.66 L 4.25 18.56 L 4.46 19.46 L 4.73 20.33 L 5.07 21.18 L 5.47 22.01 L 5.92 22.8 L 6.44 23.56 L 7.0 24.28 L 7.62 24.96 L 8.28 25.6 L 8.99 26.18 L 9.73 26.71 L 10.52 27.19" fill="none" stroke="#111" stroke-width="1.23" stroke-linecap="round" stroke-linejoin="round"/>
<path d="M 10.72 21.19 L 10.59 21.57 L 10.47 21.94 L 10.34 22.32 L 10.22 22.69 L 10.09 23.07 L 9.97 23.44 L 9.84 23.82 L 9.72 24.19 L 9.59 24.57 L 9.47 24.94 L 9.34 25.32 L 9.22 25.69 L 9.09 26.07 L 8.97 26.44 L 8.84 26.82 L 8.72 27.19 L 8.59 27.57 L 8.47 27.94 L 8.34 28.32 L 8.22 28.69 L 8.09 29.07 L 7.97 29.44 L 7.84 29.82 L 7.72 30.19" fill="none" stroke="#111" stroke-width="1.23" stroke-linecap="round" stroke-linejoin="round"/>
<path d="M 15.72 11.19 L 15.55 11.07 L 15.38 10.94 L 15.22 10.82 L 15.05 10.69 L 14.88 10.57 L 14.72 10.44 L 14.55 10.32 L 14.38 10.19 L 14.22 10.07 L 14.05 9.94 L 13.88 9.82 L 13.72 9.69 L 13.55 9.57 L 13.38 9.44 L 13.22 9.32 L 13.05 9.19 L 12.88 9.07 L 12.72 8.94 L 12.55 8.82 L 12.38 8.69 L 12.22 8.57 L 12.05 8.44 L 11.88 8.32 L 11.72 8.19 L 11.72 8.19 L 11.73 7.62 L 11.82 7.04 L 11.99 6.49 L 12.24 5.97 L 12.57 5.49 L 12.96 5.07 L 13.41 4.71 L 13.91 4.41 L 14.44 4.19 L 15.01 4.05 L 15.58 4.0 L 16.16 4.03 L 16.73 4.14 L 17.27 4.34 L 17.78 4.61 L 18.25 4.95 L 18.66 5.36 L 19.0 5.82 L 19.28 6.33 L 19.47 6.88 L 19.59 7.44 L 19.62 8.02 L 19.57 8.6 L 19.44 9.16 L 19.72 9.19 L 19.59 9.28 L 19.47 9.36 L 19.34 9.44 L 19.22 9.53 L 19.09 9.61 L 18.97 9.69 L 18.84 9.78 L 18.72 9.86 L 18.59 9.94 L 18.47 10.03 L 18.34 10.11 L 18.22 10.19 L 18.09 10.28 L 17.97 10.36 L 17.84 10.44 L 17.72 10.53 L 17.59 10.61 L 17.47 10.69 L 17.34 10.78 L 17.22 10.86 L 17.09 10.94 L 16.97 11.03 L 16.84 11.11 L 16.72 11.19" fill="none" stroke="#111" stroke-width="1.23" stroke-linecap="round" stroke-linejoin="round"/>
<path d="M 16.72 11.19 L 16.85 12.04 L 16.96 12.88 L 17.05 13.73 L 17.12 14.58 L 17.16 15.44 L 17.19 16.29 L 17.18 17.14 L 17.16 18.0 L 17.11 18.85 L 17.04 19.7 L 16.95 20.55 L 16.83 21.39 L 16.7 22.24 L 16.54 23.07 L 16.35 23.91 L 16.15 24.74 L 15.92 25.56 L 15.67 26.38 L 15.4 27.19 L 15.11 27.99 L 14.8 28.78 L 14.46 29.57 L 14.11 30.34 L 13.73 31.11" fill="none" stroke="#111" stroke-width="1.23" stroke-linecap="round" stroke-linejoin="round"/>
<path d="M 12.72 14.19 L 12.88 14.36 L 13.05 14.53 L 13.22 14.69 L 13.38 14.86 L 13.55 15.03 L 13.72 15.19 L 13.88 15.36 L 14.05 15.53 L 14.22 15.69 L 14.38 15.86 L 14.55 16.03 L 14.72 16.19 L 14.88 16.36 L 15.05 16.53 L 15.22 16.69 L 15.38 16.86 L 15.55 17.03 L 15.72 17.19 L 15.88 17.36 L 16.05 17.53 L 16.22 17.69 L 16.38 17.86 L 16.55 18.03 L 16.72 18.19 L 16.72 18.19 L 16.93 17.94 L 17.13 17.69 L 17.34 17.44 L 17.55 17.19 L 17.76 16.94 L 17.97 16.69 L 18.18 16.44 L 18.38 16.19 L 18.59 15.94 L 18.8 15.69 L 19.01 15.44 L 19.22 15.19 L 19.43 14.94 L 19.63 14.69 L 19.84 14.44 L 20.05 14.19 L 20.26 13.94 L 20.47 13.69 L 20.68 13.44 L 20.88 13.19 L 21.09 12.94 L 21.3 12.69 L 21.51 12.44 L 21.72 12.19" fill="none" stroke="#111" stroke-width="1.23" stroke-linecap="round" stroke-linejoin="round"/>
</svg>
