<?xml version="1.0" encoding="UTF-8"?>
<svg xmlns="http://www.w3.org/2000/svg" viewBox="0 0 23.00 38.69">
<path d="M 9.0 4.0 L 9.25 4.17 L 9.5 4.33 L 9.75 4.5 L 10.0 4.67 L 10.25 4.83 L 10.5 5.0 L 10.75 5.17 L 11.0 5.33 L 11.25 5.5 L 11.5 5.67 L 11.75 5.83 L 12.0 6.0 L 12.25 6.17 L 12.5 6.33 L 12.75 6.5 L 13.0 6.67 L 13.25 6.83 L 13.5 7.0 L 13.75 7.17 L 14.0 7.33 L 14.25 7.5 L 14.5 7.67 L 14.75 7.83 L 15.0 8.0" fill="none" stroke="#111" stroke-width="1.35" stroke-linecap="round" stroke-linejoin="round"/>
<path d="M 15.0 8.0 L 14.83 8.75 L 14.67 9.5 L 14.5 10.25 L 14.33 11.0 L 14.17 11.75 L 14.0 12.5 L 13.83 13.25 L 13.67 14.0 L 13.5 14.75 L 13.33 15.5 L 13.17 16.25 L 13.0 17.0 L 12.83 17.75 L 12.67 18.5 L 12.5 19.25 L 12.33 20.0 L 12.17 20.75 L 12.0 21.5 L 11.83 22.25 L 11.67 23.0 L 11.5 23.75 L 11.33 24.5 L 11.17 25.25 L 11.0 26.0" fill="none" stroke="#111" stroke-width="1.35" stroke-linecap="round" stroke-linejoin="round"/>
<path d="M 7.0 8.0 L 7.5 8.17 L 8.0 8.33 L 8.5 8.5 L 9.0 8.67 L 9.5 8.83 L 10.0 9.0 L 10.5 9.17 L 11.0 9.33 L 11.5 9.5 L 12.0 9.67 L 12.5 9.83 L 13.0 10.0 L 13.5 10.17 L 14.0 10.33 L 14.5 10.5 L 15.0 10.67 L 15.5 10.83 L 16.0 11.0 L 16.5 11.17 L 17.0 11.33 L 17.5 11.5 L 18.0 11.67 L 18.5 11.83 L 19.0 12.0" fill="none" stroke="#111" stroke-width="1.35" stroke-linecap="round" stroke-linejoin="round"/>
<path d="M 5.0 9.0 L 5.0 9.29 L 5.0 9.58 L 5.0 9.88 L 5.0 10.17 L 5.0 10.46 L 5.0 10.75 L 5.0 11.04 L 5.0 11.33 L 5.0 11.62 L 5.0 11.92 L 5.0 12.21 L 5.0 12.5 L 5.0 12.79 L 5.0 13.08 L 5.0 13.38 L 5.0 13.67 L 5.0 13.96 L 5.0 14.25 L 5.0 14.54 L 5.0 14.83 L 5.0 15.12 L 5.0 15.42 L 5.0 15.71 L 5.0 16.0" fill="none" stroke="#111" stroke-width="1.35" stroke-linecap="round" stroke-linejoin="round"/>
<path d="M 5.0 12.0 L 5.38 12.08 L 5.75 12.17 L 6.12 12.25 L 6.5 12.33 L 6.87 12.42 L 7.25 12.5 L 7.62 12.58 L 8.0 12.67 L 8.38 12.75 L 8.75 12.83 L 9.12 12.92 L 9.5 13.0 L 9.87 13.08 L 10.25 13.17 L 10.62 13.25 L 11.0 13.33 L 11.38 13.42 L 11.75 13.5 L 12.12 13.58 L 12.5 13.67 L 12.88 13.75 L 13.25 13.83 L 13.62 13.92 L 14.0 14.0" fill="none" stroke="#111" stroke-width="1.35" stroke-linecap="round" stroke-linejoin="round"/>
<path d="M 14.0 14.0 L 14.49 14.78 L 14.93 15.59 L 15.33 16.42 L 15.69 17.27 L 16.0 18.14 L 16.27 19.02 L 16.49 19.92 L 16.66 20.83 L 16.79 21.74 L 16.86 22.66 L 16.89 23.58 L 16.87 24.5 L 16.81 25.42 L 16.69 26.34 L 16.53 27.25 L 16.31 28.15 L 16.06 29.03 L 15.75 29.9 L 15.4 30.76 L 15.01 31.59 L 14.57 32.4 L 14.09 33.19 L 13.57 33.95 L 13.01 34.69" fill="none" stroke="#111" stroke-width="1.35" stroke-linecap="round" stroke-linejoin="round"/>
<path d="M 7.0 20.0 L 7.04 19.96 L 7.08 19.92 L 7.12 19.88 L 7.17 19.83 L 7.21 19.79 L 7.25 19.75 L 7.29 19.71 L 7.33 19.67 L 7.38 19.62 L 7.42 19.58 L 7.46 19.54 L 7.5 19.5 L 7.54 19.46 L 7.58 19.42 L 7.62 19.38 L 7.67 19.33 L 7.71 19.29 L 7.75 19.25 L 7.79 19.21 L 7.83 19.17 L 7.88 19.12 L 7.92 19.08 L 7.96 19.04 L 8.0 19.0 L 8.0 19.0 L 7.96 19.25 L 7.92 19.5 L 7.88 19.75 L 7.83 20.0 L 7.79 20.25 L 7.75 20.5 L 7.71 20.75 L 7.67 21.0 L 7.62 21.25 L 7.58 21.5 L 7.54 21.75 L 7.5 22.0 L 7.46 22.25 L 7.42 22.5 L 7.38 22.75 L 7.33 23.0 L 7.29 23.25 L 7.25 23.5 L 7.21 23.75 L 7.17 24.0 L 7.12 24.25 L 7.08 24.5 L 7.04 24.75 L 7.0 25.0" fill="none" stroke="#111" stroke-width="1.35" stroke-linecap="round" stroke-linejoin="round"/>
<path d="M 5.0 23.0 L 4.96 23.33 L 4.92 23.67 L 4.88 24.0 L 4.83 24.33 L 4.79 24.67 L 4.75 25.0 L 4.71 25.33 L 4.67 25.67 L 4.62 26.0 L 4.58 26.33 L 4.54 26.67 L 4.5 27.0 L 4.46 27.33 L 4.42 27.67 L 4.38 28.0 L 4.33 28.33 L 4.29 28.67 L 4.25 29.0 L 4.21 29.33 L 4.17 29.67 L 4.12 30.0 L 4.08 30.33 L 4.04 30.67 L 4.0 31.0" fill="none" stroke="#111" stroke-width="1.35" stroke-linecap="round" stroke-linejoin="round"/>
<path d="M 5.0 27.0 L 5.42 27.0 L 5.83 27.0 L 6.25 27.0 L 6.67 27.0 L 7.08 27.0 L 7.5 27.0 L 7.92 27.0 L 8.33 27.0 L 8.75 27.0 L 9.17 27.0 L 9.58 27.0 L 10.0 27.0 L 10.42 27.0 L 10.83 27.0 L 11.25 27.0 L 11.67 27.0 L 12.08 27.0 L 12.5 27.0 L 12.92 27.0 L 13.33 27.0 L 13.75 27.0 L 14.17 27.0 L 14.58 27.0 L 15.0 27.0" fill="none" stroke="#111" stroke-width="1.35" stroke-linecap="round" stroke-linejoin="round"/>
</svg>
