<?xml version="1.0" encoding="UTF-8"?>
<svg xmlns="http://www.w3.org/2000/svg" viewBox="0 0 25.00 31.44">
<path d="M 11.0 5.0 L 11.0 5.17 L 11.0 5.33 L 11.0 5.5 L 11.0 5.67 L 11.0 5.83 L 11.0 6.0 L 11.0 6.17 L 11.0 6.33 L 11.0 6.5 L 11.0 6.67 L 11.0 6.83 L 11.0 7.0 L 11.0 7.17 L 11.0 7.33 L 11.0 7.5 L 11.0 7.67 L 11.0 7.83 L 11.0 8.0 L 11.0 8.17 L 11.0 8.33 L 11.0 8.5 L 11.0 8.67 L 11.0 8.83 L 11.0 9.0" fill="none" stroke="#111" stroke-width="1.10" stroke-linecap="round" stroke-linejoin="round"/>
<path d="M 15.0 4.0 L 15.0 4.25 L 15.0 4.5 L 15.0 4.75 L 15.0 5.0 L 15.0 5.25 L 15.0 5.5 L 15.0 5.75 L 15.0 6.0 L 15.0 6.25 L 15.0 6.5 L 15.0 6.75 L 15.0 7.0 L 15.0 7.25 L 15.0 7.5 L 15.0 7.75 L 15.0 8.0 L 15.0 8.25 L 15.0 8.5 L 15.0 8.75 L 15.0 9.0 L 15.0 9.25 L 15.0 9.5 L 15.0 9.75 L 15.0 10.0" fill="none" stroke="#111" stroke-width="1.10" stroke-linecap="round" stroke-linejoin="round"/>
<path d="M 7.0 8.0 L 7.42 8.32 L 7.81 8.66 L 8.17 9.04 L 8.49 9.45 L 8.79 9.88 L 9.05 10.33 L 9.27 10.8 L 9.46 11.29 L 9.6 11.79 L 9.71 12.31 L 9.77 12.82 L 9.79 13.35 L 9.77 13.87 L 9.71 14.39 L 9.6 14.9 L 9.46 15.4 L 9.27 15.89 L 9.05 16.36 L 8.79 16.82 L 8.49 17.25 L 8.17 17.65 L 7.81 18.03 L 7.42 18.38 L 7.0 18.69 L 7.0 19.0 L 7.31 19.21 L 7.6 19.44 L 7.89 19.69 L 8.16 19.95 L 8.42 20.22 L 8.66 20.51 L 8.88 20.81 L 9.09 21.12 L 9.29 21.44 L 9.46 21.77 L 9.62 22.11 L 9.76 22.46 L 9.89 22.81 L 9.99 23.17 L 10.08 23.54 L 10.14 23.91 L 10.19 24.28 L 10.21 24.65 L 10.22 25.03 L 10.2 25.4 L 10.17 25.77 L 10.12 26.15 L 10.05 26.51 L 9.95 26.88" fill="none" stroke="#111" stroke-width="1.10" stroke-linecap="round" stroke-linejoin="round"/>
<path d="M 18.0 8.0 L 17.58 8.32 L 17.19 8.66 L 16.83 9.04 L 16.51 9.45 L 16.21 9.88 L 15.95 10.33 L 15.73 10.8 L 15.54 11.29 L 15.4 11.79 L 15.29 12.31 L 15.23 12.82 L 15.21 13.35 L 15.23 13.87 L 15.29 14.39 L 15.4 14.9 L 15.54 15.4 L 15.73 15.89 L 15.95 16.36 L 16.21 16.82 L 16.51 17.25 L 16.83 17.65 L 17.19 18.03 L 17.58 18.38 L 18.0 18.69 L 18.0 19.0 L 17.74 19.29 L 17.5 19.58 L 17.26 19.89 L 17.04 20.2 L 16.82 20.52 L 16.61 20.84 L 16.42 21.17 L 16.23 21.51 L 16.06 21.86 L 15.89 22.2 L 15.74 22.56 L 15.6 22.92 L 15.47 23.28 L 15.35 23.65 L 15.25 24.02 L 15.15 24.39 L 15.07 24.76 L 15.0 25.14 L 14.94 25.52 L 14.89 25.91 L 14.86 26.29 L 14.84 26.67 L 14.83 27.06 L 14.83 27.44" fill="none" stroke="#111" stroke-width="1.10" stroke-linecap="round" stroke-linejoin="round"/>
<path d="M 7.0 9.0 L 6.92 9.21 L 6.83 9.42 L 6.75 9.62 L 6.67 9.83 L 6.58 10.04 L 6.5 10.25 L 6.42 10.46 L 6.33 10.67 L 6.25 10.88 L 6.17 11.08 L 6.08 11.29 L 6.0 11.5 L 5.92 11.71 L 5.83 11.92 L 5.75 12.12 L 5.67 12.33 L 5.58 12.54 L 5.5 12.75 L 5.42 12.96 L 5.33 13.17 L 5.25 13.38 L 5.17 13.58 L 5.08 13.79 L 5.0 14.0" fill="none" stroke="#111" stroke-width="1.10" stroke-linecap="round" stroke-linejoin="round"/>
<path d="M 18.0 8.0 L 18.12 8.17 L 18.25 8.33 L 18.38 8.5 L 18.5 8.67 L 18.62 8.83 L 18.75 9.0 L 18.88 9.17 L 19.0 9.33 L 19.12 9.5 L 19.25 9.67 L 19.38 9.83 L 19.5 10.0 L 19.62 10.17 L 19.75 10.33 L 19.88 10.5 L 20.0 10.67 L 20.12 10.83 L 20.25 11.0 L 20.38 11.17 L 20.5 11.33 L 20.62 11.5 L 20.75 11.67 L 20.88 11.83 L 21.0 12.0" fill="none" stroke="#111" stroke-width="1.10" stroke-linecap="round" stroke-linejoin="round"/>
<path d="M 4.0 27.0 L 4.58 27.0 L 5.17 27.0 L 5.75 27.0 L 6.33 27.0 L 6.92 27.0 L 7.5 27.0 L 8.08 27.0 L 8.67 27.0 L 9.25 27.0 L 9.83 27.0 L 10.42 27.0 L 11.0 27.0 L 11.58 27.0 L 12.17 27.0 L 12.75 27.0 L 13.33 27.0 L 13.92 27.0 L 14.5 27.0 L 15.08 27.0 L 15.67 27.0 L 16.25 27.0 L 16.83 27.0 L 17.42 27.0 L 18.0 27.0" fill="none" stroke="#111" stroke-width="1.10" stroke-linecap="round" stroke-linejoin="round"/>
<path d="M 11.0 16.0 L 11.0 16.21 L 11.0 16.42 L 11.0 16.62 L 11.0 16.83 L 11.0 17.04 L 11.0 17.25 L 11.0 17.46 L 11.0 17.67 L 11.0 17.88 L 11.0 18.08 L 11.0 18.29 L 11.0 18.5 L 11.0 18.71 L 11.0 18.92 L 11.0 19.12 L 11.0 19.33 L 11.0 19.54 L 11.0 19.75 L 11.0 19.96 L 11.0 20.17 L 11.0 20.38 L 11.0 20.58 L 11.0 20.79 L 11.0 21.0" fill="none" stroke="#111" stroke-width="1.10" stroke-linecap="round" stroke-linejoin="round"/>
<path d="M 14.0 16.0 L 14.0 16.17 L 14.0 16.33 L 14.0 16.5 L 14.0 16.67 L 14.0 16.83 L 14.0 17.0 L 14.0 17.17 L 14.0 17.33 L 14.0 17.5 L 14.0 17.67 L 14.0 17.83 L 14.0 18.0 L 14.0 18.17 L 14.0 18.33 L 14.0 18.5 L 14.0 18.67 L 14.0 18.83 L 14.0 19.0 L 14.0 19.17 L 14.0 19.33 L 14.0 19.5 L 14.0 19.67 L 14.0 19.83 L 14.0 20.0" fill="none" stroke="#111" stroke-width="1.10" stroke-linecap="round" stroke-linejoin="round"/>
</svg>
