<?xml version="1.0" encoding="UTF-8"?>
<svg xmlns="http://www.w3.org/2000/svg" viewBox="0 0 25.00 34.00">
<path d="M 16.0 4.0 L 15.88 4.0 L 15.75 4.0 L 15.62 4.0 L 15.5 4.0 L 15.38 4.0 L 15.25 4.0 L 15.12 4.0 L 15.0 4.0 L 14.88 4.0 L 14.75 4.0 L 14.62 4.0 L 14.5 4.0 L 14.38 4.0 L 14.25 4.0 L 14.12 4.0 L 14.0 4.0 L 13.88 4.0 L 13.75 4.0 L 13.62 4.0 L 13.5 4.0 L 13.38 4.0 L 13.25 4.0 L 13.12 4.0 L 13.0 4.0" fill="none" stroke="#111" stroke-width="1.19" stroke-linecap="round" stroke-linejoin="round"/>
<path d="M 15.0 4.0 L 15.08 4.5 L 15.17 5.0 L 15.25 5.5 L 15.33 6.0 L 15.42 6.5 L 15.5 7.0 L 15.58 7.5 L 15.67 8.0 L 15.75 8.5 L 15.83 9.0 L 15.92 9.5 L 16.0 10.0 L 16.08 10.5 L 16.17 11.0 L 16.25 11.5 L 16.33 12.0 L 16.42 12.5 L 16.5 13.0 L 16.58 13.5 L 16.67 14.0 L 16.75 14.5 L 16.83 15.0 L 16.92 15.5 L 17.0 16.0" fill="none" stroke="#111" stroke-width="1.19" stroke-linecap="round" stroke-linejoin="round"/>
<path d="M 18.0 16.0 L 17.88 16.0 L 17.75 16.0 L 17.62 16.0 L 17.5 16.0 L 17.38 16.0 L 17.25 16.0 L 17.12 16.0 L 17.0 16.0 L 16.88 16.0 L 16.75 16.0 L 16.62 16.0 L 16.5 16.0 L 16.38 16.0 L 16.25 16.0 L 16.12 16.0 L 16.0 16.0 L 15.88 16.0 L 15.75 16.0 L 15.62 16.0 L 15.5 16.0 L 15.38 16.0 L 15.25 16.0 L 15.12 16.0 L 15.0 16.0" fill="none" stroke="#111" stroke-width="1.19" stroke-linecap="round" stroke-linejoin="round"/>
<path d="M 9.0 13.0 L 9.5 12.96 L 10.0 12.92 L 10.5 12.88 L 11.0 12.83 L 11.5 12.79 L 12.0 12.75 L 12.5 12.71 L 13.0 12.67 L 13.5 12.62 L 14.0 12.58 L 14.5 12.54 L 15.0 12.5 L 15.5 12.46 L 16.0 12.42 L 16.5 12.38 L 17.0 12.33 L 17.5 12.29 L 18.0 12.25 L 18.5 12.21 L 19.0 12.17 L 19.5 12.12 L 20.0 12.08 L 20.5 12.04 L 21.0 12.0" fill="none" stroke="#111" stroke-width="1.19" stroke-linecap="round" stroke-linejoin="round"/>
<path d="M 7.0 17.0 L 7.12 17.08 L 7.25 17.17 L 7.38 17.25 L 7.5 17.33 L 7.62 17.42 L 7.75 17.5 L 7.88 17.58 L 8.0 17.67 L 8.12 17.75 L 8.25 17.83 L 8.38 17.92 L 8.5 18.0 L 8.62 18.08 L 8.75 18.17 L 8.88 18.25 L 9.0 18.33 L 9.12 18.42 L 9.25 18.5 L 9.38 18.58 L 9.5 18.67 L 9.62 18.75 L 9.75 18.83 L 9.88 18.92 L 10.0 19.0 L 10.0 19.0 L 9.92 19.46 L 9.83 19.92 L 9.75 20.38 L 9.67 20.83 L 9.58 21.29 L 9.5 21.75 L 9.42 22.21 L 9.33 22.67 L 9.25 23.12 L 9.17 23.58 L 9.08 24.04 L 9.0 24.5 L 8.92 24.96 L 8.83 25.42 L 8.75 25.88 L 8.67 26.33 L 8.58 26.79 L 8.5 27.25 L 8.42 27.71 L 8.33 28.17 L 8.25 28.62 L 8.17 29.08 L 8.08 29.54 L 8.0 30.0" fill="none" stroke="#111" stroke-width="1.19" stroke-linecap="round" stroke-linejoin="round"/>
<path d="M 4.0 20.0 L 4.54 19.96 L 5.08 19.92 L 5.62 19.88 L 6.17 19.83 L 6.71 19.79 L 7.25 19.75 L 7.79 19.71 L 8.33 19.67 L 8.88 19.62 L 9.42 19.58 L 9.96 19.54 L 10.5 19.5 L 11.04 19.46 L 11.58 19.42 L 12.13 19.38 L 12.67 19.33 L 13.21 19.29 L 13.75 19.25 L 14.29 19.21 L 14.83 19.17 L 15.38 19.12 L 15.92 19.08 L 16.46 19.04 L 17.0 19.0" fill="none" stroke="#111" stroke-width="1.19" stroke-linecap="round" stroke-linejoin="round"/>
<path d="M 7.0 30.0 L 7.21 30.0 L 7.42 30.0 L 7.62 30.0 L 7.83 30.0 L 8.04 30.0 L 8.25 30.0 L 8.46 30.0 L 8.67 30.0 L 8.88 30.0 L 9.08 30.0 L 9.29 30.0 L 9.5 30.0 L 9.71 30.0 L 9.92 30.0 L 10.12 30.0 L 10.33 30.0 L 10.54 30.0 L 10.75 30.0 L 10.96 30.0 L 11.17 30.0 L 11.38 30.0 L 11.58 30.0 L 11.79 30.0 L 12.0 30.0" fill="none" stroke="#111" stroke-width="1.19" stroke-linecap="round" stroke-linejoin="round"/>
</svg>
