<?xml version="1.0" encoding="UTF-8"?>
<svg xmlns="http://www.w3.org/2000/svg" viewBox="0 0 21.70 32.64">
<path d="M 9.92 4.0 L 9.92 4.46 L 9.92 4.92 L 9.92 5.38 L 9.92 5.83 L 9.92 6.29 L 9.92 6.75 L 9.92 7.21 L 9.92 7.67 L 9.92 8.12 L 9.92 8.58 L 9.92 9.04 L 9.92 9.5 L 9.92 9.96 L 9.92 10.42 L 9.92 10.88 L 9.92 11.33 L 9.92 11.79 L 9.92 12.25 L 9.92 12.71 L 9.92 13.17 L 9.92 13.62 L 9.92 14.08 L 9.92 14.54 L 9.92 15.0" fill="none" stroke="#111" stroke-width="1.14" stroke-linecap="round" stroke-linejoin="round"/>
<path d="M 9.92 8.0 L 9.71 8.21 L 9.5 8.42 L 9.29 8.62 L 9.08 8.83 L 8.87 9.04 L 8.67 9.25 L 8.46 9.46 L 8.25 9.67 L 8.04 9.88 L 7.83 10.08 L 7.62 10.29 L 7.42 10.5 L 7.21 10.71 L 7.0 10.92 L 6.79 11.12 L 6.58 11.33 L 6.37 11.54 L 6.17 11.75 L 5.96 11.96 L 5.75 12.17 L 5.54 12.38 L 5.33 12.58 L 5.12 12.79 L 4.92 13.0" fill="none" stroke="#111" stroke-width="1.14" stroke-linecap="round" stroke-linejoin="round"/>
<path d="M 9.92 8.0 L 10.12 8.17 L 10.33 8.33 L 10.54 8.5 L 10.75 8.67 L 10.96 8.83 L 11.17 9.0 L 11.37 9.17 L 11.58 9.33 L 11.79 9.5 L 12.0 9.67 L 12.21 9.83 L 12.42 10.0 L 12.62 10.17 L 12.83 10.33 L 13.04 10.5 L 13.25 10.67 L 13.46 10.83 L 13.67 11.0 L 13.87 11.17 L 14.08 11.33 L 14.29 11.5 L 14.5 11.67 L 14.71 11.83 L 14.92 12.0" fill="none" stroke="#111" stroke-width="1.14" stroke-linecap="round" stroke-linejoin="round"/>
<path d="M 9.92 15.0 L 9.48 15.19 L 9.06 15.4 L 8.65 15.63 L 8.25 15.88 L 7.86 16.15 L 7.49 16.44 L 7.13 16.75 L 6.79 17.07 L 6.47 17.41 L 6.16 17.77 L 5.87 18.14 L 5.6 18.53 L 5.34 18.93 L 5.11 19.34 L 4.9 19.76 L 4.71 20.19 L 4.54 20.63 L 4.4 21.08 L 4.27 21.54 L 4.17 22.0 L 4.09 22.46 L 4.04 22.93 L 4.01 23.4 L 4.0 23.87" fill="none" stroke="#111" stroke-width="1.14" stroke-linecap="round" stroke-linejoin="round"/>
<path d="M 9.92 15.0 L 10.63 15.17 L 11.33 15.39 L 12.01 15.66 L 12.67 15.99 L 13.3 16.36 L 13.9 16.78 L 14.46 17.25 L 14.99 17.75 L 15.48 18.3 L 15.93 18.88 L 16.33 19.5 L 16.68 20.14 L 16.99 20.81 L 17.24 21.5 L 17.43 22.2 L 17.58 22.92 L 17.67 23.65 L 17.7 24.38 L 17.67 25.12 L 17.6 25.84 L 17.46 26.56 L 17.27 27.27 L 17.03 27.97 L 16.73 28.64" fill="none" stroke="#111" stroke-width="1.14" stroke-linecap="round" stroke-linejoin="round"/>
<path d="M 7.92 21.0 L 7.46 21.7 L 7.14 22.47 L 6.97 23.29 L 6.95 24.12 L 7.1 24.95 L 7.39 25.73 L 7.82 26.44 L 8.37 27.07 L 9.04 27.58 L 9.78 27.95 L 10.58 28.18 L 11.42 28.26 L 12.25 28.18 L 13.05 27.95 L 13.79 27.58 L 14.46 27.07 L 15.01 26.44 L 15.45 25.73 L 15.74 24.95 L 15.88 24.12 L 15.86 23.29 L 15.69 22.47 L 15.37 21.7 L 14.91 21.0" fill="none" stroke="#111" stroke-width="1.14" stroke-linecap="round" stroke-linejoin="round"/>
<path d="M 7.92 24.0 L 8.12 24.0 L 8.33 24.0 L 8.54 24.0 L 8.75 24.0 L 8.96 24.0 L 9.17 24.0 L 9.37 24.0 L 9.58 24.0 L 9.79 24.0 L 10.0 24.0 L 10.21 24.0 L 10.42 24.0 L 10.62 24.0 L 10.83 24.0 L 11.04 24.0 L 11.25 24.0 L 11.46 24.0 L 11.67 24.0 L 11.87 24.0 L 12.08 24.0 L 12.29 24.0 L 12.5 24.0 L 12.71 24.0 L 12.92 24.0" fill="none" stroke="#111" stroke-width="1.14" stroke-linecap="round" stroke-linejoin="round"/>
</svg>
