<?xml version="1.0" encoding="UTF-8"?>
<svg xmlns="http://www.w3.org/2000/svg" viewBox="0 0 24.00 32.94">
<path d="M 20.0 4.0 L 19.5 4.04 L 19.0 4.08 L 18.5 4.12 L 18.0 4.17 L 17.5 4.21 L 17.0 4.25 L 16.5 4.29 L 16.0 4.33 L 15.5 4.38 L 15.0 4.42 L 14.5 4.46 L 14.0 4.5 L 13.5 4.54 L 13.0 4.58 L 12.5 4.63 L 12.0 4.67 L 11.5 4.71 L 11.0 4.75 L 10.5 4.79 L 10.0 4.83 L 9.5 4.88 L 9.0 4.92 L 8.5 4.96 L 8.0 5.0 L 8.0 5.0 L 7.92 5.38 L 7.88 5.76 L 7.89 6.14 L 7.94 6.52 L 8.04 6.89 L 8.17 7.25 L 8.35 7.59 L 8.57 7.91 L 8.81 8.21 L 9.1 8.47 L 9.4 8.7 L 9.74 8.89 L 10.09 9.04 L 10.46 9.15 L 10.84 9.22 L 11.22 9.24 L 11.6 9.22 L 11.98 9.16 L 12.35 9.05 L 12.71 8.9 L 13.04 8.72 L 13.35 8.49 L 13.64 8.23 L 13.89 7.94 L 14.0 8.0 L 14.25 7.83 L 14.5 7.67 L 14.75 7.5 L 15.0 7.33 L 15.25 7.17 L 15.5 7.0 L 15.75 6.83 L 16.0 6.67 L 16.25 6.5 L 16.5 6.33 L 16.75 6.17 L 17.0 6.0 L 17.25 5.83 L 17.5 5.67 L 17.75 5.5 L 18.0 5.33 L 18.25 5.17 L 18.5 5.0 L 18.75 4.83 L 19.0 4.67 L 19.25 4.5 L 19.5 4.33 L 19.75 4.17 L 20.0 4.0" fill="none" stroke="#111" stroke-width="1.15" stroke-linecap="round" stroke-linejoin="round"/>
<path d="M 13.0 4.0 L 12.84 4.11 L 12.69 4.23 L 12.55 4.36 L 12.43 4.5 L 12.31 4.65 L 12.21 4.81 L 12.13 4.98 L 12.06 5.16 L 12.0 5.34 L 11.96 5.53 L 11.94 5.72 L 11.93 5.91 L 11.94 6.1 L 11.96 6.29 L 12.0 6.48 L 12.06 6.66 L 12.13 6.83 L 12.21 7.0 L 12.31 7.17 L 12.43 7.32 L 12.55 7.46 L 12.69 7.59 L 12.84 7.71 L 13.0 7.82" fill="none" stroke="#111" stroke-width="1.15" stroke-linecap="round" stroke-linejoin="round"/>
<path d="M 15.0 4.0 L 15.04 4.12 L 15.08 4.25 L 15.12 4.38 L 15.17 4.5 L 15.21 4.62 L 15.25 4.75 L 15.29 4.88 L 15.33 5.0 L 15.38 5.12 L 15.42 5.25 L 15.46 5.38 L 15.5 5.5 L 15.54 5.62 L 15.58 5.75 L 15.62 5.88 L 15.67 6.0 L 15.71 6.12 L 15.75 6.25 L 15.79 6.38 L 15.83 6.5 L 15.88 6.62 L 15.92 6.75 L 15.96 6.88 L 16.0 7.0" fill="none" stroke="#111" stroke-width="1.15" stroke-linecap="round" stroke-linejoin="round"/>
<path d="M 15.0 7.0 L 15.58 7.45 L 16.12 7.95 L 16.61 8.5 L 17.04 9.1 L 17.41 9.73 L 17.71 10.4 L 17.95 11.1 L 18.12 11.81 L 18.22 12.54 L 18.24 13.28 L 18.19 14.01 L 18.08 14.73 L 17.89 15.44 L 17.63 16.13 L 17.3 16.79 L 16.92 17.42 L 16.47 18.0 L 15.97 18.54 L 15.42 19.02 L 14.82 19.45 L 14.18 19.82 L 13.51 20.13 L 12.82 20.36 L 12.1 20.53 L 12.0 21.0 L 12.15 21.4 L 12.35 21.79 L 12.59 22.15 L 12.87 22.48 L 13.19 22.77 L 13.54 23.02 L 13.92 23.23 L 14.32 23.39 L 14.73 23.51 L 15.16 23.57 L 15.59 23.59 L 16.02 23.55 L 16.45 23.47 L 16.86 23.33 L 17.25 23.15 L 17.61 22.92 L 17.95 22.65 L 18.26 22.35 L 18.52 22.01 L 18.75 21.64 L 18.92 21.24 L 19.06 20.83 L 19.14 20.41 L 19.17 19.98 L 19.0 20.0 L 19.06 20.39 L 19.1 20.78 L 19.13 21.17 L 19.15 21.56 L 19.16 21.95 L 19.15 22.34 L 19.13 22.73 L 19.1 23.12 L 19.06 23.51 L 19.01 23.89 L 18.94 24.28 L 18.86 24.66 L 18.77 25.04 L 18.67 25.42 L 18.55 25.79 L 18.43 26.16 L 18.29 26.53 L 18.14 26.89 L 17.98 27.25 L 17.81 27.6 L 17.62 27.94 L 17.43 28.28 L 17.23 28.62 L 17.01 28.94" fill="none" stroke="#111" stroke-width="1.15" stroke-linecap="round" stroke-linejoin="round"/>
<path d="M 16.0 10.0 L 15.88 10.38 L 15.75 10.75 L 15.62 11.12 L 15.5 11.5 L 15.38 11.88 L 15.25 12.25 L 15.12 12.62 L 15.0 13.0 L 14.88 13.38 L 14.75 13.75 L 14.62 14.12 L 14.5 14.5 L 14.38 14.88 L 14.25 15.25 L 14.12 15.62 L 14.0 16.0 L 13.88 16.38 L 13.75 16.75 L 13.62 17.12 L 13.5 17.5 L 13.38 17.88 L 13.25 18.25 L 13.12 18.62 L 13.0 19.0" fill="none" stroke="#111" stroke-width="1.15" stroke-linecap="round" stroke-linejoin="round"/>
<path d="M 6.0 14.0 L 5.9 14.26 L 5.83 14.52 L 5.77 14.79 L 5.73 15.06 L 5.72 15.34 L 5.73 15.61 L 5.76 15.89 L 5.81 16.16 L 5.88 16.42 L 5.97 16.68 L 6.09 16.93 L 6.22 17.17 L 6.37 17.4 L 6.54 17.62 L 6.72 17.83 L 6.92 18.01 L 7.14 18.19 L 7.37 18.34 L 7.6 18.48 L 7.85 18.6 L 8.11 18.69 L 8.37 18.77 L 8.64 18.83 L 8.92 18.86 L 9.0 19.0 L 9.35 18.92 L 9.7 18.8 L 10.03 18.65 L 10.34 18.48 L 10.64 18.27 L 10.92 18.04 L 11.18 17.78 L 11.41 17.5 L 11.61 17.21 L 11.79 16.89 L 11.94 16.56 L 12.05 16.21 L 12.14 15.86 L 12.19 15.5 L 12.21 15.14 L 12.19 14.78 L 12.14 14.42 L 12.06 14.06 L 11.94 13.72 L 11.8 13.39 L 11.62 13.07 L 11.42 12.77 L 11.19 12.49 L 10.93 12.23" fill="none" stroke="#111" stroke-width="1.15" stroke-linecap="round" stroke-linejoin="round"/>
<path d="M 9.0 19.0 L 8.88 19.21 L 8.75 19.42 L 8.62 19.62 L 8.5 19.83 L 8.38 20.04 L 8.25 20.25 L 8.12 20.46 L 8.0 20.67 L 7.88 20.88 L 7.75 21.08 L 7.63 21.29 L 7.5 21.5 L 7.38 21.71 L 7.25 21.92 L 7.12 22.12 L 7.0 22.33 L 6.88 22.54 L 6.75 22.75 L 6.63 22.96 L 6.5 23.17 L 6.38 23.38 L 6.25 23.58 L 6.13 23.79 L 6.0 24.0" fill="none" stroke="#111" stroke-width="1.15" stroke-linecap="round" stroke-linejoin="round"/>
<path d="M 9.0 19.0 L 9.04 19.21 L 9.08 19.42 L 9.12 19.62 L 9.17 19.83 L 9.21 20.04 L 9.25 20.25 L 9.29 20.46 L 9.33 20.67 L 9.38 20.88 L 9.42 21.08 L 9.46 21.29 L 9.5 21.5 L 9.54 21.71 L 9.58 21.92 L 9.62 22.12 L 9.67 22.33 L 9.71 22.54 L 9.75 22.75 L 9.79 22.96 L 9.83 23.17 L 9.88 23.38 L 9.92 23.58 L 9.96 23.79 L 10.0 24.0" fill="none" stroke="#111" stroke-width="1.15" stroke-linecap="round" stroke-linejoin="round"/>
<path d="M 4.0 24.0 L 4.29 24.0 L 4.58 24.0 L 4.88 24.0 L 5.17 24.0 L 5.46 24.0 L 5.75 24.0 L 6.04 24.0 L 6.33 24.0 L 6.62 24.0 L 6.92 24.0 L 7.21 24.0 L 7.5 24.0 L 7.79 24.0 L 8.08 24.0 L 8.38 24.0 L 8.67 24.0 L 8.96 24.0 L 9.25 24.0 L 9.54 24.0 L 9.83 24.0 L 10.12 24.0 L 10.42 24.0 L 10.71 24.0 L 11.0 24.0" fill="none" stroke="#111" stroke-width="1.15" stroke-linecap="round" stroke-linejoin="round"/>
</svg>
