<?xml version="1.0" encoding="UTF-8"?>
<svg xmlns="http://www.w3.org/2000/svg" viewBox="0 0 28.98 26.77">
<path d="M 4.98 4.0 L 5.31 4.0 L 5.64 4.0 L 5.98 4.0 L 6.31 4.0 L 6.64 4.0 L 6.98 4.0 L 7.31 4.0 L 7.64 4.0 L 7.98 4.0 L 8.31 4.0 L 8.64 4.0 L 8.98 4.0 L 9.31 4.0 L 9.64 4.0 L 9.98 4.0 L 10.31 4.0 L 10.64 4.0 L 10.98 4.0 L 11.31 4.0 L 11.64 4.0 L 11.98 4.0 L 12.31 4.0 L 12.64 4.0 L 12.98 4.0" fill="none" stroke="#111" stroke-width="1.01" stroke-linecap="round" stroke-linejoin="round"/>
<path d="M 6.98 4.0 L 7.02 4.12 L 7.06 4.25 L 7.1 4.38 L 7.14 4.5 L 7.19 4.62 L 7.23 4.75 L 7.27 4.88 L 7.31 5.0 L 7.35 5.12 L 7.39 5.25 L 7.44 5.38 L 7.48 5.5 L 7.52 5.62 L 7.56 5.75 L 7.6 5.88 L 7.64 6.0 L 7.69 6.12 L 7.73 6.25 L 7.77 6.38 L 7.81 6.5 L 7.85 6.62 L 7.89 6.75 L 7.94 6.88 L 7.98 7.0" fill="none" stroke="#111" stroke-width="1.01" stroke-linecap="round" stroke-linejoin="round"/>
<path d="M 10.98 4.0 L 10.85 4.12 L 10.73 4.25 L 10.6 4.38 L 10.48 4.5 L 10.35 4.62 L 10.23 4.75 L 10.1 4.88 L 9.98 5.0 L 9.85 5.12 L 9.73 5.25 L 9.6 5.38 L 9.48 5.5 L 9.35 5.62 L 9.23 5.75 L 9.1 5.88 L 8.98 6.0 L 8.85 6.12 L 8.73 6.25 L 8.6 6.38 L 8.48 6.5 L 8.35 6.62 L 8.23 6.75 L 8.1 6.88 L 7.98 7.0" fill="none" stroke="#111" stroke-width="1.01" stroke-linecap="round" stroke-linejoin="round"/>
<path d="M 4.98 8.0 L 5.23 8.0 L 5.48 8.0 L 5.73 8.0 L 5.98 8.0 L 6.23 8.0 L 6.48 8.0 L 6.73 8.0 L 6.98 8.0 L 7.23 8.0 L 7.48 8.0 L 7.73 8.0 L 7.98 8.0 L 8.23 8.0 L 8.48 8.0 L 8.73 8.0 L 8.98 8.0 L 9.23 8.0 L 9.48 8.0 L 9.73 8.0 L 9.98 8.0 L 10.23 8.0 L 10.48 8.0 L 10.73 8.0 L 10.98 8.0" fill="none" stroke="#111" stroke-width="1.01" stroke-linecap="round" stroke-linejoin="round"/>
<path d="M 7.98 8.0 L 7.98 8.08 L 7.98 8.17 L 7.98 8.25 L 7.98 8.33 L 7.98 8.42 L 7.98 8.5 L 7.98 8.58 L 7.98 8.67 L 7.98 8.75 L 7.98 8.83 L 7.98 8.92 L 7.98 9.0 L 7.98 9.08 L 7.98 9.17 L 7.98 9.25 L 7.98 9.33 L 7.98 9.42 L 7.98 9.5 L 7.98 9.58 L 7.98 9.67 L 7.98 9.75 L 7.98 9.83 L 7.98 9.92 L 7.98 10.0" fill="none" stroke="#111" stroke-width="1.01" stroke-linecap="round" stroke-linejoin="round"/>
<path d="M 7.98 10.0 L 7.85 10.04 L 7.73 10.08 L 7.6 10.12 L 7.48 10.17 L 7.35 10.21 L 7.23 10.25 L 7.1 10.29 L 6.98 10.33 L 6.85 10.38 L 6.73 10.42 L 6.6 10.46 L 6.48 10.5 L 6.35 10.54 L 6.23 10.58 L 6.1 10.62 L 5.98 10.67 L 5.85 10.71 L 5.73 10.75 L 5.6 10.79 L 5.48 10.83 L 5.35 10.88 L 5.23 10.92 L 5.1 10.96 L 4.98 11.0 L 4.98 11.0 L 4.98 11.12 L 4.98 11.25 L 4.98 11.38 L 4.98 11.5 L 4.98 11.62 L 4.98 11.75 L 4.98 11.88 L 4.98 12.0 L 4.98 12.12 L 4.98 12.25 L 4.98 12.38 L 4.98 12.5 L 4.98 12.62 L 4.98 12.75 L 4.98 12.88 L 4.98 13.0 L 4.98 13.12 L 4.98 13.25 L 4.98 13.38 L 4.98 13.5 L 4.98 13.62 L 4.98 13.75 L 4.98 13.88 L 4.98 14.0 L 4.98 14.0 L 5.0 14.1 L 5.02 14.2 L 5.04 14.3 L 5.05 14.4 L 5.05 14.5 L 5.04 14.6 L 5.03 14.7 L 5.01 14.8 L 4.99 14.89 L 4.96 14.99 L 4.92 15.08 L 4.88 15.17 L 4.83 15.26 L 4.78 15.35 L 4.72 15.43 L 4.66 15.51 L 4.59 15.58 L 4.52 15.65 L 4.44 15.71 L 4.36 15.77 L 4.27 15.83 L 4.18 15.88 L 4.09 15.92 L 4.0 15.96" fill="none" stroke="#111" stroke-width="1.01" stroke-linecap="round" stroke-linejoin="round"/>
<path d="M 7.98 10.0 L 8.1 10.08 L 8.23 10.17 L 8.35 10.25 L 8.48 10.33 L 8.6 10.42 L 8.73 10.5 L 8.85 10.58 L 8.98 10.67 L 9.1 10.75 L 9.23 10.83 L 9.35 10.92 L 9.48 11.0 L 9.6 11.08 L 9.73 11.17 L 9.85 11.25 L 9.98 11.33 L 10.1 11.42 L 10.23 11.5 L 10.35 11.58 L 10.48 11.67 L 10.6 11.75 L 10.73 11.83 L 10.85 11.92 L 10.98 12.0 L 10.98 12.0 L 10.87 12.1 L 10.77 12.19 L 10.67 12.3 L 10.58 12.41 L 10.49 12.52 L 10.41 12.64 L 10.34 12.76 L 10.26 12.88 L 10.2 13.01 L 10.14 13.13 L 10.09 13.27 L 10.04 13.4 L 10.0 13.54 L 9.96 13.67 L 9.93 13.81 L 9.91 13.95 L 9.89 14.09 L 9.88 14.24 L 9.87 14.38 L 9.88 14.52 L 9.89 14.66 L 9.9 14.8 L 9.92 14.94 L 9.95 15.08" fill="none" stroke="#111" stroke-width="1.01" stroke-linecap="round" stroke-linejoin="round"/>
<path d="M 8.98 9.0 L 9.31 8.96 L 9.64 8.95 L 9.97 8.96 L 10.3 9.0 L 10.63 9.07 L 10.95 9.16 L 11.26 9.28 L 11.56 9.42 L 11.85 9.58 L 12.13 9.77 L 12.39 9.97 L 12.64 10.2 L 12.86 10.44 L 13.07 10.7 L 13.25 10.98 L 13.42 11.27 L 13.56 11.57 L 13.67 11.88 L 13.76 12.2 L 13.83 12.53 L 13.87 12.86 L 13.88 13.19 L 13.87 13.53 L 13.83 13.86 L 13.98 14.0 L 13.94 14.12 L 13.89 14.25 L 13.85 14.38 L 13.81 14.5 L 13.77 14.62 L 13.73 14.75 L 13.69 14.88 L 13.64 15.0 L 13.6 15.12 L 13.56 15.25 L 13.52 15.38 L 13.48 15.5 L 13.44 15.62 L 13.39 15.75 L 13.35 15.88 L 13.31 16.0 L 13.27 16.12 L 13.23 16.25 L 13.19 16.38 L 13.14 16.5 L 13.1 16.62 L 13.06 16.75 L 13.02 16.88 L 12.98 17.0 L 12.98 17.0 L 12.44 17.22 L 11.95 17.55 L 11.53 17.96 L 11.21 18.45 L 10.99 18.99 L 10.88 19.57 L 10.89 20.15 L 11.01 20.73 L 11.24 21.26 L 11.58 21.74 L 12.0 22.15 L 12.5 22.46 L 13.05 22.67 L 13.62 22.77 L 14.21 22.75 L 14.78 22.61 L 15.31 22.37 L 15.78 22.02 L 16.18 21.59 L 16.48 21.09 L 16.68 20.53 L 16.76 19.95 L 16.73 19.37 L 16.58 18.8" fill="none" stroke="#111" stroke-width="1.01" stroke-linecap="round" stroke-linejoin="round"/>
<path d="M 13.98 12.0 L 14.19 12.0 L 14.39 12.0 L 14.6 12.0 L 14.81 12.0 L 15.02 12.0 L 15.23 12.0 L 15.44 12.0 L 15.64 12.0 L 15.85 12.0 L 16.06 12.0 L 16.27 12.0 L 16.48 12.0 L 16.69 12.0 L 16.89 12.0 L 17.1 12.0 L 17.31 12.0 L 17.52 12.0 L 17.73 12.0 L 17.94 12.0 L 18.14 12.0 L 18.35 12.0 L 18.56 12.0 L 18.77 12.0 L 18.98 12.0" fill="none" stroke="#111" stroke-width="1.01" stroke-linecap="round" stroke-linejoin="round"/>
<path d="M 15.98 12.0 L 15.98 12.21 L 15.98 12.42 L 15.98 12.62 L 15.98 12.83 L 15.98 13.04 L 15.98 13.25 L 15.98 13.46 L 15.98 13.67 L 15.98 13.88 L 15.98 14.08 L 15.98 14.29 L 15.98 14.5 L 15.98 14.71 L 15.98 14.92 L 15.98 15.12 L 15.98 15.33 L 15.98 15.54 L 15.98 15.75 L 15.98 15.96 L 15.98 16.17 L 15.98 16.38 L 15.98 16.58 L 15.98 16.79 L 15.98 17.0" fill="none" stroke="#111" stroke-width="1.01" stroke-linecap="round" stroke-linejoin="round"/>
<path d="M 19.98 12.0 L 20.19 12.0 L 20.39 12.0 L 20.6 12.0 L 20.81 12.0 L 21.02 12.0 L 21.23 12.0 L 21.44 12.0 L 21.64 12.0 L 21.85 12.0 L 22.06 12.0 L 22.27 12.0 L 22.48 12.0 L 22.69 12.0 L 22.89 12.0 L 23.1 12.0 L 23.31 12.0 L 23.52 12.0 L 23.73 12.0 L 23.94 12.0 L 24.14 12.0 L 24.35 12.0 L 24.56 12.0 L 24.77 12.0 L 24.98 12.0" fill="none" stroke="#111" stroke-width="1.01" stroke-linecap="round" stroke-linejoin="round"/>
<path d="M 21.98 12.0 L 21.98 12.33 L 21.98 12.67 L 21.98 13.0 L 21.98 13.33 L 21.98 13.67 L 21.98 14.0 L 21.98 14.33 L 21.98 14.67 L 21.98 15.0 L 21.98 15.33 L 21.98 15.67 L 21.98 16.0 L 21.98 16.33 L 21.98 16.67 L 21.98 17.0 L 21.98 17.33 L 21.98 17.67 L 21.98 18.0 L 21.98 18.33 L 21.98 18.67 L 21.98 19.0 L 21.98 19.33 L 21.98 19.67 L 21.98 20.0" fill="none" stroke="#111" stroke-width="1.01" stroke-linecap="round" stroke-linejoin="round"/>
</svg>
