<?xml version="1.0" encoding="UTF-8"?>
<svg xmlns="http://www.w3.org/2000/svg" viewBox="0 0 24.00 35.94">
<path d="M 5.0 7.0 L 5.51 7.83 L 5.97 8.69 L 6.39 9.57 L 6.76 10.47 L 7.08 11.39 L 7.36 12.32 L 7.59 13.27 L 7.77 14.22 L 7.9 15.19 L 7.98 16.16 L 8.02 17.13 L 8.0 18.11 L 7.93 19.08 L 7.81 20.05 L 7.64 21.01 L 7.42 21.95 L 7.15 22.89 L 6.84 23.81 L 6.48 24.72 L 6.07 25.6 L 5.62 26.47 L 5.12 27.3 L 4.58 28.12 L 4.0 28.9" fill="none" stroke="#111" stroke-width="1.26" stroke-linecap="round" stroke-linejoin="round"/>
<path d="M 18.0 4.0 L 17.63 5.13 L 17.28 6.26 L 16.97 7.41 L 16.7 8.56 L 16.45 9.72 L 16.24 10.89 L 16.06 12.06 L 15.91 13.23 L 15.79 14.42 L 15.71 15.6 L 15.66 16.78 L 15.64 17.97 L 15.66 19.16 L 15.71 20.34 L 15.79 21.52 L 15.91 22.7 L 16.06 23.88 L 16.24 25.05 L 16.45 26.22 L 16.7 27.38 L 16.97 28.53 L 17.28 29.68 L 17.63 30.81 L 18.0 31.94" fill="none" stroke="#111" stroke-width="1.26" stroke-linecap="round" stroke-linejoin="round"/>
<path d="M 4.0 15.0 L 4.67 14.92 L 5.33 14.83 L 6.0 14.75 L 6.67 14.67 L 7.33 14.58 L 8.0 14.5 L 8.67 14.42 L 9.33 14.33 L 10.0 14.25 L 10.67 14.17 L 11.33 14.08 L 12.0 14.0 L 12.67 13.92 L 13.33 13.83 L 14.0 13.75 L 14.67 13.67 L 15.33 13.58 L 16.0 13.5 L 16.67 13.42 L 17.33 13.33 L 18.0 13.25 L 18.67 13.17 L 19.33 13.08 L 20.0 13.0" fill="none" stroke="#111" stroke-width="1.26" stroke-linecap="round" stroke-linejoin="round"/>
<path d="M 5.0 22.0 L 5.62 22.0 L 6.25 22.0 L 6.88 22.0 L 7.5 22.0 L 8.12 22.0 L 8.75 22.0 L 9.38 22.0 L 10.0 22.0 L 10.62 22.0 L 11.25 22.0 L 11.88 22.0 L 12.5 22.0 L 13.12 22.0 L 13.75 22.0 L 14.38 22.0 L 15.0 22.0 L 15.62 22.0 L 16.25 22.0 L 16.88 22.0 L 17.5 22.0 L 18.12 22.0 L 18.75 22.0 L 19.38 22.0 L 20.0 22.0" fill="none" stroke="#111" stroke-width="1.26" stroke-linecap="round" stroke-linejoin="round"/>
</svg>
