<?xml version="1.0" encoding="UTF-8"?>
<svg xmlns="http://www.w3.org/2000/svg" viewBox="0 0 25.14 31.21">
<path d="M 14.0 7.0 L 13.72 7.16 L 13.45 7.36 L 13.21 7.57 L 12.99 7.82 L 12.8 8.08 L 12.64 8.37 L 12.51 8.67 L 12.41 8.98 L 12.34 9.3 L 12.31 9.62 L 12.31 9.95 L 12.35 10.27 L 12.42 10.59 L 12.52 10.9 L 12.66 11.2 L 12.82 11.48 L 13.02 11.74 L 13.24 11.98 L 13.49 12.2 L 13.75 12.39 L 14.04 12.55 L 14.34 12.68 L 14.65 12.77 L 14.97 12.84 L 15.0 13.0 L 15.46 12.89 L 15.9 12.72 L 16.32 12.48 L 16.69 12.19 L 17.02 11.85 L 17.29 11.46 L 17.51 11.04 L 17.66 10.59 L 17.75 10.12 L 17.77 9.65 L 17.72 9.17 L 17.6 8.71 L 17.42 8.27 L 17.18 7.87 L 16.88 7.5 L 16.53 7.18 L 16.13 6.91 L 15.71 6.7 L 15.25 6.56 L 14.79 6.48 L 14.31 6.47 L 13.84 6.53 L 13.38 6.65 L 12.95 6.84 L 13.0 7.0 L 13.0 7.0 L 13.0 7.0 L 13.0 7.0 L 13.0 7.0 L 13.0 7.0 L 13.0 7.0 L 13.0 7.0 L 13.0 7.0 L 13.0 7.0 L 13.0 7.0 L 13.0 7.0 L 13.0 7.0 L 13.0 7.0 L 13.0 7.0 L 13.0 7.0 L 13.0 7.0 L 13.0 7.0 L 13.0 7.0 L 13.0 7.0 L 13.0 7.0 L 13.0 7.0 L 13.0 7.0 L 13.0 7.0 L 13.0 7.0" fill="none" stroke="#111" stroke-width="1.09" stroke-linecap="round" stroke-linejoin="round"/>
<path d="M 13.0 10.0 L 13.21 9.96 L 13.42 9.92 L 13.62 9.88 L 13.83 9.83 L 14.04 9.79 L 14.25 9.75 L 14.46 9.71 L 14.67 9.67 L 14.88 9.62 L 15.08 9.58 L 15.29 9.54 L 15.5 9.5 L 15.71 9.46 L 15.92 9.42 L 16.12 9.38 L 16.33 9.33 L 16.54 9.29 L 16.75 9.25 L 16.96 9.21 L 17.17 9.17 L 17.38 9.12 L 17.58 9.08 L 17.79 9.04 L 18.0 9.0" fill="none" stroke="#111" stroke-width="1.09" stroke-linecap="round" stroke-linejoin="round"/>
<path d="M 15.0 7.0 L 15.0 7.21 L 15.0 7.42 L 15.0 7.62 L 15.0 7.83 L 15.0 8.04 L 15.0 8.25 L 15.0 8.46 L 15.0 8.67 L 15.0 8.88 L 15.0 9.08 L 15.0 9.29 L 15.0 9.5 L 15.0 9.71 L 15.0 9.92 L 15.0 10.12 L 15.0 10.33 L 15.0 10.54 L 15.0 10.75 L 15.0 10.96 L 15.0 11.17 L 15.0 11.38 L 15.0 11.58 L 15.0 11.79 L 15.0 12.0" fill="none" stroke="#111" stroke-width="1.09" stroke-linecap="round" stroke-linejoin="round"/>
<path d="M 12.0 4.0 L 11.88 4.38 L 11.75 4.75 L 11.62 5.12 L 11.5 5.5 L 11.38 5.88 L 11.25 6.25 L 11.12 6.62 L 11.0 7.0 L 10.88 7.38 L 10.75 7.75 L 10.62 8.12 L 10.5 8.5 L 10.38 8.88 L 10.25 9.25 L 10.12 9.62 L 10.0 10.0 L 9.88 10.38 L 9.75 10.75 L 9.62 11.12 L 9.5 11.5 L 9.38 11.88 L 9.25 12.25 L 9.12 12.62 L 9.0 13.0 L 9.0 13.0 L 9.23 13.27 L 9.43 13.56 L 9.6 13.87 L 9.75 14.19 L 9.87 14.52 L 9.96 14.87 L 10.01 15.21 L 10.04 15.57 L 10.04 15.92 L 10.0 16.27 L 9.93 16.62 L 9.84 16.96 L 9.71 17.29 L 9.56 17.61 L 9.37 17.91 L 9.17 18.19 L 8.93 18.46 L 8.68 18.7 L 8.4 18.93 L 8.11 19.12 L 7.8 19.29 L 7.47 19.43 L 7.14 19.54 L 6.79 19.62 L 7.0 19.0 L 7.3 19.31 L 7.58 19.64 L 7.82 19.99 L 8.03 20.37 L 8.21 20.76 L 8.35 21.16 L 8.46 21.58 L 8.52 22.01 L 8.55 22.43 L 8.54 22.86 L 8.49 23.29 L 8.41 23.71 L 8.29 24.13 L 8.13 24.52 L 7.93 24.91 L 7.71 25.27 L 7.45 25.62 L 7.16 25.94 L 6.84 26.23 L 6.5 26.49 L 6.14 26.72 L 5.76 26.92 L 5.36 27.08 L 4.95 27.21" fill="none" stroke="#111" stroke-width="1.09" stroke-linecap="round" stroke-linejoin="round"/>
<path d="M 4.0 7.0 L 4.33 6.92 L 4.67 6.83 L 5.0 6.75 L 5.33 6.67 L 5.67 6.58 L 6.0 6.5 L 6.33 6.42 L 6.67 6.33 L 7.0 6.25 L 7.33 6.17 L 7.67 6.08 L 8.0 6.0 L 8.33 5.92 L 8.67 5.83 L 9.0 5.75 L 9.33 5.67 L 9.67 5.58 L 10.0 5.5 L 10.33 5.42 L 10.67 5.33 L 11.0 5.25 L 11.33 5.17 L 11.67 5.08 L 12.0 5.0" fill="none" stroke="#111" stroke-width="1.09" stroke-linecap="round" stroke-linejoin="round"/>
<path d="M 14.0 19.0 L 13.94 19.45 L 13.92 19.9 L 13.95 20.36 L 14.02 20.8 L 14.14 21.24 L 14.29 21.67 L 14.49 22.08 L 14.72 22.46 L 15.0 22.83 L 15.3 23.16 L 15.64 23.46 L 16.0 23.73 L 16.39 23.97 L 16.8 24.16 L 17.23 24.31 L 17.67 24.43 L 18.12 24.49 L 18.57 24.52 L 19.02 24.5 L 19.47 24.44 L 19.91 24.33 L 20.34 24.18 L 20.75 23.99 L 21.14 23.76 L 17.0 21.0 L 16.91 20.87 L 16.82 20.74 L 16.72 20.61 L 16.62 20.49 L 16.51 20.37 L 16.4 20.26 L 16.28 20.15 L 16.17 20.04 L 16.05 19.93 L 15.92 19.84 L 15.79 19.74 L 15.66 19.65 L 15.53 19.56 L 15.39 19.48 L 15.25 19.4 L 15.11 19.33 L 14.96 19.27 L 14.82 19.2 L 14.67 19.14 L 14.52 19.09 L 14.37 19.04 L 14.21 19.0 L 14.06 18.97 L 13.9 18.93" fill="none" stroke="#111" stroke-width="1.09" stroke-linecap="round" stroke-linejoin="round"/>
<path d="M 12.0 21.0 L 12.21 21.0 L 12.42 21.0 L 12.62 21.0 L 12.83 21.0 L 13.04 21.0 L 13.25 21.0 L 13.46 21.0 L 13.67 21.0 L 13.88 21.0 L 14.08 21.0 L 14.29 21.0 L 14.5 21.0 L 14.71 21.0 L 14.92 21.0 L 15.12 21.0 L 15.33 21.0 L 15.54 21.0 L 15.75 21.0 L 15.96 21.0 L 16.17 21.0 L 16.38 21.0 L 16.58 21.0 L 16.79 21.0 L 17.0 21.0 L 17.0 21.0 L 16.88 20.92 L 16.75 20.83 L 16.62 20.75 L 16.5 20.67 L 16.38 20.58 L 16.25 20.5 L 16.12 20.42 L 16.0 20.33 L 15.88 20.25 L 15.75 20.17 L 15.62 20.08 L 15.5 20.0 L 15.38 19.92 L 15.25 19.83 L 15.12 19.75 L 15.0 19.67 L 14.88 19.58 L 14.75 19.5 L 14.62 19.42 L 14.5 19.33 L 14.38 19.25 L 14.25 19.17 L 14.12 19.08 L 14.0 19.0 L 14.0 19.0 L 14.0 19.17 L 14.0 19.33 L 14.0 19.5 L 14.0 19.67 L 14.0 19.83 L 14.0 20.0 L 14.0 20.17 L 14.0 20.33 L 14.0 20.5 L 14.0 20.67 L 14.0 20.83 L 14.0 21.0 L 14.0 21.17 L 14.0 21.33 L 14.0 21.5 L 14.0 21.67 L 14.0 21.83 L 14.0 22.0 L 14.0 22.17 L 14.0 22.33 L 14.0 22.5 L 14.0 22.67 L 14.0 22.83 L 14.0 23.0" fill="none" stroke="#111" stroke-width="1.09" stroke-linecap="round" stroke-linejoin="round"/>
</svg>
