<?xml version="1.0" encoding="UTF-8"?>
<svg xmlns="http://www.w3.org/2000/svg" viewBox="0 0 23.96 35.32">
<path d="M 7.0 13.0 L 7.5 13.0 L 8.0 13.0 L 8.5 13.0 L 9.0 13.0 L 9.5 13.0 L 10.0 13.0 L 10.5 13.0 L 11.0 13.0 L 11.5 13.0 L 12.0 13.0 L 12.5 13.0 L 13.0 13.0 L 13.5 13.0 L 14.0 13.0 L 14.5 13.0 L 15.0 13.0 L 15.5 13.0 L 16.0 13.0 L 16.5 13.0 L 17.0 13.0 L 17.5 13.0 L 18.0 13.0 L 18.5 13.0 L 19.0 13.0" fill="none" stroke="#111" stroke-width="1.24" stroke-linecap="round" stroke-linejoin="round"/>
<path d="M 7.0 13.0 L 7.0 13.33 L 7.0 13.67 L 7.0 14.0 L 7.0 14.33 L 7.0 14.67 L 7.0 15.0 L 7.0 15.33 L 7.0 15.67 L 7.0 16.0 L 7.0 16.33 L 7.0 16.67 L 7.0 17.0 L 7.0 17.33 L 7.0 17.67 L 7.0 18.0 L 7.0 18.33 L 7.0 18.67 L 7.0 19.0 L 7.0 19.33 L 7.0 19.67 L 7.0 20.0 L 7.0 20.33 L 7.0 20.67 L 7.0 21.0 L 7.0 21.0 L 7.48 21.16 L 7.97 21.3 L 8.46 21.43 L 8.95 21.55 L 9.45 21.65 L 9.95 21.74 L 10.45 21.82 L 10.95 21.88 L 11.45 21.93 L 11.96 21.96 L 12.47 21.98 L 12.97 21.99 L 13.48 21.98 L 13.99 21.96 L 14.49 21.93 L 15.0 21.88 L 15.5 21.82 L 16.0 21.74 L 16.5 21.65 L 17.0 21.55 L 17.49 21.43 L 17.98 21.3 L 18.47 21.16 L 18.95 21.0 L 19.0 21.0 L 19.0 20.67 L 19.0 20.33 L 19.0 20.0 L 19.0 19.67 L 19.0 19.33 L 19.0 19.0 L 19.0 18.67 L 19.0 18.33 L 19.0 18.0 L 19.0 17.67 L 19.0 17.33 L 19.0 17.0 L 19.0 16.67 L 19.0 16.33 L 19.0 16.0 L 19.0 15.67 L 19.0 15.33 L 19.0 15.0 L 19.0 14.67 L 19.0 14.33 L 19.0 14.0 L 19.0 13.67 L 19.0 13.33 L 19.0 13.0" fill="none" stroke="#111" stroke-width="1.24" stroke-linecap="round" stroke-linejoin="round"/>
<path d="M 12.0 22.0 L 11.83 22.38 L 11.67 22.75 L 11.5 23.12 L 11.33 23.5 L 11.17 23.88 L 11.0 24.25 L 10.83 24.62 L 10.67 25.0 L 10.5 25.38 L 10.33 25.75 L 10.17 26.12 L 10.0 26.5 L 9.83 26.88 L 9.67 27.25 L 9.5 27.62 L 9.33 28.0 L 9.17 28.38 L 9.0 28.75 L 8.83 29.12 L 8.67 29.5 L 8.5 29.88 L 8.33 30.25 L 8.17 30.62 L 8.0 31.0" fill="none" stroke="#111" stroke-width="1.24" stroke-linecap="round" stroke-linejoin="round"/>
<path d="M 14.0 22.0 L 14.08 22.38 L 14.17 22.75 L 14.25 23.12 L 14.33 23.5 L 14.42 23.88 L 14.5 24.25 L 14.58 24.62 L 14.67 25.0 L 14.75 25.38 L 14.83 25.75 L 14.92 26.12 L 15.0 26.5 L 15.08 26.88 L 15.17 27.25 L 15.25 27.62 L 15.33 28.0 L 15.42 28.38 L 15.5 28.75 L 15.58 29.12 L 15.67 29.5 L 15.75 29.88 L 15.83 30.25 L 15.92 30.62 L 16.0 31.0" fill="none" stroke="#111" stroke-width="1.24" stroke-linecap="round" stroke-linejoin="round"/>
<path d="M 13.0 5.0 L 12.83 5.33 L 12.67 5.67 L 12.5 6.0 L 12.33 6.33 L 12.17 6.67 L 12.0 7.0 L 11.83 7.33 L 11.67 7.67 L 11.5 8.0 L 11.33 8.33 L 11.17 8.67 L 11.0 9.0 L 10.83 9.33 L 10.67 9.67 L 10.5 10.0 L 10.33 10.33 L 10.17 10.67 L 10.0 11.0 L 9.83 11.33 L 9.67 11.67 L 9.5 12.0 L 9.33 12.33 L 9.17 12.67 L 9.0 13.0" fill="none" stroke="#111" stroke-width="1.24" stroke-linecap="round" stroke-linejoin="round"/>
<path d="M 13.0 5.0 L 13.17 5.33 L 13.33 5.67 L 13.5 6.0 L 13.67 6.33 L 13.83 6.67 L 14.0 7.0 L 14.17 7.33 L 14.33 7.67 L 14.5 8.0 L 14.67 8.33 L 14.83 8.67 L 15.0 9.0 L 15.17 9.33 L 15.33 9.67 L 15.5 10.0 L 15.67 10.33 L 15.83 10.67 L 16.0 11.0 L 16.17 11.33 L 16.33 11.67 L 16.5 12.0 L 16.67 12.33 L 16.83 12.67 L 17.0 13.0" fill="none" stroke="#111" stroke-width="1.24" stroke-linecap="round" stroke-linejoin="round"/>
<path d="M 9.0 16.0 L 9.29 16.0 L 9.58 16.0 L 9.88 16.0 L 10.17 16.0 L 10.46 16.0 L 10.75 16.0 L 11.04 16.0 L 11.33 16.0 L 11.62 16.0 L 11.92 16.0 L 12.21 16.0 L 12.5 16.0 L 12.79 16.0 L 13.08 16.0 L 13.38 16.0 L 13.67 16.0 L 13.96 16.0 L 14.25 16.0 L 14.54 16.0 L 14.83 16.0 L 15.12 16.0 L 15.42 16.0 L 15.71 16.0 L 16.0 16.0" fill="none" stroke="#111" stroke-width="1.24" stroke-linecap="round" stroke-linejoin="round"/>
<path d="M 4.0 30.0 L 4.64 30.21 L 5.29 30.4 L 5.95 30.57 L 6.61 30.73 L 7.27 30.87 L 7.94 30.99 L 8.6 31.09 L 9.28 31.17 L 9.95 31.23 L 10.63 31.28 L 11.3 31.31 L 11.98 31.32 L 12.66 31.31 L 13.33 31.28 L 14.01 31.23 L 14.68 31.17 L 15.35 31.09 L 16.02 30.99 L 16.69 30.87 L 17.35 30.73 L 18.01 30.57 L 18.66 30.4 L 19.31 30.21 L 19.96 30.0" fill="none" stroke="#111" stroke-width="1.24" stroke-linecap="round" stroke-linejoin="round"/>
<path d="M 8.0 5.0 L 8.0 5.17 L 8.0 5.33 L 8.0 5.5 L 8.0 5.67 L 8.0 5.83 L 8.0 6.0 L 8.0 6.17 L 8.0 6.33 L 8.0 6.5 L 8.0 6.67 L 8.0 6.83 L 8.0 7.0 L 8.0 7.17 L 8.0 7.33 L 8.0 7.5 L 8.0 7.67 L 8.0 7.83 L 8.0 8.0 L 8.0 8.17 L 8.0 8.33 L 8.0 8.5 L 8.0 8.67 L 8.0 8.83 L 8.0 9.0" fill="none" stroke="#111" stroke-width="1.24" stroke-linecap="round" stroke-linejoin="round"/>
<path d="M 18.0 4.0 L 18.0 4.17 L 18.0 4.33 L 18.0 4.5 L 18.0 4.67 L 18.0 4.83 L 18.0 5.0 L 18.0 5.17 L 18.0 5.33 L 18.0 5.5 L 18.0 5.67 L 18.0 5.83 L 18.0 6.0 L 18.0 6.17 L 18.0 6.33 L 18.0 6.5 L 18.0 6.67 L 18.0 6.83 L 18.0 7.0 L 18.0 7.17 L 18.0 7.33 L 18.0 7.5 L 18.0 7.67 L 18.0 7.83 L 18.0 8.0" fill="none" stroke="#111" stroke-width="1.24" stroke-linecap="round" stroke-linejoin="round"/>
</svg>
