<?xml version="1.0" encoding="UTF-8"?>
<svg xmlns="http://www.w3.org/2000/svg" viewBox="0 0 18.90 34.71">
<path d="M 8.0 6.0 L 7.83 6.29 L 7.67 6.58 L 7.5 6.88 L 7.33 7.17 L 7.17 7.46 L 7.0 7.75 L 6.83 8.04 L 6.67 8.33 L 6.5 8.62 L 6.33 8.92 L 6.17 9.21 L 6.0 9.5 L 5.83 9.79 L 5.67 10.08 L 5.5 10.38 L 5.33 10.67 L 5.17 10.96 L 5.0 11.25 L 4.83 11.54 L 4.67 11.83 L 4.5 12.12 L 4.33 12.42 L 4.17 12.71 L 4.0 13.0" fill="none" stroke="#111" stroke-width="1.21" stroke-linecap="round" stroke-linejoin="round"/>
<path d="M 8.0 6.0 L 8.04 6.29 L 8.08 6.58 L 8.12 6.88 L 8.17 7.17 L 8.21 7.46 L 8.25 7.75 L 8.29 8.04 L 8.33 8.33 L 8.38 8.62 L 8.42 8.92 L 8.46 9.21 L 8.5 9.5 L 8.54 9.79 L 8.58 10.08 L 8.62 10.38 L 8.67 10.67 L 8.71 10.96 L 8.75 11.25 L 8.79 11.54 L 8.83 11.83 L 8.88 12.12 L 8.92 12.42 L 8.96 12.71 L 9.0 13.0" fill="none" stroke="#111" stroke-width="1.21" stroke-linecap="round" stroke-linejoin="round"/>
<path d="M 9.0 13.0 L 8.96 13.12 L 8.92 13.25 L 8.88 13.38 L 8.83 13.5 L 8.79 13.62 L 8.75 13.75 L 8.71 13.88 L 8.67 14.0 L 8.62 14.12 L 8.58 14.25 L 8.54 14.38 L 8.5 14.5 L 8.46 14.62 L 8.42 14.75 L 8.38 14.88 L 8.33 15.0 L 8.29 15.12 L 8.25 15.25 L 8.21 15.38 L 8.17 15.5 L 8.12 15.62 L 8.08 15.75 L 8.04 15.88 L 8.0 16.0" fill="none" stroke="#111" stroke-width="1.21" stroke-linecap="round" stroke-linejoin="round"/>
<path d="M 8.0 16.0 L 8.04 16.42 L 8.08 16.83 L 8.12 17.25 L 8.17 17.67 L 8.21 18.08 L 8.25 18.5 L 8.29 18.92 L 8.33 19.33 L 8.38 19.75 L 8.42 20.17 L 8.46 20.58 L 8.5 21.0 L 8.54 21.42 L 8.58 21.83 L 8.62 22.25 L 8.67 22.67 L 8.71 23.08 L 8.75 23.5 L 8.79 23.92 L 8.83 24.33 L 8.88 24.75 L 8.92 25.17 L 8.96 25.58 L 9.0 26.0" fill="none" stroke="#111" stroke-width="1.21" stroke-linecap="round" stroke-linejoin="round"/>
<path d="M 9.0 26.0 L 8.92 26.17 L 8.83 26.33 L 8.75 26.5 L 8.67 26.67 L 8.58 26.83 L 8.5 27.0 L 8.42 27.17 L 8.33 27.33 L 8.25 27.5 L 8.17 27.67 L 8.08 27.83 L 8.0 28.0 L 7.92 28.17 L 7.83 28.33 L 7.75 28.5 L 7.67 28.67 L 7.58 28.83 L 7.5 29.0 L 7.42 29.17 L 7.33 29.33 L 7.25 29.5 L 7.17 29.67 L 7.08 29.83 L 7.0 30.0" fill="none" stroke="#111" stroke-width="1.21" stroke-linecap="round" stroke-linejoin="round"/>
<path d="M 12.0 4.0 L 11.96 4.21 L 11.92 4.42 L 11.88 4.62 L 11.83 4.83 L 11.79 5.04 L 11.75 5.25 L 11.71 5.46 L 11.67 5.67 L 11.62 5.88 L 11.58 6.08 L 11.54 6.29 L 11.5 6.5 L 11.46 6.71 L 11.42 6.92 L 11.38 7.12 L 11.33 7.33 L 11.29 7.54 L 11.25 7.75 L 11.21 7.96 L 11.17 8.17 L 11.12 8.38 L 11.08 8.58 L 11.04 8.79 L 11.0 9.0" fill="none" stroke="#111" stroke-width="1.21" stroke-linecap="round" stroke-linejoin="round"/>
<path d="M 12.0 5.0 L 12.39 5.32 L 12.75 5.67 L 13.09 6.04 L 13.4 6.44 L 13.69 6.85 L 13.94 7.29 L 14.17 7.74 L 14.37 8.2 L 14.53 8.68 L 14.66 9.17 L 14.76 9.66 L 14.82 10.16 L 14.85 10.66 L 14.84 11.17 L 14.8 11.67 L 14.73 12.17 L 14.62 12.66 L 14.48 13.14 L 14.3 13.62 L 14.1 14.08 L 13.86 14.52 L 13.59 14.95 L 13.3 15.36 L 12.98 15.74 L 13.0 16.0 L 13.36 16.57 L 13.68 17.16 L 13.97 17.78 L 14.22 18.4 L 14.44 19.05 L 14.61 19.7 L 14.74 20.36 L 14.84 21.03 L 14.89 21.7 L 14.9 22.38 L 14.88 23.06 L 14.81 23.73 L 14.7 24.39 L 14.55 25.05 L 14.36 25.7 L 14.13 26.34 L 13.86 26.96 L 13.56 27.56 L 13.22 28.15 L 12.85 28.71 L 12.44 29.25 L 12.0 29.77 L 11.54 30.25 L 11.04 30.71" fill="none" stroke="#111" stroke-width="1.21" stroke-linecap="round" stroke-linejoin="round"/>
</svg>
