<?xml version="1.0" encoding="UTF-8"?>
<svg xmlns="http://www.w3.org/2000/svg" viewBox="0 0 24.00 34.00">
<path d="M 4.0 13.0 L 4.38 13.0 L 4.75 13.0 L 5.12 13.0 L 5.5 13.0 L 5.88 13.0 L 6.25 13.0 L 6.62 13.0 L 7.0 13.0 L 7.38 13.0 L 7.75 13.0 L 8.12 13.0 L 8.5 13.0 L 8.88 13.0 L 9.25 13.0 L 9.62 13.0 L 10.0 13.0 L 10.38 13.0 L 10.75 13.0 L 11.12 13.0 L 11.5 13.0 L 11.88 13.0 L 12.25 13.0 L 12.62 13.0 L 13.0 13.0" fill="none" stroke="#111" stroke-width="1.19" stroke-linecap="round" stroke-linejoin="round"/>
<path d="M 4.0 13.0 L 4.0 13.21 L 4.0 13.42 L 4.0 13.62 L 4.0 13.83 L 4.0 14.04 L 4.0 14.25 L 4.0 14.46 L 4.0 14.67 L 4.0 14.88 L 4.0 15.08 L 4.0 15.29 L 4.0 15.5 L 4.0 15.71 L 4.0 15.92 L 4.0 16.12 L 4.0 16.33 L 4.0 16.54 L 4.0 16.75 L 4.0 16.96 L 4.0 17.17 L 4.0 17.38 L 4.0 17.58 L 4.0 17.79 L 4.0 18.0 L 4.0 18.0 L 4.38 18.0 L 4.75 18.0 L 5.12 18.0 L 5.5 18.0 L 5.88 18.0 L 6.25 18.0 L 6.62 18.0 L 7.0 18.0 L 7.38 18.0 L 7.75 18.0 L 8.12 18.0 L 8.5 18.0 L 8.88 18.0 L 9.25 18.0 L 9.62 18.0 L 10.0 18.0 L 10.38 18.0 L 10.75 18.0 L 11.12 18.0 L 11.5 18.0 L 11.88 18.0 L 12.25 18.0 L 12.62 18.0 L 13.0 18.0 L 13.0 18.0 L 13.0 17.79 L 13.0 17.58 L 13.0 17.38 L 13.0 17.17 L 13.0 16.96 L 13.0 16.75 L 13.0 16.54 L 13.0 16.33 L 13.0 16.12 L 13.0 15.92 L 13.0 15.71 L 13.0 15.5 L 13.0 15.29 L 13.0 15.08 L 13.0 14.88 L 13.0 14.67 L 13.0 14.46 L 13.0 14.25 L 13.0 14.04 L 13.0 13.83 L 13.0 13.62 L 13.0 13.42 L 13.0 13.21 L 13.0 13.0" fill="none" stroke="#111" stroke-width="1.19" stroke-linecap="round" stroke-linejoin="round"/>
<path d="M 9.0 6.0 L 8.88 6.29 L 8.75 6.58 L 8.62 6.88 L 8.5 7.17 L 8.38 7.46 L 8.25 7.75 L 8.12 8.04 L 8.0 8.33 L 7.88 8.62 L 7.75 8.92 L 7.62 9.21 L 7.5 9.5 L 7.38 9.79 L 7.25 10.08 L 7.12 10.38 L 7.0 10.67 L 6.88 10.96 L 6.75 11.25 L 6.63 11.54 L 6.5 11.83 L 6.38 12.12 L 6.25 12.42 L 6.12 12.71 L 6.0 13.0" fill="none" stroke="#111" stroke-width="1.19" stroke-linecap="round" stroke-linejoin="round"/>
<path d="M 9.0 6.0 L 9.08 6.29 L 9.17 6.58 L 9.25 6.88 L 9.33 7.17 L 9.42 7.46 L 9.5 7.75 L 9.58 8.04 L 9.67 8.33 L 9.75 8.62 L 9.83 8.92 L 9.92 9.21 L 10.0 9.5 L 10.08 9.79 L 10.17 10.08 L 10.25 10.38 L 10.33 10.67 L 10.42 10.96 L 10.5 11.25 L 10.58 11.54 L 10.67 11.83 L 10.75 12.12 L 10.83 12.42 L 10.92 12.71 L 11.0 13.0" fill="none" stroke="#111" stroke-width="1.19" stroke-linecap="round" stroke-linejoin="round"/>
<path d="M 7.0 18.0 L 6.96 18.25 L 6.92 18.5 L 6.88 18.75 L 6.83 19.0 L 6.79 19.25 L 6.75 19.5 L 6.71 19.75 L 6.67 20.0 L 6.62 20.25 L 6.58 20.5 L 6.54 20.75 L 6.5 21.0 L 6.46 21.25 L 6.42 21.5 L 6.38 21.75 L 6.33 22.0 L 6.29 22.25 L 6.25 22.5 L 6.21 22.75 L 6.17 23.0 L 6.12 23.25 L 6.08 23.5 L 6.04 23.75 L 6.0 24.0" fill="none" stroke="#111" stroke-width="1.19" stroke-linecap="round" stroke-linejoin="round"/>
<path d="M 10.0 18.0 L 10.04 18.21 L 10.08 18.42 L 10.12 18.62 L 10.17 18.83 L 10.21 19.04 L 10.25 19.25 L 10.29 19.46 L 10.33 19.67 L 10.38 19.88 L 10.42 20.08 L 10.46 20.29 L 10.5 20.5 L 10.54 20.71 L 10.58 20.92 L 10.62 21.12 L 10.67 21.33 L 10.71 21.54 L 10.75 21.75 L 10.79 21.96 L 10.83 22.17 L 10.88 22.38 L 10.92 22.58 L 10.96 22.79 L 11.0 23.0" fill="none" stroke="#111" stroke-width="1.19" stroke-linecap="round" stroke-linejoin="round"/>
<path d="M 4.0 24.0 L 4.33 23.96 L 4.67 23.92 L 5.0 23.88 L 5.33 23.83 L 5.67 23.79 L 6.0 23.75 L 6.33 23.71 L 6.67 23.67 L 7.0 23.62 L 7.33 23.58 L 7.67 23.54 L 8.0 23.5 L 8.33 23.46 L 8.67 23.42 L 9.0 23.38 L 9.33 23.33 L 9.67 23.29 L 10.0 23.25 L 10.33 23.21 L 10.67 23.17 L 11.0 23.12 L 11.33 23.08 L 11.67 23.04 L 12.0 23.0" fill="none" stroke="#111" stroke-width="1.19" stroke-linecap="round" stroke-linejoin="round"/>
<path d="M 12.0 7.0 L 12.33 7.04 L 12.67 7.08 L 13.0 7.12 L 13.33 7.17 L 13.67 7.21 L 14.0 7.25 L 14.33 7.29 L 14.67 7.33 L 15.0 7.38 L 15.33 7.42 L 15.67 7.46 L 16.0 7.5 L 16.33 7.54 L 16.67 7.58 L 17.0 7.62 L 17.33 7.67 L 17.67 7.71 L 18.0 7.75 L 18.33 7.79 L 18.67 7.83 L 19.0 7.88 L 19.33 7.92 L 19.67 7.96 L 20.0 8.0" fill="none" stroke="#111" stroke-width="1.19" stroke-linecap="round" stroke-linejoin="round"/>
<path d="M 12.0 7.0 L 12.04 7.17 L 12.08 7.33 L 12.12 7.5 L 12.17 7.67 L 12.21 7.83 L 12.25 8.0 L 12.29 8.17 L 12.33 8.33 L 12.38 8.5 L 12.42 8.67 L 12.46 8.83 L 12.5 9.0 L 12.54 9.17 L 12.58 9.33 L 12.62 9.5 L 12.67 9.67 L 12.71 9.83 L 12.75 10.0 L 12.79 10.17 L 12.83 10.33 L 12.88 10.5 L 12.92 10.67 L 12.96 10.83 L 13.0 11.0 L 13.0 11.0 L 13.29 10.96 L 13.58 10.92 L 13.88 10.88 L 14.17 10.83 L 14.46 10.79 L 14.75 10.75 L 15.04 10.71 L 15.33 10.67 L 15.62 10.62 L 15.92 10.58 L 16.21 10.54 L 16.5 10.5 L 16.79 10.46 L 17.08 10.42 L 17.38 10.38 L 17.67 10.33 L 17.96 10.29 L 18.25 10.25 L 18.54 10.21 L 18.83 10.17 L 19.12 10.12 L 19.42 10.08 L 19.71 10.04 L 20.0 10.0" fill="none" stroke="#111" stroke-width="1.19" stroke-linecap="round" stroke-linejoin="round"/>
<path d="M 17.0 4.0 L 17.04 4.58 L 17.08 5.17 L 17.12 5.75 L 17.17 6.33 L 17.21 6.92 L 17.25 7.5 L 17.29 8.08 L 17.33 8.67 L 17.38 9.25 L 17.42 9.83 L 17.46 10.42 L 17.5 11.0 L 17.54 11.58 L 17.58 12.17 L 17.62 12.75 L 17.67 13.33 L 17.71 13.92 L 17.75 14.5 L 17.79 15.08 L 17.83 15.67 L 17.88 16.25 L 17.92 16.83 L 17.96 17.42 L 18.0 18.0 L 18.0 18.0 L 17.63 17.93 L 17.25 17.89 L 16.87 17.9 L 16.49 17.94 L 16.12 18.02 L 15.76 18.14 L 15.41 18.29 L 15.08 18.48 L 14.77 18.71 L 14.49 18.96 L 14.23 19.24 L 14.01 19.54 L 13.81 19.87 L 13.65 20.22 L 13.53 20.57 L 13.44 20.94 L 13.39 21.32 L 13.38 21.7 L 13.41 22.08 L 13.48 22.45 L 13.59 22.82 L 13.73 23.17 L 13.91 23.51 L 14.12 23.82 L 14.0 24.0 L 14.21 23.92 L 14.42 23.83 L 14.62 23.75 L 14.83 23.67 L 15.04 23.58 L 15.25 23.5 L 15.46 23.42 L 15.67 23.33 L 15.88 23.25 L 16.08 23.17 L 16.29 23.08 L 16.5 23.0 L 16.71 22.92 L 16.92 22.83 L 17.12 22.75 L 17.33 22.67 L 17.54 22.58 L 17.75 22.5 L 17.96 22.42 L 18.17 22.33 L 18.38 22.25 L 18.58 22.17 L 18.79 22.08 L 19.0 22.0 L 19.0 22.0 L 18.88 22.33 L 18.75 22.67 L 18.62 23.0 L 18.5 23.33 L 18.38 23.67 L 18.25 24.0 L 18.12 24.33 L 18.0 24.67 L 17.88 25.0 L 17.75 25.33 L 17.62 25.67 L 17.5 26.0 L 17.38 26.33 L 17.25 26.67 L 17.12 27.0 L 17.0 27.33 L 16.88 27.67 L 16.75 28.0 L 16.62 28.33 L 16.5 28.67 L 16.38 29.0 L 16.25 29.33 L 16.12 29.67 L 16.0 30.0" fill="none" stroke="#111" stroke-width="1.19" stroke-linecap="round" stroke-linejoin="round"/>
<path d="M 17.0 11.0 L 16.77 11.21 L 16.54 11.44 L 16.33 11.67 L 16.13 11.92 L 15.94 12.17 L 15.76 12.43 L 15.6 12.7 L 15.45 12.98 L 15.31 13.27 L 15.19 13.56 L 15.08 13.86 L 14.98 14.16 L 14.9 14.47 L 14.84 14.78 L 14.79 15.09 L 14.75 15.41 L 14.73 15.72 L 14.73 16.04 L 14.74 16.36 L 14.77 16.67 L 14.81 16.99 L 14.87 17.3 L 14.94 17.61 L 15.03 17.91" fill="none" stroke="#111" stroke-width="1.19" stroke-linecap="round" stroke-linejoin="round"/>
</svg>
