<?xml version="1.0" encoding="UTF-8"?>
<svg xmlns="http://www.w3.org/2000/svg" viewBox="0 0 20.25 31.87">
<path d="M 4.1 7.0 L 4.19 7.38 L 4.27 7.75 L 4.35 8.12 L 4.44 8.5 L 4.52 8.88 L 4.6 9.25 L 4.69 9.62 L 4.77 10.0 L 4.85 10.38 L 4.94 10.75 L 5.02 11.12 L 5.1 11.5 L 5.19 11.88 L 5.27 12.25 L 5.35 12.62 L 5.44 13.0 L 5.52 13.38 L 5.6 13.75 L 5.69 14.12 L 5.77 14.5 L 5.85 14.88 L 5.94 15.25 L 6.02 15.62 L 6.1 16.0 L 6.1 16.0 L 5.82 16.43 L 5.55 16.88 L 5.31 17.34 L 5.08 17.81 L 4.88 18.28 L 4.7 18.77 L 4.53 19.26 L 4.39 19.76 L 4.27 20.27 L 4.17 20.77 L 4.1 21.29 L 4.04 21.8 L 4.01 22.32 L 4.0 22.84 L 4.01 23.36 L 4.05 23.88 L 4.1 24.39 L 4.18 24.91 L 4.29 25.42 L 4.41 25.92 L 4.55 26.42 L 4.72 26.91 L 4.91 27.39 L 5.11 27.87" fill="none" stroke="#111" stroke-width="1.12" stroke-linecap="round" stroke-linejoin="round"/>
<path d="M 10.1 4.0 L 10.02 4.42 L 9.94 4.83 L 9.85 5.25 L 9.77 5.67 L 9.69 6.08 L 9.6 6.5 L 9.52 6.92 L 9.44 7.33 L 9.35 7.75 L 9.27 8.17 L 9.19 8.58 L 9.1 9.0 L 9.02 9.42 L 8.94 9.83 L 8.85 10.25 L 8.77 10.67 L 8.69 11.08 L 8.6 11.5 L 8.52 11.92 L 8.44 12.33 L 8.35 12.75 L 8.27 13.17 L 8.19 13.58 L 8.1 14.0" fill="none" stroke="#111" stroke-width="1.12" stroke-linecap="round" stroke-linejoin="round"/>
<path d="M 10.1 4.0 L 10.23 4.42 L 10.35 4.83 L 10.48 5.25 L 10.6 5.67 L 10.73 6.08 L 10.85 6.5 L 10.98 6.92 L 11.1 7.33 L 11.23 7.75 L 11.35 8.17 L 11.48 8.58 L 11.6 9.0 L 11.73 9.42 L 11.85 9.83 L 11.98 10.25 L 12.1 10.67 L 12.23 11.08 L 12.35 11.5 L 12.48 11.92 L 12.6 12.33 L 12.73 12.75 L 12.85 13.17 L 12.98 13.58 L 13.1 14.0" fill="none" stroke="#111" stroke-width="1.12" stroke-linecap="round" stroke-linejoin="round"/>
<path d="M 9.1 10.0 L 9.62 9.9 L 10.14 9.85 L 10.67 9.84 L 11.19 9.88 L 11.71 9.97 L 12.22 10.11 L 12.71 10.29 L 13.18 10.51 L 13.64 10.78 L 14.06 11.09 L 14.46 11.43 L 14.82 11.81 L 15.15 12.22 L 15.44 12.66 L 15.69 13.12 L 15.89 13.61 L 16.05 14.11 L 16.17 14.62 L 16.23 15.14 L 16.25 15.67 L 16.23 16.19 L 16.15 16.71 L 16.03 17.22 L 15.86 17.72" fill="none" stroke="#111" stroke-width="1.12" stroke-linecap="round" stroke-linejoin="round"/>
<path d="M 12.1 16.0 L 12.06 16.46 L 12.02 16.92 L 11.98 17.38 L 11.94 17.83 L 11.89 18.29 L 11.85 18.75 L 11.81 19.21 L 11.77 19.67 L 11.73 20.12 L 11.69 20.58 L 11.64 21.04 L 11.6 21.5 L 11.56 21.96 L 11.52 22.42 L 11.48 22.88 L 11.44 23.33 L 11.39 23.79 L 11.35 24.25 L 11.31 24.71 L 11.27 25.17 L 11.23 25.62 L 11.19 26.08 L 11.14 26.54 L 11.1 27.0" fill="none" stroke="#111" stroke-width="1.12" stroke-linecap="round" stroke-linejoin="round"/>
<path d="M 12.1 16.0 L 12.23 16.33 L 12.35 16.67 L 12.48 17.0 L 12.6 17.33 L 12.73 17.67 L 12.85 18.0 L 12.98 18.33 L 13.1 18.67 L 13.23 19.0 L 13.35 19.33 L 13.48 19.67 L 13.6 20.0 L 13.73 20.33 L 13.85 20.67 L 13.98 21.0 L 14.1 21.33 L 14.23 21.67 L 14.35 22.0 L 14.48 22.33 L 14.6 22.67 L 14.73 23.0 L 14.85 23.33 L 14.98 23.67 L 15.1 24.0" fill="none" stroke="#111" stroke-width="1.12" stroke-linecap="round" stroke-linejoin="round"/>
<path d="M 7.1 25.0 L 7.35 24.83 L 7.6 24.67 L 7.85 24.5 L 8.1 24.33 L 8.35 24.17 L 8.6 24.0 L 8.85 23.83 L 9.1 23.67 L 9.35 23.5 L 9.6 23.33 L 9.85 23.17 L 10.1 23.0 L 10.35 22.83 L 10.6 22.67 L 10.85 22.5 L 11.1 22.33 L 11.35 22.17 L 11.6 22.0 L 11.85 21.83 L 12.1 21.67 L 12.35 21.5 L 12.6 21.33 L 12.85 21.17 L 13.1 21.0" fill="none" stroke="#111" stroke-width="1.12" stroke-linecap="round" stroke-linejoin="round"/>
</svg>
