<?xml version="1.0" encoding="UTF-8"?>
<svg xmlns="http://www.w3.org/2000/svg" viewBox="0 0 25.70 31.39">
<path d="M 6.47 4.0 L 5.82 4.79 L 5.27 5.65 L 4.8 6.57 L 4.44 7.52 L 4.18 8.52 L 4.04 9.53 L 4.0 10.56 L 4.07 11.58 L 4.26 12.59 L 4.55 13.57 L 4.94 14.51 L 5.44 15.41 L 6.03 16.25 L 6.7 17.02 L 7.46 17.71 L 8.29 18.32 L 9.17 18.83 L 10.11 19.25 L 11.09 19.56 L 12.09 19.76 L 13.11 19.86 L 14.13 19.84 L 15.15 19.72 L 16.15 19.48" fill="none" stroke="#111" stroke-width="1.10" stroke-linecap="round" stroke-linejoin="round"/>
<path d="M 19.47 4.0 L 19.76 4.65 L 20.01 5.31 L 20.23 5.98 L 20.41 6.67 L 20.55 7.36 L 20.66 8.06 L 20.73 8.77 L 20.77 9.47 L 20.77 10.18 L 20.73 10.89 L 20.65 11.59 L 20.54 12.29 L 20.39 12.99 L 20.21 13.67 L 19.99 14.34 L 19.73 15.0 L 19.44 15.65 L 19.12 16.28 L 18.77 16.89 L 18.38 17.49 L 17.96 18.06 L 17.52 18.61 L 17.04 19.14 L 16.54 19.64" fill="none" stroke="#111" stroke-width="1.10" stroke-linecap="round" stroke-linejoin="round"/>
<path d="M 6.47 9.0 L 7.65 8.69 L 8.87 8.57 L 10.09 8.62 L 11.28 8.86 L 12.43 9.27 L 13.51 9.85 L 14.48 10.59 L 15.33 11.46 L 16.05 12.45 L 16.61 13.54 L 17.0 14.69 L 17.21 15.89 L 17.24 17.11 L 17.09 18.32 L 16.75 19.5 L 16.25 20.61 L 15.59 21.63 L 14.78 22.55 L 13.84 23.33 L 12.8 23.96 L 11.67 24.43 L 10.48 24.73 L 9.27 24.84 L 8.05 24.78" fill="none" stroke="#111" stroke-width="1.10" stroke-linecap="round" stroke-linejoin="round"/>
<path d="M 6.47 9.0 L 6.89 9.42 L 7.31 9.83 L 7.72 10.25 L 8.14 10.67 L 8.56 11.08 L 8.97 11.5 L 9.39 11.92 L 9.81 12.33 L 10.22 12.75 L 10.64 13.17 L 11.06 13.58 L 11.47 14.0 L 11.89 14.42 L 12.31 14.83 L 12.72 15.25 L 13.14 15.67 L 13.56 16.08 L 13.97 16.5 L 14.39 16.92 L 14.81 17.33 L 15.22 17.75 L 15.64 18.17 L 16.06 18.58 L 16.47 19.0" fill="none" stroke="#111" stroke-width="1.10" stroke-linecap="round" stroke-linejoin="round"/>
<path d="M 6.47 4.0 L 6.68 4.17 L 6.89 4.33 L 7.1 4.5 L 7.31 4.67 L 7.52 4.83 L 7.72 5.0 L 7.93 5.17 L 8.14 5.33 L 8.35 5.5 L 8.56 5.67 L 8.77 5.83 L 8.97 6.0 L 9.18 6.17 L 9.39 6.33 L 9.6 6.5 L 9.81 6.67 L 10.02 6.83 L 10.22 7.0 L 10.43 7.17 L 10.64 7.33 L 10.85 7.5 L 11.06 7.67 L 11.27 7.83 L 11.47 8.0" fill="none" stroke="#111" stroke-width="1.10" stroke-linecap="round" stroke-linejoin="round"/>
<path d="M 16.47 8.0 L 16.47 7.83 L 16.47 7.67 L 16.47 7.5 L 16.47 7.33 L 16.47 7.17 L 16.47 7.0 L 16.47 6.83 L 16.47 6.67 L 16.47 6.5 L 16.47 6.33 L 16.47 6.17 L 16.47 6.0 L 16.47 5.83 L 16.47 5.67 L 16.47 5.5 L 16.47 5.33 L 16.47 5.17 L 16.47 5.0 L 16.47 4.83 L 16.47 4.67 L 16.47 4.5 L 16.47 4.33 L 16.47 4.17 L 16.47 4.0 L 16.47 4.0 L 16.6 4.0 L 16.72 4.0 L 16.85 4.0 L 16.97 4.0 L 17.1 4.0 L 17.22 4.0 L 17.35 4.0 L 17.47 4.0 L 17.6 4.0 L 17.72 4.0 L 17.85 4.0 L 17.97 4.0 L 18.1 4.0 L 18.22 4.0 L 18.35 4.0 L 18.47 4.0 L 18.6 4.0 L 18.72 4.0 L 18.85 4.0 L 18.97 4.0 L 19.1 4.0 L 19.22 4.0 L 19.35 4.0 L 19.47 4.0" fill="none" stroke="#111" stroke-width="1.10" stroke-linecap="round" stroke-linejoin="round"/>
<path d="M 11.47 11.0 L 11.6 11.0 L 11.72 11.0 L 11.85 11.0 L 11.97 11.0 L 12.1 11.0 L 12.22 11.0 L 12.35 11.0 L 12.47 11.0 L 12.6 11.0 L 12.72 11.0 L 12.85 11.0 L 12.97 11.0 L 13.1 11.0 L 13.22 11.0 L 13.35 11.0 L 13.47 11.0 L 13.6 11.0 L 13.72 11.0 L 13.85 11.0 L 13.97 11.0 L 14.1 11.0 L 14.22 11.0 L 14.35 11.0 L 14.47 11.0" fill="none" stroke="#111" stroke-width="1.10" stroke-linecap="round" stroke-linejoin="round"/>
<path d="M 7.47 13.0 L 7.52 13.04 L 7.56 13.08 L 7.6 13.12 L 7.64 13.17 L 7.68 13.21 L 7.72 13.25 L 7.77 13.29 L 7.81 13.33 L 7.85 13.38 L 7.89 13.42 L 7.93 13.46 L 7.97 13.5 L 8.02 13.54 L 8.06 13.58 L 8.1 13.62 L 8.14 13.67 L 8.18 13.71 L 8.22 13.75 L 8.27 13.79 L 8.31 13.83 L 8.35 13.88 L 8.39 13.92 L 8.43 13.96 L 8.47 14.0" fill="none" stroke="#111" stroke-width="1.10" stroke-linecap="round" stroke-linejoin="round"/>
<path d="M 16.47 13.0 L 16.47 13.08 L 16.47 13.17 L 16.47 13.25 L 16.47 13.33 L 16.47 13.42 L 16.47 13.5 L 16.47 13.58 L 16.47 13.67 L 16.47 13.75 L 16.47 13.83 L 16.47 13.92 L 16.47 14.0 L 16.47 14.08 L 16.47 14.17 L 16.47 14.25 L 16.47 14.33 L 16.47 14.42 L 16.47 14.5 L 16.47 14.58 L 16.47 14.67 L 16.47 14.75 L 16.47 14.83 L 16.47 14.92 L 16.47 15.0" fill="none" stroke="#111" stroke-width="1.10" stroke-linecap="round" stroke-linejoin="round"/>
<path d="M 10.47 20.0 L 10.28 20.87 L 10.23 21.76 L 10.32 22.64 L 10.54 23.51 L 10.89 24.32 L 11.36 25.08 L 11.95 25.75 L 12.63 26.32 L 13.39 26.78 L 14.21 27.12 L 15.08 27.32 L 15.97 27.39 L 16.86 27.32 L 17.72 27.12 L 18.55 26.78 L 19.31 26.32 L 19.99 25.75 L 20.57 25.08 L 21.05 24.32 L 21.4 23.51 L 21.62 22.64 L 21.7 21.76 L 21.65 20.87 L 21.46 20.0" fill="none" stroke="#111" stroke-width="1.10" stroke-linecap="round" stroke-linejoin="round"/>
<path d="M 12.47 21.0 L 12.47 21.17 L 12.47 21.33 L 12.47 21.5 L 12.47 21.67 L 12.47 21.83 L 12.47 22.0 L 12.47 22.17 L 12.47 22.33 L 12.47 22.5 L 12.47 22.67 L 12.47 22.83 L 12.47 23.0 L 12.47 23.17 L 12.47 23.33 L 12.47 23.5 L 12.47 23.67 L 12.47 23.83 L 12.47 24.0 L 12.47 24.17 L 12.47 24.33 L 12.47 24.5 L 12.47 24.67 L 12.47 24.83 L 12.47 25.0" fill="none" stroke="#111" stroke-width="1.10" stroke-linecap="round" stroke-linejoin="round"/>
</svg>
