<?xml version="1.0" encoding="UTF-8"?>
<svg xmlns="http://www.w3.org/2000/svg" viewBox="0 0 26.65 38.08">
<path d="M 4.91 26.0 L 4.63 25.22 L 4.4 24.43 L 4.22 23.62 L 4.1 22.8 L 4.02 21.98 L 4.0 21.15 L 4.03 20.33 L 4.12 19.5 L 4.25 18.69 L 4.44 17.88 L 4.68 17.09 L 4.97 16.32 L 5.31 15.56 L 5.7 14.83 L 6.13 14.13 L 6.61 13.45 L 7.13 12.81 L 7.69 12.2 L 8.28 11.63 L 8.92 11.1 L 9.58 10.6 L 10.28 10.16 L 11.0 9.76 L 11.75 9.4 L 11.91 9.0 L 12.92 9.1 L 13.92 9.3 L 14.9 9.58 L 15.85 9.95 L 16.76 10.4 L 17.62 10.93 L 18.44 11.53 L 19.2 12.21 L 19.9 12.95 L 20.52 13.75 L 21.08 14.6 L 21.55 15.5 L 21.95 16.43 L 22.26 17.4 L 22.48 18.39 L 22.61 19.4 L 22.65 20.42 L 22.6 21.43 L 22.46 22.44 L 22.23 23.43 L 21.92 24.39 L 21.52 25.33 L 21.03 26.22 L 20.47 27.07" fill="none" stroke="#111" stroke-width="1.33" stroke-linecap="round" stroke-linejoin="round"/>
<path d="M 11.91 4.0 L 11.96 4.46 L 12.0 4.92 L 12.04 5.38 L 12.08 5.83 L 12.12 6.29 L 12.16 6.75 L 12.21 7.21 L 12.25 7.67 L 12.29 8.12 L 12.33 8.58 L 12.37 9.04 L 12.41 9.5 L 12.46 9.96 L 12.5 10.42 L 12.54 10.88 L 12.58 11.33 L 12.62 11.79 L 12.66 12.25 L 12.71 12.71 L 12.75 13.17 L 12.79 13.62 L 12.83 14.08 L 12.87 14.54 L 12.91 15.0 L 12.91 15.0 L 12.11 15.71 L 11.39 16.51 L 10.75 17.37 L 10.2 18.29 L 9.75 19.26 L 9.4 20.28 L 9.16 21.32 L 9.03 22.39 L 9.0 23.46 L 9.09 24.53 L 9.28 25.59 L 9.59 26.62 L 9.99 27.61 L 10.5 28.56 L 11.1 29.45 L 11.79 30.27 L 12.55 31.02 L 13.4 31.68 L 14.3 32.26 L 15.26 32.74 L 16.26 33.12 L 17.3 33.4 L 18.36 33.56 L 19.43 33.62" fill="none" stroke="#111" stroke-width="1.33" stroke-linecap="round" stroke-linejoin="round"/>
<path d="M 12.91 15.0 L 13.49 15.79 L 14.0 16.62 L 14.44 17.48 L 14.81 18.38 L 15.1 19.31 L 15.32 20.26 L 15.47 21.22 L 15.53 22.19 L 15.52 23.16 L 15.44 24.13 L 15.27 25.09 L 15.03 26.03 L 14.71 26.95 L 14.32 27.84 L 13.86 28.7 L 13.34 29.52 L 12.75 30.29 L 12.1 31.01 L 11.39 31.68 L 10.63 32.29 L 9.83 32.84 L 8.98 33.32 L 8.1 33.73 L 7.19 34.08" fill="none" stroke="#111" stroke-width="1.33" stroke-linecap="round" stroke-linejoin="round"/>
</svg>
