<?xml version="1.0" encoding="UTF-8"?>
<svg xmlns="http://www.w3.org/2000/svg" viewBox="0 0 21.14 31.00">
<path d="M 7.42 4.0 L 7.51 4.29 L 7.59 4.58 L 7.67 4.88 L 7.76 5.17 L 7.84 5.46 L 7.92 5.75 L 8.01 6.04 L 8.09 6.33 L 8.17 6.62 L 8.26 6.92 L 8.34 7.21 L 8.42 7.5 L 8.51 7.79 L 8.59 8.08 L 8.67 8.38 L 8.76 8.67 L 8.84 8.96 L 8.92 9.25 L 9.01 9.54 L 9.09 9.83 L 9.17 10.12 L 9.26 10.42 L 9.34 10.71 L 9.42 11.0 L 9.42 11.0 L 8.65 11.33 L 7.92 11.73 L 7.23 12.21 L 6.59 12.75 L 6.01 13.36 L 5.49 14.02 L 5.05 14.73 L 4.67 15.48 L 4.38 16.27 L 4.17 17.08 L 4.04 17.91 L 4.0 18.75 L 4.04 19.59 L 4.17 20.42 L 4.38 21.23 L 4.67 22.01 L 5.05 22.77 L 5.49 23.48 L 6.01 24.14 L 6.59 24.75 L 7.23 25.29 L 7.92 25.77 L 8.65 26.17 L 9.42 26.5 L 9.42 27.0 L 9.47 26.88 L 9.51 26.75 L 9.55 26.62 L 9.59 26.5 L 9.63 26.38 L 9.67 26.25 L 9.72 26.12 L 9.76 26.0 L 9.8 25.88 L 9.84 25.75 L 9.88 25.62 L 9.92 25.5 L 9.97 25.38 L 10.01 25.25 L 10.05 25.12 L 10.09 25.0 L 10.13 24.88 L 10.17 24.75 L 10.22 24.62 L 10.26 24.5 L 10.3 24.38 L 10.34 24.25 L 10.38 24.12 L 10.42 24.0" fill="none" stroke="#111" stroke-width="1.09" stroke-linecap="round" stroke-linejoin="round"/>
<path d="M 7.42 4.0 L 8.48 4.44 L 9.5 4.96 L 10.47 5.55 L 11.4 6.22 L 12.27 6.96 L 13.09 7.76 L 13.84 8.62 L 14.52 9.53 L 15.13 10.5 L 15.66 11.51 L 16.12 12.56 L 16.49 13.64 L 16.78 14.74 L 16.99 15.86 L 17.11 17.0 L 17.14 18.14 L 17.08 19.28 L 16.94 20.42 L 16.71 21.54 L 16.39 22.63 L 16.0 23.7 L 15.52 24.74 L 14.96 25.74 L 14.33 26.69 L 14.42 27.0 L 14.34 26.88 L 14.26 26.75 L 14.17 26.62 L 14.09 26.5 L 14.01 26.38 L 13.92 26.25 L 13.84 26.12 L 13.76 26.0 L 13.67 25.88 L 13.59 25.75 L 13.51 25.62 L 13.42 25.5 L 13.34 25.38 L 13.26 25.25 L 13.17 25.12 L 13.09 25.0 L 13.01 24.88 L 12.92 24.75 L 12.84 24.62 L 12.76 24.5 L 12.67 24.38 L 12.59 24.25 L 12.51 24.12 L 12.42 24.0" fill="none" stroke="#111" stroke-width="1.09" stroke-linecap="round" stroke-linejoin="round"/>
<path d="M 11.42 12.0 L 11.56 12.41 L 11.66 12.83 L 11.71 13.25 L 11.73 13.68 L 11.7 14.11 L 11.63 14.54 L 11.52 14.95 L 11.37 15.36 L 11.19 15.74 L 10.96 16.11 L 10.7 16.46 L 10.42 16.77 L 10.1 17.06 L 9.75 17.32 L 9.39 17.54 L 9.0 17.73 L 8.59 17.88 L 8.18 17.99 L 7.75 18.06 L 7.32 18.08 L 6.89 18.07 L 6.47 18.02 L 6.05 17.92 L 5.64 17.78" fill="none" stroke="#111" stroke-width="1.09" stroke-linecap="round" stroke-linejoin="round"/>
<path d="M 11.42 15.0 L 11.63 15.17 L 11.84 15.33 L 12.05 15.5 L 12.26 15.67 L 12.47 15.83 L 12.67 16.0 L 12.88 16.17 L 13.09 16.33 L 13.3 16.5 L 13.51 16.67 L 13.72 16.83 L 13.92 17.0 L 14.13 17.17 L 14.34 17.33 L 14.55 17.5 L 14.76 17.67 L 14.97 17.83 L 15.17 18.0 L 15.38 18.17 L 15.59 18.33 L 15.8 18.5 L 16.01 18.67 L 16.22 18.83 L 16.42 19.0" fill="none" stroke="#111" stroke-width="1.09" stroke-linecap="round" stroke-linejoin="round"/>
<path d="M 11.42 19.0 L 11.22 19.17 L 11.01 19.33 L 10.8 19.5 L 10.59 19.67 L 10.38 19.83 L 10.17 20.0 L 9.97 20.17 L 9.76 20.33 L 9.55 20.5 L 9.34 20.67 L 9.13 20.83 L 8.92 21.0 L 8.72 21.17 L 8.51 21.33 L 8.3 21.5 L 8.09 21.67 L 7.88 21.83 L 7.67 22.0 L 7.47 22.17 L 7.26 22.33 L 7.05 22.5 L 6.84 22.67 L 6.63 22.83 L 6.42 23.0" fill="none" stroke="#111" stroke-width="1.09" stroke-linecap="round" stroke-linejoin="round"/>
<path d="M 11.42 19.0 L 11.63 19.17 L 11.84 19.33 L 12.05 19.5 L 12.26 19.67 L 12.47 19.83 L 12.67 20.0 L 12.88 20.17 L 13.09 20.33 L 13.3 20.5 L 13.51 20.67 L 13.72 20.83 L 13.92 21.0 L 14.13 21.17 L 14.34 21.33 L 14.55 21.5 L 14.76 21.67 L 14.97 21.83 L 15.17 22.0 L 15.38 22.17 L 15.59 22.33 L 15.8 22.5 L 16.01 22.67 L 16.22 22.83 L 16.42 23.0" fill="none" stroke="#111" stroke-width="1.09" stroke-linecap="round" stroke-linejoin="round"/>
</svg>
