<?xml version="1.0" encoding="UTF-8"?>
<svg xmlns="http://www.w3.org/2000/svg" viewBox="0 0 25.77 33.00">
<path d="M 6.89 16.0 L 7.39 16.0 L 7.89 16.0 L 8.39 16.0 L 8.89 16.0 L 9.39 16.0 L 9.89 16.0 L 10.39 16.0 L 10.89 16.0 L 11.39 16.0 L 11.89 16.0 L 12.39 16.0 L 12.89 16.0 L 13.39 16.0 L 13.89 16.0 L 14.39 16.0 L 14.89 16.0 L 15.39 16.0 L 15.89 16.0 L 16.39 16.0 L 16.89 16.0 L 17.39 16.0 L 17.89 16.0 L 18.39 16.0 L 18.89 16.0" fill="none" stroke="#111" stroke-width="1.16" stroke-linecap="round" stroke-linejoin="round"/>
<path d="M 7.89 16.0 L 7.89 16.25 L 7.89 16.5 L 7.89 16.75 L 7.89 17.0 L 7.89 17.25 L 7.89 17.5 L 7.89 17.75 L 7.89 18.0 L 7.89 18.25 L 7.89 18.5 L 7.89 18.75 L 7.89 19.0 L 7.89 19.25 L 7.89 19.5 L 7.89 19.75 L 7.89 20.0 L 7.89 20.25 L 7.89 20.5 L 7.89 20.75 L 7.89 21.0 L 7.89 21.25 L 7.89 21.5 L 7.89 21.75 L 7.89 22.0 L 7.89 22.0 L 8.35 22.0 L 8.81 22.0 L 9.27 22.0 L 9.73 22.0 L 10.19 22.0 L 10.64 22.0 L 11.1 22.0 L 11.56 22.0 L 12.02 22.0 L 12.48 22.0 L 12.94 22.0 L 13.39 22.0 L 13.85 22.0 L 14.31 22.0 L 14.77 22.0 L 15.23 22.0 L 15.69 22.0 L 16.14 22.0 L 16.6 22.0 L 17.06 22.0 L 17.52 22.0 L 17.98 22.0 L 18.44 22.0 L 18.89 22.0 L 18.89 22.0 L 18.89 21.75 L 18.89 21.5 L 18.89 21.25 L 18.89 21.0 L 18.89 20.75 L 18.89 20.5 L 18.89 20.25 L 18.89 20.0 L 18.89 19.75 L 18.89 19.5 L 18.89 19.25 L 18.89 19.0 L 18.89 18.75 L 18.89 18.5 L 18.89 18.25 L 18.89 18.0 L 18.89 17.75 L 18.89 17.5 L 18.89 17.25 L 18.89 17.0 L 18.89 16.75 L 18.89 16.5 L 18.89 16.25 L 18.89 16.0" fill="none" stroke="#111" stroke-width="1.16" stroke-linecap="round" stroke-linejoin="round"/>
<path d="M 12.89 22.0 L 12.81 22.29 L 12.73 22.58 L 12.64 22.88 L 12.56 23.17 L 12.48 23.46 L 12.39 23.75 L 12.31 24.04 L 12.23 24.33 L 12.14 24.62 L 12.06 24.92 L 11.98 25.21 L 11.89 25.5 L 11.81 25.79 L 11.73 26.08 L 11.64 26.38 L 11.56 26.67 L 11.48 26.96 L 11.39 27.25 L 11.31 27.54 L 11.23 27.83 L 11.14 28.12 L 11.06 28.42 L 10.98 28.71 L 10.89 29.0" fill="none" stroke="#111" stroke-width="1.16" stroke-linecap="round" stroke-linejoin="round"/>
<path d="M 14.89 22.0 L 14.94 22.29 L 14.98 22.58 L 15.02 22.88 L 15.06 23.17 L 15.1 23.46 L 15.14 23.75 L 15.19 24.04 L 15.23 24.33 L 15.27 24.62 L 15.31 24.92 L 15.35 25.21 L 15.39 25.5 L 15.44 25.79 L 15.48 26.08 L 15.52 26.38 L 15.56 26.67 L 15.6 26.96 L 15.64 27.25 L 15.69 27.54 L 15.73 27.83 L 15.77 28.12 L 15.81 28.42 L 15.85 28.71 L 15.89 29.0" fill="none" stroke="#111" stroke-width="1.16" stroke-linecap="round" stroke-linejoin="round"/>
<path d="M 8.89 29.0 L 9.27 29.0 L 9.64 29.0 L 10.02 29.0 L 10.39 29.0 L 10.77 29.0 L 11.14 29.0 L 11.52 29.0 L 11.89 29.0 L 12.27 29.0 L 12.64 29.0 L 13.02 29.0 L 13.39 29.0 L 13.77 29.0 L 14.14 29.0 L 14.52 29.0 L 14.89 29.0 L 15.27 29.0 L 15.64 29.0 L 16.02 29.0 L 16.39 29.0 L 16.77 29.0 L 17.14 29.0 L 17.52 29.0 L 17.89 29.0" fill="none" stroke="#111" stroke-width="1.16" stroke-linecap="round" stroke-linejoin="round"/>
<path d="M 12.89 6.0 L 12.73 6.42 L 12.56 6.83 L 12.39 7.25 L 12.23 7.67 L 12.06 8.08 L 11.89 8.5 L 11.73 8.92 L 11.56 9.33 L 11.39 9.75 L 11.23 10.17 L 11.06 10.58 L 10.89 11.0 L 10.73 11.42 L 10.56 11.83 L 10.39 12.25 L 10.23 12.67 L 10.06 13.08 L 9.89 13.5 L 9.73 13.92 L 9.56 14.33 L 9.39 14.75 L 9.23 15.17 L 9.06 15.58 L 8.89 16.0" fill="none" stroke="#111" stroke-width="1.16" stroke-linecap="round" stroke-linejoin="round"/>
<path d="M 12.89 5.0 L 13.06 5.46 L 13.23 5.92 L 13.39 6.38 L 13.56 6.83 L 13.73 7.29 L 13.89 7.75 L 14.06 8.21 L 14.23 8.67 L 14.39 9.12 L 14.56 9.58 L 14.73 10.04 L 14.89 10.5 L 15.06 10.96 L 15.23 11.42 L 15.39 11.88 L 15.56 12.33 L 15.73 12.79 L 15.89 13.25 L 16.06 13.71 L 16.23 14.17 L 16.39 14.62 L 16.56 15.08 L 16.73 15.54 L 16.89 16.0" fill="none" stroke="#111" stroke-width="1.16" stroke-linecap="round" stroke-linejoin="round"/>
<path d="M 9.89 4.0 L 9.42 4.24 L 8.98 4.52 L 8.56 4.84 L 8.17 5.19 L 7.81 5.58 L 7.49 6.0 L 7.2 6.44 L 6.95 6.91 L 6.75 7.39 L 6.59 7.89 L 6.47 8.41 L 6.4 8.93 L 6.38 9.46 L 6.4 9.98 L 6.47 10.51 L 6.58 11.02 L 6.74 11.53 L 6.94 12.01 L 7.18 12.48 L 7.46 12.93 L 7.78 13.35 L 8.14 13.73 L 8.53 14.09 L 8.95 14.41" fill="none" stroke="#111" stroke-width="1.16" stroke-linecap="round" stroke-linejoin="round"/>
<path d="M 10.89 7.0 L 10.44 7.11 L 9.99 7.25 L 9.55 7.4 L 9.12 7.59 L 8.7 7.79 L 8.29 8.02 L 7.9 8.27 L 7.52 8.53 L 7.15 8.82 L 6.8 9.13 L 6.46 9.46 L 6.15 9.8 L 5.85 10.16 L 5.57 10.54 L 5.31 10.92 L 5.07 11.33 L 4.86 11.74 L 4.66 12.17 L 4.49 12.6 L 4.35 13.05 L 4.22 13.5 L 4.12 13.95 L 4.05 14.41 L 4.0 14.88" fill="none" stroke="#111" stroke-width="1.16" stroke-linecap="round" stroke-linejoin="round"/>
<path d="M 16.89 5.0 L 17.25 5.29 L 17.58 5.6 L 17.9 5.92 L 18.2 6.27 L 18.47 6.63 L 18.72 7.01 L 18.95 7.4 L 19.16 7.81 L 19.34 8.23 L 19.49 8.66 L 19.62 9.09 L 19.73 9.54 L 19.8 9.99 L 19.85 10.44 L 19.87 10.89 L 19.87 11.35 L 19.83 11.8 L 19.77 12.25 L 19.68 12.7 L 19.57 13.14 L 19.43 13.57 L 19.26 14.0 L 19.07 14.41 L 18.86 14.81" fill="none" stroke="#111" stroke-width="1.16" stroke-linecap="round" stroke-linejoin="round"/>
<path d="M 15.89 7.0 L 16.31 7.05 L 16.71 7.13 L 17.11 7.24 L 17.51 7.37 L 17.89 7.53 L 18.26 7.71 L 18.63 7.91 L 18.97 8.14 L 19.31 8.38 L 19.62 8.65 L 19.92 8.94 L 20.2 9.24 L 20.46 9.57 L 20.7 9.91 L 20.92 10.26 L 21.11 10.63 L 21.28 11.01 L 21.43 11.39 L 21.55 11.79 L 21.64 12.19 L 21.71 12.6 L 21.75 13.02 L 21.77 13.43 L 21.76 13.84" fill="none" stroke="#111" stroke-width="1.16" stroke-linecap="round" stroke-linejoin="round"/>
</svg>
