<?xml version="1.0" encoding="UTF-8"?>
<svg xmlns="http://www.w3.org/2000/svg" viewBox="0 0 22.26 38.68">
<path d="M 11.26 4.0 L 11.29 4.44 L 11.29 4.87 L 11.27 5.31 L 11.21 5.74 L 11.14 6.17 L 11.03 6.6 L 10.9 7.01 L 10.74 7.42 L 10.56 7.82 L 10.36 8.2 L 10.13 8.58 L 9.88 8.93 L 9.61 9.28 L 9.31 9.6 L 9.0 9.9 L 8.67 10.19 L 8.32 10.45 L 7.96 10.7 L 7.58 10.91 L 7.19 11.11 L 6.79 11.28 L 6.37 11.43 L 5.95 11.55 L 5.53 11.64" fill="none" stroke="#111" stroke-width="1.35" stroke-linecap="round" stroke-linejoin="round"/>
<path d="M 11.26 6.0 L 11.47 6.12 L 11.68 6.25 L 11.88 6.38 L 12.09 6.5 L 12.3 6.62 L 12.51 6.75 L 12.72 6.88 L 12.93 7.0 L 13.13 7.12 L 13.34 7.25 L 13.55 7.38 L 13.76 7.5 L 13.97 7.62 L 14.18 7.75 L 14.38 7.88 L 14.59 8.0 L 14.8 8.12 L 15.01 8.25 L 15.22 8.38 L 15.43 8.5 L 15.63 8.62 L 15.84 8.75 L 16.05 8.88 L 16.26 9.0" fill="none" stroke="#111" stroke-width="1.35" stroke-linecap="round" stroke-linejoin="round"/>
<path d="M 11.26 6.0 L 11.38 6.48 L 11.48 6.96 L 11.55 7.45 L 11.61 7.94 L 11.64 8.43 L 11.65 8.92 L 11.64 9.42 L 11.61 9.91 L 11.56 10.4 L 11.48 10.88 L 11.38 11.37 L 11.26 11.85 L 11.12 12.32 L 10.96 12.78 L 10.78 13.24 L 10.58 13.69 L 10.36 14.13 L 10.11 14.56 L 9.85 14.98 L 9.58 15.39 L 9.28 15.78 L 8.97 16.16 L 8.64 16.53 L 8.29 16.88 L 8.26 17.0 L 8.69 17.22 L 9.11 17.46 L 9.53 17.71 L 9.93 17.98 L 10.33 18.26 L 10.71 18.56 L 11.08 18.87 L 11.44 19.2 L 11.79 19.54 L 12.12 19.89 L 12.44 20.26 L 12.74 20.64 L 13.03 21.02 L 13.31 21.42 L 13.57 21.83 L 13.81 22.25 L 14.04 22.68 L 14.25 23.12 L 14.45 23.56 L 14.63 24.01 L 14.79 24.47 L 14.93 24.94 L 15.06 25.4 L 15.16 25.88" fill="none" stroke="#111" stroke-width="1.35" stroke-linecap="round" stroke-linejoin="round"/>
<path d="M 11.26 12.0 L 11.8 12.37 L 12.29 12.8 L 12.74 13.28 L 13.12 13.81 L 13.45 14.38 L 13.71 14.98 L 13.9 15.61 L 14.01 16.25 L 14.06 16.9 L 14.03 17.56 L 13.93 18.21 L 13.76 18.84 L 13.52 19.45 L 13.21 20.02 L 12.84 20.56 L 12.41 21.06 L 11.93 21.5 L 11.4 21.89 L 10.84 22.21 L 10.23 22.47 L 9.61 22.66 L 8.96 22.78 L 8.31 22.83 L 7.66 22.8 L 7.26 24.0 L 7.26 24.08 L 7.26 24.17 L 7.26 24.25 L 7.26 24.33 L 7.26 24.42 L 7.26 24.5 L 7.26 24.58 L 7.26 24.67 L 7.26 24.75 L 7.26 24.83 L 7.26 24.92 L 7.26 25.0 L 7.26 25.08 L 7.26 25.17 L 7.26 25.25 L 7.26 25.33 L 7.26 25.42 L 7.26 25.5 L 7.26 25.58 L 7.26 25.67 L 7.26 25.75 L 7.26 25.83 L 7.26 25.92 L 7.26 26.0" fill="none" stroke="#111" stroke-width="1.35" stroke-linecap="round" stroke-linejoin="round"/>
<path d="M 5.26 19.0 L 5.26 19.12 L 5.26 19.25 L 5.26 19.38 L 5.26 19.5 L 5.26 19.62 L 5.26 19.75 L 5.26 19.88 L 5.26 20.0 L 5.26 20.12 L 5.26 20.25 L 5.26 20.38 L 5.26 20.5 L 5.26 20.62 L 5.26 20.75 L 5.26 20.88 L 5.26 21.0 L 5.26 21.12 L 5.26 21.25 L 5.26 21.38 L 5.26 21.5 L 5.26 21.62 L 5.26 21.75 L 5.26 21.88 L 5.26 22.0" fill="none" stroke="#111" stroke-width="1.35" stroke-linecap="round" stroke-linejoin="round"/>
<path d="M 16.26 19.0 L 16.26 19.12 L 16.26 19.25 L 16.26 19.38 L 16.26 19.5 L 16.26 19.62 L 16.26 19.75 L 16.26 19.88 L 16.26 20.0 L 16.26 20.12 L 16.26 20.25 L 16.26 20.38 L 16.26 20.5 L 16.26 20.62 L 16.26 20.75 L 16.26 20.88 L 16.26 21.0 L 16.26 21.12 L 16.26 21.25 L 16.26 21.38 L 16.26 21.5 L 16.26 21.62 L 16.26 21.75 L 16.26 21.88 L 16.26 22.0" fill="none" stroke="#111" stroke-width="1.35" stroke-linecap="round" stroke-linejoin="round"/>
<path d="M 10.26 25.0 L 10.49 25.44 L 10.65 25.9 L 10.75 26.38 L 10.77 26.87 L 10.72 27.36 L 10.6 27.84 L 10.42 28.3 L 10.17 28.72 L 9.86 29.11 L 9.49 29.44 L 9.09 29.72 L 8.65 29.93 L 8.18 30.08 L 7.69 30.16 L 7.2 30.17 L 6.71 30.11 L 6.24 29.97 L 5.79 29.77 L 5.37 29.51 L 5.0 29.18 L 4.68 28.81 L 4.41 28.4 L 4.21 27.95 L 4.08 27.47 L 5.26 27.0 L 5.26 27.0 L 5.26 27.0 L 5.26 27.0 L 5.26 27.0 L 5.26 27.0 L 5.26 27.0 L 5.26 27.0 L 5.26 27.0 L 5.26 27.0 L 5.26 27.0 L 5.26 27.0 L 5.26 27.0 L 5.26 27.0 L 5.26 27.0 L 5.26 27.0 L 5.26 27.0 L 5.26 27.0 L 5.26 27.0 L 5.26 27.0 L 5.26 27.0 L 5.26 27.0 L 5.26 27.0 L 5.26 27.0 L 5.26 27.0" fill="none" stroke="#111" stroke-width="1.35" stroke-linecap="round" stroke-linejoin="round"/>
<path d="M 4.26 25.0 L 4.09 25.8 L 4.0 26.62 L 4.0 27.44 L 4.09 28.26 L 4.27 29.06 L 4.53 29.84 L 4.87 30.58 L 5.29 31.29 L 5.78 31.94 L 6.35 32.54 L 6.97 33.08 L 7.64 33.55 L 8.36 33.94 L 9.12 34.25 L 9.91 34.48 L 10.72 34.63 L 11.54 34.68 L 12.36 34.65 L 13.17 34.54 L 13.96 34.33 L 14.73 34.04 L 15.47 33.68 L 16.16 33.23 L 16.8 32.72 L 17.26 33.0 L 17.26 32.62 L 17.26 32.25 L 17.26 31.88 L 17.26 31.5 L 17.26 31.12 L 17.26 30.75 L 17.26 30.38 L 17.26 30.0 L 17.26 29.62 L 17.26 29.25 L 17.26 28.88 L 17.26 28.5 L 17.26 28.12 L 17.26 27.75 L 17.26 27.38 L 17.26 27.0 L 17.26 26.62 L 17.26 26.25 L 17.26 25.88 L 17.26 25.5 L 17.26 25.12 L 17.26 24.75 L 17.26 24.38 L 17.26 24.0" fill="none" stroke="#111" stroke-width="1.35" stroke-linecap="round" stroke-linejoin="round"/>
<path d="M 10.26 28.0 L 10.34 28.12 L 10.43 28.25 L 10.51 28.38 L 10.59 28.5 L 10.68 28.62 L 10.76 28.75 L 10.84 28.88 L 10.93 29.0 L 11.01 29.12 L 11.09 29.25 L 11.18 29.38 L 11.26 29.5 L 11.34 29.62 L 11.43 29.75 L 11.51 29.88 L 11.59 30.0 L 11.68 30.12 L 11.76 30.25 L 11.84 30.38 L 11.93 30.5 L 12.01 30.62 L 12.09 30.75 L 12.18 30.88 L 12.26 31.0 L 12.26 31.0 L 12.51 30.79 L 12.76 30.58 L 13.01 30.38 L 13.26 30.17 L 13.51 29.96 L 13.76 29.75 L 14.01 29.54 L 14.26 29.33 L 14.51 29.12 L 14.76 28.92 L 15.01 28.71 L 15.26 28.5 L 15.51 28.29 L 15.76 28.08 L 16.01 27.88 L 16.26 27.67 L 16.51 27.46 L 16.76 27.25 L 17.01 27.04 L 17.26 26.83 L 17.51 26.62 L 17.76 26.42 L 18.01 26.21 L 18.26 26.0" fill="none" stroke="#111" stroke-width="1.35" stroke-linecap="round" stroke-linejoin="round"/>
<path d="M 8.26 27.0 L 8.3 27.0 L 8.34 27.0 L 8.38 27.0 L 8.43 27.0 L 8.47 27.0 L 8.51 27.0 L 8.55 27.0 L 8.59 27.0 L 8.63 27.0 L 8.68 27.0 L 8.72 27.0 L 8.76 27.0 L 8.8 27.0 L 8.84 27.0 L 8.88 27.0 L 8.93 27.0 L 8.97 27.0 L 9.01 27.0 L 9.05 27.0 L 9.09 27.0 L 9.13 27.0 L 9.18 27.0 L 9.22 27.0 L 9.26 27.0" fill="none" stroke="#111" stroke-width="1.35" stroke-linecap="round" stroke-linejoin="round"/>
</svg>
