<?xml version="1.0" encoding="UTF-8"?>
<svg xmlns="http://www.w3.org/2000/svg" viewBox="0 0 22.06 35.87">
<path d="M 4.0 5.0 L 4.25 5.21 L 4.5 5.42 L 4.75 5.62 L 5.0 5.83 L 5.25 6.04 L 5.5 6.25 L 5.75 6.46 L 6.0 6.67 L 6.25 6.88 L 6.5 7.08 L 6.75 7.29 L 7.0 7.5 L 7.25 7.71 L 7.5 7.92 L 7.75 8.12 L 8.0 8.33 L 8.25 8.54 L 8.5 8.75 L 8.75 8.96 L 9.0 9.17 L 9.25 9.38 L 9.5 9.58 L 9.75 9.79 L 10.0 10.0" fill="none" stroke="#111" stroke-width="1.26" stroke-linecap="round" stroke-linejoin="round"/>
<path d="M 8.0 4.0 L 7.83 4.25 L 7.67 4.5 L 7.5 4.75 L 7.33 5.0 L 7.17 5.25 L 7.0 5.5 L 6.83 5.75 L 6.67 6.0 L 6.5 6.25 L 6.33 6.5 L 6.17 6.75 L 6.0 7.0 L 5.83 7.25 L 5.67 7.5 L 5.5 7.75 L 5.33 8.0 L 5.17 8.25 L 5.0 8.5 L 4.83 8.75 L 4.67 9.0 L 4.5 9.25 L 4.33 9.5 L 4.17 9.75 L 4.0 10.0" fill="none" stroke="#111" stroke-width="1.26" stroke-linecap="round" stroke-linejoin="round"/>
<path d="M 5.0 11.0 L 5.17 11.21 L 5.33 11.42 L 5.5 11.62 L 5.67 11.83 L 5.83 12.04 L 6.0 12.25 L 6.17 12.46 L 6.33 12.67 L 6.5 12.88 L 6.67 13.08 L 6.83 13.29 L 7.0 13.5 L 7.17 13.71 L 7.33 13.92 L 7.5 14.12 L 7.67 14.33 L 7.83 14.54 L 8.0 14.75 L 8.17 14.96 L 8.33 15.17 L 8.5 15.38 L 8.67 15.58 L 8.83 15.79 L 9.0 16.0" fill="none" stroke="#111" stroke-width="1.26" stroke-linecap="round" stroke-linejoin="round"/>
<path d="M 9.0 11.0 L 8.83 11.21 L 8.67 11.42 L 8.5 11.62 L 8.33 11.83 L 8.17 12.04 L 8.0 12.25 L 7.83 12.46 L 7.67 12.67 L 7.5 12.88 L 7.33 13.08 L 7.17 13.29 L 7.0 13.5 L 6.83 13.71 L 6.67 13.92 L 6.5 14.12 L 6.33 14.33 L 6.17 14.54 L 6.0 14.75 L 5.83 14.96 L 5.67 15.17 L 5.5 15.38 L 5.33 15.58 L 5.17 15.79 L 5.0 16.0" fill="none" stroke="#111" stroke-width="1.26" stroke-linecap="round" stroke-linejoin="round"/>
<path d="M 7.0 18.0 L 6.92 18.08 L 6.83 18.17 L 6.75 18.25 L 6.67 18.33 L 6.58 18.42 L 6.5 18.5 L 6.42 18.58 L 6.33 18.67 L 6.25 18.75 L 6.17 18.83 L 6.08 18.92 L 6.0 19.0 L 5.92 19.08 L 5.83 19.17 L 5.75 19.25 L 5.67 19.33 L 5.58 19.42 L 5.5 19.5 L 5.42 19.58 L 5.33 19.67 L 5.25 19.75 L 5.17 19.83 L 5.08 19.92 L 5.0 20.0 L 5.0 20.0 L 5.16 20.26 L 5.36 20.49 L 5.59 20.69 L 5.85 20.85 L 6.13 20.96 L 6.42 21.03 L 6.73 21.06 L 7.03 21.03 L 7.32 20.96 L 7.61 20.85 L 7.86 20.69 L 8.1 20.49 L 8.29 20.26 L 8.45 20.0 L 8.57 19.72 L 8.64 19.42 L 8.66 19.12 L 8.64 18.82 L 8.57 18.52 L 8.45 18.24 L 8.29 17.98 L 8.1 17.75 L 7.86 17.55 L 7.61 17.39 L 7.0 18.0 L 7.0 18.0 L 7.0 18.0 L 7.0 18.0 L 7.0 18.0 L 7.0 18.0 L 7.0 18.0 L 7.0 18.0 L 7.0 18.0 L 7.0 18.0 L 7.0 18.0 L 7.0 18.0 L 7.0 18.0 L 7.0 18.0 L 7.0 18.0 L 7.0 18.0 L 7.0 18.0 L 7.0 18.0 L 7.0 18.0 L 7.0 18.0 L 7.0 18.0 L 7.0 18.0 L 7.0 18.0 L 7.0 18.0 L 7.0 18.0" fill="none" stroke="#111" stroke-width="1.26" stroke-linecap="round" stroke-linejoin="round"/>
<path d="M 6.0 21.0 L 6.05 21.43 L 6.11 21.87 L 6.17 22.3 L 6.24 22.73 L 6.32 23.16 L 6.4 23.59 L 6.49 24.02 L 6.59 24.44 L 6.69 24.87 L 6.8 25.29 L 6.92 25.71 L 7.04 26.13 L 7.17 26.55 L 7.3 26.96 L 7.45 27.38 L 7.59 27.79 L 7.75 28.2 L 7.91 28.6 L 8.07 29.01 L 8.25 29.41 L 8.42 29.81 L 8.61 30.2 L 8.8 30.6 L 9.0 30.99" fill="none" stroke="#111" stroke-width="1.26" stroke-linecap="round" stroke-linejoin="round"/>
<path d="M 4.0 24.0 L 4.16 24.28 L 4.36 24.55 L 4.57 24.79 L 4.82 25.01 L 5.08 25.2 L 5.37 25.36 L 5.67 25.49 L 5.98 25.59 L 6.3 25.66 L 6.62 25.69 L 6.95 25.69 L 7.27 25.65 L 7.59 25.58 L 7.9 25.48 L 8.2 25.34 L 8.48 25.18 L 8.74 24.98 L 8.98 24.76 L 9.2 24.51 L 9.39 24.25 L 9.55 23.96 L 9.68 23.66 L 9.77 23.35 L 9.84 23.03" fill="none" stroke="#111" stroke-width="1.26" stroke-linecap="round" stroke-linejoin="round"/>
<path d="M 13.0 9.0 L 13.0 9.54 L 13.0 10.08 L 13.0 10.62 L 13.0 11.17 L 13.0 11.71 L 13.0 12.25 L 13.0 12.79 L 13.0 13.33 L 13.0 13.88 L 13.0 14.42 L 13.0 14.96 L 13.0 15.5 L 13.0 16.04 L 13.0 16.58 L 13.0 17.12 L 13.0 17.67 L 13.0 18.21 L 13.0 18.75 L 13.0 19.29 L 13.0 19.83 L 13.0 20.38 L 13.0 20.92 L 13.0 21.46 L 13.0 22.0" fill="none" stroke="#111" stroke-width="1.26" stroke-linecap="round" stroke-linejoin="round"/>
<path d="M 14.0 16.0 L 14.43 16.28 L 14.83 16.59 L 15.19 16.94 L 15.53 17.33 L 15.82 17.74 L 16.07 18.18 L 16.28 18.65 L 16.45 19.13 L 16.57 19.62 L 16.64 20.13 L 16.66 20.63 L 16.63 21.14 L 16.56 21.65 L 16.44 22.14 L 16.27 22.62 L 16.05 23.08 L 15.8 23.52 L 15.5 23.93 L 15.16 24.31 L 14.79 24.66 L 14.39 24.97 L 13.96 25.25 L 13.51 25.48 L 13.03 25.66" fill="none" stroke="#111" stroke-width="1.26" stroke-linecap="round" stroke-linejoin="round"/>
<path d="M 13.0 20.0 L 13.44 20.35 L 13.86 20.72 L 14.27 21.1 L 14.66 21.51 L 15.03 21.93 L 15.39 22.36 L 15.72 22.82 L 16.03 23.28 L 16.32 23.76 L 16.6 24.25 L 16.85 24.76 L 17.07 25.27 L 17.28 25.79 L 17.46 26.32 L 17.62 26.86 L 17.75 27.41 L 17.86 27.96 L 17.95 28.51 L 18.01 29.07 L 18.04 29.63 L 18.06 30.19 L 18.04 30.75 L 18.01 31.31 L 17.95 31.87" fill="none" stroke="#111" stroke-width="1.26" stroke-linecap="round" stroke-linejoin="round"/>
</svg>
