<?xml version="1.0" encoding="UTF-8"?>
<svg xmlns="http://www.w3.org/2000/svg" viewBox="0 0 20.89 32.98">
<path d="M 5.17 14.0 L 5.63 14.0 L 6.08 14.0 L 6.54 14.0 L 7.0 14.0 L 7.46 14.0 L 7.92 14.0 L 8.38 14.0 L 8.83 14.0 L 9.29 14.0 L 9.75 14.0 L 10.21 14.0 L 10.67 14.0 L 11.13 14.0 L 11.58 14.0 L 12.04 14.0 L 12.5 14.0 L 12.96 14.0 L 13.42 14.0 L 13.88 14.0 L 14.33 14.0 L 14.79 14.0 L 15.25 14.0 L 15.71 14.0 L 16.17 14.0" fill="none" stroke="#111" stroke-width="1.15" stroke-linecap="round" stroke-linejoin="round"/>
<path d="M 5.17 14.0 L 5.21 14.25 L 5.25 14.5 L 5.29 14.75 L 5.33 15.0 L 5.38 15.25 L 5.42 15.5 L 5.46 15.75 L 5.5 16.0 L 5.54 16.25 L 5.58 16.5 L 5.63 16.75 L 5.67 17.0 L 5.71 17.25 L 5.75 17.5 L 5.79 17.75 L 5.83 18.0 L 5.88 18.25 L 5.92 18.5 L 5.96 18.75 L 6.0 19.0 L 6.04 19.25 L 6.08 19.5 L 6.13 19.75 L 6.17 20.0 L 6.17 20.0 L 6.54 20.0 L 6.92 20.0 L 7.29 20.0 L 7.67 20.0 L 8.04 20.0 L 8.42 20.0 L 8.79 20.0 L 9.17 20.0 L 9.54 20.0 L 9.92 20.0 L 10.29 20.0 L 10.67 20.0 L 11.04 20.0 L 11.42 20.0 L 11.79 20.0 L 12.17 20.0 L 12.54 20.0 L 12.92 20.0 L 13.29 20.0 L 13.67 20.0 L 14.04 20.0 L 14.42 20.0 L 14.79 20.0 L 15.17 20.0 L 15.17 20.0 L 15.21 19.75 L 15.25 19.5 L 15.29 19.25 L 15.33 19.0 L 15.38 18.75 L 15.42 18.5 L 15.46 18.25 L 15.5 18.0 L 15.54 17.75 L 15.58 17.5 L 15.63 17.25 L 15.67 17.0 L 15.71 16.75 L 15.75 16.5 L 15.79 16.25 L 15.83 16.0 L 15.88 15.75 L 15.92 15.5 L 15.96 15.25 L 16.0 15.0 L 16.04 14.75 L 16.08 14.5 L 16.13 14.25 L 16.17 14.0 L 16.17 14.0 L 16.17 14.0 L 16.17 14.0 L 16.17 14.0 L 16.17 14.0 L 16.17 14.0 L 16.17 14.0 L 16.17 14.0 L 16.17 14.0 L 16.17 14.0 L 16.17 14.0 L 16.17 14.0 L 16.17 14.0 L 16.17 14.0 L 16.17 14.0 L 16.17 14.0 L 16.17 14.0 L 16.17 14.0 L 16.17 14.0 L 16.17 14.0 L 16.17 14.0 L 16.17 14.0 L 16.17 14.0 L 16.17 14.0 L 16.17 14.0" fill="none" stroke="#111" stroke-width="1.15" stroke-linecap="round" stroke-linejoin="round"/>
<path d="M 8.17 16.0 L 8.38 16.0 L 8.58 16.0 L 8.79 16.0 L 9.0 16.0 L 9.21 16.0 L 9.42 16.0 L 9.63 16.0 L 9.83 16.0 L 10.04 16.0 L 10.25 16.0 L 10.46 16.0 L 10.67 16.0 L 10.88 16.0 L 11.08 16.0 L 11.29 16.0 L 11.5 16.0 L 11.71 16.0 L 11.92 16.0 L 12.13 16.0 L 12.33 16.0 L 12.54 16.0 L 12.75 16.0 L 12.96 16.0 L 13.17 16.0" fill="none" stroke="#111" stroke-width="1.15" stroke-linecap="round" stroke-linejoin="round"/>
<path d="M 10.17 4.0 L 9.92 4.33 L 9.67 4.67 L 9.42 5.0 L 9.17 5.33 L 8.92 5.67 L 8.67 6.0 L 8.42 6.33 L 8.17 6.67 L 7.92 7.0 L 7.67 7.33 L 7.42 7.67 L 7.17 8.0 L 6.92 8.33 L 6.67 8.67 L 6.42 9.0 L 6.17 9.33 L 5.92 9.67 L 5.67 10.0 L 5.42 10.33 L 5.17 10.67 L 4.92 11.0 L 4.67 11.33 L 4.42 11.67 L 4.17 12.0" fill="none" stroke="#111" stroke-width="1.15" stroke-linecap="round" stroke-linejoin="round"/>
<path d="M 10.17 4.0 L 10.42 4.33 L 10.67 4.67 L 10.92 5.0 L 11.17 5.33 L 11.42 5.67 L 11.67 6.0 L 11.92 6.33 L 12.17 6.67 L 12.42 7.0 L 12.67 7.33 L 12.92 7.67 L 13.17 8.0 L 13.42 8.33 L 13.67 8.67 L 13.92 9.0 L 14.17 9.33 L 14.42 9.67 L 14.67 10.0 L 14.92 10.33 L 15.17 10.67 L 15.42 11.0 L 15.67 11.33 L 15.92 11.67 L 16.17 12.0" fill="none" stroke="#111" stroke-width="1.15" stroke-linecap="round" stroke-linejoin="round"/>
<path d="M 6.17 9.0 L 6.5 9.0 L 6.83 9.0 L 7.17 9.0 L 7.5 9.0 L 7.83 9.0 L 8.17 9.0 L 8.5 9.0 L 8.83 9.0 L 9.17 9.0 L 9.5 9.0 L 9.83 9.0 L 10.17 9.0 L 10.5 9.0 L 10.83 9.0 L 11.17 9.0 L 11.5 9.0 L 11.83 9.0 L 12.17 9.0 L 12.5 9.0 L 12.83 9.0 L 13.17 9.0 L 13.5 9.0 L 13.83 9.0 L 14.17 9.0" fill="none" stroke="#111" stroke-width="1.15" stroke-linecap="round" stroke-linejoin="round"/>
<path d="M 4.17 21.0 L 4.01 21.96 L 4.0 22.93 L 4.14 23.89 L 4.41 24.83 L 4.83 25.7 L 5.37 26.51 L 6.03 27.23 L 6.78 27.84 L 7.62 28.33 L 8.53 28.68 L 9.48 28.9 L 10.44 28.98 L 11.41 28.9 L 12.36 28.68 L 13.27 28.33 L 14.11 27.84 L 14.86 27.23 L 15.52 26.51 L 16.06 25.7 L 16.48 24.83 L 16.75 23.89 L 16.89 22.93 L 16.88 21.96 L 16.72 21.0" fill="none" stroke="#111" stroke-width="1.15" stroke-linecap="round" stroke-linejoin="round"/>
<path d="M 5.17 24.0 L 5.63 24.0 L 6.08 24.0 L 6.54 24.0 L 7.0 24.0 L 7.46 24.0 L 7.92 24.0 L 8.38 24.0 L 8.83 24.0 L 9.29 24.0 L 9.75 24.0 L 10.21 24.0 L 10.67 24.0 L 11.13 24.0 L 11.58 24.0 L 12.04 24.0 L 12.5 24.0 L 12.96 24.0 L 13.42 24.0 L 13.88 24.0 L 14.33 24.0 L 14.79 24.0 L 15.25 24.0 L 15.71 24.0 L 16.17 24.0" fill="none" stroke="#111" stroke-width="1.15" stroke-linecap="round" stroke-linejoin="round"/>
</svg>
