<?xml version="1.0" encoding="UTF-8"?>
<svg xmlns="http://www.w3.org/2000/svg" viewBox="0 0 23.00 26.00">
<path d="M 9.0 10.0 L 8.79 10.29 L 8.58 10.58 L 8.37 10.88 L 8.17 11.17 L 7.96 11.46 L 7.75 11.75 L 7.54 12.04 L 7.33 12.33 L 7.12 12.62 L 6.92 12.92 L 6.71 13.21 L 6.5 13.5 L 6.29 13.79 L 6.08 14.08 L 5.88 14.38 L 5.67 14.67 L 5.46 14.96 L 5.25 15.25 L 5.04 15.54 L 4.83 15.83 L 4.62 16.12 L 4.42 16.42 L 4.21 16.71 L 4.0 17.0" fill="none" stroke="#111" stroke-width="0.91" stroke-linecap="round" stroke-linejoin="round"/>
<path d="M 9.0 10.0 L 9.17 10.29 L 9.33 10.58 L 9.5 10.88 L 9.67 11.17 L 9.83 11.46 L 10.0 11.75 L 10.17 12.04 L 10.33 12.33 L 10.5 12.62 L 10.67 12.92 L 10.83 13.21 L 11.0 13.5 L 11.17 13.79 L 11.33 14.08 L 11.5 14.38 L 11.67 14.67 L 11.83 14.96 L 12.0 15.25 L 12.17 15.54 L 12.33 15.83 L 12.5 16.12 L 12.67 16.42 L 12.83 16.71 L 13.0 17.0" fill="none" stroke="#111" stroke-width="0.91" stroke-linecap="round" stroke-linejoin="round"/>
<path d="M 6.0 15.0 L 6.25 15.0 L 6.5 15.0 L 6.75 15.0 L 7.0 15.0 L 7.25 15.0 L 7.5 15.0 L 7.75 15.0 L 8.0 15.0 L 8.25 15.0 L 8.5 15.0 L 8.75 15.0 L 9.0 15.0 L 9.25 15.0 L 9.5 15.0 L 9.75 15.0 L 10.0 15.0 L 10.25 15.0 L 10.5 15.0 L 10.75 15.0 L 11.0 15.0 L 11.25 15.0 L 11.5 15.0 L 11.75 15.0 L 12.0 15.0" fill="none" stroke="#111" stroke-width="0.91" stroke-linecap="round" stroke-linejoin="round"/>
<path d="M 15.0 4.0 L 14.92 4.21 L 14.83 4.42 L 14.75 4.62 L 14.67 4.83 L 14.58 5.04 L 14.5 5.25 L 14.42 5.46 L 14.33 5.67 L 14.25 5.88 L 14.17 6.08 L 14.08 6.29 L 14.0 6.5 L 13.92 6.71 L 13.83 6.92 L 13.75 7.12 L 13.67 7.33 L 13.58 7.54 L 13.5 7.75 L 13.42 7.96 L 13.33 8.17 L 13.25 8.38 L 13.17 8.58 L 13.08 8.79 L 13.0 9.0" fill="none" stroke="#111" stroke-width="0.91" stroke-linecap="round" stroke-linejoin="round"/>
<path d="M 13.0 9.0 L 13.25 9.33 L 13.5 9.67 L 13.75 10.0 L 14.0 10.33 L 14.25 10.67 L 14.5 11.0 L 14.75 11.33 L 15.0 11.67 L 15.25 12.0 L 15.5 12.33 L 15.75 12.67 L 16.0 13.0 L 16.25 13.33 L 16.5 13.67 L 16.75 14.0 L 17.0 14.33 L 17.25 14.67 L 17.5 15.0 L 17.75 15.33 L 18.0 15.67 L 18.25 16.0 L 18.5 16.33 L 18.75 16.67 L 19.0 17.0" fill="none" stroke="#111" stroke-width="0.91" stroke-linecap="round" stroke-linejoin="round"/>
<path d="M 19.0 17.0 L 18.92 17.17 L 18.83 17.33 L 18.75 17.5 L 18.67 17.67 L 18.58 17.83 L 18.5 18.0 L 18.42 18.17 L 18.33 18.33 L 18.25 18.5 L 18.17 18.67 L 18.08 18.83 L 18.0 19.0 L 17.92 19.17 L 17.83 19.33 L 17.75 19.5 L 17.67 19.67 L 17.58 19.83 L 17.5 20.0 L 17.42 20.17 L 17.33 20.33 L 17.25 20.5 L 17.17 20.67 L 17.08 20.83 L 17.0 21.0" fill="none" stroke="#111" stroke-width="0.91" stroke-linecap="round" stroke-linejoin="round"/>
<path d="M 15.0 4.0 L 15.12 4.25 L 15.25 4.5 L 15.37 4.75 L 15.5 5.0 L 15.62 5.25 L 15.75 5.5 L 15.87 5.75 L 16.0 6.0 L 16.12 6.25 L 16.25 6.5 L 16.38 6.75 L 16.5 7.0 L 16.62 7.25 L 16.75 7.5 L 16.88 7.75 L 17.0 8.0 L 17.12 8.25 L 17.25 8.5 L 17.38 8.75 L 17.5 9.0 L 17.62 9.25 L 17.75 9.5 L 17.88 9.75 L 18.0 10.0" fill="none" stroke="#111" stroke-width="0.91" stroke-linecap="round" stroke-linejoin="round"/>
<path d="M 18.0 10.0 L 17.83 10.25 L 17.67 10.5 L 17.5 10.75 L 17.33 11.0 L 17.17 11.25 L 17.0 11.5 L 16.83 11.75 L 16.67 12.0 L 16.5 12.25 L 16.33 12.5 L 16.17 12.75 L 16.0 13.0 L 15.83 13.25 L 15.67 13.5 L 15.5 13.75 L 15.33 14.0 L 15.17 14.25 L 15.0 14.5 L 14.83 14.75 L 14.67 15.0 L 14.5 15.25 L 14.33 15.5 L 14.17 15.75 L 14.0 16.0" fill="none" stroke="#111" stroke-width="0.91" stroke-linecap="round" stroke-linejoin="round"/>
<path d="M 14.0 16.0 L 14.08 16.25 L 14.17 16.5 L 14.25 16.75 L 14.33 17.0 L 14.42 17.25 L 14.5 17.5 L 14.58 17.75 L 14.67 18.0 L 14.75 18.25 L 14.83 18.5 L 14.92 18.75 L 15.0 19.0 L 15.08 19.25 L 15.17 19.5 L 15.25 19.75 L 15.33 20.0 L 15.42 20.25 L 15.5 20.5 L 15.58 20.75 L 15.67 21.0 L 15.75 21.25 L 15.83 21.5 L 15.92 21.75 L 16.0 22.0" fill="none" stroke="#111" stroke-width="0.91" stroke-linecap="round" stroke-linejoin="round"/>
</svg>
