<?xml version="1.0" encoding="UTF-8"?>
<svg xmlns="http://www.w3.org/2000/svg" viewBox="0 0 21.00 36.00">
<path d="M 9.0 4.0 L 9.12 4.35 L 9.22 4.72 L 9.29 5.08 L 9.33 5.46 L 9.35 5.83 L 9.33 6.21 L 9.29 6.58 L 9.23 6.95 L 9.13 7.31 L 9.01 7.66 L 8.86 8.01 L 8.68 8.34 L 8.49 8.66 L 8.27 8.96 L 8.02 9.25 L 7.76 9.51 L 7.48 9.76 L 7.18 9.98 L 6.86 10.19 L 6.53 10.36 L 6.19 10.52 L 5.83 10.64 L 5.47 10.74 L 5.11 10.82" fill="none" stroke="#111" stroke-width="1.26" stroke-linecap="round" stroke-linejoin="round"/>
<path d="M 9.0 4.0 L 9.05 4.41 L 9.13 4.82 L 9.24 5.22 L 9.37 5.61 L 9.53 6.0 L 9.71 6.37 L 9.91 6.73 L 10.14 7.08 L 10.38 7.41 L 10.65 7.73 L 10.94 8.03 L 11.24 8.31 L 11.57 8.57 L 11.91 8.81 L 12.26 9.02 L 12.63 9.22 L 13.01 9.39 L 13.39 9.53 L 13.79 9.65 L 14.19 9.75 L 14.6 9.82 L 15.02 9.86 L 15.43 9.88 L 15.84 9.87" fill="none" stroke="#111" stroke-width="1.26" stroke-linecap="round" stroke-linejoin="round"/>
<path d="M 8.0 9.0 L 8.0 9.38 L 8.0 9.75 L 8.0 10.12 L 8.0 10.5 L 8.0 10.88 L 8.0 11.25 L 8.0 11.62 L 8.0 12.0 L 8.0 12.38 L 8.0 12.75 L 8.0 13.12 L 8.0 13.5 L 8.0 13.88 L 8.0 14.25 L 8.0 14.62 L 8.0 15.0 L 8.0 15.38 L 8.0 15.75 L 8.0 16.12 L 8.0 16.5 L 8.0 16.88 L 8.0 17.25 L 8.0 17.62 L 8.0 18.0" fill="none" stroke="#111" stroke-width="1.26" stroke-linecap="round" stroke-linejoin="round"/>
<path d="M 12.0 9.0 L 12.0 9.38 L 12.0 9.75 L 12.0 10.12 L 12.0 10.5 L 12.0 10.88 L 12.0 11.25 L 12.0 11.62 L 12.0 12.0 L 12.0 12.38 L 12.0 12.75 L 12.0 13.12 L 12.0 13.5 L 12.0 13.88 L 12.0 14.25 L 12.0 14.62 L 12.0 15.0 L 12.0 15.38 L 12.0 15.75 L 12.0 16.12 L 12.0 16.5 L 12.0 16.88 L 12.0 17.25 L 12.0 17.62 L 12.0 18.0" fill="none" stroke="#111" stroke-width="1.26" stroke-linecap="round" stroke-linejoin="round"/>
<path d="M 8.0 13.0 L 8.17 13.0 L 8.33 13.0 L 8.5 13.0 L 8.67 13.0 L 8.83 13.0 L 9.0 13.0 L 9.17 13.0 L 9.33 13.0 L 9.5 13.0 L 9.67 13.0 L 9.83 13.0 L 10.0 13.0 L 10.17 13.0 L 10.33 13.0 L 10.5 13.0 L 10.67 13.0 L 10.83 13.0 L 11.0 13.0 L 11.17 13.0 L 11.33 13.0 L 11.5 13.0 L 11.67 13.0 L 11.83 13.0 L 12.0 13.0" fill="none" stroke="#111" stroke-width="1.26" stroke-linecap="round" stroke-linejoin="round"/>
<path d="M 8.0 16.0 L 8.17 16.0 L 8.33 16.0 L 8.5 16.0 L 8.67 16.0 L 8.83 16.0 L 9.0 16.0 L 9.17 16.0 L 9.33 16.0 L 9.5 16.0 L 9.67 16.0 L 9.83 16.0 L 10.0 16.0 L 10.17 16.0 L 10.33 16.0 L 10.5 16.0 L 10.67 16.0 L 10.83 16.0 L 11.0 16.0 L 11.17 16.0 L 11.33 16.0 L 11.5 16.0 L 11.67 16.0 L 11.83 16.0 L 12.0 16.0" fill="none" stroke="#111" stroke-width="1.26" stroke-linecap="round" stroke-linejoin="round"/>
<path d="M 5.0 18.0 L 5.0 18.33 L 5.0 18.67 L 5.0 19.0 L 5.0 19.33 L 5.0 19.67 L 5.0 20.0 L 5.0 20.33 L 5.0 20.67 L 5.0 21.0 L 5.0 21.33 L 5.0 21.67 L 5.0 22.0 L 5.0 22.33 L 5.0 22.67 L 5.0 23.0 L 5.0 23.33 L 5.0 23.67 L 5.0 24.0 L 5.0 24.33 L 5.0 24.67 L 5.0 25.0 L 5.0 25.33 L 5.0 25.67 L 5.0 26.0" fill="none" stroke="#111" stroke-width="1.26" stroke-linecap="round" stroke-linejoin="round"/>
<path d="M 4.0 18.0 L 4.54 18.0 L 5.08 18.0 L 5.62 18.0 L 6.17 18.0 L 6.71 18.0 L 7.25 18.0 L 7.79 18.0 L 8.33 18.0 L 8.88 18.0 L 9.42 18.0 L 9.96 18.0 L 10.5 18.0 L 11.04 18.0 L 11.58 18.0 L 12.12 18.0 L 12.67 18.0 L 13.21 18.0 L 13.75 18.0 L 14.29 18.0 L 14.83 18.0 L 15.38 18.0 L 15.92 18.0 L 16.46 18.0 L 17.0 18.0 L 17.0 18.0 L 17.0 18.38 L 17.0 18.75 L 17.0 19.12 L 17.0 19.5 L 17.0 19.88 L 17.0 20.25 L 17.0 20.62 L 17.0 21.0 L 17.0 21.38 L 17.0 21.75 L 17.0 22.12 L 17.0 22.5 L 17.0 22.88 L 17.0 23.25 L 17.0 23.62 L 17.0 24.0 L 17.0 24.38 L 17.0 24.75 L 17.0 25.12 L 17.0 25.5 L 17.0 25.88 L 17.0 26.25 L 17.0 26.62 L 17.0 27.0" fill="none" stroke="#111" stroke-width="1.26" stroke-linecap="round" stroke-linejoin="round"/>
<path d="M 11.0 28.0 L 11.0 28.17 L 11.0 28.33 L 11.0 28.5 L 11.0 28.67 L 11.0 28.83 L 11.0 29.0 L 11.0 29.17 L 11.0 29.33 L 11.0 29.5 L 11.0 29.67 L 11.0 29.83 L 11.0 30.0 L 11.0 30.17 L 11.0 30.33 L 11.0 30.5 L 11.0 30.67 L 11.0 30.83 L 11.0 31.0 L 11.0 31.17 L 11.0 31.33 L 11.0 31.5 L 11.0 31.67 L 11.0 31.83 L 11.0 32.0 L 11.0 32.0 L 11.12 32.0 L 11.25 32.0 L 11.38 32.0 L 11.5 32.0 L 11.62 32.0 L 11.75 32.0 L 11.88 32.0 L 12.0 32.0 L 12.12 32.0 L 12.25 32.0 L 12.38 32.0 L 12.5 32.0 L 12.62 32.0 L 12.75 32.0 L 12.88 32.0 L 13.0 32.0 L 13.12 32.0 L 13.25 32.0 L 13.38 32.0 L 13.5 32.0 L 13.62 32.0 L 13.75 32.0 L 13.88 32.0 L 14.0 32.0 L 14.0 32.0 L 14.0 31.79 L 14.0 31.58 L 14.0 31.38 L 14.0 31.17 L 14.0 30.96 L 14.0 30.75 L 14.0 30.54 L 14.0 30.33 L 14.0 30.12 L 14.0 29.92 L 14.0 29.71 L 14.0 29.5 L 14.0 29.29 L 14.0 29.08 L 14.0 28.88 L 14.0 28.67 L 14.0 28.46 L 14.0 28.25 L 14.0 28.04 L 14.0 27.83 L 14.0 27.62 L 14.0 27.42 L 14.0 27.21 L 14.0 27.0" fill="none" stroke="#111" stroke-width="1.26" stroke-linecap="round" stroke-linejoin="round"/>
<path d="M 11.0 29.0 L 11.12 29.0 L 11.25 29.0 L 11.38 29.0 L 11.5 29.0 L 11.62 29.0 L 11.75 29.0 L 11.88 29.0 L 12.0 29.0 L 12.12 29.0 L 12.25 29.0 L 12.38 29.0 L 12.5 29.0 L 12.62 29.0 L 12.75 29.0 L 12.88 29.0 L 13.0 29.0 L 13.12 29.0 L 13.25 29.0 L 13.38 29.0 L 13.5 29.0 L 13.62 29.0 L 13.75 29.0 L 13.88 29.0 L 14.0 29.0" fill="none" stroke="#111" stroke-width="1.26" stroke-linecap="round" stroke-linejoin="round"/>
</svg>
