<?xml version="1.0" encoding="UTF-8"?>
<svg xmlns="http://www.w3.org/2000/svg" viewBox="0 0 24.00 35.00">
<path d="M 12.0 10.0 L 12.0 10.54 L 12.0 11.08 L 12.0 11.62 L 12.0 12.17 L 12.0 12.71 L 12.0 13.25 L 12.0 13.79 L 12.0 14.33 L 12.0 14.88 L 12.0 15.42 L 12.0 15.96 L 12.0 16.5 L 12.0 17.04 L 12.0 17.58 L 12.0 18.12 L 12.0 18.67 L 12.0 19.21 L 12.0 19.75 L 12.0 20.29 L 12.0 20.83 L 12.0 21.38 L 12.0 21.92 L 12.0 22.46 L 12.0 23.0" fill="none" stroke="#111" stroke-width="1.23" stroke-linecap="round" stroke-linejoin="round"/>
<path d="M 12.0 22.0 L 11.7 22.31 L 11.41 22.63 L 11.13 22.96 L 10.85 23.29 L 10.58 23.63 L 10.32 23.98 L 10.07 24.33 L 9.82 24.68 L 9.58 25.05 L 9.35 25.41 L 9.13 25.78 L 8.92 26.16 L 8.71 26.54 L 8.51 26.92 L 8.32 27.31 L 8.14 27.71 L 7.97 28.1 L 7.81 28.5 L 7.65 28.91 L 7.51 29.32 L 7.37 29.73 L 7.24 30.14 L 7.12 30.56 L 7.01 30.97" fill="none" stroke="#111" stroke-width="1.23" stroke-linecap="round" stroke-linejoin="round"/>
<path d="M 12.0 22.0 L 12.12 22.38 L 12.25 22.75 L 12.38 23.12 L 12.5 23.5 L 12.62 23.88 L 12.75 24.25 L 12.88 24.62 L 13.0 25.0 L 13.12 25.38 L 13.25 25.75 L 13.38 26.12 L 13.5 26.5 L 13.62 26.88 L 13.75 27.25 L 13.88 27.62 L 14.0 28.0 L 14.12 28.38 L 14.25 28.75 L 14.38 29.12 L 14.5 29.5 L 14.62 29.88 L 14.75 30.25 L 14.88 30.62 L 15.0 31.0" fill="none" stroke="#111" stroke-width="1.23" stroke-linecap="round" stroke-linejoin="round"/>
<path d="M 4.0 5.0 L 4.0 5.38 L 4.0 5.75 L 4.0 6.12 L 4.0 6.5 L 4.0 6.88 L 4.0 7.25 L 4.0 7.62 L 4.0 8.0 L 4.0 8.38 L 4.0 8.75 L 4.0 9.12 L 4.0 9.5 L 4.0 9.88 L 4.0 10.25 L 4.0 10.62 L 4.0 11.0 L 4.0 11.38 L 4.0 11.75 L 4.0 12.12 L 4.0 12.5 L 4.0 12.88 L 4.0 13.25 L 4.0 13.62 L 4.0 14.0 L 4.0 14.0 L 4.67 14.0 L 5.33 14.0 L 6.0 14.0 L 6.67 14.0 L 7.33 14.0 L 8.0 14.0 L 8.67 14.0 L 9.33 14.0 L 10.0 14.0 L 10.67 14.0 L 11.33 14.0 L 12.0 14.0 L 12.67 14.0 L 13.33 14.0 L 14.0 14.0 L 14.67 14.0 L 15.33 14.0 L 16.0 14.0 L 16.67 14.0 L 17.33 14.0 L 18.0 14.0 L 18.67 14.0 L 19.33 14.0 L 20.0 14.0 L 20.0 14.0 L 20.0 13.58 L 20.0 13.17 L 20.0 12.75 L 20.0 12.33 L 20.0 11.92 L 20.0 11.5 L 20.0 11.08 L 20.0 10.67 L 20.0 10.25 L 20.0 9.83 L 20.0 9.42 L 20.0 9.0 L 20.0 8.58 L 20.0 8.17 L 20.0 7.75 L 20.0 7.33 L 20.0 6.92 L 20.0 6.5 L 20.0 6.08 L 20.0 5.67 L 20.0 5.25 L 20.0 4.83 L 20.0 4.42 L 20.0 4.0" fill="none" stroke="#111" stroke-width="1.23" stroke-linecap="round" stroke-linejoin="round"/>
<path d="M 8.0 10.0 L 8.33 10.0 L 8.67 10.0 L 9.0 10.0 L 9.33 10.0 L 9.67 10.0 L 10.0 10.0 L 10.33 10.0 L 10.67 10.0 L 11.0 10.0 L 11.33 10.0 L 11.67 10.0 L 12.0 10.0 L 12.33 10.0 L 12.67 10.0 L 13.0 10.0 L 13.33 10.0 L 13.67 10.0 L 14.0 10.0 L 14.33 10.0 L 14.67 10.0 L 15.0 10.0 L 15.33 10.0 L 15.67 10.0 L 16.0 10.0" fill="none" stroke="#111" stroke-width="1.23" stroke-linecap="round" stroke-linejoin="round"/>
<path d="M 12.0 16.0 L 11.71 16.25 L 11.42 16.5 L 11.12 16.75 L 10.83 17.0 L 10.54 17.25 L 10.25 17.5 L 9.96 17.75 L 9.67 18.0 L 9.38 18.25 L 9.08 18.5 L 8.79 18.75 L 8.5 19.0 L 8.21 19.25 L 7.92 19.5 L 7.62 19.75 L 7.33 20.0 L 7.04 20.25 L 6.75 20.5 L 6.46 20.75 L 6.17 21.0 L 5.87 21.25 L 5.58 21.5 L 5.29 21.75 L 5.0 22.0" fill="none" stroke="#111" stroke-width="1.23" stroke-linecap="round" stroke-linejoin="round"/>
<path d="M 12.0 16.0 L 12.29 16.21 L 12.58 16.42 L 12.88 16.62 L 13.17 16.83 L 13.46 17.04 L 13.75 17.25 L 14.04 17.46 L 14.33 17.67 L 14.62 17.88 L 14.92 18.08 L 15.21 18.29 L 15.5 18.5 L 15.79 18.71 L 16.08 18.92 L 16.38 19.12 L 16.67 19.33 L 16.96 19.54 L 17.25 19.75 L 17.54 19.96 L 17.83 20.17 L 18.12 20.38 L 18.42 20.58 L 18.71 20.79 L 19.0 21.0" fill="none" stroke="#111" stroke-width="1.23" stroke-linecap="round" stroke-linejoin="round"/>
</svg>
