<?xml version="1.0" encoding="UTF-8"?>
<svg xmlns="http://www.w3.org/2000/svg" viewBox="0 0 21.02 35.00">
<path d="M 7.0 4.0 L 7.33 4.0 L 7.67 4.0 L 8.0 4.0 L 8.33 4.0 L 8.67 4.0 L 9.0 4.0 L 9.33 4.0 L 9.67 4.0 L 10.0 4.0 L 10.33 4.0 L 10.67 4.0 L 11.0 4.0 L 11.33 4.0 L 11.67 4.0 L 12.0 4.0 L 12.33 4.0 L 12.67 4.0 L 13.0 4.0 L 13.33 4.0 L 13.67 4.0 L 14.0 4.0 L 14.33 4.0 L 14.67 4.0 L 15.0 4.0 L 15.0 4.0 L 15.0 4.17 L 15.0 4.33 L 15.0 4.5 L 15.0 4.67 L 15.0 4.83 L 15.0 5.0 L 15.0 5.17 L 15.0 5.33 L 15.0 5.5 L 15.0 5.67 L 15.0 5.83 L 15.0 6.0 L 15.0 6.17 L 15.0 6.33 L 15.0 6.5 L 15.0 6.67 L 15.0 6.83 L 15.0 7.0 L 15.0 7.17 L 15.0 7.33 L 15.0 7.5 L 15.0 7.67 L 15.0 7.83 L 15.0 8.0" fill="none" stroke="#111" stroke-width="1.23" stroke-linecap="round" stroke-linejoin="round"/>
<path d="M 8.0 8.0 L 8.29 8.0 L 8.58 8.0 L 8.88 8.0 L 9.17 8.0 L 9.46 8.0 L 9.75 8.0 L 10.04 8.0 L 10.33 8.0 L 10.62 8.0 L 10.92 8.0 L 11.21 8.0 L 11.5 8.0 L 11.79 8.0 L 12.08 8.0 L 12.38 8.0 L 12.67 8.0 L 12.96 8.0 L 13.25 8.0 L 13.54 8.0 L 13.83 8.0 L 14.12 8.0 L 14.42 8.0 L 14.71 8.0 L 15.0 8.0" fill="none" stroke="#111" stroke-width="1.23" stroke-linecap="round" stroke-linejoin="round"/>
<path d="M 8.0 8.0 L 8.42 8.32 L 8.79 8.69 L 9.12 9.09 L 9.41 9.53 L 9.64 10.01 L 9.82 10.5 L 9.93 11.01 L 9.99 11.53 L 9.99 12.06 L 9.93 12.58 L 9.81 13.09 L 9.63 13.58 L 9.39 14.05 L 9.11 14.49 L 8.77 14.9 L 8.39 15.26 L 7.98 15.58 L 7.52 15.85 L 7.04 16.06 L 6.54 16.22 L 6.03 16.32 L 5.51 16.36 L 4.98 16.34 L 4.46 16.26" fill="none" stroke="#111" stroke-width="1.23" stroke-linecap="round" stroke-linejoin="round"/>
<path d="M 10.0 4.0 L 10.73 4.5 L 11.43 5.04 L 12.1 5.62 L 12.73 6.24 L 13.32 6.89 L 13.88 7.58 L 14.4 8.3 L 14.87 9.04 L 15.3 9.82 L 15.68 10.61 L 16.02 11.43 L 16.31 12.26 L 16.55 13.11 L 16.75 13.98 L 16.89 14.85 L 16.98 15.73 L 17.02 16.61 L 17.01 17.5 L 16.95 18.38 L 16.84 19.25 L 16.67 20.12 L 16.46 20.98 L 16.2 21.83 L 15.89 22.65" fill="none" stroke="#111" stroke-width="1.23" stroke-linecap="round" stroke-linejoin="round"/>
<path d="M 8.0 11.0 L 8.49 11.28 L 8.97 11.59 L 9.42 11.94 L 9.86 12.31 L 10.26 12.7 L 10.65 13.12 L 11.0 13.57 L 11.33 14.04 L 11.62 14.52 L 11.88 15.03 L 12.11 15.55 L 12.31 16.08 L 12.47 16.63 L 12.6 17.18 L 12.69 17.74 L 12.75 18.31 L 12.77 18.88 L 12.75 19.45 L 12.7 20.01 L 12.61 20.57 L 12.49 21.13 L 12.33 21.68 L 12.14 22.21 L 11.91 22.73" fill="none" stroke="#111" stroke-width="1.23" stroke-linecap="round" stroke-linejoin="round"/>
<path d="M 4.0 21.0 L 4.0 21.25 L 4.0 21.5 L 4.0 21.75 L 4.0 22.0 L 4.0 22.25 L 4.0 22.5 L 4.0 22.75 L 4.0 23.0 L 4.0 23.25 L 4.0 23.5 L 4.0 23.75 L 4.0 24.0 L 4.0 24.25 L 4.0 24.5 L 4.0 24.75 L 4.0 25.0 L 4.0 25.25 L 4.0 25.5 L 4.0 25.75 L 4.0 26.0 L 4.0 26.25 L 4.0 26.5 L 4.0 26.75 L 4.0 27.0 L 4.0 27.0 L 4.25 27.0 L 4.5 27.0 L 4.75 27.0 L 5.0 27.0 L 5.25 27.0 L 5.5 27.0 L 5.75 27.0 L 6.0 27.0 L 6.25 27.0 L 6.5 27.0 L 6.75 27.0 L 7.0 27.0 L 7.25 27.0 L 7.5 27.0 L 7.75 27.0 L 8.0 27.0 L 8.25 27.0 L 8.5 27.0 L 8.75 27.0 L 9.0 27.0 L 9.25 27.0 L 9.5 27.0 L 9.75 27.0 L 10.0 27.0" fill="none" stroke="#111" stroke-width="1.23" stroke-linecap="round" stroke-linejoin="round"/>
<path d="M 7.0 25.0 L 7.0 25.25 L 7.0 25.5 L 7.0 25.75 L 7.0 26.0 L 7.0 26.25 L 7.0 26.5 L 7.0 26.75 L 7.0 27.0 L 7.0 27.25 L 7.0 27.5 L 7.0 27.75 L 7.0 28.0 L 7.0 28.25 L 7.0 28.5 L 7.0 28.75 L 7.0 29.0 L 7.0 29.25 L 7.0 29.5 L 7.0 29.75 L 7.0 30.0 L 7.0 30.25 L 7.0 30.5 L 7.0 30.75 L 7.0 31.0 L 7.0 31.0 L 7.12 31.0 L 7.25 31.0 L 7.38 31.0 L 7.5 31.0 L 7.62 31.0 L 7.75 31.0 L 7.88 31.0 L 8.0 31.0 L 8.12 31.0 L 8.25 31.0 L 8.38 31.0 L 8.5 31.0 L 8.62 31.0 L 8.75 31.0 L 8.88 31.0 L 9.0 31.0 L 9.12 31.0 L 9.25 31.0 L 9.38 31.0 L 9.5 31.0 L 9.62 31.0 L 9.75 31.0 L 9.88 31.0 L 10.0 31.0 L 10.0 31.0 L 10.0 30.71 L 10.0 30.42 L 10.0 30.12 L 10.0 29.83 L 10.0 29.54 L 10.0 29.25 L 10.0 28.96 L 10.0 28.67 L 10.0 28.38 L 10.0 28.08 L 10.0 27.79 L 10.0 27.5 L 10.0 27.21 L 10.0 26.92 L 10.0 26.62 L 10.0 26.33 L 10.0 26.04 L 10.0 25.75 L 10.0 25.46 L 10.0 25.17 L 10.0 24.88 L 10.0 24.58 L 10.0 24.29 L 10.0 24.0" fill="none" stroke="#111" stroke-width="1.23" stroke-linecap="round" stroke-linejoin="round"/>
</svg>
