<?xml version="1.0" encoding="UTF-8"?>
<svg xmlns="http://www.w3.org/2000/svg" viewBox="0 0 21.81 31.70">
<path d="M 4.37 14.0 L 4.22 13.48 L 4.11 12.96 L 4.04 12.43 L 4.0 11.89 L 4.0 11.35 L 4.04 10.82 L 4.12 10.28 L 4.24 9.76 L 4.39 9.24 L 4.58 8.74 L 4.81 8.25 L 5.07 7.78 L 5.36 7.33 L 5.68 6.9 L 6.04 6.5 L 6.42 6.12 L 6.83 5.77 L 7.26 5.45 L 7.71 5.17 L 8.19 4.91 L 8.68 4.69 L 9.18 4.51 L 9.7 4.36 L 10.23 4.25 L 10.37 4.0 L 11.01 4.11 L 11.65 4.26 L 12.26 4.47 L 12.86 4.72 L 13.44 5.01 L 14.0 5.35 L 14.52 5.73 L 15.02 6.15 L 15.48 6.61 L 15.91 7.1 L 16.3 7.62 L 16.65 8.16 L 16.96 8.74 L 17.22 9.33 L 17.43 9.95 L 17.6 10.57 L 17.72 11.21 L 17.79 11.86 L 17.81 12.51 L 17.78 13.16 L 17.71 13.8 L 17.58 14.44 L 17.41 15.07 L 17.19 15.68" fill="none" stroke="#111" stroke-width="1.11" stroke-linecap="round" stroke-linejoin="round"/>
<path d="M 7.37 14.0 L 7.37 14.21 L 7.37 14.42 L 7.37 14.62 L 7.37 14.83 L 7.37 15.04 L 7.37 15.25 L 7.37 15.46 L 7.37 15.67 L 7.37 15.88 L 7.37 16.08 L 7.37 16.29 L 7.37 16.5 L 7.37 16.71 L 7.37 16.92 L 7.37 17.12 L 7.37 17.33 L 7.37 17.54 L 7.37 17.75 L 7.37 17.96 L 7.37 18.17 L 7.37 18.38 L 7.37 18.58 L 7.37 18.79 L 7.37 19.0" fill="none" stroke="#111" stroke-width="1.11" stroke-linecap="round" stroke-linejoin="round"/>
<path d="M 12.37 9.0 L 11.96 9.7 L 11.56 10.41 L 11.2 11.13 L 10.86 11.87 L 10.55 12.62 L 10.27 13.38 L 10.02 14.15 L 9.8 14.93 L 9.61 15.72 L 9.45 16.52 L 9.32 17.32 L 9.22 18.12 L 9.15 18.93 L 9.11 19.74 L 9.1 20.55 L 9.13 21.36 L 9.18 22.17 L 9.26 22.98 L 9.38 23.78 L 9.52 24.58 L 9.7 25.37 L 9.91 26.16 L 10.14 26.93 L 10.4 27.7" fill="none" stroke="#111" stroke-width="1.11" stroke-linecap="round" stroke-linejoin="round"/>
<path d="M 13.37 10.0 L 13.42 10.04 L 13.46 10.08 L 13.5 10.12 L 13.54 10.17 L 13.58 10.21 L 13.62 10.25 L 13.67 10.29 L 13.71 10.33 L 13.75 10.38 L 13.79 10.42 L 13.83 10.46 L 13.87 10.5 L 13.92 10.54 L 13.96 10.58 L 14.0 10.62 L 14.04 10.67 L 14.08 10.71 L 14.12 10.75 L 14.17 10.79 L 14.21 10.83 L 14.25 10.88 L 14.29 10.92 L 14.33 10.96 L 14.37 11.0" fill="none" stroke="#111" stroke-width="1.11" stroke-linecap="round" stroke-linejoin="round"/>
<path d="M 14.37 12.0 L 14.21 12.17 L 14.04 12.33 L 13.87 12.5 L 13.71 12.67 L 13.54 12.83 L 13.37 13.0 L 13.21 13.17 L 13.04 13.33 L 12.87 13.5 L 12.71 13.67 L 12.54 13.83 L 12.37 14.0 L 12.21 14.17 L 12.04 14.33 L 11.87 14.5 L 11.71 14.67 L 11.54 14.83 L 11.37 15.0 L 11.21 15.17 L 11.04 15.33 L 10.87 15.5 L 10.71 15.67 L 10.54 15.83 L 10.37 16.0" fill="none" stroke="#111" stroke-width="1.11" stroke-linecap="round" stroke-linejoin="round"/>
<path d="M 14.37 15.0 L 14.25 15.21 L 14.12 15.42 L 14.0 15.62 L 13.87 15.83 L 13.75 16.04 L 13.62 16.25 L 13.5 16.46 L 13.37 16.67 L 13.25 16.88 L 13.12 17.08 L 13.0 17.29 L 12.87 17.5 L 12.75 17.71 L 12.62 17.92 L 12.5 18.12 L 12.37 18.33 L 12.25 18.54 L 12.12 18.75 L 12.0 18.96 L 11.87 19.17 L 11.75 19.38 L 11.62 19.58 L 11.5 19.79 L 11.37 20.0" fill="none" stroke="#111" stroke-width="1.11" stroke-linecap="round" stroke-linejoin="round"/>
<path d="M 10.37 21.0 L 10.12 21.25 L 9.87 21.5 L 9.62 21.75 L 9.37 22.0 L 9.12 22.25 L 8.87 22.5 L 8.62 22.75 L 8.37 23.0 L 8.12 23.25 L 7.87 23.5 L 7.62 23.75 L 7.37 24.0 L 7.12 24.25 L 6.87 24.5 L 6.62 24.75 L 6.37 25.0 L 6.12 25.25 L 5.87 25.5 L 5.62 25.75 L 5.37 26.0 L 5.12 26.25 L 4.87 26.5 L 4.62 26.75 L 4.37 27.0" fill="none" stroke="#111" stroke-width="1.11" stroke-linecap="round" stroke-linejoin="round"/>
<path d="M 10.37 21.0 L 10.67 21.25 L 10.96 21.5 L 11.25 21.75 L 11.54 22.0 L 11.83 22.25 L 12.12 22.5 L 12.42 22.75 L 12.71 23.0 L 13.0 23.25 L 13.29 23.5 L 13.58 23.75 L 13.87 24.0 L 14.17 24.25 L 14.46 24.5 L 14.75 24.75 L 15.04 25.0 L 15.33 25.25 L 15.62 25.5 L 15.92 25.75 L 16.21 26.0 L 16.5 26.25 L 16.79 26.5 L 17.08 26.75 L 17.37 27.0" fill="none" stroke="#111" stroke-width="1.11" stroke-linecap="round" stroke-linejoin="round"/>
<path d="M 14.37 19.0 L 14.37 19.12 L 14.37 19.25 L 14.37 19.38 L 14.37 19.5 L 14.37 19.62 L 14.37 19.75 L 14.37 19.88 L 14.37 20.0 L 14.37 20.12 L 14.37 20.25 L 14.37 20.38 L 14.37 20.5 L 14.37 20.62 L 14.37 20.75 L 14.37 20.88 L 14.37 21.0 L 14.37 21.12 L 14.37 21.25 L 14.37 21.38 L 14.37 21.5 L 14.37 21.62 L 14.37 21.75 L 14.37 21.88 L 14.37 22.0" fill="none" stroke="#111" stroke-width="1.11" stroke-linecap="round" stroke-linejoin="round"/>
</svg>
