<?xml version="1.0" encoding="UTF-8"?>
<svg xmlns="http://www.w3.org/2000/svg" viewBox="0 0 25.00 36.00">
<path d="M 6.0 17.0 L 6.62 17.0 L 7.25 17.0 L 7.88 17.0 L 8.5 17.0 L 9.12 17.0 L 9.75 17.0 L 10.38 17.0 L 11.0 17.0 L 11.62 17.0 L 12.25 17.0 L 12.88 17.0 L 13.5 17.0 L 14.12 17.0 L 14.75 17.0 L 15.38 17.0 L 16.0 17.0 L 16.62 17.0 L 17.25 17.0 L 17.88 17.0 L 18.5 17.0 L 19.12 17.0 L 19.75 17.0 L 20.38 17.0 L 21.0 17.0" fill="none" stroke="#111" stroke-width="1.26" stroke-linecap="round" stroke-linejoin="round"/>
<path d="M 11.0 4.0 L 10.71 4.33 L 10.42 4.67 L 10.12 5.0 L 9.83 5.33 L 9.54 5.67 L 9.25 6.0 L 8.96 6.33 L 8.67 6.67 L 8.38 7.0 L 8.08 7.33 L 7.79 7.67 L 7.5 8.0 L 7.21 8.33 L 6.92 8.67 L 6.62 9.0 L 6.33 9.33 L 6.04 9.67 L 5.75 10.0 L 5.46 10.33 L 5.17 10.67 L 4.88 11.0 L 4.58 11.33 L 4.29 11.67 L 4.0 12.0" fill="none" stroke="#111" stroke-width="1.26" stroke-linecap="round" stroke-linejoin="round"/>
<path d="M 11.0 4.0 L 11.42 4.33 L 11.83 4.67 L 12.25 5.0 L 12.67 5.33 L 13.08 5.67 L 13.5 6.0 L 13.92 6.33 L 14.33 6.67 L 14.75 7.0 L 15.17 7.33 L 15.58 7.67 L 16.0 8.0 L 16.42 8.33 L 16.83 8.67 L 17.25 9.0 L 17.67 9.33 L 18.08 9.67 L 18.5 10.0 L 18.92 10.33 L 19.33 10.67 L 19.75 11.0 L 20.17 11.33 L 20.58 11.67 L 21.0 12.0" fill="none" stroke="#111" stroke-width="1.26" stroke-linecap="round" stroke-linejoin="round"/>
<path d="M 8.0 8.0 L 8.04 8.38 L 8.08 8.75 L 8.12 9.12 L 8.17 9.5 L 8.21 9.88 L 8.25 10.25 L 8.29 10.62 L 8.33 11.0 L 8.38 11.38 L 8.42 11.75 L 8.46 12.12 L 8.5 12.5 L 8.54 12.88 L 8.58 13.25 L 8.62 13.62 L 8.67 14.0 L 8.71 14.38 L 8.75 14.75 L 8.79 15.12 L 8.83 15.5 L 8.88 15.88 L 8.92 16.25 L 8.96 16.62 L 9.0 17.0" fill="none" stroke="#111" stroke-width="1.26" stroke-linecap="round" stroke-linejoin="round"/>
<path d="M 16.0 8.0 L 16.04 8.33 L 16.08 8.67 L 16.12 9.0 L 16.17 9.33 L 16.21 9.67 L 16.25 10.0 L 16.29 10.33 L 16.33 10.67 L 16.38 11.0 L 16.42 11.33 L 16.46 11.67 L 16.5 12.0 L 16.54 12.33 L 16.58 12.67 L 16.62 13.0 L 16.67 13.33 L 16.71 13.67 L 16.75 14.0 L 16.79 14.33 L 16.83 14.67 L 16.88 15.0 L 16.92 15.33 L 16.96 15.67 L 17.0 16.0" fill="none" stroke="#111" stroke-width="1.26" stroke-linecap="round" stroke-linejoin="round"/>
<path d="M 8.0 8.0 L 8.33 8.0 L 8.67 8.0 L 9.0 8.0 L 9.33 8.0 L 9.67 8.0 L 10.0 8.0 L 10.33 8.0 L 10.67 8.0 L 11.0 8.0 L 11.33 8.0 L 11.67 8.0 L 12.0 8.0 L 12.33 8.0 L 12.67 8.0 L 13.0 8.0 L 13.33 8.0 L 13.67 8.0 L 14.0 8.0 L 14.33 8.0 L 14.67 8.0 L 15.0 8.0 L 15.33 8.0 L 15.67 8.0 L 16.0 8.0" fill="none" stroke="#111" stroke-width="1.26" stroke-linecap="round" stroke-linejoin="round"/>
<path d="M 6.0 17.0 L 6.0 17.38 L 6.0 17.75 L 6.0 18.12 L 6.0 18.5 L 6.0 18.88 L 6.0 19.25 L 6.0 19.62 L 6.0 20.0 L 6.0 20.38 L 6.0 20.75 L 6.0 21.12 L 6.0 21.5 L 6.0 21.88 L 6.0 22.25 L 6.0 22.62 L 6.0 23.0 L 6.0 23.38 L 6.0 23.75 L 6.0 24.12 L 6.0 24.5 L 6.0 24.88 L 6.0 25.25 L 6.0 25.62 L 6.0 26.0" fill="none" stroke="#111" stroke-width="1.26" stroke-linecap="round" stroke-linejoin="round"/>
<path d="M 21.0 17.0 L 21.0 17.38 L 21.0 17.75 L 21.0 18.12 L 21.0 18.5 L 21.0 18.88 L 21.0 19.25 L 21.0 19.62 L 21.0 20.0 L 21.0 20.38 L 21.0 20.75 L 21.0 21.12 L 21.0 21.5 L 21.0 21.88 L 21.0 22.25 L 21.0 22.62 L 21.0 23.0 L 21.0 23.38 L 21.0 23.75 L 21.0 24.12 L 21.0 24.5 L 21.0 24.88 L 21.0 25.25 L 21.0 25.62 L 21.0 26.0" fill="none" stroke="#111" stroke-width="1.26" stroke-linecap="round" stroke-linejoin="round"/>
<path d="M 13.0 17.0 L 13.04 17.62 L 13.08 18.25 L 13.12 18.88 L 13.17 19.5 L 13.21 20.12 L 13.25 20.75 L 13.29 21.38 L 13.33 22.0 L 13.38 22.62 L 13.42 23.25 L 13.46 23.88 L 13.5 24.5 L 13.54 25.12 L 13.58 25.75 L 13.62 26.38 L 13.67 27.0 L 13.71 27.62 L 13.75 28.25 L 13.79 28.88 L 13.83 29.5 L 13.88 30.12 L 13.92 30.75 L 13.96 31.38 L 14.0 32.0" fill="none" stroke="#111" stroke-width="1.26" stroke-linecap="round" stroke-linejoin="round"/>
</svg>
