<?xml version="1.0" encoding="UTF-8"?>
<svg xmlns="http://www.w3.org/2000/svg" viewBox="0 0 25.09 35.66">
<path d="M 17.0 4.0 L 17.08 4.54 L 17.17 5.08 L 17.25 5.62 L 17.33 6.17 L 17.42 6.71 L 17.5 7.25 L 17.58 7.79 L 17.67 8.33 L 17.75 8.88 L 17.83 9.42 L 17.92 9.96 L 18.0 10.5 L 18.08 11.04 L 18.17 11.58 L 18.25 12.12 L 18.33 12.67 L 18.42 13.21 L 18.5 13.75 L 18.58 14.29 L 18.67 14.83 L 18.75 15.38 L 18.83 15.92 L 18.92 16.46 L 19.0 17.0 L 19.0 17.0 L 18.35 17.44 L 17.74 17.93 L 17.19 18.49 L 16.69 19.09 L 16.25 19.75 L 15.88 20.44 L 15.58 21.16 L 15.35 21.91 L 15.19 22.68 L 15.11 23.46 L 15.11 24.24 L 15.18 25.02 L 15.33 25.79 L 15.55 26.55 L 15.85 27.27 L 16.21 27.97 L 16.64 28.62 L 17.14 29.23 L 17.69 29.79 L 18.29 30.3 L 18.94 30.74 L 19.62 31.11 L 20.35 31.42 L 21.09 31.66 L 20.0 24.0 L 19.92 24.25 L 19.83 24.5 L 19.75 24.75 L 19.67 25.0 L 19.58 25.25 L 19.5 25.5 L 19.42 25.75 L 19.33 26.0 L 19.25 26.25 L 19.17 26.5 L 19.08 26.75 L 19.0 27.0 L 18.92 27.25 L 18.83 27.5 L 18.75 27.75 L 18.67 28.0 L 18.58 28.25 L 18.5 28.5 L 18.42 28.75 L 18.33 29.0 L 18.25 29.25 L 18.17 29.5 L 18.08 29.75 L 18.0 30.0" fill="none" stroke="#111" stroke-width="1.25" stroke-linecap="round" stroke-linejoin="round"/>
<path d="M 14.0 9.0 L 14.25 8.83 L 14.5 8.67 L 14.75 8.5 L 15.0 8.33 L 15.25 8.17 L 15.5 8.0 L 15.75 7.83 L 16.0 7.67 L 16.25 7.5 L 16.5 7.33 L 16.75 7.17 L 17.0 7.0 L 17.25 6.83 L 17.5 6.67 L 17.75 6.5 L 18.0 6.33 L 18.25 6.17 L 18.5 6.0 L 18.75 5.83 L 19.0 5.67 L 19.25 5.5 L 19.5 5.33 L 19.75 5.17 L 20.0 5.0 L 20.0 5.0 L 20.04 5.21 L 20.08 5.42 L 20.12 5.62 L 20.17 5.83 L 20.21 6.04 L 20.25 6.25 L 20.29 6.46 L 20.33 6.67 L 20.38 6.88 L 20.42 7.08 L 20.46 7.29 L 20.5 7.5 L 20.54 7.71 L 20.58 7.92 L 20.62 8.12 L 20.67 8.33 L 20.71 8.54 L 20.75 8.75 L 20.79 8.96 L 20.83 9.17 L 20.88 9.38 L 20.92 9.58 L 20.96 9.79 L 21.0 10.0 L 21.0 10.0 L 20.56 9.92 L 20.11 9.87 L 19.66 9.84 L 19.21 9.84 L 18.77 9.87 L 18.32 9.93 L 17.88 10.01 L 17.44 10.11 L 17.01 10.25 L 16.59 10.4 L 16.18 10.59 L 15.78 10.79 L 15.4 11.02 L 15.03 11.27 L 14.67 11.55 L 14.33 11.84 L 14.01 12.16 L 13.71 12.49 L 13.43 12.84 L 13.17 13.21 L 12.93 13.59 L 12.71 13.98 L 12.52 14.39 L 12.35 14.8" fill="none" stroke="#111" stroke-width="1.25" stroke-linecap="round" stroke-linejoin="round"/>
<path d="M 14.0 9.0 L 14.0 9.25 L 14.0 9.5 L 14.0 9.75 L 14.0 10.0 L 14.0 10.25 L 14.0 10.5 L 14.0 10.75 L 14.0 11.0 L 14.0 11.25 L 14.0 11.5 L 14.0 11.75 L 14.0 12.0 L 14.0 12.25 L 14.0 12.5 L 14.0 12.75 L 14.0 13.0 L 14.0 13.25 L 14.0 13.5 L 14.0 13.75 L 14.0 14.0 L 14.0 14.25 L 14.0 14.5 L 14.0 14.75 L 14.0 15.0" fill="none" stroke="#111" stroke-width="1.25" stroke-linecap="round" stroke-linejoin="round"/>
<path d="M 4.0 10.0 L 4.38 9.96 L 4.75 9.92 L 5.12 9.88 L 5.5 9.83 L 5.88 9.79 L 6.25 9.75 L 6.62 9.71 L 7.0 9.67 L 7.38 9.62 L 7.75 9.58 L 8.12 9.54 L 8.5 9.5 L 8.88 9.46 L 9.25 9.42 L 9.62 9.38 L 10.0 9.33 L 10.38 9.29 L 10.75 9.25 L 11.12 9.21 L 11.5 9.17 L 11.88 9.12 L 12.25 9.08 L 12.63 9.04 L 13.0 9.0" fill="none" stroke="#111" stroke-width="1.25" stroke-linecap="round" stroke-linejoin="round"/>
<path d="M 4.0 15.0 L 4.33 14.92 L 4.67 14.83 L 5.0 14.75 L 5.33 14.67 L 5.67 14.58 L 6.0 14.5 L 6.33 14.42 L 6.67 14.33 L 7.0 14.25 L 7.33 14.17 L 7.67 14.08 L 8.0 14.0 L 8.33 13.92 L 8.67 13.83 L 9.0 13.75 L 9.33 13.67 L 9.67 13.58 L 10.0 13.5 L 10.33 13.42 L 10.67 13.33 L 11.0 13.25 L 11.33 13.17 L 11.67 13.08 L 12.0 13.0" fill="none" stroke="#111" stroke-width="1.25" stroke-linecap="round" stroke-linejoin="round"/>
<path d="M 6.0 5.0 L 6.16 5.61 L 6.31 6.22 L 6.45 6.83 L 6.58 7.45 L 6.69 8.07 L 6.8 8.69 L 6.9 9.31 L 6.99 9.93 L 7.07 10.56 L 7.13 11.18 L 7.19 11.81 L 7.24 12.43 L 7.28 13.06 L 7.3 13.69 L 7.32 14.32 L 7.32 14.95 L 7.32 15.58 L 7.3 16.21 L 7.28 16.84 L 7.24 17.46 L 7.2 18.09 L 7.14 18.72 L 7.07 19.34 L 7.0 19.97" fill="none" stroke="#111" stroke-width="1.25" stroke-linecap="round" stroke-linejoin="round"/>
<path d="M 11.0 5.0 L 10.84 5.44 L 10.7 5.88 L 10.57 6.33 L 10.45 6.78 L 10.34 7.23 L 10.25 7.69 L 10.18 8.15 L 10.11 8.61 L 10.07 9.07 L 10.03 9.54 L 10.01 10.0 L 10.0 10.47 L 10.01 10.94 L 10.03 11.4 L 10.07 11.87 L 10.11 12.33 L 10.18 12.79 L 10.25 13.25 L 10.34 13.71 L 10.45 14.16 L 10.57 14.61 L 10.7 15.06 L 10.84 15.5 L 11.0 15.94" fill="none" stroke="#111" stroke-width="1.25" stroke-linecap="round" stroke-linejoin="round"/>
</svg>
