<?xml version="1.0" encoding="UTF-8"?>
<svg xmlns="http://www.w3.org/2000/svg" viewBox="0 0 18.07 35.00">
<path d="M 5.07 14.0 L 5.41 14.0 L 5.74 14.0 L 6.07 14.0 L 6.41 14.0 L 6.74 14.0 L 7.07 14.0 L 7.41 14.0 L 7.74 14.0 L 8.07 14.0 L 8.41 14.0 L 8.74 14.0 L 9.07 14.0 L 9.41 14.0 L 9.74 14.0 L 10.07 14.0 L 10.41 14.0 L 10.74 14.0 L 11.07 14.0 L 11.41 14.0 L 11.74 14.0 L 12.07 14.0 L 12.41 14.0 L 12.74 14.0 L 13.07 14.0" fill="none" stroke="#111" stroke-width="1.23" stroke-linecap="round" stroke-linejoin="round"/>
<path d="M 5.07 14.0 L 4.96 14.28 L 4.86 14.55 L 4.76 14.83 L 4.67 15.12 L 4.59 15.4 L 4.51 15.69 L 4.43 15.97 L 4.36 16.26 L 4.3 16.55 L 4.24 16.84 L 4.19 17.14 L 4.15 17.43 L 4.11 17.72 L 4.07 18.02 L 4.05 18.31 L 4.03 18.61 L 4.01 18.91 L 4.0 19.2 L 4.0 19.5 L 4.0 19.8 L 4.01 20.09 L 4.03 20.39 L 4.05 20.69 L 4.08 20.98 L 4.07 21.0 L 4.41 21.0 L 4.74 21.0 L 5.07 21.0 L 5.41 21.0 L 5.74 21.0 L 6.07 21.0 L 6.41 21.0 L 6.74 21.0 L 7.07 21.0 L 7.41 21.0 L 7.74 21.0 L 8.07 21.0 L 8.41 21.0 L 8.74 21.0 L 9.07 21.0 L 9.41 21.0 L 9.74 21.0 L 10.07 21.0 L 10.41 21.0 L 10.74 21.0 L 11.07 21.0 L 11.41 21.0 L 11.74 21.0 L 12.07 21.0" fill="none" stroke="#111" stroke-width="1.23" stroke-linecap="round" stroke-linejoin="round"/>
<path d="M 4.07 18.0 L 4.45 18.0 L 4.82 18.0 L 5.2 18.0 L 5.57 18.0 L 5.95 18.0 L 6.32 18.0 L 6.7 18.0 L 7.07 18.0 L 7.45 18.0 L 7.82 18.0 L 8.2 18.0 L 8.57 18.0 L 8.95 18.0 L 9.32 18.0 L 9.7 18.0 L 10.07 18.0 L 10.45 18.0 L 10.82 18.0 L 11.2 18.0 L 11.57 18.0 L 11.95 18.0 L 12.32 18.0 L 12.7 18.0 L 13.07 18.0" fill="none" stroke="#111" stroke-width="1.23" stroke-linecap="round" stroke-linejoin="round"/>
<path d="M 9.07 14.0 L 9.07 14.29 L 9.07 14.58 L 9.07 14.88 L 9.07 15.17 L 9.07 15.46 L 9.07 15.75 L 9.07 16.04 L 9.07 16.33 L 9.07 16.62 L 9.07 16.92 L 9.07 17.21 L 9.07 17.5 L 9.07 17.79 L 9.07 18.08 L 9.07 18.38 L 9.07 18.67 L 9.07 18.96 L 9.07 19.25 L 9.07 19.54 L 9.07 19.83 L 9.07 20.12 L 9.07 20.42 L 9.07 20.71 L 9.07 21.0" fill="none" stroke="#111" stroke-width="1.23" stroke-linecap="round" stroke-linejoin="round"/>
<path d="M 13.07 14.0 L 13.26 14.31 L 13.42 14.62 L 13.57 14.95 L 13.7 15.28 L 13.81 15.63 L 13.9 15.97 L 13.97 16.32 L 14.02 16.68 L 14.04 17.04 L 14.05 17.39 L 14.04 17.75 L 14.0 18.11 L 13.95 18.46 L 13.87 18.81 L 13.78 19.16 L 13.66 19.5 L 13.53 19.83 L 13.38 20.15 L 13.2 20.47 L 13.01 20.77 L 12.81 21.06 L 12.58 21.34 L 12.35 21.61 L 12.09 21.86" fill="none" stroke="#111" stroke-width="1.23" stroke-linecap="round" stroke-linejoin="round"/>
<path d="M 5.07 5.0 L 5.12 5.38 L 5.16 5.75 L 5.2 6.12 L 5.24 6.5 L 5.28 6.88 L 5.32 7.25 L 5.37 7.62 L 5.41 8.0 L 5.45 8.38 L 5.49 8.75 L 5.53 9.12 L 5.57 9.5 L 5.62 9.88 L 5.66 10.25 L 5.7 10.62 L 5.74 11.0 L 5.78 11.38 L 5.82 11.75 L 5.87 12.12 L 5.91 12.5 L 5.95 12.88 L 5.99 13.25 L 6.03 13.63 L 6.07 14.0" fill="none" stroke="#111" stroke-width="1.23" stroke-linecap="round" stroke-linejoin="round"/>
<path d="M 9.07 5.0 L 9.12 5.38 L 9.16 5.75 L 9.2 6.12 L 9.24 6.5 L 9.28 6.88 L 9.32 7.25 L 9.37 7.62 L 9.41 8.0 L 9.45 8.38 L 9.49 8.75 L 9.53 9.12 L 9.57 9.5 L 9.62 9.88 L 9.66 10.25 L 9.7 10.62 L 9.74 11.0 L 9.78 11.38 L 9.82 11.75 L 9.87 12.12 L 9.91 12.5 L 9.95 12.88 L 9.99 13.25 L 10.03 13.63 L 10.07 14.0" fill="none" stroke="#111" stroke-width="1.23" stroke-linecap="round" stroke-linejoin="round"/>
<path d="M 4.07 5.0 L 4.45 4.96 L 4.82 4.92 L 5.2 4.88 L 5.57 4.83 L 5.95 4.79 L 6.32 4.75 L 6.7 4.71 L 7.07 4.67 L 7.45 4.62 L 7.82 4.58 L 8.2 4.54 L 8.57 4.5 L 8.95 4.46 L 9.32 4.42 L 9.7 4.38 L 10.07 4.33 L 10.45 4.29 L 10.82 4.25 L 11.2 4.21 L 11.57 4.17 L 11.95 4.12 L 12.32 4.08 L 12.7 4.04 L 13.07 4.0" fill="none" stroke="#111" stroke-width="1.23" stroke-linecap="round" stroke-linejoin="round"/>
<path d="M 4.07 9.0 L 4.49 9.0 L 4.91 9.0 L 5.32 9.0 L 5.74 9.0 L 6.16 9.0 L 6.57 9.0 L 6.99 9.0 L 7.41 9.0 L 7.82 9.0 L 8.24 9.0 L 8.66 9.0 L 9.07 9.0 L 9.49 9.0 L 9.91 9.0 L 10.32 9.0 L 10.74 9.0 L 11.16 9.0 L 11.57 9.0 L 11.99 9.0 L 12.41 9.0 L 12.82 9.0 L 13.24 9.0 L 13.66 9.0 L 14.07 9.0" fill="none" stroke="#111" stroke-width="1.23" stroke-linecap="round" stroke-linejoin="round"/>
<path d="M 6.07 21.0 L 6.11 21.45 L 6.16 21.9 L 6.22 22.35 L 6.3 22.8 L 6.38 23.25 L 6.48 23.69 L 6.59 24.13 L 6.7 24.57 L 6.83 25.0 L 6.98 25.43 L 7.13 25.86 L 7.29 26.28 L 7.46 26.7 L 7.65 27.12 L 7.84 27.53 L 8.05 27.93 L 8.27 28.33 L 8.49 28.72 L 8.73 29.11 L 8.97 29.49 L 9.23 29.87 L 9.49 30.23 L 9.77 30.59 L 10.05 30.95" fill="none" stroke="#111" stroke-width="1.23" stroke-linecap="round" stroke-linejoin="round"/>
<path d="M 11.07 21.0 L 11.03 21.42 L 10.99 21.83 L 10.95 22.25 L 10.91 22.67 L 10.87 23.08 L 10.82 23.5 L 10.78 23.92 L 10.74 24.33 L 10.7 24.75 L 10.66 25.17 L 10.62 25.58 L 10.57 26.0 L 10.53 26.42 L 10.49 26.83 L 10.45 27.25 L 10.41 27.67 L 10.37 28.08 L 10.32 28.5 L 10.28 28.92 L 10.24 29.33 L 10.2 29.75 L 10.16 30.17 L 10.12 30.58 L 10.07 31.0" fill="none" stroke="#111" stroke-width="1.23" stroke-linecap="round" stroke-linejoin="round"/>
</svg>
