<?xml version="1.0" encoding="UTF-8"?>
<svg xmlns="http://www.w3.org/2000/svg" viewBox="0 0 20.00 39.00">
<path d="M 5.0 4.0 L 5.46 4.0 L 5.92 4.0 L 6.38 4.0 L 6.83 4.0 L 7.29 4.0 L 7.75 4.0 L 8.21 4.0 L 8.67 4.0 L 9.12 4.0 L 9.58 4.0 L 10.04 4.0 L 10.5 4.0 L 10.96 4.0 L 11.42 4.0 L 11.88 4.0 L 12.33 4.0 L 12.79 4.0 L 13.25 4.0 L 13.71 4.0 L 14.17 4.0 L 14.62 4.0 L 15.08 4.0 L 15.54 4.0 L 16.0 4.0" fill="none" stroke="#111" stroke-width="1.37" stroke-linecap="round" stroke-linejoin="round"/>
<path d="M 8.0 4.0 L 8.12 4.17 L 8.25 4.33 L 8.38 4.5 L 8.5 4.67 L 8.62 4.83 L 8.75 5.0 L 8.88 5.17 L 9.0 5.33 L 9.12 5.5 L 9.25 5.67 L 9.38 5.83 L 9.5 6.0 L 9.62 6.17 L 9.75 6.33 L 9.88 6.5 L 10.0 6.67 L 10.13 6.83 L 10.25 7.0 L 10.38 7.17 L 10.5 7.33 L 10.63 7.5 L 10.75 7.67 L 10.88 7.83 L 11.0 8.0 L 11.0 8.0 L 11.08 7.83 L 11.17 7.67 L 11.25 7.5 L 11.33 7.33 L 11.42 7.17 L 11.5 7.0 L 11.58 6.83 L 11.67 6.67 L 11.75 6.5 L 11.83 6.33 L 11.92 6.17 L 12.0 6.0 L 12.08 5.83 L 12.17 5.67 L 12.25 5.5 L 12.33 5.33 L 12.42 5.17 L 12.5 5.0 L 12.58 4.83 L 12.67 4.67 L 12.75 4.5 L 12.83 4.33 L 12.92 4.17 L 13.0 4.0" fill="none" stroke="#111" stroke-width="1.37" stroke-linecap="round" stroke-linejoin="round"/>
<path d="M 11.0 8.0 L 11.0 8.25 L 11.0 8.5 L 11.0 8.75 L 11.0 9.0 L 11.0 9.25 L 11.0 9.5 L 11.0 9.75 L 11.0 10.0 L 11.0 10.25 L 11.0 10.5 L 11.0 10.75 L 11.0 11.0 L 11.0 11.25 L 11.0 11.5 L 11.0 11.75 L 11.0 12.0 L 11.0 12.25 L 11.0 12.5 L 11.0 12.75 L 11.0 13.0 L 11.0 13.25 L 11.0 13.5 L 11.0 13.75 L 11.0 14.0" fill="none" stroke="#111" stroke-width="1.37" stroke-linecap="round" stroke-linejoin="round"/>
<path d="M 6.0 11.0 L 6.0 11.25 L 6.0 11.5 L 6.0 11.75 L 6.0 12.0 L 6.0 12.25 L 6.0 12.5 L 6.0 12.75 L 6.0 13.0 L 6.0 13.25 L 6.0 13.5 L 6.0 13.75 L 6.0 14.0 L 6.0 14.25 L 6.0 14.5 L 6.0 14.75 L 6.0 15.0 L 6.0 15.25 L 6.0 15.5 L 6.0 15.75 L 6.0 16.0 L 6.0 16.25 L 6.0 16.5 L 6.0 16.75 L 6.0 17.0 L 6.0 17.0 L 6.35 17.16 L 6.71 17.3 L 7.07 17.43 L 7.43 17.55 L 7.8 17.65 L 8.18 17.74 L 8.55 17.82 L 8.93 17.88 L 9.31 17.93 L 9.7 17.97 L 10.08 17.99 L 10.46 18.0 L 10.85 17.99 L 11.23 17.97 L 11.62 17.93 L 12.0 17.88 L 12.38 17.82 L 12.75 17.74 L 13.13 17.65 L 13.5 17.55 L 13.86 17.43 L 14.22 17.3 L 14.58 17.16 L 14.93 17.0 L 15.0 17.0 L 15.0 16.71 L 15.0 16.42 L 15.0 16.12 L 15.0 15.83 L 15.0 15.54 L 15.0 15.25 L 15.0 14.96 L 15.0 14.67 L 15.0 14.38 L 15.0 14.08 L 15.0 13.79 L 15.0 13.5 L 15.0 13.21 L 15.0 12.92 L 15.0 12.62 L 15.0 12.33 L 15.0 12.04 L 15.0 11.75 L 15.0 11.46 L 15.0 11.17 L 15.0 10.88 L 15.0 10.58 L 15.0 10.29 L 15.0 10.0" fill="none" stroke="#111" stroke-width="1.37" stroke-linecap="round" stroke-linejoin="round"/>
<path d="M 6.0 14.0 L 6.38 14.0 L 6.75 14.0 L 7.13 14.0 L 7.5 14.0 L 7.88 14.0 L 8.25 14.0 L 8.62 14.0 L 9.0 14.0 L 9.38 14.0 L 9.75 14.0 L 10.12 14.0 L 10.5 14.0 L 10.88 14.0 L 11.25 14.0 L 11.62 14.0 L 12.0 14.0 L 12.38 14.0 L 12.75 14.0 L 13.12 14.0 L 13.5 14.0 L 13.88 14.0 L 14.25 14.0 L 14.62 14.0 L 15.0 14.0" fill="none" stroke="#111" stroke-width="1.37" stroke-linecap="round" stroke-linejoin="round"/>
<path d="M 11.0 18.0 L 10.71 18.38 L 10.42 18.75 L 10.12 19.12 L 9.83 19.5 L 9.54 19.88 L 9.25 20.25 L 8.96 20.62 L 8.67 21.0 L 8.38 21.38 L 8.08 21.75 L 7.79 22.12 L 7.5 22.5 L 7.21 22.88 L 6.92 23.25 L 6.63 23.62 L 6.33 24.0 L 6.04 24.38 L 5.75 24.75 L 5.46 25.12 L 5.17 25.5 L 4.88 25.88 L 4.58 26.25 L 4.29 26.62 L 4.0 27.0" fill="none" stroke="#111" stroke-width="1.37" stroke-linecap="round" stroke-linejoin="round"/>
<path d="M 11.0 18.0 L 11.41 18.2 L 11.79 18.45 L 12.16 18.73 L 12.49 19.04 L 12.79 19.38 L 13.06 19.75 L 13.29 20.14 L 13.48 20.56 L 13.63 20.99 L 13.74 21.43 L 13.8 21.88 L 13.82 22.34 L 13.8 22.79 L 13.74 23.24 L 13.63 23.69 L 13.48 24.12 L 13.29 24.53 L 13.06 24.93 L 12.79 25.3 L 12.49 25.64 L 12.16 25.95 L 11.79 26.23 L 11.41 26.47 L 11.0 26.68 L 11.0 27.0 L 10.92 27.33 L 10.83 27.67 L 10.75 28.0 L 10.67 28.33 L 10.58 28.67 L 10.5 29.0 L 10.42 29.33 L 10.33 29.67 L 10.25 30.0 L 10.17 30.33 L 10.08 30.67 L 10.0 31.0 L 9.92 31.33 L 9.83 31.67 L 9.75 32.0 L 9.67 32.33 L 9.58 32.67 L 9.5 33.0 L 9.42 33.33 L 9.33 33.67 L 9.25 34.0 L 9.17 34.33 L 9.08 34.67 L 9.0 35.0" fill="none" stroke="#111" stroke-width="1.37" stroke-linecap="round" stroke-linejoin="round"/>
</svg>
