<?xml version="1.0" encoding="UTF-8"?>
<svg xmlns="http://www.w3.org/2000/svg" viewBox="0 0 23.42 32.90">
<path d="M 6.0 9.0 L 6.0 9.17 L 6.0 9.33 L 6.0 9.5 L 6.0 9.67 L 6.0 9.83 L 6.0 10.0 L 6.0 10.17 L 6.0 10.33 L 6.0 10.5 L 6.0 10.67 L 6.0 10.83 L 6.0 11.0 L 6.0 11.17 L 6.0 11.33 L 6.0 11.5 L 6.0 11.67 L 6.0 11.83 L 6.0 12.0 L 6.0 12.17 L 6.0 12.33 L 6.0 12.5 L 6.0 12.67 L 6.0 12.83 L 6.0 13.0 L 6.0 13.0 L 6.12 13.04 L 6.25 13.08 L 6.38 13.12 L 6.5 13.17 L 6.62 13.21 L 6.75 13.25 L 6.88 13.29 L 7.0 13.33 L 7.12 13.38 L 7.25 13.42 L 7.38 13.46 L 7.5 13.5 L 7.62 13.54 L 7.75 13.58 L 7.88 13.62 L 8.0 13.67 L 8.12 13.71 L 8.25 13.75 L 8.38 13.79 L 8.5 13.83 L 8.62 13.88 L 8.75 13.92 L 8.88 13.96 L 9.0 14.0 L 9.0 14.0 L 9.08 13.79 L 9.17 13.58 L 9.25 13.38 L 9.33 13.17 L 9.42 12.96 L 9.5 12.75 L 9.58 12.54 L 9.67 12.33 L 9.75 12.12 L 9.83 11.92 L 9.92 11.71 L 10.0 11.5 L 10.08 11.29 L 10.17 11.08 L 10.25 10.88 L 10.33 10.67 L 10.42 10.46 L 10.5 10.25 L 10.58 10.04 L 10.67 9.83 L 10.75 9.62 L 10.83 9.42 L 10.92 9.21 L 11.0 9.0" fill="none" stroke="#111" stroke-width="1.15" stroke-linecap="round" stroke-linejoin="round"/>
<path d="M 6.0 10.0 L 6.17 10.0 L 6.33 10.0 L 6.5 10.0 L 6.67 10.0 L 6.83 10.0 L 7.0 10.0 L 7.17 10.0 L 7.33 10.0 L 7.5 10.0 L 7.67 10.0 L 7.83 10.0 L 8.0 10.0 L 8.17 10.0 L 8.33 10.0 L 8.5 10.0 L 8.67 10.0 L 8.83 10.0 L 9.0 10.0 L 9.17 10.0 L 9.33 10.0 L 9.5 10.0 L 9.67 10.0 L 9.83 10.0 L 10.0 10.0" fill="none" stroke="#111" stroke-width="1.15" stroke-linecap="round" stroke-linejoin="round"/>
<path d="M 7.0 4.0 L 7.04 4.21 L 7.08 4.42 L 7.12 4.62 L 7.17 4.83 L 7.21 5.04 L 7.25 5.25 L 7.29 5.46 L 7.33 5.67 L 7.38 5.88 L 7.42 6.08 L 7.46 6.29 L 7.5 6.5 L 7.54 6.71 L 7.58 6.92 L 7.62 7.12 L 7.67 7.33 L 7.71 7.54 L 7.75 7.75 L 7.79 7.96 L 7.83 8.17 L 7.88 8.38 L 7.92 8.58 L 7.96 8.79 L 8.0 9.0" fill="none" stroke="#111" stroke-width="1.15" stroke-linecap="round" stroke-linejoin="round"/>
<path d="M 10.0 4.0 L 9.92 4.12 L 9.83 4.25 L 9.75 4.38 L 9.67 4.5 L 9.58 4.62 L 9.5 4.75 L 9.42 4.88 L 9.33 5.0 L 9.25 5.12 L 9.17 5.25 L 9.08 5.38 L 9.0 5.5 L 8.92 5.62 L 8.83 5.75 L 8.75 5.88 L 8.67 6.0 L 8.58 6.12 L 8.5 6.25 L 8.42 6.38 L 8.33 6.5 L 8.25 6.62 L 8.17 6.75 L 8.08 6.88 L 8.0 7.0" fill="none" stroke="#111" stroke-width="1.15" stroke-linecap="round" stroke-linejoin="round"/>
<path d="M 13.0 9.0 L 12.86 9.57 L 12.83 10.16 L 12.9 10.74 L 13.08 11.3 L 13.35 11.82 L 13.7 12.29 L 14.14 12.68 L 14.64 13.0 L 15.18 13.21 L 15.76 13.33 L 16.35 13.34 L 16.93 13.25 L 17.48 13.06 L 18.0 12.77 L 18.45 12.4 L 18.83 11.95 L 19.12 11.44 L 19.32 10.89 L 19.42 10.31 L 19.41 9.72 L 19.3 9.14 L 19.09 8.59 L 18.78 8.09 L 18.39 7.65" fill="none" stroke="#111" stroke-width="1.15" stroke-linecap="round" stroke-linejoin="round"/>
<path d="M 13.0 10.0 L 13.17 10.04 L 13.33 10.08 L 13.5 10.12 L 13.67 10.17 L 13.83 10.21 L 14.0 10.25 L 14.17 10.29 L 14.33 10.33 L 14.5 10.38 L 14.67 10.42 L 14.83 10.46 L 15.0 10.5 L 15.17 10.54 L 15.33 10.58 L 15.5 10.62 L 15.67 10.67 L 15.83 10.71 L 16.0 10.75 L 16.17 10.79 L 16.33 10.83 L 16.5 10.88 L 16.67 10.92 L 16.83 10.96 L 17.0 11.0" fill="none" stroke="#111" stroke-width="1.15" stroke-linecap="round" stroke-linejoin="round"/>
<path d="M 13.0 5.0 L 13.08 5.21 L 13.17 5.42 L 13.25 5.62 L 13.33 5.83 L 13.42 6.04 L 13.5 6.25 L 13.58 6.46 L 13.67 6.67 L 13.75 6.88 L 13.83 7.08 L 13.92 7.29 L 14.0 7.5 L 14.08 7.71 L 14.17 7.92 L 14.25 8.12 L 14.33 8.33 L 14.42 8.54 L 14.5 8.75 L 14.58 8.96 L 14.67 9.17 L 14.75 9.38 L 14.83 9.58 L 14.92 9.79 L 15.0 10.0" fill="none" stroke="#111" stroke-width="1.15" stroke-linecap="round" stroke-linejoin="round"/>
<path d="M 14.0 7.0 L 14.12 6.88 L 14.25 6.75 L 14.38 6.62 L 14.5 6.5 L 14.62 6.38 L 14.75 6.25 L 14.88 6.12 L 15.0 6.0 L 15.12 5.88 L 15.25 5.75 L 15.38 5.62 L 15.5 5.5 L 15.62 5.38 L 15.75 5.25 L 15.88 5.12 L 16.0 5.0 L 16.12 4.88 L 16.25 4.75 L 16.38 4.62 L 16.5 4.5 L 16.62 4.38 L 16.75 4.25 L 16.88 4.12 L 17.0 4.0" fill="none" stroke="#111" stroke-width="1.15" stroke-linecap="round" stroke-linejoin="round"/>
<path d="M 8.0 14.0 L 7.8 14.61 L 7.62 15.22 L 7.46 15.84 L 7.33 16.46 L 7.21 17.09 L 7.11 17.73 L 7.04 18.36 L 6.99 19.0 L 6.95 19.64 L 6.94 20.27 L 6.95 20.91 L 6.99 21.55 L 7.04 22.19 L 7.11 22.82 L 7.21 23.46 L 7.33 24.09 L 7.46 24.71 L 7.62 25.33 L 7.8 25.94 L 8.0 26.55 L 8.22 27.15 L 8.46 27.74 L 8.72 28.33 L 8.99 28.9" fill="none" stroke="#111" stroke-width="1.15" stroke-linecap="round" stroke-linejoin="round"/>
<path d="M 4.0 17.0 L 4.21 17.21 L 4.42 17.42 L 4.62 17.62 L 4.83 17.83 L 5.04 18.04 L 5.25 18.25 L 5.46 18.46 L 5.67 18.67 L 5.88 18.88 L 6.08 19.08 L 6.29 19.29 L 6.5 19.5 L 6.71 19.71 L 6.92 19.92 L 7.12 20.12 L 7.33 20.33 L 7.54 20.54 L 7.75 20.75 L 7.96 20.96 L 8.17 21.17 L 8.38 21.38 L 8.58 21.58 L 8.79 21.79 L 9.0 22.0" fill="none" stroke="#111" stroke-width="1.15" stroke-linecap="round" stroke-linejoin="round"/>
<path d="M 15.0 13.0 L 14.81 13.61 L 14.64 14.22 L 14.49 14.84 L 14.36 15.47 L 14.25 16.1 L 14.16 16.73 L 14.09 17.36 L 14.04 18.0 L 14.01 18.64 L 14.0 19.28 L 14.01 19.91 L 14.05 20.55 L 14.1 21.19 L 14.17 21.82 L 14.27 22.45 L 14.38 23.08 L 14.51 23.71 L 14.67 24.32 L 14.84 24.94 L 15.03 25.55 L 15.24 26.15 L 15.47 26.74 L 15.73 27.33 L 15.99 27.91" fill="none" stroke="#111" stroke-width="1.15" stroke-linecap="round" stroke-linejoin="round"/>
<path d="M 11.0 17.0 L 11.29 17.12 L 11.58 17.25 L 11.88 17.38 L 12.17 17.5 L 12.46 17.62 L 12.75 17.75 L 13.04 17.88 L 13.33 18.0 L 13.62 18.12 L 13.92 18.25 L 14.21 18.38 L 14.5 18.5 L 14.79 18.62 L 15.08 18.75 L 15.38 18.88 L 15.67 19.0 L 15.96 19.12 L 16.25 19.25 L 16.54 19.38 L 16.83 19.5 L 17.12 19.62 L 17.42 19.75 L 17.71 19.88 L 18.0 20.0" fill="none" stroke="#111" stroke-width="1.15" stroke-linecap="round" stroke-linejoin="round"/>
</svg>
