<?xml version="1.0" encoding="UTF-8"?>
<svg xmlns="http://www.w3.org/2000/svg" viewBox="0 0 22.00 34.49">
<path d="M 4.0 4.0 L 4.0 4.58 L 4.0 5.17 L 4.0 5.75 L 4.0 6.33 L 4.0 6.92 L 4.0 7.5 L 4.0 8.08 L 4.0 8.67 L 4.0 9.25 L 4.0 9.83 L 4.0 10.42 L 4.0 11.0 L 4.0 11.58 L 4.0 12.17 L 4.0 12.75 L 4.0 13.33 L 4.0 13.92 L 4.0 14.5 L 4.0 15.08 L 4.0 15.67 L 4.0 16.25 L 4.0 16.83 L 4.0 17.42 L 4.0 18.0" fill="none" stroke="#111" stroke-width="1.21" stroke-linecap="round" stroke-linejoin="round"/>
<path d="M 4.0 4.0 L 4.58 4.0 L 5.17 4.0 L 5.75 4.0 L 6.33 4.0 L 6.92 4.0 L 7.5 4.0 L 8.08 4.0 L 8.67 4.0 L 9.25 4.0 L 9.83 4.0 L 10.42 4.0 L 11.0 4.0 L 11.58 4.0 L 12.17 4.0 L 12.75 4.0 L 13.33 4.0 L 13.92 4.0 L 14.5 4.0 L 15.08 4.0 L 15.67 4.0 L 16.25 4.0 L 16.83 4.0 L 17.42 4.0 L 18.0 4.0 L 18.0 4.0 L 18.0 4.62 L 18.0 5.25 L 18.0 5.88 L 18.0 6.5 L 18.0 7.12 L 18.0 7.75 L 18.0 8.38 L 18.0 9.0 L 18.0 9.62 L 18.0 10.25 L 18.0 10.88 L 18.0 11.5 L 18.0 12.12 L 18.0 12.75 L 18.0 13.38 L 18.0 14.0 L 18.0 14.62 L 18.0 15.25 L 18.0 15.88 L 18.0 16.5 L 18.0 17.12 L 18.0 17.75 L 18.0 18.38 L 18.0 19.0" fill="none" stroke="#111" stroke-width="1.21" stroke-linecap="round" stroke-linejoin="round"/>
<path d="M 10.0 4.0 L 9.75 4.42 L 9.5 4.83 L 9.25 5.25 L 9.0 5.67 L 8.75 6.08 L 8.5 6.5 L 8.25 6.92 L 8.0 7.33 L 7.75 7.75 L 7.5 8.17 L 7.25 8.58 L 7.0 9.0 L 6.75 9.42 L 6.5 9.83 L 6.25 10.25 L 6.0 10.67 L 5.75 11.08 L 5.5 11.5 L 5.25 11.92 L 5.0 12.33 L 4.75 12.75 L 4.5 13.17 L 4.25 13.58 L 4.0 14.0" fill="none" stroke="#111" stroke-width="1.21" stroke-linecap="round" stroke-linejoin="round"/>
<path d="M 10.0 4.0 L 10.33 4.38 L 10.67 4.75 L 11.0 5.12 L 11.33 5.5 L 11.67 5.88 L 12.0 6.25 L 12.33 6.62 L 12.67 7.0 L 13.0 7.38 L 13.33 7.75 L 13.67 8.12 L 14.0 8.5 L 14.33 8.88 L 14.67 9.25 L 15.0 9.62 L 15.33 10.0 L 15.67 10.38 L 16.0 10.75 L 16.33 11.12 L 16.67 11.5 L 17.0 11.88 L 17.33 12.25 L 17.67 12.62 L 18.0 13.0" fill="none" stroke="#111" stroke-width="1.21" stroke-linecap="round" stroke-linejoin="round"/>
<path d="M 6.0 20.0 L 6.0 20.38 L 6.0 20.75 L 6.0 21.12 L 6.0 21.5 L 6.0 21.88 L 6.0 22.25 L 6.0 22.62 L 6.0 23.0 L 6.0 23.38 L 6.0 23.75 L 6.0 24.12 L 6.0 24.5 L 6.0 24.88 L 6.0 25.25 L 6.0 25.62 L 6.0 26.0 L 6.0 26.38 L 6.0 26.75 L 6.0 27.12 L 6.0 27.5 L 6.0 27.88 L 6.0 28.25 L 6.0 28.62 L 6.0 29.0 L 6.0 29.0 L 6.67 29.49 L 7.39 29.89 L 8.16 30.19 L 8.96 30.39 L 9.78 30.49 L 10.61 30.49 L 11.43 30.38 L 12.23 30.16 L 12.99 29.85 L 13.71 29.44 L 14.37 28.94 L 14.96 28.36 L 15.47 27.71 L 15.9 27.0 L 16.23 26.25 L 16.46 25.45 L 16.59 24.64 L 16.62 23.81 L 16.54 22.99 L 16.35 22.18 L 16.07 21.41 L 15.68 20.67 L 15.21 19.99 L 14.66 19.38" fill="none" stroke="#111" stroke-width="1.21" stroke-linecap="round" stroke-linejoin="round"/>
<path d="M 6.0 23.0 L 6.38 23.0 L 6.75 23.0 L 7.12 23.0 L 7.5 23.0 L 7.88 23.0 L 8.25 23.0 L 8.62 23.0 L 9.0 23.0 L 9.38 23.0 L 9.75 23.0 L 10.12 23.0 L 10.5 23.0 L 10.88 23.0 L 11.25 23.0 L 11.62 23.0 L 12.0 23.0 L 12.38 23.0 L 12.75 23.0 L 13.12 23.0 L 13.5 23.0 L 13.88 23.0 L 14.25 23.0 L 14.62 23.0 L 15.0 23.0" fill="none" stroke="#111" stroke-width="1.21" stroke-linecap="round" stroke-linejoin="round"/>
</svg>
