<?xml version="1.0" encoding="UTF-8"?>
<svg xmlns="http://www.w3.org/2000/svg" viewBox="0 0 27.00 29.00">
<path d="M 5.0 4.0 L 5.12 4.25 L 5.25 4.5 L 5.38 4.75 L 5.5 5.0 L 5.62 5.25 L 5.75 5.5 L 5.88 5.75 L 6.0 6.0 L 6.12 6.25 L 6.25 6.5 L 6.38 6.75 L 6.5 7.0 L 6.62 7.25 L 6.75 7.5 L 6.88 7.75 L 7.0 8.0 L 7.13 8.25 L 7.25 8.5 L 7.38 8.75 L 7.5 9.0 L 7.62 9.25 L 7.75 9.5 L 7.88 9.75 L 8.0 10.0 L 8.0 10.0 L 7.66 10.62 L 7.37 11.27 L 7.13 11.94 L 6.94 12.62 L 6.8 13.31 L 6.71 14.02 L 6.67 14.72 L 6.68 15.43 L 6.74 16.14 L 6.85 16.84 L 7.02 17.53 L 7.23 18.2 L 7.49 18.86 L 7.8 19.5 L 8.16 20.11 L 8.56 20.7 L 9.0 21.25 L 9.48 21.78 L 9.99 22.26 L 10.54 22.71 L 11.12 23.11 L 11.73 23.48 L 12.37 23.79 L 13.02 24.06 L 13.0 24.0 L 12.96 23.83 L 12.92 23.67 L 12.88 23.5 L 12.83 23.33 L 12.79 23.17 L 12.75 23.0 L 12.71 22.83 L 12.67 22.67 L 12.62 22.5 L 12.58 22.33 L 12.54 22.17 L 12.5 22.0 L 12.46 21.83 L 12.42 21.67 L 12.38 21.5 L 12.33 21.33 L 12.29 21.17 L 12.25 21.0 L 12.21 20.83 L 12.17 20.67 L 12.12 20.5 L 12.08 20.33 L 12.04 20.17 L 12.0 20.0" fill="none" stroke="#111" stroke-width="1.02" stroke-linecap="round" stroke-linejoin="round"/>
<path d="M 9.0 6.0 L 9.0 6.08 L 9.0 6.17 L 9.0 6.25 L 9.0 6.33 L 9.0 6.42 L 9.0 6.5 L 9.0 6.58 L 9.0 6.67 L 9.0 6.75 L 9.0 6.83 L 9.0 6.92 L 9.0 7.0 L 9.0 7.08 L 9.0 7.17 L 9.0 7.25 L 9.0 7.33 L 9.0 7.42 L 9.0 7.5 L 9.0 7.58 L 9.0 7.67 L 9.0 7.75 L 9.0 7.83 L 9.0 7.92 L 9.0 8.0" fill="none" stroke="#111" stroke-width="1.02" stroke-linecap="round" stroke-linejoin="round"/>
<path d="M 10.0 13.0 L 10.0 13.08 L 10.0 13.17 L 10.0 13.25 L 10.0 13.33 L 10.0 13.42 L 10.0 13.5 L 10.0 13.58 L 10.0 13.67 L 10.0 13.75 L 10.0 13.83 L 10.0 13.92 L 10.0 14.0 L 10.0 14.08 L 10.0 14.17 L 10.0 14.25 L 10.0 14.33 L 10.0 14.42 L 10.0 14.5 L 10.0 14.58 L 10.0 14.67 L 10.0 14.75 L 10.0 14.83 L 10.0 14.92 L 10.0 15.0" fill="none" stroke="#111" stroke-width="1.02" stroke-linecap="round" stroke-linejoin="round"/>
<path d="M 4.0 12.0 L 4.0 12.08 L 4.0 12.17 L 4.0 12.25 L 4.0 12.33 L 4.0 12.42 L 4.0 12.5 L 4.0 12.58 L 4.0 12.67 L 4.0 12.75 L 4.0 12.83 L 4.0 12.92 L 4.0 13.0 L 4.0 13.08 L 4.0 13.17 L 4.0 13.25 L 4.0 13.33 L 4.0 13.42 L 4.0 13.5 L 4.0 13.58 L 4.0 13.67 L 4.0 13.75 L 4.0 13.83 L 4.0 13.92 L 4.0 14.0" fill="none" stroke="#111" stroke-width="1.02" stroke-linecap="round" stroke-linejoin="round"/>
<path d="M 4.0 17.0 L 4.04 17.08 L 4.08 17.17 L 4.12 17.25 L 4.17 17.33 L 4.21 17.42 L 4.25 17.5 L 4.29 17.58 L 4.33 17.67 L 4.38 17.75 L 4.42 17.83 L 4.46 17.92 L 4.5 18.0 L 4.54 18.08 L 4.58 18.17 L 4.62 18.25 L 4.67 18.33 L 4.71 18.42 L 4.75 18.5 L 4.79 18.58 L 4.83 18.67 L 4.88 18.75 L 4.92 18.83 L 4.96 18.92 L 5.0 19.0" fill="none" stroke="#111" stroke-width="1.02" stroke-linecap="round" stroke-linejoin="round"/>
<path d="M 5.0 22.0 L 5.08 22.12 L 5.17 22.25 L 5.25 22.38 L 5.33 22.5 L 5.42 22.62 L 5.5 22.75 L 5.58 22.88 L 5.67 23.0 L 5.75 23.12 L 5.83 23.25 L 5.92 23.38 L 6.0 23.5 L 6.08 23.62 L 6.17 23.75 L 6.25 23.88 L 6.33 24.0 L 6.42 24.12 L 6.5 24.25 L 6.58 24.38 L 6.67 24.5 L 6.75 24.62 L 6.83 24.75 L 6.92 24.88 L 7.0 25.0" fill="none" stroke="#111" stroke-width="1.02" stroke-linecap="round" stroke-linejoin="round"/>
<path d="M 13.0 6.0 L 13.42 6.0 L 13.83 6.0 L 14.25 6.0 L 14.67 6.0 L 15.08 6.0 L 15.5 6.0 L 15.92 6.0 L 16.33 6.0 L 16.75 6.0 L 17.17 6.0 L 17.58 6.0 L 18.0 6.0 L 18.42 6.0 L 18.83 6.0 L 19.25 6.0 L 19.67 6.0 L 20.08 6.0 L 20.5 6.0 L 20.92 6.0 L 21.33 6.0 L 21.75 6.0 L 22.17 6.0 L 22.58 6.0 L 23.0 6.0" fill="none" stroke="#111" stroke-width="1.02" stroke-linecap="round" stroke-linejoin="round"/>
<path d="M 13.0 11.0 L 13.38 11.0 L 13.75 11.0 L 14.12 11.0 L 14.5 11.0 L 14.88 11.0 L 15.25 11.0 L 15.62 11.0 L 16.0 11.0 L 16.38 11.0 L 16.75 11.0 L 17.12 11.0 L 17.5 11.0 L 17.88 11.0 L 18.25 11.0 L 18.62 11.0 L 19.0 11.0 L 19.38 11.0 L 19.75 11.0 L 20.12 11.0 L 20.5 11.0 L 20.88 11.0 L 21.25 11.0 L 21.62 11.0 L 22.0 11.0 L 22.0 11.0 L 22.08 12.26 L 21.97 13.51 L 21.7 14.74 L 21.25 15.91 L 20.64 17.01 L 19.88 18.02 L 18.98 18.9 L 17.97 19.65 L 16.87 20.25 L 15.69 20.69 L 14.46 20.95 L 13.2 21.04 L 11.94 20.95 L 10.71 20.69 L 9.53 20.25 L 8.43 19.65 L 7.42 18.9 L 6.52 18.02 L 5.76 17.01 L 5.15 15.91 L 4.7 14.74 L 4.43 13.51 L 4.32 12.26 L 4.4 11.0" fill="none" stroke="#111" stroke-width="1.02" stroke-linecap="round" stroke-linejoin="round"/>
<path d="M 15.0 5.0 L 15.08 5.38 L 15.17 5.75 L 15.25 6.12 L 15.33 6.5 L 15.42 6.88 L 15.5 7.25 L 15.58 7.62 L 15.67 8.0 L 15.75 8.38 L 15.83 8.75 L 15.92 9.12 L 16.0 9.5 L 16.08 9.88 L 16.17 10.25 L 16.25 10.62 L 16.33 11.0 L 16.42 11.38 L 16.5 11.75 L 16.58 12.12 L 16.67 12.5 L 16.75 12.88 L 16.83 13.25 L 16.92 13.62 L 17.0 14.0" fill="none" stroke="#111" stroke-width="1.02" stroke-linecap="round" stroke-linejoin="round"/>
<path d="M 20.0 5.0 L 19.92 5.42 L 19.83 5.83 L 19.75 6.25 L 19.67 6.67 L 19.58 7.08 L 19.5 7.5 L 19.42 7.92 L 19.33 8.33 L 19.25 8.75 L 19.17 9.17 L 19.08 9.58 L 19.0 10.0 L 18.92 10.42 L 18.83 10.83 L 18.75 11.25 L 18.67 11.67 L 18.58 12.08 L 18.5 12.5 L 18.42 12.92 L 18.33 13.33 L 18.25 13.75 L 18.17 14.17 L 18.08 14.58 L 18.0 15.0" fill="none" stroke="#111" stroke-width="1.02" stroke-linecap="round" stroke-linejoin="round"/>
<path d="M 14.0 16.0 L 14.29 15.96 L 14.58 15.92 L 14.88 15.88 L 15.17 15.83 L 15.46 15.79 L 15.75 15.75 L 16.04 15.71 L 16.33 15.67 L 16.62 15.62 L 16.92 15.58 L 17.21 15.54 L 17.5 15.5 L 17.79 15.46 L 18.08 15.42 L 18.38 15.38 L 18.67 15.33 L 18.96 15.29 L 19.25 15.25 L 19.54 15.21 L 19.83 15.17 L 20.12 15.12 L 20.42 15.08 L 20.71 15.04 L 21.0 15.0" fill="none" stroke="#111" stroke-width="1.02" stroke-linecap="round" stroke-linejoin="round"/>
<path d="M 15.0 18.0 L 15.21 18.04 L 15.42 18.08 L 15.62 18.12 L 15.83 18.17 L 16.04 18.21 L 16.25 18.25 L 16.46 18.29 L 16.67 18.33 L 16.88 18.38 L 17.08 18.42 L 17.29 18.46 L 17.5 18.5 L 17.71 18.54 L 17.92 18.58 L 18.12 18.62 L 18.33 18.67 L 18.54 18.71 L 18.75 18.75 L 18.96 18.79 L 19.17 18.83 L 19.38 18.88 L 19.58 18.92 L 19.79 18.96 L 20.0 19.0" fill="none" stroke="#111" stroke-width="1.02" stroke-linecap="round" stroke-linejoin="round"/>
</svg>
