<?xml version="1.0" encoding="UTF-8"?>
<svg xmlns="http://www.w3.org/2000/svg" viewBox="0 0 21.00 37.25">
<path d="M 9.0 9.0 L 8.67 9.1 L 8.37 9.26 L 8.09 9.46 L 7.85 9.7 L 7.65 9.98 L 7.5 10.29 L 7.4 10.61 L 7.35 10.95 L 7.36 11.3 L 7.42 11.63 L 7.54 11.95 L 7.7 12.25 L 7.92 12.52 L 8.17 12.75 L 8.46 12.94 L 8.77 13.08 L 9.1 13.17 L 9.44 13.2 L 9.78 13.18 L 10.12 13.1 L 10.43 12.97 L 10.73 12.79 L 10.98 12.57 L 11.21 12.31 L 11.0 12.0 L 11.04 11.92 L 11.08 11.83 L 11.12 11.75 L 11.17 11.67 L 11.21 11.58 L 11.25 11.5 L 11.29 11.42 L 11.33 11.33 L 11.38 11.25 L 11.42 11.17 L 11.46 11.08 L 11.5 11.0 L 11.54 10.92 L 11.58 10.83 L 11.62 10.75 L 11.67 10.67 L 11.71 10.58 L 11.75 10.5 L 11.79 10.42 L 11.83 10.33 L 11.88 10.25 L 11.92 10.17 L 11.96 10.08 L 12.0 10.0 L 12.0 10.0 L 11.88 9.96 L 11.75 9.92 L 11.62 9.88 L 11.5 9.83 L 11.38 9.79 L 11.25 9.75 L 11.12 9.71 L 11.0 9.67 L 10.88 9.62 L 10.75 9.58 L 10.62 9.54 L 10.5 9.5 L 10.38 9.46 L 10.25 9.42 L 10.12 9.38 L 10.0 9.33 L 9.88 9.29 L 9.75 9.25 L 9.62 9.21 L 9.5 9.17 L 9.38 9.12 L 9.25 9.08 L 9.12 9.04 L 9.0 9.0" fill="none" stroke="#111" stroke-width="1.30" stroke-linecap="round" stroke-linejoin="round"/>
<path d="M 17.0 7.0 L 16.67 7.08 L 16.33 7.17 L 16.0 7.25 L 15.67 7.33 L 15.33 7.42 L 15.0 7.5 L 14.67 7.58 L 14.33 7.67 L 14.0 7.75 L 13.67 7.83 L 13.33 7.92 L 13.0 8.0 L 12.67 8.08 L 12.33 8.17 L 12.0 8.25 L 11.67 8.33 L 11.33 8.42 L 11.0 8.5 L 10.67 8.58 L 10.33 8.67 L 10.0 8.75 L 9.67 8.83 L 9.33 8.92 L 9.0 9.0 L 9.0 9.0 L 8.63 8.98 L 8.26 8.99 L 7.9 9.03 L 7.54 9.1 L 7.18 9.2 L 6.84 9.32 L 6.5 9.48 L 6.18 9.66 L 5.88 9.86 L 5.59 10.09 L 5.32 10.35 L 5.08 10.62 L 4.85 10.91 L 4.65 11.22 L 4.48 11.54 L 4.33 11.88 L 4.21 12.23 L 4.12 12.59 L 4.06 12.95 L 4.03 13.31 L 4.02 13.68 L 4.05 14.05 L 4.11 14.41 L 4.19 14.77 L 4.0 15.0 L 4.46 14.79 L 4.92 14.58 L 5.38 14.38 L 5.83 14.17 L 6.29 13.96 L 6.75 13.75 L 7.21 13.54 L 7.67 13.33 L 8.12 13.12 L 8.58 12.92 L 9.04 12.71 L 9.5 12.5 L 9.96 12.29 L 10.42 12.08 L 10.88 11.88 L 11.33 11.67 L 11.79 11.46 L 12.25 11.25 L 12.71 11.04 L 13.17 10.83 L 13.63 10.62 L 14.08 10.42 L 14.54 10.21 L 15.0 10.0" fill="none" stroke="#111" stroke-width="1.30" stroke-linecap="round" stroke-linejoin="round"/>
<path d="M 11.0 7.0 L 10.96 6.88 L 10.92 6.75 L 10.88 6.62 L 10.83 6.5 L 10.79 6.38 L 10.75 6.25 L 10.71 6.12 L 10.67 6.0 L 10.62 5.88 L 10.58 5.75 L 10.54 5.62 L 10.5 5.5 L 10.46 5.38 L 10.42 5.25 L 10.38 5.12 L 10.33 5.0 L 10.29 4.88 L 10.25 4.75 L 10.21 4.62 L 10.17 4.5 L 10.12 4.38 L 10.08 4.25 L 10.04 4.12 L 10.0 4.0 L 10.0 4.0 L 9.78 4.1 L 9.56 4.22 L 9.36 4.35 L 9.17 4.5 L 8.99 4.67 L 8.83 4.85 L 8.68 5.04 L 8.55 5.25 L 8.44 5.46 L 8.34 5.69 L 8.26 5.92 L 8.21 6.15 L 8.17 6.39 L 8.15 6.64 L 8.15 6.88 L 8.18 7.12 L 8.22 7.36 L 8.28 7.6 L 8.36 7.83 L 8.46 8.05 L 8.58 8.26 L 8.72 8.46 L 8.87 8.65 L 9.03 8.83" fill="none" stroke="#111" stroke-width="1.30" stroke-linecap="round" stroke-linejoin="round"/>
<path d="M 9.0 13.0 L 9.12 13.17 L 9.25 13.33 L 9.38 13.5 L 9.5 13.67 L 9.62 13.83 L 9.75 14.0 L 9.88 14.17 L 10.0 14.33 L 10.12 14.5 L 10.25 14.67 L 10.38 14.83 L 10.5 15.0 L 10.62 15.17 L 10.75 15.33 L 10.88 15.5 L 11.0 15.67 L 11.12 15.83 L 11.25 16.0 L 11.38 16.17 L 11.5 16.33 L 11.62 16.5 L 11.75 16.67 L 11.88 16.83 L 12.0 17.0 L 12.0 17.0 L 11.92 17.5 L 11.83 18.0 L 11.75 18.5 L 11.67 19.0 L 11.58 19.5 L 11.5 20.0 L 11.42 20.5 L 11.33 21.0 L 11.25 21.5 L 11.17 22.0 L 11.08 22.5 L 11.0 23.0 L 10.92 23.5 L 10.83 24.0 L 10.75 24.5 L 10.67 25.0 L 10.58 25.5 L 10.5 26.0 L 10.42 26.5 L 10.33 27.0 L 10.25 27.5 L 10.17 28.0 L 10.08 28.5 L 10.0 29.0 L 10.0 29.0 L 10.04 29.0 L 10.08 29.0 L 10.12 29.0 L 10.17 29.0 L 10.21 29.0 L 10.25 29.0 L 10.29 29.0 L 10.33 29.0 L 10.38 29.0 L 10.42 29.0 L 10.46 29.0 L 10.5 29.0 L 10.54 29.0 L 10.58 29.0 L 10.62 29.0 L 10.67 29.0 L 10.71 29.0 L 10.75 29.0 L 10.79 29.0 L 10.83 29.0 L 10.88 29.0 L 10.92 29.0 L 10.96 29.0 L 11.0 29.0" fill="none" stroke="#111" stroke-width="1.30" stroke-linecap="round" stroke-linejoin="round"/>
<path d="M 12.0 17.0 L 11.75 17.25 L 11.5 17.5 L 11.25 17.75 L 11.0 18.0 L 10.75 18.25 L 10.5 18.5 L 10.25 18.75 L 10.0 19.0 L 9.75 19.25 L 9.5 19.5 L 9.25 19.75 L 9.0 20.0 L 8.75 20.25 L 8.5 20.5 L 8.25 20.75 L 8.0 21.0 L 7.75 21.25 L 7.5 21.5 L 7.25 21.75 L 7.0 22.0 L 6.75 22.25 L 6.5 22.5 L 6.25 22.75 L 6.0 23.0" fill="none" stroke="#111" stroke-width="1.30" stroke-linecap="round" stroke-linejoin="round"/>
<path d="M 10.0 15.0 L 10.21 14.92 L 10.42 14.83 L 10.62 14.75 L 10.83 14.67 L 11.04 14.58 L 11.25 14.5 L 11.46 14.42 L 11.67 14.33 L 11.88 14.25 L 12.08 14.17 L 12.29 14.08 L 12.5 14.0 L 12.71 13.92 L 12.92 13.83 L 13.12 13.75 L 13.33 13.67 L 13.54 13.58 L 13.75 13.5 L 13.96 13.42 L 14.17 13.33 L 14.38 13.25 L 14.58 13.17 L 14.79 13.08 L 15.0 13.0 L 15.0 13.0 L 15.0 13.17 L 15.0 13.33 L 15.0 13.5 L 15.0 13.67 L 15.0 13.83 L 15.0 14.0 L 15.0 14.17 L 15.0 14.33 L 15.0 14.5 L 15.0 14.67 L 15.0 14.83 L 15.0 15.0 L 15.0 15.17 L 15.0 15.33 L 15.0 15.5 L 15.0 15.67 L 15.0 15.83 L 15.0 16.0 L 15.0 16.17 L 15.0 16.33 L 15.0 16.5 L 15.0 16.67 L 15.0 16.83 L 15.0 17.0" fill="none" stroke="#111" stroke-width="1.30" stroke-linecap="round" stroke-linejoin="round"/>
<path d="M 5.0 29.0 L 5.24 28.32 L 5.57 27.69 L 5.99 27.11 L 6.49 26.6 L 7.07 26.17 L 7.7 25.83 L 8.37 25.59 L 9.07 25.45 L 9.78 25.41 L 10.5 25.48 L 11.19 25.65 L 11.85 25.92 L 12.47 26.29 L 13.02 26.74 L 13.5 27.27 L 13.9 27.86 L 14.21 28.51 L 14.42 29.19 L 14.52 29.9 L 14.52 30.62 L 14.42 31.33 L 14.21 32.01 L 13.9 32.66 L 13.5 33.25 L 9.0 31.0 L 8.96 31.0 L 8.92 31.0 L 8.88 31.0 L 8.83 31.0 L 8.79 31.0 L 8.75 31.0 L 8.71 31.0 L 8.67 31.0 L 8.62 31.0 L 8.58 31.0 L 8.54 31.0 L 8.5 31.0 L 8.46 31.0 L 8.42 31.0 L 8.38 31.0 L 8.33 31.0 L 8.29 31.0 L 8.25 31.0 L 8.21 31.0 L 8.17 31.0 L 8.12 31.0 L 8.08 31.0 L 8.04 31.0 L 8.0 31.0" fill="none" stroke="#111" stroke-width="1.30" stroke-linecap="round" stroke-linejoin="round"/>
<path d="M 5.0 27.0 L 5.21 27.04 L 5.42 27.08 L 5.62 27.12 L 5.83 27.17 L 6.04 27.21 L 6.25 27.25 L 6.46 27.29 L 6.67 27.33 L 6.88 27.38 L 7.08 27.42 L 7.29 27.46 L 7.5 27.5 L 7.71 27.54 L 7.92 27.58 L 8.12 27.62 L 8.33 27.67 L 8.54 27.71 L 8.75 27.75 L 8.96 27.79 L 9.17 27.83 L 9.38 27.88 L 9.58 27.92 L 9.79 27.96 L 10.0 28.0" fill="none" stroke="#111" stroke-width="1.30" stroke-linecap="round" stroke-linejoin="round"/>
</svg>
