<?xml version="1.0" encoding="UTF-8"?>
<svg xmlns="http://www.w3.org/2000/svg" viewBox="0 0 22.97 38.00">
<path d="M 7.97 4.0 L 7.42 4.46 L 6.92 4.98 L 6.49 5.55 L 6.12 6.17 L 5.83 6.82 L 5.61 7.51 L 5.47 8.21 L 5.42 8.93 L 5.44 9.65 L 5.55 10.36 L 5.73 11.05 L 6.0 11.72 L 6.33 12.35 L 6.74 12.94 L 7.21 13.48 L 7.74 13.97 L 8.32 14.39 L 8.95 14.74 L 9.61 15.02 L 10.3 15.22 L 11.01 15.34 L 11.73 15.39 L 12.44 15.34 L 13.15 15.22 L 13.97 17.0 L 14.41 16.63 L 14.82 16.23 L 15.21 15.8 L 15.57 15.35 L 15.91 14.88 L 16.21 14.39 L 16.48 13.89 L 16.73 13.36 L 16.93 12.83 L 17.11 12.28 L 17.25 11.72 L 17.35 11.15 L 17.42 10.58 L 17.46 10.0 L 17.46 9.43 L 17.42 8.85 L 17.35 8.28 L 17.24 7.72 L 17.1 7.16 L 16.92 6.61 L 16.71 6.07 L 16.47 5.55 L 16.19 5.05 L 15.89 4.56" fill="none" stroke="#111" stroke-width="1.33" stroke-linecap="round" stroke-linejoin="round"/>
<path d="M 7.97 4.0 L 8.14 4.17 L 8.3 4.33 L 8.47 4.5 L 8.64 4.67 L 8.8 4.83 L 8.97 5.0 L 9.14 5.17 L 9.3 5.33 L 9.47 5.5 L 9.64 5.67 L 9.8 5.83 L 9.97 6.0 L 10.14 6.17 L 10.3 6.33 L 10.47 6.5 L 10.64 6.67 L 10.8 6.83 L 10.97 7.0 L 11.14 7.17 L 11.3 7.33 L 11.47 7.5 L 11.64 7.67 L 11.8 7.83 L 11.97 8.0 L 11.97 8.0 L 12.14 7.83 L 12.3 7.67 L 12.47 7.5 L 12.64 7.33 L 12.8 7.17 L 12.97 7.0 L 13.14 6.83 L 13.3 6.67 L 13.47 6.5 L 13.64 6.33 L 13.8 6.17 L 13.97 6.0 L 14.14 5.83 L 14.3 5.67 L 14.47 5.5 L 14.64 5.33 L 14.8 5.17 L 14.97 5.0 L 15.14 4.83 L 15.3 4.67 L 15.47 4.5 L 15.64 4.33 L 15.8 4.17 L 15.97 4.0" fill="none" stroke="#111" stroke-width="1.33" stroke-linecap="round" stroke-linejoin="round"/>
<path d="M 7.97 8.0 L 8.3 8.0 L 8.64 8.0 L 8.97 8.0 L 9.3 8.0 L 9.64 8.0 L 9.97 8.0 L 10.3 8.0 L 10.64 8.0 L 10.97 8.0 L 11.3 8.0 L 11.64 8.0 L 11.97 8.0 L 12.3 8.0 L 12.64 8.0 L 12.97 8.0 L 13.3 8.0 L 13.64 8.0 L 13.97 8.0 L 14.3 8.0 L 14.64 8.0 L 14.97 8.0 L 15.3 8.0 L 15.64 8.0 L 15.97 8.0" fill="none" stroke="#111" stroke-width="1.33" stroke-linecap="round" stroke-linejoin="round"/>
<path d="M 7.97 11.0 L 8.3 11.0 L 8.64 11.0 L 8.97 11.0 L 9.3 11.0 L 9.64 11.0 L 9.97 11.0 L 10.3 11.0 L 10.64 11.0 L 10.97 11.0 L 11.3 11.0 L 11.64 11.0 L 11.97 11.0 L 12.3 11.0 L 12.64 11.0 L 12.97 11.0 L 13.3 11.0 L 13.64 11.0 L 13.97 11.0 L 14.3 11.0 L 14.64 11.0 L 14.97 11.0 L 15.3 11.0 L 15.64 11.0 L 15.97 11.0" fill="none" stroke="#111" stroke-width="1.33" stroke-linecap="round" stroke-linejoin="round"/>
<path d="M 10.97 17.0 L 10.97 17.29 L 10.97 17.58 L 10.97 17.88 L 10.97 18.17 L 10.97 18.46 L 10.97 18.75 L 10.97 19.04 L 10.97 19.33 L 10.97 19.62 L 10.97 19.92 L 10.97 20.21 L 10.97 20.5 L 10.97 20.79 L 10.97 21.08 L 10.97 21.38 L 10.97 21.67 L 10.97 21.96 L 10.97 22.25 L 10.97 22.54 L 10.97 22.83 L 10.97 23.12 L 10.97 23.42 L 10.97 23.71 L 10.97 24.0" fill="none" stroke="#111" stroke-width="1.33" stroke-linecap="round" stroke-linejoin="round"/>
<path d="M 13.97 17.0 L 13.97 17.25 L 13.97 17.5 L 13.97 17.75 L 13.97 18.0 L 13.97 18.25 L 13.97 18.5 L 13.97 18.75 L 13.97 19.0 L 13.97 19.25 L 13.97 19.5 L 13.97 19.75 L 13.97 20.0 L 13.97 20.25 L 13.97 20.5 L 13.97 20.75 L 13.97 21.0 L 13.97 21.25 L 13.97 21.5 L 13.97 21.75 L 13.97 22.0 L 13.97 22.25 L 13.97 22.5 L 13.97 22.75 L 13.97 23.0" fill="none" stroke="#111" stroke-width="1.33" stroke-linecap="round" stroke-linejoin="round"/>
<path d="M 10.97 17.0 L 10.85 17.17 L 10.72 17.33 L 10.6 17.5 L 10.47 17.67 L 10.35 17.83 L 10.22 18.0 L 10.1 18.17 L 9.97 18.33 L 9.85 18.5 L 9.72 18.67 L 9.6 18.83 L 9.47 19.0 L 9.35 19.17 L 9.22 19.33 L 9.1 19.5 L 8.97 19.67 L 8.85 19.83 L 8.72 20.0 L 8.6 20.17 L 8.47 20.33 L 8.35 20.5 L 8.22 20.67 L 8.1 20.83 L 7.97 21.0" fill="none" stroke="#111" stroke-width="1.33" stroke-linecap="round" stroke-linejoin="round"/>
<path d="M 13.97 19.0 L 14.1 19.08 L 14.22 19.17 L 14.35 19.25 L 14.47 19.33 L 14.6 19.42 L 14.72 19.5 L 14.85 19.58 L 14.97 19.67 L 15.1 19.75 L 15.22 19.83 L 15.35 19.92 L 15.47 20.0 L 15.6 20.08 L 15.72 20.17 L 15.85 20.25 L 15.97 20.33 L 16.1 20.42 L 16.22 20.5 L 16.35 20.58 L 16.47 20.67 L 16.6 20.75 L 16.72 20.83 L 16.85 20.92 L 16.97 21.0" fill="none" stroke="#111" stroke-width="1.33" stroke-linecap="round" stroke-linejoin="round"/>
<path d="M 4.97 19.0 L 4.79 19.48 L 4.64 19.98 L 4.52 20.48 L 4.44 20.99 L 4.4 21.51 L 4.4 22.02 L 4.44 22.54 L 4.51 23.05 L 4.62 23.56 L 4.76 24.05 L 4.94 24.54 L 5.15 25.01 L 5.4 25.46 L 5.68 25.89 L 5.99 26.31 L 6.33 26.7 L 6.7 27.06 L 7.09 27.4 L 7.5 27.71 L 7.94 27.98 L 8.4 28.23 L 8.87 28.44 L 9.35 28.62 L 9.85 28.76" fill="none" stroke="#111" stroke-width="1.33" stroke-linecap="round" stroke-linejoin="round"/>
<path d="M 8.97 22.0 L 8.61 22.37 L 8.27 22.74 L 7.93 23.13 L 7.61 23.53 L 7.3 23.93 L 7.0 24.35 L 6.71 24.77 L 6.44 25.2 L 6.18 25.65 L 5.93 26.09 L 5.7 26.55 L 5.48 27.01 L 5.28 27.48 L 5.09 27.96 L 4.91 28.44 L 4.75 28.92 L 4.6 29.41 L 4.47 29.91 L 4.35 30.4 L 4.25 30.91 L 4.17 31.41 L 4.1 31.92 L 4.04 32.43 L 4.0 32.94" fill="none" stroke="#111" stroke-width="1.33" stroke-linecap="round" stroke-linejoin="round"/>
<path d="M 18.97 19.0 L 18.76 19.38 L 18.55 19.75 L 18.35 20.12 L 18.14 20.5 L 17.93 20.88 L 17.72 21.25 L 17.51 21.62 L 17.3 22.0 L 17.1 22.38 L 16.89 22.75 L 16.68 23.12 L 16.47 23.5 L 16.26 23.88 L 16.05 24.25 L 15.85 24.62 L 15.64 25.0 L 15.43 25.38 L 15.22 25.75 L 15.01 26.12 L 14.8 26.5 L 14.6 26.88 L 14.39 27.25 L 14.18 27.62 L 13.97 28.0" fill="none" stroke="#111" stroke-width="1.33" stroke-linecap="round" stroke-linejoin="round"/>
<path d="M 14.97 22.0 L 15.14 22.5 L 15.3 23.0 L 15.47 23.5 L 15.64 24.0 L 15.8 24.5 L 15.97 25.0 L 16.14 25.5 L 16.3 26.0 L 16.47 26.5 L 16.64 27.0 L 16.8 27.5 L 16.97 28.0 L 17.14 28.5 L 17.3 29.0 L 17.47 29.5 L 17.64 30.0 L 17.8 30.5 L 17.97 31.0 L 18.14 31.5 L 18.3 32.0 L 18.47 32.5 L 18.64 33.0 L 18.8 33.5 L 18.97 34.0" fill="none" stroke="#111" stroke-width="1.33" stroke-linecap="round" stroke-linejoin="round"/>
</svg>
