<?xml version="1.0" encoding="UTF-8"?>
<svg xmlns="http://www.w3.org/2000/svg" viewBox="0 0 19.00 32.00">
<path d="M 9.0 5.0 L 9.0 5.75 L 9.0 6.5 L 9.0 7.25 L 9.0 8.0 L 9.0 8.75 L 9.0 9.5 L 9.0 10.25 L 9.0 11.0 L 9.0 11.75 L 9.0 12.5 L 9.0 13.25 L 9.0 14.0 L 9.0 14.75 L 9.0 15.5 L 9.0 16.25 L 9.0 17.0 L 9.0 17.75 L 9.0 18.5 L 9.0 19.25 L 9.0 20.0 L 9.0 20.75 L 9.0 21.5 L 9.0 22.25 L 9.0 23.0" fill="none" stroke="#111" stroke-width="1.12" stroke-linecap="round" stroke-linejoin="round"/>
<path d="M 4.0 5.0 L 4.21 5.29 L 4.42 5.58 L 4.62 5.88 L 4.83 6.17 L 5.04 6.46 L 5.25 6.75 L 5.46 7.04 L 5.67 7.33 L 5.88 7.62 L 6.08 7.92 L 6.29 8.21 L 6.5 8.5 L 6.71 8.79 L 6.92 9.08 L 7.12 9.38 L 7.33 9.67 L 7.54 9.96 L 7.75 10.25 L 7.96 10.54 L 8.17 10.83 L 8.38 11.12 L 8.58 11.42 L 8.79 11.71 L 9.0 12.0 L 9.0 12.0 L 9.25 11.67 L 9.5 11.33 L 9.75 11.0 L 10.0 10.67 L 10.25 10.33 L 10.5 10.0 L 10.75 9.67 L 11.0 9.33 L 11.25 9.0 L 11.5 8.67 L 11.75 8.33 L 12.0 8.0 L 12.25 7.67 L 12.5 7.33 L 12.75 7.0 L 13.0 6.67 L 13.25 6.33 L 13.5 6.0 L 13.75 5.67 L 14.0 5.33 L 14.25 5.0 L 14.5 4.67 L 14.75 4.33 L 15.0 4.0" fill="none" stroke="#111" stroke-width="1.12" stroke-linecap="round" stroke-linejoin="round"/>
<path d="M 4.0 20.0 L 4.21 19.71 L 4.42 19.42 L 4.62 19.12 L 4.83 18.83 L 5.04 18.54 L 5.25 18.25 L 5.46 17.96 L 5.67 17.67 L 5.88 17.38 L 6.08 17.08 L 6.29 16.79 L 6.5 16.5 L 6.71 16.21 L 6.92 15.92 L 7.12 15.62 L 7.33 15.33 L 7.54 15.04 L 7.75 14.75 L 7.96 14.46 L 8.17 14.17 L 8.38 13.88 L 8.58 13.58 L 8.79 13.29 L 9.0 13.0 L 9.0 13.0 L 9.25 13.25 L 9.5 13.5 L 9.75 13.75 L 10.0 14.0 L 10.25 14.25 L 10.5 14.5 L 10.75 14.75 L 11.0 15.0 L 11.25 15.25 L 11.5 15.5 L 11.75 15.75 L 12.0 16.0 L 12.25 16.25 L 12.5 16.5 L 12.75 16.75 L 13.0 17.0 L 13.25 17.25 L 13.5 17.5 L 13.75 17.75 L 14.0 18.0 L 14.25 18.25 L 14.5 18.5 L 14.75 18.75 L 15.0 19.0" fill="none" stroke="#111" stroke-width="1.12" stroke-linecap="round" stroke-linejoin="round"/>
<path d="M 6.0 23.0 L 6.0 23.21 L 6.0 23.42 L 6.0 23.62 L 6.0 23.83 L 6.0 24.04 L 6.0 24.25 L 6.0 24.46 L 6.0 24.67 L 6.0 24.88 L 6.0 25.08 L 6.0 25.29 L 6.0 25.5 L 6.0 25.71 L 6.0 25.92 L 6.0 26.12 L 6.0 26.33 L 6.0 26.54 L 6.0 26.75 L 6.0 26.96 L 6.0 27.17 L 6.0 27.38 L 6.0 27.58 L 6.0 27.79 L 6.0 28.0 L 6.0 28.0 L 6.38 28.0 L 6.75 28.0 L 7.12 28.0 L 7.5 28.0 L 7.88 28.0 L 8.25 28.0 L 8.62 28.0 L 9.0 28.0 L 9.38 28.0 L 9.75 28.0 L 10.12 28.0 L 10.5 28.0 L 10.88 28.0 L 11.25 28.0 L 11.62 28.0 L 12.0 28.0 L 12.38 28.0 L 12.75 28.0 L 13.12 28.0 L 13.5 28.0 L 13.88 28.0 L 14.25 28.0 L 14.62 28.0 L 15.0 28.0 L 15.0 28.0 L 15.0 27.75 L 15.0 27.5 L 15.0 27.25 L 15.0 27.0 L 15.0 26.75 L 15.0 26.5 L 15.0 26.25 L 15.0 26.0 L 15.0 25.75 L 15.0 25.5 L 15.0 25.25 L 15.0 25.0 L 15.0 24.75 L 15.0 24.5 L 15.0 24.25 L 15.0 24.0 L 15.0 23.75 L 15.0 23.5 L 15.0 23.25 L 15.0 23.0 L 15.0 22.75 L 15.0 22.5 L 15.0 22.25 L 15.0 22.0 L 15.0 22.0 L 14.62 22.04 L 14.25 22.08 L 13.88 22.12 L 13.5 22.17 L 13.12 22.21 L 12.75 22.25 L 12.38 22.29 L 12.0 22.33 L 11.62 22.38 L 11.25 22.42 L 10.88 22.46 L 10.5 22.5 L 10.12 22.54 L 9.75 22.58 L 9.38 22.62 L 9.0 22.67 L 8.62 22.71 L 8.25 22.75 L 7.87 22.79 L 7.5 22.83 L 7.12 22.88 L 6.75 22.92 L 6.37 22.96 L 6.0 23.0" fill="none" stroke="#111" stroke-width="1.12" stroke-linecap="round" stroke-linejoin="round"/>
</svg>
