<?xml version="1.0" encoding="UTF-8"?>
<svg xmlns="http://www.w3.org/2000/svg" viewBox="0 0 23.00 32.00">
<path d="M 6.0 4.0 L 6.5 4.0 L 7.0 4.0 L 7.5 4.0 L 8.0 4.0 L 8.5 4.0 L 9.0 4.0 L 9.5 4.0 L 10.0 4.0 L 10.5 4.0 L 11.0 4.0 L 11.5 4.0 L 12.0 4.0 L 12.5 4.0 L 13.0 4.0 L 13.5 4.0 L 14.0 4.0 L 14.5 4.0 L 15.0 4.0 L 15.5 4.0 L 16.0 4.0 L 16.5 4.0 L 17.0 4.0 L 17.5 4.0 L 18.0 4.0" fill="none" stroke="#111" stroke-width="1.12" stroke-linecap="round" stroke-linejoin="round"/>
<path d="M 6.0 9.0 L 6.46 9.0 L 6.92 9.0 L 7.38 9.0 L 7.83 9.0 L 8.29 9.0 L 8.75 9.0 L 9.21 9.0 L 9.67 9.0 L 10.12 9.0 L 10.58 9.0 L 11.04 9.0 L 11.5 9.0 L 11.96 9.0 L 12.42 9.0 L 12.88 9.0 L 13.33 9.0 L 13.79 9.0 L 14.25 9.0 L 14.71 9.0 L 15.17 9.0 L 15.62 9.0 L 16.08 9.0 L 16.54 9.0 L 17.0 9.0" fill="none" stroke="#111" stroke-width="1.12" stroke-linecap="round" stroke-linejoin="round"/>
<path d="M 6.0 4.0 L 6.0 4.21 L 6.0 4.42 L 6.0 4.62 L 6.0 4.83 L 6.0 5.04 L 6.0 5.25 L 6.0 5.46 L 6.0 5.67 L 6.0 5.88 L 6.0 6.08 L 6.0 6.29 L 6.0 6.5 L 6.0 6.71 L 6.0 6.92 L 6.0 7.12 L 6.0 7.33 L 6.0 7.54 L 6.0 7.75 L 6.0 7.96 L 6.0 8.17 L 6.0 8.38 L 6.0 8.58 L 6.0 8.79 L 6.0 9.0" fill="none" stroke="#111" stroke-width="1.12" stroke-linecap="round" stroke-linejoin="round"/>
<path d="M 4.0 16.0 L 4.62 16.0 L 5.25 16.0 L 5.88 16.0 L 6.5 16.0 L 7.12 16.0 L 7.75 16.0 L 8.38 16.0 L 9.0 16.0 L 9.62 16.0 L 10.25 16.0 L 10.88 16.0 L 11.5 16.0 L 12.12 16.0 L 12.75 16.0 L 13.38 16.0 L 14.0 16.0 L 14.62 16.0 L 15.25 16.0 L 15.88 16.0 L 16.5 16.0 L 17.12 16.0 L 17.75 16.0 L 18.38 16.0 L 19.0 16.0" fill="none" stroke="#111" stroke-width="1.12" stroke-linecap="round" stroke-linejoin="round"/>
<path d="M 11.0 9.0 L 11.0 9.79 L 11.0 10.58 L 11.0 11.38 L 11.0 12.17 L 11.0 12.96 L 11.0 13.75 L 11.0 14.54 L 11.0 15.33 L 11.0 16.12 L 11.0 16.92 L 11.0 17.71 L 11.0 18.5 L 11.0 19.29 L 11.0 20.08 L 11.0 20.88 L 11.0 21.67 L 11.0 22.46 L 11.0 23.25 L 11.0 24.04 L 11.0 24.83 L 11.0 25.62 L 11.0 26.42 L 11.0 27.21 L 11.0 28.0" fill="none" stroke="#111" stroke-width="1.12" stroke-linecap="round" stroke-linejoin="round"/>
</svg>
