<?xml version="1.0" encoding="UTF-8"?>
<svg xmlns="http://www.w3.org/2000/svg" viewBox="0 0 25.00 32.00">
<path d="M 11.0 4.0 L 10.88 4.29 L 10.75 4.58 L 10.62 4.88 L 10.5 5.17 L 10.38 5.46 L 10.25 5.75 L 10.12 6.04 L 10.0 6.33 L 9.88 6.62 L 9.75 6.92 L 9.62 7.21 L 9.5 7.5 L 9.38 7.79 L 9.25 8.08 L 9.12 8.38 L 9.0 8.67 L 8.88 8.96 L 8.75 9.25 L 8.62 9.54 L 8.5 9.83 L 8.38 10.12 L 8.25 10.42 L 8.12 10.71 L 8.0 11.0" fill="none" stroke="#111" stroke-width="1.12" stroke-linecap="round" stroke-linejoin="round"/>
<path d="M 11.0 4.0 L 11.21 4.29 L 11.42 4.58 L 11.62 4.88 L 11.83 5.17 L 12.04 5.46 L 12.25 5.75 L 12.46 6.04 L 12.67 6.33 L 12.88 6.62 L 13.08 6.92 L 13.29 7.21 L 13.5 7.5 L 13.71 7.79 L 13.92 8.08 L 14.12 8.38 L 14.33 8.67 L 14.54 8.96 L 14.75 9.25 L 14.96 9.54 L 15.17 9.83 L 15.38 10.12 L 15.58 10.42 L 15.79 10.71 L 16.0 11.0" fill="none" stroke="#111" stroke-width="1.12" stroke-linecap="round" stroke-linejoin="round"/>
<path d="M 7.0 12.0 L 6.74 12.26 L 6.51 12.54 L 6.31 12.84 L 6.13 13.15 L 5.99 13.49 L 5.88 13.83 L 5.79 14.18 L 5.74 14.54 L 5.73 14.91 L 5.75 15.27 L 5.8 15.63 L 5.88 15.98 L 5.99 16.32 L 6.14 16.65 L 6.32 16.97 L 6.52 17.27 L 6.75 17.55 L 7.01 17.81 L 7.29 18.04 L 7.59 18.24 L 7.91 18.42 L 8.24 18.57 L 8.58 18.68 L 8.93 18.77 L 9.0 19.0 L 9.08 18.83 L 9.17 18.67 L 9.25 18.5 L 9.33 18.33 L 9.42 18.17 L 9.5 18.0 L 9.58 17.83 L 9.67 17.67 L 9.75 17.5 L 9.83 17.33 L 9.92 17.17 L 10.0 17.0 L 10.08 16.83 L 10.17 16.67 L 10.25 16.5 L 10.33 16.33 L 10.42 16.17 L 10.5 16.0 L 10.58 15.83 L 10.67 15.67 L 10.75 15.5 L 10.83 15.33 L 10.92 15.17 L 11.0 15.0 L 11.0 15.0 L 10.88 14.88 L 10.75 14.75 L 10.62 14.62 L 10.5 14.5 L 10.38 14.38 L 10.25 14.25 L 10.12 14.12 L 10.0 14.0 L 9.88 13.88 L 9.75 13.75 L 9.62 13.62 L 9.5 13.5 L 9.38 13.38 L 9.25 13.25 L 9.12 13.12 L 9.0 13.0 L 8.88 12.88 L 8.75 12.75 L 8.62 12.62 L 8.5 12.5 L 8.38 12.38 L 8.25 12.25 L 8.12 12.12 L 8.0 12.0" fill="none" stroke="#111" stroke-width="1.12" stroke-linecap="round" stroke-linejoin="round"/>
<path d="M 8.0 19.0 L 7.69 19.28 L 7.41 19.58 L 7.14 19.9 L 6.91 20.23 L 6.69 20.59 L 6.5 20.96 L 6.34 21.34 L 6.21 21.73 L 6.11 22.13 L 6.03 22.54 L 5.99 22.95 L 5.97 23.36 L 5.99 23.77 L 6.03 24.19 L 6.11 24.59 L 6.21 24.99 L 6.34 25.38 L 6.5 25.77 L 6.69 26.13 L 6.91 26.49 L 7.14 26.83 L 7.41 27.14 L 7.69 27.44 L 8.0 27.72 L 8.0 28.0 L 8.08 27.83 L 8.17 27.67 L 8.25 27.5 L 8.33 27.33 L 8.42 27.17 L 8.5 27.0 L 8.58 26.83 L 8.67 26.67 L 8.75 26.5 L 8.83 26.33 L 8.92 26.17 L 9.0 26.0 L 9.08 25.83 L 9.17 25.67 L 9.25 25.5 L 9.33 25.33 L 9.42 25.17 L 9.5 25.0 L 9.58 24.83 L 9.67 24.67 L 9.75 24.5 L 9.83 24.33 L 9.92 24.17 L 10.0 24.0 L 10.0 24.0 L 9.92 23.83 L 9.83 23.67 L 9.75 23.5 L 9.67 23.33 L 9.58 23.17 L 9.5 23.0 L 9.42 22.83 L 9.33 22.67 L 9.25 22.5 L 9.17 22.33 L 9.08 22.17 L 9.0 22.0 L 8.92 21.83 L 8.83 21.67 L 8.75 21.5 L 8.67 21.33 L 8.58 21.17 L 8.5 21.0 L 8.42 20.83 L 8.33 20.67 L 8.25 20.5 L 8.17 20.33 L 8.08 20.17 L 8.0 20.0" fill="none" stroke="#111" stroke-width="1.12" stroke-linecap="round" stroke-linejoin="round"/>
<path d="M 16.0 11.0 L 15.71 11.24 L 15.44 11.49 L 15.19 11.77 L 14.96 12.07 L 14.75 12.38 L 14.57 12.71 L 14.42 13.05 L 14.29 13.41 L 14.19 13.77 L 14.12 14.13 L 14.08 14.51 L 14.06 14.88 L 14.08 15.25 L 14.12 15.63 L 14.19 15.99 L 14.29 16.35 L 14.42 16.71 L 14.57 17.05 L 14.75 17.38 L 14.96 17.69 L 15.19 17.99 L 15.44 18.26 L 15.71 18.52 L 16.0 18.76 L 16.0 19.0 L 16.32 18.74 L 16.63 18.45 L 16.91 18.14 L 17.16 17.81 L 17.39 17.47 L 17.59 17.1 L 17.76 16.72 L 17.9 16.33 L 18.01 15.93 L 18.09 15.52 L 18.14 15.11 L 18.16 14.69 L 18.14 14.28 L 18.09 13.86 L 18.01 13.46 L 17.9 13.05 L 17.76 12.66 L 17.59 12.28 L 17.39 11.92 L 17.16 11.57 L 16.91 11.24 L 16.63 10.93 L 16.32 10.65 L 16.0 10.39" fill="none" stroke="#111" stroke-width="1.12" stroke-linecap="round" stroke-linejoin="round"/>
<path d="M 16.0 19.0 L 15.71 19.29 L 15.44 19.6 L 15.19 19.93 L 14.97 20.27 L 14.77 20.63 L 14.59 21.0 L 14.44 21.38 L 14.32 21.77 L 14.22 22.17 L 14.15 22.58 L 14.11 22.99 L 14.09 23.4 L 14.11 23.81 L 14.15 24.22 L 14.22 24.62 L 14.32 25.02 L 14.44 25.41 L 14.59 25.79 L 14.77 26.16 L 14.97 26.52 L 15.19 26.86 L 15.44 27.19 L 15.71 27.5 L 16.0 27.79 L 16.0 28.0 L 16.08 27.83 L 16.17 27.67 L 16.25 27.5 L 16.33 27.33 L 16.42 27.17 L 16.5 27.0 L 16.58 26.83 L 16.67 26.67 L 16.75 26.5 L 16.83 26.33 L 16.92 26.17 L 17.0 26.0 L 17.08 25.83 L 17.17 25.67 L 17.25 25.5 L 17.33 25.33 L 17.42 25.17 L 17.5 25.0 L 17.58 24.83 L 17.67 24.67 L 17.75 24.5 L 17.83 24.33 L 17.92 24.17 L 18.0 24.0 L 18.0 24.0 L 17.92 23.79 L 17.83 23.58 L 17.75 23.38 L 17.67 23.17 L 17.58 22.96 L 17.5 22.75 L 17.42 22.54 L 17.33 22.33 L 17.25 22.12 L 17.17 21.92 L 17.08 21.71 L 17.0 21.5 L 16.92 21.29 L 16.83 21.08 L 16.75 20.88 L 16.67 20.67 L 16.58 20.46 L 16.5 20.25 L 16.42 20.04 L 16.33 19.83 L 16.25 19.62 L 16.17 19.42 L 16.08 19.21 L 16.0 19.0" fill="none" stroke="#111" stroke-width="1.12" stroke-linecap="round" stroke-linejoin="round"/>
<path d="M 4.0 15.0 L 4.67 15.0 L 5.33 15.0 L 6.0 15.0 L 6.67 15.0 L 7.33 15.0 L 8.0 15.0 L 8.67 15.0 L 9.33 15.0 L 10.0 15.0 L 10.67 15.0 L 11.33 15.0 L 12.0 15.0 L 12.67 15.0 L 13.33 15.0 L 14.0 15.0 L 14.67 15.0 L 15.33 15.0 L 16.0 15.0 L 16.67 15.0 L 17.33 15.0 L 18.0 15.0 L 18.67 15.0 L 19.33 15.0 L 20.0 15.0" fill="none" stroke="#111" stroke-width="1.12" stroke-linecap="round" stroke-linejoin="round"/>
<path d="M 6.0 20.0 L 6.54 19.96 L 7.08 19.92 L 7.62 19.88 L 8.17 19.83 L 8.71 19.79 L 9.25 19.75 L 9.79 19.71 L 10.33 19.67 L 10.88 19.62 L 11.42 19.58 L 11.96 19.54 L 12.5 19.5 L 13.04 19.46 L 13.58 19.42 L 14.13 19.38 L 14.67 19.33 L 15.21 19.29 L 15.75 19.25 L 16.29 19.21 L 16.83 19.17 L 17.38 19.12 L 17.92 19.08 L 18.46 19.04 L 19.0 19.0" fill="none" stroke="#111" stroke-width="1.12" stroke-linecap="round" stroke-linejoin="round"/>
<path d="M 4.0 24.0 L 4.71 23.96 L 5.42 23.92 L 6.12 23.88 L 6.83 23.83 L 7.54 23.79 L 8.25 23.75 L 8.96 23.71 L 9.67 23.67 L 10.38 23.62 L 11.08 23.58 L 11.79 23.54 L 12.5 23.5 L 13.21 23.46 L 13.92 23.42 L 14.62 23.38 L 15.33 23.33 L 16.04 23.29 L 16.75 23.25 L 17.46 23.21 L 18.17 23.17 L 18.88 23.12 L 19.58 23.08 L 20.29 23.04 L 21.0 23.0" fill="none" stroke="#111" stroke-width="1.12" stroke-linecap="round" stroke-linejoin="round"/>
</svg>
