<?xml version="1.0" encoding="UTF-8"?>
<svg xmlns="http://www.w3.org/2000/svg" viewBox="0 0 20.00 34.00">
<path d="M 11.0 4.0 L 11.0 4.71 L 11.0 5.42 L 11.0 6.12 L 11.0 6.83 L 11.0 7.54 L 11.0 8.25 L 11.0 8.96 L 11.0 9.67 L 11.0 10.38 L 11.0 11.08 L 11.0 11.79 L 11.0 12.5 L 11.0 13.21 L 11.0 13.92 L 11.0 14.62 L 11.0 15.33 L 11.0 16.04 L 11.0 16.75 L 11.0 17.46 L 11.0 18.17 L 11.0 18.88 L 11.0 19.58 L 11.0 20.29 L 11.0 21.0" fill="none" stroke="#111" stroke-width="1.19" stroke-linecap="round" stroke-linejoin="round"/>
<path d="M 6.0 6.0 L 6.21 6.29 L 6.42 6.58 L 6.62 6.88 L 6.83 7.17 L 7.04 7.46 L 7.25 7.75 L 7.46 8.04 L 7.67 8.33 L 7.88 8.62 L 8.08 8.92 L 8.29 9.21 L 8.5 9.5 L 8.71 9.79 L 8.92 10.08 L 9.12 10.38 L 9.33 10.67 L 9.54 10.96 L 9.75 11.25 L 9.96 11.54 L 10.17 11.83 L 10.38 12.12 L 10.58 12.42 L 10.79 12.71 L 11.0 13.0 L 11.0 13.0 L 11.21 12.75 L 11.42 12.5 L 11.62 12.25 L 11.83 12.0 L 12.04 11.75 L 12.25 11.5 L 12.46 11.25 L 12.67 11.0 L 12.88 10.75 L 13.08 10.5 L 13.29 10.25 L 13.5 10.0 L 13.71 9.75 L 13.92 9.5 L 14.12 9.25 L 14.33 9.0 L 14.54 8.75 L 14.75 8.5 L 14.96 8.25 L 15.17 8.0 L 15.38 7.75 L 15.58 7.5 L 15.79 7.25 L 16.0 7.0" fill="none" stroke="#111" stroke-width="1.19" stroke-linecap="round" stroke-linejoin="round"/>
<path d="M 4.0 22.0 L 4.29 21.62 L 4.58 21.25 L 4.88 20.88 L 5.17 20.5 L 5.46 20.12 L 5.75 19.75 L 6.04 19.38 L 6.33 19.0 L 6.62 18.62 L 6.92 18.25 L 7.21 17.88 L 7.5 17.5 L 7.79 17.12 L 8.08 16.75 L 8.38 16.38 L 8.67 16.0 L 8.96 15.62 L 9.25 15.25 L 9.54 14.88 L 9.83 14.5 L 10.12 14.12 L 10.42 13.75 L 10.71 13.38 L 11.0 13.0 L 11.0 13.0 L 11.21 13.29 L 11.42 13.58 L 11.62 13.88 L 11.83 14.17 L 12.04 14.46 L 12.25 14.75 L 12.46 15.04 L 12.67 15.33 L 12.88 15.62 L 13.08 15.92 L 13.29 16.21 L 13.5 16.5 L 13.71 16.79 L 13.92 17.08 L 14.12 17.38 L 14.33 17.67 L 14.54 17.96 L 14.75 18.25 L 14.96 18.54 L 15.17 18.83 L 15.38 19.12 L 15.58 19.42 L 15.79 19.71 L 16.0 20.0" fill="none" stroke="#111" stroke-width="1.19" stroke-linecap="round" stroke-linejoin="round"/>
<path d="M 16.0 22.0 L 15.54 22.04 L 15.08 22.08 L 14.62 22.12 L 14.17 22.17 L 13.71 22.21 L 13.25 22.25 L 12.79 22.29 L 12.33 22.33 L 11.88 22.38 L 11.42 22.42 L 10.96 22.46 L 10.5 22.5 L 10.04 22.54 L 9.58 22.58 L 9.12 22.62 L 8.67 22.67 L 8.21 22.71 L 7.75 22.75 L 7.29 22.79 L 6.83 22.83 L 6.38 22.88 L 5.92 22.92 L 5.46 22.96 L 5.0 23.0" fill="none" stroke="#111" stroke-width="1.19" stroke-linecap="round" stroke-linejoin="round"/>
<path d="M 6.0 23.0 L 6.0 23.12 L 6.0 23.25 L 6.0 23.38 L 6.0 23.5 L 6.0 23.62 L 6.0 23.75 L 6.0 23.88 L 6.0 24.0 L 6.0 24.12 L 6.0 24.25 L 6.0 24.38 L 6.0 24.5 L 6.0 24.62 L 6.0 24.75 L 6.0 24.88 L 6.0 25.0 L 6.0 25.12 L 6.0 25.25 L 6.0 25.38 L 6.0 25.5 L 6.0 25.62 L 6.0 25.75 L 6.0 25.88 L 6.0 26.0 L 6.0 26.0 L 6.42 26.0 L 6.83 26.0 L 7.25 26.0 L 7.67 26.0 L 8.08 26.0 L 8.5 26.0 L 8.92 26.0 L 9.33 26.0 L 9.75 26.0 L 10.17 26.0 L 10.58 26.0 L 11.0 26.0 L 11.42 26.0 L 11.83 26.0 L 12.25 26.0 L 12.67 26.0 L 13.08 26.0 L 13.5 26.0 L 13.92 26.0 L 14.33 26.0 L 14.75 26.0 L 15.17 26.0 L 15.58 26.0 L 16.0 26.0 L 16.0 26.0 L 16.0 26.17 L 16.0 26.33 L 16.0 26.5 L 16.0 26.67 L 16.0 26.83 L 16.0 27.0 L 16.0 27.17 L 16.0 27.33 L 16.0 27.5 L 16.0 27.67 L 16.0 27.83 L 16.0 28.0 L 16.0 28.17 L 16.0 28.33 L 16.0 28.5 L 16.0 28.67 L 16.0 28.83 L 16.0 29.0 L 16.0 29.17 L 16.0 29.33 L 16.0 29.5 L 16.0 29.67 L 16.0 29.83 L 16.0 30.0 L 16.0 30.0 L 15.5 30.0 L 15.0 30.0 L 14.5 30.0 L 14.0 30.0 L 13.5 30.0 L 13.0 30.0 L 12.5 30.0 L 12.0 30.0 L 11.5 30.0 L 11.0 30.0 L 10.5 30.0 L 10.0 30.0 L 9.5 30.0 L 9.0 30.0 L 8.5 30.0 L 8.0 30.0 L 7.5 30.0 L 7.0 30.0 L 6.5 30.0 L 6.0 30.0 L 5.5 30.0 L 5.0 30.0 L 4.5 30.0 L 4.0 30.0" fill="none" stroke="#111" stroke-width="1.19" stroke-linecap="round" stroke-linejoin="round"/>
</svg>
