<?xml version="1.0" encoding="UTF-8"?>
<svg xmlns="http://www.w3.org/2000/svg" viewBox="0 0 27.00 36.00">
<path d="M 4.0 8.0 L 4.79 8.0 L 5.58 8.0 L 6.38 8.0 L 7.17 8.0 L 7.96 8.0 L 8.75 8.0 L 9.54 8.0 L 10.33 8.0 L 11.12 8.0 L 11.92 8.0 L 12.71 8.0 L 13.5 8.0 L 14.29 8.0 L 15.08 8.0 L 15.88 8.0 L 16.67 8.0 L 17.46 8.0 L 18.25 8.0 L 19.04 8.0 L 19.83 8.0 L 20.62 8.0 L 21.42 8.0 L 22.21 8.0 L 23.0 8.0" fill="none" stroke="#111" stroke-width="1.26" stroke-linecap="round" stroke-linejoin="round"/>
<path d="M 5.0 10.0 L 5.29 10.17 L 5.58 10.33 L 5.88 10.5 L 6.17 10.67 L 6.46 10.83 L 6.75 11.0 L 7.04 11.17 L 7.33 11.33 L 7.62 11.5 L 7.92 11.67 L 8.21 11.83 L 8.5 12.0 L 8.79 12.17 L 9.08 12.33 L 9.38 12.5 L 9.67 12.67 L 9.96 12.83 L 10.25 13.0 L 10.54 13.17 L 10.83 13.33 L 11.12 13.5 L 11.42 13.67 L 11.71 13.83 L 12.0 14.0 L 12.0 14.0 L 11.88 14.59 L 11.75 15.19 L 11.62 15.78 L 11.48 16.37 L 11.34 16.96 L 11.2 17.55 L 11.06 18.14 L 10.91 18.73 L 10.75 19.32 L 10.6 19.91 L 10.43 20.49 L 10.27 21.07 L 10.1 21.66 L 9.93 22.24 L 9.75 22.82 L 9.57 23.4 L 9.39 23.98 L 9.2 24.56 L 9.01 25.13 L 8.82 25.71 L 8.62 26.28 L 8.42 26.86 L 8.21 27.43 L 8.0 28.0" fill="none" stroke="#111" stroke-width="1.26" stroke-linecap="round" stroke-linejoin="round"/>
<path d="M 22.0 10.0 L 21.79 10.17 L 21.58 10.33 L 21.38 10.5 L 21.17 10.67 L 20.96 10.83 L 20.75 11.0 L 20.54 11.17 L 20.33 11.33 L 20.12 11.5 L 19.92 11.67 L 19.71 11.83 L 19.5 12.0 L 19.29 12.17 L 19.08 12.33 L 18.88 12.5 L 18.67 12.67 L 18.46 12.83 L 18.25 13.0 L 18.04 13.17 L 17.83 13.33 L 17.62 13.5 L 17.42 13.67 L 17.21 13.83 L 17.0 14.0 L 17.0 14.0 L 16.86 14.15 L 16.74 14.32 L 16.64 14.5 L 16.56 14.7 L 16.5 14.9 L 16.46 15.1 L 16.45 15.31 L 16.47 15.52 L 16.51 15.72 L 16.57 15.92 L 16.65 16.11 L 16.76 16.29 L 16.88 16.46 L 17.03 16.61 L 17.19 16.74 L 17.36 16.86 L 17.55 16.95 L 17.74 17.02 L 17.95 17.07 L 18.15 17.09 L 18.36 17.09 L 18.57 17.07 L 18.77 17.02 L 18.97 16.95 L 19.0 17.0 L 18.92 17.08 L 18.83 17.17 L 18.75 17.25 L 18.67 17.33 L 18.58 17.42 L 18.5 17.5 L 18.42 17.58 L 18.33 17.67 L 18.25 17.75 L 18.17 17.83 L 18.08 17.92 L 18.0 18.0 L 17.92 18.08 L 17.83 18.17 L 17.75 18.25 L 17.67 18.33 L 17.58 18.42 L 17.5 18.5 L 17.42 18.58 L 17.33 18.67 L 17.25 18.75 L 17.17 18.83 L 17.08 18.92 L 17.0 19.0" fill="none" stroke="#111" stroke-width="1.26" stroke-linecap="round" stroke-linejoin="round"/>
<path d="M 16.0 18.0 L 16.17 18.5 L 16.33 19.0 L 16.5 19.5 L 16.67 20.0 L 16.83 20.5 L 17.0 21.0 L 17.17 21.5 L 17.33 22.0 L 17.5 22.5 L 17.67 23.0 L 17.83 23.5 L 18.0 24.0 L 18.17 24.5 L 18.33 25.0 L 18.5 25.5 L 18.67 26.0 L 18.83 26.5 L 19.0 27.0 L 19.17 27.5 L 19.33 28.0 L 19.5 28.5 L 19.67 29.0 L 19.83 29.5 L 20.0 30.0" fill="none" stroke="#111" stroke-width="1.26" stroke-linecap="round" stroke-linejoin="round"/>
<path d="M 9.0 24.0 L 9.38 24.0 L 9.75 24.0 L 10.12 24.0 L 10.5 24.0 L 10.88 24.0 L 11.25 24.0 L 11.62 24.0 L 12.0 24.0 L 12.38 24.0 L 12.75 24.0 L 13.12 24.0 L 13.5 24.0 L 13.88 24.0 L 14.25 24.0 L 14.62 24.0 L 15.0 24.0 L 15.38 24.0 L 15.75 24.0 L 16.12 24.0 L 16.5 24.0 L 16.88 24.0 L 17.25 24.0 L 17.62 24.0 L 18.0 24.0" fill="none" stroke="#111" stroke-width="1.26" stroke-linecap="round" stroke-linejoin="round"/>
<path d="M 18.0 4.0 L 18.0 4.17 L 18.0 4.33 L 18.0 4.5 L 18.0 4.67 L 18.0 4.83 L 18.0 5.0 L 18.0 5.17 L 18.0 5.33 L 18.0 5.5 L 18.0 5.67 L 18.0 5.83 L 18.0 6.0 L 18.0 6.17 L 18.0 6.33 L 18.0 6.5 L 18.0 6.67 L 18.0 6.83 L 18.0 7.0 L 18.0 7.17 L 18.0 7.33 L 18.0 7.5 L 18.0 7.67 L 18.0 7.83 L 18.0 8.0" fill="none" stroke="#111" stroke-width="1.26" stroke-linecap="round" stroke-linejoin="round"/>
<path d="M 17.0 4.0 L 16.96 4.08 L 16.92 4.17 L 16.88 4.25 L 16.83 4.33 L 16.79 4.42 L 16.75 4.5 L 16.71 4.58 L 16.67 4.67 L 16.62 4.75 L 16.58 4.83 L 16.54 4.92 L 16.5 5.0 L 16.46 5.08 L 16.42 5.17 L 16.38 5.25 L 16.33 5.33 L 16.29 5.42 L 16.25 5.5 L 16.21 5.58 L 16.17 5.67 L 16.12 5.75 L 16.08 5.83 L 16.04 5.92 L 16.0 6.0" fill="none" stroke="#111" stroke-width="1.26" stroke-linecap="round" stroke-linejoin="round"/>
<path d="M 18.0 4.0 L 18.04 4.08 L 18.08 4.17 L 18.12 4.25 L 18.17 4.33 L 18.21 4.42 L 18.25 4.5 L 18.29 4.58 L 18.33 4.67 L 18.38 4.75 L 18.42 4.83 L 18.46 4.92 L 18.5 5.0 L 18.54 5.08 L 18.58 5.17 L 18.62 5.25 L 18.67 5.33 L 18.71 5.42 L 18.75 5.5 L 18.79 5.58 L 18.83 5.67 L 18.88 5.75 L 18.92 5.83 L 18.96 5.92 L 19.0 6.0" fill="none" stroke="#111" stroke-width="1.26" stroke-linecap="round" stroke-linejoin="round"/>
<path d="M 14.0 16.0 L 14.0 16.21 L 14.0 16.42 L 14.0 16.62 L 14.0 16.83 L 14.0 17.04 L 14.0 17.25 L 14.0 17.46 L 14.0 17.67 L 14.0 17.88 L 14.0 18.08 L 14.0 18.29 L 14.0 18.5 L 14.0 18.71 L 14.0 18.92 L 14.0 19.12 L 14.0 19.33 L 14.0 19.54 L 14.0 19.75 L 14.0 19.96 L 14.0 20.17 L 14.0 20.38 L 14.0 20.58 L 14.0 20.79 L 14.0 21.0" fill="none" stroke="#111" stroke-width="1.26" stroke-linecap="round" stroke-linejoin="round"/>
<path d="M 14.0 24.0 L 14.0 24.33 L 14.0 24.67 L 14.0 25.0 L 14.0 25.33 L 14.0 25.67 L 14.0 26.0 L 14.0 26.33 L 14.0 26.67 L 14.0 27.0 L 14.0 27.33 L 14.0 27.67 L 14.0 28.0 L 14.0 28.33 L 14.0 28.67 L 14.0 29.0 L 14.0 29.33 L 14.0 29.67 L 14.0 30.0 L 14.0 30.33 L 14.0 30.67 L 14.0 31.0 L 14.0 31.33 L 14.0 31.67 L 14.0 32.0" fill="none" stroke="#111" stroke-width="1.26" stroke-linecap="round" stroke-linejoin="round"/>
</svg>
