<?xml version="1.0" encoding="UTF-8"?>
<svg xmlns="http://www.w3.org/2000/svg" viewBox="0 0 17.00 33.00">
<path d="M 9.0 15.0 L 8.43 14.87 L 7.88 14.67 L 7.35 14.43 L 6.85 14.13 L 6.38 13.78 L 5.95 13.39 L 5.55 12.96 L 5.21 12.49 L 4.91 11.98 L 4.67 11.45 L 4.48 10.9 L 4.35 10.33 L 4.27 9.75 L 4.25 9.17 L 4.3 8.59 L 4.4 8.01 L 4.55 7.45 L 4.77 6.91 L 5.03 6.39 L 5.35 5.9 L 5.72 5.44 L 6.13 5.03 L 6.58 4.65 L 7.06 4.33 L 7.0 4.0 L 7.17 4.17 L 7.33 4.33 L 7.5 4.5 L 7.67 4.67 L 7.83 4.83 L 8.0 5.0 L 8.17 5.17 L 8.33 5.33 L 8.5 5.5 L 8.67 5.67 L 8.83 5.83 L 9.0 6.0 L 9.17 6.17 L 9.33 6.33 L 9.5 6.5 L 9.67 6.67 L 9.83 6.83 L 10.0 7.0 L 10.17 7.17 L 10.33 7.33 L 10.5 7.5 L 10.67 7.67 L 10.83 7.83 L 11.0 8.0 L 11.0 8.0 L 10.92 8.29 L 10.83 8.58 L 10.75 8.88 L 10.67 9.17 L 10.58 9.46 L 10.5 9.75 L 10.42 10.04 L 10.33 10.33 L 10.25 10.62 L 10.17 10.92 L 10.08 11.21 L 10.0 11.5 L 9.92 11.79 L 9.83 12.08 L 9.75 12.38 L 9.67 12.67 L 9.58 12.96 L 9.5 13.25 L 9.42 13.54 L 9.33 13.83 L 9.25 14.12 L 9.17 14.42 L 9.08 14.71 L 9.0 15.0" fill="none" stroke="#111" stroke-width="1.16" stroke-linecap="round" stroke-linejoin="round"/>
<path d="M 4.0 11.0 L 4.29 10.88 L 4.58 10.75 L 4.88 10.62 L 5.17 10.5 L 5.46 10.38 L 5.75 10.25 L 6.04 10.12 L 6.33 10.0 L 6.62 9.88 L 6.92 9.75 L 7.21 9.62 L 7.5 9.5 L 7.79 9.38 L 8.08 9.25 L 8.38 9.12 L 8.67 9.0 L 8.96 8.88 L 9.25 8.75 L 9.54 8.62 L 9.83 8.5 L 10.12 8.38 L 10.42 8.25 L 10.71 8.12 L 11.0 8.0" fill="none" stroke="#111" stroke-width="1.16" stroke-linecap="round" stroke-linejoin="round"/>
<path d="M 9.0 19.0 L 8.96 19.42 L 8.92 19.83 L 8.88 20.25 L 8.83 20.67 L 8.79 21.08 L 8.75 21.5 L 8.71 21.92 L 8.67 22.33 L 8.62 22.75 L 8.58 23.17 L 8.54 23.58 L 8.5 24.0 L 8.46 24.42 L 8.42 24.83 L 8.38 25.25 L 8.33 25.67 L 8.29 26.08 L 8.25 26.5 L 8.21 26.92 L 8.17 27.33 L 8.12 27.75 L 8.08 28.17 L 8.04 28.58 L 8.0 29.0" fill="none" stroke="#111" stroke-width="1.16" stroke-linecap="round" stroke-linejoin="round"/>
<path d="M 4.0 19.0 L 4.38 19.42 L 4.75 19.83 L 5.12 20.25 L 5.5 20.67 L 5.88 21.08 L 6.25 21.5 L 6.62 21.92 L 7.0 22.33 L 7.38 22.75 L 7.75 23.17 L 8.12 23.58 L 8.5 24.0 L 8.88 24.42 L 9.25 24.83 L 9.62 25.25 L 10.0 25.67 L 10.38 26.08 L 10.75 26.5 L 11.12 26.92 L 11.5 27.33 L 11.87 27.75 L 12.25 28.17 L 12.62 28.58 L 13.0 29.0" fill="none" stroke="#111" stroke-width="1.16" stroke-linecap="round" stroke-linejoin="round"/>
<path d="M 13.0 18.0 L 12.67 18.46 L 12.33 18.92 L 12.0 19.38 L 11.67 19.83 L 11.33 20.29 L 11.0 20.75 L 10.67 21.21 L 10.33 21.67 L 10.0 22.12 L 9.67 22.58 L 9.33 23.04 L 9.0 23.5 L 8.67 23.96 L 8.33 24.42 L 8.0 24.88 L 7.67 25.33 L 7.33 25.79 L 7.0 26.25 L 6.67 26.71 L 6.33 27.17 L 6.0 27.62 L 5.67 28.08 L 5.33 28.54 L 5.0 29.0" fill="none" stroke="#111" stroke-width="1.16" stroke-linecap="round" stroke-linejoin="round"/>
</svg>
