<?xml version="1.0" encoding="UTF-8"?>
<svg xmlns="http://www.w3.org/2000/svg" viewBox="0 0 21.10 39.00">
<path d="M 7.83 6.0 L 7.83 6.92 L 7.83 7.83 L 7.83 8.75 L 7.83 9.67 L 7.83 10.58 L 7.83 11.5 L 7.83 12.42 L 7.83 13.33 L 7.83 14.25 L 7.83 15.17 L 7.83 16.08 L 7.83 17.0 L 7.83 17.92 L 7.83 18.83 L 7.83 19.75 L 7.83 20.67 L 7.83 21.58 L 7.83 22.5 L 7.83 23.42 L 7.83 24.33 L 7.83 25.25 L 7.83 26.17 L 7.83 27.08 L 7.83 28.0" fill="none" stroke="#111" stroke-width="1.37" stroke-linecap="round" stroke-linejoin="round"/>
<path d="M 8.83 9.0 L 9.56 9.39 L 10.27 9.82 L 10.96 10.29 L 11.62 10.79 L 12.25 11.33 L 12.85 11.91 L 13.41 12.52 L 13.94 13.16 L 14.44 13.83 L 14.89 14.52 L 15.31 15.24 L 15.68 15.99 L 16.02 16.75 L 16.31 17.53 L 16.55 18.32 L 16.75 19.13 L 16.91 19.94 L 17.02 20.77 L 17.08 21.6 L 17.1 22.43 L 17.06 23.26 L 16.99 24.09 L 16.87 24.91 L 16.7 25.72" fill="none" stroke="#111" stroke-width="1.37" stroke-linecap="round" stroke-linejoin="round"/>
<path d="M 10.83 4.0 L 11.44 4.5 L 12.0 5.04 L 12.52 5.64 L 12.98 6.27 L 13.38 6.95 L 13.72 7.66 L 14.0 8.39 L 14.21 9.15 L 14.35 9.92 L 14.43 10.71 L 14.43 11.49 L 14.37 12.28 L 14.24 13.05 L 14.04 13.81 L 13.77 14.55 L 13.44 15.26 L 13.05 15.95 L 12.6 16.59 L 12.1 17.19 L 11.54 17.75 L 10.94 18.25 L 10.3 18.7 L 9.61 19.1 L 8.9 19.43" fill="none" stroke="#111" stroke-width="1.37" stroke-linecap="round" stroke-linejoin="round"/>
<path d="M 4.83 27.0 L 4.62 27.34 L 4.45 27.7 L 4.3 28.07 L 4.18 28.46 L 4.09 28.85 L 4.03 29.24 L 4.0 29.64 L 4.0 30.04 L 4.04 30.44 L 4.1 30.83 L 4.2 31.22 L 4.32 31.6 L 4.48 31.97 L 4.66 32.33 L 4.87 32.67 L 5.11 32.99 L 5.37 33.29 L 5.65 33.58 L 5.96 33.84 L 6.28 34.07 L 6.62 34.28 L 6.98 34.46 L 7.35 34.61 L 7.73 34.74 L 7.83 35.0 L 7.95 34.92 L 8.08 34.83 L 8.2 34.75 L 8.33 34.67 L 8.45 34.58 L 8.58 34.5 L 8.7 34.42 L 8.83 34.33 L 8.95 34.25 L 9.08 34.17 L 9.2 34.08 L 9.33 34.0 L 9.45 33.92 L 9.58 33.83 L 9.7 33.75 L 9.83 33.67 L 9.95 33.58 L 10.08 33.5 L 10.2 33.42 L 10.33 33.33 L 10.45 33.25 L 10.58 33.17 L 10.7 33.08 L 10.83 33.0" fill="none" stroke="#111" stroke-width="1.37" stroke-linecap="round" stroke-linejoin="round"/>
<path d="M 11.83 27.0 L 11.79 27.25 L 11.74 27.5 L 11.7 27.75 L 11.66 28.0 L 11.62 28.25 L 11.58 28.5 L 11.54 28.75 L 11.49 29.0 L 11.45 29.25 L 11.41 29.5 L 11.37 29.75 L 11.33 30.0 L 11.29 30.25 L 11.24 30.5 L 11.2 30.75 L 11.16 31.0 L 11.12 31.25 L 11.08 31.5 L 11.04 31.75 L 10.99 32.0 L 10.95 32.25 L 10.91 32.5 L 10.87 32.75 L 10.83 33.0" fill="none" stroke="#111" stroke-width="1.37" stroke-linecap="round" stroke-linejoin="round"/>
<path d="M 4.83 30.0 L 5.08 30.0 L 5.33 30.0 L 5.58 30.0 L 5.83 30.0 L 6.08 30.0 L 6.33 30.0 L 6.58 30.0 L 6.83 30.0 L 7.08 30.0 L 7.33 30.0 L 7.58 30.0 L 7.83 30.0 L 8.08 30.0 L 8.33 30.0 L 8.58 30.0 L 8.83 30.0 L 9.08 30.0 L 9.33 30.0 L 9.58 30.0 L 9.83 30.0 L 10.08 30.0 L 10.33 30.0 L 10.58 30.0 L 10.83 30.0" fill="none" stroke="#111" stroke-width="1.37" stroke-linecap="round" stroke-linejoin="round"/>
</svg>
