<?xml version="1.0" encoding="UTF-8"?>
<svg xmlns="http://www.w3.org/2000/svg" viewBox="0 0 21.89 34.31">
<path d="M 6.0 10.31 L 6.09 8.81 L 6.55 7.38 L 7.36 6.11 L 8.46 5.08 L 9.78 4.37 L 11.24 4.0 L 12.74 4.01 L 14.19 4.4 L 15.5 5.14 L 16.59 6.18 L 17.37 7.46 L 17.82 8.9 L 17.89 10.4 L 17.58 11.87 L 16.91 13.22 L 15.93 14.35 L 14.69 15.21 L 13.28 15.73 L 11.78 15.87 L 10.3 15.64 L 8.92 15.05 L 7.73 14.13 L 6.81 12.94 L 6.22 11.55" fill="none" stroke="#111" stroke-width="1.20" stroke-linecap="round" stroke-linejoin="round"/>
<path d="M 11.0 9.31 L 10.85 8.93 L 10.75 8.53 L 10.71 8.12 L 10.74 7.71 L 10.82 7.31 L 10.97 6.93 L 11.17 6.57 L 11.42 6.24 L 11.71 5.96 L 12.05 5.72 L 12.41 5.54 L 12.8 5.41 L 13.21 5.34 L 13.62 5.33 L 14.02 5.38 L 14.42 5.49 L 14.79 5.66 L 15.14 5.88 L 15.44 6.16 L 15.71 6.47 L 15.92 6.82 L 16.08 7.2 L 16.19 7.6 L 16.23 8.0" fill="none" stroke="#111" stroke-width="1.20" stroke-linecap="round" stroke-linejoin="round"/>
<path d="M 8.0 10.31 L 8.12 10.52 L 8.25 10.73 L 8.38 10.94 L 8.5 11.14 L 8.62 11.35 L 8.75 11.56 L 8.88 11.77 L 9.0 11.98 L 9.12 12.19 L 9.25 12.39 L 9.38 12.6 L 9.5 12.81 L 9.62 13.02 L 9.75 13.23 L 9.88 13.44 L 10.0 13.64 L 10.12 13.85 L 10.25 14.06 L 10.38 14.27 L 10.5 14.48 L 10.62 14.69 L 10.75 14.89 L 10.88 15.1 L 11.0 15.31 L 11.0 15.31 L 11.08 15.1 L 11.17 14.89 L 11.25 14.69 L 11.33 14.48 L 11.42 14.27 L 11.5 14.06 L 11.58 13.85 L 11.67 13.64 L 11.75 13.44 L 11.83 13.23 L 11.92 13.02 L 12.0 12.81 L 12.08 12.6 L 12.17 12.39 L 12.25 12.19 L 12.33 11.98 L 12.42 11.77 L 12.5 11.56 L 12.58 11.35 L 12.67 11.14 L 12.75 10.94 L 12.83 10.73 L 12.92 10.52 L 13.0 10.31" fill="none" stroke="#111" stroke-width="1.20" stroke-linecap="round" stroke-linejoin="round"/>
<path d="M 4.0 12.31 L 4.29 12.56 L 4.58 12.81 L 4.88 13.06 L 5.17 13.31 L 5.46 13.56 L 5.75 13.81 L 6.04 14.06 L 6.33 14.31 L 6.62 14.56 L 6.92 14.81 L 7.21 15.06 L 7.5 15.31 L 7.79 15.56 L 8.08 15.81 L 8.38 16.06 L 8.67 16.31 L 8.96 16.56 L 9.25 16.81 L 9.54 17.06 L 9.83 17.31 L 10.12 17.56 L 10.42 17.81 L 10.71 18.06 L 11.0 18.31" fill="none" stroke="#111" stroke-width="1.20" stroke-linecap="round" stroke-linejoin="round"/>
<path d="M 11.0 22.31 L 11.25 22.06 L 11.5 21.81 L 11.75 21.56 L 12.0 21.31 L 12.25 21.06 L 12.5 20.81 L 12.75 20.56 L 13.0 20.31 L 13.25 20.06 L 13.5 19.81 L 13.75 19.56 L 14.0 19.31 L 14.25 19.06 L 14.5 18.81 L 14.75 18.56 L 15.0 18.31 L 15.25 18.06 L 15.5 17.81 L 15.75 17.56 L 16.0 17.31 L 16.25 17.06 L 16.5 16.81 L 16.75 16.56 L 17.0 16.31" fill="none" stroke="#111" stroke-width="1.20" stroke-linecap="round" stroke-linejoin="round"/>
<path d="M 6.0 30.31 L 6.21 29.98 L 6.42 29.64 L 6.62 29.31 L 6.83 28.98 L 7.04 28.64 L 7.25 28.31 L 7.46 27.98 L 7.67 27.64 L 7.88 27.31 L 8.08 26.98 L 8.29 26.64 L 8.5 26.31 L 8.71 25.98 L 8.92 25.64 L 9.12 25.31 L 9.33 24.98 L 9.54 24.64 L 9.75 24.31 L 9.96 23.98 L 10.17 23.64 L 10.38 23.31 L 10.58 22.98 L 10.79 22.64 L 11.0 22.31 L 11.0 22.31 L 11.17 22.64 L 11.33 22.98 L 11.5 23.31 L 11.67 23.64 L 11.83 23.98 L 12.0 24.31 L 12.17 24.64 L 12.33 24.98 L 12.5 25.31 L 12.67 25.64 L 12.83 25.98 L 13.0 26.31 L 13.17 26.64 L 13.33 26.98 L 13.5 27.31 L 13.67 27.64 L 13.83 27.98 L 14.0 28.31 L 14.17 28.64 L 14.33 28.98 L 14.5 29.31 L 14.67 29.64 L 14.83 29.98 L 15.0 30.31" fill="none" stroke="#111" stroke-width="1.20" stroke-linecap="round" stroke-linejoin="round"/>
</svg>
