<?xml version="1.0" encoding="UTF-8"?>
<svg xmlns="http://www.w3.org/2000/svg" viewBox="0 0 24.62 33.87">
<path d="M 13.2 6.0 L 12.67 6.58 L 12.18 7.19 L 11.73 7.84 L 11.33 8.52 L 10.98 9.22 L 10.68 9.94 L 10.43 10.69 L 10.23 11.45 L 10.09 12.22 L 10.0 13.0 L 9.96 13.78 L 9.98 14.57 L 10.06 15.35 L 10.18 16.13 L 10.36 16.89 L 10.6 17.64 L 10.88 18.37 L 11.22 19.08 L 11.6 19.77 L 12.03 20.42 L 12.51 21.05 L 13.03 21.64 L 13.58 22.19 L 14.18 22.7" fill="none" stroke="#111" stroke-width="1.19" stroke-linecap="round" stroke-linejoin="round"/>
<path d="M 17.2 5.0 L 16.77 5.66 L 16.37 6.35 L 16.01 7.05 L 15.69 7.77 L 15.4 8.5 L 15.15 9.25 L 14.93 10.01 L 14.76 10.78 L 14.62 11.56 L 14.52 12.34 L 14.46 13.13 L 14.44 13.92 L 14.46 14.7 L 14.52 15.49 L 14.62 16.27 L 14.76 17.05 L 14.93 17.82 L 15.15 18.58 L 15.4 19.33 L 15.69 20.06 L 16.01 20.78 L 16.37 21.49 L 16.77 22.17 L 17.2 22.83" fill="none" stroke="#111" stroke-width="1.19" stroke-linecap="round" stroke-linejoin="round"/>
<path d="M 11.2 9.0 L 11.36 9.0 L 11.53 9.0 L 11.7 9.0 L 11.86 9.0 L 12.03 9.0 L 12.2 9.0 L 12.36 9.0 L 12.53 9.0 L 12.7 9.0 L 12.86 9.0 L 13.03 9.0 L 13.2 9.0 L 13.36 9.0 L 13.53 9.0 L 13.7 9.0 L 13.86 9.0 L 14.03 9.0 L 14.2 9.0 L 14.36 9.0 L 14.53 9.0 L 14.7 9.0 L 14.86 9.0 L 15.03 9.0 L 15.2 9.0" fill="none" stroke="#111" stroke-width="1.19" stroke-linecap="round" stroke-linejoin="round"/>
<path d="M 12.2 20.0 L 12.32 19.96 L 12.45 19.92 L 12.57 19.88 L 12.7 19.83 L 12.82 19.79 L 12.95 19.75 L 13.07 19.71 L 13.2 19.67 L 13.32 19.62 L 13.45 19.58 L 13.57 19.54 L 13.7 19.5 L 13.82 19.46 L 13.95 19.42 L 14.07 19.38 L 14.2 19.33 L 14.32 19.29 L 14.45 19.25 L 14.57 19.21 L 14.7 19.17 L 14.82 19.12 L 14.95 19.08 L 15.07 19.04 L 15.2 19.0" fill="none" stroke="#111" stroke-width="1.19" stroke-linecap="round" stroke-linejoin="round"/>
<path d="M 13.2 22.0 L 13.28 21.92 L 13.36 21.83 L 13.45 21.75 L 13.53 21.67 L 13.61 21.58 L 13.7 21.5 L 13.78 21.42 L 13.86 21.33 L 13.95 21.25 L 14.03 21.17 L 14.11 21.08 L 14.2 21.0 L 14.28 20.92 L 14.36 20.83 L 14.45 20.75 L 14.53 20.67 L 14.61 20.58 L 14.7 20.5 L 14.78 20.42 L 14.86 20.33 L 14.95 20.25 L 15.03 20.17 L 15.11 20.08 L 15.2 20.0" fill="none" stroke="#111" stroke-width="1.19" stroke-linecap="round" stroke-linejoin="round"/>
<path d="M 10.2 23.0 L 10.19 23.76 L 10.29 24.52 L 10.5 25.26 L 10.81 25.95 L 11.22 26.6 L 11.73 27.17 L 12.31 27.67 L 12.96 28.08 L 13.66 28.38 L 14.39 28.58 L 15.15 28.68 L 15.92 28.66 L 16.67 28.52 L 17.4 28.28 L 18.08 27.94 L 18.71 27.5 L 19.26 26.97 L 19.73 26.37 L 20.11 25.71 L 20.39 25.0 L 20.56 24.25 L 20.62 23.49 L 20.57 22.73 L 20.41 21.98" fill="none" stroke="#111" stroke-width="1.19" stroke-linecap="round" stroke-linejoin="round"/>
<path d="M 11.2 25.0 L 11.53 25.0 L 11.86 25.0 L 12.2 25.0 L 12.53 25.0 L 12.86 25.0 L 13.2 25.0 L 13.53 25.0 L 13.86 25.0 L 14.2 25.0 L 14.53 25.0 L 14.86 25.0 L 15.2 25.0 L 15.53 25.0 L 15.86 25.0 L 16.2 25.0 L 16.53 25.0 L 16.86 25.0 L 17.2 25.0 L 17.53 25.0 L 17.86 25.0 L 18.2 25.0 L 18.53 25.0 L 18.86 25.0 L 19.2 25.0" fill="none" stroke="#111" stroke-width="1.19" stroke-linecap="round" stroke-linejoin="round"/>
<path d="M 6.2 4.0 L 6.61 4.32 L 7.0 4.66 L 7.36 5.04 L 7.69 5.45 L 7.99 5.88 L 8.25 6.33 L 8.47 6.8 L 8.65 7.29 L 8.8 7.79 L 8.9 8.31 L 8.97 8.82 L 8.99 9.35 L 8.97 9.87 L 8.9 10.39 L 8.8 10.9 L 8.65 11.4 L 8.47 11.89 L 8.25 12.36 L 7.99 12.82 L 7.69 13.25 L 7.36 13.65 L 7.0 14.03 L 6.61 14.38 L 6.2 14.69 L 6.2 15.0 L 6.28 15.25 L 6.36 15.5 L 6.45 15.75 L 6.53 16.0 L 6.61 16.25 L 6.7 16.5 L 6.78 16.75 L 6.86 17.0 L 6.95 17.25 L 7.03 17.5 L 7.11 17.75 L 7.2 18.0 L 7.28 18.25 L 7.36 18.5 L 7.45 18.75 L 7.53 19.0 L 7.61 19.25 L 7.7 19.5 L 7.78 19.75 L 7.86 20.0 L 7.95 20.25 L 8.03 20.5 L 8.11 20.75 L 8.2 21.0" fill="none" stroke="#111" stroke-width="1.19" stroke-linecap="round" stroke-linejoin="round"/>
<path d="M 7.2 19.0 L 6.88 19.37 L 6.58 19.75 L 6.3 20.15 L 6.02 20.55 L 5.77 20.96 L 5.53 21.39 L 5.31 21.82 L 5.1 22.26 L 4.91 22.71 L 4.74 23.16 L 4.59 23.62 L 4.45 24.09 L 4.33 24.56 L 4.23 25.04 L 4.15 25.51 L 4.08 26.0 L 4.04 26.48 L 4.01 26.97 L 4.0 27.45 L 4.01 27.94 L 4.04 28.42 L 4.08 28.91 L 4.15 29.39 L 4.23 29.87" fill="none" stroke="#111" stroke-width="1.19" stroke-linecap="round" stroke-linejoin="round"/>
<path d="M 7.2 6.0 L 7.03 6.21 L 6.88 6.43 L 6.75 6.65 L 6.62 6.89 L 6.51 7.13 L 6.41 7.37 L 6.33 7.63 L 6.26 7.88 L 6.21 8.14 L 6.17 8.4 L 6.15 8.67 L 6.14 8.93 L 6.15 9.2 L 6.17 9.46 L 6.21 9.72 L 6.26 9.98 L 6.33 10.24 L 6.41 10.49 L 6.51 10.74 L 6.62 10.98 L 6.75 11.21 L 6.88 11.44 L 7.03 11.66 L 7.2 11.87" fill="none" stroke="#111" stroke-width="1.19" stroke-linecap="round" stroke-linejoin="round"/>
<path d="M 4.2 19.0 L 4.36 19.21 L 4.53 19.42 L 4.7 19.62 L 4.86 19.83 L 5.03 20.04 L 5.2 20.25 L 5.36 20.46 L 5.53 20.67 L 5.7 20.88 L 5.86 21.08 L 6.03 21.29 L 6.2 21.5 L 6.36 21.71 L 6.53 21.92 L 6.7 22.12 L 6.86 22.33 L 7.03 22.54 L 7.2 22.75 L 7.36 22.96 L 7.53 23.17 L 7.7 23.38 L 7.86 23.58 L 8.03 23.79 L 8.2 24.0" fill="none" stroke="#111" stroke-width="1.19" stroke-linecap="round" stroke-linejoin="round"/>
</svg>
