<?xml version="1.0" encoding="UTF-8"?>
<svg xmlns="http://www.w3.org/2000/svg" viewBox="0 0 19.00 37.00">
<path d="M 10.0 4.0 L 10.0 4.21 L 10.0 4.42 L 10.0 4.62 L 10.0 4.83 L 10.0 5.04 L 10.0 5.25 L 10.0 5.46 L 10.0 5.67 L 10.0 5.88 L 10.0 6.08 L 10.0 6.29 L 10.0 6.5 L 10.0 6.71 L 10.0 6.92 L 10.0 7.12 L 10.0 7.33 L 10.0 7.54 L 10.0 7.75 L 10.0 7.96 L 10.0 8.17 L 10.0 8.38 L 10.0 8.58 L 10.0 8.79 L 10.0 9.0 L 10.0 9.0 L 9.48 9.04 L 8.97 9.13 L 8.48 9.27 L 7.99 9.46 L 7.53 9.7 L 7.1 9.99 L 6.7 10.31 L 6.34 10.68 L 6.01 11.08 L 5.73 11.52 L 5.49 11.98 L 5.3 12.46 L 5.16 12.96 L 5.08 13.47 L 5.04 13.99 L 5.06 14.51 L 5.13 15.02 L 5.26 15.52 L 5.43 16.01 L 5.66 16.48 L 5.93 16.92 L 6.24 17.33 L 6.59 17.71 L 6.98 18.05" fill="none" stroke="#111" stroke-width="1.30" stroke-linecap="round" stroke-linejoin="round"/>
<path d="M 10.0 9.0 L 10.43 9.15 L 10.84 9.34 L 11.24 9.56 L 11.62 9.81 L 11.97 10.09 L 12.31 10.39 L 12.62 10.73 L 12.9 11.08 L 13.16 11.46 L 13.38 11.85 L 13.58 12.26 L 13.74 12.68 L 13.86 13.12 L 13.95 13.56 L 14.01 14.02 L 14.03 14.47 L 14.02 14.92 L 13.97 15.37 L 13.88 15.82 L 13.76 16.26 L 13.61 16.68 L 13.43 17.1 L 13.21 17.49 L 12.96 17.87 L 13.0 18.0 L 12.96 17.88 L 12.92 17.75 L 12.88 17.62 L 12.83 17.5 L 12.79 17.38 L 12.75 17.25 L 12.71 17.12 L 12.67 17.0 L 12.62 16.88 L 12.58 16.75 L 12.54 16.62 L 12.5 16.5 L 12.46 16.38 L 12.42 16.25 L 12.38 16.12 L 12.33 16.0 L 12.29 15.88 L 12.25 15.75 L 12.21 15.62 L 12.17 15.5 L 12.12 15.38 L 12.08 15.25 L 12.04 15.12 L 12.0 15.0" fill="none" stroke="#111" stroke-width="1.30" stroke-linecap="round" stroke-linejoin="round"/>
<path d="M 7.0 18.0 L 7.04 17.88 L 7.08 17.75 L 7.12 17.62 L 7.17 17.5 L 7.21 17.38 L 7.25 17.25 L 7.29 17.12 L 7.33 17.0 L 7.38 16.88 L 7.42 16.75 L 7.46 16.62 L 7.5 16.5 L 7.54 16.38 L 7.58 16.25 L 7.62 16.12 L 7.67 16.0 L 7.71 15.88 L 7.75 15.75 L 7.79 15.62 L 7.83 15.5 L 7.88 15.38 L 7.92 15.25 L 7.96 15.12 L 8.0 15.0" fill="none" stroke="#111" stroke-width="1.30" stroke-linecap="round" stroke-linejoin="round"/>
<path d="M 4.0 7.0 L 4.08 7.17 L 4.17 7.33 L 4.25 7.5 L 4.33 7.67 L 4.42 7.83 L 4.5 8.0 L 4.58 8.17 L 4.67 8.33 L 4.75 8.5 L 4.83 8.67 L 4.92 8.83 L 5.0 9.0 L 5.08 9.17 L 5.17 9.33 L 5.25 9.5 L 5.33 9.67 L 5.42 9.83 L 5.5 10.0 L 5.58 10.17 L 5.67 10.33 L 5.75 10.5 L 5.83 10.67 L 5.92 10.83 L 6.0 11.0" fill="none" stroke="#111" stroke-width="1.30" stroke-linecap="round" stroke-linejoin="round"/>
<path d="M 15.0 8.0 L 14.88 8.17 L 14.75 8.33 L 14.62 8.5 L 14.5 8.67 L 14.38 8.83 L 14.25 9.0 L 14.12 9.17 L 14.0 9.33 L 13.88 9.5 L 13.75 9.67 L 13.62 9.83 L 13.5 10.0 L 13.38 10.17 L 13.25 10.33 L 13.12 10.5 L 13.0 10.67 L 12.88 10.83 L 12.75 11.0 L 12.62 11.17 L 12.5 11.33 L 12.38 11.5 L 12.25 11.67 L 12.12 11.83 L 12.0 12.0" fill="none" stroke="#111" stroke-width="1.30" stroke-linecap="round" stroke-linejoin="round"/>
<path d="M 5.0 12.0 L 5.33 12.0 L 5.67 12.0 L 6.0 12.0 L 6.33 12.0 L 6.67 12.0 L 7.0 12.0 L 7.33 12.0 L 7.67 12.0 L 8.0 12.0 L 8.33 12.0 L 8.67 12.0 L 9.0 12.0 L 9.33 12.0 L 9.67 12.0 L 10.0 12.0 L 10.33 12.0 L 10.67 12.0 L 11.0 12.0 L 11.33 12.0 L 11.67 12.0 L 12.0 12.0 L 12.33 12.0 L 12.67 12.0 L 13.0 12.0" fill="none" stroke="#111" stroke-width="1.30" stroke-linecap="round" stroke-linejoin="round"/>
<path d="M 9.0 15.0 L 9.0 15.75 L 9.0 16.5 L 9.0 17.25 L 9.0 18.0 L 9.0 18.75 L 9.0 19.5 L 9.0 20.25 L 9.0 21.0 L 9.0 21.75 L 9.0 22.5 L 9.0 23.25 L 9.0 24.0 L 9.0 24.75 L 9.0 25.5 L 9.0 26.25 L 9.0 27.0 L 9.0 27.75 L 9.0 28.5 L 9.0 29.25 L 9.0 30.0 L 9.0 30.75 L 9.0 31.5 L 9.0 32.25 L 9.0 33.0" fill="none" stroke="#111" stroke-width="1.30" stroke-linecap="round" stroke-linejoin="round"/>
<path d="M 6.0 24.0 L 6.12 24.12 L 6.25 24.25 L 6.38 24.38 L 6.5 24.5 L 6.62 24.62 L 6.75 24.75 L 6.88 24.88 L 7.0 25.0 L 7.12 25.12 L 7.25 25.25 L 7.38 25.38 L 7.5 25.5 L 7.62 25.62 L 7.75 25.75 L 7.88 25.88 L 8.0 26.0 L 8.12 26.12 L 8.25 26.25 L 8.38 26.38 L 8.5 26.5 L 8.62 26.62 L 8.75 26.75 L 8.88 26.88 L 9.0 27.0" fill="none" stroke="#111" stroke-width="1.30" stroke-linecap="round" stroke-linejoin="round"/>
<path d="M 9.0 25.0 L 9.25 24.75 L 9.5 24.5 L 9.75 24.25 L 10.0 24.0 L 10.25 23.75 L 10.5 23.5 L 10.75 23.25 L 11.0 23.0 L 11.25 22.75 L 11.5 22.5 L 11.75 22.25 L 12.0 22.0 L 12.25 21.75 L 12.5 21.5 L 12.75 21.25 L 13.0 21.0 L 13.25 20.75 L 13.5 20.5 L 13.75 20.25 L 14.0 20.0 L 14.25 19.75 L 14.5 19.5 L 14.75 19.25 L 15.0 19.0" fill="none" stroke="#111" stroke-width="1.30" stroke-linecap="round" stroke-linejoin="round"/>
<path d="M 4.0 31.0 L 4.15 30.52 L 4.34 30.06 L 4.59 29.62 L 4.89 29.21 L 5.22 28.84 L 5.6 28.51 L 6.01 28.22 L 6.45 27.98 L 6.92 27.79 L 7.4 27.66 L 7.9 27.57 L 8.4 27.54 L 8.9 27.57 L 9.4 27.66 L 9.88 27.79 L 10.34 27.98 L 10.78 28.22 L 11.2 28.51 L 11.57 28.84 L 11.91 29.21 L 12.21 29.62 L 12.45 30.06 L 12.65 30.52 L 12.8 31.0" fill="none" stroke="#111" stroke-width="1.30" stroke-linecap="round" stroke-linejoin="round"/>
</svg>
