<?xml version="1.0" encoding="UTF-8"?>
<svg xmlns="http://www.w3.org/2000/svg" viewBox="0 0 21.96 35.00">
<path d="M 4.0 7.0 L 4.12 7.33 L 4.25 7.67 L 4.38 8.0 L 4.5 8.33 L 4.62 8.67 L 4.75 9.0 L 4.88 9.33 L 5.0 9.67 L 5.12 10.0 L 5.25 10.33 L 5.38 10.67 L 5.5 11.0 L 5.62 11.33 L 5.75 11.67 L 5.88 12.0 L 6.0 12.33 L 6.12 12.67 L 6.25 13.0 L 6.38 13.33 L 6.5 13.67 L 6.62 14.0 L 6.75 14.33 L 6.88 14.67 L 7.0 15.0 L 7.0 15.0 L 6.6 15.37 L 6.23 15.77 L 5.89 16.19 L 5.57 16.63 L 5.28 17.09 L 5.02 17.56 L 4.79 18.06 L 4.6 18.56 L 4.43 19.08 L 4.3 19.61 L 4.21 20.14 L 4.14 20.68 L 4.12 21.22 L 4.12 21.77 L 4.16 22.31 L 4.24 22.85 L 4.35 23.38 L 4.49 23.9 L 4.67 24.41 L 4.88 24.92 L 5.12 25.4 L 5.39 25.87 L 5.69 26.32 L 6.02 26.76" fill="none" stroke="#111" stroke-width="1.23" stroke-linecap="round" stroke-linejoin="round"/>
<path d="M 10.0 4.0 L 9.96 4.29 L 9.92 4.58 L 9.88 4.88 L 9.83 5.17 L 9.79 5.46 L 9.75 5.75 L 9.71 6.04 L 9.67 6.33 L 9.62 6.62 L 9.58 6.92 L 9.54 7.21 L 9.5 7.5 L 9.46 7.79 L 9.42 8.08 L 9.38 8.38 L 9.33 8.67 L 9.29 8.96 L 9.25 9.25 L 9.21 9.54 L 9.17 9.83 L 9.12 10.12 L 9.08 10.42 L 9.04 10.71 L 9.0 11.0 L 9.0 11.0 L 9.21 11.46 L 9.42 11.92 L 9.62 12.38 L 9.83 12.83 L 10.04 13.29 L 10.25 13.75 L 10.46 14.21 L 10.67 14.67 L 10.88 15.12 L 11.08 15.58 L 11.29 16.04 L 11.5 16.5 L 11.71 16.96 L 11.92 17.42 L 12.12 17.88 L 12.33 18.33 L 12.54 18.79 L 12.75 19.25 L 12.96 19.71 L 13.17 20.17 L 13.38 20.62 L 13.58 21.08 L 13.79 21.54 L 14.0 22.0 L 14.0 22.0 L 13.24 22.07 L 12.5 22.28 L 11.81 22.61 L 11.19 23.07 L 10.66 23.62 L 10.24 24.27 L 9.94 24.97 L 9.78 25.72 L 9.74 26.49 L 9.85 27.25 L 10.09 27.98 L 10.46 28.65 L 10.94 29.25 L 11.52 29.75 L 12.18 30.14 L 12.9 30.41 L 13.65 30.54 L 14.42 30.54 L 15.18 30.4 L 15.89 30.12 L 16.55 29.73 L 17.12 29.22 L 17.6 28.62 L 17.96 27.94 L 16.0 25.0 L 15.88 25.25 L 15.75 25.5 L 15.62 25.75 L 15.5 26.0 L 15.38 26.25 L 15.25 26.5 L 15.12 26.75 L 15.0 27.0 L 14.88 27.25 L 14.75 27.5 L 14.62 27.75 L 14.5 28.0 L 14.38 28.25 L 14.25 28.5 L 14.12 28.75 L 14.0 29.0 L 13.88 29.25 L 13.75 29.5 L 13.62 29.75 L 13.5 30.0 L 13.38 30.25 L 13.25 30.5 L 13.12 30.75 L 13.0 31.0" fill="none" stroke="#111" stroke-width="1.23" stroke-linecap="round" stroke-linejoin="round"/>
<path d="M 15.0 4.0 L 15.41 4.4 L 15.77 4.83 L 16.1 5.3 L 16.38 5.8 L 16.62 6.32 L 16.81 6.85 L 16.94 7.41 L 17.03 7.97 L 17.06 8.54 L 17.04 9.11 L 16.97 9.68 L 16.84 10.23 L 16.67 10.77 L 16.44 11.3 L 16.17 11.8 L 15.85 12.27 L 15.49 12.72 L 15.1 13.12 L 14.66 13.49 L 14.2 13.82 L 13.7 14.1 L 13.18 14.34 L 12.64 14.53 L 12.09 14.67 L 12.0 15.0 L 11.92 15.38 L 11.83 15.75 L 11.75 16.12 L 11.67 16.5 L 11.58 16.88 L 11.5 17.25 L 11.42 17.62 L 11.33 18.0 L 11.25 18.38 L 11.17 18.75 L 11.08 19.12 L 11.0 19.5 L 10.92 19.88 L 10.83 20.25 L 10.75 20.62 L 10.67 21.0 L 10.58 21.38 L 10.5 21.75 L 10.42 22.12 L 10.33 22.5 L 10.25 22.88 L 10.17 23.25 L 10.08 23.62 L 10.0 24.0" fill="none" stroke="#111" stroke-width="1.23" stroke-linecap="round" stroke-linejoin="round"/>
<path d="M 11.0 8.0 L 11.12 8.0 L 11.25 8.0 L 11.38 8.0 L 11.5 8.0 L 11.62 8.0 L 11.75 8.0 L 11.88 8.0 L 12.0 8.0 L 12.12 8.0 L 12.25 8.0 L 12.38 8.0 L 12.5 8.0 L 12.62 8.0 L 12.75 8.0 L 12.88 8.0 L 13.0 8.0 L 13.12 8.0 L 13.25 8.0 L 13.38 8.0 L 13.5 8.0 L 13.62 8.0 L 13.75 8.0 L 13.88 8.0 L 14.0 8.0" fill="none" stroke="#111" stroke-width="1.23" stroke-linecap="round" stroke-linejoin="round"/>
</svg>
