<?xml version="1.0" encoding="UTF-8"?>
<svg xmlns="http://www.w3.org/2000/svg" viewBox="0 0 19.00 34.13">
<path d="M 6.0 5.0 L 5.92 5.12 L 5.83 5.25 L 5.75 5.38 L 5.67 5.5 L 5.58 5.62 L 5.5 5.75 L 5.42 5.88 L 5.33 6.0 L 5.25 6.12 L 5.17 6.25 L 5.08 6.38 L 5.0 6.5 L 4.92 6.62 L 4.83 6.75 L 4.75 6.88 L 4.67 7.0 L 4.58 7.12 L 4.5 7.25 L 4.42 7.38 L 4.33 7.5 L 4.25 7.62 L 4.17 7.75 L 4.08 7.88 L 4.0 8.0 L 4.0 8.0 L 4.17 8.25 L 4.33 8.5 L 4.5 8.75 L 4.67 9.0 L 4.83 9.25 L 5.0 9.5 L 5.17 9.75 L 5.33 10.0 L 5.5 10.25 L 5.67 10.5 L 5.83 10.75 L 6.0 11.0 L 6.17 11.25 L 6.33 11.5 L 6.5 11.75 L 6.67 12.0 L 6.83 12.25 L 7.0 12.5 L 7.17 12.75 L 7.33 13.0 L 7.5 13.25 L 7.67 13.5 L 7.83 13.75 L 8.0 14.0 L 8.0 14.0 L 7.92 14.08 L 7.83 14.17 L 7.75 14.25 L 7.67 14.33 L 7.58 14.42 L 7.5 14.5 L 7.42 14.58 L 7.33 14.67 L 7.25 14.75 L 7.17 14.83 L 7.08 14.92 L 7.0 15.0 L 6.92 15.08 L 6.83 15.17 L 6.75 15.25 L 6.67 15.33 L 6.58 15.42 L 6.5 15.5 L 6.42 15.58 L 6.33 15.67 L 6.25 15.75 L 6.17 15.83 L 6.08 15.92 L 6.0 16.0 L 6.0 16.0 L 5.92 15.88 L 5.83 15.75 L 5.75 15.62 L 5.67 15.5 L 5.58 15.38 L 5.5 15.25 L 5.42 15.12 L 5.33 15.0 L 5.25 14.88 L 5.17 14.75 L 5.08 14.62 L 5.0 14.5 L 4.92 14.38 L 4.83 14.25 L 4.75 14.12 L 4.67 14.0 L 4.58 13.88 L 4.5 13.75 L 4.42 13.62 L 4.33 13.5 L 4.25 13.38 L 4.17 13.25 L 4.08 13.12 L 4.0 13.0 L 4.0 13.0 L 4.44 12.98 L 4.87 12.92 L 5.29 12.8 L 5.7 12.64 L 6.08 12.44 L 6.44 12.19 L 6.77 11.91 L 7.07 11.59 L 7.33 11.24 L 7.55 10.86 L 7.72 10.46 L 7.85 10.04 L 7.94 9.61 L 7.97 9.18 L 7.95 8.74 L 7.89 8.31 L 7.78 7.89 L 7.62 7.48 L 7.42 7.1 L 7.17 6.73 L 6.89 6.4 L 6.57 6.1 L 6.22 5.84 L 5.84 5.62" fill="none" stroke="#111" stroke-width="1.19" stroke-linecap="round" stroke-linejoin="round"/>
<path d="M 13.0 4.0 L 12.68 4.27 L 12.39 4.57 L 12.13 4.9 L 11.91 5.25 L 11.72 5.62 L 11.56 6.0 L 11.44 6.4 L 11.37 6.81 L 11.33 7.23 L 11.33 7.65 L 11.37 8.06 L 11.45 8.47 L 11.57 8.87 L 11.73 9.25 L 11.93 9.62 L 12.16 9.97 L 12.42 10.3 L 12.71 10.59 L 13.03 10.86 L 13.37 11.1 L 13.74 11.3 L 14.12 11.47 L 14.51 11.6 L 14.92 11.69 L 15.0 12.0 L 14.88 12.12 L 14.75 12.25 L 14.62 12.38 L 14.5 12.5 L 14.38 12.62 L 14.25 12.75 L 14.12 12.88 L 14.0 13.0 L 13.88 13.12 L 13.75 13.25 L 13.62 13.38 L 13.5 13.5 L 13.38 13.62 L 13.25 13.75 L 13.12 13.88 L 13.0 14.0 L 12.88 14.12 L 12.75 14.25 L 12.62 14.38 L 12.5 14.5 L 12.38 14.62 L 12.25 14.75 L 12.12 14.88 L 12.0 15.0" fill="none" stroke="#111" stroke-width="1.19" stroke-linecap="round" stroke-linejoin="round"/>
<path d="M 13.0 4.0 L 13.08 4.17 L 13.17 4.33 L 13.25 4.5 L 13.33 4.67 L 13.42 4.83 L 13.5 5.0 L 13.58 5.17 L 13.67 5.33 L 13.75 5.5 L 13.83 5.67 L 13.92 5.83 L 14.0 6.0 L 14.08 6.17 L 14.17 6.33 L 14.25 6.5 L 14.33 6.67 L 14.42 6.83 L 14.5 7.0 L 14.58 7.17 L 14.67 7.33 L 14.75 7.5 L 14.83 7.67 L 14.92 7.83 L 15.0 8.0 L 15.0 8.0 L 14.64 8.06 L 14.28 8.16 L 13.94 8.28 L 13.6 8.44 L 13.28 8.62 L 12.98 8.83 L 12.7 9.06 L 12.44 9.32 L 12.2 9.6 L 11.99 9.9 L 11.8 10.21 L 11.64 10.54 L 11.51 10.89 L 11.41 11.24 L 11.34 11.6 L 11.3 11.97 L 11.3 12.33 L 11.32 12.7 L 11.38 13.06 L 11.47 13.42 L 11.59 13.77 L 11.73 14.1 L 11.91 14.43 L 12.11 14.73" fill="none" stroke="#111" stroke-width="1.19" stroke-linecap="round" stroke-linejoin="round"/>
<path d="M 6.0 16.0 L 6.68 16.26 L 7.34 16.57 L 7.97 16.94 L 8.56 17.37 L 9.11 17.84 L 9.62 18.37 L 10.08 18.93 L 10.49 19.53 L 10.85 20.17 L 11.14 20.84 L 11.38 21.53 L 11.55 22.24 L 11.66 22.96 L 11.71 23.69 L 11.69 24.42 L 11.61 25.14 L 11.47 25.85 L 11.26 26.55 L 10.99 27.23 L 10.67 27.88 L 10.28 28.5 L 9.85 29.09 L 9.36 29.63 L 8.83 30.13" fill="none" stroke="#111" stroke-width="1.19" stroke-linecap="round" stroke-linejoin="round"/>
<path d="M 12.0 15.0 L 11.92 15.12 L 11.83 15.25 L 11.75 15.38 L 11.67 15.5 L 11.58 15.62 L 11.5 15.75 L 11.42 15.88 L 11.33 16.0 L 11.25 16.12 L 11.17 16.25 L 11.08 16.38 L 11.0 16.5 L 10.92 16.62 L 10.83 16.75 L 10.75 16.88 L 10.67 17.0 L 10.58 17.12 L 10.5 17.25 L 10.42 17.38 L 10.33 17.5 L 10.25 17.62 L 10.17 17.75 L 10.08 17.88 L 10.0 18.0" fill="none" stroke="#111" stroke-width="1.19" stroke-linecap="round" stroke-linejoin="round"/>
<path d="M 6.0 21.0 L 6.12 21.17 L 6.25 21.33 L 6.38 21.5 L 6.5 21.67 L 6.62 21.83 L 6.75 22.0 L 6.88 22.17 L 7.0 22.33 L 7.12 22.5 L 7.25 22.67 L 7.38 22.83 L 7.5 23.0 L 7.62 23.17 L 7.75 23.33 L 7.88 23.5 L 8.0 23.67 L 8.12 23.83 L 8.25 24.0 L 8.38 24.17 L 8.5 24.33 L 8.62 24.5 L 8.75 24.67 L 8.88 24.83 L 9.0 25.0 L 9.0 25.0 L 9.17 24.83 L 9.33 24.67 L 9.5 24.5 L 9.67 24.33 L 9.83 24.17 L 10.0 24.0 L 10.17 23.83 L 10.33 23.67 L 10.5 23.5 L 10.67 23.33 L 10.83 23.17 L 11.0 23.0 L 11.17 22.83 L 11.33 22.67 L 11.5 22.5 L 11.67 22.33 L 11.83 22.17 L 12.0 22.0 L 12.17 21.83 L 12.33 21.67 L 12.5 21.5 L 12.67 21.33 L 12.83 21.17 L 13.0 21.0" fill="none" stroke="#111" stroke-width="1.19" stroke-linecap="round" stroke-linejoin="round"/>
<path d="M 4.0 30.0 L 4.21 29.79 L 4.42 29.58 L 4.62 29.38 L 4.83 29.17 L 5.04 28.96 L 5.25 28.75 L 5.46 28.54 L 5.67 28.33 L 5.88 28.12 L 6.08 27.92 L 6.29 27.71 L 6.5 27.5 L 6.71 27.29 L 6.92 27.08 L 7.12 26.88 L 7.33 26.67 L 7.54 26.46 L 7.75 26.25 L 7.96 26.04 L 8.17 25.83 L 8.38 25.62 L 8.58 25.42 L 8.79 25.21 L 9.0 25.0 L 9.0 25.0 L 9.21 25.21 L 9.42 25.42 L 9.62 25.62 L 9.83 25.83 L 10.04 26.04 L 10.25 26.25 L 10.46 26.46 L 10.67 26.67 L 10.88 26.88 L 11.08 27.08 L 11.29 27.29 L 11.5 27.5 L 11.71 27.71 L 11.92 27.92 L 12.12 28.12 L 12.33 28.33 L 12.54 28.54 L 12.75 28.75 L 12.96 28.96 L 13.17 29.17 L 13.38 29.38 L 13.58 29.58 L 13.79 29.79 L 14.0 30.0" fill="none" stroke="#111" stroke-width="1.19" stroke-linecap="round" stroke-linejoin="round"/>
</svg>
