<?xml version="1.0" encoding="UTF-8"?>
<svg xmlns="http://www.w3.org/2000/svg" viewBox="0 0 22.14 34.91">
<path d="M 10.11 8.91 L 9.74 8.58 L 9.44 8.19 L 9.21 7.75 L 9.07 7.28 L 9.01 6.79 L 9.04 6.3 L 9.16 5.82 L 9.37 5.37 L 9.66 4.96 L 10.01 4.61 L 10.42 4.34 L 10.87 4.14 L 11.35 4.02 L 11.85 4.0 L 12.34 4.07 L 12.81 4.22 L 13.25 4.46 L 13.63 4.77 L 13.95 5.14 L 14.2 5.57 L 14.37 6.03 L 14.45 6.52 L 14.44 7.02 L 14.35 7.5 L 13.11 7.91 L 12.94 7.9 L 12.77 7.89 L 12.59 7.89 L 12.42 7.9 L 12.25 7.91 L 12.08 7.94 L 11.91 7.97 L 11.74 8.01 L 11.57 8.06 L 11.41 8.12 L 11.25 8.19 L 11.09 8.26 L 10.94 8.34 L 10.79 8.43 L 10.65 8.53 L 10.51 8.63 L 10.37 8.74 L 10.24 8.85 L 10.12 8.98 L 10.0 9.11 L 9.89 9.24 L 9.79 9.38 L 9.69 9.52 L 9.6 9.67" fill="none" stroke="#111" stroke-width="1.22" stroke-linecap="round" stroke-linejoin="round"/>
<path d="M 11.11 8.91 L 11.11 9.83 L 11.11 10.75 L 11.11 11.66 L 11.11 12.58 L 11.11 13.5 L 11.11 14.41 L 11.11 15.33 L 11.11 16.25 L 11.11 17.16 L 11.11 18.08 L 11.11 19.0 L 11.11 19.91 L 11.11 20.83 L 11.11 21.75 L 11.11 22.66 L 11.11 23.58 L 11.11 24.5 L 11.11 25.41 L 11.11 26.33 L 11.11 27.25 L 11.11 28.16 L 11.11 29.08 L 11.11 30.0 L 11.11 30.91" fill="none" stroke="#111" stroke-width="1.22" stroke-linecap="round" stroke-linejoin="round"/>
<path d="M 6.11 9.91 L 5.91 10.15 L 5.71 10.39 L 5.53 10.64 L 5.35 10.9 L 5.18 11.16 L 5.03 11.43 L 4.88 11.7 L 4.74 11.98 L 4.62 12.27 L 4.51 12.56 L 4.4 12.85 L 4.31 13.15 L 4.23 13.45 L 4.16 13.76 L 4.11 14.06 L 4.06 14.37 L 4.03 14.68 L 4.01 14.99 L 4.0 15.3 L 4.0 15.61 L 4.02 15.92 L 4.04 16.23 L 4.08 16.54 L 4.13 16.85 L 4.11 16.91 L 4.5 16.88 L 4.87 16.81 L 5.24 16.69 L 5.6 16.54 L 5.93 16.35 L 6.25 16.13 L 6.54 15.88 L 6.8 15.6 L 7.03 15.29 L 7.23 14.96 L 7.39 14.61 L 7.52 14.24 L 7.6 13.87 L 7.65 13.49 L 7.66 13.1 L 7.62 12.72 L 7.55 12.34 L 7.44 11.97 L 7.29 11.62 L 7.1 11.28 L 6.88 10.97 L 6.63 10.67 L 6.34 10.41 L 6.04 10.18" fill="none" stroke="#111" stroke-width="1.22" stroke-linecap="round" stroke-linejoin="round"/>
<path d="M 18.11 7.91 L 17.75 7.98 L 17.4 8.07 L 17.05 8.2 L 16.72 8.35 L 16.4 8.53 L 16.1 8.74 L 15.81 8.98 L 15.55 9.23 L 15.31 9.51 L 15.1 9.81 L 14.91 10.13 L 14.75 10.46 L 14.62 10.8 L 14.52 11.16 L 14.45 11.52 L 14.42 11.88 L 14.41 12.25 L 14.44 12.62 L 14.49 12.98 L 14.58 13.34 L 14.7 13.68 L 14.85 14.02 L 15.02 14.34 L 15.23 14.65 L 15.11 14.91 L 15.43 14.87 L 15.74 14.79 L 16.05 14.68 L 16.34 14.55 L 16.62 14.39 L 16.88 14.2 L 17.12 13.98 L 17.34 13.75 L 17.54 13.49 L 17.71 13.22 L 17.85 12.93 L 17.97 12.63 L 18.06 12.32 L 18.11 12.01 L 18.14 11.69 L 18.14 11.37 L 18.1 11.05 L 18.03 10.73 L 17.94 10.42 L 17.81 10.13 L 17.66 9.84 L 17.48 9.57 L 17.28 9.33 L 17.05 9.1" fill="none" stroke="#111" stroke-width="1.22" stroke-linecap="round" stroke-linejoin="round"/>
<path d="M 7.11 13.91 L 7.28 14.16 L 7.45 14.41 L 7.61 14.66 L 7.78 14.91 L 7.95 15.16 L 8.11 15.41 L 8.28 15.66 L 8.45 15.91 L 8.61 16.16 L 8.78 16.41 L 8.95 16.66 L 9.11 16.91 L 9.28 17.16 L 9.45 17.41 L 9.61 17.66 L 9.78 17.91 L 9.95 18.16 L 10.11 18.41 L 10.28 18.66 L 10.45 18.91 L 10.61 19.16 L 10.78 19.41 L 10.95 19.66 L 11.11 19.91 L 11.11 19.91 L 11.28 19.71 L 11.45 19.5 L 11.61 19.29 L 11.78 19.08 L 11.95 18.87 L 12.11 18.66 L 12.28 18.46 L 12.45 18.25 L 12.61 18.04 L 12.78 17.83 L 12.95 17.62 L 13.11 17.41 L 13.28 17.21 L 13.45 17.0 L 13.61 16.79 L 13.78 16.58 L 13.95 16.37 L 14.11 16.16 L 14.28 15.96 L 14.45 15.75 L 14.61 15.54 L 14.78 15.33 L 14.95 15.12 L 15.11 14.91" fill="none" stroke="#111" stroke-width="1.22" stroke-linecap="round" stroke-linejoin="round"/>
<path d="M 6.11 28.91 L 6.32 28.54 L 6.53 28.16 L 6.74 27.79 L 6.95 27.41 L 7.16 27.04 L 7.36 26.66 L 7.57 26.29 L 7.78 25.91 L 7.99 25.54 L 8.2 25.16 L 8.41 24.79 L 8.61 24.41 L 8.82 24.04 L 9.03 23.66 L 9.24 23.29 L 9.45 22.91 L 9.66 22.54 L 9.86 22.16 L 10.07 21.79 L 10.28 21.41 L 10.49 21.04 L 10.7 20.66 L 10.91 20.29 L 11.11 19.91" fill="none" stroke="#111" stroke-width="1.22" stroke-linecap="round" stroke-linejoin="round"/>
<path d="M 11.11 23.91 L 11.28 24.16 L 11.45 24.41 L 11.61 24.66 L 11.78 24.91 L 11.95 25.16 L 12.11 25.41 L 12.28 25.66 L 12.45 25.91 L 12.61 26.16 L 12.78 26.41 L 12.95 26.66 L 13.11 26.91 L 13.28 27.16 L 13.45 27.41 L 13.61 27.66 L 13.78 27.91 L 13.95 28.16 L 14.11 28.41 L 14.28 28.66 L 14.45 28.91 L 14.61 29.16 L 14.78 29.41 L 14.95 29.66 L 15.11 29.91" fill="none" stroke="#111" stroke-width="1.22" stroke-linecap="round" stroke-linejoin="round"/>
</svg>
