<?xml version="1.0" encoding="UTF-8"?>
<svg xmlns="http://www.w3.org/2000/svg" viewBox="0 0 22.00 36.00">
<path d="M 13.0 4.0 L 13.04 5.17 L 13.08 6.33 L 13.12 7.5 L 13.17 8.67 L 13.21 9.83 L 13.25 11.0 L 13.29 12.17 L 13.33 13.33 L 13.37 14.5 L 13.42 15.67 L 13.46 16.83 L 13.5 18.0 L 13.54 19.17 L 13.58 20.33 L 13.62 21.5 L 13.67 22.67 L 13.71 23.83 L 13.75 25.0 L 13.79 26.17 L 13.83 27.33 L 13.87 28.5 L 13.92 29.67 L 13.96 30.83 L 14.0 32.0" fill="none" stroke="#111" stroke-width="1.26" stroke-linecap="round" stroke-linejoin="round"/>
<path d="M 9.0 7.0 L 9.17 7.29 L 9.33 7.58 L 9.5 7.88 L 9.67 8.17 L 9.83 8.46 L 10.0 8.75 L 10.17 9.04 L 10.33 9.33 L 10.5 9.62 L 10.67 9.92 L 10.83 10.21 L 11.0 10.5 L 11.17 10.79 L 11.33 11.08 L 11.5 11.38 L 11.67 11.67 L 11.83 11.96 L 12.0 12.25 L 12.17 12.54 L 12.33 12.83 L 12.5 13.12 L 12.67 13.42 L 12.83 13.71 L 13.0 14.0" fill="none" stroke="#111" stroke-width="1.26" stroke-linecap="round" stroke-linejoin="round"/>
<path d="M 13.0 13.0 L 13.17 12.71 L 13.33 12.42 L 13.5 12.12 L 13.67 11.83 L 13.83 11.54 L 14.0 11.25 L 14.17 10.96 L 14.33 10.67 L 14.5 10.38 L 14.67 10.08 L 14.83 9.79 L 15.0 9.5 L 15.17 9.21 L 15.33 8.92 L 15.5 8.62 L 15.67 8.33 L 15.83 8.04 L 16.0 7.75 L 16.17 7.46 L 16.33 7.17 L 16.5 6.88 L 16.67 6.58 L 16.83 6.29 L 17.0 6.0" fill="none" stroke="#111" stroke-width="1.26" stroke-linecap="round" stroke-linejoin="round"/>
<path d="M 8.0 28.0 L 8.25 27.71 L 8.5 27.42 L 8.75 27.12 L 9.0 26.83 L 9.25 26.54 L 9.5 26.25 L 9.75 25.96 L 10.0 25.67 L 10.25 25.38 L 10.5 25.08 L 10.75 24.79 L 11.0 24.5 L 11.25 24.21 L 11.5 23.92 L 11.75 23.62 L 12.0 23.33 L 12.25 23.04 L 12.5 22.75 L 12.75 22.46 L 13.0 22.17 L 13.25 21.88 L 13.5 21.58 L 13.75 21.29 L 14.0 21.0 L 14.0 21.0 L 14.17 21.29 L 14.33 21.58 L 14.5 21.88 L 14.67 22.17 L 14.83 22.46 L 15.0 22.75 L 15.17 23.04 L 15.33 23.33 L 15.5 23.62 L 15.67 23.92 L 15.83 24.21 L 16.0 24.5 L 16.17 24.79 L 16.33 25.08 L 16.5 25.38 L 16.67 25.67 L 16.83 25.96 L 17.0 26.25 L 17.17 26.54 L 17.33 26.83 L 17.5 27.12 L 17.67 27.42 L 17.83 27.71 L 18.0 28.0" fill="none" stroke="#111" stroke-width="1.26" stroke-linecap="round" stroke-linejoin="round"/>
<path d="M 7.0 4.0 L 6.87 4.54 L 6.75 5.08 L 6.62 5.62 L 6.5 6.17 L 6.37 6.71 L 6.25 7.25 L 6.12 7.79 L 6.0 8.33 L 5.88 8.88 L 5.75 9.42 L 5.62 9.96 L 5.5 10.5 L 5.38 11.04 L 5.25 11.58 L 5.12 12.12 L 5.0 12.67 L 4.88 13.21 L 4.75 13.75 L 4.62 14.29 L 4.5 14.83 L 4.38 15.38 L 4.25 15.92 L 4.12 16.46 L 4.0 17.0" fill="none" stroke="#111" stroke-width="1.26" stroke-linecap="round" stroke-linejoin="round"/>
<path d="M 6.0 9.0 L 6.17 9.33 L 6.33 9.67 L 6.5 10.0 L 6.67 10.33 L 6.83 10.67 L 7.0 11.0 L 7.17 11.33 L 7.33 11.67 L 7.5 12.0 L 7.67 12.33 L 7.83 12.67 L 8.0 13.0 L 8.17 13.33 L 8.33 13.67 L 8.5 14.0 L 8.67 14.33 L 8.83 14.67 L 9.0 15.0 L 9.17 15.33 L 9.33 15.67 L 9.5 16.0 L 9.67 16.33 L 9.83 16.67 L 10.0 17.0 L 10.0 17.0 L 9.59 17.43 L 9.19 17.86 L 8.81 18.32 L 8.44 18.78 L 8.09 19.26 L 7.76 19.75 L 7.45 20.25 L 7.15 20.77 L 6.87 21.29 L 6.61 21.82 L 6.37 22.36 L 6.15 22.91 L 5.94 23.47 L 5.76 24.03 L 5.6 24.6 L 5.45 25.18 L 5.33 25.76 L 5.23 26.34 L 5.15 26.93 L 5.08 27.52 L 5.04 28.11 L 5.02 28.7 L 5.02 29.29 L 5.04 29.88" fill="none" stroke="#111" stroke-width="1.26" stroke-linecap="round" stroke-linejoin="round"/>
</svg>
