<?xml version="1.0" encoding="UTF-8"?>
<svg xmlns="http://www.w3.org/2000/svg" viewBox="0 0 17.00 36.00">
<path d="M 9.0 5.0 L 9.0 5.5 L 9.0 6.0 L 9.0 6.5 L 9.0 7.0 L 9.0 7.5 L 9.0 8.0 L 9.0 8.5 L 9.0 9.0 L 9.0 9.5 L 9.0 10.0 L 9.0 10.5 L 9.0 11.0 L 9.0 11.5 L 9.0 12.0 L 9.0 12.5 L 9.0 13.0 L 9.0 13.5 L 9.0 14.0 L 9.0 14.5 L 9.0 15.0 L 9.0 15.5 L 9.0 16.0 L 9.0 16.5 L 9.0 17.0" fill="none" stroke="#111" stroke-width="1.26" stroke-linecap="round" stroke-linejoin="round"/>
<path d="M 5.0 6.0 L 5.17 6.21 L 5.33 6.42 L 5.5 6.62 L 5.67 6.83 L 5.83 7.04 L 6.0 7.25 L 6.17 7.46 L 6.33 7.67 L 6.5 7.88 L 6.67 8.08 L 6.83 8.29 L 7.0 8.5 L 7.17 8.71 L 7.33 8.92 L 7.5 9.12 L 7.67 9.33 L 7.83 9.54 L 8.0 9.75 L 8.17 9.96 L 8.33 10.17 L 8.5 10.38 L 8.67 10.58 L 8.83 10.79 L 9.0 11.0 L 9.0 11.0 L 9.17 10.71 L 9.33 10.42 L 9.5 10.12 L 9.67 9.83 L 9.83 9.54 L 10.0 9.25 L 10.17 8.96 L 10.33 8.67 L 10.5 8.38 L 10.67 8.08 L 10.83 7.79 L 11.0 7.5 L 11.17 7.21 L 11.33 6.92 L 11.5 6.62 L 11.67 6.33 L 11.83 6.04 L 12.0 5.75 L 12.17 5.46 L 12.33 5.17 L 12.5 4.88 L 12.67 4.58 L 12.83 4.29 L 13.0 4.0" fill="none" stroke="#111" stroke-width="1.26" stroke-linecap="round" stroke-linejoin="round"/>
<path d="M 5.0 16.0 L 5.17 15.79 L 5.33 15.58 L 5.5 15.38 L 5.67 15.17 L 5.83 14.96 L 6.0 14.75 L 6.17 14.54 L 6.33 14.33 L 6.5 14.12 L 6.67 13.92 L 6.83 13.71 L 7.0 13.5 L 7.17 13.29 L 7.33 13.08 L 7.5 12.88 L 7.67 12.67 L 7.83 12.46 L 8.0 12.25 L 8.17 12.04 L 8.33 11.83 L 8.5 11.62 L 8.67 11.42 L 8.83 11.21 L 9.0 11.0 L 9.0 11.0 L 9.17 11.17 L 9.33 11.33 L 9.5 11.5 L 9.67 11.67 L 9.83 11.83 L 10.0 12.0 L 10.17 12.17 L 10.33 12.33 L 10.5 12.5 L 10.67 12.67 L 10.83 12.83 L 11.0 13.0 L 11.17 13.17 L 11.33 13.33 L 11.5 13.5 L 11.67 13.67 L 11.83 13.83 L 12.0 14.0 L 12.17 14.17 L 12.33 14.33 L 12.5 14.5 L 12.67 14.67 L 12.83 14.83 L 13.0 15.0" fill="none" stroke="#111" stroke-width="1.26" stroke-linecap="round" stroke-linejoin="round"/>
<path d="M 5.0 19.0 L 5.0 19.12 L 5.0 19.25 L 5.0 19.38 L 5.0 19.5 L 5.0 19.62 L 5.0 19.75 L 5.0 19.88 L 5.0 20.0 L 5.0 20.12 L 5.0 20.25 L 5.0 20.38 L 5.0 20.5 L 5.0 20.62 L 5.0 20.75 L 5.0 20.88 L 5.0 21.0 L 5.0 21.12 L 5.0 21.25 L 5.0 21.38 L 5.0 21.5 L 5.0 21.62 L 5.0 21.75 L 5.0 21.88 L 5.0 22.0 L 5.0 22.0 L 5.44 22.3 L 5.91 22.54 L 6.4 22.73 L 6.92 22.87 L 7.44 22.94 L 7.97 22.96 L 8.5 22.91 L 9.02 22.81 L 9.52 22.65 L 10.01 22.43 L 10.46 22.16 L 10.88 21.84 L 11.26 21.47 L 11.6 21.06 L 11.89 20.62 L 12.13 20.14 L 12.31 19.64 L 12.44 19.13 L 12.5 18.6 L 12.51 18.07 L 12.46 17.55 L 12.34 17.03 L 12.17 16.53 L 11.94 16.05 L 12.0 16.0 L 11.75 16.08 L 11.5 16.17 L 11.25 16.25 L 11.0 16.33 L 10.75 16.42 L 10.5 16.5 L 10.25 16.58 L 10.0 16.67 L 9.75 16.75 L 9.5 16.83 L 9.25 16.92 L 9.0 17.0 L 8.75 17.08 L 8.5 17.17 L 8.25 17.25 L 8.0 17.33 L 7.75 17.42 L 7.5 17.5 L 7.25 17.58 L 7.0 17.67 L 6.75 17.75 L 6.5 17.83 L 6.25 17.92 L 6.0 18.0" fill="none" stroke="#111" stroke-width="1.26" stroke-linecap="round" stroke-linejoin="round"/>
<path d="M 9.0 23.0 L 9.11 23.4 L 9.21 23.8 L 9.28 24.2 L 9.33 24.61 L 9.36 25.03 L 9.36 25.44 L 9.35 25.85 L 9.31 26.26 L 9.26 26.67 L 9.18 27.07 L 9.08 27.47 L 8.96 27.87 L 8.82 28.26 L 8.66 28.64 L 8.48 29.01 L 8.28 29.37 L 8.06 29.72 L 7.82 30.06 L 7.57 30.38 L 7.3 30.69 L 7.01 30.99 L 6.71 31.27 L 6.4 31.54 L 6.07 31.79 L 6.0 32.0 L 5.92 31.83 L 5.83 31.67 L 5.75 31.5 L 5.67 31.33 L 5.58 31.17 L 5.5 31.0 L 5.42 30.83 L 5.33 30.67 L 5.25 30.5 L 5.17 30.33 L 5.08 30.17 L 5.0 30.0 L 4.92 29.83 L 4.83 29.67 L 4.75 29.5 L 4.67 29.33 L 4.58 29.17 L 4.5 29.0 L 4.42 28.83 L 4.33 28.67 L 4.25 28.5 L 4.17 28.33 L 4.08 28.17 L 4.0 28.0" fill="none" stroke="#111" stroke-width="1.26" stroke-linecap="round" stroke-linejoin="round"/>
</svg>
