<?xml version="1.0" encoding="UTF-8"?>
<svg xmlns="http://www.w3.org/2000/svg" viewBox="0 0 27.29 39.32">
<path d="M 6.0 9.32 L 6.0 9.44 L 6.0 9.57 L 6.0 9.69 L 6.0 9.82 L 6.0 9.94 L 6.0 10.07 L 6.0 10.19 L 6.0 10.32 L 6.0 10.44 L 6.0 10.57 L 6.0 10.69 L 6.0 10.82 L 6.0 10.94 L 6.0 11.07 L 6.0 11.19 L 6.0 11.32 L 6.0 11.44 L 6.0 11.57 L 6.0 11.69 L 6.0 11.82 L 6.0 11.94 L 6.0 12.07 L 6.0 12.19 L 6.0 12.32" fill="none" stroke="#111" stroke-width="1.38" stroke-linecap="round" stroke-linejoin="round"/>
<path d="M 6.0 15.32 L 6.0 15.48 L 6.0 15.65 L 6.0 15.82 L 6.0 15.98 L 6.0 16.15 L 6.0 16.32 L 6.0 16.48 L 6.0 16.65 L 6.0 16.82 L 6.0 16.98 L 6.0 17.15 L 6.0 17.32 L 6.0 17.48 L 6.0 17.65 L 6.0 17.82 L 6.0 17.98 L 6.0 18.15 L 6.0 18.32 L 6.0 18.48 L 6.0 18.65 L 6.0 18.82 L 6.0 18.98 L 6.0 19.15 L 6.0 19.32" fill="none" stroke="#111" stroke-width="1.38" stroke-linecap="round" stroke-linejoin="round"/>
<path d="M 9.0 6.32 L 8.46 7.63 L 8.18 9.02 L 8.16 10.44 L 8.41 11.84 L 8.91 13.17 L 9.66 14.38 L 10.61 15.43 L 11.74 16.28 L 13.02 16.91 L 14.38 17.29 L 15.8 17.41 L 17.21 17.26 L 18.57 16.85 L 19.83 16.2 L 20.95 15.32 L 21.88 14.25 L 22.6 13.03 L 23.07 11.69 L 23.29 10.29 L 23.25 8.87 L 22.94 7.49 L 22.37 6.18 L 21.58 5.01 L 20.58 4.0" fill="none" stroke="#111" stroke-width="1.38" stroke-linecap="round" stroke-linejoin="round"/>
<path d="M 10.0 12.32 L 10.37 12.19 L 10.75 12.07 L 11.12 11.94 L 11.5 11.82 L 11.87 11.69 L 12.25 11.57 L 12.62 11.44 L 13.0 11.32 L 13.37 11.19 L 13.75 11.07 L 14.12 10.94 L 14.5 10.82 L 14.87 10.69 L 15.25 10.57 L 15.62 10.44 L 16.0 10.32 L 16.38 10.19 L 16.75 10.07 L 17.12 9.94 L 17.5 9.82 L 17.87 9.69 L 18.25 9.57 L 18.62 9.44 L 19.0 9.32" fill="none" stroke="#111" stroke-width="1.38" stroke-linecap="round" stroke-linejoin="round"/>
<path d="M 9.0 21.32 L 9.0 21.9 L 9.0 22.48 L 9.0 23.07 L 9.0 23.65 L 9.0 24.23 L 9.0 24.82 L 9.0 25.4 L 9.0 25.98 L 9.0 26.57 L 9.0 27.15 L 9.0 27.73 L 9.0 28.32 L 9.0 28.9 L 9.0 29.48 L 9.0 30.07 L 9.0 30.65 L 9.0 31.23 L 9.0 31.82 L 9.0 32.4 L 9.0 32.98 L 9.0 33.57 L 9.0 34.15 L 9.0 34.73 L 9.0 35.32" fill="none" stroke="#111" stroke-width="1.38" stroke-linecap="round" stroke-linejoin="round"/>
<path d="M 9.0 26.32 L 8.79 26.61 L 8.58 26.9 L 8.37 27.19 L 8.17 27.48 L 7.96 27.77 L 7.75 28.07 L 7.54 28.36 L 7.33 28.65 L 7.12 28.94 L 6.92 29.23 L 6.71 29.52 L 6.5 29.82 L 6.29 30.11 L 6.08 30.4 L 5.88 30.69 L 5.67 30.98 L 5.46 31.27 L 5.25 31.57 L 5.04 31.86 L 4.83 32.15 L 4.62 32.44 L 4.42 32.73 L 4.21 33.02 L 4.0 33.32" fill="none" stroke="#111" stroke-width="1.38" stroke-linecap="round" stroke-linejoin="round"/>
<path d="M 9.0 25.32 L 9.25 25.57 L 9.5 25.82 L 9.75 26.07 L 10.0 26.32 L 10.25 26.57 L 10.5 26.82 L 10.75 27.07 L 11.0 27.32 L 11.25 27.57 L 11.5 27.82 L 11.75 28.07 L 12.0 28.32 L 12.25 28.57 L 12.5 28.82 L 12.75 29.07 L 13.0 29.32 L 13.25 29.57 L 13.5 29.82 L 13.75 30.07 L 14.0 30.32 L 14.25 30.57 L 14.5 30.82 L 14.75 31.07 L 15.0 31.32" fill="none" stroke="#111" stroke-width="1.38" stroke-linecap="round" stroke-linejoin="round"/>
<path d="M 17.0 13.32 L 17.04 13.52 L 17.08 13.73 L 17.12 13.94 L 17.17 14.15 L 17.21 14.36 L 17.25 14.57 L 17.29 14.77 L 17.33 14.98 L 17.38 15.19 L 17.42 15.4 L 17.46 15.61 L 17.5 15.82 L 17.54 16.02 L 17.58 16.23 L 17.62 16.44 L 17.67 16.65 L 17.71 16.86 L 17.75 17.07 L 17.79 17.27 L 17.83 17.48 L 17.88 17.69 L 17.92 17.9 L 17.96 18.11 L 18.0 18.32" fill="none" stroke="#111" stroke-width="1.38" stroke-linecap="round" stroke-linejoin="round"/>
</svg>
