<?xml version="1.0" encoding="UTF-8"?>
<svg xmlns="http://www.w3.org/2000/svg" viewBox="0 0 21.88 30.00">
<path d="M 6.88 5.0 L 6.67 5.05 L 6.46 5.11 L 6.25 5.18 L 6.05 5.27 L 5.86 5.36 L 5.67 5.47 L 5.48 5.59 L 5.31 5.73 L 5.15 5.87 L 4.99 6.02 L 4.84 6.18 L 4.71 6.35 L 4.58 6.53 L 4.47 6.72 L 4.36 6.91 L 4.27 7.11 L 4.19 7.31 L 4.13 7.52 L 4.08 7.73 L 4.04 7.95 L 4.01 8.17 L 4.0 8.38 L 4.0 8.6 L 4.02 8.82" fill="none" stroke="#111" stroke-width="1.05" stroke-linecap="round" stroke-linejoin="round"/>
<path d="M 6.88 5.0 L 7.01 5.17 L 7.13 5.33 L 7.26 5.5 L 7.38 5.67 L 7.51 5.83 L 7.63 6.0 L 7.76 6.17 L 7.88 6.33 L 8.01 6.5 L 8.13 6.67 L 8.26 6.83 L 8.38 7.0 L 8.51 7.17 L 8.63 7.33 L 8.76 7.5 L 8.88 7.67 L 9.01 7.83 L 9.13 8.0 L 9.26 8.17 L 9.38 8.33 L 9.51 8.5 L 9.63 8.67 L 9.76 8.83 L 9.88 9.0" fill="none" stroke="#111" stroke-width="1.05" stroke-linecap="round" stroke-linejoin="round"/>
<path d="M 6.88 6.0 L 6.88 6.21 L 6.88 6.42 L 6.88 6.62 L 6.88 6.83 L 6.88 7.04 L 6.88 7.25 L 6.88 7.46 L 6.88 7.67 L 6.88 7.88 L 6.88 8.08 L 6.88 8.29 L 6.88 8.5 L 6.88 8.71 L 6.88 8.92 L 6.88 9.12 L 6.88 9.33 L 6.88 9.54 L 6.88 9.75 L 6.88 9.96 L 6.88 10.17 L 6.88 10.38 L 6.88 10.58 L 6.88 10.79 L 6.88 11.0" fill="none" stroke="#111" stroke-width="1.05" stroke-linecap="round" stroke-linejoin="round"/>
<path d="M 6.88 11.0 L 6.96 11.21 L 7.05 11.42 L 7.13 11.62 L 7.21 11.83 L 7.3 12.04 L 7.38 12.25 L 7.46 12.46 L 7.55 12.67 L 7.63 12.88 L 7.71 13.08 L 7.8 13.29 L 7.88 13.5 L 7.96 13.71 L 8.05 13.92 L 8.13 14.12 L 8.21 14.33 L 8.3 14.54 L 8.38 14.75 L 8.46 14.96 L 8.55 15.17 L 8.63 15.38 L 8.71 15.58 L 8.8 15.79 L 8.88 16.0" fill="none" stroke="#111" stroke-width="1.05" stroke-linecap="round" stroke-linejoin="round"/>
<path d="M 8.88 16.0 L 8.55 16.18 L 8.23 16.39 L 7.93 16.62 L 7.64 16.87 L 7.37 17.14 L 7.12 17.43 L 6.9 17.73 L 6.69 18.05 L 6.51 18.39 L 6.36 18.73 L 6.22 19.09 L 6.12 19.45 L 6.04 19.83 L 5.99 20.2 L 5.96 20.58 L 5.97 20.96 L 5.99 21.34 L 6.05 21.72 L 6.13 22.09 L 6.24 22.45 L 6.38 22.81 L 6.54 23.15 L 6.72 23.48 L 6.93 23.8 L 6.88 24.0 L 7.01 23.96 L 7.13 23.92 L 7.26 23.88 L 7.38 23.83 L 7.51 23.79 L 7.63 23.75 L 7.76 23.71 L 7.88 23.67 L 8.01 23.62 L 8.13 23.58 L 8.26 23.54 L 8.38 23.5 L 8.51 23.46 L 8.63 23.42 L 8.76 23.38 L 8.88 23.33 L 9.01 23.29 L 9.13 23.25 L 9.26 23.21 L 9.38 23.17 L 9.51 23.12 L 9.63 23.08 L 9.76 23.04 L 9.88 23.0" fill="none" stroke="#111" stroke-width="1.05" stroke-linecap="round" stroke-linejoin="round"/>
<path d="M 13.88 4.0 L 13.76 4.17 L 13.63 4.33 L 13.51 4.5 L 13.38 4.67 L 13.26 4.83 L 13.13 5.0 L 13.01 5.17 L 12.88 5.33 L 12.76 5.5 L 12.63 5.67 L 12.51 5.83 L 12.38 6.0 L 12.26 6.17 L 12.13 6.33 L 12.01 6.5 L 11.88 6.67 L 11.76 6.83 L 11.63 7.0 L 11.51 7.17 L 11.38 7.33 L 11.26 7.5 L 11.13 7.67 L 11.01 7.83 L 10.88 8.0" fill="none" stroke="#111" stroke-width="1.05" stroke-linecap="round" stroke-linejoin="round"/>
<path d="M 13.88 4.0 L 14.05 4.25 L 14.21 4.5 L 14.38 4.75 L 14.55 5.0 L 14.71 5.25 L 14.88 5.5 L 15.05 5.75 L 15.21 6.0 L 15.38 6.25 L 15.55 6.5 L 15.71 6.75 L 15.88 7.0 L 16.05 7.25 L 16.21 7.5 L 16.38 7.75 L 16.55 8.0 L 16.71 8.25 L 16.88 8.5 L 17.05 8.75 L 17.21 9.0 L 17.38 9.25 L 17.55 9.5 L 17.71 9.75 L 17.88 10.0" fill="none" stroke="#111" stroke-width="1.05" stroke-linecap="round" stroke-linejoin="round"/>
<path d="M 13.88 5.0 L 13.78 5.51 L 13.69 6.01 L 13.63 6.53 L 13.57 7.04 L 13.54 7.55 L 13.52 8.07 L 13.51 8.59 L 13.52 9.1 L 13.55 9.62 L 13.6 10.13 L 13.66 10.64 L 13.73 11.15 L 13.83 11.66 L 13.94 12.17 L 14.06 12.67 L 14.2 13.16 L 14.36 13.66 L 14.53 14.14 L 14.71 14.62 L 14.92 15.1 L 15.13 15.57 L 15.36 16.03 L 15.61 16.48 L 15.87 16.93 L 15.88 17.0 L 15.46 17.23 L 15.07 17.5 L 14.7 17.81 L 14.37 18.16 L 14.08 18.54 L 13.83 18.94 L 13.62 19.37 L 13.45 19.82 L 13.34 20.29 L 13.27 20.76 L 13.25 21.24 L 13.28 21.72 L 13.35 22.19 L 13.48 22.65 L 13.65 23.1 L 13.87 23.52 L 14.13 23.93 L 14.42 24.3 L 14.76 24.64 L 15.13 24.95 L 15.53 25.21 L 15.95 25.43 L 16.39 25.61 L 16.85 25.75 L 16.88 26.0 L 16.88 25.79 L 16.88 25.58 L 16.88 25.38 L 16.88 25.17 L 16.88 24.96 L 16.88 24.75 L 16.88 24.54 L 16.88 24.33 L 16.88 24.12 L 16.88 23.92 L 16.88 23.71 L 16.88 23.5 L 16.88 23.29 L 16.88 23.08 L 16.88 22.88 L 16.88 22.67 L 16.88 22.46 L 16.88 22.25 L 16.88 22.04 L 16.88 21.83 L 16.88 21.62 L 16.88 21.42 L 16.88 21.21 L 16.88 21.0 L 16.88 21.0 L 16.88 21.0 L 16.88 21.0 L 16.88 21.0 L 16.88 21.0 L 16.88 21.0 L 16.88 21.0 L 16.88 21.0 L 16.88 21.0 L 16.88 21.0 L 16.88 21.0 L 16.88 21.0 L 16.88 21.0 L 16.88 21.0 L 16.88 21.0 L 16.88 21.0 L 16.88 21.0 L 16.88 21.0 L 16.88 21.0 L 16.88 21.0 L 16.88 21.0 L 16.88 21.0 L 16.88 21.0 L 16.88 21.0 L 16.88 21.0" fill="none" stroke="#111" stroke-width="1.05" stroke-linecap="round" stroke-linejoin="round"/>
</svg>
