<?xml version="1.0" encoding="UTF-8"?>
<svg xmlns="http://www.w3.org/2000/svg" viewBox="0 0 22.00 32.00">
<path d="M 7.0 5.0 L 7.04 5.96 L 7.08 6.92 L 7.12 7.88 L 7.17 8.83 L 7.21 9.79 L 7.25 10.75 L 7.29 11.71 L 7.33 12.67 L 7.37 13.62 L 7.42 14.58 L 7.46 15.54 L 7.5 16.5 L 7.54 17.46 L 7.58 18.42 L 7.62 19.38 L 7.67 20.33 L 7.71 21.29 L 7.75 22.25 L 7.79 23.21 L 7.83 24.17 L 7.87 25.12 L 7.92 26.08 L 7.96 27.04 L 8.0 28.0" fill="none" stroke="#111" stroke-width="1.12" stroke-linecap="round" stroke-linejoin="round"/>
<path d="M 4.0 8.0 L 4.12 8.17 L 4.25 8.33 L 4.38 8.5 L 4.5 8.67 L 4.62 8.83 L 4.75 9.0 L 4.88 9.17 L 5.0 9.33 L 5.12 9.5 L 5.25 9.67 L 5.38 9.83 L 5.5 10.0 L 5.62 10.17 L 5.75 10.33 L 5.88 10.5 L 6.0 10.67 L 6.12 10.83 L 6.25 11.0 L 6.38 11.17 L 6.5 11.33 L 6.62 11.5 L 6.75 11.67 L 6.88 11.83 L 7.0 12.0" fill="none" stroke="#111" stroke-width="1.12" stroke-linecap="round" stroke-linejoin="round"/>
<path d="M 12.0 4.0 L 11.79 4.21 L 11.58 4.42 L 11.38 4.62 L 11.17 4.83 L 10.96 5.04 L 10.75 5.25 L 10.54 5.46 L 10.33 5.67 L 10.12 5.88 L 9.92 6.08 L 9.71 6.29 L 9.5 6.5 L 9.29 6.71 L 9.08 6.92 L 8.88 7.12 L 8.67 7.33 L 8.46 7.54 L 8.25 7.75 L 8.04 7.96 L 7.83 8.17 L 7.62 8.38 L 7.42 8.58 L 7.21 8.79 L 7.0 9.0" fill="none" stroke="#111" stroke-width="1.12" stroke-linecap="round" stroke-linejoin="round"/>
<path d="M 4.0 14.0 L 4.04 14.25 L 4.08 14.5 L 4.12 14.75 L 4.17 15.0 L 4.21 15.25 L 4.25 15.5 L 4.29 15.75 L 4.33 16.0 L 4.38 16.25 L 4.42 16.5 L 4.46 16.75 L 4.5 17.0 L 4.54 17.25 L 4.58 17.5 L 4.62 17.75 L 4.67 18.0 L 4.71 18.25 L 4.75 18.5 L 4.79 18.75 L 4.83 19.0 L 4.88 19.25 L 4.92 19.5 L 4.96 19.75 L 5.0 20.0" fill="none" stroke="#111" stroke-width="1.12" stroke-linecap="round" stroke-linejoin="round"/>
<path d="M 5.0 20.0 L 5.21 19.96 L 5.42 19.92 L 5.62 19.88 L 5.83 19.83 L 6.04 19.79 L 6.25 19.75 L 6.46 19.71 L 6.67 19.67 L 6.88 19.62 L 7.08 19.58 L 7.29 19.54 L 7.5 19.5 L 7.71 19.46 L 7.92 19.42 L 8.12 19.38 L 8.33 19.33 L 8.54 19.29 L 8.75 19.25 L 8.96 19.21 L 9.17 19.17 L 9.38 19.12 L 9.58 19.08 L 9.79 19.04 L 10.0 19.0" fill="none" stroke="#111" stroke-width="1.12" stroke-linecap="round" stroke-linejoin="round"/>
<path d="M 4.0 16.0 L 4.25 15.96 L 4.5 15.92 L 4.75 15.88 L 5.0 15.83 L 5.25 15.79 L 5.5 15.75 L 5.75 15.71 L 6.0 15.67 L 6.25 15.62 L 6.5 15.58 L 6.75 15.54 L 7.0 15.5 L 7.25 15.46 L 7.5 15.42 L 7.75 15.38 L 8.0 15.33 L 8.25 15.29 L 8.5 15.25 L 8.75 15.21 L 9.0 15.17 L 9.25 15.12 L 9.5 15.08 L 9.75 15.04 L 10.0 15.0" fill="none" stroke="#111" stroke-width="1.12" stroke-linecap="round" stroke-linejoin="round"/>
<path d="M 10.0 12.0 L 10.0 12.29 L 10.0 12.58 L 10.0 12.88 L 10.0 13.17 L 10.0 13.46 L 10.0 13.75 L 10.0 14.04 L 10.0 14.33 L 10.0 14.62 L 10.0 14.92 L 10.0 15.21 L 10.0 15.5 L 10.0 15.79 L 10.0 16.08 L 10.0 16.38 L 10.0 16.67 L 10.0 16.96 L 10.0 17.25 L 10.0 17.54 L 10.0 17.83 L 10.0 18.12 L 10.0 18.42 L 10.0 18.71 L 10.0 19.0" fill="none" stroke="#111" stroke-width="1.12" stroke-linecap="round" stroke-linejoin="round"/>
<path d="M 8.0 23.0 L 7.83 23.12 L 7.67 23.25 L 7.5 23.38 L 7.33 23.5 L 7.17 23.62 L 7.0 23.75 L 6.83 23.88 L 6.67 24.0 L 6.5 24.12 L 6.33 24.25 L 6.17 24.38 L 6.0 24.5 L 5.83 24.62 L 5.67 24.75 L 5.5 24.88 L 5.33 25.0 L 5.17 25.12 L 5.0 25.25 L 4.83 25.38 L 4.67 25.5 L 4.5 25.62 L 4.33 25.75 L 4.17 25.88 L 4.0 26.0" fill="none" stroke="#111" stroke-width="1.12" stroke-linecap="round" stroke-linejoin="round"/>
<path d="M 8.0 22.0 L 8.17 22.12 L 8.33 22.25 L 8.5 22.38 L 8.67 22.5 L 8.83 22.62 L 9.0 22.75 L 9.17 22.88 L 9.33 23.0 L 9.5 23.12 L 9.67 23.25 L 9.83 23.38 L 10.0 23.5 L 10.17 23.62 L 10.33 23.75 L 10.5 23.88 L 10.67 24.0 L 10.83 24.12 L 11.0 24.25 L 11.17 24.38 L 11.33 24.5 L 11.5 24.62 L 11.67 24.75 L 11.83 24.88 L 12.0 25.0" fill="none" stroke="#111" stroke-width="1.12" stroke-linecap="round" stroke-linejoin="round"/>
<path d="M 16.0 4.0 L 15.84 4.54 L 15.7 5.08 L 15.59 5.63 L 15.49 6.18 L 15.42 6.74 L 15.36 7.3 L 15.33 7.86 L 15.32 8.42 L 15.33 8.98 L 15.36 9.54 L 15.42 10.1 L 15.49 10.66 L 15.59 11.21 L 15.7 11.76 L 15.84 12.3 L 16.0 12.84 L 16.18 13.37 L 16.38 13.9 L 16.6 14.42 L 16.84 14.92 L 17.09 15.42 L 17.37 15.91 L 17.66 16.39 L 17.98 16.85 L 18.0 17.0 L 17.79 17.29 L 17.58 17.58 L 17.38 17.88 L 17.17 18.17 L 16.96 18.46 L 16.75 18.75 L 16.54 19.04 L 16.33 19.33 L 16.12 19.62 L 15.92 19.92 L 15.71 20.21 L 15.5 20.5 L 15.29 20.79 L 15.08 21.08 L 14.88 21.38 L 14.67 21.67 L 14.46 21.96 L 14.25 22.25 L 14.04 22.54 L 13.83 22.83 L 13.63 23.12 L 13.42 23.42 L 13.21 23.71 L 13.0 24.0" fill="none" stroke="#111" stroke-width="1.12" stroke-linecap="round" stroke-linejoin="round"/>
<path d="M 16.0 13.0 L 15.79 13.25 L 15.58 13.5 L 15.38 13.75 L 15.17 14.0 L 14.96 14.25 L 14.75 14.5 L 14.54 14.75 L 14.33 15.0 L 14.12 15.25 L 13.92 15.5 L 13.71 15.75 L 13.5 16.0 L 13.29 16.25 L 13.08 16.5 L 12.88 16.75 L 12.67 17.0 L 12.46 17.25 L 12.25 17.5 L 12.04 17.75 L 11.83 18.0 L 11.62 18.25 L 11.42 18.5 L 11.21 18.75 L 11.0 19.0" fill="none" stroke="#111" stroke-width="1.12" stroke-linecap="round" stroke-linejoin="round"/>
</svg>
