<?xml version="1.0" encoding="UTF-8"?>
<svg xmlns="http://www.w3.org/2000/svg" viewBox="0 0 25.75 37.00">
<path d="M 10.0 7.0 L 10.04 8.08 L 10.08 9.17 L 10.12 10.25 L 10.17 11.33 L 10.21 12.42 L 10.25 13.5 L 10.29 14.58 L 10.33 15.67 L 10.38 16.75 L 10.42 17.83 L 10.46 18.92 L 10.5 20.0 L 10.54 21.08 L 10.58 22.17 L 10.62 23.25 L 10.67 24.33 L 10.71 25.42 L 10.75 26.5 L 10.79 27.58 L 10.83 28.67 L 10.88 29.75 L 10.92 30.83 L 10.96 31.92 L 11.0 33.0" fill="none" stroke="#111" stroke-width="1.30" stroke-linecap="round" stroke-linejoin="round"/>
<path d="M 4.0 21.0 L 4.08 20.71 L 4.17 20.42 L 4.25 20.12 L 4.33 19.83 L 4.42 19.54 L 4.5 19.25 L 4.58 18.96 L 4.67 18.67 L 4.75 18.38 L 4.83 18.08 L 4.92 17.79 L 5.0 17.5 L 5.08 17.21 L 5.17 16.92 L 5.25 16.62 L 5.33 16.33 L 5.42 16.04 L 5.5 15.75 L 5.58 15.46 L 5.67 15.17 L 5.75 14.88 L 5.83 14.58 L 5.92 14.29 L 6.0 14.0 L 6.0 14.0 L 6.17 14.17 L 6.33 14.33 L 6.5 14.5 L 6.67 14.67 L 6.83 14.83 L 7.0 15.0 L 7.17 15.17 L 7.33 15.33 L 7.5 15.5 L 7.67 15.67 L 7.83 15.83 L 8.0 16.0 L 8.17 16.17 L 8.33 16.33 L 8.5 16.5 L 8.67 16.67 L 8.83 16.83 L 9.0 17.0 L 9.17 17.17 L 9.33 17.33 L 9.5 17.5 L 9.67 17.67 L 9.83 17.83 L 10.0 18.0" fill="none" stroke="#111" stroke-width="1.30" stroke-linecap="round" stroke-linejoin="round"/>
<path d="M 11.0 17.0 L 11.05 16.17 L 11.23 15.35 L 11.54 14.58 L 11.96 13.86 L 12.49 13.21 L 13.11 12.65 L 13.81 12.2 L 14.57 11.86 L 15.38 11.64 L 16.21 11.55 L 17.04 11.58 L 17.86 11.75 L 18.64 12.04 L 19.37 12.45 L 20.02 12.97 L 20.59 13.58 L 21.06 14.27 L 21.41 15.02 L 21.65 15.83 L 21.75 16.65 L 21.73 17.49 L 21.58 18.31 L 21.3 19.1 L 20.91 19.83" fill="none" stroke="#111" stroke-width="1.30" stroke-linecap="round" stroke-linejoin="round"/>
<path d="M 10.0 22.0 L 9.75 22.38 L 9.5 22.75 L 9.25 23.12 L 9.0 23.5 L 8.75 23.88 L 8.5 24.25 L 8.25 24.62 L 8.0 25.0 L 7.75 25.38 L 7.5 25.75 L 7.25 26.12 L 7.0 26.5 L 6.75 26.88 L 6.5 27.25 L 6.25 27.62 L 6.0 28.0 L 5.75 28.38 L 5.5 28.75 L 5.25 29.12 L 5.0 29.5 L 4.75 29.88 L 4.5 30.25 L 4.25 30.62 L 4.0 31.0" fill="none" stroke="#111" stroke-width="1.30" stroke-linecap="round" stroke-linejoin="round"/>
<path d="M 11.0 21.0 L 11.25 21.38 L 11.5 21.75 L 11.75 22.12 L 12.0 22.5 L 12.25 22.88 L 12.5 23.25 L 12.75 23.62 L 13.0 24.0 L 13.25 24.38 L 13.5 24.75 L 13.75 25.12 L 14.0 25.5 L 14.25 25.88 L 14.5 26.25 L 14.75 26.62 L 15.0 27.0 L 15.25 27.38 L 15.5 27.75 L 15.75 28.12 L 16.0 28.5 L 16.25 28.88 L 16.5 29.25 L 16.75 29.62 L 17.0 30.0" fill="none" stroke="#111" stroke-width="1.30" stroke-linecap="round" stroke-linejoin="round"/>
<path d="M 13.0 4.0 L 12.67 4.38 L 12.33 4.75 L 12.0 5.12 L 11.67 5.5 L 11.33 5.88 L 11.0 6.25 L 10.67 6.62 L 10.33 7.0 L 10.0 7.38 L 9.67 7.75 L 9.33 8.12 L 9.0 8.5 L 8.67 8.88 L 8.33 9.25 L 8.0 9.62 L 7.67 10.0 L 7.33 10.38 L 7.0 10.75 L 6.67 11.12 L 6.33 11.5 L 6.0 11.88 L 5.67 12.25 L 5.33 12.62 L 5.0 13.0" fill="none" stroke="#111" stroke-width="1.30" stroke-linecap="round" stroke-linejoin="round"/>
</svg>
