<?xml version="1.0" encoding="UTF-8"?>
<svg xmlns="http://www.w3.org/2000/svg" viewBox="0 0 28.70 38.00">
<path d="M 9.0 5.0 L 8.88 5.33 L 8.75 5.67 L 8.62 6.0 L 8.5 6.33 L 8.38 6.67 L 8.25 7.0 L 8.12 7.33 L 8.0 7.67 L 7.88 8.0 L 7.75 8.33 L 7.63 8.67 L 7.5 9.0 L 7.38 9.33 L 7.25 9.67 L 7.13 10.0 L 7.0 10.33 L 6.88 10.67 L 6.75 11.0 L 6.63 11.33 L 6.5 11.67 L 6.38 12.0 L 6.25 12.33 L 6.13 12.67 L 6.0 13.0" fill="none" stroke="#111" stroke-width="1.33" stroke-linecap="round" stroke-linejoin="round"/>
<path d="M 10.0 8.0 L 9.96 8.21 L 9.92 8.42 L 9.88 8.62 L 9.83 8.83 L 9.79 9.04 L 9.75 9.25 L 9.71 9.46 L 9.67 9.67 L 9.62 9.88 L 9.58 10.08 L 9.54 10.29 L 9.5 10.5 L 9.46 10.71 L 9.42 10.92 L 9.38 11.12 L 9.33 11.33 L 9.29 11.54 L 9.25 11.75 L 9.21 11.96 L 9.17 12.17 L 9.12 12.38 L 9.08 12.58 L 9.04 12.79 L 9.0 13.0" fill="none" stroke="#111" stroke-width="1.33" stroke-linecap="round" stroke-linejoin="round"/>
<path d="M 4.0 14.0 L 4.29 14.0 L 4.58 14.0 L 4.88 14.0 L 5.17 14.0 L 5.46 14.0 L 5.75 14.0 L 6.04 14.0 L 6.33 14.0 L 6.62 14.0 L 6.92 14.0 L 7.21 14.0 L 7.5 14.0 L 7.79 14.0 L 8.08 14.0 L 8.38 14.0 L 8.67 14.0 L 8.96 14.0 L 9.25 14.0 L 9.54 14.0 L 9.83 14.0 L 10.12 14.0 L 10.42 14.0 L 10.71 14.0 L 11.0 14.0" fill="none" stroke="#111" stroke-width="1.33" stroke-linecap="round" stroke-linejoin="round"/>
<path d="M 5.0 14.0 L 5.0 14.25 L 5.0 14.5 L 5.0 14.75 L 5.0 15.0 L 5.0 15.25 L 5.0 15.5 L 5.0 15.75 L 5.0 16.0 L 5.0 16.25 L 5.0 16.5 L 5.0 16.75 L 5.0 17.0 L 5.0 17.25 L 5.0 17.5 L 5.0 17.75 L 5.0 18.0 L 5.0 18.25 L 5.0 18.5 L 5.0 18.75 L 5.0 19.0 L 5.0 19.25 L 5.0 19.5 L 5.0 19.75 L 5.0 20.0" fill="none" stroke="#111" stroke-width="1.33" stroke-linecap="round" stroke-linejoin="round"/>
<path d="M 5.0 20.0 L 5.29 20.0 L 5.58 20.0 L 5.88 20.0 L 6.17 20.0 L 6.46 20.0 L 6.75 20.0 L 7.04 20.0 L 7.33 20.0 L 7.62 20.0 L 7.92 20.0 L 8.21 20.0 L 8.5 20.0 L 8.79 20.0 L 9.08 20.0 L 9.38 20.0 L 9.67 20.0 L 9.96 20.0 L 10.25 20.0 L 10.54 20.0 L 10.83 20.0 L 11.12 20.0 L 11.42 20.0 L 11.71 20.0 L 12.0 20.0" fill="none" stroke="#111" stroke-width="1.33" stroke-linecap="round" stroke-linejoin="round"/>
<path d="M 11.0 13.0 L 11.0 13.25 L 11.0 13.5 L 11.0 13.75 L 11.0 14.0 L 11.0 14.25 L 11.0 14.5 L 11.0 14.75 L 11.0 15.0 L 11.0 15.25 L 11.0 15.5 L 11.0 15.75 L 11.0 16.0 L 11.0 16.25 L 11.0 16.5 L 11.0 16.75 L 11.0 17.0 L 11.0 17.25 L 11.0 17.5 L 11.0 17.75 L 11.0 18.0 L 11.0 18.25 L 11.0 18.5 L 11.0 18.75 L 11.0 19.0" fill="none" stroke="#111" stroke-width="1.33" stroke-linecap="round" stroke-linejoin="round"/>
<path d="M 5.0 17.0 L 5.17 17.0 L 5.33 17.0 L 5.5 17.0 L 5.67 17.0 L 5.83 17.0 L 6.0 17.0 L 6.17 17.0 L 6.33 17.0 L 6.5 17.0 L 6.67 17.0 L 6.83 17.0 L 7.0 17.0 L 7.17 17.0 L 7.33 17.0 L 7.5 17.0 L 7.67 17.0 L 7.83 17.0 L 8.0 17.0 L 8.17 17.0 L 8.33 17.0 L 8.5 17.0 L 8.67 17.0 L 8.83 17.0 L 9.0 17.0" fill="none" stroke="#111" stroke-width="1.33" stroke-linecap="round" stroke-linejoin="round"/>
<path d="M 7.0 20.0 L 7.0 20.21 L 7.0 20.42 L 7.0 20.62 L 7.0 20.83 L 7.0 21.04 L 7.0 21.25 L 7.0 21.46 L 7.0 21.67 L 7.0 21.88 L 7.0 22.08 L 7.0 22.29 L 7.0 22.5 L 7.0 22.71 L 7.0 22.92 L 7.0 23.12 L 7.0 23.33 L 7.0 23.54 L 7.0 23.75 L 7.0 23.96 L 7.0 24.17 L 7.0 24.38 L 7.0 24.58 L 7.0 24.79 L 7.0 25.0" fill="none" stroke="#111" stroke-width="1.33" stroke-linecap="round" stroke-linejoin="round"/>
<path d="M 10.0 20.0 L 9.96 20.33 L 9.92 20.67 L 9.88 21.0 L 9.83 21.33 L 9.79 21.67 L 9.75 22.0 L 9.71 22.33 L 9.67 22.67 L 9.62 23.0 L 9.58 23.33 L 9.54 23.67 L 9.5 24.0 L 9.46 24.33 L 9.42 24.67 L 9.38 25.0 L 9.33 25.33 L 9.29 25.67 L 9.25 26.0 L 9.21 26.33 L 9.17 26.67 L 9.12 27.0 L 9.08 27.33 L 9.04 27.67 L 9.0 28.0" fill="none" stroke="#111" stroke-width="1.33" stroke-linecap="round" stroke-linejoin="round"/>
<path d="M 12.0 4.0 L 12.22 4.64 L 12.48 5.27 L 12.77 5.88 L 13.11 6.47 L 13.47 7.04 L 13.87 7.59 L 14.3 8.11 L 14.76 8.61 L 15.26 9.07 L 15.77 9.51 L 16.32 9.92 L 16.88 10.29 L 17.47 10.63 L 18.08 10.93 L 18.7 11.19 L 19.34 11.42 L 19.99 11.61 L 20.65 11.76 L 21.32 11.87 L 22.0 11.94 L 22.67 11.97 L 23.35 11.96 L 24.03 11.91 L 24.7 11.81" fill="none" stroke="#111" stroke-width="1.33" stroke-linecap="round" stroke-linejoin="round"/>
<path d="M 18.0 5.0 L 18.0 5.83 L 18.0 6.67 L 18.0 7.5 L 18.0 8.33 L 18.0 9.17 L 18.0 10.0 L 18.0 10.83 L 18.0 11.67 L 18.0 12.5 L 18.0 13.33 L 18.0 14.17 L 18.0 15.0 L 18.0 15.83 L 18.0 16.67 L 18.0 17.5 L 18.0 18.33 L 18.0 19.17 L 18.0 20.0 L 18.0 20.83 L 18.0 21.67 L 18.0 22.5 L 18.0 23.33 L 18.0 24.17 L 18.0 25.0 L 18.0 25.0 L 17.74 25.31 L 17.49 25.62 L 17.25 25.94 L 17.03 26.27 L 16.81 26.61 L 16.6 26.95 L 16.41 27.3 L 16.23 27.66 L 16.06 28.02 L 15.9 28.39 L 15.75 28.76 L 15.62 29.14 L 15.5 29.52 L 15.39 29.91 L 15.3 30.3 L 15.22 30.69 L 15.15 31.09 L 15.09 31.48 L 15.05 31.88 L 15.02 32.28 L 15.01 32.68 L 15.0 33.08 L 15.01 33.48 L 15.04 33.88 L 15.0 34.0 L 15.21 33.88 L 15.42 33.75 L 15.62 33.62 L 15.83 33.5 L 16.04 33.38 L 16.25 33.25 L 16.46 33.12 L 16.67 33.0 L 16.88 32.88 L 17.08 32.75 L 17.29 32.62 L 17.5 32.5 L 17.71 32.38 L 17.92 32.25 L 18.12 32.12 L 18.33 32.0 L 18.54 31.88 L 18.75 31.75 L 18.96 31.62 L 19.17 31.5 L 19.38 31.38 L 19.58 31.25 L 19.79 31.12 L 20.0 31.0" fill="none" stroke="#111" stroke-width="1.33" stroke-linecap="round" stroke-linejoin="round"/>
<path d="M 15.0 12.0 L 15.0 12.46 L 15.0 12.92 L 15.0 13.38 L 15.0 13.83 L 15.0 14.29 L 15.0 14.75 L 15.0 15.21 L 15.0 15.67 L 15.0 16.12 L 15.0 16.58 L 15.0 17.04 L 15.0 17.5 L 15.0 17.96 L 15.0 18.42 L 15.0 18.88 L 15.0 19.33 L 15.0 19.79 L 15.0 20.25 L 15.0 20.71 L 15.0 21.17 L 15.0 21.62 L 15.0 22.08 L 15.0 22.54 L 15.0 23.0" fill="none" stroke="#111" stroke-width="1.33" stroke-linecap="round" stroke-linejoin="round"/>
<path d="M 11.0 11.0 L 11.29 11.0 L 11.58 11.0 L 11.88 11.0 L 12.17 11.0 L 12.46 11.0 L 12.75 11.0 L 13.04 11.0 L 13.33 11.0 L 13.62 11.0 L 13.92 11.0 L 14.21 11.0 L 14.5 11.0 L 14.79 11.0 L 15.08 11.0 L 15.38 11.0 L 15.67 11.0 L 15.96 11.0 L 16.25 11.0 L 16.54 11.0 L 16.83 11.0 L 17.12 11.0 L 17.42 11.0 L 17.71 11.0 L 18.0 11.0" fill="none" stroke="#111" stroke-width="1.33" stroke-linecap="round" stroke-linejoin="round"/>
<path d="M 13.0 25.0 L 13.21 24.92 L 13.42 24.83 L 13.62 24.75 L 13.83 24.67 L 14.04 24.58 L 14.25 24.5 L 14.46 24.42 L 14.67 24.33 L 14.88 24.25 L 15.08 24.17 L 15.29 24.08 L 15.5 24.0 L 15.71 23.92 L 15.92 23.83 L 16.12 23.75 L 16.33 23.67 L 16.54 23.58 L 16.75 23.5 L 16.96 23.42 L 17.17 23.33 L 17.38 23.25 L 17.58 23.17 L 17.79 23.08 L 18.0 23.0" fill="none" stroke="#111" stroke-width="1.33" stroke-linecap="round" stroke-linejoin="round"/>
</svg>
