<?xml version="1.0" encoding="UTF-8"?>
<svg xmlns="http://www.w3.org/2000/svg" viewBox="0 0 18.13 31.12">
<path d="M 8.84 5.29 L 8.58 5.44 L 8.33 5.61 L 8.1 5.8 L 7.89 6.01 L 7.7 6.25 L 7.53 6.49 L 7.38 6.76 L 7.26 7.03 L 7.17 7.31 L 7.1 7.61 L 7.06 7.9 L 7.04 8.2 L 7.06 8.5 L 7.1 8.8 L 7.17 9.09 L 7.26 9.38 L 7.38 9.65 L 7.53 9.92 L 7.7 10.16 L 7.89 10.39 L 8.1 10.61 L 8.33 10.8 L 8.58 10.97 L 8.84 11.11 L 8.84 11.29 L 9.0 11.08 L 9.13 10.85 L 9.26 10.62 L 9.37 10.38 L 9.48 10.14 L 9.56 9.89 L 9.64 9.64 L 9.7 9.39 L 9.75 9.13 L 9.78 8.86 L 9.81 8.6 L 9.81 8.34 L 9.81 8.08 L 9.78 7.81 L 9.75 7.55 L 9.7 7.29 L 9.64 7.04 L 9.56 6.78 L 9.48 6.54 L 9.37 6.29 L 9.26 6.05 L 9.13 5.82 L 9.0 5.6 L 8.84 5.38" fill="none" stroke="#111" stroke-width="1.09" stroke-linecap="round" stroke-linejoin="round"/>
<path d="M 8.84 11.29 L 8.91 11.71 L 8.96 12.13 L 8.97 12.54 L 8.96 12.96 L 8.93 13.38 L 8.86 13.8 L 8.78 14.21 L 8.66 14.61 L 8.52 15.01 L 8.36 15.39 L 8.17 15.77 L 7.96 16.13 L 7.73 16.48 L 7.47 16.81 L 7.2 17.13 L 6.9 17.43 L 6.59 17.71 L 6.26 17.97 L 5.91 18.2 L 5.55 18.42 L 5.18 18.61 L 4.8 18.78 L 4.4 18.93 L 4.0 19.05" fill="none" stroke="#111" stroke-width="1.09" stroke-linecap="round" stroke-linejoin="round"/>
<path d="M 11.84 4.29 L 11.35 4.16 L 10.84 4.06 L 10.33 4.01 L 9.81 4.0 L 9.3 4.04 L 8.79 4.12 L 8.29 4.24 L 7.8 4.41 L 7.33 4.62 L 6.88 4.87 L 6.45 5.15 L 6.05 5.48 L 5.67 5.83 L 5.33 6.22 L 5.03 6.63 L 4.76 7.07 L 4.53 7.54 L 4.34 8.01 L 4.19 8.51 L 4.08 9.01 L 4.02 9.53 L 4.01 10.04 L 4.03 10.56 L 4.11 11.07" fill="none" stroke="#111" stroke-width="1.09" stroke-linecap="round" stroke-linejoin="round"/>
<path d="M 9.84 14.29 L 10.27 14.7 L 10.67 15.13 L 11.05 15.57 L 11.42 16.03 L 11.76 16.5 L 12.08 16.99 L 12.38 17.49 L 12.66 18.01 L 12.92 18.54 L 13.15 19.07 L 13.36 19.62 L 13.54 20.18 L 13.7 20.74 L 13.84 21.31 L 13.95 21.89 L 14.03 22.46 L 14.09 23.05 L 14.12 23.63 L 14.13 24.22 L 14.12 24.8 L 14.07 25.39 L 14.0 25.97 L 13.91 26.55 L 13.79 27.12" fill="none" stroke="#111" stroke-width="1.09" stroke-linecap="round" stroke-linejoin="round"/>
<path d="M 6.84 16.29 L 6.89 16.38 L 6.93 16.46 L 6.97 16.54 L 7.01 16.63 L 7.05 16.71 L 7.09 16.79 L 7.14 16.88 L 7.18 16.96 L 7.22 17.04 L 7.26 17.13 L 7.3 17.21 L 7.34 17.29 L 7.39 17.38 L 7.43 17.46 L 7.47 17.54 L 7.51 17.63 L 7.55 17.71 L 7.59 17.79 L 7.64 17.88 L 7.68 17.96 L 7.72 18.04 L 7.76 18.13 L 7.8 18.21 L 7.84 18.29" fill="none" stroke="#111" stroke-width="1.09" stroke-linecap="round" stroke-linejoin="round"/>
<path d="M 7.84 14.29 L 7.89 14.42 L 7.93 14.54 L 7.97 14.67 L 8.01 14.79 L 8.05 14.92 L 8.09 15.04 L 8.14 15.17 L 8.18 15.29 L 8.22 15.42 L 8.26 15.54 L 8.3 15.67 L 8.34 15.79 L 8.39 15.92 L 8.43 16.04 L 8.47 16.17 L 8.51 16.29 L 8.55 16.42 L 8.59 16.54 L 8.64 16.67 L 8.68 16.79 L 8.72 16.92 L 8.76 17.04 L 8.8 17.17 L 8.84 17.29" fill="none" stroke="#111" stroke-width="1.09" stroke-linecap="round" stroke-linejoin="round"/>
<path d="M 6.84 19.29 L 6.8 19.59 L 6.76 19.88 L 6.72 20.17 L 6.68 20.46 L 6.64 20.75 L 6.59 21.04 L 6.55 21.34 L 6.51 21.63 L 6.47 21.92 L 6.43 22.21 L 6.39 22.5 L 6.34 22.79 L 6.3 23.09 L 6.26 23.38 L 6.22 23.67 L 6.18 23.96 L 6.14 24.25 L 6.09 24.54 L 6.05 24.84 L 6.01 25.13 L 5.97 25.42 L 5.93 25.71 L 5.89 26.0 L 5.84 26.29" fill="none" stroke="#111" stroke-width="1.09" stroke-linecap="round" stroke-linejoin="round"/>
</svg>
