<?xml version="1.0" encoding="UTF-8"?>
<svg xmlns="http://www.w3.org/2000/svg" viewBox="0 0 22.00 36.00">
<path d="M 9.0 5.0 L 8.98 5.22 L 8.97 5.45 L 8.98 5.67 L 9.01 5.9 L 9.04 6.12 L 9.1 6.34 L 9.16 6.55 L 9.24 6.76 L 9.33 6.97 L 9.44 7.17 L 9.55 7.36 L 9.68 7.54 L 9.82 7.72 L 9.97 7.89 L 10.14 8.04 L 10.31 8.19 L 10.49 8.32 L 10.68 8.45 L 10.87 8.56 L 11.07 8.65 L 11.28 8.74 L 11.5 8.81 L 11.71 8.87 L 11.93 8.91" fill="none" stroke="#111" stroke-width="1.26" stroke-linecap="round" stroke-linejoin="round"/>
<path d="M 14.0 4.0 L 14.0 4.12 L 14.0 4.25 L 14.0 4.38 L 14.0 4.5 L 14.0 4.62 L 14.0 4.75 L 14.0 4.88 L 14.0 5.0 L 14.0 5.12 L 14.0 5.25 L 14.0 5.38 L 14.0 5.5 L 14.0 5.62 L 14.0 5.75 L 14.0 5.88 L 14.0 6.0 L 14.0 6.12 L 14.0 6.25 L 14.0 6.38 L 14.0 6.5 L 14.0 6.62 L 14.0 6.75 L 14.0 6.88 L 14.0 7.0 L 14.0 7.0 L 13.92 7.08 L 13.83 7.17 L 13.75 7.25 L 13.67 7.33 L 13.58 7.42 L 13.5 7.5 L 13.42 7.58 L 13.33 7.67 L 13.25 7.75 L 13.17 7.83 L 13.08 7.92 L 13.0 8.0 L 12.92 8.08 L 12.83 8.17 L 12.75 8.25 L 12.67 8.33 L 12.58 8.42 L 12.5 8.5 L 12.42 8.58 L 12.33 8.67 L 12.25 8.75 L 12.17 8.83 L 12.08 8.92 L 12.0 9.0" fill="none" stroke="#111" stroke-width="1.26" stroke-linecap="round" stroke-linejoin="round"/>
<path d="M 12.0 4.0 L 12.0 5.17 L 12.0 6.33 L 12.0 7.5 L 12.0 8.67 L 12.0 9.83 L 12.0 11.0 L 12.0 12.17 L 12.0 13.33 L 12.0 14.5 L 12.0 15.67 L 12.0 16.83 L 12.0 18.0 L 12.0 19.17 L 12.0 20.33 L 12.0 21.5 L 12.0 22.67 L 12.0 23.83 L 12.0 25.0 L 12.0 26.17 L 12.0 27.33 L 12.0 28.5 L 12.0 29.67 L 12.0 30.83 L 12.0 32.0" fill="none" stroke="#111" stroke-width="1.26" stroke-linecap="round" stroke-linejoin="round"/>
<path d="M 7.0 12.0 L 6.83 12.42 L 6.7 12.85 L 6.6 13.29 L 6.53 13.74 L 6.51 14.19 L 6.52 14.64 L 6.57 15.09 L 6.65 15.53 L 6.78 15.96 L 6.93 16.39 L 7.12 16.8 L 7.34 17.19 L 7.6 17.56 L 7.88 17.91 L 8.2 18.24 L 8.53 18.54 L 8.89 18.81 L 9.28 19.05 L 9.68 19.25 L 10.09 19.43 L 10.52 19.57 L 10.96 19.67 L 11.41 19.74 L 11.86 19.77" fill="none" stroke="#111" stroke-width="1.26" stroke-linecap="round" stroke-linejoin="round"/>
<path d="M 17.0 12.0 L 17.05 12.42 L 17.08 12.84 L 17.08 13.26 L 17.06 13.68 L 17.01 14.1 L 16.94 14.51 L 16.85 14.92 L 16.72 15.32 L 16.58 15.72 L 16.41 16.1 L 16.22 16.48 L 16.01 16.84 L 15.78 17.19 L 15.52 17.53 L 15.25 17.85 L 14.96 18.15 L 14.65 18.44 L 14.32 18.7 L 13.98 18.95 L 13.63 19.17 L 13.26 19.38 L 12.88 19.56 L 12.49 19.72 L 12.09 19.86" fill="none" stroke="#111" stroke-width="1.26" stroke-linecap="round" stroke-linejoin="round"/>
<path d="M 4.0 13.0 L 4.07 13.2 L 4.14 13.4 L 4.22 13.59 L 4.31 13.78 L 4.4 13.98 L 4.5 14.16 L 4.6 14.35 L 4.7 14.53 L 4.81 14.71 L 4.93 14.89 L 5.05 15.06 L 5.17 15.23 L 5.3 15.4 L 5.43 15.56 L 5.57 15.72 L 5.71 15.88 L 5.86 16.03 L 6.01 16.18 L 6.16 16.32 L 6.32 16.47 L 6.48 16.6 L 6.65 16.73 L 6.82 16.86 L 6.99 16.98" fill="none" stroke="#111" stroke-width="1.26" stroke-linecap="round" stroke-linejoin="round"/>
<path d="M 9.0 12.0 L 9.0 12.08 L 9.0 12.17 L 9.0 12.25 L 9.0 12.33 L 9.0 12.42 L 9.0 12.5 L 9.0 12.58 L 9.0 12.67 L 9.0 12.75 L 9.0 12.83 L 9.0 12.92 L 9.0 13.0 L 9.0 13.08 L 9.0 13.17 L 9.0 13.25 L 9.0 13.33 L 9.0 13.42 L 9.0 13.5 L 9.0 13.58 L 9.0 13.67 L 9.0 13.75 L 9.0 13.83 L 9.0 13.92 L 9.0 14.0" fill="none" stroke="#111" stroke-width="1.26" stroke-linecap="round" stroke-linejoin="round"/>
<path d="M 9.0 14.0 L 8.92 14.12 L 8.83 14.25 L 8.75 14.38 L 8.67 14.5 L 8.58 14.62 L 8.5 14.75 L 8.42 14.88 L 8.33 15.0 L 8.25 15.12 L 8.17 15.25 L 8.08 15.38 L 8.0 15.5 L 7.92 15.62 L 7.83 15.75 L 7.75 15.88 L 7.67 16.0 L 7.58 16.12 L 7.5 16.25 L 7.42 16.38 L 7.33 16.5 L 7.25 16.62 L 7.17 16.75 L 7.08 16.88 L 7.0 17.0" fill="none" stroke="#111" stroke-width="1.26" stroke-linecap="round" stroke-linejoin="round"/>
<path d="M 15.0 12.0 L 15.04 12.12 L 15.08 12.25 L 15.12 12.38 L 15.17 12.5 L 15.21 12.62 L 15.25 12.75 L 15.29 12.88 L 15.33 13.0 L 15.38 13.12 L 15.42 13.25 L 15.46 13.38 L 15.5 13.5 L 15.54 13.62 L 15.58 13.75 L 15.62 13.88 L 15.67 14.0 L 15.71 14.12 L 15.75 14.25 L 15.79 14.38 L 15.83 14.5 L 15.88 14.62 L 15.92 14.75 L 15.96 14.88 L 16.0 15.0" fill="none" stroke="#111" stroke-width="1.26" stroke-linecap="round" stroke-linejoin="round"/>
<path d="M 18.0 13.0 L 17.92 13.08 L 17.83 13.17 L 17.75 13.25 L 17.67 13.33 L 17.58 13.42 L 17.5 13.5 L 17.42 13.58 L 17.33 13.67 L 17.25 13.75 L 17.17 13.83 L 17.08 13.92 L 17.0 14.0 L 16.92 14.08 L 16.83 14.17 L 16.75 14.25 L 16.67 14.33 L 16.58 14.42 L 16.5 14.5 L 16.42 14.58 L 16.33 14.67 L 16.25 14.75 L 16.17 14.83 L 16.08 14.92 L 16.0 15.0" fill="none" stroke="#111" stroke-width="1.26" stroke-linecap="round" stroke-linejoin="round"/>
<path d="M 12.0 23.0 L 11.83 23.17 L 11.67 23.33 L 11.5 23.5 L 11.33 23.67 L 11.17 23.83 L 11.0 24.0 L 10.83 24.17 L 10.67 24.33 L 10.5 24.5 L 10.33 24.67 L 10.17 24.83 L 10.0 25.0 L 9.83 25.17 L 9.67 25.33 L 9.5 25.5 L 9.33 25.67 L 9.17 25.83 L 9.0 26.0 L 8.83 26.17 L 8.67 26.33 L 8.5 26.5 L 8.33 26.67 L 8.17 26.83 L 8.0 27.0" fill="none" stroke="#111" stroke-width="1.26" stroke-linecap="round" stroke-linejoin="round"/>
<path d="M 12.0 23.0 L 12.17 23.17 L 12.33 23.33 L 12.5 23.5 L 12.67 23.67 L 12.83 23.83 L 13.0 24.0 L 13.17 24.17 L 13.33 24.33 L 13.5 24.5 L 13.67 24.67 L 13.83 24.83 L 14.0 25.0 L 14.17 25.17 L 14.33 25.33 L 14.5 25.5 L 14.67 25.67 L 14.83 25.83 L 15.0 26.0 L 15.17 26.17 L 15.33 26.33 L 15.5 26.5 L 15.67 26.67 L 15.83 26.83 L 16.0 27.0" fill="none" stroke="#111" stroke-width="1.26" stroke-linecap="round" stroke-linejoin="round"/>
</svg>
