<?xml version="1.0" encoding="UTF-8"?>
<svg xmlns="http://www.w3.org/2000/svg" viewBox="0 0 23.00 31.00">
<path d="M 12.0 4.0 L 11.92 4.38 L 11.83 4.75 L 11.75 5.12 L 11.67 5.5 L 11.58 5.88 L 11.5 6.25 L 11.42 6.62 L 11.33 7.0 L 11.25 7.38 L 11.17 7.75 L 11.08 8.12 L 11.0 8.5 L 10.92 8.88 L 10.83 9.25 L 10.75 9.62 L 10.67 10.0 L 10.58 10.38 L 10.5 10.75 L 10.42 11.12 L 10.33 11.5 L 10.25 11.88 L 10.17 12.25 L 10.08 12.62 L 10.0 13.0" fill="none" stroke="#111" stroke-width="1.09" stroke-linecap="round" stroke-linejoin="round"/>
<path d="M 10.0 13.0 L 10.08 13.54 L 10.17 14.08 L 10.25 14.62 L 10.33 15.17 L 10.42 15.71 L 10.5 16.25 L 10.58 16.79 L 10.67 17.33 L 10.75 17.88 L 10.83 18.42 L 10.92 18.96 L 11.0 19.5 L 11.08 20.04 L 11.17 20.58 L 11.25 21.12 L 11.33 21.67 L 11.42 22.21 L 11.5 22.75 L 11.58 23.29 L 11.67 23.83 L 11.75 24.38 L 11.83 24.92 L 11.92 25.46 L 12.0 26.0" fill="none" stroke="#111" stroke-width="1.09" stroke-linecap="round" stroke-linejoin="round"/>
<path d="M 4.0 27.0 L 4.62 26.96 L 5.25 26.92 L 5.88 26.88 L 6.5 26.83 L 7.12 26.79 L 7.75 26.75 L 8.38 26.71 L 9.0 26.67 L 9.62 26.62 L 10.25 26.58 L 10.88 26.54 L 11.5 26.5 L 12.12 26.46 L 12.75 26.42 L 13.37 26.38 L 14.0 26.33 L 14.62 26.29 L 15.25 26.25 L 15.88 26.21 L 16.5 26.17 L 17.12 26.12 L 17.75 26.08 L 18.38 26.04 L 19.0 26.0" fill="none" stroke="#111" stroke-width="1.09" stroke-linecap="round" stroke-linejoin="round"/>
<path d="M 6.0 4.0 L 6.0 4.38 L 6.0 4.75 L 6.0 5.12 L 6.0 5.5 L 6.0 5.88 L 6.0 6.25 L 6.0 6.62 L 6.0 7.0 L 6.0 7.38 L 6.0 7.75 L 6.0 8.12 L 6.0 8.5 L 6.0 8.88 L 6.0 9.25 L 6.0 9.62 L 6.0 10.0 L 6.0 10.38 L 6.0 10.75 L 6.0 11.12 L 6.0 11.5 L 6.0 11.88 L 6.0 12.25 L 6.0 12.62 L 6.0 13.0" fill="none" stroke="#111" stroke-width="1.09" stroke-linecap="round" stroke-linejoin="round"/>
<path d="M 6.0 13.0 L 6.33 13.21 L 6.67 13.42 L 7.0 13.62 L 7.33 13.83 L 7.67 14.04 L 8.0 14.25 L 8.33 14.46 L 8.67 14.67 L 9.0 14.88 L 9.33 15.08 L 9.67 15.29 L 10.0 15.5 L 10.33 15.71 L 10.67 15.92 L 11.0 16.12 L 11.33 16.33 L 11.67 16.54 L 12.0 16.75 L 12.33 16.96 L 12.67 17.17 L 13.0 17.38 L 13.33 17.58 L 13.67 17.79 L 14.0 18.0" fill="none" stroke="#111" stroke-width="1.09" stroke-linecap="round" stroke-linejoin="round"/>
<path d="M 16.0 9.0 L 15.84 9.71 L 15.68 10.42 L 15.52 11.13 L 15.36 11.84 L 15.2 12.55 L 15.04 13.26 L 14.88 13.97 L 14.72 14.68 L 14.55 15.39 L 14.39 16.1 L 14.22 16.81 L 14.06 17.51 L 13.89 18.22 L 13.72 18.93 L 13.55 19.64 L 13.38 20.35 L 13.21 21.05 L 13.04 21.76 L 12.87 22.47 L 12.7 23.17 L 12.52 23.88 L 12.35 24.59 L 12.18 25.29 L 12.0 26.0" fill="none" stroke="#111" stroke-width="1.09" stroke-linecap="round" stroke-linejoin="round"/>
</svg>
