<?xml version="1.0" encoding="UTF-8"?>
<svg xmlns="http://www.w3.org/2000/svg" viewBox="0 0 23.00 31.00">
<path d="M 4.0 5.0 L 4.62 4.96 L 5.25 4.92 L 5.88 4.88 L 6.5 4.83 L 7.12 4.79 L 7.75 4.75 L 8.38 4.71 L 9.0 4.67 L 9.62 4.62 L 10.25 4.58 L 10.88 4.54 L 11.5 4.5 L 12.12 4.46 L 12.75 4.42 L 13.37 4.38 L 14.0 4.33 L 14.62 4.29 L 15.25 4.25 L 15.88 4.21 L 16.5 4.17 L 17.12 4.12 L 17.75 4.08 L 18.38 4.04 L 19.0 4.0" fill="none" stroke="#111" stroke-width="1.09" stroke-linecap="round" stroke-linejoin="round"/>
<path d="M 11.0 4.0 L 11.0 4.96 L 11.0 5.92 L 11.0 6.88 L 11.0 7.83 L 11.0 8.79 L 11.0 9.75 L 11.0 10.71 L 11.0 11.67 L 11.0 12.62 L 11.0 13.58 L 11.0 14.54 L 11.0 15.5 L 11.0 16.46 L 11.0 17.42 L 11.0 18.38 L 11.0 19.33 L 11.0 20.29 L 11.0 21.25 L 11.0 22.21 L 11.0 23.17 L 11.0 24.12 L 11.0 25.08 L 11.0 26.04 L 11.0 27.0" fill="none" stroke="#111" stroke-width="1.09" stroke-linecap="round" stroke-linejoin="round"/>
<path d="M 11.0 12.0 L 10.71 12.33 L 10.42 12.67 L 10.12 13.0 L 9.83 13.33 L 9.54 13.67 L 9.25 14.0 L 8.96 14.33 L 8.67 14.67 L 8.38 15.0 L 8.08 15.33 L 7.79 15.67 L 7.5 16.0 L 7.21 16.33 L 6.92 16.67 L 6.62 17.0 L 6.33 17.33 L 6.04 17.67 L 5.75 18.0 L 5.46 18.33 L 5.17 18.67 L 4.88 19.0 L 4.58 19.33 L 4.29 19.67 L 4.0 20.0" fill="none" stroke="#111" stroke-width="1.09" stroke-linecap="round" stroke-linejoin="round"/>
<path d="M 11.0 11.0 L 11.29 11.25 L 11.58 11.5 L 11.88 11.75 L 12.17 12.0 L 12.46 12.25 L 12.75 12.5 L 13.04 12.75 L 13.33 13.0 L 13.62 13.25 L 13.92 13.5 L 14.21 13.75 L 14.5 14.0 L 14.79 14.25 L 15.08 14.5 L 15.38 14.75 L 15.67 15.0 L 15.96 15.25 L 16.25 15.5 L 16.54 15.75 L 16.83 16.0 L 17.12 16.25 L 17.42 16.5 L 17.71 16.75 L 18.0 17.0" fill="none" stroke="#111" stroke-width="1.09" stroke-linecap="round" stroke-linejoin="round"/>
</svg>
