<?xml version="1.0" encoding="UTF-8"?>
<svg xmlns="http://www.w3.org/2000/svg" viewBox="0 0 22.39 33.75">
<path d="M 11.94 4.0 L 11.52 4.28 L 11.12 4.57 L 10.73 4.88 L 10.35 5.2 L 9.98 5.54 L 9.62 5.89 L 9.28 6.26 L 8.96 6.64 L 8.65 7.03 L 8.35 7.43 L 8.07 7.84 L 7.8 8.26 L 7.55 8.7 L 7.32 9.14 L 7.11 9.59 L 6.91 10.05 L 6.73 10.51 L 6.57 10.98 L 6.43 11.46 L 6.3 11.95 L 6.19 12.43 L 6.11 12.93 L 6.04 13.42 L 5.99 13.92 L 5.94 14.0 L 6.02 14.17 L 6.1 14.33 L 6.19 14.5 L 6.27 14.67 L 6.35 14.83 L 6.44 15.0 L 6.52 15.17 L 6.6 15.33 L 6.69 15.5 L 6.77 15.67 L 6.85 15.83 L 6.94 16.0 L 7.02 16.17 L 7.1 16.33 L 7.19 16.5 L 7.27 16.67 L 7.35 16.83 L 7.44 17.0 L 7.52 17.17 L 7.6 17.33 L 7.69 17.5 L 7.77 17.67 L 7.85 17.83 L 7.94 18.0 L 7.94 18.0 L 8.62 18.05 L 9.3 18.17 L 9.95 18.36 L 10.59 18.62 L 11.18 18.95 L 11.74 19.35 L 12.26 19.8 L 12.72 20.31 L 13.12 20.86 L 13.46 21.46 L 13.73 22.09 L 13.94 22.74 L 14.07 23.42 L 14.12 24.1 L 14.1 24.78 L 14.01 25.46 L 13.84 26.13 L 13.6 26.77 L 13.29 27.38 L 12.92 27.96 L 12.48 28.49 L 12.0 28.97 L 11.46 29.39 L 10.87 29.75" fill="none" stroke="#111" stroke-width="1.18" stroke-linecap="round" stroke-linejoin="round"/>
<path d="M 15.94 5.0 L 16.61 5.56 L 17.2 6.22 L 17.68 6.95 L 18.04 7.75 L 18.28 8.6 L 18.39 9.47 L 18.37 10.35 L 18.21 11.21 L 17.93 12.05 L 17.53 12.83 L 17.02 13.54 L 16.4 14.17 L 15.7 14.69 L 14.92 15.11 L 14.1 15.4 L 13.23 15.57 L 12.36 15.61 L 11.48 15.51 L 10.63 15.29 L 9.83 14.94 L 9.08 14.47 L 8.42 13.9 L 7.84 13.23 L 7.38 12.49" fill="none" stroke="#111" stroke-width="1.18" stroke-linecap="round" stroke-linejoin="round"/>
<path d="M 11.94 10.0 L 12.02 9.88 L 12.1 9.75 L 12.19 9.62 L 12.27 9.5 L 12.35 9.38 L 12.44 9.25 L 12.52 9.12 L 12.6 9.0 L 12.69 8.88 L 12.77 8.75 L 12.85 8.62 L 12.94 8.5 L 13.02 8.38 L 13.1 8.25 L 13.19 8.12 L 13.27 8.0 L 13.35 7.88 L 13.44 7.75 L 13.52 7.62 L 13.6 7.5 L 13.69 7.38 L 13.77 7.25 L 13.85 7.12 L 13.94 7.0 L 13.94 7.0 L 14.02 7.08 L 14.1 7.17 L 14.19 7.25 L 14.27 7.33 L 14.35 7.42 L 14.44 7.5 L 14.52 7.58 L 14.6 7.67 L 14.69 7.75 L 14.77 7.83 L 14.85 7.92 L 14.94 8.0 L 15.02 8.08 L 15.1 8.17 L 15.19 8.25 L 15.27 8.33 L 15.35 8.42 L 15.44 8.5 L 15.52 8.58 L 15.6 8.67 L 15.69 8.75 L 15.77 8.83 L 15.85 8.92 L 15.94 9.0 L 15.94 9.0 L 15.89 9.21 L 15.83 9.41 L 15.75 9.6 L 15.65 9.79 L 15.53 9.96 L 15.39 10.12 L 15.24 10.27 L 15.08 10.4 L 14.9 10.52 L 14.72 10.62 L 14.52 10.7 L 14.32 10.76 L 14.11 10.8 L 13.9 10.82 L 13.69 10.82 L 13.48 10.8 L 13.27 10.76 L 13.07 10.7 L 12.88 10.62 L 12.69 10.53 L 12.51 10.41 L 12.35 10.28 L 12.2 10.13 L 12.06 9.97" fill="none" stroke="#111" stroke-width="1.18" stroke-linecap="round" stroke-linejoin="round"/>
<path d="M 13.94 24.0 L 13.6 23.83 L 13.27 23.67 L 12.94 23.5 L 12.6 23.33 L 12.27 23.17 L 11.94 23.0 L 11.6 22.83 L 11.27 22.67 L 10.94 22.5 L 10.6 22.33 L 10.27 22.17 L 9.94 22.0 L 9.6 21.83 L 9.27 21.67 L 8.94 21.5 L 8.6 21.33 L 8.27 21.17 L 7.94 21.0 L 7.6 20.83 L 7.27 20.67 L 6.94 20.5 L 6.6 20.33 L 6.27 20.17 L 5.94 20.0 L 5.94 20.0 L 5.65 20.24 L 5.38 20.49 L 5.12 20.77 L 4.9 21.07 L 4.69 21.38 L 4.51 21.71 L 4.36 22.05 L 4.23 22.41 L 4.13 22.77 L 4.06 23.13 L 4.01 23.51 L 4.0 23.88 L 4.01 24.25 L 4.06 24.63 L 4.13 24.99 L 4.23 25.35 L 4.36 25.71 L 4.51 26.05 L 4.69 26.38 L 4.9 26.69 L 5.12 26.99 L 5.38 27.26 L 5.65 27.52 L 5.94 27.76" fill="none" stroke="#111" stroke-width="1.18" stroke-linecap="round" stroke-linejoin="round"/>
<path d="M 7.94 26.0 L 7.57 25.88 L 7.24 25.67 L 6.98 25.39 L 6.79 25.05 L 6.69 24.68 L 6.68 24.29 L 6.76 23.92 L 6.94 23.57 L 7.19 23.28 L 7.51 23.06 L 7.87 22.92 L 8.25 22.87 L 8.64 22.92 L 9.0 23.06 L 9.31 23.28 L 9.57 23.57 L 9.74 23.92 L 9.83 24.29 L 9.82 24.68 L 9.71 25.05 L 9.52 25.39 L 9.26 25.67 L 8.93 25.88 L 8.57 26.0" fill="none" stroke="#111" stroke-width="1.18" stroke-linecap="round" stroke-linejoin="round"/>
</svg>
