<?xml version="1.0" encoding="UTF-8"?>
<svg xmlns="http://www.w3.org/2000/svg" viewBox="0 0 21.94 38.87">
<path d="M 4.94 11.0 L 5.23 11.12 L 5.52 11.25 L 5.82 11.38 L 6.11 11.5 L 6.4 11.62 L 6.69 11.75 L 6.98 11.88 L 7.27 12.0 L 7.57 12.12 L 7.86 12.25 L 8.15 12.38 L 8.44 12.5 L 8.73 12.62 L 9.02 12.75 L 9.32 12.88 L 9.61 13.0 L 9.9 13.12 L 10.19 13.25 L 10.48 13.38 L 10.77 13.5 L 11.07 13.62 L 11.36 13.75 L 11.65 13.88 L 11.94 14.0" fill="none" stroke="#111" stroke-width="1.36" stroke-linecap="round" stroke-linejoin="round"/>
<path d="M 8.94 4.0 L 9.1 4.71 L 9.23 5.42 L 9.33 6.14 L 9.39 6.87 L 9.42 7.59 L 9.42 8.32 L 9.38 9.04 L 9.31 9.77 L 9.21 10.49 L 9.08 11.2 L 8.91 11.91 L 8.71 12.6 L 8.47 13.29 L 8.21 13.97 L 7.91 14.63 L 7.59 15.28 L 7.24 15.92 L 6.85 16.53 L 6.44 17.13 L 6.0 17.71 L 5.54 18.27 L 5.05 18.81 L 4.54 19.32 L 4.0 19.81" fill="none" stroke="#111" stroke-width="1.36" stroke-linecap="round" stroke-linejoin="round"/>
<path d="M 8.94 14.0 L 9.2 14.47 L 9.44 14.96 L 9.64 15.47 L 9.8 15.98 L 9.93 16.51 L 10.03 17.04 L 10.09 17.58 L 10.12 18.12 L 10.11 18.66 L 10.07 19.2 L 9.99 19.74 L 9.88 20.27 L 9.73 20.79 L 9.54 21.3 L 9.33 21.8 L 9.08 22.28 L 8.8 22.74 L 8.49 23.19 L 8.16 23.61 L 7.79 24.01 L 7.4 24.39 L 6.99 24.74 L 6.56 25.07 L 6.1 25.36" fill="none" stroke="#111" stroke-width="1.36" stroke-linecap="round" stroke-linejoin="round"/>
<path d="M 6.94 16.0 L 6.98 16.12 L 7.02 16.25 L 7.07 16.38 L 7.11 16.5 L 7.15 16.62 L 7.19 16.75 L 7.23 16.88 L 7.27 17.0 L 7.32 17.12 L 7.36 17.25 L 7.4 17.38 L 7.44 17.5 L 7.48 17.62 L 7.52 17.75 L 7.57 17.88 L 7.61 18.0 L 7.65 18.12 L 7.69 18.25 L 7.73 18.38 L 7.77 18.5 L 7.82 18.62 L 7.86 18.75 L 7.9 18.88 L 7.94 19.0" fill="none" stroke="#111" stroke-width="1.36" stroke-linecap="round" stroke-linejoin="round"/>
<path d="M 4.94 19.0 L 5.02 19.08 L 5.11 19.17 L 5.19 19.25 L 5.27 19.33 L 5.36 19.42 L 5.44 19.5 L 5.52 19.58 L 5.61 19.67 L 5.69 19.75 L 5.77 19.83 L 5.86 19.92 L 5.94 20.0 L 6.02 20.08 L 6.11 20.17 L 6.19 20.25 L 6.27 20.33 L 6.36 20.42 L 6.44 20.5 L 6.52 20.58 L 6.61 20.67 L 6.69 20.75 L 6.77 20.83 L 6.86 20.92 L 6.94 21.0" fill="none" stroke="#111" stroke-width="1.36" stroke-linecap="round" stroke-linejoin="round"/>
<path d="M 11.94 16.0 L 12.19 16.17 L 12.44 16.33 L 12.69 16.5 L 12.94 16.67 L 13.19 16.83 L 13.44 17.0 L 13.69 17.17 L 13.94 17.33 L 14.19 17.5 L 14.44 17.67 L 14.69 17.83 L 14.94 18.0 L 15.19 18.17 L 15.44 18.33 L 15.69 18.5 L 15.94 18.67 L 16.19 18.83 L 16.44 19.0 L 16.69 19.17 L 16.94 19.33 L 17.19 19.5 L 17.44 19.67 L 17.69 19.83 L 17.94 20.0" fill="none" stroke="#111" stroke-width="1.36" stroke-linecap="round" stroke-linejoin="round"/>
<path d="M 16.94 8.0 L 16.84 8.87 L 16.72 9.73 L 16.6 10.6 L 16.46 11.46 L 16.3 12.32 L 16.14 13.18 L 15.96 14.03 L 15.76 14.88 L 15.56 15.73 L 15.34 16.58 L 15.11 17.42 L 14.86 18.26 L 14.6 19.1 L 14.33 19.93 L 14.05 20.75 L 13.75 21.58 L 13.45 22.39 L 13.13 23.21 L 12.79 24.01 L 12.45 24.82 L 12.09 25.61 L 11.72 26.41 L 11.34 27.19 L 10.95 27.97" fill="none" stroke="#111" stroke-width="1.36" stroke-linecap="round" stroke-linejoin="round"/>
<path d="M 14.94 18.0 L 15.16 18.7 L 15.36 19.4 L 15.53 20.11 L 15.67 20.83 L 15.78 21.55 L 15.87 22.28 L 15.94 23.01 L 15.97 23.74 L 15.98 24.47 L 15.96 25.2 L 15.92 25.93 L 15.84 26.66 L 15.75 27.38 L 15.62 28.1 L 15.47 28.82 L 15.29 29.53 L 15.09 30.23 L 14.86 30.92 L 14.6 31.61 L 14.32 32.28 L 14.02 32.95 L 13.69 33.6 L 13.33 34.24 L 12.96 34.87" fill="none" stroke="#111" stroke-width="1.36" stroke-linecap="round" stroke-linejoin="round"/>
<path d="M 12.94 23.0 L 13.07 23.08 L 13.19 23.17 L 13.32 23.25 L 13.44 23.33 L 13.57 23.42 L 13.69 23.5 L 13.82 23.58 L 13.94 23.67 L 14.07 23.75 L 14.19 23.83 L 14.32 23.92 L 14.44 24.0 L 14.57 24.08 L 14.69 24.17 L 14.82 24.25 L 14.94 24.33 L 15.07 24.42 L 15.19 24.5 L 15.32 24.58 L 15.44 24.67 L 15.57 24.75 L 15.69 24.83 L 15.82 24.92 L 15.94 25.0" fill="none" stroke="#111" stroke-width="1.36" stroke-linecap="round" stroke-linejoin="round"/>
<path d="M 11.94 26.0 L 12.07 26.08 L 12.19 26.17 L 12.32 26.25 L 12.44 26.33 L 12.57 26.42 L 12.69 26.5 L 12.82 26.58 L 12.94 26.67 L 13.07 26.75 L 13.19 26.83 L 13.32 26.92 L 13.44 27.0 L 13.57 27.08 L 13.69 27.17 L 13.82 27.25 L 13.94 27.33 L 14.07 27.42 L 14.19 27.5 L 14.32 27.58 L 14.44 27.67 L 14.57 27.75 L 14.69 27.83 L 14.82 27.92 L 14.94 28.0" fill="none" stroke="#111" stroke-width="1.36" stroke-linecap="round" stroke-linejoin="round"/>
</svg>
