<?xml version="1.0" encoding="UTF-8"?>
<svg xmlns="http://www.w3.org/2000/svg" viewBox="0 0 30.00 33.00">
<path d="M 10.0 4.0 L 9.79 4.29 L 9.58 4.58 L 9.37 4.88 L 9.17 5.17 L 8.96 5.46 L 8.75 5.75 L 8.54 6.04 L 8.33 6.33 L 8.12 6.62 L 7.92 6.92 L 7.71 7.21 L 7.5 7.5 L 7.29 7.79 L 7.08 8.08 L 6.88 8.38 L 6.67 8.67 L 6.46 8.96 L 6.25 9.25 L 6.04 9.54 L 5.83 9.83 L 5.62 10.12 L 5.42 10.42 L 5.21 10.71 L 5.0 11.0" fill="none" stroke="#111" stroke-width="1.16" stroke-linecap="round" stroke-linejoin="round"/>
<path d="M 8.0 7.0 L 8.04 7.88 L 8.08 8.75 L 8.12 9.62 L 8.17 10.5 L 8.21 11.38 L 8.25 12.25 L 8.29 13.12 L 8.33 14.0 L 8.37 14.88 L 8.42 15.75 L 8.46 16.62 L 8.5 17.5 L 8.54 18.38 L 8.58 19.25 L 8.62 20.12 L 8.67 21.0 L 8.71 21.88 L 8.75 22.75 L 8.79 23.63 L 8.83 24.5 L 8.87 25.38 L 8.92 26.25 L 8.96 27.13 L 9.0 28.0" fill="none" stroke="#111" stroke-width="1.16" stroke-linecap="round" stroke-linejoin="round"/>
<path d="M 6.0 11.0 L 6.08 11.08 L 6.17 11.17 L 6.25 11.25 L 6.33 11.33 L 6.42 11.42 L 6.5 11.5 L 6.58 11.58 L 6.67 11.67 L 6.75 11.75 L 6.83 11.83 L 6.92 11.92 L 7.0 12.0 L 7.08 12.08 L 7.17 12.17 L 7.25 12.25 L 7.33 12.33 L 7.42 12.42 L 7.5 12.5 L 7.58 12.58 L 7.67 12.67 L 7.75 12.75 L 7.83 12.83 L 7.92 12.92 L 8.0 13.0" fill="none" stroke="#111" stroke-width="1.16" stroke-linecap="round" stroke-linejoin="round"/>
<path d="M 10.0 10.0 L 9.96 10.12 L 9.92 10.25 L 9.87 10.38 L 9.83 10.5 L 9.79 10.62 L 9.75 10.75 L 9.71 10.88 L 9.67 11.0 L 9.62 11.12 L 9.58 11.25 L 9.54 11.38 L 9.5 11.5 L 9.46 11.62 L 9.42 11.75 L 9.37 11.88 L 9.33 12.0 L 9.29 12.12 L 9.25 12.25 L 9.21 12.38 L 9.17 12.5 L 9.12 12.62 L 9.08 12.75 L 9.04 12.88 L 9.0 13.0" fill="none" stroke="#111" stroke-width="1.16" stroke-linecap="round" stroke-linejoin="round"/>
<path d="M 8.0 20.0 L 7.83 20.25 L 7.67 20.5 L 7.5 20.75 L 7.33 21.0 L 7.17 21.25 L 7.0 21.5 L 6.83 21.75 L 6.67 22.0 L 6.5 22.25 L 6.33 22.5 L 6.17 22.75 L 6.0 23.0 L 5.83 23.25 L 5.67 23.5 L 5.5 23.75 L 5.33 24.0 L 5.17 24.25 L 5.0 24.5 L 4.83 24.75 L 4.67 25.0 L 4.5 25.25 L 4.33 25.5 L 4.17 25.75 L 4.0 26.0" fill="none" stroke="#111" stroke-width="1.16" stroke-linecap="round" stroke-linejoin="round"/>
<path d="M 9.0 20.0 L 9.12 20.12 L 9.25 20.25 L 9.37 20.38 L 9.5 20.5 L 9.62 20.62 L 9.75 20.75 L 9.87 20.88 L 10.0 21.0 L 10.12 21.12 L 10.25 21.25 L 10.37 21.38 L 10.5 21.5 L 10.62 21.62 L 10.75 21.75 L 10.87 21.88 L 11.0 22.0 L 11.12 22.12 L 11.25 22.25 L 11.37 22.38 L 11.5 22.5 L 11.62 22.62 L 11.75 22.75 L 11.87 22.88 L 12.0 23.0" fill="none" stroke="#111" stroke-width="1.16" stroke-linecap="round" stroke-linejoin="round"/>
<path d="M 12.0 10.0 L 11.96 10.33 L 11.92 10.67 L 11.87 11.0 L 11.83 11.33 L 11.79 11.67 L 11.75 12.0 L 11.71 12.33 L 11.67 12.67 L 11.62 13.0 L 11.58 13.33 L 11.54 13.67 L 11.5 14.0 L 11.46 14.33 L 11.42 14.67 L 11.37 15.0 L 11.33 15.33 L 11.29 15.67 L 11.25 16.0 L 11.21 16.33 L 11.17 16.67 L 11.12 17.0 L 11.08 17.33 L 11.04 17.67 L 11.0 18.0" fill="none" stroke="#111" stroke-width="1.16" stroke-linecap="round" stroke-linejoin="round"/>
<path d="M 13.0 10.0 L 13.0 10.5 L 13.0 11.0 L 13.0 11.5 L 13.0 12.0 L 13.0 12.5 L 13.0 13.0 L 13.0 13.5 L 13.0 14.0 L 13.0 14.5 L 13.0 15.0 L 13.0 15.5 L 13.0 16.0 L 13.0 16.5 L 13.0 17.0 L 13.0 17.5 L 13.0 18.0 L 13.0 18.5 L 13.0 19.0 L 13.0 19.5 L 13.0 20.0 L 13.0 20.5 L 13.0 21.0 L 13.0 21.5 L 13.0 22.0" fill="none" stroke="#111" stroke-width="1.16" stroke-linecap="round" stroke-linejoin="round"/>
<path d="M 15.0 4.0 L 15.04 4.25 L 15.08 4.5 L 15.12 4.75 L 15.17 5.0 L 15.21 5.25 L 15.25 5.5 L 15.29 5.75 L 15.33 6.0 L 15.37 6.25 L 15.42 6.5 L 15.46 6.75 L 15.5 7.0 L 15.54 7.25 L 15.58 7.5 L 15.62 7.75 L 15.67 8.0 L 15.71 8.25 L 15.75 8.5 L 15.79 8.75 L 15.83 9.0 L 15.87 9.25 L 15.92 9.5 L 15.96 9.75 L 16.0 10.0" fill="none" stroke="#111" stroke-width="1.16" stroke-linecap="round" stroke-linejoin="round"/>
<path d="M 15.0 5.0 L 15.46 4.96 L 15.92 4.92 L 16.38 4.88 L 16.83 4.83 L 17.29 4.79 L 17.75 4.75 L 18.21 4.71 L 18.67 4.67 L 19.12 4.62 L 19.58 4.58 L 20.04 4.54 L 20.5 4.5 L 20.96 4.46 L 21.42 4.42 L 21.88 4.38 L 22.33 4.33 L 22.79 4.29 L 23.25 4.25 L 23.71 4.21 L 24.17 4.17 L 24.62 4.12 L 25.08 4.08 L 25.54 4.04 L 26.0 4.0" fill="none" stroke="#111" stroke-width="1.16" stroke-linecap="round" stroke-linejoin="round"/>
<path d="M 26.0 4.0 L 25.62 4.21 L 25.25 4.42 L 24.88 4.62 L 24.5 4.83 L 24.12 5.04 L 23.75 5.25 L 23.38 5.46 L 23.0 5.67 L 22.62 5.88 L 22.25 6.08 L 21.88 6.29 L 21.5 6.5 L 21.12 6.71 L 20.75 6.92 L 20.37 7.12 L 20.0 7.33 L 19.62 7.54 L 19.25 7.75 L 18.87 7.96 L 18.5 8.17 L 18.12 8.38 L 17.75 8.58 L 17.37 8.79 L 17.0 9.0" fill="none" stroke="#111" stroke-width="1.16" stroke-linecap="round" stroke-linejoin="round"/>
<path d="M 17.0 4.0 L 17.04 4.12 L 17.08 4.25 L 17.12 4.38 L 17.17 4.5 L 17.21 4.62 L 17.25 4.75 L 17.29 4.88 L 17.33 5.0 L 17.38 5.12 L 17.42 5.25 L 17.46 5.38 L 17.5 5.5 L 17.54 5.62 L 17.58 5.75 L 17.62 5.88 L 17.67 6.0 L 17.71 6.12 L 17.75 6.25 L 17.79 6.38 L 17.83 6.5 L 17.88 6.62 L 17.92 6.75 L 17.96 6.88 L 18.0 7.0" fill="none" stroke="#111" stroke-width="1.16" stroke-linecap="round" stroke-linejoin="round"/>
<path d="M 21.0 4.0 L 21.04 4.08 L 21.08 4.17 L 21.12 4.25 L 21.17 4.33 L 21.21 4.42 L 21.25 4.5 L 21.29 4.58 L 21.33 4.67 L 21.38 4.75 L 21.42 4.83 L 21.46 4.92 L 21.5 5.0 L 21.54 5.08 L 21.58 5.17 L 21.62 5.25 L 21.67 5.33 L 21.71 5.42 L 21.75 5.5 L 21.79 5.58 L 21.83 5.67 L 21.88 5.75 L 21.92 5.83 L 21.96 5.92 L 22.0 6.0" fill="none" stroke="#111" stroke-width="1.16" stroke-linecap="round" stroke-linejoin="round"/>
<path d="M 19.0 9.0 L 19.08 9.83 L 19.17 10.67 L 19.25 11.5 L 19.33 12.33 L 19.42 13.17 L 19.5 14.0 L 19.58 14.83 L 19.67 15.67 L 19.75 16.5 L 19.83 17.33 L 19.92 18.17 L 20.0 19.0 L 20.08 19.83 L 20.17 20.67 L 20.25 21.5 L 20.33 22.33 L 20.42 23.17 L 20.5 24.0 L 20.58 24.83 L 20.67 25.67 L 20.75 26.5 L 20.83 27.33 L 20.92 28.17 L 21.0 29.0" fill="none" stroke="#111" stroke-width="1.16" stroke-linecap="round" stroke-linejoin="round"/>
<path d="M 19.0 11.0 L 18.83 11.21 L 18.67 11.42 L 18.5 11.62 L 18.33 11.83 L 18.17 12.04 L 18.0 12.25 L 17.83 12.46 L 17.67 12.67 L 17.5 12.88 L 17.33 13.08 L 17.17 13.29 L 17.0 13.5 L 16.83 13.71 L 16.67 13.92 L 16.5 14.12 L 16.33 14.33 L 16.17 14.54 L 16.0 14.75 L 15.83 14.96 L 15.67 15.17 L 15.5 15.38 L 15.33 15.58 L 15.17 15.79 L 15.0 16.0" fill="none" stroke="#111" stroke-width="1.16" stroke-linecap="round" stroke-linejoin="round"/>
<path d="M 20.0 10.0 L 20.08 10.0 L 20.17 10.0 L 20.25 10.0 L 20.33 10.0 L 20.42 10.0 L 20.5 10.0 L 20.58 10.0 L 20.67 10.0 L 20.75 10.0 L 20.83 10.0 L 20.92 10.0 L 21.0 10.0 L 21.08 10.0 L 21.17 10.0 L 21.25 10.0 L 21.33 10.0 L 21.42 10.0 L 21.5 10.0 L 21.58 10.0 L 21.67 10.0 L 21.75 10.0 L 21.83 10.0 L 21.92 10.0 L 22.0 10.0" fill="none" stroke="#111" stroke-width="1.16" stroke-linecap="round" stroke-linejoin="round"/>
<path d="M 21.0 12.0 L 21.08 12.04 L 21.17 12.08 L 21.25 12.12 L 21.33 12.17 L 21.42 12.21 L 21.5 12.25 L 21.58 12.29 L 21.67 12.33 L 21.75 12.38 L 21.83 12.42 L 21.92 12.46 L 22.0 12.5 L 22.08 12.54 L 22.17 12.58 L 22.25 12.62 L 22.33 12.67 L 22.42 12.71 L 22.5 12.75 L 22.58 12.79 L 22.67 12.83 L 22.75 12.88 L 22.83 12.92 L 22.92 12.96 L 23.0 13.0" fill="none" stroke="#111" stroke-width="1.16" stroke-linecap="round" stroke-linejoin="round"/>
<path d="M 20.0 17.0 L 19.96 17.08 L 19.92 17.17 L 19.88 17.25 L 19.83 17.33 L 19.79 17.42 L 19.75 17.5 L 19.71 17.58 L 19.67 17.67 L 19.62 17.75 L 19.58 17.83 L 19.54 17.92 L 19.5 18.0 L 19.46 18.08 L 19.42 18.17 L 19.38 18.25 L 19.33 18.33 L 19.29 18.42 L 19.25 18.5 L 19.21 18.58 L 19.17 18.67 L 19.12 18.75 L 19.08 18.83 L 19.04 18.92 L 19.0 19.0" fill="none" stroke="#111" stroke-width="1.16" stroke-linecap="round" stroke-linejoin="round"/>
<path d="M 20.0 22.0 L 19.83 22.12 L 19.67 22.25 L 19.5 22.38 L 19.33 22.5 L 19.17 22.62 L 19.0 22.75 L 18.83 22.88 L 18.67 23.0 L 18.5 23.12 L 18.33 23.25 L 18.17 23.38 L 18.0 23.5 L 17.83 23.62 L 17.67 23.75 L 17.5 23.88 L 17.33 24.0 L 17.17 24.12 L 17.0 24.25 L 16.83 24.38 L 16.67 24.5 L 16.5 24.62 L 16.33 24.75 L 16.17 24.88 L 16.0 25.0" fill="none" stroke="#111" stroke-width="1.16" stroke-linecap="round" stroke-linejoin="round"/>
<path d="M 20.0 22.0 L 20.17 22.12 L 20.33 22.25 L 20.5 22.38 L 20.67 22.5 L 20.83 22.62 L 21.0 22.75 L 21.17 22.88 L 21.33 23.0 L 21.5 23.12 L 21.67 23.25 L 21.83 23.38 L 22.0 23.5 L 22.17 23.62 L 22.33 23.75 L 22.5 23.88 L 22.67 24.0 L 22.83 24.12 L 23.0 24.25 L 23.17 24.38 L 23.33 24.5 L 23.5 24.62 L 23.67 24.75 L 23.83 24.88 L 24.0 25.0" fill="none" stroke="#111" stroke-width="1.16" stroke-linecap="round" stroke-linejoin="round"/>
</svg>
