<?xml version="1.0" encoding="UTF-8"?>
<svg xmlns="http://www.w3.org/2000/svg" viewBox="0 0 24.00 28.00">
<path d="M 4.0 7.0 L 4.33 7.38 L 4.67 7.75 L 5.0 8.12 L 5.33 8.5 L 5.67 8.88 L 6.0 9.25 L 6.33 9.62 L 6.67 10.0 L 7.0 10.38 L 7.33 10.75 L 7.67 11.12 L 8.0 11.5 L 8.33 11.88 L 8.67 12.25 L 9.0 12.62 L 9.33 13.0 L 9.67 13.38 L 10.0 13.75 L 10.33 14.12 L 10.67 14.5 L 11.0 14.88 L 11.33 15.25 L 11.67 15.62 L 12.0 16.0" fill="none" stroke="#111" stroke-width="0.98" stroke-linecap="round" stroke-linejoin="round"/>
<path d="M 12.0 4.0 L 12.0 4.83 L 12.0 5.67 L 12.0 6.5 L 12.0 7.33 L 12.0 8.17 L 12.0 9.0 L 12.0 9.83 L 12.0 10.67 L 12.0 11.5 L 12.0 12.33 L 12.0 13.17 L 12.0 14.0 L 12.0 14.83 L 12.0 15.67 L 12.0 16.5 L 12.0 17.33 L 12.0 18.17 L 12.0 19.0 L 12.0 19.83 L 12.0 20.67 L 12.0 21.5 L 12.0 22.33 L 12.0 23.17 L 12.0 24.0" fill="none" stroke="#111" stroke-width="0.98" stroke-linecap="round" stroke-linejoin="round"/>
<path d="M 20.0 6.0 L 19.67 6.42 L 19.33 6.83 L 19.0 7.25 L 18.67 7.67 L 18.33 8.08 L 18.0 8.5 L 17.67 8.92 L 17.33 9.33 L 17.0 9.75 L 16.67 10.17 L 16.33 10.58 L 16.0 11.0 L 15.67 11.42 L 15.33 11.83 L 15.0 12.25 L 14.67 12.67 L 14.33 13.08 L 14.0 13.5 L 13.67 13.92 L 13.33 14.33 L 13.0 14.75 L 12.67 15.17 L 12.33 15.58 L 12.0 16.0" fill="none" stroke="#111" stroke-width="0.98" stroke-linecap="round" stroke-linejoin="round"/>
<path d="M 5.0 24.0 L 5.54 24.0 L 6.08 24.0 L 6.62 24.0 L 7.17 24.0 L 7.71 24.0 L 8.25 24.0 L 8.79 24.0 L 9.33 24.0 L 9.88 24.0 L 10.42 24.0 L 10.96 24.0 L 11.5 24.0 L 12.04 24.0 L 12.58 24.0 L 13.12 24.0 L 13.67 24.0 L 14.21 24.0 L 14.75 24.0 L 15.29 24.0 L 15.83 24.0 L 16.38 24.0 L 16.92 24.0 L 17.46 24.0 L 18.0 24.0" fill="none" stroke="#111" stroke-width="0.98" stroke-linecap="round" stroke-linejoin="round"/>
</svg>
