<?xml version="1.0" encoding="UTF-8"?>
<svg xmlns="http://www.w3.org/2000/svg" viewBox="0 0 18.00 31.38">
<path d="M 4.0 7.0 L 4.21 7.21 L 4.42 7.42 L 4.62 7.62 L 4.83 7.83 L 5.04 8.04 L 5.25 8.25 L 5.46 8.46 L 5.67 8.67 L 5.88 8.88 L 6.08 9.08 L 6.29 9.29 L 6.5 9.5 L 6.71 9.71 L 6.92 9.92 L 7.12 10.12 L 7.33 10.33 L 7.54 10.54 L 7.75 10.75 L 7.96 10.96 L 8.17 11.17 L 8.38 11.38 L 8.58 11.58 L 8.79 11.79 L 9.0 12.0" fill="none" stroke="#111" stroke-width="1.10" stroke-linecap="round" stroke-linejoin="round"/>
<path d="M 4.0 12.0 L 4.21 12.25 L 4.42 12.5 L 4.62 12.75 L 4.83 13.0 L 5.04 13.25 L 5.25 13.5 L 5.46 13.75 L 5.67 14.0 L 5.88 14.25 L 6.08 14.5 L 6.29 14.75 L 6.5 15.0 L 6.71 15.25 L 6.92 15.5 L 7.12 15.75 L 7.33 16.0 L 7.54 16.25 L 7.75 16.5 L 7.96 16.75 L 8.17 17.0 L 8.38 17.25 L 8.58 17.5 L 8.79 17.75 L 9.0 18.0" fill="none" stroke="#111" stroke-width="1.10" stroke-linecap="round" stroke-linejoin="round"/>
<path d="M 14.0 11.0 L 13.79 11.29 L 13.58 11.58 L 13.38 11.88 L 13.17 12.17 L 12.96 12.46 L 12.75 12.75 L 12.54 13.04 L 12.33 13.33 L 12.12 13.62 L 11.92 13.92 L 11.71 14.21 L 11.5 14.5 L 11.29 14.79 L 11.08 15.08 L 10.88 15.38 L 10.67 15.67 L 10.46 15.96 L 10.25 16.25 L 10.04 16.54 L 9.83 16.83 L 9.63 17.12 L 9.42 17.42 L 9.21 17.71 L 9.0 18.0" fill="none" stroke="#111" stroke-width="1.10" stroke-linecap="round" stroke-linejoin="round"/>
<path d="M 8.0 21.0 L 7.39 21.42 L 6.88 21.97 L 6.5 22.62 L 6.28 23.33 L 6.22 24.08 L 6.32 24.82 L 6.58 25.52 L 6.99 26.14 L 7.52 26.66 L 8.16 27.05 L 8.87 27.3 L 9.61 27.38 L 10.35 27.3 L 11.06 27.05 L 11.69 26.66 L 12.23 26.14 L 12.64 25.52 L 12.9 24.82 L 13.0 24.08 L 12.94 23.33 L 12.71 22.62 L 12.34 21.97 L 11.83 21.42 L 11.22 21.0" fill="none" stroke="#111" stroke-width="1.10" stroke-linecap="round" stroke-linejoin="round"/>
<path d="M 9.0 4.0 L 9.0 4.96 L 9.0 5.92 L 9.0 6.88 L 9.0 7.83 L 9.0 8.79 L 9.0 9.75 L 9.0 10.71 L 9.0 11.67 L 9.0 12.62 L 9.0 13.58 L 9.0 14.54 L 9.0 15.5 L 9.0 16.46 L 9.0 17.42 L 9.0 18.38 L 9.0 19.33 L 9.0 20.29 L 9.0 21.25 L 9.0 22.21 L 9.0 23.17 L 9.0 24.12 L 9.0 25.08 L 9.0 26.04 L 9.0 27.0" fill="none" stroke="#111" stroke-width="1.10" stroke-linecap="round" stroke-linejoin="round"/>
<path d="M 14.0 5.0 L 13.79 5.29 L 13.58 5.58 L 13.38 5.88 L 13.17 6.17 L 12.96 6.46 L 12.75 6.75 L 12.54 7.04 L 12.33 7.33 L 12.12 7.62 L 11.92 7.92 L 11.71 8.21 L 11.5 8.5 L 11.29 8.79 L 11.08 9.08 L 10.88 9.38 L 10.67 9.67 L 10.46 9.96 L 10.25 10.25 L 10.04 10.54 L 9.83 10.83 L 9.63 11.12 L 9.42 11.42 L 9.21 11.71 L 9.0 12.0" fill="none" stroke="#111" stroke-width="1.10" stroke-linecap="round" stroke-linejoin="round"/>
</svg>
