<?xml version="1.0" encoding="UTF-8"?>
<svg xmlns="http://www.w3.org/2000/svg" viewBox="0 0 24.44 39.30">
<path d="M 10.08 4.0 L 10.12 4.71 L 10.16 5.42 L 10.2 6.12 L 10.24 6.83 L 10.29 7.54 L 10.33 8.25 L 10.37 8.96 L 10.41 9.67 L 10.45 10.38 L 10.49 11.08 L 10.54 11.79 L 10.58 12.5 L 10.62 13.21 L 10.66 13.92 L 10.7 14.62 L 10.74 15.33 L 10.79 16.04 L 10.83 16.75 L 10.87 17.46 L 10.91 18.17 L 10.95 18.88 L 10.99 19.58 L 11.04 20.29 L 11.08 21.0" fill="none" stroke="#111" stroke-width="1.38" stroke-linecap="round" stroke-linejoin="round"/>
<path d="M 6.08 6.0 L 6.16 6.0 L 6.24 6.0 L 6.33 6.0 L 6.41 6.0 L 6.49 6.0 L 6.58 6.0 L 6.66 6.0 L 6.74 6.0 L 6.83 6.0 L 6.91 6.0 L 6.99 6.0 L 7.08 6.0 L 7.16 6.0 L 7.24 6.0 L 7.33 6.0 L 7.41 6.0 L 7.49 6.0 L 7.58 6.0 L 7.66 6.0 L 7.74 6.0 L 7.83 6.0 L 7.91 6.0 L 7.99 6.0 L 8.08 6.0" fill="none" stroke="#111" stroke-width="1.38" stroke-linecap="round" stroke-linejoin="round"/>
<path d="M 6.08 8.0 L 6.2 8.0 L 6.33 8.0 L 6.45 8.0 L 6.58 8.0 L 6.7 8.0 L 6.83 8.0 L 6.95 8.0 L 7.08 8.0 L 7.2 8.0 L 7.33 8.0 L 7.45 8.0 L 7.58 8.0 L 7.7 8.0 L 7.83 8.0 L 7.95 8.0 L 8.08 8.0 L 8.2 8.0 L 8.33 8.0 L 8.45 8.0 L 8.58 8.0 L 8.7 8.0 L 8.83 8.0 L 8.95 8.0 L 9.08 8.0" fill="none" stroke="#111" stroke-width="1.38" stroke-linecap="round" stroke-linejoin="round"/>
<path d="M 6.08 10.0 L 6.2 10.0 L 6.33 10.0 L 6.45 10.0 L 6.58 10.0 L 6.7 10.0 L 6.83 10.0 L 6.95 10.0 L 7.08 10.0 L 7.2 10.0 L 7.33 10.0 L 7.45 10.0 L 7.58 10.0 L 7.7 10.0 L 7.83 10.0 L 7.95 10.0 L 8.08 10.0 L 8.2 10.0 L 8.33 10.0 L 8.45 10.0 L 8.58 10.0 L 8.7 10.0 L 8.83 10.0 L 8.95 10.0 L 9.08 10.0" fill="none" stroke="#111" stroke-width="1.38" stroke-linecap="round" stroke-linejoin="round"/>
<path d="M 7.08 4.0 L 7.08 4.29 L 7.08 4.58 L 7.08 4.88 L 7.08 5.17 L 7.08 5.46 L 7.08 5.75 L 7.08 6.04 L 7.08 6.33 L 7.08 6.62 L 7.08 6.92 L 7.08 7.21 L 7.08 7.5 L 7.08 7.79 L 7.08 8.08 L 7.08 8.38 L 7.08 8.67 L 7.08 8.96 L 7.08 9.25 L 7.08 9.54 L 7.08 9.83 L 7.08 10.12 L 7.08 10.42 L 7.08 10.71 L 7.08 11.0" fill="none" stroke="#111" stroke-width="1.38" stroke-linecap="round" stroke-linejoin="round"/>
<path d="M 12.08 6.0 L 12.16 6.0 L 12.24 6.0 L 12.33 6.0 L 12.41 6.0 L 12.49 6.0 L 12.58 6.0 L 12.66 6.0 L 12.74 6.0 L 12.83 6.0 L 12.91 6.0 L 12.99 6.0 L 13.08 6.0 L 13.16 6.0 L 13.24 6.0 L 13.33 6.0 L 13.41 6.0 L 13.49 6.0 L 13.58 6.0 L 13.66 6.0 L 13.74 6.0 L 13.83 6.0 L 13.91 6.0 L 13.99 6.0 L 14.08 6.0" fill="none" stroke="#111" stroke-width="1.38" stroke-linecap="round" stroke-linejoin="round"/>
<path d="M 12.08 8.0 L 12.2 8.0 L 12.33 8.0 L 12.45 8.0 L 12.58 8.0 L 12.7 8.0 L 12.83 8.0 L 12.95 8.0 L 13.08 8.0 L 13.2 8.0 L 13.33 8.0 L 13.45 8.0 L 13.58 8.0 L 13.7 8.0 L 13.83 8.0 L 13.95 8.0 L 14.08 8.0 L 14.2 8.0 L 14.33 8.0 L 14.45 8.0 L 14.58 8.0 L 14.7 8.0 L 14.83 8.0 L 14.95 8.0 L 15.08 8.0" fill="none" stroke="#111" stroke-width="1.38" stroke-linecap="round" stroke-linejoin="round"/>
<path d="M 13.08 4.0 L 13.08 4.25 L 13.08 4.5 L 13.08 4.75 L 13.08 5.0 L 13.08 5.25 L 13.08 5.5 L 13.08 5.75 L 13.08 6.0 L 13.08 6.25 L 13.08 6.5 L 13.08 6.75 L 13.08 7.0 L 13.08 7.25 L 13.08 7.5 L 13.08 7.75 L 13.08 8.0 L 13.08 8.25 L 13.08 8.5 L 13.08 8.75 L 13.08 9.0 L 13.08 9.25 L 13.08 9.5 L 13.08 9.75 L 13.08 10.0" fill="none" stroke="#111" stroke-width="1.38" stroke-linecap="round" stroke-linejoin="round"/>
<path d="M 16.08 4.0 L 16.08 4.21 L 16.08 4.42 L 16.08 4.62 L 16.08 4.83 L 16.08 5.04 L 16.08 5.25 L 16.08 5.46 L 16.08 5.67 L 16.08 5.88 L 16.08 6.08 L 16.08 6.29 L 16.08 6.5 L 16.08 6.71 L 16.08 6.92 L 16.08 7.12 L 16.08 7.33 L 16.08 7.54 L 16.08 7.75 L 16.08 7.96 L 16.08 8.17 L 16.08 8.38 L 16.08 8.58 L 16.08 8.79 L 16.08 9.0" fill="none" stroke="#111" stroke-width="1.38" stroke-linecap="round" stroke-linejoin="round"/>
<path d="M 4.08 5.0 L 4.0 6.13 L 4.08 7.25 L 4.31 8.36 L 4.69 9.42 L 5.21 10.42 L 5.87 11.34 L 6.64 12.16 L 7.52 12.87 L 8.49 13.45 L 9.53 13.89 L 10.62 14.19 L 11.74 14.33 L 12.87 14.32 L 13.98 14.15 L 15.07 13.84 L 16.1 13.37 L 17.05 12.77 L 17.92 12.05 L 18.68 11.21 L 19.31 10.28 L 19.82 9.27 L 20.18 8.2 L 20.39 7.09 L 20.44 5.96" fill="none" stroke="#111" stroke-width="1.38" stroke-linecap="round" stroke-linejoin="round"/>
<path d="M 6.08 18.0 L 6.45 18.0 L 6.83 18.0 L 7.2 18.0 L 7.58 18.0 L 7.95 18.0 L 8.33 18.0 L 8.7 18.0 L 9.08 18.0 L 9.45 18.0 L 9.83 18.0 L 10.2 18.0 L 10.58 18.0 L 10.95 18.0 L 11.33 18.0 L 11.7 18.0 L 12.08 18.0 L 12.45 18.0 L 12.83 18.0 L 13.2 18.0 L 13.58 18.0 L 13.95 18.0 L 14.33 18.0 L 14.7 18.0 L 15.08 18.0" fill="none" stroke="#111" stroke-width="1.38" stroke-linecap="round" stroke-linejoin="round"/>
<path d="M 11.08 21.0 L 10.39 20.89 L 9.69 20.9 L 9.01 21.04 L 8.36 21.29 L 7.77 21.66 L 7.26 22.12 L 6.83 22.67 L 6.51 23.29 L 6.3 23.95 L 6.21 24.64 L 6.25 25.34 L 6.41 26.01 L 6.69 26.65 L 7.07 27.23 L 7.56 27.73 L 8.12 28.14 L 8.75 28.44 L 9.42 28.62 L 10.11 28.68 L 10.81 28.62 L 11.48 28.43 L 12.1 28.13 L 12.67 27.72 L 13.15 27.22 L 13.08 27.0 L 13.37 26.8 L 13.65 26.57 L 13.89 26.31 L 14.11 26.02 L 14.29 25.71 L 14.43 25.38 L 14.54 25.04 L 14.6 24.69 L 14.63 24.33 L 14.62 23.97 L 14.56 23.62 L 14.47 23.27 L 14.34 22.94 L 14.17 22.62 L 13.96 22.33 L 13.73 22.06 L 13.46 21.82 L 13.17 21.61 L 12.86 21.43 L 12.53 21.29 L 12.19 21.19 L 11.83 21.13 L 11.48 21.11 L 11.12 21.13" fill="none" stroke="#111" stroke-width="1.38" stroke-linecap="round" stroke-linejoin="round"/>
<path d="M 8.08 24.0 L 8.24 24.0 L 8.41 24.0 L 8.58 24.0 L 8.74 24.0 L 8.91 24.0 L 9.08 24.0 L 9.24 24.0 L 9.41 24.0 L 9.58 24.0 L 9.74 24.0 L 9.91 24.0 L 10.08 24.0 L 10.24 24.0 L 10.41 24.0 L 10.58 24.0 L 10.74 24.0 L 10.91 24.0 L 11.08 24.0 L 11.24 24.0 L 11.41 24.0 L 11.58 24.0 L 11.74 24.0 L 11.91 24.0 L 12.08 24.0" fill="none" stroke="#111" stroke-width="1.38" stroke-linecap="round" stroke-linejoin="round"/>
<path d="M 8.08 28.0 L 7.65 28.72 L 7.35 29.51 L 7.21 30.34 L 7.22 31.18 L 7.38 32.01 L 7.69 32.79 L 8.14 33.5 L 8.71 34.12 L 9.39 34.62 L 10.14 34.99 L 10.95 35.22 L 11.79 35.3 L 12.63 35.22 L 13.44 34.99 L 14.19 34.62 L 14.86 34.12 L 15.43 33.5 L 15.88 32.79 L 16.19 32.01 L 16.36 31.18 L 16.37 30.34 L 16.22 29.51 L 15.93 28.72 L 15.5 28.0 L 12.08 28.0 L 12.08 28.0 L 12.08 28.0 L 12.08 28.0 L 12.08 28.0 L 12.08 28.0 L 12.08 28.0 L 12.08 28.0 L 12.08 28.0 L 12.08 28.0 L 12.08 28.0 L 12.08 28.0 L 12.08 28.0 L 12.08 28.0 L 12.08 28.0 L 12.08 28.0 L 12.08 28.0 L 12.08 28.0 L 12.08 28.0 L 12.08 28.0 L 12.08 28.0 L 12.08 28.0 L 12.08 28.0 L 12.08 28.0 L 12.08 28.0" fill="none" stroke="#111" stroke-width="1.38" stroke-linecap="round" stroke-linejoin="round"/>
</svg>
