<?xml version="1.0" encoding="UTF-8"?>
<svg xmlns="http://www.w3.org/2000/svg" viewBox="0 0 16.00 36.00">
<path d="M 8.0 5.0 L 8.04 6.12 L 8.08 7.25 L 8.12 8.38 L 8.17 9.5 L 8.21 10.62 L 8.25 11.75 L 8.29 12.88 L 8.33 14.0 L 8.38 15.12 L 8.42 16.25 L 8.46 17.38 L 8.5 18.5 L 8.54 19.62 L 8.58 20.75 L 8.63 21.88 L 8.67 23.0 L 8.71 24.12 L 8.75 25.25 L 8.79 26.38 L 8.83 27.5 L 8.88 28.62 L 8.92 29.75 L 8.96 30.88 L 9.0 32.0" fill="none" stroke="#111" stroke-width="1.26" stroke-linecap="round" stroke-linejoin="round"/>
<path d="M 5.0 6.0 L 5.12 6.12 L 5.25 6.25 L 5.38 6.38 L 5.5 6.5 L 5.62 6.62 L 5.75 6.75 L 5.88 6.88 L 6.0 7.0 L 6.12 7.12 L 6.25 7.25 L 6.38 7.38 L 6.5 7.5 L 6.62 7.62 L 6.75 7.75 L 6.88 7.88 L 7.0 8.0 L 7.12 8.12 L 7.25 8.25 L 7.38 8.38 L 7.5 8.5 L 7.62 8.62 L 7.75 8.75 L 7.88 8.88 L 8.0 9.0" fill="none" stroke="#111" stroke-width="1.26" stroke-linecap="round" stroke-linejoin="round"/>
<path d="M 12.0 4.0 L 11.83 4.12 L 11.67 4.25 L 11.5 4.38 L 11.33 4.5 L 11.17 4.62 L 11.0 4.75 L 10.83 4.88 L 10.67 5.0 L 10.5 5.12 L 10.33 5.25 L 10.17 5.38 L 10.0 5.5 L 9.83 5.62 L 9.67 5.75 L 9.5 5.88 L 9.33 6.0 L 9.17 6.12 L 9.0 6.25 L 8.83 6.38 L 8.67 6.5 L 8.5 6.62 L 8.33 6.75 L 8.17 6.88 L 8.0 7.0" fill="none" stroke="#111" stroke-width="1.26" stroke-linecap="round" stroke-linejoin="round"/>
<path d="M 8.0 9.0 L 7.62 9.11 L 7.26 9.26 L 6.91 9.46 L 6.59 9.69 L 6.3 9.95 L 6.04 10.25 L 5.81 10.57 L 5.62 10.91 L 5.47 11.28 L 5.36 11.66 L 5.3 12.05 L 5.27 12.44 L 5.3 12.84 L 5.36 13.22 L 5.47 13.6 L 5.62 13.97 L 5.81 14.31 L 6.04 14.64 L 6.3 14.93 L 6.59 15.2 L 6.91 15.43 L 7.26 15.62 L 7.62 15.77 L 8.0 15.88" fill="none" stroke="#111" stroke-width="1.26" stroke-linecap="round" stroke-linejoin="round"/>
<path d="M 8.0 9.0 L 8.17 9.12 L 8.33 9.25 L 8.5 9.38 L 8.67 9.5 L 8.83 9.62 L 9.0 9.75 L 9.17 9.88 L 9.33 10.0 L 9.5 10.12 L 9.67 10.25 L 9.83 10.38 L 10.0 10.5 L 10.17 10.62 L 10.33 10.75 L 10.5 10.88 L 10.67 11.0 L 10.83 11.12 L 11.0 11.25 L 11.17 11.38 L 11.33 11.5 L 11.5 11.62 L 11.67 11.75 L 11.83 11.88 L 12.0 12.0 L 12.0 12.0 L 11.93 12.23 L 11.85 12.46 L 11.76 12.69 L 11.66 12.91 L 11.55 13.13 L 11.43 13.34 L 11.3 13.55 L 11.17 13.75 L 11.02 13.95 L 10.87 14.14 L 10.71 14.32 L 10.54 14.49 L 10.37 14.66 L 10.18 14.82 L 9.99 14.98 L 9.8 15.12 L 9.6 15.26 L 9.39 15.38 L 9.18 15.5 L 8.96 15.61 L 8.74 15.71 L 8.51 15.8 L 8.28 15.88 L 8.05 15.95" fill="none" stroke="#111" stroke-width="1.26" stroke-linecap="round" stroke-linejoin="round"/>
<path d="M 8.0 18.0 L 8.17 18.04 L 8.33 18.08 L 8.5 18.12 L 8.67 18.17 L 8.83 18.21 L 9.0 18.25 L 9.17 18.29 L 9.33 18.33 L 9.5 18.38 L 9.67 18.42 L 9.83 18.46 L 10.0 18.5 L 10.17 18.54 L 10.33 18.58 L 10.5 18.62 L 10.67 18.67 L 10.83 18.71 L 11.0 18.75 L 11.17 18.79 L 11.33 18.83 L 11.5 18.88 L 11.67 18.92 L 11.83 18.96 L 12.0 19.0 L 12.0 19.0 L 12.0 19.12 L 12.0 19.25 L 12.0 19.38 L 12.0 19.5 L 12.0 19.62 L 12.0 19.75 L 12.0 19.88 L 12.0 20.0 L 12.0 20.12 L 12.0 20.25 L 12.0 20.38 L 12.0 20.5 L 12.0 20.62 L 12.0 20.75 L 12.0 20.88 L 12.0 21.0 L 12.0 21.12 L 12.0 21.25 L 12.0 21.38 L 12.0 21.5 L 12.0 21.62 L 12.0 21.75 L 12.0 21.88 L 12.0 22.0 L 12.0 22.0 L 11.88 22.12 L 11.75 22.25 L 11.62 22.38 L 11.5 22.5 L 11.38 22.62 L 11.25 22.75 L 11.12 22.88 L 11.0 23.0 L 10.88 23.12 L 10.75 23.25 L 10.62 23.38 L 10.5 23.5 L 10.38 23.62 L 10.25 23.75 L 10.12 23.88 L 10.0 24.0 L 9.88 24.12 L 9.75 24.25 L 9.62 24.38 L 9.5 24.5 L 9.38 24.62 L 9.25 24.75 L 9.12 24.88 L 9.0 25.0" fill="none" stroke="#111" stroke-width="1.26" stroke-linecap="round" stroke-linejoin="round"/>
<path d="M 8.0 18.0 L 7.69 18.14 L 7.39 18.31 L 7.1 18.49 L 6.82 18.69 L 6.55 18.91 L 6.3 19.14 L 6.06 19.39 L 5.85 19.66 L 5.64 19.93 L 5.46 20.23 L 5.3 20.53 L 5.15 20.84 L 5.03 21.16 L 4.92 21.48 L 4.84 21.82 L 4.78 22.16 L 4.73 22.5 L 4.72 22.84 L 4.72 23.18 L 4.74 23.52 L 4.79 23.87 L 4.86 24.2 L 4.95 24.53 L 5.06 24.86" fill="none" stroke="#111" stroke-width="1.26" stroke-linecap="round" stroke-linejoin="round"/>
<path d="M 6.0 25.0 L 6.12 25.0 L 6.25 25.0 L 6.38 25.0 L 6.5 25.0 L 6.62 25.0 L 6.75 25.0 L 6.88 25.0 L 7.0 25.0 L 7.12 25.0 L 7.25 25.0 L 7.38 25.0 L 7.5 25.0 L 7.62 25.0 L 7.75 25.0 L 7.88 25.0 L 8.0 25.0 L 8.12 25.0 L 8.25 25.0 L 8.38 25.0 L 8.5 25.0 L 8.62 25.0 L 8.75 25.0 L 8.88 25.0 L 9.0 25.0" fill="none" stroke="#111" stroke-width="1.26" stroke-linecap="round" stroke-linejoin="round"/>
<path d="M 9.0 25.0 L 8.79 25.17 L 8.58 25.33 L 8.38 25.5 L 8.17 25.67 L 7.96 25.83 L 7.75 26.0 L 7.54 26.17 L 7.33 26.33 L 7.12 26.5 L 6.92 26.67 L 6.71 26.83 L 6.5 27.0 L 6.29 27.17 L 6.08 27.33 L 5.88 27.5 L 5.67 27.67 L 5.46 27.83 L 5.25 28.0 L 5.04 28.17 L 4.83 28.33 L 4.62 28.5 L 4.42 28.67 L 4.21 28.83 L 4.0 29.0" fill="none" stroke="#111" stroke-width="1.26" stroke-linecap="round" stroke-linejoin="round"/>
<path d="M 9.0 25.0 L 9.12 25.17 L 9.25 25.33 L 9.38 25.5 L 9.5 25.67 L 9.62 25.83 L 9.75 26.0 L 9.88 26.17 L 10.0 26.33 L 10.12 26.5 L 10.25 26.67 L 10.38 26.83 L 10.5 27.0 L 10.62 27.17 L 10.75 27.33 L 10.88 27.5 L 11.0 27.67 L 11.12 27.83 L 11.25 28.0 L 11.38 28.17 L 11.5 28.33 L 11.62 28.5 L 11.75 28.67 L 11.88 28.83 L 12.0 29.0" fill="none" stroke="#111" stroke-width="1.26" stroke-linecap="round" stroke-linejoin="round"/>
</svg>
