<?xml version="1.0" encoding="UTF-8"?>
<svg xmlns="http://www.w3.org/2000/svg" viewBox="0 0 25.00 34.00">
<path d="M 13.0 4.0 L 13.11 4.64 L 13.19 5.29 L 13.23 5.94 L 13.23 6.59 L 13.19 7.24 L 13.11 7.89 L 13.0 8.53 L 12.85 9.16 L 12.66 9.78 L 12.44 10.4 L 12.18 10.99 L 11.89 11.58 L 11.57 12.14 L 11.21 12.69 L 10.82 13.21 L 10.4 13.71 L 9.95 14.18 L 9.48 14.63 L 8.98 15.05 L 8.46 15.44 L 7.92 15.8 L 7.35 16.12 L 6.77 16.42 L 6.18 16.67" fill="none" stroke="#111" stroke-width="1.19" stroke-linecap="round" stroke-linejoin="round"/>
<path d="M 13.0 8.0 L 13.33 8.29 L 13.67 8.58 L 14.0 8.88 L 14.33 9.17 L 14.67 9.46 L 15.0 9.75 L 15.33 10.04 L 15.67 10.33 L 16.0 10.62 L 16.33 10.92 L 16.67 11.21 L 17.0 11.5 L 17.33 11.79 L 17.67 12.08 L 18.0 12.38 L 18.33 12.67 L 18.67 12.96 L 19.0 13.25 L 19.33 13.54 L 19.67 13.83 L 20.0 14.12 L 20.33 14.42 L 20.67 14.71 L 21.0 15.0" fill="none" stroke="#111" stroke-width="1.19" stroke-linecap="round" stroke-linejoin="round"/>
<path d="M 13.0 8.0 L 13.0 8.46 L 13.0 8.92 L 13.0 9.38 L 13.0 9.83 L 13.0 10.29 L 13.0 10.75 L 13.0 11.21 L 13.0 11.67 L 13.0 12.12 L 13.0 12.58 L 13.0 13.04 L 13.0 13.5 L 13.0 13.96 L 13.0 14.42 L 13.0 14.88 L 13.0 15.33 L 13.0 15.79 L 13.0 16.25 L 13.0 16.71 L 13.0 17.17 L 13.0 17.62 L 13.0 18.08 L 13.0 18.54 L 13.0 19.0 L 13.0 19.0 L 12.69 19.28 L 12.38 19.57 L 12.09 19.87 L 11.81 20.19 L 11.54 20.51 L 11.28 20.84 L 11.04 21.19 L 10.81 21.54 L 10.59 21.9 L 10.38 22.26 L 10.19 22.64 L 10.01 23.02 L 9.85 23.41 L 9.7 23.8 L 9.56 24.2 L 9.44 24.6 L 9.34 25.01 L 9.25 25.42 L 9.17 25.83 L 9.11 26.25 L 9.07 26.67 L 9.04 27.09 L 9.03 27.51 L 9.03 27.93" fill="none" stroke="#111" stroke-width="1.19" stroke-linecap="round" stroke-linejoin="round"/>
<path d="M 14.0 18.0 L 14.12 18.42 L 14.25 18.83 L 14.38 19.25 L 14.5 19.67 L 14.62 20.08 L 14.75 20.5 L 14.88 20.92 L 15.0 21.33 L 15.12 21.75 L 15.25 22.17 L 15.38 22.58 L 15.5 23.0 L 15.62 23.42 L 15.75 23.83 L 15.88 24.25 L 16.0 24.67 L 16.12 25.08 L 16.25 25.5 L 16.38 25.92 L 16.5 26.33 L 16.62 26.75 L 16.75 27.17 L 16.88 27.58 L 17.0 28.0" fill="none" stroke="#111" stroke-width="1.19" stroke-linecap="round" stroke-linejoin="round"/>
<path d="M 4.0 30.0 L 4.67 30.0 L 5.33 30.0 L 6.0 30.0 L 6.67 30.0 L 7.33 30.0 L 8.0 30.0 L 8.67 30.0 L 9.33 30.0 L 10.0 30.0 L 10.67 30.0 L 11.33 30.0 L 12.0 30.0 L 12.67 30.0 L 13.33 30.0 L 14.0 30.0 L 14.67 30.0 L 15.33 30.0 L 16.0 30.0 L 16.67 30.0 L 17.33 30.0 L 18.0 30.0 L 18.67 30.0 L 19.33 30.0 L 20.0 30.0" fill="none" stroke="#111" stroke-width="1.19" stroke-linecap="round" stroke-linejoin="round"/>
</svg>
