<?xml version="1.0" encoding="UTF-8"?>
<svg xmlns="http://www.w3.org/2000/svg" viewBox="0 0 23.70 41.83">
<path d="M 7.78 4.0 L 7.58 4.54 L 7.45 5.11 L 7.41 5.69 L 7.46 6.27 L 7.6 6.83 L 7.82 7.37 L 8.12 7.86 L 8.49 8.31 L 8.92 8.7 L 9.41 9.01 L 9.94 9.25 L 10.5 9.41 L 11.07 9.48 L 11.65 9.46 L 12.23 9.36 L 12.77 9.17 L 13.29 8.9 L 13.75 8.55 L 14.16 8.14 L 14.51 7.67 L 14.78 7.16 L 14.97 6.61 L 15.07 6.04 L 15.08 5.46" fill="none" stroke="#111" stroke-width="1.46" stroke-linecap="round" stroke-linejoin="round"/>
<path d="M 5.78 12.0 L 6.2 12.0 L 6.62 12.0 L 7.03 12.0 L 7.45 12.0 L 7.87 12.0 L 8.28 12.0 L 8.7 12.0 L 9.12 12.0 L 9.53 12.0 L 9.95 12.0 L 10.37 12.0 L 10.78 12.0 L 11.2 12.0 L 11.62 12.0 L 12.03 12.0 L 12.45 12.0 L 12.87 12.0 L 13.28 12.0 L 13.7 12.0 L 14.12 12.0 L 14.53 12.0 L 14.95 12.0 L 15.37 12.0 L 15.78 12.0" fill="none" stroke="#111" stroke-width="1.46" stroke-linecap="round" stroke-linejoin="round"/>
<path d="M 4.78 6.0 L 4.32 7.18 L 4.06 8.42 L 4.0 9.69 L 4.14 10.95 L 4.49 12.17 L 5.03 13.32 L 5.74 14.36 L 6.61 15.28 L 7.62 16.05 L 8.74 16.64 L 9.95 17.05 L 11.2 17.26 L 12.47 17.26 L 13.72 17.06 L 14.92 16.66 L 16.04 16.07 L 17.06 15.31 L 17.94 14.39 L 18.66 13.35 L 19.2 12.2 L 19.55 10.98 L 19.7 9.73 L 19.64 8.46 L 19.38 7.22" fill="none" stroke="#111" stroke-width="1.46" stroke-linecap="round" stroke-linejoin="round"/>
<path d="M 10.78 11.0 L 10.7 11.88 L 10.62 12.75 L 10.53 13.62 L 10.45 14.5 L 10.37 15.38 L 10.28 16.25 L 10.2 17.12 L 10.12 18.0 L 10.03 18.88 L 9.95 19.75 L 9.87 20.62 L 9.78 21.5 L 9.7 22.38 L 9.62 23.25 L 9.53 24.13 L 9.45 25.0 L 9.37 25.88 L 9.28 26.75 L 9.2 27.63 L 9.12 28.5 L 9.03 29.38 L 8.95 30.25 L 8.87 31.13 L 8.78 32.0" fill="none" stroke="#111" stroke-width="1.46" stroke-linecap="round" stroke-linejoin="round"/>
<path d="M 13.78 20.0 L 14.18 20.58 L 14.53 21.2 L 14.83 21.84 L 15.08 22.5 L 15.27 23.18 L 15.4 23.87 L 15.47 24.58 L 15.49 25.28 L 15.45 25.99 L 15.36 26.69 L 15.2 27.38 L 14.99 28.05 L 14.73 28.7 L 14.41 29.34 L 14.04 29.94 L 13.63 30.51 L 13.16 31.04 L 12.66 31.54 L 12.12 31.99 L 11.54 32.4 L 10.93 32.75 L 10.3 33.06 L 9.64 33.31 L 8.96 33.51" fill="none" stroke="#111" stroke-width="1.46" stroke-linecap="round" stroke-linejoin="round"/>
<path d="M 10.78 22.0 L 11.29 22.51 L 11.78 23.04 L 12.24 23.59 L 12.68 24.16 L 13.1 24.75 L 13.49 25.36 L 13.86 25.98 L 14.2 26.61 L 14.51 27.26 L 14.8 27.92 L 15.05 28.6 L 15.28 29.28 L 15.48 29.97 L 15.65 30.67 L 15.8 31.38 L 15.91 32.09 L 15.99 32.81 L 16.04 33.53 L 16.07 34.25 L 16.06 34.97 L 16.02 35.69 L 15.95 36.4 L 15.86 37.12 L 15.73 37.83" fill="none" stroke="#111" stroke-width="1.46" stroke-linecap="round" stroke-linejoin="round"/>
</svg>
