<?xml version="1.0" encoding="UTF-8"?>
<svg xmlns="http://www.w3.org/2000/svg" viewBox="0 0 24.00 29.00">
<path d="M 4.0 5.0 L 4.0 5.83 L 4.0 6.67 L 4.0 7.5 L 4.0 8.33 L 4.0 9.17 L 4.0 10.0 L 4.0 10.83 L 4.0 11.67 L 4.0 12.5 L 4.0 13.33 L 4.0 14.17 L 4.0 15.0 L 4.0 15.83 L 4.0 16.67 L 4.0 17.5 L 4.0 18.33 L 4.0 19.17 L 4.0 20.0 L 4.0 20.83 L 4.0 21.67 L 4.0 22.5 L 4.0 23.33 L 4.0 24.17 L 4.0 25.0" fill="none" stroke="#111" stroke-width="1.02" stroke-linecap="round" stroke-linejoin="round"/>
<path d="M 4.0 5.0 L 4.62 4.96 L 5.25 4.92 L 5.88 4.88 L 6.5 4.83 L 7.12 4.79 L 7.75 4.75 L 8.38 4.71 L 9.0 4.67 L 9.62 4.62 L 10.25 4.58 L 10.88 4.54 L 11.5 4.5 L 12.12 4.46 L 12.75 4.42 L 13.37 4.38 L 14.0 4.33 L 14.62 4.29 L 15.25 4.25 L 15.88 4.21 L 16.5 4.17 L 17.12 4.12 L 17.75 4.08 L 18.38 4.04 L 19.0 4.0" fill="none" stroke="#111" stroke-width="1.02" stroke-linecap="round" stroke-linejoin="round"/>
<path d="M 19.0 4.0 L 19.04 4.88 L 19.08 5.75 L 19.12 6.62 L 19.17 7.5 L 19.21 8.38 L 19.25 9.25 L 19.29 10.12 L 19.33 11.0 L 19.38 11.88 L 19.42 12.75 L 19.46 13.62 L 19.5 14.5 L 19.54 15.38 L 19.58 16.25 L 19.62 17.12 L 19.67 18.0 L 19.71 18.88 L 19.75 19.75 L 19.79 20.63 L 19.83 21.5 L 19.88 22.38 L 19.92 23.25 L 19.96 24.13 L 20.0 25.0" fill="none" stroke="#111" stroke-width="1.02" stroke-linecap="round" stroke-linejoin="round"/>
<path d="M 4.0 25.0 L 4.62 25.0 L 5.25 25.0 L 5.88 25.0 L 6.5 25.0 L 7.12 25.0 L 7.75 25.0 L 8.38 25.0 L 9.0 25.0 L 9.62 25.0 L 10.25 25.0 L 10.88 25.0 L 11.5 25.0 L 12.12 25.0 L 12.75 25.0 L 13.38 25.0 L 14.0 25.0 L 14.62 25.0 L 15.25 25.0 L 15.88 25.0 L 16.5 25.0 L 17.12 25.0 L 17.75 25.0 L 18.38 25.0 L 19.0 25.0" fill="none" stroke="#111" stroke-width="1.02" stroke-linecap="round" stroke-linejoin="round"/>
<path d="M 10.0 6.0 L 10.21 6.12 L 10.42 6.25 L 10.62 6.38 L 10.83 6.5 L 11.04 6.62 L 11.25 6.75 L 11.46 6.88 L 11.67 7.0 L 11.88 7.12 L 12.08 7.25 L 12.29 7.38 L 12.5 7.5 L 12.71 7.62 L 12.92 7.75 L 13.12 7.88 L 13.33 8.0 L 13.54 8.12 L 13.75 8.25 L 13.96 8.38 L 14.17 8.5 L 14.38 8.62 L 14.58 8.75 L 14.79 8.88 L 15.0 9.0" fill="none" stroke="#111" stroke-width="1.02" stroke-linecap="round" stroke-linejoin="round"/>
<path d="M 13.0 5.0 L 12.95 5.46 L 12.88 5.93 L 12.78 6.38 L 12.65 6.83 L 12.51 7.28 L 12.34 7.71 L 12.14 8.14 L 11.93 8.55 L 11.69 8.95 L 11.43 9.34 L 11.15 9.72 L 10.85 10.08 L 10.54 10.42 L 10.2 10.75 L 9.85 11.06 L 9.48 11.34 L 9.1 11.61 L 8.71 11.86 L 8.3 12.09 L 7.88 12.29 L 7.45 12.47 L 7.01 12.63 L 6.56 12.77 L 6.11 12.88" fill="none" stroke="#111" stroke-width="1.02" stroke-linecap="round" stroke-linejoin="round"/>
<path d="M 9.0 11.0 L 9.08 11.38 L 9.17 11.75 L 9.25 12.12 L 9.33 12.5 L 9.42 12.88 L 9.5 13.25 L 9.58 13.62 L 9.67 14.0 L 9.75 14.38 L 9.83 14.75 L 9.92 15.12 L 10.0 15.5 L 10.08 15.88 L 10.17 16.25 L 10.25 16.62 L 10.33 17.0 L 10.42 17.38 L 10.5 17.75 L 10.58 18.12 L 10.67 18.5 L 10.75 18.88 L 10.83 19.25 L 10.92 19.62 L 11.0 20.0" fill="none" stroke="#111" stroke-width="1.02" stroke-linecap="round" stroke-linejoin="round"/>
<path d="M 13.0 5.0 L 13.0 5.0 L 13.0 5.0 L 13.0 5.0 L 13.0 5.0 L 13.0 5.0 L 13.0 5.0 L 13.0 5.0 L 13.0 5.0 L 13.0 5.0 L 13.0 5.0 L 13.0 5.0 L 13.0 5.0 L 13.0 5.0 L 13.0 5.0 L 13.0 5.0 L 13.0 5.0 L 13.0 5.0 L 13.0 5.0 L 13.0 5.0 L 13.0 5.0 L 13.0 5.0 L 13.0 5.0 L 13.0 5.0 L 13.0 5.0" fill="none" stroke="#111" stroke-width="1.02" stroke-linecap="round" stroke-linejoin="round"/>
<path d="M 13.0 8.0 L 13.39 8.64 L 13.74 9.29 L 14.06 9.97 L 14.34 10.66 L 14.58 11.36 L 14.79 12.08 L 14.96 12.8 L 15.09 13.54 L 15.19 14.28 L 15.24 15.02 L 15.25 15.76 L 15.23 16.51 L 15.17 17.25 L 15.07 17.99 L 14.92 18.72 L 14.75 19.45 L 14.53 20.16 L 14.27 20.86 L 13.98 21.55 L 13.66 22.22 L 13.3 22.87 L 12.9 23.5 L 12.48 24.11 L 12.02 24.7" fill="none" stroke="#111" stroke-width="1.02" stroke-linecap="round" stroke-linejoin="round"/>
<path d="M 7.0 23.0 L 7.33 22.79 L 7.67 22.58 L 8.0 22.38 L 8.33 22.17 L 8.67 21.96 L 9.0 21.75 L 9.33 21.54 L 9.67 21.33 L 10.0 21.12 L 10.33 20.92 L 10.67 20.71 L 11.0 20.5 L 11.33 20.29 L 11.67 20.08 L 12.0 19.88 L 12.33 19.67 L 12.67 19.46 L 13.0 19.25 L 13.33 19.04 L 13.67 18.83 L 14.0 18.62 L 14.33 18.42 L 14.67 18.21 L 15.0 18.0" fill="none" stroke="#111" stroke-width="1.02" stroke-linecap="round" stroke-linejoin="round"/>
<path d="M 7.0 15.0 L 7.38 14.96 L 7.75 14.92 L 8.12 14.88 L 8.5 14.83 L 8.88 14.79 L 9.25 14.75 L 9.62 14.71 L 10.0 14.67 L 10.38 14.62 L 10.75 14.58 L 11.12 14.54 L 11.5 14.5 L 11.88 14.46 L 12.25 14.42 L 12.62 14.38 L 13.0 14.33 L 13.38 14.29 L 13.75 14.25 L 14.12 14.21 L 14.5 14.17 L 14.88 14.12 L 15.25 14.08 L 15.63 14.04 L 16.0 14.0" fill="none" stroke="#111" stroke-width="1.02" stroke-linecap="round" stroke-linejoin="round"/>
</svg>
