<?xml version="1.0" encoding="UTF-8"?>
<svg xmlns="http://www.w3.org/2000/svg" viewBox="0 0 20.00 31.37">
<path d="M 4.0 9.37 L 4.0 10.08 L 4.0 10.79 L 4.0 11.5 L 4.0 12.21 L 4.0 12.92 L 4.0 13.62 L 4.0 14.33 L 4.0 15.04 L 4.0 15.75 L 4.0 16.46 L 4.0 17.17 L 4.0 17.87 L 4.0 18.58 L 4.0 19.29 L 4.0 20.0 L 4.0 20.71 L 4.0 21.42 L 4.0 22.12 L 4.0 22.83 L 4.0 23.54 L 4.0 24.25 L 4.0 24.96 L 4.0 25.67 L 4.0 26.37" fill="none" stroke="#111" stroke-width="1.10" stroke-linecap="round" stroke-linejoin="round"/>
<path d="M 15.0 8.37 L 15.04 9.12 L 15.08 9.87 L 15.12 10.62 L 15.17 11.37 L 15.21 12.12 L 15.25 12.87 L 15.29 13.62 L 15.33 14.37 L 15.38 15.12 L 15.42 15.87 L 15.46 16.62 L 15.5 17.37 L 15.54 18.12 L 15.58 18.87 L 15.62 19.62 L 15.67 20.37 L 15.71 21.12 L 15.75 21.87 L 15.79 22.62 L 15.83 23.37 L 15.88 24.12 L 15.92 24.87 L 15.96 25.62 L 16.0 26.37" fill="none" stroke="#111" stroke-width="1.10" stroke-linecap="round" stroke-linejoin="round"/>
<path d="M 4.0 14.37 L 4.46 14.37 L 4.92 14.37 L 5.38 14.37 L 5.83 14.37 L 6.29 14.37 L 6.75 14.37 L 7.21 14.37 L 7.67 14.37 L 8.12 14.37 L 8.58 14.37 L 9.04 14.37 L 9.5 14.37 L 9.96 14.37 L 10.42 14.37 L 10.88 14.37 L 11.33 14.37 L 11.79 14.37 L 12.25 14.37 L 12.71 14.37 L 13.17 14.37 L 13.62 14.37 L 14.08 14.37 L 14.54 14.37 L 15.0 14.37" fill="none" stroke="#111" stroke-width="1.10" stroke-linecap="round" stroke-linejoin="round"/>
<path d="M 4.0 18.37 L 4.39 18.67 L 4.79 18.95 L 5.21 19.2 L 5.64 19.43 L 6.08 19.63 L 6.53 19.81 L 7.0 19.96 L 7.47 20.09 L 7.95 20.18 L 8.43 20.25 L 8.92 20.29 L 9.4 20.31 L 9.89 20.29 L 10.38 20.25 L 10.86 20.18 L 11.34 20.09 L 11.81 19.96 L 12.27 19.81 L 12.73 19.63 L 13.17 19.43 L 13.6 19.2 L 14.02 18.95 L 14.42 18.67 L 14.81 18.37" fill="none" stroke="#111" stroke-width="1.10" stroke-linecap="round" stroke-linejoin="round"/>
<path d="M 8.0 20.37 L 7.88 20.5 L 7.75 20.62 L 7.62 20.75 L 7.5 20.87 L 7.38 21.0 L 7.25 21.12 L 7.12 21.25 L 7.0 21.37 L 6.88 21.5 L 6.75 21.62 L 6.62 21.75 L 6.5 21.87 L 6.38 22.0 L 6.25 22.12 L 6.12 22.25 L 6.0 22.37 L 5.88 22.5 L 5.75 22.62 L 5.62 22.75 L 5.5 22.87 L 5.38 23.0 L 5.25 23.12 L 5.12 23.25 L 5.0 23.37" fill="none" stroke="#111" stroke-width="1.10" stroke-linecap="round" stroke-linejoin="round"/>
<path d="M 12.0 20.37 L 12.12 20.5 L 12.25 20.62 L 12.38 20.75 L 12.5 20.87 L 12.62 21.0 L 12.75 21.12 L 12.88 21.25 L 13.0 21.37 L 13.12 21.5 L 13.25 21.62 L 13.38 21.75 L 13.5 21.87 L 13.62 22.0 L 13.75 22.12 L 13.88 22.25 L 14.0 22.37 L 14.12 22.5 L 14.25 22.62 L 14.38 22.75 L 14.5 22.87 L 14.62 23.0 L 14.75 23.12 L 14.88 23.25 L 15.0 23.37" fill="none" stroke="#111" stroke-width="1.10" stroke-linecap="round" stroke-linejoin="round"/>
<path d="M 8.0 20.37 L 8.08 20.5 L 8.17 20.62 L 8.25 20.75 L 8.33 20.87 L 8.42 21.0 L 8.5 21.12 L 8.58 21.25 L 8.67 21.37 L 8.75 21.5 L 8.83 21.62 L 8.92 21.75 L 9.0 21.87 L 9.08 22.0 L 9.17 22.12 L 9.25 22.25 L 9.33 22.37 L 9.42 22.5 L 9.5 22.62 L 9.58 22.75 L 9.67 22.87 L 9.75 23.0 L 9.83 23.12 L 9.92 23.25 L 10.0 23.37" fill="none" stroke="#111" stroke-width="1.10" stroke-linecap="round" stroke-linejoin="round"/>
<path d="M 12.0 20.37 L 11.92 20.5 L 11.83 20.62 L 11.75 20.75 L 11.67 20.87 L 11.58 21.0 L 11.5 21.12 L 11.42 21.25 L 11.33 21.37 L 11.25 21.5 L 11.17 21.62 L 11.08 21.75 L 11.0 21.87 L 10.92 22.0 L 10.83 22.12 L 10.75 22.25 L 10.67 22.37 L 10.58 22.5 L 10.5 22.62 L 10.42 22.75 L 10.33 22.87 L 10.25 23.0 L 10.17 23.12 L 10.08 23.25 L 10.0 23.37" fill="none" stroke="#111" stroke-width="1.10" stroke-linecap="round" stroke-linejoin="round"/>
<path d="M 10.0 23.37 L 10.0 23.54 L 10.0 23.71 L 10.0 23.87 L 10.0 24.04 L 10.0 24.21 L 10.0 24.37 L 10.0 24.54 L 10.0 24.71 L 10.0 24.87 L 10.0 25.04 L 10.0 25.21 L 10.0 25.37 L 10.0 25.54 L 10.0 25.71 L 10.0 25.87 L 10.0 26.04 L 10.0 26.21 L 10.0 26.37 L 10.0 26.54 L 10.0 26.71 L 10.0 26.87 L 10.0 27.04 L 10.0 27.21 L 10.0 27.37" fill="none" stroke="#111" stroke-width="1.10" stroke-linecap="round" stroke-linejoin="round"/>
<path d="M 4.0 9.37 L 4.21 9.58 L 4.42 9.79 L 4.62 10.0 L 4.83 10.21 L 5.04 10.42 L 5.25 10.62 L 5.46 10.83 L 5.67 11.04 L 5.88 11.25 L 6.08 11.46 L 6.29 11.67 L 6.5 11.87 L 6.71 12.08 L 6.92 12.29 L 7.12 12.5 L 7.33 12.71 L 7.54 12.92 L 7.75 13.12 L 7.96 13.33 L 8.17 13.54 L 8.38 13.75 L 8.58 13.96 L 8.79 14.17 L 9.0 14.37" fill="none" stroke="#111" stroke-width="1.10" stroke-linecap="round" stroke-linejoin="round"/>
<path d="M 15.0 8.37 L 14.83 8.62 L 14.67 8.87 L 14.5 9.12 L 14.33 9.37 L 14.17 9.62 L 14.0 9.87 L 13.83 10.12 L 13.67 10.37 L 13.5 10.62 L 13.33 10.87 L 13.17 11.12 L 13.0 11.37 L 12.83 11.62 L 12.67 11.87 L 12.5 12.12 L 12.33 12.37 L 12.17 12.62 L 12.0 12.87 L 11.83 13.12 L 11.67 13.37 L 11.5 13.62 L 11.33 13.87 L 11.17 14.12 L 11.0 14.37" fill="none" stroke="#111" stroke-width="1.10" stroke-linecap="round" stroke-linejoin="round"/>
<path d="M 6.0 5.37 L 6.45 4.92 L 6.97 4.55 L 7.54 4.27 L 8.16 4.08 L 8.79 4.0 L 9.43 4.02 L 10.06 4.15 L 10.65 4.38 L 11.21 4.7 L 11.7 5.11 L 12.11 5.6 L 12.45 6.14 L 12.68 6.74 L 12.82 7.36 L 12.85 8.0 L 12.78 8.64 L 12.61 9.25 L 12.33 9.83 L 11.97 10.35 L 11.52 10.81 L 11.01 11.19 L 10.44 11.48 L 9.83 11.67 L 9.19 11.76 L 8.0 9.37 L 7.92 9.21 L 7.83 9.04 L 7.75 8.87 L 7.67 8.71 L 7.58 8.54 L 7.5 8.37 L 7.42 8.21 L 7.33 8.04 L 7.25 7.87 L 7.17 7.71 L 7.08 7.54 L 7.0 7.37 L 6.92 7.21 L 6.83 7.04 L 6.75 6.87 L 6.67 6.71 L 6.58 6.54 L 6.5 6.37 L 6.42 6.21 L 6.33 6.04 L 6.25 5.87 L 6.17 5.71 L 6.08 5.54 L 6.0 5.37" fill="none" stroke="#111" stroke-width="1.10" stroke-linecap="round" stroke-linejoin="round"/>
</svg>
