<?xml version="1.0" encoding="UTF-8"?>
<svg xmlns="http://www.w3.org/2000/svg" viewBox="0 0 27.00 34.00">
<path d="M 7.0 9.0 L 6.92 9.17 L 6.83 9.33 L 6.75 9.5 L 6.67 9.67 L 6.58 9.83 L 6.5 10.0 L 6.42 10.17 L 6.33 10.33 L 6.25 10.5 L 6.17 10.67 L 6.08 10.83 L 6.0 11.0 L 5.92 11.17 L 5.83 11.33 L 5.75 11.5 L 5.67 11.67 L 5.58 11.83 L 5.5 12.0 L 5.42 12.17 L 5.33 12.33 L 5.25 12.5 L 5.17 12.67 L 5.08 12.83 L 5.0 13.0 L 5.0 13.0 L 5.28 13.18 L 5.55 13.37 L 5.82 13.58 L 6.07 13.8 L 6.31 14.03 L 6.53 14.27 L 6.75 14.53 L 6.94 14.8 L 7.13 15.07 L 7.3 15.36 L 7.45 15.65 L 7.59 15.96 L 7.72 16.27 L 7.82 16.58 L 7.91 16.9 L 7.99 17.23 L 8.04 17.56 L 8.08 17.89 L 8.1 18.22 L 8.11 18.55 L 8.09 18.89 L 8.06 19.22 L 8.01 19.55 L 7.95 19.88 L 8.0 20.0 L 7.83 20.42 L 7.67 20.83 L 7.5 21.25 L 7.33 21.67 L 7.17 22.08 L 7.0 22.5 L 6.83 22.92 L 6.67 23.33 L 6.5 23.75 L 6.33 24.17 L 6.17 24.58 L 6.0 25.0 L 5.83 25.42 L 5.67 25.83 L 5.5 26.25 L 5.33 26.67 L 5.17 27.08 L 5.0 27.5 L 4.83 27.92 L 4.67 28.33 L 4.5 28.75 L 4.33 29.17 L 4.17 29.58 L 4.0 30.0" fill="none" stroke="#111" stroke-width="1.19" stroke-linecap="round" stroke-linejoin="round"/>
<path d="M 11.0 4.0 L 11.04 4.12 L 11.08 4.25 L 11.12 4.38 L 11.17 4.5 L 11.21 4.62 L 11.25 4.75 L 11.29 4.88 L 11.33 5.0 L 11.38 5.12 L 11.42 5.25 L 11.46 5.38 L 11.5 5.5 L 11.54 5.62 L 11.58 5.75 L 11.62 5.88 L 11.67 6.0 L 11.71 6.12 L 11.75 6.25 L 11.79 6.38 L 11.83 6.5 L 11.88 6.62 L 11.92 6.75 L 11.96 6.88 L 12.0 7.0" fill="none" stroke="#111" stroke-width="1.19" stroke-linecap="round" stroke-linejoin="round"/>
<path d="M 8.0 9.0 L 7.95 9.21 L 7.9 9.43 L 7.87 9.64 L 7.84 9.86 L 7.82 10.07 L 7.81 10.29 L 7.81 10.51 L 7.81 10.73 L 7.83 10.95 L 7.85 11.16 L 7.88 11.38 L 7.92 11.59 L 7.96 11.81 L 8.02 12.02 L 8.08 12.23 L 8.15 12.43 L 8.23 12.64 L 8.32 12.84 L 8.41 13.03 L 8.51 13.23 L 8.62 13.42 L 8.74 13.6 L 8.86 13.78 L 8.99 13.96 L 9.0 14.0 L 9.24 14.11 L 9.48 14.21 L 9.72 14.31 L 9.96 14.4 L 10.21 14.48 L 10.45 14.56 L 10.7 14.64 L 10.95 14.71 L 11.2 14.77 L 11.46 14.83 L 11.71 14.88 L 11.97 14.92 L 12.22 14.96 L 12.48 15.0 L 12.74 15.03 L 13.0 15.05 L 13.26 15.06 L 13.52 15.07 L 13.78 15.08 L 14.04 15.08 L 14.3 15.07 L 14.56 15.06 L 14.82 15.04 L 15.07 15.01" fill="none" stroke="#111" stroke-width="1.19" stroke-linecap="round" stroke-linejoin="round"/>
<path d="M 11.0 9.0 L 10.88 9.12 L 10.75 9.25 L 10.62 9.38 L 10.5 9.5 L 10.38 9.62 L 10.25 9.75 L 10.12 9.88 L 10.0 10.0 L 9.88 10.12 L 9.75 10.25 L 9.62 10.38 L 9.5 10.5 L 9.38 10.62 L 9.25 10.75 L 9.12 10.88 L 9.0 11.0 L 8.88 11.12 L 8.75 11.25 L 8.62 11.38 L 8.5 11.5 L 8.38 11.62 L 8.25 11.75 L 8.12 11.88 L 8.0 12.0" fill="none" stroke="#111" stroke-width="1.19" stroke-linecap="round" stroke-linejoin="round"/>
<path d="M 14.0 8.0 L 14.08 8.12 L 14.17 8.25 L 14.25 8.38 L 14.33 8.5 L 14.42 8.62 L 14.5 8.75 L 14.58 8.88 L 14.67 9.0 L 14.75 9.12 L 14.83 9.25 L 14.92 9.38 L 15.0 9.5 L 15.08 9.62 L 15.17 9.75 L 15.25 9.88 L 15.33 10.0 L 15.42 10.12 L 15.5 10.25 L 15.58 10.38 L 15.67 10.5 L 15.75 10.62 L 15.83 10.75 L 15.92 10.88 L 16.0 11.0" fill="none" stroke="#111" stroke-width="1.19" stroke-linecap="round" stroke-linejoin="round"/>
<path d="M 17.0 7.0 L 17.0 7.25 L 17.0 7.5 L 17.0 7.75 L 17.0 8.0 L 17.0 8.25 L 17.0 8.5 L 17.0 8.75 L 17.0 9.0 L 17.0 9.25 L 17.0 9.5 L 17.0 9.75 L 17.0 10.0 L 17.0 10.25 L 17.0 10.5 L 17.0 10.75 L 17.0 11.0 L 17.0 11.25 L 17.0 11.5 L 17.0 11.75 L 17.0 12.0 L 17.0 12.25 L 17.0 12.5 L 17.0 12.75 L 17.0 13.0 L 17.0 13.0 L 16.88 13.08 L 16.75 13.17 L 16.62 13.25 L 16.5 13.33 L 16.38 13.42 L 16.25 13.5 L 16.12 13.58 L 16.0 13.67 L 15.88 13.75 L 15.75 13.83 L 15.62 13.92 L 15.5 14.0 L 15.38 14.08 L 15.25 14.17 L 15.12 14.25 L 15.0 14.33 L 14.88 14.42 L 14.75 14.5 L 14.62 14.58 L 14.5 14.67 L 14.38 14.75 L 14.25 14.83 L 14.12 14.92 L 14.0 15.0" fill="none" stroke="#111" stroke-width="1.19" stroke-linecap="round" stroke-linejoin="round"/>
<path d="M 13.0 12.0 L 12.92 12.17 L 12.83 12.33 L 12.75 12.5 L 12.67 12.67 L 12.58 12.83 L 12.5 13.0 L 12.42 13.17 L 12.33 13.33 L 12.25 13.5 L 12.17 13.67 L 12.08 13.83 L 12.0 14.0 L 11.92 14.17 L 11.83 14.33 L 11.75 14.5 L 11.67 14.67 L 11.58 14.83 L 11.5 15.0 L 11.42 15.17 L 11.33 15.33 L 11.25 15.5 L 11.17 15.67 L 11.08 15.83 L 11.0 16.0 L 11.0 16.0 L 10.71 16.61 L 10.54 17.26 L 10.48 17.94 L 10.54 18.61 L 10.71 19.26 L 10.99 19.88 L 11.38 20.43 L 11.86 20.91 L 12.41 21.3 L 13.02 21.58 L 13.68 21.76 L 14.35 21.82 L 15.02 21.76 L 15.68 21.58 L 16.29 21.3 L 16.84 20.91 L 17.32 20.43 L 17.71 19.88 L 17.99 19.26 L 18.17 18.61 L 18.22 17.94 L 18.16 17.26 L 17.99 16.61 L 17.7 16.0 L 17.0 16.0 L 16.93 15.77 L 16.85 15.54 L 16.76 15.31 L 16.66 15.09 L 16.55 14.87 L 16.43 14.66 L 16.3 14.45 L 16.17 14.25 L 16.02 14.05 L 15.87 13.86 L 15.71 13.68 L 15.54 13.51 L 15.37 13.34 L 15.18 13.18 L 14.99 13.02 L 14.8 12.88 L 14.6 12.74 L 14.39 12.62 L 14.18 12.5 L 13.96 12.39 L 13.74 12.29 L 13.51 12.2 L 13.28 12.12 L 13.05 12.05" fill="none" stroke="#111" stroke-width="1.19" stroke-linecap="round" stroke-linejoin="round"/>
<path d="M 13.0 12.0 L 13.04 12.25 L 13.08 12.5 L 13.12 12.75 L 13.17 13.0 L 13.21 13.25 L 13.25 13.5 L 13.29 13.75 L 13.33 14.0 L 13.38 14.25 L 13.42 14.5 L 13.46 14.75 L 13.5 15.0 L 13.54 15.25 L 13.58 15.5 L 13.62 15.75 L 13.67 16.0 L 13.71 16.25 L 13.75 16.5 L 13.79 16.75 L 13.83 17.0 L 13.88 17.25 L 13.92 17.5 L 13.96 17.75 L 14.0 18.0 L 14.0 18.0 L 14.23 18.48 L 14.44 18.97 L 14.62 19.47 L 14.77 19.97 L 14.89 20.49 L 14.99 21.01 L 15.05 21.54 L 15.09 22.07 L 15.1 22.6 L 15.07 23.13 L 15.02 23.66 L 14.94 24.18 L 14.83 24.7 L 14.69 25.21 L 14.53 25.72 L 14.33 26.21 L 14.11 26.7 L 13.87 27.17 L 13.6 27.62 L 13.3 28.06 L 12.98 28.48 L 12.64 28.89 L 12.27 29.27 L 11.88 29.64 L 12.0 29.0 L 11.92 28.83 L 11.83 28.67 L 11.75 28.5 L 11.67 28.33 L 11.58 28.17 L 11.5 28.0 L 11.42 27.83 L 11.33 27.67 L 11.25 27.5 L 11.17 27.33 L 11.08 27.17 L 11.0 27.0 L 10.92 26.83 L 10.83 26.67 L 10.75 26.5 L 10.67 26.33 L 10.58 26.17 L 10.5 26.0 L 10.42 25.83 L 10.33 25.67 L 10.25 25.5 L 10.17 25.33 L 10.08 25.17 L 10.0 25.0" fill="none" stroke="#111" stroke-width="1.19" stroke-linecap="round" stroke-linejoin="round"/>
<path d="M 10.0 22.0 L 10.04 22.08 L 10.08 22.17 L 10.12 22.25 L 10.17 22.33 L 10.21 22.42 L 10.25 22.5 L 10.29 22.58 L 10.33 22.67 L 10.38 22.75 L 10.42 22.83 L 10.46 22.92 L 10.5 23.0 L 10.54 23.08 L 10.58 23.17 L 10.62 23.25 L 10.67 23.33 L 10.71 23.42 L 10.75 23.5 L 10.79 23.58 L 10.83 23.67 L 10.88 23.75 L 10.92 23.83 L 10.96 23.92 L 11.0 24.0" fill="none" stroke="#111" stroke-width="1.19" stroke-linecap="round" stroke-linejoin="round"/>
<path d="M 19.0 20.0 L 18.96 20.12 L 18.92 20.25 L 18.88 20.38 L 18.83 20.5 L 18.79 20.62 L 18.75 20.75 L 18.71 20.88 L 18.67 21.0 L 18.62 21.12 L 18.58 21.25 L 18.54 21.38 L 18.5 21.5 L 18.46 21.62 L 18.42 21.75 L 18.38 21.88 L 18.33 22.0 L 18.29 22.12 L 18.25 22.25 L 18.21 22.38 L 18.17 22.5 L 18.12 22.62 L 18.08 22.75 L 18.04 22.88 L 18.0 23.0" fill="none" stroke="#111" stroke-width="1.19" stroke-linecap="round" stroke-linejoin="round"/>
<path d="M 23.0 5.0 L 22.6 5.57 L 22.23 6.15 L 21.88 6.75 L 21.55 7.37 L 21.25 7.99 L 20.98 8.63 L 20.74 9.28 L 20.52 9.95 L 20.34 10.61 L 20.18 11.29 L 20.05 11.97 L 19.95 12.66 L 19.88 13.35 L 19.83 14.04 L 19.82 14.74 L 19.84 15.43 L 19.88 16.13 L 19.96 16.82 L 20.07 17.5 L 20.2 18.18 L 20.36 18.86 L 20.55 19.53 L 20.77 20.19 L 21.02 20.84 L 21.0 21.0 L 20.83 21.29 L 20.67 21.58 L 20.5 21.88 L 20.33 22.17 L 20.17 22.46 L 20.0 22.75 L 19.83 23.04 L 19.67 23.33 L 19.5 23.62 L 19.33 23.92 L 19.17 24.21 L 19.0 24.5 L 18.83 24.79 L 18.67 25.08 L 18.5 25.38 L 18.33 25.67 L 18.17 25.96 L 18.0 26.25 L 17.83 26.54 L 17.67 26.83 L 17.5 27.12 L 17.33 27.42 L 17.17 27.71 L 17.0 28.0" fill="none" stroke="#111" stroke-width="1.19" stroke-linecap="round" stroke-linejoin="round"/>
</svg>
