<?xml version="1.0" encoding="UTF-8"?>
<svg xmlns="http://www.w3.org/2000/svg" viewBox="0 0 22.90 34.00">
<path d="M 7.0 4.0 L 7.04 5.08 L 7.08 6.17 L 7.12 7.25 L 7.17 8.33 L 7.21 9.42 L 7.25 10.5 L 7.29 11.58 L 7.33 12.67 L 7.38 13.75 L 7.42 14.83 L 7.46 15.92 L 7.5 17.0 L 7.54 18.08 L 7.58 19.17 L 7.63 20.25 L 7.67 21.33 L 7.71 22.42 L 7.75 23.5 L 7.79 24.58 L 7.83 25.67 L 7.88 26.75 L 7.92 27.83 L 7.96 28.92 L 8.0 30.0" fill="none" stroke="#111" stroke-width="1.19" stroke-linecap="round" stroke-linejoin="round"/>
<path d="M 4.0 4.0 L 4.17 4.0 L 4.33 4.0 L 4.5 4.0 L 4.67 4.0 L 4.83 4.0 L 5.0 4.0 L 5.17 4.0 L 5.33 4.0 L 5.5 4.0 L 5.67 4.0 L 5.83 4.0 L 6.0 4.0 L 6.17 4.0 L 6.33 4.0 L 6.5 4.0 L 6.67 4.0 L 6.83 4.0 L 7.0 4.0 L 7.17 4.0 L 7.33 4.0 L 7.5 4.0 L 7.67 4.0 L 7.83 4.0 L 8.0 4.0" fill="none" stroke="#111" stroke-width="1.19" stroke-linecap="round" stroke-linejoin="round"/>
<path d="M 5.0 14.0 L 5.33 14.0 L 5.67 14.0 L 6.0 14.0 L 6.33 14.0 L 6.67 14.0 L 7.0 14.0 L 7.33 14.0 L 7.67 14.0 L 8.0 14.0 L 8.33 14.0 L 8.67 14.0 L 9.0 14.0 L 9.33 14.0 L 9.67 14.0 L 10.0 14.0 L 10.33 14.0 L 10.67 14.0 L 11.0 14.0 L 11.33 14.0 L 11.67 14.0 L 12.0 14.0 L 12.33 14.0 L 12.67 14.0 L 13.0 14.0" fill="none" stroke="#111" stroke-width="1.19" stroke-linecap="round" stroke-linejoin="round"/>
<path d="M 6.0 30.0 L 6.21 29.96 L 6.42 29.92 L 6.62 29.88 L 6.83 29.83 L 7.04 29.79 L 7.25 29.75 L 7.46 29.71 L 7.67 29.67 L 7.88 29.62 L 8.08 29.58 L 8.29 29.54 L 8.5 29.5 L 8.71 29.46 L 8.92 29.42 L 9.12 29.38 L 9.33 29.33 L 9.54 29.29 L 9.75 29.25 L 9.96 29.21 L 10.17 29.17 L 10.38 29.12 L 10.58 29.08 L 10.79 29.04 L 11.0 29.0" fill="none" stroke="#111" stroke-width="1.19" stroke-linecap="round" stroke-linejoin="round"/>
<path d="M 14.0 11.0 L 13.96 10.92 L 13.92 10.83 L 13.88 10.75 L 13.83 10.67 L 13.79 10.58 L 13.75 10.5 L 13.71 10.42 L 13.67 10.33 L 13.62 10.25 L 13.58 10.17 L 13.54 10.08 L 13.5 10.0 L 13.46 9.92 L 13.42 9.83 L 13.38 9.75 L 13.33 9.67 L 13.29 9.58 L 13.25 9.5 L 13.21 9.42 L 13.17 9.33 L 13.12 9.25 L 13.08 9.17 L 13.04 9.08 L 13.0 9.0 L 13.0 9.0 L 12.41 9.02 L 11.83 9.12 L 11.27 9.31 L 10.74 9.57 L 10.26 9.9 L 9.82 10.3 L 9.45 10.76 L 9.14 11.26 L 8.91 11.8 L 8.76 12.37 L 8.69 12.95 L 8.7 13.54 L 8.79 14.12 L 8.97 14.69 L 9.22 15.22 L 9.55 15.71 L 9.94 16.15 L 10.39 16.53 L 10.89 16.84 L 11.43 17.08 L 11.99 17.25 L 12.58 17.33 L 13.17 17.32 L 13.75 17.24 L 14.0 20.0 L 13.96 19.79 L 13.92 19.58 L 13.88 19.38 L 13.83 19.17 L 13.79 18.96 L 13.75 18.75 L 13.71 18.54 L 13.67 18.33 L 13.62 18.12 L 13.58 17.92 L 13.54 17.71 L 13.5 17.5 L 13.46 17.29 L 13.42 17.08 L 13.38 16.88 L 13.33 16.67 L 13.29 16.46 L 13.25 16.25 L 13.21 16.04 L 13.17 15.83 L 13.12 15.62 L 13.08 15.42 L 13.04 15.21 L 13.0 15.0" fill="none" stroke="#111" stroke-width="1.19" stroke-linecap="round" stroke-linejoin="round"/>
<path d="M 16.0 12.0 L 16.0 11.88 L 16.0 11.75 L 16.0 11.62 L 16.0 11.5 L 16.0 11.38 L 16.0 11.25 L 16.0 11.12 L 16.0 11.0 L 16.0 10.88 L 16.0 10.75 L 16.0 10.62 L 16.0 10.5 L 16.0 10.38 L 16.0 10.25 L 16.0 10.12 L 16.0 10.0 L 16.0 9.88 L 16.0 9.75 L 16.0 9.62 L 16.0 9.5 L 16.0 9.38 L 16.0 9.25 L 16.0 9.12 L 16.0 9.0" fill="none" stroke="#111" stroke-width="1.19" stroke-linecap="round" stroke-linejoin="round"/>
<path d="M 16.0 8.0 L 16.35 8.34 L 16.68 8.71 L 16.98 9.09 L 17.27 9.48 L 17.54 9.89 L 17.78 10.32 L 18.01 10.75 L 18.2 11.2 L 18.38 11.65 L 18.53 12.12 L 18.65 12.59 L 18.75 13.07 L 18.83 13.55 L 18.88 14.04 L 18.9 14.53 L 18.9 15.02 L 18.87 15.51 L 18.82 15.99 L 18.74 16.48 L 18.63 16.95 L 18.5 17.42 L 18.34 17.89 L 18.16 18.34 L 17.96 18.79 L 18.0 19.0 L 17.92 18.83 L 17.83 18.67 L 17.75 18.5 L 17.67 18.33 L 17.58 18.17 L 17.5 18.0 L 17.42 17.83 L 17.33 17.67 L 17.25 17.5 L 17.17 17.33 L 17.08 17.17 L 17.0 17.0 L 16.92 16.83 L 16.83 16.67 L 16.75 16.5 L 16.67 16.33 L 16.58 16.17 L 16.5 16.0 L 16.42 15.83 L 16.33 15.67 L 16.25 15.5 L 16.17 15.33 L 16.08 15.17 L 16.0 15.0" fill="none" stroke="#111" stroke-width="1.19" stroke-linecap="round" stroke-linejoin="round"/>
</svg>
