<?xml version="1.0" encoding="UTF-8"?>
<svg xmlns="http://www.w3.org/2000/svg" viewBox="0 0 19.00 37.00">
<path d="M 4.0 12.0 L 4.46 12.0 L 4.92 12.0 L 5.38 12.0 L 5.83 12.0 L 6.29 12.0 L 6.75 12.0 L 7.21 12.0 L 7.67 12.0 L 8.12 12.0 L 8.58 12.0 L 9.04 12.0 L 9.5 12.0 L 9.96 12.0 L 10.42 12.0 L 10.88 12.0 L 11.33 12.0 L 11.79 12.0 L 12.25 12.0 L 12.71 12.0 L 13.17 12.0 L 13.62 12.0 L 14.08 12.0 L 14.54 12.0 L 15.0 12.0" fill="none" stroke="#111" stroke-width="1.30" stroke-linecap="round" stroke-linejoin="round"/>
<path d="M 4.0 9.0 L 4.0 9.67 L 4.0 10.33 L 4.0 11.0 L 4.0 11.67 L 4.0 12.33 L 4.0 13.0 L 4.0 13.67 L 4.0 14.33 L 4.0 15.0 L 4.0 15.67 L 4.0 16.33 L 4.0 17.0 L 4.0 17.67 L 4.0 18.33 L 4.0 19.0 L 4.0 19.67 L 4.0 20.33 L 4.0 21.0 L 4.0 21.67 L 4.0 22.33 L 4.0 23.0 L 4.0 23.67 L 4.0 24.33 L 4.0 25.0" fill="none" stroke="#111" stroke-width="1.30" stroke-linecap="round" stroke-linejoin="round"/>
<path d="M 15.0 8.0 L 15.0 8.79 L 15.0 9.58 L 15.0 10.38 L 15.0 11.17 L 15.0 11.96 L 15.0 12.75 L 15.0 13.54 L 15.0 14.33 L 15.0 15.12 L 15.0 15.92 L 15.0 16.71 L 15.0 17.5 L 15.0 18.29 L 15.0 19.08 L 15.0 19.88 L 15.0 20.67 L 15.0 21.46 L 15.0 22.25 L 15.0 23.04 L 15.0 23.83 L 15.0 24.62 L 15.0 25.42 L 15.0 26.21 L 15.0 27.0" fill="none" stroke="#111" stroke-width="1.30" stroke-linecap="round" stroke-linejoin="round"/>
<path d="M 4.0 22.0 L 4.46 22.0 L 4.92 22.0 L 5.38 22.0 L 5.83 22.0 L 6.29 22.0 L 6.75 22.0 L 7.21 22.0 L 7.67 22.0 L 8.12 22.0 L 8.58 22.0 L 9.04 22.0 L 9.5 22.0 L 9.96 22.0 L 10.42 22.0 L 10.88 22.0 L 11.33 22.0 L 11.79 22.0 L 12.25 22.0 L 12.71 22.0 L 13.17 22.0 L 13.62 22.0 L 14.08 22.0 L 14.54 22.0 L 15.0 22.0" fill="none" stroke="#111" stroke-width="1.30" stroke-linecap="round" stroke-linejoin="round"/>
<path d="M 9.0 4.0 L 9.0 4.33 L 9.0 4.67 L 9.0 5.0 L 9.0 5.33 L 9.0 5.67 L 9.0 6.0 L 9.0 6.33 L 9.0 6.67 L 9.0 7.0 L 9.0 7.33 L 9.0 7.67 L 9.0 8.0 L 9.0 8.33 L 9.0 8.67 L 9.0 9.0 L 9.0 9.33 L 9.0 9.67 L 9.0 10.0 L 9.0 10.33 L 9.0 10.67 L 9.0 11.0 L 9.0 11.33 L 9.0 11.67 L 9.0 12.0" fill="none" stroke="#111" stroke-width="1.30" stroke-linecap="round" stroke-linejoin="round"/>
<path d="M 9.0 12.0 L 8.8 12.29 L 8.61 12.58 L 8.43 12.88 L 8.26 13.18 L 8.1 13.49 L 7.95 13.81 L 7.8 14.13 L 7.67 14.45 L 7.55 14.78 L 7.44 15.11 L 7.34 15.44 L 7.25 15.78 L 7.17 16.12 L 7.1 16.46 L 7.04 16.81 L 7.0 17.16 L 6.96 17.5 L 6.93 17.85 L 6.92 18.2 L 6.92 18.55 L 6.92 18.9 L 6.94 19.25 L 6.97 19.6 L 7.01 19.94 L 7.0 20.0 L 7.08 19.92 L 7.17 19.83 L 7.25 19.75 L 7.33 19.67 L 7.42 19.58 L 7.5 19.5 L 7.58 19.42 L 7.67 19.33 L 7.75 19.25 L 7.83 19.17 L 7.92 19.08 L 8.0 19.0 L 8.08 18.92 L 8.17 18.83 L 8.25 18.75 L 8.33 18.67 L 8.42 18.58 L 8.5 18.5 L 8.58 18.42 L 8.67 18.33 L 8.75 18.25 L 8.83 18.17 L 8.92 18.08 L 9.0 18.0 L 9.0 18.0 L 9.0 18.0 L 9.0 18.0 L 9.0 18.0 L 9.0 18.0 L 9.0 18.0 L 9.0 18.0 L 9.0 18.0 L 9.0 18.0 L 9.0 18.0 L 9.0 18.0 L 9.0 18.0 L 9.0 18.0 L 9.0 18.0 L 9.0 18.0 L 9.0 18.0 L 9.0 18.0 L 9.0 18.0 L 9.0 18.0 L 9.0 18.0 L 9.0 18.0 L 9.0 18.0 L 9.0 18.0 L 9.0 18.0 L 9.0 18.0" fill="none" stroke="#111" stroke-width="1.30" stroke-linecap="round" stroke-linejoin="round"/>
<path d="M 7.0 17.0 L 7.08 16.96 L 7.17 16.92 L 7.25 16.88 L 7.33 16.83 L 7.42 16.79 L 7.5 16.75 L 7.58 16.71 L 7.67 16.67 L 7.75 16.62 L 7.83 16.58 L 7.92 16.54 L 8.0 16.5 L 8.08 16.46 L 8.17 16.42 L 8.25 16.38 L 8.33 16.33 L 8.42 16.29 L 8.5 16.25 L 8.58 16.21 L 8.67 16.17 L 8.75 16.12 L 8.83 16.08 L 8.92 16.04 L 9.0 16.0" fill="none" stroke="#111" stroke-width="1.30" stroke-linecap="round" stroke-linejoin="round"/>
<path d="M 9.0 13.0 L 9.12 13.17 L 9.25 13.33 L 9.38 13.5 L 9.5 13.67 L 9.62 13.83 L 9.75 14.0 L 9.88 14.17 L 10.0 14.33 L 10.12 14.5 L 10.25 14.67 L 10.38 14.83 L 10.5 15.0 L 10.62 15.17 L 10.75 15.33 L 10.88 15.5 L 11.0 15.67 L 11.12 15.83 L 11.25 16.0 L 11.38 16.17 L 11.5 16.33 L 11.62 16.5 L 11.75 16.67 L 11.88 16.83 L 12.0 17.0" fill="none" stroke="#111" stroke-width="1.30" stroke-linecap="round" stroke-linejoin="round"/>
<path d="M 12.0 17.0 L 11.96 17.08 L 11.92 17.17 L 11.88 17.25 L 11.83 17.33 L 11.79 17.42 L 11.75 17.5 L 11.71 17.58 L 11.67 17.67 L 11.62 17.75 L 11.58 17.83 L 11.54 17.92 L 11.5 18.0 L 11.46 18.08 L 11.42 18.17 L 11.38 18.25 L 11.33 18.33 L 11.29 18.42 L 11.25 18.5 L 11.21 18.58 L 11.17 18.67 L 11.12 18.75 L 11.08 18.83 L 11.04 18.92 L 11.0 19.0 L 11.0 19.0 L 10.96 18.92 L 10.92 18.83 L 10.88 18.75 L 10.83 18.67 L 10.79 18.58 L 10.75 18.5 L 10.71 18.42 L 10.67 18.33 L 10.62 18.25 L 10.58 18.17 L 10.54 18.08 L 10.5 18.0 L 10.46 17.92 L 10.42 17.83 L 10.38 17.75 L 10.33 17.67 L 10.29 17.58 L 10.25 17.5 L 10.21 17.42 L 10.17 17.33 L 10.12 17.25 L 10.08 17.17 L 10.04 17.08 L 10.0 17.0" fill="none" stroke="#111" stroke-width="1.30" stroke-linecap="round" stroke-linejoin="round"/>
<path d="M 10.0 15.0 L 10.08 15.08 L 10.17 15.17 L 10.25 15.25 L 10.33 15.33 L 10.42 15.42 L 10.5 15.5 L 10.58 15.58 L 10.67 15.67 L 10.75 15.75 L 10.83 15.83 L 10.92 15.92 L 11.0 16.0 L 11.08 16.08 L 11.17 16.17 L 11.25 16.25 L 11.33 16.33 L 11.42 16.42 L 11.5 16.5 L 11.58 16.58 L 11.67 16.67 L 11.75 16.75 L 11.83 16.83 L 11.92 16.92 L 12.0 17.0" fill="none" stroke="#111" stroke-width="1.30" stroke-linecap="round" stroke-linejoin="round"/>
<path d="M 9.0 22.0 L 9.0 22.46 L 9.0 22.92 L 9.0 23.38 L 9.0 23.83 L 9.0 24.29 L 9.0 24.75 L 9.0 25.21 L 9.0 25.67 L 9.0 26.12 L 9.0 26.58 L 9.0 27.04 L 9.0 27.5 L 9.0 27.96 L 9.0 28.42 L 9.0 28.88 L 9.0 29.33 L 9.0 29.79 L 9.0 30.25 L 9.0 30.71 L 9.0 31.17 L 9.0 31.62 L 9.0 32.08 L 9.0 32.54 L 9.0 33.0" fill="none" stroke="#111" stroke-width="1.30" stroke-linecap="round" stroke-linejoin="round"/>
</svg>
