<?xml version="1.0" encoding="UTF-8"?>
<svg xmlns="http://www.w3.org/2000/svg" viewBox="0 0 20.84 35.09">
<path d="M 9.0 4.0 L 8.79 4.29 L 8.58 4.58 L 8.37 4.88 L 8.17 5.17 L 7.96 5.46 L 7.75 5.75 L 7.54 6.04 L 7.33 6.33 L 7.12 6.62 L 6.92 6.92 L 6.71 7.21 L 6.5 7.5 L 6.29 7.79 L 6.08 8.08 L 5.88 8.38 L 5.67 8.67 L 5.46 8.96 L 5.25 9.25 L 5.04 9.54 L 4.83 9.83 L 4.62 10.12 L 4.42 10.42 L 4.21 10.71 L 4.0 11.0" fill="none" stroke="#111" stroke-width="1.23" stroke-linecap="round" stroke-linejoin="round"/>
<path d="M 9.0 4.0 L 9.25 4.21 L 9.5 4.42 L 9.75 4.62 L 10.0 4.83 L 10.25 5.04 L 10.5 5.25 L 10.75 5.46 L 11.0 5.67 L 11.25 5.88 L 11.5 6.08 L 11.75 6.29 L 12.0 6.5 L 12.25 6.71 L 12.5 6.92 L 12.75 7.12 L 13.0 7.33 L 13.25 7.54 L 13.5 7.75 L 13.75 7.96 L 14.0 8.17 L 14.25 8.38 L 14.5 8.58 L 14.75 8.79 L 15.0 9.0" fill="none" stroke="#111" stroke-width="1.23" stroke-linecap="round" stroke-linejoin="round"/>
<path d="M 6.0 9.0 L 6.37 9.0 L 6.75 9.0 L 7.12 9.0 L 7.5 9.0 L 7.87 9.0 L 8.25 9.0 L 8.62 9.0 L 9.0 9.0 L 9.37 9.0 L 9.75 9.0 L 10.12 9.0 L 10.5 9.0 L 10.87 9.0 L 11.25 9.0 L 11.62 9.0 L 12.0 9.0 L 12.37 9.0 L 12.75 9.0 L 13.12 9.0 L 13.5 9.0 L 13.87 9.0 L 14.25 9.0 L 14.62 9.0 L 15.0 9.0" fill="none" stroke="#111" stroke-width="1.23" stroke-linecap="round" stroke-linejoin="round"/>
<path d="M 9.0 7.0 L 9.04 7.79 L 9.08 8.58 L 9.12 9.38 L 9.17 10.17 L 9.21 10.96 L 9.25 11.75 L 9.29 12.54 L 9.33 13.33 L 9.37 14.12 L 9.42 14.92 L 9.46 15.71 L 9.5 16.5 L 9.54 17.29 L 9.58 18.08 L 9.62 18.88 L 9.67 19.67 L 9.71 20.46 L 9.75 21.25 L 9.79 22.04 L 9.83 22.83 L 9.88 23.62 L 9.92 24.42 L 9.96 25.21 L 10.0 26.0" fill="none" stroke="#111" stroke-width="1.23" stroke-linecap="round" stroke-linejoin="round"/>
<path d="M 7.0 11.0 L 7.08 11.08 L 7.17 11.17 L 7.25 11.25 L 7.33 11.33 L 7.42 11.42 L 7.5 11.5 L 7.58 11.58 L 7.67 11.67 L 7.75 11.75 L 7.83 11.83 L 7.92 11.92 L 8.0 12.0 L 8.08 12.08 L 8.17 12.17 L 8.25 12.25 L 8.33 12.33 L 8.42 12.42 L 8.5 12.5 L 8.58 12.58 L 8.67 12.67 L 8.75 12.75 L 8.83 12.83 L 8.92 12.92 L 9.0 13.0" fill="none" stroke="#111" stroke-width="1.23" stroke-linecap="round" stroke-linejoin="round"/>
<path d="M 11.0 11.0 L 10.92 11.08 L 10.83 11.17 L 10.75 11.25 L 10.67 11.33 L 10.58 11.42 L 10.5 11.5 L 10.42 11.58 L 10.33 11.67 L 10.25 11.75 L 10.17 11.83 L 10.08 11.92 L 10.0 12.0 L 9.92 12.08 L 9.83 12.17 L 9.75 12.25 L 9.67 12.33 L 9.58 12.42 L 9.5 12.5 L 9.42 12.58 L 9.33 12.67 L 9.25 12.75 L 9.17 12.83 L 9.08 12.92 L 9.0 13.0" fill="none" stroke="#111" stroke-width="1.23" stroke-linecap="round" stroke-linejoin="round"/>
<path d="M 6.0 18.0 L 6.12 18.21 L 6.25 18.42 L 6.37 18.62 L 6.5 18.83 L 6.62 19.04 L 6.75 19.25 L 6.87 19.46 L 7.0 19.67 L 7.12 19.88 L 7.25 20.08 L 7.37 20.29 L 7.5 20.5 L 7.62 20.71 L 7.75 20.92 L 7.87 21.12 L 8.0 21.33 L 8.12 21.54 L 8.25 21.75 L 8.37 21.96 L 8.5 22.17 L 8.62 22.38 L 8.75 22.58 L 8.87 22.79 L 9.0 23.0" fill="none" stroke="#111" stroke-width="1.23" stroke-linecap="round" stroke-linejoin="round"/>
<path d="M 8.0 19.0 L 7.1 19.53 L 6.3 20.21 L 5.63 21.0 L 5.09 21.89 L 4.7 22.86 L 4.48 23.89 L 4.42 24.93 L 4.54 25.97 L 4.83 26.97 L 5.28 27.91 L 5.87 28.77 L 6.6 29.52 L 7.44 30.14 L 8.37 30.62 L 9.36 30.94 L 10.4 31.09 L 11.44 31.07 L 12.47 30.88 L 13.45 30.52 L 14.36 30.01 L 15.17 29.35 L 15.87 28.58 L 16.43 27.7 L 16.84 26.74 L 16.0 26.0 L 15.87 25.75 L 15.75 25.5 L 15.62 25.25 L 15.5 25.0 L 15.37 24.75 L 15.25 24.5 L 15.12 24.25 L 15.0 24.0 L 14.87 23.75 L 14.75 23.5 L 14.62 23.25 L 14.5 23.0 L 14.37 22.75 L 14.25 22.5 L 14.12 22.25 L 14.0 22.0 L 13.87 21.75 L 13.75 21.5 L 13.62 21.25 L 13.5 21.0 L 13.37 20.75 L 13.25 20.5 L 13.12 20.25 L 13.0 20.0" fill="none" stroke="#111" stroke-width="1.23" stroke-linecap="round" stroke-linejoin="round"/>
<path d="M 13.0 19.0 L 12.92 19.17 L 12.83 19.33 L 12.75 19.5 L 12.67 19.67 L 12.58 19.83 L 12.5 20.0 L 12.42 20.17 L 12.33 20.33 L 12.25 20.5 L 12.17 20.67 L 12.08 20.83 L 12.0 21.0 L 11.92 21.17 L 11.83 21.33 L 11.75 21.5 L 11.67 21.67 L 11.58 21.83 L 11.5 22.0 L 11.42 22.17 L 11.33 22.33 L 11.25 22.5 L 11.17 22.67 L 11.08 22.83 L 11.0 23.0" fill="none" stroke="#111" stroke-width="1.23" stroke-linecap="round" stroke-linejoin="round"/>
</svg>
