<?xml version="1.0" encoding="UTF-8"?>
<svg xmlns="http://www.w3.org/2000/svg" viewBox="0 0 23.31 38.00">
<path d="M 6.31 4.0 L 6.69 4.0 L 7.06 4.0 L 7.44 4.0 L 7.81 4.0 L 8.19 4.0 L 8.56 4.0 L 8.94 4.0 L 9.31 4.0 L 9.69 4.0 L 10.06 4.0 L 10.44 4.0 L 10.81 4.0 L 11.19 4.0 L 11.56 4.0 L 11.94 4.0 L 12.31 4.0 L 12.69 4.0 L 13.06 4.0 L 13.44 4.0 L 13.81 4.0 L 14.19 4.0 L 14.56 4.0 L 14.94 4.0 L 15.31 4.0" fill="none" stroke="#111" stroke-width="1.33" stroke-linecap="round" stroke-linejoin="round"/>
<path d="M 6.31 8.0 L 6.73 7.96 L 7.14 7.92 L 7.56 7.88 L 7.98 7.83 L 8.39 7.79 L 8.81 7.75 L 9.23 7.71 L 9.64 7.67 L 10.06 7.62 L 10.48 7.58 L 10.89 7.54 L 11.31 7.5 L 11.73 7.46 L 12.14 7.42 L 12.56 7.38 L 12.98 7.33 L 13.39 7.29 L 13.81 7.25 L 14.23 7.21 L 14.64 7.17 L 15.06 7.12 L 15.48 7.08 L 15.89 7.04 L 16.31 7.0" fill="none" stroke="#111" stroke-width="1.33" stroke-linecap="round" stroke-linejoin="round"/>
<path d="M 6.31 11.0 L 6.73 11.0 L 7.14 11.0 L 7.56 11.0 L 7.98 11.0 L 8.39 11.0 L 8.81 11.0 L 9.23 11.0 L 9.64 11.0 L 10.06 11.0 L 10.48 11.0 L 10.89 11.0 L 11.31 11.0 L 11.73 11.0 L 12.14 11.0 L 12.56 11.0 L 12.98 11.0 L 13.39 11.0 L 13.81 11.0 L 14.23 11.0 L 14.64 11.0 L 15.06 11.0 L 15.48 11.0 L 15.89 11.0 L 16.31 11.0" fill="none" stroke="#111" stroke-width="1.33" stroke-linecap="round" stroke-linejoin="round"/>
<path d="M 6.31 4.0 L 6.31 4.29 L 6.31 4.58 L 6.31 4.88 L 6.31 5.17 L 6.31 5.46 L 6.31 5.75 L 6.31 6.04 L 6.31 6.33 L 6.31 6.62 L 6.31 6.92 L 6.31 7.21 L 6.31 7.5 L 6.31 7.79 L 6.31 8.08 L 6.31 8.38 L 6.31 8.67 L 6.31 8.96 L 6.31 9.25 L 6.31 9.54 L 6.31 9.83 L 6.31 10.12 L 6.31 10.42 L 6.31 10.71 L 6.31 11.0" fill="none" stroke="#111" stroke-width="1.33" stroke-linecap="round" stroke-linejoin="round"/>
<path d="M 16.31 4.0 L 16.31 4.25 L 16.31 4.5 L 16.31 4.75 L 16.31 5.0 L 16.31 5.25 L 16.31 5.5 L 16.31 5.75 L 16.31 6.0 L 16.31 6.25 L 16.31 6.5 L 16.31 6.75 L 16.31 7.0 L 16.31 7.25 L 16.31 7.5 L 16.31 7.75 L 16.31 8.0 L 16.31 8.25 L 16.31 8.5 L 16.31 8.75 L 16.31 9.0 L 16.31 9.25 L 16.31 9.5 L 16.31 9.75 L 16.31 10.0" fill="none" stroke="#111" stroke-width="1.33" stroke-linecap="round" stroke-linejoin="round"/>
<path d="M 11.31 5.0 L 11.31 6.21 L 11.31 7.42 L 11.31 8.62 L 11.31 9.83 L 11.31 11.04 L 11.31 12.25 L 11.31 13.46 L 11.31 14.67 L 11.31 15.88 L 11.31 17.08 L 11.31 18.29 L 11.31 19.5 L 11.31 20.71 L 11.31 21.92 L 11.31 23.12 L 11.31 24.33 L 11.31 25.54 L 11.31 26.75 L 11.31 27.96 L 11.31 29.17 L 11.31 30.38 L 11.31 31.58 L 11.31 32.79 L 11.31 34.0" fill="none" stroke="#111" stroke-width="1.33" stroke-linecap="round" stroke-linejoin="round"/>
<path d="M 4.31 16.0 L 4.56 16.08 L 4.81 16.17 L 5.06 16.25 L 5.31 16.33 L 5.56 16.42 L 5.81 16.5 L 6.06 16.58 L 6.31 16.67 L 6.56 16.75 L 6.81 16.83 L 7.06 16.92 L 7.31 17.0 L 7.56 17.08 L 7.81 17.17 L 8.06 17.25 L 8.31 17.33 L 8.56 17.42 L 8.81 17.5 L 9.06 17.58 L 9.31 17.67 L 9.56 17.75 L 9.81 17.83 L 10.06 17.92 L 10.31 18.0" fill="none" stroke="#111" stroke-width="1.33" stroke-linecap="round" stroke-linejoin="round"/>
<path d="M 16.31 13.0 L 15.84 12.97 L 15.36 13.0 L 14.9 13.09 L 14.45 13.24 L 14.02 13.45 L 13.62 13.71 L 13.27 14.02 L 12.95 14.37 L 12.68 14.77 L 12.47 15.19 L 12.31 15.64 L 12.21 16.1 L 12.18 16.58 L 12.2 17.05 L 12.29 17.52 L 12.44 17.97 L 12.64 18.4 L 12.9 18.8 L 13.2 19.16 L 13.56 19.48 L 13.95 19.75 L 14.37 19.97 L 14.81 20.13 L 15.28 20.23 L 15.31 20.0 L 15.29 21.08 L 15.06 22.13 L 14.63 23.12 L 14.03 24.01 L 13.27 24.78 L 12.38 25.38 L 11.39 25.8 L 10.33 26.03 L 9.26 26.06 L 8.19 25.88 L 7.18 25.5 L 6.26 24.94 L 5.47 24.21 L 4.82 23.35 L 4.35 22.38 L 4.08 21.34 L 4.0 20.26 L 4.13 19.19 L 4.46 18.17 L 4.98 17.22 L 5.67 16.39 L 6.5 15.71 L 7.44 15.2 L 8.47 14.87" fill="none" stroke="#111" stroke-width="1.33" stroke-linecap="round" stroke-linejoin="round"/>
<path d="M 7.31 23.0 L 7.69 22.96 L 8.06 22.92 L 8.44 22.88 L 8.81 22.83 L 9.19 22.79 L 9.56 22.75 L 9.94 22.71 L 10.31 22.67 L 10.69 22.62 L 11.06 22.58 L 11.44 22.54 L 11.81 22.5 L 12.19 22.46 L 12.56 22.42 L 12.94 22.38 L 13.31 22.33 L 13.69 22.29 L 14.06 22.25 L 14.44 22.21 L 14.81 22.17 L 15.19 22.12 L 15.56 22.08 L 15.94 22.04 L 16.31 22.0" fill="none" stroke="#111" stroke-width="1.33" stroke-linecap="round" stroke-linejoin="round"/>
<path d="M 6.31 32.0 L 6.52 31.75 L 6.73 31.5 L 6.94 31.25 L 7.14 31.0 L 7.35 30.75 L 7.56 30.5 L 7.77 30.25 L 7.98 30.0 L 8.19 29.75 L 8.39 29.5 L 8.6 29.25 L 8.81 29.0 L 9.02 28.75 L 9.23 28.5 L 9.44 28.25 L 9.64 28.0 L 9.85 27.75 L 10.06 27.5 L 10.27 27.25 L 10.48 27.0 L 10.69 26.75 L 10.89 26.5 L 11.1 26.25 L 11.31 26.0 L 11.31 26.0 L 11.64 26.25 L 11.98 26.5 L 12.31 26.75 L 12.64 27.0 L 12.98 27.25 L 13.31 27.5 L 13.64 27.75 L 13.98 28.0 L 14.31 28.25 L 14.64 28.5 L 14.98 28.75 L 15.31 29.0 L 15.64 29.25 L 15.98 29.5 L 16.31 29.75 L 16.64 30.0 L 16.98 30.25 L 17.31 30.5 L 17.64 30.75 L 17.98 31.0 L 18.31 31.25 L 18.64 31.5 L 18.98 31.75 L 19.31 32.0" fill="none" stroke="#111" stroke-width="1.33" stroke-linecap="round" stroke-linejoin="round"/>
</svg>
