<?xml version="1.0" encoding="UTF-8"?>
<svg xmlns="http://www.w3.org/2000/svg" viewBox="0 0 21.35 32.00">
<path d="M 6.35 4.0 L 6.76 4.0 L 7.18 4.0 L 7.6 4.0 L 8.01 4.0 L 8.43 4.0 L 8.85 4.0 L 9.26 4.0 L 9.68 4.0 L 10.1 4.0 L 10.51 4.0 L 10.93 4.0 L 11.35 4.0 L 11.76 4.0 L 12.18 4.0 L 12.6 4.0 L 13.01 4.0 L 13.43 4.0 L 13.85 4.0 L 14.26 4.0 L 14.68 4.0 L 15.1 4.0 L 15.51 4.0 L 15.93 4.0 L 16.35 4.0" fill="none" stroke="#111" stroke-width="1.12" stroke-linecap="round" stroke-linejoin="round"/>
<path d="M 7.35 8.0 L 7.68 7.96 L 8.01 7.92 L 8.35 7.88 L 8.68 7.83 L 9.01 7.79 L 9.35 7.75 L 9.68 7.71 L 10.01 7.67 L 10.35 7.62 L 10.68 7.58 L 11.01 7.54 L 11.35 7.5 L 11.68 7.46 L 12.01 7.42 L 12.35 7.38 L 12.68 7.33 L 13.01 7.29 L 13.35 7.25 L 13.68 7.21 L 14.01 7.17 L 14.35 7.12 L 14.68 7.08 L 15.01 7.04 L 15.35 7.0" fill="none" stroke="#111" stroke-width="1.12" stroke-linecap="round" stroke-linejoin="round"/>
<path d="M 11.35 4.0 L 11.35 4.54 L 11.35 5.08 L 11.35 5.62 L 11.35 6.17 L 11.35 6.71 L 11.35 7.25 L 11.35 7.79 L 11.35 8.33 L 11.35 8.88 L 11.35 9.42 L 11.35 9.96 L 11.35 10.5 L 11.35 11.04 L 11.35 11.58 L 11.35 12.12 L 11.35 12.67 L 11.35 13.21 L 11.35 13.75 L 11.35 14.29 L 11.35 14.83 L 11.35 15.38 L 11.35 15.92 L 11.35 16.46 L 11.35 17.0" fill="none" stroke="#111" stroke-width="1.12" stroke-linecap="round" stroke-linejoin="round"/>
<path d="M 7.35 10.0 L 7.22 10.08 L 7.1 10.17 L 6.97 10.25 L 6.85 10.33 L 6.72 10.42 L 6.6 10.5 L 6.47 10.58 L 6.35 10.67 L 6.22 10.75 L 6.1 10.83 L 5.97 10.92 L 5.85 11.0 L 5.72 11.08 L 5.6 11.17 L 5.47 11.25 L 5.35 11.33 L 5.22 11.42 L 5.1 11.5 L 4.97 11.58 L 4.85 11.67 L 4.72 11.75 L 4.6 11.83 L 4.47 11.92 L 4.35 12.0 L 4.35 12.0 L 4.31 12.52 L 4.38 13.04 L 4.54 13.53 L 4.8 13.98 L 5.13 14.38 L 5.54 14.7 L 6.01 14.94 L 6.51 15.09 L 7.02 15.14 L 7.54 15.08 L 8.04 14.93 L 8.5 14.68 L 8.9 14.35 L 9.24 13.95 L 9.49 13.5 L 9.64 13.0 L 9.7 12.48 L 9.66 11.96 L 9.52 11.46 L 9.28 11.0 L 8.96 10.59 L 8.57 10.24 L 8.11 9.99 L 7.62 9.82" fill="none" stroke="#111" stroke-width="1.12" stroke-linecap="round" stroke-linejoin="round"/>
<path d="M 6.35 12.0 L 6.39 12.0 L 6.43 12.0 L 6.47 12.0 L 6.51 12.0 L 6.56 12.0 L 6.6 12.0 L 6.64 12.0 L 6.68 12.0 L 6.72 12.0 L 6.76 12.0 L 6.81 12.0 L 6.85 12.0 L 6.89 12.0 L 6.93 12.0 L 6.97 12.0 L 7.01 12.0 L 7.06 12.0 L 7.1 12.0 L 7.14 12.0 L 7.18 12.0 L 7.22 12.0 L 7.26 12.0 L 7.31 12.0 L 7.35 12.0" fill="none" stroke="#111" stroke-width="1.12" stroke-linecap="round" stroke-linejoin="round"/>
<path d="M 15.35 10.0 L 15.14 10.04 L 14.94 10.11 L 14.75 10.19 L 14.56 10.29 L 14.39 10.41 L 14.22 10.55 L 14.08 10.7 L 13.94 10.86 L 13.83 11.03 L 13.73 11.22 L 13.65 11.42 L 13.59 11.62 L 13.55 11.82 L 13.52 12.03 L 13.52 12.25 L 13.54 12.46 L 13.58 12.66 L 13.64 12.87 L 13.72 13.06 L 13.82 13.25 L 13.94 13.42 L 14.07 13.59 L 14.22 13.74 L 14.38 13.87 L 14.35 14.0 L 14.43 13.96 L 14.51 13.92 L 14.6 13.88 L 14.68 13.83 L 14.76 13.79 L 14.85 13.75 L 14.93 13.71 L 15.01 13.67 L 15.1 13.62 L 15.18 13.58 L 15.26 13.54 L 15.35 13.5 L 15.43 13.46 L 15.51 13.42 L 15.6 13.38 L 15.68 13.33 L 15.76 13.29 L 15.85 13.25 L 15.93 13.21 L 16.01 13.17 L 16.1 13.12 L 16.18 13.08 L 16.26 13.04 L 16.35 13.0 L 16.35 13.0 L 16.51 12.9 L 16.65 12.79 L 16.79 12.66 L 16.91 12.52 L 17.0 12.36 L 17.08 12.19 L 17.14 12.01 L 17.18 11.83 L 17.2 11.65 L 17.19 11.46 L 17.17 11.28 L 17.12 11.1 L 17.05 10.92 L 16.96 10.76 L 16.85 10.61 L 16.73 10.47 L 16.59 10.35 L 16.43 10.24 L 16.27 10.16 L 16.1 10.09 L 15.92 10.04 L 15.73 10.02 L 15.54 10.02 L 15.36 10.04" fill="none" stroke="#111" stroke-width="1.12" stroke-linecap="round" stroke-linejoin="round"/>
<path d="M 14.35 12.0 L 14.39 12.0 L 14.43 12.0 L 14.47 12.0 L 14.51 12.0 L 14.56 12.0 L 14.6 12.0 L 14.64 12.0 L 14.68 12.0 L 14.72 12.0 L 14.76 12.0 L 14.81 12.0 L 14.85 12.0 L 14.89 12.0 L 14.93 12.0 L 14.97 12.0 L 15.01 12.0 L 15.06 12.0 L 15.1 12.0 L 15.14 12.0 L 15.18 12.0 L 15.22 12.0 L 15.26 12.0 L 15.31 12.0 L 15.35 12.0" fill="none" stroke="#111" stroke-width="1.12" stroke-linecap="round" stroke-linejoin="round"/>
<path d="M 11.35 17.0 L 10.73 16.88 L 10.1 16.83 L 9.48 16.84 L 8.85 16.92 L 8.24 17.06 L 7.65 17.27 L 7.08 17.54 L 6.55 17.87 L 6.05 18.26 L 5.6 18.69 L 5.19 19.17 L 4.84 19.69 L 4.55 20.25 L 4.31 20.83 L 4.14 21.44 L 4.04 22.06 L 4.0 22.68 L 4.03 23.31 L 4.12 23.93 L 4.28 24.54 L 4.5 25.13 L 4.79 25.69 L 5.13 26.21 L 5.53 26.7" fill="none" stroke="#111" stroke-width="1.12" stroke-linecap="round" stroke-linejoin="round"/>
<path d="M 11.35 17.0 L 11.56 16.96 L 11.76 16.92 L 11.97 16.88 L 12.18 16.83 L 12.39 16.79 L 12.6 16.75 L 12.81 16.71 L 13.01 16.67 L 13.22 16.62 L 13.43 16.58 L 13.64 16.54 L 13.85 16.5 L 14.06 16.46 L 14.26 16.42 L 14.47 16.38 L 14.68 16.33 L 14.89 16.29 L 15.1 16.25 L 15.31 16.21 L 15.51 16.17 L 15.72 16.12 L 15.93 16.08 L 16.14 16.04 L 16.35 16.0" fill="none" stroke="#111" stroke-width="1.12" stroke-linecap="round" stroke-linejoin="round"/>
<path d="M 16.35 16.0 L 16.39 16.5 L 16.43 17.0 L 16.47 17.5 L 16.51 18.0 L 16.56 18.5 L 16.6 19.0 L 16.64 19.5 L 16.68 20.0 L 16.72 20.5 L 16.76 21.0 L 16.81 21.5 L 16.85 22.0 L 16.89 22.5 L 16.93 23.0 L 16.97 23.5 L 17.01 24.0 L 17.06 24.5 L 17.1 25.0 L 17.14 25.5 L 17.18 26.0 L 17.22 26.5 L 17.26 27.0 L 17.31 27.5 L 17.35 28.0" fill="none" stroke="#111" stroke-width="1.12" stroke-linecap="round" stroke-linejoin="round"/>
<path d="M 11.35 17.0 L 11.35 17.17 L 11.35 17.33 L 11.35 17.5 L 11.35 17.67 L 11.35 17.83 L 11.35 18.0 L 11.35 18.17 L 11.35 18.33 L 11.35 18.5 L 11.35 18.67 L 11.35 18.83 L 11.35 19.0 L 11.35 19.17 L 11.35 19.33 L 11.35 19.5 L 11.35 19.67 L 11.35 19.83 L 11.35 20.0 L 11.35 20.17 L 11.35 20.33 L 11.35 20.5 L 11.35 20.67 L 11.35 20.83 L 11.35 21.0 L 11.35 21.0 L 11.11 21.09 L 10.87 21.17 L 10.63 21.25 L 10.39 21.33 L 10.14 21.4 L 9.9 21.47 L 9.65 21.53 L 9.4 21.59 L 9.16 21.65 L 8.91 21.7 L 8.66 21.75 L 8.41 21.79 L 8.16 21.83 L 7.9 21.87 L 7.65 21.9 L 7.4 21.93 L 7.15 21.95 L 6.89 21.97 L 6.64 21.98 L 6.39 21.99 L 6.13 22.0 L 5.88 22.0 L 5.62 22.0 L 5.37 22.0" fill="none" stroke="#111" stroke-width="1.12" stroke-linecap="round" stroke-linejoin="round"/>
<path d="M 11.35 20.0 L 11.6 20.04 L 11.85 20.08 L 12.1 20.12 L 12.35 20.17 L 12.6 20.21 L 12.85 20.25 L 13.1 20.29 L 13.35 20.33 L 13.6 20.38 L 13.85 20.42 L 14.1 20.46 L 14.35 20.5 L 14.6 20.54 L 14.85 20.58 L 15.1 20.62 L 15.35 20.67 L 15.6 20.71 L 15.85 20.75 L 16.1 20.79 L 16.35 20.83 L 16.6 20.88 L 16.85 20.92 L 17.1 20.96 L 17.35 21.0" fill="none" stroke="#111" stroke-width="1.12" stroke-linecap="round" stroke-linejoin="round"/>
</svg>
