<?xml version="1.0" encoding="UTF-8"?>
<svg xmlns="http://www.w3.org/2000/svg" viewBox="0 0 23.00 31.00">
<path d="M 12.0 4.0 L 11.67 4.33 L 11.33 4.67 L 11.0 5.0 L 10.67 5.33 L 10.33 5.67 L 10.0 6.0 L 9.67 6.33 L 9.33 6.67 L 9.0 7.0 L 8.67 7.33 L 8.33 7.67 L 8.0 8.0 L 7.67 8.33 L 7.33 8.67 L 7.0 9.0 L 6.67 9.33 L 6.33 9.67 L 6.0 10.0 L 5.67 10.33 L 5.33 10.67 L 5.0 11.0 L 4.67 11.33 L 4.33 11.67 L 4.0 12.0" fill="none" stroke="#111" stroke-width="1.09" stroke-linecap="round" stroke-linejoin="round"/>
<path d="M 12.0 4.0 L 12.29 4.25 L 12.58 4.5 L 12.88 4.75 L 13.17 5.0 L 13.46 5.25 L 13.75 5.5 L 14.04 5.75 L 14.33 6.0 L 14.62 6.25 L 14.92 6.5 L 15.21 6.75 L 15.5 7.0 L 15.79 7.25 L 16.08 7.5 L 16.38 7.75 L 16.67 8.0 L 16.96 8.25 L 17.25 8.5 L 17.54 8.75 L 17.83 9.0 L 18.12 9.25 L 18.42 9.5 L 18.71 9.75 L 19.0 10.0" fill="none" stroke="#111" stroke-width="1.09" stroke-linecap="round" stroke-linejoin="round"/>
<path d="M 9.0 7.0 L 9.25 7.0 L 9.5 7.0 L 9.75 7.0 L 10.0 7.0 L 10.25 7.0 L 10.5 7.0 L 10.75 7.0 L 11.0 7.0 L 11.25 7.0 L 11.5 7.0 L 11.75 7.0 L 12.0 7.0 L 12.25 7.0 L 12.5 7.0 L 12.75 7.0 L 13.0 7.0 L 13.25 7.0 L 13.5 7.0 L 13.75 7.0 L 14.0 7.0 L 14.25 7.0 L 14.5 7.0 L 14.75 7.0 L 15.0 7.0" fill="none" stroke="#111" stroke-width="1.09" stroke-linecap="round" stroke-linejoin="round"/>
<path d="M 6.0 10.0 L 5.96 10.5 L 5.92 11.0 L 5.88 11.5 L 5.83 12.0 L 5.79 12.5 L 5.75 13.0 L 5.71 13.5 L 5.67 14.0 L 5.62 14.5 L 5.58 15.0 L 5.54 15.5 L 5.5 16.0 L 5.46 16.5 L 5.42 17.0 L 5.38 17.5 L 5.33 18.0 L 5.29 18.5 L 5.25 19.0 L 5.21 19.5 L 5.17 20.0 L 5.12 20.5 L 5.08 21.0 L 5.04 21.5 L 5.0 22.0" fill="none" stroke="#111" stroke-width="1.09" stroke-linecap="round" stroke-linejoin="round"/>
<path d="M 18.0 10.0 L 18.04 10.5 L 18.08 11.0 L 18.12 11.5 L 18.17 12.0 L 18.21 12.5 L 18.25 13.0 L 18.29 13.5 L 18.33 14.0 L 18.38 14.5 L 18.42 15.0 L 18.46 15.5 L 18.5 16.0 L 18.54 16.5 L 18.58 17.0 L 18.62 17.5 L 18.67 18.0 L 18.71 18.5 L 18.75 19.0 L 18.79 19.5 L 18.83 20.0 L 18.88 20.5 L 18.92 21.0 L 18.96 21.5 L 19.0 22.0" fill="none" stroke="#111" stroke-width="1.09" stroke-linecap="round" stroke-linejoin="round"/>
<path d="M 11.0 10.0 L 11.0 10.29 L 11.0 10.58 L 11.0 10.88 L 11.0 11.17 L 11.0 11.46 L 11.0 11.75 L 11.0 12.04 L 11.0 12.33 L 11.0 12.62 L 11.0 12.92 L 11.0 13.21 L 11.0 13.5 L 11.0 13.79 L 11.0 14.08 L 11.0 14.38 L 11.0 14.67 L 11.0 14.96 L 11.0 15.25 L 11.0 15.54 L 11.0 15.83 L 11.0 16.12 L 11.0 16.42 L 11.0 16.71 L 11.0 17.0" fill="none" stroke="#111" stroke-width="1.09" stroke-linecap="round" stroke-linejoin="round"/>
<path d="M 9.0 10.0 L 9.08 10.12 L 9.17 10.25 L 9.25 10.38 L 9.33 10.5 L 9.42 10.62 L 9.5 10.75 L 9.58 10.88 L 9.67 11.0 L 9.75 11.12 L 9.83 11.25 L 9.92 11.38 L 10.0 11.5 L 10.08 11.62 L 10.17 11.75 L 10.25 11.88 L 10.33 12.0 L 10.42 12.12 L 10.5 12.25 L 10.58 12.38 L 10.67 12.5 L 10.75 12.62 L 10.83 12.75 L 10.92 12.88 L 11.0 13.0" fill="none" stroke="#111" stroke-width="1.09" stroke-linecap="round" stroke-linejoin="round"/>
<path d="M 16.0 11.0 L 15.79 11.08 L 15.58 11.17 L 15.38 11.25 L 15.17 11.33 L 14.96 11.42 L 14.75 11.5 L 14.54 11.58 L 14.33 11.67 L 14.12 11.75 L 13.92 11.83 L 13.71 11.92 L 13.5 12.0 L 13.29 12.08 L 13.08 12.17 L 12.88 12.25 L 12.67 12.33 L 12.46 12.42 L 12.25 12.5 L 12.04 12.58 L 11.83 12.67 L 11.62 12.75 L 11.42 12.83 L 11.21 12.92 L 11.0 13.0" fill="none" stroke="#111" stroke-width="1.09" stroke-linecap="round" stroke-linejoin="round"/>
<path d="M 8.0 13.0 L 8.04 13.08 L 8.08 13.17 L 8.12 13.25 L 8.17 13.33 L 8.21 13.42 L 8.25 13.5 L 8.29 13.58 L 8.33 13.67 L 8.38 13.75 L 8.42 13.83 L 8.46 13.92 L 8.5 14.0 L 8.54 14.08 L 8.58 14.17 L 8.62 14.25 L 8.67 14.33 L 8.71 14.42 L 8.75 14.5 L 8.79 14.58 L 8.83 14.67 L 8.88 14.75 L 8.92 14.83 L 8.96 14.92 L 9.0 15.0" fill="none" stroke="#111" stroke-width="1.09" stroke-linecap="round" stroke-linejoin="round"/>
<path d="M 14.0 13.0 L 14.0 13.08 L 14.0 13.17 L 14.0 13.25 L 14.0 13.33 L 14.0 13.42 L 14.0 13.5 L 14.0 13.58 L 14.0 13.67 L 14.0 13.75 L 14.0 13.83 L 14.0 13.92 L 14.0 14.0 L 14.0 14.08 L 14.0 14.17 L 14.0 14.25 L 14.0 14.33 L 14.0 14.42 L 14.0 14.5 L 14.0 14.58 L 14.0 14.67 L 14.0 14.75 L 14.0 14.83 L 14.0 14.92 L 14.0 15.0" fill="none" stroke="#111" stroke-width="1.09" stroke-linecap="round" stroke-linejoin="round"/>
<path d="M 11.0 14.0 L 10.83 14.12 L 10.67 14.25 L 10.5 14.38 L 10.33 14.5 L 10.17 14.62 L 10.0 14.75 L 9.83 14.88 L 9.67 15.0 L 9.5 15.12 L 9.33 15.25 L 9.17 15.38 L 9.0 15.5 L 8.83 15.62 L 8.67 15.75 L 8.5 15.88 L 8.33 16.0 L 8.17 16.12 L 8.0 16.25 L 7.83 16.38 L 7.67 16.5 L 7.5 16.62 L 7.33 16.75 L 7.17 16.88 L 7.0 17.0" fill="none" stroke="#111" stroke-width="1.09" stroke-linecap="round" stroke-linejoin="round"/>
<path d="M 11.0 14.0 L 11.12 14.12 L 11.25 14.25 L 11.38 14.38 L 11.5 14.5 L 11.62 14.62 L 11.75 14.75 L 11.88 14.88 L 12.0 15.0 L 12.12 15.12 L 12.25 15.25 L 12.38 15.38 L 12.5 15.5 L 12.62 15.62 L 12.75 15.75 L 12.88 15.88 L 13.0 16.0 L 13.12 16.12 L 13.25 16.25 L 13.38 16.38 L 13.5 16.5 L 13.62 16.62 L 13.75 16.75 L 13.88 16.88 L 14.0 17.0" fill="none" stroke="#111" stroke-width="1.09" stroke-linecap="round" stroke-linejoin="round"/>
<path d="M 9.0 18.0 L 9.0 18.08 L 9.0 18.17 L 9.0 18.25 L 9.0 18.33 L 9.0 18.42 L 9.0 18.5 L 9.0 18.58 L 9.0 18.67 L 9.0 18.75 L 9.0 18.83 L 9.0 18.92 L 9.0 19.0 L 9.0 19.08 L 9.0 19.17 L 9.0 19.25 L 9.0 19.33 L 9.0 19.42 L 9.0 19.5 L 9.0 19.58 L 9.0 19.67 L 9.0 19.75 L 9.0 19.83 L 9.0 19.92 L 9.0 20.0" fill="none" stroke="#111" stroke-width="1.09" stroke-linecap="round" stroke-linejoin="round"/>
<path d="M 10.0 19.0 L 10.0 19.08 L 10.0 19.17 L 10.0 19.25 L 10.0 19.33 L 10.0 19.42 L 10.0 19.5 L 10.0 19.58 L 10.0 19.67 L 10.0 19.75 L 10.0 19.83 L 10.0 19.92 L 10.0 20.0 L 10.0 20.08 L 10.0 20.17 L 10.0 20.25 L 10.0 20.33 L 10.0 20.42 L 10.0 20.5 L 10.0 20.58 L 10.0 20.67 L 10.0 20.75 L 10.0 20.83 L 10.0 20.92 L 10.0 21.0" fill="none" stroke="#111" stroke-width="1.09" stroke-linecap="round" stroke-linejoin="round"/>
<path d="M 14.0 19.0 L 14.0 19.04 L 14.0 19.08 L 14.0 19.12 L 14.0 19.17 L 14.0 19.21 L 14.0 19.25 L 14.0 19.29 L 14.0 19.33 L 14.0 19.38 L 14.0 19.42 L 14.0 19.46 L 14.0 19.5 L 14.0 19.54 L 14.0 19.58 L 14.0 19.62 L 14.0 19.67 L 14.0 19.71 L 14.0 19.75 L 14.0 19.79 L 14.0 19.83 L 14.0 19.88 L 14.0 19.92 L 14.0 19.96 L 14.0 20.0" fill="none" stroke="#111" stroke-width="1.09" stroke-linecap="round" stroke-linejoin="round"/>
<path d="M 12.0 19.0 L 12.26 19.38 L 12.47 19.79 L 12.61 20.23 L 12.69 20.69 L 12.69 21.15 L 12.63 21.6 L 12.5 22.05 L 12.31 22.46 L 12.05 22.85 L 11.74 23.19 L 11.39 23.49 L 10.99 23.72 L 10.56 23.9 L 10.11 24.01 L 9.65 24.05 L 9.19 24.02 L 8.74 23.92 L 8.31 23.76 L 7.91 23.54 L 7.54 23.26 L 7.22 22.92 L 6.96 22.55 L 6.75 22.14 L 6.61 21.7 L 8.0 21.0 L 8.0 21.25 L 8.0 21.5 L 8.0 21.75 L 8.0 22.0 L 8.0 22.25 L 8.0 22.5 L 8.0 22.75 L 8.0 23.0 L 8.0 23.25 L 8.0 23.5 L 8.0 23.75 L 8.0 24.0 L 8.0 24.25 L 8.0 24.5 L 8.0 24.75 L 8.0 25.0 L 8.0 25.25 L 8.0 25.5 L 8.0 25.75 L 8.0 26.0 L 8.0 26.25 L 8.0 26.5 L 8.0 26.75 L 8.0 27.0 L 8.0 27.0 L 8.87 26.71 L 9.72 26.36 L 10.54 25.95 L 11.34 25.48 L 12.1 24.97 L 12.82 24.4 L 13.5 23.79 L 14.14 23.13 L 14.73 22.42 L 15.28 21.68 L 15.77 20.91 L 16.21 20.1 L 16.59 19.27 L 16.92 18.41 L 17.18 17.53 L 17.39 16.63 L 17.53 15.72 L 17.61 14.81 L 17.63 13.89 L 17.59 12.97 L 17.49 12.06 L 17.32 11.16 L 17.09 10.27 L 16.8 9.4" fill="none" stroke="#111" stroke-width="1.09" stroke-linecap="round" stroke-linejoin="round"/>
</svg>
