<?xml version="1.0" encoding="UTF-8"?>
<svg xmlns="http://www.w3.org/2000/svg" viewBox="0 0 20.00 39.20">
<path d="M 4.0 8.0 L 4.25 8.38 L 4.5 8.75 L 4.75 9.12 L 5.0 9.5 L 5.25 9.88 L 5.5 10.25 L 5.75 10.62 L 6.0 11.0 L 6.25 11.38 L 6.5 11.75 L 6.75 12.12 L 7.0 12.5 L 7.25 12.88 L 7.5 13.25 L 7.75 13.62 L 8.0 14.0 L 8.25 14.38 L 8.5 14.75 L 8.75 15.12 L 9.0 15.5 L 9.25 15.88 L 9.5 16.25 L 9.75 16.62 L 10.0 17.0" fill="none" stroke="#111" stroke-width="1.37" stroke-linecap="round" stroke-linejoin="round"/>
<path d="M 10.0 6.0 L 10.68 7.01 L 11.31 8.06 L 11.86 9.14 L 12.35 10.25 L 12.77 11.4 L 13.12 12.56 L 13.4 13.75 L 13.6 14.95 L 13.74 16.16 L 13.79 17.38 L 13.77 18.6 L 13.68 19.81 L 13.51 21.02 L 13.27 22.21 L 12.96 23.39 L 12.58 24.55 L 12.12 25.68 L 11.6 26.78 L 11.01 27.85 L 10.36 28.87 L 9.64 29.86 L 8.87 30.8 L 8.04 31.69 L 7.16 32.53" fill="none" stroke="#111" stroke-width="1.37" stroke-linecap="round" stroke-linejoin="round"/>
<path d="M 10.0 31.0 L 10.08 31.08 L 10.17 31.17 L 10.25 31.25 L 10.33 31.33 L 10.42 31.42 L 10.5 31.5 L 10.58 31.58 L 10.67 31.67 L 10.75 31.75 L 10.83 31.83 L 10.92 31.92 L 11.0 32.0 L 11.08 32.08 L 11.17 32.17 L 11.25 32.25 L 11.33 32.33 L 11.42 32.42 L 11.5 32.5 L 11.58 32.58 L 11.67 32.67 L 11.75 32.75 L 11.83 32.83 L 11.92 32.92 L 12.0 33.0" fill="none" stroke="#111" stroke-width="1.37" stroke-linecap="round" stroke-linejoin="round"/>
<path d="M 5.0 32.0 L 5.29 32.5 L 5.63 32.98 L 6.02 33.42 L 6.44 33.81 L 6.91 34.17 L 7.41 34.47 L 7.93 34.73 L 8.48 34.93 L 9.04 35.08 L 9.62 35.17 L 10.2 35.2 L 10.78 35.18 L 11.36 35.1 L 11.93 34.96 L 12.48 34.76 L 13.0 34.52 L 13.51 34.22 L 13.98 33.87 L 14.41 33.48 L 14.8 33.05 L 15.15 32.59 L 15.45 32.09 L 15.7 31.56 L 15.9 31.01" fill="none" stroke="#111" stroke-width="1.37" stroke-linecap="round" stroke-linejoin="round"/>
<path d="M 10.0 20.0 L 9.75 20.29 L 9.5 20.58 L 9.25 20.88 L 9.0 21.17 L 8.75 21.46 L 8.5 21.75 L 8.25 22.04 L 8.0 22.33 L 7.75 22.62 L 7.5 22.92 L 7.25 23.21 L 7.0 23.5 L 6.75 23.79 L 6.5 24.08 L 6.25 24.38 L 6.0 24.67 L 5.75 24.96 L 5.5 25.25 L 5.25 25.54 L 5.0 25.83 L 4.75 26.12 L 4.5 26.42 L 4.25 26.71 L 4.0 27.0" fill="none" stroke="#111" stroke-width="1.37" stroke-linecap="round" stroke-linejoin="round"/>
<path d="M 10.0 19.0 L 10.25 19.29 L 10.5 19.58 L 10.75 19.88 L 11.0 20.17 L 11.25 20.46 L 11.5 20.75 L 11.75 21.04 L 12.0 21.33 L 12.25 21.62 L 12.5 21.92 L 12.75 22.21 L 13.0 22.5 L 13.25 22.79 L 13.5 23.08 L 13.75 23.38 L 14.0 23.67 L 14.25 23.96 L 14.5 24.25 L 14.75 24.54 L 15.0 24.83 L 15.25 25.12 L 15.5 25.42 L 15.75 25.71 L 16.0 26.0" fill="none" stroke="#111" stroke-width="1.37" stroke-linecap="round" stroke-linejoin="round"/>
<path d="M 6.0 27.0 L 6.04 27.12 L 6.08 27.25 L 6.13 27.38 L 6.17 27.5 L 6.21 27.62 L 6.25 27.75 L 6.29 27.88 L 6.33 28.0 L 6.38 28.12 L 6.42 28.25 L 6.46 28.38 L 6.5 28.5 L 6.54 28.62 L 6.58 28.75 L 6.63 28.88 L 6.67 29.0 L 6.71 29.12 L 6.75 29.25 L 6.79 29.38 L 6.83 29.5 L 6.88 29.62 L 6.92 29.75 L 6.96 29.88 L 7.0 30.0" fill="none" stroke="#111" stroke-width="1.37" stroke-linecap="round" stroke-linejoin="round"/>
<path d="M 12.0 26.0 L 12.04 26.12 L 12.08 26.25 L 12.12 26.38 L 12.17 26.5 L 12.21 26.62 L 12.25 26.75 L 12.29 26.88 L 12.33 27.0 L 12.38 27.12 L 12.42 27.25 L 12.46 27.38 L 12.5 27.5 L 12.54 27.62 L 12.58 27.75 L 12.62 27.88 L 12.67 28.0 L 12.71 28.12 L 12.75 28.25 L 12.79 28.38 L 12.83 28.5 L 12.88 28.62 L 12.92 28.75 L 12.96 28.88 L 13.0 29.0" fill="none" stroke="#111" stroke-width="1.37" stroke-linecap="round" stroke-linejoin="round"/>
<path d="M 4.0 16.0 L 4.04 16.12 L 4.08 16.25 L 4.13 16.38 L 4.17 16.5 L 4.21 16.62 L 4.25 16.75 L 4.29 16.88 L 4.33 17.0 L 4.38 17.12 L 4.42 17.25 L 4.46 17.38 L 4.5 17.5 L 4.54 17.62 L 4.58 17.75 L 4.63 17.88 L 4.67 18.0 L 4.71 18.12 L 4.75 18.25 L 4.79 18.38 L 4.83 18.5 L 4.88 18.62 L 4.92 18.75 L 4.96 18.88 L 5.0 19.0" fill="none" stroke="#111" stroke-width="1.37" stroke-linecap="round" stroke-linejoin="round"/>
<path d="M 15.0 15.0 L 15.0 15.21 L 15.0 15.42 L 15.0 15.62 L 15.0 15.83 L 15.0 16.04 L 15.0 16.25 L 15.0 16.46 L 15.0 16.67 L 15.0 16.88 L 15.0 17.08 L 15.0 17.29 L 15.0 17.5 L 15.0 17.71 L 15.0 17.92 L 15.0 18.12 L 15.0 18.33 L 15.0 18.54 L 15.0 18.75 L 15.0 18.96 L 15.0 19.17 L 15.0 19.38 L 15.0 19.58 L 15.0 19.79 L 15.0 20.0" fill="none" stroke="#111" stroke-width="1.37" stroke-linecap="round" stroke-linejoin="round"/>
<path d="M 15.0 8.0 L 14.79 8.33 L 14.58 8.67 L 14.38 9.0 L 14.17 9.33 L 13.96 9.67 L 13.75 10.0 L 13.54 10.33 L 13.33 10.67 L 13.13 11.0 L 12.92 11.33 L 12.71 11.67 L 12.5 12.0 L 12.29 12.33 L 12.08 12.67 L 11.88 13.0 L 11.67 13.33 L 11.46 13.67 L 11.25 14.0 L 11.04 14.33 L 10.83 14.67 L 10.63 15.0 L 10.42 15.33 L 10.21 15.67 L 10.0 16.0" fill="none" stroke="#111" stroke-width="1.37" stroke-linecap="round" stroke-linejoin="round"/>
<path d="M 12.0 4.0 L 12.04 4.08 L 12.08 4.17 L 12.12 4.25 L 12.17 4.33 L 12.21 4.42 L 12.25 4.5 L 12.29 4.58 L 12.33 4.67 L 12.38 4.75 L 12.42 4.83 L 12.46 4.92 L 12.5 5.0 L 12.54 5.08 L 12.58 5.17 L 12.62 5.25 L 12.67 5.33 L 12.71 5.42 L 12.75 5.5 L 12.79 5.58 L 12.83 5.67 L 12.88 5.75 L 12.92 5.83 L 12.96 5.92 L 13.0 6.0" fill="none" stroke="#111" stroke-width="1.37" stroke-linecap="round" stroke-linejoin="round"/>
<path d="M 6.0 5.0 L 6.04 5.08 L 6.08 5.17 L 6.13 5.25 L 6.17 5.33 L 6.21 5.42 L 6.25 5.5 L 6.29 5.58 L 6.33 5.67 L 6.38 5.75 L 6.42 5.83 L 6.46 5.92 L 6.5 6.0 L 6.54 6.08 L 6.58 6.17 L 6.63 6.25 L 6.67 6.33 L 6.71 6.42 L 6.75 6.5 L 6.79 6.58 L 6.83 6.67 L 6.88 6.75 L 6.92 6.83 L 6.96 6.92 L 7.0 7.0" fill="none" stroke="#111" stroke-width="1.37" stroke-linecap="round" stroke-linejoin="round"/>
</svg>
