<?xml version="1.0" encoding="UTF-8"?>
<svg xmlns="http://www.w3.org/2000/svg" viewBox="0 0 23.00 31.00">
<path d="M 4.0 5.0 L 4.62 4.96 L 5.25 4.92 L 5.88 4.88 L 6.5 4.83 L 7.12 4.79 L 7.75 4.75 L 8.38 4.71 L 9.0 4.67 L 9.62 4.62 L 10.25 4.58 L 10.88 4.54 L 11.5 4.5 L 12.12 4.46 L 12.75 4.42 L 13.37 4.38 L 14.0 4.33 L 14.62 4.29 L 15.25 4.25 L 15.88 4.21 L 16.5 4.17 L 17.12 4.12 L 17.75 4.08 L 18.38 4.04 L 19.0 4.0" fill="none" stroke="#111" stroke-width="1.09" stroke-linecap="round" stroke-linejoin="round"/>
<path d="M 6.0 5.0 L 6.04 5.83 L 6.08 6.67 L 6.12 7.5 L 6.17 8.33 L 6.21 9.17 L 6.25 10.0 L 6.29 10.83 L 6.33 11.67 L 6.38 12.5 L 6.42 13.33 L 6.46 14.17 L 6.5 15.0 L 6.54 15.83 L 6.58 16.67 L 6.62 17.5 L 6.67 18.33 L 6.71 19.17 L 6.75 20.0 L 6.79 20.83 L 6.83 21.67 L 6.88 22.5 L 6.92 23.33 L 6.96 24.17 L 7.0 25.0" fill="none" stroke="#111" stroke-width="1.09" stroke-linecap="round" stroke-linejoin="round"/>
<path d="M 4.0 7.0 L 4.17 7.0 L 4.33 7.0 L 4.5 7.0 L 4.67 7.0 L 4.83 7.0 L 5.0 7.0 L 5.17 7.0 L 5.33 7.0 L 5.5 7.0 L 5.67 7.0 L 5.83 7.0 L 6.0 7.0 L 6.17 7.0 L 6.33 7.0 L 6.5 7.0 L 6.67 7.0 L 6.83 7.0 L 7.0 7.0 L 7.17 7.0 L 7.33 7.0 L 7.5 7.0 L 7.67 7.0 L 7.83 7.0 L 8.0 7.0" fill="none" stroke="#111" stroke-width="1.09" stroke-linecap="round" stroke-linejoin="round"/>
<path d="M 4.0 12.0 L 4.17 12.0 L 4.33 12.0 L 4.5 12.0 L 4.67 12.0 L 4.83 12.0 L 5.0 12.0 L 5.17 12.0 L 5.33 12.0 L 5.5 12.0 L 5.67 12.0 L 5.83 12.0 L 6.0 12.0 L 6.17 12.0 L 6.33 12.0 L 6.5 12.0 L 6.67 12.0 L 6.83 12.0 L 7.0 12.0 L 7.17 12.0 L 7.33 12.0 L 7.5 12.0 L 7.67 12.0 L 7.83 12.0 L 8.0 12.0" fill="none" stroke="#111" stroke-width="1.09" stroke-linecap="round" stroke-linejoin="round"/>
<path d="M 4.0 17.0 L 4.21 17.0 L 4.42 17.0 L 4.62 17.0 L 4.83 17.0 L 5.04 17.0 L 5.25 17.0 L 5.46 17.0 L 5.67 17.0 L 5.88 17.0 L 6.08 17.0 L 6.29 17.0 L 6.5 17.0 L 6.71 17.0 L 6.92 17.0 L 7.12 17.0 L 7.33 17.0 L 7.54 17.0 L 7.75 17.0 L 7.96 17.0 L 8.17 17.0 L 8.38 17.0 L 8.58 17.0 L 8.79 17.0 L 9.0 17.0" fill="none" stroke="#111" stroke-width="1.09" stroke-linecap="round" stroke-linejoin="round"/>
<path d="M 16.0 4.0 L 16.04 4.96 L 16.08 5.92 L 16.12 6.88 L 16.17 7.83 L 16.21 8.79 L 16.25 9.75 L 16.29 10.71 L 16.33 11.67 L 16.38 12.62 L 16.42 13.58 L 16.46 14.54 L 16.5 15.5 L 16.54 16.46 L 16.58 17.42 L 16.62 18.38 L 16.67 19.33 L 16.71 20.29 L 16.75 21.25 L 16.79 22.21 L 16.83 23.17 L 16.88 24.12 L 16.92 25.08 L 16.96 26.04 L 17.0 27.0" fill="none" stroke="#111" stroke-width="1.09" stroke-linecap="round" stroke-linejoin="round"/>
<path d="M 13.0 7.0 L 13.25 7.0 L 13.5 7.0 L 13.75 7.0 L 14.0 7.0 L 14.25 7.0 L 14.5 7.0 L 14.75 7.0 L 15.0 7.0 L 15.25 7.0 L 15.5 7.0 L 15.75 7.0 L 16.0 7.0 L 16.25 7.0 L 16.5 7.0 L 16.75 7.0 L 17.0 7.0 L 17.25 7.0 L 17.5 7.0 L 17.75 7.0 L 18.0 7.0 L 18.25 7.0 L 18.5 7.0 L 18.75 7.0 L 19.0 7.0" fill="none" stroke="#111" stroke-width="1.09" stroke-linecap="round" stroke-linejoin="round"/>
<path d="M 13.0 12.0 L 13.25 12.0 L 13.5 12.0 L 13.75 12.0 L 14.0 12.0 L 14.25 12.0 L 14.5 12.0 L 14.75 12.0 L 15.0 12.0 L 15.25 12.0 L 15.5 12.0 L 15.75 12.0 L 16.0 12.0 L 16.25 12.0 L 16.5 12.0 L 16.75 12.0 L 17.0 12.0 L 17.25 12.0 L 17.5 12.0 L 17.75 12.0 L 18.0 12.0 L 18.25 12.0 L 18.5 12.0 L 18.75 12.0 L 19.0 12.0" fill="none" stroke="#111" stroke-width="1.09" stroke-linecap="round" stroke-linejoin="round"/>
<path d="M 13.0 17.0 L 13.25 17.0 L 13.5 17.0 L 13.75 17.0 L 14.0 17.0 L 14.25 17.0 L 14.5 17.0 L 14.75 17.0 L 15.0 17.0 L 15.25 17.0 L 15.5 17.0 L 15.75 17.0 L 16.0 17.0 L 16.25 17.0 L 16.5 17.0 L 16.75 17.0 L 17.0 17.0 L 17.25 17.0 L 17.5 17.0 L 17.75 17.0 L 18.0 17.0 L 18.25 17.0 L 18.5 17.0 L 18.75 17.0 L 19.0 17.0" fill="none" stroke="#111" stroke-width="1.09" stroke-linecap="round" stroke-linejoin="round"/>
</svg>
