<?xml version="1.0" encoding="UTF-8"?>
<svg xmlns="http://www.w3.org/2000/svg" viewBox="0 0 18.00 34.00">
<path d="M 8.0 4.0 L 8.04 5.08 L 8.08 6.17 L 8.12 7.25 L 8.17 8.33 L 8.21 9.42 L 8.25 10.5 L 8.29 11.58 L 8.33 12.67 L 8.38 13.75 L 8.42 14.83 L 8.46 15.92 L 8.5 17.0 L 8.54 18.08 L 8.58 19.17 L 8.62 20.25 L 8.67 21.33 L 8.71 22.42 L 8.75 23.5 L 8.79 24.58 L 8.83 25.67 L 8.88 26.75 L 8.92 27.83 L 8.96 28.92 L 9.0 30.0" fill="none" stroke="#111" stroke-width="1.19" stroke-linecap="round" stroke-linejoin="round"/>
<path d="M 4.0 5.0 L 4.17 5.25 L 4.33 5.5 L 4.5 5.75 L 4.67 6.0 L 4.83 6.25 L 5.0 6.5 L 5.17 6.75 L 5.33 7.0 L 5.5 7.25 L 5.67 7.5 L 5.83 7.75 L 6.0 8.0 L 6.17 8.25 L 6.33 8.5 L 6.5 8.75 L 6.67 9.0 L 6.83 9.25 L 7.0 9.5 L 7.17 9.75 L 7.33 10.0 L 7.5 10.25 L 7.67 10.5 L 7.83 10.75 L 8.0 11.0" fill="none" stroke="#111" stroke-width="1.19" stroke-linecap="round" stroke-linejoin="round"/>
<path d="M 13.0 5.0 L 12.79 5.21 L 12.58 5.42 L 12.38 5.62 L 12.17 5.83 L 11.96 6.04 L 11.75 6.25 L 11.54 6.46 L 11.33 6.67 L 11.12 6.88 L 10.92 7.08 L 10.71 7.29 L 10.5 7.5 L 10.29 7.71 L 10.08 7.92 L 9.88 8.12 L 9.67 8.33 L 9.46 8.54 L 9.25 8.75 L 9.04 8.96 L 8.83 9.17 L 8.62 9.38 L 8.42 9.58 L 8.21 9.79 L 8.0 10.0" fill="none" stroke="#111" stroke-width="1.19" stroke-linecap="round" stroke-linejoin="round"/>
<path d="M 4.0 10.0 L 4.17 10.21 L 4.33 10.42 L 4.5 10.62 L 4.67 10.83 L 4.83 11.04 L 5.0 11.25 L 5.17 11.46 L 5.33 11.67 L 5.5 11.88 L 5.67 12.08 L 5.83 12.29 L 6.0 12.5 L 6.17 12.71 L 6.33 12.92 L 6.5 13.12 L 6.67 13.33 L 6.83 13.54 L 7.0 13.75 L 7.17 13.96 L 7.33 14.17 L 7.5 14.38 L 7.67 14.58 L 7.83 14.79 L 8.0 15.0" fill="none" stroke="#111" stroke-width="1.19" stroke-linecap="round" stroke-linejoin="round"/>
<path d="M 13.0 10.0 L 12.79 10.21 L 12.58 10.42 L 12.38 10.62 L 12.17 10.83 L 11.96 11.04 L 11.75 11.25 L 11.54 11.46 L 11.33 11.67 L 11.12 11.88 L 10.92 12.08 L 10.71 12.29 L 10.5 12.5 L 10.29 12.71 L 10.08 12.92 L 9.88 13.12 L 9.67 13.33 L 9.46 13.54 L 9.25 13.75 L 9.04 13.96 L 8.83 14.17 L 8.62 14.38 L 8.42 14.58 L 8.21 14.79 L 8.0 15.0" fill="none" stroke="#111" stroke-width="1.19" stroke-linecap="round" stroke-linejoin="round"/>
<path d="M 4.0 23.0 L 4.38 22.96 L 4.75 22.92 L 5.12 22.88 L 5.5 22.83 L 5.88 22.79 L 6.25 22.75 L 6.62 22.71 L 7.0 22.67 L 7.38 22.62 L 7.75 22.58 L 8.12 22.54 L 8.5 22.5 L 8.88 22.46 L 9.25 22.42 L 9.62 22.38 L 10.0 22.33 L 10.38 22.29 L 10.75 22.25 L 11.12 22.21 L 11.5 22.17 L 11.88 22.12 L 12.25 22.08 L 12.63 22.04 L 13.0 22.0" fill="none" stroke="#111" stroke-width="1.19" stroke-linecap="round" stroke-linejoin="round"/>
<path d="M 5.0 26.0 L 5.33 25.96 L 5.67 25.92 L 6.0 25.88 L 6.33 25.83 L 6.67 25.79 L 7.0 25.75 L 7.33 25.71 L 7.67 25.67 L 8.0 25.62 L 8.33 25.58 L 8.67 25.54 L 9.0 25.5 L 9.33 25.46 L 9.67 25.42 L 10.0 25.38 L 10.33 25.33 L 10.67 25.29 L 11.0 25.25 L 11.33 25.21 L 11.67 25.17 L 12.0 25.12 L 12.33 25.08 L 12.67 25.04 L 13.0 25.0" fill="none" stroke="#111" stroke-width="1.19" stroke-linecap="round" stroke-linejoin="round"/>
<path d="M 4.0 29.0 L 4.42 29.0 L 4.83 29.0 L 5.25 29.0 L 5.67 29.0 L 6.08 29.0 L 6.5 29.0 L 6.92 29.0 L 7.33 29.0 L 7.75 29.0 L 8.17 29.0 L 8.58 29.0 L 9.0 29.0 L 9.42 29.0 L 9.83 29.0 L 10.25 29.0 L 10.67 29.0 L 11.08 29.0 L 11.5 29.0 L 11.92 29.0 L 12.33 29.0 L 12.75 29.0 L 13.17 29.0 L 13.58 29.0 L 14.0 29.0" fill="none" stroke="#111" stroke-width="1.19" stroke-linecap="round" stroke-linejoin="round"/>
<path d="M 4.0 23.0 L 4.0 23.25 L 4.0 23.5 L 4.0 23.75 L 4.0 24.0 L 4.0 24.25 L 4.0 24.5 L 4.0 24.75 L 4.0 25.0 L 4.0 25.25 L 4.0 25.5 L 4.0 25.75 L 4.0 26.0 L 4.0 26.25 L 4.0 26.5 L 4.0 26.75 L 4.0 27.0 L 4.0 27.25 L 4.0 27.5 L 4.0 27.75 L 4.0 28.0 L 4.0 28.25 L 4.0 28.5 L 4.0 28.75 L 4.0 29.0" fill="none" stroke="#111" stroke-width="1.19" stroke-linecap="round" stroke-linejoin="round"/>
<path d="M 13.0 22.0 L 13.04 22.29 L 13.08 22.58 L 13.12 22.88 L 13.17 23.17 L 13.21 23.46 L 13.25 23.75 L 13.29 24.04 L 13.33 24.33 L 13.38 24.62 L 13.42 24.92 L 13.46 25.21 L 13.5 25.5 L 13.54 25.79 L 13.58 26.08 L 13.62 26.38 L 13.67 26.67 L 13.71 26.96 L 13.75 27.25 L 13.79 27.54 L 13.83 27.83 L 13.88 28.12 L 13.92 28.42 L 13.96 28.71 L 14.0 29.0" fill="none" stroke="#111" stroke-width="1.19" stroke-linecap="round" stroke-linejoin="round"/>
</svg>
