<?xml version="1.0" encoding="UTF-8"?>
<svg xmlns="http://www.w3.org/2000/svg" viewBox="0 0 23.22 20.29">
<path d="M 5.6 5.0 L 5.97 5.0 L 6.35 5.0 L 6.72 5.0 L 7.1 5.0 L 7.47 5.0 L 7.85 5.0 L 8.22 5.0 L 8.6 5.0 L 8.97 5.0 L 9.35 5.0 L 9.72 5.0 L 10.1 5.0 L 10.47 5.0 L 10.85 5.0 L 11.22 5.0 L 11.6 5.0 L 11.97 5.0 L 12.35 5.0 L 12.72 5.0 L 13.1 5.0 L 13.47 5.0 L 13.85 5.0 L 14.22 5.0 L 14.6 5.0" fill="none" stroke="#111" stroke-width="0.81" stroke-linecap="round" stroke-linejoin="round"/>
<path d="M 5.6 4.0 L 4.87 5.13 L 4.35 6.37 L 4.06 7.69 L 4.0 9.03 L 4.18 10.37 L 4.59 11.65 L 5.22 12.84 L 6.05 13.9 L 7.06 14.8 L 8.2 15.5 L 9.46 16.0 L 10.78 16.26 L 12.12 16.29 L 13.45 16.09 L 14.73 15.65 L 15.9 14.99 L 16.95 14.14 L 17.82 13.12 L 18.51 11.96 L 18.98 10.7 L 19.22 9.37 L 19.22 8.03 L 18.98 6.7 L 18.52 5.44" fill="none" stroke="#111" stroke-width="0.81" stroke-linecap="round" stroke-linejoin="round"/>
<path d="M 7.6 10.0 L 7.77 10.0 L 7.93 10.0 L 8.1 10.0 L 8.27 10.0 L 8.43 10.0 L 8.6 10.0 L 8.77 10.0 L 8.93 10.0 L 9.1 10.0 L 9.27 10.0 L 9.43 10.0 L 9.6 10.0 L 9.77 10.0 L 9.93 10.0 L 10.1 10.0 L 10.27 10.0 L 10.43 10.0 L 10.6 10.0 L 10.77 10.0 L 10.93 10.0 L 11.1 10.0 L 11.27 10.0 L 11.43 10.0 L 11.6 10.0" fill="none" stroke="#111" stroke-width="0.81" stroke-linecap="round" stroke-linejoin="round"/>
</svg>
