<?xml version="1.0" encoding="UTF-8"?>
<svg xmlns="http://www.w3.org/2000/svg" viewBox="0 0 17.06 40.76">
<path d="M 4.0 4.0 L 4.17 4.21 L 4.33 4.42 L 4.5 4.62 L 4.67 4.83 L 4.83 5.04 L 5.0 5.25 L 5.17 5.46 L 5.33 5.67 L 5.5 5.88 L 5.67 6.08 L 5.83 6.29 L 6.0 6.5 L 6.17 6.71 L 6.33 6.92 L 6.5 7.12 L 6.67 7.33 L 6.83 7.54 L 7.0 7.75 L 7.17 7.96 L 7.33 8.17 L 7.5 8.38 L 7.67 8.58 L 7.83 8.79 L 8.0 9.0 L 8.0 9.0 L 8.21 8.79 L 8.42 8.58 L 8.62 8.38 L 8.83 8.17 L 9.04 7.96 L 9.25 7.75 L 9.46 7.54 L 9.67 7.33 L 9.88 7.12 L 10.08 6.92 L 10.29 6.71 L 10.5 6.5 L 10.71 6.29 L 10.92 6.08 L 11.12 5.88 L 11.33 5.67 L 11.54 5.46 L 11.75 5.25 L 11.96 5.04 L 12.17 4.83 L 12.38 4.62 L 12.58 4.42 L 12.79 4.21 L 13.0 4.0" fill="none" stroke="#111" stroke-width="1.43" stroke-linecap="round" stroke-linejoin="round"/>
<path d="M 8.0 4.0 L 8.04 4.38 L 8.08 4.75 L 8.12 5.12 L 8.17 5.5 L 8.21 5.88 L 8.25 6.25 L 8.29 6.62 L 8.33 7.0 L 8.38 7.38 L 8.42 7.75 L 8.46 8.12 L 8.5 8.5 L 8.54 8.88 L 8.58 9.25 L 8.62 9.62 L 8.67 10.0 L 8.71 10.38 L 8.75 10.75 L 8.79 11.12 L 8.83 11.5 L 8.88 11.88 L 8.92 12.25 L 8.96 12.63 L 9.0 13.0" fill="none" stroke="#111" stroke-width="1.43" stroke-linecap="round" stroke-linejoin="round"/>
<path d="M 8.0 11.0 L 7.83 11.12 L 7.67 11.25 L 7.5 11.38 L 7.33 11.5 L 7.17 11.62 L 7.0 11.75 L 6.83 11.88 L 6.67 12.0 L 6.5 12.12 L 6.33 12.25 L 6.17 12.38 L 6.0 12.5 L 5.83 12.62 L 5.67 12.75 L 5.5 12.88 L 5.33 13.0 L 5.17 13.12 L 5.0 13.25 L 4.83 13.38 L 4.67 13.5 L 4.5 13.62 L 4.33 13.75 L 4.17 13.88 L 4.0 14.0 L 4.0 14.0 L 4.21 14.25 L 4.42 14.5 L 4.62 14.75 L 4.83 15.0 L 5.04 15.25 L 5.25 15.5 L 5.46 15.75 L 5.67 16.0 L 5.88 16.25 L 6.08 16.5 L 6.29 16.75 L 6.5 17.0 L 6.71 17.25 L 6.92 17.5 L 7.12 17.75 L 7.33 18.0 L 7.54 18.25 L 7.75 18.5 L 7.96 18.75 L 8.17 19.0 L 8.38 19.25 L 8.58 19.5 L 8.79 19.75 L 9.0 20.0" fill="none" stroke="#111" stroke-width="1.43" stroke-linecap="round" stroke-linejoin="round"/>
<path d="M 9.0 10.0 L 9.6 10.16 L 10.17 10.39 L 10.72 10.69 L 11.22 11.05 L 11.67 11.47 L 12.07 11.95 L 12.41 12.47 L 12.68 13.02 L 12.88 13.61 L 13.01 14.21 L 13.06 14.83 L 13.04 15.45 L 12.94 16.06 L 12.77 16.66 L 12.52 17.23 L 12.21 17.76 L 11.83 18.25 L 11.4 18.7 L 10.91 19.08 L 10.38 19.41 L 9.82 19.66 L 9.23 19.85 L 8.62 19.96 L 8.0 19.99 L 8.0 20.0 L 7.88 20.38 L 7.75 20.75 L 7.62 21.12 L 7.5 21.5 L 7.38 21.88 L 7.25 22.25 L 7.12 22.62 L 7.0 23.0 L 6.88 23.38 L 6.75 23.75 L 6.62 24.12 L 6.5 24.5 L 6.37 24.88 L 6.25 25.25 L 6.12 25.62 L 6.0 26.0 L 5.87 26.38 L 5.75 26.75 L 5.62 27.12 L 5.5 27.5 L 5.37 27.88 L 5.25 28.25 L 5.12 28.62 L 5.0 29.0" fill="none" stroke="#111" stroke-width="1.43" stroke-linecap="round" stroke-linejoin="round"/>
<path d="M 7.0 23.0 L 7.51 23.39 L 7.99 23.81 L 8.45 24.26 L 8.89 24.73 L 9.3 25.23 L 9.68 25.74 L 10.03 26.28 L 10.35 26.83 L 10.65 27.4 L 10.9 27.99 L 11.13 28.59 L 11.32 29.2 L 11.48 29.83 L 11.61 30.45 L 11.7 31.09 L 11.75 31.73 L 11.77 32.37 L 11.76 33.01 L 11.71 33.65 L 11.62 34.29 L 11.5 34.92 L 11.34 35.54 L 11.15 36.15 L 10.93 36.76" fill="none" stroke="#111" stroke-width="1.43" stroke-linecap="round" stroke-linejoin="round"/>
</svg>
