<?xml version="1.0" encoding="UTF-8"?>
<svg xmlns="http://www.w3.org/2000/svg" viewBox="0 0 19.74 33.00">
<path d="M 12.88 4.0 L 12.8 4.21 L 12.72 4.42 L 12.63 4.62 L 12.55 4.83 L 12.47 5.04 L 12.38 5.25 L 12.3 5.46 L 12.22 5.67 L 12.13 5.88 L 12.05 6.08 L 11.97 6.29 L 11.88 6.5 L 11.8 6.71 L 11.72 6.92 L 11.63 7.12 L 11.55 7.33 L 11.47 7.54 L 11.38 7.75 L 11.3 7.96 L 11.22 8.17 L 11.13 8.38 L 11.05 8.58 L 10.97 8.79 L 10.88 9.0 L 10.88 9.0 L 10.38 9.09 L 9.88 9.21 L 9.39 9.37 L 8.91 9.55 L 8.45 9.77 L 8.0 10.01 L 7.56 10.28 L 7.15 10.58 L 6.75 10.91 L 6.38 11.26 L 6.02 11.63 L 5.7 12.03 L 5.39 12.44 L 5.12 12.87 L 4.87 13.32 L 4.65 13.79 L 4.47 14.27 L 4.31 14.75 L 4.18 15.25 L 4.09 15.75 L 4.03 16.26 L 4.0 16.78 L 4.0 17.29 L 4.04 17.8" fill="none" stroke="#111" stroke-width="1.16" stroke-linecap="round" stroke-linejoin="round"/>
<path d="M 8.88 10.0 L 8.97 10.46 L 9.05 10.92 L 9.13 11.38 L 9.22 11.83 L 9.3 12.29 L 9.38 12.75 L 9.47 13.21 L 9.55 13.67 L 9.63 14.12 L 9.72 14.58 L 9.8 15.04 L 9.88 15.5 L 9.97 15.96 L 10.05 16.42 L 10.13 16.88 L 10.22 17.33 L 10.3 17.79 L 10.38 18.25 L 10.47 18.71 L 10.55 19.17 L 10.63 19.62 L 10.72 20.08 L 10.8 20.54 L 10.88 21.0" fill="none" stroke="#111" stroke-width="1.16" stroke-linecap="round" stroke-linejoin="round"/>
<path d="M 7.88 15.0 L 8.01 14.96 L 8.13 14.92 L 8.26 14.88 L 8.38 14.83 L 8.51 14.79 L 8.63 14.75 L 8.76 14.71 L 8.88 14.67 L 9.01 14.62 L 9.13 14.58 L 9.26 14.54 L 9.38 14.5 L 9.51 14.46 L 9.63 14.42 L 9.76 14.38 L 9.88 14.33 L 10.01 14.29 L 10.13 14.25 L 10.26 14.21 L 10.38 14.17 L 10.51 14.12 L 10.63 14.08 L 10.76 14.04 L 10.88 14.0" fill="none" stroke="#111" stroke-width="1.16" stroke-linecap="round" stroke-linejoin="round"/>
<path d="M 6.88 24.0 L 7.22 23.79 L 7.55 23.58 L 7.88 23.38 L 8.22 23.17 L 8.55 22.96 L 8.88 22.75 L 9.22 22.54 L 9.55 22.33 L 9.88 22.12 L 10.22 21.92 L 10.55 21.71 L 10.88 21.5 L 11.22 21.29 L 11.55 21.08 L 11.88 20.88 L 12.22 20.67 L 12.55 20.46 L 12.88 20.25 L 13.22 20.04 L 13.55 19.83 L 13.88 19.62 L 14.22 19.42 L 14.55 19.21 L 14.88 19.0" fill="none" stroke="#111" stroke-width="1.16" stroke-linecap="round" stroke-linejoin="round"/>
<path d="M 14.88 19.0 L 15.11 19.44 L 15.31 19.91 L 15.47 20.38 L 15.59 20.86 L 15.68 21.36 L 15.73 21.85 L 15.74 22.35 L 15.72 22.85 L 15.66 23.35 L 15.56 23.84 L 15.43 24.32 L 15.26 24.79 L 15.06 25.25 L 14.82 25.69 L 14.56 26.11 L 14.26 26.51 L 13.93 26.89 L 13.57 27.24 L 13.19 27.57 L 12.79 27.86 L 12.37 28.13 L 11.93 28.36 L 11.47 28.56 L 10.99 28.72 L 10.88 29.0 L 10.72 28.92 L 10.55 28.83 L 10.38 28.75 L 10.22 28.67 L 10.05 28.58 L 9.88 28.5 L 9.72 28.42 L 9.55 28.33 L 9.38 28.25 L 9.22 28.17 L 9.05 28.08 L 8.88 28.0 L 8.72 27.92 L 8.55 27.83 L 8.38 27.75 L 8.22 27.67 L 8.05 27.58 L 7.88 27.5 L 7.72 27.42 L 7.55 27.33 L 7.38 27.25 L 7.22 27.17 L 7.05 27.08 L 6.88 27.0 L 6.88 27.0 L 6.88 26.88 L 6.88 26.75 L 6.88 26.62 L 6.88 26.5 L 6.88 26.38 L 6.88 26.25 L 6.88 26.12 L 6.88 26.0 L 6.88 25.88 L 6.88 25.75 L 6.88 25.62 L 6.88 25.5 L 6.88 25.38 L 6.88 25.25 L 6.88 25.12 L 6.88 25.0 L 6.88 24.88 L 6.88 24.75 L 6.88 24.62 L 6.88 24.5 L 6.88 24.38 L 6.88 24.25 L 6.88 24.12 L 6.88 24.0" fill="none" stroke="#111" stroke-width="1.16" stroke-linecap="round" stroke-linejoin="round"/>
<path d="M 9.88 24.0 L 10.09 23.92 L 10.3 23.83 L 10.51 23.75 L 10.72 23.67 L 10.93 23.58 L 11.13 23.5 L 11.34 23.42 L 11.55 23.33 L 11.76 23.25 L 11.97 23.17 L 12.18 23.08 L 12.38 23.0 L 12.59 22.92 L 12.8 22.83 L 13.01 22.75 L 13.22 22.67 L 13.43 22.58 L 13.63 22.5 L 13.84 22.42 L 14.05 22.33 L 14.26 22.25 L 14.47 22.17 L 14.68 22.08 L 14.88 22.0" fill="none" stroke="#111" stroke-width="1.16" stroke-linecap="round" stroke-linejoin="round"/>
</svg>
