<?xml version="1.0" encoding="UTF-8"?>
<svg xmlns="http://www.w3.org/2000/svg" viewBox="0 0 21.27 35.64">
<path d="M 9.0 4.84 L 9.74 5.41 L 10.43 6.04 L 11.06 6.72 L 11.63 7.46 L 12.13 8.25 L 12.55 9.08 L 12.9 9.94 L 13.18 10.83 L 13.37 11.74 L 13.48 12.67 L 13.5 13.6 L 13.45 14.53 L 13.31 15.45 L 13.09 16.36 L 12.79 17.24 L 12.41 18.09 L 11.96 18.91 L 11.44 19.68 L 10.85 20.4 L 10.2 21.06 L 9.49 21.67 L 8.73 22.21 L 7.92 22.68 L 7.08 23.08 L 7.0 23.84 L 7.08 24.29 L 7.22 24.72 L 7.42 25.13 L 7.67 25.5 L 7.97 25.84 L 8.31 26.14 L 8.69 26.39 L 9.1 26.58 L 9.53 26.72 L 9.98 26.8 L 10.43 26.82 L 10.88 26.77 L 11.32 26.67 L 11.74 26.5 L 12.14 26.29 L 12.5 26.02 L 12.83 25.7 L 13.1 25.34 L 13.33 24.95 L 13.5 24.53 L 13.62 24.09 L 13.67 23.64 L 13.67 23.19 L 13.6 22.74 L 13.0 22.84 L 13.2 23.21 L 13.38 23.58 L 13.54 23.96 L 13.67 24.36 L 13.78 24.76 L 13.86 25.16 L 13.91 25.58 L 13.94 25.99 L 13.94 26.4 L 13.92 26.82 L 13.87 27.23 L 13.79 27.64 L 13.69 28.04 L 13.56 28.43 L 13.4 28.82 L 13.23 29.19 L 13.03 29.56 L 12.8 29.91 L 12.56 30.24 L 12.29 30.56 L 12.01 30.86 L 11.7 31.14 L 11.38 31.4 L 11.04 31.64" fill="none" stroke="#111" stroke-width="1.25" stroke-linecap="round" stroke-linejoin="round"/>
<path d="M 9.0 19.84 L 8.23 19.33 L 7.56 18.69 L 6.99 17.96 L 6.55 17.15 L 6.24 16.27 L 6.08 15.36 L 6.06 14.43 L 6.19 13.52 L 6.47 12.63 L 6.88 11.8 L 7.42 11.05 L 8.07 10.39 L 8.82 9.85 L 9.65 9.43 L 10.53 9.15 L 11.45 9.01 L 12.37 9.02 L 13.29 9.18 L 14.16 9.48 L 14.98 9.92 L 15.72 10.48 L 16.36 11.15 L 16.88 11.91 L 17.27 12.75" fill="none" stroke="#111" stroke-width="1.25" stroke-linecap="round" stroke-linejoin="round"/>
<path d="M 4.0 21.84 L 4.5 21.47 L 5.0 21.09 L 5.5 20.72 L 6.0 20.34 L 6.5 19.97 L 7.0 19.59 L 7.5 19.22 L 8.0 18.84 L 8.5 18.47 L 9.0 18.09 L 9.5 17.72 L 10.0 17.34 L 10.5 16.97 L 11.0 16.59 L 11.5 16.22 L 12.0 15.84 L 12.5 15.47 L 13.0 15.09 L 13.5 14.72 L 14.0 14.34 L 14.5 13.97 L 15.0 13.59 L 15.5 13.22 L 16.0 12.84" fill="none" stroke="#111" stroke-width="1.25" stroke-linecap="round" stroke-linejoin="round"/>
<path d="M 4.0 10.84 L 4.0 10.59 L 4.0 10.34 L 4.0 10.09 L 4.0 9.84 L 4.0 9.59 L 4.0 9.34 L 4.0 9.09 L 4.0 8.84 L 4.0 8.59 L 4.0 8.34 L 4.0 8.09 L 4.0 7.84 L 4.0 7.59 L 4.0 7.34 L 4.0 7.09 L 4.0 6.84 L 4.0 6.59 L 4.0 6.34 L 4.0 6.09 L 4.0 5.84 L 4.0 5.59 L 4.0 5.34 L 4.0 5.09 L 4.0 4.84 L 4.0 4.84 L 4.25 5.05 L 4.5 5.26 L 4.75 5.47 L 5.0 5.68 L 5.25 5.89 L 5.5 6.09 L 5.75 6.3 L 6.0 6.51 L 6.25 6.72 L 6.5 6.93 L 6.75 7.14 L 7.0 7.34 L 7.25 7.55 L 7.5 7.76 L 7.75 7.97 L 8.0 8.18 L 8.25 8.39 L 8.5 8.59 L 8.75 8.8 L 9.0 9.01 L 9.25 9.22 L 9.5 9.43 L 9.75 9.64 L 10.0 9.84" fill="none" stroke="#111" stroke-width="1.25" stroke-linecap="round" stroke-linejoin="round"/>
<path d="M 10.0 9.84 L 9.78 9.36 L 9.62 8.86 L 9.53 8.34 L 9.51 7.81 L 9.57 7.28 L 9.69 6.77 L 9.88 6.27 L 10.13 5.81 L 10.45 5.38 L 10.82 5.0 L 11.24 4.68 L 11.69 4.41 L 12.18 4.2 L 12.69 4.07 L 13.22 4.0 L 13.75 4.0 L 14.27 4.08 L 14.78 4.22 L 15.27 4.43 L 15.72 4.7 L 16.13 5.04 L 16.5 5.42 L 16.81 5.85 L 17.05 6.32" fill="none" stroke="#111" stroke-width="1.25" stroke-linecap="round" stroke-linejoin="round"/>
</svg>
