<?xml version="1.0" encoding="UTF-8"?>
<svg xmlns="http://www.w3.org/2000/svg" viewBox="0 0 24.00 32.00">
<path d="M 6.0 5.0 L 6.46 4.96 L 6.92 4.92 L 7.38 4.88 L 7.83 4.83 L 8.29 4.79 L 8.75 4.75 L 9.21 4.71 L 9.67 4.67 L 10.12 4.62 L 10.58 4.58 L 11.04 4.54 L 11.5 4.5 L 11.96 4.46 L 12.42 4.42 L 12.88 4.38 L 13.33 4.33 L 13.79 4.29 L 14.25 4.25 L 14.71 4.21 L 15.17 4.17 L 15.62 4.12 L 16.08 4.08 L 16.54 4.04 L 17.0 4.0" fill="none" stroke="#111" stroke-width="1.12" stroke-linecap="round" stroke-linejoin="round"/>
<path d="M 12.0 4.0 L 11.96 4.42 L 11.92 4.83 L 11.88 5.25 L 11.83 5.67 L 11.79 6.08 L 11.75 6.5 L 11.71 6.92 L 11.67 7.33 L 11.62 7.75 L 11.58 8.17 L 11.54 8.58 L 11.5 9.0 L 11.46 9.42 L 11.42 9.83 L 11.38 10.25 L 11.33 10.67 L 11.29 11.08 L 11.25 11.5 L 11.21 11.92 L 11.17 12.33 L 11.12 12.75 L 11.08 13.17 L 11.04 13.58 L 11.0 14.0" fill="none" stroke="#111" stroke-width="1.12" stroke-linecap="round" stroke-linejoin="round"/>
<path d="M 6.0 5.0 L 6.0 5.33 L 6.0 5.67 L 6.0 6.0 L 6.0 6.33 L 6.0 6.67 L 6.0 7.0 L 6.0 7.33 L 6.0 7.67 L 6.0 8.0 L 6.0 8.33 L 6.0 8.67 L 6.0 9.0 L 6.0 9.33 L 6.0 9.67 L 6.0 10.0 L 6.0 10.33 L 6.0 10.67 L 6.0 11.0 L 6.0 11.33 L 6.0 11.67 L 6.0 12.0 L 6.0 12.33 L 6.0 12.67 L 6.0 13.0" fill="none" stroke="#111" stroke-width="1.12" stroke-linecap="round" stroke-linejoin="round"/>
<path d="M 17.0 4.0 L 17.0 4.33 L 17.0 4.67 L 17.0 5.0 L 17.0 5.33 L 17.0 5.67 L 17.0 6.0 L 17.0 6.33 L 17.0 6.67 L 17.0 7.0 L 17.0 7.33 L 17.0 7.67 L 17.0 8.0 L 17.0 8.33 L 17.0 8.67 L 17.0 9.0 L 17.0 9.33 L 17.0 9.67 L 17.0 10.0 L 17.0 10.33 L 17.0 10.67 L 17.0 11.0 L 17.0 11.33 L 17.0 11.67 L 17.0 12.0" fill="none" stroke="#111" stroke-width="1.12" stroke-linecap="round" stroke-linejoin="round"/>
<path d="M 7.0 23.0 L 6.85 23.21 L 6.72 23.44 L 6.61 23.67 L 6.52 23.92 L 6.45 24.17 L 6.4 24.42 L 6.38 24.68 L 6.38 24.94 L 6.4 25.2 L 6.44 25.46 L 6.51 25.71 L 6.59 25.95 L 6.7 26.19 L 6.83 26.42 L 6.97 26.63 L 7.14 26.83 L 7.32 27.02 L 7.51 27.19 L 7.72 27.34 L 7.94 27.48 L 8.18 27.59 L 8.42 27.69 L 8.67 27.76 L 8.92 27.81 L 9.0 28.0 L 9.25 27.95 L 9.5 27.88 L 9.75 27.78 L 9.98 27.67 L 10.2 27.53 L 10.41 27.38 L 10.61 27.21 L 10.79 27.02 L 10.95 26.82 L 11.1 26.61 L 11.22 26.38 L 11.33 26.14 L 11.42 25.9 L 11.48 25.65 L 11.52 25.39 L 11.55 25.13 L 11.54 24.87 L 11.52 24.61 L 11.47 24.36 L 11.4 24.11 L 11.31 23.86 L 11.2 23.63 L 11.07 23.4 L 10.92 23.19" fill="none" stroke="#111" stroke-width="1.12" stroke-linecap="round" stroke-linejoin="round"/>
<path d="M 7.0 24.0 L 7.17 24.0 L 7.33 24.0 L 7.5 24.0 L 7.67 24.0 L 7.83 24.0 L 8.0 24.0 L 8.17 24.0 L 8.33 24.0 L 8.5 24.0 L 8.67 24.0 L 8.83 24.0 L 9.0 24.0 L 9.17 24.0 L 9.33 24.0 L 9.5 24.0 L 9.67 24.0 L 9.83 24.0 L 10.0 24.0 L 10.17 24.0 L 10.33 24.0 L 10.5 24.0 L 10.67 24.0 L 10.83 24.0 L 11.0 24.0" fill="none" stroke="#111" stroke-width="1.12" stroke-linecap="round" stroke-linejoin="round"/>
<path d="M 9.0 18.0 L 9.0 18.12 L 9.0 18.25 L 9.0 18.38 L 9.0 18.5 L 9.0 18.62 L 9.0 18.75 L 9.0 18.88 L 9.0 19.0 L 9.0 19.12 L 9.0 19.25 L 9.0 19.38 L 9.0 19.5 L 9.0 19.62 L 9.0 19.75 L 9.0 19.88 L 9.0 20.0 L 9.0 20.12 L 9.0 20.25 L 9.0 20.38 L 9.0 20.5 L 9.0 20.62 L 9.0 20.75 L 9.0 20.88 L 9.0 21.0" fill="none" stroke="#111" stroke-width="1.12" stroke-linecap="round" stroke-linejoin="round"/>
<path d="M 14.0 23.0 L 14.0 23.17 L 14.0 23.33 L 14.0 23.5 L 14.0 23.67 L 14.0 23.83 L 14.0 24.0 L 14.0 24.17 L 14.0 24.33 L 14.0 24.5 L 14.0 24.67 L 14.0 24.83 L 14.0 25.0 L 14.0 25.17 L 14.0 25.33 L 14.0 25.5 L 14.0 25.67 L 14.0 25.83 L 14.0 26.0 L 14.0 26.17 L 14.0 26.33 L 14.0 26.5 L 14.0 26.67 L 14.0 26.83 L 14.0 27.0 L 14.0 27.0 L 14.17 26.96 L 14.33 26.92 L 14.5 26.88 L 14.67 26.83 L 14.83 26.79 L 15.0 26.75 L 15.17 26.71 L 15.33 26.67 L 15.5 26.62 L 15.67 26.58 L 15.83 26.54 L 16.0 26.5 L 16.17 26.46 L 16.33 26.42 L 16.5 26.38 L 16.67 26.33 L 16.83 26.29 L 17.0 26.25 L 17.17 26.21 L 17.33 26.17 L 17.5 26.12 L 17.67 26.08 L 17.83 26.04 L 18.0 26.0 L 18.0 26.0 L 17.96 25.83 L 17.92 25.67 L 17.88 25.5 L 17.83 25.33 L 17.79 25.17 L 17.75 25.0 L 17.71 24.83 L 17.67 24.67 L 17.62 24.5 L 17.58 24.33 L 17.54 24.17 L 17.5 24.0 L 17.46 23.83 L 17.42 23.67 L 17.38 23.5 L 17.33 23.33 L 17.29 23.17 L 17.25 23.0 L 17.21 22.83 L 17.17 22.67 L 17.12 22.5 L 17.08 22.33 L 17.04 22.17 L 17.0 22.0" fill="none" stroke="#111" stroke-width="1.12" stroke-linecap="round" stroke-linejoin="round"/>
<path d="M 14.0 24.0 L 14.12 23.96 L 14.25 23.92 L 14.38 23.88 L 14.5 23.83 L 14.62 23.79 L 14.75 23.75 L 14.88 23.71 L 15.0 23.67 L 15.12 23.62 L 15.25 23.58 L 15.38 23.54 L 15.5 23.5 L 15.62 23.46 L 15.75 23.42 L 15.88 23.38 L 16.0 23.33 L 16.12 23.29 L 16.25 23.25 L 16.38 23.21 L 16.5 23.17 L 16.62 23.12 L 16.75 23.08 L 16.88 23.04 L 17.0 23.0" fill="none" stroke="#111" stroke-width="1.12" stroke-linecap="round" stroke-linejoin="round"/>
<path d="M 15.0 19.0 L 15.04 19.12 L 15.08 19.25 L 15.12 19.38 L 15.17 19.5 L 15.21 19.62 L 15.25 19.75 L 15.29 19.88 L 15.33 20.0 L 15.38 20.12 L 15.42 20.25 L 15.46 20.38 L 15.5 20.5 L 15.54 20.62 L 15.58 20.75 L 15.62 20.88 L 15.67 21.0 L 15.71 21.12 L 15.75 21.25 L 15.79 21.38 L 15.83 21.5 L 15.88 21.62 L 15.92 21.75 L 15.96 21.88 L 16.0 22.0" fill="none" stroke="#111" stroke-width="1.12" stroke-linecap="round" stroke-linejoin="round"/>
<path d="M 19.0 21.0 L 19.04 21.17 L 19.08 21.33 L 19.12 21.5 L 19.17 21.67 L 19.21 21.83 L 19.25 22.0 L 19.29 22.17 L 19.33 22.33 L 19.38 22.5 L 19.42 22.67 L 19.46 22.83 L 19.5 23.0 L 19.54 23.17 L 19.58 23.33 L 19.62 23.5 L 19.67 23.67 L 19.71 23.83 L 19.75 24.0 L 19.79 24.17 L 19.83 24.33 L 19.88 24.5 L 19.92 24.67 L 19.96 24.83 L 20.0 25.0" fill="none" stroke="#111" stroke-width="1.12" stroke-linecap="round" stroke-linejoin="round"/>
<path d="M 4.0 24.0 L 4.04 24.17 L 4.08 24.33 L 4.12 24.5 L 4.17 24.67 L 4.21 24.83 L 4.25 25.0 L 4.29 25.17 L 4.33 25.33 L 4.38 25.5 L 4.42 25.67 L 4.46 25.83 L 4.5 26.0 L 4.54 26.17 L 4.58 26.33 L 4.62 26.5 L 4.67 26.67 L 4.71 26.83 L 4.75 27.0 L 4.79 27.17 L 4.83 27.33 L 4.88 27.5 L 4.92 27.67 L 4.96 27.83 L 5.0 28.0" fill="none" stroke="#111" stroke-width="1.12" stroke-linecap="round" stroke-linejoin="round"/>
</svg>
