<?xml version="1.0" encoding="UTF-8"?>
<svg xmlns="http://www.w3.org/2000/svg" viewBox="0 0 39.44 30.85">
<path d="M 20.0 15.85 L 19.25 13.57 L 19.19 11.18 L 19.82 8.87 L 21.1 6.84 L 22.91 5.27 L 25.1 4.3 L 27.48 4.0 L 29.84 4.4 L 31.99 5.48 L 33.73 7.12 L 34.91 9.21 L 35.44 11.54 L 35.28 13.93 L 34.42 16.17 L 32.95 18.07 L 31.0 19.45 L 28.73 20.22 L 26.33 20.28 L 24.02 19.66 L 21.99 18.38 L 20.42 16.58 L 19.43 14.39 L 19.13 12.01 L 19.52 9.65" fill="none" stroke="#111" stroke-width="1.38" stroke-linecap="round" stroke-linejoin="round"/>
<path d="M 22.0 6.85 L 21.65 6.62 L 21.28 6.45 L 20.89 6.32 L 20.48 6.24 L 20.07 6.22 L 19.65 6.25 L 19.25 6.34 L 18.86 6.48 L 18.49 6.66 L 18.15 6.9 L 17.84 7.17 L 17.57 7.49 L 17.35 7.83 L 17.17 8.21 L 17.04 8.6 L 16.96 9.01 L 16.94 9.42 L 16.97 9.83 L 17.06 10.24 L 17.19 10.63 L 17.38 11.0 L 17.61 11.34 L 17.89 11.65 L 18.2 11.92" fill="none" stroke="#111" stroke-width="1.38" stroke-linecap="round" stroke-linejoin="round"/>
<path d="M 16.0 8.85 L 16.0 9.6 L 16.0 10.35 L 16.0 11.1 L 16.0 11.85 L 16.0 12.6 L 16.0 13.35 L 16.0 14.1 L 16.0 14.85 L 16.0 15.6 L 16.0 16.35 L 16.0 17.1 L 16.0 17.85 L 16.0 18.6 L 16.0 19.35 L 16.0 20.1 L 16.0 20.85 L 16.0 21.6 L 16.0 22.35 L 16.0 23.1 L 16.0 23.85 L 16.0 24.6 L 16.0 25.35 L 16.0 26.1 L 16.0 26.85 L 16.0 26.85 L 16.17 26.77 L 16.33 26.68 L 16.5 26.6 L 16.67 26.52 L 16.83 26.43 L 17.0 26.35 L 17.17 26.27 L 17.33 26.18 L 17.5 26.1 L 17.67 26.02 L 17.83 25.93 L 18.0 25.85 L 18.17 25.77 L 18.33 25.68 L 18.5 25.6 L 18.67 25.52 L 18.83 25.43 L 19.0 25.35 L 19.17 25.27 L 19.33 25.18 L 19.5 25.1 L 19.67 25.02 L 19.83 24.93 L 20.0 24.85" fill="none" stroke="#111" stroke-width="1.38" stroke-linecap="round" stroke-linejoin="round"/>
<path d="M 16.0 19.85 L 16.17 19.85 L 16.33 19.85 L 16.5 19.85 L 16.67 19.85 L 16.83 19.85 L 17.0 19.85 L 17.17 19.85 L 17.33 19.85 L 17.5 19.85 L 17.67 19.85 L 17.83 19.85 L 18.0 19.85 L 18.17 19.85 L 18.33 19.85 L 18.5 19.85 L 18.67 19.85 L 18.83 19.85 L 19.0 19.85 L 19.17 19.85 L 19.33 19.85 L 19.5 19.85 L 19.67 19.85 L 19.83 19.85 L 20.0 19.85" fill="none" stroke="#111" stroke-width="1.38" stroke-linecap="round" stroke-linejoin="round"/>
<path d="M 13.0 12.85 L 13.25 12.85 L 13.5 12.85 L 13.75 12.85 L 14.0 12.85 L 14.25 12.85 L 14.5 12.85 L 14.75 12.85 L 15.0 12.85 L 15.25 12.85 L 15.5 12.85 L 15.75 12.85 L 16.0 12.85 L 16.25 12.85 L 16.5 12.85 L 16.75 12.85 L 17.0 12.85 L 17.25 12.85 L 17.5 12.85 L 17.75 12.85 L 18.0 12.85 L 18.25 12.85 L 18.5 12.85 L 18.75 12.85 L 19.0 12.85" fill="none" stroke="#111" stroke-width="1.38" stroke-linecap="round" stroke-linejoin="round"/>
<path d="M 4.0 8.85 L 4.0 9.1 L 4.0 9.35 L 4.0 9.6 L 4.0 9.85 L 4.0 10.1 L 4.0 10.35 L 4.0 10.6 L 4.0 10.85 L 4.0 11.1 L 4.0 11.35 L 4.0 11.6 L 4.0 11.85 L 4.0 12.1 L 4.0 12.35 L 4.0 12.6 L 4.0 12.85 L 4.0 13.1 L 4.0 13.35 L 4.0 13.6 L 4.0 13.85 L 4.0 14.1 L 4.0 14.35 L 4.0 14.6 L 4.0 14.85 L 4.0 14.85 L 4.25 14.85 L 4.5 14.85 L 4.75 14.85 L 5.0 14.85 L 5.25 14.85 L 5.5 14.85 L 5.75 14.85 L 6.0 14.85 L 6.25 14.85 L 6.5 14.85 L 6.75 14.85 L 7.0 14.85 L 7.25 14.85 L 7.5 14.85 L 7.75 14.85 L 8.0 14.85 L 8.25 14.85 L 8.5 14.85 L 8.75 14.85 L 9.0 14.85 L 9.25 14.85 L 9.5 14.85 L 9.75 14.85 L 10.0 14.85 L 10.0 14.85 L 10.0 14.56 L 10.0 14.27 L 10.0 13.97 L 10.0 13.68 L 10.0 13.39 L 10.0 13.1 L 10.0 12.81 L 10.0 12.52 L 10.0 12.22 L 10.0 11.93 L 10.0 11.64 L 10.0 11.35 L 10.0 11.06 L 10.0 10.77 L 10.0 10.47 L 10.0 10.18 L 10.0 9.89 L 10.0 9.6 L 10.0 9.31 L 10.0 9.02 L 10.0 8.72 L 10.0 8.43 L 10.0 8.14 L 10.0 7.85 L 10.0 7.85 L 9.75 7.89 L 9.5 7.93 L 9.25 7.97 L 9.0 8.02 L 8.75 8.06 L 8.5 8.1 L 8.25 8.14 L 8.0 8.18 L 7.75 8.22 L 7.5 8.27 L 7.25 8.31 L 7.0 8.35 L 6.75 8.39 L 6.5 8.43 L 6.25 8.47 L 6.0 8.52 L 5.75 8.56 L 5.5 8.6 L 5.25 8.64 L 5.0 8.68 L 4.75 8.72 L 4.5 8.77 L 4.25 8.81 L 4.0 8.85" fill="none" stroke="#111" stroke-width="1.38" stroke-linecap="round" stroke-linejoin="round"/>
<path d="M 4.0 10.85 L 4.17 10.85 L 4.33 10.85 L 4.5 10.85 L 4.67 10.85 L 4.83 10.85 L 5.0 10.85 L 5.17 10.85 L 5.33 10.85 L 5.5 10.85 L 5.67 10.85 L 5.83 10.85 L 6.0 10.85 L 6.17 10.85 L 6.33 10.85 L 6.5 10.85 L 6.67 10.85 L 6.83 10.85 L 7.0 10.85 L 7.17 10.85 L 7.33 10.85 L 7.5 10.85 L 7.67 10.85 L 7.83 10.85 L 8.0 10.85" fill="none" stroke="#111" stroke-width="1.38" stroke-linecap="round" stroke-linejoin="round"/>
</svg>
