<?xml version="1.0" encoding="UTF-8"?>
<svg xmlns="http://www.w3.org/2000/svg" viewBox="0 0 25.00 45.58">
<path d="M 4.0 15.0 L 4.33 14.54 L 4.67 14.08 L 5.0 13.62 L 5.33 13.17 L 5.67 12.71 L 6.0 12.25 L 6.33 11.79 L 6.67 11.33 L 7.0 10.88 L 7.33 10.42 L 7.67 9.96 L 8.0 9.5 L 8.33 9.04 L 8.67 8.58 L 9.0 8.12 L 9.33 7.67 L 9.67 7.21 L 10.0 6.75 L 10.33 6.29 L 10.67 5.83 L 11.0 5.38 L 11.33 4.92 L 11.67 4.46 L 12.0 4.0 L 12.0 4.0 L 12.38 4.38 L 12.75 4.75 L 13.12 5.12 L 13.5 5.5 L 13.88 5.88 L 14.25 6.25 L 14.62 6.62 L 15.0 7.0 L 15.38 7.38 L 15.75 7.75 L 16.12 8.12 L 16.5 8.5 L 16.88 8.88 L 17.25 9.25 L 17.62 9.62 L 18.0 10.0 L 18.38 10.38 L 18.75 10.75 L 19.12 11.12 L 19.5 11.5 L 19.88 11.88 L 20.25 12.25 L 20.62 12.62 L 21.0 13.0" fill="none" stroke="#111" stroke-width="1.60" stroke-linecap="round" stroke-linejoin="round"/>
<path d="M 7.0 11.0 L 7.46 10.92 L 7.92 10.83 L 8.38 10.75 L 8.83 10.67 L 9.29 10.58 L 9.75 10.5 L 10.21 10.42 L 10.67 10.33 L 11.12 10.25 L 11.58 10.17 L 12.04 10.08 L 12.5 10.0 L 12.96 9.92 L 13.42 9.83 L 13.88 9.75 L 14.33 9.67 L 14.79 9.58 L 15.25 9.5 L 15.71 9.42 L 16.17 9.33 L 16.62 9.25 L 17.08 9.17 L 17.54 9.08 L 18.0 9.0" fill="none" stroke="#111" stroke-width="1.60" stroke-linecap="round" stroke-linejoin="round"/>
<path d="M 12.0 14.0 L 12.12 14.46 L 12.25 14.92 L 12.38 15.38 L 12.5 15.83 L 12.62 16.29 L 12.75 16.75 L 12.88 17.21 L 13.0 17.67 L 13.12 18.12 L 13.25 18.58 L 13.38 19.04 L 13.5 19.5 L 13.62 19.96 L 13.75 20.42 L 13.88 20.88 L 14.0 21.33 L 14.12 21.79 L 14.25 22.25 L 14.38 22.71 L 14.5 23.17 L 14.62 23.62 L 14.75 24.08 L 14.88 24.54 L 15.0 25.0 L 15.0 25.0 L 14.49 24.94 L 13.97 24.93 L 13.45 24.95 L 12.94 25.02 L 12.43 25.12 L 11.93 25.27 L 11.45 25.45 L 10.98 25.67 L 10.53 25.92 L 10.1 26.21 L 9.69 26.53 L 9.31 26.88 L 8.96 27.26 L 8.64 27.67 L 8.35 28.1 L 8.09 28.55 L 7.87 29.02 L 7.69 29.5 L 7.55 30.0 L 7.44 30.51 L 7.38 31.02 L 7.36 31.54 L 7.37 32.06 L 7.43 32.57 L 7.0 33.0 L 7.65 32.54 L 8.34 32.16 L 9.07 31.86 L 9.83 31.64 L 10.61 31.51 L 11.4 31.47 L 12.18 31.52 L 12.96 31.65 L 13.72 31.87 L 14.45 32.17 L 15.14 32.56 L 15.79 33.02 L 16.37 33.54 L 16.9 34.13 L 17.36 34.78 L 17.74 35.47 L 18.04 36.2 L 18.26 36.96 L 18.39 37.74 L 18.43 38.53 L 18.39 39.32 L 18.25 40.1 L 18.03 40.85 L 17.73 41.58" fill="none" stroke="#111" stroke-width="1.60" stroke-linecap="round" stroke-linejoin="round"/>
<path d="M 12.0 17.0 L 11.88 17.5 L 11.75 18.0 L 11.62 18.5 L 11.5 19.0 L 11.38 19.5 L 11.25 20.0 L 11.12 20.5 L 11.0 21.0 L 10.88 21.5 L 10.75 22.0 L 10.62 22.5 L 10.5 23.0 L 10.38 23.5 L 10.25 24.0 L 10.12 24.5 L 10.0 25.0 L 9.88 25.5 L 9.75 26.0 L 9.62 26.5 L 9.5 27.0 L 9.38 27.5 L 9.25 28.0 L 9.12 28.5 L 9.0 29.0" fill="none" stroke="#111" stroke-width="1.60" stroke-linecap="round" stroke-linejoin="round"/>
</svg>
