<?xml version="1.0" encoding="UTF-8"?>
<svg xmlns="http://www.w3.org/2000/svg" viewBox="0 0 20.00 36.81">
<path d="M 10.0 5.0 L 10.0 5.62 L 10.0 6.25 L 10.0 6.88 L 10.0 7.5 L 10.0 8.12 L 10.0 8.75 L 10.0 9.38 L 10.0 10.0 L 10.0 10.62 L 10.0 11.25 L 10.0 11.88 L 10.0 12.5 L 10.0 13.12 L 10.0 13.75 L 10.0 14.38 L 10.0 15.0 L 10.0 15.62 L 10.0 16.25 L 10.0 16.88 L 10.0 17.5 L 10.0 18.12 L 10.0 18.75 L 10.0 19.38 L 10.0 20.0" fill="none" stroke="#111" stroke-width="1.29" stroke-linecap="round" stroke-linejoin="round"/>
<path d="M 5.0 5.0 L 5.21 5.21 L 5.42 5.42 L 5.62 5.62 L 5.83 5.83 L 6.04 6.04 L 6.25 6.25 L 6.46 6.46 L 6.67 6.67 L 6.88 6.88 L 7.08 7.08 L 7.29 7.29 L 7.5 7.5 L 7.71 7.71 L 7.92 7.92 L 8.12 8.12 L 8.33 8.33 L 8.54 8.54 L 8.75 8.75 L 8.96 8.96 L 9.17 9.17 L 9.38 9.38 L 9.58 9.58 L 9.79 9.79 L 10.0 10.0 L 10.0 10.0 L 10.21 9.75 L 10.42 9.5 L 10.62 9.25 L 10.83 9.0 L 11.04 8.75 L 11.25 8.5 L 11.46 8.25 L 11.67 8.0 L 11.88 7.75 L 12.08 7.5 L 12.29 7.25 L 12.5 7.0 L 12.71 6.75 L 12.92 6.5 L 13.12 6.25 L 13.33 6.0 L 13.54 5.75 L 13.75 5.5 L 13.96 5.25 L 14.17 5.0 L 14.38 4.75 L 14.58 4.5 L 14.79 4.25 L 15.0 4.0" fill="none" stroke="#111" stroke-width="1.29" stroke-linecap="round" stroke-linejoin="round"/>
<path d="M 4.0 18.0 L 4.13 17.33 L 4.34 16.69 L 4.62 16.07 L 4.96 15.48 L 5.37 14.94 L 5.83 14.45 L 6.35 14.01 L 6.92 13.63 L 7.52 13.32 L 8.16 13.08 L 8.81 12.91 L 9.48 12.82 L 10.16 12.8 L 10.84 12.86 L 11.5 12.99 L 12.15 13.2 L 12.77 13.48 L 13.35 13.82 L 13.9 14.23 L 14.39 14.7 L 14.82 15.22 L 15.2 15.78 L 15.51 16.39 L 15.75 17.02" fill="none" stroke="#111" stroke-width="1.29" stroke-linecap="round" stroke-linejoin="round"/>
<path d="M 9.0 19.0 L 9.0 19.54 L 9.0 20.08 L 9.0 20.62 L 9.0 21.17 L 9.0 21.71 L 9.0 22.25 L 9.0 22.79 L 9.0 23.33 L 9.0 23.88 L 9.0 24.42 L 9.0 24.96 L 9.0 25.5 L 9.0 26.04 L 9.0 26.58 L 9.0 27.12 L 9.0 27.67 L 9.0 28.21 L 9.0 28.75 L 9.0 29.29 L 9.0 29.83 L 9.0 30.38 L 9.0 30.92 L 9.0 31.46 L 9.0 32.0" fill="none" stroke="#111" stroke-width="1.29" stroke-linecap="round" stroke-linejoin="round"/>
<path d="M 9.0 19.0 L 8.83 19.21 L 8.67 19.42 L 8.5 19.62 L 8.33 19.83 L 8.17 20.04 L 8.0 20.25 L 7.83 20.46 L 7.67 20.67 L 7.5 20.88 L 7.33 21.08 L 7.17 21.29 L 7.0 21.5 L 6.83 21.71 L 6.67 21.92 L 6.5 22.12 L 6.33 22.33 L 6.17 22.54 L 6.0 22.75 L 5.83 22.96 L 5.67 23.17 L 5.5 23.38 L 5.33 23.58 L 5.17 23.79 L 5.0 24.0 L 5.0 24.0 L 5.17 24.25 L 5.33 24.5 L 5.5 24.75 L 5.67 25.0 L 5.83 25.25 L 6.0 25.5 L 6.17 25.75 L 6.33 26.0 L 6.5 26.25 L 6.67 26.5 L 6.83 26.75 L 7.0 27.0 L 7.17 27.25 L 7.33 27.5 L 7.5 27.75 L 7.67 28.0 L 7.83 28.25 L 8.0 28.5 L 8.17 28.75 L 8.33 29.0 L 8.5 29.25 L 8.67 29.5 L 8.83 29.75 L 9.0 30.0" fill="none" stroke="#111" stroke-width="1.29" stroke-linecap="round" stroke-linejoin="round"/>
<path d="M 12.0 18.0 L 11.81 18.61 L 11.64 19.24 L 11.49 19.86 L 11.37 20.5 L 11.27 21.13 L 11.19 21.77 L 11.14 22.42 L 11.12 23.06 L 11.12 23.71 L 11.14 24.35 L 11.19 24.99 L 11.26 25.63 L 11.36 26.27 L 11.48 26.9 L 11.63 27.53 L 11.8 28.15 L 11.99 28.77 L 12.21 29.38 L 12.45 29.97 L 12.71 30.56 L 12.99 31.14 L 13.3 31.71 L 13.63 32.27 L 13.97 32.81" fill="none" stroke="#111" stroke-width="1.29" stroke-linecap="round" stroke-linejoin="round"/>
<path d="M 12.0 21.0 L 12.17 21.17 L 12.33 21.33 L 12.5 21.5 L 12.67 21.67 L 12.83 21.83 L 13.0 22.0 L 13.17 22.17 L 13.33 22.33 L 13.5 22.5 L 13.67 22.67 L 13.83 22.83 L 14.0 23.0 L 14.17 23.17 L 14.33 23.33 L 14.5 23.5 L 14.67 23.67 L 14.83 23.83 L 15.0 24.0 L 15.17 24.17 L 15.33 24.33 L 15.5 24.5 L 15.67 24.67 L 15.83 24.83 L 16.0 25.0 L 16.0 25.0 L 15.83 25.12 L 15.67 25.25 L 15.5 25.38 L 15.33 25.5 L 15.17 25.62 L 15.0 25.75 L 14.83 25.88 L 14.67 26.0 L 14.5 26.12 L 14.33 26.25 L 14.17 26.38 L 14.0 26.5 L 13.83 26.62 L 13.67 26.75 L 13.5 26.88 L 13.33 27.0 L 13.17 27.12 L 13.0 27.25 L 12.83 27.38 L 12.67 27.5 L 12.5 27.62 L 12.33 27.75 L 12.17 27.88 L 12.0 28.0" fill="none" stroke="#111" stroke-width="1.29" stroke-linecap="round" stroke-linejoin="round"/>
</svg>
