<?xml version="1.0" encoding="UTF-8"?>
<svg xmlns="http://www.w3.org/2000/svg" viewBox="0 0 18.78 36.00">
<path d="M 6.78 18.0 L 7.11 18.0 L 7.45 18.0 L 7.78 18.0 L 8.11 18.0 L 8.45 18.0 L 8.78 18.0 L 9.11 18.0 L 9.45 18.0 L 9.78 18.0 L 10.11 18.0 L 10.45 18.0 L 10.78 18.0 L 11.11 18.0 L 11.45 18.0 L 11.78 18.0 L 12.11 18.0 L 12.45 18.0 L 12.78 18.0 L 13.11 18.0 L 13.45 18.0 L 13.78 18.0 L 14.11 18.0 L 14.45 18.0 L 14.78 18.0" fill="none" stroke="#111" stroke-width="1.26" stroke-linecap="round" stroke-linejoin="round"/>
<path d="M 6.78 18.0 L 6.7 18.12 L 6.61 18.25 L 6.53 18.38 L 6.45 18.5 L 6.36 18.62 L 6.28 18.75 L 6.2 18.88 L 6.11 19.0 L 6.03 19.12 L 5.95 19.25 L 5.86 19.38 L 5.78 19.5 L 5.7 19.62 L 5.61 19.75 L 5.53 19.88 L 5.45 20.0 L 5.36 20.12 L 5.28 20.25 L 5.2 20.38 L 5.11 20.5 L 5.03 20.62 L 4.95 20.75 L 4.86 20.88 L 4.78 21.0 L 4.78 21.0 L 5.08 21.41 L 5.42 21.79 L 5.79 22.14 L 6.19 22.45 L 6.62 22.73 L 7.07 22.96 L 7.54 23.16 L 8.03 23.31 L 8.52 23.42 L 9.03 23.48 L 9.54 23.5 L 10.04 23.47 L 10.55 23.4 L 11.04 23.28 L 11.52 23.12 L 11.99 22.91 L 12.44 22.67 L 12.86 22.38 L 13.25 22.06 L 13.62 21.71 L 13.95 21.32 L 14.24 20.91 L 14.5 20.47 L 14.71 20.01 L 14.78 20.0 L 14.74 19.92 L 14.7 19.83 L 14.66 19.75 L 14.61 19.67 L 14.57 19.58 L 14.53 19.5 L 14.49 19.42 L 14.45 19.33 L 14.41 19.25 L 14.36 19.17 L 14.32 19.08 L 14.28 19.0 L 14.24 18.92 L 14.2 18.83 L 14.16 18.75 L 14.11 18.67 L 14.07 18.58 L 14.03 18.5 L 13.99 18.42 L 13.95 18.33 L 13.91 18.25 L 13.86 18.17 L 13.82 18.08 L 13.78 18.0 L 13.78 18.0 L 13.78 18.0 L 13.78 18.0 L 13.78 18.0 L 13.78 18.0 L 13.78 18.0 L 13.78 18.0 L 13.78 18.0 L 13.78 18.0 L 13.78 18.0 L 13.78 18.0 L 13.78 18.0 L 13.78 18.0 L 13.78 18.0 L 13.78 18.0 L 13.78 18.0 L 13.78 18.0 L 13.78 18.0 L 13.78 18.0 L 13.78 18.0 L 13.78 18.0 L 13.78 18.0 L 13.78 18.0 L 13.78 18.0 L 13.78 18.0" fill="none" stroke="#111" stroke-width="1.26" stroke-linecap="round" stroke-linejoin="round"/>
<path d="M 4.78 21.0 L 5.2 20.96 L 5.61 20.92 L 6.03 20.88 L 6.45 20.83 L 6.86 20.79 L 7.28 20.75 L 7.7 20.71 L 8.11 20.67 L 8.53 20.62 L 8.95 20.58 L 9.36 20.54 L 9.78 20.5 L 10.2 20.46 L 10.61 20.42 L 11.03 20.38 L 11.45 20.33 L 11.86 20.29 L 12.28 20.25 L 12.7 20.21 L 13.11 20.17 L 13.53 20.12 L 13.95 20.08 L 14.36 20.04 L 14.78 20.0" fill="none" stroke="#111" stroke-width="1.26" stroke-linecap="round" stroke-linejoin="round"/>
<path d="M 9.78 18.0 L 9.78 18.21 L 9.78 18.42 L 9.78 18.62 L 9.78 18.83 L 9.78 19.04 L 9.78 19.25 L 9.78 19.46 L 9.78 19.67 L 9.78 19.88 L 9.78 20.08 L 9.78 20.29 L 9.78 20.5 L 9.78 20.71 L 9.78 20.92 L 9.78 21.12 L 9.78 21.33 L 9.78 21.54 L 9.78 21.75 L 9.78 21.96 L 9.78 22.17 L 9.78 22.38 L 9.78 22.58 L 9.78 22.79 L 9.78 23.0" fill="none" stroke="#111" stroke-width="1.26" stroke-linecap="round" stroke-linejoin="round"/>
<path d="M 7.78 23.0 L 7.78 23.38 L 7.78 23.75 L 7.78 24.12 L 7.78 24.5 L 7.78 24.88 L 7.78 25.25 L 7.78 25.62 L 7.78 26.0 L 7.78 26.38 L 7.78 26.75 L 7.78 27.12 L 7.78 27.5 L 7.78 27.88 L 7.78 28.25 L 7.78 28.62 L 7.78 29.0 L 7.78 29.38 L 7.78 29.75 L 7.78 30.12 L 7.78 30.5 L 7.78 30.88 L 7.78 31.25 L 7.78 31.62 L 7.78 32.0" fill="none" stroke="#111" stroke-width="1.26" stroke-linecap="round" stroke-linejoin="round"/>
<path d="M 12.78 23.0 L 12.78 23.38 L 12.78 23.75 L 12.78 24.12 L 12.78 24.5 L 12.78 24.88 L 12.78 25.25 L 12.78 25.62 L 12.78 26.0 L 12.78 26.38 L 12.78 26.75 L 12.78 27.12 L 12.78 27.5 L 12.78 27.88 L 12.78 28.25 L 12.78 28.62 L 12.78 29.0 L 12.78 29.38 L 12.78 29.75 L 12.78 30.12 L 12.78 30.5 L 12.78 30.88 L 12.78 31.25 L 12.78 31.62 L 12.78 32.0" fill="none" stroke="#111" stroke-width="1.26" stroke-linecap="round" stroke-linejoin="round"/>
<path d="M 10.78 23.0 L 10.66 23.17 L 10.53 23.33 L 10.41 23.5 L 10.28 23.67 L 10.16 23.83 L 10.03 24.0 L 9.91 24.17 L 9.78 24.33 L 9.66 24.5 L 9.53 24.67 L 9.41 24.83 L 9.28 25.0 L 9.16 25.17 L 9.03 25.33 L 8.91 25.5 L 8.78 25.67 L 8.66 25.83 L 8.53 26.0 L 8.41 26.17 L 8.28 26.33 L 8.16 26.5 L 8.03 26.67 L 7.91 26.83 L 7.78 27.0" fill="none" stroke="#111" stroke-width="1.26" stroke-linecap="round" stroke-linejoin="round"/>
<path d="M 10.78 23.0 L 10.86 23.21 L 10.95 23.42 L 11.03 23.62 L 11.11 23.83 L 11.2 24.04 L 11.28 24.25 L 11.36 24.46 L 11.45 24.67 L 11.53 24.88 L 11.61 25.08 L 11.7 25.29 L 11.78 25.5 L 11.86 25.71 L 11.95 25.92 L 12.03 26.12 L 12.11 26.33 L 12.2 26.54 L 12.28 26.75 L 12.36 26.96 L 12.45 27.17 L 12.53 27.38 L 12.61 27.58 L 12.7 27.79 L 12.78 28.0" fill="none" stroke="#111" stroke-width="1.26" stroke-linecap="round" stroke-linejoin="round"/>
<path d="M 7.78 11.0 L 8.03 11.0 L 8.28 11.0 L 8.53 11.0 L 8.78 11.0 L 9.03 11.0 L 9.28 11.0 L 9.53 11.0 L 9.78 11.0 L 10.03 11.0 L 10.28 11.0 L 10.53 11.0 L 10.78 11.0 L 11.03 11.0 L 11.28 11.0 L 11.53 11.0 L 11.78 11.0 L 12.03 11.0 L 12.28 11.0 L 12.53 11.0 L 12.78 11.0 L 13.03 11.0 L 13.28 11.0 L 13.53 11.0 L 13.78 11.0" fill="none" stroke="#111" stroke-width="1.26" stroke-linecap="round" stroke-linejoin="round"/>
<path d="M 8.78 6.0 L 8.86 5.92 L 8.95 5.83 L 9.03 5.75 L 9.11 5.67 L 9.2 5.58 L 9.28 5.5 L 9.36 5.42 L 9.45 5.33 L 9.53 5.25 L 9.61 5.17 L 9.7 5.08 L 9.78 5.0 L 9.86 4.92 L 9.95 4.83 L 10.03 4.75 L 10.11 4.67 L 10.2 4.58 L 10.28 4.5 L 10.36 4.42 L 10.45 4.33 L 10.53 4.25 L 10.61 4.17 L 10.7 4.08 L 10.78 4.0 L 10.78 4.0 L 10.78 4.54 L 10.78 5.08 L 10.78 5.62 L 10.78 6.17 L 10.78 6.71 L 10.78 7.25 L 10.78 7.79 L 10.78 8.33 L 10.78 8.88 L 10.78 9.42 L 10.78 9.96 L 10.78 10.5 L 10.78 11.04 L 10.78 11.58 L 10.78 12.12 L 10.78 12.67 L 10.78 13.21 L 10.78 13.75 L 10.78 14.29 L 10.78 14.83 L 10.78 15.38 L 10.78 15.92 L 10.78 16.46 L 10.78 17.0" fill="none" stroke="#111" stroke-width="1.26" stroke-linecap="round" stroke-linejoin="round"/>
<path d="M 5.78 6.0 L 6.52 5.98 L 7.25 6.08 L 7.96 6.29 L 8.62 6.61 L 9.23 7.03 L 9.77 7.54 L 10.22 8.12 L 10.58 8.77 L 10.83 9.46 L 10.97 10.19 L 11.0 10.92 L 10.91 11.66 L 10.71 12.37 L 10.4 13.04 L 9.99 13.65 L 9.49 14.2 L 8.91 14.66 L 8.27 15.02 L 7.58 15.28 L 6.86 15.44 L 6.12 15.47 L 5.39 15.4 L 4.68 15.21 L 4.0 14.91" fill="none" stroke="#111" stroke-width="1.26" stroke-linecap="round" stroke-linejoin="round"/>
<path d="M 5.78 4.0 L 5.78 4.12 L 5.78 4.25 L 5.78 4.38 L 5.78 4.5 L 5.78 4.62 L 5.78 4.75 L 5.78 4.88 L 5.78 5.0 L 5.78 5.12 L 5.78 5.25 L 5.78 5.38 L 5.78 5.5 L 5.78 5.62 L 5.78 5.75 L 5.78 5.88 L 5.78 6.0 L 5.78 6.12 L 5.78 6.25 L 5.78 6.38 L 5.78 6.5 L 5.78 6.62 L 5.78 6.75 L 5.78 6.88 L 5.78 7.0" fill="none" stroke="#111" stroke-width="1.26" stroke-linecap="round" stroke-linejoin="round"/>
<path d="M 4.78 8.0 L 4.78 8.21 L 4.78 8.42 L 4.78 8.62 L 4.78 8.83 L 4.78 9.04 L 4.78 9.25 L 4.78 9.46 L 4.78 9.67 L 4.78 9.88 L 4.78 10.08 L 4.78 10.29 L 4.78 10.5 L 4.78 10.71 L 4.78 10.92 L 4.78 11.12 L 4.78 11.33 L 4.78 11.54 L 4.78 11.75 L 4.78 11.96 L 4.78 12.17 L 4.78 12.38 L 4.78 12.58 L 4.78 12.79 L 4.78 13.0" fill="none" stroke="#111" stroke-width="1.26" stroke-linecap="round" stroke-linejoin="round"/>
</svg>
