<?xml version="1.0" encoding="UTF-8"?>
<svg xmlns="http://www.w3.org/2000/svg" viewBox="0 0 22.31 33.86">
<path d="M 11.31 4.0 L 11.14 4.29 L 10.97 4.58 L 10.81 4.88 L 10.64 5.17 L 10.47 5.46 L 10.31 5.75 L 10.14 6.04 L 9.97 6.33 L 9.81 6.62 L 9.64 6.92 L 9.47 7.21 L 9.31 7.5 L 9.14 7.79 L 8.97 8.08 L 8.81 8.38 L 8.64 8.67 L 8.47 8.96 L 8.31 9.25 L 8.14 9.54 L 7.97 9.83 L 7.81 10.12 L 7.64 10.42 L 7.47 10.71 L 7.31 11.0 L 7.31 11.0 L 7.6 11.38 L 7.88 11.77 L 8.13 12.18 L 8.37 12.6 L 8.58 13.03 L 8.78 13.47 L 8.95 13.92 L 9.1 14.38 L 9.22 14.84 L 9.32 15.31 L 9.4 15.79 L 9.46 16.26 L 9.49 16.74 L 9.5 17.22 L 9.48 17.71 L 9.44 18.18 L 9.38 18.66 L 9.29 19.13 L 9.18 19.6 L 9.05 20.06 L 8.89 20.52 L 8.71 20.97 L 8.51 21.4 L 8.29 21.83" fill="none" stroke="#111" stroke-width="1.19" stroke-linecap="round" stroke-linejoin="round"/>
<path d="M 11.31 4.0 L 11.47 4.25 L 11.64 4.5 L 11.81 4.75 L 11.97 5.0 L 12.14 5.25 L 12.31 5.5 L 12.47 5.75 L 12.64 6.0 L 12.81 6.25 L 12.97 6.5 L 13.14 6.75 L 13.31 7.0 L 13.47 7.25 L 13.64 7.5 L 13.81 7.75 L 13.97 8.0 L 14.14 8.25 L 14.31 8.5 L 14.47 8.75 L 14.64 9.0 L 14.81 9.25 L 14.97 9.5 L 15.14 9.75 L 15.31 10.0 L 15.31 10.0 L 15.18 10.53 L 15.07 11.07 L 14.98 11.61 L 14.89 12.15 L 14.83 12.7 L 14.77 13.24 L 14.74 13.79 L 14.71 14.34 L 14.7 14.89 L 14.71 15.44 L 14.73 15.98 L 14.76 16.53 L 14.81 17.08 L 14.88 17.62 L 14.96 18.16 L 15.05 18.7 L 15.16 19.24 L 15.28 19.78 L 15.41 20.31 L 15.56 20.84 L 15.73 21.36 L 15.9 21.88 L 16.09 22.39 L 16.3 22.9" fill="none" stroke="#111" stroke-width="1.19" stroke-linecap="round" stroke-linejoin="round"/>
<path d="M 10.31 7.0 L 10.39 7.08 L 10.47 7.17 L 10.56 7.25 L 10.64 7.33 L 10.72 7.42 L 10.81 7.5 L 10.89 7.58 L 10.97 7.67 L 11.06 7.75 L 11.14 7.83 L 11.22 7.92 L 11.31 8.0 L 11.39 8.08 L 11.47 8.17 L 11.56 8.25 L 11.64 8.33 L 11.72 8.42 L 11.81 8.5 L 11.89 8.58 L 11.97 8.67 L 12.06 8.75 L 12.14 8.83 L 12.22 8.92 L 12.31 9.0 L 12.31 9.0 L 12.35 8.88 L 12.39 8.75 L 12.43 8.62 L 12.47 8.5 L 12.52 8.38 L 12.56 8.25 L 12.6 8.12 L 12.64 8.0 L 12.68 7.88 L 12.72 7.75 L 12.77 7.62 L 12.81 7.5 L 12.85 7.38 L 12.89 7.25 L 12.93 7.12 L 12.97 7.0 L 13.02 6.88 L 13.06 6.75 L 13.1 6.62 L 13.14 6.5 L 13.18 6.38 L 13.22 6.25 L 13.27 6.12 L 13.31 6.0" fill="none" stroke="#111" stroke-width="1.19" stroke-linecap="round" stroke-linejoin="round"/>
<path d="M 12.31 9.0 L 12.52 9.54 L 12.71 10.1 L 12.86 10.66 L 12.99 11.23 L 13.09 11.8 L 13.15 12.38 L 13.19 12.96 L 13.2 13.55 L 13.17 14.13 L 13.11 14.71 L 13.03 15.29 L 12.91 15.86 L 12.77 16.42 L 12.59 16.98 L 12.39 17.53 L 12.15 18.06 L 11.89 18.58 L 11.61 19.09 L 11.29 19.58 L 10.95 20.06 L 10.59 20.51 L 10.2 20.95 L 9.79 21.36 L 9.36 21.76" fill="none" stroke="#111" stroke-width="1.19" stroke-linecap="round" stroke-linejoin="round"/>
<path d="M 12.31 18.0 L 12.47 18.21 L 12.64 18.42 L 12.81 18.62 L 12.97 18.83 L 13.14 19.04 L 13.31 19.25 L 13.47 19.46 L 13.64 19.67 L 13.81 19.88 L 13.97 20.08 L 14.14 20.29 L 14.31 20.5 L 14.47 20.71 L 14.64 20.92 L 14.81 21.12 L 14.97 21.33 L 15.14 21.54 L 15.31 21.75 L 15.47 21.96 L 15.64 22.17 L 15.81 22.38 L 15.97 22.58 L 16.14 22.79 L 16.31 23.0" fill="none" stroke="#111" stroke-width="1.19" stroke-linecap="round" stroke-linejoin="round"/>
<path d="M 6.31 16.0 L 5.53 15.46 L 4.89 14.77 L 4.4 13.96 L 4.1 13.06 L 4.0 12.12 L 4.1 11.18 L 4.39 10.29 L 4.87 9.47 L 5.5 8.78 L 6.27 8.23 L 7.14 7.86 L 8.07 7.68 L 9.02 7.7 L 9.93 7.92 L 10.78 8.34 L 11.53 8.92 L 12.13 9.64 L 12.57 10.48 L 12.82 11.39 L 12.87 12.33 L 12.73 13.26 L 12.38 14.15 L 11.86 14.93 L 11.19 15.59" fill="none" stroke="#111" stroke-width="1.19" stroke-linecap="round" stroke-linejoin="round"/>
<path d="M 6.31 14.0 L 6.35 13.92 L 6.39 13.83 L 6.43 13.75 L 6.47 13.67 L 6.52 13.58 L 6.56 13.5 L 6.6 13.42 L 6.64 13.33 L 6.68 13.25 L 6.72 13.17 L 6.77 13.08 L 6.81 13.0 L 6.85 12.92 L 6.89 12.83 L 6.93 12.75 L 6.97 12.67 L 7.02 12.58 L 7.06 12.5 L 7.1 12.42 L 7.14 12.33 L 7.18 12.25 L 7.22 12.17 L 7.27 12.08 L 7.31 12.0" fill="none" stroke="#111" stroke-width="1.19" stroke-linecap="round" stroke-linejoin="round"/>
<path d="M 9.31 13.0 L 9.56 13.0 L 9.81 13.0 L 10.06 13.0 L 10.31 13.0 L 10.56 13.0 L 10.81 13.0 L 11.06 13.0 L 11.31 13.0 L 11.56 13.0 L 11.81 13.0 L 12.06 13.0 L 12.31 13.0 L 12.56 13.0 L 12.81 13.0 L 13.06 13.0 L 13.31 13.0 L 13.56 13.0 L 13.81 13.0 L 14.06 13.0 L 14.31 13.0 L 14.56 13.0 L 14.81 13.0 L 15.06 13.0 L 15.31 13.0" fill="none" stroke="#111" stroke-width="1.19" stroke-linecap="round" stroke-linejoin="round"/>
<path d="M 9.31 15.0 L 9.56 15.0 L 9.81 15.0 L 10.06 15.0 L 10.31 15.0 L 10.56 15.0 L 10.81 15.0 L 11.06 15.0 L 11.31 15.0 L 11.56 15.0 L 11.81 15.0 L 12.06 15.0 L 12.31 15.0 L 12.56 15.0 L 12.81 15.0 L 13.06 15.0 L 13.31 15.0 L 13.56 15.0 L 13.81 15.0 L 14.06 15.0 L 14.31 15.0 L 14.56 15.0 L 14.81 15.0 L 15.06 15.0 L 15.31 15.0" fill="none" stroke="#111" stroke-width="1.19" stroke-linecap="round" stroke-linejoin="round"/>
<path d="M 9.31 17.0 L 9.52 17.0 L 9.72 17.0 L 9.93 17.0 L 10.14 17.0 L 10.35 17.0 L 10.56 17.0 L 10.77 17.0 L 10.97 17.0 L 11.18 17.0 L 11.39 17.0 L 11.6 17.0 L 11.81 17.0 L 12.02 17.0 L 12.22 17.0 L 12.43 17.0 L 12.64 17.0 L 12.85 17.0 L 13.06 17.0 L 13.27 17.0 L 13.47 17.0 L 13.68 17.0 L 13.89 17.0 L 14.1 17.0 L 14.31 17.0" fill="none" stroke="#111" stroke-width="1.19" stroke-linecap="round" stroke-linejoin="round"/>
<path d="M 16.31 12.0 L 16.35 11.96 L 16.39 11.92 L 16.43 11.88 L 16.47 11.83 L 16.52 11.79 L 16.56 11.75 L 16.6 11.71 L 16.64 11.67 L 16.68 11.62 L 16.72 11.58 L 16.77 11.54 L 16.81 11.5 L 16.85 11.46 L 16.89 11.42 L 16.93 11.38 L 16.97 11.33 L 17.02 11.29 L 17.06 11.25 L 17.1 11.21 L 17.14 11.17 L 17.18 11.12 L 17.22 11.08 L 17.27 11.04 L 17.31 11.0 L 17.31 11.0 L 17.35 11.04 L 17.39 11.08 L 17.43 11.12 L 17.47 11.17 L 17.52 11.21 L 17.56 11.25 L 17.6 11.29 L 17.64 11.33 L 17.68 11.38 L 17.72 11.42 L 17.77 11.46 L 17.81 11.5 L 17.85 11.54 L 17.89 11.58 L 17.93 11.62 L 17.97 11.67 L 18.02 11.71 L 18.06 11.75 L 18.1 11.79 L 18.14 11.83 L 18.18 11.88 L 18.22 11.92 L 18.27 11.96 L 18.31 12.0" fill="none" stroke="#111" stroke-width="1.19" stroke-linecap="round" stroke-linejoin="round"/>
<path d="M 6.31 26.0 L 6.77 26.0 L 7.22 26.0 L 7.68 26.0 L 8.14 26.0 L 8.6 26.0 L 9.06 26.0 L 9.52 26.0 L 9.97 26.0 L 10.43 26.0 L 10.89 26.0 L 11.35 26.0 L 11.81 26.0 L 12.27 26.0 L 12.72 26.0 L 13.18 26.0 L 13.64 26.0 L 14.1 26.0 L 14.56 26.0 L 15.02 26.0 L 15.47 26.0 L 15.93 26.0 L 16.39 26.0 L 16.85 26.0 L 17.31 26.0" fill="none" stroke="#111" stroke-width="1.19" stroke-linecap="round" stroke-linejoin="round"/>
<path d="M 6.31 23.0 L 6.31 23.21 L 6.31 23.42 L 6.31 23.62 L 6.31 23.83 L 6.31 24.04 L 6.31 24.25 L 6.31 24.46 L 6.31 24.67 L 6.31 24.88 L 6.31 25.08 L 6.31 25.29 L 6.31 25.5 L 6.31 25.71 L 6.31 25.92 L 6.31 26.12 L 6.31 26.33 L 6.31 26.54 L 6.31 26.75 L 6.31 26.96 L 6.31 27.17 L 6.31 27.38 L 6.31 27.58 L 6.31 27.79 L 6.31 28.0 L 6.31 28.0 L 6.87 28.48 L 7.49 28.9 L 8.14 29.25 L 8.83 29.52 L 9.55 29.71 L 10.29 29.83 L 11.03 29.86 L 11.77 29.81 L 12.5 29.68 L 13.21 29.47 L 13.9 29.18 L 14.54 28.81 L 15.15 28.38 L 15.7 27.88 L 16.19 27.33 L 16.62 26.72 L 16.98 26.07 L 17.27 25.38 L 17.48 24.67 L 17.6 23.94 L 17.65 23.2 L 17.61 22.46 L 17.5 21.72 L 17.3 21.01" fill="none" stroke="#111" stroke-width="1.19" stroke-linecap="round" stroke-linejoin="round"/>
</svg>
