<?xml version="1.0" encoding="UTF-8"?>
<svg xmlns="http://www.w3.org/2000/svg" viewBox="0 0 28.00 33.00">
<path d="M 11.0 17.0 L 10.92 16.52 L 10.88 16.03 L 10.89 15.54 L 10.93 15.06 L 11.01 14.57 L 11.13 14.1 L 11.29 13.64 L 11.49 13.19 L 11.72 12.76 L 11.99 12.35 L 12.29 11.97 L 12.62 11.61 L 12.98 11.28 L 13.37 10.98 L 13.78 10.71 L 14.2 10.48 L 14.65 10.28 L 15.11 10.12 L 15.59 10.0 L 16.07 9.92 L 16.55 9.87 L 17.04 9.87 L 17.53 9.91 L 18.01 9.99" fill="none" stroke="#111" stroke-width="1.16" stroke-linecap="round" stroke-linejoin="round"/>
<path d="M 11.0 15.0 L 11.08 15.0 L 11.17 15.0 L 11.25 15.0 L 11.33 15.0 L 11.42 15.0 L 11.5 15.0 L 11.58 15.0 L 11.67 15.0 L 11.75 15.0 L 11.83 15.0 L 11.92 15.0 L 12.0 15.0 L 12.08 15.0 L 12.17 15.0 L 12.25 15.0 L 12.33 15.0 L 12.42 15.0 L 12.5 15.0 L 12.58 15.0 L 12.67 15.0 L 12.75 15.0 L 12.83 15.0 L 12.92 15.0 L 13.0 15.0" fill="none" stroke="#111" stroke-width="1.16" stroke-linecap="round" stroke-linejoin="round"/>
<path d="M 13.0 12.0 L 13.0 12.12 L 13.0 12.25 L 13.0 12.38 L 13.0 12.5 L 13.0 12.62 L 13.0 12.75 L 13.0 12.88 L 13.0 13.0 L 13.0 13.12 L 13.0 13.25 L 13.0 13.38 L 13.0 13.5 L 13.0 13.62 L 13.0 13.75 L 13.0 13.88 L 13.0 14.0 L 13.0 14.12 L 13.0 14.25 L 13.0 14.38 L 13.0 14.5 L 13.0 14.62 L 13.0 14.75 L 13.0 14.88 L 13.0 15.0" fill="none" stroke="#111" stroke-width="1.16" stroke-linecap="round" stroke-linejoin="round"/>
<path d="M 14.0 11.0 L 14.04 11.08 L 14.08 11.17 L 14.12 11.25 L 14.17 11.33 L 14.21 11.42 L 14.25 11.5 L 14.29 11.58 L 14.33 11.67 L 14.38 11.75 L 14.42 11.83 L 14.46 11.92 L 14.5 12.0 L 14.54 12.08 L 14.58 12.17 L 14.62 12.25 L 14.67 12.33 L 14.71 12.42 L 14.75 12.5 L 14.79 12.58 L 14.83 12.67 L 14.88 12.75 L 14.92 12.83 L 14.96 12.92 L 15.0 13.0" fill="none" stroke="#111" stroke-width="1.16" stroke-linecap="round" stroke-linejoin="round"/>
<path d="M 18.0 10.0 L 17.88 10.17 L 17.75 10.33 L 17.62 10.5 L 17.5 10.67 L 17.38 10.83 L 17.25 11.0 L 17.12 11.17 L 17.0 11.33 L 16.88 11.5 L 16.75 11.67 L 16.62 11.83 L 16.5 12.0 L 16.38 12.17 L 16.25 12.33 L 16.12 12.5 L 16.0 12.67 L 15.88 12.83 L 15.75 13.0 L 15.62 13.17 L 15.5 13.33 L 15.38 13.5 L 15.25 13.67 L 15.12 13.83 L 15.0 14.0" fill="none" stroke="#111" stroke-width="1.16" stroke-linecap="round" stroke-linejoin="round"/>
<path d="M 14.0 14.0 L 14.0 14.12 L 14.0 14.25 L 14.0 14.38 L 14.0 14.5 L 14.0 14.62 L 14.0 14.75 L 14.0 14.88 L 14.0 15.0 L 14.0 15.12 L 14.0 15.25 L 14.0 15.38 L 14.0 15.5 L 14.0 15.62 L 14.0 15.75 L 14.0 15.88 L 14.0 16.0 L 14.0 16.12 L 14.0 16.25 L 14.0 16.38 L 14.0 16.5 L 14.0 16.62 L 14.0 16.75 L 14.0 16.88 L 14.0 17.0" fill="none" stroke="#111" stroke-width="1.16" stroke-linecap="round" stroke-linejoin="round"/>
<path d="M 14.0 17.0 L 13.92 17.08 L 13.83 17.17 L 13.75 17.25 L 13.67 17.33 L 13.58 17.42 L 13.5 17.5 L 13.42 17.58 L 13.33 17.67 L 13.25 17.75 L 13.17 17.83 L 13.08 17.92 L 13.0 18.0 L 12.92 18.08 L 12.83 18.17 L 12.75 18.25 L 12.67 18.33 L 12.58 18.42 L 12.5 18.5 L 12.42 18.58 L 12.33 18.67 L 12.25 18.75 L 12.17 18.83 L 12.08 18.92 L 12.0 19.0" fill="none" stroke="#111" stroke-width="1.16" stroke-linecap="round" stroke-linejoin="round"/>
<path d="M 12.0 19.0 L 11.96 19.42 L 11.92 19.83 L 11.88 20.25 L 11.83 20.67 L 11.79 21.08 L 11.75 21.5 L 11.71 21.92 L 11.67 22.33 L 11.62 22.75 L 11.58 23.17 L 11.54 23.58 L 11.5 24.0 L 11.46 24.42 L 11.42 24.83 L 11.38 25.25 L 11.33 25.67 L 11.29 26.08 L 11.25 26.5 L 11.21 26.92 L 11.17 27.33 L 11.12 27.75 L 11.08 28.17 L 11.04 28.58 L 11.0 29.0" fill="none" stroke="#111" stroke-width="1.16" stroke-linecap="round" stroke-linejoin="round"/>
<path d="M 12.0 5.0 L 12.04 5.29 L 12.08 5.58 L 12.12 5.88 L 12.17 6.17 L 12.21 6.46 L 12.25 6.75 L 12.29 7.04 L 12.33 7.33 L 12.38 7.62 L 12.42 7.92 L 12.46 8.21 L 12.5 8.5 L 12.54 8.79 L 12.58 9.08 L 12.62 9.38 L 12.67 9.67 L 12.71 9.96 L 12.75 10.25 L 12.79 10.54 L 12.83 10.83 L 12.88 11.12 L 12.92 11.42 L 12.96 11.71 L 13.0 12.0" fill="none" stroke="#111" stroke-width="1.16" stroke-linecap="round" stroke-linejoin="round"/>
<path d="M 11.0 6.0 L 11.04 6.12 L 11.08 6.25 L 11.12 6.38 L 11.17 6.5 L 11.21 6.62 L 11.25 6.75 L 11.29 6.88 L 11.33 7.0 L 11.38 7.12 L 11.42 7.25 L 11.46 7.38 L 11.5 7.5 L 11.54 7.62 L 11.58 7.75 L 11.62 7.88 L 11.67 8.0 L 11.71 8.12 L 11.75 8.25 L 11.79 8.38 L 11.83 8.5 L 11.88 8.62 L 11.92 8.75 L 11.96 8.88 L 12.0 9.0" fill="none" stroke="#111" stroke-width="1.16" stroke-linecap="round" stroke-linejoin="round"/>
<path d="M 14.0 4.0 L 14.04 4.29 L 14.08 4.58 L 14.12 4.88 L 14.17 5.17 L 14.21 5.46 L 14.25 5.75 L 14.29 6.04 L 14.33 6.33 L 14.38 6.62 L 14.42 6.92 L 14.46 7.21 L 14.5 7.5 L 14.54 7.79 L 14.58 8.08 L 14.62 8.38 L 14.67 8.67 L 14.71 8.96 L 14.75 9.25 L 14.79 9.54 L 14.83 9.83 L 14.88 10.12 L 14.92 10.42 L 14.96 10.71 L 15.0 11.0" fill="none" stroke="#111" stroke-width="1.16" stroke-linecap="round" stroke-linejoin="round"/>
<path d="M 12.0 6.0 L 12.08 6.08 L 12.17 6.17 L 12.25 6.25 L 12.33 6.33 L 12.42 6.42 L 12.5 6.5 L 12.58 6.58 L 12.67 6.67 L 12.75 6.75 L 12.83 6.83 L 12.92 6.92 L 13.0 7.0 L 13.08 7.08 L 13.17 7.17 L 13.25 7.25 L 13.33 7.33 L 13.42 7.42 L 13.5 7.5 L 13.58 7.58 L 13.67 7.67 L 13.75 7.75 L 13.83 7.83 L 13.92 7.92 L 14.0 8.0" fill="none" stroke="#111" stroke-width="1.16" stroke-linecap="round" stroke-linejoin="round"/>
<path d="M 17.0 4.0 L 16.88 4.12 L 16.75 4.25 L 16.62 4.38 L 16.5 4.5 L 16.38 4.62 L 16.25 4.75 L 16.12 4.88 L 16.0 5.0 L 15.88 5.12 L 15.75 5.25 L 15.62 5.38 L 15.5 5.5 L 15.38 5.62 L 15.25 5.75 L 15.12 5.88 L 15.0 6.0 L 14.88 6.12 L 14.75 6.25 L 14.62 6.38 L 14.5 6.5 L 14.38 6.62 L 14.25 6.75 L 14.12 6.88 L 14.0 7.0" fill="none" stroke="#111" stroke-width="1.16" stroke-linecap="round" stroke-linejoin="round"/>
<path d="M 7.0 10.0 L 7.0 10.54 L 7.0 11.08 L 7.0 11.62 L 7.0 12.17 L 7.0 12.71 L 7.0 13.25 L 7.0 13.79 L 7.0 14.33 L 7.0 14.88 L 7.0 15.42 L 7.0 15.96 L 7.0 16.5 L 7.0 17.04 L 7.0 17.58 L 7.0 18.12 L 7.0 18.67 L 7.0 19.21 L 7.0 19.75 L 7.0 20.29 L 7.0 20.83 L 7.0 21.38 L 7.0 21.92 L 7.0 22.46 L 7.0 23.0" fill="none" stroke="#111" stroke-width="1.16" stroke-linecap="round" stroke-linejoin="round"/>
<path d="M 4.0 12.0 L 4.12 12.17 L 4.25 12.33 L 4.38 12.5 L 4.5 12.67 L 4.62 12.83 L 4.75 13.0 L 4.88 13.17 L 5.0 13.33 L 5.12 13.5 L 5.25 13.67 L 5.38 13.83 L 5.5 14.0 L 5.62 14.17 L 5.75 14.33 L 5.88 14.5 L 6.0 14.67 L 6.12 14.83 L 6.25 15.0 L 6.38 15.17 L 6.5 15.33 L 6.62 15.5 L 6.75 15.67 L 6.88 15.83 L 7.0 16.0" fill="none" stroke="#111" stroke-width="1.16" stroke-linecap="round" stroke-linejoin="round"/>
<path d="M 10.0 11.0 L 9.88 11.17 L 9.75 11.33 L 9.62 11.5 L 9.5 11.67 L 9.38 11.83 L 9.25 12.0 L 9.12 12.17 L 9.0 12.33 L 8.88 12.5 L 8.75 12.67 L 8.62 12.83 L 8.5 13.0 L 8.38 13.17 L 8.25 13.33 L 8.12 13.5 L 8.0 13.67 L 7.88 13.83 L 7.75 14.0 L 7.62 14.17 L 7.5 14.33 L 7.38 14.5 L 7.25 14.67 L 7.12 14.83 L 7.0 15.0" fill="none" stroke="#111" stroke-width="1.16" stroke-linecap="round" stroke-linejoin="round"/>
<path d="M 7.0 17.0 L 6.88 17.21 L 6.75 17.42 L 6.62 17.62 L 6.5 17.83 L 6.38 18.04 L 6.25 18.25 L 6.12 18.46 L 6.0 18.67 L 5.88 18.88 L 5.75 19.08 L 5.63 19.29 L 5.5 19.5 L 5.38 19.71 L 5.25 19.92 L 5.12 20.12 L 5.0 20.33 L 4.88 20.54 L 4.75 20.75 L 4.62 20.96 L 4.5 21.17 L 4.38 21.38 L 4.25 21.58 L 4.13 21.79 L 4.0 22.0" fill="none" stroke="#111" stroke-width="1.16" stroke-linecap="round" stroke-linejoin="round"/>
<path d="M 7.0 17.0 L 7.08 17.12 L 7.17 17.25 L 7.25 17.38 L 7.33 17.5 L 7.42 17.62 L 7.5 17.75 L 7.58 17.88 L 7.67 18.0 L 7.75 18.12 L 7.83 18.25 L 7.92 18.38 L 8.0 18.5 L 8.08 18.62 L 8.17 18.75 L 8.25 18.88 L 8.33 19.0 L 8.42 19.12 L 8.5 19.25 L 8.58 19.38 L 8.67 19.5 L 8.75 19.62 L 8.83 19.75 L 8.92 19.88 L 9.0 20.0" fill="none" stroke="#111" stroke-width="1.16" stroke-linecap="round" stroke-linejoin="round"/>
<path d="M 11.0 26.0 L 10.92 26.08 L 10.83 26.17 L 10.75 26.25 L 10.67 26.33 L 10.58 26.42 L 10.5 26.5 L 10.42 26.58 L 10.33 26.67 L 10.25 26.75 L 10.17 26.83 L 10.08 26.92 L 10.0 27.0 L 9.92 27.08 L 9.83 27.17 L 9.75 27.25 L 9.67 27.33 L 9.58 27.42 L 9.5 27.5 L 9.42 27.58 L 9.33 27.67 L 9.25 27.75 L 9.17 27.83 L 9.08 27.92 L 9.0 28.0" fill="none" stroke="#111" stroke-width="1.16" stroke-linecap="round" stroke-linejoin="round"/>
<path d="M 11.0 25.0 L 11.08 25.04 L 11.17 25.08 L 11.25 25.12 L 11.33 25.17 L 11.42 25.21 L 11.5 25.25 L 11.58 25.29 L 11.67 25.33 L 11.75 25.38 L 11.83 25.42 L 11.92 25.46 L 12.0 25.5 L 12.08 25.54 L 12.17 25.58 L 12.25 25.62 L 12.33 25.67 L 12.42 25.71 L 12.5 25.75 L 12.58 25.79 L 12.67 25.83 L 12.75 25.88 L 12.83 25.92 L 12.92 25.96 L 13.0 26.0" fill="none" stroke="#111" stroke-width="1.16" stroke-linecap="round" stroke-linejoin="round"/>
<path d="M 12.0 21.0 L 12.0 21.0 L 12.0 21.0 L 12.0 21.0 L 12.0 21.0 L 12.0 21.0 L 12.0 21.0 L 12.0 21.0 L 12.0 21.0 L 12.0 21.0 L 12.0 21.0 L 12.0 21.0 L 12.0 21.0 L 12.0 21.0 L 12.0 21.0 L 12.0 21.0 L 12.0 21.0 L 12.0 21.0 L 12.0 21.0 L 12.0 21.0 L 12.0 21.0 L 12.0 21.0 L 12.0 21.0 L 12.0 21.0 L 12.0 21.0" fill="none" stroke="#111" stroke-width="1.16" stroke-linecap="round" stroke-linejoin="round"/>
<path d="M 12.0 21.0 L 12.25 20.83 L 12.5 20.67 L 12.75 20.5 L 13.0 20.33 L 13.25 20.17 L 13.5 20.0 L 13.75 19.83 L 14.0 19.67 L 14.25 19.5 L 14.5 19.33 L 14.75 19.17 L 15.0 19.0 L 15.25 18.83 L 15.5 18.67 L 15.75 18.5 L 16.0 18.33 L 16.25 18.17 L 16.5 18.0 L 16.75 17.83 L 17.0 17.67 L 17.25 17.5 L 17.5 17.33 L 17.75 17.17 L 18.0 17.0" fill="none" stroke="#111" stroke-width="1.16" stroke-linecap="round" stroke-linejoin="round"/>
<path d="M 18.0 17.0 L 18.0 17.0 L 18.0 17.0 L 18.0 17.0 L 18.0 17.0 L 18.0 17.0 L 18.0 17.0 L 18.0 17.0 L 18.0 17.0 L 18.0 17.0 L 18.0 17.0 L 18.0 17.0 L 18.0 17.0 L 18.0 17.0 L 18.0 17.0 L 18.0 17.0 L 18.0 17.0 L 18.0 17.0 L 18.0 17.0 L 18.0 17.0 L 18.0 17.0 L 18.0 17.0 L 18.0 17.0 L 18.0 17.0 L 18.0 17.0" fill="none" stroke="#111" stroke-width="1.16" stroke-linecap="round" stroke-linejoin="round"/>
<path d="M 16.0 18.0 L 16.0 18.33 L 16.0 18.67 L 16.0 19.0 L 16.0 19.33 L 16.0 19.67 L 16.0 20.0 L 16.0 20.33 L 16.0 20.67 L 16.0 21.0 L 16.0 21.33 L 16.0 21.67 L 16.0 22.0 L 16.0 22.33 L 16.0 22.67 L 16.0 23.0 L 16.0 23.33 L 16.0 23.67 L 16.0 24.0 L 16.0 24.33 L 16.0 24.67 L 16.0 25.0 L 16.0 25.33 L 16.0 25.67 L 16.0 26.0" fill="none" stroke="#111" stroke-width="1.16" stroke-linecap="round" stroke-linejoin="round"/>
<path d="M 16.0 23.0 L 16.12 23.08 L 16.25 23.17 L 16.38 23.25 L 16.5 23.33 L 16.62 23.42 L 16.75 23.5 L 16.88 23.58 L 17.0 23.67 L 17.12 23.75 L 17.25 23.83 L 17.38 23.92 L 17.5 24.0 L 17.62 24.08 L 17.75 24.17 L 17.88 24.25 L 18.0 24.33 L 18.12 24.42 L 18.25 24.5 L 18.38 24.58 L 18.5 24.67 L 18.62 24.75 L 18.75 24.83 L 18.88 24.92 L 19.0 25.0" fill="none" stroke="#111" stroke-width="1.16" stroke-linecap="round" stroke-linejoin="round"/>
<path d="M 21.0 7.0 L 21.0 7.62 L 21.0 8.25 L 21.0 8.88 L 21.0 9.5 L 21.0 10.12 L 21.0 10.75 L 21.0 11.38 L 21.0 12.0 L 21.0 12.62 L 21.0 13.25 L 21.0 13.88 L 21.0 14.5 L 21.0 15.12 L 21.0 15.75 L 21.0 16.38 L 21.0 17.0 L 21.0 17.62 L 21.0 18.25 L 21.0 18.88 L 21.0 19.5 L 21.0 20.12 L 21.0 20.75 L 21.0 21.38 L 21.0 22.0" fill="none" stroke="#111" stroke-width="1.16" stroke-linecap="round" stroke-linejoin="round"/>
<path d="M 18.0 11.0 L 18.12 11.17 L 18.25 11.33 L 18.38 11.5 L 18.5 11.67 L 18.62 11.83 L 18.75 12.0 L 18.88 12.17 L 19.0 12.33 L 19.12 12.5 L 19.25 12.67 L 19.38 12.83 L 19.5 13.0 L 19.62 13.17 L 19.75 13.33 L 19.88 13.5 L 20.0 13.67 L 20.12 13.83 L 20.25 14.0 L 20.38 14.17 L 20.5 14.33 L 20.62 14.5 L 20.75 14.67 L 20.88 14.83 L 21.0 15.0" fill="none" stroke="#111" stroke-width="1.16" stroke-linecap="round" stroke-linejoin="round"/>
<path d="M 24.0 11.0 L 23.88 11.12 L 23.75 11.25 L 23.62 11.38 L 23.5 11.5 L 23.38 11.62 L 23.25 11.75 L 23.12 11.88 L 23.0 12.0 L 22.88 12.12 L 22.75 12.25 L 22.62 12.38 L 22.5 12.5 L 22.38 12.62 L 22.25 12.75 L 22.12 12.88 L 22.0 13.0 L 21.88 13.12 L 21.75 13.25 L 21.62 13.38 L 21.5 13.5 L 21.38 13.62 L 21.25 13.75 L 21.12 13.88 L 21.0 14.0" fill="none" stroke="#111" stroke-width="1.16" stroke-linecap="round" stroke-linejoin="round"/>
<path d="M 21.0 17.0 L 20.88 17.17 L 20.75 17.33 L 20.62 17.5 L 20.5 17.67 L 20.38 17.83 L 20.25 18.0 L 20.12 18.17 L 20.0 18.33 L 19.88 18.5 L 19.75 18.67 L 19.62 18.83 L 19.5 19.0 L 19.38 19.17 L 19.25 19.33 L 19.12 19.5 L 19.0 19.67 L 18.88 19.83 L 18.75 20.0 L 18.62 20.17 L 18.5 20.33 L 18.38 20.5 L 18.25 20.67 L 18.12 20.83 L 18.0 21.0" fill="none" stroke="#111" stroke-width="1.16" stroke-linecap="round" stroke-linejoin="round"/>
<path d="M 21.0 18.0 L 21.08 18.17 L 21.17 18.33 L 21.25 18.5 L 21.33 18.67 L 21.42 18.83 L 21.5 19.0 L 21.58 19.17 L 21.67 19.33 L 21.75 19.5 L 21.83 19.67 L 21.92 19.83 L 22.0 20.0 L 22.08 20.17 L 22.17 20.33 L 22.25 20.5 L 22.33 20.67 L 22.42 20.83 L 22.5 21.0 L 22.58 21.17 L 22.67 21.33 L 22.75 21.5 L 22.83 21.67 L 22.92 21.83 L 23.0 22.0" fill="none" stroke="#111" stroke-width="1.16" stroke-linecap="round" stroke-linejoin="round"/>
</svg>
