<?xml version="1.0" encoding="UTF-8"?>
<svg xmlns="http://www.w3.org/2000/svg" viewBox="0 0 24.87 36.74">
<path d="M 9.91 6.0 L 10.08 5.96 L 10.25 5.92 L 10.41 5.88 L 10.58 5.83 L 10.75 5.79 L 10.91 5.75 L 11.08 5.71 L 11.25 5.67 L 11.41 5.62 L 11.58 5.58 L 11.75 5.54 L 11.91 5.5 L 12.08 5.46 L 12.25 5.42 L 12.41 5.38 L 12.58 5.33 L 12.75 5.29 L 12.91 5.25 L 13.08 5.21 L 13.25 5.17 L 13.41 5.12 L 13.58 5.08 L 13.75 5.04 L 13.91 5.0" fill="none" stroke="#111" stroke-width="1.29" stroke-linecap="round" stroke-linejoin="round"/>
<path d="M 10.91 6.0 L 10.95 6.12 L 11.0 6.25 L 11.04 6.38 L 11.08 6.5 L 11.12 6.62 L 11.16 6.75 L 11.2 6.88 L 11.25 7.0 L 11.29 7.12 L 11.33 7.25 L 11.37 7.38 L 11.41 7.5 L 11.45 7.62 L 11.5 7.75 L 11.54 7.88 L 11.58 8.0 L 11.62 8.12 L 11.66 8.25 L 11.7 8.38 L 11.75 8.5 L 11.79 8.62 L 11.83 8.75 L 11.87 8.88 L 11.91 9.0" fill="none" stroke="#111" stroke-width="1.29" stroke-linecap="round" stroke-linejoin="round"/>
<path d="M 13.91 5.0 L 13.83 5.17 L 13.75 5.33 L 13.66 5.5 L 13.58 5.67 L 13.5 5.83 L 13.41 6.0 L 13.33 6.17 L 13.25 6.33 L 13.16 6.5 L 13.08 6.67 L 13.0 6.83 L 12.91 7.0 L 12.83 7.17 L 12.75 7.33 L 12.66 7.5 L 12.58 7.67 L 12.5 7.83 L 12.41 8.0 L 12.33 8.17 L 12.25 8.33 L 12.16 8.5 L 12.08 8.67 L 12.0 8.83 L 11.91 9.0" fill="none" stroke="#111" stroke-width="1.29" stroke-linecap="round" stroke-linejoin="round"/>
<path d="M 9.91 9.0 L 10.08 9.0 L 10.25 9.0 L 10.41 9.0 L 10.58 9.0 L 10.75 9.0 L 10.91 9.0 L 11.08 9.0 L 11.25 9.0 L 11.41 9.0 L 11.58 9.0 L 11.75 9.0 L 11.91 9.0 L 12.08 9.0 L 12.25 9.0 L 12.41 9.0 L 12.58 9.0 L 12.75 9.0 L 12.91 9.0 L 13.08 9.0 L 13.25 9.0 L 13.41 9.0 L 13.58 9.0 L 13.75 9.0 L 13.91 9.0" fill="none" stroke="#111" stroke-width="1.29" stroke-linecap="round" stroke-linejoin="round"/>
<path d="M 11.91 9.0 L 11.91 9.08 L 11.91 9.17 L 11.91 9.25 L 11.91 9.33 L 11.91 9.42 L 11.91 9.5 L 11.91 9.58 L 11.91 9.67 L 11.91 9.75 L 11.91 9.83 L 11.91 9.92 L 11.91 10.0 L 11.91 10.08 L 11.91 10.17 L 11.91 10.25 L 11.91 10.33 L 11.91 10.42 L 11.91 10.5 L 11.91 10.58 L 11.91 10.67 L 11.91 10.75 L 11.91 10.83 L 11.91 10.92 L 11.91 11.0" fill="none" stroke="#111" stroke-width="1.29" stroke-linecap="round" stroke-linejoin="round"/>
<path d="M 9.91 12.0 L 10.12 11.96 L 10.33 11.92 L 10.54 11.88 L 10.75 11.83 L 10.95 11.79 L 11.16 11.75 L 11.37 11.71 L 11.58 11.67 L 11.79 11.62 L 12.0 11.58 L 12.2 11.54 L 12.41 11.5 L 12.62 11.46 L 12.83 11.42 L 13.04 11.38 L 13.25 11.33 L 13.45 11.29 L 13.66 11.25 L 13.87 11.21 L 14.08 11.17 L 14.29 11.12 L 14.5 11.08 L 14.7 11.04 L 14.91 11.0" fill="none" stroke="#111" stroke-width="1.29" stroke-linecap="round" stroke-linejoin="round"/>
<path d="M 14.91 11.0 L 15.0 11.25 L 15.08 11.5 L 15.16 11.75 L 15.25 12.0 L 15.33 12.25 L 15.41 12.5 L 15.5 12.75 L 15.58 13.0 L 15.66 13.25 L 15.75 13.5 L 15.83 13.75 L 15.91 14.0 L 16.0 14.25 L 16.08 14.5 L 16.16 14.75 L 16.25 15.0 L 16.33 15.25 L 16.41 15.5 L 16.5 15.75 L 16.58 16.0 L 16.66 16.25 L 16.75 16.5 L 16.83 16.75 L 16.91 17.0" fill="none" stroke="#111" stroke-width="1.29" stroke-linecap="round" stroke-linejoin="round"/>
<path d="M 9.91 12.0 L 10.0 12.21 L 10.08 12.42 L 10.16 12.62 L 10.25 12.83 L 10.33 13.04 L 10.41 13.25 L 10.5 13.46 L 10.58 13.67 L 10.66 13.88 L 10.75 14.08 L 10.83 14.29 L 10.91 14.5 L 11.0 14.71 L 11.08 14.92 L 11.16 15.12 L 11.25 15.33 L 11.33 15.54 L 11.41 15.75 L 11.5 15.96 L 11.58 16.17 L 11.66 16.38 L 11.75 16.58 L 11.83 16.79 L 11.91 17.0" fill="none" stroke="#111" stroke-width="1.29" stroke-linecap="round" stroke-linejoin="round"/>
<path d="M 10.91 15.0 L 11.12 14.96 L 11.33 14.92 L 11.54 14.88 L 11.75 14.83 L 11.95 14.79 L 12.16 14.75 L 12.37 14.71 L 12.58 14.67 L 12.79 14.62 L 13.0 14.58 L 13.2 14.54 L 13.41 14.5 L 13.62 14.46 L 13.83 14.42 L 14.04 14.38 L 14.25 14.33 L 14.45 14.29 L 14.66 14.25 L 14.87 14.21 L 15.08 14.17 L 15.29 14.12 L 15.5 14.08 L 15.7 14.04 L 15.91 14.0" fill="none" stroke="#111" stroke-width="1.29" stroke-linecap="round" stroke-linejoin="round"/>
<path d="M 9.91 13.0 L 9.43 13.56 L 8.98 14.15 L 8.58 14.77 L 8.21 15.42 L 7.89 16.09 L 7.62 16.78 L 7.4 17.48 L 7.22 18.2 L 7.09 18.93 L 7.01 19.67 L 6.98 20.41 L 7.01 21.15 L 7.08 21.89 L 7.2 22.62 L 7.37 23.34 L 7.59 24.05 L 7.85 24.74 L 8.16 25.41 L 8.52 26.06 L 8.92 26.69 L 9.36 27.28 L 9.84 27.85 L 10.35 28.38 L 10.91 28.88" fill="none" stroke="#111" stroke-width="1.29" stroke-linecap="round" stroke-linejoin="round"/>
<path d="M 9.91 15.0 L 10.76 15.63 L 11.53 16.35 L 12.22 17.14 L 12.82 18.01 L 13.32 18.94 L 13.72 19.92 L 14.01 20.93 L 14.19 21.97 L 14.25 23.02 L 14.2 24.08 L 14.03 25.12 L 13.76 26.14 L 13.37 27.12 L 12.88 28.05 L 12.29 28.92 L 11.6 29.73 L 10.84 30.45 L 10.0 31.09 L 9.09 31.63 L 8.13 32.08 L 7.13 32.41 L 6.1 32.63 L 5.05 32.74 L 4.0 32.74" fill="none" stroke="#111" stroke-width="1.29" stroke-linecap="round" stroke-linejoin="round"/>
<path d="M 7.91 24.0 L 8.08 23.96 L 8.25 23.92 L 8.41 23.88 L 8.58 23.83 L 8.75 23.79 L 8.91 23.75 L 9.08 23.71 L 9.25 23.67 L 9.41 23.62 L 9.58 23.58 L 9.75 23.54 L 9.91 23.5 L 10.08 23.46 L 10.25 23.42 L 10.41 23.38 L 10.58 23.33 L 10.75 23.29 L 10.91 23.25 L 11.08 23.21 L 11.25 23.17 L 11.41 23.12 L 11.58 23.08 L 11.75 23.04 L 11.91 23.0" fill="none" stroke="#111" stroke-width="1.29" stroke-linecap="round" stroke-linejoin="round"/>
<path d="M 5.91 19.0 L 6.12 19.08 L 6.33 19.17 L 6.54 19.25 L 6.75 19.33 L 6.95 19.42 L 7.16 19.5 L 7.37 19.58 L 7.58 19.67 L 7.79 19.75 L 8.0 19.83 L 8.2 19.92 L 8.41 20.0 L 8.62 20.08 L 8.83 20.17 L 9.04 20.25 L 9.25 20.33 L 9.45 20.42 L 9.66 20.5 L 9.87 20.58 L 10.08 20.67 L 10.29 20.75 L 10.5 20.83 L 10.7 20.92 L 10.91 21.0" fill="none" stroke="#111" stroke-width="1.29" stroke-linecap="round" stroke-linejoin="round"/>
<path d="M 7.91 17.0 L 8.0 17.08 L 8.08 17.17 L 8.16 17.25 L 8.25 17.33 L 8.33 17.42 L 8.41 17.5 L 8.5 17.58 L 8.58 17.67 L 8.66 17.75 L 8.75 17.83 L 8.83 17.92 L 8.91 18.0 L 9.0 18.08 L 9.08 18.17 L 9.16 18.25 L 9.25 18.33 L 9.33 18.42 L 9.41 18.5 L 9.5 18.58 L 9.58 18.67 L 9.66 18.75 L 9.75 18.83 L 9.83 18.92 L 9.91 19.0" fill="none" stroke="#111" stroke-width="1.29" stroke-linecap="round" stroke-linejoin="round"/>
<path d="M 14.91 5.0 L 15.37 5.41 L 15.81 5.83 L 16.23 6.27 L 16.64 6.72 L 17.03 7.19 L 17.41 7.67 L 17.77 8.16 L 18.11 8.67 L 18.43 9.19 L 18.74 9.72 L 19.02 10.26 L 19.29 10.81 L 19.53 11.37 L 19.76 11.93 L 19.96 12.51 L 20.15 13.09 L 20.31 13.68 L 20.46 14.27 L 20.58 14.87 L 20.68 15.47 L 20.76 16.07 L 20.82 16.68 L 20.85 17.29 L 20.87 17.9" fill="none" stroke="#111" stroke-width="1.29" stroke-linecap="round" stroke-linejoin="round"/>
<path d="M 18.91 4.0 L 18.79 4.29 L 18.66 4.58 L 18.54 4.88 L 18.41 5.17 L 18.29 5.46 L 18.16 5.75 L 18.04 6.04 L 17.91 6.33 L 17.79 6.62 L 17.66 6.92 L 17.54 7.21 L 17.41 7.5 L 17.29 7.79 L 17.16 8.08 L 17.04 8.38 L 16.91 8.67 L 16.79 8.96 L 16.66 9.25 L 16.54 9.54 L 16.41 9.83 L 16.29 10.12 L 16.16 10.42 L 16.04 10.71 L 15.91 11.0" fill="none" stroke="#111" stroke-width="1.29" stroke-linecap="round" stroke-linejoin="round"/>
</svg>
