<?xml version="1.0" encoding="UTF-8"?>
<svg xmlns="http://www.w3.org/2000/svg" viewBox="0 0 26.00 35.00">
<path d="M 4.0 4.0 L 4.08 4.12 L 4.17 4.25 L 4.25 4.38 L 4.33 4.5 L 4.42 4.62 L 4.5 4.75 L 4.58 4.88 L 4.67 5.0 L 4.75 5.12 L 4.83 5.25 L 4.92 5.38 L 5.0 5.5 L 5.08 5.62 L 5.17 5.75 L 5.25 5.88 L 5.33 6.0 L 5.42 6.12 L 5.5 6.25 L 5.58 6.38 L 5.67 6.5 L 5.75 6.62 L 5.83 6.75 L 5.92 6.88 L 6.0 7.0" fill="none" stroke="#111" stroke-width="1.23" stroke-linecap="round" stroke-linejoin="round"/>
<path d="M 7.0 4.0 L 6.96 4.12 L 6.92 4.25 L 6.88 4.38 L 6.83 4.5 L 6.79 4.62 L 6.75 4.75 L 6.71 4.88 L 6.67 5.0 L 6.62 5.12 L 6.58 5.25 L 6.54 5.38 L 6.5 5.5 L 6.46 5.62 L 6.42 5.75 L 6.38 5.88 L 6.33 6.0 L 6.29 6.12 L 6.25 6.25 L 6.21 6.38 L 6.17 6.5 L 6.12 6.62 L 6.08 6.75 L 6.04 6.88 L 6.0 7.0" fill="none" stroke="#111" stroke-width="1.23" stroke-linecap="round" stroke-linejoin="round"/>
<path d="M 6.0 7.0 L 6.0 8.0 L 6.0 9.0 L 6.0 10.0 L 6.0 11.0 L 6.0 12.0 L 6.0 13.0 L 6.0 14.0 L 6.0 15.0 L 6.0 16.0 L 6.0 17.0 L 6.0 18.0 L 6.0 19.0 L 6.0 20.0 L 6.0 21.0 L 6.0 22.0 L 6.0 23.0 L 6.0 24.0 L 6.0 25.0 L 6.0 26.0 L 6.0 27.0 L 6.0 28.0 L 6.0 29.0 L 6.0 30.0 L 6.0 31.0" fill="none" stroke="#111" stroke-width="1.23" stroke-linecap="round" stroke-linejoin="round"/>
<path d="M 7.0 7.0 L 7.2 7.24 L 7.42 7.47 L 7.66 7.69 L 7.9 7.89 L 8.16 8.08 L 8.43 8.24 L 8.71 8.39 L 9.0 8.53 L 9.3 8.64 L 9.6 8.73 L 9.91 8.81 L 10.23 8.86 L 10.54 8.9 L 10.86 8.91 L 11.18 8.91 L 11.49 8.88 L 11.81 8.84 L 12.12 8.77 L 12.43 8.68 L 12.73 8.58 L 13.02 8.46 L 13.31 8.31 L 13.58 8.15 L 13.84 7.98 L 14.0 8.0 L 14.33 8.21 L 14.67 8.42 L 15.0 8.62 L 15.33 8.83 L 15.67 9.04 L 16.0 9.25 L 16.33 9.46 L 16.67 9.67 L 17.0 9.88 L 17.33 10.08 L 17.67 10.29 L 18.0 10.5 L 18.33 10.71 L 18.67 10.92 L 19.0 11.12 L 19.33 11.33 L 19.67 11.54 L 20.0 11.75 L 20.33 11.96 L 20.67 12.17 L 21.0 12.38 L 21.33 12.58 L 21.67 12.79 L 22.0 13.0" fill="none" stroke="#111" stroke-width="1.23" stroke-linecap="round" stroke-linejoin="round"/>
<path d="M 6.0 11.0 L 6.33 11.08 L 6.67 11.17 L 7.0 11.25 L 7.33 11.33 L 7.67 11.42 L 8.0 11.5 L 8.33 11.58 L 8.67 11.67 L 9.0 11.75 L 9.33 11.83 L 9.67 11.92 L 10.0 12.0 L 10.33 12.08 L 10.67 12.17 L 11.0 12.25 L 11.33 12.33 L 11.67 12.42 L 12.0 12.5 L 12.33 12.58 L 12.67 12.67 L 13.0 12.75 L 13.33 12.83 L 13.67 12.92 L 14.0 13.0" fill="none" stroke="#111" stroke-width="1.23" stroke-linecap="round" stroke-linejoin="round"/>
<path d="M 8.0 16.0 L 8.48 16.23 L 8.94 16.49 L 9.38 16.79 L 9.79 17.12 L 10.18 17.48 L 10.54 17.87 L 10.87 18.28 L 11.17 18.72 L 11.44 19.18 L 11.67 19.66 L 11.87 20.15 L 12.02 20.66 L 12.15 21.17 L 12.23 21.7 L 12.27 22.22 L 12.27 22.76 L 12.24 23.28 L 12.16 23.81 L 12.05 24.33 L 11.89 24.83 L 11.7 25.33 L 11.48 25.81 L 11.22 26.27 L 10.92 26.71" fill="none" stroke="#111" stroke-width="1.23" stroke-linecap="round" stroke-linejoin="round"/>
<path d="M 10.0 19.0 L 9.88 19.12 L 9.75 19.25 L 9.62 19.38 L 9.5 19.5 L 9.38 19.62 L 9.25 19.75 L 9.12 19.88 L 9.0 20.0 L 8.88 20.12 L 8.75 20.25 L 8.62 20.38 L 8.5 20.5 L 8.38 20.62 L 8.25 20.75 L 8.12 20.88 L 8.0 21.0 L 7.88 21.12 L 7.75 21.25 L 7.62 21.38 L 7.5 21.5 L 7.38 21.62 L 7.25 21.75 L 7.12 21.88 L 7.0 22.0" fill="none" stroke="#111" stroke-width="1.23" stroke-linecap="round" stroke-linejoin="round"/>
<path d="M 12.0 15.0 L 12.21 15.21 L 12.42 15.42 L 12.62 15.62 L 12.83 15.83 L 13.04 16.04 L 13.25 16.25 L 13.46 16.46 L 13.67 16.67 L 13.88 16.88 L 14.08 17.08 L 14.29 17.29 L 14.5 17.5 L 14.71 17.71 L 14.92 17.92 L 15.12 18.12 L 15.33 18.33 L 15.54 18.54 L 15.75 18.75 L 15.96 18.96 L 16.17 19.17 L 16.38 19.38 L 16.58 19.58 L 16.79 19.79 L 17.0 20.0" fill="none" stroke="#111" stroke-width="1.23" stroke-linecap="round" stroke-linejoin="round"/>
<path d="M 17.0 20.0 L 16.96 20.38 L 16.92 20.75 L 16.88 21.12 L 16.83 21.5 L 16.79 21.88 L 16.75 22.25 L 16.71 22.62 L 16.67 23.0 L 16.62 23.38 L 16.58 23.75 L 16.54 24.12 L 16.5 24.5 L 16.46 24.88 L 16.42 25.25 L 16.38 25.62 L 16.33 26.0 L 16.29 26.38 L 16.25 26.75 L 16.21 27.12 L 16.17 27.5 L 16.12 27.88 L 16.08 28.25 L 16.04 28.62 L 16.0 29.0" fill="none" stroke="#111" stroke-width="1.23" stroke-linecap="round" stroke-linejoin="round"/>
<path d="M 15.0 18.0 L 14.92 18.46 L 14.83 18.92 L 14.75 19.38 L 14.67 19.83 L 14.58 20.29 L 14.5 20.75 L 14.42 21.21 L 14.33 21.67 L 14.25 22.12 L 14.17 22.58 L 14.08 23.04 L 14.0 23.5 L 13.92 23.96 L 13.83 24.42 L 13.75 24.88 L 13.67 25.33 L 13.58 25.79 L 13.5 26.25 L 13.42 26.71 L 13.33 27.17 L 13.25 27.62 L 13.17 28.08 L 13.08 28.54 L 13.0 29.0" fill="none" stroke="#111" stroke-width="1.23" stroke-linecap="round" stroke-linejoin="round"/>
</svg>
