<?xml version="1.0" encoding="UTF-8"?>
<svg xmlns="http://www.w3.org/2000/svg" viewBox="0 0 21.96 32.00">
<path d="M 5.03 5.0 L 4.84 5.39 L 4.67 5.79 L 4.51 6.19 L 4.38 6.61 L 4.26 7.03 L 4.17 7.45 L 4.09 7.88 L 4.04 8.31 L 4.01 8.75 L 4.0 9.18 L 4.01 9.62 L 4.04 10.05 L 4.1 10.48 L 4.17 10.91 L 4.27 11.34 L 4.39 11.75 L 4.52 12.17 L 4.68 12.57 L 4.85 12.97 L 5.05 13.36 L 5.26 13.74 L 5.5 14.11 L 5.75 14.46 L 6.02 14.8 L 6.03 15.0 L 5.99 15.38 L 5.95 15.75 L 5.91 16.12 L 5.87 16.5 L 5.83 16.88 L 5.78 17.25 L 5.74 17.62 L 5.7 18.0 L 5.66 18.38 L 5.62 18.75 L 5.58 19.12 L 5.53 19.5 L 5.49 19.88 L 5.45 20.25 L 5.41 20.62 L 5.37 21.0 L 5.33 21.38 L 5.28 21.75 L 5.24 22.12 L 5.2 22.5 L 5.16 22.88 L 5.12 23.25 L 5.08 23.62 L 5.03 24.0" fill="none" stroke="#111" stroke-width="1.12" stroke-linecap="round" stroke-linejoin="round"/>
<path d="M 10.03 4.0 L 9.95 4.29 L 9.87 4.58 L 9.78 4.88 L 9.7 5.17 L 9.62 5.46 L 9.53 5.75 L 9.45 6.04 L 9.37 6.33 L 9.28 6.62 L 9.2 6.92 L 9.12 7.21 L 9.03 7.5 L 8.95 7.79 L 8.87 8.08 L 8.78 8.38 L 8.7 8.67 L 8.62 8.96 L 8.53 9.25 L 8.45 9.54 L 8.37 9.83 L 8.28 10.12 L 8.2 10.42 L 8.12 10.71 L 8.03 11.0" fill="none" stroke="#111" stroke-width="1.12" stroke-linecap="round" stroke-linejoin="round"/>
<path d="M 10.03 4.0 L 10.48 4.32 L 10.89 4.67 L 11.27 5.06 L 11.61 5.49 L 11.91 5.94 L 12.17 6.42 L 12.39 6.92 L 12.55 7.43 L 12.68 7.96 L 12.75 8.5 L 12.77 9.05 L 12.75 9.59 L 12.68 10.13 L 12.55 10.66 L 12.38 11.18 L 12.17 11.68 L 11.91 12.15 L 11.61 12.61 L 11.27 13.03 L 10.89 13.42 L 10.48 13.78 L 10.03 14.09 L 9.56 14.37 L 9.07 14.6" fill="none" stroke="#111" stroke-width="1.12" stroke-linecap="round" stroke-linejoin="round"/>
<path d="M 9.03 8.0 L 9.54 8.19 L 10.04 8.41 L 10.53 8.64 L 11.02 8.89 L 11.49 9.15 L 11.96 9.43 L 12.41 9.73 L 12.85 10.05 L 13.28 10.38 L 13.7 10.73 L 14.1 11.09 L 14.49 11.47 L 14.87 11.86 L 15.23 12.27 L 15.58 12.68 L 15.91 13.11 L 16.23 13.56 L 16.53 14.01 L 16.81 14.47 L 17.08 14.95 L 17.33 15.43 L 17.56 15.92 L 17.77 16.42 L 17.96 16.93" fill="none" stroke="#111" stroke-width="1.12" stroke-linecap="round" stroke-linejoin="round"/>
<path d="M 8.03 17.0 L 7.81 17.68 L 7.72 18.39 L 7.75 19.11 L 7.91 19.81 L 8.2 20.47 L 8.6 21.07 L 9.1 21.58 L 9.68 22.0 L 10.33 22.3 L 11.03 22.49 L 11.74 22.54 L 12.46 22.46 L 13.15 22.26 L 13.79 21.93 L 14.36 21.5 L 14.84 20.97 L 15.22 20.36 L 15.49 19.69 L 15.63 18.98 L 15.64 18.27 L 15.52 17.56 L 15.27 16.88 L 14.91 16.26 L 14.44 15.72" fill="none" stroke="#111" stroke-width="1.12" stroke-linecap="round" stroke-linejoin="round"/>
<path d="M 8.03 19.0 L 8.24 18.96 L 8.45 18.92 L 8.66 18.88 L 8.87 18.83 L 9.08 18.79 L 9.28 18.75 L 9.49 18.71 L 9.7 18.67 L 9.91 18.62 L 10.12 18.58 L 10.33 18.54 L 10.53 18.5 L 10.74 18.46 L 10.95 18.42 L 11.16 18.38 L 11.37 18.33 L 11.58 18.29 L 11.78 18.25 L 11.99 18.21 L 12.2 18.17 L 12.41 18.12 L 12.62 18.08 L 12.83 18.04 L 13.03 18.0" fill="none" stroke="#111" stroke-width="1.12" stroke-linecap="round" stroke-linejoin="round"/>
<path d="M 8.03 24.0 L 8.03 24.12 L 8.03 24.25 L 8.03 24.38 L 8.03 24.5 L 8.03 24.62 L 8.03 24.75 L 8.03 24.88 L 8.03 25.0 L 8.03 25.12 L 8.03 25.25 L 8.03 25.38 L 8.03 25.5 L 8.03 25.62 L 8.03 25.75 L 8.03 25.88 L 8.03 26.0 L 8.03 26.12 L 8.03 26.25 L 8.03 26.38 L 8.03 26.5 L 8.03 26.62 L 8.03 26.75 L 8.03 26.88 L 8.03 27.0" fill="none" stroke="#111" stroke-width="1.12" stroke-linecap="round" stroke-linejoin="round"/>
<path d="M 12.03 25.0 L 12.03 25.12 L 12.03 25.25 L 12.03 25.38 L 12.03 25.5 L 12.03 25.62 L 12.03 25.75 L 12.03 25.88 L 12.03 26.0 L 12.03 26.12 L 12.03 26.25 L 12.03 26.38 L 12.03 26.5 L 12.03 26.62 L 12.03 26.75 L 12.03 26.88 L 12.03 27.0 L 12.03 27.12 L 12.03 27.25 L 12.03 27.38 L 12.03 27.5 L 12.03 27.62 L 12.03 27.75 L 12.03 27.88 L 12.03 28.0" fill="none" stroke="#111" stroke-width="1.12" stroke-linecap="round" stroke-linejoin="round"/>
<path d="M 15.03 24.0 L 15.08 24.08 L 15.12 24.17 L 15.16 24.25 L 15.2 24.33 L 15.24 24.42 L 15.28 24.5 L 15.33 24.58 L 15.37 24.67 L 15.41 24.75 L 15.45 24.83 L 15.49 24.92 L 15.53 25.0 L 15.58 25.08 L 15.62 25.17 L 15.66 25.25 L 15.7 25.33 L 15.74 25.42 L 15.78 25.5 L 15.83 25.58 L 15.87 25.67 L 15.91 25.75 L 15.95 25.83 L 15.99 25.92 L 16.03 26.0" fill="none" stroke="#111" stroke-width="1.12" stroke-linecap="round" stroke-linejoin="round"/>
</svg>
