<?xml version="1.0" encoding="UTF-8"?>
<svg xmlns="http://www.w3.org/2000/svg" viewBox="0 0 21.91 34.12">
<path d="M 6.91 5.0 L 7.33 4.96 L 7.75 4.92 L 8.16 4.88 L 8.58 4.83 L 9.0 4.79 L 9.41 4.75 L 9.83 4.71 L 10.25 4.67 L 10.66 4.62 L 11.08 4.58 L 11.5 4.54 L 11.91 4.5 L 12.33 4.46 L 12.75 4.42 L 13.16 4.38 L 13.58 4.33 L 14.0 4.29 L 14.41 4.25 L 14.83 4.21 L 15.25 4.17 L 15.66 4.12 L 16.08 4.08 L 16.5 4.04 L 16.91 4.0" fill="none" stroke="#111" stroke-width="1.19" stroke-linecap="round" stroke-linejoin="round"/>
<path d="M 11.91 4.0 L 11.91 4.25 L 11.91 4.5 L 11.91 4.75 L 11.91 5.0 L 11.91 5.25 L 11.91 5.5 L 11.91 5.75 L 11.91 6.0 L 11.91 6.25 L 11.91 6.5 L 11.91 6.75 L 11.91 7.0 L 11.91 7.25 L 11.91 7.5 L 11.91 7.75 L 11.91 8.0 L 11.91 8.25 L 11.91 8.5 L 11.91 8.75 L 11.91 9.0 L 11.91 9.25 L 11.91 9.5 L 11.91 9.75 L 11.91 10.0" fill="none" stroke="#111" stroke-width="1.19" stroke-linecap="round" stroke-linejoin="round"/>
<path d="M 6.91 5.0 L 6.91 5.21 L 6.91 5.42 L 6.91 5.62 L 6.91 5.83 L 6.91 6.04 L 6.91 6.25 L 6.91 6.46 L 6.91 6.67 L 6.91 6.88 L 6.91 7.08 L 6.91 7.29 L 6.91 7.5 L 6.91 7.71 L 6.91 7.92 L 6.91 8.12 L 6.91 8.33 L 6.91 8.54 L 6.91 8.75 L 6.91 8.96 L 6.91 9.17 L 6.91 9.38 L 6.91 9.58 L 6.91 9.79 L 6.91 10.0" fill="none" stroke="#111" stroke-width="1.19" stroke-linecap="round" stroke-linejoin="round"/>
<path d="M 16.91 4.0 L 16.91 4.17 L 16.91 4.33 L 16.91 4.5 L 16.91 4.67 L 16.91 4.83 L 16.91 5.0 L 16.91 5.17 L 16.91 5.33 L 16.91 5.5 L 16.91 5.67 L 16.91 5.83 L 16.91 6.0 L 16.91 6.17 L 16.91 6.33 L 16.91 6.5 L 16.91 6.67 L 16.91 6.83 L 16.91 7.0 L 16.91 7.17 L 16.91 7.33 L 16.91 7.5 L 16.91 7.67 L 16.91 7.83 L 16.91 8.0" fill="none" stroke="#111" stroke-width="1.19" stroke-linecap="round" stroke-linejoin="round"/>
<path d="M 9.91 7.0 L 9.91 7.08 L 9.91 7.17 L 9.91 7.25 L 9.91 7.33 L 9.91 7.42 L 9.91 7.5 L 9.91 7.58 L 9.91 7.67 L 9.91 7.75 L 9.91 7.83 L 9.91 7.92 L 9.91 8.0 L 9.91 8.08 L 9.91 8.17 L 9.91 8.25 L 9.91 8.33 L 9.91 8.42 L 9.91 8.5 L 9.91 8.58 L 9.91 8.67 L 9.91 8.75 L 9.91 8.83 L 9.91 8.92 L 9.91 9.0" fill="none" stroke="#111" stroke-width="1.19" stroke-linecap="round" stroke-linejoin="round"/>
<path d="M 13.91 6.0 L 13.96 6.12 L 14.0 6.25 L 14.04 6.38 L 14.08 6.5 L 14.12 6.62 L 14.16 6.75 L 14.21 6.88 L 14.25 7.0 L 14.29 7.12 L 14.33 7.25 L 14.37 7.38 L 14.41 7.5 L 14.46 7.62 L 14.5 7.75 L 14.54 7.88 L 14.58 8.0 L 14.62 8.12 L 14.66 8.25 L 14.71 8.38 L 14.75 8.5 L 14.79 8.62 L 14.83 8.75 L 14.87 8.88 L 14.91 9.0" fill="none" stroke="#111" stroke-width="1.19" stroke-linecap="round" stroke-linejoin="round"/>
<path d="M 12.91 11.0 L 12.67 11.27 L 12.44 11.55 L 12.22 11.83 L 12.0 12.13 L 11.8 12.42 L 11.6 12.73 L 11.42 13.04 L 11.24 13.36 L 11.08 13.68 L 10.92 14.01 L 10.78 14.34 L 10.64 14.68 L 10.52 15.02 L 10.41 15.37 L 10.31 15.72 L 10.22 16.07 L 10.15 16.42 L 10.08 16.78 L 10.03 17.14 L 9.99 17.5 L 9.96 17.86 L 9.94 18.22 L 9.93 18.58 L 9.93 18.95" fill="none" stroke="#111" stroke-width="1.19" stroke-linecap="round" stroke-linejoin="round"/>
<path d="M 12.91 11.0 L 13.0 11.29 L 13.08 11.58 L 13.16 11.88 L 13.25 12.17 L 13.33 12.46 L 13.41 12.75 L 13.5 13.04 L 13.58 13.33 L 13.66 13.62 L 13.75 13.92 L 13.83 14.21 L 13.91 14.5 L 14.0 14.79 L 14.08 15.08 L 14.16 15.38 L 14.25 15.67 L 14.33 15.96 L 14.41 16.25 L 14.5 16.54 L 14.58 16.83 L 14.66 17.12 L 14.75 17.42 L 14.83 17.71 L 14.91 18.0" fill="none" stroke="#111" stroke-width="1.19" stroke-linecap="round" stroke-linejoin="round"/>
<path d="M 13.91 15.0 L 13.26 15.01 L 12.62 15.07 L 11.97 15.17 L 11.34 15.32 L 10.71 15.5 L 10.1 15.73 L 9.51 15.99 L 8.93 16.3 L 8.38 16.64 L 7.85 17.02 L 7.35 17.43 L 6.87 17.87 L 6.43 18.35 L 6.02 18.85 L 5.64 19.38 L 5.3 19.93 L 4.99 20.51 L 4.73 21.1 L 4.5 21.71 L 4.32 22.34 L 4.17 22.97 L 4.07 23.62 L 4.01 24.26 L 4.0 24.91" fill="none" stroke="#111" stroke-width="1.19" stroke-linecap="round" stroke-linejoin="round"/>
<path d="M 8.91 24.0 L 8.72 24.75 L 8.66 25.53 L 8.73 26.31 L 8.92 27.06 L 9.24 27.77 L 9.68 28.41 L 10.22 28.97 L 10.85 29.44 L 11.54 29.79 L 12.28 30.02 L 13.06 30.12 L 13.83 30.09 L 14.6 29.93 L 15.32 29.64 L 15.98 29.23 L 16.57 28.72 L 17.06 28.12 L 17.45 27.44 L 17.71 26.71 L 17.85 25.94 L 17.85 25.16 L 17.73 24.4 L 17.48 23.66 L 17.1 22.98" fill="none" stroke="#111" stroke-width="1.19" stroke-linecap="round" stroke-linejoin="round"/>
<path d="M 8.91 25.0 L 9.25 25.0 L 9.58 25.0 L 9.91 25.0 L 10.25 25.0 L 10.58 25.0 L 10.91 25.0 L 11.25 25.0 L 11.58 25.0 L 11.91 25.0 L 12.25 25.0 L 12.58 25.0 L 12.91 25.0 L 13.25 25.0 L 13.58 25.0 L 13.91 25.0 L 14.25 25.0 L 14.58 25.0 L 14.91 25.0 L 15.25 25.0 L 15.58 25.0 L 15.91 25.0 L 16.25 25.0 L 16.58 25.0 L 16.91 25.0" fill="none" stroke="#111" stroke-width="1.19" stroke-linecap="round" stroke-linejoin="round"/>
<path d="M 7.91 12.0 L 7.87 12.08 L 7.83 12.17 L 7.79 12.25 L 7.75 12.33 L 7.71 12.42 L 7.66 12.5 L 7.62 12.58 L 7.58 12.67 L 7.54 12.75 L 7.5 12.83 L 7.46 12.92 L 7.41 13.0 L 7.37 13.08 L 7.33 13.17 L 7.29 13.25 L 7.25 13.33 L 7.21 13.42 L 7.16 13.5 L 7.12 13.58 L 7.08 13.67 L 7.04 13.75 L 7.0 13.83 L 6.96 13.92 L 6.91 14.0" fill="none" stroke="#111" stroke-width="1.19" stroke-linecap="round" stroke-linejoin="round"/>
<path d="M 15.91 11.0 L 15.96 11.12 L 16.0 11.25 L 16.04 11.38 L 16.08 11.5 L 16.12 11.62 L 16.16 11.75 L 16.21 11.88 L 16.25 12.0 L 16.29 12.12 L 16.33 12.25 L 16.37 12.38 L 16.41 12.5 L 16.46 12.62 L 16.5 12.75 L 16.54 12.88 L 16.58 13.0 L 16.62 13.12 L 16.66 13.25 L 16.71 13.38 L 16.75 13.5 L 16.79 13.62 L 16.83 13.75 L 16.87 13.88 L 16.91 14.0" fill="none" stroke="#111" stroke-width="1.19" stroke-linecap="round" stroke-linejoin="round"/>
<path d="M 16.91 15.0 L 16.96 15.12 L 17.0 15.25 L 17.04 15.38 L 17.08 15.5 L 17.12 15.62 L 17.16 15.75 L 17.21 15.88 L 17.25 16.0 L 17.29 16.12 L 17.33 16.25 L 17.37 16.38 L 17.41 16.5 L 17.46 16.62 L 17.5 16.75 L 17.54 16.88 L 17.58 17.0 L 17.62 17.12 L 17.66 17.25 L 17.71 17.38 L 17.75 17.5 L 17.79 17.62 L 17.83 17.75 L 17.87 17.88 L 17.91 18.0" fill="none" stroke="#111" stroke-width="1.19" stroke-linecap="round" stroke-linejoin="round"/>
<path d="M 7.91 20.0 L 7.96 20.12 L 8.0 20.25 L 8.04 20.38 L 8.08 20.5 L 8.12 20.62 L 8.16 20.75 L 8.21 20.88 L 8.25 21.0 L 8.29 21.12 L 8.33 21.25 L 8.37 21.38 L 8.41 21.5 L 8.46 21.62 L 8.5 21.75 L 8.54 21.88 L 8.58 22.0 L 8.62 22.12 L 8.66 22.25 L 8.71 22.38 L 8.75 22.5 L 8.79 22.62 L 8.83 22.75 L 8.87 22.88 L 8.91 23.0" fill="none" stroke="#111" stroke-width="1.19" stroke-linecap="round" stroke-linejoin="round"/>
<path d="M 12.91 19.0 L 12.91 19.12 L 12.91 19.25 L 12.91 19.38 L 12.91 19.5 L 12.91 19.62 L 12.91 19.75 L 12.91 19.88 L 12.91 20.0 L 12.91 20.12 L 12.91 20.25 L 12.91 20.38 L 12.91 20.5 L 12.91 20.62 L 12.91 20.75 L 12.91 20.88 L 12.91 21.0 L 12.91 21.12 L 12.91 21.25 L 12.91 21.38 L 12.91 21.5 L 12.91 21.62 L 12.91 21.75 L 12.91 21.88 L 12.91 22.0" fill="none" stroke="#111" stroke-width="1.19" stroke-linecap="round" stroke-linejoin="round"/>
</svg>
