<?xml version="1.0" encoding="UTF-8"?>
<svg xmlns="http://www.w3.org/2000/svg" viewBox="0 0 20.80 39.55">
<path d="M 10.0 4.0 L 9.5 4.12 L 9.02 4.29 L 8.56 4.51 L 8.11 4.76 L 7.69 5.05 L 7.3 5.38 L 6.93 5.74 L 6.61 6.13 L 6.32 6.55 L 6.06 7.0 L 5.85 7.46 L 5.68 7.95 L 5.56 8.44 L 5.48 8.95 L 5.44 9.46 L 5.46 9.97 L 5.51 10.48 L 5.62 10.98 L 5.76 11.47 L 5.95 11.94 L 6.19 12.4 L 6.46 12.83 L 6.77 13.24 L 7.12 13.62 L 7.0 14.0 L 6.46 15.02 L 6.0 16.08 L 5.62 17.17 L 5.33 18.29 L 5.14 19.42 L 5.03 20.57 L 5.02 21.73 L 5.1 22.88 L 5.27 24.02 L 5.53 25.15 L 5.87 26.25 L 6.31 27.31 L 6.83 28.35 L 7.43 29.33 L 8.11 30.27 L 8.85 31.15 L 9.67 31.96 L 10.55 32.71 L 11.48 33.39 L 12.47 33.99 L 13.5 34.51 L 14.57 34.94 L 15.67 35.29 L 16.8 35.55 L 12.0 25.0 L 11.88 25.33 L 11.75 25.67 L 11.62 26.0 L 11.5 26.33 L 11.38 26.67 L 11.25 27.0 L 11.12 27.33 L 11.0 27.67 L 10.88 28.0 L 10.75 28.33 L 10.62 28.67 L 10.5 29.0 L 10.38 29.33 L 10.25 29.67 L 10.12 30.0 L 10.0 30.33 L 9.88 30.67 L 9.75 31.0 L 9.62 31.33 L 9.5 31.67 L 9.38 32.0 L 9.25 32.33 L 9.12 32.67 L 9.0 33.0" fill="none" stroke="#111" stroke-width="1.38" stroke-linecap="round" stroke-linejoin="round"/>
<path d="M 8.0 6.0 L 7.92 6.29 L 7.83 6.58 L 7.75 6.88 L 7.67 7.17 L 7.58 7.46 L 7.5 7.75 L 7.42 8.04 L 7.33 8.33 L 7.25 8.62 L 7.17 8.92 L 7.08 9.21 L 7.0 9.5 L 6.92 9.79 L 6.83 10.08 L 6.75 10.38 L 6.67 10.67 L 6.58 10.96 L 6.5 11.25 L 6.42 11.54 L 6.33 11.83 L 6.25 12.12 L 6.17 12.42 L 6.08 12.71 L 6.0 13.0 L 6.0 13.0 L 5.63 13.42 L 5.31 13.88 L 5.04 14.37 L 4.82 14.89 L 4.66 15.43 L 4.56 15.98 L 4.51 16.54 L 4.53 17.1 L 4.6 17.65 L 4.74 18.2 L 4.93 18.72 L 5.17 19.23 L 5.47 19.7 L 5.82 20.14 L 6.21 20.54 L 6.64 20.9 L 7.11 21.21 L 7.61 21.47 L 8.13 21.67 L 8.67 21.82 L 9.22 21.91 L 9.78 21.94 L 10.34 21.91 L 10.9 21.82" fill="none" stroke="#111" stroke-width="1.38" stroke-linecap="round" stroke-linejoin="round"/>
<path d="M 9.0 13.0 L 8.92 13.17 L 8.83 13.33 L 8.75 13.5 L 8.67 13.67 L 8.58 13.83 L 8.5 14.0 L 8.42 14.17 L 8.33 14.33 L 8.25 14.5 L 8.17 14.67 L 8.08 14.83 L 8.0 15.0 L 7.92 15.17 L 7.83 15.33 L 7.75 15.5 L 7.67 15.67 L 7.58 15.83 L 7.5 16.0 L 7.42 16.17 L 7.33 16.33 L 7.25 16.5 L 7.17 16.67 L 7.08 16.83 L 7.0 17.0" fill="none" stroke="#111" stroke-width="1.38" stroke-linecap="round" stroke-linejoin="round"/>
<path d="M 7.0 14.0 L 6.88 14.12 L 6.75 14.25 L 6.62 14.38 L 6.5 14.5 L 6.38 14.62 L 6.25 14.75 L 6.12 14.88 L 6.0 15.0 L 5.88 15.12 L 5.75 15.25 L 5.62 15.38 L 5.5 15.5 L 5.38 15.62 L 5.25 15.75 L 5.12 15.88 L 5.0 16.0 L 4.88 16.12 L 4.75 16.25 L 4.62 16.38 L 4.5 16.5 L 4.38 16.62 L 4.25 16.75 L 4.12 16.88 L 4.0 17.0" fill="none" stroke="#111" stroke-width="1.38" stroke-linecap="round" stroke-linejoin="round"/>
<path d="M 13.0 11.0 L 12.92 11.25 L 12.83 11.5 L 12.75 11.75 L 12.67 12.0 L 12.58 12.25 L 12.5 12.5 L 12.42 12.75 L 12.33 13.0 L 12.25 13.25 L 12.17 13.5 L 12.08 13.75 L 12.0 14.0 L 11.92 14.25 L 11.83 14.5 L 11.75 14.75 L 11.67 15.0 L 11.58 15.25 L 11.5 15.5 L 11.42 15.75 L 11.33 16.0 L 11.25 16.25 L 11.17 16.5 L 11.08 16.75 L 11.0 17.0" fill="none" stroke="#111" stroke-width="1.38" stroke-linecap="round" stroke-linejoin="round"/>
</svg>
