<?xml version="1.0" encoding="UTF-8"?>
<svg xmlns="http://www.w3.org/2000/svg" viewBox="0 0 25.36 26.87">
<path d="M 5.36 6.0 L 5.14 6.68 L 4.95 7.37 L 4.77 8.06 L 4.61 8.76 L 4.46 9.46 L 4.34 10.16 L 4.24 10.87 L 4.15 11.58 L 4.09 12.29 L 4.04 13.01 L 4.01 13.72 L 4.0 14.44 L 4.01 15.15 L 4.04 15.87 L 4.09 16.58 L 4.15 17.29 L 4.24 18.0 L 4.34 18.71 L 4.46 19.41 L 4.61 20.11 L 4.77 20.81 L 4.95 21.5 L 5.14 22.19 L 5.36 22.87" fill="none" stroke="#111" stroke-width="0.94" stroke-linecap="round" stroke-linejoin="round"/>
<path d="M 21.36 4.0 L 21.01 4.39 L 20.68 4.8 L 20.37 5.23 L 20.09 5.68 L 19.83 6.14 L 19.6 6.62 L 19.4 7.1 L 19.23 7.6 L 19.08 8.11 L 18.97 8.62 L 18.88 9.14 L 18.82 9.67 L 18.79 10.19 L 18.79 10.72 L 18.82 11.25 L 18.88 11.77 L 18.97 12.29 L 19.09 12.81 L 19.24 13.31 L 19.41 13.81 L 19.62 14.3 L 19.85 14.77 L 20.1 15.23 L 20.38 15.68 L 20.36 16.0 L 20.32 16.17 L 20.27 16.33 L 20.23 16.5 L 20.19 16.67 L 20.15 16.83 L 20.11 17.0 L 20.07 17.17 L 20.02 17.33 L 19.98 17.5 L 19.94 17.67 L 19.9 17.83 L 19.86 18.0 L 19.82 18.17 L 19.77 18.33 L 19.73 18.5 L 19.69 18.67 L 19.65 18.83 L 19.61 19.0 L 19.57 19.17 L 19.52 19.33 L 19.48 19.5 L 19.44 19.67 L 19.4 19.83 L 19.36 20.0" fill="none" stroke="#111" stroke-width="0.94" stroke-linecap="round" stroke-linejoin="round"/>
<path d="M 8.36 18.0 L 8.36 18.08 L 8.36 18.17 L 8.36 18.25 L 8.36 18.33 L 8.36 18.42 L 8.36 18.5 L 8.36 18.58 L 8.36 18.67 L 8.36 18.75 L 8.36 18.83 L 8.36 18.92 L 8.36 19.0 L 8.36 19.08 L 8.36 19.17 L 8.36 19.25 L 8.36 19.33 L 8.36 19.42 L 8.36 19.5 L 8.36 19.58 L 8.36 19.67 L 8.36 19.75 L 8.36 19.83 L 8.36 19.92 L 8.36 20.0" fill="none" stroke="#111" stroke-width="0.94" stroke-linecap="round" stroke-linejoin="round"/>
<path d="M 17.36 14.0 L 17.32 14.12 L 17.27 14.25 L 17.23 14.38 L 17.19 14.5 L 17.15 14.62 L 17.11 14.75 L 17.07 14.88 L 17.02 15.0 L 16.98 15.12 L 16.94 15.25 L 16.9 15.38 L 16.86 15.5 L 16.82 15.62 L 16.77 15.75 L 16.73 15.88 L 16.69 16.0 L 16.65 16.12 L 16.61 16.25 L 16.57 16.38 L 16.52 16.5 L 16.48 16.62 L 16.44 16.75 L 16.4 16.88 L 16.36 17.0" fill="none" stroke="#111" stroke-width="0.94" stroke-linecap="round" stroke-linejoin="round"/>
<path d="M 8.36 6.0 L 8.94 6.07 L 9.52 6.21 L 10.07 6.41 L 10.6 6.67 L 11.1 6.99 L 11.56 7.36 L 11.97 7.79 L 12.34 8.25 L 12.65 8.75 L 12.9 9.28 L 13.09 9.84 L 13.22 10.42 L 13.29 11.0 L 13.29 11.59 L 13.22 12.18 L 13.09 12.76 L 12.89 13.31 L 12.64 13.85 L 12.32 14.35 L 11.96 14.81 L 11.54 15.23 L 11.08 15.6 L 10.58 15.91 L 10.05 16.17 L 9.36 12.0 L 9.64 11.84 L 9.91 11.64 L 10.15 11.43 L 10.37 11.18 L 10.56 10.92 L 10.72 10.63 L 10.85 10.33 L 10.95 10.02 L 11.02 9.7 L 11.05 9.38 L 11.05 9.05 L 11.01 8.73 L 10.94 8.41 L 10.84 8.1 L 10.7 7.8 L 10.53 7.52 L 10.34 7.26 L 10.12 7.02 L 9.87 6.8 L 9.6 6.61 L 9.32 6.45 L 9.02 6.32 L 8.71 6.23 L 8.39 6.16" fill="none" stroke="#111" stroke-width="0.94" stroke-linecap="round" stroke-linejoin="round"/>
<path d="M 13.36 4.0 L 13.97 4.01 L 14.57 4.09 L 15.16 4.23 L 15.74 4.43 L 16.28 4.7 L 16.8 5.02 L 17.28 5.39 L 17.72 5.82 L 18.11 6.28 L 18.45 6.79 L 18.73 7.33 L 18.95 7.9 L 19.12 8.48 L 19.21 9.08 L 19.25 9.69 L 19.21 10.3 L 19.12 10.9 L 18.96 11.49 L 18.74 12.05 L 18.46 12.59 L 18.12 13.1 L 17.73 13.57 L 17.29 13.99 L 16.81 14.37 L 15.36 10.0 L 15.54 9.76 L 15.71 9.51 L 15.85 9.24 L 15.97 8.97 L 16.06 8.68 L 16.13 8.39 L 16.17 8.09 L 16.19 7.79 L 16.19 7.49 L 16.15 7.19 L 16.09 6.89 L 16.01 6.6 L 15.9 6.32 L 15.77 6.05 L 15.62 5.79 L 15.44 5.54 L 15.25 5.31 L 15.03 5.1 L 14.8 4.91 L 14.56 4.74 L 14.29 4.58 L 14.02 4.46 L 13.74 4.35 L 13.45 4.27" fill="none" stroke="#111" stroke-width="0.94" stroke-linecap="round" stroke-linejoin="round"/>
<path d="M 10.36 11.0 L 10.92 11.17 L 11.47 11.38 L 12.0 11.65 L 12.5 11.96 L 12.97 12.31 L 13.41 12.71 L 13.81 13.15 L 14.17 13.61 L 14.48 14.11 L 14.75 14.64 L 14.97 15.19 L 15.14 15.75 L 15.25 16.33 L 15.32 16.92 L 15.33 17.51 L 15.29 18.09 L 15.19 18.68 L 15.04 19.25 L 14.84 19.8 L 14.6 20.34 L 14.3 20.85 L 13.96 21.33 L 13.58 21.78 L 13.16 22.19" fill="none" stroke="#111" stroke-width="0.94" stroke-linecap="round" stroke-linejoin="round"/>
<path d="M 14.36 10.0 L 14.32 10.08 L 14.27 10.17 L 14.23 10.25 L 14.19 10.33 L 14.15 10.42 L 14.11 10.5 L 14.07 10.58 L 14.02 10.67 L 13.98 10.75 L 13.94 10.83 L 13.9 10.92 L 13.86 11.0 L 13.82 11.08 L 13.77 11.17 L 13.73 11.25 L 13.69 11.33 L 13.65 11.42 L 13.61 11.5 L 13.57 11.58 L 13.52 11.67 L 13.48 11.75 L 13.44 11.83 L 13.4 11.92 L 13.36 12.0" fill="none" stroke="#111" stroke-width="0.94" stroke-linecap="round" stroke-linejoin="round"/>
<path d="M 10.36 15.0 L 10.61 15.25 L 10.86 15.5 L 11.11 15.75 L 11.36 16.0 L 11.61 16.25 L 11.86 16.5 L 12.11 16.75 L 12.36 17.0 L 12.61 17.25 L 12.86 17.5 L 13.11 17.75 L 13.36 18.0 L 13.61 18.25 L 13.86 18.5 L 14.11 18.75 L 14.36 19.0 L 14.61 19.25 L 14.86 19.5 L 15.11 19.75 L 15.36 20.0 L 15.61 20.25 L 15.86 20.5 L 16.11 20.75 L 16.36 21.0" fill="none" stroke="#111" stroke-width="0.94" stroke-linecap="round" stroke-linejoin="round"/>
<path d="M 16.36 12.0 L 16.11 12.42 L 15.86 12.83 L 15.61 13.25 L 15.36 13.67 L 15.11 14.08 L 14.86 14.5 L 14.61 14.92 L 14.36 15.33 L 14.11 15.75 L 13.86 16.17 L 13.61 16.58 L 13.36 17.0 L 13.11 17.42 L 12.86 17.83 L 12.61 18.25 L 12.36 18.67 L 12.11 19.08 L 11.86 19.5 L 11.61 19.92 L 11.36 20.33 L 11.11 20.75 L 10.86 21.17 L 10.61 21.58 L 10.36 22.0" fill="none" stroke="#111" stroke-width="0.94" stroke-linecap="round" stroke-linejoin="round"/>
<path d="M 17.36 9.0 L 17.36 9.08 L 17.36 9.17 L 17.36 9.25 L 17.36 9.33 L 17.36 9.42 L 17.36 9.5 L 17.36 9.58 L 17.36 9.67 L 17.36 9.75 L 17.36 9.83 L 17.36 9.92 L 17.36 10.0 L 17.36 10.08 L 17.36 10.17 L 17.36 10.25 L 17.36 10.33 L 17.36 10.42 L 17.36 10.5 L 17.36 10.58 L 17.36 10.67 L 17.36 10.75 L 17.36 10.83 L 17.36 10.92 L 17.36 11.0" fill="none" stroke="#111" stroke-width="0.94" stroke-linecap="round" stroke-linejoin="round"/>
</svg>
