<?xml version="1.0" encoding="UTF-8"?>
<svg xmlns="http://www.w3.org/2000/svg" viewBox="0 0 23.00 36.00">
<path d="M 7.0 5.0 L 7.46 4.96 L 7.92 4.92 L 8.38 4.88 L 8.83 4.83 L 9.29 4.79 L 9.75 4.75 L 10.21 4.71 L 10.67 4.67 L 11.12 4.62 L 11.58 4.58 L 12.04 4.54 L 12.5 4.5 L 12.96 4.46 L 13.42 4.42 L 13.88 4.38 L 14.33 4.33 L 14.79 4.29 L 15.25 4.25 L 15.71 4.21 L 16.17 4.17 L 16.62 4.12 L 17.08 4.08 L 17.54 4.04 L 18.0 4.0" fill="none" stroke="#111" stroke-width="1.26" stroke-linecap="round" stroke-linejoin="round"/>
<path d="M 7.0 5.0 L 7.0 5.17 L 7.0 5.33 L 7.0 5.5 L 7.0 5.67 L 7.0 5.83 L 7.0 6.0 L 7.0 6.17 L 7.0 6.33 L 7.0 6.5 L 7.0 6.67 L 7.0 6.83 L 7.0 7.0 L 7.0 7.17 L 7.0 7.33 L 7.0 7.5 L 7.0 7.67 L 7.0 7.83 L 7.0 8.0 L 7.0 8.17 L 7.0 8.33 L 7.0 8.5 L 7.0 8.67 L 7.0 8.83 L 7.0 9.0" fill="none" stroke="#111" stroke-width="1.26" stroke-linecap="round" stroke-linejoin="round"/>
<path d="M 13.0 5.0 L 13.0 5.12 L 13.0 5.25 L 13.0 5.38 L 13.0 5.5 L 13.0 5.62 L 13.0 5.75 L 13.0 5.88 L 13.0 6.0 L 13.0 6.12 L 13.0 6.25 L 13.0 6.38 L 13.0 6.5 L 13.0 6.62 L 13.0 6.75 L 13.0 6.88 L 13.0 7.0 L 13.0 7.12 L 13.0 7.25 L 13.0 7.38 L 13.0 7.5 L 13.0 7.62 L 13.0 7.75 L 13.0 7.88 L 13.0 8.0" fill="none" stroke="#111" stroke-width="1.26" stroke-linecap="round" stroke-linejoin="round"/>
<path d="M 18.0 4.0 L 18.0 4.17 L 18.0 4.33 L 18.0 4.5 L 18.0 4.67 L 18.0 4.83 L 18.0 5.0 L 18.0 5.17 L 18.0 5.33 L 18.0 5.5 L 18.0 5.67 L 18.0 5.83 L 18.0 6.0 L 18.0 6.17 L 18.0 6.33 L 18.0 6.5 L 18.0 6.67 L 18.0 6.83 L 18.0 7.0 L 18.0 7.17 L 18.0 7.33 L 18.0 7.5 L 18.0 7.67 L 18.0 7.83 L 18.0 8.0" fill="none" stroke="#111" stroke-width="1.26" stroke-linecap="round" stroke-linejoin="round"/>
<path d="M 12.0 10.0 L 12.08 10.27 L 12.17 10.54 L 12.27 10.8 L 12.39 11.06 L 12.52 11.3 L 12.67 11.55 L 12.83 11.78 L 13.0 12.0 L 13.18 12.22 L 13.38 12.42 L 13.58 12.61 L 13.8 12.8 L 14.02 12.97 L 14.26 13.12 L 14.5 13.27 L 14.75 13.4 L 15.0 13.52 L 15.27 13.62 L 15.53 13.71 L 15.81 13.79 L 16.08 13.85 L 16.36 13.89 L 16.64 13.92 L 16.92 13.94 L 17.0 14.0 L 17.08 14.21 L 17.17 14.42 L 17.25 14.62 L 17.33 14.83 L 17.42 15.04 L 17.5 15.25 L 17.58 15.46 L 17.67 15.67 L 17.75 15.88 L 17.83 16.08 L 17.92 16.29 L 18.0 16.5 L 18.08 16.71 L 18.17 16.92 L 18.25 17.12 L 18.33 17.33 L 18.42 17.54 L 18.5 17.75 L 18.58 17.96 L 18.67 18.17 L 18.75 18.38 L 18.83 18.58 L 18.92 18.79 L 19.0 19.0 L 19.0 19.0 L 18.56 18.97 L 18.12 18.92 L 17.69 18.86 L 17.25 18.78 L 16.82 18.69 L 16.4 18.57 L 15.98 18.44 L 15.56 18.3 L 15.15 18.14 L 14.75 17.96 L 14.35 17.77 L 13.96 17.56 L 13.58 17.34 L 13.21 17.11 L 12.85 16.86 L 12.49 16.6 L 12.15 16.32 L 11.82 16.03 L 11.5 15.73 L 11.19 15.41 L 10.9 15.09 L 10.61 14.75 L 10.34 14.4 L 10.08 14.05 L 10.0 14.0 L 10.08 13.83 L 10.17 13.67 L 10.25 13.5 L 10.33 13.33 L 10.42 13.17 L 10.5 13.0 L 10.58 12.83 L 10.67 12.67 L 10.75 12.5 L 10.83 12.33 L 10.92 12.17 L 11.0 12.0 L 11.08 11.83 L 11.17 11.67 L 11.25 11.5 L 11.33 11.33 L 11.42 11.17 L 11.5 11.0 L 11.58 10.83 L 11.67 10.67 L 11.75 10.5 L 11.83 10.33 L 11.92 10.17 L 12.0 10.0" fill="none" stroke="#111" stroke-width="1.26" stroke-linecap="round" stroke-linejoin="round"/>
<path d="M 11.0 15.0 L 11.12 14.92 L 11.25 14.83 L 11.38 14.75 L 11.5 14.67 L 11.62 14.58 L 11.75 14.5 L 11.88 14.42 L 12.0 14.33 L 12.12 14.25 L 12.25 14.17 L 12.38 14.08 L 12.5 14.0 L 12.62 13.92 L 12.75 13.83 L 12.88 13.75 L 13.0 13.67 L 13.12 13.58 L 13.25 13.5 L 13.38 13.42 L 13.5 13.33 L 13.62 13.25 L 13.75 13.17 L 13.88 13.08 L 14.0 13.0" fill="none" stroke="#111" stroke-width="1.26" stroke-linecap="round" stroke-linejoin="round"/>
<path d="M 13.0 17.0 L 13.08 16.88 L 13.17 16.75 L 13.25 16.62 L 13.33 16.5 L 13.42 16.38 L 13.5 16.25 L 13.58 16.12 L 13.67 16.0 L 13.75 15.88 L 13.83 15.75 L 13.92 15.62 L 14.0 15.5 L 14.08 15.38 L 14.17 15.25 L 14.25 15.12 L 14.33 15.0 L 14.42 14.88 L 14.5 14.75 L 14.58 14.62 L 14.67 14.5 L 14.75 14.38 L 14.83 14.25 L 14.92 14.12 L 15.0 14.0" fill="none" stroke="#111" stroke-width="1.26" stroke-linecap="round" stroke-linejoin="round"/>
<path d="M 13.0 17.0 L 12.71 17.05 L 12.41 17.09 L 12.11 17.12 L 11.82 17.15 L 11.52 17.17 L 11.22 17.18 L 10.92 17.18 L 10.62 17.17 L 10.33 17.16 L 10.03 17.13 L 9.73 17.1 L 9.43 17.07 L 9.14 17.02 L 8.85 16.96 L 8.55 16.9 L 8.26 16.83 L 7.98 16.76 L 7.69 16.67 L 7.41 16.58 L 7.13 16.48 L 6.85 16.37 L 6.57 16.26 L 6.3 16.13 L 6.03 16.0" fill="none" stroke="#111" stroke-width="1.26" stroke-linecap="round" stroke-linejoin="round"/>
<path d="M 13.0 17.0 L 13.43 17.58 L 13.81 18.2 L 14.16 18.84 L 14.45 19.5 L 14.69 20.18 L 14.89 20.88 L 15.03 21.59 L 15.12 22.31 L 15.16 23.03 L 15.15 23.76 L 15.09 24.48 L 14.97 25.19 L 14.8 25.9 L 14.59 26.59 L 14.32 27.26 L 14.0 27.92 L 13.64 28.54 L 13.24 29.14 L 12.79 29.71 L 12.3 30.25 L 11.77 30.75 L 11.21 31.21 L 10.62 31.63 L 10.0 32.0" fill="none" stroke="#111" stroke-width="1.26" stroke-linecap="round" stroke-linejoin="round"/>
<path d="M 15.0 26.0 L 14.66 26.04 L 14.33 26.07 L 13.99 26.09 L 13.65 26.11 L 13.31 26.12 L 12.97 26.12 L 12.64 26.12 L 12.3 26.1 L 11.96 26.09 L 11.62 26.06 L 11.28 26.03 L 10.95 25.99 L 10.61 25.95 L 10.28 25.89 L 9.95 25.83 L 9.61 25.77 L 9.28 25.7 L 8.95 25.62 L 8.63 25.53 L 8.3 25.44 L 7.98 25.34 L 7.66 25.23 L 7.34 25.12 L 7.02 25.0" fill="none" stroke="#111" stroke-width="1.26" stroke-linecap="round" stroke-linejoin="round"/>
<path d="M 11.0 17.0 L 10.91 17.38 L 10.84 17.77 L 10.78 18.16 L 10.74 18.56 L 10.72 18.95 L 10.7 19.34 L 10.71 19.74 L 10.72 20.13 L 10.76 20.53 L 10.81 20.92 L 10.87 21.31 L 10.95 21.69 L 11.04 22.08 L 11.15 22.46 L 11.27 22.83 L 11.41 23.2 L 11.56 23.57 L 11.72 23.93 L 11.9 24.28 L 12.09 24.62 L 12.3 24.96 L 12.51 25.29 L 12.74 25.61 L 12.98 25.92" fill="none" stroke="#111" stroke-width="1.26" stroke-linecap="round" stroke-linejoin="round"/>
<path d="M 4.0 23.0 L 4.17 23.0 L 4.33 23.0 L 4.5 23.0 L 4.67 23.0 L 4.83 23.0 L 5.0 23.0 L 5.17 23.0 L 5.33 23.0 L 5.5 23.0 L 5.67 23.0 L 5.83 23.0 L 6.0 23.0 L 6.17 23.0 L 6.33 23.0 L 6.5 23.0 L 6.67 23.0 L 6.83 23.0 L 7.0 23.0 L 7.17 23.0 L 7.33 23.0 L 7.5 23.0 L 7.67 23.0 L 7.83 23.0 L 8.0 23.0" fill="none" stroke="#111" stroke-width="1.26" stroke-linecap="round" stroke-linejoin="round"/>
<path d="M 5.0 12.0 L 5.0 12.17 L 5.0 12.33 L 5.0 12.5 L 5.0 12.67 L 5.0 12.83 L 5.0 13.0 L 5.0 13.17 L 5.0 13.33 L 5.0 13.5 L 5.0 13.67 L 5.0 13.83 L 5.0 14.0 L 5.0 14.17 L 5.0 14.33 L 5.0 14.5 L 5.0 14.67 L 5.0 14.83 L 5.0 15.0 L 5.0 15.17 L 5.0 15.33 L 5.0 15.5 L 5.0 15.67 L 5.0 15.83 L 5.0 16.0" fill="none" stroke="#111" stroke-width="1.26" stroke-linecap="round" stroke-linejoin="round"/>
<path d="M 15.0 8.0 L 15.04 8.17 L 15.08 8.33 L 15.12 8.5 L 15.17 8.67 L 15.21 8.83 L 15.25 9.0 L 15.29 9.17 L 15.33 9.33 L 15.38 9.5 L 15.42 9.67 L 15.46 9.83 L 15.5 10.0 L 15.54 10.17 L 15.58 10.33 L 15.62 10.5 L 15.67 10.67 L 15.71 10.83 L 15.75 11.0 L 15.79 11.17 L 15.83 11.33 L 15.88 11.5 L 15.92 11.67 L 15.96 11.83 L 16.0 12.0" fill="none" stroke="#111" stroke-width="1.26" stroke-linecap="round" stroke-linejoin="round"/>
<path d="M 9.0 10.0 L 9.0 10.17 L 9.0 10.33 L 9.0 10.5 L 9.0 10.67 L 9.0 10.83 L 9.0 11.0 L 9.0 11.17 L 9.0 11.33 L 9.0 11.5 L 9.0 11.67 L 9.0 11.83 L 9.0 12.0 L 9.0 12.17 L 9.0 12.33 L 9.0 12.5 L 9.0 12.67 L 9.0 12.83 L 9.0 13.0 L 9.0 13.17 L 9.0 13.33 L 9.0 13.5 L 9.0 13.67 L 9.0 13.83 L 9.0 14.0" fill="none" stroke="#111" stroke-width="1.26" stroke-linecap="round" stroke-linejoin="round"/>
</svg>
