<?xml version="1.0" encoding="UTF-8"?>
<svg xmlns="http://www.w3.org/2000/svg" viewBox="0 0 18.00 33.00">
<path d="M 4.0 4.0 L 4.0 4.58 L 4.0 5.17 L 4.0 5.75 L 4.0 6.33 L 4.0 6.92 L 4.0 7.5 L 4.0 8.08 L 4.0 8.67 L 4.0 9.25 L 4.0 9.83 L 4.0 10.42 L 4.0 11.0 L 4.0 11.58 L 4.0 12.17 L 4.0 12.75 L 4.0 13.33 L 4.0 13.92 L 4.0 14.5 L 4.0 15.08 L 4.0 15.67 L 4.0 16.25 L 4.0 16.83 L 4.0 17.42 L 4.0 18.0" fill="none" stroke="#111" stroke-width="1.16" stroke-linecap="round" stroke-linejoin="round"/>
<path d="M 14.0 4.0 L 14.0 4.58 L 14.0 5.17 L 14.0 5.75 L 14.0 6.33 L 14.0 6.92 L 14.0 7.5 L 14.0 8.08 L 14.0 8.67 L 14.0 9.25 L 14.0 9.83 L 14.0 10.42 L 14.0 11.0 L 14.0 11.58 L 14.0 12.17 L 14.0 12.75 L 14.0 13.33 L 14.0 13.92 L 14.0 14.5 L 14.0 15.08 L 14.0 15.67 L 14.0 16.25 L 14.0 16.83 L 14.0 17.42 L 14.0 18.0" fill="none" stroke="#111" stroke-width="1.16" stroke-linecap="round" stroke-linejoin="round"/>
<path d="M 4.0 4.0 L 4.42 4.25 L 4.83 4.5 L 5.25 4.75 L 5.67 5.0 L 6.08 5.25 L 6.5 5.5 L 6.92 5.75 L 7.33 6.0 L 7.75 6.25 L 8.17 6.5 L 8.58 6.75 L 9.0 7.0 L 9.42 7.25 L 9.83 7.5 L 10.25 7.75 L 10.67 8.0 L 11.08 8.25 L 11.5 8.5 L 11.92 8.75 L 12.33 9.0 L 12.75 9.25 L 13.17 9.5 L 13.58 9.75 L 14.0 10.0" fill="none" stroke="#111" stroke-width="1.16" stroke-linecap="round" stroke-linejoin="round"/>
<path d="M 4.0 8.0 L 4.42 8.29 L 4.83 8.58 L 5.25 8.88 L 5.67 9.17 L 6.08 9.46 L 6.5 9.75 L 6.92 10.04 L 7.33 10.33 L 7.75 10.62 L 8.17 10.92 L 8.58 11.21 L 9.0 11.5 L 9.42 11.79 L 9.83 12.08 L 10.25 12.38 L 10.67 12.67 L 11.08 12.96 L 11.5 13.25 L 11.92 13.54 L 12.33 13.83 L 12.75 14.12 L 13.17 14.42 L 13.58 14.71 L 14.0 15.0" fill="none" stroke="#111" stroke-width="1.16" stroke-linecap="round" stroke-linejoin="round"/>
<path d="M 13.0 4.0 L 12.63 4.33 L 12.25 4.67 L 11.88 5.0 L 11.5 5.33 L 11.13 5.67 L 10.75 6.0 L 10.38 6.33 L 10.0 6.67 L 9.63 7.0 L 9.25 7.33 L 8.88 7.67 L 8.5 8.0 L 8.13 8.33 L 7.75 8.67 L 7.38 9.0 L 7.0 9.33 L 6.63 9.67 L 6.25 10.0 L 5.88 10.33 L 5.5 10.67 L 5.13 11.0 L 4.75 11.33 L 4.38 11.67 L 4.0 12.0" fill="none" stroke="#111" stroke-width="1.16" stroke-linecap="round" stroke-linejoin="round"/>
<path d="M 13.0 9.0 L 12.63 9.25 L 12.25 9.5 L 11.88 9.75 L 11.5 10.0 L 11.13 10.25 L 10.75 10.5 L 10.38 10.75 L 10.0 11.0 L 9.63 11.25 L 9.25 11.5 L 8.88 11.75 L 8.5 12.0 L 8.12 12.25 L 7.75 12.5 L 7.38 12.75 L 7.0 13.0 L 6.63 13.25 L 6.25 13.5 L 5.88 13.75 L 5.5 14.0 L 5.13 14.25 L 4.75 14.5 L 4.38 14.75 L 4.0 15.0" fill="none" stroke="#111" stroke-width="1.16" stroke-linecap="round" stroke-linejoin="round"/>
<path d="M 9.0 20.0 L 8.96 19.88 L 8.92 19.75 L 8.88 19.62 L 8.83 19.5 L 8.79 19.38 L 8.75 19.25 L 8.71 19.12 L 8.67 19.0 L 8.63 18.88 L 8.58 18.75 L 8.54 18.62 L 8.5 18.5 L 8.46 18.38 L 8.42 18.25 L 8.38 18.12 L 8.33 18.0 L 8.29 17.88 L 8.25 17.75 L 8.21 17.62 L 8.17 17.5 L 8.13 17.38 L 8.08 17.25 L 8.04 17.12 L 8.0 17.0 L 8.0 17.0 L 7.51 17.24 L 7.05 17.52 L 6.61 17.84 L 6.2 18.2 L 5.83 18.6 L 5.49 19.03 L 5.2 19.48 L 4.94 19.96 L 4.73 20.46 L 4.56 20.98 L 4.44 21.51 L 4.37 22.04 L 4.34 22.59 L 4.37 23.13 L 4.44 23.67 L 4.56 24.2 L 4.72 24.72 L 4.93 25.22 L 5.19 25.7 L 5.48 26.15 L 5.82 26.58 L 6.19 26.97 L 6.59 27.34 L 7.03 27.66 L 7.0 28.0 L 7.04 27.92 L 7.08 27.83 L 7.13 27.75 L 7.17 27.67 L 7.21 27.58 L 7.25 27.5 L 7.29 27.42 L 7.33 27.33 L 7.38 27.25 L 7.42 27.17 L 7.46 27.08 L 7.5 27.0 L 7.54 26.92 L 7.58 26.83 L 7.63 26.75 L 7.67 26.67 L 7.71 26.58 L 7.75 26.5 L 7.79 26.42 L 7.83 26.33 L 7.88 26.25 L 7.92 26.17 L 7.96 26.08 L 8.0 26.0 L 8.0 26.0 L 8.0 26.0 L 8.0 26.0 L 8.0 26.0 L 8.0 26.0 L 8.0 26.0 L 8.0 26.0 L 8.0 26.0 L 8.0 26.0 L 8.0 26.0 L 8.0 26.0 L 8.0 26.0 L 8.0 26.0 L 8.0 26.0 L 8.0 26.0 L 8.0 26.0 L 8.0 26.0 L 8.0 26.0 L 8.0 26.0 L 8.0 26.0 L 8.0 26.0 L 8.0 26.0 L 8.0 26.0 L 8.0 26.0 L 8.0 26.0" fill="none" stroke="#111" stroke-width="1.16" stroke-linecap="round" stroke-linejoin="round"/>
<path d="M 7.0 24.0 L 6.92 24.04 L 6.83 24.08 L 6.75 24.12 L 6.67 24.17 L 6.58 24.21 L 6.5 24.25 L 6.42 24.29 L 6.33 24.33 L 6.25 24.38 L 6.17 24.42 L 6.08 24.46 L 6.0 24.5 L 5.92 24.54 L 5.83 24.58 L 5.75 24.62 L 5.67 24.67 L 5.58 24.71 L 5.5 24.75 L 5.42 24.79 L 5.33 24.83 L 5.25 24.88 L 5.17 24.92 L 5.08 24.96 L 5.0 25.0" fill="none" stroke="#111" stroke-width="1.16" stroke-linecap="round" stroke-linejoin="round"/>
<path d="M 9.0 19.0 L 9.04 18.92 L 9.08 18.83 L 9.13 18.75 L 9.17 18.67 L 9.21 18.58 L 9.25 18.5 L 9.29 18.42 L 9.33 18.33 L 9.38 18.25 L 9.42 18.17 L 9.46 18.08 L 9.5 18.0 L 9.54 17.92 L 9.58 17.83 L 9.63 17.75 L 9.67 17.67 L 9.71 17.58 L 9.75 17.5 L 9.79 17.42 L 9.83 17.33 L 9.88 17.25 L 9.92 17.17 L 9.96 17.08 L 10.0 17.0 L 10.0 17.0 L 10.5 17.29 L 10.98 17.62 L 11.42 17.99 L 11.84 18.39 L 12.21 18.83 L 12.55 19.3 L 12.85 19.79 L 13.11 20.31 L 13.32 20.85 L 13.49 21.41 L 13.61 21.97 L 13.68 22.55 L 13.71 23.12 L 13.68 23.7 L 13.61 24.28 L 13.49 24.84 L 13.32 25.4 L 13.11 25.93 L 12.85 26.45 L 12.55 26.95 L 12.21 27.41 L 11.83 27.85 L 11.42 28.26 L 10.97 28.62 L 11.0 29.0 L 10.92 28.83 L 10.83 28.67 L 10.75 28.5 L 10.67 28.33 L 10.58 28.17 L 10.5 28.0 L 10.42 27.83 L 10.33 27.67 L 10.25 27.5 L 10.17 27.33 L 10.08 27.17 L 10.0 27.0 L 9.92 26.83 L 9.83 26.67 L 9.75 26.5 L 9.67 26.33 L 9.58 26.17 L 9.5 26.0 L 9.42 25.83 L 9.33 25.67 L 9.25 25.5 L 9.17 25.33 L 9.08 25.17 L 9.0 25.0" fill="none" stroke="#111" stroke-width="1.16" stroke-linecap="round" stroke-linejoin="round"/>
<path d="M 11.0 24.0 L 11.08 24.04 L 11.17 24.08 L 11.25 24.12 L 11.33 24.17 L 11.42 24.21 L 11.5 24.25 L 11.58 24.29 L 11.67 24.33 L 11.75 24.38 L 11.83 24.42 L 11.92 24.46 L 12.0 24.5 L 12.08 24.54 L 12.17 24.58 L 12.25 24.62 L 12.33 24.67 L 12.42 24.71 L 12.5 24.75 L 12.58 24.79 L 12.67 24.83 L 12.75 24.88 L 12.83 24.92 L 12.92 24.96 L 13.0 25.0" fill="none" stroke="#111" stroke-width="1.16" stroke-linecap="round" stroke-linejoin="round"/>
</svg>
