<?xml version="1.0" encoding="UTF-8"?>
<svg xmlns="http://www.w3.org/2000/svg" viewBox="0 0 28.00 29.00">
<path d="M 8.0 4.0 L 8.0 4.88 L 8.0 5.75 L 8.0 6.62 L 8.0 7.5 L 8.0 8.38 L 8.0 9.25 L 8.0 10.12 L 8.0 11.0 L 8.0 11.88 L 8.0 12.75 L 8.0 13.62 L 8.0 14.5 L 8.0 15.38 L 8.0 16.25 L 8.0 17.12 L 8.0 18.0 L 8.0 18.88 L 8.0 19.75 L 8.0 20.62 L 8.0 21.5 L 8.0 22.38 L 8.0 23.25 L 8.0 24.12 L 8.0 25.0" fill="none" stroke="#111" stroke-width="1.02" stroke-linecap="round" stroke-linejoin="round"/>
<path d="M 20.0 4.0 L 20.0 4.88 L 20.0 5.75 L 20.0 6.62 L 20.0 7.5 L 20.0 8.38 L 20.0 9.25 L 20.0 10.12 L 20.0 11.0 L 20.0 11.88 L 20.0 12.75 L 20.0 13.62 L 20.0 14.5 L 20.0 15.38 L 20.0 16.25 L 20.0 17.12 L 20.0 18.0 L 20.0 18.88 L 20.0 19.75 L 20.0 20.62 L 20.0 21.5 L 20.0 22.38 L 20.0 23.25 L 20.0 24.12 L 20.0 25.0" fill="none" stroke="#111" stroke-width="1.02" stroke-linecap="round" stroke-linejoin="round"/>
<path d="M 8.0 8.0 L 8.5 8.0 L 9.0 8.0 L 9.5 8.0 L 10.0 8.0 L 10.5 8.0 L 11.0 8.0 L 11.5 8.0 L 12.0 8.0 L 12.5 8.0 L 13.0 8.0 L 13.5 8.0 L 14.0 8.0 L 14.5 8.0 L 15.0 8.0 L 15.5 8.0 L 16.0 8.0 L 16.5 8.0 L 17.0 8.0 L 17.5 8.0 L 18.0 8.0 L 18.5 8.0 L 19.0 8.0 L 19.5 8.0 L 20.0 8.0" fill="none" stroke="#111" stroke-width="1.02" stroke-linecap="round" stroke-linejoin="round"/>
<path d="M 8.0 10.0 L 8.25 10.04 L 8.5 10.08 L 8.75 10.12 L 9.0 10.17 L 9.25 10.21 L 9.5 10.25 L 9.75 10.29 L 10.0 10.33 L 10.25 10.38 L 10.5 10.42 L 10.75 10.46 L 11.0 10.5 L 11.25 10.54 L 11.5 10.58 L 11.75 10.62 L 12.0 10.67 L 12.25 10.71 L 12.5 10.75 L 12.75 10.79 L 13.0 10.83 L 13.25 10.88 L 13.5 10.92 L 13.75 10.96 L 14.0 11.0 L 14.0 11.0 L 14.25 10.96 L 14.5 10.92 L 14.75 10.88 L 15.0 10.83 L 15.25 10.79 L 15.5 10.75 L 15.75 10.71 L 16.0 10.67 L 16.25 10.62 L 16.5 10.58 L 16.75 10.54 L 17.0 10.5 L 17.25 10.46 L 17.5 10.42 L 17.75 10.38 L 18.0 10.33 L 18.25 10.29 L 18.5 10.25 L 18.75 10.21 L 19.0 10.17 L 19.25 10.12 L 19.5 10.08 L 19.75 10.04 L 20.0 10.0" fill="none" stroke="#111" stroke-width="1.02" stroke-linecap="round" stroke-linejoin="round"/>
<path d="M 8.0 17.0 L 8.44 17.27 L 8.89 17.52 L 9.36 17.75 L 9.83 17.96 L 10.31 18.16 L 10.79 18.33 L 11.29 18.49 L 11.79 18.62 L 12.29 18.74 L 12.8 18.83 L 13.31 18.9 L 13.82 18.96 L 14.34 18.99 L 14.86 19.0 L 15.37 18.99 L 15.89 18.96 L 16.4 18.91 L 16.92 18.84 L 17.42 18.75 L 17.93 18.64 L 18.43 18.51 L 18.92 18.35 L 19.41 18.18 L 19.89 17.99" fill="none" stroke="#111" stroke-width="1.02" stroke-linecap="round" stroke-linejoin="round"/>
<path d="M 8.0 4.0 L 8.17 4.0 L 8.33 4.0 L 8.5 4.0 L 8.67 4.0 L 8.83 4.0 L 9.0 4.0 L 9.17 4.0 L 9.33 4.0 L 9.5 4.0 L 9.67 4.0 L 9.83 4.0 L 10.0 4.0 L 10.17 4.0 L 10.33 4.0 L 10.5 4.0 L 10.67 4.0 L 10.83 4.0 L 11.0 4.0 L 11.17 4.0 L 11.33 4.0 L 11.5 4.0 L 11.67 4.0 L 11.83 4.0 L 12.0 4.0 L 12.0 4.0 L 12.04 4.17 L 12.08 4.33 L 12.12 4.5 L 12.17 4.67 L 12.21 4.83 L 12.25 5.0 L 12.29 5.17 L 12.33 5.33 L 12.38 5.5 L 12.42 5.67 L 12.46 5.83 L 12.5 6.0 L 12.54 6.17 L 12.58 6.33 L 12.62 6.5 L 12.67 6.67 L 12.71 6.83 L 12.75 7.0 L 12.79 7.17 L 12.83 7.33 L 12.88 7.5 L 12.92 7.67 L 12.96 7.83 L 13.0 8.0" fill="none" stroke="#111" stroke-width="1.02" stroke-linecap="round" stroke-linejoin="round"/>
<path d="M 16.0 4.0 L 16.17 4.0 L 16.33 4.0 L 16.5 4.0 L 16.67 4.0 L 16.83 4.0 L 17.0 4.0 L 17.17 4.0 L 17.33 4.0 L 17.5 4.0 L 17.67 4.0 L 17.83 4.0 L 18.0 4.0 L 18.17 4.0 L 18.33 4.0 L 18.5 4.0 L 18.67 4.0 L 18.83 4.0 L 19.0 4.0 L 19.17 4.0 L 19.33 4.0 L 19.5 4.0 L 19.67 4.0 L 19.83 4.0 L 20.0 4.0" fill="none" stroke="#111" stroke-width="1.02" stroke-linecap="round" stroke-linejoin="round"/>
<path d="M 16.0 4.0 L 16.0 4.17 L 16.0 4.33 L 16.0 4.5 L 16.0 4.67 L 16.0 4.83 L 16.0 5.0 L 16.0 5.17 L 16.0 5.33 L 16.0 5.5 L 16.0 5.67 L 16.0 5.83 L 16.0 6.0 L 16.0 6.17 L 16.0 6.33 L 16.0 6.5 L 16.0 6.67 L 16.0 6.83 L 16.0 7.0 L 16.0 7.17 L 16.0 7.33 L 16.0 7.5 L 16.0 7.67 L 16.0 7.83 L 16.0 8.0" fill="none" stroke="#111" stroke-width="1.02" stroke-linecap="round" stroke-linejoin="round"/>
<path d="M 5.0 17.0 L 5.12 17.12 L 5.25 17.25 L 5.38 17.38 L 5.5 17.5 L 5.62 17.62 L 5.75 17.75 L 5.88 17.88 L 6.0 18.0 L 6.12 18.12 L 6.25 18.25 L 6.38 18.38 L 6.5 18.5 L 6.62 18.62 L 6.75 18.75 L 6.88 18.88 L 7.0 19.0 L 7.12 19.12 L 7.25 19.25 L 7.38 19.38 L 7.5 19.5 L 7.62 19.62 L 7.75 19.75 L 7.88 19.88 L 8.0 20.0" fill="none" stroke="#111" stroke-width="1.02" stroke-linecap="round" stroke-linejoin="round"/>
<path d="M 8.0 20.0 L 7.83 20.17 L 7.67 20.33 L 7.5 20.5 L 7.33 20.67 L 7.17 20.83 L 7.0 21.0 L 6.83 21.17 L 6.67 21.33 L 6.5 21.5 L 6.33 21.67 L 6.17 21.83 L 6.0 22.0 L 5.83 22.17 L 5.67 22.33 L 5.5 22.5 L 5.33 22.67 L 5.17 22.83 L 5.0 23.0 L 4.83 23.17 L 4.67 23.33 L 4.5 23.5 L 4.33 23.67 L 4.17 23.83 L 4.0 24.0" fill="none" stroke="#111" stroke-width="1.02" stroke-linecap="round" stroke-linejoin="round"/>
<path d="M 20.0 18.0 L 20.17 18.21 L 20.33 18.42 L 20.5 18.62 L 20.67 18.83 L 20.83 19.04 L 21.0 19.25 L 21.17 19.46 L 21.33 19.67 L 21.5 19.88 L 21.67 20.08 L 21.83 20.29 L 22.0 20.5 L 22.17 20.71 L 22.33 20.92 L 22.5 21.12 L 22.67 21.33 L 22.83 21.54 L 23.0 21.75 L 23.17 21.96 L 23.33 22.17 L 23.5 22.38 L 23.67 22.58 L 23.83 22.79 L 24.0 23.0" fill="none" stroke="#111" stroke-width="1.02" stroke-linecap="round" stroke-linejoin="round"/>
</svg>
