<?xml version="1.0" encoding="UTF-8"?>
<svg xmlns="http://www.w3.org/2000/svg" viewBox="0 0 24.00 35.00">
<path d="M 7.0 8.0 L 6.85 8.69 L 6.81 9.39 L 6.86 10.08 L 7.01 10.77 L 7.26 11.42 L 7.59 12.04 L 8.02 12.6 L 8.51 13.09 L 9.07 13.51 L 9.69 13.85 L 10.35 14.09 L 11.03 14.24 L 11.73 14.29 L 12.43 14.24 L 13.12 14.09 L 13.77 13.85 L 14.39 13.51 L 14.95 13.09 L 15.45 12.59 L 15.87 12.03 L 16.2 11.42 L 16.45 10.76 L 16.6 10.08 L 16.65 9.38" fill="none" stroke="#111" stroke-width="1.23" stroke-linecap="round" stroke-linejoin="round"/>
<path d="M 9.0 15.0 L 9.22 15.68 L 9.4 16.38 L 9.56 17.08 L 9.67 17.78 L 9.76 18.5 L 9.81 19.21 L 9.82 19.93 L 9.8 20.64 L 9.75 21.36 L 9.66 22.07 L 9.53 22.78 L 9.38 23.48 L 9.19 24.17 L 8.96 24.85 L 8.71 25.52 L 8.42 26.18 L 8.1 26.82 L 7.75 27.44 L 7.37 28.05 L 6.96 28.64 L 6.52 29.21 L 6.06 29.76 L 5.57 30.28 L 5.05 30.78" fill="none" stroke="#111" stroke-width="1.23" stroke-linecap="round" stroke-linejoin="round"/>
<path d="M 9.0 25.0 L 9.17 25.25 L 9.33 25.5 L 9.5 25.75 L 9.67 26.0 L 9.83 26.25 L 10.0 26.5 L 10.17 26.75 L 10.33 27.0 L 10.5 27.25 L 10.67 27.5 L 10.83 27.75 L 11.0 28.0 L 11.17 28.25 L 11.33 28.5 L 11.5 28.75 L 11.67 29.0 L 11.83 29.25 L 12.0 29.5 L 12.17 29.75 L 12.33 30.0 L 12.5 30.25 L 12.67 30.5 L 12.83 30.75 L 13.0 31.0" fill="none" stroke="#111" stroke-width="1.23" stroke-linecap="round" stroke-linejoin="round"/>
<path d="M 9.0 15.0 L 9.0 15.0 L 9.0 15.0 L 9.0 15.0 L 9.0 15.0 L 9.0 15.0 L 9.0 15.0 L 9.0 15.0 L 9.0 15.0 L 9.0 15.0 L 9.0 15.0 L 9.0 15.0 L 9.0 15.0 L 9.0 15.0 L 9.0 15.0 L 9.0 15.0 L 9.0 15.0 L 9.0 15.0 L 9.0 15.0 L 9.0 15.0 L 9.0 15.0 L 9.0 15.0 L 9.0 15.0 L 9.0 15.0 L 9.0 15.0" fill="none" stroke="#111" stroke-width="1.23" stroke-linecap="round" stroke-linejoin="round"/>
<path d="M 10.0 4.0 L 10.0 4.29 L 10.0 4.58 L 10.0 4.88 L 10.0 5.17 L 10.0 5.46 L 10.0 5.75 L 10.0 6.04 L 10.0 6.33 L 10.0 6.62 L 10.0 6.92 L 10.0 7.21 L 10.0 7.5 L 10.0 7.79 L 10.0 8.08 L 10.0 8.38 L 10.0 8.67 L 10.0 8.96 L 10.0 9.25 L 10.0 9.54 L 10.0 9.83 L 10.0 10.12 L 10.0 10.42 L 10.0 10.71 L 10.0 11.0" fill="none" stroke="#111" stroke-width="1.23" stroke-linecap="round" stroke-linejoin="round"/>
<path d="M 7.0 11.0 L 7.25 11.04 L 7.5 11.08 L 7.75 11.12 L 8.0 11.17 L 8.25 11.21 L 8.5 11.25 L 8.75 11.29 L 9.0 11.33 L 9.25 11.38 L 9.5 11.42 L 9.75 11.46 L 10.0 11.5 L 10.25 11.54 L 10.5 11.58 L 10.75 11.62 L 11.0 11.67 L 11.25 11.71 L 11.5 11.75 L 11.75 11.79 L 12.0 11.83 L 12.25 11.88 L 12.5 11.92 L 12.75 11.96 L 13.0 12.0" fill="none" stroke="#111" stroke-width="1.23" stroke-linecap="round" stroke-linejoin="round"/>
<path d="M 15.0 7.0 L 15.65 7.39 L 16.27 7.83 L 16.85 8.32 L 17.39 8.85 L 17.89 9.43 L 18.34 10.04 L 18.74 10.69 L 19.08 11.36 L 19.38 12.06 L 19.61 12.79 L 19.79 13.53 L 19.91 14.28 L 19.97 15.03 L 19.97 15.79 L 19.9 16.55 L 19.78 17.3 L 19.6 18.04 L 19.36 18.76 L 19.07 19.46 L 18.72 20.13 L 18.32 20.78 L 17.86 21.39 L 17.37 21.96 L 16.82 22.49" fill="none" stroke="#111" stroke-width="1.23" stroke-linecap="round" stroke-linejoin="round"/>
<path d="M 14.0 24.0 L 14.17 23.96 L 14.33 23.92 L 14.5 23.88 L 14.67 23.83 L 14.83 23.79 L 15.0 23.75 L 15.17 23.71 L 15.33 23.67 L 15.5 23.62 L 15.67 23.58 L 15.83 23.54 L 16.0 23.5 L 16.17 23.46 L 16.33 23.42 L 16.5 23.38 L 16.67 23.33 L 16.83 23.29 L 17.0 23.25 L 17.17 23.21 L 17.33 23.17 L 17.5 23.12 L 17.67 23.08 L 17.83 23.04 L 18.0 23.0" fill="none" stroke="#111" stroke-width="1.23" stroke-linecap="round" stroke-linejoin="round"/>
<path d="M 9.0 15.0 L 9.25 15.33 L 9.5 15.67 L 9.75 16.0 L 10.0 16.33 L 10.25 16.67 L 10.5 17.0 L 10.75 17.33 L 11.0 17.67 L 11.25 18.0 L 11.5 18.33 L 11.75 18.67 L 12.0 19.0 L 12.25 19.33 L 12.5 19.67 L 12.75 20.0 L 13.0 20.33 L 13.25 20.67 L 13.5 21.0 L 13.75 21.33 L 14.0 21.67 L 14.25 22.0 L 14.5 22.33 L 14.75 22.67 L 15.0 23.0" fill="none" stroke="#111" stroke-width="1.23" stroke-linecap="round" stroke-linejoin="round"/>
<path d="M 14.0 16.0 L 13.92 16.29 L 13.83 16.58 L 13.75 16.88 L 13.67 17.17 L 13.58 17.46 L 13.5 17.75 L 13.42 18.04 L 13.33 18.33 L 13.25 18.62 L 13.17 18.92 L 13.08 19.21 L 13.0 19.5 L 12.92 19.79 L 12.83 20.08 L 12.75 20.38 L 12.67 20.67 L 12.58 20.96 L 12.5 21.25 L 12.42 21.54 L 12.33 21.83 L 12.25 22.12 L 12.17 22.42 L 12.08 22.71 L 12.0 23.0" fill="none" stroke="#111" stroke-width="1.23" stroke-linecap="round" stroke-linejoin="round"/>
<path d="M 9.0 15.0 L 8.79 15.33 L 8.58 15.67 L 8.38 16.0 L 8.17 16.33 L 7.96 16.67 L 7.75 17.0 L 7.54 17.33 L 7.33 17.67 L 7.12 18.0 L 6.92 18.33 L 6.71 18.67 L 6.5 19.0 L 6.29 19.33 L 6.08 19.67 L 5.88 20.0 L 5.67 20.33 L 5.46 20.67 L 5.25 21.0 L 5.04 21.33 L 4.83 21.67 L 4.62 22.0 L 4.42 22.33 L 4.21 22.67 L 4.0 23.0" fill="none" stroke="#111" stroke-width="1.23" stroke-linecap="round" stroke-linejoin="round"/>
<path d="M 13.0 11.0 L 13.29 11.0 L 13.58 11.0 L 13.88 11.0 L 14.17 11.0 L 14.46 11.0 L 14.75 11.0 L 15.04 11.0 L 15.33 11.0 L 15.62 11.0 L 15.92 11.0 L 16.21 11.0 L 16.5 11.0 L 16.79 11.0 L 17.08 11.0 L 17.38 11.0 L 17.67 11.0 L 17.96 11.0 L 18.25 11.0 L 18.54 11.0 L 18.83 11.0 L 19.12 11.0 L 19.42 11.0 L 19.71 11.0 L 20.0 11.0" fill="none" stroke="#111" stroke-width="1.23" stroke-linecap="round" stroke-linejoin="round"/>
</svg>
