<?xml version="1.0" encoding="UTF-8"?>
<svg xmlns="http://www.w3.org/2000/svg" viewBox="0 0 21.00 38.00">
<path d="M 11.0 17.0 L 10.48 17.31 L 9.99 17.66 L 9.54 18.06 L 9.12 18.49 L 8.74 18.96 L 8.41 19.47 L 8.12 20.0 L 7.89 20.55 L 7.7 21.13 L 7.56 21.71 L 7.48 22.31 L 7.46 22.92 L 7.48 23.52 L 7.56 24.12 L 7.7 24.7 L 7.89 25.28 L 8.12 25.83 L 8.41 26.36 L 8.74 26.87 L 9.12 27.34 L 9.54 27.77 L 9.99 28.17 L 10.48 28.52 L 11.0 28.83 L 11.0 29.0 L 11.31 28.86 L 11.61 28.69 L 11.9 28.51 L 12.18 28.31 L 12.45 28.09 L 12.7 27.86 L 12.94 27.61 L 13.15 27.34 L 13.36 27.07 L 13.54 26.77 L 13.7 26.47 L 13.85 26.16 L 13.97 25.84 L 14.08 25.52 L 14.16 25.18 L 14.22 24.84 L 14.27 24.5 L 14.28 24.16 L 14.28 23.82 L 14.26 23.48 L 14.21 23.13 L 14.14 22.8 L 14.05 22.47 L 13.94 22.14 L 14.0 22.0 L 13.88 21.79 L 13.75 21.58 L 13.62 21.38 L 13.5 21.17 L 13.38 20.96 L 13.25 20.75 L 13.12 20.54 L 13.0 20.33 L 12.88 20.12 L 12.75 19.92 L 12.62 19.71 L 12.5 19.5 L 12.38 19.29 L 12.25 19.08 L 12.12 18.88 L 12.0 18.67 L 11.88 18.46 L 11.75 18.25 L 11.62 18.04 L 11.5 17.83 L 11.38 17.62 L 11.25 17.42 L 11.13 17.21 L 11.0 17.0" fill="none" stroke="#111" stroke-width="1.33" stroke-linecap="round" stroke-linejoin="round"/>
<path d="M 5.0 7.0 L 5.04 7.29 L 5.08 7.58 L 5.12 7.88 L 5.17 8.17 L 5.21 8.46 L 5.25 8.75 L 5.29 9.04 L 5.33 9.33 L 5.38 9.62 L 5.42 9.92 L 5.46 10.21 L 5.5 10.5 L 5.54 10.79 L 5.58 11.08 L 5.62 11.38 L 5.67 11.67 L 5.71 11.96 L 5.75 12.25 L 5.79 12.54 L 5.83 12.83 L 5.88 13.12 L 5.92 13.42 L 5.96 13.71 L 6.0 14.0" fill="none" stroke="#111" stroke-width="1.33" stroke-linecap="round" stroke-linejoin="round"/>
<path d="M 8.0 5.0 L 8.21 5.0 L 8.42 5.0 L 8.62 5.0 L 8.83 5.0 L 9.04 5.0 L 9.25 5.0 L 9.46 5.0 L 9.67 5.0 L 9.88 5.0 L 10.08 5.0 L 10.29 5.0 L 10.5 5.0 L 10.71 5.0 L 10.92 5.0 L 11.12 5.0 L 11.33 5.0 L 11.54 5.0 L 11.75 5.0 L 11.96 5.0 L 12.17 5.0 L 12.38 5.0 L 12.58 5.0 L 12.79 5.0 L 13.0 5.0" fill="none" stroke="#111" stroke-width="1.33" stroke-linecap="round" stroke-linejoin="round"/>
<path d="M 10.0 4.0 L 10.04 4.54 L 10.08 5.08 L 10.12 5.62 L 10.17 6.17 L 10.21 6.71 L 10.25 7.25 L 10.29 7.79 L 10.33 8.33 L 10.38 8.88 L 10.42 9.42 L 10.46 9.96 L 10.5 10.5 L 10.54 11.04 L 10.58 11.58 L 10.62 12.13 L 10.67 12.67 L 10.71 13.21 L 10.75 13.75 L 10.79 14.29 L 10.83 14.83 L 10.88 15.38 L 10.92 15.92 L 10.96 16.46 L 11.0 17.0" fill="none" stroke="#111" stroke-width="1.33" stroke-linecap="round" stroke-linejoin="round"/>
<path d="M 5.0 10.0 L 5.42 10.0 L 5.83 10.0 L 6.25 10.0 L 6.67 10.0 L 7.08 10.0 L 7.5 10.0 L 7.92 10.0 L 8.33 10.0 L 8.75 10.0 L 9.17 10.0 L 9.58 10.0 L 10.0 10.0 L 10.42 10.0 L 10.83 10.0 L 11.25 10.0 L 11.67 10.0 L 12.08 10.0 L 12.5 10.0 L 12.92 10.0 L 13.33 10.0 L 13.75 10.0 L 14.17 10.0 L 14.58 10.0 L 15.0 10.0" fill="none" stroke="#111" stroke-width="1.33" stroke-linecap="round" stroke-linejoin="round"/>
<path d="M 14.0 7.0 L 14.04 7.29 L 14.08 7.58 L 14.12 7.88 L 14.17 8.17 L 14.21 8.46 L 14.25 8.75 L 14.29 9.04 L 14.33 9.33 L 14.38 9.62 L 14.42 9.92 L 14.46 10.21 L 14.5 10.5 L 14.54 10.79 L 14.58 11.08 L 14.62 11.38 L 14.67 11.67 L 14.71 11.96 L 14.75 12.25 L 14.79 12.54 L 14.83 12.83 L 14.88 13.12 L 14.92 13.42 L 14.96 13.71 L 15.0 14.0" fill="none" stroke="#111" stroke-width="1.33" stroke-linecap="round" stroke-linejoin="round"/>
<path d="M 4.0 19.0 L 4.0 19.21 L 4.0 19.42 L 4.0 19.62 L 4.0 19.83 L 4.0 20.04 L 4.0 20.25 L 4.0 20.46 L 4.0 20.67 L 4.0 20.88 L 4.0 21.08 L 4.0 21.29 L 4.0 21.5 L 4.0 21.71 L 4.0 21.92 L 4.0 22.12 L 4.0 22.33 L 4.0 22.54 L 4.0 22.75 L 4.0 22.96 L 4.0 23.17 L 4.0 23.38 L 4.0 23.58 L 4.0 23.79 L 4.0 24.0" fill="none" stroke="#111" stroke-width="1.33" stroke-linecap="round" stroke-linejoin="round"/>
<path d="M 10.0 20.0 L 10.0 20.21 L 10.0 20.42 L 10.0 20.62 L 10.0 20.83 L 10.0 21.04 L 10.0 21.25 L 10.0 21.46 L 10.0 21.67 L 10.0 21.88 L 10.0 22.08 L 10.0 22.29 L 10.0 22.5 L 10.0 22.71 L 10.0 22.92 L 10.0 23.12 L 10.0 23.33 L 10.0 23.54 L 10.0 23.75 L 10.0 23.96 L 10.0 24.17 L 10.0 24.38 L 10.0 24.58 L 10.0 24.79 L 10.0 25.0" fill="none" stroke="#111" stroke-width="1.33" stroke-linecap="round" stroke-linejoin="round"/>
<path d="M 16.0 18.0 L 16.04 18.12 L 16.08 18.25 L 16.12 18.38 L 16.17 18.5 L 16.21 18.62 L 16.25 18.75 L 16.29 18.88 L 16.33 19.0 L 16.38 19.12 L 16.42 19.25 L 16.46 19.38 L 16.5 19.5 L 16.54 19.62 L 16.58 19.75 L 16.62 19.88 L 16.67 20.0 L 16.71 20.12 L 16.75 20.25 L 16.79 20.38 L 16.83 20.5 L 16.88 20.62 L 16.92 20.75 L 16.96 20.88 L 17.0 21.0" fill="none" stroke="#111" stroke-width="1.33" stroke-linecap="round" stroke-linejoin="round"/>
<path d="M 11.0 30.0 L 11.0 30.17 L 11.0 30.33 L 11.0 30.5 L 11.0 30.67 L 11.0 30.83 L 11.0 31.0 L 11.0 31.17 L 11.0 31.33 L 11.0 31.5 L 11.0 31.67 L 11.0 31.83 L 11.0 32.0 L 11.0 32.17 L 11.0 32.33 L 11.0 32.5 L 11.0 32.67 L 11.0 32.83 L 11.0 33.0 L 11.0 33.17 L 11.0 33.33 L 11.0 33.5 L 11.0 33.67 L 11.0 33.83 L 11.0 34.0" fill="none" stroke="#111" stroke-width="1.33" stroke-linecap="round" stroke-linejoin="round"/>
</svg>
