<?xml version="1.0" encoding="UTF-8"?>
<svg xmlns="http://www.w3.org/2000/svg" viewBox="0 0 18.97 35.47">
<path d="M 12.97 7.0 L 12.34 7.87 L 11.75 8.77 L 11.2 9.7 L 10.69 10.64 L 10.23 11.61 L 9.8 12.6 L 9.42 13.61 L 9.08 14.63 L 8.79 15.67 L 8.55 16.72 L 8.35 17.77 L 8.2 18.84 L 8.09 19.91 L 8.04 20.99 L 8.03 22.06 L 8.06 23.14 L 8.15 24.21 L 8.28 25.28 L 8.46 26.34 L 8.68 27.39 L 8.95 28.43 L 9.27 29.46 L 9.63 30.48 L 10.04 31.47" fill="none" stroke="#111" stroke-width="1.24" stroke-linecap="round" stroke-linejoin="round"/>
<path d="M 7.97 4.0 L 7.77 4.64 L 7.61 5.3 L 7.5 5.97 L 7.44 6.64 L 7.42 7.32 L 7.45 7.99 L 7.52 8.66 L 7.64 9.33 L 7.81 9.98 L 8.02 10.62 L 8.28 11.25 L 8.58 11.85 L 8.92 12.44 L 9.3 13.0 L 9.72 13.53 L 10.17 14.03 L 10.66 14.49 L 11.18 14.93 L 11.73 15.32 L 12.3 15.68 L 12.9 15.99 L 13.52 16.27 L 14.15 16.5 L 14.8 16.68" fill="none" stroke="#111" stroke-width="1.24" stroke-linecap="round" stroke-linejoin="round"/>
<path d="M 5.97 15.0 L 6.22 15.56 L 6.44 16.14 L 6.63 16.72 L 6.8 17.32 L 6.93 17.92 L 7.04 18.52 L 7.11 19.13 L 7.16 19.75 L 7.17 20.36 L 7.16 20.98 L 7.12 21.59 L 7.05 22.2 L 6.94 22.81 L 6.81 23.41 L 6.65 24.01 L 6.47 24.59 L 6.25 25.17 L 6.01 25.73 L 5.73 26.29 L 5.44 26.82 L 5.11 27.35 L 4.77 27.86 L 4.4 28.35 L 4.0 28.82" fill="none" stroke="#111" stroke-width="1.24" stroke-linecap="round" stroke-linejoin="round"/>
<path d="M 12.97 18.0 L 12.98 18.43 L 13.0 18.85 L 13.03 19.28 L 13.06 19.7 L 13.09 20.13 L 13.13 20.55 L 13.18 20.98 L 13.24 21.4 L 13.3 21.82 L 13.37 22.24 L 13.44 22.66 L 13.52 23.08 L 13.61 23.5 L 13.7 23.91 L 13.8 24.33 L 13.91 24.74 L 14.02 25.15 L 14.14 25.56 L 14.26 25.97 L 14.39 26.38 L 14.53 26.78 L 14.67 27.18 L 14.82 27.58 L 14.97 27.98" fill="none" stroke="#111" stroke-width="1.24" stroke-linecap="round" stroke-linejoin="round"/>
</svg>
