<?xml version="1.0" encoding="UTF-8"?>
<svg xmlns="http://www.w3.org/2000/svg" viewBox="0 0 23.25 36.84">
<path d="M 4.0 7.92 L 4.33 7.96 L 4.67 8.0 L 5.0 8.04 L 5.33 8.08 L 5.67 8.13 L 6.0 8.17 L 6.33 8.21 L 6.67 8.25 L 7.0 8.29 L 7.33 8.33 L 7.67 8.38 L 8.0 8.42 L 8.33 8.46 L 8.67 8.5 L 9.0 8.54 L 9.33 8.58 L 9.67 8.63 L 10.0 8.67 L 10.33 8.71 L 10.67 8.75 L 11.0 8.79 L 11.33 8.83 L 11.67 8.88 L 12.0 8.92 L 12.0 8.92 L 12.1 9.45 L 12.16 9.98 L 12.18 10.52 L 12.14 11.06 L 12.07 11.59 L 11.94 12.12 L 11.77 12.63 L 11.56 13.13 L 11.31 13.6 L 11.02 14.06 L 10.69 14.48 L 10.33 14.88 L 9.93 15.25 L 9.5 15.57 L 9.05 15.87 L 8.57 16.12 L 8.08 16.33 L 7.56 16.5 L 7.04 16.62 L 6.51 16.7 L 5.97 16.73 L 5.43 16.72 L 4.89 16.66 L 4.36 16.55 L 4.0 16.92 L 4.04 17.17 L 4.08 17.42 L 4.12 17.67 L 4.17 17.92 L 4.21 18.17 L 4.25 18.42 L 4.29 18.67 L 4.33 18.92 L 4.38 19.17 L 4.42 19.42 L 4.46 19.67 L 4.5 19.92 L 4.54 20.17 L 4.58 20.42 L 4.62 20.67 L 4.67 20.92 L 4.71 21.17 L 4.75 21.42 L 4.79 21.67 L 4.83 21.92 L 4.88 22.17 L 4.92 22.42 L 4.96 22.67 L 5.0 22.92 L 5.0 22.92 L 5.33 23.13 L 5.67 23.33 L 6.0 23.54 L 6.33 23.75 L 6.67 23.96 L 7.0 24.17 L 7.33 24.38 L 7.67 24.58 L 8.0 24.79 L 8.33 25.0 L 8.67 25.21 L 9.0 25.42 L 9.33 25.63 L 9.67 25.83 L 10.0 26.04 L 10.33 26.25 L 10.67 26.46 L 11.0 26.67 L 11.33 26.88 L 11.67 27.08 L 12.0 27.29 L 12.33 27.5 L 12.67 27.71 L 13.0 27.92" fill="none" stroke="#111" stroke-width="1.29" stroke-linecap="round" stroke-linejoin="round"/>
<path d="M 5.0 7.92 L 5.41 7.27 L 5.89 6.66 L 6.42 6.1 L 7.01 5.6 L 7.64 5.16 L 8.32 4.79 L 9.02 4.48 L 9.76 4.25 L 10.51 4.09 L 11.28 4.01 L 12.05 4.0 L 12.82 4.07 L 13.58 4.22 L 14.31 4.44 L 15.03 4.73 L 15.71 5.1 L 16.35 5.53 L 16.94 6.02 L 17.48 6.57 L 17.97 7.17 L 18.39 7.81 L 18.75 8.5 L 19.03 9.21 L 19.25 9.95" fill="none" stroke="#111" stroke-width="1.29" stroke-linecap="round" stroke-linejoin="round"/>
<path d="M 12.0 11.92 L 12.12 11.96 L 12.25 12.0 L 12.38 12.04 L 12.5 12.08 L 12.62 12.13 L 12.75 12.17 L 12.88 12.21 L 13.0 12.25 L 13.12 12.29 L 13.25 12.33 L 13.38 12.38 L 13.5 12.42 L 13.62 12.46 L 13.75 12.5 L 13.88 12.54 L 14.0 12.58 L 14.12 12.63 L 14.25 12.67 L 14.38 12.71 L 14.5 12.75 L 14.62 12.79 L 14.75 12.83 L 14.88 12.88 L 15.0 12.92" fill="none" stroke="#111" stroke-width="1.29" stroke-linecap="round" stroke-linejoin="round"/>
<path d="M 7.0 9.92 L 7.08 10.04 L 7.17 10.17 L 7.25 10.29 L 7.33 10.42 L 7.42 10.54 L 7.5 10.67 L 7.58 10.79 L 7.67 10.92 L 7.75 11.04 L 7.83 11.17 L 7.92 11.29 L 8.0 11.42 L 8.08 11.54 L 8.17 11.67 L 8.25 11.79 L 8.33 11.92 L 8.42 12.04 L 8.5 12.17 L 8.58 12.29 L 8.67 12.42 L 8.75 12.54 L 8.83 12.67 L 8.92 12.79 L 9.0 12.92" fill="none" stroke="#111" stroke-width="1.29" stroke-linecap="round" stroke-linejoin="round"/>
<path d="M 9.0 13.92 L 9.17 14.04 L 9.33 14.17 L 9.5 14.29 L 9.67 14.42 L 9.83 14.54 L 10.0 14.67 L 10.17 14.79 L 10.33 14.92 L 10.5 15.04 L 10.67 15.17 L 10.83 15.29 L 11.0 15.42 L 11.17 15.54 L 11.33 15.67 L 11.5 15.79 L 11.67 15.92 L 11.83 16.04 L 12.0 16.17 L 12.17 16.29 L 12.33 16.42 L 12.5 16.54 L 12.67 16.67 L 12.83 16.79 L 13.0 16.92" fill="none" stroke="#111" stroke-width="1.29" stroke-linecap="round" stroke-linejoin="round"/>
<path d="M 12.0 17.92 L 12.12 18.08 L 12.25 18.25 L 12.38 18.42 L 12.5 18.58 L 12.62 18.75 L 12.75 18.92 L 12.88 19.08 L 13.0 19.25 L 13.12 19.42 L 13.25 19.58 L 13.38 19.75 L 13.5 19.92 L 13.62 20.08 L 13.75 20.25 L 13.88 20.42 L 14.0 20.58 L 14.12 20.75 L 14.25 20.92 L 14.38 21.08 L 14.5 21.25 L 14.62 21.42 L 14.75 21.58 L 14.88 21.75 L 15.0 21.92" fill="none" stroke="#111" stroke-width="1.29" stroke-linecap="round" stroke-linejoin="round"/>
<path d="M 13.0 19.92 L 12.92 19.96 L 12.83 20.0 L 12.75 20.04 L 12.67 20.08 L 12.58 20.13 L 12.5 20.17 L 12.42 20.21 L 12.33 20.25 L 12.25 20.29 L 12.17 20.33 L 12.08 20.38 L 12.0 20.42 L 11.92 20.46 L 11.83 20.5 L 11.75 20.54 L 11.67 20.58 L 11.58 20.63 L 11.5 20.67 L 11.42 20.71 L 11.33 20.75 L 11.25 20.79 L 11.17 20.83 L 11.08 20.88 L 11.0 20.92" fill="none" stroke="#111" stroke-width="1.29" stroke-linecap="round" stroke-linejoin="round"/>
<path d="M 4.0 19.92 L 4.25 20.0 L 4.5 20.08 L 4.75 20.17 L 5.0 20.25 L 5.25 20.33 L 5.5 20.42 L 5.75 20.5 L 6.0 20.58 L 6.25 20.67 L 6.5 20.75 L 6.75 20.83 L 7.0 20.92 L 7.25 21.0 L 7.5 21.08 L 7.75 21.17 L 8.0 21.25 L 8.25 21.33 L 8.5 21.42 L 8.75 21.5 L 9.0 21.58 L 9.25 21.67 L 9.5 21.75 L 9.75 21.83 L 10.0 21.92" fill="none" stroke="#111" stroke-width="1.29" stroke-linecap="round" stroke-linejoin="round"/>
<path d="M 8.0 23.92 L 7.76 24.23 L 7.53 24.55 L 7.31 24.88 L 7.11 25.22 L 6.92 25.56 L 6.74 25.92 L 6.57 26.27 L 6.42 26.64 L 6.29 27.01 L 6.17 27.38 L 6.06 27.76 L 5.96 28.15 L 5.89 28.53 L 5.82 28.92 L 5.77 29.32 L 5.74 29.71 L 5.72 30.1 L 5.72 30.5 L 5.73 30.89 L 5.76 31.29 L 5.8 31.68 L 5.86 32.07 L 5.93 32.46 L 6.02 32.84" fill="none" stroke="#111" stroke-width="1.29" stroke-linecap="round" stroke-linejoin="round"/>
</svg>
