<?xml version="1.0" encoding="UTF-8"?>
<svg xmlns="http://www.w3.org/2000/svg" viewBox="0 0 25.00 32.82">
<path d="M 9.0 23.35 L 9.0 22.89 L 9.0 22.43 L 9.0 21.98 L 9.0 21.52 L 9.0 21.06 L 9.0 20.6 L 9.0 20.14 L 9.0 19.68 L 9.0 19.23 L 9.0 18.77 L 9.0 18.31 L 9.0 17.85 L 9.0 17.39 L 9.0 16.93 L 9.0 16.48 L 9.0 16.02 L 9.0 15.56 L 9.0 15.1 L 9.0 14.64 L 9.0 14.18 L 9.0 13.73 L 9.0 13.27 L 9.0 12.81 L 9.0 12.35 L 9.0 12.35 L 9.42 12.18 L 9.83 12.02 L 10.25 11.85 L 10.67 11.68 L 11.08 11.52 L 11.5 11.35 L 11.92 11.18 L 12.33 11.02 L 12.75 10.85 L 13.17 10.68 L 13.58 10.52 L 14.0 10.35 L 14.42 10.18 L 14.83 10.02 L 15.25 9.85 L 15.67 9.68 L 16.08 9.52 L 16.5 9.35 L 16.92 9.18 L 17.33 9.02 L 17.75 8.85 L 18.17 8.68 L 18.58 8.52 L 19.0 8.35" fill="none" stroke="#111" stroke-width="1.15" stroke-linecap="round" stroke-linejoin="round"/>
<path d="M 19.0 8.35 L 19.08 8.6 L 19.17 8.85 L 19.25 9.1 L 19.33 9.35 L 19.42 9.6 L 19.5 9.85 L 19.58 10.1 L 19.67 10.35 L 19.75 10.6 L 19.83 10.85 L 19.92 11.1 L 20.0 11.35 L 20.08 11.6 L 20.17 11.85 L 20.25 12.1 L 20.33 12.35 L 20.42 12.6 L 20.5 12.85 L 20.58 13.1 L 20.67 13.35 L 20.75 13.6 L 20.83 13.85 L 20.92 14.1 L 21.0 14.35" fill="none" stroke="#111" stroke-width="1.15" stroke-linecap="round" stroke-linejoin="round"/>
<path d="M 11.0 11.35 L 11.08 11.56 L 11.17 11.77 L 11.25 11.98 L 11.33 12.18 L 11.42 12.39 L 11.5 12.6 L 11.58 12.81 L 11.67 13.02 L 11.75 13.23 L 11.83 13.43 L 11.92 13.64 L 12.0 13.85 L 12.08 14.06 L 12.17 14.27 L 12.25 14.48 L 12.33 14.68 L 12.42 14.89 L 12.5 15.1 L 12.58 15.31 L 12.67 15.52 L 12.75 15.73 L 12.83 15.93 L 12.92 16.14 L 13.0 16.35" fill="none" stroke="#111" stroke-width="1.15" stroke-linecap="round" stroke-linejoin="round"/>
<path d="M 16.0 9.35 L 16.0 9.6 L 16.0 9.85 L 16.0 10.1 L 16.0 10.35 L 16.0 10.6 L 16.0 10.85 L 16.0 11.1 L 16.0 11.35 L 16.0 11.6 L 16.0 11.85 L 16.0 12.1 L 16.0 12.35 L 16.0 12.6 L 16.0 12.85 L 16.0 13.1 L 16.0 13.35 L 16.0 13.6 L 16.0 13.85 L 16.0 14.1 L 16.0 14.35 L 16.0 14.6 L 16.0 14.85 L 16.0 15.1 L 16.0 15.35" fill="none" stroke="#111" stroke-width="1.15" stroke-linecap="round" stroke-linejoin="round"/>
<path d="M 9.0 20.35 L 9.23 19.8 L 9.49 19.26 L 9.78 18.75 L 10.11 18.25 L 10.47 17.77 L 10.85 17.31 L 11.26 16.88 L 11.7 16.48 L 12.17 16.1 L 12.65 15.76 L 13.16 15.44 L 13.68 15.16 L 14.22 14.91 L 14.78 14.7 L 15.35 14.51 L 15.92 14.37 L 16.51 14.26 L 17.1 14.19 L 17.7 14.15 L 18.29 14.15 L 18.89 14.19 L 19.48 14.27 L 20.06 14.38 L 20.64 14.53" fill="none" stroke="#111" stroke-width="1.15" stroke-linecap="round" stroke-linejoin="round"/>
<path d="M 10.0 10.35 L 9.92 10.02 L 9.89 9.68 L 9.9 9.34 L 9.96 9.01 L 10.06 8.68 L 10.21 8.38 L 10.39 8.09 L 10.62 7.84 L 10.87 7.61 L 11.16 7.42 L 11.46 7.28 L 11.79 7.17 L 12.12 7.11 L 12.46 7.1 L 12.8 7.13 L 13.13 7.21 L 13.45 7.33 L 13.74 7.49 L 14.02 7.69 L 14.26 7.93 L 14.47 8.2 L 14.64 8.49 L 14.77 8.81 L 14.86 9.14" fill="none" stroke="#111" stroke-width="1.15" stroke-linecap="round" stroke-linejoin="round"/>
<path d="M 15.0 9.35 L 14.57 9.17 L 14.18 8.92 L 13.83 8.6 L 13.55 8.23 L 13.33 7.82 L 13.18 7.38 L 13.11 6.92 L 13.12 6.45 L 13.2 5.99 L 13.37 5.56 L 13.61 5.15 L 13.91 4.8 L 14.26 4.5 L 14.67 4.26 L 15.1 4.1 L 15.56 4.01 L 16.03 4.0 L 16.49 4.07 L 16.93 4.22 L 17.34 4.44 L 17.71 4.72 L 18.03 5.07 L 18.28 5.46 L 18.46 5.89" fill="none" stroke="#111" stroke-width="1.15" stroke-linecap="round" stroke-linejoin="round"/>
<path d="M 11.0 22.35 L 11.0 22.56 L 11.0 22.77 L 11.0 22.98 L 11.0 23.18 L 11.0 23.39 L 11.0 23.6 L 11.0 23.81 L 11.0 24.02 L 11.0 24.23 L 11.0 24.43 L 11.0 24.64 L 11.0 24.85 L 11.0 25.06 L 11.0 25.27 L 11.0 25.48 L 11.0 25.68 L 11.0 25.89 L 11.0 26.1 L 11.0 26.31 L 11.0 26.52 L 11.0 26.73 L 11.0 26.93 L 11.0 27.14 L 11.0 27.35" fill="none" stroke="#111" stroke-width="1.15" stroke-linecap="round" stroke-linejoin="round"/>
<path d="M 16.0 18.35 L 16.0 18.73 L 16.0 19.1 L 16.0 19.48 L 16.0 19.85 L 16.0 20.23 L 16.0 20.6 L 16.0 20.98 L 16.0 21.35 L 16.0 21.73 L 16.0 22.1 L 16.0 22.48 L 16.0 22.85 L 16.0 23.23 L 16.0 23.6 L 16.0 23.98 L 16.0 24.35 L 16.0 24.73 L 16.0 25.1 L 16.0 25.48 L 16.0 25.85 L 16.0 26.23 L 16.0 26.6 L 16.0 26.98 L 16.0 27.35" fill="none" stroke="#111" stroke-width="1.15" stroke-linecap="round" stroke-linejoin="round"/>
<path d="M 19.0 17.35 L 19.0 17.6 L 19.0 17.85 L 19.0 18.1 L 19.0 18.35 L 19.0 18.6 L 19.0 18.85 L 19.0 19.1 L 19.0 19.35 L 19.0 19.6 L 19.0 19.85 L 19.0 20.1 L 19.0 20.35 L 19.0 20.6 L 19.0 20.85 L 19.0 21.1 L 19.0 21.35 L 19.0 21.6 L 19.0 21.85 L 19.0 22.1 L 19.0 22.35 L 19.0 22.6 L 19.0 22.85 L 19.0 23.1 L 19.0 23.35" fill="none" stroke="#111" stroke-width="1.15" stroke-linecap="round" stroke-linejoin="round"/>
<path d="M 4.0 8.35 L 4.16 9.19 L 4.31 10.04 L 4.45 10.89 L 4.57 11.74 L 4.68 12.59 L 4.77 13.44 L 4.85 14.3 L 4.91 15.15 L 4.96 16.01 L 5.0 16.87 L 5.02 17.73 L 5.03 18.58 L 5.02 19.44 L 5.0 20.3 L 4.96 21.16 L 4.91 22.02 L 4.85 22.87 L 4.77 23.73 L 4.68 24.58 L 4.57 25.43 L 4.45 26.28 L 4.31 27.13 L 4.16 27.98 L 4.0 28.82" fill="none" stroke="#111" stroke-width="1.15" stroke-linecap="round" stroke-linejoin="round"/>
</svg>
