<?xml version="1.0" encoding="UTF-8"?>
<svg xmlns="http://www.w3.org/2000/svg" viewBox="0 0 20.66 35.50">
<path d="M 12.0 4.0 L 11.44 4.57 L 10.92 5.17 L 10.44 5.81 L 10.0 6.47 L 9.6 7.16 L 9.24 7.88 L 8.93 8.61 L 8.67 9.36 L 8.45 10.13 L 8.28 10.91 L 8.16 11.7 L 8.1 12.49 L 8.08 13.29 L 8.11 14.09 L 8.19 14.88 L 8.32 15.67 L 8.5 16.44 L 8.72 17.21 L 9.0 17.96 L 9.32 18.69 L 9.68 19.4 L 10.09 20.08 L 10.54 20.74 L 11.04 21.37 L 11.0 22.0 L 10.8 22.37 L 10.61 22.74 L 10.43 23.12 L 10.25 23.5 L 10.08 23.88 L 9.91 24.27 L 9.74 24.65 L 9.59 25.04 L 9.43 25.43 L 9.29 25.82 L 9.15 26.22 L 9.01 26.62 L 8.88 27.01 L 8.76 27.41 L 8.64 27.82 L 8.53 28.22 L 8.42 28.63 L 8.32 29.03 L 8.22 29.44 L 8.13 29.85 L 8.05 30.26 L 7.97 30.67 L 7.9 31.09 L 7.83 31.5" fill="none" stroke="#111" stroke-width="1.24" stroke-linecap="round" stroke-linejoin="round"/>
<path d="M 12.0 4.0 L 12.08 4.17 L 12.17 4.33 L 12.25 4.5 L 12.33 4.67 L 12.42 4.83 L 12.5 5.0 L 12.58 5.17 L 12.67 5.33 L 12.75 5.5 L 12.83 5.67 L 12.92 5.83 L 13.0 6.0 L 13.08 6.17 L 13.17 6.33 L 13.25 6.5 L 13.33 6.67 L 13.42 6.83 L 13.5 7.0 L 13.58 7.17 L 13.67 7.33 L 13.75 7.5 L 13.83 7.67 L 13.92 7.83 L 14.0 8.0 L 14.0 8.0 L 13.82 8.17 L 13.65 8.36 L 13.51 8.56 L 13.38 8.77 L 13.27 9.0 L 13.18 9.23 L 13.11 9.47 L 13.06 9.71 L 13.03 9.96 L 13.02 10.21 L 13.04 10.46 L 13.08 10.71 L 13.14 10.95 L 13.22 11.19 L 13.32 11.41 L 13.44 11.63 L 13.58 11.84 L 13.74 12.03 L 13.91 12.21 L 14.1 12.38 L 14.3 12.52 L 14.51 12.65 L 14.74 12.76 L 14.97 12.85 L 15.0 13.0 L 15.28 12.88 L 15.53 12.73 L 15.77 12.55 L 15.99 12.34 L 16.18 12.11 L 16.34 11.85 L 16.47 11.58 L 16.57 11.3 L 16.63 11.01 L 16.66 10.71 L 16.66 10.41 L 16.62 10.11 L 16.54 9.82 L 16.43 9.54 L 16.29 9.27 L 16.12 9.03 L 15.92 8.8 L 15.69 8.6 L 15.45 8.43 L 15.18 8.29 L 14.9 8.18 L 14.61 8.11 L 14.31 8.07 L 14.01 8.06" fill="none" stroke="#111" stroke-width="1.24" stroke-linecap="round" stroke-linejoin="round"/>
<path d="M 5.0 4.0 L 5.17 4.17 L 5.33 4.33 L 5.5 4.5 L 5.67 4.67 L 5.83 4.83 L 6.0 5.0 L 6.17 5.17 L 6.33 5.33 L 6.5 5.5 L 6.67 5.67 L 6.83 5.83 L 7.0 6.0 L 7.17 6.17 L 7.33 6.33 L 7.5 6.5 L 7.67 6.67 L 7.83 6.83 L 8.0 7.0 L 8.17 7.17 L 8.33 7.33 L 8.5 7.5 L 8.67 7.67 L 8.83 7.83 L 9.0 8.0" fill="none" stroke="#111" stroke-width="1.24" stroke-linecap="round" stroke-linejoin="round"/>
<path d="M 10.0 12.0 L 9.75 12.25 L 9.5 12.5 L 9.25 12.75 L 9.0 13.0 L 8.75 13.25 L 8.5 13.5 L 8.25 13.75 L 8.0 14.0 L 7.75 14.25 L 7.5 14.5 L 7.25 14.75 L 7.0 15.0 L 6.75 15.25 L 6.5 15.5 L 6.25 15.75 L 6.0 16.0 L 5.75 16.25 L 5.5 16.5 L 5.25 16.75 L 5.0 17.0 L 4.75 17.25 L 4.5 17.5 L 4.25 17.75 L 4.0 18.0" fill="none" stroke="#111" stroke-width="1.24" stroke-linecap="round" stroke-linejoin="round"/>
<path d="M 9.0 12.0 L 9.12 11.92 L 9.25 11.83 L 9.38 11.75 L 9.5 11.67 L 9.62 11.58 L 9.75 11.5 L 9.88 11.42 L 10.0 11.33 L 10.12 11.25 L 10.25 11.17 L 10.38 11.08 L 10.5 11.0 L 10.62 10.92 L 10.75 10.83 L 10.88 10.75 L 11.0 10.67 L 11.12 10.58 L 11.25 10.5 L 11.38 10.42 L 11.5 10.33 L 11.62 10.25 L 11.75 10.17 L 11.88 10.08 L 12.0 10.0" fill="none" stroke="#111" stroke-width="1.24" stroke-linecap="round" stroke-linejoin="round"/>
<path d="M 10.0 14.0 L 10.25 14.12 L 10.5 14.25 L 10.75 14.38 L 11.0 14.5 L 11.25 14.62 L 11.5 14.75 L 11.75 14.88 L 12.0 15.0 L 12.25 15.12 L 12.5 15.25 L 12.75 15.38 L 13.0 15.5 L 13.25 15.62 L 13.5 15.75 L 13.75 15.88 L 14.0 16.0 L 14.25 16.12 L 14.5 16.25 L 14.75 16.38 L 15.0 16.5 L 15.25 16.62 L 15.5 16.75 L 15.75 16.88 L 16.0 17.0" fill="none" stroke="#111" stroke-width="1.24" stroke-linecap="round" stroke-linejoin="round"/>
<path d="M 10.0 18.0 L 9.83 18.17 L 9.67 18.33 L 9.5 18.5 L 9.33 18.67 L 9.17 18.83 L 9.0 19.0 L 8.83 19.17 L 8.67 19.33 L 8.5 19.5 L 8.33 19.67 L 8.17 19.83 L 8.0 20.0 L 7.83 20.17 L 7.67 20.33 L 7.5 20.5 L 7.33 20.67 L 7.17 20.83 L 7.0 21.0 L 6.83 21.17 L 6.67 21.33 L 6.5 21.5 L 6.33 21.67 L 6.17 21.83 L 6.0 22.0" fill="none" stroke="#111" stroke-width="1.24" stroke-linecap="round" stroke-linejoin="round"/>
</svg>
