<?xml version="1.0" encoding="UTF-8"?>
<svg xmlns="http://www.w3.org/2000/svg" viewBox="0 0 24.00 36.00">
<path d="M 9.0 17.0 L 9.29 17.0 L 9.58 17.0 L 9.88 17.0 L 10.17 17.0 L 10.46 17.0 L 10.75 17.0 L 11.04 17.0 L 11.33 17.0 L 11.62 17.0 L 11.92 17.0 L 12.21 17.0 L 12.5 17.0 L 12.79 17.0 L 13.08 17.0 L 13.38 17.0 L 13.67 17.0 L 13.96 17.0 L 14.25 17.0 L 14.54 17.0 L 14.83 17.0 L 15.12 17.0 L 15.42 17.0 L 15.71 17.0 L 16.0 17.0" fill="none" stroke="#111" stroke-width="1.26" stroke-linecap="round" stroke-linejoin="round"/>
<path d="M 12.0 17.0 L 12.18 17.59 L 12.34 18.19 L 12.47 18.79 L 12.57 19.4 L 12.65 20.02 L 12.69 20.63 L 12.71 21.25 L 12.71 21.87 L 12.67 22.48 L 12.61 23.1 L 12.52 23.71 L 12.41 24.32 L 12.26 24.92 L 12.09 25.51 L 11.9 26.1 L 11.68 26.68 L 11.43 27.24 L 11.16 27.8 L 10.86 28.34 L 10.54 28.87 L 10.2 29.38 L 9.83 29.88 L 9.45 30.36 L 9.04 30.82" fill="none" stroke="#111" stroke-width="1.26" stroke-linecap="round" stroke-linejoin="round"/>
<path d="M 12.0 25.0 L 12.12 25.29 L 12.25 25.58 L 12.38 25.88 L 12.5 26.17 L 12.62 26.46 L 12.75 26.75 L 12.88 27.04 L 13.0 27.33 L 13.12 27.62 L 13.25 27.92 L 13.38 28.21 L 13.5 28.5 L 13.62 28.79 L 13.75 29.08 L 13.88 29.38 L 14.0 29.67 L 14.12 29.96 L 14.25 30.25 L 14.38 30.54 L 14.5 30.83 L 14.62 31.12 L 14.75 31.42 L 14.88 31.71 L 15.0 32.0" fill="none" stroke="#111" stroke-width="1.26" stroke-linecap="round" stroke-linejoin="round"/>
<path d="M 8.0 12.0 L 8.17 12.21 L 8.33 12.42 L 8.5 12.62 L 8.67 12.83 L 8.83 13.04 L 9.0 13.25 L 9.17 13.46 L 9.33 13.67 L 9.5 13.88 L 9.67 14.08 L 9.83 14.29 L 10.0 14.5 L 10.17 14.71 L 10.33 14.92 L 10.5 15.12 L 10.67 15.33 L 10.83 15.54 L 11.0 15.75 L 11.17 15.96 L 11.33 16.17 L 11.5 16.38 L 11.67 16.58 L 11.83 16.79 L 12.0 17.0" fill="none" stroke="#111" stroke-width="1.26" stroke-linecap="round" stroke-linejoin="round"/>
<path d="M 12.0 17.0 L 12.17 16.79 L 12.33 16.58 L 12.5 16.38 L 12.67 16.17 L 12.83 15.96 L 13.0 15.75 L 13.17 15.54 L 13.33 15.33 L 13.5 15.12 L 13.67 14.92 L 13.83 14.71 L 14.0 14.5 L 14.17 14.29 L 14.33 14.08 L 14.5 13.88 L 14.67 13.67 L 14.83 13.46 L 15.0 13.25 L 15.17 13.04 L 15.33 12.83 L 15.5 12.62 L 15.67 12.42 L 15.83 12.21 L 16.0 12.0" fill="none" stroke="#111" stroke-width="1.26" stroke-linecap="round" stroke-linejoin="round"/>
<path d="M 8.0 12.0 L 7.88 12.17 L 7.75 12.33 L 7.62 12.5 L 7.5 12.67 L 7.38 12.83 L 7.25 13.0 L 7.12 13.17 L 7.0 13.33 L 6.88 13.5 L 6.75 13.67 L 6.62 13.83 L 6.5 14.0 L 6.38 14.17 L 6.25 14.33 L 6.12 14.5 L 6.0 14.67 L 5.88 14.83 L 5.75 15.0 L 5.62 15.17 L 5.5 15.33 L 5.38 15.5 L 5.25 15.67 L 5.12 15.83 L 5.0 16.0" fill="none" stroke="#111" stroke-width="1.26" stroke-linecap="round" stroke-linejoin="round"/>
<path d="M 16.0 12.0 L 16.08 12.08 L 16.17 12.17 L 16.25 12.25 L 16.33 12.33 L 16.42 12.42 L 16.5 12.5 L 16.58 12.58 L 16.67 12.67 L 16.75 12.75 L 16.83 12.83 L 16.92 12.92 L 17.0 13.0 L 17.08 13.08 L 17.17 13.17 L 17.25 13.25 L 17.33 13.33 L 17.42 13.42 L 17.5 13.5 L 17.58 13.58 L 17.67 13.67 L 17.75 13.75 L 17.83 13.83 L 17.92 13.92 L 18.0 14.0" fill="none" stroke="#111" stroke-width="1.26" stroke-linecap="round" stroke-linejoin="round"/>
<path d="M 12.0 19.0 L 11.75 19.21 L 11.5 19.42 L 11.25 19.62 L 11.0 19.83 L 10.75 20.04 L 10.5 20.25 L 10.25 20.46 L 10.0 20.67 L 9.75 20.88 L 9.5 21.08 L 9.25 21.29 L 9.0 21.5 L 8.75 21.71 L 8.5 21.92 L 8.25 22.12 L 8.0 22.33 L 7.75 22.54 L 7.5 22.75 L 7.25 22.96 L 7.0 23.17 L 6.75 23.38 L 6.5 23.58 L 6.25 23.79 L 6.0 24.0" fill="none" stroke="#111" stroke-width="1.26" stroke-linecap="round" stroke-linejoin="round"/>
<path d="M 12.0 19.0 L 12.25 19.17 L 12.5 19.33 L 12.75 19.5 L 13.0 19.67 L 13.25 19.83 L 13.5 20.0 L 13.75 20.17 L 14.0 20.33 L 14.25 20.5 L 14.5 20.67 L 14.75 20.83 L 15.0 21.0 L 15.25 21.17 L 15.5 21.33 L 15.75 21.5 L 16.0 21.67 L 16.25 21.83 L 16.5 22.0 L 16.75 22.17 L 17.0 22.33 L 17.25 22.5 L 17.5 22.67 L 17.75 22.83 L 18.0 23.0" fill="none" stroke="#111" stroke-width="1.26" stroke-linecap="round" stroke-linejoin="round"/>
<path d="M 7.0 6.0 L 7.47 6.18 L 7.92 6.4 L 8.36 6.64 L 8.79 6.91 L 9.19 7.21 L 9.58 7.53 L 9.95 7.87 L 10.29 8.24 L 10.61 8.63 L 10.9 9.04 L 11.17 9.47 L 11.41 9.91 L 11.62 10.36 L 11.8 10.83 L 11.95 11.31 L 12.07 11.8 L 12.16 12.3 L 12.22 12.8 L 12.24 13.3 L 12.23 13.8 L 12.19 14.3 L 12.12 14.8 L 12.02 15.29 L 11.89 15.78" fill="none" stroke="#111" stroke-width="1.26" stroke-linecap="round" stroke-linejoin="round"/>
<path d="M 12.0 10.0 L 12.17 9.75 L 12.33 9.5 L 12.5 9.25 L 12.67 9.0 L 12.83 8.75 L 13.0 8.5 L 13.17 8.25 L 13.33 8.0 L 13.5 7.75 L 13.67 7.5 L 13.83 7.25 L 14.0 7.0 L 14.17 6.75 L 14.33 6.5 L 14.5 6.25 L 14.67 6.0 L 14.83 5.75 L 15.0 5.5 L 15.17 5.25 L 15.33 5.0 L 15.5 4.75 L 15.67 4.5 L 15.83 4.25 L 16.0 4.0" fill="none" stroke="#111" stroke-width="1.26" stroke-linecap="round" stroke-linejoin="round"/>
<path d="M 7.0 6.0 L 6.88 6.29 L 6.75 6.58 L 6.62 6.88 L 6.5 7.17 L 6.38 7.46 L 6.25 7.75 L 6.12 8.04 L 6.0 8.33 L 5.88 8.62 L 5.75 8.92 L 5.62 9.21 L 5.5 9.5 L 5.38 9.79 L 5.25 10.08 L 5.12 10.38 L 5.0 10.67 L 4.88 10.96 L 4.75 11.25 L 4.63 11.54 L 4.5 11.83 L 4.38 12.12 L 4.25 12.42 L 4.12 12.71 L 4.0 13.0" fill="none" stroke="#111" stroke-width="1.26" stroke-linecap="round" stroke-linejoin="round"/>
<path d="M 16.0 4.0 L 16.17 4.25 L 16.33 4.5 L 16.5 4.75 L 16.67 5.0 L 16.83 5.25 L 17.0 5.5 L 17.17 5.75 L 17.33 6.0 L 17.5 6.25 L 17.67 6.5 L 17.83 6.75 L 18.0 7.0 L 18.17 7.25 L 18.33 7.5 L 18.5 7.75 L 18.67 8.0 L 18.83 8.25 L 19.0 8.5 L 19.17 8.75 L 19.33 9.0 L 19.5 9.25 L 19.67 9.5 L 19.83 9.75 L 20.0 10.0" fill="none" stroke="#111" stroke-width="1.26" stroke-linecap="round" stroke-linejoin="round"/>
</svg>
