<?xml version="1.0" encoding="UTF-8"?>
<svg xmlns="http://www.w3.org/2000/svg" viewBox="0 0 26.92 39.43">
<path d="M 12.0 9.0 L 12.61 9.25 L 13.19 9.57 L 13.74 9.93 L 14.25 10.35 L 14.72 10.81 L 15.15 11.31 L 15.52 11.86 L 15.84 12.44 L 16.1 13.04 L 16.31 13.67 L 16.45 14.31 L 16.53 14.97 L 16.55 15.62 L 16.51 16.28 L 16.4 16.93 L 16.23 17.57 L 16.01 18.19 L 15.72 18.78 L 15.38 19.35 L 14.98 19.88 L 14.54 20.37 L 14.06 20.81 L 13.53 21.21 L 12.97 21.55 L 13.0 22.0 L 13.78 22.09 L 14.54 22.24 L 15.3 22.44 L 16.04 22.7 L 16.76 23.01 L 17.45 23.37 L 18.12 23.78 L 18.75 24.24 L 19.35 24.74 L 19.91 25.29 L 20.43 25.87 L 20.91 26.49 L 21.34 27.14 L 21.73 27.83 L 22.06 28.53 L 22.34 29.26 L 22.57 30.01 L 22.74 30.78 L 22.86 31.55 L 22.92 32.33 L 22.92 33.11 L 22.87 33.89 L 22.76 34.67 L 22.59 35.43" fill="none" stroke="#111" stroke-width="1.38" stroke-linecap="round" stroke-linejoin="round"/>
<path d="M 14.0 4.0 L 14.05 4.4 L 14.08 4.8 L 14.1 5.21 L 14.1 5.61 L 14.08 6.02 L 14.05 6.42 L 14.01 6.82 L 13.95 7.22 L 13.87 7.62 L 13.78 8.01 L 13.67 8.4 L 13.55 8.79 L 13.42 9.17 L 13.27 9.55 L 13.1 9.92 L 12.93 10.28 L 12.74 10.64 L 12.53 10.99 L 12.31 11.33 L 12.08 11.66 L 11.84 11.98 L 11.58 12.3 L 11.31 12.6 L 11.04 12.89 L 11.0 13.0 L 11.12 13.21 L 11.25 13.42 L 11.38 13.62 L 11.5 13.83 L 11.62 14.04 L 11.75 14.25 L 11.88 14.46 L 12.0 14.67 L 12.12 14.88 L 12.25 15.08 L 12.38 15.29 L 12.5 15.5 L 12.62 15.71 L 12.75 15.92 L 12.88 16.12 L 13.0 16.33 L 13.12 16.54 L 13.25 16.75 L 13.38 16.96 L 13.5 17.17 L 13.62 17.38 L 13.75 17.58 L 13.88 17.79 L 14.0 18.0" fill="none" stroke="#111" stroke-width="1.38" stroke-linecap="round" stroke-linejoin="round"/>
<path d="M 14.0 7.0 L 14.45 7.34 L 14.87 7.72 L 15.26 8.14 L 15.59 8.59 L 15.89 9.08 L 16.13 9.59 L 16.33 10.12 L 16.47 10.67 L 16.56 11.23 L 16.6 11.79 L 16.58 12.36 L 16.5 12.92 L 16.37 13.47 L 16.19 14.01 L 15.96 14.52 L 15.68 15.02 L 15.35 15.48 L 14.98 15.91 L 14.58 16.3 L 14.13 16.65 L 13.65 16.96 L 13.15 17.21 L 12.62 17.42 L 12.08 17.58" fill="none" stroke="#111" stroke-width="1.38" stroke-linecap="round" stroke-linejoin="round"/>
<path d="M 11.0 6.0 L 11.21 5.96 L 11.42 5.92 L 11.62 5.88 L 11.83 5.83 L 12.04 5.79 L 12.25 5.75 L 12.46 5.71 L 12.67 5.67 L 12.88 5.62 L 13.08 5.58 L 13.29 5.54 L 13.5 5.5 L 13.71 5.46 L 13.92 5.42 L 14.12 5.38 L 14.33 5.33 L 14.54 5.29 L 14.75 5.25 L 14.96 5.21 L 15.17 5.17 L 15.38 5.12 L 15.58 5.08 L 15.79 5.04 L 16.0 5.0" fill="none" stroke="#111" stroke-width="1.38" stroke-linecap="round" stroke-linejoin="round"/>
<path d="M 8.0 10.0 L 8.0 10.71 L 8.0 11.42 L 8.0 12.12 L 8.0 12.83 L 8.0 13.54 L 8.0 14.25 L 8.0 14.96 L 8.0 15.67 L 8.0 16.38 L 8.0 17.08 L 8.0 17.79 L 8.0 18.5 L 8.0 19.21 L 8.0 19.92 L 8.0 20.62 L 8.0 21.33 L 8.0 22.04 L 8.0 22.75 L 8.0 23.46 L 8.0 24.17 L 8.0 24.88 L 8.0 25.58 L 8.0 26.29 L 8.0 27.0" fill="none" stroke="#111" stroke-width="1.38" stroke-linecap="round" stroke-linejoin="round"/>
<path d="M 5.0 9.0 L 4.9 9.26 L 4.83 9.52 L 4.77 9.79 L 4.73 10.06 L 4.72 10.34 L 4.73 10.61 L 4.76 10.89 L 4.81 11.16 L 4.88 11.42 L 4.97 11.68 L 5.09 11.93 L 5.22 12.17 L 5.37 12.4 L 5.54 12.62 L 5.72 12.83 L 5.92 13.01 L 6.14 13.19 L 6.37 13.34 L 6.6 13.48 L 6.85 13.6 L 7.11 13.69 L 7.37 13.77 L 7.64 13.83 L 7.92 13.86" fill="none" stroke="#111" stroke-width="1.38" stroke-linecap="round" stroke-linejoin="round"/>
<path d="M 10.0 9.0 L 10.08 9.23 L 10.15 9.46 L 10.21 9.7 L 10.25 9.94 L 10.27 10.18 L 10.28 10.42 L 10.27 10.66 L 10.25 10.91 L 10.21 11.15 L 10.16 11.38 L 10.09 11.62 L 10.01 11.84 L 9.91 12.07 L 9.8 12.28 L 9.67 12.49 L 9.53 12.69 L 9.38 12.88 L 9.22 13.06 L 9.05 13.23 L 8.87 13.39 L 8.67 13.54 L 8.47 13.67 L 8.26 13.79 L 8.04 13.9" fill="none" stroke="#111" stroke-width="1.38" stroke-linecap="round" stroke-linejoin="round"/>
<path d="M 6.0 16.0 L 6.08 16.04 L 6.17 16.08 L 6.25 16.12 L 6.33 16.17 L 6.42 16.21 L 6.5 16.25 L 6.58 16.29 L 6.67 16.33 L 6.75 16.38 L 6.83 16.42 L 6.92 16.46 L 7.0 16.5 L 7.08 16.54 L 7.17 16.58 L 7.25 16.62 L 7.33 16.67 L 7.42 16.71 L 7.5 16.75 L 7.58 16.79 L 7.67 16.83 L 7.75 16.88 L 7.83 16.92 L 7.92 16.96 L 8.0 17.0" fill="none" stroke="#111" stroke-width="1.38" stroke-linecap="round" stroke-linejoin="round"/>
<path d="M 9.0 16.0 L 8.96 16.04 L 8.92 16.08 L 8.88 16.12 L 8.83 16.17 L 8.79 16.21 L 8.75 16.25 L 8.71 16.29 L 8.67 16.33 L 8.62 16.38 L 8.58 16.42 L 8.54 16.46 L 8.5 16.5 L 8.46 16.54 L 8.42 16.58 L 8.38 16.62 L 8.33 16.67 L 8.29 16.71 L 8.25 16.75 L 8.21 16.79 L 8.17 16.83 L 8.12 16.88 L 8.08 16.92 L 8.04 16.96 L 8.0 17.0" fill="none" stroke="#111" stroke-width="1.38" stroke-linecap="round" stroke-linejoin="round"/>
<path d="M 8.0 20.0 L 7.83 20.17 L 7.67 20.33 L 7.5 20.5 L 7.33 20.67 L 7.17 20.83 L 7.0 21.0 L 6.83 21.17 L 6.67 21.33 L 6.5 21.5 L 6.33 21.67 L 6.17 21.83 L 6.0 22.0 L 5.83 22.17 L 5.67 22.33 L 5.5 22.5 L 5.33 22.67 L 5.17 22.83 L 5.0 23.0 L 4.83 23.17 L 4.67 23.33 L 4.5 23.5 L 4.33 23.67 L 4.17 23.83 L 4.0 24.0" fill="none" stroke="#111" stroke-width="1.38" stroke-linecap="round" stroke-linejoin="round"/>
<path d="M 8.0 20.0 L 8.12 20.12 L 8.25 20.25 L 8.38 20.38 L 8.5 20.5 L 8.62 20.62 L 8.75 20.75 L 8.88 20.88 L 9.0 21.0 L 9.12 21.12 L 9.25 21.25 L 9.38 21.38 L 9.5 21.5 L 9.62 21.62 L 9.75 21.75 L 9.88 21.88 L 10.0 22.0 L 10.12 22.12 L 10.25 22.25 L 10.38 22.38 L 10.5 22.5 L 10.62 22.62 L 10.75 22.75 L 10.88 22.88 L 11.0 23.0" fill="none" stroke="#111" stroke-width="1.38" stroke-linecap="round" stroke-linejoin="round"/>
</svg>
