<?xml version="1.0" encoding="UTF-8"?>
<svg xmlns="http://www.w3.org/2000/svg" viewBox="0 0 21.83 35.89">
<path d="M 10.0 6.0 L 9.58 6.55 L 9.24 7.16 L 9.01 7.81 L 8.87 8.49 L 8.84 9.19 L 8.92 9.88 L 9.1 10.55 L 9.39 11.18 L 9.76 11.76 L 10.22 12.28 L 10.75 12.73 L 11.35 13.08 L 11.99 13.35 L 12.67 13.51 L 13.36 13.56 L 14.05 13.51 L 14.73 13.36 L 15.37 13.1 L 15.97 12.75 L 16.51 12.31 L 16.97 11.79 L 17.35 11.21 L 17.64 10.58 L 17.83 9.91" fill="none" stroke="#111" stroke-width="1.26" stroke-linecap="round" stroke-linejoin="round"/>
<path d="M 6.0 5.0 L 6.12 5.36 L 6.25 5.72 L 6.41 6.06 L 6.58 6.4 L 6.77 6.73 L 6.99 7.05 L 7.21 7.35 L 7.46 7.64 L 7.72 7.92 L 7.99 8.18 L 8.28 8.42 L 8.59 8.65 L 8.9 8.87 L 9.23 9.06 L 9.57 9.24 L 9.91 9.39 L 10.27 9.53 L 10.63 9.65 L 11.0 9.74 L 11.37 9.82 L 11.74 9.88 L 12.12 9.91 L 12.5 9.92 L 12.88 9.92" fill="none" stroke="#111" stroke-width="1.26" stroke-linecap="round" stroke-linejoin="round"/>
<path d="M 8.0 4.0 L 8.0 4.08 L 8.0 4.17 L 8.0 4.25 L 8.0 4.33 L 8.0 4.42 L 8.0 4.5 L 8.0 4.58 L 8.0 4.67 L 8.0 4.75 L 8.0 4.83 L 8.0 4.92 L 8.0 5.0 L 8.0 5.08 L 8.0 5.17 L 8.0 5.25 L 8.0 5.33 L 8.0 5.42 L 8.0 5.5 L 8.0 5.58 L 8.0 5.67 L 8.0 5.75 L 8.0 5.83 L 8.0 5.92 L 8.0 6.0" fill="none" stroke="#111" stroke-width="1.26" stroke-linecap="round" stroke-linejoin="round"/>
<path d="M 12.0 6.0 L 12.0 6.08 L 12.0 6.17 L 12.0 6.25 L 12.0 6.33 L 12.0 6.42 L 12.0 6.5 L 12.0 6.58 L 12.0 6.67 L 12.0 6.75 L 12.0 6.83 L 12.0 6.92 L 12.0 7.0 L 12.0 7.08 L 12.0 7.17 L 12.0 7.25 L 12.0 7.33 L 12.0 7.42 L 12.0 7.5 L 12.0 7.58 L 12.0 7.67 L 12.0 7.75 L 12.0 7.83 L 12.0 7.92 L 12.0 8.0" fill="none" stroke="#111" stroke-width="1.26" stroke-linecap="round" stroke-linejoin="round"/>
<path d="M 11.0 15.0 L 11.24 15.35 L 11.43 15.73 L 11.58 16.13 L 11.68 16.54 L 11.73 16.96 L 11.72 17.39 L 11.67 17.81 L 11.57 18.22 L 11.41 18.62 L 11.22 19.0 L 10.97 19.35 L 10.69 19.66 L 10.37 19.95 L 10.02 20.19 L 9.65 20.39 L 9.25 20.54 L 8.84 20.64 L 8.42 20.69 L 7.99 20.7 L 7.57 20.65 L 7.16 20.55 L 6.76 20.4 L 6.38 20.21 L 6.03 19.97 L 6.0 20.0 L 5.92 20.33 L 5.83 20.67 L 5.75 21.0 L 5.67 21.33 L 5.58 21.67 L 5.5 22.0 L 5.42 22.33 L 5.33 22.67 L 5.25 23.0 L 5.17 23.33 L 5.08 23.67 L 5.0 24.0 L 4.92 24.33 L 4.83 24.67 L 4.75 25.0 L 4.67 25.33 L 4.58 25.67 L 4.5 26.0 L 4.42 26.33 L 4.33 26.67 L 4.25 27.0 L 4.17 27.33 L 4.08 27.67 L 4.0 28.0" fill="none" stroke="#111" stroke-width="1.26" stroke-linecap="round" stroke-linejoin="round"/>
<path d="M 12.0 19.0 L 12.21 19.0 L 12.42 19.0 L 12.62 19.0 L 12.83 19.0 L 13.04 19.0 L 13.25 19.0 L 13.46 19.0 L 13.67 19.0 L 13.88 19.0 L 14.08 19.0 L 14.29 19.0 L 14.5 19.0 L 14.71 19.0 L 14.92 19.0 L 15.12 19.0 L 15.33 19.0 L 15.54 19.0 L 15.75 19.0 L 15.96 19.0 L 16.17 19.0 L 16.38 19.0 L 16.58 19.0 L 16.79 19.0 L 17.0 19.0 L 17.0 19.0 L 17.0 19.21 L 17.0 19.42 L 17.0 19.62 L 17.0 19.83 L 17.0 20.04 L 17.0 20.25 L 17.0 20.46 L 17.0 20.67 L 17.0 20.88 L 17.0 21.08 L 17.0 21.29 L 17.0 21.5 L 17.0 21.71 L 17.0 21.92 L 17.0 22.12 L 17.0 22.33 L 17.0 22.54 L 17.0 22.75 L 17.0 22.96 L 17.0 23.17 L 17.0 23.38 L 17.0 23.58 L 17.0 23.79 L 17.0 24.0" fill="none" stroke="#111" stroke-width="1.26" stroke-linecap="round" stroke-linejoin="round"/>
<path d="M 11.0 18.0 L 11.0 18.21 L 11.0 18.42 L 11.0 18.62 L 11.0 18.83 L 11.0 19.04 L 11.0 19.25 L 11.0 19.46 L 11.0 19.67 L 11.0 19.88 L 11.0 20.08 L 11.0 20.29 L 11.0 20.5 L 11.0 20.71 L 11.0 20.92 L 11.0 21.12 L 11.0 21.33 L 11.0 21.54 L 11.0 21.75 L 11.0 21.96 L 11.0 22.17 L 11.0 22.38 L 11.0 22.58 L 11.0 22.79 L 11.0 23.0 L 11.0 23.0 L 10.74 23.16 L 10.48 23.33 L 10.23 23.51 L 9.98 23.7 L 9.75 23.89 L 9.52 24.1 L 9.3 24.32 L 9.08 24.54 L 8.88 24.77 L 8.68 25.01 L 8.5 25.26 L 8.32 25.51 L 8.16 25.77 L 8.0 26.04 L 7.85 26.31 L 7.72 26.59 L 7.59 26.87 L 7.48 27.15 L 7.38 27.45 L 7.29 27.74 L 7.21 28.04 L 7.14 28.34 L 7.08 28.64 L 7.04 28.95" fill="none" stroke="#111" stroke-width="1.26" stroke-linecap="round" stroke-linejoin="round"/>
<path d="M 11.0 22.0 L 11.34 22.11 L 11.68 22.25 L 12.01 22.41 L 12.32 22.58 L 12.63 22.78 L 12.92 23.0 L 13.2 23.23 L 13.46 23.48 L 13.7 23.75 L 13.93 24.03 L 14.14 24.33 L 14.33 24.64 L 14.5 24.96 L 14.65 25.29 L 14.78 25.63 L 14.88 25.97 L 14.97 26.33 L 15.03 26.68 L 15.06 27.05 L 15.08 27.41 L 15.07 27.77 L 15.04 28.13 L 14.99 28.49 L 14.91 28.84" fill="none" stroke="#111" stroke-width="1.26" stroke-linecap="round" stroke-linejoin="round"/>
<path d="M 9.0 24.0 L 9.26 24.25 L 9.5 24.51 L 9.73 24.79 L 9.95 25.07 L 10.16 25.36 L 10.35 25.67 L 10.52 25.98 L 10.68 26.3 L 10.83 26.63 L 10.95 26.97 L 11.07 27.31 L 11.16 27.65 L 11.24 28.0 L 11.3 28.35 L 11.35 28.71 L 11.37 29.07 L 11.38 29.43 L 11.38 29.78 L 11.35 30.14 L 11.31 30.5 L 11.25 30.85 L 11.17 31.2 L 11.08 31.55 L 10.97 31.89" fill="none" stroke="#111" stroke-width="1.26" stroke-linecap="round" stroke-linejoin="round"/>
<path d="M 8.0 13.0 L 8.0 13.17 L 8.0 13.33 L 8.0 13.5 L 8.0 13.67 L 8.0 13.83 L 8.0 14.0 L 8.0 14.17 L 8.0 14.33 L 8.0 14.5 L 8.0 14.67 L 8.0 14.83 L 8.0 15.0 L 8.0 15.17 L 8.0 15.33 L 8.0 15.5 L 8.0 15.67 L 8.0 15.83 L 8.0 16.0 L 8.0 16.17 L 8.0 16.33 L 8.0 16.5 L 8.0 16.67 L 8.0 16.83 L 8.0 17.0" fill="none" stroke="#111" stroke-width="1.26" stroke-linecap="round" stroke-linejoin="round"/>
<path d="M 14.0 14.0 L 14.0 14.08 L 14.0 14.17 L 14.0 14.25 L 14.0 14.33 L 14.0 14.42 L 14.0 14.5 L 14.0 14.58 L 14.0 14.67 L 14.0 14.75 L 14.0 14.83 L 14.0 14.92 L 14.0 15.0 L 14.0 15.08 L 14.0 15.17 L 14.0 15.25 L 14.0 15.33 L 14.0 15.42 L 14.0 15.5 L 14.0 15.58 L 14.0 15.67 L 14.0 15.75 L 14.0 15.83 L 14.0 15.92 L 14.0 16.0" fill="none" stroke="#111" stroke-width="1.26" stroke-linecap="round" stroke-linejoin="round"/>
</svg>
