<?xml version="1.0" encoding="UTF-8"?>
<svg xmlns="http://www.w3.org/2000/svg" viewBox="0 0 26.76 29.00">
<path d="M 7.71 4.0 L 6.36 5.25 L 5.28 6.73 L 4.51 8.4 L 4.08 10.19 L 4.0 12.03 L 4.28 13.84 L 4.91 15.57 L 5.87 17.14 L 7.11 18.49 L 8.6 19.58 L 10.26 20.36 L 12.05 20.79 L 13.89 20.87 L 15.7 20.59 L 17.43 19.97 L 19.01 19.02 L 20.36 17.78 L 21.45 16.29 L 22.23 14.63 L 22.67 12.85 L 22.76 11.01 L 22.49 9.19 L 21.86 7.46 L 20.92 5.89" fill="none" stroke="#111" stroke-width="1.02" stroke-linecap="round" stroke-linejoin="round"/>
<path d="M 11.71 10.0 L 11.05 10.19 L 10.44 10.49 L 9.88 10.9 L 9.41 11.41 L 9.04 11.98 L 8.78 12.62 L 8.64 13.29 L 8.62 13.98 L 8.72 14.66 L 8.95 15.31 L 9.29 15.91 L 9.73 16.44 L 10.26 16.88 L 10.85 17.22 L 11.5 17.44 L 12.18 17.55 L 12.87 17.53 L 13.54 17.38 L 14.18 17.12 L 14.76 16.75 L 15.26 16.28 L 15.67 15.73 L 15.98 15.11 L 16.16 14.45 L 15.71 14.0 L 15.64 13.77 L 15.56 13.54 L 15.47 13.31 L 15.37 13.09 L 15.26 12.87 L 15.14 12.66 L 15.02 12.45 L 14.88 12.25 L 14.74 12.05 L 14.58 11.86 L 14.42 11.68 L 14.26 11.51 L 14.08 11.34 L 13.9 11.18 L 13.71 11.02 L 13.51 10.88 L 13.31 10.74 L 13.1 10.62 L 12.89 10.5 L 12.67 10.39 L 12.45 10.29 L 12.22 10.2 L 11.99 10.12 L 11.76 10.05" fill="none" stroke="#111" stroke-width="1.02" stroke-linecap="round" stroke-linejoin="round"/>
<path d="M 10.71 12.0 L 10.67 11.96 L 10.63 11.92 L 10.59 11.88 L 10.55 11.83 L 10.51 11.79 L 10.46 11.75 L 10.42 11.71 L 10.38 11.67 L 10.34 11.62 L 10.3 11.58 L 10.26 11.54 L 10.21 11.5 L 10.17 11.46 L 10.13 11.42 L 10.09 11.38 L 10.05 11.33 L 10.01 11.29 L 9.96 11.25 L 9.92 11.21 L 9.88 11.17 L 9.84 11.12 L 9.8 11.08 L 9.76 11.04 L 9.71 11.0 L 9.71 11.0 L 9.8 11.08 L 9.88 11.17 L 9.96 11.25 L 10.05 11.33 L 10.13 11.42 L 10.21 11.5 L 10.3 11.58 L 10.38 11.67 L 10.46 11.75 L 10.55 11.83 L 10.63 11.92 L 10.71 12.0 L 10.8 12.08 L 10.88 12.17 L 10.96 12.25 L 11.05 12.33 L 11.13 12.42 L 11.21 12.5 L 11.3 12.58 L 11.38 12.67 L 11.46 12.75 L 11.55 12.83 L 11.63 12.92 L 11.71 13.0" fill="none" stroke="#111" stroke-width="1.02" stroke-linecap="round" stroke-linejoin="round"/>
<path d="M 14.71 12.0 L 14.63 12.04 L 14.55 12.08 L 14.46 12.12 L 14.38 12.17 L 14.3 12.21 L 14.21 12.25 L 14.13 12.29 L 14.05 12.33 L 13.96 12.38 L 13.88 12.42 L 13.8 12.46 L 13.71 12.5 L 13.63 12.54 L 13.55 12.58 L 13.46 12.62 L 13.38 12.67 L 13.3 12.71 L 13.21 12.75 L 13.13 12.79 L 13.05 12.83 L 12.96 12.88 L 12.88 12.92 L 12.8 12.96 L 12.71 13.0" fill="none" stroke="#111" stroke-width="1.02" stroke-linecap="round" stroke-linejoin="round"/>
<path d="M 11.71 14.0 L 11.71 14.12 L 11.71 14.25 L 11.71 14.38 L 11.71 14.5 L 11.71 14.62 L 11.71 14.75 L 11.71 14.88 L 11.71 15.0 L 11.71 15.12 L 11.71 15.25 L 11.71 15.38 L 11.71 15.5 L 11.71 15.62 L 11.71 15.75 L 11.71 15.88 L 11.71 16.0 L 11.71 16.12 L 11.71 16.25 L 11.71 16.38 L 11.71 16.5 L 11.71 16.62 L 11.71 16.75 L 11.71 16.88 L 11.71 17.0" fill="none" stroke="#111" stroke-width="1.02" stroke-linecap="round" stroke-linejoin="round"/>
<path d="M 5.71 9.0 L 5.88 8.96 L 6.05 8.92 L 6.21 8.88 L 6.38 8.83 L 6.55 8.79 L 6.71 8.75 L 6.88 8.71 L 7.05 8.67 L 7.21 8.62 L 7.38 8.58 L 7.55 8.54 L 7.71 8.5 L 7.88 8.46 L 8.05 8.42 L 8.21 8.38 L 8.38 8.33 L 8.55 8.29 L 8.71 8.25 L 8.88 8.21 L 9.05 8.17 L 9.21 8.12 L 9.38 8.08 L 9.55 8.04 L 9.71 8.0" fill="none" stroke="#111" stroke-width="1.02" stroke-linecap="round" stroke-linejoin="round"/>
<path d="M 13.71 10.0 L 13.88 9.96 L 14.05 9.92 L 14.21 9.88 L 14.38 9.83 L 14.55 9.79 L 14.71 9.75 L 14.88 9.71 L 15.05 9.67 L 15.21 9.62 L 15.38 9.58 L 15.55 9.54 L 15.71 9.5 L 15.88 9.46 L 16.05 9.42 L 16.21 9.38 L 16.38 9.33 L 16.55 9.29 L 16.71 9.25 L 16.88 9.21 L 17.05 9.17 L 17.21 9.12 L 17.38 9.08 L 17.55 9.04 L 17.71 9.0" fill="none" stroke="#111" stroke-width="1.02" stroke-linecap="round" stroke-linejoin="round"/>
<path d="M 9.71 20.0 L 9.63 20.17 L 9.55 20.33 L 9.46 20.5 L 9.38 20.67 L 9.3 20.83 L 9.21 21.0 L 9.13 21.17 L 9.05 21.33 L 8.96 21.5 L 8.88 21.67 L 8.8 21.83 L 8.71 22.0 L 8.63 22.17 L 8.55 22.33 L 8.46 22.5 L 8.38 22.67 L 8.3 22.83 L 8.21 23.0 L 8.13 23.17 L 8.05 23.33 L 7.96 23.5 L 7.88 23.67 L 7.8 23.83 L 7.71 24.0" fill="none" stroke="#111" stroke-width="1.02" stroke-linecap="round" stroke-linejoin="round"/>
<path d="M 14.71 20.0 L 14.76 20.17 L 14.8 20.33 L 14.84 20.5 L 14.88 20.67 L 14.92 20.83 L 14.96 21.0 L 15.01 21.17 L 15.05 21.33 L 15.09 21.5 L 15.13 21.67 L 15.17 21.83 L 15.21 22.0 L 15.26 22.17 L 15.3 22.33 L 15.34 22.5 L 15.38 22.67 L 15.42 22.83 L 15.46 23.0 L 15.51 23.17 L 15.55 23.33 L 15.59 23.5 L 15.63 23.67 L 15.67 23.83 L 15.71 24.0" fill="none" stroke="#111" stroke-width="1.02" stroke-linecap="round" stroke-linejoin="round"/>
<path d="M 4.71 25.0 L 5.34 24.96 L 5.96 24.92 L 6.59 24.88 L 7.21 24.83 L 7.84 24.79 L 8.46 24.75 L 9.09 24.71 L 9.71 24.67 L 10.34 24.62 L 10.96 24.58 L 11.59 24.54 L 12.21 24.5 L 12.84 24.46 L 13.46 24.42 L 14.09 24.38 L 14.71 24.33 L 15.34 24.29 L 15.96 24.25 L 16.59 24.21 L 17.21 24.17 L 17.84 24.12 L 18.46 24.08 L 19.09 24.04 L 19.71 24.0" fill="none" stroke="#111" stroke-width="1.02" stroke-linecap="round" stroke-linejoin="round"/>
</svg>
