<?xml version="1.0" encoding="UTF-8"?>
<svg xmlns="http://www.w3.org/2000/svg" viewBox="0 0 25.75 34.00">
<path d="M 11.74 4.0 L 10.88 4.66 L 10.05 5.36 L 9.27 6.12 L 8.53 6.92 L 7.84 7.76 L 7.21 8.64 L 6.62 9.56 L 6.09 10.51 L 5.62 11.48 L 5.2 12.49 L 4.85 13.52 L 4.55 14.56 L 4.32 15.63 L 4.15 16.7 L 4.04 17.78 L 4.0 18.87 L 4.02 19.95 L 4.11 21.04 L 4.26 22.12 L 4.47 23.18 L 4.74 24.23 L 5.08 25.27 L 5.47 26.28 L 5.93 27.27" fill="none" stroke="#111" stroke-width="1.19" stroke-linecap="round" stroke-linejoin="round"/>
<path d="M 11.74 4.0 L 12.79 4.42 L 13.79 4.92 L 14.76 5.5 L 15.69 6.14 L 16.56 6.85 L 17.38 7.62 L 18.14 8.45 L 18.83 9.33 L 19.46 10.26 L 20.02 11.24 L 20.51 12.25 L 20.91 13.3 L 21.24 14.38 L 21.49 15.47 L 21.66 16.59 L 21.75 17.71 L 21.75 18.83 L 21.67 19.95 L 21.51 21.07 L 21.26 22.16 L 20.93 23.24 L 20.53 24.29 L 20.05 25.31 L 19.5 26.29" fill="none" stroke="#111" stroke-width="1.19" stroke-linecap="round" stroke-linejoin="round"/>
<path d="M 12.74 10.0 L 12.74 10.83 L 12.74 11.67 L 12.74 12.5 L 12.74 13.33 L 12.74 14.17 L 12.74 15.0 L 12.74 15.83 L 12.74 16.67 L 12.74 17.5 L 12.74 18.33 L 12.74 19.17 L 12.74 20.0 L 12.74 20.83 L 12.74 21.67 L 12.74 22.5 L 12.74 23.33 L 12.74 24.17 L 12.74 25.0 L 12.74 25.83 L 12.74 26.67 L 12.74 27.5 L 12.74 28.33 L 12.74 29.17 L 12.74 30.0" fill="none" stroke="#111" stroke-width="1.19" stroke-linecap="round" stroke-linejoin="round"/>
<path d="M 8.74 22.0 L 9.08 21.58 L 9.41 21.17 L 9.74 20.75 L 10.08 20.33 L 10.41 19.92 L 10.74 19.5 L 11.08 19.08 L 11.41 18.67 L 11.74 18.25 L 12.08 17.83 L 12.41 17.42 L 12.74 17.0 L 13.08 16.58 L 13.41 16.17 L 13.74 15.75 L 14.08 15.33 L 14.41 14.92 L 14.74 14.5 L 15.08 14.08 L 15.41 13.67 L 15.74 13.25 L 16.08 12.83 L 16.41 12.42 L 16.74 12.0" fill="none" stroke="#111" stroke-width="1.19" stroke-linecap="round" stroke-linejoin="round"/>
</svg>
