<?xml version="1.0" encoding="UTF-8"?>
<svg xmlns="http://www.w3.org/2000/svg" viewBox="0 0 23.00 33.00">
<path d="M 7.0 6.0 L 7.21 6.38 L 7.42 6.75 L 7.62 7.12 L 7.83 7.5 L 8.04 7.88 L 8.25 8.25 L 8.46 8.62 L 8.67 9.0 L 8.88 9.38 L 9.08 9.75 L 9.29 10.12 L 9.5 10.5 L 9.71 10.88 L 9.92 11.25 L 10.12 11.63 L 10.33 12.0 L 10.54 12.38 L 10.75 12.75 L 10.96 13.12 L 11.17 13.5 L 11.38 13.88 L 11.58 14.25 L 11.79 14.63 L 12.0 15.0 L 12.0 15.0 L 12.17 14.62 L 12.33 14.25 L 12.5 13.88 L 12.67 13.5 L 12.83 13.12 L 13.0 12.75 L 13.17 12.38 L 13.33 12.0 L 13.5 11.62 L 13.67 11.25 L 13.83 10.88 L 14.0 10.5 L 14.17 10.12 L 14.33 9.75 L 14.5 9.38 L 14.67 9.0 L 14.83 8.62 L 15.0 8.25 L 15.17 7.88 L 15.33 7.5 L 15.5 7.12 L 15.67 6.75 L 15.83 6.38 L 16.0 6.0" fill="none" stroke="#111" stroke-width="1.16" stroke-linecap="round" stroke-linejoin="round"/>
<path d="M 12.0 15.0 L 12.0 15.58 L 12.0 16.17 L 12.0 16.75 L 12.0 17.33 L 12.0 17.92 L 12.0 18.5 L 12.0 19.08 L 12.0 19.67 L 12.0 20.25 L 12.0 20.83 L 12.0 21.42 L 12.0 22.0 L 12.0 22.58 L 12.0 23.17 L 12.0 23.75 L 12.0 24.33 L 12.0 24.92 L 12.0 25.5 L 12.0 26.08 L 12.0 26.67 L 12.0 27.25 L 12.0 27.83 L 12.0 28.42 L 12.0 29.0" fill="none" stroke="#111" stroke-width="1.16" stroke-linecap="round" stroke-linejoin="round"/>
<path d="M 6.0 5.0 L 5.92 5.38 L 5.83 5.75 L 5.75 6.12 L 5.67 6.5 L 5.58 6.88 L 5.5 7.25 L 5.42 7.62 L 5.33 8.0 L 5.25 8.38 L 5.17 8.75 L 5.08 9.12 L 5.0 9.5 L 4.92 9.88 L 4.83 10.25 L 4.75 10.62 L 4.67 11.0 L 4.58 11.38 L 4.5 11.75 L 4.42 12.12 L 4.33 12.5 L 4.25 12.88 L 4.17 13.25 L 4.08 13.62 L 4.0 14.0" fill="none" stroke="#111" stroke-width="1.16" stroke-linecap="round" stroke-linejoin="round"/>
<path d="M 16.0 5.0 L 16.12 5.38 L 16.25 5.75 L 16.38 6.12 L 16.5 6.5 L 16.62 6.88 L 16.75 7.25 L 16.88 7.62 L 17.0 8.0 L 17.12 8.38 L 17.25 8.75 L 17.38 9.12 L 17.5 9.5 L 17.62 9.88 L 17.75 10.25 L 17.88 10.62 L 18.0 11.0 L 18.12 11.38 L 18.25 11.75 L 18.38 12.12 L 18.5 12.5 L 18.62 12.88 L 18.75 13.25 L 18.88 13.62 L 19.0 14.0" fill="none" stroke="#111" stroke-width="1.16" stroke-linecap="round" stroke-linejoin="round"/>
<path d="M 7.0 18.0 L 7.17 18.21 L 7.33 18.42 L 7.5 18.62 L 7.67 18.83 L 7.83 19.04 L 8.0 19.25 L 8.17 19.46 L 8.33 19.67 L 8.5 19.88 L 8.67 20.08 L 8.83 20.29 L 9.0 20.5 L 9.17 20.71 L 9.33 20.92 L 9.5 21.12 L 9.67 21.33 L 9.83 21.54 L 10.0 21.75 L 10.17 21.96 L 10.33 22.17 L 10.5 22.38 L 10.67 22.58 L 10.83 22.79 L 11.0 23.0 L 11.0 23.0 L 11.25 22.79 L 11.5 22.58 L 11.75 22.38 L 12.0 22.17 L 12.25 21.96 L 12.5 21.75 L 12.75 21.54 L 13.0 21.33 L 13.25 21.12 L 13.5 20.92 L 13.75 20.71 L 14.0 20.5 L 14.25 20.29 L 14.5 20.08 L 14.75 19.88 L 15.0 19.67 L 15.25 19.46 L 15.5 19.25 L 15.75 19.04 L 16.0 18.83 L 16.25 18.62 L 16.5 18.42 L 16.75 18.21 L 17.0 18.0" fill="none" stroke="#111" stroke-width="1.16" stroke-linecap="round" stroke-linejoin="round"/>
<path d="M 10.0 5.0 L 10.08 5.12 L 10.17 5.25 L 10.25 5.38 L 10.33 5.5 L 10.42 5.62 L 10.5 5.75 L 10.58 5.88 L 10.67 6.0 L 10.75 6.12 L 10.83 6.25 L 10.92 6.38 L 11.0 6.5 L 11.08 6.62 L 11.17 6.75 L 11.25 6.88 L 11.33 7.0 L 11.42 7.12 L 11.5 7.25 L 11.58 7.38 L 11.67 7.5 L 11.75 7.62 L 11.83 7.75 L 11.92 7.88 L 12.0 8.0 L 12.0 8.0 L 12.08 7.83 L 12.17 7.67 L 12.25 7.5 L 12.33 7.33 L 12.42 7.17 L 12.5 7.0 L 12.58 6.83 L 12.67 6.67 L 12.75 6.5 L 12.83 6.33 L 12.92 6.17 L 13.0 6.0 L 13.08 5.83 L 13.17 5.67 L 13.25 5.5 L 13.33 5.33 L 13.42 5.17 L 13.5 5.0 L 13.58 4.83 L 13.67 4.67 L 13.75 4.5 L 13.83 4.33 L 13.92 4.17 L 14.0 4.0" fill="none" stroke="#111" stroke-width="1.16" stroke-linecap="round" stroke-linejoin="round"/>
</svg>
