<?xml version="1.0" encoding="UTF-8"?>
<svg xmlns="http://www.w3.org/2000/svg" viewBox="0 0 23.09 32.00">
<path d="M 12.12 4.0 L 11.34 4.23 L 10.57 4.52 L 9.83 4.86 L 9.12 5.26 L 8.44 5.71 L 7.8 6.21 L 7.2 6.77 L 6.64 7.36 L 6.12 8.0 L 5.66 8.67 L 5.25 9.37 L 4.89 10.11 L 4.6 10.87 L 4.36 11.65 L 4.18 12.45 L 4.06 13.25 L 4.0 14.07 L 4.01 14.89 L 4.07 15.7 L 4.2 16.51 L 4.39 17.3 L 4.64 18.08 L 4.95 18.83 L 5.31 19.56" fill="none" stroke="#111" stroke-width="1.12" stroke-linecap="round" stroke-linejoin="round"/>
<path d="M 12.12 4.0 L 12.81 4.27 L 13.48 4.6 L 14.12 4.97 L 14.74 5.38 L 15.33 5.83 L 15.88 6.33 L 16.39 6.86 L 16.87 7.43 L 17.31 8.03 L 17.7 8.66 L 18.05 9.32 L 18.35 10.0 L 18.6 10.69 L 18.8 11.41 L 18.95 12.13 L 19.05 12.87 L 19.09 13.61 L 19.09 14.35 L 19.03 15.09 L 18.92 15.83 L 18.76 16.55 L 18.55 17.26 L 18.28 17.96 L 17.97 18.63" fill="none" stroke="#111" stroke-width="1.12" stroke-linecap="round" stroke-linejoin="round"/>
<path d="M 9.12 7.0 L 9.62 7.12 L 10.1 7.29 L 10.57 7.51 L 11.01 7.76 L 11.43 8.05 L 11.83 8.38 L 12.19 8.74 L 12.52 9.13 L 12.81 9.55 L 13.06 10.0 L 13.27 10.46 L 13.44 10.95 L 13.56 11.44 L 13.64 11.95 L 13.68 12.46 L 13.67 12.97 L 13.61 13.48 L 13.51 13.98 L 13.36 14.47 L 13.17 14.94 L 12.94 15.4 L 12.66 15.83 L 12.35 16.24 L 12.01 16.62 L 12.12 17.0 L 11.68 16.7 L 11.27 16.36 L 10.9 15.97 L 10.57 15.56 L 10.28 15.11 L 10.04 14.63 L 9.86 14.13 L 9.72 13.61 L 9.63 13.09 L 9.6 12.55 L 9.63 12.02 L 9.7 11.49 L 9.84 10.98 L 10.02 10.48 L 10.25 10.0 L 10.53 9.54 L 10.86 9.12 L 11.22 8.73 L 11.63 8.38 L 12.07 8.08 L 12.53 7.82 L 13.02 7.61 L 13.53 7.45 L 14.05 7.34" fill="none" stroke="#111" stroke-width="1.12" stroke-linecap="round" stroke-linejoin="round"/>
<path d="M 12.12 17.0 L 12.12 17.42 L 12.12 17.83 L 12.12 18.25 L 12.12 18.67 L 12.12 19.08 L 12.12 19.5 L 12.12 19.92 L 12.12 20.33 L 12.12 20.75 L 12.12 21.17 L 12.12 21.58 L 12.12 22.0 L 12.12 22.42 L 12.12 22.83 L 12.12 23.25 L 12.12 23.67 L 12.12 24.08 L 12.12 24.5 L 12.12 24.92 L 12.12 25.33 L 12.12 25.75 L 12.12 26.17 L 12.12 26.58 L 12.12 27.0" fill="none" stroke="#111" stroke-width="1.12" stroke-linecap="round" stroke-linejoin="round"/>
<path d="M 6.12 28.0 L 6.58 28.0 L 7.04 28.0 L 7.5 28.0 L 7.96 28.0 L 8.41 28.0 L 8.87 28.0 L 9.33 28.0 L 9.79 28.0 L 10.25 28.0 L 10.71 28.0 L 11.16 28.0 L 11.62 28.0 L 12.08 28.0 L 12.54 28.0 L 13.0 28.0 L 13.46 28.0 L 13.91 28.0 L 14.37 28.0 L 14.83 28.0 L 15.29 28.0 L 15.75 28.0 L 16.21 28.0 L 16.66 28.0 L 17.12 28.0" fill="none" stroke="#111" stroke-width="1.12" stroke-linecap="round" stroke-linejoin="round"/>
<path d="M 8.12 19.0 L 8.29 19.17 L 8.46 19.33 L 8.62 19.5 L 8.79 19.67 L 8.96 19.83 L 9.12 20.0 L 9.29 20.17 L 9.46 20.33 L 9.62 20.5 L 9.79 20.67 L 9.96 20.83 L 10.12 21.0 L 10.29 21.17 L 10.46 21.33 L 10.62 21.5 L 10.79 21.67 L 10.96 21.83 L 11.12 22.0 L 11.29 22.17 L 11.46 22.33 L 11.62 22.5 L 11.79 22.67 L 11.96 22.83 L 12.12 23.0" fill="none" stroke="#111" stroke-width="1.12" stroke-linecap="round" stroke-linejoin="round"/>
<path d="M 15.12 19.0 L 15.0 19.21 L 14.87 19.42 L 14.75 19.62 L 14.62 19.83 L 14.5 20.04 L 14.37 20.25 L 14.25 20.46 L 14.12 20.67 L 14.0 20.88 L 13.87 21.08 L 13.75 21.29 L 13.62 21.5 L 13.5 21.71 L 13.37 21.92 L 13.25 22.12 L 13.12 22.33 L 13.0 22.54 L 12.87 22.75 L 12.75 22.96 L 12.62 23.17 L 12.5 23.38 L 12.37 23.58 L 12.25 23.79 L 12.12 24.0" fill="none" stroke="#111" stroke-width="1.12" stroke-linecap="round" stroke-linejoin="round"/>
</svg>
