<?xml version="1.0" encoding="UTF-8"?>
<svg xmlns="http://www.w3.org/2000/svg" viewBox="0 0 21.00 35.97">
<path d="M 4.0 10.0 L 4.54 9.92 L 5.08 9.83 L 5.62 9.75 L 6.17 9.67 L 6.71 9.58 L 7.25 9.5 L 7.79 9.42 L 8.33 9.33 L 8.88 9.25 L 9.42 9.17 L 9.96 9.08 L 10.5 9.0 L 11.04 8.92 L 11.58 8.83 L 12.12 8.75 L 12.67 8.67 L 13.21 8.58 L 13.75 8.5 L 14.29 8.42 L 14.83 8.33 L 15.38 8.25 L 15.92 8.17 L 16.46 8.08 L 17.0 8.0" fill="none" stroke="#111" stroke-width="1.26" stroke-linecap="round" stroke-linejoin="round"/>
<path d="M 5.0 5.0 L 5.04 5.12 L 5.08 5.25 L 5.12 5.38 L 5.17 5.5 L 5.21 5.62 L 5.25 5.75 L 5.29 5.88 L 5.33 6.0 L 5.38 6.12 L 5.42 6.25 L 5.46 6.38 L 5.5 6.5 L 5.54 6.62 L 5.58 6.75 L 5.62 6.88 L 5.67 7.0 L 5.71 7.12 L 5.75 7.25 L 5.79 7.38 L 5.83 7.5 L 5.88 7.62 L 5.92 7.75 L 5.96 7.88 L 6.0 8.0" fill="none" stroke="#111" stroke-width="1.26" stroke-linecap="round" stroke-linejoin="round"/>
<path d="M 10.0 5.0 L 10.0 5.08 L 10.0 5.17 L 10.0 5.25 L 10.0 5.33 L 10.0 5.42 L 10.0 5.5 L 10.0 5.58 L 10.0 5.67 L 10.0 5.75 L 10.0 5.83 L 10.0 5.92 L 10.0 6.0 L 10.0 6.08 L 10.0 6.17 L 10.0 6.25 L 10.0 6.33 L 10.0 6.42 L 10.0 6.5 L 10.0 6.58 L 10.0 6.67 L 10.0 6.75 L 10.0 6.83 L 10.0 6.92 L 10.0 7.0" fill="none" stroke="#111" stroke-width="1.26" stroke-linecap="round" stroke-linejoin="round"/>
<path d="M 14.0 4.0 L 14.0 4.08 L 14.0 4.17 L 14.0 4.25 L 14.0 4.33 L 14.0 4.42 L 14.0 4.5 L 14.0 4.58 L 14.0 4.67 L 14.0 4.75 L 14.0 4.83 L 14.0 4.92 L 14.0 5.0 L 14.0 5.08 L 14.0 5.17 L 14.0 5.25 L 14.0 5.33 L 14.0 5.42 L 14.0 5.5 L 14.0 5.58 L 14.0 5.67 L 14.0 5.75 L 14.0 5.83 L 14.0 5.92 L 14.0 6.0" fill="none" stroke="#111" stroke-width="1.26" stroke-linecap="round" stroke-linejoin="round"/>
<path d="M 11.0 9.0 L 10.96 9.62 L 10.92 10.25 L 10.88 10.88 L 10.83 11.5 L 10.79 12.12 L 10.75 12.75 L 10.71 13.38 L 10.67 14.0 L 10.62 14.62 L 10.58 15.25 L 10.54 15.88 L 10.5 16.5 L 10.46 17.12 L 10.42 17.75 L 10.38 18.38 L 10.33 19.0 L 10.29 19.62 L 10.25 20.25 L 10.21 20.88 L 10.17 21.5 L 10.12 22.12 L 10.08 22.75 L 10.04 23.38 L 10.0 24.0" fill="none" stroke="#111" stroke-width="1.26" stroke-linecap="round" stroke-linejoin="round"/>
<path d="M 11.0 17.0 L 11.52 17.23 L 12.02 17.51 L 12.48 17.85 L 12.91 18.22 L 13.3 18.64 L 13.65 19.09 L 13.95 19.58 L 14.2 20.09 L 14.4 20.63 L 14.54 21.18 L 14.62 21.75 L 14.65 22.32 L 14.62 22.89 L 14.54 23.46 L 14.4 24.01 L 14.2 24.55 L 13.95 25.06 L 13.65 25.55 L 13.3 26.0 L 12.91 26.42 L 12.48 26.79 L 12.02 27.13 L 11.52 27.41 L 11.0 27.64" fill="none" stroke="#111" stroke-width="1.26" stroke-linecap="round" stroke-linejoin="round"/>
<path d="M 11.0 21.0 L 11.28 21.41 L 11.55 21.82 L 11.81 22.23 L 12.06 22.66 L 12.3 23.08 L 12.54 23.52 L 12.76 23.96 L 12.97 24.4 L 13.18 24.85 L 13.37 25.3 L 13.55 25.76 L 13.73 26.22 L 13.89 26.68 L 14.04 27.15 L 14.18 27.62 L 14.32 28.09 L 14.44 28.57 L 14.55 29.05 L 14.65 29.53 L 14.74 30.02 L 14.82 30.5 L 14.88 30.99 L 14.94 31.48 L 14.99 31.97" fill="none" stroke="#111" stroke-width="1.26" stroke-linecap="round" stroke-linejoin="round"/>
</svg>
