<?xml version="1.0" encoding="UTF-8"?>
<svg xmlns="http://www.w3.org/2000/svg" viewBox="0 0 24.45 26.59">
<path d="M 10.86 4.0 L 10.17 4.35 L 9.51 4.75 L 8.88 5.19 L 8.28 5.67 L 7.7 6.19 L 7.17 6.74 L 6.67 7.32 L 6.2 7.94 L 5.78 8.58 L 5.4 9.25 L 5.06 9.94 L 4.77 10.65 L 4.52 11.38 L 4.32 12.13 L 4.17 12.88 L 4.06 13.64 L 4.01 14.41 L 4.0 15.18 L 4.04 15.95 L 4.13 16.72 L 4.27 17.47 L 4.46 18.22 L 4.7 18.95 L 4.98 19.67" fill="none" stroke="#111" stroke-width="0.93" stroke-linecap="round" stroke-linejoin="round"/>
<path d="M 10.86 4.0 L 11.64 4.08 L 12.41 4.21 L 13.17 4.41 L 13.91 4.67 L 14.62 4.98 L 15.32 5.35 L 15.98 5.77 L 16.6 6.24 L 17.19 6.76 L 17.73 7.33 L 18.23 7.93 L 18.68 8.58 L 19.08 9.25 L 19.42 9.96 L 19.71 10.69 L 19.94 11.43 L 20.11 12.2 L 20.22 12.98 L 20.27 13.76 L 20.25 14.54 L 20.18 15.32 L 20.04 16.09 L 19.85 16.85 L 19.6 17.59" fill="none" stroke="#111" stroke-width="0.93" stroke-linecap="round" stroke-linejoin="round"/>
<path d="M 8.86 12.0 L 8.19 13.02 L 7.72 14.14 L 7.47 15.34 L 7.44 16.55 L 7.64 17.75 L 8.07 18.9 L 8.7 19.94 L 9.51 20.85 L 10.47 21.59 L 11.56 22.14 L 12.73 22.48 L 13.94 22.59 L 15.16 22.48 L 16.33 22.14 L 17.42 21.59 L 18.38 20.85 L 19.19 19.94 L 19.82 18.9 L 20.24 17.75 L 20.45 16.55 L 20.42 15.34 L 20.17 14.14 L 19.7 13.02 L 19.03 12.0" fill="none" stroke="#111" stroke-width="0.93" stroke-linecap="round" stroke-linejoin="round"/>
<path d="M 8.86 17.0 L 9.15 17.0 L 9.44 17.0 L 9.73 17.0 L 10.02 17.0 L 10.31 17.0 L 10.61 17.0 L 10.9 17.0 L 11.19 17.0 L 11.48 17.0 L 11.77 17.0 L 12.06 17.0 L 12.36 17.0 L 12.65 17.0 L 12.94 17.0 L 13.23 17.0 L 13.52 17.0 L 13.81 17.0 L 14.11 17.0 L 14.4 17.0 L 14.69 17.0 L 14.98 17.0 L 15.27 17.0 L 15.56 17.0 L 15.86 17.0" fill="none" stroke="#111" stroke-width="0.93" stroke-linecap="round" stroke-linejoin="round"/>
</svg>
