<?xml version="1.0" encoding="UTF-8"?>
<svg xmlns="http://www.w3.org/2000/svg" viewBox="0 0 26.00 30.00">
<path d="M 13.0 4.0 L 12.62 4.42 L 12.25 4.83 L 11.88 5.25 L 11.5 5.67 L 11.12 6.08 L 10.75 6.5 L 10.38 6.92 L 10.0 7.33 L 9.62 7.75 L 9.25 8.17 L 8.88 8.58 L 8.5 9.0 L 8.12 9.42 L 7.75 9.83 L 7.37 10.25 L 7.0 10.67 L 6.62 11.08 L 6.25 11.5 L 5.88 11.92 L 5.5 12.33 L 5.12 12.75 L 4.75 13.17 L 4.38 13.58 L 4.0 14.0" fill="none" stroke="#111" stroke-width="1.05" stroke-linecap="round" stroke-linejoin="round"/>
<path d="M 13.0 4.0 L 13.38 4.42 L 13.75 4.83 L 14.12 5.25 L 14.5 5.67 L 14.88 6.08 L 15.25 6.5 L 15.62 6.92 L 16.0 7.33 L 16.38 7.75 L 16.75 8.17 L 17.12 8.58 L 17.5 9.0 L 17.88 9.42 L 18.25 9.83 L 18.62 10.25 L 19.0 10.67 L 19.38 11.08 L 19.75 11.5 L 20.12 11.92 L 20.5 12.33 L 20.88 12.75 L 21.25 13.17 L 21.62 13.58 L 22.0 14.0" fill="none" stroke="#111" stroke-width="1.05" stroke-linecap="round" stroke-linejoin="round"/>
<path d="M 7.0 10.0 L 7.04 10.67 L 7.08 11.33 L 7.12 12.0 L 7.17 12.67 L 7.21 13.33 L 7.25 14.0 L 7.29 14.67 L 7.33 15.33 L 7.38 16.0 L 7.42 16.67 L 7.46 17.33 L 7.5 18.0 L 7.54 18.67 L 7.58 19.33 L 7.62 20.0 L 7.67 20.67 L 7.71 21.33 L 7.75 22.0 L 7.79 22.67 L 7.83 23.33 L 7.88 24.0 L 7.92 24.67 L 7.96 25.33 L 8.0 26.0" fill="none" stroke="#111" stroke-width="1.05" stroke-linecap="round" stroke-linejoin="round"/>
<path d="M 18.0 10.0 L 17.96 10.67 L 17.92 11.33 L 17.88 12.0 L 17.83 12.67 L 17.79 13.33 L 17.75 14.0 L 17.71 14.67 L 17.67 15.33 L 17.62 16.0 L 17.58 16.67 L 17.54 17.33 L 17.5 18.0 L 17.46 18.67 L 17.42 19.33 L 17.38 20.0 L 17.33 20.67 L 17.29 21.33 L 17.25 22.0 L 17.21 22.67 L 17.17 23.33 L 17.12 24.0 L 17.08 24.67 L 17.04 25.33 L 17.0 26.0" fill="none" stroke="#111" stroke-width="1.05" stroke-linecap="round" stroke-linejoin="round"/>
</svg>
