<?xml version="1.0" encoding="UTF-8"?>
<svg xmlns="http://www.w3.org/2000/svg" viewBox="0 0 26.71 33.00">
<path d="M 15.11 4.0 L 14.07 4.3 L 13.06 4.67 L 12.08 5.12 L 11.14 5.64 L 10.24 6.22 L 9.38 6.88 L 8.57 7.59 L 7.82 8.36 L 7.12 9.18 L 6.49 10.05 L 5.92 10.97 L 5.42 11.92 L 5.0 12.91 L 4.64 13.93 L 4.37 14.97 L 4.17 16.02 L 4.04 17.09 L 4.0 18.17 L 4.04 19.25 L 4.15 20.32 L 4.34 21.38 L 4.61 22.42 L 4.96 23.44 L 5.38 24.43" fill="none" stroke="#111" stroke-width="1.16" stroke-linecap="round" stroke-linejoin="round"/>
<path d="M 15.11 4.0 L 15.93 4.52 L 16.73 5.1 L 17.48 5.72 L 18.19 6.39 L 18.86 7.1 L 19.49 7.86 L 20.06 8.65 L 20.58 9.48 L 21.05 10.34 L 21.47 11.22 L 21.82 12.13 L 22.12 13.07 L 22.36 14.01 L 22.54 14.98 L 22.66 15.95 L 22.71 16.92 L 22.7 17.9 L 22.64 18.88 L 22.51 19.85 L 22.31 20.81 L 22.06 21.75 L 21.75 22.68 L 21.38 23.59 L 20.96 24.47" fill="none" stroke="#111" stroke-width="1.16" stroke-linecap="round" stroke-linejoin="round"/>
<path d="M 15.11 9.0 L 15.15 9.58 L 15.19 10.17 L 15.23 10.75 L 15.27 11.33 L 15.32 11.92 L 15.36 12.5 L 15.4 13.08 L 15.44 13.67 L 15.48 14.25 L 15.52 14.83 L 15.57 15.42 L 15.61 16.0 L 15.65 16.58 L 15.69 17.17 L 15.73 17.75 L 15.77 18.33 L 15.82 18.92 L 15.86 19.5 L 15.9 20.08 L 15.94 20.67 L 15.98 21.25 L 16.02 21.83 L 16.07 22.42 L 16.11 23.0 L 16.11 23.0 L 15.77 22.93 L 15.43 22.89 L 15.09 22.88 L 14.74 22.9 L 14.4 22.95 L 14.07 23.03 L 13.74 23.13 L 13.43 23.27 L 13.12 23.43 L 12.83 23.61 L 12.56 23.82 L 12.31 24.06 L 12.08 24.31 L 11.87 24.58 L 11.68 24.87 L 11.52 25.17 L 11.39 25.49 L 11.28 25.82 L 11.2 26.15 L 11.15 26.49 L 11.13 26.83 L 11.14 27.18 L 11.18 27.52 L 11.25 27.86 L 11.11 28.0 L 11.32 27.92 L 11.52 27.83 L 11.73 27.75 L 11.94 27.67 L 12.15 27.58 L 12.36 27.5 L 12.57 27.42 L 12.77 27.33 L 12.98 27.25 L 13.19 27.17 L 13.4 27.08 L 13.61 27.0 L 13.82 26.92 L 14.02 26.83 L 14.23 26.75 L 14.44 26.67 L 14.65 26.58 L 14.86 26.5 L 15.07 26.42 L 15.27 26.33 L 15.48 26.25 L 15.69 26.17 L 15.9 26.08 L 16.11 26.0 L 16.11 26.0 L 16.02 26.12 L 15.94 26.25 L 15.86 26.38 L 15.77 26.5 L 15.69 26.62 L 15.61 26.75 L 15.52 26.88 L 15.44 27.0 L 15.36 27.12 L 15.27 27.25 L 15.19 27.38 L 15.11 27.5 L 15.02 27.62 L 14.94 27.75 L 14.86 27.88 L 14.77 28.0 L 14.69 28.12 L 14.61 28.25 L 14.52 28.38 L 14.44 28.5 L 14.36 28.62 L 14.27 28.75 L 14.19 28.88 L 14.11 29.0" fill="none" stroke="#111" stroke-width="1.16" stroke-linecap="round" stroke-linejoin="round"/>
<path d="M 11.11 13.0 L 11.4 12.96 L 11.69 12.92 L 11.98 12.88 L 12.27 12.83 L 12.57 12.79 L 12.86 12.75 L 13.15 12.71 L 13.44 12.67 L 13.73 12.62 L 14.02 12.58 L 14.32 12.54 L 14.61 12.5 L 14.9 12.46 L 15.19 12.42 L 15.48 12.38 L 15.77 12.33 L 16.07 12.29 L 16.36 12.25 L 16.65 12.21 L 16.94 12.17 L 17.23 12.12 L 17.52 12.08 L 17.82 12.04 L 18.11 12.0 L 18.11 12.0 L 18.07 12.12 L 18.02 12.25 L 17.98 12.38 L 17.94 12.5 L 17.9 12.62 L 17.86 12.75 L 17.82 12.88 L 17.77 13.0 L 17.73 13.12 L 17.69 13.25 L 17.65 13.38 L 17.61 13.5 L 17.57 13.62 L 17.52 13.75 L 17.48 13.88 L 17.44 14.0 L 17.4 14.12 L 17.36 14.25 L 17.32 14.38 L 17.27 14.5 L 17.23 14.62 L 17.19 14.75 L 17.15 14.88 L 17.11 15.0 L 17.11 15.0 L 16.73 15.01 L 16.35 15.03 L 15.97 15.07 L 15.59 15.13 L 15.21 15.19 L 14.84 15.27 L 14.47 15.37 L 14.11 15.48 L 13.75 15.6 L 13.39 15.74 L 13.04 15.89 L 12.7 16.06 L 12.36 16.23 L 12.03 16.42 L 11.7 16.62 L 11.39 16.84 L 11.08 17.07 L 10.78 17.3 L 10.49 17.55 L 10.22 17.81 L 9.95 18.08 L 9.69 18.36 L 9.44 18.65 L 9.2 18.95" fill="none" stroke="#111" stroke-width="1.16" stroke-linecap="round" stroke-linejoin="round"/>
<path d="M 11.11 13.0 L 11.11 13.29 L 11.11 13.58 L 11.11 13.88 L 11.11 14.17 L 11.11 14.46 L 11.11 14.75 L 11.11 15.04 L 11.11 15.33 L 11.11 15.62 L 11.11 15.92 L 11.11 16.21 L 11.11 16.5 L 11.11 16.79 L 11.11 17.08 L 11.11 17.38 L 11.11 17.67 L 11.11 17.96 L 11.11 18.25 L 11.11 18.54 L 11.11 18.83 L 11.11 19.12 L 11.11 19.42 L 11.11 19.71 L 11.11 20.0" fill="none" stroke="#111" stroke-width="1.16" stroke-linecap="round" stroke-linejoin="round"/>
</svg>
