<?xml version="1.0" encoding="UTF-8"?>
<svg xmlns="http://www.w3.org/2000/svg" viewBox="0 0 22.00 31.93">
<path d="M 9.0 5.0 L 8.92 5.12 L 8.83 5.25 L 8.75 5.38 L 8.67 5.5 L 8.58 5.62 L 8.5 5.75 L 8.42 5.88 L 8.33 6.0 L 8.25 6.12 L 8.17 6.25 L 8.08 6.38 L 8.0 6.5 L 7.92 6.62 L 7.83 6.75 L 7.75 6.88 L 7.67 7.0 L 7.58 7.12 L 7.5 7.25 L 7.42 7.38 L 7.33 7.5 L 7.25 7.62 L 7.17 7.75 L 7.08 7.88 L 7.0 8.0 L 7.0 8.0 L 6.95 8.33 L 6.91 8.67 L 6.9 9.0 L 6.91 9.34 L 6.94 9.67 L 7.0 10.0 L 7.08 10.33 L 7.17 10.65 L 7.29 10.97 L 7.43 11.27 L 7.59 11.57 L 7.76 11.85 L 7.96 12.13 L 8.17 12.39 L 8.4 12.63 L 8.65 12.86 L 8.91 13.08 L 9.18 13.27 L 9.46 13.45 L 9.76 13.61 L 10.07 13.75 L 10.38 13.87 L 10.7 13.97 L 11.03 14.04 L 11.0 14.0 L 11.54 13.81 L 12.06 13.56 L 12.53 13.24 L 12.97 12.87 L 13.35 12.44 L 13.67 11.97 L 13.94 11.46 L 14.14 10.92 L 14.26 10.37 L 14.32 9.8 L 14.3 9.22 L 14.21 8.66 L 14.05 8.11 L 13.83 7.58 L 13.53 7.09 L 13.18 6.64 L 12.78 6.23 L 12.32 5.88 L 11.83 5.6 L 11.3 5.37 L 10.75 5.22 L 10.18 5.13 L 9.61 5.12 L 9.04 5.18" fill="none" stroke="#111" stroke-width="1.12" stroke-linecap="round" stroke-linejoin="round"/>
<path d="M 18.0 4.0 L 17.83 4.25 L 17.67 4.5 L 17.5 4.75 L 17.33 5.0 L 17.17 5.25 L 17.0 5.5 L 16.83 5.75 L 16.67 6.0 L 16.5 6.25 L 16.33 6.5 L 16.17 6.75 L 16.0 7.0 L 15.83 7.25 L 15.67 7.5 L 15.5 7.75 L 15.33 8.0 L 15.17 8.25 L 15.0 8.5 L 14.83 8.75 L 14.67 9.0 L 14.5 9.25 L 14.33 9.5 L 14.17 9.75 L 14.0 10.0" fill="none" stroke="#111" stroke-width="1.12" stroke-linecap="round" stroke-linejoin="round"/>
<path d="M 11.0 13.0 L 10.93 13.64 L 10.88 14.28 L 10.84 14.93 L 10.82 15.57 L 10.82 16.22 L 10.83 16.86 L 10.87 17.51 L 10.92 18.15 L 10.98 18.79 L 11.07 19.43 L 11.17 20.07 L 11.29 20.71 L 11.42 21.34 L 11.57 21.96 L 11.74 22.59 L 11.93 23.2 L 12.13 23.82 L 12.35 24.42 L 12.58 25.03 L 12.83 25.62 L 13.1 26.21 L 13.38 26.79 L 13.67 27.36 L 13.99 27.93" fill="none" stroke="#111" stroke-width="1.12" stroke-linecap="round" stroke-linejoin="round"/>
<path d="M 7.0 17.0 L 7.42 17.12 L 7.83 17.25 L 8.25 17.38 L 8.67 17.5 L 9.08 17.62 L 9.5 17.75 L 9.92 17.88 L 10.33 18.0 L 10.75 18.12 L 11.17 18.25 L 11.58 18.38 L 12.0 18.5 L 12.42 18.62 L 12.83 18.75 L 13.25 18.88 L 13.67 19.0 L 14.08 19.12 L 14.5 19.25 L 14.92 19.38 L 15.33 19.5 L 15.75 19.62 L 16.17 19.75 L 16.58 19.88 L 17.0 20.0" fill="none" stroke="#111" stroke-width="1.12" stroke-linecap="round" stroke-linejoin="round"/>
<path d="M 4.0 4.0 L 4.0 4.42 L 4.0 4.83 L 4.0 5.25 L 4.0 5.67 L 4.0 6.08 L 4.0 6.5 L 4.0 6.92 L 4.0 7.33 L 4.0 7.75 L 4.0 8.17 L 4.0 8.58 L 4.0 9.0 L 4.0 9.42 L 4.0 9.83 L 4.0 10.25 L 4.0 10.67 L 4.0 11.08 L 4.0 11.5 L 4.0 11.92 L 4.0 12.33 L 4.0 12.75 L 4.0 13.17 L 4.0 13.58 L 4.0 14.0" fill="none" stroke="#111" stroke-width="1.12" stroke-linecap="round" stroke-linejoin="round"/>
<path d="M 4.0 4.0 L 4.58 4.0 L 5.17 4.0 L 5.75 4.0 L 6.33 4.0 L 6.92 4.0 L 7.5 4.0 L 8.08 4.0 L 8.67 4.0 L 9.25 4.0 L 9.83 4.0 L 10.42 4.0 L 11.0 4.0 L 11.58 4.0 L 12.17 4.0 L 12.75 4.0 L 13.33 4.0 L 13.92 4.0 L 14.5 4.0 L 15.08 4.0 L 15.67 4.0 L 16.25 4.0 L 16.83 4.0 L 17.42 4.0 L 18.0 4.0" fill="none" stroke="#111" stroke-width="1.12" stroke-linecap="round" stroke-linejoin="round"/>
<path d="M 4.0 11.0 L 4.12 11.0 L 4.25 11.0 L 4.38 11.0 L 4.5 11.0 L 4.62 11.0 L 4.75 11.0 L 4.88 11.0 L 5.0 11.0 L 5.12 11.0 L 5.25 11.0 L 5.38 11.0 L 5.5 11.0 L 5.62 11.0 L 5.75 11.0 L 5.88 11.0 L 6.0 11.0 L 6.12 11.0 L 6.25 11.0 L 6.38 11.0 L 6.5 11.0 L 6.62 11.0 L 6.75 11.0 L 6.88 11.0 L 7.0 11.0" fill="none" stroke="#111" stroke-width="1.12" stroke-linecap="round" stroke-linejoin="round"/>
</svg>
