<?xml version="1.0" encoding="UTF-8"?>
<svg xmlns="http://www.w3.org/2000/svg" viewBox="0 0 26.00 32.00">
<path d="M 8.0 11.0 L 8.21 10.71 L 8.42 10.42 L 8.62 10.12 L 8.83 9.83 L 9.04 9.54 L 9.25 9.25 L 9.46 8.96 L 9.67 8.67 L 9.88 8.38 L 10.08 8.08 L 10.29 7.79 L 10.5 7.5 L 10.71 7.21 L 10.92 6.92 L 11.12 6.62 L 11.33 6.33 L 11.54 6.04 L 11.75 5.75 L 11.96 5.46 L 12.17 5.17 L 12.38 4.88 L 12.58 4.58 L 12.79 4.29 L 13.0 4.0" fill="none" stroke="#111" stroke-width="1.12" stroke-linecap="round" stroke-linejoin="round"/>
<path d="M 8.0 11.0 L 8.19 11.65 L 8.36 12.31 L 8.51 12.97 L 8.64 13.64 L 8.75 14.3 L 8.84 14.98 L 8.91 15.65 L 8.96 16.33 L 8.99 17.01 L 8.99 17.68 L 8.98 18.36 L 8.95 19.04 L 8.9 19.72 L 8.83 20.39 L 8.73 21.06 L 8.62 21.73 L 8.49 22.4 L 8.33 23.06 L 8.16 23.71 L 7.97 24.36 L 7.76 25.01 L 7.53 25.65 L 7.28 26.28 L 7.01 26.9" fill="none" stroke="#111" stroke-width="1.12" stroke-linecap="round" stroke-linejoin="round"/>
<path d="M 12.0 4.0 L 12.25 4.17 L 12.5 4.33 L 12.75 4.5 L 13.0 4.67 L 13.25 4.83 L 13.5 5.0 L 13.75 5.17 L 14.0 5.33 L 14.25 5.5 L 14.5 5.67 L 14.75 5.83 L 15.0 6.0 L 15.25 6.17 L 15.5 6.33 L 15.75 6.5 L 16.0 6.67 L 16.25 6.83 L 16.5 7.0 L 16.75 7.17 L 17.0 7.33 L 17.25 7.5 L 17.5 7.67 L 17.75 7.83 L 18.0 8.0" fill="none" stroke="#111" stroke-width="1.12" stroke-linecap="round" stroke-linejoin="round"/>
<path d="M 18.0 8.0 L 17.78 8.78 L 17.58 9.57 L 17.41 10.36 L 17.27 11.16 L 17.15 11.97 L 17.06 12.77 L 17.0 13.58 L 16.96 14.4 L 16.95 15.21 L 16.97 16.02 L 17.01 16.83 L 17.08 17.64 L 17.18 18.45 L 17.31 19.25 L 17.46 20.05 L 17.64 20.84 L 17.84 21.63 L 18.07 22.4 L 18.33 23.17 L 18.61 23.94 L 18.92 24.69 L 19.25 25.43 L 19.61 26.16 L 19.99 26.88" fill="none" stroke="#111" stroke-width="1.12" stroke-linecap="round" stroke-linejoin="round"/>
<path d="M 4.0 28.0 L 4.75 27.96 L 5.5 27.92 L 6.25 27.88 L 7.0 27.83 L 7.75 27.79 L 8.5 27.75 L 9.25 27.71 L 10.0 27.67 L 10.75 27.62 L 11.5 27.58 L 12.25 27.54 L 13.0 27.5 L 13.75 27.46 L 14.5 27.42 L 15.25 27.38 L 16.0 27.33 L 16.75 27.29 L 17.5 27.25 L 18.25 27.21 L 19.0 27.17 L 19.75 27.12 L 20.5 27.08 L 21.25 27.04 L 22.0 27.0" fill="none" stroke="#111" stroke-width="1.12" stroke-linecap="round" stroke-linejoin="round"/>
<path d="M 13.0 8.0 L 12.92 8.17 L 12.83 8.33 L 12.75 8.5 L 12.67 8.67 L 12.58 8.83 L 12.5 9.0 L 12.42 9.17 L 12.33 9.33 L 12.25 9.5 L 12.17 9.67 L 12.08 9.83 L 12.0 10.0 L 11.92 10.17 L 11.83 10.33 L 11.75 10.5 L 11.67 10.67 L 11.58 10.83 L 11.5 11.0 L 11.42 11.17 L 11.33 11.33 L 11.25 11.5 L 11.17 11.67 L 11.08 11.83 L 11.0 12.0" fill="none" stroke="#111" stroke-width="1.12" stroke-linecap="round" stroke-linejoin="round"/>
<path d="M 13.0 8.0 L 13.3 8.2 L 13.58 8.43 L 13.84 8.69 L 14.07 8.97 L 14.27 9.27 L 14.44 9.59 L 14.58 9.93 L 14.69 10.28 L 14.76 10.63 L 14.79 10.99 L 14.8 11.36 L 14.76 11.72 L 14.69 12.07 L 14.59 12.42 L 14.45 12.76 L 14.29 13.08 L 14.09 13.38 L 13.86 13.67 L 13.6 13.92 L 13.33 14.16 L 13.03 14.36 L 12.71 14.54 L 12.38 14.68 L 12.03 14.79" fill="none" stroke="#111" stroke-width="1.12" stroke-linecap="round" stroke-linejoin="round"/>
<path d="M 12.0 10.0 L 12.08 10.12 L 12.17 10.25 L 12.25 10.38 L 12.33 10.5 L 12.42 10.62 L 12.5 10.75 L 12.58 10.88 L 12.67 11.0 L 12.75 11.12 L 12.83 11.25 L 12.92 11.38 L 13.0 11.5 L 13.08 11.62 L 13.17 11.75 L 13.25 11.88 L 13.33 12.0 L 13.42 12.12 L 13.5 12.25 L 13.58 12.38 L 13.67 12.5 L 13.75 12.62 L 13.83 12.75 L 13.92 12.88 L 14.0 13.0" fill="none" stroke="#111" stroke-width="1.12" stroke-linecap="round" stroke-linejoin="round"/>
<path d="M 9.0 17.0 L 9.33 17.0 L 9.67 17.0 L 10.0 17.0 L 10.33 17.0 L 10.67 17.0 L 11.0 17.0 L 11.33 17.0 L 11.67 17.0 L 12.0 17.0 L 12.33 17.0 L 12.67 17.0 L 13.0 17.0 L 13.33 17.0 L 13.67 17.0 L 14.0 17.0 L 14.33 17.0 L 14.67 17.0 L 15.0 17.0 L 15.33 17.0 L 15.67 17.0 L 16.0 17.0 L 16.33 17.0 L 16.67 17.0 L 17.0 17.0" fill="none" stroke="#111" stroke-width="1.12" stroke-linecap="round" stroke-linejoin="round"/>
<path d="M 14.0 19.0 L 13.83 19.21 L 13.67 19.42 L 13.5 19.62 L 13.33 19.83 L 13.17 20.04 L 13.0 20.25 L 12.83 20.46 L 12.67 20.67 L 12.5 20.88 L 12.33 21.08 L 12.17 21.29 L 12.0 21.5 L 11.83 21.71 L 11.67 21.92 L 11.5 22.12 L 11.33 22.33 L 11.17 22.54 L 11.0 22.75 L 10.83 22.96 L 10.67 23.17 L 10.5 23.38 L 10.33 23.58 L 10.17 23.79 L 10.0 24.0" fill="none" stroke="#111" stroke-width="1.12" stroke-linecap="round" stroke-linejoin="round"/>
<path d="M 14.0 19.0 L 14.32 19.27 L 14.61 19.57 L 14.87 19.9 L 15.09 20.25 L 15.28 20.62 L 15.44 21.0 L 15.56 21.4 L 15.63 21.81 L 15.67 22.23 L 15.67 22.65 L 15.63 23.06 L 15.55 23.47 L 15.43 23.87 L 15.27 24.25 L 15.07 24.62 L 14.84 24.97 L 14.58 25.3 L 14.29 25.59 L 13.97 25.86 L 13.63 26.1 L 13.26 26.3 L 12.88 26.47 L 12.49 26.6 L 12.08 26.69" fill="none" stroke="#111" stroke-width="1.12" stroke-linecap="round" stroke-linejoin="round"/>
<path d="M 11.0 22.0 L 11.12 22.08 L 11.25 22.17 L 11.38 22.25 L 11.5 22.33 L 11.62 22.42 L 11.75 22.5 L 11.88 22.58 L 12.0 22.67 L 12.12 22.75 L 12.25 22.83 L 12.38 22.92 L 12.5 23.0 L 12.62 23.08 L 12.75 23.17 L 12.88 23.25 L 13.0 23.33 L 13.12 23.42 L 13.25 23.5 L 13.38 23.58 L 13.5 23.67 L 13.62 23.75 L 13.75 23.83 L 13.88 23.92 L 14.0 24.0" fill="none" stroke="#111" stroke-width="1.12" stroke-linecap="round" stroke-linejoin="round"/>
</svg>
