<?xml version="1.0" encoding="UTF-8"?>
<svg xmlns="http://www.w3.org/2000/svg" viewBox="0 0 22.05 36.00">
<path d="M 7.0 4.0 L 7.08 4.17 L 7.17 4.33 L 7.25 4.5 L 7.33 4.67 L 7.42 4.83 L 7.5 5.0 L 7.58 5.17 L 7.67 5.33 L 7.75 5.5 L 7.83 5.67 L 7.92 5.83 L 8.0 6.0 L 8.08 6.17 L 8.17 6.33 L 8.25 6.5 L 8.33 6.67 L 8.42 6.83 L 8.5 7.0 L 8.58 7.17 L 8.67 7.33 L 8.75 7.5 L 8.83 7.67 L 8.92 7.83 L 9.0 8.0 L 9.0 8.0 L 8.96 8.21 L 8.92 8.42 L 8.88 8.62 L 8.83 8.83 L 8.79 9.04 L 8.75 9.25 L 8.71 9.46 L 8.67 9.67 L 8.62 9.88 L 8.58 10.08 L 8.54 10.29 L 8.5 10.5 L 8.46 10.71 L 8.42 10.92 L 8.38 11.12 L 8.33 11.33 L 8.29 11.54 L 8.25 11.75 L 8.21 11.96 L 8.17 12.17 L 8.12 12.38 L 8.08 12.58 L 8.04 12.79 L 8.0 13.0" fill="none" stroke="#111" stroke-width="1.26" stroke-linecap="round" stroke-linejoin="round"/>
<path d="M 11.0 4.0 L 11.2 4.36 L 11.38 4.73 L 11.54 5.12 L 11.67 5.51 L 11.78 5.91 L 11.86 6.32 L 11.91 6.73 L 11.94 7.14 L 11.94 7.56 L 11.92 7.97 L 11.87 8.39 L 11.79 8.79 L 11.69 9.19 L 11.56 9.59 L 11.4 9.97 L 11.23 10.35 L 11.03 10.71 L 10.8 11.06 L 10.56 11.4 L 10.29 11.71 L 10.01 12.02 L 9.7 12.3 L 9.38 12.56 L 9.04 12.8" fill="none" stroke="#111" stroke-width="1.26" stroke-linecap="round" stroke-linejoin="round"/>
<path d="M 4.0 4.0 L 4.09 4.39 L 4.19 4.77 L 4.28 5.16 L 4.38 5.54 L 4.49 5.92 L 4.59 6.3 L 4.7 6.68 L 4.82 7.06 L 4.93 7.44 L 5.05 7.82 L 5.17 8.2 L 5.29 8.58 L 5.42 8.95 L 5.55 9.33 L 5.68 9.7 L 5.82 10.07 L 5.96 10.45 L 6.1 10.82 L 6.24 11.19 L 6.39 11.55 L 6.54 11.92 L 6.69 12.29 L 6.85 12.65 L 7.0 13.01" fill="none" stroke="#111" stroke-width="1.26" stroke-linecap="round" stroke-linejoin="round"/>
<path d="M 8.0 13.0 L 8.0 13.47 L 8.0 13.94 L 8.01 14.4 L 8.03 14.87 L 8.06 15.34 L 8.09 15.8 L 8.13 16.27 L 8.18 16.73 L 8.24 17.2 L 8.3 17.66 L 8.38 18.12 L 8.46 18.58 L 8.54 19.04 L 8.64 19.5 L 8.74 19.96 L 8.85 20.41 L 8.97 20.87 L 9.09 21.32 L 9.22 21.76 L 9.36 22.21 L 9.51 22.66 L 9.67 23.1 L 9.83 23.54 L 9.99 23.97 L 10.0 24.0 L 10.0 24.33 L 10.0 24.67 L 10.0 25.0 L 10.0 25.33 L 10.0 25.67 L 10.0 26.0 L 10.0 26.33 L 10.0 26.67 L 10.0 27.0 L 10.0 27.33 L 10.0 27.67 L 10.0 28.0 L 10.0 28.33 L 10.0 28.67 L 10.0 29.0 L 10.0 29.33 L 10.0 29.67 L 10.0 30.0 L 10.0 30.33 L 10.0 30.67 L 10.0 31.0 L 10.0 31.33 L 10.0 31.67 L 10.0 32.0" fill="none" stroke="#111" stroke-width="1.26" stroke-linecap="round" stroke-linejoin="round"/>
<path d="M 12.0 14.0 L 11.38 14.15 L 10.78 14.35 L 10.19 14.59 L 9.62 14.87 L 9.06 15.19 L 8.54 15.54 L 8.03 15.93 L 7.56 16.36 L 7.12 16.81 L 6.71 17.3 L 6.33 17.81 L 5.99 18.35 L 5.69 18.91 L 5.43 19.49 L 5.21 20.09 L 5.03 20.7 L 4.89 21.32 L 4.8 21.95 L 4.75 22.58 L 4.74 23.22 L 4.78 23.85 L 4.87 24.49 L 4.99 25.11 L 5.16 25.72" fill="none" stroke="#111" stroke-width="1.26" stroke-linecap="round" stroke-linejoin="round"/>
<path d="M 16.0 6.0 L 15.96 6.17 L 15.92 6.33 L 15.88 6.5 L 15.83 6.67 L 15.79 6.83 L 15.75 7.0 L 15.71 7.17 L 15.67 7.33 L 15.62 7.5 L 15.58 7.67 L 15.54 7.83 L 15.5 8.0 L 15.46 8.17 L 15.42 8.33 L 15.38 8.5 L 15.33 8.67 L 15.29 8.83 L 15.25 9.0 L 15.21 9.17 L 15.17 9.33 L 15.12 9.5 L 15.08 9.67 L 15.04 9.83 L 15.0 10.0 L 15.0 10.0 L 14.81 10.04 L 14.62 10.08 L 14.44 10.12 L 14.25 10.17 L 14.07 10.23 L 13.89 10.28 L 13.7 10.35 L 13.52 10.41 L 13.35 10.48 L 13.17 10.56 L 12.99 10.64 L 12.82 10.72 L 12.65 10.81 L 12.48 10.9 L 12.32 11.0 L 12.15 11.1 L 11.99 11.2 L 11.83 11.31 L 11.68 11.42 L 11.52 11.54 L 11.37 11.66 L 11.22 11.78 L 11.08 11.9 L 10.94 12.03" fill="none" stroke="#111" stroke-width="1.26" stroke-linecap="round" stroke-linejoin="round"/>
<path d="M 12.0 15.0 L 12.11 15.49 L 12.18 15.99 L 12.21 16.49 L 12.2 16.99 L 12.15 17.49 L 12.06 17.98 L 11.93 18.47 L 11.76 18.94 L 11.55 19.4 L 11.3 19.84 L 11.02 20.25 L 10.7 20.64 L 10.36 21.01 L 9.98 21.34 L 9.58 21.64 L 9.15 21.91 L 8.71 22.15 L 8.25 22.34 L 7.77 22.5 L 7.28 22.62 L 6.78 22.69 L 6.28 22.73 L 5.78 22.73 L 5.28 22.68" fill="none" stroke="#111" stroke-width="1.26" stroke-linecap="round" stroke-linejoin="round"/>
<path d="M 13.0 8.0 L 13.45 8.6 L 13.88 9.21 L 14.29 9.84 L 14.68 10.48 L 15.05 11.13 L 15.41 11.79 L 15.74 12.47 L 16.05 13.15 L 16.33 13.84 L 16.6 14.54 L 16.85 15.25 L 17.07 15.97 L 17.27 16.69 L 17.45 17.42 L 17.6 18.15 L 17.73 18.89 L 17.84 19.63 L 17.93 20.38 L 17.99 21.12 L 18.03 21.87 L 18.05 22.62 L 18.04 23.37 L 18.01 24.12 L 17.96 24.87" fill="none" stroke="#111" stroke-width="1.26" stroke-linecap="round" stroke-linejoin="round"/>
</svg>
