<?xml version="1.0" encoding="UTF-8"?>
<svg xmlns="http://www.w3.org/2000/svg" viewBox="0 0 23.40 33.25">
<path d="M 11.71 4.0 L 11.02 4.11 L 10.34 4.27 L 9.68 4.49 L 9.03 4.76 L 8.41 5.08 L 7.82 5.45 L 7.26 5.87 L 6.73 6.32 L 6.25 6.82 L 5.8 7.36 L 5.4 7.93 L 5.04 8.53 L 4.74 9.16 L 4.48 9.81 L 4.28 10.48 L 4.13 11.16 L 4.04 11.85 L 4.0 12.55 L 4.02 13.25 L 4.09 13.94 L 4.22 14.63 L 4.4 15.3 L 4.64 15.96 L 4.93 16.59" fill="none" stroke="#111" stroke-width="1.16" stroke-linecap="round" stroke-linejoin="round"/>
<path d="M 11.71 4.0 L 12.38 4.05 L 13.04 4.16 L 13.68 4.33 L 14.32 4.55 L 14.93 4.82 L 15.52 5.14 L 16.08 5.5 L 16.6 5.92 L 17.09 6.37 L 17.54 6.87 L 17.95 7.4 L 18.31 7.96 L 18.62 8.55 L 18.88 9.17 L 19.09 9.81 L 19.25 10.46 L 19.35 11.12 L 19.4 11.79 L 19.39 12.45 L 19.32 13.12 L 19.2 13.78 L 19.02 14.42 L 18.79 15.05 L 18.51 15.66" fill="none" stroke="#111" stroke-width="1.16" stroke-linecap="round" stroke-linejoin="round"/>
<path d="M 10.71 8.0 L 11.55 8.59 L 12.35 9.23 L 13.09 9.94 L 13.78 10.7 L 14.41 11.51 L 14.97 12.37 L 15.47 13.27 L 15.9 14.2 L 16.25 15.16 L 16.53 16.15 L 16.74 17.15 L 16.86 18.17 L 16.91 19.2 L 16.89 20.22 L 16.78 21.24 L 16.6 22.25 L 16.34 23.25 L 16.0 24.22 L 15.59 25.16 L 15.11 26.06 L 14.57 26.93 L 13.96 27.76 L 13.29 28.53 L 12.56 29.25" fill="none" stroke="#111" stroke-width="1.16" stroke-linecap="round" stroke-linejoin="round"/>
<path d="M 7.71 11.0 L 7.96 11.08 L 8.21 11.17 L 8.46 11.25 L 8.71 11.33 L 8.96 11.42 L 9.21 11.5 L 9.46 11.58 L 9.71 11.67 L 9.96 11.75 L 10.21 11.83 L 10.46 11.92 L 10.71 12.0 L 10.96 12.08 L 11.21 12.17 L 11.46 12.25 L 11.71 12.33 L 11.96 12.42 L 12.21 12.5 L 12.46 12.58 L 12.71 12.67 L 12.96 12.75 L 13.21 12.83 L 13.46 12.92 L 13.71 13.0" fill="none" stroke="#111" stroke-width="1.16" stroke-linecap="round" stroke-linejoin="round"/>
<path d="M 9.71 15.0 L 9.88 15.12 L 10.04 15.25 L 10.21 15.38 L 10.38 15.5 L 10.54 15.62 L 10.71 15.75 L 10.88 15.88 L 11.04 16.0 L 11.21 16.12 L 11.38 16.25 L 11.54 16.38 L 11.71 16.5 L 11.88 16.62 L 12.04 16.75 L 12.21 16.88 L 12.38 17.0 L 12.54 17.12 L 12.71 17.25 L 12.88 17.38 L 13.04 17.5 L 13.21 17.62 L 13.38 17.75 L 13.54 17.88 L 13.71 18.0" fill="none" stroke="#111" stroke-width="1.16" stroke-linecap="round" stroke-linejoin="round"/>
<path d="M 8.71 19.0 L 8.71 19.25 L 8.71 19.5 L 8.71 19.75 L 8.71 20.0 L 8.71 20.25 L 8.71 20.5 L 8.71 20.75 L 8.71 21.0 L 8.71 21.25 L 8.71 21.5 L 8.71 21.75 L 8.71 22.0 L 8.71 22.25 L 8.71 22.5 L 8.71 22.75 L 8.71 23.0 L 8.71 23.25 L 8.71 23.5 L 8.71 23.75 L 8.71 24.0 L 8.71 24.25 L 8.71 24.5 L 8.71 24.75 L 8.71 25.0" fill="none" stroke="#111" stroke-width="1.16" stroke-linecap="round" stroke-linejoin="round"/>
<path d="M 7.71 21.0 L 8.04 21.0 L 8.38 21.0 L 8.71 21.0 L 9.04 21.0 L 9.38 21.0 L 9.71 21.0 L 10.04 21.0 L 10.38 21.0 L 10.71 21.0 L 11.04 21.0 L 11.38 21.0 L 11.71 21.0 L 12.04 21.0 L 12.38 21.0 L 12.71 21.0 L 13.04 21.0 L 13.38 21.0 L 13.71 21.0 L 14.04 21.0 L 14.38 21.0 L 14.71 21.0 L 15.04 21.0 L 15.38 21.0 L 15.71 21.0" fill="none" stroke="#111" stroke-width="1.16" stroke-linecap="round" stroke-linejoin="round"/>
<path d="M 15.71 18.0 L 15.71 18.29 L 15.71 18.58 L 15.71 18.88 L 15.71 19.17 L 15.71 19.46 L 15.71 19.75 L 15.71 20.04 L 15.71 20.33 L 15.71 20.62 L 15.71 20.92 L 15.71 21.21 L 15.71 21.5 L 15.71 21.79 L 15.71 22.08 L 15.71 22.38 L 15.71 22.67 L 15.71 22.96 L 15.71 23.25 L 15.71 23.54 L 15.71 23.83 L 15.71 24.12 L 15.71 24.42 L 15.71 24.71 L 15.71 25.0" fill="none" stroke="#111" stroke-width="1.16" stroke-linecap="round" stroke-linejoin="round"/>
<path d="M 12.71 25.0 L 12.54 25.12 L 12.38 25.25 L 12.21 25.38 L 12.04 25.5 L 11.88 25.62 L 11.71 25.75 L 11.54 25.88 L 11.38 26.0 L 11.21 26.12 L 11.04 26.25 L 10.88 26.38 L 10.71 26.5 L 10.54 26.62 L 10.38 26.75 L 10.21 26.88 L 10.04 27.0 L 9.88 27.12 L 9.71 27.25 L 9.54 27.38 L 9.38 27.5 L 9.21 27.62 L 9.04 27.75 L 8.88 27.88 L 8.71 28.0" fill="none" stroke="#111" stroke-width="1.16" stroke-linecap="round" stroke-linejoin="round"/>
<path d="M 12.71 25.0 L 12.83 25.08 L 12.96 25.17 L 13.08 25.25 L 13.21 25.33 L 13.33 25.42 L 13.46 25.5 L 13.58 25.58 L 13.71 25.67 L 13.83 25.75 L 13.96 25.83 L 14.08 25.92 L 14.21 26.0 L 14.33 26.08 L 14.46 26.17 L 14.58 26.25 L 14.71 26.33 L 14.83 26.42 L 14.96 26.5 L 15.08 26.58 L 15.21 26.67 L 15.33 26.75 L 15.46 26.83 L 15.58 26.92 L 15.71 27.0" fill="none" stroke="#111" stroke-width="1.16" stroke-linecap="round" stroke-linejoin="round"/>
</svg>
