<?xml version="1.0" encoding="UTF-8"?>
<svg xmlns="http://www.w3.org/2000/svg" viewBox="0 0 25.74 29.65">
<path d="M 12.04 4.0 L 11.24 4.43 L 10.46 4.9 L 9.71 5.43 L 9.0 6.0 L 8.33 6.61 L 7.69 7.27 L 7.1 7.96 L 6.56 8.7 L 6.06 9.46 L 5.61 10.26 L 5.22 11.08 L 4.88 11.92 L 4.59 12.79 L 4.36 13.67 L 4.18 14.57 L 4.06 15.47 L 4.0 16.38 L 4.0 17.29 L 4.06 18.2 L 4.17 19.11 L 4.34 20.01 L 4.57 20.89 L 4.85 21.76 L 5.19 22.6" fill="none" stroke="#111" stroke-width="1.04" stroke-linecap="round" stroke-linejoin="round"/>
<path d="M 12.04 4.0 L 12.89 4.59 L 13.69 5.23 L 14.47 5.9 L 15.2 6.62 L 15.9 7.37 L 16.56 8.16 L 17.17 8.99 L 17.74 9.84 L 18.26 10.73 L 18.74 11.64 L 19.17 12.57 L 19.54 13.53 L 19.87 14.51 L 20.14 15.5 L 20.36 16.5 L 20.53 17.51 L 20.64 18.53 L 20.7 19.56 L 20.71 20.59 L 20.66 21.61 L 20.55 22.64 L 20.39 23.65 L 20.18 24.66 L 19.92 25.65" fill="none" stroke="#111" stroke-width="1.04" stroke-linecap="round" stroke-linejoin="round"/>
<path d="M 8.04 13.0 L 8.29 13.04 L 8.54 13.08 L 8.79 13.12 L 9.04 13.17 L 9.29 13.21 L 9.54 13.25 L 9.79 13.29 L 10.04 13.33 L 10.29 13.38 L 10.54 13.42 L 10.79 13.46 L 11.04 13.5 L 11.29 13.54 L 11.54 13.58 L 11.79 13.62 L 12.04 13.67 L 12.29 13.71 L 12.54 13.75 L 12.79 13.79 L 13.04 13.83 L 13.29 13.88 L 13.54 13.92 L 13.79 13.96 L 14.04 14.0" fill="none" stroke="#111" stroke-width="1.04" stroke-linecap="round" stroke-linejoin="round"/>
<path d="M 8.04 13.0 L 8.04 13.5 L 8.04 14.0 L 8.04 14.5 L 8.04 15.0 L 8.04 15.5 L 8.04 16.0 L 8.04 16.5 L 8.04 17.0 L 8.04 17.5 L 8.04 18.0 L 8.04 18.5 L 8.04 19.0 L 8.04 19.5 L 8.04 20.0 L 8.04 20.5 L 8.04 21.0 L 8.04 21.5 L 8.04 22.0 L 8.04 22.5 L 8.04 23.0 L 8.04 23.5 L 8.04 24.0 L 8.04 24.5 L 8.04 25.0" fill="none" stroke="#111" stroke-width="1.04" stroke-linecap="round" stroke-linejoin="round"/>
<path d="M 12.04 14.0 L 11.88 14.29 L 11.71 14.58 L 11.54 14.88 L 11.38 15.17 L 11.21 15.46 L 11.04 15.75 L 10.88 16.04 L 10.71 16.33 L 10.54 16.62 L 10.38 16.92 L 10.21 17.21 L 10.04 17.5 L 9.88 17.79 L 9.71 18.08 L 9.54 18.38 L 9.38 18.67 L 9.21 18.96 L 9.04 19.25 L 8.88 19.54 L 8.71 19.83 L 8.54 20.12 L 8.38 20.42 L 8.21 20.71 L 8.04 21.0" fill="none" stroke="#111" stroke-width="1.04" stroke-linecap="round" stroke-linejoin="round"/>
<path d="M 13.04 18.0 L 12.82 18.7 L 12.72 19.43 L 12.74 20.16 L 12.87 20.89 L 13.12 21.58 L 13.48 22.22 L 13.94 22.79 L 14.49 23.29 L 15.11 23.68 L 15.78 23.98 L 16.5 24.15 L 17.23 24.21 L 17.96 24.15 L 18.68 23.98 L 19.35 23.68 L 19.97 23.29 L 20.52 22.79 L 20.98 22.22 L 21.34 21.58 L 21.59 20.89 L 21.72 20.16 L 21.74 19.43 L 21.64 18.7 L 21.42 18.0" fill="none" stroke="#111" stroke-width="1.04" stroke-linecap="round" stroke-linejoin="round"/>
<path d="M 13.04 20.0 L 13.21 20.0 L 13.38 20.0 L 13.54 20.0 L 13.71 20.0 L 13.88 20.0 L 14.04 20.0 L 14.21 20.0 L 14.38 20.0 L 14.54 20.0 L 14.71 20.0 L 14.88 20.0 L 15.04 20.0 L 15.21 20.0 L 15.38 20.0 L 15.54 20.0 L 15.71 20.0 L 15.88 20.0 L 16.04 20.0 L 16.21 20.0 L 16.38 20.0 L 16.54 20.0 L 16.71 20.0 L 16.88 20.0 L 17.04 20.0" fill="none" stroke="#111" stroke-width="1.04" stroke-linecap="round" stroke-linejoin="round"/>
</svg>
