<?xml version="1.0" encoding="UTF-8"?>
<svg xmlns="http://www.w3.org/2000/svg" viewBox="0 0 21.49 36.00">
<path d="M 10.31 4.0 L 9.72 4.45 L 9.15 4.93 L 8.6 5.44 L 8.08 5.97 L 7.59 6.53 L 7.12 7.11 L 6.68 7.71 L 6.28 8.33 L 5.9 8.97 L 5.56 9.63 L 5.25 10.31 L 4.97 11.0 L 4.72 11.7 L 4.51 12.42 L 4.34 13.14 L 4.2 13.87 L 4.1 14.61 L 4.03 15.35 L 4.0 16.09 L 4.01 16.84 L 4.05 17.58 L 4.13 18.32 L 4.24 19.05 L 4.39 19.78" fill="none" stroke="#111" stroke-width="1.26" stroke-linecap="round" stroke-linejoin="round"/>
<path d="M 10.31 4.0 L 10.94 4.44 L 11.55 4.9 L 12.13 5.4 L 12.69 5.92 L 13.23 6.47 L 13.73 7.04 L 14.21 7.64 L 14.66 8.26 L 15.08 8.9 L 15.47 9.56 L 15.83 10.24 L 16.15 10.94 L 16.44 11.65 L 16.7 12.37 L 16.92 13.1 L 17.11 13.85 L 17.26 14.6 L 17.37 15.36 L 17.45 16.12 L 17.49 16.88 L 17.49 17.65 L 17.46 18.42 L 17.39 19.18 L 17.28 19.94" fill="none" stroke="#111" stroke-width="1.26" stroke-linecap="round" stroke-linejoin="round"/>
<path d="M 10.31 10.0 L 10.31 10.92 L 10.31 11.83 L 10.31 12.75 L 10.31 13.67 L 10.31 14.58 L 10.31 15.5 L 10.31 16.42 L 10.31 17.33 L 10.31 18.25 L 10.31 19.17 L 10.31 20.08 L 10.31 21.0 L 10.31 21.92 L 10.31 22.83 L 10.31 23.75 L 10.31 24.67 L 10.31 25.58 L 10.31 26.5 L 10.31 27.42 L 10.31 28.33 L 10.31 29.25 L 10.31 30.17 L 10.31 31.08 L 10.31 32.0" fill="none" stroke="#111" stroke-width="1.26" stroke-linecap="round" stroke-linejoin="round"/>
<path d="M 6.31 13.0 L 6.47 13.25 L 6.64 13.5 L 6.81 13.75 L 6.97 14.0 L 7.14 14.25 L 7.31 14.5 L 7.47 14.75 L 7.64 15.0 L 7.81 15.25 L 7.97 15.5 L 8.14 15.75 L 8.31 16.0 L 8.47 16.25 L 8.64 16.5 L 8.81 16.75 L 8.97 17.0 L 9.14 17.25 L 9.31 17.5 L 9.47 17.75 L 9.64 18.0 L 9.81 18.25 L 9.97 18.5 L 10.14 18.75 L 10.31 19.0" fill="none" stroke="#111" stroke-width="1.26" stroke-linecap="round" stroke-linejoin="round"/>
<path d="M 14.31 14.0 L 14.14 14.25 L 13.97 14.5 L 13.81 14.75 L 13.64 15.0 L 13.47 15.25 L 13.31 15.5 L 13.14 15.75 L 12.97 16.0 L 12.81 16.25 L 12.64 16.5 L 12.47 16.75 L 12.31 17.0 L 12.14 17.25 L 11.97 17.5 L 11.81 17.75 L 11.64 18.0 L 11.47 18.25 L 11.31 18.5 L 11.14 18.75 L 10.97 19.0 L 10.81 19.25 L 10.64 19.5 L 10.47 19.75 L 10.31 20.0" fill="none" stroke="#111" stroke-width="1.26" stroke-linecap="round" stroke-linejoin="round"/>
<path d="M 10.31 24.0 L 10.1 24.17 L 9.89 24.33 L 9.68 24.5 L 9.47 24.67 L 9.27 24.83 L 9.06 25.0 L 8.85 25.17 L 8.64 25.33 L 8.43 25.5 L 8.22 25.67 L 8.02 25.83 L 7.81 26.0 L 7.6 26.17 L 7.39 26.33 L 7.18 26.5 L 6.97 26.67 L 6.77 26.83 L 6.56 27.0 L 6.35 27.17 L 6.14 27.33 L 5.93 27.5 L 5.72 27.67 L 5.52 27.83 L 5.31 28.0" fill="none" stroke="#111" stroke-width="1.26" stroke-linecap="round" stroke-linejoin="round"/>
<path d="M 10.31 24.0 L 10.52 24.17 L 10.72 24.33 L 10.93 24.5 L 11.14 24.67 L 11.35 24.83 L 11.56 25.0 L 11.77 25.17 L 11.97 25.33 L 12.18 25.5 L 12.39 25.67 L 12.6 25.83 L 12.81 26.0 L 13.02 26.17 L 13.22 26.33 L 13.43 26.5 L 13.64 26.67 L 13.85 26.83 L 14.06 27.0 L 14.27 27.17 L 14.47 27.33 L 14.68 27.5 L 14.89 27.67 L 15.1 27.83 L 15.31 28.0" fill="none" stroke="#111" stroke-width="1.26" stroke-linecap="round" stroke-linejoin="round"/>
</svg>
