<?xml version="1.0" encoding="UTF-8"?>
<svg xmlns="http://www.w3.org/2000/svg" viewBox="0 0 23.29 32.78">
<path d="M 12.29 4.0 L 11.03 4.57 L 9.83 5.26 L 8.72 6.09 L 7.7 7.02 L 6.78 8.06 L 5.98 9.19 L 5.31 10.4 L 4.77 11.68 L 4.37 13.0 L 4.11 14.36 L 4.0 15.74 L 4.04 17.13 L 4.22 18.5 L 4.55 19.84 L 5.02 21.15 L 5.63 22.39 L 6.36 23.56 L 7.22 24.65 L 8.19 25.64 L 9.26 26.52 L 10.41 27.28 L 11.65 27.92 L 12.94 28.42 L 14.27 28.78" fill="none" stroke="#111" stroke-width="1.15" stroke-linecap="round" stroke-linejoin="round"/>
<path d="M 9.29 7.0 L 9.38 7.79 L 9.46 8.58 L 9.54 9.38 L 9.63 10.17 L 9.71 10.96 L 9.79 11.75 L 9.88 12.54 L 9.96 13.33 L 10.04 14.12 L 10.13 14.92 L 10.21 15.71 L 10.29 16.5 L 10.38 17.29 L 10.46 18.08 L 10.54 18.88 L 10.63 19.67 L 10.71 20.46 L 10.79 21.25 L 10.88 22.04 L 10.96 22.83 L 11.04 23.62 L 11.13 24.42 L 11.21 25.21 L 11.29 26.0" fill="none" stroke="#111" stroke-width="1.15" stroke-linecap="round" stroke-linejoin="round"/>
<path d="M 6.29 13.0 L 6.38 13.33 L 6.46 13.67 L 6.54 14.0 L 6.63 14.33 L 6.71 14.67 L 6.79 15.0 L 6.88 15.33 L 6.96 15.67 L 7.04 16.0 L 7.13 16.33 L 7.21 16.67 L 7.29 17.0 L 7.38 17.33 L 7.46 17.67 L 7.54 18.0 L 7.63 18.33 L 7.71 18.67 L 7.79 19.0 L 7.88 19.33 L 7.96 19.67 L 8.04 20.0 L 8.13 20.33 L 8.21 20.67 L 8.29 21.0" fill="none" stroke="#111" stroke-width="1.15" stroke-linecap="round" stroke-linejoin="round"/>
<path d="M 13.29 13.0 L 13.29 13.25 L 13.29 13.5 L 13.29 13.75 L 13.29 14.0 L 13.29 14.25 L 13.29 14.5 L 13.29 14.75 L 13.29 15.0 L 13.29 15.25 L 13.29 15.5 L 13.29 15.75 L 13.29 16.0 L 13.29 16.25 L 13.29 16.5 L 13.29 16.75 L 13.29 17.0 L 13.29 17.25 L 13.29 17.5 L 13.29 17.75 L 13.29 18.0 L 13.29 18.25 L 13.29 18.5 L 13.29 18.75 L 13.29 19.0" fill="none" stroke="#111" stroke-width="1.15" stroke-linecap="round" stroke-linejoin="round"/>
<path d="M 13.29 19.0 L 13.54 19.0 L 13.79 19.0 L 14.04 19.0 L 14.29 19.0 L 14.54 19.0 L 14.79 19.0 L 15.04 19.0 L 15.29 19.0 L 15.54 19.0 L 15.79 19.0 L 16.04 19.0 L 16.29 19.0 L 16.54 19.0 L 16.79 19.0 L 17.04 19.0 L 17.29 19.0 L 17.54 19.0 L 17.79 19.0 L 18.04 19.0 L 18.29 19.0 L 18.54 19.0 L 18.79 19.0 L 19.04 19.0 L 19.29 19.0" fill="none" stroke="#111" stroke-width="1.15" stroke-linecap="round" stroke-linejoin="round"/>
<path d="M 13.29 13.0 L 13.54 13.0 L 13.79 13.0 L 14.04 13.0 L 14.29 13.0 L 14.54 13.0 L 14.79 13.0 L 15.04 13.0 L 15.29 13.0 L 15.54 13.0 L 15.79 13.0 L 16.04 13.0 L 16.29 13.0 L 16.54 13.0 L 16.79 13.0 L 17.04 13.0 L 17.29 13.0 L 17.54 13.0 L 17.79 13.0 L 18.04 13.0 L 18.29 13.0 L 18.54 13.0 L 18.79 13.0 L 19.04 13.0 L 19.29 13.0" fill="none" stroke="#111" stroke-width="1.15" stroke-linecap="round" stroke-linejoin="round"/>
<path d="M 19.29 13.0 L 19.29 13.25 L 19.29 13.5 L 19.29 13.75 L 19.29 14.0 L 19.29 14.25 L 19.29 14.5 L 19.29 14.75 L 19.29 15.0 L 19.29 15.25 L 19.29 15.5 L 19.29 15.75 L 19.29 16.0 L 19.29 16.25 L 19.29 16.5 L 19.29 16.75 L 19.29 17.0 L 19.29 17.25 L 19.29 17.5 L 19.29 17.75 L 19.29 18.0 L 19.29 18.25 L 19.29 18.5 L 19.29 18.75 L 19.29 19.0" fill="none" stroke="#111" stroke-width="1.15" stroke-linecap="round" stroke-linejoin="round"/>
<path d="M 14.29 16.0 L 14.46 16.0 L 14.63 16.0 L 14.79 16.0 L 14.96 16.0 L 15.13 16.0 L 15.29 16.0 L 15.46 16.0 L 15.63 16.0 L 15.79 16.0 L 15.96 16.0 L 16.13 16.0 L 16.29 16.0 L 16.46 16.0 L 16.63 16.0 L 16.79 16.0 L 16.96 16.0 L 17.13 16.0 L 17.29 16.0 L 17.46 16.0 L 17.63 16.0 L 17.79 16.0 L 17.96 16.0 L 18.13 16.0 L 18.29 16.0" fill="none" stroke="#111" stroke-width="1.15" stroke-linecap="round" stroke-linejoin="round"/>
</svg>
