<?xml version="1.0" encoding="UTF-8"?>
<svg xmlns="http://www.w3.org/2000/svg" viewBox="0 0 23.96 34.87">
<path d="M 15.0 5.0 L 14.83 5.12 L 14.67 5.25 L 14.5 5.38 L 14.33 5.5 L 14.17 5.62 L 14.0 5.75 L 13.83 5.88 L 13.67 6.0 L 13.5 6.12 L 13.33 6.25 L 13.17 6.38 L 13.0 6.5 L 12.83 6.62 L 12.67 6.75 L 12.5 6.88 L 12.33 7.0 L 12.17 7.12 L 12.0 7.25 L 11.83 7.38 L 11.67 7.5 L 11.5 7.62 L 11.33 7.75 L 11.17 7.88 L 11.0 8.0 L 11.0 8.0 L 11.12 8.33 L 11.27 8.64 L 11.45 8.94 L 11.65 9.21 L 11.88 9.47 L 12.13 9.71 L 12.41 9.92 L 12.7 10.11 L 13.01 10.26 L 13.33 10.39 L 13.67 10.49 L 14.01 10.55 L 14.35 10.59 L 14.7 10.59 L 15.04 10.55 L 15.38 10.49 L 15.72 10.39 L 16.04 10.27 L 16.35 10.11 L 16.64 9.93 L 16.92 9.72 L 17.17 9.48 L 17.4 9.22 L 17.61 8.94" fill="none" stroke="#111" stroke-width="1.22" stroke-linecap="round" stroke-linejoin="round"/>
<path d="M 12.0 4.0 L 12.17 4.21 L 12.33 4.42 L 12.5 4.62 L 12.67 4.83 L 12.83 5.04 L 13.0 5.25 L 13.17 5.46 L 13.33 5.67 L 13.5 5.88 L 13.67 6.08 L 13.83 6.29 L 14.0 6.5 L 14.17 6.71 L 14.33 6.92 L 14.5 7.12 L 14.67 7.33 L 14.83 7.54 L 15.0 7.75 L 15.17 7.96 L 15.33 8.17 L 15.5 8.38 L 15.67 8.58 L 15.83 8.79 L 16.0 9.0" fill="none" stroke="#111" stroke-width="1.22" stroke-linecap="round" stroke-linejoin="round"/>
<path d="M 10.0 5.0 L 10.04 5.08 L 10.08 5.17 L 10.12 5.25 L 10.17 5.33 L 10.21 5.42 L 10.25 5.5 L 10.29 5.58 L 10.33 5.67 L 10.38 5.75 L 10.42 5.83 L 10.46 5.92 L 10.5 6.0 L 10.54 6.08 L 10.58 6.17 L 10.62 6.25 L 10.67 6.33 L 10.71 6.42 L 10.75 6.5 L 10.79 6.58 L 10.83 6.67 L 10.88 6.75 L 10.92 6.83 L 10.96 6.92 L 11.0 7.0" fill="none" stroke="#111" stroke-width="1.22" stroke-linecap="round" stroke-linejoin="round"/>
<path d="M 15.0 8.0 L 15.08 7.92 L 15.17 7.83 L 15.25 7.75 L 15.33 7.67 L 15.42 7.58 L 15.5 7.5 L 15.58 7.42 L 15.67 7.33 L 15.75 7.25 L 15.83 7.17 L 15.92 7.08 L 16.0 7.0 L 16.08 6.92 L 16.17 6.83 L 16.25 6.75 L 16.33 6.67 L 16.42 6.58 L 16.5 6.5 L 16.58 6.42 L 16.67 6.33 L 16.75 6.25 L 16.83 6.17 L 16.92 6.08 L 17.0 6.0" fill="none" stroke="#111" stroke-width="1.22" stroke-linecap="round" stroke-linejoin="round"/>
<path d="M 16.0 10.0 L 16.24 10.59 L 16.45 11.18 L 16.63 11.79 L 16.77 12.41 L 16.88 13.03 L 16.96 13.66 L 17.01 14.29 L 17.03 14.92 L 17.01 15.56 L 16.96 16.19 L 16.87 16.82 L 16.76 17.44 L 16.61 18.05 L 16.43 18.66 L 16.22 19.26 L 15.97 19.84 L 15.7 20.41 L 15.4 20.97 L 15.07 21.51 L 14.71 22.03 L 14.32 22.53 L 13.91 23.02 L 13.48 23.47 L 13.02 23.91" fill="none" stroke="#111" stroke-width="1.22" stroke-linecap="round" stroke-linejoin="round"/>
<path d="M 17.0 12.0 L 17.04 11.96 L 17.08 11.92 L 17.12 11.88 L 17.17 11.83 L 17.21 11.79 L 17.25 11.75 L 17.29 11.71 L 17.33 11.67 L 17.38 11.62 L 17.42 11.58 L 17.46 11.54 L 17.5 11.5 L 17.54 11.46 L 17.58 11.42 L 17.62 11.38 L 17.67 11.33 L 17.71 11.29 L 17.75 11.25 L 17.79 11.21 L 17.83 11.17 L 17.88 11.12 L 17.92 11.08 L 17.96 11.04 L 18.0 11.0 L 18.0 11.0 L 18.04 11.12 L 18.08 11.25 L 18.12 11.38 L 18.17 11.5 L 18.21 11.62 L 18.25 11.75 L 18.29 11.88 L 18.33 12.0 L 18.38 12.12 L 18.42 12.25 L 18.46 12.38 L 18.5 12.5 L 18.54 12.62 L 18.58 12.75 L 18.62 12.88 L 18.67 13.0 L 18.71 13.12 L 18.75 13.25 L 18.79 13.38 L 18.83 13.5 L 18.88 13.62 L 18.92 13.75 L 18.96 13.88 L 19.0 14.0 L 19.0 14.0 L 18.92 14.04 L 18.83 14.08 L 18.75 14.12 L 18.67 14.17 L 18.58 14.21 L 18.5 14.25 L 18.42 14.29 L 18.33 14.33 L 18.25 14.38 L 18.17 14.42 L 18.08 14.46 L 18.0 14.5 L 17.92 14.54 L 17.83 14.58 L 17.75 14.62 L 17.67 14.67 L 17.58 14.71 L 17.5 14.75 L 17.42 14.79 L 17.33 14.83 L 17.25 14.88 L 17.17 14.92 L 17.08 14.96 L 17.0 15.0" fill="none" stroke="#111" stroke-width="1.22" stroke-linecap="round" stroke-linejoin="round"/>
<path d="M 14.0 14.0 L 14.09 14.3 L 14.16 14.61 L 14.22 14.93 L 14.26 15.24 L 14.28 15.55 L 14.29 15.87 L 14.29 16.19 L 14.27 16.5 L 14.24 16.82 L 14.19 17.13 L 14.12 17.44 L 14.04 17.75 L 13.95 18.05 L 13.84 18.35 L 13.72 18.64 L 13.58 18.93 L 13.43 19.21 L 13.26 19.48 L 13.09 19.74 L 12.9 19.99 L 12.7 20.24 L 12.48 20.47 L 12.26 20.7 L 12.03 20.91" fill="none" stroke="#111" stroke-width="1.22" stroke-linecap="round" stroke-linejoin="round"/>
<path d="M 14.0 17.0 L 13.92 17.04 L 13.83 17.08 L 13.75 17.12 L 13.67 17.17 L 13.58 17.21 L 13.5 17.25 L 13.42 17.29 L 13.33 17.33 L 13.25 17.38 L 13.17 17.42 L 13.08 17.46 L 13.0 17.5 L 12.92 17.54 L 12.83 17.58 L 12.75 17.62 L 12.67 17.67 L 12.58 17.71 L 12.5 17.75 L 12.42 17.79 L 12.33 17.83 L 12.25 17.88 L 12.17 17.92 L 12.08 17.96 L 12.0 18.0" fill="none" stroke="#111" stroke-width="1.22" stroke-linecap="round" stroke-linejoin="round"/>
<path d="M 13.0 10.0 L 13.08 10.46 L 13.14 10.92 L 13.17 11.39 L 13.19 11.86 L 13.18 12.32 L 13.15 12.79 L 13.09 13.25 L 13.02 13.71 L 12.92 14.17 L 12.8 14.62 L 12.66 15.07 L 12.49 15.5 L 12.31 15.93 L 12.11 16.35 L 11.88 16.76 L 11.64 17.16 L 11.37 17.55 L 11.09 17.92 L 10.8 18.28 L 10.48 18.63 L 10.15 18.95 L 9.8 19.27 L 9.44 19.56 L 9.06 19.84 L 9.0 20.0 L 9.12 20.17 L 9.25 20.33 L 9.38 20.5 L 9.5 20.67 L 9.62 20.83 L 9.75 21.0 L 9.88 21.17 L 10.0 21.33 L 10.12 21.5 L 10.25 21.67 L 10.38 21.83 L 10.5 22.0 L 10.62 22.17 L 10.75 22.33 L 10.88 22.5 L 11.0 22.67 L 11.12 22.83 L 11.25 23.0 L 11.38 23.17 L 11.5 23.33 L 11.62 23.5 L 11.75 23.67 L 11.88 23.83 L 12.0 24.0" fill="none" stroke="#111" stroke-width="1.22" stroke-linecap="round" stroke-linejoin="round"/>
<path d="M 13.0 25.0 L 13.25 25.14 L 13.49 25.3 L 13.71 25.47 L 13.93 25.65 L 14.13 25.85 L 14.32 26.06 L 14.5 26.28 L 14.66 26.52 L 14.81 26.76 L 14.94 27.01 L 15.06 27.27 L 15.16 27.54 L 15.24 27.81 L 15.3 28.09 L 15.35 28.37 L 15.37 28.65 L 15.38 28.94 L 15.38 29.22 L 15.35 29.51 L 15.31 29.79 L 15.24 30.07 L 15.17 30.34 L 15.07 30.61 L 14.96 30.87" fill="none" stroke="#111" stroke-width="1.22" stroke-linecap="round" stroke-linejoin="round"/>
<path d="M 15.0 22.0 L 15.2 22.29 L 15.39 22.58 L 15.57 22.88 L 15.74 23.18 L 15.9 23.49 L 16.05 23.81 L 16.2 24.13 L 16.33 24.45 L 16.45 24.78 L 16.56 25.11 L 16.66 25.44 L 16.75 25.78 L 16.83 26.12 L 16.9 26.46 L 16.96 26.81 L 17.0 27.16 L 17.04 27.5 L 17.07 27.85 L 17.08 28.2 L 17.08 28.55 L 17.08 28.9 L 17.06 29.25 L 17.03 29.6 L 16.99 29.94" fill="none" stroke="#111" stroke-width="1.22" stroke-linecap="round" stroke-linejoin="round"/>
<path d="M 16.0 21.0 L 16.3 21.18 L 16.59 21.37 L 16.87 21.58 L 17.14 21.79 L 17.41 22.02 L 17.66 22.26 L 17.9 22.52 L 18.13 22.78 L 18.35 23.05 L 18.55 23.33 L 18.75 23.62 L 18.92 23.92 L 19.09 24.23 L 19.24 24.54 L 19.38 24.86 L 19.51 25.19 L 19.61 25.52 L 19.71 25.85 L 19.79 26.19 L 19.85 26.53 L 19.9 26.88 L 19.94 27.23 L 19.95 27.57 L 19.96 27.92" fill="none" stroke="#111" stroke-width="1.22" stroke-linecap="round" stroke-linejoin="round"/>
<path d="M 11.0 23.0 L 10.96 23.12 L 10.92 23.25 L 10.88 23.38 L 10.83 23.5 L 10.79 23.62 L 10.75 23.75 L 10.71 23.88 L 10.67 24.0 L 10.62 24.12 L 10.58 24.25 L 10.54 24.38 L 10.5 24.5 L 10.46 24.62 L 10.42 24.75 L 10.38 24.88 L 10.33 25.0 L 10.29 25.12 L 10.25 25.25 L 10.21 25.38 L 10.17 25.5 L 10.12 25.62 L 10.08 25.75 L 10.04 25.88 L 10.0 26.0 L 10.0 26.0 L 9.75 25.95 L 9.49 25.93 L 9.24 25.93 L 8.98 25.95 L 8.73 26.0 L 8.48 26.08 L 8.25 26.17 L 8.02 26.29 L 7.81 26.44 L 7.61 26.6 L 7.42 26.78 L 7.26 26.98 L 7.12 27.19 L 6.99 27.42 L 6.89 27.65 L 6.82 27.9 L 6.77 28.15 L 6.74 28.4 L 6.74 28.66 L 6.76 28.92 L 6.8 29.17 L 6.88 29.41 L 6.97 29.65 L 7.09 29.88" fill="none" stroke="#111" stroke-width="1.22" stroke-linecap="round" stroke-linejoin="round"/>
<path d="M 9.0 26.0 L 9.0 26.12 L 9.0 26.25 L 9.0 26.38 L 9.0 26.5 L 9.0 26.62 L 9.0 26.75 L 9.0 26.88 L 9.0 27.0 L 9.0 27.12 L 9.0 27.25 L 9.0 27.38 L 9.0 27.5 L 9.0 27.62 L 9.0 27.75 L 9.0 27.88 L 9.0 28.0 L 9.0 28.12 L 9.0 28.25 L 9.0 28.38 L 9.0 28.5 L 9.0 28.62 L 9.0 28.75 L 9.0 28.88 L 9.0 29.0" fill="none" stroke="#111" stroke-width="1.22" stroke-linecap="round" stroke-linejoin="round"/>
<path d="M 4.0 13.0 L 4.0 13.17 L 4.0 13.33 L 4.0 13.5 L 4.0 13.67 L 4.0 13.83 L 4.0 14.0 L 4.0 14.17 L 4.0 14.33 L 4.0 14.5 L 4.0 14.67 L 4.0 14.83 L 4.0 15.0 L 4.0 15.17 L 4.0 15.33 L 4.0 15.5 L 4.0 15.67 L 4.0 15.83 L 4.0 16.0 L 4.0 16.17 L 4.0 16.33 L 4.0 16.5 L 4.0 16.67 L 4.0 16.83 L 4.0 17.0 L 4.0 17.0 L 4.12 17.0 L 4.25 17.0 L 4.38 17.0 L 4.5 17.0 L 4.62 17.0 L 4.75 17.0 L 4.88 17.0 L 5.0 17.0 L 5.12 17.0 L 5.25 17.0 L 5.38 17.0 L 5.5 17.0 L 5.62 17.0 L 5.75 17.0 L 5.88 17.0 L 6.0 17.0 L 6.12 17.0 L 6.25 17.0 L 6.38 17.0 L 6.5 17.0 L 6.62 17.0 L 6.75 17.0 L 6.88 17.0 L 7.0 17.0" fill="none" stroke="#111" stroke-width="1.22" stroke-linecap="round" stroke-linejoin="round"/>
<path d="M 8.0 13.0 L 7.96 13.17 L 7.92 13.33 L 7.88 13.5 L 7.83 13.67 L 7.79 13.83 L 7.75 14.0 L 7.71 14.17 L 7.67 14.33 L 7.62 14.5 L 7.58 14.67 L 7.54 14.83 L 7.5 15.0 L 7.46 15.17 L 7.42 15.33 L 7.38 15.5 L 7.33 15.67 L 7.29 15.83 L 7.25 16.0 L 7.21 16.17 L 7.17 16.33 L 7.12 16.5 L 7.08 16.67 L 7.04 16.83 L 7.0 17.0" fill="none" stroke="#111" stroke-width="1.22" stroke-linecap="round" stroke-linejoin="round"/>
<path d="M 4.0 14.0 L 4.12 14.0 L 4.25 14.0 L 4.38 14.0 L 4.5 14.0 L 4.62 14.0 L 4.75 14.0 L 4.88 14.0 L 5.0 14.0 L 5.12 14.0 L 5.25 14.0 L 5.38 14.0 L 5.5 14.0 L 5.62 14.0 L 5.75 14.0 L 5.88 14.0 L 6.0 14.0 L 6.12 14.0 L 6.25 14.0 L 6.38 14.0 L 6.5 14.0 L 6.62 14.0 L 6.75 14.0 L 6.88 14.0 L 7.0 14.0" fill="none" stroke="#111" stroke-width="1.22" stroke-linecap="round" stroke-linejoin="round"/>
</svg>
