<?xml version="1.0" encoding="UTF-8"?>
<svg xmlns="http://www.w3.org/2000/svg" viewBox="0 0 21.00 41.00">
<path d="M 10.0 4.0 L 9.75 4.46 L 9.5 4.92 L 9.25 5.38 L 9.0 5.83 L 8.75 6.29 L 8.5 6.75 L 8.25 7.21 L 8.0 7.67 L 7.75 8.12 L 7.5 8.58 L 7.25 9.04 L 7.0 9.5 L 6.75 9.96 L 6.5 10.42 L 6.25 10.88 L 6.0 11.33 L 5.75 11.79 L 5.5 12.25 L 5.25 12.71 L 5.0 13.17 L 4.75 13.63 L 4.5 14.08 L 4.25 14.54 L 4.0 15.0" fill="none" stroke="#111" stroke-width="1.44" stroke-linecap="round" stroke-linejoin="round"/>
<path d="M 10.0 4.0 L 10.29 4.5 L 10.58 5.0 L 10.87 5.5 L 11.17 6.0 L 11.46 6.5 L 11.75 7.0 L 12.04 7.5 L 12.33 8.0 L 12.62 8.5 L 12.92 9.0 L 13.21 9.5 L 13.5 10.0 L 13.79 10.5 L 14.08 11.0 L 14.37 11.5 L 14.67 12.0 L 14.96 12.5 L 15.25 13.0 L 15.54 13.5 L 15.83 14.0 L 16.12 14.5 L 16.42 15.0 L 16.71 15.5 L 17.0 16.0" fill="none" stroke="#111" stroke-width="1.44" stroke-linecap="round" stroke-linejoin="round"/>
<path d="M 6.0 11.0 L 6.33 11.0 L 6.67 11.0 L 7.0 11.0 L 7.33 11.0 L 7.67 11.0 L 8.0 11.0 L 8.33 11.0 L 8.67 11.0 L 9.0 11.0 L 9.33 11.0 L 9.67 11.0 L 10.0 11.0 L 10.33 11.0 L 10.67 11.0 L 11.0 11.0 L 11.33 11.0 L 11.67 11.0 L 12.0 11.0 L 12.33 11.0 L 12.67 11.0 L 13.0 11.0 L 13.33 11.0 L 13.67 11.0 L 14.0 11.0" fill="none" stroke="#111" stroke-width="1.44" stroke-linecap="round" stroke-linejoin="round"/>
<path d="M 9.0 14.0 L 9.17 14.58 L 9.33 15.17 L 9.5 15.75 L 9.67 16.33 L 9.83 16.92 L 10.0 17.5 L 10.17 18.08 L 10.33 18.67 L 10.5 19.25 L 10.67 19.83 L 10.83 20.42 L 11.0 21.0 L 11.17 21.58 L 11.33 22.17 L 11.5 22.75 L 11.67 23.33 L 11.83 23.92 L 12.0 24.5 L 12.17 25.08 L 12.33 25.67 L 12.5 26.25 L 12.67 26.83 L 12.83 27.42 L 13.0 28.0 L 13.0 28.0 L 12.71 28.12 L 12.42 28.25 L 12.12 28.38 L 11.83 28.5 L 11.54 28.62 L 11.25 28.75 L 10.96 28.88 L 10.67 29.0 L 10.37 29.12 L 10.08 29.25 L 9.79 29.38 L 9.5 29.5 L 9.21 29.62 L 8.92 29.75 L 8.62 29.88 L 8.33 30.0 L 8.04 30.12 L 7.75 30.25 L 7.46 30.38 L 7.17 30.5 L 6.87 30.62 L 6.58 30.75 L 6.29 30.88 L 6.0 31.0" fill="none" stroke="#111" stroke-width="1.44" stroke-linecap="round" stroke-linejoin="round"/>
<path d="M 6.0 31.0 L 5.96 31.17 L 5.92 31.33 L 5.87 31.5 L 5.83 31.67 L 5.79 31.83 L 5.75 32.0 L 5.71 32.17 L 5.67 32.33 L 5.62 32.5 L 5.58 32.67 L 5.54 32.83 L 5.5 33.0 L 5.46 33.17 L 5.42 33.33 L 5.37 33.5 L 5.33 33.67 L 5.29 33.83 L 5.25 34.0 L 5.21 34.17 L 5.17 34.33 L 5.12 34.5 L 5.08 34.67 L 5.04 34.83 L 5.0 35.0 L 5.0 35.0 L 5.37 34.88 L 5.75 34.75 L 6.12 34.62 L 6.5 34.5 L 6.87 34.38 L 7.25 34.25 L 7.62 34.12 L 8.0 34.0 L 8.37 33.88 L 8.75 33.75 L 9.12 33.62 L 9.5 33.5 L 9.87 33.38 L 10.25 33.25 L 10.62 33.12 L 11.0 33.0 L 11.37 32.88 L 11.75 32.75 L 12.12 32.62 L 12.5 32.5 L 12.87 32.38 L 13.25 32.25 L 13.62 32.12 L 14.0 32.0 L 14.0 32.0 L 13.96 32.21 L 13.92 32.42 L 13.87 32.62 L 13.83 32.83 L 13.79 33.04 L 13.75 33.25 L 13.71 33.46 L 13.67 33.67 L 13.62 33.88 L 13.58 34.08 L 13.54 34.29 L 13.5 34.5 L 13.46 34.71 L 13.42 34.92 L 13.37 35.12 L 13.33 35.33 L 13.29 35.54 L 13.25 35.75 L 13.21 35.96 L 13.17 36.17 L 13.12 36.38 L 13.08 36.58 L 13.04 36.79 L 13.0 37.0" fill="none" stroke="#111" stroke-width="1.44" stroke-linecap="round" stroke-linejoin="round"/>
<path d="M 10.0 17.0 L 9.87 17.5 L 9.75 18.0 L 9.62 18.5 L 9.5 19.0 L 9.37 19.5 L 9.25 20.0 L 9.12 20.5 L 9.0 21.0 L 8.87 21.5 L 8.75 22.0 L 8.62 22.5 L 8.5 23.0 L 8.37 23.5 L 8.25 24.0 L 8.12 24.5 L 8.0 25.0 L 7.87 25.5 L 7.75 26.0 L 7.62 26.5 L 7.5 27.0 L 7.37 27.5 L 7.25 28.0 L 7.12 28.5 L 7.0 29.0" fill="none" stroke="#111" stroke-width="1.44" stroke-linecap="round" stroke-linejoin="round"/>
</svg>
