<?xml version="1.0" encoding="UTF-8"?>
<svg xmlns="http://www.w3.org/2000/svg" viewBox="0 0 21.89 42.45">
<path d="M 4.0 8.41 L 4.04 8.54 L 4.08 8.66 L 4.12 8.79 L 4.17 8.91 L 4.21 9.04 L 4.25 9.16 L 4.29 9.29 L 4.33 9.41 L 4.38 9.54 L 4.42 9.66 L 4.46 9.79 L 4.5 9.91 L 4.54 10.04 L 4.58 10.16 L 4.62 10.29 L 4.67 10.41 L 4.71 10.54 L 4.75 10.66 L 4.79 10.79 L 4.83 10.91 L 4.88 11.04 L 4.92 11.16 L 4.96 11.29 L 5.0 11.41" fill="none" stroke="#111" stroke-width="1.49" stroke-linecap="round" stroke-linejoin="round"/>
<path d="M 5.0 7.41 L 5.08 7.58 L 5.17 7.74 L 5.25 7.91 L 5.33 8.08 L 5.42 8.24 L 5.5 8.41 L 5.58 8.58 L 5.67 8.74 L 5.75 8.91 L 5.83 9.08 L 5.92 9.24 L 6.0 9.41 L 6.08 9.58 L 6.17 9.74 L 6.25 9.91 L 6.33 10.08 L 6.42 10.24 L 6.5 10.41 L 6.58 10.58 L 6.67 10.74 L 6.75 10.91 L 6.83 11.08 L 6.92 11.24 L 7.0 11.41 L 7.0 11.41 L 6.92 11.58 L 6.83 11.74 L 6.75 11.91 L 6.67 12.08 L 6.58 12.24 L 6.5 12.41 L 6.42 12.58 L 6.33 12.74 L 6.25 12.91 L 6.17 13.08 L 6.08 13.24 L 6.0 13.41 L 5.92 13.58 L 5.83 13.74 L 5.75 13.91 L 5.67 14.08 L 5.58 14.24 L 5.5 14.41 L 5.42 14.58 L 5.33 14.74 L 5.25 14.91 L 5.17 15.08 L 5.08 15.24 L 5.0 15.41 L 5.0 15.41 L 5.08 15.41 L 5.17 15.41 L 5.25 15.41 L 5.33 15.41 L 5.42 15.41 L 5.5 15.41 L 5.58 15.41 L 5.67 15.41 L 5.75 15.41 L 5.83 15.41 L 5.92 15.41 L 6.0 15.41 L 6.08 15.41 L 6.17 15.41 L 6.25 15.41 L 6.33 15.41 L 6.42 15.41 L 6.5 15.41 L 6.58 15.41 L 6.67 15.41 L 6.75 15.41 L 6.83 15.41 L 6.92 15.41 L 7.0 15.41" fill="none" stroke="#111" stroke-width="1.49" stroke-linecap="round" stroke-linejoin="round"/>
<path d="M 6.0 13.41 L 6.04 13.41 L 6.08 13.41 L 6.12 13.41 L 6.17 13.41 L 6.21 13.41 L 6.25 13.41 L 6.29 13.41 L 6.33 13.41 L 6.38 13.41 L 6.42 13.41 L 6.46 13.41 L 6.5 13.41 L 6.54 13.41 L 6.58 13.41 L 6.62 13.41 L 6.67 13.41 L 6.71 13.41 L 6.75 13.41 L 6.79 13.41 L 6.83 13.41 L 6.88 13.41 L 6.92 13.41 L 6.96 13.41 L 7.0 13.41" fill="none" stroke="#111" stroke-width="1.49" stroke-linecap="round" stroke-linejoin="round"/>
<path d="M 5.0 16.41 L 5.04 16.45 L 5.08 16.49 L 5.12 16.54 L 5.17 16.58 L 5.21 16.62 L 5.25 16.66 L 5.29 16.7 L 5.33 16.74 L 5.38 16.79 L 5.42 16.83 L 5.46 16.87 L 5.5 16.91 L 5.54 16.95 L 5.58 16.99 L 5.62 17.04 L 5.67 17.08 L 5.71 17.12 L 5.75 17.16 L 5.79 17.2 L 5.83 17.24 L 5.88 17.29 L 5.92 17.33 L 5.96 17.37 L 6.0 17.41" fill="none" stroke="#111" stroke-width="1.49" stroke-linecap="round" stroke-linejoin="round"/>
<path d="M 5.0 20.41 L 5.04 20.54 L 5.08 20.66 L 5.12 20.79 L 5.17 20.91 L 5.21 21.04 L 5.25 21.16 L 5.29 21.29 L 5.33 21.41 L 5.38 21.54 L 5.42 21.66 L 5.46 21.79 L 5.5 21.91 L 5.54 22.04 L 5.58 22.16 L 5.62 22.29 L 5.67 22.41 L 5.71 22.54 L 5.75 22.66 L 5.79 22.79 L 5.83 22.91 L 5.88 23.04 L 5.92 23.16 L 5.96 23.29 L 6.0 23.41 L 6.0 23.41 L 6.26 23.51 L 6.52 23.59 L 6.79 23.64 L 7.06 23.68 L 7.34 23.69 L 7.61 23.68 L 7.89 23.65 L 8.16 23.6 L 8.42 23.53 L 8.68 23.44 L 8.93 23.32 L 9.17 23.19 L 9.4 23.04 L 9.62 22.87 L 9.83 22.69 L 10.01 22.49 L 10.19 22.27 L 10.34 22.04 L 10.48 21.81 L 10.6 21.56 L 10.69 21.3 L 10.77 21.04 L 10.83 20.77 L 10.86 20.49" fill="none" stroke="#111" stroke-width="1.49" stroke-linecap="round" stroke-linejoin="round"/>
<path d="M 6.0 23.41 L 5.96 23.58 L 5.92 23.74 L 5.88 23.91 L 5.83 24.08 L 5.79 24.24 L 5.75 24.41 L 5.71 24.58 L 5.67 24.74 L 5.62 24.91 L 5.58 25.08 L 5.54 25.24 L 5.5 25.41 L 5.46 25.58 L 5.42 25.74 L 5.38 25.91 L 5.33 26.08 L 5.29 26.24 L 5.25 26.41 L 5.21 26.58 L 5.17 26.74 L 5.12 26.91 L 5.08 27.08 L 5.04 27.24 L 5.0 27.41" fill="none" stroke="#111" stroke-width="1.49" stroke-linecap="round" stroke-linejoin="round"/>
<path d="M 9.0 23.41 L 9.0 23.58 L 9.0 23.74 L 9.0 23.91 L 9.0 24.08 L 9.0 24.24 L 9.0 24.41 L 9.0 24.58 L 9.0 24.74 L 9.0 24.91 L 9.0 25.08 L 9.0 25.24 L 9.0 25.41 L 9.0 25.58 L 9.0 25.74 L 9.0 25.91 L 9.0 26.08 L 9.0 26.24 L 9.0 26.41 L 9.0 26.58 L 9.0 26.74 L 9.0 26.91 L 9.0 27.08 L 9.0 27.24 L 9.0 27.41" fill="none" stroke="#111" stroke-width="1.49" stroke-linecap="round" stroke-linejoin="round"/>
<path d="M 4.0 26.41 L 4.15 26.65 L 4.32 26.88 L 4.5 27.09 L 4.7 27.29 L 4.91 27.47 L 5.14 27.64 L 5.38 27.79 L 5.63 27.93 L 5.88 28.04 L 6.15 28.14 L 6.42 28.22 L 6.7 28.27 L 6.98 28.31 L 7.26 28.32 L 7.54 28.32 L 7.82 28.29 L 8.1 28.25 L 8.37 28.18 L 8.64 28.09 L 8.9 27.99 L 9.15 27.86 L 9.4 27.72 L 9.63 27.56 L 9.85 27.39" fill="none" stroke="#111" stroke-width="1.49" stroke-linecap="round" stroke-linejoin="round"/>
<path d="M 9.0 9.41 L 9.04 9.2 L 9.08 8.99 L 9.12 8.79 L 9.17 8.58 L 9.21 8.37 L 9.25 8.16 L 9.29 7.95 L 9.33 7.74 L 9.38 7.54 L 9.42 7.33 L 9.46 7.12 L 9.5 6.91 L 9.54 6.7 L 9.58 6.49 L 9.62 6.29 L 9.67 6.08 L 9.71 5.87 L 9.75 5.66 L 9.79 5.45 L 9.83 5.24 L 9.88 5.04 L 9.92 4.83 L 9.96 4.62 L 10.0 4.41 L 10.0 4.41 L 10.34 4.3 L 10.69 4.21 L 11.04 4.13 L 11.39 4.07 L 11.75 4.03 L 12.11 4.01 L 12.46 4.0 L 12.82 4.01 L 13.18 4.04 L 13.54 4.08 L 13.89 4.14 L 14.24 4.22 L 14.58 4.32 L 14.93 4.43 L 15.26 4.56 L 15.59 4.7 L 15.91 4.86 L 16.22 5.04 L 16.53 5.23 L 16.82 5.43 L 17.1 5.65 L 17.38 5.88 L 17.64 6.13 L 17.89 6.38" fill="none" stroke="#111" stroke-width="1.49" stroke-linecap="round" stroke-linejoin="round"/>
<path d="M 10.0 9.41 L 10.08 9.24 L 10.17 9.08 L 10.25 8.91 L 10.33 8.74 L 10.42 8.58 L 10.5 8.41 L 10.58 8.24 L 10.67 8.08 L 10.75 7.91 L 10.83 7.74 L 10.92 7.58 L 11.0 7.41 L 11.08 7.24 L 11.17 7.08 L 11.25 6.91 L 11.33 6.74 L 11.42 6.58 L 11.5 6.41 L 11.58 6.24 L 11.67 6.08 L 11.75 5.91 L 11.83 5.74 L 11.92 5.58 L 12.0 5.41 L 12.0 5.41 L 12.25 5.44 L 12.5 5.47 L 12.74 5.51 L 12.99 5.57 L 13.23 5.63 L 13.47 5.7 L 13.7 5.78 L 13.93 5.87 L 14.16 5.97 L 14.39 6.08 L 14.61 6.19 L 14.83 6.32 L 15.04 6.45 L 15.24 6.59 L 15.45 6.74 L 15.64 6.9 L 15.83 7.06 L 16.01 7.23 L 16.19 7.41 L 16.36 7.59 L 16.52 7.78 L 16.67 7.98 L 16.82 8.18 L 16.96 8.39" fill="none" stroke="#111" stroke-width="1.49" stroke-linecap="round" stroke-linejoin="round"/>
<path d="M 11.0 9.41 L 11.09 9.16 L 11.22 8.92 L 11.36 8.7 L 11.53 8.49 L 11.72 8.3 L 11.92 8.13 L 12.15 7.98 L 12.39 7.86 L 12.64 7.76 L 12.9 7.69 L 13.16 7.65 L 13.43 7.64 L 13.7 7.65 L 13.96 7.69 L 14.22 7.76 L 14.47 7.86 L 14.71 7.98 L 14.93 8.13 L 15.14 8.3 L 15.33 8.49 L 15.5 8.7 L 15.64 8.92 L 15.76 9.16 L 15.86 9.41" fill="none" stroke="#111" stroke-width="1.49" stroke-linecap="round" stroke-linejoin="round"/>
<path d="M 9.0 9.41 L 8.65 9.82 L 8.35 10.27 L 8.13 10.77 L 7.97 11.28 L 7.9 11.82 L 7.9 12.36 L 7.97 12.9 L 8.12 13.41 L 8.35 13.91 L 8.64 14.36 L 8.99 14.77 L 9.4 15.13 L 9.86 15.42 L 10.35 15.64 L 10.87 15.8 L 11.4 15.87 L 11.94 15.87 L 12.48 15.8 L 13.0 15.65 L 13.49 15.42 L 13.95 15.13 L 14.35 14.77 L 14.71 14.37 L 15.0 13.91 L 13.0 12.41 L 13.12 12.83 L 13.25 13.24 L 13.38 13.66 L 13.5 14.08 L 13.62 14.49 L 13.75 14.91 L 13.88 15.33 L 14.0 15.74 L 14.12 16.16 L 14.25 16.58 L 14.38 16.99 L 14.5 17.41 L 14.62 17.83 L 14.75 18.24 L 14.88 18.66 L 15.0 19.08 L 15.12 19.49 L 15.25 19.91 L 15.38 20.33 L 15.5 20.74 L 15.62 21.16 L 15.75 21.58 L 15.88 21.99 L 16.0 22.41 L 16.0 22.41 L 15.3 22.77 L 14.62 23.17 L 13.97 23.63 L 13.36 24.12 L 12.79 24.66 L 12.25 25.24 L 11.76 25.86 L 11.32 26.51 L 10.92 27.19 L 10.57 27.9 L 10.28 28.63 L 10.03 29.38 L 9.84 30.15 L 9.71 30.92 L 9.63 31.71 L 9.61 32.5 L 9.64 33.29 L 9.73 34.07 L 9.88 34.84 L 10.08 35.61 L 10.34 36.35 L 10.65 37.08 L 11.01 37.78 L 11.42 38.45" fill="none" stroke="#111" stroke-width="1.49" stroke-linecap="round" stroke-linejoin="round"/>
<path d="M 7.0 18.41 L 7.28 18.6 L 7.57 18.78 L 7.88 18.92 L 8.2 19.05 L 8.52 19.15 L 8.85 19.22 L 9.19 19.27 L 9.53 19.29 L 9.87 19.29 L 10.21 19.26 L 10.54 19.21 L 10.87 19.13 L 11.2 19.02 L 11.51 18.89 L 11.81 18.74 L 12.1 18.56 L 12.38 18.36 L 12.64 18.14 L 12.88 17.9 L 13.1 17.65 L 13.31 17.37 L 13.49 17.09 L 13.65 16.78 L 13.78 16.47" fill="none" stroke="#111" stroke-width="1.49" stroke-linecap="round" stroke-linejoin="round"/>
<path d="M 9.0 12.41 L 9.12 12.45 L 9.25 12.49 L 9.38 12.54 L 9.5 12.58 L 9.62 12.62 L 9.75 12.66 L 9.88 12.7 L 10.0 12.74 L 10.12 12.79 L 10.25 12.83 L 10.38 12.87 L 10.5 12.91 L 10.62 12.95 L 10.75 12.99 L 10.88 13.04 L 11.0 13.08 L 11.12 13.12 L 11.25 13.16 L 11.38 13.2 L 11.5 13.24 L 11.62 13.29 L 11.75 13.33 L 11.88 13.37 L 12.0 13.41" fill="none" stroke="#111" stroke-width="1.49" stroke-linecap="round" stroke-linejoin="round"/>
<path d="M 8.0 14.41 L 8.08 14.45 L 8.17 14.49 L 8.25 14.54 L 8.33 14.58 L 8.42 14.62 L 8.5 14.66 L 8.58 14.7 L 8.67 14.74 L 8.75 14.79 L 8.83 14.83 L 8.92 14.87 L 9.0 14.91 L 9.08 14.95 L 9.17 14.99 L 9.25 15.04 L 9.33 15.08 L 9.42 15.12 L 9.5 15.16 L 9.58 15.2 L 9.67 15.24 L 9.75 15.29 L 9.83 15.33 L 9.92 15.37 L 10.0 15.41" fill="none" stroke="#111" stroke-width="1.49" stroke-linecap="round" stroke-linejoin="round"/>
<path d="M 10.0 9.41 L 10.12 9.54 L 10.25 9.66 L 10.38 9.79 L 10.5 9.91 L 10.62 10.04 L 10.75 10.16 L 10.88 10.29 L 11.0 10.41 L 11.12 10.54 L 11.25 10.66 L 11.38 10.79 L 11.5 10.91 L 11.62 11.04 L 11.75 11.16 L 11.88 11.29 L 12.0 11.41 L 12.12 11.54 L 12.25 11.66 L 12.38 11.79 L 12.5 11.91 L 12.62 12.04 L 12.75 12.16 L 12.88 12.29 L 13.0 12.41" fill="none" stroke="#111" stroke-width="1.49" stroke-linecap="round" stroke-linejoin="round"/>
<path d="M 11.0 10.41 L 11.22 10.26 L 11.45 10.13 L 11.7 10.03 L 11.96 9.97 L 12.22 9.93 L 12.49 9.93 L 12.75 9.96 L 13.01 10.02 L 13.26 10.12 L 13.5 10.24 L 13.72 10.39 L 13.92 10.57 L 14.09 10.77 L 14.24 10.99 L 14.37 11.22 L 14.46 11.47 L 14.52 11.73 L 14.55 11.99 L 14.55 12.26 L 14.52 12.53 L 14.45 12.78 L 14.35 13.03 L 14.23 13.27 L 14.07 13.48" fill="none" stroke="#111" stroke-width="1.49" stroke-linecap="round" stroke-linejoin="round"/>
</svg>
