<?xml version="1.0" encoding="UTF-8"?>
<svg xmlns="http://www.w3.org/2000/svg" viewBox="0 0 26.00 40.00">
<path d="M 4.0 5.0 L 4.17 5.17 L 4.33 5.33 L 4.5 5.5 L 4.67 5.67 L 4.83 5.83 L 5.0 6.0 L 5.17 6.17 L 5.33 6.33 L 5.5 6.5 L 5.67 6.67 L 5.83 6.83 L 6.0 7.0 L 6.17 7.17 L 6.33 7.33 L 6.5 7.5 L 6.67 7.67 L 6.83 7.83 L 7.0 8.0 L 7.17 8.17 L 7.33 8.33 L 7.5 8.5 L 7.67 8.67 L 7.83 8.83 L 8.0 9.0" fill="none" stroke="#111" stroke-width="1.40" stroke-linecap="round" stroke-linejoin="round"/>
<path d="M 13.0 4.0 L 12.79 4.21 L 12.58 4.42 L 12.38 4.62 L 12.17 4.83 L 11.96 5.04 L 11.75 5.25 L 11.54 5.46 L 11.33 5.67 L 11.12 5.88 L 10.92 6.08 L 10.71 6.29 L 10.5 6.5 L 10.29 6.71 L 10.08 6.92 L 9.88 7.12 L 9.67 7.33 L 9.46 7.54 L 9.25 7.75 L 9.04 7.96 L 8.83 8.17 L 8.62 8.38 L 8.42 8.58 L 8.21 8.79 L 8.0 9.0" fill="none" stroke="#111" stroke-width="1.40" stroke-linecap="round" stroke-linejoin="round"/>
<path d="M 17.0 7.0 L 17.0 7.38 L 17.0 7.75 L 17.0 8.12 L 17.0 8.5 L 17.0 8.88 L 17.0 9.25 L 17.0 9.62 L 17.0 10.0 L 17.0 10.38 L 17.0 10.75 L 17.0 11.12 L 17.0 11.5 L 17.0 11.88 L 17.0 12.25 L 17.0 12.62 L 17.0 13.0 L 17.0 13.38 L 17.0 13.75 L 17.0 14.12 L 17.0 14.5 L 17.0 14.88 L 17.0 15.25 L 17.0 15.62 L 17.0 16.0" fill="none" stroke="#111" stroke-width="1.40" stroke-linecap="round" stroke-linejoin="round"/>
<path d="M 14.0 10.0 L 14.12 10.12 L 14.25 10.25 L 14.38 10.38 L 14.5 10.5 L 14.62 10.62 L 14.75 10.75 L 14.88 10.88 L 15.0 11.0 L 15.12 11.12 L 15.25 11.25 L 15.38 11.38 L 15.5 11.5 L 15.62 11.62 L 15.75 11.75 L 15.88 11.88 L 16.0 12.0 L 16.12 12.12 L 16.25 12.25 L 16.38 12.38 L 16.5 12.5 L 16.62 12.62 L 16.75 12.75 L 16.88 12.88 L 17.0 13.0" fill="none" stroke="#111" stroke-width="1.40" stroke-linecap="round" stroke-linejoin="round"/>
<path d="M 21.0 10.0 L 20.83 10.12 L 20.67 10.25 L 20.5 10.38 L 20.33 10.5 L 20.17 10.62 L 20.0 10.75 L 19.83 10.88 L 19.67 11.0 L 19.5 11.12 L 19.33 11.25 L 19.17 11.38 L 19.0 11.5 L 18.83 11.62 L 18.67 11.75 L 18.5 11.88 L 18.33 12.0 L 18.17 12.12 L 18.0 12.25 L 17.83 12.38 L 17.67 12.5 L 17.5 12.62 L 17.33 12.75 L 17.17 12.88 L 17.0 13.0" fill="none" stroke="#111" stroke-width="1.40" stroke-linecap="round" stroke-linejoin="round"/>
<path d="M 8.0 4.0 L 8.0 4.42 L 8.0 4.83 L 8.0 5.25 L 8.0 5.67 L 8.0 6.08 L 8.0 6.5 L 8.0 6.92 L 8.0 7.33 L 8.0 7.75 L 8.0 8.17 L 8.0 8.58 L 8.0 9.0 L 8.0 9.42 L 8.0 9.83 L 8.0 10.25 L 8.0 10.67 L 8.0 11.08 L 8.0 11.5 L 8.0 11.92 L 8.0 12.33 L 8.0 12.75 L 8.0 13.17 L 8.0 13.58 L 8.0 14.0" fill="none" stroke="#111" stroke-width="1.40" stroke-linecap="round" stroke-linejoin="round"/>
<path d="M 9.0 21.0 L 9.46 21.0 L 9.92 21.0 L 10.38 21.0 L 10.83 21.0 L 11.29 21.0 L 11.75 21.0 L 12.21 21.0 L 12.67 21.0 L 13.12 21.0 L 13.58 21.0 L 14.04 21.0 L 14.5 21.0 L 14.96 21.0 L 15.42 21.0 L 15.88 21.0 L 16.33 21.0 L 16.79 21.0 L 17.25 21.0 L 17.71 21.0 L 18.17 21.0 L 18.62 21.0 L 19.08 21.0 L 19.54 21.0 L 20.0 21.0 L 20.0 21.0 L 20.0 21.17 L 20.0 21.33 L 20.0 21.5 L 20.0 21.67 L 20.0 21.83 L 20.0 22.0 L 20.0 22.17 L 20.0 22.33 L 20.0 22.5 L 20.0 22.67 L 20.0 22.83 L 20.0 23.0 L 20.0 23.17 L 20.0 23.33 L 20.0 23.5 L 20.0 23.67 L 20.0 23.83 L 20.0 24.0 L 20.0 24.17 L 20.0 24.33 L 20.0 24.5 L 20.0 24.67 L 20.0 24.83 L 20.0 25.0" fill="none" stroke="#111" stroke-width="1.40" stroke-linecap="round" stroke-linejoin="round"/>
<path d="M 9.0 21.0 L 9.0 21.21 L 9.0 21.42 L 9.0 21.62 L 9.0 21.83 L 9.0 22.04 L 9.0 22.25 L 9.0 22.46 L 9.0 22.67 L 9.0 22.88 L 9.0 23.08 L 9.0 23.29 L 9.0 23.5 L 9.0 23.71 L 9.0 23.92 L 9.0 24.12 L 9.0 24.33 L 9.0 24.54 L 9.0 24.75 L 9.0 24.96 L 9.0 25.17 L 9.0 25.38 L 9.0 25.58 L 9.0 25.79 L 9.0 26.0 L 9.0 26.0 L 9.46 25.96 L 9.92 25.92 L 10.38 25.88 L 10.83 25.83 L 11.29 25.79 L 11.75 25.75 L 12.21 25.71 L 12.67 25.67 L 13.12 25.62 L 13.58 25.58 L 14.04 25.54 L 14.5 25.5 L 14.96 25.46 L 15.42 25.42 L 15.88 25.38 L 16.33 25.33 L 16.79 25.29 L 17.25 25.25 L 17.71 25.21 L 18.17 25.17 L 18.62 25.12 L 19.08 25.08 L 19.54 25.04 L 20.0 25.0" fill="none" stroke="#111" stroke-width="1.40" stroke-linecap="round" stroke-linejoin="round"/>
<path d="M 10.0 23.0 L 10.21 23.0 L 10.42 23.0 L 10.62 23.0 L 10.83 23.0 L 11.04 23.0 L 11.25 23.0 L 11.46 23.0 L 11.67 23.0 L 11.88 23.0 L 12.08 23.0 L 12.29 23.0 L 12.5 23.0 L 12.71 23.0 L 12.92 23.0 L 13.12 23.0 L 13.33 23.0 L 13.54 23.0 L 13.75 23.0 L 13.96 23.0 L 14.17 23.0 L 14.38 23.0 L 14.58 23.0 L 14.79 23.0 L 15.0 23.0" fill="none" stroke="#111" stroke-width="1.40" stroke-linecap="round" stroke-linejoin="round"/>
<path d="M 7.0 28.0 L 7.0 28.33 L 7.0 28.67 L 7.0 29.0 L 7.0 29.33 L 7.0 29.67 L 7.0 30.0 L 7.0 30.33 L 7.0 30.67 L 7.0 31.0 L 7.0 31.33 L 7.0 31.67 L 7.0 32.0 L 7.0 32.33 L 7.0 32.67 L 7.0 33.0 L 7.0 33.33 L 7.0 33.67 L 7.0 34.0 L 7.0 34.33 L 7.0 34.67 L 7.0 35.0 L 7.0 35.33 L 7.0 35.67 L 7.0 36.0" fill="none" stroke="#111" stroke-width="1.40" stroke-linecap="round" stroke-linejoin="round"/>
<path d="M 4.0 29.0 L 4.12 29.12 L 4.25 29.25 L 4.38 29.38 L 4.5 29.5 L 4.62 29.62 L 4.75 29.75 L 4.88 29.88 L 5.0 30.0 L 5.12 30.12 L 5.25 30.25 L 5.38 30.38 L 5.5 30.5 L 5.62 30.62 L 5.75 30.75 L 5.88 30.88 L 6.0 31.0 L 6.12 31.12 L 6.25 31.25 L 6.38 31.38 L 6.5 31.5 L 6.62 31.62 L 6.75 31.75 L 6.88 31.88 L 7.0 32.0" fill="none" stroke="#111" stroke-width="1.40" stroke-linecap="round" stroke-linejoin="round"/>
<path d="M 11.0 29.0 L 10.83 29.12 L 10.67 29.25 L 10.5 29.38 L 10.33 29.5 L 10.17 29.62 L 10.0 29.75 L 9.83 29.88 L 9.67 30.0 L 9.5 30.12 L 9.33 30.25 L 9.17 30.38 L 9.0 30.5 L 8.83 30.62 L 8.67 30.75 L 8.5 30.88 L 8.33 31.0 L 8.17 31.12 L 8.0 31.25 L 7.83 31.38 L 7.67 31.5 L 7.5 31.62 L 7.33 31.75 L 7.17 31.88 L 7.0 32.0" fill="none" stroke="#111" stroke-width="1.40" stroke-linecap="round" stroke-linejoin="round"/>
<path d="M 17.0 28.0 L 17.04 28.33 L 17.08 28.67 L 17.12 29.0 L 17.17 29.33 L 17.21 29.67 L 17.25 30.0 L 17.29 30.33 L 17.33 30.67 L 17.38 31.0 L 17.42 31.33 L 17.46 31.67 L 17.5 32.0 L 17.54 32.33 L 17.58 32.67 L 17.62 33.0 L 17.67 33.33 L 17.71 33.67 L 17.75 34.0 L 17.79 34.33 L 17.83 34.67 L 17.88 35.0 L 17.92 35.33 L 17.96 35.67 L 18.0 36.0" fill="none" stroke="#111" stroke-width="1.40" stroke-linecap="round" stroke-linejoin="round"/>
<path d="M 13.0 30.0 L 13.17 30.08 L 13.33 30.17 L 13.5 30.25 L 13.67 30.33 L 13.83 30.42 L 14.0 30.5 L 14.17 30.58 L 14.33 30.67 L 14.5 30.75 L 14.67 30.83 L 14.83 30.92 L 15.0 31.0 L 15.17 31.08 L 15.33 31.17 L 15.5 31.25 L 15.67 31.33 L 15.83 31.42 L 16.0 31.5 L 16.17 31.58 L 16.33 31.67 L 16.5 31.75 L 16.67 31.83 L 16.83 31.92 L 17.0 32.0" fill="none" stroke="#111" stroke-width="1.40" stroke-linecap="round" stroke-linejoin="round"/>
<path d="M 22.0 27.0 L 21.79 27.21 L 21.58 27.42 L 21.38 27.62 L 21.17 27.83 L 20.96 28.04 L 20.75 28.25 L 20.54 28.46 L 20.33 28.67 L 20.12 28.88 L 19.92 29.08 L 19.71 29.29 L 19.5 29.5 L 19.29 29.71 L 19.08 29.92 L 18.88 30.12 L 18.67 30.33 L 18.46 30.54 L 18.25 30.75 L 18.04 30.96 L 17.83 31.17 L 17.62 31.38 L 17.42 31.58 L 17.21 31.79 L 17.0 32.0" fill="none" stroke="#111" stroke-width="1.40" stroke-linecap="round" stroke-linejoin="round"/>
</svg>
