<?xml version="1.0" encoding="UTF-8"?>
<svg xmlns="http://www.w3.org/2000/svg" viewBox="0 0 18.28 34.00">
<path d="M 8.86 4.0 L 8.98 4.62 L 9.11 5.25 L 9.23 5.88 L 9.36 6.5 L 9.48 7.12 L 9.61 7.75 L 9.73 8.38 L 9.86 9.0 L 9.98 9.62 L 10.11 10.25 L 10.23 10.88 L 10.36 11.5 L 10.48 12.13 L 10.61 12.75 L 10.73 13.38 L 10.86 14.0 L 10.98 14.63 L 11.11 15.25 L 11.23 15.88 L 11.36 16.5 L 11.48 17.12 L 11.61 17.75 L 11.73 18.38 L 11.86 19.0 L 11.86 19.0 L 11.39 18.97 L 10.92 18.98 L 10.45 19.03 L 9.99 19.13 L 9.54 19.27 L 9.1 19.46 L 8.69 19.68 L 8.29 19.94 L 7.93 20.24 L 7.59 20.57 L 7.29 20.93 L 7.02 21.32 L 6.79 21.73 L 6.59 22.16 L 6.44 22.61 L 6.34 23.07 L 6.27 23.54 L 6.26 24.01 L 6.28 24.48 L 6.35 24.95 L 6.46 25.41 L 6.62 25.85 L 6.82 26.28 L 7.05 26.69 L 6.86 27.0 L 7.11 26.83 L 7.36 26.67 L 7.61 26.5 L 7.86 26.33 L 8.11 26.17 L 8.36 26.0 L 8.61 25.83 L 8.86 25.67 L 9.11 25.5 L 9.36 25.33 L 9.61 25.17 L 9.86 25.0 L 10.11 24.83 L 10.36 24.67 L 10.61 24.5 L 10.86 24.33 L 11.11 24.17 L 11.36 24.0 L 11.61 23.83 L 11.86 23.67 L 12.11 23.5 L 12.36 23.33 L 12.61 23.17 L 12.86 23.0 L 12.86 23.0 L 12.78 23.29 L 12.69 23.58 L 12.61 23.88 L 12.53 24.17 L 12.44 24.46 L 12.36 24.75 L 12.28 25.04 L 12.19 25.33 L 12.11 25.62 L 12.03 25.92 L 11.94 26.21 L 11.86 26.5 L 11.78 26.79 L 11.69 27.08 L 11.61 27.38 L 11.53 27.67 L 11.44 27.96 L 11.36 28.25 L 11.28 28.54 L 11.19 28.83 L 11.11 29.12 L 11.03 29.42 L 10.94 29.71 L 10.86 30.0" fill="none" stroke="#111" stroke-width="1.19" stroke-linecap="round" stroke-linejoin="round"/>
<path d="M 4.86 12.0 L 5.23 11.71 L 5.61 11.42 L 5.98 11.12 L 6.36 10.83 L 6.73 10.54 L 7.11 10.25 L 7.48 9.96 L 7.86 9.67 L 8.23 9.38 L 8.61 9.08 L 8.98 8.79 L 9.36 8.5 L 9.73 8.21 L 10.11 7.92 L 10.48 7.63 L 10.86 7.33 L 11.23 7.04 L 11.61 6.75 L 11.98 6.46 L 12.36 6.17 L 12.73 5.88 L 13.11 5.58 L 13.48 5.29 L 13.86 5.0" fill="none" stroke="#111" stroke-width="1.19" stroke-linecap="round" stroke-linejoin="round"/>
<path d="M 13.86 5.0 L 14.06 5.76 L 14.19 6.54 L 14.27 7.32 L 14.28 8.1 L 14.23 8.89 L 14.12 9.67 L 13.95 10.44 L 13.72 11.19 L 13.43 11.92 L 13.08 12.62 L 12.67 13.3 L 12.22 13.94 L 11.72 14.54 L 11.17 15.11 L 10.57 15.62 L 9.94 16.09 L 9.28 16.51 L 8.58 16.87 L 7.85 17.18 L 7.11 17.43 L 6.35 17.62 L 5.57 17.75 L 4.79 17.81 L 4.0 17.82" fill="none" stroke="#111" stroke-width="1.19" stroke-linecap="round" stroke-linejoin="round"/>
<path d="M 4.86 12.0 L 4.9 12.29 L 4.94 12.58 L 4.98 12.88 L 5.03 13.17 L 5.07 13.46 L 5.11 13.75 L 5.15 14.04 L 5.19 14.33 L 5.23 14.62 L 5.28 14.92 L 5.32 15.21 L 5.36 15.5 L 5.4 15.79 L 5.44 16.08 L 5.48 16.38 L 5.53 16.67 L 5.57 16.96 L 5.61 17.25 L 5.65 17.54 L 5.69 17.83 L 5.73 18.12 L 5.78 18.42 L 5.82 18.71 L 5.86 19.0" fill="none" stroke="#111" stroke-width="1.19" stroke-linecap="round" stroke-linejoin="round"/>
<path d="M 7.86 12.0 L 7.86 12.08 L 7.86 12.17 L 7.86 12.25 L 7.86 12.33 L 7.86 12.42 L 7.86 12.5 L 7.86 12.58 L 7.86 12.67 L 7.86 12.75 L 7.86 12.83 L 7.86 12.92 L 7.86 13.0 L 7.86 13.08 L 7.86 13.17 L 7.86 13.25 L 7.86 13.33 L 7.86 13.42 L 7.86 13.5 L 7.86 13.58 L 7.86 13.67 L 7.86 13.75 L 7.86 13.83 L 7.86 13.92 L 7.86 14.0" fill="none" stroke="#111" stroke-width="1.19" stroke-linecap="round" stroke-linejoin="round"/>
<path d="M 11.86 8.0 L 11.9 8.08 L 11.94 8.17 L 11.98 8.25 L 12.03 8.33 L 12.07 8.42 L 12.11 8.5 L 12.15 8.58 L 12.19 8.67 L 12.23 8.75 L 12.28 8.83 L 12.32 8.92 L 12.36 9.0 L 12.4 9.08 L 12.44 9.17 L 12.48 9.25 L 12.53 9.33 L 12.57 9.42 L 12.61 9.5 L 12.65 9.58 L 12.69 9.67 L 12.73 9.75 L 12.78 9.83 L 12.82 9.92 L 12.86 10.0" fill="none" stroke="#111" stroke-width="1.19" stroke-linecap="round" stroke-linejoin="round"/>
</svg>
