<?xml version="1.0" encoding="UTF-8"?>
<svg xmlns="http://www.w3.org/2000/svg" viewBox="0 0 29.00 40.00">
<path d="M 6.0 17.0 L 6.12 16.83 L 6.25 16.67 L 6.38 16.5 L 6.5 16.33 L 6.62 16.17 L 6.75 16.0 L 6.88 15.83 L 7.0 15.67 L 7.12 15.5 L 7.25 15.33 L 7.38 15.17 L 7.5 15.0 L 7.62 14.83 L 7.75 14.67 L 7.88 14.5 L 8.0 14.33 L 8.12 14.17 L 8.25 14.0 L 8.38 13.83 L 8.5 13.67 L 8.62 13.5 L 8.75 13.33 L 8.88 13.17 L 9.0 13.0 L 9.0 13.0 L 9.64 13.1 L 10.28 13.18 L 10.92 13.24 L 11.57 13.29 L 12.21 13.31 L 12.86 13.31 L 13.51 13.29 L 14.15 13.25 L 14.8 13.2 L 15.44 13.12 L 16.08 13.02 L 16.71 12.9 L 17.35 12.77 L 17.97 12.61 L 18.6 12.44 L 19.21 12.24 L 19.82 12.03 L 20.43 11.8 L 21.02 11.55 L 21.61 11.28 L 22.19 10.99 L 22.76 10.69 L 23.32 10.36 L 23.87 10.03" fill="none" stroke="#111" stroke-width="1.40" stroke-linecap="round" stroke-linejoin="round"/>
<path d="M 6.0 17.0 L 6.58 17.39 L 7.2 17.73 L 7.84 18.02 L 8.5 18.25 L 9.17 18.44 L 9.86 18.57 L 10.56 18.64 L 11.26 18.65 L 11.96 18.61 L 12.65 18.51 L 13.34 18.36 L 14.01 18.15 L 14.66 17.89 L 15.28 17.57 L 15.88 17.21 L 16.45 16.8 L 16.98 16.34 L 17.48 15.84 L 17.93 15.31 L 18.34 14.74 L 18.7 14.14 L 19.01 13.51 L 19.27 12.86 L 19.48 12.19" fill="none" stroke="#111" stroke-width="1.40" stroke-linecap="round" stroke-linejoin="round"/>
<path d="M 12.0 13.0 L 11.86 13.12 L 11.73 13.25 L 11.61 13.4 L 11.5 13.55 L 11.4 13.7 L 11.31 13.87 L 11.24 14.04 L 11.18 14.22 L 11.13 14.4 L 11.09 14.58 L 11.07 14.76 L 11.06 14.95 L 11.07 15.14 L 11.09 15.32 L 11.13 15.5 L 11.18 15.68 L 11.24 15.86 L 11.31 16.03 L 11.4 16.2 L 11.5 16.35 L 11.61 16.5 L 11.73 16.65 L 11.86 16.78 L 12.0 16.9" fill="none" stroke="#111" stroke-width="1.40" stroke-linecap="round" stroke-linejoin="round"/>
<path d="M 12.0 13.0 L 12.39 12.82 L 12.82 12.7 L 13.25 12.67 L 13.68 12.7 L 14.11 12.82 L 14.5 13.0 L 14.86 13.25 L 15.17 13.56 L 15.42 13.92 L 15.6 14.31 L 15.71 14.73 L 15.75 15.17 L 15.71 15.6 L 15.6 16.02 L 15.42 16.42 L 15.17 16.77 L 14.86 17.08 L 14.5 17.33 L 14.11 17.51 L 13.68 17.63 L 13.25 17.67 L 12.82 17.63 L 12.39 17.51 L 12.0 17.33" fill="none" stroke="#111" stroke-width="1.40" stroke-linecap="round" stroke-linejoin="round"/>
<path d="M 8.0 6.0 L 8.17 6.29 L 8.33 6.58 L 8.5 6.88 L 8.67 7.17 L 8.83 7.46 L 9.0 7.75 L 9.17 8.04 L 9.33 8.33 L 9.5 8.62 L 9.67 8.92 L 9.83 9.21 L 10.0 9.5 L 10.17 9.79 L 10.33 10.08 L 10.5 10.38 L 10.67 10.67 L 10.83 10.96 L 11.0 11.25 L 11.17 11.54 L 11.33 11.83 L 11.5 12.12 L 11.67 12.42 L 11.83 12.71 L 12.0 13.0" fill="none" stroke="#111" stroke-width="1.40" stroke-linecap="round" stroke-linejoin="round"/>
<path d="M 12.0 4.0 L 11.88 4.17 L 11.75 4.33 L 11.62 4.5 L 11.5 4.67 L 11.38 4.83 L 11.25 5.0 L 11.12 5.17 L 11.0 5.33 L 10.88 5.5 L 10.75 5.67 L 10.62 5.83 L 10.5 6.0 L 10.38 6.17 L 10.25 6.33 L 10.12 6.5 L 10.0 6.67 L 9.88 6.83 L 9.75 7.0 L 9.62 7.17 L 9.5 7.33 L 9.38 7.5 L 9.25 7.67 L 9.12 7.83 L 9.0 8.0" fill="none" stroke="#111" stroke-width="1.40" stroke-linecap="round" stroke-linejoin="round"/>
<path d="M 14.0 7.0 L 13.83 7.12 L 13.67 7.25 L 13.5 7.38 L 13.33 7.5 L 13.17 7.62 L 13.0 7.75 L 12.83 7.88 L 12.67 8.0 L 12.5 8.12 L 12.33 8.25 L 12.17 8.38 L 12.0 8.5 L 11.83 8.62 L 11.67 8.75 L 11.5 8.88 L 11.33 9.0 L 11.17 9.12 L 11.0 9.25 L 10.83 9.38 L 10.67 9.5 L 10.5 9.62 L 10.33 9.75 L 10.17 9.88 L 10.0 10.0" fill="none" stroke="#111" stroke-width="1.40" stroke-linecap="round" stroke-linejoin="round"/>
<path d="M 16.0 4.0 L 16.3 4.25 L 16.59 4.53 L 16.84 4.83 L 17.07 5.15 L 17.27 5.49 L 17.44 5.84 L 17.58 6.21 L 17.69 6.59 L 17.76 6.98 L 17.79 7.37 L 17.8 7.77 L 17.77 8.16 L 17.7 8.55 L 17.6 8.93 L 17.47 9.3 L 17.3 9.66 L 17.11 10.01 L 16.88 10.33 L 16.63 10.63 L 16.35 10.91 L 16.05 11.17 L 15.73 11.4 L 15.39 11.59 L 15.03 11.76" fill="none" stroke="#111" stroke-width="1.40" stroke-linecap="round" stroke-linejoin="round"/>
<path d="M 17.0 6.0 L 17.17 5.96 L 17.33 5.92 L 17.5 5.88 L 17.67 5.83 L 17.83 5.79 L 18.0 5.75 L 18.17 5.71 L 18.33 5.67 L 18.5 5.62 L 18.67 5.58 L 18.83 5.54 L 19.0 5.5 L 19.17 5.46 L 19.33 5.42 L 19.5 5.38 L 19.67 5.33 L 19.83 5.29 L 20.0 5.25 L 20.17 5.21 L 20.33 5.17 L 20.5 5.12 L 20.67 5.08 L 20.83 5.04 L 21.0 5.0" fill="none" stroke="#111" stroke-width="1.40" stroke-linecap="round" stroke-linejoin="round"/>
<path d="M 15.0 6.0 L 15.08 6.12 L 15.17 6.25 L 15.25 6.38 L 15.33 6.5 L 15.42 6.62 L 15.5 6.75 L 15.58 6.88 L 15.67 7.0 L 15.75 7.12 L 15.83 7.25 L 15.92 7.38 L 16.0 7.5 L 16.08 7.62 L 16.17 7.75 L 16.25 7.88 L 16.33 8.0 L 16.42 8.12 L 16.5 8.25 L 16.58 8.38 L 16.67 8.5 L 16.75 8.62 L 16.83 8.75 L 16.92 8.88 L 17.0 9.0" fill="none" stroke="#111" stroke-width="1.40" stroke-linecap="round" stroke-linejoin="round"/>
<path d="M 12.0 17.0 L 12.12 17.35 L 12.22 17.72 L 12.29 18.08 L 12.33 18.46 L 12.35 18.83 L 12.33 19.21 L 12.29 19.58 L 12.23 19.95 L 12.13 20.31 L 12.01 20.66 L 11.86 21.01 L 11.68 21.34 L 11.49 21.66 L 11.27 21.96 L 11.02 22.25 L 10.76 22.51 L 10.48 22.76 L 10.18 22.98 L 9.86 23.19 L 9.53 23.36 L 9.19 23.52 L 8.83 23.64 L 8.47 23.74 L 8.11 23.82 L 8.0 24.0 L 8.0 24.5 L 8.0 25.0 L 8.0 25.5 L 8.0 26.0 L 8.0 26.5 L 8.0 27.0 L 8.0 27.5 L 8.0 28.0 L 8.0 28.5 L 8.0 29.0 L 8.0 29.5 L 8.0 30.0 L 8.0 30.5 L 8.0 31.0 L 8.0 31.5 L 8.0 32.0 L 8.0 32.5 L 8.0 33.0 L 8.0 33.5 L 8.0 34.0 L 8.0 34.5 L 8.0 35.0 L 8.0 35.5 L 8.0 36.0" fill="none" stroke="#111" stroke-width="1.40" stroke-linecap="round" stroke-linejoin="round"/>
<path d="M 8.0 24.0 L 8.54 23.88 L 9.08 23.75 L 9.62 23.62 L 10.17 23.5 L 10.71 23.38 L 11.25 23.25 L 11.79 23.12 L 12.33 23.0 L 12.88 22.88 L 13.42 22.75 L 13.96 22.62 L 14.5 22.5 L 15.04 22.38 L 15.58 22.25 L 16.12 22.12 L 16.67 22.0 L 17.21 21.88 L 17.75 21.75 L 18.29 21.62 L 18.83 21.5 L 19.38 21.38 L 19.92 21.25 L 20.46 21.12 L 21.0 21.0 L 21.0 21.0 L 20.96 21.58 L 20.92 22.17 L 20.88 22.75 L 20.83 23.33 L 20.79 23.92 L 20.75 24.5 L 20.71 25.08 L 20.67 25.67 L 20.62 26.25 L 20.58 26.83 L 20.54 27.42 L 20.5 28.0 L 20.46 28.58 L 20.42 29.17 L 20.38 29.75 L 20.33 30.33 L 20.29 30.92 L 20.25 31.5 L 20.21 32.08 L 20.17 32.67 L 20.12 33.25 L 20.08 33.83 L 20.04 34.42 L 20.0 35.0" fill="none" stroke="#111" stroke-width="1.40" stroke-linecap="round" stroke-linejoin="round"/>
<path d="M 8.0 28.0 L 8.54 27.92 L 9.08 27.83 L 9.62 27.75 L 10.17 27.67 L 10.71 27.58 L 11.25 27.5 L 11.79 27.42 L 12.33 27.33 L 12.88 27.25 L 13.42 27.17 L 13.96 27.08 L 14.5 27.0 L 15.04 26.92 L 15.58 26.83 L 16.12 26.75 L 16.67 26.67 L 17.21 26.58 L 17.75 26.5 L 18.29 26.42 L 18.83 26.33 L 19.38 26.25 L 19.92 26.17 L 20.46 26.08 L 21.0 26.0" fill="none" stroke="#111" stroke-width="1.40" stroke-linecap="round" stroke-linejoin="round"/>
<path d="M 8.0 32.0 L 7.83 32.12 L 7.67 32.25 L 7.5 32.38 L 7.33 32.5 L 7.17 32.62 L 7.0 32.75 L 6.83 32.88 L 6.67 33.0 L 6.5 33.12 L 6.33 33.25 L 6.17 33.38 L 6.0 33.5 L 5.83 33.62 L 5.67 33.75 L 5.5 33.88 L 5.33 34.0 L 5.17 34.12 L 5.0 34.25 L 4.83 34.38 L 4.67 34.5 L 4.5 34.62 L 4.33 34.75 L 4.17 34.88 L 4.0 35.0" fill="none" stroke="#111" stroke-width="1.40" stroke-linecap="round" stroke-linejoin="round"/>
<path d="M 8.0 32.0 L 8.08 32.17 L 8.17 32.33 L 8.25 32.5 L 8.33 32.67 L 8.42 32.83 L 8.5 33.0 L 8.58 33.17 L 8.67 33.33 L 8.75 33.5 L 8.83 33.67 L 8.92 33.83 L 9.0 34.0 L 9.08 34.17 L 9.17 34.33 L 9.25 34.5 L 9.33 34.67 L 9.42 34.83 L 9.5 35.0 L 9.58 35.17 L 9.67 35.33 L 9.75 35.5 L 9.83 35.67 L 9.92 35.83 L 10.0 36.0" fill="none" stroke="#111" stroke-width="1.40" stroke-linecap="round" stroke-linejoin="round"/>
<path d="M 20.0 31.0 L 20.21 31.08 L 20.42 31.17 L 20.62 31.25 L 20.83 31.33 L 21.04 31.42 L 21.25 31.5 L 21.46 31.58 L 21.67 31.67 L 21.88 31.75 L 22.08 31.83 L 22.29 31.92 L 22.5 32.0 L 22.71 32.08 L 22.92 32.17 L 23.12 32.25 L 23.33 32.33 L 23.54 32.42 L 23.75 32.5 L 23.96 32.58 L 24.17 32.67 L 24.38 32.75 L 24.58 32.83 L 24.79 32.92 L 25.0 33.0" fill="none" stroke="#111" stroke-width="1.40" stroke-linecap="round" stroke-linejoin="round"/>
<path d="M 14.0 30.0 L 14.0 30.21 L 14.0 30.42 L 14.0 30.62 L 14.0 30.83 L 14.0 31.04 L 14.0 31.25 L 14.0 31.46 L 14.0 31.67 L 14.0 31.88 L 14.0 32.08 L 14.0 32.29 L 14.0 32.5 L 14.0 32.71 L 14.0 32.92 L 14.0 33.12 L 14.0 33.33 L 14.0 33.54 L 14.0 33.75 L 14.0 33.96 L 14.0 34.17 L 14.0 34.38 L 14.0 34.58 L 14.0 34.79 L 14.0 35.0" fill="none" stroke="#111" stroke-width="1.40" stroke-linecap="round" stroke-linejoin="round"/>
<path d="M 11.0 35.0 L 11.29 35.0 L 11.58 35.0 L 11.88 35.0 L 12.17 35.0 L 12.46 35.0 L 12.75 35.0 L 13.04 35.0 L 13.33 35.0 L 13.62 35.0 L 13.92 35.0 L 14.21 35.0 L 14.5 35.0 L 14.79 35.0 L 15.08 35.0 L 15.38 35.0 L 15.67 35.0 L 15.96 35.0 L 16.25 35.0 L 16.54 35.0 L 16.83 35.0 L 17.12 35.0 L 17.42 35.0 L 17.71 35.0 L 18.0 35.0" fill="none" stroke="#111" stroke-width="1.40" stroke-linecap="round" stroke-linejoin="round"/>
</svg>
