<?xml version="1.0" encoding="UTF-8"?>
<svg xmlns="http://www.w3.org/2000/svg" viewBox="0 0 20.00 35.00">
<path d="M 10.0 4.0 L 10.0 5.13 L 10.0 6.25 L 10.0 7.38 L 10.0 8.5 L 10.0 9.63 L 10.0 10.75 L 10.0 11.88 L 10.0 13.0 L 10.0 14.13 L 10.0 15.25 L 10.0 16.38 L 10.0 17.5 L 10.0 18.62 L 10.0 19.75 L 10.0 20.88 L 10.0 22.0 L 10.0 23.12 L 10.0 24.25 L 10.0 25.38 L 10.0 26.5 L 10.0 27.62 L 10.0 28.75 L 10.0 29.88 L 10.0 31.0" fill="none" stroke="#111" stroke-width="1.23" stroke-linecap="round" stroke-linejoin="round"/>
<path d="M 4.0 5.0 L 4.25 5.38 L 4.5 5.75 L 4.75 6.13 L 5.0 6.5 L 5.25 6.88 L 5.5 7.25 L 5.75 7.63 L 6.0 8.0 L 6.25 8.38 L 6.5 8.75 L 6.75 9.13 L 7.0 9.5 L 7.25 9.88 L 7.5 10.25 L 7.75 10.63 L 8.0 11.0 L 8.25 11.38 L 8.5 11.75 L 8.75 12.13 L 9.0 12.5 L 9.25 12.88 L 9.5 13.25 L 9.75 13.63 L 10.0 14.0 L 10.0 14.0 L 10.25 13.58 L 10.5 13.17 L 10.75 12.75 L 11.0 12.33 L 11.25 11.92 L 11.5 11.5 L 11.75 11.08 L 12.0 10.67 L 12.25 10.25 L 12.5 9.83 L 12.75 9.42 L 13.0 9.0 L 13.25 8.58 L 13.5 8.17 L 13.75 7.75 L 14.0 7.33 L 14.25 6.92 L 14.5 6.5 L 14.75 6.08 L 15.0 5.67 L 15.25 5.25 L 15.5 4.83 L 15.75 4.42 L 16.0 4.0" fill="none" stroke="#111" stroke-width="1.23" stroke-linecap="round" stroke-linejoin="round"/>
<path d="M 5.0 27.0 L 5.21 26.71 L 5.42 26.42 L 5.62 26.12 L 5.83 25.83 L 6.04 25.54 L 6.25 25.25 L 6.46 24.96 L 6.67 24.67 L 6.88 24.38 L 7.08 24.08 L 7.29 23.79 L 7.5 23.5 L 7.71 23.21 L 7.92 22.92 L 8.12 22.62 L 8.33 22.33 L 8.54 22.04 L 8.75 21.75 L 8.96 21.46 L 9.17 21.17 L 9.38 20.88 L 9.58 20.58 L 9.79 20.29 L 10.0 20.0 L 10.0 20.0 L 10.21 20.29 L 10.42 20.58 L 10.62 20.88 L 10.83 21.17 L 11.04 21.46 L 11.25 21.75 L 11.46 22.04 L 11.67 22.33 L 11.88 22.62 L 12.08 22.92 L 12.29 23.21 L 12.5 23.5 L 12.71 23.79 L 12.92 24.08 L 13.12 24.38 L 13.33 24.67 L 13.54 24.96 L 13.75 25.25 L 13.96 25.54 L 14.17 25.83 L 14.38 26.12 L 14.58 26.42 L 14.79 26.71 L 15.0 27.0" fill="none" stroke="#111" stroke-width="1.23" stroke-linecap="round" stroke-linejoin="round"/>
</svg>
