<?xml version="1.0" encoding="UTF-8"?>
<svg xmlns="http://www.w3.org/2000/svg" viewBox="0 0 26.43 33.00">
<path d="M 6.19 27.0 L 5.67 26.04 L 5.21 25.05 L 4.83 24.02 L 4.52 22.98 L 4.27 21.91 L 4.11 20.83 L 4.02 19.75 L 4.0 18.65 L 4.06 17.56 L 4.19 16.48 L 4.4 15.41 L 4.68 14.35 L 5.04 13.32 L 5.46 12.31 L 5.95 11.34 L 6.51 10.4 L 7.13 9.5 L 7.82 8.65 L 8.56 7.84 L 9.35 7.09 L 10.19 6.4 L 11.08 5.76 L 12.01 5.19 L 12.98 4.69 L 13.19 4.0 L 14.12 4.49 L 15.02 5.03 L 15.88 5.63 L 16.71 6.29 L 17.48 7.0 L 18.21 7.76 L 18.9 8.56 L 19.52 9.4 L 20.09 10.29 L 20.61 11.2 L 21.06 12.15 L 21.45 13.13 L 21.78 14.13 L 22.04 15.15 L 22.24 16.18 L 22.37 17.23 L 22.43 18.28 L 22.42 19.33 L 22.35 20.38 L 22.21 21.42 L 22.0 22.45 L 21.73 23.47 L 21.39 24.46 L 20.98 25.43" fill="none" stroke="#111" stroke-width="1.16" stroke-linecap="round" stroke-linejoin="round"/>
<path d="M 12.19 10.0 L 12.11 10.33 L 12.02 10.67 L 11.94 11.0 L 11.86 11.33 L 11.77 11.67 L 11.69 12.0 L 11.61 12.33 L 11.52 12.67 L 11.44 13.0 L 11.36 13.33 L 11.27 13.67 L 11.19 14.0 L 11.11 14.33 L 11.02 14.67 L 10.94 15.0 L 10.86 15.33 L 10.77 15.67 L 10.69 16.0 L 10.61 16.33 L 10.52 16.67 L 10.44 17.0 L 10.36 17.33 L 10.27 17.67 L 10.19 18.0 L 10.19 18.0 L 10.49 17.96 L 10.79 17.95 L 11.09 17.97 L 11.39 18.02 L 11.68 18.1 L 11.96 18.2 L 12.23 18.34 L 12.48 18.5 L 12.72 18.69 L 12.93 18.9 L 13.12 19.13 L 13.29 19.39 L 13.43 19.65 L 13.55 19.93 L 13.63 20.22 L 13.69 20.52 L 13.71 20.82 L 13.71 21.12 L 13.67 21.42 L 13.6 21.71 L 13.51 22.0 L 13.38 22.27 L 13.23 22.53 L 13.05 22.77 L 13.19 23.0 L 13.02 22.88 L 12.86 22.75 L 12.69 22.62 L 12.52 22.5 L 12.36 22.38 L 12.19 22.25 L 12.02 22.12 L 11.86 22.0 L 11.69 21.88 L 11.52 21.75 L 11.36 21.62 L 11.19 21.5 L 11.02 21.38 L 10.86 21.25 L 10.69 21.12 L 10.52 21.0 L 10.36 20.88 L 10.19 20.75 L 10.02 20.62 L 9.86 20.5 L 9.69 20.38 L 9.52 20.25 L 9.36 20.12 L 9.19 20.0 L 9.19 20.0 L 9.27 20.25 L 9.36 20.5 L 9.44 20.75 L 9.52 21.0 L 9.61 21.25 L 9.69 21.5 L 9.77 21.75 L 9.86 22.0 L 9.94 22.25 L 10.02 22.5 L 10.11 22.75 L 10.19 23.0 L 10.27 23.25 L 10.36 23.5 L 10.44 23.75 L 10.52 24.0 L 10.61 24.25 L 10.69 24.5 L 10.77 24.75 L 10.86 25.0 L 10.94 25.25 L 11.02 25.5 L 11.11 25.75 L 11.19 26.0" fill="none" stroke="#111" stroke-width="1.16" stroke-linecap="round" stroke-linejoin="round"/>
<path d="M 13.19 16.0 L 13.39 15.69 L 13.57 15.35 L 13.7 15.01 L 13.81 14.64 L 13.87 14.28 L 13.9 13.9 L 13.89 13.53 L 13.84 13.16 L 13.75 12.79 L 13.63 12.44 L 13.47 12.1 L 13.28 11.78 L 13.05 11.48 L 12.8 11.2 L 12.52 10.95 L 12.22 10.73 L 11.9 10.54 L 11.55 10.39 L 11.2 10.27 L 10.83 10.19 L 10.46 10.14 L 10.09 10.13 L 9.71 10.16 L 9.35 10.23 L 9.19 10.0 L 9.15 10.12 L 9.11 10.25 L 9.06 10.38 L 9.02 10.5 L 8.98 10.62 L 8.94 10.75 L 8.9 10.88 L 8.86 11.0 L 8.81 11.12 L 8.77 11.25 L 8.73 11.38 L 8.69 11.5 L 8.65 11.62 L 8.61 11.75 L 8.56 11.88 L 8.52 12.0 L 8.48 12.12 L 8.44 12.25 L 8.4 12.38 L 8.36 12.5 L 8.31 12.62 L 8.27 12.75 L 8.23 12.88 L 8.19 13.0 L 8.19 13.0 L 8.44 13.08 L 8.69 13.17 L 8.94 13.25 L 9.19 13.33 L 9.44 13.42 L 9.69 13.5 L 9.94 13.58 L 10.19 13.67 L 10.44 13.75 L 10.69 13.83 L 10.94 13.92 L 11.19 14.0 L 11.44 14.08 L 11.69 14.17 L 11.94 14.25 L 12.19 14.33 L 12.44 14.42 L 12.69 14.5 L 12.94 14.58 L 13.19 14.67 L 13.44 14.75 L 13.69 14.83 L 13.94 14.92 L 14.19 15.0" fill="none" stroke="#111" stroke-width="1.16" stroke-linecap="round" stroke-linejoin="round"/>
<path d="M 16.19 10.0 L 16.19 10.79 L 16.19 11.58 L 16.19 12.38 L 16.19 13.17 L 16.19 13.96 L 16.19 14.75 L 16.19 15.54 L 16.19 16.33 L 16.19 17.12 L 16.19 17.92 L 16.19 18.71 L 16.19 19.5 L 16.19 20.29 L 16.19 21.08 L 16.19 21.88 L 16.19 22.67 L 16.19 23.46 L 16.19 24.25 L 16.19 25.04 L 16.19 25.83 L 16.19 26.62 L 16.19 27.42 L 16.19 28.21 L 16.19 29.0" fill="none" stroke="#111" stroke-width="1.16" stroke-linecap="round" stroke-linejoin="round"/>
<path d="M 14.19 12.0 L 14.27 12.08 L 14.36 12.17 L 14.44 12.25 L 14.52 12.33 L 14.61 12.42 L 14.69 12.5 L 14.77 12.58 L 14.86 12.67 L 14.94 12.75 L 15.02 12.83 L 15.11 12.92 L 15.19 13.0 L 15.27 13.08 L 15.36 13.17 L 15.44 13.25 L 15.52 13.33 L 15.61 13.42 L 15.69 13.5 L 15.77 13.58 L 15.86 13.67 L 15.94 13.75 L 16.02 13.83 L 16.11 13.92 L 16.19 14.0 L 16.19 14.0 L 16.31 13.88 L 16.44 13.75 L 16.56 13.62 L 16.69 13.5 L 16.81 13.38 L 16.94 13.25 L 17.06 13.12 L 17.19 13.0 L 17.31 12.88 L 17.44 12.75 L 17.56 12.62 L 17.69 12.5 L 17.81 12.38 L 17.94 12.25 L 18.06 12.12 L 18.19 12.0 L 18.31 11.88 L 18.44 11.75 L 18.56 11.62 L 18.69 11.5 L 18.81 11.38 L 18.94 11.25 L 19.06 11.12 L 19.19 11.0" fill="none" stroke="#111" stroke-width="1.16" stroke-linecap="round" stroke-linejoin="round"/>
<path d="M 13.19 19.0 L 13.31 18.88 L 13.44 18.75 L 13.56 18.62 L 13.69 18.5 L 13.81 18.38 L 13.94 18.25 L 14.06 18.12 L 14.19 18.0 L 14.31 17.88 L 14.44 17.75 L 14.56 17.62 L 14.69 17.5 L 14.81 17.38 L 14.94 17.25 L 15.06 17.12 L 15.19 17.0 L 15.31 16.88 L 15.44 16.75 L 15.56 16.62 L 15.69 16.5 L 15.81 16.38 L 15.94 16.25 L 16.06 16.12 L 16.19 16.0" fill="none" stroke="#111" stroke-width="1.16" stroke-linecap="round" stroke-linejoin="round"/>
<path d="M 16.19 17.0 L 16.31 17.12 L 16.44 17.25 L 16.56 17.38 L 16.69 17.5 L 16.81 17.62 L 16.94 17.75 L 17.06 17.88 L 17.19 18.0 L 17.31 18.12 L 17.44 18.25 L 17.56 18.38 L 17.69 18.5 L 17.81 18.62 L 17.94 18.75 L 18.06 18.88 L 18.19 19.0 L 18.31 19.12 L 18.44 19.25 L 18.56 19.38 L 18.69 19.5 L 18.81 19.62 L 18.94 19.75 L 19.06 19.88 L 19.19 20.0" fill="none" stroke="#111" stroke-width="1.16" stroke-linecap="round" stroke-linejoin="round"/>
</svg>
