<?xml version="1.0" encoding="UTF-8"?>
<svg xmlns="http://www.w3.org/2000/svg" viewBox="0 0 24.00 41.00">
<path d="M 11.0 4.0 L 11.0 5.38 L 11.0 6.75 L 11.0 8.12 L 11.0 9.5 L 11.0 10.88 L 11.0 12.25 L 11.0 13.62 L 11.0 15.0 L 11.0 16.38 L 11.0 17.75 L 11.0 19.12 L 11.0 20.5 L 11.0 21.88 L 11.0 23.25 L 11.0 24.62 L 11.0 26.0 L 11.0 27.38 L 11.0 28.75 L 11.0 30.12 L 11.0 31.5 L 11.0 32.88 L 11.0 34.25 L 11.0 35.62 L 11.0 37.0" fill="none" stroke="#111" stroke-width="1.44" stroke-linecap="round" stroke-linejoin="round"/>
<path d="M 4.0 5.0 L 4.29 5.46 L 4.58 5.92 L 4.88 6.38 L 5.17 6.83 L 5.46 7.29 L 5.75 7.75 L 6.04 8.21 L 6.33 8.67 L 6.62 9.12 L 6.92 9.58 L 7.21 10.04 L 7.5 10.5 L 7.79 10.96 L 8.08 11.42 L 8.38 11.88 L 8.67 12.33 L 8.96 12.79 L 9.25 13.25 L 9.54 13.71 L 9.83 14.17 L 10.12 14.62 L 10.42 15.08 L 10.71 15.54 L 11.0 16.0" fill="none" stroke="#111" stroke-width="1.44" stroke-linecap="round" stroke-linejoin="round"/>
<path d="M 19.0 11.0 L 18.67 11.38 L 18.33 11.75 L 18.0 12.12 L 17.67 12.5 L 17.33 12.88 L 17.0 13.25 L 16.67 13.62 L 16.33 14.0 L 16.0 14.38 L 15.67 14.75 L 15.33 15.12 L 15.0 15.5 L 14.67 15.88 L 14.33 16.25 L 14.0 16.62 L 13.67 17.0 L 13.33 17.38 L 13.0 17.75 L 12.67 18.12 L 12.33 18.5 L 12.0 18.88 L 11.67 19.25 L 11.33 19.62 L 11.0 20.0" fill="none" stroke="#111" stroke-width="1.44" stroke-linecap="round" stroke-linejoin="round"/>
<path d="M 11.0 26.0 L 10.71 26.29 L 10.42 26.58 L 10.12 26.88 L 9.83 27.17 L 9.54 27.46 L 9.25 27.75 L 8.96 28.04 L 8.67 28.33 L 8.38 28.62 L 8.08 28.92 L 7.79 29.21 L 7.5 29.5 L 7.21 29.79 L 6.92 30.08 L 6.62 30.38 L 6.33 30.67 L 6.04 30.96 L 5.75 31.25 L 5.46 31.54 L 5.17 31.83 L 4.88 32.12 L 4.58 32.42 L 4.29 32.71 L 4.0 33.0" fill="none" stroke="#111" stroke-width="1.44" stroke-linecap="round" stroke-linejoin="round"/>
<path d="M 11.0 25.0 L 11.38 25.33 L 11.75 25.67 L 12.12 26.0 L 12.5 26.33 L 12.88 26.67 L 13.25 27.0 L 13.62 27.33 L 14.0 27.67 L 14.38 28.0 L 14.75 28.33 L 15.12 28.67 L 15.5 29.0 L 15.88 29.33 L 16.25 29.67 L 16.62 30.0 L 17.0 30.33 L 17.38 30.67 L 17.75 31.0 L 18.12 31.33 L 18.5 31.67 L 18.88 32.0 L 19.25 32.33 L 19.62 32.67 L 20.0 33.0" fill="none" stroke="#111" stroke-width="1.44" stroke-linecap="round" stroke-linejoin="round"/>
<path d="M 4.0 11.0 L 4.04 11.25 L 4.08 11.5 L 4.12 11.75 L 4.17 12.0 L 4.21 12.25 L 4.25 12.5 L 4.29 12.75 L 4.33 13.0 L 4.38 13.25 L 4.42 13.5 L 4.46 13.75 L 4.5 14.0 L 4.54 14.25 L 4.58 14.5 L 4.62 14.75 L 4.67 15.0 L 4.71 15.25 L 4.75 15.5 L 4.79 15.75 L 4.83 16.0 L 4.88 16.25 L 4.92 16.5 L 4.96 16.75 L 5.0 17.0" fill="none" stroke="#111" stroke-width="1.44" stroke-linecap="round" stroke-linejoin="round"/>
<path d="M 15.0 4.0 L 15.0 4.25 L 15.0 4.5 L 15.0 4.75 L 15.0 5.0 L 15.0 5.25 L 15.0 5.5 L 15.0 5.75 L 15.0 6.0 L 15.0 6.25 L 15.0 6.5 L 15.0 6.75 L 15.0 7.0 L 15.0 7.25 L 15.0 7.5 L 15.0 7.75 L 15.0 8.0 L 15.0 8.25 L 15.0 8.5 L 15.0 8.75 L 15.0 9.0 L 15.0 9.25 L 15.0 9.5 L 15.0 9.75 L 15.0 10.0" fill="none" stroke="#111" stroke-width="1.44" stroke-linecap="round" stroke-linejoin="round"/>
<path d="M 6.0 19.0 L 6.0 19.29 L 6.0 19.58 L 6.0 19.88 L 6.0 20.17 L 6.0 20.46 L 6.0 20.75 L 6.0 21.04 L 6.0 21.33 L 6.0 21.62 L 6.0 21.92 L 6.0 22.21 L 6.0 22.5 L 6.0 22.79 L 6.0 23.08 L 6.0 23.38 L 6.0 23.67 L 6.0 23.96 L 6.0 24.25 L 6.0 24.54 L 6.0 24.83 L 6.0 25.12 L 6.0 25.42 L 6.0 25.71 L 6.0 26.0" fill="none" stroke="#111" stroke-width="1.44" stroke-linecap="round" stroke-linejoin="round"/>
<path d="M 15.0 19.0 L 15.04 19.29 L 15.08 19.58 L 15.12 19.88 L 15.17 20.17 L 15.21 20.46 L 15.25 20.75 L 15.29 21.04 L 15.33 21.33 L 15.38 21.62 L 15.42 21.92 L 15.46 22.21 L 15.5 22.5 L 15.54 22.79 L 15.58 23.08 L 15.62 23.38 L 15.67 23.67 L 15.71 23.96 L 15.75 24.25 L 15.79 24.54 L 15.83 24.83 L 15.88 25.12 L 15.92 25.42 L 15.96 25.71 L 16.0 26.0" fill="none" stroke="#111" stroke-width="1.44" stroke-linecap="round" stroke-linejoin="round"/>
</svg>
