<?xml version="1.0" encoding="UTF-8"?>
<svg xmlns="http://www.w3.org/2000/svg" viewBox="0 0 20.00 32.79">
<path d="M 6.0 6.0 L 6.17 6.17 L 6.33 6.33 L 6.5 6.5 L 6.67 6.67 L 6.83 6.83 L 7.0 7.0 L 7.17 7.17 L 7.33 7.33 L 7.5 7.5 L 7.67 7.67 L 7.83 7.83 L 8.0 8.0 L 8.17 8.17 L 8.33 8.33 L 8.5 8.5 L 8.67 8.67 L 8.83 8.83 L 9.0 9.0 L 9.17 9.17 L 9.33 9.33 L 9.5 9.5 L 9.67 9.67 L 9.83 9.83 L 10.0 10.0 L 10.0 10.0 L 10.25 9.75 L 10.5 9.5 L 10.75 9.25 L 11.0 9.0 L 11.25 8.75 L 11.5 8.5 L 11.75 8.25 L 12.0 8.0 L 12.25 7.75 L 12.5 7.5 L 12.75 7.25 L 13.0 7.0 L 13.25 6.75 L 13.5 6.5 L 13.75 6.25 L 14.0 6.0 L 14.25 5.75 L 14.5 5.5 L 14.75 5.25 L 15.0 5.0 L 15.25 4.75 L 15.5 4.5 L 15.75 4.25 L 16.0 4.0" fill="none" stroke="#111" stroke-width="1.15" stroke-linecap="round" stroke-linejoin="round"/>
<path d="M 10.0 5.0 L 10.28 5.5 L 10.52 6.02 L 10.72 6.57 L 10.88 7.12 L 10.98 7.69 L 11.04 8.26 L 11.06 8.84 L 11.02 9.41 L 10.94 9.98 L 10.81 10.54 L 10.64 11.09 L 10.43 11.63 L 10.17 12.14 L 9.87 12.63 L 9.53 13.1 L 9.15 13.53 L 8.74 13.94 L 8.29 14.31 L 7.82 14.64 L 7.33 14.93 L 6.81 15.18 L 6.27 15.39 L 5.72 15.55 L 5.15 15.66" fill="none" stroke="#111" stroke-width="1.15" stroke-linecap="round" stroke-linejoin="round"/>
<path d="M 4.0 13.0 L 4.32 13.6 L 4.62 14.21 L 4.89 14.83 L 5.13 15.46 L 5.35 16.1 L 5.54 16.75 L 5.7 17.41 L 5.83 18.08 L 5.93 18.75 L 6.0 19.42 L 6.05 20.1 L 6.06 20.78 L 6.05 21.45 L 6.0 22.13 L 5.93 22.8 L 5.83 23.47 L 5.7 24.14 L 5.54 24.8 L 5.35 25.45 L 5.13 26.09 L 4.89 26.73 L 4.62 27.35 L 4.32 27.96 L 4.0 28.55" fill="none" stroke="#111" stroke-width="1.15" stroke-linecap="round" stroke-linejoin="round"/>
<path d="M 10.0 13.0 L 10.17 13.17 L 10.33 13.33 L 10.5 13.5 L 10.67 13.67 L 10.83 13.83 L 11.0 14.0 L 11.17 14.17 L 11.33 14.33 L 11.5 14.5 L 11.67 14.67 L 11.83 14.83 L 12.0 15.0 L 12.17 15.17 L 12.33 15.33 L 12.5 15.5 L 12.67 15.67 L 12.83 15.83 L 13.0 16.0 L 13.17 16.17 L 13.33 16.33 L 13.5 16.5 L 13.67 16.67 L 13.83 16.83 L 14.0 17.0" fill="none" stroke="#111" stroke-width="1.15" stroke-linecap="round" stroke-linejoin="round"/>
<path d="M 6.0 17.0 L 6.33 17.0 L 6.67 17.0 L 7.0 17.0 L 7.33 17.0 L 7.67 17.0 L 8.0 17.0 L 8.33 17.0 L 8.67 17.0 L 9.0 17.0 L 9.33 17.0 L 9.67 17.0 L 10.0 17.0 L 10.33 17.0 L 10.67 17.0 L 11.0 17.0 L 11.33 17.0 L 11.67 17.0 L 12.0 17.0 L 12.33 17.0 L 12.67 17.0 L 13.0 17.0 L 13.33 17.0 L 13.67 17.0 L 14.0 17.0" fill="none" stroke="#111" stroke-width="1.15" stroke-linecap="round" stroke-linejoin="round"/>
<path d="M 16.0 11.0 L 15.66 11.69 L 15.34 12.39 L 15.06 13.11 L 14.8 13.83 L 14.57 14.57 L 14.37 15.32 L 14.21 16.07 L 14.07 16.82 L 13.96 17.59 L 13.88 18.35 L 13.84 19.12 L 13.82 19.89 L 13.84 20.66 L 13.88 21.43 L 13.96 22.2 L 14.07 22.96 L 14.21 23.72 L 14.37 24.47 L 14.57 25.22 L 14.8 25.95 L 15.06 26.68 L 15.34 27.39 L 15.66 28.1 L 16.0 28.79" fill="none" stroke="#111" stroke-width="1.15" stroke-linecap="round" stroke-linejoin="round"/>
<path d="M 9.0 17.0 L 9.04 17.38 L 9.08 17.75 L 9.12 18.12 L 9.17 18.5 L 9.21 18.88 L 9.25 19.25 L 9.29 19.62 L 9.33 20.0 L 9.38 20.38 L 9.42 20.75 L 9.46 21.12 L 9.5 21.5 L 9.54 21.88 L 9.58 22.25 L 9.62 22.62 L 9.67 23.0 L 9.71 23.38 L 9.75 23.75 L 9.79 24.12 L 9.83 24.5 L 9.88 24.88 L 9.92 25.25 L 9.96 25.62 L 10.0 26.0" fill="none" stroke="#111" stroke-width="1.15" stroke-linecap="round" stroke-linejoin="round"/>
<path d="M 5.0 25.0 L 5.42 25.0 L 5.83 25.0 L 6.25 25.0 L 6.67 25.0 L 7.08 25.0 L 7.5 25.0 L 7.92 25.0 L 8.33 25.0 L 8.75 25.0 L 9.17 25.0 L 9.58 25.0 L 10.0 25.0 L 10.42 25.0 L 10.83 25.0 L 11.25 25.0 L 11.67 25.0 L 12.08 25.0 L 12.5 25.0 L 12.92 25.0 L 13.33 25.0 L 13.75 25.0 L 14.17 25.0 L 14.58 25.0 L 15.0 25.0" fill="none" stroke="#111" stroke-width="1.15" stroke-linecap="round" stroke-linejoin="round"/>
</svg>
