<?xml version="1.0" encoding="UTF-8"?>
<svg xmlns="http://www.w3.org/2000/svg" viewBox="0 0 23.00 30.00">
<path d="M 4.0 5.0 L 4.04 5.83 L 4.08 6.67 L 4.12 7.5 L 4.17 8.33 L 4.21 9.17 L 4.25 10.0 L 4.29 10.83 L 4.33 11.67 L 4.38 12.5 L 4.42 13.33 L 4.46 14.17 L 4.5 15.0 L 4.54 15.83 L 4.58 16.67 L 4.62 17.5 L 4.67 18.33 L 4.71 19.17 L 4.75 20.0 L 4.79 20.83 L 4.83 21.67 L 4.88 22.5 L 4.92 23.33 L 4.96 24.17 L 5.0 25.0" fill="none" stroke="#111" stroke-width="1.05" stroke-linecap="round" stroke-linejoin="round"/>
<path d="M 18.0 4.0 L 18.04 4.92 L 18.08 5.83 L 18.12 6.75 L 18.17 7.67 L 18.21 8.58 L 18.25 9.5 L 18.29 10.42 L 18.33 11.33 L 18.38 12.25 L 18.42 13.17 L 18.46 14.08 L 18.5 15.0 L 18.54 15.92 L 18.58 16.83 L 18.62 17.75 L 18.67 18.67 L 18.71 19.58 L 18.75 20.5 L 18.79 21.42 L 18.83 22.33 L 18.88 23.25 L 18.92 24.17 L 18.96 25.08 L 19.0 26.0" fill="none" stroke="#111" stroke-width="1.05" stroke-linecap="round" stroke-linejoin="round"/>
<path d="M 4.0 6.0 L 4.58 6.29 L 5.17 6.58 L 5.75 6.88 L 6.33 7.17 L 6.92 7.46 L 7.5 7.75 L 8.08 8.04 L 8.67 8.33 L 9.25 8.62 L 9.83 8.92 L 10.42 9.21 L 11.0 9.5 L 11.58 9.79 L 12.17 10.08 L 12.75 10.38 L 13.33 10.67 L 13.92 10.96 L 14.5 11.25 L 15.08 11.54 L 15.67 11.83 L 16.25 12.12 L 16.83 12.42 L 17.42 12.71 L 18.0 13.0" fill="none" stroke="#111" stroke-width="1.05" stroke-linecap="round" stroke-linejoin="round"/>
<path d="M 4.0 11.0 L 4.58 11.33 L 5.17 11.67 L 5.75 12.0 L 6.33 12.33 L 6.92 12.67 L 7.5 13.0 L 8.08 13.33 L 8.67 13.67 L 9.25 14.0 L 9.83 14.33 L 10.42 14.67 L 11.0 15.0 L 11.58 15.33 L 12.17 15.67 L 12.75 16.0 L 13.33 16.33 L 13.92 16.67 L 14.5 17.0 L 15.08 17.33 L 15.67 17.67 L 16.25 18.0 L 16.83 18.33 L 17.42 18.67 L 18.0 19.0" fill="none" stroke="#111" stroke-width="1.05" stroke-linecap="round" stroke-linejoin="round"/>
<path d="M 4.0 18.0 L 4.58 18.25 L 5.17 18.5 L 5.75 18.75 L 6.33 19.0 L 6.92 19.25 L 7.5 19.5 L 8.08 19.75 L 8.67 20.0 L 9.25 20.25 L 9.83 20.5 L 10.42 20.75 L 11.0 21.0 L 11.58 21.25 L 12.17 21.5 L 12.75 21.75 L 13.33 22.0 L 13.92 22.25 L 14.5 22.5 L 15.08 22.75 L 15.67 23.0 L 16.25 23.25 L 16.83 23.5 L 17.42 23.75 L 18.0 24.0" fill="none" stroke="#111" stroke-width="1.05" stroke-linecap="round" stroke-linejoin="round"/>
<path d="M 18.0 7.0 L 17.46 7.17 L 16.92 7.33 L 16.38 7.5 L 15.83 7.67 L 15.29 7.83 L 14.75 8.0 L 14.21 8.17 L 13.67 8.33 L 13.12 8.5 L 12.58 8.67 L 12.04 8.83 L 11.5 9.0 L 10.96 9.17 L 10.42 9.33 L 9.88 9.5 L 9.33 9.67 L 8.79 9.83 L 8.25 10.0 L 7.71 10.17 L 7.17 10.33 L 6.62 10.5 L 6.08 10.67 L 5.54 10.83 L 5.0 11.0" fill="none" stroke="#111" stroke-width="1.05" stroke-linecap="round" stroke-linejoin="round"/>
<path d="M 18.0 13.0 L 17.42 13.21 L 16.83 13.42 L 16.25 13.62 L 15.67 13.83 L 15.08 14.04 L 14.5 14.25 L 13.92 14.46 L 13.33 14.67 L 12.75 14.88 L 12.17 15.08 L 11.58 15.29 L 11.0 15.5 L 10.42 15.71 L 9.83 15.92 L 9.25 16.12 L 8.67 16.33 L 8.08 16.54 L 7.5 16.75 L 6.92 16.96 L 6.33 17.17 L 5.75 17.38 L 5.17 17.58 L 4.58 17.79 L 4.0 18.0" fill="none" stroke="#111" stroke-width="1.05" stroke-linecap="round" stroke-linejoin="round"/>
<path d="M 18.0 19.0 L 17.46 19.21 L 16.92 19.42 L 16.38 19.62 L 15.83 19.83 L 15.29 20.04 L 14.75 20.25 L 14.21 20.46 L 13.67 20.67 L 13.12 20.88 L 12.58 21.08 L 12.04 21.29 L 11.5 21.5 L 10.96 21.71 L 10.42 21.92 L 9.88 22.12 L 9.33 22.33 L 8.79 22.54 L 8.25 22.75 L 7.71 22.96 L 7.17 23.17 L 6.63 23.38 L 6.08 23.58 L 5.54 23.79 L 5.0 24.0" fill="none" stroke="#111" stroke-width="1.05" stroke-linecap="round" stroke-linejoin="round"/>
</svg>
