<?xml version="1.0" encoding="UTF-8"?>
<svg xmlns="http://www.w3.org/2000/svg" viewBox="0 0 25.00 35.71">
<path d="M 8.0 5.0 L 7.83 5.38 L 7.67 5.75 L 7.5 6.12 L 7.33 6.5 L 7.17 6.88 L 7.0 7.25 L 6.83 7.62 L 6.67 8.0 L 6.5 8.38 L 6.33 8.75 L 6.17 9.12 L 6.0 9.5 L 5.83 9.88 L 5.67 10.25 L 5.5 10.62 L 5.33 11.0 L 5.17 11.38 L 5.0 11.75 L 4.83 12.12 L 4.67 12.5 L 4.5 12.88 L 4.33 13.25 L 4.17 13.62 L 4.0 14.0" fill="none" stroke="#111" stroke-width="1.25" stroke-linecap="round" stroke-linejoin="round"/>
<path d="M 14.0 4.0 L 14.29 4.46 L 14.58 4.92 L 14.88 5.38 L 15.17 5.83 L 15.46 6.29 L 15.75 6.75 L 16.04 7.21 L 16.33 7.67 L 16.62 8.12 L 16.92 8.58 L 17.21 9.04 L 17.5 9.5 L 17.79 9.96 L 18.08 10.42 L 18.38 10.88 L 18.67 11.33 L 18.96 11.79 L 19.25 12.25 L 19.54 12.71 L 19.83 13.17 L 20.12 13.62 L 20.42 14.08 L 20.71 14.54 L 21.0 15.0" fill="none" stroke="#111" stroke-width="1.25" stroke-linecap="round" stroke-linejoin="round"/>
<path d="M 9.0 6.0 L 9.33 6.17 L 9.67 6.33 L 10.0 6.5 L 10.33 6.67 L 10.67 6.83 L 11.0 7.0 L 11.33 7.17 L 11.67 7.33 L 12.0 7.5 L 12.33 7.67 L 12.67 7.83 L 13.0 8.0 L 13.33 8.17 L 13.67 8.33 L 14.0 8.5 L 14.33 8.67 L 14.67 8.83 L 15.0 9.0 L 15.33 9.17 L 15.67 9.33 L 16.0 9.5 L 16.33 9.67 L 16.67 9.83 L 17.0 10.0" fill="none" stroke="#111" stroke-width="1.25" stroke-linecap="round" stroke-linejoin="round"/>
<path d="M 7.0 8.0 L 7.54 8.21 L 8.08 8.42 L 8.62 8.62 L 9.17 8.83 L 9.71 9.04 L 10.25 9.25 L 10.79 9.46 L 11.33 9.67 L 11.88 9.88 L 12.42 10.08 L 12.96 10.29 L 13.5 10.5 L 14.04 10.71 L 14.58 10.92 L 15.12 11.12 L 15.67 11.33 L 16.21 11.54 L 16.75 11.75 L 17.29 11.96 L 17.83 12.17 L 18.38 12.38 L 18.92 12.58 L 19.46 12.79 L 20.0 13.0" fill="none" stroke="#111" stroke-width="1.25" stroke-linecap="round" stroke-linejoin="round"/>
<path d="M 15.0 6.0 L 14.71 6.12 L 14.42 6.25 L 14.12 6.38 L 13.83 6.5 L 13.54 6.62 L 13.25 6.75 L 12.96 6.88 L 12.67 7.0 L 12.38 7.12 L 12.08 7.25 L 11.79 7.38 L 11.5 7.5 L 11.21 7.62 L 10.92 7.75 L 10.62 7.88 L 10.33 8.0 L 10.04 8.12 L 9.75 8.25 L 9.46 8.38 L 9.17 8.5 L 8.88 8.62 L 8.58 8.75 L 8.29 8.88 L 8.0 9.0" fill="none" stroke="#111" stroke-width="1.25" stroke-linecap="round" stroke-linejoin="round"/>
<path d="M 16.0 8.0 L 15.67 8.25 L 15.33 8.5 L 15.0 8.75 L 14.67 9.0 L 14.33 9.25 L 14.0 9.5 L 13.67 9.75 L 13.33 10.0 L 13.0 10.25 L 12.67 10.5 L 12.33 10.75 L 12.0 11.0 L 11.67 11.25 L 11.33 11.5 L 11.0 11.75 L 10.67 12.0 L 10.33 12.25 L 10.0 12.5 L 9.67 12.75 L 9.33 13.0 L 9.0 13.25 L 8.67 13.5 L 8.33 13.75 L 8.0 14.0" fill="none" stroke="#111" stroke-width="1.25" stroke-linecap="round" stroke-linejoin="round"/>
<path d="M 17.0 18.0 L 16.67 17.88 L 16.33 17.75 L 16.0 17.62 L 15.67 17.5 L 15.33 17.38 L 15.0 17.25 L 14.67 17.12 L 14.33 17.0 L 14.0 16.88 L 13.67 16.75 L 13.33 16.62 L 13.0 16.5 L 12.67 16.38 L 12.33 16.25 L 12.0 16.12 L 11.67 16.0 L 11.33 15.88 L 11.0 15.75 L 10.67 15.62 L 10.33 15.5 L 10.0 15.38 L 9.67 15.25 L 9.33 15.12 L 9.0 15.0 L 9.0 15.0 L 9.07 15.37 L 9.15 15.73 L 9.26 16.09 L 9.38 16.44 L 9.52 16.78 L 9.68 17.12 L 9.86 17.45 L 10.05 17.77 L 10.26 18.07 L 10.49 18.37 L 10.73 18.65 L 10.99 18.92 L 11.26 19.18 L 11.54 19.42 L 11.84 19.65 L 12.15 19.86 L 12.46 20.05 L 12.79 20.23 L 13.13 20.39 L 13.47 20.53 L 13.82 20.65 L 14.18 20.76 L 14.54 20.84 L 14.91 20.91 L 15.0 21.0 L 15.08 21.33 L 15.17 21.67 L 15.25 22.0 L 15.33 22.33 L 15.42 22.67 L 15.5 23.0 L 15.58 23.33 L 15.67 23.67 L 15.75 24.0 L 15.83 24.33 L 15.92 24.67 L 16.0 25.0 L 16.08 25.33 L 16.17 25.67 L 16.25 26.0 L 16.33 26.33 L 16.42 26.67 L 16.5 27.0 L 16.58 27.33 L 16.67 27.67 L 16.75 28.0 L 16.83 28.33 L 16.92 28.67 L 17.0 29.0" fill="none" stroke="#111" stroke-width="1.25" stroke-linecap="round" stroke-linejoin="round"/>
<path d="M 13.0 16.0 L 12.81 16.33 L 12.61 16.67 L 12.41 17.0 L 12.2 17.32 L 11.99 17.64 L 11.77 17.96 L 11.55 18.27 L 11.32 18.59 L 11.08 18.89 L 10.84 19.2 L 10.6 19.49 L 10.35 19.79 L 10.1 20.08 L 9.84 20.37 L 9.58 20.65 L 9.31 20.93 L 9.04 21.2 L 8.76 21.47 L 8.48 21.74 L 8.19 22.0 L 7.9 22.25 L 7.61 22.5 L 7.31 22.75 L 7.01 22.99 L 7.0 23.0 L 7.0 23.25 L 7.0 23.5 L 7.0 23.75 L 7.0 24.0 L 7.0 24.25 L 7.0 24.5 L 7.0 24.75 L 7.0 25.0 L 7.0 25.25 L 7.0 25.5 L 7.0 25.75 L 7.0 26.0 L 7.0 26.25 L 7.0 26.5 L 7.0 26.75 L 7.0 27.0 L 7.0 27.25 L 7.0 27.5 L 7.0 27.75 L 7.0 28.0 L 7.0 28.25 L 7.0 28.5 L 7.0 28.75 L 7.0 29.0" fill="none" stroke="#111" stroke-width="1.25" stroke-linecap="round" stroke-linejoin="round"/>
<path d="M 15.0 21.0 L 14.57 21.28 L 14.16 21.58 L 13.77 21.91 L 13.41 22.27 L 13.06 22.64 L 12.74 23.04 L 12.45 23.46 L 12.18 23.89 L 11.94 24.34 L 11.73 24.81 L 11.55 25.28 L 11.4 25.77 L 11.28 26.27 L 11.2 26.77 L 11.14 27.28 L 11.12 27.79 L 11.13 28.3 L 11.17 28.81 L 11.24 29.31 L 11.35 29.81 L 11.49 30.3 L 11.65 30.78 L 11.85 31.25 L 12.08 31.71" fill="none" stroke="#111" stroke-width="1.25" stroke-linecap="round" stroke-linejoin="round"/>
</svg>
