<?xml version="1.0" encoding="UTF-8"?>
<svg xmlns="http://www.w3.org/2000/svg" viewBox="0 0 29.80 35.00">
<path d="M 10.82 4.0 L 10.78 5.12 L 10.74 6.25 L 10.69 7.38 L 10.65 8.5 L 10.61 9.62 L 10.57 10.75 L 10.53 11.88 L 10.49 13.0 L 10.44 14.12 L 10.4 15.25 L 10.36 16.38 L 10.32 17.5 L 10.28 18.62 L 10.24 19.75 L 10.19 20.88 L 10.15 22.0 L 10.11 23.12 L 10.07 24.25 L 10.03 25.38 L 9.99 26.5 L 9.94 27.62 L 9.9 28.75 L 9.86 29.88 L 9.82 31.0" fill="none" stroke="#111" stroke-width="1.23" stroke-linecap="round" stroke-linejoin="round"/>
<path d="M 5.82 29.0 L 4.85 27.2 L 4.24 25.26 L 4.0 23.23 L 4.14 21.2 L 4.66 19.22 L 5.53 17.38 L 6.74 15.74 L 8.23 14.34 L 9.95 13.25 L 11.85 12.5 L 13.85 12.11 L 15.89 12.1 L 17.89 12.48 L 19.79 13.22 L 21.52 14.3 L 23.02 15.69 L 24.23 17.33 L 25.12 19.16 L 25.65 21.13 L 25.8 23.17 L 25.57 25.19 L 24.97 27.14 L 24.02 28.95 L 22.74 30.54" fill="none" stroke="#111" stroke-width="1.23" stroke-linecap="round" stroke-linejoin="round"/>
</svg>
