<?xml version="1.0" encoding="UTF-8"?>
<svg xmlns="http://www.w3.org/2000/svg" viewBox="0 0 19.91 31.00">
<path d="M 4.0 7.0 L 4.0 7.29 L 4.0 7.58 L 4.0 7.88 L 4.0 8.17 L 4.0 8.46 L 4.0 8.75 L 4.0 9.04 L 4.0 9.33 L 4.0 9.62 L 4.0 9.92 L 4.0 10.21 L 4.0 10.5 L 4.0 10.79 L 4.0 11.08 L 4.0 11.38 L 4.0 11.67 L 4.0 11.96 L 4.0 12.25 L 4.0 12.54 L 4.0 12.83 L 4.0 13.12 L 4.0 13.42 L 4.0 13.71 L 4.0 14.0" fill="none" stroke="#111" stroke-width="1.09" stroke-linecap="round" stroke-linejoin="round"/>
<path d="M 4.0 7.0 L 4.33 7.0 L 4.67 7.0 L 5.0 7.0 L 5.33 7.0 L 5.67 7.0 L 6.0 7.0 L 6.33 7.0 L 6.67 7.0 L 7.0 7.0 L 7.33 7.0 L 7.67 7.0 L 8.0 7.0 L 8.33 7.0 L 8.67 7.0 L 9.0 7.0 L 9.33 7.0 L 9.67 7.0 L 10.0 7.0 L 10.33 7.0 L 10.67 7.0 L 11.0 7.0 L 11.33 7.0 L 11.67 7.0 L 12.0 7.0 L 12.0 7.0 L 12.0 7.29 L 12.0 7.58 L 12.0 7.88 L 12.0 8.17 L 12.0 8.46 L 12.0 8.75 L 12.0 9.04 L 12.0 9.33 L 12.0 9.62 L 12.0 9.92 L 12.0 10.21 L 12.0 10.5 L 12.0 10.79 L 12.0 11.08 L 12.0 11.38 L 12.0 11.67 L 12.0 11.96 L 12.0 12.25 L 12.0 12.54 L 12.0 12.83 L 12.0 13.12 L 12.0 13.42 L 12.0 13.71 L 12.0 14.0" fill="none" stroke="#111" stroke-width="1.09" stroke-linecap="round" stroke-linejoin="round"/>
<path d="M 4.0 14.0 L 4.33 14.0 L 4.67 14.0 L 5.0 14.0 L 5.33 14.0 L 5.67 14.0 L 6.0 14.0 L 6.33 14.0 L 6.67 14.0 L 7.0 14.0 L 7.33 14.0 L 7.67 14.0 L 8.0 14.0 L 8.33 14.0 L 8.67 14.0 L 9.0 14.0 L 9.33 14.0 L 9.67 14.0 L 10.0 14.0 L 10.33 14.0 L 10.67 14.0 L 11.0 14.0 L 11.33 14.0 L 11.67 14.0 L 12.0 14.0" fill="none" stroke="#111" stroke-width="1.09" stroke-linecap="round" stroke-linejoin="round"/>
<path d="M 4.0 10.0 L 4.33 10.0 L 4.67 10.0 L 5.0 10.0 L 5.33 10.0 L 5.67 10.0 L 6.0 10.0 L 6.33 10.0 L 6.67 10.0 L 7.0 10.0 L 7.33 10.0 L 7.67 10.0 L 8.0 10.0 L 8.33 10.0 L 8.67 10.0 L 9.0 10.0 L 9.33 10.0 L 9.67 10.0 L 10.0 10.0 L 10.33 10.0 L 10.67 10.0 L 11.0 10.0 L 11.33 10.0 L 11.67 10.0 L 12.0 10.0" fill="none" stroke="#111" stroke-width="1.09" stroke-linecap="round" stroke-linejoin="round"/>
<path d="M 8.0 7.0 L 8.0 7.25 L 8.0 7.5 L 8.0 7.75 L 8.0 8.0 L 8.0 8.25 L 8.0 8.5 L 8.0 8.75 L 8.0 9.0 L 8.0 9.25 L 8.0 9.5 L 8.0 9.75 L 8.0 10.0 L 8.0 10.25 L 8.0 10.5 L 8.0 10.75 L 8.0 11.0 L 8.0 11.25 L 8.0 11.5 L 8.0 11.75 L 8.0 12.0 L 8.0 12.25 L 8.0 12.5 L 8.0 12.75 L 8.0 13.0" fill="none" stroke="#111" stroke-width="1.09" stroke-linecap="round" stroke-linejoin="round"/>
<path d="M 15.0 4.0 L 15.29 4.99 L 15.53 6.0 L 15.71 7.02 L 15.83 8.04 L 15.9 9.07 L 15.91 10.11 L 15.86 11.14 L 15.76 12.17 L 15.6 13.19 L 15.38 14.2 L 15.11 15.2 L 14.78 16.18 L 14.4 17.14 L 13.97 18.08 L 13.49 18.99 L 12.96 19.87 L 12.37 20.73 L 11.75 21.55 L 11.08 22.34 L 10.36 23.08 L 9.61 23.79 L 8.82 24.45 L 7.99 25.07 L 7.13 25.65" fill="none" stroke="#111" stroke-width="1.09" stroke-linecap="round" stroke-linejoin="round"/>
<path d="M 11.0 16.0 L 11.17 16.46 L 11.33 16.92 L 11.5 17.38 L 11.67 17.83 L 11.83 18.29 L 12.0 18.75 L 12.17 19.21 L 12.33 19.67 L 12.5 20.12 L 12.67 20.58 L 12.83 21.04 L 13.0 21.5 L 13.17 21.96 L 13.33 22.42 L 13.5 22.88 L 13.67 23.33 L 13.83 23.79 L 14.0 24.25 L 14.17 24.71 L 14.33 25.17 L 14.5 25.62 L 14.67 26.08 L 14.83 26.54 L 15.0 27.0" fill="none" stroke="#111" stroke-width="1.09" stroke-linecap="round" stroke-linejoin="round"/>
</svg>
