<?xml version="1.0" encoding="UTF-8"?>
<svg xmlns="http://www.w3.org/2000/svg" viewBox="0 0 22.44 36.00">
<path d="M 10.0 10.0 L 10.21 10.33 L 10.42 10.67 L 10.63 11.0 L 10.83 11.33 L 11.04 11.67 L 11.25 12.0 L 11.46 12.33 L 11.67 12.67 L 11.88 13.0 L 12.08 13.33 L 12.29 13.67 L 12.5 14.0 L 12.71 14.33 L 12.92 14.67 L 13.13 15.0 L 13.33 15.33 L 13.54 15.67 L 13.75 16.0 L 13.96 16.33 L 14.17 16.67 L 14.38 17.0 L 14.58 17.33 L 14.79 17.67 L 15.0 18.0 L 15.0 18.0 L 14.53 18.16 L 14.07 18.36 L 13.63 18.6 L 13.2 18.86 L 12.8 19.16 L 12.42 19.48 L 12.07 19.84 L 11.74 20.21 L 11.44 20.61 L 11.17 21.04 L 10.94 21.48 L 10.73 21.93 L 10.56 22.4 L 10.43 22.89 L 10.33 23.38 L 10.27 23.87 L 10.25 24.37 L 10.27 24.87 L 10.32 25.37 L 10.4 25.86 L 10.53 26.34 L 10.69 26.82 L 10.88 27.28 L 11.11 27.72" fill="none" stroke="#111" stroke-width="1.26" stroke-linecap="round" stroke-linejoin="round"/>
<path d="M 6.0 4.0 L 5.54 4.95 L 5.23 5.97 L 5.09 7.02 L 5.11 8.08 L 5.3 9.12 L 5.66 10.12 L 6.17 11.05 L 6.82 11.89 L 7.59 12.62 L 8.47 13.21 L 9.43 13.66 L 10.45 13.95 L 11.5 14.07 L 12.56 14.03 L 13.6 13.82 L 14.59 13.45 L 15.52 12.92 L 16.34 12.26 L 17.05 11.47 L 17.63 10.58 L 18.06 9.61 L 18.34 8.59 L 18.44 7.53 L 18.38 6.48" fill="none" stroke="#111" stroke-width="1.26" stroke-linecap="round" stroke-linejoin="round"/>
<path d="M 5.0 5.0 L 5.21 5.04 L 5.42 5.08 L 5.63 5.12 L 5.83 5.17 L 6.04 5.21 L 6.25 5.25 L 6.46 5.29 L 6.67 5.33 L 6.88 5.38 L 7.08 5.42 L 7.29 5.46 L 7.5 5.5 L 7.71 5.54 L 7.92 5.58 L 8.13 5.62 L 8.33 5.67 L 8.54 5.71 L 8.75 5.75 L 8.96 5.79 L 9.17 5.83 L 9.38 5.88 L 9.58 5.92 L 9.79 5.96 L 10.0 6.0" fill="none" stroke="#111" stroke-width="1.26" stroke-linecap="round" stroke-linejoin="round"/>
<path d="M 5.0 9.0 L 5.17 8.92 L 5.33 8.83 L 5.5 8.75 L 5.67 8.67 L 5.83 8.58 L 6.0 8.5 L 6.17 8.42 L 6.33 8.33 L 6.5 8.25 L 6.67 8.17 L 6.83 8.08 L 7.0 8.0 L 7.17 7.92 L 7.33 7.83 L 7.5 7.75 L 7.67 7.67 L 7.83 7.58 L 8.0 7.5 L 8.17 7.42 L 8.33 7.33 L 8.5 7.25 L 8.67 7.17 L 8.83 7.08 L 9.0 7.0" fill="none" stroke="#111" stroke-width="1.26" stroke-linecap="round" stroke-linejoin="round"/>
<path d="M 5.0 12.0 L 5.17 11.92 L 5.33 11.83 L 5.5 11.75 L 5.67 11.67 L 5.83 11.58 L 6.0 11.5 L 6.17 11.42 L 6.33 11.33 L 6.5 11.25 L 6.67 11.17 L 6.83 11.08 L 7.0 11.0 L 7.17 10.92 L 7.33 10.83 L 7.5 10.75 L 7.67 10.67 L 7.83 10.58 L 8.0 10.5 L 8.17 10.42 L 8.33 10.33 L 8.5 10.25 L 8.67 10.17 L 8.83 10.08 L 9.0 10.0" fill="none" stroke="#111" stroke-width="1.26" stroke-linecap="round" stroke-linejoin="round"/>
<path d="M 13.0 14.0 L 12.63 14.21 L 12.25 14.42 L 11.88 14.62 L 11.5 14.83 L 11.13 15.04 L 10.75 15.25 L 10.38 15.46 L 10.0 15.67 L 9.63 15.88 L 9.25 16.08 L 8.88 16.29 L 8.5 16.5 L 8.13 16.71 L 7.75 16.92 L 7.38 17.12 L 7.0 17.33 L 6.63 17.54 L 6.25 17.75 L 5.88 17.96 L 5.5 18.17 L 5.13 18.38 L 4.75 18.58 L 4.38 18.79 L 4.0 19.0" fill="none" stroke="#111" stroke-width="1.26" stroke-linecap="round" stroke-linejoin="round"/>
<path d="M 8.0 15.0 L 8.0 15.08 L 8.0 15.17 L 8.0 15.25 L 8.0 15.33 L 8.0 15.42 L 8.0 15.5 L 8.0 15.58 L 8.0 15.67 L 8.0 15.75 L 8.0 15.83 L 8.0 15.92 L 8.0 16.0 L 8.0 16.08 L 8.0 16.17 L 8.0 16.25 L 8.0 16.33 L 8.0 16.42 L 8.0 16.5 L 8.0 16.58 L 8.0 16.67 L 8.0 16.75 L 8.0 16.83 L 8.0 16.92 L 8.0 17.0" fill="none" stroke="#111" stroke-width="1.26" stroke-linecap="round" stroke-linejoin="round"/>
<path d="M 9.0 15.0 L 9.0 15.04 L 9.0 15.08 L 9.0 15.12 L 9.0 15.17 L 9.0 15.21 L 9.0 15.25 L 9.0 15.29 L 9.0 15.33 L 9.0 15.38 L 9.0 15.42 L 9.0 15.46 L 9.0 15.5 L 9.0 15.54 L 9.0 15.58 L 9.0 15.62 L 9.0 15.67 L 9.0 15.71 L 9.0 15.75 L 9.0 15.79 L 9.0 15.83 L 9.0 15.88 L 9.0 15.92 L 9.0 15.96 L 9.0 16.0" fill="none" stroke="#111" stroke-width="1.26" stroke-linecap="round" stroke-linejoin="round"/>
<path d="M 13.0 20.0 L 13.08 20.12 L 13.17 20.25 L 13.25 20.38 L 13.33 20.5 L 13.42 20.62 L 13.5 20.75 L 13.58 20.88 L 13.67 21.0 L 13.75 21.12 L 13.83 21.25 L 13.92 21.38 L 14.0 21.5 L 14.08 21.62 L 14.17 21.75 L 14.25 21.88 L 14.33 22.0 L 14.42 22.12 L 14.5 22.25 L 14.58 22.38 L 14.67 22.5 L 14.75 22.62 L 14.83 22.75 L 14.92 22.88 L 15.0 23.0" fill="none" stroke="#111" stroke-width="1.26" stroke-linecap="round" stroke-linejoin="round"/>
<path d="M 5.0 30.0 L 5.38 29.83 L 5.75 29.67 L 6.13 29.5 L 6.5 29.33 L 6.88 29.17 L 7.25 29.0 L 7.63 28.83 L 8.0 28.67 L 8.38 28.5 L 8.75 28.33 L 9.13 28.17 L 9.5 28.0 L 9.88 27.83 L 10.25 27.67 L 10.63 27.5 L 11.0 27.33 L 11.38 27.17 L 11.75 27.0 L 12.12 26.83 L 12.5 26.67 L 12.88 26.5 L 13.25 26.33 L 13.62 26.17 L 14.0 26.0" fill="none" stroke="#111" stroke-width="1.26" stroke-linecap="round" stroke-linejoin="round"/>
<path d="M 13.0 25.0 L 13.04 25.17 L 13.08 25.33 L 13.13 25.5 L 13.17 25.67 L 13.21 25.83 L 13.25 26.0 L 13.29 26.17 L 13.33 26.33 L 13.38 26.5 L 13.42 26.67 L 13.46 26.83 L 13.5 27.0 L 13.54 27.17 L 13.58 27.33 L 13.63 27.5 L 13.67 27.67 L 13.71 27.83 L 13.75 28.0 L 13.79 28.17 L 13.83 28.33 L 13.88 28.5 L 13.92 28.67 L 13.96 28.83 L 14.0 29.0 L 14.0 29.0 L 13.67 29.12 L 13.33 29.25 L 13.0 29.38 L 12.67 29.5 L 12.33 29.62 L 12.0 29.75 L 11.67 29.88 L 11.33 30.0 L 11.0 30.12 L 10.67 30.25 L 10.33 30.38 L 10.0 30.5 L 9.67 30.62 L 9.33 30.75 L 9.0 30.88 L 8.67 31.0 L 8.33 31.12 L 8.0 31.25 L 7.67 31.38 L 7.33 31.5 L 7.0 31.62 L 6.67 31.75 L 6.33 31.88 L 6.0 32.0" fill="none" stroke="#111" stroke-width="1.26" stroke-linecap="round" stroke-linejoin="round"/>
<path d="M 4.0 29.0 L 4.13 28.88 L 4.25 28.75 L 4.38 28.62 L 4.5 28.5 L 4.63 28.38 L 4.75 28.25 L 4.88 28.12 L 5.0 28.0 L 5.13 27.88 L 5.25 27.75 L 5.38 27.62 L 5.5 27.5 L 5.63 27.38 L 5.75 27.25 L 5.88 27.12 L 6.0 27.0 L 6.13 26.88 L 6.25 26.75 L 6.38 26.62 L 6.5 26.5 L 6.63 26.38 L 6.75 26.25 L 6.88 26.12 L 7.0 26.0 L 7.0 26.0 L 7.08 26.21 L 7.17 26.42 L 7.25 26.62 L 7.33 26.83 L 7.42 27.04 L 7.5 27.25 L 7.58 27.46 L 7.67 27.67 L 7.75 27.88 L 7.83 28.08 L 7.92 28.29 L 8.0 28.5 L 8.08 28.71 L 8.17 28.92 L 8.25 29.12 L 8.33 29.33 L 8.42 29.54 L 8.5 29.75 L 8.58 29.96 L 8.67 30.17 L 8.75 30.38 L 8.83 30.58 L 8.92 30.79 L 9.0 31.0" fill="none" stroke="#111" stroke-width="1.26" stroke-linecap="round" stroke-linejoin="round"/>
</svg>
