<?xml version="1.0" encoding="UTF-8"?>
<svg xmlns="http://www.w3.org/2000/svg" viewBox="0 0 15.00 36.95">
<path d="M 4.0 4.0 L 4.29 4.46 L 4.58 4.92 L 4.88 5.38 L 5.17 5.83 L 5.46 6.29 L 5.75 6.75 L 6.04 7.21 L 6.33 7.67 L 6.63 8.12 L 6.92 8.58 L 7.21 9.04 L 7.5 9.5 L 7.79 9.96 L 8.08 10.42 L 8.38 10.88 L 8.67 11.33 L 8.96 11.79 L 9.25 12.25 L 9.54 12.71 L 9.83 13.17 L 10.13 13.62 L 10.42 14.08 L 10.71 14.54 L 11.0 15.0 L 11.0 15.0 L 10.65 15.69 L 10.32 16.39 L 10.0 17.1 L 9.7 17.81 L 9.41 18.53 L 9.14 19.26 L 8.88 19.99 L 8.64 20.72 L 8.42 21.46 L 8.21 22.21 L 8.02 22.96 L 7.84 23.72 L 7.68 24.47 L 7.54 25.24 L 7.41 26.0 L 7.3 26.77 L 7.2 27.54 L 7.13 28.31 L 7.07 29.08 L 7.02 29.85 L 6.99 30.63 L 6.98 31.4 L 6.99 32.18 L 7.01 32.95" fill="none" stroke="#111" stroke-width="1.29" stroke-linecap="round" stroke-linejoin="round"/>
<path d="M 6.0 9.0 L 5.92 9.46 L 5.83 9.92 L 5.75 10.38 L 5.67 10.83 L 5.58 11.29 L 5.5 11.75 L 5.42 12.21 L 5.33 12.67 L 5.25 13.12 L 5.17 13.58 L 5.08 14.04 L 5.0 14.5 L 4.92 14.96 L 4.83 15.42 L 4.75 15.88 L 4.67 16.33 L 4.58 16.79 L 4.5 17.25 L 4.42 17.71 L 4.33 18.17 L 4.25 18.62 L 4.17 19.08 L 4.08 19.54 L 4.0 20.0" fill="none" stroke="#111" stroke-width="1.29" stroke-linecap="round" stroke-linejoin="round"/>
</svg>
