<?xml version="1.0" encoding="UTF-8"?>
<svg xmlns="http://www.w3.org/2000/svg" viewBox="0 0 22.77 35.64">
<path d="M 13.77 4.0 L 13.89 4.48 L 13.99 4.96 L 14.07 5.45 L 14.12 5.94 L 14.15 6.43 L 14.17 6.92 L 14.15 7.42 L 14.12 7.91 L 14.07 8.4 L 13.99 8.88 L 13.89 9.37 L 13.77 9.85 L 13.63 10.32 L 13.47 10.78 L 13.29 11.24 L 13.09 11.69 L 12.87 12.13 L 12.63 12.56 L 12.37 12.98 L 12.09 13.39 L 11.79 13.78 L 11.48 14.16 L 11.15 14.53 L 10.8 14.88 L 10.77 15.0 L 11.48 15.39 L 12.17 15.82 L 12.83 16.3 L 13.45 16.81 L 14.05 17.37 L 14.6 17.96 L 15.12 18.59 L 15.59 19.25 L 16.03 19.93 L 16.41 20.65 L 16.76 21.38 L 17.05 22.14 L 17.3 22.91 L 17.49 23.7 L 17.64 24.5 L 17.73 25.3 L 17.77 26.12 L 17.76 26.93 L 17.7 27.74 L 17.59 28.54 L 17.43 29.34 L 17.22 30.12 L 16.95 30.89 L 16.64 31.64" fill="none" stroke="#111" stroke-width="1.25" stroke-linecap="round" stroke-linejoin="round"/>
<path d="M 5.77 13.0 L 6.06 13.42 L 6.35 13.83 L 6.65 14.25 L 6.94 14.67 L 7.23 15.08 L 7.52 15.5 L 7.81 15.92 L 8.1 16.33 L 8.4 16.75 L 8.69 17.17 L 8.98 17.58 L 9.27 18.0 L 9.56 18.42 L 9.85 18.83 L 10.15 19.25 L 10.44 19.67 L 10.73 20.08 L 11.02 20.5 L 11.31 20.92 L 11.6 21.33 L 11.9 21.75 L 12.19 22.17 L 12.48 22.58 L 12.77 23.0 L 12.77 23.0 L 12.65 23.12 L 12.52 23.25 L 12.4 23.38 L 12.27 23.5 L 12.15 23.62 L 12.02 23.75 L 11.9 23.88 L 11.77 24.0 L 11.65 24.12 L 11.52 24.25 L 11.4 24.38 L 11.27 24.5 L 11.15 24.62 L 11.02 24.75 L 10.9 24.88 L 10.77 25.0 L 10.65 25.12 L 10.52 25.25 L 10.4 25.38 L 10.27 25.5 L 10.15 25.62 L 10.02 25.75 L 9.9 25.88 L 9.77 26.0 L 9.77 26.0 L 9.3 26.19 L 8.82 26.32 L 8.32 26.38 L 7.82 26.39 L 7.32 26.33 L 6.83 26.21 L 6.36 26.03 L 5.92 25.8 L 5.5 25.51 L 5.13 25.17 L 4.81 24.78 L 4.53 24.36 L 4.31 23.91 L 4.14 23.44 L 4.04 22.94 L 4.0 22.44 L 4.02 21.94 L 4.11 21.45 L 4.25 20.96 L 4.45 20.5 L 4.71 20.07 L 5.02 19.68 L 5.38 19.32 L 5.78 19.02 L 5.77 19.0 L 5.9 19.12 L 6.02 19.25 L 6.15 19.38 L 6.27 19.5 L 6.4 19.62 L 6.52 19.75 L 6.65 19.88 L 6.77 20.0 L 6.9 20.12 L 7.02 20.25 L 7.15 20.38 L 7.27 20.5 L 7.4 20.62 L 7.52 20.75 L 7.65 20.88 L 7.77 21.0 L 7.9 21.12 L 8.02 21.25 L 8.15 21.38 L 8.27 21.5 L 8.4 21.62 L 8.52 21.75 L 8.65 21.88 L 8.77 22.0" fill="none" stroke="#111" stroke-width="1.25" stroke-linecap="round" stroke-linejoin="round"/>
<path d="M 9.77 10.0 L 9.6 10.29 L 9.44 10.58 L 9.27 10.88 L 9.1 11.17 L 8.94 11.46 L 8.77 11.75 L 8.6 12.04 L 8.44 12.33 L 8.27 12.62 L 8.1 12.92 L 7.94 13.21 L 7.77 13.5 L 7.6 13.79 L 7.44 14.08 L 7.27 14.38 L 7.1 14.67 L 6.94 14.96 L 6.77 15.25 L 6.6 15.54 L 6.44 15.83 L 6.27 16.12 L 6.1 16.42 L 5.94 16.71 L 5.77 17.0" fill="none" stroke="#111" stroke-width="1.25" stroke-linecap="round" stroke-linejoin="round"/>
<path d="M 13.77 10.0 L 13.98 10.17 L 14.19 10.33 L 14.4 10.5 L 14.6 10.67 L 14.81 10.83 L 15.02 11.0 L 15.23 11.17 L 15.44 11.33 L 15.65 11.5 L 15.85 11.67 L 16.06 11.83 L 16.27 12.0 L 16.48 12.17 L 16.69 12.33 L 16.9 12.5 L 17.1 12.67 L 17.31 12.83 L 17.52 13.0 L 17.73 13.17 L 17.94 13.33 L 18.15 13.5 L 18.35 13.67 L 18.56 13.83 L 18.77 14.0" fill="none" stroke="#111" stroke-width="1.25" stroke-linecap="round" stroke-linejoin="round"/>
</svg>
