<?xml version="1.0" encoding="UTF-8"?>
<svg xmlns="http://www.w3.org/2000/svg" viewBox="0 0 19.52 35.89">
<path d="M 9.0 4.0 L 9.65 4.62 L 10.27 5.28 L 10.86 5.96 L 11.42 6.66 L 11.95 7.4 L 12.45 8.15 L 12.91 8.92 L 13.34 9.72 L 13.73 10.53 L 14.08 11.36 L 14.4 12.2 L 14.67 13.06 L 14.91 13.93 L 15.11 14.81 L 15.28 15.7 L 15.4 16.59 L 15.48 17.49 L 15.52 18.39 L 15.52 19.29 L 15.48 20.19 L 15.4 21.09 L 15.28 21.98 L 15.12 22.87 L 14.92 23.75" fill="none" stroke="#111" stroke-width="1.26" stroke-linecap="round" stroke-linejoin="round"/>
<path d="M 11.0 8.0 L 10.71 8.25 L 10.42 8.5 L 10.12 8.75 L 9.83 9.0 L 9.54 9.25 L 9.25 9.5 L 8.96 9.75 L 8.67 10.0 L 8.38 10.25 L 8.08 10.5 L 7.79 10.75 L 7.5 11.0 L 7.21 11.25 L 6.92 11.5 L 6.63 11.75 L 6.33 12.0 L 6.04 12.25 L 5.75 12.5 L 5.46 12.75 L 5.17 13.0 L 4.88 13.25 L 4.58 13.5 L 4.29 13.75 L 4.0 14.0" fill="none" stroke="#111" stroke-width="1.26" stroke-linecap="round" stroke-linejoin="round"/>
<path d="M 5.0 18.0 L 5.22 17.82 L 5.45 17.66 L 5.7 17.52 L 5.95 17.4 L 6.21 17.29 L 6.48 17.2 L 6.75 17.14 L 7.03 17.09 L 7.31 17.07 L 7.59 17.06 L 7.87 17.08 L 8.15 17.11 L 8.43 17.17 L 8.7 17.25 L 8.97 17.34 L 9.22 17.46 L 9.47 17.59 L 9.71 17.74 L 9.94 17.91 L 10.15 18.1 L 10.35 18.3 L 10.53 18.51 L 10.7 18.74 L 10.85 18.98 L 11.0 19.0 L 10.88 19.04 L 10.75 19.08 L 10.62 19.12 L 10.5 19.17 L 10.38 19.21 L 10.25 19.25 L 10.12 19.29 L 10.0 19.33 L 9.88 19.38 L 9.75 19.42 L 9.62 19.46 L 9.5 19.5 L 9.38 19.54 L 9.25 19.58 L 9.12 19.62 L 9.0 19.67 L 8.88 19.71 L 8.75 19.75 L 8.62 19.79 L 8.5 19.83 L 8.38 19.88 L 8.25 19.92 L 8.12 19.96 L 8.0 20.0 L 8.0 20.0 L 7.83 20.0 L 7.67 20.0 L 7.5 20.0 L 7.33 20.0 L 7.17 20.0 L 7.0 20.0 L 6.83 20.0 L 6.67 20.0 L 6.5 20.0 L 6.33 20.0 L 6.17 20.0 L 6.0 20.0 L 5.83 20.0 L 5.67 20.0 L 5.5 20.0 L 5.33 20.0 L 5.17 20.0 L 5.0 20.0 L 4.83 20.0 L 4.67 20.0 L 4.5 20.0 L 4.33 20.0 L 4.17 20.0 L 4.0 20.0 L 4.0 20.0 L 4.04 19.92 L 4.08 19.83 L 4.13 19.75 L 4.17 19.67 L 4.21 19.58 L 4.25 19.5 L 4.29 19.42 L 4.33 19.33 L 4.38 19.25 L 4.42 19.17 L 4.46 19.08 L 4.5 19.0 L 4.54 18.92 L 4.58 18.83 L 4.63 18.75 L 4.67 18.67 L 4.71 18.58 L 4.75 18.5 L 4.79 18.42 L 4.83 18.33 L 4.88 18.25 L 4.92 18.17 L 4.96 18.08 L 5.0 18.0" fill="none" stroke="#111" stroke-width="1.26" stroke-linecap="round" stroke-linejoin="round"/>
<path d="M 5.0 17.0 L 5.17 16.79 L 5.33 16.58 L 5.5 16.38 L 5.67 16.17 L 5.83 15.96 L 6.0 15.75 L 6.17 15.54 L 6.33 15.33 L 6.5 15.12 L 6.67 14.92 L 6.83 14.71 L 7.0 14.5 L 7.17 14.29 L 7.33 14.08 L 7.5 13.88 L 7.67 13.67 L 7.83 13.46 L 8.0 13.25 L 8.17 13.04 L 8.33 12.83 L 8.5 12.62 L 8.67 12.42 L 8.83 12.21 L 9.0 12.0 L 9.0 12.0 L 9.04 12.5 L 9.08 13.0 L 9.12 13.5 L 9.17 14.0 L 9.21 14.5 L 9.25 15.0 L 9.29 15.5 L 9.33 16.0 L 9.38 16.5 L 9.42 17.0 L 9.46 17.5 L 9.5 18.0 L 9.54 18.5 L 9.58 19.0 L 9.63 19.5 L 9.67 20.0 L 9.71 20.5 L 9.75 21.0 L 9.79 21.5 L 9.83 22.0 L 9.88 22.5 L 9.92 23.0 L 9.96 23.5 L 10.0 24.0 L 10.0 24.0 L 9.82 24.29 L 9.65 24.59 L 9.49 24.89 L 9.34 25.2 L 9.2 25.51 L 9.08 25.83 L 8.96 26.16 L 8.86 26.49 L 8.78 26.82 L 8.7 27.15 L 8.64 27.49 L 8.59 27.83 L 8.55 28.17 L 8.53 28.51 L 8.52 28.86 L 8.52 29.2 L 8.54 29.54 L 8.57 29.89 L 8.61 30.23 L 8.67 30.56 L 8.73 30.9 L 8.81 31.23 L 8.91 31.56 L 9.01 31.89" fill="none" stroke="#111" stroke-width="1.26" stroke-linecap="round" stroke-linejoin="round"/>
<path d="M 5.0 20.0 L 5.13 20.21 L 5.25 20.42 L 5.38 20.62 L 5.5 20.83 L 5.63 21.04 L 5.75 21.25 L 5.88 21.46 L 6.0 21.67 L 6.13 21.88 L 6.25 22.08 L 6.38 22.29 L 6.5 22.5 L 6.63 22.71 L 6.75 22.92 L 6.88 23.12 L 7.0 23.33 L 7.12 23.54 L 7.25 23.75 L 7.38 23.96 L 7.5 24.17 L 7.63 24.38 L 7.75 24.58 L 7.88 24.79 L 8.0 25.0 L 8.0 25.0 L 7.75 25.05 L 7.5 25.12 L 7.25 25.22 L 7.02 25.33 L 6.8 25.47 L 6.59 25.62 L 6.39 25.79 L 6.21 25.98 L 6.05 26.18 L 5.9 26.39 L 5.78 26.62 L 5.67 26.86 L 5.58 27.1 L 5.52 27.35 L 5.48 27.61 L 5.45 27.87 L 5.46 28.13 L 5.48 28.39 L 5.53 28.64 L 5.6 28.89 L 5.69 29.14 L 5.8 29.37 L 5.93 29.6 L 6.08 29.81" fill="none" stroke="#111" stroke-width="1.26" stroke-linecap="round" stroke-linejoin="round"/>
<path d="M 9.0 25.0 L 9.3 24.97 L 9.6 24.98 L 9.89 25.01 L 10.18 25.07 L 10.47 25.16 L 10.74 25.27 L 11.01 25.42 L 11.25 25.58 L 11.48 25.77 L 11.69 25.99 L 11.88 26.22 L 12.05 26.46 L 12.19 26.73 L 12.3 27.0 L 12.39 27.29 L 12.45 27.58 L 12.48 27.88 L 12.48 28.17 L 12.46 28.47 L 12.4 28.77 L 12.32 29.05 L 12.21 29.33 L 12.07 29.59 L 11.91 29.84" fill="none" stroke="#111" stroke-width="1.26" stroke-linecap="round" stroke-linejoin="round"/>
</svg>
