<?xml version="1.0" encoding="UTF-8"?>
<svg xmlns="http://www.w3.org/2000/svg" viewBox="0 0 27.58 28.73">
<path d="M 6.0 11.73 L 6.25 11.69 L 6.5 11.65 L 6.75 11.6 L 7.0 11.56 L 7.25 11.52 L 7.5 11.48 L 7.75 11.44 L 8.0 11.4 L 8.25 11.35 L 8.5 11.31 L 8.75 11.27 L 9.0 11.23 L 9.25 11.19 L 9.5 11.15 L 9.75 11.1 L 10.0 11.06 L 10.25 11.02 L 10.5 10.98 L 10.75 10.94 L 11.0 10.9 L 11.25 10.85 L 11.5 10.81 L 11.75 10.77 L 12.0 10.73 L 12.0 10.73 L 12.0 11.31 L 12.0 11.9 L 12.0 12.48 L 12.0 13.06 L 12.0 13.65 L 12.0 14.23 L 12.0 14.81 L 12.0 15.4 L 12.0 15.98 L 12.0 16.56 L 12.0 17.15 L 12.0 17.73 L 12.0 18.31 L 12.0 18.9 L 12.0 19.48 L 12.0 20.06 L 12.0 20.65 L 12.0 21.23 L 12.0 21.81 L 12.0 22.4 L 12.0 22.98 L 12.0 23.56 L 12.0 24.15 L 12.0 24.73" fill="none" stroke="#111" stroke-width="1.01" stroke-linecap="round" stroke-linejoin="round"/>
<path d="M 13.0 12.73 L 13.55 12.81 L 14.1 12.83 L 14.66 12.8 L 15.21 12.71 L 15.74 12.57 L 16.27 12.38 L 16.77 12.14 L 17.24 11.85 L 17.69 11.52 L 18.1 11.15 L 18.47 10.74 L 18.8 10.29 L 19.08 9.81 L 19.32 9.31 L 19.51 8.79 L 19.64 8.25 L 19.73 7.7 L 19.75 7.15 L 19.73 6.59 L 19.65 6.04 L 19.52 5.51 L 19.34 4.98 L 19.1 4.48 L 18.82 4.0" fill="none" stroke="#111" stroke-width="1.01" stroke-linecap="round" stroke-linejoin="round"/>
<path d="M 14.0 8.73 L 14.08 8.98 L 14.17 9.23 L 14.25 9.48 L 14.33 9.73 L 14.42 9.98 L 14.5 10.23 L 14.58 10.48 L 14.67 10.73 L 14.75 10.98 L 14.83 11.23 L 14.92 11.48 L 15.0 11.73 L 15.08 11.98 L 15.17 12.23 L 15.25 12.48 L 15.33 12.73 L 15.42 12.98 L 15.5 13.23 L 15.58 13.48 L 15.67 13.73 L 15.75 13.98 L 15.83 14.23 L 15.92 14.48 L 16.0 14.73" fill="none" stroke="#111" stroke-width="1.01" stroke-linecap="round" stroke-linejoin="round"/>
<path d="M 19.0 10.73 L 19.53 11.03 L 20.04 11.38 L 20.52 11.75 L 20.98 12.16 L 21.4 12.6 L 21.8 13.08 L 22.15 13.57 L 22.47 14.1 L 22.75 14.64 L 23.0 15.2 L 23.2 15.78 L 23.36 16.37 L 23.47 16.98 L 23.55 17.59 L 23.58 18.2 L 23.56 18.81 L 23.5 19.42 L 23.4 20.02 L 23.25 20.62 L 23.07 21.2 L 22.84 21.77 L 22.57 22.32 L 22.26 22.85 L 21.91 23.36" fill="none" stroke="#111" stroke-width="1.01" stroke-linecap="round" stroke-linejoin="round"/>
<path d="M 6.0 13.73 L 6.04 14.19 L 6.08 14.65 L 6.12 15.1 L 6.17 15.56 L 6.21 16.02 L 6.25 16.48 L 6.29 16.94 L 6.33 17.4 L 6.38 17.85 L 6.42 18.31 L 6.46 18.77 L 6.5 19.23 L 6.54 19.69 L 6.58 20.15 L 6.62 20.6 L 6.67 21.06 L 6.71 21.52 L 6.75 21.98 L 6.79 22.44 L 6.83 22.9 L 6.88 23.35 L 6.92 23.81 L 6.96 24.27 L 7.0 24.73" fill="none" stroke="#111" stroke-width="1.01" stroke-linecap="round" stroke-linejoin="round"/>
<path d="M 4.0 13.73 L 4.21 13.73 L 4.42 13.73 L 4.62 13.73 L 4.83 13.73 L 5.04 13.73 L 5.25 13.73 L 5.46 13.73 L 5.67 13.73 L 5.88 13.73 L 6.08 13.73 L 6.29 13.73 L 6.5 13.73 L 6.71 13.73 L 6.92 13.73 L 7.12 13.73 L 7.33 13.73 L 7.54 13.73 L 7.75 13.73 L 7.96 13.73 L 8.17 13.73 L 8.38 13.73 L 8.58 13.73 L 8.79 13.73 L 9.0 13.73" fill="none" stroke="#111" stroke-width="1.01" stroke-linecap="round" stroke-linejoin="round"/>
<path d="M 5.0 16.73 L 5.12 16.77 L 5.25 16.81 L 5.38 16.85 L 5.5 16.9 L 5.62 16.94 L 5.75 16.98 L 5.88 17.02 L 6.0 17.06 L 6.12 17.1 L 6.25 17.15 L 6.38 17.19 L 6.5 17.23 L 6.62 17.27 L 6.75 17.31 L 6.88 17.35 L 7.0 17.4 L 7.12 17.44 L 7.25 17.48 L 7.38 17.52 L 7.5 17.56 L 7.62 17.6 L 7.75 17.65 L 7.88 17.69 L 8.0 17.73" fill="none" stroke="#111" stroke-width="1.01" stroke-linecap="round" stroke-linejoin="round"/>
<path d="M 5.0 22.73 L 5.17 22.73 L 5.33 22.73 L 5.5 22.73 L 5.67 22.73 L 5.83 22.73 L 6.0 22.73 L 6.17 22.73 L 6.33 22.73 L 6.5 22.73 L 6.67 22.73 L 6.83 22.73 L 7.0 22.73 L 7.17 22.73 L 7.33 22.73 L 7.5 22.73 L 7.67 22.73 L 7.83 22.73 L 8.0 22.73 L 8.17 22.73 L 8.33 22.73 L 8.5 22.73 L 8.67 22.73 L 8.83 22.73 L 9.0 22.73" fill="none" stroke="#111" stroke-width="1.01" stroke-linecap="round" stroke-linejoin="round"/>
<path d="M 10.0 15.73 L 10.17 15.73 L 10.33 15.73 L 10.5 15.73 L 10.67 15.73 L 10.83 15.73 L 11.0 15.73 L 11.17 15.73 L 11.33 15.73 L 11.5 15.73 L 11.67 15.73 L 11.83 15.73 L 12.0 15.73 L 12.17 15.73 L 12.33 15.73 L 12.5 15.73 L 12.67 15.73 L 12.83 15.73 L 13.0 15.73 L 13.17 15.73 L 13.33 15.73 L 13.5 15.73 L 13.67 15.73 L 13.83 15.73 L 14.0 15.73" fill="none" stroke="#111" stroke-width="1.01" stroke-linecap="round" stroke-linejoin="round"/>
<path d="M 10.0 18.73 L 10.17 18.73 L 10.33 18.73 L 10.5 18.73 L 10.67 18.73 L 10.83 18.73 L 11.0 18.73 L 11.17 18.73 L 11.33 18.73 L 11.5 18.73 L 11.67 18.73 L 11.83 18.73 L 12.0 18.73 L 12.17 18.73 L 12.33 18.73 L 12.5 18.73 L 12.67 18.73 L 12.83 18.73 L 13.0 18.73 L 13.17 18.73 L 13.33 18.73 L 13.5 18.73 L 13.67 18.73 L 13.83 18.73 L 14.0 18.73" fill="none" stroke="#111" stroke-width="1.01" stroke-linecap="round" stroke-linejoin="round"/>
<path d="M 10.0 22.73 L 10.21 22.69 L 10.42 22.65 L 10.62 22.6 L 10.83 22.56 L 11.04 22.52 L 11.25 22.48 L 11.46 22.44 L 11.67 22.4 L 11.88 22.35 L 12.08 22.31 L 12.29 22.27 L 12.5 22.23 L 12.71 22.19 L 12.92 22.15 L 13.12 22.1 L 13.33 22.06 L 13.54 22.02 L 13.75 21.98 L 13.96 21.94 L 14.17 21.9 L 14.38 21.85 L 14.58 21.81 L 14.79 21.77 L 15.0 21.73" fill="none" stroke="#111" stroke-width="1.01" stroke-linecap="round" stroke-linejoin="round"/>
</svg>
