<?xml version="1.0" encoding="UTF-8"?>
<svg xmlns="http://www.w3.org/2000/svg" viewBox="0 0 18.00 35.00">
<path d="M 4.0 5.0 L 4.0 6.08 L 4.0 7.17 L 4.0 8.25 L 4.0 9.33 L 4.0 10.42 L 4.0 11.5 L 4.0 12.58 L 4.0 13.67 L 4.0 14.75 L 4.0 15.83 L 4.0 16.92 L 4.0 18.0 L 4.0 19.08 L 4.0 20.17 L 4.0 21.25 L 4.0 22.33 L 4.0 23.42 L 4.0 24.5 L 4.0 25.58 L 4.0 26.67 L 4.0 27.75 L 4.0 28.83 L 4.0 29.92 L 4.0 31.0" fill="none" stroke="#111" stroke-width="1.23" stroke-linecap="round" stroke-linejoin="round"/>
<path d="M 4.0 31.0 L 4.42 30.96 L 4.83 30.92 L 5.25 30.88 L 5.67 30.83 L 6.08 30.79 L 6.5 30.75 L 6.92 30.71 L 7.33 30.67 L 7.75 30.62 L 8.17 30.58 L 8.58 30.54 L 9.0 30.5 L 9.42 30.46 L 9.83 30.42 L 10.25 30.38 L 10.67 30.33 L 11.08 30.29 L 11.5 30.25 L 11.92 30.21 L 12.33 30.17 L 12.75 30.12 L 13.17 30.08 L 13.58 30.04 L 14.0 30.0 L 14.0 30.0 L 14.0 28.92 L 14.0 27.83 L 14.0 26.75 L 14.0 25.67 L 14.0 24.58 L 14.0 23.5 L 14.0 22.42 L 14.0 21.33 L 14.0 20.25 L 14.0 19.17 L 14.0 18.08 L 14.0 17.0 L 14.0 15.92 L 14.0 14.83 L 14.0 13.75 L 14.0 12.67 L 14.0 11.58 L 14.0 10.5 L 14.0 9.42 L 14.0 8.33 L 14.0 7.25 L 14.0 6.17 L 14.0 5.08 L 14.0 4.0" fill="none" stroke="#111" stroke-width="1.23" stroke-linecap="round" stroke-linejoin="round"/>
</svg>
