<?xml version="1.0" encoding="UTF-8"?>
<svg xmlns="http://www.w3.org/2000/svg" viewBox="0 0 24.29 35.00">
<path d="M 13.0 4.0 L 12.81 4.55 L 12.66 5.1 L 12.55 5.67 L 12.48 6.25 L 12.45 6.83 L 12.47 7.4 L 12.52 7.98 L 12.62 8.55 L 12.76 9.11 L 12.94 9.66 L 13.17 10.2 L 13.42 10.71 L 13.72 11.21 L 14.05 11.69 L 14.41 12.14 L 14.81 12.56 L 15.24 12.95 L 15.69 13.31 L 16.17 13.64 L 16.67 13.93 L 17.19 14.18 L 17.73 14.4 L 18.28 14.57 L 18.84 14.71" fill="none" stroke="#111" stroke-width="1.23" stroke-linecap="round" stroke-linejoin="round"/>
<path d="M 14.0 12.0 L 13.63 12.35 L 13.28 12.73 L 12.97 13.14 L 12.69 13.57 L 12.45 14.02 L 12.24 14.49 L 12.07 14.97 L 11.94 15.47 L 11.85 15.97 L 11.8 16.48 L 11.79 16.99 L 11.82 17.51 L 11.9 18.01 L 12.01 18.51 L 12.16 19.0 L 12.35 19.48 L 12.57 19.94 L 12.83 20.38 L 13.13 20.8 L 13.46 21.19 L 13.82 21.56 L 14.2 21.9 L 14.61 22.2 L 15.05 22.47 L 15.0 22.0 L 15.0 22.38 L 15.0 22.75 L 15.0 23.12 L 15.0 23.5 L 15.0 23.88 L 15.0 24.25 L 15.0 24.62 L 15.0 25.0 L 15.0 25.38 L 15.0 25.75 L 15.0 26.12 L 15.0 26.5 L 15.0 26.88 L 15.0 27.25 L 15.0 27.62 L 15.0 28.0 L 15.0 28.38 L 15.0 28.75 L 15.0 29.12 L 15.0 29.5 L 15.0 29.88 L 15.0 30.25 L 15.0 30.62 L 15.0 31.0" fill="none" stroke="#111" stroke-width="1.23" stroke-linecap="round" stroke-linejoin="round"/>
<path d="M 4.0 9.0 L 4.44 9.67 L 4.93 10.31 L 5.46 10.9 L 6.05 11.45 L 6.68 11.95 L 7.35 12.39 L 8.05 12.78 L 8.78 13.11 L 9.54 13.38 L 10.31 13.59 L 11.1 13.73 L 11.9 13.81 L 12.7 13.82 L 13.51 13.77 L 14.3 13.65 L 15.08 13.46 L 15.84 13.22 L 16.58 12.91 L 17.3 12.54 L 17.98 12.11 L 18.62 11.63 L 19.22 11.1 L 19.78 10.53 L 20.29 9.9" fill="none" stroke="#111" stroke-width="1.23" stroke-linecap="round" stroke-linejoin="round"/>
<path d="M 7.0 9.0 L 7.0 9.33 L 7.0 9.67 L 7.0 10.0 L 7.0 10.33 L 7.0 10.67 L 7.0 11.0 L 7.0 11.33 L 7.0 11.67 L 7.0 12.0 L 7.0 12.33 L 7.0 12.67 L 7.0 13.0 L 7.0 13.33 L 7.0 13.67 L 7.0 14.0 L 7.0 14.33 L 7.0 14.67 L 7.0 15.0 L 7.0 15.33 L 7.0 15.67 L 7.0 16.0 L 7.0 16.33 L 7.0 16.67 L 7.0 17.0" fill="none" stroke="#111" stroke-width="1.23" stroke-linecap="round" stroke-linejoin="round"/>
<path d="M 19.0 7.0 L 19.0 7.33 L 19.0 7.67 L 19.0 8.0 L 19.0 8.33 L 19.0 8.67 L 19.0 9.0 L 19.0 9.33 L 19.0 9.67 L 19.0 10.0 L 19.0 10.33 L 19.0 10.67 L 19.0 11.0 L 19.0 11.33 L 19.0 11.67 L 19.0 12.0 L 19.0 12.33 L 19.0 12.67 L 19.0 13.0 L 19.0 13.33 L 19.0 13.67 L 19.0 14.0 L 19.0 14.33 L 19.0 14.67 L 19.0 15.0" fill="none" stroke="#111" stroke-width="1.23" stroke-linecap="round" stroke-linejoin="round"/>
</svg>
