<?xml version="1.0" encoding="UTF-8"?>
<svg xmlns="http://www.w3.org/2000/svg" viewBox="0 0 22.23 35.95">
<path d="M 10.03 5.15 L 10.03 5.28 L 10.03 5.4 L 10.03 5.53 L 10.03 5.65 L 10.03 5.78 L 10.03 5.9 L 10.03 6.03 L 10.03 6.15 L 10.03 6.28 L 10.03 6.4 L 10.03 6.53 L 10.03 6.65 L 10.03 6.78 L 10.03 6.9 L 10.03 7.03 L 10.03 7.15 L 10.03 7.28 L 10.03 7.4 L 10.03 7.53 L 10.03 7.65 L 10.03 7.78 L 10.03 7.9 L 10.03 8.03 L 10.03 8.15 L 10.03 8.15 L 10.11 8.19 L 10.19 8.23 L 10.28 8.28 L 10.36 8.32 L 10.44 8.36 L 10.53 8.4 L 10.61 8.44 L 10.69 8.48 L 10.78 8.53 L 10.86 8.57 L 10.94 8.61 L 11.03 8.65 L 11.11 8.69 L 11.19 8.73 L 11.28 8.78 L 11.36 8.82 L 11.44 8.86 L 11.53 8.9 L 11.61 8.94 L 11.69 8.98 L 11.78 9.03 L 11.86 9.07 L 11.94 9.11 L 12.03 9.15 L 12.03 9.15 L 12.26 8.96 L 12.47 8.74 L 12.65 8.5 L 12.8 8.24 L 12.92 7.96 L 13.0 7.67 L 13.06 7.37 L 13.07 7.07 L 13.06 6.77 L 13.01 6.48 L 12.92 6.19 L 12.8 5.91 L 12.65 5.65 L 12.47 5.41 L 12.26 5.19 L 12.03 4.99 L 11.78 4.83 L 11.51 4.69 L 11.23 4.59 L 10.94 4.52 L 10.64 4.48 L 10.34 4.48 L 10.04 4.52 L 9.74 4.59" fill="none" stroke="#111" stroke-width="1.26" stroke-linecap="round" stroke-linejoin="round"/>
<path d="M 10.03 4.15 L 9.73 4.08 L 9.43 4.03 L 9.13 4.0 L 8.83 4.0 L 8.52 4.02 L 8.22 4.07 L 7.93 4.14 L 7.64 4.23 L 7.36 4.35 L 7.09 4.49 L 6.83 4.65 L 6.59 4.83 L 6.36 5.03 L 6.15 5.24 L 5.95 5.48 L 5.78 5.73 L 5.62 5.99 L 5.49 6.26 L 5.38 6.54 L 5.29 6.83 L 5.22 7.13 L 5.18 7.43 L 5.17 7.73 L 5.17 8.03" fill="none" stroke="#111" stroke-width="1.26" stroke-linecap="round" stroke-linejoin="round"/>
<path d="M 6.03 5.15 L 6.19 5.28 L 6.36 5.4 L 6.53 5.53 L 6.69 5.65 L 6.86 5.78 L 7.03 5.9 L 7.19 6.03 L 7.36 6.15 L 7.53 6.28 L 7.69 6.4 L 7.86 6.53 L 8.03 6.65 L 8.19 6.78 L 8.36 6.9 L 8.53 7.03 L 8.69 7.15 L 8.86 7.28 L 9.03 7.4 L 9.19 7.53 L 9.36 7.65 L 9.53 7.78 L 9.69 7.9 L 9.86 8.03 L 10.03 8.15" fill="none" stroke="#111" stroke-width="1.26" stroke-linecap="round" stroke-linejoin="round"/>
<path d="M 13.03 7.15 L 13.03 7.44 L 13.03 7.73 L 13.03 8.03 L 13.03 8.32 L 13.03 8.61 L 13.03 8.9 L 13.03 9.19 L 13.03 9.48 L 13.03 9.78 L 13.03 10.07 L 13.03 10.36 L 13.03 10.65 L 13.03 10.94 L 13.03 11.23 L 13.03 11.53 L 13.03 11.82 L 13.03 12.11 L 13.03 12.4 L 13.03 12.69 L 13.03 12.98 L 13.03 13.28 L 13.03 13.57 L 13.03 13.86 L 13.03 14.15 L 13.03 14.15 L 13.5 14.4 L 13.95 14.68 L 14.39 14.99 L 14.81 15.32 L 15.21 15.67 L 15.59 16.04 L 15.95 16.44 L 16.29 16.85 L 16.6 17.28 L 16.89 17.73 L 17.15 18.2 L 17.38 18.68 L 17.59 19.17 L 17.77 19.67 L 17.92 20.19 L 18.04 20.71 L 18.13 21.23 L 18.19 21.76 L 18.22 22.29 L 18.23 22.83 L 18.2 23.36 L 18.14 23.89 L 18.05 24.42 L 17.93 24.94" fill="none" stroke="#111" stroke-width="1.26" stroke-linecap="round" stroke-linejoin="round"/>
<path d="M 11.03 8.15 L 10.86 8.57 L 10.69 8.98 L 10.53 9.4 L 10.36 9.82 L 10.19 10.23 L 10.03 10.65 L 9.86 11.07 L 9.69 11.48 L 9.53 11.9 L 9.36 12.32 L 9.19 12.73 L 9.03 13.15 L 8.86 13.57 L 8.69 13.98 L 8.53 14.4 L 8.36 14.82 L 8.19 15.23 L 8.03 15.65 L 7.86 16.07 L 7.69 16.48 L 7.53 16.9 L 7.36 17.32 L 7.19 17.73 L 7.03 18.15 L 7.03 18.15 L 7.43 18.4 L 7.82 18.67 L 8.19 18.97 L 8.55 19.28 L 8.89 19.62 L 9.21 19.97 L 9.51 20.33 L 9.79 20.72 L 10.05 21.12 L 10.28 21.53 L 10.49 21.96 L 10.68 22.39 L 10.85 22.84 L 10.98 23.29 L 11.1 23.75 L 11.19 24.22 L 11.25 24.69 L 11.29 25.16 L 11.3 25.64 L 11.28 26.11 L 11.24 26.59 L 11.17 27.06 L 11.08 27.52 L 10.96 27.98" fill="none" stroke="#111" stroke-width="1.26" stroke-linecap="round" stroke-linejoin="round"/>
<path d="M 10.03 13.15 L 10.17 13.27 L 10.3 13.4 L 10.42 13.55 L 10.53 13.7 L 10.63 13.85 L 10.72 14.02 L 10.79 14.19 L 10.85 14.37 L 10.9 14.55 L 10.93 14.73 L 10.96 14.91 L 10.96 15.1 L 10.96 15.29 L 10.93 15.47 L 10.9 15.65 L 10.85 15.83 L 10.79 16.01 L 10.72 16.18 L 10.63 16.35 L 10.53 16.5 L 10.42 16.65 L 10.3 16.8 L 10.17 16.93 L 10.03 17.05" fill="none" stroke="#111" stroke-width="1.26" stroke-linecap="round" stroke-linejoin="round"/>
<path d="M 14.03 17.15 L 13.9 17.36 L 13.78 17.57 L 13.65 17.78 L 13.53 17.98 L 13.4 18.19 L 13.28 18.4 L 13.15 18.61 L 13.03 18.82 L 12.9 19.03 L 12.78 19.23 L 12.65 19.44 L 12.53 19.65 L 12.4 19.86 L 12.28 20.07 L 12.15 20.28 L 12.03 20.48 L 11.9 20.69 L 11.78 20.9 L 11.65 21.11 L 11.53 21.32 L 11.4 21.53 L 11.28 21.73 L 11.15 21.94 L 11.03 22.15" fill="none" stroke="#111" stroke-width="1.26" stroke-linecap="round" stroke-linejoin="round"/>
<path d="M 13.03 19.15 L 13.07 19.44 L 13.11 19.73 L 13.15 20.03 L 13.19 20.32 L 13.24 20.61 L 13.28 20.9 L 13.32 21.19 L 13.36 21.48 L 13.4 21.78 L 13.44 22.07 L 13.49 22.36 L 13.53 22.65 L 13.57 22.94 L 13.61 23.23 L 13.65 23.53 L 13.69 23.82 L 13.74 24.11 L 13.78 24.4 L 13.82 24.69 L 13.86 24.98 L 13.9 25.28 L 13.94 25.57 L 13.99 25.86 L 14.03 26.15" fill="none" stroke="#111" stroke-width="1.26" stroke-linecap="round" stroke-linejoin="round"/>
<path d="M 7.03 18.15 L 6.83 18.47 L 6.66 18.8 L 6.51 19.15 L 6.38 19.5 L 6.28 19.86 L 6.21 20.23 L 6.16 20.6 L 6.13 20.97 L 6.13 21.35 L 6.16 21.72 L 6.21 22.09 L 6.29 22.46 L 6.4 22.82 L 6.52 23.17 L 6.68 23.51 L 6.85 23.84 L 7.05 24.16 L 7.27 24.47 L 7.51 24.75 L 7.77 25.03 L 8.04 25.28 L 8.34 25.51 L 8.64 25.72 L 8.97 25.91" fill="none" stroke="#111" stroke-width="1.26" stroke-linecap="round" stroke-linejoin="round"/>
<path d="M 7.03 23.15 L 6.67 23.38 L 6.33 23.63 L 6.01 23.9 L 5.71 24.2 L 5.43 24.51 L 5.18 24.84 L 4.94 25.19 L 4.73 25.55 L 4.54 25.93 L 4.38 26.32 L 4.25 26.72 L 4.15 27.13 L 4.07 27.54 L 4.02 27.96 L 4.0 28.38 L 4.01 28.8 L 4.04 29.22 L 4.11 29.63 L 4.2 30.05 L 4.32 30.45 L 4.47 30.84 L 4.65 31.22 L 4.85 31.59 L 5.07 31.95" fill="none" stroke="#111" stroke-width="1.26" stroke-linecap="round" stroke-linejoin="round"/>
<path d="M 6.03 26.15 L 6.07 26.23 L 6.11 26.32 L 6.15 26.4 L 6.19 26.48 L 6.24 26.57 L 6.28 26.65 L 6.32 26.73 L 6.36 26.82 L 6.4 26.9 L 6.44 26.98 L 6.49 27.07 L 6.53 27.15 L 6.57 27.23 L 6.61 27.32 L 6.65 27.4 L 6.69 27.48 L 6.74 27.57 L 6.78 27.65 L 6.82 27.73 L 6.86 27.82 L 6.9 27.9 L 6.94 27.98 L 6.99 28.07 L 7.03 28.15" fill="none" stroke="#111" stroke-width="1.26" stroke-linecap="round" stroke-linejoin="round"/>
</svg>
