<?xml version="1.0" encoding="UTF-8"?>
<svg xmlns="http://www.w3.org/2000/svg" viewBox="0 0 20.59 31.14">
<path d="M 4.0 9.0 L 4.29 9.54 L 4.58 10.08 L 4.88 10.62 L 5.17 11.17 L 5.46 11.71 L 5.75 12.25 L 6.04 12.79 L 6.33 13.33 L 6.62 13.88 L 6.92 14.42 L 7.21 14.96 L 7.5 15.5 L 7.79 16.04 L 8.08 16.58 L 8.38 17.12 L 8.67 17.67 L 8.96 18.21 L 9.25 18.75 L 9.54 19.29 L 9.83 19.83 L 10.12 20.38 L 10.42 20.92 L 10.71 21.46 L 11.0 22.0" fill="none" stroke="#111" stroke-width="1.09" stroke-linecap="round" stroke-linejoin="round"/>
<path d="M 15.0 4.0 L 15.13 5.05 L 15.22 6.11 L 15.27 7.17 L 15.27 8.23 L 15.24 9.29 L 15.16 10.35 L 15.04 11.4 L 14.87 12.45 L 14.67 13.49 L 14.42 14.52 L 14.13 15.55 L 13.8 16.55 L 13.43 17.55 L 13.03 18.53 L 12.58 19.49 L 12.1 20.43 L 11.57 21.36 L 11.01 22.26 L 10.42 23.14 L 9.79 23.99 L 9.13 24.82 L 8.43 25.62 L 7.71 26.4 L 6.95 27.14 L 7.0 27.0 L 6.92 26.79 L 6.83 26.58 L 6.75 26.38 L 6.67 26.17 L 6.58 25.96 L 6.5 25.75 L 6.42 25.54 L 6.33 25.33 L 6.25 25.12 L 6.17 24.92 L 6.08 24.71 L 6.0 24.5 L 5.92 24.29 L 5.83 24.08 L 5.75 23.88 L 5.67 23.67 L 5.58 23.46 L 5.5 23.25 L 5.42 23.04 L 5.33 22.83 L 5.25 22.62 L 5.17 22.42 L 5.08 22.21 L 5.0 22.0" fill="none" stroke="#111" stroke-width="1.09" stroke-linecap="round" stroke-linejoin="round"/>
<path d="M 6.0 7.0 L 5.92 7.84 L 5.98 8.69 L 6.17 9.51 L 6.49 10.3 L 6.93 11.02 L 7.47 11.67 L 8.12 12.22 L 8.84 12.66 L 9.62 12.99 L 10.44 13.18 L 11.29 13.24 L 12.13 13.17 L 12.95 12.97 L 13.73 12.63 L 14.45 12.18 L 15.09 11.62 L 15.62 10.97 L 16.05 10.24 L 16.36 9.45 L 16.54 8.62 L 16.59 7.78 L 16.5 6.93 L 16.28 6.12 L 15.93 5.34" fill="none" stroke="#111" stroke-width="1.09" stroke-linecap="round" stroke-linejoin="round"/>
</svg>
