<?xml version="1.0" encoding="UTF-8"?>
<svg xmlns="http://www.w3.org/2000/svg" viewBox="0 0 21.00 36.00">
<path d="M 4.0 12.0 L 4.54 11.96 L 5.08 11.92 L 5.62 11.88 L 6.17 11.83 L 6.71 11.79 L 7.25 11.75 L 7.79 11.71 L 8.33 11.67 L 8.88 11.62 L 9.42 11.58 L 9.96 11.54 L 10.5 11.5 L 11.04 11.46 L 11.58 11.42 L 12.13 11.38 L 12.67 11.33 L 13.21 11.29 L 13.75 11.25 L 14.29 11.21 L 14.83 11.17 L 15.38 11.12 L 15.92 11.08 L 16.46 11.04 L 17.0 11.0" fill="none" stroke="#111" stroke-width="1.26" stroke-linecap="round" stroke-linejoin="round"/>
<path d="M 4.0 19.0 L 4.46 19.0 L 4.92 19.0 L 5.38 19.0 L 5.83 19.0 L 6.29 19.0 L 6.75 19.0 L 7.21 19.0 L 7.67 19.0 L 8.12 19.0 L 8.58 19.0 L 9.04 19.0 L 9.5 19.0 L 9.96 19.0 L 10.42 19.0 L 10.88 19.0 L 11.33 19.0 L 11.79 19.0 L 12.25 19.0 L 12.71 19.0 L 13.17 19.0 L 13.62 19.0 L 14.08 19.0 L 14.54 19.0 L 15.0 19.0" fill="none" stroke="#111" stroke-width="1.26" stroke-linecap="round" stroke-linejoin="round"/>
<path d="M 5.0 8.0 L 5.0 8.62 L 5.0 9.25 L 5.0 9.88 L 5.0 10.5 L 5.0 11.12 L 5.0 11.75 L 5.0 12.38 L 5.0 13.0 L 5.0 13.62 L 5.0 14.25 L 5.0 14.88 L 5.0 15.5 L 5.0 16.12 L 5.0 16.75 L 5.0 17.38 L 5.0 18.0 L 5.0 18.62 L 5.0 19.25 L 5.0 19.88 L 5.0 20.5 L 5.0 21.12 L 5.0 21.75 L 5.0 22.38 L 5.0 23.0" fill="none" stroke="#111" stroke-width="1.26" stroke-linecap="round" stroke-linejoin="round"/>
<path d="M 17.0 9.0 L 16.96 9.58 L 16.92 10.17 L 16.88 10.75 L 16.83 11.33 L 16.79 11.92 L 16.75 12.5 L 16.71 13.08 L 16.67 13.67 L 16.62 14.25 L 16.58 14.83 L 16.54 15.42 L 16.5 16.0 L 16.46 16.58 L 16.42 17.17 L 16.38 17.75 L 16.33 18.33 L 16.29 18.92 L 16.25 19.5 L 16.21 20.08 L 16.17 20.67 L 16.12 21.25 L 16.08 21.83 L 16.04 22.42 L 16.0 23.0" fill="none" stroke="#111" stroke-width="1.26" stroke-linecap="round" stroke-linejoin="round"/>
<path d="M 10.0 4.0 L 10.0 4.29 L 10.0 4.58 L 10.0 4.88 L 10.0 5.17 L 10.0 5.46 L 10.0 5.75 L 10.0 6.04 L 10.0 6.33 L 10.0 6.62 L 10.0 6.92 L 10.0 7.21 L 10.0 7.5 L 10.0 7.79 L 10.0 8.08 L 10.0 8.38 L 10.0 8.67 L 10.0 8.96 L 10.0 9.25 L 10.0 9.54 L 10.0 9.83 L 10.0 10.12 L 10.0 10.42 L 10.0 10.71 L 10.0 11.0" fill="none" stroke="#111" stroke-width="1.26" stroke-linecap="round" stroke-linejoin="round"/>
<path d="M 10.0 19.0 L 10.0 19.54 L 10.0 20.08 L 10.0 20.62 L 10.0 21.17 L 10.0 21.71 L 10.0 22.25 L 10.0 22.79 L 10.0 23.33 L 10.0 23.88 L 10.0 24.42 L 10.0 24.96 L 10.0 25.5 L 10.0 26.04 L 10.0 26.58 L 10.0 27.12 L 10.0 27.67 L 10.0 28.21 L 10.0 28.75 L 10.0 29.29 L 10.0 29.83 L 10.0 30.38 L 10.0 30.92 L 10.0 31.46 L 10.0 32.0" fill="none" stroke="#111" stroke-width="1.26" stroke-linecap="round" stroke-linejoin="round"/>
</svg>
