<?xml version="1.0" encoding="UTF-8"?>
<svg xmlns="http://www.w3.org/2000/svg" viewBox="0 0 25.00 33.76">
<path d="M 10.0 4.0 L 9.75 4.5 L 9.5 5.0 L 9.25 5.5 L 9.0 6.0 L 8.75 6.5 L 8.5 7.0 L 8.25 7.5 L 8.0 8.0 L 7.75 8.5 L 7.5 9.0 L 7.25 9.5 L 7.0 10.0 L 6.75 10.5 L 6.5 11.0 L 6.25 11.5 L 6.0 12.0 L 5.75 12.5 L 5.5 13.0 L 5.25 13.5 L 5.0 14.0 L 4.75 14.5 L 4.5 15.0 L 4.25 15.5 L 4.0 16.0" fill="none" stroke="#111" stroke-width="1.18" stroke-linecap="round" stroke-linejoin="round"/>
<path d="M 8.0 9.0 L 8.46 9.78 L 8.88 10.58 L 9.27 11.39 L 9.63 12.22 L 9.95 13.07 L 10.24 13.93 L 10.49 14.79 L 10.7 15.67 L 10.87 16.56 L 11.01 17.45 L 11.11 18.35 L 11.17 19.25 L 11.2 20.16 L 11.18 21.06 L 11.13 21.96 L 11.04 22.86 L 10.91 23.76 L 10.75 24.65 L 10.55 25.53 L 10.31 26.4 L 10.03 27.26 L 9.72 28.11 L 9.37 28.94 L 8.99 29.76" fill="none" stroke="#111" stroke-width="1.18" stroke-linecap="round" stroke-linejoin="round"/>
<path d="M 12.0 10.0 L 12.33 10.0 L 12.67 10.0 L 13.0 10.0 L 13.33 10.0 L 13.67 10.0 L 14.0 10.0 L 14.33 10.0 L 14.67 10.0 L 15.0 10.0 L 15.33 10.0 L 15.67 10.0 L 16.0 10.0 L 16.33 10.0 L 16.67 10.0 L 17.0 10.0 L 17.33 10.0 L 17.67 10.0 L 18.0 10.0 L 18.33 10.0 L 18.67 10.0 L 19.0 10.0 L 19.33 10.0 L 19.67 10.0 L 20.0 10.0" fill="none" stroke="#111" stroke-width="1.18" stroke-linecap="round" stroke-linejoin="round"/>
<path d="M 16.0 10.0 L 16.0 10.58 L 16.0 11.17 L 16.0 11.75 L 16.0 12.33 L 16.0 12.92 L 16.0 13.5 L 16.0 14.08 L 16.0 14.67 L 16.0 15.25 L 16.0 15.83 L 16.0 16.42 L 16.0 17.0 L 16.0 17.58 L 16.0 18.17 L 16.0 18.75 L 16.0 19.33 L 16.0 19.92 L 16.0 20.5 L 16.0 21.08 L 16.0 21.67 L 16.0 22.25 L 16.0 22.83 L 16.0 23.42 L 16.0 24.0" fill="none" stroke="#111" stroke-width="1.18" stroke-linecap="round" stroke-linejoin="round"/>
<path d="M 10.0 25.0 L 10.46 24.96 L 10.92 24.92 L 11.38 24.88 L 11.83 24.83 L 12.29 24.79 L 12.75 24.75 L 13.21 24.71 L 13.67 24.67 L 14.12 24.62 L 14.58 24.58 L 15.04 24.54 L 15.5 24.5 L 15.96 24.46 L 16.42 24.42 L 16.88 24.38 L 17.33 24.33 L 17.79 24.29 L 18.25 24.25 L 18.71 24.21 L 19.17 24.17 L 19.62 24.12 L 20.08 24.08 L 20.54 24.04 L 21.0 24.0" fill="none" stroke="#111" stroke-width="1.18" stroke-linecap="round" stroke-linejoin="round"/>
</svg>
