<?xml version="1.0" encoding="UTF-8"?>
<svg xmlns="http://www.w3.org/2000/svg" viewBox="0 0 23.85 33.11">
<path d="M 4.49 13.32 L 4.16 12.27 L 4.0 11.17 L 4.02 10.07 L 4.22 8.99 L 4.6 7.95 L 5.13 6.99 L 5.82 6.13 L 6.64 5.39 L 7.56 4.79 L 8.58 4.36 L 9.64 4.09 L 10.74 4.0 L 11.84 4.09 L 12.91 4.36 L 13.92 4.79 L 14.85 5.39 L 15.67 6.13 L 16.35 6.99 L 16.89 7.95 L 17.26 8.99 L 17.46 10.07 L 17.49 11.17 L 17.33 12.27 L 16.99 13.32" fill="none" stroke="#111" stroke-width="1.16" stroke-linecap="round" stroke-linejoin="round"/>
<path d="M 6.49 7.32 L 6.59 8.15 L 6.8 8.97 L 7.11 9.75 L 7.51 10.49 L 8.0 11.18 L 8.58 11.79 L 9.23 12.33 L 9.94 12.78 L 10.7 13.14 L 11.5 13.4 L 12.33 13.56 L 13.17 13.62 L 14.01 13.56 L 14.84 13.4 L 15.64 13.14 L 16.4 12.78 L 17.11 12.33 L 17.76 11.79 L 18.34 11.18 L 18.83 10.49 L 19.23 9.75 L 19.54 8.97 L 19.75 8.15 L 19.85 7.32 L 11.49 7.32 L 11.49 7.32 L 11.49 7.32 L 11.49 7.32 L 11.49 7.32 L 11.49 7.32 L 11.49 7.32 L 11.49 7.32 L 11.49 7.32 L 11.49 7.32 L 11.49 7.32 L 11.49 7.32 L 11.49 7.32 L 11.49 7.32 L 11.49 7.32 L 11.49 7.32 L 11.49 7.32 L 11.49 7.32 L 11.49 7.32 L 11.49 7.32 L 11.49 7.32 L 11.49 7.32 L 11.49 7.32 L 11.49 7.32 L 11.49 7.32" fill="none" stroke="#111" stroke-width="1.16" stroke-linecap="round" stroke-linejoin="round"/>
<path d="M 7.49 15.32 L 7.45 15.4 L 7.41 15.48 L 7.37 15.57 L 7.32 15.65 L 7.28 15.73 L 7.24 15.82 L 7.2 15.9 L 7.16 15.98 L 7.12 16.07 L 7.07 16.15 L 7.03 16.23 L 6.99 16.32 L 6.95 16.4 L 6.91 16.48 L 6.87 16.57 L 6.82 16.65 L 6.78 16.73 L 6.74 16.82 L 6.7 16.9 L 6.66 16.98 L 6.62 17.07 L 6.57 17.15 L 6.53 17.23 L 6.49 17.32" fill="none" stroke="#111" stroke-width="1.16" stroke-linecap="round" stroke-linejoin="round"/>
<path d="M 11.49 15.32 L 11.53 15.4 L 11.57 15.48 L 11.62 15.57 L 11.66 15.65 L 11.7 15.73 L 11.74 15.82 L 11.78 15.9 L 11.82 15.98 L 11.87 16.07 L 11.91 16.15 L 11.95 16.23 L 11.99 16.32 L 12.03 16.4 L 12.07 16.48 L 12.12 16.57 L 12.16 16.65 L 12.2 16.73 L 12.24 16.82 L 12.28 16.9 L 12.32 16.98 L 12.37 17.07 L 12.41 17.15 L 12.45 17.23 L 12.49 17.32" fill="none" stroke="#111" stroke-width="1.16" stroke-linecap="round" stroke-linejoin="round"/>
<path d="M 4.49 17.32 L 4.91 17.32 L 5.32 17.32 L 5.74 17.32 L 6.16 17.32 L 6.57 17.32 L 6.99 17.32 L 7.41 17.32 L 7.82 17.32 L 8.24 17.32 L 8.66 17.32 L 9.07 17.32 L 9.49 17.32 L 9.91 17.32 L 10.32 17.32 L 10.74 17.32 L 11.16 17.32 L 11.57 17.32 L 11.99 17.32 L 12.41 17.32 L 12.82 17.32 L 13.24 17.32 L 13.66 17.32 L 14.07 17.32 L 14.49 17.32" fill="none" stroke="#111" stroke-width="1.16" stroke-linecap="round" stroke-linejoin="round"/>
<path d="M 6.49 21.32 L 6.74 21.32 L 6.99 21.32 L 7.24 21.32 L 7.49 21.32 L 7.74 21.32 L 7.99 21.32 L 8.24 21.32 L 8.49 21.32 L 8.74 21.32 L 8.99 21.32 L 9.24 21.32 L 9.49 21.32 L 9.74 21.32 L 9.99 21.32 L 10.24 21.32 L 10.49 21.32 L 10.74 21.32 L 10.99 21.32 L 11.24 21.32 L 11.49 21.32 L 11.74 21.32 L 11.99 21.32 L 12.24 21.32 L 12.49 21.32" fill="none" stroke="#111" stroke-width="1.16" stroke-linecap="round" stroke-linejoin="round"/>
<path d="M 10.49 21.32 L 10.65 21.7 L 10.78 22.1 L 10.88 22.5 L 10.95 22.91 L 10.99 23.33 L 11.0 23.74 L 10.98 24.16 L 10.93 24.57 L 10.84 24.98 L 10.73 25.38 L 10.58 25.77 L 10.41 26.15 L 10.21 26.52 L 9.98 26.86 L 9.73 27.2 L 9.46 27.51 L 9.16 27.8 L 8.84 28.07 L 8.5 28.31 L 8.14 28.53 L 7.77 28.72 L 7.39 28.88 L 7.0 29.01 L 6.59 29.11" fill="none" stroke="#111" stroke-width="1.16" stroke-linecap="round" stroke-linejoin="round"/>
</svg>
