<?xml version="1.0" encoding="UTF-8"?>
<svg xmlns="http://www.w3.org/2000/svg" viewBox="0 0 24.67 31.92">
<path d="M 5.57 16.92 L 4.82 15.69 L 4.3 14.35 L 4.02 12.94 L 4.0 11.51 L 4.23 10.09 L 4.7 8.74 L 5.41 7.49 L 6.32 6.38 L 7.42 5.46 L 8.66 4.74 L 10.01 4.25 L 11.42 4.0 L 12.86 4.01 L 14.27 4.27 L 15.61 4.77 L 16.85 5.51 L 17.93 6.45 L 18.84 7.56 L 19.53 8.82 L 19.99 10.18 L 20.2 11.6 L 20.16 13.03 L 19.87 14.44 L 19.34 15.77" fill="none" stroke="#111" stroke-width="1.12" stroke-linecap="round" stroke-linejoin="round"/>
<path d="M 7.57 11.92 L 7.61 12.04 L 7.65 12.17 L 7.69 12.29 L 7.73 12.42 L 7.78 12.54 L 7.82 12.67 L 7.86 12.79 L 7.9 12.92 L 7.94 13.04 L 7.98 13.17 L 8.03 13.29 L 8.07 13.42 L 8.11 13.54 L 8.15 13.67 L 8.19 13.79 L 8.23 13.92 L 8.28 14.04 L 8.32 14.17 L 8.36 14.29 L 8.4 14.42 L 8.44 14.54 L 8.48 14.67 L 8.53 14.79 L 8.57 14.92" fill="none" stroke="#111" stroke-width="1.12" stroke-linecap="round" stroke-linejoin="round"/>
<path d="M 6.57 18.92 L 6.57 19.04 L 6.57 19.17 L 6.57 19.29 L 6.57 19.42 L 6.57 19.54 L 6.57 19.67 L 6.57 19.79 L 6.57 19.92 L 6.57 20.04 L 6.57 20.17 L 6.57 20.29 L 6.57 20.42 L 6.57 20.54 L 6.57 20.67 L 6.57 20.79 L 6.57 20.92 L 6.57 21.04 L 6.57 21.17 L 6.57 21.29 L 6.57 21.42 L 6.57 21.54 L 6.57 21.67 L 6.57 21.79 L 6.57 21.92" fill="none" stroke="#111" stroke-width="1.12" stroke-linecap="round" stroke-linejoin="round"/>
<path d="M 9.57 7.92 L 9.62 8.72 L 9.79 9.51 L 10.07 10.27 L 10.45 10.97 L 10.94 11.62 L 11.51 12.18 L 12.16 12.66 L 12.87 13.04 L 13.63 13.31 L 14.42 13.47 L 15.23 13.51 L 16.03 13.44 L 16.82 13.25 L 17.56 12.95 L 18.26 12.54 L 18.89 12.04 L 19.44 11.45 L 19.9 10.79 L 20.26 10.06 L 20.51 9.3 L 20.65 8.5 L 20.67 7.7 L 20.57 6.9 L 20.36 6.12" fill="none" stroke="#111" stroke-width="1.12" stroke-linecap="round" stroke-linejoin="round"/>
<path d="M 8.57 19.92 L 8.86 19.92 L 9.15 19.92 L 9.44 19.92 L 9.73 19.92 L 10.03 19.92 L 10.32 19.92 L 10.61 19.92 L 10.9 19.92 L 11.19 19.92 L 11.48 19.92 L 11.78 19.92 L 12.07 19.92 L 12.36 19.92 L 12.65 19.92 L 12.94 19.92 L 13.23 19.92 L 13.53 19.92 L 13.82 19.92 L 14.11 19.92 L 14.4 19.92 L 14.69 19.92 L 14.98 19.92 L 15.28 19.92 L 15.57 19.92" fill="none" stroke="#111" stroke-width="1.12" stroke-linecap="round" stroke-linejoin="round"/>
<path d="M 10.57 14.92 L 10.57 15.08 L 10.57 15.25 L 10.57 15.42 L 10.57 15.58 L 10.57 15.75 L 10.57 15.92 L 10.57 16.08 L 10.57 16.25 L 10.57 16.42 L 10.57 16.58 L 10.57 16.75 L 10.57 16.92 L 10.57 17.08 L 10.57 17.25 L 10.57 17.42 L 10.57 17.58 L 10.57 17.75 L 10.57 17.92 L 10.57 18.08 L 10.57 18.25 L 10.57 18.42 L 10.57 18.58 L 10.57 18.75 L 10.57 18.92" fill="none" stroke="#111" stroke-width="1.12" stroke-linecap="round" stroke-linejoin="round"/>
<path d="M 12.57 15.92 L 12.65 16.04 L 12.73 16.17 L 12.82 16.29 L 12.9 16.42 L 12.98 16.54 L 13.07 16.67 L 13.15 16.79 L 13.23 16.92 L 13.32 17.04 L 13.4 17.17 L 13.48 17.29 L 13.57 17.42 L 13.65 17.54 L 13.73 17.67 L 13.82 17.79 L 13.9 17.92 L 13.98 18.04 L 14.07 18.17 L 14.15 18.29 L 14.23 18.42 L 14.32 18.54 L 14.4 18.67 L 14.48 18.79 L 14.57 18.92" fill="none" stroke="#111" stroke-width="1.12" stroke-linecap="round" stroke-linejoin="round"/>
<path d="M 12.57 19.92 L 12.57 20.25 L 12.57 20.58 L 12.57 20.92 L 12.57 21.25 L 12.57 21.58 L 12.57 21.92 L 12.57 22.25 L 12.57 22.58 L 12.57 22.92 L 12.57 23.25 L 12.57 23.58 L 12.57 23.92 L 12.57 24.25 L 12.57 24.58 L 12.57 24.92 L 12.57 25.25 L 12.57 25.58 L 12.57 25.92 L 12.57 26.25 L 12.57 26.58 L 12.57 26.92 L 12.57 27.25 L 12.57 27.58 L 12.57 27.92" fill="none" stroke="#111" stroke-width="1.12" stroke-linecap="round" stroke-linejoin="round"/>
<path d="M 15.57 21.92 L 15.57 22.04 L 15.57 22.17 L 15.57 22.29 L 15.57 22.42 L 15.57 22.54 L 15.57 22.67 L 15.57 22.79 L 15.57 22.92 L 15.57 23.04 L 15.57 23.17 L 15.57 23.29 L 15.57 23.42 L 15.57 23.54 L 15.57 23.67 L 15.57 23.79 L 15.57 23.92 L 15.57 24.04 L 15.57 24.17 L 15.57 24.29 L 15.57 24.42 L 15.57 24.54 L 15.57 24.67 L 15.57 24.79 L 15.57 24.92" fill="none" stroke="#111" stroke-width="1.12" stroke-linecap="round" stroke-linejoin="round"/>
</svg>
