<?xml version="1.0" encoding="UTF-8"?>
<svg xmlns="http://www.w3.org/2000/svg" viewBox="0 0 23.00 35.46">
<path d="M 7.0 5.46 L 7.02 6.04 L 7.12 6.61 L 7.31 7.16 L 7.58 7.67 L 7.92 8.14 L 8.33 8.55 L 8.8 8.9 L 9.31 9.17 L 9.86 9.36 L 10.43 9.46 L 11.01 9.48 L 11.59 9.41 L 12.14 9.25 L 12.67 9.01 L 13.16 8.7 L 13.59 8.31 L 13.96 7.86 L 14.26 7.37 L 14.48 6.83 L 14.62 6.27 L 14.67 5.69 L 14.63 5.11 L 14.51 4.54 L 14.3 4.0" fill="none" stroke="#111" stroke-width="1.24" stroke-linecap="round" stroke-linejoin="round"/>
<path d="M 9.0 11.46 L 9.04 12.25 L 9.08 13.04 L 9.12 13.84 L 9.17 14.63 L 9.21 15.42 L 9.25 16.21 L 9.29 17.0 L 9.33 17.79 L 9.38 18.59 L 9.42 19.38 L 9.46 20.17 L 9.5 20.96 L 9.54 21.75 L 9.58 22.54 L 9.62 23.34 L 9.67 24.13 L 9.71 24.92 L 9.75 25.71 L 9.79 26.5 L 9.83 27.29 L 9.88 28.09 L 9.92 28.88 L 9.96 29.67 L 10.0 30.46" fill="none" stroke="#111" stroke-width="1.24" stroke-linecap="round" stroke-linejoin="round"/>
<path d="M 4.0 12.46 L 4.42 12.46 L 4.83 12.46 L 5.25 12.46 L 5.67 12.46 L 6.08 12.46 L 6.5 12.46 L 6.92 12.46 L 7.33 12.46 L 7.75 12.46 L 8.17 12.46 L 8.58 12.46 L 9.0 12.46 L 9.42 12.46 L 9.83 12.46 L 10.25 12.46 L 10.67 12.46 L 11.08 12.46 L 11.5 12.46 L 11.92 12.46 L 12.33 12.46 L 12.75 12.46 L 13.17 12.46 L 13.58 12.46 L 14.0 12.46" fill="none" stroke="#111" stroke-width="1.24" stroke-linecap="round" stroke-linejoin="round"/>
<path d="M 4.0 9.46 L 4.0 9.75 L 4.0 10.04 L 4.0 10.34 L 4.0 10.63 L 4.0 10.92 L 4.0 11.21 L 4.0 11.5 L 4.0 11.79 L 4.0 12.09 L 4.0 12.38 L 4.0 12.67 L 4.0 12.96 L 4.0 13.25 L 4.0 13.54 L 4.0 13.84 L 4.0 14.13 L 4.0 14.42 L 4.0 14.71 L 4.0 15.0 L 4.0 15.29 L 4.0 15.59 L 4.0 15.88 L 4.0 16.17 L 4.0 16.46 L 4.0 16.46 L 4.61 16.95 L 5.28 17.36 L 5.99 17.7 L 6.73 17.96 L 7.49 18.13 L 8.27 18.21 L 9.06 18.2 L 9.84 18.11 L 10.6 17.93 L 11.34 17.66 L 12.04 17.31 L 12.7 16.89 L 13.31 16.39 L 13.86 15.83 L 14.34 15.21 L 14.74 14.54 L 15.07 13.83 L 15.32 13.08 L 15.48 12.32 L 15.56 11.54 L 15.54 10.75 L 15.44 9.98 L 15.25 9.21 L 14.97 8.48" fill="none" stroke="#111" stroke-width="1.24" stroke-linecap="round" stroke-linejoin="round"/>
<path d="M 13.0 20.46 L 13.4 20.65 L 13.78 20.88 L 14.13 21.15 L 14.45 21.46 L 14.73 21.8 L 14.98 22.17 L 15.18 22.57 L 15.34 22.98 L 15.45 23.41 L 15.52 23.85 L 15.54 24.29 L 15.51 24.74 L 15.43 25.17 L 15.3 25.6 L 15.13 26.01 L 14.91 26.4 L 14.66 26.76 L 14.36 27.09 L 14.03 27.39 L 13.68 27.65 L 13.29 27.87 L 12.88 28.05 L 12.46 28.18 L 12.02 28.26" fill="none" stroke="#111" stroke-width="1.24" stroke-linecap="round" stroke-linejoin="round"/>
<path d="M 10.0 22.46 L 10.38 22.84 L 10.75 23.21 L 11.12 23.59 L 11.5 23.96 L 11.88 24.34 L 12.25 24.71 L 12.62 25.09 L 13.0 25.46 L 13.38 25.84 L 13.75 26.21 L 14.12 26.59 L 14.5 26.96 L 14.88 27.34 L 15.25 27.71 L 15.62 28.09 L 16.0 28.46 L 16.38 28.84 L 16.75 29.21 L 17.12 29.59 L 17.5 29.96 L 17.88 30.34 L 18.25 30.71 L 18.62 31.09 L 19.0 31.46" fill="none" stroke="#111" stroke-width="1.24" stroke-linecap="round" stroke-linejoin="round"/>
</svg>
