<?xml version="1.0" encoding="UTF-8"?>
<svg xmlns="http://www.w3.org/2000/svg" viewBox="0 0 27.00 32.22">
<path d="M 11.0 5.22 L 11.67 5.66 L 12.32 6.15 L 12.93 6.66 L 13.52 7.22 L 14.08 7.8 L 14.6 8.42 L 15.09 9.06 L 15.53 9.73 L 15.95 10.42 L 16.32 11.14 L 16.65 11.87 L 16.94 12.63 L 17.19 13.39 L 17.39 14.17 L 17.55 14.96 L 17.66 15.76 L 17.73 16.57 L 17.76 17.37 L 17.74 18.18 L 17.67 18.98 L 17.56 19.78 L 17.41 20.57 L 17.21 21.35 L 16.97 22.12 L 17.0 22.22 L 16.88 22.26 L 16.75 22.3 L 16.62 22.34 L 16.5 22.38 L 16.38 22.42 L 16.25 22.47 L 16.12 22.51 L 16.0 22.55 L 15.88 22.59 L 15.75 22.63 L 15.62 22.67 L 15.5 22.72 L 15.38 22.76 L 15.25 22.8 L 15.12 22.84 L 15.0 22.88 L 14.88 22.92 L 14.75 22.97 L 14.62 23.01 L 14.5 23.05 L 14.38 23.09 L 14.25 23.13 L 14.12 23.17 L 14.0 23.22 L 14.0 23.22 L 13.83 23.13 L 13.67 23.05 L 13.5 22.97 L 13.33 22.88 L 13.17 22.8 L 13.0 22.72 L 12.83 22.63 L 12.67 22.55 L 12.5 22.47 L 12.33 22.38 L 12.17 22.3 L 12.0 22.22 L 11.83 22.13 L 11.67 22.05 L 11.5 21.97 L 11.33 21.88 L 11.17 21.8 L 11.0 21.72 L 10.83 21.63 L 10.67 21.55 L 10.5 21.47 L 10.33 21.38 L 10.17 21.3 L 10.0 21.22 L 10.0 21.22 L 10.09 20.45 L 10.2 19.69 L 10.32 18.94 L 10.46 18.18 L 10.61 17.43 L 10.77 16.68 L 10.95 15.93 L 11.14 15.19 L 11.35 14.45 L 11.57 13.72 L 11.8 12.99 L 12.05 12.26 L 12.31 11.54 L 12.59 10.82 L 12.88 10.11 L 13.18 9.41 L 13.5 8.71 L 13.83 8.01 L 14.17 7.33 L 14.53 6.65 L 14.89 5.98 L 15.28 5.31 L 15.67 4.65 L 16.08 4.0" fill="none" stroke="#111" stroke-width="1.13" stroke-linecap="round" stroke-linejoin="round"/>
<path d="M 10.0 16.22 L 10.33 16.22 L 10.67 16.22 L 11.0 16.22 L 11.33 16.22 L 11.67 16.22 L 12.0 16.22 L 12.33 16.22 L 12.67 16.22 L 13.0 16.22 L 13.33 16.22 L 13.67 16.22 L 14.0 16.22 L 14.33 16.22 L 14.67 16.22 L 15.0 16.22 L 15.33 16.22 L 15.67 16.22 L 16.0 16.22 L 16.33 16.22 L 16.67 16.22 L 17.0 16.22 L 17.33 16.22 L 17.67 16.22 L 18.0 16.22" fill="none" stroke="#111" stroke-width="1.13" stroke-linecap="round" stroke-linejoin="round"/>
<path d="M 13.0 4.22 L 13.04 5.01 L 13.08 5.8 L 13.12 6.59 L 13.17 7.38 L 13.21 8.17 L 13.25 8.97 L 13.29 9.76 L 13.33 10.55 L 13.38 11.34 L 13.42 12.13 L 13.46 12.92 L 13.5 13.72 L 13.54 14.51 L 13.58 15.3 L 13.62 16.09 L 13.67 16.88 L 13.71 17.67 L 13.75 18.47 L 13.79 19.26 L 13.83 20.05 L 13.88 20.84 L 13.92 21.63 L 13.96 22.42 L 14.0 23.22" fill="none" stroke="#111" stroke-width="1.13" stroke-linecap="round" stroke-linejoin="round"/>
<path d="M 13.0 23.22 L 12.82 23.5 L 12.7 23.81 L 12.64 24.14 L 12.64 24.47 L 12.7 24.8 L 12.82 25.11 L 13.0 25.39 L 13.22 25.64 L 13.49 25.84 L 13.79 25.98 L 14.11 26.08 L 14.44 26.11 L 14.77 26.08 L 15.09 25.98 L 15.39 25.84 L 15.65 25.64 L 15.88 25.39 L 16.05 25.11 L 16.17 24.8 L 16.23 24.47 L 16.23 24.14 L 16.17 23.81 L 16.05 23.5 L 15.87 23.22" fill="none" stroke="#111" stroke-width="1.13" stroke-linecap="round" stroke-linejoin="round"/>
<path d="M 22.0 18.22 L 21.79 18.42 L 21.58 18.63 L 21.38 18.84 L 21.17 19.05 L 20.96 19.26 L 20.75 19.47 L 20.54 19.67 L 20.33 19.88 L 20.12 20.09 L 19.92 20.3 L 19.71 20.51 L 19.5 20.72 L 19.29 20.92 L 19.08 21.13 L 18.88 21.34 L 18.67 21.55 L 18.46 21.76 L 18.25 21.97 L 18.04 22.17 L 17.83 22.38 L 17.62 22.59 L 17.42 22.8 L 17.21 23.01 L 17.0 23.22" fill="none" stroke="#111" stroke-width="1.13" stroke-linecap="round" stroke-linejoin="round"/>
<path d="M 18.0 18.22 L 18.21 18.63 L 18.42 19.05 L 18.62 19.47 L 18.83 19.88 L 19.04 20.3 L 19.25 20.72 L 19.46 21.13 L 19.67 21.55 L 19.88 21.97 L 20.08 22.38 L 20.29 22.8 L 20.5 23.22 L 20.71 23.63 L 20.92 24.05 L 21.12 24.47 L 21.33 24.88 L 21.54 25.3 L 21.75 25.72 L 21.96 26.13 L 22.17 26.55 L 22.38 26.97 L 22.58 27.38 L 22.79 27.8 L 23.0 28.22" fill="none" stroke="#111" stroke-width="1.13" stroke-linecap="round" stroke-linejoin="round"/>
<path d="M 7.0 6.22 L 6.88 6.67 L 6.75 7.13 L 6.62 7.59 L 6.5 8.05 L 6.38 8.51 L 6.25 8.97 L 6.12 9.42 L 6.0 9.88 L 5.88 10.34 L 5.75 10.8 L 5.62 11.26 L 5.5 11.72 L 5.38 12.17 L 5.25 12.63 L 5.12 13.09 L 5.0 13.55 L 4.88 14.01 L 4.75 14.47 L 4.62 14.92 L 4.5 15.38 L 4.38 15.84 L 4.25 16.3 L 4.12 16.76 L 4.0 17.22" fill="none" stroke="#111" stroke-width="1.13" stroke-linecap="round" stroke-linejoin="round"/>
<path d="M 6.0 11.22 L 6.48 11.55 L 6.93 11.93 L 7.35 12.34 L 7.72 12.8 L 8.05 13.28 L 8.34 13.79 L 8.57 14.33 L 8.76 14.89 L 8.9 15.46 L 8.98 16.04 L 9.01 16.62 L 8.99 17.21 L 8.92 17.79 L 8.79 18.37 L 8.61 18.92 L 8.38 19.47 L 8.1 19.98 L 7.78 20.47 L 7.41 20.93 L 7.01 21.35 L 6.56 21.74 L 6.09 22.08 L 5.58 22.38 L 5.05 22.63" fill="none" stroke="#111" stroke-width="1.13" stroke-linecap="round" stroke-linejoin="round"/>
</svg>
