<?xml version="1.0" encoding="UTF-8"?>
<svg xmlns="http://www.w3.org/2000/svg" viewBox="0 0 23.98 31.00">
<path d="M 8.98 4.0 L 8.97 4.67 L 8.94 5.33 L 8.9 6.0 L 8.83 6.66 L 8.75 7.33 L 8.65 7.99 L 8.54 8.64 L 8.4 9.3 L 8.25 9.95 L 8.08 10.59 L 7.9 11.23 L 7.7 11.87 L 7.48 12.5 L 7.24 13.12 L 6.99 13.74 L 6.72 14.35 L 6.43 14.96 L 6.13 15.55 L 5.81 16.14 L 5.48 16.72 L 5.13 17.29 L 4.77 17.85 L 4.39 18.4 L 4.0 18.94" fill="none" stroke="#111" stroke-width="1.09" stroke-linecap="round" stroke-linejoin="round"/>
<path d="M 7.98 11.0 L 8.23 11.25 L 8.46 11.52 L 8.68 11.8 L 8.89 12.09 L 9.08 12.39 L 9.24 12.71 L 9.4 13.03 L 9.53 13.36 L 9.64 13.7 L 9.74 14.04 L 9.81 14.39 L 9.86 14.74 L 9.9 15.1 L 9.91 15.45 L 9.91 15.81 L 9.88 16.16 L 9.83 16.52 L 9.76 16.87 L 9.68 17.21 L 9.57 17.55 L 9.45 17.88 L 9.3 18.21 L 9.14 18.53 L 8.96 18.83 L 8.98 19.0 L 8.98 19.33 L 8.98 19.67 L 8.98 20.0 L 8.98 20.33 L 8.98 20.67 L 8.98 21.0 L 8.98 21.33 L 8.98 21.67 L 8.98 22.0 L 8.98 22.33 L 8.98 22.67 L 8.98 23.0 L 8.98 23.33 L 8.98 23.67 L 8.98 24.0 L 8.98 24.33 L 8.98 24.67 L 8.98 25.0 L 8.98 25.33 L 8.98 25.67 L 8.98 26.0 L 8.98 26.33 L 8.98 26.67 L 8.98 27.0" fill="none" stroke="#111" stroke-width="1.09" stroke-linecap="round" stroke-linejoin="round"/>
<path d="M 11.98 6.0 L 11.94 6.21 L 11.9 6.42 L 11.85 6.62 L 11.81 6.83 L 11.77 7.04 L 11.73 7.25 L 11.69 7.46 L 11.65 7.67 L 11.6 7.88 L 11.56 8.08 L 11.52 8.29 L 11.48 8.5 L 11.44 8.71 L 11.4 8.92 L 11.35 9.12 L 11.31 9.33 L 11.27 9.54 L 11.23 9.75 L 11.19 9.96 L 11.15 10.17 L 11.1 10.38 L 11.06 10.58 L 11.02 10.79 L 10.98 11.0 L 10.98 11.0 L 11.31 11.0 L 11.65 11.0 L 11.98 11.0 L 12.31 11.0 L 12.65 11.0 L 12.98 11.0 L 13.31 11.0 L 13.65 11.0 L 13.98 11.0 L 14.31 11.0 L 14.65 11.0 L 14.98 11.0 L 15.31 11.0 L 15.65 11.0 L 15.98 11.0 L 16.31 11.0 L 16.65 11.0 L 16.98 11.0 L 17.31 11.0 L 17.65 11.0 L 17.98 11.0 L 18.31 11.0 L 18.65 11.0 L 18.98 11.0 L 18.98 11.0 L 18.98 10.75 L 18.98 10.5 L 18.98 10.25 L 18.98 10.0 L 18.98 9.75 L 18.98 9.5 L 18.98 9.25 L 18.98 9.0 L 18.98 8.75 L 18.98 8.5 L 18.98 8.25 L 18.98 8.0 L 18.98 7.75 L 18.98 7.5 L 18.98 7.25 L 18.98 7.0 L 18.98 6.75 L 18.98 6.5 L 18.98 6.25 L 18.98 6.0 L 18.98 5.75 L 18.98 5.5 L 18.98 5.25 L 18.98 5.0 L 18.98 5.0 L 18.69 5.04 L 18.4 5.08 L 18.1 5.12 L 17.81 5.17 L 17.52 5.21 L 17.23 5.25 L 16.94 5.29 L 16.65 5.33 L 16.35 5.38 L 16.06 5.42 L 15.77 5.46 L 15.48 5.5 L 15.19 5.54 L 14.9 5.58 L 14.6 5.63 L 14.31 5.67 L 14.02 5.71 L 13.73 5.75 L 13.44 5.79 L 13.15 5.83 L 12.85 5.88 L 12.56 5.92 L 12.27 5.96 L 11.98 6.0" fill="none" stroke="#111" stroke-width="1.09" stroke-linecap="round" stroke-linejoin="round"/>
<path d="M 10.98 17.0 L 11.35 16.96 L 11.73 16.92 L 12.1 16.88 L 12.48 16.83 L 12.85 16.79 L 13.23 16.75 L 13.6 16.71 L 13.98 16.67 L 14.35 16.62 L 14.73 16.58 L 15.1 16.54 L 15.48 16.5 L 15.85 16.46 L 16.23 16.42 L 16.6 16.38 L 16.98 16.33 L 17.35 16.29 L 17.73 16.25 L 18.1 16.21 L 18.48 16.17 L 18.85 16.12 L 19.23 16.08 L 19.6 16.04 L 19.98 16.0" fill="none" stroke="#111" stroke-width="1.09" stroke-linecap="round" stroke-linejoin="round"/>
<path d="M 14.98 11.0 L 15.02 11.58 L 15.06 12.17 L 15.1 12.75 L 15.15 13.33 L 15.19 13.92 L 15.23 14.5 L 15.27 15.08 L 15.31 15.67 L 15.35 16.25 L 15.4 16.83 L 15.44 17.42 L 15.48 18.0 L 15.52 18.58 L 15.56 19.17 L 15.6 19.75 L 15.65 20.33 L 15.69 20.92 L 15.73 21.5 L 15.77 22.08 L 15.81 22.67 L 15.85 23.25 L 15.9 23.83 L 15.94 24.42 L 15.98 25.0" fill="none" stroke="#111" stroke-width="1.09" stroke-linecap="round" stroke-linejoin="round"/>
</svg>
