<?xml version="1.0" encoding="UTF-8"?>
<svg xmlns="http://www.w3.org/2000/svg" viewBox="0 0 19.87 31.00">
<path d="M 8.1 9.0 L 8.01 9.29 L 7.93 9.58 L 7.85 9.88 L 7.76 10.17 L 7.68 10.46 L 7.6 10.75 L 7.51 11.04 L 7.43 11.33 L 7.35 11.62 L 7.26 11.92 L 7.18 12.21 L 7.1 12.5 L 7.01 12.79 L 6.93 13.08 L 6.85 13.38 L 6.76 13.67 L 6.68 13.96 L 6.6 14.25 L 6.51 14.54 L 6.43 14.83 L 6.35 15.12 L 6.26 15.42 L 6.18 15.71 L 6.1 16.0" fill="none" stroke="#111" stroke-width="1.09" stroke-linecap="round" stroke-linejoin="round"/>
<path d="M 8.1 9.0 L 8.14 9.38 L 8.18 9.75 L 8.22 10.12 L 8.26 10.5 L 8.3 10.88 L 8.35 11.25 L 8.39 11.62 L 8.43 12.0 L 8.47 12.38 L 8.51 12.75 L 8.55 13.12 L 8.6 13.5 L 8.64 13.88 L 8.68 14.25 L 8.72 14.62 L 8.76 15.0 L 8.8 15.38 L 8.85 15.75 L 8.89 16.12 L 8.93 16.5 L 8.97 16.88 L 9.01 17.25 L 9.05 17.62 L 9.1 18.0" fill="none" stroke="#111" stroke-width="1.09" stroke-linecap="round" stroke-linejoin="round"/>
<path d="M 7.1 13.0 L 7.61 13.01 L 8.13 13.07 L 8.64 13.17 L 9.14 13.31 L 9.62 13.49 L 10.09 13.72 L 10.54 13.98 L 10.97 14.27 L 11.37 14.6 L 11.74 14.97 L 12.08 15.36 L 12.38 15.78 L 12.65 16.22 L 12.88 16.69 L 13.08 17.17 L 13.23 17.66 L 13.34 18.17 L 13.41 18.69 L 13.43 19.2 L 13.41 19.72 L 13.35 20.24 L 13.25 20.75 L 13.1 21.24 L 12.91 21.73" fill="none" stroke="#111" stroke-width="1.09" stroke-linecap="round" stroke-linejoin="round"/>
<path d="M 4.1 19.0 L 4.1 19.08 L 4.1 19.17 L 4.1 19.25 L 4.1 19.33 L 4.1 19.42 L 4.1 19.5 L 4.1 19.58 L 4.1 19.67 L 4.1 19.75 L 4.1 19.83 L 4.1 19.92 L 4.1 20.0 L 4.1 20.08 L 4.1 20.17 L 4.1 20.25 L 4.1 20.33 L 4.1 20.42 L 4.1 20.5 L 4.1 20.58 L 4.1 20.67 L 4.1 20.75 L 4.1 20.83 L 4.1 20.92 L 4.1 21.0 L 4.1 21.0 L 4.14 21.12 L 4.18 21.25 L 4.22 21.38 L 4.26 21.5 L 4.3 21.62 L 4.35 21.75 L 4.39 21.88 L 4.43 22.0 L 4.47 22.12 L 4.51 22.25 L 4.55 22.38 L 4.6 22.5 L 4.64 22.62 L 4.68 22.75 L 4.72 22.88 L 4.76 23.0 L 4.8 23.12 L 4.85 23.25 L 4.89 23.38 L 4.93 23.5 L 4.97 23.62 L 5.01 23.75 L 5.05 23.88 L 5.1 24.0 L 5.1 24.0 L 5.56 24.02 L 6.02 23.97 L 6.47 23.85 L 6.89 23.66 L 7.28 23.4 L 7.62 23.09 L 7.91 22.72 L 8.14 22.32 L 8.3 21.88 L 8.39 21.43 L 8.41 20.96 L 8.36 20.5 L 8.23 20.05 L 8.03 19.63 L 7.77 19.25 L 7.46 18.91 L 7.09 18.62 L 6.68 18.4 L 6.25 18.24 L 5.79 18.15 L 5.33 18.14 L 4.87 18.19 L 4.42 18.32 L 4.0 18.52" fill="none" stroke="#111" stroke-width="1.09" stroke-linecap="round" stroke-linejoin="round"/>
<path d="M 14.1 4.0 L 14.24 4.36 L 14.35 4.73 L 14.45 5.1 L 14.52 5.48 L 14.56 5.86 L 14.59 6.24 L 14.58 6.63 L 14.55 7.01 L 14.5 7.39 L 14.43 7.77 L 14.33 8.14 L 14.2 8.51 L 14.06 8.86 L 13.89 9.21 L 13.7 9.54 L 13.48 9.87 L 13.25 10.17 L 13.0 10.47 L 12.73 10.74 L 12.45 11.0 L 12.15 11.24 L 11.83 11.46 L 11.5 11.66 L 11.16 11.83" fill="none" stroke="#111" stroke-width="1.09" stroke-linecap="round" stroke-linejoin="round"/>
<path d="M 14.1 10.0 L 14.35 10.09 L 14.59 10.22 L 14.81 10.36 L 15.02 10.53 L 15.21 10.72 L 15.38 10.92 L 15.53 11.15 L 15.65 11.39 L 15.74 11.64 L 15.81 11.9 L 15.86 12.16 L 15.87 12.43 L 15.86 12.7 L 15.81 12.96 L 15.74 13.22 L 15.65 13.47 L 15.53 13.71 L 15.38 13.93 L 15.21 14.14 L 15.02 14.33 L 14.81 14.5 L 14.59 14.64 L 14.35 14.76 L 14.1 14.86 L 14.1 15.0 L 14.14 15.5 L 14.18 16.0 L 14.22 16.5 L 14.26 17.0 L 14.3 17.5 L 14.35 18.0 L 14.39 18.5 L 14.43 19.0 L 14.47 19.5 L 14.51 20.0 L 14.55 20.5 L 14.6 21.0 L 14.64 21.5 L 14.68 22.0 L 14.72 22.5 L 14.76 23.0 L 14.8 23.5 L 14.85 24.0 L 14.89 24.5 L 14.93 25.0 L 14.97 25.5 L 15.01 26.0 L 15.05 26.5 L 15.1 27.0" fill="none" stroke="#111" stroke-width="1.09" stroke-linecap="round" stroke-linejoin="round"/>
</svg>
