<?xml version="1.0" encoding="UTF-8"?>
<svg xmlns="http://www.w3.org/2000/svg" viewBox="0 0 21.00 32.65">
<path d="M 12.0 4.0 L 11.88 4.42 L 11.75 4.83 L 11.63 5.25 L 11.5 5.67 L 11.38 6.08 L 11.25 6.5 L 11.13 6.92 L 11.0 7.33 L 10.88 7.75 L 10.75 8.17 L 10.63 8.58 L 10.5 9.0 L 10.38 9.42 L 10.25 9.83 L 10.13 10.25 L 10.0 10.67 L 9.88 11.08 L 9.75 11.5 L 9.63 11.92 L 9.5 12.33 L 9.38 12.75 L 9.25 13.17 L 9.13 13.58 L 9.0 14.0 L 9.0 14.0 L 9.58 14.39 L 10.13 14.82 L 10.65 15.28 L 11.13 15.78 L 11.58 16.31 L 12.0 16.87 L 12.37 17.46 L 12.71 18.07 L 13.0 18.7 L 13.25 19.35 L 13.45 20.02 L 13.61 20.7 L 13.73 21.38 L 13.79 22.08 L 13.81 22.77 L 13.79 23.47 L 13.71 24.16 L 13.59 24.85 L 13.42 25.52 L 13.21 26.18 L 12.96 26.83 L 12.66 27.46 L 12.31 28.07 L 11.93 28.65" fill="none" stroke="#111" stroke-width="1.14" stroke-linecap="round" stroke-linejoin="round"/>
<path d="M 11.0 6.0 L 11.25 6.21 L 11.5 6.42 L 11.75 6.62 L 12.0 6.83 L 12.25 7.04 L 12.5 7.25 L 12.75 7.46 L 13.0 7.67 L 13.25 7.88 L 13.5 8.08 L 13.75 8.29 L 14.0 8.5 L 14.25 8.71 L 14.5 8.92 L 14.75 9.12 L 15.0 9.33 L 15.25 9.54 L 15.5 9.75 L 15.75 9.96 L 16.0 10.17 L 16.25 10.38 L 16.5 10.58 L 16.75 10.79 L 17.0 11.0" fill="none" stroke="#111" stroke-width="1.14" stroke-linecap="round" stroke-linejoin="round"/>
<path d="M 6.0 7.0 L 6.85 6.68 L 7.74 6.51 L 8.64 6.49 L 9.53 6.62 L 10.39 6.9 L 11.19 7.32 L 11.91 7.86 L 12.53 8.52 L 13.03 9.27 L 13.4 10.09 L 13.62 10.97 L 13.7 11.87 L 13.62 12.77 L 13.4 13.64 L 13.03 14.47 L 12.53 15.22 L 11.91 15.88 L 11.19 16.42 L 10.39 16.84 L 9.53 17.12 L 8.64 17.25 L 7.74 17.23 L 6.85 17.06 L 6.0 16.74" fill="none" stroke="#111" stroke-width="1.14" stroke-linecap="round" stroke-linejoin="round"/>
<path d="M 6.0 15.0 L 5.47 15.3 L 4.99 15.69 L 4.6 16.16 L 4.29 16.7 L 4.09 17.28 L 4.0 17.89 L 4.02 18.5 L 4.15 19.1 L 4.38 19.67 L 4.72 20.19 L 5.14 20.63 L 5.64 20.99 L 6.19 21.26 L 6.78 21.42 L 7.4 21.48 L 8.01 21.42 L 8.6 21.25 L 9.15 20.98 L 9.64 20.61 L 10.06 20.16 L 10.39 19.64 L 10.62 19.07 L 10.74 18.47 L 10.75 17.85" fill="none" stroke="#111" stroke-width="1.14" stroke-linecap="round" stroke-linejoin="round"/>
<path d="M 7.0 11.0 L 6.96 10.83 L 6.92 10.67 L 6.88 10.5 L 6.84 10.33 L 6.79 10.17 L 6.75 10.0 L 6.71 9.83 L 6.67 9.67 L 6.63 9.5 L 6.59 9.33 L 6.54 9.17 L 6.5 9.0 L 6.46 8.83 L 6.42 8.67 L 6.38 8.5 L 6.34 8.33 L 6.29 8.17 L 6.25 8.0 L 6.21 7.83 L 6.17 7.67 L 6.13 7.5 L 6.09 7.33 L 6.04 7.17 L 6.0 7.0 L 6.0 7.0 L 6.17 7.0 L 6.34 7.0 L 6.5 7.0 L 6.67 7.0 L 6.84 7.0 L 7.0 7.0 L 7.17 7.0 L 7.34 7.0 L 7.5 7.0 L 7.67 7.0 L 7.84 7.0 L 8.0 7.0 L 8.17 7.0 L 8.34 7.0 L 8.5 7.0 L 8.67 7.0 L 8.84 7.0 L 9.0 7.0 L 9.17 7.0 L 9.34 7.0 L 9.5 7.0 L 9.67 7.0 L 9.84 7.0 L 10.0 7.0" fill="none" stroke="#111" stroke-width="1.14" stroke-linecap="round" stroke-linejoin="round"/>
</svg>
