<?xml version="1.0" encoding="UTF-8"?>
<svg xmlns="http://www.w3.org/2000/svg" viewBox="0 0 27.19 33.80">
<path d="M 10.76 8.0 L 10.81 8.58 L 10.85 9.17 L 10.89 9.75 L 10.93 10.33 L 10.97 10.92 L 11.01 11.5 L 11.06 12.08 L 11.1 12.67 L 11.14 13.25 L 11.18 13.83 L 11.22 14.42 L 11.26 15.0 L 11.31 15.58 L 11.35 16.17 L 11.39 16.75 L 11.43 17.33 L 11.47 17.92 L 11.51 18.5 L 11.56 19.08 L 11.6 19.67 L 11.64 20.25 L 11.68 20.83 L 11.72 21.42 L 11.76 22.0" fill="none" stroke="#111" stroke-width="1.18" stroke-linecap="round" stroke-linejoin="round"/>
<path d="M 11.76 22.0 L 11.42 22.09 L 11.08 22.21 L 10.75 22.36 L 10.44 22.53 L 10.14 22.73 L 9.85 22.95 L 9.59 23.19 L 9.34 23.45 L 9.12 23.73 L 8.91 24.02 L 8.74 24.33 L 8.58 24.66 L 8.45 24.99 L 8.35 25.34 L 8.28 25.69 L 8.23 26.04 L 8.21 26.4 L 8.22 26.76 L 8.26 27.12 L 8.32 27.47 L 8.42 27.81 L 8.54 28.15 L 8.68 28.48 L 8.85 28.79" fill="none" stroke="#111" stroke-width="1.18" stroke-linecap="round" stroke-linejoin="round"/>
<path d="M 11.76 21.0 L 12.14 21.21 L 12.49 21.45 L 12.83 21.7 L 13.16 21.98 L 13.46 22.28 L 13.75 22.59 L 14.01 22.93 L 14.26 23.28 L 14.48 23.64 L 14.68 24.02 L 14.85 24.41 L 15.0 24.81 L 15.12 25.22 L 15.21 25.64 L 15.28 26.06 L 15.33 26.48 L 15.34 26.91 L 15.33 27.33 L 15.29 27.76 L 15.22 28.18 L 15.13 28.6 L 15.01 29.01 L 14.87 29.41 L 14.7 29.8" fill="none" stroke="#111" stroke-width="1.18" stroke-linecap="round" stroke-linejoin="round"/>
<path d="M 6.76 6.0 L 7.45 5.68 L 8.19 5.48 L 8.94 5.41 L 9.7 5.48 L 10.43 5.67 L 11.12 6.0 L 11.74 6.43 L 12.28 6.97 L 12.72 7.59 L 13.04 8.28 L 13.23 9.01 L 13.3 9.77 L 13.23 10.52 L 13.04 11.26 L 12.72 11.94 L 12.28 12.57 L 11.74 13.1 L 11.12 13.54 L 10.43 13.86 L 9.7 14.05 L 8.94 14.12 L 8.19 14.05 L 7.45 13.85 L 6.76 13.53" fill="none" stroke="#111" stroke-width="1.18" stroke-linecap="round" stroke-linejoin="round"/>
<path d="M 14.76 10.0 L 14.11 10.07 L 13.47 10.17 L 12.83 10.3 L 12.2 10.47 L 11.58 10.68 L 10.97 10.92 L 10.38 11.2 L 9.8 11.5 L 9.24 11.84 L 8.7 12.21 L 8.19 12.61 L 7.69 13.03 L 7.22 13.48 L 6.77 13.96 L 6.36 14.46 L 5.97 14.99 L 5.61 15.53 L 5.28 16.1 L 4.98 16.68 L 4.72 17.28 L 4.49 17.89 L 4.29 18.51 L 4.13 19.14 L 4.0 19.79" fill="none" stroke="#111" stroke-width="1.18" stroke-linecap="round" stroke-linejoin="round"/>
<path d="M 7.76 14.0 L 7.76 14.17 L 7.76 14.33 L 7.76 14.5 L 7.76 14.67 L 7.76 14.83 L 7.76 15.0 L 7.76 15.17 L 7.76 15.33 L 7.76 15.5 L 7.76 15.67 L 7.76 15.83 L 7.76 16.0 L 7.76 16.17 L 7.76 16.33 L 7.76 16.5 L 7.76 16.67 L 7.76 16.83 L 7.76 17.0 L 7.76 17.17 L 7.76 17.33 L 7.76 17.5 L 7.76 17.67 L 7.76 17.83 L 7.76 18.0" fill="none" stroke="#111" stroke-width="1.18" stroke-linecap="round" stroke-linejoin="round"/>
<path d="M 6.76 18.0 L 6.72 18.38 L 6.68 18.75 L 6.64 19.12 L 6.6 19.5 L 6.56 19.88 L 6.51 20.25 L 6.47 20.62 L 6.43 21.0 L 6.39 21.38 L 6.35 21.75 L 6.31 22.12 L 6.26 22.5 L 6.22 22.88 L 6.18 23.25 L 6.14 23.62 L 6.1 24.0 L 6.06 24.38 L 6.01 24.75 L 5.97 25.12 L 5.93 25.5 L 5.89 25.88 L 5.85 26.25 L 5.81 26.62 L 5.76 27.0" fill="none" stroke="#111" stroke-width="1.18" stroke-linecap="round" stroke-linejoin="round"/>
<path d="M 11.76 12.0 L 11.93 12.17 L 12.1 12.33 L 12.26 12.5 L 12.43 12.67 L 12.6 12.83 L 12.76 13.0 L 12.93 13.17 L 13.1 13.33 L 13.26 13.5 L 13.43 13.67 L 13.6 13.83 L 13.76 14.0 L 13.93 14.17 L 14.1 14.33 L 14.26 14.5 L 14.43 14.67 L 14.6 14.83 L 14.76 15.0 L 14.93 15.17 L 15.1 15.33 L 15.26 15.5 L 15.43 15.67 L 15.6 15.83 L 15.76 16.0" fill="none" stroke="#111" stroke-width="1.18" stroke-linecap="round" stroke-linejoin="round"/>
<path d="M 16.76 29.0 L 16.17 28.44 L 15.64 27.81 L 15.18 27.13 L 14.81 26.4 L 14.51 25.63 L 14.3 24.84 L 14.18 24.03 L 14.15 23.21 L 14.21 22.39 L 14.37 21.59 L 14.61 20.8 L 14.93 20.05 L 15.34 19.34 L 15.82 18.68 L 16.38 18.07 L 16.99 17.53 L 17.67 17.06 L 18.39 16.67 L 19.15 16.36 L 19.94 16.14 L 20.75 16.0 L 21.56 15.96 L 22.38 16.01 L 23.19 16.15" fill="none" stroke="#111" stroke-width="1.18" stroke-linecap="round" stroke-linejoin="round"/>
<path d="M 17.76 4.0 L 17.54 4.44 L 17.34 4.91 L 17.18 5.38 L 17.06 5.86 L 16.97 6.36 L 16.92 6.85 L 16.91 7.35 L 16.93 7.85 L 16.99 8.35 L 17.09 8.84 L 17.22 9.32 L 17.39 9.79 L 17.59 10.25 L 17.83 10.69 L 18.09 11.11 L 18.39 11.51 L 18.72 11.89 L 19.07 12.24 L 19.45 12.57 L 19.86 12.86 L 20.28 13.13 L 20.72 13.36 L 21.18 13.56 L 21.65 13.72" fill="none" stroke="#111" stroke-width="1.18" stroke-linecap="round" stroke-linejoin="round"/>
</svg>
