<?xml version="1.0" encoding="UTF-8"?>
<svg xmlns="http://www.w3.org/2000/svg" viewBox="0 0 31.55 38.00">
<path d="M 17.55 4.0 L 16.19 4.39 L 14.87 4.9 L 13.58 5.5 L 12.35 6.2 L 11.18 7.01 L 10.08 7.9 L 9.05 8.87 L 8.1 9.93 L 7.24 11.05 L 6.47 12.24 L 5.8 13.49 L 5.23 14.79 L 4.76 16.13 L 4.41 17.5 L 4.16 18.9 L 4.02 20.31 L 4.0 21.73 L 4.09 23.14 L 4.29 24.55 L 4.6 25.93 L 5.03 27.28 L 5.55 28.6 L 6.18 29.87 L 6.91 31.08" fill="none" stroke="#111" stroke-width="1.33" stroke-linecap="round" stroke-linejoin="round"/>
<path d="M 17.55 4.0 L 17.97 4.21 L 18.39 4.42 L 18.8 4.62 L 19.22 4.83 L 19.64 5.04 L 20.05 5.25 L 20.47 5.46 L 20.89 5.67 L 21.3 5.88 L 21.72 6.08 L 22.14 6.29 L 22.55 6.5 L 22.97 6.71 L 23.39 6.92 L 23.8 7.12 L 24.22 7.33 L 24.64 7.54 L 25.05 7.75 L 25.47 7.96 L 25.89 8.17 L 26.3 8.38 L 26.72 8.58 L 27.14 8.79 L 27.55 9.0" fill="none" stroke="#111" stroke-width="1.33" stroke-linecap="round" stroke-linejoin="round"/>
<path d="M 17.55 8.0 L 17.76 8.0 L 17.97 8.0 L 18.18 8.0 L 18.39 8.0 L 18.6 8.0 L 18.8 8.0 L 19.01 8.0 L 19.22 8.0 L 19.43 8.0 L 19.64 8.0 L 19.85 8.0 L 20.05 8.0 L 20.26 8.0 L 20.47 8.0 L 20.68 8.0 L 20.89 8.0 L 21.1 8.0 L 21.3 8.0 L 21.51 8.0 L 21.72 8.0 L 21.93 8.0 L 22.14 8.0 L 22.35 8.0 L 22.55 8.0" fill="none" stroke="#111" stroke-width="1.33" stroke-linecap="round" stroke-linejoin="round"/>
<path d="M 17.55 12.0 L 17.76 11.96 L 17.97 11.92 L 18.18 11.88 L 18.39 11.83 L 18.6 11.79 L 18.8 11.75 L 19.01 11.71 L 19.22 11.67 L 19.43 11.62 L 19.64 11.58 L 19.85 11.54 L 20.05 11.5 L 20.26 11.46 L 20.47 11.42 L 20.68 11.38 L 20.89 11.33 L 21.1 11.29 L 21.3 11.25 L 21.51 11.21 L 21.72 11.17 L 21.93 11.12 L 22.14 11.08 L 22.35 11.04 L 22.55 11.0" fill="none" stroke="#111" stroke-width="1.33" stroke-linecap="round" stroke-linejoin="round"/>
<path d="M 18.55 8.0 L 18.6 8.17 L 18.64 8.33 L 18.68 8.5 L 18.72 8.67 L 18.76 8.83 L 18.8 9.0 L 18.85 9.17 L 18.89 9.33 L 18.93 9.5 L 18.97 9.67 L 19.01 9.83 L 19.05 10.0 L 19.1 10.17 L 19.14 10.33 L 19.18 10.5 L 19.22 10.67 L 19.26 10.83 L 19.3 11.0 L 19.35 11.17 L 19.39 11.33 L 19.43 11.5 L 19.47 11.67 L 19.51 11.83 L 19.55 12.0" fill="none" stroke="#111" stroke-width="1.33" stroke-linecap="round" stroke-linejoin="round"/>
<path d="M 22.55 8.0 L 22.47 8.17 L 22.39 8.33 L 22.3 8.5 L 22.22 8.67 L 22.14 8.83 L 22.05 9.0 L 21.97 9.17 L 21.89 9.33 L 21.8 9.5 L 21.72 9.67 L 21.64 9.83 L 21.55 10.0 L 21.47 10.17 L 21.39 10.33 L 21.3 10.5 L 21.22 10.67 L 21.14 10.83 L 21.05 11.0 L 20.97 11.17 L 20.89 11.33 L 20.8 11.5 L 20.72 11.67 L 20.64 11.83 L 20.55 12.0" fill="none" stroke="#111" stroke-width="1.33" stroke-linecap="round" stroke-linejoin="round"/>
<path d="M 20.55 12.0 L 20.51 12.12 L 20.47 12.25 L 20.43 12.38 L 20.39 12.5 L 20.35 12.62 L 20.3 12.75 L 20.26 12.88 L 20.22 13.0 L 20.18 13.12 L 20.14 13.25 L 20.1 13.38 L 20.05 13.5 L 20.01 13.62 L 19.97 13.75 L 19.93 13.88 L 19.89 14.0 L 19.85 14.12 L 19.8 14.25 L 19.76 14.38 L 19.72 14.5 L 19.68 14.62 L 19.64 14.75 L 19.6 14.88 L 19.55 15.0" fill="none" stroke="#111" stroke-width="1.33" stroke-linecap="round" stroke-linejoin="round"/>
<path d="M 14.55 20.0 L 14.02 18.85 L 13.19 17.89 L 12.13 17.2 L 10.91 16.83 L 9.64 16.82 L 8.42 17.15 L 7.34 17.81 L 6.48 18.74 L 5.91 19.88 L 5.68 21.12 L 5.81 22.39 L 6.28 23.56 L 7.05 24.57 L 8.08 25.31 L 9.27 25.75 L 10.53 25.84 L 11.77 25.57 L 12.89 24.97 L 13.8 24.09 L 14.43 22.99 L 14.73 21.75 L 14.67 20.49 L 14.27 19.29 L 13.55 18.24 L 18.55 27.0 L 18.35 27.29 L 18.14 27.58 L 17.93 27.88 L 17.72 28.17 L 17.51 28.46 L 17.3 28.75 L 17.1 29.04 L 16.89 29.33 L 16.68 29.62 L 16.47 29.92 L 16.26 30.21 L 16.05 30.5 L 15.85 30.79 L 15.64 31.08 L 15.43 31.38 L 15.22 31.67 L 15.01 31.96 L 14.8 32.25 L 14.6 32.54 L 14.39 32.83 L 14.18 33.12 L 13.97 33.42 L 13.76 33.71 L 13.55 34.0 L 13.55 34.0 L 13.47 33.79 L 13.39 33.58 L 13.3 33.38 L 13.22 33.17 L 13.14 32.96 L 13.05 32.75 L 12.97 32.54 L 12.89 32.33 L 12.8 32.12 L 12.72 31.92 L 12.64 31.71 L 12.55 31.5 L 12.47 31.29 L 12.39 31.08 L 12.3 30.88 L 12.22 30.67 L 12.14 30.46 L 12.05 30.25 L 11.97 30.04 L 11.89 29.83 L 11.8 29.62 L 11.72 29.42 L 11.64 29.21 L 11.55 29.0" fill="none" stroke="#111" stroke-width="1.33" stroke-linecap="round" stroke-linejoin="round"/>
<path d="M 17.55 15.0 L 17.76 15.0 L 17.97 15.0 L 18.18 15.0 L 18.39 15.0 L 18.6 15.0 L 18.8 15.0 L 19.01 15.0 L 19.22 15.0 L 19.43 15.0 L 19.64 15.0 L 19.85 15.0 L 20.05 15.0 L 20.26 15.0 L 20.47 15.0 L 20.68 15.0 L 20.89 15.0 L 21.1 15.0 L 21.3 15.0 L 21.51 15.0 L 21.72 15.0 L 21.93 15.0 L 22.14 15.0 L 22.35 15.0 L 22.55 15.0 L 22.55 15.0 L 22.41 15.31 L 22.28 15.64 L 22.18 15.97 L 22.1 16.31 L 22.05 16.65 L 22.03 16.99 L 22.03 17.34 L 22.05 17.69 L 22.1 18.03 L 22.18 18.37 L 22.28 18.7 L 22.41 19.02 L 22.55 19.34 L 22.72 19.64 L 22.92 19.93 L 23.13 20.2 L 23.36 20.46 L 23.61 20.69 L 23.88 20.91 L 24.16 21.11 L 24.46 21.29 L 24.77 21.45 L 25.09 21.58 L 25.42 21.69 L 25.55 22.0 L 25.6 21.83 L 25.64 21.67 L 25.68 21.5 L 25.72 21.33 L 25.76 21.17 L 25.8 21.0 L 25.85 20.83 L 25.89 20.67 L 25.93 20.5 L 25.97 20.33 L 26.01 20.17 L 26.05 20.0 L 26.1 19.83 L 26.14 19.67 L 26.18 19.5 L 26.22 19.33 L 26.26 19.17 L 26.3 19.0 L 26.35 18.83 L 26.39 18.67 L 26.43 18.5 L 26.47 18.33 L 26.51 18.17 L 26.55 18.0" fill="none" stroke="#111" stroke-width="1.33" stroke-linecap="round" stroke-linejoin="round"/>
<path d="M 17.55 17.0 L 17.8 17.04 L 18.05 17.08 L 18.3 17.12 L 18.55 17.17 L 18.8 17.21 L 19.05 17.25 L 19.3 17.29 L 19.55 17.33 L 19.8 17.38 L 20.05 17.42 L 20.3 17.46 L 20.55 17.5 L 20.8 17.54 L 21.05 17.58 L 21.3 17.62 L 21.55 17.67 L 21.8 17.71 L 22.05 17.75 L 22.3 17.79 L 22.55 17.83 L 22.8 17.88 L 23.05 17.92 L 23.3 17.96 L 23.55 18.0" fill="none" stroke="#111" stroke-width="1.33" stroke-linecap="round" stroke-linejoin="round"/>
</svg>
