<?xml version="1.0" encoding="UTF-8"?>
<svg xmlns="http://www.w3.org/2000/svg" viewBox="0 0 28.00 35.69">
<path d="M 13.0 4.0 L 12.75 4.56 L 12.53 5.12 L 12.32 5.69 L 12.13 6.27 L 11.97 6.85 L 11.83 7.45 L 11.71 8.04 L 11.61 8.64 L 11.53 9.24 L 11.47 9.85 L 11.44 10.46 L 11.43 11.06 L 11.44 11.67 L 11.47 12.28 L 11.53 12.88 L 11.61 13.49 L 11.71 14.08 L 11.83 14.68 L 11.97 15.27 L 12.13 15.86 L 12.32 16.43 L 12.53 17.01 L 12.75 17.57 L 13.0 18.13 L 13.0 18.0 L 12.96 18.5 L 12.92 19.0 L 12.88 19.5 L 12.83 20.0 L 12.79 20.5 L 12.75 21.0 L 12.71 21.5 L 12.67 22.0 L 12.62 22.5 L 12.58 23.0 L 12.54 23.5 L 12.5 24.0 L 12.46 24.5 L 12.42 25.0 L 12.38 25.5 L 12.33 26.0 L 12.29 26.5 L 12.25 27.0 L 12.21 27.5 L 12.17 28.0 L 12.12 28.5 L 12.08 29.0 L 12.04 29.5 L 12.0 30.0" fill="none" stroke="#111" stroke-width="1.25" stroke-linecap="round" stroke-linejoin="round"/>
<path d="M 7.0 7.0 L 6.88 7.5 L 6.75 8.0 L 6.62 8.5 L 6.5 9.0 L 6.38 9.5 L 6.25 10.0 L 6.12 10.5 L 6.0 11.0 L 5.88 11.5 L 5.75 12.0 L 5.62 12.5 L 5.5 13.0 L 5.38 13.5 L 5.25 14.0 L 5.12 14.5 L 5.0 15.0 L 4.88 15.5 L 4.75 16.0 L 4.62 16.5 L 4.5 17.0 L 4.38 17.5 L 4.25 18.0 L 4.12 18.5 L 4.0 19.0" fill="none" stroke="#111" stroke-width="1.25" stroke-linecap="round" stroke-linejoin="round"/>
<path d="M 6.0 12.0 L 6.45 12.2 L 6.88 12.43 L 7.29 12.7 L 7.68 13.0 L 8.04 13.33 L 8.37 13.69 L 8.68 14.08 L 8.94 14.49 L 9.17 14.93 L 9.37 15.38 L 9.52 15.84 L 9.64 16.32 L 9.72 16.8 L 9.75 17.29 L 9.75 17.79 L 9.7 18.27 L 9.61 18.76 L 9.48 19.23 L 9.32 19.69 L 9.11 20.14 L 8.87 20.57 L 8.59 20.97 L 8.28 21.35 L 7.94 21.71 L 8.0 22.0 L 8.0 22.29 L 8.0 22.58 L 8.0 22.88 L 8.0 23.17 L 8.0 23.46 L 8.0 23.75 L 8.0 24.04 L 8.0 24.33 L 8.0 24.62 L 8.0 24.92 L 8.0 25.21 L 8.0 25.5 L 8.0 25.79 L 8.0 26.08 L 8.0 26.38 L 8.0 26.67 L 8.0 26.96 L 8.0 27.25 L 8.0 27.54 L 8.0 27.83 L 8.0 28.12 L 8.0 28.42 L 8.0 28.71 L 8.0 29.0" fill="none" stroke="#111" stroke-width="1.25" stroke-linecap="round" stroke-linejoin="round"/>
<path d="M 19.0 7.0 L 18.73 8.0 L 18.47 9.01 L 18.23 10.02 L 18.0 11.03 L 17.8 12.05 L 17.6 13.07 L 17.43 14.09 L 17.27 15.12 L 17.12 16.15 L 17.0 17.18 L 16.89 18.21 L 16.79 19.24 L 16.71 20.28 L 16.65 21.32 L 16.61 22.35 L 16.58 23.39 L 16.57 24.43 L 16.57 25.47 L 16.59 26.51 L 16.63 27.54 L 16.68 28.58 L 16.75 29.62 L 16.84 30.65 L 16.94 31.69" fill="none" stroke="#111" stroke-width="1.25" stroke-linecap="round" stroke-linejoin="round"/>
<path d="M 18.0 12.0 L 18.25 12.17 L 18.5 12.33 L 18.75 12.5 L 19.0 12.67 L 19.25 12.83 L 19.5 13.0 L 19.75 13.17 L 20.0 13.33 L 20.25 13.5 L 20.5 13.67 L 20.75 13.83 L 21.0 14.0 L 21.25 14.17 L 21.5 14.33 L 21.75 14.5 L 22.0 14.67 L 22.25 14.83 L 22.5 15.0 L 22.75 15.17 L 23.0 15.33 L 23.25 15.5 L 23.5 15.67 L 23.75 15.83 L 24.0 16.0" fill="none" stroke="#111" stroke-width="1.25" stroke-linecap="round" stroke-linejoin="round"/>
</svg>
