<?xml version="1.0" encoding="UTF-8"?>
<svg xmlns="http://www.w3.org/2000/svg" viewBox="0 0 20.00 33.00">
<path d="M 16.0 4.0 L 15.85 4.57 L 15.71 5.14 L 15.57 5.71 L 15.45 6.28 L 15.34 6.86 L 15.23 7.44 L 15.14 8.02 L 15.05 8.6 L 14.98 9.18 L 14.91 9.77 L 14.86 10.35 L 14.81 10.94 L 14.77 11.52 L 14.75 12.11 L 14.73 12.7 L 14.72 13.28 L 14.72 13.87 L 14.73 14.46 L 14.75 15.05 L 14.78 15.63 L 14.82 16.22 L 14.87 16.8 L 14.93 17.39 L 15.0 17.97 L 15.0 18.0 L 14.83 18.46 L 14.67 18.92 L 14.5 19.38 L 14.33 19.83 L 14.17 20.29 L 14.0 20.75 L 13.83 21.21 L 13.67 21.67 L 13.5 22.12 L 13.33 22.58 L 13.17 23.04 L 13.0 23.5 L 12.83 23.96 L 12.67 24.42 L 12.5 24.88 L 12.33 25.33 L 12.17 25.79 L 12.0 26.25 L 11.83 26.71 L 11.67 27.17 L 11.5 27.62 L 11.33 28.08 L 11.17 28.54 L 11.0 29.0" fill="none" stroke="#111" stroke-width="1.16" stroke-linecap="round" stroke-linejoin="round"/>
<path d="M 8.0 13.0 L 7.83 12.96 L 7.67 12.92 L 7.5 12.88 L 7.33 12.83 L 7.17 12.79 L 7.0 12.75 L 6.83 12.71 L 6.67 12.67 L 6.5 12.62 L 6.33 12.58 L 6.17 12.54 L 6.0 12.5 L 5.83 12.46 L 5.67 12.42 L 5.5 12.38 L 5.33 12.33 L 5.17 12.29 L 5.0 12.25 L 4.83 12.21 L 4.67 12.17 L 4.5 12.12 L 4.33 12.08 L 4.17 12.04 L 4.0 12.0 L 4.0 12.0 L 4.17 12.46 L 4.33 12.92 L 4.5 13.38 L 4.67 13.83 L 4.83 14.29 L 5.0 14.75 L 5.17 15.21 L 5.33 15.67 L 5.5 16.12 L 5.67 16.58 L 5.83 17.04 L 6.0 17.5 L 6.17 17.96 L 6.33 18.42 L 6.5 18.88 L 6.67 19.33 L 6.83 19.79 L 7.0 20.25 L 7.17 20.71 L 7.33 21.17 L 7.5 21.62 L 7.67 22.08 L 7.83 22.54 L 8.0 23.0 L 8.0 23.0 L 8.21 22.54 L 8.42 22.08 L 8.62 21.62 L 8.83 21.17 L 9.04 20.71 L 9.25 20.25 L 9.46 19.79 L 9.67 19.33 L 9.88 18.88 L 10.08 18.42 L 10.29 17.96 L 10.5 17.5 L 10.71 17.04 L 10.92 16.58 L 11.12 16.12 L 11.33 15.67 L 11.54 15.21 L 11.75 14.75 L 11.96 14.29 L 12.17 13.83 L 12.38 13.38 L 12.58 12.92 L 12.79 12.46 L 13.0 12.0 L 13.0 12.0 L 12.92 11.96 L 12.83 11.92 L 12.75 11.88 L 12.67 11.83 L 12.58 11.79 L 12.5 11.75 L 12.42 11.71 L 12.33 11.67 L 12.25 11.62 L 12.17 11.58 L 12.08 11.54 L 12.0 11.5 L 11.92 11.46 L 11.83 11.42 L 11.75 11.38 L 11.67 11.33 L 11.58 11.29 L 11.5 11.25 L 11.42 11.21 L 11.33 11.17 L 11.25 11.12 L 11.17 11.08 L 11.08 11.04 L 11.0 11.0 L 11.0 11.0 L 10.92 11.12 L 10.83 11.25 L 10.75 11.38 L 10.67 11.5 L 10.58 11.62 L 10.5 11.75 L 10.42 11.88 L 10.33 12.0 L 10.25 12.12 L 10.17 12.25 L 10.08 12.38 L 10.0 12.5 L 9.92 12.62 L 9.83 12.75 L 9.75 12.88 L 9.67 13.0 L 9.58 13.12 L 9.5 13.25 L 9.42 13.38 L 9.33 13.5 L 9.25 13.62 L 9.17 13.75 L 9.08 13.88 L 9.0 14.0" fill="none" stroke="#111" stroke-width="1.16" stroke-linecap="round" stroke-linejoin="round"/>
<path d="M 6.0 17.0 L 6.08 16.92 L 6.17 16.83 L 6.25 16.75 L 6.33 16.67 L 6.42 16.58 L 6.5 16.5 L 6.58 16.42 L 6.67 16.33 L 6.75 16.25 L 6.83 16.17 L 6.92 16.08 L 7.0 16.0 L 7.08 15.92 L 7.17 15.83 L 7.25 15.75 L 7.33 15.67 L 7.42 15.58 L 7.5 15.5 L 7.58 15.42 L 7.67 15.33 L 7.75 15.25 L 7.83 15.17 L 7.92 15.08 L 8.0 15.0" fill="none" stroke="#111" stroke-width="1.16" stroke-linecap="round" stroke-linejoin="round"/>
<path d="M 9.0 15.0 L 9.04 15.08 L 9.08 15.17 L 9.12 15.25 L 9.17 15.33 L 9.21 15.42 L 9.25 15.5 L 9.29 15.58 L 9.33 15.67 L 9.38 15.75 L 9.42 15.83 L 9.46 15.92 L 9.5 16.0 L 9.54 16.08 L 9.58 16.17 L 9.62 16.25 L 9.67 16.33 L 9.71 16.42 L 9.75 16.5 L 9.79 16.58 L 9.83 16.67 L 9.88 16.75 L 9.92 16.83 L 9.96 16.92 L 10.0 17.0" fill="none" stroke="#111" stroke-width="1.16" stroke-linecap="round" stroke-linejoin="round"/>
</svg>
