<?xml version="1.0" encoding="UTF-8"?>
<svg xmlns="http://www.w3.org/2000/svg" viewBox="0 0 21.00 32.81">
<path d="M 5.0 4.0 L 5.13 5.03 L 5.26 6.07 L 5.39 7.1 L 5.52 8.13 L 5.65 9.17 L 5.78 10.2 L 5.9 11.24 L 6.03 12.27 L 6.16 13.3 L 6.29 14.34 L 6.42 15.37 L 6.55 16.4 L 6.68 17.44 L 6.81 18.47 L 6.94 19.5 L 7.07 20.54 L 7.2 21.57 L 7.33 22.61 L 7.45 23.64 L 7.58 24.67 L 7.71 25.71 L 7.84 26.74 L 7.97 27.77 L 8.1 28.81" fill="none" stroke="#111" stroke-width="1.15" stroke-linecap="round" stroke-linejoin="round"/>
<path d="M 11.0 4.0 L 10.63 4.45 L 10.29 4.93 L 9.99 5.44 L 9.74 5.96 L 9.53 6.51 L 9.37 7.07 L 9.25 7.64 L 9.18 8.23 L 9.15 8.81 L 9.18 9.4 L 9.25 9.98 L 9.37 10.55 L 9.53 11.11 L 9.74 11.66 L 10.0 12.19 L 10.29 12.69 L 10.63 13.17 L 11.0 13.62 L 11.41 14.04 L 11.85 14.42 L 12.33 14.77 L 12.83 15.07 L 13.35 15.34 L 13.89 15.56 L 14.0 16.0 L 13.96 16.46 L 13.92 16.92 L 13.88 17.38 L 13.83 17.83 L 13.79 18.29 L 13.75 18.75 L 13.71 19.21 L 13.67 19.67 L 13.62 20.12 L 13.58 20.58 L 13.54 21.04 L 13.5 21.5 L 13.46 21.96 L 13.42 22.42 L 13.38 22.88 L 13.33 23.33 L 13.29 23.79 L 13.25 24.25 L 13.21 24.71 L 13.17 25.17 L 13.12 25.62 L 13.08 26.08 L 13.04 26.54 L 13.0 27.0" fill="none" stroke="#111" stroke-width="1.15" stroke-linecap="round" stroke-linejoin="round"/>
<path d="M 10.0 7.0 L 10.21 7.12 L 10.42 7.25 L 10.62 7.38 L 10.83 7.5 L 11.04 7.62 L 11.25 7.75 L 11.46 7.88 L 11.67 8.0 L 11.88 8.12 L 12.08 8.25 L 12.29 8.38 L 12.5 8.5 L 12.71 8.62 L 12.92 8.75 L 13.12 8.88 L 13.33 9.0 L 13.54 9.12 L 13.75 9.25 L 13.96 9.38 L 14.17 9.5 L 14.38 9.62 L 14.58 9.75 L 14.79 9.88 L 15.0 10.0" fill="none" stroke="#111" stroke-width="1.15" stroke-linecap="round" stroke-linejoin="round"/>
<path d="M 5.0 7.0 L 5.12 7.08 L 5.25 7.17 L 5.38 7.25 L 5.5 7.33 L 5.62 7.42 L 5.75 7.5 L 5.88 7.58 L 6.0 7.67 L 6.12 7.75 L 6.25 7.83 L 6.38 7.92 L 6.5 8.0 L 6.62 8.08 L 6.75 8.17 L 6.88 8.25 L 7.0 8.33 L 7.12 8.42 L 7.25 8.5 L 7.38 8.58 L 7.5 8.67 L 7.62 8.75 L 7.75 8.83 L 7.88 8.92 L 8.0 9.0" fill="none" stroke="#111" stroke-width="1.15" stroke-linecap="round" stroke-linejoin="round"/>
<path d="M 4.0 23.0 L 4.54 23.04 L 5.08 23.08 L 5.62 23.12 L 6.17 23.17 L 6.71 23.21 L 7.25 23.25 L 7.79 23.29 L 8.33 23.33 L 8.88 23.38 L 9.42 23.42 L 9.96 23.46 L 10.5 23.5 L 11.04 23.54 L 11.58 23.58 L 12.13 23.62 L 12.67 23.67 L 13.21 23.71 L 13.75 23.75 L 14.29 23.79 L 14.83 23.83 L 15.38 23.88 L 15.92 23.92 L 16.46 23.96 L 17.0 24.0" fill="none" stroke="#111" stroke-width="1.15" stroke-linecap="round" stroke-linejoin="round"/>
</svg>
