<?xml version="1.0" encoding="UTF-8"?>
<svg xmlns="http://www.w3.org/2000/svg" viewBox="0 0 23.92 31.00">
<path d="M 6.92 4.0 L 6.48 4.4 L 6.07 4.84 L 5.69 5.3 L 5.34 5.79 L 5.04 6.31 L 4.77 6.84 L 4.53 7.39 L 4.34 7.96 L 4.19 8.54 L 4.09 9.13 L 4.02 9.72 L 4.0 10.32 L 4.02 10.92 L 4.09 11.52 L 4.19 12.11 L 4.34 12.69 L 4.53 13.25 L 4.77 13.81 L 5.04 14.34 L 5.34 14.85 L 5.69 15.34 L 6.07 15.81 L 6.48 16.24 L 6.92 16.65 L 6.92 17.0 L 6.88 17.42 L 6.84 17.83 L 6.8 18.25 L 6.75 18.67 L 6.71 19.08 L 6.67 19.5 L 6.63 19.92 L 6.59 20.33 L 6.55 20.75 L 6.5 21.17 L 6.46 21.58 L 6.42 22.0 L 6.38 22.42 L 6.34 22.83 L 6.3 23.25 L 6.25 23.67 L 6.21 24.08 L 6.17 24.5 L 6.13 24.92 L 6.09 25.33 L 6.05 25.75 L 6.0 26.17 L 5.96 26.58 L 5.92 27.0" fill="none" stroke="#111" stroke-width="1.09" stroke-linecap="round" stroke-linejoin="round"/>
<path d="M 5.92 7.0 L 6.05 7.17 L 6.17 7.33 L 6.3 7.5 L 6.42 7.67 L 6.55 7.83 L 6.67 8.0 L 6.8 8.17 L 6.92 8.33 L 7.05 8.5 L 7.17 8.67 L 7.3 8.83 L 7.42 9.0 L 7.55 9.17 L 7.67 9.33 L 7.8 9.5 L 7.92 9.67 L 8.05 9.83 L 8.17 10.0 L 8.3 10.17 L 8.42 10.33 L 8.55 10.5 L 8.67 10.67 L 8.8 10.83 L 8.92 11.0" fill="none" stroke="#111" stroke-width="1.09" stroke-linecap="round" stroke-linejoin="round"/>
<path d="M 13.92 4.0 L 13.42 4.38 L 12.95 4.81 L 12.53 5.27 L 12.14 5.77 L 11.8 6.3 L 11.5 6.86 L 11.26 7.44 L 11.06 8.04 L 10.92 8.65 L 10.83 9.28 L 10.8 9.91 L 10.82 10.54 L 10.9 11.16 L 11.03 11.78 L 11.21 12.39 L 11.44 12.97 L 11.73 13.54 L 12.06 14.07 L 12.43 14.58 L 12.85 15.05 L 13.31 15.48 L 13.8 15.88 L 14.33 16.22 L 14.88 16.53 L 14.92 17.0 L 14.92 17.42 L 14.92 17.83 L 14.92 18.25 L 14.92 18.67 L 14.92 19.08 L 14.92 19.5 L 14.92 19.92 L 14.92 20.33 L 14.92 20.75 L 14.92 21.17 L 14.92 21.58 L 14.92 22.0 L 14.92 22.42 L 14.92 22.83 L 14.92 23.25 L 14.92 23.67 L 14.92 24.08 L 14.92 24.5 L 14.92 24.92 L 14.92 25.33 L 14.92 25.75 L 14.92 26.17 L 14.92 26.58 L 14.92 27.0" fill="none" stroke="#111" stroke-width="1.09" stroke-linecap="round" stroke-linejoin="round"/>
<path d="M 12.92 7.0 L 13.21 7.21 L 13.5 7.42 L 13.8 7.62 L 14.09 7.83 L 14.38 8.04 L 14.67 8.25 L 14.96 8.46 L 15.25 8.67 L 15.55 8.88 L 15.84 9.08 L 16.13 9.29 L 16.42 9.5 L 16.71 9.71 L 17.0 9.92 L 17.3 10.12 L 17.59 10.33 L 17.88 10.54 L 18.17 10.75 L 18.46 10.96 L 18.75 11.17 L 19.05 11.38 L 19.34 11.58 L 19.63 11.79 L 19.92 12.0" fill="none" stroke="#111" stroke-width="1.09" stroke-linecap="round" stroke-linejoin="round"/>
</svg>
