<?xml version="1.0" encoding="UTF-8"?>
<svg xmlns="http://www.w3.org/2000/svg" viewBox="0 0 27.00 34.00">
<path d="M 7.0 4.0 L 7.5 4.29 L 7.98 4.62 L 8.42 4.99 L 8.84 5.4 L 9.21 5.84 L 9.55 6.31 L 9.85 6.81 L 10.11 7.32 L 10.32 7.86 L 10.49 8.42 L 10.61 8.99 L 10.68 9.56 L 10.71 10.14 L 10.68 10.72 L 10.61 11.3 L 10.49 11.86 L 10.32 12.42 L 10.11 12.96 L 9.85 13.48 L 9.55 13.97 L 9.21 14.44 L 8.83 14.88 L 8.42 15.29 L 7.97 15.66 L 8.0 16.0 L 8.08 16.54 L 8.17 17.08 L 8.25 17.62 L 8.33 18.17 L 8.42 18.71 L 8.5 19.25 L 8.58 19.79 L 8.67 20.33 L 8.75 20.88 L 8.83 21.42 L 8.92 21.96 L 9.0 22.5 L 9.08 23.04 L 9.17 23.58 L 9.25 24.12 L 9.33 24.67 L 9.42 25.21 L 9.5 25.75 L 9.58 26.29 L 9.67 26.83 L 9.75 27.38 L 9.83 27.92 L 9.92 28.46 L 10.0 29.0" fill="none" stroke="#111" stroke-width="1.19" stroke-linecap="round" stroke-linejoin="round"/>
<path d="M 17.0 4.0 L 16.59 4.5 L 16.22 5.04 L 15.88 5.6 L 15.59 6.18 L 15.34 6.78 L 15.13 7.39 L 14.97 8.02 L 14.85 8.66 L 14.78 9.31 L 14.75 9.96 L 14.78 10.61 L 14.85 11.26 L 14.96 11.9 L 15.12 12.53 L 15.33 13.15 L 15.58 13.75 L 15.87 14.33 L 16.2 14.89 L 16.57 15.42 L 16.98 15.93 L 17.43 16.41 L 17.9 16.85 L 18.41 17.26 L 18.95 17.63 L 19.0 18.0 L 18.92 18.5 L 18.83 19.0 L 18.75 19.5 L 18.67 20.0 L 18.58 20.5 L 18.5 21.0 L 18.42 21.5 L 18.33 22.0 L 18.25 22.5 L 18.17 23.0 L 18.08 23.5 L 18.0 24.0 L 17.92 24.5 L 17.83 25.0 L 17.75 25.5 L 17.67 26.0 L 17.58 26.5 L 17.5 27.0 L 17.42 27.5 L 17.33 28.0 L 17.25 28.5 L 17.17 29.0 L 17.08 29.5 L 17.0 30.0" fill="none" stroke="#111" stroke-width="1.19" stroke-linecap="round" stroke-linejoin="round"/>
<path d="M 9.0 7.0 L 8.79 7.29 L 8.58 7.58 L 8.37 7.88 L 8.17 8.17 L 7.96 8.46 L 7.75 8.75 L 7.54 9.04 L 7.33 9.33 L 7.12 9.62 L 6.92 9.92 L 6.71 10.21 L 6.5 10.5 L 6.29 10.79 L 6.08 11.08 L 5.88 11.38 L 5.67 11.67 L 5.46 11.96 L 5.25 12.25 L 5.04 12.54 L 4.83 12.83 L 4.62 13.12 L 4.42 13.42 L 4.21 13.71 L 4.0 14.0" fill="none" stroke="#111" stroke-width="1.19" stroke-linecap="round" stroke-linejoin="round"/>
<path d="M 16.0 6.0 L 16.29 6.25 L 16.58 6.5 L 16.88 6.75 L 17.17 7.0 L 17.46 7.25 L 17.75 7.5 L 18.04 7.75 L 18.33 8.0 L 18.62 8.25 L 18.92 8.5 L 19.21 8.75 L 19.5 9.0 L 19.79 9.25 L 20.08 9.5 L 20.38 9.75 L 20.67 10.0 L 20.96 10.25 L 21.25 10.5 L 21.54 10.75 L 21.83 11.0 L 22.12 11.25 L 22.42 11.5 L 22.71 11.75 L 23.0 12.0" fill="none" stroke="#111" stroke-width="1.19" stroke-linecap="round" stroke-linejoin="round"/>
</svg>
