<?xml version="1.0" encoding="UTF-8"?>
<svg xmlns="http://www.w3.org/2000/svg" viewBox="0 0 25.00 22.00">
<path d="M 6.0 4.0 L 6.08 4.58 L 6.17 5.17 L 6.25 5.75 L 6.33 6.33 L 6.42 6.92 L 6.5 7.5 L 6.58 8.08 L 6.67 8.67 L 6.75 9.25 L 6.83 9.83 L 6.92 10.42 L 7.0 11.0 L 7.08 11.58 L 7.17 12.17 L 7.25 12.75 L 7.33 13.33 L 7.42 13.92 L 7.5 14.5 L 7.58 15.08 L 7.67 15.67 L 7.75 16.25 L 7.83 16.83 L 7.92 17.42 L 8.0 18.0" fill="none" stroke="#111" stroke-width="0.88" stroke-linecap="round" stroke-linejoin="round"/>
<path d="M 20.0 5.0 L 20.04 5.54 L 20.08 6.08 L 20.12 6.62 L 20.17 7.17 L 20.21 7.71 L 20.25 8.25 L 20.29 8.79 L 20.33 9.33 L 20.38 9.88 L 20.42 10.42 L 20.46 10.96 L 20.5 11.5 L 20.54 12.04 L 20.58 12.58 L 20.62 13.13 L 20.67 13.67 L 20.71 14.21 L 20.75 14.75 L 20.79 15.29 L 20.83 15.83 L 20.88 16.38 L 20.92 16.92 L 20.96 17.46 L 21.0 18.0" fill="none" stroke="#111" stroke-width="0.88" stroke-linecap="round" stroke-linejoin="round"/>
<path d="M 19.0 8.0 L 18.57 8.16 L 18.14 8.34 L 17.73 8.56 L 17.34 8.79 L 16.96 9.05 L 16.59 9.34 L 16.24 9.64 L 15.92 9.97 L 15.61 10.31 L 15.33 10.68 L 15.07 11.06 L 14.83 11.46 L 14.62 11.87 L 14.43 12.29 L 14.27 12.72 L 14.14 13.16 L 14.04 13.61 L 13.96 14.07 L 13.91 14.53 L 13.89 14.99 L 13.9 15.45 L 13.94 15.91 L 14.01 16.37 L 14.1 16.82" fill="none" stroke="#111" stroke-width="0.88" stroke-linecap="round" stroke-linejoin="round"/>
<path d="M 6.0 6.0 L 6.33 6.46 L 6.67 6.92 L 7.0 7.38 L 7.33 7.83 L 7.67 8.29 L 8.0 8.75 L 8.33 9.21 L 8.67 9.67 L 9.0 10.12 L 9.33 10.58 L 9.67 11.04 L 10.0 11.5 L 10.33 11.96 L 10.67 12.42 L 11.0 12.88 L 11.33 13.33 L 11.67 13.79 L 12.0 14.25 L 12.33 14.71 L 12.67 15.17 L 13.0 15.62 L 13.33 16.08 L 13.67 16.54 L 14.0 17.0" fill="none" stroke="#111" stroke-width="0.88" stroke-linecap="round" stroke-linejoin="round"/>
<path d="M 4.0 18.0 L 4.71 18.0 L 5.42 18.0 L 6.12 18.0 L 6.83 18.0 L 7.54 18.0 L 8.25 18.0 L 8.96 18.0 L 9.67 18.0 L 10.38 18.0 L 11.08 18.0 L 11.79 18.0 L 12.5 18.0 L 13.21 18.0 L 13.92 18.0 L 14.62 18.0 L 15.33 18.0 L 16.04 18.0 L 16.75 18.0 L 17.46 18.0 L 18.17 18.0 L 18.88 18.0 L 19.58 18.0 L 20.29 18.0 L 21.0 18.0" fill="none" stroke="#111" stroke-width="0.88" stroke-linecap="round" stroke-linejoin="round"/>
</svg>
