<?xml version="1.0" encoding="UTF-8"?>
<svg xmlns="http://www.w3.org/2000/svg" viewBox="0 0 16.00 32.00">
<path d="M 11.0 4.0 L 11.04 5.0 L 11.08 6.0 L 11.12 7.0 L 11.17 8.0 L 11.21 9.0 L 11.25 10.0 L 11.29 11.0 L 11.33 12.0 L 11.38 13.0 L 11.42 14.0 L 11.46 15.0 L 11.5 16.0 L 11.54 17.0 L 11.58 18.0 L 11.62 19.0 L 11.67 20.0 L 11.71 21.0 L 11.75 22.0 L 11.79 23.0 L 11.83 24.0 L 11.88 25.0 L 11.92 26.0 L 11.96 27.0 L 12.0 28.0" fill="none" stroke="#111" stroke-width="1.12" stroke-linecap="round" stroke-linejoin="round"/>
<path d="M 4.0 7.0 L 4.0 7.33 L 4.0 7.67 L 4.0 8.0 L 4.0 8.33 L 4.0 8.67 L 4.0 9.0 L 4.0 9.33 L 4.0 9.67 L 4.0 10.0 L 4.0 10.33 L 4.0 10.67 L 4.0 11.0 L 4.0 11.33 L 4.0 11.67 L 4.0 12.0 L 4.0 12.33 L 4.0 12.67 L 4.0 13.0 L 4.0 13.33 L 4.0 13.67 L 4.0 14.0 L 4.0 14.33 L 4.0 14.67 L 4.0 15.0" fill="none" stroke="#111" stroke-width="1.12" stroke-linecap="round" stroke-linejoin="round"/>
<path d="M 4.0 11.0 L 4.29 10.96 L 4.58 10.92 L 4.88 10.88 L 5.17 10.83 L 5.46 10.79 L 5.75 10.75 L 6.04 10.71 L 6.33 10.67 L 6.62 10.62 L 6.92 10.58 L 7.21 10.54 L 7.5 10.5 L 7.79 10.46 L 8.08 10.42 L 8.38 10.38 L 8.67 10.33 L 8.96 10.29 L 9.25 10.25 L 9.54 10.21 L 9.83 10.17 L 10.12 10.12 L 10.42 10.08 L 10.71 10.04 L 11.0 10.0" fill="none" stroke="#111" stroke-width="1.12" stroke-linecap="round" stroke-linejoin="round"/>
<path d="M 5.0 19.0 L 5.0 19.29 L 5.0 19.58 L 5.0 19.88 L 5.0 20.17 L 5.0 20.46 L 5.0 20.75 L 5.0 21.04 L 5.0 21.33 L 5.0 21.62 L 5.0 21.92 L 5.0 22.21 L 5.0 22.5 L 5.0 22.79 L 5.0 23.08 L 5.0 23.38 L 5.0 23.67 L 5.0 23.96 L 5.0 24.25 L 5.0 24.54 L 5.0 24.83 L 5.0 25.12 L 5.0 25.42 L 5.0 25.71 L 5.0 26.0" fill="none" stroke="#111" stroke-width="1.12" stroke-linecap="round" stroke-linejoin="round"/>
<path d="M 5.0 22.0 L 5.25 21.96 L 5.5 21.92 L 5.75 21.88 L 6.0 21.83 L 6.25 21.79 L 6.5 21.75 L 6.75 21.71 L 7.0 21.67 L 7.25 21.62 L 7.5 21.58 L 7.75 21.54 L 8.0 21.5 L 8.25 21.46 L 8.5 21.42 L 8.75 21.38 L 9.0 21.33 L 9.25 21.29 L 9.5 21.25 L 9.75 21.21 L 10.0 21.17 L 10.25 21.12 L 10.5 21.08 L 10.75 21.04 L 11.0 21.0" fill="none" stroke="#111" stroke-width="1.12" stroke-linecap="round" stroke-linejoin="round"/>
</svg>
