<?xml version="1.0" encoding="UTF-8"?>
<svg xmlns="http://www.w3.org/2000/svg" viewBox="0 0 26.23 30.67">
<path d="M 17.23 5.67 L 16.03 4.92 L 14.72 4.38 L 13.34 4.07 L 11.93 4.0 L 10.52 4.18 L 9.17 4.59 L 7.9 5.23 L 6.77 6.07 L 5.79 7.1 L 5.01 8.28 L 4.44 9.57 L 4.1 10.95 L 4.0 12.36 L 4.14 13.77 L 4.53 15.13 L 5.14 16.41 L 5.96 17.56 L 6.96 18.56 L 8.12 19.37 L 9.4 19.97 L 10.77 20.34 L 12.18 20.47 L 13.59 20.36 L 14.96 20.01" fill="none" stroke="#111" stroke-width="1.07" stroke-linecap="round" stroke-linejoin="round"/>
<path d="M 16.23 16.67 L 16.34 17.04 L 16.44 17.4 L 16.54 17.77 L 16.64 18.13 L 16.72 18.5 L 16.81 18.87 L 16.88 19.24 L 16.95 19.62 L 17.01 19.99 L 17.07 20.37 L 17.12 20.74 L 17.17 21.12 L 17.21 21.49 L 17.24 21.87 L 17.27 22.25 L 17.29 22.63 L 17.3 23.01 L 17.31 23.39 L 17.31 23.77 L 17.3 24.15 L 17.29 24.52 L 17.28 24.9 L 17.25 25.28 L 17.22 25.66" fill="none" stroke="#111" stroke-width="1.07" stroke-linecap="round" stroke-linejoin="round"/>
<path d="M 9.23 26.67 L 9.77 26.55 L 10.31 26.42 L 10.85 26.3 L 11.39 26.17 L 11.93 26.05 L 12.48 25.92 L 13.02 25.8 L 13.56 25.67 L 14.1 25.55 L 14.64 25.42 L 15.18 25.3 L 15.73 25.17 L 16.27 25.05 L 16.81 24.92 L 17.35 24.8 L 17.89 24.67 L 18.43 24.55 L 18.98 24.42 L 19.52 24.3 L 20.06 24.17 L 20.6 24.05 L 21.14 23.92 L 21.68 23.8 L 22.23 23.67" fill="none" stroke="#111" stroke-width="1.07" stroke-linecap="round" stroke-linejoin="round"/>
</svg>
