<?xml version="1.0" encoding="UTF-8"?>
<svg xmlns="http://www.w3.org/2000/svg" viewBox="0 0 28.64 36.00">
<path d="M 18.1 10.0 L 18.1 10.92 L 18.1 11.83 L 18.1 12.75 L 18.1 13.67 L 18.1 14.58 L 18.1 15.5 L 18.1 16.42 L 18.1 17.33 L 18.1 18.25 L 18.1 19.17 L 18.1 20.08 L 18.1 21.0 L 18.1 21.92 L 18.1 22.83 L 18.1 23.75 L 18.1 24.67 L 18.1 25.58 L 18.1 26.5 L 18.1 27.42 L 18.1 28.33 L 18.1 29.25 L 18.1 30.17 L 18.1 31.08 L 18.1 32.0" fill="none" stroke="#111" stroke-width="1.26" stroke-linecap="round" stroke-linejoin="round"/>
<path d="M 12.1 4.0 L 11.7 4.61 L 11.36 5.25 L 11.08 5.92 L 10.85 6.61 L 10.68 7.31 L 10.57 8.03 L 10.52 8.75 L 10.54 9.48 L 10.62 10.2 L 10.75 10.91 L 10.95 11.61 L 11.21 12.29 L 11.52 12.95 L 11.89 13.57 L 12.31 14.16 L 12.78 14.72 L 13.3 15.23 L 13.85 15.69 L 14.45 16.11 L 15.08 16.47 L 15.73 16.78 L 16.41 17.04 L 17.11 17.23 L 17.83 17.36" fill="none" stroke="#111" stroke-width="1.26" stroke-linecap="round" stroke-linejoin="round"/>
<path d="M 23.1 4.0 L 23.47 4.58 L 23.79 5.19 L 24.06 5.82 L 24.28 6.47 L 24.46 7.14 L 24.57 7.82 L 24.64 8.5 L 24.64 9.19 L 24.6 9.87 L 24.5 10.55 L 24.35 11.23 L 24.14 11.88 L 23.88 12.52 L 23.58 13.14 L 23.22 13.73 L 22.82 14.29 L 22.38 14.81 L 21.9 15.3 L 21.38 15.75 L 20.82 16.16 L 20.24 16.52 L 19.63 16.84 L 18.99 17.11 L 18.34 17.32" fill="none" stroke="#111" stroke-width="1.26" stroke-linecap="round" stroke-linejoin="round"/>
<path d="M 12.1 21.0 L 12.35 21.21 L 12.6 21.42 L 12.85 21.62 L 13.1 21.83 L 13.35 22.04 L 13.6 22.25 L 13.85 22.46 L 14.1 22.67 L 14.35 22.88 L 14.6 23.08 L 14.85 23.29 L 15.1 23.5 L 15.35 23.71 L 15.6 23.92 L 15.85 24.12 L 16.1 24.33 L 16.35 24.54 L 16.6 24.75 L 16.85 24.96 L 17.1 25.17 L 17.35 25.38 L 17.6 25.58 L 17.85 25.79 L 18.1 26.0" fill="none" stroke="#111" stroke-width="1.26" stroke-linecap="round" stroke-linejoin="round"/>
<path d="M 23.1 21.0 L 22.89 21.21 L 22.68 21.42 L 22.47 21.62 L 22.27 21.83 L 22.06 22.04 L 21.85 22.25 L 21.64 22.46 L 21.43 22.67 L 21.22 22.88 L 21.02 23.08 L 20.81 23.29 L 20.6 23.5 L 20.39 23.71 L 20.18 23.92 L 19.97 24.12 L 19.77 24.33 L 19.56 24.54 L 19.35 24.75 L 19.14 24.96 L 18.93 25.17 L 18.72 25.38 L 18.52 25.58 L 18.31 25.79 L 18.1 26.0" fill="none" stroke="#111" stroke-width="1.26" stroke-linecap="round" stroke-linejoin="round"/>
<path d="M 6.1 7.0 L 6.5 7.42 L 6.88 7.86 L 7.23 8.32 L 7.55 8.81 L 7.84 9.31 L 8.1 9.83 L 8.33 10.36 L 8.53 10.9 L 8.69 11.46 L 8.82 12.03 L 8.92 12.6 L 8.98 13.18 L 9.01 13.76 L 9.0 14.34 L 8.96 14.91 L 8.88 15.49 L 8.77 16.06 L 8.62 16.62 L 8.45 17.17 L 8.23 17.71 L 7.99 18.24 L 7.72 18.75 L 7.41 19.24 L 7.08 19.72 L 7.1 20.0 L 7.22 20.42 L 7.35 20.83 L 7.47 21.25 L 7.6 21.67 L 7.72 22.08 L 7.85 22.5 L 7.97 22.92 L 8.1 23.33 L 8.22 23.75 L 8.35 24.17 L 8.47 24.58 L 8.6 25.0 L 8.72 25.42 L 8.85 25.83 L 8.97 26.25 L 9.1 26.67 L 9.22 27.08 L 9.35 27.5 L 9.47 27.92 L 9.6 28.33 L 9.72 28.75 L 9.85 29.17 L 9.97 29.58 L 10.1 30.0" fill="none" stroke="#111" stroke-width="1.26" stroke-linecap="round" stroke-linejoin="round"/>
<path d="M 4.1 11.0 L 4.02 11.35 L 4.0 11.71 L 4.03 12.06 L 4.12 12.41 L 4.26 12.74 L 4.45 13.04 L 4.69 13.31 L 4.96 13.54 L 5.27 13.73 L 5.6 13.86 L 5.95 13.94 L 6.3 13.97 L 6.66 13.94 L 7.01 13.86 L 7.34 13.73 L 7.65 13.54 L 7.92 13.31 L 8.16 13.04 L 8.35 12.74 L 8.49 12.41 L 8.58 12.06 L 8.61 11.71 L 8.59 11.35 L 8.51 11.0" fill="none" stroke="#111" stroke-width="1.26" stroke-linecap="round" stroke-linejoin="round"/>
</svg>
