<?xml version="1.0" encoding="UTF-8"?>
<svg xmlns="http://www.w3.org/2000/svg" viewBox="0 0 21.81 35.65">
<path d="M 9.81 4.0 L 10.26 4.61 L 10.65 5.25 L 10.98 5.93 L 11.25 6.63 L 11.46 7.36 L 11.59 8.1 L 11.66 8.85 L 11.67 9.61 L 11.6 10.36 L 11.47 11.1 L 11.26 11.83 L 11.0 12.54 L 10.67 13.21 L 10.28 13.86 L 9.84 14.47 L 9.34 15.04 L 8.79 15.56 L 8.2 16.02 L 7.57 16.44 L 6.9 16.79 L 6.2 17.08 L 5.49 17.31 L 4.75 17.47 L 4.0 17.56" fill="none" stroke="#111" stroke-width="1.25" stroke-linecap="round" stroke-linejoin="round"/>
<path d="M 10.81 14.0 L 11.1 14.17 L 11.4 14.33 L 11.69 14.5 L 11.98 14.67 L 12.27 14.83 L 12.56 15.0 L 12.85 15.17 L 13.15 15.33 L 13.44 15.5 L 13.73 15.67 L 14.02 15.83 L 14.31 16.0 L 14.6 16.17 L 14.9 16.33 L 15.19 16.5 L 15.48 16.67 L 15.77 16.83 L 16.06 17.0 L 16.35 17.17 L 16.65 17.33 L 16.94 17.5 L 17.23 17.67 L 17.52 17.83 L 17.81 18.0" fill="none" stroke="#111" stroke-width="1.25" stroke-linecap="round" stroke-linejoin="round"/>
<path d="M 5.81 17.0 L 5.77 17.5 L 5.73 18.0 L 5.69 18.5 L 5.65 19.0 L 5.6 19.5 L 5.56 20.0 L 5.52 20.5 L 5.48 21.0 L 5.44 21.5 L 5.4 22.0 L 5.35 22.5 L 5.31 23.0 L 5.27 23.5 L 5.23 24.0 L 5.19 24.5 L 5.15 25.0 L 5.1 25.5 L 5.06 26.0 L 5.02 26.5 L 4.98 27.0 L 4.94 27.5 L 4.9 28.0 L 4.85 28.5 L 4.81 29.0" fill="none" stroke="#111" stroke-width="1.25" stroke-linecap="round" stroke-linejoin="round"/>
<path d="M 17.81 18.0 L 17.77 18.42 L 17.73 18.83 L 17.69 19.25 L 17.65 19.67 L 17.6 20.08 L 17.56 20.5 L 17.52 20.92 L 17.48 21.33 L 17.44 21.75 L 17.4 22.17 L 17.35 22.58 L 17.31 23.0 L 17.27 23.42 L 17.23 23.83 L 17.19 24.25 L 17.15 24.67 L 17.1 25.08 L 17.06 25.5 L 17.02 25.92 L 16.98 26.33 L 16.94 26.75 L 16.9 27.17 L 16.85 27.58 L 16.81 28.0" fill="none" stroke="#111" stroke-width="1.25" stroke-linecap="round" stroke-linejoin="round"/>
<path d="M 7.81 20.0 L 7.98 19.96 L 8.15 19.92 L 8.31 19.88 L 8.48 19.83 L 8.65 19.79 L 8.81 19.75 L 8.98 19.71 L 9.15 19.67 L 9.31 19.62 L 9.48 19.58 L 9.65 19.54 L 9.81 19.5 L 9.98 19.46 L 10.15 19.42 L 10.31 19.38 L 10.48 19.33 L 10.65 19.29 L 10.81 19.25 L 10.98 19.21 L 11.15 19.17 L 11.31 19.12 L 11.48 19.08 L 11.65 19.04 L 11.81 19.0" fill="none" stroke="#111" stroke-width="1.25" stroke-linecap="round" stroke-linejoin="round"/>
<path d="M 9.81 20.0 L 9.56 20.49 L 9.33 20.99 L 9.14 21.51 L 8.98 22.04 L 8.86 22.58 L 8.77 23.12 L 8.71 23.67 L 8.69 24.22 L 8.7 24.77 L 8.75 25.32 L 8.84 25.87 L 8.95 26.41 L 9.1 26.94 L 9.29 27.46 L 9.5 27.97 L 9.75 28.46 L 10.03 28.93 L 10.34 29.39 L 10.67 29.83 L 11.04 30.25 L 11.42 30.64 L 11.84 31.0 L 12.27 31.34 L 12.73 31.65" fill="none" stroke="#111" stroke-width="1.25" stroke-linecap="round" stroke-linejoin="round"/>
<path d="M 9.81 24.0 L 9.9 24.12 L 9.98 24.25 L 10.06 24.38 L 10.15 24.5 L 10.23 24.62 L 10.31 24.75 L 10.4 24.88 L 10.48 25.0 L 10.56 25.12 L 10.65 25.25 L 10.73 25.38 L 10.81 25.5 L 10.9 25.62 L 10.98 25.75 L 11.06 25.88 L 11.15 26.0 L 11.23 26.12 L 11.31 26.25 L 11.4 26.38 L 11.48 26.5 L 11.56 26.62 L 11.65 26.75 L 11.73 26.88 L 11.81 27.0" fill="none" stroke="#111" stroke-width="1.25" stroke-linecap="round" stroke-linejoin="round"/>
<path d="M 6.81 4.0 L 6.89 4.44 L 7.01 4.88 L 7.18 5.3 L 7.4 5.69 L 7.66 6.06 L 7.95 6.4 L 8.29 6.7 L 8.65 6.97 L 9.05 7.19 L 9.46 7.37 L 9.89 7.5 L 10.34 7.58 L 10.79 7.61 L 11.24 7.59 L 11.68 7.52 L 12.12 7.4 L 12.54 7.23 L 12.94 7.02 L 13.31 6.77 L 13.65 6.47 L 13.96 6.14 L 14.23 5.78 L 14.45 5.39 L 14.64 4.98" fill="none" stroke="#111" stroke-width="1.25" stroke-linecap="round" stroke-linejoin="round"/>
<path d="M 7.81 9.0 L 7.94 9.12 L 8.06 9.25 L 8.19 9.38 L 8.31 9.5 L 8.44 9.62 L 8.56 9.75 L 8.69 9.88 L 8.81 10.0 L 8.94 10.12 L 9.06 10.25 L 9.19 10.38 L 9.31 10.5 L 9.44 10.62 L 9.56 10.75 L 9.69 10.88 L 9.81 11.0 L 9.94 11.12 L 10.06 11.25 L 10.19 11.38 L 10.31 11.5 L 10.44 11.62 L 10.56 11.75 L 10.69 11.88 L 10.81 12.0 L 10.81 12.0 L 10.94 11.83 L 11.06 11.67 L 11.19 11.5 L 11.31 11.33 L 11.44 11.17 L 11.56 11.0 L 11.69 10.83 L 11.81 10.67 L 11.94 10.5 L 12.06 10.33 L 12.19 10.17 L 12.31 10.0 L 12.44 9.83 L 12.56 9.67 L 12.69 9.5 L 12.81 9.33 L 12.94 9.17 L 13.06 9.0 L 13.19 8.83 L 13.31 8.67 L 13.44 8.5 L 13.56 8.33 L 13.69 8.17 L 13.81 8.0" fill="none" stroke="#111" stroke-width="1.25" stroke-linecap="round" stroke-linejoin="round"/>
<path d="M 7.81 14.0 L 7.96 13.76 L 8.13 13.54 L 8.31 13.32 L 8.51 13.12 L 8.73 12.94 L 8.95 12.77 L 9.19 12.62 L 9.44 12.48 L 9.7 12.37 L 9.96 12.27 L 10.23 12.2 L 10.51 12.14 L 10.79 12.1 L 11.07 12.09 L 11.35 12.09 L 11.63 12.12 L 11.91 12.16 L 12.18 12.23 L 12.45 12.32 L 12.71 12.42 L 12.97 12.55 L 13.21 12.69 L 13.44 12.85 L 13.66 13.02" fill="none" stroke="#111" stroke-width="1.25" stroke-linecap="round" stroke-linejoin="round"/>
</svg>
