<?xml version="1.0" encoding="UTF-8"?>
<svg xmlns="http://www.w3.org/2000/svg" viewBox="0 0 23.34 36.33">
<path d="M 12.34 4.0 L 12.41 4.45 L 12.45 4.89 L 12.46 5.34 L 12.43 5.79 L 12.38 6.24 L 12.29 6.68 L 12.17 7.12 L 12.03 7.54 L 11.85 7.96 L 11.65 8.36 L 11.41 8.75 L 11.16 9.11 L 10.87 9.47 L 10.57 9.8 L 10.24 10.1 L 9.89 10.39 L 9.52 10.65 L 9.14 10.88 L 8.74 11.09 L 8.33 11.27 L 7.9 11.42 L 7.47 11.54 L 7.03 11.63 L 6.58 11.69" fill="none" stroke="#111" stroke-width="1.27" stroke-linecap="round" stroke-linejoin="round"/>
<path d="M 13.34 7.0 L 13.59 7.25 L 13.84 7.5 L 14.09 7.75 L 14.34 8.0 L 14.59 8.25 L 14.84 8.5 L 15.09 8.75 L 15.34 9.0 L 15.59 9.25 L 15.84 9.5 L 16.09 9.75 L 16.34 10.0 L 16.59 10.25 L 16.84 10.5 L 17.09 10.75 L 17.34 11.0 L 17.59 11.25 L 17.84 11.5 L 18.09 11.75 L 18.34 12.0 L 18.59 12.25 L 18.84 12.5 L 19.09 12.75 L 19.34 13.0" fill="none" stroke="#111" stroke-width="1.27" stroke-linecap="round" stroke-linejoin="round"/>
<path d="M 8.34 10.0 L 8.51 10.21 L 8.68 10.42 L 8.84 10.62 L 9.01 10.83 L 9.18 11.04 L 9.34 11.25 L 9.51 11.46 L 9.68 11.67 L 9.84 11.88 L 10.01 12.08 L 10.18 12.29 L 10.34 12.5 L 10.51 12.71 L 10.68 12.92 L 10.84 13.12 L 11.01 13.33 L 11.18 13.54 L 11.34 13.75 L 11.51 13.96 L 11.68 14.17 L 11.84 14.38 L 12.01 14.58 L 12.18 14.79 L 12.34 15.0 L 12.34 15.0 L 12.55 14.83 L 12.76 14.67 L 12.97 14.5 L 13.18 14.33 L 13.39 14.17 L 13.59 14.0 L 13.8 13.83 L 14.01 13.67 L 14.22 13.5 L 14.43 13.33 L 14.64 13.17 L 14.84 13.0 L 15.05 12.83 L 15.26 12.67 L 15.47 12.5 L 15.68 12.33 L 15.89 12.17 L 16.09 12.0 L 16.3 11.83 L 16.51 11.67 L 16.72 11.5 L 16.93 11.33 L 17.14 11.17 L 17.34 11.0" fill="none" stroke="#111" stroke-width="1.27" stroke-linecap="round" stroke-linejoin="round"/>
<path d="M 12.34 15.0 L 12.39 15.38 L 12.43 15.75 L 12.47 16.12 L 12.51 16.5 L 12.55 16.88 L 12.59 17.25 L 12.64 17.62 L 12.68 18.0 L 12.72 18.38 L 12.76 18.75 L 12.8 19.12 L 12.84 19.5 L 12.89 19.88 L 12.93 20.25 L 12.97 20.62 L 13.01 21.0 L 13.05 21.38 L 13.09 21.75 L 13.14 22.12 L 13.18 22.5 L 13.22 22.88 L 13.26 23.25 L 13.3 23.62 L 13.34 24.0" fill="none" stroke="#111" stroke-width="1.27" stroke-linecap="round" stroke-linejoin="round"/>
<path d="M 4.34 21.0 L 4.15 20.47 L 4.04 19.93 L 4.0 19.37 L 4.04 18.81 L 4.15 18.26 L 4.35 17.73 L 4.61 17.24 L 4.93 16.79 L 5.32 16.38 L 5.76 16.03 L 6.24 15.75 L 6.76 15.54 L 7.3 15.4 L 7.86 15.33 L 8.42 15.35 L 8.97 15.44 L 9.51 15.61 L 10.01 15.85 L 10.48 16.15 L 10.9 16.52 L 11.27 16.94 L 11.57 17.41 L 11.81 17.92 L 11.97 18.46" fill="none" stroke="#111" stroke-width="1.27" stroke-linecap="round" stroke-linejoin="round"/>
<path d="M 6.34 19.0 L 6.43 19.08 L 6.51 19.17 L 6.59 19.25 L 6.68 19.33 L 6.76 19.42 L 6.84 19.5 L 6.93 19.58 L 7.01 19.67 L 7.09 19.75 L 7.18 19.83 L 7.26 19.92 L 7.34 20.0 L 7.43 20.08 L 7.51 20.17 L 7.59 20.25 L 7.68 20.33 L 7.76 20.42 L 7.84 20.5 L 7.93 20.58 L 8.01 20.67 L 8.09 20.75 L 8.18 20.83 L 8.26 20.92 L 8.34 21.0 L 8.34 21.0 L 8.43 20.83 L 8.51 20.67 L 8.59 20.5 L 8.68 20.33 L 8.76 20.17 L 8.84 20.0 L 8.93 19.83 L 9.01 19.67 L 9.09 19.5 L 9.18 19.33 L 9.26 19.17 L 9.34 19.0 L 9.43 18.83 L 9.51 18.67 L 9.59 18.5 L 9.68 18.33 L 9.76 18.17 L 9.84 18.0 L 9.93 17.83 L 10.01 17.67 L 10.09 17.5 L 10.18 17.33 L 10.26 17.17 L 10.34 17.0" fill="none" stroke="#111" stroke-width="1.27" stroke-linecap="round" stroke-linejoin="round"/>
<path d="M 8.34 21.0 L 8.34 21.12 L 8.34 21.25 L 8.34 21.38 L 8.34 21.5 L 8.34 21.62 L 8.34 21.75 L 8.34 21.88 L 8.34 22.0 L 8.34 22.12 L 8.34 22.25 L 8.34 22.38 L 8.34 22.5 L 8.34 22.62 L 8.34 22.75 L 8.34 22.88 L 8.34 23.0 L 8.34 23.12 L 8.34 23.25 L 8.34 23.38 L 8.34 23.5 L 8.34 23.62 L 8.34 23.75 L 8.34 23.88 L 8.34 24.0" fill="none" stroke="#111" stroke-width="1.27" stroke-linecap="round" stroke-linejoin="round"/>
<path d="M 17.34 14.0 L 17.09 14.09 L 16.85 14.22 L 16.63 14.36 L 16.42 14.53 L 16.23 14.72 L 16.06 14.92 L 15.91 15.15 L 15.79 15.39 L 15.7 15.64 L 15.63 15.9 L 15.58 16.16 L 15.57 16.43 L 15.58 16.7 L 15.63 16.96 L 15.7 17.22 L 15.79 17.47 L 15.91 17.71 L 16.06 17.93 L 16.23 18.14 L 16.42 18.33 L 16.63 18.5 L 16.85 18.64 L 17.09 18.76 L 17.34 18.86 L 17.34 19.0 L 17.43 18.92 L 17.51 18.83 L 17.59 18.75 L 17.68 18.67 L 17.76 18.58 L 17.84 18.5 L 17.93 18.42 L 18.01 18.33 L 18.09 18.25 L 18.18 18.17 L 18.26 18.08 L 18.34 18.0 L 18.43 17.92 L 18.51 17.83 L 18.59 17.75 L 18.68 17.67 L 18.76 17.58 L 18.84 17.5 L 18.93 17.42 L 19.01 17.33 L 19.09 17.25 L 19.18 17.17 L 19.26 17.08 L 19.34 17.0 L 19.34 17.0 L 19.3 16.88 L 19.26 16.75 L 19.22 16.62 L 19.18 16.5 L 19.14 16.38 L 19.09 16.25 L 19.05 16.12 L 19.01 16.0 L 18.97 15.88 L 18.93 15.75 L 18.89 15.62 L 18.84 15.5 L 18.8 15.38 L 18.76 15.25 L 18.72 15.12 L 18.68 15.0 L 18.64 14.88 L 18.59 14.75 L 18.55 14.62 L 18.51 14.5 L 18.47 14.38 L 18.43 14.25 L 18.39 14.12 L 18.34 14.0" fill="none" stroke="#111" stroke-width="1.27" stroke-linecap="round" stroke-linejoin="round"/>
<path d="M 17.34 19.0 L 17.3 19.12 L 17.26 19.25 L 17.22 19.38 L 17.18 19.5 L 17.14 19.62 L 17.09 19.75 L 17.05 19.88 L 17.01 20.0 L 16.97 20.12 L 16.93 20.25 L 16.89 20.38 L 16.84 20.5 L 16.8 20.62 L 16.76 20.75 L 16.72 20.88 L 16.68 21.0 L 16.64 21.12 L 16.59 21.25 L 16.55 21.38 L 16.51 21.5 L 16.47 21.62 L 16.43 21.75 L 16.39 21.88 L 16.34 22.0" fill="none" stroke="#111" stroke-width="1.27" stroke-linecap="round" stroke-linejoin="round"/>
<path d="M 6.34 25.0 L 6.89 24.92 L 7.43 24.83 L 7.97 24.75 L 8.51 24.67 L 9.05 24.58 L 9.59 24.5 L 10.14 24.42 L 10.68 24.33 L 11.22 24.25 L 11.76 24.17 L 12.3 24.08 L 12.84 24.0 L 13.39 23.92 L 13.93 23.83 L 14.47 23.75 L 15.01 23.67 L 15.55 23.58 L 16.09 23.5 L 16.64 23.42 L 17.18 23.33 L 17.72 23.25 L 18.26 23.17 L 18.8 23.08 L 19.34 23.0 L 19.34 23.0 L 19.3 23.33 L 19.26 23.67 L 19.22 24.0 L 19.18 24.33 L 19.14 24.67 L 19.09 25.0 L 19.05 25.33 L 19.01 25.67 L 18.97 26.0 L 18.93 26.33 L 18.89 26.67 L 18.84 27.0 L 18.8 27.33 L 18.76 27.67 L 18.72 28.0 L 18.68 28.33 L 18.64 28.67 L 18.59 29.0 L 18.55 29.33 L 18.51 29.67 L 18.47 30.0 L 18.43 30.33 L 18.39 30.67 L 18.34 31.0 L 18.34 31.0 L 17.8 31.36 L 17.23 31.66 L 16.63 31.91 L 16.01 32.11 L 15.38 32.24 L 14.73 32.32 L 14.08 32.33 L 13.44 32.28 L 12.8 32.17 L 12.17 32.0 L 11.56 31.77 L 10.98 31.49 L 10.42 31.15 L 9.9 30.76 L 9.42 30.33 L 8.98 29.85 L 8.59 29.33 L 8.25 28.78 L 7.96 28.2 L 7.73 27.59 L 7.56 26.97 L 7.45 26.33 L 7.39 25.68 L 7.4 25.03" fill="none" stroke="#111" stroke-width="1.27" stroke-linecap="round" stroke-linejoin="round"/>
<path d="M 13.34 24.0 L 13.39 24.29 L 13.43 24.58 L 13.47 24.88 L 13.51 25.17 L 13.55 25.46 L 13.59 25.75 L 13.64 26.04 L 13.68 26.33 L 13.72 26.62 L 13.76 26.92 L 13.8 27.21 L 13.84 27.5 L 13.89 27.79 L 13.93 28.08 L 13.97 28.38 L 14.01 28.67 L 14.05 28.96 L 14.09 29.25 L 14.14 29.54 L 14.18 29.83 L 14.22 30.12 L 14.26 30.42 L 14.3 30.71 L 14.34 31.0" fill="none" stroke="#111" stroke-width="1.27" stroke-linecap="round" stroke-linejoin="round"/>
<path d="M 8.34 28.0 L 8.76 27.96 L 9.18 27.92 L 9.59 27.88 L 10.01 27.83 L 10.43 27.79 L 10.84 27.75 L 11.26 27.71 L 11.68 27.67 L 12.09 27.62 L 12.51 27.58 L 12.93 27.54 L 13.34 27.5 L 13.76 27.46 L 14.18 27.42 L 14.59 27.38 L 15.01 27.33 L 15.43 27.29 L 15.84 27.25 L 16.26 27.21 L 16.68 27.17 L 17.09 27.12 L 17.51 27.08 L 17.93 27.04 L 18.34 27.0" fill="none" stroke="#111" stroke-width="1.27" stroke-linecap="round" stroke-linejoin="round"/>
</svg>
