<?xml version="1.0" encoding="UTF-8"?>
<svg xmlns="http://www.w3.org/2000/svg" viewBox="0 0 22.95 32.00">
<path d="M 13.95 4.0 L 13.92 4.59 L 13.91 5.19 L 13.92 5.78 L 13.95 6.38 L 14.0 6.97 L 14.08 7.56 L 14.18 8.15 L 14.29 8.73 L 14.44 9.31 L 14.6 9.88 L 14.78 10.45 L 14.98 11.01 L 15.21 11.56 L 15.45 12.1 L 15.71 12.64 L 16.0 13.16 L 16.3 13.67 L 16.62 14.17 L 16.96 14.66 L 17.32 15.14 L 17.69 15.6 L 18.08 16.05 L 18.49 16.48 L 18.91 16.9 L 18.95 17.0 L 18.62 17.44 L 18.25 17.85 L 17.85 18.22 L 17.4 18.55 L 16.93 18.84 L 16.44 19.08 L 15.92 19.27 L 15.39 19.4 L 14.84 19.49 L 14.29 19.52 L 13.74 19.51 L 13.19 19.43 L 12.66 19.31 L 12.13 19.13 L 11.63 18.91 L 11.15 18.63 L 10.7 18.32 L 10.29 17.96 L 9.9 17.56 L 9.56 17.13 L 9.27 16.66 L 9.02 16.17 L 8.81 15.66 L 8.66 15.13 L 7.95 15.0 L 7.63 15.29 L 7.34 15.61 L 7.09 15.96 L 6.88 16.34 L 6.71 16.74 L 6.58 17.15 L 6.5 17.57 L 6.47 18.01 L 6.48 18.44 L 6.54 18.86 L 6.64 19.28 L 6.79 19.69 L 6.98 20.08 L 7.21 20.44 L 7.48 20.78 L 7.79 21.09 L 8.12 21.36 L 8.49 21.59 L 8.87 21.78 L 9.28 21.94 L 9.7 22.04 L 10.13 22.1 L 10.56 22.12 L 10.99 22.08 L 10.95 22.0 L 10.95 22.25 L 10.95 22.5 L 10.95 22.75 L 10.95 23.0 L 10.95 23.25 L 10.95 23.5 L 10.95 23.75 L 10.95 24.0 L 10.95 24.25 L 10.95 24.5 L 10.95 24.75 L 10.95 25.0 L 10.95 25.25 L 10.95 25.5 L 10.95 25.75 L 10.95 26.0 L 10.95 26.25 L 10.95 26.5 L 10.95 26.75 L 10.95 27.0 L 10.95 27.25 L 10.95 27.5 L 10.95 27.75 L 10.95 28.0" fill="none" stroke="#111" stroke-width="1.12" stroke-linecap="round" stroke-linejoin="round"/>
<path d="M 13.95 10.0 L 13.5 10.02 L 13.04 10.06 L 12.59 10.11 L 12.14 10.17 L 11.69 10.25 L 11.24 10.34 L 10.8 10.44 L 10.36 10.55 L 9.92 10.68 L 9.49 10.82 L 9.06 10.97 L 8.63 11.13 L 8.21 11.31 L 7.8 11.5 L 7.39 11.69 L 6.98 11.9 L 6.59 12.13 L 6.19 12.36 L 5.81 12.6 L 5.43 12.86 L 5.06 13.12 L 4.7 13.4 L 4.35 13.68 L 4.0 13.98" fill="none" stroke="#111" stroke-width="1.12" stroke-linecap="round" stroke-linejoin="round"/>
</svg>
