<?xml version="1.0" encoding="UTF-8"?>
<svg xmlns="http://www.w3.org/2000/svg" viewBox="0 0 23.00 35.54">
<path d="M 11.0 4.0 L 10.71 4.46 L 10.42 4.92 L 10.12 5.38 L 9.83 5.83 L 9.54 6.29 L 9.25 6.75 L 8.96 7.21 L 8.67 7.67 L 8.38 8.12 L 8.08 8.58 L 7.79 9.04 L 7.5 9.5 L 7.21 9.96 L 6.92 10.42 L 6.62 10.88 L 6.33 11.33 L 6.04 11.79 L 5.75 12.25 L 5.46 12.71 L 5.17 13.17 L 4.87 13.62 L 4.58 14.08 L 4.29 14.54 L 4.0 15.0" fill="none" stroke="#111" stroke-width="1.24" stroke-linecap="round" stroke-linejoin="round"/>
<path d="M 10.0 7.0 L 10.48 8.04 L 10.9 9.1 L 11.26 10.18 L 11.56 11.29 L 11.79 12.41 L 11.95 13.54 L 12.05 14.68 L 12.08 15.82 L 12.05 16.96 L 11.94 18.1 L 11.77 19.23 L 11.54 20.35 L 11.24 21.45 L 10.88 22.53 L 10.45 23.59 L 9.97 24.63 L 9.42 25.63 L 8.82 26.6 L 8.16 27.54 L 7.44 28.43 L 6.68 29.28 L 5.87 30.08 L 5.01 30.84 L 4.11 31.54" fill="none" stroke="#111" stroke-width="1.24" stroke-linecap="round" stroke-linejoin="round"/>
<path d="M 11.0 20.0 L 11.25 20.42 L 11.5 20.83 L 11.75 21.25 L 12.0 21.67 L 12.25 22.08 L 12.5 22.5 L 12.75 22.92 L 13.0 23.33 L 13.25 23.75 L 13.5 24.17 L 13.75 24.58 L 14.0 25.0 L 14.25 25.42 L 14.5 25.83 L 14.75 26.25 L 15.0 26.67 L 15.25 27.08 L 15.5 27.5 L 15.75 27.92 L 16.0 28.33 L 16.25 28.75 L 16.5 29.17 L 16.75 29.58 L 17.0 30.0" fill="none" stroke="#111" stroke-width="1.24" stroke-linecap="round" stroke-linejoin="round"/>
<path d="M 11.0 27.0 L 11.08 26.79 L 11.17 26.58 L 11.25 26.38 L 11.33 26.17 L 11.42 25.96 L 11.5 25.75 L 11.58 25.54 L 11.67 25.33 L 11.75 25.12 L 11.83 24.92 L 11.92 24.71 L 12.0 24.5 L 12.08 24.29 L 12.17 24.08 L 12.25 23.88 L 12.33 23.67 L 12.42 23.46 L 12.5 23.25 L 12.58 23.04 L 12.67 22.83 L 12.75 22.62 L 12.83 22.42 L 12.92 22.21 L 13.0 22.0 L 13.0 22.0 L 13.21 22.08 L 13.42 22.17 L 13.62 22.25 L 13.83 22.33 L 14.04 22.42 L 14.25 22.5 L 14.46 22.58 L 14.67 22.67 L 14.88 22.75 L 15.08 22.83 L 15.29 22.92 L 15.5 23.0 L 15.71 23.08 L 15.92 23.17 L 16.12 23.25 L 16.33 23.33 L 16.54 23.42 L 16.75 23.5 L 16.96 23.58 L 17.17 23.67 L 17.38 23.75 L 17.58 23.83 L 17.79 23.92 L 18.0 24.0" fill="none" stroke="#111" stroke-width="1.24" stroke-linecap="round" stroke-linejoin="round"/>
<path d="M 12.0 30.0 L 12.08 29.75 L 12.17 29.5 L 12.25 29.25 L 12.33 29.0 L 12.42 28.75 L 12.5 28.5 L 12.58 28.25 L 12.67 28.0 L 12.75 27.75 L 12.83 27.5 L 12.92 27.25 L 13.0 27.0 L 13.08 26.75 L 13.17 26.5 L 13.25 26.25 L 13.33 26.0 L 13.42 25.75 L 13.5 25.5 L 13.58 25.25 L 13.67 25.0 L 13.75 24.75 L 13.83 24.5 L 13.92 24.25 L 14.0 24.0 L 14.0 24.0 L 14.21 24.12 L 14.42 24.25 L 14.62 24.38 L 14.83 24.5 L 15.04 24.62 L 15.25 24.75 L 15.46 24.88 L 15.67 25.0 L 15.88 25.12 L 16.08 25.25 L 16.29 25.38 L 16.5 25.5 L 16.71 25.62 L 16.92 25.75 L 17.12 25.88 L 17.33 26.0 L 17.54 26.12 L 17.75 26.25 L 17.96 26.38 L 18.17 26.5 L 18.38 26.62 L 18.58 26.75 L 18.79 26.88 L 19.0 27.0" fill="none" stroke="#111" stroke-width="1.24" stroke-linecap="round" stroke-linejoin="round"/>
</svg>
