<?xml version="1.0" encoding="UTF-8"?>
<svg xmlns="http://www.w3.org/2000/svg" viewBox="0 0 24.14 42.00">
<path d="M 8.0 8.0 L 8.38 7.88 L 8.75 7.75 L 9.12 7.62 L 9.5 7.5 L 9.88 7.38 L 10.25 7.25 L 10.62 7.12 L 11.0 7.0 L 11.38 6.88 L 11.75 6.75 L 12.12 6.62 L 12.5 6.5 L 12.88 6.38 L 13.25 6.25 L 13.62 6.12 L 14.0 6.0 L 14.38 5.88 L 14.75 5.75 L 15.12 5.62 L 15.5 5.5 L 15.88 5.38 L 16.25 5.25 L 16.62 5.12 L 17.0 5.0 L 17.0 5.0 L 16.75 5.5 L 16.5 6.0 L 16.25 6.5 L 16.0 7.0 L 15.75 7.5 L 15.5 8.0 L 15.25 8.5 L 15.0 9.0 L 14.75 9.5 L 14.5 10.0 L 14.25 10.5 L 14.0 11.0 L 13.75 11.5 L 13.5 12.0 L 13.25 12.5 L 13.0 13.0 L 12.75 13.5 L 12.5 14.0 L 12.25 14.5 L 12.0 15.0 L 11.75 15.5 L 11.5 16.0 L 11.25 16.5 L 11.0 17.0" fill="none" stroke="#111" stroke-width="1.47" stroke-linecap="round" stroke-linejoin="round"/>
<path d="M 10.0 4.0 L 10.26 4.2 L 10.5 4.41 L 10.72 4.64 L 10.94 4.88 L 11.13 5.14 L 11.31 5.41 L 11.46 5.69 L 11.6 5.98 L 11.72 6.28 L 11.82 6.58 L 11.9 6.9 L 11.95 7.21 L 11.99 7.53 L 12.0 7.85 L 11.99 8.18 L 11.96 8.5 L 11.91 8.81 L 11.84 9.13 L 11.74 9.44 L 11.63 9.74 L 11.49 10.03 L 11.34 10.31 L 11.17 10.58 L 10.98 10.84" fill="none" stroke="#111" stroke-width="1.47" stroke-linecap="round" stroke-linejoin="round"/>
<path d="M 6.0 12.0 L 5.92 12.12 L 5.83 12.25 L 5.75 12.38 L 5.67 12.5 L 5.58 12.62 L 5.5 12.75 L 5.42 12.88 L 5.33 13.0 L 5.25 13.12 L 5.17 13.25 L 5.08 13.38 L 5.0 13.5 L 4.92 13.62 L 4.83 13.75 L 4.75 13.88 L 4.67 14.0 L 4.58 14.12 L 4.5 14.25 L 4.42 14.38 L 4.33 14.5 L 4.25 14.62 L 4.17 14.75 L 4.08 14.88 L 4.0 15.0 L 4.0 15.0 L 4.12 15.04 L 4.25 15.08 L 4.38 15.12 L 4.5 15.17 L 4.62 15.21 L 4.75 15.25 L 4.88 15.29 L 5.0 15.33 L 5.12 15.38 L 5.25 15.42 L 5.38 15.46 L 5.5 15.5 L 5.62 15.54 L 5.75 15.58 L 5.88 15.62 L 6.0 15.67 L 6.12 15.71 L 6.25 15.75 L 6.38 15.79 L 6.5 15.83 L 6.62 15.88 L 6.75 15.92 L 6.88 15.96 L 7.0 16.0" fill="none" stroke="#111" stroke-width="1.47" stroke-linecap="round" stroke-linejoin="round"/>
<path d="M 6.0 12.0 L 6.12 12.08 L 6.25 12.17 L 6.38 12.25 L 6.5 12.33 L 6.62 12.42 L 6.75 12.5 L 6.88 12.58 L 7.0 12.67 L 7.12 12.75 L 7.25 12.83 L 7.38 12.92 L 7.5 13.0 L 7.62 13.08 L 7.75 13.17 L 7.88 13.25 L 8.0 13.33 L 8.12 13.42 L 8.25 13.5 L 8.38 13.58 L 8.5 13.67 L 8.62 13.75 L 8.75 13.83 L 8.88 13.92 L 9.0 14.0 L 9.0 14.0 L 8.92 14.08 L 8.83 14.17 L 8.75 14.25 L 8.67 14.33 L 8.58 14.42 L 8.5 14.5 L 8.42 14.58 L 8.33 14.67 L 8.25 14.75 L 8.17 14.83 L 8.08 14.92 L 8.0 15.0 L 7.92 15.08 L 7.83 15.17 L 7.75 15.25 L 7.67 15.33 L 7.58 15.42 L 7.5 15.5 L 7.42 15.58 L 7.33 15.67 L 7.25 15.75 L 7.17 15.83 L 7.08 15.92 L 7.0 16.0" fill="none" stroke="#111" stroke-width="1.47" stroke-linecap="round" stroke-linejoin="round"/>
<path d="M 19.0 9.0 L 18.62 9.12 L 18.25 9.27 L 17.9 9.45 L 17.56 9.66 L 17.23 9.89 L 16.93 10.15 L 16.65 10.43 L 16.39 10.73 L 16.15 11.05 L 15.94 11.39 L 15.76 11.75 L 15.6 12.11 L 15.48 12.49 L 15.38 12.88 L 15.32 13.27 L 15.28 13.67 L 15.28 14.07 L 15.31 14.47 L 15.37 14.86 L 15.46 15.25 L 15.58 15.63 L 15.73 16.0 L 15.91 16.35 L 16.11 16.69" fill="none" stroke="#111" stroke-width="1.47" stroke-linecap="round" stroke-linejoin="round"/>
<path d="M 19.0 9.0 L 19.26 9.33 L 19.49 9.68 L 19.68 10.06 L 19.85 10.44 L 19.97 10.85 L 20.06 11.26 L 20.12 11.67 L 20.14 12.09 L 20.12 12.51 L 20.06 12.93 L 19.97 13.34 L 19.84 13.74 L 19.67 14.13 L 19.47 14.5 L 19.24 14.85 L 18.98 15.18 L 18.69 15.49 L 18.37 15.76 L 18.04 16.01 L 17.68 16.23 L 17.3 16.42 L 16.91 16.57 L 16.5 16.68 L 16.09 16.76" fill="none" stroke="#111" stroke-width="1.47" stroke-linecap="round" stroke-linejoin="round"/>
<path d="M 7.0 16.0 L 7.25 16.17 L 7.5 16.33 L 7.75 16.5 L 8.0 16.67 L 8.25 16.83 L 8.5 17.0 L 8.75 17.17 L 9.0 17.33 L 9.25 17.5 L 9.5 17.67 L 9.75 17.83 L 10.0 18.0 L 10.25 18.17 L 10.5 18.33 L 10.75 18.5 L 11.0 18.67 L 11.25 18.83 L 11.5 19.0 L 11.75 19.17 L 12.0 19.33 L 12.25 19.5 L 12.5 19.67 L 12.75 19.83 L 13.0 20.0 L 13.0 20.0 L 13.12 19.88 L 13.25 19.75 L 13.38 19.62 L 13.5 19.5 L 13.62 19.38 L 13.75 19.25 L 13.88 19.12 L 14.0 19.0 L 14.12 18.88 L 14.25 18.75 L 14.38 18.62 L 14.5 18.5 L 14.62 18.38 L 14.75 18.25 L 14.88 18.12 L 15.0 18.0 L 15.12 17.88 L 15.25 17.75 L 15.38 17.62 L 15.5 17.5 L 15.62 17.38 L 15.75 17.25 L 15.88 17.12 L 16.0 17.0" fill="none" stroke="#111" stroke-width="1.47" stroke-linecap="round" stroke-linejoin="round"/>
<path d="M 6.0 20.0 L 6.58 20.0 L 7.17 20.0 L 7.75 20.0 L 8.33 20.0 L 8.92 20.0 L 9.5 20.0 L 10.08 20.0 L 10.67 20.0 L 11.25 20.0 L 11.83 20.0 L 12.42 20.0 L 13.0 20.0 L 13.58 20.0 L 14.17 20.0 L 14.75 20.0 L 15.33 20.0 L 15.92 20.0 L 16.5 20.0 L 17.08 20.0 L 17.67 20.0 L 18.25 20.0 L 18.83 20.0 L 19.42 20.0 L 20.0 20.0" fill="none" stroke="#111" stroke-width="1.47" stroke-linecap="round" stroke-linejoin="round"/>
<path d="M 13.0 20.0 L 13.0 20.75 L 13.0 21.5 L 13.0 22.25 L 13.0 23.0 L 13.0 23.75 L 13.0 24.5 L 13.0 25.25 L 13.0 26.0 L 13.0 26.75 L 13.0 27.5 L 13.0 28.25 L 13.0 29.0 L 13.0 29.75 L 13.0 30.5 L 13.0 31.25 L 13.0 32.0 L 13.0 32.75 L 13.0 33.5 L 13.0 34.25 L 13.0 35.0 L 13.0 35.75 L 13.0 36.5 L 13.0 37.25 L 13.0 38.0" fill="none" stroke="#111" stroke-width="1.47" stroke-linecap="round" stroke-linejoin="round"/>
<path d="M 6.0 20.0 L 6.04 20.21 L 6.08 20.42 L 6.12 20.62 L 6.17 20.83 L 6.21 21.04 L 6.25 21.25 L 6.29 21.46 L 6.33 21.67 L 6.38 21.88 L 6.42 22.08 L 6.46 22.29 L 6.5 22.5 L 6.54 22.71 L 6.58 22.92 L 6.62 23.12 L 6.67 23.33 L 6.71 23.54 L 6.75 23.75 L 6.79 23.96 L 6.83 24.17 L 6.88 24.38 L 6.92 24.58 L 6.96 24.79 L 7.0 25.0" fill="none" stroke="#111" stroke-width="1.47" stroke-linecap="round" stroke-linejoin="round"/>
<path d="M 6.0 25.0 L 6.54 25.0 L 7.08 25.0 L 7.62 25.0 L 8.17 25.0 L 8.71 25.0 L 9.25 25.0 L 9.79 25.0 L 10.33 25.0 L 10.88 25.0 L 11.42 25.0 L 11.96 25.0 L 12.5 25.0 L 13.04 25.0 L 13.58 25.0 L 14.12 25.0 L 14.67 25.0 L 15.21 25.0 L 15.75 25.0 L 16.29 25.0 L 16.83 25.0 L 17.38 25.0 L 17.92 25.0 L 18.46 25.0 L 19.0 25.0" fill="none" stroke="#111" stroke-width="1.47" stroke-linecap="round" stroke-linejoin="round"/>
<path d="M 20.0 20.0 L 19.96 20.21 L 19.92 20.42 L 19.88 20.62 L 19.83 20.83 L 19.79 21.04 L 19.75 21.25 L 19.71 21.46 L 19.67 21.67 L 19.62 21.88 L 19.58 22.08 L 19.54 22.29 L 19.5 22.5 L 19.46 22.71 L 19.42 22.92 L 19.38 23.12 L 19.33 23.33 L 19.29 23.54 L 19.25 23.75 L 19.21 23.96 L 19.17 24.17 L 19.12 24.38 L 19.08 24.58 L 19.04 24.79 L 19.0 25.0" fill="none" stroke="#111" stroke-width="1.47" stroke-linecap="round" stroke-linejoin="round"/>
</svg>
