<?xml version="1.0" encoding="UTF-8"?>
<svg xmlns="http://www.w3.org/2000/svg" viewBox="0 0 23.60 35.90">
<path d="M 7.0 13.0 L 6.52 14.06 L 6.23 15.19 L 6.14 16.35 L 6.26 17.51 L 6.57 18.64 L 7.07 19.69 L 7.74 20.64 L 8.57 21.46 L 9.53 22.12 L 10.58 22.61 L 11.71 22.91 L 12.87 23.01 L 14.03 22.91 L 15.16 22.61 L 16.21 22.12 L 17.17 21.46 L 18.0 20.64 L 18.67 19.69 L 19.17 18.64 L 19.48 17.51 L 19.6 16.35 L 19.51 15.19 L 19.22 14.06 L 18.74 13.0 L 17.0 13.0 L 17.0 13.0 L 17.0 13.0 L 17.0 13.0 L 17.0 13.0 L 17.0 13.0 L 17.0 13.0 L 17.0 13.0 L 17.0 13.0 L 17.0 13.0 L 17.0 13.0 L 17.0 13.0 L 17.0 13.0 L 17.0 13.0 L 17.0 13.0 L 17.0 13.0 L 17.0 13.0 L 17.0 13.0 L 17.0 13.0 L 17.0 13.0 L 17.0 13.0 L 17.0 13.0 L 17.0 13.0 L 17.0 13.0 L 17.0 13.0" fill="none" stroke="#111" stroke-width="1.26" stroke-linecap="round" stroke-linejoin="round"/>
<path d="M 5.0 13.0 L 5.12 13.0 L 5.25 13.0 L 5.38 13.0 L 5.5 13.0 L 5.62 13.0 L 5.75 13.0 L 5.88 13.0 L 6.0 13.0 L 6.12 13.0 L 6.25 13.0 L 6.38 13.0 L 6.5 13.0 L 6.62 13.0 L 6.75 13.0 L 6.88 13.0 L 7.0 13.0 L 7.12 13.0 L 7.25 13.0 L 7.38 13.0 L 7.5 13.0 L 7.62 13.0 L 7.75 13.0 L 7.88 13.0 L 8.0 13.0" fill="none" stroke="#111" stroke-width="1.26" stroke-linecap="round" stroke-linejoin="round"/>
<path d="M 15.0 13.0 L 15.17 13.0 L 15.33 13.0 L 15.5 13.0 L 15.67 13.0 L 15.83 13.0 L 16.0 13.0 L 16.17 13.0 L 16.33 13.0 L 16.5 13.0 L 16.67 13.0 L 16.83 13.0 L 17.0 13.0 L 17.17 13.0 L 17.33 13.0 L 17.5 13.0 L 17.67 13.0 L 17.83 13.0 L 18.0 13.0 L 18.17 13.0 L 18.33 13.0 L 18.5 13.0 L 18.67 13.0 L 18.83 13.0 L 19.0 13.0" fill="none" stroke="#111" stroke-width="1.26" stroke-linecap="round" stroke-linejoin="round"/>
<path d="M 7.0 14.0 L 7.42 14.29 L 7.83 14.58 L 8.25 14.88 L 8.67 15.17 L 9.08 15.46 L 9.5 15.75 L 9.92 16.04 L 10.33 16.33 L 10.75 16.62 L 11.17 16.92 L 11.58 17.21 L 12.0 17.5 L 12.42 17.79 L 12.83 18.08 L 13.25 18.38 L 13.67 18.67 L 14.08 18.96 L 14.5 19.25 L 14.92 19.54 L 15.33 19.83 L 15.75 20.12 L 16.17 20.42 L 16.58 20.71 L 17.0 21.0" fill="none" stroke="#111" stroke-width="1.26" stroke-linecap="round" stroke-linejoin="round"/>
<path d="M 17.0 15.0 L 16.62 15.29 L 16.25 15.58 L 15.88 15.88 L 15.5 16.17 L 15.12 16.46 L 14.75 16.75 L 14.38 17.04 L 14.0 17.33 L 13.62 17.62 L 13.25 17.92 L 12.87 18.21 L 12.5 18.5 L 12.12 18.79 L 11.75 19.08 L 11.38 19.38 L 11.0 19.67 L 10.62 19.96 L 10.25 20.25 L 9.88 20.54 L 9.5 20.83 L 9.12 21.12 L 8.75 21.42 L 8.37 21.71 L 8.0 22.0" fill="none" stroke="#111" stroke-width="1.26" stroke-linecap="round" stroke-linejoin="round"/>
<path d="M 11.0 4.0 L 11.0 4.38 L 11.0 4.75 L 11.0 5.12 L 11.0 5.5 L 11.0 5.88 L 11.0 6.25 L 11.0 6.62 L 11.0 7.0 L 11.0 7.38 L 11.0 7.75 L 11.0 8.12 L 11.0 8.5 L 11.0 8.88 L 11.0 9.25 L 11.0 9.62 L 11.0 10.0 L 11.0 10.38 L 11.0 10.75 L 11.0 11.12 L 11.0 11.5 L 11.0 11.88 L 11.0 12.25 L 11.0 12.62 L 11.0 13.0" fill="none" stroke="#111" stroke-width="1.26" stroke-linecap="round" stroke-linejoin="round"/>
<path d="M 9.0 7.0 L 9.21 7.17 L 9.42 7.33 L 9.62 7.5 L 9.83 7.67 L 10.04 7.83 L 10.25 8.0 L 10.46 8.17 L 10.67 8.33 L 10.88 8.5 L 11.08 8.67 L 11.29 8.83 L 11.5 9.0 L 11.71 9.17 L 11.92 9.33 L 12.12 9.5 L 12.33 9.67 L 12.54 9.83 L 12.75 10.0 L 12.96 10.17 L 13.17 10.33 L 13.38 10.5 L 13.58 10.67 L 13.79 10.83 L 14.0 11.0" fill="none" stroke="#111" stroke-width="1.26" stroke-linecap="round" stroke-linejoin="round"/>
<path d="M 9.0 11.0 L 9.08 10.92 L 9.17 10.83 L 9.25 10.75 L 9.33 10.67 L 9.42 10.58 L 9.5 10.5 L 9.58 10.42 L 9.67 10.33 L 9.75 10.25 L 9.83 10.17 L 9.92 10.08 L 10.0 10.0 L 10.08 9.92 L 10.17 9.83 L 10.25 9.75 L 10.33 9.67 L 10.42 9.58 L 10.5 9.5 L 10.58 9.42 L 10.67 9.33 L 10.75 9.25 L 10.83 9.17 L 10.92 9.08 L 11.0 9.0" fill="none" stroke="#111" stroke-width="1.26" stroke-linecap="round" stroke-linejoin="round"/>
<path d="M 11.0 8.0 L 11.17 7.83 L 11.33 7.67 L 11.5 7.5 L 11.67 7.33 L 11.83 7.17 L 12.0 7.0 L 12.17 6.83 L 12.33 6.67 L 12.5 6.5 L 12.67 6.33 L 12.83 6.17 L 13.0 6.0 L 13.17 5.83 L 13.33 5.67 L 13.5 5.5 L 13.67 5.33 L 13.83 5.17 L 14.0 5.0 L 14.17 4.83 L 14.33 4.67 L 14.5 4.5 L 14.67 4.33 L 14.83 4.17 L 15.0 4.0" fill="none" stroke="#111" stroke-width="1.26" stroke-linecap="round" stroke-linejoin="round"/>
<path d="M 6.0 23.0 L 6.12 23.17 L 6.25 23.33 L 6.38 23.5 L 6.5 23.67 L 6.62 23.83 L 6.75 24.0 L 6.88 24.17 L 7.0 24.33 L 7.12 24.5 L 7.25 24.67 L 7.38 24.83 L 7.5 25.0 L 7.62 25.17 L 7.75 25.33 L 7.88 25.5 L 8.0 25.67 L 8.12 25.83 L 8.25 26.0 L 8.38 26.17 L 8.5 26.33 L 8.62 26.5 L 8.75 26.67 L 8.88 26.83 L 9.0 27.0" fill="none" stroke="#111" stroke-width="1.26" stroke-linecap="round" stroke-linejoin="round"/>
<path d="M 8.0 22.0 L 7.83 22.38 L 7.67 22.75 L 7.5 23.12 L 7.33 23.5 L 7.17 23.88 L 7.0 24.25 L 6.83 24.62 L 6.67 25.0 L 6.5 25.38 L 6.33 25.75 L 6.17 26.12 L 6.0 26.5 L 5.83 26.88 L 5.67 27.25 L 5.5 27.62 L 5.33 28.0 L 5.17 28.38 L 5.0 28.75 L 4.83 29.12 L 4.67 29.5 L 4.5 29.88 L 4.33 30.25 L 4.17 30.62 L 4.0 31.0" fill="none" stroke="#111" stroke-width="1.26" stroke-linecap="round" stroke-linejoin="round"/>
<path d="M 16.0 22.0 L 16.29 22.34 L 16.57 22.68 L 16.84 23.04 L 17.09 23.41 L 17.33 23.78 L 17.55 24.16 L 17.76 24.56 L 17.96 24.96 L 18.14 25.36 L 18.31 25.77 L 18.46 26.19 L 18.59 26.62 L 18.71 27.04 L 18.82 27.48 L 18.91 27.91 L 18.98 28.35 L 19.03 28.79 L 19.07 29.24 L 19.1 29.68 L 19.1 30.13 L 19.1 30.57 L 19.07 31.01 L 19.03 31.46 L 18.97 31.9" fill="none" stroke="#111" stroke-width="1.26" stroke-linecap="round" stroke-linejoin="round"/>
<path d="M 14.0 29.0 L 14.36 28.8 L 14.71 28.59 L 15.04 28.37 L 15.37 28.12 L 15.69 27.87 L 16.0 27.6 L 16.29 27.32 L 16.57 27.02 L 16.84 26.71 L 17.09 26.39 L 17.33 26.06 L 17.55 25.72 L 17.76 25.37 L 17.95 25.01 L 18.13 24.65 L 18.29 24.27 L 18.43 23.89 L 18.56 23.5 L 18.66 23.11 L 18.76 22.71 L 18.83 22.31 L 18.88 21.91 L 18.92 21.5 L 18.94 21.09" fill="none" stroke="#111" stroke-width="1.26" stroke-linecap="round" stroke-linejoin="round"/>
</svg>
