<?xml version="1.0" encoding="UTF-8"?>
<svg xmlns="http://www.w3.org/2000/svg" viewBox="0 0 23.99 33.80">
<path d="M 11.0 5.0 L 10.88 5.29 L 10.75 5.58 L 10.62 5.88 L 10.5 6.17 L 10.38 6.46 L 10.25 6.75 L 10.12 7.04 L 10.0 7.33 L 9.88 7.62 L 9.75 7.92 L 9.62 8.21 L 9.5 8.5 L 9.38 8.79 L 9.25 9.08 L 9.12 9.38 L 9.0 9.67 L 8.88 9.96 L 8.75 10.25 L 8.62 10.54 L 8.5 10.83 L 8.38 11.12 L 8.25 11.42 L 8.12 11.71 L 8.0 12.0" fill="none" stroke="#111" stroke-width="1.18" stroke-linecap="round" stroke-linejoin="round"/>
<path d="M 11.0 4.0 L 11.25 4.29 L 11.5 4.58 L 11.75 4.88 L 12.0 5.17 L 12.25 5.46 L 12.5 5.75 L 12.75 6.04 L 13.0 6.33 L 13.25 6.62 L 13.5 6.92 L 13.75 7.21 L 14.0 7.5 L 14.25 7.79 L 14.5 8.08 L 14.75 8.38 L 15.0 8.67 L 15.25 8.96 L 15.5 9.25 L 15.75 9.54 L 16.0 9.83 L 16.25 10.12 L 16.5 10.42 L 16.75 10.71 L 17.0 11.0" fill="none" stroke="#111" stroke-width="1.18" stroke-linecap="round" stroke-linejoin="round"/>
<path d="M 9.0 9.0 L 9.12 9.21 L 9.25 9.42 L 9.38 9.62 L 9.5 9.83 L 9.62 10.04 L 9.75 10.25 L 9.88 10.46 L 10.0 10.67 L 10.12 10.88 L 10.25 11.08 L 10.38 11.29 L 10.5 11.5 L 10.62 11.71 L 10.75 11.92 L 10.88 12.12 L 11.0 12.33 L 11.12 12.54 L 11.25 12.75 L 11.38 12.96 L 11.5 13.17 L 11.62 13.38 L 11.75 13.58 L 11.88 13.79 L 12.0 14.0" fill="none" stroke="#111" stroke-width="1.18" stroke-linecap="round" stroke-linejoin="round"/>
<path d="M 15.0 8.0 L 14.88 8.25 L 14.75 8.5 L 14.62 8.75 L 14.5 9.0 L 14.38 9.25 L 14.25 9.5 L 14.12 9.75 L 14.0 10.0 L 13.88 10.25 L 13.75 10.5 L 13.62 10.75 L 13.5 11.0 L 13.38 11.25 L 13.25 11.5 L 13.12 11.75 L 13.0 12.0 L 12.88 12.25 L 12.75 12.5 L 12.62 12.75 L 12.5 13.0 L 12.38 13.25 L 12.25 13.5 L 12.12 13.75 L 12.0 14.0" fill="none" stroke="#111" stroke-width="1.18" stroke-linecap="round" stroke-linejoin="round"/>
<path d="M 12.0 14.0 L 12.0 14.29 L 12.0 14.58 L 12.0 14.88 L 12.0 15.17 L 12.0 15.46 L 12.0 15.75 L 12.0 16.04 L 12.0 16.33 L 12.0 16.62 L 12.0 16.92 L 12.0 17.21 L 12.0 17.5 L 12.0 17.79 L 12.0 18.08 L 12.0 18.38 L 12.0 18.67 L 12.0 18.96 L 12.0 19.25 L 12.0 19.54 L 12.0 19.83 L 12.0 20.12 L 12.0 20.42 L 12.0 20.71 L 12.0 21.0" fill="none" stroke="#111" stroke-width="1.18" stroke-linecap="round" stroke-linejoin="round"/>
<path d="M 6.0 16.0 L 5.92 16.29 L 5.83 16.58 L 5.75 16.88 L 5.67 17.17 L 5.58 17.46 L 5.5 17.75 L 5.42 18.04 L 5.33 18.33 L 5.25 18.62 L 5.17 18.92 L 5.08 19.21 L 5.0 19.5 L 4.92 19.79 L 4.83 20.08 L 4.75 20.38 L 4.67 20.67 L 4.58 20.96 L 4.5 21.25 L 4.42 21.54 L 4.33 21.83 L 4.25 22.12 L 4.17 22.42 L 4.08 22.71 L 4.0 23.0" fill="none" stroke="#111" stroke-width="1.18" stroke-linecap="round" stroke-linejoin="round"/>
<path d="M 6.0 16.0 L 6.17 16.21 L 6.33 16.42 L 6.5 16.62 L 6.67 16.83 L 6.83 17.04 L 7.0 17.25 L 7.17 17.46 L 7.33 17.67 L 7.5 17.88 L 7.67 18.08 L 7.83 18.29 L 8.0 18.5 L 8.17 18.71 L 8.33 18.92 L 8.5 19.12 L 8.67 19.33 L 8.83 19.54 L 9.0 19.75 L 9.17 19.96 L 9.33 20.17 L 9.5 20.38 L 9.67 20.58 L 9.83 20.79 L 10.0 21.0" fill="none" stroke="#111" stroke-width="1.18" stroke-linecap="round" stroke-linejoin="round"/>
<path d="M 4.0 21.0 L 4.37 21.21 L 4.73 21.45 L 5.07 21.7 L 5.39 21.98 L 5.7 22.28 L 5.98 22.59 L 6.25 22.93 L 6.49 23.28 L 6.71 23.64 L 6.91 24.02 L 7.09 24.41 L 7.23 24.81 L 7.35 25.22 L 7.45 25.64 L 7.52 26.06 L 7.56 26.48 L 7.58 26.91 L 7.57 27.33 L 7.53 27.76 L 7.46 28.18 L 7.37 28.6 L 7.25 29.01 L 7.1 29.41 L 6.93 29.8" fill="none" stroke="#111" stroke-width="1.18" stroke-linecap="round" stroke-linejoin="round"/>
<path d="M 9.0 20.0 L 8.92 20.17 L 8.83 20.33 L 8.75 20.5 L 8.67 20.67 L 8.58 20.83 L 8.5 21.0 L 8.42 21.17 L 8.33 21.33 L 8.25 21.5 L 8.17 21.67 L 8.08 21.83 L 8.0 22.0 L 7.92 22.17 L 7.83 22.33 L 7.75 22.5 L 7.67 22.67 L 7.58 22.83 L 7.5 23.0 L 7.42 23.17 L 7.33 23.33 L 7.25 23.5 L 7.17 23.67 L 7.08 23.83 L 7.0 24.0" fill="none" stroke="#111" stroke-width="1.18" stroke-linecap="round" stroke-linejoin="round"/>
<path d="M 16.0 17.0 L 16.03 17.32 L 16.05 17.64 L 16.04 17.96 L 16.02 18.28 L 15.97 18.6 L 15.91 18.92 L 15.83 19.23 L 15.73 19.54 L 15.61 19.84 L 15.47 20.13 L 15.32 20.41 L 15.15 20.68 L 14.96 20.95 L 14.76 21.2 L 14.54 21.44 L 14.31 21.66 L 14.07 21.87 L 13.81 22.07 L 13.54 22.25 L 13.27 22.41 L 12.98 22.56 L 12.69 22.68 L 12.38 22.8 L 12.07 22.89" fill="none" stroke="#111" stroke-width="1.18" stroke-linecap="round" stroke-linejoin="round"/>
<path d="M 16.0 17.0 L 16.13 17.24 L 16.25 17.47 L 16.39 17.7 L 16.52 17.94 L 16.66 18.16 L 16.81 18.39 L 16.96 18.61 L 17.11 18.83 L 17.26 19.05 L 17.42 19.27 L 17.58 19.48 L 17.75 19.69 L 17.92 19.9 L 18.09 20.11 L 18.27 20.31 L 18.45 20.51 L 18.63 20.7 L 18.81 20.9 L 19.0 21.09 L 19.2 21.28 L 19.39 21.46 L 19.59 21.64 L 19.79 21.82 L 19.99 21.99" fill="none" stroke="#111" stroke-width="1.18" stroke-linecap="round" stroke-linejoin="round"/>
<path d="M 14.0 21.0 L 14.34 21.18 L 14.67 21.38 L 14.99 21.6 L 15.29 21.83 L 15.58 22.09 L 15.84 22.37 L 16.1 22.66 L 16.33 22.97 L 16.54 23.29 L 16.73 23.62 L 16.9 23.97 L 17.04 24.33 L 17.17 24.69 L 17.27 25.06 L 17.34 25.44 L 17.4 25.82 L 17.42 26.21 L 17.43 26.59 L 17.41 26.98 L 17.36 27.36 L 17.29 27.74 L 17.2 28.11 L 17.08 28.48 L 16.94 28.83" fill="none" stroke="#111" stroke-width="1.18" stroke-linecap="round" stroke-linejoin="round"/>
<path d="M 18.0 20.0 L 17.96 20.17 L 17.92 20.33 L 17.88 20.5 L 17.83 20.67 L 17.79 20.83 L 17.75 21.0 L 17.71 21.17 L 17.67 21.33 L 17.62 21.5 L 17.58 21.67 L 17.54 21.83 L 17.5 22.0 L 17.46 22.17 L 17.42 22.33 L 17.38 22.5 L 17.33 22.67 L 17.29 22.83 L 17.25 23.0 L 17.21 23.17 L 17.17 23.33 L 17.12 23.5 L 17.08 23.67 L 17.04 23.83 L 17.0 24.0" fill="none" stroke="#111" stroke-width="1.18" stroke-linecap="round" stroke-linejoin="round"/>
</svg>
