<?xml version="1.0" encoding="UTF-8"?>
<svg xmlns="http://www.w3.org/2000/svg" viewBox="0 0 24.00 34.99">
<path d="M 9.0 4.0 L 9.81 4.89 L 10.58 5.82 L 11.29 6.79 L 11.96 7.79 L 12.57 8.83 L 13.13 9.9 L 13.63 10.99 L 14.08 12.11 L 14.46 13.25 L 14.79 14.41 L 15.06 15.59 L 15.27 16.77 L 15.41 17.97 L 15.5 19.17 L 15.52 20.37 L 15.48 21.58 L 15.38 22.78 L 15.21 23.97 L 14.99 25.16 L 14.7 26.33 L 14.36 27.48 L 13.95 28.61 L 13.49 29.73 L 12.97 30.81" fill="none" stroke="#111" stroke-width="1.22" stroke-linecap="round" stroke-linejoin="round"/>
<path d="M 16.0 7.0 L 16.17 7.42 L 16.33 7.83 L 16.5 8.25 L 16.67 8.67 L 16.83 9.08 L 17.0 9.5 L 17.17 9.92 L 17.33 10.33 L 17.5 10.75 L 17.67 11.17 L 17.83 11.58 L 18.0 12.0 L 18.17 12.42 L 18.33 12.83 L 18.5 13.25 L 18.67 13.67 L 18.83 14.08 L 19.0 14.5 L 19.17 14.92 L 19.33 15.33 L 19.5 15.75 L 19.67 16.17 L 19.83 16.58 L 20.0 17.0" fill="none" stroke="#111" stroke-width="1.22" stroke-linecap="round" stroke-linejoin="round"/>
<path d="M 12.0 11.0 L 12.21 10.96 L 12.42 10.92 L 12.62 10.88 L 12.83 10.83 L 13.04 10.79 L 13.25 10.75 L 13.46 10.71 L 13.67 10.67 L 13.88 10.62 L 14.08 10.58 L 14.29 10.54 L 14.5 10.5 L 14.71 10.46 L 14.92 10.42 L 15.12 10.38 L 15.33 10.33 L 15.54 10.29 L 15.75 10.25 L 15.96 10.21 L 16.17 10.17 L 16.38 10.12 L 16.58 10.08 L 16.79 10.04 L 17.0 10.0" fill="none" stroke="#111" stroke-width="1.22" stroke-linecap="round" stroke-linejoin="round"/>
<path d="M 15.0 16.0 L 15.17 15.96 L 15.33 15.92 L 15.5 15.88 L 15.67 15.83 L 15.83 15.79 L 16.0 15.75 L 16.17 15.71 L 16.33 15.67 L 16.5 15.62 L 16.67 15.58 L 16.83 15.54 L 17.0 15.5 L 17.17 15.46 L 17.33 15.42 L 17.5 15.38 L 17.67 15.33 L 17.83 15.29 L 18.0 15.25 L 18.17 15.21 L 18.33 15.17 L 18.5 15.12 L 18.67 15.08 L 18.83 15.04 L 19.0 15.0" fill="none" stroke="#111" stroke-width="1.22" stroke-linecap="round" stroke-linejoin="round"/>
<path d="M 9.0 10.0 L 8.79 10.25 L 8.58 10.5 L 8.38 10.75 L 8.17 11.0 L 7.96 11.25 L 7.75 11.5 L 7.54 11.75 L 7.33 12.0 L 7.12 12.25 L 6.92 12.5 L 6.71 12.75 L 6.5 13.0 L 6.29 13.25 L 6.08 13.5 L 5.88 13.75 L 5.67 14.0 L 5.46 14.25 L 5.25 14.5 L 5.04 14.75 L 4.83 15.0 L 4.62 15.25 L 4.42 15.5 L 4.21 15.75 L 4.0 16.0" fill="none" stroke="#111" stroke-width="1.22" stroke-linecap="round" stroke-linejoin="round"/>
<path d="M 8.0 12.0 L 8.21 12.62 L 8.42 13.25 L 8.62 13.88 L 8.83 14.5 L 9.04 15.12 L 9.25 15.75 L 9.46 16.38 L 9.67 17.0 L 9.88 17.62 L 10.08 18.25 L 10.29 18.88 L 10.5 19.5 L 10.71 20.12 L 10.92 20.75 L 11.12 21.38 L 11.33 22.0 L 11.54 22.62 L 11.75 23.25 L 11.96 23.88 L 12.17 24.5 L 12.38 25.12 L 12.58 25.75 L 12.79 26.38 L 13.0 27.0" fill="none" stroke="#111" stroke-width="1.22" stroke-linecap="round" stroke-linejoin="round"/>
<path d="M 10.0 21.0 L 9.86 21.44 L 9.71 21.89 L 9.55 22.33 L 9.39 22.77 L 9.23 23.2 L 9.05 23.64 L 8.88 24.07 L 8.69 24.5 L 8.5 24.93 L 8.31 25.35 L 8.11 25.78 L 7.9 26.19 L 7.69 26.61 L 7.47 27.02 L 7.25 27.44 L 7.02 27.84 L 6.79 28.25 L 6.55 28.65 L 6.31 29.05 L 6.06 29.44 L 5.8 29.84 L 5.54 30.22 L 5.28 30.61 L 5.01 30.99" fill="none" stroke="#111" stroke-width="1.22" stroke-linecap="round" stroke-linejoin="round"/>
<path d="M 8.0 19.0 L 7.74 19.34 L 7.5 19.7 L 7.3 20.08 L 7.12 20.47 L 6.97 20.87 L 6.85 21.29 L 6.77 21.71 L 6.71 22.14 L 6.69 22.57 L 6.71 23.0 L 6.75 23.42 L 6.83 23.85 L 6.94 24.26 L 7.08 24.67 L 7.25 25.06 L 7.45 25.44 L 7.68 25.81 L 7.93 26.15 L 8.22 26.48 L 8.52 26.78 L 8.85 27.06 L 9.2 27.32 L 9.56 27.54 L 9.94 27.74" fill="none" stroke="#111" stroke-width="1.22" stroke-linecap="round" stroke-linejoin="round"/>
</svg>
