<?xml version="1.0" encoding="UTF-8"?>
<svg xmlns="http://www.w3.org/2000/svg" viewBox="0 0 25.90 46.22">
<path d="M 12.0 4.0 L 11.73 4.67 L 11.49 5.36 L 11.29 6.05 L 11.13 6.76 L 11.01 7.48 L 10.93 8.2 L 10.89 8.92 L 10.89 9.65 L 10.93 10.37 L 11.0 11.09 L 11.12 11.81 L 11.28 12.51 L 11.47 13.21 L 11.71 13.9 L 11.98 14.57 L 12.28 15.23 L 12.63 15.87 L 13.0 16.49 L 13.41 17.08 L 13.86 17.66 L 14.33 18.21 L 14.83 18.73 L 15.36 19.22 L 15.92 19.69 L 16.0 20.0 L 14.97 20.45 L 13.99 20.97 L 13.05 21.58 L 12.16 22.26 L 11.33 23.01 L 10.56 23.83 L 9.86 24.7 L 9.24 25.63 L 8.69 26.6 L 8.23 27.62 L 7.84 28.67 L 7.55 29.75 L 7.34 30.85 L 7.22 31.96 L 7.2 33.08 L 7.26 34.2 L 7.42 35.31 L 7.66 36.4 L 7.99 37.47 L 8.41 38.51 L 8.91 39.51 L 9.49 40.46 L 10.15 41.37 L 10.87 42.22" fill="none" stroke="#111" stroke-width="1.62" stroke-linecap="round" stroke-linejoin="round"/>
<path d="M 12.0 13.0 L 11.96 13.42 L 11.92 13.83 L 11.88 14.25 L 11.83 14.67 L 11.79 15.08 L 11.75 15.5 L 11.71 15.92 L 11.67 16.33 L 11.62 16.75 L 11.58 17.17 L 11.54 17.58 L 11.5 18.0 L 11.46 18.42 L 11.42 18.83 L 11.38 19.25 L 11.33 19.67 L 11.29 20.08 L 11.25 20.5 L 11.21 20.92 L 11.17 21.33 L 11.12 21.75 L 11.08 22.17 L 11.04 22.58 L 11.0 23.0" fill="none" stroke="#111" stroke-width="1.62" stroke-linecap="round" stroke-linejoin="round"/>
<path d="M 4.0 20.0 L 4.21 19.46 L 4.42 18.92 L 4.62 18.38 L 4.83 17.83 L 5.04 17.29 L 5.25 16.75 L 5.46 16.21 L 5.67 15.67 L 5.88 15.12 L 6.08 14.58 L 6.29 14.04 L 6.5 13.5 L 6.71 12.96 L 6.92 12.42 L 7.12 11.88 L 7.33 11.33 L 7.54 10.79 L 7.75 10.25 L 7.96 9.71 L 8.17 9.17 L 8.38 8.63 L 8.58 8.08 L 8.79 7.54 L 9.0 7.0 L 9.0 7.0 L 8.96 7.67 L 8.92 8.33 L 8.88 9.0 L 8.83 9.67 L 8.79 10.33 L 8.75 11.0 L 8.71 11.67 L 8.67 12.33 L 8.62 13.0 L 8.58 13.67 L 8.54 14.33 L 8.5 15.0 L 8.46 15.67 L 8.42 16.33 L 8.38 17.0 L 8.33 17.67 L 8.29 18.33 L 8.25 19.0 L 8.21 19.67 L 8.17 20.33 L 8.12 21.0 L 8.08 21.67 L 8.04 22.33 L 8.0 23.0" fill="none" stroke="#111" stroke-width="1.62" stroke-linecap="round" stroke-linejoin="round"/>
<path d="M 6.0 12.0 L 6.17 12.08 L 6.33 12.17 L 6.5 12.25 L 6.67 12.33 L 6.83 12.42 L 7.0 12.5 L 7.17 12.58 L 7.33 12.67 L 7.5 12.75 L 7.67 12.83 L 7.83 12.92 L 8.0 13.0 L 8.17 13.08 L 8.33 13.17 L 8.5 13.25 L 8.67 13.33 L 8.83 13.42 L 9.0 13.5 L 9.17 13.58 L 9.33 13.67 L 9.5 13.75 L 9.67 13.83 L 9.83 13.92 L 10.0 14.0" fill="none" stroke="#111" stroke-width="1.62" stroke-linecap="round" stroke-linejoin="round"/>
<path d="M 5.0 15.0 L 5.17 15.08 L 5.33 15.17 L 5.5 15.25 L 5.67 15.33 L 5.83 15.42 L 6.0 15.5 L 6.17 15.58 L 6.33 15.67 L 6.5 15.75 L 6.67 15.83 L 6.83 15.92 L 7.0 16.0 L 7.17 16.08 L 7.33 16.17 L 7.5 16.25 L 7.67 16.33 L 7.83 16.42 L 8.0 16.5 L 8.17 16.58 L 8.33 16.67 L 8.5 16.75 L 8.67 16.83 L 8.83 16.92 L 9.0 17.0" fill="none" stroke="#111" stroke-width="1.62" stroke-linecap="round" stroke-linejoin="round"/>
<path d="M 14.0 9.0 L 14.54 9.3 L 15.07 9.62 L 15.59 9.96 L 16.09 10.32 L 16.57 10.71 L 17.04 11.11 L 17.49 11.53 L 17.93 11.97 L 18.34 12.43 L 18.74 12.91 L 19.11 13.4 L 19.47 13.91 L 19.8 14.43 L 20.11 14.97 L 20.4 15.51 L 20.66 16.07 L 20.9 16.64 L 21.12 17.22 L 21.31 17.81 L 21.48 18.41 L 21.62 19.01 L 21.74 19.62 L 21.83 20.23 L 21.9 20.84" fill="none" stroke="#111" stroke-width="1.62" stroke-linecap="round" stroke-linejoin="round"/>
<path d="M 15.0 5.0 L 15.41 5.26 L 15.8 5.56 L 16.16 5.89 L 16.49 6.25 L 16.78 6.63 L 17.05 7.05 L 17.27 7.48 L 17.46 7.93 L 17.6 8.39 L 17.71 8.87 L 17.77 9.35 L 17.8 9.84 L 17.77 10.33 L 17.71 10.81 L 17.6 11.29 L 17.46 11.75 L 17.27 12.2 L 17.05 12.64 L 16.78 13.05 L 16.49 13.43 L 16.16 13.79 L 15.8 14.12 L 15.41 14.42 L 15.0 14.68" fill="none" stroke="#111" stroke-width="1.62" stroke-linecap="round" stroke-linejoin="round"/>
</svg>
