<?xml version="1.0" encoding="UTF-8"?>
<svg xmlns="http://www.w3.org/2000/svg" viewBox="0 0 21.00 33.65">
<path d="M 11.0 4.0 L 11.35 5.12 L 11.65 6.26 L 11.9 7.41 L 12.08 8.57 L 12.21 9.73 L 12.28 10.91 L 12.29 12.08 L 12.24 13.25 L 12.14 14.42 L 11.97 15.59 L 11.75 16.74 L 11.48 17.88 L 11.14 19.01 L 10.75 20.12 L 10.31 21.21 L 9.82 22.27 L 9.27 23.31 L 8.67 24.32 L 8.02 25.3 L 7.32 26.24 L 6.58 27.15 L 5.79 28.03 L 4.96 28.86 L 4.09 29.65" fill="none" stroke="#111" stroke-width="1.18" stroke-linecap="round" stroke-linejoin="round"/>
<path d="M 11.0 16.0 L 10.71 16.29 L 10.42 16.58 L 10.12 16.88 L 9.83 17.17 L 9.54 17.46 L 9.25 17.75 L 8.96 18.04 L 8.67 18.33 L 8.38 18.62 L 8.08 18.92 L 7.79 19.21 L 7.5 19.5 L 7.21 19.79 L 6.92 20.08 L 6.62 20.38 L 6.33 20.67 L 6.04 20.96 L 5.75 21.25 L 5.46 21.54 L 5.17 21.83 L 4.88 22.12 L 4.58 22.42 L 4.29 22.71 L 4.0 23.0" fill="none" stroke="#111" stroke-width="1.18" stroke-linecap="round" stroke-linejoin="round"/>
<path d="M 4.0 5.0 L 4.04 5.42 L 4.08 5.83 L 4.12 6.25 L 4.17 6.67 L 4.21 7.08 L 4.25 7.5 L 4.29 7.92 L 4.33 8.33 L 4.38 8.75 L 4.42 9.17 L 4.46 9.58 L 4.5 10.0 L 4.54 10.42 L 4.58 10.83 L 4.62 11.25 L 4.67 11.67 L 4.71 12.08 L 4.75 12.5 L 4.79 12.92 L 4.83 13.33 L 4.87 13.75 L 4.92 14.17 L 4.96 14.58 L 5.0 15.0" fill="none" stroke="#111" stroke-width="1.18" stroke-linecap="round" stroke-linejoin="round"/>
<path d="M 5.0 10.0 L 5.5 9.96 L 6.0 9.92 L 6.5 9.88 L 7.0 9.83 L 7.5 9.79 L 8.0 9.75 L 8.5 9.71 L 9.0 9.67 L 9.5 9.62 L 10.0 9.58 L 10.5 9.54 L 11.0 9.5 L 11.5 9.46 L 12.0 9.42 L 12.5 9.38 L 13.0 9.33 L 13.5 9.29 L 14.0 9.25 L 14.5 9.21 L 15.0 9.17 L 15.5 9.12 L 16.0 9.08 L 16.5 9.04 L 17.0 9.0" fill="none" stroke="#111" stroke-width="1.18" stroke-linecap="round" stroke-linejoin="round"/>
<path d="M 16.0 4.0 L 16.0 4.42 L 16.0 4.83 L 16.0 5.25 L 16.0 5.67 L 16.0 6.08 L 16.0 6.5 L 16.0 6.92 L 16.0 7.33 L 16.0 7.75 L 16.0 8.17 L 16.0 8.58 L 16.0 9.0 L 16.0 9.42 L 16.0 9.83 L 16.0 10.25 L 16.0 10.67 L 16.0 11.08 L 16.0 11.5 L 16.0 11.92 L 16.0 12.33 L 16.0 12.75 L 16.0 13.17 L 16.0 13.58 L 16.0 14.0" fill="none" stroke="#111" stroke-width="1.18" stroke-linecap="round" stroke-linejoin="round"/>
</svg>
