<?xml version="1.0" encoding="UTF-8"?>
<svg xmlns="http://www.w3.org/2000/svg" viewBox="0 0 31.00 24.00">
<path d="M 5.0 4.0 L 5.88 4.0 L 6.75 4.0 L 7.62 4.0 L 8.5 4.0 L 9.38 4.0 L 10.25 4.0 L 11.12 4.0 L 12.0 4.0 L 12.88 4.0 L 13.75 4.0 L 14.62 4.0 L 15.5 4.0 L 16.38 4.0 L 17.25 4.0 L 18.12 4.0 L 19.0 4.0 L 19.88 4.0 L 20.75 4.0 L 21.62 4.0 L 22.5 4.0 L 23.38 4.0 L 24.25 4.0 L 25.12 4.0 L 26.0 4.0" fill="none" stroke="#111" stroke-width="1.09" stroke-linecap="round" stroke-linejoin="round"/>
<path d="M 8.0 11.0 L 8.58 11.0 L 9.17 11.0 L 9.75 11.0 L 10.33 11.0 L 10.92 11.0 L 11.5 11.0 L 12.08 11.0 L 12.67 11.0 L 13.25 11.0 L 13.83 11.0 L 14.42 11.0 L 15.0 11.0 L 15.58 11.0 L 16.17 11.0 L 16.75 11.0 L 17.33 11.0 L 17.92 11.0 L 18.5 11.0 L 19.08 11.0 L 19.67 11.0 L 20.25 11.0 L 20.83 11.0 L 21.42 11.0 L 22.0 11.0" fill="none" stroke="#111" stroke-width="1.09" stroke-linecap="round" stroke-linejoin="round"/>
<path d="M 4.0 20.0 L 4.96 20.0 L 5.92 20.0 L 6.88 20.0 L 7.83 20.0 L 8.79 20.0 L 9.75 20.0 L 10.71 20.0 L 11.67 20.0 L 12.62 20.0 L 13.58 20.0 L 14.54 20.0 L 15.5 20.0 L 16.46 20.0 L 17.42 20.0 L 18.38 20.0 L 19.33 20.0 L 20.29 20.0 L 21.25 20.0 L 22.21 20.0 L 23.17 20.0 L 24.12 20.0 L 25.08 20.0 L 26.04 20.0 L 27.0 20.0" fill="none" stroke="#111" stroke-width="1.09" stroke-linecap="round" stroke-linejoin="round"/>
</svg>
