<?xml version="1.0" encoding="UTF-8"?>
<svg xmlns="http://www.w3.org/2000/svg" viewBox="0 0 27.29 37.00">
<path d="M 12.0 6.0 L 12.17 6.0 L 12.33 6.0 L 12.5 6.0 L 12.67 6.0 L 12.83 6.0 L 13.0 6.0 L 13.17 6.0 L 13.33 6.0 L 13.5 6.0 L 13.67 6.0 L 13.83 6.0 L 14.0 6.0 L 14.17 6.0 L 14.33 6.0 L 14.5 6.0 L 14.67 6.0 L 14.83 6.0 L 15.0 6.0 L 15.17 6.0 L 15.33 6.0 L 15.5 6.0 L 15.67 6.0 L 15.83 6.0 L 16.0 6.0" fill="none" stroke="#111" stroke-width="1.30" stroke-linecap="round" stroke-linejoin="round"/>
<path d="M 11.0 9.0 L 11.21 9.0 L 11.42 9.0 L 11.62 9.0 L 11.83 9.0 L 12.04 9.0 L 12.25 9.0 L 12.46 9.0 L 12.67 9.0 L 12.87 9.0 L 13.08 9.0 L 13.29 9.0 L 13.5 9.0 L 13.71 9.0 L 13.92 9.0 L 14.12 9.0 L 14.33 9.0 L 14.54 9.0 L 14.75 9.0 L 14.96 9.0 L 15.17 9.0 L 15.37 9.0 L 15.58 9.0 L 15.79 9.0 L 16.0 9.0" fill="none" stroke="#111" stroke-width="1.30" stroke-linecap="round" stroke-linejoin="round"/>
<path d="M 12.0 6.0 L 11.96 6.12 L 11.92 6.25 L 11.87 6.38 L 11.83 6.5 L 11.79 6.62 L 11.75 6.75 L 11.71 6.88 L 11.67 7.0 L 11.62 7.12 L 11.58 7.25 L 11.54 7.38 L 11.5 7.5 L 11.46 7.62 L 11.42 7.75 L 11.37 7.88 L 11.33 8.0 L 11.29 8.12 L 11.25 8.25 L 11.21 8.38 L 11.17 8.5 L 11.12 8.62 L 11.08 8.75 L 11.04 8.88 L 11.0 9.0" fill="none" stroke="#111" stroke-width="1.30" stroke-linecap="round" stroke-linejoin="round"/>
<path d="M 16.0 6.0 L 16.0 6.12 L 16.0 6.25 L 16.0 6.38 L 16.0 6.5 L 16.0 6.62 L 16.0 6.75 L 16.0 6.88 L 16.0 7.0 L 16.0 7.12 L 16.0 7.25 L 16.0 7.38 L 16.0 7.5 L 16.0 7.62 L 16.0 7.75 L 16.0 7.88 L 16.0 8.0 L 16.0 8.12 L 16.0 8.25 L 16.0 8.38 L 16.0 8.5 L 16.0 8.62 L 16.0 8.75 L 16.0 8.88 L 16.0 9.0" fill="none" stroke="#111" stroke-width="1.30" stroke-linecap="round" stroke-linejoin="round"/>
<path d="M 15.0 4.0 L 15.04 4.04 L 15.08 4.08 L 15.12 4.12 L 15.17 4.17 L 15.21 4.21 L 15.25 4.25 L 15.29 4.29 L 15.33 4.33 L 15.37 4.38 L 15.42 4.42 L 15.46 4.46 L 15.5 4.5 L 15.54 4.54 L 15.58 4.58 L 15.62 4.62 L 15.67 4.67 L 15.71 4.71 L 15.75 4.75 L 15.79 4.79 L 15.83 4.83 L 15.87 4.88 L 15.92 4.92 L 15.96 4.96 L 16.0 5.0" fill="none" stroke="#111" stroke-width="1.30" stroke-linecap="round" stroke-linejoin="round"/>
<path d="M 19.0 6.0 L 18.96 6.12 L 18.92 6.25 L 18.88 6.38 L 18.83 6.5 L 18.79 6.62 L 18.75 6.75 L 18.71 6.88 L 18.67 7.0 L 18.62 7.12 L 18.58 7.25 L 18.54 7.38 L 18.5 7.5 L 18.46 7.62 L 18.42 7.75 L 18.38 7.88 L 18.33 8.0 L 18.29 8.12 L 18.25 8.25 L 18.21 8.38 L 18.17 8.5 L 18.12 8.62 L 18.08 8.75 L 18.04 8.88 L 18.0 9.0" fill="none" stroke="#111" stroke-width="1.30" stroke-linecap="round" stroke-linejoin="round"/>
<path d="M 8.0 8.0 L 8.04 8.08 L 8.08 8.17 L 8.12 8.25 L 8.17 8.33 L 8.21 8.42 L 8.25 8.5 L 8.29 8.58 L 8.33 8.67 L 8.37 8.75 L 8.42 8.83 L 8.46 8.92 L 8.5 9.0 L 8.54 9.08 L 8.58 9.17 L 8.62 9.25 L 8.67 9.33 L 8.71 9.42 L 8.75 9.5 L 8.79 9.58 L 8.83 9.67 L 8.87 9.75 L 8.92 9.83 L 8.96 9.92 L 9.0 10.0" fill="none" stroke="#111" stroke-width="1.30" stroke-linecap="round" stroke-linejoin="round"/>
<path d="M 11.0 12.0 L 11.25 12.0 L 11.5 12.0 L 11.75 12.0 L 12.0 12.0 L 12.25 12.0 L 12.5 12.0 L 12.75 12.0 L 13.0 12.0 L 13.25 12.0 L 13.5 12.0 L 13.75 12.0 L 14.0 12.0 L 14.25 12.0 L 14.5 12.0 L 14.75 12.0 L 15.0 12.0 L 15.25 12.0 L 15.5 12.0 L 15.75 12.0 L 16.0 12.0 L 16.25 12.0 L 16.5 12.0 L 16.75 12.0 L 17.0 12.0" fill="none" stroke="#111" stroke-width="1.30" stroke-linecap="round" stroke-linejoin="round"/>
<path d="M 14.0 9.0 L 14.0 9.25 L 14.0 9.5 L 14.0 9.75 L 14.0 10.0 L 14.0 10.25 L 14.0 10.5 L 14.0 10.75 L 14.0 11.0 L 14.0 11.25 L 14.0 11.5 L 14.0 11.75 L 14.0 12.0 L 14.0 12.25 L 14.0 12.5 L 14.0 12.75 L 14.0 13.0 L 14.0 13.25 L 14.0 13.5 L 14.0 13.75 L 14.0 14.0 L 14.0 14.25 L 14.0 14.5 L 14.0 14.75 L 14.0 15.0" fill="none" stroke="#111" stroke-width="1.30" stroke-linecap="round" stroke-linejoin="round"/>
<path d="M 9.0 17.0 L 8.45 18.26 L 8.13 19.6 L 8.07 20.98 L 8.25 22.34 L 8.67 23.65 L 9.32 24.87 L 10.18 25.94 L 11.22 26.84 L 12.41 27.55 L 13.7 28.02 L 15.06 28.26 L 16.44 28.24 L 17.79 27.98 L 19.07 27.48 L 20.24 26.76 L 21.27 25.84 L 22.11 24.75 L 22.74 23.53 L 23.14 22.21 L 23.29 20.84 L 23.2 19.46 L 22.86 18.13 L 22.29 16.88 L 21.5 15.75" fill="none" stroke="#111" stroke-width="1.30" stroke-linecap="round" stroke-linejoin="round"/>
<path d="M 7.0 16.0 L 7.17 16.0 L 7.33 16.0 L 7.5 16.0 L 7.67 16.0 L 7.83 16.0 L 8.0 16.0 L 8.17 16.0 L 8.33 16.0 L 8.5 16.0 L 8.67 16.0 L 8.83 16.0 L 9.0 16.0 L 9.17 16.0 L 9.33 16.0 L 9.5 16.0 L 9.67 16.0 L 9.83 16.0 L 10.0 16.0 L 10.17 16.0 L 10.33 16.0 L 10.5 16.0 L 10.67 16.0 L 10.83 16.0 L 11.0 16.0" fill="none" stroke="#111" stroke-width="1.30" stroke-linecap="round" stroke-linejoin="round"/>
<path d="M 17.0 16.0 L 17.12 16.0 L 17.25 16.0 L 17.38 16.0 L 17.5 16.0 L 17.62 16.0 L 17.75 16.0 L 17.88 16.0 L 18.0 16.0 L 18.12 16.0 L 18.25 16.0 L 18.38 16.0 L 18.5 16.0 L 18.62 16.0 L 18.75 16.0 L 18.88 16.0 L 19.0 16.0 L 19.12 16.0 L 19.25 16.0 L 19.38 16.0 L 19.5 16.0 L 19.62 16.0 L 19.75 16.0 L 19.88 16.0 L 20.0 16.0" fill="none" stroke="#111" stroke-width="1.30" stroke-linecap="round" stroke-linejoin="round"/>
<path d="M 18.0 19.0 L 17.58 19.29 L 17.17 19.58 L 16.75 19.88 L 16.33 20.17 L 15.92 20.46 L 15.5 20.75 L 15.08 21.04 L 14.67 21.33 L 14.25 21.62 L 13.83 21.92 L 13.42 22.21 L 13.0 22.5 L 12.58 22.79 L 12.17 23.08 L 11.75 23.38 L 11.33 23.67 L 10.92 23.96 L 10.5 24.25 L 10.08 24.54 L 9.67 24.83 L 9.25 25.12 L 8.83 25.42 L 8.42 25.71 L 8.0 26.0" fill="none" stroke="#111" stroke-width="1.30" stroke-linecap="round" stroke-linejoin="round"/>
<path d="M 9.0 19.0 L 9.37 19.29 L 9.75 19.58 L 10.12 19.88 L 10.5 20.17 L 10.87 20.46 L 11.25 20.75 L 11.62 21.04 L 12.0 21.33 L 12.37 21.62 L 12.75 21.92 L 13.12 22.21 L 13.5 22.5 L 13.87 22.79 L 14.25 23.08 L 14.62 23.38 L 15.0 23.67 L 15.37 23.96 L 15.75 24.25 L 16.12 24.54 L 16.5 24.83 L 16.87 25.12 L 17.25 25.42 L 17.62 25.71 L 18.0 26.0" fill="none" stroke="#111" stroke-width="1.30" stroke-linecap="round" stroke-linejoin="round"/>
<path d="M 8.0 27.0 L 7.83 27.25 L 7.67 27.5 L 7.5 27.75 L 7.33 28.0 L 7.17 28.25 L 7.0 28.5 L 6.83 28.75 L 6.67 29.0 L 6.5 29.25 L 6.33 29.5 L 6.17 29.75 L 6.0 30.0 L 5.83 30.25 L 5.67 30.5 L 5.5 30.75 L 5.33 31.0 L 5.17 31.25 L 5.0 31.5 L 4.83 31.75 L 4.67 32.0 L 4.5 32.25 L 4.33 32.5 L 4.17 32.75 L 4.0 33.0" fill="none" stroke="#111" stroke-width="1.30" stroke-linecap="round" stroke-linejoin="round"/>
<path d="M 5.0 26.0 L 5.12 26.25 L 5.25 26.5 L 5.37 26.75 L 5.5 27.0 L 5.62 27.25 L 5.75 27.5 L 5.87 27.75 L 6.0 28.0 L 6.12 28.25 L 6.25 28.5 L 6.37 28.75 L 6.5 29.0 L 6.62 29.25 L 6.75 29.5 L 6.87 29.75 L 7.0 30.0 L 7.12 30.25 L 7.25 30.5 L 7.37 30.75 L 7.5 31.0 L 7.62 31.25 L 7.75 31.5 L 7.87 31.75 L 8.0 32.0" fill="none" stroke="#111" stroke-width="1.30" stroke-linecap="round" stroke-linejoin="round"/>
<path d="M 21.0 24.0 L 21.09 24.3 L 21.16 24.61 L 21.22 24.93 L 21.26 25.24 L 21.28 25.55 L 21.29 25.87 L 21.29 26.19 L 21.27 26.5 L 21.24 26.82 L 21.19 27.13 L 21.12 27.44 L 21.04 27.75 L 20.95 28.05 L 20.84 28.35 L 20.72 28.64 L 20.58 28.93 L 20.43 29.21 L 20.26 29.48 L 20.09 29.74 L 19.9 29.99 L 19.7 30.24 L 19.48 30.47 L 19.26 30.7 L 19.03 30.91" fill="none" stroke="#111" stroke-width="1.30" stroke-linecap="round" stroke-linejoin="round"/>
<path d="M 19.0 26.0 L 19.12 26.21 L 19.25 26.42 L 19.38 26.62 L 19.5 26.83 L 19.62 27.04 L 19.75 27.25 L 19.88 27.46 L 20.0 27.67 L 20.12 27.88 L 20.25 28.08 L 20.38 28.29 L 20.5 28.5 L 20.62 28.71 L 20.75 28.92 L 20.88 29.12 L 21.0 29.33 L 21.12 29.54 L 21.25 29.75 L 21.38 29.96 L 21.5 30.17 L 21.62 30.38 L 21.75 30.58 L 21.88 30.79 L 22.0 31.0" fill="none" stroke="#111" stroke-width="1.30" stroke-linecap="round" stroke-linejoin="round"/>
</svg>
