<?xml version="1.0" encoding="UTF-8"?>
<svg xmlns="http://www.w3.org/2000/svg" viewBox="0 0 21.00 37.94">
<path d="M 8.0 10.0 L 8.04 10.25 L 8.08 10.5 L 8.12 10.75 L 8.17 11.0 L 8.21 11.25 L 8.25 11.5 L 8.29 11.75 L 8.33 12.0 L 8.38 12.25 L 8.42 12.5 L 8.46 12.75 L 8.5 13.0 L 8.54 13.25 L 8.58 13.5 L 8.62 13.75 L 8.67 14.0 L 8.71 14.25 L 8.75 14.5 L 8.79 14.75 L 8.83 15.0 L 8.88 15.25 L 8.92 15.5 L 8.96 15.75 L 9.0 16.0 L 9.0 16.0 L 9.44 16.1 L 9.89 16.16 L 10.34 16.18 L 10.79 16.14 L 11.23 16.06 L 11.66 15.94 L 12.08 15.77 L 12.48 15.56 L 12.86 15.31 L 13.2 15.02 L 13.52 14.7 L 13.8 14.34 L 14.04 13.96 L 14.24 13.56 L 14.4 13.14 L 14.52 12.7 L 14.59 12.26 L 14.61 11.81 L 14.59 11.36 L 14.52 10.91 L 14.41 10.48 L 14.25 10.05 L 14.05 9.65 L 13.81 9.27" fill="none" stroke="#111" stroke-width="1.33" stroke-linecap="round" stroke-linejoin="round"/>
<path d="M 9.0 11.0 L 9.21 11.0 L 9.42 11.0 L 9.62 11.0 L 9.83 11.0 L 10.04 11.0 L 10.25 11.0 L 10.46 11.0 L 10.67 11.0 L 10.88 11.0 L 11.08 11.0 L 11.29 11.0 L 11.5 11.0 L 11.71 11.0 L 11.92 11.0 L 12.12 11.0 L 12.33 11.0 L 12.54 11.0 L 12.75 11.0 L 12.96 11.0 L 13.17 11.0 L 13.38 11.0 L 13.58 11.0 L 13.79 11.0 L 14.0 11.0" fill="none" stroke="#111" stroke-width="1.33" stroke-linecap="round" stroke-linejoin="round"/>
<path d="M 7.0 5.0 L 6.88 5.25 L 6.75 5.5 L 6.62 5.75 L 6.5 6.0 L 6.38 6.25 L 6.25 6.5 L 6.12 6.75 L 6.0 7.0 L 5.88 7.25 L 5.75 7.5 L 5.62 7.75 L 5.5 8.0 L 5.38 8.25 L 5.25 8.5 L 5.12 8.75 L 5.0 9.0 L 4.88 9.25 L 4.75 9.5 L 4.62 9.75 L 4.5 10.0 L 4.38 10.25 L 4.25 10.5 L 4.12 10.75 L 4.0 11.0" fill="none" stroke="#111" stroke-width="1.33" stroke-linecap="round" stroke-linejoin="round"/>
<path d="M 13.0 4.0 L 13.17 4.33 L 13.33 4.67 L 13.5 5.0 L 13.67 5.33 L 13.83 5.67 L 14.0 6.0 L 14.17 6.33 L 14.33 6.67 L 14.5 7.0 L 14.67 7.33 L 14.83 7.67 L 15.0 8.0 L 15.17 8.33 L 15.33 8.67 L 15.5 9.0 L 15.67 9.33 L 15.83 9.67 L 16.0 10.0 L 16.17 10.33 L 16.33 10.67 L 16.5 11.0 L 16.67 11.33 L 16.83 11.67 L 17.0 12.0" fill="none" stroke="#111" stroke-width="1.33" stroke-linecap="round" stroke-linejoin="round"/>
<path d="M 11.0 16.0 L 11.08 16.29 L 11.17 16.58 L 11.25 16.88 L 11.33 17.17 L 11.42 17.46 L 11.5 17.75 L 11.58 18.04 L 11.67 18.33 L 11.75 18.62 L 11.83 18.92 L 11.92 19.21 L 12.0 19.5 L 12.08 19.79 L 12.17 20.08 L 12.25 20.38 L 12.33 20.67 L 12.42 20.96 L 12.5 21.25 L 12.58 21.54 L 12.67 21.83 L 12.75 22.12 L 12.83 22.42 L 12.92 22.71 L 13.0 23.0 L 13.0 23.0 L 12.76 23.41 L 12.52 23.82 L 12.3 24.24 L 12.1 24.67 L 11.91 25.1 L 11.73 25.54 L 11.57 25.99 L 11.42 26.44 L 11.28 26.89 L 11.16 27.35 L 11.05 27.81 L 10.96 28.28 L 10.88 28.75 L 10.82 29.22 L 10.77 29.69 L 10.74 30.16 L 10.72 30.64 L 10.72 31.11 L 10.73 31.58 L 10.76 32.06 L 10.8 32.53 L 10.85 33.0 L 10.93 33.47 L 11.01 33.94" fill="none" stroke="#111" stroke-width="1.33" stroke-linecap="round" stroke-linejoin="round"/>
<path d="M 12.0 18.0 L 11.75 18.38 L 11.5 18.75 L 11.25 19.12 L 11.0 19.5 L 10.75 19.88 L 10.5 20.25 L 10.25 20.62 L 10.0 21.0 L 9.75 21.38 L 9.5 21.75 L 9.25 22.12 L 9.0 22.5 L 8.75 22.88 L 8.5 23.25 L 8.25 23.62 L 8.0 24.0 L 7.75 24.38 L 7.5 24.75 L 7.25 25.12 L 7.0 25.5 L 6.75 25.88 L 6.5 26.25 L 6.25 26.62 L 6.0 27.0" fill="none" stroke="#111" stroke-width="1.33" stroke-linecap="round" stroke-linejoin="round"/>
</svg>
