<?xml version="1.0" encoding="UTF-8"?>
<svg xmlns="http://www.w3.org/2000/svg" viewBox="0 0 24.00 39.00">
<path d="M 11.0 4.0 L 11.17 4.53 L 11.31 5.07 L 11.43 5.62 L 11.51 6.17 L 11.56 6.73 L 11.58 7.28 L 11.57 7.84 L 11.53 8.4 L 11.46 8.95 L 11.35 9.5 L 11.22 10.05 L 11.06 10.58 L 10.87 11.1 L 10.65 11.62 L 10.4 12.12 L 10.13 12.6 L 9.83 13.07 L 9.5 13.53 L 9.15 13.96 L 8.77 14.38 L 8.38 14.77 L 7.96 15.14 L 7.52 15.48 L 7.06 15.81" fill="none" stroke="#111" stroke-width="1.37" stroke-linecap="round" stroke-linejoin="round"/>
<path d="M 11.0 10.0 L 11.62 10.31 L 12.21 10.67 L 12.76 11.09 L 13.28 11.56 L 13.75 12.06 L 14.17 12.61 L 14.55 13.2 L 14.86 13.81 L 15.13 14.46 L 15.33 15.12 L 15.47 15.8 L 15.55 16.49 L 15.57 17.18 L 15.52 17.87 L 15.42 18.56 L 15.25 19.23 L 15.02 19.88 L 14.74 20.52 L 14.4 21.12 L 14.0 21.69 L 13.56 22.22 L 13.07 22.71 L 12.54 23.16 L 11.97 23.55 L 12.0 24.0 L 11.92 24.46 L 11.83 24.92 L 11.75 25.38 L 11.67 25.83 L 11.58 26.29 L 11.5 26.75 L 11.42 27.21 L 11.33 27.67 L 11.25 28.12 L 11.17 28.58 L 11.08 29.04 L 11.0 29.5 L 10.92 29.96 L 10.83 30.42 L 10.75 30.88 L 10.67 31.33 L 10.58 31.79 L 10.5 32.25 L 10.42 32.71 L 10.33 33.17 L 10.25 33.62 L 10.17 34.08 L 10.08 34.54 L 10.0 35.0" fill="none" stroke="#111" stroke-width="1.37" stroke-linecap="round" stroke-linejoin="round"/>
<path d="M 4.0 27.0 L 4.67 26.83 L 5.33 26.67 L 6.0 26.5 L 6.67 26.33 L 7.33 26.17 L 8.0 26.0 L 8.67 25.83 L 9.33 25.67 L 10.0 25.5 L 10.67 25.33 L 11.33 25.17 L 12.0 25.0 L 12.67 24.83 L 13.33 24.67 L 14.0 24.5 L 14.67 24.33 L 15.33 24.17 L 16.0 24.0 L 16.67 23.83 L 17.33 23.67 L 18.0 23.5 L 18.67 23.33 L 19.33 23.17 L 20.0 23.0" fill="none" stroke="#111" stroke-width="1.37" stroke-linecap="round" stroke-linejoin="round"/>
</svg>
