<?xml version="1.0" encoding="UTF-8"?>
<svg xmlns="http://www.w3.org/2000/svg" viewBox="0 0 18.96 50.63">
<path d="M 4.41 5.26 L 4.13 6.05 L 4.0 6.87 L 4.02 7.71 L 4.18 8.53 L 4.5 9.3 L 4.94 10.01 L 5.51 10.62 L 6.17 11.13 L 6.92 11.5 L 7.72 11.74 L 8.55 11.83 L 9.38 11.76 L 10.19 11.55 L 10.95 11.2 L 11.63 10.72 L 12.21 10.12 L 12.68 9.43 L 13.02 8.66 L 13.21 7.85 L 13.25 7.02 L 13.14 6.19 L 12.89 5.39 L 12.5 4.65 L 11.98 4.0" fill="none" stroke="#111" stroke-width="1.77" stroke-linecap="round" stroke-linejoin="round"/>
<path d="M 4.41 8.26 L 4.66 8.22 L 4.91 8.18 L 5.16 8.14 L 5.41 8.09 L 5.66 8.05 L 5.91 8.01 L 6.16 7.97 L 6.41 7.93 L 6.66 7.89 L 6.91 7.84 L 7.16 7.8 L 7.41 7.76 L 7.66 7.72 L 7.91 7.68 L 8.16 7.64 L 8.41 7.59 L 8.66 7.55 L 8.91 7.51 L 9.16 7.47 L 9.41 7.43 L 9.66 7.39 L 9.91 7.34 L 10.16 7.3 L 10.41 7.26" fill="none" stroke="#111" stroke-width="1.77" stroke-linecap="round" stroke-linejoin="round"/>
<path d="M 8.41 12.26 L 7.88 13.7 L 7.42 15.17 L 7.03 16.66 L 6.71 18.16 L 6.46 19.68 L 6.28 21.21 L 6.18 22.74 L 6.14 24.28 L 6.18 25.81 L 6.29 27.35 L 6.47 28.87 L 6.72 30.39 L 7.05 31.89 L 7.44 33.38 L 7.9 34.84 L 8.43 36.29 L 9.03 37.7 L 9.69 39.09 L 10.42 40.44 L 11.21 41.76 L 12.06 43.04 L 12.97 44.28 L 13.93 45.48 L 14.96 46.63" fill="none" stroke="#111" stroke-width="1.77" stroke-linecap="round" stroke-linejoin="round"/>
<path d="M 8.41 14.26 L 8.17 14.57 L 7.94 14.89 L 7.72 15.22 L 7.52 15.56 L 7.33 15.91 L 7.15 16.26 L 6.99 16.62 L 6.83 16.98 L 6.7 17.35 L 6.58 17.73 L 6.47 18.11 L 6.38 18.49 L 6.3 18.88 L 6.23 19.27 L 6.19 19.66 L 6.15 20.05 L 6.13 20.45 L 6.13 20.84 L 6.14 21.24 L 6.17 21.63 L 6.21 22.02 L 6.27 22.41 L 6.34 22.8 L 6.43 23.19" fill="none" stroke="#111" stroke-width="1.77" stroke-linecap="round" stroke-linejoin="round"/>
</svg>
