<?xml version="1.0" encoding="UTF-8"?>
<svg xmlns="http://www.w3.org/2000/svg" viewBox="0 0 21.00 37.00">
<path d="M 8.0 8.0 L 8.12 8.33 L 8.25 8.67 L 8.38 9.0 L 8.5 9.33 L 8.62 9.67 L 8.75 10.0 L 8.88 10.33 L 9.0 10.67 L 9.12 11.0 L 9.25 11.33 L 9.38 11.67 L 9.5 12.0 L 9.62 12.33 L 9.75 12.67 L 9.88 13.0 L 10.0 13.33 L 10.12 13.67 L 10.25 14.0 L 10.38 14.33 L 10.5 14.67 L 10.62 15.0 L 10.75 15.33 L 10.88 15.67 L 11.0 16.0 L 11.0 16.0 L 11.04 15.5 L 11.08 15.0 L 11.12 14.5 L 11.17 14.0 L 11.21 13.5 L 11.25 13.0 L 11.29 12.5 L 11.33 12.0 L 11.38 11.5 L 11.42 11.0 L 11.46 10.5 L 11.5 10.0 L 11.54 9.5 L 11.58 9.0 L 11.62 8.5 L 11.67 8.0 L 11.71 7.5 L 11.75 7.0 L 11.79 6.5 L 11.83 6.0 L 11.88 5.5 L 11.92 5.0 L 11.96 4.5 L 12.0 4.0" fill="none" stroke="#111" stroke-width="1.30" stroke-linecap="round" stroke-linejoin="round"/>
<path d="M 8.0 9.0 L 8.38 8.87 L 8.75 8.75 L 9.12 8.62 L 9.5 8.5 L 9.88 8.37 L 10.25 8.25 L 10.62 8.12 L 11.0 8.0 L 11.38 7.87 L 11.75 7.75 L 12.12 7.62 L 12.5 7.5 L 12.88 7.37 L 13.25 7.25 L 13.62 7.12 L 14.0 7.0 L 14.38 6.87 L 14.75 6.75 L 15.12 6.62 L 15.5 6.5 L 15.88 6.37 L 16.25 6.25 L 16.62 6.12 L 17.0 6.0" fill="none" stroke="#111" stroke-width="1.30" stroke-linecap="round" stroke-linejoin="round"/>
<path d="M 4.0 16.0 L 4.5 15.96 L 5.0 15.92 L 5.5 15.87 L 6.0 15.83 L 6.5 15.79 L 7.0 15.75 L 7.5 15.71 L 8.0 15.67 L 8.5 15.62 L 9.0 15.58 L 9.5 15.54 L 10.0 15.5 L 10.5 15.46 L 11.0 15.42 L 11.5 15.37 L 12.0 15.33 L 12.5 15.29 L 13.0 15.25 L 13.5 15.21 L 14.0 15.17 L 14.5 15.12 L 15.0 15.08 L 15.5 15.04 L 16.0 15.0" fill="none" stroke="#111" stroke-width="1.30" stroke-linecap="round" stroke-linejoin="round"/>
<path d="M 11.0 16.0 L 11.34 16.35 L 11.65 16.73 L 11.93 17.14 L 12.17 17.57 L 12.37 18.01 L 12.54 18.48 L 12.67 18.95 L 12.76 19.43 L 12.8 19.92 L 12.81 20.41 L 12.77 20.9 L 12.7 21.39 L 12.58 21.86 L 12.43 22.33 L 12.23 22.78 L 12.0 23.21 L 11.73 23.63 L 11.43 24.01 L 11.1 24.38 L 10.74 24.71 L 10.35 25.01 L 9.94 25.28 L 9.51 25.51 L 9.06 25.71 L 9.0 26.0 L 9.04 26.29 L 9.08 26.58 L 9.12 26.88 L 9.17 27.17 L 9.21 27.46 L 9.25 27.75 L 9.29 28.04 L 9.33 28.33 L 9.38 28.62 L 9.42 28.92 L 9.46 29.21 L 9.5 29.5 L 9.54 29.79 L 9.58 30.08 L 9.62 30.38 L 9.67 30.67 L 9.71 30.96 L 9.75 31.25 L 9.79 31.54 L 9.83 31.83 L 9.88 32.12 L 9.92 32.42 L 9.96 32.71 L 10.0 33.0" fill="none" stroke="#111" stroke-width="1.30" stroke-linecap="round" stroke-linejoin="round"/>
<path d="M 11.0 17.0 L 10.79 17.29 L 10.58 17.58 L 10.38 17.88 L 10.17 18.17 L 9.96 18.46 L 9.75 18.75 L 9.54 19.04 L 9.33 19.33 L 9.12 19.62 L 8.92 19.92 L 8.71 20.21 L 8.5 20.5 L 8.29 20.79 L 8.08 21.08 L 7.88 21.38 L 7.67 21.67 L 7.46 21.96 L 7.25 22.25 L 7.04 22.54 L 6.83 22.83 L 6.63 23.12 L 6.42 23.42 L 6.21 23.71 L 6.0 24.0" fill="none" stroke="#111" stroke-width="1.30" stroke-linecap="round" stroke-linejoin="round"/>
</svg>
