<?xml version="1.0" encoding="UTF-8"?>
<svg xmlns="http://www.w3.org/2000/svg" viewBox="0 0 25.00 38.00">
<path d="M 4.0 8.0 L 4.44 8.11 L 4.87 8.22 L 5.31 8.34 L 5.74 8.47 L 6.17 8.6 L 6.6 8.73 L 7.03 8.87 L 7.45 9.01 L 7.88 9.16 L 8.3 9.32 L 8.72 9.48 L 9.14 9.64 L 9.55 9.81 L 9.97 9.99 L 10.38 10.17 L 10.79 10.35 L 11.2 10.54 L 11.61 10.73 L 12.01 10.93 L 12.41 11.14 L 12.81 11.34 L 13.21 11.56 L 13.6 11.77 L 13.99 12.0 L 14.0 12.0 L 14.09 11.65 L 14.21 11.32 L 14.36 10.99 L 14.53 10.67 L 14.73 10.37 L 14.95 10.09 L 15.19 9.82 L 15.45 9.58 L 15.73 9.35 L 16.02 9.15 L 16.33 8.97 L 16.66 8.82 L 16.99 8.69 L 17.34 8.59 L 17.69 8.51 L 18.04 8.47 L 18.4 8.45 L 18.76 8.46 L 19.12 8.49 L 19.47 8.56 L 19.81 8.65 L 20.15 8.77 L 20.48 8.92 L 20.79 9.09 L 21.0 9.0 L 20.96 8.79 L 20.92 8.58 L 20.88 8.38 L 20.83 8.17 L 20.79 7.96 L 20.75 7.75 L 20.71 7.54 L 20.67 7.33 L 20.62 7.12 L 20.58 6.92 L 20.54 6.71 L 20.5 6.5 L 20.46 6.29 L 20.42 6.08 L 20.38 5.88 L 20.33 5.67 L 20.29 5.46 L 20.25 5.25 L 20.21 5.04 L 20.17 4.83 L 20.12 4.62 L 20.08 4.42 L 20.04 4.21 L 20.0 4.0 L 20.0 4.0 L 19.38 4.17 L 18.75 4.33 L 18.12 4.5 L 17.5 4.67 L 16.88 4.83 L 16.25 5.0 L 15.62 5.17 L 15.0 5.33 L 14.38 5.5 L 13.75 5.67 L 13.12 5.83 L 12.5 6.0 L 11.88 6.17 L 11.25 6.33 L 10.62 6.5 L 10.0 6.67 L 9.38 6.83 L 8.75 7.0 L 8.12 7.17 L 7.5 7.33 L 6.88 7.5 L 6.25 7.67 L 5.62 7.83 L 5.0 8.0" fill="none" stroke="#111" stroke-width="1.33" stroke-linecap="round" stroke-linejoin="round"/>
<path d="M 10.0 6.0 L 10.0 6.12 L 10.0 6.25 L 10.0 6.38 L 10.0 6.5 L 10.0 6.62 L 10.0 6.75 L 10.0 6.88 L 10.0 7.0 L 10.0 7.12 L 10.0 7.25 L 10.0 7.38 L 10.0 7.5 L 10.0 7.62 L 10.0 7.75 L 10.0 7.88 L 10.0 8.0 L 10.0 8.12 L 10.0 8.25 L 10.0 8.38 L 10.0 8.5 L 10.0 8.62 L 10.0 8.75 L 10.0 8.88 L 10.0 9.0" fill="none" stroke="#111" stroke-width="1.33" stroke-linecap="round" stroke-linejoin="round"/>
<path d="M 16.0 5.0 L 15.96 5.12 L 15.92 5.25 L 15.88 5.38 L 15.83 5.5 L 15.79 5.62 L 15.75 5.75 L 15.71 5.88 L 15.67 6.0 L 15.62 6.12 L 15.58 6.25 L 15.54 6.38 L 15.5 6.5 L 15.46 6.62 L 15.42 6.75 L 15.38 6.88 L 15.33 7.0 L 15.29 7.12 L 15.25 7.25 L 15.21 7.38 L 15.17 7.5 L 15.12 7.62 L 15.08 7.75 L 15.04 7.88 L 15.0 8.0" fill="none" stroke="#111" stroke-width="1.33" stroke-linecap="round" stroke-linejoin="round"/>
<path d="M 12.0 12.0 L 11.88 12.42 L 11.75 12.83 L 11.62 13.25 L 11.5 13.67 L 11.38 14.08 L 11.25 14.5 L 11.12 14.92 L 11.0 15.33 L 10.88 15.75 L 10.75 16.17 L 10.62 16.58 L 10.5 17.0 L 10.38 17.42 L 10.25 17.83 L 10.12 18.25 L 10.0 18.67 L 9.88 19.08 L 9.75 19.5 L 9.62 19.92 L 9.5 20.33 L 9.38 20.75 L 9.25 21.17 L 9.12 21.58 L 9.0 22.0 L 9.0 22.0 L 9.21 22.08 L 9.42 22.17 L 9.62 22.25 L 9.83 22.33 L 10.04 22.42 L 10.25 22.5 L 10.46 22.58 L 10.67 22.67 L 10.88 22.75 L 11.08 22.83 L 11.29 22.92 L 11.5 23.0 L 11.71 23.08 L 11.92 23.17 L 12.12 23.25 L 12.33 23.33 L 12.54 23.42 L 12.75 23.5 L 12.96 23.58 L 13.17 23.67 L 13.38 23.75 L 13.58 23.83 L 13.79 23.92 L 14.0 24.0 L 14.0 24.0 L 14.5 24.05 L 14.99 24.17 L 15.46 24.38 L 15.88 24.66 L 16.25 25.0 L 16.57 25.39 L 16.82 25.84 L 16.99 26.31 L 17.08 26.81 L 17.09 27.32 L 17.02 27.82 L 16.87 28.3 L 16.65 28.75 L 16.35 29.16 L 16.0 29.52 L 15.58 29.82 L 15.13 30.05 L 14.65 30.2 L 14.15 30.27 L 13.64 30.26 L 13.14 30.16 L 12.67 29.99 L 12.22 29.75 L 11.83 29.43 L 12.0 29.0 L 11.92 28.88 L 11.83 28.75 L 11.75 28.62 L 11.67 28.5 L 11.58 28.38 L 11.5 28.25 L 11.42 28.12 L 11.33 28.0 L 11.25 27.88 L 11.17 27.75 L 11.08 27.62 L 11.0 27.5 L 10.92 27.38 L 10.83 27.25 L 10.75 27.12 L 10.67 27.0 L 10.58 26.88 L 10.5 26.75 L 10.42 26.62 L 10.33 26.5 L 10.25 26.38 L 10.17 26.25 L 10.08 26.12 L 10.0 26.0 L 10.0 26.0 L 10.08 26.33 L 10.17 26.67 L 10.25 27.0 L 10.33 27.33 L 10.42 27.67 L 10.5 28.0 L 10.58 28.33 L 10.67 28.67 L 10.75 29.0 L 10.83 29.33 L 10.92 29.67 L 11.0 30.0 L 11.08 30.33 L 11.17 30.67 L 11.25 31.0 L 11.33 31.33 L 11.42 31.67 L 11.5 32.0 L 11.58 32.33 L 11.67 32.67 L 11.75 33.0 L 11.83 33.33 L 11.92 33.67 L 12.0 34.0" fill="none" stroke="#111" stroke-width="1.33" stroke-linecap="round" stroke-linejoin="round"/>
<path d="M 12.0 13.0 L 12.12 13.46 L 12.25 13.92 L 12.38 14.38 L 12.5 14.83 L 12.62 15.29 L 12.75 15.75 L 12.88 16.21 L 13.0 16.67 L 13.12 17.12 L 13.25 17.58 L 13.38 18.04 L 13.5 18.5 L 13.62 18.96 L 13.75 19.42 L 13.88 19.88 L 14.0 20.33 L 14.12 20.79 L 14.25 21.25 L 14.38 21.71 L 14.5 22.17 L 14.62 22.62 L 14.75 23.08 L 14.88 23.54 L 15.0 24.0" fill="none" stroke="#111" stroke-width="1.33" stroke-linecap="round" stroke-linejoin="round"/>
</svg>
