<?xml version="1.0" encoding="UTF-8"?>
<svg xmlns="http://www.w3.org/2000/svg" viewBox="0 0 23.61 40.51">
<path d="M 13.26 12.0 L 13.8 12.63 L 14.3 13.3 L 14.75 14.0 L 15.14 14.74 L 15.48 15.5 L 15.77 16.28 L 16.0 17.08 L 16.18 17.89 L 16.29 18.72 L 16.35 19.55 L 16.35 20.38 L 16.28 21.22 L 16.16 22.04 L 15.98 22.85 L 15.75 23.65 L 15.45 24.43 L 15.1 25.19 L 14.7 25.92 L 14.25 26.62 L 13.75 27.28 L 13.2 27.91 L 12.61 28.5 L 11.98 29.04 L 11.31 29.54" fill="none" stroke="#111" stroke-width="1.42" stroke-linecap="round" stroke-linejoin="round"/>
<path d="M 13.26 12.0 L 12.78 12.37 L 12.34 12.78 L 11.94 13.24 L 11.59 13.73 L 11.3 14.26 L 11.06 14.81 L 10.88 15.39 L 10.76 15.98 L 10.7 16.59 L 10.71 17.19 L 10.77 17.79 L 10.9 18.38 L 11.09 18.96 L 11.34 19.51 L 11.64 20.03 L 12.0 20.52 L 12.4 20.97 L 12.85 21.38 L 13.34 21.74 L 13.86 22.04 L 14.41 22.29 L 14.98 22.48 L 15.57 22.62 L 16.17 22.69" fill="none" stroke="#111" stroke-width="1.42" stroke-linecap="round" stroke-linejoin="round"/>
<path d="M 16.26 23.0 L 15.83 22.95 L 15.4 22.93 L 14.96 22.96 L 14.54 23.03 L 14.12 23.14 L 13.71 23.28 L 13.32 23.46 L 12.95 23.68 L 12.59 23.94 L 12.27 24.22 L 11.97 24.53 L 11.7 24.87 L 11.47 25.24 L 11.27 25.62 L 11.11 26.02 L 10.98 26.43 L 10.89 26.86 L 10.85 27.29 L 10.84 27.72 L 10.88 28.15 L 10.95 28.58 L 11.07 29.0 L 11.22 29.4 L 11.41 29.79" fill="none" stroke="#111" stroke-width="1.42" stroke-linecap="round" stroke-linejoin="round"/>
<path d="M 13.26 7.0 L 13.51 7.5 L 13.76 8.0 L 14.01 8.5 L 14.26 9.0 L 14.51 9.5 L 14.76 10.0 L 15.01 10.5 L 15.26 11.0 L 15.51 11.5 L 15.76 12.0 L 16.01 12.5 L 16.26 13.0 L 16.51 13.5 L 16.76 14.0 L 17.01 14.5 L 17.26 15.0 L 17.51 15.5 L 17.76 16.0 L 18.01 16.5 L 18.26 17.0 L 18.51 17.5 L 18.76 18.0 L 19.01 18.5 L 19.26 19.0" fill="none" stroke="#111" stroke-width="1.42" stroke-linecap="round" stroke-linejoin="round"/>
<path d="M 18.26 4.0 L 18.55 4.44 L 18.81 4.9 L 19.04 5.38 L 19.23 5.88 L 19.38 6.38 L 19.5 6.9 L 19.57 7.43 L 19.61 7.96 L 19.61 8.49 L 19.56 9.01 L 19.48 9.54 L 19.36 10.05 L 19.2 10.56 L 19.01 11.05 L 18.78 11.53 L 18.51 11.99 L 18.21 12.43 L 17.88 12.84 L 17.52 13.23 L 17.13 13.59 L 16.71 13.92 L 16.27 14.22 L 15.81 14.48 L 15.34 14.71" fill="none" stroke="#111" stroke-width="1.42" stroke-linecap="round" stroke-linejoin="round"/>
<path d="M 9.26 12.0 L 9.04 12.33 L 8.84 12.66 L 8.65 13.0 L 8.46 13.35 L 8.29 13.7 L 8.13 14.05 L 7.98 14.41 L 7.84 14.78 L 7.72 15.15 L 7.6 15.52 L 7.5 15.9 L 7.41 16.28 L 7.33 16.67 L 7.26 17.05 L 7.21 17.44 L 7.17 17.83 L 7.14 18.22 L 7.12 18.61 L 7.11 19.0 L 7.12 19.39 L 7.14 19.78 L 7.17 20.17 L 7.21 20.56 L 7.27 20.94" fill="none" stroke="#111" stroke-width="1.42" stroke-linecap="round" stroke-linejoin="round"/>
<path d="M 6.26 5.0 L 5.82 5.42 L 5.42 5.88 L 5.07 6.37 L 4.76 6.89 L 4.51 7.43 L 4.3 8.0 L 4.15 8.59 L 4.05 9.18 L 4.0 9.79 L 4.01 10.39 L 4.08 10.99 L 4.19 11.59 L 4.37 12.17 L 4.59 12.73 L 4.87 13.27 L 5.19 13.78 L 5.56 14.26 L 5.97 14.7 L 6.42 15.1 L 6.91 15.46 L 7.43 15.78 L 7.97 16.05 L 8.53 16.26 L 9.11 16.43" fill="none" stroke="#111" stroke-width="1.42" stroke-linecap="round" stroke-linejoin="round"/>
<path d="M 8.26 32.0 L 8.63 32.0 L 9.01 32.0 L 9.38 32.0 L 9.76 32.0 L 10.13 32.0 L 10.51 32.0 L 10.88 32.0 L 11.26 32.0 L 11.63 32.0 L 12.01 32.0 L 12.38 32.0 L 12.76 32.0 L 13.13 32.0 L 13.51 32.0 L 13.88 32.0 L 14.26 32.0 L 14.63 32.0 L 15.01 32.0 L 15.38 32.0 L 15.76 32.0 L 16.13 32.0 L 16.51 32.0 L 16.88 32.0 L 17.26 32.0" fill="none" stroke="#111" stroke-width="1.42" stroke-linecap="round" stroke-linejoin="round"/>
<path d="M 7.26 29.0 L 7.02 29.58 L 6.85 30.18 L 6.75 30.8 L 6.73 31.42 L 6.79 32.04 L 6.91 32.66 L 7.11 33.25 L 7.38 33.81 L 7.72 34.34 L 8.11 34.83 L 8.56 35.26 L 9.06 35.64 L 9.6 35.95 L 10.17 36.2 L 10.77 36.38 L 11.39 36.48 L 12.01 36.51 L 12.64 36.47 L 13.25 36.35 L 13.85 36.16 L 14.41 35.9 L 14.95 35.58 L 15.44 35.19 L 15.88 34.75 L 16.26 35.0 L 16.26 35.0 L 16.26 35.0 L 16.26 35.0 L 16.26 35.0 L 16.26 35.0 L 16.26 35.0 L 16.26 35.0 L 16.26 35.0 L 16.26 35.0 L 16.26 35.0 L 16.26 35.0 L 16.26 35.0 L 16.26 35.0 L 16.26 35.0 L 16.26 35.0 L 16.26 35.0 L 16.26 35.0 L 16.26 35.0 L 16.26 35.0 L 16.26 35.0 L 16.26 35.0 L 16.26 35.0 L 16.26 35.0 L 16.26 35.0" fill="none" stroke="#111" stroke-width="1.42" stroke-linecap="round" stroke-linejoin="round"/>
<path d="M 17.26 28.0 L 17.22 28.29 L 17.17 28.58 L 17.13 28.88 L 17.09 29.17 L 17.05 29.46 L 17.01 29.75 L 16.97 30.04 L 16.92 30.33 L 16.88 30.62 L 16.84 30.92 L 16.8 31.21 L 16.76 31.5 L 16.72 31.79 L 16.67 32.08 L 16.63 32.38 L 16.59 32.67 L 16.55 32.96 L 16.51 33.25 L 16.47 33.54 L 16.42 33.83 L 16.38 34.12 L 16.34 34.42 L 16.3 34.71 L 16.26 35.0" fill="none" stroke="#111" stroke-width="1.42" stroke-linecap="round" stroke-linejoin="round"/>
</svg>
