<?xml version="1.0" encoding="UTF-8"?>
<svg xmlns="http://www.w3.org/2000/svg" viewBox="0 0 19.12 47.43">
<path d="M 13.59 4.62 L 12.6 4.22 L 11.56 4.01 L 10.49 4.0 L 9.44 4.18 L 8.44 4.55 L 7.52 5.1 L 6.72 5.81 L 6.06 6.65 L 5.57 7.59 L 5.26 8.61 L 5.14 9.67 L 5.22 10.74 L 5.49 11.77 L 5.95 12.74 L 6.57 13.6 L 7.35 14.34 L 8.24 14.92 L 9.23 15.33 L 10.27 15.55 L 11.34 15.57 L 12.39 15.4 L 13.39 15.05 L 14.32 14.51 L 15.12 13.81" fill="none" stroke="#111" stroke-width="1.66" stroke-linecap="round" stroke-linejoin="round"/>
<path d="M 8.59 6.62 L 8.51 7.41 L 8.43 8.2 L 8.34 9.0 L 8.26 9.79 L 8.18 10.58 L 8.09 11.37 L 8.01 12.16 L 7.93 12.95 L 7.84 13.75 L 7.76 14.54 L 7.68 15.33 L 7.59 16.12 L 7.51 16.91 L 7.43 17.7 L 7.34 18.5 L 7.26 19.29 L 7.18 20.08 L 7.09 20.87 L 7.01 21.66 L 6.93 22.45 L 6.84 23.25 L 6.76 24.04 L 6.68 24.83 L 6.59 25.62 L 6.59 25.62 L 7.06 25.7 L 7.52 25.8 L 7.97 25.94 L 8.42 26.09 L 8.85 26.28 L 9.27 26.49 L 9.68 26.73 L 10.08 26.99 L 10.45 27.27 L 10.81 27.58 L 11.16 27.9 L 11.48 28.25 L 11.78 28.61 L 12.06 28.99 L 12.31 29.39 L 12.54 29.8 L 12.75 30.23 L 12.93 30.67 L 13.08 31.11 L 13.2 31.57 L 13.3 32.03 L 13.37 32.5 L 13.42 32.97 L 13.43 33.44 L 13.59 33.62 L 12.92 33.22 L 12.21 32.91 L 11.46 32.7 L 10.69 32.58 L 9.91 32.56 L 9.13 32.64 L 8.37 32.81 L 7.64 33.08 L 6.95 33.44 L 6.31 33.89 L 5.73 34.41 L 5.23 35.01 L 4.8 35.66 L 4.46 36.36 L 4.21 37.1 L 4.06 37.86 L 4.0 38.64 L 4.04 39.42 L 4.19 40.19 L 4.42 40.93 L 4.75 41.64 L 5.17 42.29 L 5.67 42.89 L 6.24 43.43" fill="none" stroke="#111" stroke-width="1.66" stroke-linecap="round" stroke-linejoin="round"/>
<path d="M 7.59 14.62 L 8.04 15.01 L 8.47 15.42 L 8.87 15.85 L 9.26 16.3 L 9.62 16.77 L 9.96 17.25 L 10.28 17.75 L 10.57 18.27 L 10.84 18.8 L 11.08 19.34 L 11.29 19.89 L 11.48 20.45 L 11.64 21.02 L 11.77 21.6 L 11.88 22.18 L 11.95 22.77 L 12.0 23.36 L 12.02 23.95 L 12.01 24.54 L 11.98 25.13 L 11.91 25.72 L 11.81 26.3 L 11.69 26.88 L 11.54 27.46" fill="none" stroke="#111" stroke-width="1.66" stroke-linecap="round" stroke-linejoin="round"/>
</svg>
