<?xml version="1.0" encoding="UTF-8"?>
<svg xmlns="http://www.w3.org/2000/svg" viewBox="0 0 25.78 45.44">
<path d="M 4.8 10.0 L 4.96 9.75 L 5.13 9.5 L 5.3 9.25 L 5.46 9.0 L 5.63 8.75 L 5.8 8.5 L 5.96 8.25 L 6.13 8.0 L 6.3 7.75 L 6.46 7.5 L 6.63 7.25 L 6.8 7.0 L 6.96 6.75 L 7.13 6.5 L 7.3 6.25 L 7.46 6.0 L 7.63 5.75 L 7.8 5.5 L 7.96 5.25 L 8.13 5.0 L 8.3 4.75 L 8.46 4.5 L 8.63 4.25 L 8.8 4.0 L 8.8 4.0 L 9.23 4.21 L 9.65 4.46 L 10.06 4.72 L 10.44 5.02 L 10.81 5.33 L 11.16 5.67 L 11.48 6.04 L 11.78 6.42 L 12.06 6.82 L 12.31 7.23 L 12.53 7.66 L 12.73 8.11 L 12.89 8.57 L 13.03 9.03 L 13.13 9.51 L 13.21 9.99 L 13.26 10.47 L 13.27 10.95 L 13.25 11.44 L 13.21 11.92 L 13.13 12.4 L 13.02 12.88 L 12.88 13.34 L 12.71 13.8" fill="none" stroke="#111" stroke-width="1.59" stroke-linecap="round" stroke-linejoin="round"/>
<path d="M 12.8 8.0 L 12.84 7.83 L 12.88 7.67 L 12.92 7.5 L 12.96 7.33 L 13.0 7.17 L 13.05 7.0 L 13.09 6.83 L 13.13 6.67 L 13.17 6.5 L 13.21 6.33 L 13.25 6.17 L 13.3 6.0 L 13.34 5.83 L 13.38 5.67 L 13.42 5.5 L 13.46 5.33 L 13.5 5.17 L 13.55 5.0 L 13.59 4.83 L 13.63 4.67 L 13.67 4.5 L 13.71 4.33 L 13.75 4.17 L 13.8 4.0 L 13.8 4.0 L 14.0 4.17 L 14.21 4.33 L 14.42 4.5 L 14.63 4.67 L 14.84 4.83 L 15.05 5.0 L 15.25 5.17 L 15.46 5.33 L 15.67 5.5 L 15.88 5.67 L 16.09 5.83 L 16.3 6.0 L 16.5 6.17 L 16.71 6.33 L 16.92 6.5 L 17.13 6.67 L 17.34 6.83 L 17.55 7.0 L 17.75 7.17 L 17.96 7.33 L 18.17 7.5 L 18.38 7.67 L 18.59 7.83 L 18.8 8.0" fill="none" stroke="#111" stroke-width="1.59" stroke-linecap="round" stroke-linejoin="round"/>
<path d="M 6.8 9.0 L 6.82 9.3 L 6.88 9.59 L 7.0 9.87 L 7.16 10.13 L 7.35 10.36 L 7.58 10.56 L 7.84 10.71 L 8.11 10.83 L 8.41 10.9 L 8.71 10.92 L 9.01 10.89 L 9.3 10.82 L 9.58 10.7 L 9.83 10.54 L 10.06 10.35 L 10.25 10.11 L 10.41 9.86 L 10.52 9.58 L 10.58 9.28 L 10.6 8.98 L 10.57 8.68 L 10.5 8.39 L 10.37 8.11 L 10.21 7.86" fill="none" stroke="#111" stroke-width="1.59" stroke-linecap="round" stroke-linejoin="round"/>
<path d="M 7.8 9.0 L 7.88 9.0 L 7.96 9.0 L 8.05 9.0 L 8.13 9.0 L 8.21 9.0 L 8.3 9.0 L 8.38 9.0 L 8.46 9.0 L 8.55 9.0 L 8.63 9.0 L 8.71 9.0 L 8.8 9.0 L 8.88 9.0 L 8.96 9.0 L 9.05 9.0 L 9.13 9.0 L 9.21 9.0 L 9.3 9.0 L 9.38 9.0 L 9.46 9.0 L 9.55 9.0 L 9.63 9.0 L 9.71 9.0 L 9.8 9.0" fill="none" stroke="#111" stroke-width="1.59" stroke-linecap="round" stroke-linejoin="round"/>
<path d="M 13.8 8.0 L 13.77 8.38 L 13.81 8.76 L 13.91 9.13 L 14.07 9.47 L 14.29 9.78 L 14.56 10.05 L 14.87 10.28 L 15.21 10.44 L 15.58 10.54 L 15.96 10.58 L 16.34 10.56 L 16.71 10.47 L 17.06 10.32 L 17.38 10.11 L 17.66 9.85 L 17.89 9.55 L 18.07 9.21 L 18.18 8.85 L 18.24 8.47 L 18.22 8.09 L 18.15 7.71 L 18.01 7.36 L 17.81 7.03 L 17.56 6.74" fill="none" stroke="#111" stroke-width="1.59" stroke-linecap="round" stroke-linejoin="round"/>
<path d="M 13.8 9.0 L 13.92 8.96 L 14.05 8.92 L 14.17 8.88 L 14.3 8.83 L 14.42 8.79 L 14.55 8.75 L 14.67 8.71 L 14.8 8.67 L 14.92 8.62 L 15.05 8.58 L 15.17 8.54 L 15.3 8.5 L 15.42 8.46 L 15.55 8.42 L 15.67 8.38 L 15.8 8.33 L 15.92 8.29 L 16.05 8.25 L 16.17 8.21 L 16.3 8.17 L 16.42 8.12 L 16.55 8.08 L 16.67 8.04 L 16.8 8.0" fill="none" stroke="#111" stroke-width="1.59" stroke-linecap="round" stroke-linejoin="round"/>
<path d="M 7.8 14.0 L 9.16 14.49 L 10.48 15.11 L 11.73 15.86 L 12.9 16.72 L 13.98 17.69 L 14.97 18.76 L 15.85 19.92 L 16.61 21.16 L 17.25 22.46 L 17.76 23.83 L 18.13 25.23 L 18.37 26.67 L 18.47 28.12 L 18.43 29.57 L 18.25 31.01 L 17.93 32.43 L 17.48 33.82 L 16.9 35.15 L 16.19 36.42 L 15.36 37.61 L 14.42 38.72 L 13.38 39.74 L 12.24 40.64 L 11.02 41.44 L 9.8 31.0 L 9.78 31.34 L 9.75 31.69 L 9.68 32.02 L 9.59 32.35 L 9.46 32.68 L 9.32 32.99 L 9.14 33.28 L 8.95 33.57 L 8.73 33.83 L 8.48 34.08 L 8.22 34.3 L 7.95 34.5 L 7.65 34.68 L 7.34 34.84 L 7.02 34.97 L 6.7 35.07 L 6.36 35.14 L 6.02 35.19 L 5.67 35.2 L 5.33 35.19 L 4.99 35.15 L 4.65 35.08 L 4.32 34.99 L 4.0 34.86" fill="none" stroke="#111" stroke-width="1.59" stroke-linecap="round" stroke-linejoin="round"/>
<path d="M 8.8 22.0 L 9.17 21.92 L 9.55 21.83 L 9.92 21.75 L 10.3 21.67 L 10.67 21.58 L 11.05 21.5 L 11.42 21.42 L 11.8 21.33 L 12.17 21.25 L 12.55 21.17 L 12.92 21.08 L 13.3 21.0 L 13.67 20.92 L 14.05 20.83 L 14.42 20.75 L 14.8 20.67 L 15.17 20.58 L 15.55 20.5 L 15.92 20.42 L 16.3 20.33 L 16.67 20.25 L 17.05 20.17 L 17.42 20.08 L 17.8 20.0" fill="none" stroke="#111" stroke-width="1.59" stroke-linecap="round" stroke-linejoin="round"/>
<path d="M 13.8 15.0 L 14.44 15.54 L 15.07 16.12 L 15.68 16.71 L 16.26 17.33 L 16.81 17.97 L 17.34 18.63 L 17.85 19.31 L 18.32 20.01 L 18.77 20.73 L 19.19 21.47 L 19.58 22.22 L 19.94 22.99 L 20.27 23.77 L 20.56 24.57 L 20.83 25.37 L 21.06 26.19 L 21.27 27.01 L 21.44 27.84 L 21.57 28.68 L 21.67 29.52 L 21.74 30.36 L 21.78 31.21 L 21.78 32.06 L 21.75 32.9" fill="none" stroke="#111" stroke-width="1.59" stroke-linecap="round" stroke-linejoin="round"/>
<path d="M 12.8 21.0 L 13.27 21.17 L 13.73 21.39 L 14.17 21.65 L 14.58 21.94 L 14.97 22.27 L 15.32 22.63 L 15.64 23.02 L 15.93 23.44 L 16.18 23.88 L 16.38 24.35 L 16.55 24.83 L 16.67 25.32 L 16.75 25.82 L 16.78 26.32 L 16.76 26.83 L 16.71 27.34 L 16.61 27.83 L 16.46 28.32 L 16.27 28.79 L 16.04 29.24 L 15.77 29.67 L 15.47 30.07 L 15.13 30.45 L 14.75 30.79" fill="none" stroke="#111" stroke-width="1.59" stroke-linecap="round" stroke-linejoin="round"/>
<path d="M 7.8 31.0 L 8.05 31.04 L 8.3 31.08 L 8.55 31.12 L 8.8 31.17 L 9.05 31.21 L 9.3 31.25 L 9.55 31.29 L 9.8 31.33 L 10.05 31.38 L 10.3 31.42 L 10.55 31.46 L 10.8 31.5 L 11.05 31.54 L 11.3 31.58 L 11.55 31.62 L 11.8 31.67 L 12.05 31.71 L 12.3 31.75 L 12.55 31.79 L 12.8 31.83 L 13.05 31.88 L 13.3 31.92 L 13.55 31.96 L 13.8 32.0" fill="none" stroke="#111" stroke-width="1.59" stroke-linecap="round" stroke-linejoin="round"/>
<path d="M 8.8 33.0 L 8.96 33.17 L 9.13 33.33 L 9.3 33.5 L 9.46 33.67 L 9.63 33.83 L 9.8 34.0 L 9.96 34.17 L 10.13 34.33 L 10.3 34.5 L 10.46 34.67 L 10.63 34.83 L 10.8 35.0 L 10.96 35.17 L 11.13 35.33 L 11.3 35.5 L 11.46 35.67 L 11.63 35.83 L 11.8 36.0 L 11.96 36.17 L 12.13 36.33 L 12.3 36.5 L 12.46 36.67 L 12.63 36.83 L 12.8 37.0" fill="none" stroke="#111" stroke-width="1.59" stroke-linecap="round" stroke-linejoin="round"/>
</svg>
