<?xml version="1.0" encoding="UTF-8"?>
<svg xmlns="http://www.w3.org/2000/svg" viewBox="0 0 20.23 40.06">
<path d="M 12.14 4.06 L 11.11 4.0 L 10.1 4.12 L 9.12 4.43 L 8.22 4.9 L 7.41 5.53 L 6.74 6.3 L 6.21 7.18 L 5.85 8.14 L 5.68 9.15 L 5.68 10.17 L 5.88 11.17 L 6.25 12.13 L 6.79 13.0 L 7.48 13.75 L 8.29 14.37 L 9.2 14.83 L 10.18 15.12 L 11.2 15.23 L 12.22 15.15 L 13.21 14.89 L 14.13 14.45 L 14.96 13.85 L 15.67 13.11 L 16.23 12.25" fill="none" stroke="#111" stroke-width="1.40" stroke-linecap="round" stroke-linejoin="round"/>
<path d="M 6.14 4.06 L 6.22 4.31 L 6.3 4.56 L 6.39 4.81 L 6.47 5.06 L 6.55 5.31 L 6.64 5.56 L 6.72 5.81 L 6.8 6.06 L 6.89 6.31 L 6.97 6.56 L 7.05 6.81 L 7.14 7.06 L 7.22 7.31 L 7.3 7.56 L 7.39 7.81 L 7.47 8.06 L 7.55 8.31 L 7.64 8.56 L 7.72 8.81 L 7.8 9.06 L 7.89 9.31 L 7.97 9.56 L 8.05 9.81 L 8.14 10.06" fill="none" stroke="#111" stroke-width="1.40" stroke-linecap="round" stroke-linejoin="round"/>
<path d="M 4.14 9.06 L 4.08 9.51 L 4.04 9.95 L 4.01 10.39 L 4.0 10.84 L 4.01 11.28 L 4.03 11.73 L 4.07 12.17 L 4.13 12.61 L 4.2 13.05 L 4.29 13.49 L 4.39 13.92 L 4.51 14.35 L 4.65 14.77 L 4.8 15.19 L 4.96 15.6 L 5.14 16.01 L 5.34 16.41 L 5.55 16.8 L 5.78 17.18 L 6.02 17.56 L 6.27 17.92 L 6.53 18.28 L 6.81 18.63 L 7.1 18.96" fill="none" stroke="#111" stroke-width="1.40" stroke-linecap="round" stroke-linejoin="round"/>
<path d="M 8.14 10.06 L 8.14 10.74 L 8.14 11.42 L 8.13 12.09 L 8.12 12.77 L 8.09 13.45 L 8.06 14.12 L 8.02 14.8 L 7.97 15.47 L 7.92 16.15 L 7.85 16.82 L 7.78 17.49 L 7.7 18.16 L 7.61 18.83 L 7.52 19.5 L 7.41 20.17 L 7.3 20.84 L 7.18 21.5 L 7.05 22.17 L 6.92 22.83 L 6.78 23.49 L 6.63 24.15 L 6.47 24.81 L 6.3 25.47 L 6.13 26.12 L 6.14 26.06 L 6.85 25.88 L 7.59 25.84 L 8.32 25.93 L 9.02 26.16 L 9.67 26.51 L 10.24 26.98 L 10.72 27.54 L 11.08 28.18 L 11.32 28.88 L 11.42 29.61 L 11.39 30.35 L 11.22 31.06 L 10.93 31.74 L 10.51 32.35 L 9.99 32.87 L 9.38 33.28 L 8.7 33.58 L 7.98 33.74 L 7.25 33.77 L 6.52 33.67 L 5.82 33.43 L 5.18 33.06 L 4.62 32.59 L 4.15 32.01 L 5.14 29.06 L 5.3 29.36 L 5.47 29.65 L 5.64 29.94 L 5.8 30.23 L 5.97 30.52 L 6.14 30.81 L 6.3 31.11 L 6.47 31.4 L 6.64 31.69 L 6.8 31.98 L 6.97 32.27 L 7.14 32.56 L 7.3 32.86 L 7.47 33.15 L 7.64 33.44 L 7.8 33.73 L 7.97 34.02 L 8.14 34.31 L 8.3 34.61 L 8.47 34.9 L 8.64 35.19 L 8.8 35.48 L 8.97 35.77 L 9.14 36.06" fill="none" stroke="#111" stroke-width="1.40" stroke-linecap="round" stroke-linejoin="round"/>
<path d="M 10.14 6.06 L 10.34 6.06 L 10.55 6.06 L 10.76 6.06 L 10.97 6.06 L 11.18 6.06 L 11.39 6.06 L 11.59 6.06 L 11.8 6.06 L 12.01 6.06 L 12.22 6.06 L 12.43 6.06 L 12.64 6.06 L 12.84 6.06 L 13.05 6.06 L 13.26 6.06 L 13.47 6.06 L 13.68 6.06 L 13.89 6.06 L 14.09 6.06 L 14.3 6.06 L 14.51 6.06 L 14.72 6.06 L 14.93 6.06 L 15.14 6.06" fill="none" stroke="#111" stroke-width="1.40" stroke-linecap="round" stroke-linejoin="round"/>
<path d="M 6.14 11.06 L 6.14 11.15 L 6.14 11.23 L 6.14 11.31 L 6.14 11.4 L 6.14 11.48 L 6.14 11.56 L 6.14 11.65 L 6.14 11.73 L 6.14 11.81 L 6.14 11.9 L 6.14 11.98 L 6.14 12.06 L 6.14 12.15 L 6.14 12.23 L 6.14 12.31 L 6.14 12.4 L 6.14 12.48 L 6.14 12.56 L 6.14 12.65 L 6.14 12.73 L 6.14 12.81 L 6.14 12.9 L 6.14 12.98 L 6.14 13.06" fill="none" stroke="#111" stroke-width="1.40" stroke-linecap="round" stroke-linejoin="round"/>
</svg>
