<?xml version="1.0" encoding="UTF-8"?>
<svg xmlns="http://www.w3.org/2000/svg" viewBox="0 0 22.53 32.70">
<path d="M 5.0 11.0 L 5.42 10.83 L 5.83 10.67 L 6.25 10.5 L 6.67 10.33 L 7.08 10.17 L 7.5 10.0 L 7.92 9.83 L 8.33 9.67 L 8.75 9.5 L 9.17 9.33 L 9.58 9.17 L 10.0 9.0 L 10.42 8.83 L 10.83 8.67 L 11.25 8.5 L 11.67 8.33 L 12.08 8.17 L 12.5 8.0 L 12.92 7.83 L 13.33 7.67 L 13.75 7.5 L 14.17 7.33 L 14.58 7.17 L 15.0 7.0" fill="none" stroke="#111" stroke-width="1.14" stroke-linecap="round" stroke-linejoin="round"/>
<path d="M 4.0 9.0 L 4.04 8.79 L 4.08 8.58 L 4.12 8.38 L 4.17 8.17 L 4.21 7.96 L 4.25 7.75 L 4.29 7.54 L 4.33 7.33 L 4.38 7.12 L 4.42 6.92 L 4.46 6.71 L 4.5 6.5 L 4.54 6.29 L 4.58 6.08 L 4.62 5.88 L 4.67 5.67 L 4.71 5.46 L 4.75 5.25 L 4.79 5.04 L 4.83 4.83 L 4.88 4.62 L 4.92 4.42 L 4.96 4.21 L 5.0 4.0 L 5.0 4.0 L 5.21 4.21 L 5.42 4.42 L 5.62 4.62 L 5.83 4.83 L 6.04 5.04 L 6.25 5.25 L 6.46 5.46 L 6.67 5.67 L 6.88 5.88 L 7.08 6.08 L 7.29 6.29 L 7.5 6.5 L 7.71 6.71 L 7.92 6.92 L 8.12 7.12 L 8.33 7.33 L 8.54 7.54 L 8.75 7.75 L 8.96 7.96 L 9.17 8.17 L 9.38 8.38 L 9.58 8.58 L 9.79 8.79 L 10.0 9.0 L 10.0 9.0 L 9.89 8.62 L 9.83 8.23 L 9.81 7.83 L 9.83 7.44 L 9.9 7.05 L 10.01 6.66 L 10.16 6.3 L 10.34 5.95 L 10.57 5.62 L 10.83 5.32 L 11.11 5.05 L 11.43 4.81 L 11.77 4.61 L 12.13 4.45 L 12.51 4.33 L 12.9 4.25 L 13.29 4.21 L 13.69 4.21 L 14.08 4.26 L 14.47 4.35 L 14.84 4.48 L 15.2 4.65 L 15.53 4.86 L 15.85 5.1" fill="none" stroke="#111" stroke-width="1.14" stroke-linecap="round" stroke-linejoin="round"/>
<path d="M 10.0 9.0 L 9.83 9.42 L 9.67 9.83 L 9.5 10.25 L 9.33 10.67 L 9.17 11.08 L 9.0 11.5 L 8.83 11.92 L 8.67 12.33 L 8.5 12.75 L 8.33 13.17 L 8.17 13.58 L 8.0 14.0 L 7.83 14.42 L 7.67 14.83 L 7.5 15.25 L 7.33 15.67 L 7.17 16.08 L 7.0 16.5 L 6.83 16.92 L 6.67 17.33 L 6.5 17.75 L 6.33 18.17 L 6.17 18.58 L 6.0 19.0" fill="none" stroke="#111" stroke-width="1.14" stroke-linecap="round" stroke-linejoin="round"/>
<path d="M 10.0 11.0 L 10.37 11.68 L 10.71 12.37 L 11.02 13.08 L 11.3 13.8 L 11.55 14.53 L 11.77 15.27 L 11.95 16.02 L 12.1 16.78 L 12.22 17.54 L 12.3 18.31 L 12.35 19.08 L 12.37 19.85 L 12.35 20.62 L 12.3 21.39 L 12.22 22.16 L 12.1 22.93 L 11.95 23.68 L 11.77 24.43 L 11.55 25.17 L 11.3 25.91 L 11.02 26.63 L 10.71 27.33 L 10.37 28.03 L 10.0 28.7" fill="none" stroke="#111" stroke-width="1.14" stroke-linecap="round" stroke-linejoin="round"/>
<path d="M 15.0 7.0 L 14.68 7.24 L 14.38 7.51 L 14.11 7.8 L 13.87 8.12 L 13.65 8.46 L 13.47 8.82 L 13.32 9.19 L 13.21 9.58 L 13.13 9.97 L 13.09 10.37 L 13.08 10.77 L 13.12 11.17 L 13.18 11.57 L 13.29 11.95 L 13.43 12.33 L 13.6 12.69 L 13.8 13.04 L 14.04 13.36 L 14.3 13.66 L 14.59 13.94 L 14.91 14.19 L 15.24 14.41 L 15.6 14.59 L 15.97 14.75" fill="none" stroke="#111" stroke-width="1.14" stroke-linecap="round" stroke-linejoin="round"/>
<path d="M 15.0 7.0 L 15.12 7.25 L 15.25 7.5 L 15.38 7.75 L 15.5 8.0 L 15.62 8.25 L 15.75 8.5 L 15.88 8.75 L 16.0 9.0 L 16.12 9.25 L 16.25 9.5 L 16.38 9.75 L 16.5 10.0 L 16.62 10.25 L 16.75 10.5 L 16.88 10.75 L 17.0 11.0 L 17.12 11.25 L 17.25 11.5 L 17.38 11.75 L 17.5 12.0 L 17.62 12.25 L 17.75 12.5 L 17.88 12.75 L 18.0 13.0 L 18.0 13.0 L 17.59 13.09 L 17.2 13.22 L 16.81 13.38 L 16.45 13.59 L 16.11 13.82 L 15.79 14.09 L 15.5 14.39 L 15.23 14.71 L 15.0 15.06 L 14.81 15.43 L 14.65 15.82 L 14.53 16.22 L 14.45 16.62 L 14.41 17.04 L 14.41 17.46 L 14.44 17.87 L 14.52 18.28 L 14.64 18.68 L 14.8 19.07 L 14.99 19.44 L 15.21 19.79 L 15.47 20.11 L 15.76 20.41 L 16.08 20.69" fill="none" stroke="#111" stroke-width="1.14" stroke-linecap="round" stroke-linejoin="round"/>
<path d="M 16.0 15.0 L 16.35 15.08 L 16.68 15.19 L 17.0 15.35 L 17.29 15.54 L 17.57 15.76 L 17.81 16.01 L 18.03 16.3 L 18.2 16.6 L 18.35 16.92 L 18.45 17.26 L 18.51 17.61 L 18.53 17.96 L 18.51 18.32 L 18.45 18.66 L 18.35 19.0 L 18.2 19.33 L 18.03 19.63 L 17.81 19.91 L 17.57 20.17 L 17.29 20.39 L 17.0 20.58 L 16.68 20.74 L 16.35 20.85 L 16.0 20.93 L 16.0 21.0 L 16.04 21.21 L 16.08 21.42 L 16.12 21.62 L 16.17 21.83 L 16.21 22.04 L 16.25 22.25 L 16.29 22.46 L 16.33 22.67 L 16.38 22.88 L 16.42 23.08 L 16.46 23.29 L 16.5 23.5 L 16.54 23.71 L 16.58 23.92 L 16.62 24.12 L 16.67 24.33 L 16.71 24.54 L 16.75 24.75 L 16.79 24.96 L 16.83 25.17 L 16.88 25.38 L 16.92 25.58 L 16.96 25.79 L 17.0 26.0" fill="none" stroke="#111" stroke-width="1.14" stroke-linecap="round" stroke-linejoin="round"/>
</svg>
