<?xml version="1.0" encoding="UTF-8"?>
<svg xmlns="http://www.w3.org/2000/svg" viewBox="0 0 21.39 38.21">
<path d="M 4.39 14.0 L 4.92 14.43 L 5.49 14.81 L 6.09 15.13 L 6.72 15.4 L 7.37 15.62 L 8.03 15.77 L 8.71 15.86 L 9.39 15.89 L 10.07 15.85 L 10.75 15.76 L 11.41 15.6 L 12.06 15.39 L 12.68 15.11 L 13.28 14.78 L 13.85 14.4 L 14.38 13.97 L 14.86 13.49 L 15.3 12.97 L 15.7 12.41 L 16.04 11.82 L 16.32 11.2 L 16.55 10.56 L 16.71 9.89 L 16.82 9.22 L 17.39 9.0 L 17.14 9.08 L 16.89 9.17 L 16.64 9.25 L 16.39 9.33 L 16.14 9.42 L 15.89 9.5 L 15.64 9.58 L 15.39 9.67 L 15.14 9.75 L 14.89 9.83 L 14.64 9.92 L 14.39 10.0 L 14.14 10.08 L 13.89 10.17 L 13.64 10.25 L 13.39 10.33 L 13.14 10.42 L 12.89 10.5 L 12.64 10.58 L 12.39 10.67 L 12.14 10.75 L 11.89 10.83 L 11.64 10.92 L 11.39 11.0 L 11.39 11.0 L 11.43 10.83 L 11.48 10.67 L 11.52 10.5 L 11.56 10.33 L 11.6 10.17 L 11.64 10.0 L 11.68 9.83 L 11.73 9.67 L 11.77 9.5 L 11.81 9.33 L 11.85 9.17 L 11.89 9.0 L 11.93 8.83 L 11.98 8.67 L 12.02 8.5 L 12.06 8.33 L 12.1 8.17 L 12.14 8.0 L 12.18 7.83 L 12.23 7.67 L 12.27 7.5 L 12.31 7.33 L 12.35 7.17 L 12.39 7.0 L 12.39 7.0 L 11.9 6.66 L 11.37 6.38 L 10.82 6.16 L 10.24 6.01 L 9.65 5.92 L 9.05 5.9 L 8.45 5.95 L 7.87 6.07 L 7.3 6.26 L 6.75 6.51 L 6.24 6.82 L 5.77 7.19 L 5.34 7.61 L 4.97 8.07 L 4.65 8.58 L 4.39 9.12 L 4.19 9.68 L 4.06 10.26 L 4.0 10.86 L 4.01 11.46 L 4.08 12.05 L 4.23 12.63 L 4.43 13.19 L 4.71 13.73" fill="none" stroke="#111" stroke-width="1.34" stroke-linecap="round" stroke-linejoin="round"/>
<path d="M 6.39 5.0 L 6.48 5.08 L 6.56 5.17 L 6.64 5.25 L 6.73 5.33 L 6.81 5.42 L 6.89 5.5 L 6.98 5.58 L 7.06 5.67 L 7.14 5.75 L 7.23 5.83 L 7.31 5.92 L 7.39 6.0 L 7.48 6.08 L 7.56 6.17 L 7.64 6.25 L 7.73 6.33 L 7.81 6.42 L 7.89 6.5 L 7.98 6.58 L 8.06 6.67 L 8.14 6.75 L 8.23 6.83 L 8.31 6.92 L 8.39 7.0" fill="none" stroke="#111" stroke-width="1.34" stroke-linecap="round" stroke-linejoin="round"/>
<path d="M 9.39 5.0 L 9.39 5.04 L 9.39 5.08 L 9.39 5.12 L 9.39 5.17 L 9.39 5.21 L 9.39 5.25 L 9.39 5.29 L 9.39 5.33 L 9.39 5.38 L 9.39 5.42 L 9.39 5.46 L 9.39 5.5 L 9.39 5.54 L 9.39 5.58 L 9.39 5.62 L 9.39 5.67 L 9.39 5.71 L 9.39 5.75 L 9.39 5.79 L 9.39 5.83 L 9.39 5.88 L 9.39 5.92 L 9.39 5.96 L 9.39 6.0" fill="none" stroke="#111" stroke-width="1.34" stroke-linecap="round" stroke-linejoin="round"/>
<path d="M 12.39 4.0 L 12.31 4.12 L 12.23 4.25 L 12.14 4.38 L 12.06 4.5 L 11.98 4.62 L 11.89 4.75 L 11.81 4.88 L 11.73 5.0 L 11.64 5.12 L 11.56 5.25 L 11.48 5.38 L 11.39 5.5 L 11.31 5.62 L 11.23 5.75 L 11.14 5.88 L 11.06 6.0 L 10.98 6.12 L 10.89 6.25 L 10.81 6.38 L 10.73 6.5 L 10.64 6.62 L 10.56 6.75 L 10.48 6.88 L 10.39 7.0" fill="none" stroke="#111" stroke-width="1.34" stroke-linecap="round" stroke-linejoin="round"/>
<path d="M 7.39 13.0 L 7.23 12.66 L 7.12 12.31 L 7.08 11.93 L 7.11 11.56 L 7.2 11.2 L 7.35 10.85 L 7.56 10.55 L 7.82 10.28 L 8.13 10.06 L 8.47 9.9 L 8.83 9.8 L 9.2 9.77 L 9.57 9.8 L 9.94 9.9 L 10.27 10.06 L 10.58 10.28 L 10.84 10.55 L 11.05 10.85 L 11.21 11.2 L 11.3 11.56 L 11.32 11.93 L 11.28 12.31 L 11.18 12.66 L 11.01 13.0" fill="none" stroke="#111" stroke-width="1.34" stroke-linecap="round" stroke-linejoin="round"/>
<path d="M 11.39 15.0 L 11.43 15.38 L 11.48 15.75 L 11.52 16.12 L 11.56 16.5 L 11.6 16.88 L 11.64 17.25 L 11.68 17.62 L 11.73 18.0 L 11.77 18.38 L 11.81 18.75 L 11.85 19.12 L 11.89 19.5 L 11.93 19.88 L 11.98 20.25 L 12.02 20.62 L 12.06 21.0 L 12.1 21.38 L 12.14 21.75 L 12.18 22.12 L 12.23 22.5 L 12.27 22.88 L 12.31 23.25 L 12.35 23.62 L 12.39 24.0 L 12.39 24.0 L 11.85 23.75 L 11.29 23.56 L 10.7 23.43 L 10.11 23.37 L 9.51 23.38 L 8.92 23.45 L 8.34 23.59 L 7.78 23.8 L 7.24 24.06 L 6.74 24.39 L 6.28 24.76 L 5.86 25.19 L 5.5 25.66 L 5.18 26.17 L 4.93 26.71 L 4.74 27.27 L 4.61 27.86 L 4.55 28.45 L 4.55 29.05 L 4.63 29.64 L 4.76 30.22 L 4.97 30.78 L 5.23 31.32 L 5.55 31.82 L 5.39 32.0 L 5.39 31.31 L 5.49 30.62 L 5.71 29.96 L 6.03 29.34 L 6.44 28.78 L 6.94 28.3 L 7.5 27.9 L 8.13 27.6 L 8.8 27.4 L 9.48 27.32 L 10.18 27.34 L 10.86 27.48 L 11.51 27.72 L 12.11 28.07 L 12.65 28.51 L 13.11 29.02 L 13.48 29.61 L 13.76 30.25 L 13.92 30.92 L 13.98 31.62 L 13.92 32.31 L 13.76 32.98 L 13.48 33.62 L 13.11 34.21" fill="none" stroke="#111" stroke-width="1.34" stroke-linecap="round" stroke-linejoin="round"/>
<path d="M 10.39 15.0 L 10.1 15.35 L 9.81 15.7 L 9.53 16.06 L 9.27 16.43 L 9.01 16.81 L 8.77 17.19 L 8.54 17.59 L 8.32 17.98 L 8.11 18.39 L 7.91 18.8 L 7.72 19.21 L 7.54 19.63 L 7.38 20.06 L 7.23 20.49 L 7.09 20.92 L 6.97 21.36 L 6.85 21.8 L 6.75 22.24 L 6.66 22.69 L 6.59 23.14 L 6.52 23.59 L 6.47 24.04 L 6.44 24.5 L 6.41 24.95" fill="none" stroke="#111" stroke-width="1.34" stroke-linecap="round" stroke-linejoin="round"/>
</svg>
