<?xml version="1.0" encoding="UTF-8"?>
<svg xmlns="http://www.w3.org/2000/svg" viewBox="0 0 29.30 34.51">
<path d="M 8.3 14.51 L 9.33 14.47 L 10.35 14.5 L 11.38 14.59 L 12.4 14.75 L 13.4 14.98 L 14.38 15.27 L 15.35 15.63 L 16.29 16.05 L 17.19 16.54 L 18.07 17.08 L 18.9 17.68 L 19.7 18.34 L 20.45 19.04 L 21.15 19.8 L 21.79 20.6 L 22.39 21.44 L 22.92 22.32 L 23.4 23.23 L 23.81 24.17 L 24.17 25.14 L 24.45 26.12 L 24.67 27.13 L 24.83 28.15 L 24.91 29.17 L 25.3 29.51 L 24.92 29.56 L 24.55 29.6 L 24.17 29.64 L 23.8 29.68 L 23.42 29.72 L 23.05 29.76 L 22.67 29.81 L 22.3 29.85 L 21.92 29.89 L 21.55 29.93 L 21.17 29.97 L 20.8 30.01 L 20.42 30.06 L 20.05 30.1 L 19.67 30.14 L 19.3 30.18 L 18.92 30.22 L 18.55 30.26 L 18.17 30.31 L 17.8 30.35 L 17.42 30.39 L 17.05 30.43 L 16.67 30.47 L 16.3 30.51 L 16.3 30.51 L 15.18 29.86 L 14.1 29.15 L 13.05 28.37 L 12.06 27.54 L 11.1 26.66 L 10.2 25.73 L 9.35 24.75 L 8.56 23.72 L 7.82 22.66 L 7.15 21.55 L 6.53 20.41 L 5.98 19.23 L 5.49 18.03 L 5.07 16.81 L 4.72 15.56 L 4.43 14.29 L 4.22 13.01 L 4.08 11.72 L 4.0 10.43 L 4.0 9.13 L 4.07 7.84 L 4.21 6.55 L 4.42 5.27 L 4.7 4.0" fill="none" stroke="#111" stroke-width="1.21" stroke-linecap="round" stroke-linejoin="round"/>
<path d="M 11.3 8.51 L 11.44 8.84 L 11.58 9.17 L 11.72 9.49 L 11.86 9.82 L 12.0 10.15 L 12.14 10.48 L 12.27 10.81 L 12.4 11.14 L 12.53 11.47 L 12.66 11.8 L 12.79 12.14 L 12.91 12.47 L 13.04 12.8 L 13.16 13.14 L 13.28 13.47 L 13.4 13.81 L 13.52 14.14 L 13.64 14.48 L 13.75 14.82 L 13.86 15.16 L 13.97 15.49 L 14.08 15.83 L 14.19 16.17 L 14.3 16.51" fill="none" stroke="#111" stroke-width="1.21" stroke-linecap="round" stroke-linejoin="round"/>
<path d="M 16.3 10.51 L 16.54 10.72 L 16.77 10.94 L 16.99 11.17 L 17.19 11.42 L 17.37 11.68 L 17.54 11.95 L 17.69 12.23 L 17.82 12.52 L 17.94 12.81 L 18.03 13.12 L 18.11 13.43 L 18.16 13.74 L 18.2 14.06 L 18.21 14.37 L 18.2 14.69 L 18.18 15.01 L 18.13 15.32 L 18.07 15.64 L 17.98 15.94 L 17.88 16.24 L 17.75 16.54 L 17.61 16.82 L 17.45 17.09 L 17.28 17.36" fill="none" stroke="#111" stroke-width="1.21" stroke-linecap="round" stroke-linejoin="round"/>
<path d="M 21.3 12.51 L 21.56 12.81 L 21.81 13.12 L 22.05 13.44 L 22.26 13.78 L 22.46 14.13 L 22.64 14.48 L 22.8 14.85 L 22.93 15.22 L 23.05 15.61 L 23.15 15.99 L 23.22 16.38 L 23.28 16.78 L 23.31 17.18 L 23.32 17.57 L 23.31 17.97 L 23.28 18.37 L 23.23 18.77 L 23.16 19.16 L 23.06 19.54 L 22.95 19.93 L 22.81 20.3 L 22.65 20.67 L 22.48 21.03 L 22.28 21.37" fill="none" stroke="#111" stroke-width="1.21" stroke-linecap="round" stroke-linejoin="round"/>
<path d="M 15.3 22.51 L 15.42 22.51 L 15.55 22.51 L 15.67 22.51 L 15.8 22.51 L 15.92 22.51 L 16.05 22.51 L 16.17 22.51 L 16.3 22.51 L 16.42 22.51 L 16.55 22.51 L 16.67 22.51 L 16.8 22.51 L 16.92 22.51 L 17.05 22.51 L 17.17 22.51 L 17.3 22.51 L 17.42 22.51 L 17.55 22.51 L 17.67 22.51 L 17.8 22.51 L 17.92 22.51 L 18.05 22.51 L 18.17 22.51 L 18.3 22.51 L 18.3 22.51 L 18.41 22.7 L 18.5 22.9 L 18.58 23.1 L 18.64 23.31 L 18.68 23.53 L 18.71 23.74 L 18.71 23.96 L 18.69 24.18 L 18.66 24.39 L 18.61 24.6 L 18.54 24.81 L 18.45 25.01 L 18.34 25.2 L 18.22 25.38 L 18.08 25.55 L 17.93 25.71 L 17.77 25.85 L 17.59 25.98 L 17.4 26.09 L 17.21 26.19 L 17.0 26.26 L 16.79 26.32 L 16.58 26.37 L 16.36 26.39 L 16.3 26.51 L 16.17 26.43 L 16.05 26.35 L 15.92 26.26 L 15.8 26.18 L 15.67 26.1 L 15.55 26.01 L 15.42 25.93 L 15.3 25.85 L 15.17 25.76 L 15.05 25.68 L 14.92 25.6 L 14.8 25.51 L 14.67 25.43 L 14.55 25.35 L 14.42 25.26 L 14.3 25.18 L 14.17 25.1 L 14.05 25.01 L 13.92 24.93 L 13.8 24.85 L 13.67 24.76 L 13.55 24.68 L 13.42 24.6 L 13.3 24.51 L 13.3 24.51 L 13.38 24.43 L 13.46 24.35 L 13.55 24.26 L 13.63 24.18 L 13.71 24.1 L 13.8 24.01 L 13.88 23.93 L 13.96 23.85 L 14.05 23.76 L 14.13 23.68 L 14.21 23.6 L 14.3 23.51 L 14.38 23.43 L 14.46 23.35 L 14.55 23.26 L 14.63 23.18 L 14.71 23.1 L 14.8 23.01 L 14.88 22.93 L 14.96 22.85 L 15.05 22.76 L 15.13 22.68 L 15.21 22.6 L 15.3 22.51" fill="none" stroke="#111" stroke-width="1.21" stroke-linecap="round" stroke-linejoin="round"/>
</svg>
