<?xml version="1.0" encoding="UTF-8"?>
<svg xmlns="http://www.w3.org/2000/svg" viewBox="0 0 24.00 37.00">
<path d="M 8.0 4.0 L 8.5 4.46 L 9.0 4.92 L 9.5 5.38 L 10.0 5.83 L 10.5 6.29 L 11.0 6.75 L 11.5 7.21 L 12.0 7.67 L 12.5 8.12 L 13.0 8.58 L 13.5 9.04 L 14.0 9.5 L 14.5 9.96 L 15.0 10.42 L 15.5 10.88 L 16.0 11.33 L 16.5 11.79 L 17.0 12.25 L 17.5 12.71 L 18.0 13.17 L 18.5 13.62 L 19.0 14.08 L 19.5 14.54 L 20.0 15.0" fill="none" stroke="#111" stroke-width="1.30" stroke-linecap="round" stroke-linejoin="round"/>
<path d="M 6.0 10.0 L 6.58 10.46 L 7.17 10.92 L 7.75 11.38 L 8.33 11.83 L 8.92 12.29 L 9.5 12.75 L 10.08 13.21 L 10.67 13.67 L 11.25 14.12 L 11.83 14.58 L 12.42 15.04 L 13.0 15.5 L 13.58 15.96 L 14.17 16.42 L 14.75 16.88 L 15.33 17.33 L 15.92 17.79 L 16.5 18.25 L 17.08 18.71 L 17.67 19.17 L 18.25 19.62 L 18.83 20.08 L 19.42 20.54 L 20.0 21.0" fill="none" stroke="#111" stroke-width="1.30" stroke-linecap="round" stroke-linejoin="round"/>
<path d="M 5.0 17.0 L 5.58 17.38 L 6.17 17.75 L 6.75 18.12 L 7.33 18.5 L 7.92 18.88 L 8.5 19.25 L 9.08 19.62 L 9.67 20.0 L 10.25 20.38 L 10.83 20.75 L 11.42 21.12 L 12.0 21.5 L 12.58 21.88 L 13.17 22.25 L 13.75 22.62 L 14.33 23.0 L 14.92 23.38 L 15.5 23.75 L 16.08 24.12 L 16.67 24.5 L 17.25 24.88 L 17.83 25.25 L 18.42 25.62 L 19.0 26.0" fill="none" stroke="#111" stroke-width="1.30" stroke-linecap="round" stroke-linejoin="round"/>
<path d="M 4.0 24.0 L 4.62 24.38 L 5.25 24.75 L 5.88 25.12 L 6.5 25.5 L 7.12 25.88 L 7.75 26.25 L 8.38 26.62 L 9.0 27.0 L 9.62 27.38 L 10.25 27.75 L 10.88 28.12 L 11.5 28.5 L 12.12 28.88 L 12.75 29.25 L 13.38 29.62 L 14.0 30.0 L 14.62 30.38 L 15.25 30.75 L 15.88 31.12 L 16.5 31.5 L 17.12 31.88 L 17.75 32.25 L 18.38 32.62 L 19.0 33.0" fill="none" stroke="#111" stroke-width="1.30" stroke-linecap="round" stroke-linejoin="round"/>
</svg>
