<?xml version="1.0" encoding="UTF-8"?>
<svg xmlns="http://www.w3.org/2000/svg" viewBox="0 0 27.00 42.36">
<path d="M 4.0 14.45 L 4.61 14.42 L 5.22 14.35 L 5.83 14.22 L 6.41 14.05 L 6.99 13.82 L 7.54 13.55 L 8.06 13.23 L 8.56 12.87 L 9.03 12.47 L 9.46 12.03 L 9.85 11.56 L 10.2 11.05 L 10.51 10.52 L 10.77 9.97 L 10.99 9.39 L 11.15 8.8 L 11.27 8.2 L 11.33 7.58 L 11.35 6.97 L 11.31 6.36 L 11.22 5.75 L 11.08 5.15 L 10.89 4.57 L 10.65 4.0" fill="none" stroke="#111" stroke-width="1.48" stroke-linecap="round" stroke-linejoin="round"/>
<path d="M 11.0 6.45 L 11.5 6.74 L 12.0 7.03 L 12.5 7.32 L 13.0 7.61 L 13.5 7.91 L 14.0 8.2 L 14.5 8.49 L 15.0 8.78 L 15.5 9.07 L 16.0 9.36 L 16.5 9.66 L 17.0 9.95 L 17.5 10.24 L 18.0 10.53 L 18.5 10.82 L 19.0 11.11 L 19.5 11.41 L 20.0 11.7 L 20.5 11.99 L 21.0 12.28 L 21.5 12.57 L 22.0 12.86 L 22.5 13.16 L 23.0 13.45" fill="none" stroke="#111" stroke-width="1.48" stroke-linecap="round" stroke-linejoin="round"/>
<path d="M 9.0 11.45 L 9.71 12.41 L 10.39 13.39 L 11.04 14.4 L 11.66 15.42 L 12.25 16.46 L 12.81 17.52 L 13.33 18.59 L 13.83 19.68 L 14.28 20.79 L 14.71 21.9 L 15.1 23.03 L 15.46 24.17 L 15.78 25.33 L 16.07 26.49 L 16.32 27.65 L 16.54 28.83 L 16.72 30.01 L 16.86 31.2 L 16.97 32.39 L 17.04 33.58 L 17.08 34.78 L 17.08 35.97 L 17.05 37.17 L 16.98 38.36" fill="none" stroke="#111" stroke-width="1.48" stroke-linecap="round" stroke-linejoin="round"/>
<path d="M 17.0 9.45 L 16.38 10.53 L 15.76 11.62 L 15.17 12.71 L 14.58 13.81 L 14.01 14.92 L 13.45 16.04 L 12.9 17.16 L 12.37 18.29 L 11.85 19.43 L 11.35 20.57 L 10.85 21.71 L 10.38 22.87 L 9.91 24.03 L 9.46 25.19 L 9.03 26.36 L 8.6 27.53 L 8.2 28.71 L 7.8 29.9 L 7.42 31.09 L 7.06 32.28 L 6.7 33.48 L 6.37 34.68 L 6.04 35.89 L 5.74 37.1" fill="none" stroke="#111" stroke-width="1.48" stroke-linecap="round" stroke-linejoin="round"/>
<path d="M 12.0 10.45 L 12.12 10.61 L 12.25 10.78 L 12.38 10.95 L 12.5 11.11 L 12.62 11.28 L 12.75 11.45 L 12.88 11.61 L 13.0 11.78 L 13.12 11.95 L 13.25 12.11 L 13.38 12.28 L 13.5 12.45 L 13.62 12.61 L 13.75 12.78 L 13.88 12.95 L 14.0 13.11 L 14.12 13.28 L 14.25 13.45 L 14.38 13.61 L 14.5 13.78 L 14.62 13.95 L 14.75 14.11 L 14.88 14.28 L 15.0 14.45" fill="none" stroke="#111" stroke-width="1.48" stroke-linecap="round" stroke-linejoin="round"/>
<path d="M 15.0 8.45 L 14.88 8.78 L 14.75 9.11 L 14.62 9.45 L 14.5 9.78 L 14.38 10.11 L 14.25 10.45 L 14.12 10.78 L 14.0 11.11 L 13.88 11.45 L 13.75 11.78 L 13.62 12.11 L 13.5 12.45 L 13.38 12.78 L 13.25 13.11 L 13.12 13.45 L 13.0 13.78 L 12.88 14.11 L 12.75 14.45 L 12.62 14.78 L 12.5 15.11 L 12.38 15.45 L 12.25 15.78 L 12.12 16.11 L 12.0 16.45" fill="none" stroke="#111" stroke-width="1.48" stroke-linecap="round" stroke-linejoin="round"/>
</svg>
