<?xml version="1.0" encoding="UTF-8"?>
<svg xmlns="http://www.w3.org/2000/svg" viewBox="0 0 30.00 38.00">
<path d="M 13.0 4.0 L 12.75 4.21 L 12.5 4.42 L 12.25 4.62 L 12.0 4.83 L 11.75 5.04 L 11.5 5.25 L 11.25 5.46 L 11.0 5.67 L 10.75 5.88 L 10.5 6.08 L 10.25 6.29 L 10.0 6.5 L 9.75 6.71 L 9.5 6.92 L 9.25 7.12 L 9.0 7.33 L 8.75 7.54 L 8.5 7.75 L 8.25 7.96 L 8.0 8.17 L 7.75 8.38 L 7.5 8.58 L 7.25 8.79 L 7.0 9.0" fill="none" stroke="#111" stroke-width="1.33" stroke-linecap="round" stroke-linejoin="round"/>
<path d="M 18.0 6.0 L 17.5 6.25 L 17.0 6.5 L 16.5 6.75 L 16.0 7.0 L 15.5 7.25 L 15.0 7.5 L 14.5 7.75 L 14.0 8.0 L 13.5 8.25 L 13.0 8.5 L 12.5 8.75 L 12.0 9.0 L 11.5 9.25 L 11.0 9.5 L 10.5 9.75 L 10.0 10.0 L 9.5 10.25 L 9.0 10.5 L 8.5 10.75 L 8.0 11.0 L 7.5 11.25 L 7.0 11.5 L 6.5 11.75 L 6.0 12.0 L 6.0 12.0 L 6.04 12.25 L 6.08 12.5 L 6.12 12.75 L 6.17 13.0 L 6.21 13.25 L 6.25 13.5 L 6.29 13.75 L 6.33 14.0 L 6.38 14.25 L 6.42 14.5 L 6.46 14.75 L 6.5 15.0 L 6.54 15.25 L 6.58 15.5 L 6.62 15.75 L 6.67 16.0 L 6.71 16.25 L 6.75 16.5 L 6.79 16.75 L 6.83 17.0 L 6.88 17.25 L 6.92 17.5 L 6.96 17.75 L 7.0 18.0" fill="none" stroke="#111" stroke-width="1.33" stroke-linecap="round" stroke-linejoin="round"/>
<path d="M 10.0 7.0 L 10.47 7.57 L 10.91 8.16 L 11.31 8.79 L 11.66 9.44 L 11.97 10.11 L 12.24 10.8 L 12.45 11.5 L 12.63 12.22 L 12.75 12.95 L 12.83 13.69 L 12.85 14.43 L 12.83 15.17 L 12.76 15.9 L 12.64 16.63 L 12.48 17.35 L 12.26 18.06 L 12.0 18.75 L 11.7 19.42 L 11.35 20.08 L 10.96 20.7 L 10.52 21.3 L 10.05 21.87 L 9.55 22.41 L 9.01 22.91 L 9.0 23.0 L 9.12 23.29 L 9.25 23.58 L 9.38 23.88 L 9.5 24.17 L 9.62 24.46 L 9.75 24.75 L 9.88 25.04 L 10.0 25.33 L 10.12 25.62 L 10.25 25.92 L 10.38 26.21 L 10.5 26.5 L 10.62 26.79 L 10.75 27.08 L 10.88 27.38 L 11.0 27.67 L 11.12 27.96 L 11.25 28.25 L 11.38 28.54 L 11.5 28.83 L 11.62 29.12 L 11.75 29.42 L 11.88 29.71 L 12.0 30.0" fill="none" stroke="#111" stroke-width="1.33" stroke-linecap="round" stroke-linejoin="round"/>
<path d="M 4.0 18.0 L 4.87 18.07 L 5.73 18.07 L 6.6 18.02 L 7.46 17.9 L 8.31 17.72 L 9.15 17.48 L 9.96 17.18 L 10.75 16.82 L 11.51 16.4 L 12.25 15.94 L 12.94 15.42 L 13.6 14.85 L 14.21 14.24 L 14.78 13.58 L 15.3 12.89 L 15.77 12.15 L 16.19 11.39 L 16.55 10.6 L 16.85 9.79 L 17.09 8.95 L 17.28 8.1 L 17.4 7.24 L 17.46 6.38 L 17.45 5.51" fill="none" stroke="#111" stroke-width="1.33" stroke-linecap="round" stroke-linejoin="round"/>
<path d="M 9.0 11.0 L 9.08 11.12 L 9.17 11.25 L 9.25 11.38 L 9.33 11.5 L 9.42 11.62 L 9.5 11.75 L 9.58 11.88 L 9.67 12.0 L 9.75 12.12 L 9.83 12.25 L 9.92 12.38 L 10.0 12.5 L 10.08 12.62 L 10.17 12.75 L 10.25 12.88 L 10.33 13.0 L 10.42 13.12 L 10.5 13.25 L 10.58 13.38 L 10.67 13.5 L 10.75 13.62 L 10.83 13.75 L 10.92 13.88 L 11.0 14.0" fill="none" stroke="#111" stroke-width="1.33" stroke-linecap="round" stroke-linejoin="round"/>
<path d="M 15.0 9.0 L 15.08 9.08 L 15.17 9.17 L 15.25 9.25 L 15.33 9.33 L 15.42 9.42 L 15.5 9.5 L 15.58 9.58 L 15.67 9.67 L 15.75 9.75 L 15.83 9.83 L 15.92 9.92 L 16.0 10.0 L 16.08 10.08 L 16.17 10.17 L 16.25 10.25 L 16.33 10.33 L 16.42 10.42 L 16.5 10.5 L 16.58 10.58 L 16.67 10.67 L 16.75 10.75 L 16.83 10.83 L 16.92 10.92 L 17.0 11.0" fill="none" stroke="#111" stroke-width="1.33" stroke-linecap="round" stroke-linejoin="round"/>
<path d="M 14.0 20.0 L 14.38 19.79 L 14.75 19.58 L 15.12 19.38 L 15.5 19.17 L 15.88 18.96 L 16.25 18.75 L 16.62 18.54 L 17.0 18.33 L 17.38 18.12 L 17.75 17.92 L 18.12 17.71 L 18.5 17.5 L 18.88 17.29 L 19.25 17.08 L 19.62 16.88 L 20.0 16.67 L 20.38 16.46 L 20.75 16.25 L 21.12 16.04 L 21.5 15.83 L 21.88 15.62 L 22.25 15.42 L 22.62 15.21 L 23.0 15.0" fill="none" stroke="#111" stroke-width="1.33" stroke-linecap="round" stroke-linejoin="round"/>
<path d="M 18.0 12.0 L 18.0 12.42 L 18.0 12.83 L 18.0 13.25 L 18.0 13.67 L 18.0 14.08 L 18.0 14.5 L 18.0 14.92 L 18.0 15.33 L 18.0 15.75 L 18.0 16.17 L 18.0 16.58 L 18.0 17.0 L 18.0 17.42 L 18.0 17.83 L 18.0 18.25 L 18.0 18.67 L 18.0 19.08 L 18.0 19.5 L 18.0 19.92 L 18.0 20.33 L 18.0 20.75 L 18.0 21.17 L 18.0 21.58 L 18.0 22.0" fill="none" stroke="#111" stroke-width="1.33" stroke-linecap="round" stroke-linejoin="round"/>
<path d="M 15.0 23.0 L 15.04 23.21 L 15.08 23.42 L 15.12 23.62 L 15.17 23.83 L 15.21 24.04 L 15.25 24.25 L 15.29 24.46 L 15.33 24.67 L 15.38 24.88 L 15.42 25.08 L 15.46 25.29 L 15.5 25.5 L 15.54 25.71 L 15.58 25.92 L 15.62 26.12 L 15.67 26.33 L 15.71 26.54 L 15.75 26.75 L 15.79 26.96 L 15.83 27.17 L 15.88 27.38 L 15.92 27.58 L 15.96 27.79 L 16.0 28.0 L 16.0 28.0 L 16.52 28.19 L 17.06 28.32 L 17.62 28.39 L 18.17 28.39 L 18.73 28.34 L 19.27 28.22 L 19.8 28.05 L 20.31 27.82 L 20.78 27.53 L 21.23 27.2 L 21.63 26.81 L 21.99 26.39 L 22.3 25.92 L 22.55 25.43 L 22.75 24.91 L 22.89 24.37 L 22.97 23.82 L 22.99 23.26 L 22.95 22.71 L 22.85 22.16 L 22.68 21.63 L 22.46 21.12 L 22.19 20.64 L 21.86 20.19 L 22.0 20.0 L 21.71 20.12 L 21.42 20.25 L 21.12 20.38 L 20.83 20.5 L 20.54 20.62 L 20.25 20.75 L 19.96 20.88 L 19.67 21.0 L 19.38 21.12 L 19.08 21.25 L 18.79 21.38 L 18.5 21.5 L 18.21 21.62 L 17.92 21.75 L 17.62 21.88 L 17.33 22.0 L 17.04 22.12 L 16.75 22.25 L 16.46 22.38 L 16.17 22.5 L 15.88 22.62 L 15.58 22.75 L 15.29 22.88 L 15.0 23.0" fill="none" stroke="#111" stroke-width="1.33" stroke-linecap="round" stroke-linejoin="round"/>
<path d="M 14.0 30.0 L 14.0 30.17 L 14.0 30.33 L 14.0 30.5 L 14.0 30.67 L 14.0 30.83 L 14.0 31.0 L 14.0 31.17 L 14.0 31.33 L 14.0 31.5 L 14.0 31.67 L 14.0 31.83 L 14.0 32.0 L 14.0 32.17 L 14.0 32.33 L 14.0 32.5 L 14.0 32.67 L 14.0 32.83 L 14.0 33.0 L 14.0 33.17 L 14.0 33.33 L 14.0 33.5 L 14.0 33.67 L 14.0 33.83 L 14.0 34.0" fill="none" stroke="#111" stroke-width="1.33" stroke-linecap="round" stroke-linejoin="round"/>
<path d="M 19.0 30.0 L 19.04 30.17 L 19.08 30.33 L 19.12 30.5 L 19.17 30.67 L 19.21 30.83 L 19.25 31.0 L 19.29 31.17 L 19.33 31.33 L 19.38 31.5 L 19.42 31.67 L 19.46 31.83 L 19.5 32.0 L 19.54 32.17 L 19.58 32.33 L 19.62 32.5 L 19.67 32.67 L 19.71 32.83 L 19.75 33.0 L 19.79 33.17 L 19.83 33.33 L 19.88 33.5 L 19.92 33.67 L 19.96 33.83 L 20.0 34.0" fill="none" stroke="#111" stroke-width="1.33" stroke-linecap="round" stroke-linejoin="round"/>
<path d="M 24.0 23.0 L 24.08 23.12 L 24.17 23.25 L 24.25 23.38 L 24.33 23.5 L 24.42 23.62 L 24.5 23.75 L 24.58 23.88 L 24.67 24.0 L 24.75 24.12 L 24.83 24.25 L 24.92 24.38 L 25.0 24.5 L 25.08 24.62 L 25.17 24.75 L 25.25 24.88 L 25.33 25.0 L 25.42 25.12 L 25.5 25.25 L 25.58 25.38 L 25.67 25.5 L 25.75 25.62 L 25.83 25.75 L 25.92 25.88 L 26.0 26.0" fill="none" stroke="#111" stroke-width="1.33" stroke-linecap="round" stroke-linejoin="round"/>
</svg>
