<?xml version="1.0" encoding="UTF-8"?>
<svg xmlns="http://www.w3.org/2000/svg" viewBox="0 0 22.15 44.21">
<path d="M 9.28 4.0 L 9.53 4.67 L 9.78 5.33 L 10.03 6.0 L 10.28 6.67 L 10.53 7.33 L 10.78 8.0 L 11.03 8.67 L 11.28 9.33 L 11.53 10.0 L 11.78 10.67 L 12.03 11.33 L 12.28 12.0 L 12.53 12.67 L 12.78 13.33 L 13.03 14.0 L 13.28 14.67 L 13.53 15.33 L 13.78 16.0 L 14.03 16.67 L 14.28 17.33 L 14.53 18.0 L 14.78 18.67 L 15.03 19.33 L 15.28 20.0 L 15.28 20.0 L 14.52 19.95 L 13.76 19.95 L 13.01 20.01 L 12.26 20.13 L 11.52 20.3 L 10.8 20.53 L 10.1 20.81 L 9.41 21.14 L 8.76 21.52 L 8.13 21.95 L 7.54 22.42 L 6.99 22.93 L 6.47 23.49 L 6.0 24.08 L 5.57 24.71 L 5.19 25.36 L 4.86 26.04 L 4.58 26.75 L 4.35 27.47 L 4.18 28.21 L 4.07 28.96 L 4.0 29.71 L 4.0 30.47 L 4.05 31.23 L 4.28 31.0 L 4.97 30.33 L 5.74 29.74 L 6.57 29.26 L 7.46 28.87 L 8.38 28.6 L 9.33 28.44 L 10.3 28.4 L 11.26 28.47 L 12.2 28.66 L 13.12 28.96 L 13.99 29.37 L 14.81 29.88 L 15.56 30.49 L 16.23 31.18 L 16.81 31.95 L 17.3 32.79 L 17.68 33.67 L 17.95 34.6 L 18.11 35.55 L 18.15 36.51 L 18.08 37.48 L 17.89 38.42 L 17.58 39.34 L 17.17 40.21" fill="none" stroke="#111" stroke-width="1.55" stroke-linecap="round" stroke-linejoin="round"/>
<path d="M 11.28 10.0 L 10.79 10.41 L 10.32 10.84 L 9.88 11.3 L 9.47 11.78 L 9.09 12.29 L 8.73 12.82 L 8.41 13.37 L 8.12 13.94 L 7.86 14.52 L 7.64 15.11 L 7.46 15.72 L 7.3 16.34 L 7.19 16.97 L 7.11 17.6 L 7.07 18.23 L 7.06 18.87 L 7.1 19.5 L 7.16 20.14 L 7.27 20.77 L 7.41 21.39 L 7.59 22.0 L 7.8 22.6 L 8.05 23.18 L 8.33 23.75" fill="none" stroke="#111" stroke-width="1.55" stroke-linecap="round" stroke-linejoin="round"/>
</svg>
