<?xml version="1.0" encoding="UTF-8"?>
<svg xmlns="http://www.w3.org/2000/svg" viewBox="0 0 27.62 40.32">
<path d="M 14.11 9.21 L 13.45 9.35 L 12.83 9.62 L 12.27 9.99 L 11.79 10.46 L 11.4 11.01 L 11.12 11.62 L 10.96 12.28 L 10.92 12.95 L 11.01 13.62 L 11.22 14.26 L 11.55 14.85 L 11.98 15.37 L 12.5 15.8 L 13.09 16.13 L 13.73 16.34 L 14.4 16.43 L 15.07 16.39 L 15.73 16.23 L 16.34 15.95 L 16.89 15.57 L 17.36 15.08 L 17.73 14.52 L 18.0 13.9 L 18.14 13.24 L 17.11 12.21 L 16.99 12.09 L 16.86 11.96 L 16.74 11.84 L 16.61 11.71 L 16.49 11.59 L 16.36 11.46 L 16.24 11.34 L 16.11 11.21 L 15.99 11.09 L 15.86 10.96 L 15.74 10.84 L 15.61 10.71 L 15.49 10.59 L 15.36 10.46 L 15.24 10.34 L 15.11 10.21 L 14.99 10.09 L 14.86 9.96 L 14.74 9.84 L 14.61 9.71 L 14.49 9.59 L 14.36 9.46 L 14.24 9.34 L 14.11 9.21" fill="none" stroke="#111" stroke-width="1.41" stroke-linecap="round" stroke-linejoin="round"/>
<path d="M 11.11 14.21 L 11.36 14.17 L 11.61 14.13 L 11.86 14.09 L 12.11 14.05 L 12.36 14.0 L 12.61 13.96 L 12.86 13.92 L 13.11 13.88 L 13.36 13.84 L 13.61 13.8 L 13.86 13.75 L 14.11 13.71 L 14.36 13.67 L 14.61 13.63 L 14.86 13.59 L 15.11 13.55 L 15.36 13.5 L 15.61 13.46 L 15.86 13.42 L 16.11 13.38 L 16.36 13.34 L 16.61 13.3 L 16.86 13.25 L 17.11 13.21" fill="none" stroke="#111" stroke-width="1.41" stroke-linecap="round" stroke-linejoin="round"/>
<path d="M 6.11 4.21 L 6.82 4.1 L 7.53 4.11 L 8.22 4.25 L 8.88 4.51 L 9.49 4.88 L 10.02 5.35 L 10.45 5.91 L 10.78 6.54 L 11.0 7.22 L 11.08 7.93 L 11.05 8.63 L 10.88 9.33 L 10.6 9.98 L 10.2 10.57 L 9.71 11.08 L 9.13 11.49 L 8.49 11.8 L 7.81 11.99 L 7.1 12.05 L 6.39 11.98 L 5.71 11.79 L 5.07 11.48 L 4.49 11.07 L 4.0 10.56" fill="none" stroke="#111" stroke-width="1.41" stroke-linecap="round" stroke-linejoin="round"/>
<path d="M 10.11 5.21 L 9.86 5.71 L 9.61 6.21 L 9.36 6.71 L 9.11 7.21 L 8.86 7.71 L 8.61 8.21 L 8.36 8.71 L 8.11 9.21 L 7.86 9.71 L 7.61 10.21 L 7.36 10.71 L 7.11 11.21 L 6.86 11.71 L 6.61 12.21 L 6.36 12.71 L 6.11 13.21 L 5.86 13.71 L 5.61 14.21 L 5.36 14.71 L 5.11 15.21 L 4.86 15.71 L 4.61 16.21 L 4.36 16.71 L 4.11 17.21 L 4.11 17.21 L 5.03 17.58 L 5.91 18.02 L 6.74 18.54 L 7.53 19.14 L 8.26 19.8 L 8.93 20.52 L 9.53 21.3 L 10.06 22.13 L 10.51 23.01 L 10.89 23.92 L 11.18 24.86 L 11.38 25.82 L 11.5 26.8 L 11.53 27.79 L 11.47 28.77 L 11.33 29.74 L 11.1 30.7 L 10.78 31.63 L 10.38 32.53 L 9.91 33.4 L 9.36 34.21 L 8.73 34.98 L 8.05 35.68 L 7.3 36.32" fill="none" stroke="#111" stroke-width="1.41" stroke-linecap="round" stroke-linejoin="round"/>
<path d="M 7.11 10.21 L 7.37 10.47 L 7.61 10.73 L 7.83 11.01 L 8.04 11.3 L 8.23 11.61 L 8.4 11.92 L 8.55 12.25 L 8.69 12.58 L 8.8 12.92 L 8.9 13.26 L 8.97 13.61 L 9.03 13.97 L 9.06 14.32 L 9.07 14.68 L 9.07 15.04 L 9.04 15.4 L 8.99 15.75 L 8.92 16.1 L 8.83 16.45 L 8.72 16.79 L 8.59 17.12 L 8.45 17.45 L 8.28 17.77 L 8.1 18.07" fill="none" stroke="#111" stroke-width="1.41" stroke-linecap="round" stroke-linejoin="round"/>
<path d="M 13.11 16.21 L 13.07 16.42 L 13.03 16.63 L 12.99 16.84 L 12.95 17.05 L 12.91 17.25 L 12.86 17.46 L 12.82 17.67 L 12.78 17.88 L 12.74 18.09 L 12.7 18.3 L 12.66 18.5 L 12.61 18.71 L 12.57 18.92 L 12.53 19.13 L 12.49 19.34 L 12.45 19.55 L 12.41 19.75 L 12.36 19.96 L 12.32 20.17 L 12.28 20.38 L 12.24 20.59 L 12.2 20.8 L 12.16 21.0 L 12.11 21.21" fill="none" stroke="#111" stroke-width="1.41" stroke-linecap="round" stroke-linejoin="round"/>
<path d="M 15.11 17.21 L 15.16 17.38 L 15.2 17.55 L 15.24 17.71 L 15.28 17.88 L 15.32 18.05 L 15.36 18.21 L 15.41 18.38 L 15.45 18.55 L 15.49 18.71 L 15.53 18.88 L 15.57 19.05 L 15.61 19.21 L 15.66 19.38 L 15.7 19.55 L 15.74 19.71 L 15.78 19.88 L 15.82 20.05 L 15.86 20.21 L 15.91 20.38 L 15.95 20.55 L 15.99 20.71 L 16.03 20.88 L 16.07 21.05 L 16.11 21.21" fill="none" stroke="#111" stroke-width="1.41" stroke-linecap="round" stroke-linejoin="round"/>
<path d="M 9.11 21.21 L 9.53 21.25 L 9.95 21.3 L 10.36 21.34 L 10.78 21.38 L 11.2 21.42 L 11.61 21.46 L 12.03 21.5 L 12.45 21.55 L 12.86 21.59 L 13.28 21.63 L 13.7 21.67 L 14.11 21.71 L 14.53 21.75 L 14.95 21.8 L 15.36 21.84 L 15.78 21.88 L 16.2 21.92 L 16.61 21.96 L 17.03 22.0 L 17.45 22.05 L 17.86 22.09 L 18.28 22.13 L 18.7 22.17 L 19.11 22.21" fill="none" stroke="#111" stroke-width="1.41" stroke-linecap="round" stroke-linejoin="round"/>
<path d="M 22.11 4.21 L 21.47 4.05 L 20.8 4.0 L 20.13 4.07 L 19.49 4.26 L 18.89 4.57 L 18.36 4.97 L 17.91 5.46 L 17.55 6.03 L 17.3 6.65 L 17.16 7.3 L 17.15 7.97 L 17.25 8.63 L 17.47 9.27 L 17.8 9.85 L 18.23 10.36 L 18.74 10.79 L 19.32 11.12 L 19.95 11.35 L 20.62 11.45 L 21.28 11.44 L 21.94 11.3 L 22.56 11.05 L 23.13 10.7 L 23.62 10.25" fill="none" stroke="#111" stroke-width="1.41" stroke-linecap="round" stroke-linejoin="round"/>
<path d="M 19.11 4.21 L 19.28 4.8 L 19.45 5.38 L 19.61 5.96 L 19.78 6.55 L 19.95 7.13 L 20.11 7.71 L 20.28 8.3 L 20.45 8.88 L 20.61 9.46 L 20.78 10.05 L 20.95 10.63 L 21.11 11.21 L 21.28 11.8 L 21.45 12.38 L 21.61 12.96 L 21.78 13.55 L 21.95 14.13 L 22.11 14.71 L 22.28 15.3 L 22.45 15.88 L 22.61 16.46 L 22.78 17.05 L 22.95 17.63 L 23.11 18.21 L 23.11 18.21 L 22.75 18.33 L 22.4 18.46 L 22.05 18.62 L 21.71 18.79 L 21.39 18.99 L 21.07 19.2 L 20.76 19.43 L 20.47 19.67 L 20.2 19.93 L 19.94 20.21 L 19.69 20.5 L 19.46 20.8 L 19.25 21.12 L 19.05 21.44 L 18.88 21.78 L 18.72 22.13 L 18.58 22.48 L 18.47 22.84 L 18.37 23.21 L 18.29 23.58 L 18.24 23.96 L 18.2 24.34 L 18.19 24.72 L 18.2 25.1 L 18.11 25.21 L 18.32 25.05 L 18.53 24.88 L 18.74 24.71 L 18.95 24.55 L 19.16 24.38 L 19.36 24.21 L 19.57 24.05 L 19.78 23.88 L 19.99 23.71 L 20.2 23.55 L 20.41 23.38 L 20.61 23.21 L 20.82 23.05 L 21.03 22.88 L 21.24 22.71 L 21.45 22.55 L 21.66 22.38 L 21.86 22.21 L 22.07 22.05 L 22.28 21.88 L 22.49 21.71 L 22.7 21.55 L 22.91 21.38 L 23.11 21.21 L 23.11 21.21 L 22.99 21.67 L 22.86 22.13 L 22.74 22.59 L 22.61 23.05 L 22.49 23.5 L 22.36 23.96 L 22.24 24.42 L 22.11 24.88 L 21.99 25.34 L 21.86 25.8 L 21.74 26.25 L 21.61 26.71 L 21.49 27.17 L 21.36 27.63 L 21.24 28.09 L 21.11 28.55 L 20.99 29.0 L 20.86 29.46 L 20.74 29.92 L 20.61 30.38 L 20.49 30.84 L 20.36 31.3 L 20.24 31.75 L 20.11 32.21" fill="none" stroke="#111" stroke-width="1.41" stroke-linecap="round" stroke-linejoin="round"/>
<path d="M 20.11 10.21 L 19.96 10.61 L 19.82 11.01 L 19.69 11.41 L 19.57 11.82 L 19.47 12.23 L 19.38 12.65 L 19.3 13.07 L 19.24 13.49 L 19.19 13.91 L 19.15 14.33 L 19.13 14.76 L 19.13 15.18 L 19.13 15.61 L 19.15 16.03 L 19.19 16.45 L 19.24 16.88 L 19.3 17.3 L 19.38 17.72 L 19.47 18.13 L 19.57 18.54 L 19.69 18.95 L 19.82 19.36 L 19.96 19.76 L 20.11 20.15" fill="none" stroke="#111" stroke-width="1.41" stroke-linecap="round" stroke-linejoin="round"/>
</svg>
