<?xml version="1.0" encoding="UTF-8"?>
<svg xmlns="http://www.w3.org/2000/svg" viewBox="0 0 21.39 34.57">
<path d="M 4.66 12.0 L 4.88 11.57 L 5.12 11.14 L 5.37 10.72 L 5.64 10.32 L 5.92 9.92 L 6.22 9.53 L 6.54 9.16 L 6.87 8.8 L 7.21 8.45 L 7.56 8.12 L 7.93 7.8 L 8.31 7.49 L 8.7 7.2 L 9.1 6.92 L 9.51 6.66 L 9.93 6.41 L 10.36 6.18 L 10.8 5.97 L 11.25 5.78 L 11.7 5.6 L 12.17 5.44 L 12.63 5.29 L 13.1 5.17 L 13.58 5.06" fill="none" stroke="#111" stroke-width="1.21" stroke-linecap="round" stroke-linejoin="round"/>
<path d="M 4.66 12.0 L 5.14 12.11 L 5.63 12.18 L 6.12 12.21 L 6.61 12.22 L 7.1 12.19 L 7.59 12.12 L 8.07 12.02 L 8.54 11.89 L 9.01 11.72 L 9.46 11.52 L 9.89 11.3 L 10.31 11.04 L 10.71 10.75 L 11.09 10.44 L 11.44 10.1 L 11.78 9.73 L 12.08 9.35 L 12.36 8.94 L 12.61 8.52 L 12.82 8.07 L 13.01 7.62 L 13.16 7.15 L 13.29 6.67 L 13.37 6.19" fill="none" stroke="#111" stroke-width="1.21" stroke-linecap="round" stroke-linejoin="round"/>
<path d="M 5.66 5.0 L 5.74 5.25 L 5.83 5.5 L 5.91 5.75 L 5.99 6.0 L 6.08 6.25 L 6.16 6.5 L 6.24 6.75 L 6.33 7.0 L 6.41 7.25 L 6.49 7.5 L 6.58 7.75 L 6.66 8.0 L 6.74 8.25 L 6.83 8.5 L 6.91 8.75 L 6.99 9.0 L 7.08 9.25 L 7.16 9.5 L 7.24 9.75 L 7.33 10.0 L 7.41 10.25 L 7.49 10.5 L 7.58 10.75 L 7.66 11.0" fill="none" stroke="#111" stroke-width="1.21" stroke-linecap="round" stroke-linejoin="round"/>
<path d="M 8.66 4.0 L 8.74 4.21 L 8.83 4.42 L 8.91 4.62 L 8.99 4.83 L 9.08 5.04 L 9.16 5.25 L 9.24 5.46 L 9.33 5.67 L 9.41 5.88 L 9.49 6.08 L 9.58 6.29 L 9.66 6.5 L 9.74 6.71 L 9.83 6.92 L 9.91 7.12 L 9.99 7.33 L 10.08 7.54 L 10.16 7.75 L 10.24 7.96 L 10.33 8.17 L 10.41 8.38 L 10.49 8.58 L 10.58 8.79 L 10.66 9.0" fill="none" stroke="#111" stroke-width="1.21" stroke-linecap="round" stroke-linejoin="round"/>
<path d="M 10.66 9.0 L 10.89 9.51 L 11.07 10.05 L 11.2 10.6 L 11.28 11.16 L 11.31 11.72 L 11.28 12.29 L 11.2 12.84 L 11.07 13.39 L 10.88 13.93 L 10.65 14.44 L 10.37 14.93 L 10.05 15.39 L 9.68 15.82 L 9.27 16.22 L 8.83 16.57 L 8.36 16.88 L 7.86 17.14 L 7.34 17.36 L 6.8 17.52 L 6.24 17.63 L 5.68 17.7 L 5.12 17.7 L 4.56 17.66 L 4.0 17.56" fill="none" stroke="#111" stroke-width="1.21" stroke-linecap="round" stroke-linejoin="round"/>
<path d="M 11.66 13.0 L 11.96 13.33 L 12.24 13.69 L 12.49 14.06 L 12.73 14.44 L 12.93 14.84 L 13.11 15.25 L 13.27 15.68 L 13.39 16.11 L 13.49 16.55 L 13.56 16.99 L 13.61 17.44 L 13.62 17.89 L 13.61 18.34 L 13.56 18.79 L 13.49 19.23 L 13.39 19.67 L 13.27 20.1 L 13.11 20.52 L 12.93 20.93 L 12.73 21.33 L 12.49 21.72 L 12.24 22.09 L 11.96 22.44 L 11.66 22.78" fill="none" stroke="#111" stroke-width="1.21" stroke-linecap="round" stroke-linejoin="round"/>
<path d="M 8.66 22.0 L 8.66 22.08 L 8.66 22.17 L 8.66 22.25 L 8.66 22.33 L 8.66 22.42 L 8.66 22.5 L 8.66 22.58 L 8.66 22.67 L 8.66 22.75 L 8.66 22.83 L 8.66 22.92 L 8.66 23.0 L 8.66 23.08 L 8.66 23.17 L 8.66 23.25 L 8.66 23.33 L 8.66 23.42 L 8.66 23.5 L 8.66 23.58 L 8.66 23.67 L 8.66 23.75 L 8.66 23.83 L 8.66 23.92 L 8.66 24.0 L 8.66 24.0 L 8.16 23.79 L 7.7 23.49 L 7.3 23.13 L 6.96 22.7 L 6.71 22.22 L 6.54 21.7 L 6.45 21.16 L 6.46 20.62 L 6.57 20.08 L 6.76 19.58 L 7.03 19.11 L 7.38 18.69 L 7.8 18.34 L 8.27 18.06 L 8.78 17.87 L 9.31 17.77 L 9.86 17.76 L 10.4 17.84 L 10.91 18.01 L 11.39 18.27 L 11.82 18.6 L 12.19 19.0 L 12.48 19.46 L 12.69 19.96" fill="none" stroke="#111" stroke-width="1.21" stroke-linecap="round" stroke-linejoin="round"/>
<path d="M 13.66 18.0 L 14.21 18.33 L 14.72 18.71 L 15.2 19.13 L 15.64 19.59 L 16.04 20.1 L 16.39 20.63 L 16.69 21.19 L 16.94 21.78 L 17.14 22.39 L 17.28 23.01 L 17.36 23.65 L 17.39 24.29 L 17.36 24.92 L 17.28 25.56 L 17.14 26.18 L 16.94 26.79 L 16.69 27.38 L 16.39 27.94 L 16.04 28.48 L 15.64 28.98 L 15.2 29.44 L 14.72 29.86 L 14.21 30.24 L 13.66 30.57" fill="none" stroke="#111" stroke-width="1.21" stroke-linecap="round" stroke-linejoin="round"/>
<path d="M 8.66 27.0 L 8.74 27.08 L 8.83 27.17 L 8.91 27.25 L 8.99 27.33 L 9.08 27.42 L 9.16 27.5 L 9.24 27.58 L 9.33 27.67 L 9.41 27.75 L 9.49 27.83 L 9.58 27.92 L 9.66 28.0 L 9.74 28.08 L 9.83 28.17 L 9.91 28.25 L 9.99 28.33 L 10.08 28.42 L 10.16 28.5 L 10.24 28.58 L 10.33 28.67 L 10.41 28.75 L 10.49 28.83 L 10.58 28.92 L 10.66 29.0" fill="none" stroke="#111" stroke-width="1.21" stroke-linecap="round" stroke-linejoin="round"/>
<path d="M 9.66 27.0 L 9.95 26.92 L 10.24 26.83 L 10.53 26.75 L 10.83 26.67 L 11.12 26.58 L 11.41 26.5 L 11.7 26.42 L 11.99 26.33 L 12.28 26.25 L 12.58 26.17 L 12.87 26.08 L 13.16 26.0 L 13.45 25.92 L 13.74 25.83 L 14.03 25.75 L 14.33 25.67 L 14.62 25.58 L 14.91 25.5 L 15.2 25.42 L 15.49 25.33 L 15.78 25.25 L 16.08 25.17 L 16.37 25.08 L 16.66 25.0" fill="none" stroke="#111" stroke-width="1.21" stroke-linecap="round" stroke-linejoin="round"/>
</svg>
