<?xml version="1.0" encoding="UTF-8"?>
<svg xmlns="http://www.w3.org/2000/svg" viewBox="0 0 29.50 35.00">
<path d="M 13.5 15.0 L 12.82 15.34 L 12.24 15.82 L 11.78 16.42 L 11.48 17.12 L 11.34 17.86 L 11.38 18.62 L 11.6 19.35 L 11.98 20.0 L 12.49 20.56 L 13.13 20.97 L 13.84 21.23 L 14.59 21.32 L 15.34 21.23 L 16.05 20.97 L 16.69 20.56 L 17.21 20.0 L 17.58 19.35 L 17.8 18.62 L 17.84 17.86 L 17.7 17.12 L 17.4 16.42 L 16.95 15.82 L 16.36 15.34 L 15.68 15.0" fill="none" stroke="#111" stroke-width="1.23" stroke-linecap="round" stroke-linejoin="round"/>
<path d="M 8.5 7.0 L 8.58 7.54 L 8.66 8.08 L 8.75 8.62 L 8.83 9.17 L 8.91 9.71 L 9.0 10.25 L 9.08 10.79 L 9.16 11.33 L 9.25 11.88 L 9.33 12.42 L 9.41 12.96 L 9.5 13.5 L 9.58 14.04 L 9.66 14.58 L 9.75 15.12 L 9.83 15.67 L 9.91 16.21 L 10.0 16.75 L 10.08 17.29 L 10.16 17.83 L 10.25 18.38 L 10.33 18.92 L 10.41 19.46 L 10.5 20.0 L 10.5 20.0 L 9.63 19.82 L 8.74 19.8 L 7.87 19.93 L 7.02 20.21 L 6.25 20.63 L 5.55 21.19 L 4.97 21.85 L 4.51 22.61 L 4.19 23.44 L 4.02 24.31 L 4.0 25.19 L 4.14 26.07 L 4.43 26.91 L 4.86 27.68 L 5.42 28.37 L 6.09 28.95 L 6.85 29.4 L 7.68 29.71 L 8.56 29.88 L 9.44 29.88 L 10.32 29.74 L 11.15 29.44 L 11.92 29.0 L 12.61 28.43 L 11.5 24.0 L 11.41 24.29 L 11.33 24.58 L 11.25 24.88 L 11.16 25.17 L 11.08 25.46 L 11.0 25.75 L 10.91 26.04 L 10.83 26.33 L 10.75 26.62 L 10.66 26.92 L 10.58 27.21 L 10.5 27.5 L 10.41 27.79 L 10.33 28.08 L 10.25 28.38 L 10.16 28.67 L 10.08 28.96 L 10.0 29.25 L 9.91 29.54 L 9.83 29.83 L 9.75 30.12 L 9.66 30.42 L 9.58 30.71 L 9.5 31.0" fill="none" stroke="#111" stroke-width="1.23" stroke-linecap="round" stroke-linejoin="round"/>
<path d="M 8.5 10.0 L 8.41 10.46 L 8.33 10.92 L 8.25 11.38 L 8.16 11.83 L 8.08 12.29 L 8.0 12.75 L 7.91 13.21 L 7.83 13.67 L 7.75 14.12 L 7.66 14.58 L 7.58 15.04 L 7.5 15.5 L 7.41 15.96 L 7.33 16.42 L 7.25 16.88 L 7.16 17.33 L 7.08 17.79 L 7.0 18.25 L 6.91 18.71 L 6.83 19.17 L 6.75 19.62 L 6.66 20.08 L 6.58 20.54 L 6.5 21.0" fill="none" stroke="#111" stroke-width="1.23" stroke-linecap="round" stroke-linejoin="round"/>
<path d="M 12.5 4.0 L 13.04 4.04 L 13.58 4.08 L 14.12 4.12 L 14.66 4.17 L 15.21 4.21 L 15.75 4.25 L 16.29 4.29 L 16.83 4.33 L 17.37 4.38 L 17.91 4.42 L 18.46 4.46 L 19.0 4.5 L 19.54 4.54 L 20.08 4.58 L 20.62 4.62 L 21.16 4.67 L 21.71 4.71 L 22.25 4.75 L 22.79 4.79 L 23.33 4.83 L 23.87 4.88 L 24.41 4.92 L 24.96 4.96 L 25.5 5.0" fill="none" stroke="#111" stroke-width="1.23" stroke-linecap="round" stroke-linejoin="round"/>
<path d="M 15.5 12.0 L 15.83 12.0 L 16.16 12.0 L 16.5 12.0 L 16.83 12.0 L 17.16 12.0 L 17.5 12.0 L 17.83 12.0 L 18.16 12.0 L 18.5 12.0 L 18.83 12.0 L 19.16 12.0 L 19.5 12.0 L 19.83 12.0 L 20.16 12.0 L 20.5 12.0 L 20.83 12.0 L 21.16 12.0 L 21.5 12.0 L 21.83 12.0 L 22.16 12.0 L 22.5 12.0 L 22.83 12.0 L 23.16 12.0 L 23.5 12.0" fill="none" stroke="#111" stroke-width="1.23" stroke-linecap="round" stroke-linejoin="round"/>
<path d="M 15.5 4.0 L 15.62 4.29 L 15.75 4.58 L 15.87 4.88 L 16.0 5.17 L 16.12 5.46 L 16.25 5.75 L 16.37 6.04 L 16.5 6.33 L 16.62 6.62 L 16.75 6.92 L 16.87 7.21 L 17.0 7.5 L 17.12 7.79 L 17.25 8.08 L 17.37 8.38 L 17.5 8.67 L 17.62 8.96 L 17.75 9.25 L 17.87 9.54 L 18.0 9.83 L 18.12 10.12 L 18.25 10.42 L 18.37 10.71 L 18.5 11.0" fill="none" stroke="#111" stroke-width="1.23" stroke-linecap="round" stroke-linejoin="round"/>
<path d="M 21.5 5.0 L 21.04 5.78 L 20.62 6.57 L 20.22 7.38 L 19.85 8.2 L 19.5 9.03 L 19.19 9.87 L 18.9 10.73 L 18.64 11.59 L 18.41 12.46 L 18.21 13.34 L 18.03 14.22 L 17.89 15.11 L 17.78 16.01 L 17.7 16.9 L 17.64 17.8 L 17.62 18.7 L 17.63 19.6 L 17.67 20.5 L 17.73 21.4 L 17.83 22.3 L 17.96 23.19 L 18.12 24.07 L 18.31 24.95 L 18.52 25.83" fill="none" stroke="#111" stroke-width="1.23" stroke-linecap="round" stroke-linejoin="round"/>
</svg>
