<?xml version="1.0" encoding="UTF-8"?>
<svg xmlns="http://www.w3.org/2000/svg" viewBox="0 0 27.00 34.00">
<path d="M 7.0 4.0 L 7.04 5.08 L 7.08 6.17 L 7.12 7.25 L 7.17 8.33 L 7.21 9.42 L 7.25 10.5 L 7.29 11.58 L 7.33 12.67 L 7.38 13.75 L 7.42 14.83 L 7.46 15.92 L 7.5 17.0 L 7.54 18.08 L 7.58 19.17 L 7.63 20.25 L 7.67 21.33 L 7.71 22.42 L 7.75 23.5 L 7.79 24.58 L 7.83 25.67 L 7.88 26.75 L 7.92 27.83 L 7.96 28.92 L 8.0 30.0" fill="none" stroke="#111" stroke-width="1.19" stroke-linecap="round" stroke-linejoin="round"/>
<path d="M 20.0 4.0 L 20.04 5.04 L 20.08 6.08 L 20.12 7.12 L 20.17 8.17 L 20.21 9.21 L 20.25 10.25 L 20.29 11.29 L 20.33 12.33 L 20.38 13.38 L 20.42 14.42 L 20.46 15.46 L 20.5 16.5 L 20.54 17.54 L 20.58 18.58 L 20.62 19.62 L 20.67 20.67 L 20.71 21.71 L 20.75 22.75 L 20.79 23.79 L 20.83 24.83 L 20.88 25.88 L 20.92 26.92 L 20.96 27.96 L 21.0 29.0" fill="none" stroke="#111" stroke-width="1.19" stroke-linecap="round" stroke-linejoin="round"/>
<path d="M 4.0 8.0 L 4.79 7.96 L 5.58 7.92 L 6.38 7.88 L 7.17 7.83 L 7.96 7.79 L 8.75 7.75 L 9.54 7.71 L 10.33 7.67 L 11.12 7.62 L 11.92 7.58 L 12.71 7.54 L 13.5 7.5 L 14.29 7.46 L 15.08 7.42 L 15.88 7.38 L 16.67 7.33 L 17.46 7.29 L 18.25 7.25 L 19.04 7.21 L 19.83 7.17 L 20.62 7.12 L 21.42 7.08 L 22.21 7.04 L 23.0 7.0" fill="none" stroke="#111" stroke-width="1.19" stroke-linecap="round" stroke-linejoin="round"/>
<path d="M 13.0 7.0 L 12.88 7.46 L 12.75 7.92 L 12.62 8.38 L 12.5 8.83 L 12.38 9.29 L 12.25 9.75 L 12.12 10.21 L 12.0 10.67 L 11.88 11.12 L 11.75 11.58 L 11.62 12.04 L 11.5 12.5 L 11.38 12.96 L 11.25 13.42 L 11.12 13.87 L 11.0 14.33 L 10.88 14.79 L 10.75 15.25 L 10.62 15.71 L 10.5 16.17 L 10.38 16.62 L 10.25 17.08 L 10.12 17.54 L 10.0 18.0" fill="none" stroke="#111" stroke-width="1.19" stroke-linecap="round" stroke-linejoin="round"/>
<path d="M 12.0 11.0 L 12.59 11.37 L 13.16 11.79 L 13.69 12.25 L 14.18 12.75 L 14.63 13.28 L 15.05 13.85 L 15.41 14.45 L 15.74 15.07 L 16.01 15.72 L 16.23 16.38 L 16.4 17.06 L 16.52 17.75 L 16.59 18.45 L 16.6 19.15 L 16.56 19.85 L 16.47 20.55 L 16.32 21.23 L 16.12 21.91 L 15.87 22.56 L 15.57 23.2 L 15.23 23.81 L 14.84 24.39 L 14.4 24.94 L 13.93 25.46" fill="none" stroke="#111" stroke-width="1.19" stroke-linecap="round" stroke-linejoin="round"/>
<path d="M 5.0 25.0 L 5.75 25.0 L 6.5 25.0 L 7.25 25.0 L 8.0 25.0 L 8.75 25.0 L 9.5 25.0 L 10.25 25.0 L 11.0 25.0 L 11.75 25.0 L 12.5 25.0 L 13.25 25.0 L 14.0 25.0 L 14.75 25.0 L 15.5 25.0 L 16.25 25.0 L 17.0 25.0 L 17.75 25.0 L 18.5 25.0 L 19.25 25.0 L 20.0 25.0 L 20.75 25.0 L 21.5 25.0 L 22.25 25.0 L 23.0 25.0" fill="none" stroke="#111" stroke-width="1.19" stroke-linecap="round" stroke-linejoin="round"/>
</svg>
