<?xml version="1.0" encoding="UTF-8"?>
<svg xmlns="http://www.w3.org/2000/svg" viewBox="0 0 31.78 32.31">
<path d="M 12.78 4.0 L 10.86 4.77 L 9.09 5.84 L 7.52 7.19 L 6.2 8.79 L 5.17 10.58 L 4.44 12.52 L 4.05 14.55 L 4.0 16.62 L 4.29 18.67 L 4.93 20.64 L 5.87 22.48 L 7.12 24.14 L 8.62 25.56 L 10.33 26.72 L 12.21 27.58 L 14.21 28.11 L 16.28 28.31 L 18.34 28.15 L 20.35 27.66 L 22.25 26.84 L 23.99 25.72 L 25.52 24.32 L 26.79 22.69 L 27.78 20.87 L 20.78 13.0 L 20.45 12.62 L 20.12 12.25 L 19.78 11.88 L 19.45 11.5 L 19.12 11.12 L 18.78 10.75 L 18.45 10.38 L 18.12 10.0 L 17.78 9.62 L 17.45 9.25 L 17.12 8.88 L 16.78 8.5 L 16.45 8.12 L 16.12 7.75 L 15.78 7.38 L 15.45 7.0 L 15.12 6.62 L 14.78 6.25 L 14.45 5.88 L 14.12 5.5 L 13.78 5.12 L 13.45 4.75 L 13.12 4.38 L 12.78 4.0" fill="none" stroke="#111" stroke-width="1.13" stroke-linecap="round" stroke-linejoin="round"/>
<path d="M 12.78 8.0 L 12.95 8.42 L 13.12 8.83 L 13.28 9.25 L 13.45 9.67 L 13.62 10.08 L 13.78 10.5 L 13.95 10.92 L 14.12 11.33 L 14.28 11.75 L 14.45 12.17 L 14.62 12.58 L 14.78 13.0 L 14.95 13.42 L 15.12 13.83 L 15.28 14.25 L 15.45 14.67 L 15.62 15.08 L 15.78 15.5 L 15.95 15.92 L 16.12 16.33 L 16.28 16.75 L 16.45 17.17 L 16.62 17.58 L 16.78 18.0 L 16.78 18.0 L 16.37 18.0 L 15.96 18.05 L 15.56 18.14 L 15.18 18.27 L 14.81 18.45 L 14.46 18.67 L 14.14 18.93 L 13.85 19.22 L 13.59 19.54 L 13.37 19.89 L 13.2 20.26 L 13.06 20.64 L 12.97 21.04 L 12.93 21.45 L 12.93 21.86 L 12.98 22.27 L 13.07 22.67 L 13.21 23.06 L 13.38 23.43 L 13.6 23.77 L 13.86 24.09 L 14.15 24.38 L 14.48 24.64 L 14.82 24.85" fill="none" stroke="#111" stroke-width="1.13" stroke-linecap="round" stroke-linejoin="round"/>
<path d="M 13.78 12.0 L 13.57 12.29 L 13.37 12.58 L 13.16 12.88 L 12.95 13.17 L 12.74 13.46 L 12.53 13.75 L 12.32 14.04 L 12.12 14.33 L 11.91 14.62 L 11.7 14.92 L 11.49 15.21 L 11.28 15.5 L 11.07 15.79 L 10.87 16.08 L 10.66 16.38 L 10.45 16.67 L 10.24 16.96 L 10.03 17.25 L 9.82 17.54 L 9.62 17.83 L 9.41 18.12 L 9.2 18.42 L 8.99 18.71 L 8.78 19.0" fill="none" stroke="#111" stroke-width="1.13" stroke-linecap="round" stroke-linejoin="round"/>
</svg>
