<?xml version="1.0" encoding="UTF-8"?>
<svg xmlns="http://www.w3.org/2000/svg" viewBox="0 0 27.00 35.00">
<path d="M 12.0 4.0 L 12.06 4.45 L 12.1 4.9 L 12.11 5.35 L 12.1 5.8 L 12.06 6.24 L 11.99 6.69 L 11.9 7.13 L 11.79 7.57 L 11.65 8.0 L 11.49 8.42 L 11.31 8.83 L 11.1 9.23 L 10.87 9.61 L 10.62 9.99 L 10.35 10.35 L 10.05 10.69 L 9.74 11.02 L 9.42 11.33 L 9.07 11.62 L 8.71 11.89 L 8.34 12.14 L 7.95 12.36 L 7.55 12.57 L 7.14 12.75" fill="none" stroke="#111" stroke-width="1.23" stroke-linecap="round" stroke-linejoin="round"/>
<path d="M 12.0 7.0 L 12.33 7.17 L 12.67 7.33 L 13.0 7.5 L 13.33 7.67 L 13.67 7.83 L 14.0 8.0 L 14.33 8.17 L 14.67 8.33 L 15.0 8.5 L 15.33 8.67 L 15.67 8.83 L 16.0 9.0 L 16.33 9.17 L 16.67 9.33 L 17.0 9.5 L 17.33 9.67 L 17.67 9.83 L 18.0 10.0 L 18.33 10.17 L 18.67 10.33 L 19.0 10.5 L 19.33 10.67 L 19.67 10.83 L 20.0 11.0" fill="none" stroke="#111" stroke-width="1.23" stroke-linecap="round" stroke-linejoin="round"/>
<path d="M 10.0 14.0 L 9.95 14.71 L 9.89 15.42 L 9.83 16.13 L 9.77 16.84 L 9.7 17.55 L 9.63 18.26 L 9.57 18.97 L 9.49 19.68 L 9.42 20.39 L 9.34 21.1 L 9.26 21.81 L 9.18 22.52 L 9.09 23.23 L 9.01 23.94 L 8.92 24.64 L 8.83 25.35 L 8.73 26.06 L 8.63 26.77 L 8.54 27.47 L 8.43 28.18 L 8.33 28.88 L 8.22 29.59 L 8.11 30.29 L 8.0 31.0" fill="none" stroke="#111" stroke-width="1.23" stroke-linecap="round" stroke-linejoin="round"/>
<path d="M 17.0 14.0 L 17.24 14.58 L 17.45 15.17 L 17.62 15.77 L 17.77 16.37 L 17.88 16.99 L 17.96 17.61 L 18.01 18.23 L 18.02 18.86 L 18.01 19.48 L 17.96 20.1 L 17.87 20.72 L 17.76 21.34 L 17.61 21.95 L 17.43 22.54 L 17.22 23.13 L 16.98 23.71 L 16.71 24.27 L 16.42 24.82 L 16.09 25.35 L 15.73 25.87 L 15.35 26.36 L 14.95 26.84 L 14.51 27.29 L 14.06 27.72 L 14.0 28.0 L 13.79 27.96 L 13.58 27.92 L 13.38 27.88 L 13.17 27.83 L 12.96 27.79 L 12.75 27.75 L 12.54 27.71 L 12.33 27.67 L 12.12 27.62 L 11.92 27.58 L 11.71 27.54 L 11.5 27.5 L 11.29 27.46 L 11.08 27.42 L 10.88 27.38 L 10.67 27.33 L 10.46 27.29 L 10.25 27.25 L 10.04 27.21 L 9.83 27.17 L 9.62 27.12 L 9.42 27.08 L 9.21 27.04 L 9.0 27.0" fill="none" stroke="#111" stroke-width="1.23" stroke-linecap="round" stroke-linejoin="round"/>
<path d="M 10.0 16.0 L 9.79 16.21 L 9.58 16.42 L 9.38 16.62 L 9.17 16.83 L 8.96 17.04 L 8.75 17.25 L 8.54 17.46 L 8.33 17.67 L 8.12 17.88 L 7.92 18.08 L 7.71 18.29 L 7.5 18.5 L 7.29 18.71 L 7.08 18.92 L 6.88 19.12 L 6.67 19.33 L 6.46 19.54 L 6.25 19.75 L 6.04 19.96 L 5.83 20.17 L 5.62 20.38 L 5.42 20.58 L 5.21 20.79 L 5.0 21.0" fill="none" stroke="#111" stroke-width="1.23" stroke-linecap="round" stroke-linejoin="round"/>
<path d="M 8.0 22.0 L 7.88 22.17 L 7.75 22.33 L 7.62 22.5 L 7.5 22.67 L 7.38 22.83 L 7.25 23.0 L 7.12 23.17 L 7.0 23.33 L 6.88 23.5 L 6.75 23.67 L 6.62 23.83 L 6.5 24.0 L 6.38 24.17 L 6.25 24.33 L 6.12 24.5 L 6.0 24.67 L 5.88 24.83 L 5.75 25.0 L 5.62 25.17 L 5.5 25.33 L 5.38 25.5 L 5.25 25.67 L 5.12 25.83 L 5.0 26.0" fill="none" stroke="#111" stroke-width="1.23" stroke-linecap="round" stroke-linejoin="round"/>
<path d="M 9.0 27.0 L 8.79 27.17 L 8.58 27.33 L 8.38 27.5 L 8.17 27.67 L 7.96 27.83 L 7.75 28.0 L 7.54 28.17 L 7.33 28.33 L 7.12 28.5 L 6.92 28.67 L 6.71 28.83 L 6.5 29.0 L 6.29 29.17 L 6.08 29.33 L 5.88 29.5 L 5.67 29.67 L 5.46 29.83 L 5.25 30.0 L 5.04 30.17 L 4.83 30.33 L 4.62 30.5 L 4.42 30.67 L 4.21 30.83 L 4.0 31.0" fill="none" stroke="#111" stroke-width="1.23" stroke-linecap="round" stroke-linejoin="round"/>
<path d="M 13.0 28.0 L 13.04 28.12 L 13.08 28.25 L 13.12 28.38 L 13.17 28.5 L 13.21 28.62 L 13.25 28.75 L 13.29 28.88 L 13.33 29.0 L 13.38 29.12 L 13.42 29.25 L 13.46 29.38 L 13.5 29.5 L 13.54 29.62 L 13.58 29.75 L 13.62 29.88 L 13.67 30.0 L 13.71 30.12 L 13.75 30.25 L 13.79 30.38 L 13.83 30.5 L 13.88 30.62 L 13.92 30.75 L 13.96 30.88 L 14.0 31.0" fill="none" stroke="#111" stroke-width="1.23" stroke-linecap="round" stroke-linejoin="round"/>
<path d="M 16.0 25.0 L 16.12 25.21 L 16.25 25.42 L 16.38 25.62 L 16.5 25.83 L 16.62 26.04 L 16.75 26.25 L 16.88 26.46 L 17.0 26.67 L 17.12 26.88 L 17.25 27.08 L 17.38 27.29 L 17.5 27.5 L 17.62 27.71 L 17.75 27.92 L 17.88 28.12 L 18.0 28.33 L 18.12 28.54 L 18.25 28.75 L 18.38 28.96 L 18.5 29.17 L 18.62 29.38 L 18.75 29.58 L 18.88 29.79 L 19.0 30.0" fill="none" stroke="#111" stroke-width="1.23" stroke-linecap="round" stroke-linejoin="round"/>
<path d="M 17.0 23.0 L 17.21 23.08 L 17.42 23.17 L 17.62 23.25 L 17.83 23.33 L 18.04 23.42 L 18.25 23.5 L 18.46 23.58 L 18.67 23.67 L 18.88 23.75 L 19.08 23.83 L 19.29 23.92 L 19.5 24.0 L 19.71 24.08 L 19.92 24.17 L 20.12 24.25 L 20.33 24.33 L 20.54 24.42 L 20.75 24.5 L 20.96 24.58 L 21.17 24.67 L 21.38 24.75 L 21.58 24.83 L 21.79 24.92 L 22.0 25.0" fill="none" stroke="#111" stroke-width="1.23" stroke-linecap="round" stroke-linejoin="round"/>
<path d="M 17.0 17.0 L 17.21 17.17 L 17.42 17.33 L 17.62 17.5 L 17.83 17.67 L 18.04 17.83 L 18.25 18.0 L 18.46 18.17 L 18.67 18.33 L 18.88 18.5 L 19.08 18.67 L 19.29 18.83 L 19.5 19.0 L 19.71 19.17 L 19.92 19.33 L 20.12 19.5 L 20.33 19.67 L 20.54 19.83 L 20.75 20.0 L 20.96 20.17 L 21.17 20.33 L 21.38 20.5 L 21.58 20.67 L 21.79 20.83 L 22.0 21.0" fill="none" stroke="#111" stroke-width="1.23" stroke-linecap="round" stroke-linejoin="round"/>
<path d="M 17.0 15.0 L 17.25 15.08 L 17.5 15.17 L 17.75 15.25 L 18.0 15.33 L 18.25 15.42 L 18.5 15.5 L 18.75 15.58 L 19.0 15.67 L 19.25 15.75 L 19.5 15.83 L 19.75 15.92 L 20.0 16.0 L 20.25 16.08 L 20.5 16.17 L 20.75 16.25 L 21.0 16.33 L 21.25 16.42 L 21.5 16.5 L 21.75 16.58 L 22.0 16.67 L 22.25 16.75 L 22.5 16.83 L 22.75 16.92 L 23.0 17.0" fill="none" stroke="#111" stroke-width="1.23" stroke-linecap="round" stroke-linejoin="round"/>
</svg>
