<?xml version="1.0" encoding="UTF-8"?>
<svg xmlns="http://www.w3.org/2000/svg" viewBox="0 0 23.66 38.39">
<path d="M 5.0 5.39 L 4.77 6.57 L 4.74 7.78 L 4.9 8.97 L 5.25 10.13 L 5.78 11.21 L 6.48 12.19 L 7.33 13.05 L 8.31 13.76 L 9.39 14.3 L 10.54 14.67 L 11.73 14.84 L 12.94 14.81 L 14.13 14.6 L 15.26 14.19 L 16.32 13.61 L 17.27 12.86 L 18.09 11.98 L 18.75 10.97 L 19.24 9.86 L 19.55 8.7 L 19.66 7.5 L 19.58 6.29 L 19.31 5.12 L 18.85 4.0 L 15.0 4.39 L 14.58 4.43 L 14.17 4.47 L 13.75 4.51 L 13.33 4.55 L 12.92 4.59 L 12.5 4.64 L 12.08 4.68 L 11.67 4.72 L 11.25 4.76 L 10.83 4.8 L 10.42 4.84 L 10.0 4.89 L 9.58 4.93 L 9.17 4.97 L 8.75 5.01 L 8.33 5.05 L 7.92 5.09 L 7.5 5.14 L 7.08 5.18 L 6.67 5.22 L 6.25 5.26 L 5.83 5.3 L 5.42 5.34 L 5.0 5.39" fill="none" stroke="#111" stroke-width="1.34" stroke-linecap="round" stroke-linejoin="round"/>
<path d="M 4.0 9.39 L 4.5 9.39 L 5.0 9.39 L 5.5 9.39 L 6.0 9.39 L 6.5 9.39 L 7.0 9.39 L 7.5 9.39 L 8.0 9.39 L 8.5 9.39 L 9.0 9.39 L 9.5 9.39 L 10.0 9.39 L 10.5 9.39 L 11.0 9.39 L 11.5 9.39 L 12.0 9.39 L 12.5 9.39 L 13.0 9.39 L 13.5 9.39 L 14.0 9.39 L 14.5 9.39 L 15.0 9.39 L 15.5 9.39 L 16.0 9.39" fill="none" stroke="#111" stroke-width="1.34" stroke-linecap="round" stroke-linejoin="round"/>
<path d="M 9.0 4.39 L 9.04 4.76 L 9.08 5.14 L 9.12 5.51 L 9.17 5.89 L 9.21 6.26 L 9.25 6.64 L 9.29 7.01 L 9.33 7.39 L 9.38 7.76 L 9.42 8.14 L 9.46 8.51 L 9.5 8.89 L 9.54 9.26 L 9.58 9.64 L 9.62 10.01 L 9.67 10.39 L 9.71 10.76 L 9.75 11.14 L 9.79 11.51 L 9.83 11.89 L 9.88 12.26 L 9.92 12.64 L 9.96 13.01 L 10.0 13.39" fill="none" stroke="#111" stroke-width="1.34" stroke-linecap="round" stroke-linejoin="round"/>
<path d="M 10.0 15.39 L 10.51 15.56 L 11.01 15.79 L 11.47 16.07 L 11.91 16.4 L 12.3 16.78 L 12.65 17.19 L 12.96 17.64 L 13.21 18.13 L 13.41 18.63 L 13.56 19.16 L 13.64 19.69 L 13.67 20.24 L 13.64 20.78 L 13.56 21.32 L 13.41 21.84 L 13.21 22.35 L 12.96 22.83 L 12.65 23.28 L 12.3 23.69 L 11.91 24.07 L 11.47 24.4 L 11.01 24.68 L 10.51 24.91 L 10.0 25.09 L 10.0 25.39 L 10.0 25.76 L 10.0 26.14 L 10.0 26.51 L 10.0 26.89 L 10.0 27.26 L 10.0 27.64 L 10.0 28.01 L 10.0 28.39 L 10.0 28.76 L 10.0 29.14 L 10.0 29.51 L 10.0 29.89 L 10.0 30.26 L 10.0 30.64 L 10.0 31.01 L 10.0 31.39 L 10.0 31.76 L 10.0 32.14 L 10.0 32.51 L 10.0 32.89 L 10.0 33.26 L 10.0 33.64 L 10.0 34.01 L 10.0 34.39" fill="none" stroke="#111" stroke-width="1.34" stroke-linecap="round" stroke-linejoin="round"/>
<path d="M 11.0 16.39 L 10.71 16.76 L 10.42 17.14 L 10.12 17.51 L 9.83 17.89 L 9.54 18.26 L 9.25 18.64 L 8.96 19.01 L 8.67 19.39 L 8.38 19.76 L 8.08 20.14 L 7.79 20.51 L 7.5 20.89 L 7.21 21.26 L 6.92 21.64 L 6.63 22.01 L 6.33 22.39 L 6.04 22.76 L 5.75 23.14 L 5.46 23.51 L 5.17 23.89 L 4.88 24.26 L 4.58 24.64 L 4.29 25.01 L 4.0 25.39" fill="none" stroke="#111" stroke-width="1.34" stroke-linecap="round" stroke-linejoin="round"/>
</svg>
