<?xml version="1.0" encoding="UTF-8"?>
<svg xmlns="http://www.w3.org/2000/svg" viewBox="0 0 28.00 39.11">
<path d="M 5.0 4.28 L 5.23 4.19 L 5.46 4.13 L 5.7 4.07 L 5.94 4.03 L 6.18 4.01 L 6.42 4.0 L 6.66 4.01 L 6.91 4.03 L 7.15 4.07 L 7.38 4.12 L 7.62 4.19 L 7.84 4.27 L 8.07 4.37 L 8.28 4.48 L 8.49 4.61 L 8.69 4.74 L 8.88 4.89 L 9.06 5.06 L 9.23 5.23 L 9.39 5.41 L 9.54 5.61 L 9.67 5.81 L 9.79 6.02 L 9.9 6.24" fill="none" stroke="#111" stroke-width="1.37" stroke-linecap="round" stroke-linejoin="round"/>
<path d="M 8.0 5.28 L 7.83 5.49 L 7.67 5.7 L 7.5 5.9 L 7.33 6.11 L 7.17 6.32 L 7.0 6.53 L 6.83 6.74 L 6.67 6.95 L 6.5 7.15 L 6.33 7.36 L 6.17 7.57 L 6.0 7.78 L 5.83 7.99 L 5.67 8.2 L 5.5 8.4 L 5.33 8.61 L 5.17 8.82 L 5.0 9.03 L 4.83 9.24 L 4.67 9.45 L 4.5 9.65 L 4.33 9.86 L 4.17 10.07 L 4.0 10.28" fill="none" stroke="#111" stroke-width="1.37" stroke-linecap="round" stroke-linejoin="round"/>
<path d="M 4.0 11.28 L 4.13 11.32 L 4.25 11.36 L 4.38 11.4 L 4.5 11.45 L 4.63 11.49 L 4.75 11.53 L 4.88 11.57 L 5.0 11.61 L 5.13 11.65 L 5.25 11.7 L 5.38 11.74 L 5.5 11.78 L 5.63 11.82 L 5.75 11.86 L 5.88 11.9 L 6.0 11.95 L 6.13 11.99 L 6.25 12.03 L 6.38 12.07 L 6.5 12.11 L 6.63 12.15 L 6.75 12.2 L 6.88 12.24 L 7.0 12.28" fill="none" stroke="#111" stroke-width="1.37" stroke-linecap="round" stroke-linejoin="round"/>
<path d="M 7.0 11.28 L 7.17 11.11 L 7.33 10.95 L 7.5 10.78 L 7.67 10.61 L 7.83 10.45 L 8.0 10.28 L 8.17 10.11 L 8.33 9.95 L 8.5 9.78 L 8.67 9.61 L 8.83 9.45 L 9.0 9.28 L 9.17 9.11 L 9.33 8.95 L 9.5 8.78 L 9.67 8.61 L 9.83 8.45 L 10.0 8.28 L 10.17 8.11 L 10.33 7.95 L 10.5 7.78 L 10.67 7.61 L 10.83 7.45 L 11.0 7.28" fill="none" stroke="#111" stroke-width="1.37" stroke-linecap="round" stroke-linejoin="round"/>
<path d="M 7.0 7.28 L 7.04 7.36 L 7.08 7.45 L 7.13 7.53 L 7.17 7.61 L 7.21 7.7 L 7.25 7.78 L 7.29 7.86 L 7.33 7.95 L 7.38 8.03 L 7.42 8.11 L 7.46 8.2 L 7.5 8.28 L 7.54 8.36 L 7.58 8.45 L 7.63 8.53 L 7.67 8.61 L 7.71 8.7 L 7.75 8.78 L 7.79 8.86 L 7.83 8.95 L 7.88 9.03 L 7.92 9.11 L 7.96 9.2 L 8.0 9.28" fill="none" stroke="#111" stroke-width="1.37" stroke-linecap="round" stroke-linejoin="round"/>
<path d="M 9.0 10.28 L 9.21 10.6 L 9.39 10.93 L 9.55 11.27 L 9.69 11.63 L 9.8 11.99 L 9.88 12.36 L 9.94 12.74 L 9.96 13.12 L 9.97 13.5 L 9.94 13.88 L 9.89 14.25 L 9.81 14.63 L 9.71 14.99 L 9.57 15.35 L 9.42 15.69 L 9.24 16.03 L 9.03 16.35 L 8.81 16.65 L 8.56 16.94 L 8.29 17.21 L 8.0 17.46 L 7.7 17.69 L 7.38 17.9 L 7.05 18.08" fill="none" stroke="#111" stroke-width="1.37" stroke-linecap="round" stroke-linejoin="round"/>
<path d="M 10.0 14.28 L 10.25 14.32 L 10.5 14.36 L 10.75 14.4 L 11.0 14.45 L 11.25 14.49 L 11.5 14.53 L 11.75 14.57 L 12.0 14.61 L 12.25 14.65 L 12.5 14.7 L 12.75 14.74 L 13.0 14.78 L 13.25 14.82 L 13.5 14.86 L 13.75 14.9 L 14.0 14.95 L 14.25 14.99 L 14.5 15.03 L 14.75 15.07 L 15.0 15.11 L 15.25 15.15 L 15.5 15.2 L 15.75 15.24 L 16.0 15.28" fill="none" stroke="#111" stroke-width="1.37" stroke-linecap="round" stroke-linejoin="round"/>
<path d="M 10.0 15.28 L 10.21 15.4 L 10.42 15.53 L 10.62 15.65 L 10.83 15.78 L 11.04 15.9 L 11.25 16.03 L 11.46 16.15 L 11.67 16.28 L 11.88 16.4 L 12.08 16.53 L 12.29 16.65 L 12.5 16.78 L 12.71 16.9 L 12.92 17.03 L 13.13 17.15 L 13.33 17.28 L 13.54 17.4 L 13.75 17.53 L 13.96 17.65 L 14.17 17.78 L 14.38 17.9 L 14.58 18.03 L 14.79 18.15 L 15.0 18.28" fill="none" stroke="#111" stroke-width="1.37" stroke-linecap="round" stroke-linejoin="round"/>
<path d="M 18.0 14.28 L 17.79 14.57 L 17.58 14.86 L 17.38 15.15 L 17.17 15.45 L 16.96 15.74 L 16.75 16.03 L 16.54 16.32 L 16.33 16.61 L 16.12 16.9 L 15.92 17.2 L 15.71 17.49 L 15.5 17.78 L 15.29 18.07 L 15.08 18.36 L 14.88 18.65 L 14.67 18.95 L 14.46 19.24 L 14.25 19.53 L 14.04 19.82 L 13.83 20.11 L 13.63 20.4 L 13.42 20.7 L 13.21 20.99 L 13.0 21.28" fill="none" stroke="#111" stroke-width="1.37" stroke-linecap="round" stroke-linejoin="round"/>
<path d="M 19.0 16.28 L 19.21 16.49 L 19.42 16.7 L 19.62 16.9 L 19.83 17.11 L 20.04 17.32 L 20.25 17.53 L 20.46 17.74 L 20.67 17.95 L 20.88 18.15 L 21.08 18.36 L 21.29 18.57 L 21.5 18.78 L 21.71 18.99 L 21.92 19.2 L 22.12 19.4 L 22.33 19.61 L 22.54 19.82 L 22.75 20.03 L 22.96 20.24 L 23.17 20.45 L 23.38 20.65 L 23.58 20.86 L 23.79 21.07 L 24.0 21.28" fill="none" stroke="#111" stroke-width="1.37" stroke-linecap="round" stroke-linejoin="round"/>
<path d="M 21.0 19.28 L 20.58 19.7 L 20.17 20.13 L 19.78 20.58 L 19.4 21.04 L 19.05 21.52 L 18.71 22.01 L 18.39 22.51 L 18.08 23.02 L 17.8 23.54 L 17.54 24.08 L 17.29 24.62 L 17.07 25.17 L 16.87 25.73 L 16.68 26.3 L 16.52 26.87 L 16.38 27.45 L 16.26 28.03 L 16.16 28.62 L 16.09 29.21 L 16.04 29.8 L 16.0 30.39 L 15.99 30.99 L 16.0 31.58 L 16.04 32.18" fill="none" stroke="#111" stroke-width="1.37" stroke-linecap="round" stroke-linejoin="round"/>
<path d="M 17.0 27.28 L 17.34 27.46 L 17.67 27.65 L 17.99 27.87 L 18.29 28.11 L 18.58 28.37 L 18.84 28.65 L 19.1 28.94 L 19.33 29.25 L 19.54 29.57 L 19.73 29.9 L 19.9 30.25 L 20.04 30.6 L 20.17 30.97 L 20.27 31.34 L 20.34 31.72 L 20.4 32.1 L 20.42 32.48 L 20.43 32.87 L 20.41 33.25 L 20.36 33.64 L 20.29 34.01 L 20.2 34.39 L 20.08 34.75 L 19.94 35.11" fill="none" stroke="#111" stroke-width="1.37" stroke-linecap="round" stroke-linejoin="round"/>
<path d="M 20.0 25.28 L 20.08 25.57 L 20.14 25.86 L 20.18 26.16 L 20.21 26.46 L 20.21 26.77 L 20.2 27.07 L 20.16 27.37 L 20.11 27.66 L 20.04 27.96 L 19.95 28.25 L 19.84 28.53 L 19.71 28.8 L 19.57 29.07 L 19.41 29.32 L 19.23 29.57 L 19.04 29.8 L 18.83 30.02 L 18.62 30.23 L 18.38 30.42 L 18.14 30.6 L 17.88 30.76 L 17.62 30.91 L 17.35 31.03 L 17.07 31.15" fill="none" stroke="#111" stroke-width="1.37" stroke-linecap="round" stroke-linejoin="round"/>
</svg>
