<?xml version="1.0" encoding="UTF-8"?>
<svg xmlns="http://www.w3.org/2000/svg" viewBox="0 0 25.24 34.00">
<path d="M 14.24 4.0 L 13.18 4.44 L 12.15 4.95 L 11.15 5.54 L 10.21 6.2 L 9.32 6.93 L 8.48 7.72 L 7.7 8.57 L 6.99 9.48 L 6.35 10.43 L 5.77 11.43 L 5.28 12.47 L 4.86 13.55 L 4.52 14.65 L 4.27 15.77 L 4.09 16.91 L 4.0 18.06 L 4.0 19.21 L 4.08 20.36 L 4.25 21.5 L 4.5 22.63 L 4.83 23.73 L 5.24 24.81 L 5.73 25.85 L 6.29 26.86 L 6.24 27.0 L 6.53 27.04 L 6.83 27.08 L 7.12 27.12 L 7.41 27.17 L 7.7 27.21 L 7.99 27.25 L 8.28 27.29 L 8.58 27.33 L 8.87 27.38 L 9.16 27.42 L 9.45 27.46 L 9.74 27.5 L 10.03 27.54 L 10.33 27.58 L 10.62 27.62 L 10.91 27.67 L 11.2 27.71 L 11.49 27.75 L 11.78 27.79 L 12.08 27.83 L 12.37 27.88 L 12.66 27.92 L 12.95 27.96 L 13.24 28.0 L 13.24 28.0 L 13.24 28.0 L 13.24 28.0 L 13.24 28.0 L 13.24 28.0 L 13.24 28.0 L 13.24 28.0 L 13.24 28.0 L 13.24 28.0 L 13.24 28.0 L 13.24 28.0 L 13.24 28.0 L 13.24 28.0 L 13.24 28.0 L 13.24 28.0 L 13.24 28.0 L 13.24 28.0 L 13.24 28.0 L 13.24 28.0 L 13.24 28.0 L 13.24 28.0 L 13.24 28.0 L 13.24 28.0 L 13.24 28.0 L 13.24 28.0" fill="none" stroke="#111" stroke-width="1.19" stroke-linecap="round" stroke-linejoin="round"/>
<path d="M 14.24 4.0 L 14.37 4.25 L 14.49 4.5 L 14.62 4.75 L 14.74 5.0 L 14.87 5.25 L 14.99 5.5 L 15.12 5.75 L 15.24 6.0 L 15.37 6.25 L 15.49 6.5 L 15.62 6.75 L 15.74 7.0 L 15.87 7.25 L 15.99 7.5 L 16.12 7.75 L 16.24 8.0 L 16.37 8.25 L 16.49 8.5 L 16.62 8.75 L 16.74 9.0 L 16.87 9.25 L 16.99 9.5 L 17.12 9.75 L 17.24 10.0" fill="none" stroke="#111" stroke-width="1.19" stroke-linecap="round" stroke-linejoin="round"/>
<path d="M 15.24 6.0 L 15.08 6.33 L 14.91 6.67 L 14.74 7.0 L 14.58 7.33 L 14.41 7.67 L 14.24 8.0 L 14.08 8.33 L 13.91 8.67 L 13.74 9.0 L 13.58 9.33 L 13.41 9.67 L 13.24 10.0 L 13.08 10.33 L 12.91 10.67 L 12.74 11.0 L 12.58 11.33 L 12.41 11.67 L 12.24 12.0 L 12.08 12.33 L 11.91 12.67 L 11.74 13.0 L 11.58 13.33 L 11.41 13.67 L 11.24 14.0 L 11.24 14.0 L 11.37 14.08 L 11.49 14.17 L 11.62 14.25 L 11.74 14.33 L 11.87 14.42 L 11.99 14.5 L 12.12 14.58 L 12.24 14.67 L 12.37 14.75 L 12.49 14.83 L 12.62 14.92 L 12.74 15.0 L 12.87 15.08 L 12.99 15.17 L 13.12 15.25 L 13.24 15.33 L 13.37 15.42 L 13.49 15.5 L 13.62 15.58 L 13.74 15.67 L 13.87 15.75 L 13.99 15.83 L 14.12 15.92 L 14.24 16.0" fill="none" stroke="#111" stroke-width="1.19" stroke-linecap="round" stroke-linejoin="round"/>
<path d="M 14.24 16.0 L 14.12 16.25 L 13.99 16.5 L 13.87 16.75 L 13.74 17.0 L 13.62 17.25 L 13.49 17.5 L 13.37 17.75 L 13.24 18.0 L 13.12 18.25 L 12.99 18.5 L 12.87 18.75 L 12.74 19.0 L 12.62 19.25 L 12.49 19.5 L 12.37 19.75 L 12.24 20.0 L 12.12 20.25 L 11.99 20.5 L 11.87 20.75 L 11.74 21.0 L 11.62 21.25 L 11.49 21.5 L 11.37 21.75 L 11.24 22.0 L 11.24 22.0 L 11.33 22.08 L 11.41 22.17 L 11.49 22.25 L 11.58 22.33 L 11.66 22.42 L 11.74 22.5 L 11.83 22.58 L 11.91 22.67 L 11.99 22.75 L 12.08 22.83 L 12.16 22.92 L 12.24 23.0 L 12.33 23.08 L 12.41 23.17 L 12.49 23.25 L 12.58 23.33 L 12.66 23.42 L 12.74 23.5 L 12.83 23.58 L 12.91 23.67 L 12.99 23.75 L 13.08 23.83 L 13.16 23.92 L 13.24 24.0" fill="none" stroke="#111" stroke-width="1.19" stroke-linecap="round" stroke-linejoin="round"/>
<path d="M 14.24 22.0 L 14.2 22.25 L 14.16 22.5 L 14.12 22.75 L 14.08 23.0 L 14.03 23.25 L 13.99 23.5 L 13.95 23.75 L 13.91 24.0 L 13.87 24.25 L 13.83 24.5 L 13.78 24.75 L 13.74 25.0 L 13.7 25.25 L 13.66 25.5 L 13.62 25.75 L 13.58 26.0 L 13.53 26.25 L 13.49 26.5 L 13.45 26.75 L 13.41 27.0 L 13.37 27.25 L 13.33 27.5 L 13.28 27.75 L 13.24 28.0" fill="none" stroke="#111" stroke-width="1.19" stroke-linecap="round" stroke-linejoin="round"/>
<path d="M 14.24 13.0 L 14.24 13.25 L 14.24 13.5 L 14.24 13.75 L 14.24 14.0 L 14.24 14.25 L 14.24 14.5 L 14.24 14.75 L 14.24 15.0 L 14.24 15.25 L 14.24 15.5 L 14.24 15.75 L 14.24 16.0 L 14.24 16.25 L 14.24 16.5 L 14.24 16.75 L 14.24 17.0 L 14.24 17.25 L 14.24 17.5 L 14.24 17.75 L 14.24 18.0 L 14.24 18.25 L 14.24 18.5 L 14.24 18.75 L 14.24 19.0" fill="none" stroke="#111" stroke-width="1.19" stroke-linecap="round" stroke-linejoin="round"/>
<path d="M 17.24 12.0 L 17.47 12.36 L 17.67 12.73 L 17.84 13.11 L 17.99 13.5 L 18.11 13.91 L 18.2 14.32 L 18.27 14.73 L 18.31 15.15 L 18.31 15.57 L 18.29 15.99 L 18.25 16.41 L 18.17 16.82 L 18.06 17.23 L 17.93 17.63 L 17.77 18.02 L 17.58 18.4 L 17.37 18.76 L 17.14 19.11 L 16.88 19.44 L 16.6 19.76 L 16.3 20.05 L 15.98 20.32 L 15.64 20.57 L 15.29 20.8" fill="none" stroke="#111" stroke-width="1.19" stroke-linecap="round" stroke-linejoin="round"/>
<path d="M 15.24 15.0 L 15.49 15.62 L 15.74 16.25 L 15.99 16.88 L 16.24 17.5 L 16.49 18.12 L 16.74 18.75 L 16.99 19.38 L 17.24 20.0 L 17.49 20.62 L 17.74 21.25 L 17.99 21.88 L 18.24 22.5 L 18.49 23.12 L 18.74 23.75 L 18.99 24.38 L 19.24 25.0 L 19.49 25.62 L 19.74 26.25 L 19.99 26.88 L 20.24 27.5 L 20.49 28.12 L 20.74 28.75 L 20.99 29.38 L 21.24 30.0" fill="none" stroke="#111" stroke-width="1.19" stroke-linecap="round" stroke-linejoin="round"/>
</svg>
