<?xml version="1.0" encoding="UTF-8"?>
<svg xmlns="http://www.w3.org/2000/svg" viewBox="0 0 28.90 35.74">
<path d="M 8.93 5.0 L 8.41 5.74 L 7.95 6.51 L 7.56 7.32 L 7.23 8.17 L 6.98 9.03 L 6.79 9.91 L 6.68 10.81 L 6.64 11.71 L 6.67 12.61 L 6.78 13.5 L 6.96 14.39 L 7.21 15.25 L 7.53 16.1 L 7.91 16.91 L 8.37 17.69 L 8.88 18.43 L 9.45 19.13 L 10.08 19.77 L 10.76 20.37 L 11.48 20.91 L 12.25 21.38 L 13.05 21.8 L 13.88 22.14 L 14.74 22.42 L 14.93 23.0 L 14.89 23.21 L 14.85 23.42 L 14.8 23.62 L 14.76 23.83 L 14.72 24.04 L 14.68 24.25 L 14.64 24.46 L 14.6 24.67 L 14.55 24.88 L 14.51 25.08 L 14.47 25.29 L 14.43 25.5 L 14.39 25.71 L 14.35 25.92 L 14.3 26.12 L 14.26 26.33 L 14.22 26.54 L 14.18 26.75 L 14.14 26.96 L 14.1 27.17 L 14.05 27.38 L 14.01 27.58 L 13.97 27.79 L 13.93 28.0 L 13.93 28.0 L 13.69 27.33 L 13.37 26.7 L 12.96 26.12 L 12.47 25.61 L 11.91 25.17 L 11.3 24.81 L 10.64 24.54 L 9.96 24.36 L 9.25 24.29 L 8.54 24.31 L 7.85 24.43 L 7.17 24.64 L 6.53 24.95 L 5.94 25.35 L 5.41 25.82 L 4.96 26.36 L 4.58 26.97 L 4.29 27.61 L 4.1 28.29 L 4.0 29.0 L 4.0 29.71 L 4.1 30.41 L 4.3 31.09 L 4.59 31.74" fill="none" stroke="#111" stroke-width="1.25" stroke-linecap="round" stroke-linejoin="round"/>
<path d="M 5.93 11.0 L 5.93 10.88 L 5.93 10.75 L 5.93 10.62 L 5.93 10.5 L 5.93 10.38 L 5.93 10.25 L 5.93 10.12 L 5.93 10.0 L 5.93 9.88 L 5.93 9.75 L 5.93 9.62 L 5.93 9.5 L 5.93 9.38 L 5.93 9.25 L 5.93 9.12 L 5.93 9.0 L 5.93 8.88 L 5.93 8.75 L 5.93 8.62 L 5.93 8.5 L 5.93 8.38 L 5.93 8.25 L 5.93 8.12 L 5.93 8.0 L 5.93 8.0 L 6.25 7.96 L 6.58 7.94 L 6.91 7.96 L 7.23 7.99 L 7.55 8.05 L 7.86 8.14 L 8.17 8.25 L 8.47 8.39 L 8.75 8.55 L 9.02 8.73 L 9.28 8.93 L 9.52 9.15 L 9.74 9.39 L 9.94 9.65 L 10.12 9.92 L 10.28 10.2 L 10.42 10.5 L 10.53 10.81 L 10.62 11.12 L 10.68 11.44 L 10.72 11.77 L 10.73 12.09 L 10.71 12.42 L 10.67 12.74" fill="none" stroke="#111" stroke-width="1.25" stroke-linecap="round" stroke-linejoin="round"/>
<path d="M 4.93 10.0 L 5.26 10.21 L 5.6 10.42 L 5.93 10.62 L 6.26 10.83 L 6.6 11.04 L 6.93 11.25 L 7.26 11.46 L 7.6 11.67 L 7.93 11.88 L 8.26 12.08 L 8.6 12.29 L 8.93 12.5 L 9.26 12.71 L 9.6 12.92 L 9.93 13.12 L 10.26 13.33 L 10.6 13.54 L 10.93 13.75 L 11.26 13.96 L 11.6 14.17 L 11.93 14.38 L 12.26 14.58 L 12.6 14.79 L 12.93 15.0" fill="none" stroke="#111" stroke-width="1.25" stroke-linecap="round" stroke-linejoin="round"/>
<path d="M 17.93 4.0 L 17.42 4.36 L 16.93 4.75 L 16.46 5.18 L 16.03 5.63 L 15.62 6.11 L 15.25 6.61 L 14.9 7.14 L 14.6 7.69 L 14.32 8.25 L 14.09 8.83 L 13.89 9.43 L 13.73 10.04 L 13.61 10.65 L 13.52 11.28 L 13.48 11.9 L 13.48 12.53 L 13.51 13.16 L 13.59 13.78 L 13.71 14.4 L 13.86 15.01 L 14.06 15.6 L 14.29 16.19 L 14.56 16.76 L 14.86 17.3 L 14.93 17.0 L 15.01 17.04 L 15.1 17.08 L 15.18 17.12 L 15.26 17.17 L 15.35 17.21 L 15.43 17.25 L 15.51 17.29 L 15.6 17.33 L 15.68 17.38 L 15.76 17.42 L 15.85 17.46 L 15.93 17.5 L 16.01 17.54 L 16.1 17.58 L 16.18 17.62 L 16.26 17.67 L 16.35 17.71 L 16.43 17.75 L 16.51 17.79 L 16.6 17.83 L 16.68 17.88 L 16.76 17.92 L 16.85 17.96 L 16.93 18.0" fill="none" stroke="#111" stroke-width="1.25" stroke-linecap="round" stroke-linejoin="round"/>
<path d="M 17.93 5.0 L 18.09 5.13 L 18.24 5.28 L 18.38 5.44 L 18.5 5.61 L 18.6 5.79 L 18.68 5.98 L 18.74 6.18 L 18.78 6.39 L 18.8 6.6 L 18.8 6.81 L 18.78 7.01 L 18.74 7.22 L 18.68 7.42 L 18.6 7.61 L 18.5 7.8 L 18.39 7.97 L 18.25 8.13 L 18.11 8.28 L 17.94 8.41 L 17.77 8.52 L 17.58 8.62 L 17.39 8.7 L 17.19 8.76 L 16.98 8.79 L 16.93 9.0 L 17.21 9.04 L 17.49 9.11 L 17.75 9.21 L 18.0 9.35 L 18.23 9.52 L 18.44 9.71 L 18.62 9.93 L 18.77 10.17 L 18.9 10.43 L 18.98 10.7 L 19.04 10.98 L 19.05 11.27 L 19.04 11.55 L 18.98 11.83 L 18.9 12.1 L 18.77 12.36 L 18.62 12.6 L 18.44 12.82 L 18.23 13.02 L 18.0 13.18 L 17.75 13.32 L 17.49 13.43 L 17.21 13.5 L 16.93 13.53 L 16.93 14.0 L 16.93 14.12 L 16.93 14.25 L 16.93 14.38 L 16.93 14.5 L 16.93 14.62 L 16.93 14.75 L 16.93 14.88 L 16.93 15.0 L 16.93 15.12 L 16.93 15.25 L 16.93 15.38 L 16.93 15.5 L 16.93 15.62 L 16.93 15.75 L 16.93 15.88 L 16.93 16.0 L 16.93 16.12 L 16.93 16.25 L 16.93 16.38 L 16.93 16.5 L 16.93 16.62 L 16.93 16.75 L 16.93 16.88 L 16.93 17.0" fill="none" stroke="#111" stroke-width="1.25" stroke-linecap="round" stroke-linejoin="round"/>
<path d="M 18.93 12.0 L 19.29 12.29 L 19.63 12.58 L 19.97 12.88 L 20.31 13.2 L 20.63 13.52 L 20.94 13.85 L 21.25 14.19 L 21.55 14.53 L 21.83 14.89 L 22.11 15.25 L 22.38 15.62 L 22.64 16.0 L 22.89 16.38 L 23.12 16.77 L 23.35 17.16 L 23.57 17.57 L 23.77 17.97 L 23.97 18.39 L 24.15 18.8 L 24.32 19.23 L 24.49 19.65 L 24.64 20.08 L 24.77 20.52 L 24.9 20.96" fill="none" stroke="#111" stroke-width="1.25" stroke-linecap="round" stroke-linejoin="round"/>
<path d="M 21.93 12.0 L 21.99 12.27 L 22.05 12.54 L 22.09 12.82 L 22.11 13.09 L 22.12 13.37 L 22.12 13.65 L 22.11 13.92 L 22.08 14.2 L 22.04 14.47 L 21.98 14.74 L 21.91 15.01 L 21.83 15.28 L 21.74 15.54 L 21.63 15.79 L 21.51 16.04 L 21.38 16.29 L 21.24 16.53 L 21.08 16.76 L 20.92 16.98 L 20.74 17.19 L 20.56 17.4 L 20.36 17.59 L 20.16 17.78 L 19.94 17.96" fill="none" stroke="#111" stroke-width="1.25" stroke-linecap="round" stroke-linejoin="round"/>
</svg>
