<?xml version="1.0" encoding="UTF-8"?>
<svg xmlns="http://www.w3.org/2000/svg" viewBox="0 0 21.87 32.00">
<path d="M 4.88 4.0 L 5.38 4.0 L 5.88 4.0 L 6.38 4.0 L 6.88 4.0 L 7.38 4.0 L 7.88 4.0 L 8.38 4.0 L 8.88 4.0 L 9.38 4.0 L 9.88 4.0 L 10.38 4.0 L 10.88 4.0 L 11.38 4.0 L 11.88 4.0 L 12.38 4.0 L 12.88 4.0 L 13.38 4.0 L 13.88 4.0 L 14.38 4.0 L 14.88 4.0 L 15.38 4.0 L 15.88 4.0 L 16.38 4.0 L 16.88 4.0" fill="none" stroke="#111" stroke-width="1.12" stroke-linecap="round" stroke-linejoin="round"/>
<path d="M 4.88 4.0 L 4.69 4.28 L 4.52 4.57 L 4.37 4.88 L 4.25 5.2 L 4.15 5.52 L 4.07 5.85 L 4.02 6.19 L 4.0 6.53 L 4.0 6.87 L 4.03 7.21 L 4.09 7.54 L 4.17 7.87 L 4.27 8.2 L 4.4 8.51 L 4.56 8.81 L 4.74 9.1 L 4.93 9.38 L 5.15 9.64 L 5.39 9.88 L 5.65 10.1 L 5.92 10.31 L 6.21 10.49 L 6.51 10.65 L 6.82 10.78 L 6.88 11.0 L 6.61 11.58 L 6.36 12.16 L 6.12 12.75 L 5.89 13.35 L 5.68 13.96 L 5.49 14.56 L 5.31 15.18 L 5.15 15.8 L 5.01 16.42 L 4.88 17.04 L 4.78 17.67 L 4.68 18.31 L 4.61 18.94 L 4.55 19.57 L 4.51 20.21 L 4.48 20.85 L 4.47 21.49 L 4.48 22.13 L 4.51 22.76 L 4.55 23.4 L 4.61 24.04 L 4.69 24.67 L 4.78 25.3 L 4.89 25.93" fill="none" stroke="#111" stroke-width="1.12" stroke-linecap="round" stroke-linejoin="round"/>
<path d="M 16.88 4.0 L 16.88 4.21 L 16.88 4.42 L 16.88 4.62 L 16.88 4.83 L 16.88 5.04 L 16.88 5.25 L 16.88 5.46 L 16.88 5.67 L 16.88 5.88 L 16.88 6.08 L 16.88 6.29 L 16.88 6.5 L 16.88 6.71 L 16.88 6.92 L 16.88 7.12 L 16.88 7.33 L 16.88 7.54 L 16.88 7.75 L 16.88 7.96 L 16.88 8.17 L 16.88 8.38 L 16.88 8.58 L 16.88 8.79 L 16.88 9.0" fill="none" stroke="#111" stroke-width="1.12" stroke-linecap="round" stroke-linejoin="round"/>
<path d="M 6.88 6.0 L 7.13 6.0 L 7.38 6.0 L 7.63 6.0 L 7.88 6.0 L 8.13 6.0 L 8.38 6.0 L 8.63 6.0 L 8.88 6.0 L 9.13 6.0 L 9.38 6.0 L 9.63 6.0 L 9.88 6.0 L 10.13 6.0 L 10.38 6.0 L 10.63 6.0 L 10.88 6.0 L 11.13 6.0 L 11.38 6.0 L 11.63 6.0 L 11.88 6.0 L 12.13 6.0 L 12.38 6.0 L 12.63 6.0 L 12.88 6.0" fill="none" stroke="#111" stroke-width="1.12" stroke-linecap="round" stroke-linejoin="round"/>
<path d="M 6.88 8.0 L 7.18 8.0 L 7.47 8.0 L 7.76 8.0 L 8.05 8.0 L 8.34 8.0 L 8.63 8.0 L 8.93 8.0 L 9.22 8.0 L 9.51 8.0 L 9.8 8.0 L 10.09 8.0 L 10.38 8.0 L 10.68 8.0 L 10.97 8.0 L 11.26 8.0 L 11.55 8.0 L 11.84 8.0 L 12.13 8.0 L 12.43 8.0 L 12.72 8.0 L 13.01 8.0 L 13.3 8.0 L 13.59 8.0 L 13.88 8.0" fill="none" stroke="#111" stroke-width="1.12" stroke-linecap="round" stroke-linejoin="round"/>
<path d="M 9.88 9.0 L 9.93 9.79 L 9.97 10.58 L 10.01 11.38 L 10.05 12.17 L 10.09 12.96 L 10.13 13.75 L 10.18 14.54 L 10.22 15.33 L 10.26 16.12 L 10.3 16.92 L 10.34 17.71 L 10.38 18.5 L 10.43 19.29 L 10.47 20.08 L 10.51 20.88 L 10.55 21.67 L 10.59 22.46 L 10.63 23.25 L 10.68 24.04 L 10.72 24.83 L 10.76 25.62 L 10.8 26.42 L 10.84 27.21 L 10.88 28.0" fill="none" stroke="#111" stroke-width="1.12" stroke-linecap="round" stroke-linejoin="round"/>
<path d="M 16.88 9.0 L 16.4 9.69 L 15.96 10.41 L 15.56 11.15 L 15.2 11.92 L 14.89 12.7 L 14.62 13.5 L 14.4 14.31 L 14.23 15.14 L 14.1 15.97 L 14.02 16.81 L 13.99 17.66 L 14.01 18.5 L 14.08 19.34 L 14.2 20.18 L 14.37 21.0 L 14.58 21.82 L 14.84 22.62 L 15.14 23.41 L 15.49 24.18 L 15.88 24.92 L 16.32 25.65 L 16.8 26.34 L 17.31 27.01 L 17.87 27.65" fill="none" stroke="#111" stroke-width="1.12" stroke-linecap="round" stroke-linejoin="round"/>
<path d="M 5.88 5.0 L 5.88 5.08 L 5.88 5.17 L 5.88 5.25 L 5.88 5.33 L 5.88 5.42 L 5.88 5.5 L 5.88 5.58 L 5.88 5.67 L 5.88 5.75 L 5.88 5.83 L 5.88 5.92 L 5.88 6.0 L 5.88 6.08 L 5.88 6.17 L 5.88 6.25 L 5.88 6.33 L 5.88 6.42 L 5.88 6.5 L 5.88 6.58 L 5.88 6.67 L 5.88 6.75 L 5.88 6.83 L 5.88 6.92 L 5.88 7.0" fill="none" stroke="#111" stroke-width="1.12" stroke-linecap="round" stroke-linejoin="round"/>
<path d="M 12.88 10.0 L 12.88 10.08 L 12.88 10.17 L 12.88 10.25 L 12.88 10.33 L 12.88 10.42 L 12.88 10.5 L 12.88 10.58 L 12.88 10.67 L 12.88 10.75 L 12.88 10.83 L 12.88 10.92 L 12.88 11.0 L 12.88 11.08 L 12.88 11.17 L 12.88 11.25 L 12.88 11.33 L 12.88 11.42 L 12.88 11.5 L 12.88 11.58 L 12.88 11.67 L 12.88 11.75 L 12.88 11.83 L 12.88 11.92 L 12.88 12.0" fill="none" stroke="#111" stroke-width="1.12" stroke-linecap="round" stroke-linejoin="round"/>
<path d="M 6.88 17.0 L 6.93 17.25 L 6.97 17.5 L 7.01 17.75 L 7.05 18.0 L 7.09 18.25 L 7.13 18.5 L 7.18 18.75 L 7.22 19.0 L 7.26 19.25 L 7.3 19.5 L 7.34 19.75 L 7.38 20.0 L 7.43 20.25 L 7.47 20.5 L 7.51 20.75 L 7.55 21.0 L 7.59 21.25 L 7.63 21.5 L 7.68 21.75 L 7.72 22.0 L 7.76 22.25 L 7.8 22.5 L 7.84 22.75 L 7.88 23.0" fill="none" stroke="#111" stroke-width="1.12" stroke-linecap="round" stroke-linejoin="round"/>
<path d="M 12.88 16.0 L 12.88 16.21 L 12.88 16.42 L 12.88 16.62 L 12.88 16.83 L 12.88 17.04 L 12.88 17.25 L 12.88 17.46 L 12.88 17.67 L 12.88 17.88 L 12.88 18.08 L 12.88 18.29 L 12.88 18.5 L 12.88 18.71 L 12.88 18.92 L 12.88 19.12 L 12.88 19.33 L 12.88 19.54 L 12.88 19.75 L 12.88 19.96 L 12.88 20.17 L 12.88 20.38 L 12.88 20.58 L 12.88 20.79 L 12.88 21.0" fill="none" stroke="#111" stroke-width="1.12" stroke-linecap="round" stroke-linejoin="round"/>
</svg>
