<?xml version="1.0" encoding="UTF-8"?>
<svg xmlns="http://www.w3.org/2000/svg" viewBox="0 0 23.00 40.00">
<path d="M 8.0 6.0 L 8.46 6.17 L 8.92 6.33 L 9.38 6.5 L 9.83 6.67 L 10.29 6.83 L 10.75 7.0 L 11.21 7.17 L 11.67 7.33 L 12.12 7.5 L 12.58 7.67 L 13.04 7.83 L 13.5 8.0 L 13.96 8.17 L 14.42 8.33 L 14.88 8.5 L 15.33 8.67 L 15.79 8.83 L 16.25 9.0 L 16.71 9.17 L 17.17 9.33 L 17.62 9.5 L 18.08 9.67 L 18.54 9.83 L 19.0 10.0" fill="none" stroke="#111" stroke-width="1.40" stroke-linecap="round" stroke-linejoin="round"/>
<path d="M 12.0 4.0 L 11.89 4.57 L 11.8 5.15 L 11.74 5.74 L 11.7 6.32 L 11.69 6.91 L 11.7 7.49 L 11.74 8.08 L 11.8 8.66 L 11.88 9.24 L 12.0 9.81 L 12.13 10.38 L 12.29 10.95 L 12.48 11.5 L 12.68 12.05 L 12.92 12.59 L 13.17 13.12 L 13.45 13.64 L 13.74 14.14 L 14.06 14.63 L 14.4 15.11 L 14.76 15.57 L 15.14 16.02 L 15.54 16.45 L 15.96 16.86 L 16.0 17.0 L 16.04 17.42 L 16.08 17.83 L 16.12 18.25 L 16.17 18.67 L 16.21 19.08 L 16.25 19.5 L 16.29 19.92 L 16.33 20.33 L 16.38 20.75 L 16.42 21.17 L 16.46 21.58 L 16.5 22.0 L 16.54 22.42 L 16.58 22.83 L 16.62 23.25 L 16.67 23.67 L 16.71 24.08 L 16.75 24.5 L 16.79 24.92 L 16.83 25.33 L 16.88 25.75 L 16.92 26.17 L 16.96 26.58 L 17.0 27.0 L 17.0 27.0 L 16.56 27.11 L 16.12 27.26 L 15.7 27.44 L 15.3 27.65 L 14.91 27.89 L 14.54 28.16 L 14.2 28.46 L 13.88 28.79 L 13.59 29.14 L 13.32 29.51 L 13.09 29.91 L 12.89 30.32 L 12.72 30.74 L 12.58 31.18 L 12.48 31.63 L 12.42 32.08 L 12.39 32.53 L 12.4 32.99 L 12.44 33.45 L 12.52 33.9 L 12.63 34.34 L 12.78 34.77 L 12.97 35.19 L 13.18 35.59 L 13.0 36.0 L 13.17 35.83 L 13.33 35.67 L 13.5 35.5 L 13.67 35.33 L 13.83 35.17 L 14.0 35.0 L 14.17 34.83 L 14.33 34.67 L 14.5 34.5 L 14.67 34.33 L 14.83 34.17 L 15.0 34.0 L 15.17 33.83 L 15.33 33.67 L 15.5 33.5 L 15.67 33.33 L 15.83 33.17 L 16.0 33.0 L 16.17 32.83 L 16.33 32.67 L 16.5 32.5 L 16.67 32.33 L 16.83 32.17 L 17.0 32.0" fill="none" stroke="#111" stroke-width="1.40" stroke-linecap="round" stroke-linejoin="round"/>
<path d="M 4.0 12.0 L 4.42 12.04 L 4.83 12.08 L 5.25 12.12 L 5.67 12.17 L 6.08 12.21 L 6.5 12.25 L 6.92 12.29 L 7.33 12.33 L 7.75 12.38 L 8.17 12.42 L 8.58 12.46 L 9.0 12.5 L 9.42 12.54 L 9.83 12.58 L 10.25 12.62 L 10.67 12.67 L 11.08 12.71 L 11.5 12.75 L 11.92 12.79 L 12.33 12.83 L 12.75 12.88 L 13.17 12.92 L 13.58 12.96 L 14.0 13.0" fill="none" stroke="#111" stroke-width="1.40" stroke-linecap="round" stroke-linejoin="round"/>
<path d="M 11.0 13.0 L 11.0 13.54 L 11.0 14.08 L 11.0 14.62 L 11.0 15.17 L 11.0 15.71 L 11.0 16.25 L 11.0 16.79 L 11.0 17.33 L 11.0 17.88 L 11.0 18.42 L 11.0 18.96 L 11.0 19.5 L 11.0 20.04 L 11.0 20.58 L 11.0 21.12 L 11.0 21.67 L 11.0 22.21 L 11.0 22.75 L 11.0 23.29 L 11.0 23.83 L 11.0 24.38 L 11.0 24.92 L 11.0 25.46 L 11.0 26.0" fill="none" stroke="#111" stroke-width="1.40" stroke-linecap="round" stroke-linejoin="round"/>
<path d="M 11.0 19.0 L 11.21 19.0 L 11.42 19.0 L 11.62 19.0 L 11.83 19.0 L 12.04 19.0 L 12.25 19.0 L 12.46 19.0 L 12.67 19.0 L 12.88 19.0 L 13.08 19.0 L 13.29 19.0 L 13.5 19.0 L 13.71 19.0 L 13.92 19.0 L 14.12 19.0 L 14.33 19.0 L 14.54 19.0 L 14.75 19.0 L 14.96 19.0 L 15.17 19.0 L 15.38 19.0 L 15.58 19.0 L 15.79 19.0 L 16.0 19.0" fill="none" stroke="#111" stroke-width="1.40" stroke-linecap="round" stroke-linejoin="round"/>
<path d="M 11.0 22.0 L 11.21 22.0 L 11.42 22.0 L 11.62 22.0 L 11.83 22.0 L 12.04 22.0 L 12.25 22.0 L 12.46 22.0 L 12.67 22.0 L 12.88 22.0 L 13.08 22.0 L 13.29 22.0 L 13.5 22.0 L 13.71 22.0 L 13.92 22.0 L 14.12 22.0 L 14.33 22.0 L 14.54 22.0 L 14.75 22.0 L 14.96 22.0 L 15.17 22.0 L 15.38 22.0 L 15.58 22.0 L 15.79 22.0 L 16.0 22.0" fill="none" stroke="#111" stroke-width="1.40" stroke-linecap="round" stroke-linejoin="round"/>
<path d="M 13.0 13.0 L 13.04 13.54 L 13.08 14.08 L 13.12 14.62 L 13.17 15.17 L 13.21 15.71 L 13.25 16.25 L 13.29 16.79 L 13.33 17.33 L 13.38 17.88 L 13.42 18.42 L 13.46 18.96 L 13.5 19.5 L 13.54 20.04 L 13.58 20.58 L 13.62 21.12 L 13.67 21.67 L 13.71 22.21 L 13.75 22.75 L 13.79 23.29 L 13.83 23.83 L 13.88 24.38 L 13.92 24.92 L 13.96 25.46 L 14.0 26.0" fill="none" stroke="#111" stroke-width="1.40" stroke-linecap="round" stroke-linejoin="round"/>
<path d="M 4.0 25.0 L 4.54 25.08 L 5.08 25.17 L 5.62 25.25 L 6.17 25.33 L 6.71 25.42 L 7.25 25.5 L 7.79 25.58 L 8.33 25.67 L 8.88 25.75 L 9.42 25.83 L 9.96 25.92 L 10.5 26.0 L 11.04 26.08 L 11.58 26.17 L 12.12 26.25 L 12.67 26.33 L 13.21 26.42 L 13.75 26.5 L 14.29 26.58 L 14.83 26.67 L 15.38 26.75 L 15.92 26.83 L 16.46 26.92 L 17.0 27.0" fill="none" stroke="#111" stroke-width="1.40" stroke-linecap="round" stroke-linejoin="round"/>
</svg>
