<?xml version="1.0" encoding="UTF-8"?>
<svg xmlns="http://www.w3.org/2000/svg" viewBox="0 0 23.90 35.00">
<path d="M 8.9 4.0 L 9.09 4.55 L 9.25 5.12 L 9.38 5.69 L 9.46 6.27 L 9.51 6.85 L 9.52 7.44 L 9.5 8.03 L 9.43 8.61 L 9.33 9.19 L 9.2 9.76 L 9.02 10.32 L 8.82 10.86 L 8.57 11.4 L 8.3 11.92 L 7.99 12.41 L 7.65 12.89 L 7.28 13.35 L 6.88 13.78 L 6.46 14.18 L 6.01 14.56 L 5.54 14.91 L 5.04 15.22 L 4.53 15.51 L 4.0 15.76" fill="none" stroke="#111" stroke-width="1.23" stroke-linecap="round" stroke-linejoin="round"/>
<path d="M 9.9 11.0 L 10.23 11.33 L 10.54 11.69 L 10.82 12.07 L 11.07 12.47 L 11.29 12.89 L 11.47 13.32 L 11.62 13.77 L 11.74 14.23 L 11.82 14.69 L 11.86 15.16 L 11.87 15.63 L 11.84 16.1 L 11.78 16.57 L 11.68 17.03 L 11.54 17.48 L 11.37 17.92 L 11.16 18.35 L 10.93 18.76 L 10.66 19.15 L 10.37 19.51 L 10.04 19.86 L 9.69 20.17 L 9.32 20.46 L 8.93 20.72 L 8.9 21.0 L 8.86 21.42 L 8.82 21.83 L 8.77 22.25 L 8.73 22.67 L 8.69 23.08 L 8.65 23.5 L 8.61 23.92 L 8.57 24.33 L 8.52 24.75 L 8.48 25.17 L 8.44 25.58 L 8.4 26.0 L 8.36 26.42 L 8.32 26.83 L 8.27 27.25 L 8.23 27.67 L 8.19 28.08 L 8.15 28.5 L 8.11 28.92 L 8.07 29.33 L 8.02 29.75 L 7.98 30.17 L 7.94 30.58 L 7.9 31.0" fill="none" stroke="#111" stroke-width="1.23" stroke-linecap="round" stroke-linejoin="round"/>
<path d="M 12.9 19.0 L 13.19 19.0 L 13.48 19.0 L 13.77 19.0 L 14.07 19.0 L 14.36 19.0 L 14.65 19.0 L 14.94 19.0 L 15.23 19.0 L 15.52 19.0 L 15.82 19.0 L 16.11 19.0 L 16.4 19.0 L 16.69 19.0 L 16.98 19.0 L 17.27 19.0 L 17.57 19.0 L 17.86 19.0 L 18.15 19.0 L 18.44 19.0 L 18.73 19.0 L 19.02 19.0 L 19.32 19.0 L 19.61 19.0 L 19.9 19.0" fill="none" stroke="#111" stroke-width="1.23" stroke-linecap="round" stroke-linejoin="round"/>
<path d="M 11.9 21.0 L 12.23 21.04 L 12.57 21.08 L 12.9 21.12 L 13.23 21.17 L 13.57 21.21 L 13.9 21.25 L 14.23 21.29 L 14.57 21.33 L 14.9 21.38 L 15.23 21.42 L 15.57 21.46 L 15.9 21.5 L 16.23 21.54 L 16.57 21.58 L 16.9 21.62 L 17.23 21.67 L 17.57 21.71 L 17.9 21.75 L 18.23 21.79 L 18.57 21.83 L 18.9 21.88 L 19.23 21.92 L 19.57 21.96 L 19.9 22.0" fill="none" stroke="#111" stroke-width="1.23" stroke-linecap="round" stroke-linejoin="round"/>
</svg>
