<?xml version="1.0" encoding="UTF-8"?>
<svg xmlns="http://www.w3.org/2000/svg" viewBox="0 0 21.00 36.00">
<path d="M 4.0 14.0 L 4.54 14.0 L 5.08 14.0 L 5.62 14.0 L 6.17 14.0 L 6.71 14.0 L 7.25 14.0 L 7.79 14.0 L 8.33 14.0 L 8.88 14.0 L 9.42 14.0 L 9.96 14.0 L 10.5 14.0 L 11.04 14.0 L 11.58 14.0 L 12.12 14.0 L 12.67 14.0 L 13.21 14.0 L 13.75 14.0 L 14.29 14.0 L 14.83 14.0 L 15.38 14.0 L 15.92 14.0 L 16.46 14.0 L 17.0 14.0" fill="none" stroke="#111" stroke-width="1.26" stroke-linecap="round" stroke-linejoin="round"/>
<path d="M 8.0 4.0 L 8.29 4.0 L 8.58 4.0 L 8.88 4.0 L 9.17 4.0 L 9.46 4.0 L 9.75 4.0 L 10.04 4.0 L 10.33 4.0 L 10.62 4.0 L 10.92 4.0 L 11.21 4.0 L 11.5 4.0 L 11.79 4.0 L 12.08 4.0 L 12.38 4.0 L 12.67 4.0 L 12.96 4.0 L 13.25 4.0 L 13.54 4.0 L 13.83 4.0 L 14.12 4.0 L 14.42 4.0 L 14.71 4.0 L 15.0 4.0" fill="none" stroke="#111" stroke-width="1.26" stroke-linecap="round" stroke-linejoin="round"/>
<path d="M 8.0 4.0 L 7.96 4.38 L 7.92 4.75 L 7.88 5.12 L 7.83 5.5 L 7.79 5.88 L 7.75 6.25 L 7.71 6.62 L 7.67 7.0 L 7.62 7.38 L 7.58 7.75 L 7.54 8.12 L 7.5 8.5 L 7.46 8.88 L 7.42 9.25 L 7.38 9.62 L 7.33 10.0 L 7.29 10.38 L 7.25 10.75 L 7.21 11.12 L 7.17 11.5 L 7.12 11.88 L 7.08 12.25 L 7.04 12.63 L 7.0 13.0" fill="none" stroke="#111" stroke-width="1.26" stroke-linecap="round" stroke-linejoin="round"/>
<path d="M 11.0 7.0 L 11.12 7.0 L 11.25 7.0 L 11.38 7.0 L 11.5 7.0 L 11.62 7.0 L 11.75 7.0 L 11.88 7.0 L 12.0 7.0 L 12.12 7.0 L 12.25 7.0 L 12.38 7.0 L 12.5 7.0 L 12.62 7.0 L 12.75 7.0 L 12.88 7.0 L 13.0 7.0 L 13.12 7.0 L 13.25 7.0 L 13.38 7.0 L 13.5 7.0 L 13.62 7.0 L 13.75 7.0 L 13.88 7.0 L 14.0 7.0" fill="none" stroke="#111" stroke-width="1.26" stroke-linecap="round" stroke-linejoin="round"/>
<path d="M 11.0 7.0 L 11.0 7.29 L 11.0 7.58 L 11.0 7.88 L 11.0 8.17 L 11.0 8.46 L 11.0 8.75 L 11.0 9.04 L 11.0 9.33 L 11.0 9.62 L 11.0 9.92 L 11.0 10.21 L 11.0 10.5 L 11.0 10.79 L 11.0 11.08 L 11.0 11.38 L 11.0 11.67 L 11.0 11.96 L 11.0 12.25 L 11.0 12.54 L 11.0 12.83 L 11.0 13.12 L 11.0 13.42 L 11.0 13.71 L 11.0 14.0" fill="none" stroke="#111" stroke-width="1.26" stroke-linecap="round" stroke-linejoin="round"/>
<path d="M 11.0 15.0 L 10.91 15.45 L 10.8 15.89 L 10.67 16.33 L 10.52 16.76 L 10.35 17.19 L 10.16 17.6 L 9.96 18.01 L 9.73 18.41 L 9.49 18.8 L 9.23 19.17 L 8.95 19.54 L 8.66 19.89 L 8.35 20.22 L 8.02 20.55 L 7.69 20.85 L 7.33 21.15 L 6.97 21.42 L 6.59 21.68 L 6.21 21.92 L 5.81 22.15 L 5.4 22.35 L 4.98 22.54 L 4.56 22.71 L 4.12 22.86" fill="none" stroke="#111" stroke-width="1.26" stroke-linecap="round" stroke-linejoin="round"/>
<path d="M 11.0 17.0 L 11.28 17.24 L 11.54 17.51 L 11.79 17.79 L 12.01 18.09 L 12.2 18.41 L 12.38 18.74 L 12.53 19.08 L 12.65 19.43 L 12.75 19.79 L 12.81 20.16 L 12.86 20.53 L 12.87 20.9 L 12.86 21.27 L 12.81 21.64 L 12.75 22.01 L 12.65 22.37 L 12.53 22.72 L 12.38 23.06 L 12.2 23.39 L 12.01 23.71 L 11.79 24.01 L 11.54 24.29 L 11.28 24.55 L 11.0 24.8 L 11.0 25.0 L 11.08 25.29 L 11.17 25.58 L 11.25 25.88 L 11.33 26.17 L 11.42 26.46 L 11.5 26.75 L 11.58 27.04 L 11.67 27.33 L 11.75 27.62 L 11.83 27.92 L 11.92 28.21 L 12.0 28.5 L 12.08 28.79 L 12.17 29.08 L 12.25 29.38 L 12.33 29.67 L 12.42 29.96 L 12.5 30.25 L 12.58 30.54 L 12.67 30.83 L 12.75 31.12 L 12.83 31.42 L 12.92 31.71 L 13.0 32.0" fill="none" stroke="#111" stroke-width="1.26" stroke-linecap="round" stroke-linejoin="round"/>
<path d="M 7.0 21.0 L 7.04 21.17 L 7.08 21.33 L 7.12 21.5 L 7.17 21.67 L 7.21 21.83 L 7.25 22.0 L 7.29 22.17 L 7.33 22.33 L 7.38 22.5 L 7.42 22.67 L 7.46 22.83 L 7.5 23.0 L 7.54 23.17 L 7.58 23.33 L 7.62 23.5 L 7.67 23.67 L 7.71 23.83 L 7.75 24.0 L 7.79 24.17 L 7.83 24.33 L 7.88 24.5 L 7.92 24.67 L 7.96 24.83 L 8.0 25.0" fill="none" stroke="#111" stroke-width="1.26" stroke-linecap="round" stroke-linejoin="round"/>
<path d="M 6.0 24.0 L 6.0 24.21 L 6.0 24.42 L 6.0 24.62 L 6.0 24.83 L 6.0 25.04 L 6.0 25.25 L 6.0 25.46 L 6.0 25.67 L 6.0 25.88 L 6.0 26.08 L 6.0 26.29 L 6.0 26.5 L 6.0 26.71 L 6.0 26.92 L 6.0 27.12 L 6.0 27.33 L 6.0 27.54 L 6.0 27.75 L 6.0 27.96 L 6.0 28.17 L 6.0 28.38 L 6.0 28.58 L 6.0 28.79 L 6.0 29.0" fill="none" stroke="#111" stroke-width="1.26" stroke-linecap="round" stroke-linejoin="round"/>
</svg>
