<?xml version="1.0" encoding="UTF-8"?>
<svg xmlns="http://www.w3.org/2000/svg" viewBox="0 0 21.99 32.13">
<path d="M 15.0 4.0 L 14.88 4.21 L 14.75 4.42 L 14.62 4.62 L 14.5 4.83 L 14.38 5.04 L 14.25 5.25 L 14.12 5.46 L 14.0 5.67 L 13.88 5.88 L 13.75 6.08 L 13.62 6.29 L 13.5 6.5 L 13.38 6.71 L 13.25 6.92 L 13.12 7.12 L 13.0 7.33 L 12.88 7.54 L 12.75 7.75 L 12.62 7.96 L 12.5 8.17 L 12.38 8.38 L 12.25 8.58 L 12.13 8.79 L 12.0 9.0 L 12.0 9.0 L 12.76 9.51 L 13.48 10.08 L 14.16 10.69 L 14.79 11.35 L 15.37 12.06 L 15.9 12.81 L 16.38 13.59 L 16.8 14.41 L 17.16 15.25 L 17.45 16.12 L 17.68 17.0 L 17.85 17.9 L 17.96 18.81 L 17.99 19.73 L 17.96 20.64 L 17.87 21.55 L 17.71 22.45 L 17.49 23.34 L 17.2 24.21 L 16.85 25.06 L 16.44 25.88 L 15.97 26.66 L 15.45 27.42 L 14.87 28.13" fill="none" stroke="#111" stroke-width="1.12" stroke-linecap="round" stroke-linejoin="round"/>
<path d="M 17.0 23.0 L 16.75 23.17 L 16.5 23.33 L 16.25 23.5 L 16.0 23.67 L 15.75 23.83 L 15.5 24.0 L 15.25 24.17 L 15.0 24.33 L 14.75 24.5 L 14.5 24.67 L 14.25 24.83 L 14.0 25.0 L 13.75 25.17 L 13.5 25.33 L 13.25 25.5 L 13.0 25.67 L 12.75 25.83 L 12.5 26.0 L 12.25 26.17 L 12.0 26.33 L 11.75 26.5 L 11.5 26.67 L 11.25 26.83 L 11.0 27.0" fill="none" stroke="#111" stroke-width="1.12" stroke-linecap="round" stroke-linejoin="round"/>
<path d="M 10.0 6.0 L 9.88 6.17 L 9.75 6.33 L 9.62 6.5 L 9.5 6.67 L 9.38 6.83 L 9.25 7.0 L 9.12 7.17 L 9.0 7.33 L 8.88 7.5 L 8.75 7.67 L 8.62 7.83 L 8.5 8.0 L 8.38 8.17 L 8.25 8.33 L 8.12 8.5 L 8.0 8.67 L 7.88 8.83 L 7.75 9.0 L 7.62 9.17 L 7.5 9.33 L 7.38 9.5 L 7.25 9.67 L 7.12 9.83 L 7.0 10.0" fill="none" stroke="#111" stroke-width="1.12" stroke-linecap="round" stroke-linejoin="round"/>
<path d="M 9.0 14.0 L 8.79 14.21 L 8.58 14.42 L 8.38 14.62 L 8.17 14.83 L 7.96 15.04 L 7.75 15.25 L 7.54 15.46 L 7.33 15.67 L 7.12 15.88 L 6.92 16.08 L 6.71 16.29 L 6.5 16.5 L 6.29 16.71 L 6.08 16.92 L 5.88 17.12 L 5.67 17.33 L 5.46 17.54 L 5.25 17.75 L 5.04 17.96 L 4.83 18.17 L 4.62 18.38 L 4.42 18.58 L 4.21 18.79 L 4.0 19.0" fill="none" stroke="#111" stroke-width="1.12" stroke-linecap="round" stroke-linejoin="round"/>
<path d="M 11.0 20.0 L 10.79 20.25 L 10.58 20.5 L 10.38 20.75 L 10.17 21.0 L 9.96 21.25 L 9.75 21.5 L 9.54 21.75 L 9.33 22.0 L 9.12 22.25 L 8.92 22.5 L 8.71 22.75 L 8.5 23.0 L 8.29 23.25 L 8.08 23.5 L 7.88 23.75 L 7.67 24.0 L 7.46 24.25 L 7.25 24.5 L 7.04 24.75 L 6.83 25.0 L 6.62 25.25 L 6.42 25.5 L 6.21 25.75 L 6.0 26.0" fill="none" stroke="#111" stroke-width="1.12" stroke-linecap="round" stroke-linejoin="round"/>
</svg>
