<?xml version="1.0" encoding="UTF-8"?>
<svg xmlns="http://www.w3.org/2000/svg" viewBox="0 0 24.00 33.00">
<path d="M 4.0 15.0 L 4.67 15.0 L 5.33 15.0 L 6.0 15.0 L 6.67 15.0 L 7.33 15.0 L 8.0 15.0 L 8.67 15.0 L 9.33 15.0 L 10.0 15.0 L 10.67 15.0 L 11.33 15.0 L 12.0 15.0 L 12.67 15.0 L 13.33 15.0 L 14.0 15.0 L 14.67 15.0 L 15.33 15.0 L 16.0 15.0 L 16.67 15.0 L 17.33 15.0 L 18.0 15.0 L 18.67 15.0 L 19.33 15.0 L 20.0 15.0" fill="none" stroke="#111" stroke-width="1.16" stroke-linecap="round" stroke-linejoin="round"/>
<path d="M 8.0 5.0 L 8.0 5.25 L 8.0 5.5 L 8.0 5.75 L 8.0 6.0 L 8.0 6.25 L 8.0 6.5 L 8.0 6.75 L 8.0 7.0 L 8.0 7.25 L 8.0 7.5 L 8.0 7.75 L 8.0 8.0 L 8.0 8.25 L 8.0 8.5 L 8.0 8.75 L 8.0 9.0 L 8.0 9.25 L 8.0 9.5 L 8.0 9.75 L 8.0 10.0 L 8.0 10.25 L 8.0 10.5 L 8.0 10.75 L 8.0 11.0" fill="none" stroke="#111" stroke-width="1.16" stroke-linecap="round" stroke-linejoin="round"/>
<path d="M 8.0 4.0 L 8.38 4.0 L 8.75 4.0 L 9.12 4.0 L 9.5 4.0 L 9.88 4.0 L 10.25 4.0 L 10.62 4.0 L 11.0 4.0 L 11.38 4.0 L 11.75 4.0 L 12.12 4.0 L 12.5 4.0 L 12.88 4.0 L 13.25 4.0 L 13.62 4.0 L 14.0 4.0 L 14.38 4.0 L 14.75 4.0 L 15.12 4.0 L 15.5 4.0 L 15.88 4.0 L 16.25 4.0 L 16.62 4.0 L 17.0 4.0" fill="none" stroke="#111" stroke-width="1.16" stroke-linecap="round" stroke-linejoin="round"/>
<path d="M 18.0 5.0 L 17.96 5.25 L 17.92 5.5 L 17.88 5.75 L 17.83 6.0 L 17.79 6.25 L 17.75 6.5 L 17.71 6.75 L 17.67 7.0 L 17.62 7.25 L 17.58 7.5 L 17.54 7.75 L 17.5 8.0 L 17.46 8.25 L 17.42 8.5 L 17.38 8.75 L 17.33 9.0 L 17.29 9.25 L 17.25 9.5 L 17.21 9.75 L 17.17 10.0 L 17.12 10.25 L 17.08 10.5 L 17.04 10.75 L 17.0 11.0" fill="none" stroke="#111" stroke-width="1.16" stroke-linecap="round" stroke-linejoin="round"/>
<path d="M 9.0 11.0 L 9.29 11.0 L 9.58 11.0 L 9.88 11.0 L 10.17 11.0 L 10.46 11.0 L 10.75 11.0 L 11.04 11.0 L 11.33 11.0 L 11.62 11.0 L 11.92 11.0 L 12.21 11.0 L 12.5 11.0 L 12.79 11.0 L 13.08 11.0 L 13.38 11.0 L 13.67 11.0 L 13.96 11.0 L 14.25 11.0 L 14.54 11.0 L 14.83 11.0 L 15.12 11.0 L 15.42 11.0 L 15.71 11.0 L 16.0 11.0" fill="none" stroke="#111" stroke-width="1.16" stroke-linecap="round" stroke-linejoin="round"/>
<path d="M 11.0 7.0 L 11.12 7.0 L 11.25 7.0 L 11.38 7.0 L 11.5 7.0 L 11.62 7.0 L 11.75 7.0 L 11.88 7.0 L 12.0 7.0 L 12.12 7.0 L 12.25 7.0 L 12.38 7.0 L 12.5 7.0 L 12.62 7.0 L 12.75 7.0 L 12.88 7.0 L 13.0 7.0 L 13.12 7.0 L 13.25 7.0 L 13.38 7.0 L 13.5 7.0 L 13.62 7.0 L 13.75 7.0 L 13.88 7.0 L 14.0 7.0" fill="none" stroke="#111" stroke-width="1.16" stroke-linecap="round" stroke-linejoin="round"/>
<path d="M 11.0 15.0 L 11.0 15.38 L 11.0 15.75 L 11.0 16.12 L 11.0 16.5 L 11.0 16.88 L 11.0 17.25 L 11.0 17.62 L 11.0 18.0 L 11.0 18.38 L 11.0 18.75 L 11.0 19.12 L 11.0 19.5 L 11.0 19.88 L 11.0 20.25 L 11.0 20.62 L 11.0 21.0 L 11.0 21.38 L 11.0 21.75 L 11.0 22.12 L 11.0 22.5 L 11.0 22.88 L 11.0 23.25 L 11.0 23.62 L 11.0 24.0 L 11.0 24.0 L 11.12 24.21 L 11.25 24.42 L 11.38 24.62 L 11.5 24.83 L 11.62 25.04 L 11.75 25.25 L 11.88 25.46 L 12.0 25.67 L 12.12 25.88 L 12.25 26.08 L 12.38 26.29 L 12.5 26.5 L 12.62 26.71 L 12.75 26.92 L 12.88 27.12 L 13.0 27.33 L 13.12 27.54 L 13.25 27.75 L 13.38 27.96 L 13.5 28.17 L 13.62 28.38 L 13.75 28.58 L 13.88 28.79 L 14.0 29.0" fill="none" stroke="#111" stroke-width="1.16" stroke-linecap="round" stroke-linejoin="round"/>
</svg>
