<?xml version="1.0" encoding="UTF-8"?>
<svg xmlns="http://www.w3.org/2000/svg" viewBox="0 0 18.98 34.90">
<path d="M 6.0 4.0 L 6.94 4.33 L 7.83 4.75 L 8.69 5.25 L 9.48 5.84 L 10.22 6.51 L 10.88 7.24 L 11.47 8.04 L 11.97 8.89 L 12.39 9.79 L 12.71 10.73 L 12.94 11.69 L 13.07 12.68 L 13.1 13.67 L 13.04 14.65 L 12.87 15.63 L 12.61 16.59 L 12.26 17.51 L 11.81 18.4 L 11.28 19.23 L 10.66 20.01 L 9.97 20.72 L 9.22 21.36 L 8.4 21.92 L 7.53 22.4 L 7.0 16.0 L 6.88 16.25 L 6.75 16.5 L 6.62 16.75 L 6.5 17.0 L 6.38 17.25 L 6.25 17.5 L 6.12 17.75 L 6.0 18.0 L 5.88 18.25 L 5.75 18.5 L 5.62 18.75 L 5.5 19.0 L 5.38 19.25 L 5.25 19.5 L 5.12 19.75 L 5.0 20.0 L 4.88 20.25 L 4.75 20.5 L 4.62 20.75 L 4.5 21.0 L 4.38 21.25 L 4.25 21.5 L 4.12 21.75 L 4.0 22.0" fill="none" stroke="#111" stroke-width="1.22" stroke-linecap="round" stroke-linejoin="round"/>
<path d="M 10.0 14.0 L 10.38 14.37 L 10.72 14.78 L 11.02 15.21 L 11.28 15.68 L 11.49 16.16 L 11.66 16.66 L 11.78 17.18 L 11.85 17.71 L 11.87 18.24 L 11.84 18.76 L 11.76 19.29 L 11.64 19.8 L 11.46 20.3 L 11.24 20.78 L 10.97 21.24 L 10.66 21.67 L 10.31 22.07 L 9.93 22.44 L 9.51 22.77 L 9.07 23.05 L 8.6 23.3 L 8.1 23.49 L 7.6 23.65 L 7.08 23.75" fill="none" stroke="#111" stroke-width="1.22" stroke-linecap="round" stroke-linejoin="round"/>
<path d="M 7.0 16.0 L 7.63 16.39 L 8.25 16.8 L 8.84 17.24 L 9.41 17.71 L 9.96 18.21 L 10.49 18.73 L 10.99 19.28 L 11.47 19.85 L 11.92 20.43 L 12.34 21.04 L 12.74 21.67 L 13.1 22.32 L 13.43 22.98 L 13.74 23.66 L 14.01 24.35 L 14.25 25.05 L 14.45 25.76 L 14.62 26.48 L 14.76 27.21 L 14.87 27.94 L 14.94 28.68 L 14.98 29.42 L 14.98 30.16 L 14.95 30.9" fill="none" stroke="#111" stroke-width="1.22" stroke-linecap="round" stroke-linejoin="round"/>
</svg>
