<?xml version="1.0" encoding="UTF-8"?>
<svg xmlns="http://www.w3.org/2000/svg" viewBox="0 0 23.00 32.00">
<path d="M 5.0 10.0 L 5.58 10.0 L 6.17 10.0 L 6.75 10.0 L 7.33 10.0 L 7.92 10.0 L 8.5 10.0 L 9.08 10.0 L 9.67 10.0 L 10.25 10.0 L 10.83 10.0 L 11.42 10.0 L 12.0 10.0 L 12.58 10.0 L 13.17 10.0 L 13.75 10.0 L 14.33 10.0 L 14.92 10.0 L 15.5 10.0 L 16.08 10.0 L 16.67 10.0 L 17.25 10.0 L 17.83 10.0 L 18.42 10.0 L 19.0 10.0" fill="none" stroke="#111" stroke-width="1.12" stroke-linecap="round" stroke-linejoin="round"/>
<path d="M 13.0 4.0 L 13.08 4.96 L 13.17 5.92 L 13.25 6.88 L 13.33 7.83 L 13.42 8.79 L 13.5 9.75 L 13.58 10.71 L 13.67 11.67 L 13.75 12.62 L 13.83 13.58 L 13.92 14.54 L 14.0 15.5 L 14.08 16.46 L 14.17 17.42 L 14.25 18.38 L 14.33 19.33 L 14.42 20.29 L 14.5 21.25 L 14.58 22.21 L 14.67 23.17 L 14.75 24.12 L 14.83 25.08 L 14.92 26.04 L 15.0 27.0" fill="none" stroke="#111" stroke-width="1.12" stroke-linecap="round" stroke-linejoin="round"/>
<path d="M 14.0 7.0 L 14.17 6.92 L 14.33 6.83 L 14.5 6.75 L 14.67 6.67 L 14.83 6.58 L 15.0 6.5 L 15.17 6.42 L 15.33 6.33 L 15.5 6.25 L 15.67 6.17 L 15.83 6.08 L 16.0 6.0 L 16.17 5.92 L 16.33 5.83 L 16.5 5.75 L 16.67 5.67 L 16.83 5.58 L 17.0 5.5 L 17.17 5.42 L 17.33 5.33 L 17.5 5.25 L 17.67 5.17 L 17.83 5.08 L 18.0 5.0" fill="none" stroke="#111" stroke-width="1.12" stroke-linecap="round" stroke-linejoin="round"/>
<path d="M 12.0 28.0 L 12.29 27.92 L 12.58 27.83 L 12.88 27.75 L 13.17 27.67 L 13.46 27.58 L 13.75 27.5 L 14.04 27.42 L 14.33 27.33 L 14.62 27.25 L 14.92 27.17 L 15.21 27.08 L 15.5 27.0 L 15.79 26.92 L 16.08 26.83 L 16.38 26.75 L 16.67 26.67 L 16.96 26.58 L 17.25 26.5 L 17.54 26.42 L 17.83 26.33 L 18.12 26.25 L 18.42 26.17 L 18.71 26.08 L 19.0 26.0" fill="none" stroke="#111" stroke-width="1.12" stroke-linecap="round" stroke-linejoin="round"/>
<path d="M 4.0 17.0 L 4.33 17.0 L 4.67 17.0 L 5.0 17.0 L 5.33 17.0 L 5.67 17.0 L 6.0 17.0 L 6.33 17.0 L 6.67 17.0 L 7.0 17.0 L 7.33 17.0 L 7.67 17.0 L 8.0 17.0 L 8.33 17.0 L 8.67 17.0 L 9.0 17.0 L 9.33 17.0 L 9.67 17.0 L 10.0 17.0 L 10.33 17.0 L 10.67 17.0 L 11.0 17.0 L 11.33 17.0 L 11.67 17.0 L 12.0 17.0" fill="none" stroke="#111" stroke-width="1.12" stroke-linecap="round" stroke-linejoin="round"/>
<path d="M 8.0 13.0 L 8.0 13.5 L 8.0 14.0 L 8.0 14.5 L 8.0 15.0 L 8.0 15.5 L 8.0 16.0 L 8.0 16.5 L 8.0 17.0 L 8.0 17.5 L 8.0 18.0 L 8.0 18.5 L 8.0 19.0 L 8.0 19.5 L 8.0 20.0 L 8.0 20.5 L 8.0 21.0 L 8.0 21.5 L 8.0 22.0 L 8.0 22.5 L 8.0 23.0 L 8.0 23.5 L 8.0 24.0 L 8.0 24.5 L 8.0 25.0" fill="none" stroke="#111" stroke-width="1.12" stroke-linecap="round" stroke-linejoin="round"/>
</svg>
