<?xml version="1.0" encoding="UTF-8"?>
<svg xmlns="http://www.w3.org/2000/svg" viewBox="0 0 28.00 33.96">
<path d="M 7.0 7.0 L 7.25 7.17 L 7.5 7.33 L 7.75 7.5 L 8.0 7.67 L 8.25 7.83 L 8.5 8.0 L 8.75 8.17 L 9.0 8.33 L 9.25 8.5 L 9.5 8.67 L 9.75 8.83 L 10.0 9.0 L 10.25 9.17 L 10.5 9.33 L 10.75 9.5 L 11.0 9.67 L 11.25 9.83 L 11.5 10.0 L 11.75 10.17 L 12.0 10.33 L 12.25 10.5 L 12.5 10.67 L 12.75 10.83 L 13.0 11.0" fill="none" stroke="#111" stroke-width="1.19" stroke-linecap="round" stroke-linejoin="round"/>
<path d="M 10.0 5.0 L 10.17 6.03 L 10.33 7.06 L 10.47 8.1 L 10.6 9.14 L 10.71 10.18 L 10.81 11.22 L 10.89 12.26 L 10.96 13.3 L 11.01 14.35 L 11.05 15.39 L 11.07 16.44 L 11.08 17.48 L 11.07 18.53 L 11.05 19.57 L 11.01 20.62 L 10.96 21.66 L 10.89 22.7 L 10.81 23.74 L 10.71 24.79 L 10.6 25.82 L 10.47 26.86 L 10.33 27.9 L 10.17 28.93 L 10.0 29.96" fill="none" stroke="#111" stroke-width="1.19" stroke-linecap="round" stroke-linejoin="round"/>
<path d="M 10.0 11.0 L 9.79 11.21 L 9.58 11.42 L 9.38 11.62 L 9.17 11.83 L 8.96 12.04 L 8.75 12.25 L 8.54 12.46 L 8.33 12.67 L 8.12 12.88 L 7.92 13.08 L 7.71 13.29 L 7.5 13.5 L 7.29 13.71 L 7.08 13.92 L 6.88 14.12 L 6.67 14.33 L 6.46 14.54 L 6.25 14.75 L 6.04 14.96 L 5.83 15.17 L 5.62 15.38 L 5.42 15.58 L 5.21 15.79 L 5.0 16.0" fill="none" stroke="#111" stroke-width="1.19" stroke-linecap="round" stroke-linejoin="round"/>
<path d="M 7.0 15.0 L 7.08 15.33 L 7.17 15.67 L 7.25 16.0 L 7.33 16.33 L 7.42 16.67 L 7.5 17.0 L 7.58 17.33 L 7.67 17.67 L 7.75 18.0 L 7.83 18.33 L 7.92 18.67 L 8.0 19.0 L 8.08 19.33 L 8.17 19.67 L 8.25 20.0 L 8.33 20.33 L 8.42 20.67 L 8.5 21.0 L 8.58 21.33 L 8.67 21.67 L 8.75 22.0 L 8.83 22.33 L 8.92 22.67 L 9.0 23.0" fill="none" stroke="#111" stroke-width="1.19" stroke-linecap="round" stroke-linejoin="round"/>
<path d="M 4.0 26.0 L 4.21 25.92 L 4.42 25.83 L 4.62 25.75 L 4.83 25.67 L 5.04 25.58 L 5.25 25.5 L 5.46 25.42 L 5.67 25.33 L 5.88 25.25 L 6.08 25.17 L 6.29 25.08 L 6.5 25.0 L 6.71 24.92 L 6.92 24.83 L 7.12 24.75 L 7.33 24.67 L 7.54 24.58 L 7.75 24.5 L 7.96 24.42 L 8.17 24.33 L 8.38 24.25 L 8.58 24.17 L 8.79 24.08 L 9.0 24.0" fill="none" stroke="#111" stroke-width="1.19" stroke-linecap="round" stroke-linejoin="round"/>
<path d="M 20.0 4.0 L 20.0 4.61 L 19.98 5.22 L 19.93 5.83 L 19.86 6.44 L 19.77 7.05 L 19.66 7.65 L 19.52 8.24 L 19.36 8.83 L 19.18 9.42 L 18.97 10.0 L 18.75 10.56 L 18.5 11.13 L 18.24 11.68 L 17.95 12.22 L 17.64 12.74 L 17.32 13.26 L 16.97 13.77 L 16.6 14.26 L 16.22 14.73 L 15.82 15.2 L 15.4 15.64 L 14.97 16.07 L 14.52 16.49 L 14.05 16.89" fill="none" stroke="#111" stroke-width="1.19" stroke-linecap="round" stroke-linejoin="round"/>
<path d="M 16.0 7.0 L 16.33 7.25 L 16.67 7.5 L 17.0 7.75 L 17.33 8.0 L 17.67 8.25 L 18.0 8.5 L 18.33 8.75 L 18.67 9.0 L 19.0 9.25 L 19.33 9.5 L 19.67 9.75 L 20.0 10.0 L 20.33 10.25 L 20.67 10.5 L 21.0 10.75 L 21.33 11.0 L 21.67 11.25 L 22.0 11.5 L 22.33 11.75 L 22.67 12.0 L 23.0 12.25 L 23.33 12.5 L 23.67 12.75 L 24.0 13.0" fill="none" stroke="#111" stroke-width="1.19" stroke-linecap="round" stroke-linejoin="round"/>
<path d="M 17.0 15.0 L 16.96 15.25 L 16.92 15.5 L 16.88 15.75 L 16.83 16.0 L 16.79 16.25 L 16.75 16.5 L 16.71 16.75 L 16.67 17.0 L 16.62 17.25 L 16.58 17.5 L 16.54 17.75 L 16.5 18.0 L 16.46 18.25 L 16.42 18.5 L 16.38 18.75 L 16.33 19.0 L 16.29 19.25 L 16.25 19.5 L 16.21 19.75 L 16.17 20.0 L 16.12 20.25 L 16.08 20.5 L 16.04 20.75 L 16.0 21.0" fill="none" stroke="#111" stroke-width="1.19" stroke-linecap="round" stroke-linejoin="round"/>
<path d="M 20.0 10.0 L 19.96 10.75 L 19.92 11.5 L 19.88 12.25 L 19.83 13.0 L 19.79 13.75 L 19.75 14.5 L 19.71 15.25 L 19.67 16.0 L 19.62 16.75 L 19.58 17.5 L 19.54 18.25 L 19.5 19.0 L 19.46 19.75 L 19.42 20.5 L 19.38 21.25 L 19.33 22.0 L 19.29 22.75 L 19.25 23.5 L 19.21 24.25 L 19.17 25.0 L 19.12 25.75 L 19.08 26.5 L 19.04 27.25 L 19.0 28.0" fill="none" stroke="#111" stroke-width="1.19" stroke-linecap="round" stroke-linejoin="round"/>
<path d="M 15.0 22.0 L 14.96 22.0 L 14.92 22.0 L 14.88 22.0 L 14.83 22.0 L 14.79 22.0 L 14.75 22.0 L 14.71 22.0 L 14.67 22.0 L 14.62 22.0 L 14.58 22.0 L 14.54 22.0 L 14.5 22.0 L 14.46 22.0 L 14.42 22.0 L 14.38 22.0 L 14.33 22.0 L 14.29 22.0 L 14.25 22.0 L 14.21 22.0 L 14.17 22.0 L 14.12 22.0 L 14.08 22.0 L 14.04 22.0 L 14.0 22.0 L 14.0 22.0 L 14.21 22.04 L 14.42 22.08 L 14.62 22.12 L 14.83 22.17 L 15.04 22.21 L 15.25 22.25 L 15.46 22.29 L 15.67 22.33 L 15.88 22.38 L 16.08 22.42 L 16.29 22.46 L 16.5 22.5 L 16.71 22.54 L 16.92 22.58 L 17.12 22.62 L 17.33 22.67 L 17.54 22.71 L 17.75 22.75 L 17.96 22.79 L 18.17 22.83 L 18.38 22.88 L 18.58 22.92 L 18.79 22.96 L 19.0 23.0" fill="none" stroke="#111" stroke-width="1.19" stroke-linecap="round" stroke-linejoin="round"/>
</svg>
