<?xml version="1.0" encoding="UTF-8"?>
<svg xmlns="http://www.w3.org/2000/svg" viewBox="0 0 22.33 35.00">
<path d="M 13.07 4.0 L 13.07 4.67 L 13.07 5.33 L 13.07 6.0 L 13.07 6.67 L 13.07 7.33 L 13.07 8.0 L 13.07 8.67 L 13.07 9.33 L 13.07 10.0 L 13.07 10.67 L 13.07 11.33 L 13.07 12.0 L 13.07 12.67 L 13.07 13.33 L 13.07 14.0 L 13.07 14.67 L 13.07 15.33 L 13.07 16.0 L 13.07 16.67 L 13.07 17.33 L 13.07 18.0 L 13.07 18.67 L 13.07 19.33 L 13.07 20.0 L 13.07 20.0 L 13.42 19.84 L 13.78 19.73 L 14.15 19.65 L 14.52 19.6 L 14.9 19.6 L 15.28 19.64 L 15.65 19.72 L 16.01 19.84 L 16.36 19.99 L 16.69 20.18 L 16.99 20.4 L 17.27 20.65 L 17.53 20.94 L 17.75 21.24 L 17.94 21.57 L 18.09 21.92 L 18.21 22.28 L 18.29 22.65 L 18.33 23.03 L 18.32 23.41 L 18.28 23.78 L 18.2 24.15 L 18.08 24.51 L 17.93 24.86 L 18.07 25.0 L 17.82 24.88 L 17.57 24.75 L 17.32 24.62 L 17.07 24.5 L 16.82 24.38 L 16.57 24.25 L 16.32 24.12 L 16.07 24.0 L 15.82 23.88 L 15.57 23.75 L 15.32 23.62 L 15.07 23.5 L 14.82 23.38 L 14.57 23.25 L 14.32 23.12 L 14.07 23.0 L 13.82 22.88 L 13.57 22.75 L 13.32 22.62 L 13.07 22.5 L 12.82 22.38 L 12.57 22.25 L 12.32 22.12 L 12.07 22.0 L 12.07 22.0 L 12.2 22.38 L 12.32 22.75 L 12.45 23.12 L 12.57 23.5 L 12.7 23.88 L 12.82 24.25 L 12.95 24.62 L 13.07 25.0 L 13.2 25.38 L 13.32 25.75 L 13.45 26.12 L 13.57 26.5 L 13.7 26.88 L 13.82 27.25 L 13.95 27.62 L 14.07 28.0 L 14.2 28.38 L 14.32 28.75 L 14.45 29.12 L 14.57 29.5 L 14.7 29.88 L 14.82 30.25 L 14.95 30.62 L 15.07 31.0" fill="none" stroke="#111" stroke-width="1.23" stroke-linecap="round" stroke-linejoin="round"/>
<path d="M 10.07 9.0 L 10.23 8.62 L 10.44 8.25 L 10.68 7.92 L 10.96 7.61 L 11.28 7.34 L 11.62 7.1 L 11.99 6.91 L 12.37 6.76 L 12.78 6.65 L 13.19 6.59 L 13.6 6.58 L 14.02 6.61 L 14.43 6.7 L 14.82 6.82 L 15.2 7.0 L 15.56 7.21 L 15.89 7.46 L 16.19 7.75 L 16.45 8.08 L 16.68 8.43 L 16.86 8.8 L 17.0 9.19 L 17.09 9.6 L 17.14 10.01 L 17.07 10.0 L 17.11 10.21 L 17.15 10.42 L 17.2 10.62 L 17.24 10.83 L 17.28 11.04 L 17.32 11.25 L 17.36 11.46 L 17.4 11.67 L 17.45 11.88 L 17.49 12.08 L 17.53 12.29 L 17.57 12.5 L 17.61 12.71 L 17.65 12.92 L 17.7 13.12 L 17.74 13.33 L 17.78 13.54 L 17.82 13.75 L 17.86 13.96 L 17.9 14.17 L 17.95 14.38 L 17.99 14.58 L 18.03 14.79 L 18.07 15.0" fill="none" stroke="#111" stroke-width="1.23" stroke-linecap="round" stroke-linejoin="round"/>
<path d="M 10.07 9.0 L 9.67 9.45 L 9.36 9.97 L 9.16 10.53 L 9.06 11.13 L 9.09 11.73 L 9.22 12.32 L 9.47 12.87 L 9.81 13.36 L 10.25 13.78 L 10.75 14.11 L 11.31 14.34 L 11.9 14.45 L 12.5 14.46 L 13.09 14.34 L 13.65 14.12 L 14.16 13.8 L 14.6 13.38 L 14.95 12.89 L 15.2 12.34 L 15.34 11.76 L 15.36 11.15 L 15.27 10.56 L 15.07 9.99 L 14.77 9.47" fill="none" stroke="#111" stroke-width="1.23" stroke-linecap="round" stroke-linejoin="round"/>
<path d="M 5.07 21.0 L 4.59 21.67 L 4.24 22.42 L 4.04 23.22 L 4.0 24.04 L 4.11 24.86 L 4.38 25.64 L 4.79 26.36 L 5.33 26.98 L 5.98 27.49 L 6.71 27.87 L 7.5 28.11 L 8.33 28.19 L 9.15 28.11 L 9.94 27.87 L 10.67 27.49 L 11.32 26.98 L 11.86 26.36 L 12.27 25.64 L 12.54 24.86 L 12.65 24.04 L 12.61 23.22 L 12.41 22.42 L 12.06 21.67 L 11.58 21.0" fill="none" stroke="#111" stroke-width="1.23" stroke-linecap="round" stroke-linejoin="round"/>
<path d="M 5.07 23.0 L 5.28 23.0 L 5.49 23.0 L 5.7 23.0 L 5.9 23.0 L 6.11 23.0 L 6.32 23.0 L 6.53 23.0 L 6.74 23.0 L 6.95 23.0 L 7.15 23.0 L 7.36 23.0 L 7.57 23.0 L 7.78 23.0 L 7.99 23.0 L 8.2 23.0 L 8.4 23.0 L 8.61 23.0 L 8.82 23.0 L 9.03 23.0 L 9.24 23.0 L 9.45 23.0 L 9.65 23.0 L 9.86 23.0 L 10.07 23.0" fill="none" stroke="#111" stroke-width="1.23" stroke-linecap="round" stroke-linejoin="round"/>
</svg>
