<?xml version="1.0" encoding="UTF-8"?>
<svg xmlns="http://www.w3.org/2000/svg" viewBox="0 0 25.98 38.66">
<path d="M 13.32 14.0 L 13.57 13.92 L 13.82 13.83 L 14.07 13.75 L 14.32 13.67 L 14.57 13.58 L 14.82 13.5 L 15.07 13.42 L 15.32 13.33 L 15.57 13.25 L 15.82 13.17 L 16.07 13.08 L 16.32 13.0 L 16.57 12.92 L 16.82 12.83 L 17.07 12.75 L 17.32 12.67 L 17.57 12.58 L 17.82 12.5 L 18.07 12.42 L 18.32 12.33 L 18.57 12.25 L 18.82 12.17 L 19.07 12.08 L 19.32 12.0" fill="none" stroke="#111" stroke-width="1.35" stroke-linecap="round" stroke-linejoin="round"/>
<path d="M 16.32 4.0 L 16.32 4.42 L 16.32 4.83 L 16.32 5.25 L 16.32 5.67 L 16.32 6.08 L 16.32 6.5 L 16.32 6.92 L 16.32 7.33 L 16.32 7.75 L 16.32 8.17 L 16.32 8.58 L 16.32 9.0 L 16.32 9.42 L 16.32 9.83 L 16.32 10.25 L 16.32 10.67 L 16.32 11.08 L 16.32 11.5 L 16.32 11.92 L 16.32 12.33 L 16.32 12.75 L 16.32 13.17 L 16.32 13.58 L 16.32 14.0 L 16.32 14.0 L 16.45 14.46 L 16.57 14.92 L 16.7 15.38 L 16.82 15.83 L 16.95 16.29 L 17.07 16.75 L 17.2 17.21 L 17.32 17.67 L 17.45 18.12 L 17.57 18.58 L 17.7 19.04 L 17.82 19.5 L 17.95 19.96 L 18.07 20.42 L 18.2 20.88 L 18.32 21.33 L 18.45 21.79 L 18.57 22.25 L 18.7 22.71 L 18.82 23.17 L 18.95 23.62 L 19.07 24.08 L 19.2 24.54 L 19.32 25.0 L 19.32 25.0 L 18.47 24.89 L 17.62 24.94 L 16.78 25.13 L 16.0 25.47 L 15.28 25.93 L 14.66 26.52 L 14.14 27.2 L 13.76 27.97 L 13.51 28.79 L 13.41 29.64 L 13.46 30.49 L 13.66 31.32 L 14.0 32.11 L 14.47 32.82 L 15.06 33.44 L 15.75 33.95 L 16.52 34.33 L 17.34 34.57 L 18.19 34.66 L 19.04 34.61 L 19.87 34.4 L 20.66 34.06 L 21.37 33.58 L 21.98 32.99 L 20.32 28.0 L 20.28 28.25 L 20.24 28.5 L 20.2 28.75 L 20.15 29.0 L 20.11 29.25 L 20.07 29.5 L 20.03 29.75 L 19.99 30.0 L 19.95 30.25 L 19.9 30.5 L 19.86 30.75 L 19.82 31.0 L 19.78 31.25 L 19.74 31.5 L 19.7 31.75 L 19.65 32.0 L 19.61 32.25 L 19.57 32.5 L 19.53 32.75 L 19.49 33.0 L 19.45 33.25 L 19.4 33.5 L 19.36 33.75 L 19.32 34.0" fill="none" stroke="#111" stroke-width="1.35" stroke-linecap="round" stroke-linejoin="round"/>
<path d="M 14.32 17.0 L 13.91 16.47 L 13.43 15.99 L 12.9 15.57 L 12.33 15.21 L 11.71 14.93 L 11.07 14.72 L 10.41 14.6 L 9.73 14.55 L 9.06 14.58 L 8.39 14.69 L 7.75 14.88 L 7.13 15.14 L 6.54 15.48 L 6.0 15.88 L 5.51 16.35 L 5.08 16.87 L 4.72 17.44 L 4.42 18.05 L 4.2 18.69 L 4.06 19.35 L 4.0 20.02 L 4.02 20.69 L 4.12 21.36 L 4.29 22.01 L 10.32 19.0 L 10.45 18.92 L 10.57 18.83 L 10.7 18.75 L 10.82 18.67 L 10.95 18.58 L 11.07 18.5 L 11.2 18.42 L 11.32 18.33 L 11.45 18.25 L 11.57 18.17 L 11.7 18.08 L 11.82 18.0 L 11.95 17.92 L 12.07 17.83 L 12.2 17.75 L 12.32 17.67 L 12.45 17.58 L 12.57 17.5 L 12.7 17.42 L 12.82 17.33 L 12.95 17.25 L 13.07 17.17 L 13.2 17.08 L 13.32 17.0" fill="none" stroke="#111" stroke-width="1.35" stroke-linecap="round" stroke-linejoin="round"/>
<path d="M 10.32 19.0 L 10.28 19.29 L 10.24 19.58 L 10.2 19.88 L 10.15 20.17 L 10.11 20.46 L 10.07 20.75 L 10.03 21.04 L 9.99 21.33 L 9.95 21.62 L 9.9 21.92 L 9.86 22.21 L 9.82 22.5 L 9.78 22.79 L 9.74 23.08 L 9.7 23.38 L 9.65 23.67 L 9.61 23.96 L 9.57 24.25 L 9.53 24.54 L 9.49 24.83 L 9.45 25.12 L 9.4 25.42 L 9.36 25.71 L 9.32 26.0" fill="none" stroke="#111" stroke-width="1.35" stroke-linecap="round" stroke-linejoin="round"/>
<path d="M 6.32 21.0 L 6.61 20.96 L 6.9 20.92 L 7.2 20.88 L 7.49 20.83 L 7.78 20.79 L 8.07 20.75 L 8.36 20.71 L 8.65 20.67 L 8.95 20.62 L 9.24 20.58 L 9.53 20.54 L 9.82 20.5 L 10.11 20.46 L 10.4 20.42 L 10.7 20.38 L 10.99 20.33 L 11.28 20.29 L 11.57 20.25 L 11.86 20.21 L 12.15 20.17 L 12.45 20.12 L 12.74 20.08 L 13.03 20.04 L 13.32 20.0" fill="none" stroke="#111" stroke-width="1.35" stroke-linecap="round" stroke-linejoin="round"/>
<path d="M 5.32 21.0 L 5.24 20.13 L 5.24 19.26 L 5.3 18.39 L 5.43 17.53 L 5.63 16.68 L 5.89 15.85 L 6.22 15.04 L 6.61 14.26 L 7.07 13.51 L 7.58 12.81 L 8.15 12.14 L 8.76 11.53 L 9.43 10.96 L 10.13 10.45 L 10.88 10.0 L 11.66 9.6 L 12.46 9.27 L 13.3 9.01 L 14.15 8.81 L 15.01 8.68 L 15.88 8.62 L 16.75 8.63 L 17.62 8.71 L 18.48 8.85 L 18.32 9.0 L 18.85 9.48 L 19.32 10.0 L 19.75 10.56 L 20.12 11.17 L 20.43 11.8 L 20.68 12.46 L 20.87 13.14 L 21.0 13.84 L 21.06 14.55 L 21.05 15.25 L 20.98 15.96 L 20.84 16.65 L 20.63 17.33 L 20.37 17.99 L 20.04 18.61 L 19.66 19.21 L 19.22 19.76 L 18.73 20.28 L 18.2 20.74 L 17.62 21.15 L 17.01 21.51 L 16.37 21.81 L 15.7 22.05 L 15.02 22.22 L 15.32 21.0 L 15.26 21.31 L 15.17 21.61 L 15.06 21.91 L 14.92 22.2 L 14.77 22.47 L 14.59 22.74 L 14.39 22.98 L 14.17 23.21 L 13.94 23.43 L 13.69 23.62 L 13.42 23.8 L 13.15 23.95 L 12.86 24.08 L 12.56 24.19 L 12.25 24.27 L 11.94 24.33 L 11.63 24.36 L 11.31 24.37 L 11.0 24.36 L 10.68 24.32 L 10.37 24.25 L 10.07 24.17 L 9.77 24.05 L 9.48 23.92 L 9.32 24.0 L 9.15 24.04 L 8.99 24.08 L 8.82 24.12 L 8.65 24.17 L 8.49 24.21 L 8.32 24.25 L 8.15 24.29 L 7.99 24.33 L 7.82 24.38 L 7.65 24.42 L 7.49 24.46 L 7.32 24.5 L 7.15 24.54 L 6.99 24.58 L 6.82 24.62 L 6.65 24.67 L 6.49 24.71 L 6.32 24.75 L 6.15 24.79 L 5.99 24.83 L 5.82 24.88 L 5.65 24.92 L 5.49 24.96 L 5.32 25.0" fill="none" stroke="#111" stroke-width="1.35" stroke-linecap="round" stroke-linejoin="round"/>
</svg>
