<?xml version="1.0" encoding="UTF-8"?>
<svg xmlns="http://www.w3.org/2000/svg" viewBox="0 0 26.00 41.00">
<path d="M 12.0 4.0 L 12.0 4.29 L 12.0 4.58 L 12.0 4.88 L 12.0 5.17 L 12.0 5.46 L 12.0 5.75 L 12.0 6.04 L 12.0 6.33 L 12.0 6.62 L 12.0 6.92 L 12.0 7.21 L 12.0 7.5 L 12.0 7.79 L 12.0 8.08 L 12.0 8.38 L 12.0 8.67 L 12.0 8.96 L 12.0 9.25 L 12.0 9.54 L 12.0 9.83 L 12.0 10.12 L 12.0 10.42 L 12.0 10.71 L 12.0 11.0" fill="none" stroke="#111" stroke-width="1.44" stroke-linecap="round" stroke-linejoin="round"/>
<path d="M 13.0 4.0 L 13.12 4.08 L 13.25 4.17 L 13.38 4.25 L 13.5 4.33 L 13.62 4.42 L 13.75 4.5 L 13.88 4.58 L 14.0 4.67 L 14.12 4.75 L 14.25 4.83 L 14.38 4.92 L 14.5 5.0 L 14.62 5.08 L 14.75 5.17 L 14.88 5.25 L 15.0 5.33 L 15.12 5.42 L 15.25 5.5 L 15.38 5.58 L 15.5 5.67 L 15.62 5.75 L 15.75 5.83 L 15.88 5.92 L 16.0 6.0 L 16.0 6.0 L 16.0 6.17 L 16.0 6.33 L 16.0 6.5 L 16.0 6.67 L 16.0 6.83 L 16.0 7.0 L 16.0 7.17 L 16.0 7.33 L 16.0 7.5 L 16.0 7.67 L 16.0 7.83 L 16.0 8.0 L 16.0 8.17 L 16.0 8.33 L 16.0 8.5 L 16.0 8.67 L 16.0 8.83 L 16.0 9.0 L 16.0 9.17 L 16.0 9.33 L 16.0 9.5 L 16.0 9.67 L 16.0 9.83 L 16.0 10.0" fill="none" stroke="#111" stroke-width="1.44" stroke-linecap="round" stroke-linejoin="round"/>
<path d="M 13.0 11.0 L 13.08 11.0 L 13.17 11.0 L 13.25 11.0 L 13.33 11.0 L 13.42 11.0 L 13.5 11.0 L 13.58 11.0 L 13.67 11.0 L 13.75 11.0 L 13.83 11.0 L 13.92 11.0 L 14.0 11.0 L 14.08 11.0 L 14.17 11.0 L 14.25 11.0 L 14.33 11.0 L 14.42 11.0 L 14.5 11.0 L 14.58 11.0 L 14.67 11.0 L 14.75 11.0 L 14.83 11.0 L 14.92 11.0 L 15.0 11.0" fill="none" stroke="#111" stroke-width="1.44" stroke-linecap="round" stroke-linejoin="round"/>
<path d="M 13.0 9.0 L 13.08 9.0 L 13.17 9.0 L 13.25 9.0 L 13.33 9.0 L 13.42 9.0 L 13.5 9.0 L 13.58 9.0 L 13.67 9.0 L 13.75 9.0 L 13.83 9.0 L 13.92 9.0 L 14.0 9.0 L 14.08 9.0 L 14.17 9.0 L 14.25 9.0 L 14.33 9.0 L 14.42 9.0 L 14.5 9.0 L 14.58 9.0 L 14.67 9.0 L 14.75 9.0 L 14.83 9.0 L 14.92 9.0 L 15.0 9.0" fill="none" stroke="#111" stroke-width="1.44" stroke-linecap="round" stroke-linejoin="round"/>
<path d="M 16.0 11.0 L 16.45 11.23 L 16.89 11.49 L 17.32 11.76 L 17.73 12.06 L 18.13 12.37 L 18.51 12.7 L 18.87 13.05 L 19.22 13.42 L 19.55 13.81 L 19.86 14.21 L 20.16 14.62 L 20.43 15.05 L 20.68 15.49 L 20.91 15.94 L 21.11 16.41 L 21.3 16.88 L 21.46 17.36 L 21.6 17.85 L 21.71 18.34 L 21.8 18.84 L 21.87 19.34 L 21.91 19.85 L 21.92 20.36 L 21.92 20.86 L 22.0 21.0 L 21.71 20.96 L 21.42 20.92 L 21.12 20.88 L 20.83 20.83 L 20.54 20.79 L 20.25 20.75 L 19.96 20.71 L 19.67 20.67 L 19.38 20.62 L 19.08 20.58 L 18.79 20.54 L 18.5 20.5 L 18.21 20.46 L 17.92 20.42 L 17.62 20.38 L 17.33 20.33 L 17.04 20.29 L 16.75 20.25 L 16.46 20.21 L 16.17 20.17 L 15.88 20.12 L 15.58 20.08 L 15.29 20.04 L 15.0 20.0 L 15.0 20.0 L 15.0 19.96 L 15.0 19.92 L 15.0 19.88 L 15.0 19.83 L 15.0 19.79 L 15.0 19.75 L 15.0 19.71 L 15.0 19.67 L 15.0 19.62 L 15.0 19.58 L 15.0 19.54 L 15.0 19.5 L 15.0 19.46 L 15.0 19.42 L 15.0 19.38 L 15.0 19.33 L 15.0 19.29 L 15.0 19.25 L 15.0 19.21 L 15.0 19.17 L 15.0 19.12 L 15.0 19.08 L 15.0 19.04 L 15.0 19.0" fill="none" stroke="#111" stroke-width="1.44" stroke-linecap="round" stroke-linejoin="round"/>
<path d="M 16.0 16.0 L 15.82 16.22 L 15.66 16.45 L 15.52 16.7 L 15.4 16.95 L 15.29 17.21 L 15.2 17.48 L 15.14 17.75 L 15.09 18.03 L 15.07 18.31 L 15.06 18.59 L 15.08 18.87 L 15.11 19.15 L 15.17 19.43 L 15.25 19.7 L 15.34 19.97 L 15.46 20.22 L 15.59 20.47 L 15.74 20.71 L 15.91 20.94 L 16.1 21.15 L 16.3 21.35 L 16.51 21.53 L 16.74 21.7 L 16.98 21.85 L 17.0 22.0 L 16.78 22.4 L 16.59 22.81 L 16.43 23.24 L 16.29 23.67 L 16.17 24.11 L 16.09 24.56 L 16.02 25.01 L 15.99 25.46 L 15.99 25.92 L 16.01 26.37 L 16.06 26.83 L 16.13 27.28 L 16.23 27.72 L 16.36 28.16 L 16.52 28.58 L 16.7 29.0 L 16.9 29.41 L 17.13 29.8 L 17.39 30.18 L 17.66 30.54 L 17.96 30.89 L 18.27 31.22 L 18.61 31.53 L 18.96 31.81 L 19.0 32.0 L 18.83 32.21 L 18.67 32.42 L 18.5 32.62 L 18.33 32.83 L 18.17 33.04 L 18.0 33.25 L 17.83 33.46 L 17.67 33.67 L 17.5 33.88 L 17.33 34.08 L 17.17 34.29 L 17.0 34.5 L 16.83 34.71 L 16.67 34.92 L 16.5 35.12 L 16.33 35.33 L 16.17 35.54 L 16.0 35.75 L 15.83 35.96 L 15.67 36.17 L 15.5 36.38 L 15.33 36.58 L 15.17 36.79 L 15.0 37.0" fill="none" stroke="#111" stroke-width="1.44" stroke-linecap="round" stroke-linejoin="round"/>
<path d="M 14.0 34.0 L 14.17 33.96 L 14.33 33.92 L 14.5 33.88 L 14.67 33.83 L 14.83 33.79 L 15.0 33.75 L 15.17 33.71 L 15.33 33.67 L 15.5 33.62 L 15.67 33.58 L 15.83 33.54 L 16.0 33.5 L 16.17 33.46 L 16.33 33.42 L 16.5 33.38 L 16.67 33.33 L 16.83 33.29 L 17.0 33.25 L 17.17 33.21 L 17.33 33.17 L 17.5 33.12 L 17.67 33.08 L 17.83 33.04 L 18.0 33.0" fill="none" stroke="#111" stroke-width="1.44" stroke-linecap="round" stroke-linejoin="round"/>
<path d="M 18.0 33.0 L 18.0 33.08 L 18.0 33.17 L 18.0 33.25 L 18.0 33.33 L 18.0 33.42 L 18.0 33.5 L 18.0 33.58 L 18.0 33.67 L 18.0 33.75 L 18.0 33.83 L 18.0 33.92 L 18.0 34.0 L 18.0 34.08 L 18.0 34.17 L 18.0 34.25 L 18.0 34.33 L 18.0 34.42 L 18.0 34.5 L 18.0 34.58 L 18.0 34.67 L 18.0 34.75 L 18.0 34.83 L 18.0 34.92 L 18.0 35.0" fill="none" stroke="#111" stroke-width="1.44" stroke-linecap="round" stroke-linejoin="round"/>
<path d="M 11.0 12.0 L 10.96 12.17 L 10.92 12.33 L 10.88 12.5 L 10.83 12.67 L 10.79 12.83 L 10.75 13.0 L 10.71 13.17 L 10.67 13.33 L 10.62 13.5 L 10.58 13.67 L 10.54 13.83 L 10.5 14.0 L 10.46 14.17 L 10.42 14.33 L 10.38 14.5 L 10.33 14.67 L 10.29 14.83 L 10.25 15.0 L 10.21 15.17 L 10.17 15.33 L 10.12 15.5 L 10.08 15.67 L 10.04 15.83 L 10.0 16.0 L 10.0 16.0 L 9.75 15.96 L 9.5 15.92 L 9.25 15.88 L 9.0 15.83 L 8.75 15.79 L 8.5 15.75 L 8.25 15.71 L 8.0 15.67 L 7.75 15.62 L 7.5 15.58 L 7.25 15.54 L 7.0 15.5 L 6.75 15.46 L 6.5 15.42 L 6.25 15.38 L 6.0 15.33 L 5.75 15.29 L 5.5 15.25 L 5.25 15.21 L 5.0 15.17 L 4.75 15.12 L 4.5 15.08 L 4.25 15.04 L 4.0 15.0" fill="none" stroke="#111" stroke-width="1.44" stroke-linecap="round" stroke-linejoin="round"/>
<path d="M 9.0 17.0 L 9.08 17.54 L 9.17 18.08 L 9.25 18.62 L 9.33 19.17 L 9.42 19.71 L 9.5 20.25 L 9.58 20.79 L 9.67 21.33 L 9.75 21.88 L 9.83 22.42 L 9.92 22.96 L 10.0 23.5 L 10.08 24.04 L 10.17 24.58 L 10.25 25.12 L 10.33 25.67 L 10.42 26.21 L 10.5 26.75 L 10.58 27.29 L 10.67 27.83 L 10.75 28.38 L 10.83 28.92 L 10.92 29.46 L 11.0 30.0" fill="none" stroke="#111" stroke-width="1.44" stroke-linecap="round" stroke-linejoin="round"/>
<path d="M 6.0 32.0 L 6.46 31.88 L 6.92 31.75 L 7.38 31.62 L 7.83 31.5 L 8.29 31.38 L 8.75 31.25 L 9.21 31.12 L 9.67 31.0 L 10.12 30.88 L 10.58 30.75 L 11.04 30.62 L 11.5 30.5 L 11.96 30.38 L 12.42 30.25 L 12.87 30.12 L 13.33 30.0 L 13.79 29.88 L 14.25 29.75 L 14.71 29.62 L 15.17 29.5 L 15.62 29.38 L 16.08 29.25 L 16.54 29.12 L 17.0 29.0" fill="none" stroke="#111" stroke-width="1.44" stroke-linecap="round" stroke-linejoin="round"/>
</svg>
