<?xml version="1.0" encoding="UTF-8"?>
<svg xmlns="http://www.w3.org/2000/svg" viewBox="0 0 28.93 42.00">
<path d="M 11.93 5.0 L 11.93 5.29 L 11.93 5.58 L 11.93 5.88 L 11.93 6.17 L 11.93 6.46 L 11.93 6.75 L 11.93 7.04 L 11.93 7.33 L 11.93 7.62 L 11.93 7.92 L 11.93 8.21 L 11.93 8.5 L 11.93 8.79 L 11.93 9.08 L 11.93 9.38 L 11.93 9.67 L 11.93 9.96 L 11.93 10.25 L 11.93 10.54 L 11.93 10.83 L 11.93 11.12 L 11.93 11.42 L 11.93 11.71 L 11.93 12.0" fill="none" stroke="#111" stroke-width="1.47" stroke-linecap="round" stroke-linejoin="round"/>
<path d="M 9.93 7.0 L 10.01 7.12 L 10.1 7.25 L 10.18 7.38 L 10.26 7.5 L 10.35 7.62 L 10.43 7.75 L 10.51 7.88 L 10.6 8.0 L 10.68 8.12 L 10.76 8.25 L 10.85 8.38 L 10.93 8.5 L 11.01 8.62 L 11.1 8.75 L 11.18 8.88 L 11.26 9.0 L 11.35 9.12 L 11.43 9.25 L 11.51 9.38 L 11.6 9.5 L 11.68 9.62 L 11.76 9.75 L 11.85 9.88 L 11.93 10.0" fill="none" stroke="#111" stroke-width="1.47" stroke-linecap="round" stroke-linejoin="round"/>
<path d="M 14.93 7.0 L 14.81 7.12 L 14.68 7.25 L 14.56 7.38 L 14.43 7.5 L 14.31 7.62 L 14.18 7.75 L 14.06 7.88 L 13.93 8.0 L 13.81 8.12 L 13.68 8.25 L 13.56 8.38 L 13.43 8.5 L 13.31 8.62 L 13.18 8.75 L 13.06 8.88 L 12.93 9.0 L 12.81 9.12 L 12.68 9.25 L 12.56 9.38 L 12.43 9.5 L 12.31 9.62 L 12.18 9.75 L 12.06 9.88 L 11.93 10.0" fill="none" stroke="#111" stroke-width="1.47" stroke-linecap="round" stroke-linejoin="round"/>
<path d="M 17.93 4.0 L 17.93 4.29 L 17.93 4.58 L 17.93 4.88 L 17.93 5.17 L 17.93 5.46 L 17.93 5.75 L 17.93 6.04 L 17.93 6.33 L 17.93 6.62 L 17.93 6.92 L 17.93 7.21 L 17.93 7.5 L 17.93 7.79 L 17.93 8.08 L 17.93 8.38 L 17.93 8.67 L 17.93 8.96 L 17.93 9.25 L 17.93 9.54 L 17.93 9.83 L 17.93 10.12 L 17.93 10.42 L 17.93 10.71 L 17.93 11.0" fill="none" stroke="#111" stroke-width="1.47" stroke-linecap="round" stroke-linejoin="round"/>
<path d="M 15.93 7.0 L 16.01 7.08 L 16.1 7.17 L 16.18 7.25 L 16.26 7.33 L 16.35 7.42 L 16.43 7.5 L 16.51 7.58 L 16.6 7.67 L 16.68 7.75 L 16.76 7.83 L 16.85 7.92 L 16.93 8.0 L 17.01 8.08 L 17.1 8.17 L 17.18 8.25 L 17.26 8.33 L 17.35 8.42 L 17.43 8.5 L 17.51 8.58 L 17.6 8.67 L 17.68 8.75 L 17.76 8.83 L 17.85 8.92 L 17.93 9.0" fill="none" stroke="#111" stroke-width="1.47" stroke-linecap="round" stroke-linejoin="round"/>
<path d="M 20.93 7.0 L 20.81 7.08 L 20.68 7.17 L 20.56 7.25 L 20.43 7.33 L 20.31 7.42 L 20.18 7.5 L 20.06 7.58 L 19.93 7.67 L 19.81 7.75 L 19.68 7.83 L 19.56 7.92 L 19.43 8.0 L 19.31 8.08 L 19.18 8.17 L 19.06 8.25 L 18.93 8.33 L 18.81 8.42 L 18.68 8.5 L 18.56 8.58 L 18.43 8.67 L 18.31 8.75 L 18.18 8.83 L 18.06 8.92 L 17.93 9.0" fill="none" stroke="#111" stroke-width="1.47" stroke-linecap="round" stroke-linejoin="round"/>
<path d="M 5.93 13.0 L 6.72 12.96 L 7.51 12.92 L 8.31 12.88 L 9.1 12.83 L 9.89 12.79 L 10.68 12.75 L 11.47 12.71 L 12.26 12.67 L 13.06 12.62 L 13.85 12.58 L 14.64 12.54 L 15.43 12.5 L 16.22 12.46 L 17.01 12.42 L 17.81 12.38 L 18.6 12.33 L 19.39 12.29 L 20.18 12.25 L 20.97 12.21 L 21.76 12.17 L 22.56 12.12 L 23.35 12.08 L 24.14 12.04 L 24.93 12.0" fill="none" stroke="#111" stroke-width="1.47" stroke-linecap="round" stroke-linejoin="round"/>
<path d="M 6.93 18.0 L 7.43 17.88 L 7.93 17.75 L 8.43 17.62 L 8.93 17.5 L 9.43 17.38 L 9.93 17.25 L 10.43 17.12 L 10.93 17.0 L 11.43 16.88 L 11.93 16.75 L 12.43 16.62 L 12.93 16.5 L 13.43 16.38 L 13.93 16.25 L 14.43 16.12 L 14.93 16.0 L 15.43 15.88 L 15.93 15.75 L 16.43 15.62 L 16.93 15.5 L 17.43 15.38 L 17.93 15.25 L 18.43 15.12 L 18.93 15.0" fill="none" stroke="#111" stroke-width="1.47" stroke-linecap="round" stroke-linejoin="round"/>
<path d="M 6.93 18.0 L 7.27 18.59 L 7.58 19.21 L 7.84 19.84 L 8.07 20.49 L 8.25 21.15 L 8.4 21.82 L 8.5 22.5 L 8.56 23.18 L 8.57 23.86 L 8.54 24.55 L 8.47 25.23 L 8.36 25.91 L 8.2 26.57 L 8.01 27.23 L 7.77 27.87 L 7.49 28.5 L 7.18 29.11 L 6.82 29.7 L 6.43 30.26 L 6.01 30.8 L 5.55 31.31 L 5.06 31.79 L 4.54 32.24 L 4.0 32.65" fill="none" stroke="#111" stroke-width="1.47" stroke-linecap="round" stroke-linejoin="round"/>
<path d="M 7.93 23.0 L 8.41 23.35 L 8.92 23.67 L 9.45 23.95 L 9.99 24.2 L 10.55 24.4 L 11.12 24.57 L 11.7 24.7 L 12.29 24.79 L 12.89 24.85 L 13.49 24.86 L 14.08 24.82 L 14.67 24.75 L 15.26 24.64 L 15.84 24.49 L 16.41 24.3 L 16.96 24.08 L 17.49 23.81 L 18.01 23.51 L 18.5 23.18 L 18.98 22.81 L 19.42 22.42 L 19.84 21.99 L 20.22 21.53 L 20.58 21.05" fill="none" stroke="#111" stroke-width="1.47" stroke-linecap="round" stroke-linejoin="round"/>
<path d="M 7.93 20.0 L 8.41 20.3 L 8.9 20.57 L 9.39 20.82 L 9.9 21.06 L 10.42 21.27 L 10.95 21.46 L 11.48 21.63 L 12.02 21.78 L 12.57 21.9 L 13.12 22.0 L 13.68 22.08 L 14.23 22.13 L 14.79 22.16 L 15.35 22.17 L 15.91 22.16 L 16.47 22.12 L 17.03 22.06 L 17.58 21.97 L 18.13 21.86 L 18.68 21.73 L 19.22 21.58 L 19.75 21.41 L 20.27 21.21 L 20.79 20.99" fill="none" stroke="#111" stroke-width="1.47" stroke-linecap="round" stroke-linejoin="round"/>
<path d="M 12.93 17.0 L 12.93 17.33 L 12.93 17.67 L 12.93 18.0 L 12.93 18.33 L 12.93 18.67 L 12.93 19.0 L 12.93 19.33 L 12.93 19.67 L 12.93 20.0 L 12.93 20.33 L 12.93 20.67 L 12.93 21.0 L 12.93 21.33 L 12.93 21.67 L 12.93 22.0 L 12.93 22.33 L 12.93 22.67 L 12.93 23.0 L 12.93 23.33 L 12.93 23.67 L 12.93 24.0 L 12.93 24.33 L 12.93 24.67 L 12.93 25.0" fill="none" stroke="#111" stroke-width="1.47" stroke-linecap="round" stroke-linejoin="round"/>
<path d="M 9.93 18.0 L 10.06 18.08 L 10.18 18.17 L 10.31 18.25 L 10.43 18.33 L 10.56 18.42 L 10.68 18.5 L 10.81 18.58 L 10.93 18.67 L 11.06 18.75 L 11.18 18.83 L 11.31 18.92 L 11.43 19.0 L 11.56 19.08 L 11.68 19.17 L 11.81 19.25 L 11.93 19.33 L 12.06 19.42 L 12.18 19.5 L 12.31 19.58 L 12.43 19.67 L 12.56 19.75 L 12.68 19.83 L 12.81 19.92 L 12.93 20.0" fill="none" stroke="#111" stroke-width="1.47" stroke-linecap="round" stroke-linejoin="round"/>
<path d="M 17.93 19.0 L 18.36 19.61 L 18.74 20.25 L 19.05 20.93 L 19.31 21.63 L 19.5 22.35 L 19.62 23.09 L 19.69 23.83 L 19.68 24.58 L 19.61 25.32 L 19.48 26.05 L 19.27 26.77 L 19.01 27.47 L 18.69 28.14 L 18.31 28.78 L 17.87 29.39 L 17.38 29.95 L 16.84 30.47 L 16.26 30.94 L 15.64 31.35 L 14.99 31.71 L 14.3 32.01 L 13.6 32.25 L 12.87 32.42 L 12.13 32.53" fill="none" stroke="#111" stroke-width="1.47" stroke-linecap="round" stroke-linejoin="round"/>
<path d="M 14.93 27.0 L 15.26 27.2 L 15.58 27.42 L 15.89 27.66 L 16.19 27.91 L 16.48 28.17 L 16.75 28.45 L 17.01 28.74 L 17.26 29.04 L 17.49 29.36 L 17.7 29.68 L 17.9 30.02 L 18.08 30.36 L 18.25 30.71 L 18.4 31.07 L 18.53 31.44 L 18.64 31.81 L 18.73 32.19 L 18.81 32.57 L 18.87 32.95 L 18.91 33.34 L 18.93 33.73 L 18.93 34.12 L 18.91 34.51 L 18.88 34.9 L 18.93 35.0 L 19.06 35.12 L 19.18 35.25 L 19.31 35.38 L 19.43 35.5 L 19.56 35.62 L 19.68 35.75 L 19.81 35.88 L 19.93 36.0 L 20.06 36.12 L 20.18 36.25 L 20.31 36.38 L 20.43 36.5 L 20.56 36.62 L 20.68 36.75 L 20.81 36.88 L 20.93 37.0 L 21.06 37.12 L 21.18 37.25 L 21.31 37.38 L 21.43 37.5 L 21.56 37.62 L 21.68 37.75 L 21.81 37.88 L 21.93 38.0" fill="none" stroke="#111" stroke-width="1.47" stroke-linecap="round" stroke-linejoin="round"/>
</svg>
