<?xml version="1.0" encoding="UTF-8"?>
<svg xmlns="http://www.w3.org/2000/svg" viewBox="0 0 28.23 42.38">
<path d="M 15.11 6.0 L 14.9 6.29 L 14.69 6.58 L 14.49 6.88 L 14.28 7.17 L 14.07 7.46 L 13.86 7.75 L 13.65 8.04 L 13.44 8.33 L 13.24 8.62 L 13.03 8.92 L 12.82 9.21 L 12.61 9.5 L 12.4 9.79 L 12.19 10.08 L 11.99 10.38 L 11.78 10.67 L 11.57 10.96 L 11.36 11.25 L 11.15 11.54 L 10.94 11.83 L 10.74 12.12 L 10.53 12.42 L 10.32 12.71 L 10.11 13.0 L 10.11 13.0 L 8.71 14.1 L 7.54 15.45 L 6.65 17.0 L 6.08 18.69 L 5.85 20.46 L 5.96 22.24 L 6.42 23.96 L 7.2 25.57 L 8.27 26.99 L 9.6 28.18 L 11.13 29.09 L 12.82 29.69 L 14.58 29.95 L 16.36 29.87 L 18.09 29.45 L 19.71 28.69 L 21.15 27.64 L 22.37 26.34 L 23.31 24.82 L 23.93 23.15 L 24.23 21.39 L 24.17 19.61 L 23.78 17.87 L 23.06 16.24 L 22.11 16.0 L 21.82 15.58 L 21.53 15.17 L 21.24 14.75 L 20.94 14.33 L 20.65 13.92 L 20.36 13.5 L 20.07 13.08 L 19.78 12.67 L 19.49 12.25 L 19.19 11.83 L 18.9 11.42 L 18.61 11.0 L 18.32 10.58 L 18.03 10.17 L 17.74 9.75 L 17.44 9.33 L 17.15 8.92 L 16.86 8.5 L 16.57 8.08 L 16.28 7.67 L 15.99 7.25 L 15.69 6.83 L 15.4 6.42 L 15.11 6.0" fill="none" stroke="#111" stroke-width="1.48" stroke-linecap="round" stroke-linejoin="round"/>
<path d="M 11.11 12.0 L 11.4 12.0 L 11.69 12.0 L 11.99 12.0 L 12.28 12.0 L 12.57 12.0 L 12.86 12.0 L 13.15 12.0 L 13.44 12.0 L 13.74 12.0 L 14.03 12.0 L 14.32 12.0 L 14.61 12.0 L 14.9 12.0 L 15.19 12.0 L 15.49 12.0 L 15.78 12.0 L 16.07 12.0 L 16.36 12.0 L 16.65 12.0 L 16.94 12.0 L 17.24 12.0 L 17.53 12.0 L 17.82 12.0 L 18.11 12.0" fill="none" stroke="#111" stroke-width="1.48" stroke-linecap="round" stroke-linejoin="round"/>
<path d="M 9.11 19.0 L 9.65 19.0 L 10.19 19.0 L 10.74 19.0 L 11.28 19.0 L 11.82 19.0 L 12.36 19.0 L 12.9 19.0 L 13.44 19.0 L 13.99 19.0 L 14.53 19.0 L 15.07 19.0 L 15.61 19.0 L 16.15 19.0 L 16.69 19.0 L 17.24 19.0 L 17.78 19.0 L 18.32 19.0 L 18.86 19.0 L 19.4 19.0 L 19.94 19.0 L 20.49 19.0 L 21.03 19.0 L 21.57 19.0 L 22.11 19.0" fill="none" stroke="#111" stroke-width="1.48" stroke-linecap="round" stroke-linejoin="round"/>
<path d="M 10.11 25.0 L 10.49 25.0 L 10.86 25.0 L 11.24 25.0 L 11.61 25.0 L 11.99 25.0 L 12.36 25.0 L 12.74 25.0 L 13.11 25.0 L 13.49 25.0 L 13.86 25.0 L 14.24 25.0 L 14.61 25.0 L 14.99 25.0 L 15.36 25.0 L 15.74 25.0 L 16.11 25.0 L 16.49 25.0 L 16.86 25.0 L 17.24 25.0 L 17.61 25.0 L 17.99 25.0 L 18.36 25.0 L 18.74 25.0 L 19.11 25.0" fill="none" stroke="#111" stroke-width="1.48" stroke-linecap="round" stroke-linejoin="round"/>
<path d="M 5.11 4.0 L 4.82 5.45 L 4.57 6.91 L 4.37 8.38 L 4.21 9.85 L 4.09 11.33 L 4.02 12.81 L 4.0 14.29 L 4.02 15.77 L 4.09 17.25 L 4.2 18.73 L 4.35 20.2 L 4.55 21.67 L 4.8 23.13 L 5.08 24.59 L 5.42 26.03 L 5.79 27.46 L 6.21 28.88 L 6.67 30.29 L 7.18 31.68 L 7.72 33.06 L 8.31 34.42 L 8.94 35.76 L 9.61 37.08 L 10.32 38.38" fill="none" stroke="#111" stroke-width="1.48" stroke-linecap="round" stroke-linejoin="round"/>
</svg>
