<?xml version="1.0" encoding="UTF-8"?>
<svg xmlns="http://www.w3.org/2000/svg" viewBox="0 0 29.00 34.00">
<path d="M 4.0 21.0 L 4.88 20.96 L 5.75 20.92 L 6.62 20.88 L 7.5 20.83 L 8.38 20.79 L 9.25 20.75 L 10.12 20.71 L 11.0 20.67 L 11.88 20.62 L 12.75 20.58 L 13.62 20.54 L 14.5 20.5 L 15.38 20.46 L 16.25 20.42 L 17.12 20.38 L 18.0 20.33 L 18.88 20.29 L 19.75 20.25 L 20.63 20.21 L 21.5 20.17 L 22.38 20.12 L 23.25 20.08 L 24.13 20.04 L 25.0 20.0" fill="none" stroke="#111" stroke-width="1.19" stroke-linecap="round" stroke-linejoin="round"/>
<path d="M 15.0 14.0 L 14.54 14.29 L 14.08 14.58 L 13.62 14.88 L 13.17 15.17 L 12.71 15.46 L 12.25 15.75 L 11.79 16.04 L 11.33 16.33 L 10.88 16.62 L 10.42 16.92 L 9.96 17.21 L 9.5 17.5 L 9.04 17.79 L 8.58 18.08 L 8.12 18.38 L 7.67 18.67 L 7.21 18.96 L 6.75 19.25 L 6.29 19.54 L 5.83 19.83 L 5.38 20.12 L 4.92 20.42 L 4.46 20.71 L 4.0 21.0" fill="none" stroke="#111" stroke-width="1.19" stroke-linecap="round" stroke-linejoin="round"/>
<path d="M 14.0 14.0 L 14.42 14.25 L 14.83 14.5 L 15.25 14.75 L 15.67 15.0 L 16.08 15.25 L 16.5 15.5 L 16.92 15.75 L 17.33 16.0 L 17.75 16.25 L 18.17 16.5 L 18.58 16.75 L 19.0 17.0 L 19.42 17.25 L 19.83 17.5 L 20.25 17.75 L 20.67 18.0 L 21.08 18.25 L 21.5 18.5 L 21.92 18.75 L 22.33 19.0 L 22.75 19.25 L 23.17 19.5 L 23.58 19.75 L 24.0 20.0" fill="none" stroke="#111" stroke-width="1.19" stroke-linecap="round" stroke-linejoin="round"/>
<path d="M 5.0 12.0 L 5.82 10.69 L 6.89 9.57 L 8.17 8.69 L 9.59 8.07 L 11.1 7.76 L 12.65 7.75 L 14.17 8.05 L 15.6 8.65 L 16.88 9.52 L 17.96 10.63 L 18.8 11.93 L 19.36 13.37 L 19.62 14.9 L 19.58 16.44 L 19.22 17.95 L 18.57 19.36 L 17.66 20.61 L 16.51 21.65 L 15.18 22.44 L 13.72 22.95 L 12.19 23.16 L 10.64 23.06 L 9.15 22.65 L 7.76 21.95" fill="none" stroke="#111" stroke-width="1.19" stroke-linecap="round" stroke-linejoin="round"/>
<path d="M 13.0 4.0 L 12.88 4.08 L 12.75 4.17 L 12.62 4.25 L 12.5 4.33 L 12.38 4.42 L 12.25 4.5 L 12.12 4.58 L 12.0 4.67 L 11.88 4.75 L 11.75 4.83 L 11.62 4.92 L 11.5 5.0 L 11.38 5.08 L 11.25 5.17 L 11.12 5.25 L 11.0 5.33 L 10.88 5.42 L 10.75 5.5 L 10.62 5.58 L 10.5 5.67 L 10.38 5.75 L 10.25 5.83 L 10.12 5.92 L 10.0 6.0" fill="none" stroke="#111" stroke-width="1.19" stroke-linecap="round" stroke-linejoin="round"/>
<path d="M 7.0 11.0 L 7.12 11.21 L 7.25 11.42 L 7.38 11.62 L 7.5 11.83 L 7.62 12.04 L 7.75 12.25 L 7.88 12.46 L 8.0 12.67 L 8.12 12.88 L 8.25 13.08 L 8.38 13.29 L 8.5 13.5 L 8.62 13.71 L 8.75 13.92 L 8.88 14.12 L 9.0 14.33 L 9.12 14.54 L 9.25 14.75 L 9.38 14.96 L 9.5 15.17 L 9.62 15.38 L 9.75 15.58 L 9.88 15.79 L 10.0 16.0" fill="none" stroke="#111" stroke-width="1.19" stroke-linecap="round" stroke-linejoin="round"/>
<path d="M 16.0 6.0 L 16.08 6.46 L 16.17 6.92 L 16.25 7.38 L 16.33 7.83 L 16.42 8.29 L 16.5 8.75 L 16.58 9.21 L 16.67 9.67 L 16.75 10.12 L 16.83 10.58 L 16.92 11.04 L 17.0 11.5 L 17.08 11.96 L 17.17 12.42 L 17.25 12.88 L 17.33 13.33 L 17.42 13.79 L 17.5 14.25 L 17.58 14.71 L 17.67 15.17 L 17.75 15.62 L 17.83 16.08 L 17.92 16.54 L 18.0 17.0" fill="none" stroke="#111" stroke-width="1.19" stroke-linecap="round" stroke-linejoin="round"/>
<path d="M 21.0 4.0 L 20.83 4.25 L 20.67 4.5 L 20.5 4.75 L 20.33 5.0 L 20.17 5.25 L 20.0 5.5 L 19.83 5.75 L 19.67 6.0 L 19.5 6.25 L 19.33 6.5 L 19.17 6.75 L 19.0 7.0 L 18.83 7.25 L 18.67 7.5 L 18.5 7.75 L 18.33 8.0 L 18.17 8.25 L 18.0 8.5 L 17.83 8.75 L 17.67 9.0 L 17.5 9.25 L 17.33 9.5 L 17.17 9.75 L 17.0 10.0" fill="none" stroke="#111" stroke-width="1.19" stroke-linecap="round" stroke-linejoin="round"/>
<path d="M 20.0 6.0 L 20.08 6.21 L 20.17 6.42 L 20.25 6.62 L 20.33 6.83 L 20.42 7.04 L 20.5 7.25 L 20.58 7.46 L 20.67 7.67 L 20.75 7.88 L 20.83 8.08 L 20.92 8.29 L 21.0 8.5 L 21.08 8.71 L 21.17 8.92 L 21.25 9.12 L 21.33 9.33 L 21.42 9.54 L 21.5 9.75 L 21.58 9.96 L 21.67 10.17 L 21.75 10.38 L 21.83 10.58 L 21.92 10.79 L 22.0 11.0" fill="none" stroke="#111" stroke-width="1.19" stroke-linecap="round" stroke-linejoin="round"/>
<path d="M 21.0 12.0 L 20.88 12.17 L 20.75 12.33 L 20.62 12.5 L 20.5 12.67 L 20.38 12.83 L 20.25 13.0 L 20.12 13.17 L 20.0 13.33 L 19.88 13.5 L 19.75 13.67 L 19.62 13.83 L 19.5 14.0 L 19.38 14.17 L 19.25 14.33 L 19.12 14.5 L 19.0 14.67 L 18.88 14.83 L 18.75 15.0 L 18.62 15.17 L 18.5 15.33 L 18.38 15.5 L 18.25 15.67 L 18.12 15.83 L 18.0 16.0" fill="none" stroke="#111" stroke-width="1.19" stroke-linecap="round" stroke-linejoin="round"/>
<path d="M 22.0 20.0 L 22.0 20.42 L 22.0 20.83 L 22.0 21.25 L 22.0 21.67 L 22.0 22.08 L 22.0 22.5 L 22.0 22.92 L 22.0 23.33 L 22.0 23.75 L 22.0 24.17 L 22.0 24.58 L 22.0 25.0 L 22.0 25.42 L 22.0 25.83 L 22.0 26.25 L 22.0 26.67 L 22.0 27.08 L 22.0 27.5 L 22.0 27.92 L 22.0 28.33 L 22.0 28.75 L 22.0 29.17 L 22.0 29.58 L 22.0 30.0" fill="none" stroke="#111" stroke-width="1.19" stroke-linecap="round" stroke-linejoin="round"/>
<path d="M 13.0 21.0 L 13.2 21.39 L 13.38 21.8 L 13.53 22.21 L 13.65 22.64 L 13.73 23.07 L 13.79 23.51 L 13.82 23.95 L 13.82 24.39 L 13.78 24.83 L 13.72 25.27 L 13.62 25.7 L 13.5 26.12 L 13.34 26.54 L 13.16 26.94 L 12.95 27.33 L 12.71 27.7 L 12.45 28.06 L 12.16 28.39 L 11.86 28.71 L 11.53 29.0 L 11.18 29.27 L 10.81 29.52 L 10.42 29.73 L 10.03 29.92" fill="none" stroke="#111" stroke-width="1.19" stroke-linecap="round" stroke-linejoin="round"/>
<path d="M 22.0 20.0 L 21.83 20.29 L 21.67 20.58 L 21.5 20.88 L 21.33 21.17 L 21.17 21.46 L 21.0 21.75 L 20.83 22.04 L 20.67 22.33 L 20.5 22.62 L 20.33 22.92 L 20.17 23.21 L 20.0 23.5 L 19.83 23.79 L 19.67 24.08 L 19.5 24.38 L 19.33 24.67 L 19.17 24.96 L 19.0 25.25 L 18.83 25.54 L 18.67 25.83 L 18.5 26.12 L 18.33 26.42 L 18.17 26.71 L 18.0 27.0 L 18.0 27.0 L 18.17 27.12 L 18.33 27.25 L 18.5 27.38 L 18.67 27.5 L 18.83 27.62 L 19.0 27.75 L 19.17 27.88 L 19.33 28.0 L 19.5 28.12 L 19.67 28.25 L 19.83 28.38 L 20.0 28.5 L 20.17 28.62 L 20.33 28.75 L 20.5 28.88 L 20.67 29.0 L 20.83 29.12 L 21.0 29.25 L 21.17 29.38 L 21.33 29.5 L 21.5 29.62 L 21.67 29.75 L 21.83 29.88 L 22.0 30.0" fill="none" stroke="#111" stroke-width="1.19" stroke-linecap="round" stroke-linejoin="round"/>
</svg>
