<?xml version="1.0" encoding="UTF-8"?>
<svg xmlns="http://www.w3.org/2000/svg" viewBox="0 0 24.00 35.00">
<path d="M 9.0 5.0 L 9.0 5.29 L 9.0 5.58 L 9.0 5.88 L 9.0 6.17 L 9.0 6.46 L 9.0 6.75 L 9.0 7.04 L 9.0 7.33 L 9.0 7.62 L 9.0 7.92 L 9.0 8.21 L 9.0 8.5 L 9.0 8.79 L 9.0 9.08 L 9.0 9.38 L 9.0 9.67 L 9.0 9.96 L 9.0 10.25 L 9.0 10.54 L 9.0 10.83 L 9.0 11.12 L 9.0 11.42 L 9.0 11.71 L 9.0 12.0" fill="none" stroke="#111" stroke-width="1.23" stroke-linecap="round" stroke-linejoin="round"/>
<path d="M 7.0 5.0 L 7.08 5.12 L 7.17 5.25 L 7.25 5.38 L 7.33 5.5 L 7.42 5.62 L 7.5 5.75 L 7.58 5.88 L 7.67 6.0 L 7.75 6.12 L 7.83 6.25 L 7.92 6.38 L 8.0 6.5 L 8.08 6.62 L 8.17 6.75 L 8.25 6.88 L 8.33 7.0 L 8.42 7.12 L 8.5 7.25 L 8.58 7.38 L 8.67 7.5 L 8.75 7.62 L 8.83 7.75 L 8.92 7.88 L 9.0 8.0" fill="none" stroke="#111" stroke-width="1.23" stroke-linecap="round" stroke-linejoin="round"/>
<path d="M 12.0 4.0 L 11.88 4.17 L 11.75 4.33 L 11.62 4.5 L 11.5 4.67 L 11.38 4.83 L 11.25 5.0 L 11.12 5.17 L 11.0 5.33 L 10.88 5.5 L 10.75 5.67 L 10.62 5.83 L 10.5 6.0 L 10.38 6.17 L 10.25 6.33 L 10.12 6.5 L 10.0 6.67 L 9.88 6.83 L 9.75 7.0 L 9.62 7.17 L 9.5 7.33 L 9.38 7.5 L 9.25 7.67 L 9.12 7.83 L 9.0 8.0" fill="none" stroke="#111" stroke-width="1.23" stroke-linecap="round" stroke-linejoin="round"/>
<path d="M 9.0 8.0 L 8.88 8.21 L 8.75 8.42 L 8.62 8.62 L 8.5 8.83 L 8.38 9.04 L 8.25 9.25 L 8.12 9.46 L 8.0 9.67 L 7.88 9.88 L 7.75 10.08 L 7.63 10.29 L 7.5 10.5 L 7.38 10.71 L 7.25 10.92 L 7.12 11.12 L 7.0 11.33 L 6.88 11.54 L 6.75 11.75 L 6.63 11.96 L 6.5 12.17 L 6.38 12.38 L 6.25 12.58 L 6.13 12.79 L 6.0 13.0" fill="none" stroke="#111" stroke-width="1.23" stroke-linecap="round" stroke-linejoin="round"/>
<path d="M 9.0 8.0 L 9.12 8.17 L 9.25 8.33 L 9.38 8.5 L 9.5 8.67 L 9.62 8.83 L 9.75 9.0 L 9.88 9.17 L 10.0 9.33 L 10.12 9.5 L 10.25 9.67 L 10.38 9.83 L 10.5 10.0 L 10.62 10.17 L 10.75 10.33 L 10.88 10.5 L 11.0 10.67 L 11.12 10.83 L 11.25 11.0 L 11.38 11.17 L 11.5 11.33 L 11.62 11.5 L 11.75 11.67 L 11.88 11.83 L 12.0 12.0" fill="none" stroke="#111" stroke-width="1.23" stroke-linecap="round" stroke-linejoin="round"/>
<path d="M 7.0 14.0 L 7.0 14.67 L 7.0 15.33 L 7.0 16.0 L 7.0 16.67 L 7.0 17.33 L 7.0 18.0 L 7.0 18.67 L 7.0 19.33 L 7.0 20.0 L 7.0 20.67 L 7.0 21.33 L 7.0 22.0 L 7.0 22.67 L 7.0 23.33 L 7.0 24.0 L 7.0 24.67 L 7.0 25.33 L 7.0 26.0 L 7.0 26.67 L 7.0 27.33 L 7.0 28.0 L 7.0 28.67 L 7.0 29.33 L 7.0 30.0" fill="none" stroke="#111" stroke-width="1.23" stroke-linecap="round" stroke-linejoin="round"/>
<path d="M 5.0 15.0 L 5.08 15.17 L 5.17 15.33 L 5.25 15.5 L 5.33 15.67 L 5.42 15.83 L 5.5 16.0 L 5.58 16.17 L 5.67 16.33 L 5.75 16.5 L 5.83 16.67 L 5.92 16.83 L 6.0 17.0 L 6.08 17.17 L 6.17 17.33 L 6.25 17.5 L 6.33 17.67 L 6.42 17.83 L 6.5 18.0 L 6.58 18.17 L 6.67 18.33 L 6.75 18.5 L 6.83 18.67 L 6.92 18.83 L 7.0 19.0" fill="none" stroke="#111" stroke-width="1.23" stroke-linecap="round" stroke-linejoin="round"/>
<path d="M 10.0 15.0 L 9.88 15.17 L 9.75 15.33 L 9.62 15.5 L 9.5 15.67 L 9.38 15.83 L 9.25 16.0 L 9.12 16.17 L 9.0 16.33 L 8.88 16.5 L 8.75 16.67 L 8.62 16.83 L 8.5 17.0 L 8.38 17.17 L 8.25 17.33 L 8.12 17.5 L 8.0 17.67 L 7.88 17.83 L 7.75 18.0 L 7.62 18.17 L 7.5 18.33 L 7.38 18.5 L 7.25 18.67 L 7.12 18.83 L 7.0 19.0" fill="none" stroke="#111" stroke-width="1.23" stroke-linecap="round" stroke-linejoin="round"/>
<path d="M 7.0 25.0 L 6.88 25.12 L 6.75 25.25 L 6.62 25.38 L 6.5 25.5 L 6.38 25.62 L 6.25 25.75 L 6.12 25.88 L 6.0 26.0 L 5.88 26.12 L 5.75 26.25 L 5.62 26.38 L 5.5 26.5 L 5.38 26.62 L 5.25 26.75 L 5.12 26.88 L 5.0 27.0 L 4.88 27.12 L 4.75 27.25 L 4.62 27.38 L 4.5 27.5 L 4.38 27.62 L 4.25 27.75 L 4.12 27.88 L 4.0 28.0" fill="none" stroke="#111" stroke-width="1.23" stroke-linecap="round" stroke-linejoin="round"/>
<path d="M 7.0 24.0 L 7.12 24.17 L 7.25 24.33 L 7.38 24.5 L 7.5 24.67 L 7.62 24.83 L 7.75 25.0 L 7.88 25.17 L 8.0 25.33 L 8.12 25.5 L 8.25 25.67 L 8.38 25.83 L 8.5 26.0 L 8.62 26.17 L 8.75 26.33 L 8.88 26.5 L 9.0 26.67 L 9.12 26.83 L 9.25 27.0 L 9.38 27.17 L 9.5 27.33 L 9.62 27.5 L 9.75 27.67 L 9.88 27.83 L 10.0 28.0" fill="none" stroke="#111" stroke-width="1.23" stroke-linecap="round" stroke-linejoin="round"/>
<path d="M 14.0 12.0 L 14.04 12.79 L 14.08 13.58 L 14.12 14.38 L 14.17 15.17 L 14.21 15.96 L 14.25 16.75 L 14.29 17.54 L 14.33 18.33 L 14.38 19.12 L 14.42 19.92 L 14.46 20.71 L 14.5 21.5 L 14.54 22.29 L 14.58 23.08 L 14.62 23.88 L 14.67 24.67 L 14.71 25.46 L 14.75 26.25 L 14.79 27.04 L 14.83 27.83 L 14.88 28.62 L 14.92 29.42 L 14.96 30.21 L 15.0 31.0" fill="none" stroke="#111" stroke-width="1.23" stroke-linecap="round" stroke-linejoin="round"/>
<path d="M 11.0 13.0 L 11.12 13.29 L 11.25 13.58 L 11.38 13.88 L 11.5 14.17 L 11.62 14.46 L 11.75 14.75 L 11.88 15.04 L 12.0 15.33 L 12.12 15.62 L 12.25 15.92 L 12.38 16.21 L 12.5 16.5 L 12.62 16.79 L 12.75 17.08 L 12.88 17.38 L 13.0 17.67 L 13.12 17.96 L 13.25 18.25 L 13.38 18.54 L 13.5 18.83 L 13.62 19.12 L 13.75 19.42 L 13.88 19.71 L 14.0 20.0" fill="none" stroke="#111" stroke-width="1.23" stroke-linecap="round" stroke-linejoin="round"/>
<path d="M 20.0 11.0 L 19.75 11.21 L 19.5 11.42 L 19.25 11.62 L 19.0 11.83 L 18.75 12.04 L 18.5 12.25 L 18.25 12.46 L 18.0 12.67 L 17.75 12.88 L 17.5 13.08 L 17.25 13.29 L 17.0 13.5 L 16.75 13.71 L 16.5 13.92 L 16.25 14.12 L 16.0 14.33 L 15.75 14.54 L 15.5 14.75 L 15.25 14.96 L 15.0 15.17 L 14.75 15.38 L 14.5 15.58 L 14.25 15.79 L 14.0 16.0" fill="none" stroke="#111" stroke-width="1.23" stroke-linecap="round" stroke-linejoin="round"/>
<path d="M 14.0 23.0 L 13.88 23.12 L 13.75 23.25 L 13.62 23.38 L 13.5 23.5 L 13.38 23.62 L 13.25 23.75 L 13.12 23.88 L 13.0 24.0 L 12.88 24.12 L 12.75 24.25 L 12.62 24.38 L 12.5 24.5 L 12.38 24.62 L 12.25 24.75 L 12.12 24.88 L 12.0 25.0 L 11.88 25.12 L 11.75 25.25 L 11.62 25.38 L 11.5 25.5 L 11.38 25.62 L 11.25 25.75 L 11.12 25.88 L 11.0 26.0" fill="none" stroke="#111" stroke-width="1.23" stroke-linecap="round" stroke-linejoin="round"/>
<path d="M 14.0 22.0 L 14.25 22.21 L 14.5 22.42 L 14.75 22.62 L 15.0 22.83 L 15.25 23.04 L 15.5 23.25 L 15.75 23.46 L 16.0 23.67 L 16.25 23.88 L 16.5 24.08 L 16.75 24.29 L 17.0 24.5 L 17.25 24.71 L 17.5 24.92 L 17.75 25.12 L 18.0 25.33 L 18.25 25.54 L 18.5 25.75 L 18.75 25.96 L 19.0 26.17 L 19.25 26.38 L 19.5 26.58 L 19.75 26.79 L 20.0 27.0" fill="none" stroke="#111" stroke-width="1.23" stroke-linecap="round" stroke-linejoin="round"/>
</svg>
