<?xml version="1.0" encoding="UTF-8"?>
<svg xmlns="http://www.w3.org/2000/svg" viewBox="0 0 20.00 41.00">
<path d="M 4.0 5.0 L 4.0 5.12 L 4.0 5.25 L 4.0 5.38 L 4.0 5.5 L 4.0 5.62 L 4.0 5.75 L 4.0 5.88 L 4.0 6.0 L 4.0 6.12 L 4.0 6.25 L 4.0 6.38 L 4.0 6.5 L 4.0 6.62 L 4.0 6.75 L 4.0 6.88 L 4.0 7.0 L 4.0 7.12 L 4.0 7.25 L 4.0 7.38 L 4.0 7.5 L 4.0 7.62 L 4.0 7.75 L 4.0 7.88 L 4.0 8.0" fill="none" stroke="#111" stroke-width="1.44" stroke-linecap="round" stroke-linejoin="round"/>
<path d="M 4.0 8.0 L 5.29 8.13 L 6.56 8.42 L 7.79 8.85 L 8.97 9.41 L 10.06 10.11 L 11.07 10.93 L 11.98 11.87 L 12.78 12.9 L 13.45 14.01 L 13.98 15.2 L 14.38 16.44 L 14.63 17.72 L 14.73 19.01 L 14.68 20.31 L 14.48 21.6 L 14.13 22.85 L 13.64 24.06 L 13.02 25.2 L 12.27 26.26 L 11.39 27.23 L 10.42 28.09 L 9.35 28.83 L 8.2 29.45 L 6.99 29.92" fill="none" stroke="#111" stroke-width="1.44" stroke-linecap="round" stroke-linejoin="round"/>
<path d="M 12.0 17.0 L 11.88 17.29 L 11.75 17.58 L 11.62 17.88 L 11.5 18.17 L 11.38 18.46 L 11.25 18.75 L 11.12 19.04 L 11.0 19.33 L 10.88 19.62 L 10.75 19.92 L 10.62 20.21 L 10.5 20.5 L 10.38 20.79 L 10.25 21.08 L 10.12 21.38 L 10.0 21.67 L 9.88 21.96 L 9.75 22.25 L 9.62 22.54 L 9.5 22.83 L 9.38 23.12 L 9.25 23.42 L 9.12 23.71 L 9.0 24.0" fill="none" stroke="#111" stroke-width="1.44" stroke-linecap="round" stroke-linejoin="round"/>
<path d="M 8.0 4.0 L 8.04 4.21 L 8.08 4.42 L 8.12 4.62 L 8.17 4.83 L 8.21 5.04 L 8.25 5.25 L 8.29 5.46 L 8.33 5.67 L 8.38 5.88 L 8.42 6.08 L 8.46 6.29 L 8.5 6.5 L 8.54 6.71 L 8.58 6.92 L 8.62 7.12 L 8.67 7.33 L 8.71 7.54 L 8.75 7.75 L 8.79 7.96 L 8.83 8.17 L 8.88 8.38 L 8.92 8.58 L 8.96 8.79 L 9.0 9.0" fill="none" stroke="#111" stroke-width="1.44" stroke-linecap="round" stroke-linejoin="round"/>
<path d="M 9.0 10.0 L 8.63 10.07 L 8.27 10.17 L 7.92 10.3 L 7.58 10.45 L 7.25 10.63 L 6.93 10.83 L 6.63 11.06 L 6.35 11.3 L 6.08 11.57 L 5.84 11.85 L 5.62 12.16 L 5.42 12.48 L 5.25 12.81 L 5.1 13.15 L 4.98 13.51 L 4.88 13.87 L 4.81 14.24 L 4.77 14.61 L 4.76 14.98 L 4.77 15.36 L 4.81 15.73 L 4.88 16.1 L 4.98 16.46 L 5.11 16.82" fill="none" stroke="#111" stroke-width="1.44" stroke-linecap="round" stroke-linejoin="round"/>
<path d="M 11.0 8.0 L 11.17 8.17 L 11.33 8.33 L 11.5 8.5 L 11.67 8.67 L 11.83 8.83 L 12.0 9.0 L 12.17 9.17 L 12.33 9.33 L 12.5 9.5 L 12.67 9.67 L 12.83 9.83 L 13.0 10.0 L 13.17 10.17 L 13.33 10.33 L 13.5 10.5 L 13.67 10.67 L 13.83 10.83 L 14.0 11.0 L 14.17 11.17 L 14.33 11.33 L 14.5 11.5 L 14.67 11.67 L 14.83 11.83 L 15.0 12.0 L 15.0 12.0 L 14.58 12.21 L 14.17 12.42 L 13.75 12.62 L 13.33 12.83 L 12.92 13.04 L 12.5 13.25 L 12.08 13.46 L 11.67 13.67 L 11.25 13.88 L 10.83 14.08 L 10.42 14.29 L 10.0 14.5 L 9.58 14.71 L 9.17 14.92 L 8.75 15.13 L 8.33 15.33 L 7.92 15.54 L 7.5 15.75 L 7.08 15.96 L 6.67 16.17 L 6.25 16.38 L 5.83 16.58 L 5.42 16.79 L 5.0 17.0" fill="none" stroke="#111" stroke-width="1.44" stroke-linecap="round" stroke-linejoin="round"/>
<path d="M 14.0 25.0 L 13.96 25.5 L 13.92 26.0 L 13.88 26.5 L 13.83 27.0 L 13.79 27.5 L 13.75 28.0 L 13.71 28.5 L 13.67 29.0 L 13.62 29.5 L 13.58 30.0 L 13.54 30.5 L 13.5 31.0 L 13.46 31.5 L 13.42 32.0 L 13.38 32.5 L 13.33 33.0 L 13.29 33.5 L 13.25 34.0 L 13.21 34.5 L 13.17 35.0 L 13.12 35.5 L 13.08 36.0 L 13.04 36.5 L 13.0 37.0" fill="none" stroke="#111" stroke-width="1.44" stroke-linecap="round" stroke-linejoin="round"/>
<path d="M 13.0 31.0 L 13.12 31.12 L 13.25 31.25 L 13.38 31.38 L 13.5 31.5 L 13.62 31.62 L 13.75 31.75 L 13.88 31.88 L 14.0 32.0 L 14.12 32.12 L 14.25 32.25 L 14.38 32.38 L 14.5 32.5 L 14.62 32.62 L 14.75 32.75 L 14.88 32.88 L 15.0 33.0 L 15.12 33.12 L 15.25 33.25 L 15.38 33.38 L 15.5 33.5 L 15.62 33.62 L 15.75 33.75 L 15.88 33.88 L 16.0 34.0" fill="none" stroke="#111" stroke-width="1.44" stroke-linecap="round" stroke-linejoin="round"/>
</svg>
