<?xml version="1.0" encoding="UTF-8"?>
<svg xmlns="http://www.w3.org/2000/svg" viewBox="0 0 22.00 39.25">
<path d="M 5.0 4.0 L 5.5 4.33 L 6.0 4.67 L 6.5 5.0 L 7.0 5.33 L 7.5 5.67 L 8.0 6.0 L 8.5 6.33 L 9.0 6.67 L 9.5 7.0 L 10.0 7.33 L 10.5 7.67 L 11.0 8.0 L 11.5 8.33 L 12.0 8.67 L 12.5 9.0 L 13.0 9.33 L 13.5 9.67 L 14.0 10.0 L 14.5 10.33 L 15.0 10.67 L 15.5 11.0 L 16.0 11.33 L 16.5 11.67 L 17.0 12.0" fill="none" stroke="#111" stroke-width="1.37" stroke-linecap="round" stroke-linejoin="round"/>
<path d="M 12.0 4.0 L 11.57 5.25 L 11.17 6.51 L 10.79 7.77 L 10.44 9.05 L 10.11 10.33 L 9.81 11.61 L 9.54 12.91 L 9.29 14.21 L 9.07 15.51 L 8.88 16.81 L 8.71 18.13 L 8.57 19.44 L 8.46 20.76 L 8.37 22.07 L 8.31 23.39 L 8.28 24.71 L 8.27 26.04 L 8.29 27.36 L 8.34 28.68 L 8.41 30.0 L 8.51 31.31 L 8.64 32.63 L 8.79 33.94 L 8.98 35.25" fill="none" stroke="#111" stroke-width="1.37" stroke-linecap="round" stroke-linejoin="round"/>
<path d="M 9.0 12.0 L 8.79 12.21 L 8.58 12.42 L 8.38 12.62 L 8.17 12.83 L 7.96 13.04 L 7.75 13.25 L 7.54 13.46 L 7.33 13.67 L 7.12 13.88 L 6.92 14.08 L 6.71 14.29 L 6.5 14.5 L 6.29 14.71 L 6.08 14.92 L 5.88 15.12 L 5.67 15.33 L 5.46 15.54 L 5.25 15.75 L 5.04 15.96 L 4.83 16.17 L 4.62 16.38 L 4.42 16.58 L 4.21 16.79 L 4.0 17.0" fill="none" stroke="#111" stroke-width="1.37" stroke-linecap="round" stroke-linejoin="round"/>
<path d="M 9.0 17.0 L 9.38 17.21 L 9.75 17.42 L 10.12 17.62 L 10.5 17.83 L 10.88 18.04 L 11.25 18.25 L 11.62 18.46 L 12.0 18.67 L 12.38 18.88 L 12.75 19.08 L 13.12 19.29 L 13.5 19.5 L 13.88 19.71 L 14.25 19.92 L 14.63 20.12 L 15.0 20.33 L 15.38 20.54 L 15.75 20.75 L 16.12 20.96 L 16.5 21.17 L 16.88 21.38 L 17.25 21.58 L 17.62 21.79 L 18.0 22.0" fill="none" stroke="#111" stroke-width="1.37" stroke-linecap="round" stroke-linejoin="round"/>
<path d="M 9.0 24.0 L 8.79 24.21 L 8.58 24.42 L 8.38 24.62 L 8.17 24.83 L 7.96 25.04 L 7.75 25.25 L 7.54 25.46 L 7.33 25.67 L 7.12 25.88 L 6.92 26.08 L 6.71 26.29 L 6.5 26.5 L 6.29 26.71 L 6.08 26.92 L 5.88 27.12 L 5.67 27.33 L 5.46 27.54 L 5.25 27.75 L 5.04 27.96 L 4.83 28.17 L 4.62 28.38 L 4.42 28.58 L 4.21 28.79 L 4.0 29.0" fill="none" stroke="#111" stroke-width="1.37" stroke-linecap="round" stroke-linejoin="round"/>
<path d="M 10.0 25.0 L 10.21 25.17 L 10.42 25.33 L 10.62 25.5 L 10.83 25.67 L 11.04 25.83 L 11.25 26.0 L 11.46 26.17 L 11.67 26.33 L 11.88 26.5 L 12.08 26.67 L 12.29 26.83 L 12.5 27.0 L 12.71 27.17 L 12.92 27.33 L 13.12 27.5 L 13.33 27.67 L 13.54 27.83 L 13.75 28.0 L 13.96 28.17 L 14.17 28.33 L 14.38 28.5 L 14.58 28.67 L 14.79 28.83 L 15.0 29.0" fill="none" stroke="#111" stroke-width="1.37" stroke-linecap="round" stroke-linejoin="round"/>
</svg>
