<?xml version="1.0" encoding="UTF-8"?>
<svg xmlns="http://www.w3.org/2000/svg" viewBox="0 0 29.00 40.00">
<path d="M 7.0 7.0 L 6.96 7.17 L 6.92 7.33 L 6.88 7.5 L 6.83 7.67 L 6.79 7.83 L 6.75 8.0 L 6.71 8.17 L 6.67 8.33 L 6.62 8.5 L 6.58 8.67 L 6.54 8.83 L 6.5 9.0 L 6.46 9.17 L 6.42 9.33 L 6.38 9.5 L 6.33 9.67 L 6.29 9.83 L 6.25 10.0 L 6.21 10.17 L 6.17 10.33 L 6.12 10.5 L 6.08 10.67 L 6.04 10.83 L 6.0 11.0" fill="none" stroke="#111" stroke-width="1.40" stroke-linecap="round" stroke-linejoin="round"/>
<path d="M 6.0 11.0 L 6.25 11.17 L 6.5 11.33 L 6.75 11.5 L 7.0 11.67 L 7.25 11.83 L 7.5 12.0 L 7.75 12.17 L 8.0 12.33 L 8.25 12.5 L 8.5 12.67 L 8.75 12.83 L 9.0 13.0 L 9.25 13.17 L 9.5 13.33 L 9.75 13.5 L 10.0 13.67 L 10.25 13.83 L 10.5 14.0 L 10.75 14.17 L 11.0 14.33 L 11.25 14.5 L 11.5 14.67 L 11.75 14.83 L 12.0 15.0" fill="none" stroke="#111" stroke-width="1.40" stroke-linecap="round" stroke-linejoin="round"/>
<path d="M 4.0 7.0 L 4.08 7.04 L 4.17 7.08 L 4.25 7.12 L 4.33 7.17 L 4.42 7.21 L 4.5 7.25 L 4.58 7.29 L 4.67 7.33 L 4.75 7.38 L 4.83 7.42 L 4.92 7.46 L 5.0 7.5 L 5.08 7.54 L 5.17 7.58 L 5.25 7.62 L 5.33 7.67 L 5.42 7.71 L 5.5 7.75 L 5.58 7.79 L 5.67 7.83 L 5.75 7.88 L 5.83 7.92 L 5.92 7.96 L 6.0 8.0" fill="none" stroke="#111" stroke-width="1.40" stroke-linecap="round" stroke-linejoin="round"/>
<path d="M 8.0 7.0 L 7.96 7.08 L 7.92 7.17 L 7.88 7.25 L 7.83 7.33 L 7.79 7.42 L 7.75 7.5 L 7.71 7.58 L 7.67 7.67 L 7.62 7.75 L 7.58 7.83 L 7.54 7.92 L 7.5 8.0 L 7.46 8.08 L 7.42 8.17 L 7.38 8.25 L 7.33 8.33 L 7.29 8.42 L 7.25 8.5 L 7.21 8.58 L 7.17 8.67 L 7.12 8.75 L 7.08 8.83 L 7.04 8.92 L 7.0 9.0" fill="none" stroke="#111" stroke-width="1.40" stroke-linecap="round" stroke-linejoin="round"/>
<path d="M 11.0 4.0 L 11.08 4.17 L 11.17 4.33 L 11.25 4.5 L 11.33 4.67 L 11.42 4.83 L 11.5 5.0 L 11.58 5.17 L 11.67 5.33 L 11.75 5.5 L 11.83 5.67 L 11.92 5.83 L 12.0 6.0 L 12.08 6.17 L 12.17 6.33 L 12.25 6.5 L 12.33 6.67 L 12.42 6.83 L 12.5 7.0 L 12.58 7.17 L 12.67 7.33 L 12.75 7.5 L 12.83 7.67 L 12.92 7.83 L 13.0 8.0" fill="none" stroke="#111" stroke-width="1.40" stroke-linecap="round" stroke-linejoin="round"/>
<path d="M 13.0 8.0 L 12.92 8.17 L 12.83 8.33 L 12.75 8.5 L 12.67 8.67 L 12.58 8.83 L 12.5 9.0 L 12.42 9.17 L 12.33 9.33 L 12.25 9.5 L 12.17 9.67 L 12.08 9.83 L 12.0 10.0 L 11.92 10.17 L 11.83 10.33 L 11.75 10.5 L 11.67 10.67 L 11.58 10.83 L 11.5 11.0 L 11.42 11.17 L 11.33 11.33 L 11.25 11.5 L 11.17 11.67 L 11.08 11.83 L 11.0 12.0" fill="none" stroke="#111" stroke-width="1.40" stroke-linecap="round" stroke-linejoin="round"/>
<path d="M 10.0 9.0 L 10.04 9.0 L 10.08 9.0 L 10.12 9.0 L 10.17 9.0 L 10.21 9.0 L 10.25 9.0 L 10.29 9.0 L 10.33 9.0 L 10.38 9.0 L 10.42 9.0 L 10.46 9.0 L 10.5 9.0 L 10.54 9.0 L 10.58 9.0 L 10.62 9.0 L 10.67 9.0 L 10.71 9.0 L 10.75 9.0 L 10.79 9.0 L 10.83 9.0 L 10.88 9.0 L 10.92 9.0 L 10.96 9.0 L 11.0 9.0" fill="none" stroke="#111" stroke-width="1.40" stroke-linecap="round" stroke-linejoin="round"/>
<path d="M 15.0 6.0 L 14.92 6.04 L 14.83 6.08 L 14.75 6.12 L 14.67 6.17 L 14.58 6.21 L 14.5 6.25 L 14.42 6.29 L 14.33 6.33 L 14.25 6.38 L 14.17 6.42 L 14.08 6.46 L 14.0 6.5 L 13.92 6.54 L 13.83 6.58 L 13.75 6.62 L 13.67 6.67 L 13.58 6.71 L 13.5 6.75 L 13.42 6.79 L 13.33 6.83 L 13.25 6.88 L 13.17 6.92 L 13.08 6.96 L 13.0 7.0" fill="none" stroke="#111" stroke-width="1.40" stroke-linecap="round" stroke-linejoin="round"/>
<path d="M 6.0 14.0 L 6.46 13.88 L 6.92 13.75 L 7.38 13.62 L 7.83 13.5 L 8.29 13.38 L 8.75 13.25 L 9.21 13.12 L 9.67 13.0 L 10.12 12.88 L 10.58 12.75 L 11.04 12.62 L 11.5 12.5 L 11.96 12.38 L 12.42 12.25 L 12.87 12.12 L 13.33 12.0 L 13.79 11.88 L 14.25 11.75 L 14.71 11.62 L 15.17 11.5 L 15.62 11.38 L 16.08 11.25 L 16.54 11.12 L 17.0 11.0" fill="none" stroke="#111" stroke-width="1.40" stroke-linecap="round" stroke-linejoin="round"/>
<path d="M 6.0 14.0 L 6.0 14.21 L 6.0 14.42 L 6.0 14.62 L 6.0 14.83 L 6.0 15.04 L 6.0 15.25 L 6.0 15.46 L 6.0 15.67 L 6.0 15.88 L 6.0 16.08 L 6.0 16.29 L 6.0 16.5 L 6.0 16.71 L 6.0 16.92 L 6.0 17.12 L 6.0 17.33 L 6.0 17.54 L 6.0 17.75 L 6.0 17.96 L 6.0 18.17 L 6.0 18.38 L 6.0 18.58 L 6.0 18.79 L 6.0 19.0" fill="none" stroke="#111" stroke-width="1.40" stroke-linecap="round" stroke-linejoin="round"/>
<path d="M 7.0 19.0 L 7.21 18.92 L 7.42 18.83 L 7.62 18.75 L 7.83 18.67 L 8.04 18.58 L 8.25 18.5 L 8.46 18.42 L 8.67 18.33 L 8.88 18.25 L 9.08 18.17 L 9.29 18.08 L 9.5 18.0 L 9.71 17.92 L 9.92 17.83 L 10.12 17.75 L 10.33 17.67 L 10.54 17.58 L 10.75 17.5 L 10.96 17.42 L 11.17 17.33 L 11.38 17.25 L 11.58 17.17 L 11.79 17.08 L 12.0 17.0" fill="none" stroke="#111" stroke-width="1.40" stroke-linecap="round" stroke-linejoin="round"/>
<path d="M 11.0 12.0 L 10.92 12.21 L 10.83 12.42 L 10.75 12.62 L 10.67 12.83 L 10.58 13.04 L 10.5 13.25 L 10.42 13.46 L 10.33 13.67 L 10.25 13.88 L 10.17 14.08 L 10.08 14.29 L 10.0 14.5 L 9.92 14.71 L 9.83 14.92 L 9.75 15.12 L 9.67 15.33 L 9.58 15.54 L 9.5 15.75 L 9.42 15.96 L 9.33 16.17 L 9.25 16.38 L 9.17 16.58 L 9.08 16.79 L 9.0 17.0" fill="none" stroke="#111" stroke-width="1.40" stroke-linecap="round" stroke-linejoin="round"/>
<path d="M 16.0 12.0 L 15.88 12.17 L 15.75 12.33 L 15.62 12.5 L 15.5 12.67 L 15.38 12.83 L 15.25 13.0 L 15.12 13.17 L 15.0 13.33 L 14.88 13.5 L 14.75 13.67 L 14.62 13.83 L 14.5 14.0 L 14.38 14.17 L 14.25 14.33 L 14.12 14.5 L 14.0 14.67 L 13.88 14.83 L 13.75 15.0 L 13.62 15.17 L 13.5 15.33 L 13.38 15.5 L 13.25 15.67 L 13.12 15.83 L 13.0 16.0" fill="none" stroke="#111" stroke-width="1.40" stroke-linecap="round" stroke-linejoin="round"/>
<path d="M 12.0 17.0 L 12.0 17.25 L 12.0 17.5 L 12.0 17.75 L 12.0 18.0 L 12.0 18.25 L 12.0 18.5 L 12.0 18.75 L 12.0 19.0 L 12.0 19.25 L 12.0 19.5 L 12.0 19.75 L 12.0 20.0 L 12.0 20.25 L 12.0 20.5 L 12.0 20.75 L 12.0 21.0 L 12.0 21.25 L 12.0 21.5 L 12.0 21.75 L 12.0 22.0 L 12.0 22.25 L 12.0 22.5 L 12.0 22.75 L 12.0 23.0" fill="none" stroke="#111" stroke-width="1.40" stroke-linecap="round" stroke-linejoin="round"/>
<path d="M 8.0 36.0 L 7.72 34.98 L 7.53 33.94 L 7.42 32.89 L 7.4 31.83 L 7.47 30.78 L 7.63 29.74 L 7.87 28.71 L 8.2 27.7 L 8.61 26.73 L 9.1 25.79 L 9.66 24.9 L 10.3 24.06 L 11.0 23.27 L 11.77 22.54 L 12.6 21.88 L 13.47 21.3 L 14.4 20.78 L 15.36 20.35 L 16.35 19.99 L 17.38 19.72 L 18.42 19.54 L 19.47 19.44 L 20.53 19.43 L 21.58 19.51 L 22.0 19.0 L 22.12 19.12 L 22.25 19.25 L 22.38 19.38 L 22.5 19.5 L 22.62 19.62 L 22.75 19.75 L 22.88 19.88 L 23.0 20.0 L 23.12 20.12 L 23.25 20.25 L 23.38 20.38 L 23.5 20.5 L 23.62 20.62 L 23.75 20.75 L 23.88 20.88 L 24.0 21.0 L 24.12 21.12 L 24.25 21.25 L 24.38 21.38 L 24.5 21.5 L 24.62 21.62 L 24.75 21.75 L 24.88 21.88 L 25.0 22.0" fill="none" stroke="#111" stroke-width="1.40" stroke-linecap="round" stroke-linejoin="round"/>
<path d="M 22.0 21.0 L 21.96 21.58 L 21.92 22.17 L 21.88 22.75 L 21.83 23.33 L 21.79 23.92 L 21.75 24.5 L 21.71 25.08 L 21.67 25.67 L 21.62 26.25 L 21.58 26.83 L 21.54 27.42 L 21.5 28.0 L 21.46 28.58 L 21.42 29.17 L 21.38 29.75 L 21.33 30.33 L 21.29 30.92 L 21.25 31.5 L 21.21 32.08 L 21.17 32.67 L 21.12 33.25 L 21.08 33.83 L 21.04 34.42 L 21.0 35.0" fill="none" stroke="#111" stroke-width="1.40" stroke-linecap="round" stroke-linejoin="round"/>
<path d="M 9.0 29.0 L 9.54 28.88 L 10.08 28.75 L 10.62 28.62 L 11.17 28.5 L 11.71 28.38 L 12.25 28.25 L 12.79 28.12 L 13.33 28.0 L 13.88 27.88 L 14.42 27.75 L 14.96 27.62 L 15.5 27.5 L 16.04 27.38 L 16.58 27.25 L 17.12 27.12 L 17.67 27.0 L 18.21 26.88 L 18.75 26.75 L 19.29 26.62 L 19.83 26.5 L 20.38 26.38 L 20.92 26.25 L 21.46 26.12 L 22.0 26.0" fill="none" stroke="#111" stroke-width="1.40" stroke-linecap="round" stroke-linejoin="round"/>
</svg>
