<?xml version="1.0" encoding="UTF-8"?>
<svg xmlns="http://www.w3.org/2000/svg" viewBox="0 0 22.69 40.00">
<path d="M 4.0 12.0 L 4.68 11.23 L 5.49 10.61 L 6.4 10.14 L 7.38 9.85 L 8.4 9.75 L 9.42 9.84 L 10.41 10.12 L 11.32 10.58 L 12.14 11.2 L 12.82 11.96 L 13.36 12.83 L 13.72 13.79 L 13.89 14.8 L 13.88 15.82 L 13.67 16.83 L 13.29 17.78 L 12.73 18.63 L 12.02 19.37 L 11.19 19.97 L 10.26 20.4 L 9.27 20.65 L 8.24 20.71 L 7.23 20.58 L 6.25 20.27 L 7.0 23.0 L 7.21 23.08 L 7.42 23.17 L 7.62 23.25 L 7.83 23.33 L 8.04 23.42 L 8.25 23.5 L 8.46 23.58 L 8.67 23.67 L 8.88 23.75 L 9.08 23.83 L 9.29 23.92 L 9.5 24.0 L 9.71 24.08 L 9.92 24.17 L 10.12 24.25 L 10.33 24.33 L 10.54 24.42 L 10.75 24.5 L 10.96 24.58 L 11.17 24.67 L 11.38 24.75 L 11.58 24.83 L 11.79 24.92 L 12.0 25.0 L 12.0 25.0 L 12.21 25.0 L 12.42 25.0 L 12.62 25.0 L 12.83 25.0 L 13.04 25.0 L 13.25 25.0 L 13.46 25.0 L 13.67 25.0 L 13.88 25.0 L 14.08 25.0 L 14.29 25.0 L 14.5 25.0 L 14.71 25.0 L 14.92 25.0 L 15.12 25.0 L 15.33 25.0 L 15.54 25.0 L 15.75 25.0 L 15.96 25.0 L 16.17 25.0 L 16.38 25.0 L 16.58 25.0 L 16.79 25.0 L 17.0 25.0" fill="none" stroke="#111" stroke-width="1.40" stroke-linecap="round" stroke-linejoin="round"/>
<path d="M 6.0 10.0 L 6.18 10.0 L 6.35 10.01 L 6.53 10.03 L 6.7 10.08 L 6.87 10.13 L 7.03 10.2 L 7.18 10.29 L 7.33 10.39 L 7.47 10.5 L 7.59 10.62 L 7.71 10.75 L 7.81 10.89 L 7.91 11.04 L 7.98 11.2 L 8.05 11.37 L 8.1 11.54 L 8.13 11.71 L 8.15 11.88 L 8.15 12.06 L 8.14 12.24 L 8.11 12.41 L 8.07 12.58 L 8.01 12.75 L 7.94 12.91" fill="none" stroke="#111" stroke-width="1.40" stroke-linecap="round" stroke-linejoin="round"/>
<path d="M 8.0 12.0 L 8.08 11.92 L 8.17 11.83 L 8.25 11.75 L 8.33 11.67 L 8.42 11.58 L 8.5 11.5 L 8.58 11.42 L 8.67 11.33 L 8.75 11.25 L 8.83 11.17 L 8.92 11.08 L 9.0 11.0 L 9.08 10.92 L 9.17 10.83 L 9.25 10.75 L 9.33 10.67 L 9.42 10.58 L 9.5 10.5 L 9.58 10.42 L 9.67 10.33 L 9.75 10.25 L 9.83 10.17 L 9.92 10.08 L 10.0 10.0" fill="none" stroke="#111" stroke-width="1.40" stroke-linecap="round" stroke-linejoin="round"/>
<path d="M 5.0 7.0 L 5.04 7.04 L 5.08 7.08 L 5.12 7.12 L 5.17 7.17 L 5.21 7.21 L 5.25 7.25 L 5.29 7.29 L 5.33 7.33 L 5.38 7.38 L 5.42 7.42 L 5.46 7.46 L 5.5 7.5 L 5.54 7.54 L 5.58 7.58 L 5.62 7.62 L 5.67 7.67 L 5.71 7.71 L 5.75 7.75 L 5.79 7.79 L 5.83 7.83 L 5.88 7.88 L 5.92 7.92 L 5.96 7.96 L 6.0 8.0" fill="none" stroke="#111" stroke-width="1.40" stroke-linecap="round" stroke-linejoin="round"/>
<path d="M 8.0 4.0 L 8.0 4.12 L 8.0 4.25 L 8.0 4.38 L 8.0 4.5 L 8.0 4.62 L 8.0 4.75 L 8.0 4.88 L 8.0 5.0 L 8.0 5.12 L 8.0 5.25 L 8.0 5.38 L 8.0 5.5 L 8.0 5.62 L 8.0 5.75 L 8.0 5.88 L 8.0 6.0 L 8.0 6.12 L 8.0 6.25 L 8.0 6.38 L 8.0 6.5 L 8.0 6.62 L 8.0 6.75 L 8.0 6.88 L 8.0 7.0" fill="none" stroke="#111" stroke-width="1.40" stroke-linecap="round" stroke-linejoin="round"/>
<path d="M 10.0 5.0 L 9.96 5.08 L 9.92 5.17 L 9.88 5.25 L 9.83 5.33 L 9.79 5.42 L 9.75 5.5 L 9.71 5.58 L 9.67 5.67 L 9.62 5.75 L 9.58 5.83 L 9.54 5.92 L 9.5 6.0 L 9.46 6.08 L 9.42 6.17 L 9.38 6.25 L 9.33 6.33 L 9.29 6.42 L 9.25 6.5 L 9.21 6.58 L 9.17 6.67 L 9.12 6.75 L 9.08 6.83 L 9.04 6.92 L 9.0 7.0" fill="none" stroke="#111" stroke-width="1.40" stroke-linecap="round" stroke-linejoin="round"/>
<path d="M 12.0 19.0 L 12.75 19.17 L 13.48 19.41 L 14.18 19.72 L 14.85 20.09 L 15.48 20.53 L 16.07 21.02 L 16.61 21.57 L 17.1 22.16 L 17.52 22.8 L 17.89 23.47 L 18.19 24.18 L 18.42 24.91 L 18.58 25.66 L 18.68 26.42 L 18.69 27.19 L 18.64 27.95 L 18.52 28.71 L 18.32 29.45 L 18.05 30.17 L 17.72 30.87 L 17.33 31.52 L 16.87 32.14 L 16.36 32.71 L 15.8 33.23" fill="none" stroke="#111" stroke-width="1.40" stroke-linecap="round" stroke-linejoin="round"/>
<path d="M 14.0 19.0 L 14.17 18.92 L 14.33 18.83 L 14.5 18.75 L 14.67 18.67 L 14.83 18.58 L 15.0 18.5 L 15.17 18.42 L 15.33 18.33 L 15.5 18.25 L 15.67 18.17 L 15.83 18.08 L 16.0 18.0 L 16.17 17.92 L 16.33 17.83 L 16.5 17.75 L 16.67 17.67 L 16.83 17.58 L 17.0 17.5 L 17.17 17.42 L 17.33 17.33 L 17.5 17.25 L 17.67 17.17 L 17.83 17.08 L 18.0 17.0" fill="none" stroke="#111" stroke-width="1.40" stroke-linecap="round" stroke-linejoin="round"/>
<path d="M 15.0 17.0 L 15.08 17.12 L 15.17 17.25 L 15.25 17.38 L 15.33 17.5 L 15.42 17.62 L 15.5 17.75 L 15.58 17.88 L 15.67 18.0 L 15.75 18.12 L 15.83 18.25 L 15.92 18.38 L 16.0 18.5 L 16.08 18.62 L 16.17 18.75 L 16.25 18.88 L 16.33 19.0 L 16.42 19.12 L 16.5 19.25 L 16.58 19.38 L 16.67 19.5 L 16.75 19.62 L 16.83 19.75 L 16.92 19.88 L 17.0 20.0" fill="none" stroke="#111" stroke-width="1.40" stroke-linecap="round" stroke-linejoin="round"/>
<path d="M 13.0 21.0 L 12.83 21.29 L 12.67 21.58 L 12.5 21.88 L 12.33 22.17 L 12.17 22.46 L 12.0 22.75 L 11.83 23.04 L 11.67 23.33 L 11.5 23.62 L 11.33 23.92 L 11.17 24.21 L 11.0 24.5 L 10.83 24.79 L 10.67 25.08 L 10.5 25.38 L 10.33 25.67 L 10.17 25.96 L 10.0 26.25 L 9.83 26.54 L 9.67 26.83 L 9.5 27.12 L 9.33 27.42 L 9.17 27.71 L 9.0 28.0" fill="none" stroke="#111" stroke-width="1.40" stroke-linecap="round" stroke-linejoin="round"/>
<path d="M 14.0 22.0 L 14.04 22.08 L 14.08 22.17 L 14.12 22.25 L 14.17 22.33 L 14.21 22.42 L 14.25 22.5 L 14.29 22.58 L 14.33 22.67 L 14.38 22.75 L 14.42 22.83 L 14.46 22.92 L 14.5 23.0 L 14.54 23.08 L 14.58 23.17 L 14.62 23.25 L 14.67 23.33 L 14.71 23.42 L 14.75 23.5 L 14.79 23.58 L 14.83 23.67 L 14.88 23.75 L 14.92 23.83 L 14.96 23.92 L 15.0 24.0" fill="none" stroke="#111" stroke-width="1.40" stroke-linecap="round" stroke-linejoin="round"/>
<path d="M 7.0 22.0 L 7.19 22.57 L 7.37 23.14 L 7.52 23.72 L 7.65 24.3 L 7.76 24.89 L 7.86 25.48 L 7.93 26.07 L 7.98 26.67 L 8.01 27.26 L 8.02 27.86 L 8.01 28.46 L 7.97 29.06 L 7.92 29.65 L 7.85 30.25 L 7.75 30.84 L 7.64 31.42 L 7.5 32.01 L 7.35 32.58 L 7.17 33.15 L 6.98 33.72 L 6.76 34.28 L 6.53 34.83 L 6.28 35.37 L 6.01 35.9" fill="none" stroke="#111" stroke-width="1.40" stroke-linecap="round" stroke-linejoin="round"/>
<path d="M 5.0 33.0 L 5.04 33.04 L 5.08 33.08 L 5.12 33.12 L 5.17 33.17 L 5.21 33.21 L 5.25 33.25 L 5.29 33.29 L 5.33 33.33 L 5.38 33.38 L 5.42 33.42 L 5.46 33.46 L 5.5 33.5 L 5.54 33.54 L 5.58 33.58 L 5.62 33.62 L 5.67 33.67 L 5.71 33.71 L 5.75 33.75 L 5.79 33.79 L 5.83 33.83 L 5.88 33.88 L 5.92 33.92 L 5.96 33.96 L 6.0 34.0" fill="none" stroke="#111" stroke-width="1.40" stroke-linecap="round" stroke-linejoin="round"/>
<path d="M 15.0 36.0 L 15.08 35.96 L 15.17 35.92 L 15.25 35.88 L 15.33 35.83 L 15.42 35.79 L 15.5 35.75 L 15.58 35.71 L 15.67 35.67 L 15.75 35.62 L 15.83 35.58 L 15.92 35.54 L 16.0 35.5 L 16.08 35.46 L 16.17 35.42 L 16.25 35.38 L 16.33 35.33 L 16.42 35.29 L 16.5 35.25 L 16.58 35.21 L 16.67 35.17 L 16.75 35.12 L 16.83 35.08 L 16.92 35.04 L 17.0 35.0" fill="none" stroke="#111" stroke-width="1.40" stroke-linecap="round" stroke-linejoin="round"/>
</svg>
