<?xml version="1.0" encoding="UTF-8"?>
<svg xmlns="http://www.w3.org/2000/svg" viewBox="0 0 24.00 32.00">
<path d="M 4.0 15.0 L 4.46 14.83 L 4.92 14.67 L 5.38 14.5 L 5.83 14.33 L 6.29 14.17 L 6.75 14.0 L 7.21 13.83 L 7.67 13.67 L 8.12 13.5 L 8.58 13.33 L 9.04 13.17 L 9.5 13.0 L 9.96 12.83 L 10.42 12.67 L 10.88 12.5 L 11.33 12.33 L 11.79 12.17 L 12.25 12.0 L 12.71 11.83 L 13.17 11.67 L 13.62 11.5 L 14.08 11.33 L 14.54 11.17 L 15.0 11.0" fill="none" stroke="#111" stroke-width="1.12" stroke-linecap="round" stroke-linejoin="round"/>
<path d="M 4.0 19.0 L 4.46 18.83 L 4.92 18.67 L 5.38 18.5 L 5.83 18.33 L 6.29 18.17 L 6.75 18.0 L 7.21 17.83 L 7.67 17.67 L 8.12 17.5 L 8.58 17.33 L 9.04 17.17 L 9.5 17.0 L 9.96 16.83 L 10.42 16.67 L 10.88 16.5 L 11.33 16.33 L 11.79 16.17 L 12.25 16.0 L 12.71 15.83 L 13.17 15.67 L 13.62 15.5 L 14.08 15.33 L 14.54 15.17 L 15.0 15.0" fill="none" stroke="#111" stroke-width="1.12" stroke-linecap="round" stroke-linejoin="round"/>
<path d="M 6.0 7.0 L 6.0 7.67 L 6.0 8.33 L 6.0 9.0 L 6.0 9.67 L 6.0 10.33 L 6.0 11.0 L 6.0 11.67 L 6.0 12.33 L 6.0 13.0 L 6.0 13.67 L 6.0 14.33 L 6.0 15.0 L 6.0 15.67 L 6.0 16.33 L 6.0 17.0 L 6.0 17.67 L 6.0 18.33 L 6.0 19.0 L 6.0 19.67 L 6.0 20.33 L 6.0 21.0 L 6.0 21.67 L 6.0 22.33 L 6.0 23.0" fill="none" stroke="#111" stroke-width="1.12" stroke-linecap="round" stroke-linejoin="round"/>
<path d="M 9.0 10.0 L 9.0 10.5 L 9.0 11.0 L 9.0 11.5 L 9.0 12.0 L 9.0 12.5 L 9.0 13.0 L 9.0 13.5 L 9.0 14.0 L 9.0 14.5 L 9.0 15.0 L 9.0 15.5 L 9.0 16.0 L 9.0 16.5 L 9.0 17.0 L 9.0 17.5 L 9.0 18.0 L 9.0 18.5 L 9.0 19.0 L 9.0 19.5 L 9.0 20.0 L 9.0 20.5 L 9.0 21.0 L 9.0 21.5 L 9.0 22.0" fill="none" stroke="#111" stroke-width="1.12" stroke-linecap="round" stroke-linejoin="round"/>
<path d="M 11.0 9.0 L 11.04 9.5 L 11.08 10.0 L 11.12 10.5 L 11.17 11.0 L 11.21 11.5 L 11.25 12.0 L 11.29 12.5 L 11.33 13.0 L 11.38 13.5 L 11.42 14.0 L 11.46 14.5 L 11.5 15.0 L 11.54 15.5 L 11.58 16.0 L 11.62 16.5 L 11.67 17.0 L 11.71 17.5 L 11.75 18.0 L 11.79 18.5 L 11.83 19.0 L 11.88 19.5 L 11.92 20.0 L 11.96 20.5 L 12.0 21.0" fill="none" stroke="#111" stroke-width="1.12" stroke-linecap="round" stroke-linejoin="round"/>
<path d="M 20.0 4.0 L 19.55 4.78 L 19.13 5.57 L 18.73 6.37 L 18.36 7.19 L 18.02 8.01 L 17.71 8.85 L 17.42 9.7 L 17.16 10.56 L 16.94 11.43 L 16.74 12.3 L 16.56 13.18 L 16.42 14.06 L 16.31 14.95 L 16.23 15.84 L 16.18 16.74 L 16.15 17.63 L 16.16 18.53 L 16.2 19.42 L 16.26 20.32 L 16.36 21.21 L 16.49 22.1 L 16.64 22.98 L 16.83 23.85 L 17.04 24.72 L 17.0 25.0 L 16.79 25.12 L 16.58 25.25 L 16.38 25.38 L 16.17 25.5 L 15.96 25.62 L 15.75 25.75 L 15.54 25.88 L 15.33 26.0 L 15.12 26.12 L 14.92 26.25 L 14.71 26.38 L 14.5 26.5 L 14.29 26.62 L 14.08 26.75 L 13.88 26.88 L 13.67 27.0 L 13.46 27.12 L 13.25 27.25 L 13.04 27.38 L 12.83 27.5 L 12.62 27.62 L 12.42 27.75 L 12.21 27.88 L 12.0 28.0" fill="none" stroke="#111" stroke-width="1.12" stroke-linecap="round" stroke-linejoin="round"/>
<path d="M 17.0 18.0 L 16.79 18.21 L 16.58 18.42 L 16.38 18.62 L 16.17 18.83 L 15.96 19.04 L 15.75 19.25 L 15.54 19.46 L 15.33 19.67 L 15.12 19.88 L 14.92 20.08 L 14.71 20.29 L 14.5 20.5 L 14.29 20.71 L 14.08 20.92 L 13.88 21.12 L 13.67 21.33 L 13.46 21.54 L 13.25 21.75 L 13.04 21.96 L 12.83 22.17 L 12.62 22.38 L 12.42 22.58 L 12.21 22.79 L 12.0 23.0" fill="none" stroke="#111" stroke-width="1.12" stroke-linecap="round" stroke-linejoin="round"/>
</svg>
