<?xml version="1.0" encoding="UTF-8"?>
<svg xmlns="http://www.w3.org/2000/svg" viewBox="0 0 25.56 35.00">
<path d="M 4.0 7.0 L 4.0 7.33 L 4.0 7.67 L 4.0 8.0 L 4.0 8.33 L 4.0 8.67 L 4.0 9.0 L 4.0 9.33 L 4.0 9.67 L 4.0 10.0 L 4.0 10.33 L 4.0 10.67 L 4.0 11.0 L 4.0 11.33 L 4.0 11.67 L 4.0 12.0 L 4.0 12.33 L 4.0 12.67 L 4.0 13.0 L 4.0 13.33 L 4.0 13.67 L 4.0 14.0 L 4.0 14.33 L 4.0 14.67 L 4.0 15.0" fill="none" stroke="#111" stroke-width="1.23" stroke-linecap="round" stroke-linejoin="round"/>
<path d="M 4.0 7.0 L 4.54 6.88 L 5.08 6.75 L 5.62 6.62 L 6.17 6.5 L 6.71 6.38 L 7.25 6.25 L 7.79 6.12 L 8.33 6.0 L 8.88 5.88 L 9.42 5.75 L 9.96 5.62 L 10.5 5.5 L 11.04 5.38 L 11.58 5.25 L 12.12 5.12 L 12.67 5.0 L 13.21 4.88 L 13.75 4.75 L 14.29 4.62 L 14.83 4.5 L 15.38 4.38 L 15.92 4.25 L 16.46 4.12 L 17.0 4.0" fill="none" stroke="#111" stroke-width="1.23" stroke-linecap="round" stroke-linejoin="round"/>
<path d="M 17.0 5.0 L 16.59 5.51 L 16.16 6.0 L 15.73 6.5 L 15.29 6.98 L 14.84 7.46 L 14.39 7.93 L 13.93 8.39 L 13.46 8.84 L 12.98 9.29 L 12.49 9.73 L 12.0 10.16 L 11.5 10.58 L 11.0 11.0 L 10.48 11.4 L 9.97 11.8 L 9.44 12.19 L 8.91 12.57 L 8.37 12.94 L 7.83 13.31 L 7.28 13.66 L 6.72 14.0 L 6.16 14.34 L 5.59 14.67 L 5.02 14.98" fill="none" stroke="#111" stroke-width="1.23" stroke-linecap="round" stroke-linejoin="round"/>
<path d="M 11.0 5.0 L 10.69 5.38 L 10.4 5.77 L 10.13 6.18 L 9.89 6.61 L 9.68 7.05 L 9.49 7.5 L 9.33 7.97 L 9.2 8.44 L 9.1 8.92 L 9.03 9.4 L 8.98 9.89 L 8.97 10.38 L 8.98 10.87 L 9.03 11.36 L 9.1 11.84 L 9.2 12.32 L 9.33 12.79 L 9.49 13.25 L 9.68 13.71 L 9.89 14.15 L 10.13 14.57 L 10.4 14.99 L 10.69 15.38 L 11.0 15.76 L 11.0 16.0 L 10.39 16.37 L 9.8 16.78 L 9.24 17.21 L 8.7 17.68 L 8.19 18.18 L 7.71 18.7 L 7.25 19.25 L 6.83 19.83 L 6.44 20.43 L 6.09 21.05 L 5.77 21.68 L 5.49 22.34 L 5.24 23.01 L 5.03 23.69 L 4.86 24.38 L 4.73 25.08 L 4.64 25.79 L 4.59 26.5 L 4.57 27.21 L 4.6 27.93 L 4.67 28.64 L 4.78 29.34 L 4.92 30.04 L 5.11 30.73" fill="none" stroke="#111" stroke-width="1.23" stroke-linecap="round" stroke-linejoin="round"/>
<path d="M 11.0 6.0 L 11.04 6.12 L 11.08 6.25 L 11.12 6.38 L 11.17 6.5 L 11.21 6.62 L 11.25 6.75 L 11.29 6.88 L 11.33 7.0 L 11.38 7.12 L 11.42 7.25 L 11.46 7.38 L 11.5 7.5 L 11.54 7.62 L 11.58 7.75 L 11.62 7.88 L 11.67 8.0 L 11.71 8.12 L 11.75 8.25 L 11.79 8.38 L 11.83 8.5 L 11.88 8.62 L 11.92 8.75 L 11.96 8.88 L 12.0 9.0" fill="none" stroke="#111" stroke-width="1.23" stroke-linecap="round" stroke-linejoin="round"/>
<path d="M 7.0 21.0 L 7.49 20.55 L 8.0 20.14 L 8.54 19.75 L 9.1 19.4 L 9.67 19.07 L 10.27 18.79 L 10.88 18.54 L 11.51 18.32 L 12.14 18.15 L 12.79 18.01 L 13.44 17.9 L 14.1 17.84 L 14.76 17.82 L 15.42 17.83 L 16.08 17.88 L 16.74 17.97 L 17.39 18.1 L 18.03 18.27 L 18.66 18.48 L 19.27 18.72 L 19.87 18.99 L 20.46 19.31 L 21.02 19.65 L 21.56 20.03" fill="none" stroke="#111" stroke-width="1.23" stroke-linecap="round" stroke-linejoin="round"/>
<path d="M 6.0 23.0 L 6.38 23.31 L 6.77 23.6 L 7.18 23.87 L 7.61 24.11 L 8.05 24.32 L 8.5 24.51 L 8.97 24.67 L 9.44 24.8 L 9.92 24.9 L 10.4 24.97 L 10.89 25.02 L 11.38 25.03 L 11.87 25.02 L 12.36 24.97 L 12.84 24.9 L 13.32 24.8 L 13.79 24.67 L 14.25 24.51 L 14.71 24.32 L 15.15 24.11 L 15.57 23.87 L 15.99 23.6 L 16.38 23.31 L 16.76 23.0 L 17.0 23.0 L 16.96 23.0 L 16.92 23.0 L 16.88 23.0 L 16.83 23.0 L 16.79 23.0 L 16.75 23.0 L 16.71 23.0 L 16.67 23.0 L 16.62 23.0 L 16.58 23.0 L 16.54 23.0 L 16.5 23.0 L 16.46 23.0 L 16.42 23.0 L 16.38 23.0 L 16.33 23.0 L 16.29 23.0 L 16.25 23.0 L 16.21 23.0 L 16.17 23.0 L 16.12 23.0 L 16.08 23.0 L 16.04 23.0 L 16.0 23.0" fill="none" stroke="#111" stroke-width="1.23" stroke-linecap="round" stroke-linejoin="round"/>
<path d="M 18.0 18.0 L 18.0 18.54 L 18.0 19.08 L 18.0 19.62 L 18.0 20.17 L 18.0 20.71 L 18.0 21.25 L 18.0 21.79 L 18.0 22.33 L 18.0 22.88 L 18.0 23.42 L 18.0 23.96 L 18.0 24.5 L 18.0 25.04 L 18.0 25.58 L 18.0 26.12 L 18.0 26.67 L 18.0 27.21 L 18.0 27.75 L 18.0 28.29 L 18.0 28.83 L 18.0 29.38 L 18.0 29.92 L 18.0 30.46 L 18.0 31.0" fill="none" stroke="#111" stroke-width="1.23" stroke-linecap="round" stroke-linejoin="round"/>
<path d="M 18.0 28.0 L 18.08 28.08 L 18.17 28.17 L 18.25 28.25 L 18.33 28.33 L 18.42 28.42 L 18.5 28.5 L 18.58 28.58 L 18.67 28.67 L 18.75 28.75 L 18.83 28.83 L 18.92 28.92 L 19.0 29.0 L 19.08 29.08 L 19.17 29.17 L 19.25 29.25 L 19.33 29.33 L 19.42 29.42 L 19.5 29.5 L 19.58 29.58 L 19.67 29.67 L 19.75 29.75 L 19.83 29.83 L 19.92 29.92 L 20.0 30.0" fill="none" stroke="#111" stroke-width="1.23" stroke-linecap="round" stroke-linejoin="round"/>
</svg>
