<?xml version="1.0" encoding="UTF-8"?>
<svg xmlns="http://www.w3.org/2000/svg" viewBox="0 0 24.00 36.21">
<path d="M 5.0 4.0 L 5.46 4.0 L 5.92 4.0 L 6.38 4.0 L 6.83 4.0 L 7.29 4.0 L 7.75 4.0 L 8.21 4.0 L 8.67 4.0 L 9.12 4.0 L 9.58 4.0 L 10.04 4.0 L 10.5 4.0 L 10.96 4.0 L 11.42 4.0 L 11.88 4.0 L 12.33 4.0 L 12.79 4.0 L 13.25 4.0 L 13.71 4.0 L 14.17 4.0 L 14.62 4.0 L 15.08 4.0 L 15.54 4.0 L 16.0 4.0" fill="none" stroke="#111" stroke-width="1.27" stroke-linecap="round" stroke-linejoin="round"/>
<path d="M 8.0 4.0 L 8.12 4.17 L 8.25 4.33 L 8.38 4.5 L 8.5 4.67 L 8.62 4.83 L 8.75 5.0 L 8.88 5.17 L 9.0 5.33 L 9.12 5.5 L 9.25 5.67 L 9.38 5.83 L 9.5 6.0 L 9.62 6.17 L 9.75 6.33 L 9.88 6.5 L 10.0 6.67 L 10.12 6.83 L 10.25 7.0 L 10.38 7.17 L 10.5 7.33 L 10.62 7.5 L 10.75 7.67 L 10.88 7.83 L 11.0 8.0 L 11.0 8.0 L 11.08 7.83 L 11.17 7.67 L 11.25 7.5 L 11.33 7.33 L 11.42 7.17 L 11.5 7.0 L 11.58 6.83 L 11.67 6.67 L 11.75 6.5 L 11.83 6.33 L 11.92 6.17 L 12.0 6.0 L 12.08 5.83 L 12.17 5.67 L 12.25 5.5 L 12.33 5.33 L 12.42 5.17 L 12.5 5.0 L 12.58 4.83 L 12.67 4.67 L 12.75 4.5 L 12.83 4.33 L 12.92 4.17 L 13.0 4.0" fill="none" stroke="#111" stroke-width="1.27" stroke-linecap="round" stroke-linejoin="round"/>
<path d="M 11.0 8.0 L 11.0 8.42 L 11.0 8.83 L 11.0 9.25 L 11.0 9.67 L 11.0 10.08 L 11.0 10.5 L 11.0 10.92 L 11.0 11.33 L 11.0 11.75 L 11.0 12.17 L 11.0 12.58 L 11.0 13.0 L 11.0 13.42 L 11.0 13.83 L 11.0 14.25 L 11.0 14.67 L 11.0 15.08 L 11.0 15.5 L 11.0 15.92 L 11.0 16.33 L 11.0 16.75 L 11.0 17.17 L 11.0 17.58 L 11.0 18.0" fill="none" stroke="#111" stroke-width="1.27" stroke-linecap="round" stroke-linejoin="round"/>
<path d="M 6.0 10.0 L 6.21 10.17 L 6.42 10.33 L 6.62 10.5 L 6.83 10.67 L 7.04 10.83 L 7.25 11.0 L 7.46 11.17 L 7.67 11.33 L 7.88 11.5 L 8.08 11.67 L 8.29 11.83 L 8.5 12.0 L 8.71 12.17 L 8.92 12.33 L 9.12 12.5 L 9.33 12.67 L 9.54 12.83 L 9.75 13.0 L 9.96 13.17 L 10.17 13.33 L 10.38 13.5 L 10.58 13.67 L 10.79 13.83 L 11.0 14.0 L 11.0 14.0 L 11.17 13.79 L 11.33 13.58 L 11.5 13.38 L 11.67 13.17 L 11.83 12.96 L 12.0 12.75 L 12.17 12.54 L 12.33 12.33 L 12.5 12.12 L 12.67 11.92 L 12.83 11.71 L 13.0 11.5 L 13.17 11.29 L 13.33 11.08 L 13.5 10.88 L 13.67 10.67 L 13.83 10.46 L 14.0 10.25 L 14.17 10.04 L 14.33 9.83 L 14.5 9.62 L 14.67 9.42 L 14.83 9.21 L 15.0 9.0" fill="none" stroke="#111" stroke-width="1.27" stroke-linecap="round" stroke-linejoin="round"/>
<path d="M 4.0 32.0 L 4.08 31.42 L 4.17 30.83 L 4.25 30.25 L 4.33 29.67 L 4.42 29.08 L 4.5 28.5 L 4.58 27.92 L 4.67 27.33 L 4.75 26.75 L 4.83 26.17 L 4.92 25.58 L 5.0 25.0 L 5.08 24.42 L 5.17 23.83 L 5.25 23.25 L 5.33 22.67 L 5.42 22.08 L 5.5 21.5 L 5.58 20.92 L 5.67 20.33 L 5.75 19.75 L 5.83 19.17 L 5.92 18.58 L 6.0 18.0 L 6.0 18.0 L 6.42 18.0 L 6.83 18.0 L 7.25 18.0 L 7.67 18.0 L 8.08 18.0 L 8.5 18.0 L 8.92 18.0 L 9.33 18.0 L 9.75 18.0 L 10.17 18.0 L 10.58 18.0 L 11.0 18.0 L 11.42 18.0 L 11.83 18.0 L 12.25 18.0 L 12.67 18.0 L 13.08 18.0 L 13.5 18.0 L 13.92 18.0 L 14.33 18.0 L 14.75 18.0 L 15.17 18.0 L 15.58 18.0 L 16.0 18.0" fill="none" stroke="#111" stroke-width="1.27" stroke-linecap="round" stroke-linejoin="round"/>
<path d="M 16.0 18.0 L 16.17 18.33 L 16.33 18.67 L 16.5 19.0 L 16.67 19.33 L 16.83 19.67 L 17.0 20.0 L 17.17 20.33 L 17.33 20.67 L 17.5 21.0 L 17.67 21.33 L 17.83 21.67 L 18.0 22.0 L 18.17 22.33 L 18.33 22.67 L 18.5 23.0 L 18.67 23.33 L 18.83 23.67 L 19.0 24.0 L 19.17 24.33 L 19.33 24.67 L 19.5 25.0 L 19.67 25.33 L 19.83 25.67 L 20.0 26.0" fill="none" stroke="#111" stroke-width="1.27" stroke-linecap="round" stroke-linejoin="round"/>
<path d="M 11.0 18.0 L 10.75 18.25 L 10.5 18.5 L 10.25 18.75 L 10.0 19.0 L 9.75 19.25 L 9.5 19.5 L 9.25 19.75 L 9.0 20.0 L 8.75 20.25 L 8.5 20.5 L 8.25 20.75 L 8.0 21.0 L 7.75 21.25 L 7.5 21.5 L 7.25 21.75 L 7.0 22.0 L 6.75 22.25 L 6.5 22.5 L 6.25 22.75 L 6.0 23.0 L 5.75 23.25 L 5.5 23.5 L 5.25 23.75 L 5.0 24.0" fill="none" stroke="#111" stroke-width="1.27" stroke-linecap="round" stroke-linejoin="round"/>
<path d="M 11.0 18.0 L 11.29 18.21 L 11.58 18.42 L 11.88 18.62 L 12.17 18.83 L 12.46 19.04 L 12.75 19.25 L 13.04 19.46 L 13.33 19.67 L 13.62 19.88 L 13.92 20.08 L 14.21 20.29 L 14.5 20.5 L 14.79 20.71 L 15.08 20.92 L 15.38 21.12 L 15.67 21.33 L 15.96 21.54 L 16.25 21.75 L 16.54 21.96 L 16.83 22.17 L 17.12 22.38 L 17.42 22.58 L 17.71 22.79 L 18.0 23.0" fill="none" stroke="#111" stroke-width="1.27" stroke-linecap="round" stroke-linejoin="round"/>
<path d="M 9.0 25.0 L 8.56 25.7 L 8.25 26.47 L 8.09 27.29 L 8.08 28.12 L 8.23 28.93 L 8.52 29.71 L 8.96 30.42 L 9.51 31.03 L 10.17 31.54 L 10.92 31.91 L 11.71 32.14 L 12.54 32.21 L 13.37 32.14 L 14.16 31.91 L 14.91 31.54 L 15.57 31.03 L 16.12 30.42 L 16.56 29.71 L 16.85 28.93 L 17.0 28.12 L 16.99 27.29 L 16.83 26.47 L 16.52 25.7 L 16.08 25.0" fill="none" stroke="#111" stroke-width="1.27" stroke-linecap="round" stroke-linejoin="round"/>
<path d="M 9.0 27.0 L 9.25 27.0 L 9.5 27.0 L 9.75 27.0 L 10.0 27.0 L 10.25 27.0 L 10.5 27.0 L 10.75 27.0 L 11.0 27.0 L 11.25 27.0 L 11.5 27.0 L 11.75 27.0 L 12.0 27.0 L 12.25 27.0 L 12.5 27.0 L 12.75 27.0 L 13.0 27.0 L 13.25 27.0 L 13.5 27.0 L 13.75 27.0 L 14.0 27.0 L 14.25 27.0 L 14.5 27.0 L 14.75 27.0 L 15.0 27.0" fill="none" stroke="#111" stroke-width="1.27" stroke-linecap="round" stroke-linejoin="round"/>
</svg>
