<?xml version="1.0" encoding="UTF-8"?>
<svg xmlns="http://www.w3.org/2000/svg" viewBox="0 0 23.08 38.76">
<path d="M 8.0 5.0 L 7.74 5.82 L 7.55 6.66 L 7.44 7.52 L 7.4 8.38 L 7.44 9.24 L 7.55 10.1 L 7.74 10.94 L 8.0 11.76 L 8.34 12.55 L 8.74 13.32 L 9.21 14.04 L 9.74 14.72 L 10.33 15.35 L 10.98 15.92 L 11.67 16.44 L 12.4 16.89 L 13.17 17.28 L 13.98 17.59 L 14.8 17.84 L 15.65 18.01 L 16.51 18.1 L 17.37 18.12 L 18.23 18.06 L 19.08 17.93" fill="none" stroke="#111" stroke-width="1.36" stroke-linecap="round" stroke-linejoin="round"/>
<path d="M 11.0 4.0 L 11.24 4.15 L 11.46 4.32 L 11.68 4.5 L 11.88 4.7 L 12.06 4.91 L 12.23 5.14 L 12.38 5.38 L 12.52 5.63 L 12.63 5.88 L 12.73 6.15 L 12.8 6.42 L 12.86 6.7 L 12.9 6.98 L 12.91 7.26 L 12.91 7.54 L 12.88 7.82 L 12.84 8.1 L 12.77 8.37 L 12.68 8.64 L 12.58 8.9 L 12.45 9.15 L 12.31 9.4 L 12.15 9.63 L 11.98 9.85 L 12.0 10.0 L 12.08 10.12 L 12.17 10.25 L 12.25 10.38 L 12.33 10.5 L 12.42 10.62 L 12.5 10.75 L 12.58 10.88 L 12.67 11.0 L 12.75 11.12 L 12.83 11.25 L 12.92 11.38 L 13.0 11.5 L 13.08 11.62 L 13.17 11.75 L 13.25 11.88 L 13.33 12.0 L 13.42 12.12 L 13.5 12.25 L 13.58 12.38 L 13.67 12.5 L 13.75 12.62 L 13.83 12.75 L 13.92 12.88 L 14.0 13.0" fill="none" stroke="#111" stroke-width="1.36" stroke-linecap="round" stroke-linejoin="round"/>
<path d="M 4.0 10.0 L 4.52 9.67 L 5.06 9.37 L 5.62 9.1 L 6.19 8.87 L 6.78 8.68 L 7.37 8.52 L 7.98 8.4 L 8.59 8.31 L 9.21 8.27 L 9.83 8.26 L 10.44 8.29 L 11.06 8.36 L 11.67 8.46 L 12.27 8.61 L 12.86 8.79 L 13.44 9.0 L 14.0 9.26 L 14.55 9.54 L 15.08 9.86 L 15.58 10.21 L 16.07 10.59 L 16.53 11.01 L 16.96 11.45 L 17.37 11.91" fill="none" stroke="#111" stroke-width="1.36" stroke-linecap="round" stroke-linejoin="round"/>
<path d="M 4.0 10.0 L 4.34 10.57 L 4.72 11.11 L 5.14 11.62 L 5.6 12.09 L 6.09 12.53 L 6.62 12.93 L 7.17 13.28 L 7.76 13.6 L 8.36 13.86 L 8.98 14.08 L 9.62 14.25 L 10.27 14.37 L 10.93 14.44 L 11.59 14.45 L 12.25 14.42 L 12.9 14.33 L 13.55 14.2 L 14.18 14.01 L 14.8 13.77 L 15.4 13.49 L 15.97 13.17 L 16.52 12.79 L 17.03 12.38 L 17.52 11.93" fill="none" stroke="#111" stroke-width="1.36" stroke-linecap="round" stroke-linejoin="round"/>
<path d="M 10.0 16.0 L 9.76 16.15 L 9.54 16.31 L 9.33 16.5 L 9.13 16.69 L 8.94 16.9 L 8.78 17.13 L 8.63 17.36 L 8.49 17.61 L 8.38 17.86 L 8.28 18.13 L 8.21 18.39 L 8.15 18.67 L 8.11 18.94 L 8.1 19.22 L 8.1 19.5 L 8.13 19.78 L 8.18 20.06 L 8.24 20.33 L 8.33 20.59 L 8.43 20.85 L 8.56 21.1 L 8.7 21.34 L 8.86 21.57 L 9.03 21.79 L 9.0 22.0 L 8.57 22.39 L 8.16 22.81 L 7.77 23.25 L 7.41 23.7 L 7.07 24.18 L 6.76 24.67 L 6.47 25.18 L 6.21 25.7 L 5.98 26.23 L 5.77 26.78 L 5.6 27.33 L 5.45 27.9 L 5.33 28.47 L 5.25 29.05 L 5.19 29.63 L 5.17 30.21 L 5.17 30.79 L 5.21 31.38 L 5.28 31.96 L 5.37 32.53 L 5.5 33.1 L 5.66 33.66 L 5.84 34.22 L 6.06 34.76" fill="none" stroke="#111" stroke-width="1.36" stroke-linecap="round" stroke-linejoin="round"/>
<path d="M 14.0 19.0 L 13.33 19.41 L 12.7 19.88 L 12.11 20.4 L 11.57 20.97 L 11.08 21.59 L 10.65 22.25 L 10.28 22.95 L 9.97 23.67 L 9.73 24.42 L 9.56 25.19 L 9.45 25.97 L 9.42 26.76 L 9.45 27.54 L 9.56 28.32 L 9.73 29.09 L 9.97 29.84 L 10.28 30.56 L 10.65 31.26 L 11.08 31.92 L 11.57 32.54 L 12.11 33.11 L 12.7 33.63 L 13.33 34.1 L 14.0 34.51" fill="none" stroke="#111" stroke-width="1.36" stroke-linecap="round" stroke-linejoin="round"/>
<path d="M 16.0 22.0 L 15.8 22.33 L 15.61 22.66 L 15.44 23.01 L 15.28 23.36 L 15.13 23.71 L 14.99 24.07 L 14.87 24.44 L 14.76 24.81 L 14.67 25.18 L 14.59 25.56 L 14.53 25.94 L 14.48 26.32 L 14.44 26.7 L 14.42 27.09 L 14.42 27.47 L 14.43 27.85 L 14.45 28.24 L 14.49 28.62 L 14.54 29.0 L 14.61 29.38 L 14.69 29.76 L 14.78 30.13 L 14.89 30.5 L 15.02 30.86" fill="none" stroke="#111" stroke-width="1.36" stroke-linecap="round" stroke-linejoin="round"/>
<path d="M 13.0 30.0 L 13.08 29.83 L 13.17 29.67 L 13.25 29.5 L 13.33 29.33 L 13.42 29.17 L 13.5 29.0 L 13.58 28.83 L 13.67 28.67 L 13.75 28.5 L 13.83 28.33 L 13.92 28.17 L 14.0 28.0 L 14.08 27.83 L 14.17 27.67 L 14.25 27.5 L 14.33 27.33 L 14.42 27.17 L 14.5 27.0 L 14.58 26.83 L 14.67 26.67 L 14.75 26.5 L 14.83 26.33 L 14.92 26.17 L 15.0 26.0" fill="none" stroke="#111" stroke-width="1.36" stroke-linecap="round" stroke-linejoin="round"/>
</svg>
