<?xml version="1.0" encoding="UTF-8"?>
<svg xmlns="http://www.w3.org/2000/svg" viewBox="0 0 28.28 34.55">
<path d="M 6.0 4.0 L 6.29 4.12 L 6.58 4.25 L 6.88 4.38 L 7.17 4.5 L 7.46 4.62 L 7.75 4.75 L 8.04 4.88 L 8.33 5.0 L 8.62 5.12 L 8.92 5.25 L 9.21 5.38 L 9.5 5.5 L 9.79 5.62 L 10.08 5.75 L 10.38 5.88 L 10.67 6.0 L 10.96 6.12 L 11.25 6.25 L 11.54 6.38 L 11.83 6.5 L 12.12 6.62 L 12.42 6.75 L 12.71 6.88 L 13.0 7.0 L 13.0 7.0 L 12.96 7.17 L 12.92 7.33 L 12.88 7.5 L 12.83 7.67 L 12.79 7.83 L 12.75 8.0 L 12.71 8.17 L 12.67 8.33 L 12.62 8.5 L 12.58 8.67 L 12.54 8.83 L 12.5 9.0 L 12.46 9.17 L 12.42 9.33 L 12.38 9.5 L 12.33 9.67 L 12.29 9.83 L 12.25 10.0 L 12.21 10.17 L 12.17 10.33 L 12.12 10.5 L 12.08 10.67 L 12.04 10.83 L 12.0 11.0" fill="none" stroke="#111" stroke-width="1.21" stroke-linecap="round" stroke-linejoin="round"/>
<path d="M 4.0 8.0 L 4.33 8.12 L 4.67 8.25 L 5.0 8.38 L 5.33 8.5 L 5.67 8.62 L 6.0 8.75 L 6.33 8.88 L 6.67 9.0 L 7.0 9.12 L 7.33 9.25 L 7.67 9.38 L 8.0 9.5 L 8.33 9.62 L 8.67 9.75 L 9.0 9.88 L 9.33 10.0 L 9.67 10.12 L 10.0 10.25 L 10.33 10.38 L 10.67 10.5 L 11.0 10.62 L 11.33 10.75 L 11.67 10.88 L 12.0 11.0" fill="none" stroke="#111" stroke-width="1.21" stroke-linecap="round" stroke-linejoin="round"/>
<path d="M 9.0 6.0 L 9.0 6.12 L 9.0 6.25 L 9.0 6.38 L 9.0 6.5 L 9.0 6.62 L 9.0 6.75 L 9.0 6.88 L 9.0 7.0 L 9.0 7.12 L 9.0 7.25 L 9.0 7.38 L 9.0 7.5 L 9.0 7.62 L 9.0 7.75 L 9.0 7.88 L 9.0 8.0 L 9.0 8.12 L 9.0 8.25 L 9.0 8.38 L 9.0 8.5 L 9.0 8.62 L 9.0 8.75 L 9.0 8.88 L 9.0 9.0" fill="none" stroke="#111" stroke-width="1.21" stroke-linecap="round" stroke-linejoin="round"/>
<path d="M 12.0 11.0 L 11.75 11.17 L 11.5 11.33 L 11.25 11.5 L 11.0 11.67 L 10.75 11.83 L 10.5 12.0 L 10.25 12.17 L 10.0 12.33 L 9.75 12.5 L 9.5 12.67 L 9.25 12.83 L 9.0 13.0 L 8.75 13.17 L 8.5 13.33 L 8.25 13.5 L 8.0 13.67 L 7.75 13.83 L 7.5 14.0 L 7.25 14.17 L 7.0 14.33 L 6.75 14.5 L 6.5 14.67 L 6.25 14.83 L 6.0 15.0" fill="none" stroke="#111" stroke-width="1.21" stroke-linecap="round" stroke-linejoin="round"/>
<path d="M 11.0 12.0 L 11.12 12.25 L 11.25 12.5 L 11.38 12.75 L 11.5 13.0 L 11.62 13.25 L 11.75 13.5 L 11.88 13.75 L 12.0 14.0 L 12.12 14.25 L 12.25 14.5 L 12.38 14.75 L 12.5 15.0 L 12.62 15.25 L 12.75 15.5 L 12.88 15.75 L 13.0 16.0 L 13.12 16.25 L 13.25 16.5 L 13.38 16.75 L 13.5 17.0 L 13.62 17.25 L 13.75 17.5 L 13.88 17.75 L 14.0 18.0" fill="none" stroke="#111" stroke-width="1.21" stroke-linecap="round" stroke-linejoin="round"/>
<path d="M 8.0 14.0 L 8.12 14.29 L 8.25 14.58 L 8.38 14.88 L 8.5 15.17 L 8.62 15.46 L 8.75 15.75 L 8.88 16.04 L 9.0 16.33 L 9.12 16.62 L 9.25 16.92 L 9.38 17.21 L 9.5 17.5 L 9.62 17.79 L 9.75 18.08 L 9.88 18.38 L 10.0 18.67 L 10.12 18.96 L 10.25 19.25 L 10.38 19.54 L 10.5 19.83 L 10.62 20.12 L 10.75 20.42 L 10.88 20.71 L 11.0 21.0" fill="none" stroke="#111" stroke-width="1.21" stroke-linecap="round" stroke-linejoin="round"/>
<path d="M 14.0 16.0 L 14.03 16.41 L 14.04 16.82 L 14.03 17.22 L 13.99 17.63 L 13.94 18.04 L 13.86 18.44 L 13.75 18.83 L 13.63 19.22 L 13.48 19.6 L 13.32 19.98 L 13.13 20.34 L 12.92 20.69 L 12.7 21.03 L 12.45 21.36 L 12.19 21.67 L 11.91 21.97 L 11.61 22.25 L 11.3 22.52 L 10.98 22.77 L 10.64 23.0 L 10.29 23.21 L 9.93 23.4 L 9.56 23.57 L 9.18 23.72" fill="none" stroke="#111" stroke-width="1.21" stroke-linecap="round" stroke-linejoin="round"/>
<path d="M 10.0 27.0 L 10.29 27.08 L 10.58 27.17 L 10.88 27.25 L 11.17 27.33 L 11.46 27.42 L 11.75 27.5 L 12.04 27.58 L 12.33 27.67 L 12.62 27.75 L 12.92 27.83 L 13.21 27.92 L 13.5 28.0 L 13.79 28.08 L 14.08 28.17 L 14.38 28.25 L 14.67 28.33 L 14.96 28.42 L 15.25 28.5 L 15.54 28.58 L 15.83 28.67 L 16.12 28.75 L 16.42 28.83 L 16.71 28.92 L 17.0 29.0" fill="none" stroke="#111" stroke-width="1.21" stroke-linecap="round" stroke-linejoin="round"/>
<path d="M 13.0 25.0 L 13.09 25.91 L 13.32 26.79 L 13.69 27.62 L 14.18 28.38 L 14.8 29.05 L 15.51 29.61 L 16.31 30.06 L 17.16 30.36 L 18.06 30.53 L 18.97 30.55 L 19.87 30.43 L 20.74 30.16 L 21.55 29.75 L 22.29 29.22 L 22.94 28.58 L 23.47 27.84 L 23.88 27.03 L 24.15 26.16 L 24.28 25.26 L 24.26 24.35 L 24.09 23.45 L 23.79 22.6 L 23.35 21.8 L 22.79 21.09" fill="none" stroke="#111" stroke-width="1.21" stroke-linecap="round" stroke-linejoin="round"/>
</svg>
