<?xml version="1.0" encoding="UTF-8"?>
<svg xmlns="http://www.w3.org/2000/svg" viewBox="0 0 20.66 38.14">
<path d="M 7.64 8.0 L 7.77 8.21 L 7.89 8.42 L 8.02 8.62 L 8.14 8.83 L 8.27 9.04 L 8.39 9.25 L 8.52 9.46 L 8.64 9.67 L 8.77 9.88 L 8.89 10.08 L 9.02 10.29 L 9.14 10.5 L 9.27 10.71 L 9.39 10.92 L 9.52 11.12 L 9.64 11.33 L 9.77 11.54 L 9.89 11.75 L 10.02 11.96 L 10.14 12.17 L 10.27 12.38 L 10.39 12.58 L 10.52 12.79 L 10.64 13.0" fill="none" stroke="#111" stroke-width="1.33" stroke-linecap="round" stroke-linejoin="round"/>
<path d="M 13.64 4.0 L 13.52 4.38 L 13.39 4.75 L 13.27 5.12 L 13.14 5.5 L 13.02 5.88 L 12.89 6.25 L 12.77 6.62 L 12.64 7.0 L 12.52 7.38 L 12.39 7.75 L 12.27 8.12 L 12.14 8.5 L 12.02 8.88 L 11.89 9.25 L 11.77 9.62 L 11.64 10.0 L 11.52 10.38 L 11.39 10.75 L 11.27 11.12 L 11.14 11.5 L 11.02 11.88 L 10.89 12.25 L 10.77 12.62 L 10.64 13.0" fill="none" stroke="#111" stroke-width="1.33" stroke-linecap="round" stroke-linejoin="round"/>
<path d="M 10.64 13.0 L 10.64 13.5 L 10.64 14.0 L 10.64 14.5 L 10.64 15.0 L 10.64 15.5 L 10.64 16.0 L 10.64 16.5 L 10.64 17.0 L 10.64 17.5 L 10.64 18.0 L 10.64 18.5 L 10.64 19.0 L 10.64 19.5 L 10.64 20.0 L 10.64 20.5 L 10.64 21.0 L 10.64 21.5 L 10.64 22.0 L 10.64 22.5 L 10.64 23.0 L 10.64 23.5 L 10.64 24.0 L 10.64 24.5 L 10.64 25.0" fill="none" stroke="#111" stroke-width="1.33" stroke-linecap="round" stroke-linejoin="round"/>
<path d="M 4.64 28.0 L 5.1 28.0 L 5.56 28.0 L 6.02 28.0 L 6.48 28.0 L 6.93 28.0 L 7.39 28.0 L 7.85 28.0 L 8.31 28.0 L 8.77 28.0 L 9.23 28.0 L 9.68 28.0 L 10.14 28.0 L 10.6 28.0 L 11.06 28.0 L 11.52 28.0 L 11.98 28.0 L 12.43 28.0 L 12.89 28.0 L 13.35 28.0 L 13.81 28.0 L 14.27 28.0 L 14.73 28.0 L 15.18 28.0 L 15.64 28.0" fill="none" stroke="#111" stroke-width="1.33" stroke-linecap="round" stroke-linejoin="round"/>
<path d="M 4.64 25.0 L 4.25 26.0 L 4.04 27.04 L 4.0 28.11 L 4.14 29.17 L 4.46 30.2 L 4.95 31.15 L 5.59 32.01 L 6.37 32.74 L 7.25 33.34 L 8.23 33.78 L 9.27 34.05 L 10.33 34.14 L 11.4 34.05 L 12.43 33.78 L 13.41 33.34 L 14.3 32.74 L 15.07 32.01 L 15.71 31.15 L 16.2 30.2 L 16.52 29.17 L 16.66 28.11 L 16.63 27.04 L 16.41 26.0 L 16.02 25.0" fill="none" stroke="#111" stroke-width="1.33" stroke-linecap="round" stroke-linejoin="round"/>
<path d="M 5.64 14.0 L 5.64 14.38 L 5.64 14.75 L 5.64 15.12 L 5.64 15.5 L 5.64 15.88 L 5.64 16.25 L 5.64 16.62 L 5.64 17.0 L 5.64 17.38 L 5.64 17.75 L 5.64 18.12 L 5.64 18.5 L 5.64 18.88 L 5.64 19.25 L 5.64 19.62 L 5.64 20.0 L 5.64 20.38 L 5.64 20.75 L 5.64 21.12 L 5.64 21.5 L 5.64 21.88 L 5.64 22.25 L 5.64 22.62 L 5.64 23.0" fill="none" stroke="#111" stroke-width="1.33" stroke-linecap="round" stroke-linejoin="round"/>
<path d="M 14.64 13.0 L 14.64 13.38 L 14.64 13.75 L 14.64 14.12 L 14.64 14.5 L 14.64 14.88 L 14.64 15.25 L 14.64 15.62 L 14.64 16.0 L 14.64 16.38 L 14.64 16.75 L 14.64 17.12 L 14.64 17.5 L 14.64 17.88 L 14.64 18.25 L 14.64 18.62 L 14.64 19.0 L 14.64 19.38 L 14.64 19.75 L 14.64 20.12 L 14.64 20.5 L 14.64 20.88 L 14.64 21.25 L 14.64 21.62 L 14.64 22.0" fill="none" stroke="#111" stroke-width="1.33" stroke-linecap="round" stroke-linejoin="round"/>
</svg>
