<?xml version="1.0" encoding="UTF-8"?>
<svg xmlns="http://www.w3.org/2000/svg" viewBox="0 0 23.60 39.57">
<path d="M 7.0 8.0 L 7.5 8.12 L 8.0 8.25 L 8.5 8.38 L 9.0 8.5 L 9.5 8.62 L 10.0 8.75 L 10.5 8.88 L 11.0 9.0 L 11.5 9.12 L 12.0 9.25 L 12.5 9.38 L 13.0 9.5 L 13.5 9.62 L 14.0 9.75 L 14.5 9.88 L 15.0 10.0 L 15.5 10.12 L 16.0 10.25 L 16.5 10.38 L 17.0 10.5 L 17.5 10.62 L 18.0 10.75 L 18.5 10.88 L 19.0 11.0" fill="none" stroke="#111" stroke-width="1.38" stroke-linecap="round" stroke-linejoin="round"/>
<path d="M 12.0 4.0 L 12.37 4.73 L 12.69 5.49 L 12.95 6.26 L 13.15 7.06 L 13.28 7.87 L 13.35 8.69 L 13.36 9.51 L 13.31 10.32 L 13.19 11.14 L 13.02 11.94 L 12.78 12.72 L 12.48 13.48 L 12.12 14.22 L 11.71 14.93 L 11.24 15.6 L 10.72 16.24 L 10.16 16.84 L 9.55 17.39 L 8.9 17.89 L 8.21 18.34 L 7.5 18.73 L 6.75 19.07 L 5.98 19.35 L 5.19 19.57" fill="none" stroke="#111" stroke-width="1.38" stroke-linecap="round" stroke-linejoin="round"/>
<path d="M 13.0 13.0 L 13.17 13.62 L 13.33 14.25 L 13.5 14.88 L 13.67 15.5 L 13.83 16.12 L 14.0 16.75 L 14.17 17.38 L 14.33 18.0 L 14.5 18.62 L 14.67 19.25 L 14.83 19.88 L 15.0 20.5 L 15.17 21.12 L 15.33 21.75 L 15.5 22.38 L 15.67 23.0 L 15.83 23.62 L 16.0 24.25 L 16.17 24.88 L 16.33 25.5 L 16.5 26.12 L 16.67 26.75 L 16.83 27.38 L 17.0 28.0" fill="none" stroke="#111" stroke-width="1.38" stroke-linecap="round" stroke-linejoin="round"/>
<path d="M 9.0 16.0 L 9.0 16.25 L 9.0 16.5 L 9.0 16.75 L 9.0 17.0 L 9.0 17.25 L 9.0 17.5 L 9.0 17.75 L 9.0 18.0 L 9.0 18.25 L 9.0 18.5 L 9.0 18.75 L 9.0 19.0 L 9.0 19.25 L 9.0 19.5 L 9.0 19.75 L 9.0 20.0 L 9.0 20.25 L 9.0 20.5 L 9.0 20.75 L 9.0 21.0 L 9.0 21.25 L 9.0 21.5 L 9.0 21.75 L 9.0 22.0 L 9.0 22.0 L 9.17 22.21 L 9.33 22.42 L 9.5 22.62 L 9.67 22.83 L 9.83 23.04 L 10.0 23.25 L 10.17 23.46 L 10.33 23.67 L 10.5 23.88 L 10.67 24.08 L 10.83 24.29 L 11.0 24.5 L 11.17 24.71 L 11.33 24.92 L 11.5 25.12 L 11.67 25.33 L 11.83 25.54 L 12.0 25.75 L 12.17 25.96 L 12.33 26.17 L 12.5 26.38 L 12.67 26.58 L 12.83 26.79 L 13.0 27.0" fill="none" stroke="#111" stroke-width="1.38" stroke-linecap="round" stroke-linejoin="round"/>
<path d="M 15.0 25.0 L 14.75 25.21 L 14.5 25.42 L 14.25 25.62 L 14.0 25.83 L 13.75 26.04 L 13.5 26.25 L 13.25 26.46 L 13.0 26.67 L 12.75 26.88 L 12.5 27.08 L 12.25 27.29 L 12.0 27.5 L 11.75 27.71 L 11.5 27.92 L 11.25 28.12 L 11.0 28.33 L 10.75 28.54 L 10.5 28.75 L 10.25 28.96 L 10.0 29.17 L 9.75 29.38 L 9.5 29.58 L 9.25 29.79 L 9.0 30.0" fill="none" stroke="#111" stroke-width="1.38" stroke-linecap="round" stroke-linejoin="round"/>
<path d="M 17.0 27.0 L 16.21 26.87 L 15.4 26.88 L 14.62 27.04 L 13.87 27.34 L 13.2 27.77 L 12.61 28.32 L 12.14 28.97 L 11.79 29.7 L 11.58 30.47 L 11.51 31.27 L 11.6 32.07 L 11.83 32.84 L 12.19 33.56 L 12.68 34.19 L 13.28 34.73 L 13.97 35.14 L 14.72 35.43 L 15.51 35.57 L 16.31 35.56 L 17.1 35.41 L 17.85 35.12 L 18.53 34.69 L 19.12 34.15 L 19.6 33.5" fill="none" stroke="#111" stroke-width="1.38" stroke-linecap="round" stroke-linejoin="round"/>
<path d="M 6.0 21.0 L 5.92 21.12 L 5.83 21.25 L 5.75 21.38 L 5.67 21.5 L 5.58 21.62 L 5.5 21.75 L 5.42 21.88 L 5.33 22.0 L 5.25 22.12 L 5.17 22.25 L 5.08 22.38 L 5.0 22.5 L 4.92 22.62 L 4.83 22.75 L 4.75 22.88 L 4.67 23.0 L 4.58 23.12 L 4.5 23.25 L 4.42 23.38 L 4.33 23.5 L 4.25 23.62 L 4.17 23.75 L 4.08 23.88 L 4.0 24.0" fill="none" stroke="#111" stroke-width="1.38" stroke-linecap="round" stroke-linejoin="round"/>
<path d="M 7.0 25.0 L 6.92 25.12 L 6.83 25.25 L 6.75 25.38 L 6.67 25.5 L 6.58 25.62 L 6.5 25.75 L 6.42 25.88 L 6.33 26.0 L 6.25 26.12 L 6.17 26.25 L 6.08 26.38 L 6.0 26.5 L 5.92 26.62 L 5.83 26.75 L 5.75 26.88 L 5.67 27.0 L 5.58 27.12 L 5.5 27.25 L 5.42 27.38 L 5.33 27.5 L 5.25 27.62 L 5.17 27.75 L 5.08 27.88 L 5.0 28.0" fill="none" stroke="#111" stroke-width="1.38" stroke-linecap="round" stroke-linejoin="round"/>
<path d="M 9.0 27.0 L 8.92 27.17 L 8.83 27.33 L 8.75 27.5 L 8.67 27.67 L 8.58 27.83 L 8.5 28.0 L 8.42 28.17 L 8.33 28.33 L 8.25 28.5 L 8.17 28.67 L 8.08 28.83 L 8.0 29.0 L 7.92 29.17 L 7.83 29.33 L 7.75 29.5 L 7.67 29.67 L 7.58 29.83 L 7.5 30.0 L 7.42 30.17 L 7.33 30.33 L 7.25 30.5 L 7.17 30.67 L 7.08 30.83 L 7.0 31.0" fill="none" stroke="#111" stroke-width="1.38" stroke-linecap="round" stroke-linejoin="round"/>
</svg>
