<?xml version="1.0" encoding="UTF-8"?>
<svg xmlns="http://www.w3.org/2000/svg" viewBox="0 0 22.35 40.31">
<path d="M 11.0 4.0 L 10.92 4.12 L 10.83 4.25 L 10.75 4.38 L 10.67 4.5 L 10.58 4.62 L 10.5 4.75 L 10.42 4.88 L 10.33 5.0 L 10.25 5.12 L 10.17 5.25 L 10.08 5.38 L 10.0 5.5 L 9.92 5.62 L 9.83 5.75 L 9.75 5.88 L 9.67 6.0 L 9.58 6.12 L 9.5 6.25 L 9.42 6.38 L 9.33 6.5 L 9.25 6.62 L 9.17 6.75 L 9.08 6.88 L 9.0 7.0 L 9.0 7.0 L 9.12 7.04 L 9.25 7.08 L 9.38 7.12 L 9.5 7.17 L 9.62 7.21 L 9.75 7.25 L 9.88 7.29 L 10.0 7.33 L 10.12 7.38 L 10.25 7.42 L 10.38 7.46 L 10.5 7.5 L 10.62 7.54 L 10.75 7.58 L 10.88 7.62 L 11.0 7.67 L 11.12 7.71 L 11.25 7.75 L 11.38 7.79 L 11.5 7.83 L 11.62 7.88 L 11.75 7.92 L 11.88 7.96 L 12.0 8.0" fill="none" stroke="#111" stroke-width="1.41" stroke-linecap="round" stroke-linejoin="round"/>
<path d="M 10.0 6.0 L 10.49 5.7 L 11.01 5.47 L 11.55 5.29 L 12.11 5.18 L 12.68 5.13 L 13.26 5.15 L 13.82 5.24 L 14.37 5.39 L 14.9 5.6 L 15.41 5.87 L 15.87 6.2 L 16.3 6.58 L 16.68 7.01 L 17.01 7.48 L 17.28 7.98 L 17.49 8.51 L 17.64 9.06 L 17.73 9.63 L 17.75 10.2 L 17.7 10.77 L 17.59 11.33 L 17.41 11.87 L 17.18 12.39 L 16.88 12.88 L 17.0 13.0 L 17.24 13.37 L 17.46 13.76 L 17.66 14.16 L 17.84 14.57 L 17.99 14.98 L 18.11 15.41 L 18.21 15.85 L 18.28 16.28 L 18.33 16.73 L 18.35 17.17 L 18.35 17.62 L 18.32 18.06 L 18.26 18.5 L 18.18 18.94 L 18.07 19.37 L 17.93 19.79 L 17.77 20.21 L 17.59 20.61 L 17.38 21.01 L 17.15 21.39 L 16.9 21.75 L 16.63 22.11 L 16.34 22.44 L 16.02 22.76 L 16.0 23.0 L 16.0 23.21 L 16.0 23.42 L 16.0 23.62 L 16.0 23.83 L 16.0 24.04 L 16.0 24.25 L 16.0 24.46 L 16.0 24.67 L 16.0 24.88 L 16.0 25.08 L 16.0 25.29 L 16.0 25.5 L 16.0 25.71 L 16.0 25.92 L 16.0 26.12 L 16.0 26.33 L 16.0 26.54 L 16.0 26.75 L 16.0 26.96 L 16.0 27.17 L 16.0 27.38 L 16.0 27.58 L 16.0 27.79 L 16.0 28.0" fill="none" stroke="#111" stroke-width="1.41" stroke-linecap="round" stroke-linejoin="round"/>
<path d="M 9.0 12.0 L 9.25 12.21 L 9.5 12.42 L 9.75 12.62 L 10.0 12.83 L 10.25 13.04 L 10.5 13.25 L 10.75 13.46 L 11.0 13.67 L 11.25 13.88 L 11.5 14.08 L 11.75 14.29 L 12.0 14.5 L 12.25 14.71 L 12.5 14.92 L 12.75 15.12 L 13.0 15.33 L 13.25 15.54 L 13.5 15.75 L 13.75 15.96 L 14.0 16.17 L 14.25 16.38 L 14.5 16.58 L 14.75 16.79 L 15.0 17.0" fill="none" stroke="#111" stroke-width="1.41" stroke-linecap="round" stroke-linejoin="round"/>
<path d="M 13.0 10.0 L 12.92 10.29 L 12.83 10.58 L 12.75 10.88 L 12.67 11.17 L 12.58 11.46 L 12.5 11.75 L 12.42 12.04 L 12.33 12.33 L 12.25 12.62 L 12.17 12.92 L 12.08 13.21 L 12.0 13.5 L 11.92 13.79 L 11.83 14.08 L 11.75 14.38 L 11.67 14.67 L 11.58 14.96 L 11.5 15.25 L 11.42 15.54 L 11.33 15.83 L 11.25 16.12 L 11.17 16.42 L 11.08 16.71 L 11.0 17.0 L 11.0 17.0 L 11.04 17.33 L 11.08 17.67 L 11.12 18.0 L 11.17 18.33 L 11.21 18.67 L 11.25 19.0 L 11.29 19.33 L 11.33 19.67 L 11.38 20.0 L 11.42 20.33 L 11.46 20.67 L 11.5 21.0 L 11.54 21.33 L 11.58 21.67 L 11.62 22.0 L 11.67 22.33 L 11.71 22.67 L 11.75 23.0 L 11.79 23.33 L 11.83 23.67 L 11.88 24.0 L 11.92 24.33 L 11.96 24.67 L 12.0 25.0 L 12.0 25.0 L 11.68 25.48 L 11.41 25.99 L 11.17 26.52 L 10.97 27.06 L 10.82 27.62 L 10.71 28.19 L 10.65 28.76 L 10.63 29.34 L 10.66 29.92 L 10.73 30.49 L 10.85 31.06 L 11.01 31.61 L 11.21 32.15 L 11.46 32.68 L 11.75 33.18 L 12.07 33.66 L 12.43 34.11 L 12.83 34.53 L 13.25 34.92 L 13.71 35.27 L 14.19 35.59 L 14.7 35.87 L 15.23 36.11 L 15.77 36.31" fill="none" stroke="#111" stroke-width="1.41" stroke-linecap="round" stroke-linejoin="round"/>
<path d="M 4.0 16.0 L 4.25 16.04 L 4.5 16.08 L 4.75 16.12 L 5.0 16.17 L 5.25 16.21 L 5.5 16.25 L 5.75 16.29 L 6.0 16.33 L 6.25 16.38 L 6.5 16.42 L 6.75 16.46 L 7.0 16.5 L 7.25 16.54 L 7.5 16.58 L 7.75 16.62 L 8.0 16.67 L 8.25 16.71 L 8.5 16.75 L 8.75 16.79 L 9.0 16.83 L 9.25 16.88 L 9.5 16.92 L 9.75 16.96 L 10.0 17.0" fill="none" stroke="#111" stroke-width="1.41" stroke-linecap="round" stroke-linejoin="round"/>
<path d="M 9.0 18.0 L 8.96 18.29 L 8.92 18.58 L 8.88 18.88 L 8.83 19.17 L 8.79 19.46 L 8.75 19.75 L 8.71 20.04 L 8.67 20.33 L 8.62 20.62 L 8.58 20.92 L 8.54 21.21 L 8.5 21.5 L 8.46 21.79 L 8.42 22.08 L 8.38 22.38 L 8.33 22.67 L 8.29 22.96 L 8.25 23.25 L 8.21 23.54 L 8.17 23.83 L 8.12 24.12 L 8.08 24.42 L 8.04 24.71 L 8.0 25.0" fill="none" stroke="#111" stroke-width="1.41" stroke-linecap="round" stroke-linejoin="round"/>
<path d="M 4.0 26.0 L 4.33 26.0 L 4.67 26.0 L 5.0 26.0 L 5.33 26.0 L 5.67 26.0 L 6.0 26.0 L 6.33 26.0 L 6.67 26.0 L 7.0 26.0 L 7.33 26.0 L 7.67 26.0 L 8.0 26.0 L 8.33 26.0 L 8.67 26.0 L 9.0 26.0 L 9.33 26.0 L 9.67 26.0 L 10.0 26.0 L 10.33 26.0 L 10.67 26.0 L 11.0 26.0 L 11.33 26.0 L 11.67 26.0 L 12.0 26.0" fill="none" stroke="#111" stroke-width="1.41" stroke-linecap="round" stroke-linejoin="round"/>
</svg>
