<?xml version="1.0" encoding="UTF-8"?>
<svg xmlns="http://www.w3.org/2000/svg" viewBox="0 0 23.00 37.00">
<path d="M 4.0 4.0 L 4.71 5.02 L 5.37 6.07 L 5.99 7.15 L 6.57 8.25 L 7.1 9.38 L 7.59 10.52 L 8.03 11.69 L 8.42 12.87 L 8.76 14.06 L 9.06 15.27 L 9.3 16.49 L 9.49 17.72 L 9.64 18.95 L 9.73 20.19 L 9.78 21.44 L 9.77 22.68 L 9.71 23.92 L 9.61 25.16 L 9.45 26.4 L 9.24 27.62 L 8.98 28.84 L 8.68 30.04 L 8.32 31.24 L 7.92 32.41" fill="none" stroke="#111" stroke-width="1.30" stroke-linecap="round" stroke-linejoin="round"/>
<path d="M 10.0 4.0 L 9.88 4.21 L 9.75 4.42 L 9.62 4.62 L 9.5 4.83 L 9.38 5.04 L 9.25 5.25 L 9.12 5.46 L 9.0 5.67 L 8.88 5.88 L 8.75 6.08 L 8.62 6.29 L 8.5 6.5 L 8.38 6.71 L 8.25 6.92 L 8.12 7.12 L 8.0 7.33 L 7.88 7.54 L 7.75 7.75 L 7.63 7.96 L 7.5 8.17 L 7.38 8.38 L 7.25 8.58 L 7.13 8.79 L 7.0 9.0" fill="none" stroke="#111" stroke-width="1.30" stroke-linecap="round" stroke-linejoin="round"/>
<path d="M 12.0 11.0 L 12.29 11.12 L 12.58 11.25 L 12.88 11.38 L 13.17 11.5 L 13.46 11.62 L 13.75 11.75 L 14.04 11.88 L 14.33 12.0 L 14.62 12.12 L 14.92 12.25 L 15.21 12.38 L 15.5 12.5 L 15.79 12.62 L 16.08 12.75 L 16.38 12.88 L 16.67 13.0 L 16.96 13.12 L 17.25 13.25 L 17.54 13.38 L 17.83 13.5 L 18.12 13.62 L 18.42 13.75 L 18.71 13.88 L 19.0 14.0" fill="none" stroke="#111" stroke-width="1.30" stroke-linecap="round" stroke-linejoin="round"/>
<path d="M 16.0 8.0 L 15.73 8.72 L 15.5 9.44 L 15.28 10.18 L 15.09 10.92 L 14.93 11.67 L 14.8 12.42 L 14.69 13.18 L 14.61 13.94 L 14.56 14.7 L 14.53 15.47 L 14.54 16.23 L 14.57 17.0 L 14.62 17.76 L 14.7 18.52 L 14.81 19.28 L 14.95 20.03 L 15.12 20.78 L 15.31 21.52 L 15.52 22.25 L 15.76 22.98 L 16.03 23.7 L 16.33 24.4 L 16.64 25.1 L 16.99 25.78 L 17.0 26.0 L 16.66 26.12 L 16.33 26.26 L 16.02 26.44 L 15.73 26.65 L 15.46 26.88 L 15.21 27.14 L 14.99 27.42 L 14.8 27.72 L 14.63 28.04 L 14.5 28.38 L 14.4 28.72 L 14.33 29.07 L 14.3 29.43 L 14.3 29.79 L 14.33 30.14 L 14.4 30.5 L 14.5 30.84 L 14.64 31.17 L 14.8 31.49 L 15.0 31.79 L 15.22 32.07 L 15.47 32.33 L 15.74 32.56 L 16.03 32.77 L 16.0 33.0 L 16.08 32.92 L 16.17 32.83 L 16.25 32.75 L 16.33 32.67 L 16.42 32.58 L 16.5 32.5 L 16.58 32.42 L 16.67 32.33 L 16.75 32.25 L 16.83 32.17 L 16.92 32.08 L 17.0 32.0 L 17.08 31.92 L 17.17 31.83 L 17.25 31.75 L 17.33 31.67 L 17.42 31.58 L 17.5 31.5 L 17.58 31.42 L 17.67 31.33 L 17.75 31.25 L 17.83 31.17 L 17.92 31.08 L 18.0 31.0" fill="none" stroke="#111" stroke-width="1.30" stroke-linecap="round" stroke-linejoin="round"/>
<path d="M 8.0 14.0 L 8.29 14.04 L 8.58 14.08 L 8.88 14.12 L 9.17 14.17 L 9.46 14.21 L 9.75 14.25 L 10.04 14.29 L 10.33 14.33 L 10.62 14.38 L 10.92 14.42 L 11.21 14.46 L 11.5 14.5 L 11.79 14.54 L 12.08 14.58 L 12.38 14.62 L 12.67 14.67 L 12.96 14.71 L 13.25 14.75 L 13.54 14.79 L 13.83 14.83 L 14.12 14.88 L 14.42 14.92 L 14.71 14.96 L 15.0 15.0" fill="none" stroke="#111" stroke-width="1.30" stroke-linecap="round" stroke-linejoin="round"/>
<path d="M 9.0 25.0 L 9.29 25.0 L 9.58 25.0 L 9.88 25.0 L 10.17 25.0 L 10.46 25.0 L 10.75 25.0 L 11.04 25.0 L 11.33 25.0 L 11.62 25.0 L 11.92 25.0 L 12.21 25.0 L 12.5 25.0 L 12.79 25.0 L 13.08 25.0 L 13.38 25.0 L 13.67 25.0 L 13.96 25.0 L 14.25 25.0 L 14.54 25.0 L 14.83 25.0 L 15.12 25.0 L 15.42 25.0 L 15.71 25.0 L 16.0 25.0" fill="none" stroke="#111" stroke-width="1.30" stroke-linecap="round" stroke-linejoin="round"/>
<path d="M 12.0 15.0 L 11.84 15.3 L 11.69 15.61 L 11.55 15.93 L 11.43 16.25 L 11.32 16.58 L 11.23 16.91 L 11.15 17.24 L 11.08 17.58 L 11.03 17.92 L 10.99 18.26 L 10.97 18.61 L 10.96 18.95 L 10.97 19.3 L 10.99 19.64 L 11.03 19.98 L 11.08 20.32 L 11.15 20.66 L 11.23 21.0 L 11.32 21.33 L 11.43 21.65 L 11.55 21.97 L 11.69 22.29 L 11.84 22.6 L 12.0 22.9" fill="none" stroke="#111" stroke-width="1.30" stroke-linecap="round" stroke-linejoin="round"/>
</svg>
