<?xml version="1.0" encoding="UTF-8"?>
<svg xmlns="http://www.w3.org/2000/svg" viewBox="0 0 25.00 36.00">
<path d="M 15.0 4.0 L 15.08 5.17 L 15.17 6.33 L 15.25 7.5 L 15.33 8.67 L 15.42 9.83 L 15.5 11.0 L 15.58 12.17 L 15.67 13.33 L 15.75 14.5 L 15.83 15.67 L 15.92 16.83 L 16.0 18.0 L 16.08 19.17 L 16.17 20.33 L 16.25 21.5 L 16.33 22.67 L 16.42 23.83 L 16.5 25.0 L 16.58 26.17 L 16.67 27.33 L 16.75 28.5 L 16.83 29.67 L 16.92 30.83 L 17.0 32.0" fill="none" stroke="#111" stroke-width="1.26" stroke-linecap="round" stroke-linejoin="round"/>
<path d="M 15.0 5.0 L 14.75 5.42 L 14.5 5.83 L 14.25 6.25 L 14.0 6.67 L 13.75 7.08 L 13.5 7.5 L 13.25 7.92 L 13.0 8.33 L 12.75 8.75 L 12.5 9.17 L 12.25 9.58 L 12.0 10.0 L 11.75 10.42 L 11.5 10.83 L 11.25 11.25 L 11.0 11.67 L 10.75 12.08 L 10.5 12.5 L 10.25 12.92 L 10.0 13.33 L 9.75 13.75 L 9.5 14.17 L 9.25 14.58 L 9.0 15.0 L 9.0 15.0 L 9.29 15.24 L 9.56 15.49 L 9.81 15.77 L 10.04 16.07 L 10.25 16.38 L 10.43 16.71 L 10.58 17.05 L 10.71 17.41 L 10.81 17.77 L 10.88 18.13 L 10.92 18.51 L 10.94 18.88 L 10.92 19.25 L 10.88 19.63 L 10.81 19.99 L 10.71 20.35 L 10.58 20.71 L 10.43 21.05 L 10.25 21.38 L 10.04 21.69 L 9.81 21.99 L 9.56 22.26 L 9.29 22.52 L 9.0 22.76 L 9.0 23.0 L 9.33 23.33 L 9.67 23.67 L 10.0 24.0 L 10.33 24.33 L 10.67 24.67 L 11.0 25.0 L 11.33 25.33 L 11.67 25.67 L 12.0 26.0 L 12.33 26.33 L 12.67 26.67 L 13.0 27.0 L 13.33 27.33 L 13.67 27.67 L 14.0 28.0 L 14.33 28.33 L 14.67 28.67 L 15.0 29.0 L 15.33 29.33 L 15.67 29.67 L 16.0 30.0 L 16.33 30.33 L 16.67 30.67 L 17.0 31.0" fill="none" stroke="#111" stroke-width="1.26" stroke-linecap="round" stroke-linejoin="round"/>
<path d="M 4.0 20.0 L 4.42 20.0 L 4.83 20.0 L 5.25 20.0 L 5.67 20.0 L 6.08 20.0 L 6.5 20.0 L 6.92 20.0 L 7.33 20.0 L 7.75 20.0 L 8.17 20.0 L 8.58 20.0 L 9.0 20.0 L 9.42 20.0 L 9.83 20.0 L 10.25 20.0 L 10.67 20.0 L 11.08 20.0 L 11.5 20.0 L 11.92 20.0 L 12.33 20.0 L 12.75 20.0 L 13.17 20.0 L 13.58 20.0 L 14.0 20.0" fill="none" stroke="#111" stroke-width="1.26" stroke-linecap="round" stroke-linejoin="round"/>
<path d="M 14.0 20.0 L 14.12 19.88 L 14.25 19.75 L 14.38 19.62 L 14.5 19.5 L 14.62 19.38 L 14.75 19.25 L 14.88 19.12 L 15.0 19.0 L 15.12 18.88 L 15.25 18.75 L 15.38 18.62 L 15.5 18.5 L 15.62 18.38 L 15.75 18.25 L 15.88 18.12 L 16.0 18.0 L 16.12 17.88 L 16.25 17.75 L 16.38 17.62 L 16.5 17.5 L 16.62 17.38 L 16.75 17.25 L 16.88 17.12 L 17.0 17.0 L 17.0 17.0 L 17.17 17.21 L 17.33 17.42 L 17.5 17.62 L 17.67 17.83 L 17.83 18.04 L 18.0 18.25 L 18.17 18.46 L 18.33 18.67 L 18.5 18.88 L 18.67 19.08 L 18.83 19.29 L 19.0 19.5 L 19.17 19.71 L 19.33 19.92 L 19.5 20.12 L 19.67 20.33 L 19.83 20.54 L 20.0 20.75 L 20.17 20.96 L 20.33 21.17 L 20.5 21.38 L 20.67 21.58 L 20.83 21.79 L 21.0 22.0" fill="none" stroke="#111" stroke-width="1.26" stroke-linecap="round" stroke-linejoin="round"/>
<path d="M 14.0 20.0 L 14.12 20.08 L 14.25 20.17 L 14.38 20.25 L 14.5 20.33 L 14.62 20.42 L 14.75 20.5 L 14.88 20.58 L 15.0 20.67 L 15.12 20.75 L 15.25 20.83 L 15.38 20.92 L 15.5 21.0 L 15.62 21.08 L 15.75 21.17 L 15.88 21.25 L 16.0 21.33 L 16.12 21.42 L 16.25 21.5 L 16.38 21.58 L 16.5 21.67 L 16.62 21.75 L 16.75 21.83 L 16.88 21.92 L 17.0 22.0 L 17.0 22.0 L 17.17 21.79 L 17.33 21.58 L 17.5 21.38 L 17.67 21.17 L 17.83 20.96 L 18.0 20.75 L 18.17 20.54 L 18.33 20.33 L 18.5 20.12 L 18.67 19.92 L 18.83 19.71 L 19.0 19.5 L 19.17 19.29 L 19.33 19.08 L 19.5 18.88 L 19.67 18.67 L 19.83 18.46 L 20.0 18.25 L 20.17 18.04 L 20.33 17.83 L 20.5 17.62 L 20.67 17.42 L 20.83 17.21 L 21.0 17.0" fill="none" stroke="#111" stroke-width="1.26" stroke-linecap="round" stroke-linejoin="round"/>
<path d="M 4.0 20.0 L 4.12 19.92 L 4.25 19.83 L 4.38 19.75 L 4.5 19.67 L 4.62 19.58 L 4.75 19.5 L 4.88 19.42 L 5.0 19.33 L 5.12 19.25 L 5.25 19.17 L 5.38 19.08 L 5.5 19.0 L 5.62 18.92 L 5.75 18.83 L 5.88 18.75 L 6.0 18.67 L 6.12 18.58 L 6.25 18.5 L 6.38 18.42 L 6.5 18.33 L 6.62 18.25 L 6.75 18.17 L 6.88 18.08 L 7.0 18.0" fill="none" stroke="#111" stroke-width="1.26" stroke-linecap="round" stroke-linejoin="round"/>
<path d="M 4.0 20.0 L 4.17 20.12 L 4.33 20.25 L 4.5 20.38 L 4.67 20.5 L 4.83 20.62 L 5.0 20.75 L 5.17 20.88 L 5.33 21.0 L 5.5 21.12 L 5.67 21.25 L 5.83 21.38 L 6.0 21.5 L 6.17 21.62 L 6.33 21.75 L 6.5 21.88 L 6.67 22.0 L 6.83 22.12 L 7.0 22.25 L 7.17 22.38 L 7.33 22.5 L 7.5 22.62 L 7.67 22.75 L 7.83 22.88 L 8.0 23.0" fill="none" stroke="#111" stroke-width="1.26" stroke-linecap="round" stroke-linejoin="round"/>
<path d="M 9.0 8.0 L 9.25 7.83 L 9.5 7.67 L 9.75 7.5 L 10.0 7.33 L 10.25 7.17 L 10.5 7.0 L 10.75 6.83 L 11.0 6.67 L 11.25 6.5 L 11.5 6.33 L 11.75 6.17 L 12.0 6.0 L 12.25 5.83 L 12.5 5.67 L 12.75 5.5 L 13.0 5.33 L 13.25 5.17 L 13.5 5.0 L 13.75 4.83 L 14.0 4.67 L 14.25 4.5 L 14.5 4.33 L 14.75 4.17 L 15.0 4.0" fill="none" stroke="#111" stroke-width="1.26" stroke-linecap="round" stroke-linejoin="round"/>
</svg>
