<?xml version="1.0" encoding="UTF-8"?>
<svg xmlns="http://www.w3.org/2000/svg" viewBox="0 0 31.00 34.00">
<path d="M 8.0 9.0 L 8.17 9.21 L 8.33 9.42 L 8.5 9.62 L 8.67 9.83 L 8.83 10.04 L 9.0 10.25 L 9.17 10.46 L 9.33 10.67 L 9.5 10.88 L 9.67 11.08 L 9.83 11.29 L 10.0 11.5 L 10.17 11.71 L 10.33 11.92 L 10.5 12.12 L 10.67 12.33 L 10.83 12.54 L 11.0 12.75 L 11.17 12.96 L 11.33 13.17 L 11.5 13.38 L 11.67 13.58 L 11.83 13.79 L 12.0 14.0" fill="none" stroke="#111" stroke-width="1.19" stroke-linecap="round" stroke-linejoin="round"/>
<path d="M 15.0 8.0 L 14.88 8.25 L 14.75 8.5 L 14.62 8.75 L 14.5 9.0 L 14.38 9.25 L 14.25 9.5 L 14.12 9.75 L 14.0 10.0 L 13.88 10.25 L 13.75 10.5 L 13.62 10.75 L 13.5 11.0 L 13.38 11.25 L 13.25 11.5 L 13.12 11.75 L 13.0 12.0 L 12.88 12.25 L 12.75 12.5 L 12.62 12.75 L 12.5 13.0 L 12.38 13.25 L 12.25 13.5 L 12.12 13.75 L 12.0 14.0" fill="none" stroke="#111" stroke-width="1.19" stroke-linecap="round" stroke-linejoin="round"/>
<path d="M 8.0 9.0 L 7.83 9.33 L 7.67 9.67 L 7.5 10.0 L 7.33 10.33 L 7.17 10.67 L 7.0 11.0 L 6.83 11.33 L 6.67 11.67 L 6.5 12.0 L 6.33 12.33 L 6.17 12.67 L 6.0 13.0 L 5.83 13.33 L 5.67 13.67 L 5.5 14.0 L 5.33 14.33 L 5.17 14.67 L 5.0 15.0 L 4.83 15.33 L 4.67 15.67 L 4.5 16.0 L 4.33 16.33 L 4.17 16.67 L 4.0 17.0" fill="none" stroke="#111" stroke-width="1.19" stroke-linecap="round" stroke-linejoin="round"/>
<path d="M 15.0 8.0 L 15.17 8.21 L 15.33 8.42 L 15.5 8.62 L 15.67 8.83 L 15.83 9.04 L 16.0 9.25 L 16.17 9.46 L 16.33 9.67 L 16.5 9.88 L 16.67 10.08 L 16.83 10.29 L 17.0 10.5 L 17.17 10.71 L 17.33 10.92 L 17.5 11.12 L 17.67 11.33 L 17.83 11.54 L 18.0 11.75 L 18.17 11.96 L 18.33 12.17 L 18.5 12.38 L 18.67 12.58 L 18.83 12.79 L 19.0 13.0" fill="none" stroke="#111" stroke-width="1.19" stroke-linecap="round" stroke-linejoin="round"/>
<path d="M 12.0 14.0 L 12.0 14.67 L 12.0 15.33 L 12.0 16.0 L 12.0 16.67 L 12.0 17.33 L 12.0 18.0 L 12.0 18.67 L 12.0 19.33 L 12.0 20.0 L 12.0 20.67 L 12.0 21.33 L 12.0 22.0 L 12.0 22.67 L 12.0 23.33 L 12.0 24.0 L 12.0 24.67 L 12.0 25.33 L 12.0 26.0 L 12.0 26.67 L 12.0 27.33 L 12.0 28.0 L 12.0 28.67 L 12.0 29.33 L 12.0 30.0" fill="none" stroke="#111" stroke-width="1.19" stroke-linecap="round" stroke-linejoin="round"/>
<path d="M 7.0 23.0 L 7.21 23.29 L 7.42 23.58 L 7.62 23.88 L 7.83 24.17 L 8.04 24.46 L 8.25 24.75 L 8.46 25.04 L 8.67 25.33 L 8.88 25.62 L 9.08 25.92 L 9.29 26.21 L 9.5 26.5 L 9.71 26.79 L 9.92 27.08 L 10.12 27.38 L 10.33 27.67 L 10.54 27.96 L 10.75 28.25 L 10.96 28.54 L 11.17 28.83 L 11.38 29.12 L 11.58 29.42 L 11.79 29.71 L 12.0 30.0" fill="none" stroke="#111" stroke-width="1.19" stroke-linecap="round" stroke-linejoin="round"/>
<path d="M 15.0 21.0 L 14.88 21.38 L 14.75 21.75 L 14.62 22.12 L 14.5 22.5 L 14.38 22.88 L 14.25 23.25 L 14.12 23.62 L 14.0 24.0 L 13.88 24.38 L 13.75 24.75 L 13.62 25.12 L 13.5 25.5 L 13.38 25.88 L 13.25 26.25 L 13.12 26.62 L 13.0 27.0 L 12.88 27.38 L 12.75 27.75 L 12.62 28.12 L 12.5 28.5 L 12.38 28.88 L 12.25 29.25 L 12.12 29.62 L 12.0 30.0" fill="none" stroke="#111" stroke-width="1.19" stroke-linecap="round" stroke-linejoin="round"/>
<path d="M 8.0 18.0 L 8.31 17.67 L 8.64 17.37 L 9.01 17.1 L 9.39 16.87 L 9.79 16.67 L 10.21 16.51 L 10.65 16.38 L 11.09 16.3 L 11.54 16.25 L 11.99 16.25 L 12.44 16.29 L 12.88 16.37 L 13.32 16.48 L 13.74 16.64 L 14.15 16.83 L 14.53 17.06 L 14.9 17.33 L 15.24 17.62 L 15.55 17.95 L 15.83 18.3 L 16.08 18.67 L 16.3 19.07 L 16.47 19.49 L 16.61 19.91" fill="none" stroke="#111" stroke-width="1.19" stroke-linecap="round" stroke-linejoin="round"/>
<path d="M 8.0 18.0 L 8.17 18.39 L 8.36 18.77 L 8.59 19.13 L 8.85 19.47 L 9.14 19.79 L 9.45 20.08 L 9.78 20.35 L 10.13 20.58 L 10.51 20.79 L 10.89 20.97 L 11.3 21.11 L 11.71 21.22 L 12.13 21.3 L 12.55 21.34 L 12.98 21.34 L 13.4 21.31 L 13.82 21.24 L 14.24 21.15 L 14.64 21.01 L 15.04 20.84 L 15.41 20.65 L 15.77 20.42 L 16.11 20.16 L 16.43 19.87" fill="none" stroke="#111" stroke-width="1.19" stroke-linecap="round" stroke-linejoin="round"/>
<path d="M 21.0 4.0 L 21.0 4.58 L 21.0 5.17 L 21.0 5.75 L 21.0 6.33 L 21.0 6.92 L 21.0 7.5 L 21.0 8.08 L 21.0 8.67 L 21.0 9.25 L 21.0 9.83 L 21.0 10.42 L 21.0 11.0 L 21.0 11.58 L 21.0 12.17 L 21.0 12.75 L 21.0 13.33 L 21.0 13.92 L 21.0 14.5 L 21.0 15.08 L 21.0 15.67 L 21.0 16.25 L 21.0 16.83 L 21.0 17.42 L 21.0 18.0" fill="none" stroke="#111" stroke-width="1.19" stroke-linecap="round" stroke-linejoin="round"/>
<path d="M 17.0 6.0 L 17.17 6.25 L 17.33 6.5 L 17.5 6.75 L 17.67 7.0 L 17.83 7.25 L 18.0 7.5 L 18.17 7.75 L 18.33 8.0 L 18.5 8.25 L 18.67 8.5 L 18.83 8.75 L 19.0 9.0 L 19.17 9.25 L 19.33 9.5 L 19.5 9.75 L 19.67 10.0 L 19.83 10.25 L 20.0 10.5 L 20.17 10.75 L 20.33 11.0 L 20.5 11.25 L 20.67 11.5 L 20.83 11.75 L 21.0 12.0" fill="none" stroke="#111" stroke-width="1.19" stroke-linecap="round" stroke-linejoin="round"/>
<path d="M 27.0 6.0 L 26.75 6.25 L 26.5 6.5 L 26.25 6.75 L 26.0 7.0 L 25.75 7.25 L 25.5 7.5 L 25.25 7.75 L 25.0 8.0 L 24.75 8.25 L 24.5 8.5 L 24.25 8.75 L 24.0 9.0 L 23.75 9.25 L 23.5 9.5 L 23.25 9.75 L 23.0 10.0 L 22.75 10.25 L 22.5 10.5 L 22.25 10.75 L 22.0 11.0 L 21.75 11.25 L 21.5 11.5 L 21.25 11.75 L 21.0 12.0" fill="none" stroke="#111" stroke-width="1.19" stroke-linecap="round" stroke-linejoin="round"/>
<path d="M 17.0 20.0 L 17.38 19.92 L 17.75 19.83 L 18.12 19.75 L 18.5 19.67 L 18.88 19.58 L 19.25 19.5 L 19.62 19.42 L 20.0 19.33 L 20.38 19.25 L 20.75 19.17 L 21.12 19.08 L 21.5 19.0 L 21.88 18.92 L 22.25 18.83 L 22.62 18.75 L 23.0 18.67 L 23.38 18.58 L 23.75 18.5 L 24.12 18.42 L 24.5 18.33 L 24.88 18.25 L 25.25 18.17 L 25.62 18.08 L 26.0 18.0" fill="none" stroke="#111" stroke-width="1.19" stroke-linecap="round" stroke-linejoin="round"/>
</svg>
