<?xml version="1.0" encoding="UTF-8"?>
<svg xmlns="http://www.w3.org/2000/svg" viewBox="0 0 20.84 39.00">
<path d="M 6.84 6.0 L 7.26 6.21 L 7.67 6.42 L 8.09 6.62 L 8.51 6.83 L 8.92 7.04 L 9.34 7.25 L 9.76 7.46 L 10.17 7.67 L 10.59 7.88 L 11.01 8.08 L 11.42 8.29 L 11.84 8.5 L 12.26 8.71 L 12.67 8.92 L 13.09 9.12 L 13.51 9.33 L 13.92 9.54 L 14.34 9.75 L 14.76 9.96 L 15.17 10.17 L 15.59 10.38 L 16.01 10.58 L 16.42 10.79 L 16.84 11.0" fill="none" stroke="#111" stroke-width="1.37" stroke-linecap="round" stroke-linejoin="round"/>
<path d="M 10.84 4.0 L 10.98 4.5 L 11.08 5.01 L 11.13 5.52 L 11.14 6.04 L 11.11 6.55 L 11.04 7.07 L 10.92 7.57 L 10.76 8.06 L 10.56 8.54 L 10.31 9.0 L 10.04 9.43 L 9.72 9.84 L 9.37 10.23 L 9.0 10.58 L 8.59 10.9 L 8.16 11.18 L 7.7 11.43 L 7.23 11.64 L 6.74 11.8 L 6.23 11.93 L 5.72 12.01 L 5.21 12.05 L 4.69 12.04 L 4.17 12.0" fill="none" stroke="#111" stroke-width="1.37" stroke-linecap="round" stroke-linejoin="round"/>
<path d="M 8.84 10.0 L 8.88 10.29 L 8.92 10.58 L 8.96 10.88 L 9.01 11.17 L 9.05 11.46 L 9.09 11.75 L 9.13 12.04 L 9.17 12.33 L 9.21 12.62 L 9.26 12.92 L 9.3 13.21 L 9.34 13.5 L 9.38 13.79 L 9.42 14.08 L 9.46 14.38 L 9.51 14.67 L 9.55 14.96 L 9.59 15.25 L 9.63 15.54 L 9.67 15.83 L 9.71 16.12 L 9.76 16.42 L 9.8 16.71 L 9.84 17.0" fill="none" stroke="#111" stroke-width="1.37" stroke-linecap="round" stroke-linejoin="round"/>
<path d="M 11.84 8.0 L 11.92 8.42 L 12.01 8.83 L 12.09 9.25 L 12.17 9.67 L 12.26 10.08 L 12.34 10.5 L 12.42 10.92 L 12.51 11.33 L 12.59 11.75 L 12.67 12.17 L 12.76 12.58 L 12.84 13.0 L 12.92 13.42 L 13.01 13.83 L 13.09 14.25 L 13.17 14.67 L 13.26 15.08 L 13.34 15.5 L 13.42 15.92 L 13.51 16.33 L 13.59 16.75 L 13.67 17.17 L 13.76 17.58 L 13.84 18.0" fill="none" stroke="#111" stroke-width="1.37" stroke-linecap="round" stroke-linejoin="round"/>
<path d="M 5.84 17.0 L 6.21 17.04 L 6.59 17.08 L 6.96 17.12 L 7.34 17.17 L 7.71 17.21 L 8.09 17.25 L 8.46 17.29 L 8.84 17.33 L 9.21 17.38 L 9.59 17.42 L 9.96 17.46 L 10.34 17.5 L 10.71 17.54 L 11.09 17.58 L 11.46 17.62 L 11.84 17.67 L 12.21 17.71 L 12.59 17.75 L 12.96 17.79 L 13.34 17.83 L 13.71 17.88 L 14.09 17.92 L 14.46 17.96 L 14.84 18.0 L 14.84 18.0 L 14.67 18.25 L 14.51 18.5 L 14.34 18.75 L 14.17 19.0 L 14.01 19.25 L 13.84 19.5 L 13.67 19.75 L 13.51 20.0 L 13.34 20.25 L 13.17 20.5 L 13.01 20.75 L 12.84 21.0 L 12.67 21.25 L 12.51 21.5 L 12.34 21.75 L 12.17 22.0 L 12.01 22.25 L 11.84 22.5 L 11.67 22.75 L 11.51 23.0 L 11.34 23.25 L 11.17 23.5 L 11.01 23.75 L 10.84 24.0" fill="none" stroke="#111" stroke-width="1.37" stroke-linecap="round" stroke-linejoin="round"/>
<path d="M 6.84 22.0 L 6.96 22.21 L 7.09 22.42 L 7.21 22.62 L 7.34 22.83 L 7.46 23.04 L 7.59 23.25 L 7.71 23.46 L 7.84 23.67 L 7.96 23.88 L 8.09 24.08 L 8.21 24.29 L 8.34 24.5 L 8.46 24.71 L 8.59 24.92 L 8.71 25.12 L 8.84 25.33 L 8.96 25.54 L 9.09 25.75 L 9.21 25.96 L 9.34 26.17 L 9.46 26.38 L 9.59 26.58 L 9.71 26.79 L 9.84 27.0" fill="none" stroke="#111" stroke-width="1.37" stroke-linecap="round" stroke-linejoin="round"/>
<path d="M 10.84 27.0 L 11.01 26.83 L 11.17 26.67 L 11.34 26.5 L 11.51 26.33 L 11.67 26.17 L 11.84 26.0 L 12.01 25.83 L 12.17 25.67 L 12.34 25.5 L 12.51 25.33 L 12.67 25.17 L 12.84 25.0 L 13.01 24.83 L 13.17 24.67 L 13.34 24.5 L 13.51 24.33 L 13.67 24.17 L 13.84 24.0 L 14.01 23.83 L 14.17 23.67 L 14.34 23.5 L 14.51 23.33 L 14.67 23.17 L 14.84 23.0" fill="none" stroke="#111" stroke-width="1.37" stroke-linecap="round" stroke-linejoin="round"/>
<path d="M 14.84 23.0 L 15.05 23.48 L 15.23 23.96 L 15.4 24.45 L 15.54 24.95 L 15.67 25.45 L 15.77 25.96 L 15.85 26.48 L 15.9 26.99 L 15.94 27.51 L 15.95 28.03 L 15.94 28.55 L 15.91 29.07 L 15.86 29.58 L 15.78 30.09 L 15.68 30.6 L 15.56 31.11 L 15.42 31.61 L 15.26 32.1 L 15.07 32.59 L 14.87 33.06 L 14.64 33.53 L 14.4 33.99 L 14.13 34.43 L 13.85 34.87 L 13.84 35.0 L 13.71 34.88 L 13.59 34.75 L 13.46 34.62 L 13.34 34.5 L 13.21 34.38 L 13.09 34.25 L 12.96 34.12 L 12.84 34.0 L 12.71 33.88 L 12.59 33.75 L 12.46 33.62 L 12.34 33.5 L 12.21 33.38 L 12.09 33.25 L 11.96 33.12 L 11.84 33.0 L 11.71 32.88 L 11.59 32.75 L 11.46 32.62 L 11.34 32.5 L 11.21 32.38 L 11.09 32.25 L 10.96 32.12 L 10.84 32.0" fill="none" stroke="#111" stroke-width="1.37" stroke-linecap="round" stroke-linejoin="round"/>
<path d="M 11.84 29.0 L 11.96 28.92 L 12.09 28.83 L 12.21 28.75 L 12.34 28.67 L 12.46 28.58 L 12.59 28.5 L 12.71 28.42 L 12.84 28.33 L 12.96 28.25 L 13.09 28.17 L 13.21 28.08 L 13.34 28.0 L 13.46 27.92 L 13.59 27.83 L 13.71 27.75 L 13.84 27.67 L 13.96 27.58 L 14.09 27.5 L 14.21 27.42 L 14.34 27.33 L 14.46 27.25 L 14.59 27.17 L 14.71 27.08 L 14.84 27.0" fill="none" stroke="#111" stroke-width="1.37" stroke-linecap="round" stroke-linejoin="round"/>
<path d="M 6.84 22.0 L 6.41 22.41 L 6.01 22.86 L 5.64 23.32 L 5.3 23.82 L 5.0 24.33 L 4.74 24.87 L 4.52 25.42 L 4.33 25.99 L 4.19 26.57 L 4.08 27.16 L 4.02 27.75 L 4.0 28.35 L 4.02 28.94 L 4.08 29.54 L 4.19 30.12 L 4.33 30.7 L 4.52 31.27 L 4.74 31.82 L 5.0 32.36 L 5.3 32.88 L 5.64 33.37 L 6.01 33.84 L 6.41 34.28 L 6.84 34.69 L 6.84 35.0 L 6.96 34.88 L 7.09 34.75 L 7.21 34.62 L 7.34 34.5 L 7.46 34.38 L 7.59 34.25 L 7.71 34.12 L 7.84 34.0 L 7.96 33.88 L 8.09 33.75 L 8.21 33.62 L 8.34 33.5 L 8.46 33.38 L 8.59 33.25 L 8.71 33.12 L 8.84 33.0 L 8.96 32.88 L 9.09 32.75 L 9.21 32.62 L 9.34 32.5 L 9.46 32.38 L 9.59 32.25 L 9.71 32.12 L 9.84 32.0" fill="none" stroke="#111" stroke-width="1.37" stroke-linecap="round" stroke-linejoin="round"/>
<path d="M 5.84 26.0 L 5.92 26.12 L 6.01 26.25 L 6.09 26.38 L 6.17 26.5 L 6.26 26.62 L 6.34 26.75 L 6.42 26.88 L 6.51 27.0 L 6.59 27.12 L 6.67 27.25 L 6.76 27.38 L 6.84 27.5 L 6.92 27.62 L 7.01 27.75 L 7.09 27.88 L 7.17 28.0 L 7.26 28.12 L 7.34 28.25 L 7.42 28.38 L 7.51 28.5 L 7.59 28.62 L 7.67 28.75 L 7.76 28.88 L 7.84 29.0" fill="none" stroke="#111" stroke-width="1.37" stroke-linecap="round" stroke-linejoin="round"/>
</svg>
