<?xml version="1.0" encoding="UTF-8"?>
<svg xmlns="http://www.w3.org/2000/svg" viewBox="0 0 21.97 35.76">
<path d="M 6.0 6.01 L 5.72 6.25 L 5.46 6.51 L 5.21 6.8 L 4.99 7.1 L 4.8 7.41 L 4.62 7.74 L 4.47 8.09 L 4.35 8.44 L 4.25 8.8 L 4.19 9.16 L 4.14 9.53 L 4.13 9.91 L 4.14 10.28 L 4.19 10.65 L 4.25 11.01 L 4.35 11.37 L 4.47 11.73 L 4.62 12.07 L 4.8 12.4 L 4.99 12.71 L 5.21 13.01 L 5.46 13.3 L 5.72 13.56 L 6.0 13.81 L 6.0 14.01 L 5.72 14.46 L 5.47 14.93 L 5.25 15.42 L 5.06 15.92 L 4.9 16.43 L 4.78 16.95 L 4.68 17.48 L 4.62 18.01 L 4.59 18.54 L 4.6 19.08 L 4.64 19.61 L 4.71 20.14 L 4.81 20.66 L 4.95 21.18 L 5.12 21.69 L 5.32 22.18 L 5.55 22.66 L 5.81 23.13 L 6.09 23.58 L 6.41 24.01 L 6.75 24.42 L 7.12 24.81 L 7.51 25.18 L 7.92 25.52 L 8.0 26.01 L 8.0 25.88 L 8.0 25.76 L 8.0 25.63 L 8.0 25.51 L 8.0 25.38 L 8.0 25.26 L 8.0 25.13 L 8.0 25.01 L 8.0 24.88 L 8.0 24.76 L 8.0 24.63 L 8.0 24.51 L 8.0 24.38 L 8.0 24.26 L 8.0 24.13 L 8.0 24.01 L 8.0 23.88 L 8.0 23.76 L 8.0 23.63 L 8.0 23.51 L 8.0 23.38 L 8.0 23.26 L 8.0 23.13 L 8.0 23.01" fill="none" stroke="#111" stroke-width="1.25" stroke-linecap="round" stroke-linejoin="round"/>
<path d="M 7.0 6.01 L 7.21 6.3 L 7.39 6.61 L 7.56 6.94 L 7.71 7.27 L 7.83 7.61 L 7.94 7.96 L 8.02 8.31 L 8.08 8.67 L 8.11 9.03 L 8.13 9.39 L 8.11 9.75 L 8.08 10.11 L 8.02 10.47 L 7.95 10.83 L 7.84 11.17 L 7.72 11.52 L 7.58 11.85 L 7.41 12.17 L 7.22 12.48 L 7.02 12.78 L 6.8 13.07 L 6.55 13.34 L 6.3 13.59 L 6.02 13.83" fill="none" stroke="#111" stroke-width="1.25" stroke-linecap="round" stroke-linejoin="round"/>
<path d="M 10.0 5.01 L 10.28 5.91 L 10.54 6.81 L 10.79 7.72 L 11.02 8.63 L 11.23 9.55 L 11.42 10.47 L 11.6 11.39 L 11.76 12.32 L 11.91 13.25 L 12.04 14.18 L 12.15 15.12 L 12.24 16.05 L 12.32 16.99 L 12.38 17.93 L 12.42 18.87 L 12.44 19.81 L 12.45 20.75 L 12.44 21.7 L 12.42 22.64 L 12.37 23.58 L 12.31 24.52 L 12.24 25.45 L 12.14 26.39 L 12.03 27.33" fill="none" stroke="#111" stroke-width="1.25" stroke-linecap="round" stroke-linejoin="round"/>
<path d="M 7.0 4.01 L 7.1 4.0 L 7.2 4.01 L 7.3 4.03 L 7.39 4.07 L 7.48 4.11 L 7.56 4.17 L 7.63 4.25 L 7.69 4.33 L 7.74 4.41 L 7.77 4.51 L 7.8 4.61 L 7.8 4.71 L 7.8 4.81 L 7.77 4.91 L 7.74 5.0 L 7.69 5.09 L 7.63 5.17 L 7.56 5.24 L 7.48 5.3 L 7.39 5.35 L 7.3 5.38 L 7.2 5.41 L 7.1 5.41 L 7.0 5.41" fill="none" stroke="#111" stroke-width="1.25" stroke-linecap="round" stroke-linejoin="round"/>
<path d="M 13.0 25.01 L 13.39 25.06 L 13.77 25.14 L 14.15 25.24 L 14.52 25.38 L 14.88 25.54 L 15.22 25.72 L 15.55 25.93 L 15.87 26.16 L 16.17 26.41 L 16.45 26.68 L 16.71 26.98 L 16.95 27.29 L 17.17 27.61 L 17.36 27.96 L 17.53 28.31 L 17.67 28.67 L 17.78 29.05 L 17.87 29.43 L 17.93 29.82 L 17.97 30.21 L 17.97 30.6 L 17.95 30.99 L 17.9 31.38 L 17.83 31.76" fill="none" stroke="#111" stroke-width="1.25" stroke-linecap="round" stroke-linejoin="round"/>
<path d="M 16.0 18.01 L 15.92 18.51 L 15.83 19.01 L 15.75 19.51 L 15.67 20.01 L 15.58 20.51 L 15.5 21.01 L 15.42 21.51 L 15.33 22.01 L 15.25 22.51 L 15.17 23.01 L 15.08 23.51 L 15.0 24.01 L 14.92 24.51 L 14.83 25.01 L 14.75 25.51 L 14.67 26.01 L 14.58 26.51 L 14.5 27.01 L 14.42 27.51 L 14.33 28.01 L 14.25 28.51 L 14.17 29.01 L 14.08 29.51 L 14.0 30.01" fill="none" stroke="#111" stroke-width="1.25" stroke-linecap="round" stroke-linejoin="round"/>
<path d="M 10.0 8.01 L 10.0 8.09 L 10.0 8.17 L 10.0 8.26 L 10.0 8.34 L 10.0 8.42 L 10.0 8.51 L 10.0 8.59 L 10.0 8.67 L 10.0 8.76 L 10.0 8.84 L 10.0 8.92 L 10.0 9.01 L 10.0 9.09 L 10.0 9.17 L 10.0 9.26 L 10.0 9.34 L 10.0 9.42 L 10.0 9.51 L 10.0 9.59 L 10.0 9.67 L 10.0 9.76 L 10.0 9.84 L 10.0 9.92 L 10.0 10.01" fill="none" stroke="#111" stroke-width="1.25" stroke-linecap="round" stroke-linejoin="round"/>
<path d="M 10.0 17.01 L 9.96 17.13 L 9.92 17.26 L 9.88 17.38 L 9.83 17.51 L 9.79 17.63 L 9.75 17.76 L 9.71 17.88 L 9.67 18.01 L 9.62 18.13 L 9.58 18.26 L 9.54 18.38 L 9.5 18.51 L 9.46 18.63 L 9.42 18.76 L 9.38 18.88 L 9.33 19.01 L 9.29 19.13 L 9.25 19.26 L 9.21 19.38 L 9.17 19.51 L 9.12 19.63 L 9.08 19.76 L 9.04 19.88 L 9.0 20.01" fill="none" stroke="#111" stroke-width="1.25" stroke-linecap="round" stroke-linejoin="round"/>
<path d="M 4.0 15.01 L 4.0 15.21 L 4.0 15.42 L 4.0 15.63 L 4.0 15.84 L 4.0 16.05 L 4.0 16.26 L 4.0 16.46 L 4.0 16.67 L 4.0 16.88 L 4.0 17.09 L 4.0 17.3 L 4.0 17.51 L 4.0 17.71 L 4.0 17.92 L 4.0 18.13 L 4.0 18.34 L 4.0 18.55 L 4.0 18.76 L 4.0 18.96 L 4.0 19.17 L 4.0 19.38 L 4.0 19.59 L 4.0 19.8 L 4.0 20.01" fill="none" stroke="#111" stroke-width="1.25" stroke-linecap="round" stroke-linejoin="round"/>
</svg>
