<?xml version="1.0" encoding="UTF-8"?>
<svg xmlns="http://www.w3.org/2000/svg" viewBox="0 0 23.55 40.60">
<path d="M 7.0 6.0 L 7.14 6.25 L 7.3 6.49 L 7.47 6.71 L 7.65 6.93 L 7.85 7.13 L 8.06 7.32 L 8.28 7.5 L 8.52 7.66 L 8.76 7.81 L 9.01 7.94 L 9.27 8.06 L 9.54 8.16 L 9.81 8.24 L 10.09 8.3 L 10.37 8.35 L 10.65 8.37 L 10.94 8.38 L 11.22 8.38 L 11.51 8.35 L 11.79 8.31 L 12.07 8.24 L 12.34 8.17 L 12.61 8.07 L 12.87 7.96 L 13.0 8.0 L 13.04 7.83 L 13.08 7.67 L 13.12 7.5 L 13.17 7.33 L 13.21 7.17 L 13.25 7.0 L 13.29 6.83 L 13.33 6.67 L 13.38 6.5 L 13.42 6.33 L 13.46 6.17 L 13.5 6.0 L 13.54 5.83 L 13.58 5.67 L 13.62 5.5 L 13.67 5.33 L 13.71 5.17 L 13.75 5.0 L 13.79 4.83 L 13.83 4.67 L 13.88 4.5 L 13.92 4.33 L 13.96 4.17 L 14.0 4.0" fill="none" stroke="#111" stroke-width="1.42" stroke-linecap="round" stroke-linejoin="round"/>
<path d="M 10.0 5.0 L 10.0 5.17 L 10.0 5.33 L 10.0 5.5 L 10.0 5.67 L 10.0 5.83 L 10.0 6.0 L 10.0 6.17 L 10.0 6.33 L 10.0 6.5 L 10.0 6.67 L 10.0 6.83 L 10.0 7.0 L 10.0 7.17 L 10.0 7.33 L 10.0 7.5 L 10.0 7.67 L 10.0 7.83 L 10.0 8.0 L 10.0 8.17 L 10.0 8.33 L 10.0 8.5 L 10.0 8.67 L 10.0 8.83 L 10.0 9.0" fill="none" stroke="#111" stroke-width="1.42" stroke-linecap="round" stroke-linejoin="round"/>
<path d="M 7.0 11.0 L 7.0 11.17 L 7.0 11.33 L 7.0 11.5 L 7.0 11.67 L 7.0 11.83 L 7.0 12.0 L 7.0 12.17 L 7.0 12.33 L 7.0 12.5 L 7.0 12.67 L 7.0 12.83 L 7.0 13.0 L 7.0 13.17 L 7.0 13.33 L 7.0 13.5 L 7.0 13.67 L 7.0 13.83 L 7.0 14.0 L 7.0 14.17 L 7.0 14.33 L 7.0 14.5 L 7.0 14.67 L 7.0 14.83 L 7.0 15.0 L 7.0 15.0 L 7.29 15.0 L 7.58 15.0 L 7.88 15.0 L 8.17 15.0 L 8.46 15.0 L 8.75 15.0 L 9.04 15.0 L 9.33 15.0 L 9.62 15.0 L 9.92 15.0 L 10.21 15.0 L 10.5 15.0 L 10.79 15.0 L 11.08 15.0 L 11.38 15.0 L 11.67 15.0 L 11.96 15.0 L 12.25 15.0 L 12.54 15.0 L 12.83 15.0 L 13.12 15.0 L 13.42 15.0 L 13.71 15.0 L 14.0 15.0" fill="none" stroke="#111" stroke-width="1.42" stroke-linecap="round" stroke-linejoin="round"/>
<path d="M 7.0 11.0 L 7.33 11.0 L 7.67 11.0 L 8.0 11.0 L 8.33 11.0 L 8.67 11.0 L 9.0 11.0 L 9.33 11.0 L 9.67 11.0 L 10.0 11.0 L 10.33 11.0 L 10.67 11.0 L 11.0 11.0 L 11.33 11.0 L 11.67 11.0 L 12.0 11.0 L 12.33 11.0 L 12.67 11.0 L 13.0 11.0 L 13.33 11.0 L 13.67 11.0 L 14.0 11.0 L 14.33 11.0 L 14.67 11.0 L 15.0 11.0 L 15.0 11.0 L 14.96 11.17 L 14.92 11.33 L 14.88 11.5 L 14.83 11.67 L 14.79 11.83 L 14.75 12.0 L 14.71 12.17 L 14.67 12.33 L 14.62 12.5 L 14.58 12.67 L 14.54 12.83 L 14.5 13.0 L 14.46 13.17 L 14.42 13.33 L 14.38 13.5 L 14.33 13.67 L 14.29 13.83 L 14.25 14.0 L 14.21 14.17 L 14.17 14.33 L 14.12 14.5 L 14.08 14.67 L 14.04 14.83 L 14.0 15.0" fill="none" stroke="#111" stroke-width="1.42" stroke-linecap="round" stroke-linejoin="round"/>
<path d="M 8.0 13.0 L 8.17 13.0 L 8.33 13.0 L 8.5 13.0 L 8.67 13.0 L 8.83 13.0 L 9.0 13.0 L 9.17 13.0 L 9.33 13.0 L 9.5 13.0 L 9.67 13.0 L 9.83 13.0 L 10.0 13.0 L 10.17 13.0 L 10.33 13.0 L 10.5 13.0 L 10.67 13.0 L 10.83 13.0 L 11.0 13.0 L 11.17 13.0 L 11.33 13.0 L 11.5 13.0 L 11.67 13.0 L 11.83 13.0 L 12.0 13.0" fill="none" stroke="#111" stroke-width="1.42" stroke-linecap="round" stroke-linejoin="round"/>
<path d="M 4.0 10.0 L 4.0 10.17 L 4.0 10.33 L 4.0 10.5 L 4.0 10.67 L 4.0 10.83 L 4.0 11.0 L 4.0 11.17 L 4.0 11.33 L 4.0 11.5 L 4.0 11.67 L 4.0 11.83 L 4.0 12.0 L 4.0 12.17 L 4.0 12.33 L 4.0 12.5 L 4.0 12.67 L 4.0 12.83 L 4.0 13.0 L 4.0 13.17 L 4.0 13.33 L 4.0 13.5 L 4.0 13.67 L 4.0 13.83 L 4.0 14.0" fill="none" stroke="#111" stroke-width="1.42" stroke-linecap="round" stroke-linejoin="round"/>
<path d="M 17.0 10.0 L 17.04 10.17 L 17.08 10.33 L 17.12 10.5 L 17.17 10.67 L 17.21 10.83 L 17.25 11.0 L 17.29 11.17 L 17.33 11.33 L 17.38 11.5 L 17.42 11.67 L 17.46 11.83 L 17.5 12.0 L 17.54 12.17 L 17.58 12.33 L 17.62 12.5 L 17.67 12.67 L 17.71 12.83 L 17.75 13.0 L 17.79 13.17 L 17.83 13.33 L 17.88 13.5 L 17.92 13.67 L 17.96 13.83 L 18.0 14.0" fill="none" stroke="#111" stroke-width="1.42" stroke-linecap="round" stroke-linejoin="round"/>
<path d="M 10.0 15.0 L 9.34 15.28 L 8.75 15.68 L 8.25 16.19 L 7.87 16.79 L 7.6 17.45 L 7.48 18.15 L 7.49 18.87 L 7.64 19.57 L 7.93 20.22 L 8.34 20.8 L 8.86 21.29 L 9.46 21.68 L 10.13 21.93 L 10.83 22.05 L 11.54 22.03 L 12.24 21.86 L 12.89 21.57 L 13.47 21.15 L 13.95 20.63 L 14.32 20.02 L 14.57 19.35 L 14.68 18.64 L 14.65 17.93 L 14.47 17.24" fill="none" stroke="#111" stroke-width="1.42" stroke-linecap="round" stroke-linejoin="round"/>
<path d="M 5.0 18.0 L 5.04 18.17 L 5.08 18.33 L 5.12 18.5 L 5.17 18.67 L 5.21 18.83 L 5.25 19.0 L 5.29 19.17 L 5.33 19.33 L 5.38 19.5 L 5.42 19.67 L 5.46 19.83 L 5.5 20.0 L 5.54 20.17 L 5.58 20.33 L 5.62 20.5 L 5.67 20.67 L 5.71 20.83 L 5.75 21.0 L 5.79 21.17 L 5.83 21.33 L 5.88 21.5 L 5.92 21.67 L 5.96 21.83 L 6.0 22.0" fill="none" stroke="#111" stroke-width="1.42" stroke-linecap="round" stroke-linejoin="round"/>
<path d="M 16.0 18.0 L 16.0 18.21 L 16.0 18.42 L 16.0 18.62 L 16.0 18.83 L 16.0 19.04 L 16.0 19.25 L 16.0 19.46 L 16.0 19.67 L 16.0 19.88 L 16.0 20.08 L 16.0 20.29 L 16.0 20.5 L 16.0 20.71 L 16.0 20.92 L 16.0 21.12 L 16.0 21.33 L 16.0 21.54 L 16.0 21.75 L 16.0 21.96 L 16.0 22.17 L 16.0 22.38 L 16.0 22.58 L 16.0 22.79 L 16.0 23.0" fill="none" stroke="#111" stroke-width="1.42" stroke-linecap="round" stroke-linejoin="round"/>
<path d="M 5.0 26.0 L 4.59 27.23 L 4.39 28.52 L 4.41 29.82 L 4.66 31.1 L 5.12 32.31 L 5.78 33.43 L 6.62 34.42 L 7.62 35.26 L 8.75 35.91 L 9.97 36.35 L 11.25 36.59 L 12.55 36.6 L 13.83 36.39 L 15.06 35.96 L 16.2 35.33 L 17.21 34.52 L 18.07 33.54 L 18.76 32.43 L 19.24 31.23 L 19.51 29.95 L 19.55 28.65 L 19.38 27.37 L 18.99 26.13 L 18.39 24.97" fill="none" stroke="#111" stroke-width="1.42" stroke-linecap="round" stroke-linejoin="round"/>
<path d="M 5.0 26.0 L 5.17 26.25 L 5.33 26.5 L 5.5 26.75 L 5.67 27.0 L 5.83 27.25 L 6.0 27.5 L 6.17 27.75 L 6.33 28.0 L 6.5 28.25 L 6.67 28.5 L 6.83 28.75 L 7.0 29.0 L 7.17 29.25 L 7.33 29.5 L 7.5 29.75 L 7.67 30.0 L 7.83 30.25 L 8.0 30.5 L 8.17 30.75 L 8.33 31.0 L 8.5 31.25 L 8.67 31.5 L 8.83 31.75 L 9.0 32.0 L 9.0 32.0 L 8.86 31.4 L 8.81 30.78 L 8.86 30.16 L 9.01 29.56 L 9.25 28.99 L 9.57 28.46 L 9.98 27.99 L 10.45 27.59 L 10.98 27.26 L 11.55 27.03 L 12.15 26.88 L 12.77 26.83 L 13.39 26.88 L 13.99 27.03 L 14.57 27.26 L 15.09 27.59 L 15.57 27.99 L 15.97 28.46 L 16.3 28.99 L 16.53 29.56 L 16.68 30.16 L 16.73 30.78 L 16.69 31.4 L 16.54 32.0 L 14.0 32.0 L 13.96 31.96 L 13.92 31.92 L 13.88 31.88 L 13.83 31.83 L 13.79 31.79 L 13.75 31.75 L 13.71 31.71 L 13.67 31.67 L 13.62 31.62 L 13.58 31.58 L 13.54 31.54 L 13.5 31.5 L 13.46 31.46 L 13.42 31.42 L 13.38 31.38 L 13.33 31.33 L 13.29 31.29 L 13.25 31.25 L 13.21 31.21 L 13.17 31.17 L 13.12 31.12 L 13.08 31.08 L 13.04 31.04 L 13.0 31.0" fill="none" stroke="#111" stroke-width="1.42" stroke-linecap="round" stroke-linejoin="round"/>
<path d="M 14.0 28.0 L 14.17 27.88 L 14.33 27.75 L 14.5 27.62 L 14.67 27.5 L 14.83 27.38 L 15.0 27.25 L 15.17 27.12 L 15.33 27.0 L 15.5 26.88 L 15.67 26.75 L 15.83 26.62 L 16.0 26.5 L 16.17 26.38 L 16.33 26.25 L 16.5 26.12 L 16.67 26.0 L 16.83 25.88 L 17.0 25.75 L 17.17 25.62 L 17.33 25.5 L 17.5 25.38 L 17.67 25.25 L 17.83 25.12 L 18.0 25.0" fill="none" stroke="#111" stroke-width="1.42" stroke-linecap="round" stroke-linejoin="round"/>
</svg>
