<?xml version="1.0" encoding="UTF-8"?>
<svg xmlns="http://www.w3.org/2000/svg" viewBox="0 0 19.00 34.00">
<path d="M 9.0 4.0 L 9.0 4.42 L 9.0 4.83 L 9.0 5.25 L 9.0 5.67 L 9.0 6.08 L 9.0 6.5 L 9.0 6.92 L 9.0 7.33 L 9.0 7.75 L 9.0 8.17 L 9.0 8.58 L 9.0 9.0 L 9.0 9.42 L 9.0 9.83 L 9.0 10.25 L 9.0 10.67 L 9.0 11.08 L 9.0 11.5 L 9.0 11.92 L 9.0 12.33 L 9.0 12.75 L 9.0 13.17 L 9.0 13.58 L 9.0 14.0" fill="none" stroke="#111" stroke-width="1.19" stroke-linecap="round" stroke-linejoin="round"/>
<path d="M 9.0 14.0 L 8.68 14.19 L 8.37 14.4 L 8.07 14.63 L 7.8 14.89 L 7.54 15.16 L 7.3 15.45 L 7.08 15.75 L 6.88 16.07 L 6.71 16.4 L 6.56 16.74 L 6.43 17.09 L 6.32 17.45 L 6.25 17.82 L 6.19 18.19 L 6.17 18.57 L 6.17 18.94 L 6.19 19.31 L 6.24 19.69 L 6.32 20.05 L 6.42 20.41 L 6.54 20.77 L 6.69 21.11 L 6.86 21.44 L 7.06 21.76 L 7.0 22.0 L 7.35 22.12 L 7.72 22.22 L 8.08 22.29 L 8.46 22.33 L 8.83 22.35 L 9.21 22.33 L 9.58 22.29 L 9.95 22.23 L 10.31 22.13 L 10.66 22.01 L 11.01 21.86 L 11.34 21.68 L 11.66 21.49 L 11.96 21.27 L 12.25 21.02 L 12.51 20.76 L 12.76 20.48 L 12.98 20.18 L 13.19 19.86 L 13.36 19.53 L 13.52 19.19 L 13.64 18.83 L 13.74 18.47 L 13.82 18.11 L 14.0 18.0 L 13.79 17.83 L 13.58 17.67 L 13.38 17.5 L 13.17 17.33 L 12.96 17.17 L 12.75 17.0 L 12.54 16.83 L 12.33 16.67 L 12.12 16.5 L 11.92 16.33 L 11.71 16.17 L 11.5 16.0 L 11.29 15.83 L 11.08 15.67 L 10.88 15.5 L 10.67 15.33 L 10.46 15.17 L 10.25 15.0 L 10.04 14.83 L 9.83 14.67 L 9.62 14.5 L 9.42 14.33 L 9.21 14.17 L 9.0 14.0" fill="none" stroke="#111" stroke-width="1.19" stroke-linecap="round" stroke-linejoin="round"/>
<path d="M 6.0 19.0 L 6.29 18.92 L 6.58 18.83 L 6.88 18.75 L 7.17 18.67 L 7.46 18.58 L 7.75 18.5 L 8.04 18.42 L 8.33 18.33 L 8.62 18.25 L 8.92 18.17 L 9.21 18.08 L 9.5 18.0 L 9.79 17.92 L 10.08 17.83 L 10.38 17.75 L 10.67 17.67 L 10.96 17.58 L 11.25 17.5 L 11.54 17.42 L 11.83 17.33 L 12.12 17.25 L 12.42 17.17 L 12.71 17.08 L 13.0 17.0" fill="none" stroke="#111" stroke-width="1.19" stroke-linecap="round" stroke-linejoin="round"/>
<path d="M 4.0 9.0 L 4.46 9.0 L 4.92 9.0 L 5.38 9.0 L 5.83 9.0 L 6.29 9.0 L 6.75 9.0 L 7.21 9.0 L 7.67 9.0 L 8.12 9.0 L 8.58 9.0 L 9.04 9.0 L 9.5 9.0 L 9.96 9.0 L 10.42 9.0 L 10.88 9.0 L 11.33 9.0 L 11.79 9.0 L 12.25 9.0 L 12.71 9.0 L 13.17 9.0 L 13.62 9.0 L 14.08 9.0 L 14.54 9.0 L 15.0 9.0" fill="none" stroke="#111" stroke-width="1.19" stroke-linecap="round" stroke-linejoin="round"/>
<path d="M 4.0 7.0 L 4.0 7.17 L 4.0 7.33 L 4.0 7.5 L 4.0 7.67 L 4.0 7.83 L 4.0 8.0 L 4.0 8.17 L 4.0 8.33 L 4.0 8.5 L 4.0 8.67 L 4.0 8.83 L 4.0 9.0 L 4.0 9.17 L 4.0 9.33 L 4.0 9.5 L 4.0 9.67 L 4.0 9.83 L 4.0 10.0 L 4.0 10.17 L 4.0 10.33 L 4.0 10.5 L 4.0 10.67 L 4.0 10.83 L 4.0 11.0" fill="none" stroke="#111" stroke-width="1.19" stroke-linecap="round" stroke-linejoin="round"/>
<path d="M 15.0 6.0 L 15.0 6.21 L 15.0 6.42 L 15.0 6.62 L 15.0 6.83 L 15.0 7.04 L 15.0 7.25 L 15.0 7.46 L 15.0 7.67 L 15.0 7.88 L 15.0 8.08 L 15.0 8.29 L 15.0 8.5 L 15.0 8.71 L 15.0 8.92 L 15.0 9.12 L 15.0 9.33 L 15.0 9.54 L 15.0 9.75 L 15.0 9.96 L 15.0 10.17 L 15.0 10.38 L 15.0 10.58 L 15.0 10.79 L 15.0 11.0" fill="none" stroke="#111" stroke-width="1.19" stroke-linecap="round" stroke-linejoin="round"/>
<path d="M 6.0 4.0 L 6.21 4.0 L 6.42 4.0 L 6.62 4.0 L 6.83 4.0 L 7.04 4.0 L 7.25 4.0 L 7.46 4.0 L 7.67 4.0 L 7.88 4.0 L 8.08 4.0 L 8.29 4.0 L 8.5 4.0 L 8.71 4.0 L 8.92 4.0 L 9.12 4.0 L 9.33 4.0 L 9.54 4.0 L 9.75 4.0 L 9.96 4.0 L 10.17 4.0 L 10.38 4.0 L 10.58 4.0 L 10.79 4.0 L 11.0 4.0" fill="none" stroke="#111" stroke-width="1.19" stroke-linecap="round" stroke-linejoin="round"/>
<path d="M 8.0 22.0 L 7.96 22.29 L 7.92 22.58 L 7.88 22.88 L 7.83 23.17 L 7.79 23.46 L 7.75 23.75 L 7.71 24.04 L 7.67 24.33 L 7.62 24.62 L 7.58 24.92 L 7.54 25.21 L 7.5 25.5 L 7.46 25.79 L 7.42 26.08 L 7.38 26.38 L 7.33 26.67 L 7.29 26.96 L 7.25 27.25 L 7.21 27.54 L 7.17 27.83 L 7.12 28.12 L 7.08 28.42 L 7.04 28.71 L 7.0 29.0" fill="none" stroke="#111" stroke-width="1.19" stroke-linecap="round" stroke-linejoin="round"/>
<path d="M 10.0 22.0 L 10.08 22.33 L 10.17 22.67 L 10.25 23.0 L 10.33 23.33 L 10.42 23.67 L 10.5 24.0 L 10.58 24.33 L 10.67 24.67 L 10.75 25.0 L 10.83 25.33 L 10.92 25.67 L 11.0 26.0 L 11.08 26.33 L 11.17 26.67 L 11.25 27.0 L 11.33 27.33 L 11.42 27.67 L 11.5 28.0 L 11.58 28.33 L 11.67 28.67 L 11.75 29.0 L 11.83 29.33 L 11.92 29.67 L 12.0 30.0" fill="none" stroke="#111" stroke-width="1.19" stroke-linecap="round" stroke-linejoin="round"/>
<path d="M 5.0 28.0 L 5.33 28.08 L 5.67 28.17 L 6.0 28.25 L 6.33 28.33 L 6.67 28.42 L 7.0 28.5 L 7.33 28.58 L 7.67 28.67 L 8.0 28.75 L 8.33 28.83 L 8.67 28.92 L 9.0 29.0 L 9.33 29.08 L 9.67 29.17 L 10.0 29.25 L 10.33 29.33 L 10.67 29.42 L 11.0 29.5 L 11.33 29.58 L 11.67 29.67 L 12.0 29.75 L 12.33 29.83 L 12.67 29.92 L 13.0 30.0" fill="none" stroke="#111" stroke-width="1.19" stroke-linecap="round" stroke-linejoin="round"/>
</svg>
