<?xml version="1.0" encoding="UTF-8"?>
<svg xmlns="http://www.w3.org/2000/svg" viewBox="0 0 18.26 32.76">
<path d="M 11.29 4.0 L 10.11 4.67 L 9.01 5.45 L 8.0 6.35 L 7.08 7.34 L 6.27 8.42 L 5.57 9.57 L 4.99 10.8 L 4.55 12.07 L 4.23 13.38 L 4.05 14.72 L 4.0 16.07 L 4.09 17.42 L 4.32 18.75 L 4.68 20.05 L 5.18 21.31 L 5.8 22.51 L 6.54 23.64 L 7.39 24.69 L 8.34 25.65 L 9.38 26.51 L 10.51 27.25 L 11.7 27.88 L 12.96 28.38 L 14.26 28.76" fill="none" stroke="#111" stroke-width="1.15" stroke-linecap="round" stroke-linejoin="round"/>
<path d="M 11.29 4.0 L 11.24 4.38 L 11.2 4.75 L 11.16 5.12 L 11.12 5.5 L 11.08 5.88 L 11.04 6.25 L 10.99 6.62 L 10.95 7.0 L 10.91 7.38 L 10.87 7.75 L 10.83 8.12 L 10.79 8.5 L 10.74 8.88 L 10.7 9.25 L 10.66 9.62 L 10.62 10.0 L 10.58 10.38 L 10.54 10.75 L 10.49 11.12 L 10.45 11.5 L 10.41 11.88 L 10.37 12.25 L 10.33 12.63 L 10.29 13.0" fill="none" stroke="#111" stroke-width="1.15" stroke-linecap="round" stroke-linejoin="round"/>
<path d="M 10.29 13.0 L 10.04 13.21 L 9.79 13.42 L 9.54 13.62 L 9.29 13.83 L 9.04 14.04 L 8.79 14.25 L 8.54 14.46 L 8.29 14.67 L 8.04 14.88 L 7.79 15.08 L 7.54 15.29 L 7.29 15.5 L 7.04 15.71 L 6.79 15.92 L 6.54 16.12 L 6.29 16.33 L 6.04 16.54 L 5.79 16.75 L 5.54 16.96 L 5.29 17.17 L 5.04 17.38 L 4.79 17.58 L 4.54 17.79 L 4.29 18.0" fill="none" stroke="#111" stroke-width="1.15" stroke-linecap="round" stroke-linejoin="round"/>
<path d="M 4.29 21.0 L 4.81 20.81 L 5.34 20.66 L 5.89 20.57 L 6.45 20.52 L 7.0 20.52 L 7.55 20.57 L 8.1 20.66 L 8.64 20.81 L 9.16 21.0 L 9.66 21.24 L 10.14 21.52 L 10.6 21.84 L 11.02 22.2 L 11.41 22.6 L 11.76 23.02 L 12.08 23.48 L 12.35 23.97 L 12.58 24.47 L 12.76 25.0 L 12.9 25.54 L 12.99 26.09 L 13.03 26.64 L 13.02 27.2 L 12.96 27.75" fill="none" stroke="#111" stroke-width="1.15" stroke-linecap="round" stroke-linejoin="round"/>
</svg>
