<?xml version="1.0" encoding="UTF-8"?>
<svg xmlns="http://www.w3.org/2000/svg" viewBox="0 0 30.98 34.00">
<path d="M 12.98 5.0 L 12.51 5.38 L 12.08 5.79 L 11.68 6.25 L 11.34 6.74 L 11.03 7.26 L 10.78 7.8 L 10.58 8.37 L 10.43 8.95 L 10.34 9.55 L 10.3 10.15 L 10.31 10.75 L 10.38 11.34 L 10.51 11.93 L 10.69 12.51 L 10.92 13.06 L 11.2 13.59 L 11.53 14.09 L 11.91 14.56 L 12.32 15.0 L 12.78 15.39 L 13.27 15.74 L 13.79 16.05 L 14.33 16.3 L 14.9 16.5 L 14.98 17.0 L 14.42 17.21 L 13.88 17.48 L 13.36 17.79 L 12.88 18.14 L 12.43 18.54 L 12.02 18.98 L 11.65 19.46 L 11.32 19.96 L 11.04 20.49 L 10.81 21.05 L 10.63 21.62 L 10.51 22.21 L 10.44 22.81 L 10.42 23.41 L 10.46 24.01 L 10.55 24.6 L 10.69 25.19 L 10.89 25.75 L 11.14 26.3 L 11.43 26.83 L 11.77 27.32 L 12.16 27.78 L 12.58 28.21 L 13.05 28.59 L 12.98 29.0 L 13.47 28.56 L 13.92 28.08 L 14.32 27.56 L 14.68 27.0 L 14.98 26.42 L 15.22 25.8 L 15.41 25.17 L 15.53 24.53 L 15.6 23.87 L 15.6 23.21 L 15.54 22.56 L 15.43 21.91 L 15.25 21.27 L 15.01 20.66 L 14.72 20.07 L 14.37 19.51 L 13.98 18.98 L 13.53 18.49 L 13.05 18.05 L 12.52 17.65 L 11.96 17.31 L 11.37 17.02 L 10.75 16.78 L 10.12 16.6 L 9.98 16.0 L 10.57 15.93 L 11.15 15.8 L 11.71 15.61 L 12.25 15.36 L 12.76 15.06 L 13.24 14.71 L 13.68 14.31 L 14.07 13.87 L 14.42 13.39 L 14.72 12.87 L 14.96 12.33 L 15.14 11.77 L 15.27 11.19 L 15.34 10.6 L 15.34 10.01 L 15.29 9.42 L 15.17 8.84 L 14.99 8.27 L 14.76 7.72 L 14.47 7.2 L 14.13 6.72 L 13.75 6.27 L 13.31 5.86 L 12.84 5.5" fill="none" stroke="#111" stroke-width="1.19" stroke-linecap="round" stroke-linejoin="round"/>
<path d="M 20.98 7.0 L 20.65 7.35 L 20.34 7.73 L 20.07 8.14 L 19.83 8.56 L 19.63 9.01 L 19.47 9.47 L 19.35 9.94 L 19.26 10.42 L 19.22 10.9 L 19.21 11.39 L 19.25 11.87 L 19.32 12.35 L 19.44 12.83 L 19.59 13.29 L 19.78 13.74 L 20.01 14.17 L 20.27 14.58 L 20.57 14.96 L 20.9 15.32 L 21.25 15.65 L 21.63 15.96 L 22.04 16.23 L 22.47 16.46 L 22.91 16.66 L 22.98 17.0 L 22.54 17.39 L 22.12 17.8 L 21.73 18.23 L 21.36 18.68 L 21.02 19.16 L 20.7 19.65 L 20.4 20.15 L 20.14 20.68 L 19.9 21.21 L 19.7 21.76 L 19.52 22.32 L 19.37 22.88 L 19.26 23.46 L 19.17 24.04 L 19.12 24.62 L 19.1 25.2 L 19.1 25.79 L 19.15 26.37 L 19.22 26.95 L 19.32 27.53 L 19.45 28.1 L 19.62 28.66 L 19.81 29.21 L 20.04 29.75 L 19.98 30.0 L 20.58 29.63 L 21.14 29.21 L 21.65 28.74 L 22.12 28.22 L 22.54 27.65 L 22.91 27.05 L 23.21 26.42 L 23.46 25.77 L 23.64 25.09 L 23.75 24.4 L 23.8 23.7 L 23.78 23.0 L 23.7 22.3 L 23.55 21.61 L 23.34 20.95 L 23.07 20.3 L 22.73 19.68 L 22.34 19.1 L 21.89 18.56 L 21.4 18.06 L 20.86 17.62 L 20.28 17.22 L 19.67 16.88 L 19.02 16.6 L 18.98 16.0 L 19.48 15.95 L 19.97 15.84 L 20.45 15.68 L 20.9 15.47 L 21.33 15.22 L 21.73 14.91 L 22.1 14.57 L 22.42 14.19 L 22.71 13.77 L 22.94 13.33 L 23.13 12.86 L 23.27 12.38 L 23.35 11.89 L 23.38 11.38 L 23.35 10.88 L 23.27 10.39 L 23.14 9.9 L 22.95 9.44 L 22.72 8.99 L 22.43 8.58 L 22.11 8.2 L 21.74 7.85 L 21.35 7.55 L 20.92 7.29" fill="none" stroke="#111" stroke-width="1.19" stroke-linecap="round" stroke-linejoin="round"/>
<path d="M 12.98 4.0 L 13.35 4.08 L 13.73 4.17 L 14.1 4.25 L 14.48 4.33 L 14.85 4.42 L 15.23 4.5 L 15.6 4.58 L 15.98 4.67 L 16.35 4.75 L 16.73 4.83 L 17.1 4.92 L 17.48 5.0 L 17.85 5.08 L 18.23 5.17 L 18.6 5.25 L 18.98 5.33 L 19.35 5.42 L 19.73 5.5 L 20.1 5.58 L 20.48 5.67 L 20.85 5.75 L 21.23 5.83 L 21.6 5.92 L 21.98 6.0" fill="none" stroke="#111" stroke-width="1.19" stroke-linecap="round" stroke-linejoin="round"/>
<path d="M 6.98 17.0 L 7.81 17.0 L 8.65 17.0 L 9.48 17.0 L 10.31 17.0 L 11.15 17.0 L 11.98 17.0 L 12.81 17.0 L 13.65 17.0 L 14.48 17.0 L 15.31 17.0 L 16.15 17.0 L 16.98 17.0 L 17.81 17.0 L 18.65 17.0 L 19.48 17.0 L 20.31 17.0 L 21.15 17.0 L 21.98 17.0 L 22.81 17.0 L 23.65 17.0 L 24.48 17.0 L 25.31 17.0 L 26.15 17.0 L 26.98 17.0" fill="none" stroke="#111" stroke-width="1.19" stroke-linecap="round" stroke-linejoin="round"/>
<path d="M 7.98 4.0 L 7.85 4.42 L 7.73 4.83 L 7.6 5.25 L 7.48 5.67 L 7.35 6.08 L 7.23 6.5 L 7.1 6.92 L 6.98 7.33 L 6.85 7.75 L 6.73 8.17 L 6.6 8.58 L 6.48 9.0 L 6.35 9.42 L 6.23 9.83 L 6.1 10.25 L 5.98 10.67 L 5.85 11.08 L 5.73 11.5 L 5.6 11.92 L 5.48 12.33 L 5.35 12.75 L 5.23 13.17 L 5.1 13.58 L 4.98 14.0 L 4.98 14.0 L 5.44 14.51 L 5.86 15.06 L 6.25 15.63 L 6.59 16.23 L 6.9 16.85 L 7.16 17.49 L 7.37 18.14 L 7.54 18.81 L 7.66 19.49 L 7.73 20.18 L 7.76 20.87 L 7.74 21.56 L 7.67 22.25 L 7.55 22.93 L 7.39 23.6 L 7.18 24.25 L 6.92 24.89 L 6.62 25.52 L 6.28 26.12 L 5.9 26.69 L 5.48 27.24 L 5.02 27.75 L 4.53 28.24 L 4.0 28.69" fill="none" stroke="#111" stroke-width="1.19" stroke-linecap="round" stroke-linejoin="round"/>
</svg>
