<?xml version="1.0" encoding="UTF-8"?>
<svg xmlns="http://www.w3.org/2000/svg" viewBox="0 0 24.83 35.72">
<path d="M 9.83 4.0 L 10.34 4.84 L 10.81 5.71 L 11.23 6.6 L 11.6 7.51 L 11.93 8.44 L 12.21 9.39 L 12.44 10.34 L 12.62 11.31 L 12.75 12.29 L 12.83 13.27 L 12.87 14.25 L 12.85 15.23 L 12.78 16.22 L 12.66 17.19 L 12.5 18.16 L 12.28 19.12 L 12.01 20.07 L 11.7 21.01 L 11.34 21.92 L 10.94 22.82 L 10.48 23.69 L 9.99 24.54 L 9.45 25.37 L 8.87 26.17" fill="none" stroke="#111" stroke-width="1.25" stroke-linecap="round" stroke-linejoin="round"/>
<path d="M 9.83 24.0 L 9.96 24.21 L 10.08 24.42 L 10.21 24.62 L 10.33 24.83 L 10.46 25.04 L 10.58 25.25 L 10.71 25.46 L 10.83 25.67 L 10.96 25.88 L 11.08 26.08 L 11.21 26.29 L 11.33 26.5 L 11.46 26.71 L 11.58 26.92 L 11.71 27.12 L 11.83 27.33 L 11.96 27.54 L 12.08 27.75 L 12.21 27.96 L 12.33 28.17 L 12.46 28.38 L 12.58 28.58 L 12.71 28.79 L 12.83 29.0" fill="none" stroke="#111" stroke-width="1.25" stroke-linecap="round" stroke-linejoin="round"/>
<path d="M 11.83 26.0 L 11.96 25.92 L 12.08 25.83 L 12.21 25.75 L 12.33 25.67 L 12.46 25.58 L 12.58 25.5 L 12.71 25.42 L 12.83 25.33 L 12.96 25.25 L 13.08 25.17 L 13.21 25.08 L 13.33 25.0 L 13.46 24.92 L 13.58 24.83 L 13.71 24.75 L 13.83 24.67 L 13.96 24.58 L 14.08 24.5 L 14.21 24.42 L 14.33 24.33 L 14.46 24.25 L 14.58 24.17 L 14.71 24.08 L 14.83 24.0 L 14.83 24.0 L 15.07 24.37 L 15.27 24.76 L 15.43 25.17 L 15.56 25.59 L 15.65 26.02 L 15.7 26.45 L 15.71 26.89 L 15.68 27.33 L 15.62 27.76 L 15.51 28.19 L 15.37 28.6 L 15.19 29.0 L 14.98 29.39 L 14.73 29.75 L 14.45 30.09 L 14.15 30.4 L 13.81 30.69 L 13.46 30.94 L 13.08 31.16 L 12.68 31.35 L 12.27 31.5 L 11.84 31.61 L 11.41 31.68 L 10.97 31.72" fill="none" stroke="#111" stroke-width="1.25" stroke-linecap="round" stroke-linejoin="round"/>
<path d="M 5.83 24.0 L 5.96 24.29 L 6.08 24.58 L 6.21 24.88 L 6.33 25.17 L 6.46 25.46 L 6.58 25.75 L 6.71 26.04 L 6.83 26.33 L 6.96 26.62 L 7.08 26.92 L 7.21 27.21 L 7.33 27.5 L 7.46 27.79 L 7.58 28.08 L 7.71 28.38 L 7.83 28.67 L 7.96 28.96 L 8.08 29.25 L 8.21 29.54 L 8.33 29.83 L 8.46 30.12 L 8.58 30.42 L 8.71 30.71 L 8.83 31.0" fill="none" stroke="#111" stroke-width="1.25" stroke-linecap="round" stroke-linejoin="round"/>
<path d="M 4.83 24.0 L 4.65 24.24 L 4.49 24.49 L 4.34 24.76 L 4.23 25.03 L 4.13 25.32 L 4.06 25.61 L 4.02 25.91 L 4.0 26.21 L 4.01 26.51 L 4.04 26.81 L 4.1 27.11 L 4.18 27.4 L 4.29 27.68 L 4.42 27.95 L 4.57 28.21 L 4.75 28.46 L 4.94 28.69 L 5.16 28.9 L 5.39 29.09 L 5.64 29.26 L 5.9 29.42 L 6.17 29.54 L 6.45 29.65 L 6.74 29.73" fill="none" stroke="#111" stroke-width="1.25" stroke-linecap="round" stroke-linejoin="round"/>
<path d="M 11.83 5.0 L 12.23 5.26 L 12.6 5.55 L 12.95 5.87 L 13.27 6.21 L 13.57 6.58 L 13.84 6.97 L 14.07 7.37 L 14.28 7.8 L 14.45 8.24 L 14.58 8.69 L 14.68 9.15 L 14.75 9.62 L 14.78 10.09 L 14.77 10.56 L 14.73 11.03 L 14.65 11.5 L 14.53 11.95 L 14.38 12.4 L 14.2 12.83 L 13.98 13.25 L 13.73 13.65 L 13.45 14.03 L 13.14 14.39 L 12.81 14.72" fill="none" stroke="#111" stroke-width="1.25" stroke-linecap="round" stroke-linejoin="round"/>
<path d="M 10.83 9.0 L 11.25 9.29 L 11.67 9.58 L 12.08 9.88 L 12.5 10.17 L 12.92 10.46 L 13.33 10.75 L 13.75 11.04 L 14.17 11.33 L 14.58 11.62 L 15.0 11.92 L 15.42 12.21 L 15.83 12.5 L 16.25 12.79 L 16.67 13.08 L 17.08 13.38 L 17.5 13.67 L 17.92 13.96 L 18.33 14.25 L 18.75 14.54 L 19.17 14.83 L 19.58 15.12 L 20.0 15.42 L 20.42 15.71 L 20.83 16.0" fill="none" stroke="#111" stroke-width="1.25" stroke-linecap="round" stroke-linejoin="round"/>
</svg>
