<?xml version="1.0" encoding="UTF-8"?>
<svg xmlns="http://www.w3.org/2000/svg" viewBox="0 0 22.00 24.00">
<path d="M 4.0 4.0 L 4.0 4.67 L 4.0 5.33 L 4.0 6.0 L 4.0 6.67 L 4.0 7.33 L 4.0 8.0 L 4.0 8.67 L 4.0 9.33 L 4.0 10.0 L 4.0 10.67 L 4.0 11.33 L 4.0 12.0 L 4.0 12.67 L 4.0 13.33 L 4.0 14.0 L 4.0 14.67 L 4.0 15.33 L 4.0 16.0 L 4.0 16.67 L 4.0 17.33 L 4.0 18.0 L 4.0 18.67 L 4.0 19.33 L 4.0 20.0" fill="none" stroke="#111" stroke-width="0.84" stroke-linecap="round" stroke-linejoin="round"/>
<path d="M 18.0 4.0 L 18.0 4.67 L 18.0 5.33 L 18.0 6.0 L 18.0 6.67 L 18.0 7.33 L 18.0 8.0 L 18.0 8.67 L 18.0 9.33 L 18.0 10.0 L 18.0 10.67 L 18.0 11.33 L 18.0 12.0 L 18.0 12.67 L 18.0 13.33 L 18.0 14.0 L 18.0 14.67 L 18.0 15.33 L 18.0 16.0 L 18.0 16.67 L 18.0 17.33 L 18.0 18.0 L 18.0 18.67 L 18.0 19.33 L 18.0 20.0" fill="none" stroke="#111" stroke-width="0.84" stroke-linecap="round" stroke-linejoin="round"/>
<path d="M 4.0 4.0 L 4.58 4.0 L 5.17 4.0 L 5.75 4.0 L 6.33 4.0 L 6.92 4.0 L 7.5 4.0 L 8.08 4.0 L 8.67 4.0 L 9.25 4.0 L 9.83 4.0 L 10.42 4.0 L 11.0 4.0 L 11.58 4.0 L 12.17 4.0 L 12.75 4.0 L 13.33 4.0 L 13.92 4.0 L 14.5 4.0 L 15.08 4.0 L 15.67 4.0 L 16.25 4.0 L 16.83 4.0 L 17.42 4.0 L 18.0 4.0" fill="none" stroke="#111" stroke-width="0.84" stroke-linecap="round" stroke-linejoin="round"/>
<path d="M 4.0 20.0 L 4.58 20.0 L 5.17 20.0 L 5.75 20.0 L 6.33 20.0 L 6.92 20.0 L 7.5 20.0 L 8.08 20.0 L 8.67 20.0 L 9.25 20.0 L 9.83 20.0 L 10.42 20.0 L 11.0 20.0 L 11.58 20.0 L 12.17 20.0 L 12.75 20.0 L 13.33 20.0 L 13.92 20.0 L 14.5 20.0 L 15.08 20.0 L 15.67 20.0 L 16.25 20.0 L 16.83 20.0 L 17.42 20.0 L 18.0 20.0" fill="none" stroke="#111" stroke-width="0.84" stroke-linecap="round" stroke-linejoin="round"/>
<path d="M 7.0 4.0 L 6.71 4.46 L 6.51 4.96 L 6.41 5.49 L 6.4 6.03 L 6.5 6.56 L 6.69 7.07 L 6.97 7.53 L 7.33 7.93 L 7.76 8.26 L 8.25 8.5 L 8.77 8.65 L 9.31 8.7 L 9.84 8.65 L 10.36 8.5 L 10.85 8.26 L 11.28 7.93 L 11.64 7.53 L 11.92 7.07 L 12.12 6.56 L 12.21 6.03 L 12.21 5.49 L 12.1 4.96 L 11.9 4.46 L 11.61 4.0" fill="none" stroke="#111" stroke-width="0.84" stroke-linecap="round" stroke-linejoin="round"/>
<path d="M 12.0 4.0 L 11.71 4.46 L 11.51 4.96 L 11.41 5.49 L 11.4 6.03 L 11.5 6.56 L 11.69 7.07 L 11.97 7.53 L 12.33 7.93 L 12.76 8.26 L 13.25 8.5 L 13.77 8.65 L 14.31 8.7 L 14.84 8.65 L 15.36 8.5 L 15.85 8.26 L 16.28 7.93 L 16.64 7.53 L 16.92 7.07 L 17.12 6.56 L 17.21 6.03 L 17.21 5.49 L 17.1 4.96 L 16.9 4.46 L 16.61 4.0" fill="none" stroke="#111" stroke-width="0.84" stroke-linecap="round" stroke-linejoin="round"/>
<path d="M 7.0 20.0 L 6.77 19.61 L 6.61 19.18 L 6.53 18.73 L 6.53 18.27 L 6.62 17.82 L 6.79 17.39 L 7.04 17.01 L 7.35 16.67 L 7.71 16.4 L 8.12 16.19 L 8.57 16.07 L 9.02 16.03 L 9.48 16.07 L 9.92 16.19 L 10.33 16.4 L 10.69 16.67 L 11.01 17.01 L 11.25 17.39 L 11.42 17.82 L 11.51 18.27 L 11.51 18.73 L 11.44 19.18 L 11.28 19.61 L 11.04 20.0" fill="none" stroke="#111" stroke-width="0.84" stroke-linecap="round" stroke-linejoin="round"/>
<path d="M 12.0 20.0 L 11.78 19.55 L 11.64 19.07 L 11.58 18.58 L 11.62 18.08 L 11.74 17.59 L 11.94 17.14 L 12.22 16.73 L 12.57 16.37 L 12.98 16.08 L 13.43 15.87 L 13.91 15.74 L 14.41 15.69 L 14.91 15.74 L 15.39 15.87 L 15.84 16.08 L 16.25 16.37 L 16.6 16.73 L 16.88 17.14 L 17.08 17.59 L 17.2 18.08 L 17.24 18.58 L 17.18 19.07 L 17.04 19.55 L 16.82 20.0" fill="none" stroke="#111" stroke-width="0.84" stroke-linecap="round" stroke-linejoin="round"/>
</svg>
