<?xml version="1.0" encoding="UTF-8"?>
<svg xmlns="http://www.w3.org/2000/svg" viewBox="0 0 28.00 37.00">
<path d="M 6.0 12.0 L 6.38 12.0 L 6.75 12.0 L 7.12 12.0 L 7.5 12.0 L 7.88 12.0 L 8.25 12.0 L 8.62 12.0 L 9.0 12.0 L 9.38 12.0 L 9.75 12.0 L 10.12 12.0 L 10.5 12.0 L 10.88 12.0 L 11.25 12.0 L 11.62 12.0 L 12.0 12.0 L 12.38 12.0 L 12.75 12.0 L 13.12 12.0 L 13.5 12.0 L 13.88 12.0 L 14.25 12.0 L 14.62 12.0 L 15.0 12.0" fill="none" stroke="#111" stroke-width="1.30" stroke-linecap="round" stroke-linejoin="round"/>
<path d="M 4.0 15.0 L 4.54 15.0 L 5.08 15.0 L 5.62 15.0 L 6.17 15.0 L 6.71 15.0 L 7.25 15.0 L 7.79 15.0 L 8.33 15.0 L 8.88 15.0 L 9.42 15.0 L 9.96 15.0 L 10.5 15.0 L 11.04 15.0 L 11.58 15.0 L 12.12 15.0 L 12.67 15.0 L 13.21 15.0 L 13.75 15.0 L 14.29 15.0 L 14.83 15.0 L 15.38 15.0 L 15.92 15.0 L 16.46 15.0 L 17.0 15.0" fill="none" stroke="#111" stroke-width="1.30" stroke-linecap="round" stroke-linejoin="round"/>
<path d="M 11.0 15.0 L 11.0 15.75 L 11.0 16.5 L 11.0 17.25 L 11.0 18.0 L 11.0 18.75 L 11.0 19.5 L 11.0 20.25 L 11.0 21.0 L 11.0 21.75 L 11.0 22.5 L 11.0 23.25 L 11.0 24.0 L 11.0 24.75 L 11.0 25.5 L 11.0 26.25 L 11.0 27.0 L 11.0 27.75 L 11.0 28.5 L 11.0 29.25 L 11.0 30.0 L 11.0 30.75 L 11.0 31.5 L 11.0 32.25 L 11.0 33.0" fill="none" stroke="#111" stroke-width="1.30" stroke-linecap="round" stroke-linejoin="round"/>
<path d="M 9.0 4.0 L 9.62 4.0 L 10.25 4.0 L 10.88 4.0 L 11.5 4.0 L 12.12 4.0 L 12.75 4.0 L 13.38 4.0 L 14.0 4.0 L 14.62 4.0 L 15.25 4.0 L 15.88 4.0 L 16.5 4.0 L 17.12 4.0 L 17.75 4.0 L 18.38 4.0 L 19.0 4.0 L 19.62 4.0 L 20.25 4.0 L 20.88 4.0 L 21.5 4.0 L 22.12 4.0 L 22.75 4.0 L 23.38 4.0 L 24.0 4.0" fill="none" stroke="#111" stroke-width="1.30" stroke-linecap="round" stroke-linejoin="round"/>
<path d="M 24.0 4.0 L 24.0 5.04 L 24.0 6.08 L 24.0 7.12 L 24.0 8.17 L 24.0 9.21 L 24.0 10.25 L 24.0 11.29 L 24.0 12.33 L 24.0 13.38 L 24.0 14.42 L 24.0 15.46 L 24.0 16.5 L 24.0 17.54 L 24.0 18.58 L 24.0 19.62 L 24.0 20.67 L 24.0 21.71 L 24.0 22.75 L 24.0 23.79 L 24.0 24.83 L 24.0 25.88 L 24.0 26.92 L 24.0 27.96 L 24.0 29.0" fill="none" stroke="#111" stroke-width="1.30" stroke-linecap="round" stroke-linejoin="round"/>
<path d="M 11.0 4.0 L 11.54 4.5 L 12.08 5.0 L 12.62 5.5 L 13.17 6.0 L 13.71 6.5 L 14.25 7.0 L 14.79 7.5 L 15.33 8.0 L 15.88 8.5 L 16.42 9.0 L 16.96 9.5 L 17.5 10.0 L 18.04 10.5 L 18.58 11.0 L 19.12 11.5 L 19.67 12.0 L 20.21 12.5 L 20.75 13.0 L 21.29 13.5 L 21.83 14.0 L 22.38 14.5 L 22.92 15.0 L 23.46 15.5 L 24.0 16.0" fill="none" stroke="#111" stroke-width="1.30" stroke-linecap="round" stroke-linejoin="round"/>
</svg>
