<?xml version="1.0" encoding="UTF-8"?>
<svg xmlns="http://www.w3.org/2000/svg" viewBox="0 0 27.00 35.74">
<path d="M 7.0 6.0 L 7.04 6.25 L 7.08 6.5 L 7.12 6.75 L 7.17 7.0 L 7.21 7.25 L 7.25 7.5 L 7.29 7.75 L 7.33 8.0 L 7.38 8.25 L 7.42 8.5 L 7.46 8.75 L 7.5 9.0 L 7.54 9.25 L 7.58 9.5 L 7.62 9.75 L 7.67 10.0 L 7.71 10.25 L 7.75 10.5 L 7.79 10.75 L 7.83 11.0 L 7.88 11.25 L 7.92 11.5 L 7.96 11.75 L 8.0 12.0" fill="none" stroke="#111" stroke-width="1.25" stroke-linecap="round" stroke-linejoin="round"/>
<path d="M 17.0 4.0 L 17.0 4.29 L 17.0 4.58 L 17.0 4.88 L 17.0 5.17 L 17.0 5.46 L 17.0 5.75 L 17.0 6.04 L 17.0 6.33 L 17.0 6.62 L 17.0 6.92 L 17.0 7.21 L 17.0 7.5 L 17.0 7.79 L 17.0 8.08 L 17.0 8.38 L 17.0 8.67 L 17.0 8.96 L 17.0 9.25 L 17.0 9.54 L 17.0 9.83 L 17.0 10.12 L 17.0 10.42 L 17.0 10.71 L 17.0 11.0" fill="none" stroke="#111" stroke-width="1.25" stroke-linecap="round" stroke-linejoin="round"/>
<path d="M 12.0 5.0 L 12.26 5.55 L 12.48 6.12 L 12.66 6.71 L 12.8 7.3 L 12.91 7.9 L 12.98 8.51 L 13.01 9.12 L 13.01 9.73 L 12.96 10.34 L 12.87 10.94 L 12.75 11.54 L 12.59 12.13 L 12.39 12.71 L 12.16 13.27 L 11.89 13.82 L 11.58 14.35 L 11.25 14.86 L 10.88 15.34 L 10.48 15.81 L 10.05 16.24 L 9.6 16.65 L 9.12 17.03 L 8.62 17.38 L 8.09 17.69" fill="none" stroke="#111" stroke-width="1.25" stroke-linecap="round" stroke-linejoin="round"/>
<path d="M 13.0 13.0 L 13.21 13.25 L 13.42 13.5 L 13.62 13.75 L 13.83 14.0 L 14.04 14.25 L 14.25 14.5 L 14.46 14.75 L 14.67 15.0 L 14.88 15.25 L 15.08 15.5 L 15.29 15.75 L 15.5 16.0 L 15.71 16.25 L 15.92 16.5 L 16.12 16.75 L 16.33 17.0 L 16.54 17.25 L 16.75 17.5 L 16.96 17.75 L 17.17 18.0 L 17.38 18.25 L 17.58 18.5 L 17.79 18.75 L 18.0 19.0" fill="none" stroke="#111" stroke-width="1.25" stroke-linecap="round" stroke-linejoin="round"/>
<path d="M 6.0 21.0 L 5.92 21.29 L 5.83 21.58 L 5.75 21.88 L 5.67 22.17 L 5.58 22.46 L 5.5 22.75 L 5.42 23.04 L 5.33 23.33 L 5.25 23.62 L 5.17 23.92 L 5.08 24.21 L 5.0 24.5 L 4.92 24.79 L 4.83 25.08 L 4.75 25.38 L 4.67 25.67 L 4.58 25.96 L 4.5 26.25 L 4.42 26.54 L 4.33 26.83 L 4.25 27.12 L 4.17 27.42 L 4.08 27.71 L 4.0 28.0" fill="none" stroke="#111" stroke-width="1.25" stroke-linecap="round" stroke-linejoin="round"/>
<path d="M 18.0 21.0 L 18.21 21.17 L 18.42 21.33 L 18.62 21.5 L 18.83 21.67 L 19.04 21.83 L 19.25 22.0 L 19.46 22.17 L 19.67 22.33 L 19.88 22.5 L 20.08 22.67 L 20.29 22.83 L 20.5 23.0 L 20.71 23.17 L 20.92 23.33 L 21.12 23.5 L 21.33 23.67 L 21.54 23.83 L 21.75 24.0 L 21.96 24.17 L 22.17 24.33 L 22.38 24.5 L 22.58 24.67 L 22.79 24.83 L 23.0 25.0" fill="none" stroke="#111" stroke-width="1.25" stroke-linecap="round" stroke-linejoin="round"/>
<path d="M 12.0 17.0 L 12.2 17.69 L 12.36 18.39 L 12.48 19.09 L 12.56 19.81 L 12.6 20.52 L 12.6 21.24 L 12.55 21.96 L 12.47 22.67 L 12.34 23.38 L 12.17 24.07 L 11.96 24.76 L 11.72 25.43 L 11.43 26.09 L 11.11 26.73 L 10.75 27.35 L 10.35 27.95 L 9.92 28.53 L 9.46 29.08 L 8.97 29.6 L 8.45 30.09 L 7.9 30.55 L 7.32 30.98 L 6.73 31.38 L 6.11 31.74" fill="none" stroke="#111" stroke-width="1.25" stroke-linecap="round" stroke-linejoin="round"/>
<path d="M 13.0 24.0 L 13.33 24.29 L 13.67 24.58 L 14.0 24.88 L 14.33 25.17 L 14.67 25.46 L 15.0 25.75 L 15.33 26.04 L 15.67 26.33 L 16.0 26.62 L 16.33 26.92 L 16.67 27.21 L 17.0 27.5 L 17.33 27.79 L 17.67 28.08 L 18.0 28.38 L 18.33 28.67 L 18.67 28.96 L 19.0 29.25 L 19.33 29.54 L 19.67 29.83 L 20.0 30.12 L 20.33 30.42 L 20.67 30.71 L 21.0 31.0" fill="none" stroke="#111" stroke-width="1.25" stroke-linecap="round" stroke-linejoin="round"/>
</svg>
