<?xml version="1.0" encoding="UTF-8"?>
<svg xmlns="http://www.w3.org/2000/svg" viewBox="0 0 20.00 36.00">
<path d="M 5.0 21.0 L 5.42 21.0 L 5.83 21.0 L 6.25 21.0 L 6.67 21.0 L 7.08 21.0 L 7.5 21.0 L 7.92 21.0 L 8.33 21.0 L 8.75 21.0 L 9.17 21.0 L 9.58 21.0 L 10.0 21.0 L 10.42 21.0 L 10.83 21.0 L 11.25 21.0 L 11.67 21.0 L 12.08 21.0 L 12.5 21.0 L 12.92 21.0 L 13.33 21.0 L 13.75 21.0 L 14.17 21.0 L 14.58 21.0 L 15.0 21.0" fill="none" stroke="#111" stroke-width="1.26" stroke-linecap="round" stroke-linejoin="round"/>
<path d="M 5.0 21.0 L 4.81 21.63 L 4.7 22.27 L 4.66 22.92 L 4.7 23.57 L 4.81 24.22 L 4.99 24.84 L 5.25 25.44 L 5.57 26.01 L 5.95 26.54 L 6.39 27.02 L 6.89 27.45 L 7.43 27.81 L 8.01 28.12 L 8.61 28.35 L 9.25 28.52 L 9.89 28.61 L 10.55 28.62 L 11.2 28.56 L 11.83 28.43 L 12.45 28.23 L 13.05 27.95 L 13.6 27.61 L 14.12 27.21 L 14.58 26.75 L 15.0 27.0 L 14.96 26.75 L 14.92 26.5 L 14.87 26.25 L 14.83 26.0 L 14.79 25.75 L 14.75 25.5 L 14.71 25.25 L 14.67 25.0 L 14.62 24.75 L 14.58 24.5 L 14.54 24.25 L 14.5 24.0 L 14.46 23.75 L 14.42 23.5 L 14.37 23.25 L 14.33 23.0 L 14.29 22.75 L 14.25 22.5 L 14.21 22.25 L 14.17 22.0 L 14.12 21.75 L 14.08 21.5 L 14.04 21.25 L 14.0 21.0" fill="none" stroke="#111" stroke-width="1.26" stroke-linecap="round" stroke-linejoin="round"/>
<path d="M 8.0 23.0 L 8.25 23.0 L 8.5 23.0 L 8.75 23.0 L 9.0 23.0 L 9.25 23.0 L 9.5 23.0 L 9.75 23.0 L 10.0 23.0 L 10.25 23.0 L 10.5 23.0 L 10.75 23.0 L 11.0 23.0 L 11.25 23.0 L 11.5 23.0 L 11.75 23.0 L 12.0 23.0 L 12.25 23.0 L 12.5 23.0 L 12.75 23.0 L 13.0 23.0 L 13.25 23.0 L 13.5 23.0 L 13.75 23.0 L 14.0 23.0" fill="none" stroke="#111" stroke-width="1.26" stroke-linecap="round" stroke-linejoin="round"/>
<path d="M 10.0 12.0 L 10.08 12.38 L 10.17 12.75 L 10.25 13.12 L 10.33 13.5 L 10.42 13.88 L 10.5 14.25 L 10.58 14.62 L 10.67 15.0 L 10.75 15.38 L 10.83 15.75 L 10.92 16.12 L 11.0 16.5 L 11.08 16.88 L 11.17 17.25 L 11.25 17.62 L 11.33 18.0 L 11.42 18.38 L 11.5 18.75 L 11.58 19.12 L 11.67 19.5 L 11.75 19.88 L 11.83 20.25 L 11.92 20.62 L 12.0 21.0" fill="none" stroke="#111" stroke-width="1.26" stroke-linecap="round" stroke-linejoin="round"/>
<path d="M 9.0 28.0 L 9.0 28.17 L 9.0 28.33 L 9.0 28.5 L 9.0 28.67 L 9.0 28.83 L 9.0 29.0 L 9.0 29.17 L 9.0 29.33 L 9.0 29.5 L 9.0 29.67 L 9.0 29.83 L 9.0 30.0 L 9.0 30.17 L 9.0 30.33 L 9.0 30.5 L 9.0 30.67 L 9.0 30.83 L 9.0 31.0 L 9.0 31.17 L 9.0 31.33 L 9.0 31.5 L 9.0 31.67 L 9.0 31.83 L 9.0 32.0" fill="none" stroke="#111" stroke-width="1.26" stroke-linecap="round" stroke-linejoin="round"/>
<path d="M 10.0 12.0 L 9.83 12.38 L 9.67 12.75 L 9.5 13.12 L 9.33 13.5 L 9.17 13.88 L 9.0 14.25 L 8.83 14.62 L 8.67 15.0 L 8.5 15.38 L 8.33 15.75 L 8.17 16.12 L 8.0 16.5 L 7.83 16.88 L 7.67 17.25 L 7.5 17.62 L 7.33 18.0 L 7.17 18.38 L 7.0 18.75 L 6.83 19.12 L 6.67 19.5 L 6.5 19.88 L 6.33 20.25 L 6.17 20.62 L 6.0 21.0" fill="none" stroke="#111" stroke-width="1.26" stroke-linecap="round" stroke-linejoin="round"/>
<path d="M 12.0 28.0 L 12.04 28.12 L 12.08 28.25 L 12.12 28.38 L 12.17 28.5 L 12.21 28.62 L 12.25 28.75 L 12.29 28.88 L 12.33 29.0 L 12.37 29.12 L 12.42 29.25 L 12.46 29.38 L 12.5 29.5 L 12.54 29.62 L 12.58 29.75 L 12.62 29.88 L 12.67 30.0 L 12.71 30.12 L 12.75 30.25 L 12.79 30.38 L 12.83 30.5 L 12.87 30.62 L 12.92 30.75 L 12.96 30.88 L 13.0 31.0" fill="none" stroke="#111" stroke-width="1.26" stroke-linecap="round" stroke-linejoin="round"/>
<path d="M 8.0 32.0 L 8.33 31.96 L 8.67 31.92 L 9.0 31.88 L 9.33 31.83 L 9.67 31.79 L 10.0 31.75 L 10.33 31.71 L 10.67 31.67 L 11.0 31.62 L 11.33 31.58 L 11.67 31.54 L 12.0 31.5 L 12.33 31.46 L 12.67 31.42 L 13.0 31.38 L 13.33 31.33 L 13.67 31.29 L 14.0 31.25 L 14.33 31.21 L 14.67 31.17 L 15.0 31.12 L 15.33 31.08 L 15.67 31.04 L 16.0 31.0" fill="none" stroke="#111" stroke-width="1.26" stroke-linecap="round" stroke-linejoin="round"/>
<path d="M 10.0 4.0 L 9.75 4.33 L 9.5 4.67 L 9.25 5.0 L 9.0 5.33 L 8.75 5.67 L 8.5 6.0 L 8.25 6.33 L 8.0 6.67 L 7.75 7.0 L 7.5 7.33 L 7.25 7.67 L 7.0 8.0 L 6.75 8.33 L 6.5 8.67 L 6.25 9.0 L 6.0 9.33 L 5.75 9.67 L 5.5 10.0 L 5.25 10.33 L 5.0 10.67 L 4.75 11.0 L 4.5 11.33 L 4.25 11.67 L 4.0 12.0" fill="none" stroke="#111" stroke-width="1.26" stroke-linecap="round" stroke-linejoin="round"/>
<path d="M 10.0 4.0 L 10.21 4.29 L 10.42 4.58 L 10.62 4.88 L 10.83 5.17 L 11.04 5.46 L 11.25 5.75 L 11.46 6.04 L 11.67 6.33 L 11.87 6.62 L 12.08 6.92 L 12.29 7.21 L 12.5 7.5 L 12.71 7.79 L 12.92 8.08 L 13.12 8.38 L 13.33 8.67 L 13.54 8.96 L 13.75 9.25 L 13.96 9.54 L 14.17 9.83 L 14.37 10.12 L 14.58 10.42 L 14.79 10.71 L 15.0 11.0" fill="none" stroke="#111" stroke-width="1.26" stroke-linecap="round" stroke-linejoin="round"/>
<path d="M 6.0 9.0 L 6.29 8.96 L 6.58 8.92 L 6.87 8.88 L 7.17 8.83 L 7.46 8.79 L 7.75 8.75 L 8.04 8.71 L 8.33 8.67 L 8.62 8.62 L 8.92 8.58 L 9.21 8.54 L 9.5 8.5 L 9.79 8.46 L 10.08 8.42 L 10.37 8.38 L 10.67 8.33 L 10.96 8.29 L 11.25 8.25 L 11.54 8.21 L 11.83 8.17 L 12.12 8.12 L 12.42 8.08 L 12.71 8.04 L 13.0 8.0" fill="none" stroke="#111" stroke-width="1.26" stroke-linecap="round" stroke-linejoin="round"/>
</svg>
