<?xml version="1.0" encoding="UTF-8"?>
<svg xmlns="http://www.w3.org/2000/svg" viewBox="0 0 23.51 35.90">
<path d="M 11.08 4.0 L 11.15 4.45 L 11.19 4.89 L 11.19 5.34 L 11.17 5.79 L 11.11 6.24 L 11.02 6.68 L 10.91 7.12 L 10.76 7.54 L 10.58 7.96 L 10.38 8.36 L 10.15 8.75 L 9.89 9.11 L 9.61 9.47 L 9.3 9.8 L 8.97 10.1 L 8.63 10.39 L 8.26 10.65 L 7.87 10.88 L 7.47 11.09 L 7.06 11.27 L 6.64 11.42 L 6.2 11.54 L 5.76 11.63 L 5.31 11.69" fill="none" stroke="#111" stroke-width="1.26" stroke-linecap="round" stroke-linejoin="round"/>
<path d="M 11.08 7.0 L 11.33 7.21 L 11.58 7.42 L 11.83 7.62 L 12.08 7.83 L 12.33 8.04 L 12.58 8.25 L 12.83 8.46 L 13.08 8.67 L 13.33 8.88 L 13.58 9.08 L 13.83 9.29 L 14.08 9.5 L 14.33 9.71 L 14.58 9.92 L 14.83 10.12 L 15.08 10.33 L 15.33 10.54 L 15.58 10.75 L 15.83 10.96 L 16.08 11.17 L 16.33 11.38 L 16.58 11.58 L 16.83 11.79 L 17.08 12.0" fill="none" stroke="#111" stroke-width="1.26" stroke-linecap="round" stroke-linejoin="round"/>
<path d="M 11.08 7.0 L 11.08 8.01 L 11.08 9.02 L 11.07 10.03 L 11.05 11.04 L 11.03 12.05 L 10.99 13.05 L 10.95 14.06 L 10.9 15.07 L 10.85 16.08 L 10.78 17.09 L 10.71 18.09 L 10.63 19.1 L 10.54 20.1 L 10.45 21.11 L 10.34 22.11 L 10.23 23.12 L 10.11 24.12 L 9.99 25.12 L 9.85 26.12 L 9.71 27.12 L 9.56 28.12 L 9.41 29.11 L 9.24 30.11 L 9.07 31.1" fill="none" stroke="#111" stroke-width="1.26" stroke-linecap="round" stroke-linejoin="round"/>
<path d="M 12.08 22.0 L 12.37 22.34 L 12.65 22.68 L 12.92 23.04 L 13.17 23.41 L 13.41 23.78 L 13.63 24.16 L 13.84 24.56 L 14.04 24.96 L 14.22 25.36 L 14.39 25.77 L 14.54 26.19 L 14.67 26.62 L 14.79 27.04 L 14.9 27.48 L 14.99 27.91 L 15.06 28.35 L 15.11 28.79 L 15.15 29.24 L 15.18 29.68 L 15.18 30.13 L 15.17 30.57 L 15.15 31.01 L 15.11 31.46 L 15.05 31.9" fill="none" stroke="#111" stroke-width="1.26" stroke-linecap="round" stroke-linejoin="round"/>
<path d="M 7.08 14.0 L 6.79 14.57 L 6.52 15.16 L 6.25 15.74 L 6.01 16.34 L 5.77 16.94 L 5.55 17.54 L 5.35 18.15 L 5.16 18.76 L 4.98 19.38 L 4.82 20.0 L 4.67 20.63 L 4.53 21.26 L 4.42 21.89 L 4.31 22.53 L 4.22 23.16 L 4.15 23.8 L 4.09 24.44 L 4.04 25.08 L 4.01 25.73 L 4.0 26.37 L 4.0 27.01 L 4.02 27.65 L 4.05 28.3 L 4.09 28.94" fill="none" stroke="#111" stroke-width="1.26" stroke-linecap="round" stroke-linejoin="round"/>
<path d="M 6.08 17.0 L 6.2 17.17 L 6.33 17.33 L 6.45 17.5 L 6.58 17.67 L 6.7 17.83 L 6.83 18.0 L 6.95 18.17 L 7.08 18.33 L 7.2 18.5 L 7.33 18.67 L 7.45 18.83 L 7.58 19.0 L 7.7 19.17 L 7.83 19.33 L 7.95 19.5 L 8.08 19.67 L 8.2 19.83 L 8.33 20.0 L 8.45 20.17 L 8.58 20.33 L 8.7 20.5 L 8.83 20.67 L 8.95 20.83 L 9.08 21.0" fill="none" stroke="#111" stroke-width="1.26" stroke-linecap="round" stroke-linejoin="round"/>
<path d="M 15.08 13.0 L 15.54 13.59 L 15.97 14.19 L 16.39 14.81 L 16.78 15.44 L 17.14 16.09 L 17.49 16.75 L 17.8 17.43 L 18.09 18.11 L 18.36 18.81 L 18.59 19.52 L 18.81 20.23 L 18.99 20.95 L 19.15 21.68 L 19.28 22.41 L 19.38 23.15 L 19.45 23.89 L 19.5 24.63 L 19.51 25.38 L 19.5 26.12 L 19.47 26.87 L 19.4 27.61 L 19.31 28.35 L 19.18 29.08 L 19.04 29.81" fill="none" stroke="#111" stroke-width="1.26" stroke-linecap="round" stroke-linejoin="round"/>
<path d="M 15.08 21.0 L 15.16 20.88 L 15.25 20.75 L 15.33 20.62 L 15.41 20.5 L 15.5 20.38 L 15.58 20.25 L 15.66 20.12 L 15.75 20.0 L 15.83 19.88 L 15.91 19.75 L 16.0 19.62 L 16.08 19.5 L 16.16 19.38 L 16.25 19.25 L 16.33 19.12 L 16.41 19.0 L 16.5 18.88 L 16.58 18.75 L 16.66 18.62 L 16.75 18.5 L 16.83 18.38 L 16.91 18.25 L 17.0 18.12 L 17.08 18.0" fill="none" stroke="#111" stroke-width="1.26" stroke-linecap="round" stroke-linejoin="round"/>
</svg>
