<?xml version="1.0" encoding="UTF-8"?>
<svg xmlns="http://www.w3.org/2000/svg" viewBox="0 0 17.00 36.66">
<path d="M 9.0 4.0 L 9.0 4.83 L 9.0 5.67 L 9.0 6.5 L 9.0 7.33 L 9.0 8.17 L 9.0 9.0 L 9.0 9.83 L 9.0 10.67 L 9.0 11.5 L 9.0 12.33 L 9.0 13.17 L 9.0 14.0 L 9.0 14.83 L 9.0 15.67 L 9.0 16.5 L 9.0 17.33 L 9.0 18.17 L 9.0 19.0 L 9.0 19.83 L 9.0 20.67 L 9.0 21.5 L 9.0 22.33 L 9.0 23.17 L 9.0 24.0" fill="none" stroke="#111" stroke-width="1.28" stroke-linecap="round" stroke-linejoin="round"/>
<path d="M 9.0 4.0 L 8.79 4.38 L 8.58 4.75 L 8.38 5.12 L 8.17 5.5 L 7.96 5.88 L 7.75 6.25 L 7.54 6.62 L 7.33 7.0 L 7.12 7.38 L 6.92 7.75 L 6.71 8.12 L 6.5 8.5 L 6.29 8.88 L 6.08 9.25 L 5.88 9.63 L 5.67 10.0 L 5.46 10.38 L 5.25 10.75 L 5.04 11.12 L 4.83 11.5 L 4.62 11.88 L 4.42 12.25 L 4.21 12.63 L 4.0 13.0" fill="none" stroke="#111" stroke-width="1.28" stroke-linecap="round" stroke-linejoin="round"/>
<path d="M 9.0 4.0 L 9.17 4.33 L 9.33 4.67 L 9.5 5.0 L 9.67 5.33 L 9.83 5.67 L 10.0 6.0 L 10.17 6.33 L 10.33 6.67 L 10.5 7.0 L 10.67 7.33 L 10.83 7.67 L 11.0 8.0 L 11.17 8.33 L 11.33 8.67 L 11.5 9.0 L 11.67 9.33 L 11.83 9.67 L 12.0 10.0 L 12.17 10.33 L 12.33 10.67 L 12.5 11.0 L 12.67 11.33 L 12.83 11.67 L 13.0 12.0" fill="none" stroke="#111" stroke-width="1.28" stroke-linecap="round" stroke-linejoin="round"/>
<path d="M 9.0 23.0 L 8.67 23.35 L 8.36 23.73 L 8.09 24.14 L 7.86 24.56 L 7.66 25.01 L 7.49 25.47 L 7.37 25.94 L 7.28 26.42 L 7.24 26.9 L 7.23 27.39 L 7.27 27.87 L 7.34 28.35 L 7.46 28.83 L 7.61 29.29 L 7.8 29.74 L 8.03 30.17 L 8.3 30.58 L 8.59 30.96 L 8.92 31.32 L 9.27 31.65 L 9.66 31.96 L 10.06 32.23 L 10.49 32.46 L 10.93 32.66" fill="none" stroke="#111" stroke-width="1.28" stroke-linecap="round" stroke-linejoin="round"/>
<path d="M 9.0 23.0 L 9.35 23.41 L 9.67 23.85 L 9.94 24.32 L 10.16 24.81 L 10.34 25.32 L 10.46 25.84 L 10.54 26.38 L 10.57 26.91 L 10.54 27.45 L 10.46 27.99 L 10.34 28.51 L 10.16 29.02 L 9.94 29.51 L 9.67 29.98 L 9.35 30.42 L 9.0 30.83 L 8.61 31.2 L 8.19 31.54 L 7.73 31.83 L 7.25 32.08 L 6.75 32.28 L 6.23 32.43 L 5.7 32.53 L 5.17 32.58" fill="none" stroke="#111" stroke-width="1.28" stroke-linecap="round" stroke-linejoin="round"/>
</svg>
