<?xml version="1.0" encoding="UTF-8"?>
<svg xmlns="http://www.w3.org/2000/svg" viewBox="0 0 28.00 36.86">
<path d="M 4.0 6.0 L 4.42 5.96 L 4.83 5.92 L 5.25 5.88 L 5.67 5.83 L 6.08 5.79 L 6.5 5.75 L 6.92 5.71 L 7.33 5.67 L 7.75 5.62 L 8.17 5.58 L 8.58 5.54 L 9.0 5.5 L 9.42 5.46 L 9.83 5.42 L 10.25 5.38 L 10.67 5.33 L 11.08 5.29 L 11.5 5.25 L 11.92 5.21 L 12.33 5.17 L 12.75 5.12 L 13.17 5.08 L 13.58 5.04 L 14.0 5.0" fill="none" stroke="#111" stroke-width="1.29" stroke-linecap="round" stroke-linejoin="round"/>
<path d="M 5.0 15.0 L 5.33 15.0 L 5.67 15.0 L 6.0 15.0 L 6.33 15.0 L 6.67 15.0 L 7.0 15.0 L 7.33 15.0 L 7.67 15.0 L 8.0 15.0 L 8.33 15.0 L 8.67 15.0 L 9.0 15.0 L 9.33 15.0 L 9.67 15.0 L 10.0 15.0 L 10.33 15.0 L 10.67 15.0 L 11.0 15.0 L 11.33 15.0 L 11.67 15.0 L 12.0 15.0 L 12.33 15.0 L 12.67 15.0 L 13.0 15.0" fill="none" stroke="#111" stroke-width="1.29" stroke-linecap="round" stroke-linejoin="round"/>
<path d="M 9.0 5.0 L 9.0 5.96 L 9.0 6.92 L 9.0 7.88 L 9.0 8.83 L 9.0 9.79 L 9.0 10.75 L 9.0 11.71 L 9.0 12.67 L 9.0 13.62 L 9.0 14.58 L 9.0 15.54 L 9.0 16.5 L 9.0 17.46 L 9.0 18.42 L 9.0 19.38 L 9.0 20.33 L 9.0 21.29 L 9.0 22.25 L 9.0 23.21 L 9.0 24.17 L 9.0 25.12 L 9.0 26.08 L 9.0 27.04 L 9.0 28.0" fill="none" stroke="#111" stroke-width="1.29" stroke-linecap="round" stroke-linejoin="round"/>
<path d="M 17.0 4.0 L 17.23 4.41 L 17.43 4.83 L 17.59 5.27 L 17.71 5.72 L 17.8 6.17 L 17.85 6.64 L 17.87 7.1 L 17.84 7.57 L 17.78 8.03 L 17.68 8.49 L 17.54 8.93 L 17.37 9.37 L 17.16 9.78 L 16.92 10.18 L 16.65 10.56 L 16.35 10.92 L 16.02 11.25 L 15.67 11.55 L 15.29 11.82 L 14.89 12.06 L 14.47 12.27 L 14.04 12.45 L 13.6 12.58 L 13.14 12.69" fill="none" stroke="#111" stroke-width="1.29" stroke-linecap="round" stroke-linejoin="round"/>
<path d="M 18.0 8.0 L 18.25 8.29 L 18.5 8.58 L 18.75 8.88 L 19.0 9.17 L 19.25 9.46 L 19.5 9.75 L 19.75 10.04 L 20.0 10.33 L 20.25 10.62 L 20.5 10.92 L 20.75 11.21 L 21.0 11.5 L 21.25 11.79 L 21.5 12.08 L 21.75 12.38 L 22.0 12.67 L 22.25 12.96 L 22.5 13.25 L 22.75 13.54 L 23.0 13.83 L 23.25 14.12 L 23.5 14.42 L 23.75 14.71 L 24.0 15.0" fill="none" stroke="#111" stroke-width="1.29" stroke-linecap="round" stroke-linejoin="round"/>
<path d="M 18.0 9.0 L 18.2 10.01 L 18.37 11.03 L 18.51 12.05 L 18.62 13.08 L 18.69 14.11 L 18.73 15.14 L 18.74 16.17 L 18.71 17.2 L 18.66 18.23 L 18.57 19.26 L 18.45 20.29 L 18.29 21.31 L 18.11 22.32 L 17.89 23.33 L 17.64 24.33 L 17.36 25.33 L 17.05 26.31 L 16.71 27.28 L 16.33 28.25 L 15.93 29.2 L 15.5 30.13 L 15.03 31.06 L 14.54 31.96 L 14.02 32.86" fill="none" stroke="#111" stroke-width="1.29" stroke-linecap="round" stroke-linejoin="round"/>
<path d="M 18.0 23.0 L 18.21 23.38 L 18.42 23.75 L 18.62 24.12 L 18.83 24.5 L 19.04 24.88 L 19.25 25.25 L 19.46 25.62 L 19.67 26.0 L 19.88 26.38 L 20.08 26.75 L 20.29 27.12 L 20.5 27.5 L 20.71 27.88 L 20.92 28.25 L 21.12 28.62 L 21.33 29.0 L 21.54 29.38 L 21.75 29.75 L 21.96 30.12 L 22.17 30.5 L 22.38 30.88 L 22.58 31.25 L 22.79 31.62 L 23.0 32.0" fill="none" stroke="#111" stroke-width="1.29" stroke-linecap="round" stroke-linejoin="round"/>
</svg>
