<?xml version="1.0" encoding="UTF-8"?>
<svg xmlns="http://www.w3.org/2000/svg" viewBox="0 0 26.00 37.86">
<path d="M 13.0 4.0 L 12.96 4.71 L 12.92 5.42 L 12.88 6.12 L 12.83 6.83 L 12.79 7.54 L 12.75 8.25 L 12.71 8.96 L 12.67 9.67 L 12.62 10.38 L 12.58 11.08 L 12.54 11.79 L 12.5 12.5 L 12.46 13.21 L 12.42 13.92 L 12.38 14.62 L 12.33 15.33 L 12.29 16.04 L 12.25 16.75 L 12.21 17.46 L 12.17 18.17 L 12.12 18.88 L 12.08 19.58 L 12.04 20.29 L 12.0 21.0 L 12.0 21.0 L 11.58 21.24 L 11.17 21.51 L 10.77 21.79 L 10.39 22.1 L 10.02 22.43 L 9.67 22.77 L 9.34 23.13 L 9.03 23.5 L 8.74 23.9 L 8.46 24.3 L 8.21 24.72 L 7.98 25.15 L 7.77 25.6 L 7.59 26.05 L 7.43 26.51 L 7.29 26.98 L 7.18 27.46 L 7.09 27.94 L 7.02 28.42 L 6.98 28.91 L 6.97 29.4 L 6.98 29.89 L 7.01 30.37 L 7.07 30.86" fill="none" stroke="#111" stroke-width="1.32" stroke-linecap="round" stroke-linejoin="round"/>
<path d="M 4.0 13.0 L 4.33 12.71 L 4.67 12.42 L 5.0 12.12 L 5.33 11.83 L 5.67 11.54 L 6.0 11.25 L 6.33 10.96 L 6.67 10.67 L 7.0 10.38 L 7.33 10.08 L 7.67 9.79 L 8.0 9.5 L 8.33 9.21 L 8.67 8.92 L 9.0 8.62 L 9.33 8.33 L 9.67 8.04 L 10.0 7.75 L 10.33 7.46 L 10.67 7.17 L 11.0 6.88 L 11.33 6.58 L 11.67 6.29 L 12.0 6.0" fill="none" stroke="#111" stroke-width="1.32" stroke-linecap="round" stroke-linejoin="round"/>
<path d="M 13.0 6.0 L 13.29 6.38 L 13.58 6.75 L 13.88 7.12 L 14.17 7.5 L 14.46 7.88 L 14.75 8.25 L 15.04 8.62 L 15.33 9.0 L 15.62 9.38 L 15.92 9.75 L 16.21 10.12 L 16.5 10.5 L 16.79 10.88 L 17.08 11.25 L 17.38 11.62 L 17.67 12.0 L 17.96 12.38 L 18.25 12.75 L 18.54 13.12 L 18.83 13.5 L 19.12 13.88 L 19.42 14.25 L 19.71 14.62 L 20.0 15.0" fill="none" stroke="#111" stroke-width="1.32" stroke-linecap="round" stroke-linejoin="round"/>
<path d="M 7.0 13.0 L 6.92 13.38 L 6.83 13.75 L 6.75 14.12 L 6.67 14.5 L 6.58 14.88 L 6.5 15.25 L 6.42 15.62 L 6.33 16.0 L 6.25 16.38 L 6.17 16.75 L 6.08 17.12 L 6.0 17.5 L 5.92 17.88 L 5.83 18.25 L 5.75 18.62 L 5.67 19.0 L 5.58 19.38 L 5.5 19.75 L 5.42 20.12 L 5.33 20.5 L 5.25 20.88 L 5.17 21.25 L 5.08 21.62 L 5.0 22.0" fill="none" stroke="#111" stroke-width="1.32" stroke-linecap="round" stroke-linejoin="round"/>
<path d="M 15.0 17.0 L 15.29 17.21 L 15.58 17.42 L 15.88 17.62 L 16.17 17.83 L 16.46 18.04 L 16.75 18.25 L 17.04 18.46 L 17.33 18.67 L 17.62 18.88 L 17.92 19.08 L 18.21 19.29 L 18.5 19.5 L 18.79 19.71 L 19.08 19.92 L 19.38 20.12 L 19.67 20.33 L 19.96 20.54 L 20.25 20.75 L 20.54 20.96 L 20.83 21.17 L 21.12 21.38 L 21.42 21.58 L 21.71 21.79 L 22.0 22.0" fill="none" stroke="#111" stroke-width="1.32" stroke-linecap="round" stroke-linejoin="round"/>
<path d="M 13.0 22.0 L 13.4 22.37 L 13.77 22.76 L 14.14 23.17 L 14.48 23.59 L 14.81 24.03 L 15.11 24.48 L 15.4 24.94 L 15.67 25.41 L 15.91 25.9 L 16.14 26.39 L 16.35 26.9 L 16.53 27.41 L 16.69 27.93 L 16.83 28.46 L 16.94 28.99 L 17.04 29.52 L 17.11 30.06 L 17.16 30.61 L 17.18 31.15 L 17.18 31.69 L 17.16 32.24 L 17.11 32.78 L 17.04 33.32 L 16.95 33.86" fill="none" stroke="#111" stroke-width="1.32" stroke-linecap="round" stroke-linejoin="round"/>
</svg>
