<?xml version="1.0" encoding="UTF-8"?>
<svg xmlns="http://www.w3.org/2000/svg" viewBox="0 0 21.48 39.72">
<path d="M 7.0 4.0 L 7.04 4.25 L 7.08 4.5 L 7.12 4.75 L 7.17 5.0 L 7.21 5.25 L 7.25 5.5 L 7.29 5.75 L 7.33 6.0 L 7.38 6.25 L 7.42 6.5 L 7.46 6.75 L 7.5 7.0 L 7.54 7.25 L 7.58 7.5 L 7.62 7.75 L 7.67 8.0 L 7.71 8.25 L 7.75 8.5 L 7.79 8.75 L 7.83 9.0 L 7.88 9.25 L 7.92 9.5 L 7.96 9.75 L 8.0 10.0" fill="none" stroke="#111" stroke-width="1.39" stroke-linecap="round" stroke-linejoin="round"/>
<path d="M 8.0 4.0 L 8.38 4.0 L 8.75 4.0 L 9.12 4.0 L 9.5 4.0 L 9.88 4.0 L 10.25 4.0 L 10.62 4.0 L 11.0 4.0 L 11.38 4.0 L 11.75 4.0 L 12.12 4.0 L 12.5 4.0 L 12.88 4.0 L 13.25 4.0 L 13.62 4.0 L 14.0 4.0 L 14.38 4.0 L 14.75 4.0 L 15.12 4.0 L 15.5 4.0 L 15.88 4.0 L 16.25 4.0 L 16.62 4.0 L 17.0 4.0 L 17.0 4.0 L 17.0 4.25 L 17.0 4.5 L 17.0 4.75 L 17.0 5.0 L 17.0 5.25 L 17.0 5.5 L 17.0 5.75 L 17.0 6.0 L 17.0 6.25 L 17.0 6.5 L 17.0 6.75 L 17.0 7.0 L 17.0 7.25 L 17.0 7.5 L 17.0 7.75 L 17.0 8.0 L 17.0 8.25 L 17.0 8.5 L 17.0 8.75 L 17.0 9.0 L 17.0 9.25 L 17.0 9.5 L 17.0 9.75 L 17.0 10.0" fill="none" stroke="#111" stroke-width="1.39" stroke-linecap="round" stroke-linejoin="round"/>
<path d="M 8.0 10.0 L 8.38 10.0 L 8.75 10.0 L 9.12 10.0 L 9.5 10.0 L 9.88 10.0 L 10.25 10.0 L 10.62 10.0 L 11.0 10.0 L 11.38 10.0 L 11.75 10.0 L 12.12 10.0 L 12.5 10.0 L 12.88 10.0 L 13.25 10.0 L 13.62 10.0 L 14.0 10.0 L 14.38 10.0 L 14.75 10.0 L 15.12 10.0 L 15.5 10.0 L 15.88 10.0 L 16.25 10.0 L 16.62 10.0 L 17.0 10.0" fill="none" stroke="#111" stroke-width="1.39" stroke-linecap="round" stroke-linejoin="round"/>
<path d="M 4.0 27.0 L 4.12 26.67 L 4.25 26.33 L 4.38 26.0 L 4.5 25.67 L 4.62 25.33 L 4.75 25.0 L 4.88 24.67 L 5.0 24.33 L 5.12 24.0 L 5.25 23.67 L 5.38 23.33 L 5.5 23.0 L 5.62 22.67 L 5.75 22.33 L 5.88 22.0 L 6.0 21.67 L 6.12 21.33 L 6.25 21.0 L 6.38 20.67 L 6.5 20.33 L 6.62 20.0 L 6.75 19.67 L 6.88 19.33 L 7.0 19.0 L 7.0 19.0 L 7.57 19.21 L 8.15 19.37 L 8.75 19.49 L 9.35 19.56 L 9.96 19.58 L 10.56 19.55 L 11.17 19.47 L 11.76 19.35 L 12.34 19.18 L 12.91 18.96 L 13.45 18.7 L 13.98 18.39 L 14.48 18.05 L 14.95 17.66 L 15.38 17.24 L 15.79 16.79 L 16.15 16.3 L 16.47 15.79 L 16.76 15.25 L 16.99 14.7 L 17.19 14.12 L 17.33 13.53 L 17.43 12.93 L 17.48 12.33" fill="none" stroke="#111" stroke-width="1.39" stroke-linecap="round" stroke-linejoin="round"/>
<path d="M 12.0 11.0 L 12.0 11.62 L 12.0 12.25 L 12.0 12.88 L 12.0 13.5 L 12.0 14.12 L 12.0 14.75 L 12.0 15.38 L 12.0 16.0 L 12.0 16.62 L 12.0 17.25 L 12.0 17.88 L 12.0 18.5 L 12.0 19.12 L 12.0 19.75 L 12.0 20.38 L 12.0 21.0 L 12.0 21.62 L 12.0 22.25 L 12.0 22.88 L 12.0 23.5 L 12.0 24.12 L 12.0 24.75 L 12.0 25.38 L 12.0 26.0 L 12.0 26.0 L 11.53 26.16 L 11.07 26.36 L 10.63 26.6 L 10.2 26.86 L 9.8 27.16 L 9.42 27.48 L 9.07 27.84 L 8.74 28.21 L 8.44 28.61 L 8.17 29.04 L 7.94 29.48 L 7.73 29.93 L 7.56 30.4 L 7.43 30.89 L 7.33 31.38 L 7.27 31.87 L 7.25 32.37 L 7.27 32.87 L 7.32 33.37 L 7.4 33.86 L 7.53 34.34 L 7.69 34.82 L 7.88 35.28 L 8.11 35.72" fill="none" stroke="#111" stroke-width="1.39" stroke-linecap="round" stroke-linejoin="round"/>
<path d="M 12.0 26.0 L 12.21 26.33 L 12.42 26.67 L 12.62 27.0 L 12.83 27.33 L 13.04 27.67 L 13.25 28.0 L 13.46 28.33 L 13.67 28.67 L 13.88 29.0 L 14.08 29.33 L 14.29 29.67 L 14.5 30.0 L 14.71 30.33 L 14.92 30.67 L 15.12 31.0 L 15.33 31.33 L 15.54 31.67 L 15.75 32.0 L 15.96 32.33 L 16.17 32.67 L 16.38 33.0 L 16.58 33.33 L 16.79 33.67 L 17.0 34.0" fill="none" stroke="#111" stroke-width="1.39" stroke-linecap="round" stroke-linejoin="round"/>
</svg>
