<?xml version="1.0" encoding="UTF-8"?>
<svg xmlns="http://www.w3.org/2000/svg" viewBox="0 0 22.00 39.88">
<path d="M 11.0 4.0 L 11.09 4.36 L 11.14 4.72 L 11.17 5.09 L 11.17 5.46 L 11.13 5.82 L 11.07 6.19 L 10.98 6.54 L 10.86 6.89 L 10.71 7.23 L 10.54 7.55 L 10.34 7.86 L 10.12 8.15 L 9.87 8.42 L 9.6 8.68 L 9.31 8.91 L 9.01 9.11 L 8.69 9.29 L 8.35 9.45 L 8.01 9.57 L 7.65 9.67 L 7.29 9.74 L 6.93 9.78 L 6.56 9.79 L 6.19 9.77" fill="none" stroke="#111" stroke-width="1.40" stroke-linecap="round" stroke-linejoin="round"/>
<path d="M 11.0 6.0 L 11.21 6.12 L 11.42 6.25 L 11.62 6.38 L 11.83 6.5 L 12.04 6.62 L 12.25 6.75 L 12.46 6.88 L 12.67 7.0 L 12.88 7.12 L 13.08 7.25 L 13.29 7.38 L 13.5 7.5 L 13.71 7.62 L 13.92 7.75 L 14.12 7.88 L 14.33 8.0 L 14.54 8.12 L 14.75 8.25 L 14.96 8.38 L 15.17 8.5 L 15.38 8.62 L 15.58 8.75 L 15.79 8.88 L 16.0 9.0" fill="none" stroke="#111" stroke-width="1.40" stroke-linecap="round" stroke-linejoin="round"/>
<path d="M 11.0 7.0 L 11.13 7.54 L 11.23 8.08 L 11.3 8.62 L 11.35 9.17 L 11.37 9.72 L 11.37 10.27 L 11.34 10.82 L 11.28 11.37 L 11.2 11.91 L 11.09 12.45 L 10.95 12.98 L 10.79 13.51 L 10.6 14.03 L 10.39 14.54 L 10.16 15.03 L 9.9 15.52 L 9.62 15.99 L 9.31 16.45 L 8.98 16.89 L 8.64 17.32 L 8.27 17.73 L 7.88 18.12 L 7.48 18.49 L 7.05 18.84 L 7.0 19.0 L 7.44 19.6 L 7.85 20.22 L 8.25 20.85 L 8.62 21.49 L 8.97 22.15 L 9.3 22.81 L 9.6 23.49 L 9.88 24.18 L 10.14 24.88 L 10.37 25.59 L 10.58 26.3 L 10.76 27.02 L 10.92 27.75 L 11.05 28.48 L 11.16 29.22 L 11.24 29.96 L 11.3 30.7 L 11.33 31.44 L 11.33 32.18 L 11.31 32.93 L 11.27 33.67 L 11.19 34.41 L 11.1 35.15 L 10.97 35.88" fill="none" stroke="#111" stroke-width="1.40" stroke-linecap="round" stroke-linejoin="round"/>
<path d="M 11.0 13.0 L 11.17 13.29 L 11.33 13.58 L 11.5 13.88 L 11.67 14.17 L 11.83 14.46 L 12.0 14.75 L 12.17 15.04 L 12.33 15.33 L 12.5 15.62 L 12.67 15.92 L 12.83 16.21 L 13.0 16.5 L 13.17 16.79 L 13.33 17.08 L 13.5 17.38 L 13.67 17.67 L 13.83 17.96 L 14.0 18.25 L 14.17 18.54 L 14.33 18.83 L 14.5 19.12 L 14.67 19.42 L 14.83 19.71 L 15.0 20.0 L 15.0 20.0 L 14.83 20.29 L 14.67 20.58 L 14.5 20.88 L 14.33 21.17 L 14.17 21.46 L 14.0 21.75 L 13.83 22.04 L 13.67 22.33 L 13.5 22.62 L 13.33 22.92 L 13.17 23.21 L 13.0 23.5 L 12.83 23.79 L 12.67 24.08 L 12.5 24.38 L 12.33 24.67 L 12.17 24.96 L 12.0 25.25 L 11.83 25.54 L 11.67 25.83 L 11.5 26.12 L 11.33 26.42 L 11.17 26.71 L 11.0 27.0" fill="none" stroke="#111" stroke-width="1.40" stroke-linecap="round" stroke-linejoin="round"/>
<path d="M 4.0 18.0 L 4.58 18.17 L 5.17 18.33 L 5.75 18.5 L 6.33 18.67 L 6.92 18.83 L 7.5 19.0 L 8.08 19.17 L 8.67 19.33 L 9.25 19.5 L 9.83 19.67 L 10.42 19.83 L 11.0 20.0 L 11.58 20.17 L 12.17 20.33 L 12.75 20.5 L 13.33 20.67 L 13.92 20.83 L 14.5 21.0 L 15.08 21.17 L 15.67 21.33 L 16.25 21.5 L 16.83 21.67 L 17.42 21.83 L 18.0 22.0" fill="none" stroke="#111" stroke-width="1.40" stroke-linecap="round" stroke-linejoin="round"/>
<path d="M 8.0 30.0 L 8.12 30.12 L 8.25 30.25 L 8.38 30.38 L 8.5 30.5 L 8.62 30.62 L 8.75 30.75 L 8.88 30.88 L 9.0 31.0 L 9.12 31.12 L 9.25 31.25 L 9.38 31.38 L 9.5 31.5 L 9.62 31.62 L 9.75 31.75 L 9.88 31.88 L 10.0 32.0 L 10.12 32.12 L 10.25 32.25 L 10.38 32.38 L 10.5 32.5 L 10.62 32.62 L 10.75 32.75 L 10.88 32.88 L 11.0 33.0" fill="none" stroke="#111" stroke-width="1.40" stroke-linecap="round" stroke-linejoin="round"/>
<path d="M 15.0 28.0 L 14.83 28.17 L 14.67 28.33 L 14.5 28.5 L 14.33 28.67 L 14.17 28.83 L 14.0 29.0 L 13.83 29.17 L 13.67 29.33 L 13.5 29.5 L 13.33 29.67 L 13.17 29.83 L 13.0 30.0 L 12.83 30.17 L 12.67 30.33 L 12.5 30.5 L 12.33 30.67 L 12.17 30.83 L 12.0 31.0 L 11.83 31.17 L 11.67 31.33 L 11.5 31.5 L 11.33 31.67 L 11.17 31.83 L 11.0 32.0" fill="none" stroke="#111" stroke-width="1.40" stroke-linecap="round" stroke-linejoin="round"/>
</svg>
