<?xml version="1.0" encoding="UTF-8"?>
<svg xmlns="http://www.w3.org/2000/svg" viewBox="0 0 24.00 50.93">
<path d="M 8.0 4.0 L 8.14 4.29 L 8.25 4.58 L 8.34 4.89 L 8.4 5.2 L 8.44 5.51 L 8.45 5.83 L 8.44 6.14 L 8.41 6.46 L 8.35 6.77 L 8.27 7.08 L 8.16 7.37 L 8.03 7.66 L 7.88 7.94 L 7.7 8.21 L 7.51 8.46 L 7.3 8.69 L 7.06 8.91 L 6.82 9.1 L 6.55 9.28 L 6.28 9.44 L 5.99 9.57 L 5.7 9.69 L 5.39 9.77 L 5.08 9.84" fill="none" stroke="#111" stroke-width="1.78" stroke-linecap="round" stroke-linejoin="round"/>
<path d="M 8.0 7.0 L 8.17 7.17 L 8.33 7.33 L 8.5 7.5 L 8.67 7.67 L 8.83 7.83 L 9.0 8.0 L 9.17 8.17 L 9.33 8.33 L 9.5 8.5 L 9.67 8.67 L 9.83 8.83 L 10.0 9.0 L 10.17 9.17 L 10.33 9.33 L 10.5 9.5 L 10.67 9.67 L 10.83 9.83 L 11.0 10.0 L 11.17 10.17 L 11.33 10.33 L 11.5 10.5 L 11.67 10.67 L 11.83 10.83 L 12.0 11.0" fill="none" stroke="#111" stroke-width="1.78" stroke-linecap="round" stroke-linejoin="round"/>
<path d="M 8.0 9.0 L 8.14 9.36 L 8.26 9.73 L 8.35 10.1 L 8.42 10.48 L 8.47 10.86 L 8.49 11.24 L 8.49 11.63 L 8.46 12.01 L 8.41 12.39 L 8.33 12.77 L 8.23 13.14 L 8.11 13.51 L 7.96 13.86 L 7.79 14.21 L 7.6 14.54 L 7.39 14.87 L 7.16 15.17 L 6.91 15.47 L 6.64 15.74 L 6.35 16.0 L 6.05 16.24 L 5.73 16.46 L 5.4 16.66 L 5.06 16.83 L 5.0 17.0 L 5.2 17.65 L 5.4 18.3 L 5.58 18.95 L 5.77 19.61 L 5.94 20.26 L 6.11 20.92 L 6.27 21.58 L 6.43 22.24 L 6.58 22.91 L 6.72 23.57 L 6.85 24.24 L 6.98 24.9 L 7.1 25.57 L 7.22 26.24 L 7.33 26.91 L 7.43 27.59 L 7.52 28.26 L 7.61 28.93 L 7.69 29.61 L 7.77 30.28 L 7.84 30.96 L 7.9 31.64 L 7.95 32.31 L 8.0 32.99" fill="none" stroke="#111" stroke-width="1.78" stroke-linecap="round" stroke-linejoin="round"/>
<path d="M 8.0 13.0 L 8.38 13.41 L 8.74 13.84 L 9.06 14.3 L 9.35 14.78 L 9.6 15.28 L 9.81 15.8 L 9.98 16.33 L 10.12 16.87 L 10.22 17.42 L 10.27 17.98 L 10.29 18.54 L 10.26 19.1 L 10.19 19.66 L 10.09 20.2 L 9.94 20.74 L 9.75 21.27 L 9.53 21.79 L 9.27 22.28 L 8.97 22.76 L 8.64 23.21 L 8.28 23.63 L 7.89 24.03 L 7.47 24.4 L 7.02 24.74" fill="none" stroke="#111" stroke-width="1.78" stroke-linecap="round" stroke-linejoin="round"/>
<path d="M 4.0 25.0 L 4.12 25.12 L 4.25 25.25 L 4.38 25.38 L 4.5 25.5 L 4.62 25.62 L 4.75 25.75 L 4.88 25.88 L 5.0 26.0 L 5.12 26.12 L 5.25 26.25 L 5.38 26.38 L 5.5 26.5 L 5.62 26.62 L 5.75 26.75 L 5.88 26.88 L 6.0 27.0 L 6.12 27.12 L 6.25 27.25 L 6.38 27.38 L 6.5 27.5 L 6.62 27.62 L 6.75 27.75 L 6.88 27.88 L 7.0 28.0" fill="none" stroke="#111" stroke-width="1.78" stroke-linecap="round" stroke-linejoin="round"/>
<path d="M 13.0 24.0 L 12.75 24.17 L 12.5 24.33 L 12.25 24.5 L 12.0 24.67 L 11.75 24.83 L 11.5 25.0 L 11.25 25.17 L 11.0 25.33 L 10.75 25.5 L 10.5 25.67 L 10.25 25.83 L 10.0 26.0 L 9.75 26.17 L 9.5 26.33 L 9.25 26.5 L 9.0 26.67 L 8.75 26.83 L 8.5 27.0 L 8.25 27.17 L 8.0 27.33 L 7.75 27.5 L 7.5 27.67 L 7.25 27.83 L 7.0 28.0" fill="none" stroke="#111" stroke-width="1.78" stroke-linecap="round" stroke-linejoin="round"/>
<path d="M 5.0 17.0 L 5.55 16.95 L 6.09 16.89 L 6.63 16.81 L 7.17 16.72 L 7.71 16.61 L 8.25 16.49 L 8.78 16.36 L 9.31 16.21 L 9.83 16.05 L 10.35 15.87 L 10.86 15.68 L 11.37 15.48 L 11.88 15.26 L 12.37 15.03 L 12.86 14.78 L 13.35 14.53 L 13.83 14.26 L 14.3 13.97 L 14.76 13.68 L 15.21 13.37 L 15.66 13.05 L 16.1 12.72 L 16.52 12.38 L 16.94 12.02" fill="none" stroke="#111" stroke-width="1.78" stroke-linecap="round" stroke-linejoin="round"/>
<path d="M 6.0 19.0 L 6.52 19.05 L 7.04 19.09 L 7.56 19.1 L 8.09 19.11 L 8.61 19.1 L 9.13 19.07 L 9.65 19.03 L 10.17 18.97 L 10.69 18.89 L 11.2 18.81 L 11.72 18.7 L 12.22 18.58 L 12.73 18.45 L 13.23 18.3 L 13.73 18.14 L 14.22 17.96 L 14.7 17.76 L 15.18 17.56 L 15.66 17.33 L 16.12 17.1 L 16.58 16.85 L 17.03 16.59 L 17.48 16.31 L 17.91 16.02" fill="none" stroke="#111" stroke-width="1.78" stroke-linecap="round" stroke-linejoin="round"/>
<path d="M 15.0 6.0 L 15.21 6.67 L 15.42 7.33 L 15.62 8.0 L 15.83 8.67 L 16.04 9.33 L 16.25 10.0 L 16.46 10.67 L 16.67 11.33 L 16.88 12.0 L 17.08 12.67 L 17.29 13.33 L 17.5 14.0 L 17.71 14.67 L 17.92 15.33 L 18.12 16.0 L 18.33 16.67 L 18.54 17.33 L 18.75 18.0 L 18.96 18.67 L 19.17 19.33 L 19.38 20.0 L 19.58 20.67 L 19.79 21.33 L 20.0 22.0" fill="none" stroke="#111" stroke-width="1.78" stroke-linecap="round" stroke-linejoin="round"/>
<path d="M 20.0 22.0 L 19.0 22.65 L 18.05 23.36 L 17.15 24.14 L 16.31 24.98 L 15.52 25.87 L 14.8 26.82 L 14.14 27.81 L 13.55 28.84 L 13.03 29.92 L 12.59 31.02 L 12.22 32.15 L 11.93 33.31 L 11.73 34.48 L 11.6 35.66 L 11.55 36.85 L 11.58 38.04 L 11.69 39.22 L 11.89 40.4 L 12.16 41.56 L 12.51 42.69 L 12.94 43.8 L 13.44 44.88 L 14.01 45.93 L 14.66 46.93" fill="none" stroke="#111" stroke-width="1.78" stroke-linecap="round" stroke-linejoin="round"/>
</svg>
