<?xml version="1.0" encoding="UTF-8"?>
<svg xmlns="http://www.w3.org/2000/svg" viewBox="0 0 22.00 41.00">
<path d="M 5.0 8.0 L 5.46 8.0 L 5.92 8.0 L 6.38 8.0 L 6.83 8.0 L 7.29 8.0 L 7.75 8.0 L 8.21 8.0 L 8.67 8.0 L 9.13 8.0 L 9.58 8.0 L 10.04 8.0 L 10.5 8.0 L 10.96 8.0 L 11.42 8.0 L 11.88 8.0 L 12.33 8.0 L 12.79 8.0 L 13.25 8.0 L 13.71 8.0 L 14.17 8.0 L 14.63 8.0 L 15.08 8.0 L 15.54 8.0 L 16.0 8.0" fill="none" stroke="#111" stroke-width="1.44" stroke-linecap="round" stroke-linejoin="round"/>
<path d="M 11.0 4.0 L 11.08 4.0 L 11.17 4.0 L 11.25 4.0 L 11.33 4.0 L 11.42 4.0 L 11.5 4.0 L 11.58 4.0 L 11.67 4.0 L 11.75 4.0 L 11.83 4.0 L 11.92 4.0 L 12.0 4.0 L 12.08 4.0 L 12.17 4.0 L 12.25 4.0 L 12.33 4.0 L 12.42 4.0 L 12.5 4.0 L 12.58 4.0 L 12.67 4.0 L 12.75 4.0 L 12.83 4.0 L 12.92 4.0 L 13.0 4.0" fill="none" stroke="#111" stroke-width="1.44" stroke-linecap="round" stroke-linejoin="round"/>
<path d="M 11.0 4.0 L 11.0 5.12 L 11.0 6.25 L 11.0 7.38 L 11.0 8.5 L 11.0 9.62 L 11.0 10.75 L 11.0 11.88 L 11.0 13.0 L 11.0 14.12 L 11.0 15.25 L 11.0 16.38 L 11.0 17.5 L 11.0 18.62 L 11.0 19.75 L 11.0 20.88 L 11.0 22.0 L 11.0 23.12 L 11.0 24.25 L 11.0 25.38 L 11.0 26.5 L 11.0 27.62 L 11.0 28.75 L 11.0 29.88 L 11.0 31.0" fill="none" stroke="#111" stroke-width="1.44" stroke-linecap="round" stroke-linejoin="round"/>
<path d="M 4.0 6.0 L 4.29 6.38 L 4.58 6.75 L 4.88 7.12 L 5.17 7.5 L 5.46 7.88 L 5.75 8.25 L 6.04 8.62 L 6.33 9.0 L 6.63 9.38 L 6.92 9.75 L 7.21 10.12 L 7.5 10.5 L 7.79 10.88 L 8.08 11.25 L 8.38 11.62 L 8.67 12.0 L 8.96 12.38 L 9.25 12.75 L 9.54 13.12 L 9.83 13.5 L 10.12 13.88 L 10.42 14.25 L 10.71 14.62 L 11.0 15.0" fill="none" stroke="#111" stroke-width="1.44" stroke-linecap="round" stroke-linejoin="round"/>
<path d="M 11.0 15.0 L 11.29 14.62 L 11.58 14.25 L 11.88 13.88 L 12.17 13.5 L 12.46 13.12 L 12.75 12.75 L 13.04 12.38 L 13.33 12.0 L 13.63 11.62 L 13.92 11.25 L 14.21 10.88 L 14.5 10.5 L 14.79 10.12 L 15.08 9.75 L 15.38 9.38 L 15.67 9.0 L 15.96 8.62 L 16.25 8.25 L 16.54 7.88 L 16.83 7.5 L 17.12 7.12 L 17.42 6.75 L 17.71 6.38 L 18.0 6.0" fill="none" stroke="#111" stroke-width="1.44" stroke-linecap="round" stroke-linejoin="round"/>
<path d="M 11.0 15.0 L 10.19 15.21 L 9.42 15.54 L 8.71 15.97 L 8.07 16.51 L 7.52 17.14 L 7.06 17.83 L 6.72 18.59 L 6.48 19.39 L 6.37 20.22 L 6.38 21.06 L 6.51 21.88 L 6.76 22.68 L 7.13 23.43 L 7.6 24.11 L 8.17 24.73 L 8.82 25.25 L 9.54 25.67 L 10.32 25.98 L 11.13 26.17 L 11.96 26.24 L 12.8 26.18 L 13.61 26.01 L 14.39 25.72 L 15.13 25.31 L 15.0 25.0 L 15.0 25.12 L 15.0 25.25 L 15.0 25.38 L 15.0 25.5 L 15.0 25.62 L 15.0 25.75 L 15.0 25.88 L 15.0 26.0 L 15.0 26.12 L 15.0 26.25 L 15.0 26.38 L 15.0 26.5 L 15.0 26.62 L 15.0 26.75 L 15.0 26.88 L 15.0 27.0 L 15.0 27.12 L 15.0 27.25 L 15.0 27.38 L 15.0 27.5 L 15.0 27.62 L 15.0 27.75 L 15.0 27.88 L 15.0 28.0 L 15.0 28.0 L 14.54 28.38 L 14.08 28.75 L 13.63 29.12 L 13.17 29.5 L 12.71 29.88 L 12.25 30.25 L 11.79 30.62 L 11.33 31.0 L 10.88 31.38 L 10.42 31.75 L 9.96 32.12 L 9.5 32.5 L 9.04 32.88 L 8.58 33.25 L 8.13 33.62 L 7.67 34.0 L 7.21 34.38 L 6.75 34.75 L 6.29 35.12 L 5.83 35.5 L 5.38 35.88 L 4.92 36.25 L 4.46 36.62 L 4.0 37.0" fill="none" stroke="#111" stroke-width="1.44" stroke-linecap="round" stroke-linejoin="round"/>
</svg>
