<?xml version="1.0" encoding="UTF-8"?>
<svg xmlns="http://www.w3.org/2000/svg" viewBox="0 0 27.00 35.00">
<path d="M 5.0 15.0 L 5.19 14.55 L 5.38 14.1 L 5.57 13.65 L 5.76 13.2 L 5.94 12.75 L 6.12 12.3 L 6.3 11.84 L 6.48 11.39 L 6.65 10.93 L 6.82 10.47 L 6.99 10.02 L 7.16 9.56 L 7.33 9.1 L 7.49 8.64 L 7.65 8.18 L 7.81 7.72 L 7.97 7.26 L 8.12 6.79 L 8.27 6.33 L 8.42 5.87 L 8.57 5.4 L 8.72 4.94 L 8.86 4.47 L 9.0 4.0 L 9.0 4.0 L 9.62 4.68 L 10.22 5.37 L 10.8 6.09 L 11.35 6.83 L 11.87 7.58 L 12.36 8.36 L 12.83 9.15 L 13.27 9.96 L 13.68 10.78 L 14.06 11.62 L 14.4 12.47 L 14.72 13.33 L 15.01 14.2 L 15.27 15.09 L 15.49 15.98 L 15.69 16.88 L 15.85 17.78 L 15.98 18.69 L 16.08 19.61 L 16.14 20.52 L 16.17 21.44 L 16.17 22.36 L 16.14 23.28 L 16.07 24.2" fill="none" stroke="#111" stroke-width="1.23" stroke-linecap="round" stroke-linejoin="round"/>
<path d="M 7.0 8.0 L 6.88 8.12 L 6.75 8.25 L 6.62 8.38 L 6.5 8.5 L 6.38 8.62 L 6.25 8.75 L 6.12 8.88 L 6.0 9.0 L 5.88 9.12 L 5.75 9.25 L 5.62 9.38 L 5.5 9.5 L 5.38 9.62 L 5.25 9.75 L 5.12 9.88 L 5.0 10.0 L 4.88 10.12 L 4.75 10.25 L 4.62 10.38 L 4.5 10.5 L 4.38 10.62 L 4.25 10.75 L 4.12 10.88 L 4.0 11.0" fill="none" stroke="#111" stroke-width="1.23" stroke-linecap="round" stroke-linejoin="round"/>
<path d="M 7.0 8.0 L 7.04 8.21 L 7.08 8.42 L 7.12 8.62 L 7.17 8.83 L 7.21 9.04 L 7.25 9.25 L 7.29 9.46 L 7.33 9.67 L 7.38 9.88 L 7.42 10.08 L 7.46 10.29 L 7.5 10.5 L 7.54 10.71 L 7.58 10.92 L 7.62 11.12 L 7.67 11.33 L 7.71 11.54 L 7.75 11.75 L 7.79 11.96 L 7.83 12.17 L 7.88 12.38 L 7.92 12.58 L 7.96 12.79 L 8.0 13.0" fill="none" stroke="#111" stroke-width="1.23" stroke-linecap="round" stroke-linejoin="round"/>
<path d="M 13.0 9.0 L 13.17 8.83 L 13.33 8.67 L 13.5 8.5 L 13.67 8.33 L 13.83 8.17 L 14.0 8.0 L 14.17 7.83 L 14.33 7.67 L 14.5 7.5 L 14.67 7.33 L 14.83 7.17 L 15.0 7.0 L 15.17 6.83 L 15.33 6.67 L 15.5 6.5 L 15.67 6.33 L 15.83 6.17 L 16.0 6.0 L 16.17 5.83 L 16.33 5.67 L 16.5 5.5 L 16.67 5.33 L 16.83 5.17 L 17.0 5.0 L 17.0 5.0 L 17.12 5.29 L 17.25 5.58 L 17.38 5.88 L 17.5 6.17 L 17.62 6.46 L 17.75 6.75 L 17.88 7.04 L 18.0 7.33 L 18.12 7.62 L 18.25 7.92 L 18.38 8.21 L 18.5 8.5 L 18.62 8.79 L 18.75 9.08 L 18.88 9.38 L 19.0 9.67 L 19.12 9.96 L 19.25 10.25 L 19.38 10.54 L 19.5 10.83 L 19.62 11.12 L 19.75 11.42 L 19.88 11.71 L 20.0 12.0" fill="none" stroke="#111" stroke-width="1.23" stroke-linecap="round" stroke-linejoin="round"/>
<path d="M 19.0 9.0 L 18.92 9.17 L 18.83 9.33 L 18.75 9.5 L 18.67 9.67 L 18.58 9.83 L 18.5 10.0 L 18.42 10.17 L 18.33 10.33 L 18.25 10.5 L 18.17 10.67 L 18.08 10.83 L 18.0 11.0 L 17.92 11.17 L 17.83 11.33 L 17.75 11.5 L 17.67 11.67 L 17.58 11.83 L 17.5 12.0 L 17.42 12.17 L 17.33 12.33 L 17.25 12.5 L 17.17 12.67 L 17.08 12.83 L 17.0 13.0" fill="none" stroke="#111" stroke-width="1.23" stroke-linecap="round" stroke-linejoin="round"/>
<path d="M 18.0 8.0 L 18.21 8.08 L 18.42 8.17 L 18.62 8.25 L 18.83 8.33 L 19.04 8.42 L 19.25 8.5 L 19.46 8.58 L 19.67 8.67 L 19.88 8.75 L 20.08 8.83 L 20.29 8.92 L 20.5 9.0 L 20.71 9.08 L 20.92 9.17 L 21.12 9.25 L 21.33 9.33 L 21.54 9.42 L 21.75 9.5 L 21.96 9.58 L 22.17 9.67 L 22.38 9.75 L 22.58 9.83 L 22.79 9.92 L 23.0 10.0" fill="none" stroke="#111" stroke-width="1.23" stroke-linecap="round" stroke-linejoin="round"/>
<path d="M 15.0 17.0 L 14.83 16.88 L 14.67 16.75 L 14.5 16.62 L 14.33 16.5 L 14.17 16.38 L 14.0 16.25 L 13.83 16.12 L 13.67 16.0 L 13.5 15.88 L 13.33 15.75 L 13.17 15.62 L 13.0 15.5 L 12.83 15.38 L 12.67 15.25 L 12.5 15.12 L 12.33 15.0 L 12.17 14.88 L 12.0 14.75 L 11.83 14.62 L 11.67 14.5 L 11.5 14.38 L 11.33 14.25 L 11.17 14.12 L 11.0 14.0 L 11.0 14.0 L 10.88 14.25 L 10.75 14.5 L 10.62 14.75 L 10.5 15.0 L 10.38 15.25 L 10.25 15.5 L 10.12 15.75 L 10.0 16.0 L 9.88 16.25 L 9.75 16.5 L 9.62 16.75 L 9.5 17.0 L 9.38 17.25 L 9.25 17.5 L 9.12 17.75 L 9.0 18.0 L 8.88 18.25 L 8.75 18.5 L 8.62 18.75 L 8.5 19.0 L 8.38 19.25 L 8.25 19.5 L 8.12 19.75 L 8.0 20.0" fill="none" stroke="#111" stroke-width="1.23" stroke-linecap="round" stroke-linejoin="round"/>
<path d="M 10.0 16.0 L 9.83 16.08 L 9.67 16.17 L 9.5 16.25 L 9.33 16.33 L 9.17 16.42 L 9.0 16.5 L 8.83 16.58 L 8.67 16.67 L 8.5 16.75 L 8.33 16.83 L 8.17 16.92 L 8.0 17.0 L 7.83 17.08 L 7.67 17.17 L 7.5 17.25 L 7.33 17.33 L 7.17 17.42 L 7.0 17.5 L 6.83 17.58 L 6.67 17.67 L 6.5 17.75 L 6.33 17.83 L 6.17 17.92 L 6.0 18.0" fill="none" stroke="#111" stroke-width="1.23" stroke-linecap="round" stroke-linejoin="round"/>
<path d="M 10.0 15.0 L 10.08 15.17 L 10.17 15.33 L 10.25 15.5 L 10.33 15.67 L 10.42 15.83 L 10.5 16.0 L 10.58 16.17 L 10.67 16.33 L 10.75 16.5 L 10.83 16.67 L 10.92 16.83 L 11.0 17.0 L 11.08 17.17 L 11.17 17.33 L 11.25 17.5 L 11.33 17.67 L 11.42 17.83 L 11.5 18.0 L 11.58 18.17 L 11.67 18.33 L 11.75 18.5 L 11.83 18.67 L 11.92 18.83 L 12.0 19.0" fill="none" stroke="#111" stroke-width="1.23" stroke-linecap="round" stroke-linejoin="round"/>
<path d="M 13.0 19.0 L 12.85 19.26 L 12.7 19.53 L 12.57 19.8 L 12.46 20.08 L 12.35 20.37 L 12.26 20.66 L 12.18 20.95 L 12.12 21.25 L 12.07 21.55 L 12.04 21.85 L 12.02 22.15 L 12.01 22.46 L 12.02 22.76 L 12.04 23.06 L 12.07 23.36 L 12.12 23.66 L 12.18 23.96 L 12.26 24.25 L 12.35 24.54 L 12.46 24.83 L 12.57 25.11 L 12.7 25.38 L 12.85 25.65 L 13.0 25.91 L 13.0 26.0 L 12.96 26.21 L 12.92 26.42 L 12.88 26.62 L 12.83 26.83 L 12.79 27.04 L 12.75 27.25 L 12.71 27.46 L 12.67 27.67 L 12.62 27.88 L 12.58 28.08 L 12.54 28.29 L 12.5 28.5 L 12.46 28.71 L 12.42 28.92 L 12.38 29.12 L 12.33 29.33 L 12.29 29.54 L 12.25 29.75 L 12.21 29.96 L 12.17 30.17 L 12.12 30.38 L 12.08 30.58 L 12.04 30.79 L 12.0 31.0" fill="none" stroke="#111" stroke-width="1.23" stroke-linecap="round" stroke-linejoin="round"/>
<path d="M 10.0 21.0 L 9.96 21.12 L 9.92 21.25 L 9.88 21.38 L 9.83 21.5 L 9.79 21.62 L 9.75 21.75 L 9.71 21.88 L 9.67 22.0 L 9.62 22.12 L 9.58 22.25 L 9.54 22.38 L 9.5 22.5 L 9.46 22.62 L 9.42 22.75 L 9.38 22.88 L 9.33 23.0 L 9.29 23.12 L 9.25 23.25 L 9.21 23.38 L 9.17 23.5 L 9.12 23.62 L 9.08 23.75 L 9.04 23.88 L 9.0 24.0" fill="none" stroke="#111" stroke-width="1.23" stroke-linecap="round" stroke-linejoin="round"/>
<path d="M 10.0 26.0 L 10.04 26.04 L 10.08 26.08 L 10.12 26.12 L 10.17 26.17 L 10.21 26.21 L 10.25 26.25 L 10.29 26.29 L 10.33 26.33 L 10.38 26.38 L 10.42 26.42 L 10.46 26.46 L 10.5 26.5 L 10.54 26.54 L 10.58 26.58 L 10.62 26.62 L 10.67 26.67 L 10.71 26.71 L 10.75 26.75 L 10.79 26.79 L 10.83 26.83 L 10.88 26.88 L 10.92 26.92 L 10.96 26.96 L 11.0 27.0" fill="none" stroke="#111" stroke-width="1.23" stroke-linecap="round" stroke-linejoin="round"/>
<path d="M 15.0 27.0 L 14.96 27.08 L 14.92 27.17 L 14.88 27.25 L 14.83 27.33 L 14.79 27.42 L 14.75 27.5 L 14.71 27.58 L 14.67 27.67 L 14.62 27.75 L 14.58 27.83 L 14.54 27.92 L 14.5 28.0 L 14.46 28.08 L 14.42 28.17 L 14.38 28.25 L 14.33 28.33 L 14.29 28.42 L 14.25 28.5 L 14.21 28.58 L 14.17 28.67 L 14.12 28.75 L 14.08 28.83 L 14.04 28.92 L 14.0 29.0" fill="none" stroke="#111" stroke-width="1.23" stroke-linecap="round" stroke-linejoin="round"/>
<path d="M 15.0 19.0 L 14.92 19.12 L 14.83 19.25 L 14.75 19.38 L 14.67 19.5 L 14.58 19.62 L 14.5 19.75 L 14.42 19.88 L 14.33 20.0 L 14.25 20.12 L 14.17 20.25 L 14.08 20.38 L 14.0 20.5 L 13.92 20.62 L 13.83 20.75 L 13.75 20.88 L 13.67 21.0 L 13.58 21.12 L 13.5 21.25 L 13.42 21.38 L 13.33 21.5 L 13.25 21.62 L 13.17 21.75 L 13.08 21.88 L 13.0 22.0" fill="none" stroke="#111" stroke-width="1.23" stroke-linecap="round" stroke-linejoin="round"/>
<path d="M 16.0 19.0 L 16.17 19.12 L 16.33 19.25 L 16.5 19.38 L 16.67 19.5 L 16.83 19.62 L 17.0 19.75 L 17.17 19.88 L 17.33 20.0 L 17.5 20.12 L 17.67 20.25 L 17.83 20.38 L 18.0 20.5 L 18.17 20.62 L 18.33 20.75 L 18.5 20.88 L 18.67 21.0 L 18.83 21.12 L 19.0 21.25 L 19.17 21.38 L 19.33 21.5 L 19.5 21.62 L 19.67 21.75 L 19.83 21.88 L 20.0 22.0" fill="none" stroke="#111" stroke-width="1.23" stroke-linecap="round" stroke-linejoin="round"/>
</svg>
