<?xml version="1.0" encoding="UTF-8"?>
<svg xmlns="http://www.w3.org/2000/svg" viewBox="0 0 29.00 31.00">
<path d="M 11.0 5.0 L 11.09 5.42 L 11.16 5.85 L 11.21 6.28 L 11.23 6.72 L 11.22 7.15 L 11.2 7.58 L 11.15 8.01 L 11.07 8.44 L 10.98 8.86 L 10.86 9.28 L 10.71 9.69 L 10.55 10.09 L 10.36 10.48 L 10.15 10.86 L 9.93 11.23 L 9.68 11.58 L 9.41 11.92 L 9.12 12.25 L 8.82 12.56 L 8.5 12.85 L 8.16 13.12 L 7.81 13.38 L 7.45 13.62 L 7.07 13.83" fill="none" stroke="#111" stroke-width="1.09" stroke-linecap="round" stroke-linejoin="round"/>
<path d="M 11.0 9.0 L 11.12 9.12 L 11.25 9.25 L 11.38 9.38 L 11.5 9.5 L 11.62 9.62 L 11.75 9.75 L 11.88 9.88 L 12.0 10.0 L 12.12 10.12 L 12.25 10.25 L 12.38 10.38 L 12.5 10.5 L 12.62 10.62 L 12.75 10.75 L 12.88 10.88 L 13.0 11.0 L 13.12 11.12 L 13.25 11.25 L 13.38 11.38 L 13.5 11.5 L 13.62 11.62 L 13.75 11.75 L 13.88 11.88 L 14.0 12.0" fill="none" stroke="#111" stroke-width="1.09" stroke-linecap="round" stroke-linejoin="round"/>
<path d="M 20.0 4.0 L 20.0 4.17 L 20.0 4.33 L 20.0 4.5 L 20.0 4.67 L 20.0 4.83 L 20.0 5.0 L 20.0 5.17 L 20.0 5.33 L 20.0 5.5 L 20.0 5.67 L 20.0 5.83 L 20.0 6.0 L 20.0 6.17 L 20.0 6.33 L 20.0 6.5 L 20.0 6.67 L 20.0 6.83 L 20.0 7.0 L 20.0 7.17 L 20.0 7.33 L 20.0 7.5 L 20.0 7.67 L 20.0 7.83 L 20.0 8.0 L 20.0 8.0 L 19.88 8.12 L 19.75 8.25 L 19.62 8.38 L 19.5 8.5 L 19.38 8.62 L 19.25 8.75 L 19.12 8.88 L 19.0 9.0 L 18.88 9.12 L 18.75 9.25 L 18.62 9.38 L 18.5 9.5 L 18.38 9.62 L 18.25 9.75 L 18.12 9.88 L 18.0 10.0 L 17.88 10.12 L 17.75 10.25 L 17.62 10.38 L 17.5 10.5 L 17.38 10.62 L 17.25 10.75 L 17.12 10.88 L 17.0 11.0" fill="none" stroke="#111" stroke-width="1.09" stroke-linecap="round" stroke-linejoin="round"/>
<path d="M 20.0 7.0 L 20.17 7.17 L 20.33 7.33 L 20.5 7.5 L 20.67 7.67 L 20.83 7.83 L 21.0 8.0 L 21.17 8.17 L 21.33 8.33 L 21.5 8.5 L 21.67 8.67 L 21.83 8.83 L 22.0 9.0 L 22.17 9.17 L 22.33 9.33 L 22.5 9.5 L 22.67 9.67 L 22.83 9.83 L 23.0 10.0 L 23.17 10.17 L 23.33 10.33 L 23.5 10.5 L 23.67 10.67 L 23.83 10.83 L 24.0 11.0" fill="none" stroke="#111" stroke-width="1.09" stroke-linecap="round" stroke-linejoin="round"/>
<path d="M 11.0 9.0 L 11.24 9.37 L 11.45 9.76 L 11.63 10.17 L 11.77 10.58 L 11.88 11.01 L 11.96 11.44 L 12.01 11.88 L 12.02 12.33 L 12.0 12.77 L 11.94 13.2 L 11.85 13.64 L 11.73 14.06 L 11.57 14.47 L 11.39 14.87 L 11.17 15.26 L 10.92 15.63 L 10.65 15.97 L 10.35 16.3 L 10.02 16.59 L 9.68 16.87 L 9.31 17.11 L 8.92 17.33 L 8.52 17.52 L 8.11 17.67 L 8.0 18.0 L 8.04 18.29 L 8.08 18.58 L 8.12 18.88 L 8.17 19.17 L 8.21 19.46 L 8.25 19.75 L 8.29 20.04 L 8.33 20.33 L 8.38 20.62 L 8.42 20.92 L 8.46 21.21 L 8.5 21.5 L 8.54 21.79 L 8.58 22.08 L 8.62 22.38 L 8.67 22.67 L 8.71 22.96 L 8.75 23.25 L 8.79 23.54 L 8.83 23.83 L 8.88 24.12 L 8.92 24.42 L 8.96 24.71 L 9.0 25.0" fill="none" stroke="#111" stroke-width="1.09" stroke-linecap="round" stroke-linejoin="round"/>
<path d="M 11.0 16.0 L 11.46 16.11 L 11.9 16.26 L 12.33 16.46 L 12.74 16.7 L 13.12 16.97 L 13.48 17.28 L 13.8 17.63 L 14.09 18.0 L 14.34 18.4 L 14.55 18.82 L 14.72 19.27 L 14.84 19.72 L 14.92 20.19 L 14.96 20.66 L 14.94 21.13 L 14.89 21.6 L 14.78 22.06 L 14.64 22.5 L 14.45 22.94 L 14.22 23.35 L 13.95 23.74 L 13.64 24.1 L 13.31 24.42 L 12.94 24.72" fill="none" stroke="#111" stroke-width="1.09" stroke-linecap="round" stroke-linejoin="round"/>
<path d="M 20.0 9.0 L 20.0 9.25 L 20.0 9.5 L 20.0 9.75 L 20.0 10.0 L 20.0 10.25 L 20.0 10.5 L 20.0 10.75 L 20.0 11.0 L 20.0 11.25 L 20.0 11.5 L 20.0 11.75 L 20.0 12.0 L 20.0 12.25 L 20.0 12.5 L 20.0 12.75 L 20.0 13.0 L 20.0 13.25 L 20.0 13.5 L 20.0 13.75 L 20.0 14.0 L 20.0 14.25 L 20.0 14.5 L 20.0 14.75 L 20.0 15.0 L 20.0 15.0 L 19.68 15.31 L 19.36 15.64 L 19.07 15.98 L 18.79 16.34 L 18.53 16.7 L 18.28 17.08 L 18.05 17.47 L 17.83 17.86 L 17.64 18.27 L 17.46 18.69 L 17.3 19.11 L 17.16 19.54 L 17.04 19.97 L 16.94 20.41 L 16.86 20.86 L 16.8 21.3 L 16.76 21.75 L 16.74 22.2 L 16.74 22.66 L 16.76 23.11 L 16.8 23.56 L 16.86 24.0 L 16.93 24.45 L 17.03 24.89" fill="none" stroke="#111" stroke-width="1.09" stroke-linecap="round" stroke-linejoin="round"/>
<path d="M 21.0 16.0 L 21.14 16.31 L 21.28 16.62 L 21.4 16.94 L 21.52 17.26 L 21.63 17.58 L 21.73 17.9 L 21.82 18.23 L 21.9 18.56 L 21.97 18.89 L 22.04 19.23 L 22.09 19.56 L 22.14 19.9 L 22.18 20.24 L 22.21 20.58 L 22.23 20.92 L 22.24 21.26 L 22.24 21.6 L 22.23 21.94 L 22.21 22.28 L 22.19 22.62 L 22.15 22.95 L 22.11 23.29 L 22.06 23.63 L 22.0 23.96" fill="none" stroke="#111" stroke-width="1.09" stroke-linecap="round" stroke-linejoin="round"/>
<path d="M 4.0 27.0 L 4.88 26.96 L 5.75 26.92 L 6.62 26.88 L 7.5 26.83 L 8.38 26.79 L 9.25 26.75 L 10.12 26.71 L 11.0 26.67 L 11.88 26.62 L 12.75 26.58 L 13.62 26.54 L 14.5 26.5 L 15.38 26.46 L 16.25 26.42 L 17.12 26.38 L 18.0 26.33 L 18.88 26.29 L 19.75 26.25 L 20.63 26.21 L 21.5 26.17 L 22.38 26.12 L 23.25 26.08 L 24.13 26.04 L 25.0 26.0" fill="none" stroke="#111" stroke-width="1.09" stroke-linecap="round" stroke-linejoin="round"/>
</svg>
