<?xml version="1.0" encoding="UTF-8"?>
<svg xmlns="http://www.w3.org/2000/svg" viewBox="0 0 24.00 32.00">
<path d="M 4.0 11.0 L 4.67 10.96 L 5.33 10.92 L 6.0 10.88 L 6.67 10.83 L 7.33 10.79 L 8.0 10.75 L 8.67 10.71 L 9.33 10.67 L 10.0 10.62 L 10.67 10.58 L 11.33 10.54 L 12.0 10.5 L 12.67 10.46 L 13.33 10.42 L 14.0 10.38 L 14.67 10.33 L 15.33 10.29 L 16.0 10.25 L 16.67 10.21 L 17.33 10.17 L 18.0 10.12 L 18.67 10.08 L 19.33 10.04 L 20.0 10.0" fill="none" stroke="#111" stroke-width="1.12" stroke-linecap="round" stroke-linejoin="round"/>
<path d="M 16.0 4.0 L 15.44 4.76 L 14.92 5.55 L 14.44 6.36 L 14.01 7.2 L 13.62 8.05 L 13.27 8.93 L 12.97 9.82 L 12.71 10.73 L 12.5 11.65 L 12.34 12.58 L 12.22 13.51 L 12.15 14.45 L 12.14 15.4 L 12.16 16.34 L 12.24 17.28 L 12.37 18.21 L 12.54 19.14 L 12.76 20.06 L 13.03 20.96 L 13.34 21.85 L 13.7 22.72 L 14.1 23.58 L 14.55 24.41 L 15.04 25.21" fill="none" stroke="#111" stroke-width="1.12" stroke-linecap="round" stroke-linejoin="round"/>
<path d="M 12.0 27.0 L 12.29 26.92 L 12.58 26.83 L 12.88 26.75 L 13.17 26.67 L 13.46 26.58 L 13.75 26.5 L 14.04 26.42 L 14.33 26.33 L 14.62 26.25 L 14.92 26.17 L 15.21 26.08 L 15.5 26.0 L 15.79 25.92 L 16.08 25.83 L 16.38 25.75 L 16.67 25.67 L 16.96 25.58 L 17.25 25.5 L 17.54 25.42 L 17.83 25.33 L 18.12 25.25 L 18.42 25.17 L 18.71 25.08 L 19.0 25.0" fill="none" stroke="#111" stroke-width="1.12" stroke-linecap="round" stroke-linejoin="round"/>
<path d="M 9.0 11.0 L 9.28 11.39 L 9.54 11.8 L 9.76 12.22 L 9.97 12.65 L 10.14 13.1 L 10.29 13.56 L 10.4 14.03 L 10.49 14.5 L 10.55 14.97 L 10.58 15.45 L 10.57 15.93 L 10.54 16.41 L 10.48 16.89 L 10.39 17.36 L 10.26 17.82 L 10.11 18.28 L 9.93 18.73 L 9.73 19.16 L 9.49 19.58 L 9.23 19.98 L 8.95 20.37 L 8.64 20.74 L 8.31 21.09 L 7.96 21.41 L 8.0 21.0 L 7.92 21.29 L 7.83 21.58 L 7.75 21.88 L 7.67 22.17 L 7.58 22.46 L 7.5 22.75 L 7.42 23.04 L 7.33 23.33 L 7.25 23.62 L 7.17 23.92 L 7.08 24.21 L 7.0 24.5 L 6.92 24.79 L 6.83 25.08 L 6.75 25.38 L 6.67 25.67 L 6.58 25.96 L 6.5 26.25 L 6.42 26.54 L 6.33 26.83 L 6.25 27.12 L 6.17 27.42 L 6.08 27.71 L 6.0 28.0" fill="none" stroke="#111" stroke-width="1.12" stroke-linecap="round" stroke-linejoin="round"/>
<path d="M 9.0 15.0 L 8.83 15.2 L 8.65 15.4 L 8.47 15.6 L 8.28 15.8 L 8.1 15.99 L 7.91 16.18 L 7.71 16.36 L 7.52 16.55 L 7.32 16.73 L 7.11 16.9 L 6.91 17.07 L 6.7 17.24 L 6.49 17.41 L 6.28 17.57 L 6.06 17.73 L 5.84 17.89 L 5.62 18.04 L 5.4 18.18 L 5.17 18.33 L 4.94 18.47 L 4.71 18.61 L 4.48 18.74 L 4.25 18.87 L 4.01 18.99" fill="none" stroke="#111" stroke-width="1.12" stroke-linecap="round" stroke-linejoin="round"/>
</svg>
