<?xml version="1.0" encoding="UTF-8"?>
<svg xmlns="http://www.w3.org/2000/svg" viewBox="0 0 24.00 32.00">
<path d="M 8.0 4.0 L 8.0 4.38 L 8.0 4.75 L 8.0 5.12 L 8.0 5.5 L 8.0 5.88 L 8.0 6.25 L 8.0 6.62 L 8.0 7.0 L 8.0 7.38 L 8.0 7.75 L 8.0 8.12 L 8.0 8.5 L 8.0 8.88 L 8.0 9.25 L 8.0 9.62 L 8.0 10.0 L 8.0 10.38 L 8.0 10.75 L 8.0 11.12 L 8.0 11.5 L 8.0 11.88 L 8.0 12.25 L 8.0 12.62 L 8.0 13.0" fill="none" stroke="#111" stroke-width="1.12" stroke-linecap="round" stroke-linejoin="round"/>
<path d="M 6.0 6.0 L 6.08 6.12 L 6.17 6.25 L 6.25 6.38 L 6.33 6.5 L 6.42 6.62 L 6.5 6.75 L 6.58 6.88 L 6.67 7.0 L 6.75 7.12 L 6.83 7.25 L 6.92 7.38 L 7.0 7.5 L 7.08 7.62 L 7.17 7.75 L 7.25 7.88 L 7.33 8.0 L 7.42 8.12 L 7.5 8.25 L 7.58 8.38 L 7.67 8.5 L 7.75 8.62 L 7.83 8.75 L 7.92 8.88 L 8.0 9.0 L 8.0 9.0 L 8.17 8.83 L 8.33 8.67 L 8.5 8.5 L 8.67 8.33 L 8.83 8.17 L 9.0 8.0 L 9.17 7.83 L 9.33 7.67 L 9.5 7.5 L 9.67 7.33 L 9.83 7.17 L 10.0 7.0 L 10.17 6.83 L 10.33 6.67 L 10.5 6.5 L 10.67 6.33 L 10.83 6.17 L 11.0 6.0 L 11.17 5.83 L 11.33 5.67 L 11.5 5.5 L 11.67 5.33 L 11.83 5.17 L 12.0 5.0" fill="none" stroke="#111" stroke-width="1.12" stroke-linecap="round" stroke-linejoin="round"/>
<path d="M 4.0 13.0 L 4.17 12.83 L 4.33 12.67 L 4.5 12.5 L 4.67 12.33 L 4.83 12.17 L 5.0 12.0 L 5.17 11.83 L 5.33 11.67 L 5.5 11.5 L 5.67 11.33 L 5.83 11.17 L 6.0 11.0 L 6.17 10.83 L 6.33 10.67 L 6.5 10.5 L 6.67 10.33 L 6.83 10.17 L 7.0 10.0 L 7.17 9.83 L 7.33 9.67 L 7.5 9.5 L 7.67 9.33 L 7.83 9.17 L 8.0 9.0 L 8.0 9.0 L 8.12 9.12 L 8.25 9.25 L 8.38 9.38 L 8.5 9.5 L 8.62 9.62 L 8.75 9.75 L 8.88 9.88 L 9.0 10.0 L 9.12 10.12 L 9.25 10.25 L 9.38 10.38 L 9.5 10.5 L 9.62 10.62 L 9.75 10.75 L 9.88 10.88 L 10.0 11.0 L 10.12 11.12 L 10.25 11.25 L 10.38 11.38 L 10.5 11.5 L 10.62 11.62 L 10.75 11.75 L 10.88 11.88 L 11.0 12.0" fill="none" stroke="#111" stroke-width="1.12" stroke-linecap="round" stroke-linejoin="round"/>
<path d="M 6.0 16.0 L 6.0 16.29 L 6.0 16.58 L 6.0 16.88 L 6.0 17.17 L 6.0 17.46 L 6.0 17.75 L 6.0 18.04 L 6.0 18.33 L 6.0 18.62 L 6.0 18.92 L 6.0 19.21 L 6.0 19.5 L 6.0 19.79 L 6.0 20.08 L 6.0 20.38 L 6.0 20.67 L 6.0 20.96 L 6.0 21.25 L 6.0 21.54 L 6.0 21.83 L 6.0 22.12 L 6.0 22.42 L 6.0 22.71 L 6.0 23.0 L 6.0 23.0 L 6.25 22.96 L 6.5 22.92 L 6.75 22.88 L 7.0 22.83 L 7.25 22.79 L 7.5 22.75 L 7.75 22.71 L 8.0 22.67 L 8.25 22.62 L 8.5 22.58 L 8.75 22.54 L 9.0 22.5 L 9.25 22.46 L 9.5 22.42 L 9.75 22.38 L 10.0 22.33 L 10.25 22.29 L 10.5 22.25 L 10.75 22.21 L 11.0 22.17 L 11.25 22.12 L 11.5 22.08 L 11.75 22.04 L 12.0 22.0 L 12.0 22.0 L 11.96 21.71 L 11.92 21.42 L 11.88 21.12 L 11.83 20.83 L 11.79 20.54 L 11.75 20.25 L 11.71 19.96 L 11.67 19.67 L 11.62 19.38 L 11.58 19.08 L 11.54 18.79 L 11.5 18.5 L 11.46 18.21 L 11.42 17.92 L 11.38 17.62 L 11.33 17.33 L 11.29 17.04 L 11.25 16.75 L 11.21 16.46 L 11.17 16.17 L 11.12 15.88 L 11.08 15.58 L 11.04 15.29 L 11.0 15.0 L 11.0 15.0 L 10.75 15.04 L 10.5 15.08 L 10.25 15.12 L 10.0 15.17 L 9.75 15.21 L 9.5 15.25 L 9.25 15.29 L 9.0 15.33 L 8.75 15.38 L 8.5 15.42 L 8.25 15.46 L 8.0 15.5 L 7.75 15.54 L 7.5 15.58 L 7.25 15.62 L 7.0 15.67 L 6.75 15.71 L 6.5 15.75 L 6.25 15.79 L 6.0 15.83 L 5.75 15.88 L 5.5 15.92 L 5.25 15.96 L 5.0 16.0" fill="none" stroke="#111" stroke-width="1.12" stroke-linecap="round" stroke-linejoin="round"/>
<path d="M 6.0 19.0 L 6.21 18.96 L 6.42 18.92 L 6.62 18.88 L 6.83 18.83 L 7.04 18.79 L 7.25 18.75 L 7.46 18.71 L 7.67 18.67 L 7.88 18.62 L 8.08 18.58 L 8.29 18.54 L 8.5 18.5 L 8.71 18.46 L 8.92 18.42 L 9.12 18.38 L 9.33 18.33 L 9.54 18.29 L 9.75 18.25 L 9.96 18.21 L 10.17 18.17 L 10.38 18.12 L 10.58 18.08 L 10.79 18.04 L 11.0 18.0" fill="none" stroke="#111" stroke-width="1.12" stroke-linecap="round" stroke-linejoin="round"/>
<path d="M 7.0 23.0 L 7.0 23.12 L 7.0 23.25 L 7.0 23.38 L 7.0 23.5 L 7.0 23.62 L 7.0 23.75 L 7.0 23.88 L 7.0 24.0 L 7.0 24.12 L 7.0 24.25 L 7.0 24.38 L 7.0 24.5 L 7.0 24.62 L 7.0 24.75 L 7.0 24.88 L 7.0 25.0 L 7.0 25.12 L 7.0 25.25 L 7.0 25.38 L 7.0 25.5 L 7.0 25.62 L 7.0 25.75 L 7.0 25.88 L 7.0 26.0" fill="none" stroke="#111" stroke-width="1.12" stroke-linecap="round" stroke-linejoin="round"/>
<path d="M 10.0 22.0 L 10.04 22.17 L 10.08 22.33 L 10.12 22.5 L 10.17 22.67 L 10.21 22.83 L 10.25 23.0 L 10.29 23.17 L 10.33 23.33 L 10.38 23.5 L 10.42 23.67 L 10.46 23.83 L 10.5 24.0 L 10.54 24.17 L 10.58 24.33 L 10.62 24.5 L 10.67 24.67 L 10.71 24.83 L 10.75 25.0 L 10.79 25.17 L 10.83 25.33 L 10.88 25.5 L 10.92 25.67 L 10.96 25.83 L 11.0 26.0" fill="none" stroke="#111" stroke-width="1.12" stroke-linecap="round" stroke-linejoin="round"/>
<path d="M 4.0 27.0 L 4.38 26.96 L 4.75 26.92 L 5.12 26.88 L 5.5 26.83 L 5.88 26.79 L 6.25 26.75 L 6.62 26.71 L 7.0 26.67 L 7.38 26.62 L 7.75 26.58 L 8.12 26.54 L 8.5 26.5 L 8.88 26.46 L 9.25 26.42 L 9.62 26.38 L 10.0 26.33 L 10.38 26.29 L 10.75 26.25 L 11.12 26.21 L 11.5 26.17 L 11.88 26.12 L 12.25 26.08 L 12.63 26.04 L 13.0 26.0" fill="none" stroke="#111" stroke-width="1.12" stroke-linecap="round" stroke-linejoin="round"/>
<path d="M 15.0 11.0 L 14.86 11.29 L 14.73 11.6 L 14.63 11.9 L 14.55 12.22 L 14.48 12.54 L 14.44 12.86 L 14.42 13.19 L 14.41 13.51 L 14.43 13.84 L 14.47 14.16 L 14.53 14.48 L 14.61 14.8 L 14.71 15.11 L 14.83 15.42 L 14.97 15.71 L 15.12 16.0 L 15.3 16.27 L 15.49 16.54 L 15.7 16.79 L 15.92 17.03 L 16.16 17.25 L 16.41 17.46 L 16.67 17.65 L 16.95 17.82 L 17.0 18.0 L 16.88 18.25 L 16.75 18.5 L 16.62 18.75 L 16.5 19.0 L 16.38 19.25 L 16.25 19.5 L 16.12 19.75 L 16.0 20.0 L 15.88 20.25 L 15.75 20.5 L 15.62 20.75 L 15.5 21.0 L 15.38 21.25 L 15.25 21.5 L 15.12 21.75 L 15.0 22.0 L 14.88 22.25 L 14.75 22.5 L 14.62 22.75 L 14.5 23.0 L 14.38 23.25 L 14.25 23.5 L 14.12 23.75 L 14.0 24.0" fill="none" stroke="#111" stroke-width="1.12" stroke-linecap="round" stroke-linejoin="round"/>
<path d="M 14.0 19.0 L 14.25 19.38 L 14.5 19.75 L 14.75 20.12 L 15.0 20.5 L 15.25 20.88 L 15.5 21.25 L 15.75 21.62 L 16.0 22.0 L 16.25 22.38 L 16.5 22.75 L 16.75 23.12 L 17.0 23.5 L 17.25 23.88 L 17.5 24.25 L 17.75 24.62 L 18.0 25.0 L 18.25 25.38 L 18.5 25.75 L 18.75 26.12 L 19.0 26.5 L 19.25 26.88 L 19.5 27.25 L 19.75 27.62 L 20.0 28.0" fill="none" stroke="#111" stroke-width="1.12" stroke-linecap="round" stroke-linejoin="round"/>
</svg>
