<?xml version="1.0" encoding="UTF-8"?>
<svg xmlns="http://www.w3.org/2000/svg" viewBox="0 0 24.00 33.30">
<path d="M 12.0 4.0 L 12.51 5.04 L 12.96 6.11 L 13.35 7.2 L 13.67 8.31 L 13.94 9.44 L 14.14 10.58 L 14.28 11.73 L 14.35 12.89 L 14.36 14.05 L 14.3 15.2 L 14.17 16.36 L 13.99 17.5 L 13.74 18.63 L 13.42 19.75 L 13.05 20.84 L 12.61 21.91 L 12.12 22.96 L 11.56 23.98 L 10.95 24.97 L 10.29 25.91 L 9.57 26.83 L 8.81 27.69 L 7.99 28.52 L 7.14 29.3" fill="none" stroke="#111" stroke-width="1.17" stroke-linecap="round" stroke-linejoin="round"/>
<path d="M 11.0 4.0 L 10.88 4.29 L 10.75 4.58 L 10.62 4.88 L 10.5 5.17 L 10.38 5.46 L 10.25 5.75 L 10.12 6.04 L 10.0 6.33 L 9.88 6.62 L 9.75 6.92 L 9.62 7.21 L 9.5 7.5 L 9.38 7.79 L 9.25 8.08 L 9.12 8.38 L 9.0 8.67 L 8.88 8.96 L 8.75 9.25 L 8.62 9.54 L 8.5 9.83 L 8.38 10.12 L 8.25 10.42 L 8.12 10.71 L 8.0 11.0" fill="none" stroke="#111" stroke-width="1.17" stroke-linecap="round" stroke-linejoin="round"/>
<path d="M 12.0 4.0 L 12.17 4.21 L 12.33 4.42 L 12.5 4.62 L 12.67 4.83 L 12.83 5.04 L 13.0 5.25 L 13.17 5.46 L 13.33 5.67 L 13.5 5.88 L 13.67 6.08 L 13.83 6.29 L 14.0 6.5 L 14.17 6.71 L 14.33 6.92 L 14.5 7.12 L 14.67 7.33 L 14.83 7.54 L 15.0 7.75 L 15.17 7.96 L 15.33 8.17 L 15.5 8.38 L 15.67 8.58 L 15.83 8.79 L 16.0 9.0" fill="none" stroke="#111" stroke-width="1.17" stroke-linecap="round" stroke-linejoin="round"/>
<path d="M 12.0 24.0 L 12.25 24.21 L 12.5 24.42 L 12.75 24.62 L 13.0 24.83 L 13.25 25.04 L 13.5 25.25 L 13.75 25.46 L 14.0 25.67 L 14.25 25.88 L 14.5 26.08 L 14.75 26.29 L 15.0 26.5 L 15.25 26.71 L 15.5 26.92 L 15.75 27.12 L 16.0 27.33 L 16.25 27.54 L 16.5 27.75 L 16.75 27.96 L 17.0 28.17 L 17.25 28.38 L 17.5 28.58 L 17.75 28.79 L 18.0 29.0" fill="none" stroke="#111" stroke-width="1.17" stroke-linecap="round" stroke-linejoin="round"/>
<path d="M 6.0 16.0 L 5.86 16.4 L 5.79 16.82 L 5.79 17.25 L 5.86 17.67 L 5.99 18.07 L 6.2 18.45 L 6.46 18.79 L 6.77 19.08 L 7.13 19.31 L 7.52 19.48 L 7.93 19.59 L 8.36 19.62 L 8.78 19.59 L 9.19 19.48 L 9.58 19.31 L 9.94 19.08 L 10.25 18.79 L 10.52 18.45 L 10.72 18.07 L 10.86 17.67 L 10.92 17.25 L 10.92 16.82 L 10.85 16.4 L 10.71 16.0" fill="none" stroke="#111" stroke-width="1.17" stroke-linecap="round" stroke-linejoin="round"/>
<path d="M 14.0 16.0 L 13.87 16.31 L 13.8 16.65 L 13.78 16.99 L 13.82 17.32 L 13.92 17.65 L 14.07 17.95 L 14.27 18.23 L 14.52 18.46 L 14.8 18.65 L 15.11 18.79 L 15.44 18.88 L 15.78 18.91 L 16.11 18.88 L 16.44 18.79 L 16.75 18.65 L 17.03 18.46 L 17.28 18.23 L 17.48 17.95 L 17.63 17.65 L 17.73 17.32 L 17.77 16.99 L 17.75 16.65 L 17.68 16.31 L 17.55 16.0" fill="none" stroke="#111" stroke-width="1.17" stroke-linecap="round" stroke-linejoin="round"/>
<path d="M 8.0 16.0 L 8.07 16.25 L 8.13 16.5 L 8.18 16.76 L 8.22 17.01 L 8.25 17.27 L 8.28 17.53 L 8.29 17.79 L 8.29 18.05 L 8.28 18.31 L 8.26 18.57 L 8.24 18.83 L 8.2 19.08 L 8.15 19.34 L 8.09 19.59 L 8.03 19.84 L 7.95 20.09 L 7.86 20.34 L 7.77 20.58 L 7.66 20.82 L 7.55 21.05 L 7.43 21.28 L 7.3 21.5 L 7.16 21.72 L 7.01 21.94" fill="none" stroke="#111" stroke-width="1.17" stroke-linecap="round" stroke-linejoin="round"/>
<path d="M 8.0 20.0 L 8.04 20.08 L 8.08 20.17 L 8.12 20.25 L 8.17 20.33 L 8.21 20.42 L 8.25 20.5 L 8.29 20.58 L 8.33 20.67 L 8.38 20.75 L 8.42 20.83 L 8.46 20.92 L 8.5 21.0 L 8.54 21.08 L 8.58 21.17 L 8.62 21.25 L 8.67 21.33 L 8.71 21.42 L 8.75 21.5 L 8.79 21.58 L 8.83 21.67 L 8.88 21.75 L 8.92 21.83 L 8.96 21.92 L 9.0 22.0" fill="none" stroke="#111" stroke-width="1.17" stroke-linecap="round" stroke-linejoin="round"/>
<path d="M 16.0 16.0 L 16.15 16.21 L 16.28 16.44 L 16.39 16.67 L 16.48 16.92 L 16.55 17.17 L 16.6 17.42 L 16.62 17.68 L 16.62 17.94 L 16.6 18.2 L 16.56 18.46 L 16.49 18.71 L 16.41 18.95 L 16.3 19.19 L 16.17 19.42 L 16.03 19.63 L 15.86 19.83 L 15.68 20.02 L 15.49 20.19 L 15.28 20.34 L 15.06 20.48 L 14.82 20.59 L 14.58 20.69 L 14.33 20.76 L 14.08 20.81" fill="none" stroke="#111" stroke-width="1.17" stroke-linecap="round" stroke-linejoin="round"/>
<path d="M 16.0 19.0 L 16.04 19.08 L 16.08 19.17 L 16.12 19.25 L 16.17 19.33 L 16.21 19.42 L 16.25 19.5 L 16.29 19.58 L 16.33 19.67 L 16.38 19.75 L 16.42 19.83 L 16.46 19.92 L 16.5 20.0 L 16.54 20.08 L 16.58 20.17 L 16.62 20.25 L 16.67 20.33 L 16.71 20.42 L 16.75 20.5 L 16.79 20.58 L 16.83 20.67 L 16.88 20.75 L 16.92 20.83 L 16.96 20.92 L 17.0 21.0" fill="none" stroke="#111" stroke-width="1.17" stroke-linecap="round" stroke-linejoin="round"/>
<path d="M 4.0 23.0 L 4.25 22.96 L 4.5 22.92 L 4.75 22.88 L 5.0 22.83 L 5.25 22.79 L 5.5 22.75 L 5.75 22.71 L 6.0 22.67 L 6.25 22.62 L 6.5 22.58 L 6.75 22.54 L 7.0 22.5 L 7.25 22.46 L 7.5 22.42 L 7.75 22.38 L 8.0 22.33 L 8.25 22.29 L 8.5 22.25 L 8.75 22.21 L 9.0 22.17 L 9.25 22.12 L 9.5 22.08 L 9.75 22.04 L 10.0 22.0" fill="none" stroke="#111" stroke-width="1.17" stroke-linecap="round" stroke-linejoin="round"/>
<path d="M 13.0 22.0 L 13.29 22.0 L 13.58 22.0 L 13.88 22.0 L 14.17 22.0 L 14.46 22.0 L 14.75 22.0 L 15.04 22.0 L 15.33 22.0 L 15.62 22.0 L 15.92 22.0 L 16.21 22.0 L 16.5 22.0 L 16.79 22.0 L 17.08 22.0 L 17.38 22.0 L 17.67 22.0 L 17.96 22.0 L 18.25 22.0 L 18.54 22.0 L 18.83 22.0 L 19.12 22.0 L 19.42 22.0 L 19.71 22.0 L 20.0 22.0" fill="none" stroke="#111" stroke-width="1.17" stroke-linecap="round" stroke-linejoin="round"/>
</svg>
