<?xml version="1.0" encoding="UTF-8"?>
<svg xmlns="http://www.w3.org/2000/svg" viewBox="0 0 23.75 29.20">
<path d="M 8.75 5.0 L 8.23 5.69 L 7.73 6.41 L 7.27 7.14 L 6.83 7.89 L 6.42 8.66 L 6.04 9.44 L 5.69 10.24 L 5.38 11.05 L 5.09 11.87 L 4.84 12.7 L 4.62 13.54 L 4.43 14.39 L 4.28 15.25 L 4.16 16.11 L 4.07 16.97 L 4.02 17.84 L 4.0 18.71 L 4.01 19.58 L 4.06 20.45 L 4.14 21.31 L 4.26 22.18 L 4.41 23.03 L 4.59 23.88 L 4.81 24.72" fill="none" stroke="#111" stroke-width="1.02" stroke-linecap="round" stroke-linejoin="round"/>
<path d="M 8.75 5.0 L 9.24 5.71 L 9.7 6.44 L 10.13 7.2 L 10.52 7.96 L 10.88 8.75 L 11.2 9.55 L 11.49 10.37 L 11.75 11.19 L 11.96 12.03 L 12.14 12.88 L 12.28 13.73 L 12.39 14.59 L 12.46 15.45 L 12.49 16.31 L 12.48 17.18 L 12.43 18.04 L 12.35 18.9 L 12.22 19.75 L 12.06 20.6 L 11.87 21.45 L 11.64 22.28 L 11.37 23.1 L 11.06 23.91 L 10.72 24.7" fill="none" stroke="#111" stroke-width="1.02" stroke-linecap="round" stroke-linejoin="round"/>
<path d="M 4.75 25.0 L 5.0 25.0 L 5.25 25.0 L 5.5 25.0 L 5.75 25.0 L 6.0 25.0 L 6.25 25.0 L 6.5 25.0 L 6.75 25.0 L 7.0 25.0 L 7.25 25.0 L 7.5 25.0 L 7.75 25.0 L 8.0 25.0 L 8.25 25.0 L 8.5 25.0 L 8.75 25.0 L 9.0 25.0 L 9.25 25.0 L 9.5 25.0 L 9.75 25.0 L 10.0 25.0 L 10.25 25.0 L 10.5 25.0 L 10.75 25.0" fill="none" stroke="#111" stroke-width="1.02" stroke-linecap="round" stroke-linejoin="round"/>
<path d="M 5.75 14.0 L 6.0 14.0 L 6.25 14.0 L 6.5 14.0 L 6.75 14.0 L 7.0 14.0 L 7.25 14.0 L 7.5 14.0 L 7.75 14.0 L 8.0 14.0 L 8.25 14.0 L 8.5 14.0 L 8.75 14.0 L 9.0 14.0 L 9.25 14.0 L 9.5 14.0 L 9.75 14.0 L 10.0 14.0 L 10.25 14.0 L 10.5 14.0 L 10.75 14.0 L 11.0 14.0 L 11.25 14.0 L 11.5 14.0 L 11.75 14.0" fill="none" stroke="#111" stroke-width="1.02" stroke-linecap="round" stroke-linejoin="round"/>
<path d="M 6.75 18.0 L 6.96 18.0 L 7.17 18.0 L 7.38 18.0 L 7.58 18.0 L 7.79 18.0 L 8.0 18.0 L 8.21 18.0 L 8.42 18.0 L 8.63 18.0 L 8.83 18.0 L 9.04 18.0 L 9.25 18.0 L 9.46 18.0 L 9.67 18.0 L 9.88 18.0 L 10.08 18.0 L 10.29 18.0 L 10.5 18.0 L 10.71 18.0 L 10.92 18.0 L 11.13 18.0 L 11.33 18.0 L 11.54 18.0 L 11.75 18.0" fill="none" stroke="#111" stroke-width="1.02" stroke-linecap="round" stroke-linejoin="round"/>
<path d="M 12.75 4.0 L 12.79 4.12 L 12.83 4.25 L 12.88 4.38 L 12.92 4.5 L 12.96 4.62 L 13.0 4.75 L 13.04 4.88 L 13.08 5.0 L 13.13 5.12 L 13.17 5.25 L 13.21 5.38 L 13.25 5.5 L 13.29 5.62 L 13.33 5.75 L 13.38 5.88 L 13.42 6.0 L 13.46 6.12 L 13.5 6.25 L 13.54 6.38 L 13.58 6.5 L 13.63 6.62 L 13.67 6.75 L 13.71 6.88 L 13.75 7.0" fill="none" stroke="#111" stroke-width="1.02" stroke-linecap="round" stroke-linejoin="round"/>
<path d="M 15.75 5.0 L 15.79 5.84 L 15.83 6.68 L 15.88 7.52 L 15.92 8.37 L 15.96 9.21 L 16.0 10.05 L 16.05 10.89 L 16.09 11.73 L 16.13 12.57 L 16.17 13.42 L 16.21 14.26 L 16.26 15.1 L 16.3 15.94 L 16.34 16.78 L 16.38 17.62 L 16.42 18.47 L 16.47 19.31 L 16.51 20.15 L 16.55 20.99 L 16.59 21.83 L 16.63 22.67 L 16.68 23.52 L 16.72 24.36 L 16.76 25.2" fill="none" stroke="#111" stroke-width="1.02" stroke-linecap="round" stroke-linejoin="round"/>
<path d="M 18.75 6.0 L 18.79 6.12 L 18.83 6.25 L 18.88 6.38 L 18.92 6.5 L 18.96 6.62 L 19.0 6.75 L 19.04 6.88 L 19.08 7.0 L 19.13 7.12 L 19.17 7.25 L 19.21 7.38 L 19.25 7.5 L 19.29 7.62 L 19.33 7.75 L 19.38 7.88 L 19.42 8.0 L 19.46 8.12 L 19.5 8.25 L 19.54 8.38 L 19.58 8.5 L 19.63 8.62 L 19.67 8.75 L 19.71 8.88 L 19.75 9.0" fill="none" stroke="#111" stroke-width="1.02" stroke-linecap="round" stroke-linejoin="round"/>
<path d="M 19.75 14.0 L 19.71 14.17 L 19.67 14.33 L 19.63 14.5 L 19.58 14.67 L 19.54 14.83 L 19.5 15.0 L 19.46 15.17 L 19.42 15.33 L 19.38 15.5 L 19.33 15.67 L 19.29 15.83 L 19.25 16.0 L 19.21 16.17 L 19.17 16.33 L 19.13 16.5 L 19.08 16.67 L 19.04 16.83 L 19.0 17.0 L 18.96 17.17 L 18.92 17.33 L 18.88 17.5 L 18.83 17.67 L 18.79 17.83 L 18.75 18.0" fill="none" stroke="#111" stroke-width="1.02" stroke-linecap="round" stroke-linejoin="round"/>
<path d="M 12.75 17.0 L 12.74 17.21 L 12.74 17.43 L 12.74 17.64 L 12.75 17.85 L 12.76 18.07 L 12.77 18.28 L 12.79 18.49 L 12.81 18.7 L 12.84 18.92 L 12.87 19.13 L 12.9 19.34 L 12.94 19.55 L 12.99 19.76 L 13.04 19.96 L 13.09 20.17 L 13.14 20.38 L 13.21 20.58 L 13.27 20.79 L 13.34 20.99 L 13.41 21.19 L 13.49 21.39 L 13.57 21.58 L 13.66 21.78 L 13.75 21.97" fill="none" stroke="#111" stroke-width="1.02" stroke-linecap="round" stroke-linejoin="round"/>
</svg>
