<?xml version="1.0" encoding="UTF-8"?>
<svg xmlns="http://www.w3.org/2000/svg" viewBox="0 0 20.00 33.00">
<path d="M 6.0 7.0 L 5.96 7.33 L 5.92 7.67 L 5.88 8.0 L 5.83 8.33 L 5.79 8.67 L 5.75 9.0 L 5.71 9.33 L 5.67 9.67 L 5.62 10.0 L 5.58 10.33 L 5.54 10.67 L 5.5 11.0 L 5.46 11.33 L 5.42 11.67 L 5.38 12.0 L 5.33 12.33 L 5.29 12.67 L 5.25 13.0 L 5.21 13.33 L 5.17 13.67 L 5.12 14.0 L 5.08 14.33 L 5.04 14.67 L 5.0 15.0" fill="none" stroke="#111" stroke-width="1.16" stroke-linecap="round" stroke-linejoin="round"/>
<path d="M 12.0 4.0 L 11.53 4.6 L 11.09 5.23 L 10.7 5.89 L 10.34 6.57 L 10.04 7.27 L 9.77 7.99 L 9.55 8.73 L 9.38 9.47 L 9.26 10.23 L 9.18 10.99 L 9.16 11.76 L 9.18 12.52 L 9.25 13.29 L 9.36 14.04 L 9.53 14.79 L 9.74 15.53 L 10.0 16.25 L 10.3 16.95 L 10.65 17.64 L 11.03 18.3 L 11.46 18.93 L 11.93 19.54 L 12.44 20.11 L 12.98 20.66 L 13.0 21.0 L 12.83 21.33 L 12.67 21.67 L 12.5 22.0 L 12.33 22.33 L 12.17 22.67 L 12.0 23.0 L 11.83 23.33 L 11.67 23.67 L 11.5 24.0 L 11.33 24.33 L 11.17 24.67 L 11.0 25.0 L 10.83 25.33 L 10.67 25.67 L 10.5 26.0 L 10.33 26.33 L 10.17 26.67 L 10.0 27.0 L 9.83 27.33 L 9.67 27.67 L 9.5 28.0 L 9.33 28.33 L 9.17 28.67 L 9.0 29.0" fill="none" stroke="#111" stroke-width="1.16" stroke-linecap="round" stroke-linejoin="round"/>
<path d="M 7.0 20.0 L 6.88 20.29 L 6.75 20.58 L 6.62 20.88 L 6.5 21.17 L 6.38 21.46 L 6.25 21.75 L 6.12 22.04 L 6.0 22.33 L 5.88 22.62 L 5.75 22.92 L 5.62 23.21 L 5.5 23.5 L 5.38 23.79 L 5.25 24.08 L 5.12 24.38 L 5.0 24.67 L 4.88 24.96 L 4.75 25.25 L 4.63 25.54 L 4.5 25.83 L 4.38 26.12 L 4.25 26.42 L 4.12 26.71 L 4.0 27.0" fill="none" stroke="#111" stroke-width="1.16" stroke-linecap="round" stroke-linejoin="round"/>
<path d="M 15.0 8.0 L 15.0 8.29 L 15.0 8.58 L 15.0 8.88 L 15.0 9.17 L 15.0 9.46 L 15.0 9.75 L 15.0 10.04 L 15.0 10.33 L 15.0 10.62 L 15.0 10.92 L 15.0 11.21 L 15.0 11.5 L 15.0 11.79 L 15.0 12.08 L 15.0 12.38 L 15.0 12.67 L 15.0 12.96 L 15.0 13.25 L 15.0 13.54 L 15.0 13.83 L 15.0 14.12 L 15.0 14.42 L 15.0 14.71 L 15.0 15.0" fill="none" stroke="#111" stroke-width="1.16" stroke-linecap="round" stroke-linejoin="round"/>
<path d="M 16.0 22.0 L 15.96 22.29 L 15.92 22.58 L 15.88 22.88 L 15.83 23.17 L 15.79 23.46 L 15.75 23.75 L 15.71 24.04 L 15.67 24.33 L 15.62 24.62 L 15.58 24.92 L 15.54 25.21 L 15.5 25.5 L 15.46 25.79 L 15.42 26.08 L 15.38 26.38 L 15.33 26.67 L 15.29 26.96 L 15.25 27.25 L 15.21 27.54 L 15.17 27.83 L 15.12 28.12 L 15.08 28.42 L 15.04 28.71 L 15.0 29.0" fill="none" stroke="#111" stroke-width="1.16" stroke-linecap="round" stroke-linejoin="round"/>
</svg>
