<?xml version="1.0" encoding="UTF-8"?>
<svg xmlns="http://www.w3.org/2000/svg" viewBox="0 0 22.00 32.70">
<path d="M 6.0 5.0 L 5.92 5.33 L 5.83 5.67 L 5.75 6.0 L 5.67 6.33 L 5.58 6.67 L 5.5 7.0 L 5.42 7.33 L 5.33 7.67 L 5.25 8.0 L 5.17 8.33 L 5.08 8.67 L 5.0 9.0 L 4.92 9.33 L 4.83 9.67 L 4.75 10.0 L 4.67 10.33 L 4.58 10.67 L 4.5 11.0 L 4.42 11.33 L 4.33 11.67 L 4.25 12.0 L 4.17 12.33 L 4.08 12.67 L 4.0 13.0 L 4.0 13.0 L 4.45 13.55 L 4.86 14.13 L 5.24 14.74 L 5.59 15.36 L 5.89 16.0 L 6.16 16.66 L 6.39 17.34 L 6.58 18.03 L 6.72 18.72 L 6.83 19.43 L 6.89 20.14 L 6.91 20.85 L 6.89 21.56 L 6.83 22.27 L 6.72 22.98 L 6.58 23.67 L 6.39 24.36 L 6.16 25.04 L 5.89 25.7 L 5.59 26.34 L 5.24 26.96 L 4.86 27.57 L 4.45 28.15 L 4.0 28.7" fill="none" stroke="#111" stroke-width="1.14" stroke-linecap="round" stroke-linejoin="round"/>
<path d="M 10.0 4.0 L 9.88 4.38 L 9.75 4.75 L 9.62 5.12 L 9.5 5.5 L 9.38 5.88 L 9.25 6.25 L 9.12 6.62 L 9.0 7.0 L 8.88 7.38 L 8.75 7.75 L 8.62 8.12 L 8.5 8.5 L 8.38 8.88 L 8.25 9.25 L 8.12 9.62 L 8.0 10.0 L 7.87 10.38 L 7.75 10.75 L 7.62 11.12 L 7.5 11.5 L 7.37 11.88 L 7.25 12.25 L 7.12 12.62 L 7.0 13.0" fill="none" stroke="#111" stroke-width="1.14" stroke-linecap="round" stroke-linejoin="round"/>
<path d="M 12.0 5.0 L 11.92 4.96 L 11.83 4.92 L 11.75 4.88 L 11.67 4.83 L 11.58 4.79 L 11.5 4.75 L 11.42 4.71 L 11.33 4.67 L 11.25 4.62 L 11.17 4.58 L 11.08 4.54 L 11.0 4.5 L 10.92 4.46 L 10.83 4.42 L 10.75 4.38 L 10.67 4.33 L 10.58 4.29 L 10.5 4.25 L 10.42 4.21 L 10.33 4.17 L 10.25 4.12 L 10.17 4.08 L 10.08 4.04 L 10.0 4.0 L 10.0 4.0 L 10.33 4.38 L 10.67 4.75 L 11.0 5.12 L 11.33 5.5 L 11.67 5.88 L 12.0 6.25 L 12.33 6.62 L 12.67 7.0 L 13.0 7.38 L 13.33 7.75 L 13.67 8.12 L 14.0 8.5 L 14.33 8.88 L 14.67 9.25 L 15.0 9.62 L 15.33 10.0 L 15.67 10.38 L 16.0 10.75 L 16.33 11.12 L 16.67 11.5 L 17.0 11.88 L 17.33 12.25 L 17.67 12.62 L 18.0 13.0" fill="none" stroke="#111" stroke-width="1.14" stroke-linecap="round" stroke-linejoin="round"/>
<path d="M 8.0 10.0 L 8.29 10.0 L 8.58 10.0 L 8.88 10.0 L 9.17 10.0 L 9.46 10.0 L 9.75 10.0 L 10.04 10.0 L 10.33 10.0 L 10.62 10.0 L 10.92 10.0 L 11.21 10.0 L 11.5 10.0 L 11.79 10.0 L 12.08 10.0 L 12.38 10.0 L 12.67 10.0 L 12.96 10.0 L 13.25 10.0 L 13.54 10.0 L 13.83 10.0 L 14.12 10.0 L 14.42 10.0 L 14.71 10.0 L 15.0 10.0" fill="none" stroke="#111" stroke-width="1.14" stroke-linecap="round" stroke-linejoin="round"/>
<path d="M 12.0 10.0 L 12.0 10.75 L 12.0 11.5 L 12.0 12.25 L 12.0 13.0 L 12.0 13.75 L 12.0 14.5 L 12.0 15.25 L 12.0 16.0 L 12.0 16.75 L 12.0 17.5 L 12.0 18.25 L 12.0 19.0 L 12.0 19.75 L 12.0 20.5 L 12.0 21.25 L 12.0 22.0 L 12.0 22.75 L 12.0 23.5 L 12.0 24.25 L 12.0 25.0 L 12.0 25.75 L 12.0 26.5 L 12.0 27.25 L 12.0 28.0" fill="none" stroke="#111" stroke-width="1.14" stroke-linecap="round" stroke-linejoin="round"/>
<path d="M 8.0 14.0 L 8.17 14.21 L 8.33 14.42 L 8.5 14.62 L 8.67 14.83 L 8.83 15.04 L 9.0 15.25 L 9.17 15.46 L 9.33 15.67 L 9.5 15.88 L 9.67 16.08 L 9.83 16.29 L 10.0 16.5 L 10.17 16.71 L 10.33 16.92 L 10.5 17.12 L 10.67 17.33 L 10.83 17.54 L 11.0 17.75 L 11.17 17.96 L 11.33 18.17 L 11.5 18.38 L 11.67 18.58 L 11.83 18.79 L 12.0 19.0" fill="none" stroke="#111" stroke-width="1.14" stroke-linecap="round" stroke-linejoin="round"/>
<path d="M 16.0 13.0 L 15.83 13.21 L 15.67 13.42 L 15.5 13.62 L 15.33 13.83 L 15.17 14.04 L 15.0 14.25 L 14.83 14.46 L 14.67 14.67 L 14.5 14.88 L 14.33 15.08 L 14.17 15.29 L 14.0 15.5 L 13.83 15.71 L 13.67 15.92 L 13.5 16.12 L 13.33 16.33 L 13.17 16.54 L 13.0 16.75 L 12.83 16.96 L 12.67 17.17 L 12.5 17.38 L 12.33 17.58 L 12.17 17.79 L 12.0 18.0" fill="none" stroke="#111" stroke-width="1.14" stroke-linecap="round" stroke-linejoin="round"/>
</svg>
