<?xml version="1.0" encoding="UTF-8"?>
<svg xmlns="http://www.w3.org/2000/svg" viewBox="0 0 23.22 35.21">
<path d="M 7.0 4.0 L 8.26 4.53 L 9.47 5.16 L 10.64 5.87 L 11.76 6.66 L 12.81 7.53 L 13.8 8.47 L 14.72 9.48 L 15.56 10.56 L 16.33 11.69 L 17.01 12.87 L 17.61 14.1 L 18.11 15.37 L 18.53 16.68 L 18.84 18.0 L 19.07 19.35 L 19.19 20.71 L 19.22 22.08 L 19.15 23.44 L 18.98 24.8 L 18.71 26.14 L 18.35 27.46 L 17.9 28.75 L 17.35 30.0 L 16.72 31.21" fill="none" stroke="#111" stroke-width="1.23" stroke-linecap="round" stroke-linejoin="round"/>
<path d="M 9.0 11.0 L 9.38 11.38 L 9.75 11.75 L 10.12 12.12 L 10.5 12.5 L 10.88 12.88 L 11.25 13.25 L 11.62 13.62 L 12.0 14.0 L 12.38 14.38 L 12.75 14.75 L 13.12 15.12 L 13.5 15.5 L 13.88 15.88 L 14.25 16.25 L 14.62 16.62 L 15.0 17.0 L 15.38 17.38 L 15.75 17.75 L 16.12 18.12 L 16.5 18.5 L 16.88 18.88 L 17.25 19.25 L 17.62 19.62 L 18.0 20.0" fill="none" stroke="#111" stroke-width="1.23" stroke-linecap="round" stroke-linejoin="round"/>
<path d="M 4.0 20.0 L 4.04 20.29 L 4.08 20.58 L 4.12 20.88 L 4.17 21.17 L 4.21 21.46 L 4.25 21.75 L 4.29 22.04 L 4.33 22.33 L 4.38 22.62 L 4.42 22.92 L 4.46 23.21 L 4.5 23.5 L 4.54 23.79 L 4.58 24.08 L 4.62 24.38 L 4.67 24.67 L 4.71 24.96 L 4.75 25.25 L 4.79 25.54 L 4.83 25.83 L 4.88 26.12 L 4.92 26.42 L 4.96 26.71 L 5.0 27.0 L 5.0 27.0 L 5.61 27.31 L 6.25 27.55 L 6.91 27.7 L 7.59 27.76 L 8.28 27.74 L 8.95 27.64 L 9.61 27.44 L 10.23 27.17 L 10.82 26.82 L 11.36 26.4 L 11.84 25.91 L 12.25 25.37 L 12.59 24.78 L 12.86 24.15 L 13.04 23.49 L 13.14 22.81 L 13.15 22.13 L 13.07 21.45 L 12.91 20.79 L 12.67 20.15 L 12.35 19.55 L 11.95 18.99 L 11.49 18.49 L 10.97 18.05" fill="none" stroke="#111" stroke-width="1.23" stroke-linecap="round" stroke-linejoin="round"/>
<path d="M 4.0 22.0 L 4.33 22.0 L 4.67 22.0 L 5.0 22.0 L 5.33 22.0 L 5.67 22.0 L 6.0 22.0 L 6.33 22.0 L 6.67 22.0 L 7.0 22.0 L 7.33 22.0 L 7.67 22.0 L 8.0 22.0 L 8.33 22.0 L 8.67 22.0 L 9.0 22.0 L 9.33 22.0 L 9.67 22.0 L 10.0 22.0 L 10.33 22.0 L 10.67 22.0 L 11.0 22.0 L 11.33 22.0 L 11.67 22.0 L 12.0 22.0" fill="none" stroke="#111" stroke-width="1.23" stroke-linecap="round" stroke-linejoin="round"/>
</svg>
