<?xml version="1.0" encoding="UTF-8"?>
<svg xmlns="http://www.w3.org/2000/svg" viewBox="0 0 24.00 25.86">
<path d="M 11.0 4.0 L 10.96 4.25 L 10.92 4.5 L 10.88 4.75 L 10.83 5.0 L 10.79 5.25 L 10.75 5.5 L 10.71 5.75 L 10.67 6.0 L 10.62 6.25 L 10.58 6.5 L 10.54 6.75 L 10.5 7.0 L 10.46 7.25 L 10.42 7.5 L 10.38 7.75 L 10.33 8.0 L 10.29 8.25 L 10.25 8.5 L 10.21 8.75 L 10.17 9.0 L 10.12 9.25 L 10.08 9.5 L 10.04 9.75 L 10.0 10.0 L 10.0 10.0 L 10.35 10.16 L 10.71 10.3 L 11.07 10.43 L 11.43 10.55 L 11.8 10.65 L 12.18 10.74 L 12.55 10.82 L 12.93 10.88 L 13.31 10.93 L 13.7 10.97 L 14.08 10.99 L 14.46 11.0 L 14.85 10.99 L 15.23 10.97 L 15.62 10.93 L 16.0 10.88 L 16.38 10.82 L 16.75 10.74 L 17.13 10.65 L 17.5 10.55 L 17.86 10.43 L 18.22 10.3 L 18.58 10.16 L 18.93 10.0 L 19.0 10.0 L 19.0 9.79 L 19.0 9.58 L 19.0 9.38 L 19.0 9.17 L 19.0 8.96 L 19.0 8.75 L 19.0 8.54 L 19.0 8.33 L 19.0 8.12 L 19.0 7.92 L 19.0 7.71 L 19.0 7.5 L 19.0 7.29 L 19.0 7.08 L 19.0 6.88 L 19.0 6.67 L 19.0 6.46 L 19.0 6.25 L 19.0 6.04 L 19.0 5.83 L 19.0 5.62 L 19.0 5.42 L 19.0 5.21 L 19.0 5.0 L 19.0 5.0 L 18.67 5.0 L 18.33 5.0 L 18.0 5.0 L 17.67 5.0 L 17.33 5.0 L 17.0 5.0 L 16.67 5.0 L 16.33 5.0 L 16.0 5.0 L 15.67 5.0 L 15.33 5.0 L 15.0 5.0 L 14.67 5.0 L 14.33 5.0 L 14.0 5.0 L 13.67 5.0 L 13.33 5.0 L 13.0 5.0 L 12.67 5.0 L 12.33 5.0 L 12.0 5.0 L 11.67 5.0 L 11.33 5.0 L 11.0 5.0" fill="none" stroke="#111" stroke-width="0.91" stroke-linecap="round" stroke-linejoin="round"/>
<path d="M 15.0 11.0 L 14.96 11.38 L 14.92 11.75 L 14.88 12.12 L 14.83 12.5 L 14.79 12.88 L 14.75 13.25 L 14.71 13.62 L 14.67 14.0 L 14.62 14.38 L 14.58 14.75 L 14.54 15.12 L 14.5 15.5 L 14.46 15.88 L 14.42 16.25 L 14.38 16.62 L 14.33 17.0 L 14.29 17.38 L 14.25 17.75 L 14.21 18.12 L 14.17 18.5 L 14.12 18.88 L 14.08 19.25 L 14.04 19.62 L 14.0 20.0 L 14.0 20.0 L 14.08 20.04 L 14.17 20.08 L 14.25 20.12 L 14.33 20.17 L 14.42 20.21 L 14.5 20.25 L 14.58 20.29 L 14.67 20.33 L 14.75 20.38 L 14.83 20.42 L 14.92 20.46 L 15.0 20.5 L 15.08 20.54 L 15.17 20.58 L 15.25 20.62 L 15.33 20.67 L 15.42 20.71 L 15.5 20.75 L 15.58 20.79 L 15.67 20.83 L 15.75 20.88 L 15.83 20.92 L 15.92 20.96 L 16.0 21.0 L 16.0 21.0 L 16.17 20.83 L 16.33 20.67 L 16.5 20.5 L 16.67 20.33 L 16.83 20.17 L 17.0 20.0 L 17.17 19.83 L 17.33 19.67 L 17.5 19.5 L 17.67 19.33 L 17.83 19.17 L 18.0 19.0 L 18.17 18.83 L 18.33 18.67 L 18.5 18.5 L 18.67 18.33 L 18.83 18.17 L 19.0 18.0 L 19.17 17.83 L 19.33 17.67 L 19.5 17.5 L 19.67 17.33 L 19.83 17.17 L 20.0 17.0" fill="none" stroke="#111" stroke-width="0.91" stroke-linecap="round" stroke-linejoin="round"/>
<path d="M 4.0 6.0 L 4.04 6.17 L 4.08 6.33 L 4.12 6.5 L 4.17 6.67 L 4.21 6.83 L 4.25 7.0 L 4.29 7.17 L 4.33 7.33 L 4.38 7.5 L 4.42 7.67 L 4.46 7.83 L 4.5 8.0 L 4.54 8.17 L 4.58 8.33 L 4.62 8.5 L 4.67 8.67 L 4.71 8.83 L 4.75 9.0 L 4.79 9.17 L 4.83 9.33 L 4.88 9.5 L 4.92 9.67 L 4.96 9.83 L 5.0 10.0" fill="none" stroke="#111" stroke-width="0.91" stroke-linecap="round" stroke-linejoin="round"/>
<path d="M 5.0 12.0 L 5.0 12.17 L 5.0 12.33 L 5.0 12.5 L 5.0 12.67 L 5.0 12.83 L 5.0 13.0 L 5.0 13.17 L 5.0 13.33 L 5.0 13.5 L 5.0 13.67 L 5.0 13.83 L 5.0 14.0 L 5.0 14.17 L 5.0 14.33 L 5.0 14.5 L 5.0 14.67 L 5.0 14.83 L 5.0 15.0 L 5.0 15.17 L 5.0 15.33 L 5.0 15.5 L 5.0 15.67 L 5.0 15.83 L 5.0 16.0" fill="none" stroke="#111" stroke-width="0.91" stroke-linecap="round" stroke-linejoin="round"/>
<path d="M 6.0 5.0 L 6.33 5.64 L 6.65 6.3 L 6.94 6.96 L 7.21 7.63 L 7.46 8.31 L 7.69 9.0 L 7.9 9.69 L 8.08 10.39 L 8.25 11.1 L 8.39 11.81 L 8.5 12.52 L 8.6 13.24 L 8.67 13.96 L 8.72 14.68 L 8.75 15.41 L 8.76 16.13 L 8.74 16.86 L 8.7 17.58 L 8.64 18.3 L 8.55 19.02 L 8.44 19.74 L 8.31 20.45 L 8.16 21.16 L 7.98 21.86" fill="none" stroke="#111" stroke-width="0.91" stroke-linecap="round" stroke-linejoin="round"/>
<path d="M 10.0 16.0 L 10.0 16.17 L 10.0 16.33 L 10.0 16.5 L 10.0 16.67 L 10.0 16.83 L 10.0 17.0 L 10.0 17.17 L 10.0 17.33 L 10.0 17.5 L 10.0 17.67 L 10.0 17.83 L 10.0 18.0 L 10.0 18.17 L 10.0 18.33 L 10.0 18.5 L 10.0 18.67 L 10.0 18.83 L 10.0 19.0 L 10.0 19.17 L 10.0 19.33 L 10.0 19.5 L 10.0 19.67 L 10.0 19.83 L 10.0 20.0" fill="none" stroke="#111" stroke-width="0.91" stroke-linecap="round" stroke-linejoin="round"/>
</svg>
