<?xml version="1.0" encoding="UTF-8"?>
<svg xmlns="http://www.w3.org/2000/svg" viewBox="0 0 33.75 35.77">
<path d="M 7.0 5.0 L 7.38 4.96 L 7.75 4.92 L 8.12 4.88 L 8.5 4.83 L 8.88 4.79 L 9.25 4.75 L 9.62 4.71 L 10.0 4.67 L 10.38 4.62 L 10.75 4.58 L 11.12 4.54 L 11.5 4.5 L 11.88 4.46 L 12.25 4.42 L 12.62 4.38 L 13.0 4.33 L 13.38 4.29 L 13.75 4.25 L 14.12 4.21 L 14.5 4.17 L 14.88 4.12 L 15.25 4.08 L 15.63 4.04 L 16.0 4.0" fill="none" stroke="#111" stroke-width="1.25" stroke-linecap="round" stroke-linejoin="round"/>
<path d="M 4.0 10.0 L 4.54 9.92 L 5.08 9.83 L 5.62 9.75 L 6.17 9.67 L 6.71 9.58 L 7.25 9.5 L 7.79 9.42 L 8.33 9.33 L 8.88 9.25 L 9.42 9.17 L 9.96 9.08 L 10.5 9.0 L 11.04 8.92 L 11.58 8.83 L 12.12 8.75 L 12.67 8.67 L 13.21 8.58 L 13.75 8.5 L 14.29 8.42 L 14.83 8.33 L 15.38 8.25 L 15.92 8.17 L 16.46 8.08 L 17.0 8.0" fill="none" stroke="#111" stroke-width="1.25" stroke-linecap="round" stroke-linejoin="round"/>
<path d="M 11.0 9.0 L 11.0 9.92 L 11.0 10.83 L 11.0 11.75 L 11.0 12.67 L 11.0 13.58 L 11.0 14.5 L 11.0 15.42 L 11.0 16.33 L 11.0 17.25 L 11.0 18.17 L 11.0 19.08 L 11.0 20.0 L 11.0 20.92 L 11.0 21.83 L 11.0 22.75 L 11.0 23.67 L 11.0 24.58 L 11.0 25.5 L 11.0 26.42 L 11.0 27.33 L 11.0 28.25 L 11.0 29.17 L 11.0 30.08 L 11.0 31.0" fill="none" stroke="#111" stroke-width="1.25" stroke-linecap="round" stroke-linejoin="round"/>
<path d="M 20.0 6.0 L 19.65 6.22 L 19.33 6.47 L 19.04 6.76 L 18.78 7.08 L 18.56 7.43 L 18.38 7.8 L 18.25 8.19 L 18.15 8.59 L 18.11 9.0 L 18.1 9.41 L 18.15 9.82 L 18.24 10.22 L 18.38 10.61 L 18.55 10.98 L 18.77 11.33 L 19.03 11.65 L 19.32 11.94 L 19.64 12.2 L 19.99 12.42 L 20.36 12.59 L 20.74 12.73 L 21.14 12.82 L 21.55 12.87 L 21.96 12.87" fill="none" stroke="#111" stroke-width="1.25" stroke-linecap="round" stroke-linejoin="round"/>
<path d="M 20.0 6.0 L 20.21 6.0 L 20.42 6.0 L 20.62 6.0 L 20.83 6.0 L 21.04 6.0 L 21.25 6.0 L 21.46 6.0 L 21.67 6.0 L 21.88 6.0 L 22.08 6.0 L 22.29 6.0 L 22.5 6.0 L 22.71 6.0 L 22.92 6.0 L 23.12 6.0 L 23.33 6.0 L 23.54 6.0 L 23.75 6.0 L 23.96 6.0 L 24.17 6.0 L 24.38 6.0 L 24.58 6.0 L 24.79 6.0 L 25.0 6.0 L 25.0 6.0 L 25.23 6.3 L 25.43 6.62 L 25.6 6.96 L 25.74 7.32 L 25.85 7.68 L 25.92 8.05 L 25.96 8.43 L 25.97 8.81 L 25.94 9.19 L 25.87 9.56 L 25.77 9.93 L 25.64 10.29 L 25.47 10.63 L 25.27 10.95 L 25.05 11.26 L 24.8 11.54 L 24.52 11.8 L 24.22 12.04 L 23.9 12.24 L 23.56 12.41 L 23.21 12.56 L 22.84 12.67 L 22.47 12.74 L 22.09 12.78" fill="none" stroke="#111" stroke-width="1.25" stroke-linecap="round" stroke-linejoin="round"/>
<path d="M 19.0 12.0 L 18.31 12.97 L 17.71 13.99 L 17.22 15.08 L 16.83 16.2 L 16.56 17.36 L 16.4 18.53 L 16.35 19.72 L 16.42 20.91 L 16.61 22.08 L 16.91 23.23 L 17.32 24.35 L 17.84 25.42 L 18.46 26.43 L 19.18 27.38 L 19.98 28.26 L 20.87 29.05 L 21.82 29.75 L 22.85 30.36 L 23.92 30.86 L 25.05 31.26 L 26.2 31.54 L 27.38 31.71 L 28.56 31.77 L 29.75 31.71" fill="none" stroke="#111" stroke-width="1.25" stroke-linecap="round" stroke-linejoin="round"/>
<path d="M 7.0 13.0 L 6.96 13.58 L 6.92 14.17 L 6.88 14.75 L 6.83 15.33 L 6.79 15.92 L 6.75 16.5 L 6.71 17.08 L 6.67 17.67 L 6.62 18.25 L 6.58 18.83 L 6.54 19.42 L 6.5 20.0 L 6.46 20.58 L 6.42 21.17 L 6.38 21.75 L 6.33 22.33 L 6.29 22.92 L 6.25 23.5 L 6.21 24.08 L 6.17 24.67 L 6.12 25.25 L 6.08 25.83 L 6.04 26.42 L 6.0 27.0" fill="none" stroke="#111" stroke-width="1.25" stroke-linecap="round" stroke-linejoin="round"/>
<path d="M 15.0 12.0 L 15.04 12.38 L 15.08 12.75 L 15.12 13.12 L 15.17 13.5 L 15.21 13.88 L 15.25 14.25 L 15.29 14.62 L 15.33 15.0 L 15.38 15.38 L 15.42 15.75 L 15.46 16.12 L 15.5 16.5 L 15.54 16.88 L 15.58 17.25 L 15.62 17.62 L 15.67 18.0 L 15.71 18.38 L 15.75 18.75 L 15.79 19.12 L 15.83 19.5 L 15.88 19.88 L 15.92 20.25 L 15.96 20.62 L 16.0 21.0" fill="none" stroke="#111" stroke-width="1.25" stroke-linecap="round" stroke-linejoin="round"/>
</svg>
