<?xml version="1.0" encoding="UTF-8"?>
<svg xmlns="http://www.w3.org/2000/svg" viewBox="0 0 32.77 32.95">
<path d="M 13.16 5.0 L 11.41 5.59 L 9.77 6.43 L 8.28 7.52 L 6.97 8.81 L 5.87 10.29 L 5.0 11.92 L 4.4 13.67 L 4.06 15.48 L 4.0 17.32 L 4.22 19.15 L 4.72 20.93 L 5.47 22.61 L 6.48 24.16 L 7.7 25.54 L 9.12 26.71 L 10.7 27.66 L 12.41 28.36 L 14.2 28.79 L 16.04 28.95 L 17.88 28.82 L 19.68 28.42 L 21.4 27.76 L 23.0 26.84 L 24.44 25.69 L 19.16 16.0 L 19.49 15.51 L 19.78 14.99 L 20.02 14.44 L 20.21 13.88 L 20.35 13.3 L 20.44 12.71 L 20.48 12.12 L 20.46 11.53 L 20.4 10.94 L 20.27 10.35 L 20.1 9.78 L 19.88 9.23 L 19.61 8.7 L 19.29 8.2 L 18.94 7.72 L 18.53 7.28 L 18.1 6.88 L 17.63 6.52 L 17.12 6.2 L 16.6 5.92 L 16.05 5.7 L 15.48 5.52 L 14.9 5.4 L 14.3 5.33" fill="none" stroke="#111" stroke-width="1.15" stroke-linecap="round" stroke-linejoin="round"/>
<path d="M 15.16 18.0 L 15.32 17.96 L 15.49 17.92 L 15.66 17.88 L 15.82 17.83 L 15.99 17.79 L 16.16 17.75 L 16.32 17.71 L 16.49 17.67 L 16.66 17.62 L 16.82 17.58 L 16.99 17.54 L 17.16 17.5 L 17.32 17.46 L 17.49 17.42 L 17.66 17.38 L 17.82 17.33 L 17.99 17.29 L 18.16 17.25 L 18.32 17.21 L 18.49 17.17 L 18.66 17.12 L 18.82 17.08 L 18.99 17.04 L 19.16 17.0" fill="none" stroke="#111" stroke-width="1.15" stroke-linecap="round" stroke-linejoin="round"/>
<path d="M 25.16 4.0 L 25.03 4.42 L 24.91 4.83 L 24.78 5.25 L 24.66 5.67 L 24.53 6.08 L 24.41 6.5 L 24.28 6.92 L 24.16 7.33 L 24.03 7.75 L 23.91 8.17 L 23.78 8.58 L 23.66 9.0 L 23.53 9.42 L 23.41 9.83 L 23.28 10.25 L 23.16 10.67 L 23.03 11.08 L 22.91 11.5 L 22.78 11.92 L 22.66 12.33 L 22.53 12.75 L 22.41 13.17 L 22.28 13.58 L 22.16 14.0" fill="none" stroke="#111" stroke-width="1.15" stroke-linecap="round" stroke-linejoin="round"/>
<path d="M 24.16 11.0 L 24.73 11.26 L 25.29 11.56 L 25.81 11.92 L 26.31 12.32 L 26.76 12.76 L 27.18 13.23 L 27.55 13.74 L 27.88 14.29 L 28.16 14.85 L 28.39 15.44 L 28.56 16.05 L 28.69 16.67 L 28.76 17.3 L 28.77 17.94 L 28.73 18.57 L 28.63 19.19 L 28.48 19.81 L 28.28 20.41 L 28.03 20.99 L 27.73 21.54 L 27.38 22.07 L 26.98 22.57 L 26.55 23.03 L 26.07 23.44" fill="none" stroke="#111" stroke-width="1.15" stroke-linecap="round" stroke-linejoin="round"/>
</svg>
