<?xml version="1.0" encoding="UTF-8"?>
<svg xmlns="http://www.w3.org/2000/svg" viewBox="0 0 27.34 32.24">
<path d="M 5.0 5.24 L 5.0 5.41 L 5.0 5.58 L 5.0 5.74 L 5.0 5.91 L 5.0 6.08 L 5.0 6.24 L 5.0 6.41 L 5.0 6.58 L 5.0 6.74 L 5.0 6.91 L 5.0 7.08 L 5.0 7.24 L 5.0 7.41 L 5.0 7.58 L 5.0 7.74 L 5.0 7.91 L 5.0 8.08 L 5.0 8.24 L 5.0 8.41 L 5.0 8.58 L 5.0 8.74 L 5.0 8.91 L 5.0 9.08 L 5.0 9.24" fill="none" stroke="#111" stroke-width="1.13" stroke-linecap="round" stroke-linejoin="round"/>
<path d="M 5.0 15.24 L 4.96 15.45 L 4.92 15.66 L 4.88 15.87 L 4.83 16.08 L 4.79 16.28 L 4.75 16.49 L 4.71 16.7 L 4.67 16.91 L 4.62 17.12 L 4.58 17.33 L 4.54 17.53 L 4.5 17.74 L 4.46 17.95 L 4.42 18.16 L 4.38 18.37 L 4.33 18.58 L 4.29 18.78 L 4.25 18.99 L 4.21 19.2 L 4.17 19.41 L 4.12 19.62 L 4.08 19.83 L 4.04 20.03 L 4.0 20.24" fill="none" stroke="#111" stroke-width="1.13" stroke-linecap="round" stroke-linejoin="round"/>
<path d="M 5.0 23.24 L 5.0 23.45 L 5.0 23.66 L 5.0 23.87 L 5.0 24.08 L 5.0 24.28 L 5.0 24.49 L 5.0 24.7 L 5.0 24.91 L 5.0 25.12 L 5.0 25.33 L 5.0 25.53 L 5.0 25.74 L 5.0 25.95 L 5.0 26.16 L 5.0 26.37 L 5.0 26.58 L 5.0 26.78 L 5.0 26.99 L 5.0 27.2 L 5.0 27.41 L 5.0 27.62 L 5.0 27.83 L 5.0 28.03 L 5.0 28.24" fill="none" stroke="#111" stroke-width="1.13" stroke-linecap="round" stroke-linejoin="round"/>
<path d="M 17.0 4.24 L 17.04 4.45 L 17.08 4.66 L 17.12 4.87 L 17.17 5.08 L 17.21 5.28 L 17.25 5.49 L 17.29 5.7 L 17.33 5.91 L 17.38 6.12 L 17.42 6.33 L 17.46 6.53 L 17.5 6.74 L 17.54 6.95 L 17.58 7.16 L 17.62 7.37 L 17.67 7.58 L 17.71 7.78 L 17.75 7.99 L 17.79 8.2 L 17.83 8.41 L 17.88 8.62 L 17.92 8.83 L 17.96 9.03 L 18.0 9.24" fill="none" stroke="#111" stroke-width="1.13" stroke-linecap="round" stroke-linejoin="round"/>
<path d="M 17.0 14.24 L 17.04 14.45 L 17.08 14.66 L 17.12 14.87 L 17.17 15.08 L 17.21 15.28 L 17.25 15.49 L 17.29 15.7 L 17.33 15.91 L 17.38 16.12 L 17.42 16.33 L 17.46 16.53 L 17.5 16.74 L 17.54 16.95 L 17.58 17.16 L 17.62 17.37 L 17.67 17.58 L 17.71 17.78 L 17.75 17.99 L 17.79 18.2 L 17.83 18.41 L 17.88 18.62 L 17.92 18.83 L 17.96 19.03 L 18.0 19.24" fill="none" stroke="#111" stroke-width="1.13" stroke-linecap="round" stroke-linejoin="round"/>
<path d="M 16.0 23.24 L 16.08 23.45 L 16.17 23.66 L 16.25 23.87 L 16.33 24.08 L 16.42 24.28 L 16.5 24.49 L 16.58 24.7 L 16.67 24.91 L 16.75 25.12 L 16.83 25.33 L 16.92 25.53 L 17.0 25.74 L 17.08 25.95 L 17.17 26.16 L 17.25 26.37 L 17.33 26.58 L 17.42 26.78 L 17.5 26.99 L 17.58 27.2 L 17.67 27.41 L 17.75 27.62 L 17.83 27.83 L 17.92 28.03 L 18.0 28.24" fill="none" stroke="#111" stroke-width="1.13" stroke-linecap="round" stroke-linejoin="round"/>
<path d="M 8.0 12.24 L 8.04 11.34 L 8.17 10.44 L 8.41 9.56 L 8.74 8.72 L 9.17 7.92 L 9.68 7.17 L 10.27 6.48 L 10.94 5.87 L 11.67 5.33 L 12.45 4.87 L 13.28 4.51 L 14.15 4.24 L 15.04 4.07 L 15.95 4.0 L 16.85 4.03 L 17.75 4.16 L 18.63 4.39 L 19.47 4.72 L 20.28 5.14 L 21.03 5.65 L 21.72 6.24 L 22.34 6.9 L 22.88 7.63 L 23.34 8.41 L 16.0 10.24 L 16.0 10.24 L 16.0 10.24 L 16.0 10.24 L 16.0 10.24 L 16.0 10.24 L 16.0 10.24 L 16.0 10.24 L 16.0 10.24 L 16.0 10.24 L 16.0 10.24 L 16.0 10.24 L 16.0 10.24 L 16.0 10.24 L 16.0 10.24 L 16.0 10.24 L 16.0 10.24 L 16.0 10.24 L 16.0 10.24 L 16.0 10.24 L 16.0 10.24 L 16.0 10.24 L 16.0 10.24 L 16.0 10.24 L 16.0 10.24" fill="none" stroke="#111" stroke-width="1.13" stroke-linecap="round" stroke-linejoin="round"/>
<path d="M 9.0 13.24 L 9.12 13.37 L 9.25 13.49 L 9.38 13.62 L 9.5 13.74 L 9.62 13.87 L 9.75 13.99 L 9.88 14.12 L 10.0 14.24 L 10.12 14.37 L 10.25 14.49 L 10.38 14.62 L 10.5 14.74 L 10.62 14.87 L 10.75 14.99 L 10.88 15.12 L 11.0 15.24 L 11.12 15.37 L 11.25 15.49 L 11.38 15.62 L 11.5 15.74 L 11.62 15.87 L 11.75 15.99 L 11.88 16.12 L 12.0 16.24 L 12.0 16.24 L 12.08 16.12 L 12.17 15.99 L 12.25 15.87 L 12.33 15.74 L 12.42 15.62 L 12.5 15.49 L 12.58 15.37 L 12.67 15.24 L 12.75 15.12 L 12.83 14.99 L 12.92 14.87 L 13.0 14.74 L 13.08 14.62 L 13.17 14.49 L 13.25 14.37 L 13.33 14.24 L 13.42 14.12 L 13.5 13.99 L 13.58 13.87 L 13.67 13.74 L 13.75 13.62 L 13.83 13.49 L 13.92 13.37 L 14.0 13.24" fill="none" stroke="#111" stroke-width="1.13" stroke-linecap="round" stroke-linejoin="round"/>
<path d="M 12.0 12.24 L 12.0 12.37 L 12.0 12.49 L 12.0 12.62 L 12.0 12.74 L 12.0 12.87 L 12.0 12.99 L 12.0 13.12 L 12.0 13.24 L 12.0 13.37 L 12.0 13.49 L 12.0 13.62 L 12.0 13.74 L 12.0 13.87 L 12.0 13.99 L 12.0 14.12 L 12.0 14.24 L 12.0 14.37 L 12.0 14.49 L 12.0 14.62 L 12.0 14.74 L 12.0 14.87 L 12.0 14.99 L 12.0 15.12 L 12.0 15.24" fill="none" stroke="#111" stroke-width="1.13" stroke-linecap="round" stroke-linejoin="round"/>
<path d="M 8.0 21.24 L 8.0 20.39 L 8.1 19.54 L 8.29 18.71 L 8.58 17.91 L 8.95 17.14 L 9.41 16.42 L 9.94 15.75 L 10.54 15.15 L 11.21 14.62 L 11.94 14.17 L 12.71 13.8 L 13.51 13.52 L 14.34 13.33 L 15.19 13.24 L 16.05 13.24 L 16.89 13.34 L 17.72 13.53 L 18.53 13.81 L 19.3 14.18 L 20.02 14.64 L 20.69 15.17 L 21.29 15.77 L 21.82 16.44 L 22.27 17.17" fill="none" stroke="#111" stroke-width="1.13" stroke-linecap="round" stroke-linejoin="round"/>
<path d="M 9.0 22.24 L 9.12 22.41 L 9.25 22.58 L 9.38 22.74 L 9.5 22.91 L 9.62 23.08 L 9.75 23.24 L 9.88 23.41 L 10.0 23.58 L 10.12 23.74 L 10.25 23.91 L 10.38 24.08 L 10.5 24.24 L 10.62 24.41 L 10.75 24.58 L 10.88 24.74 L 11.0 24.91 L 11.12 25.08 L 11.25 25.24 L 11.38 25.41 L 11.5 25.58 L 11.62 25.74 L 11.75 25.91 L 11.88 26.08 L 12.0 26.24 L 12.0 26.24 L 12.08 26.08 L 12.17 25.91 L 12.25 25.74 L 12.33 25.58 L 12.42 25.41 L 12.5 25.24 L 12.58 25.08 L 12.67 24.91 L 12.75 24.74 L 12.83 24.58 L 12.92 24.41 L 13.0 24.24 L 13.08 24.08 L 13.17 23.91 L 13.25 23.74 L 13.33 23.58 L 13.42 23.41 L 13.5 23.24 L 13.58 23.08 L 13.67 22.91 L 13.75 22.74 L 13.83 22.58 L 13.92 22.41 L 14.0 22.24" fill="none" stroke="#111" stroke-width="1.13" stroke-linecap="round" stroke-linejoin="round"/>
<path d="M 11.0 20.24 L 11.04 20.45 L 11.08 20.66 L 11.12 20.87 L 11.17 21.08 L 11.21 21.28 L 11.25 21.49 L 11.29 21.7 L 11.33 21.91 L 11.38 22.12 L 11.42 22.33 L 11.46 22.53 L 11.5 22.74 L 11.54 22.95 L 11.58 23.16 L 11.62 23.37 L 11.67 23.58 L 11.71 23.78 L 11.75 23.99 L 11.79 24.2 L 11.83 24.41 L 11.88 24.62 L 11.92 24.83 L 11.96 25.03 L 12.0 25.24" fill="none" stroke="#111" stroke-width="1.13" stroke-linecap="round" stroke-linejoin="round"/>
</svg>
