<?xml version="1.0" encoding="UTF-8"?>
<svg xmlns="http://www.w3.org/2000/svg" viewBox="0 0 19.00 43.29">
<path d="M 4.0 6.0 L 4.0 6.25 L 4.0 6.5 L 4.0 6.75 L 4.0 7.0 L 4.0 7.25 L 4.0 7.5 L 4.0 7.75 L 4.0 8.0 L 4.0 8.25 L 4.0 8.5 L 4.0 8.75 L 4.0 9.0 L 4.0 9.25 L 4.0 9.5 L 4.0 9.75 L 4.0 10.0 L 4.0 10.25 L 4.0 10.5 L 4.0 10.75 L 4.0 11.0 L 4.0 11.25 L 4.0 11.5 L 4.0 11.75 L 4.0 12.0" fill="none" stroke="#111" stroke-width="1.52" stroke-linecap="round" stroke-linejoin="round"/>
<path d="M 4.0 6.0 L 4.46 6.08 L 4.92 6.17 L 5.38 6.25 L 5.83 6.33 L 6.29 6.42 L 6.75 6.5 L 7.21 6.58 L 7.67 6.67 L 8.12 6.75 L 8.58 6.83 L 9.04 6.92 L 9.5 7.0 L 9.96 7.08 L 10.42 7.17 L 10.88 7.25 L 11.33 7.33 L 11.79 7.42 L 12.25 7.5 L 12.71 7.58 L 13.17 7.67 L 13.62 7.75 L 14.08 7.83 L 14.54 7.92 L 15.0 8.0" fill="none" stroke="#111" stroke-width="1.52" stroke-linecap="round" stroke-linejoin="round"/>
<path d="M 9.0 4.0 L 8.85 4.5 L 8.74 5.0 L 8.65 5.51 L 8.58 6.02 L 8.55 6.54 L 8.55 7.05 L 8.57 7.57 L 8.62 8.08 L 8.7 8.59 L 8.81 9.1 L 8.95 9.6 L 9.11 10.09 L 9.3 10.57 L 9.51 11.04 L 9.76 11.49 L 10.02 11.94 L 10.31 12.36 L 10.63 12.78 L 10.96 13.17 L 11.32 13.54 L 11.7 13.9 L 12.09 14.23 L 12.51 14.54 L 12.94 14.82" fill="none" stroke="#111" stroke-width="1.52" stroke-linecap="round" stroke-linejoin="round"/>
<path d="M 4.0 9.0 L 4.46 8.96 L 4.92 8.92 L 5.38 8.88 L 5.83 8.83 L 6.29 8.79 L 6.75 8.75 L 7.21 8.71 L 7.67 8.67 L 8.12 8.62 L 8.58 8.58 L 9.04 8.54 L 9.5 8.5 L 9.96 8.46 L 10.42 8.42 L 10.88 8.38 L 11.33 8.33 L 11.79 8.29 L 12.25 8.25 L 12.71 8.21 L 13.17 8.17 L 13.62 8.12 L 14.08 8.08 L 14.54 8.04 L 15.0 8.0" fill="none" stroke="#111" stroke-width="1.52" stroke-linecap="round" stroke-linejoin="round"/>
<path d="M 6.0 11.0 L 6.04 11.12 L 6.08 11.25 L 6.12 11.38 L 6.17 11.5 L 6.21 11.62 L 6.25 11.75 L 6.29 11.88 L 6.33 12.0 L 6.38 12.12 L 6.42 12.25 L 6.46 12.38 L 6.5 12.5 L 6.54 12.62 L 6.58 12.75 L 6.62 12.88 L 6.67 13.0 L 6.71 13.12 L 6.75 13.25 L 6.79 13.38 L 6.83 13.5 L 6.88 13.62 L 6.92 13.75 L 6.96 13.88 L 7.0 14.0" fill="none" stroke="#111" stroke-width="1.52" stroke-linecap="round" stroke-linejoin="round"/>
<path d="M 12.0 5.0 L 11.96 5.04 L 11.92 5.08 L 11.88 5.12 L 11.83 5.17 L 11.79 5.21 L 11.75 5.25 L 11.71 5.29 L 11.67 5.33 L 11.62 5.38 L 11.58 5.42 L 11.54 5.46 L 11.5 5.5 L 11.46 5.54 L 11.42 5.58 L 11.38 5.62 L 11.33 5.67 L 11.29 5.71 L 11.25 5.75 L 11.21 5.79 L 11.17 5.83 L 11.12 5.88 L 11.08 5.92 L 11.04 5.96 L 11.0 6.0" fill="none" stroke="#111" stroke-width="1.52" stroke-linecap="round" stroke-linejoin="round"/>
<path d="M 14.0 9.0 L 13.68 9.1 L 13.36 9.22 L 13.04 9.35 L 12.74 9.5 L 12.44 9.67 L 12.15 9.85 L 11.87 10.04 L 11.6 10.25 L 11.34 10.47 L 11.09 10.7 L 10.86 10.94 L 10.63 11.2 L 10.42 11.47 L 10.22 11.74 L 10.04 12.03 L 9.87 12.32 L 9.72 12.63 L 9.58 12.94 L 9.45 13.25 L 9.35 13.58 L 9.25 13.9 L 9.18 14.23 L 9.12 14.57 L 9.08 14.91" fill="none" stroke="#111" stroke-width="1.52" stroke-linecap="round" stroke-linejoin="round"/>
<path d="M 8.0 14.0 L 8.07 14.41 L 8.14 14.81 L 8.23 15.22 L 8.32 15.62 L 8.43 16.02 L 8.54 16.42 L 8.66 16.82 L 8.79 17.21 L 8.93 17.6 L 9.08 17.99 L 9.23 18.37 L 9.39 18.75 L 9.57 19.13 L 9.75 19.5 L 9.94 19.87 L 10.13 20.23 L 10.34 20.59 L 10.55 20.95 L 10.77 21.3 L 11.0 21.64 L 11.23 21.98 L 11.48 22.32 L 11.73 22.64 L 11.99 22.97 L 12.0 23.0 L 11.16 23.21 L 10.34 23.49 L 9.54 23.84 L 8.79 24.27 L 8.07 24.76 L 7.4 25.32 L 6.78 25.93 L 6.23 26.59 L 5.73 27.31 L 5.3 28.06 L 4.94 28.85 L 4.65 29.67 L 4.44 30.51 L 4.31 31.37 L 4.25 32.24 L 4.27 33.11 L 4.37 33.97 L 4.55 34.82 L 4.8 35.65 L 5.13 36.46 L 5.53 37.23 L 5.99 37.96 L 6.52 38.65 L 7.11 39.29" fill="none" stroke="#111" stroke-width="1.52" stroke-linecap="round" stroke-linejoin="round"/>
<path d="M 5.0 19.0 L 5.29 18.88 L 5.58 18.75 L 5.88 18.62 L 6.17 18.5 L 6.46 18.38 L 6.75 18.25 L 7.04 18.12 L 7.33 18.0 L 7.62 17.88 L 7.92 17.75 L 8.21 17.62 L 8.5 17.5 L 8.79 17.38 L 9.08 17.25 L 9.38 17.12 L 9.67 17.0 L 9.96 16.88 L 10.25 16.75 L 10.54 16.62 L 10.83 16.5 L 11.12 16.38 L 11.42 16.25 L 11.71 16.12 L 12.0 16.0" fill="none" stroke="#111" stroke-width="1.52" stroke-linecap="round" stroke-linejoin="round"/>
<path d="M 12.0 16.0 L 12.05 16.48 L 12.06 16.96 L 12.03 17.44 L 11.95 17.91 L 11.83 18.38 L 11.67 18.83 L 11.47 19.27 L 11.23 19.69 L 10.95 20.08 L 10.64 20.45 L 10.3 20.78 L 9.93 21.09 L 9.53 21.36 L 9.11 21.59 L 8.67 21.79 L 8.22 21.94 L 7.75 22.06 L 7.27 22.13 L 6.79 22.16 L 6.31 22.14 L 5.83 22.08 L 5.36 21.98 L 4.91 21.84 L 4.46 21.65" fill="none" stroke="#111" stroke-width="1.52" stroke-linecap="round" stroke-linejoin="round"/>
<path d="M 5.0 19.0 L 5.04 19.17 L 5.08 19.33 L 5.12 19.5 L 5.17 19.67 L 5.21 19.83 L 5.25 20.0 L 5.29 20.17 L 5.33 20.33 L 5.38 20.5 L 5.42 20.67 L 5.46 20.83 L 5.5 21.0 L 5.54 21.17 L 5.58 21.33 L 5.62 21.5 L 5.67 21.67 L 5.71 21.83 L 5.75 22.0 L 5.79 22.17 L 5.83 22.33 L 5.88 22.5 L 5.92 22.67 L 5.96 22.83 L 6.0 23.0" fill="none" stroke="#111" stroke-width="1.52" stroke-linecap="round" stroke-linejoin="round"/>
</svg>
