<?xml version="1.0" encoding="UTF-8"?>
<svg xmlns="http://www.w3.org/2000/svg" viewBox="0 0 29.26 33.43">
<path d="M 8.0 4.0 L 8.28 4.49 L 8.52 4.99 L 8.73 5.51 L 8.91 6.05 L 9.05 6.59 L 9.15 7.14 L 9.22 7.7 L 9.25 8.26 L 9.24 8.82 L 9.19 9.38 L 9.11 9.94 L 8.99 10.49 L 8.84 11.03 L 8.65 11.55 L 8.43 12.07 L 8.17 12.57 L 7.88 13.05 L 7.56 13.51 L 7.21 13.95 L 6.83 14.36 L 6.42 14.75 L 5.99 15.11 L 5.54 15.44 L 5.06 15.74" fill="none" stroke="#111" stroke-width="1.17" stroke-linecap="round" stroke-linejoin="round"/>
<path d="M 4.0 24.0 L 4.28 23.2 L 4.67 22.44 L 5.18 21.76 L 5.79 21.17 L 6.48 20.67 L 7.24 20.29 L 8.05 20.03 L 8.89 19.9 L 9.74 19.9 L 10.58 20.03 L 11.39 20.28 L 12.15 20.66 L 12.85 21.16 L 13.46 21.75 L 13.97 22.43 L 14.37 23.18 L 14.65 23.99 L 14.8 24.82 L 14.82 25.67 L 14.71 26.52 L 14.47 27.33 L 14.11 28.1 L 13.63 28.81 L 13.05 29.43" fill="none" stroke="#111" stroke-width="1.17" stroke-linecap="round" stroke-linejoin="round"/>
<path d="M 12.0 5.0 L 11.96 5.21 L 11.92 5.42 L 11.88 5.62 L 11.83 5.83 L 11.79 6.04 L 11.75 6.25 L 11.71 6.46 L 11.67 6.67 L 11.62 6.88 L 11.58 7.08 L 11.54 7.29 L 11.5 7.5 L 11.46 7.71 L 11.42 7.92 L 11.38 8.12 L 11.33 8.33 L 11.29 8.54 L 11.25 8.75 L 11.21 8.96 L 11.17 9.17 L 11.12 9.38 L 11.08 9.58 L 11.04 9.79 L 11.0 10.0 L 11.0 10.0 L 11.16 10.44 L 11.3 10.89 L 11.42 11.34 L 11.53 11.79 L 11.62 12.25 L 11.69 12.72 L 11.75 13.18 L 11.79 13.65 L 11.81 14.11 L 11.81 14.58 L 11.79 15.05 L 11.76 15.52 L 11.71 15.98 L 11.64 16.45 L 11.55 16.91 L 11.45 17.36 L 11.33 17.81 L 11.19 18.26 L 11.04 18.7 L 10.86 19.14 L 10.68 19.57 L 10.47 19.99 L 10.25 20.4 L 10.02 20.81" fill="none" stroke="#111" stroke-width="1.17" stroke-linecap="round" stroke-linejoin="round"/>
<path d="M 14.0 7.0 L 13.92 7.71 L 13.83 8.43 L 13.75 9.14 L 13.66 9.85 L 13.58 10.57 L 13.5 11.28 L 13.41 12.0 L 13.33 12.71 L 13.24 13.42 L 13.16 14.14 L 13.08 14.85 L 12.99 15.56 L 12.91 16.28 L 12.82 16.99 L 12.74 17.71 L 12.66 18.42 L 12.57 19.13 L 12.49 19.85 L 12.4 20.56 L 12.32 21.27 L 12.24 21.99 L 12.15 22.7 L 12.07 23.41 L 11.98 24.13" fill="none" stroke="#111" stroke-width="1.17" stroke-linecap="round" stroke-linejoin="round"/>
<path d="M 16.0 8.0 L 15.78 8.55 L 15.57 9.1 L 15.38 9.66 L 15.21 10.23 L 15.06 10.8 L 14.93 11.38 L 14.83 11.96 L 14.74 12.55 L 14.67 13.14 L 14.62 13.73 L 14.59 14.32 L 14.58 14.91 L 14.59 15.5 L 14.62 16.09 L 14.67 16.68 L 14.74 17.27 L 14.83 17.86 L 14.93 18.44 L 15.06 19.01 L 15.21 19.59 L 15.38 20.16 L 15.57 20.72 L 15.78 21.27 L 16.0 21.82" fill="none" stroke="#111" stroke-width="1.17" stroke-linecap="round" stroke-linejoin="round"/>
<path d="M 19.0 5.0 L 18.75 5.5 L 18.54 6.01 L 18.36 6.53 L 18.21 7.06 L 18.09 7.6 L 18.0 8.15 L 17.95 8.7 L 17.94 9.26 L 17.95 9.81 L 18.0 10.36 L 18.09 10.91 L 18.21 11.45 L 18.36 11.98 L 18.54 12.51 L 18.75 13.02 L 19.0 13.51 L 19.28 13.99 L 19.58 14.46 L 19.91 14.9 L 20.27 15.32 L 20.65 15.72 L 21.06 16.09 L 21.49 16.44 L 21.94 16.77" fill="none" stroke="#111" stroke-width="1.17" stroke-linecap="round" stroke-linejoin="round"/>
<path d="M 19.0 26.0 L 18.47 25.59 L 18.0 25.11 L 17.6 24.57 L 17.3 23.97 L 17.08 23.34 L 16.96 22.68 L 16.94 22.0 L 17.02 21.34 L 17.2 20.69 L 17.47 20.08 L 17.82 19.51 L 18.26 19.0 L 18.77 18.56 L 19.34 18.2 L 19.95 17.93 L 20.6 17.76 L 21.27 17.68 L 21.94 17.7 L 22.6 17.82 L 23.23 18.03 L 23.83 18.34 L 24.38 18.73 L 24.86 19.2 L 25.26 19.74" fill="none" stroke="#111" stroke-width="1.17" stroke-linecap="round" stroke-linejoin="round"/>
</svg>
