<?xml version="1.0" encoding="UTF-8"?>
<svg xmlns="http://www.w3.org/2000/svg" viewBox="0 0 23.00 39.63">
<path d="M 4.0 7.63 L 4.0 8.04 L 4.0 8.46 L 4.0 8.88 L 4.0 9.29 L 4.0 9.71 L 4.0 10.13 L 4.0 10.54 L 4.0 10.96 L 4.0 11.38 L 4.0 11.79 L 4.0 12.21 L 4.0 12.63 L 4.0 13.04 L 4.0 13.46 L 4.0 13.88 L 4.0 14.29 L 4.0 14.71 L 4.0 15.13 L 4.0 15.54 L 4.0 15.96 L 4.0 16.38 L 4.0 16.79 L 4.0 17.21 L 4.0 17.63" fill="none" stroke="#111" stroke-width="1.39" stroke-linecap="round" stroke-linejoin="round"/>
<path d="M 4.0 7.63 L 4.44 7.05 L 4.94 6.51 L 5.47 6.02 L 6.05 5.57 L 6.66 5.18 L 7.3 4.83 L 7.97 4.55 L 8.67 4.32 L 9.37 4.15 L 10.1 4.04 L 10.82 4.0 L 11.55 4.02 L 12.28 4.1 L 12.99 4.24 L 13.69 4.44 L 14.37 4.7 L 15.03 5.02 L 15.65 5.39 L 16.25 5.81 L 16.8 6.29 L 17.31 6.81 L 17.78 7.37 L 18.19 7.97 L 18.56 8.6" fill="none" stroke="#111" stroke-width="1.39" stroke-linecap="round" stroke-linejoin="round"/>
<path d="M 19.0 8.63 L 19.0 8.96 L 19.0 9.29 L 19.0 9.63 L 19.0 9.96 L 19.0 10.29 L 19.0 10.63 L 19.0 10.96 L 19.0 11.29 L 19.0 11.63 L 19.0 11.96 L 19.0 12.29 L 19.0 12.63 L 19.0 12.96 L 19.0 13.29 L 19.0 13.63 L 19.0 13.96 L 19.0 14.29 L 19.0 14.63 L 19.0 14.96 L 19.0 15.29 L 19.0 15.63 L 19.0 15.96 L 19.0 16.29 L 19.0 16.63" fill="none" stroke="#111" stroke-width="1.39" stroke-linecap="round" stroke-linejoin="round"/>
<path d="M 8.0 9.63 L 8.12 9.88 L 8.25 10.13 L 8.38 10.38 L 8.5 10.63 L 8.62 10.88 L 8.75 11.13 L 8.88 11.38 L 9.0 11.63 L 9.12 11.88 L 9.25 12.13 L 9.38 12.38 L 9.5 12.63 L 9.62 12.88 L 9.75 13.13 L 9.88 13.38 L 10.0 13.63 L 10.12 13.88 L 10.25 14.13 L 10.38 14.38 L 10.5 14.63 L 10.62 14.88 L 10.75 15.13 L 10.88 15.38 L 11.0 15.63" fill="none" stroke="#111" stroke-width="1.39" stroke-linecap="round" stroke-linejoin="round"/>
<path d="M 8.0 9.63 L 7.76 9.89 L 7.55 10.18 L 7.37 10.49 L 7.22 10.82 L 7.11 11.16 L 7.03 11.51 L 7.0 11.86 L 6.99 12.22 L 7.03 12.58 L 7.1 12.93 L 7.21 13.27 L 7.35 13.6 L 7.53 13.91 L 7.74 14.2 L 7.97 14.47 L 8.24 14.71 L 8.53 14.92 L 8.83 15.11 L 9.16 15.26 L 9.5 15.37 L 9.85 15.45 L 10.2 15.49 L 10.56 15.5 L 10.92 15.46" fill="none" stroke="#111" stroke-width="1.39" stroke-linecap="round" stroke-linejoin="round"/>
<path d="M 7.0 16.63 L 7.33 16.59 L 7.67 16.54 L 8.0 16.5 L 8.33 16.46 L 8.67 16.42 L 9.0 16.38 L 9.33 16.34 L 9.67 16.29 L 10.0 16.25 L 10.33 16.21 L 10.67 16.17 L 11.0 16.13 L 11.33 16.09 L 11.67 16.04 L 12.0 16.0 L 12.33 15.96 L 12.67 15.92 L 13.0 15.88 L 13.33 15.84 L 13.67 15.79 L 14.0 15.75 L 14.33 15.71 L 14.67 15.67 L 15.0 15.63" fill="none" stroke="#111" stroke-width="1.39" stroke-linecap="round" stroke-linejoin="round"/>
<path d="M 11.0 7.63 L 10.96 7.84 L 10.92 8.04 L 10.88 8.25 L 10.83 8.46 L 10.79 8.67 L 10.75 8.88 L 10.71 9.09 L 10.67 9.29 L 10.62 9.5 L 10.58 9.71 L 10.54 9.92 L 10.5 10.13 L 10.46 10.34 L 10.42 10.54 L 10.38 10.75 L 10.33 10.96 L 10.29 11.17 L 10.25 11.38 L 10.21 11.59 L 10.17 11.79 L 10.12 12.0 L 10.08 12.21 L 10.04 12.42 L 10.0 12.63" fill="none" stroke="#111" stroke-width="1.39" stroke-linecap="round" stroke-linejoin="round"/>
<path d="M 11.0 7.63 L 11.25 7.96 L 11.5 8.29 L 11.75 8.63 L 12.0 8.96 L 12.25 9.29 L 12.5 9.63 L 12.75 9.96 L 13.0 10.29 L 13.25 10.63 L 13.5 10.96 L 13.75 11.29 L 14.0 11.63 L 14.25 11.96 L 14.5 12.29 L 14.75 12.63 L 15.0 12.96 L 15.25 13.29 L 15.5 13.63 L 15.75 13.96 L 16.0 14.29 L 16.25 14.63 L 16.5 14.96 L 16.75 15.29 L 17.0 15.63" fill="none" stroke="#111" stroke-width="1.39" stroke-linecap="round" stroke-linejoin="round"/>
<path d="M 12.0 9.63 L 12.17 9.63 L 12.33 9.63 L 12.5 9.63 L 12.67 9.63 L 12.83 9.63 L 13.0 9.63 L 13.17 9.63 L 13.33 9.63 L 13.5 9.63 L 13.67 9.63 L 13.83 9.63 L 14.0 9.63 L 14.17 9.63 L 14.33 9.63 L 14.5 9.63 L 14.67 9.63 L 14.83 9.63 L 15.0 9.63 L 15.17 9.63 L 15.33 9.63 L 15.5 9.63 L 15.67 9.63 L 15.83 9.63 L 16.0 9.63 L 16.0 9.63 L 15.83 9.88 L 15.67 10.13 L 15.5 10.38 L 15.33 10.63 L 15.17 10.88 L 15.0 11.13 L 14.83 11.38 L 14.67 11.63 L 14.5 11.88 L 14.33 12.13 L 14.17 12.38 L 14.0 12.63 L 13.83 12.88 L 13.67 13.13 L 13.5 13.38 L 13.33 13.63 L 13.17 13.88 L 13.0 14.13 L 12.83 14.38 L 12.67 14.63 L 12.5 14.88 L 12.33 15.13 L 12.17 15.38 L 12.0 15.63" fill="none" stroke="#111" stroke-width="1.39" stroke-linecap="round" stroke-linejoin="round"/>
<path d="M 11.0 15.63 L 11.0 16.46 L 11.0 17.29 L 11.0 18.13 L 11.0 18.96 L 11.0 19.79 L 11.0 20.63 L 11.0 21.46 L 11.0 22.29 L 11.0 23.13 L 11.0 23.96 L 11.0 24.79 L 11.0 25.63 L 11.0 26.46 L 11.0 27.29 L 11.0 28.13 L 11.0 28.96 L 11.0 29.79 L 11.0 30.63 L 11.0 31.46 L 11.0 32.29 L 11.0 33.13 L 11.0 33.96 L 11.0 34.79 L 11.0 35.63" fill="none" stroke="#111" stroke-width="1.39" stroke-linecap="round" stroke-linejoin="round"/>
<path d="M 14.0 22.63 L 14.21 22.96 L 14.39 23.31 L 14.55 23.67 L 14.67 24.05 L 14.76 24.43 L 14.83 24.82 L 14.86 25.21 L 14.86 25.6 L 14.83 25.99 L 14.77 26.38 L 14.67 26.77 L 14.55 27.14 L 14.4 27.5 L 14.22 27.85 L 14.01 28.18 L 13.77 28.5 L 13.51 28.8 L 13.23 29.07 L 12.93 29.32 L 12.61 29.55 L 12.27 29.75 L 11.91 29.92 L 11.55 30.06 L 11.17 30.18" fill="none" stroke="#111" stroke-width="1.39" stroke-linecap="round" stroke-linejoin="round"/>
<path d="M 11.0 24.63 L 11.33 24.96 L 11.67 25.29 L 12.0 25.63 L 12.33 25.96 L 12.67 26.29 L 13.0 26.63 L 13.33 26.96 L 13.67 27.29 L 14.0 27.63 L 14.33 27.96 L 14.67 28.29 L 15.0 28.63 L 15.33 28.96 L 15.67 29.29 L 16.0 29.63 L 16.33 29.96 L 16.67 30.29 L 17.0 30.63 L 17.33 30.96 L 17.67 31.29 L 18.0 31.63 L 18.33 31.96 L 18.67 32.29 L 19.0 32.63" fill="none" stroke="#111" stroke-width="1.39" stroke-linecap="round" stroke-linejoin="round"/>
</svg>
