<?xml version="1.0" encoding="UTF-8"?>
<svg xmlns="http://www.w3.org/2000/svg" viewBox="0 0 25.79 29.00">
<path d="M 13.0 4.0 L 12.05 4.38 L 11.13 4.84 L 10.25 5.36 L 9.41 5.94 L 8.61 6.59 L 7.87 7.29 L 7.18 8.05 L 6.55 8.86 L 5.99 9.72 L 5.49 10.61 L 5.06 11.54 L 4.7 12.5 L 4.41 13.48 L 4.2 14.49 L 4.06 15.5 L 4.0 16.53 L 4.02 17.55 L 4.11 18.57 L 4.28 19.58 L 4.53 20.58 L 4.85 21.55 L 5.25 22.5 L 5.71 23.41 L 6.24 24.29" fill="none" stroke="#111" stroke-width="1.02" stroke-linecap="round" stroke-linejoin="round"/>
<path d="M 13.0 4.0 L 13.86 4.51 L 14.68 5.07 L 15.48 5.68 L 16.23 6.33 L 16.95 7.03 L 17.62 7.76 L 18.25 8.53 L 18.83 9.34 L 19.37 10.18 L 19.85 11.05 L 20.29 11.95 L 20.67 12.87 L 21.0 13.81 L 21.27 14.77 L 21.49 15.75 L 21.65 16.73 L 21.75 17.72 L 21.79 18.72 L 21.78 19.72 L 21.71 20.71 L 21.58 21.7 L 21.39 22.68 L 21.15 23.65 L 20.85 24.6" fill="none" stroke="#111" stroke-width="1.02" stroke-linecap="round" stroke-linejoin="round"/>
<path d="M 9.0 10.0 L 9.0 10.58 L 9.0 11.17 L 9.0 11.75 L 9.0 12.33 L 9.0 12.92 L 9.0 13.5 L 9.0 14.08 L 9.0 14.67 L 9.0 15.25 L 9.0 15.83 L 9.0 16.42 L 9.0 17.0 L 9.0 17.58 L 9.0 18.17 L 9.0 18.75 L 9.0 19.33 L 9.0 19.92 L 9.0 20.5 L 9.0 21.08 L 9.0 21.67 L 9.0 22.25 L 9.0 22.83 L 9.0 23.42 L 9.0 24.0" fill="none" stroke="#111" stroke-width="1.02" stroke-linecap="round" stroke-linejoin="round"/>
<path d="M 9.0 10.0 L 9.25 10.04 L 9.5 10.08 L 9.75 10.12 L 10.0 10.17 L 10.25 10.21 L 10.5 10.25 L 10.75 10.29 L 11.0 10.33 L 11.25 10.38 L 11.5 10.42 L 11.75 10.46 L 12.0 10.5 L 12.25 10.54 L 12.5 10.58 L 12.75 10.62 L 13.0 10.67 L 13.25 10.71 L 13.5 10.75 L 13.75 10.79 L 14.0 10.83 L 14.25 10.88 L 14.5 10.92 L 14.75 10.96 L 15.0 11.0" fill="none" stroke="#111" stroke-width="1.02" stroke-linecap="round" stroke-linejoin="round"/>
<path d="M 15.0 11.0 L 14.96 11.58 L 14.92 12.17 L 14.88 12.75 L 14.84 13.33 L 14.79 13.92 L 14.75 14.5 L 14.71 15.08 L 14.67 15.67 L 14.63 16.25 L 14.59 16.83 L 14.54 17.42 L 14.5 18.0 L 14.46 18.58 L 14.42 19.17 L 14.38 19.75 L 14.34 20.33 L 14.29 20.92 L 14.25 21.5 L 14.21 22.08 L 14.17 22.67 L 14.13 23.25 L 14.09 23.83 L 14.04 24.42 L 14.0 25.0" fill="none" stroke="#111" stroke-width="1.02" stroke-linecap="round" stroke-linejoin="round"/>
<path d="M 9.0 24.0 L 9.21 24.04 L 9.42 24.08 L 9.63 24.12 L 9.84 24.17 L 10.04 24.21 L 10.25 24.25 L 10.46 24.29 L 10.67 24.33 L 10.88 24.38 L 11.09 24.42 L 11.29 24.46 L 11.5 24.5 L 11.71 24.54 L 11.92 24.58 L 12.13 24.62 L 12.34 24.67 L 12.54 24.71 L 12.75 24.75 L 12.96 24.79 L 13.17 24.83 L 13.38 24.88 L 13.59 24.92 L 13.79 24.96 L 14.0 25.0" fill="none" stroke="#111" stroke-width="1.02" stroke-linecap="round" stroke-linejoin="round"/>
<path d="M 12.0 13.0 L 12.1 13.26 L 12.18 13.52 L 12.23 13.79 L 12.27 14.06 L 12.28 14.34 L 12.27 14.61 L 12.24 14.89 L 12.19 15.16 L 12.12 15.42 L 12.03 15.68 L 11.92 15.93 L 11.78 16.17 L 11.63 16.4 L 11.46 16.62 L 11.28 16.83 L 11.08 17.01 L 10.86 17.19 L 10.64 17.34 L 10.4 17.48 L 10.15 17.6 L 9.89 17.69 L 9.63 17.77 L 9.36 17.83 L 9.09 17.86" fill="none" stroke="#111" stroke-width="1.02" stroke-linecap="round" stroke-linejoin="round"/>
<path d="M 12.0 16.0 L 12.09 16.04 L 12.17 16.08 L 12.25 16.12 L 12.34 16.17 L 12.42 16.21 L 12.5 16.25 L 12.59 16.29 L 12.67 16.33 L 12.75 16.38 L 12.84 16.42 L 12.92 16.46 L 13.0 16.5 L 13.09 16.54 L 13.17 16.58 L 13.25 16.62 L 13.34 16.67 L 13.42 16.71 L 13.5 16.75 L 13.59 16.79 L 13.67 16.83 L 13.75 16.88 L 13.84 16.92 L 13.92 16.96 L 14.0 17.0" fill="none" stroke="#111" stroke-width="1.02" stroke-linecap="round" stroke-linejoin="round"/>
<path d="M 11.0 18.0 L 11.04 18.12 L 11.09 18.25 L 11.13 18.38 L 11.17 18.5 L 11.21 18.62 L 11.25 18.75 L 11.29 18.88 L 11.34 19.0 L 11.38 19.12 L 11.42 19.25 L 11.46 19.38 L 11.5 19.5 L 11.54 19.62 L 11.59 19.75 L 11.63 19.88 L 11.67 20.0 L 11.71 20.12 L 11.75 20.25 L 11.79 20.38 L 11.84 20.5 L 11.88 20.62 L 11.92 20.75 L 11.96 20.88 L 12.0 21.0 L 12.0 21.0 L 11.84 21.04 L 11.67 21.08 L 11.5 21.12 L 11.34 21.17 L 11.17 21.21 L 11.0 21.25 L 10.84 21.29 L 10.67 21.33 L 10.5 21.38 L 10.34 21.42 L 10.17 21.46 L 10.0 21.5 L 9.84 21.54 L 9.67 21.58 L 9.5 21.62 L 9.34 21.67 L 9.17 21.71 L 9.0 21.75 L 8.84 21.79 L 8.67 21.83 L 8.5 21.88 L 8.34 21.92 L 8.17 21.96 L 8.0 22.0" fill="none" stroke="#111" stroke-width="1.02" stroke-linecap="round" stroke-linejoin="round"/>
<path d="M 12.0 21.0 L 12.09 21.04 L 12.17 21.08 L 12.25 21.12 L 12.34 21.17 L 12.42 21.21 L 12.5 21.25 L 12.59 21.29 L 12.67 21.33 L 12.75 21.38 L 12.84 21.42 L 12.92 21.46 L 13.0 21.5 L 13.09 21.54 L 13.17 21.58 L 13.25 21.62 L 13.34 21.67 L 13.42 21.71 L 13.5 21.75 L 13.59 21.79 L 13.67 21.83 L 13.75 21.88 L 13.84 21.92 L 13.92 21.96 L 14.0 22.0" fill="none" stroke="#111" stroke-width="1.02" stroke-linecap="round" stroke-linejoin="round"/>
<path d="M 18.0 11.0 L 17.7 11.52 L 17.41 12.05 L 17.14 12.59 L 16.9 13.14 L 16.68 13.7 L 16.48 14.27 L 16.31 14.84 L 16.16 15.42 L 16.03 16.01 L 15.93 16.6 L 15.85 17.2 L 15.8 17.8 L 15.76 18.4 L 15.76 19.0 L 15.78 19.6 L 15.82 20.2 L 15.88 20.8 L 15.98 21.4 L 16.09 21.99 L 16.23 22.57 L 16.39 23.15 L 16.58 23.73 L 16.78 24.29 L 17.01 24.85" fill="none" stroke="#111" stroke-width="1.02" stroke-linecap="round" stroke-linejoin="round"/>
<path d="M 17.0 13.0 L 17.09 13.12 L 17.17 13.25 L 17.25 13.38 L 17.34 13.5 L 17.42 13.62 L 17.5 13.75 L 17.59 13.88 L 17.67 14.0 L 17.75 14.12 L 17.84 14.25 L 17.92 14.38 L 18.0 14.5 L 18.09 14.62 L 18.17 14.75 L 18.25 14.88 L 18.34 15.0 L 18.42 15.12 L 18.5 15.25 L 18.59 15.38 L 18.67 15.5 L 18.75 15.62 L 18.84 15.75 L 18.92 15.88 L 19.0 16.0" fill="none" stroke="#111" stroke-width="1.02" stroke-linecap="round" stroke-linejoin="round"/>
</svg>
