<?xml version="1.0" encoding="UTF-8"?>
<svg xmlns="http://www.w3.org/2000/svg" viewBox="0 0 25.23 35.59">
<path d="M 8.94 7.0 L 9.71 7.8 L 10.44 8.63 L 11.13 9.5 L 11.78 10.4 L 12.39 11.32 L 12.96 12.28 L 13.48 13.26 L 13.96 14.26 L 14.39 15.28 L 14.77 16.32 L 15.1 17.38 L 15.39 18.45 L 15.62 19.54 L 15.8 20.63 L 15.94 21.74 L 16.02 22.84 L 16.05 23.95 L 16.03 25.06 L 15.96 26.17 L 15.83 27.27 L 15.66 28.37 L 15.44 29.45 L 15.16 30.53 L 14.84 31.59" fill="none" stroke="#111" stroke-width="1.25" stroke-linecap="round" stroke-linejoin="round"/>
<path d="M 8.94 7.0 L 8.9 7.21 L 8.85 7.42 L 8.81 7.62 L 8.77 7.83 L 8.73 8.04 L 8.69 8.25 L 8.65 8.46 L 8.6 8.67 L 8.56 8.88 L 8.52 9.08 L 8.48 9.29 L 8.44 9.5 L 8.4 9.71 L 8.35 9.92 L 8.31 10.12 L 8.27 10.33 L 8.23 10.54 L 8.19 10.75 L 8.15 10.96 L 8.1 11.17 L 8.06 11.38 L 8.02 11.58 L 7.98 11.79 L 7.94 12.0" fill="none" stroke="#111" stroke-width="1.25" stroke-linecap="round" stroke-linejoin="round"/>
<path d="M 13.94 18.0 L 13.81 17.92 L 13.69 17.83 L 13.56 17.75 L 13.44 17.67 L 13.31 17.58 L 13.19 17.5 L 13.06 17.42 L 12.94 17.33 L 12.81 17.25 L 12.69 17.17 L 12.56 17.08 L 12.44 17.0 L 12.31 16.92 L 12.19 16.83 L 12.06 16.75 L 11.94 16.67 L 11.81 16.58 L 11.69 16.5 L 11.56 16.42 L 11.44 16.33 L 11.31 16.25 L 11.19 16.17 L 11.06 16.08 L 10.94 16.0" fill="none" stroke="#111" stroke-width="1.25" stroke-linecap="round" stroke-linejoin="round"/>
<path d="M 17.94 8.0 L 17.77 8.25 L 17.6 8.5 L 17.44 8.75 L 17.27 9.0 L 17.1 9.25 L 16.94 9.5 L 16.77 9.75 L 16.6 10.0 L 16.44 10.25 L 16.27 10.5 L 16.1 10.75 L 15.94 11.0 L 15.77 11.25 L 15.6 11.5 L 15.44 11.75 L 15.27 12.0 L 15.1 12.25 L 14.94 12.5 L 14.77 12.75 L 14.6 13.0 L 14.44 13.25 L 14.27 13.5 L 14.1 13.75 L 13.94 14.0" fill="none" stroke="#111" stroke-width="1.25" stroke-linecap="round" stroke-linejoin="round"/>
<path d="M 13.94 24.0 L 13.73 24.25 L 13.52 24.5 L 13.31 24.75 L 13.1 25.0 L 12.9 25.25 L 12.69 25.5 L 12.48 25.75 L 12.27 26.0 L 12.06 26.25 L 11.85 26.5 L 11.65 26.75 L 11.44 27.0 L 11.23 27.25 L 11.02 27.5 L 10.81 27.75 L 10.6 28.0 L 10.4 28.25 L 10.19 28.5 L 9.98 28.75 L 9.77 29.0 L 9.56 29.25 L 9.35 29.5 L 9.15 29.75 L 8.94 30.0" fill="none" stroke="#111" stroke-width="1.25" stroke-linecap="round" stroke-linejoin="round"/>
<path d="M 13.94 24.0 L 14.19 24.17 L 14.44 24.33 L 14.69 24.5 L 14.94 24.67 L 15.19 24.83 L 15.44 25.0 L 15.69 25.17 L 15.94 25.33 L 16.19 25.5 L 16.44 25.67 L 16.69 25.83 L 16.94 26.0 L 17.19 26.17 L 17.44 26.33 L 17.69 26.5 L 17.94 26.67 L 18.19 26.83 L 18.44 27.0 L 18.69 27.17 L 18.94 27.33 L 19.19 27.5 L 19.44 27.67 L 19.69 27.83 L 19.94 28.0" fill="none" stroke="#111" stroke-width="1.25" stroke-linecap="round" stroke-linejoin="round"/>
<path d="M 4.94 6.0 L 4.76 6.22 L 4.6 6.45 L 4.46 6.7 L 4.33 6.95 L 4.23 7.21 L 4.14 7.48 L 4.08 7.75 L 4.03 8.03 L 4.01 8.31 L 4.0 8.59 L 4.02 8.87 L 4.05 9.15 L 4.11 9.43 L 4.18 9.7 L 4.28 9.97 L 4.4 10.22 L 4.53 10.47 L 4.68 10.71 L 4.85 10.94 L 5.03 11.15 L 5.23 11.35 L 5.45 11.53 L 5.67 11.7 L 5.91 11.85 L 5.94 12.0 L 5.97 11.75 L 6.0 11.49 L 6.03 11.24 L 6.04 10.98 L 6.05 10.72 L 6.05 10.47 L 6.05 10.21 L 6.04 9.95 L 6.02 9.7 L 5.99 9.44 L 5.96 9.19 L 5.92 8.93 L 5.88 8.68 L 5.83 8.43 L 5.77 8.18 L 5.7 7.93 L 5.63 7.68 L 5.55 7.44 L 5.46 7.2 L 5.37 6.96 L 5.27 6.72 L 5.17 6.49 L 5.06 6.25 L 4.94 6.03" fill="none" stroke="#111" stroke-width="1.25" stroke-linecap="round" stroke-linejoin="round"/>
<path d="M 9.94 4.0 L 9.75 4.18 L 9.59 4.38 L 9.46 4.61 L 9.38 4.85 L 9.34 5.11 L 9.35 5.37 L 9.39 5.63 L 9.48 5.87 L 9.61 6.1 L 9.77 6.3 L 9.97 6.47 L 10.19 6.6 L 10.43 6.7 L 10.69 6.75 L 10.94 6.76 L 11.2 6.73 L 11.45 6.66 L 11.68 6.54 L 11.89 6.39 L 12.07 6.2 L 12.22 5.99 L 12.33 5.75 L 12.4 5.5 L 12.42 5.24 L 11.94 5.0 L 11.85 4.96 L 11.77 4.92 L 11.69 4.88 L 11.6 4.83 L 11.52 4.79 L 11.44 4.75 L 11.35 4.71 L 11.27 4.67 L 11.19 4.62 L 11.1 4.58 L 11.02 4.54 L 10.94 4.5 L 10.85 4.46 L 10.77 4.42 L 10.69 4.38 L 10.6 4.33 L 10.52 4.29 L 10.44 4.25 L 10.35 4.21 L 10.27 4.17 L 10.19 4.12 L 10.1 4.08 L 10.02 4.04 L 9.94 4.0" fill="none" stroke="#111" stroke-width="1.25" stroke-linecap="round" stroke-linejoin="round"/>
<path d="M 8.94 18.0 L 8.44 18.31 L 8.03 18.72 L 7.72 19.22 L 7.53 19.77 L 7.46 20.35 L 7.53 20.93 L 7.72 21.48 L 8.03 21.98 L 8.44 22.39 L 8.94 22.7 L 9.49 22.89 L 10.07 22.96 L 10.65 22.89 L 11.2 22.7 L 11.7 22.39 L 12.11 21.98 L 12.42 21.48 L 12.61 20.93 L 12.68 20.35 L 12.61 19.77 L 12.42 19.22 L 12.11 18.72 L 11.7 18.31 L 11.2 18.0" fill="none" stroke="#111" stroke-width="1.25" stroke-linecap="round" stroke-linejoin="round"/>
<path d="M 17.94 13.0 L 17.48 13.15 L 17.05 13.38 L 16.67 13.68 L 16.35 14.05 L 16.09 14.46 L 15.92 14.92 L 15.83 15.4 L 15.82 15.88 L 15.9 16.36 L 16.06 16.82 L 16.3 17.24 L 16.62 17.61 L 16.99 17.93 L 17.41 18.17 L 17.87 18.33 L 18.35 18.41 L 18.84 18.4 L 19.31 18.31 L 19.77 18.14 L 20.18 17.88 L 20.55 17.56 L 20.85 17.18 L 21.08 16.75 L 21.23 16.29 L 19.94 15.0 L 19.85 14.92 L 19.77 14.83 L 19.69 14.75 L 19.6 14.67 L 19.52 14.58 L 19.44 14.5 L 19.35 14.42 L 19.27 14.33 L 19.19 14.25 L 19.1 14.17 L 19.02 14.08 L 18.94 14.0 L 18.85 13.92 L 18.77 13.83 L 18.69 13.75 L 18.6 13.67 L 18.52 13.58 L 18.44 13.5 L 18.35 13.42 L 18.27 13.33 L 18.19 13.25 L 18.1 13.17 L 18.02 13.08 L 17.94 13.0" fill="none" stroke="#111" stroke-width="1.25" stroke-linecap="round" stroke-linejoin="round"/>
</svg>
