<?xml version="1.0" encoding="UTF-8"?>
<svg xmlns="http://www.w3.org/2000/svg" viewBox="0 0 23.36 28.00">
<path d="M 5.99 5.0 L 6.4 4.96 L 6.82 4.92 L 7.24 4.88 L 7.65 4.83 L 8.07 4.79 L 8.49 4.75 L 8.9 4.71 L 9.32 4.67 L 9.74 4.62 L 10.15 4.58 L 10.57 4.54 L 10.99 4.5 L 11.4 4.46 L 11.82 4.42 L 12.24 4.38 L 12.65 4.33 L 13.07 4.29 L 13.49 4.25 L 13.9 4.21 L 14.32 4.17 L 14.74 4.12 L 15.15 4.08 L 15.57 4.04 L 15.99 4.0 L 15.99 4.0 L 16.51 4.66 L 16.99 5.35 L 17.43 6.07 L 17.83 6.81 L 18.18 7.58 L 18.49 8.36 L 18.76 9.16 L 18.97 9.97 L 19.14 10.8 L 19.26 11.63 L 19.34 12.47 L 19.36 13.31 L 19.34 14.15 L 19.26 14.99 L 19.14 15.82 L 18.97 16.65 L 18.76 17.46 L 18.49 18.26 L 18.18 19.05 L 17.83 19.81 L 17.43 20.55 L 16.99 21.27 L 16.51 21.96 L 15.99 22.62 L 15.99 23.0 L 15.61 23.04 L 15.24 23.08 L 14.86 23.12 L 14.49 23.17 L 14.11 23.21 L 13.74 23.25 L 13.36 23.29 L 12.99 23.33 L 12.61 23.38 L 12.24 23.42 L 11.86 23.46 L 11.49 23.5 L 11.11 23.54 L 10.74 23.58 L 10.36 23.62 L 9.99 23.67 L 9.61 23.71 L 9.24 23.75 L 8.86 23.79 L 8.49 23.83 L 8.11 23.88 L 7.74 23.92 L 7.36 23.96 L 6.99 24.0 L 6.99 24.0 L 6.56 23.3 L 6.17 22.58 L 5.81 21.84 L 5.47 21.09 L 5.17 20.33 L 4.91 19.55 L 4.68 18.77 L 4.48 17.97 L 4.31 17.17 L 4.18 16.36 L 4.09 15.54 L 4.03 14.73 L 4.0 13.91 L 4.01 13.09 L 4.05 12.27 L 4.13 11.45 L 4.25 10.64 L 4.4 9.83 L 4.58 9.03 L 4.8 8.24 L 5.05 7.46 L 5.33 6.69 L 5.65 5.94 L 6.0 5.19" fill="none" stroke="#111" stroke-width="0.98" stroke-linecap="round" stroke-linejoin="round"/>
<path d="M 8.99 5.0 L 8.95 5.62 L 8.9 6.25 L 8.86 6.88 L 8.82 7.5 L 8.78 8.12 L 8.74 8.75 L 8.7 9.38 L 8.65 10.0 L 8.61 10.62 L 8.57 11.25 L 8.53 11.88 L 8.49 12.5 L 8.45 13.12 L 8.4 13.75 L 8.36 14.37 L 8.32 15.0 L 8.28 15.62 L 8.24 16.25 L 8.2 16.88 L 8.15 17.5 L 8.11 18.12 L 8.07 18.75 L 8.03 19.38 L 7.99 20.0" fill="none" stroke="#111" stroke-width="0.98" stroke-linecap="round" stroke-linejoin="round"/>
<path d="M 9.99 5.0 L 10.07 5.25 L 10.15 5.5 L 10.24 5.75 L 10.32 6.0 L 10.4 6.25 L 10.49 6.5 L 10.57 6.75 L 10.65 7.0 L 10.74 7.25 L 10.82 7.5 L 10.9 7.75 L 10.99 8.0 L 11.07 8.25 L 11.15 8.5 L 11.24 8.75 L 11.32 9.0 L 11.4 9.25 L 11.49 9.5 L 11.57 9.75 L 11.65 10.0 L 11.74 10.25 L 11.82 10.5 L 11.9 10.75 L 11.99 11.0 L 11.99 11.0 L 11.83 11.4 L 11.69 11.8 L 11.56 12.2 L 11.44 12.61 L 11.34 13.02 L 11.25 13.44 L 11.17 13.85 L 11.11 14.27 L 11.06 14.7 L 11.03 15.12 L 11.01 15.54 L 11.0 15.97 L 11.01 16.39 L 11.03 16.82 L 11.06 17.24 L 11.11 17.66 L 11.17 18.08 L 11.25 18.5 L 11.34 18.92 L 11.44 19.33 L 11.56 19.74 L 11.69 20.14 L 11.83 20.54 L 11.99 20.94" fill="none" stroke="#111" stroke-width="0.98" stroke-linecap="round" stroke-linejoin="round"/>
<path d="M 12.99 5.0 L 13.31 5.42 L 13.61 5.85 L 13.89 6.31 L 14.14 6.78 L 14.36 7.26 L 14.55 7.75 L 14.72 8.25 L 14.85 8.77 L 14.96 9.28 L 15.03 9.81 L 15.08 10.34 L 15.1 10.87 L 15.08 11.4 L 15.03 11.92 L 14.96 12.45 L 14.85 12.97 L 14.72 13.48 L 14.55 13.98 L 14.36 14.48 L 14.14 14.96 L 13.89 15.43 L 13.61 15.88 L 13.31 16.32 L 12.99 16.73 L 12.99 17.0 L 13.11 17.17 L 13.24 17.33 L 13.36 17.5 L 13.49 17.67 L 13.61 17.83 L 13.74 18.0 L 13.86 18.17 L 13.99 18.33 L 14.11 18.5 L 14.24 18.67 L 14.36 18.83 L 14.49 19.0 L 14.61 19.17 L 14.74 19.33 L 14.86 19.5 L 14.99 19.67 L 15.11 19.83 L 15.24 20.0 L 15.36 20.17 L 15.49 20.33 L 15.61 20.5 L 15.74 20.67 L 15.86 20.83 L 15.99 21.0" fill="none" stroke="#111" stroke-width="0.98" stroke-linecap="round" stroke-linejoin="round"/>
</svg>
