<?xml version="1.0" encoding="UTF-8"?>
<svg xmlns="http://www.w3.org/2000/svg" viewBox="0 0 22.95 33.63">
<path d="M 11.95 4.0 L 12.24 4.88 L 12.54 5.75 L 12.83 6.62 L 13.12 7.5 L 13.41 8.38 L 13.7 9.25 L 13.99 10.12 L 14.29 11.0 L 14.58 11.88 L 14.87 12.75 L 15.16 13.62 L 15.45 14.5 L 15.74 15.37 L 16.04 16.25 L 16.33 17.12 L 16.62 18.0 L 16.91 18.88 L 17.2 19.75 L 17.49 20.62 L 17.79 21.5 L 18.08 22.38 L 18.37 23.25 L 18.66 24.12 L 18.95 25.0" fill="none" stroke="#111" stroke-width="1.18" stroke-linecap="round" stroke-linejoin="round"/>
<path d="M 11.95 4.0 L 11.87 4.96 L 11.79 5.92 L 11.7 6.88 L 11.62 7.83 L 11.54 8.79 L 11.45 9.75 L 11.37 10.71 L 11.29 11.67 L 11.2 12.62 L 11.12 13.58 L 11.04 14.54 L 10.95 15.5 L 10.87 16.46 L 10.79 17.42 L 10.7 18.38 L 10.62 19.33 L 10.54 20.29 L 10.45 21.25 L 10.37 22.21 L 10.29 23.17 L 10.2 24.12 L 10.12 25.08 L 10.04 26.04 L 9.95 27.0" fill="none" stroke="#111" stroke-width="1.18" stroke-linecap="round" stroke-linejoin="round"/>
<path d="M 15.95 15.0 L 15.06 15.05 L 14.18 15.16 L 13.31 15.34 L 12.45 15.58 L 11.61 15.88 L 10.8 16.25 L 10.01 16.67 L 9.26 17.15 L 8.55 17.68 L 7.88 18.26 L 7.25 18.89 L 6.66 19.56 L 6.13 20.28 L 5.66 21.03 L 5.24 21.82 L 4.88 22.63 L 4.57 23.47 L 4.33 24.33 L 4.16 25.2 L 4.05 26.08 L 4.0 26.97 L 4.02 27.86 L 4.1 28.75 L 4.25 29.63" fill="none" stroke="#111" stroke-width="1.18" stroke-linecap="round" stroke-linejoin="round"/>
</svg>
