<?xml version="1.0" encoding="UTF-8"?>
<svg xmlns="http://www.w3.org/2000/svg" viewBox="0 0 23.39 34.00">
<path d="M 5.0 7.0 L 4.96 7.25 L 4.92 7.5 L 4.88 7.75 L 4.83 8.0 L 4.79 8.25 L 4.75 8.5 L 4.71 8.75 L 4.67 9.0 L 4.62 9.25 L 4.58 9.5 L 4.54 9.75 L 4.5 10.0 L 4.46 10.25 L 4.42 10.5 L 4.38 10.75 L 4.33 11.0 L 4.29 11.25 L 4.25 11.5 L 4.21 11.75 L 4.17 12.0 L 4.12 12.25 L 4.08 12.5 L 4.04 12.75 L 4.0 13.0" fill="none" stroke="#111" stroke-width="1.19" stroke-linecap="round" stroke-linejoin="round"/>
<path d="M 5.0 16.0 L 5.0 16.21 L 5.0 16.42 L 5.0 16.62 L 5.0 16.83 L 5.0 17.04 L 5.0 17.25 L 5.0 17.46 L 5.0 17.67 L 5.0 17.88 L 5.0 18.08 L 5.0 18.29 L 5.0 18.5 L 5.0 18.71 L 5.0 18.92 L 5.0 19.12 L 5.0 19.33 L 5.0 19.54 L 5.0 19.75 L 5.0 19.96 L 5.0 20.17 L 5.0 20.38 L 5.0 20.58 L 5.0 20.79 L 5.0 21.0" fill="none" stroke="#111" stroke-width="1.19" stroke-linecap="round" stroke-linejoin="round"/>
<path d="M 9.0 6.0 L 8.96 6.83 L 8.92 7.67 L 8.88 8.5 L 8.83 9.33 L 8.79 10.17 L 8.75 11.0 L 8.71 11.83 L 8.67 12.67 L 8.62 13.5 L 8.58 14.33 L 8.54 15.17 L 8.5 16.0 L 8.46 16.83 L 8.42 17.67 L 8.38 18.5 L 8.33 19.33 L 8.29 20.17 L 8.25 21.0 L 8.21 21.83 L 8.17 22.67 L 8.13 23.5 L 8.08 24.33 L 8.04 25.17 L 8.0 26.0" fill="none" stroke="#111" stroke-width="1.19" stroke-linecap="round" stroke-linejoin="round"/>
<path d="M 9.0 13.0 L 9.25 13.25 L 9.5 13.5 L 9.75 13.75 L 10.0 14.0 L 10.25 14.25 L 10.5 14.5 L 10.75 14.75 L 11.0 15.0 L 11.25 15.25 L 11.5 15.5 L 11.75 15.75 L 12.0 16.0 L 12.25 16.25 L 12.5 16.5 L 12.75 16.75 L 13.0 17.0 L 13.25 17.25 L 13.5 17.5 L 13.75 17.75 L 14.0 18.0 L 14.25 18.25 L 14.5 18.5 L 14.75 18.75 L 15.0 19.0" fill="none" stroke="#111" stroke-width="1.19" stroke-linecap="round" stroke-linejoin="round"/>
<path d="M 13.0 4.0 L 12.81 4.62 L 12.66 5.24 L 12.55 5.88 L 12.48 6.52 L 12.45 7.16 L 12.46 7.81 L 12.51 8.45 L 12.61 9.09 L 12.74 9.72 L 12.91 10.34 L 13.13 10.95 L 13.38 11.55 L 13.67 12.12 L 13.99 12.68 L 14.35 13.22 L 14.74 13.73 L 15.17 14.21 L 15.62 14.67 L 16.11 15.1 L 16.62 15.49 L 17.15 15.86 L 17.71 16.18 L 18.28 16.47 L 18.87 16.73" fill="none" stroke="#111" stroke-width="1.19" stroke-linecap="round" stroke-linejoin="round"/>
<path d="M 13.0 30.0 L 12.47 29.56 L 12.01 29.06 L 11.63 28.5 L 11.32 27.89 L 11.1 27.24 L 10.97 26.57 L 10.93 25.89 L 10.98 25.21 L 11.13 24.54 L 11.36 23.9 L 11.69 23.3 L 12.09 22.74 L 12.56 22.25 L 13.09 21.83 L 13.68 21.48 L 14.31 21.21 L 14.97 21.04 L 15.65 20.95 L 16.33 20.96 L 17.01 21.06 L 17.66 21.25 L 18.28 21.53 L 18.86 21.9 L 19.39 22.33" fill="none" stroke="#111" stroke-width="1.19" stroke-linecap="round" stroke-linejoin="round"/>
</svg>
