<?xml version="1.0" encoding="UTF-8"?>
<svg xmlns="http://www.w3.org/2000/svg" viewBox="0 0 25.95 39.00">
<path d="M 9.0 4.0 L 9.0 4.75 L 9.0 5.5 L 9.0 6.25 L 9.0 7.0 L 9.0 7.75 L 9.0 8.5 L 9.0 9.25 L 9.0 10.0 L 9.0 10.75 L 9.0 11.5 L 9.0 12.25 L 9.0 13.0 L 9.0 13.75 L 9.0 14.5 L 9.0 15.25 L 9.0 16.0 L 9.0 16.75 L 9.0 17.5 L 9.0 18.25 L 9.0 19.0 L 9.0 19.75 L 9.0 20.5 L 9.0 21.25 L 9.0 22.0" fill="none" stroke="#111" stroke-width="1.37" stroke-linecap="round" stroke-linejoin="round"/>
<path d="M 4.0 5.0 L 4.21 5.21 L 4.42 5.42 L 4.62 5.62 L 4.83 5.83 L 5.04 6.04 L 5.25 6.25 L 5.46 6.46 L 5.67 6.67 L 5.88 6.88 L 6.08 7.08 L 6.29 7.29 L 6.5 7.5 L 6.71 7.71 L 6.92 7.92 L 7.12 8.12 L 7.33 8.33 L 7.54 8.54 L 7.75 8.75 L 7.96 8.96 L 8.17 9.17 L 8.38 9.38 L 8.58 9.58 L 8.79 9.79 L 9.0 10.0 L 9.0 10.0 L 9.17 9.83 L 9.33 9.67 L 9.5 9.5 L 9.67 9.33 L 9.83 9.17 L 10.0 9.0 L 10.17 8.83 L 10.33 8.67 L 10.5 8.5 L 10.67 8.33 L 10.83 8.17 L 11.0 8.0 L 11.17 7.83 L 11.33 7.67 L 11.5 7.5 L 11.67 7.33 L 11.83 7.17 L 12.0 7.0 L 12.17 6.83 L 12.33 6.67 L 12.5 6.5 L 12.67 6.33 L 12.83 6.17 L 13.0 6.0" fill="none" stroke="#111" stroke-width="1.37" stroke-linecap="round" stroke-linejoin="round"/>
<path d="M 9.0 12.0 L 8.79 12.33 L 8.58 12.67 L 8.38 13.0 L 8.17 13.33 L 7.96 13.67 L 7.75 14.0 L 7.54 14.33 L 7.33 14.67 L 7.12 15.0 L 6.92 15.33 L 6.71 15.67 L 6.5 16.0 L 6.29 16.33 L 6.08 16.67 L 5.88 17.0 L 5.67 17.33 L 5.46 17.67 L 5.25 18.0 L 5.04 18.33 L 4.83 18.67 L 4.63 19.0 L 4.42 19.33 L 4.21 19.67 L 4.0 20.0" fill="none" stroke="#111" stroke-width="1.37" stroke-linecap="round" stroke-linejoin="round"/>
<path d="M 9.0 12.0 L 9.21 12.25 L 9.42 12.5 L 9.62 12.75 L 9.83 13.0 L 10.04 13.25 L 10.25 13.5 L 10.46 13.75 L 10.67 14.0 L 10.88 14.25 L 11.08 14.5 L 11.29 14.75 L 11.5 15.0 L 11.71 15.25 L 11.92 15.5 L 12.12 15.75 L 12.33 16.0 L 12.54 16.25 L 12.75 16.5 L 12.96 16.75 L 13.17 17.0 L 13.38 17.25 L 13.58 17.5 L 13.79 17.75 L 14.0 18.0" fill="none" stroke="#111" stroke-width="1.37" stroke-linecap="round" stroke-linejoin="round"/>
<path d="M 7.0 24.0 L 7.25 24.0 L 7.5 24.0 L 7.75 24.0 L 8.0 24.0 L 8.25 24.0 L 8.5 24.0 L 8.75 24.0 L 9.0 24.0 L 9.25 24.0 L 9.5 24.0 L 9.75 24.0 L 10.0 24.0 L 10.25 24.0 L 10.5 24.0 L 10.75 24.0 L 11.0 24.0 L 11.25 24.0 L 11.5 24.0 L 11.75 24.0 L 12.0 24.0 L 12.25 24.0 L 12.5 24.0 L 12.75 24.0 L 13.0 24.0" fill="none" stroke="#111" stroke-width="1.37" stroke-linecap="round" stroke-linejoin="round"/>
<path d="M 6.0 27.0 L 6.29 27.0 L 6.58 27.0 L 6.88 27.0 L 7.17 27.0 L 7.46 27.0 L 7.75 27.0 L 8.04 27.0 L 8.33 27.0 L 8.62 27.0 L 8.92 27.0 L 9.21 27.0 L 9.5 27.0 L 9.79 27.0 L 10.08 27.0 L 10.38 27.0 L 10.67 27.0 L 10.96 27.0 L 11.25 27.0 L 11.54 27.0 L 11.83 27.0 L 12.12 27.0 L 12.42 27.0 L 12.71 27.0 L 13.0 27.0" fill="none" stroke="#111" stroke-width="1.37" stroke-linecap="round" stroke-linejoin="round"/>
<path d="M 10.0 27.0 L 10.0 27.33 L 10.0 27.67 L 10.0 28.0 L 10.0 28.33 L 10.0 28.67 L 10.0 29.0 L 10.0 29.33 L 10.0 29.67 L 10.0 30.0 L 10.0 30.33 L 10.0 30.67 L 10.0 31.0 L 10.0 31.33 L 10.0 31.67 L 10.0 32.0 L 10.0 32.33 L 10.0 32.67 L 10.0 33.0 L 10.0 33.33 L 10.0 33.67 L 10.0 34.0 L 10.0 34.33 L 10.0 34.67 L 10.0 35.0" fill="none" stroke="#111" stroke-width="1.37" stroke-linecap="round" stroke-linejoin="round"/>
<path d="M 16.0 6.0 L 16.47 6.51 L 16.9 7.04 L 17.29 7.61 L 17.65 8.2 L 17.96 8.82 L 18.22 9.46 L 18.44 10.11 L 18.61 10.78 L 18.74 11.46 L 18.81 12.14 L 18.84 12.83 L 18.82 13.52 L 18.75 14.21 L 18.63 14.89 L 18.46 15.56 L 18.25 16.21 L 17.99 16.85 L 17.69 17.47 L 17.34 18.07 L 16.95 18.64 L 16.52 19.18 L 16.06 19.69 L 15.56 20.16 L 15.03 20.6" fill="none" stroke="#111" stroke-width="1.37" stroke-linecap="round" stroke-linejoin="round"/>
<path d="M 13.0 12.0 L 13.52 12.3 L 14.03 12.62 L 14.53 12.96 L 15.02 13.31 L 15.5 13.67 L 15.97 14.05 L 16.43 14.45 L 16.87 14.85 L 17.3 15.28 L 17.72 15.71 L 18.12 16.16 L 18.51 16.62 L 18.88 17.09 L 19.24 17.58 L 19.59 18.07 L 19.92 18.58 L 20.23 19.09 L 20.53 19.62 L 20.81 20.15 L 21.07 20.69 L 21.31 21.24 L 21.54 21.8 L 21.75 22.36 L 21.95 22.94" fill="none" stroke="#111" stroke-width="1.37" stroke-linecap="round" stroke-linejoin="round"/>
</svg>
