<?xml version="1.0" encoding="UTF-8"?>
<svg xmlns="http://www.w3.org/2000/svg" viewBox="0 0 26.29 39.00">
<path d="M 4.0 9.0 L 4.0 9.25 L 4.0 9.5 L 4.0 9.75 L 4.0 10.0 L 4.0 10.25 L 4.0 10.5 L 4.0 10.75 L 4.0 11.0 L 4.0 11.25 L 4.0 11.5 L 4.0 11.75 L 4.0 12.0 L 4.0 12.25 L 4.0 12.5 L 4.0 12.75 L 4.0 13.0 L 4.0 13.25 L 4.0 13.5 L 4.0 13.75 L 4.0 14.0 L 4.0 14.25 L 4.0 14.5 L 4.0 14.75 L 4.0 15.0" fill="none" stroke="#111" stroke-width="1.37" stroke-linecap="round" stroke-linejoin="round"/>
<path d="M 4.0 12.0 L 4.58 11.96 L 5.17 11.92 L 5.75 11.88 L 6.33 11.83 L 6.92 11.79 L 7.5 11.75 L 8.08 11.71 L 8.67 11.67 L 9.25 11.62 L 9.83 11.58 L 10.42 11.54 L 11.0 11.5 L 11.58 11.46 L 12.17 11.42 L 12.75 11.38 L 13.33 11.33 L 13.92 11.29 L 14.5 11.25 L 15.08 11.21 L 15.67 11.17 L 16.25 11.12 L 16.83 11.08 L 17.42 11.04 L 18.0 11.0" fill="none" stroke="#111" stroke-width="1.37" stroke-linecap="round" stroke-linejoin="round"/>
<path d="M 18.0 8.0 L 18.0 8.25 L 18.0 8.5 L 18.0 8.75 L 18.0 9.0 L 18.0 9.25 L 18.0 9.5 L 18.0 9.75 L 18.0 10.0 L 18.0 10.25 L 18.0 10.5 L 18.0 10.75 L 18.0 11.0 L 18.0 11.25 L 18.0 11.5 L 18.0 11.75 L 18.0 12.0 L 18.0 12.25 L 18.0 12.5 L 18.0 12.75 L 18.0 13.0 L 18.0 13.25 L 18.0 13.5 L 18.0 13.75 L 18.0 14.0" fill="none" stroke="#111" stroke-width="1.37" stroke-linecap="round" stroke-linejoin="round"/>
<path d="M 8.0 6.0 L 8.17 6.21 L 8.33 6.42 L 8.5 6.62 L 8.67 6.83 L 8.83 7.04 L 9.0 7.25 L 9.17 7.46 L 9.33 7.67 L 9.5 7.88 L 9.67 8.08 L 9.83 8.29 L 10.0 8.5 L 10.17 8.71 L 10.33 8.92 L 10.5 9.12 L 10.67 9.33 L 10.83 9.54 L 11.0 9.75 L 11.17 9.96 L 11.33 10.17 L 11.5 10.38 L 11.67 10.58 L 11.83 10.79 L 12.0 11.0 L 12.0 11.0 L 12.08 10.71 L 12.17 10.42 L 12.25 10.12 L 12.33 9.83 L 12.42 9.54 L 12.5 9.25 L 12.58 8.96 L 12.67 8.67 L 12.75 8.38 L 12.83 8.08 L 12.92 7.79 L 13.0 7.5 L 13.08 7.21 L 13.17 6.92 L 13.25 6.62 L 13.33 6.33 L 13.42 6.04 L 13.5 5.75 L 13.58 5.46 L 13.67 5.17 L 13.75 4.88 L 13.83 4.58 L 13.92 4.29 L 14.0 4.0" fill="none" stroke="#111" stroke-width="1.37" stroke-linecap="round" stroke-linejoin="round"/>
<path d="M 11.0 13.0 L 10.83 13.17 L 10.67 13.33 L 10.5 13.5 L 10.33 13.67 L 10.17 13.83 L 10.0 14.0 L 9.83 14.17 L 9.67 14.33 L 9.5 14.5 L 9.33 14.67 L 9.17 14.83 L 9.0 15.0 L 8.83 15.17 L 8.67 15.33 L 8.5 15.5 L 8.33 15.67 L 8.17 15.83 L 8.0 16.0 L 7.83 16.17 L 7.67 16.33 L 7.5 16.5 L 7.33 16.67 L 7.17 16.83 L 7.0 17.0 L 7.0 17.0 L 7.48 17.0 L 7.97 17.04 L 8.44 17.11 L 8.91 17.22 L 9.38 17.36 L 9.83 17.53 L 10.26 17.74 L 10.68 17.98 L 11.08 18.25 L 11.46 18.55 L 11.82 18.87 L 12.15 19.23 L 12.46 19.6 L 12.73 20.0 L 12.98 20.41 L 13.19 20.85 L 13.37 21.3 L 13.52 21.76 L 13.64 22.23 L 13.72 22.7 L 13.76 23.18 L 13.77 23.67 L 13.74 24.15 L 13.67 24.63 L 14.0 25.0 L 13.83 25.12 L 13.67 25.25 L 13.5 25.38 L 13.33 25.5 L 13.17 25.62 L 13.0 25.75 L 12.83 25.88 L 12.67 26.0 L 12.5 26.12 L 12.33 26.25 L 12.17 26.38 L 12.0 26.5 L 11.83 26.62 L 11.67 26.75 L 11.5 26.88 L 11.33 27.0 L 11.17 27.12 L 11.0 27.25 L 10.83 27.38 L 10.67 27.5 L 10.5 27.62 L 10.33 27.75 L 10.17 27.88 L 10.0 28.0 L 10.0 28.0 L 9.88 27.79 L 9.75 27.58 L 9.62 27.38 L 9.5 27.17 L 9.38 26.96 L 9.25 26.75 L 9.12 26.54 L 9.0 26.33 L 8.88 26.12 L 8.75 25.92 L 8.62 25.71 L 8.5 25.5 L 8.38 25.29 L 8.25 25.08 L 8.12 24.88 L 8.0 24.67 L 7.88 24.46 L 7.75 24.25 L 7.63 24.04 L 7.5 23.83 L 7.38 23.62 L 7.25 23.42 L 7.13 23.21 L 7.0 23.0 L 7.0 23.0 L 7.54 22.95 L 8.07 22.85 L 8.58 22.69 L 9.09 22.49 L 9.56 22.24 L 10.02 21.95 L 10.44 21.62 L 10.83 21.24 L 11.19 20.84 L 11.5 20.4 L 11.77 19.93 L 11.99 19.44 L 12.17 18.93 L 12.3 18.4 L 12.37 17.87 L 12.4 17.33 L 12.37 16.79 L 12.3 16.26 L 12.17 15.73 L 11.99 15.22 L 11.77 14.73 L 11.5 14.26 L 11.19 13.82 L 10.83 13.42" fill="none" stroke="#111" stroke-width="1.37" stroke-linecap="round" stroke-linejoin="round"/>
<path d="M 10.0 28.0 L 10.0 28.29 L 10.0 28.58 L 10.0 28.88 L 10.0 29.17 L 10.0 29.46 L 10.0 29.75 L 10.0 30.04 L 10.0 30.33 L 10.0 30.62 L 10.0 30.92 L 10.0 31.21 L 10.0 31.5 L 10.0 31.79 L 10.0 32.08 L 10.0 32.38 L 10.0 32.67 L 10.0 32.96 L 10.0 33.25 L 10.0 33.54 L 10.0 33.83 L 10.0 34.12 L 10.0 34.42 L 10.0 34.71 L 10.0 35.0" fill="none" stroke="#111" stroke-width="1.37" stroke-linecap="round" stroke-linejoin="round"/>
<path d="M 21.0 14.0 L 21.34 14.78 L 21.63 15.59 L 21.87 16.41 L 22.05 17.24 L 22.19 18.08 L 22.26 18.93 L 22.29 19.78 L 22.26 20.64 L 22.17 21.49 L 22.03 22.33 L 21.84 23.16 L 21.6 23.98 L 21.3 24.78 L 20.96 25.56 L 20.56 26.32 L 20.12 27.05 L 19.63 27.75 L 19.1 28.41 L 18.53 29.05 L 17.92 29.64 L 17.27 30.2 L 16.59 30.71 L 15.87 31.18 L 15.13 31.6" fill="none" stroke="#111" stroke-width="1.37" stroke-linecap="round" stroke-linejoin="round"/>
<path d="M 21.0 19.0 L 20.79 19.12 L 20.58 19.25 L 20.38 19.38 L 20.17 19.5 L 19.96 19.62 L 19.75 19.75 L 19.54 19.88 L 19.33 20.0 L 19.12 20.12 L 18.92 20.25 L 18.71 20.38 L 18.5 20.5 L 18.29 20.62 L 18.08 20.75 L 17.88 20.88 L 17.67 21.0 L 17.46 21.12 L 17.25 21.25 L 17.04 21.38 L 16.83 21.5 L 16.62 21.62 L 16.42 21.75 L 16.21 21.88 L 16.0 22.0" fill="none" stroke="#111" stroke-width="1.37" stroke-linecap="round" stroke-linejoin="round"/>
</svg>
