<?xml version="1.0" encoding="UTF-8"?>
<svg xmlns="http://www.w3.org/2000/svg" viewBox="0 0 27.00 38.00">
<path d="M 7.0 4.0 L 7.29 4.21 L 7.58 4.42 L 7.88 4.62 L 8.17 4.83 L 8.46 5.04 L 8.75 5.25 L 9.04 5.46 L 9.33 5.67 L 9.62 5.88 L 9.92 6.08 L 10.21 6.29 L 10.5 6.5 L 10.79 6.71 L 11.08 6.92 L 11.38 7.12 L 11.67 7.33 L 11.96 7.54 L 12.25 7.75 L 12.54 7.96 L 12.83 8.17 L 13.12 8.38 L 13.42 8.58 L 13.71 8.79 L 14.0 9.0" fill="none" stroke="#111" stroke-width="1.33" stroke-linecap="round" stroke-linejoin="round"/>
<path d="M 12.0 6.0 L 12.0 6.33 L 12.0 6.67 L 12.0 7.0 L 12.0 7.33 L 12.0 7.67 L 12.0 8.0 L 12.0 8.33 L 12.0 8.67 L 12.0 9.0 L 12.0 9.33 L 12.0 9.67 L 12.0 10.0 L 12.0 10.33 L 12.0 10.67 L 12.0 11.0 L 12.0 11.33 L 12.0 11.67 L 12.0 12.0 L 12.0 12.33 L 12.0 12.67 L 12.0 13.0 L 12.0 13.33 L 12.0 13.67 L 12.0 14.0" fill="none" stroke="#111" stroke-width="1.33" stroke-linecap="round" stroke-linejoin="round"/>
<path d="M 15.0 6.0 L 14.88 6.33 L 14.75 6.67 L 14.62 7.0 L 14.5 7.33 L 14.38 7.67 L 14.25 8.0 L 14.12 8.33 L 14.0 8.67 L 13.88 9.0 L 13.75 9.33 L 13.62 9.67 L 13.5 10.0 L 13.38 10.33 L 13.25 10.67 L 13.12 11.0 L 13.0 11.33 L 12.88 11.67 L 12.75 12.0 L 12.62 12.33 L 12.5 12.67 L 12.38 13.0 L 12.25 13.33 L 12.12 13.67 L 12.0 14.0" fill="none" stroke="#111" stroke-width="1.33" stroke-linecap="round" stroke-linejoin="round"/>
<path d="M 4.0 16.0 L 4.79 15.96 L 5.58 15.92 L 6.38 15.88 L 7.17 15.83 L 7.96 15.79 L 8.75 15.75 L 9.54 15.71 L 10.33 15.67 L 11.12 15.62 L 11.92 15.58 L 12.71 15.54 L 13.5 15.5 L 14.29 15.46 L 15.08 15.42 L 15.88 15.38 L 16.67 15.33 L 17.46 15.29 L 18.25 15.25 L 19.04 15.21 L 19.83 15.17 L 20.62 15.12 L 21.42 15.08 L 22.21 15.04 L 23.0 15.0" fill="none" stroke="#111" stroke-width="1.33" stroke-linecap="round" stroke-linejoin="round"/>
<path d="M 20.0 5.0 L 20.45 5.84 L 20.86 6.69 L 21.24 7.56 L 21.58 8.45 L 21.88 9.35 L 22.14 10.26 L 22.36 11.19 L 22.55 12.12 L 22.69 13.06 L 22.79 14.0 L 22.85 14.95 L 22.87 15.9 L 22.85 16.85 L 22.79 17.8 L 22.69 18.74 L 22.55 19.68 L 22.36 20.61 L 22.14 21.54 L 21.88 22.45 L 21.58 23.35 L 21.24 24.24 L 20.86 25.11 L 20.45 25.97 L 20.0 26.8" fill="none" stroke="#111" stroke-width="1.33" stroke-linecap="round" stroke-linejoin="round"/>
<path d="M 5.0 12.0 L 5.17 12.0 L 5.33 12.0 L 5.5 12.0 L 5.67 12.0 L 5.83 12.0 L 6.0 12.0 L 6.17 12.0 L 6.33 12.0 L 6.5 12.0 L 6.67 12.0 L 6.83 12.0 L 7.0 12.0 L 7.17 12.0 L 7.33 12.0 L 7.5 12.0 L 7.67 12.0 L 7.83 12.0 L 8.0 12.0 L 8.17 12.0 L 8.33 12.0 L 8.5 12.0 L 8.67 12.0 L 8.83 12.0 L 9.0 12.0" fill="none" stroke="#111" stroke-width="1.33" stroke-linecap="round" stroke-linejoin="round"/>
<path d="M 8.0 12.0 L 8.0 12.92 L 8.0 13.83 L 8.0 14.75 L 8.0 15.67 L 8.0 16.58 L 8.0 17.5 L 8.0 18.42 L 8.0 19.33 L 8.0 20.25 L 8.0 21.17 L 8.0 22.08 L 8.0 23.0 L 8.0 23.92 L 8.0 24.83 L 8.0 25.75 L 8.0 26.67 L 8.0 27.58 L 8.0 28.5 L 8.0 29.42 L 8.0 30.33 L 8.0 31.25 L 8.0 32.17 L 8.0 33.08 L 8.0 34.0" fill="none" stroke="#111" stroke-width="1.33" stroke-linecap="round" stroke-linejoin="round"/>
<path d="M 5.0 34.0 L 5.29 34.0 L 5.58 34.0 L 5.88 34.0 L 6.17 34.0 L 6.46 34.0 L 6.75 34.0 L 7.04 34.0 L 7.33 34.0 L 7.62 34.0 L 7.92 34.0 L 8.21 34.0 L 8.5 34.0 L 8.79 34.0 L 9.08 34.0 L 9.38 34.0 L 9.67 34.0 L 9.96 34.0 L 10.25 34.0 L 10.54 34.0 L 10.83 34.0 L 11.12 34.0 L 11.42 34.0 L 11.71 34.0 L 12.0 34.0" fill="none" stroke="#111" stroke-width="1.33" stroke-linecap="round" stroke-linejoin="round"/>
<path d="M 12.0 22.0 L 12.33 21.88 L 12.67 21.75 L 13.0 21.62 L 13.33 21.5 L 13.67 21.38 L 14.0 21.25 L 14.33 21.12 L 14.67 21.0 L 15.0 20.88 L 15.33 20.75 L 15.67 20.62 L 16.0 20.5 L 16.33 20.38 L 16.67 20.25 L 17.0 20.12 L 17.33 20.0 L 17.67 19.88 L 18.0 19.75 L 18.33 19.62 L 18.67 19.5 L 19.0 19.38 L 19.33 19.25 L 19.67 19.12 L 20.0 19.0" fill="none" stroke="#111" stroke-width="1.33" stroke-linecap="round" stroke-linejoin="round"/>
<path d="M 12.0 19.0 L 12.08 19.38 L 12.17 19.75 L 12.25 20.12 L 12.33 20.5 L 12.42 20.88 L 12.5 21.25 L 12.58 21.62 L 12.67 22.0 L 12.75 22.38 L 12.83 22.75 L 12.92 23.12 L 13.0 23.5 L 13.08 23.88 L 13.17 24.25 L 13.25 24.62 L 13.33 25.0 L 13.42 25.38 L 13.5 25.75 L 13.58 26.12 L 13.67 26.5 L 13.75 26.88 L 13.83 27.25 L 13.92 27.62 L 14.0 28.0" fill="none" stroke="#111" stroke-width="1.33" stroke-linecap="round" stroke-linejoin="round"/>
<path d="M 15.0 18.0 L 14.96 18.42 L 14.92 18.83 L 14.88 19.25 L 14.83 19.67 L 14.79 20.08 L 14.75 20.5 L 14.71 20.92 L 14.67 21.33 L 14.62 21.75 L 14.58 22.17 L 14.54 22.58 L 14.5 23.0 L 14.46 23.42 L 14.42 23.83 L 14.38 24.25 L 14.33 24.67 L 14.29 25.08 L 14.25 25.5 L 14.21 25.92 L 14.17 26.33 L 14.12 26.75 L 14.08 27.17 L 14.04 27.58 L 14.0 28.0" fill="none" stroke="#111" stroke-width="1.33" stroke-linecap="round" stroke-linejoin="round"/>
</svg>
