<?xml version="1.0" encoding="UTF-8"?>
<svg xmlns="http://www.w3.org/2000/svg" viewBox="0 0 16.00 36.00">
<path d="M 8.0 4.0 L 8.0 5.17 L 8.0 6.33 L 8.0 7.5 L 8.0 8.67 L 8.0 9.83 L 8.0 11.0 L 8.0 12.17 L 8.0 13.33 L 8.0 14.5 L 8.0 15.67 L 8.0 16.83 L 8.0 18.0 L 8.0 19.17 L 8.0 20.33 L 8.0 21.5 L 8.0 22.67 L 8.0 23.83 L 8.0 25.0 L 8.0 26.17 L 8.0 27.33 L 8.0 28.5 L 8.0 29.67 L 8.0 30.83 L 8.0 32.0" fill="none" stroke="#111" stroke-width="1.26" stroke-linecap="round" stroke-linejoin="round"/>
<path d="M 5.0 5.0 L 5.12 5.17 L 5.25 5.33 L 5.38 5.5 L 5.5 5.67 L 5.62 5.83 L 5.75 6.0 L 5.88 6.17 L 6.0 6.33 L 6.12 6.5 L 6.25 6.67 L 6.38 6.83 L 6.5 7.0 L 6.62 7.17 L 6.75 7.33 L 6.88 7.5 L 7.0 7.67 L 7.12 7.83 L 7.25 8.0 L 7.38 8.17 L 7.5 8.33 L 7.62 8.5 L 7.75 8.67 L 7.88 8.83 L 8.0 9.0" fill="none" stroke="#111" stroke-width="1.26" stroke-linecap="round" stroke-linejoin="round"/>
<path d="M 12.0 4.0 L 11.83 4.21 L 11.67 4.42 L 11.5 4.62 L 11.33 4.83 L 11.17 5.04 L 11.0 5.25 L 10.83 5.46 L 10.67 5.67 L 10.5 5.88 L 10.33 6.08 L 10.17 6.29 L 10.0 6.5 L 9.83 6.71 L 9.67 6.92 L 9.5 7.12 L 9.33 7.33 L 9.17 7.54 L 9.0 7.75 L 8.83 7.96 L 8.67 8.17 L 8.5 8.38 L 8.33 8.58 L 8.17 8.79 L 8.0 9.0" fill="none" stroke="#111" stroke-width="1.26" stroke-linecap="round" stroke-linejoin="round"/>
<path d="M 6.0 15.0 L 6.21 15.12 L 6.42 15.25 L 6.62 15.38 L 6.83 15.5 L 7.04 15.62 L 7.25 15.75 L 7.46 15.88 L 7.67 16.0 L 7.88 16.12 L 8.08 16.25 L 8.29 16.38 L 8.5 16.5 L 8.71 16.62 L 8.92 16.75 L 9.12 16.88 L 9.33 17.0 L 9.54 17.12 L 9.75 17.25 L 9.96 17.38 L 10.17 17.5 L 10.38 17.62 L 10.58 17.75 L 10.79 17.88 L 11.0 18.0 L 11.0 18.0 L 10.92 18.12 L 10.83 18.25 L 10.75 18.38 L 10.67 18.5 L 10.58 18.62 L 10.5 18.75 L 10.42 18.88 L 10.33 19.0 L 10.25 19.12 L 10.17 19.25 L 10.08 19.38 L 10.0 19.5 L 9.92 19.62 L 9.83 19.75 L 9.75 19.88 L 9.67 20.0 L 9.58 20.12 L 9.5 20.25 L 9.42 20.38 L 9.33 20.5 L 9.25 20.62 L 9.17 20.75 L 9.08 20.88 L 9.0 21.0 L 9.0 21.0 L 8.83 20.92 L 8.67 20.83 L 8.5 20.75 L 8.33 20.67 L 8.17 20.58 L 8.0 20.5 L 7.83 20.42 L 7.67 20.33 L 7.5 20.25 L 7.33 20.17 L 7.17 20.08 L 7.0 20.0 L 6.83 19.92 L 6.67 19.83 L 6.5 19.75 L 6.33 19.67 L 6.17 19.58 L 6.0 19.5 L 5.83 19.42 L 5.67 19.33 L 5.5 19.25 L 5.33 19.17 L 5.17 19.08 L 5.0 19.0 L 5.0 19.0 L 5.04 18.83 L 5.08 18.67 L 5.12 18.5 L 5.17 18.33 L 5.21 18.17 L 5.25 18.0 L 5.29 17.83 L 5.33 17.67 L 5.38 17.5 L 5.42 17.33 L 5.46 17.17 L 5.5 17.0 L 5.54 16.83 L 5.58 16.67 L 5.62 16.5 L 5.67 16.33 L 5.71 16.17 L 5.75 16.0 L 5.79 15.83 L 5.83 15.67 L 5.88 15.5 L 5.92 15.33 L 5.96 15.17 L 6.0 15.0" fill="none" stroke="#111" stroke-width="1.26" stroke-linecap="round" stroke-linejoin="round"/>
<path d="M 4.0 12.0 L 4.08 11.92 L 4.17 11.83 L 4.25 11.75 L 4.33 11.67 L 4.42 11.58 L 4.5 11.5 L 4.58 11.42 L 4.67 11.33 L 4.75 11.25 L 4.83 11.17 L 4.92 11.08 L 5.0 11.0 L 5.08 10.92 L 5.17 10.83 L 5.25 10.75 L 5.33 10.67 L 5.42 10.58 L 5.5 10.5 L 5.58 10.42 L 5.67 10.33 L 5.75 10.25 L 5.83 10.17 L 5.92 10.08 L 6.0 10.0" fill="none" stroke="#111" stroke-width="1.26" stroke-linecap="round" stroke-linejoin="round"/>
<path d="M 6.0 10.0 L 6.21 10.12 L 6.42 10.25 L 6.62 10.38 L 6.83 10.5 L 7.04 10.62 L 7.25 10.75 L 7.46 10.88 L 7.67 11.0 L 7.88 11.12 L 8.08 11.25 L 8.29 11.38 L 8.5 11.5 L 8.71 11.62 L 8.92 11.75 L 9.12 11.88 L 9.33 12.0 L 9.54 12.12 L 9.75 12.25 L 9.96 12.38 L 10.17 12.5 L 10.38 12.62 L 10.58 12.75 L 10.79 12.88 L 11.0 13.0 L 11.0 13.0 L 10.88 13.08 L 10.75 13.17 L 10.62 13.25 L 10.5 13.33 L 10.38 13.42 L 10.25 13.5 L 10.12 13.58 L 10.0 13.67 L 9.88 13.75 L 9.75 13.83 L 9.62 13.92 L 9.5 14.0 L 9.38 14.08 L 9.25 14.17 L 9.12 14.25 L 9.0 14.33 L 8.88 14.42 L 8.75 14.5 L 8.62 14.58 L 8.5 14.67 L 8.38 14.75 L 8.25 14.83 L 8.12 14.92 L 8.0 15.0 L 8.0 15.0 L 7.83 14.88 L 7.67 14.75 L 7.5 14.62 L 7.33 14.5 L 7.17 14.38 L 7.0 14.25 L 6.83 14.12 L 6.67 14.0 L 6.5 13.88 L 6.33 13.75 L 6.17 13.62 L 6.0 13.5 L 5.83 13.38 L 5.67 13.25 L 5.5 13.12 L 5.33 13.0 L 5.17 12.88 L 5.0 12.75 L 4.83 12.62 L 4.67 12.5 L 4.5 12.38 L 4.33 12.25 L 4.17 12.12 L 4.0 12.0" fill="none" stroke="#111" stroke-width="1.26" stroke-linecap="round" stroke-linejoin="round"/>
<path d="M 7.0 20.0 L 6.92 20.17 L 6.83 20.33 L 6.75 20.5 L 6.67 20.67 L 6.58 20.83 L 6.5 21.0 L 6.42 21.17 L 6.33 21.33 L 6.25 21.5 L 6.17 21.67 L 6.08 21.83 L 6.0 22.0 L 5.92 22.17 L 5.83 22.33 L 5.75 22.5 L 5.67 22.67 L 5.58 22.83 L 5.5 23.0 L 5.42 23.17 L 5.33 23.33 L 5.25 23.5 L 5.17 23.67 L 5.08 23.83 L 5.0 24.0 L 5.0 24.0 L 5.16 24.28 L 5.36 24.55 L 5.57 24.79 L 5.82 25.01 L 6.08 25.2 L 6.37 25.36 L 6.67 25.49 L 6.98 25.59 L 7.3 25.66 L 7.62 25.69 L 7.95 25.69 L 8.27 25.65 L 8.59 25.58 L 8.9 25.48 L 9.2 25.34 L 9.48 25.18 L 9.74 24.98 L 9.98 24.76 L 10.2 24.51 L 10.39 24.25 L 10.55 23.96 L 10.68 23.66 L 10.77 23.35 L 10.84 23.03 L 11.0 23.0 L 10.92 22.92 L 10.83 22.83 L 10.75 22.75 L 10.67 22.67 L 10.58 22.58 L 10.5 22.5 L 10.42 22.42 L 10.33 22.33 L 10.25 22.25 L 10.17 22.17 L 10.08 22.08 L 10.0 22.0 L 9.92 21.92 L 9.83 21.83 L 9.75 21.75 L 9.67 21.67 L 9.58 21.58 L 9.5 21.5 L 9.42 21.42 L 9.33 21.33 L 9.25 21.25 L 9.17 21.17 L 9.08 21.08 L 9.0 21.0" fill="none" stroke="#111" stroke-width="1.26" stroke-linecap="round" stroke-linejoin="round"/>
</svg>
