<?xml version="1.0" encoding="UTF-8"?>
<svg xmlns="http://www.w3.org/2000/svg" viewBox="0 0 26.00 43.26">
<path d="M 15.0 4.0 L 15.12 4.42 L 15.25 4.83 L 15.38 5.25 L 15.5 5.67 L 15.62 6.08 L 15.75 6.5 L 15.88 6.92 L 16.0 7.33 L 16.12 7.75 L 16.25 8.17 L 16.38 8.58 L 16.5 9.0 L 16.62 9.42 L 16.75 9.83 L 16.88 10.25 L 17.0 10.67 L 17.12 11.08 L 17.25 11.5 L 17.38 11.92 L 17.5 12.33 L 17.62 12.75 L 17.75 13.17 L 17.88 13.58 L 18.0 14.0 L 18.0 14.0 L 17.64 15.01 L 17.3 16.02 L 16.98 17.04 L 16.68 18.07 L 16.4 19.1 L 16.14 20.14 L 15.91 21.18 L 15.69 22.23 L 15.49 23.28 L 15.31 24.33 L 15.15 25.39 L 15.01 26.45 L 14.9 27.52 L 14.8 28.58 L 14.72 29.65 L 14.67 30.72 L 14.63 31.78 L 14.62 32.85 L 14.63 33.92 L 14.65 34.99 L 14.7 36.06 L 14.77 37.13 L 14.86 38.19 L 14.97 39.26" fill="none" stroke="#111" stroke-width="1.51" stroke-linecap="round" stroke-linejoin="round"/>
<path d="M 4.0 15.0 L 4.12 14.75 L 4.25 14.5 L 4.38 14.25 L 4.5 14.0 L 4.62 13.75 L 4.75 13.5 L 4.88 13.25 L 5.0 13.0 L 5.12 12.75 L 5.25 12.5 L 5.38 12.25 L 5.5 12.0 L 5.62 11.75 L 5.75 11.5 L 5.88 11.25 L 6.0 11.0 L 6.13 10.75 L 6.25 10.5 L 6.38 10.25 L 6.5 10.0 L 6.62 9.75 L 6.75 9.5 L 6.88 9.25 L 7.0 9.0 L 7.0 9.0 L 7.52 9.65 L 8.0 10.33 L 8.45 11.03 L 8.87 11.75 L 9.25 12.49 L 9.59 13.25 L 9.9 14.03 L 10.16 14.82 L 10.39 15.62 L 10.58 16.43 L 10.73 17.25 L 10.84 18.07 L 10.9 18.9 L 10.93 19.74 L 10.91 20.57 L 10.86 21.4 L 10.76 22.23 L 10.62 23.05 L 10.45 23.86 L 10.23 24.67 L 9.97 25.46 L 9.68 26.24 L 9.34 27.0 L 8.97 27.75 L 9.0 28.0 L 9.0 28.38 L 9.0 28.75 L 9.0 29.12 L 9.0 29.5 L 9.0 29.88 L 9.0 30.25 L 9.0 30.62 L 9.0 31.0 L 9.0 31.38 L 9.0 31.75 L 9.0 32.12 L 9.0 32.5 L 9.0 32.88 L 9.0 33.25 L 9.0 33.62 L 9.0 34.0 L 9.0 34.38 L 9.0 34.75 L 9.0 35.12 L 9.0 35.5 L 9.0 35.88 L 9.0 36.25 L 9.0 36.62 L 9.0 37.0" fill="none" stroke="#111" stroke-width="1.51" stroke-linecap="round" stroke-linejoin="round"/>
<path d="M 10.0 6.0 L 10.12 6.21 L 10.25 6.42 L 10.38 6.62 L 10.5 6.83 L 10.62 7.04 L 10.75 7.25 L 10.88 7.46 L 11.0 7.67 L 11.12 7.88 L 11.25 8.08 L 11.38 8.29 L 11.5 8.5 L 11.62 8.71 L 11.75 8.92 L 11.88 9.12 L 12.0 9.33 L 12.12 9.54 L 12.25 9.75 L 12.38 9.96 L 12.5 10.17 L 12.62 10.38 L 12.75 10.58 L 12.88 10.79 L 13.0 11.0" fill="none" stroke="#111" stroke-width="1.51" stroke-linecap="round" stroke-linejoin="round"/>
<path d="M 12.0 27.0 L 12.04 27.29 L 12.08 27.58 L 12.12 27.88 L 12.17 28.17 L 12.21 28.46 L 12.25 28.75 L 12.29 29.04 L 12.33 29.33 L 12.38 29.62 L 12.42 29.92 L 12.46 30.21 L 12.5 30.5 L 12.54 30.79 L 12.58 31.08 L 12.62 31.38 L 12.67 31.67 L 12.71 31.96 L 12.75 32.25 L 12.79 32.54 L 12.83 32.83 L 12.88 33.12 L 12.92 33.42 L 12.96 33.71 L 13.0 34.0" fill="none" stroke="#111" stroke-width="1.51" stroke-linecap="round" stroke-linejoin="round"/>
<path d="M 19.0 20.0 L 19.12 20.29 L 19.25 20.58 L 19.38 20.88 L 19.5 21.17 L 19.62 21.46 L 19.75 21.75 L 19.88 22.04 L 20.0 22.33 L 20.12 22.62 L 20.25 22.92 L 20.38 23.21 L 20.5 23.5 L 20.62 23.79 L 20.75 24.08 L 20.88 24.38 L 21.0 24.67 L 21.12 24.96 L 21.25 25.25 L 21.38 25.54 L 21.5 25.83 L 21.62 26.12 L 21.75 26.42 L 21.88 26.71 L 22.0 27.0" fill="none" stroke="#111" stroke-width="1.51" stroke-linecap="round" stroke-linejoin="round"/>
</svg>
