<?xml version="1.0" encoding="UTF-8"?>
<svg xmlns="http://www.w3.org/2000/svg" viewBox="0 0 30.37 42.00">
<path d="M 17.0 4.0 L 17.0 5.04 L 17.0 6.08 L 17.0 7.12 L 17.0 8.17 L 17.0 9.21 L 17.0 10.25 L 17.0 11.29 L 17.0 12.33 L 17.0 13.38 L 17.0 14.42 L 17.0 15.46 L 17.0 16.5 L 17.0 17.54 L 17.0 18.58 L 17.0 19.62 L 17.0 20.67 L 17.0 21.71 L 17.0 22.75 L 17.0 23.79 L 17.0 24.83 L 17.0 25.88 L 17.0 26.92 L 17.0 27.96 L 17.0 29.0" fill="none" stroke="#111" stroke-width="1.47" stroke-linecap="round" stroke-linejoin="round"/>
<path d="M 12.0 8.0 L 12.21 8.38 L 12.42 8.75 L 12.62 9.12 L 12.83 9.5 L 13.04 9.88 L 13.25 10.25 L 13.46 10.62 L 13.67 11.0 L 13.88 11.38 L 14.08 11.75 L 14.29 12.12 L 14.5 12.5 L 14.71 12.88 L 14.92 13.25 L 15.12 13.63 L 15.33 14.0 L 15.54 14.38 L 15.75 14.75 L 15.96 15.12 L 16.17 15.5 L 16.38 15.88 L 16.58 16.25 L 16.79 16.62 L 17.0 17.0" fill="none" stroke="#111" stroke-width="1.47" stroke-linecap="round" stroke-linejoin="round"/>
<path d="M 10.0 26.0 L 10.29 25.62 L 10.58 25.25 L 10.88 24.88 L 11.17 24.5 L 11.46 24.12 L 11.75 23.75 L 12.04 23.38 L 12.33 23.0 L 12.62 22.62 L 12.92 22.25 L 13.21 21.88 L 13.5 21.5 L 13.79 21.12 L 14.08 20.75 L 14.38 20.38 L 14.67 20.0 L 14.96 19.62 L 15.25 19.25 L 15.54 18.88 L 15.83 18.5 L 16.12 18.12 L 16.42 17.75 L 16.71 17.38 L 17.0 17.0" fill="none" stroke="#111" stroke-width="1.47" stroke-linecap="round" stroke-linejoin="round"/>
<path d="M 22.0 4.0 L 21.79 4.25 L 21.58 4.5 L 21.38 4.75 L 21.17 5.0 L 20.96 5.25 L 20.75 5.5 L 20.54 5.75 L 20.33 6.0 L 20.12 6.25 L 19.92 6.5 L 19.71 6.75 L 19.5 7.0 L 19.29 7.25 L 19.08 7.5 L 18.88 7.75 L 18.67 8.0 L 18.46 8.25 L 18.25 8.5 L 18.04 8.75 L 17.83 9.0 L 17.62 9.25 L 17.42 9.5 L 17.21 9.75 L 17.0 10.0" fill="none" stroke="#111" stroke-width="1.47" stroke-linecap="round" stroke-linejoin="round"/>
<path d="M 18.0 20.0 L 18.21 20.21 L 18.42 20.42 L 18.62 20.62 L 18.83 20.83 L 19.04 21.04 L 19.25 21.25 L 19.46 21.46 L 19.67 21.67 L 19.88 21.88 L 20.08 22.08 L 20.29 22.29 L 20.5 22.5 L 20.71 22.71 L 20.92 22.92 L 21.12 23.12 L 21.33 23.33 L 21.54 23.54 L 21.75 23.75 L 21.96 23.96 L 22.17 24.17 L 22.38 24.38 L 22.58 24.58 L 22.79 24.79 L 23.0 25.0" fill="none" stroke="#111" stroke-width="1.47" stroke-linecap="round" stroke-linejoin="round"/>
<path d="M 11.0 17.0 L 11.04 17.21 L 11.08 17.42 L 11.12 17.62 L 11.17 17.83 L 11.21 18.04 L 11.25 18.25 L 11.29 18.46 L 11.33 18.67 L 11.38 18.88 L 11.42 19.08 L 11.46 19.29 L 11.5 19.5 L 11.54 19.71 L 11.58 19.92 L 11.62 20.12 L 11.67 20.33 L 11.71 20.54 L 11.75 20.75 L 11.79 20.96 L 11.83 21.17 L 11.88 21.38 L 11.92 21.58 L 11.96 21.79 L 12.0 22.0" fill="none" stroke="#111" stroke-width="1.47" stroke-linecap="round" stroke-linejoin="round"/>
<path d="M 20.0 15.0 L 20.04 15.17 L 20.08 15.33 L 20.12 15.5 L 20.17 15.67 L 20.21 15.83 L 20.25 16.0 L 20.29 16.17 L 20.33 16.33 L 20.38 16.5 L 20.42 16.67 L 20.46 16.83 L 20.5 17.0 L 20.54 17.17 L 20.58 17.33 L 20.62 17.5 L 20.67 17.67 L 20.71 17.83 L 20.75 18.0 L 20.79 18.17 L 20.83 18.33 L 20.88 18.5 L 20.92 18.67 L 20.96 18.83 L 21.0 19.0" fill="none" stroke="#111" stroke-width="1.47" stroke-linecap="round" stroke-linejoin="round"/>
<path d="M 10.0 5.0 L 10.0 5.17 L 10.0 5.33 L 10.0 5.5 L 10.0 5.67 L 10.0 5.83 L 10.0 6.0 L 10.0 6.17 L 10.0 6.33 L 10.0 6.5 L 10.0 6.67 L 10.0 6.83 L 10.0 7.0 L 10.0 7.17 L 10.0 7.33 L 10.0 7.5 L 10.0 7.67 L 10.0 7.83 L 10.0 8.0 L 10.0 8.17 L 10.0 8.33 L 10.0 8.5 L 10.0 8.67 L 10.0 8.83 L 10.0 9.0" fill="none" stroke="#111" stroke-width="1.47" stroke-linecap="round" stroke-linejoin="round"/>
<path d="M 22.0 6.0 L 22.04 6.25 L 22.08 6.5 L 22.12 6.75 L 22.17 7.0 L 22.21 7.25 L 22.25 7.5 L 22.29 7.75 L 22.33 8.0 L 22.38 8.25 L 22.42 8.5 L 22.46 8.75 L 22.5 9.0 L 22.54 9.25 L 22.58 9.5 L 22.62 9.75 L 22.67 10.0 L 22.71 10.25 L 22.75 10.5 L 22.79 10.75 L 22.83 11.0 L 22.88 11.25 L 22.92 11.5 L 22.96 11.75 L 23.0 12.0" fill="none" stroke="#111" stroke-width="1.47" stroke-linecap="round" stroke-linejoin="round"/>
<path d="M 9.0 27.0 L 9.19 28.29 L 9.57 29.54 L 10.13 30.72 L 10.87 31.8 L 11.76 32.76 L 12.78 33.58 L 13.91 34.23 L 15.13 34.71 L 16.4 35.0 L 17.7 35.09 L 19.01 34.99 L 20.28 34.7 L 21.5 34.21 L 22.62 33.56 L 23.64 32.74 L 24.53 31.77 L 25.25 30.69 L 25.81 29.51 L 26.19 28.25 L 26.37 26.96 L 26.36 25.65 L 26.15 24.36 L 25.75 23.12 L 25.17 21.95" fill="none" stroke="#111" stroke-width="1.47" stroke-linecap="round" stroke-linejoin="round"/>
<path d="M 17.0 29.0 L 16.88 29.21 L 16.75 29.42 L 16.62 29.62 L 16.5 29.83 L 16.38 30.04 L 16.25 30.25 L 16.12 30.46 L 16.0 30.67 L 15.88 30.88 L 15.75 31.08 L 15.62 31.29 L 15.5 31.5 L 15.38 31.71 L 15.25 31.92 L 15.12 32.12 L 15.0 32.33 L 14.88 32.54 L 14.75 32.75 L 14.62 32.96 L 14.5 33.17 L 14.38 33.38 L 14.25 33.58 L 14.13 33.79 L 14.0 34.0" fill="none" stroke="#111" stroke-width="1.47" stroke-linecap="round" stroke-linejoin="round"/>
<path d="M 17.0 29.0 L 17.12 29.21 L 17.25 29.42 L 17.38 29.62 L 17.5 29.83 L 17.62 30.04 L 17.75 30.25 L 17.88 30.46 L 18.0 30.67 L 18.12 30.88 L 18.25 31.08 L 18.38 31.29 L 18.5 31.5 L 18.62 31.71 L 18.75 31.92 L 18.88 32.12 L 19.0 32.33 L 19.12 32.54 L 19.25 32.75 L 19.38 32.96 L 19.5 33.17 L 19.62 33.38 L 19.75 33.58 L 19.88 33.79 L 20.0 34.0" fill="none" stroke="#111" stroke-width="1.47" stroke-linecap="round" stroke-linejoin="round"/>
<path d="M 9.0 27.0 L 9.25 27.21 L 9.5 27.42 L 9.75 27.62 L 10.0 27.83 L 10.25 28.04 L 10.5 28.25 L 10.75 28.46 L 11.0 28.67 L 11.25 28.88 L 11.5 29.08 L 11.75 29.29 L 12.0 29.5 L 12.25 29.71 L 12.5 29.92 L 12.75 30.12 L 13.0 30.33 L 13.25 30.54 L 13.5 30.75 L 13.75 30.96 L 14.0 31.17 L 14.25 31.38 L 14.5 31.58 L 14.75 31.79 L 15.0 32.0" fill="none" stroke="#111" stroke-width="1.47" stroke-linecap="round" stroke-linejoin="round"/>
<path d="M 24.0 27.0 L 23.79 27.17 L 23.58 27.33 L 23.38 27.5 L 23.17 27.67 L 22.96 27.83 L 22.75 28.0 L 22.54 28.17 L 22.33 28.33 L 22.12 28.5 L 21.92 28.67 L 21.71 28.83 L 21.5 29.0 L 21.29 29.17 L 21.08 29.33 L 20.88 29.5 L 20.67 29.67 L 20.46 29.83 L 20.25 30.0 L 20.04 30.17 L 19.83 30.33 L 19.62 30.5 L 19.42 30.67 L 19.21 30.83 L 19.0 31.0" fill="none" stroke="#111" stroke-width="1.47" stroke-linecap="round" stroke-linejoin="round"/>
<path d="M 7.0 4.0 L 7.23 4.92 L 7.44 5.84 L 7.61 6.78 L 7.75 7.71 L 7.86 8.65 L 7.94 9.6 L 7.99 10.55 L 8.0 11.49 L 7.98 12.44 L 7.94 13.39 L 7.85 14.33 L 7.74 15.27 L 7.6 16.21 L 7.42 17.14 L 7.22 18.07 L 6.98 18.98 L 6.71 19.89 L 6.41 20.79 L 6.09 21.68 L 5.73 22.56 L 5.34 23.43 L 4.93 24.28 L 4.48 25.11 L 4.01 25.94 L 4.0 26.0 L 4.17 26.5 L 4.33 27.0 L 4.5 27.5 L 4.67 28.0 L 4.83 28.5 L 5.0 29.0 L 5.17 29.5 L 5.33 30.0 L 5.5 30.5 L 5.67 31.0 L 5.83 31.5 L 6.0 32.0 L 6.17 32.5 L 6.33 33.0 L 6.5 33.5 L 6.67 34.0 L 6.83 34.5 L 7.0 35.0 L 7.17 35.5 L 7.33 36.0 L 7.5 36.5 L 7.67 37.0 L 7.83 37.5 L 8.0 38.0" fill="none" stroke="#111" stroke-width="1.47" stroke-linecap="round" stroke-linejoin="round"/>
</svg>
