<?xml version="1.0" encoding="UTF-8"?>
<svg xmlns="http://www.w3.org/2000/svg" viewBox="0 0 24.00 31.45">
<path d="M 4.0 8.45 L 4.43 7.8 L 4.92 7.18 L 5.45 6.61 L 6.04 6.08 L 6.67 5.61 L 7.33 5.19 L 8.03 4.83 L 8.76 4.54 L 9.51 4.3 L 10.28 4.14 L 11.06 4.03 L 11.84 4.0 L 12.63 4.03 L 13.41 4.14 L 14.18 4.3 L 14.93 4.54 L 15.65 4.83 L 16.35 5.19 L 17.02 5.61 L 17.65 6.08 L 18.23 6.61 L 18.77 7.18 L 19.26 7.8 L 19.69 8.45" fill="none" stroke="#111" stroke-width="1.10" stroke-linecap="round" stroke-linejoin="round"/>
<path d="M 15.0 5.45 L 15.45 6.13 L 15.77 6.87 L 15.94 7.66 L 15.96 8.47 L 15.83 9.27 L 15.55 10.03 L 15.14 10.72 L 14.6 11.33 L 13.96 11.82 L 13.24 12.19 L 12.46 12.41 L 11.66 12.49 L 10.85 12.41 L 10.08 12.19 L 9.35 11.82 L 8.71 11.33 L 8.18 10.72 L 7.76 10.03 L 7.49 9.27 L 7.36 8.47 L 7.38 7.66 L 7.55 6.87 L 7.87 6.13 L 8.32 5.45" fill="none" stroke="#111" stroke-width="1.10" stroke-linecap="round" stroke-linejoin="round"/>
<path d="M 4.0 8.45 L 4.21 8.5 L 4.42 8.54 L 4.62 8.58 L 4.83 8.62 L 5.04 8.66 L 5.25 8.7 L 5.46 8.75 L 5.67 8.79 L 5.88 8.83 L 6.08 8.87 L 6.29 8.91 L 6.5 8.95 L 6.71 9.0 L 6.92 9.04 L 7.12 9.08 L 7.33 9.12 L 7.54 9.16 L 7.75 9.2 L 7.96 9.25 L 8.17 9.29 L 8.38 9.33 L 8.58 9.37 L 8.79 9.41 L 9.0 9.45" fill="none" stroke="#111" stroke-width="1.10" stroke-linecap="round" stroke-linejoin="round"/>
<path d="M 16.0 9.45 L 16.17 9.41 L 16.33 9.37 L 16.5 9.33 L 16.67 9.29 L 16.83 9.25 L 17.0 9.2 L 17.17 9.16 L 17.33 9.12 L 17.5 9.08 L 17.67 9.04 L 17.83 9.0 L 18.0 8.95 L 18.17 8.91 L 18.33 8.87 L 18.5 8.83 L 18.67 8.79 L 18.83 8.75 L 19.0 8.7 L 19.17 8.66 L 19.33 8.62 L 19.5 8.58 L 19.67 8.54 L 19.83 8.5 L 20.0 8.45" fill="none" stroke="#111" stroke-width="1.10" stroke-linecap="round" stroke-linejoin="round"/>
<path d="M 7.0 13.45 L 7.0 13.62 L 7.0 13.79 L 7.0 13.95 L 7.0 14.12 L 7.0 14.29 L 7.0 14.45 L 7.0 14.62 L 7.0 14.79 L 7.0 14.95 L 7.0 15.12 L 7.0 15.29 L 7.0 15.45 L 7.0 15.62 L 7.0 15.79 L 7.0 15.95 L 7.0 16.12 L 7.0 16.29 L 7.0 16.45 L 7.0 16.62 L 7.0 16.79 L 7.0 16.95 L 7.0 17.12 L 7.0 17.29 L 7.0 17.45" fill="none" stroke="#111" stroke-width="1.10" stroke-linecap="round" stroke-linejoin="round"/>
<path d="M 12.0 15.45 L 12.04 15.66 L 12.08 15.87 L 12.12 16.08 L 12.17 16.29 L 12.21 16.5 L 12.25 16.7 L 12.29 16.91 L 12.33 17.12 L 12.38 17.33 L 12.42 17.54 L 12.46 17.75 L 12.5 17.95 L 12.54 18.16 L 12.58 18.37 L 12.62 18.58 L 12.67 18.79 L 12.71 19.0 L 12.75 19.2 L 12.79 19.41 L 12.83 19.62 L 12.88 19.83 L 12.92 20.04 L 12.96 20.25 L 13.0 20.45" fill="none" stroke="#111" stroke-width="1.10" stroke-linecap="round" stroke-linejoin="round"/>
<path d="M 17.0 13.45 L 17.04 13.58 L 17.08 13.7 L 17.12 13.83 L 17.17 13.95 L 17.21 14.08 L 17.25 14.2 L 17.29 14.33 L 17.33 14.45 L 17.38 14.58 L 17.42 14.7 L 17.46 14.83 L 17.5 14.95 L 17.54 15.08 L 17.58 15.2 L 17.62 15.33 L 17.67 15.45 L 17.71 15.58 L 17.75 15.7 L 17.79 15.83 L 17.83 15.95 L 17.88 16.08 L 17.92 16.2 L 17.96 16.33 L 18.0 16.45" fill="none" stroke="#111" stroke-width="1.10" stroke-linecap="round" stroke-linejoin="round"/>
<path d="M 7.0 21.45 L 7.04 21.62 L 7.08 21.79 L 7.12 21.95 L 7.17 22.12 L 7.21 22.29 L 7.25 22.45 L 7.29 22.62 L 7.33 22.79 L 7.38 22.95 L 7.42 23.12 L 7.46 23.29 L 7.5 23.45 L 7.54 23.62 L 7.58 23.79 L 7.62 23.95 L 7.67 24.12 L 7.71 24.29 L 7.75 24.45 L 7.79 24.62 L 7.83 24.79 L 7.88 24.95 L 7.92 25.12 L 7.96 25.29 L 8.0 25.45" fill="none" stroke="#111" stroke-width="1.10" stroke-linecap="round" stroke-linejoin="round"/>
<path d="M 12.0 22.45 L 12.0 22.66 L 12.0 22.87 L 12.0 23.08 L 12.0 23.29 L 12.0 23.5 L 12.0 23.7 L 12.0 23.91 L 12.0 24.12 L 12.0 24.33 L 12.0 24.54 L 12.0 24.75 L 12.0 24.95 L 12.0 25.16 L 12.0 25.37 L 12.0 25.58 L 12.0 25.79 L 12.0 26.0 L 12.0 26.2 L 12.0 26.41 L 12.0 26.62 L 12.0 26.83 L 12.0 27.04 L 12.0 27.25 L 12.0 27.45" fill="none" stroke="#111" stroke-width="1.10" stroke-linecap="round" stroke-linejoin="round"/>
<path d="M 17.0 20.45 L 17.04 20.66 L 17.08 20.87 L 17.12 21.08 L 17.17 21.29 L 17.21 21.5 L 17.25 21.7 L 17.29 21.91 L 17.33 22.12 L 17.38 22.33 L 17.42 22.54 L 17.46 22.75 L 17.5 22.95 L 17.54 23.16 L 17.58 23.37 L 17.62 23.58 L 17.67 23.79 L 17.71 24.0 L 17.75 24.2 L 17.79 24.41 L 17.83 24.62 L 17.88 24.83 L 17.92 25.04 L 17.96 25.25 L 18.0 25.45" fill="none" stroke="#111" stroke-width="1.10" stroke-linecap="round" stroke-linejoin="round"/>
</svg>
