<?xml version="1.0" encoding="UTF-8"?>
<svg xmlns="http://www.w3.org/2000/svg" viewBox="0 0 30.95 45.00">
<path d="M 14.97 6.0 L 14.97 7.21 L 14.97 8.42 L 14.97 9.62 L 14.97 10.83 L 14.97 12.04 L 14.97 13.25 L 14.97 14.46 L 14.97 15.67 L 14.97 16.88 L 14.97 18.08 L 14.97 19.29 L 14.97 20.5 L 14.97 21.71 L 14.97 22.92 L 14.97 24.12 L 14.97 25.33 L 14.97 26.54 L 14.97 27.75 L 14.97 28.96 L 14.97 30.17 L 14.97 31.38 L 14.97 32.58 L 14.97 33.79 L 14.97 35.0" fill="none" stroke="#111" stroke-width="1.58" stroke-linecap="round" stroke-linejoin="round"/>
<path d="M 14.97 15.0 L 14.8 15.29 L 14.64 15.58 L 14.47 15.88 L 14.3 16.17 L 14.14 16.46 L 13.97 16.75 L 13.8 17.04 L 13.64 17.33 L 13.47 17.62 L 13.3 17.92 L 13.14 18.21 L 12.97 18.5 L 12.8 18.79 L 12.64 19.08 L 12.47 19.38 L 12.3 19.67 L 12.14 19.96 L 11.97 20.25 L 11.8 20.54 L 11.64 20.83 L 11.47 21.12 L 11.3 21.42 L 11.14 21.71 L 10.97 22.0" fill="none" stroke="#111" stroke-width="1.58" stroke-linecap="round" stroke-linejoin="round"/>
<path d="M 14.97 15.0 L 15.14 15.25 L 15.3 15.5 L 15.47 15.75 L 15.64 16.0 L 15.8 16.25 L 15.97 16.5 L 16.14 16.75 L 16.3 17.0 L 16.47 17.25 L 16.64 17.5 L 16.8 17.75 L 16.97 18.0 L 17.14 18.25 L 17.3 18.5 L 17.47 18.75 L 17.64 19.0 L 17.8 19.25 L 17.97 19.5 L 18.14 19.75 L 18.3 20.0 L 18.47 20.25 L 18.64 20.5 L 18.8 20.75 L 18.97 21.0" fill="none" stroke="#111" stroke-width="1.58" stroke-linecap="round" stroke-linejoin="round"/>
<path d="M 11.97 35.0 L 11.61 34.11 L 11.42 33.18 L 11.41 32.22 L 11.57 31.27 L 11.9 30.38 L 12.39 29.55 L 13.02 28.84 L 13.77 28.25 L 14.62 27.8 L 15.54 27.52 L 16.49 27.42 L 17.44 27.49 L 18.37 27.73 L 19.23 28.14 L 20.01 28.7 L 20.67 29.4 L 21.19 30.2 L 21.55 31.08 L 21.75 32.02 L 21.77 32.98 L 21.62 33.92 L 21.29 34.82 L 20.81 35.65 L 20.18 36.37" fill="none" stroke="#111" stroke-width="1.58" stroke-linecap="round" stroke-linejoin="round"/>
<path d="M 8.97 7.0 L 9.05 7.12 L 9.14 7.25 L 9.22 7.38 L 9.3 7.5 L 9.39 7.62 L 9.47 7.75 L 9.55 7.88 L 9.64 8.0 L 9.72 8.12 L 9.8 8.25 L 9.89 8.38 L 9.97 8.5 L 10.05 8.62 L 10.14 8.75 L 10.22 8.88 L 10.3 9.0 L 10.39 9.12 L 10.47 9.25 L 10.55 9.38 L 10.64 9.5 L 10.72 9.62 L 10.8 9.75 L 10.89 9.88 L 10.97 10.0" fill="none" stroke="#111" stroke-width="1.58" stroke-linecap="round" stroke-linejoin="round"/>
<path d="M 17.97 5.0 L 17.97 5.12 L 17.97 5.25 L 17.97 5.38 L 17.97 5.5 L 17.97 5.62 L 17.97 5.75 L 17.97 5.88 L 17.97 6.0 L 17.97 6.12 L 17.97 6.25 L 17.97 6.38 L 17.97 6.5 L 17.97 6.62 L 17.97 6.75 L 17.97 6.88 L 17.97 7.0 L 17.97 7.12 L 17.97 7.25 L 17.97 7.38 L 17.97 7.5 L 17.97 7.62 L 17.97 7.75 L 17.97 7.88 L 17.97 8.0" fill="none" stroke="#111" stroke-width="1.58" stroke-linecap="round" stroke-linejoin="round"/>
<path d="M 21.97 20.0 L 21.97 20.12 L 21.97 20.25 L 21.97 20.38 L 21.97 20.5 L 21.97 20.62 L 21.97 20.75 L 21.97 20.88 L 21.97 21.0 L 21.97 21.12 L 21.97 21.25 L 21.97 21.38 L 21.97 21.5 L 21.97 21.62 L 21.97 21.75 L 21.97 21.88 L 21.97 22.0 L 21.97 22.12 L 21.97 22.25 L 21.97 22.38 L 21.97 22.5 L 21.97 22.62 L 21.97 22.75 L 21.97 22.88 L 21.97 23.0" fill="none" stroke="#111" stroke-width="1.58" stroke-linecap="round" stroke-linejoin="round"/>
<path d="M 13.97 38.0 L 13.97 38.12 L 13.97 38.25 L 13.97 38.38 L 13.97 38.5 L 13.97 38.62 L 13.97 38.75 L 13.97 38.88 L 13.97 39.0 L 13.97 39.12 L 13.97 39.25 L 13.97 39.38 L 13.97 39.5 L 13.97 39.62 L 13.97 39.75 L 13.97 39.88 L 13.97 40.0 L 13.97 40.12 L 13.97 40.25 L 13.97 40.38 L 13.97 40.5 L 13.97 40.62 L 13.97 40.75 L 13.97 40.88 L 13.97 41.0" fill="none" stroke="#111" stroke-width="1.58" stroke-linecap="round" stroke-linejoin="round"/>
<path d="M 21.97 4.0 L 21.58 4.75 L 21.23 5.51 L 20.92 6.3 L 20.66 7.1 L 20.44 7.92 L 20.27 8.74 L 20.14 9.58 L 20.06 10.42 L 20.03 11.26 L 20.04 12.1 L 20.1 12.94 L 20.21 13.78 L 20.37 14.61 L 20.57 15.43 L 20.81 16.24 L 21.1 17.03 L 21.44 17.8 L 21.82 18.56 L 22.23 19.29 L 22.69 20.0 L 23.19 20.68 L 23.73 21.33 L 24.3 21.96 L 24.9 22.54 L 24.97 23.0 L 24.42 23.64 L 23.92 24.32 L 23.47 25.04 L 23.07 25.79 L 22.72 26.56 L 22.43 27.35 L 22.2 28.16 L 22.02 28.99 L 21.9 29.83 L 21.85 30.67 L 21.85 31.52 L 21.91 32.36 L 22.04 33.2 L 22.22 34.03 L 22.46 34.84 L 22.76 35.63 L 23.11 36.4 L 23.52 37.14 L 23.98 37.85 L 24.48 38.53 L 25.04 39.17 L 25.64 39.77 L 26.28 40.32 L 26.95 40.83" fill="none" stroke="#111" stroke-width="1.58" stroke-linecap="round" stroke-linejoin="round"/>
<path d="M 6.97 7.0 L 7.48 7.6 L 7.94 8.24 L 8.36 8.91 L 8.73 9.61 L 9.05 10.33 L 9.31 11.07 L 9.53 11.83 L 9.68 12.6 L 9.79 13.38 L 9.83 14.17 L 9.83 14.96 L 9.76 15.74 L 9.64 16.52 L 9.47 17.29 L 9.24 18.04 L 8.96 18.78 L 8.62 19.49 L 8.24 20.18 L 7.81 20.84 L 7.33 21.47 L 6.81 22.06 L 6.25 22.62 L 5.65 23.13 L 5.02 23.6 L 4.97 24.0 L 5.58 24.53 L 6.15 25.1 L 6.67 25.72 L 7.14 26.38 L 7.55 27.07 L 7.91 27.79 L 8.21 28.54 L 8.45 29.31 L 8.63 30.1 L 8.74 30.9 L 8.79 31.7 L 8.77 32.51 L 8.69 33.31 L 8.55 34.11 L 8.34 34.89 L 8.08 35.65 L 7.75 36.39 L 7.36 37.1 L 6.92 37.77 L 6.43 38.41 L 5.89 39.01 L 5.3 39.56 L 4.67 40.06 L 4.0 40.52" fill="none" stroke="#111" stroke-width="1.58" stroke-linecap="round" stroke-linejoin="round"/>
</svg>
