<?xml version="1.0" encoding="UTF-8"?>
<svg xmlns="http://www.w3.org/2000/svg" viewBox="0 0 28.00 36.54">
<path d="M 6.0 4.0 L 6.62 4.0 L 7.25 4.0 L 7.88 4.0 L 8.5 4.0 L 9.12 4.0 L 9.75 4.0 L 10.38 4.0 L 11.0 4.0 L 11.62 4.0 L 12.25 4.0 L 12.88 4.0 L 13.5 4.0 L 14.12 4.0 L 14.75 4.0 L 15.38 4.0 L 16.0 4.0 L 16.62 4.0 L 17.25 4.0 L 17.88 4.0 L 18.5 4.0 L 19.12 4.0 L 19.75 4.0 L 20.38 4.0 L 21.0 4.0" fill="none" stroke="#111" stroke-width="1.28" stroke-linecap="round" stroke-linejoin="round"/>
<path d="M 5.0 9.0 L 5.79 8.96 L 6.58 8.92 L 7.38 8.88 L 8.17 8.83 L 8.96 8.79 L 9.75 8.75 L 10.54 8.71 L 11.33 8.67 L 12.12 8.62 L 12.92 8.58 L 13.71 8.54 L 14.5 8.5 L 15.29 8.46 L 16.08 8.42 L 16.88 8.38 L 17.67 8.33 L 18.46 8.29 L 19.25 8.25 L 20.04 8.21 L 20.83 8.17 L 21.62 8.12 L 22.42 8.08 L 23.21 8.04 L 24.0 8.0" fill="none" stroke="#111" stroke-width="1.28" stroke-linecap="round" stroke-linejoin="round"/>
<path d="M 14.0 4.0 L 14.0 4.62 L 14.0 5.25 L 14.0 5.88 L 14.0 6.5 L 14.0 7.12 L 14.0 7.75 L 14.0 8.38 L 14.0 9.0 L 14.0 9.62 L 14.0 10.25 L 14.0 10.88 L 14.0 11.5 L 14.0 12.12 L 14.0 12.75 L 14.0 13.38 L 14.0 14.0 L 14.0 14.62 L 14.0 15.25 L 14.0 15.88 L 14.0 16.5 L 14.0 17.12 L 14.0 17.75 L 14.0 18.38 L 14.0 19.0 L 14.0 19.0 L 13.36 19.21 L 12.73 19.46 L 12.13 19.75 L 11.54 20.08 L 10.97 20.44 L 10.42 20.83 L 9.9 21.26 L 9.4 21.71 L 8.94 22.2 L 8.5 22.71 L 8.1 23.25 L 7.73 23.82 L 7.39 24.4 L 7.09 25.01 L 6.83 25.63 L 6.6 26.26 L 6.42 26.91 L 6.27 27.57 L 6.17 28.23 L 6.1 28.9 L 6.08 29.58 L 6.1 30.25 L 6.15 30.92 L 6.25 31.59" fill="none" stroke="#111" stroke-width="1.28" stroke-linecap="round" stroke-linejoin="round"/>
<path d="M 14.0 19.0 L 14.51 19.38 L 15.0 19.79 L 15.45 20.23 L 15.88 20.69 L 16.28 21.19 L 16.65 21.7 L 16.99 22.24 L 17.29 22.8 L 17.55 23.38 L 17.78 23.97 L 17.97 24.58 L 18.13 25.19 L 18.24 25.82 L 18.31 26.45 L 18.35 27.08 L 18.34 27.72 L 18.3 28.35 L 18.21 28.98 L 18.09 29.6 L 17.92 30.22 L 17.72 30.82 L 17.49 31.41 L 17.21 31.98 L 16.9 32.54" fill="none" stroke="#111" stroke-width="1.28" stroke-linecap="round" stroke-linejoin="round"/>
<path d="M 14.0 11.0 L 13.58 11.33 L 13.17 11.67 L 12.75 12.0 L 12.33 12.33 L 11.92 12.67 L 11.5 13.0 L 11.08 13.33 L 10.67 13.67 L 10.25 14.0 L 9.83 14.33 L 9.42 14.67 L 9.0 15.0 L 8.58 15.33 L 8.17 15.67 L 7.75 16.0 L 7.33 16.33 L 6.92 16.67 L 6.5 17.0 L 6.08 17.33 L 5.67 17.67 L 5.25 18.0 L 4.83 18.33 L 4.42 18.67 L 4.0 19.0" fill="none" stroke="#111" stroke-width="1.28" stroke-linecap="round" stroke-linejoin="round"/>
<path d="M 14.0 11.0 L 14.42 11.29 L 14.83 11.58 L 15.25 11.88 L 15.67 12.17 L 16.08 12.46 L 16.5 12.75 L 16.92 13.04 L 17.33 13.33 L 17.75 13.62 L 18.17 13.92 L 18.58 14.21 L 19.0 14.5 L 19.42 14.79 L 19.83 15.08 L 20.25 15.38 L 20.67 15.67 L 21.08 15.96 L 21.5 16.25 L 21.92 16.54 L 22.33 16.83 L 22.75 17.12 L 23.17 17.42 L 23.58 17.71 L 24.0 18.0" fill="none" stroke="#111" stroke-width="1.28" stroke-linecap="round" stroke-linejoin="round"/>
</svg>
