<?xml version="1.0" encoding="UTF-8"?>
<svg xmlns="http://www.w3.org/2000/svg" viewBox="0 0 18.00 34.00">
<path d="M 4.0 4.0 L 4.0 5.08 L 4.0 6.17 L 4.0 7.25 L 4.0 8.33 L 4.0 9.42 L 4.0 10.5 L 4.0 11.58 L 4.0 12.67 L 4.0 13.75 L 4.0 14.83 L 4.0 15.92 L 4.0 17.0 L 4.0 18.08 L 4.0 19.17 L 4.0 20.25 L 4.0 21.33 L 4.0 22.42 L 4.0 23.5 L 4.0 24.58 L 4.0 25.67 L 4.0 26.75 L 4.0 27.83 L 4.0 28.92 L 4.0 30.0" fill="none" stroke="#111" stroke-width="1.19" stroke-linecap="round" stroke-linejoin="round"/>
<path d="M 14.0 4.0 L 14.0 5.08 L 14.0 6.17 L 14.0 7.25 L 14.0 8.33 L 14.0 9.42 L 14.0 10.5 L 14.0 11.58 L 14.0 12.67 L 14.0 13.75 L 14.0 14.83 L 14.0 15.92 L 14.0 17.0 L 14.0 18.08 L 14.0 19.17 L 14.0 20.25 L 14.0 21.33 L 14.0 22.42 L 14.0 23.5 L 14.0 24.58 L 14.0 25.67 L 14.0 26.75 L 14.0 27.83 L 14.0 28.92 L 14.0 30.0" fill="none" stroke="#111" stroke-width="1.19" stroke-linecap="round" stroke-linejoin="round"/>
<path d="M 4.0 4.0 L 4.42 4.0 L 4.83 4.0 L 5.25 4.0 L 5.67 4.0 L 6.08 4.0 L 6.5 4.0 L 6.92 4.0 L 7.33 4.0 L 7.75 4.0 L 8.17 4.0 L 8.58 4.0 L 9.0 4.0 L 9.42 4.0 L 9.83 4.0 L 10.25 4.0 L 10.67 4.0 L 11.08 4.0 L 11.5 4.0 L 11.92 4.0 L 12.33 4.0 L 12.75 4.0 L 13.17 4.0 L 13.58 4.0 L 14.0 4.0" fill="none" stroke="#111" stroke-width="1.19" stroke-linecap="round" stroke-linejoin="round"/>
<path d="M 4.0 30.0 L 4.42 30.0 L 4.83 30.0 L 5.25 30.0 L 5.67 30.0 L 6.08 30.0 L 6.5 30.0 L 6.92 30.0 L 7.33 30.0 L 7.75 30.0 L 8.17 30.0 L 8.58 30.0 L 9.0 30.0 L 9.42 30.0 L 9.83 30.0 L 10.25 30.0 L 10.67 30.0 L 11.08 30.0 L 11.5 30.0 L 11.92 30.0 L 12.33 30.0 L 12.75 30.0 L 13.17 30.0 L 13.58 30.0 L 14.0 30.0" fill="none" stroke="#111" stroke-width="1.19" stroke-linecap="round" stroke-linejoin="round"/>
<path d="M 9.0 12.0 L 8.79 12.29 L 8.58 12.58 L 8.38 12.88 L 8.17 13.17 L 7.96 13.46 L 7.75 13.75 L 7.54 14.04 L 7.33 14.33 L 7.12 14.62 L 6.92 14.92 L 6.71 15.21 L 6.5 15.5 L 6.29 15.79 L 6.08 16.08 L 5.88 16.38 L 5.67 16.67 L 5.46 16.96 L 5.25 17.25 L 5.04 17.54 L 4.83 17.83 L 4.63 18.12 L 4.42 18.42 L 4.21 18.71 L 4.0 19.0" fill="none" stroke="#111" stroke-width="1.19" stroke-linecap="round" stroke-linejoin="round"/>
<path d="M 9.0 12.0 L 9.21 12.33 L 9.42 12.67 L 9.62 13.0 L 9.83 13.33 L 10.04 13.67 L 10.25 14.0 L 10.46 14.33 L 10.67 14.67 L 10.88 15.0 L 11.08 15.33 L 11.29 15.67 L 11.5 16.0 L 11.71 16.33 L 11.92 16.67 L 12.12 17.0 L 12.33 17.33 L 12.54 17.67 L 12.75 18.0 L 12.96 18.33 L 13.17 18.67 L 13.38 19.0 L 13.58 19.33 L 13.79 19.67 L 14.0 20.0" fill="none" stroke="#111" stroke-width="1.19" stroke-linecap="round" stroke-linejoin="round"/>
<path d="M 9.0 7.0 L 8.79 7.21 L 8.58 7.42 L 8.38 7.62 L 8.17 7.83 L 7.96 8.04 L 7.75 8.25 L 7.54 8.46 L 7.33 8.67 L 7.12 8.88 L 6.92 9.08 L 6.71 9.29 L 6.5 9.5 L 6.29 9.71 L 6.08 9.92 L 5.88 10.12 L 5.67 10.33 L 5.46 10.54 L 5.25 10.75 L 5.04 10.96 L 4.83 11.17 L 4.62 11.38 L 4.42 11.58 L 4.21 11.79 L 4.0 12.0" fill="none" stroke="#111" stroke-width="1.19" stroke-linecap="round" stroke-linejoin="round"/>
<path d="M 9.0 7.0 L 9.21 7.21 L 9.42 7.42 L 9.62 7.62 L 9.83 7.83 L 10.04 8.04 L 10.25 8.25 L 10.46 8.46 L 10.67 8.67 L 10.88 8.88 L 11.08 9.08 L 11.29 9.29 L 11.5 9.5 L 11.71 9.71 L 11.92 9.92 L 12.12 10.12 L 12.33 10.33 L 12.54 10.54 L 12.75 10.75 L 12.96 10.96 L 13.17 11.17 L 13.38 11.38 L 13.58 11.58 L 13.79 11.79 L 14.0 12.0" fill="none" stroke="#111" stroke-width="1.19" stroke-linecap="round" stroke-linejoin="round"/>
<path d="M 9.0 18.0 L 8.79 18.33 L 8.58 18.67 L 8.38 19.0 L 8.17 19.33 L 7.96 19.67 L 7.75 20.0 L 7.54 20.33 L 7.33 20.67 L 7.12 21.0 L 6.92 21.33 L 6.71 21.67 L 6.5 22.0 L 6.29 22.33 L 6.08 22.67 L 5.88 23.0 L 5.67 23.33 L 5.46 23.67 L 5.25 24.0 L 5.04 24.33 L 4.83 24.67 L 4.63 25.0 L 4.42 25.33 L 4.21 25.67 L 4.0 26.0" fill="none" stroke="#111" stroke-width="1.19" stroke-linecap="round" stroke-linejoin="round"/>
<path d="M 9.0 18.0 L 9.21 18.33 L 9.42 18.67 L 9.62 19.0 L 9.83 19.33 L 10.04 19.67 L 10.25 20.0 L 10.46 20.33 L 10.67 20.67 L 10.88 21.0 L 11.08 21.33 L 11.29 21.67 L 11.5 22.0 L 11.71 22.33 L 11.92 22.67 L 12.12 23.0 L 12.33 23.33 L 12.54 23.67 L 12.75 24.0 L 12.96 24.33 L 13.17 24.67 L 13.38 25.0 L 13.58 25.33 L 13.79 25.67 L 14.0 26.0" fill="none" stroke="#111" stroke-width="1.19" stroke-linecap="round" stroke-linejoin="round"/>
</svg>
