<?xml version="1.0" encoding="UTF-8"?>
<svg xmlns="http://www.w3.org/2000/svg" viewBox="0 0 30.19 47.37">
<path d="M 12.0 12.37 L 11.92 12.62 L 11.83 12.87 L 11.75 13.12 L 11.67 13.37 L 11.58 13.62 L 11.5 13.87 L 11.42 14.12 L 11.33 14.37 L 11.25 14.62 L 11.17 14.87 L 11.08 15.12 L 11.0 15.37 L 10.92 15.62 L 10.83 15.87 L 10.75 16.12 L 10.67 16.37 L 10.58 16.62 L 10.5 16.87 L 10.42 17.12 L 10.33 17.37 L 10.25 17.62 L 10.17 17.87 L 10.08 18.12 L 10.0 18.37 L 10.0 18.37 L 10.04 18.54 L 10.08 18.71 L 10.12 18.87 L 10.17 19.04 L 10.21 19.21 L 10.25 19.37 L 10.29 19.54 L 10.33 19.71 L 10.38 19.87 L 10.42 20.04 L 10.46 20.21 L 10.5 20.37 L 10.54 20.54 L 10.58 20.71 L 10.62 20.87 L 10.67 21.04 L 10.71 21.21 L 10.75 21.37 L 10.79 21.54 L 10.83 21.71 L 10.88 21.87 L 10.92 22.04 L 10.96 22.21 L 11.0 22.37 L 11.0 22.37 L 11.53 22.59 L 12.08 22.74 L 12.64 22.83 L 13.21 22.85 L 13.78 22.81 L 14.34 22.71 L 14.88 22.54 L 15.41 22.31 L 15.9 22.03 L 16.35 21.68 L 16.77 21.29 L 17.14 20.86 L 17.45 20.38 L 17.71 19.87 L 17.91 19.34 L 18.05 18.79 L 18.12 18.22 L 18.13 17.65 L 18.08 17.09 L 17.95 16.53 L 17.77 15.99 L 17.53 15.47 L 17.23 14.99 L 16.87 14.54 L 17.0 14.37 L 16.92 14.25 L 16.83 14.12 L 16.75 14.0 L 16.67 13.87 L 16.58 13.75 L 16.5 13.62 L 16.42 13.5 L 16.33 13.37 L 16.25 13.25 L 16.17 13.12 L 16.08 13.0 L 16.0 12.87 L 15.92 12.75 L 15.83 12.62 L 15.75 12.5 L 15.67 12.37 L 15.58 12.25 L 15.5 12.12 L 15.42 12.0 L 15.33 11.87 L 15.25 11.75 L 15.17 11.62 L 15.08 11.5 L 15.0 11.37 L 15.0 11.37 L 14.88 11.41 L 14.75 11.46 L 14.62 11.5 L 14.5 11.54 L 14.38 11.58 L 14.25 11.62 L 14.12 11.66 L 14.0 11.71 L 13.88 11.75 L 13.75 11.79 L 13.62 11.83 L 13.5 11.87 L 13.38 11.91 L 13.25 11.96 L 13.12 12.0 L 13.0 12.04 L 12.88 12.08 L 12.75 12.12 L 12.62 12.16 L 12.5 12.21 L 12.38 12.25 L 12.25 12.29 L 12.12 12.33 L 12.0 12.37" fill="none" stroke="#111" stroke-width="1.66" stroke-linecap="round" stroke-linejoin="round"/>
<path d="M 11.0 15.37 L 11.29 15.46 L 11.58 15.54 L 11.88 15.62 L 12.17 15.71 L 12.46 15.79 L 12.75 15.87 L 13.04 15.96 L 13.33 16.04 L 13.62 16.12 L 13.92 16.21 L 14.21 16.29 L 14.5 16.37 L 14.79 16.46 L 15.08 16.54 L 15.38 16.62 L 15.67 16.71 L 15.96 16.79 L 16.25 16.87 L 16.54 16.96 L 16.83 17.04 L 17.12 17.12 L 17.42 17.21 L 17.71 17.29 L 18.0 17.37" fill="none" stroke="#111" stroke-width="1.66" stroke-linecap="round" stroke-linejoin="round"/>
<path d="M 10.0 18.37 L 10.21 18.5 L 10.42 18.62 L 10.62 18.75 L 10.83 18.87 L 11.04 19.0 L 11.25 19.12 L 11.46 19.25 L 11.67 19.37 L 11.88 19.5 L 12.08 19.62 L 12.29 19.75 L 12.5 19.87 L 12.71 20.0 L 12.92 20.12 L 13.12 20.25 L 13.33 20.37 L 13.54 20.5 L 13.75 20.62 L 13.96 20.75 L 14.17 20.87 L 14.38 21.0 L 14.58 21.12 L 14.79 21.25 L 15.0 21.37" fill="none" stroke="#111" stroke-width="1.66" stroke-linecap="round" stroke-linejoin="round"/>
<path d="M 18.0 16.37 L 18.29 15.93 L 18.53 15.47 L 18.74 14.98 L 18.89 14.48 L 19.01 13.96 L 19.07 13.44 L 19.09 12.91 L 19.06 12.39 L 18.98 11.87 L 18.86 11.36 L 18.69 10.86 L 18.48 10.38 L 18.22 9.92 L 17.92 9.48 L 17.59 9.08 L 17.22 8.7 L 16.81 8.36 L 16.38 8.06 L 15.93 7.8 L 15.45 7.58 L 14.95 7.41 L 14.44 7.28 L 13.92 7.19 L 13.39 7.16" fill="none" stroke="#111" stroke-width="1.66" stroke-linecap="round" stroke-linejoin="round"/>
<path d="M 5.0 10.37 L 5.0 10.54 L 5.0 10.71 L 5.0 10.87 L 5.0 11.04 L 5.0 11.21 L 5.0 11.37 L 5.0 11.54 L 5.0 11.71 L 5.0 11.87 L 5.0 12.04 L 5.0 12.21 L 5.0 12.37 L 5.0 12.54 L 5.0 12.71 L 5.0 12.87 L 5.0 13.04 L 5.0 13.21 L 5.0 13.37 L 5.0 13.54 L 5.0 13.71 L 5.0 13.87 L 5.0 14.04 L 5.0 14.21 L 5.0 14.37" fill="none" stroke="#111" stroke-width="1.66" stroke-linecap="round" stroke-linejoin="round"/>
<path d="M 6.0 8.37 L 6.12 8.54 L 6.25 8.71 L 6.38 8.87 L 6.5 9.04 L 6.62 9.21 L 6.75 9.37 L 6.88 9.54 L 7.0 9.71 L 7.12 9.87 L 7.25 10.04 L 7.38 10.21 L 7.5 10.37 L 7.62 10.54 L 7.75 10.71 L 7.88 10.87 L 8.0 11.04 L 8.12 11.21 L 8.25 11.37 L 8.38 11.54 L 8.5 11.71 L 8.62 11.87 L 8.75 12.04 L 8.88 12.21 L 9.0 12.37 L 9.0 12.37 L 8.92 12.71 L 8.83 13.04 L 8.75 13.37 L 8.67 13.71 L 8.58 14.04 L 8.5 14.37 L 8.42 14.71 L 8.33 15.04 L 8.25 15.37 L 8.17 15.71 L 8.08 16.04 L 8.0 16.37 L 7.92 16.71 L 7.83 17.04 L 7.75 17.37 L 7.67 17.71 L 7.58 18.04 L 7.5 18.37 L 7.42 18.71 L 7.33 19.04 L 7.25 19.37 L 7.17 19.71 L 7.08 20.04 L 7.0 20.37 L 7.0 20.37 L 7.08 20.41 L 7.17 20.46 L 7.25 20.5 L 7.33 20.54 L 7.42 20.58 L 7.5 20.62 L 7.58 20.66 L 7.67 20.71 L 7.75 20.75 L 7.83 20.79 L 7.92 20.83 L 8.0 20.87 L 8.08 20.91 L 8.17 20.96 L 8.25 21.0 L 8.33 21.04 L 8.42 21.08 L 8.5 21.12 L 8.58 21.16 L 8.67 21.21 L 8.75 21.25 L 8.83 21.29 L 8.92 21.33 L 9.0 21.37" fill="none" stroke="#111" stroke-width="1.66" stroke-linecap="round" stroke-linejoin="round"/>
<path d="M 9.0 13.37 L 9.04 13.41 L 9.08 13.46 L 9.12 13.5 L 9.17 13.54 L 9.21 13.58 L 9.25 13.62 L 9.29 13.66 L 9.33 13.71 L 9.38 13.75 L 9.42 13.79 L 9.46 13.83 L 9.5 13.87 L 9.54 13.91 L 9.58 13.96 L 9.62 14.0 L 9.67 14.04 L 9.71 14.08 L 9.75 14.12 L 9.79 14.16 L 9.83 14.21 L 9.88 14.25 L 9.92 14.29 L 9.96 14.33 L 10.0 14.37" fill="none" stroke="#111" stroke-width="1.66" stroke-linecap="round" stroke-linejoin="round"/>
<path d="M 8.0 17.37 L 8.04 17.41 L 8.08 17.46 L 8.12 17.5 L 8.17 17.54 L 8.21 17.58 L 8.25 17.62 L 8.29 17.66 L 8.33 17.71 L 8.38 17.75 L 8.42 17.79 L 8.46 17.83 L 8.5 17.87 L 8.54 17.91 L 8.58 17.96 L 8.62 18.0 L 8.67 18.04 L 8.71 18.08 L 8.75 18.12 L 8.79 18.16 L 8.83 18.21 L 8.88 18.25 L 8.92 18.29 L 8.96 18.33 L 9.0 18.37" fill="none" stroke="#111" stroke-width="1.66" stroke-linecap="round" stroke-linejoin="round"/>
<path d="M 13.0 11.37 L 12.99 10.56 L 13.07 9.76 L 13.24 8.97 L 13.51 8.2 L 13.87 7.47 L 14.31 6.79 L 14.83 6.17 L 15.41 5.61 L 16.06 5.13 L 16.76 4.72 L 17.51 4.4 L 18.29 4.17 L 19.08 4.04 L 19.89 4.0 L 20.7 4.06 L 21.5 4.21 L 22.27 4.45 L 23.01 4.79 L 23.7 5.2 L 24.34 5.7 L 24.92 6.27 L 25.42 6.9 L 25.85 7.59 L 26.19 8.33" fill="none" stroke="#111" stroke-width="1.66" stroke-linecap="round" stroke-linejoin="round"/>
<path d="M 14.0 11.37 L 14.04 11.21 L 14.08 11.04 L 14.12 10.87 L 14.17 10.71 L 14.21 10.54 L 14.25 10.37 L 14.29 10.21 L 14.33 10.04 L 14.38 9.87 L 14.42 9.71 L 14.46 9.54 L 14.5 9.37 L 14.54 9.21 L 14.58 9.04 L 14.62 8.87 L 14.67 8.71 L 14.71 8.54 L 14.75 8.37 L 14.79 8.21 L 14.83 8.04 L 14.88 7.87 L 14.92 7.71 L 14.96 7.54 L 15.0 7.37 L 15.0 7.37 L 15.39 7.16 L 15.79 6.98 L 16.2 6.83 L 16.62 6.7 L 17.05 6.61 L 17.49 6.55 L 17.93 6.52 L 18.37 6.52 L 18.81 6.55 L 19.24 6.61 L 19.67 6.7 L 20.09 6.83 L 20.51 6.98 L 20.91 7.17 L 21.29 7.38 L 21.66 7.62 L 22.02 7.88 L 22.35 8.17 L 22.66 8.48 L 22.95 8.81 L 23.21 9.16 L 23.45 9.53 L 23.66 9.92 L 23.84 10.32" fill="none" stroke="#111" stroke-width="1.66" stroke-linecap="round" stroke-linejoin="round"/>
<path d="M 18.0 16.37 L 18.21 17.0 L 18.42 17.62 L 18.62 18.25 L 18.83 18.87 L 19.04 19.5 L 19.25 20.12 L 19.46 20.75 L 19.67 21.37 L 19.88 22.0 L 20.08 22.62 L 20.29 23.25 L 20.5 23.87 L 20.71 24.5 L 20.92 25.12 L 21.12 25.75 L 21.33 26.37 L 21.54 27.0 L 21.75 27.62 L 21.96 28.25 L 22.17 28.87 L 22.38 29.5 L 22.58 30.12 L 22.79 30.75 L 23.0 31.37 L 23.0 31.37 L 22.52 31.12 L 22.01 30.93 L 21.49 30.79 L 20.95 30.72 L 20.41 30.71 L 19.87 30.77 L 19.34 30.89 L 18.83 31.06 L 18.34 31.3 L 17.89 31.59 L 17.47 31.94 L 17.09 32.33 L 16.76 32.76 L 16.49 33.23 L 16.27 33.72 L 16.11 34.24 L 16.01 34.77 L 15.97 35.31 L 16.0 35.85 L 16.09 36.39 L 16.25 36.91 L 16.46 37.41 L 16.73 37.88 L 17.05 38.31 L 17.0 38.37 L 17.25 38.25 L 17.5 38.12 L 17.75 38.0 L 18.0 37.87 L 18.25 37.75 L 18.5 37.62 L 18.75 37.5 L 19.0 37.37 L 19.25 37.25 L 19.5 37.12 L 19.75 37.0 L 20.0 36.87 L 20.25 36.75 L 20.5 36.62 L 20.75 36.5 L 21.0 36.37 L 21.25 36.25 L 21.5 36.12 L 21.75 36.0 L 22.0 35.87 L 22.25 35.75 L 22.5 35.62 L 22.75 35.5 L 23.0 35.37 L 23.0 35.37 L 22.88 35.71 L 22.75 36.04 L 22.62 36.37 L 22.5 36.71 L 22.38 37.04 L 22.25 37.37 L 22.12 37.71 L 22.0 38.04 L 21.88 38.37 L 21.75 38.71 L 21.62 39.04 L 21.5 39.37 L 21.38 39.71 L 21.25 40.04 L 21.12 40.37 L 21.0 40.71 L 20.88 41.04 L 20.75 41.37 L 20.62 41.71 L 20.5 42.04 L 20.38 42.37 L 20.25 42.71 L 20.12 43.04 L 20.0 43.37" fill="none" stroke="#111" stroke-width="1.66" stroke-linecap="round" stroke-linejoin="round"/>
<path d="M 6.0 22.37 L 6.08 22.46 L 6.17 22.54 L 6.25 22.62 L 6.33 22.71 L 6.42 22.79 L 6.5 22.87 L 6.58 22.96 L 6.67 23.04 L 6.75 23.12 L 6.83 23.21 L 6.92 23.29 L 7.0 23.37 L 7.08 23.46 L 7.17 23.54 L 7.25 23.62 L 7.33 23.71 L 7.42 23.79 L 7.5 23.87 L 7.58 23.96 L 7.67 24.04 L 7.75 24.12 L 7.83 24.21 L 7.92 24.29 L 8.0 24.37" fill="none" stroke="#111" stroke-width="1.66" stroke-linecap="round" stroke-linejoin="round"/>
<path d="M 9.0 25.37 L 9.42 25.73 L 9.86 26.05 L 10.33 26.33 L 10.83 26.58 L 11.34 26.77 L 11.87 26.93 L 12.41 27.04 L 12.95 27.1 L 13.5 27.12 L 14.05 27.09 L 14.6 27.01 L 15.13 26.89 L 15.65 26.72 L 16.16 26.51 L 16.65 26.26 L 17.12 25.97 L 17.55 25.63 L 17.96 25.27 L 18.34 24.87 L 18.68 24.43 L 18.98 23.98 L 19.24 23.49 L 19.46 22.99 L 19.64 22.47" fill="none" stroke="#111" stroke-width="1.66" stroke-linecap="round" stroke-linejoin="round"/>
<path d="M 6.0 27.37 L 5.66 27.86 L 5.38 28.4 L 5.17 28.96 L 5.04 29.54 L 4.98 30.14 L 5.0 30.74 L 5.09 31.33 L 5.26 31.91 L 5.5 32.46 L 5.81 32.97 L 6.18 33.44 L 6.61 33.86 L 7.09 34.22 L 7.61 34.51 L 8.17 34.74 L 8.75 34.9 L 9.34 34.98 L 9.94 34.98 L 10.54 34.9 L 11.12 34.76 L 11.68 34.53 L 12.2 34.24 L 12.68 33.89 L 13.12 33.47 L 13.0 33.37 L 13.12 33.25 L 13.25 33.12 L 13.38 33.0 L 13.5 32.87 L 13.62 32.75 L 13.75 32.62 L 13.88 32.5 L 14.0 32.37 L 14.12 32.25 L 14.25 32.12 L 14.38 32.0 L 14.5 31.87 L 14.62 31.75 L 14.75 31.62 L 14.88 31.5 L 15.0 31.37 L 15.12 31.25 L 15.25 31.12 L 15.38 31.0 L 15.5 30.87 L 15.62 30.75 L 15.75 30.62 L 15.88 30.5 L 16.0 30.37 L 16.0 30.37 L 15.96 30.29 L 15.92 30.21 L 15.88 30.12 L 15.83 30.04 L 15.79 29.96 L 15.75 29.87 L 15.71 29.79 L 15.67 29.71 L 15.62 29.62 L 15.58 29.54 L 15.54 29.46 L 15.5 29.37 L 15.46 29.29 L 15.42 29.21 L 15.38 29.12 L 15.33 29.04 L 15.29 28.96 L 15.25 28.87 L 15.21 28.79 L 15.17 28.71 L 15.12 28.62 L 15.08 28.54 L 15.04 28.46 L 15.0 28.37 L 15.0 28.37 L 15.0 28.37 L 15.0 28.37 L 15.0 28.37 L 15.0 28.37 L 15.0 28.37 L 15.0 28.37 L 15.0 28.37 L 15.0 28.37 L 15.0 28.37 L 15.0 28.37 L 15.0 28.37 L 15.0 28.37 L 15.0 28.37 L 15.0 28.37 L 15.0 28.37 L 15.0 28.37 L 15.0 28.37 L 15.0 28.37 L 15.0 28.37 L 15.0 28.37 L 15.0 28.37 L 15.0 28.37 L 15.0 28.37 L 15.0 28.37" fill="none" stroke="#111" stroke-width="1.66" stroke-linecap="round" stroke-linejoin="round"/>
<path d="M 8.0 34.37 L 7.96 34.54 L 7.92 34.71 L 7.88 34.87 L 7.83 35.04 L 7.79 35.21 L 7.75 35.37 L 7.71 35.54 L 7.67 35.71 L 7.62 35.87 L 7.58 36.04 L 7.54 36.21 L 7.5 36.37 L 7.46 36.54 L 7.42 36.71 L 7.38 36.87 L 7.33 37.04 L 7.29 37.21 L 7.25 37.37 L 7.21 37.54 L 7.17 37.71 L 7.12 37.87 L 7.08 38.04 L 7.04 38.21 L 7.0 38.37" fill="none" stroke="#111" stroke-width="1.66" stroke-linecap="round" stroke-linejoin="round"/>
<path d="M 12.0 34.37 L 12.04 34.54 L 12.08 34.71 L 12.12 34.87 L 12.17 35.04 L 12.21 35.21 L 12.25 35.37 L 12.29 35.54 L 12.33 35.71 L 12.38 35.87 L 12.42 36.04 L 12.46 36.21 L 12.5 36.37 L 12.54 36.54 L 12.58 36.71 L 12.62 36.87 L 12.67 37.04 L 12.71 37.21 L 12.75 37.37 L 12.79 37.54 L 12.83 37.71 L 12.88 37.87 L 12.92 38.04 L 12.96 38.21 L 13.0 38.37" fill="none" stroke="#111" stroke-width="1.66" stroke-linecap="round" stroke-linejoin="round"/>
<path d="M 4.0 37.37 L 4.36 37.74 L 4.74 38.09 L 5.14 38.41 L 5.56 38.71 L 6.0 38.98 L 6.45 39.22 L 6.92 39.43 L 7.4 39.62 L 7.89 39.77 L 8.39 39.9 L 8.9 39.99 L 9.41 40.05 L 9.92 40.08 L 10.43 40.08 L 10.95 40.05 L 11.46 39.99 L 11.96 39.89 L 12.46 39.77 L 12.95 39.61 L 13.43 39.42 L 13.9 39.21 L 14.35 38.96 L 14.79 38.69 L 15.21 38.39" fill="none" stroke="#111" stroke-width="1.66" stroke-linecap="round" stroke-linejoin="round"/>
<path d="M 15.0 11.37 L 15.14 10.95 L 15.33 10.55 L 15.57 10.17 L 15.84 9.81 L 16.15 9.49 L 16.49 9.2 L 16.86 8.95 L 17.25 8.74 L 17.67 8.58 L 18.1 8.46 L 18.54 8.39 L 18.98 8.36 L 19.43 8.39 L 19.87 8.46 L 20.3 8.58 L 20.71 8.74 L 21.11 8.95 L 21.48 9.2 L 21.82 9.49 L 22.13 9.81 L 22.4 10.17 L 22.63 10.55 L 22.82 10.95 L 22.97 11.37" fill="none" stroke="#111" stroke-width="1.66" stroke-linecap="round" stroke-linejoin="round"/>
</svg>
