<?xml version="1.0" encoding="UTF-8"?>
<svg xmlns="http://www.w3.org/2000/svg" viewBox="0 0 28.00 35.73">
<path d="M 5.0 4.0 L 5.42 4.0 L 5.83 4.0 L 6.25 4.0 L 6.67 4.0 L 7.08 4.0 L 7.5 4.0 L 7.92 4.0 L 8.33 4.0 L 8.75 4.0 L 9.17 4.0 L 9.58 4.0 L 10.0 4.0 L 10.42 4.0 L 10.83 4.0 L 11.25 4.0 L 11.67 4.0 L 12.08 4.0 L 12.5 4.0 L 12.92 4.0 L 13.33 4.0 L 13.75 4.0 L 14.17 4.0 L 14.58 4.0 L 15.0 4.0" fill="none" stroke="#111" stroke-width="1.25" stroke-linecap="round" stroke-linejoin="round"/>
<path d="M 7.0 4.0 L 7.08 4.25 L 7.17 4.5 L 7.25 4.75 L 7.33 5.0 L 7.42 5.25 L 7.5 5.5 L 7.58 5.75 L 7.67 6.0 L 7.75 6.25 L 7.83 6.5 L 7.92 6.75 L 8.0 7.0 L 8.08 7.25 L 8.17 7.5 L 8.25 7.75 L 8.33 8.0 L 8.42 8.25 L 8.5 8.5 L 8.58 8.75 L 8.67 9.0 L 8.75 9.25 L 8.83 9.5 L 8.92 9.75 L 9.0 10.0 L 9.0 10.0 L 9.17 9.75 L 9.33 9.5 L 9.5 9.25 L 9.67 9.0 L 9.83 8.75 L 10.0 8.5 L 10.17 8.25 L 10.33 8.0 L 10.5 7.75 L 10.67 7.5 L 10.83 7.25 L 11.0 7.0 L 11.17 6.75 L 11.33 6.5 L 11.5 6.25 L 11.67 6.0 L 11.83 5.75 L 12.0 5.5 L 12.17 5.25 L 12.33 5.0 L 12.5 4.75 L 12.67 4.5 L 12.83 4.25 L 13.0 4.0" fill="none" stroke="#111" stroke-width="1.25" stroke-linecap="round" stroke-linejoin="round"/>
<path d="M 4.0 10.0 L 4.42 10.0 L 4.83 10.0 L 5.25 10.0 L 5.67 10.0 L 6.08 10.0 L 6.5 10.0 L 6.92 10.0 L 7.33 10.0 L 7.75 10.0 L 8.17 10.0 L 8.58 10.0 L 9.0 10.0 L 9.42 10.0 L 9.83 10.0 L 10.25 10.0 L 10.67 10.0 L 11.08 10.0 L 11.5 10.0 L 11.92 10.0 L 12.33 10.0 L 12.75 10.0 L 13.17 10.0 L 13.58 10.0 L 14.0 10.0" fill="none" stroke="#111" stroke-width="1.25" stroke-linecap="round" stroke-linejoin="round"/>
<path d="M 9.0 10.0 L 8.88 10.38 L 8.75 10.75 L 8.62 11.12 L 8.5 11.5 L 8.38 11.88 L 8.25 12.25 L 8.12 12.62 L 8.0 13.0 L 7.88 13.38 L 7.75 13.75 L 7.62 14.12 L 7.5 14.5 L 7.37 14.88 L 7.25 15.25 L 7.12 15.62 L 7.0 16.0 L 6.87 16.38 L 6.75 16.75 L 6.62 17.12 L 6.5 17.5 L 6.37 17.88 L 6.25 18.25 L 6.12 18.62 L 6.0 19.0" fill="none" stroke="#111" stroke-width="1.25" stroke-linecap="round" stroke-linejoin="round"/>
<path d="M 9.0 10.0 L 9.38 10.85 L 9.73 11.72 L 10.05 12.6 L 10.34 13.49 L 10.6 14.39 L 10.82 15.3 L 11.0 16.21 L 11.16 17.14 L 11.28 18.06 L 11.36 19.0 L 11.41 19.93 L 11.43 20.87 L 11.41 21.8 L 11.36 22.73 L 11.28 23.67 L 11.16 24.59 L 11.0 25.52 L 10.82 26.43 L 10.6 27.34 L 10.34 28.24 L 10.05 29.13 L 9.73 30.01 L 9.38 30.88 L 9.0 31.73" fill="none" stroke="#111" stroke-width="1.25" stroke-linecap="round" stroke-linejoin="round"/>
<path d="M 17.0 5.0 L 17.25 5.0 L 17.5 5.0 L 17.75 5.0 L 18.0 5.0 L 18.25 5.0 L 18.5 5.0 L 18.75 5.0 L 19.0 5.0 L 19.25 5.0 L 19.5 5.0 L 19.75 5.0 L 20.0 5.0 L 20.25 5.0 L 20.5 5.0 L 20.75 5.0 L 21.0 5.0 L 21.25 5.0 L 21.5 5.0 L 21.75 5.0 L 22.0 5.0 L 22.25 5.0 L 22.5 5.0 L 22.75 5.0 L 23.0 5.0" fill="none" stroke="#111" stroke-width="1.25" stroke-linecap="round" stroke-linejoin="round"/>
<path d="M 18.0 5.0 L 17.91 5.44 L 17.88 5.89 L 17.93 6.33 L 18.04 6.77 L 18.22 7.18 L 18.46 7.56 L 18.76 7.89 L 19.1 8.18 L 19.48 8.41 L 19.9 8.58 L 20.34 8.68 L 20.78 8.72 L 21.23 8.68 L 21.67 8.58 L 22.08 8.41 L 22.46 8.18 L 22.81 7.89 L 23.1 7.56 L 23.34 7.18 L 23.52 6.77 L 23.64 6.33 L 23.68 5.89 L 23.66 5.44 L 23.56 5.0" fill="none" stroke="#111" stroke-width="1.25" stroke-linecap="round" stroke-linejoin="round"/>
<path d="M 16.0 10.0 L 16.33 10.0 L 16.67 10.0 L 17.0 10.0 L 17.33 10.0 L 17.67 10.0 L 18.0 10.0 L 18.33 10.0 L 18.67 10.0 L 19.0 10.0 L 19.33 10.0 L 19.67 10.0 L 20.0 10.0 L 20.33 10.0 L 20.67 10.0 L 21.0 10.0 L 21.33 10.0 L 21.67 10.0 L 22.0 10.0 L 22.33 10.0 L 22.67 10.0 L 23.0 10.0 L 23.33 10.0 L 23.67 10.0 L 24.0 10.0" fill="none" stroke="#111" stroke-width="1.25" stroke-linecap="round" stroke-linejoin="round"/>
<path d="M 20.0 10.0 L 19.79 10.38 L 19.58 10.75 L 19.38 11.12 L 19.17 11.5 L 18.96 11.88 L 18.75 12.25 L 18.54 12.62 L 18.33 13.0 L 18.12 13.38 L 17.92 13.75 L 17.71 14.12 L 17.5 14.5 L 17.29 14.88 L 17.08 15.25 L 16.88 15.63 L 16.67 16.0 L 16.46 16.38 L 16.25 16.75 L 16.04 17.12 L 15.83 17.5 L 15.62 17.88 L 15.42 18.25 L 15.21 18.62 L 15.0 19.0" fill="none" stroke="#111" stroke-width="1.25" stroke-linecap="round" stroke-linejoin="round"/>
<path d="M 18.0 13.0 L 18.55 13.66 L 19.06 14.36 L 19.52 15.09 L 19.92 15.85 L 20.27 16.64 L 20.57 17.45 L 20.8 18.28 L 20.98 19.12 L 21.1 19.98 L 21.16 20.84 L 21.16 21.7 L 21.1 22.56 L 20.98 23.41 L 20.8 24.26 L 20.56 25.08 L 20.27 25.89 L 19.92 26.68 L 19.51 27.44 L 19.06 28.17 L 18.55 28.87 L 18.0 29.53 L 17.4 30.15 L 16.76 30.73 L 16.08 31.26" fill="none" stroke="#111" stroke-width="1.25" stroke-linecap="round" stroke-linejoin="round"/>
</svg>
