<?xml version="1.0" encoding="UTF-8"?>
<svg xmlns="http://www.w3.org/2000/svg" viewBox="0 0 23.20 37.86">
<path d="M 8.31 11.86 L 7.96 11.01 L 7.76 10.12 L 7.71 9.2 L 7.82 8.29 L 8.09 7.41 L 8.5 6.59 L 9.04 5.85 L 9.7 5.21 L 10.46 4.69 L 11.3 4.31 L 12.19 4.08 L 13.1 4.0 L 14.02 4.08 L 14.91 4.31 L 15.74 4.69 L 16.5 5.21 L 17.16 5.85 L 17.71 6.59 L 18.12 7.41 L 18.38 8.29 L 18.49 9.2 L 18.45 10.12 L 18.25 11.01 L 17.9 11.86" fill="none" stroke="#111" stroke-width="1.33" stroke-linecap="round" stroke-linejoin="round"/>
<path d="M 8.31 6.86 L 8.83 6.84 L 9.35 6.83 L 9.87 6.84 L 10.39 6.88 L 10.9 6.94 L 11.42 7.02 L 11.93 7.12 L 12.43 7.24 L 12.93 7.38 L 13.43 7.55 L 13.91 7.73 L 14.39 7.94 L 14.86 8.16 L 15.32 8.41 L 15.77 8.67 L 16.2 8.95 L 16.63 9.25 L 17.04 9.57 L 17.44 9.91 L 17.82 10.26 L 18.19 10.63 L 18.54 11.01 L 18.88 11.4 L 19.2 11.82" fill="none" stroke="#111" stroke-width="1.33" stroke-linecap="round" stroke-linejoin="round"/>
<path d="M 5.31 17.86 L 5.02 18.23 L 4.77 18.61 L 4.54 19.02 L 4.36 19.44 L 4.21 19.88 L 4.1 20.32 L 4.03 20.78 L 4.0 21.24 L 4.01 21.7 L 4.06 22.16 L 4.15 22.61 L 4.27 23.06 L 4.44 23.49 L 4.64 23.91 L 4.88 24.3 L 5.15 24.68 L 5.45 25.03 L 5.78 25.35 L 6.13 25.64 L 6.51 25.9 L 6.92 26.13 L 7.34 26.32 L 7.77 26.48 L 8.22 26.59" fill="none" stroke="#111" stroke-width="1.33" stroke-linecap="round" stroke-linejoin="round"/>
<path d="M 7.31 16.86 L 7.22 17.25 L 7.15 17.64 L 7.09 18.03 L 7.05 18.42 L 7.02 18.81 L 7.01 19.21 L 7.01 19.6 L 7.03 20.0 L 7.07 20.39 L 7.11 20.78 L 7.18 21.17 L 7.26 21.56 L 7.35 21.94 L 7.46 22.32 L 7.58 22.7 L 7.72 23.07 L 7.87 23.43 L 8.03 23.79 L 8.21 24.14 L 8.4 24.49 L 8.6 24.83 L 8.82 25.16 L 9.05 25.48 L 9.29 25.79" fill="none" stroke="#111" stroke-width="1.33" stroke-linecap="round" stroke-linejoin="round"/>
<path d="M 10.31 16.86 L 10.26 17.08 L 10.21 17.29 L 10.18 17.5 L 10.15 17.72 L 10.13 17.94 L 10.12 18.16 L 10.11 18.37 L 10.12 18.59 L 10.13 18.81 L 10.16 19.03 L 10.19 19.24 L 10.22 19.46 L 10.27 19.67 L 10.33 19.88 L 10.39 20.09 L 10.46 20.3 L 10.54 20.5 L 10.63 20.7 L 10.72 20.9 L 10.82 21.09 L 10.93 21.28 L 11.05 21.46 L 11.17 21.64 L 11.3 21.82" fill="none" stroke="#111" stroke-width="1.33" stroke-linecap="round" stroke-linejoin="round"/>
<path d="M 12.31 20.86 L 12.0 21.31 L 11.69 21.76 L 11.38 22.2 L 11.07 22.65 L 10.76 23.1 L 10.46 23.55 L 10.16 24.0 L 9.86 24.46 L 9.56 24.91 L 9.26 25.37 L 8.97 25.82 L 8.68 26.28 L 8.39 26.74 L 8.1 27.2 L 7.81 27.66 L 7.53 28.12 L 7.24 28.59 L 6.96 29.05 L 6.68 29.52 L 6.4 29.98 L 6.13 30.45 L 5.85 30.92 L 5.58 31.39 L 5.31 31.86" fill="none" stroke="#111" stroke-width="1.33" stroke-linecap="round" stroke-linejoin="round"/>
<path d="M 9.31 25.86 L 9.31 26.2 L 9.31 26.53 L 9.31 26.86 L 9.31 27.2 L 9.31 27.53 L 9.31 27.86 L 9.31 28.2 L 9.31 28.53 L 9.31 28.86 L 9.31 29.2 L 9.31 29.53 L 9.31 29.86 L 9.31 30.2 L 9.31 30.53 L 9.31 30.86 L 9.31 31.2 L 9.31 31.53 L 9.31 31.86 L 9.31 32.2 L 9.31 32.53 L 9.31 32.86 L 9.31 33.2 L 9.31 33.53 L 9.31 33.86" fill="none" stroke="#111" stroke-width="1.33" stroke-linecap="round" stroke-linejoin="round"/>
<path d="M 9.31 25.86 L 9.43 26.07 L 9.56 26.28 L 9.68 26.49 L 9.81 26.7 L 9.93 26.91 L 10.06 27.11 L 10.18 27.32 L 10.31 27.53 L 10.43 27.74 L 10.56 27.95 L 10.68 28.16 L 10.81 28.36 L 10.93 28.57 L 11.06 28.78 L 11.18 28.99 L 11.31 29.2 L 11.43 29.41 L 11.56 29.61 L 11.68 29.82 L 11.81 30.03 L 11.93 30.24 L 12.06 30.45 L 12.18 30.66 L 12.31 30.86" fill="none" stroke="#111" stroke-width="1.33" stroke-linecap="round" stroke-linejoin="round"/>
<path d="M 13.31 14.86 L 13.06 15.34 L 12.85 15.83 L 12.69 16.34 L 12.57 16.86 L 12.48 17.39 L 12.45 17.92 L 12.45 18.46 L 12.5 18.99 L 12.6 19.51 L 12.74 20.03 L 12.91 20.53 L 13.13 21.02 L 13.39 21.49 L 13.69 21.93 L 14.02 22.35 L 14.38 22.74 L 14.78 23.1 L 15.2 23.43 L 15.65 23.72 L 16.12 23.97 L 16.61 24.19 L 17.12 24.36 L 17.64 24.49 L 18.16 24.58" fill="none" stroke="#111" stroke-width="1.33" stroke-linecap="round" stroke-linejoin="round"/>
<path d="M 18.31 27.86 L 18.1 27.74 L 17.89 27.61 L 17.68 27.49 L 17.47 27.36 L 17.27 27.24 L 17.06 27.11 L 16.85 26.99 L 16.64 26.86 L 16.43 26.74 L 16.22 26.61 L 16.02 26.49 L 15.81 26.36 L 15.6 26.24 L 15.39 26.11 L 15.18 25.99 L 14.97 25.86 L 14.77 25.74 L 14.56 25.61 L 14.35 25.49 L 14.14 25.36 L 13.93 25.24 L 13.72 25.11 L 13.52 24.99 L 13.31 24.86 L 13.31 24.86 L 13.31 25.07 L 13.31 25.28 L 13.31 25.49 L 13.31 25.7 L 13.31 25.91 L 13.31 26.11 L 13.31 26.32 L 13.31 26.53 L 13.31 26.74 L 13.31 26.95 L 13.31 27.16 L 13.31 27.36 L 13.31 27.57 L 13.31 27.78 L 13.31 27.99 L 13.31 28.2 L 13.31 28.41 L 13.31 28.61 L 13.31 28.82 L 13.31 29.03 L 13.31 29.24 L 13.31 29.45 L 13.31 29.66 L 13.31 29.86" fill="none" stroke="#111" stroke-width="1.33" stroke-linecap="round" stroke-linejoin="round"/>
</svg>
