<?xml version="1.0" encoding="UTF-8"?>
<svg xmlns="http://www.w3.org/2000/svg" viewBox="0 0 31.00 41.75">
<path d="M 9.0 6.0 L 8.96 6.58 L 8.92 7.17 L 8.88 7.75 L 8.83 8.33 L 8.79 8.92 L 8.75 9.5 L 8.71 10.08 L 8.67 10.67 L 8.62 11.25 L 8.58 11.83 L 8.54 12.42 L 8.5 13.0 L 8.46 13.58 L 8.42 14.17 L 8.38 14.75 L 8.33 15.33 L 8.29 15.92 L 8.25 16.5 L 8.21 17.08 L 8.17 17.67 L 8.12 18.25 L 8.08 18.83 L 8.04 19.42 L 8.0 20.0 L 8.0 20.0 L 8.7 20.45 L 9.38 20.95 L 10.02 21.49 L 10.62 22.06 L 11.19 22.68 L 11.72 23.33 L 12.2 24.01 L 12.64 24.72 L 13.04 25.45 L 13.39 26.21 L 13.69 27.0 L 13.93 27.79 L 14.13 28.61 L 14.28 29.43 L 14.37 30.26 L 14.41 31.1 L 14.4 31.93 L 14.34 32.76 L 14.22 33.59 L 14.05 34.41 L 13.83 35.22 L 13.56 36.01 L 13.24 36.78 L 12.87 37.53" fill="none" stroke="#111" stroke-width="1.46" stroke-linecap="round" stroke-linejoin="round"/>
<path d="M 4.0 8.0 L 4.0 8.38 L 4.0 8.75 L 4.0 9.12 L 4.0 9.5 L 4.0 9.88 L 4.0 10.25 L 4.0 10.62 L 4.0 11.0 L 4.0 11.38 L 4.0 11.75 L 4.0 12.12 L 4.0 12.5 L 4.0 12.88 L 4.0 13.25 L 4.0 13.62 L 4.0 14.0 L 4.0 14.38 L 4.0 14.75 L 4.0 15.12 L 4.0 15.5 L 4.0 15.88 L 4.0 16.25 L 4.0 16.62 L 4.0 17.0" fill="none" stroke="#111" stroke-width="1.46" stroke-linecap="round" stroke-linejoin="round"/>
<path d="M 13.0 8.0 L 13.0 8.33 L 13.0 8.67 L 13.0 9.0 L 13.0 9.33 L 13.0 9.67 L 13.0 10.0 L 13.0 10.33 L 13.0 10.67 L 13.0 11.0 L 13.0 11.33 L 13.0 11.67 L 13.0 12.0 L 13.0 12.33 L 13.0 12.67 L 13.0 13.0 L 13.0 13.33 L 13.0 13.67 L 13.0 14.0 L 13.0 14.33 L 13.0 14.67 L 13.0 15.0 L 13.0 15.33 L 13.0 15.67 L 13.0 16.0" fill="none" stroke="#111" stroke-width="1.46" stroke-linecap="round" stroke-linejoin="round"/>
<path d="M 8.0 25.0 L 7.96 25.46 L 7.92 25.92 L 7.88 26.38 L 7.83 26.83 L 7.79 27.29 L 7.75 27.75 L 7.71 28.21 L 7.67 28.67 L 7.62 29.12 L 7.58 29.58 L 7.54 30.04 L 7.5 30.5 L 7.46 30.96 L 7.42 31.42 L 7.38 31.88 L 7.33 32.33 L 7.29 32.79 L 7.25 33.25 L 7.21 33.71 L 7.17 34.17 L 7.12 34.62 L 7.08 35.08 L 7.04 35.54 L 7.0 36.0" fill="none" stroke="#111" stroke-width="1.46" stroke-linecap="round" stroke-linejoin="round"/>
<path d="M 16.0 26.0 L 16.04 26.33 L 16.08 26.67 L 16.12 27.0 L 16.17 27.33 L 16.21 27.67 L 16.25 28.0 L 16.29 28.33 L 16.33 28.67 L 16.38 29.0 L 16.42 29.33 L 16.46 29.67 L 16.5 30.0 L 16.54 30.33 L 16.58 30.67 L 16.62 31.0 L 16.67 31.33 L 16.71 31.67 L 16.75 32.0 L 16.79 32.33 L 16.83 32.67 L 16.88 33.0 L 16.92 33.33 L 16.96 33.67 L 17.0 34.0" fill="none" stroke="#111" stroke-width="1.46" stroke-linecap="round" stroke-linejoin="round"/>
<path d="M 19.0 4.0 L 18.92 4.58 L 18.83 5.17 L 18.75 5.75 L 18.67 6.33 L 18.58 6.92 L 18.5 7.5 L 18.42 8.08 L 18.33 8.67 L 18.25 9.25 L 18.17 9.83 L 18.08 10.42 L 18.0 11.0 L 17.92 11.58 L 17.83 12.17 L 17.75 12.75 L 17.67 13.33 L 17.58 13.92 L 17.5 14.5 L 17.42 15.08 L 17.33 15.67 L 17.25 16.25 L 17.17 16.83 L 17.08 17.42 L 17.0 18.0 L 17.0 18.0 L 17.68 18.6 L 18.33 19.24 L 18.95 19.9 L 19.54 20.6 L 20.09 21.32 L 20.61 22.06 L 21.09 22.84 L 21.53 23.63 L 21.94 24.44 L 22.3 25.28 L 22.62 26.13 L 22.91 26.99 L 23.15 27.87 L 23.34 28.75 L 23.5 29.65 L 23.61 30.55 L 23.68 31.46 L 23.7 32.37 L 23.68 33.28 L 23.61 34.18 L 23.51 35.08 L 23.36 35.98 L 23.16 36.87 L 22.92 37.75" fill="none" stroke="#111" stroke-width="1.46" stroke-linecap="round" stroke-linejoin="round"/>
<path d="M 22.0 10.0 L 22.08 10.38 L 22.17 10.75 L 22.25 11.12 L 22.33 11.5 L 22.42 11.88 L 22.5 12.25 L 22.58 12.62 L 22.67 13.0 L 22.75 13.38 L 22.83 13.75 L 22.92 14.12 L 23.0 14.5 L 23.08 14.88 L 23.17 15.25 L 23.25 15.62 L 23.33 16.0 L 23.42 16.38 L 23.5 16.75 L 23.58 17.12 L 23.67 17.5 L 23.75 17.88 L 23.83 18.25 L 23.92 18.62 L 24.0 19.0" fill="none" stroke="#111" stroke-width="1.46" stroke-linecap="round" stroke-linejoin="round"/>
<path d="M 26.0 28.0 L 26.04 28.29 L 26.08 28.58 L 26.12 28.88 L 26.17 29.17 L 26.21 29.46 L 26.25 29.75 L 26.29 30.04 L 26.33 30.33 L 26.38 30.62 L 26.42 30.92 L 26.46 31.21 L 26.5 31.5 L 26.54 31.79 L 26.58 32.08 L 26.62 32.38 L 26.67 32.67 L 26.71 32.96 L 26.75 33.25 L 26.79 33.54 L 26.83 33.83 L 26.88 34.12 L 26.92 34.42 L 26.96 34.71 L 27.0 35.0" fill="none" stroke="#111" stroke-width="1.46" stroke-linecap="round" stroke-linejoin="round"/>
</svg>
