<?xml version="1.0" encoding="UTF-8"?>
<svg xmlns="http://www.w3.org/2000/svg" viewBox="0 0 20.55 34.00">
<path d="M 10.55 4.0 L 9.6 4.54 L 8.7 5.16 L 7.86 5.86 L 7.09 6.63 L 6.39 7.48 L 5.77 8.38 L 5.24 9.34 L 4.8 10.34 L 4.45 11.38 L 4.2 12.44 L 4.05 13.53 L 4.0 14.62 L 4.05 15.72 L 4.2 16.8 L 4.45 17.87 L 4.8 18.9 L 5.24 19.91 L 5.77 20.86 L 6.39 21.77 L 7.09 22.61 L 7.86 23.39 L 8.7 24.09 L 9.6 24.71 L 10.55 25.25 L 10.55 26.0 L 11.35 25.48 L 12.09 24.9 L 12.77 24.24 L 13.38 23.52 L 13.92 22.74 L 14.38 21.92 L 14.77 21.06 L 15.07 20.16 L 15.28 19.24 L 15.4 18.3 L 15.43 17.36 L 15.37 16.41 L 15.22 15.48 L 14.99 14.57 L 14.66 13.68 L 14.25 12.83 L 13.76 12.02 L 13.2 11.26 L 12.57 10.56 L 11.87 9.92 L 11.11 9.35 L 10.3 8.86 L 9.45 8.45 L 8.57 8.12" fill="none" stroke="#111" stroke-width="1.19" stroke-linecap="round" stroke-linejoin="round"/>
<path d="M 9.55 16.0 L 9.6 16.21 L 9.64 16.42 L 9.68 16.62 L 9.72 16.83 L 9.76 17.04 L 9.8 17.25 L 9.85 17.46 L 9.89 17.67 L 9.93 17.88 L 9.97 18.08 L 10.01 18.29 L 10.05 18.5 L 10.1 18.71 L 10.14 18.92 L 10.18 19.12 L 10.22 19.33 L 10.26 19.54 L 10.3 19.75 L 10.35 19.96 L 10.39 20.17 L 10.43 20.38 L 10.47 20.58 L 10.51 20.79 L 10.55 21.0" fill="none" stroke="#111" stroke-width="1.19" stroke-linecap="round" stroke-linejoin="round"/>
<path d="M 10.55 4.0 L 10.68 4.17 L 10.8 4.33 L 10.93 4.5 L 11.05 4.67 L 11.18 4.83 L 11.3 5.0 L 11.43 5.17 L 11.55 5.33 L 11.68 5.5 L 11.8 5.67 L 11.93 5.83 L 12.05 6.0 L 12.18 6.17 L 12.3 6.33 L 12.43 6.5 L 12.55 6.67 L 12.68 6.83 L 12.8 7.0 L 12.93 7.17 L 13.05 7.33 L 13.18 7.5 L 13.3 7.67 L 13.43 7.83 L 13.55 8.0" fill="none" stroke="#111" stroke-width="1.19" stroke-linecap="round" stroke-linejoin="round"/>
<path d="M 5.55 26.0 L 5.8 26.17 L 6.05 26.33 L 6.3 26.5 L 6.55 26.67 L 6.8 26.83 L 7.05 27.0 L 7.3 27.17 L 7.55 27.33 L 7.8 27.5 L 8.05 27.67 L 8.3 27.83 L 8.55 28.0 L 8.8 28.17 L 9.05 28.33 L 9.3 28.5 L 9.55 28.67 L 9.8 28.83 L 10.05 29.0 L 10.3 29.17 L 10.55 29.33 L 10.8 29.5 L 11.05 29.67 L 11.3 29.83 L 11.55 30.0" fill="none" stroke="#111" stroke-width="1.19" stroke-linecap="round" stroke-linejoin="round"/>
<path d="M 11.55 30.0 L 11.76 29.79 L 11.97 29.58 L 12.18 29.38 L 12.39 29.17 L 12.6 28.96 L 12.8 28.75 L 13.01 28.54 L 13.22 28.33 L 13.43 28.12 L 13.64 27.92 L 13.85 27.71 L 14.05 27.5 L 14.26 27.29 L 14.47 27.08 L 14.68 26.88 L 14.89 26.67 L 15.1 26.46 L 15.3 26.25 L 15.51 26.04 L 15.72 25.83 L 15.93 25.62 L 16.14 25.42 L 16.35 25.21 L 16.55 25.0" fill="none" stroke="#111" stroke-width="1.19" stroke-linecap="round" stroke-linejoin="round"/>
</svg>
