<?xml version="1.0" encoding="UTF-8"?>
<svg xmlns="http://www.w3.org/2000/svg" viewBox="0 0 27.00 28.11">
<path d="M 6.0 6.0 L 6.85 6.42 L 7.66 6.93 L 8.41 7.51 L 9.1 8.17 L 9.72 8.9 L 10.26 9.68 L 10.72 10.52 L 11.1 11.39 L 11.38 12.31 L 11.57 13.24 L 11.66 14.19 L 11.65 15.14 L 11.55 16.09 L 11.36 17.02 L 11.07 17.93 L 10.68 18.8 L 10.22 19.64 L 9.67 20.41 L 9.04 21.13 L 8.35 21.79 L 7.59 22.36 L 6.78 22.86 L 5.92 23.28 L 5.02 23.6" fill="none" stroke="#111" stroke-width="0.98" stroke-linecap="round" stroke-linejoin="round"/>
<path d="M 6.0 6.0 L 5.89 6.26 L 5.79 6.53 L 5.71 6.8 L 5.65 7.08 L 5.6 7.36 L 5.58 7.64 L 5.57 7.93 L 5.58 8.21 L 5.61 8.5 L 5.66 8.78 L 5.72 9.05 L 5.8 9.33 L 5.9 9.59 L 6.01 9.85 L 6.15 10.11 L 6.29 10.35 L 6.46 10.58 L 6.63 10.8 L 6.82 11.02 L 7.03 11.21 L 7.24 11.4 L 7.47 11.57 L 7.71 11.73 L 7.96 11.87 L 8.0 12.0 L 7.9 12.15 L 7.78 12.3 L 7.66 12.43 L 7.53 12.56 L 7.39 12.68 L 7.25 12.8 L 7.09 12.9 L 6.93 12.99 L 6.77 13.07 L 6.6 13.15 L 6.43 13.21 L 6.25 13.26 L 6.07 13.3 L 5.89 13.32 L 5.71 13.34 L 5.52 13.35 L 5.34 13.34 L 5.16 13.32 L 4.97 13.29 L 4.79 13.25 L 4.62 13.19 L 4.45 13.13 L 4.28 13.06 L 4.12 12.97 L 4.0 13.0 L 4.0 13.08 L 4.0 13.17 L 4.0 13.25 L 4.0 13.33 L 4.0 13.42 L 4.0 13.5 L 4.0 13.58 L 4.0 13.67 L 4.0 13.75 L 4.0 13.83 L 4.0 13.92 L 4.0 14.0 L 4.0 14.08 L 4.0 14.17 L 4.0 14.25 L 4.0 14.33 L 4.0 14.42 L 4.0 14.5 L 4.0 14.58 L 4.0 14.67 L 4.0 14.75 L 4.0 14.83 L 4.0 14.92 L 4.0 15.0 L 4.0 15.0 L 4.4 14.96 L 4.81 14.97 L 5.21 15.01 L 5.6 15.11 L 5.99 15.24 L 6.35 15.42 L 6.69 15.64 L 7.01 15.89 L 7.3 16.17 L 7.55 16.49 L 7.77 16.83 L 7.95 17.19 L 8.09 17.57 L 8.19 17.97 L 8.24 18.37 L 8.25 18.77 L 8.21 19.18 L 8.13 19.57 L 8.01 19.96 L 7.84 20.33 L 7.64 20.68 L 7.4 21.01 L 7.12 21.3 L 6.81 21.57" fill="none" stroke="#111" stroke-width="0.98" stroke-linecap="round" stroke-linejoin="round"/>
<path d="M 19.0 4.0 L 18.39 4.61 L 17.8 5.25 L 17.26 5.93 L 16.75 6.63 L 16.29 7.36 L 15.86 8.11 L 15.48 8.89 L 15.14 9.68 L 14.84 10.5 L 14.59 11.33 L 14.38 12.17 L 14.23 13.02 L 14.11 13.88 L 14.05 14.74 L 14.03 15.61 L 14.06 16.47 L 14.14 17.33 L 14.27 18.19 L 14.44 19.04 L 14.66 19.88 L 14.93 20.7 L 15.24 21.51 L 15.59 22.3 L 15.99 23.07 L 16.0 23.0 L 16.23 23.12 L 16.46 23.23 L 16.69 23.33 L 16.93 23.43 L 17.17 23.52 L 17.41 23.61 L 17.66 23.69 L 17.9 23.76 L 18.15 23.82 L 18.4 23.88 L 18.65 23.94 L 18.91 23.98 L 19.16 24.02 L 19.42 24.05 L 19.67 24.08 L 19.93 24.1 L 20.18 24.11 L 20.44 24.11 L 20.7 24.11 L 20.95 24.1 L 21.21 24.08 L 21.47 24.06 L 21.72 24.03 L 21.97 24.0" fill="none" stroke="#111" stroke-width="0.98" stroke-linecap="round" stroke-linejoin="round"/>
<path d="M 19.0 4.0 L 18.96 4.17 L 18.92 4.33 L 18.88 4.5 L 18.83 4.67 L 18.79 4.83 L 18.75 5.0 L 18.71 5.17 L 18.67 5.33 L 18.62 5.5 L 18.58 5.67 L 18.54 5.83 L 18.5 6.0 L 18.46 6.17 L 18.42 6.33 L 18.38 6.5 L 18.33 6.67 L 18.29 6.83 L 18.25 7.0 L 18.21 7.17 L 18.17 7.33 L 18.12 7.5 L 18.08 7.67 L 18.04 7.83 L 18.0 8.0 L 18.0 8.0 L 17.76 8.38 L 17.56 8.78 L 17.4 9.21 L 17.29 9.64 L 17.22 10.09 L 17.19 10.54 L 17.22 10.99 L 17.29 11.44 L 17.4 11.87 L 17.56 12.29 L 17.77 12.7 L 18.01 13.08 L 18.29 13.43 L 18.61 13.75 L 18.95 14.04 L 19.33 14.29 L 19.73 14.5 L 20.14 14.67 L 20.58 14.79 L 21.02 14.87 L 21.47 14.91 L 21.92 14.89 L 22.37 14.84 L 22.81 14.73" fill="none" stroke="#111" stroke-width="0.98" stroke-linecap="round" stroke-linejoin="round"/>
<path d="M 18.0 23.0 L 17.93 22.65 L 17.88 22.31 L 17.83 21.95 L 17.81 21.6 L 17.79 21.25 L 17.79 20.9 L 17.8 20.54 L 17.83 20.19 L 17.87 19.84 L 17.92 19.49 L 17.98 19.15 L 18.06 18.8 L 18.16 18.46 L 18.26 18.12 L 18.38 17.79 L 18.51 17.46 L 18.65 17.14 L 18.81 16.82 L 18.98 16.51 L 19.15 16.21 L 19.35 15.91 L 19.55 15.62 L 19.76 15.34 L 19.98 15.07 L 20.0 15.0 L 20.12 15.0 L 20.25 15.0 L 20.38 15.0 L 20.5 15.0 L 20.62 15.0 L 20.75 15.0 L 20.88 15.0 L 21.0 15.0 L 21.12 15.0 L 21.25 15.0 L 21.38 15.0 L 21.5 15.0 L 21.62 15.0 L 21.75 15.0 L 21.88 15.0 L 22.0 15.0 L 22.12 15.0 L 22.25 15.0 L 22.38 15.0 L 22.5 15.0 L 22.62 15.0 L 22.75 15.0 L 22.88 15.0 L 23.0 15.0" fill="none" stroke="#111" stroke-width="0.98" stroke-linecap="round" stroke-linejoin="round"/>
<path d="M 21.0 12.0 L 21.0 12.25 L 21.0 12.5 L 21.0 12.75 L 21.0 13.0 L 21.0 13.25 L 21.0 13.5 L 21.0 13.75 L 21.0 14.0 L 21.0 14.25 L 21.0 14.5 L 21.0 14.75 L 21.0 15.0 L 21.0 15.25 L 21.0 15.5 L 21.0 15.75 L 21.0 16.0 L 21.0 16.25 L 21.0 16.5 L 21.0 16.75 L 21.0 17.0 L 21.0 17.25 L 21.0 17.5 L 21.0 17.75 L 21.0 18.0" fill="none" stroke="#111" stroke-width="0.98" stroke-linecap="round" stroke-linejoin="round"/>
</svg>
