<?xml version="1.0" encoding="UTF-8"?>
<svg xmlns="http://www.w3.org/2000/svg" viewBox="0 0 17.99 36.00">
<path d="M 6.0 14.0 L 6.21 14.0 L 6.42 14.0 L 6.62 14.0 L 6.83 14.0 L 7.04 14.0 L 7.25 14.0 L 7.46 14.0 L 7.67 14.0 L 7.88 14.0 L 8.08 14.0 L 8.29 14.0 L 8.5 14.0 L 8.71 14.0 L 8.92 14.0 L 9.12 14.0 L 9.33 14.0 L 9.54 14.0 L 9.75 14.0 L 9.96 14.0 L 10.17 14.0 L 10.38 14.0 L 10.58 14.0 L 10.79 14.0 L 11.0 14.0" fill="none" stroke="#111" stroke-width="1.26" stroke-linecap="round" stroke-linejoin="round"/>
<path d="M 5.0 4.0 L 5.18 4.4 L 5.35 4.8 L 5.51 5.21 L 5.66 5.61 L 5.81 6.03 L 5.95 6.44 L 6.08 6.86 L 6.2 7.28 L 6.31 7.7 L 6.42 8.12 L 6.52 8.54 L 6.6 8.97 L 6.69 9.4 L 6.76 9.83 L 6.82 10.26 L 6.88 10.69 L 6.93 11.13 L 6.97 11.56 L 7.0 12.0 L 7.03 12.43 L 7.04 12.87 L 7.05 13.31 L 7.05 13.74 L 7.04 14.18" fill="none" stroke="#111" stroke-width="1.26" stroke-linecap="round" stroke-linejoin="round"/>
<path d="M 11.0 4.0 L 10.78 4.37 L 10.57 4.74 L 10.38 5.13 L 10.21 5.52 L 10.06 5.93 L 9.93 6.33 L 9.82 6.75 L 9.73 7.17 L 9.66 7.59 L 9.61 8.02 L 9.58 8.44 L 9.57 8.87 L 9.58 9.3 L 9.61 9.73 L 9.66 10.16 L 9.73 10.58 L 9.82 11.0 L 9.93 11.41 L 10.06 11.82 L 10.21 12.22 L 10.38 12.62 L 10.57 13.0 L 10.78 13.38 L 11.0 13.75" fill="none" stroke="#111" stroke-width="1.26" stroke-linecap="round" stroke-linejoin="round"/>
<path d="M 8.0 14.0 L 7.71 14.38 L 7.5 14.8 L 7.37 15.26 L 7.34 15.73 L 7.39 16.2 L 7.54 16.65 L 7.77 17.07 L 8.07 17.43 L 8.44 17.73 L 8.86 17.95 L 9.32 18.09 L 9.79 18.13 L 10.26 18.09 L 10.72 17.95 L 11.14 17.73 L 11.51 17.43 L 11.81 17.07 L 12.04 16.65 L 12.19 16.2 L 12.25 15.73 L 12.21 15.26 L 12.08 14.8 L 11.87 14.38 L 11.58 14.0" fill="none" stroke="#111" stroke-width="1.26" stroke-linecap="round" stroke-linejoin="round"/>
<path d="M 5.0 22.0 L 5.38 21.97 L 5.77 21.94 L 6.15 21.91 L 6.53 21.86 L 6.92 21.82 L 7.3 21.77 L 7.68 21.71 L 8.06 21.65 L 8.44 21.58 L 8.82 21.51 L 9.2 21.43 L 9.57 21.35 L 9.95 21.27 L 10.32 21.18 L 10.7 21.08 L 11.07 20.98 L 11.44 20.87 L 11.81 20.76 L 12.17 20.65 L 12.54 20.53 L 12.9 20.4 L 13.27 20.28 L 13.63 20.14 L 13.99 20.0" fill="none" stroke="#111" stroke-width="1.26" stroke-linecap="round" stroke-linejoin="round"/>
<path d="M 10.0 21.0 L 9.89 21.46 L 9.78 21.92 L 9.67 22.39 L 9.55 22.85 L 9.44 23.31 L 9.32 23.77 L 9.2 24.23 L 9.08 24.69 L 8.96 25.15 L 8.84 25.61 L 8.72 26.07 L 8.59 26.52 L 8.47 26.98 L 8.34 27.44 L 8.21 27.9 L 8.08 28.36 L 7.95 28.81 L 7.82 29.27 L 7.69 29.72 L 7.55 30.18 L 7.42 30.64 L 7.28 31.09 L 7.14 31.55 L 7.0 32.0" fill="none" stroke="#111" stroke-width="1.26" stroke-linecap="round" stroke-linejoin="round"/>
<path d="M 12.0 14.0 L 12.0 14.12 L 12.0 14.25 L 12.0 14.38 L 12.0 14.5 L 12.0 14.62 L 12.0 14.75 L 12.0 14.88 L 12.0 15.0 L 12.0 15.12 L 12.0 15.25 L 12.0 15.38 L 12.0 15.5 L 12.0 15.62 L 12.0 15.75 L 12.0 15.88 L 12.0 16.0 L 12.0 16.12 L 12.0 16.25 L 12.0 16.38 L 12.0 16.5 L 12.0 16.62 L 12.0 16.75 L 12.0 16.88 L 12.0 17.0" fill="none" stroke="#111" stroke-width="1.26" stroke-linecap="round" stroke-linejoin="round"/>
<path d="M 4.0 12.0 L 4.0 12.17 L 4.0 12.33 L 4.0 12.5 L 4.0 12.67 L 4.0 12.83 L 4.0 13.0 L 4.0 13.17 L 4.0 13.33 L 4.0 13.5 L 4.0 13.67 L 4.0 13.83 L 4.0 14.0 L 4.0 14.17 L 4.0 14.33 L 4.0 14.5 L 4.0 14.67 L 4.0 14.83 L 4.0 15.0 L 4.0 15.17 L 4.0 15.33 L 4.0 15.5 L 4.0 15.67 L 4.0 15.83 L 4.0 16.0" fill="none" stroke="#111" stroke-width="1.26" stroke-linecap="round" stroke-linejoin="round"/>
<path d="M 5.0 18.0 L 5.0 18.08 L 5.0 18.17 L 5.0 18.25 L 5.0 18.33 L 5.0 18.42 L 5.0 18.5 L 5.0 18.58 L 5.0 18.67 L 5.0 18.75 L 5.0 18.83 L 5.0 18.92 L 5.0 19.0 L 5.0 19.08 L 5.0 19.17 L 5.0 19.25 L 5.0 19.33 L 5.0 19.42 L 5.0 19.5 L 5.0 19.58 L 5.0 19.67 L 5.0 19.75 L 5.0 19.83 L 5.0 19.92 L 5.0 20.0" fill="none" stroke="#111" stroke-width="1.26" stroke-linecap="round" stroke-linejoin="round"/>
<path d="M 8.0 18.0 L 8.0 18.08 L 8.0 18.17 L 8.0 18.25 L 8.0 18.33 L 8.0 18.42 L 8.0 18.5 L 8.0 18.58 L 8.0 18.67 L 8.0 18.75 L 8.0 18.83 L 8.0 18.92 L 8.0 19.0 L 8.0 19.08 L 8.0 19.17 L 8.0 19.25 L 8.0 19.33 L 8.0 19.42 L 8.0 19.5 L 8.0 19.58 L 8.0 19.67 L 8.0 19.75 L 8.0 19.83 L 8.0 19.92 L 8.0 20.0" fill="none" stroke="#111" stroke-width="1.26" stroke-linecap="round" stroke-linejoin="round"/>
<path d="M 7.0 4.0 L 7.04 4.12 L 7.08 4.25 L 7.12 4.38 L 7.17 4.5 L 7.21 4.62 L 7.25 4.75 L 7.29 4.88 L 7.33 5.0 L 7.38 5.12 L 7.42 5.25 L 7.46 5.38 L 7.5 5.5 L 7.54 5.62 L 7.58 5.75 L 7.62 5.88 L 7.67 6.0 L 7.71 6.12 L 7.75 6.25 L 7.79 6.38 L 7.83 6.5 L 7.88 6.62 L 7.92 6.75 L 7.96 6.88 L 8.0 7.0" fill="none" stroke="#111" stroke-width="1.26" stroke-linecap="round" stroke-linejoin="round"/>
</svg>
