<?xml version="1.0" encoding="UTF-8"?>
<svg xmlns="http://www.w3.org/2000/svg" viewBox="0 0 29.81 34.63">
<path d="M 14.78 4.0 L 13.68 4.5 L 12.61 5.07 L 11.59 5.71 L 10.61 6.42 L 9.69 7.2 L 8.82 8.05 L 8.01 8.95 L 7.27 9.9 L 6.6 10.91 L 6.0 11.96 L 5.47 13.05 L 5.02 14.17 L 4.65 15.32 L 4.37 16.49 L 4.16 17.69 L 4.04 18.89 L 4.0 20.1 L 4.05 21.31 L 4.18 22.51 L 4.39 23.7 L 4.69 24.87 L 5.07 26.02 L 5.52 27.14 L 6.06 28.22" fill="none" stroke="#111" stroke-width="1.21" stroke-linecap="round" stroke-linejoin="round"/>
<path d="M 14.78 4.0 L 15.93 4.58 L 17.05 5.24 L 18.11 5.98 L 19.12 6.78 L 20.08 7.65 L 20.97 8.59 L 21.8 9.58 L 22.56 10.63 L 23.25 11.72 L 23.86 12.86 L 24.39 14.04 L 24.84 15.25 L 25.21 16.49 L 25.49 17.76 L 25.68 19.03 L 25.79 20.32 L 25.81 21.62 L 25.75 22.91 L 25.59 24.19 L 25.35 25.46 L 25.02 26.71 L 24.61 27.94 L 24.12 29.13 L 23.54 30.29" fill="none" stroke="#111" stroke-width="1.21" stroke-linecap="round" stroke-linejoin="round"/>
<path d="M 13.78 11.0 L 14.9 11.46 L 15.95 12.05 L 16.93 12.76 L 17.82 13.59 L 18.6 14.51 L 19.26 15.52 L 19.8 16.6 L 20.2 17.74 L 20.47 18.92 L 20.59 20.12 L 20.57 21.33 L 20.41 22.53 L 20.1 23.7 L 19.65 24.82 L 19.08 25.89 L 18.38 26.87 L 17.57 27.77 L 16.65 28.56 L 15.65 29.24 L 14.57 29.79 L 13.44 30.21 L 12.26 30.49 L 11.06 30.63 L 9.85 30.62" fill="none" stroke="#111" stroke-width="1.21" stroke-linecap="round" stroke-linejoin="round"/>
<path d="M 15.78 13.0 L 15.86 13.47 L 15.91 13.94 L 15.91 14.42 L 15.87 14.89 L 15.8 15.36 L 15.68 15.82 L 15.53 16.28 L 15.34 16.71 L 15.12 17.13 L 14.86 17.53 L 14.56 17.91 L 14.24 18.26 L 13.89 18.58 L 13.52 18.87 L 13.12 19.13 L 12.7 19.35 L 12.26 19.54 L 11.81 19.7 L 11.35 19.81 L 10.88 19.89 L 10.41 19.92 L 9.93 19.92 L 9.46 19.88 L 8.99 19.79" fill="none" stroke="#111" stroke-width="1.21" stroke-linecap="round" stroke-linejoin="round"/>
<path d="M 13.78 18.0 L 13.95 18.29 L 14.11 18.58 L 14.28 18.88 L 14.45 19.17 L 14.61 19.46 L 14.78 19.75 L 14.95 20.04 L 15.11 20.33 L 15.28 20.62 L 15.45 20.92 L 15.61 21.21 L 15.78 21.5 L 15.95 21.79 L 16.11 22.08 L 16.28 22.38 L 16.45 22.67 L 16.61 22.96 L 16.78 23.25 L 16.95 23.54 L 17.11 23.83 L 17.28 24.12 L 17.45 24.42 L 17.61 24.71 L 17.78 25.0" fill="none" stroke="#111" stroke-width="1.21" stroke-linecap="round" stroke-linejoin="round"/>
<path d="M 9.78 22.0 L 9.84 22.71 L 10.0 23.41 L 10.27 24.07 L 10.63 24.69 L 11.08 25.24 L 11.61 25.72 L 12.21 26.12 L 12.86 26.42 L 13.54 26.62 L 14.25 26.71 L 14.97 26.7 L 15.67 26.58 L 16.35 26.36 L 16.99 26.03 L 17.57 25.61 L 18.08 25.11 L 18.51 24.54 L 18.85 23.91 L 19.09 23.24 L 19.23 22.54 L 19.26 21.82 L 19.18 21.11 L 19.0 20.42 L 18.72 19.77" fill="none" stroke="#111" stroke-width="1.21" stroke-linecap="round" stroke-linejoin="round"/>
<path d="M 10.78 24.0 L 10.9 24.0 L 11.03 24.0 L 11.15 24.0 L 11.28 24.0 L 11.4 24.0 L 11.53 24.0 L 11.65 24.0 L 11.78 24.0 L 11.9 24.0 L 12.03 24.0 L 12.15 24.0 L 12.28 24.0 L 12.4 24.0 L 12.53 24.0 L 12.65 24.0 L 12.78 24.0 L 12.9 24.0 L 13.03 24.0 L 13.15 24.0 L 13.28 24.0 L 13.4 24.0 L 13.53 24.0 L 13.65 24.0 L 13.78 24.0" fill="none" stroke="#111" stroke-width="1.21" stroke-linecap="round" stroke-linejoin="round"/>
</svg>
