<?xml version="1.0" encoding="UTF-8"?>
<svg xmlns="http://www.w3.org/2000/svg" viewBox="0 0 21.42 33.00">
<path d="M 4.0 5.0 L 4.0 5.92 L 4.0 6.83 L 4.0 7.75 L 4.0 8.67 L 4.0 9.58 L 4.0 10.5 L 4.0 11.42 L 4.0 12.33 L 4.0 13.25 L 4.0 14.17 L 4.0 15.08 L 4.0 16.0 L 4.0 16.92 L 4.0 17.83 L 4.0 18.75 L 4.0 19.67 L 4.0 20.58 L 4.0 21.5 L 4.0 22.42 L 4.0 23.33 L 4.0 24.25 L 4.0 25.17 L 4.0 26.08 L 4.0 27.0" fill="none" stroke="#111" stroke-width="1.16" stroke-linecap="round" stroke-linejoin="round"/>
<path d="M 15.0 4.0 L 15.08 5.04 L 15.17 6.08 L 15.25 7.12 L 15.33 8.17 L 15.42 9.21 L 15.5 10.25 L 15.58 11.29 L 15.67 12.33 L 15.75 13.38 L 15.83 14.42 L 15.92 15.46 L 16.0 16.5 L 16.08 17.54 L 16.17 18.58 L 16.25 19.62 L 16.33 20.67 L 16.42 21.71 L 16.5 22.75 L 16.58 23.79 L 16.67 24.83 L 16.75 25.88 L 16.83 26.92 L 16.92 27.96 L 17.0 29.0" fill="none" stroke="#111" stroke-width="1.16" stroke-linecap="round" stroke-linejoin="round"/>
<path d="M 4.0 10.0 L 4.46 10.0 L 4.92 10.0 L 5.38 10.0 L 5.83 10.0 L 6.29 10.0 L 6.75 10.0 L 7.21 10.0 L 7.67 10.0 L 8.12 10.0 L 8.58 10.0 L 9.04 10.0 L 9.5 10.0 L 9.96 10.0 L 10.42 10.0 L 10.88 10.0 L 11.33 10.0 L 11.79 10.0 L 12.25 10.0 L 12.71 10.0 L 13.17 10.0 L 13.62 10.0 L 14.08 10.0 L 14.54 10.0 L 15.0 10.0" fill="none" stroke="#111" stroke-width="1.16" stroke-linecap="round" stroke-linejoin="round"/>
<path d="M 4.0 13.0 L 4.46 13.0 L 4.92 13.0 L 5.38 13.0 L 5.83 13.0 L 6.29 13.0 L 6.75 13.0 L 7.21 13.0 L 7.67 13.0 L 8.12 13.0 L 8.58 13.0 L 9.04 13.0 L 9.5 13.0 L 9.96 13.0 L 10.42 13.0 L 10.88 13.0 L 11.33 13.0 L 11.79 13.0 L 12.25 13.0 L 12.71 13.0 L 13.17 13.0 L 13.62 13.0 L 14.08 13.0 L 14.54 13.0 L 15.0 13.0" fill="none" stroke="#111" stroke-width="1.16" stroke-linecap="round" stroke-linejoin="round"/>
<path d="M 7.0 17.0 L 6.98 17.97 L 7.14 18.92 L 7.48 19.83 L 7.97 20.66 L 8.61 21.39 L 9.37 21.99 L 10.23 22.43 L 11.16 22.71 L 12.12 22.82 L 13.09 22.74 L 14.02 22.49 L 14.89 22.07 L 15.68 21.5 L 16.34 20.79 L 16.86 19.97 L 17.22 19.08 L 17.41 18.13 L 17.42 17.16 L 17.25 16.21 L 16.91 15.3 L 16.41 14.47 L 15.77 13.75 L 15.0 13.16 L 14.14 12.72" fill="none" stroke="#111" stroke-width="1.16" stroke-linecap="round" stroke-linejoin="round"/>
<path d="M 8.0 21.0 L 8.21 20.92 L 8.42 20.83 L 8.62 20.75 L 8.83 20.67 L 9.04 20.58 L 9.25 20.5 L 9.46 20.42 L 9.67 20.33 L 9.88 20.25 L 10.08 20.17 L 10.29 20.08 L 10.5 20.0 L 10.71 19.92 L 10.92 19.83 L 11.12 19.75 L 11.33 19.67 L 11.54 19.58 L 11.75 19.5 L 11.96 19.42 L 12.17 19.33 L 12.38 19.25 L 12.58 19.17 L 12.79 19.08 L 13.0 19.0" fill="none" stroke="#111" stroke-width="1.16" stroke-linecap="round" stroke-linejoin="round"/>
</svg>
