<?xml version="1.0" encoding="UTF-8"?>
<svg xmlns="http://www.w3.org/2000/svg" viewBox="0 0 23.98 27.93">
<path d="M 9.98 4.0 L 9.85 4.47 L 9.71 4.95 L 9.57 5.41 L 9.41 5.88 L 9.23 6.34 L 9.05 6.79 L 8.86 7.25 L 8.65 7.69 L 8.44 8.13 L 8.21 8.57 L 7.97 9.0 L 7.72 9.42 L 7.47 9.84 L 7.2 10.25 L 6.92 10.66 L 6.63 11.06 L 6.34 11.45 L 6.03 11.83 L 5.71 12.21 L 5.39 12.57 L 5.05 12.93 L 4.71 13.29 L 4.36 13.63 L 4.0 13.96" fill="none" stroke="#111" stroke-width="0.98" stroke-linecap="round" stroke-linejoin="round"/>
<path d="M 9.98 4.0 L 10.35 4.29 L 10.73 4.58 L 11.1 4.88 L 11.48 5.17 L 11.85 5.46 L 12.23 5.75 L 12.6 6.04 L 12.98 6.33 L 13.35 6.62 L 13.73 6.92 L 14.1 7.21 L 14.48 7.5 L 14.85 7.79 L 15.23 8.08 L 15.6 8.38 L 15.98 8.67 L 16.35 8.96 L 16.73 9.25 L 17.1 9.54 L 17.48 9.83 L 17.85 10.12 L 18.23 10.42 L 18.6 10.71 L 18.98 11.0" fill="none" stroke="#111" stroke-width="0.98" stroke-linecap="round" stroke-linejoin="round"/>
<path d="M 11.98 14.0 L 11.86 14.51 L 11.73 15.01 L 11.58 15.5 L 11.41 16.0 L 11.23 16.48 L 11.03 16.96 L 10.82 17.43 L 10.59 17.9 L 10.34 18.36 L 10.08 18.8 L 9.8 19.24 L 9.51 19.67 L 9.21 20.09 L 8.89 20.5 L 8.56 20.9 L 8.21 21.29 L 7.86 21.67 L 7.48 22.03 L 7.1 22.38 L 6.71 22.72 L 6.3 23.04 L 5.89 23.35 L 5.46 23.65 L 5.03 23.93" fill="none" stroke="#111" stroke-width="0.98" stroke-linecap="round" stroke-linejoin="round"/>
<path d="M 11.98 14.0 L 12.31 14.29 L 12.65 14.58 L 12.98 14.88 L 13.31 15.17 L 13.65 15.46 L 13.98 15.75 L 14.31 16.04 L 14.65 16.33 L 14.98 16.62 L 15.31 16.92 L 15.65 17.21 L 15.98 17.5 L 16.31 17.79 L 16.65 18.08 L 16.98 18.38 L 17.31 18.67 L 17.65 18.96 L 17.98 19.25 L 18.31 19.54 L 18.65 19.83 L 18.98 20.12 L 19.31 20.42 L 19.65 20.71 L 19.98 21.0" fill="none" stroke="#111" stroke-width="0.98" stroke-linecap="round" stroke-linejoin="round"/>
</svg>
