<?xml version="1.0" encoding="UTF-8"?>
<svg xmlns="http://www.w3.org/2000/svg" viewBox="0 0 23.00 34.00">
<path d="M 10.0 4.0 L 9.44 4.3 L 8.92 4.65 L 8.44 5.05 L 8.0 5.5 L 7.6 6.0 L 7.26 6.52 L 6.97 7.09 L 6.74 7.67 L 6.58 8.28 L 6.47 8.9 L 6.43 9.53 L 6.45 10.16 L 6.53 10.79 L 6.68 11.4 L 6.89 11.99 L 7.15 12.56 L 7.48 13.11 L 7.85 13.61 L 8.28 14.08 L 8.75 14.5 L 9.26 14.87 L 9.8 15.19 L 10.37 15.45 L 10.97 15.65 L 11.0 16.0 L 11.17 15.79 L 11.33 15.58 L 11.5 15.38 L 11.67 15.17 L 11.83 14.96 L 12.0 14.75 L 12.17 14.54 L 12.33 14.33 L 12.5 14.12 L 12.67 13.92 L 12.83 13.71 L 13.0 13.5 L 13.17 13.29 L 13.33 13.08 L 13.5 12.88 L 13.67 12.67 L 13.83 12.46 L 14.0 12.25 L 14.17 12.04 L 14.33 11.83 L 14.5 11.62 L 14.67 11.42 L 14.83 11.21 L 15.0 11.0 L 15.0 11.0 L 14.79 10.71 L 14.58 10.42 L 14.38 10.12 L 14.17 9.83 L 13.96 9.54 L 13.75 9.25 L 13.54 8.96 L 13.33 8.67 L 13.12 8.38 L 12.92 8.08 L 12.71 7.79 L 12.5 7.5 L 12.29 7.21 L 12.08 6.92 L 11.88 6.62 L 11.67 6.33 L 11.46 6.04 L 11.25 5.75 L 11.04 5.46 L 10.83 5.17 L 10.63 4.88 L 10.42 4.58 L 10.21 4.29 L 10.0 4.0" fill="none" stroke="#111" stroke-width="1.19" stroke-linecap="round" stroke-linejoin="round"/>
<path d="M 9.0 18.0 L 9.04 18.5 L 9.08 19.0 L 9.12 19.5 L 9.17 20.0 L 9.21 20.5 L 9.25 21.0 L 9.29 21.5 L 9.33 22.0 L 9.38 22.5 L 9.42 23.0 L 9.46 23.5 L 9.5 24.0 L 9.54 24.5 L 9.58 25.0 L 9.62 25.5 L 9.67 26.0 L 9.71 26.5 L 9.75 27.0 L 9.79 27.5 L 9.83 28.0 L 9.88 28.5 L 9.92 29.0 L 9.96 29.5 L 10.0 30.0 L 10.0 30.0 L 10.12 29.5 L 10.25 29.0 L 10.38 28.5 L 10.5 28.0 L 10.62 27.5 L 10.75 27.0 L 10.88 26.5 L 11.0 26.0 L 11.12 25.5 L 11.25 25.0 L 11.38 24.5 L 11.5 24.0 L 11.62 23.5 L 11.75 23.0 L 11.88 22.5 L 12.0 22.0 L 12.12 21.5 L 12.25 21.0 L 12.38 20.5 L 12.5 20.0 L 12.62 19.5 L 12.75 19.0 L 12.87 18.5 L 13.0 18.0" fill="none" stroke="#111" stroke-width="1.19" stroke-linecap="round" stroke-linejoin="round"/>
<path d="M 5.0 4.0 L 4.96 4.25 L 4.92 4.5 L 4.88 4.75 L 4.83 5.0 L 4.79 5.25 L 4.75 5.5 L 4.71 5.75 L 4.67 6.0 L 4.62 6.25 L 4.58 6.5 L 4.54 6.75 L 4.5 7.0 L 4.46 7.25 L 4.42 7.5 L 4.38 7.75 L 4.33 8.0 L 4.29 8.25 L 4.25 8.5 L 4.21 8.75 L 4.17 9.0 L 4.12 9.25 L 4.08 9.5 L 4.04 9.75 L 4.0 10.0" fill="none" stroke="#111" stroke-width="1.19" stroke-linecap="round" stroke-linejoin="round"/>
<path d="M 16.0 6.0 L 16.12 6.25 L 16.25 6.5 L 16.38 6.75 L 16.5 7.0 L 16.62 7.25 L 16.75 7.5 L 16.88 7.75 L 17.0 8.0 L 17.12 8.25 L 17.25 8.5 L 17.38 8.75 L 17.5 9.0 L 17.62 9.25 L 17.75 9.5 L 17.88 9.75 L 18.0 10.0 L 18.12 10.25 L 18.25 10.5 L 18.38 10.75 L 18.5 11.0 L 18.62 11.25 L 18.75 11.5 L 18.88 11.75 L 19.0 12.0" fill="none" stroke="#111" stroke-width="1.19" stroke-linecap="round" stroke-linejoin="round"/>
<path d="M 5.0 15.0 L 4.75 15.43 L 4.54 15.89 L 4.38 16.37 L 4.28 16.86 L 4.23 17.36 L 4.23 17.87 L 4.29 18.37 L 4.4 18.86 L 4.57 19.33 L 4.78 19.79 L 5.04 20.22 L 5.35 20.62 L 5.7 20.98 L 6.08 21.31 L 6.5 21.59 L 6.95 21.82 L 7.41 22.01 L 7.9 22.14 L 8.39 22.22 L 8.9 22.25 L 9.4 22.22 L 9.9 22.14 L 10.38 22.01 L 10.85 21.82" fill="none" stroke="#111" stroke-width="1.19" stroke-linecap="round" stroke-linejoin="round"/>
<path d="M 15.0 19.0 L 15.04 19.25 L 15.08 19.5 L 15.12 19.75 L 15.17 20.0 L 15.21 20.25 L 15.25 20.5 L 15.29 20.75 L 15.33 21.0 L 15.38 21.25 L 15.42 21.5 L 15.46 21.75 L 15.5 22.0 L 15.54 22.25 L 15.58 22.5 L 15.62 22.75 L 15.67 23.0 L 15.71 23.25 L 15.75 23.5 L 15.79 23.75 L 15.83 24.0 L 15.88 24.25 L 15.92 24.5 L 15.96 24.75 L 16.0 25.0" fill="none" stroke="#111" stroke-width="1.19" stroke-linecap="round" stroke-linejoin="round"/>
</svg>
