<?xml version="1.0" encoding="UTF-8"?>
<svg xmlns="http://www.w3.org/2000/svg" viewBox="0 0 24.00 35.00">
<path d="M 5.0 4.0 L 5.46 4.0 L 5.92 4.0 L 6.38 4.0 L 6.83 4.0 L 7.29 4.0 L 7.75 4.0 L 8.21 4.0 L 8.67 4.0 L 9.12 4.0 L 9.58 4.0 L 10.04 4.0 L 10.5 4.0 L 10.96 4.0 L 11.42 4.0 L 11.88 4.0 L 12.33 4.0 L 12.79 4.0 L 13.25 4.0 L 13.71 4.0 L 14.17 4.0 L 14.62 4.0 L 15.08 4.0 L 15.54 4.0 L 16.0 4.0" fill="none" stroke="#111" stroke-width="1.23" stroke-linecap="round" stroke-linejoin="round"/>
<path d="M 5.0 4.0 L 5.0 4.12 L 5.0 4.25 L 5.0 4.38 L 5.0 4.5 L 5.0 4.62 L 5.0 4.75 L 5.0 4.88 L 5.0 5.0 L 5.0 5.12 L 5.0 5.25 L 5.0 5.38 L 5.0 5.5 L 5.0 5.62 L 5.0 5.75 L 5.0 5.88 L 5.0 6.0 L 5.0 6.12 L 5.0 6.25 L 5.0 6.38 L 5.0 6.5 L 5.0 6.62 L 5.0 6.75 L 5.0 6.88 L 5.0 7.0" fill="none" stroke="#111" stroke-width="1.23" stroke-linecap="round" stroke-linejoin="round"/>
<path d="M 16.0 4.0 L 16.0 4.12 L 16.0 4.25 L 16.0 4.38 L 16.0 4.5 L 16.0 4.62 L 16.0 4.75 L 16.0 4.88 L 16.0 5.0 L 16.0 5.12 L 16.0 5.25 L 16.0 5.38 L 16.0 5.5 L 16.0 5.62 L 16.0 5.75 L 16.0 5.88 L 16.0 6.0 L 16.0 6.12 L 16.0 6.25 L 16.0 6.38 L 16.0 6.5 L 16.0 6.62 L 16.0 6.75 L 16.0 6.88 L 16.0 7.0" fill="none" stroke="#111" stroke-width="1.23" stroke-linecap="round" stroke-linejoin="round"/>
<path d="M 11.0 4.0 L 11.0 4.17 L 11.0 4.33 L 11.0 4.5 L 11.0 4.67 L 11.0 4.83 L 11.0 5.0 L 11.0 5.17 L 11.0 5.33 L 11.0 5.5 L 11.0 5.67 L 11.0 5.83 L 11.0 6.0 L 11.0 6.17 L 11.0 6.33 L 11.0 6.5 L 11.0 6.67 L 11.0 6.83 L 11.0 7.0 L 11.0 7.17 L 11.0 7.33 L 11.0 7.5 L 11.0 7.67 L 11.0 7.83 L 11.0 8.0" fill="none" stroke="#111" stroke-width="1.23" stroke-linecap="round" stroke-linejoin="round"/>
<path d="M 7.0 10.0 L 7.0 10.75 L 7.0 11.5 L 7.0 12.25 L 7.0 13.0 L 7.0 13.75 L 7.0 14.5 L 7.0 15.25 L 7.0 16.0 L 7.0 16.75 L 7.0 17.5 L 7.0 18.25 L 7.0 19.0 L 7.0 19.75 L 7.0 20.5 L 7.0 21.25 L 7.0 22.0 L 7.0 22.75 L 7.0 23.5 L 7.0 24.25 L 7.0 25.0 L 7.0 25.75 L 7.0 26.5 L 7.0 27.25 L 7.0 28.0" fill="none" stroke="#111" stroke-width="1.23" stroke-linecap="round" stroke-linejoin="round"/>
<path d="M 5.0 10.0 L 5.08 10.17 L 5.17 10.33 L 5.25 10.5 L 5.33 10.67 L 5.42 10.83 L 5.5 11.0 L 5.58 11.17 L 5.67 11.33 L 5.75 11.5 L 5.83 11.67 L 5.92 11.83 L 6.0 12.0 L 6.08 12.17 L 6.17 12.33 L 6.25 12.5 L 6.33 12.67 L 6.42 12.83 L 6.5 13.0 L 6.58 13.17 L 6.67 13.33 L 6.75 13.5 L 6.83 13.67 L 6.92 13.83 L 7.0 14.0" fill="none" stroke="#111" stroke-width="1.23" stroke-linecap="round" stroke-linejoin="round"/>
<path d="M 11.0 10.0 L 10.83 10.17 L 10.67 10.33 L 10.5 10.5 L 10.33 10.67 L 10.17 10.83 L 10.0 11.0 L 9.83 11.17 L 9.67 11.33 L 9.5 11.5 L 9.33 11.67 L 9.17 11.83 L 9.0 12.0 L 8.83 12.17 L 8.67 12.33 L 8.5 12.5 L 8.33 12.67 L 8.17 12.83 L 8.0 13.0 L 7.83 13.17 L 7.67 13.33 L 7.5 13.5 L 7.33 13.67 L 7.17 13.83 L 7.0 14.0" fill="none" stroke="#111" stroke-width="1.23" stroke-linecap="round" stroke-linejoin="round"/>
<path d="M 11.0 16.0 L 10.83 16.17 L 10.67 16.33 L 10.5 16.5 L 10.33 16.67 L 10.17 16.83 L 10.0 17.0 L 9.83 17.17 L 9.67 17.33 L 9.5 17.5 L 9.33 17.67 L 9.17 17.83 L 9.0 18.0 L 8.83 18.17 L 8.67 18.33 L 8.5 18.5 L 8.33 18.67 L 8.17 18.83 L 8.0 19.0 L 7.83 19.17 L 7.67 19.33 L 7.5 19.5 L 7.33 19.67 L 7.17 19.83 L 7.0 20.0" fill="none" stroke="#111" stroke-width="1.23" stroke-linecap="round" stroke-linejoin="round"/>
<path d="M 7.0 23.0 L 6.88 23.12 L 6.75 23.25 L 6.62 23.38 L 6.5 23.5 L 6.38 23.62 L 6.25 23.75 L 6.12 23.88 L 6.0 24.0 L 5.88 24.12 L 5.75 24.25 L 5.62 24.38 L 5.5 24.5 L 5.38 24.62 L 5.25 24.75 L 5.12 24.88 L 5.0 25.0 L 4.88 25.12 L 4.75 25.25 L 4.62 25.38 L 4.5 25.5 L 4.38 25.62 L 4.25 25.75 L 4.12 25.88 L 4.0 26.0" fill="none" stroke="#111" stroke-width="1.23" stroke-linecap="round" stroke-linejoin="round"/>
<path d="M 7.0 22.0 L 7.17 22.17 L 7.33 22.33 L 7.5 22.5 L 7.67 22.67 L 7.83 22.83 L 8.0 23.0 L 8.17 23.17 L 8.33 23.33 L 8.5 23.5 L 8.67 23.67 L 8.83 23.83 L 9.0 24.0 L 9.17 24.17 L 9.33 24.33 L 9.5 24.5 L 9.67 24.67 L 9.83 24.83 L 10.0 25.0 L 10.17 25.17 L 10.33 25.33 L 10.5 25.5 L 10.67 25.67 L 10.83 25.83 L 11.0 26.0" fill="none" stroke="#111" stroke-width="1.23" stroke-linecap="round" stroke-linejoin="round"/>
<path d="M 14.0 10.0 L 14.0 10.88 L 14.0 11.75 L 14.0 12.62 L 14.0 13.5 L 14.0 14.38 L 14.0 15.25 L 14.0 16.12 L 14.0 17.0 L 14.0 17.88 L 14.0 18.75 L 14.0 19.62 L 14.0 20.5 L 14.0 21.38 L 14.0 22.25 L 14.0 23.12 L 14.0 24.0 L 14.0 24.88 L 14.0 25.75 L 14.0 26.62 L 14.0 27.5 L 14.0 28.38 L 14.0 29.25 L 14.0 30.12 L 14.0 31.0" fill="none" stroke="#111" stroke-width="1.23" stroke-linecap="round" stroke-linejoin="round"/>
<path d="M 11.0 14.0 L 11.12 14.21 L 11.25 14.42 L 11.38 14.62 L 11.5 14.83 L 11.62 15.04 L 11.75 15.25 L 11.88 15.46 L 12.0 15.67 L 12.12 15.88 L 12.25 16.08 L 12.38 16.29 L 12.5 16.5 L 12.62 16.71 L 12.75 16.92 L 12.88 17.12 L 13.0 17.33 L 13.12 17.54 L 13.25 17.75 L 13.38 17.96 L 13.5 18.17 L 13.62 18.38 L 13.75 18.58 L 13.88 18.79 L 14.0 19.0" fill="none" stroke="#111" stroke-width="1.23" stroke-linecap="round" stroke-linejoin="round"/>
<path d="M 19.0 11.0 L 18.79 11.21 L 18.58 11.42 L 18.38 11.62 L 18.17 11.83 L 17.96 12.04 L 17.75 12.25 L 17.54 12.46 L 17.33 12.67 L 17.12 12.88 L 16.92 13.08 L 16.71 13.29 L 16.5 13.5 L 16.29 13.71 L 16.08 13.92 L 15.88 14.12 L 15.67 14.33 L 15.46 14.54 L 15.25 14.75 L 15.04 14.96 L 14.83 15.17 L 14.62 15.38 L 14.42 15.58 L 14.21 15.79 L 14.0 16.0" fill="none" stroke="#111" stroke-width="1.23" stroke-linecap="round" stroke-linejoin="round"/>
<path d="M 14.0 20.0 L 13.88 20.12 L 13.75 20.25 L 13.62 20.38 L 13.5 20.5 L 13.38 20.62 L 13.25 20.75 L 13.12 20.88 L 13.0 21.0 L 12.88 21.12 L 12.75 21.25 L 12.62 21.38 L 12.5 21.5 L 12.38 21.62 L 12.25 21.75 L 12.12 21.88 L 12.0 22.0 L 11.88 22.12 L 11.75 22.25 L 11.62 22.38 L 11.5 22.5 L 11.38 22.62 L 11.25 22.75 L 11.12 22.88 L 11.0 23.0" fill="none" stroke="#111" stroke-width="1.23" stroke-linecap="round" stroke-linejoin="round"/>
<path d="M 14.0 20.0 L 14.25 20.21 L 14.5 20.42 L 14.75 20.62 L 15.0 20.83 L 15.25 21.04 L 15.5 21.25 L 15.75 21.46 L 16.0 21.67 L 16.25 21.88 L 16.5 22.08 L 16.75 22.29 L 17.0 22.5 L 17.25 22.71 L 17.5 22.92 L 17.75 23.12 L 18.0 23.33 L 18.25 23.54 L 18.5 23.75 L 18.75 23.96 L 19.0 24.17 L 19.25 24.38 L 19.5 24.58 L 19.75 24.79 L 20.0 25.0" fill="none" stroke="#111" stroke-width="1.23" stroke-linecap="round" stroke-linejoin="round"/>
<path d="M 11.0 17.0 L 11.0 17.12 L 11.0 17.25 L 11.0 17.38 L 11.0 17.5 L 11.0 17.62 L 11.0 17.75 L 11.0 17.88 L 11.0 18.0 L 11.0 18.12 L 11.0 18.25 L 11.0 18.38 L 11.0 18.5 L 11.0 18.62 L 11.0 18.75 L 11.0 18.88 L 11.0 19.0 L 11.0 19.12 L 11.0 19.25 L 11.0 19.38 L 11.0 19.5 L 11.0 19.62 L 11.0 19.75 L 11.0 19.88 L 11.0 20.0" fill="none" stroke="#111" stroke-width="1.23" stroke-linecap="round" stroke-linejoin="round"/>
<path d="M 9.0 8.0 L 9.0 8.08 L 9.0 8.17 L 9.0 8.25 L 9.0 8.33 L 9.0 8.42 L 9.0 8.5 L 9.0 8.58 L 9.0 8.67 L 9.0 8.75 L 9.0 8.83 L 9.0 8.92 L 9.0 9.0 L 9.0 9.08 L 9.0 9.17 L 9.0 9.25 L 9.0 9.33 L 9.0 9.42 L 9.0 9.5 L 9.0 9.58 L 9.0 9.67 L 9.0 9.75 L 9.0 9.83 L 9.0 9.92 L 9.0 10.0" fill="none" stroke="#111" stroke-width="1.23" stroke-linecap="round" stroke-linejoin="round"/>
<path d="M 4.0 12.0 L 4.0 12.21 L 4.0 12.42 L 4.0 12.62 L 4.0 12.83 L 4.0 13.04 L 4.0 13.25 L 4.0 13.46 L 4.0 13.67 L 4.0 13.88 L 4.0 14.08 L 4.0 14.29 L 4.0 14.5 L 4.0 14.71 L 4.0 14.92 L 4.0 15.12 L 4.0 15.33 L 4.0 15.54 L 4.0 15.75 L 4.0 15.96 L 4.0 16.17 L 4.0 16.38 L 4.0 16.58 L 4.0 16.79 L 4.0 17.0" fill="none" stroke="#111" stroke-width="1.23" stroke-linecap="round" stroke-linejoin="round"/>
</svg>
