<?xml version="1.0" encoding="UTF-8"?>
<svg xmlns="http://www.w3.org/2000/svg" viewBox="0 0 27.42 35.82">
<path d="M 11.0 4.0 L 11.33 4.21 L 11.67 4.42 L 12.0 4.62 L 12.33 4.83 L 12.67 5.04 L 13.0 5.25 L 13.33 5.46 L 13.67 5.67 L 14.0 5.88 L 14.33 6.08 L 14.67 6.29 L 15.0 6.5 L 15.33 6.71 L 15.67 6.92 L 16.0 7.12 L 16.33 7.33 L 16.67 7.54 L 17.0 7.75 L 17.33 7.96 L 17.67 8.17 L 18.0 8.38 L 18.33 8.58 L 18.67 8.79 L 19.0 9.0" fill="none" stroke="#111" stroke-width="1.25" stroke-linecap="round" stroke-linejoin="round"/>
<path d="M 7.0 7.0 L 7.09 7.65 L 7.25 8.29 L 7.47 8.91 L 7.75 9.5 L 8.09 10.06 L 8.49 10.58 L 8.94 11.05 L 9.44 11.48 L 9.98 11.86 L 10.56 12.17 L 11.16 12.43 L 11.79 12.62 L 12.43 12.75 L 13.08 12.8 L 13.74 12.8 L 14.39 12.72 L 15.03 12.58 L 15.66 12.37 L 16.25 12.1 L 16.82 11.76 L 17.35 11.38 L 17.83 10.93 L 18.27 10.45 L 18.66 9.91" fill="none" stroke="#111" stroke-width="1.25" stroke-linecap="round" stroke-linejoin="round"/>
<path d="M 10.0 9.0 L 10.12 8.83 L 10.25 8.67 L 10.38 8.5 L 10.5 8.33 L 10.62 8.17 L 10.75 8.0 L 10.88 7.83 L 11.0 7.67 L 11.12 7.5 L 11.25 7.33 L 11.38 7.17 L 11.5 7.0 L 11.62 6.83 L 11.75 6.67 L 11.88 6.5 L 12.0 6.33 L 12.12 6.17 L 12.25 6.0 L 12.38 5.83 L 12.5 5.67 L 12.62 5.5 L 12.75 5.33 L 12.88 5.17 L 13.0 5.0" fill="none" stroke="#111" stroke-width="1.25" stroke-linecap="round" stroke-linejoin="round"/>
<path d="M 12.0 13.0 L 10.77 13.73 L 9.66 14.63 L 8.69 15.68 L 7.88 16.86 L 7.25 18.14 L 6.81 19.5 L 6.56 20.91 L 6.52 22.33 L 6.69 23.75 L 7.06 25.14 L 7.62 26.45 L 8.37 27.67 L 9.28 28.77 L 10.34 29.73 L 11.53 30.52 L 12.81 31.14 L 14.18 31.57 L 15.59 31.8 L 17.02 31.82 L 18.44 31.63 L 19.81 31.25 L 21.12 30.67 L 22.33 29.91 L 23.42 28.99" fill="none" stroke="#111" stroke-width="1.25" stroke-linecap="round" stroke-linejoin="round"/>
<path d="M 17.0 11.0 L 16.4 11.58 L 15.84 12.19 L 15.33 12.85 L 14.87 13.54 L 14.45 14.26 L 14.09 15.0 L 13.77 15.77 L 13.52 16.56 L 13.32 17.37 L 13.17 18.19 L 13.08 19.01 L 13.05 19.84 L 13.08 20.67 L 13.17 21.5 L 13.32 22.32 L 13.52 23.13 L 13.77 23.92 L 14.09 24.69 L 14.45 25.43 L 14.87 26.15 L 15.33 26.84 L 15.84 27.49 L 16.4 28.11 L 17.0 28.69" fill="none" stroke="#111" stroke-width="1.25" stroke-linecap="round" stroke-linejoin="round"/>
<path d="M 18.0 10.0 L 18.33 10.24 L 18.65 10.5 L 18.95 10.78 L 19.23 11.08 L 19.49 11.4 L 19.74 11.73 L 19.96 12.08 L 20.15 12.44 L 20.33 12.81 L 20.48 13.19 L 20.61 13.59 L 20.71 13.98 L 20.79 14.39 L 20.84 14.8 L 20.86 15.21 L 20.86 15.62 L 20.83 16.03 L 20.78 16.44 L 20.7 16.84 L 20.6 17.24 L 20.47 17.63 L 20.32 18.01 L 20.14 18.38 L 19.94 18.74 L 20.0 19.0 L 19.7 18.88 L 19.39 18.74 L 19.1 18.6 L 18.8 18.45 L 18.51 18.3 L 18.23 18.13 L 17.95 17.96 L 17.67 17.78 L 17.4 17.6 L 17.14 17.4 L 16.87 17.2 L 16.62 17.0 L 16.37 16.78 L 16.13 16.56 L 15.89 16.34 L 15.66 16.1 L 15.43 15.86 L 15.21 15.62 L 15.0 15.37 L 14.79 15.11 L 14.59 14.85 L 14.4 14.58 L 14.22 14.31 L 14.04 14.03" fill="none" stroke="#111" stroke-width="1.25" stroke-linecap="round" stroke-linejoin="round"/>
<path d="M 5.0 16.0 L 5.08 16.04 L 5.17 16.08 L 5.25 16.12 L 5.33 16.17 L 5.42 16.21 L 5.5 16.25 L 5.58 16.29 L 5.67 16.33 L 5.75 16.38 L 5.83 16.42 L 5.92 16.46 L 6.0 16.5 L 6.08 16.54 L 6.17 16.58 L 6.25 16.62 L 6.33 16.67 L 6.42 16.71 L 6.5 16.75 L 6.58 16.79 L 6.67 16.83 L 6.75 16.88 L 6.83 16.92 L 6.92 16.96 L 7.0 17.0" fill="none" stroke="#111" stroke-width="1.25" stroke-linecap="round" stroke-linejoin="round"/>
<path d="M 4.0 30.0 L 4.12 29.96 L 4.25 29.92 L 4.38 29.88 L 4.5 29.83 L 4.62 29.79 L 4.75 29.75 L 4.88 29.71 L 5.0 29.67 L 5.12 29.62 L 5.25 29.58 L 5.38 29.54 L 5.5 29.5 L 5.62 29.46 L 5.75 29.42 L 5.88 29.38 L 6.0 29.33 L 6.12 29.29 L 6.25 29.25 L 6.38 29.21 L 6.5 29.17 L 6.62 29.12 L 6.75 29.08 L 6.88 29.04 L 7.0 29.0" fill="none" stroke="#111" stroke-width="1.25" stroke-linecap="round" stroke-linejoin="round"/>
</svg>
