<?xml version="1.0" encoding="UTF-8"?>
<svg xmlns="http://www.w3.org/2000/svg" viewBox="0 0 24.29 31.59">
<path d="M 6.08 12.59 L 5.73 11.69 L 5.52 10.76 L 5.47 9.8 L 5.57 8.85 L 5.82 7.93 L 6.22 7.06 L 6.75 6.26 L 7.4 5.56 L 8.16 4.97 L 9.0 4.51 L 9.9 4.19 L 10.84 4.02 L 11.8 4.0 L 12.75 4.13 L 13.66 4.42 L 14.52 4.85 L 15.29 5.41 L 15.97 6.08 L 16.53 6.86 L 16.96 7.71 L 17.25 8.63 L 17.39 9.57 L 17.37 10.53 L 17.2 11.47" fill="none" stroke="#111" stroke-width="1.11" stroke-linecap="round" stroke-linejoin="round"/>
<path d="M 11.08 5.59 L 11.08 5.84 L 11.08 6.09 L 11.08 6.34 L 11.08 6.59 L 11.08 6.84 L 11.08 7.09 L 11.08 7.34 L 11.08 7.59 L 11.08 7.84 L 11.08 8.09 L 11.08 8.34 L 11.08 8.59 L 11.08 8.84 L 11.08 9.09 L 11.08 9.34 L 11.08 9.59 L 11.08 9.84 L 11.08 10.09 L 11.08 10.34 L 11.08 10.59 L 11.08 10.84 L 11.08 11.09 L 11.08 11.34 L 11.08 11.59" fill="none" stroke="#111" stroke-width="1.11" stroke-linecap="round" stroke-linejoin="round"/>
<path d="M 11.08 17.59 L 10.51 17.86 L 9.97 18.2 L 9.48 18.6 L 9.04 19.07 L 8.67 19.59 L 8.36 20.15 L 8.13 20.74 L 7.98 21.36 L 7.9 21.99 L 7.9 22.63 L 7.99 23.26 L 8.15 23.87 L 8.39 24.47 L 8.7 25.02 L 9.08 25.53 L 9.52 25.99 L 10.02 26.39 L 10.56 26.73 L 11.14 26.99 L 11.75 27.18 L 12.37 27.29 L 13.01 27.32 L 13.65 27.28 L 14.27 27.15 L 13.08 23.59 L 12.96 23.46 L 12.83 23.34 L 12.71 23.21 L 12.58 23.09 L 12.46 22.96 L 12.33 22.84 L 12.21 22.71 L 12.08 22.59 L 11.96 22.46 L 11.83 22.34 L 11.71 22.21 L 11.58 22.09 L 11.46 21.96 L 11.33 21.84 L 11.21 21.71 L 11.08 21.59 L 10.96 21.46 L 10.83 21.34 L 10.71 21.21 L 10.58 21.09 L 10.46 20.96 L 10.33 20.84 L 10.21 20.71 L 10.08 20.59" fill="none" stroke="#111" stroke-width="1.11" stroke-linecap="round" stroke-linejoin="round"/>
<path d="M 17.08 18.59 L 16.48 18.7 L 15.91 18.91 L 15.38 19.21 L 14.9 19.59 L 14.49 20.05 L 14.16 20.56 L 13.91 21.12 L 13.75 21.71 L 13.7 22.31 L 13.73 22.92 L 13.87 23.52 L 14.1 24.09 L 14.41 24.61 L 14.81 25.07 L 15.27 25.47 L 15.8 25.79 L 16.36 26.02 L 16.96 26.16 L 17.57 26.2 L 18.17 26.14 L 18.76 25.99 L 19.32 25.74 L 19.84 25.41 L 20.29 25.0 L 19.08 22.59 L 19.0 22.5 L 18.92 22.42 L 18.83 22.34 L 18.75 22.25 L 18.67 22.17 L 18.58 22.09 L 18.5 22.0 L 18.42 21.92 L 18.33 21.84 L 18.25 21.75 L 18.17 21.67 L 18.08 21.59 L 18.0 21.5 L 17.92 21.42 L 17.83 21.34 L 17.75 21.25 L 17.67 21.17 L 17.58 21.09 L 17.5 21.0 L 17.42 20.92 L 17.33 20.84 L 17.25 20.75 L 17.17 20.67 L 17.08 20.59" fill="none" stroke="#111" stroke-width="1.11" stroke-linecap="round" stroke-linejoin="round"/>
<path d="M 6.08 15.59 L 6.08 15.84 L 6.08 16.09 L 6.08 16.34 L 6.08 16.59 L 6.08 16.84 L 6.08 17.09 L 6.08 17.34 L 6.08 17.59 L 6.08 17.84 L 6.08 18.09 L 6.08 18.34 L 6.08 18.59 L 6.08 18.84 L 6.08 19.09 L 6.08 19.34 L 6.08 19.59 L 6.08 19.84 L 6.08 20.09 L 6.08 20.34 L 6.08 20.59 L 6.08 20.84 L 6.08 21.09 L 6.08 21.34 L 6.08 21.59 L 6.08 21.59 L 5.82 21.72 L 5.58 21.87 L 5.34 22.04 L 5.12 22.23 L 4.92 22.43 L 4.73 22.65 L 4.57 22.89 L 4.42 23.14 L 4.29 23.4 L 4.19 23.67 L 4.11 23.95 L 4.05 24.23 L 4.01 24.52 L 4.0 24.81 L 4.01 25.1 L 4.05 25.39 L 4.1 25.67 L 4.19 25.95 L 4.29 26.22 L 4.41 26.48 L 4.56 26.73 L 4.73 26.97 L 4.91 27.19 L 5.11 27.4 L 5.08 27.59 L 5.4 27.52 L 5.72 27.43 L 6.02 27.3 L 6.3 27.14 L 6.57 26.95 L 6.81 26.73 L 7.04 26.49 L 7.23 26.23 L 7.4 25.95 L 7.53 25.65 L 7.64 25.34 L 7.71 25.02 L 7.74 24.7 L 7.75 24.37 L 7.71 24.05 L 7.65 23.73 L 7.55 23.42 L 7.42 23.12 L 7.25 22.83 L 7.06 22.57 L 6.84 22.32 L 6.6 22.11 L 6.34 21.91 L 6.05 21.75" fill="none" stroke="#111" stroke-width="1.11" stroke-linecap="round" stroke-linejoin="round"/>
</svg>
