<?xml version="1.0" encoding="UTF-8"?>
<svg xmlns="http://www.w3.org/2000/svg" viewBox="0 0 22.37 40.59">
<path d="M 15.72 4.0 L 15.72 4.29 L 15.72 4.58 L 15.72 4.88 L 15.72 5.17 L 15.72 5.46 L 15.72 5.75 L 15.72 6.04 L 15.72 6.33 L 15.72 6.62 L 15.72 6.92 L 15.72 7.21 L 15.72 7.5 L 15.72 7.79 L 15.72 8.08 L 15.72 8.38 L 15.72 8.67 L 15.72 8.96 L 15.72 9.25 L 15.72 9.54 L 15.72 9.83 L 15.72 10.12 L 15.72 10.42 L 15.72 10.71 L 15.72 11.0" fill="none" stroke="#111" stroke-width="1.42" stroke-linecap="round" stroke-linejoin="round"/>
<path d="M 15.72 11.0 L 15.23 11.18 L 14.77 11.4 L 14.33 11.67 L 13.92 11.98 L 13.54 12.33 L 13.19 12.71 L 12.89 13.12 L 12.62 13.57 L 12.41 14.03 L 12.23 14.52 L 12.11 15.02 L 12.03 15.53 L 12.0 16.04 L 12.03 16.56 L 12.1 17.07 L 12.22 17.57 L 12.4 18.05 L 12.61 18.52 L 12.87 18.96 L 13.18 19.38 L 13.52 19.76 L 13.9 20.11 L 14.31 20.42 L 14.75 20.69" fill="none" stroke="#111" stroke-width="1.42" stroke-linecap="round" stroke-linejoin="round"/>
<path d="M 15.72 11.0 L 16.14 11.28 L 16.54 11.6 L 16.91 11.95 L 17.24 12.34 L 17.53 12.75 L 17.79 13.19 L 18.0 13.66 L 18.16 14.14 L 18.28 14.64 L 18.35 15.14 L 18.37 15.65 L 18.34 16.16 L 18.27 16.66 L 18.15 17.16 L 17.98 17.64 L 17.76 18.1 L 17.51 18.54 L 17.21 18.96 L 16.88 19.34 L 16.51 19.69 L 16.1 20.0 L 15.67 20.28 L 15.22 20.51 L 14.75 20.7" fill="none" stroke="#111" stroke-width="1.42" stroke-linecap="round" stroke-linejoin="round"/>
<path d="M 14.72 21.0 L 14.95 21.87 L 15.11 22.76 L 15.21 23.66 L 15.24 24.57 L 15.2 25.47 L 15.09 26.37 L 14.92 27.26 L 14.69 28.13 L 14.38 28.98 L 14.02 29.81 L 13.59 30.61 L 13.11 31.37 L 12.57 32.1 L 11.98 32.78 L 11.33 33.42 L 10.65 34.01 L 9.92 34.54 L 9.15 35.02 L 8.35 35.44 L 7.52 35.8 L 6.66 36.09 L 5.79 36.32 L 4.9 36.49 L 4.0 36.59" fill="none" stroke="#111" stroke-width="1.42" stroke-linecap="round" stroke-linejoin="round"/>
<path d="M 8.72 26.0 L 9.05 26.38 L 9.38 26.75 L 9.72 27.12 L 10.05 27.5 L 10.38 27.88 L 10.72 28.25 L 11.05 28.62 L 11.38 29.0 L 11.72 29.38 L 12.05 29.75 L 12.38 30.12 L 12.72 30.5 L 13.05 30.88 L 13.38 31.25 L 13.72 31.62 L 14.05 32.0 L 14.38 32.38 L 14.72 32.75 L 15.05 33.12 L 15.38 33.5 L 15.72 33.88 L 16.05 34.25 L 16.38 34.62 L 16.72 35.0" fill="none" stroke="#111" stroke-width="1.42" stroke-linecap="round" stroke-linejoin="round"/>
</svg>
