<?xml version="1.0" encoding="UTF-8"?>
<svg xmlns="http://www.w3.org/2000/svg" viewBox="0 0 22.82 35.82">
<path d="M 8.0 4.0 L 8.21 4.0 L 8.42 4.0 L 8.62 4.0 L 8.83 4.0 L 9.04 4.0 L 9.25 4.0 L 9.46 4.0 L 9.67 4.0 L 9.88 4.0 L 10.08 4.0 L 10.29 4.0 L 10.5 4.0 L 10.71 4.0 L 10.92 4.0 L 11.12 4.0 L 11.33 4.0 L 11.54 4.0 L 11.75 4.0 L 11.96 4.0 L 12.17 4.0 L 12.38 4.0 L 12.58 4.0 L 12.79 4.0 L 13.0 4.0" fill="none" stroke="#111" stroke-width="1.25" stroke-linecap="round" stroke-linejoin="round"/>
<path d="M 6.0 7.0 L 6.46 7.0 L 6.92 7.0 L 7.38 7.0 L 7.83 7.0 L 8.29 7.0 L 8.75 7.0 L 9.21 7.0 L 9.67 7.0 L 10.12 7.0 L 10.58 7.0 L 11.04 7.0 L 11.5 7.0 L 11.96 7.0 L 12.42 7.0 L 12.88 7.0 L 13.33 7.0 L 13.79 7.0 L 14.25 7.0 L 14.71 7.0 L 15.17 7.0 L 15.62 7.0 L 16.08 7.0 L 16.54 7.0 L 17.0 7.0" fill="none" stroke="#111" stroke-width="1.25" stroke-linecap="round" stroke-linejoin="round"/>
<path d="M 11.0 7.0 L 11.0 7.21 L 11.0 7.42 L 11.0 7.62 L 11.0 7.83 L 11.0 8.04 L 11.0 8.25 L 11.0 8.46 L 11.0 8.67 L 11.0 8.88 L 11.0 9.08 L 11.0 9.29 L 11.0 9.5 L 11.0 9.71 L 11.0 9.92 L 11.0 10.12 L 11.0 10.33 L 11.0 10.54 L 11.0 10.75 L 11.0 10.96 L 11.0 11.17 L 11.0 11.38 L 11.0 11.58 L 11.0 11.79 L 11.0 12.0" fill="none" stroke="#111" stroke-width="1.25" stroke-linecap="round" stroke-linejoin="round"/>
<path d="M 6.0 8.0 L 5.96 8.17 L 5.92 8.33 L 5.88 8.5 L 5.83 8.67 L 5.79 8.83 L 5.75 9.0 L 5.71 9.17 L 5.67 9.33 L 5.62 9.5 L 5.58 9.67 L 5.54 9.83 L 5.5 10.0 L 5.46 10.17 L 5.42 10.33 L 5.38 10.5 L 5.33 10.67 L 5.29 10.83 L 5.25 11.0 L 5.21 11.17 L 5.17 11.33 L 5.12 11.5 L 5.08 11.67 L 5.04 11.83 L 5.0 12.0" fill="none" stroke="#111" stroke-width="1.25" stroke-linecap="round" stroke-linejoin="round"/>
<path d="M 16.0 7.0 L 16.04 7.17 L 16.08 7.33 L 16.12 7.5 L 16.17 7.67 L 16.21 7.83 L 16.25 8.0 L 16.29 8.17 L 16.33 8.33 L 16.38 8.5 L 16.42 8.67 L 16.46 8.83 L 16.5 9.0 L 16.54 9.17 L 16.58 9.33 L 16.62 9.5 L 16.67 9.67 L 16.71 9.83 L 16.75 10.0 L 16.79 10.17 L 16.83 10.33 L 16.88 10.5 L 16.92 10.67 L 16.96 10.83 L 17.0 11.0" fill="none" stroke="#111" stroke-width="1.25" stroke-linecap="round" stroke-linejoin="round"/>
<path d="M 8.0 11.0 L 7.96 11.08 L 7.92 11.17 L 7.88 11.25 L 7.83 11.33 L 7.79 11.42 L 7.75 11.5 L 7.71 11.58 L 7.67 11.67 L 7.62 11.75 L 7.58 11.83 L 7.54 11.92 L 7.5 12.0 L 7.46 12.08 L 7.42 12.17 L 7.38 12.25 L 7.33 12.33 L 7.29 12.42 L 7.25 12.5 L 7.21 12.58 L 7.17 12.67 L 7.12 12.75 L 7.08 12.83 L 7.04 12.92 L 7.0 13.0" fill="none" stroke="#111" stroke-width="1.25" stroke-linecap="round" stroke-linejoin="round"/>
<path d="M 14.0 11.0 L 14.04 11.08 L 14.08 11.17 L 14.12 11.25 L 14.17 11.33 L 14.21 11.42 L 14.25 11.5 L 14.29 11.58 L 14.33 11.67 L 14.38 11.75 L 14.42 11.83 L 14.46 11.92 L 14.5 12.0 L 14.54 12.08 L 14.58 12.17 L 14.62 12.25 L 14.67 12.33 L 14.71 12.42 L 14.75 12.5 L 14.79 12.58 L 14.83 12.67 L 14.88 12.75 L 14.92 12.83 L 14.96 12.92 L 15.0 13.0" fill="none" stroke="#111" stroke-width="1.25" stroke-linecap="round" stroke-linejoin="round"/>
<path d="M 11.0 13.0 L 11.0 13.42 L 11.0 13.83 L 11.0 14.25 L 11.0 14.67 L 11.0 15.08 L 11.0 15.5 L 11.0 15.92 L 11.0 16.33 L 11.0 16.75 L 11.0 17.17 L 11.0 17.58 L 11.0 18.0 L 11.0 18.42 L 11.0 18.83 L 11.0 19.25 L 11.0 19.67 L 11.0 20.08 L 11.0 20.5 L 11.0 20.92 L 11.0 21.33 L 11.0 21.75 L 11.0 22.17 L 11.0 22.58 L 11.0 23.0 L 11.0 23.0 L 11.19 23.35 L 11.35 23.71 L 11.5 24.07 L 11.63 24.45 L 11.74 24.83 L 11.83 25.21 L 11.9 25.6 L 11.95 25.99 L 11.98 26.39 L 11.99 26.78 L 11.98 27.18 L 11.94 27.57 L 11.89 27.96 L 11.82 28.35 L 11.72 28.73 L 11.61 29.11 L 11.47 29.48 L 11.32 29.85 L 11.15 30.2 L 10.96 30.55 L 10.75 30.88 L 10.52 31.21 L 10.28 31.52 L 10.02 31.82" fill="none" stroke="#111" stroke-width="1.25" stroke-linecap="round" stroke-linejoin="round"/>
<path d="M 8.0 15.0 L 8.35 14.92 L 8.71 14.87 L 9.07 14.84 L 9.44 14.83 L 9.8 14.85 L 10.16 14.88 L 10.52 14.95 L 10.87 15.03 L 11.22 15.14 L 11.56 15.26 L 11.89 15.41 L 12.21 15.58 L 12.52 15.77 L 12.81 15.98 L 13.09 16.21 L 13.36 16.45 L 13.61 16.71 L 13.85 16.99 L 14.06 17.28 L 14.26 17.59 L 14.44 17.9 L 14.59 18.23 L 14.73 18.57 L 14.84 18.91 L 15.0 19.0 L 14.71 19.18 L 14.41 19.35 L 14.11 19.51 L 13.8 19.66 L 13.49 19.8 L 13.17 19.92 L 12.84 20.04 L 12.51 20.14 L 12.18 20.22 L 11.85 20.3 L 11.51 20.36 L 11.17 20.41 L 10.83 20.45 L 10.49 20.47 L 10.14 20.48 L 9.8 20.48 L 9.46 20.46 L 9.11 20.43 L 8.77 20.39 L 8.44 20.33 L 8.1 20.27 L 7.77 20.19 L 7.44 20.09 L 7.11 19.99" fill="none" stroke="#111" stroke-width="1.25" stroke-linecap="round" stroke-linejoin="round"/>
<path d="M 5.0 18.0 L 5.56 17.75 L 6.14 17.53 L 6.72 17.34 L 7.32 17.18 L 7.92 17.04 L 8.52 16.94 L 9.13 16.86 L 9.75 16.82 L 10.36 16.8 L 10.98 16.81 L 11.59 16.86 L 12.2 16.93 L 12.81 17.03 L 13.41 17.16 L 14.01 17.32 L 14.59 17.51 L 15.17 17.72 L 15.73 17.97 L 16.29 18.24 L 16.82 18.54 L 17.35 18.86 L 17.86 19.21 L 18.35 19.58 L 18.82 19.97" fill="none" stroke="#111" stroke-width="1.25" stroke-linecap="round" stroke-linejoin="round"/>
<path d="M 7.0 30.0 L 7.15 29.78 L 7.29 29.56 L 7.42 29.33 L 7.53 29.09 L 7.63 28.85 L 7.72 28.6 L 7.79 28.35 L 7.86 28.09 L 7.9 27.83 L 7.94 27.57 L 7.96 27.31 L 7.97 27.04 L 7.96 26.78 L 7.94 26.52 L 7.9 26.26 L 7.86 26.0 L 7.79 25.74 L 7.72 25.49 L 7.63 25.24 L 7.53 25.0 L 7.42 24.76 L 7.29 24.53 L 7.15 24.31 L 7.0 24.09 L 7.0 24.0 L 7.33 23.92 L 7.67 23.83 L 8.0 23.75 L 8.33 23.67 L 8.67 23.58 L 9.0 23.5 L 9.33 23.42 L 9.67 23.33 L 10.0 23.25 L 10.33 23.17 L 10.67 23.08 L 11.0 23.0 L 11.33 22.92 L 11.67 22.83 L 12.0 22.75 L 12.33 22.67 L 12.67 22.58 L 13.0 22.5 L 13.33 22.42 L 13.67 22.33 L 14.0 22.25 L 14.33 22.17 L 14.67 22.08 L 15.0 22.0 L 15.0 22.0 L 14.96 22.12 L 14.92 22.25 L 14.88 22.38 L 14.83 22.5 L 14.79 22.62 L 14.75 22.75 L 14.71 22.88 L 14.67 23.0 L 14.62 23.12 L 14.58 23.25 L 14.54 23.38 L 14.5 23.5 L 14.46 23.62 L 14.42 23.75 L 14.38 23.88 L 14.33 24.0 L 14.29 24.12 L 14.25 24.25 L 14.21 24.38 L 14.17 24.5 L 14.12 24.62 L 14.08 24.75 L 14.04 24.88 L 14.0 25.0 L 14.0 25.0 L 13.67 25.12 L 13.33 25.25 L 13.0 25.38 L 12.67 25.5 L 12.33 25.62 L 12.0 25.75 L 11.67 25.88 L 11.33 26.0 L 11.0 26.12 L 10.67 26.25 L 10.33 26.38 L 10.0 26.5 L 9.67 26.62 L 9.33 26.75 L 9.0 26.88 L 8.67 27.0 L 8.33 27.12 L 8.0 27.25 L 7.67 27.38 L 7.33 27.5 L 7.0 27.62 L 6.67 27.75 L 6.33 27.88 L 6.0 28.0" fill="none" stroke="#111" stroke-width="1.25" stroke-linecap="round" stroke-linejoin="round"/>
<path d="M 5.0 20.0 L 4.96 20.17 L 4.92 20.33 L 4.88 20.5 L 4.83 20.67 L 4.79 20.83 L 4.75 21.0 L 4.71 21.17 L 4.67 21.33 L 4.62 21.5 L 4.58 21.67 L 4.54 21.83 L 4.5 22.0 L 4.46 22.17 L 4.42 22.33 L 4.38 22.5 L 4.33 22.67 L 4.29 22.83 L 4.25 23.0 L 4.21 23.17 L 4.17 23.33 L 4.12 23.5 L 4.08 23.67 L 4.04 23.83 L 4.0 24.0" fill="none" stroke="#111" stroke-width="1.25" stroke-linecap="round" stroke-linejoin="round"/>
</svg>
