<?xml version="1.0" encoding="UTF-8"?>
<svg xmlns="http://www.w3.org/2000/svg" viewBox="0 0 22.00 36.54">
<path d="M 6.0 11.58 L 5.84 10.72 L 5.81 9.84 L 5.91 8.97 L 6.13 8.12 L 6.47 7.32 L 6.92 6.57 L 7.48 5.89 L 8.12 5.3 L 8.85 4.81 L 9.64 4.42 L 10.47 4.16 L 11.34 4.02 L 12.21 4.0 L 13.08 4.11 L 13.92 4.34 L 14.73 4.7 L 15.47 5.16 L 16.14 5.73 L 16.72 6.38 L 17.2 7.12 L 17.57 7.91 L 17.82 8.75 L 17.95 9.62 L 17.95 10.49" fill="none" stroke="#111" stroke-width="1.28" stroke-linecap="round" stroke-linejoin="round"/>
<path d="M 11.0 5.58 L 11.0 5.83 L 11.0 6.08 L 11.0 6.33 L 11.0 6.58 L 11.0 6.83 L 11.0 7.08 L 11.0 7.33 L 11.0 7.58 L 11.0 7.83 L 11.0 8.08 L 11.0 8.33 L 11.0 8.58 L 11.0 8.83 L 11.0 9.08 L 11.0 9.33 L 11.0 9.58 L 11.0 9.83 L 11.0 10.08 L 11.0 10.33 L 11.0 10.58 L 11.0 10.83 L 11.0 11.08 L 11.0 11.33 L 11.0 11.58" fill="none" stroke="#111" stroke-width="1.28" stroke-linecap="round" stroke-linejoin="round"/>
<path d="M 6.0 17.58 L 6.5 17.54 L 7.0 17.5 L 7.5 17.46 L 8.0 17.41 L 8.5 17.37 L 9.0 17.33 L 9.5 17.29 L 10.0 17.25 L 10.5 17.21 L 11.0 17.16 L 11.5 17.12 L 12.0 17.08 L 12.5 17.04 L 13.0 17.0 L 13.5 16.96 L 14.0 16.91 L 14.5 16.87 L 15.0 16.83 L 15.5 16.79 L 16.0 16.75 L 16.5 16.71 L 17.0 16.66 L 17.5 16.62 L 18.0 16.58" fill="none" stroke="#111" stroke-width="1.28" stroke-linecap="round" stroke-linejoin="round"/>
<path d="M 7.0 21.58 L 7.38 21.58 L 7.75 21.58 L 8.12 21.58 L 8.5 21.58 L 8.88 21.58 L 9.25 21.58 L 9.62 21.58 L 10.0 21.58 L 10.38 21.58 L 10.75 21.58 L 11.12 21.58 L 11.5 21.58 L 11.88 21.58 L 12.25 21.58 L 12.62 21.58 L 13.0 21.58 L 13.38 21.58 L 13.75 21.58 L 14.12 21.58 L 14.5 21.58 L 14.88 21.58 L 15.25 21.58 L 15.62 21.58 L 16.0 21.58" fill="none" stroke="#111" stroke-width="1.28" stroke-linecap="round" stroke-linejoin="round"/>
<path d="M 11.0 16.58 L 10.93 17.25 L 10.87 17.93 L 10.82 18.6 L 10.79 19.28 L 10.77 19.96 L 10.76 20.63 L 10.77 21.31 L 10.79 21.99 L 10.83 22.66 L 10.88 23.34 L 10.94 24.01 L 11.02 24.68 L 11.11 25.35 L 11.21 26.02 L 11.33 26.69 L 11.46 27.35 L 11.61 28.01 L 11.77 28.67 L 11.94 29.33 L 12.12 29.98 L 12.32 30.63 L 12.53 31.27 L 12.76 31.91 L 13.0 32.54" fill="none" stroke="#111" stroke-width="1.28" stroke-linecap="round" stroke-linejoin="round"/>
<path d="M 14.0 23.58 L 14.0 23.75 L 14.0 23.91 L 14.0 24.08 L 14.0 24.25 L 14.0 24.41 L 14.0 24.58 L 14.0 24.75 L 14.0 24.91 L 14.0 25.08 L 14.0 25.25 L 14.0 25.41 L 14.0 25.58 L 14.0 25.75 L 14.0 25.91 L 14.0 26.08 L 14.0 26.25 L 14.0 26.41 L 14.0 26.58 L 14.0 26.75 L 14.0 26.91 L 14.0 27.08 L 14.0 27.25 L 14.0 27.41 L 14.0 27.58" fill="none" stroke="#111" stroke-width="1.28" stroke-linecap="round" stroke-linejoin="round"/>
<path d="M 7.0 23.58 L 7.0 23.75 L 7.0 23.91 L 7.0 24.08 L 7.0 24.25 L 7.0 24.41 L 7.0 24.58 L 7.0 24.75 L 7.0 24.91 L 7.0 25.08 L 7.0 25.25 L 7.0 25.41 L 7.0 25.58 L 7.0 25.75 L 7.0 25.91 L 7.0 26.08 L 7.0 26.25 L 7.0 26.41 L 7.0 26.58 L 7.0 26.75 L 7.0 26.91 L 7.0 27.08 L 7.0 27.25 L 7.0 27.41 L 7.0 27.58" fill="none" stroke="#111" stroke-width="1.28" stroke-linecap="round" stroke-linejoin="round"/>
<path d="M 18.0 18.58 L 18.0 18.66 L 18.0 18.75 L 18.0 18.83 L 18.0 18.91 L 18.0 19.0 L 18.0 19.08 L 18.0 19.16 L 18.0 19.25 L 18.0 19.33 L 18.0 19.41 L 18.0 19.5 L 18.0 19.58 L 18.0 19.66 L 18.0 19.75 L 18.0 19.83 L 18.0 19.91 L 18.0 20.0 L 18.0 20.08 L 18.0 20.16 L 18.0 20.25 L 18.0 20.33 L 18.0 20.41 L 18.0 20.5 L 18.0 20.58" fill="none" stroke="#111" stroke-width="1.28" stroke-linecap="round" stroke-linejoin="round"/>
<path d="M 4.0 17.58 L 4.04 17.71 L 4.08 17.83 L 4.12 17.96 L 4.17 18.08 L 4.21 18.21 L 4.25 18.33 L 4.29 18.46 L 4.33 18.58 L 4.38 18.71 L 4.42 18.83 L 4.46 18.96 L 4.5 19.08 L 4.54 19.21 L 4.58 19.33 L 4.62 19.46 L 4.67 19.58 L 4.71 19.71 L 4.75 19.83 L 4.79 19.96 L 4.83 20.08 L 4.88 20.21 L 4.92 20.33 L 4.96 20.46 L 5.0 20.58" fill="none" stroke="#111" stroke-width="1.28" stroke-linecap="round" stroke-linejoin="round"/>
<path d="M 5.0 13.58 L 5.04 13.66 L 5.08 13.75 L 5.12 13.83 L 5.17 13.91 L 5.21 14.0 L 5.25 14.08 L 5.29 14.16 L 5.33 14.25 L 5.38 14.33 L 5.42 14.41 L 5.46 14.5 L 5.5 14.58 L 5.54 14.66 L 5.58 14.75 L 5.62 14.83 L 5.67 14.91 L 5.71 15.0 L 5.75 15.08 L 5.79 15.16 L 5.83 15.25 L 5.88 15.33 L 5.92 15.41 L 5.96 15.5 L 6.0 15.58" fill="none" stroke="#111" stroke-width="1.28" stroke-linecap="round" stroke-linejoin="round"/>
</svg>
