<?xml version="1.0" encoding="UTF-8"?>
<svg xmlns="http://www.w3.org/2000/svg" viewBox="0 0 23.00 34.95">
<path d="M 6.0 4.0 L 6.5 4.0 L 7.0 4.0 L 7.5 4.0 L 8.0 4.0 L 8.5 4.0 L 9.0 4.0 L 9.5 4.0 L 10.0 4.0 L 10.5 4.0 L 11.0 4.0 L 11.5 4.0 L 12.0 4.0 L 12.5 4.0 L 13.0 4.0 L 13.5 4.0 L 14.0 4.0 L 14.5 4.0 L 15.0 4.0 L 15.5 4.0 L 16.0 4.0 L 16.5 4.0 L 17.0 4.0 L 17.5 4.0 L 18.0 4.0" fill="none" stroke="#111" stroke-width="1.22" stroke-linecap="round" stroke-linejoin="round"/>
<path d="M 6.0 4.0 L 6.0 4.25 L 6.0 4.5 L 6.0 4.75 L 6.0 5.0 L 6.0 5.25 L 6.0 5.5 L 6.0 5.75 L 6.0 6.0 L 6.0 6.25 L 6.0 6.5 L 6.0 6.75 L 6.0 7.0 L 6.0 7.25 L 6.0 7.5 L 6.0 7.75 L 6.0 8.0 L 6.0 8.25 L 6.0 8.5 L 6.0 8.75 L 6.0 9.0 L 6.0 9.25 L 6.0 9.5 L 6.0 9.75 L 6.0 10.0" fill="none" stroke="#111" stroke-width="1.22" stroke-linecap="round" stroke-linejoin="round"/>
<path d="M 18.0 4.0 L 18.0 4.17 L 18.0 4.33 L 18.0 4.5 L 18.0 4.67 L 18.0 4.83 L 18.0 5.0 L 18.0 5.17 L 18.0 5.33 L 18.0 5.5 L 18.0 5.67 L 18.0 5.83 L 18.0 6.0 L 18.0 6.17 L 18.0 6.33 L 18.0 6.5 L 18.0 6.67 L 18.0 6.83 L 18.0 7.0 L 18.0 7.17 L 18.0 7.33 L 18.0 7.5 L 18.0 7.67 L 18.0 7.83 L 18.0 8.0" fill="none" stroke="#111" stroke-width="1.22" stroke-linecap="round" stroke-linejoin="round"/>
<path d="M 12.0 4.0 L 12.0 4.33 L 12.0 4.67 L 12.0 5.0 L 12.0 5.33 L 12.0 5.67 L 12.0 6.0 L 12.0 6.33 L 12.0 6.67 L 12.0 7.0 L 12.0 7.33 L 12.0 7.67 L 12.0 8.0 L 12.0 8.33 L 12.0 8.67 L 12.0 9.0 L 12.0 9.33 L 12.0 9.67 L 12.0 10.0 L 12.0 10.33 L 12.0 10.67 L 12.0 11.0 L 12.0 11.33 L 12.0 11.67 L 12.0 12.0" fill="none" stroke="#111" stroke-width="1.22" stroke-linecap="round" stroke-linejoin="round"/>
<path d="M 9.0 10.0 L 9.27 10.78 L 9.51 11.57 L 9.72 12.37 L 9.9 13.17 L 10.04 13.98 L 10.16 14.8 L 10.25 15.62 L 10.3 16.44 L 10.33 17.27 L 10.32 18.09 L 10.28 18.91 L 10.21 19.74 L 10.11 20.55 L 9.97 21.37 L 9.81 22.18 L 9.61 22.98 L 9.39 23.77 L 9.13 24.55 L 8.85 25.33 L 8.54 26.09 L 8.19 26.84 L 7.82 27.58 L 7.42 28.3 L 7.0 29.01" fill="none" stroke="#111" stroke-width="1.22" stroke-linecap="round" stroke-linejoin="round"/>
<path d="M 6.0 12.0 L 6.17 12.17 L 6.33 12.33 L 6.5 12.5 L 6.67 12.67 L 6.83 12.83 L 7.0 13.0 L 7.17 13.17 L 7.33 13.33 L 7.5 13.5 L 7.67 13.67 L 7.83 13.83 L 8.0 14.0 L 8.17 14.17 L 8.33 14.33 L 8.5 14.5 L 8.67 14.67 L 8.83 14.83 L 9.0 15.0 L 9.17 15.17 L 9.33 15.33 L 9.5 15.5 L 9.67 15.67 L 9.83 15.83 L 10.0 16.0" fill="none" stroke="#111" stroke-width="1.22" stroke-linecap="round" stroke-linejoin="round"/>
<path d="M 6.0 18.0 L 6.17 18.17 L 6.33 18.33 L 6.5 18.5 L 6.67 18.67 L 6.83 18.83 L 7.0 19.0 L 7.17 19.17 L 7.33 19.33 L 7.5 19.5 L 7.67 19.67 L 7.83 19.83 L 8.0 20.0 L 8.17 20.17 L 8.33 20.33 L 8.5 20.5 L 8.67 20.67 L 8.83 20.83 L 9.0 21.0 L 9.17 21.17 L 9.33 21.33 L 9.5 21.5 L 9.67 21.67 L 9.83 21.83 L 10.0 22.0" fill="none" stroke="#111" stroke-width="1.22" stroke-linecap="round" stroke-linejoin="round"/>
<path d="M 15.0 8.0 L 15.24 8.94 L 15.46 9.89 L 15.65 10.84 L 15.82 11.8 L 15.96 12.76 L 16.08 13.73 L 16.18 14.69 L 16.25 15.66 L 16.29 16.64 L 16.31 17.61 L 16.31 18.58 L 16.28 19.55 L 16.22 20.52 L 16.14 21.49 L 16.04 22.46 L 15.91 23.42 L 15.76 24.38 L 15.58 25.34 L 15.38 26.29 L 15.15 27.23 L 14.9 28.17 L 14.62 29.11 L 14.32 30.03 L 14.0 30.95" fill="none" stroke="#111" stroke-width="1.22" stroke-linecap="round" stroke-linejoin="round"/>
<path d="M 13.0 13.0 L 13.12 13.17 L 13.25 13.33 L 13.38 13.5 L 13.5 13.67 L 13.62 13.83 L 13.75 14.0 L 13.88 14.17 L 14.0 14.33 L 14.12 14.5 L 14.25 14.67 L 14.38 14.83 L 14.5 15.0 L 14.62 15.17 L 14.75 15.33 L 14.88 15.5 L 15.0 15.67 L 15.12 15.83 L 15.25 16.0 L 15.38 16.17 L 15.5 16.33 L 15.62 16.5 L 15.75 16.67 L 15.88 16.83 L 16.0 17.0" fill="none" stroke="#111" stroke-width="1.22" stroke-linecap="round" stroke-linejoin="round"/>
<path d="M 12.0 19.0 L 12.12 19.17 L 12.25 19.33 L 12.38 19.5 L 12.5 19.67 L 12.62 19.83 L 12.75 20.0 L 12.88 20.17 L 13.0 20.33 L 13.12 20.5 L 13.25 20.67 L 13.38 20.83 L 13.5 21.0 L 13.62 21.17 L 13.75 21.33 L 13.88 21.5 L 14.0 21.67 L 14.12 21.83 L 14.25 22.0 L 14.38 22.17 L 14.5 22.33 L 14.62 22.5 L 14.75 22.67 L 14.88 22.83 L 15.0 23.0" fill="none" stroke="#111" stroke-width="1.22" stroke-linecap="round" stroke-linejoin="round"/>
<path d="M 4.0 15.0 L 4.0 15.42 L 4.0 15.83 L 4.0 16.25 L 4.0 16.67 L 4.0 17.08 L 4.0 17.5 L 4.0 17.92 L 4.0 18.33 L 4.0 18.75 L 4.0 19.17 L 4.0 19.58 L 4.0 20.0 L 4.0 20.42 L 4.0 20.83 L 4.0 21.25 L 4.0 21.67 L 4.0 22.08 L 4.0 22.5 L 4.0 22.92 L 4.0 23.33 L 4.0 23.75 L 4.0 24.17 L 4.0 24.58 L 4.0 25.0" fill="none" stroke="#111" stroke-width="1.22" stroke-linecap="round" stroke-linejoin="round"/>
<path d="M 18.0 11.0 L 18.04 11.25 L 18.08 11.5 L 18.12 11.75 L 18.17 12.0 L 18.21 12.25 L 18.25 12.5 L 18.29 12.75 L 18.33 13.0 L 18.38 13.25 L 18.42 13.5 L 18.46 13.75 L 18.5 14.0 L 18.54 14.25 L 18.58 14.5 L 18.62 14.75 L 18.67 15.0 L 18.71 15.25 L 18.75 15.5 L 18.79 15.75 L 18.83 16.0 L 18.88 16.25 L 18.92 16.5 L 18.96 16.75 L 19.0 17.0" fill="none" stroke="#111" stroke-width="1.22" stroke-linecap="round" stroke-linejoin="round"/>
</svg>
