<?xml version="1.0" encoding="UTF-8"?>
<svg xmlns="http://www.w3.org/2000/svg" viewBox="0 0 21.08 34.48">
<path d="M 9.08 4.0 L 9.41 4.29 L 9.74 4.58 L 10.08 4.88 L 10.41 5.17 L 10.74 5.46 L 11.08 5.75 L 11.41 6.04 L 11.74 6.33 L 12.08 6.62 L 12.41 6.92 L 12.74 7.21 L 13.08 7.5 L 13.41 7.79 L 13.74 8.08 L 14.08 8.38 L 14.41 8.67 L 14.74 8.96 L 15.08 9.25 L 15.41 9.54 L 15.74 9.83 L 16.08 10.12 L 16.41 10.42 L 16.74 10.71 L 17.08 11.0" fill="none" stroke="#111" stroke-width="1.21" stroke-linecap="round" stroke-linejoin="round"/>
<path d="M 5.08 6.0 L 5.41 6.33 L 5.74 6.67 L 6.08 7.0 L 6.41 7.33 L 6.74 7.67 L 7.08 8.0 L 7.41 8.33 L 7.74 8.67 L 8.08 9.0 L 8.41 9.33 L 8.74 9.67 L 9.08 10.0 L 9.41 10.33 L 9.74 10.67 L 10.08 11.0 L 10.41 11.33 L 10.74 11.67 L 11.08 12.0 L 11.41 12.33 L 11.74 12.67 L 12.08 13.0 L 12.41 13.33 L 12.74 13.67 L 13.08 14.0" fill="none" stroke="#111" stroke-width="1.21" stroke-linecap="round" stroke-linejoin="round"/>
<path d="M 8.08 10.0 L 7.26 10.77 L 6.52 11.62 L 5.87 12.53 L 5.31 13.5 L 4.84 14.53 L 4.47 15.59 L 4.21 16.68 L 4.05 17.79 L 4.0 18.91 L 4.06 20.04 L 4.22 21.15 L 4.49 22.24 L 4.87 23.3 L 5.34 24.32 L 5.91 25.28 L 6.57 26.19 L 7.31 27.03 L 8.14 27.8 L 9.03 28.49 L 9.98 29.08 L 10.98 29.58 L 12.03 29.99 L 13.12 30.29 L 14.22 30.48 L 14.08 30.0 L 14.51 29.53 L 14.9 29.03 L 15.25 28.5 L 15.56 27.94 L 15.81 27.35 L 16.02 26.75 L 16.17 26.13 L 16.27 25.5 L 16.31 24.86 L 16.3 24.23 L 16.24 23.59 L 16.12 22.97 L 15.95 22.35 L 15.73 21.75 L 15.46 21.18 L 15.14 20.63 L 14.78 20.1 L 14.37 19.61 L 13.92 19.16 L 13.44 18.74 L 12.92 18.37 L 12.37 18.05 L 11.8 17.77 L 11.2 17.54 L 11.08 17.0 L 10.8 17.24 L 10.53 17.49 L 10.28 17.77 L 10.05 18.05 L 9.84 18.36 L 9.65 18.67 L 9.48 19.0 L 9.33 19.34 L 9.21 19.68 L 9.1 20.03 L 9.02 20.39 L 8.96 20.76 L 8.93 21.12 L 8.92 21.49 L 8.93 21.86 L 8.97 22.23 L 9.03 22.59 L 9.12 22.95 L 9.22 23.3 L 9.35 23.65 L 9.51 23.98 L 9.68 24.31 L 9.87 24.62 L 10.09 24.92" fill="none" stroke="#111" stroke-width="1.21" stroke-linecap="round" stroke-linejoin="round"/>
</svg>
