<?xml version="1.0" encoding="UTF-8"?>
<svg xmlns="http://www.w3.org/2000/svg" viewBox="0 0 20.00 31.00">
<path d="M 4.0 4.0 L 4.0 4.88 L 4.0 5.75 L 4.0 6.62 L 4.0 7.5 L 4.0 8.38 L 4.0 9.25 L 4.0 10.12 L 4.0 11.0 L 4.0 11.88 L 4.0 12.75 L 4.0 13.62 L 4.0 14.5 L 4.0 15.38 L 4.0 16.25 L 4.0 17.12 L 4.0 18.0 L 4.0 18.88 L 4.0 19.75 L 4.0 20.62 L 4.0 21.5 L 4.0 22.38 L 4.0 23.25 L 4.0 24.12 L 4.0 25.0" fill="none" stroke="#111" stroke-width="1.09" stroke-linecap="round" stroke-linejoin="round"/>
<path d="M 4.0 10.0 L 4.38 9.75 L 4.75 9.5 L 5.12 9.25 L 5.5 9.0 L 5.88 8.75 L 6.25 8.5 L 6.62 8.25 L 7.0 8.0 L 7.38 7.75 L 7.75 7.5 L 8.12 7.25 L 8.5 7.0 L 8.88 6.75 L 9.25 6.5 L 9.62 6.25 L 10.0 6.0 L 10.38 5.75 L 10.75 5.5 L 11.12 5.25 L 11.5 5.0 L 11.88 4.75 L 12.25 4.5 L 12.62 4.25 L 13.0 4.0" fill="none" stroke="#111" stroke-width="1.09" stroke-linecap="round" stroke-linejoin="round"/>
<path d="M 10.0 22.0 L 10.0 22.17 L 10.0 22.33 L 10.0 22.5 L 10.0 22.67 L 10.0 22.83 L 10.0 23.0 L 10.0 23.17 L 10.0 23.33 L 10.0 23.5 L 10.0 23.67 L 10.0 23.83 L 10.0 24.0 L 10.0 24.17 L 10.0 24.33 L 10.0 24.5 L 10.0 24.67 L 10.0 24.83 L 10.0 25.0 L 10.0 25.17 L 10.0 25.33 L 10.0 25.5 L 10.0 25.67 L 10.0 25.83 L 10.0 26.0" fill="none" stroke="#111" stroke-width="1.09" stroke-linecap="round" stroke-linejoin="round"/>
<path d="M 10.0 22.0 L 10.12 22.0 L 10.25 22.0 L 10.38 22.0 L 10.5 22.0 L 10.62 22.0 L 10.75 22.0 L 10.88 22.0 L 11.0 22.0 L 11.12 22.0 L 11.25 22.0 L 11.38 22.0 L 11.5 22.0 L 11.62 22.0 L 11.75 22.0 L 11.88 22.0 L 12.0 22.0 L 12.12 22.0 L 12.25 22.0 L 12.38 22.0 L 12.5 22.0 L 12.62 22.0 L 12.75 22.0 L 12.88 22.0 L 13.0 22.0" fill="none" stroke="#111" stroke-width="1.09" stroke-linecap="round" stroke-linejoin="round"/>
<path d="M 13.0 22.0 L 13.0 22.17 L 13.0 22.33 L 13.0 22.5 L 13.0 22.67 L 13.0 22.83 L 13.0 23.0 L 13.0 23.17 L 13.0 23.33 L 13.0 23.5 L 13.0 23.67 L 13.0 23.83 L 13.0 24.0 L 13.0 24.17 L 13.0 24.33 L 13.0 24.5 L 13.0 24.67 L 13.0 24.83 L 13.0 25.0 L 13.0 25.17 L 13.0 25.33 L 13.0 25.5 L 13.0 25.67 L 13.0 25.83 L 13.0 26.0" fill="none" stroke="#111" stroke-width="1.09" stroke-linecap="round" stroke-linejoin="round"/>
<path d="M 12.0 22.0 L 11.92 22.08 L 11.83 22.17 L 11.75 22.25 L 11.67 22.33 L 11.58 22.42 L 11.5 22.5 L 11.42 22.58 L 11.33 22.67 L 11.25 22.75 L 11.17 22.83 L 11.08 22.92 L 11.0 23.0 L 10.92 23.08 L 10.83 23.17 L 10.75 23.25 L 10.67 23.33 L 10.58 23.42 L 10.5 23.5 L 10.42 23.58 L 10.33 23.67 L 10.25 23.75 L 10.17 23.83 L 10.08 23.92 L 10.0 24.0" fill="none" stroke="#111" stroke-width="1.09" stroke-linecap="round" stroke-linejoin="round"/>
<path d="M 12.0 23.0 L 12.04 23.04 L 12.08 23.08 L 12.12 23.12 L 12.17 23.17 L 12.21 23.21 L 12.25 23.25 L 12.29 23.29 L 12.33 23.33 L 12.38 23.38 L 12.42 23.42 L 12.46 23.46 L 12.5 23.5 L 12.54 23.54 L 12.58 23.58 L 12.62 23.62 L 12.67 23.67 L 12.71 23.71 L 12.75 23.75 L 12.79 23.79 L 12.83 23.83 L 12.88 23.88 L 12.92 23.92 L 12.96 23.96 L 13.0 24.0" fill="none" stroke="#111" stroke-width="1.09" stroke-linecap="round" stroke-linejoin="round"/>
<path d="M 14.0 22.0 L 14.0 22.21 L 14.0 22.42 L 14.0 22.62 L 14.0 22.83 L 14.0 23.04 L 14.0 23.25 L 14.0 23.46 L 14.0 23.67 L 14.0 23.88 L 14.0 24.08 L 14.0 24.29 L 14.0 24.5 L 14.0 24.71 L 14.0 24.92 L 14.0 25.12 L 14.0 25.33 L 14.0 25.54 L 14.0 25.75 L 14.0 25.96 L 14.0 26.17 L 14.0 26.38 L 14.0 26.58 L 14.0 26.79 L 14.0 27.0" fill="none" stroke="#111" stroke-width="1.09" stroke-linecap="round" stroke-linejoin="round"/>
<path d="M 14.0 24.0 L 14.08 23.92 L 14.17 23.83 L 14.25 23.75 L 14.33 23.67 L 14.42 23.58 L 14.5 23.5 L 14.58 23.42 L 14.67 23.33 L 14.75 23.25 L 14.83 23.17 L 14.92 23.08 L 15.0 23.0 L 15.08 22.92 L 15.17 22.83 L 15.25 22.75 L 15.33 22.67 L 15.42 22.58 L 15.5 22.5 L 15.58 22.42 L 15.67 22.33 L 15.75 22.25 L 15.83 22.17 L 15.92 22.08 L 16.0 22.0" fill="none" stroke="#111" stroke-width="1.09" stroke-linecap="round" stroke-linejoin="round"/>
</svg>
