<?xml version="1.0" encoding="UTF-8"?>
<svg xmlns="http://www.w3.org/2000/svg" viewBox="0 0 29.59 29.86">
<path d="M 13.93 4.0 L 13.01 4.27 L 12.1 4.62 L 11.23 5.02 L 10.38 5.49 L 9.57 6.02 L 8.81 6.61 L 8.08 7.25 L 7.41 7.94 L 6.79 8.68 L 6.22 9.47 L 5.72 10.29 L 5.27 11.15 L 4.89 12.03 L 4.58 12.95 L 4.33 13.88 L 4.15 14.83 L 4.04 15.79 L 4.0 16.76 L 4.03 17.72 L 4.13 18.68 L 4.31 19.63 L 4.55 20.57 L 4.86 21.49 L 5.23 22.38" fill="none" stroke="#111" stroke-width="1.05" stroke-linecap="round" stroke-linejoin="round"/>
<path d="M 14.93 4.0 L 15.97 4.28 L 16.98 4.64 L 17.97 5.08 L 18.91 5.6 L 19.81 6.19 L 20.66 6.84 L 21.46 7.56 L 22.2 8.35 L 22.87 9.18 L 23.48 10.07 L 24.02 11.0 L 24.48 11.97 L 24.87 12.98 L 25.17 14.01 L 25.39 15.06 L 25.53 16.13 L 25.59 17.2 L 25.56 18.28 L 25.45 19.35 L 25.25 20.4 L 24.98 21.44 L 24.62 22.46 L 24.18 23.44 L 23.67 24.38" fill="none" stroke="#111" stroke-width="1.05" stroke-linecap="round" stroke-linejoin="round"/>
<path d="M 8.93 19.0 L 9.1 18.54 L 9.27 18.08 L 9.43 17.62 L 9.6 17.17 L 9.77 16.71 L 9.93 16.25 L 10.1 15.79 L 10.27 15.33 L 10.43 14.88 L 10.6 14.42 L 10.77 13.96 L 10.93 13.5 L 11.1 13.04 L 11.27 12.58 L 11.43 12.12 L 11.6 11.67 L 11.77 11.21 L 11.93 10.75 L 12.1 10.29 L 12.27 9.83 L 12.43 9.38 L 12.6 8.92 L 12.77 8.46 L 12.93 8.0 L 12.93 8.0 L 13.14 8.65 L 13.33 9.3 L 13.49 9.96 L 13.63 10.63 L 13.75 11.3 L 13.85 11.97 L 13.93 12.65 L 13.99 13.33 L 14.02 14.01 L 14.03 14.69 L 14.02 15.37 L 13.99 16.05 L 13.94 16.73 L 13.86 17.4 L 13.77 18.08 L 13.65 18.75 L 13.51 19.41 L 13.35 20.07 L 13.16 20.73 L 12.96 21.38 L 12.74 22.02 L 12.49 22.66 L 12.23 23.28 L 11.94 23.9" fill="none" stroke="#111" stroke-width="1.05" stroke-linecap="round" stroke-linejoin="round"/>
<path d="M 9.93 16.0 L 10.39 16.23 L 10.82 16.49 L 11.25 16.76 L 11.66 17.06 L 12.06 17.37 L 12.44 17.7 L 12.81 18.05 L 13.16 18.42 L 13.49 18.81 L 13.8 19.21 L 14.09 19.62 L 14.36 20.05 L 14.61 20.49 L 14.84 20.94 L 15.05 21.41 L 15.23 21.88 L 15.39 22.36 L 15.53 22.85 L 15.64 23.34 L 15.73 23.84 L 15.8 24.34 L 15.84 24.85 L 15.86 25.36 L 15.85 25.86" fill="none" stroke="#111" stroke-width="1.05" stroke-linecap="round" stroke-linejoin="round"/>
<path d="M 15.93 9.0 L 16.09 9.35 L 16.23 9.71 L 16.37 10.07 L 16.48 10.43 L 16.59 10.8 L 16.68 11.18 L 16.75 11.55 L 16.82 11.93 L 16.87 12.31 L 16.9 12.7 L 16.92 13.08 L 16.93 13.46 L 16.92 13.85 L 16.9 14.23 L 16.87 14.62 L 16.82 15.0 L 16.75 15.38 L 16.68 15.75 L 16.59 16.13 L 16.48 16.5 L 16.37 16.86 L 16.23 17.22 L 16.09 17.58 L 15.93 17.93" fill="none" stroke="#111" stroke-width="1.05" stroke-linecap="round" stroke-linejoin="round"/>
<path d="M 16.93 13.0 L 17.36 13.39 L 17.77 13.81 L 18.16 14.25 L 18.52 14.7 L 18.86 15.18 L 19.18 15.67 L 19.46 16.18 L 19.73 16.7 L 19.96 17.23 L 20.16 17.78 L 20.34 18.33 L 20.48 18.9 L 20.6 19.47 L 20.69 20.05 L 20.74 20.63 L 20.77 21.21 L 20.76 21.79 L 20.73 22.38 L 20.66 22.96 L 20.56 23.53 L 20.44 24.1 L 20.28 24.66 L 20.09 25.22 L 19.88 25.76" fill="none" stroke="#111" stroke-width="1.05" stroke-linecap="round" stroke-linejoin="round"/>
</svg>
