<?xml version="1.0" encoding="UTF-8"?>
<svg xmlns="http://www.w3.org/2000/svg" viewBox="0 0 20.35 32.34">
<path d="M 11.35 9.0 L 11.31 9.62 L 11.27 10.25 L 11.23 10.88 L 11.19 11.5 L 11.14 12.12 L 11.1 12.75 L 11.06 13.38 L 11.02 14.0 L 10.98 14.62 L 10.94 15.25 L 10.89 15.88 L 10.85 16.5 L 10.81 17.12 L 10.77 17.75 L 10.73 18.38 L 10.69 19.0 L 10.64 19.62 L 10.6 20.25 L 10.56 20.88 L 10.52 21.5 L 10.48 22.12 L 10.44 22.75 L 10.39 23.38 L 10.35 24.0" fill="none" stroke="#111" stroke-width="1.13" stroke-linecap="round" stroke-linejoin="round"/>
<path d="M 10.35 10.0 L 9.73 10.35 L 9.15 10.75 L 8.6 11.2 L 8.1 11.71 L 7.65 12.25 L 7.24 12.84 L 6.9 13.46 L 6.61 14.11 L 6.39 14.79 L 6.22 15.48 L 6.13 16.18 L 6.09 16.89 L 6.13 17.6 L 6.22 18.3 L 6.39 19.0 L 6.61 19.67 L 6.9 20.32 L 7.24 20.94 L 7.65 21.53 L 8.1 22.08 L 8.6 22.58 L 9.15 23.03 L 9.73 23.44 L 10.35 23.78" fill="none" stroke="#111" stroke-width="1.13" stroke-linecap="round" stroke-linejoin="round"/>
<path d="M 11.35 10.0 L 11.87 10.42 L 12.35 10.89 L 12.79 11.38 L 13.19 11.91 L 13.56 12.47 L 13.87 13.06 L 14.15 13.67 L 14.37 14.29 L 14.55 14.94 L 14.68 15.59 L 14.75 16.25 L 14.78 16.92 L 14.75 17.59 L 14.68 18.25 L 14.55 18.9 L 14.37 19.54 L 14.15 20.17 L 13.87 20.78 L 13.56 21.37 L 13.19 21.92 L 12.79 22.45 L 12.35 22.95 L 11.87 23.41 L 11.35 23.84" fill="none" stroke="#111" stroke-width="1.13" stroke-linecap="round" stroke-linejoin="round"/>
<path d="M 6.35 15.0 L 6.64 15.0 L 6.94 15.0 L 7.23 15.0 L 7.52 15.0 L 7.81 15.0 L 8.1 15.0 L 8.39 15.0 L 8.69 15.0 L 8.98 15.0 L 9.27 15.0 L 9.56 15.0 L 9.85 15.0 L 10.14 15.0 L 10.44 15.0 L 10.73 15.0 L 11.02 15.0 L 11.31 15.0 L 11.6 15.0 L 11.89 15.0 L 12.19 15.0 L 12.48 15.0 L 12.77 15.0 L 13.06 15.0 L 13.35 15.0" fill="none" stroke="#111" stroke-width="1.13" stroke-linecap="round" stroke-linejoin="round"/>
<path d="M 7.35 19.0 L 7.64 19.0 L 7.94 19.0 L 8.23 19.0 L 8.52 19.0 L 8.81 19.0 L 9.1 19.0 L 9.39 19.0 L 9.69 19.0 L 9.98 19.0 L 10.27 19.0 L 10.56 19.0 L 10.85 19.0 L 11.14 19.0 L 11.44 19.0 L 11.73 19.0 L 12.02 19.0 L 12.31 19.0 L 12.6 19.0 L 12.89 19.0 L 13.19 19.0 L 13.48 19.0 L 13.77 19.0 L 14.06 19.0 L 14.35 19.0" fill="none" stroke="#111" stroke-width="1.13" stroke-linecap="round" stroke-linejoin="round"/>
<path d="M 5.35 5.0 L 5.11 5.37 L 4.89 5.76 L 4.69 6.16 L 4.52 6.57 L 4.37 6.98 L 4.24 7.41 L 4.14 7.85 L 4.07 8.28 L 4.02 8.73 L 4.0 9.17 L 4.0 9.62 L 4.04 10.06 L 4.09 10.5 L 4.18 10.94 L 4.29 11.37 L 4.42 11.79 L 4.58 12.21 L 4.76 12.61 L 4.97 13.01 L 5.2 13.39 L 5.45 13.75 L 5.72 14.11 L 6.02 14.44 L 6.33 14.76" fill="none" stroke="#111" stroke-width="1.13" stroke-linecap="round" stroke-linejoin="round"/>
<path d="M 7.35 7.0 L 7.23 7.21 L 7.1 7.42 L 6.98 7.62 L 6.85 7.83 L 6.73 8.04 L 6.6 8.25 L 6.48 8.46 L 6.35 8.67 L 6.23 8.88 L 6.1 9.08 L 5.98 9.29 L 5.85 9.5 L 5.73 9.71 L 5.6 9.92 L 5.48 10.12 L 5.35 10.33 L 5.23 10.54 L 5.1 10.75 L 4.98 10.96 L 4.85 11.17 L 4.73 11.38 L 4.6 11.58 L 4.48 11.79 L 4.35 12.0" fill="none" stroke="#111" stroke-width="1.13" stroke-linecap="round" stroke-linejoin="round"/>
<path d="M 12.35 8.0 L 12.52 8.12 L 12.69 8.25 L 12.85 8.38 L 13.02 8.5 L 13.19 8.62 L 13.35 8.75 L 13.52 8.88 L 13.69 9.0 L 13.85 9.12 L 14.02 9.25 L 14.19 9.38 L 14.35 9.5 L 14.52 9.62 L 14.69 9.75 L 14.85 9.88 L 15.02 10.0 L 15.19 10.12 L 15.35 10.25 L 15.52 10.38 L 15.69 10.5 L 15.85 10.62 L 16.02 10.75 L 16.19 10.88 L 16.35 11.0" fill="none" stroke="#111" stroke-width="1.13" stroke-linecap="round" stroke-linejoin="round"/>
<path d="M 13.35 4.0 L 13.48 4.29 L 13.6 4.58 L 13.73 4.88 L 13.85 5.17 L 13.98 5.46 L 14.1 5.75 L 14.23 6.04 L 14.35 6.33 L 14.48 6.62 L 14.6 6.92 L 14.73 7.21 L 14.85 7.5 L 14.98 7.79 L 15.1 8.08 L 15.23 8.38 L 15.35 8.67 L 15.48 8.96 L 15.6 9.25 L 15.73 9.54 L 15.85 9.83 L 15.98 10.12 L 16.1 10.42 L 16.23 10.71 L 16.35 11.0" fill="none" stroke="#111" stroke-width="1.13" stroke-linecap="round" stroke-linejoin="round"/>
<path d="M 16.35 11.0 L 16.27 11.12 L 16.19 11.25 L 16.1 11.38 L 16.02 11.5 L 15.94 11.62 L 15.85 11.75 L 15.77 11.88 L 15.69 12.0 L 15.6 12.12 L 15.52 12.25 L 15.44 12.38 L 15.35 12.5 L 15.27 12.62 L 15.19 12.75 L 15.1 12.88 L 15.02 13.0 L 14.94 13.12 L 14.85 13.25 L 14.77 13.38 L 14.69 13.5 L 14.6 13.62 L 14.52 13.75 L 14.44 13.88 L 14.35 14.0" fill="none" stroke="#111" stroke-width="1.13" stroke-linecap="round" stroke-linejoin="round"/>
<path d="M 10.35 24.0 L 10.19 24.42 L 10.1 24.86 L 10.07 25.3 L 10.11 25.75 L 10.21 26.19 L 10.37 26.61 L 10.59 27.0 L 10.87 27.35 L 11.2 27.66 L 11.56 27.91 L 11.96 28.11 L 12.39 28.25 L 12.83 28.33 L 13.28 28.34 L 13.72 28.29 L 14.16 28.17 L 14.57 27.99 L 14.95 27.75 L 15.29 27.46 L 15.58 27.12 L 15.82 26.74 L 16.01 26.33 L 16.13 25.9 L 16.19 25.46" fill="none" stroke="#111" stroke-width="1.13" stroke-linecap="round" stroke-linejoin="round"/>
</svg>
