<?xml version="1.0" encoding="UTF-8"?>
<svg xmlns="http://www.w3.org/2000/svg" viewBox="0 0 23.00 33.00">
<path d="M 7.0 15.0 L 7.46 15.0 L 7.92 15.0 L 8.38 15.0 L 8.83 15.0 L 9.29 15.0 L 9.75 15.0 L 10.21 15.0 L 10.67 15.0 L 11.12 15.0 L 11.58 15.0 L 12.04 15.0 L 12.5 15.0 L 12.96 15.0 L 13.42 15.0 L 13.88 15.0 L 14.33 15.0 L 14.79 15.0 L 15.25 15.0 L 15.71 15.0 L 16.17 15.0 L 16.62 15.0 L 17.08 15.0 L 17.54 15.0 L 18.0 15.0" fill="none" stroke="#111" stroke-width="1.16" stroke-linecap="round" stroke-linejoin="round"/>
<path d="M 10.0 4.0 L 10.08 4.46 L 10.17 4.92 L 10.25 5.38 L 10.33 5.83 L 10.42 6.29 L 10.5 6.75 L 10.58 7.21 L 10.67 7.67 L 10.75 8.12 L 10.83 8.58 L 10.92 9.04 L 11.0 9.5 L 11.08 9.96 L 11.17 10.42 L 11.25 10.88 L 11.33 11.33 L 11.42 11.79 L 11.5 12.25 L 11.58 12.71 L 11.67 13.17 L 11.75 13.62 L 11.83 14.08 L 11.92 14.54 L 12.0 15.0" fill="none" stroke="#111" stroke-width="1.16" stroke-linecap="round" stroke-linejoin="round"/>
<path d="M 14.0 6.0 L 13.92 6.38 L 13.83 6.75 L 13.75 7.12 L 13.67 7.5 L 13.58 7.88 L 13.5 8.25 L 13.42 8.62 L 13.33 9.0 L 13.25 9.38 L 13.17 9.75 L 13.08 10.12 L 13.0 10.5 L 12.92 10.88 L 12.83 11.25 L 12.75 11.62 L 12.67 12.0 L 12.58 12.38 L 12.5 12.75 L 12.42 13.12 L 12.33 13.5 L 12.25 13.88 L 12.17 14.25 L 12.08 14.62 L 12.0 15.0" fill="none" stroke="#111" stroke-width="1.16" stroke-linecap="round" stroke-linejoin="round"/>
<path d="M 6.0 5.0 L 6.29 5.17 L 6.58 5.33 L 6.88 5.5 L 7.17 5.67 L 7.46 5.83 L 7.75 6.0 L 8.04 6.17 L 8.33 6.33 L 8.62 6.5 L 8.92 6.67 L 9.21 6.83 L 9.5 7.0 L 9.79 7.17 L 10.08 7.33 L 10.38 7.5 L 10.67 7.67 L 10.96 7.83 L 11.25 8.0 L 11.54 8.17 L 11.83 8.33 L 12.12 8.5 L 12.42 8.67 L 12.71 8.83 L 13.0 9.0" fill="none" stroke="#111" stroke-width="1.16" stroke-linecap="round" stroke-linejoin="round"/>
<path d="M 12.0 15.0 L 11.83 15.54 L 11.67 16.08 L 11.5 16.62 L 11.33 17.17 L 11.17 17.71 L 11.0 18.25 L 10.83 18.79 L 10.67 19.33 L 10.5 19.88 L 10.33 20.42 L 10.17 20.96 L 10.0 21.5 L 9.83 22.04 L 9.67 22.58 L 9.5 23.12 L 9.33 23.67 L 9.17 24.21 L 9.0 24.75 L 8.83 25.29 L 8.67 25.83 L 8.5 26.38 L 8.33 26.92 L 8.17 27.46 L 8.0 28.0" fill="none" stroke="#111" stroke-width="1.16" stroke-linecap="round" stroke-linejoin="round"/>
<path d="M 12.0 15.0 L 12.08 15.54 L 12.17 16.08 L 12.25 16.62 L 12.33 17.17 L 12.42 17.71 L 12.5 18.25 L 12.58 18.79 L 12.67 19.33 L 12.75 19.88 L 12.83 20.42 L 12.92 20.96 L 13.0 21.5 L 13.08 22.04 L 13.17 22.58 L 13.25 23.12 L 13.33 23.67 L 13.42 24.21 L 13.5 24.75 L 13.58 25.29 L 13.67 25.83 L 13.75 26.38 L 13.83 26.92 L 13.92 27.46 L 14.0 28.0" fill="none" stroke="#111" stroke-width="1.16" stroke-linecap="round" stroke-linejoin="round"/>
<path d="M 4.0 29.0 L 4.62 28.96 L 5.25 28.92 L 5.88 28.88 L 6.5 28.83 L 7.12 28.79 L 7.75 28.75 L 8.38 28.71 L 9.0 28.67 L 9.62 28.62 L 10.25 28.58 L 10.88 28.54 L 11.5 28.5 L 12.12 28.46 L 12.75 28.42 L 13.37 28.38 L 14.0 28.33 L 14.62 28.29 L 15.25 28.25 L 15.88 28.21 L 16.5 28.17 L 17.12 28.12 L 17.75 28.08 L 18.38 28.04 L 19.0 28.0" fill="none" stroke="#111" stroke-width="1.16" stroke-linecap="round" stroke-linejoin="round"/>
</svg>
