<?xml version="1.0" encoding="UTF-8"?>
<svg xmlns="http://www.w3.org/2000/svg" viewBox="0 0 17.00 30.00">
<path d="M 4.0 4.0 L 4.0 4.92 L 4.0 5.83 L 4.0 6.75 L 4.0 7.67 L 4.0 8.58 L 4.0 9.5 L 4.0 10.42 L 4.0 11.33 L 4.0 12.25 L 4.0 13.17 L 4.0 14.08 L 4.0 15.0 L 4.0 15.92 L 4.0 16.83 L 4.0 17.75 L 4.0 18.67 L 4.0 19.58 L 4.0 20.5 L 4.0 21.42 L 4.0 22.33 L 4.0 23.25 L 4.0 24.17 L 4.0 25.08 L 4.0 26.0" fill="none" stroke="#111" stroke-width="1.05" stroke-linecap="round" stroke-linejoin="round"/>
<path d="M 4.0 8.0 L 4.33 8.0 L 4.67 8.0 L 5.0 8.0 L 5.33 8.0 L 5.67 8.0 L 6.0 8.0 L 6.33 8.0 L 6.67 8.0 L 7.0 8.0 L 7.33 8.0 L 7.67 8.0 L 8.0 8.0 L 8.33 8.0 L 8.67 8.0 L 9.0 8.0 L 9.33 8.0 L 9.67 8.0 L 10.0 8.0 L 10.33 8.0 L 10.67 8.0 L 11.0 8.0 L 11.33 8.0 L 11.67 8.0 L 12.0 8.0 L 12.0 8.0 L 12.04 8.54 L 12.08 9.08 L 12.12 9.62 L 12.17 10.17 L 12.21 10.71 L 12.25 11.25 L 12.29 11.79 L 12.33 12.33 L 12.38 12.88 L 12.42 13.42 L 12.46 13.96 L 12.5 14.5 L 12.54 15.04 L 12.58 15.58 L 12.62 16.12 L 12.67 16.67 L 12.71 17.21 L 12.75 17.75 L 12.79 18.29 L 12.83 18.83 L 12.88 19.38 L 12.92 19.92 L 12.96 20.46 L 13.0 21.0 L 13.0 21.0 L 12.62 21.04 L 12.25 21.08 L 11.88 21.12 L 11.5 21.17 L 11.12 21.21 L 10.75 21.25 L 10.38 21.29 L 10.0 21.33 L 9.62 21.38 L 9.25 21.42 L 8.88 21.46 L 8.5 21.5 L 8.12 21.54 L 7.75 21.58 L 7.38 21.62 L 7.0 21.67 L 6.62 21.71 L 6.25 21.75 L 5.87 21.79 L 5.5 21.83 L 5.12 21.88 L 4.75 21.92 L 4.37 21.96 L 4.0 22.0 L 4.0 22.0 L 4.0 22.0 L 4.0 22.0 L 4.0 22.0 L 4.0 22.0 L 4.0 22.0 L 4.0 22.0 L 4.0 22.0 L 4.0 22.0 L 4.0 22.0 L 4.0 22.0 L 4.0 22.0 L 4.0 22.0 L 4.0 22.0 L 4.0 22.0 L 4.0 22.0 L 4.0 22.0 L 4.0 22.0 L 4.0 22.0 L 4.0 22.0 L 4.0 22.0 L 4.0 22.0 L 4.0 22.0 L 4.0 22.0 L 4.0 22.0" fill="none" stroke="#111" stroke-width="1.05" stroke-linecap="round" stroke-linejoin="round"/>
<path d="M 4.0 14.0 L 4.33 14.0 L 4.67 14.0 L 5.0 14.0 L 5.33 14.0 L 5.67 14.0 L 6.0 14.0 L 6.33 14.0 L 6.67 14.0 L 7.0 14.0 L 7.33 14.0 L 7.67 14.0 L 8.0 14.0 L 8.33 14.0 L 8.67 14.0 L 9.0 14.0 L 9.33 14.0 L 9.67 14.0 L 10.0 14.0 L 10.33 14.0 L 10.67 14.0 L 11.0 14.0 L 11.33 14.0 L 11.67 14.0 L 12.0 14.0" fill="none" stroke="#111" stroke-width="1.05" stroke-linecap="round" stroke-linejoin="round"/>
</svg>
