<?xml version="1.0" encoding="UTF-8"?>
<svg xmlns="http://www.w3.org/2000/svg" viewBox="0 0 17.00 36.00">
<path d="M 8.0 4.0 L 7.33 4.32 L 6.7 4.71 L 6.12 5.18 L 5.6 5.71 L 5.15 6.3 L 4.78 6.94 L 4.48 7.62 L 4.26 8.33 L 4.14 9.06 L 4.1 9.8 L 4.14 10.54 L 4.28 11.27 L 4.5 11.98 L 4.81 12.66 L 5.19 13.29 L 5.65 13.88 L 6.17 14.4 L 6.76 14.86 L 7.39 15.25 L 8.07 15.56 L 8.77 15.78 L 9.5 15.92 L 10.24 15.97 L 10.98 15.94" fill="none" stroke="#111" stroke-width="1.26" stroke-linecap="round" stroke-linejoin="round"/>
<path d="M 4.0 9.0 L 4.33 9.0 L 4.67 9.0 L 5.0 9.0 L 5.33 9.0 L 5.67 9.0 L 6.0 9.0 L 6.33 9.0 L 6.67 9.0 L 7.0 9.0 L 7.33 9.0 L 7.67 9.0 L 8.0 9.0 L 8.33 9.0 L 8.67 9.0 L 9.0 9.0 L 9.33 9.0 L 9.67 9.0 L 10.0 9.0 L 10.33 9.0 L 10.67 9.0 L 11.0 9.0 L 11.33 9.0 L 11.67 9.0 L 12.0 9.0 L 12.0 9.0 L 12.0 9.12 L 12.0 9.25 L 12.0 9.38 L 12.0 9.5 L 12.0 9.62 L 12.0 9.75 L 12.0 9.88 L 12.0 10.0 L 12.0 10.12 L 12.0 10.25 L 12.0 10.38 L 12.0 10.5 L 12.0 10.62 L 12.0 10.75 L 12.0 10.88 L 12.0 11.0 L 12.0 11.12 L 12.0 11.25 L 12.0 11.38 L 12.0 11.5 L 12.0 11.62 L 12.0 11.75 L 12.0 11.88 L 12.0 12.0 L 12.0 12.0 L 11.67 11.96 L 11.33 11.92 L 11.0 11.88 L 10.67 11.83 L 10.33 11.79 L 10.0 11.75 L 9.67 11.71 L 9.33 11.67 L 9.0 11.62 L 8.67 11.58 L 8.33 11.54 L 8.0 11.5 L 7.67 11.46 L 7.33 11.42 L 7.0 11.38 L 6.67 11.33 L 6.33 11.29 L 6.0 11.25 L 5.67 11.21 L 5.33 11.17 L 5.0 11.12 L 4.67 11.08 L 4.33 11.04 L 4.0 11.0" fill="none" stroke="#111" stroke-width="1.26" stroke-linecap="round" stroke-linejoin="round"/>
<path d="M 7.0 4.0 L 7.08 4.17 L 7.17 4.33 L 7.25 4.5 L 7.33 4.67 L 7.42 4.83 L 7.5 5.0 L 7.58 5.17 L 7.67 5.33 L 7.75 5.5 L 7.83 5.67 L 7.92 5.83 L 8.0 6.0 L 8.08 6.17 L 8.17 6.33 L 8.25 6.5 L 8.33 6.67 L 8.42 6.83 L 8.5 7.0 L 8.58 7.17 L 8.67 7.33 L 8.75 7.5 L 8.83 7.67 L 8.92 7.83 L 9.0 8.0" fill="none" stroke="#111" stroke-width="1.26" stroke-linecap="round" stroke-linejoin="round"/>
<path d="M 9.0 11.0 L 9.0 11.12 L 9.0 11.25 L 9.0 11.38 L 9.0 11.5 L 9.0 11.62 L 9.0 11.75 L 9.0 11.88 L 9.0 12.0 L 9.0 12.12 L 9.0 12.25 L 9.0 12.38 L 9.0 12.5 L 9.0 12.62 L 9.0 12.75 L 9.0 12.88 L 9.0 13.0 L 9.0 13.12 L 9.0 13.25 L 9.0 13.38 L 9.0 13.5 L 9.0 13.62 L 9.0 13.75 L 9.0 13.88 L 9.0 14.0" fill="none" stroke="#111" stroke-width="1.26" stroke-linecap="round" stroke-linejoin="round"/>
<path d="M 10.0 15.0 L 9.79 15.25 L 9.58 15.5 L 9.38 15.75 L 9.17 16.0 L 8.96 16.25 L 8.75 16.5 L 8.54 16.75 L 8.33 17.0 L 8.12 17.25 L 7.92 17.5 L 7.71 17.75 L 7.5 18.0 L 7.29 18.25 L 7.08 18.5 L 6.88 18.75 L 6.67 19.0 L 6.46 19.25 L 6.25 19.5 L 6.04 19.75 L 5.83 20.0 L 5.62 20.25 L 5.42 20.5 L 5.21 20.75 L 5.0 21.0" fill="none" stroke="#111" stroke-width="1.26" stroke-linecap="round" stroke-linejoin="round"/>
<path d="M 9.0 17.0 L 9.12 17.17 L 9.25 17.33 L 9.38 17.5 L 9.5 17.67 L 9.62 17.83 L 9.75 18.0 L 9.88 18.17 L 10.0 18.33 L 10.12 18.5 L 10.25 18.67 L 10.38 18.83 L 10.5 19.0 L 10.62 19.17 L 10.75 19.33 L 10.88 19.5 L 11.0 19.67 L 11.12 19.83 L 11.25 20.0 L 11.38 20.17 L 11.5 20.33 L 11.62 20.5 L 11.75 20.67 L 11.88 20.83 L 12.0 21.0 L 12.0 21.0 L 11.53 21.25 L 11.08 21.53 L 10.64 21.84 L 10.22 22.17 L 9.82 22.52 L 9.43 22.89 L 9.08 23.29 L 8.74 23.7 L 8.43 24.13 L 8.14 24.58 L 7.88 25.05 L 7.64 25.53 L 7.44 26.02 L 7.26 26.52 L 7.11 27.03 L 6.99 27.55 L 6.9 28.08 L 6.83 28.61 L 6.8 29.14 L 6.8 29.68 L 6.83 30.21 L 6.89 30.74 L 6.98 31.27 L 7.1 31.79" fill="none" stroke="#111" stroke-width="1.26" stroke-linecap="round" stroke-linejoin="round"/>
<path d="M 8.0 26.0 L 8.08 26.21 L 8.17 26.42 L 8.25 26.62 L 8.33 26.83 L 8.42 27.04 L 8.5 27.25 L 8.58 27.46 L 8.67 27.67 L 8.75 27.88 L 8.83 28.08 L 8.92 28.29 L 9.0 28.5 L 9.08 28.71 L 9.17 28.92 L 9.25 29.12 L 9.33 29.33 L 9.42 29.54 L 9.5 29.75 L 9.58 29.96 L 9.67 30.17 L 9.75 30.38 L 9.83 30.58 L 9.92 30.79 L 10.0 31.0" fill="none" stroke="#111" stroke-width="1.26" stroke-linecap="round" stroke-linejoin="round"/>
<path d="M 4.0 32.0 L 4.38 31.96 L 4.75 31.92 L 5.12 31.88 L 5.5 31.83 L 5.88 31.79 L 6.25 31.75 L 6.62 31.71 L 7.0 31.67 L 7.38 31.62 L 7.75 31.58 L 8.12 31.54 L 8.5 31.5 L 8.88 31.46 L 9.25 31.42 L 9.62 31.38 L 10.0 31.33 L 10.38 31.29 L 10.75 31.25 L 11.12 31.21 L 11.5 31.17 L 11.88 31.12 L 12.25 31.08 L 12.63 31.04 L 13.0 31.0" fill="none" stroke="#111" stroke-width="1.26" stroke-linecap="round" stroke-linejoin="round"/>
</svg>
