<?xml version="1.0" encoding="UTF-8"?>
<svg xmlns="http://www.w3.org/2000/svg" viewBox="0 0 22.00 32.00">
<path d="M 4.0 4.0 L 4.0 5.0 L 4.0 6.0 L 4.0 7.0 L 4.0 8.0 L 4.0 9.0 L 4.0 10.0 L 4.0 11.0 L 4.0 12.0 L 4.0 13.0 L 4.0 14.0 L 4.0 15.0 L 4.0 16.0 L 4.0 17.0 L 4.0 18.0 L 4.0 19.0 L 4.0 20.0 L 4.0 21.0 L 4.0 22.0 L 4.0 23.0 L 4.0 24.0 L 4.0 25.0 L 4.0 26.0 L 4.0 27.0 L 4.0 28.0" fill="none" stroke="#111" stroke-width="1.12" stroke-linecap="round" stroke-linejoin="round"/>
<path d="M 4.0 28.0 L 4.0 28.0 L 4.0 28.0 L 4.0 28.0 L 4.0 28.0 L 4.0 28.0 L 4.0 28.0 L 4.0 28.0 L 4.0 28.0 L 4.0 28.0 L 4.0 28.0 L 4.0 28.0 L 4.0 28.0 L 4.0 28.0 L 4.0 28.0 L 4.0 28.0 L 4.0 28.0 L 4.0 28.0 L 4.0 28.0 L 4.0 28.0 L 4.0 28.0 L 4.0 28.0 L 4.0 28.0 L 4.0 28.0 L 4.0 28.0" fill="none" stroke="#111" stroke-width="1.12" stroke-linecap="round" stroke-linejoin="round"/>
<path d="M 9.0 8.0 L 9.0 8.58 L 9.0 9.17 L 9.0 9.75 L 9.0 10.33 L 9.0 10.92 L 9.0 11.5 L 9.0 12.08 L 9.0 12.67 L 9.0 13.25 L 9.0 13.83 L 9.0 14.42 L 9.0 15.0 L 9.0 15.58 L 9.0 16.17 L 9.0 16.75 L 9.0 17.33 L 9.0 17.92 L 9.0 18.5 L 9.0 19.08 L 9.0 19.67 L 9.0 20.25 L 9.0 20.83 L 9.0 21.42 L 9.0 22.0" fill="none" stroke="#111" stroke-width="1.12" stroke-linecap="round" stroke-linejoin="round"/>
<path d="M 13.0 8.0 L 13.0 8.58 L 13.0 9.17 L 13.0 9.75 L 13.0 10.33 L 13.0 10.92 L 13.0 11.5 L 13.0 12.08 L 13.0 12.67 L 13.0 13.25 L 13.0 13.83 L 13.0 14.42 L 13.0 15.0 L 13.0 15.58 L 13.0 16.17 L 13.0 16.75 L 13.0 17.33 L 13.0 17.92 L 13.0 18.5 L 13.0 19.08 L 13.0 19.67 L 13.0 20.25 L 13.0 20.83 L 13.0 21.42 L 13.0 22.0" fill="none" stroke="#111" stroke-width="1.12" stroke-linecap="round" stroke-linejoin="round"/>
<path d="M 18.0 4.0 L 18.0 5.0 L 18.0 6.0 L 18.0 7.0 L 18.0 8.0 L 18.0 9.0 L 18.0 10.0 L 18.0 11.0 L 18.0 12.0 L 18.0 13.0 L 18.0 14.0 L 18.0 15.0 L 18.0 16.0 L 18.0 17.0 L 18.0 18.0 L 18.0 19.0 L 18.0 20.0 L 18.0 21.0 L 18.0 22.0 L 18.0 23.0 L 18.0 24.0 L 18.0 25.0 L 18.0 26.0 L 18.0 27.0 L 18.0 28.0" fill="none" stroke="#111" stroke-width="1.12" stroke-linecap="round" stroke-linejoin="round"/>
<path d="M 4.0 8.0 L 4.21 8.0 L 4.42 8.0 L 4.62 8.0 L 4.83 8.0 L 5.04 8.0 L 5.25 8.0 L 5.46 8.0 L 5.67 8.0 L 5.88 8.0 L 6.08 8.0 L 6.29 8.0 L 6.5 8.0 L 6.71 8.0 L 6.92 8.0 L 7.12 8.0 L 7.33 8.0 L 7.54 8.0 L 7.75 8.0 L 7.96 8.0 L 8.17 8.0 L 8.38 8.0 L 8.58 8.0 L 8.79 8.0 L 9.0 8.0" fill="none" stroke="#111" stroke-width="1.12" stroke-linecap="round" stroke-linejoin="round"/>
<path d="M 4.0 15.0 L 4.21 15.0 L 4.42 15.0 L 4.62 15.0 L 4.83 15.0 L 5.04 15.0 L 5.25 15.0 L 5.46 15.0 L 5.67 15.0 L 5.88 15.0 L 6.08 15.0 L 6.29 15.0 L 6.5 15.0 L 6.71 15.0 L 6.92 15.0 L 7.12 15.0 L 7.33 15.0 L 7.54 15.0 L 7.75 15.0 L 7.96 15.0 L 8.17 15.0 L 8.38 15.0 L 8.58 15.0 L 8.79 15.0 L 9.0 15.0" fill="none" stroke="#111" stroke-width="1.12" stroke-linecap="round" stroke-linejoin="round"/>
<path d="M 4.0 22.0 L 4.21 22.0 L 4.42 22.0 L 4.62 22.0 L 4.83 22.0 L 5.04 22.0 L 5.25 22.0 L 5.46 22.0 L 5.67 22.0 L 5.88 22.0 L 6.08 22.0 L 6.29 22.0 L 6.5 22.0 L 6.71 22.0 L 6.92 22.0 L 7.12 22.0 L 7.33 22.0 L 7.54 22.0 L 7.75 22.0 L 7.96 22.0 L 8.17 22.0 L 8.38 22.0 L 8.58 22.0 L 8.79 22.0 L 9.0 22.0" fill="none" stroke="#111" stroke-width="1.12" stroke-linecap="round" stroke-linejoin="round"/>
<path d="M 13.0 8.0 L 13.21 8.0 L 13.42 8.0 L 13.62 8.0 L 13.83 8.0 L 14.04 8.0 L 14.25 8.0 L 14.46 8.0 L 14.67 8.0 L 14.88 8.0 L 15.08 8.0 L 15.29 8.0 L 15.5 8.0 L 15.71 8.0 L 15.92 8.0 L 16.12 8.0 L 16.33 8.0 L 16.54 8.0 L 16.75 8.0 L 16.96 8.0 L 17.17 8.0 L 17.38 8.0 L 17.58 8.0 L 17.79 8.0 L 18.0 8.0" fill="none" stroke="#111" stroke-width="1.12" stroke-linecap="round" stroke-linejoin="round"/>
<path d="M 13.0 15.0 L 13.21 15.0 L 13.42 15.0 L 13.62 15.0 L 13.83 15.0 L 14.04 15.0 L 14.25 15.0 L 14.46 15.0 L 14.67 15.0 L 14.88 15.0 L 15.08 15.0 L 15.29 15.0 L 15.5 15.0 L 15.71 15.0 L 15.92 15.0 L 16.12 15.0 L 16.33 15.0 L 16.54 15.0 L 16.75 15.0 L 16.96 15.0 L 17.17 15.0 L 17.38 15.0 L 17.58 15.0 L 17.79 15.0 L 18.0 15.0" fill="none" stroke="#111" stroke-width="1.12" stroke-linecap="round" stroke-linejoin="round"/>
<path d="M 13.0 22.0 L 13.21 22.0 L 13.42 22.0 L 13.62 22.0 L 13.83 22.0 L 14.04 22.0 L 14.25 22.0 L 14.46 22.0 L 14.67 22.0 L 14.88 22.0 L 15.08 22.0 L 15.29 22.0 L 15.5 22.0 L 15.71 22.0 L 15.92 22.0 L 16.12 22.0 L 16.33 22.0 L 16.54 22.0 L 16.75 22.0 L 16.96 22.0 L 17.17 22.0 L 17.38 22.0 L 17.58 22.0 L 17.79 22.0 L 18.0 22.0" fill="none" stroke="#111" stroke-width="1.12" stroke-linecap="round" stroke-linejoin="round"/>
</svg>
