<?xml version="1.0" encoding="UTF-8"?>
<svg xmlns="http://www.w3.org/2000/svg" viewBox="0 0 25.11 33.45">
<path d="M 8.0 4.0 L 8.0 4.5 L 8.0 5.0 L 8.0 5.5 L 8.0 6.0 L 8.0 6.5 L 8.0 7.0 L 8.0 7.5 L 8.0 8.0 L 8.0 8.5 L 8.0 9.0 L 8.0 9.5 L 8.0 10.0 L 8.0 10.5 L 8.0 11.0 L 8.0 11.5 L 8.0 12.0 L 8.0 12.5 L 8.0 13.0 L 8.0 13.5 L 8.0 14.0 L 8.0 14.5 L 8.0 15.0 L 8.0 15.5 L 8.0 16.0 L 8.0 16.0 L 8.31 16.17 L 8.59 16.37 L 8.86 16.6 L 9.11 16.85 L 9.33 17.12 L 9.53 17.41 L 9.7 17.72 L 9.84 18.04 L 9.95 18.37 L 10.03 18.72 L 10.08 19.06 L 10.1 19.42 L 10.08 19.77 L 10.03 20.11 L 9.95 20.46 L 9.84 20.79 L 9.7 21.11 L 9.53 21.42 L 9.33 21.71 L 9.11 21.98 L 8.86 22.23 L 8.59 22.46 L 8.31 22.66 L 8.0 22.83 L 8.0 23.0 L 8.0 23.25 L 8.0 23.5 L 8.0 23.75 L 8.0 24.0 L 8.0 24.25 L 8.0 24.5 L 8.0 24.75 L 8.0 25.0 L 8.0 25.25 L 8.0 25.5 L 8.0 25.75 L 8.0 26.0 L 8.0 26.25 L 8.0 26.5 L 8.0 26.75 L 8.0 27.0 L 8.0 27.25 L 8.0 27.5 L 8.0 27.75 L 8.0 28.0 L 8.0 28.25 L 8.0 28.5 L 8.0 28.75 L 8.0 29.0" fill="none" stroke="#111" stroke-width="1.17" stroke-linecap="round" stroke-linejoin="round"/>
<path d="M 13.0 8.0 L 13.0 8.71 L 13.0 9.42 L 13.0 10.12 L 13.0 10.83 L 13.0 11.54 L 13.0 12.25 L 13.0 12.96 L 13.0 13.67 L 13.0 14.38 L 13.0 15.08 L 13.0 15.79 L 13.0 16.5 L 13.0 17.21 L 13.0 17.92 L 13.0 18.62 L 13.0 19.33 L 13.0 20.04 L 13.0 20.75 L 13.0 21.46 L 13.0 22.17 L 13.0 22.88 L 13.0 23.58 L 13.0 24.29 L 13.0 25.0" fill="none" stroke="#111" stroke-width="1.17" stroke-linecap="round" stroke-linejoin="round"/>
<path d="M 17.0 12.0 L 17.37 12.41 L 17.7 12.85 L 17.98 13.32 L 18.22 13.82 L 18.4 14.33 L 18.54 14.86 L 18.62 15.41 L 18.66 15.96 L 18.63 16.51 L 18.56 17.05 L 18.43 17.58 L 18.25 18.1 L 18.02 18.6 L 17.75 19.08 L 17.43 19.53 L 17.06 19.94 L 16.66 20.31 L 16.23 20.65 L 15.76 20.94 L 15.27 21.19 L 14.76 21.38 L 14.23 21.53 L 13.68 21.62 L 13.14 21.66" fill="none" stroke="#111" stroke-width="1.17" stroke-linecap="round" stroke-linejoin="round"/>
<path d="M 14.0 17.0 L 14.68 17.11 L 15.34 17.27 L 15.99 17.49 L 16.61 17.77 L 17.22 18.1 L 17.79 18.47 L 18.32 18.9 L 18.82 19.37 L 19.28 19.88 L 19.69 20.43 L 20.05 21.0 L 20.37 21.61 L 20.63 22.25 L 20.83 22.9 L 20.98 23.57 L 21.07 24.25 L 21.11 24.93 L 21.08 25.61 L 21.0 26.29 L 20.86 26.96 L 20.66 27.62 L 20.41 28.25 L 20.1 28.87 L 19.75 29.45" fill="none" stroke="#111" stroke-width="1.17" stroke-linecap="round" stroke-linejoin="round"/>
<path d="M 8.0 9.0 L 8.12 8.92 L 8.25 8.83 L 8.38 8.75 L 8.5 8.67 L 8.62 8.58 L 8.75 8.5 L 8.88 8.42 L 9.0 8.33 L 9.12 8.25 L 9.25 8.17 L 9.38 8.08 L 9.5 8.0 L 9.62 7.92 L 9.75 7.83 L 9.88 7.75 L 10.0 7.67 L 10.12 7.58 L 10.25 7.5 L 10.38 7.42 L 10.5 7.33 L 10.62 7.25 L 10.75 7.17 L 10.88 7.08 L 11.0 7.0" fill="none" stroke="#111" stroke-width="1.17" stroke-linecap="round" stroke-linejoin="round"/>
<path d="M 8.0 13.0 L 8.12 12.92 L 8.25 12.83 L 8.38 12.75 L 8.5 12.67 L 8.62 12.58 L 8.75 12.5 L 8.88 12.42 L 9.0 12.33 L 9.12 12.25 L 9.25 12.17 L 9.38 12.08 L 9.5 12.0 L 9.62 11.92 L 9.75 11.83 L 9.88 11.75 L 10.0 11.67 L 10.12 11.58 L 10.25 11.5 L 10.38 11.42 L 10.5 11.33 L 10.62 11.25 L 10.75 11.17 L 10.88 11.08 L 11.0 11.0" fill="none" stroke="#111" stroke-width="1.17" stroke-linecap="round" stroke-linejoin="round"/>
<path d="M 4.0 21.0 L 4.17 20.75 L 4.33 20.5 L 4.5 20.25 L 4.67 20.0 L 4.83 19.75 L 5.0 19.5 L 5.17 19.25 L 5.33 19.0 L 5.5 18.75 L 5.67 18.5 L 5.83 18.25 L 6.0 18.0 L 6.17 17.75 L 6.33 17.5 L 6.5 17.25 L 6.67 17.0 L 6.83 16.75 L 7.0 16.5 L 7.17 16.25 L 7.33 16.0 L 7.5 15.75 L 7.67 15.5 L 7.83 15.25 L 8.0 15.0" fill="none" stroke="#111" stroke-width="1.17" stroke-linecap="round" stroke-linejoin="round"/>
</svg>
