<?xml version="1.0" encoding="UTF-8"?>
<svg xmlns="http://www.w3.org/2000/svg" viewBox="0 0 21.00 35.13">
<path d="M 7.0 4.13 L 7.35 4.2 L 7.69 4.31 L 8.02 4.46 L 8.32 4.65 L 8.6 4.87 L 8.85 5.13 L 9.07 5.41 L 9.26 5.72 L 9.4 6.05 L 9.51 6.39 L 9.57 6.74 L 9.59 7.1 L 9.57 7.46 L 9.51 7.81 L 9.4 8.15 L 9.26 8.48 L 9.07 8.79 L 8.85 9.07 L 8.6 9.33 L 8.32 9.55 L 8.02 9.74 L 7.69 9.89 L 7.35 10.01 L 7.0 10.08 L 7.0 10.13 L 7.19 10.25 L 7.38 10.37 L 7.56 10.5 L 7.74 10.64 L 7.91 10.78 L 8.08 10.93 L 8.25 11.09 L 8.41 11.24 L 8.56 11.41 L 8.71 11.58 L 8.85 11.75 L 8.99 11.93 L 9.12 12.11 L 9.25 12.3 L 9.37 12.49 L 9.48 12.68 L 9.59 12.88 L 9.69 13.08 L 9.79 13.28 L 9.88 13.49 L 9.96 13.7 L 10.03 13.91 L 10.1 14.12 L 10.16 14.34" fill="none" stroke="#111" stroke-width="1.23" stroke-linecap="round" stroke-linejoin="round"/>
<path d="M 8.0 4.13 L 9.04 4.0 L 10.08 4.05 L 11.1 4.26 L 12.07 4.64 L 12.97 5.17 L 13.77 5.85 L 14.44 6.64 L 14.98 7.53 L 15.37 8.5 L 15.59 9.52 L 15.64 10.56 L 15.52 11.6 L 15.23 12.6 L 14.78 13.54 L 14.19 14.4 L 13.46 15.15 L 12.62 15.77 L 11.69 16.24 L 10.69 16.55 L 9.66 16.7 L 8.62 16.68 L 7.59 16.48 L 6.61 16.12 L 5.71 15.61" fill="none" stroke="#111" stroke-width="1.23" stroke-linecap="round" stroke-linejoin="round"/>
<path d="M 14.0 15.13 L 13.62 15.16 L 13.24 15.24 L 12.87 15.36 L 12.52 15.51 L 12.18 15.7 L 11.87 15.92 L 11.58 16.18 L 11.32 16.46 L 11.09 16.77 L 10.89 17.1 L 10.73 17.45 L 10.6 17.81 L 10.51 18.19 L 10.47 18.57 L 10.46 18.96 L 10.49 19.34 L 10.56 19.72 L 10.68 20.09 L 10.83 20.45 L 11.01 20.79 L 11.23 21.1 L 11.48 21.4 L 11.76 21.66 L 12.07 21.89 L 12.0 22.13 L 12.0 22.5 L 12.0 22.88 L 12.0 23.25 L 12.0 23.63 L 12.0 24.0 L 12.0 24.38 L 12.0 24.75 L 12.0 25.13 L 12.0 25.5 L 12.0 25.88 L 12.0 26.25 L 12.0 26.63 L 12.0 27.0 L 12.0 27.38 L 12.0 27.75 L 12.0 28.13 L 12.0 28.5 L 12.0 28.88 L 12.0 29.25 L 12.0 29.63 L 12.0 30.0 L 12.0 30.38 L 12.0 30.75 L 12.0 31.13" fill="none" stroke="#111" stroke-width="1.23" stroke-linecap="round" stroke-linejoin="round"/>
<path d="M 13.0 16.13 L 13.17 16.33 L 13.34 16.54 L 13.5 16.75 L 13.67 16.96 L 13.84 17.17 L 14.0 17.38 L 14.17 17.58 L 14.34 17.79 L 14.5 18.0 L 14.67 18.21 L 14.84 18.42 L 15.0 18.63 L 15.17 18.83 L 15.34 19.04 L 15.5 19.25 L 15.67 19.46 L 15.84 19.67 L 16.0 19.88 L 16.17 20.08 L 16.34 20.29 L 16.5 20.5 L 16.67 20.71 L 16.84 20.92 L 17.0 21.13" fill="none" stroke="#111" stroke-width="1.23" stroke-linecap="round" stroke-linejoin="round"/>
<path d="M 4.0 18.13 L 4.0 18.75 L 4.1 19.37 L 4.29 19.96 L 4.57 20.52 L 4.94 21.02 L 5.38 21.46 L 5.89 21.83 L 6.44 22.11 L 7.04 22.3 L 7.65 22.39 L 8.28 22.39 L 8.89 22.28 L 9.48 22.08 L 10.04 21.79 L 10.54 21.42 L 10.97 20.97 L 11.33 20.46 L 11.61 19.9 L 11.79 19.31 L 11.88 18.69 L 11.86 18.07 L 11.75 17.45 L 11.55 16.86 L 11.25 16.31" fill="none" stroke="#111" stroke-width="1.23" stroke-linecap="round" stroke-linejoin="round"/>
<path d="M 4.0 19.13 L 4.17 19.13 L 4.34 19.13 L 4.5 19.13 L 4.67 19.13 L 4.84 19.13 L 5.0 19.13 L 5.17 19.13 L 5.34 19.13 L 5.5 19.13 L 5.67 19.13 L 5.84 19.13 L 6.0 19.13 L 6.17 19.13 L 6.34 19.13 L 6.5 19.13 L 6.67 19.13 L 6.84 19.13 L 7.0 19.13 L 7.17 19.13 L 7.34 19.13 L 7.5 19.13 L 7.67 19.13 L 7.84 19.13 L 8.0 19.13" fill="none" stroke="#111" stroke-width="1.23" stroke-linecap="round" stroke-linejoin="round"/>
</svg>
