<?xml version="1.0" encoding="UTF-8"?>
<svg xmlns="http://www.w3.org/2000/svg" viewBox="0 0 22.95 36.92">
<path d="M 5.95 14.0 L 5.74 14.98 L 5.7 15.98 L 5.82 16.97 L 6.09 17.93 L 6.53 18.84 L 7.1 19.66 L 7.8 20.38 L 8.6 20.97 L 9.49 21.43 L 10.45 21.73 L 11.44 21.88 L 12.44 21.86 L 13.42 21.68 L 14.36 21.34 L 15.24 20.85 L 16.02 20.23 L 16.69 19.49 L 17.24 18.65 L 17.64 17.73 L 17.88 16.76 L 17.96 15.76 L 17.88 14.76 L 17.64 13.79 L 17.24 12.87 L 15.95 13.0 L 15.53 13.04 L 15.12 13.08 L 14.7 13.12 L 14.28 13.17 L 13.87 13.21 L 13.45 13.25 L 13.03 13.29 L 12.62 13.33 L 12.2 13.38 L 11.78 13.42 L 11.37 13.46 L 10.95 13.5 L 10.53 13.54 L 10.12 13.58 L 9.7 13.62 L 9.28 13.67 L 8.87 13.71 L 8.45 13.75 L 8.03 13.79 L 7.62 13.83 L 7.2 13.88 L 6.78 13.92 L 6.37 13.96 L 5.95 14.0" fill="none" stroke="#111" stroke-width="1.29" stroke-linecap="round" stroke-linejoin="round"/>
<path d="M 18.95 6.0 L 17.87 5.89 L 16.79 5.89 L 15.71 5.97 L 14.64 6.16 L 13.6 6.43 L 12.58 6.8 L 11.6 7.26 L 10.66 7.8 L 9.78 8.43 L 8.95 9.13 L 8.19 9.9 L 7.5 10.74 L 6.89 11.63 L 6.36 12.58 L 5.92 13.57 L 5.57 14.59 L 5.31 15.64 L 5.14 16.71 L 5.07 17.79 L 5.1 18.88 L 5.22 19.95 L 5.44 21.01 L 5.75 22.05 L 6.16 23.06" fill="none" stroke="#111" stroke-width="1.29" stroke-linecap="round" stroke-linejoin="round"/>
<path d="M 13.95 4.0 L 13.82 4.25 L 13.7 4.5 L 13.57 4.75 L 13.45 5.0 L 13.32 5.25 L 13.2 5.5 L 13.07 5.75 L 12.95 6.0 L 12.82 6.25 L 12.7 6.5 L 12.57 6.75 L 12.45 7.0 L 12.32 7.25 L 12.2 7.5 L 12.07 7.75 L 11.95 8.0 L 11.82 8.25 L 11.7 8.5 L 11.57 8.75 L 11.45 9.0 L 11.32 9.25 L 11.2 9.5 L 11.07 9.75 L 10.95 10.0" fill="none" stroke="#111" stroke-width="1.29" stroke-linecap="round" stroke-linejoin="round"/>
<path d="M 5.95 24.0 L 6.41 23.96 L 6.87 23.92 L 7.32 23.88 L 7.78 23.83 L 8.24 23.79 L 8.7 23.75 L 9.16 23.71 L 9.62 23.67 L 10.07 23.62 L 10.53 23.58 L 10.99 23.54 L 11.45 23.5 L 11.91 23.46 L 12.37 23.42 L 12.82 23.38 L 13.28 23.33 L 13.74 23.29 L 14.2 23.25 L 14.66 23.21 L 15.12 23.17 L 15.57 23.12 L 16.03 23.08 L 16.49 23.04 L 16.95 23.0 L 16.95 23.0 L 16.67 23.55 L 16.36 24.08 L 16.01 24.59 L 15.63 25.07 L 15.22 25.53 L 14.78 25.97 L 14.32 26.37 L 13.83 26.75 L 13.32 27.09 L 12.78 27.4 L 12.23 27.67 L 11.67 27.91 L 11.08 28.12 L 10.49 28.28 L 9.89 28.41 L 9.28 28.5 L 8.66 28.55 L 8.05 28.56 L 7.43 28.53 L 6.82 28.46 L 6.21 28.35 L 5.62 28.21 L 5.03 28.03 L 4.45 27.81" fill="none" stroke="#111" stroke-width="1.29" stroke-linecap="round" stroke-linejoin="round"/>
<path d="M 9.95 23.0 L 9.9 23.5 L 9.83 23.99 L 9.74 24.48 L 9.64 24.97 L 9.51 25.45 L 9.37 25.93 L 9.21 26.4 L 9.03 26.87 L 8.83 27.33 L 8.61 27.78 L 8.38 28.22 L 8.13 28.65 L 7.87 29.08 L 7.59 29.49 L 7.29 29.89 L 6.98 30.28 L 6.65 30.66 L 6.31 31.02 L 5.96 31.38 L 5.59 31.71 L 5.21 32.04 L 4.82 32.35 L 4.41 32.64 L 4.0 32.92" fill="none" stroke="#111" stroke-width="1.29" stroke-linecap="round" stroke-linejoin="round"/>
</svg>
