<?xml version="1.0" encoding="UTF-8"?>
<svg xmlns="http://www.w3.org/2000/svg" viewBox="0 0 21.21 36.94">
<path d="M 4.0 9.0 L 4.38 9.0 L 4.75 9.0 L 5.13 9.0 L 5.5 9.0 L 5.88 9.0 L 6.25 9.0 L 6.63 9.0 L 7.0 9.0 L 7.38 9.0 L 7.75 9.0 L 8.12 9.0 L 8.5 9.0 L 8.88 9.0 L 9.25 9.0 L 9.62 9.0 L 10.0 9.0 L 10.38 9.0 L 10.75 9.0 L 11.12 9.0 L 11.5 9.0 L 11.88 9.0 L 12.25 9.0 L 12.62 9.0 L 13.0 9.0" fill="none" stroke="#111" stroke-width="1.29" stroke-linecap="round" stroke-linejoin="round"/>
<path d="M 4.0 9.0 L 4.0 9.54 L 4.0 10.08 L 4.0 10.62 L 4.0 11.17 L 4.0 11.71 L 4.0 12.25 L 4.0 12.79 L 4.0 13.33 L 4.0 13.88 L 4.0 14.42 L 4.0 14.96 L 4.0 15.5 L 4.0 16.04 L 4.0 16.58 L 4.0 17.12 L 4.0 17.67 L 4.0 18.21 L 4.0 18.75 L 4.0 19.29 L 4.0 19.83 L 4.0 20.38 L 4.0 20.92 L 4.0 21.46 L 4.0 22.0" fill="none" stroke="#111" stroke-width="1.29" stroke-linecap="round" stroke-linejoin="round"/>
<path d="M 7.0 4.0 L 7.0 4.21 L 7.0 4.42 L 7.0 4.62 L 7.0 4.83 L 7.0 5.04 L 7.0 5.25 L 7.0 5.46 L 7.0 5.67 L 7.0 5.88 L 7.0 6.08 L 7.0 6.29 L 7.0 6.5 L 7.0 6.71 L 7.0 6.92 L 7.0 7.12 L 7.0 7.33 L 7.0 7.54 L 7.0 7.75 L 7.0 7.96 L 7.0 8.17 L 7.0 8.38 L 7.0 8.58 L 7.0 8.79 L 7.0 9.0" fill="none" stroke="#111" stroke-width="1.29" stroke-linecap="round" stroke-linejoin="round"/>
<path d="M 5.0 5.0 L 5.08 5.17 L 5.17 5.33 L 5.25 5.5 L 5.33 5.67 L 5.42 5.83 L 5.5 6.0 L 5.58 6.17 L 5.67 6.33 L 5.75 6.5 L 5.83 6.67 L 5.92 6.83 L 6.0 7.0 L 6.08 7.17 L 6.17 7.33 L 6.25 7.5 L 6.33 7.67 L 6.42 7.83 L 6.5 8.0 L 6.58 8.17 L 6.67 8.33 L 6.75 8.5 L 6.83 8.67 L 6.92 8.83 L 7.0 9.0" fill="none" stroke="#111" stroke-width="1.29" stroke-linecap="round" stroke-linejoin="round"/>
<path d="M 10.0 5.0 L 9.88 5.17 L 9.75 5.33 L 9.62 5.5 L 9.5 5.67 L 9.38 5.83 L 9.25 6.0 L 9.12 6.17 L 9.0 6.33 L 8.88 6.5 L 8.75 6.67 L 8.63 6.83 L 8.5 7.0 L 8.38 7.17 L 8.25 7.33 L 8.13 7.5 L 8.0 7.67 L 7.88 7.83 L 7.75 8.0 L 7.63 8.17 L 7.5 8.33 L 7.38 8.5 L 7.25 8.67 L 7.13 8.83 L 7.0 9.0" fill="none" stroke="#111" stroke-width="1.29" stroke-linecap="round" stroke-linejoin="round"/>
<path d="M 10.0 9.0 L 9.75 9.29 L 9.5 9.58 L 9.25 9.88 L 9.0 10.17 L 8.75 10.46 L 8.5 10.75 L 8.25 11.04 L 8.0 11.33 L 7.75 11.62 L 7.5 11.92 L 7.25 12.21 L 7.0 12.5 L 6.75 12.79 L 6.5 13.08 L 6.25 13.38 L 6.0 13.67 L 5.75 13.96 L 5.5 14.25 L 5.25 14.54 L 5.0 14.83 L 4.75 15.12 L 4.5 15.42 L 4.25 15.71 L 4.0 16.0" fill="none" stroke="#111" stroke-width="1.29" stroke-linecap="round" stroke-linejoin="round"/>
<path d="M 11.0 12.0 L 10.73 12.34 L 10.48 12.7 L 10.25 13.07 L 10.04 13.45 L 9.84 13.83 L 9.66 14.23 L 9.51 14.64 L 9.37 15.05 L 9.25 15.47 L 9.16 15.89 L 9.08 16.32 L 9.03 16.75 L 9.0 17.19 L 8.98 17.62 L 8.99 18.06 L 9.03 18.49 L 9.08 18.92 L 9.15 19.35 L 9.25 19.78 L 9.36 20.2 L 9.5 20.61 L 9.65 21.02 L 9.83 21.42 L 10.02 21.8 L 10.0 22.0 L 10.04 21.92 L 10.08 21.83 L 10.12 21.75 L 10.17 21.67 L 10.21 21.58 L 10.25 21.5 L 10.29 21.42 L 10.33 21.33 L 10.38 21.25 L 10.42 21.17 L 10.46 21.08 L 10.5 21.0 L 10.54 20.92 L 10.58 20.83 L 10.62 20.75 L 10.67 20.67 L 10.71 20.58 L 10.75 20.5 L 10.79 20.42 L 10.83 20.33 L 10.88 20.25 L 10.92 20.17 L 10.96 20.08 L 11.0 20.0" fill="none" stroke="#111" stroke-width="1.29" stroke-linecap="round" stroke-linejoin="round"/>
<path d="M 9.0 19.0 L 9.12 18.88 L 9.25 18.75 L 9.38 18.62 L 9.5 18.5 L 9.62 18.38 L 9.75 18.25 L 9.88 18.12 L 10.0 18.0 L 10.12 17.88 L 10.25 17.75 L 10.38 17.62 L 10.5 17.5 L 10.62 17.38 L 10.75 17.25 L 10.88 17.12 L 11.0 17.0 L 11.12 16.88 L 11.25 16.75 L 11.38 16.62 L 11.5 16.5 L 11.62 16.38 L 11.75 16.25 L 11.88 16.12 L 12.0 16.0" fill="none" stroke="#111" stroke-width="1.29" stroke-linecap="round" stroke-linejoin="round"/>
<path d="M 6.0 24.0 L 5.72 24.58 L 5.54 25.2 L 5.47 25.84 L 5.52 26.48 L 5.68 27.1 L 5.94 27.69 L 6.3 28.22 L 6.76 28.68 L 7.28 29.05 L 7.86 29.33 L 8.48 29.5 L 9.13 29.55 L 9.77 29.5 L 10.39 29.33 L 10.97 29.05 L 11.5 28.68 L 11.95 28.22 L 12.31 27.69 L 12.58 27.1 L 12.74 26.48 L 12.78 25.84 L 12.71 25.2 L 12.54 24.58 L 12.25 24.0" fill="none" stroke="#111" stroke-width="1.29" stroke-linecap="round" stroke-linejoin="round"/>
<path d="M 6.0 26.0 L 6.21 26.0 L 6.42 26.0 L 6.63 26.0 L 6.83 26.0 L 7.04 26.0 L 7.25 26.0 L 7.46 26.0 L 7.67 26.0 L 7.88 26.0 L 8.08 26.0 L 8.29 26.0 L 8.5 26.0 L 8.71 26.0 L 8.92 26.0 L 9.12 26.0 L 9.33 26.0 L 9.54 26.0 L 9.75 26.0 L 9.96 26.0 L 10.17 26.0 L 10.38 26.0 L 10.58 26.0 L 10.79 26.0 L 11.0 26.0" fill="none" stroke="#111" stroke-width="1.29" stroke-linecap="round" stroke-linejoin="round"/>
<path d="M 16.0 13.0 L 15.64 12.1 L 15.1 11.29 L 14.4 10.61 L 13.57 10.1 L 12.66 9.76 L 11.7 9.63 L 10.73 9.69 L 9.79 9.96 L 8.93 10.42 L 8.19 11.04 L 7.59 11.81 L 7.16 12.68 L 6.93 13.63 L 6.89 14.6 L 7.06 15.56 L 7.43 16.46 L 7.97 17.26 L 8.67 17.94 L 9.5 18.45 L 10.41 18.78 L 11.38 18.92 L 12.35 18.85 L 13.28 18.58 L 14.14 18.12" fill="none" stroke="#111" stroke-width="1.29" stroke-linecap="round" stroke-linejoin="round"/>
<path d="M 16.0 20.0 L 16.21 20.34 L 16.38 20.7 L 16.53 21.07 L 16.65 21.45 L 16.74 21.83 L 16.8 22.23 L 16.83 22.63 L 16.83 23.02 L 16.8 23.42 L 16.73 23.81 L 16.64 24.2 L 16.51 24.58 L 16.36 24.95 L 16.17 25.3 L 15.96 25.64 L 15.73 25.96 L 15.47 26.26 L 15.19 26.54 L 14.88 26.8 L 14.56 27.03 L 14.22 27.24 L 13.86 27.42 L 13.49 27.57 L 13.11 27.69" fill="none" stroke="#111" stroke-width="1.29" stroke-linecap="round" stroke-linejoin="round"/>
<path d="M 15.0 23.0 L 15.23 23.37 L 15.45 23.74 L 15.65 24.12 L 15.85 24.51 L 16.03 24.9 L 16.2 25.3 L 16.36 25.7 L 16.5 26.11 L 16.63 26.52 L 16.75 26.94 L 16.85 27.36 L 16.95 27.78 L 17.02 28.21 L 17.09 28.63 L 17.14 29.06 L 17.18 29.5 L 17.2 29.93 L 17.21 30.36 L 17.21 30.79 L 17.19 31.22 L 17.16 31.66 L 17.12 32.09 L 17.06 32.52 L 16.99 32.94" fill="none" stroke="#111" stroke-width="1.29" stroke-linecap="round" stroke-linejoin="round"/>
<path d="M 10.0 14.0 L 10.08 14.08 L 10.17 14.17 L 10.25 14.25 L 10.33 14.33 L 10.42 14.42 L 10.5 14.5 L 10.58 14.58 L 10.67 14.67 L 10.75 14.75 L 10.83 14.83 L 10.92 14.92 L 11.0 15.0 L 11.08 15.08 L 11.17 15.17 L 11.25 15.25 L 11.33 15.33 L 11.42 15.42 L 11.5 15.5 L 11.58 15.58 L 11.67 15.67 L 11.75 15.75 L 11.83 15.83 L 11.92 15.92 L 12.0 16.0" fill="none" stroke="#111" stroke-width="1.29" stroke-linecap="round" stroke-linejoin="round"/>
<path d="M 12.0 14.0 L 12.0 14.17 L 12.0 14.33 L 12.0 14.5 L 12.0 14.67 L 12.0 14.83 L 12.0 15.0 L 12.0 15.17 L 12.0 15.33 L 12.0 15.5 L 12.0 15.67 L 12.0 15.83 L 12.0 16.0 L 12.0 16.17 L 12.0 16.33 L 12.0 16.5 L 12.0 16.67 L 12.0 16.83 L 12.0 17.0 L 12.0 17.17 L 12.0 17.33 L 12.0 17.5 L 12.0 17.67 L 12.0 17.83 L 12.0 18.0" fill="none" stroke="#111" stroke-width="1.29" stroke-linecap="round" stroke-linejoin="round"/>
</svg>
