<?xml version="1.0" encoding="UTF-8"?>
<svg xmlns="http://www.w3.org/2000/svg" viewBox="0 0 27.79 33.89">
<path d="M 12.79 7.0 L 12.27 7.03 L 11.75 7.17 L 11.28 7.41 L 10.86 7.73 L 10.52 8.13 L 10.26 8.6 L 10.1 9.1 L 10.04 9.63 L 10.09 10.15 L 10.24 10.66 L 10.48 11.13 L 10.82 11.54 L 11.23 11.87 L 11.7 12.12 L 12.2 12.27 L 12.73 12.32 L 13.26 12.26 L 13.76 12.09 L 14.22 11.84 L 14.62 11.49 L 14.95 11.07 L 15.18 10.6 L 15.32 10.09 L 15.36 9.56 L 14.79 9.0 L 14.71 8.92 L 14.63 8.83 L 14.54 8.75 L 14.46 8.67 L 14.38 8.58 L 14.29 8.5 L 14.21 8.42 L 14.13 8.33 L 14.04 8.25 L 13.96 8.17 L 13.88 8.08 L 13.79 8.0 L 13.71 7.92 L 13.63 7.83 L 13.54 7.75 L 13.46 7.67 L 13.38 7.58 L 13.29 7.5 L 13.21 7.42 L 13.13 7.33 L 13.04 7.25 L 12.96 7.17 L 12.88 7.08 L 12.79 7.0" fill="none" stroke="#111" stroke-width="1.19" stroke-linecap="round" stroke-linejoin="round"/>
<path d="M 11.79 4.0 L 11.75 4.17 L 11.71 4.33 L 11.67 4.5 L 11.63 4.67 L 11.58 4.83 L 11.54 5.0 L 11.5 5.17 L 11.46 5.33 L 11.42 5.5 L 11.38 5.67 L 11.33 5.83 L 11.29 6.0 L 11.25 6.17 L 11.21 6.33 L 11.17 6.5 L 11.13 6.67 L 11.08 6.83 L 11.04 7.0 L 11.0 7.17 L 10.96 7.33 L 10.92 7.5 L 10.88 7.67 L 10.83 7.83 L 10.79 8.0" fill="none" stroke="#111" stroke-width="1.19" stroke-linecap="round" stroke-linejoin="round"/>
<path d="M 14.79 4.0 L 14.75 4.17 L 14.71 4.33 L 14.67 4.5 L 14.63 4.67 L 14.58 4.83 L 14.54 5.0 L 14.5 5.17 L 14.46 5.33 L 14.42 5.5 L 14.38 5.67 L 14.33 5.83 L 14.29 6.0 L 14.25 6.17 L 14.21 6.33 L 14.17 6.5 L 14.13 6.67 L 14.08 6.83 L 14.04 7.0 L 14.0 7.17 L 13.96 7.33 L 13.92 7.5 L 13.88 7.67 L 13.83 7.83 L 13.79 8.0" fill="none" stroke="#111" stroke-width="1.19" stroke-linecap="round" stroke-linejoin="round"/>
<path d="M 11.79 12.0 L 11.59 12.23 L 11.39 12.48 L 11.21 12.73 L 11.03 12.98 L 10.86 13.25 L 10.71 13.51 L 10.56 13.79 L 10.42 14.07 L 10.3 14.35 L 10.19 14.64 L 10.08 14.94 L 9.99 15.24 L 9.91 15.54 L 9.84 15.84 L 9.79 16.15 L 9.74 16.45 L 9.71 16.76 L 9.69 17.08 L 9.68 17.39 L 9.68 17.7 L 9.7 18.01 L 9.72 18.32 L 9.76 18.63 L 9.81 18.93 L 9.79 19.0 L 9.32 19.58 L 8.91 20.21 L 8.58 20.88 L 8.33 21.59 L 8.16 22.32 L 8.08 23.07 L 8.08 23.82 L 8.18 24.56 L 8.35 25.29 L 8.61 26.0 L 8.95 26.67 L 9.37 27.29 L 9.85 27.86 L 10.4 28.38 L 11.0 28.83 L 11.65 29.2 L 12.34 29.5 L 13.06 29.71 L 13.8 29.84 L 14.55 29.89 L 15.3 29.84 L 16.04 29.71 L 16.76 29.5 L 17.45 29.21" fill="none" stroke="#111" stroke-width="1.19" stroke-linecap="round" stroke-linejoin="round"/>
<path d="M 13.79 12.0 L 13.79 12.29 L 13.79 12.58 L 13.79 12.88 L 13.79 13.17 L 13.79 13.46 L 13.79 13.75 L 13.79 14.04 L 13.79 14.33 L 13.79 14.62 L 13.79 14.92 L 13.79 15.21 L 13.79 15.5 L 13.79 15.79 L 13.79 16.08 L 13.79 16.38 L 13.79 16.67 L 13.79 16.96 L 13.79 17.25 L 13.79 17.54 L 13.79 17.83 L 13.79 18.12 L 13.79 18.42 L 13.79 18.71 L 13.79 19.0 L 13.79 19.0 L 13.79 19.12 L 13.79 19.25 L 13.79 19.38 L 13.79 19.5 L 13.79 19.62 L 13.79 19.75 L 13.79 19.88 L 13.79 20.0 L 13.79 20.12 L 13.79 20.25 L 13.79 20.38 L 13.79 20.5 L 13.79 20.62 L 13.79 20.75 L 13.79 20.88 L 13.79 21.0 L 13.79 21.12 L 13.79 21.25 L 13.79 21.38 L 13.79 21.5 L 13.79 21.62 L 13.79 21.75 L 13.79 21.88 L 13.79 22.0 L 13.79 22.0 L 13.75 22.08 L 13.71 22.17 L 13.67 22.25 L 13.63 22.33 L 13.58 22.42 L 13.54 22.5 L 13.5 22.58 L 13.46 22.67 L 13.42 22.75 L 13.38 22.83 L 13.33 22.92 L 13.29 23.0 L 13.25 23.08 L 13.21 23.17 L 13.17 23.25 L 13.13 23.33 L 13.08 23.42 L 13.04 23.5 L 13.0 23.58 L 12.96 23.67 L 12.92 23.75 L 12.88 23.83 L 12.83 23.92 L 12.79 24.0 L 12.79 24.0 L 12.59 24.1 L 12.4 24.23 L 12.22 24.37 L 12.07 24.54 L 11.93 24.72 L 11.82 24.92 L 11.73 25.13 L 11.67 25.35 L 11.63 25.57 L 11.62 25.8 L 11.63 26.03 L 11.67 26.25 L 11.74 26.47 L 11.84 26.68 L 11.95 26.87 L 12.09 27.05 L 12.25 27.22 L 12.43 27.36 L 12.62 27.48 L 12.83 27.58 L 13.04 27.65 L 13.27 27.7 L 13.49 27.72 L 13.72 27.71 L 13.79 28.0 L 13.88 27.96 L 13.96 27.92 L 14.04 27.88 L 14.13 27.83 L 14.21 27.79 L 14.29 27.75 L 14.38 27.71 L 14.46 27.67 L 14.54 27.62 L 14.63 27.58 L 14.71 27.54 L 14.79 27.5 L 14.88 27.46 L 14.96 27.42 L 15.04 27.38 L 15.13 27.33 L 15.21 27.29 L 15.29 27.25 L 15.38 27.21 L 15.46 27.17 L 15.54 27.12 L 15.63 27.08 L 15.71 27.04 L 15.79 27.0" fill="none" stroke="#111" stroke-width="1.19" stroke-linecap="round" stroke-linejoin="round"/>
<path d="M 9.79 16.0 L 9.96 15.92 L 10.13 15.83 L 10.29 15.75 L 10.46 15.67 L 10.63 15.58 L 10.79 15.5 L 10.96 15.42 L 11.13 15.33 L 11.29 15.25 L 11.46 15.17 L 11.63 15.08 L 11.79 15.0 L 11.96 14.92 L 12.13 14.83 L 12.29 14.75 L 12.46 14.67 L 12.63 14.58 L 12.79 14.5 L 12.96 14.42 L 13.13 14.33 L 13.29 14.25 L 13.46 14.17 L 13.63 14.08 L 13.79 14.0" fill="none" stroke="#111" stroke-width="1.19" stroke-linecap="round" stroke-linejoin="round"/>
<path d="M 9.79 20.0 L 9.96 19.92 L 10.13 19.83 L 10.29 19.75 L 10.46 19.67 L 10.63 19.58 L 10.79 19.5 L 10.96 19.42 L 11.13 19.33 L 11.29 19.25 L 11.46 19.17 L 11.63 19.08 L 11.79 19.0 L 11.96 18.92 L 12.13 18.83 L 12.29 18.75 L 12.46 18.67 L 12.63 18.58 L 12.79 18.5 L 12.96 18.42 L 13.13 18.33 L 13.29 18.25 L 13.46 18.17 L 13.63 18.08 L 13.79 18.0" fill="none" stroke="#111" stroke-width="1.19" stroke-linecap="round" stroke-linejoin="round"/>
<path d="M 9.79 24.0 L 9.96 23.92 L 10.13 23.83 L 10.29 23.75 L 10.46 23.67 L 10.63 23.58 L 10.79 23.5 L 10.96 23.42 L 11.13 23.33 L 11.29 23.25 L 11.46 23.17 L 11.63 23.08 L 11.79 23.0 L 11.96 22.92 L 12.13 22.83 L 12.29 22.75 L 12.46 22.67 L 12.63 22.58 L 12.79 22.5 L 12.96 22.42 L 13.13 22.33 L 13.29 22.25 L 13.46 22.17 L 13.63 22.08 L 13.79 22.0" fill="none" stroke="#111" stroke-width="1.19" stroke-linecap="round" stroke-linejoin="round"/>
<path d="M 8.79 28.0 L 8.92 27.96 L 9.04 27.92 L 9.17 27.88 L 9.29 27.83 L 9.42 27.79 L 9.54 27.75 L 9.67 27.71 L 9.79 27.67 L 9.92 27.62 L 10.04 27.58 L 10.17 27.54 L 10.29 27.5 L 10.42 27.46 L 10.54 27.42 L 10.67 27.38 L 10.79 27.33 L 10.92 27.29 L 11.04 27.25 L 11.17 27.21 L 11.29 27.17 L 11.42 27.12 L 11.54 27.08 L 11.67 27.04 L 11.79 27.0" fill="none" stroke="#111" stroke-width="1.19" stroke-linecap="round" stroke-linejoin="round"/>
<path d="M 7.79 12.0 L 7.38 12.24 L 6.99 12.5 L 6.62 12.79 L 6.26 13.1 L 5.93 13.43 L 5.62 13.79 L 5.33 14.16 L 5.07 14.55 L 4.84 14.96 L 4.63 15.39 L 4.45 15.82 L 4.3 16.27 L 4.18 16.73 L 4.09 17.19 L 4.03 17.66 L 4.0 18.13 L 4.0 18.6 L 4.03 19.07 L 4.1 19.54 L 4.19 20.0 L 4.32 20.46 L 4.47 20.9 L 4.65 21.34 L 4.87 21.76 L 4.79 22.0 L 4.96 22.04 L 5.13 22.08 L 5.29 22.12 L 5.46 22.17 L 5.63 22.21 L 5.79 22.25 L 5.96 22.29 L 6.13 22.33 L 6.29 22.38 L 6.46 22.42 L 6.63 22.46 L 6.79 22.5 L 6.96 22.54 L 7.13 22.58 L 7.29 22.62 L 7.46 22.67 L 7.63 22.71 L 7.79 22.75 L 7.96 22.79 L 8.13 22.83 L 8.29 22.88 L 8.46 22.92 L 8.63 22.96 L 8.79 23.0" fill="none" stroke="#111" stroke-width="1.19" stroke-linecap="round" stroke-linejoin="round"/>
<path d="M 6.79 14.0 L 6.56 14.19 L 6.35 14.41 L 6.17 14.65 L 6.02 14.91 L 5.9 15.19 L 5.82 15.48 L 5.76 15.78 L 5.75 16.08 L 5.76 16.38 L 5.81 16.67 L 5.9 16.96 L 6.02 17.24 L 6.17 17.5 L 6.35 17.74 L 6.56 17.96 L 6.79 18.16 L 7.04 18.32 L 7.31 18.46 L 7.59 18.56 L 7.88 18.63 L 8.18 18.67 L 8.48 18.67 L 8.78 18.63 L 9.08 18.57" fill="none" stroke="#111" stroke-width="1.19" stroke-linecap="round" stroke-linejoin="round"/>
<path d="M 4.79 20.0 L 4.82 19.78 L 4.86 19.57 L 4.92 19.36 L 4.99 19.16 L 5.09 18.96 L 5.2 18.77 L 5.33 18.6 L 5.47 18.43 L 5.63 18.28 L 5.8 18.14 L 5.98 18.02 L 6.17 17.91 L 6.37 17.82 L 6.58 17.75 L 6.79 17.7 L 7.0 17.67 L 7.22 17.65 L 7.44 17.65 L 7.66 17.68 L 7.87 17.72 L 8.08 17.78 L 8.28 17.86 L 8.48 17.95 L 8.67 18.06" fill="none" stroke="#111" stroke-width="1.19" stroke-linecap="round" stroke-linejoin="round"/>
<path d="M 7.79 16.0 L 7.79 16.12 L 7.79 16.25 L 7.79 16.38 L 7.79 16.5 L 7.79 16.62 L 7.79 16.75 L 7.79 16.88 L 7.79 17.0 L 7.79 17.12 L 7.79 17.25 L 7.79 17.38 L 7.79 17.5 L 7.79 17.62 L 7.79 17.75 L 7.79 17.88 L 7.79 18.0 L 7.79 18.12 L 7.79 18.25 L 7.79 18.38 L 7.79 18.5 L 7.79 18.62 L 7.79 18.75 L 7.79 18.88 L 7.79 19.0" fill="none" stroke="#111" stroke-width="1.19" stroke-linecap="round" stroke-linejoin="round"/>
<path d="M 13.79 12.0 L 14.09 12.23 L 14.37 12.47 L 14.65 12.73 L 14.91 13.0 L 15.15 13.28 L 15.39 13.57 L 15.61 13.88 L 15.81 14.19 L 16.0 14.51 L 16.17 14.85 L 16.33 15.19 L 16.47 15.53 L 16.59 15.89 L 16.7 16.25 L 16.79 16.61 L 16.86 16.98 L 16.91 17.35 L 16.94 17.72 L 16.96 18.1 L 16.96 18.47 L 16.94 18.85 L 16.9 19.22 L 16.85 19.59 L 16.78 19.96" fill="none" stroke="#111" stroke-width="1.19" stroke-linecap="round" stroke-linejoin="round"/>
<path d="M 15.79 14.0 L 15.92 13.96 L 16.04 13.92 L 16.17 13.88 L 16.29 13.83 L 16.42 13.79 L 16.54 13.75 L 16.67 13.71 L 16.79 13.67 L 16.92 13.62 L 17.04 13.58 L 17.17 13.54 L 17.29 13.5 L 17.42 13.46 L 17.54 13.42 L 17.67 13.38 L 17.79 13.33 L 17.92 13.29 L 18.04 13.25 L 18.17 13.21 L 18.29 13.17 L 18.42 13.12 L 18.54 13.08 L 18.67 13.04 L 18.79 13.0 L 18.79 13.0 L 18.88 13.21 L 18.96 13.42 L 19.04 13.62 L 19.13 13.83 L 19.21 14.04 L 19.29 14.25 L 19.38 14.46 L 19.46 14.67 L 19.54 14.88 L 19.63 15.08 L 19.71 15.29 L 19.79 15.5 L 19.88 15.71 L 19.96 15.92 L 20.04 16.12 L 20.13 16.33 L 20.21 16.54 L 20.29 16.75 L 20.38 16.96 L 20.46 17.17 L 20.54 17.38 L 20.63 17.58 L 20.71 17.79 L 20.79 18.0" fill="none" stroke="#111" stroke-width="1.19" stroke-linecap="round" stroke-linejoin="round"/>
<path d="M 16.79 17.0 L 16.92 16.96 L 17.04 16.92 L 17.17 16.88 L 17.29 16.83 L 17.42 16.79 L 17.54 16.75 L 17.67 16.71 L 17.79 16.67 L 17.92 16.62 L 18.04 16.58 L 18.17 16.54 L 18.29 16.5 L 18.42 16.46 L 18.54 16.42 L 18.67 16.38 L 18.79 16.33 L 18.92 16.29 L 19.04 16.25 L 19.17 16.21 L 19.29 16.17 L 19.42 16.12 L 19.54 16.08 L 19.67 16.04 L 19.79 16.0" fill="none" stroke="#111" stroke-width="1.19" stroke-linecap="round" stroke-linejoin="round"/>
<path d="M 14.79 21.0 L 14.92 20.96 L 15.04 20.92 L 15.17 20.88 L 15.29 20.83 L 15.42 20.79 L 15.54 20.75 L 15.67 20.71 L 15.79 20.67 L 15.92 20.62 L 16.04 20.58 L 16.17 20.54 L 16.29 20.5 L 16.42 20.46 L 16.54 20.42 L 16.67 20.38 L 16.79 20.33 L 16.92 20.29 L 17.04 20.25 L 17.17 20.21 L 17.29 20.17 L 17.42 20.12 L 17.54 20.08 L 17.67 20.04 L 17.79 20.0" fill="none" stroke="#111" stroke-width="1.19" stroke-linecap="round" stroke-linejoin="round"/>
<path d="M 18.79 19.0 L 19.0 18.96 L 19.21 18.92 L 19.42 18.88 L 19.63 18.83 L 19.83 18.79 L 20.04 18.75 L 20.25 18.71 L 20.46 18.67 L 20.67 18.62 L 20.88 18.58 L 21.08 18.54 L 21.29 18.5 L 21.5 18.46 L 21.71 18.42 L 21.92 18.38 L 22.13 18.33 L 22.33 18.29 L 22.54 18.25 L 22.75 18.21 L 22.96 18.17 L 23.17 18.12 L 23.38 18.08 L 23.58 18.04 L 23.79 18.0" fill="none" stroke="#111" stroke-width="1.19" stroke-linecap="round" stroke-linejoin="round"/>
</svg>
