<?xml version="1.0" encoding="UTF-8"?>
<svg xmlns="http://www.w3.org/2000/svg" viewBox="0 0 25.60 31.91">
<path d="M 14.6 13.0 L 14.68 13.12 L 14.76 13.25 L 14.85 13.38 L 14.93 13.5 L 15.01 13.62 L 15.1 13.75 L 15.18 13.88 L 15.26 14.0 L 15.35 14.12 L 15.43 14.25 L 15.51 14.38 L 15.6 14.5 L 15.68 14.62 L 15.76 14.75 L 15.85 14.88 L 15.93 15.0 L 16.01 15.12 L 16.1 15.25 L 16.18 15.38 L 16.26 15.5 L 16.35 15.62 L 16.43 15.75 L 16.51 15.88 L 16.6 16.0" fill="none" stroke="#111" stroke-width="1.12" stroke-linecap="round" stroke-linejoin="round"/>
<path d="M 16.6 20.0 L 16.43 20.21 L 16.26 20.42 L 16.1 20.62 L 15.93 20.83 L 15.76 21.04 L 15.6 21.25 L 15.43 21.46 L 15.26 21.67 L 15.1 21.88 L 14.93 22.08 L 14.76 22.29 L 14.6 22.5 L 14.43 22.71 L 14.26 22.92 L 14.1 23.12 L 13.93 23.33 L 13.76 23.54 L 13.6 23.75 L 13.43 23.96 L 13.26 24.17 L 13.1 24.38 L 12.93 24.58 L 12.76 24.79 L 12.6 25.0" fill="none" stroke="#111" stroke-width="1.12" stroke-linecap="round" stroke-linejoin="round"/>
<path d="M 16.6 20.0 L 16.81 20.17 L 17.01 20.33 L 17.22 20.5 L 17.43 20.67 L 17.64 20.83 L 17.85 21.0 L 18.06 21.17 L 18.26 21.33 L 18.47 21.5 L 18.68 21.67 L 18.89 21.83 L 19.1 22.0 L 19.31 22.17 L 19.51 22.33 L 19.72 22.5 L 19.93 22.67 L 20.14 22.83 L 20.35 23.0 L 20.56 23.17 L 20.76 23.33 L 20.97 23.5 L 21.18 23.67 L 21.39 23.83 L 21.6 24.0" fill="none" stroke="#111" stroke-width="1.12" stroke-linecap="round" stroke-linejoin="round"/>
<path d="M 9.6 4.0 L 8.86 4.42 L 8.17 4.91 L 7.53 5.47 L 6.94 6.09 L 6.42 6.76 L 5.96 7.47 L 5.58 8.23 L 5.27 9.02 L 5.03 9.83 L 4.88 10.67 L 4.81 11.52 L 4.81 12.37 L 4.9 13.21 L 5.08 14.04 L 5.33 14.85 L 5.65 15.64 L 6.06 16.39 L 6.53 17.09 L 7.07 17.75 L 7.66 18.35 L 8.32 18.89 L 9.02 19.37 L 9.77 19.78 L 10.55 20.11 L 10.6 21.0 L 10.58 21.44 L 10.5 21.87 L 10.37 22.29 L 10.18 22.68 L 9.95 23.05 L 9.66 23.38 L 9.33 23.68 L 8.97 23.92 L 8.58 24.12 L 8.17 24.26 L 7.74 24.35 L 7.3 24.38 L 6.86 24.35 L 6.43 24.26 L 6.02 24.12 L 5.63 23.92 L 5.26 23.68 L 4.94 23.38 L 4.65 23.05 L 4.42 22.68 L 4.23 22.29 L 4.1 21.87 L 4.02 21.44 L 4.0 21.0 L 4.6 21.0 L 4.51 21.3 L 4.44 21.61 L 4.38 21.93 L 4.34 22.24 L 4.31 22.55 L 4.3 22.87 L 4.31 23.19 L 4.33 23.5 L 4.36 23.82 L 4.41 24.13 L 4.48 24.44 L 4.56 24.75 L 4.65 25.05 L 4.76 25.35 L 4.88 25.64 L 5.02 25.93 L 5.17 26.21 L 5.33 26.48 L 5.51 26.74 L 5.7 26.99 L 5.9 27.24 L 6.11 27.47 L 6.34 27.7 L 6.57 27.91" fill="none" stroke="#111" stroke-width="1.12" stroke-linecap="round" stroke-linejoin="round"/>
<path d="M 4.6 6.0 L 5.15 6.14 L 5.68 6.32 L 6.2 6.54 L 6.7 6.8 L 7.18 7.1 L 7.64 7.44 L 8.07 7.81 L 8.46 8.22 L 8.83 8.65 L 9.16 9.11 L 9.45 9.59 L 9.7 10.1 L 9.92 10.62 L 10.09 11.16 L 10.22 11.71 L 10.31 12.27 L 10.35 12.84 L 10.35 13.4 L 10.3 13.97 L 10.21 14.52 L 10.08 15.07 L 9.91 15.61 L 9.69 16.14 L 9.43 16.64" fill="none" stroke="#111" stroke-width="1.12" stroke-linecap="round" stroke-linejoin="round"/>
<path d="M 4.6 6.0 L 4.46 6.61 L 4.37 7.23 L 4.33 7.85 L 4.33 8.48 L 4.38 9.1 L 4.48 9.72 L 4.62 10.33 L 4.8 10.92 L 5.03 11.51 L 5.29 12.07 L 5.6 12.61 L 5.95 13.13 L 6.34 13.62 L 6.76 14.08 L 7.21 14.51 L 7.7 14.91 L 8.21 15.27 L 8.75 15.59 L 9.3 15.87 L 9.88 16.11 L 10.48 16.3 L 11.08 16.45 L 11.7 16.56 L 12.32 16.62" fill="none" stroke="#111" stroke-width="1.12" stroke-linecap="round" stroke-linejoin="round"/>
<path d="M 14.6 10.0 L 14.34 11.09 L 13.58 11.91 L 12.51 12.26 L 11.41 12.04 L 10.56 11.32 L 10.17 10.27 L 10.34 9.16 L 11.03 8.28 L 12.06 7.84 L 13.17 7.97 L 14.08 8.62 L 14.56 9.63 L 14.48 10.75 L 13.87 11.69 L 12.88 12.2 L 11.76 12.17 L 10.8 11.6 L 10.24 10.63 L 10.22 9.51 L 10.75 8.53 L 11.7 7.93 L 12.82 7.86 L 13.82 8.35 L 14.46 9.27 L 17.6 26.0 L 17.6 25.96 L 17.6 25.92 L 17.6 25.88 L 17.6 25.83 L 17.6 25.79 L 17.6 25.75 L 17.6 25.71 L 17.6 25.67 L 17.6 25.62 L 17.6 25.58 L 17.6 25.54 L 17.6 25.5 L 17.6 25.46 L 17.6 25.42 L 17.6 25.38 L 17.6 25.33 L 17.6 25.29 L 17.6 25.25 L 17.6 25.21 L 17.6 25.17 L 17.6 25.12 L 17.6 25.08 L 17.6 25.04 L 17.6 25.0" fill="none" stroke="#111" stroke-width="1.12" stroke-linecap="round" stroke-linejoin="round"/>
<path d="M 16.6 12.0 L 16.76 11.83 L 16.93 11.67 L 17.1 11.5 L 17.26 11.33 L 17.43 11.17 L 17.6 11.0 L 17.76 10.83 L 17.93 10.67 L 18.1 10.5 L 18.26 10.33 L 18.43 10.17 L 18.6 10.0 L 18.76 9.83 L 18.93 9.67 L 19.1 9.5 L 19.26 9.33 L 19.43 9.17 L 19.6 9.0 L 19.76 8.83 L 19.93 8.67 L 20.1 8.5 L 20.26 8.33 L 20.43 8.17 L 20.6 8.0" fill="none" stroke="#111" stroke-width="1.12" stroke-linecap="round" stroke-linejoin="round"/>
</svg>
