<?xml version="1.0" encoding="UTF-8"?>
<svg xmlns="http://www.w3.org/2000/svg" viewBox="0 0 22.73 35.92">
<path d="M 7.79 5.0 L 8.52 5.71 L 9.18 6.47 L 9.77 7.3 L 10.29 8.16 L 10.74 9.08 L 11.1 10.02 L 11.39 10.99 L 11.59 11.99 L 11.7 12.99 L 11.73 14.01 L 11.67 15.02 L 11.52 16.02 L 11.29 17.01 L 10.97 17.97 L 10.57 18.9 L 10.1 19.8 L 9.55 20.65 L 8.93 21.45 L 8.24 22.19 L 7.49 22.88 L 6.69 23.49 L 5.83 24.04 L 4.93 24.51 L 4.0 24.9" fill="none" stroke="#111" stroke-width="1.26" stroke-linecap="round" stroke-linejoin="round"/>
<path d="M 8.79 7.0 L 8.62 7.29 L 8.46 7.58 L 8.29 7.88 L 8.12 8.17 L 7.96 8.46 L 7.79 8.75 L 7.62 9.04 L 7.46 9.33 L 7.29 9.62 L 7.12 9.92 L 6.96 10.21 L 6.79 10.5 L 6.62 10.79 L 6.46 11.08 L 6.29 11.38 L 6.12 11.67 L 5.96 11.96 L 5.79 12.25 L 5.62 12.54 L 5.46 12.83 L 5.29 13.12 L 5.12 13.42 L 4.96 13.71 L 4.79 14.0" fill="none" stroke="#111" stroke-width="1.26" stroke-linecap="round" stroke-linejoin="round"/>
<path d="M 9.79 20.0 L 10.06 20.37 L 10.29 20.76 L 10.48 21.18 L 10.63 21.61 L 10.74 22.05 L 10.81 22.5 L 10.83 22.96 L 10.82 23.41 L 10.75 23.86 L 10.65 24.31 L 10.51 24.74 L 10.32 25.16 L 10.1 25.55 L 9.84 25.93 L 9.55 26.28 L 9.22 26.6 L 8.87 26.88 L 8.49 27.14 L 8.09 27.35 L 7.67 27.53 L 7.23 27.67 L 6.79 27.76 L 6.33 27.81 L 5.88 27.82" fill="none" stroke="#111" stroke-width="1.26" stroke-linecap="round" stroke-linejoin="round"/>
<path d="M 7.79 23.0 L 8.14 23.28 L 8.47 23.6 L 8.77 23.94 L 9.03 24.3 L 9.27 24.69 L 9.47 25.09 L 9.63 25.51 L 9.75 25.95 L 9.84 26.39 L 9.89 26.84 L 9.9 27.29 L 9.87 27.74 L 9.8 28.19 L 9.69 28.63 L 9.55 29.06 L 9.36 29.47 L 9.15 29.87 L 8.89 30.24 L 8.61 30.59 L 8.3 30.92 L 7.96 31.22 L 7.59 31.48 L 7.21 31.72 L 6.8 31.92" fill="none" stroke="#111" stroke-width="1.26" stroke-linecap="round" stroke-linejoin="round"/>
<path d="M 13.79 4.0 L 13.5 4.93 L 13.25 5.88 L 13.04 6.83 L 12.88 7.79 L 12.76 8.76 L 12.69 9.74 L 12.66 10.71 L 12.68 11.69 L 12.74 12.66 L 12.85 13.63 L 13.0 14.6 L 13.19 15.55 L 13.43 16.5 L 13.71 17.44 L 14.04 18.36 L 14.4 19.26 L 14.81 20.15 L 15.26 21.02 L 15.74 21.86 L 16.27 22.69 L 16.83 23.49 L 17.43 24.26 L 18.06 25.0 L 18.73 25.71" fill="none" stroke="#111" stroke-width="1.26" stroke-linecap="round" stroke-linejoin="round"/>
<path d="M 13.79 7.0 L 13.96 7.25 L 14.12 7.5 L 14.29 7.75 L 14.46 8.0 L 14.62 8.25 L 14.79 8.5 L 14.96 8.75 L 15.12 9.0 L 15.29 9.25 L 15.46 9.5 L 15.62 9.75 L 15.79 10.0 L 15.96 10.25 L 16.12 10.5 L 16.29 10.75 L 16.46 11.0 L 16.62 11.25 L 16.79 11.5 L 16.96 11.75 L 17.12 12.0 L 17.29 12.25 L 17.46 12.5 L 17.62 12.75 L 17.79 13.0" fill="none" stroke="#111" stroke-width="1.26" stroke-linecap="round" stroke-linejoin="round"/>
<path d="M 13.79 18.0 L 13.58 18.38 L 13.4 18.77 L 13.25 19.17 L 13.12 19.59 L 13.03 20.01 L 12.97 20.44 L 12.94 20.87 L 12.93 21.3 L 12.96 21.73 L 13.03 22.16 L 13.12 22.58 L 13.24 23.0 L 13.39 23.4 L 13.57 23.79 L 13.78 24.17 L 14.01 24.54 L 14.27 24.88 L 14.56 25.21 L 14.86 25.51 L 15.19 25.79 L 15.54 26.05 L 15.9 26.28 L 16.28 26.49 L 16.68 26.66" fill="none" stroke="#111" stroke-width="1.26" stroke-linecap="round" stroke-linejoin="round"/>
<path d="M 15.79 22.0 L 15.67 22.32 L 15.56 22.64 L 15.45 22.96 L 15.35 23.28 L 15.26 23.61 L 15.18 23.93 L 15.1 24.26 L 15.02 24.59 L 14.96 24.93 L 14.9 25.26 L 14.85 25.59 L 14.8 25.93 L 14.76 26.27 L 14.73 26.6 L 14.71 26.94 L 14.69 27.28 L 14.68 27.62 L 14.67 27.95 L 14.68 28.29 L 14.69 28.63 L 14.7 28.97 L 14.73 29.31 L 14.76 29.64 L 14.79 29.98" fill="none" stroke="#111" stroke-width="1.26" stroke-linecap="round" stroke-linejoin="round"/>
</svg>
