<?xml version="1.0" encoding="UTF-8"?>
<svg xmlns="http://www.w3.org/2000/svg" viewBox="0 0 14.16 35.00">
<path d="M 5.0 4.0 L 4.96 4.29 L 4.92 4.58 L 4.88 4.88 L 4.83 5.17 L 4.79 5.46 L 4.75 5.75 L 4.71 6.04 L 4.67 6.33 L 4.62 6.62 L 4.58 6.92 L 4.54 7.21 L 4.5 7.5 L 4.46 7.79 L 4.42 8.08 L 4.38 8.38 L 4.33 8.67 L 4.29 8.96 L 4.25 9.25 L 4.21 9.54 L 4.17 9.83 L 4.12 10.12 L 4.08 10.42 L 4.04 10.71 L 4.0 11.0" fill="none" stroke="#111" stroke-width="1.22" stroke-linecap="round" stroke-linejoin="round"/>
<path d="M 10.0 7.0 L 10.0 7.25 L 10.0 7.5 L 10.0 7.75 L 10.0 8.0 L 10.0 8.25 L 10.0 8.5 L 10.0 8.75 L 10.0 9.0 L 10.0 9.25 L 10.0 9.5 L 10.0 9.75 L 10.0 10.0 L 10.0 10.25 L 10.0 10.5 L 10.0 10.75 L 10.0 11.0 L 10.0 11.25 L 10.0 11.5 L 10.0 11.75 L 10.0 12.0 L 10.0 12.25 L 10.0 12.5 L 10.0 12.75 L 10.0 13.0" fill="none" stroke="#111" stroke-width="1.22" stroke-linecap="round" stroke-linejoin="round"/>
<path d="M 9.0 4.0 L 8.58 4.46 L 8.19 4.95 L 7.83 5.45 L 7.5 5.98 L 7.2 6.53 L 6.93 7.09 L 6.69 7.66 L 6.49 8.25 L 6.32 8.85 L 6.19 9.46 L 6.09 10.08 L 6.03 10.7 L 6.0 11.32 L 6.01 11.94 L 6.05 12.56 L 6.14 13.18 L 6.25 13.79 L 6.4 14.4 L 6.59 14.99 L 6.81 15.57 L 7.07 16.14 L 7.35 16.7 L 7.67 17.23 L 8.02 17.75 L 8.0 18.0 L 7.88 18.33 L 7.75 18.67 L 7.62 19.0 L 7.5 19.33 L 7.38 19.67 L 7.25 20.0 L 7.12 20.33 L 7.0 20.67 L 6.88 21.0 L 6.75 21.33 L 6.63 21.67 L 6.5 22.0 L 6.38 22.33 L 6.25 22.67 L 6.13 23.0 L 6.0 23.33 L 5.88 23.67 L 5.75 24.0 L 5.63 24.33 L 5.5 24.67 L 5.38 25.0 L 5.25 25.33 L 5.13 25.67 L 5.0 26.0" fill="none" stroke="#111" stroke-width="1.22" stroke-linecap="round" stroke-linejoin="round"/>
<path d="M 6.0 13.0 L 5.96 13.29 L 5.92 13.58 L 5.88 13.88 L 5.83 14.17 L 5.79 14.46 L 5.75 14.75 L 5.71 15.04 L 5.67 15.33 L 5.62 15.62 L 5.58 15.92 L 5.54 16.21 L 5.5 16.5 L 5.46 16.79 L 5.42 17.08 L 5.38 17.38 L 5.33 17.67 L 5.29 17.96 L 5.25 18.25 L 5.21 18.54 L 5.17 18.83 L 5.12 19.12 L 5.08 19.42 L 5.04 19.71 L 5.0 20.0" fill="none" stroke="#111" stroke-width="1.22" stroke-linecap="round" stroke-linejoin="round"/>
<path d="M 10.0 20.0 L 10.07 20.35 L 10.13 20.71 L 10.16 21.07 L 10.16 21.43 L 10.15 21.79 L 10.11 22.15 L 10.05 22.5 L 9.96 22.85 L 9.86 23.2 L 9.73 23.54 L 9.58 23.87 L 9.41 24.18 L 9.22 24.49 L 9.02 24.79 L 8.79 25.07 L 8.55 25.33 L 8.29 25.58 L 8.01 25.82 L 7.72 26.03 L 7.42 26.23 L 7.11 26.41 L 6.78 26.56 L 6.45 26.7 L 6.11 26.81" fill="none" stroke="#111" stroke-width="1.22" stroke-linecap="round" stroke-linejoin="round"/>
<path d="M 7.0 21.0 L 7.14 21.41 L 7.28 21.82 L 7.42 22.24 L 7.56 22.65 L 7.7 23.06 L 7.83 23.47 L 7.96 23.89 L 8.1 24.3 L 8.23 24.72 L 8.36 25.13 L 8.48 25.55 L 8.61 25.97 L 8.73 26.38 L 8.86 26.8 L 8.98 27.22 L 9.1 27.64 L 9.21 28.06 L 9.33 28.48 L 9.45 28.89 L 9.56 29.31 L 9.67 29.74 L 9.78 30.16 L 9.89 30.58 L 10.0 31.0" fill="none" stroke="#111" stroke-width="1.22" stroke-linecap="round" stroke-linejoin="round"/>
</svg>
