<?xml version="1.0" encoding="UTF-8"?>
<svg xmlns="http://www.w3.org/2000/svg" viewBox="0 0 26.00 32.43">
<path d="M 7.0 9.31 L 6.71 8.8 L 6.51 8.26 L 6.42 7.68 L 6.43 7.1 L 6.55 6.53 L 6.77 5.99 L 7.08 5.5 L 7.48 5.07 L 7.95 4.72 L 8.47 4.47 L 9.03 4.31 L 9.61 4.26 L 10.19 4.31 L 10.75 4.47 L 11.28 4.72 L 11.75 5.07 L 12.14 5.5 L 12.46 5.99 L 12.68 6.53 L 12.79 7.1 L 12.81 7.68 L 12.71 8.26 L 12.52 8.8 L 12.23 9.31 L 11.0 9.31 L 10.83 9.31 L 10.67 9.31 L 10.5 9.31 L 10.33 9.31 L 10.17 9.31 L 10.0 9.31 L 9.83 9.31 L 9.67 9.31 L 9.5 9.31 L 9.33 9.31 L 9.17 9.31 L 9.0 9.31 L 8.83 9.31 L 8.67 9.31 L 8.5 9.31 L 8.33 9.31 L 8.17 9.31 L 8.0 9.31 L 7.83 9.31 L 7.67 9.31 L 7.5 9.31 L 7.33 9.31 L 7.17 9.31 L 7.0 9.31" fill="none" stroke="#111" stroke-width="1.13" stroke-linecap="round" stroke-linejoin="round"/>
<path d="M 9.0 9.31 L 9.0 9.68 L 9.0 10.06 L 9.0 10.43 L 9.0 10.81 L 9.0 11.18 L 9.0 11.56 L 9.0 11.93 L 9.0 12.31 L 9.0 12.68 L 9.0 13.06 L 9.0 13.43 L 9.0 13.81 L 9.0 14.18 L 9.0 14.56 L 9.0 14.93 L 9.0 15.31 L 9.0 15.68 L 9.0 16.06 L 9.0 16.43 L 9.0 16.81 L 9.0 17.18 L 9.0 17.56 L 9.0 17.93 L 9.0 18.31 L 9.0 18.31 L 8.67 18.56 L 8.36 18.82 L 8.06 19.11 L 7.77 19.4 L 7.5 19.71 L 7.25 20.04 L 7.01 20.38 L 6.79 20.73 L 6.59 21.09 L 6.41 21.46 L 6.25 21.84 L 6.11 22.23 L 5.99 22.62 L 5.89 23.02 L 5.81 23.43 L 5.76 23.84 L 5.72 24.25 L 5.71 24.66 L 5.71 25.07 L 5.74 25.48 L 5.79 25.89 L 5.86 26.3 L 5.96 26.7 L 6.07 27.1" fill="none" stroke="#111" stroke-width="1.13" stroke-linecap="round" stroke-linejoin="round"/>
<path d="M 9.0 18.31 L 9.3 18.52 L 9.59 18.74 L 9.87 18.99 L 10.13 19.25 L 10.37 19.52 L 10.59 19.82 L 10.8 20.12 L 10.98 20.44 L 11.15 20.77 L 11.29 21.11 L 11.42 21.45 L 11.52 21.81 L 11.59 22.17 L 11.65 22.53 L 11.68 22.9 L 11.69 23.26 L 11.68 23.63 L 11.64 24.0 L 11.58 24.36 L 11.49 24.72 L 11.39 25.07 L 11.26 25.42 L 11.11 25.75 L 10.94 26.08" fill="none" stroke="#111" stroke-width="1.13" stroke-linecap="round" stroke-linejoin="round"/>
<path d="M 9.0 11.31 L 8.79 11.47 L 8.58 11.64 L 8.38 11.81 L 8.17 11.97 L 7.96 12.14 L 7.75 12.31 L 7.54 12.47 L 7.33 12.64 L 7.12 12.81 L 6.92 12.97 L 6.71 13.14 L 6.5 13.31 L 6.29 13.47 L 6.08 13.64 L 5.88 13.81 L 5.67 13.97 L 5.46 14.14 L 5.25 14.31 L 5.04 14.47 L 4.83 14.64 L 4.62 14.81 L 4.42 14.97 L 4.21 15.14 L 4.0 15.31" fill="none" stroke="#111" stroke-width="1.13" stroke-linecap="round" stroke-linejoin="round"/>
<path d="M 9.0 11.31 L 9.21 11.39 L 9.42 11.47 L 9.62 11.56 L 9.83 11.64 L 10.04 11.72 L 10.25 11.81 L 10.46 11.89 L 10.67 11.97 L 10.88 12.06 L 11.08 12.14 L 11.29 12.22 L 11.5 12.31 L 11.71 12.39 L 11.92 12.47 L 12.12 12.56 L 12.33 12.64 L 12.54 12.72 L 12.75 12.81 L 12.96 12.89 L 13.17 12.97 L 13.38 13.06 L 13.58 13.14 L 13.79 13.22 L 14.0 13.31" fill="none" stroke="#111" stroke-width="1.13" stroke-linecap="round" stroke-linejoin="round"/>
<path d="M 13.0 9.31 L 13.21 9.63 L 13.39 9.96 L 13.55 10.3 L 13.69 10.66 L 13.8 11.02 L 13.88 11.39 L 13.94 11.77 L 13.96 12.15 L 13.97 12.53 L 13.94 12.91 L 13.89 13.28 L 13.81 13.66 L 13.71 14.02 L 13.57 14.38 L 13.42 14.72 L 13.24 15.06 L 13.03 15.38 L 12.81 15.68 L 12.56 15.97 L 12.29 16.24 L 12.0 16.49 L 11.7 16.72 L 11.38 16.93 L 11.05 17.11" fill="none" stroke="#111" stroke-width="1.13" stroke-linecap="round" stroke-linejoin="round"/>
<path d="M 16.0 8.31 L 15.78 7.86 L 15.64 7.38 L 15.58 6.89 L 15.62 6.39 L 15.74 5.9 L 15.94 5.45 L 16.22 5.03 L 16.57 4.68 L 16.98 4.39 L 17.43 4.17 L 17.91 4.04 L 18.41 4.0 L 18.91 4.04 L 19.39 4.17 L 19.84 4.39 L 20.25 4.68 L 20.6 5.03 L 20.88 5.45 L 21.08 5.9 L 21.2 6.39 L 21.24 6.89 L 21.18 7.38 L 21.04 7.86 L 20.82 8.31 L 20.0 8.31 L 19.83 8.31 L 19.67 8.31 L 19.5 8.31 L 19.33 8.31 L 19.17 8.31 L 19.0 8.31 L 18.83 8.31 L 18.67 8.31 L 18.5 8.31 L 18.33 8.31 L 18.17 8.31 L 18.0 8.31 L 17.83 8.31 L 17.67 8.31 L 17.5 8.31 L 17.33 8.31 L 17.17 8.31 L 17.0 8.31 L 16.83 8.31 L 16.67 8.31 L 16.5 8.31 L 16.33 8.31 L 16.17 8.31 L 16.0 8.31" fill="none" stroke="#111" stroke-width="1.13" stroke-linecap="round" stroke-linejoin="round"/>
<path d="M 18.0 8.31 L 17.97 9.15 L 17.94 9.99 L 17.9 10.84 L 17.85 11.68 L 17.81 12.52 L 17.75 13.36 L 17.7 14.2 L 17.63 15.04 L 17.57 15.88 L 17.49 16.72 L 17.42 17.56 L 17.34 18.4 L 17.25 19.24 L 17.16 20.08 L 17.06 20.92 L 16.96 21.75 L 16.86 22.59 L 16.75 23.42 L 16.63 24.26 L 16.51 25.09 L 16.39 25.93 L 16.26 26.76 L 16.13 27.59 L 15.99 28.43" fill="none" stroke="#111" stroke-width="1.13" stroke-linecap="round" stroke-linejoin="round"/>
<path d="M 18.0 18.31 L 18.22 18.67 L 18.42 19.05 L 18.61 19.43 L 18.79 19.82 L 18.95 20.22 L 19.09 20.62 L 19.22 21.02 L 19.33 21.43 L 19.43 21.85 L 19.51 22.27 L 19.58 22.69 L 19.63 23.11 L 19.67 23.54 L 19.68 23.96 L 19.69 24.39 L 19.67 24.82 L 19.64 25.24 L 19.6 25.67 L 19.53 26.09 L 19.45 26.51 L 19.36 26.92 L 19.25 27.33 L 19.12 27.74 L 18.98 28.14" fill="none" stroke="#111" stroke-width="1.13" stroke-linecap="round" stroke-linejoin="round"/>
<path d="M 18.0 10.31 L 17.83 10.43 L 17.67 10.56 L 17.5 10.68 L 17.33 10.81 L 17.17 10.93 L 17.0 11.06 L 16.83 11.18 L 16.67 11.31 L 16.5 11.43 L 16.33 11.56 L 16.17 11.68 L 16.0 11.81 L 15.83 11.93 L 15.67 12.06 L 15.5 12.18 L 15.33 12.31 L 15.17 12.43 L 15.0 12.56 L 14.83 12.68 L 14.67 12.81 L 14.5 12.93 L 14.33 13.06 L 14.17 13.18 L 14.0 13.31" fill="none" stroke="#111" stroke-width="1.13" stroke-linecap="round" stroke-linejoin="round"/>
<path d="M 18.0 10.31 L 18.17 10.56 L 18.33 10.81 L 18.5 11.06 L 18.67 11.31 L 18.83 11.56 L 19.0 11.81 L 19.17 12.06 L 19.33 12.31 L 19.5 12.56 L 19.67 12.81 L 19.83 13.06 L 20.0 13.31 L 20.17 13.56 L 20.33 13.81 L 20.5 14.06 L 20.67 14.31 L 20.83 14.56 L 21.0 14.81 L 21.17 15.06 L 21.33 15.31 L 21.5 15.56 L 21.67 15.81 L 21.83 16.06 L 22.0 16.31" fill="none" stroke="#111" stroke-width="1.13" stroke-linecap="round" stroke-linejoin="round"/>
</svg>
