<?xml version="1.0" encoding="UTF-8"?>
<svg xmlns="http://www.w3.org/2000/svg" viewBox="0 0 28.39 36.82">
<path d="M 16.0 6.0 L 15.75 6.17 L 15.5 6.33 L 15.25 6.5 L 15.0 6.67 L 14.75 6.83 L 14.5 7.0 L 14.25 7.17 L 14.0 7.33 L 13.75 7.5 L 13.5 7.67 L 13.25 7.83 L 13.0 8.0 L 12.75 8.17 L 12.5 8.33 L 12.25 8.5 L 12.0 8.67 L 11.75 8.83 L 11.5 9.0 L 11.25 9.17 L 11.0 9.33 L 10.75 9.5 L 10.5 9.67 L 10.25 9.83 L 10.0 10.0" fill="none" stroke="#111" stroke-width="1.29" stroke-linecap="round" stroke-linejoin="round"/>
<path d="M 10.0 10.0 L 10.29 9.96 L 10.58 9.92 L 10.88 9.88 L 11.17 9.83 L 11.46 9.79 L 11.75 9.75 L 12.04 9.71 L 12.33 9.67 L 12.62 9.62 L 12.92 9.58 L 13.21 9.54 L 13.5 9.5 L 13.79 9.46 L 14.08 9.42 L 14.38 9.38 L 14.67 9.33 L 14.96 9.29 L 15.25 9.25 L 15.54 9.21 L 15.83 9.17 L 16.12 9.12 L 16.42 9.08 L 16.71 9.04 L 17.0 9.0" fill="none" stroke="#111" stroke-width="1.29" stroke-linecap="round" stroke-linejoin="round"/>
<path d="M 15.0 4.0 L 14.81 4.14 L 14.63 4.29 L 14.46 4.44 L 14.29 4.61 L 14.13 4.78 L 13.99 4.96 L 13.84 5.15 L 13.71 5.34 L 13.59 5.54 L 13.48 5.74 L 13.38 5.95 L 13.29 6.17 L 13.2 6.39 L 13.13 6.61 L 13.07 6.83 L 13.02 7.06 L 12.99 7.29 L 12.96 7.53 L 12.94 7.76 L 12.94 7.99 L 12.94 8.23 L 12.96 8.46 L 12.99 8.69 L 13.03 8.92" fill="none" stroke="#111" stroke-width="1.29" stroke-linecap="round" stroke-linejoin="round"/>
<path d="M 10.0 15.0 L 10.29 15.0 L 10.58 15.0 L 10.88 15.0 L 11.17 15.0 L 11.46 15.0 L 11.75 15.0 L 12.04 15.0 L 12.33 15.0 L 12.62 15.0 L 12.92 15.0 L 13.21 15.0 L 13.5 15.0 L 13.79 15.0 L 14.08 15.0 L 14.38 15.0 L 14.67 15.0 L 14.96 15.0 L 15.25 15.0 L 15.54 15.0 L 15.83 15.0 L 16.12 15.0 L 16.42 15.0 L 16.71 15.0 L 17.0 15.0" fill="none" stroke="#111" stroke-width="1.29" stroke-linecap="round" stroke-linejoin="round"/>
<path d="M 14.0 13.0 L 14.27 13.4 L 14.51 13.82 L 14.72 14.26 L 14.89 14.71 L 15.03 15.17 L 15.13 15.65 L 15.19 16.13 L 15.22 16.61 L 15.21 17.09 L 15.16 17.57 L 15.07 18.05 L 14.95 18.52 L 14.8 18.97 L 14.6 19.42 L 14.38 19.85 L 14.12 20.25 L 13.83 20.64 L 13.52 21.01 L 13.17 21.35 L 12.8 21.66 L 12.41 21.94 L 12.0 22.19 L 11.57 22.41 L 11.12 22.6" fill="none" stroke="#111" stroke-width="1.29" stroke-linecap="round" stroke-linejoin="round"/>
<path d="M 14.0 17.0 L 13.88 17.12 L 13.75 17.25 L 13.62 17.38 L 13.5 17.5 L 13.38 17.62 L 13.25 17.75 L 13.12 17.88 L 13.0 18.0 L 12.88 18.12 L 12.75 18.25 L 12.62 18.38 L 12.5 18.5 L 12.38 18.62 L 12.25 18.75 L 12.12 18.88 L 12.0 19.0 L 11.88 19.12 L 11.75 19.25 L 11.62 19.38 L 11.5 19.5 L 11.38 19.62 L 11.25 19.75 L 11.12 19.88 L 11.0 20.0" fill="none" stroke="#111" stroke-width="1.29" stroke-linecap="round" stroke-linejoin="round"/>
<path d="M 10.0 25.0 L 10.25 24.96 L 10.5 24.92 L 10.75 24.88 L 11.0 24.83 L 11.25 24.79 L 11.5 24.75 L 11.75 24.71 L 12.0 24.67 L 12.25 24.62 L 12.5 24.58 L 12.75 24.54 L 13.0 24.5 L 13.25 24.46 L 13.5 24.42 L 13.75 24.38 L 14.0 24.33 L 14.25 24.29 L 14.5 24.25 L 14.75 24.21 L 15.0 24.17 L 15.25 24.12 L 15.5 24.08 L 15.75 24.04 L 16.0 24.0 L 16.0 24.0 L 16.0 24.12 L 16.0 24.25 L 16.0 24.38 L 16.0 24.5 L 16.0 24.62 L 16.0 24.75 L 16.0 24.88 L 16.0 25.0 L 16.0 25.12 L 16.0 25.25 L 16.0 25.38 L 16.0 25.5 L 16.0 25.62 L 16.0 25.75 L 16.0 25.88 L 16.0 26.0 L 16.0 26.12 L 16.0 26.25 L 16.0 26.38 L 16.0 26.5 L 16.0 26.62 L 16.0 26.75 L 16.0 26.88 L 16.0 27.0" fill="none" stroke="#111" stroke-width="1.29" stroke-linecap="round" stroke-linejoin="round"/>
<path d="M 10.0 28.0 L 10.25 27.96 L 10.5 27.92 L 10.75 27.88 L 11.0 27.83 L 11.25 27.79 L 11.5 27.75 L 11.75 27.71 L 12.0 27.67 L 12.25 27.62 L 12.5 27.58 L 12.75 27.54 L 13.0 27.5 L 13.25 27.46 L 13.5 27.42 L 13.75 27.38 L 14.0 27.33 L 14.25 27.29 L 14.5 27.25 L 14.75 27.21 L 15.0 27.17 L 15.25 27.12 L 15.5 27.08 L 15.75 27.04 L 16.0 27.0" fill="none" stroke="#111" stroke-width="1.29" stroke-linecap="round" stroke-linejoin="round"/>
<path d="M 13.0 25.0 L 13.11 25.39 L 13.19 25.78 L 13.24 26.18 L 13.28 26.58 L 13.28 26.98 L 13.26 27.39 L 13.22 27.79 L 13.14 28.18 L 13.05 28.57 L 12.93 28.96 L 12.78 29.33 L 12.61 29.7 L 12.42 30.05 L 12.21 30.39 L 11.98 30.72 L 11.72 31.03 L 11.45 31.32 L 11.15 31.6 L 10.84 31.86 L 10.52 32.09 L 10.18 32.31 L 9.83 32.5 L 9.46 32.67 L 9.09 32.82" fill="none" stroke="#111" stroke-width="1.29" stroke-linecap="round" stroke-linejoin="round"/>
<path d="M 7.0 6.0 L 7.29 6.44 L 7.56 6.9 L 7.78 7.38 L 7.97 7.88 L 8.12 8.38 L 8.24 8.9 L 8.31 9.43 L 8.35 9.96 L 8.35 10.49 L 8.31 11.01 L 8.22 11.54 L 8.1 12.05 L 7.95 12.56 L 7.75 13.05 L 7.52 13.53 L 7.25 13.99 L 6.95 14.43 L 6.62 14.84 L 6.26 15.23 L 5.87 15.59 L 5.45 15.92 L 5.02 16.22 L 4.56 16.48 L 4.08 16.71" fill="none" stroke="#111" stroke-width="1.29" stroke-linecap="round" stroke-linejoin="round"/>
<path d="M 10.0 16.0 L 9.75 16.29 L 9.5 16.58 L 9.25 16.88 L 9.0 17.17 L 8.75 17.46 L 8.5 17.75 L 8.25 18.04 L 8.0 18.33 L 7.75 18.62 L 7.5 18.92 L 7.25 19.21 L 7.0 19.5 L 6.75 19.79 L 6.5 20.08 L 6.25 20.38 L 6.0 20.67 L 5.75 20.96 L 5.5 21.25 L 5.25 21.54 L 5.0 21.83 L 4.75 22.12 L 4.5 22.42 L 4.25 22.71 L 4.0 23.0" fill="none" stroke="#111" stroke-width="1.29" stroke-linecap="round" stroke-linejoin="round"/>
<path d="M 8.0 18.0 L 8.0 18.29 L 8.0 18.58 L 8.0 18.88 L 8.0 19.17 L 8.0 19.46 L 8.0 19.75 L 8.0 20.04 L 8.0 20.33 L 8.0 20.62 L 8.0 20.92 L 8.0 21.21 L 8.0 21.5 L 8.0 21.79 L 8.0 22.08 L 8.0 22.38 L 8.0 22.67 L 8.0 22.96 L 8.0 23.25 L 8.0 23.54 L 8.0 23.83 L 8.0 24.12 L 8.0 24.42 L 8.0 24.71 L 8.0 25.0" fill="none" stroke="#111" stroke-width="1.29" stroke-linecap="round" stroke-linejoin="round"/>
<path d="M 18.0 6.0 L 17.74 6.4 L 17.51 6.82 L 17.32 7.26 L 17.17 7.71 L 17.06 8.18 L 16.99 8.65 L 16.96 9.13 L 16.98 9.61 L 17.03 10.08 L 17.13 10.55 L 17.26 11.01 L 17.44 11.45 L 17.65 11.88 L 17.9 12.29 L 18.18 12.67 L 18.5 13.03 L 18.85 13.36 L 19.22 13.66 L 19.62 13.92 L 20.03 14.15 L 20.47 14.35 L 20.92 14.5 L 21.39 14.61 L 21.86 14.69" fill="none" stroke="#111" stroke-width="1.29" stroke-linecap="round" stroke-linejoin="round"/>
<path d="M 18.0 27.0 L 17.45 26.53 L 16.97 25.99 L 16.56 25.39 L 16.22 24.75 L 15.97 24.07 L 15.81 23.36 L 15.73 22.64 L 15.75 21.92 L 15.85 21.2 L 16.05 20.5 L 16.33 19.83 L 16.7 19.21 L 17.14 18.63 L 17.64 18.11 L 18.21 17.67 L 18.83 17.29 L 19.49 17.0 L 20.19 16.79 L 20.9 16.67 L 21.63 16.64 L 22.35 16.7 L 23.06 16.85 L 23.74 17.09 L 24.39 17.41" fill="none" stroke="#111" stroke-width="1.29" stroke-linecap="round" stroke-linejoin="round"/>
</svg>
