<?xml version="1.0" encoding="UTF-8"?>
<svg xmlns="http://www.w3.org/2000/svg" viewBox="0 0 25.00 38.00">
<path d="M 11.0 9.0 L 11.0 9.62 L 11.0 10.25 L 11.0 10.88 L 11.0 11.5 L 11.0 12.12 L 11.0 12.75 L 11.0 13.38 L 11.0 14.0 L 11.0 14.62 L 11.0 15.25 L 11.0 15.88 L 11.0 16.5 L 11.0 17.12 L 11.0 17.75 L 11.0 18.38 L 11.0 19.0 L 11.0 19.62 L 11.0 20.25 L 11.0 20.88 L 11.0 21.5 L 11.0 22.12 L 11.0 22.75 L 11.0 23.38 L 11.0 24.0 L 11.0 24.0 L 10.69 23.97 L 10.38 23.96 L 10.07 23.98 L 9.76 24.03 L 9.46 24.11 L 9.16 24.21 L 8.88 24.33 L 8.61 24.49 L 8.35 24.66 L 8.11 24.85 L 7.88 25.07 L 7.68 25.3 L 7.49 25.56 L 7.33 25.82 L 7.2 26.1 L 7.08 26.39 L 7.0 26.69 L 6.94 27.0 L 6.9 27.3 L 6.89 27.62 L 6.91 27.93 L 6.96 28.23 L 7.04 28.54 L 7.13 28.83 L 7.0 29.0 L 7.25 28.88 L 7.5 28.75 L 7.75 28.62 L 8.0 28.5 L 8.25 28.38 L 8.5 28.25 L 8.75 28.12 L 9.0 28.0 L 9.25 27.88 L 9.5 27.75 L 9.75 27.62 L 10.0 27.5 L 10.25 27.38 L 10.5 27.25 L 10.75 27.12 L 11.0 27.0 L 11.25 26.88 L 11.5 26.75 L 11.75 26.62 L 12.0 26.5 L 12.25 26.38 L 12.5 26.25 L 12.75 26.12 L 13.0 26.0 L 13.0 26.0 L 12.92 26.33 L 12.83 26.67 L 12.75 27.0 L 12.67 27.33 L 12.58 27.67 L 12.5 28.0 L 12.42 28.33 L 12.33 28.67 L 12.25 29.0 L 12.17 29.33 L 12.08 29.67 L 12.0 30.0 L 11.92 30.33 L 11.83 30.67 L 11.75 31.0 L 11.67 31.33 L 11.58 31.67 L 11.5 32.0 L 11.42 32.33 L 11.33 32.67 L 11.25 33.0 L 11.17 33.33 L 11.08 33.67 L 11.0 34.0" fill="none" stroke="#111" stroke-width="1.33" stroke-linecap="round" stroke-linejoin="round"/>
<path d="M 17.0 4.0 L 16.31 4.3 L 15.66 4.69 L 15.06 5.14 L 14.51 5.65 L 14.03 6.23 L 13.61 6.86 L 13.27 7.53 L 13.01 8.23 L 12.82 8.96 L 12.73 9.71 L 12.71 10.46 L 12.78 11.21 L 12.94 11.94 L 13.18 12.66 L 13.5 13.34 L 13.89 13.98 L 14.36 14.57 L 14.88 15.11 L 15.47 15.58 L 16.1 15.99 L 16.78 16.31 L 17.49 16.56 L 18.22 16.73 L 18.97 16.82" fill="none" stroke="#111" stroke-width="1.33" stroke-linecap="round" stroke-linejoin="round"/>
<path d="M 17.0 4.0 L 17.0 4.12 L 17.0 4.25 L 17.0 4.38 L 17.0 4.5 L 17.0 4.62 L 17.0 4.75 L 17.0 4.88 L 17.0 5.0 L 17.0 5.12 L 17.0 5.25 L 17.0 5.38 L 17.0 5.5 L 17.0 5.62 L 17.0 5.75 L 17.0 5.88 L 17.0 6.0 L 17.0 6.12 L 17.0 6.25 L 17.0 6.38 L 17.0 6.5 L 17.0 6.62 L 17.0 6.75 L 17.0 6.88 L 17.0 7.0 L 17.0 7.0 L 16.92 7.26 L 16.88 7.52 L 16.86 7.79 L 16.86 8.05 L 16.9 8.32 L 16.96 8.58 L 17.05 8.83 L 17.17 9.07 L 17.31 9.29 L 17.48 9.51 L 17.66 9.7 L 17.87 9.87 L 18.09 10.02 L 18.33 10.14 L 18.57 10.24 L 18.83 10.31 L 19.09 10.36 L 19.36 10.37 L 19.63 10.36 L 19.89 10.32 L 20.15 10.26 L 20.4 10.16 L 20.64 10.04 L 20.86 9.9" fill="none" stroke="#111" stroke-width="1.33" stroke-linecap="round" stroke-linejoin="round"/>
<path d="M 19.0 17.0 L 18.72 16.82 L 18.45 16.61 L 18.2 16.39 L 17.97 16.14 L 17.75 15.89 L 17.56 15.61 L 17.38 15.33 L 17.23 15.03 L 17.1 14.72 L 16.99 14.4 L 16.91 14.07 L 16.85 13.74 L 16.81 13.41 L 16.8 13.07 L 16.82 12.74 L 16.86 12.4 L 16.92 12.07 L 17.01 11.75 L 17.12 11.43 L 17.25 11.12 L 17.41 10.83 L 17.59 10.54 L 17.78 10.27 L 18.0 10.01 L 18.0 10.0 L 18.12 10.0 L 18.25 10.0 L 18.38 10.0 L 18.5 10.0 L 18.62 10.0 L 18.75 10.0 L 18.88 10.0 L 19.0 10.0 L 19.12 10.0 L 19.25 10.0 L 19.38 10.0 L 19.5 10.0 L 19.62 10.0 L 19.75 10.0 L 19.88 10.0 L 20.0 10.0 L 20.12 10.0 L 20.25 10.0 L 20.38 10.0 L 20.5 10.0 L 20.62 10.0 L 20.75 10.0 L 20.88 10.0 L 21.0 10.0" fill="none" stroke="#111" stroke-width="1.33" stroke-linecap="round" stroke-linejoin="round"/>
<path d="M 8.0 9.0 L 8.21 9.0 L 8.42 9.0 L 8.62 9.0 L 8.83 9.0 L 9.04 9.0 L 9.25 9.0 L 9.46 9.0 L 9.67 9.0 L 9.88 9.0 L 10.08 9.0 L 10.29 9.0 L 10.5 9.0 L 10.71 9.0 L 10.92 9.0 L 11.12 9.0 L 11.33 9.0 L 11.54 9.0 L 11.75 9.0 L 11.96 9.0 L 12.17 9.0 L 12.38 9.0 L 12.58 9.0 L 12.79 9.0 L 13.0 9.0" fill="none" stroke="#111" stroke-width="1.33" stroke-linecap="round" stroke-linejoin="round"/>
<path d="M 8.0 12.0 L 8.21 12.0 L 8.42 12.0 L 8.62 12.0 L 8.83 12.0 L 9.04 12.0 L 9.25 12.0 L 9.46 12.0 L 9.67 12.0 L 9.88 12.0 L 10.08 12.0 L 10.29 12.0 L 10.5 12.0 L 10.71 12.0 L 10.92 12.0 L 11.12 12.0 L 11.33 12.0 L 11.54 12.0 L 11.75 12.0 L 11.96 12.0 L 12.17 12.0 L 12.38 12.0 L 12.58 12.0 L 12.79 12.0 L 13.0 12.0" fill="none" stroke="#111" stroke-width="1.33" stroke-linecap="round" stroke-linejoin="round"/>
<path d="M 7.0 7.0 L 6.68 7.21 L 6.39 7.45 L 6.11 7.71 L 5.86 8.0 L 5.63 8.3 L 5.43 8.63 L 5.26 8.97 L 5.11 9.32 L 5.0 9.69 L 4.92 10.06 L 4.87 10.44 L 4.86 10.82 L 4.87 11.2 L 4.92 11.58 L 5.0 11.95 L 5.11 12.31 L 5.26 12.67 L 5.43 13.01 L 5.63 13.33 L 5.86 13.64 L 6.11 13.92 L 6.39 14.19 L 6.68 14.42 L 7.0 14.64" fill="none" stroke="#111" stroke-width="1.33" stroke-linecap="round" stroke-linejoin="round"/>
<path d="M 8.0 10.0 L 7.83 10.17 L 7.67 10.33 L 7.5 10.5 L 7.33 10.67 L 7.17 10.83 L 7.0 11.0 L 6.83 11.17 L 6.67 11.33 L 6.5 11.5 L 6.33 11.67 L 6.17 11.83 L 6.0 12.0 L 5.83 12.17 L 5.67 12.33 L 5.5 12.5 L 5.33 12.67 L 5.17 12.83 L 5.0 13.0 L 4.83 13.17 L 4.67 13.33 L 4.5 13.5 L 4.33 13.67 L 4.17 13.83 L 4.0 14.0 L 4.0 14.0 L 4.06 14.42 L 4.15 14.83 L 4.28 15.23 L 4.45 15.62 L 4.66 15.99 L 4.9 16.34 L 5.17 16.67 L 5.47 16.96 L 5.79 17.23 L 6.15 17.47 L 6.52 17.67 L 6.91 17.84 L 7.31 17.97 L 7.72 18.06 L 8.14 18.11 L 8.57 18.13 L 8.99 18.1 L 9.41 18.03 L 9.82 17.93 L 10.21 17.78 L 10.6 17.6 L 10.96 17.39 L 11.3 17.14 L 11.62 16.86" fill="none" stroke="#111" stroke-width="1.33" stroke-linecap="round" stroke-linejoin="round"/>
<path d="M 4.0 7.0 L 4.0 7.12 L 4.0 7.25 L 4.0 7.38 L 4.0 7.5 L 4.0 7.62 L 4.0 7.75 L 4.0 7.88 L 4.0 8.0 L 4.0 8.12 L 4.0 8.25 L 4.0 8.38 L 4.0 8.5 L 4.0 8.62 L 4.0 8.75 L 4.0 8.88 L 4.0 9.0 L 4.0 9.12 L 4.0 9.25 L 4.0 9.38 L 4.0 9.5 L 4.0 9.62 L 4.0 9.75 L 4.0 9.88 L 4.0 10.0" fill="none" stroke="#111" stroke-width="1.33" stroke-linecap="round" stroke-linejoin="round"/>
<path d="M 9.0 5.0 L 9.0 5.12 L 9.0 5.25 L 9.0 5.38 L 9.0 5.5 L 9.0 5.62 L 9.0 5.75 L 9.0 5.88 L 9.0 6.0 L 9.0 6.12 L 9.0 6.25 L 9.0 6.38 L 9.0 6.5 L 9.0 6.62 L 9.0 6.75 L 9.0 6.88 L 9.0 7.0 L 9.0 7.12 L 9.0 7.25 L 9.0 7.38 L 9.0 7.5 L 9.0 7.62 L 9.0 7.75 L 9.0 7.88 L 9.0 8.0" fill="none" stroke="#111" stroke-width="1.33" stroke-linecap="round" stroke-linejoin="round"/>
</svg>
