<?xml version="1.0" encoding="UTF-8"?>
<svg xmlns="http://www.w3.org/2000/svg" viewBox="0 0 20.96 34.00">
<path d="M 10.96 13.0 L 10.79 13.25 L 10.63 13.5 L 10.46 13.75 L 10.29 14.0 L 10.13 14.25 L 9.96 14.5 L 9.79 14.75 L 9.63 15.0 L 9.46 15.25 L 9.29 15.5 L 9.13 15.75 L 8.96 16.0 L 8.79 16.25 L 8.63 16.5 L 8.46 16.75 L 8.29 17.0 L 8.13 17.25 L 7.96 17.5 L 7.79 17.75 L 7.63 18.0 L 7.46 18.25 L 7.29 18.5 L 7.13 18.75 L 6.96 19.0" fill="none" stroke="#111" stroke-width="1.19" stroke-linecap="round" stroke-linejoin="round"/>
<path d="M 10.96 13.0 L 11.21 13.25 L 11.46 13.5 L 11.71 13.75 L 11.96 14.0 L 12.21 14.25 L 12.46 14.5 L 12.71 14.75 L 12.96 15.0 L 13.21 15.25 L 13.46 15.5 L 13.71 15.75 L 13.96 16.0 L 14.21 16.25 L 14.46 16.5 L 14.71 16.75 L 14.96 17.0 L 15.21 17.25 L 15.46 17.5 L 15.71 17.75 L 15.96 18.0 L 16.21 18.25 L 16.46 18.5 L 16.71 18.75 L 16.96 19.0" fill="none" stroke="#111" stroke-width="1.19" stroke-linecap="round" stroke-linejoin="round"/>
<path d="M 10.96 13.0 L 10.96 13.42 L 10.96 13.83 L 10.96 14.25 L 10.96 14.67 L 10.96 15.08 L 10.96 15.5 L 10.96 15.92 L 10.96 16.33 L 10.96 16.75 L 10.96 17.17 L 10.96 17.58 L 10.96 18.0 L 10.96 18.42 L 10.96 18.83 L 10.96 19.25 L 10.96 19.67 L 10.96 20.08 L 10.96 20.5 L 10.96 20.92 L 10.96 21.33 L 10.96 21.75 L 10.96 22.17 L 10.96 22.58 L 10.96 23.0 L 10.96 23.0 L 11.31 23.11 L 11.64 23.25 L 11.96 23.43 L 12.26 23.63 L 12.53 23.87 L 12.79 24.13 L 13.02 24.41 L 13.21 24.71 L 13.38 25.03 L 13.52 25.37 L 13.62 25.72 L 13.69 26.07 L 13.73 26.44 L 13.72 26.8 L 13.69 27.16 L 13.62 27.52 L 13.51 27.86 L 13.37 28.2 L 13.2 28.52 L 13.0 28.82 L 12.77 29.1 L 12.51 29.36 L 12.23 29.59 L 11.93 29.79 L 11.96 30.0 L 11.83 29.92 L 11.71 29.83 L 11.58 29.75 L 11.46 29.67 L 11.33 29.58 L 11.21 29.5 L 11.08 29.42 L 10.96 29.33 L 10.83 29.25 L 10.71 29.17 L 10.58 29.08 L 10.46 29.0 L 10.33 28.92 L 10.21 28.83 L 10.08 28.75 L 9.96 28.67 L 9.83 28.58 L 9.71 28.5 L 9.58 28.42 L 9.46 28.33 L 9.33 28.25 L 9.21 28.17 L 9.08 28.08 L 8.96 28.0" fill="none" stroke="#111" stroke-width="1.19" stroke-linecap="round" stroke-linejoin="round"/>
<path d="M 8.96 8.0 L 8.65 8.28 L 8.34 8.57 L 8.05 8.87 L 7.77 9.19 L 7.5 9.51 L 7.24 9.84 L 7.0 10.19 L 6.77 10.54 L 6.55 10.9 L 6.34 11.26 L 6.15 11.64 L 5.97 12.02 L 5.81 12.41 L 5.66 12.8 L 5.52 13.2 L 5.4 13.6 L 5.3 14.01 L 5.21 14.42 L 5.13 14.83 L 5.07 15.25 L 5.03 15.67 L 5.0 16.09 L 4.99 16.51 L 4.99 16.93" fill="none" stroke="#111" stroke-width="1.19" stroke-linecap="round" stroke-linejoin="round"/>
<path d="M 4.96 4.0 L 4.73 4.46 L 4.53 4.93 L 4.37 5.41 L 4.23 5.9 L 4.12 6.4 L 4.05 6.9 L 4.01 7.41 L 4.0 7.92 L 4.02 8.43 L 4.08 8.94 L 4.16 9.44 L 4.28 9.94 L 4.43 10.42 L 4.61 10.9 L 4.82 11.37 L 5.06 11.82 L 5.33 12.25 L 5.62 12.67 L 5.94 13.07 L 6.29 13.44 L 6.65 13.8 L 7.04 14.13 L 7.45 14.43 L 7.88 14.71" fill="none" stroke="#111" stroke-width="1.19" stroke-linecap="round" stroke-linejoin="round"/>
</svg>
