<?xml version="1.0" encoding="UTF-8"?>
<svg xmlns="http://www.w3.org/2000/svg" viewBox="0 0 20.49 36.00">
<path d="M 12.0 4.0 L 11.96 4.71 L 11.92 5.42 L 11.89 6.13 L 11.87 6.84 L 11.86 7.55 L 11.85 8.26 L 11.85 8.97 L 11.86 9.68 L 11.88 10.39 L 11.9 11.11 L 11.93 11.82 L 11.97 12.53 L 12.02 13.24 L 12.07 13.94 L 12.13 14.65 L 12.2 15.36 L 12.27 16.07 L 12.35 16.77 L 12.44 17.48 L 12.54 18.18 L 12.64 18.89 L 12.76 19.59 L 12.87 20.29 L 13.0 20.99 L 13.0 21.0 L 12.62 21.04 L 12.25 21.08 L 11.88 21.12 L 11.5 21.17 L 11.12 21.21 L 10.75 21.25 L 10.38 21.29 L 10.0 21.33 L 9.62 21.38 L 9.25 21.42 L 8.88 21.46 L 8.5 21.5 L 8.12 21.54 L 7.75 21.58 L 7.38 21.62 L 7.0 21.67 L 6.62 21.71 L 6.25 21.75 L 5.87 21.79 L 5.5 21.83 L 5.12 21.88 L 4.75 21.92 L 4.37 21.96 L 4.0 22.0 L 4.0 22.0 L 4.25 22.46 L 4.54 22.9 L 4.85 23.32 L 5.18 23.72 L 5.54 24.1 L 5.92 24.46 L 6.32 24.79 L 6.75 25.1 L 7.19 25.38 L 7.65 25.64 L 8.12 25.86 L 8.61 26.05 L 9.1 26.22 L 9.61 26.35 L 10.12 26.45 L 10.64 26.52 L 11.16 26.55 L 11.69 26.56 L 12.21 26.53 L 12.73 26.47 L 13.24 26.37 L 13.75 26.25 L 14.25 26.09 L 14.74 25.91 L 15.0 26.0 L 14.83 26.25 L 14.67 26.5 L 14.5 26.75 L 14.33 27.0 L 14.17 27.25 L 14.0 27.5 L 13.83 27.75 L 13.67 28.0 L 13.5 28.25 L 13.33 28.5 L 13.17 28.75 L 13.0 29.0 L 12.83 29.25 L 12.67 29.5 L 12.5 29.75 L 12.33 30.0 L 12.17 30.25 L 12.0 30.5 L 11.83 30.75 L 11.67 31.0 L 11.5 31.25 L 11.33 31.5 L 11.17 31.75 L 11.0 32.0" fill="none" stroke="#111" stroke-width="1.26" stroke-linecap="round" stroke-linejoin="round"/>
<path d="M 7.0 10.0 L 7.38 9.92 L 7.75 9.83 L 8.12 9.75 L 8.5 9.67 L 8.88 9.58 L 9.25 9.5 L 9.62 9.42 L 10.0 9.33 L 10.38 9.25 L 10.75 9.17 L 11.12 9.08 L 11.5 9.0 L 11.88 8.92 L 12.25 8.83 L 12.62 8.75 L 13.0 8.67 L 13.38 8.58 L 13.75 8.5 L 14.12 8.42 L 14.5 8.33 L 14.88 8.25 L 15.25 8.17 L 15.62 8.08 L 16.0 8.0" fill="none" stroke="#111" stroke-width="1.26" stroke-linecap="round" stroke-linejoin="round"/>
<path d="M 16.0 8.0 L 16.24 8.66 L 16.4 9.34 L 16.49 10.04 L 16.49 10.75 L 16.41 11.44 L 16.25 12.13 L 16.01 12.79 L 15.7 13.42 L 15.31 14.01 L 14.86 14.55 L 14.36 15.04 L 13.79 15.46 L 13.19 15.81 L 12.54 16.1 L 11.87 16.3 L 11.18 16.43 L 10.48 16.48 L 9.78 16.44 L 9.08 16.33 L 8.41 16.13 L 7.76 15.86 L 7.15 15.52 L 6.58 15.1 L 6.06 14.63" fill="none" stroke="#111" stroke-width="1.26" stroke-linecap="round" stroke-linejoin="round"/>
<path d="M 7.0 10.0 L 7.3 10.38 L 7.58 10.79 L 7.82 11.21 L 8.03 11.65 L 8.2 12.11 L 8.34 12.58 L 8.45 13.06 L 8.52 13.54 L 8.55 14.03 L 8.55 14.52 L 8.5 15.0 L 8.43 15.48 L 8.31 15.96 L 8.16 16.42 L 7.98 16.88 L 7.76 17.31 L 7.51 17.73 L 7.23 18.13 L 6.92 18.51 L 6.59 18.87 L 6.22 19.19 L 5.84 19.49 L 5.43 19.76 L 5.0 20.0" fill="none" stroke="#111" stroke-width="1.26" stroke-linecap="round" stroke-linejoin="round"/>
</svg>
