<?xml version="1.0" encoding="UTF-8"?>
<svg xmlns="http://www.w3.org/2000/svg" viewBox="0 0 26.00 47.97">
<path d="M 10.0 6.0 L 10.0 6.71 L 10.0 7.42 L 10.0 8.12 L 10.0 8.83 L 10.0 9.54 L 10.0 10.25 L 10.0 10.96 L 10.0 11.67 L 10.0 12.38 L 10.0 13.08 L 10.0 13.79 L 10.0 14.5 L 10.0 15.21 L 10.0 15.92 L 10.0 16.62 L 10.0 17.33 L 10.0 18.04 L 10.0 18.75 L 10.0 19.46 L 10.0 20.17 L 10.0 20.88 L 10.0 21.58 L 10.0 22.29 L 10.0 23.0" fill="none" stroke="#111" stroke-width="1.68" stroke-linecap="round" stroke-linejoin="round"/>
<path d="M 4.0 23.0 L 4.42 23.0 L 4.83 23.0 L 5.25 23.0 L 5.67 23.0 L 6.08 23.0 L 6.5 23.0 L 6.92 23.0 L 7.33 23.0 L 7.75 23.0 L 8.17 23.0 L 8.58 23.0 L 9.0 23.0 L 9.42 23.0 L 9.83 23.0 L 10.25 23.0 L 10.67 23.0 L 11.08 23.0 L 11.5 23.0 L 11.92 23.0 L 12.33 23.0 L 12.75 23.0 L 13.17 23.0 L 13.58 23.0 L 14.0 23.0" fill="none" stroke="#111" stroke-width="1.68" stroke-linecap="round" stroke-linejoin="round"/>
<path d="M 5.0 8.0 L 5.21 8.21 L 5.42 8.42 L 5.62 8.62 L 5.83 8.83 L 6.04 9.04 L 6.25 9.25 L 6.46 9.46 L 6.67 9.67 L 6.88 9.88 L 7.08 10.08 L 7.29 10.29 L 7.5 10.5 L 7.71 10.71 L 7.92 10.92 L 8.12 11.12 L 8.33 11.33 L 8.54 11.54 L 8.75 11.75 L 8.96 11.96 L 9.17 12.17 L 9.38 12.38 L 9.58 12.58 L 9.79 12.79 L 10.0 13.0" fill="none" stroke="#111" stroke-width="1.68" stroke-linecap="round" stroke-linejoin="round"/>
<path d="M 13.0 9.0 L 12.88 9.17 L 12.75 9.33 L 12.62 9.5 L 12.5 9.67 L 12.38 9.83 L 12.25 10.0 L 12.12 10.17 L 12.0 10.33 L 11.88 10.5 L 11.75 10.67 L 11.62 10.83 L 11.5 11.0 L 11.38 11.17 L 11.25 11.33 L 11.12 11.5 L 11.0 11.67 L 10.88 11.83 L 10.75 12.0 L 10.62 12.17 L 10.5 12.33 L 10.38 12.5 L 10.25 12.67 L 10.12 12.83 L 10.0 13.0" fill="none" stroke="#111" stroke-width="1.68" stroke-linecap="round" stroke-linejoin="round"/>
<path d="M 17.0 4.0 L 17.05 4.77 L 17.1 5.54 L 17.17 6.31 L 17.25 7.07 L 17.33 7.84 L 17.43 8.6 L 17.54 9.37 L 17.66 10.13 L 17.79 10.89 L 17.93 11.65 L 18.08 12.4 L 18.25 13.16 L 18.42 13.91 L 18.6 14.66 L 18.79 15.4 L 19.0 16.15 L 19.21 16.89 L 19.44 17.62 L 19.67 18.36 L 19.92 19.09 L 20.17 19.82 L 20.44 20.54 L 20.71 21.26 L 21.0 21.98 L 21.0 22.0 L 20.1 22.58 L 19.26 23.24 L 18.46 23.96 L 17.73 24.73 L 17.06 25.57 L 16.45 26.45 L 15.92 27.38 L 15.46 28.34 L 15.08 29.34 L 14.78 30.37 L 14.56 31.41 L 14.42 32.48 L 14.36 33.54 L 14.39 34.61 L 14.5 35.68 L 14.7 36.73 L 14.98 37.76 L 15.33 38.77 L 15.77 39.75 L 16.28 40.69 L 16.86 41.59 L 17.51 42.43 L 18.23 43.23 L 19.0 43.97" fill="none" stroke="#111" stroke-width="1.68" stroke-linecap="round" stroke-linejoin="round"/>
<path d="M 15.0 12.0 L 15.25 11.88 L 15.5 11.75 L 15.75 11.62 L 16.0 11.5 L 16.25 11.38 L 16.5 11.25 L 16.75 11.12 L 17.0 11.0 L 17.25 10.88 L 17.5 10.75 L 17.75 10.62 L 18.0 10.5 L 18.25 10.38 L 18.5 10.25 L 18.75 10.12 L 19.0 10.0 L 19.25 9.88 L 19.5 9.75 L 19.75 9.62 L 20.0 9.5 L 20.25 9.38 L 20.5 9.25 L 20.75 9.12 L 21.0 9.0" fill="none" stroke="#111" stroke-width="1.68" stroke-linecap="round" stroke-linejoin="round"/>
<path d="M 21.0 9.0 L 21.04 9.12 L 21.08 9.25 L 21.12 9.38 L 21.17 9.5 L 21.21 9.62 L 21.25 9.75 L 21.29 9.88 L 21.33 10.0 L 21.38 10.12 L 21.42 10.25 L 21.46 10.38 L 21.5 10.5 L 21.54 10.62 L 21.58 10.75 L 21.62 10.88 L 21.67 11.0 L 21.71 11.12 L 21.75 11.25 L 21.79 11.38 L 21.83 11.5 L 21.88 11.62 L 21.92 11.75 L 21.96 11.88 L 22.0 12.0 L 22.0 12.0 L 21.46 12.1 L 20.92 12.22 L 20.39 12.37 L 19.88 12.56 L 19.37 12.76 L 18.87 13.0 L 18.38 13.26 L 17.91 13.55 L 17.46 13.86 L 17.02 14.19 L 16.61 14.55 L 16.21 14.93 L 15.83 15.32 L 15.47 15.74 L 15.14 16.18 L 14.83 16.63 L 14.54 17.1 L 14.28 17.59 L 14.04 18.08 L 13.84 18.59 L 13.66 19.11 L 13.5 19.64 L 13.38 20.18 L 13.28 20.72" fill="none" stroke="#111" stroke-width="1.68" stroke-linecap="round" stroke-linejoin="round"/>
<path d="M 15.0 12.0 L 15.14 12.4 L 15.27 12.8 L 15.39 13.2 L 15.5 13.61 L 15.61 14.02 L 15.71 14.43 L 15.79 14.84 L 15.87 15.26 L 15.95 15.67 L 16.01 16.09 L 16.06 16.51 L 16.11 16.93 L 16.15 17.35 L 16.18 17.77 L 16.2 18.19 L 16.21 18.61 L 16.21 19.03 L 16.21 19.45 L 16.19 19.87 L 16.17 20.3 L 16.14 20.72 L 16.1 21.14 L 16.05 21.55 L 16.0 21.97" fill="none" stroke="#111" stroke-width="1.68" stroke-linecap="round" stroke-linejoin="round"/>
</svg>
