<?xml version="1.0" encoding="UTF-8"?>
<svg xmlns="http://www.w3.org/2000/svg" viewBox="0 0 24.00 27.00">
<path d="M 6.0 4.0 L 6.5 4.0 L 7.0 4.0 L 7.5 4.0 L 8.0 4.0 L 8.5 4.0 L 9.0 4.0 L 9.5 4.0 L 10.0 4.0 L 10.5 4.0 L 11.0 4.0 L 11.5 4.0 L 12.0 4.0 L 12.5 4.0 L 13.0 4.0 L 13.5 4.0 L 14.0 4.0 L 14.5 4.0 L 15.0 4.0 L 15.5 4.0 L 16.0 4.0 L 16.5 4.0 L 17.0 4.0 L 17.5 4.0 L 18.0 4.0" fill="none" stroke="#111" stroke-width="0.95" stroke-linecap="round" stroke-linejoin="round"/>
<path d="M 8.0 4.0 L 8.29 4.75 L 8.58 5.5 L 8.88 6.25 L 9.17 7.0 L 9.46 7.75 L 9.75 8.5 L 10.04 9.25 L 10.33 10.0 L 10.62 10.75 L 10.92 11.5 L 11.21 12.25 L 11.5 13.0 L 11.79 13.75 L 12.08 14.5 L 12.38 15.25 L 12.67 16.0 L 12.96 16.75 L 13.25 17.5 L 13.54 18.25 L 13.83 19.0 L 14.12 19.75 L 14.42 20.5 L 14.71 21.25 L 15.0 22.0" fill="none" stroke="#111" stroke-width="0.95" stroke-linecap="round" stroke-linejoin="round"/>
<path d="M 14.0 4.0 L 13.71 4.75 L 13.42 5.5 L 13.12 6.25 L 12.83 7.0 L 12.54 7.75 L 12.25 8.5 L 11.96 9.25 L 11.67 10.0 L 11.38 10.75 L 11.08 11.5 L 10.79 12.25 L 10.5 13.0 L 10.21 13.75 L 9.92 14.5 L 9.62 15.25 L 9.33 16.0 L 9.04 16.75 L 8.75 17.5 L 8.46 18.25 L 8.17 19.0 L 7.87 19.75 L 7.58 20.5 L 7.29 21.25 L 7.0 22.0" fill="none" stroke="#111" stroke-width="0.95" stroke-linecap="round" stroke-linejoin="round"/>
<path d="M 4.0 23.0 L 4.67 22.96 L 5.33 22.92 L 6.0 22.88 L 6.67 22.83 L 7.33 22.79 L 8.0 22.75 L 8.67 22.71 L 9.33 22.67 L 10.0 22.62 L 10.67 22.58 L 11.33 22.54 L 12.0 22.5 L 12.67 22.46 L 13.33 22.42 L 14.0 22.38 L 14.67 22.33 L 15.33 22.29 L 16.0 22.25 L 16.67 22.21 L 17.33 22.17 L 18.0 22.12 L 18.67 22.08 L 19.33 22.04 L 20.0 22.0" fill="none" stroke="#111" stroke-width="0.95" stroke-linecap="round" stroke-linejoin="round"/>
</svg>
