<?xml version="1.0" encoding="UTF-8"?>
<svg xmlns="http://www.w3.org/2000/svg" viewBox="0 0 23.72 36.00">
<path d="M 12.82 4.0 L 12.93 4.71 L 13.03 5.42 L 13.14 6.13 L 13.25 6.85 L 13.36 7.56 L 13.47 8.27 L 13.59 8.98 L 13.7 9.69 L 13.82 10.4 L 13.94 11.11 L 14.06 11.82 L 14.19 12.52 L 14.31 13.23 L 14.44 13.94 L 14.57 14.65 L 14.7 15.35 L 14.84 16.06 L 14.97 16.77 L 15.11 17.47 L 15.25 18.18 L 15.39 18.89 L 15.53 19.59 L 15.68 20.29 L 15.82 21.0 L 15.82 21.0 L 15.48 21.12 L 15.16 21.26 L 14.85 21.44 L 14.55 21.65 L 14.28 21.88 L 14.03 22.14 L 13.81 22.42 L 13.62 22.72 L 13.45 23.04 L 13.32 23.38 L 13.22 23.72 L 13.15 24.07 L 13.12 24.43 L 13.12 24.79 L 13.15 25.14 L 13.22 25.5 L 13.32 25.84 L 13.46 26.17 L 13.62 26.49 L 13.82 26.79 L 14.04 27.07 L 14.29 27.33 L 14.56 27.56 L 14.86 27.77 L 14.82 28.0 L 14.95 27.83 L 15.07 27.67 L 15.2 27.5 L 15.32 27.33 L 15.45 27.17 L 15.57 27.0 L 15.7 26.83 L 15.82 26.67 L 15.95 26.5 L 16.07 26.33 L 16.2 26.17 L 16.32 26.0 L 16.45 25.83 L 16.57 25.67 L 16.7 25.5 L 16.82 25.33 L 16.95 25.17 L 17.07 25.0 L 17.2 24.83 L 17.32 24.67 L 17.45 24.5 L 17.57 24.33 L 17.7 24.17 L 17.82 24.0 L 17.82 24.0 L 17.78 24.33 L 17.74 24.67 L 17.7 25.0 L 17.66 25.33 L 17.62 25.67 L 17.57 26.0 L 17.53 26.33 L 17.49 26.67 L 17.45 27.0 L 17.41 27.33 L 17.37 27.67 L 17.32 28.0 L 17.28 28.33 L 17.24 28.67 L 17.2 29.0 L 17.16 29.33 L 17.12 29.67 L 17.07 30.0 L 17.03 30.33 L 16.99 30.67 L 16.95 31.0 L 16.91 31.33 L 16.87 31.67 L 16.82 32.0" fill="none" stroke="#111" stroke-width="1.26" stroke-linecap="round" stroke-linejoin="round"/>
<path d="M 10.82 23.0 L 11.0 22.48 L 11.19 21.97 L 11.41 21.47 L 11.64 20.98 L 11.89 20.5 L 12.17 20.03 L 12.46 19.57 L 12.77 19.12 L 13.1 18.69 L 13.44 18.26 L 13.8 17.86 L 14.18 17.46 L 14.57 17.09 L 14.98 16.73 L 15.4 16.38 L 15.84 16.05 L 16.29 15.74 L 16.75 15.45 L 17.22 15.18 L 17.7 14.92 L 18.19 14.69 L 18.69 14.48 L 19.2 14.28 L 19.72 14.11" fill="none" stroke="#111" stroke-width="1.26" stroke-linecap="round" stroke-linejoin="round"/>
<path d="M 12.82 19.0 L 12.74 18.88 L 12.66 18.75 L 12.57 18.62 L 12.49 18.5 L 12.41 18.38 L 12.32 18.25 L 12.24 18.12 L 12.16 18.0 L 12.07 17.88 L 11.99 17.75 L 11.91 17.62 L 11.82 17.5 L 11.74 17.38 L 11.66 17.25 L 11.57 17.12 L 11.49 17.0 L 11.41 16.88 L 11.32 16.75 L 11.24 16.62 L 11.16 16.5 L 11.07 16.38 L 10.99 16.25 L 10.91 16.12 L 10.82 16.0 L 10.82 16.0 L 10.96 15.57 L 11.14 15.16 L 11.35 14.76 L 11.6 14.39 L 11.88 14.03 L 12.2 13.71 L 12.54 13.41 L 12.9 13.15 L 13.29 12.92 L 13.7 12.73 L 14.12 12.57 L 14.55 12.45 L 15.0 12.38 L 15.45 12.34 L 15.9 12.34 L 16.35 12.38 L 16.79 12.47 L 17.22 12.59 L 17.64 12.75 L 18.05 12.95 L 18.43 13.19 L 18.79 13.46 L 19.13 13.76 L 19.44 14.09" fill="none" stroke="#111" stroke-width="1.26" stroke-linecap="round" stroke-linejoin="round"/>
<path d="M 11.82 11.0 L 12.03 10.92 L 12.24 10.83 L 12.45 10.75 L 12.66 10.67 L 12.87 10.58 L 13.07 10.5 L 13.28 10.42 L 13.49 10.33 L 13.7 10.25 L 13.91 10.17 L 14.12 10.08 L 14.32 10.0 L 14.53 9.92 L 14.74 9.83 L 14.95 9.75 L 15.16 9.67 L 15.37 9.58 L 15.57 9.5 L 15.78 9.42 L 15.99 9.33 L 16.2 9.25 L 16.41 9.17 L 16.62 9.08 L 16.82 9.0" fill="none" stroke="#111" stroke-width="1.26" stroke-linecap="round" stroke-linejoin="round"/>
<path d="M 9.82 10.0 L 9.87 9.83 L 9.91 9.67 L 9.95 9.5 L 9.99 9.33 L 10.03 9.17 L 10.07 9.0 L 10.12 8.83 L 10.16 8.67 L 10.2 8.5 L 10.24 8.33 L 10.28 8.17 L 10.32 8.0 L 10.37 7.83 L 10.41 7.67 L 10.45 7.5 L 10.49 7.33 L 10.53 7.17 L 10.57 7.0 L 10.62 6.83 L 10.66 6.67 L 10.7 6.5 L 10.74 6.33 L 10.78 6.17 L 10.82 6.0 L 10.82 6.0 L 10.95 6.08 L 11.07 6.17 L 11.2 6.25 L 11.32 6.33 L 11.45 6.42 L 11.57 6.5 L 11.7 6.58 L 11.82 6.67 L 11.95 6.75 L 12.07 6.83 L 12.2 6.92 L 12.32 7.0 L 12.45 7.08 L 12.57 7.17 L 12.7 7.25 L 12.82 7.33 L 12.95 7.42 L 13.07 7.5 L 13.2 7.58 L 13.32 7.67 L 13.45 7.75 L 13.57 7.83 L 13.7 7.92 L 13.82 8.0" fill="none" stroke="#111" stroke-width="1.26" stroke-linecap="round" stroke-linejoin="round"/>
<path d="M 13.82 7.0 L 13.9 6.7 L 14.0 6.41 L 14.12 6.13 L 14.27 5.86 L 14.45 5.6 L 14.64 5.36 L 14.86 5.14 L 15.09 4.94 L 15.34 4.76 L 15.6 4.6 L 15.88 4.46 L 16.17 4.35 L 16.47 4.27 L 16.77 4.21 L 17.08 4.18 L 17.38 4.17 L 17.69 4.2 L 18.0 4.25 L 18.3 4.32 L 18.59 4.42 L 18.87 4.55 L 19.14 4.7 L 19.39 4.87 L 19.63 5.06" fill="none" stroke="#111" stroke-width="1.26" stroke-linecap="round" stroke-linejoin="round"/>
<path d="M 5.82 9.0 L 5.78 9.21 L 5.74 9.42 L 5.7 9.62 L 5.66 9.83 L 5.62 10.04 L 5.57 10.25 L 5.53 10.46 L 5.49 10.67 L 5.45 10.88 L 5.41 11.08 L 5.37 11.29 L 5.32 11.5 L 5.28 11.71 L 5.24 11.92 L 5.2 12.12 L 5.16 12.33 L 5.12 12.54 L 5.07 12.75 L 5.03 12.96 L 4.99 13.17 L 4.95 13.38 L 4.91 13.58 L 4.87 13.79 L 4.82 14.0 L 4.82 14.0 L 4.58 14.4 L 4.38 14.82 L 4.22 15.26 L 4.1 15.72 L 4.03 16.18 L 4.0 16.65 L 4.02 17.12 L 4.08 17.58 L 4.18 18.04 L 4.33 18.48 L 4.52 18.91 L 4.74 19.32 L 5.01 19.7 L 5.31 20.06 L 5.65 20.39 L 6.01 20.68 L 6.4 20.94 L 6.82 21.16 L 7.25 21.34 L 7.7 21.47 L 8.16 21.56 L 8.62 21.61 L 9.09 21.62 L 9.56 21.58" fill="none" stroke="#111" stroke-width="1.26" stroke-linecap="round" stroke-linejoin="round"/>
<path d="M 5.82 9.0 L 6.35 9.19 L 6.86 9.44 L 7.34 9.73 L 7.79 10.07 L 8.21 10.46 L 8.58 10.88 L 8.91 11.33 L 9.2 11.82 L 9.44 12.33 L 9.62 12.86 L 9.76 13.41 L 9.84 13.97 L 9.86 14.53 L 9.83 15.1 L 9.74 15.65 L 9.6 16.2 L 9.41 16.73 L 9.16 17.24 L 8.87 17.72 L 8.53 18.17 L 8.15 18.59 L 7.73 18.96 L 7.27 19.3 L 6.79 19.58" fill="none" stroke="#111" stroke-width="1.26" stroke-linecap="round" stroke-linejoin="round"/>
<path d="M 4.82 14.0 L 4.99 14.0 L 5.16 14.0 L 5.32 14.0 L 5.49 14.0 L 5.66 14.0 L 5.82 14.0 L 5.99 14.0 L 6.16 14.0 L 6.32 14.0 L 6.49 14.0 L 6.66 14.0 L 6.82 14.0 L 6.99 14.0 L 7.16 14.0 L 7.32 14.0 L 7.49 14.0 L 7.66 14.0 L 7.82 14.0 L 7.99 14.0 L 8.16 14.0 L 8.32 14.0 L 8.49 14.0 L 8.66 14.0 L 8.82 14.0" fill="none" stroke="#111" stroke-width="1.26" stroke-linecap="round" stroke-linejoin="round"/>
<path d="M 8.82 16.0 L 9.0 16.22 L 9.16 16.45 L 9.3 16.7 L 9.43 16.95 L 9.53 17.21 L 9.62 17.48 L 9.68 17.75 L 9.73 18.03 L 9.76 18.31 L 9.76 18.59 L 9.75 18.87 L 9.71 19.15 L 9.65 19.43 L 9.58 19.7 L 9.48 19.97 L 9.37 20.22 L 9.23 20.47 L 9.08 20.71 L 8.91 20.94 L 8.73 21.15 L 8.53 21.35 L 8.31 21.53 L 8.09 21.7 L 7.85 21.85" fill="none" stroke="#111" stroke-width="1.26" stroke-linecap="round" stroke-linejoin="round"/>
</svg>
