<?xml version="1.0" encoding="UTF-8"?>
<svg xmlns="http://www.w3.org/2000/svg" viewBox="0 0 22.00 37.00">
<path d="M 4.0 9.0 L 4.58 8.96 L 5.17 8.92 L 5.75 8.88 L 6.33 8.83 L 6.92 8.79 L 7.5 8.75 L 8.08 8.71 L 8.67 8.67 L 9.25 8.62 L 9.83 8.58 L 10.42 8.54 L 11.0 8.5 L 11.58 8.46 L 12.17 8.42 L 12.75 8.38 L 13.33 8.33 L 13.92 8.29 L 14.5 8.25 L 15.08 8.21 L 15.67 8.17 L 16.25 8.12 L 16.83 8.08 L 17.42 8.04 L 18.0 8.0" fill="none" stroke="#111" stroke-width="1.30" stroke-linecap="round" stroke-linejoin="round"/>
<path d="M 9.0 4.0 L 8.7 4.74 L 8.45 5.5 L 8.25 6.27 L 8.1 7.05 L 8.0 7.84 L 7.94 8.64 L 7.94 9.44 L 7.99 10.23 L 8.08 11.02 L 8.23 11.81 L 8.42 12.58 L 8.66 13.34 L 8.95 14.09 L 9.29 14.81 L 9.67 15.51 L 10.09 16.19 L 10.55 16.84 L 11.06 17.45 L 11.6 18.04 L 12.17 18.59 L 12.78 19.1 L 13.42 19.58 L 14.09 20.01 L 14.79 20.4" fill="none" stroke="#111" stroke-width="1.30" stroke-linecap="round" stroke-linejoin="round"/>
<path d="M 13.0 11.0 L 12.75 11.54 L 12.5 12.08 L 12.25 12.62 L 12.0 13.17 L 11.75 13.71 L 11.5 14.25 L 11.25 14.79 L 11.0 15.33 L 10.75 15.88 L 10.5 16.42 L 10.25 16.96 L 10.0 17.5 L 9.75 18.04 L 9.5 18.58 L 9.25 19.12 L 9.0 19.67 L 8.75 20.21 L 8.5 20.75 L 8.25 21.29 L 8.0 21.83 L 7.75 22.38 L 7.5 22.92 L 7.25 23.46 L 7.0 24.0" fill="none" stroke="#111" stroke-width="1.30" stroke-linecap="round" stroke-linejoin="round"/>
<path d="M 13.0 4.0 L 12.88 4.12 L 12.75 4.25 L 12.62 4.38 L 12.5 4.5 L 12.38 4.62 L 12.25 4.75 L 12.12 4.88 L 12.0 5.0 L 11.88 5.12 L 11.75 5.25 L 11.62 5.38 L 11.5 5.5 L 11.38 5.62 L 11.25 5.75 L 11.12 5.88 L 11.0 6.0 L 10.88 6.12 L 10.75 6.25 L 10.62 6.38 L 10.5 6.5 L 10.38 6.62 L 10.25 6.75 L 10.12 6.88 L 10.0 7.0" fill="none" stroke="#111" stroke-width="1.30" stroke-linecap="round" stroke-linejoin="round"/>
<path d="M 8.0 25.0 L 8.08 25.33 L 8.17 25.67 L 8.25 26.0 L 8.33 26.33 L 8.42 26.67 L 8.5 27.0 L 8.58 27.33 L 8.67 27.67 L 8.75 28.0 L 8.83 28.33 L 8.92 28.67 L 9.0 29.0 L 9.08 29.33 L 9.17 29.67 L 9.25 30.0 L 9.33 30.33 L 9.42 30.67 L 9.5 31.0 L 9.58 31.33 L 9.67 31.67 L 9.75 32.0 L 9.83 32.33 L 9.92 32.67 L 10.0 33.0" fill="none" stroke="#111" stroke-width="1.30" stroke-linecap="round" stroke-linejoin="round"/>
<path d="M 11.0 22.0 L 11.0 22.42 L 11.0 22.83 L 11.0 23.25 L 11.0 23.67 L 11.0 24.08 L 11.0 24.5 L 11.0 24.92 L 11.0 25.33 L 11.0 25.75 L 11.0 26.17 L 11.0 26.58 L 11.0 27.0 L 11.0 27.42 L 11.0 27.83 L 11.0 28.25 L 11.0 28.67 L 11.0 29.08 L 11.0 29.5 L 11.0 29.92 L 11.0 30.33 L 11.0 30.75 L 11.0 31.17 L 11.0 31.58 L 11.0 32.0" fill="none" stroke="#111" stroke-width="1.30" stroke-linecap="round" stroke-linejoin="round"/>
<path d="M 15.0 22.0 L 14.75 22.21 L 14.5 22.42 L 14.25 22.62 L 14.0 22.83 L 13.75 23.04 L 13.5 23.25 L 13.25 23.46 L 13.0 23.67 L 12.75 23.88 L 12.5 24.08 L 12.25 24.29 L 12.0 24.5 L 11.75 24.71 L 11.5 24.92 L 11.25 25.12 L 11.0 25.33 L 10.75 25.54 L 10.5 25.75 L 10.25 25.96 L 10.0 26.17 L 9.75 26.38 L 9.5 26.58 L 9.25 26.79 L 9.0 27.0" fill="none" stroke="#111" stroke-width="1.30" stroke-linecap="round" stroke-linejoin="round"/>
</svg>
