<?xml version="1.0" encoding="UTF-8"?>
<svg xmlns="http://www.w3.org/2000/svg" viewBox="0 0 27.00 33.91">
<path d="M 13.0 4.0 L 13.27 5.09 L 13.5 6.18 L 13.7 7.28 L 13.86 8.39 L 13.98 9.5 L 14.06 10.62 L 14.1 11.73 L 14.1 12.85 L 14.07 13.97 L 13.99 15.09 L 13.88 16.2 L 13.73 17.31 L 13.54 18.41 L 13.31 19.51 L 13.05 20.59 L 12.74 21.67 L 12.4 22.74 L 12.03 23.79 L 11.62 24.83 L 11.17 25.86 L 10.69 26.86 L 10.17 27.86 L 9.62 28.83 L 9.03 29.78" fill="none" stroke="#111" stroke-width="1.19" stroke-linecap="round" stroke-linejoin="round"/>
<path d="M 13.0 20.0 L 13.38 20.29 L 13.75 20.6 L 14.1 20.92 L 14.45 21.25 L 14.78 21.6 L 15.09 21.96 L 15.4 22.33 L 15.68 22.72 L 15.95 23.11 L 16.21 23.52 L 16.45 23.93 L 16.67 24.36 L 16.88 24.79 L 17.06 25.23 L 17.24 25.68 L 17.39 26.13 L 17.52 26.59 L 17.64 27.06 L 17.74 27.53 L 17.82 28.0 L 17.88 28.47 L 17.93 28.95 L 17.95 29.43 L 17.95 29.91" fill="none" stroke="#111" stroke-width="1.19" stroke-linecap="round" stroke-linejoin="round"/>
<path d="M 5.0 11.0 L 5.7 10.66 L 6.41 10.35 L 7.14 10.07 L 7.88 9.83 L 8.63 9.62 L 9.39 9.44 L 10.15 9.29 L 10.92 9.18 L 11.7 9.11 L 12.48 9.06 L 13.25 9.05 L 14.03 9.08 L 14.81 9.14 L 15.58 9.24 L 16.35 9.36 L 17.11 9.53 L 17.86 9.72 L 18.61 9.95 L 19.34 10.21 L 20.06 10.51 L 20.77 10.83 L 21.46 11.19 L 22.14 11.57 L 22.8 11.99" fill="none" stroke="#111" stroke-width="1.19" stroke-linecap="round" stroke-linejoin="round"/>
<path d="M 8.0 11.0 L 7.96 11.58 L 7.92 12.17 L 7.87 12.75 L 7.83 13.33 L 7.79 13.92 L 7.75 14.5 L 7.71 15.08 L 7.67 15.67 L 7.62 16.25 L 7.58 16.83 L 7.54 17.42 L 7.5 18.0 L 7.46 18.58 L 7.42 19.17 L 7.37 19.75 L 7.33 20.33 L 7.29 20.92 L 7.25 21.5 L 7.21 22.08 L 7.17 22.67 L 7.12 23.25 L 7.08 23.83 L 7.04 24.42 L 7.0 25.0" fill="none" stroke="#111" stroke-width="1.19" stroke-linecap="round" stroke-linejoin="round"/>
<path d="M 20.0 11.0 L 20.0 11.54 L 20.0 12.08 L 20.0 12.62 L 20.0 13.17 L 20.0 13.71 L 20.0 14.25 L 20.0 14.79 L 20.0 15.33 L 20.0 15.88 L 20.0 16.42 L 20.0 16.96 L 20.0 17.5 L 20.0 18.04 L 20.0 18.58 L 20.0 19.12 L 20.0 19.67 L 20.0 20.21 L 20.0 20.75 L 20.0 21.29 L 20.0 21.83 L 20.0 22.38 L 20.0 22.92 L 20.0 23.46 L 20.0 24.0" fill="none" stroke="#111" stroke-width="1.19" stroke-linecap="round" stroke-linejoin="round"/>
<path d="M 7.0 14.0 L 6.92 14.08 L 6.83 14.17 L 6.75 14.25 L 6.67 14.33 L 6.58 14.42 L 6.5 14.5 L 6.42 14.58 L 6.33 14.67 L 6.25 14.75 L 6.17 14.83 L 6.08 14.92 L 6.0 15.0 L 5.92 15.08 L 5.83 15.17 L 5.75 15.25 L 5.67 15.33 L 5.58 15.42 L 5.5 15.5 L 5.42 15.58 L 5.33 15.67 L 5.25 15.75 L 5.17 15.83 L 5.08 15.92 L 5.0 16.0" fill="none" stroke="#111" stroke-width="1.19" stroke-linecap="round" stroke-linejoin="round"/>
<path d="M 8.0 14.0 L 8.08 14.08 L 8.17 14.17 L 8.25 14.25 L 8.33 14.33 L 8.42 14.42 L 8.5 14.5 L 8.58 14.58 L 8.67 14.67 L 8.75 14.75 L 8.83 14.83 L 8.92 14.92 L 9.0 15.0 L 9.08 15.08 L 9.17 15.17 L 9.25 15.25 L 9.33 15.33 L 9.42 15.42 L 9.5 15.5 L 9.58 15.58 L 9.67 15.67 L 9.75 15.75 L 9.83 15.83 L 9.92 15.92 L 10.0 16.0" fill="none" stroke="#111" stroke-width="1.19" stroke-linecap="round" stroke-linejoin="round"/>
<path d="M 7.0 17.0 L 6.92 17.08 L 6.83 17.17 L 6.75 17.25 L 6.67 17.33 L 6.58 17.42 L 6.5 17.5 L 6.42 17.58 L 6.33 17.67 L 6.25 17.75 L 6.17 17.83 L 6.08 17.92 L 6.0 18.0 L 5.92 18.08 L 5.83 18.17 L 5.75 18.25 L 5.67 18.33 L 5.58 18.42 L 5.5 18.5 L 5.42 18.58 L 5.33 18.67 L 5.25 18.75 L 5.17 18.83 L 5.08 18.92 L 5.0 19.0" fill="none" stroke="#111" stroke-width="1.19" stroke-linecap="round" stroke-linejoin="round"/>
<path d="M 7.0 17.0 L 7.08 17.08 L 7.17 17.17 L 7.25 17.25 L 7.33 17.33 L 7.42 17.42 L 7.5 17.5 L 7.58 17.58 L 7.67 17.67 L 7.75 17.75 L 7.83 17.83 L 7.92 17.92 L 8.0 18.0 L 8.08 18.08 L 8.17 18.17 L 8.25 18.25 L 8.33 18.33 L 8.42 18.42 L 8.5 18.5 L 8.58 18.58 L 8.67 18.67 L 8.75 18.75 L 8.83 18.83 L 8.92 18.92 L 9.0 19.0" fill="none" stroke="#111" stroke-width="1.19" stroke-linecap="round" stroke-linejoin="round"/>
<path d="M 7.0 19.0 L 6.87 19.17 L 6.75 19.33 L 6.62 19.5 L 6.5 19.67 L 6.37 19.83 L 6.25 20.0 L 6.12 20.17 L 6.0 20.33 L 5.87 20.5 L 5.75 20.67 L 5.62 20.83 L 5.5 21.0 L 5.37 21.17 L 5.25 21.33 L 5.12 21.5 L 5.0 21.67 L 4.87 21.83 L 4.75 22.0 L 4.62 22.17 L 4.5 22.33 L 4.37 22.5 L 4.25 22.67 L 4.12 22.83 L 4.0 23.0" fill="none" stroke="#111" stroke-width="1.19" stroke-linecap="round" stroke-linejoin="round"/>
<path d="M 7.0 19.0 L 7.08 19.12 L 7.17 19.25 L 7.25 19.38 L 7.33 19.5 L 7.42 19.62 L 7.5 19.75 L 7.58 19.88 L 7.67 20.0 L 7.75 20.12 L 7.83 20.25 L 7.92 20.38 L 8.0 20.5 L 8.08 20.62 L 8.17 20.75 L 8.25 20.88 L 8.33 21.0 L 8.42 21.12 L 8.5 21.25 L 8.58 21.38 L 8.67 21.5 L 8.75 21.62 L 8.83 21.75 L 8.92 21.88 L 9.0 22.0" fill="none" stroke="#111" stroke-width="1.19" stroke-linecap="round" stroke-linejoin="round"/>
<path d="M 17.0 16.0 L 17.12 15.88 L 17.25 15.75 L 17.38 15.62 L 17.5 15.5 L 17.62 15.38 L 17.75 15.25 L 17.88 15.12 L 18.0 15.0 L 18.12 14.88 L 18.25 14.75 L 18.38 14.62 L 18.5 14.5 L 18.62 14.38 L 18.75 14.25 L 18.88 14.12 L 19.0 14.0 L 19.12 13.88 L 19.25 13.75 L 19.38 13.62 L 19.5 13.5 L 19.62 13.38 L 19.75 13.25 L 19.88 13.12 L 20.0 13.0" fill="none" stroke="#111" stroke-width="1.19" stroke-linecap="round" stroke-linejoin="round"/>
<path d="M 20.0 13.0 L 20.12 13.12 L 20.25 13.25 L 20.38 13.38 L 20.5 13.5 L 20.62 13.62 L 20.75 13.75 L 20.88 13.88 L 21.0 14.0 L 21.12 14.12 L 21.25 14.25 L 21.38 14.38 L 21.5 14.5 L 21.62 14.62 L 21.75 14.75 L 21.88 14.88 L 22.0 15.0 L 22.12 15.12 L 22.25 15.25 L 22.38 15.38 L 22.5 15.5 L 22.62 15.62 L 22.75 15.75 L 22.88 15.88 L 23.0 16.0" fill="none" stroke="#111" stroke-width="1.19" stroke-linecap="round" stroke-linejoin="round"/>
<path d="M 16.0 19.0 L 16.17 18.88 L 16.33 18.75 L 16.5 18.62 L 16.67 18.5 L 16.83 18.38 L 17.0 18.25 L 17.17 18.12 L 17.33 18.0 L 17.5 17.88 L 17.67 17.75 L 17.83 17.62 L 18.0 17.5 L 18.17 17.38 L 18.33 17.25 L 18.5 17.12 L 18.67 17.0 L 18.83 16.88 L 19.0 16.75 L 19.17 16.62 L 19.33 16.5 L 19.5 16.38 L 19.67 16.25 L 19.83 16.12 L 20.0 16.0" fill="none" stroke="#111" stroke-width="1.19" stroke-linecap="round" stroke-linejoin="round"/>
<path d="M 20.0 16.0 L 20.08 16.08 L 20.17 16.17 L 20.25 16.25 L 20.33 16.33 L 20.42 16.42 L 20.5 16.5 L 20.58 16.58 L 20.67 16.67 L 20.75 16.75 L 20.83 16.83 L 20.92 16.92 L 21.0 17.0 L 21.08 17.08 L 21.17 17.17 L 21.25 17.25 L 21.33 17.33 L 21.42 17.42 L 21.5 17.5 L 21.58 17.58 L 21.67 17.67 L 21.75 17.75 L 21.83 17.83 L 21.92 17.92 L 22.0 18.0" fill="none" stroke="#111" stroke-width="1.19" stroke-linecap="round" stroke-linejoin="round"/>
<path d="M 17.0 21.0 L 17.15 20.74 L 17.32 20.49 L 17.51 20.26 L 17.72 20.05 L 17.95 19.85 L 18.2 19.68 L 18.46 19.54 L 18.74 19.42 L 19.02 19.32 L 19.31 19.25 L 19.61 19.21 L 19.91 19.2 L 20.21 19.21 L 20.51 19.25 L 20.8 19.32 L 21.08 19.42 L 21.36 19.54 L 21.62 19.68 L 21.87 19.85 L 22.1 20.05 L 22.31 20.26 L 22.5 20.49 L 22.67 20.74 L 22.82 21.0" fill="none" stroke="#111" stroke-width="1.19" stroke-linecap="round" stroke-linejoin="round"/>
</svg>
