<?xml version="1.0" encoding="UTF-8"?>
<svg xmlns="http://www.w3.org/2000/svg" viewBox="0 0 24.00 33.00">
<path d="M 4.0 6.0 L 4.67 5.92 L 5.33 5.83 L 6.0 5.75 L 6.67 5.67 L 7.33 5.58 L 8.0 5.5 L 8.67 5.42 L 9.33 5.33 L 10.0 5.25 L 10.67 5.17 L 11.33 5.08 L 12.0 5.0 L 12.67 4.92 L 13.33 4.83 L 14.0 4.75 L 14.67 4.67 L 15.33 4.58 L 16.0 4.5 L 16.67 4.42 L 17.33 4.33 L 18.0 4.25 L 18.67 4.17 L 19.33 4.08 L 20.0 4.0" fill="none" stroke="#111" stroke-width="1.16" stroke-linecap="round" stroke-linejoin="round"/>
<path d="M 12.0 5.0 L 11.89 5.56 L 11.82 6.12 L 11.77 6.68 L 11.75 7.25 L 11.76 7.82 L 11.79 8.38 L 11.86 8.94 L 11.95 9.5 L 12.07 10.06 L 12.22 10.6 L 12.4 11.14 L 12.61 11.67 L 12.84 12.19 L 13.09 12.69 L 13.38 13.18 L 13.68 13.66 L 14.01 14.12 L 14.37 14.56 L 14.74 14.99 L 15.14 15.39 L 15.56 15.78 L 15.99 16.14 L 16.45 16.48 L 16.92 16.8" fill="none" stroke="#111" stroke-width="1.16" stroke-linecap="round" stroke-linejoin="round"/>
<path d="M 12.0 10.0 L 11.79 10.21 L 11.58 10.42 L 11.38 10.62 L 11.17 10.83 L 10.96 11.04 L 10.75 11.25 L 10.54 11.46 L 10.33 11.67 L 10.12 11.88 L 9.92 12.08 L 9.71 12.29 L 9.5 12.5 L 9.29 12.71 L 9.08 12.92 L 8.88 13.12 L 8.67 13.33 L 8.46 13.54 L 8.25 13.75 L 8.04 13.96 L 7.83 14.17 L 7.62 14.38 L 7.42 14.58 L 7.21 14.79 L 7.0 15.0 L 7.0 15.0 L 7.12 15.28 L 7.25 15.55 L 7.39 15.81 L 7.53 16.08 L 7.69 16.33 L 7.85 16.59 L 8.02 16.83 L 8.2 17.08 L 8.39 17.31 L 8.58 17.54 L 8.78 17.76 L 8.99 17.98 L 9.21 18.19 L 9.43 18.39 L 9.66 18.58 L 9.89 18.77 L 10.14 18.95 L 10.38 19.12 L 10.63 19.28 L 10.89 19.44 L 11.15 19.58 L 11.42 19.72 L 11.69 19.85 L 11.97 19.97 L 12.0 20.0 L 12.0 20.38 L 12.0 20.75 L 12.0 21.12 L 12.0 21.5 L 12.0 21.88 L 12.0 22.25 L 12.0 22.62 L 12.0 23.0 L 12.0 23.38 L 12.0 23.75 L 12.0 24.12 L 12.0 24.5 L 12.0 24.88 L 12.0 25.25 L 12.0 25.62 L 12.0 26.0 L 12.0 26.38 L 12.0 26.75 L 12.0 27.12 L 12.0 27.5 L 12.0 27.88 L 12.0 28.25 L 12.0 28.62 L 12.0 29.0" fill="none" stroke="#111" stroke-width="1.16" stroke-linecap="round" stroke-linejoin="round"/>
</svg>
