<?xml version="1.0" encoding="UTF-8"?>
<svg xmlns="http://www.w3.org/2000/svg" viewBox="0 0 22.66 28.26">
<path d="M 9.0 4.0 L 9.32 4.79 L 9.63 5.59 L 9.92 6.39 L 10.19 7.2 L 10.45 8.01 L 10.68 8.83 L 10.91 9.66 L 11.11 10.49 L 11.3 11.32 L 11.47 12.15 L 11.62 12.99 L 11.76 13.84 L 11.87 14.68 L 11.97 15.53 L 12.06 16.38 L 12.12 17.23 L 12.17 18.08 L 12.2 18.94 L 12.21 19.79 L 12.21 20.64 L 12.18 21.5 L 12.14 22.35 L 12.08 23.2 L 12.01 24.05" fill="none" stroke="#111" stroke-width="0.99" stroke-linecap="round" stroke-linejoin="round"/>
<path d="M 4.0 5.0 L 4.08 5.21 L 4.17 5.42 L 4.25 5.62 L 4.33 5.83 L 4.42 6.04 L 4.5 6.25 L 4.58 6.46 L 4.67 6.67 L 4.75 6.88 L 4.83 7.08 L 4.92 7.29 L 5.0 7.5 L 5.08 7.71 L 5.17 7.92 L 5.25 8.12 L 5.33 8.33 L 5.42 8.54 L 5.5 8.75 L 5.58 8.96 L 5.67 9.17 L 5.75 9.38 L 5.83 9.58 L 5.92 9.79 L 6.0 10.0 L 6.0 10.0 L 5.55 10.64 L 5.17 11.32 L 4.84 12.04 L 4.57 12.77 L 4.38 13.53 L 4.25 14.31 L 4.19 15.09 L 4.19 15.87 L 4.27 16.65 L 4.41 17.42 L 4.62 18.17 L 4.9 18.91 L 5.24 19.61 L 5.64 20.29 L 6.1 20.92 L 6.61 21.52 L 7.17 22.06 L 7.78 22.55 L 8.43 22.99 L 9.12 23.37 L 9.83 23.69 L 10.57 23.95 L 11.34 24.13 L 12.11 24.26" fill="none" stroke="#111" stroke-width="0.99" stroke-linecap="round" stroke-linejoin="round"/>
<path d="M 13.0 6.0 L 13.85 6.42 L 14.66 6.92 L 15.42 7.5 L 16.11 8.15 L 16.72 8.88 L 17.27 9.66 L 17.73 10.49 L 18.1 11.36 L 18.38 12.27 L 18.57 13.2 L 18.66 14.15 L 18.66 15.1 L 18.56 16.05 L 18.36 16.98 L 18.07 17.88 L 17.69 18.75 L 17.22 19.58 L 16.67 20.36 L 16.05 21.07 L 15.35 21.72 L 14.59 22.3 L 13.78 22.79 L 12.92 23.2 L 12.03 23.52" fill="none" stroke="#111" stroke-width="0.99" stroke-linecap="round" stroke-linejoin="round"/>
<path d="M 6.0 12.0 L 6.38 11.83 L 6.75 11.67 L 7.12 11.5 L 7.5 11.33 L 7.88 11.17 L 8.25 11.0 L 8.62 10.83 L 9.0 10.67 L 9.38 10.5 L 9.75 10.33 L 10.12 10.17 L 10.5 10.0 L 10.88 9.83 L 11.25 9.67 L 11.62 9.5 L 12.0 9.33 L 12.38 9.17 L 12.75 9.0 L 13.12 8.83 L 13.5 8.67 L 13.88 8.5 L 14.25 8.33 L 14.62 8.17 L 15.0 8.0" fill="none" stroke="#111" stroke-width="0.99" stroke-linecap="round" stroke-linejoin="round"/>
<path d="M 5.0 18.0 L 5.46 17.75 L 5.92 17.5 L 6.38 17.25 L 6.83 17.0 L 7.29 16.75 L 7.75 16.5 L 8.21 16.25 L 8.67 16.0 L 9.12 15.75 L 9.58 15.5 L 10.04 15.25 L 10.5 15.0 L 10.96 14.75 L 11.42 14.5 L 11.88 14.25 L 12.33 14.0 L 12.79 13.75 L 13.25 13.5 L 13.71 13.25 L 14.17 13.0 L 14.62 12.75 L 15.08 12.5 L 15.54 12.25 L 16.0 12.0" fill="none" stroke="#111" stroke-width="0.99" stroke-linecap="round" stroke-linejoin="round"/>
<path d="M 7.0 22.0 L 7.46 21.75 L 7.92 21.5 L 8.38 21.25 L 8.83 21.0 L 9.29 20.75 L 9.75 20.5 L 10.21 20.25 L 10.67 20.0 L 11.12 19.75 L 11.58 19.5 L 12.04 19.25 L 12.5 19.0 L 12.96 18.75 L 13.42 18.5 L 13.88 18.25 L 14.33 18.0 L 14.79 17.75 L 15.25 17.5 L 15.71 17.25 L 16.17 17.0 L 16.62 16.75 L 17.08 16.5 L 17.54 16.25 L 18.0 16.0" fill="none" stroke="#111" stroke-width="0.99" stroke-linecap="round" stroke-linejoin="round"/>
</svg>
