<?xml version="1.0" encoding="UTF-8"?>
<svg xmlns="http://www.w3.org/2000/svg" viewBox="0 0 23.00 32.00">
<path d="M 13.0 5.0 L 13.21 5.58 L 13.42 6.17 L 13.62 6.75 L 13.83 7.33 L 14.04 7.92 L 14.25 8.5 L 14.46 9.08 L 14.67 9.67 L 14.88 10.25 L 15.08 10.83 L 15.29 11.42 L 15.5 12.0 L 15.71 12.58 L 15.92 13.17 L 16.12 13.75 L 16.33 14.33 L 16.54 14.92 L 16.75 15.5 L 16.96 16.08 L 17.17 16.67 L 17.38 17.25 L 17.58 17.83 L 17.79 18.42 L 18.0 19.0 L 18.0 19.0 L 17.64 19.06 L 17.28 19.16 L 16.94 19.28 L 16.6 19.44 L 16.28 19.62 L 15.98 19.83 L 15.7 20.06 L 15.44 20.32 L 15.2 20.6 L 14.99 20.9 L 14.8 21.21 L 14.64 21.54 L 14.51 21.89 L 14.41 22.24 L 14.34 22.6 L 14.3 22.97 L 14.3 23.33 L 14.32 23.7 L 14.38 24.06 L 14.47 24.42 L 14.59 24.77 L 14.73 25.1 L 14.91 25.43 L 15.11 25.73 L 15.0 26.0 L 15.17 25.88 L 15.33 25.75 L 15.5 25.62 L 15.67 25.5 L 15.83 25.38 L 16.0 25.25 L 16.17 25.12 L 16.33 25.0 L 16.5 24.88 L 16.67 24.75 L 16.83 24.62 L 17.0 24.5 L 17.17 24.38 L 17.33 24.25 L 17.5 24.12 L 17.67 24.0 L 17.83 23.88 L 18.0 23.75 L 18.17 23.62 L 18.33 23.5 L 18.5 23.38 L 18.67 23.25 L 18.83 23.12 L 19.0 23.0 L 19.0 23.0 L 18.92 23.21 L 18.83 23.42 L 18.75 23.62 L 18.67 23.83 L 18.58 24.04 L 18.5 24.25 L 18.42 24.46 L 18.33 24.67 L 18.25 24.88 L 18.17 25.08 L 18.08 25.29 L 18.0 25.5 L 17.92 25.71 L 17.83 25.92 L 17.75 26.12 L 17.67 26.33 L 17.58 26.54 L 17.5 26.75 L 17.42 26.96 L 17.33 27.17 L 17.25 27.38 L 17.17 27.58 L 17.08 27.79 L 17.0 28.0" fill="none" stroke="#111" stroke-width="1.12" stroke-linecap="round" stroke-linejoin="round"/>
<path d="M 4.0 12.0 L 4.21 11.96 L 4.42 11.92 L 4.62 11.88 L 4.83 11.83 L 5.04 11.79 L 5.25 11.75 L 5.46 11.71 L 5.67 11.67 L 5.88 11.63 L 6.08 11.58 L 6.29 11.54 L 6.5 11.5 L 6.71 11.46 L 6.92 11.42 L 7.12 11.38 L 7.33 11.33 L 7.54 11.29 L 7.75 11.25 L 7.96 11.21 L 8.17 11.17 L 8.38 11.13 L 8.58 11.08 L 8.79 11.04 L 9.0 11.0" fill="none" stroke="#111" stroke-width="1.12" stroke-linecap="round" stroke-linejoin="round"/>
<path d="M 9.0 11.0 L 9.04 10.75 L 9.08 10.5 L 9.12 10.25 L 9.17 10.0 L 9.21 9.75 L 9.25 9.5 L 9.29 9.25 L 9.33 9.0 L 9.38 8.75 L 9.42 8.5 L 9.46 8.25 L 9.5 8.0 L 9.54 7.75 L 9.58 7.5 L 9.62 7.25 L 9.67 7.0 L 9.71 6.75 L 9.75 6.5 L 9.79 6.25 L 9.83 6.0 L 9.88 5.75 L 9.92 5.5 L 9.96 5.25 L 10.0 5.0" fill="none" stroke="#111" stroke-width="1.12" stroke-linecap="round" stroke-linejoin="round"/>
<path d="M 10.0 5.0 L 9.75 4.96 L 9.5 4.92 L 9.25 4.88 L 9.0 4.83 L 8.75 4.79 L 8.5 4.75 L 8.25 4.71 L 8.0 4.67 L 7.75 4.63 L 7.5 4.58 L 7.25 4.54 L 7.0 4.5 L 6.75 4.46 L 6.5 4.42 L 6.25 4.38 L 6.0 4.33 L 5.75 4.29 L 5.5 4.25 L 5.25 4.21 L 5.0 4.17 L 4.75 4.13 L 4.5 4.08 L 4.25 4.04 L 4.0 4.0" fill="none" stroke="#111" stroke-width="1.12" stroke-linecap="round" stroke-linejoin="round"/>
<path d="M 7.0 4.0 L 7.0 4.29 L 7.0 4.58 L 7.0 4.88 L 7.0 5.17 L 7.0 5.46 L 7.0 5.75 L 7.0 6.04 L 7.0 6.33 L 7.0 6.63 L 7.0 6.92 L 7.0 7.21 L 7.0 7.5 L 7.0 7.79 L 7.0 8.08 L 7.0 8.38 L 7.0 8.67 L 7.0 8.96 L 7.0 9.25 L 7.0 9.54 L 7.0 9.83 L 7.0 10.13 L 7.0 10.42 L 7.0 10.71 L 7.0 11.0" fill="none" stroke="#111" stroke-width="1.12" stroke-linecap="round" stroke-linejoin="round"/>
<path d="M 5.0 19.0 L 5.21 19.0 L 5.42 19.0 L 5.62 19.0 L 5.83 19.0 L 6.04 19.0 L 6.25 19.0 L 6.46 19.0 L 6.67 19.0 L 6.88 19.0 L 7.08 19.0 L 7.29 19.0 L 7.5 19.0 L 7.71 19.0 L 7.92 19.0 L 8.12 19.0 L 8.33 19.0 L 8.54 19.0 L 8.75 19.0 L 8.96 19.0 L 9.17 19.0 L 9.38 19.0 L 9.58 19.0 L 9.79 19.0 L 10.0 19.0" fill="none" stroke="#111" stroke-width="1.12" stroke-linecap="round" stroke-linejoin="round"/>
<path d="M 10.0 19.0 L 10.0 18.79 L 10.0 18.58 L 10.0 18.38 L 10.0 18.17 L 10.0 17.96 L 10.0 17.75 L 10.0 17.54 L 10.0 17.33 L 10.0 17.12 L 10.0 16.92 L 10.0 16.71 L 10.0 16.5 L 10.0 16.29 L 10.0 16.08 L 10.0 15.88 L 10.0 15.67 L 10.0 15.46 L 10.0 15.25 L 10.0 15.04 L 10.0 14.83 L 10.0 14.63 L 10.0 14.42 L 10.0 14.21 L 10.0 14.0 L 10.0 14.0 L 9.79 14.0 L 9.58 14.0 L 9.38 14.0 L 9.17 14.0 L 8.96 14.0 L 8.75 14.0 L 8.54 14.0 L 8.33 14.0 L 8.12 14.0 L 7.92 14.0 L 7.71 14.0 L 7.5 14.0 L 7.29 14.0 L 7.08 14.0 L 6.88 14.0 L 6.67 14.0 L 6.46 14.0 L 6.25 14.0 L 6.04 14.0 L 5.83 14.0 L 5.62 14.0 L 5.42 14.0 L 5.21 14.0 L 5.0 14.0" fill="none" stroke="#111" stroke-width="1.12" stroke-linecap="round" stroke-linejoin="round"/>
<path d="M 7.0 14.0 L 7.0 14.21 L 7.0 14.42 L 7.0 14.63 L 7.0 14.83 L 7.0 15.04 L 7.0 15.25 L 7.0 15.46 L 7.0 15.67 L 7.0 15.88 L 7.0 16.08 L 7.0 16.29 L 7.0 16.5 L 7.0 16.71 L 7.0 16.92 L 7.0 17.12 L 7.0 17.33 L 7.0 17.54 L 7.0 17.75 L 7.0 17.96 L 7.0 18.17 L 7.0 18.38 L 7.0 18.58 L 7.0 18.79 L 7.0 19.0" fill="none" stroke="#111" stroke-width="1.12" stroke-linecap="round" stroke-linejoin="round"/>
<path d="M 11.0 12.0 L 11.17 11.79 L 11.33 11.58 L 11.5 11.38 L 11.67 11.17 L 11.83 10.96 L 12.0 10.75 L 12.17 10.54 L 12.33 10.33 L 12.5 10.13 L 12.67 9.92 L 12.83 9.71 L 13.0 9.5 L 13.17 9.29 L 13.33 9.08 L 13.5 8.88 L 13.67 8.67 L 13.83 8.46 L 14.0 8.25 L 14.17 8.04 L 14.33 7.83 L 14.5 7.63 L 14.67 7.42 L 14.83 7.21 L 15.0 7.0" fill="none" stroke="#111" stroke-width="1.12" stroke-linecap="round" stroke-linejoin="round"/>
<path d="M 15.0 7.0 L 15.12 7.13 L 15.25 7.25 L 15.38 7.38 L 15.5 7.5 L 15.62 7.63 L 15.75 7.75 L 15.88 7.88 L 16.0 8.0 L 16.12 8.13 L 16.25 8.25 L 16.38 8.38 L 16.5 8.5 L 16.62 8.63 L 16.75 8.75 L 16.88 8.88 L 17.0 9.0 L 17.12 9.13 L 17.25 9.25 L 17.38 9.38 L 17.5 9.5 L 17.62 9.63 L 17.75 9.75 L 17.88 9.88 L 18.0 10.0 L 18.0 10.0 L 17.75 10.25 L 17.5 10.5 L 17.25 10.75 L 17.0 11.0 L 16.75 11.25 L 16.5 11.5 L 16.25 11.75 L 16.0 12.0 L 15.75 12.25 L 15.5 12.5 L 15.25 12.75 L 15.0 13.0 L 14.75 13.25 L 14.5 13.5 L 14.25 13.75 L 14.0 14.0 L 13.75 14.25 L 13.5 14.5 L 13.25 14.75 L 13.0 15.0 L 12.75 15.25 L 12.5 15.5 L 12.25 15.75 L 12.0 16.0" fill="none" stroke="#111" stroke-width="1.12" stroke-linecap="round" stroke-linejoin="round"/>
<path d="M 11.0 12.0 L 11.08 12.21 L 11.17 12.42 L 11.25 12.63 L 11.33 12.83 L 11.42 13.04 L 11.5 13.25 L 11.58 13.46 L 11.67 13.67 L 11.75 13.88 L 11.83 14.08 L 11.92 14.29 L 12.0 14.5 L 12.08 14.71 L 12.17 14.92 L 12.25 15.13 L 12.33 15.33 L 12.42 15.54 L 12.5 15.75 L 12.58 15.96 L 12.67 16.17 L 12.75 16.38 L 12.83 16.58 L 12.92 16.79 L 13.0 17.0" fill="none" stroke="#111" stroke-width="1.12" stroke-linecap="round" stroke-linejoin="round"/>
</svg>
