<?xml version="1.0" encoding="UTF-8"?>
<svg xmlns="http://www.w3.org/2000/svg" viewBox="0 0 37.05 32.98">
<path d="M 9.0 4.84 L 8.92 4.97 L 8.83 5.09 L 8.75 5.22 L 8.67 5.34 L 8.58 5.47 L 8.5 5.59 L 8.42 5.72 L 8.33 5.84 L 8.25 5.97 L 8.17 6.09 L 8.08 6.22 L 8.0 6.34 L 7.92 6.47 L 7.83 6.59 L 7.75 6.72 L 7.67 6.84 L 7.58 6.97 L 7.5 7.09 L 7.42 7.22 L 7.33 7.34 L 7.25 7.47 L 7.17 7.59 L 7.08 7.72 L 7.0 7.84 L 7.0 7.84 L 7.15 8.5 L 7.39 9.12 L 7.7 9.71 L 8.08 10.26 L 8.52 10.76 L 9.03 11.2 L 9.58 11.58 L 10.18 11.88 L 10.81 12.1 L 11.46 12.25 L 12.13 12.31 L 12.8 12.29 L 13.46 12.19 L 14.1 12.01 L 14.72 11.75 L 15.3 11.41 L 15.83 11.01 L 16.31 10.54 L 16.73 10.02 L 17.07 9.45 L 17.35 8.84 L 17.55 8.2 L 17.66 7.54 L 17.7 6.87 L 18.0 6.84 L 17.76 6.51 L 17.5 6.2 L 17.22 5.9 L 16.92 5.62 L 16.6 5.36 L 16.27 5.12 L 15.92 4.9 L 15.57 4.7 L 15.19 4.53 L 14.81 4.38 L 14.42 4.25 L 14.03 4.15 L 13.63 4.08 L 13.22 4.03 L 12.81 4.0 L 12.4 4.0 L 11.99 4.03 L 11.59 4.08 L 11.18 4.16 L 10.79 4.26 L 10.4 4.38 L 10.02 4.54 L 9.65 4.71 L 9.29 4.91" fill="none" stroke="#111" stroke-width="1.30" stroke-linecap="round" stroke-linejoin="round"/>
<path d="M 10.0 7.84 L 10.17 7.84 L 10.33 7.84 L 10.5 7.84 L 10.67 7.84 L 10.83 7.84 L 11.0 7.84 L 11.17 7.84 L 11.33 7.84 L 11.5 7.84 L 11.67 7.84 L 11.83 7.84 L 12.0 7.84 L 12.17 7.84 L 12.33 7.84 L 12.5 7.84 L 12.67 7.84 L 12.83 7.84 L 13.0 7.84 L 13.17 7.84 L 13.33 7.84 L 13.5 7.84 L 13.67 7.84 L 13.83 7.84 L 14.0 7.84" fill="none" stroke="#111" stroke-width="1.30" stroke-linecap="round" stroke-linejoin="round"/>
<path d="M 4.0 13.84 L 4.69 14.53 L 5.43 15.15 L 6.22 15.73 L 7.05 16.24 L 7.91 16.69 L 8.8 17.07 L 9.72 17.39 L 10.66 17.63 L 11.62 17.81 L 12.58 17.92 L 13.55 17.95 L 14.53 17.91 L 15.49 17.8 L 16.45 17.62 L 17.38 17.37 L 18.3 17.04 L 19.19 16.66 L 20.05 16.2 L 20.88 15.69 L 21.66 15.11 L 22.4 14.48 L 23.09 13.8 L 23.72 13.06 L 24.31 12.28" fill="none" stroke="#111" stroke-width="1.30" stroke-linecap="round" stroke-linejoin="round"/>
<path d="M 7.0 18.84 L 7.73 19.67 L 8.54 20.43 L 9.41 21.12 L 10.33 21.72 L 11.31 22.25 L 12.33 22.68 L 13.38 23.01 L 14.46 23.26 L 15.56 23.4 L 16.67 23.45 L 17.77 23.4 L 18.87 23.25 L 19.95 23.01 L 21.0 22.66 L 22.02 22.23 L 23.0 21.71 L 23.92 21.1 L 24.79 20.41 L 25.59 19.65 L 26.32 18.82 L 26.98 17.92 L 27.55 16.98 L 28.03 15.98 L 28.43 14.95" fill="none" stroke="#111" stroke-width="1.30" stroke-linecap="round" stroke-linejoin="round"/>
<path d="M 4.0 24.84 L 5.13 25.66 L 6.31 26.39 L 7.54 27.03 L 8.82 27.59 L 10.13 28.06 L 11.47 28.43 L 12.83 28.71 L 14.21 28.89 L 15.6 28.98 L 16.99 28.96 L 18.37 28.85 L 19.75 28.64 L 21.11 28.34 L 22.44 27.94 L 23.74 27.45 L 25.0 26.87 L 26.22 26.2 L 27.39 25.45 L 28.51 24.61 L 29.56 23.7 L 30.54 22.72 L 31.46 21.67 L 32.3 20.56 L 33.05 19.4" fill="none" stroke="#111" stroke-width="1.30" stroke-linecap="round" stroke-linejoin="round"/>
</svg>
