<?xml version="1.0" encoding="UTF-8"?>
<svg xmlns="http://www.w3.org/2000/svg" viewBox="0 0 26.57 34.00">
<path d="M 10.0 4.0 L 10.0 4.75 L 10.0 5.5 L 10.0 6.25 L 10.0 7.0 L 10.0 7.75 L 10.0 8.5 L 10.0 9.25 L 10.0 10.0 L 10.0 10.75 L 10.0 11.5 L 10.0 12.25 L 10.0 13.0 L 10.0 13.75 L 10.0 14.5 L 10.0 15.25 L 10.0 16.0 L 10.0 16.75 L 10.0 17.5 L 10.0 18.25 L 10.0 19.0 L 10.0 19.75 L 10.0 20.5 L 10.0 21.25 L 10.0 22.0" fill="none" stroke="#111" stroke-width="1.19" stroke-linecap="round" stroke-linejoin="round"/>
<path d="M 4.0 5.0 L 4.29 4.96 L 4.58 4.94 L 4.87 4.93 L 5.16 4.93 L 5.45 4.95 L 5.74 4.99 L 6.03 5.04 L 6.31 5.11 L 6.59 5.19 L 6.87 5.28 L 7.14 5.39 L 7.4 5.52 L 7.66 5.65 L 7.91 5.8 L 8.15 5.97 L 8.39 6.14 L 8.61 6.33 L 8.82 6.53 L 9.03 6.74 L 9.22 6.96 L 9.4 7.19 L 9.56 7.43 L 9.72 7.68 L 9.86 7.93" fill="none" stroke="#111" stroke-width="1.19" stroke-linecap="round" stroke-linejoin="round"/>
<path d="M 4.0 12.0 L 4.38 12.04 L 4.75 12.05 L 5.13 12.04 L 5.51 12.0 L 5.88 11.94 L 6.25 11.86 L 6.61 11.76 L 6.97 11.63 L 7.32 11.48 L 7.66 11.31 L 7.98 11.12 L 8.3 10.91 L 8.6 10.69 L 8.88 10.44 L 9.15 10.17 L 9.41 9.89 L 9.64 9.6 L 9.86 9.29 L 10.05 8.96 L 10.23 8.63 L 10.38 8.29 L 10.52 7.93 L 10.63 7.57 L 10.72 7.2" fill="none" stroke="#111" stroke-width="1.19" stroke-linecap="round" stroke-linejoin="round"/>
<path d="M 6.0 5.0 L 6.0 5.29 L 6.0 5.58 L 6.0 5.88 L 6.0 6.17 L 6.0 6.46 L 6.0 6.75 L 6.0 7.04 L 6.0 7.33 L 6.0 7.62 L 6.0 7.92 L 6.0 8.21 L 6.0 8.5 L 6.0 8.79 L 6.0 9.08 L 6.0 9.38 L 6.0 9.67 L 6.0 9.96 L 6.0 10.25 L 6.0 10.54 L 6.0 10.83 L 6.0 11.12 L 6.0 11.42 L 6.0 11.71 L 6.0 12.0" fill="none" stroke="#111" stroke-width="1.19" stroke-linecap="round" stroke-linejoin="round"/>
<path d="M 4.0 8.0 L 4.08 8.0 L 4.17 8.0 L 4.25 8.0 L 4.33 8.0 L 4.42 8.0 L 4.5 8.0 L 4.58 8.0 L 4.67 8.0 L 4.75 8.0 L 4.83 8.0 L 4.92 8.0 L 5.0 8.0 L 5.08 8.0 L 5.17 8.0 L 5.25 8.0 L 5.33 8.0 L 5.42 8.0 L 5.5 8.0 L 5.58 8.0 L 5.67 8.0 L 5.75 8.0 L 5.83 8.0 L 5.92 8.0 L 6.0 8.0" fill="none" stroke="#111" stroke-width="1.19" stroke-linecap="round" stroke-linejoin="round"/>
<path d="M 8.0 19.0 L 8.21 19.0 L 8.42 19.0 L 8.62 19.0 L 8.83 19.0 L 9.04 19.0 L 9.25 19.0 L 9.46 19.0 L 9.67 19.0 L 9.88 19.0 L 10.08 19.0 L 10.29 19.0 L 10.5 19.0 L 10.71 19.0 L 10.92 19.0 L 11.12 19.0 L 11.33 19.0 L 11.54 19.0 L 11.75 19.0 L 11.96 19.0 L 12.17 19.0 L 12.38 19.0 L 12.58 19.0 L 12.79 19.0 L 13.0 19.0" fill="none" stroke="#111" stroke-width="1.19" stroke-linecap="round" stroke-linejoin="round"/>
<path d="M 18.0 5.0 L 17.67 5.51 L 17.38 6.04 L 17.1 6.59 L 16.86 7.14 L 16.64 7.71 L 16.45 8.29 L 16.28 8.88 L 16.15 9.47 L 16.05 10.07 L 15.97 10.67 L 15.93 11.28 L 15.91 11.89 L 15.93 12.5 L 15.97 13.1 L 16.05 13.71 L 16.15 14.31 L 16.28 14.9 L 16.45 15.49 L 16.64 16.06 L 16.86 16.63 L 17.1 17.19 L 17.38 17.73 L 17.67 18.26 L 18.0 18.78 L 18.0 19.0 L 17.2 19.21 L 16.45 19.54 L 15.76 19.98 L 15.14 20.52 L 14.61 21.15 L 14.19 21.86 L 13.88 22.62 L 13.69 23.42 L 13.63 24.24 L 13.69 25.06 L 13.88 25.86 L 14.19 26.62 L 14.61 27.33 L 15.14 27.96 L 15.76 28.5 L 16.45 28.94 L 17.2 29.27 L 18.0 29.48 L 18.82 29.56 L 19.64 29.52 L 20.44 29.35 L 21.21 29.06 L 21.93 28.66 L 22.57 28.15 L 20.0 23.0 L 19.83 23.29 L 19.67 23.58 L 19.5 23.88 L 19.33 24.17 L 19.17 24.46 L 19.0 24.75 L 18.83 25.04 L 18.67 25.33 L 18.5 25.62 L 18.33 25.92 L 18.17 26.21 L 18.0 26.5 L 17.83 26.79 L 17.67 27.08 L 17.5 27.38 L 17.33 27.67 L 17.17 27.96 L 17.0 28.25 L 16.83 28.54 L 16.67 28.83 L 16.5 29.12 L 16.33 29.42 L 16.17 29.71 L 16.0 30.0" fill="none" stroke="#111" stroke-width="1.19" stroke-linecap="round" stroke-linejoin="round"/>
<path d="M 13.0 12.0 L 13.33 11.88 L 13.67 11.75 L 14.0 11.62 L 14.33 11.5 L 14.67 11.38 L 15.0 11.25 L 15.33 11.12 L 15.67 11.0 L 16.0 10.88 L 16.33 10.75 L 16.67 10.62 L 17.0 10.5 L 17.33 10.38 L 17.67 10.25 L 18.0 10.12 L 18.33 10.0 L 18.67 9.88 L 19.0 9.75 L 19.33 9.62 L 19.67 9.5 L 20.0 9.38 L 20.33 9.25 L 20.67 9.12 L 21.0 9.0" fill="none" stroke="#111" stroke-width="1.19" stroke-linecap="round" stroke-linejoin="round"/>
<path d="M 21.0 9.0 L 21.06 9.49 L 21.07 9.99 L 21.04 10.49 L 20.97 10.98 L 20.86 11.47 L 20.71 11.94 L 20.52 12.4 L 20.29 12.84 L 20.03 13.26 L 19.73 13.66 L 19.4 14.03 L 19.04 14.38 L 18.65 14.69 L 18.24 14.97 L 17.81 15.21 L 17.35 15.42 L 16.88 15.58 L 16.4 15.71 L 15.91 15.8 L 15.42 15.84 L 14.92 15.84 L 14.42 15.81 L 13.93 15.73 L 13.45 15.61" fill="none" stroke="#111" stroke-width="1.19" stroke-linecap="round" stroke-linejoin="round"/>
<path d="M 13.0 12.0 L 13.04 12.25 L 13.08 12.5 L 13.12 12.75 L 13.17 13.0 L 13.21 13.25 L 13.25 13.5 L 13.29 13.75 L 13.33 14.0 L 13.38 14.25 L 13.42 14.5 L 13.46 14.75 L 13.5 15.0 L 13.54 15.25 L 13.58 15.5 L 13.62 15.75 L 13.67 16.0 L 13.71 16.25 L 13.75 16.5 L 13.79 16.75 L 13.83 17.0 L 13.88 17.25 L 13.92 17.5 L 13.96 17.75 L 14.0 18.0" fill="none" stroke="#111" stroke-width="1.19" stroke-linecap="round" stroke-linejoin="round"/>
</svg>
