<?xml version="1.0" encoding="UTF-8"?>
<svg xmlns="http://www.w3.org/2000/svg" viewBox="0 0 20.00 34.00">
<path d="M 5.0 11.0 L 5.04 11.46 L 5.08 11.92 L 5.12 12.38 L 5.17 12.83 L 5.21 13.29 L 5.25 13.75 L 5.29 14.21 L 5.33 14.67 L 5.38 15.12 L 5.42 15.58 L 5.46 16.04 L 5.5 16.5 L 5.54 16.96 L 5.58 17.42 L 5.63 17.88 L 5.67 18.33 L 5.71 18.79 L 5.75 19.25 L 5.79 19.71 L 5.83 20.17 L 5.88 20.62 L 5.92 21.08 L 5.96 21.54 L 6.0 22.0 L 6.0 22.0 L 6.33 21.96 L 6.67 21.92 L 7.0 21.88 L 7.33 21.83 L 7.67 21.79 L 8.0 21.75 L 8.33 21.71 L 8.67 21.67 L 9.0 21.62 L 9.33 21.58 L 9.67 21.54 L 10.0 21.5 L 10.33 21.46 L 10.67 21.42 L 11.0 21.38 L 11.33 21.33 L 11.67 21.29 L 12.0 21.25 L 12.33 21.21 L 12.67 21.17 L 13.0 21.12 L 13.33 21.08 L 13.67 21.04 L 14.0 21.0 L 14.0 21.0 L 14.0 20.58 L 14.0 20.17 L 14.0 19.75 L 14.0 19.33 L 14.0 18.92 L 14.0 18.5 L 14.0 18.08 L 14.0 17.67 L 14.0 17.25 L 14.0 16.83 L 14.0 16.42 L 14.0 16.0 L 14.0 15.58 L 14.0 15.17 L 14.0 14.75 L 14.0 14.33 L 14.0 13.92 L 14.0 13.5 L 14.0 13.08 L 14.0 12.67 L 14.0 12.25 L 14.0 11.83 L 14.0 11.42 L 14.0 11.0 L 14.0 11.0 L 13.62 11.04 L 13.25 11.08 L 12.88 11.12 L 12.5 11.17 L 12.12 11.21 L 11.75 11.25 L 11.38 11.29 L 11.0 11.33 L 10.62 11.38 L 10.25 11.42 L 9.88 11.46 L 9.5 11.5 L 9.12 11.54 L 8.75 11.58 L 8.38 11.62 L 8.0 11.67 L 7.62 11.71 L 7.25 11.75 L 6.87 11.79 L 6.5 11.83 L 6.12 11.88 L 5.75 11.92 L 5.37 11.96 L 5.0 12.0" fill="none" stroke="#111" stroke-width="1.19" stroke-linecap="round" stroke-linejoin="round"/>
<path d="M 5.0 5.0 L 4.96 5.17 L 4.92 5.33 L 4.88 5.5 L 4.83 5.67 L 4.79 5.83 L 4.75 6.0 L 4.71 6.17 L 4.67 6.33 L 4.62 6.5 L 4.58 6.67 L 4.54 6.83 L 4.5 7.0 L 4.46 7.17 L 4.42 7.33 L 4.38 7.5 L 4.33 7.67 L 4.29 7.83 L 4.25 8.0 L 4.21 8.17 L 4.17 8.33 L 4.12 8.5 L 4.08 8.67 L 4.04 8.83 L 4.0 9.0" fill="none" stroke="#111" stroke-width="1.19" stroke-linecap="round" stroke-linejoin="round"/>
<path d="M 9.0 4.0 L 9.0 4.17 L 9.0 4.33 L 9.0 4.5 L 9.0 4.67 L 9.0 4.83 L 9.0 5.0 L 9.0 5.17 L 9.0 5.33 L 9.0 5.5 L 9.0 5.67 L 9.0 5.83 L 9.0 6.0 L 9.0 6.17 L 9.0 6.33 L 9.0 6.5 L 9.0 6.67 L 9.0 6.83 L 9.0 7.0 L 9.0 7.17 L 9.0 7.33 L 9.0 7.5 L 9.0 7.67 L 9.0 7.83 L 9.0 8.0" fill="none" stroke="#111" stroke-width="1.19" stroke-linecap="round" stroke-linejoin="round"/>
<path d="M 13.0 5.0 L 13.12 5.12 L 13.25 5.25 L 13.38 5.38 L 13.5 5.5 L 13.62 5.62 L 13.75 5.75 L 13.88 5.88 L 14.0 6.0 L 14.12 6.12 L 14.25 6.25 L 14.38 6.38 L 14.5 6.5 L 14.62 6.62 L 14.75 6.75 L 14.88 6.88 L 15.0 7.0 L 15.12 7.12 L 15.25 7.25 L 15.38 7.38 L 15.5 7.5 L 15.62 7.62 L 15.75 7.75 L 15.88 7.88 L 16.0 8.0" fill="none" stroke="#111" stroke-width="1.19" stroke-linecap="round" stroke-linejoin="round"/>
<path d="M 7.0 25.0 L 6.96 25.12 L 6.92 25.25 L 6.88 25.38 L 6.83 25.5 L 6.79 25.62 L 6.75 25.75 L 6.71 25.88 L 6.67 26.0 L 6.62 26.12 L 6.58 26.25 L 6.54 26.38 L 6.5 26.5 L 6.46 26.62 L 6.42 26.75 L 6.38 26.88 L 6.33 27.0 L 6.29 27.12 L 6.25 27.25 L 6.21 27.38 L 6.17 27.5 L 6.12 27.62 L 6.08 27.75 L 6.04 27.88 L 6.0 28.0" fill="none" stroke="#111" stroke-width="1.19" stroke-linecap="round" stroke-linejoin="round"/>
<path d="M 11.0 24.0 L 11.0 24.25 L 11.0 24.5 L 11.0 24.75 L 11.0 25.0 L 11.0 25.25 L 11.0 25.5 L 11.0 25.75 L 11.0 26.0 L 11.0 26.25 L 11.0 26.5 L 11.0 26.75 L 11.0 27.0 L 11.0 27.25 L 11.0 27.5 L 11.0 27.75 L 11.0 28.0 L 11.0 28.25 L 11.0 28.5 L 11.0 28.75 L 11.0 29.0 L 11.0 29.25 L 11.0 29.5 L 11.0 29.75 L 11.0 30.0" fill="none" stroke="#111" stroke-width="1.19" stroke-linecap="round" stroke-linejoin="round"/>
</svg>
