<?xml version="1.0" encoding="UTF-8"?>
<svg xmlns="http://www.w3.org/2000/svg" viewBox="0 0 22.00 35.00">
<path d="M 7.0 4.0 L 7.04 4.58 L 7.08 5.17 L 7.12 5.75 L 7.17 6.33 L 7.21 6.92 L 7.25 7.5 L 7.29 8.08 L 7.33 8.67 L 7.38 9.25 L 7.42 9.83 L 7.46 10.42 L 7.5 11.0 L 7.54 11.58 L 7.58 12.17 L 7.62 12.75 L 7.67 13.33 L 7.71 13.92 L 7.75 14.5 L 7.79 15.08 L 7.83 15.67 L 7.88 16.25 L 7.92 16.83 L 7.96 17.42 L 8.0 18.0" fill="none" stroke="#111" stroke-width="1.23" stroke-linecap="round" stroke-linejoin="round"/>
<path d="M 4.0 6.0 L 4.0 6.29 L 4.0 6.58 L 4.0 6.88 L 4.0 7.17 L 4.0 7.46 L 4.0 7.75 L 4.0 8.04 L 4.0 8.33 L 4.0 8.62 L 4.0 8.92 L 4.0 9.21 L 4.0 9.5 L 4.0 9.79 L 4.0 10.08 L 4.0 10.38 L 4.0 10.67 L 4.0 10.96 L 4.0 11.25 L 4.0 11.54 L 4.0 11.83 L 4.0 12.12 L 4.0 12.42 L 4.0 12.71 L 4.0 13.0" fill="none" stroke="#111" stroke-width="1.23" stroke-linecap="round" stroke-linejoin="round"/>
<path d="M 5.0 8.0 L 5.08 8.08 L 5.17 8.17 L 5.25 8.25 L 5.33 8.33 L 5.42 8.42 L 5.5 8.5 L 5.58 8.58 L 5.67 8.67 L 5.75 8.75 L 5.83 8.83 L 5.92 8.92 L 6.0 9.0 L 6.08 9.08 L 6.17 9.17 L 6.25 9.25 L 6.33 9.33 L 6.42 9.42 L 6.5 9.5 L 6.58 9.58 L 6.67 9.67 L 6.75 9.75 L 6.83 9.83 L 6.92 9.92 L 7.0 10.0" fill="none" stroke="#111" stroke-width="1.23" stroke-linecap="round" stroke-linejoin="round"/>
<path d="M 9.0 4.0 L 9.08 4.21 L 9.17 4.42 L 9.25 4.62 L 9.33 4.83 L 9.42 5.04 L 9.5 5.25 L 9.58 5.46 L 9.67 5.67 L 9.75 5.88 L 9.83 6.08 L 9.92 6.29 L 10.0 6.5 L 10.08 6.71 L 10.17 6.92 L 10.25 7.12 L 10.33 7.33 L 10.42 7.54 L 10.5 7.75 L 10.58 7.96 L 10.67 8.17 L 10.75 8.38 L 10.83 8.58 L 10.92 8.79 L 11.0 9.0" fill="none" stroke="#111" stroke-width="1.23" stroke-linecap="round" stroke-linejoin="round"/>
<path d="M 10.0 6.0 L 9.88 6.12 L 9.75 6.25 L 9.62 6.38 L 9.5 6.5 L 9.38 6.62 L 9.25 6.75 L 9.12 6.88 L 9.0 7.0 L 8.88 7.12 L 8.75 7.25 L 8.62 7.38 L 8.5 7.5 L 8.38 7.62 L 8.25 7.75 L 8.12 7.88 L 8.0 8.0 L 7.88 8.12 L 7.75 8.25 L 7.62 8.38 L 7.5 8.5 L 7.38 8.62 L 7.25 8.75 L 7.12 8.88 L 7.0 9.0" fill="none" stroke="#111" stroke-width="1.23" stroke-linecap="round" stroke-linejoin="round"/>
<path d="M 11.0 13.0 L 11.0 13.04 L 11.0 13.08 L 11.0 13.12 L 11.0 13.17 L 11.0 13.21 L 11.0 13.25 L 11.0 13.29 L 11.0 13.33 L 11.0 13.38 L 11.0 13.42 L 11.0 13.46 L 11.0 13.5 L 11.0 13.54 L 11.0 13.58 L 11.0 13.62 L 11.0 13.67 L 11.0 13.71 L 11.0 13.75 L 11.0 13.79 L 11.0 13.83 L 11.0 13.88 L 11.0 13.92 L 11.0 13.96 L 11.0 14.0 L 11.0 14.0 L 10.96 13.88 L 10.92 13.75 L 10.88 13.62 L 10.83 13.5 L 10.79 13.38 L 10.75 13.25 L 10.71 13.12 L 10.67 13.0 L 10.62 12.88 L 10.58 12.75 L 10.54 12.62 L 10.5 12.5 L 10.46 12.38 L 10.42 12.25 L 10.38 12.12 L 10.33 12.0 L 10.29 11.88 L 10.25 11.75 L 10.21 11.62 L 10.17 11.5 L 10.12 11.38 L 10.08 11.25 L 10.04 11.12 L 10.0 11.0 L 10.0 11.0 L 9.92 11.12 L 9.83 11.25 L 9.75 11.38 L 9.67 11.5 L 9.58 11.62 L 9.5 11.75 L 9.42 11.88 L 9.33 12.0 L 9.25 12.12 L 9.17 12.25 L 9.08 12.38 L 9.0 12.5 L 8.92 12.62 L 8.83 12.75 L 8.75 12.88 L 8.67 13.0 L 8.58 13.12 L 8.5 13.25 L 8.42 13.38 L 8.33 13.5 L 8.25 13.62 L 8.17 13.75 L 8.08 13.88 L 8.0 14.0" fill="none" stroke="#111" stroke-width="1.23" stroke-linecap="round" stroke-linejoin="round"/>
<path d="M 11.0 16.0 L 10.47 16.25 L 9.96 16.54 L 9.46 16.85 L 8.99 17.2 L 8.54 17.58 L 8.12 17.98 L 7.72 18.41 L 7.35 18.87 L 7.01 19.34 L 6.7 19.84 L 6.43 20.36 L 6.18 20.89 L 5.98 21.44 L 5.8 22.0 L 5.67 22.57 L 5.57 23.15 L 5.5 23.73 L 5.48 24.32 L 5.49 24.9 L 5.54 25.49 L 5.62 26.07 L 5.75 26.64 L 5.91 27.2 L 6.1 27.76" fill="none" stroke="#111" stroke-width="1.23" stroke-linecap="round" stroke-linejoin="round"/>
<path d="M 14.0 4.0 L 13.96 4.75 L 13.92 5.5 L 13.88 6.25 L 13.83 7.0 L 13.79 7.75 L 13.75 8.5 L 13.71 9.25 L 13.67 10.0 L 13.62 10.75 L 13.58 11.5 L 13.54 12.25 L 13.5 13.0 L 13.46 13.75 L 13.42 14.5 L 13.38 15.25 L 13.33 16.0 L 13.29 16.75 L 13.25 17.5 L 13.21 18.25 L 13.17 19.0 L 13.12 19.75 L 13.08 20.5 L 13.04 21.25 L 13.0 22.0" fill="none" stroke="#111" stroke-width="1.23" stroke-linecap="round" stroke-linejoin="round"/>
<path d="M 14.0 17.0 L 14.17 17.58 L 14.33 18.17 L 14.5 18.75 L 14.67 19.33 L 14.83 19.92 L 15.0 20.5 L 15.17 21.08 L 15.33 21.67 L 15.5 22.25 L 15.67 22.83 L 15.83 23.42 L 16.0 24.0 L 16.17 24.58 L 16.33 25.17 L 16.5 25.75 L 16.67 26.33 L 16.83 26.92 L 17.0 27.5 L 17.17 28.08 L 17.33 28.67 L 17.5 29.25 L 17.67 29.83 L 17.83 30.42 L 18.0 31.0" fill="none" stroke="#111" stroke-width="1.23" stroke-linecap="round" stroke-linejoin="round"/>
<path d="M 17.0 16.0 L 16.83 16.38 L 16.67 16.75 L 16.5 17.12 L 16.33 17.5 L 16.17 17.88 L 16.0 18.25 L 15.83 18.62 L 15.67 19.0 L 15.5 19.38 L 15.33 19.75 L 15.17 20.12 L 15.0 20.5 L 14.83 20.88 L 14.67 21.25 L 14.5 21.62 L 14.33 22.0 L 14.17 22.38 L 14.0 22.75 L 13.83 23.12 L 13.67 23.5 L 13.5 23.88 L 13.33 24.25 L 13.17 24.62 L 13.0 25.0" fill="none" stroke="#111" stroke-width="1.23" stroke-linecap="round" stroke-linejoin="round"/>
</svg>
