<?xml version="1.0" encoding="UTF-8"?>
<svg xmlns="http://www.w3.org/2000/svg" viewBox="0 0 19.00 37.16">
<path d="M 7.0 11.0 L 7.25 10.79 L 7.5 10.58 L 7.75 10.38 L 8.0 10.17 L 8.25 9.96 L 8.5 9.75 L 8.75 9.54 L 9.0 9.33 L 9.25 9.12 L 9.5 8.92 L 9.75 8.71 L 10.0 8.5 L 10.25 8.29 L 10.5 8.08 L 10.75 7.88 L 11.0 7.67 L 11.25 7.46 L 11.5 7.25 L 11.75 7.04 L 12.0 6.83 L 12.25 6.62 L 12.5 6.42 L 12.75 6.21 L 13.0 6.0 L 13.0 6.0 L 13.04 6.04 L 13.08 6.08 L 13.12 6.12 L 13.17 6.17 L 13.21 6.21 L 13.25 6.25 L 13.29 6.29 L 13.33 6.33 L 13.38 6.38 L 13.42 6.42 L 13.46 6.46 L 13.5 6.5 L 13.54 6.54 L 13.58 6.58 L 13.62 6.62 L 13.67 6.67 L 13.71 6.71 L 13.75 6.75 L 13.79 6.79 L 13.83 6.83 L 13.88 6.88 L 13.92 6.92 L 13.96 6.96 L 14.0 7.0 L 14.0 7.0 L 13.96 7.34 L 13.9 7.67 L 13.82 8.0 L 13.73 8.33 L 13.62 8.65 L 13.5 8.97 L 13.36 9.28 L 13.21 9.58 L 13.04 9.88 L 12.85 10.16 L 12.66 10.44 L 12.44 10.71 L 12.22 10.96 L 11.98 11.21 L 11.74 11.44 L 11.48 11.66 L 11.21 11.87 L 10.93 12.06 L 10.64 12.24 L 10.34 12.4 L 10.03 12.55 L 9.72 12.69 L 9.4 12.8 L 9.08 12.91 L 9.0 13.0 L 8.92 12.92 L 8.83 12.83 L 8.75 12.75 L 8.67 12.67 L 8.58 12.58 L 8.5 12.5 L 8.42 12.42 L 8.33 12.33 L 8.25 12.25 L 8.17 12.17 L 8.08 12.08 L 8.0 12.0 L 7.92 11.92 L 7.83 11.83 L 7.75 11.75 L 7.67 11.67 L 7.58 11.58 L 7.5 11.5 L 7.42 11.42 L 7.33 11.33 L 7.25 11.25 L 7.17 11.17 L 7.08 11.08 L 7.0 11.0" fill="none" stroke="#111" stroke-width="1.30" stroke-linecap="round" stroke-linejoin="round"/>
<path d="M 9.0 13.0 L 8.74 13.13 L 8.49 13.28 L 8.26 13.45 L 8.04 13.64 L 7.84 13.85 L 7.65 14.07 L 7.49 14.31 L 7.34 14.56 L 7.21 14.82 L 7.11 15.09 L 7.03 15.36 L 6.97 15.65 L 6.93 15.93 L 6.92 16.22 L 6.93 16.51 L 6.96 16.8 L 7.02 17.08 L 7.1 17.36 L 7.21 17.63 L 7.33 17.89 L 7.48 18.14 L 7.64 18.38 L 7.83 18.6 L 8.03 18.81 L 8.0 19.0 L 8.26 18.87 L 8.51 18.72 L 8.74 18.55 L 8.96 18.36 L 9.16 18.15 L 9.35 17.93 L 9.51 17.69 L 9.66 17.44 L 9.79 17.18 L 9.89 16.91 L 9.97 16.64 L 10.03 16.35 L 10.07 16.07 L 10.08 15.78 L 10.07 15.49 L 10.04 15.2 L 9.98 14.92 L 9.9 14.64 L 9.79 14.37 L 9.67 14.11 L 9.52 13.86 L 9.36 13.62 L 9.17 13.4 L 8.97 13.19" fill="none" stroke="#111" stroke-width="1.30" stroke-linecap="round" stroke-linejoin="round"/>
<path d="M 4.0 20.0 L 4.38 19.96 L 4.75 19.92 L 5.12 19.88 L 5.5 19.83 L 5.88 19.79 L 6.25 19.75 L 6.62 19.71 L 7.0 19.67 L 7.38 19.62 L 7.75 19.58 L 8.12 19.54 L 8.5 19.5 L 8.88 19.46 L 9.25 19.42 L 9.62 19.38 L 10.0 19.33 L 10.38 19.29 L 10.75 19.25 L 11.12 19.21 L 11.5 19.17 L 11.88 19.12 L 12.25 19.08 L 12.63 19.04 L 13.0 19.0" fill="none" stroke="#111" stroke-width="1.30" stroke-linecap="round" stroke-linejoin="round"/>
<path d="M 8.0 18.0 L 8.0 18.12 L 8.0 18.25 L 8.0 18.38 L 8.0 18.5 L 8.0 18.62 L 8.0 18.75 L 8.0 18.88 L 8.0 19.0 L 8.0 19.12 L 8.0 19.25 L 8.0 19.38 L 8.0 19.5 L 8.0 19.62 L 8.0 19.75 L 8.0 19.88 L 8.0 20.0 L 8.0 20.12 L 8.0 20.25 L 8.0 20.38 L 8.0 20.5 L 8.0 20.62 L 8.0 20.75 L 8.0 20.88 L 8.0 21.0" fill="none" stroke="#111" stroke-width="1.30" stroke-linecap="round" stroke-linejoin="round"/>
<path d="M 8.0 21.0 L 7.96 21.12 L 7.92 21.25 L 7.88 21.38 L 7.83 21.5 L 7.79 21.62 L 7.75 21.75 L 7.71 21.88 L 7.67 22.0 L 7.62 22.12 L 7.58 22.25 L 7.54 22.38 L 7.5 22.5 L 7.46 22.62 L 7.42 22.75 L 7.38 22.88 L 7.33 23.0 L 7.29 23.12 L 7.25 23.25 L 7.21 23.38 L 7.17 23.5 L 7.12 23.62 L 7.08 23.75 L 7.04 23.88 L 7.0 24.0 L 7.0 24.0 L 7.33 24.14 L 7.65 24.29 L 7.98 24.43 L 8.31 24.56 L 8.64 24.7 L 8.97 24.84 L 9.3 24.97 L 9.63 25.1 L 9.96 25.23 L 10.29 25.36 L 10.62 25.49 L 10.96 25.62 L 11.29 25.74 L 11.62 25.86 L 11.96 25.99 L 12.29 26.1 L 12.63 26.22 L 12.97 26.34 L 13.3 26.45 L 13.64 26.57 L 13.98 26.68 L 14.32 26.79 L 14.66 26.89 L 15.0 27.0" fill="none" stroke="#111" stroke-width="1.30" stroke-linecap="round" stroke-linejoin="round"/>
<path d="M 9.0 21.0 L 9.17 21.08 L 9.33 21.17 L 9.5 21.25 L 9.67 21.33 L 9.83 21.42 L 10.0 21.5 L 10.17 21.58 L 10.33 21.67 L 10.5 21.75 L 10.67 21.83 L 10.83 21.92 L 11.0 22.0 L 11.17 22.08 L 11.33 22.17 L 11.5 22.25 L 11.67 22.33 L 11.83 22.42 L 12.0 22.5 L 12.17 22.58 L 12.33 22.67 L 12.5 22.75 L 12.67 22.83 L 12.83 22.92 L 13.0 23.0 L 13.0 23.0 L 13.0 23.21 L 13.0 23.42 L 13.0 23.62 L 13.0 23.83 L 13.0 24.04 L 13.0 24.25 L 13.0 24.46 L 13.0 24.67 L 13.0 24.88 L 13.0 25.08 L 13.0 25.29 L 13.0 25.5 L 13.0 25.71 L 13.0 25.92 L 13.0 26.12 L 13.0 26.33 L 13.0 26.54 L 13.0 26.75 L 13.0 26.96 L 13.0 27.17 L 13.0 27.38 L 13.0 27.58 L 13.0 27.79 L 13.0 28.0" fill="none" stroke="#111" stroke-width="1.30" stroke-linecap="round" stroke-linejoin="round"/>
<path d="M 12.0 21.0 L 11.76 21.48 L 11.52 21.96 L 11.29 22.44 L 11.07 22.93 L 10.85 23.42 L 10.64 23.91 L 10.43 24.41 L 10.24 24.91 L 10.04 25.41 L 9.86 25.91 L 9.68 26.42 L 9.51 26.93 L 9.34 27.44 L 9.18 27.95 L 9.03 28.46 L 8.88 28.98 L 8.74 29.49 L 8.61 30.01 L 8.48 30.54 L 8.36 31.06 L 8.25 31.58 L 8.14 32.11 L 8.04 32.63 L 7.95 33.16" fill="none" stroke="#111" stroke-width="1.30" stroke-linecap="round" stroke-linejoin="round"/>
<path d="M 8.0 4.0 L 7.84 4.21 L 7.69 4.43 L 7.55 4.65 L 7.43 4.89 L 7.31 5.13 L 7.22 5.37 L 7.14 5.63 L 7.07 5.88 L 7.01 6.14 L 6.98 6.4 L 6.95 6.67 L 6.95 6.93 L 6.95 7.2 L 6.98 7.46 L 7.01 7.72 L 7.07 7.98 L 7.14 8.24 L 7.22 8.49 L 7.31 8.74 L 7.43 8.98 L 7.55 9.21 L 7.69 9.44 L 7.84 9.66 L 8.0 9.87" fill="none" stroke="#111" stroke-width="1.30" stroke-linecap="round" stroke-linejoin="round"/>
<path d="M 8.0 5.0 L 8.08 5.12 L 8.17 5.25 L 8.25 5.38 L 8.33 5.5 L 8.42 5.62 L 8.5 5.75 L 8.58 5.88 L 8.67 6.0 L 8.75 6.12 L 8.83 6.25 L 8.92 6.38 L 9.0 6.5 L 9.08 6.62 L 9.17 6.75 L 9.25 6.88 L 9.33 7.0 L 9.42 7.12 L 9.5 7.25 L 9.58 7.38 L 9.67 7.5 L 9.75 7.62 L 9.83 7.75 L 9.92 7.88 L 10.0 8.0" fill="none" stroke="#111" stroke-width="1.30" stroke-linecap="round" stroke-linejoin="round"/>
<path d="M 11.0 5.0 L 10.93 5.35 L 10.87 5.71 L 10.84 6.07 L 10.84 6.43 L 10.85 6.79 L 10.89 7.15 L 10.95 7.5 L 11.04 7.85 L 11.14 8.2 L 11.27 8.54 L 11.42 8.87 L 11.59 9.18 L 11.78 9.49 L 11.98 9.79 L 12.21 10.07 L 12.45 10.33 L 12.71 10.58 L 12.99 10.82 L 13.28 11.03 L 13.58 11.23 L 13.89 11.41 L 14.22 11.56 L 14.55 11.7 L 14.89 11.81" fill="none" stroke="#111" stroke-width="1.30" stroke-linecap="round" stroke-linejoin="round"/>
</svg>
