<?xml version="1.0" encoding="UTF-8"?>
<svg xmlns="http://www.w3.org/2000/svg" viewBox="0 0 21.00 36.90">
<path d="M 4.0 7.0 L 4.5 7.04 L 5.0 7.08 L 5.5 7.12 L 6.0 7.17 L 6.5 7.21 L 7.0 7.25 L 7.5 7.29 L 8.0 7.33 L 8.5 7.38 L 9.0 7.42 L 9.5 7.46 L 10.0 7.5 L 10.5 7.54 L 11.0 7.58 L 11.5 7.62 L 12.0 7.67 L 12.5 7.71 L 13.0 7.75 L 13.5 7.79 L 14.0 7.83 L 14.5 7.88 L 15.0 7.92 L 15.5 7.96 L 16.0 8.0" fill="none" stroke="#111" stroke-width="1.29" stroke-linecap="round" stroke-linejoin="round"/>
<path d="M 16.0 8.0 L 16.04 8.21 L 16.08 8.42 L 16.12 8.62 L 16.17 8.83 L 16.21 9.04 L 16.25 9.25 L 16.29 9.46 L 16.33 9.67 L 16.38 9.88 L 16.42 10.08 L 16.46 10.29 L 16.5 10.5 L 16.54 10.71 L 16.58 10.92 L 16.62 11.12 L 16.67 11.33 L 16.71 11.54 L 16.75 11.75 L 16.79 11.96 L 16.83 12.17 L 16.88 12.38 L 16.92 12.58 L 16.96 12.79 L 17.0 13.0 L 17.0 13.0 L 16.83 12.96 L 16.67 12.92 L 16.5 12.88 L 16.33 12.83 L 16.17 12.79 L 16.0 12.75 L 15.83 12.71 L 15.67 12.67 L 15.5 12.62 L 15.33 12.58 L 15.17 12.54 L 15.0 12.5 L 14.83 12.46 L 14.67 12.42 L 14.5 12.38 L 14.33 12.33 L 14.17 12.29 L 14.0 12.25 L 13.83 12.21 L 13.67 12.17 L 13.5 12.12 L 13.33 12.08 L 13.17 12.04 L 13.0 12.0" fill="none" stroke="#111" stroke-width="1.29" stroke-linecap="round" stroke-linejoin="round"/>
<path d="M 8.0 7.0 L 7.7 7.52 L 7.49 8.08 L 7.37 8.67 L 7.36 9.27 L 7.44 9.86 L 7.61 10.43 L 7.88 10.97 L 8.24 11.45 L 8.67 11.87 L 9.16 12.21 L 9.7 12.47 L 10.27 12.64 L 10.87 12.71 L 11.47 12.68 L 12.05 12.55 L 12.61 12.33 L 13.12 12.02 L 13.58 11.62 L 13.96 11.16 L 14.26 10.65 L 14.48 10.09 L 14.6 9.5 L 14.62 8.9 L 14.54 8.31" fill="none" stroke="#111" stroke-width="1.29" stroke-linecap="round" stroke-linejoin="round"/>
<path d="M 4.0 7.0 L 4.12 7.12 L 4.25 7.25 L 4.38 7.38 L 4.5 7.5 L 4.62 7.62 L 4.75 7.75 L 4.88 7.88 L 5.0 8.0 L 5.12 8.12 L 5.25 8.25 L 5.38 8.38 L 5.5 8.5 L 5.62 8.62 L 5.75 8.75 L 5.88 8.88 L 6.0 9.0 L 6.12 9.12 L 6.25 9.25 L 6.38 9.38 L 6.5 9.5 L 6.62 9.62 L 6.75 9.75 L 6.88 9.88 L 7.0 10.0" fill="none" stroke="#111" stroke-width="1.29" stroke-linecap="round" stroke-linejoin="round"/>
<path d="M 10.0 13.0 L 9.55 13.57 L 9.16 14.17 L 8.83 14.81 L 8.56 15.48 L 8.36 16.18 L 8.22 16.89 L 8.16 17.6 L 8.16 18.33 L 8.23 19.04 L 8.37 19.75 L 8.57 20.44 L 8.84 21.11 L 9.18 21.75 L 9.57 22.36 L 10.02 22.92 L 10.52 23.44 L 11.07 23.91 L 11.66 24.33 L 12.29 24.68 L 12.94 24.98 L 13.63 25.21 L 14.33 25.37 L 15.05 25.47 L 15.77 25.5 L 16.0 26.0 L 16.0 26.17 L 16.0 26.33 L 16.0 26.5 L 16.0 26.67 L 16.0 26.83 L 16.0 27.0 L 16.0 27.17 L 16.0 27.33 L 16.0 27.5 L 16.0 27.67 L 16.0 27.83 L 16.0 28.0 L 16.0 28.17 L 16.0 28.33 L 16.0 28.5 L 16.0 28.67 L 16.0 28.83 L 16.0 29.0 L 16.0 29.17 L 16.0 29.33 L 16.0 29.5 L 16.0 29.67 L 16.0 29.83 L 16.0 30.0 L 16.0 30.0 L 15.67 29.83 L 15.33 29.67 L 15.0 29.5 L 14.67 29.33 L 14.33 29.17 L 14.0 29.0 L 13.67 28.83 L 13.33 28.67 L 13.0 28.5 L 12.67 28.33 L 12.33 28.17 L 12.0 28.0 L 11.67 27.83 L 11.33 27.67 L 11.0 27.5 L 10.67 27.33 L 10.33 27.17 L 10.0 27.0 L 9.67 26.83 L 9.33 26.67 L 9.0 26.5 L 8.67 26.33 L 8.33 26.17 L 8.0 26.0 L 8.0 26.0 L 8.02 26.37 L 8.06 26.75 L 8.11 27.12 L 8.19 27.48 L 8.28 27.85 L 8.39 28.2 L 8.52 28.56 L 8.67 28.9 L 8.83 29.24 L 9.01 29.57 L 9.2 29.89 L 9.41 30.2 L 9.64 30.5 L 9.88 30.79 L 10.13 31.06 L 10.4 31.32 L 10.68 31.57 L 10.97 31.81 L 11.27 32.03 L 11.58 32.24 L 11.91 32.43 L 12.24 32.6 L 12.58 32.76 L 12.93 32.9" fill="none" stroke="#111" stroke-width="1.29" stroke-linecap="round" stroke-linejoin="round"/>
<path d="M 6.0 14.0 L 6.38 14.08 L 6.75 14.17 L 7.12 14.25 L 7.5 14.33 L 7.88 14.42 L 8.25 14.5 L 8.62 14.58 L 9.0 14.67 L 9.38 14.75 L 9.75 14.83 L 10.12 14.92 L 10.5 15.0 L 10.88 15.08 L 11.25 15.17 L 11.62 15.25 L 12.0 15.33 L 12.38 15.42 L 12.75 15.5 L 13.12 15.58 L 13.5 15.67 L 13.88 15.75 L 14.25 15.83 L 14.62 15.92 L 15.0 16.0" fill="none" stroke="#111" stroke-width="1.29" stroke-linecap="round" stroke-linejoin="round"/>
<path d="M 14.0 16.0 L 14.04 16.29 L 14.08 16.58 L 14.12 16.88 L 14.17 17.17 L 14.21 17.46 L 14.25 17.75 L 14.29 18.04 L 14.33 18.33 L 14.38 18.62 L 14.42 18.92 L 14.46 19.21 L 14.5 19.5 L 14.54 19.79 L 14.58 20.08 L 14.62 20.38 L 14.67 20.67 L 14.71 20.96 L 14.75 21.25 L 14.79 21.54 L 14.83 21.83 L 14.88 22.12 L 14.92 22.42 L 14.96 22.71 L 15.0 23.0" fill="none" stroke="#111" stroke-width="1.29" stroke-linecap="round" stroke-linejoin="round"/>
<path d="M 6.0 15.0 L 6.25 15.48 L 6.53 15.94 L 6.84 16.39 L 7.17 16.82 L 7.52 17.23 L 7.9 17.62 L 8.3 17.98 L 8.71 18.33 L 9.15 18.64 L 9.61 18.94 L 10.08 19.2 L 10.57 19.44 L 11.06 19.65 L 11.57 19.83 L 12.09 19.98 L 12.62 20.1 L 13.16 20.19 L 13.69 20.25 L 14.23 20.28 L 14.77 20.28 L 15.31 20.24 L 15.85 20.18 L 16.39 20.09 L 16.91 19.96" fill="none" stroke="#111" stroke-width="1.29" stroke-linecap="round" stroke-linejoin="round"/>
<path d="M 5.0 7.0 L 5.0 6.88 L 5.0 6.75 L 5.0 6.62 L 5.0 6.5 L 5.0 6.38 L 5.0 6.25 L 5.0 6.12 L 5.0 6.0 L 5.0 5.88 L 5.0 5.75 L 5.0 5.62 L 5.0 5.5 L 5.0 5.38 L 5.0 5.25 L 5.0 5.12 L 5.0 5.0 L 5.0 4.88 L 5.0 4.75 L 5.0 4.62 L 5.0 4.5 L 5.0 4.38 L 5.0 4.25 L 5.0 4.12 L 5.0 4.0 L 5.0 4.0 L 5.08 4.0 L 5.17 4.0 L 5.25 4.0 L 5.33 4.0 L 5.42 4.0 L 5.5 4.0 L 5.58 4.0 L 5.67 4.0 L 5.75 4.0 L 5.83 4.0 L 5.92 4.0 L 6.0 4.0 L 6.08 4.0 L 6.17 4.0 L 6.25 4.0 L 6.33 4.0 L 6.42 4.0 L 6.5 4.0 L 6.58 4.0 L 6.67 4.0 L 6.75 4.0 L 6.83 4.0 L 6.92 4.0 L 7.0 4.0" fill="none" stroke="#111" stroke-width="1.29" stroke-linecap="round" stroke-linejoin="round"/>
<path d="M 9.0 7.0 L 9.0 6.92 L 9.0 6.83 L 9.0 6.75 L 9.0 6.67 L 9.0 6.58 L 9.0 6.5 L 9.0 6.42 L 9.0 6.33 L 9.0 6.25 L 9.0 6.17 L 9.0 6.08 L 9.0 6.0 L 9.0 5.92 L 9.0 5.83 L 9.0 5.75 L 9.0 5.67 L 9.0 5.58 L 9.0 5.5 L 9.0 5.42 L 9.0 5.33 L 9.0 5.25 L 9.0 5.17 L 9.0 5.08 L 9.0 5.0 L 9.0 5.0 L 9.12 5.0 L 9.25 5.0 L 9.38 5.0 L 9.5 5.0 L 9.62 5.0 L 9.75 5.0 L 9.88 5.0 L 10.0 5.0 L 10.12 5.0 L 10.25 5.0 L 10.38 5.0 L 10.5 5.0 L 10.62 5.0 L 10.75 5.0 L 10.88 5.0 L 11.0 5.0 L 11.12 5.0 L 11.25 5.0 L 11.38 5.0 L 11.5 5.0 L 11.62 5.0 L 11.75 5.0 L 11.88 5.0 L 12.0 5.0" fill="none" stroke="#111" stroke-width="1.29" stroke-linecap="round" stroke-linejoin="round"/>
<path d="M 10.0 9.0 L 10.0 9.04 L 10.0 9.08 L 10.0 9.12 L 10.0 9.17 L 10.0 9.21 L 10.0 9.25 L 10.0 9.29 L 10.0 9.33 L 10.0 9.38 L 10.0 9.42 L 10.0 9.46 L 10.0 9.5 L 10.0 9.54 L 10.0 9.58 L 10.0 9.62 L 10.0 9.67 L 10.0 9.71 L 10.0 9.75 L 10.0 9.79 L 10.0 9.83 L 10.0 9.88 L 10.0 9.92 L 10.0 9.96 L 10.0 10.0" fill="none" stroke="#111" stroke-width="1.29" stroke-linecap="round" stroke-linejoin="round"/>
</svg>
