<?xml version="1.0" encoding="UTF-8"?>
<svg xmlns="http://www.w3.org/2000/svg" viewBox="0 0 33.64 40.82">
<path d="M 8.0 4.0 L 8.0 4.46 L 8.0 4.92 L 8.0 5.38 L 8.0 5.83 L 8.0 6.29 L 8.0 6.75 L 8.0 7.21 L 8.0 7.67 L 8.0 8.12 L 8.0 8.58 L 8.0 9.04 L 8.0 9.5 L 8.0 9.96 L 8.0 10.42 L 8.0 10.88 L 8.0 11.33 L 8.0 11.79 L 8.0 12.25 L 8.0 12.71 L 8.0 13.17 L 8.0 13.62 L 8.0 14.08 L 8.0 14.54 L 8.0 15.0 L 8.0 15.0 L 8.38 15.25 L 8.75 15.5 L 9.12 15.75 L 9.5 16.0 L 9.88 16.25 L 10.25 16.5 L 10.62 16.75 L 11.0 17.0 L 11.38 17.25 L 11.75 17.5 L 12.12 17.75 L 12.5 18.0 L 12.88 18.25 L 13.25 18.5 L 13.62 18.75 L 14.0 19.0 L 14.38 19.25 L 14.75 19.5 L 15.12 19.75 L 15.5 20.0 L 15.88 20.25 L 16.25 20.5 L 16.62 20.75 L 17.0 21.0" fill="none" stroke="#111" stroke-width="1.43" stroke-linecap="round" stroke-linejoin="round"/>
<path d="M 8.0 9.0 L 7.63 10.44 L 7.44 11.92 L 7.45 13.41 L 7.66 14.89 L 8.05 16.32 L 8.63 17.7 L 9.39 18.98 L 10.3 20.16 L 11.36 21.2 L 12.55 22.1 L 13.84 22.84 L 15.22 23.4 L 16.66 23.78 L 18.14 23.97 L 19.63 23.96 L 21.11 23.76 L 22.54 23.37 L 23.92 22.79 L 25.2 22.04 L 26.38 21.13 L 27.43 20.07 L 28.34 18.88 L 29.08 17.59 L 29.64 16.21" fill="none" stroke="#111" stroke-width="1.43" stroke-linecap="round" stroke-linejoin="round"/>
<path d="M 17.0 11.0 L 16.7 11.31 L 16.38 11.6 L 16.04 11.86 L 15.68 12.09 L 15.3 12.29 L 14.91 12.46 L 14.5 12.6 L 14.09 12.7 L 13.66 12.78 L 13.24 12.82 L 12.81 12.82 L 12.38 12.79 L 11.95 12.72 L 11.54 12.63 L 11.13 12.5 L 10.73 12.33 L 10.35 12.14 L 9.98 11.91 L 9.64 11.66 L 9.31 11.38 L 9.01 11.07 L 8.73 10.75 L 8.48 10.4 L 8.26 10.03" fill="none" stroke="#111" stroke-width="1.43" stroke-linecap="round" stroke-linejoin="round"/>
<path d="M 8.0 14.0 L 7.83 14.29 L 7.67 14.58 L 7.5 14.88 L 7.33 15.17 L 7.17 15.46 L 7.0 15.75 L 6.83 16.04 L 6.67 16.33 L 6.5 16.62 L 6.33 16.92 L 6.17 17.21 L 6.0 17.5 L 5.83 17.79 L 5.67 18.08 L 5.5 18.38 L 5.33 18.67 L 5.17 18.96 L 5.0 19.25 L 4.83 19.54 L 4.67 19.83 L 4.5 20.12 L 4.33 20.42 L 4.17 20.71 L 4.0 21.0 L 4.0 21.0 L 4.58 21.46 L 5.13 21.94 L 5.66 22.46 L 6.17 23.0 L 6.64 23.57 L 7.08 24.16 L 7.49 24.77 L 7.87 25.4 L 8.21 26.06 L 8.52 26.73 L 8.8 27.41 L 9.04 28.11 L 9.24 28.82 L 9.4 29.54 L 9.53 30.27 L 9.62 31.0 L 9.67 31.74 L 9.68 32.47 L 9.65 33.21 L 9.59 33.95 L 9.48 34.68 L 9.34 35.4 L 9.16 36.12 L 8.94 36.82" fill="none" stroke="#111" stroke-width="1.43" stroke-linecap="round" stroke-linejoin="round"/>
</svg>
