<?xml version="1.0" encoding="UTF-8"?>
<svg xmlns="http://www.w3.org/2000/svg" viewBox="0 0 23.00 36.00">
<path d="M 11.0 5.0 L 10.64 5.16 L 10.29 5.34 L 9.94 5.53 L 9.6 5.73 L 9.27 5.94 L 8.95 6.17 L 8.63 6.41 L 8.33 6.66 L 8.03 6.92 L 7.75 7.2 L 7.48 7.48 L 7.21 7.77 L 6.96 8.08 L 6.72 8.39 L 6.5 8.72 L 6.28 9.05 L 6.08 9.39 L 5.89 9.73 L 5.72 10.09 L 5.55 10.45 L 5.41 10.81 L 5.27 11.18 L 5.15 11.56 L 5.05 11.94" fill="none" stroke="#111" stroke-width="1.26" stroke-linecap="round" stroke-linejoin="round"/>
<path d="M 11.0 4.0 L 11.25 4.29 L 11.5 4.58 L 11.75 4.88 L 12.0 5.17 L 12.25 5.46 L 12.5 5.75 L 12.75 6.04 L 13.0 6.33 L 13.25 6.62 L 13.5 6.92 L 13.75 7.21 L 14.0 7.5 L 14.25 7.79 L 14.5 8.08 L 14.75 8.38 L 15.0 8.67 L 15.25 8.96 L 15.5 9.25 L 15.75 9.54 L 16.0 9.83 L 16.25 10.12 L 16.5 10.42 L 16.75 10.71 L 17.0 11.0" fill="none" stroke="#111" stroke-width="1.26" stroke-linecap="round" stroke-linejoin="round"/>
<path d="M 7.0 8.0 L 6.88 8.12 L 6.75 8.25 L 6.62 8.38 L 6.5 8.5 L 6.38 8.62 L 6.25 8.75 L 6.12 8.88 L 6.0 9.0 L 5.88 9.12 L 5.75 9.25 L 5.62 9.38 L 5.5 9.5 L 5.38 9.62 L 5.25 9.75 L 5.12 9.88 L 5.0 10.0 L 4.88 10.12 L 4.75 10.25 L 4.62 10.38 L 4.5 10.5 L 4.38 10.62 L 4.25 10.75 L 4.12 10.88 L 4.0 11.0" fill="none" stroke="#111" stroke-width="1.26" stroke-linecap="round" stroke-linejoin="round"/>
<path d="M 7.0 8.0 L 7.04 8.17 L 7.08 8.33 L 7.12 8.5 L 7.17 8.67 L 7.21 8.83 L 7.25 9.0 L 7.29 9.17 L 7.33 9.33 L 7.38 9.5 L 7.42 9.67 L 7.46 9.83 L 7.5 10.0 L 7.54 10.17 L 7.58 10.33 L 7.62 10.5 L 7.67 10.67 L 7.71 10.83 L 7.75 11.0 L 7.79 11.17 L 7.83 11.33 L 7.88 11.5 L 7.92 11.67 L 7.96 11.83 L 8.0 12.0" fill="none" stroke="#111" stroke-width="1.26" stroke-linecap="round" stroke-linejoin="round"/>
<path d="M 14.0 8.0 L 13.92 8.12 L 13.83 8.25 L 13.75 8.38 L 13.67 8.5 L 13.58 8.62 L 13.5 8.75 L 13.42 8.88 L 13.33 9.0 L 13.25 9.12 L 13.17 9.25 L 13.08 9.38 L 13.0 9.5 L 12.92 9.62 L 12.83 9.75 L 12.75 9.88 L 12.67 10.0 L 12.58 10.12 L 12.5 10.25 L 12.42 10.38 L 12.33 10.5 L 12.25 10.62 L 12.17 10.75 L 12.08 10.88 L 12.0 11.0" fill="none" stroke="#111" stroke-width="1.26" stroke-linecap="round" stroke-linejoin="round"/>
<path d="M 14.0 8.0 L 14.21 8.04 L 14.42 8.08 L 14.62 8.12 L 14.83 8.17 L 15.04 8.21 L 15.25 8.25 L 15.46 8.29 L 15.67 8.33 L 15.88 8.38 L 16.08 8.42 L 16.29 8.46 L 16.5 8.5 L 16.71 8.54 L 16.92 8.58 L 17.12 8.62 L 17.33 8.67 L 17.54 8.71 L 17.75 8.75 L 17.96 8.79 L 18.17 8.83 L 18.38 8.88 L 18.58 8.92 L 18.79 8.96 L 19.0 9.0" fill="none" stroke="#111" stroke-width="1.26" stroke-linecap="round" stroke-linejoin="round"/>
<path d="M 11.0 16.0 L 11.08 16.38 L 11.17 16.75 L 11.25 17.12 L 11.33 17.5 L 11.42 17.88 L 11.5 18.25 L 11.58 18.62 L 11.67 19.0 L 11.75 19.38 L 11.83 19.75 L 11.92 20.12 L 12.0 20.5 L 12.08 20.88 L 12.17 21.25 L 12.25 21.62 L 12.33 22.0 L 12.42 22.38 L 12.5 22.75 L 12.58 23.12 L 12.67 23.5 L 12.75 23.88 L 12.83 24.25 L 12.92 24.62 L 13.0 25.0 L 13.0 25.0 L 12.49 25.03 L 11.98 25.13 L 11.5 25.32 L 11.06 25.58 L 10.66 25.91 L 10.32 26.29 L 10.04 26.73 L 9.84 27.21 L 9.72 27.71 L 9.68 28.22 L 9.72 28.74 L 9.85 29.24 L 10.05 29.71 L 10.32 30.15 L 10.66 30.53 L 11.06 30.86 L 11.51 31.12 L 11.99 31.3 L 12.49 31.41 L 13.01 31.44 L 13.52 31.38 L 14.02 31.24 L 14.48 31.02 L 14.91 30.73 L 14.0 28.0 L 13.92 28.17 L 13.83 28.33 L 13.75 28.5 L 13.67 28.67 L 13.58 28.83 L 13.5 29.0 L 13.42 29.17 L 13.33 29.33 L 13.25 29.5 L 13.17 29.67 L 13.08 29.83 L 13.0 30.0 L 12.92 30.17 L 12.83 30.33 L 12.75 30.5 L 12.67 30.67 L 12.58 30.83 L 12.5 31.0 L 12.42 31.17 L 12.33 31.33 L 12.25 31.5 L 12.17 31.67 L 12.08 31.83 L 12.0 32.0" fill="none" stroke="#111" stroke-width="1.26" stroke-linecap="round" stroke-linejoin="round"/>
<path d="M 7.0 20.0 L 7.33 19.88 L 7.67 19.75 L 8.0 19.62 L 8.33 19.5 L 8.67 19.38 L 9.0 19.25 L 9.33 19.12 L 9.67 19.0 L 10.0 18.88 L 10.33 18.75 L 10.67 18.62 L 11.0 18.5 L 11.33 18.38 L 11.67 18.25 L 12.0 18.12 L 12.33 18.0 L 12.67 17.88 L 13.0 17.75 L 13.33 17.62 L 13.67 17.5 L 14.0 17.38 L 14.33 17.25 L 14.67 17.12 L 15.0 17.0 L 15.0 17.0 L 15.09 17.55 L 15.13 18.11 L 15.12 18.68 L 15.06 19.23 L 14.94 19.78 L 14.77 20.32 L 14.56 20.84 L 14.29 21.33 L 13.98 21.8 L 13.63 22.24 L 13.24 22.65 L 12.82 23.01 L 12.36 23.33 L 11.87 23.61 L 11.36 23.85 L 10.83 24.03 L 10.28 24.16 L 9.73 24.25 L 9.16 24.28 L 8.6 24.25 L 8.05 24.18 L 7.5 24.05 L 6.97 23.87 L 6.45 23.65" fill="none" stroke="#111" stroke-width="1.26" stroke-linecap="round" stroke-linejoin="round"/>
<path d="M 7.0 20.0 L 7.0 20.17 L 7.0 20.33 L 7.0 20.5 L 7.0 20.67 L 7.0 20.83 L 7.0 21.0 L 7.0 21.17 L 7.0 21.33 L 7.0 21.5 L 7.0 21.67 L 7.0 21.83 L 7.0 22.0 L 7.0 22.17 L 7.0 22.33 L 7.0 22.5 L 7.0 22.67 L 7.0 22.83 L 7.0 23.0 L 7.0 23.17 L 7.0 23.33 L 7.0 23.5 L 7.0 23.67 L 7.0 23.83 L 7.0 24.0" fill="none" stroke="#111" stroke-width="1.26" stroke-linecap="round" stroke-linejoin="round"/>
</svg>
