<?xml version="1.0" encoding="UTF-8"?>
<svg xmlns="http://www.w3.org/2000/svg" viewBox="0 0 20.01 34.00">
<path d="M 5.0 5.0 L 5.51 5.5 L 6.0 6.02 L 6.47 6.57 L 6.9 7.14 L 7.31 7.73 L 7.69 8.34 L 8.04 8.96 L 8.36 9.6 L 8.65 10.26 L 8.91 10.93 L 9.13 11.61 L 9.32 12.3 L 9.48 13.0 L 9.6 13.71 L 9.69 14.42 L 9.75 15.14 L 9.77 15.85 L 9.75 16.57 L 9.7 17.28 L 9.62 18.0 L 9.5 18.7 L 9.35 19.4 L 9.16 20.1 L 8.95 20.78" fill="none" stroke="#111" stroke-width="1.19" stroke-linecap="round" stroke-linejoin="round"/>
<path d="M 12.0 4.0 L 12.47 4.58 L 12.91 5.17 L 13.33 5.79 L 13.72 6.42 L 14.08 7.07 L 14.41 7.73 L 14.71 8.41 L 14.98 9.1 L 15.22 9.81 L 15.43 10.52 L 15.61 11.24 L 15.76 11.97 L 15.87 12.7 L 15.95 13.44 L 16.0 14.18 L 16.01 14.93 L 15.99 15.67 L 15.94 16.41 L 15.86 17.15 L 15.74 17.88 L 15.59 18.61 L 15.41 19.33 L 15.2 20.04 L 14.95 20.74" fill="none" stroke="#111" stroke-width="1.19" stroke-linecap="round" stroke-linejoin="round"/>
<path d="M 4.0 11.0 L 4.21 11.12 L 4.42 11.25 L 4.62 11.38 L 4.83 11.5 L 5.04 11.62 L 5.25 11.75 L 5.46 11.88 L 5.67 12.0 L 5.88 12.12 L 6.08 12.25 L 6.29 12.38 L 6.5 12.5 L 6.71 12.62 L 6.92 12.75 L 7.12 12.88 L 7.33 13.0 L 7.54 13.12 L 7.75 13.25 L 7.96 13.38 L 8.17 13.5 L 8.38 13.62 L 8.58 13.75 L 8.79 13.88 L 9.0 14.0" fill="none" stroke="#111" stroke-width="1.19" stroke-linecap="round" stroke-linejoin="round"/>
<path d="M 5.0 15.0 L 5.17 15.12 L 5.33 15.25 L 5.5 15.38 L 5.67 15.5 L 5.83 15.62 L 6.0 15.75 L 6.17 15.88 L 6.33 16.0 L 6.5 16.12 L 6.67 16.25 L 6.83 16.38 L 7.0 16.5 L 7.17 16.62 L 7.33 16.75 L 7.5 16.88 L 7.67 17.0 L 7.83 17.12 L 8.0 17.25 L 8.17 17.38 L 8.33 17.5 L 8.5 17.62 L 8.67 17.75 L 8.83 17.88 L 9.0 18.0" fill="none" stroke="#111" stroke-width="1.19" stroke-linecap="round" stroke-linejoin="round"/>
<path d="M 12.0 10.0 L 12.12 10.08 L 12.25 10.17 L 12.38 10.25 L 12.5 10.33 L 12.62 10.42 L 12.75 10.5 L 12.88 10.58 L 13.0 10.67 L 13.12 10.75 L 13.25 10.83 L 13.38 10.92 L 13.5 11.0 L 13.62 11.08 L 13.75 11.17 L 13.88 11.25 L 14.0 11.33 L 14.12 11.42 L 14.25 11.5 L 14.38 11.58 L 14.5 11.67 L 14.62 11.75 L 14.75 11.83 L 14.88 11.92 L 15.0 12.0" fill="none" stroke="#111" stroke-width="1.19" stroke-linecap="round" stroke-linejoin="round"/>
<path d="M 12.0 15.0 L 12.12 15.08 L 12.25 15.17 L 12.38 15.25 L 12.5 15.33 L 12.62 15.42 L 12.75 15.5 L 12.88 15.58 L 13.0 15.67 L 13.12 15.75 L 13.25 15.83 L 13.38 15.92 L 13.5 16.0 L 13.62 16.08 L 13.75 16.17 L 13.88 16.25 L 14.0 16.33 L 14.12 16.42 L 14.25 16.5 L 14.38 16.58 L 14.5 16.67 L 14.62 16.75 L 14.75 16.83 L 14.88 16.92 L 15.0 17.0" fill="none" stroke="#111" stroke-width="1.19" stroke-linecap="round" stroke-linejoin="round"/>
<path d="M 12.0 22.0 L 11.56 22.08 L 11.14 22.21 L 10.73 22.39 L 10.35 22.61 L 9.99 22.87 L 9.66 23.17 L 9.37 23.5 L 9.11 23.86 L 8.89 24.25 L 8.72 24.66 L 8.6 25.08 L 8.52 25.52 L 8.49 25.96 L 8.5 26.4 L 8.57 26.84 L 8.68 27.27 L 8.84 27.68 L 9.05 28.08 L 9.29 28.45 L 9.58 28.79 L 9.9 29.09 L 10.25 29.36 L 10.63 29.59 L 11.03 29.78 L 11.0 30.0 L 11.52 29.96 L 12.03 29.86 L 12.52 29.69 L 12.98 29.46 L 13.41 29.16 L 13.8 28.82 L 14.14 28.43 L 14.43 28.0 L 14.66 27.53 L 14.82 27.04 L 14.92 26.53 L 14.96 26.01 L 14.92 25.49 L 14.82 24.98 L 14.66 24.49 L 14.43 24.02 L 14.14 23.59 L 13.8 23.2 L 13.41 22.86 L 12.98 22.57 L 12.52 22.33 L 12.03 22.16 L 11.52 22.06 L 11.0 22.02" fill="none" stroke="#111" stroke-width="1.19" stroke-linecap="round" stroke-linejoin="round"/>
<path d="M 11.0 25.0 L 11.04 25.04 L 11.08 25.08 L 11.12 25.12 L 11.17 25.17 L 11.21 25.21 L 11.25 25.25 L 11.29 25.29 L 11.33 25.33 L 11.38 25.38 L 11.42 25.42 L 11.46 25.46 L 11.5 25.5 L 11.54 25.54 L 11.58 25.58 L 11.62 25.62 L 11.67 25.67 L 11.71 25.71 L 11.75 25.75 L 11.79 25.79 L 11.83 25.83 L 11.88 25.88 L 11.92 25.92 L 11.96 25.96 L 12.0 26.0" fill="none" stroke="#111" stroke-width="1.19" stroke-linecap="round" stroke-linejoin="round"/>
</svg>
