<?xml version="1.0" encoding="UTF-8"?>
<svg xmlns="http://www.w3.org/2000/svg" viewBox="0 0 23.10 34.00">
<path d="M 8.09 4.0 L 8.04 4.42 L 8.0 4.83 L 7.96 5.25 L 7.92 5.67 L 7.88 6.08 L 7.84 6.5 L 7.79 6.92 L 7.75 7.33 L 7.71 7.75 L 7.67 8.17 L 7.63 8.58 L 7.59 9.0 L 7.54 9.42 L 7.5 9.83 L 7.46 10.25 L 7.42 10.67 L 7.38 11.08 L 7.34 11.5 L 7.29 11.92 L 7.25 12.33 L 7.21 12.75 L 7.17 13.17 L 7.13 13.58 L 7.09 14.0 L 7.09 14.0 L 7.91 14.33 L 8.7 14.76 L 9.43 15.27 L 10.1 15.86 L 10.69 16.52 L 11.21 17.24 L 11.65 18.02 L 11.99 18.84 L 12.24 19.7 L 12.4 20.58 L 12.45 21.47 L 12.4 22.36 L 12.25 23.23 L 12.01 24.09 L 11.66 24.92 L 11.23 25.69 L 10.72 26.42 L 10.12 27.08 L 9.45 27.68 L 8.73 28.19 L 7.94 28.62 L 7.12 28.96 L 6.26 29.2 L 5.38 29.34 L 6.09 23.0 L 6.17 23.25 L 6.25 23.5 L 6.34 23.75 L 6.42 24.0 L 6.5 24.25 L 6.59 24.5 L 6.67 24.75 L 6.75 25.0 L 6.84 25.25 L 6.92 25.5 L 7.0 25.75 L 7.09 26.0 L 7.17 26.25 L 7.25 26.5 L 7.34 26.75 L 7.42 27.0 L 7.5 27.25 L 7.59 27.5 L 7.67 27.75 L 7.75 28.0 L 7.84 28.25 L 7.92 28.5 L 8.0 28.75 L 8.09 29.0" fill="none" stroke="#111" stroke-width="1.19" stroke-linecap="round" stroke-linejoin="round"/>
<path d="M 4.09 7.0 L 4.38 7.17 L 4.67 7.33 L 4.96 7.5 L 5.25 7.67 L 5.54 7.83 L 5.84 8.0 L 6.13 8.17 L 6.42 8.33 L 6.71 8.5 L 7.0 8.67 L 7.29 8.83 L 7.59 9.0 L 7.88 9.17 L 8.17 9.33 L 8.46 9.5 L 8.75 9.67 L 9.04 9.83 L 9.34 10.0 L 9.63 10.17 L 9.92 10.33 L 10.21 10.5 L 10.5 10.67 L 10.79 10.83 L 11.09 11.0" fill="none" stroke="#111" stroke-width="1.19" stroke-linecap="round" stroke-linejoin="round"/>
<path d="M 10.09 10.0 L 10.09 10.25 L 10.09 10.5 L 10.09 10.75 L 10.09 11.0 L 10.09 11.25 L 10.09 11.5 L 10.09 11.75 L 10.09 12.0 L 10.09 12.25 L 10.09 12.5 L 10.09 12.75 L 10.09 13.0 L 10.09 13.25 L 10.09 13.5 L 10.09 13.75 L 10.09 14.0 L 10.09 14.25 L 10.09 14.5 L 10.09 14.75 L 10.09 15.0 L 10.09 15.25 L 10.09 15.5 L 10.09 15.75 L 10.09 16.0" fill="none" stroke="#111" stroke-width="1.19" stroke-linecap="round" stroke-linejoin="round"/>
<path d="M 4.09 7.0 L 4.02 7.59 L 4.0 8.18 L 4.02 8.77 L 4.07 9.36 L 4.17 9.95 L 4.31 10.52 L 4.48 11.09 L 4.7 11.64 L 4.95 12.18 L 5.23 12.7 L 5.56 13.2 L 5.91 13.67 L 6.3 14.12 L 6.71 14.54 L 7.15 14.94 L 7.62 15.3 L 8.12 15.63 L 8.63 15.93 L 9.16 16.19 L 9.71 16.41 L 10.27 16.59 L 10.85 16.74 L 11.43 16.85 L 12.02 16.92" fill="none" stroke="#111" stroke-width="1.19" stroke-linecap="round" stroke-linejoin="round"/>
<path d="M 15.09 4.0 L 15.13 5.08 L 15.17 6.17 L 15.21 7.25 L 15.25 8.33 L 15.29 9.42 L 15.34 10.5 L 15.38 11.58 L 15.42 12.67 L 15.46 13.75 L 15.5 14.83 L 15.54 15.92 L 15.59 17.0 L 15.63 18.08 L 15.67 19.17 L 15.71 20.25 L 15.75 21.33 L 15.79 22.42 L 15.84 23.5 L 15.88 24.58 L 15.92 25.67 L 15.96 26.75 L 16.0 27.83 L 16.04 28.92 L 16.09 30.0" fill="none" stroke="#111" stroke-width="1.19" stroke-linecap="round" stroke-linejoin="round"/>
<path d="M 11.09 5.0 L 11.25 5.21 L 11.42 5.42 L 11.59 5.62 L 11.75 5.83 L 11.92 6.04 L 12.09 6.25 L 12.25 6.46 L 12.42 6.67 L 12.59 6.88 L 12.75 7.08 L 12.92 7.29 L 13.09 7.5 L 13.25 7.71 L 13.42 7.92 L 13.59 8.12 L 13.75 8.33 L 13.92 8.54 L 14.09 8.75 L 14.25 8.96 L 14.42 9.17 L 14.59 9.38 L 14.75 9.58 L 14.92 9.79 L 15.09 10.0" fill="none" stroke="#111" stroke-width="1.19" stroke-linecap="round" stroke-linejoin="round"/>
<path d="M 19.09 5.0 L 18.92 5.21 L 18.75 5.42 L 18.59 5.62 L 18.42 5.83 L 18.25 6.04 L 18.09 6.25 L 17.92 6.46 L 17.75 6.67 L 17.59 6.88 L 17.42 7.08 L 17.25 7.29 L 17.09 7.5 L 16.92 7.71 L 16.75 7.92 L 16.59 8.12 L 16.42 8.33 L 16.25 8.54 L 16.09 8.75 L 15.92 8.96 L 15.75 9.17 L 15.59 9.38 L 15.42 9.58 L 15.25 9.79 L 15.09 10.0" fill="none" stroke="#111" stroke-width="1.19" stroke-linecap="round" stroke-linejoin="round"/>
<path d="M 16.09 10.0 L 16.34 10.09 L 16.58 10.22 L 16.8 10.36 L 17.01 10.53 L 17.2 10.72 L 17.37 10.92 L 17.52 11.15 L 17.64 11.39 L 17.73 11.64 L 17.8 11.9 L 17.85 12.16 L 17.86 12.43 L 17.85 12.7 L 17.8 12.96 L 17.73 13.22 L 17.64 13.47 L 17.52 13.71 L 17.37 13.93 L 17.2 14.14 L 17.01 14.33 L 16.8 14.5 L 16.58 14.64 L 16.34 14.76 L 16.09 14.86" fill="none" stroke="#111" stroke-width="1.19" stroke-linecap="round" stroke-linejoin="round"/>
<path d="M 15.09 10.0 L 14.84 10.09 L 14.6 10.22 L 14.37 10.36 L 14.16 10.53 L 13.97 10.72 L 13.8 10.92 L 13.66 11.15 L 13.53 11.39 L 13.44 11.64 L 13.37 11.9 L 13.33 12.16 L 13.31 12.43 L 13.33 12.7 L 13.37 12.96 L 13.44 13.22 L 13.53 13.47 L 13.66 13.71 L 13.8 13.93 L 13.97 14.14 L 14.16 14.33 L 14.37 14.5 L 14.6 14.64 L 14.84 14.76 L 15.09 14.86" fill="none" stroke="#111" stroke-width="1.19" stroke-linecap="round" stroke-linejoin="round"/>
<path d="M 15.09 16.0 L 14.96 16.12 L 14.84 16.25 L 14.71 16.38 L 14.59 16.5 L 14.46 16.62 L 14.34 16.75 L 14.21 16.88 L 14.09 17.0 L 13.96 17.12 L 13.84 17.25 L 13.71 17.38 L 13.59 17.5 L 13.46 17.62 L 13.34 17.75 L 13.21 17.88 L 13.09 18.0 L 12.96 18.12 L 12.84 18.25 L 12.71 18.38 L 12.59 18.5 L 12.46 18.62 L 12.34 18.75 L 12.21 18.88 L 12.09 19.0 L 12.09 19.0 L 12.16 19.19 L 12.25 19.37 L 12.34 19.55 L 12.45 19.72 L 12.57 19.88 L 12.7 20.03 L 12.84 20.18 L 12.98 20.32 L 13.14 20.44 L 13.3 20.56 L 13.47 20.67 L 13.65 20.76 L 13.83 20.85 L 14.02 20.92 L 14.21 20.98 L 14.41 21.03 L 14.61 21.06 L 14.81 21.09 L 15.01 21.1 L 15.21 21.09 L 15.41 21.08 L 15.61 21.05 L 15.8 21.01 L 16.0 20.96" fill="none" stroke="#111" stroke-width="1.19" stroke-linecap="round" stroke-linejoin="round"/>
<path d="M 16.09 16.0 L 16.21 16.08 L 16.34 16.17 L 16.46 16.25 L 16.59 16.33 L 16.71 16.42 L 16.84 16.5 L 16.96 16.58 L 17.09 16.67 L 17.21 16.75 L 17.34 16.83 L 17.46 16.92 L 17.59 17.0 L 17.71 17.08 L 17.84 17.17 L 17.96 17.25 L 18.09 17.33 L 18.21 17.42 L 18.34 17.5 L 18.46 17.58 L 18.59 17.67 L 18.71 17.75 L 18.84 17.83 L 18.96 17.92 L 19.09 18.0 L 19.09 18.0 L 19.1 18.19 L 19.1 18.38 L 19.09 18.57 L 19.06 18.76 L 19.02 18.95 L 18.96 19.13 L 18.89 19.31 L 18.81 19.49 L 18.72 19.65 L 18.61 19.81 L 18.49 19.96 L 18.36 20.1 L 18.22 20.23 L 18.07 20.35 L 17.91 20.46 L 17.74 20.56 L 17.57 20.64 L 17.39 20.71 L 17.21 20.76 L 17.02 20.81 L 16.83 20.83 L 16.64 20.85 L 16.45 20.85 L 16.26 20.83" fill="none" stroke="#111" stroke-width="1.19" stroke-linecap="round" stroke-linejoin="round"/>
<path d="M 16.09 22.0 L 15.96 22.17 L 15.84 22.33 L 15.71 22.5 L 15.59 22.67 L 15.46 22.83 L 15.34 23.0 L 15.21 23.17 L 15.09 23.33 L 14.96 23.5 L 14.84 23.67 L 14.71 23.83 L 14.59 24.0 L 14.46 24.17 L 14.34 24.33 L 14.21 24.5 L 14.09 24.67 L 13.96 24.83 L 13.84 25.0 L 13.71 25.17 L 13.59 25.33 L 13.46 25.5 L 13.34 25.67 L 13.21 25.83 L 13.09 26.0" fill="none" stroke="#111" stroke-width="1.19" stroke-linecap="round" stroke-linejoin="round"/>
<path d="M 16.09 22.0 L 16.21 22.12 L 16.34 22.25 L 16.46 22.38 L 16.59 22.5 L 16.71 22.62 L 16.84 22.75 L 16.96 22.88 L 17.09 23.0 L 17.21 23.12 L 17.34 23.25 L 17.46 23.38 L 17.59 23.5 L 17.71 23.62 L 17.84 23.75 L 17.96 23.88 L 18.09 24.0 L 18.21 24.12 L 18.34 24.25 L 18.46 24.38 L 18.59 24.5 L 18.71 24.62 L 18.84 24.75 L 18.96 24.88 L 19.09 25.0" fill="none" stroke="#111" stroke-width="1.19" stroke-linecap="round" stroke-linejoin="round"/>
</svg>
