<?xml version="1.0" encoding="UTF-8"?>
<svg xmlns="http://www.w3.org/2000/svg" viewBox="0 0 22.00 34.94">
<path d="M 8.0 6.0 L 8.0 6.17 L 8.0 6.33 L 8.0 6.5 L 8.0 6.67 L 8.0 6.83 L 8.0 7.0 L 8.0 7.17 L 8.0 7.33 L 8.0 7.5 L 8.0 7.67 L 8.0 7.83 L 8.0 8.0 L 8.0 8.17 L 8.0 8.33 L 8.0 8.5 L 8.0 8.67 L 8.0 8.83 L 8.0 9.0 L 8.0 9.17 L 8.0 9.33 L 8.0 9.5 L 8.0 9.67 L 8.0 9.83 L 8.0 10.0 L 8.0 10.0 L 8.25 10.0 L 8.5 10.0 L 8.75 10.0 L 9.0 10.0 L 9.25 10.0 L 9.5 10.0 L 9.75 10.0 L 10.0 10.0 L 10.25 10.0 L 10.5 10.0 L 10.75 10.0 L 11.0 10.0 L 11.25 10.0 L 11.5 10.0 L 11.75 10.0 L 12.0 10.0 L 12.25 10.0 L 12.5 10.0 L 12.75 10.0 L 13.0 10.0 L 13.25 10.0 L 13.5 10.0 L 13.75 10.0 L 14.0 10.0 L 14.0 10.0 L 14.0 9.75 L 14.0 9.5 L 14.0 9.25 L 14.0 9.0 L 14.0 8.75 L 14.0 8.5 L 14.0 8.25 L 14.0 8.0 L 14.0 7.75 L 14.0 7.5 L 14.0 7.25 L 14.0 7.0 L 14.0 6.75 L 14.0 6.5 L 14.0 6.25 L 14.0 6.0 L 14.0 5.75 L 14.0 5.5 L 14.0 5.25 L 14.0 5.0 L 14.0 4.75 L 14.0 4.5 L 14.0 4.25 L 14.0 4.0" fill="none" stroke="#111" stroke-width="1.22" stroke-linecap="round" stroke-linejoin="round"/>
<path d="M 11.0 5.0 L 11.0 5.38 L 11.0 5.75 L 11.0 6.12 L 11.0 6.5 L 11.0 6.88 L 11.0 7.25 L 11.0 7.62 L 11.0 8.0 L 11.0 8.38 L 11.0 8.75 L 11.0 9.12 L 11.0 9.5 L 11.0 9.88 L 11.0 10.25 L 11.0 10.62 L 11.0 11.0 L 11.0 11.38 L 11.0 11.75 L 11.0 12.12 L 11.0 12.5 L 11.0 12.88 L 11.0 13.25 L 11.0 13.62 L 11.0 14.0" fill="none" stroke="#111" stroke-width="1.22" stroke-linecap="round" stroke-linejoin="round"/>
<path d="M 7.0 14.0 L 6.75 14.75 L 6.63 15.54 L 6.64 16.33 L 6.78 17.11 L 7.04 17.86 L 7.42 18.56 L 7.91 19.18 L 8.5 19.71 L 9.17 20.15 L 9.89 20.46 L 10.66 20.66 L 11.45 20.72 L 12.24 20.66 L 13.01 20.46 L 13.74 20.15 L 14.41 19.71 L 14.99 19.18 L 15.48 18.56 L 15.87 17.86 L 16.13 17.11 L 16.27 16.33 L 16.28 15.54 L 16.15 14.75 L 15.91 14.0 L 16.0 14.0 L 15.62 14.0 L 15.25 14.0 L 14.88 14.0 L 14.5 14.0 L 14.12 14.0 L 13.75 14.0 L 13.38 14.0 L 13.0 14.0 L 12.62 14.0 L 12.25 14.0 L 11.88 14.0 L 11.5 14.0 L 11.12 14.0 L 10.75 14.0 L 10.38 14.0 L 10.0 14.0 L 9.62 14.0 L 9.25 14.0 L 8.88 14.0 L 8.5 14.0 L 8.12 14.0 L 7.75 14.0 L 7.38 14.0 L 7.0 14.0" fill="none" stroke="#111" stroke-width="1.22" stroke-linecap="round" stroke-linejoin="round"/>
<path d="M 9.0 17.0 L 9.17 17.0 L 9.33 17.0 L 9.5 17.0 L 9.67 17.0 L 9.83 17.0 L 10.0 17.0 L 10.17 17.0 L 10.33 17.0 L 10.5 17.0 L 10.67 17.0 L 10.83 17.0 L 11.0 17.0 L 11.17 17.0 L 11.33 17.0 L 11.5 17.0 L 11.67 17.0 L 11.83 17.0 L 12.0 17.0 L 12.17 17.0 L 12.33 17.0 L 12.5 17.0 L 12.67 17.0 L 12.83 17.0 L 13.0 17.0" fill="none" stroke="#111" stroke-width="1.22" stroke-linecap="round" stroke-linejoin="round"/>
<path d="M 10.0 20.0 L 9.69 20.45 L 9.46 20.96 L 9.34 21.49 L 9.32 22.04 L 9.4 22.59 L 9.58 23.11 L 9.86 23.58 L 10.23 24.0 L 10.66 24.34 L 11.15 24.59 L 11.68 24.74 L 12.23 24.8 L 12.78 24.74 L 13.31 24.59 L 13.8 24.34 L 14.23 24.0 L 14.59 23.58 L 14.87 23.11 L 15.06 22.59 L 15.14 22.04 L 15.12 21.49 L 14.99 20.96 L 14.77 20.45 L 14.46 20.0 L 13.0 20.0 L 13.0 20.0 L 13.0 20.0 L 13.0 20.0 L 13.0 20.0 L 13.0 20.0 L 13.0 20.0 L 13.0 20.0 L 13.0 20.0 L 13.0 20.0 L 13.0 20.0 L 13.0 20.0 L 13.0 20.0 L 13.0 20.0 L 13.0 20.0 L 13.0 20.0 L 13.0 20.0 L 13.0 20.0 L 13.0 20.0 L 13.0 20.0 L 13.0 20.0 L 13.0 20.0 L 13.0 20.0 L 13.0 20.0 L 13.0 20.0" fill="none" stroke="#111" stroke-width="1.22" stroke-linecap="round" stroke-linejoin="round"/>
<path d="M 6.0 27.0 L 6.38 26.96 L 6.75 26.92 L 7.12 26.88 L 7.5 26.83 L 7.88 26.79 L 8.25 26.75 L 8.62 26.71 L 9.0 26.67 L 9.38 26.62 L 9.75 26.58 L 10.12 26.54 L 10.5 26.5 L 10.88 26.46 L 11.25 26.42 L 11.62 26.38 L 12.0 26.33 L 12.38 26.29 L 12.75 26.25 L 13.12 26.21 L 13.5 26.17 L 13.88 26.12 L 14.25 26.08 L 14.63 26.04 L 15.0 26.0" fill="none" stroke="#111" stroke-width="1.22" stroke-linecap="round" stroke-linejoin="round"/>
<path d="M 6.0 24.0 L 6.0 24.25 L 6.0 24.5 L 6.0 24.75 L 6.0 25.0 L 6.0 25.25 L 6.0 25.5 L 6.0 25.75 L 6.0 26.0 L 6.0 26.25 L 6.0 26.5 L 6.0 26.75 L 6.0 27.0 L 6.0 27.25 L 6.0 27.5 L 6.0 27.75 L 6.0 28.0 L 6.0 28.25 L 6.0 28.5 L 6.0 28.75 L 6.0 29.0 L 6.0 29.25 L 6.0 29.5 L 6.0 29.75 L 6.0 30.0 L 6.0 30.0 L 6.58 30.32 L 7.18 30.57 L 7.82 30.76 L 8.46 30.88 L 9.12 30.94 L 9.78 30.92 L 10.43 30.83 L 11.07 30.67 L 11.69 30.44 L 12.28 30.15 L 12.84 29.79 L 13.35 29.38 L 13.82 28.92 L 14.24 28.41 L 14.6 27.85 L 14.9 27.27 L 15.13 26.65 L 15.3 26.01 L 15.39 25.36 L 15.42 24.7 L 15.38 24.04 L 15.26 23.39 L 15.08 22.76 L 14.83 22.15" fill="none" stroke="#111" stroke-width="1.22" stroke-linecap="round" stroke-linejoin="round"/>
<path d="M 4.0 11.0 L 4.0 11.12 L 4.0 11.25 L 4.0 11.38 L 4.0 11.5 L 4.0 11.62 L 4.0 11.75 L 4.0 11.88 L 4.0 12.0 L 4.0 12.12 L 4.0 12.25 L 4.0 12.38 L 4.0 12.5 L 4.0 12.62 L 4.0 12.75 L 4.0 12.88 L 4.0 13.0 L 4.0 13.12 L 4.0 13.25 L 4.0 13.38 L 4.0 13.5 L 4.0 13.62 L 4.0 13.75 L 4.0 13.88 L 4.0 14.0" fill="none" stroke="#111" stroke-width="1.22" stroke-linecap="round" stroke-linejoin="round"/>
<path d="M 5.0 21.0 L 5.0 21.08 L 5.0 21.17 L 5.0 21.25 L 5.0 21.33 L 5.0 21.42 L 5.0 21.5 L 5.0 21.58 L 5.0 21.67 L 5.0 21.75 L 5.0 21.83 L 5.0 21.92 L 5.0 22.0 L 5.0 22.08 L 5.0 22.17 L 5.0 22.25 L 5.0 22.33 L 5.0 22.42 L 5.0 22.5 L 5.0 22.58 L 5.0 22.67 L 5.0 22.75 L 5.0 22.83 L 5.0 22.92 L 5.0 23.0" fill="none" stroke="#111" stroke-width="1.22" stroke-linecap="round" stroke-linejoin="round"/>
<path d="M 16.0 6.0 L 16.0 6.08 L 16.0 6.17 L 16.0 6.25 L 16.0 6.33 L 16.0 6.42 L 16.0 6.5 L 16.0 6.58 L 16.0 6.67 L 16.0 6.75 L 16.0 6.83 L 16.0 6.92 L 16.0 7.0 L 16.0 7.08 L 16.0 7.17 L 16.0 7.25 L 16.0 7.33 L 16.0 7.42 L 16.0 7.5 L 16.0 7.58 L 16.0 7.67 L 16.0 7.75 L 16.0 7.83 L 16.0 7.92 L 16.0 8.0" fill="none" stroke="#111" stroke-width="1.22" stroke-linecap="round" stroke-linejoin="round"/>
<path d="M 18.0 14.0 L 18.0 14.12 L 18.0 14.25 L 18.0 14.38 L 18.0 14.5 L 18.0 14.62 L 18.0 14.75 L 18.0 14.88 L 18.0 15.0 L 18.0 15.12 L 18.0 15.25 L 18.0 15.38 L 18.0 15.5 L 18.0 15.62 L 18.0 15.75 L 18.0 15.88 L 18.0 16.0 L 18.0 16.12 L 18.0 16.25 L 18.0 16.38 L 18.0 16.5 L 18.0 16.62 L 18.0 16.75 L 18.0 16.88 L 18.0 17.0" fill="none" stroke="#111" stroke-width="1.22" stroke-linecap="round" stroke-linejoin="round"/>
<path d="M 17.0 18.0 L 17.0 18.12 L 17.0 18.25 L 17.0 18.38 L 17.0 18.5 L 17.0 18.62 L 17.0 18.75 L 17.0 18.88 L 17.0 19.0 L 17.0 19.12 L 17.0 19.25 L 17.0 19.38 L 17.0 19.5 L 17.0 19.62 L 17.0 19.75 L 17.0 19.88 L 17.0 20.0 L 17.0 20.12 L 17.0 20.25 L 17.0 20.38 L 17.0 20.5 L 17.0 20.62 L 17.0 20.75 L 17.0 20.88 L 17.0 21.0" fill="none" stroke="#111" stroke-width="1.22" stroke-linecap="round" stroke-linejoin="round"/>
</svg>
