<?xml version="1.0" encoding="UTF-8"?>
<svg xmlns="http://www.w3.org/2000/svg" viewBox="0 0 24.07 33.72">
<path d="M 4.69 18.0 L 4.47 17.35 L 4.29 16.69 L 4.15 16.01 L 4.06 15.33 L 4.01 14.65 L 4.0 13.96 L 4.04 13.28 L 4.12 12.59 L 4.24 11.92 L 4.41 11.25 L 4.62 10.6 L 4.87 9.96 L 5.16 9.34 L 5.49 8.73 L 5.86 8.15 L 6.26 7.6 L 6.7 7.07 L 7.17 6.57 L 7.67 6.1 L 8.2 5.66 L 8.76 5.26 L 9.34 4.9 L 9.94 4.57 L 10.57 4.28 L 10.69 4.0 L 11.52 4.35 L 12.33 4.75 L 13.12 5.19 L 13.87 5.69 L 14.59 6.23 L 15.28 6.82 L 15.93 7.44 L 16.54 8.11 L 17.11 8.81 L 17.64 9.55 L 18.11 10.31 L 18.54 11.11 L 18.92 11.93 L 19.25 12.77 L 19.52 13.63 L 19.74 14.5 L 19.91 15.39 L 20.02 16.29 L 20.07 17.19 L 20.07 18.09 L 20.02 18.99 L 19.9 19.89 L 19.74 20.78 L 19.52 21.65" fill="none" stroke="#111" stroke-width="1.18" stroke-linecap="round" stroke-linejoin="round"/>
<path d="M 9.69 12.0 L 10.07 11.55 L 10.53 11.17 L 11.05 10.89 L 11.61 10.7 L 12.2 10.62 L 12.79 10.65 L 13.36 10.79 L 13.9 11.03 L 14.39 11.37 L 14.81 11.79 L 15.14 12.28 L 15.38 12.82 L 15.52 13.4 L 15.54 13.99 L 15.46 14.57 L 15.27 15.13 L 14.98 15.65 L 14.61 16.11 L 14.15 16.49 L 13.63 16.78 L 13.07 16.97 L 12.49 17.05 L 11.9 17.02 L 11.32 16.89" fill="none" stroke="#111" stroke-width="1.18" stroke-linecap="round" stroke-linejoin="round"/>
<path d="M 10.69 12.0 L 10.73 12.12 L 10.77 12.25 L 10.81 12.38 L 10.86 12.5 L 10.9 12.62 L 10.94 12.75 L 10.98 12.88 L 11.02 13.0 L 11.06 13.12 L 11.11 13.25 L 11.15 13.38 L 11.19 13.5 L 11.23 13.62 L 11.27 13.75 L 11.31 13.88 L 11.36 14.0 L 11.4 14.12 L 11.44 14.25 L 11.48 14.38 L 11.52 14.5 L 11.56 14.62 L 11.61 14.75 L 11.65 14.88 L 11.69 15.0" fill="none" stroke="#111" stroke-width="1.18" stroke-linecap="round" stroke-linejoin="round"/>
<path d="M 11.69 9.0 L 11.81 9.21 L 11.94 9.42 L 12.06 9.62 L 12.19 9.83 L 12.31 10.04 L 12.44 10.25 L 12.56 10.46 L 12.69 10.67 L 12.81 10.88 L 12.94 11.08 L 13.06 11.29 L 13.19 11.5 L 13.31 11.71 L 13.44 11.92 L 13.56 12.12 L 13.69 12.33 L 13.81 12.54 L 13.94 12.75 L 14.06 12.96 L 14.19 13.17 L 14.31 13.38 L 14.44 13.58 L 14.56 13.79 L 14.69 14.0 L 14.69 14.0 L 14.23 13.86 L 13.76 13.79 L 13.28 13.8 L 12.81 13.88 L 12.36 14.05 L 11.95 14.28 L 11.57 14.58 L 11.25 14.93 L 10.99 15.33 L 10.8 15.77 L 10.69 16.24 L 10.65 16.71 L 10.69 17.19 L 10.8 17.65 L 10.99 18.09 L 11.25 18.49 L 11.57 18.85 L 11.95 19.15 L 12.36 19.38 L 12.81 19.54 L 13.28 19.63 L 13.76 19.64 L 14.23 19.57 L 14.69 19.43 L 14.69 17.0 L 14.61 17.25 L 14.52 17.5 L 14.44 17.75 L 14.36 18.0 L 14.27 18.25 L 14.19 18.5 L 14.11 18.75 L 14.02 19.0 L 13.94 19.25 L 13.86 19.5 L 13.77 19.75 L 13.69 20.0 L 13.61 20.25 L 13.52 20.5 L 13.44 20.75 L 13.36 21.0 L 13.27 21.25 L 13.19 21.5 L 13.11 21.75 L 13.02 22.0 L 12.94 22.25 L 12.86 22.5 L 12.77 22.75 L 12.69 23.0" fill="none" stroke="#111" stroke-width="1.18" stroke-linecap="round" stroke-linejoin="round"/>
<path d="M 6.69 11.0 L 6.81 10.96 L 6.94 10.92 L 7.06 10.88 L 7.19 10.83 L 7.31 10.79 L 7.44 10.75 L 7.56 10.71 L 7.69 10.67 L 7.81 10.62 L 7.94 10.58 L 8.06 10.54 L 8.19 10.5 L 8.31 10.46 L 8.44 10.42 L 8.56 10.38 L 8.69 10.33 L 8.81 10.29 L 8.94 10.25 L 9.06 10.21 L 9.19 10.17 L 9.31 10.12 L 9.44 10.08 L 9.56 10.04 L 9.69 10.0" fill="none" stroke="#111" stroke-width="1.18" stroke-linecap="round" stroke-linejoin="round"/>
<path d="M 7.69 11.0 L 7.85 11.4 L 7.99 11.8 L 8.12 12.2 L 8.23 12.61 L 8.34 13.02 L 8.43 13.44 L 8.5 13.85 L 8.57 14.27 L 8.61 14.7 L 8.65 15.12 L 8.67 15.54 L 8.68 15.97 L 8.67 16.39 L 8.65 16.82 L 8.61 17.24 L 8.57 17.66 L 8.5 18.08 L 8.43 18.5 L 8.34 18.92 L 8.23 19.33 L 8.12 19.74 L 7.99 20.14 L 7.85 20.54 L 7.69 20.94" fill="none" stroke="#111" stroke-width="1.18" stroke-linecap="round" stroke-linejoin="round"/>
<path d="M 8.69 14.0 L 8.61 14.12 L 8.52 14.25 L 8.44 14.38 L 8.36 14.5 L 8.27 14.62 L 8.19 14.75 L 8.11 14.88 L 8.02 15.0 L 7.94 15.12 L 7.86 15.25 L 7.77 15.38 L 7.69 15.5 L 7.61 15.62 L 7.52 15.75 L 7.44 15.88 L 7.36 16.0 L 7.27 16.12 L 7.19 16.25 L 7.11 16.38 L 7.02 16.5 L 6.94 16.62 L 6.86 16.75 L 6.77 16.88 L 6.69 17.0" fill="none" stroke="#111" stroke-width="1.18" stroke-linecap="round" stroke-linejoin="round"/>
<path d="M 8.69 23.0 L 8.42 23.55 L 8.22 24.12 L 8.11 24.72 L 8.08 25.33 L 8.13 25.94 L 8.26 26.53 L 8.48 27.1 L 8.77 27.64 L 9.12 28.13 L 9.55 28.57 L 10.02 28.94 L 10.55 29.25 L 11.11 29.49 L 11.7 29.64 L 12.3 29.72 L 12.91 29.71 L 13.52 29.62 L 14.1 29.45 L 14.65 29.2 L 15.17 28.88 L 15.64 28.48 L 16.05 28.03 L 16.39 27.53 L 16.67 26.99" fill="none" stroke="#111" stroke-width="1.18" stroke-linecap="round" stroke-linejoin="round"/>
<path d="M 10.69 26.0 L 10.98 25.88 L 11.27 25.75 L 11.56 25.62 L 11.86 25.5 L 12.15 25.38 L 12.44 25.25 L 12.73 25.12 L 13.02 25.0 L 13.31 24.88 L 13.61 24.75 L 13.9 24.62 L 14.19 24.5 L 14.48 24.38 L 14.77 24.25 L 15.06 24.12 L 15.36 24.0 L 15.65 23.88 L 15.94 23.75 L 16.23 23.62 L 16.52 23.5 L 16.81 23.38 L 17.11 23.25 L 17.4 23.12 L 17.69 23.0" fill="none" stroke="#111" stroke-width="1.18" stroke-linecap="round" stroke-linejoin="round"/>
</svg>
