<?xml version="1.0" encoding="UTF-8"?>
<svg xmlns="http://www.w3.org/2000/svg" viewBox="0 0 23.46 32.70">
<path d="M 7.21 9.91 L 7.25 9.57 L 7.31 9.23 L 7.39 8.9 L 7.48 8.58 L 7.59 8.25 L 7.71 7.94 L 7.85 7.63 L 8.0 7.32 L 8.17 7.03 L 8.36 6.74 L 8.56 6.47 L 8.77 6.2 L 8.99 5.94 L 9.23 5.7 L 9.48 5.47 L 9.73 5.25 L 10.0 5.04 L 10.28 4.85 L 10.57 4.67 L 10.87 4.5 L 11.18 4.35 L 11.49 4.22 L 11.81 4.1 L 12.13 4.0" fill="none" stroke="#111" stroke-width="1.14" stroke-linecap="round" stroke-linejoin="round"/>
<path d="M 9.21 5.91 L 9.21 5.99 L 9.21 6.07 L 9.21 6.16 L 9.21 6.24 L 9.21 6.32 L 9.21 6.41 L 9.21 6.49 L 9.21 6.57 L 9.21 6.66 L 9.21 6.74 L 9.21 6.82 L 9.21 6.91 L 9.21 6.99 L 9.21 7.07 L 9.21 7.16 L 9.21 7.24 L 9.21 7.32 L 9.21 7.41 L 9.21 7.49 L 9.21 7.57 L 9.21 7.66 L 9.21 7.74 L 9.21 7.82 L 9.21 7.91" fill="none" stroke="#111" stroke-width="1.14" stroke-linecap="round" stroke-linejoin="round"/>
<path d="M 11.21 4.91 L 11.21 4.99 L 11.21 5.07 L 11.21 5.16 L 11.21 5.24 L 11.21 5.32 L 11.21 5.41 L 11.21 5.49 L 11.21 5.57 L 11.21 5.66 L 11.21 5.74 L 11.21 5.82 L 11.21 5.91 L 11.21 5.99 L 11.21 6.07 L 11.21 6.16 L 11.21 6.24 L 11.21 6.32 L 11.21 6.41 L 11.21 6.49 L 11.21 6.57 L 11.21 6.66 L 11.21 6.74 L 11.21 6.82 L 11.21 6.91" fill="none" stroke="#111" stroke-width="1.14" stroke-linecap="round" stroke-linejoin="round"/>
<path d="M 5.21 12.91 L 6.06 12.36 L 6.97 11.9 L 7.92 11.56 L 8.91 11.32 L 9.92 11.2 L 10.93 11.19 L 11.94 11.3 L 12.93 11.51 L 13.89 11.84 L 14.81 12.28 L 15.67 12.82 L 16.46 13.45 L 17.18 14.16 L 17.81 14.95 L 18.35 15.81 L 18.79 16.73 L 19.13 17.68 L 19.35 18.67 L 19.46 19.68 L 19.46 20.7 L 19.34 21.7 L 19.1 22.69 L 18.76 23.65 L 18.32 24.56 L 14.21 20.91 L 14.54 20.92 L 14.86 20.96 L 15.19 21.04 L 15.5 21.14 L 15.8 21.27 L 16.09 21.43 L 16.36 21.61 L 16.61 21.82 L 16.85 22.05 L 17.06 22.3 L 17.24 22.57 L 17.4 22.86 L 17.54 23.16 L 17.64 23.47 L 17.72 23.79 L 17.76 24.12 L 17.78 24.45 L 17.76 24.78 L 17.72 25.1 L 17.64 25.42 L 17.53 25.73 L 17.4 26.03 L 17.24 26.32 L 17.05 26.59" fill="none" stroke="#111" stroke-width="1.14" stroke-linecap="round" stroke-linejoin="round"/>
<path d="M 15.21 12.91 L 15.0 13.24 L 14.82 13.59 L 14.66 13.95 L 14.54 14.32 L 14.45 14.71 L 14.38 15.1 L 14.35 15.49 L 14.35 15.88 L 14.38 16.27 L 14.44 16.66 L 14.54 17.04 L 14.66 17.42 L 14.81 17.78 L 14.99 18.13 L 15.2 18.46 L 15.44 18.78 L 15.7 19.08 L 15.98 19.35 L 16.28 19.6 L 16.6 19.83 L 16.94 20.03 L 17.3 20.2 L 17.66 20.34 L 18.04 20.46 L 18.21 20.91 L 17.97 21.06 L 17.75 21.22 L 17.54 21.4 L 17.34 21.6 L 17.15 21.81 L 16.99 22.03 L 16.84 22.27 L 16.7 22.51 L 16.59 22.77 L 16.49 23.03 L 16.42 23.3 L 16.36 23.57 L 16.32 23.85 L 16.31 24.13 L 16.31 24.41 L 16.34 24.69 L 16.39 24.96 L 16.45 25.24 L 16.54 25.5 L 16.64 25.76 L 16.77 26.01 L 16.91 26.25 L 17.07 26.48 L 17.25 26.7" fill="none" stroke="#111" stroke-width="1.14" stroke-linecap="round" stroke-linejoin="round"/>
<path d="M 10.21 9.91 L 10.53 10.4 L 10.83 10.92 L 11.1 11.45 L 11.33 11.99 L 11.54 12.55 L 11.71 13.12 L 11.85 13.7 L 11.95 14.28 L 12.03 14.87 L 12.06 15.46 L 12.07 16.05 L 12.04 16.65 L 11.98 17.24 L 11.88 17.82 L 11.75 18.4 L 11.59 18.97 L 11.4 19.53 L 11.17 20.08 L 10.92 20.62 L 10.63 21.14 L 10.31 21.64 L 9.97 22.12 L 9.6 22.59 L 9.2 23.03 L 9.21 22.91 L 9.52 22.99 L 9.82 23.09 L 10.12 23.21 L 10.4 23.35 L 10.68 23.51 L 10.95 23.68 L 11.2 23.87 L 11.45 24.08 L 11.68 24.3 L 11.89 24.53 L 12.1 24.78 L 12.28 25.04 L 12.45 25.31 L 12.6 25.59 L 12.73 25.88 L 12.85 26.18 L 12.95 26.48 L 13.02 26.79 L 13.08 27.11 L 13.12 27.42 L 13.14 27.74 L 13.13 28.06 L 13.11 28.38 L 13.07 28.7" fill="none" stroke="#111" stroke-width="1.14" stroke-linecap="round" stroke-linejoin="round"/>
<path d="M 11.21 15.91 L 10.91 16.1 L 10.63 16.33 L 10.37 16.58 L 10.13 16.86 L 9.93 17.15 L 9.76 17.47 L 9.62 17.8 L 9.51 18.15 L 9.44 18.5 L 9.4 18.86 L 9.39 19.22 L 9.43 19.58 L 9.5 19.93 L 9.6 20.28 L 9.74 20.61 L 9.91 20.93 L 10.11 21.23 L 10.33 21.51 L 10.59 21.76 L 10.87 21.99 L 11.17 22.19 L 11.49 22.36 L 11.82 22.5 L 12.17 22.6 L 12.21 22.91 L 11.96 23.08 L 11.73 23.29 L 11.52 23.51 L 11.34 23.75 L 11.17 24.01 L 11.04 24.28 L 10.93 24.57 L 10.84 24.86 L 10.79 25.16 L 10.77 25.47 L 10.77 25.77 L 10.81 26.08 L 10.87 26.37 L 10.97 26.66 L 11.09 26.95 L 11.24 27.21 L 11.41 27.46 L 11.6 27.7 L 11.82 27.91 L 12.06 28.1 L 12.32 28.27 L 12.59 28.41 L 12.87 28.53 L 13.16 28.62" fill="none" stroke="#111" stroke-width="1.14" stroke-linecap="round" stroke-linejoin="round"/>
<path d="M 6.21 12.91 L 6.23 13.25 L 6.25 13.59 L 6.25 13.93 L 6.25 14.28 L 6.23 14.62 L 6.2 14.96 L 6.16 15.3 L 6.11 15.64 L 6.06 15.98 L 5.99 16.31 L 5.91 16.65 L 5.82 16.98 L 5.72 17.31 L 5.61 17.63 L 5.49 17.95 L 5.36 18.27 L 5.22 18.58 L 5.08 18.89 L 4.92 19.2 L 4.75 19.5 L 4.58 19.79 L 4.39 20.08 L 4.2 20.37 L 4.0 20.64 L 4.21 19.91 L 4.53 20.1 L 4.84 20.31 L 5.14 20.54 L 5.41 20.79 L 5.67 21.07 L 5.91 21.35 L 6.13 21.66 L 6.33 21.98 L 6.5 22.31 L 6.65 22.65 L 6.78 23.0 L 6.89 23.36 L 6.96 23.73 L 7.02 24.1 L 7.04 24.47 L 7.05 24.85 L 7.02 25.22 L 6.97 25.59 L 6.89 25.96 L 6.79 26.32 L 6.67 26.67 L 6.52 27.02 L 6.35 27.35 L 6.15 27.67" fill="none" stroke="#111" stroke-width="1.14" stroke-linecap="round" stroke-linejoin="round"/>
<path d="M 5.21 15.91 L 5.03 16.1 L 4.87 16.32 L 4.73 16.54 L 4.61 16.78 L 4.52 17.03 L 4.45 17.29 L 4.4 17.55 L 4.39 17.82 L 4.4 18.09 L 4.43 18.35 L 4.5 18.61 L 4.58 18.87 L 4.69 19.11 L 4.83 19.34 L 4.99 19.56 L 5.16 19.76 L 5.36 19.94 L 5.57 20.1 L 5.8 20.24 L 6.04 20.36 L 6.29 20.45 L 6.55 20.52 L 6.81 20.56 L 7.08 20.58 L 7.21 20.91 L 6.87 21.02 L 6.54 21.17 L 6.23 21.35 L 5.94 21.56 L 5.67 21.79 L 5.42 22.05 L 5.2 22.33 L 5.01 22.63 L 4.84 22.95 L 4.71 23.28 L 4.61 23.63 L 4.54 23.98 L 4.51 24.34 L 4.51 24.69 L 4.54 25.05 L 4.61 25.4 L 4.71 25.75 L 4.85 26.08 L 5.01 26.4 L 5.21 26.7 L 5.43 26.98 L 5.68 27.24 L 5.95 27.47 L 6.24 27.68" fill="none" stroke="#111" stroke-width="1.14" stroke-linecap="round" stroke-linejoin="round"/>
</svg>
