<?xml version="1.0" encoding="UTF-8"?>
<svg xmlns="http://www.w3.org/2000/svg" viewBox="0 0 24.00 39.38">
<path d="M 11.0 4.0 L 10.77 4.52 L 10.56 5.06 L 10.38 5.6 L 10.23 6.16 L 10.1 6.72 L 10.0 7.28 L 9.93 7.85 L 9.89 8.43 L 9.88 9.0 L 9.9 9.57 L 9.94 10.15 L 10.02 10.72 L 10.12 11.28 L 10.25 11.84 L 10.4 12.39 L 10.59 12.94 L 10.8 13.47 L 11.04 13.99 L 11.3 14.5 L 11.59 15.0 L 11.9 15.48 L 12.23 15.95 L 12.59 16.4 L 12.97 16.83 L 13.0 17.0 L 12.21 17.42 L 11.45 17.91 L 10.72 18.45 L 10.04 19.04 L 9.41 19.68 L 8.83 20.36 L 8.3 21.09 L 7.82 21.86 L 7.4 22.65 L 7.05 23.48 L 6.76 24.33 L 6.53 25.21 L 6.36 26.09 L 6.27 26.99 L 6.24 27.89 L 6.28 28.79 L 6.39 29.68 L 6.56 30.57 L 6.8 31.43 L 7.1 32.28 L 7.47 33.11 L 7.89 33.9 L 8.38 34.66 L 8.92 35.38" fill="none" stroke="#111" stroke-width="1.38" stroke-linecap="round" stroke-linejoin="round"/>
<path d="M 7.0 10.0 L 7.25 9.88 L 7.5 9.75 L 7.75 9.62 L 8.0 9.5 L 8.25 9.38 L 8.5 9.25 L 8.75 9.12 L 9.0 9.0 L 9.25 8.88 L 9.5 8.75 L 9.75 8.62 L 10.0 8.5 L 10.25 8.38 L 10.5 8.25 L 10.75 8.12 L 11.0 8.0 L 11.25 7.88 L 11.5 7.75 L 11.75 7.62 L 12.0 7.5 L 12.25 7.38 L 12.5 7.25 L 12.75 7.12 L 13.0 7.0" fill="none" stroke="#111" stroke-width="1.38" stroke-linecap="round" stroke-linejoin="round"/>
<path d="M 7.0 10.0 L 7.0 10.25 L 7.0 10.5 L 7.0 10.75 L 7.0 11.0 L 7.0 11.25 L 7.0 11.5 L 7.0 11.75 L 7.0 12.0 L 7.0 12.25 L 7.0 12.5 L 7.0 12.75 L 7.0 13.0 L 7.0 13.25 L 7.0 13.5 L 7.0 13.75 L 7.0 14.0 L 7.0 14.25 L 7.0 14.5 L 7.0 14.75 L 7.0 15.0 L 7.0 15.25 L 7.0 15.5 L 7.0 15.75 L 7.0 16.0" fill="none" stroke="#111" stroke-width="1.38" stroke-linecap="round" stroke-linejoin="round"/>
<path d="M 13.0 7.0 L 13.08 7.17 L 13.17 7.33 L 13.25 7.5 L 13.33 7.67 L 13.42 7.83 L 13.5 8.0 L 13.58 8.17 L 13.67 8.33 L 13.75 8.5 L 13.83 8.67 L 13.92 8.83 L 14.0 9.0 L 14.08 9.17 L 14.17 9.33 L 14.25 9.5 L 14.33 9.67 L 14.42 9.83 L 14.5 10.0 L 14.58 10.17 L 14.67 10.33 L 14.75 10.5 L 14.83 10.67 L 14.92 10.83 L 15.0 11.0 L 15.0 11.0 L 14.54 11.17 L 14.08 11.33 L 13.63 11.5 L 13.17 11.67 L 12.71 11.83 L 12.25 12.0 L 11.79 12.17 L 11.33 12.33 L 10.88 12.5 L 10.42 12.67 L 9.96 12.83 L 9.5 13.0 L 9.04 13.17 L 8.58 13.33 L 8.12 13.5 L 7.67 13.67 L 7.21 13.83 L 6.75 14.0 L 6.29 14.17 L 5.83 14.33 L 5.38 14.5 L 4.92 14.67 L 4.46 14.83 L 4.0 15.0" fill="none" stroke="#111" stroke-width="1.38" stroke-linecap="round" stroke-linejoin="round"/>
<path d="M 4.0 11.0 L 4.08 11.17 L 4.17 11.33 L 4.25 11.5 L 4.33 11.67 L 4.42 11.83 L 4.5 12.0 L 4.58 12.17 L 4.67 12.33 L 4.75 12.5 L 4.83 12.67 L 4.92 12.83 L 5.0 13.0 L 5.08 13.17 L 5.17 13.33 L 5.25 13.5 L 5.33 13.67 L 5.42 13.83 L 5.5 14.0 L 5.58 14.17 L 5.67 14.33 L 5.75 14.5 L 5.83 14.67 L 5.92 14.83 L 6.0 15.0" fill="none" stroke="#111" stroke-width="1.38" stroke-linecap="round" stroke-linejoin="round"/>
<path d="M 14.0 13.0 L 14.0 13.17 L 14.0 13.33 L 14.0 13.5 L 14.0 13.67 L 14.0 13.83 L 14.0 14.0 L 14.0 14.17 L 14.0 14.33 L 14.0 14.5 L 14.0 14.67 L 14.0 14.83 L 14.0 15.0 L 14.0 15.17 L 14.0 15.33 L 14.0 15.5 L 14.0 15.67 L 14.0 15.83 L 14.0 16.0 L 14.0 16.17 L 14.0 16.33 L 14.0 16.5 L 14.0 16.67 L 14.0 16.83 L 14.0 17.0" fill="none" stroke="#111" stroke-width="1.38" stroke-linecap="round" stroke-linejoin="round"/>
<path d="M 16.0 5.0 L 16.0 5.79 L 16.0 6.58 L 16.0 7.38 L 16.0 8.17 L 16.0 8.96 L 16.0 9.75 L 16.0 10.54 L 16.0 11.33 L 16.0 12.12 L 16.0 12.92 L 16.0 13.71 L 16.0 14.5 L 16.0 15.29 L 16.0 16.08 L 16.0 16.88 L 16.0 17.67 L 16.0 18.46 L 16.0 19.25 L 16.0 20.04 L 16.0 20.83 L 16.0 21.62 L 16.0 22.42 L 16.0 23.21 L 16.0 24.0" fill="none" stroke="#111" stroke-width="1.38" stroke-linecap="round" stroke-linejoin="round"/>
<path d="M 16.0 10.0 L 16.17 9.96 L 16.33 9.92 L 16.5 9.88 L 16.67 9.83 L 16.83 9.79 L 17.0 9.75 L 17.17 9.71 L 17.33 9.67 L 17.5 9.62 L 17.67 9.58 L 17.83 9.54 L 18.0 9.5 L 18.17 9.46 L 18.33 9.42 L 18.5 9.38 L 18.67 9.33 L 18.83 9.29 L 19.0 9.25 L 19.17 9.21 L 19.33 9.17 L 19.5 9.12 L 19.67 9.08 L 19.83 9.04 L 20.0 9.0" fill="none" stroke="#111" stroke-width="1.38" stroke-linecap="round" stroke-linejoin="round"/>
<path d="M 16.0 19.0 L 16.17 19.0 L 16.33 19.0 L 16.5 19.0 L 16.67 19.0 L 16.83 19.0 L 17.0 19.0 L 17.17 19.0 L 17.33 19.0 L 17.5 19.0 L 17.67 19.0 L 17.83 19.0 L 18.0 19.0 L 18.17 19.0 L 18.33 19.0 L 18.5 19.0 L 18.67 19.0 L 18.83 19.0 L 19.0 19.0 L 19.17 19.0 L 19.33 19.0 L 19.5 19.0 L 19.67 19.0 L 19.83 19.0 L 20.0 19.0" fill="none" stroke="#111" stroke-width="1.38" stroke-linecap="round" stroke-linejoin="round"/>
<path d="M 20.0 6.0 L 20.0 6.21 L 20.0 6.42 L 20.0 6.62 L 20.0 6.83 L 20.0 7.04 L 20.0 7.25 L 20.0 7.46 L 20.0 7.67 L 20.0 7.88 L 20.0 8.08 L 20.0 8.29 L 20.0 8.5 L 20.0 8.71 L 20.0 8.92 L 20.0 9.12 L 20.0 9.33 L 20.0 9.54 L 20.0 9.75 L 20.0 9.96 L 20.0 10.17 L 20.0 10.38 L 20.0 10.58 L 20.0 10.79 L 20.0 11.0" fill="none" stroke="#111" stroke-width="1.38" stroke-linecap="round" stroke-linejoin="round"/>
<path d="M 20.0 16.0 L 20.0 16.25 L 20.0 16.5 L 20.0 16.75 L 20.0 17.0 L 20.0 17.25 L 20.0 17.5 L 20.0 17.75 L 20.0 18.0 L 20.0 18.25 L 20.0 18.5 L 20.0 18.75 L 20.0 19.0 L 20.0 19.25 L 20.0 19.5 L 20.0 19.75 L 20.0 20.0 L 20.0 20.25 L 20.0 20.5 L 20.0 20.75 L 20.0 21.0 L 20.0 21.25 L 20.0 21.5 L 20.0 21.75 L 20.0 22.0" fill="none" stroke="#111" stroke-width="1.38" stroke-linecap="round" stroke-linejoin="round"/>
<path d="M 18.0 12.0 L 18.0 12.17 L 18.0 12.33 L 18.0 12.5 L 18.0 12.67 L 18.0 12.83 L 18.0 13.0 L 18.0 13.17 L 18.0 13.33 L 18.0 13.5 L 18.0 13.67 L 18.0 13.83 L 18.0 14.0 L 18.0 14.17 L 18.0 14.33 L 18.0 14.5 L 18.0 14.67 L 18.0 14.83 L 18.0 15.0 L 18.0 15.17 L 18.0 15.33 L 18.0 15.5 L 18.0 15.67 L 18.0 15.83 L 18.0 16.0" fill="none" stroke="#111" stroke-width="1.38" stroke-linecap="round" stroke-linejoin="round"/>
</svg>
