<?xml version="1.0" encoding="UTF-8"?>
<svg xmlns="http://www.w3.org/2000/svg" viewBox="0 0 27.00 37.00">
<path d="M 4.0 7.0 L 4.79 7.12 L 5.58 7.25 L 6.38 7.38 L 7.17 7.5 L 7.96 7.62 L 8.75 7.75 L 9.54 7.88 L 10.33 8.0 L 11.12 8.12 L 11.92 8.25 L 12.71 8.38 L 13.5 8.5 L 14.29 8.62 L 15.08 8.75 L 15.87 8.88 L 16.67 9.0 L 17.46 9.12 L 18.25 9.25 L 19.04 9.38 L 19.83 9.5 L 20.62 9.62 L 21.42 9.75 L 22.21 9.88 L 23.0 10.0" fill="none" stroke="#111" stroke-width="1.30" stroke-linecap="round" stroke-linejoin="round"/>
<path d="M 4.0 7.0 L 4.0 7.33 L 4.0 7.67 L 4.0 8.0 L 4.0 8.33 L 4.0 8.67 L 4.0 9.0 L 4.0 9.33 L 4.0 9.67 L 4.0 10.0 L 4.0 10.33 L 4.0 10.67 L 4.0 11.0 L 4.0 11.33 L 4.0 11.67 L 4.0 12.0 L 4.0 12.33 L 4.0 12.67 L 4.0 13.0 L 4.0 13.33 L 4.0 13.67 L 4.0 14.0 L 4.0 14.33 L 4.0 14.67 L 4.0 15.0" fill="none" stroke="#111" stroke-width="1.30" stroke-linecap="round" stroke-linejoin="round"/>
<path d="M 4.0 15.0 L 4.79 14.79 L 5.58 14.58 L 6.38 14.38 L 7.17 14.17 L 7.96 13.96 L 8.75 13.75 L 9.54 13.54 L 10.33 13.33 L 11.12 13.12 L 11.92 12.92 L 12.71 12.71 L 13.5 12.5 L 14.29 12.29 L 15.08 12.08 L 15.88 11.88 L 16.67 11.67 L 17.46 11.46 L 18.25 11.25 L 19.04 11.04 L 19.83 10.83 L 20.62 10.62 L 21.42 10.42 L 22.21 10.21 L 23.0 10.0" fill="none" stroke="#111" stroke-width="1.30" stroke-linecap="round" stroke-linejoin="round"/>
<path d="M 16.0 5.0 L 16.0 6.08 L 16.0 7.17 L 16.0 8.25 L 16.0 9.33 L 16.0 10.42 L 16.0 11.5 L 16.0 12.58 L 16.0 13.67 L 16.0 14.75 L 16.0 15.83 L 16.0 16.92 L 16.0 18.0 L 16.0 19.08 L 16.0 20.17 L 16.0 21.25 L 16.0 22.33 L 16.0 23.42 L 16.0 24.5 L 16.0 25.58 L 16.0 26.67 L 16.0 27.75 L 16.0 28.83 L 16.0 29.92 L 16.0 31.0" fill="none" stroke="#111" stroke-width="1.30" stroke-linecap="round" stroke-linejoin="round"/>
<path d="M 16.0 5.0 L 16.25 4.96 L 16.5 4.92 L 16.75 4.88 L 17.0 4.83 L 17.25 4.79 L 17.5 4.75 L 17.75 4.71 L 18.0 4.67 L 18.25 4.62 L 18.5 4.58 L 18.75 4.54 L 19.0 4.5 L 19.25 4.46 L 19.5 4.42 L 19.75 4.38 L 20.0 4.33 L 20.25 4.29 L 20.5 4.25 L 20.75 4.21 L 21.0 4.17 L 21.25 4.12 L 21.5 4.08 L 21.75 4.04 L 22.0 4.0" fill="none" stroke="#111" stroke-width="1.30" stroke-linecap="round" stroke-linejoin="round"/>
<path d="M 12.0 33.0 L 12.38 32.88 L 12.75 32.75 L 13.12 32.62 L 13.5 32.5 L 13.88 32.38 L 14.25 32.25 L 14.62 32.12 L 15.0 32.0 L 15.38 31.88 L 15.75 31.75 L 16.12 31.62 L 16.5 31.5 L 16.88 31.38 L 17.25 31.25 L 17.62 31.12 L 18.0 31.0 L 18.38 30.88 L 18.75 30.75 L 19.12 30.62 L 19.5 30.5 L 19.88 30.38 L 20.25 30.25 L 20.62 30.12 L 21.0 30.0" fill="none" stroke="#111" stroke-width="1.30" stroke-linecap="round" stroke-linejoin="round"/>
<path d="M 7.0 19.0 L 6.78 19.26 L 6.59 19.55 L 6.41 19.84 L 6.27 20.15 L 6.15 20.48 L 6.06 20.81 L 5.99 21.14 L 5.96 21.48 L 5.95 21.83 L 5.98 22.17 L 6.03 22.51 L 6.11 22.84 L 6.22 23.17 L 6.35 23.48 L 6.51 23.79 L 6.7 24.07 L 6.91 24.35 L 7.14 24.6 L 7.39 24.83 L 7.67 25.04 L 7.95 25.23 L 8.26 25.39 L 8.57 25.53 L 8.9 25.64 L 9.0 26.0 L 9.12 25.96 L 9.25 25.92 L 9.38 25.88 L 9.5 25.83 L 9.62 25.79 L 9.75 25.75 L 9.88 25.71 L 10.0 25.67 L 10.12 25.62 L 10.25 25.58 L 10.38 25.54 L 10.5 25.5 L 10.62 25.46 L 10.75 25.42 L 10.88 25.38 L 11.0 25.33 L 11.12 25.29 L 11.25 25.25 L 11.38 25.21 L 11.5 25.17 L 11.62 25.12 L 11.75 25.08 L 11.88 25.04 L 12.0 25.0" fill="none" stroke="#111" stroke-width="1.30" stroke-linecap="round" stroke-linejoin="round"/>
<path d="M 12.0 19.0 L 12.0 19.25 L 12.0 19.5 L 12.0 19.75 L 12.0 20.0 L 12.0 20.25 L 12.0 20.5 L 12.0 20.75 L 12.0 21.0 L 12.0 21.25 L 12.0 21.5 L 12.0 21.75 L 12.0 22.0 L 12.0 22.25 L 12.0 22.5 L 12.0 22.75 L 12.0 23.0 L 12.0 23.25 L 12.0 23.5 L 12.0 23.75 L 12.0 24.0 L 12.0 24.25 L 12.0 24.5 L 12.0 24.75 L 12.0 25.0" fill="none" stroke="#111" stroke-width="1.30" stroke-linecap="round" stroke-linejoin="round"/>
<path d="M 7.0 22.0 L 7.21 22.0 L 7.42 22.0 L 7.62 22.0 L 7.83 22.0 L 8.04 22.0 L 8.25 22.0 L 8.46 22.0 L 8.67 22.0 L 8.88 22.0 L 9.08 22.0 L 9.29 22.0 L 9.5 22.0 L 9.71 22.0 L 9.92 22.0 L 10.12 22.0 L 10.33 22.0 L 10.54 22.0 L 10.75 22.0 L 10.96 22.0 L 11.17 22.0 L 11.38 22.0 L 11.58 22.0 L 11.79 22.0 L 12.0 22.0" fill="none" stroke="#111" stroke-width="1.30" stroke-linecap="round" stroke-linejoin="round"/>
</svg>
