<?xml version="1.0" encoding="UTF-8"?>
<svg xmlns="http://www.w3.org/2000/svg" viewBox="0 0 25.57 36.00">
<path d="M 5.57 4.0 L 5.21 4.72 L 4.96 5.49 L 4.85 6.29 L 4.86 7.1 L 5.02 7.89 L 5.29 8.65 L 5.7 9.35 L 6.21 9.97 L 6.81 10.51 L 7.5 10.93 L 8.25 11.24 L 9.03 11.42 L 9.84 11.47 L 10.64 11.38 L 11.42 11.17 L 12.15 10.82 L 12.82 10.37 L 13.4 9.8 L 13.88 9.16 L 14.25 8.44 L 14.49 7.67 L 14.6 6.87 L 14.58 6.06 L 14.43 5.27" fill="none" stroke="#111" stroke-width="1.26" stroke-linecap="round" stroke-linejoin="round"/>
<path d="M 5.57 4.0 L 5.69 4.37 L 5.85 4.72 L 6.05 5.05 L 6.28 5.35 L 6.55 5.64 L 6.84 5.89 L 7.16 6.1 L 7.5 6.28 L 7.85 6.43 L 8.22 6.53 L 8.6 6.59 L 8.99 6.61 L 9.37 6.59 L 9.75 6.53 L 10.12 6.43 L 10.48 6.28 L 10.82 6.1 L 11.14 5.89 L 11.43 5.64 L 11.69 5.35 L 11.92 5.05 L 12.12 4.72 L 12.28 4.37 L 12.4 4.0" fill="none" stroke="#111" stroke-width="1.26" stroke-linecap="round" stroke-linejoin="round"/>
<path d="M 9.57 7.0 L 9.57 7.58 L 9.57 8.17 L 9.57 8.75 L 9.57 9.33 L 9.57 9.92 L 9.57 10.5 L 9.57 11.08 L 9.57 11.67 L 9.57 12.25 L 9.57 12.83 L 9.57 13.42 L 9.57 14.0 L 9.57 14.58 L 9.57 15.17 L 9.57 15.75 L 9.57 16.33 L 9.57 16.92 L 9.57 17.5 L 9.57 18.08 L 9.57 18.67 L 9.57 19.25 L 9.57 19.83 L 9.57 20.42 L 9.57 21.0 L 9.57 21.0 L 8.97 20.75 L 8.33 20.61 L 7.68 20.58 L 7.04 20.66 L 6.41 20.85 L 5.83 21.15 L 5.31 21.53 L 4.85 22.0 L 4.49 22.54 L 4.22 23.13 L 4.06 23.76 L 4.0 24.41 L 4.06 25.06 L 4.22 25.69 L 4.49 26.29 L 4.85 26.83 L 5.31 27.3 L 5.83 27.68 L 6.41 27.97 L 7.04 28.16 L 7.68 28.24 L 8.33 28.21 L 8.97 28.07 L 9.57 27.83 L 9.57 25.0 L 9.57 25.0 L 9.57 25.0 L 9.57 25.0 L 9.57 25.0 L 9.57 25.0 L 9.57 25.0 L 9.57 25.0 L 9.57 25.0 L 9.57 25.0 L 9.57 25.0 L 9.57 25.0 L 9.57 25.0 L 9.57 25.0 L 9.57 25.0 L 9.57 25.0 L 9.57 25.0 L 9.57 25.0 L 9.57 25.0 L 9.57 25.0 L 9.57 25.0 L 9.57 25.0 L 9.57 25.0 L 9.57 25.0 L 9.57 25.0" fill="none" stroke="#111" stroke-width="1.26" stroke-linecap="round" stroke-linejoin="round"/>
<path d="M 9.57 21.0 L 10.07 20.9 L 10.58 20.87 L 11.08 20.92 L 11.58 21.05 L 12.04 21.26 L 12.47 21.53 L 12.85 21.86 L 13.18 22.25 L 13.44 22.69 L 13.63 23.16 L 13.74 23.65 L 13.78 24.16 L 13.74 24.67 L 13.63 25.16 L 13.44 25.63 L 13.18 26.07 L 12.85 26.46 L 12.47 26.79 L 12.04 27.06 L 11.58 27.27 L 11.08 27.4 L 10.58 27.45 L 10.07 27.42 L 9.57 27.32" fill="none" stroke="#111" stroke-width="1.26" stroke-linecap="round" stroke-linejoin="round"/>
<path d="M 9.57 25.0 L 9.57 25.29 L 9.57 25.58 L 9.57 25.88 L 9.57 26.17 L 9.57 26.46 L 9.57 26.75 L 9.57 27.04 L 9.57 27.33 L 9.57 27.62 L 9.57 27.92 L 9.57 28.21 L 9.57 28.5 L 9.57 28.79 L 9.57 29.08 L 9.57 29.38 L 9.57 29.67 L 9.57 29.96 L 9.57 30.25 L 9.57 30.54 L 9.57 30.83 L 9.57 31.12 L 9.57 31.42 L 9.57 31.71 L 9.57 32.0" fill="none" stroke="#111" stroke-width="1.26" stroke-linecap="round" stroke-linejoin="round"/>
<path d="M 19.57 6.0 L 19.9 7.06 L 20.17 8.14 L 20.4 9.22 L 20.57 10.32 L 20.69 11.42 L 20.76 12.53 L 20.78 13.64 L 20.75 14.75 L 20.67 15.85 L 20.54 16.96 L 20.36 18.05 L 20.12 19.13 L 19.84 20.21 L 19.5 21.26 L 19.12 22.31 L 18.69 23.33 L 18.22 24.33 L 17.7 25.31 L 17.13 26.26 L 16.52 27.19 L 15.87 28.09 L 15.18 28.96 L 14.44 29.79 L 13.67 30.59" fill="none" stroke="#111" stroke-width="1.26" stroke-linecap="round" stroke-linejoin="round"/>
<path d="M 18.57 24.0 L 18.7 24.29 L 18.82 24.58 L 18.95 24.88 L 19.07 25.17 L 19.2 25.46 L 19.32 25.75 L 19.45 26.04 L 19.57 26.33 L 19.7 26.62 L 19.82 26.92 L 19.95 27.21 L 20.07 27.5 L 20.2 27.79 L 20.32 28.08 L 20.45 28.38 L 20.57 28.67 L 20.7 28.96 L 20.82 29.25 L 20.95 29.54 L 21.07 29.83 L 21.2 30.12 L 21.32 30.42 L 21.45 30.71 L 21.57 31.0" fill="none" stroke="#111" stroke-width="1.26" stroke-linecap="round" stroke-linejoin="round"/>
<path d="M 13.57 19.0 L 13.82 18.67 L 14.07 18.33 L 14.32 18.0 L 14.57 17.67 L 14.82 17.33 L 15.07 17.0 L 15.32 16.67 L 15.57 16.33 L 15.82 16.0 L 16.07 15.67 L 16.32 15.33 L 16.57 15.0 L 16.82 14.67 L 17.07 14.33 L 17.32 14.0 L 17.57 13.67 L 17.82 13.33 L 18.07 13.0 L 18.32 12.67 L 18.57 12.33 L 18.82 12.0 L 19.07 11.67 L 19.32 11.33 L 19.57 11.0" fill="none" stroke="#111" stroke-width="1.26" stroke-linecap="round" stroke-linejoin="round"/>
<path d="M 15.57 10.0 L 15.82 10.21 L 16.07 10.42 L 16.32 10.62 L 16.57 10.83 L 16.82 11.04 L 17.07 11.25 L 17.32 11.46 L 17.57 11.67 L 17.82 11.88 L 18.07 12.08 L 18.32 12.29 L 18.57 12.5 L 18.82 12.71 L 19.07 12.92 L 19.32 13.12 L 19.57 13.33 L 19.82 13.54 L 20.07 13.75 L 20.32 13.96 L 20.57 14.17 L 20.82 14.38 L 21.07 14.58 L 21.32 14.79 L 21.57 15.0" fill="none" stroke="#111" stroke-width="1.26" stroke-linecap="round" stroke-linejoin="round"/>
</svg>
