<?xml version="1.0" encoding="UTF-8"?>
<svg xmlns="http://www.w3.org/2000/svg" viewBox="0 0 29.00 34.46">
<path d="M 15.0 4.0 L 14.94 4.63 L 14.89 5.25 L 14.85 5.88 L 14.82 6.51 L 14.8 7.14 L 14.78 7.76 L 14.78 8.39 L 14.78 9.02 L 14.79 9.65 L 14.81 10.28 L 14.84 10.9 L 14.88 11.53 L 14.93 12.16 L 14.98 12.78 L 15.04 13.41 L 15.12 14.03 L 15.2 14.66 L 15.29 15.28 L 15.38 15.9 L 15.49 16.52 L 15.6 17.14 L 15.73 17.75 L 15.86 18.37 L 16.0 18.98 L 16.0 19.0 L 15.38 19.44 L 14.81 19.96 L 14.31 20.54 L 13.89 21.17 L 13.55 21.86 L 13.3 22.58 L 13.13 23.32 L 13.06 24.08 L 13.09 24.85 L 13.21 25.6 L 13.42 26.34 L 13.72 27.04 L 14.1 27.7 L 14.56 28.31 L 15.09 28.86 L 15.69 29.33 L 16.34 29.73 L 17.03 30.05 L 17.76 30.28 L 18.52 30.42 L 19.28 30.46 L 20.04 30.41 L 20.79 30.27 L 21.52 30.04" fill="none" stroke="#111" stroke-width="1.21" stroke-linecap="round" stroke-linejoin="round"/>
<path d="M 11.0 11.0 L 11.29 10.88 L 11.58 10.75 L 11.88 10.62 L 12.17 10.5 L 12.46 10.38 L 12.75 10.25 L 13.04 10.12 L 13.33 10.0 L 13.62 9.88 L 13.92 9.75 L 14.21 9.62 L 14.5 9.5 L 14.79 9.38 L 15.08 9.25 L 15.38 9.12 L 15.67 9.0 L 15.96 8.88 L 16.25 8.75 L 16.54 8.62 L 16.83 8.5 L 17.12 8.38 L 17.42 8.25 L 17.71 8.12 L 18.0 8.0" fill="none" stroke="#111" stroke-width="1.21" stroke-linecap="round" stroke-linejoin="round"/>
<path d="M 18.0 8.0 L 18.11 8.51 L 18.17 9.03 L 18.18 9.55 L 18.14 10.07 L 18.06 10.59 L 17.93 11.1 L 17.75 11.59 L 17.53 12.06 L 17.27 12.51 L 16.96 12.94 L 16.62 13.33 L 16.24 13.69 L 15.83 14.02 L 15.4 14.3 L 14.94 14.55 L 14.45 14.75 L 13.95 14.91 L 13.44 15.02 L 12.93 15.08 L 12.4 15.1 L 11.88 15.06 L 11.37 14.98 L 10.86 14.85 L 10.37 14.68" fill="none" stroke="#111" stroke-width="1.21" stroke-linecap="round" stroke-linejoin="round"/>
<path d="M 12.0 11.0 L 12.0 11.21 L 12.0 11.42 L 12.0 11.62 L 12.0 11.83 L 12.0 12.04 L 12.0 12.25 L 12.0 12.46 L 12.0 12.67 L 12.0 12.88 L 12.0 13.08 L 12.0 13.29 L 12.0 13.5 L 12.0 13.71 L 12.0 13.92 L 12.0 14.12 L 12.0 14.33 L 12.0 14.54 L 12.0 14.75 L 12.0 14.96 L 12.0 15.17 L 12.0 15.38 L 12.0 15.58 L 12.0 15.79 L 12.0 16.0" fill="none" stroke="#111" stroke-width="1.21" stroke-linecap="round" stroke-linejoin="round"/>
<path d="M 9.0 5.0 L 9.0 5.83 L 9.0 6.67 L 9.0 7.5 L 9.0 8.33 L 9.0 9.17 L 9.0 10.0 L 9.0 10.83 L 9.0 11.67 L 9.0 12.5 L 9.0 13.33 L 9.0 14.17 L 9.0 15.0 L 9.0 15.83 L 9.0 16.67 L 9.0 17.5 L 9.0 18.33 L 9.0 19.17 L 9.0 20.0 L 9.0 20.83 L 9.0 21.67 L 9.0 22.5 L 9.0 23.33 L 9.0 24.17 L 9.0 25.0" fill="none" stroke="#111" stroke-width="1.21" stroke-linecap="round" stroke-linejoin="round"/>
<path d="M 5.0 9.0 L 5.17 9.21 L 5.33 9.42 L 5.5 9.62 L 5.67 9.83 L 5.83 10.04 L 6.0 10.25 L 6.17 10.46 L 6.33 10.67 L 6.5 10.88 L 6.67 11.08 L 6.83 11.29 L 7.0 11.5 L 7.17 11.71 L 7.33 11.92 L 7.5 12.12 L 7.67 12.33 L 7.83 12.54 L 8.0 12.75 L 8.17 12.96 L 8.33 13.17 L 8.5 13.38 L 8.67 13.58 L 8.83 13.79 L 9.0 14.0" fill="none" stroke="#111" stroke-width="1.21" stroke-linecap="round" stroke-linejoin="round"/>
<path d="M 12.0 6.0 L 11.88 6.12 L 11.75 6.25 L 11.62 6.38 L 11.5 6.5 L 11.38 6.62 L 11.25 6.75 L 11.12 6.88 L 11.0 7.0 L 10.88 7.12 L 10.75 7.25 L 10.62 7.38 L 10.5 7.5 L 10.38 7.62 L 10.25 7.75 L 10.12 7.88 L 10.0 8.0 L 9.88 8.12 L 9.75 8.25 L 9.62 8.38 L 9.5 8.5 L 9.38 8.62 L 9.25 8.75 L 9.12 8.88 L 9.0 9.0" fill="none" stroke="#111" stroke-width="1.21" stroke-linecap="round" stroke-linejoin="round"/>
<path d="M 9.0 18.0 L 8.79 18.17 L 8.58 18.33 L 8.38 18.5 L 8.17 18.67 L 7.96 18.83 L 7.75 19.0 L 7.54 19.17 L 7.33 19.33 L 7.12 19.5 L 6.92 19.67 L 6.71 19.83 L 6.5 20.0 L 6.29 20.17 L 6.08 20.33 L 5.88 20.5 L 5.67 20.67 L 5.46 20.83 L 5.25 21.0 L 5.04 21.17 L 4.83 21.33 L 4.62 21.5 L 4.42 21.67 L 4.21 21.83 L 4.0 22.0" fill="none" stroke="#111" stroke-width="1.21" stroke-linecap="round" stroke-linejoin="round"/>
<path d="M 9.0 18.0 L 9.08 18.04 L 9.17 18.08 L 9.25 18.12 L 9.33 18.17 L 9.42 18.21 L 9.5 18.25 L 9.58 18.29 L 9.67 18.33 L 9.75 18.38 L 9.83 18.42 L 9.92 18.46 L 10.0 18.5 L 10.08 18.54 L 10.17 18.58 L 10.25 18.62 L 10.33 18.67 L 10.42 18.71 L 10.5 18.75 L 10.58 18.79 L 10.67 18.83 L 10.75 18.88 L 10.83 18.92 L 10.92 18.96 L 11.0 19.0" fill="none" stroke="#111" stroke-width="1.21" stroke-linecap="round" stroke-linejoin="round"/>
<path d="M 20.0 4.0 L 20.0 4.75 L 20.0 5.5 L 20.0 6.25 L 20.0 7.0 L 20.0 7.75 L 20.0 8.5 L 20.0 9.25 L 20.0 10.0 L 20.0 10.75 L 20.0 11.5 L 20.0 12.25 L 20.0 13.0 L 20.0 13.75 L 20.0 14.5 L 20.0 15.25 L 20.0 16.0 L 20.0 16.75 L 20.0 17.5 L 20.0 18.25 L 20.0 19.0 L 20.0 19.75 L 20.0 20.5 L 20.0 21.25 L 20.0 22.0" fill="none" stroke="#111" stroke-width="1.21" stroke-linecap="round" stroke-linejoin="round"/>
<path d="M 18.0 6.0 L 18.08 6.12 L 18.17 6.25 L 18.25 6.38 L 18.33 6.5 L 18.42 6.62 L 18.5 6.75 L 18.58 6.88 L 18.67 7.0 L 18.75 7.12 L 18.83 7.25 L 18.92 7.38 L 19.0 7.5 L 19.08 7.62 L 19.17 7.75 L 19.25 7.88 L 19.33 8.0 L 19.42 8.12 L 19.5 8.25 L 19.58 8.38 L 19.67 8.5 L 19.75 8.62 L 19.83 8.75 L 19.92 8.88 L 20.0 9.0" fill="none" stroke="#111" stroke-width="1.21" stroke-linecap="round" stroke-linejoin="round"/>
<path d="M 24.0 6.0 L 23.83 6.12 L 23.67 6.25 L 23.5 6.38 L 23.33 6.5 L 23.17 6.62 L 23.0 6.75 L 22.83 6.88 L 22.67 7.0 L 22.5 7.12 L 22.33 7.25 L 22.17 7.38 L 22.0 7.5 L 21.83 7.62 L 21.67 7.75 L 21.5 7.88 L 21.33 8.0 L 21.17 8.12 L 21.0 8.25 L 20.83 8.38 L 20.67 8.5 L 20.5 8.62 L 20.33 8.75 L 20.17 8.88 L 20.0 9.0" fill="none" stroke="#111" stroke-width="1.21" stroke-linecap="round" stroke-linejoin="round"/>
<path d="M 20.0 15.0 L 19.88 15.12 L 19.75 15.25 L 19.62 15.38 L 19.5 15.5 L 19.38 15.62 L 19.25 15.75 L 19.12 15.88 L 19.0 16.0 L 18.88 16.12 L 18.75 16.25 L 18.62 16.38 L 18.5 16.5 L 18.38 16.62 L 18.25 16.75 L 18.12 16.88 L 18.0 17.0 L 17.88 17.12 L 17.75 17.25 L 17.62 17.38 L 17.5 17.5 L 17.38 17.62 L 17.25 17.75 L 17.12 17.88 L 17.0 18.0" fill="none" stroke="#111" stroke-width="1.21" stroke-linecap="round" stroke-linejoin="round"/>
<path d="M 20.0 14.0 L 20.21 14.17 L 20.42 14.33 L 20.62 14.5 L 20.83 14.67 L 21.04 14.83 L 21.25 15.0 L 21.46 15.17 L 21.67 15.33 L 21.88 15.5 L 22.08 15.67 L 22.29 15.83 L 22.5 16.0 L 22.71 16.17 L 22.92 16.33 L 23.12 16.5 L 23.33 16.67 L 23.54 16.83 L 23.75 17.0 L 23.96 17.17 L 24.17 17.33 L 24.38 17.5 L 24.58 17.67 L 24.79 17.83 L 25.0 18.0" fill="none" stroke="#111" stroke-width="1.21" stroke-linecap="round" stroke-linejoin="round"/>
</svg>
