<?xml version="1.0" encoding="UTF-8"?>
<svg xmlns="http://www.w3.org/2000/svg" viewBox="0 0 19.00 35.87">
<path d="M 9.0 4.0 L 9.0 4.92 L 9.0 5.83 L 9.0 6.75 L 9.0 7.67 L 9.0 8.58 L 9.0 9.5 L 9.0 10.42 L 9.0 11.33 L 9.0 12.25 L 9.0 13.17 L 9.0 14.08 L 9.0 15.0 L 9.0 15.92 L 9.0 16.83 L 9.0 17.75 L 9.0 18.67 L 9.0 19.58 L 9.0 20.5 L 9.0 21.42 L 9.0 22.33 L 9.0 23.25 L 9.0 24.17 L 9.0 25.08 L 9.0 26.0 L 9.0 26.0 L 9.21 26.04 L 9.42 26.08 L 9.62 26.12 L 9.83 26.17 L 10.04 26.21 L 10.25 26.25 L 10.46 26.29 L 10.67 26.33 L 10.88 26.38 L 11.08 26.42 L 11.29 26.46 L 11.5 26.5 L 11.71 26.54 L 11.92 26.58 L 12.12 26.62 L 12.33 26.67 L 12.54 26.71 L 12.75 26.75 L 12.96 26.79 L 13.17 26.83 L 13.38 26.88 L 13.58 26.92 L 13.79 26.96 L 14.0 27.0 L 14.0 27.0 L 13.65 26.81 L 13.29 26.66 L 12.91 26.55 L 12.52 26.49 L 12.12 26.47 L 11.73 26.49 L 11.34 26.56 L 10.96 26.67 L 10.6 26.82 L 10.25 27.01 L 9.93 27.24 L 9.63 27.5 L 9.37 27.8 L 9.14 28.12 L 8.95 28.46 L 8.8 28.83 L 8.69 29.21 L 8.62 29.6 L 8.6 29.99 L 8.62 30.39 L 8.68 30.78 L 8.79 31.16 L 8.94 31.52 L 9.13 31.87" fill="none" stroke="#111" stroke-width="1.26" stroke-linecap="round" stroke-linejoin="round"/>
<path d="M 4.0 5.0 L 4.38 5.0 L 4.75 5.0 L 5.12 5.0 L 5.5 5.0 L 5.88 5.0 L 6.25 5.0 L 6.62 5.0 L 7.0 5.0 L 7.38 5.0 L 7.75 5.0 L 8.12 5.0 L 8.5 5.0 L 8.88 5.0 L 9.25 5.0 L 9.62 5.0 L 10.0 5.0 L 10.38 5.0 L 10.75 5.0 L 11.12 5.0 L 11.5 5.0 L 11.88 5.0 L 12.25 5.0 L 12.62 5.0 L 13.0 5.0" fill="none" stroke="#111" stroke-width="1.26" stroke-linecap="round" stroke-linejoin="round"/>
<path d="M 4.0 5.0 L 4.04 5.25 L 4.08 5.5 L 4.12 5.75 L 4.17 6.0 L 4.21 6.25 L 4.25 6.5 L 4.29 6.75 L 4.33 7.0 L 4.38 7.25 L 4.42 7.5 L 4.46 7.75 L 4.5 8.0 L 4.54 8.25 L 4.58 8.5 L 4.62 8.75 L 4.67 9.0 L 4.71 9.25 L 4.75 9.5 L 4.79 9.75 L 4.83 10.0 L 4.88 10.25 L 4.92 10.5 L 4.96 10.75 L 5.0 11.0 L 5.0 11.0 L 5.38 11.24 L 5.77 11.45 L 6.17 11.64 L 6.59 11.81 L 7.01 11.95 L 7.44 12.07 L 7.88 12.16 L 8.32 12.23 L 8.76 12.28 L 9.21 12.3 L 9.65 12.29 L 10.1 12.26 L 10.54 12.2 L 10.98 12.12 L 11.41 12.01 L 11.84 11.88 L 12.26 11.73 L 12.66 11.55 L 13.06 11.35 L 13.45 11.12 L 13.82 10.88 L 14.18 10.61 L 14.52 10.32 L 14.84 10.02 L 15.0 10.0 L 14.92 9.79 L 14.83 9.58 L 14.75 9.38 L 14.67 9.17 L 14.58 8.96 L 14.5 8.75 L 14.42 8.54 L 14.33 8.33 L 14.25 8.12 L 14.17 7.92 L 14.08 7.71 L 14.0 7.5 L 13.92 7.29 L 13.83 7.08 L 13.75 6.88 L 13.67 6.67 L 13.58 6.46 L 13.5 6.25 L 13.42 6.04 L 13.33 5.83 L 13.25 5.62 L 13.17 5.42 L 13.08 5.21 L 13.0 5.0" fill="none" stroke="#111" stroke-width="1.26" stroke-linecap="round" stroke-linejoin="round"/>
<path d="M 4.0 8.0 L 4.42 7.96 L 4.83 7.92 L 5.25 7.88 L 5.67 7.83 L 6.08 7.79 L 6.5 7.75 L 6.92 7.71 L 7.33 7.67 L 7.75 7.62 L 8.17 7.58 L 8.58 7.54 L 9.0 7.5 L 9.42 7.46 L 9.83 7.42 L 10.25 7.38 L 10.67 7.33 L 11.08 7.29 L 11.5 7.25 L 11.92 7.21 L 12.33 7.17 L 12.75 7.12 L 13.17 7.08 L 13.58 7.04 L 14.0 7.0" fill="none" stroke="#111" stroke-width="1.26" stroke-linecap="round" stroke-linejoin="round"/>
<path d="M 5.0 14.0 L 5.29 14.0 L 5.58 14.0 L 5.88 14.0 L 6.17 14.0 L 6.46 14.0 L 6.75 14.0 L 7.04 14.0 L 7.33 14.0 L 7.62 14.0 L 7.92 14.0 L 8.21 14.0 L 8.5 14.0 L 8.79 14.0 L 9.08 14.0 L 9.38 14.0 L 9.67 14.0 L 9.96 14.0 L 10.25 14.0 L 10.54 14.0 L 10.83 14.0 L 11.12 14.0 L 11.42 14.0 L 11.71 14.0 L 12.0 14.0" fill="none" stroke="#111" stroke-width="1.26" stroke-linecap="round" stroke-linejoin="round"/>
<path d="M 12.0 14.0 L 12.0 14.21 L 12.0 14.42 L 12.0 14.62 L 12.0 14.83 L 12.0 15.04 L 12.0 15.25 L 12.0 15.46 L 12.0 15.67 L 12.0 15.88 L 12.0 16.08 L 12.0 16.29 L 12.0 16.5 L 12.0 16.71 L 12.0 16.92 L 12.0 17.12 L 12.0 17.33 L 12.0 17.54 L 12.0 17.75 L 12.0 17.96 L 12.0 18.17 L 12.0 18.38 L 12.0 18.58 L 12.0 18.79 L 12.0 19.0" fill="none" stroke="#111" stroke-width="1.26" stroke-linecap="round" stroke-linejoin="round"/>
<path d="M 5.0 14.0 L 5.0 14.17 L 5.0 14.33 L 5.0 14.5 L 5.0 14.67 L 5.0 14.83 L 5.0 15.0 L 5.0 15.17 L 5.0 15.33 L 5.0 15.5 L 5.0 15.67 L 5.0 15.83 L 5.0 16.0 L 5.0 16.17 L 5.0 16.33 L 5.0 16.5 L 5.0 16.67 L 5.0 16.83 L 5.0 17.0 L 5.0 17.17 L 5.0 17.33 L 5.0 17.5 L 5.0 17.67 L 5.0 17.83 L 5.0 18.0 L 5.0 18.0 L 5.42 17.96 L 5.83 17.92 L 6.25 17.88 L 6.67 17.83 L 7.08 17.79 L 7.5 17.75 L 7.92 17.71 L 8.33 17.67 L 8.75 17.62 L 9.17 17.58 L 9.58 17.54 L 10.0 17.5 L 10.42 17.46 L 10.83 17.42 L 11.25 17.38 L 11.67 17.33 L 12.08 17.29 L 12.5 17.25 L 12.92 17.21 L 13.33 17.17 L 13.75 17.12 L 14.17 17.08 L 14.58 17.04 L 15.0 17.0" fill="none" stroke="#111" stroke-width="1.26" stroke-linecap="round" stroke-linejoin="round"/>
</svg>
