<?xml version="1.0" encoding="UTF-8"?>
<svg xmlns="http://www.w3.org/2000/svg" viewBox="0 0 23.00 37.25">
<path d="M 19.0 6.25 L 18.35 5.71 L 17.65 5.24 L 16.91 4.84 L 16.13 4.51 L 15.32 4.26 L 14.49 4.09 L 13.65 4.0 L 12.81 4.0 L 11.97 4.08 L 11.14 4.24 L 10.33 4.48 L 9.55 4.8 L 8.8 5.19 L 8.1 5.66 L 7.44 6.19 L 6.84 6.79 L 6.3 7.44 L 5.83 8.14 L 5.43 8.88 L 5.1 9.66 L 4.85 10.46 L 4.68 11.29 L 4.59 12.13 L 4.59 12.98" fill="none" stroke="#111" stroke-width="1.30" stroke-linecap="round" stroke-linejoin="round"/>
<path d="M 10.0 7.25 L 9.82 7.47 L 9.66 7.7 L 9.52 7.95 L 9.4 8.2 L 9.29 8.46 L 9.2 8.73 L 9.14 9.0 L 9.09 9.28 L 9.07 9.56 L 9.06 9.84 L 9.08 10.13 L 9.11 10.4 L 9.17 10.68 L 9.25 10.95 L 9.34 11.22 L 9.46 11.47 L 9.59 11.72 L 9.74 11.96 L 9.91 12.19 L 10.1 12.4 L 10.3 12.6 L 10.51 12.78 L 10.74 12.95 L 10.98 13.1 L 11.0 13.25 L 11.28 13.08 L 11.55 12.89 L 11.81 12.68 L 12.05 12.45 L 12.27 12.21 L 12.46 11.94 L 12.64 11.66 L 12.8 11.37 L 12.93 11.07 L 13.04 10.76 L 13.12 10.44 L 13.18 10.11 L 13.22 9.79 L 13.23 9.46 L 13.21 9.13 L 13.17 8.8 L 13.1 8.48 L 13.0 8.16 L 12.89 7.85 L 12.75 7.55 L 12.58 7.27 L 12.4 6.99 L 12.19 6.73 L 11.97 6.49" fill="none" stroke="#111" stroke-width="1.30" stroke-linecap="round" stroke-linejoin="round"/>
<path d="M 11.0 8.25 L 11.0 8.33 L 11.0 8.42 L 11.0 8.5 L 11.0 8.58 L 11.0 8.67 L 11.0 8.75 L 11.0 8.83 L 11.0 8.92 L 11.0 9.0 L 11.0 9.08 L 11.0 9.17 L 11.0 9.25 L 11.0 9.33 L 11.0 9.42 L 11.0 9.5 L 11.0 9.58 L 11.0 9.67 L 11.0 9.75 L 11.0 9.83 L 11.0 9.92 L 11.0 10.0 L 11.0 10.08 L 11.0 10.17 L 11.0 10.25" fill="none" stroke="#111" stroke-width="1.30" stroke-linecap="round" stroke-linejoin="round"/>
<path d="M 8.0 10.25 L 7.83 10.33 L 7.67 10.42 L 7.5 10.5 L 7.33 10.58 L 7.17 10.67 L 7.0 10.75 L 6.83 10.83 L 6.67 10.92 L 6.5 11.0 L 6.33 11.08 L 6.17 11.17 L 6.0 11.25 L 5.83 11.33 L 5.67 11.42 L 5.5 11.5 L 5.33 11.58 L 5.17 11.67 L 5.0 11.75 L 4.83 11.83 L 4.67 11.92 L 4.5 12.0 L 4.33 12.08 L 4.17 12.17 L 4.0 12.25" fill="none" stroke="#111" stroke-width="1.30" stroke-linecap="round" stroke-linejoin="round"/>
<path d="M 14.0 9.25 L 14.12 9.13 L 14.25 9.0 L 14.38 8.88 L 14.5 8.75 L 14.62 8.63 L 14.75 8.5 L 14.88 8.38 L 15.0 8.25 L 15.12 8.13 L 15.25 8.0 L 15.38 7.88 L 15.5 7.75 L 15.62 7.63 L 15.75 7.5 L 15.88 7.38 L 16.0 7.25 L 16.12 7.13 L 16.25 7.0 L 16.38 6.88 L 16.5 6.75 L 16.62 6.63 L 16.75 6.5 L 16.88 6.38 L 17.0 6.25" fill="none" stroke="#111" stroke-width="1.30" stroke-linecap="round" stroke-linejoin="round"/>
<path d="M 6.0 14.25 L 6.21 14.54 L 6.42 14.83 L 6.62 15.13 L 6.83 15.42 L 7.04 15.71 L 7.25 16.0 L 7.46 16.29 L 7.67 16.58 L 7.88 16.88 L 8.08 17.17 L 8.29 17.46 L 8.5 17.75 L 8.71 18.04 L 8.92 18.33 L 9.12 18.63 L 9.33 18.92 L 9.54 19.21 L 9.75 19.5 L 9.96 19.79 L 10.17 20.08 L 10.38 20.38 L 10.58 20.67 L 10.79 20.96 L 11.0 21.25" fill="none" stroke="#111" stroke-width="1.30" stroke-linecap="round" stroke-linejoin="round"/>
<path d="M 11.0 14.25 L 11.0 15.04 L 11.0 15.83 L 11.0 16.63 L 11.0 17.42 L 11.0 18.21 L 11.0 19.0 L 11.0 19.79 L 11.0 20.58 L 11.0 21.38 L 11.0 22.17 L 11.0 22.96 L 11.0 23.75 L 11.0 24.54 L 11.0 25.33 L 11.0 26.13 L 11.0 26.92 L 11.0 27.71 L 11.0 28.5 L 11.0 29.29 L 11.0 30.08 L 11.0 30.88 L 11.0 31.67 L 11.0 32.46 L 11.0 33.25" fill="none" stroke="#111" stroke-width="1.30" stroke-linecap="round" stroke-linejoin="round"/>
<path d="M 6.0 30.25 L 6.21 30.04 L 6.42 29.83 L 6.62 29.63 L 6.83 29.42 L 7.04 29.21 L 7.25 29.0 L 7.46 28.79 L 7.67 28.58 L 7.88 28.38 L 8.08 28.17 L 8.29 27.96 L 8.5 27.75 L 8.71 27.54 L 8.92 27.33 L 9.12 27.13 L 9.33 26.92 L 9.54 26.71 L 9.75 26.5 L 9.96 26.29 L 10.17 26.08 L 10.38 25.88 L 10.58 25.67 L 10.79 25.46 L 11.0 25.25 L 11.0 25.25 L 11.12 25.42 L 11.25 25.58 L 11.38 25.75 L 11.5 25.92 L 11.62 26.08 L 11.75 26.25 L 11.88 26.42 L 12.0 26.58 L 12.12 26.75 L 12.25 26.92 L 12.38 27.08 L 12.5 27.25 L 12.62 27.42 L 12.75 27.58 L 12.88 27.75 L 13.0 27.92 L 13.12 28.08 L 13.25 28.25 L 13.38 28.42 L 13.5 28.58 L 13.62 28.75 L 13.75 28.92 L 13.88 29.08 L 14.0 29.25" fill="none" stroke="#111" stroke-width="1.30" stroke-linecap="round" stroke-linejoin="round"/>
</svg>
