<?xml version="1.0" encoding="UTF-8"?>
<svg xmlns="http://www.w3.org/2000/svg" viewBox="0 0 19.00 40.77">
<path d="M 4.0 4.71 L 4.12 4.84 L 4.25 4.96 L 4.38 5.09 L 4.5 5.21 L 4.62 5.34 L 4.75 5.46 L 4.88 5.59 L 5.0 5.71 L 5.12 5.84 L 5.25 5.96 L 5.38 6.09 L 5.5 6.21 L 5.62 6.34 L 5.75 6.46 L 5.88 6.59 L 6.0 6.71 L 6.12 6.84 L 6.25 6.96 L 6.38 7.09 L 6.5 7.21 L 6.62 7.34 L 6.75 7.46 L 6.88 7.59 L 7.0 7.71 L 7.0 7.71 L 7.0 7.88 L 7.0 8.04 L 7.0 8.21 L 7.0 8.38 L 7.0 8.54 L 7.0 8.71 L 7.0 8.88 L 7.0 9.04 L 7.0 9.21 L 7.0 9.38 L 7.0 9.54 L 7.0 9.71 L 7.0 9.88 L 7.0 10.04 L 7.0 10.21 L 7.0 10.38 L 7.0 10.54 L 7.0 10.71 L 7.0 10.88 L 7.0 11.04 L 7.0 11.21 L 7.0 11.38 L 7.0 11.54 L 7.0 11.71 L 7.0 11.71 L 6.8 11.92 L 6.61 12.14 L 6.45 12.38 L 6.3 12.63 L 6.18 12.89 L 6.07 13.16 L 5.99 13.44 L 5.93 13.72 L 5.9 14.01 L 5.89 14.3 L 5.9 14.59 L 5.93 14.87 L 5.99 15.16 L 6.08 15.43 L 6.18 15.71 L 6.31 15.97 L 6.45 16.22 L 6.62 16.45 L 6.81 16.67 L 7.01 16.88 L 7.23 17.07 L 7.46 17.24 L 7.71 17.39 L 7.97 17.52 L 8.0 17.71 L 8.35 17.83 L 8.72 17.93 L 9.08 18.0 L 9.46 18.04 L 9.83 18.06 L 10.21 18.04 L 10.58 18.0 L 10.95 17.94 L 11.31 17.84 L 11.66 17.72 L 12.01 17.57 L 12.34 17.39 L 12.66 17.2 L 12.96 16.98 L 13.25 16.73 L 13.51 16.47 L 13.76 16.19 L 13.98 15.89 L 14.19 15.57 L 14.36 15.24 L 14.52 14.9 L 14.64 14.54 L 14.74 14.18 L 14.82 13.82 L 15.0 13.71 L 14.96 13.54 L 14.92 13.38 L 14.88 13.21 L 14.83 13.04 L 14.79 12.88 L 14.75 12.71 L 14.71 12.54 L 14.67 12.38 L 14.62 12.21 L 14.58 12.04 L 14.54 11.88 L 14.5 11.71 L 14.46 11.54 L 14.42 11.38 L 14.38 11.21 L 14.33 11.04 L 14.29 10.88 L 14.25 10.71 L 14.21 10.54 L 14.17 10.38 L 14.12 10.21 L 14.08 10.04 L 14.04 9.88 L 14.0 9.71 L 14.0 9.71 L 13.75 9.53 L 13.52 9.33 L 13.31 9.11 L 13.12 8.87 L 12.96 8.61 L 12.83 8.34 L 12.72 8.05 L 12.63 7.76 L 12.58 7.46 L 12.56 7.15 L 12.56 6.85 L 12.6 6.54 L 12.66 6.24 L 12.76 5.95 L 12.88 5.67 L 13.03 5.4 L 13.2 5.15 L 13.39 4.92 L 13.61 4.7 L 13.85 4.51 L 14.11 4.35 L 14.38 4.2 L 14.66 4.09 L 14.95 4.0" fill="none" stroke="#111" stroke-width="1.43" stroke-linecap="round" stroke-linejoin="round"/>
<path d="M 11.0 17.71 L 10.83 18.04 L 10.67 18.38 L 10.5 18.71 L 10.33 19.04 L 10.17 19.38 L 10.0 19.71 L 9.83 20.04 L 9.67 20.38 L 9.5 20.71 L 9.33 21.04 L 9.17 21.38 L 9.0 21.71 L 8.83 22.04 L 8.67 22.38 L 8.5 22.71 L 8.33 23.04 L 8.17 23.38 L 8.0 23.71 L 7.83 24.04 L 7.67 24.38 L 7.5 24.71 L 7.33 25.04 L 7.17 25.38 L 7.0 25.71" fill="none" stroke="#111" stroke-width="1.43" stroke-linecap="round" stroke-linejoin="round"/>
<path d="M 12.0 16.71 L 12.11 17.57 L 12.19 18.44 L 12.25 19.3 L 12.28 20.17 L 12.29 21.04 L 12.28 21.91 L 12.24 22.78 L 12.18 23.64 L 12.09 24.51 L 11.98 25.37 L 11.85 26.23 L 11.69 27.08 L 11.51 27.93 L 11.3 28.77 L 11.07 29.61 L 10.82 30.44 L 10.54 31.27 L 10.24 32.08 L 9.92 32.89 L 9.58 33.69 L 9.21 34.48 L 8.83 35.25 L 8.42 36.02 L 7.99 36.77" fill="none" stroke="#111" stroke-width="1.43" stroke-linecap="round" stroke-linejoin="round"/>
</svg>
