<?xml version="1.0" encoding="UTF-8"?>
<svg xmlns="http://www.w3.org/2000/svg" viewBox="0 0 21.07 34.98">
<path d="M 14.0 10.0 L 14.0 10.25 L 14.0 10.5 L 14.0 10.75 L 14.0 11.0 L 14.0 11.25 L 14.0 11.5 L 14.0 11.75 L 14.0 12.0 L 14.0 12.25 L 14.0 12.5 L 14.0 12.75 L 14.0 13.0 L 14.0 13.25 L 14.0 13.5 L 14.0 13.75 L 14.0 14.0 L 14.0 14.25 L 14.0 14.5 L 14.0 14.75 L 14.0 15.0 L 14.0 15.25 L 14.0 15.5 L 14.0 15.75 L 14.0 16.0 L 14.0 16.0 L 14.31 16.31 L 14.58 16.66 L 14.82 17.03 L 15.02 17.42 L 15.19 17.83 L 15.31 18.25 L 15.39 18.68 L 15.42 19.12 L 15.42 19.56 L 15.37 19.99 L 15.28 20.42 L 15.14 20.84 L 14.97 21.25 L 14.75 21.63 L 14.5 21.99 L 14.22 22.33 L 13.9 22.63 L 13.56 22.91 L 13.19 23.15 L 12.8 23.35 L 12.39 23.51 L 11.97 23.63 L 11.54 23.71 L 11.1 23.74 L 11.0 24.0 L 11.0 24.17 L 11.0 24.33 L 11.0 24.5 L 11.0 24.67 L 11.0 24.83 L 11.0 25.0 L 11.0 25.17 L 11.0 25.33 L 11.0 25.5 L 11.0 25.67 L 11.0 25.83 L 11.0 26.0 L 11.0 26.17 L 11.0 26.33 L 11.0 26.5 L 11.0 26.67 L 11.0 26.83 L 11.0 27.0 L 11.0 27.17 L 11.0 27.33 L 11.0 27.5 L 11.0 27.67 L 11.0 27.83 L 11.0 28.0 L 11.0 28.0 L 11.21 27.88 L 11.42 27.75 L 11.62 27.62 L 11.83 27.5 L 12.04 27.38 L 12.25 27.25 L 12.46 27.12 L 12.67 27.0 L 12.88 26.88 L 13.08 26.75 L 13.29 26.62 L 13.5 26.5 L 13.71 26.38 L 13.92 26.25 L 14.12 26.12 L 14.33 26.0 L 14.54 25.88 L 14.75 25.75 L 14.96 25.62 L 15.17 25.5 L 15.38 25.38 L 15.58 25.25 L 15.79 25.12 L 16.0 25.0 L 16.0 25.0 L 15.94 25.28 L 15.88 25.55 L 15.81 25.82 L 15.73 26.09 L 15.65 26.36 L 15.56 26.63 L 15.46 26.9 L 15.36 27.16 L 15.26 27.42 L 15.14 27.68 L 15.03 27.94 L 14.9 28.19 L 14.77 28.44 L 14.64 28.69 L 14.5 28.93 L 14.36 29.18 L 14.2 29.41 L 14.05 29.65 L 13.89 29.88 L 13.72 30.11 L 13.55 30.33 L 13.38 30.55 L 13.19 30.77 L 13.01 30.98" fill="none" stroke="#111" stroke-width="1.22" stroke-linecap="round" stroke-linejoin="round"/>
<path d="M 11.0 16.0 L 11.25 15.83 L 11.5 15.67 L 11.75 15.5 L 12.0 15.33 L 12.25 15.17 L 12.5 15.0 L 12.75 14.83 L 13.0 14.67 L 13.25 14.5 L 13.5 14.33 L 13.75 14.17 L 14.0 14.0 L 14.25 13.83 L 14.5 13.67 L 14.75 13.5 L 15.0 13.33 L 15.25 13.17 L 15.5 13.0 L 15.75 12.83 L 16.0 12.67 L 16.25 12.5 L 16.5 12.33 L 16.75 12.17 L 17.0 12.0" fill="none" stroke="#111" stroke-width="1.22" stroke-linecap="round" stroke-linejoin="round"/>
<path d="M 11.0 15.0 L 11.04 15.21 L 11.08 15.42 L 11.12 15.62 L 11.17 15.83 L 11.21 16.04 L 11.25 16.25 L 11.29 16.46 L 11.33 16.67 L 11.38 16.88 L 11.42 17.08 L 11.46 17.29 L 11.5 17.5 L 11.54 17.71 L 11.58 17.92 L 11.62 18.12 L 11.67 18.33 L 11.71 18.54 L 11.75 18.75 L 11.79 18.96 L 11.83 19.17 L 11.88 19.38 L 11.92 19.58 L 11.96 19.79 L 12.0 20.0" fill="none" stroke="#111" stroke-width="1.22" stroke-linecap="round" stroke-linejoin="round"/>
<path d="M 17.0 12.0 L 17.06 12.51 L 17.07 13.03 L 17.05 13.55 L 16.98 14.06 L 16.88 14.57 L 16.73 15.07 L 16.55 15.55 L 16.33 16.02 L 16.08 16.47 L 15.79 16.9 L 15.47 17.31 L 15.12 17.69 L 14.74 18.04 L 14.33 18.36 L 13.9 18.65 L 13.45 18.91 L 12.98 19.13 L 12.5 19.31 L 12.0 19.45 L 11.49 19.56 L 10.98 19.62 L 10.46 19.64 L 9.94 19.63 L 9.43 19.57" fill="none" stroke="#111" stroke-width="1.22" stroke-linecap="round" stroke-linejoin="round"/>
<path d="M 4.0 4.0 L 4.33 4.42 L 4.63 4.87 L 4.9 5.33 L 5.15 5.8 L 5.38 6.29 L 5.57 6.79 L 5.74 7.3 L 5.87 7.81 L 5.98 8.34 L 6.05 8.87 L 6.1 9.4 L 6.12 9.94 L 6.1 10.47 L 6.05 11.01 L 5.98 11.54 L 5.87 12.06 L 5.74 12.58 L 5.57 13.09 L 5.38 13.59 L 5.15 14.08 L 4.9 14.55 L 4.63 15.01 L 4.33 15.45 L 4.0 15.88 L 4.0 16.0 L 4.0 16.17 L 4.0 16.33 L 4.0 16.5 L 4.0 16.67 L 4.0 16.83 L 4.0 17.0 L 4.0 17.17 L 4.0 17.33 L 4.0 17.5 L 4.0 17.67 L 4.0 17.83 L 4.0 18.0 L 4.0 18.17 L 4.0 18.33 L 4.0 18.5 L 4.0 18.67 L 4.0 18.83 L 4.0 19.0 L 4.0 19.17 L 4.0 19.33 L 4.0 19.5 L 4.0 19.67 L 4.0 19.83 L 4.0 20.0 L 4.0 20.0 L 4.17 20.12 L 4.33 20.25 L 4.5 20.38 L 4.67 20.5 L 4.83 20.62 L 5.0 20.75 L 5.17 20.88 L 5.33 21.0 L 5.5 21.12 L 5.67 21.25 L 5.83 21.38 L 6.0 21.5 L 6.17 21.62 L 6.33 21.75 L 6.5 21.88 L 6.67 22.0 L 6.83 22.12 L 7.0 22.25 L 7.17 22.38 L 7.33 22.5 L 7.5 22.62 L 7.67 22.75 L 7.83 22.88 L 8.0 23.0" fill="none" stroke="#111" stroke-width="1.22" stroke-linecap="round" stroke-linejoin="round"/>
<path d="M 7.0 11.0 L 7.08 11.12 L 7.17 11.25 L 7.25 11.38 L 7.33 11.5 L 7.42 11.62 L 7.5 11.75 L 7.58 11.88 L 7.67 12.0 L 7.75 12.12 L 7.83 12.25 L 7.92 12.38 L 8.0 12.5 L 8.08 12.62 L 8.17 12.75 L 8.25 12.88 L 8.33 13.0 L 8.42 13.12 L 8.5 13.25 L 8.58 13.38 L 8.67 13.5 L 8.75 13.62 L 8.83 13.75 L 8.92 13.88 L 9.0 14.0" fill="none" stroke="#111" stroke-width="1.22" stroke-linecap="round" stroke-linejoin="round"/>
<path d="M 4.0 15.0 L 4.17 15.12 L 4.33 15.25 L 4.5 15.38 L 4.67 15.5 L 4.83 15.62 L 5.0 15.75 L 5.17 15.88 L 5.33 16.0 L 5.5 16.12 L 5.67 16.25 L 5.83 16.38 L 6.0 16.5 L 6.17 16.62 L 6.33 16.75 L 6.5 16.88 L 6.67 17.0 L 6.83 17.12 L 7.0 17.25 L 7.17 17.38 L 7.33 17.5 L 7.5 17.62 L 7.67 17.75 L 7.83 17.88 L 8.0 18.0" fill="none" stroke="#111" stroke-width="1.22" stroke-linecap="round" stroke-linejoin="round"/>
</svg>
