<?xml version="1.0" encoding="UTF-8"?>
<svg xmlns="http://www.w3.org/2000/svg" viewBox="0 0 20.00 40.00">
<path d="M 7.0 4.0 L 7.17 4.21 L 7.33 4.42 L 7.5 4.62 L 7.67 4.83 L 7.83 5.04 L 8.0 5.25 L 8.17 5.46 L 8.33 5.67 L 8.5 5.88 L 8.67 6.08 L 8.83 6.29 L 9.0 6.5 L 9.17 6.71 L 9.33 6.92 L 9.5 7.12 L 9.67 7.33 L 9.83 7.54 L 10.0 7.75 L 10.17 7.96 L 10.33 8.17 L 10.5 8.38 L 10.67 8.58 L 10.83 8.79 L 11.0 9.0 L 11.0 9.0 L 11.08 8.79 L 11.17 8.58 L 11.25 8.38 L 11.33 8.17 L 11.42 7.96 L 11.5 7.75 L 11.58 7.54 L 11.67 7.33 L 11.75 7.12 L 11.83 6.92 L 11.92 6.71 L 12.0 6.5 L 12.08 6.29 L 12.17 6.08 L 12.25 5.88 L 12.33 5.67 L 12.42 5.46 L 12.5 5.25 L 12.58 5.04 L 12.67 4.83 L 12.75 4.62 L 12.83 4.42 L 12.92 4.21 L 13.0 4.0" fill="none" stroke="#111" stroke-width="1.40" stroke-linecap="round" stroke-linejoin="round"/>
<path d="M 4.0 11.0 L 4.12 10.75 L 4.25 10.5 L 4.38 10.25 L 4.5 10.0 L 4.62 9.75 L 4.75 9.5 L 4.88 9.25 L 5.0 9.0 L 5.12 8.75 L 5.25 8.5 L 5.38 8.25 L 5.5 8.0 L 5.62 7.75 L 5.75 7.5 L 5.88 7.25 L 6.0 7.0 L 6.13 6.75 L 6.25 6.5 L 6.38 6.25 L 6.5 6.0 L 6.62 5.75 L 6.75 5.5 L 6.88 5.25 L 7.0 5.0" fill="none" stroke="#111" stroke-width="1.40" stroke-linecap="round" stroke-linejoin="round"/>
<path d="M 13.0 4.0 L 13.12 4.29 L 13.25 4.58 L 13.38 4.88 L 13.5 5.17 L 13.62 5.46 L 13.75 5.75 L 13.88 6.04 L 14.0 6.33 L 14.12 6.62 L 14.25 6.92 L 14.38 7.21 L 14.5 7.5 L 14.62 7.79 L 14.75 8.08 L 14.88 8.38 L 15.0 8.67 L 15.12 8.96 L 15.25 9.25 L 15.38 9.54 L 15.5 9.83 L 15.62 10.12 L 15.75 10.42 L 15.88 10.71 L 16.0 11.0" fill="none" stroke="#111" stroke-width="1.40" stroke-linecap="round" stroke-linejoin="round"/>
<path d="M 7.0 10.0 L 7.12 10.17 L 7.25 10.33 L 7.38 10.5 L 7.5 10.67 L 7.62 10.83 L 7.75 11.0 L 7.88 11.17 L 8.0 11.33 L 8.12 11.5 L 8.25 11.67 L 8.38 11.83 L 8.5 12.0 L 8.62 12.17 L 8.75 12.33 L 8.88 12.5 L 9.0 12.67 L 9.12 12.83 L 9.25 13.0 L 9.38 13.17 L 9.5 13.33 L 9.62 13.5 L 9.75 13.67 L 9.88 13.83 L 10.0 14.0 L 10.0 14.0 L 10.17 13.88 L 10.33 13.75 L 10.5 13.62 L 10.67 13.5 L 10.83 13.38 L 11.0 13.25 L 11.17 13.12 L 11.33 13.0 L 11.5 12.88 L 11.67 12.75 L 11.83 12.62 L 12.0 12.5 L 12.17 12.38 L 12.33 12.25 L 12.5 12.12 L 12.67 12.0 L 12.83 11.88 L 13.0 11.75 L 13.17 11.62 L 13.33 11.5 L 13.5 11.38 L 13.67 11.25 L 13.83 11.12 L 14.0 11.0" fill="none" stroke="#111" stroke-width="1.40" stroke-linecap="round" stroke-linejoin="round"/>
<path d="M 11.0 9.0 L 11.0 9.33 L 11.0 9.67 L 11.0 10.0 L 11.0 10.33 L 11.0 10.67 L 11.0 11.0 L 11.0 11.33 L 11.0 11.67 L 11.0 12.0 L 11.0 12.33 L 11.0 12.67 L 11.0 13.0 L 11.0 13.33 L 11.0 13.67 L 11.0 14.0 L 11.0 14.33 L 11.0 14.67 L 11.0 15.0 L 11.0 15.33 L 11.0 15.67 L 11.0 16.0 L 11.0 16.33 L 11.0 16.67 L 11.0 17.0" fill="none" stroke="#111" stroke-width="1.40" stroke-linecap="round" stroke-linejoin="round"/>
<path d="M 6.0 16.0 L 5.75 16.47 L 5.55 16.97 L 5.38 17.48 L 5.26 18.0 L 5.18 18.52 L 5.14 19.06 L 5.15 19.59 L 5.2 20.12 L 5.29 20.65 L 5.43 21.17 L 5.61 21.67 L 5.83 22.16 L 6.08 22.63 L 6.38 23.07 L 6.71 23.49 L 7.08 23.88 L 7.47 24.24 L 7.89 24.57 L 8.34 24.86 L 8.81 25.11 L 9.3 25.32 L 9.81 25.49 L 10.33 25.62 L 10.86 25.71 L 11.0 26.0 L 11.5 25.8 L 11.99 25.57 L 12.46 25.3 L 12.91 25.0 L 13.34 24.67 L 13.74 24.3 L 14.11 23.91 L 14.45 23.49 L 14.76 23.04 L 15.04 22.57 L 15.28 22.09 L 15.48 21.59 L 15.65 21.07 L 15.77 20.55 L 15.86 20.01 L 15.91 19.47 L 15.92 18.93 L 15.89 18.39 L 15.82 17.85 L 15.7 17.32 L 15.55 16.8 L 15.37 16.3 L 15.14 15.8 L 14.88 15.33" fill="none" stroke="#111" stroke-width="1.40" stroke-linecap="round" stroke-linejoin="round"/>
<path d="M 10.0 22.0 L 10.0 22.58 L 10.0 23.17 L 10.0 23.75 L 10.0 24.33 L 10.0 24.92 L 10.0 25.5 L 10.0 26.08 L 10.0 26.67 L 10.0 27.25 L 10.0 27.83 L 10.0 28.42 L 10.0 29.0 L 10.0 29.58 L 10.0 30.17 L 10.0 30.75 L 10.0 31.33 L 10.0 31.92 L 10.0 32.5 L 10.0 33.08 L 10.0 33.67 L 10.0 34.25 L 10.0 34.83 L 10.0 35.42 L 10.0 36.0" fill="none" stroke="#111" stroke-width="1.40" stroke-linecap="round" stroke-linejoin="round"/>
<path d="M 6.0 27.0 L 6.19 27.5 L 6.43 27.98 L 6.72 28.43 L 7.06 28.85 L 7.43 29.23 L 7.85 29.57 L 8.3 29.86 L 8.78 30.1 L 9.28 30.3 L 9.79 30.44 L 10.32 30.52 L 10.86 30.55 L 11.39 30.52 L 11.92 30.44 L 12.44 30.3 L 12.94 30.1 L 13.42 29.86 L 13.87 29.57 L 14.28 29.23 L 14.66 28.85 L 14.99 28.43 L 15.28 27.98 L 15.53 27.5 L 15.72 27.0" fill="none" stroke="#111" stroke-width="1.40" stroke-linecap="round" stroke-linejoin="round"/>
</svg>
