<?xml version="1.0" encoding="UTF-8"?>
<svg xmlns="http://www.w3.org/2000/svg" viewBox="0 0 20.00 32.00">
<path d="M 13.0 4.0 L 12.63 4.92 L 12.25 5.83 L 11.88 6.75 L 11.5 7.67 L 11.13 8.58 L 10.75 9.5 L 10.38 10.42 L 10.0 11.33 L 9.63 12.25 L 9.25 13.17 L 8.88 14.08 L 8.5 15.0 L 8.12 15.92 L 7.75 16.83 L 7.38 17.75 L 7.0 18.67 L 6.63 19.58 L 6.25 20.5 L 5.88 21.42 L 5.5 22.33 L 5.13 23.25 L 4.75 24.17 L 4.38 25.08 L 4.0 26.0" fill="none" stroke="#111" stroke-width="1.12" stroke-linecap="round" stroke-linejoin="round"/>
<path d="M 5.0 4.0 L 5.46 5.0 L 5.92 6.0 L 6.38 7.0 L 6.83 8.0 L 7.29 9.0 L 7.75 10.0 L 8.21 11.0 L 8.67 12.0 L 9.13 13.0 L 9.58 14.0 L 10.04 15.0 L 10.5 16.0 L 10.96 17.0 L 11.42 18.0 L 11.88 19.0 L 12.33 20.0 L 12.79 21.0 L 13.25 22.0 L 13.71 23.0 L 14.17 24.0 L 14.62 25.0 L 15.08 26.0 L 15.54 27.0 L 16.0 28.0" fill="none" stroke="#111" stroke-width="1.12" stroke-linecap="round" stroke-linejoin="round"/>
</svg>
