<?xml version="1.0" encoding="UTF-8"?>
<svg xmlns="http://www.w3.org/2000/svg" viewBox="0 0 18.00 41.00">
<path d="M 4.0 10.0 L 4.04 9.79 L 4.08 9.58 L 4.12 9.38 L 4.17 9.17 L 4.21 8.96 L 4.25 8.75 L 4.29 8.54 L 4.33 8.33 L 4.38 8.12 L 4.42 7.92 L 4.46 7.71 L 4.5 7.5 L 4.54 7.29 L 4.58 7.08 L 4.62 6.88 L 4.67 6.67 L 4.71 6.46 L 4.75 6.25 L 4.79 6.04 L 4.83 5.83 L 4.88 5.62 L 4.92 5.42 L 4.96 5.21 L 5.0 5.0 L 5.0 5.0 L 5.12 5.12 L 5.25 5.25 L 5.38 5.38 L 5.5 5.5 L 5.62 5.62 L 5.75 5.75 L 5.88 5.88 L 6.0 6.0 L 6.12 6.12 L 6.25 6.25 L 6.38 6.38 L 6.5 6.5 L 6.62 6.62 L 6.75 6.75 L 6.88 6.88 L 7.0 7.0 L 7.12 7.12 L 7.25 7.25 L 7.38 7.38 L 7.5 7.5 L 7.62 7.62 L 7.75 7.75 L 7.88 7.88 L 8.0 8.0" fill="none" stroke="#111" stroke-width="1.44" stroke-linecap="round" stroke-linejoin="round"/>
<path d="M 8.0 8.0 L 8.12 7.83 L 8.25 7.67 L 8.38 7.5 L 8.5 7.33 L 8.62 7.17 L 8.75 7.0 L 8.88 6.83 L 9.0 6.67 L 9.12 6.5 L 9.25 6.33 L 9.38 6.17 L 9.5 6.0 L 9.62 5.83 L 9.75 5.67 L 9.88 5.5 L 10.0 5.33 L 10.12 5.17 L 10.25 5.0 L 10.38 4.83 L 10.5 4.67 L 10.62 4.5 L 10.75 4.33 L 10.88 4.17 L 11.0 4.0 L 11.0 4.0 L 11.12 4.21 L 11.25 4.42 L 11.38 4.62 L 11.5 4.83 L 11.62 5.04 L 11.75 5.25 L 11.88 5.46 L 12.0 5.67 L 12.12 5.88 L 12.25 6.08 L 12.38 6.29 L 12.5 6.5 L 12.62 6.71 L 12.75 6.92 L 12.88 7.12 L 13.0 7.33 L 13.12 7.54 L 13.25 7.75 L 13.38 7.96 L 13.5 8.17 L 13.62 8.38 L 13.75 8.58 L 13.88 8.79 L 14.0 9.0" fill="none" stroke="#111" stroke-width="1.44" stroke-linecap="round" stroke-linejoin="round"/>
<path d="M 8.0 8.0 L 8.0 8.54 L 8.0 9.08 L 8.0 9.62 L 8.0 10.17 L 8.0 10.71 L 8.0 11.25 L 8.0 11.79 L 8.0 12.33 L 8.0 12.88 L 8.0 13.42 L 8.0 13.96 L 8.0 14.5 L 8.0 15.04 L 8.0 15.58 L 8.0 16.12 L 8.0 16.67 L 8.0 17.21 L 8.0 17.75 L 8.0 18.29 L 8.0 18.83 L 8.0 19.38 L 8.0 19.92 L 8.0 20.46 L 8.0 21.0" fill="none" stroke="#111" stroke-width="1.44" stroke-linecap="round" stroke-linejoin="round"/>
<path d="M 5.0 11.0 L 5.08 11.04 L 5.17 11.08 L 5.25 11.12 L 5.33 11.17 L 5.42 11.21 L 5.5 11.25 L 5.58 11.29 L 5.67 11.33 L 5.75 11.38 L 5.83 11.42 L 5.92 11.46 L 6.0 11.5 L 6.08 11.54 L 6.17 11.58 L 6.25 11.62 L 6.33 11.67 L 6.42 11.71 L 6.5 11.75 L 6.58 11.79 L 6.67 11.83 L 6.75 11.88 L 6.83 11.92 L 6.92 11.96 L 7.0 12.0" fill="none" stroke="#111" stroke-width="1.44" stroke-linecap="round" stroke-linejoin="round"/>
<path d="M 10.0 10.0 L 9.96 10.12 L 9.92 10.25 L 9.88 10.38 L 9.83 10.5 L 9.79 10.62 L 9.75 10.75 L 9.71 10.88 L 9.67 11.0 L 9.62 11.12 L 9.58 11.25 L 9.54 11.38 L 9.5 11.5 L 9.46 11.62 L 9.42 11.75 L 9.38 11.88 L 9.33 12.0 L 9.29 12.12 L 9.25 12.25 L 9.21 12.38 L 9.17 12.5 L 9.12 12.62 L 9.08 12.75 L 9.04 12.88 L 9.0 13.0" fill="none" stroke="#111" stroke-width="1.44" stroke-linecap="round" stroke-linejoin="round"/>
<path d="M 5.0 14.0 L 5.08 14.08 L 5.17 14.17 L 5.25 14.25 L 5.33 14.33 L 5.42 14.42 L 5.5 14.5 L 5.58 14.58 L 5.67 14.67 L 5.75 14.75 L 5.83 14.83 L 5.92 14.92 L 6.0 15.0 L 6.08 15.08 L 6.17 15.17 L 6.25 15.25 L 6.33 15.33 L 6.42 15.42 L 6.5 15.5 L 6.58 15.58 L 6.67 15.67 L 6.75 15.75 L 6.83 15.83 L 6.92 15.92 L 7.0 16.0" fill="none" stroke="#111" stroke-width="1.44" stroke-linecap="round" stroke-linejoin="round"/>
<path d="M 11.0 13.0 L 10.88 13.12 L 10.75 13.25 L 10.62 13.38 L 10.5 13.5 L 10.38 13.62 L 10.25 13.75 L 10.12 13.88 L 10.0 14.0 L 9.88 14.12 L 9.75 14.25 L 9.62 14.38 L 9.5 14.5 L 9.38 14.62 L 9.25 14.75 L 9.12 14.88 L 9.0 15.0 L 8.88 15.12 L 8.75 15.25 L 8.62 15.38 L 8.5 15.5 L 8.38 15.62 L 8.25 15.75 L 8.12 15.88 L 8.0 16.0" fill="none" stroke="#111" stroke-width="1.44" stroke-linecap="round" stroke-linejoin="round"/>
<path d="M 4.0 21.0 L 4.0 21.25 L 4.0 21.5 L 4.0 21.75 L 4.0 22.0 L 4.0 22.25 L 4.0 22.5 L 4.0 22.75 L 4.0 23.0 L 4.0 23.25 L 4.0 23.5 L 4.0 23.75 L 4.0 24.0 L 4.0 24.25 L 4.0 24.5 L 4.0 24.75 L 4.0 25.0 L 4.0 25.25 L 4.0 25.5 L 4.0 25.75 L 4.0 26.0 L 4.0 26.25 L 4.0 26.5 L 4.0 26.75 L 4.0 27.0" fill="none" stroke="#111" stroke-width="1.44" stroke-linecap="round" stroke-linejoin="round"/>
<path d="M 4.0 27.0 L 4.33 27.0 L 4.67 27.0 L 5.0 27.0 L 5.33 27.0 L 5.67 27.0 L 6.0 27.0 L 6.33 27.0 L 6.67 27.0 L 7.0 27.0 L 7.33 27.0 L 7.67 27.0 L 8.0 27.0 L 8.33 27.0 L 8.67 27.0 L 9.0 27.0 L 9.33 27.0 L 9.67 27.0 L 10.0 27.0 L 10.33 27.0 L 10.67 27.0 L 11.0 27.0 L 11.33 27.0 L 11.67 27.0 L 12.0 27.0" fill="none" stroke="#111" stroke-width="1.44" stroke-linecap="round" stroke-linejoin="round"/>
<path d="M 13.0 19.0 L 12.96 19.33 L 12.92 19.67 L 12.88 20.0 L 12.83 20.33 L 12.79 20.67 L 12.75 21.0 L 12.71 21.33 L 12.67 21.67 L 12.62 22.0 L 12.58 22.33 L 12.54 22.67 L 12.5 23.0 L 12.46 23.33 L 12.42 23.67 L 12.38 24.0 L 12.33 24.33 L 12.29 24.67 L 12.25 25.0 L 12.21 25.33 L 12.17 25.67 L 12.12 26.0 L 12.08 26.33 L 12.04 26.67 L 12.0 27.0" fill="none" stroke="#111" stroke-width="1.44" stroke-linecap="round" stroke-linejoin="round"/>
<path d="M 8.0 24.0 L 8.0 24.54 L 8.0 25.08 L 8.0 25.62 L 8.0 26.17 L 8.0 26.71 L 8.0 27.25 L 8.0 27.79 L 8.0 28.33 L 8.0 28.88 L 8.0 29.42 L 8.0 29.96 L 8.0 30.5 L 8.0 31.04 L 8.0 31.58 L 8.0 32.12 L 8.0 32.67 L 8.0 33.21 L 8.0 33.75 L 8.0 34.29 L 8.0 34.83 L 8.0 35.38 L 8.0 35.92 L 8.0 36.46 L 8.0 37.0" fill="none" stroke="#111" stroke-width="1.44" stroke-linecap="round" stroke-linejoin="round"/>
<path d="M 5.0 29.0 L 5.12 29.12 L 5.25 29.25 L 5.38 29.38 L 5.5 29.5 L 5.62 29.62 L 5.75 29.75 L 5.88 29.88 L 6.0 30.0 L 6.12 30.12 L 6.25 30.25 L 6.38 30.38 L 6.5 30.5 L 6.62 30.62 L 6.75 30.75 L 6.88 30.88 L 7.0 31.0 L 7.12 31.12 L 7.25 31.25 L 7.38 31.38 L 7.5 31.5 L 7.62 31.62 L 7.75 31.75 L 7.88 31.88 L 8.0 32.0" fill="none" stroke="#111" stroke-width="1.44" stroke-linecap="round" stroke-linejoin="round"/>
<path d="M 12.0 29.0 L 11.83 29.12 L 11.67 29.25 L 11.5 29.38 L 11.33 29.5 L 11.17 29.62 L 11.0 29.75 L 10.83 29.88 L 10.67 30.0 L 10.5 30.12 L 10.33 30.25 L 10.17 30.38 L 10.0 30.5 L 9.83 30.62 L 9.67 30.75 L 9.5 30.88 L 9.33 31.0 L 9.17 31.12 L 9.0 31.25 L 8.83 31.38 L 8.67 31.5 L 8.5 31.62 L 8.33 31.75 L 8.17 31.88 L 8.0 32.0" fill="none" stroke="#111" stroke-width="1.44" stroke-linecap="round" stroke-linejoin="round"/>
</svg>
