<?xml version="1.0" encoding="UTF-8"?>
<svg xmlns="http://www.w3.org/2000/svg" viewBox="0 0 19.30 35.48">
<path d="M 7.0 4.0 L 7.22 4.51 L 7.42 5.03 L 7.58 5.57 L 7.71 6.11 L 7.81 6.66 L 7.88 7.21 L 7.92 7.77 L 7.93 8.32 L 7.9 8.88 L 7.85 9.44 L 7.76 9.99 L 7.64 10.53 L 7.49 11.07 L 7.31 11.59 L 7.1 12.11 L 6.86 12.61 L 6.59 13.1 L 6.29 13.58 L 5.97 14.03 L 5.62 14.47 L 5.25 14.88 L 4.86 15.28 L 4.44 15.65 L 4.0 15.99 L 4.0 16.0 L 4.19 16.63 L 4.36 17.26 L 4.52 17.89 L 4.66 18.53 L 4.79 19.18 L 4.9 19.82 L 4.99 20.47 L 5.07 21.12 L 5.12 21.77 L 5.17 22.43 L 5.19 23.08 L 5.2 23.74 L 5.19 24.39 L 5.17 25.05 L 5.12 25.7 L 5.07 26.35 L 4.99 27.0 L 4.9 27.65 L 4.79 28.3 L 4.66 28.94 L 4.52 29.58 L 4.36 30.22 L 4.19 30.85 L 4.0 31.48" fill="none" stroke="#111" stroke-width="1.24" stroke-linecap="round" stroke-linejoin="round"/>
<path d="M 8.0 10.0 L 8.12 10.17 L 8.25 10.33 L 8.38 10.5 L 8.5 10.67 L 8.62 10.83 L 8.75 11.0 L 8.88 11.17 L 9.0 11.33 L 9.12 11.5 L 9.25 11.67 L 9.38 11.83 L 9.5 12.0 L 9.62 12.17 L 9.75 12.33 L 9.88 12.5 L 10.0 12.67 L 10.12 12.83 L 10.25 13.0 L 10.38 13.17 L 10.5 13.33 L 10.62 13.5 L 10.75 13.67 L 10.88 13.83 L 11.0 14.0 L 11.0 14.0 L 10.75 14.44 L 10.53 14.89 L 10.34 15.35 L 10.17 15.83 L 10.04 16.31 L 9.93 16.8 L 9.86 17.3 L 9.81 17.8 L 9.79 18.3 L 9.81 18.8 L 9.85 19.3 L 9.93 19.8 L 10.03 20.29 L 10.17 20.77 L 10.33 21.25 L 10.52 21.71 L 10.74 22.16 L 10.99 22.6 L 11.26 23.02 L 11.56 23.43 L 11.88 23.81 L 12.22 24.18 L 12.59 24.52 L 12.97 24.84 L 13.0 25.0 L 13.08 25.0 L 13.17 25.0 L 13.25 25.0 L 13.33 25.0 L 13.42 25.0 L 13.5 25.0 L 13.58 25.0 L 13.67 25.0 L 13.75 25.0 L 13.83 25.0 L 13.92 25.0 L 14.0 25.0 L 14.08 25.0 L 14.17 25.0 L 14.25 25.0 L 14.33 25.0 L 14.42 25.0 L 14.5 25.0 L 14.58 25.0 L 14.67 25.0 L 14.75 25.0 L 14.83 25.0 L 14.92 25.0 L 15.0 25.0 L 15.0 25.0 L 15.11 24.47 L 15.2 23.94 L 15.26 23.4 L 15.29 22.86 L 15.3 22.32 L 15.28 21.77 L 15.24 21.23 L 15.17 20.7 L 15.07 20.16 L 14.95 19.64 L 14.8 19.12 L 14.63 18.6 L 14.43 18.1 L 14.21 17.6 L 13.96 17.12 L 13.7 16.65 L 13.4 16.19 L 13.09 15.75 L 12.76 15.32 L 12.4 14.91 L 12.03 14.52 L 11.64 14.15 L 11.23 13.79 L 10.8 13.46" fill="none" stroke="#111" stroke-width="1.24" stroke-linecap="round" stroke-linejoin="round"/>
</svg>
