<?xml version="1.0" encoding="UTF-8"?>
<svg xmlns="http://www.w3.org/2000/svg" viewBox="0 0 24.10 32.86">
<path d="M 12.0 7.0 L 11.88 7.21 L 11.75 7.42 L 11.62 7.62 L 11.5 7.83 L 11.38 8.04 L 11.25 8.25 L 11.12 8.46 L 11.0 8.67 L 10.88 8.88 L 10.75 9.08 L 10.62 9.29 L 10.5 9.5 L 10.38 9.71 L 10.25 9.92 L 10.12 10.12 L 10.0 10.33 L 9.88 10.54 L 9.75 10.75 L 9.62 10.96 L 9.5 11.17 L 9.38 11.38 L 9.25 11.58 L 9.13 11.79 L 9.0 12.0 L 9.0 12.0 L 9.52 12.16 L 10.02 12.37 L 10.5 12.62 L 10.96 12.91 L 11.39 13.24 L 11.79 13.61 L 12.16 14.01 L 12.49 14.44 L 12.79 14.9 L 13.04 15.38 L 13.25 15.88 L 13.41 16.4 L 13.53 16.93 L 13.61 17.46 L 13.63 18.01 L 13.61 18.55 L 13.55 19.09 L 13.43 19.62 L 13.27 20.14 L 13.07 20.64 L 12.82 21.12 L 12.53 21.59 L 12.21 22.02 L 11.84 22.42 L 12.0 23.0 L 11.92 22.88 L 11.83 22.75 L 11.75 22.62 L 11.67 22.5 L 11.58 22.38 L 11.5 22.25 L 11.42 22.12 L 11.33 22.0 L 11.25 21.88 L 11.17 21.75 L 11.08 21.62 L 11.0 21.5 L 10.92 21.38 L 10.83 21.25 L 10.75 21.12 L 10.67 21.0 L 10.58 20.88 L 10.5 20.75 L 10.42 20.62 L 10.33 20.5 L 10.25 20.38 L 10.17 20.25 L 10.08 20.12 L 10.0 20.0 L 10.0 20.0 L 10.57 19.71 L 11.11 19.37 L 11.62 19.0 L 12.1 18.58 L 12.54 18.12 L 12.94 17.63 L 13.3 17.1 L 13.62 16.55 L 13.89 15.97 L 14.12 15.38 L 14.29 14.77 L 14.41 14.14 L 14.48 13.51 L 14.5 12.87 L 14.47 12.24 L 14.38 11.61 L 14.25 10.99 L 14.06 10.38 L 13.82 9.79 L 13.54 9.22 L 13.21 8.67 L 12.83 8.16 L 12.42 7.68 L 11.96 7.23" fill="none" stroke="#111" stroke-width="1.15" stroke-linecap="round" stroke-linejoin="round"/>
<path d="M 9.0 12.0 L 9.21 12.0 L 9.42 12.0 L 9.62 12.0 L 9.83 12.0 L 10.04 12.0 L 10.25 12.0 L 10.46 12.0 L 10.67 12.0 L 10.88 12.0 L 11.08 12.0 L 11.29 12.0 L 11.5 12.0 L 11.71 12.0 L 11.92 12.0 L 12.12 12.0 L 12.33 12.0 L 12.54 12.0 L 12.75 12.0 L 12.96 12.0 L 13.17 12.0 L 13.38 12.0 L 13.58 12.0 L 13.79 12.0 L 14.0 12.0" fill="none" stroke="#111" stroke-width="1.15" stroke-linecap="round" stroke-linejoin="round"/>
<path d="M 9.0 6.0 L 8.88 5.92 L 8.75 5.83 L 8.62 5.75 L 8.5 5.67 L 8.38 5.58 L 8.25 5.5 L 8.12 5.42 L 8.0 5.33 L 7.88 5.25 L 7.75 5.17 L 7.62 5.08 L 7.5 5.0 L 7.38 4.92 L 7.25 4.83 L 7.12 4.75 L 7.0 4.67 L 6.88 4.58 L 6.75 4.5 L 6.62 4.42 L 6.5 4.33 L 6.38 4.25 L 6.25 4.17 L 6.12 4.08 L 6.0 4.0 L 6.0 4.0 L 5.76 4.27 L 5.55 4.55 L 5.37 4.86 L 5.22 5.19 L 5.11 5.53 L 5.03 5.88 L 5.0 6.24 L 4.99 6.59 L 5.03 6.95 L 5.1 7.3 L 5.21 7.64 L 5.35 7.97 L 5.53 8.28 L 5.74 8.57 L 5.97 8.84 L 6.24 9.08 L 6.53 9.3 L 6.83 9.48 L 7.16 9.63 L 7.5 9.74 L 7.85 9.82 L 8.2 9.86 L 8.56 9.87 L 8.92 9.83" fill="none" stroke="#111" stroke-width="1.15" stroke-linecap="round" stroke-linejoin="round"/>
<path d="M 9.0 6.0 L 8.83 6.29 L 8.67 6.58 L 8.5 6.88 L 8.33 7.17 L 8.17 7.46 L 8.0 7.75 L 7.83 8.04 L 7.67 8.33 L 7.5 8.62 L 7.33 8.92 L 7.17 9.21 L 7.0 9.5 L 6.83 9.79 L 6.67 10.08 L 6.5 10.38 L 6.33 10.67 L 6.17 10.96 L 6.0 11.25 L 5.83 11.54 L 5.67 11.83 L 5.5 12.12 L 5.33 12.42 L 5.17 12.71 L 5.0 13.0 L 5.0 13.0 L 5.23 13.37 L 5.45 13.74 L 5.65 14.12 L 5.85 14.51 L 6.03 14.9 L 6.2 15.3 L 6.36 15.7 L 6.5 16.11 L 6.63 16.52 L 6.75 16.94 L 6.85 17.36 L 6.95 17.78 L 7.02 18.21 L 7.09 18.63 L 7.14 19.06 L 7.18 19.5 L 7.2 19.93 L 7.21 20.36 L 7.21 20.79 L 7.19 21.22 L 7.16 21.66 L 7.12 22.09 L 7.06 22.52 L 6.99 22.94" fill="none" stroke="#111" stroke-width="1.15" stroke-linecap="round" stroke-linejoin="round"/>
<path d="M 7.0 21.0 L 6.88 20.88 L 6.75 20.75 L 6.62 20.62 L 6.5 20.5 L 6.38 20.38 L 6.25 20.25 L 6.12 20.12 L 6.0 20.0 L 5.88 19.88 L 5.75 19.75 L 5.62 19.62 L 5.5 19.5 L 5.38 19.38 L 5.25 19.25 L 5.12 19.12 L 5.0 19.0 L 4.88 18.88 L 4.75 18.75 L 4.62 18.62 L 4.5 18.5 L 4.38 18.38 L 4.25 18.25 L 4.12 18.12 L 4.0 18.0 L 4.0 18.0 L 4.08 18.38 L 4.17 18.75 L 4.25 19.12 L 4.33 19.5 L 4.42 19.88 L 4.5 20.25 L 4.58 20.62 L 4.67 21.0 L 4.75 21.38 L 4.83 21.75 L 4.92 22.12 L 5.0 22.5 L 5.08 22.88 L 5.17 23.25 L 5.25 23.62 L 5.33 24.0 L 5.42 24.38 L 5.5 24.75 L 5.58 25.12 L 5.67 25.5 L 5.75 25.88 L 5.83 26.25 L 5.92 26.62 L 6.0 27.0" fill="none" stroke="#111" stroke-width="1.15" stroke-linecap="round" stroke-linejoin="round"/>
<path d="M 15.0 6.0 L 15.32 5.96 L 15.65 5.94 L 15.98 5.96 L 16.3 5.99 L 16.62 6.05 L 16.93 6.14 L 17.24 6.25 L 17.54 6.39 L 17.82 6.55 L 18.09 6.73 L 18.35 6.93 L 18.59 7.15 L 18.81 7.39 L 19.01 7.65 L 19.19 7.92 L 19.35 8.2 L 19.49 8.5 L 19.6 8.81 L 19.69 9.12 L 19.75 9.44 L 19.79 9.77 L 19.8 10.09 L 19.78 10.42 L 19.74 10.74 L 20.0 11.0 L 19.83 11.0 L 19.67 11.0 L 19.5 11.0 L 19.33 11.0 L 19.17 11.0 L 19.0 11.0 L 18.83 11.0 L 18.67 11.0 L 18.5 11.0 L 18.33 11.0 L 18.17 11.0 L 18.0 11.0 L 17.83 11.0 L 17.67 11.0 L 17.5 11.0 L 17.33 11.0 L 17.17 11.0 L 17.0 11.0 L 16.83 11.0 L 16.67 11.0 L 16.5 11.0 L 16.33 11.0 L 16.17 11.0 L 16.0 11.0" fill="none" stroke="#111" stroke-width="1.15" stroke-linecap="round" stroke-linejoin="round"/>
<path d="M 17.0 7.0 L 17.04 7.42 L 17.08 7.83 L 17.12 8.25 L 17.17 8.67 L 17.21 9.08 L 17.25 9.5 L 17.29 9.92 L 17.33 10.33 L 17.38 10.75 L 17.42 11.17 L 17.46 11.58 L 17.5 12.0 L 17.54 12.42 L 17.58 12.83 L 17.62 13.25 L 17.67 13.67 L 17.71 14.08 L 17.75 14.5 L 17.79 14.92 L 17.83 15.33 L 17.88 15.75 L 17.92 16.17 L 17.96 16.58 L 18.0 17.0 L 18.0 17.0 L 17.76 17.16 L 17.53 17.34 L 17.3 17.52 L 17.09 17.71 L 16.88 17.91 L 16.68 18.13 L 16.49 18.35 L 16.32 18.57 L 16.15 18.81 L 15.99 19.05 L 15.84 19.3 L 15.71 19.56 L 15.59 19.82 L 15.47 20.09 L 15.37 20.36 L 15.29 20.64 L 15.21 20.92 L 15.15 21.2 L 15.1 21.48 L 15.06 21.77 L 15.03 22.06 L 15.02 22.35 L 15.02 22.64 L 15.04 22.93 L 15.0 23.0 L 15.21 22.83 L 15.42 22.67 L 15.62 22.5 L 15.83 22.33 L 16.04 22.17 L 16.25 22.0 L 16.46 21.83 L 16.67 21.67 L 16.88 21.5 L 17.08 21.33 L 17.29 21.17 L 17.5 21.0 L 17.71 20.83 L 17.92 20.67 L 18.12 20.5 L 18.33 20.33 L 18.54 20.17 L 18.75 20.0 L 18.96 19.83 L 19.17 19.67 L 19.38 19.5 L 19.58 19.33 L 19.79 19.17 L 20.0 19.0 L 20.0 19.0 L 20.06 19.49 L 20.09 19.97 L 20.1 20.46 L 20.09 20.95 L 20.05 21.44 L 19.98 21.92 L 19.89 22.4 L 19.78 22.88 L 19.64 23.35 L 19.48 23.81 L 19.3 24.26 L 19.09 24.71 L 18.86 25.14 L 18.61 25.56 L 18.33 25.96 L 18.04 26.36 L 17.73 26.73 L 17.4 27.09 L 17.05 27.44 L 16.68 27.76 L 16.3 28.07 L 15.9 28.35 L 15.49 28.62 L 15.07 28.86" fill="none" stroke="#111" stroke-width="1.15" stroke-linecap="round" stroke-linejoin="round"/>
</svg>
