<?xml version="1.0" encoding="UTF-8"?>
<svg xmlns="http://www.w3.org/2000/svg" viewBox="0 0 22.67 33.00">
<path d="M 4.0 5.0 L 4.25 4.96 L 4.5 4.92 L 4.75 4.88 L 5.0 4.83 L 5.25 4.79 L 5.5 4.75 L 5.75 4.71 L 6.0 4.67 L 6.25 4.62 L 6.5 4.58 L 6.75 4.54 L 7.0 4.5 L 7.25 4.46 L 7.5 4.42 L 7.75 4.38 L 8.0 4.33 L 8.25 4.29 L 8.5 4.25 L 8.75 4.21 L 9.0 4.17 L 9.25 4.12 L 9.5 4.08 L 9.75 4.04 L 10.0 4.0" fill="none" stroke="#111" stroke-width="1.16" stroke-linecap="round" stroke-linejoin="round"/>
<path d="M 4.0 5.0 L 4.0 5.17 L 4.0 5.33 L 4.0 5.5 L 4.0 5.67 L 4.0 5.83 L 4.0 6.0 L 4.0 6.17 L 4.0 6.33 L 4.0 6.5 L 4.0 6.67 L 4.0 6.83 L 4.0 7.0 L 4.0 7.17 L 4.0 7.33 L 4.0 7.5 L 4.0 7.67 L 4.0 7.83 L 4.0 8.0 L 4.0 8.17 L 4.0 8.33 L 4.0 8.5 L 4.0 8.67 L 4.0 8.83 L 4.0 9.0" fill="none" stroke="#111" stroke-width="1.16" stroke-linecap="round" stroke-linejoin="round"/>
<path d="M 4.0 9.0 L 4.21 8.96 L 4.42 8.92 L 4.62 8.88 L 4.83 8.83 L 5.04 8.79 L 5.25 8.75 L 5.46 8.71 L 5.67 8.67 L 5.88 8.62 L 6.08 8.58 L 6.29 8.54 L 6.5 8.5 L 6.71 8.46 L 6.92 8.42 L 7.12 8.38 L 7.33 8.33 L 7.54 8.29 L 7.75 8.25 L 7.96 8.21 L 8.17 8.17 L 8.38 8.12 L 8.58 8.08 L 8.79 8.04 L 9.0 8.0" fill="none" stroke="#111" stroke-width="1.16" stroke-linecap="round" stroke-linejoin="round"/>
<path d="M 7.0 4.0 L 7.0 4.17 L 7.0 4.33 L 7.0 4.5 L 7.0 4.67 L 7.0 4.83 L 7.0 5.0 L 7.0 5.17 L 7.0 5.33 L 7.0 5.5 L 7.0 5.67 L 7.0 5.83 L 7.0 6.0 L 7.0 6.17 L 7.0 6.33 L 7.0 6.5 L 7.0 6.67 L 7.0 6.83 L 7.0 7.0 L 7.0 7.17 L 7.0 7.33 L 7.0 7.5 L 7.0 7.67 L 7.0 7.83 L 7.0 8.0" fill="none" stroke="#111" stroke-width="1.16" stroke-linecap="round" stroke-linejoin="round"/>
<path d="M 5.0 9.0 L 5.0 9.46 L 5.0 9.92 L 5.0 10.38 L 5.0 10.83 L 5.0 11.29 L 5.0 11.75 L 5.0 12.21 L 5.0 12.67 L 5.0 13.12 L 5.0 13.58 L 5.0 14.04 L 5.0 14.5 L 5.0 14.96 L 5.0 15.42 L 5.0 15.88 L 5.0 16.33 L 5.0 16.79 L 5.0 17.25 L 5.0 17.71 L 5.0 18.17 L 5.0 18.62 L 5.0 19.08 L 5.0 19.54 L 5.0 20.0 L 5.0 20.0 L 5.22 19.88 L 5.46 19.78 L 5.7 19.71 L 5.95 19.66 L 6.21 19.63 L 6.46 19.63 L 6.72 19.66 L 6.97 19.71 L 7.21 19.78 L 7.45 19.88 L 7.67 20.0 L 7.88 20.14 L 8.08 20.31 L 8.26 20.49 L 8.42 20.69 L 8.56 20.9 L 8.67 21.12 L 8.77 21.36 L 8.84 21.61 L 8.89 21.86 L 8.91 22.11 L 8.91 22.37 L 8.88 22.62 L 8.82 22.87 L 9.0 23.0 L 8.83 22.96 L 8.67 22.92 L 8.5 22.88 L 8.33 22.83 L 8.17 22.79 L 8.0 22.75 L 7.83 22.71 L 7.67 22.67 L 7.5 22.62 L 7.33 22.58 L 7.17 22.54 L 7.0 22.5 L 6.83 22.46 L 6.67 22.42 L 6.5 22.38 L 6.33 22.33 L 6.17 22.29 L 6.0 22.25 L 5.83 22.21 L 5.67 22.17 L 5.5 22.12 L 5.33 22.08 L 5.17 22.04 L 5.0 22.0 L 5.0 22.0 L 5.08 22.29 L 5.17 22.58 L 5.25 22.88 L 5.33 23.17 L 5.42 23.46 L 5.5 23.75 L 5.58 24.04 L 5.67 24.33 L 5.75 24.62 L 5.83 24.92 L 5.92 25.21 L 6.0 25.5 L 6.08 25.79 L 6.17 26.08 L 6.25 26.38 L 6.33 26.67 L 6.42 26.96 L 6.5 27.25 L 6.58 27.54 L 6.67 27.83 L 6.75 28.12 L 6.83 28.42 L 6.92 28.71 L 7.0 29.0" fill="none" stroke="#111" stroke-width="1.16" stroke-linecap="round" stroke-linejoin="round"/>
<path d="M 5.0 11.0 L 5.3 11.35 L 5.58 11.7 L 5.86 12.06 L 6.12 12.43 L 6.38 12.81 L 6.62 13.19 L 6.86 13.59 L 7.08 13.98 L 7.29 14.39 L 7.49 14.8 L 7.67 15.21 L 7.85 15.63 L 8.01 16.06 L 8.16 16.49 L 8.3 16.92 L 8.43 17.36 L 8.54 17.8 L 8.64 18.24 L 8.73 18.69 L 8.81 19.14 L 8.87 19.59 L 8.92 20.04 L 8.96 20.5 L 8.98 20.95" fill="none" stroke="#111" stroke-width="1.16" stroke-linecap="round" stroke-linejoin="round"/>
<path d="M 12.0 4.0 L 12.21 4.0 L 12.42 4.0 L 12.62 4.0 L 12.83 4.0 L 13.04 4.0 L 13.25 4.0 L 13.46 4.0 L 13.67 4.0 L 13.88 4.0 L 14.08 4.0 L 14.29 4.0 L 14.5 4.0 L 14.71 4.0 L 14.92 4.0 L 15.12 4.0 L 15.33 4.0 L 15.54 4.0 L 15.75 4.0 L 15.96 4.0 L 16.17 4.0 L 16.38 4.0 L 16.58 4.0 L 16.79 4.0 L 17.0 4.0" fill="none" stroke="#111" stroke-width="1.16" stroke-linecap="round" stroke-linejoin="round"/>
<path d="M 17.0 4.0 L 17.04 4.17 L 17.08 4.33 L 17.12 4.5 L 17.17 4.67 L 17.21 4.83 L 17.25 5.0 L 17.29 5.17 L 17.33 5.33 L 17.38 5.5 L 17.42 5.67 L 17.46 5.83 L 17.5 6.0 L 17.54 6.17 L 17.58 6.33 L 17.62 6.5 L 17.67 6.67 L 17.71 6.83 L 17.75 7.0 L 17.79 7.17 L 17.83 7.33 L 17.88 7.5 L 17.92 7.67 L 17.96 7.83 L 18.0 8.0" fill="none" stroke="#111" stroke-width="1.16" stroke-linecap="round" stroke-linejoin="round"/>
<path d="M 12.0 4.0 L 12.08 4.17 L 12.17 4.33 L 12.25 4.5 L 12.33 4.67 L 12.42 4.83 L 12.5 5.0 L 12.58 5.17 L 12.67 5.33 L 12.75 5.5 L 12.83 5.67 L 12.92 5.83 L 13.0 6.0 L 13.08 6.17 L 13.17 6.33 L 13.25 6.5 L 13.33 6.67 L 13.42 6.83 L 13.5 7.0 L 13.58 7.17 L 13.67 7.33 L 13.75 7.5 L 13.83 7.67 L 13.92 7.83 L 14.0 8.0" fill="none" stroke="#111" stroke-width="1.16" stroke-linecap="round" stroke-linejoin="round"/>
<path d="M 12.0 8.0 L 12.25 7.96 L 12.5 7.92 L 12.75 7.88 L 13.0 7.83 L 13.25 7.79 L 13.5 7.75 L 13.75 7.71 L 14.0 7.67 L 14.25 7.62 L 14.5 7.58 L 14.75 7.54 L 15.0 7.5 L 15.25 7.46 L 15.5 7.42 L 15.75 7.38 L 16.0 7.33 L 16.25 7.29 L 16.5 7.25 L 16.75 7.21 L 17.0 7.17 L 17.25 7.12 L 17.5 7.08 L 17.75 7.04 L 18.0 7.0" fill="none" stroke="#111" stroke-width="1.16" stroke-linecap="round" stroke-linejoin="round"/>
<path d="M 16.0 7.0 L 16.48 7.52 L 16.91 8.07 L 17.3 8.65 L 17.65 9.26 L 17.94 9.89 L 18.19 10.55 L 18.39 11.22 L 18.54 11.91 L 18.63 12.6 L 18.67 13.3 L 18.66 14.0 L 18.59 14.7 L 18.48 15.39 L 18.3 16.07 L 18.08 16.74 L 17.81 17.39 L 17.49 18.01 L 17.12 18.61 L 16.71 19.17 L 16.25 19.71 L 15.76 20.21 L 15.23 20.67 L 14.67 21.08 L 14.07 21.46 L 14.0 22.0 L 14.0 22.12 L 14.0 22.25 L 14.0 22.38 L 14.0 22.5 L 14.0 22.62 L 14.0 22.75 L 14.0 22.88 L 14.0 23.0 L 14.0 23.12 L 14.0 23.25 L 14.0 23.38 L 14.0 23.5 L 14.0 23.62 L 14.0 23.75 L 14.0 23.88 L 14.0 24.0 L 14.0 24.12 L 14.0 24.25 L 14.0 24.38 L 14.0 24.5 L 14.0 24.62 L 14.0 24.75 L 14.0 24.88 L 14.0 25.0 L 14.0 25.0 L 14.17 24.88 L 14.33 24.75 L 14.5 24.62 L 14.67 24.5 L 14.83 24.38 L 15.0 24.25 L 15.17 24.12 L 15.33 24.0 L 15.5 23.88 L 15.67 23.75 L 15.83 23.62 L 16.0 23.5 L 16.17 23.38 L 16.33 23.25 L 16.5 23.12 L 16.67 23.0 L 16.83 22.88 L 17.0 22.75 L 17.17 22.62 L 17.33 22.5 L 17.5 22.38 L 17.67 22.25 L 17.83 22.12 L 18.0 22.0 L 18.0 22.0 L 18.14 22.29 L 18.27 22.6 L 18.37 22.9 L 18.45 23.22 L 18.52 23.54 L 18.56 23.86 L 18.58 24.19 L 18.59 24.51 L 18.57 24.84 L 18.53 25.16 L 18.47 25.48 L 18.39 25.8 L 18.29 26.11 L 18.17 26.42 L 18.03 26.71 L 17.88 27.0 L 17.7 27.27 L 17.51 27.54 L 17.3 27.79 L 17.08 28.03 L 16.84 28.25 L 16.59 28.46 L 16.33 28.65 L 16.05 28.82" fill="none" stroke="#111" stroke-width="1.16" stroke-linecap="round" stroke-linejoin="round"/>
<path d="M 17.0 10.0 L 16.63 10.39 L 16.28 10.79 L 15.95 11.21 L 15.64 11.65 L 15.35 12.1 L 15.08 12.56 L 14.83 13.03 L 14.6 13.51 L 14.39 14.0 L 14.2 14.5 L 14.04 15.01 L 13.9 15.53 L 13.78 16.05 L 13.68 16.57 L 13.61 17.1 L 13.56 17.64 L 13.54 18.17 L 13.54 18.71 L 13.56 19.24 L 13.61 19.77 L 13.68 20.3 L 13.78 20.83 L 13.89 21.35 L 14.03 21.87" fill="none" stroke="#111" stroke-width="1.16" stroke-linecap="round" stroke-linejoin="round"/>
</svg>
