<?xml version="1.0" encoding="UTF-8"?>
<svg xmlns="http://www.w3.org/2000/svg" viewBox="0 0 26.11 45.62">
<path d="M 19.0 12.82 L 20.03 12.33 L 20.9 11.6 L 21.56 10.68 L 21.98 9.62 L 22.11 8.49 L 21.97 7.37 L 21.54 6.31 L 20.87 5.4 L 19.99 4.68 L 18.95 4.2 L 17.84 4.0 L 16.7 4.08 L 15.63 4.44 L 14.67 5.06 L 13.9 5.9 L 13.37 6.9 L 13.1 8.0 L 13.11 9.14 L 13.41 10.23 L 13.97 11.22 L 14.75 12.04 L 15.72 12.64 L 16.81 12.97 L 17.94 13.03 L 4.0 15.82 L 4.19 16.09 L 4.41 16.35 L 4.64 16.59 L 4.9 16.81 L 5.17 17.01 L 5.46 17.18 L 5.76 17.33 L 6.07 17.45 L 6.4 17.55 L 6.73 17.62 L 7.06 17.66 L 7.4 17.68 L 7.73 17.66 L 8.07 17.62 L 8.4 17.55 L 8.72 17.45 L 9.03 17.33 L 9.33 17.18 L 9.62 17.01 L 9.89 16.81 L 10.15 16.59 L 10.38 16.35 L 10.6 16.09 L 10.79 15.82 L 11.0 15.82 L 11.32 15.81 L 11.63 15.8 L 11.95 15.77 L 12.26 15.73 L 12.58 15.67 L 12.89 15.61 L 13.19 15.53 L 13.5 15.44 L 13.8 15.34 L 14.09 15.23 L 14.38 15.1 L 14.67 14.96 L 14.95 14.82 L 15.23 14.66 L 15.49 14.49 L 15.75 14.31 L 16.01 14.12 L 16.26 13.92 L 16.49 13.71 L 16.72 13.5 L 16.95 13.27 L 17.16 13.03 L 17.36 12.79 L 17.55 12.54" fill="none" stroke="#111" stroke-width="1.60" stroke-linecap="round" stroke-linejoin="round"/>
<path d="M 9.0 10.82 L 8.72 10.98 L 8.45 11.17 L 8.21 11.39 L 7.99 11.63 L 7.8 11.9 L 7.64 12.18 L 7.51 12.48 L 7.41 12.79 L 7.34 13.11 L 7.31 13.44 L 7.31 13.76 L 7.35 14.09 L 7.42 14.41 L 7.52 14.72 L 7.66 15.02 L 7.82 15.3 L 8.02 15.56 L 8.24 15.8 L 8.49 16.02 L 8.75 16.2 L 9.04 16.36 L 9.34 16.49 L 9.65 16.59 L 9.97 16.65 L 10.0 16.82 L 9.96 17.02 L 9.92 17.23 L 9.88 17.44 L 9.83 17.65 L 9.79 17.86 L 9.75 18.07 L 9.71 18.27 L 9.67 18.48 L 9.62 18.69 L 9.58 18.9 L 9.54 19.11 L 9.5 19.32 L 9.46 19.52 L 9.42 19.73 L 9.38 19.94 L 9.33 20.15 L 9.29 20.36 L 9.25 20.57 L 9.21 20.77 L 9.17 20.98 L 9.12 21.19 L 9.08 21.4 L 9.04 21.61 L 9.0 21.82 L 9.0 21.82 L 8.43 22.51 L 7.92 23.25 L 7.49 24.04 L 7.12 24.86 L 6.83 25.71 L 6.62 26.59 L 6.48 27.47 L 6.42 28.37 L 6.45 29.27 L 6.55 30.16 L 6.74 31.04 L 7.0 31.9 L 7.33 32.74 L 7.74 33.54 L 8.22 34.3 L 8.77 35.01 L 9.38 35.68 L 10.04 36.28 L 10.75 36.83 L 11.51 37.31 L 12.31 37.72 L 13.15 38.06 L 14.01 38.32 L 14.89 38.5" fill="none" stroke="#111" stroke-width="1.60" stroke-linecap="round" stroke-linejoin="round"/>
<path d="M 11.0 11.82 L 11.17 11.99 L 11.32 12.18 L 11.45 12.39 L 11.57 12.6 L 11.67 12.82 L 11.75 13.05 L 11.82 13.28 L 11.86 13.52 L 11.88 13.77 L 11.88 14.01 L 11.87 14.25 L 11.83 14.49 L 11.77 14.73 L 11.69 14.96 L 11.6 15.18 L 11.48 15.4 L 11.35 15.6 L 11.2 15.8 L 11.04 15.98 L 10.86 16.14 L 10.67 16.29 L 10.47 16.43 L 10.26 16.55 L 10.03 16.64 L 10.0 16.82 L 10.18 17.23 L 10.38 17.64 L 10.61 18.03 L 10.86 18.41 L 11.13 18.78 L 11.42 19.12 L 11.72 19.46 L 12.05 19.77 L 12.4 20.06 L 12.76 20.34 L 13.13 20.59 L 13.52 20.82 L 13.93 21.03 L 14.34 21.22 L 14.76 21.38 L 15.2 21.52 L 15.64 21.63 L 16.08 21.72 L 16.53 21.78 L 16.98 21.81 L 17.44 21.82 L 17.89 21.81 L 18.34 21.77 L 18.79 21.7" fill="none" stroke="#111" stroke-width="1.60" stroke-linecap="round" stroke-linejoin="round"/>
<path d="M 12.0 20.82 L 12.52 21.21 L 13.0 21.66 L 13.44 22.15 L 13.83 22.67 L 14.17 23.23 L 14.46 23.82 L 14.69 24.44 L 14.86 25.07 L 14.98 25.71 L 15.03 26.37 L 15.02 27.02 L 14.95 27.68 L 14.82 28.32 L 14.63 28.95 L 14.39 29.55 L 14.08 30.14 L 13.73 30.69 L 13.32 31.2 L 12.87 31.68 L 12.38 32.11 L 11.85 32.5 L 11.28 32.83 L 10.69 33.11 L 10.07 33.33" fill="none" stroke="#111" stroke-width="1.60" stroke-linecap="round" stroke-linejoin="round"/>
<path d="M 10.0 33.82 L 10.46 33.81 L 10.92 33.81 L 11.38 33.82 L 11.84 33.83 L 12.3 33.85 L 12.76 33.87 L 13.22 33.89 L 13.68 33.92 L 14.14 33.96 L 14.6 34.0 L 15.06 34.04 L 15.51 34.09 L 15.97 34.14 L 16.43 34.2 L 16.88 34.26 L 17.34 34.33 L 17.8 34.4 L 18.25 34.48 L 18.7 34.56 L 19.15 34.65 L 19.61 34.74 L 20.06 34.83 L 20.51 34.93 L 20.96 35.03" fill="none" stroke="#111" stroke-width="1.60" stroke-linecap="round" stroke-linejoin="round"/>
<path d="M 15.0 36.82 L 14.75 36.87 L 14.5 36.94 L 14.25 37.03 L 14.02 37.15 L 13.8 37.28 L 13.59 37.43 L 13.39 37.61 L 13.21 37.79 L 13.05 37.99 L 12.9 38.21 L 12.78 38.44 L 12.67 38.67 L 12.58 38.92 L 12.52 39.17 L 12.48 39.43 L 12.45 39.68 L 12.46 39.94 L 12.48 40.2 L 12.53 40.46 L 12.6 40.71 L 12.69 40.95 L 12.8 41.19 L 12.93 41.41 L 13.08 41.62" fill="none" stroke="#111" stroke-width="1.60" stroke-linecap="round" stroke-linejoin="round"/>
</svg>
