<?xml version="1.0" encoding="UTF-8"?>
<svg xmlns="http://www.w3.org/2000/svg" viewBox="0 0 23.00 34.62">
<path d="M 11.0 4.0 L 11.0 4.75 L 11.0 5.5 L 11.0 6.25 L 11.0 7.0 L 11.0 7.75 L 11.0 8.5 L 11.0 9.25 L 11.0 10.0 L 11.0 10.75 L 11.0 11.5 L 11.0 12.25 L 11.0 13.0 L 11.0 13.75 L 11.0 14.5 L 11.0 15.25 L 11.0 16.0 L 11.0 16.75 L 11.0 17.5 L 11.0 18.25 L 11.0 19.0 L 11.0 19.75 L 11.0 20.5 L 11.0 21.25 L 11.0 22.0 L 11.0 22.0 L 10.67 22.31 L 10.37 22.64 L 10.1 23.01 L 9.87 23.39 L 9.67 23.79 L 9.51 24.21 L 9.38 24.65 L 9.3 25.09 L 9.25 25.54 L 9.25 25.99 L 9.29 26.44 L 9.37 26.88 L 9.48 27.32 L 9.64 27.74 L 9.83 28.15 L 10.06 28.53 L 10.33 28.9 L 10.62 29.24 L 10.95 29.55 L 11.3 29.83 L 11.67 30.08 L 12.07 30.3 L 12.49 30.47 L 12.91 30.61" fill="none" stroke="#111" stroke-width="1.21" stroke-linecap="round" stroke-linejoin="round"/>
<path d="M 11.0 21.0 L 11.35 21.38 L 11.66 21.78 L 11.93 22.22 L 12.16 22.67 L 12.35 23.15 L 12.5 23.64 L 12.6 24.14 L 12.66 24.65 L 12.67 25.16 L 12.64 25.67 L 12.56 26.17 L 12.43 26.67 L 12.26 27.15 L 12.05 27.62 L 11.8 28.06 L 11.51 28.48 L 11.18 28.88 L 10.82 29.24 L 10.43 29.57 L 10.01 29.86 L 9.56 30.11 L 9.09 30.32 L 8.61 30.49 L 8.12 30.62" fill="none" stroke="#111" stroke-width="1.21" stroke-linecap="round" stroke-linejoin="round"/>
<path d="M 11.0 4.0 L 10.83 4.21 L 10.67 4.42 L 10.5 4.62 L 10.33 4.83 L 10.17 5.04 L 10.0 5.25 L 9.83 5.46 L 9.67 5.67 L 9.5 5.88 L 9.33 6.08 L 9.17 6.29 L 9.0 6.5 L 8.83 6.71 L 8.67 6.92 L 8.5 7.12 L 8.33 7.33 L 8.17 7.54 L 8.0 7.75 L 7.83 7.96 L 7.67 8.17 L 7.5 8.38 L 7.33 8.58 L 7.17 8.79 L 7.0 9.0" fill="none" stroke="#111" stroke-width="1.21" stroke-linecap="round" stroke-linejoin="round"/>
<path d="M 11.0 4.0 L 11.17 4.21 L 11.33 4.42 L 11.5 4.62 L 11.67 4.83 L 11.83 5.04 L 12.0 5.25 L 12.17 5.46 L 12.33 5.67 L 12.5 5.88 L 12.67 6.08 L 12.83 6.29 L 13.0 6.5 L 13.17 6.71 L 13.33 6.92 L 13.5 7.12 L 13.67 7.33 L 13.83 7.54 L 14.0 7.75 L 14.17 7.96 L 14.33 8.17 L 14.5 8.38 L 14.67 8.58 L 14.83 8.79 L 15.0 9.0" fill="none" stroke="#111" stroke-width="1.21" stroke-linecap="round" stroke-linejoin="round"/>
<path d="M 4.0 14.0 L 4.62 14.0 L 5.25 14.0 L 5.88 14.0 L 6.5 14.0 L 7.12 14.0 L 7.75 14.0 L 8.38 14.0 L 9.0 14.0 L 9.62 14.0 L 10.25 14.0 L 10.88 14.0 L 11.5 14.0 L 12.12 14.0 L 12.75 14.0 L 13.38 14.0 L 14.0 14.0 L 14.62 14.0 L 15.25 14.0 L 15.88 14.0 L 16.5 14.0 L 17.12 14.0 L 17.75 14.0 L 18.38 14.0 L 19.0 14.0" fill="none" stroke="#111" stroke-width="1.21" stroke-linecap="round" stroke-linejoin="round"/>
<path d="M 8.0 11.0 L 7.83 11.12 L 7.67 11.25 L 7.5 11.38 L 7.33 11.5 L 7.17 11.62 L 7.0 11.75 L 6.83 11.88 L 6.67 12.0 L 6.5 12.12 L 6.33 12.25 L 6.17 12.38 L 6.0 12.5 L 5.83 12.62 L 5.67 12.75 L 5.5 12.88 L 5.33 13.0 L 5.17 13.12 L 5.0 13.25 L 4.83 13.38 L 4.67 13.5 L 4.5 13.62 L 4.33 13.75 L 4.17 13.88 L 4.0 14.0" fill="none" stroke="#111" stroke-width="1.21" stroke-linecap="round" stroke-linejoin="round"/>
<path d="M 4.0 14.0 L 4.12 14.17 L 4.25 14.33 L 4.38 14.5 L 4.5 14.67 L 4.62 14.83 L 4.75 15.0 L 4.88 15.17 L 5.0 15.33 L 5.12 15.5 L 5.25 15.67 L 5.38 15.83 L 5.5 16.0 L 5.62 16.17 L 5.75 16.33 L 5.88 16.5 L 6.0 16.67 L 6.12 16.83 L 6.25 17.0 L 6.38 17.17 L 6.5 17.33 L 6.62 17.5 L 6.75 17.67 L 6.88 17.83 L 7.0 18.0" fill="none" stroke="#111" stroke-width="1.21" stroke-linecap="round" stroke-linejoin="round"/>
<path d="M 15.0 12.0 L 15.17 12.08 L 15.33 12.17 L 15.5 12.25 L 15.67 12.33 L 15.83 12.42 L 16.0 12.5 L 16.17 12.58 L 16.33 12.67 L 16.5 12.75 L 16.67 12.83 L 16.83 12.92 L 17.0 13.0 L 17.17 13.08 L 17.33 13.17 L 17.5 13.25 L 17.67 13.33 L 17.83 13.42 L 18.0 13.5 L 18.17 13.58 L 18.33 13.67 L 18.5 13.75 L 18.67 13.83 L 18.83 13.92 L 19.0 14.0" fill="none" stroke="#111" stroke-width="1.21" stroke-linecap="round" stroke-linejoin="round"/>
<path d="M 19.0 14.0 L 18.88 14.12 L 18.75 14.25 L 18.62 14.38 L 18.5 14.5 L 18.38 14.62 L 18.25 14.75 L 18.12 14.88 L 18.0 15.0 L 17.88 15.12 L 17.75 15.25 L 17.62 15.38 L 17.5 15.5 L 17.38 15.62 L 17.25 15.75 L 17.12 15.88 L 17.0 16.0 L 16.88 16.12 L 16.75 16.25 L 16.62 16.38 L 16.5 16.5 L 16.38 16.62 L 16.25 16.75 L 16.12 16.88 L 16.0 17.0" fill="none" stroke="#111" stroke-width="1.21" stroke-linecap="round" stroke-linejoin="round"/>
</svg>
