<?xml version="1.0" encoding="UTF-8"?>
<svg xmlns="http://www.w3.org/2000/svg" viewBox="0 0 23.00 34.00">
<path d="M 12.0 4.0 L 12.0 5.08 L 12.0 6.17 L 12.0 7.25 L 12.0 8.33 L 12.0 9.42 L 12.0 10.5 L 12.0 11.58 L 12.0 12.67 L 12.0 13.75 L 12.0 14.83 L 12.0 15.92 L 12.0 17.0 L 12.0 18.08 L 12.0 19.17 L 12.0 20.25 L 12.0 21.33 L 12.0 22.42 L 12.0 23.5 L 12.0 24.58 L 12.0 25.67 L 12.0 26.75 L 12.0 27.83 L 12.0 28.92 L 12.0 30.0" fill="none" stroke="#111" stroke-width="1.19" stroke-linecap="round" stroke-linejoin="round"/>
<path d="M 6.0 14.0 L 5.92 14.58 L 5.83 15.17 L 5.75 15.75 L 5.67 16.33 L 5.58 16.92 L 5.5 17.5 L 5.42 18.08 L 5.33 18.67 L 5.25 19.25 L 5.17 19.83 L 5.08 20.42 L 5.0 21.0 L 4.92 21.58 L 4.83 22.17 L 4.75 22.75 L 4.67 23.33 L 4.58 23.92 L 4.5 24.5 L 4.42 25.08 L 4.33 25.67 L 4.25 26.25 L 4.17 26.83 L 4.08 27.42 L 4.0 28.0" fill="none" stroke="#111" stroke-width="1.19" stroke-linecap="round" stroke-linejoin="round"/>
<path d="M 18.0 12.0 L 18.04 12.67 L 18.08 13.33 L 18.12 14.0 L 18.17 14.67 L 18.21 15.33 L 18.25 16.0 L 18.29 16.67 L 18.33 17.33 L 18.38 18.0 L 18.42 18.67 L 18.46 19.33 L 18.5 20.0 L 18.54 20.67 L 18.58 21.33 L 18.62 22.0 L 18.67 22.67 L 18.71 23.33 L 18.75 24.0 L 18.79 24.67 L 18.83 25.33 L 18.88 26.0 L 18.92 26.67 L 18.96 27.33 L 19.0 28.0" fill="none" stroke="#111" stroke-width="1.19" stroke-linecap="round" stroke-linejoin="round"/>
</svg>
