<?xml version="1.0" encoding="UTF-8"?>
<svg xmlns="http://www.w3.org/2000/svg" viewBox="0 0 18.00 34.94">
<path d="M 8.0 4.0 L 8.04 4.42 L 8.08 4.83 L 8.12 5.25 L 8.17 5.67 L 8.21 6.08 L 8.25 6.5 L 8.29 6.92 L 8.33 7.33 L 8.38 7.75 L 8.42 8.17 L 8.46 8.58 L 8.5 9.0 L 8.54 9.42 L 8.58 9.83 L 8.62 10.25 L 8.67 10.67 L 8.71 11.08 L 8.75 11.5 L 8.79 11.92 L 8.83 12.33 L 8.88 12.75 L 8.92 13.17 L 8.96 13.58 L 9.0 14.0 L 9.0 14.0 L 8.83 14.08 L 8.67 14.17 L 8.5 14.25 L 8.33 14.33 L 8.17 14.42 L 8.0 14.5 L 7.83 14.58 L 7.67 14.67 L 7.5 14.75 L 7.33 14.83 L 7.17 14.92 L 7.0 15.0 L 6.83 15.08 L 6.67 15.17 L 6.5 15.25 L 6.33 15.33 L 6.17 15.42 L 6.0 15.5 L 5.83 15.58 L 5.67 15.67 L 5.5 15.75 L 5.33 15.83 L 5.17 15.92 L 5.0 16.0 L 5.0 16.0 L 4.99 16.34 L 5.01 16.67 L 5.07 17.0 L 5.16 17.33 L 5.28 17.64 L 5.43 17.94 L 5.61 18.23 L 5.81 18.5 L 6.04 18.74 L 6.3 18.96 L 6.58 19.15 L 6.87 19.32 L 7.18 19.45 L 7.5 19.56 L 7.83 19.63 L 8.16 19.67 L 8.5 19.68 L 8.83 19.65 L 9.16 19.59 L 9.49 19.49 L 9.8 19.37 L 10.1 19.22 L 10.38 19.03 L 10.64 18.82 L 11.0 19.0 L 11.19 18.76 L 11.37 18.51 L 11.52 18.24 L 11.64 17.95 L 11.74 17.66 L 11.82 17.36 L 11.87 17.06 L 11.89 16.75 L 11.88 16.44 L 11.85 16.14 L 11.79 15.83 L 11.71 15.54 L 11.6 15.25 L 11.46 14.97 L 11.31 14.71 L 11.12 14.46 L 10.92 14.22 L 10.7 14.01 L 10.46 13.81 L 10.21 13.64 L 9.94 13.49 L 9.65 13.37 L 9.36 13.27 L 9.06 13.19" fill="none" stroke="#111" stroke-width="1.22" stroke-linecap="round" stroke-linejoin="round"/>
<path d="M 5.0 6.0 L 5.23 6.31 L 5.5 6.59 L 5.79 6.84 L 6.11 7.06 L 6.45 7.24 L 6.8 7.39 L 7.17 7.5 L 7.55 7.58 L 7.94 7.61 L 8.32 7.6 L 8.7 7.56 L 9.08 7.47 L 9.45 7.34 L 9.8 7.18 L 10.13 6.98 L 10.44 6.75 L 10.72 6.49 L 10.97 6.2 L 11.2 5.89 L 11.39 5.55 L 11.54 5.2 L 11.65 4.83 L 11.73 4.45 L 11.77 4.07" fill="none" stroke="#111" stroke-width="1.22" stroke-linecap="round" stroke-linejoin="round"/>
<path d="M 4.0 11.0 L 4.37 11.25 L 4.77 11.46 L 5.17 11.65 L 5.6 11.8 L 6.03 11.92 L 6.47 12.0 L 6.91 12.05 L 7.36 12.07 L 7.81 12.05 L 8.25 11.99 L 8.69 11.9 L 9.12 11.77 L 9.54 11.62 L 9.95 11.42 L 10.34 11.2 L 10.71 10.95 L 11.06 10.67 L 11.38 10.36 L 11.68 10.03 L 11.96 9.68 L 12.21 9.3 L 12.42 8.91 L 12.6 8.5 L 12.76 8.08" fill="none" stroke="#111" stroke-width="1.22" stroke-linecap="round" stroke-linejoin="round"/>
<path d="M 8.0 18.0 L 8.17 18.52 L 8.32 19.05 L 8.45 19.58 L 8.58 20.11 L 8.69 20.65 L 8.78 21.19 L 8.86 21.73 L 8.93 22.28 L 8.98 22.83 L 9.02 23.37 L 9.04 23.92 L 9.04 24.47 L 9.04 25.02 L 9.02 25.57 L 8.98 26.11 L 8.93 26.66 L 8.86 27.2 L 8.78 27.75 L 8.69 28.29 L 8.58 28.82 L 8.45 29.36 L 8.32 29.89 L 8.17 30.41 L 8.0 30.94" fill="none" stroke="#111" stroke-width="1.22" stroke-linecap="round" stroke-linejoin="round"/>
<path d="M 5.0 21.0 L 5.12 21.12 L 5.25 21.25 L 5.38 21.38 L 5.5 21.5 L 5.62 21.62 L 5.75 21.75 L 5.88 21.88 L 6.0 22.0 L 6.12 22.12 L 6.25 22.25 L 6.38 22.38 L 6.5 22.5 L 6.62 22.62 L 6.75 22.75 L 6.88 22.88 L 7.0 23.0 L 7.12 23.12 L 7.25 23.25 L 7.38 23.38 L 7.5 23.5 L 7.62 23.62 L 7.75 23.75 L 7.88 23.88 L 8.0 24.0 L 8.0 24.0 L 8.25 23.79 L 8.5 23.58 L 8.75 23.38 L 9.0 23.17 L 9.25 22.96 L 9.5 22.75 L 9.75 22.54 L 10.0 22.33 L 10.25 22.12 L 10.5 21.92 L 10.75 21.71 L 11.0 21.5 L 11.25 21.29 L 11.5 21.08 L 11.75 20.88 L 12.0 20.67 L 12.25 20.46 L 12.5 20.25 L 12.75 20.04 L 13.0 19.83 L 13.25 19.62 L 13.5 19.42 L 13.75 19.21 L 14.0 19.0" fill="none" stroke="#111" stroke-width="1.22" stroke-linecap="round" stroke-linejoin="round"/>
</svg>
