<?xml version="1.0" encoding="UTF-8"?>
<svg xmlns="http://www.w3.org/2000/svg" viewBox="0 0 21.96 41.00">
<path d="M 4.0 14.0 L 4.16 13.5 L 4.34 13.01 L 4.54 12.53 L 4.77 12.06 L 5.02 11.6 L 5.29 11.15 L 5.58 10.72 L 5.89 10.3 L 6.22 9.89 L 6.56 9.5 L 6.93 9.13 L 7.31 8.77 L 7.71 8.43 L 8.12 8.12 L 8.55 7.82 L 8.99 7.54 L 9.45 7.28 L 9.91 7.04 L 10.39 6.83 L 10.87 6.63 L 11.37 6.47 L 11.87 6.32 L 12.38 6.2 L 12.89 6.1 L 13.0 6.0 L 13.36 6.12 L 13.72 6.25 L 14.06 6.41 L 14.4 6.58 L 14.73 6.77 L 15.05 6.99 L 15.35 7.21 L 15.64 7.46 L 15.92 7.72 L 16.18 7.99 L 16.42 8.28 L 16.65 8.59 L 16.87 8.9 L 17.06 9.23 L 17.24 9.57 L 17.39 9.91 L 17.53 10.27 L 17.65 10.63 L 17.74 11.0 L 17.82 11.37 L 17.88 11.74 L 17.91 12.12 L 17.92 12.5 L 17.92 12.88" fill="none" stroke="#111" stroke-width="1.44" stroke-linecap="round" stroke-linejoin="round"/>
<path d="M 12.0 4.0 L 11.93 4.57 L 11.86 5.13 L 11.78 5.7 L 11.69 6.27 L 11.6 6.83 L 11.51 7.4 L 11.41 7.96 L 11.3 8.52 L 11.19 9.08 L 11.07 9.64 L 10.95 10.2 L 10.83 10.76 L 10.7 11.32 L 10.56 11.87 L 10.42 12.43 L 10.27 12.98 L 10.12 13.53 L 9.96 14.08 L 9.8 14.63 L 9.64 15.18 L 9.46 15.72 L 9.29 16.27 L 9.11 16.81 L 8.92 17.35 L 9.0 17.0 L 9.29 17.36 L 9.58 17.7 L 9.88 18.04 L 10.2 18.38 L 10.52 18.7 L 10.85 19.01 L 11.19 19.32 L 11.53 19.62 L 11.89 19.9 L 12.25 20.18 L 12.62 20.45 L 13.0 20.71 L 13.38 20.96 L 13.77 21.19 L 14.16 21.42 L 14.57 21.64 L 14.97 21.84 L 15.39 22.04 L 15.8 22.22 L 16.23 22.4 L 16.65 22.56 L 17.08 22.71 L 17.52 22.84 L 17.96 22.97" fill="none" stroke="#111" stroke-width="1.44" stroke-linecap="round" stroke-linejoin="round"/>
<path d="M 12.0 9.0 L 12.37 9.35 L 12.71 9.72 L 13.02 10.13 L 13.28 10.56 L 13.51 11.02 L 13.7 11.49 L 13.84 11.98 L 13.95 12.48 L 14.0 12.98 L 14.01 13.49 L 13.98 14.0 L 13.9 14.5 L 13.78 14.99 L 13.62 15.47 L 13.41 15.94 L 13.16 16.38 L 12.88 16.8 L 12.56 17.2 L 12.2 17.56 L 11.82 17.89 L 11.4 18.19 L 10.97 18.44 L 10.51 18.66 L 10.03 18.84 L 10.0 19.0 L 9.75 19.17 L 9.5 19.33 L 9.25 19.5 L 9.0 19.67 L 8.75 19.83 L 8.5 20.0 L 8.25 20.17 L 8.0 20.33 L 7.75 20.5 L 7.5 20.67 L 7.25 20.83 L 7.0 21.0 L 6.75 21.17 L 6.5 21.33 L 6.25 21.5 L 6.0 21.67 L 5.75 21.83 L 5.5 22.0 L 5.25 22.17 L 5.0 22.33 L 4.75 22.5 L 4.5 22.67 L 4.25 22.83 L 4.0 23.0" fill="none" stroke="#111" stroke-width="1.44" stroke-linecap="round" stroke-linejoin="round"/>
<path d="M 9.0 22.0 L 9.04 22.62 L 9.08 23.25 L 9.12 23.88 L 9.17 24.5 L 9.21 25.12 L 9.25 25.75 L 9.29 26.38 L 9.33 27.0 L 9.38 27.62 L 9.42 28.25 L 9.46 28.88 L 9.5 29.5 L 9.54 30.12 L 9.58 30.75 L 9.62 31.38 L 9.67 32.0 L 9.71 32.62 L 9.75 33.25 L 9.79 33.88 L 9.83 34.5 L 9.88 35.12 L 9.92 35.75 L 9.96 36.38 L 10.0 37.0" fill="none" stroke="#111" stroke-width="1.44" stroke-linecap="round" stroke-linejoin="round"/>
<path d="M 6.0 25.0 L 6.17 25.21 L 6.33 25.42 L 6.5 25.62 L 6.67 25.83 L 6.83 26.04 L 7.0 26.25 L 7.17 26.46 L 7.33 26.67 L 7.5 26.88 L 7.67 27.08 L 7.83 27.29 L 8.0 27.5 L 8.17 27.71 L 8.33 27.92 L 8.5 28.12 L 8.67 28.33 L 8.83 28.54 L 9.0 28.75 L 9.17 28.96 L 9.33 29.17 L 9.5 29.38 L 9.67 29.58 L 9.83 29.79 L 10.0 30.0 L 10.0 30.0 L 10.17 29.79 L 10.33 29.58 L 10.5 29.38 L 10.67 29.17 L 10.83 28.96 L 11.0 28.75 L 11.17 28.54 L 11.33 28.33 L 11.5 28.12 L 11.67 27.92 L 11.83 27.71 L 12.0 27.5 L 12.17 27.29 L 12.33 27.08 L 12.5 26.88 L 12.67 26.67 L 12.83 26.46 L 13.0 26.25 L 13.17 26.04 L 13.33 25.83 L 13.5 25.62 L 13.67 25.42 L 13.83 25.21 L 14.0 25.0" fill="none" stroke="#111" stroke-width="1.44" stroke-linecap="round" stroke-linejoin="round"/>
<path d="M 5.0 35.0 L 5.14 34.41 L 5.35 33.85 L 5.61 33.31 L 5.94 32.8 L 6.31 32.33 L 6.73 31.9 L 7.2 31.52 L 7.71 31.19 L 8.24 30.92 L 8.81 30.71 L 9.39 30.56 L 9.99 30.47 L 10.59 30.45 L 11.19 30.49 L 11.78 30.6 L 12.36 30.77 L 12.92 31.0 L 13.45 31.29 L 13.94 31.63 L 14.39 32.03 L 14.8 32.47 L 15.16 32.96 L 15.46 33.48 L 15.71 34.03" fill="none" stroke="#111" stroke-width="1.44" stroke-linecap="round" stroke-linejoin="round"/>
</svg>
