<?xml version="1.0" encoding="UTF-8"?>
<svg xmlns="http://www.w3.org/2000/svg" viewBox="0 0 23.00 35.00">
<path d="M 4.0 8.0 L 4.33 7.96 L 4.67 7.92 L 5.0 7.88 L 5.33 7.83 L 5.67 7.79 L 6.0 7.75 L 6.33 7.71 L 6.67 7.67 L 7.0 7.62 L 7.33 7.58 L 7.67 7.54 L 8.0 7.5 L 8.33 7.46 L 8.67 7.42 L 9.0 7.38 L 9.33 7.33 L 9.67 7.29 L 10.0 7.25 L 10.33 7.21 L 10.67 7.17 L 11.0 7.12 L 11.33 7.08 L 11.67 7.04 L 12.0 7.0" fill="none" stroke="#111" stroke-width="1.23" stroke-linecap="round" stroke-linejoin="round"/>
<path d="M 8.0 4.0 L 8.0 4.54 L 8.0 5.08 L 8.0 5.62 L 8.0 6.17 L 8.0 6.71 L 8.0 7.25 L 8.0 7.79 L 8.0 8.33 L 8.0 8.88 L 8.0 9.42 L 8.0 9.96 L 8.0 10.5 L 8.0 11.04 L 8.0 11.58 L 8.0 12.12 L 8.0 12.67 L 8.0 13.21 L 8.0 13.75 L 8.0 14.29 L 8.0 14.83 L 8.0 15.38 L 8.0 15.92 L 8.0 16.46 L 8.0 17.0" fill="none" stroke="#111" stroke-width="1.23" stroke-linecap="round" stroke-linejoin="round"/>
<path d="M 6.0 9.0 L 6.08 9.17 L 6.17 9.33 L 6.25 9.5 L 6.33 9.67 L 6.42 9.83 L 6.5 10.0 L 6.58 10.17 L 6.67 10.33 L 6.75 10.5 L 6.83 10.67 L 6.92 10.83 L 7.0 11.0 L 7.08 11.17 L 7.17 11.33 L 7.25 11.5 L 7.33 11.67 L 7.42 11.83 L 7.5 12.0 L 7.58 12.17 L 7.67 12.33 L 7.75 12.5 L 7.83 12.67 L 7.92 12.83 L 8.0 13.0" fill="none" stroke="#111" stroke-width="1.23" stroke-linecap="round" stroke-linejoin="round"/>
<path d="M 11.0 7.0 L 10.88 7.21 L 10.75 7.42 L 10.62 7.62 L 10.5 7.83 L 10.38 8.04 L 10.25 8.25 L 10.12 8.46 L 10.0 8.67 L 9.88 8.88 L 9.75 9.08 L 9.62 9.29 L 9.5 9.5 L 9.38 9.71 L 9.25 9.92 L 9.12 10.12 L 9.0 10.33 L 8.88 10.54 L 8.75 10.75 L 8.62 10.96 L 8.5 11.17 L 8.38 11.38 L 8.25 11.58 L 8.13 11.79 L 8.0 12.0" fill="none" stroke="#111" stroke-width="1.23" stroke-linecap="round" stroke-linejoin="round"/>
<path d="M 5.0 14.0 L 5.58 13.96 L 6.17 13.92 L 6.75 13.88 L 7.33 13.83 L 7.92 13.79 L 8.5 13.75 L 9.08 13.71 L 9.67 13.67 L 10.25 13.62 L 10.83 13.58 L 11.42 13.54 L 12.0 13.5 L 12.58 13.46 L 13.17 13.42 L 13.75 13.38 L 14.33 13.33 L 14.92 13.29 L 15.5 13.25 L 16.08 13.21 L 16.67 13.17 L 17.25 13.12 L 17.83 13.08 L 18.42 13.04 L 19.0 13.0" fill="none" stroke="#111" stroke-width="1.23" stroke-linecap="round" stroke-linejoin="round"/>
<path d="M 17.0 10.0 L 16.88 10.04 L 16.75 10.08 L 16.62 10.12 L 16.5 10.17 L 16.38 10.21 L 16.25 10.25 L 16.12 10.29 L 16.0 10.33 L 15.88 10.38 L 15.75 10.42 L 15.62 10.46 L 15.5 10.5 L 15.38 10.54 L 15.25 10.58 L 15.12 10.62 L 15.0 10.67 L 14.88 10.71 L 14.75 10.75 L 14.62 10.79 L 14.5 10.83 L 14.38 10.88 L 14.25 10.92 L 14.12 10.96 L 14.0 11.0 L 14.0 11.0 L 14.0 11.83 L 14.0 12.67 L 14.0 13.5 L 14.0 14.33 L 14.0 15.17 L 14.0 16.0 L 14.0 16.83 L 14.0 17.67 L 14.0 18.5 L 14.0 19.33 L 14.0 20.17 L 14.0 21.0 L 14.0 21.83 L 14.0 22.67 L 14.0 23.5 L 14.0 24.33 L 14.0 25.17 L 14.0 26.0 L 14.0 26.83 L 14.0 27.67 L 14.0 28.5 L 14.0 29.33 L 14.0 30.17 L 14.0 31.0" fill="none" stroke="#111" stroke-width="1.23" stroke-linecap="round" stroke-linejoin="round"/>
<path d="M 17.0 28.0 L 16.71 28.12 L 16.42 28.25 L 16.12 28.38 L 15.83 28.5 L 15.54 28.62 L 15.25 28.75 L 14.96 28.88 L 14.67 29.0 L 14.38 29.12 L 14.08 29.25 L 13.79 29.38 L 13.5 29.5 L 13.21 29.62 L 12.92 29.75 L 12.62 29.88 L 12.33 30.0 L 12.04 30.12 L 11.75 30.25 L 11.46 30.38 L 11.17 30.5 L 10.88 30.62 L 10.58 30.75 L 10.29 30.88 L 10.0 31.0" fill="none" stroke="#111" stroke-width="1.23" stroke-linecap="round" stroke-linejoin="round"/>
</svg>
