<?xml version="1.0" encoding="UTF-8"?>
<svg xmlns="http://www.w3.org/2000/svg" viewBox="0 0 24.00 35.13">
<path d="M 4.0 17.0 L 4.67 16.96 L 5.33 16.92 L 6.0 16.88 L 6.67 16.83 L 7.33 16.79 L 8.0 16.75 L 8.67 16.71 L 9.33 16.67 L 10.0 16.62 L 10.67 16.58 L 11.33 16.54 L 12.0 16.5 L 12.67 16.46 L 13.33 16.42 L 14.0 16.38 L 14.67 16.33 L 15.33 16.29 L 16.0 16.25 L 16.67 16.21 L 17.33 16.17 L 18.0 16.12 L 18.67 16.08 L 19.33 16.04 L 20.0 16.0" fill="none" stroke="#111" stroke-width="1.23" stroke-linecap="round" stroke-linejoin="round"/>
<path d="M 7.0 5.0 L 7.0 5.29 L 7.0 5.58 L 7.0 5.88 L 7.0 6.17 L 7.0 6.46 L 7.0 6.75 L 7.0 7.04 L 7.0 7.33 L 7.0 7.62 L 7.0 7.92 L 7.0 8.21 L 7.0 8.5 L 7.0 8.79 L 7.0 9.08 L 7.0 9.38 L 7.0 9.67 L 7.0 9.96 L 7.0 10.25 L 7.0 10.54 L 7.0 10.83 L 7.0 11.12 L 7.0 11.42 L 7.0 11.71 L 7.0 12.0 L 7.0 12.0 L 6.79 12.17 L 6.6 12.35 L 6.42 12.55 L 6.25 12.75 L 6.09 12.97 L 5.94 13.19 L 5.81 13.43 L 5.7 13.67 L 5.6 13.92 L 5.51 14.17 L 5.45 14.43 L 5.39 14.69 L 5.36 14.96 L 5.34 15.22 L 5.34 15.49 L 5.35 15.76 L 5.38 16.02 L 5.43 16.28 L 5.49 16.54 L 5.57 16.8 L 5.67 17.05 L 5.78 17.29 L 5.9 17.53 L 6.04 17.76" fill="none" stroke="#111" stroke-width="1.23" stroke-linecap="round" stroke-linejoin="round"/>
<path d="M 7.0 8.0 L 6.88 8.08 L 6.75 8.17 L 6.62 8.25 L 6.5 8.33 L 6.38 8.42 L 6.25 8.5 L 6.12 8.58 L 6.0 8.67 L 5.88 8.75 L 5.75 8.83 L 5.62 8.92 L 5.5 9.0 L 5.38 9.08 L 5.25 9.17 L 5.12 9.25 L 5.0 9.33 L 4.88 9.42 L 4.75 9.5 L 4.62 9.58 L 4.5 9.67 L 4.38 9.75 L 4.25 9.83 L 4.12 9.92 L 4.0 10.0" fill="none" stroke="#111" stroke-width="1.23" stroke-linecap="round" stroke-linejoin="round"/>
<path d="M 11.0 4.0 L 11.0 4.33 L 11.0 4.67 L 11.0 5.0 L 11.0 5.33 L 11.0 5.67 L 11.0 6.0 L 11.0 6.33 L 11.0 6.67 L 11.0 7.0 L 11.0 7.33 L 11.0 7.67 L 11.0 8.0 L 11.0 8.33 L 11.0 8.67 L 11.0 9.0 L 11.0 9.33 L 11.0 9.67 L 11.0 10.0 L 11.0 10.33 L 11.0 10.67 L 11.0 11.0 L 11.0 11.33 L 11.0 11.67 L 11.0 12.0 L 11.0 12.0 L 10.83 12.26 L 10.67 12.53 L 10.52 12.8 L 10.37 13.08 L 10.23 13.36 L 10.1 13.64 L 9.97 13.93 L 9.85 14.22 L 9.74 14.51 L 9.64 14.8 L 9.54 15.1 L 9.45 15.4 L 9.37 15.7 L 9.29 16.0 L 9.23 16.31 L 9.17 16.61 L 9.12 16.92 L 9.07 17.23 L 9.04 17.54 L 9.01 17.85 L 8.99 18.16 L 8.97 18.48 L 8.97 18.79 L 8.97 19.1" fill="none" stroke="#111" stroke-width="1.23" stroke-linecap="round" stroke-linejoin="round"/>
<path d="M 11.0 7.0 L 10.92 7.12 L 10.83 7.25 L 10.75 7.38 L 10.67 7.5 L 10.58 7.62 L 10.5 7.75 L 10.42 7.88 L 10.33 8.0 L 10.25 8.12 L 10.17 8.25 L 10.08 8.38 L 10.0 8.5 L 9.92 8.62 L 9.83 8.75 L 9.75 8.88 L 9.67 9.0 L 9.58 9.12 L 9.5 9.25 L 9.42 9.38 L 9.33 9.5 L 9.25 9.62 L 9.17 9.75 L 9.08 9.88 L 9.0 10.0" fill="none" stroke="#111" stroke-width="1.23" stroke-linecap="round" stroke-linejoin="round"/>
<path d="M 16.0 13.0 L 15.96 13.76 L 15.92 14.51 L 15.87 15.27 L 15.83 16.02 L 15.79 16.78 L 15.75 17.53 L 15.71 18.29 L 15.66 19.04 L 15.62 19.8 L 15.58 20.56 L 15.54 21.31 L 15.5 22.07 L 15.45 22.82 L 15.41 23.58 L 15.37 24.33 L 15.33 25.09 L 15.29 25.85 L 15.24 26.6 L 15.2 27.36 L 15.16 28.11 L 15.12 28.87 L 15.08 29.62 L 15.03 30.38 L 14.99 31.13" fill="none" stroke="#111" stroke-width="1.23" stroke-linecap="round" stroke-linejoin="round"/>
<path d="M 12.0 31.0 L 12.33 31.0 L 12.67 31.0 L 13.0 31.0 L 13.33 31.0 L 13.67 31.0 L 14.0 31.0 L 14.33 31.0 L 14.67 31.0 L 15.0 31.0 L 15.33 31.0 L 15.67 31.0 L 16.0 31.0 L 16.33 31.0 L 16.67 31.0 L 17.0 31.0 L 17.33 31.0 L 17.67 31.0 L 18.0 31.0 L 18.33 31.0 L 18.67 31.0 L 19.0 31.0 L 19.33 31.0 L 19.67 31.0 L 20.0 31.0" fill="none" stroke="#111" stroke-width="1.23" stroke-linecap="round" stroke-linejoin="round"/>
</svg>
