<?xml version="1.0" encoding="UTF-8"?>
<svg xmlns="http://www.w3.org/2000/svg" viewBox="0 0 32.91 30.03">
<path d="M 10.51 11.0 L 10.43 10.71 L 10.34 10.42 L 10.26 10.12 L 10.18 9.83 L 10.09 9.54 L 10.01 9.25 L 9.93 8.96 L 9.84 8.67 L 9.76 8.38 L 9.68 8.08 L 9.59 7.79 L 9.51 7.5 L 9.43 7.21 L 9.34 6.92 L 9.26 6.62 L 9.18 6.33 L 9.09 6.04 L 9.01 5.75 L 8.93 5.46 L 8.84 5.17 L 8.76 4.88 L 8.68 4.58 L 8.59 4.29 L 8.51 4.0 L 8.51 4.0 L 7.01 5.46 L 5.79 7.16 L 4.86 9.03 L 4.26 11.04 L 4.0 13.12 L 4.09 15.21 L 4.54 17.25 L 5.32 19.2 L 6.41 20.98 L 7.79 22.56 L 9.41 23.88 L 11.23 24.91 L 13.2 25.63 L 15.25 26.0 L 17.35 26.03 L 19.41 25.7 L 21.4 25.03 L 23.24 24.04 L 24.9 22.76 L 26.31 21.22 L 27.45 19.46 L 28.27 17.54 L 28.76 15.5 L 28.91 13.41 L 21.51 10.0 L 21.47 9.43 L 21.35 8.87 L 21.16 8.33 L 20.91 7.82 L 20.59 7.35 L 20.21 6.92 L 19.78 6.55 L 19.3 6.23 L 18.79 5.98 L 18.25 5.8 L 17.69 5.69 L 17.12 5.65 L 16.55 5.69 L 15.99 5.8 L 15.45 5.98 L 14.94 6.23 L 14.47 6.55 L 14.03 6.92 L 13.66 7.35 L 13.34 7.82 L 13.08 8.33 L 12.89 8.87 L 12.78 9.43 L 12.74 10.0" fill="none" stroke="#111" stroke-width="1.15" stroke-linecap="round" stroke-linejoin="round"/>
<path d="M 8.51 22.0 L 8.55 21.83 L 8.59 21.67 L 8.63 21.5 L 8.68 21.33 L 8.72 21.17 L 8.76 21.0 L 8.8 20.83 L 8.84 20.67 L 8.88 20.5 L 8.93 20.33 L 8.97 20.17 L 9.01 20.0 L 9.05 19.83 L 9.09 19.67 L 9.13 19.5 L 9.18 19.33 L 9.22 19.17 L 9.26 19.0 L 9.3 18.83 L 9.34 18.67 L 9.38 18.5 L 9.43 18.33 L 9.47 18.17 L 9.51 18.0" fill="none" stroke="#111" stroke-width="1.15" stroke-linecap="round" stroke-linejoin="round"/>
<path d="M 15.51 16.0 L 15.63 16.25 L 15.76 16.5 L 15.88 16.75 L 16.01 17.0 L 16.13 17.25 L 16.26 17.5 L 16.38 17.75 L 16.51 18.0 L 16.63 18.25 L 16.76 18.5 L 16.88 18.75 L 17.01 19.0 L 17.13 19.25 L 17.26 19.5 L 17.38 19.75 L 17.51 20.0 L 17.63 20.25 L 17.76 20.5 L 17.88 20.75 L 18.01 21.0 L 18.13 21.25 L 18.26 21.5 L 18.38 21.75 L 18.51 22.0" fill="none" stroke="#111" stroke-width="1.15" stroke-linecap="round" stroke-linejoin="round"/>
</svg>
