<?xml version="1.0" encoding="UTF-8"?>
<svg xmlns="http://www.w3.org/2000/svg" viewBox="0 0 22.00 32.74">
<path d="M 4.0 8.0 L 4.54 7.96 L 5.08 7.92 L 5.62 7.88 L 6.17 7.83 L 6.71 7.79 L 7.25 7.75 L 7.79 7.71 L 8.33 7.67 L 8.88 7.62 L 9.42 7.58 L 9.96 7.54 L 10.5 7.5 L 11.04 7.46 L 11.58 7.42 L 12.13 7.38 L 12.67 7.33 L 13.21 7.29 L 13.75 7.25 L 14.29 7.21 L 14.83 7.17 L 15.38 7.12 L 15.92 7.08 L 16.46 7.04 L 17.0 7.0" fill="none" stroke="#111" stroke-width="1.15" stroke-linecap="round" stroke-linejoin="round"/>
<path d="M 5.0 11.0 L 5.29 10.96 L 5.58 10.92 L 5.88 10.88 L 6.17 10.83 L 6.46 10.79 L 6.75 10.75 L 7.04 10.71 L 7.33 10.67 L 7.62 10.62 L 7.92 10.58 L 8.21 10.54 L 8.5 10.5 L 8.79 10.46 L 9.08 10.42 L 9.38 10.38 L 9.67 10.33 L 9.96 10.29 L 10.25 10.25 L 10.54 10.21 L 10.83 10.17 L 11.12 10.12 L 11.42 10.08 L 11.71 10.04 L 12.0 10.0" fill="none" stroke="#111" stroke-width="1.15" stroke-linecap="round" stroke-linejoin="round"/>
<path d="M 5.0 11.0 L 5.12 11.25 L 5.25 11.5 L 5.38 11.75 L 5.5 12.0 L 5.62 12.25 L 5.75 12.5 L 5.88 12.75 L 6.0 13.0 L 6.12 13.25 L 6.25 13.5 L 6.38 13.75 L 6.5 14.0 L 6.62 14.25 L 6.75 14.5 L 6.88 14.75 L 7.0 15.0 L 7.13 15.25 L 7.25 15.5 L 7.38 15.75 L 7.5 16.0 L 7.62 16.25 L 7.75 16.5 L 7.88 16.75 L 8.0 17.0" fill="none" stroke="#111" stroke-width="1.15" stroke-linecap="round" stroke-linejoin="round"/>
<path d="M 12.0 11.0 L 11.66 11.41 L 11.35 11.83 L 11.04 12.27 L 10.76 12.71 L 10.49 13.17 L 10.24 13.63 L 10.0 14.11 L 9.79 14.59 L 9.59 15.09 L 9.42 15.59 L 9.26 16.09 L 9.12 16.6 L 9.0 17.12 L 8.9 17.64 L 8.83 18.16 L 8.77 18.69 L 8.73 19.22 L 8.71 19.75 L 8.71 20.27 L 8.73 20.8 L 8.78 21.33 L 8.84 21.86 L 8.92 22.38 L 9.03 22.9" fill="none" stroke="#111" stroke-width="1.15" stroke-linecap="round" stroke-linejoin="round"/>
<path d="M 5.0 22.0 L 5.0 22.25 L 5.0 22.5 L 5.0 22.75 L 5.0 23.0 L 5.0 23.25 L 5.0 23.5 L 5.0 23.75 L 5.0 24.0 L 5.0 24.25 L 5.0 24.5 L 5.0 24.75 L 5.0 25.0 L 5.0 25.25 L 5.0 25.5 L 5.0 25.75 L 5.0 26.0 L 5.0 26.25 L 5.0 26.5 L 5.0 26.75 L 5.0 27.0 L 5.0 27.25 L 5.0 27.5 L 5.0 27.75 L 5.0 28.0 L 5.0 28.0 L 5.46 28.27 L 5.95 28.48 L 6.46 28.63 L 6.98 28.72 L 7.51 28.74 L 8.04 28.7 L 8.56 28.59 L 9.07 28.43 L 9.55 28.2 L 10.0 27.92 L 10.41 27.58 L 10.78 27.2 L 11.11 26.78 L 11.37 26.32 L 11.58 25.83 L 11.73 25.32 L 11.82 24.8 L 11.84 24.26 L 11.8 23.73 L 11.7 23.21 L 11.53 22.71 L 11.31 22.23 L 11.02 21.78 L 10.69 21.36 L 11.0 21.0 L 11.0 21.0 L 11.0 21.0 L 11.0 21.0 L 11.0 21.0 L 11.0 21.0 L 11.0 21.0 L 11.0 21.0 L 11.0 21.0 L 11.0 21.0 L 11.0 21.0 L 11.0 21.0 L 11.0 21.0 L 11.0 21.0 L 11.0 21.0 L 11.0 21.0 L 11.0 21.0 L 11.0 21.0 L 11.0 21.0 L 11.0 21.0 L 11.0 21.0 L 11.0 21.0 L 11.0 21.0 L 11.0 21.0 L 11.0 21.0" fill="none" stroke="#111" stroke-width="1.15" stroke-linecap="round" stroke-linejoin="round"/>
<path d="M 5.0 24.0 L 5.25 24.0 L 5.5 24.0 L 5.75 24.0 L 6.0 24.0 L 6.25 24.0 L 6.5 24.0 L 6.75 24.0 L 7.0 24.0 L 7.25 24.0 L 7.5 24.0 L 7.75 24.0 L 8.0 24.0 L 8.25 24.0 L 8.5 24.0 L 8.75 24.0 L 9.0 24.0 L 9.25 24.0 L 9.5 24.0 L 9.75 24.0 L 10.0 24.0 L 10.25 24.0 L 10.5 24.0 L 10.75 24.0 L 11.0 24.0" fill="none" stroke="#111" stroke-width="1.15" stroke-linecap="round" stroke-linejoin="round"/>
<path d="M 16.0 4.0 L 15.92 4.12 L 15.83 4.25 L 15.75 4.38 L 15.67 4.5 L 15.58 4.62 L 15.5 4.75 L 15.42 4.88 L 15.33 5.0 L 15.25 5.12 L 15.17 5.25 L 15.08 5.38 L 15.0 5.5 L 14.92 5.62 L 14.83 5.75 L 14.75 5.88 L 14.67 6.0 L 14.58 6.12 L 14.5 6.25 L 14.42 6.38 L 14.33 6.5 L 14.25 6.62 L 14.17 6.75 L 14.08 6.88 L 14.0 7.0 L 14.0 7.0 L 14.04 7.75 L 14.08 8.5 L 14.12 9.25 L 14.17 10.0 L 14.21 10.75 L 14.25 11.5 L 14.29 12.25 L 14.33 13.0 L 14.38 13.75 L 14.42 14.5 L 14.46 15.25 L 14.5 16.0 L 14.54 16.75 L 14.58 17.5 L 14.62 18.25 L 14.67 19.0 L 14.71 19.75 L 14.75 20.5 L 14.79 21.25 L 14.83 22.0 L 14.88 22.75 L 14.92 23.5 L 14.96 24.25 L 15.0 25.0" fill="none" stroke="#111" stroke-width="1.15" stroke-linecap="round" stroke-linejoin="round"/>
<path d="M 18.0 24.0 L 17.79 24.08 L 17.58 24.17 L 17.38 24.25 L 17.17 24.33 L 16.96 24.42 L 16.75 24.5 L 16.54 24.58 L 16.33 24.67 L 16.12 24.75 L 15.92 24.83 L 15.71 24.92 L 15.5 25.0 L 15.29 25.08 L 15.08 25.17 L 14.88 25.25 L 14.67 25.33 L 14.46 25.42 L 14.25 25.5 L 14.04 25.58 L 13.83 25.67 L 13.62 25.75 L 13.42 25.83 L 13.21 25.92 L 13.0 26.0" fill="none" stroke="#111" stroke-width="1.15" stroke-linecap="round" stroke-linejoin="round"/>
</svg>
