<?xml version="1.0" encoding="UTF-8"?>
<svg xmlns="http://www.w3.org/2000/svg" viewBox="0 0 25.09 34.00">
<path d="M 8.09 10.0 L 6.95 10.29 L 5.92 10.86 L 5.07 11.66 L 4.44 12.65 L 4.07 13.76 L 4.0 14.93 L 4.22 16.08 L 4.72 17.15 L 5.47 18.05 L 6.41 18.74 L 7.5 19.17 L 8.67 19.32 L 9.83 19.17 L 10.92 18.74 L 11.87 18.05 L 12.62 17.15 L 13.12 16.08 L 13.34 14.93 L 13.26 13.76 L 12.9 12.65 L 12.27 11.66 L 11.42 10.86 L 10.39 10.29 L 9.25 10.0" fill="none" stroke="#111" stroke-width="1.19" stroke-linecap="round" stroke-linejoin="round"/>
<path d="M 5.09 12.0 L 5.17 12.08 L 5.25 12.17 L 5.34 12.25 L 5.42 12.33 L 5.5 12.42 L 5.59 12.5 L 5.67 12.58 L 5.75 12.67 L 5.84 12.75 L 5.92 12.83 L 6.0 12.92 L 6.09 13.0 L 6.17 13.08 L 6.25 13.17 L 6.34 13.25 L 6.42 13.33 L 6.5 13.42 L 6.59 13.5 L 6.67 13.58 L 6.75 13.67 L 6.84 13.75 L 6.92 13.83 L 7.0 13.92 L 7.09 14.0 L 7.09 14.0 L 7.21 13.88 L 7.34 13.75 L 7.46 13.62 L 7.59 13.5 L 7.71 13.38 L 7.84 13.25 L 7.96 13.12 L 8.09 13.0 L 8.21 12.88 L 8.34 12.75 L 8.46 12.62 L 8.59 12.5 L 8.71 12.38 L 8.84 12.25 L 8.96 12.12 L 9.09 12.0 L 9.21 11.88 L 9.34 11.75 L 9.46 11.62 L 9.59 11.5 L 9.71 11.38 L 9.84 11.25 L 9.96 11.12 L 10.09 11.0" fill="none" stroke="#111" stroke-width="1.19" stroke-linecap="round" stroke-linejoin="round"/>
<path d="M 5.09 18.0 L 5.22 17.74 L 5.37 17.49 L 5.55 17.26 L 5.76 17.04 L 5.98 16.85 L 6.22 16.67 L 6.47 16.53 L 6.74 16.4 L 7.02 16.31 L 7.3 16.24 L 7.59 16.19 L 7.89 16.18 L 8.18 16.19 L 8.47 16.24 L 8.76 16.31 L 9.03 16.4 L 9.3 16.53 L 9.56 16.67 L 9.79 16.85 L 10.02 17.04 L 10.22 17.26 L 10.4 17.49 L 10.55 17.74 L 10.69 18.0" fill="none" stroke="#111" stroke-width="1.19" stroke-linecap="round" stroke-linejoin="round"/>
<path d="M 10.09 14.0 L 10.09 14.08 L 10.09 14.17 L 10.09 14.25 L 10.09 14.33 L 10.09 14.42 L 10.09 14.5 L 10.09 14.58 L 10.09 14.67 L 10.09 14.75 L 10.09 14.83 L 10.09 14.92 L 10.09 15.0 L 10.09 15.08 L 10.09 15.17 L 10.09 15.25 L 10.09 15.33 L 10.09 15.42 L 10.09 15.5 L 10.09 15.58 L 10.09 15.67 L 10.09 15.75 L 10.09 15.83 L 10.09 15.92 L 10.09 16.0 L 10.09 16.0 L 10.21 15.96 L 10.34 15.92 L 10.46 15.88 L 10.59 15.83 L 10.71 15.79 L 10.84 15.75 L 10.96 15.71 L 11.09 15.67 L 11.21 15.62 L 11.34 15.58 L 11.46 15.54 L 11.59 15.5 L 11.71 15.46 L 11.84 15.42 L 11.96 15.38 L 12.09 15.33 L 12.21 15.29 L 12.34 15.25 L 12.46 15.21 L 12.59 15.17 L 12.71 15.12 L 12.84 15.08 L 12.96 15.04 L 13.09 15.0" fill="none" stroke="#111" stroke-width="1.19" stroke-linecap="round" stroke-linejoin="round"/>
<path d="M 12.09 10.0 L 12.42 9.81 L 12.76 9.62 L 13.11 9.44 L 13.46 9.28 L 13.81 9.12 L 14.17 8.97 L 14.54 8.83 L 14.9 8.7 L 15.27 8.58 L 15.65 8.47 L 16.02 8.37 L 16.4 8.28 L 16.78 8.2 L 17.16 8.14 L 17.55 8.08 L 17.93 8.03 L 18.32 7.99 L 18.71 7.96 L 19.09 7.94 L 19.48 7.94 L 19.87 7.94 L 20.26 7.95 L 20.65 7.98 L 21.03 8.01 L 21.09 8.0 L 20.75 8.24 L 20.43 8.5 L 20.12 8.79 L 19.84 9.09 L 19.57 9.4 L 19.33 9.74 L 19.1 10.09 L 18.9 10.45 L 18.73 10.83 L 18.57 11.21 L 18.44 11.61 L 18.34 12.01 L 18.26 12.42 L 18.21 12.83 L 18.19 13.24 L 18.19 13.66 L 18.22 14.07 L 18.27 14.48 L 18.35 14.89 L 18.46 15.29 L 18.59 15.68 L 18.75 16.07 L 18.93 16.44 L 19.13 16.8 L 19.09 17.0 L 19.1 17.13 L 19.11 17.27 L 19.12 17.4 L 19.12 17.54 L 19.11 17.67 L 19.1 17.81 L 19.09 17.94 L 19.07 18.07 L 19.04 18.21 L 19.01 18.34 L 18.98 18.47 L 18.94 18.6 L 18.89 18.72 L 18.84 18.85 L 18.79 18.97 L 18.73 19.09 L 18.66 19.21 L 18.6 19.33 L 18.52 19.44 L 18.45 19.55 L 18.37 19.66 L 18.28 19.77 L 18.19 19.87 L 18.1 19.96 L 18.09 20.0 L 18.0 20.17 L 17.92 20.33 L 17.84 20.5 L 17.75 20.67 L 17.67 20.83 L 17.59 21.0 L 17.5 21.17 L 17.42 21.33 L 17.34 21.5 L 17.25 21.67 L 17.17 21.83 L 17.09 22.0 L 17.0 22.17 L 16.92 22.33 L 16.84 22.5 L 16.75 22.67 L 16.67 22.83 L 16.59 23.0 L 16.5 23.17 L 16.42 23.33 L 16.34 23.5 L 16.25 23.67 L 16.17 23.83 L 16.09 24.0 L 16.09 24.0 L 15.96 24.25 L 15.84 24.5 L 15.71 24.75 L 15.59 25.0 L 15.46 25.25 L 15.34 25.5 L 15.21 25.75 L 15.09 26.0 L 14.96 26.25 L 14.84 26.5 L 14.71 26.75 L 14.59 27.0 L 14.46 27.25 L 14.34 27.5 L 14.21 27.75 L 14.09 28.0 L 13.96 28.25 L 13.84 28.5 L 13.71 28.75 L 13.59 29.0 L 13.46 29.25 L 13.34 29.5 L 13.21 29.75 L 13.09 30.0" fill="none" stroke="#111" stroke-width="1.19" stroke-linecap="round" stroke-linejoin="round"/>
<path d="M 16.09 4.0 L 16.04 4.21 L 16.0 4.42 L 15.96 4.62 L 15.92 4.83 L 15.88 5.04 L 15.84 5.25 L 15.79 5.46 L 15.75 5.67 L 15.71 5.88 L 15.67 6.08 L 15.63 6.29 L 15.59 6.5 L 15.54 6.71 L 15.5 6.92 L 15.46 7.12 L 15.42 7.33 L 15.38 7.54 L 15.34 7.75 L 15.29 7.96 L 15.25 8.17 L 15.21 8.38 L 15.17 8.58 L 15.13 8.79 L 15.09 9.0" fill="none" stroke="#111" stroke-width="1.19" stroke-linecap="round" stroke-linejoin="round"/>
<path d="M 14.09 9.0 L 14.21 9.08 L 14.34 9.17 L 14.46 9.25 L 14.59 9.33 L 14.71 9.42 L 14.84 9.5 L 14.96 9.58 L 15.09 9.67 L 15.21 9.75 L 15.34 9.83 L 15.46 9.92 L 15.59 10.0 L 15.71 10.08 L 15.84 10.17 L 15.96 10.25 L 16.09 10.33 L 16.21 10.42 L 16.34 10.5 L 16.46 10.58 L 16.59 10.67 L 16.71 10.75 L 16.84 10.83 L 16.96 10.92 L 17.09 11.0" fill="none" stroke="#111" stroke-width="1.19" stroke-linecap="round" stroke-linejoin="round"/>
</svg>
