<?xml version="1.0" encoding="UTF-8"?>
<svg xmlns="http://www.w3.org/2000/svg" viewBox="0 0 26.71 33.00">
<path d="M 9.0 6.0 L 9.0 6.83 L 9.0 7.67 L 9.0 8.5 L 9.0 9.33 L 9.0 10.17 L 9.0 11.0 L 9.0 11.83 L 9.0 12.67 L 9.0 13.5 L 9.0 14.33 L 9.0 15.17 L 9.0 16.0 L 9.0 16.83 L 9.0 17.67 L 9.0 18.5 L 9.0 19.33 L 9.0 20.17 L 9.0 21.0 L 9.0 21.83 L 9.0 22.67 L 9.0 23.5 L 9.0 24.33 L 9.0 25.17 L 9.0 26.0" fill="none" stroke="#111" stroke-width="1.16" stroke-linecap="round" stroke-linejoin="round"/>
<path d="M 9.0 8.0 L 8.79 8.21 L 8.58 8.42 L 8.38 8.62 L 8.17 8.83 L 7.96 9.04 L 7.75 9.25 L 7.54 9.46 L 7.33 9.67 L 7.12 9.88 L 6.92 10.08 L 6.71 10.29 L 6.5 10.5 L 6.29 10.71 L 6.08 10.92 L 5.88 11.12 L 5.67 11.33 L 5.46 11.54 L 5.25 11.75 L 5.04 11.96 L 4.83 12.17 L 4.62 12.38 L 4.42 12.58 L 4.21 12.79 L 4.0 13.0" fill="none" stroke="#111" stroke-width="1.16" stroke-linecap="round" stroke-linejoin="round"/>
<path d="M 9.0 14.0 L 8.79 14.21 L 8.58 14.42 L 8.38 14.62 L 8.17 14.83 L 7.96 15.04 L 7.75 15.25 L 7.54 15.46 L 7.33 15.67 L 7.12 15.88 L 6.92 16.08 L 6.71 16.29 L 6.5 16.5 L 6.29 16.71 L 6.08 16.92 L 5.88 17.12 L 5.67 17.33 L 5.46 17.54 L 5.25 17.75 L 5.04 17.96 L 4.83 18.17 L 4.62 18.38 L 4.42 18.58 L 4.21 18.79 L 4.0 19.0" fill="none" stroke="#111" stroke-width="1.16" stroke-linecap="round" stroke-linejoin="round"/>
<path d="M 8.0 20.0 L 7.88 20.17 L 7.75 20.33 L 7.62 20.5 L 7.5 20.67 L 7.38 20.83 L 7.25 21.0 L 7.12 21.17 L 7.0 21.33 L 6.88 21.5 L 6.75 21.67 L 6.62 21.83 L 6.5 22.0 L 6.38 22.17 L 6.25 22.33 L 6.12 22.5 L 6.0 22.67 L 5.88 22.83 L 5.75 23.0 L 5.62 23.17 L 5.5 23.33 L 5.38 23.5 L 5.25 23.67 L 5.12 23.83 L 5.0 24.0" fill="none" stroke="#111" stroke-width="1.16" stroke-linecap="round" stroke-linejoin="round"/>
<path d="M 10.0 11.0 L 10.17 11.08 L 10.33 11.17 L 10.5 11.25 L 10.67 11.33 L 10.83 11.42 L 11.0 11.5 L 11.17 11.58 L 11.33 11.67 L 11.5 11.75 L 11.67 11.83 L 11.83 11.92 L 12.0 12.0 L 12.17 12.08 L 12.33 12.17 L 12.5 12.25 L 12.67 12.33 L 12.83 12.42 L 13.0 12.5 L 13.17 12.58 L 13.33 12.67 L 13.5 12.75 L 13.67 12.83 L 13.83 12.92 L 14.0 13.0" fill="none" stroke="#111" stroke-width="1.16" stroke-linecap="round" stroke-linejoin="round"/>
<path d="M 10.0 18.0 L 10.25 17.41 L 10.55 16.83 L 10.87 16.28 L 11.24 15.75 L 11.63 15.24 L 12.06 14.76 L 12.52 14.3 L 13.0 13.88 L 13.51 13.49 L 14.05 13.13 L 14.6 12.8 L 15.18 12.52 L 15.77 12.26 L 16.38 12.05 L 17.0 11.88 L 17.63 11.74 L 18.27 11.65 L 18.91 11.6 L 19.55 11.58 L 20.2 11.61 L 20.84 11.68 L 21.47 11.79 L 22.1 11.94 L 22.71 12.13" fill="none" stroke="#111" stroke-width="1.16" stroke-linecap="round" stroke-linejoin="round"/>
<path d="M 16.0 4.0 L 16.0 4.5 L 16.0 5.0 L 16.0 5.5 L 16.0 6.0 L 16.0 6.5 L 16.0 7.0 L 16.0 7.5 L 16.0 8.0 L 16.0 8.5 L 16.0 9.0 L 16.0 9.5 L 16.0 10.0 L 16.0 10.5 L 16.0 11.0 L 16.0 11.5 L 16.0 12.0 L 16.0 12.5 L 16.0 13.0 L 16.0 13.5 L 16.0 14.0 L 16.0 14.5 L 16.0 15.0 L 16.0 15.5 L 16.0 16.0 L 16.0 16.0 L 16.25 16.5 L 16.5 17.0 L 16.75 17.5 L 17.0 18.0 L 17.25 18.5 L 17.5 19.0 L 17.75 19.5 L 18.0 20.0 L 18.25 20.5 L 18.5 21.0 L 18.75 21.5 L 19.0 22.0 L 19.25 22.5 L 19.5 23.0 L 19.75 23.5 L 20.0 24.0 L 20.25 24.5 L 20.5 25.0 L 20.75 25.5 L 21.0 26.0 L 21.25 26.5 L 21.5 27.0 L 21.75 27.5 L 22.0 28.0" fill="none" stroke="#111" stroke-width="1.16" stroke-linecap="round" stroke-linejoin="round"/>
<path d="M 16.0 8.0 L 16.21 7.88 L 16.42 7.75 L 16.62 7.62 L 16.83 7.5 L 17.04 7.38 L 17.25 7.25 L 17.46 7.12 L 17.67 7.0 L 17.88 6.88 L 18.08 6.75 L 18.29 6.62 L 18.5 6.5 L 18.71 6.38 L 18.92 6.25 L 19.12 6.12 L 19.33 6.0 L 19.54 5.88 L 19.75 5.75 L 19.96 5.62 L 20.17 5.5 L 20.38 5.38 L 20.58 5.25 L 20.79 5.12 L 21.0 5.0" fill="none" stroke="#111" stroke-width="1.16" stroke-linecap="round" stroke-linejoin="round"/>
<path d="M 19.0 15.0 L 18.75 15.58 L 18.5 16.17 L 18.25 16.75 L 18.0 17.33 L 17.75 17.92 L 17.5 18.5 L 17.25 19.08 L 17.0 19.67 L 16.75 20.25 L 16.5 20.83 L 16.25 21.42 L 16.0 22.0 L 15.75 22.58 L 15.5 23.17 L 15.25 23.75 L 15.0 24.33 L 14.75 24.92 L 14.5 25.5 L 14.25 26.08 L 14.0 26.67 L 13.75 27.25 L 13.5 27.83 L 13.25 28.42 L 13.0 29.0" fill="none" stroke="#111" stroke-width="1.16" stroke-linecap="round" stroke-linejoin="round"/>
</svg>
