<?xml version="1.0" encoding="UTF-8"?>
<svg xmlns="http://www.w3.org/2000/svg" viewBox="0 0 21.07 31.00">
<path d="M 6.0 4.0 L 6.12 4.0 L 6.25 4.0 L 6.38 4.0 L 6.5 4.0 L 6.62 4.0 L 6.75 4.0 L 6.88 4.0 L 7.0 4.0 L 7.12 4.0 L 7.25 4.0 L 7.38 4.0 L 7.5 4.0 L 7.62 4.0 L 7.75 4.0 L 7.88 4.0 L 8.0 4.0 L 8.12 4.0 L 8.25 4.0 L 8.38 4.0 L 8.5 4.0 L 8.62 4.0 L 8.75 4.0 L 8.88 4.0 L 9.0 4.0" fill="none" stroke="#111" stroke-width="1.09" stroke-linecap="round" stroke-linejoin="round"/>
<path d="M 4.0 7.0 L 4.29 7.0 L 4.58 7.0 L 4.88 7.0 L 5.17 7.0 L 5.46 7.0 L 5.75 7.0 L 6.04 7.0 L 6.33 7.0 L 6.62 7.0 L 6.92 7.0 L 7.21 7.0 L 7.5 7.0 L 7.79 7.0 L 8.08 7.0 L 8.38 7.0 L 8.67 7.0 L 8.96 7.0 L 9.25 7.0 L 9.54 7.0 L 9.83 7.0 L 10.12 7.0 L 10.42 7.0 L 10.71 7.0 L 11.0 7.0" fill="none" stroke="#111" stroke-width="1.09" stroke-linecap="round" stroke-linejoin="round"/>
<path d="M 5.0 7.0 L 5.12 7.29 L 5.25 7.58 L 5.38 7.88 L 5.5 8.17 L 5.62 8.46 L 5.75 8.75 L 5.88 9.04 L 6.0 9.33 L 6.12 9.62 L 6.25 9.92 L 6.38 10.21 L 6.5 10.5 L 6.62 10.79 L 6.75 11.08 L 6.88 11.38 L 7.0 11.67 L 7.12 11.96 L 7.25 12.25 L 7.38 12.54 L 7.5 12.83 L 7.62 13.12 L 7.75 13.42 L 7.88 13.71 L 8.0 14.0" fill="none" stroke="#111" stroke-width="1.09" stroke-linecap="round" stroke-linejoin="round"/>
<path d="M 9.0 7.0 L 8.96 7.25 L 8.92 7.5 L 8.88 7.75 L 8.83 8.0 L 8.79 8.25 L 8.75 8.5 L 8.71 8.75 L 8.67 9.0 L 8.62 9.25 L 8.58 9.5 L 8.54 9.75 L 8.5 10.0 L 8.46 10.25 L 8.42 10.5 L 8.38 10.75 L 8.33 11.0 L 8.29 11.25 L 8.25 11.5 L 8.21 11.75 L 8.17 12.0 L 8.12 12.25 L 8.08 12.5 L 8.04 12.75 L 8.0 13.0" fill="none" stroke="#111" stroke-width="1.09" stroke-linecap="round" stroke-linejoin="round"/>
<path d="M 4.0 12.0 L 4.17 12.12 L 4.33 12.25 L 4.5 12.38 L 4.67 12.5 L 4.83 12.62 L 5.0 12.75 L 5.17 12.88 L 5.33 13.0 L 5.5 13.12 L 5.67 13.25 L 5.83 13.38 L 6.0 13.5 L 6.17 13.62 L 6.33 13.75 L 6.5 13.88 L 6.67 14.0 L 6.83 14.12 L 7.0 14.25 L 7.17 14.38 L 7.33 14.5 L 7.5 14.62 L 7.67 14.75 L 7.83 14.88 L 8.0 15.0" fill="none" stroke="#111" stroke-width="1.09" stroke-linecap="round" stroke-linejoin="round"/>
<path d="M 11.0 12.0 L 10.88 12.12 L 10.75 12.25 L 10.62 12.38 L 10.5 12.5 L 10.38 12.62 L 10.25 12.75 L 10.12 12.88 L 10.0 13.0 L 9.88 13.12 L 9.75 13.25 L 9.62 13.38 L 9.5 13.5 L 9.38 13.62 L 9.25 13.75 L 9.12 13.88 L 9.0 14.0 L 8.88 14.12 L 8.75 14.25 L 8.62 14.38 L 8.5 14.5 L 8.38 14.62 L 8.25 14.75 L 8.12 14.88 L 8.0 15.0" fill="none" stroke="#111" stroke-width="1.09" stroke-linecap="round" stroke-linejoin="round"/>
<path d="M 8.0 13.0 L 8.0 13.58 L 8.0 14.17 L 8.0 14.75 L 8.0 15.33 L 8.0 15.92 L 8.0 16.5 L 8.0 17.08 L 8.0 17.67 L 8.0 18.25 L 8.0 18.83 L 8.0 19.42 L 8.0 20.0 L 8.0 20.58 L 8.0 21.17 L 8.0 21.75 L 8.0 22.33 L 8.0 22.92 L 8.0 23.5 L 8.0 24.08 L 8.0 24.67 L 8.0 25.25 L 8.0 25.83 L 8.0 26.42 L 8.0 27.0" fill="none" stroke="#111" stroke-width="1.09" stroke-linecap="round" stroke-linejoin="round"/>
<path d="M 8.0 19.0 L 7.83 19.21 L 7.67 19.42 L 7.5 19.62 L 7.33 19.83 L 7.17 20.04 L 7.0 20.25 L 6.83 20.46 L 6.67 20.67 L 6.5 20.88 L 6.33 21.08 L 6.17 21.29 L 6.0 21.5 L 5.83 21.71 L 5.67 21.92 L 5.5 22.12 L 5.33 22.33 L 5.17 22.54 L 5.0 22.75 L 4.83 22.96 L 4.67 23.17 L 4.5 23.38 L 4.33 23.58 L 4.17 23.79 L 4.0 24.0" fill="none" stroke="#111" stroke-width="1.09" stroke-linecap="round" stroke-linejoin="round"/>
<path d="M 8.0 19.0 L 8.12 19.17 L 8.25 19.33 L 8.38 19.5 L 8.5 19.67 L 8.62 19.83 L 8.75 20.0 L 8.88 20.17 L 9.0 20.33 L 9.12 20.5 L 9.25 20.67 L 9.38 20.83 L 9.5 21.0 L 9.62 21.17 L 9.75 21.33 L 9.88 21.5 L 10.0 21.67 L 10.12 21.83 L 10.25 22.0 L 10.38 22.17 L 10.5 22.33 L 10.62 22.5 L 10.75 22.67 L 10.88 22.83 L 11.0 23.0" fill="none" stroke="#111" stroke-width="1.09" stroke-linecap="round" stroke-linejoin="round"/>
<path d="M 11.0 10.0 L 11.21 9.83 L 11.42 9.67 L 11.62 9.5 L 11.83 9.33 L 12.04 9.17 L 12.25 9.0 L 12.46 8.83 L 12.67 8.67 L 12.88 8.5 L 13.08 8.33 L 13.29 8.17 L 13.5 8.0 L 13.71 7.83 L 13.92 7.67 L 14.12 7.5 L 14.33 7.33 L 14.54 7.17 L 14.75 7.0 L 14.96 6.83 L 15.17 6.67 L 15.38 6.5 L 15.58 6.33 L 15.79 6.17 L 16.0 6.0" fill="none" stroke="#111" stroke-width="1.09" stroke-linecap="round" stroke-linejoin="round"/>
<path d="M 16.0 6.0 L 16.2 6.82 L 16.38 7.64 L 16.54 8.47 L 16.68 9.3 L 16.8 10.13 L 16.9 10.97 L 16.98 11.81 L 17.03 12.65 L 17.06 13.49 L 17.07 14.34 L 17.06 15.18 L 17.03 16.02 L 16.98 16.86 L 16.91 17.7 L 16.81 18.54 L 16.69 19.37 L 16.56 20.2 L 16.4 21.03 L 16.22 21.85 L 16.02 22.67 L 15.79 23.49 L 15.55 24.29 L 15.29 25.09 L 15.01 25.89" fill="none" stroke="#111" stroke-width="1.09" stroke-linecap="round" stroke-linejoin="round"/>
</svg>
