<?xml version="1.0" encoding="UTF-8"?>
<svg xmlns="http://www.w3.org/2000/svg" viewBox="0 0 23.00 30.00">
<path d="M 4.0 16.0 L 4.0 16.42 L 4.0 16.83 L 4.0 17.25 L 4.0 17.67 L 4.0 18.08 L 4.0 18.5 L 4.0 18.92 L 4.0 19.33 L 4.0 19.75 L 4.0 20.17 L 4.0 20.58 L 4.0 21.0 L 4.0 21.42 L 4.0 21.83 L 4.0 22.25 L 4.0 22.67 L 4.0 23.08 L 4.0 23.5 L 4.0 23.92 L 4.0 24.33 L 4.0 24.75 L 4.0 25.17 L 4.0 25.58 L 4.0 26.0" fill="none" stroke="#111" stroke-width="1.05" stroke-linecap="round" stroke-linejoin="round"/>
<path d="M 4.0 16.0 L 4.62 16.0 L 5.25 16.0 L 5.88 16.0 L 6.5 16.0 L 7.12 16.0 L 7.75 16.0 L 8.38 16.0 L 9.0 16.0 L 9.62 16.0 L 10.25 16.0 L 10.88 16.0 L 11.5 16.0 L 12.12 16.0 L 12.75 16.0 L 13.38 16.0 L 14.0 16.0 L 14.62 16.0 L 15.25 16.0 L 15.88 16.0 L 16.5 16.0 L 17.12 16.0 L 17.75 16.0 L 18.38 16.0 L 19.0 16.0" fill="none" stroke="#111" stroke-width="1.05" stroke-linecap="round" stroke-linejoin="round"/>
<path d="M 4.0 22.0 L 4.21 21.96 L 4.42 21.92 L 4.62 21.88 L 4.83 21.83 L 5.04 21.79 L 5.25 21.75 L 5.46 21.71 L 5.67 21.67 L 5.88 21.62 L 6.08 21.58 L 6.29 21.54 L 6.5 21.5 L 6.71 21.46 L 6.92 21.42 L 7.12 21.38 L 7.33 21.33 L 7.54 21.29 L 7.75 21.25 L 7.96 21.21 L 8.17 21.17 L 8.38 21.12 L 8.58 21.08 L 8.79 21.04 L 9.0 21.0" fill="none" stroke="#111" stroke-width="1.05" stroke-linecap="round" stroke-linejoin="round"/>
<path d="M 9.0 16.0 L 8.65 16.62 L 8.42 17.28 L 8.31 17.98 L 8.33 18.69 L 8.48 19.38 L 8.75 20.04 L 9.13 20.63 L 9.62 21.15 L 10.19 21.56 L 10.82 21.87 L 11.51 22.06 L 12.21 22.13 L 12.91 22.06 L 13.6 21.87 L 14.23 21.56 L 14.8 21.15 L 15.29 20.63 L 15.67 20.04 L 15.94 19.38 L 16.09 18.69 L 16.11 17.98 L 16.0 17.28 L 15.77 16.62 L 15.42 16.0" fill="none" stroke="#111" stroke-width="1.05" stroke-linecap="round" stroke-linejoin="round"/>
<path d="M 14.0 20.0 L 14.21 19.83 L 14.42 19.67 L 14.62 19.5 L 14.83 19.33 L 15.04 19.17 L 15.25 19.0 L 15.46 18.83 L 15.67 18.67 L 15.88 18.5 L 16.08 18.33 L 16.29 18.17 L 16.5 18.0 L 16.71 17.83 L 16.92 17.67 L 17.12 17.5 L 17.33 17.33 L 17.54 17.17 L 17.75 17.0 L 17.96 16.83 L 18.17 16.67 L 18.38 16.5 L 18.58 16.33 L 18.79 16.17 L 19.0 16.0" fill="none" stroke="#111" stroke-width="1.05" stroke-linecap="round" stroke-linejoin="round"/>
<path d="M 8.0 4.0 L 8.0 4.46 L 8.0 4.92 L 8.0 5.38 L 8.0 5.83 L 8.0 6.29 L 8.0 6.75 L 8.0 7.21 L 8.0 7.67 L 8.0 8.12 L 8.0 8.58 L 8.0 9.04 L 8.0 9.5 L 8.0 9.96 L 8.0 10.42 L 8.0 10.88 L 8.0 11.33 L 8.0 11.79 L 8.0 12.25 L 8.0 12.71 L 8.0 13.17 L 8.0 13.62 L 8.0 14.08 L 8.0 14.54 L 8.0 15.0" fill="none" stroke="#111" stroke-width="1.05" stroke-linecap="round" stroke-linejoin="round"/>
</svg>
