<?xml version="1.0" encoding="UTF-8"?>
<svg xmlns="http://www.w3.org/2000/svg" viewBox="0 0 25.00 35.00">
<path d="M 9.0 4.0 L 9.0 4.29 L 9.0 4.58 L 9.0 4.88 L 9.0 5.17 L 9.0 5.46 L 9.0 5.75 L 9.0 6.04 L 9.0 6.33 L 9.0 6.62 L 9.0 6.92 L 9.0 7.21 L 9.0 7.5 L 9.0 7.79 L 9.0 8.08 L 9.0 8.38 L 9.0 8.67 L 9.0 8.96 L 9.0 9.25 L 9.0 9.54 L 9.0 9.83 L 9.0 10.12 L 9.0 10.42 L 9.0 10.71 L 9.0 11.0" fill="none" stroke="#111" stroke-width="1.23" stroke-linecap="round" stroke-linejoin="round"/>
<path d="M 16.0 4.0 L 16.0 4.29 L 16.0 4.58 L 16.0 4.88 L 16.0 5.17 L 16.0 5.46 L 16.0 5.75 L 16.0 6.04 L 16.0 6.33 L 16.0 6.62 L 16.0 6.92 L 16.0 7.21 L 16.0 7.5 L 16.0 7.79 L 16.0 8.08 L 16.0 8.38 L 16.0 8.67 L 16.0 8.96 L 16.0 9.25 L 16.0 9.54 L 16.0 9.83 L 16.0 10.12 L 16.0 10.42 L 16.0 10.71 L 16.0 11.0" fill="none" stroke="#111" stroke-width="1.23" stroke-linecap="round" stroke-linejoin="round"/>
<path d="M 9.0 4.0 L 9.29 4.0 L 9.58 4.0 L 9.88 4.0 L 10.17 4.0 L 10.46 4.0 L 10.75 4.0 L 11.04 4.0 L 11.33 4.0 L 11.62 4.0 L 11.92 4.0 L 12.21 4.0 L 12.5 4.0 L 12.79 4.0 L 13.08 4.0 L 13.38 4.0 L 13.67 4.0 L 13.96 4.0 L 14.25 4.0 L 14.54 4.0 L 14.83 4.0 L 15.12 4.0 L 15.42 4.0 L 15.71 4.0 L 16.0 4.0" fill="none" stroke="#111" stroke-width="1.23" stroke-linecap="round" stroke-linejoin="round"/>
<path d="M 9.0 11.0 L 9.29 11.0 L 9.58 11.0 L 9.88 11.0 L 10.17 11.0 L 10.46 11.0 L 10.75 11.0 L 11.04 11.0 L 11.33 11.0 L 11.62 11.0 L 11.92 11.0 L 12.21 11.0 L 12.5 11.0 L 12.79 11.0 L 13.08 11.0 L 13.38 11.0 L 13.67 11.0 L 13.96 11.0 L 14.25 11.0 L 14.54 11.0 L 14.83 11.0 L 15.12 11.0 L 15.42 11.0 L 15.71 11.0 L 16.0 11.0" fill="none" stroke="#111" stroke-width="1.23" stroke-linecap="round" stroke-linejoin="round"/>
<path d="M 9.0 25.0 L 9.0 25.25 L 9.0 25.5 L 9.0 25.75 L 9.0 26.0 L 9.0 26.25 L 9.0 26.5 L 9.0 26.75 L 9.0 27.0 L 9.0 27.25 L 9.0 27.5 L 9.0 27.75 L 9.0 28.0 L 9.0 28.25 L 9.0 28.5 L 9.0 28.75 L 9.0 29.0 L 9.0 29.25 L 9.0 29.5 L 9.0 29.75 L 9.0 30.0 L 9.0 30.25 L 9.0 30.5 L 9.0 30.75 L 9.0 31.0" fill="none" stroke="#111" stroke-width="1.23" stroke-linecap="round" stroke-linejoin="round"/>
<path d="M 15.0 25.0 L 15.0 25.25 L 15.0 25.5 L 15.0 25.75 L 15.0 26.0 L 15.0 26.25 L 15.0 26.5 L 15.0 26.75 L 15.0 27.0 L 15.0 27.25 L 15.0 27.5 L 15.0 27.75 L 15.0 28.0 L 15.0 28.25 L 15.0 28.5 L 15.0 28.75 L 15.0 29.0 L 15.0 29.25 L 15.0 29.5 L 15.0 29.75 L 15.0 30.0 L 15.0 30.25 L 15.0 30.5 L 15.0 30.75 L 15.0 31.0" fill="none" stroke="#111" stroke-width="1.23" stroke-linecap="round" stroke-linejoin="round"/>
<path d="M 9.0 25.0 L 9.25 25.0 L 9.5 25.0 L 9.75 25.0 L 10.0 25.0 L 10.25 25.0 L 10.5 25.0 L 10.75 25.0 L 11.0 25.0 L 11.25 25.0 L 11.5 25.0 L 11.75 25.0 L 12.0 25.0 L 12.25 25.0 L 12.5 25.0 L 12.75 25.0 L 13.0 25.0 L 13.25 25.0 L 13.5 25.0 L 13.75 25.0 L 14.0 25.0 L 14.25 25.0 L 14.5 25.0 L 14.75 25.0 L 15.0 25.0" fill="none" stroke="#111" stroke-width="1.23" stroke-linecap="round" stroke-linejoin="round"/>
<path d="M 9.0 31.0 L 9.25 31.0 L 9.5 31.0 L 9.75 31.0 L 10.0 31.0 L 10.25 31.0 L 10.5 31.0 L 10.75 31.0 L 11.0 31.0 L 11.25 31.0 L 11.5 31.0 L 11.75 31.0 L 12.0 31.0 L 12.25 31.0 L 12.5 31.0 L 12.75 31.0 L 13.0 31.0 L 13.25 31.0 L 13.5 31.0 L 13.75 31.0 L 14.0 31.0 L 14.25 31.0 L 14.5 31.0 L 14.75 31.0 L 15.0 31.0" fill="none" stroke="#111" stroke-width="1.23" stroke-linecap="round" stroke-linejoin="round"/>
<path d="M 9.0 14.0 L 9.0 14.29 L 9.0 14.58 L 9.0 14.88 L 9.0 15.17 L 9.0 15.46 L 9.0 15.75 L 9.0 16.04 L 9.0 16.33 L 9.0 16.62 L 9.0 16.92 L 9.0 17.21 L 9.0 17.5 L 9.0 17.79 L 9.0 18.08 L 9.0 18.38 L 9.0 18.67 L 9.0 18.96 L 9.0 19.25 L 9.0 19.54 L 9.0 19.83 L 9.0 20.12 L 9.0 20.42 L 9.0 20.71 L 9.0 21.0" fill="none" stroke="#111" stroke-width="1.23" stroke-linecap="round" stroke-linejoin="round"/>
<path d="M 4.0 14.0 L 4.0 14.29 L 4.0 14.58 L 4.0 14.88 L 4.0 15.17 L 4.0 15.46 L 4.0 15.75 L 4.0 16.04 L 4.0 16.33 L 4.0 16.62 L 4.0 16.92 L 4.0 17.21 L 4.0 17.5 L 4.0 17.79 L 4.0 18.08 L 4.0 18.38 L 4.0 18.67 L 4.0 18.96 L 4.0 19.25 L 4.0 19.54 L 4.0 19.83 L 4.0 20.12 L 4.0 20.42 L 4.0 20.71 L 4.0 21.0" fill="none" stroke="#111" stroke-width="1.23" stroke-linecap="round" stroke-linejoin="round"/>
<path d="M 4.0 14.0 L 4.21 14.0 L 4.42 14.0 L 4.62 14.0 L 4.83 14.0 L 5.04 14.0 L 5.25 14.0 L 5.46 14.0 L 5.67 14.0 L 5.88 14.0 L 6.08 14.0 L 6.29 14.0 L 6.5 14.0 L 6.71 14.0 L 6.92 14.0 L 7.12 14.0 L 7.33 14.0 L 7.54 14.0 L 7.75 14.0 L 7.96 14.0 L 8.17 14.0 L 8.38 14.0 L 8.58 14.0 L 8.79 14.0 L 9.0 14.0" fill="none" stroke="#111" stroke-width="1.23" stroke-linecap="round" stroke-linejoin="round"/>
<path d="M 4.0 21.0 L 4.21 21.0 L 4.42 21.0 L 4.62 21.0 L 4.83 21.0 L 5.04 21.0 L 5.25 21.0 L 5.46 21.0 L 5.67 21.0 L 5.88 21.0 L 6.08 21.0 L 6.29 21.0 L 6.5 21.0 L 6.71 21.0 L 6.92 21.0 L 7.12 21.0 L 7.33 21.0 L 7.54 21.0 L 7.75 21.0 L 7.96 21.0 L 8.17 21.0 L 8.38 21.0 L 8.58 21.0 L 8.79 21.0 L 9.0 21.0" fill="none" stroke="#111" stroke-width="1.23" stroke-linecap="round" stroke-linejoin="round"/>
<path d="M 15.0 14.0 L 15.0 14.29 L 15.0 14.58 L 15.0 14.88 L 15.0 15.17 L 15.0 15.46 L 15.0 15.75 L 15.0 16.04 L 15.0 16.33 L 15.0 16.62 L 15.0 16.92 L 15.0 17.21 L 15.0 17.5 L 15.0 17.79 L 15.0 18.08 L 15.0 18.38 L 15.0 18.67 L 15.0 18.96 L 15.0 19.25 L 15.0 19.54 L 15.0 19.83 L 15.0 20.12 L 15.0 20.42 L 15.0 20.71 L 15.0 21.0" fill="none" stroke="#111" stroke-width="1.23" stroke-linecap="round" stroke-linejoin="round"/>
<path d="M 21.0 14.0 L 21.0 14.29 L 21.0 14.58 L 21.0 14.88 L 21.0 15.17 L 21.0 15.46 L 21.0 15.75 L 21.0 16.04 L 21.0 16.33 L 21.0 16.62 L 21.0 16.92 L 21.0 17.21 L 21.0 17.5 L 21.0 17.79 L 21.0 18.08 L 21.0 18.38 L 21.0 18.67 L 21.0 18.96 L 21.0 19.25 L 21.0 19.54 L 21.0 19.83 L 21.0 20.12 L 21.0 20.42 L 21.0 20.71 L 21.0 21.0" fill="none" stroke="#111" stroke-width="1.23" stroke-linecap="round" stroke-linejoin="round"/>
<path d="M 15.0 14.0 L 15.25 14.0 L 15.5 14.0 L 15.75 14.0 L 16.0 14.0 L 16.25 14.0 L 16.5 14.0 L 16.75 14.0 L 17.0 14.0 L 17.25 14.0 L 17.5 14.0 L 17.75 14.0 L 18.0 14.0 L 18.25 14.0 L 18.5 14.0 L 18.75 14.0 L 19.0 14.0 L 19.25 14.0 L 19.5 14.0 L 19.75 14.0 L 20.0 14.0 L 20.25 14.0 L 20.5 14.0 L 20.75 14.0 L 21.0 14.0" fill="none" stroke="#111" stroke-width="1.23" stroke-linecap="round" stroke-linejoin="round"/>
<path d="M 15.0 21.0 L 15.25 21.0 L 15.5 21.0 L 15.75 21.0 L 16.0 21.0 L 16.25 21.0 L 16.5 21.0 L 16.75 21.0 L 17.0 21.0 L 17.25 21.0 L 17.5 21.0 L 17.75 21.0 L 18.0 21.0 L 18.25 21.0 L 18.5 21.0 L 18.75 21.0 L 19.0 21.0 L 19.25 21.0 L 19.5 21.0 L 19.75 21.0 L 20.0 21.0 L 20.25 21.0 L 20.5 21.0 L 20.75 21.0 L 21.0 21.0" fill="none" stroke="#111" stroke-width="1.23" stroke-linecap="round" stroke-linejoin="round"/>
</svg>
