<?xml version="1.0" encoding="UTF-8"?>
<svg xmlns="http://www.w3.org/2000/svg" viewBox="0 0 27.00 33.00">
<path d="M 11.0 4.0 L 11.0 4.38 L 11.0 4.75 L 11.0 5.12 L 11.0 5.5 L 11.0 5.88 L 11.0 6.25 L 11.0 6.62 L 11.0 7.0 L 11.0 7.38 L 11.0 7.75 L 11.0 8.12 L 11.0 8.5 L 11.0 8.88 L 11.0 9.25 L 11.0 9.62 L 11.0 10.0 L 11.0 10.38 L 11.0 10.75 L 11.0 11.12 L 11.0 11.5 L 11.0 11.88 L 11.0 12.25 L 11.0 12.62 L 11.0 13.0 L 11.0 13.0 L 10.71 13.0 L 10.42 13.0 L 10.12 13.0 L 9.83 13.0 L 9.54 13.0 L 9.25 13.0 L 8.96 13.0 L 8.67 13.0 L 8.38 13.0 L 8.08 13.0 L 7.79 13.0 L 7.5 13.0 L 7.21 13.0 L 6.92 13.0 L 6.62 13.0 L 6.33 13.0 L 6.04 13.0 L 5.75 13.0 L 5.46 13.0 L 5.17 13.0 L 4.88 13.0 L 4.58 13.0 L 4.29 13.0 L 4.0 13.0" fill="none" stroke="#111" stroke-width="1.16" stroke-linecap="round" stroke-linejoin="round"/>
<path d="M 11.0 19.0 L 11.0 19.38 L 11.0 19.75 L 11.0 20.12 L 11.0 20.5 L 11.0 20.88 L 11.0 21.25 L 11.0 21.62 L 11.0 22.0 L 11.0 22.38 L 11.0 22.75 L 11.0 23.12 L 11.0 23.5 L 11.0 23.88 L 11.0 24.25 L 11.0 24.62 L 11.0 25.0 L 11.0 25.38 L 11.0 25.75 L 11.0 26.12 L 11.0 26.5 L 11.0 26.88 L 11.0 27.25 L 11.0 27.62 L 11.0 28.0" fill="none" stroke="#111" stroke-width="1.16" stroke-linecap="round" stroke-linejoin="round"/>
<path d="M 5.0 20.0 L 5.25 19.96 L 5.5 19.92 L 5.75 19.88 L 6.0 19.83 L 6.25 19.79 L 6.5 19.75 L 6.75 19.71 L 7.0 19.67 L 7.25 19.62 L 7.5 19.58 L 7.75 19.54 L 8.0 19.5 L 8.25 19.46 L 8.5 19.42 L 8.75 19.38 L 9.0 19.33 L 9.25 19.29 L 9.5 19.25 L 9.75 19.21 L 10.0 19.17 L 10.25 19.12 L 10.5 19.08 L 10.75 19.04 L 11.0 19.0" fill="none" stroke="#111" stroke-width="1.16" stroke-linecap="round" stroke-linejoin="round"/>
<path d="M 17.0 5.0 L 17.0 5.38 L 17.0 5.75 L 17.0 6.12 L 17.0 6.5 L 17.0 6.88 L 17.0 7.25 L 17.0 7.62 L 17.0 8.0 L 17.0 8.38 L 17.0 8.75 L 17.0 9.12 L 17.0 9.5 L 17.0 9.88 L 17.0 10.25 L 17.0 10.62 L 17.0 11.0 L 17.0 11.38 L 17.0 11.75 L 17.0 12.12 L 17.0 12.5 L 17.0 12.88 L 17.0 13.25 L 17.0 13.62 L 17.0 14.0 L 17.0 14.0 L 17.25 14.0 L 17.5 14.0 L 17.75 14.0 L 18.0 14.0 L 18.25 14.0 L 18.5 14.0 L 18.75 14.0 L 19.0 14.0 L 19.25 14.0 L 19.5 14.0 L 19.75 14.0 L 20.0 14.0 L 20.25 14.0 L 20.5 14.0 L 20.75 14.0 L 21.0 14.0 L 21.25 14.0 L 21.5 14.0 L 21.75 14.0 L 22.0 14.0 L 22.25 14.0 L 22.5 14.0 L 22.75 14.0 L 23.0 14.0" fill="none" stroke="#111" stroke-width="1.16" stroke-linecap="round" stroke-linejoin="round"/>
<path d="M 17.0 29.0 L 17.0 28.58 L 17.0 28.17 L 17.0 27.75 L 17.0 27.33 L 17.0 26.92 L 17.0 26.5 L 17.0 26.08 L 17.0 25.67 L 17.0 25.25 L 17.0 24.83 L 17.0 24.42 L 17.0 24.0 L 17.0 23.58 L 17.0 23.17 L 17.0 22.75 L 17.0 22.33 L 17.0 21.92 L 17.0 21.5 L 17.0 21.08 L 17.0 20.67 L 17.0 20.25 L 17.0 19.83 L 17.0 19.42 L 17.0 19.0" fill="none" stroke="#111" stroke-width="1.16" stroke-linecap="round" stroke-linejoin="round"/>
<path d="M 17.0 19.0 L 17.25 19.0 L 17.5 19.0 L 17.75 19.0 L 18.0 19.0 L 18.25 19.0 L 18.5 19.0 L 18.75 19.0 L 19.0 19.0 L 19.25 19.0 L 19.5 19.0 L 19.75 19.0 L 20.0 19.0 L 20.25 19.0 L 20.5 19.0 L 20.75 19.0 L 21.0 19.0 L 21.25 19.0 L 21.5 19.0 L 21.75 19.0 L 22.0 19.0 L 22.25 19.0 L 22.5 19.0 L 22.75 19.0 L 23.0 19.0" fill="none" stroke="#111" stroke-width="1.16" stroke-linecap="round" stroke-linejoin="round"/>
</svg>
