<?xml version="1.0" encoding="UTF-8"?>
<svg xmlns="http://www.w3.org/2000/svg" viewBox="0 0 21.00 33.00">
<path d="M 12.0 10.0 L 12.0 10.42 L 12.0 10.83 L 12.0 11.25 L 12.0 11.67 L 12.0 12.08 L 12.0 12.5 L 12.0 12.92 L 12.0 13.33 L 12.0 13.75 L 12.0 14.17 L 12.0 14.58 L 12.0 15.0 L 12.0 15.42 L 12.0 15.83 L 12.0 16.25 L 12.0 16.67 L 12.0 17.08 L 12.0 17.5 L 12.0 17.92 L 12.0 18.33 L 12.0 18.75 L 12.0 19.17 L 12.0 19.58 L 12.0 20.0" fill="none" stroke="#111" stroke-width="1.16" stroke-linecap="round" stroke-linejoin="round"/>
<path d="M 17.0 6.0 L 17.0 6.75 L 17.0 7.5 L 17.0 8.25 L 17.0 9.0 L 17.0 9.75 L 17.0 10.5 L 17.0 11.25 L 17.0 12.0 L 17.0 12.75 L 17.0 13.5 L 17.0 14.25 L 17.0 15.0 L 17.0 15.75 L 17.0 16.5 L 17.0 17.25 L 17.0 18.0 L 17.0 18.75 L 17.0 19.5 L 17.0 20.25 L 17.0 21.0 L 17.0 21.75 L 17.0 22.5 L 17.0 23.25 L 17.0 24.0 L 17.0 24.0 L 16.83 24.21 L 16.67 24.42 L 16.5 24.62 L 16.33 24.83 L 16.17 25.04 L 16.0 25.25 L 15.83 25.46 L 15.67 25.67 L 15.5 25.88 L 15.33 26.08 L 15.17 26.29 L 15.0 26.5 L 14.83 26.71 L 14.67 26.92 L 14.5 27.12 L 14.33 27.33 L 14.17 27.54 L 14.0 27.75 L 13.83 27.96 L 13.67 28.17 L 13.5 28.38 L 13.33 28.58 L 13.17 28.79 L 13.0 29.0" fill="none" stroke="#111" stroke-width="1.16" stroke-linecap="round" stroke-linejoin="round"/>
<path d="M 12.0 16.0 L 12.21 15.83 L 12.42 15.67 L 12.62 15.5 L 12.83 15.33 L 13.04 15.17 L 13.25 15.0 L 13.46 14.83 L 13.67 14.67 L 13.88 14.5 L 14.08 14.33 L 14.29 14.17 L 14.5 14.0 L 14.71 13.83 L 14.92 13.67 L 15.12 13.5 L 15.33 13.33 L 15.54 13.17 L 15.75 13.0 L 15.96 12.83 L 16.17 12.67 L 16.38 12.5 L 16.58 12.33 L 16.79 12.17 L 17.0 12.0" fill="none" stroke="#111" stroke-width="1.16" stroke-linecap="round" stroke-linejoin="round"/>
<path d="M 6.0 4.0 L 6.08 4.25 L 6.17 4.5 L 6.25 4.75 L 6.33 5.0 L 6.42 5.25 L 6.5 5.5 L 6.58 5.75 L 6.67 6.0 L 6.75 6.25 L 6.83 6.5 L 6.92 6.75 L 7.0 7.0 L 7.08 7.25 L 7.17 7.5 L 7.25 7.75 L 7.33 8.0 L 7.42 8.25 L 7.5 8.5 L 7.58 8.75 L 7.67 9.0 L 7.75 9.25 L 7.83 9.5 L 7.92 9.75 L 8.0 10.0" fill="none" stroke="#111" stroke-width="1.16" stroke-linecap="round" stroke-linejoin="round"/>
<path d="M 8.0 10.0 L 7.83 10.42 L 7.67 10.83 L 7.5 11.25 L 7.33 11.67 L 7.17 12.08 L 7.0 12.5 L 6.83 12.92 L 6.67 13.33 L 6.5 13.75 L 6.33 14.17 L 6.17 14.58 L 6.0 15.0 L 5.83 15.42 L 5.67 15.83 L 5.5 16.25 L 5.33 16.67 L 5.17 17.08 L 5.0 17.5 L 4.83 17.92 L 4.67 18.33 L 4.5 18.75 L 4.33 19.17 L 4.17 19.58 L 4.0 20.0" fill="none" stroke="#111" stroke-width="1.16" stroke-linecap="round" stroke-linejoin="round"/>
<path d="M 4.0 20.0 L 4.17 20.33 L 4.33 20.67 L 4.5 21.0 L 4.67 21.33 L 4.83 21.67 L 5.0 22.0 L 5.17 22.33 L 5.33 22.67 L 5.5 23.0 L 5.67 23.33 L 5.83 23.67 L 6.0 24.0 L 6.17 24.33 L 6.33 24.67 L 6.5 25.0 L 6.67 25.33 L 6.83 25.67 L 7.0 26.0 L 7.17 26.33 L 7.33 26.67 L 7.5 27.0 L 7.67 27.33 L 7.83 27.67 L 8.0 28.0" fill="none" stroke="#111" stroke-width="1.16" stroke-linecap="round" stroke-linejoin="round"/>
<path d="M 6.0 16.0 L 6.12 16.25 L 6.25 16.5 L 6.38 16.75 L 6.5 17.0 L 6.62 17.25 L 6.75 17.5 L 6.88 17.75 L 7.0 18.0 L 7.12 18.25 L 7.25 18.5 L 7.38 18.75 L 7.5 19.0 L 7.62 19.25 L 7.75 19.5 L 7.88 19.75 L 8.0 20.0 L 8.12 20.25 L 8.25 20.5 L 8.38 20.75 L 8.5 21.0 L 8.62 21.25 L 8.75 21.5 L 8.88 21.75 L 9.0 22.0" fill="none" stroke="#111" stroke-width="1.16" stroke-linecap="round" stroke-linejoin="round"/>
</svg>
