<?xml version="1.0" encoding="UTF-8"?>
<svg xmlns="http://www.w3.org/2000/svg" viewBox="0 0 23.00 30.00">
<path d="M 10.0 9.0 L 10.12 9.17 L 10.25 9.33 L 10.38 9.5 L 10.5 9.67 L 10.62 9.83 L 10.75 10.0 L 10.88 10.17 L 11.0 10.33 L 11.12 10.5 L 11.25 10.67 L 11.38 10.83 L 11.5 11.0 L 11.62 11.17 L 11.75 11.33 L 11.88 11.5 L 12.0 11.67 L 12.12 11.83 L 12.25 12.0 L 12.38 12.17 L 12.5 12.33 L 12.62 12.5 L 12.75 12.67 L 12.88 12.83 L 13.0 13.0" fill="none" stroke="#111" stroke-width="1.05" stroke-linecap="round" stroke-linejoin="round"/>
<path d="M 16.0 9.0 L 15.88 9.17 L 15.75 9.33 L 15.62 9.5 L 15.5 9.67 L 15.38 9.83 L 15.25 10.0 L 15.12 10.17 L 15.0 10.33 L 14.88 10.5 L 14.75 10.67 L 14.62 10.83 L 14.5 11.0 L 14.38 11.17 L 14.25 11.33 L 14.12 11.5 L 14.0 11.67 L 13.88 11.83 L 13.75 12.0 L 13.62 12.17 L 13.5 12.33 L 13.38 12.5 L 13.25 12.67 L 13.12 12.83 L 13.0 13.0" fill="none" stroke="#111" stroke-width="1.05" stroke-linecap="round" stroke-linejoin="round"/>
<path d="M 10.0 9.0 L 9.96 9.21 L 9.92 9.42 L 9.88 9.62 L 9.83 9.83 L 9.79 10.04 L 9.75 10.25 L 9.71 10.46 L 9.67 10.67 L 9.62 10.88 L 9.58 11.08 L 9.54 11.29 L 9.5 11.5 L 9.46 11.71 L 9.42 11.92 L 9.38 12.12 L 9.33 12.33 L 9.29 12.54 L 9.25 12.75 L 9.21 12.96 L 9.17 13.17 L 9.12 13.38 L 9.08 13.58 L 9.04 13.79 L 9.0 14.0" fill="none" stroke="#111" stroke-width="1.05" stroke-linecap="round" stroke-linejoin="round"/>
<path d="M 16.0 9.0 L 16.08 9.12 L 16.17 9.25 L 16.25 9.38 L 16.33 9.5 L 16.42 9.62 L 16.5 9.75 L 16.58 9.88 L 16.67 10.0 L 16.75 10.12 L 16.83 10.25 L 16.92 10.38 L 17.0 10.5 L 17.08 10.62 L 17.17 10.75 L 17.25 10.88 L 17.33 11.0 L 17.42 11.12 L 17.5 11.25 L 17.58 11.38 L 17.67 11.5 L 17.75 11.62 L 17.83 11.75 L 17.92 11.88 L 18.0 12.0" fill="none" stroke="#111" stroke-width="1.05" stroke-linecap="round" stroke-linejoin="round"/>
<path d="M 13.0 13.0 L 13.0 13.33 L 13.0 13.67 L 13.0 14.0 L 13.0 14.33 L 13.0 14.67 L 13.0 15.0 L 13.0 15.33 L 13.0 15.67 L 13.0 16.0 L 13.0 16.33 L 13.0 16.67 L 13.0 17.0 L 13.0 17.33 L 13.0 17.67 L 13.0 18.0 L 13.0 18.33 L 13.0 18.67 L 13.0 19.0 L 13.0 19.33 L 13.0 19.67 L 13.0 20.0 L 13.0 20.33 L 13.0 20.67 L 13.0 21.0" fill="none" stroke="#111" stroke-width="1.05" stroke-linecap="round" stroke-linejoin="round"/>
<path d="M 10.0 15.0 L 10.12 15.12 L 10.25 15.25 L 10.38 15.38 L 10.5 15.5 L 10.62 15.62 L 10.75 15.75 L 10.88 15.88 L 11.0 16.0 L 11.12 16.12 L 11.25 16.25 L 11.38 16.38 L 11.5 16.5 L 11.62 16.62 L 11.75 16.75 L 11.88 16.88 L 12.0 17.0 L 12.12 17.12 L 12.25 17.25 L 12.38 17.38 L 12.5 17.5 L 12.62 17.62 L 12.75 17.75 L 12.88 17.88 L 13.0 18.0" fill="none" stroke="#111" stroke-width="1.05" stroke-linecap="round" stroke-linejoin="round"/>
<path d="M 16.0 14.0 L 15.88 14.12 L 15.75 14.25 L 15.62 14.38 L 15.5 14.5 L 15.38 14.62 L 15.25 14.75 L 15.12 14.88 L 15.0 15.0 L 14.88 15.12 L 14.75 15.25 L 14.62 15.38 L 14.5 15.5 L 14.38 15.62 L 14.25 15.75 L 14.12 15.88 L 14.0 16.0 L 13.88 16.12 L 13.75 16.25 L 13.62 16.38 L 13.5 16.5 L 13.38 16.62 L 13.25 16.75 L 13.12 16.88 L 13.0 17.0" fill="none" stroke="#111" stroke-width="1.05" stroke-linecap="round" stroke-linejoin="round"/>
<path d="M 4.0 5.0 L 4.0 5.83 L 4.0 6.67 L 4.0 7.5 L 4.0 8.33 L 4.0 9.17 L 4.0 10.0 L 4.0 10.83 L 4.0 11.67 L 4.0 12.5 L 4.0 13.33 L 4.0 14.17 L 4.0 15.0 L 4.0 15.83 L 4.0 16.67 L 4.0 17.5 L 4.0 18.33 L 4.0 19.17 L 4.0 20.0 L 4.0 20.83 L 4.0 21.67 L 4.0 22.5 L 4.0 23.33 L 4.0 24.17 L 4.0 25.0" fill="none" stroke="#111" stroke-width="1.05" stroke-linecap="round" stroke-linejoin="round"/>
<path d="M 4.0 5.0 L 4.62 4.96 L 5.25 4.92 L 5.88 4.88 L 6.5 4.83 L 7.12 4.79 L 7.75 4.75 L 8.38 4.71 L 9.0 4.67 L 9.62 4.62 L 10.25 4.58 L 10.88 4.54 L 11.5 4.5 L 12.12 4.46 L 12.75 4.42 L 13.37 4.38 L 14.0 4.33 L 14.62 4.29 L 15.25 4.25 L 15.88 4.21 L 16.5 4.17 L 17.12 4.12 L 17.75 4.08 L 18.38 4.04 L 19.0 4.0" fill="none" stroke="#111" stroke-width="1.05" stroke-linecap="round" stroke-linejoin="round"/>
<path d="M 4.0 26.0 L 4.58 25.96 L 5.17 25.92 L 5.75 25.88 L 6.33 25.83 L 6.92 25.79 L 7.5 25.75 L 8.08 25.71 L 8.67 25.67 L 9.25 25.62 L 9.83 25.58 L 10.42 25.54 L 11.0 25.5 L 11.58 25.46 L 12.17 25.42 L 12.75 25.38 L 13.33 25.33 L 13.92 25.29 L 14.5 25.25 L 15.08 25.21 L 15.67 25.17 L 16.25 25.12 L 16.83 25.08 L 17.42 25.04 L 18.0 25.0" fill="none" stroke="#111" stroke-width="1.05" stroke-linecap="round" stroke-linejoin="round"/>
<path d="M 7.0 7.0 L 7.5 6.96 L 8.0 6.92 L 8.5 6.88 L 9.0 6.83 L 9.5 6.79 L 10.0 6.75 L 10.5 6.71 L 11.0 6.67 L 11.5 6.62 L 12.0 6.58 L 12.5 6.54 L 13.0 6.5 L 13.5 6.46 L 14.0 6.42 L 14.5 6.38 L 15.0 6.33 L 15.5 6.29 L 16.0 6.25 L 16.5 6.21 L 17.0 6.17 L 17.5 6.12 L 18.0 6.08 L 18.5 6.04 L 19.0 6.0" fill="none" stroke="#111" stroke-width="1.05" stroke-linecap="round" stroke-linejoin="round"/>
<path d="M 7.0 7.0 L 7.0 7.62 L 7.0 8.25 L 7.0 8.88 L 7.0 9.5 L 7.0 10.12 L 7.0 10.75 L 7.0 11.38 L 7.0 12.0 L 7.0 12.62 L 7.0 13.25 L 7.0 13.88 L 7.0 14.5 L 7.0 15.12 L 7.0 15.75 L 7.0 16.38 L 7.0 17.0 L 7.0 17.62 L 7.0 18.25 L 7.0 18.88 L 7.0 19.5 L 7.0 20.12 L 7.0 20.75 L 7.0 21.38 L 7.0 22.0" fill="none" stroke="#111" stroke-width="1.05" stroke-linecap="round" stroke-linejoin="round"/>
<path d="M 7.0 22.0 L 7.42 22.0 L 7.83 22.0 L 8.25 22.0 L 8.67 22.0 L 9.08 22.0 L 9.5 22.0 L 9.92 22.0 L 10.33 22.0 L 10.75 22.0 L 11.17 22.0 L 11.58 22.0 L 12.0 22.0 L 12.42 22.0 L 12.83 22.0 L 13.25 22.0 L 13.67 22.0 L 14.08 22.0 L 14.5 22.0 L 14.92 22.0 L 15.33 22.0 L 15.75 22.0 L 16.17 22.0 L 16.58 22.0 L 17.0 22.0" fill="none" stroke="#111" stroke-width="1.05" stroke-linecap="round" stroke-linejoin="round"/>
<path d="M 19.0 4.0 L 19.0 4.08 L 19.0 4.17 L 19.0 4.25 L 19.0 4.33 L 19.0 4.42 L 19.0 4.5 L 19.0 4.58 L 19.0 4.67 L 19.0 4.75 L 19.0 4.83 L 19.0 4.92 L 19.0 5.0 L 19.0 5.08 L 19.0 5.17 L 19.0 5.25 L 19.0 5.33 L 19.0 5.42 L 19.0 5.5 L 19.0 5.58 L 19.0 5.67 L 19.0 5.75 L 19.0 5.83 L 19.0 5.92 L 19.0 6.0" fill="none" stroke="#111" stroke-width="1.05" stroke-linecap="round" stroke-linejoin="round"/>
<path d="M 17.0 22.0 L 17.04 22.12 L 17.08 22.25 L 17.12 22.38 L 17.17 22.5 L 17.21 22.62 L 17.25 22.75 L 17.29 22.88 L 17.33 23.0 L 17.38 23.12 L 17.42 23.25 L 17.46 23.38 L 17.5 23.5 L 17.54 23.62 L 17.58 23.75 L 17.62 23.88 L 17.67 24.0 L 17.71 24.12 L 17.75 24.25 L 17.79 24.38 L 17.83 24.5 L 17.88 24.62 L 17.92 24.75 L 17.96 24.88 L 18.0 25.0" fill="none" stroke="#111" stroke-width="1.05" stroke-linecap="round" stroke-linejoin="round"/>
</svg>
