<?xml version="1.0" encoding="UTF-8"?>
<svg xmlns="http://www.w3.org/2000/svg" viewBox="0 0 21.32 40.00">
<path d="M 6.0 4.0 L 6.29 4.29 L 6.58 4.58 L 6.88 4.88 L 7.17 5.17 L 7.46 5.46 L 7.75 5.75 L 8.04 6.04 L 8.33 6.33 L 8.62 6.62 L 8.92 6.92 L 9.21 7.21 L 9.5 7.5 L 9.79 7.79 L 10.08 8.08 L 10.38 8.38 L 10.67 8.67 L 10.96 8.96 L 11.25 9.25 L 11.54 9.54 L 11.83 9.83 L 12.12 10.12 L 12.42 10.42 L 12.71 10.71 L 13.0 11.0" fill="none" stroke="#111" stroke-width="1.40" stroke-linecap="round" stroke-linejoin="round"/>
<path d="M 13.0 6.0 L 12.71 6.21 L 12.42 6.42 L 12.12 6.62 L 11.83 6.83 L 11.54 7.04 L 11.25 7.25 L 10.96 7.46 L 10.67 7.67 L 10.38 7.88 L 10.08 8.08 L 9.79 8.29 L 9.5 8.5 L 9.21 8.71 L 8.92 8.92 L 8.62 9.12 L 8.33 9.33 L 8.04 9.54 L 7.75 9.75 L 7.46 9.96 L 7.17 10.17 L 6.88 10.38 L 6.58 10.58 L 6.29 10.79 L 6.0 11.0" fill="none" stroke="#111" stroke-width="1.40" stroke-linecap="round" stroke-linejoin="round"/>
<path d="M 5.0 4.0 L 4.53 5.04 L 4.25 6.14 L 4.16 7.28 L 4.27 8.41 L 4.58 9.51 L 5.07 10.54 L 5.73 11.47 L 6.54 12.27 L 7.47 12.92 L 8.51 13.4 L 9.61 13.69 L 10.74 13.79 L 11.88 13.69 L 12.98 13.4 L 14.01 12.92 L 14.95 12.27 L 15.76 11.47 L 16.42 10.54 L 16.91 9.51 L 17.21 8.41 L 17.32 7.28 L 17.23 6.14 L 16.95 5.04 L 16.48 4.0" fill="none" stroke="#111" stroke-width="1.40" stroke-linecap="round" stroke-linejoin="round"/>
<path d="M 10.0 16.0 L 10.08 16.38 L 10.17 16.75 L 10.25 17.12 L 10.33 17.5 L 10.42 17.88 L 10.5 18.25 L 10.58 18.62 L 10.67 19.0 L 10.75 19.38 L 10.83 19.75 L 10.92 20.12 L 11.0 20.5 L 11.08 20.88 L 11.17 21.25 L 11.25 21.62 L 11.33 22.0 L 11.42 22.38 L 11.5 22.75 L 11.58 23.12 L 11.67 23.5 L 11.75 23.88 L 11.83 24.25 L 11.92 24.62 L 12.0 25.0 L 12.0 25.0 L 11.55 24.86 L 11.08 24.75 L 10.61 24.69 L 10.14 24.66 L 9.66 24.67 L 9.19 24.73 L 8.73 24.82 L 8.27 24.94 L 7.82 25.11 L 7.39 25.31 L 6.98 25.55 L 6.59 25.82 L 6.22 26.12 L 5.88 26.45 L 5.56 26.8 L 5.28 27.18 L 5.03 27.59 L 4.81 28.01 L 4.63 28.45 L 4.49 28.9 L 4.38 29.36 L 4.31 29.83 L 4.28 30.31 L 4.29 30.78 L 4.0 31.0 L 4.33 30.92 L 4.67 30.83 L 5.0 30.75 L 5.33 30.67 L 5.67 30.58 L 6.0 30.5 L 6.33 30.42 L 6.67 30.33 L 7.0 30.25 L 7.33 30.17 L 7.67 30.08 L 8.0 30.0 L 8.33 29.92 L 8.67 29.83 L 9.0 29.75 L 9.33 29.67 L 9.67 29.58 L 10.0 29.5 L 10.33 29.42 L 10.67 29.33 L 11.0 29.25 L 11.33 29.17 L 11.67 29.08 L 12.0 29.0 L 12.0 29.0 L 11.88 29.29 L 11.75 29.58 L 11.62 29.88 L 11.5 30.17 L 11.38 30.46 L 11.25 30.75 L 11.12 31.04 L 11.0 31.33 L 10.88 31.62 L 10.75 31.92 L 10.62 32.21 L 10.5 32.5 L 10.38 32.79 L 10.25 33.08 L 10.12 33.38 L 10.0 33.67 L 9.88 33.96 L 9.75 34.25 L 9.62 34.54 L 9.5 34.83 L 9.38 35.12 L 9.25 35.42 L 9.12 35.71 L 9.0 36.0" fill="none" stroke="#111" stroke-width="1.40" stroke-linecap="round" stroke-linejoin="round"/>
<path d="M 10.0 17.0 L 9.88 17.38 L 9.75 17.75 L 9.62 18.12 L 9.5 18.5 L 9.38 18.88 L 9.25 19.25 L 9.12 19.62 L 9.0 20.0 L 8.88 20.38 L 8.75 20.75 L 8.62 21.12 L 8.5 21.5 L 8.38 21.88 L 8.25 22.25 L 8.12 22.62 L 8.0 23.0 L 7.87 23.38 L 7.75 23.75 L 7.62 24.12 L 7.5 24.5 L 7.37 24.88 L 7.25 25.25 L 7.12 25.62 L 7.0 26.0" fill="none" stroke="#111" stroke-width="1.40" stroke-linecap="round" stroke-linejoin="round"/>
</svg>
