<?xml version="1.0" encoding="UTF-8"?>
<svg xmlns="http://www.w3.org/2000/svg" viewBox="0 0 28.00 37.40">
<path d="M 4.0 24.0 L 4.06 23.7 L 4.13 23.41 L 4.19 23.11 L 4.26 22.81 L 4.33 22.52 L 4.4 22.22 L 4.47 21.93 L 4.55 21.63 L 4.62 21.34 L 4.7 21.05 L 4.78 20.75 L 4.87 20.46 L 4.95 20.17 L 5.04 19.88 L 5.12 19.59 L 5.21 19.3 L 5.31 19.01 L 5.4 18.72 L 5.49 18.43 L 5.59 18.15 L 5.69 17.86 L 5.79 17.57 L 5.89 17.29 L 6.0 17.0 L 6.0 17.0 L 6.12 17.0 L 6.25 17.0 L 6.38 17.0 L 6.5 17.0 L 6.62 17.0 L 6.75 17.0 L 6.88 17.0 L 7.0 17.0 L 7.12 17.0 L 7.25 17.0 L 7.38 17.0 L 7.5 17.0 L 7.62 17.0 L 7.75 17.0 L 7.88 17.0 L 8.0 17.0 L 8.12 17.0 L 8.25 17.0 L 8.38 17.0 L 8.5 17.0 L 8.62 17.0 L 8.75 17.0 L 8.88 17.0 L 9.0 17.0 L 9.0 17.0 L 9.04 17.12 L 9.08 17.25 L 9.12 17.38 L 9.17 17.5 L 9.21 17.62 L 9.25 17.75 L 9.29 17.88 L 9.33 18.0 L 9.38 18.12 L 9.42 18.25 L 9.46 18.38 L 9.5 18.5 L 9.54 18.62 L 9.58 18.75 L 9.62 18.88 L 9.67 19.0 L 9.71 19.12 L 9.75 19.25 L 9.79 19.38 L 9.83 19.5 L 9.88 19.62 L 9.92 19.75 L 9.96 19.88 L 10.0 20.0 L 10.0 20.0 L 9.76 20.16 L 9.52 20.34 L 9.3 20.52 L 9.08 20.71 L 8.87 20.92 L 8.67 21.13 L 8.48 21.35 L 8.3 21.58 L 8.13 21.82 L 7.98 22.06 L 7.83 22.31 L 7.69 22.57 L 7.57 22.83 L 7.46 23.1 L 7.36 23.37 L 7.27 23.65 L 7.19 23.93 L 7.13 24.22 L 7.08 24.51 L 7.04 24.79 L 7.02 25.08 L 7.01 25.38 L 7.01 25.67 L 7.02 25.96" fill="none" stroke="#111" stroke-width="1.31" stroke-linecap="round" stroke-linejoin="round"/>
<path d="M 4.0 20.0 L 4.17 20.08 L 4.33 20.17 L 4.5 20.25 L 4.67 20.33 L 4.83 20.42 L 5.0 20.5 L 5.17 20.58 L 5.33 20.67 L 5.5 20.75 L 5.67 20.83 L 5.83 20.92 L 6.0 21.0 L 6.17 21.08 L 6.33 21.17 L 6.5 21.25 L 6.67 21.33 L 6.83 21.42 L 7.0 21.5 L 7.17 21.58 L 7.33 21.67 L 7.5 21.75 L 7.67 21.83 L 7.83 21.92 L 8.0 22.0" fill="none" stroke="#111" stroke-width="1.31" stroke-linecap="round" stroke-linejoin="round"/>
<path d="M 8.0 6.0 L 7.78 6.42 L 7.58 6.86 L 7.42 7.32 L 7.28 7.78 L 7.18 8.25 L 7.11 8.72 L 7.07 9.2 L 7.07 9.68 L 7.09 10.16 L 7.15 10.64 L 7.24 11.11 L 7.36 11.57 L 7.52 12.03 L 7.7 12.47 L 7.92 12.9 L 8.16 13.32 L 8.43 13.71 L 8.72 14.09 L 9.04 14.45 L 9.39 14.79 L 9.75 15.1 L 10.14 15.38 L 10.54 15.64 L 10.96 15.87" fill="none" stroke="#111" stroke-width="1.31" stroke-linecap="round" stroke-linejoin="round"/>
<path d="M 9.0 8.0 L 8.92 8.04 L 8.83 8.08 L 8.75 8.12 L 8.67 8.17 L 8.58 8.21 L 8.5 8.25 L 8.42 8.29 L 8.33 8.33 L 8.25 8.38 L 8.17 8.42 L 8.08 8.46 L 8.0 8.5 L 7.92 8.54 L 7.83 8.58 L 7.75 8.62 L 7.67 8.67 L 7.58 8.71 L 7.5 8.75 L 7.42 8.79 L 7.33 8.83 L 7.25 8.88 L 7.17 8.92 L 7.08 8.96 L 7.0 9.0" fill="none" stroke="#111" stroke-width="1.31" stroke-linecap="round" stroke-linejoin="round"/>
<path d="M 10.0 10.0 L 9.92 10.08 L 9.83 10.17 L 9.75 10.25 L 9.67 10.33 L 9.58 10.42 L 9.5 10.5 L 9.42 10.58 L 9.33 10.67 L 9.25 10.75 L 9.17 10.83 L 9.08 10.92 L 9.0 11.0 L 8.92 11.08 L 8.83 11.17 L 8.75 11.25 L 8.67 11.33 L 8.58 11.42 L 8.5 11.5 L 8.42 11.58 L 8.33 11.67 L 8.25 11.75 L 8.17 11.83 L 8.08 11.92 L 8.0 12.0" fill="none" stroke="#111" stroke-width="1.31" stroke-linecap="round" stroke-linejoin="round"/>
<path d="M 12.0 4.0 L 11.79 4.4 L 11.61 4.81 L 11.46 5.23 L 11.32 5.66 L 11.22 6.1 L 11.13 6.54 L 11.08 6.98 L 11.05 7.43 L 11.04 7.88 L 11.07 8.33 L 11.12 8.77 L 11.19 9.22 L 11.29 9.65 L 11.42 10.09 L 11.57 10.51 L 11.75 10.92 L 11.95 11.32 L 12.17 11.71 L 12.41 12.09 L 12.68 12.45 L 12.97 12.8 L 13.28 13.12 L 13.6 13.43 L 13.94 13.72" fill="none" stroke="#111" stroke-width="1.31" stroke-linecap="round" stroke-linejoin="round"/>
<path d="M 14.0 6.0 L 13.88 6.04 L 13.75 6.08 L 13.62 6.12 L 13.5 6.17 L 13.38 6.21 L 13.25 6.25 L 13.12 6.29 L 13.0 6.33 L 12.88 6.38 L 12.75 6.42 L 12.62 6.46 L 12.5 6.5 L 12.38 6.54 L 12.25 6.58 L 12.12 6.62 L 12.0 6.67 L 11.88 6.71 L 11.75 6.75 L 11.62 6.79 L 11.5 6.83 L 11.38 6.88 L 11.25 6.92 L 11.12 6.96 L 11.0 7.0" fill="none" stroke="#111" stroke-width="1.31" stroke-linecap="round" stroke-linejoin="round"/>
<path d="M 15.0 7.0 L 14.88 7.08 L 14.75 7.17 L 14.62 7.25 L 14.5 7.33 L 14.38 7.42 L 14.25 7.5 L 14.12 7.58 L 14.0 7.67 L 13.88 7.75 L 13.75 7.83 L 13.62 7.92 L 13.5 8.0 L 13.38 8.08 L 13.25 8.17 L 13.12 8.25 L 13.0 8.33 L 12.88 8.42 L 12.75 8.5 L 12.62 8.58 L 12.5 8.67 L 12.38 8.75 L 12.25 8.83 L 12.12 8.92 L 12.0 9.0" fill="none" stroke="#111" stroke-width="1.31" stroke-linecap="round" stroke-linejoin="round"/>
<path d="M 10.0 17.0 L 10.45 16.53 L 10.94 16.09 L 11.46 15.7 L 12.01 15.34 L 12.58 15.03 L 13.18 14.76 L 13.79 14.54 L 14.42 14.36 L 15.06 14.24 L 15.71 14.16 L 16.36 14.13 L 17.01 14.15 L 17.66 14.22 L 18.3 14.34 L 18.94 14.51 L 19.55 14.73 L 20.15 14.99 L 20.73 15.3 L 21.28 15.65 L 21.8 16.04 L 22.29 16.47 L 22.75 16.94 L 23.17 17.44 L 23.55 17.97" fill="none" stroke="#111" stroke-width="1.31" stroke-linecap="round" stroke-linejoin="round"/>
<path d="M 11.0 17.0 L 11.08 17.33 L 11.17 17.67 L 11.25 18.0 L 11.33 18.33 L 11.42 18.67 L 11.5 19.0 L 11.58 19.33 L 11.67 19.67 L 11.75 20.0 L 11.83 20.33 L 11.92 20.67 L 12.0 21.0 L 12.08 21.33 L 12.17 21.67 L 12.25 22.0 L 12.33 22.33 L 12.42 22.67 L 12.5 23.0 L 12.58 23.33 L 12.67 23.67 L 12.75 24.0 L 12.83 24.33 L 12.92 24.67 L 13.0 25.0 L 13.0 25.0 L 12.72 25.19 L 12.47 25.41 L 12.23 25.64 L 12.01 25.9 L 11.81 26.17 L 11.64 26.46 L 11.49 26.76 L 11.36 27.07 L 11.27 27.4 L 11.2 27.73 L 11.15 28.06 L 11.14 28.4 L 11.15 28.73 L 11.2 29.07 L 11.27 29.4 L 11.36 29.72 L 11.49 30.03 L 11.64 30.33 L 11.81 30.62 L 12.01 30.89 L 12.23 31.15 L 12.47 31.38 L 12.72 31.6 L 13.0 31.79" fill="none" stroke="#111" stroke-width="1.31" stroke-linecap="round" stroke-linejoin="round"/>
<path d="M 11.0 28.0 L 11.12 28.04 L 11.25 28.08 L 11.38 28.12 L 11.5 28.17 L 11.62 28.21 L 11.75 28.25 L 11.88 28.29 L 12.0 28.33 L 12.12 28.38 L 12.25 28.42 L 12.38 28.46 L 12.5 28.5 L 12.62 28.54 L 12.75 28.58 L 12.88 28.62 L 13.0 28.67 L 13.12 28.71 L 13.25 28.75 L 13.38 28.79 L 13.5 28.83 L 13.62 28.88 L 13.75 28.92 L 13.88 28.96 L 14.0 29.0" fill="none" stroke="#111" stroke-width="1.31" stroke-linecap="round" stroke-linejoin="round"/>
<path d="M 13.0 25.0 L 13.0 25.08 L 13.0 25.17 L 13.0 25.25 L 13.0 25.33 L 13.0 25.42 L 13.0 25.5 L 13.0 25.58 L 13.0 25.67 L 13.0 25.75 L 13.0 25.83 L 13.0 25.92 L 13.0 26.0 L 13.0 26.08 L 13.0 26.17 L 13.0 26.25 L 13.0 26.33 L 13.0 26.42 L 13.0 26.5 L 13.0 26.58 L 13.0 26.67 L 13.0 26.75 L 13.0 26.83 L 13.0 26.92 L 13.0 27.0" fill="none" stroke="#111" stroke-width="1.31" stroke-linecap="round" stroke-linejoin="round"/>
<path d="M 20.0 16.0 L 19.89 16.2 L 19.79 16.4 L 19.7 16.61 L 19.63 16.82 L 19.57 17.04 L 19.52 17.26 L 19.49 17.48 L 19.47 17.7 L 19.46 17.93 L 19.47 18.16 L 19.49 18.38 L 19.53 18.6 L 19.58 18.82 L 19.65 19.04 L 19.73 19.25 L 19.82 19.46 L 19.92 19.66 L 20.04 19.85 L 20.17 20.03 L 20.3 20.21 L 20.46 20.38 L 20.62 20.54 L 20.79 20.69 L 20.96 20.82 L 21.0 21.0 L 20.92 21.21 L 20.83 21.42 L 20.75 21.62 L 20.67 21.83 L 20.58 22.04 L 20.5 22.25 L 20.42 22.46 L 20.33 22.67 L 20.25 22.88 L 20.17 23.08 L 20.08 23.29 L 20.0 23.5 L 19.92 23.71 L 19.83 23.92 L 19.75 24.12 L 19.67 24.33 L 19.58 24.54 L 19.5 24.75 L 19.42 24.96 L 19.33 25.17 L 19.25 25.38 L 19.17 25.58 L 19.08 25.79 L 19.0 26.0" fill="none" stroke="#111" stroke-width="1.31" stroke-linecap="round" stroke-linejoin="round"/>
<path d="M 16.0 25.0 L 16.04 25.17 L 16.08 25.33 L 16.12 25.5 L 16.17 25.67 L 16.21 25.83 L 16.25 26.0 L 16.29 26.17 L 16.33 26.33 L 16.38 26.5 L 16.42 26.67 L 16.46 26.83 L 16.5 27.0 L 16.54 27.17 L 16.58 27.33 L 16.62 27.5 L 16.67 27.67 L 16.71 27.83 L 16.75 28.0 L 16.79 28.17 L 16.83 28.33 L 16.88 28.5 L 16.92 28.67 L 16.96 28.83 L 17.0 29.0" fill="none" stroke="#111" stroke-width="1.31" stroke-linecap="round" stroke-linejoin="round"/>
<path d="M 16.0 27.0 L 16.47 26.95 L 16.93 26.98 L 17.39 27.07 L 17.83 27.22 L 18.25 27.44 L 18.62 27.71 L 18.96 28.04 L 19.24 28.41 L 19.47 28.82 L 19.64 29.25 L 19.74 29.71 L 19.77 30.18 L 19.74 30.64 L 19.64 31.1 L 19.47 31.54 L 19.24 31.95 L 18.96 32.32 L 18.62 32.64 L 18.25 32.92 L 17.83 33.13 L 17.39 33.29 L 16.93 33.38 L 16.47 33.4 L 16.0 33.35" fill="none" stroke="#111" stroke-width="1.31" stroke-linecap="round" stroke-linejoin="round"/>
<path d="M 22.0 16.0 L 22.08 15.96 L 22.17 15.92 L 22.25 15.88 L 22.33 15.83 L 22.42 15.79 L 22.5 15.75 L 22.58 15.71 L 22.67 15.67 L 22.75 15.62 L 22.83 15.58 L 22.92 15.54 L 23.0 15.5 L 23.08 15.46 L 23.17 15.42 L 23.25 15.38 L 23.33 15.33 L 23.42 15.29 L 23.5 15.25 L 23.58 15.21 L 23.67 15.17 L 23.75 15.12 L 23.83 15.08 L 23.92 15.04 L 24.0 15.0" fill="none" stroke="#111" stroke-width="1.31" stroke-linecap="round" stroke-linejoin="round"/>
</svg>
