<?xml version="1.0" encoding="UTF-8"?>
<svg xmlns="http://www.w3.org/2000/svg" viewBox="0 0 18.82 35.91">
<path d="M 5.82 14.0 L 5.35 14.23 L 4.94 14.55 L 4.58 14.93 L 4.3 15.38 L 4.11 15.86 L 4.01 16.37 L 4.0 16.89 L 4.09 17.41 L 4.26 17.9 L 4.53 18.35 L 4.87 18.75 L 5.27 19.08 L 5.73 19.32 L 6.23 19.49 L 6.75 19.56 L 7.27 19.53 L 7.78 19.41 L 8.26 19.2 L 8.69 18.91 L 9.06 18.55 L 9.36 18.12 L 9.58 17.65 L 9.71 17.14 L 9.75 16.62 L 8.82 16.0 L 8.69 15.92 L 8.57 15.83 L 8.44 15.75 L 8.32 15.67 L 8.19 15.58 L 8.07 15.5 L 7.94 15.42 L 7.82 15.33 L 7.69 15.25 L 7.57 15.17 L 7.44 15.08 L 7.32 15.0 L 7.19 14.92 L 7.07 14.83 L 6.94 14.75 L 6.82 14.67 L 6.69 14.58 L 6.57 14.5 L 6.44 14.42 L 6.32 14.33 L 6.19 14.25 L 6.07 14.17 L 5.94 14.08 L 5.82 14.0" fill="none" stroke="#111" stroke-width="1.26" stroke-linecap="round" stroke-linejoin="round"/>
<path d="M 10.82 5.0 L 10.61 5.38 L 10.4 5.75 L 10.19 6.12 L 9.99 6.5 L 9.78 6.88 L 9.57 7.25 L 9.36 7.62 L 9.15 8.0 L 8.94 8.38 L 8.74 8.75 L 8.53 9.12 L 8.32 9.5 L 8.11 9.88 L 7.9 10.25 L 7.69 10.63 L 7.49 11.0 L 7.28 11.38 L 7.07 11.75 L 6.86 12.12 L 6.65 12.5 L 6.44 12.88 L 6.24 13.25 L 6.03 13.63 L 5.82 14.0" fill="none" stroke="#111" stroke-width="1.26" stroke-linecap="round" stroke-linejoin="round"/>
<path d="M 6.82 20.0 L 6.82 20.55 L 6.83 21.11 L 6.87 21.66 L 6.92 22.21 L 6.99 22.76 L 7.08 23.31 L 7.2 23.85 L 7.33 24.39 L 7.48 24.92 L 7.64 25.45 L 7.83 25.97 L 8.03 26.49 L 8.26 26.99 L 8.49 27.49 L 8.75 27.98 L 9.03 28.46 L 9.32 28.94 L 9.62 29.4 L 9.95 29.85 L 10.28 30.29 L 10.64 30.71 L 11.01 31.13 L 11.39 31.53 L 11.78 31.91" fill="none" stroke="#111" stroke-width="1.26" stroke-linecap="round" stroke-linejoin="round"/>
<path d="M 9.82 9.0 L 9.94 9.21 L 10.07 9.42 L 10.19 9.62 L 10.32 9.83 L 10.44 10.04 L 10.57 10.25 L 10.69 10.46 L 10.82 10.67 L 10.94 10.88 L 11.07 11.08 L 11.19 11.29 L 11.32 11.5 L 11.44 11.71 L 11.57 11.92 L 11.69 12.12 L 11.82 12.33 L 11.94 12.54 L 12.07 12.75 L 12.19 12.96 L 12.32 13.17 L 12.44 13.38 L 12.57 13.58 L 12.69 13.79 L 12.82 14.0" fill="none" stroke="#111" stroke-width="1.26" stroke-linecap="round" stroke-linejoin="round"/>
<path d="M 12.82 14.0 L 12.69 14.12 L 12.57 14.25 L 12.44 14.38 L 12.32 14.5 L 12.19 14.62 L 12.07 14.75 L 11.94 14.88 L 11.82 15.0 L 11.69 15.12 L 11.57 15.25 L 11.44 15.38 L 11.32 15.5 L 11.19 15.62 L 11.07 15.75 L 10.94 15.88 L 10.82 16.0 L 10.69 16.12 L 10.57 16.25 L 10.44 16.38 L 10.32 16.5 L 10.19 16.62 L 10.07 16.75 L 9.94 16.88 L 9.82 17.0" fill="none" stroke="#111" stroke-width="1.26" stroke-linecap="round" stroke-linejoin="round"/>
<path d="M 9.82 17.0 L 10.24 17.37 L 10.64 17.76 L 11.0 18.19 L 11.33 18.64 L 11.63 19.11 L 11.89 19.61 L 12.11 20.12 L 12.29 20.65 L 12.44 21.19 L 12.54 21.73 L 12.6 22.29 L 12.62 22.85 L 12.6 23.41 L 12.54 23.96 L 12.44 24.51 L 12.29 25.05 L 12.11 25.58 L 11.89 26.09 L 11.63 26.59 L 11.33 27.06 L 11.0 27.51 L 10.64 27.94 L 10.24 28.33 L 9.82 28.7" fill="none" stroke="#111" stroke-width="1.26" stroke-linecap="round" stroke-linejoin="round"/>
<path d="M 10.82 4.0 L 10.99 4.12 L 11.15 4.25 L 11.32 4.38 L 11.49 4.5 L 11.65 4.62 L 11.82 4.75 L 11.99 4.88 L 12.15 5.0 L 12.32 5.12 L 12.49 5.25 L 12.65 5.38 L 12.82 5.5 L 12.99 5.62 L 13.15 5.75 L 13.32 5.88 L 13.49 6.0 L 13.65 6.12 L 13.82 6.25 L 13.99 6.38 L 14.15 6.5 L 14.32 6.62 L 14.49 6.75 L 14.65 6.88 L 14.82 7.0" fill="none" stroke="#111" stroke-width="1.26" stroke-linecap="round" stroke-linejoin="round"/>
</svg>
