<?xml version="1.0" encoding="UTF-8"?>
<svg xmlns="http://www.w3.org/2000/svg" viewBox="0 0 27.95 33.00">
<path d="M 23.95 13.0 L 23.66 13.0 L 23.37 13.0 L 23.08 13.0 L 22.79 13.0 L 22.5 13.0 L 22.2 13.0 L 21.91 13.0 L 21.62 13.0 L 21.33 13.0 L 21.04 13.0 L 20.75 13.0 L 20.45 13.0 L 20.16 13.0 L 19.87 13.0 L 19.58 13.0 L 19.29 13.0 L 19.0 13.0 L 18.7 13.0 L 18.41 13.0 L 18.12 13.0 L 17.83 13.0 L 17.54 13.0 L 17.25 13.0 L 16.95 13.0 L 16.95 13.0 L 16.31 12.57 L 15.63 12.19 L 14.92 11.89 L 14.18 11.65 L 13.42 11.49 L 12.65 11.4 L 11.87 11.39 L 11.1 11.45 L 10.33 11.58 L 9.59 11.78 L 8.86 12.06 L 8.17 12.4 L 7.51 12.81 L 6.89 13.28 L 6.32 13.81 L 5.8 14.39 L 5.34 15.01 L 4.95 15.68 L 4.62 16.38 L 4.35 17.11 L 4.16 17.86 L 4.04 18.63 L 4.0 19.41 L 4.03 20.18 L 7.95 18.0 L 8.06 18.16 L 8.18 18.31 L 8.31 18.45 L 8.45 18.57 L 8.61 18.69 L 8.77 18.79 L 8.94 18.87 L 9.12 18.94 L 9.3 19.0 L 9.48 19.04 L 9.67 19.06 L 9.86 19.07 L 10.05 19.06 L 10.24 19.04 L 10.43 19.0 L 10.61 18.94 L 10.79 18.87 L 10.96 18.79 L 11.12 18.69 L 11.27 18.57 L 11.42 18.45 L 11.55 18.31 L 11.67 18.16 L 11.77 18.0 L 11.95 18.0 L 12.12 17.92 L 12.29 17.83 L 12.45 17.75 L 12.62 17.67 L 12.79 17.58 L 12.95 17.5 L 13.12 17.42 L 13.29 17.33 L 13.45 17.25 L 13.62 17.17 L 13.79 17.08 L 13.95 17.0 L 14.12 16.92 L 14.29 16.83 L 14.45 16.75 L 14.62 16.67 L 14.79 16.58 L 14.95 16.5 L 15.12 16.42 L 15.29 16.33 L 15.45 16.25 L 15.62 16.17 L 15.79 16.08 L 15.95 16.0 L 15.95 16.0 L 16.21 16.38 L 16.52 16.73 L 16.86 17.04 L 17.23 17.3 L 17.64 17.52 L 18.07 17.69 L 18.52 17.81 L 18.97 17.87 L 19.43 17.88 L 19.89 17.83 L 20.34 17.73 L 20.78 17.57 L 21.19 17.36 L 21.57 17.11 L 21.92 16.81 L 22.24 16.47 L 22.51 16.1 L 22.73 15.69 L 22.9 15.27 L 23.03 14.82 L 23.09 14.37 L 23.1 13.91 L 23.06 13.45 L 22.96 13.0" fill="none" stroke="#111" stroke-width="1.16" stroke-linecap="round" stroke-linejoin="round"/>
<path d="M 15.95 5.0 L 16.16 4.96 L 16.37 4.92 L 16.58 4.88 L 16.79 4.83 L 17.0 4.79 L 17.2 4.75 L 17.41 4.71 L 17.62 4.67 L 17.83 4.62 L 18.04 4.58 L 18.25 4.54 L 18.45 4.5 L 18.66 4.46 L 18.87 4.42 L 19.08 4.38 L 19.29 4.33 L 19.5 4.29 L 19.7 4.25 L 19.91 4.21 L 20.12 4.17 L 20.33 4.12 L 20.54 4.08 L 20.75 4.04 L 20.95 4.0" fill="none" stroke="#111" stroke-width="1.16" stroke-linecap="round" stroke-linejoin="round"/>
<path d="M 18.95 5.0 L 19.0 5.96 L 19.04 6.92 L 19.08 7.88 L 19.12 8.83 L 19.16 9.79 L 19.2 10.75 L 19.25 11.71 L 19.29 12.67 L 19.33 13.62 L 19.37 14.58 L 19.41 15.54 L 19.45 16.5 L 19.5 17.46 L 19.54 18.42 L 19.58 19.38 L 19.62 20.33 L 19.66 21.29 L 19.7 22.25 L 19.75 23.21 L 19.79 24.17 L 19.83 25.12 L 19.87 26.08 L 19.91 27.04 L 19.95 28.0" fill="none" stroke="#111" stroke-width="1.16" stroke-linecap="round" stroke-linejoin="round"/>
<path d="M 15.95 29.0 L 16.25 29.0 L 16.54 29.0 L 16.83 29.0 L 17.12 29.0 L 17.41 29.0 L 17.7 29.0 L 18.0 29.0 L 18.29 29.0 L 18.58 29.0 L 18.87 29.0 L 19.16 29.0 L 19.45 29.0 L 19.75 29.0 L 20.04 29.0 L 20.33 29.0 L 20.62 29.0 L 20.91 29.0 L 21.2 29.0 L 21.5 29.0 L 21.79 29.0 L 22.08 29.0 L 22.37 29.0 L 22.66 29.0 L 22.95 29.0" fill="none" stroke="#111" stroke-width="1.16" stroke-linecap="round" stroke-linejoin="round"/>
</svg>
