<?xml version="1.0" encoding="UTF-8"?>
<svg xmlns="http://www.w3.org/2000/svg" viewBox="0 0 22.00 40.19">
<path d="M 5.0 5.15 L 4.65 6.24 L 4.49 7.36 L 4.52 8.5 L 4.75 9.62 L 5.17 10.68 L 5.77 11.65 L 6.52 12.5 L 7.41 13.22 L 8.4 13.77 L 9.48 14.14 L 10.6 14.32 L 11.74 14.3 L 12.86 14.09 L 13.93 13.69 L 14.91 13.12 L 15.78 12.38 L 16.51 11.5 L 17.07 10.52 L 17.46 9.45 L 17.66 8.33 L 17.67 7.19 L 17.48 6.06 L 17.1 4.99 L 16.54 4.0" fill="none" stroke="#111" stroke-width="1.41" stroke-linecap="round" stroke-linejoin="round"/>
<path d="M 4.0 8.15 L 4.5 8.11 L 5.0 8.07 L 5.5 8.03 L 6.0 7.99 L 6.5 7.95 L 7.0 7.9 L 7.5 7.86 L 8.0 7.82 L 8.5 7.78 L 9.0 7.74 L 9.5 7.7 L 10.0 7.65 L 10.5 7.61 L 11.0 7.57 L 11.5 7.53 L 12.0 7.49 L 12.5 7.45 L 13.0 7.4 L 13.5 7.36 L 14.0 7.32 L 14.5 7.28 L 15.0 7.24 L 15.5 7.2 L 16.0 7.15" fill="none" stroke="#111" stroke-width="1.41" stroke-linecap="round" stroke-linejoin="round"/>
<path d="M 9.0 14.15 L 9.09 14.54 L 9.16 14.93 L 9.22 15.32 L 9.26 15.71 L 9.28 16.1 L 9.3 16.5 L 9.29 16.89 L 9.28 17.29 L 9.24 17.68 L 9.19 18.07 L 9.13 18.46 L 9.05 18.85 L 8.96 19.23 L 8.85 19.61 L 8.73 19.99 L 8.59 20.36 L 8.44 20.72 L 8.28 21.08 L 8.1 21.43 L 7.91 21.78 L 7.7 22.12 L 7.49 22.45 L 7.26 22.77 L 7.02 23.08 L 7.0 23.15 L 7.2 23.68 L 7.41 24.22 L 7.6 24.75 L 7.8 25.28 L 7.99 25.82 L 8.18 26.36 L 8.36 26.89 L 8.54 27.43 L 8.72 27.97 L 8.9 28.51 L 9.07 29.05 L 9.24 29.6 L 9.41 30.14 L 9.57 30.69 L 9.73 31.23 L 9.88 31.78 L 10.04 32.33 L 10.18 32.88 L 10.33 33.43 L 10.47 33.98 L 10.61 34.53 L 10.75 35.08 L 10.88 35.63 L 11.01 36.19" fill="none" stroke="#111" stroke-width="1.41" stroke-linecap="round" stroke-linejoin="round"/>
<path d="M 9.0 16.15 L 9.21 16.4 L 9.42 16.65 L 9.62 16.9 L 9.83 17.15 L 10.04 17.4 L 10.25 17.65 L 10.46 17.9 L 10.67 18.15 L 10.88 18.4 L 11.08 18.65 L 11.29 18.9 L 11.5 19.15 L 11.71 19.4 L 11.92 19.65 L 12.12 19.9 L 12.33 20.15 L 12.54 20.4 L 12.75 20.65 L 12.96 20.9 L 13.17 21.15 L 13.38 21.4 L 13.58 21.65 L 13.79 21.9 L 14.0 22.15" fill="none" stroke="#111" stroke-width="1.41" stroke-linecap="round" stroke-linejoin="round"/>
<path d="M 13.0 13.15 L 13.08 13.36 L 13.17 13.57 L 13.25 13.78 L 13.33 13.99 L 13.42 14.2 L 13.5 14.4 L 13.58 14.61 L 13.67 14.82 L 13.75 15.03 L 13.83 15.24 L 13.92 15.45 L 14.0 15.65 L 14.08 15.86 L 14.17 16.07 L 14.25 16.28 L 14.33 16.49 L 14.42 16.7 L 14.5 16.9 L 14.58 17.11 L 14.67 17.32 L 14.75 17.53 L 14.83 17.74 L 14.92 17.95 L 15.0 18.15" fill="none" stroke="#111" stroke-width="1.41" stroke-linecap="round" stroke-linejoin="round"/>
<path d="M 16.0 13.15 L 16.08 13.28 L 16.17 13.4 L 16.25 13.53 L 16.33 13.65 L 16.42 13.78 L 16.5 13.9 L 16.58 14.03 L 16.67 14.15 L 16.75 14.28 L 16.83 14.4 L 16.92 14.53 L 17.0 14.65 L 17.08 14.78 L 17.17 14.9 L 17.25 15.03 L 17.33 15.15 L 17.42 15.28 L 17.5 15.4 L 17.58 15.53 L 17.67 15.65 L 17.75 15.78 L 17.83 15.9 L 17.92 16.03 L 18.0 16.15" fill="none" stroke="#111" stroke-width="1.41" stroke-linecap="round" stroke-linejoin="round"/>
</svg>
