<?xml version="1.0" encoding="UTF-8"?>
<svg xmlns="http://www.w3.org/2000/svg" viewBox="0 0 24.99 36.00">
<path d="M 14.0 9.0 L 13.62 9.21 L 13.25 9.42 L 12.88 9.62 L 12.5 9.83 L 12.12 10.04 L 11.75 10.25 L 11.38 10.46 L 11.0 10.67 L 10.62 10.88 L 10.25 11.08 L 9.88 11.29 L 9.5 11.5 L 9.12 11.71 L 8.75 11.92 L 8.37 12.12 L 8.0 12.33 L 7.62 12.54 L 7.25 12.75 L 6.87 12.96 L 6.5 13.17 L 6.12 13.38 L 5.75 13.58 L 5.37 13.79 L 5.0 14.0" fill="none" stroke="#111" stroke-width="1.26" stroke-linecap="round" stroke-linejoin="round"/>
<path d="M 11.0 11.0 L 11.0 11.25 L 11.0 11.5 L 11.0 11.75 L 11.0 12.0 L 11.0 12.25 L 11.0 12.5 L 11.0 12.75 L 11.0 13.0 L 11.0 13.25 L 11.0 13.5 L 11.0 13.75 L 11.0 14.0 L 11.0 14.25 L 11.0 14.5 L 11.0 14.75 L 11.0 15.0 L 11.0 15.25 L 11.0 15.5 L 11.0 15.75 L 11.0 16.0 L 11.0 16.25 L 11.0 16.5 L 11.0 16.75 L 11.0 17.0" fill="none" stroke="#111" stroke-width="1.26" stroke-linecap="round" stroke-linejoin="round"/>
<path d="M 11.0 17.0 L 10.82 17.17 L 10.65 17.36 L 10.51 17.56 L 10.38 17.77 L 10.27 18.0 L 10.18 18.23 L 10.11 18.47 L 10.06 18.71 L 10.03 18.96 L 10.02 19.21 L 10.04 19.46 L 10.08 19.71 L 10.14 19.95 L 10.22 20.19 L 10.32 20.41 L 10.44 20.63 L 10.58 20.84 L 10.74 21.03 L 10.91 21.21 L 11.1 21.38 L 11.3 21.52 L 11.51 21.65 L 11.74 21.76 L 11.97 21.85" fill="none" stroke="#111" stroke-width="1.26" stroke-linecap="round" stroke-linejoin="round"/>
<path d="M 12.0 17.0 L 12.04 17.12 L 12.08 17.25 L 12.12 17.38 L 12.17 17.5 L 12.21 17.62 L 12.25 17.75 L 12.29 17.88 L 12.33 18.0 L 12.38 18.12 L 12.42 18.25 L 12.46 18.38 L 12.5 18.5 L 12.54 18.62 L 12.58 18.75 L 12.62 18.88 L 12.67 19.0 L 12.71 19.12 L 12.75 19.25 L 12.79 19.38 L 12.83 19.5 L 12.88 19.62 L 12.92 19.75 L 12.96 19.88 L 13.0 20.0" fill="none" stroke="#111" stroke-width="1.26" stroke-linecap="round" stroke-linejoin="round"/>
<path d="M 13.0 20.0 L 12.96 20.08 L 12.92 20.17 L 12.88 20.25 L 12.83 20.33 L 12.79 20.42 L 12.75 20.5 L 12.71 20.58 L 12.67 20.67 L 12.62 20.75 L 12.58 20.83 L 12.54 20.92 L 12.5 21.0 L 12.46 21.08 L 12.42 21.17 L 12.38 21.25 L 12.33 21.33 L 12.29 21.42 L 12.25 21.5 L 12.21 21.58 L 12.17 21.67 L 12.12 21.75 L 12.08 21.83 L 12.04 21.92 L 12.0 22.0" fill="none" stroke="#111" stroke-width="1.26" stroke-linecap="round" stroke-linejoin="round"/>
<path d="M 12.0 22.0 L 11.75 22.09 L 11.51 22.22 L 11.28 22.36 L 11.08 22.53 L 10.89 22.72 L 10.72 22.92 L 10.57 23.15 L 10.45 23.39 L 10.35 23.64 L 10.28 23.9 L 10.24 24.16 L 10.23 24.43 L 10.24 24.7 L 10.28 24.96 L 10.35 25.22 L 10.45 25.47 L 10.57 25.71 L 10.72 25.93 L 10.89 26.14 L 11.08 26.33 L 11.28 26.5 L 11.51 26.64 L 11.75 26.76 L 12.0 26.86" fill="none" stroke="#111" stroke-width="1.26" stroke-linecap="round" stroke-linejoin="round"/>
<path d="M 12.0 22.0 L 12.15 22.17 L 12.29 22.34 L 12.42 22.53 L 12.53 22.72 L 12.64 22.92 L 12.73 23.13 L 12.8 23.34 L 12.87 23.55 L 12.92 23.77 L 12.95 24.0 L 12.97 24.22 L 12.98 24.44 L 12.97 24.67 L 12.95 24.89 L 12.92 25.12 L 12.87 25.33 L 12.8 25.55 L 12.73 25.76 L 12.64 25.97 L 12.53 26.17 L 12.42 26.36 L 12.29 26.55 L 12.15 26.72 L 12.0 26.89" fill="none" stroke="#111" stroke-width="1.26" stroke-linecap="round" stroke-linejoin="round"/>
<path d="M 12.0 28.0 L 11.89 28.19 L 11.79 28.38 L 11.71 28.59 L 11.65 28.8 L 11.61 29.01 L 11.59 29.23 L 11.59 29.45 L 11.6 29.66 L 11.64 29.88 L 11.69 30.09 L 11.76 30.3 L 11.85 30.5 L 11.96 30.69 L 12.08 30.87 L 12.22 31.04 L 12.37 31.19 L 12.53 31.34 L 12.71 31.46 L 12.9 31.58 L 13.09 31.67 L 13.3 31.75 L 13.51 31.81 L 13.72 31.85 L 13.94 31.87" fill="none" stroke="#111" stroke-width="1.26" stroke-linecap="round" stroke-linejoin="round"/>
<path d="M 13.0 28.0 L 13.04 28.04 L 13.08 28.08 L 13.12 28.12 L 13.17 28.17 L 13.21 28.21 L 13.25 28.25 L 13.29 28.29 L 13.33 28.33 L 13.38 28.38 L 13.42 28.42 L 13.46 28.46 L 13.5 28.5 L 13.54 28.54 L 13.58 28.58 L 13.62 28.62 L 13.67 28.67 L 13.71 28.71 L 13.75 28.75 L 13.79 28.79 L 13.83 28.83 L 13.88 28.88 L 13.92 28.92 L 13.96 28.96 L 14.0 29.0 L 14.0 29.0 L 14.0 29.12 L 14.0 29.25 L 14.0 29.38 L 14.0 29.5 L 14.0 29.62 L 14.0 29.75 L 14.0 29.88 L 14.0 30.0 L 14.0 30.12 L 14.0 30.25 L 14.0 30.38 L 14.0 30.5 L 14.0 30.62 L 14.0 30.75 L 14.0 30.88 L 14.0 31.0 L 14.0 31.12 L 14.0 31.25 L 14.0 31.38 L 14.0 31.5 L 14.0 31.62 L 14.0 31.75 L 14.0 31.88 L 14.0 32.0" fill="none" stroke="#111" stroke-width="1.26" stroke-linecap="round" stroke-linejoin="round"/>
<path d="M 6.0 14.0 L 6.0 14.12 L 6.0 14.25 L 6.0 14.38 L 6.0 14.5 L 6.0 14.62 L 6.0 14.75 L 6.0 14.88 L 6.0 15.0 L 6.0 15.12 L 6.0 15.25 L 6.0 15.38 L 6.0 15.5 L 6.0 15.62 L 6.0 15.75 L 6.0 15.88 L 6.0 16.0 L 6.0 16.12 L 6.0 16.25 L 6.0 16.38 L 6.0 16.5 L 6.0 16.62 L 6.0 16.75 L 6.0 16.88 L 6.0 17.0" fill="none" stroke="#111" stroke-width="1.26" stroke-linecap="round" stroke-linejoin="round"/>
<path d="M 6.0 17.0 L 5.92 17.04 L 5.83 17.08 L 5.75 17.12 L 5.67 17.17 L 5.58 17.21 L 5.5 17.25 L 5.42 17.29 L 5.33 17.33 L 5.25 17.38 L 5.17 17.42 L 5.08 17.46 L 5.0 17.5 L 4.92 17.54 L 4.83 17.58 L 4.75 17.62 L 4.67 17.67 L 4.58 17.71 L 4.5 17.75 L 4.42 17.79 L 4.33 17.83 L 4.25 17.88 L 4.17 17.92 L 4.08 17.96 L 4.0 18.0 L 4.0 18.0 L 4.08 18.08 L 4.17 18.17 L 4.25 18.25 L 4.33 18.33 L 4.42 18.42 L 4.5 18.5 L 4.58 18.58 L 4.67 18.67 L 4.75 18.75 L 4.83 18.83 L 4.92 18.92 L 5.0 19.0 L 5.08 19.08 L 5.17 19.17 L 5.25 19.25 L 5.33 19.33 L 5.42 19.42 L 5.5 19.5 L 5.58 19.58 L 5.67 19.67 L 5.75 19.75 L 5.83 19.83 L 5.92 19.92 L 6.0 20.0 L 6.0 20.0 L 6.0 19.88 L 6.0 19.75 L 6.0 19.62 L 6.0 19.5 L 6.0 19.38 L 6.0 19.25 L 6.0 19.12 L 6.0 19.0 L 6.0 18.88 L 6.0 18.75 L 6.0 18.62 L 6.0 18.5 L 6.0 18.38 L 6.0 18.25 L 6.0 18.12 L 6.0 18.0 L 6.0 17.88 L 6.0 17.75 L 6.0 17.62 L 6.0 17.5 L 6.0 17.38 L 6.0 17.25 L 6.0 17.12 L 6.0 17.0" fill="none" stroke="#111" stroke-width="1.26" stroke-linecap="round" stroke-linejoin="round"/>
<path d="M 6.0 20.0 L 5.92 20.08 L 5.83 20.17 L 5.75 20.25 L 5.67 20.33 L 5.58 20.42 L 5.5 20.5 L 5.42 20.58 L 5.33 20.67 L 5.25 20.75 L 5.17 20.83 L 5.08 20.92 L 5.0 21.0 L 4.92 21.08 L 4.83 21.17 L 4.75 21.25 L 4.67 21.33 L 4.58 21.42 L 4.5 21.5 L 4.42 21.58 L 4.33 21.67 L 4.25 21.75 L 4.17 21.83 L 4.08 21.92 L 4.0 22.0" fill="none" stroke="#111" stroke-width="1.26" stroke-linecap="round" stroke-linejoin="round"/>
<path d="M 4.0 22.0 L 4.08 22.12 L 4.17 22.25 L 4.25 22.38 L 4.33 22.5 L 4.42 22.62 L 4.5 22.75 L 4.58 22.88 L 4.67 23.0 L 4.75 23.12 L 4.83 23.25 L 4.92 23.38 L 5.0 23.5 L 5.08 23.62 L 5.17 23.75 L 5.25 23.88 L 5.33 24.0 L 5.42 24.12 L 5.5 24.25 L 5.58 24.38 L 5.67 24.5 L 5.75 24.62 L 5.83 24.75 L 5.92 24.88 L 6.0 25.0" fill="none" stroke="#111" stroke-width="1.26" stroke-linecap="round" stroke-linejoin="round"/>
<path d="M 6.0 21.0 L 6.04 21.08 L 6.08 21.17 L 6.12 21.25 L 6.17 21.33 L 6.21 21.42 L 6.25 21.5 L 6.29 21.58 L 6.33 21.67 L 6.38 21.75 L 6.42 21.83 L 6.46 21.92 L 6.5 22.0 L 6.54 22.08 L 6.58 22.17 L 6.62 22.25 L 6.67 22.33 L 6.71 22.42 L 6.75 22.5 L 6.79 22.58 L 6.83 22.67 L 6.88 22.75 L 6.92 22.83 L 6.96 22.92 L 7.0 23.0" fill="none" stroke="#111" stroke-width="1.26" stroke-linecap="round" stroke-linejoin="round"/>
<path d="M 7.0 23.0 L 6.96 23.08 L 6.92 23.17 L 6.88 23.25 L 6.83 23.33 L 6.79 23.42 L 6.75 23.5 L 6.71 23.58 L 6.67 23.67 L 6.62 23.75 L 6.58 23.83 L 6.54 23.92 L 6.5 24.0 L 6.46 24.08 L 6.42 24.17 L 6.38 24.25 L 6.33 24.33 L 6.29 24.42 L 6.25 24.5 L 6.21 24.58 L 6.17 24.67 L 6.12 24.75 L 6.08 24.83 L 6.04 24.92 L 6.0 25.0" fill="none" stroke="#111" stroke-width="1.26" stroke-linecap="round" stroke-linejoin="round"/>
<path d="M 5.0 25.0 L 4.96 25.12 L 4.92 25.25 L 4.88 25.38 L 4.83 25.5 L 4.79 25.62 L 4.75 25.75 L 4.71 25.88 L 4.67 26.0 L 4.62 26.12 L 4.58 26.25 L 4.54 26.38 L 4.5 26.5 L 4.46 26.62 L 4.42 26.75 L 4.38 26.88 L 4.33 27.0 L 4.29 27.12 L 4.25 27.25 L 4.21 27.38 L 4.17 27.5 L 4.12 27.62 L 4.08 27.75 L 4.04 27.88 L 4.0 28.0" fill="none" stroke="#111" stroke-width="1.26" stroke-linecap="round" stroke-linejoin="round"/>
<path d="M 4.0 28.0 L 4.08 28.08 L 4.17 28.17 L 4.25 28.25 L 4.33 28.33 L 4.42 28.42 L 4.5 28.5 L 4.58 28.58 L 4.67 28.67 L 4.75 28.75 L 4.83 28.83 L 4.92 28.92 L 5.0 29.0 L 5.08 29.08 L 5.17 29.17 L 5.25 29.25 L 5.33 29.33 L 5.42 29.42 L 5.5 29.5 L 5.58 29.58 L 5.67 29.67 L 5.75 29.75 L 5.83 29.83 L 5.92 29.92 L 6.0 30.0" fill="none" stroke="#111" stroke-width="1.26" stroke-linecap="round" stroke-linejoin="round"/>
<path d="M 6.0 25.0 L 6.04 25.12 L 6.08 25.25 L 6.12 25.38 L 6.17 25.5 L 6.21 25.62 L 6.25 25.75 L 6.29 25.88 L 6.33 26.0 L 6.38 26.12 L 6.42 26.25 L 6.46 26.38 L 6.5 26.5 L 6.54 26.62 L 6.58 26.75 L 6.62 26.88 L 6.67 27.0 L 6.71 27.12 L 6.75 27.25 L 6.79 27.38 L 6.83 27.5 L 6.88 27.62 L 6.92 27.75 L 6.96 27.88 L 7.0 28.0" fill="none" stroke="#111" stroke-width="1.26" stroke-linecap="round" stroke-linejoin="round"/>
<path d="M 7.0 28.0 L 6.96 28.08 L 6.92 28.17 L 6.88 28.25 L 6.83 28.33 L 6.79 28.42 L 6.75 28.5 L 6.71 28.58 L 6.67 28.67 L 6.62 28.75 L 6.58 28.83 L 6.54 28.92 L 6.5 29.0 L 6.46 29.08 L 6.42 29.17 L 6.38 29.25 L 6.33 29.33 L 6.29 29.42 L 6.25 29.5 L 6.21 29.58 L 6.17 29.67 L 6.12 29.75 L 6.08 29.83 L 6.04 29.92 L 6.0 30.0" fill="none" stroke="#111" stroke-width="1.26" stroke-linecap="round" stroke-linejoin="round"/>
<path d="M 14.0 9.0 L 14.08 9.21 L 14.17 9.42 L 14.25 9.62 L 14.33 9.83 L 14.42 10.04 L 14.5 10.25 L 14.58 10.46 L 14.67 10.67 L 14.75 10.88 L 14.83 11.08 L 14.92 11.29 L 15.0 11.5 L 15.08 11.71 L 15.17 11.92 L 15.25 12.12 L 15.33 12.33 L 15.42 12.54 L 15.5 12.75 L 15.58 12.96 L 15.67 13.17 L 15.75 13.38 L 15.83 13.58 L 15.92 13.79 L 16.0 14.0" fill="none" stroke="#111" stroke-width="1.26" stroke-linecap="round" stroke-linejoin="round"/>
<path d="M 16.0 14.0 L 15.82 14.22 L 15.66 14.45 L 15.52 14.7 L 15.4 14.95 L 15.29 15.21 L 15.2 15.48 L 15.14 15.75 L 15.09 16.03 L 15.07 16.31 L 15.06 16.59 L 15.08 16.87 L 15.11 17.15 L 15.17 17.43 L 15.25 17.7 L 15.34 17.97 L 15.46 18.22 L 15.59 18.47 L 15.74 18.71 L 15.91 18.94 L 16.1 19.15 L 16.3 19.35 L 16.51 19.53 L 16.74 19.7 L 16.98 19.85 L 17.0 20.0 L 17.04 19.88 L 17.08 19.75 L 17.12 19.62 L 17.17 19.5 L 17.21 19.38 L 17.25 19.25 L 17.29 19.12 L 17.33 19.0 L 17.38 18.88 L 17.42 18.75 L 17.46 18.62 L 17.5 18.5 L 17.54 18.38 L 17.58 18.25 L 17.62 18.12 L 17.67 18.0 L 17.71 17.88 L 17.75 17.75 L 17.79 17.62 L 17.83 17.5 L 17.88 17.38 L 17.92 17.25 L 17.96 17.12 L 18.0 17.0 L 18.0 17.0 L 17.92 16.88 L 17.83 16.75 L 17.75 16.62 L 17.67 16.5 L 17.58 16.38 L 17.5 16.25 L 17.42 16.12 L 17.33 16.0 L 17.25 15.88 L 17.17 15.75 L 17.08 15.62 L 17.0 15.5 L 16.92 15.38 L 16.83 15.25 L 16.75 15.12 L 16.67 15.0 L 16.58 14.88 L 16.5 14.75 L 16.42 14.62 L 16.33 14.5 L 16.25 14.38 L 16.17 14.25 L 16.08 14.12 L 16.0 14.0" fill="none" stroke="#111" stroke-width="1.26" stroke-linecap="round" stroke-linejoin="round"/>
<path d="M 17.0 20.0 L 16.82 20.17 L 16.65 20.36 L 16.51 20.56 L 16.38 20.77 L 16.27 21.0 L 16.18 21.23 L 16.11 21.47 L 16.06 21.71 L 16.03 21.96 L 16.02 22.21 L 16.04 22.46 L 16.08 22.71 L 16.14 22.95 L 16.22 23.19 L 16.32 23.41 L 16.44 23.63 L 16.58 23.84 L 16.74 24.03 L 16.91 24.21 L 17.1 24.38 L 17.3 24.52 L 17.51 24.65 L 17.74 24.76 L 17.97 24.85 L 18.0 25.0 L 18.08 24.92 L 18.17 24.83 L 18.25 24.75 L 18.33 24.67 L 18.42 24.58 L 18.5 24.5 L 18.58 24.42 L 18.67 24.33 L 18.75 24.25 L 18.83 24.17 L 18.92 24.08 L 19.0 24.0 L 19.08 23.92 L 19.17 23.83 L 19.25 23.75 L 19.33 23.67 L 19.42 23.58 L 19.5 23.5 L 19.58 23.42 L 19.67 23.33 L 19.75 23.25 L 19.83 23.17 L 19.92 23.08 L 20.0 23.0 L 20.0 23.0 L 19.88 22.88 L 19.75 22.75 L 19.62 22.62 L 19.5 22.5 L 19.38 22.38 L 19.25 22.25 L 19.12 22.12 L 19.0 22.0 L 18.88 21.88 L 18.75 21.75 L 18.62 21.62 L 18.5 21.5 L 18.38 21.38 L 18.25 21.25 L 18.12 21.12 L 18.0 21.0 L 17.88 20.88 L 17.75 20.75 L 17.62 20.62 L 17.5 20.5 L 17.38 20.38 L 17.25 20.25 L 17.12 20.12 L 17.0 20.0" fill="none" stroke="#111" stroke-width="1.26" stroke-linecap="round" stroke-linejoin="round"/>
<path d="M 18.0 26.0 L 17.73 26.21 L 17.5 26.46 L 17.32 26.75 L 17.19 27.07 L 17.11 27.4 L 17.1 27.75 L 17.15 28.08 L 17.26 28.41 L 17.42 28.71 L 17.63 28.98 L 17.89 29.21 L 18.18 29.39 L 18.5 29.51 L 18.83 29.58 L 19.17 29.59 L 19.51 29.54 L 19.84 29.43 L 20.14 29.26 L 20.4 29.05 L 20.63 28.79 L 20.8 28.49 L 20.92 28.18 L 20.99 27.84 L 20.99 27.5 L 20.0 27.0 L 19.92 26.96 L 19.83 26.92 L 19.75 26.88 L 19.67 26.83 L 19.58 26.79 L 19.5 26.75 L 19.42 26.71 L 19.33 26.67 L 19.25 26.62 L 19.17 26.58 L 19.08 26.54 L 19.0 26.5 L 18.92 26.46 L 18.83 26.42 L 18.75 26.38 L 18.67 26.33 L 18.58 26.29 L 18.5 26.25 L 18.42 26.21 L 18.33 26.17 L 18.25 26.12 L 18.17 26.08 L 18.08 26.04 L 18.0 26.0" fill="none" stroke="#111" stroke-width="1.26" stroke-linecap="round" stroke-linejoin="round"/>
<path d="M 13.0 4.0 L 12.67 4.13 L 12.34 4.28 L 12.01 4.43 L 11.69 4.6 L 11.38 4.78 L 11.07 4.97 L 10.77 5.17 L 10.48 5.38 L 10.2 5.6 L 9.92 5.83 L 9.65 6.07 L 9.4 6.32 L 9.15 6.58 L 8.91 6.85 L 8.67 7.12 L 8.45 7.41 L 8.24 7.7 L 8.04 8.0 L 7.85 8.3 L 7.67 8.62 L 7.51 8.94 L 7.35 9.26 L 7.21 9.59 L 7.07 9.93" fill="none" stroke="#111" stroke-width="1.26" stroke-linecap="round" stroke-linejoin="round"/>
<path d="M 12.0 5.0 L 12.0 5.12 L 12.0 5.25 L 12.0 5.38 L 12.0 5.5 L 12.0 5.62 L 12.0 5.75 L 12.0 5.88 L 12.0 6.0 L 12.0 6.12 L 12.0 6.25 L 12.0 6.38 L 12.0 6.5 L 12.0 6.62 L 12.0 6.75 L 12.0 6.88 L 12.0 7.0 L 12.0 7.12 L 12.0 7.25 L 12.0 7.38 L 12.0 7.5 L 12.0 7.62 L 12.0 7.75 L 12.0 7.88 L 12.0 8.0" fill="none" stroke="#111" stroke-width="1.26" stroke-linecap="round" stroke-linejoin="round"/>
<path d="M 10.0 7.0 L 10.0 7.08 L 10.0 7.17 L 10.0 7.25 L 10.0 7.33 L 10.0 7.42 L 10.0 7.5 L 10.0 7.58 L 10.0 7.67 L 10.0 7.75 L 10.0 7.83 L 10.0 7.92 L 10.0 8.0 L 10.0 8.08 L 10.0 8.17 L 10.0 8.25 L 10.0 8.33 L 10.0 8.42 L 10.0 8.5 L 10.0 8.58 L 10.0 8.67 L 10.0 8.75 L 10.0 8.83 L 10.0 8.92 L 10.0 9.0" fill="none" stroke="#111" stroke-width="1.26" stroke-linecap="round" stroke-linejoin="round"/>
</svg>
