<?xml version="1.0" encoding="UTF-8"?>
<svg xmlns="http://www.w3.org/2000/svg" viewBox="0 0 21.58 38.44">
<path d="M 9.0 4.39 L 8.92 4.64 L 8.83 4.89 L 8.75 5.14 L 8.67 5.39 L 8.58 5.64 L 8.5 5.89 L 8.42 6.14 L 8.33 6.39 L 8.25 6.64 L 8.17 6.89 L 8.08 7.14 L 8.0 7.39 L 7.92 7.64 L 7.83 7.89 L 7.75 8.14 L 7.67 8.39 L 7.58 8.64 L 7.5 8.89 L 7.42 9.14 L 7.33 9.39 L 7.25 9.64 L 7.17 9.89 L 7.08 10.14 L 7.0 10.39 L 7.0 10.39 L 7.43 10.63 L 7.85 10.9 L 8.26 11.2 L 8.64 11.51 L 9.01 11.85 L 9.35 12.22 L 9.68 12.6 L 9.98 12.99 L 10.25 13.41 L 10.5 13.84 L 10.73 14.29 L 10.93 14.74 L 11.1 15.21 L 11.24 15.69 L 11.36 16.18 L 11.45 16.67 L 11.5 17.16 L 11.53 17.66 L 11.53 18.16 L 11.5 18.66 L 11.44 19.16 L 11.35 19.65 L 11.24 20.13 L 11.09 20.61 L 11.0 20.39 L 10.63 20.45 L 10.26 20.48 L 9.88 20.46 L 9.51 20.4 L 9.15 20.3 L 8.8 20.16 L 8.47 19.99 L 8.16 19.77 L 7.88 19.53 L 7.63 19.25 L 7.41 18.95 L 7.22 18.62 L 7.07 18.28 L 6.96 17.92 L 6.89 17.55 L 6.87 17.18 L 6.88 16.8 L 6.94 16.43 L 7.04 16.07 L 7.17 15.72 L 7.35 15.39 L 7.56 15.08 L 7.8 14.8 L 8.08 14.54 L 8.0 14.39 L 8.57 14.25 L 9.12 14.06 L 9.65 13.81 L 10.15 13.5 L 10.62 13.14 L 11.04 12.74 L 11.41 12.29 L 11.74 11.8 L 12.01 11.28 L 12.22 10.73 L 12.37 10.17 L 12.46 9.59 L 12.49 9.0 L 12.45 8.42 L 12.35 7.84 L 12.19 7.28 L 11.97 6.73 L 11.69 6.22 L 11.36 5.74 L 10.97 5.29 L 10.55 4.89 L 10.08 4.54 L 9.57 4.24 L 9.04 4.0" fill="none" stroke="#111" stroke-width="1.35" stroke-linecap="round" stroke-linejoin="round"/>
<path d="M 10.0 21.39 L 8.44 21.84 L 7.03 22.66 L 5.88 23.81 L 5.04 25.2 L 4.56 26.76 L 4.49 28.39 L 4.82 29.98 L 5.53 31.45 L 6.58 32.69 L 7.9 33.64 L 9.42 34.23 L 11.04 34.44 L 12.65 34.23 L 14.17 33.64 L 15.49 32.69 L 16.54 31.45 L 17.25 29.98 L 17.58 28.39 L 17.51 26.76 L 17.04 25.2 L 16.2 23.81 L 15.04 22.66 L 13.63 21.84 L 12.07 21.39" fill="none" stroke="#111" stroke-width="1.35" stroke-linecap="round" stroke-linejoin="round"/>
<path d="M 10.0 21.39 L 10.04 21.84 L 10.08 22.3 L 10.12 22.76 L 10.17 23.22 L 10.21 23.68 L 10.25 24.14 L 10.29 24.59 L 10.33 25.05 L 10.38 25.51 L 10.42 25.97 L 10.46 26.43 L 10.5 26.89 L 10.54 27.34 L 10.58 27.8 L 10.62 28.26 L 10.67 28.72 L 10.71 29.18 L 10.75 29.64 L 10.79 30.09 L 10.83 30.55 L 10.88 31.01 L 10.92 31.47 L 10.96 31.93 L 11.0 32.39" fill="none" stroke="#111" stroke-width="1.35" stroke-linecap="round" stroke-linejoin="round"/>
<path d="M 4.0 27.39 L 4.5 27.34 L 5.0 27.3 L 5.5 27.26 L 6.0 27.22 L 6.5 27.18 L 7.0 27.14 L 7.5 27.09 L 8.0 27.05 L 8.5 27.01 L 9.0 26.97 L 9.5 26.93 L 10.0 26.89 L 10.5 26.84 L 11.0 26.8 L 11.5 26.76 L 12.0 26.72 L 12.5 26.68 L 13.0 26.64 L 13.5 26.59 L 14.0 26.55 L 14.5 26.51 L 15.0 26.47 L 15.5 26.43 L 16.0 26.39" fill="none" stroke="#111" stroke-width="1.35" stroke-linecap="round" stroke-linejoin="round"/>
<path d="M 8.0 24.39 L 8.0 24.39 L 8.0 24.39 L 8.0 24.39 L 8.0 24.39 L 8.0 24.39 L 8.0 24.39 L 8.0 24.39 L 8.0 24.39 L 8.0 24.39 L 8.0 24.39 L 8.0 24.39 L 8.0 24.39 L 8.0 24.39 L 8.0 24.39 L 8.0 24.39 L 8.0 24.39 L 8.0 24.39 L 8.0 24.39 L 8.0 24.39 L 8.0 24.39 L 8.0 24.39 L 8.0 24.39 L 8.0 24.39 L 8.0 24.39" fill="none" stroke="#111" stroke-width="1.35" stroke-linecap="round" stroke-linejoin="round"/>
<path d="M 8.0 28.39 L 8.0 28.39 L 8.0 28.39 L 8.0 28.39 L 8.0 28.39 L 8.0 28.39 L 8.0 28.39 L 8.0 28.39 L 8.0 28.39 L 8.0 28.39 L 8.0 28.39 L 8.0 28.39 L 8.0 28.39 L 8.0 28.39 L 8.0 28.39 L 8.0 28.39 L 8.0 28.39 L 8.0 28.39 L 8.0 28.39 L 8.0 28.39 L 8.0 28.39 L 8.0 28.39 L 8.0 28.39 L 8.0 28.39 L 8.0 28.39" fill="none" stroke="#111" stroke-width="1.35" stroke-linecap="round" stroke-linejoin="round"/>
<path d="M 13.0 24.39 L 13.0 24.39 L 13.0 24.39 L 13.0 24.39 L 13.0 24.39 L 13.0 24.39 L 13.0 24.39 L 13.0 24.39 L 13.0 24.39 L 13.0 24.39 L 13.0 24.39 L 13.0 24.39 L 13.0 24.39 L 13.0 24.39 L 13.0 24.39 L 13.0 24.39 L 13.0 24.39 L 13.0 24.39 L 13.0 24.39 L 13.0 24.39 L 13.0 24.39 L 13.0 24.39 L 13.0 24.39 L 13.0 24.39 L 13.0 24.39" fill="none" stroke="#111" stroke-width="1.35" stroke-linecap="round" stroke-linejoin="round"/>
<path d="M 13.0 28.39 L 13.0 28.39 L 13.0 28.39 L 13.0 28.39 L 13.0 28.39 L 13.0 28.39 L 13.0 28.39 L 13.0 28.39 L 13.0 28.39 L 13.0 28.39 L 13.0 28.39 L 13.0 28.39 L 13.0 28.39 L 13.0 28.39 L 13.0 28.39 L 13.0 28.39 L 13.0 28.39 L 13.0 28.39 L 13.0 28.39 L 13.0 28.39 L 13.0 28.39 L 13.0 28.39 L 13.0 28.39 L 13.0 28.39 L 13.0 28.39" fill="none" stroke="#111" stroke-width="1.35" stroke-linecap="round" stroke-linejoin="round"/>
</svg>
