<?xml version="1.0" encoding="UTF-8"?>
<svg xmlns="http://www.w3.org/2000/svg" viewBox="0 0 25.00 34.76">
<path d="M 12.0 7.0 L 12.04 7.33 L 12.08 7.67 L 12.12 8.0 L 12.17 8.33 L 12.21 8.67 L 12.25 9.0 L 12.29 9.33 L 12.33 9.67 L 12.38 10.0 L 12.42 10.33 L 12.46 10.67 L 12.5 11.0 L 12.54 11.33 L 12.58 11.67 L 12.62 12.0 L 12.67 12.33 L 12.71 12.67 L 12.75 13.0 L 12.79 13.33 L 12.83 13.67 L 12.88 14.0 L 12.92 14.33 L 12.96 14.67 L 13.0 15.0 L 13.0 15.0 L 12.83 15.17 L 12.67 15.33 L 12.5 15.5 L 12.33 15.67 L 12.17 15.83 L 12.0 16.0 L 11.83 16.17 L 11.67 16.33 L 11.5 16.5 L 11.33 16.67 L 11.17 16.83 L 11.0 17.0 L 10.83 17.17 L 10.67 17.33 L 10.5 17.5 L 10.33 17.67 L 10.17 17.83 L 10.0 18.0 L 9.83 18.17 L 9.67 18.33 L 9.5 18.5 L 9.33 18.67 L 9.17 18.83 L 9.0 19.0" fill="none" stroke="#111" stroke-width="1.22" stroke-linecap="round" stroke-linejoin="round"/>
<path d="M 5.0 8.0 L 5.04 8.33 L 5.08 8.67 L 5.12 9.0 L 5.17 9.33 L 5.21 9.67 L 5.25 10.0 L 5.29 10.33 L 5.33 10.67 L 5.38 11.0 L 5.42 11.33 L 5.46 11.67 L 5.5 12.0 L 5.54 12.33 L 5.58 12.67 L 5.62 13.0 L 5.67 13.33 L 5.71 13.67 L 5.75 14.0 L 5.79 14.33 L 5.83 14.67 L 5.88 15.0 L 5.92 15.33 L 5.96 15.67 L 6.0 16.0 L 6.0 16.0 L 6.12 16.12 L 6.25 16.25 L 6.38 16.38 L 6.5 16.5 L 6.62 16.62 L 6.75 16.75 L 6.88 16.88 L 7.0 17.0 L 7.12 17.12 L 7.25 17.25 L 7.38 17.38 L 7.5 17.5 L 7.62 17.62 L 7.75 17.75 L 7.88 17.88 L 8.0 18.0 L 8.12 18.12 L 8.25 18.25 L 8.38 18.38 L 8.5 18.5 L 8.62 18.62 L 8.75 18.75 L 8.88 18.88 L 9.0 19.0" fill="none" stroke="#111" stroke-width="1.22" stroke-linecap="round" stroke-linejoin="round"/>
<path d="M 8.0 18.0 L 7.92 18.21 L 7.83 18.42 L 7.75 18.62 L 7.67 18.83 L 7.58 19.04 L 7.5 19.25 L 7.42 19.46 L 7.33 19.67 L 7.25 19.88 L 7.17 20.08 L 7.08 20.29 L 7.0 20.5 L 6.92 20.71 L 6.83 20.92 L 6.75 21.12 L 6.67 21.33 L 6.58 21.54 L 6.5 21.75 L 6.42 21.96 L 6.33 22.17 L 6.25 22.38 L 6.17 22.58 L 6.08 22.79 L 6.0 23.0" fill="none" stroke="#111" stroke-width="1.22" stroke-linecap="round" stroke-linejoin="round"/>
<path d="M 10.0 18.0 L 10.08 18.17 L 10.17 18.33 L 10.25 18.5 L 10.33 18.67 L 10.42 18.83 L 10.5 19.0 L 10.58 19.17 L 10.67 19.33 L 10.75 19.5 L 10.83 19.67 L 10.92 19.83 L 11.0 20.0 L 11.08 20.17 L 11.17 20.33 L 11.25 20.5 L 11.33 20.67 L 11.42 20.83 L 11.5 21.0 L 11.58 21.17 L 11.67 21.33 L 11.75 21.5 L 11.83 21.67 L 11.92 21.83 L 12.0 22.0" fill="none" stroke="#111" stroke-width="1.22" stroke-linecap="round" stroke-linejoin="round"/>
<path d="M 4.0 24.0 L 4.42 23.92 L 4.83 23.83 L 5.25 23.75 L 5.67 23.67 L 6.08 23.58 L 6.5 23.5 L 6.92 23.42 L 7.33 23.33 L 7.75 23.25 L 8.17 23.17 L 8.58 23.08 L 9.0 23.0 L 9.42 22.92 L 9.83 22.83 L 10.25 22.75 L 10.67 22.67 L 11.08 22.58 L 11.5 22.5 L 11.92 22.42 L 12.33 22.33 L 12.75 22.25 L 13.17 22.17 L 13.58 22.08 L 14.0 22.0" fill="none" stroke="#111" stroke-width="1.22" stroke-linecap="round" stroke-linejoin="round"/>
<path d="M 15.0 4.0 L 15.04 4.68 L 15.09 5.36 L 15.17 6.04 L 15.26 6.72 L 15.38 7.39 L 15.51 8.06 L 15.66 8.72 L 15.83 9.38 L 16.02 10.04 L 16.23 10.69 L 16.46 11.33 L 16.7 11.97 L 16.97 12.6 L 17.25 13.22 L 17.54 13.84 L 17.86 14.44 L 18.19 15.04 L 18.54 15.62 L 18.9 16.2 L 19.29 16.77 L 19.68 17.32 L 20.1 17.87 L 20.52 18.4 L 20.97 18.92 L 21.0 19.0 L 20.47 19.25 L 19.96 19.54 L 19.46 19.85 L 18.99 20.2 L 18.54 20.58 L 18.12 20.98 L 17.72 21.41 L 17.35 21.87 L 17.01 22.34 L 16.7 22.84 L 16.43 23.36 L 16.18 23.89 L 15.98 24.44 L 15.8 25.0 L 15.67 25.57 L 15.57 26.15 L 15.5 26.73 L 15.48 27.32 L 15.49 27.9 L 15.54 28.49 L 15.62 29.07 L 15.75 29.64 L 15.91 30.2 L 16.1 30.76" fill="none" stroke="#111" stroke-width="1.22" stroke-linecap="round" stroke-linejoin="round"/>
<path d="M 18.0 13.0 L 17.88 13.29 L 17.75 13.58 L 17.62 13.88 L 17.5 14.17 L 17.38 14.46 L 17.25 14.75 L 17.12 15.04 L 17.0 15.33 L 16.88 15.62 L 16.75 15.92 L 16.62 16.21 L 16.5 16.5 L 16.38 16.79 L 16.25 17.08 L 16.12 17.38 L 16.0 17.67 L 15.88 17.96 L 15.75 18.25 L 15.62 18.54 L 15.5 18.83 L 15.38 19.12 L 15.25 19.42 L 15.12 19.71 L 15.0 20.0" fill="none" stroke="#111" stroke-width="1.22" stroke-linecap="round" stroke-linejoin="round"/>
</svg>
