<?xml version="1.0" encoding="UTF-8"?>
<svg xmlns="http://www.w3.org/2000/svg" viewBox="0 0 25.81 27.47">
<path d="M 13.32 4.0 L 12.41 4.3 L 11.53 4.66 L 10.67 5.09 L 9.85 5.59 L 9.07 6.14 L 8.33 6.75 L 7.63 7.41 L 6.99 8.12 L 6.41 8.88 L 5.88 9.68 L 5.41 10.52 L 5.01 11.38 L 4.67 12.28 L 4.4 13.2 L 4.19 14.14 L 4.06 15.08 L 4.0 16.04 L 4.01 17.0 L 4.09 17.95 L 4.24 18.9 L 4.47 19.83 L 4.76 20.74 L 5.11 21.63 L 5.54 22.49" fill="none" stroke="#111" stroke-width="0.96" stroke-linecap="round" stroke-linejoin="round"/>
<path d="M 13.32 4.0 L 14.2 4.41 L 15.05 4.88 L 15.86 5.4 L 16.63 5.99 L 17.36 6.62 L 18.05 7.3 L 18.68 8.03 L 19.27 8.8 L 19.8 9.61 L 20.27 10.46 L 20.68 11.33 L 21.03 12.23 L 21.32 13.15 L 21.54 14.1 L 21.7 15.05 L 21.79 16.01 L 21.81 16.98 L 21.77 17.95 L 21.66 18.91 L 21.49 19.86 L 21.24 20.8 L 20.94 21.71 L 20.57 22.61 L 20.14 23.47" fill="none" stroke="#111" stroke-width="0.96" stroke-linecap="round" stroke-linejoin="round"/>
<path d="M 10.32 13.0 L 10.57 13.0 L 10.82 13.0 L 11.07 13.0 L 11.32 13.0 L 11.57 13.0 L 11.82 13.0 L 12.07 13.0 L 12.32 13.0 L 12.57 13.0 L 12.82 13.0 L 13.07 13.0 L 13.32 13.0 L 13.57 13.0 L 13.82 13.0 L 14.07 13.0 L 14.32 13.0 L 14.57 13.0 L 14.82 13.0 L 15.07 13.0 L 15.32 13.0 L 15.57 13.0 L 15.82 13.0 L 16.07 13.0 L 16.32 13.0" fill="none" stroke="#111" stroke-width="0.96" stroke-linecap="round" stroke-linejoin="round"/>
<path d="M 10.32 18.0 L 10.49 18.0 L 10.66 18.0 L 10.82 18.0 L 10.99 18.0 L 11.16 18.0 L 11.32 18.0 L 11.49 18.0 L 11.66 18.0 L 11.82 18.0 L 11.99 18.0 L 12.16 18.0 L 12.32 18.0 L 12.49 18.0 L 12.66 18.0 L 12.82 18.0 L 12.99 18.0 L 13.16 18.0 L 13.32 18.0 L 13.49 18.0 L 13.66 18.0 L 13.82 18.0 L 13.99 18.0 L 14.16 18.0 L 14.32 18.0" fill="none" stroke="#111" stroke-width="0.96" stroke-linecap="round" stroke-linejoin="round"/>
<path d="M 16.32 13.0 L 16.32 13.33 L 16.32 13.67 L 16.32 14.0 L 16.32 14.33 L 16.32 14.67 L 16.32 15.0 L 16.32 15.33 L 16.32 15.67 L 16.32 16.0 L 16.32 16.33 L 16.32 16.67 L 16.32 17.0 L 16.32 17.33 L 16.32 17.67 L 16.32 18.0 L 16.32 18.33 L 16.32 18.67 L 16.32 19.0 L 16.32 19.33 L 16.32 19.67 L 16.32 20.0 L 16.32 20.33 L 16.32 20.67 L 16.32 21.0 L 16.32 21.0 L 16.07 21.0 L 15.82 21.0 L 15.57 21.0 L 15.32 21.0 L 15.07 21.0 L 14.82 21.0 L 14.57 21.0 L 14.32 21.0 L 14.07 21.0 L 13.82 21.0 L 13.57 21.0 L 13.32 21.0 L 13.07 21.0 L 12.82 21.0 L 12.57 21.0 L 12.32 21.0 L 12.07 21.0 L 11.82 21.0 L 11.57 21.0 L 11.32 21.0 L 11.07 21.0 L 10.82 21.0 L 10.57 21.0 L 10.32 21.0 L 10.32 21.0 L 10.28 20.88 L 10.24 20.75 L 10.2 20.62 L 10.16 20.5 L 10.11 20.38 L 10.07 20.25 L 10.03 20.12 L 9.99 20.0 L 9.95 19.88 L 9.91 19.75 L 9.86 19.62 L 9.82 19.5 L 9.78 19.38 L 9.74 19.25 L 9.7 19.12 L 9.66 19.0 L 9.61 18.88 L 9.57 18.75 L 9.53 18.62 L 9.49 18.5 L 9.45 18.38 L 9.41 18.25 L 9.36 18.12 L 9.32 18.0" fill="none" stroke="#111" stroke-width="0.96" stroke-linecap="round" stroke-linejoin="round"/>
</svg>
