<?xml version="1.0" encoding="UTF-8"?>
<svg xmlns="http://www.w3.org/2000/svg" viewBox="0 0 21.00 36.17">
<path d="M 9.0 4.0 L 8.79 4.29 L 8.58 4.58 L 8.38 4.88 L 8.17 5.17 L 7.96 5.46 L 7.75 5.75 L 7.54 6.04 L 7.33 6.33 L 7.12 6.62 L 6.92 6.92 L 6.71 7.21 L 6.5 7.5 L 6.29 7.79 L 6.08 8.08 L 5.88 8.38 L 5.67 8.67 L 5.46 8.96 L 5.25 9.25 L 5.04 9.54 L 4.83 9.83 L 4.63 10.12 L 4.42 10.42 L 4.21 10.71 L 4.0 11.0" fill="none" stroke="#111" stroke-width="1.27" stroke-linecap="round" stroke-linejoin="round"/>
<path d="M 9.0 4.0 L 9.33 4.29 L 9.67 4.58 L 10.0 4.88 L 10.33 5.17 L 10.67 5.46 L 11.0 5.75 L 11.33 6.04 L 11.67 6.33 L 12.0 6.62 L 12.33 6.92 L 12.67 7.21 L 13.0 7.5 L 13.33 7.79 L 13.67 8.08 L 14.0 8.38 L 14.33 8.67 L 14.67 8.96 L 15.0 9.25 L 15.33 9.54 L 15.67 9.83 L 16.0 10.12 L 16.33 10.42 L 16.67 10.71 L 17.0 11.0" fill="none" stroke="#111" stroke-width="1.27" stroke-linecap="round" stroke-linejoin="round"/>
<path d="M 7.0 8.0 L 7.38 8.38 L 7.75 8.75 L 8.12 9.12 L 8.5 9.5 L 8.88 9.88 L 9.25 10.25 L 9.62 10.62 L 10.0 11.0 L 10.38 11.38 L 10.75 11.75 L 11.12 12.12 L 11.5 12.5 L 11.88 12.88 L 12.25 13.25 L 12.62 13.62 L 13.0 14.0 L 13.38 14.38 L 13.75 14.75 L 14.12 15.12 L 14.5 15.5 L 14.88 15.88 L 15.25 16.25 L 15.62 16.62 L 16.0 17.0" fill="none" stroke="#111" stroke-width="1.27" stroke-linecap="round" stroke-linejoin="round"/>
<path d="M 12.0 7.0 L 11.67 7.46 L 11.33 7.92 L 11.0 8.38 L 10.67 8.83 L 10.33 9.29 L 10.0 9.75 L 9.67 10.21 L 9.33 10.67 L 9.0 11.12 L 8.67 11.58 L 8.33 12.04 L 8.0 12.5 L 7.67 12.96 L 7.33 13.42 L 7.0 13.88 L 6.67 14.33 L 6.33 14.79 L 6.0 15.25 L 5.67 15.71 L 5.33 16.17 L 5.0 16.62 L 4.67 17.08 L 4.33 17.54 L 4.0 18.0" fill="none" stroke="#111" stroke-width="1.27" stroke-linecap="round" stroke-linejoin="round"/>
<path d="M 7.0 15.0 L 6.89 15.39 L 6.81 15.78 L 6.76 16.18 L 6.72 16.58 L 6.72 16.98 L 6.74 17.39 L 6.78 17.79 L 6.86 18.18 L 6.95 18.57 L 7.07 18.96 L 7.22 19.33 L 7.39 19.7 L 7.58 20.05 L 7.79 20.39 L 8.02 20.72 L 8.28 21.03 L 8.55 21.32 L 8.85 21.6 L 9.16 21.86 L 9.48 22.09 L 9.82 22.31 L 10.17 22.5 L 10.54 22.67 L 10.91 22.82 L 11.0 23.0 L 10.83 23.36 L 10.67 23.72 L 10.52 24.08 L 10.37 24.45 L 10.23 24.82 L 10.1 25.19 L 9.97 25.56 L 9.85 25.94 L 9.74 26.32 L 9.64 26.7 L 9.54 27.08 L 9.45 27.47 L 9.37 27.85 L 9.3 28.24 L 9.23 28.63 L 9.17 29.02 L 9.12 29.41 L 9.07 29.8 L 9.04 30.19 L 9.01 30.59 L 8.98 30.98 L 8.97 31.38 L 8.96 31.77 L 8.96 32.17" fill="none" stroke="#111" stroke-width="1.27" stroke-linecap="round" stroke-linejoin="round"/>
<path d="M 7.0 15.0 L 7.12 15.12 L 7.25 15.25 L 7.38 15.38 L 7.5 15.5 L 7.62 15.62 L 7.75 15.75 L 7.88 15.88 L 8.0 16.0 L 8.12 16.12 L 8.25 16.25 L 8.38 16.38 L 8.5 16.5 L 8.62 16.62 L 8.75 16.75 L 8.88 16.88 L 9.0 17.0 L 9.12 17.12 L 9.25 17.25 L 9.38 17.38 L 9.5 17.5 L 9.62 17.62 L 9.75 17.75 L 9.88 17.88 L 10.0 18.0 L 10.0 18.0 L 9.72 18.28 L 9.45 18.57 L 9.21 18.88 L 8.98 19.21 L 8.77 19.54 L 8.58 19.89 L 8.41 20.25 L 8.27 20.62 L 8.14 21.0 L 8.04 21.38 L 7.96 21.77 L 7.91 22.16 L 7.88 22.56 L 7.87 22.95 L 7.88 23.35 L 7.92 23.74 L 7.98 24.14 L 8.07 24.52 L 8.17 24.91 L 8.3 25.28 L 8.45 25.65 L 8.63 26.0 L 8.82 26.35 L 9.04 26.68" fill="none" stroke="#111" stroke-width="1.27" stroke-linecap="round" stroke-linejoin="round"/>
</svg>
