<?xml version="1.0" encoding="UTF-8"?>
<svg xmlns="http://www.w3.org/2000/svg" viewBox="0 0 27.00 35.01">
<path d="M 16.0 15.0 L 15.68 15.1 L 15.37 15.23 L 15.08 15.39 L 14.8 15.59 L 14.56 15.81 L 14.33 16.07 L 14.14 16.34 L 13.98 16.64 L 13.85 16.95 L 13.76 17.27 L 13.7 17.6 L 13.68 17.94 L 13.7 18.27 L 13.76 18.6 L 13.85 18.92 L 13.98 19.24 L 14.14 19.53 L 14.33 19.8 L 14.56 20.06 L 14.8 20.28 L 15.08 20.48 L 15.37 20.64 L 15.68 20.77 L 16.0 20.87 L 16.0 21.0 L 16.08 20.92 L 16.17 20.83 L 16.25 20.75 L 16.33 20.67 L 16.42 20.58 L 16.5 20.5 L 16.58 20.42 L 16.67 20.33 L 16.75 20.25 L 16.83 20.17 L 16.92 20.08 L 17.0 20.0 L 17.08 19.92 L 17.17 19.83 L 17.25 19.75 L 17.33 19.67 L 17.42 19.58 L 17.5 19.5 L 17.58 19.42 L 17.67 19.33 L 17.75 19.25 L 17.83 19.17 L 17.92 19.08 L 18.0 19.0 L 18.0 19.0 L 18.08 18.88 L 18.17 18.75 L 18.25 18.62 L 18.33 18.5 L 18.42 18.38 L 18.5 18.25 L 18.58 18.12 L 18.67 18.0 L 18.75 17.88 L 18.83 17.75 L 18.92 17.62 L 19.0 17.5 L 19.08 17.38 L 19.17 17.25 L 19.25 17.12 L 19.33 17.0 L 19.42 16.88 L 19.5 16.75 L 19.58 16.62 L 19.67 16.5 L 19.75 16.38 L 19.83 16.25 L 19.92 16.12 L 20.0 16.0 L 20.0 16.0 L 19.83 15.96 L 19.67 15.92 L 19.5 15.88 L 19.33 15.83 L 19.17 15.79 L 19.0 15.75 L 18.83 15.71 L 18.67 15.67 L 18.5 15.62 L 18.33 15.58 L 18.17 15.54 L 18.0 15.5 L 17.83 15.46 L 17.67 15.42 L 17.5 15.38 L 17.33 15.33 L 17.17 15.29 L 17.0 15.25 L 16.83 15.21 L 16.67 15.17 L 16.5 15.12 L 16.33 15.08 L 16.17 15.04 L 16.0 15.0" fill="none" stroke="#111" stroke-width="1.23" stroke-linecap="round" stroke-linejoin="round"/>
<path d="M 16.0 17.0 L 16.04 17.0 L 16.08 17.0 L 16.12 17.0 L 16.17 17.0 L 16.21 17.0 L 16.25 17.0 L 16.29 17.0 L 16.33 17.0 L 16.38 17.0 L 16.42 17.0 L 16.46 17.0 L 16.5 17.0 L 16.54 17.0 L 16.58 17.0 L 16.62 17.0 L 16.67 17.0 L 16.71 17.0 L 16.75 17.0 L 16.79 17.0 L 16.83 17.0 L 16.88 17.0 L 16.92 17.0 L 16.96 17.0 L 17.0 17.0" fill="none" stroke="#111" stroke-width="1.23" stroke-linecap="round" stroke-linejoin="round"/>
<path d="M 8.0 5.0 L 7.92 5.17 L 7.83 5.33 L 7.75 5.5 L 7.67 5.67 L 7.58 5.83 L 7.5 6.0 L 7.42 6.17 L 7.33 6.33 L 7.25 6.5 L 7.17 6.67 L 7.08 6.83 L 7.0 7.0 L 6.92 7.17 L 6.83 7.33 L 6.75 7.5 L 6.67 7.67 L 6.58 7.83 L 6.5 8.0 L 6.42 8.17 L 6.33 8.33 L 6.25 8.5 L 6.17 8.67 L 6.08 8.83 L 6.0 9.0" fill="none" stroke="#111" stroke-width="1.23" stroke-linecap="round" stroke-linejoin="round"/>
<path d="M 7.0 11.0 L 6.87 11.17 L 6.75 11.33 L 6.62 11.5 L 6.5 11.67 L 6.37 11.83 L 6.25 12.0 L 6.12 12.17 L 6.0 12.33 L 5.87 12.5 L 5.75 12.67 L 5.62 12.83 L 5.5 13.0 L 5.37 13.17 L 5.25 13.33 L 5.12 13.5 L 5.0 13.67 L 4.87 13.83 L 4.75 14.0 L 4.62 14.17 L 4.5 14.33 L 4.37 14.5 L 4.25 14.67 L 4.12 14.83 L 4.0 15.0" fill="none" stroke="#111" stroke-width="1.23" stroke-linecap="round" stroke-linejoin="round"/>
<path d="M 11.0 5.0 L 11.0 5.54 L 11.0 6.08 L 11.0 6.62 L 11.0 7.17 L 11.0 7.71 L 11.0 8.25 L 11.0 8.79 L 11.0 9.33 L 11.0 9.88 L 11.0 10.42 L 11.0 10.96 L 11.0 11.5 L 11.0 12.04 L 11.0 12.58 L 11.0 13.12 L 11.0 13.67 L 11.0 14.21 L 11.0 14.75 L 11.0 15.29 L 11.0 15.83 L 11.0 16.38 L 11.0 16.92 L 11.0 17.46 L 11.0 18.0" fill="none" stroke="#111" stroke-width="1.23" stroke-linecap="round" stroke-linejoin="round"/>
<path d="M 11.0 4.0 L 11.2 4.26 L 11.41 4.5 L 11.64 4.72 L 11.88 4.94 L 12.14 5.13 L 12.41 5.31 L 12.69 5.46 L 12.98 5.6 L 13.28 5.72 L 13.58 5.82 L 13.9 5.9 L 14.21 5.95 L 14.53 5.99 L 14.85 6.0 L 15.18 5.99 L 15.5 5.96 L 15.81 5.91 L 16.13 5.84 L 16.44 5.74 L 16.74 5.63 L 17.03 5.49 L 17.31 5.34 L 17.58 5.17 L 17.84 4.98 L 18.0 5.0 L 18.21 5.12 L 18.42 5.25 L 18.62 5.38 L 18.83 5.5 L 19.04 5.62 L 19.25 5.75 L 19.46 5.88 L 19.67 6.0 L 19.88 6.12 L 20.08 6.25 L 20.29 6.38 L 20.5 6.5 L 20.71 6.62 L 20.92 6.75 L 21.12 6.88 L 21.33 7.0 L 21.54 7.12 L 21.75 7.25 L 21.96 7.38 L 22.17 7.5 L 22.38 7.62 L 22.58 7.75 L 22.79 7.88 L 23.0 8.0" fill="none" stroke="#111" stroke-width="1.23" stroke-linecap="round" stroke-linejoin="round"/>
<path d="M 11.0 10.0 L 11.12 9.92 L 11.25 9.83 L 11.38 9.75 L 11.5 9.67 L 11.62 9.58 L 11.75 9.5 L 11.88 9.42 L 12.0 9.33 L 12.12 9.25 L 12.25 9.17 L 12.38 9.08 L 12.5 9.0 L 12.62 8.92 L 12.75 8.83 L 12.88 8.75 L 13.0 8.67 L 13.12 8.58 L 13.25 8.5 L 13.38 8.42 L 13.5 8.33 L 13.62 8.25 L 13.75 8.17 L 13.88 8.08 L 14.0 8.0" fill="none" stroke="#111" stroke-width="1.23" stroke-linecap="round" stroke-linejoin="round"/>
<path d="M 16.0 26.0 L 16.25 25.79 L 16.5 25.58 L 16.75 25.38 L 17.0 25.17 L 17.25 24.96 L 17.5 24.75 L 17.75 24.54 L 18.0 24.33 L 18.25 24.12 L 18.5 23.92 L 18.75 23.71 L 19.0 23.5 L 19.25 23.29 L 19.5 23.08 L 19.75 22.88 L 20.0 22.67 L 20.25 22.46 L 20.5 22.25 L 20.75 22.04 L 21.0 21.83 L 21.25 21.62 L 21.5 21.42 L 21.75 21.21 L 22.0 21.0" fill="none" stroke="#111" stroke-width="1.23" stroke-linecap="round" stroke-linejoin="round"/>
<path d="M 7.0 11.0 L 7.1 11.19 L 7.2 11.38 L 7.3 11.57 L 7.39 11.77 L 7.47 11.97 L 7.55 12.17 L 7.62 12.37 L 7.69 12.57 L 7.75 12.78 L 7.8 12.99 L 7.85 13.2 L 7.9 13.41 L 7.94 13.62 L 7.97 13.83 L 8.0 14.04 L 8.02 14.26 L 8.04 14.47 L 8.05 14.69 L 8.06 14.9 L 8.05 15.12 L 8.05 15.33 L 8.04 15.55 L 8.02 15.76 L 8.0 15.98 L 8.0 16.0 L 7.87 16.12 L 7.75 16.25 L 7.62 16.38 L 7.5 16.5 L 7.37 16.62 L 7.25 16.75 L 7.12 16.88 L 7.0 17.0 L 6.87 17.12 L 6.75 17.25 L 6.62 17.38 L 6.5 17.5 L 6.37 17.62 L 6.25 17.75 L 6.12 17.88 L 6.0 18.0 L 5.87 18.12 L 5.75 18.25 L 5.62 18.38 L 5.5 18.5 L 5.37 18.62 L 5.25 18.75 L 5.12 18.88 L 5.0 19.0" fill="none" stroke="#111" stroke-width="1.23" stroke-linecap="round" stroke-linejoin="round"/>
<path d="M 18.0 22.0 L 18.32 22.28 L 18.63 22.58 L 18.91 22.9 L 19.16 23.25 L 19.39 23.61 L 19.59 23.99 L 19.76 24.38 L 19.9 24.78 L 20.01 25.19 L 20.09 25.61 L 20.14 26.04 L 20.15 26.46 L 20.14 26.89 L 20.09 27.32 L 20.01 27.74 L 19.9 28.15 L 19.76 28.55 L 19.59 28.94 L 19.39 29.32 L 19.16 29.68 L 18.91 30.02 L 18.63 30.35 L 18.32 30.65 L 18.0 30.93" fill="none" stroke="#111" stroke-width="1.23" stroke-linecap="round" stroke-linejoin="round"/>
<path d="M 15.0 24.0 L 15.11 24.3 L 15.21 24.6 L 15.32 24.9 L 15.43 25.2 L 15.54 25.49 L 15.66 25.79 L 15.77 26.09 L 15.89 26.38 L 16.01 26.68 L 16.13 26.97 L 16.25 27.27 L 16.38 27.56 L 16.5 27.85 L 16.63 28.14 L 16.76 28.43 L 16.89 28.72 L 17.03 29.01 L 17.16 29.3 L 17.3 29.59 L 17.44 29.87 L 17.58 30.16 L 17.72 30.44 L 17.86 30.73 L 18.0 31.01" fill="none" stroke="#111" stroke-width="1.23" stroke-linecap="round" stroke-linejoin="round"/>
</svg>
