<?xml version="1.0" encoding="UTF-8"?>
<svg xmlns="http://www.w3.org/2000/svg" viewBox="0 0 28.39 35.00">
<path d="M 4.73 7.0 L 4.5 7.58 L 4.31 8.17 L 4.16 8.77 L 4.06 9.38 L 4.01 10.0 L 4.0 10.62 L 4.04 11.24 L 4.12 11.85 L 4.25 12.46 L 4.42 13.06 L 4.63 13.64 L 4.89 14.2 L 5.19 14.75 L 5.52 15.27 L 5.9 15.76 L 6.31 16.23 L 6.75 16.66 L 7.22 17.06 L 7.72 17.43 L 8.25 17.75 L 8.8 18.04 L 9.37 18.29 L 9.95 18.49 L 10.55 18.65 L 10.73 19.0 L 11.32 18.93 L 11.9 18.8 L 12.47 18.63 L 13.02 18.4 L 13.55 18.13 L 14.05 17.81 L 14.52 17.45 L 14.96 17.04 L 15.36 16.6 L 15.72 16.13 L 16.03 15.62 L 16.3 15.09 L 16.52 14.54 L 16.7 13.97 L 16.82 13.39 L 16.89 12.8 L 16.9 12.21 L 16.87 11.61 L 16.78 11.02 L 16.63 10.45 L 16.44 9.88 L 16.2 9.34 L 15.91 8.82 L 15.58 8.33" fill="none" stroke="#111" stroke-width="1.23" stroke-linecap="round" stroke-linejoin="round"/>
<path d="M 4.73 10.0 L 4.89 10.12 L 5.06 10.25 L 5.23 10.38 L 5.39 10.5 L 5.56 10.62 L 5.73 10.75 L 5.89 10.88 L 6.06 11.0 L 6.23 11.12 L 6.39 11.25 L 6.56 11.38 L 6.73 11.5 L 6.89 11.62 L 7.06 11.75 L 7.23 11.88 L 7.39 12.0 L 7.56 12.12 L 7.73 12.25 L 7.89 12.38 L 8.06 12.5 L 8.23 12.62 L 8.39 12.75 L 8.56 12.88 L 8.73 13.0" fill="none" stroke="#111" stroke-width="1.23" stroke-linecap="round" stroke-linejoin="round"/>
<path d="M 11.73 6.0 L 11.6 6.38 L 11.48 6.75 L 11.35 7.12 L 11.23 7.5 L 11.1 7.88 L 10.98 8.25 L 10.85 8.62 L 10.73 9.0 L 10.6 9.38 L 10.48 9.75 L 10.35 10.12 L 10.23 10.5 L 10.1 10.88 L 9.98 11.25 L 9.85 11.62 L 9.73 12.0 L 9.6 12.38 L 9.48 12.75 L 9.35 13.12 L 9.23 13.5 L 9.1 13.88 L 8.98 14.25 L 8.85 14.62 L 8.73 15.0" fill="none" stroke="#111" stroke-width="1.23" stroke-linecap="round" stroke-linejoin="round"/>
<path d="M 10.73 6.0 L 10.81 6.42 L 10.89 6.83 L 10.98 7.25 L 11.06 7.67 L 11.14 8.08 L 11.23 8.5 L 11.31 8.92 L 11.39 9.33 L 11.48 9.75 L 11.56 10.17 L 11.64 10.58 L 11.73 11.0 L 11.81 11.42 L 11.89 11.83 L 11.98 12.25 L 12.06 12.67 L 12.14 13.08 L 12.23 13.5 L 12.31 13.92 L 12.39 14.33 L 12.48 14.75 L 12.56 15.17 L 12.64 15.58 L 12.73 16.0" fill="none" stroke="#111" stroke-width="1.23" stroke-linecap="round" stroke-linejoin="round"/>
<path d="M 12.73 12.0 L 12.85 11.88 L 12.98 11.75 L 13.1 11.62 L 13.23 11.5 L 13.35 11.38 L 13.48 11.25 L 13.6 11.12 L 13.73 11.0 L 13.85 10.88 L 13.98 10.75 L 14.1 10.62 L 14.23 10.5 L 14.35 10.38 L 14.48 10.25 L 14.6 10.12 L 14.73 10.0 L 14.85 9.88 L 14.98 9.75 L 15.1 9.62 L 15.23 9.5 L 15.35 9.38 L 15.48 9.25 L 15.6 9.12 L 15.73 9.0" fill="none" stroke="#111" stroke-width="1.23" stroke-linecap="round" stroke-linejoin="round"/>
<path d="M 18.73 4.0 L 18.73 5.04 L 18.73 6.08 L 18.73 7.12 L 18.73 8.17 L 18.73 9.21 L 18.73 10.25 L 18.73 11.29 L 18.73 12.33 L 18.73 13.38 L 18.73 14.42 L 18.73 15.46 L 18.73 16.5 L 18.73 17.54 L 18.73 18.58 L 18.73 19.62 L 18.73 20.67 L 18.73 21.71 L 18.73 22.75 L 18.73 23.79 L 18.73 24.83 L 18.73 25.88 L 18.73 26.92 L 18.73 27.96 L 18.73 29.0" fill="none" stroke="#111" stroke-width="1.23" stroke-linecap="round" stroke-linejoin="round"/>
<path d="M 16.73 30.0 L 16.89 30.04 L 17.06 30.08 L 17.23 30.12 L 17.39 30.17 L 17.56 30.21 L 17.73 30.25 L 17.89 30.29 L 18.06 30.33 L 18.23 30.38 L 18.39 30.42 L 18.56 30.46 L 18.73 30.5 L 18.89 30.54 L 19.06 30.58 L 19.23 30.62 L 19.39 30.67 L 19.56 30.71 L 19.73 30.75 L 19.89 30.79 L 20.06 30.83 L 20.23 30.88 L 20.39 30.92 L 20.56 30.96 L 20.73 31.0" fill="none" stroke="#111" stroke-width="1.23" stroke-linecap="round" stroke-linejoin="round"/>
<path d="M 19.73 4.0 L 20.43 4.33 L 21.1 4.72 L 21.73 5.19 L 22.3 5.72 L 22.81 6.3 L 23.26 6.94 L 23.64 7.62 L 23.94 8.34 L 24.17 9.08 L 24.32 9.85 L 24.39 10.62 L 24.37 11.4 L 24.28 12.17 L 24.1 12.93 L 23.84 13.67 L 23.51 14.37 L 23.11 15.04 L 22.64 15.66 L 22.1 16.22 L 21.51 16.73 L 20.87 17.17 L 20.19 17.55 L 19.47 17.84 L 18.72 18.07" fill="none" stroke="#111" stroke-width="1.23" stroke-linecap="round" stroke-linejoin="round"/>
</svg>
