<?xml version="1.0" encoding="UTF-8"?>
<svg xmlns="http://www.w3.org/2000/svg" viewBox="0 0 24.92 37.00">
<path d="M 5.92 7.0 L 6.54 7.08 L 7.17 7.17 L 7.79 7.25 L 8.42 7.33 L 9.04 7.42 L 9.67 7.5 L 10.29 7.58 L 10.92 7.67 L 11.54 7.75 L 12.17 7.83 L 12.79 7.92 L 13.42 8.0 L 14.04 8.08 L 14.67 8.17 L 15.29 8.25 L 15.92 8.33 L 16.54 8.42 L 17.17 8.5 L 17.79 8.58 L 18.42 8.67 L 19.04 8.75 L 19.67 8.83 L 20.29 8.92 L 20.92 9.0" fill="none" stroke="#111" stroke-width="1.30" stroke-linecap="round" stroke-linejoin="round"/>
<path d="M 10.92 4.0 L 12.02 4.81 L 13.05 5.7 L 14.0 6.67 L 14.88 7.72 L 15.68 8.82 L 16.38 9.99 L 17.0 11.21 L 17.51 12.47 L 17.92 13.77 L 18.24 15.1 L 18.44 16.45 L 18.54 17.81 L 18.54 19.17 L 18.42 20.53 L 18.2 21.88 L 17.88 23.2 L 17.45 24.5 L 16.93 25.75 L 16.3 26.97 L 15.59 28.13 L 14.78 29.23 L 13.89 30.26 L 12.93 31.22 L 11.89 32.11 L 11.92 33.0 L 11.11 32.75 L 10.32 32.43 L 9.57 32.06 L 8.84 31.62 L 8.15 31.13 L 7.5 30.59 L 6.9 30.0 L 6.34 29.36 L 5.84 28.67 L 5.39 27.96 L 5.0 27.2 L 4.67 26.42 L 4.41 25.62 L 4.21 24.8 L 4.07 23.96 L 4.0 23.12 L 4.0 22.27 L 4.06 21.43 L 4.2 20.59 L 4.39 19.77 L 4.65 18.96 L 4.98 18.18 L 5.36 17.43 L 5.81 16.71 L 5.92 17.0 L 6.45 16.99 L 6.97 17.03 L 7.49 17.14 L 7.99 17.3 L 8.47 17.51 L 8.93 17.78 L 9.35 18.09 L 9.74 18.45 L 10.08 18.85 L 10.38 19.29 L 10.62 19.76 L 10.82 20.25 L 10.96 20.75 L 11.04 21.28 L 11.06 21.8 L 11.03 22.33 L 10.94 22.85 L 10.79 23.35 L 10.58 23.84 L 10.33 24.3 L 10.02 24.73 L 9.67 25.12 L 9.28 25.48 L 8.85 25.78" fill="none" stroke="#111" stroke-width="1.30" stroke-linecap="round" stroke-linejoin="round"/>
</svg>
