<?xml version="1.0" encoding="UTF-8"?>
<svg xmlns="http://www.w3.org/2000/svg" viewBox="0 0 19.14 37.00">
<path d="M 10.0 9.0 L 10.12 9.5 L 10.25 10.0 L 10.38 10.5 L 10.5 11.0 L 10.62 11.5 L 10.75 12.0 L 10.88 12.5 L 11.0 13.0 L 11.12 13.5 L 11.25 14.0 L 11.38 14.5 L 11.5 15.0 L 11.62 15.5 L 11.75 16.0 L 11.88 16.5 L 12.0 17.0 L 12.12 17.5 L 12.25 18.0 L 12.38 18.5 L 12.5 19.0 L 12.62 19.5 L 12.75 20.0 L 12.87 20.5 L 13.0 21.0" fill="none" stroke="#111" stroke-width="1.30" stroke-linecap="round" stroke-linejoin="round"/>
<path d="M 13.0 21.0 L 12.79 21.17 L 12.58 21.33 L 12.38 21.5 L 12.17 21.67 L 11.96 21.83 L 11.75 22.0 L 11.54 22.17 L 11.33 22.33 L 11.12 22.5 L 10.92 22.67 L 10.71 22.83 L 10.5 23.0 L 10.29 23.17 L 10.08 23.33 L 9.88 23.5 L 9.67 23.67 L 9.46 23.83 L 9.25 24.0 L 9.04 24.17 L 8.83 24.33 L 8.62 24.5 L 8.42 24.67 L 8.21 24.83 L 8.0 25.0" fill="none" stroke="#111" stroke-width="1.30" stroke-linecap="round" stroke-linejoin="round"/>
<path d="M 8.0 25.0 L 8.0 25.12 L 8.0 25.25 L 8.0 25.38 L 8.0 25.5 L 8.0 25.62 L 8.0 25.75 L 8.0 25.88 L 8.0 26.0 L 8.0 26.12 L 8.0 26.25 L 8.0 26.38 L 8.0 26.5 L 8.0 26.62 L 8.0 26.75 L 8.0 26.88 L 8.0 27.0 L 8.0 27.12 L 8.0 27.25 L 8.0 27.38 L 8.0 27.5 L 8.0 27.62 L 8.0 27.75 L 8.0 27.88 L 8.0 28.0" fill="none" stroke="#111" stroke-width="1.30" stroke-linecap="round" stroke-linejoin="round"/>
<path d="M 8.0 28.0 L 8.21 27.92 L 8.42 27.83 L 8.62 27.75 L 8.83 27.67 L 9.04 27.58 L 9.25 27.5 L 9.46 27.42 L 9.67 27.33 L 9.88 27.25 L 10.08 27.17 L 10.29 27.08 L 10.5 27.0 L 10.71 26.92 L 10.92 26.83 L 11.12 26.75 L 11.33 26.67 L 11.54 26.58 L 11.75 26.5 L 11.96 26.42 L 12.17 26.33 L 12.38 26.25 L 12.58 26.17 L 12.79 26.08 L 13.0 26.0" fill="none" stroke="#111" stroke-width="1.30" stroke-linecap="round" stroke-linejoin="round"/>
<path d="M 13.0 26.0 L 12.92 26.29 L 12.83 26.58 L 12.75 26.88 L 12.67 27.17 L 12.58 27.46 L 12.5 27.75 L 12.42 28.04 L 12.33 28.33 L 12.25 28.62 L 12.17 28.92 L 12.08 29.21 L 12.0 29.5 L 11.92 29.79 L 11.83 30.08 L 11.75 30.38 L 11.67 30.67 L 11.58 30.96 L 11.5 31.25 L 11.42 31.54 L 11.33 31.83 L 11.25 32.12 L 11.17 32.42 L 11.08 32.71 L 11.0 33.0" fill="none" stroke="#111" stroke-width="1.30" stroke-linecap="round" stroke-linejoin="round"/>
<path d="M 9.0 21.0 L 8.7 20.47 L 8.45 19.91 L 8.25 19.33 L 8.1 18.74 L 8.0 18.13 L 7.96 17.52 L 7.97 16.91 L 8.04 16.3 L 8.15 15.7 L 8.32 15.11 L 8.54 14.54 L 8.81 13.99 L 9.13 13.47 L 9.49 12.98 L 9.89 12.52 L 10.33 12.09 L 10.81 11.71 L 11.32 11.37 L 11.85 11.08 L 12.41 10.83 L 12.99 10.63 L 13.59 10.49 L 14.19 10.4 L 14.8 10.36" fill="none" stroke="#111" stroke-width="1.30" stroke-linecap="round" stroke-linejoin="round"/>
<path d="M 15.0 10.0 L 15.09 10.57 L 15.14 11.14 L 15.13 11.72 L 15.07 12.3 L 14.97 12.86 L 14.81 13.42 L 14.6 13.96 L 14.35 14.48 L 14.06 14.97 L 13.72 15.44 L 13.34 15.88 L 12.93 16.28 L 12.48 16.64 L 12.0 16.96 L 11.5 17.25 L 10.97 17.48 L 10.43 17.67 L 9.87 17.81 L 9.3 17.9 L 8.72 17.94 L 8.15 17.93 L 7.57 17.87 L 7.01 17.76 L 6.45 17.6" fill="none" stroke="#111" stroke-width="1.30" stroke-linecap="round" stroke-linejoin="round"/>
<path d="M 4.0 4.0 L 4.29 4.34 L 4.56 4.7 L 4.81 5.07 L 5.04 5.46 L 5.24 5.86 L 5.42 6.27 L 5.57 6.7 L 5.69 7.13 L 5.79 7.56 L 5.85 8.01 L 5.9 8.45 L 5.91 8.9 L 5.9 9.35 L 5.85 9.8 L 5.79 10.24 L 5.69 10.68 L 5.57 11.11 L 5.42 11.53 L 5.24 11.95 L 5.04 12.35 L 4.81 12.74 L 4.56 13.11 L 4.29 13.47 L 4.0 13.81 L 4.0 14.0 L 4.0 14.25 L 4.0 14.5 L 4.0 14.75 L 4.0 15.0 L 4.0 15.25 L 4.0 15.5 L 4.0 15.75 L 4.0 16.0 L 4.0 16.25 L 4.0 16.5 L 4.0 16.75 L 4.0 17.0 L 4.0 17.25 L 4.0 17.5 L 4.0 17.75 L 4.0 18.0 L 4.0 18.25 L 4.0 18.5 L 4.0 18.75 L 4.0 19.0 L 4.0 19.25 L 4.0 19.5 L 4.0 19.75 L 4.0 20.0" fill="none" stroke="#111" stroke-width="1.30" stroke-linecap="round" stroke-linejoin="round"/>
<path d="M 6.0 9.0 L 6.08 9.08 L 6.17 9.17 L 6.25 9.25 L 6.33 9.33 L 6.42 9.42 L 6.5 9.5 L 6.58 9.58 L 6.67 9.67 L 6.75 9.75 L 6.83 9.83 L 6.92 9.92 L 7.0 10.0 L 7.08 10.08 L 7.17 10.17 L 7.25 10.25 L 7.33 10.33 L 7.42 10.42 L 7.5 10.5 L 7.58 10.58 L 7.67 10.67 L 7.75 10.75 L 7.83 10.83 L 7.92 10.92 L 8.0 11.0" fill="none" stroke="#111" stroke-width="1.30" stroke-linecap="round" stroke-linejoin="round"/>
<path d="M 4.0 14.0 L 4.08 14.04 L 4.17 14.08 L 4.25 14.12 L 4.33 14.17 L 4.42 14.21 L 4.5 14.25 L 4.58 14.29 L 4.67 14.33 L 4.75 14.38 L 4.83 14.42 L 4.92 14.46 L 5.0 14.5 L 5.08 14.54 L 5.17 14.58 L 5.25 14.62 L 5.33 14.67 L 5.42 14.71 L 5.5 14.75 L 5.58 14.79 L 5.67 14.83 L 5.75 14.88 L 5.83 14.92 L 5.92 14.96 L 6.0 15.0" fill="none" stroke="#111" stroke-width="1.30" stroke-linecap="round" stroke-linejoin="round"/>
</svg>
