<?xml version="1.0" encoding="UTF-8"?>
<svg xmlns="http://www.w3.org/2000/svg" viewBox="0 0 27.00 34.91">
<path d="M 12.0 5.0 L 12.0 6.04 L 12.0 7.08 L 12.0 8.12 L 12.0 9.17 L 12.0 10.21 L 12.0 11.25 L 12.0 12.29 L 12.0 13.33 L 12.0 14.38 L 12.0 15.42 L 12.0 16.46 L 12.0 17.5 L 12.0 18.54 L 12.0 19.58 L 12.0 20.62 L 12.0 21.67 L 12.0 22.71 L 12.0 23.75 L 12.0 24.79 L 12.0 25.83 L 12.0 26.88 L 12.0 27.92 L 12.0 28.96 L 12.0 30.0" fill="none" stroke="#111" stroke-width="1.22" stroke-linecap="round" stroke-linejoin="round"/>
<path d="M 8.0 4.0 L 7.74 4.4 L 7.51 4.82 L 7.32 5.26 L 7.17 5.71 L 7.06 6.18 L 6.99 6.65 L 6.96 7.13 L 6.98 7.61 L 7.03 8.08 L 7.13 8.55 L 7.26 9.01 L 7.44 9.45 L 7.65 9.88 L 7.9 10.29 L 8.18 10.67 L 8.5 11.03 L 8.85 11.36 L 9.22 11.66 L 9.62 11.92 L 10.03 12.15 L 10.47 12.35 L 10.92 12.5 L 11.39 12.61 L 11.86 12.69" fill="none" stroke="#111" stroke-width="1.22" stroke-linecap="round" stroke-linejoin="round"/>
<path d="M 11.0 7.0 L 10.83 7.17 L 10.67 7.33 L 10.5 7.5 L 10.33 7.67 L 10.17 7.83 L 10.0 8.0 L 9.83 8.17 L 9.67 8.33 L 9.5 8.5 L 9.33 8.67 L 9.17 8.83 L 9.0 9.0 L 8.83 9.17 L 8.67 9.33 L 8.5 9.5 L 8.33 9.67 L 8.17 9.83 L 8.0 10.0 L 7.83 10.17 L 7.67 10.33 L 7.5 10.5 L 7.33 10.67 L 7.17 10.83 L 7.0 11.0 L 7.0 11.0 L 7.2 11.27 L 7.38 11.56 L 7.53 11.87 L 7.65 12.19 L 7.73 12.52 L 7.79 12.85 L 7.81 13.19 L 7.8 13.53 L 7.76 13.87 L 7.68 14.2 L 7.57 14.52 L 7.44 14.83 L 7.27 15.13 L 7.08 15.41 L 6.86 15.67 L 6.61 15.9 L 6.35 16.12 L 6.06 16.3 L 5.76 16.46 L 5.45 16.59 L 5.12 16.69 L 4.79 16.75 L 4.45 16.78 L 4.11 16.78" fill="none" stroke="#111" stroke-width="1.22" stroke-linecap="round" stroke-linejoin="round"/>
<path d="M 4.0 17.0 L 4.17 17.08 L 4.33 17.17 L 4.5 17.25 L 4.67 17.33 L 4.83 17.42 L 5.0 17.5 L 5.17 17.58 L 5.33 17.67 L 5.5 17.75 L 5.67 17.83 L 5.83 17.92 L 6.0 18.0 L 6.17 18.08 L 6.33 18.17 L 6.5 18.25 L 6.67 18.33 L 6.83 18.42 L 7.0 18.5 L 7.17 18.58 L 7.33 18.67 L 7.5 18.75 L 7.67 18.83 L 7.83 18.92 L 8.0 19.0 L 8.0 19.0 L 7.87 19.5 L 7.75 20.01 L 7.66 20.52 L 7.58 21.03 L 7.53 21.55 L 7.49 22.07 L 7.47 22.59 L 7.47 23.11 L 7.49 23.63 L 7.52 24.15 L 7.58 24.66 L 7.66 25.18 L 7.75 25.69 L 7.87 26.19 L 8.0 26.7 L 8.15 27.19 L 8.32 27.69 L 8.5 28.17 L 8.71 28.65 L 8.93 29.12 L 9.17 29.58 L 9.42 30.03 L 9.7 30.48 L 9.98 30.91" fill="none" stroke="#111" stroke-width="1.22" stroke-linecap="round" stroke-linejoin="round"/>
<path d="M 8.0 24.0 L 8.12 24.08 L 8.25 24.17 L 8.38 24.25 L 8.5 24.33 L 8.62 24.42 L 8.75 24.5 L 8.88 24.58 L 9.0 24.67 L 9.12 24.75 L 9.25 24.83 L 9.38 24.92 L 9.5 25.0 L 9.62 25.08 L 9.75 25.17 L 9.88 25.25 L 10.0 25.33 L 10.12 25.42 L 10.25 25.5 L 10.38 25.58 L 10.5 25.67 L 10.62 25.75 L 10.75 25.83 L 10.88 25.92 L 11.0 26.0" fill="none" stroke="#111" stroke-width="1.22" stroke-linecap="round" stroke-linejoin="round"/>
<path d="M 4.0 14.0 L 4.04 14.29 L 4.08 14.58 L 4.12 14.88 L 4.17 15.17 L 4.21 15.46 L 4.25 15.75 L 4.29 16.04 L 4.33 16.33 L 4.38 16.62 L 4.42 16.92 L 4.46 17.21 L 4.5 17.5 L 4.54 17.79 L 4.58 18.08 L 4.62 18.38 L 4.67 18.67 L 4.71 18.96 L 4.75 19.25 L 4.79 19.54 L 4.83 19.83 L 4.88 20.12 L 4.92 20.42 L 4.96 20.71 L 5.0 21.0" fill="none" stroke="#111" stroke-width="1.22" stroke-linecap="round" stroke-linejoin="round"/>
<path d="M 15.0 7.0 L 15.33 6.96 L 15.67 6.92 L 16.0 6.88 L 16.33 6.83 L 16.67 6.79 L 17.0 6.75 L 17.33 6.71 L 17.67 6.67 L 18.0 6.62 L 18.33 6.58 L 18.67 6.54 L 19.0 6.5 L 19.33 6.46 L 19.67 6.42 L 20.0 6.38 L 20.33 6.33 L 20.67 6.29 L 21.0 6.25 L 21.33 6.21 L 21.67 6.17 L 22.0 6.12 L 22.33 6.08 L 22.67 6.04 L 23.0 6.0" fill="none" stroke="#111" stroke-width="1.22" stroke-linecap="round" stroke-linejoin="round"/>
<path d="M 16.0 8.0 L 16.08 8.21 L 16.17 8.42 L 16.25 8.62 L 16.33 8.83 L 16.42 9.04 L 16.5 9.25 L 16.58 9.46 L 16.67 9.67 L 16.75 9.88 L 16.83 10.08 L 16.92 10.29 L 17.0 10.5 L 17.08 10.71 L 17.17 10.92 L 17.25 11.12 L 17.33 11.33 L 17.42 11.54 L 17.5 11.75 L 17.58 11.96 L 17.67 12.17 L 17.75 12.38 L 17.83 12.58 L 17.92 12.79 L 18.0 13.0 L 18.0 13.0 L 18.12 12.75 L 18.25 12.5 L 18.38 12.25 L 18.5 12.0 L 18.62 11.75 L 18.75 11.5 L 18.88 11.25 L 19.0 11.0 L 19.12 10.75 L 19.25 10.5 L 19.38 10.25 L 19.5 10.0 L 19.62 9.75 L 19.75 9.5 L 19.88 9.25 L 20.0 9.0 L 20.12 8.75 L 20.25 8.5 L 20.38 8.25 L 20.5 8.0 L 20.62 7.75 L 20.75 7.5 L 20.88 7.25 L 21.0 7.0" fill="none" stroke="#111" stroke-width="1.22" stroke-linecap="round" stroke-linejoin="round"/>
<path d="M 14.0 13.0 L 14.33 13.0 L 14.67 13.0 L 15.0 13.0 L 15.33 13.0 L 15.67 13.0 L 16.0 13.0 L 16.33 13.0 L 16.67 13.0 L 17.0 13.0 L 17.33 13.0 L 17.67 13.0 L 18.0 13.0 L 18.33 13.0 L 18.67 13.0 L 19.0 13.0 L 19.33 13.0 L 19.67 13.0 L 20.0 13.0 L 20.33 13.0 L 20.67 13.0 L 21.0 13.0 L 21.33 13.0 L 21.67 13.0 L 22.0 13.0" fill="none" stroke="#111" stroke-width="1.22" stroke-linecap="round" stroke-linejoin="round"/>
<path d="M 18.0 14.0 L 18.0 14.17 L 18.0 14.33 L 18.0 14.5 L 18.0 14.67 L 18.0 14.83 L 18.0 15.0 L 18.0 15.17 L 18.0 15.33 L 18.0 15.5 L 18.0 15.67 L 18.0 15.83 L 18.0 16.0 L 18.0 16.17 L 18.0 16.33 L 18.0 16.5 L 18.0 16.67 L 18.0 16.83 L 18.0 17.0 L 18.0 17.17 L 18.0 17.33 L 18.0 17.5 L 18.0 17.67 L 18.0 17.83 L 18.0 18.0" fill="none" stroke="#111" stroke-width="1.22" stroke-linecap="round" stroke-linejoin="round"/>
<path d="M 15.0 16.0 L 15.0 16.29 L 15.0 16.58 L 15.0 16.88 L 15.0 17.17 L 15.0 17.46 L 15.0 17.75 L 15.0 18.04 L 15.0 18.33 L 15.0 18.62 L 15.0 18.92 L 15.0 19.21 L 15.0 19.5 L 15.0 19.79 L 15.0 20.08 L 15.0 20.38 L 15.0 20.67 L 15.0 20.96 L 15.0 21.25 L 15.0 21.54 L 15.0 21.83 L 15.0 22.12 L 15.0 22.42 L 15.0 22.71 L 15.0 23.0 L 15.0 23.0 L 15.48 23.18 L 15.97 23.31 L 16.48 23.39 L 16.99 23.42 L 17.5 23.4 L 18.01 23.33 L 18.5 23.21 L 18.99 23.04 L 19.45 22.82 L 19.89 22.56 L 20.3 22.26 L 20.68 21.91 L 21.02 21.53 L 21.33 21.12 L 21.59 20.68 L 21.8 20.22 L 21.97 19.74 L 22.1 19.24 L 22.17 18.73 L 22.19 18.22 L 22.16 17.71 L 22.08 17.21 L 21.95 16.71 L 21.77 16.23" fill="none" stroke="#111" stroke-width="1.22" stroke-linecap="round" stroke-linejoin="round"/>
<path d="M 15.0 18.0 L 15.21 18.0 L 15.42 18.0 L 15.62 18.0 L 15.83 18.0 L 16.04 18.0 L 16.25 18.0 L 16.46 18.0 L 16.67 18.0 L 16.88 18.0 L 17.08 18.0 L 17.29 18.0 L 17.5 18.0 L 17.71 18.0 L 17.92 18.0 L 18.12 18.0 L 18.33 18.0 L 18.54 18.0 L 18.75 18.0 L 18.96 18.0 L 19.17 18.0 L 19.38 18.0 L 19.58 18.0 L 19.79 18.0 L 20.0 18.0" fill="none" stroke="#111" stroke-width="1.22" stroke-linecap="round" stroke-linejoin="round"/>
</svg>
