<?xml version="1.0" encoding="UTF-8"?>
<svg xmlns="http://www.w3.org/2000/svg" viewBox="0 0 22.00 35.00">
<path d="M 7.0 5.0 L 7.0 5.25 L 7.0 5.5 L 7.0 5.75 L 7.0 6.0 L 7.0 6.25 L 7.0 6.5 L 7.0 6.75 L 7.0 7.0 L 7.0 7.25 L 7.0 7.5 L 7.0 7.75 L 7.0 8.0 L 7.0 8.25 L 7.0 8.5 L 7.0 8.75 L 7.0 9.0 L 7.0 9.25 L 7.0 9.5 L 7.0 9.75 L 7.0 10.0 L 7.0 10.25 L 7.0 10.5 L 7.0 10.75 L 7.0 11.0" fill="none" stroke="#111" stroke-width="1.23" stroke-linecap="round" stroke-linejoin="round"/>
<path d="M 4.0 7.0 L 4.12 7.17 L 4.25 7.33 L 4.38 7.5 L 4.5 7.67 L 4.62 7.83 L 4.75 8.0 L 4.88 8.17 L 5.0 8.33 L 5.12 8.5 L 5.25 8.67 L 5.38 8.83 L 5.5 9.0 L 5.62 9.17 L 5.75 9.33 L 5.88 9.5 L 6.0 9.67 L 6.12 9.83 L 6.25 10.0 L 6.38 10.17 L 6.5 10.33 L 6.62 10.5 L 6.75 10.67 L 6.88 10.83 L 7.0 11.0" fill="none" stroke="#111" stroke-width="1.23" stroke-linecap="round" stroke-linejoin="round"/>
<path d="M 10.0 6.0 L 9.88 6.21 L 9.75 6.42 L 9.62 6.62 L 9.5 6.83 L 9.38 7.04 L 9.25 7.25 L 9.12 7.46 L 9.0 7.67 L 8.88 7.88 L 8.75 8.08 L 8.62 8.29 L 8.5 8.5 L 8.38 8.71 L 8.25 8.92 L 8.12 9.12 L 8.0 9.33 L 7.88 9.54 L 7.75 9.75 L 7.63 9.96 L 7.5 10.17 L 7.38 10.38 L 7.25 10.58 L 7.13 10.79 L 7.0 11.0" fill="none" stroke="#111" stroke-width="1.23" stroke-linecap="round" stroke-linejoin="round"/>
<path d="M 7.0 11.0 L 6.68 11.27 L 6.39 11.57 L 6.13 11.9 L 5.91 12.25 L 5.72 12.62 L 5.56 13.0 L 5.44 13.4 L 5.37 13.81 L 5.33 14.23 L 5.33 14.65 L 5.37 15.06 L 5.45 15.47 L 5.57 15.87 L 5.73 16.25 L 5.93 16.62 L 6.16 16.97 L 6.42 17.3 L 6.71 17.59 L 7.03 17.86 L 7.37 18.1 L 7.74 18.3 L 8.12 18.47 L 8.51 18.6 L 8.92 18.69 L 9.0 19.0 L 8.47 19.26 L 7.97 19.57 L 7.5 19.94 L 7.07 20.35 L 6.69 20.8 L 6.36 21.29 L 6.09 21.82 L 5.87 22.37 L 5.7 22.94 L 5.6 23.52 L 5.56 24.11 L 5.58 24.7 L 5.67 25.29 L 5.81 25.86 L 6.02 26.42 L 6.28 26.95 L 6.6 27.45 L 6.96 27.91 L 7.38 28.33 L 7.83 28.71 L 8.33 29.04 L 8.85 29.31 L 9.4 29.53 L 9.97 29.69" fill="none" stroke="#111" stroke-width="1.23" stroke-linecap="round" stroke-linejoin="round"/>
<path d="M 7.0 11.0 L 7.31 11.23 L 7.59 11.5 L 7.84 11.79 L 8.06 12.11 L 8.24 12.45 L 8.39 12.8 L 8.5 13.17 L 8.58 13.55 L 8.61 13.94 L 8.6 14.32 L 8.56 14.7 L 8.47 15.08 L 8.34 15.45 L 8.18 15.8 L 7.98 16.13 L 7.75 16.44 L 7.49 16.72 L 7.2 16.97 L 6.89 17.2 L 6.55 17.39 L 6.2 17.54 L 5.83 17.65 L 5.45 17.73 L 5.07 17.77 L 5.0 18.0 L 5.56 18.3 L 6.08 18.65 L 6.56 19.05 L 7.0 19.5 L 7.4 20.0 L 7.74 20.52 L 8.03 21.09 L 8.26 21.67 L 8.42 22.28 L 8.53 22.9 L 8.57 23.53 L 8.55 24.16 L 8.47 24.79 L 8.32 25.4 L 8.11 25.99 L 7.85 26.56 L 7.52 27.11 L 7.15 27.61 L 6.72 28.08 L 6.25 28.5 L 5.74 28.87 L 5.2 29.19 L 4.63 29.45 L 4.03 29.65" fill="none" stroke="#111" stroke-width="1.23" stroke-linecap="round" stroke-linejoin="round"/>
<path d="M 7.0 27.0 L 7.0 27.17 L 7.0 27.33 L 7.0 27.5 L 7.0 27.67 L 7.0 27.83 L 7.0 28.0 L 7.0 28.17 L 7.0 28.33 L 7.0 28.5 L 7.0 28.67 L 7.0 28.83 L 7.0 29.0 L 7.0 29.17 L 7.0 29.33 L 7.0 29.5 L 7.0 29.67 L 7.0 29.83 L 7.0 30.0 L 7.0 30.17 L 7.0 30.33 L 7.0 30.5 L 7.0 30.67 L 7.0 30.83 L 7.0 31.0" fill="none" stroke="#111" stroke-width="1.23" stroke-linecap="round" stroke-linejoin="round"/>
<path d="M 12.0 7.0 L 12.55 7.39 L 13.07 7.82 L 13.55 8.29 L 13.99 8.8 L 14.38 9.34 L 14.73 9.92 L 15.03 10.52 L 15.27 11.15 L 15.47 11.79 L 15.61 12.45 L 15.69 13.12 L 15.72 13.79 L 15.69 14.46 L 15.61 15.13 L 15.47 15.79 L 15.27 16.44 L 15.03 17.06 L 14.73 17.66 L 14.38 18.24 L 13.99 18.79 L 13.55 19.3 L 13.07 19.77 L 12.55 20.2 L 12.0 20.58 L 12.0 21.0 L 12.25 21.33 L 12.5 21.67 L 12.75 22.0 L 13.0 22.33 L 13.25 22.67 L 13.5 23.0 L 13.75 23.33 L 14.0 23.67 L 14.25 24.0 L 14.5 24.33 L 14.75 24.67 L 15.0 25.0 L 15.25 25.33 L 15.5 25.67 L 15.75 26.0 L 16.0 26.33 L 16.25 26.67 L 16.5 27.0 L 16.75 27.33 L 17.0 27.67 L 17.25 28.0 L 17.5 28.33 L 17.75 28.67 L 18.0 29.0" fill="none" stroke="#111" stroke-width="1.23" stroke-linecap="round" stroke-linejoin="round"/>
<path d="M 18.0 6.0 L 17.79 6.33 L 17.58 6.67 L 17.38 7.0 L 17.17 7.33 L 16.96 7.67 L 16.75 8.0 L 16.54 8.33 L 16.33 8.67 L 16.12 9.0 L 15.92 9.33 L 15.71 9.67 L 15.5 10.0 L 15.29 10.33 L 15.08 10.67 L 14.88 11.0 L 14.67 11.33 L 14.46 11.67 L 14.25 12.0 L 14.04 12.33 L 13.83 12.67 L 13.62 13.0 L 13.42 13.33 L 13.21 13.67 L 13.0 14.0 L 13.0 14.0 L 13.46 14.46 L 13.89 14.96 L 14.27 15.48 L 14.62 16.04 L 14.92 16.62 L 15.19 17.21 L 15.4 17.83 L 15.57 18.46 L 15.69 19.1 L 15.77 19.75 L 15.8 20.4 L 15.77 21.06 L 15.7 21.71 L 15.58 22.35 L 15.42 22.98 L 15.21 23.6 L 14.95 24.2 L 14.65 24.78 L 14.3 25.33 L 13.92 25.86 L 13.5 26.36 L 13.04 26.82 L 12.55 27.26 L 12.03 27.65" fill="none" stroke="#111" stroke-width="1.23" stroke-linecap="round" stroke-linejoin="round"/>
<path d="M 14.0 4.0 L 14.04 4.29 L 14.08 4.58 L 14.12 4.88 L 14.17 5.17 L 14.21 5.46 L 14.25 5.75 L 14.29 6.04 L 14.33 6.33 L 14.38 6.62 L 14.42 6.92 L 14.46 7.21 L 14.5 7.5 L 14.54 7.79 L 14.58 8.08 L 14.62 8.38 L 14.67 8.67 L 14.71 8.96 L 14.75 9.25 L 14.79 9.54 L 14.83 9.83 L 14.88 10.12 L 14.92 10.42 L 14.96 10.71 L 15.0 11.0" fill="none" stroke="#111" stroke-width="1.23" stroke-linecap="round" stroke-linejoin="round"/>
<path d="M 14.0 25.0 L 14.0 25.21 L 14.0 25.42 L 14.0 25.62 L 14.0 25.83 L 14.0 26.04 L 14.0 26.25 L 14.0 26.46 L 14.0 26.67 L 14.0 26.88 L 14.0 27.08 L 14.0 27.29 L 14.0 27.5 L 14.0 27.71 L 14.0 27.92 L 14.0 28.12 L 14.0 28.33 L 14.0 28.54 L 14.0 28.75 L 14.0 28.96 L 14.0 29.17 L 14.0 29.38 L 14.0 29.58 L 14.0 29.79 L 14.0 30.0" fill="none" stroke="#111" stroke-width="1.23" stroke-linecap="round" stroke-linejoin="round"/>
</svg>
