<?xml version="1.0" encoding="UTF-8"?>
<svg xmlns="http://www.w3.org/2000/svg" viewBox="0 0 29.07 37.60">
<path d="M 12.67 4.0 L 12.92 4.38 L 13.17 4.75 L 13.42 5.12 L 13.67 5.5 L 13.92 5.88 L 14.17 6.25 L 14.42 6.62 L 14.67 7.0 L 14.92 7.38 L 15.17 7.75 L 15.42 8.12 L 15.67 8.5 L 15.92 8.88 L 16.17 9.25 L 16.42 9.62 L 16.67 10.0 L 16.92 10.38 L 17.17 10.75 L 17.42 11.12 L 17.67 11.5 L 17.92 11.88 L 18.17 12.25 L 18.42 12.62 L 18.67 13.0" fill="none" stroke="#111" stroke-width="1.32" stroke-linecap="round" stroke-linejoin="round"/>
<path d="M 18.67 13.0 L 18.3 13.29 L 17.92 13.58 L 17.55 13.88 L 17.17 14.17 L 16.8 14.46 L 16.42 14.75 L 16.05 15.04 L 15.67 15.33 L 15.3 15.62 L 14.92 15.92 L 14.55 16.21 L 14.17 16.5 L 13.8 16.79 L 13.42 17.08 L 13.05 17.38 L 12.67 17.67 L 12.3 17.96 L 11.92 18.25 L 11.55 18.54 L 11.17 18.83 L 10.8 19.12 L 10.42 19.42 L 10.05 19.71 L 9.67 20.0 L 9.67 20.0 L 10.39 20.21 L 11.09 20.5 L 11.75 20.86 L 12.38 21.28 L 12.95 21.77 L 13.47 22.32 L 13.93 22.92 L 14.32 23.57 L 14.64 24.25 L 14.89 24.96 L 15.06 25.69 L 15.15 26.44 L 15.17 27.2 L 15.1 27.95 L 14.96 28.69 L 14.73 29.41 L 14.44 30.1 L 14.07 30.76 L 13.64 31.38 L 13.14 31.94 L 12.58 32.45 L 11.98 32.9 L 11.33 33.29 L 10.64 33.6" fill="none" stroke="#111" stroke-width="1.32" stroke-linecap="round" stroke-linejoin="round"/>
<path d="M 18.67 13.0 L 18.34 12.92 L 18.0 12.83 L 17.67 12.75 L 17.34 12.67 L 17.0 12.58 L 16.67 12.5 L 16.34 12.42 L 16.0 12.33 L 15.67 12.25 L 15.34 12.17 L 15.0 12.08 L 14.67 12.0 L 14.34 11.92 L 14.0 11.83 L 13.67 11.75 L 13.34 11.67 L 13.0 11.58 L 12.67 11.5 L 12.34 11.42 L 12.0 11.33 L 11.67 11.25 L 11.34 11.17 L 11.0 11.08 L 10.67 11.0 L 10.67 11.0 L 10.96 10.71 L 11.25 10.42 L 11.55 10.12 L 11.84 9.83 L 12.13 9.54 L 12.42 9.25 L 12.71 8.96 L 13.0 8.67 L 13.3 8.38 L 13.59 8.08 L 13.88 7.79 L 14.17 7.5 L 14.46 7.21 L 14.75 6.92 L 15.05 6.62 L 15.34 6.33 L 15.63 6.04 L 15.92 5.75 L 16.21 5.46 L 16.5 5.17 L 16.8 4.88 L 17.09 4.58 L 17.38 4.29 L 17.67 4.0 L 17.67 4.0 L 17.71 4.62 L 17.75 5.25 L 17.8 5.88 L 17.84 6.5 L 17.88 7.12 L 17.92 7.75 L 17.96 8.38 L 18.0 9.0 L 18.05 9.62 L 18.09 10.25 L 18.13 10.88 L 18.17 11.5 L 18.21 12.12 L 18.25 12.75 L 18.3 13.37 L 18.34 14.0 L 18.38 14.62 L 18.42 15.25 L 18.46 15.88 L 18.5 16.5 L 18.55 17.12 L 18.59 17.75 L 18.63 18.38 L 18.67 19.0" fill="none" stroke="#111" stroke-width="1.32" stroke-linecap="round" stroke-linejoin="round"/>
<path d="M 18.67 13.0 L 18.8 13.04 L 18.92 13.08 L 19.05 13.12 L 19.17 13.17 L 19.3 13.21 L 19.42 13.25 L 19.55 13.29 L 19.67 13.33 L 19.8 13.38 L 19.92 13.42 L 20.05 13.46 L 20.17 13.5 L 20.3 13.54 L 20.42 13.58 L 20.55 13.62 L 20.67 13.67 L 20.8 13.71 L 20.92 13.75 L 21.05 13.79 L 21.17 13.83 L 21.3 13.88 L 21.42 13.92 L 21.55 13.96 L 21.67 14.0" fill="none" stroke="#111" stroke-width="1.32" stroke-linecap="round" stroke-linejoin="round"/>
<path d="M 4.67 11.0 L 4.33 11.59 L 4.11 12.24 L 4.0 12.91 L 4.02 13.6 L 4.16 14.27 L 4.42 14.9 L 4.79 15.47 L 5.26 15.97 L 5.81 16.38 L 6.42 16.68 L 7.08 16.86 L 7.76 16.92 L 8.44 16.86 L 9.1 16.68 L 9.71 16.38 L 10.26 15.97 L 10.73 15.47 L 11.1 14.9 L 11.36 14.27 L 11.5 13.6 L 11.52 12.91 L 11.41 12.24 L 11.18 11.59 L 10.85 11.0" fill="none" stroke="#111" stroke-width="1.32" stroke-linecap="round" stroke-linejoin="round"/>
<path d="M 4.67 12.0 L 4.88 12.0 L 5.09 12.0 L 5.3 12.0 L 5.5 12.0 L 5.71 12.0 L 5.92 12.0 L 6.13 12.0 L 6.34 12.0 L 6.55 12.0 L 6.75 12.0 L 6.96 12.0 L 7.17 12.0 L 7.38 12.0 L 7.59 12.0 L 7.8 12.0 L 8.0 12.0 L 8.21 12.0 L 8.42 12.0 L 8.63 12.0 L 8.84 12.0 L 9.05 12.0 L 9.25 12.0 L 9.46 12.0 L 9.67 12.0" fill="none" stroke="#111" stroke-width="1.32" stroke-linecap="round" stroke-linejoin="round"/>
<path d="M 23.67 9.0 L 23.59 9.25 L 23.5 9.5 L 23.42 9.75 L 23.34 10.0 L 23.25 10.25 L 23.17 10.5 L 23.09 10.75 L 23.0 11.0 L 22.92 11.25 L 22.84 11.5 L 22.75 11.75 L 22.67 12.0 L 22.59 12.25 L 22.5 12.5 L 22.42 12.75 L 22.34 13.0 L 22.25 13.25 L 22.17 13.5 L 22.09 13.75 L 22.0 14.0 L 21.92 14.25 L 21.84 14.5 L 21.75 14.75 L 21.67 15.0 L 21.67 15.0 L 22.05 15.27 L 22.41 15.57 L 22.74 15.89 L 23.05 16.24 L 23.34 16.61 L 23.59 17.0 L 23.82 17.4 L 24.02 17.83 L 24.18 18.26 L 24.31 18.71 L 24.41 19.16 L 24.47 19.63 L 24.5 20.09 L 24.5 20.56 L 24.46 21.02 L 24.38 21.48 L 24.27 21.93 L 24.13 22.38 L 23.96 22.81 L 23.75 23.23 L 23.52 23.63 L 23.25 24.01 L 22.96 24.37 L 22.64 24.71 L 22.67 25.0 L 22.59 24.79 L 22.5 24.58 L 22.42 24.38 L 22.34 24.17 L 22.25 23.96 L 22.17 23.75 L 22.09 23.54 L 22.0 23.33 L 21.92 23.12 L 21.84 22.92 L 21.75 22.71 L 21.67 22.5 L 21.59 22.29 L 21.5 22.08 L 21.42 21.88 L 21.34 21.67 L 21.25 21.46 L 21.17 21.25 L 21.09 21.04 L 21.0 20.83 L 20.92 20.62 L 20.84 20.42 L 20.75 20.21 L 20.67 20.0 L 20.67 20.0 L 21.17 19.95 L 21.66 19.84 L 22.14 19.68 L 22.59 19.47 L 23.02 19.22 L 23.42 18.91 L 23.79 18.57 L 24.12 18.19 L 24.4 17.77 L 24.64 17.33 L 24.82 16.86 L 24.96 16.38 L 25.04 15.89 L 25.07 15.38 L 25.04 14.88 L 24.96 14.39 L 24.83 13.9 L 24.64 13.44 L 24.41 12.99 L 24.13 12.58 L 23.8 12.2 L 23.44 11.85 L 23.04 11.55 L 22.61 11.29" fill="none" stroke="#111" stroke-width="1.32" stroke-linecap="round" stroke-linejoin="round"/>
</svg>
