<?xml version="1.0" encoding="UTF-8"?>
<svg xmlns="http://www.w3.org/2000/svg" viewBox="0 0 21.35 34.65">
<path d="M 7.0 4.0 L 7.38 4.0 L 7.75 4.0 L 8.12 4.0 L 8.5 4.0 L 8.88 4.0 L 9.25 4.0 L 9.62 4.0 L 10.0 4.0 L 10.38 4.0 L 10.75 4.0 L 11.12 4.0 L 11.5 4.0 L 11.88 4.0 L 12.25 4.0 L 12.62 4.0 L 13.0 4.0 L 13.38 4.0 L 13.75 4.0 L 14.12 4.0 L 14.5 4.0 L 14.88 4.0 L 15.25 4.0 L 15.62 4.0 L 16.0 4.0" fill="none" stroke="#111" stroke-width="1.21" stroke-linecap="round" stroke-linejoin="round"/>
<path d="M 8.0 5.0 L 8.12 5.76 L 8.24 6.53 L 8.35 7.29 L 8.47 8.06 L 8.59 8.82 L 8.72 9.58 L 8.84 10.35 L 8.96 11.11 L 9.09 11.87 L 9.21 12.64 L 9.34 13.4 L 9.46 14.16 L 9.59 14.92 L 9.72 15.69 L 9.85 16.45 L 9.98 17.21 L 10.11 17.97 L 10.24 18.73 L 10.37 19.5 L 10.51 20.26 L 10.64 21.02 L 10.78 21.78 L 10.91 22.54 L 11.05 23.3" fill="none" stroke="#111" stroke-width="1.21" stroke-linecap="round" stroke-linejoin="round"/>
<path d="M 16.0 4.0 L 16.24 4.37 L 16.46 4.76 L 16.66 5.16 L 16.84 5.57 L 16.99 5.98 L 17.11 6.41 L 17.21 6.85 L 17.28 7.28 L 17.33 7.73 L 17.35 8.17 L 17.35 8.62 L 17.32 9.06 L 17.26 9.5 L 17.18 9.94 L 17.07 10.37 L 16.93 10.79 L 16.77 11.21 L 16.59 11.61 L 16.38 12.01 L 16.15 12.39 L 15.9 12.75 L 15.63 13.11 L 15.34 13.44 L 15.02 13.76 L 15.0 14.0 L 14.92 14.46 L 14.83 14.92 L 14.75 15.38 L 14.67 15.83 L 14.58 16.29 L 14.5 16.75 L 14.42 17.21 L 14.33 17.67 L 14.25 18.12 L 14.17 18.58 L 14.08 19.04 L 14.0 19.5 L 13.92 19.96 L 13.83 20.42 L 13.75 20.88 L 13.67 21.33 L 13.58 21.79 L 13.5 22.25 L 13.42 22.71 L 13.33 23.17 L 13.25 23.62 L 13.17 24.08 L 13.08 24.54 L 13.0 25.0" fill="none" stroke="#111" stroke-width="1.21" stroke-linecap="round" stroke-linejoin="round"/>
<path d="M 4.0 28.0 L 4.45 27.96 L 4.9 27.91 L 5.35 27.85 L 5.8 27.78 L 6.25 27.69 L 6.69 27.6 L 7.13 27.49 L 7.57 27.37 L 8.0 27.24 L 8.43 27.1 L 8.86 26.95 L 9.28 26.78 L 9.7 26.61 L 10.12 26.42 L 10.53 26.23 L 10.93 26.02 L 11.33 25.81 L 11.72 25.58 L 12.11 25.35 L 12.49 25.1 L 12.87 24.84 L 13.23 24.58 L 13.59 24.3 L 13.95 24.02 L 14.0 24.0 L 14.18 24.47 L 14.32 24.95 L 14.4 25.44 L 14.43 25.94 L 14.4 26.44 L 14.32 26.94 L 14.19 27.42 L 14.01 27.89 L 13.78 28.33 L 13.5 28.75 L 13.18 29.14 L 12.82 29.49 L 12.43 29.8 L 12.0 30.06 L 11.55 30.28 L 11.08 30.45 L 10.59 30.57 L 10.1 30.63 L 9.6 30.65 L 9.1 30.61 L 8.61 30.51 L 8.13 30.37 L 7.67 30.17 L 7.23 29.93" fill="none" stroke="#111" stroke-width="1.21" stroke-linecap="round" stroke-linejoin="round"/>
<path d="M 6.0 23.0 L 6.12 23.21 L 6.25 23.42 L 6.38 23.62 L 6.5 23.83 L 6.62 24.04 L 6.75 24.25 L 6.88 24.46 L 7.0 24.67 L 7.12 24.88 L 7.25 25.08 L 7.38 25.29 L 7.5 25.5 L 7.62 25.71 L 7.75 25.92 L 7.88 26.12 L 8.0 26.33 L 8.12 26.54 L 8.25 26.75 L 8.38 26.96 L 8.5 27.17 L 8.62 27.38 L 8.75 27.58 L 8.88 27.79 L 9.0 28.0" fill="none" stroke="#111" stroke-width="1.21" stroke-linecap="round" stroke-linejoin="round"/>
</svg>
