<?xml version="1.0" encoding="UTF-8"?>
<svg xmlns="http://www.w3.org/2000/svg" viewBox="0 0 24.00 27.00">
<path d="M 7.0 5.0 L 7.38 4.96 L 7.75 4.92 L 8.12 4.88 L 8.5 4.83 L 8.88 4.79 L 9.25 4.75 L 9.62 4.71 L 10.0 4.67 L 10.38 4.62 L 10.75 4.58 L 11.12 4.54 L 11.5 4.5 L 11.88 4.46 L 12.25 4.42 L 12.62 4.38 L 13.0 4.33 L 13.38 4.29 L 13.75 4.25 L 14.12 4.21 L 14.5 4.17 L 14.88 4.12 L 15.25 4.08 L 15.63 4.04 L 16.0 4.0" fill="none" stroke="#111" stroke-width="0.95" stroke-linecap="round" stroke-linejoin="round"/>
<path d="M 9.0 5.0 L 9.04 5.29 L 9.08 5.58 L 9.12 5.88 L 9.17 6.17 L 9.21 6.46 L 9.25 6.75 L 9.29 7.04 L 9.33 7.33 L 9.38 7.62 L 9.42 7.92 L 9.46 8.21 L 9.5 8.5 L 9.54 8.79 L 9.58 9.08 L 9.62 9.38 L 9.67 9.67 L 9.71 9.96 L 9.75 10.25 L 9.79 10.54 L 9.83 10.83 L 9.88 11.12 L 9.92 11.42 L 9.96 11.71 L 10.0 12.0" fill="none" stroke="#111" stroke-width="0.95" stroke-linecap="round" stroke-linejoin="round"/>
<path d="M 10.0 12.0 L 9.79 12.0 L 9.58 12.0 L 9.38 12.0 L 9.17 12.0 L 8.96 12.0 L 8.75 12.0 L 8.54 12.0 L 8.33 12.0 L 8.12 12.0 L 7.92 12.0 L 7.71 12.0 L 7.5 12.0 L 7.29 12.0 L 7.08 12.0 L 6.88 12.0 L 6.67 12.0 L 6.46 12.0 L 6.25 12.0 L 6.04 12.0 L 5.83 12.0 L 5.62 12.0 L 5.42 12.0 L 5.21 12.0 L 5.0 12.0" fill="none" stroke="#111" stroke-width="0.95" stroke-linecap="round" stroke-linejoin="round"/>
<path d="M 14.0 4.0 L 14.0 4.29 L 14.0 4.58 L 14.0 4.88 L 14.0 5.17 L 14.0 5.46 L 14.0 5.75 L 14.0 6.04 L 14.0 6.33 L 14.0 6.62 L 14.0 6.92 L 14.0 7.21 L 14.0 7.5 L 14.0 7.79 L 14.0 8.08 L 14.0 8.38 L 14.0 8.67 L 14.0 8.96 L 14.0 9.25 L 14.0 9.54 L 14.0 9.83 L 14.0 10.12 L 14.0 10.42 L 14.0 10.71 L 14.0 11.0" fill="none" stroke="#111" stroke-width="0.95" stroke-linecap="round" stroke-linejoin="round"/>
<path d="M 14.0 11.0 L 14.25 11.0 L 14.5 11.0 L 14.75 11.0 L 15.0 11.0 L 15.25 11.0 L 15.5 11.0 L 15.75 11.0 L 16.0 11.0 L 16.25 11.0 L 16.5 11.0 L 16.75 11.0 L 17.0 11.0 L 17.25 11.0 L 17.5 11.0 L 17.75 11.0 L 18.0 11.0 L 18.25 11.0 L 18.5 11.0 L 18.75 11.0 L 19.0 11.0 L 19.25 11.0 L 19.5 11.0 L 19.75 11.0 L 20.0 11.0" fill="none" stroke="#111" stroke-width="0.95" stroke-linecap="round" stroke-linejoin="round"/>
<path d="M 5.0 15.0 L 5.17 15.0 L 5.33 15.0 L 5.5 15.0 L 5.67 15.0 L 5.83 15.0 L 6.0 15.0 L 6.17 15.0 L 6.33 15.0 L 6.5 15.0 L 6.67 15.0 L 6.83 15.0 L 7.0 15.0 L 7.17 15.0 L 7.33 15.0 L 7.5 15.0 L 7.67 15.0 L 7.83 15.0 L 8.0 15.0 L 8.17 15.0 L 8.33 15.0 L 8.5 15.0 L 8.67 15.0 L 8.83 15.0 L 9.0 15.0 L 9.0 15.0 L 9.0 15.29 L 9.0 15.58 L 9.0 15.88 L 9.0 16.17 L 9.0 16.46 L 9.0 16.75 L 9.0 17.04 L 9.0 17.33 L 9.0 17.62 L 9.0 17.92 L 9.0 18.21 L 9.0 18.5 L 9.0 18.79 L 9.0 19.08 L 9.0 19.38 L 9.0 19.67 L 9.0 19.96 L 9.0 20.25 L 9.0 20.54 L 9.0 20.83 L 9.0 21.12 L 9.0 21.42 L 9.0 21.71 L 9.0 22.0" fill="none" stroke="#111" stroke-width="0.95" stroke-linecap="round" stroke-linejoin="round"/>
<path d="M 19.0 16.0 L 18.79 16.0 L 18.58 16.0 L 18.38 16.0 L 18.17 16.0 L 17.96 16.0 L 17.75 16.0 L 17.54 16.0 L 17.33 16.0 L 17.12 16.0 L 16.92 16.0 L 16.71 16.0 L 16.5 16.0 L 16.29 16.0 L 16.08 16.0 L 15.88 16.0 L 15.67 16.0 L 15.46 16.0 L 15.25 16.0 L 15.04 16.0 L 14.83 16.0 L 14.62 16.0 L 14.42 16.0 L 14.21 16.0 L 14.0 16.0 L 14.0 16.0 L 14.0 16.25 L 14.0 16.5 L 14.0 16.75 L 14.0 17.0 L 14.0 17.25 L 14.0 17.5 L 14.0 17.75 L 14.0 18.0 L 14.0 18.25 L 14.0 18.5 L 14.0 18.75 L 14.0 19.0 L 14.0 19.25 L 14.0 19.5 L 14.0 19.75 L 14.0 20.0 L 14.0 20.25 L 14.0 20.5 L 14.0 20.75 L 14.0 21.0 L 14.0 21.25 L 14.0 21.5 L 14.0 21.75 L 14.0 22.0" fill="none" stroke="#111" stroke-width="0.95" stroke-linecap="round" stroke-linejoin="round"/>
<path d="M 4.0 10.0 L 4.04 10.29 L 4.08 10.58 L 4.12 10.88 L 4.17 11.17 L 4.21 11.46 L 4.25 11.75 L 4.29 12.04 L 4.33 12.33 L 4.38 12.62 L 4.42 12.92 L 4.46 13.21 L 4.5 13.5 L 4.54 13.79 L 4.58 14.08 L 4.62 14.38 L 4.67 14.67 L 4.71 14.96 L 4.75 15.25 L 4.79 15.54 L 4.83 15.83 L 4.88 16.12 L 4.92 16.42 L 4.96 16.71 L 5.0 17.0" fill="none" stroke="#111" stroke-width="0.95" stroke-linecap="round" stroke-linejoin="round"/>
<path d="M 20.0 10.0 L 20.0 10.29 L 20.0 10.58 L 20.0 10.88 L 20.0 11.17 L 20.0 11.46 L 20.0 11.75 L 20.0 12.04 L 20.0 12.33 L 20.0 12.62 L 20.0 12.92 L 20.0 13.21 L 20.0 13.5 L 20.0 13.79 L 20.0 14.08 L 20.0 14.38 L 20.0 14.67 L 20.0 14.96 L 20.0 15.25 L 20.0 15.54 L 20.0 15.83 L 20.0 16.12 L 20.0 16.42 L 20.0 16.71 L 20.0 17.0" fill="none" stroke="#111" stroke-width="0.95" stroke-linecap="round" stroke-linejoin="round"/>
<path d="M 6.0 23.0 L 6.5 23.0 L 7.0 23.0 L 7.5 23.0 L 8.0 23.0 L 8.5 23.0 L 9.0 23.0 L 9.5 23.0 L 10.0 23.0 L 10.5 23.0 L 11.0 23.0 L 11.5 23.0 L 12.0 23.0 L 12.5 23.0 L 13.0 23.0 L 13.5 23.0 L 14.0 23.0 L 14.5 23.0 L 15.0 23.0 L 15.5 23.0 L 16.0 23.0 L 16.5 23.0 L 17.0 23.0 L 17.5 23.0 L 18.0 23.0" fill="none" stroke="#111" stroke-width="0.95" stroke-linecap="round" stroke-linejoin="round"/>
</svg>
