<?xml version="1.0" encoding="UTF-8"?>
<svg xmlns="http://www.w3.org/2000/svg" viewBox="0 0 26.37 30.00">
<path d="M 9.38 5.0 L 9.14 5.16 L 8.93 5.36 L 8.77 5.59 L 8.65 5.85 L 8.57 6.13 L 8.55 6.42 L 8.58 6.7 L 8.67 6.98 L 8.8 7.23 L 8.97 7.46 L 9.18 7.65 L 9.43 7.8 L 9.69 7.91 L 9.98 7.96 L 10.26 7.96 L 10.54 7.91 L 10.81 7.82 L 11.06 7.67 L 11.28 7.48 L 11.45 7.26 L 11.59 7.0 L 11.68 6.73 L 11.71 6.45 L 11.7 6.16 L 11.38 6.0 L 11.29 5.96 L 11.21 5.92 L 11.13 5.88 L 11.04 5.83 L 10.96 5.79 L 10.88 5.75 L 10.79 5.71 L 10.71 5.67 L 10.63 5.62 L 10.54 5.58 L 10.46 5.54 L 10.38 5.5 L 10.29 5.46 L 10.21 5.42 L 10.13 5.38 L 10.04 5.33 L 9.96 5.29 L 9.88 5.25 L 9.79 5.21 L 9.71 5.17 L 9.63 5.12 L 9.54 5.08 L 9.46 5.04 L 9.38 5.0" fill="none" stroke="#111" stroke-width="1.05" stroke-linecap="round" stroke-linejoin="round"/>
<path d="M 10.38 8.0 L 10.63 8.27 L 10.85 8.57 L 11.06 8.88 L 11.24 9.2 L 11.4 9.54 L 11.53 9.88 L 11.64 10.24 L 11.71 10.6 L 11.77 10.97 L 11.79 11.34 L 11.78 11.71 L 11.75 12.08 L 11.69 12.45 L 11.61 12.81 L 11.49 13.16 L 11.35 13.51 L 11.19 13.84 L 11.0 14.16 L 10.78 14.46 L 10.55 14.75 L 10.29 15.02 L 10.02 15.27 L 9.72 15.49 L 9.41 15.7 L 9.38 16.0 L 9.33 15.88 L 9.29 15.75 L 9.25 15.62 L 9.21 15.5 L 9.17 15.38 L 9.13 15.25 L 9.08 15.12 L 9.04 15.0 L 9.0 14.88 L 8.96 14.75 L 8.92 14.62 L 8.88 14.5 L 8.83 14.38 L 8.79 14.25 L 8.75 14.12 L 8.71 14.0 L 8.67 13.88 L 8.63 13.75 L 8.58 13.62 L 8.54 13.5 L 8.5 13.38 L 8.46 13.25 L 8.42 13.12 L 8.38 13.0 L 8.38 13.0 L 8.38 13.0 L 8.38 13.0 L 8.38 13.0 L 8.38 13.0 L 8.38 13.0 L 8.38 13.0 L 8.38 13.0 L 8.38 13.0 L 8.38 13.0 L 8.38 13.0 L 8.38 13.0 L 8.38 13.0 L 8.38 13.0 L 8.38 13.0 L 8.38 13.0 L 8.38 13.0 L 8.38 13.0 L 8.38 13.0 L 8.38 13.0 L 8.38 13.0 L 8.38 13.0 L 8.38 13.0 L 8.38 13.0 L 8.38 13.0" fill="none" stroke="#111" stroke-width="1.05" stroke-linecap="round" stroke-linejoin="round"/>
<path d="M 14.38 4.0 L 14.2 4.22 L 14.04 4.45 L 13.9 4.7 L 13.77 4.95 L 13.67 5.21 L 13.58 5.48 L 13.51 5.75 L 13.47 6.03 L 13.44 6.31 L 13.44 6.59 L 13.45 6.87 L 13.49 7.15 L 13.55 7.43 L 13.62 7.7 L 13.72 7.97 L 13.83 8.22 L 13.97 8.47 L 14.12 8.71 L 14.29 8.94 L 14.47 9.15 L 14.67 9.35 L 14.89 9.53 L 15.11 9.7 L 15.35 9.85 L 15.38 10.0 L 15.42 9.88 L 15.46 9.75 L 15.5 9.62 L 15.54 9.5 L 15.58 9.38 L 15.63 9.25 L 15.67 9.12 L 15.71 9.0 L 15.75 8.88 L 15.79 8.75 L 15.83 8.62 L 15.88 8.5 L 15.92 8.38 L 15.96 8.25 L 16.0 8.12 L 16.04 8.0 L 16.08 7.88 L 16.13 7.75 L 16.17 7.62 L 16.21 7.5 L 16.25 7.38 L 16.29 7.25 L 16.33 7.12 L 16.38 7.0 L 16.38 7.0 L 16.29 6.88 L 16.21 6.75 L 16.13 6.62 L 16.04 6.5 L 15.96 6.38 L 15.88 6.25 L 15.79 6.12 L 15.71 6.0 L 15.63 5.88 L 15.54 5.75 L 15.46 5.62 L 15.38 5.5 L 15.29 5.38 L 15.21 5.25 L 15.13 5.12 L 15.04 5.0 L 14.96 4.88 L 14.88 4.75 L 14.79 4.62 L 14.71 4.5 L 14.63 4.38 L 14.54 4.25 L 14.46 4.12 L 14.38 4.0" fill="none" stroke="#111" stroke-width="1.05" stroke-linecap="round" stroke-linejoin="round"/>
<path d="M 15.38 11.0 L 15.69 11.1 L 15.98 11.25 L 16.25 11.43 L 16.49 11.65 L 16.7 11.9 L 16.88 12.17 L 17.02 12.47 L 17.11 12.78 L 17.16 13.1 L 17.17 13.43 L 17.13 13.75 L 17.05 14.07 L 16.92 14.37 L 16.76 14.65 L 16.56 14.91 L 16.32 15.14 L 16.06 15.33 L 15.77 15.49 L 15.47 15.6 L 15.15 15.68 L 14.82 15.7 L 14.5 15.69 L 14.18 15.63 L 13.87 15.52" fill="none" stroke="#111" stroke-width="1.05" stroke-linecap="round" stroke-linejoin="round"/>
<path d="M 4.38 8.0 L 4.08 9.39 L 4.0 10.81 L 4.14 12.22 L 4.5 13.6 L 5.06 14.9 L 5.82 16.11 L 6.76 17.17 L 7.85 18.09 L 9.07 18.82 L 10.38 19.36 L 11.77 19.68 L 13.18 19.79 L 14.6 19.68 L 15.98 19.36 L 17.3 18.82 L 18.52 18.09 L 19.61 17.17 L 20.54 16.11 L 21.3 14.9 L 21.87 13.6 L 22.23 12.22 L 22.37 10.81 L 22.29 9.39 L 21.99 8.0" fill="none" stroke="#111" stroke-width="1.05" stroke-linecap="round" stroke-linejoin="round"/>
<path d="M 11.38 21.0 L 11.38 21.17 L 11.38 21.33 L 11.38 21.5 L 11.38 21.67 L 11.38 21.83 L 11.38 22.0 L 11.38 22.17 L 11.38 22.33 L 11.38 22.5 L 11.38 22.67 L 11.38 22.83 L 11.38 23.0 L 11.38 23.17 L 11.38 23.33 L 11.38 23.5 L 11.38 23.67 L 11.38 23.83 L 11.38 24.0 L 11.38 24.17 L 11.38 24.33 L 11.38 24.5 L 11.38 24.67 L 11.38 24.83 L 11.38 25.0" fill="none" stroke="#111" stroke-width="1.05" stroke-linecap="round" stroke-linejoin="round"/>
<path d="M 15.38 21.0 L 15.38 21.17 L 15.38 21.33 L 15.38 21.5 L 15.38 21.67 L 15.38 21.83 L 15.38 22.0 L 15.38 22.17 L 15.38 22.33 L 15.38 22.5 L 15.38 22.67 L 15.38 22.83 L 15.38 23.0 L 15.38 23.17 L 15.38 23.33 L 15.38 23.5 L 15.38 23.67 L 15.38 23.83 L 15.38 24.0 L 15.38 24.17 L 15.38 24.33 L 15.38 24.5 L 15.38 24.67 L 15.38 24.83 L 15.38 25.0" fill="none" stroke="#111" stroke-width="1.05" stroke-linecap="round" stroke-linejoin="round"/>
<path d="M 7.38 26.0 L 7.92 25.96 L 8.46 25.92 L 9.0 25.88 L 9.54 25.83 L 10.08 25.79 L 10.63 25.75 L 11.17 25.71 L 11.71 25.67 L 12.25 25.62 L 12.79 25.58 L 13.33 25.54 L 13.88 25.5 L 14.42 25.46 L 14.96 25.42 L 15.5 25.38 L 16.04 25.33 L 16.58 25.29 L 17.13 25.25 L 17.67 25.21 L 18.21 25.17 L 18.75 25.12 L 19.29 25.08 L 19.83 25.04 L 20.38 25.0" fill="none" stroke="#111" stroke-width="1.05" stroke-linecap="round" stroke-linejoin="round"/>
</svg>
