<?xml version="1.0" encoding="UTF-8"?>
<svg xmlns="http://www.w3.org/2000/svg" viewBox="0 0 22.00 35.48">
<path d="M 6.0 13.0 L 6.24 12.82 L 6.49 12.65 L 6.76 12.51 L 7.03 12.39 L 7.32 12.3 L 7.61 12.23 L 7.91 12.18 L 8.21 12.17 L 8.51 12.17 L 8.81 12.21 L 9.11 12.26 L 9.4 12.35 L 9.68 12.45 L 9.95 12.58 L 10.21 12.74 L 10.46 12.91 L 10.69 13.11 L 10.9 13.32 L 11.09 13.55 L 11.26 13.8 L 11.42 14.06 L 11.54 14.34 L 11.65 14.62 L 11.73 14.91 L 12.0 15.0 L 11.75 15.21 L 11.5 15.42 L 11.25 15.62 L 11.0 15.83 L 10.75 16.04 L 10.5 16.25 L 10.25 16.46 L 10.0 16.67 L 9.75 16.88 L 9.5 17.08 L 9.25 17.29 L 9.0 17.5 L 8.75 17.71 L 8.5 17.92 L 8.25 18.12 L 8.0 18.33 L 7.75 18.54 L 7.5 18.75 L 7.25 18.96 L 7.0 19.17 L 6.75 19.38 L 6.5 19.58 L 6.25 19.79 L 6.0 20.0 L 6.0 20.0 L 5.92 20.25 L 5.83 20.5 L 5.75 20.75 L 5.67 21.0 L 5.58 21.25 L 5.5 21.5 L 5.42 21.75 L 5.33 22.0 L 5.25 22.25 L 5.17 22.5 L 5.08 22.75 L 5.0 23.0 L 4.92 23.25 L 4.83 23.5 L 4.75 23.75 L 4.67 24.0 L 4.58 24.25 L 4.5 24.5 L 4.42 24.75 L 4.33 25.0 L 4.25 25.25 L 4.17 25.5 L 4.08 25.75 L 4.0 26.0" fill="none" stroke="#111" stroke-width="1.24" stroke-linecap="round" stroke-linejoin="round"/>
<path d="M 7.0 20.0 L 7.04 20.17 L 7.08 20.33 L 7.12 20.5 L 7.17 20.67 L 7.21 20.83 L 7.25 21.0 L 7.29 21.17 L 7.33 21.33 L 7.38 21.5 L 7.42 21.67 L 7.46 21.83 L 7.5 22.0 L 7.54 22.17 L 7.58 22.33 L 7.62 22.5 L 7.67 22.67 L 7.71 22.83 L 7.75 23.0 L 7.79 23.17 L 7.83 23.33 L 7.88 23.5 L 7.92 23.67 L 7.96 23.83 L 8.0 24.0" fill="none" stroke="#111" stroke-width="1.24" stroke-linecap="round" stroke-linejoin="round"/>
<path d="M 5.0 9.0 L 5.33 8.96 L 5.67 8.92 L 6.0 8.88 L 6.33 8.83 L 6.67 8.79 L 7.0 8.75 L 7.33 8.71 L 7.67 8.67 L 8.0 8.62 L 8.33 8.58 L 8.67 8.54 L 9.0 8.5 L 9.33 8.46 L 9.67 8.42 L 10.0 8.38 L 10.33 8.33 L 10.67 8.29 L 11.0 8.25 L 11.33 8.21 L 11.67 8.17 L 12.0 8.12 L 12.33 8.08 L 12.67 8.04 L 13.0 8.0" fill="none" stroke="#111" stroke-width="1.24" stroke-linecap="round" stroke-linejoin="round"/>
<path d="M 6.0 5.0 L 6.04 5.17 L 6.08 5.33 L 6.12 5.5 L 6.17 5.67 L 6.21 5.83 L 6.25 6.0 L 6.29 6.17 L 6.33 6.33 L 6.38 6.5 L 6.42 6.67 L 6.46 6.83 L 6.5 7.0 L 6.54 7.17 L 6.58 7.33 L 6.62 7.5 L 6.67 7.67 L 6.71 7.83 L 6.75 8.0 L 6.79 8.17 L 6.83 8.33 L 6.88 8.5 L 6.92 8.67 L 6.96 8.83 L 7.0 9.0" fill="none" stroke="#111" stroke-width="1.24" stroke-linecap="round" stroke-linejoin="round"/>
<path d="M 8.0 4.0 L 8.0 4.17 L 8.0 4.33 L 8.0 4.5 L 8.0 4.67 L 8.0 4.83 L 8.0 5.0 L 8.0 5.17 L 8.0 5.33 L 8.0 5.5 L 8.0 5.67 L 8.0 5.83 L 8.0 6.0 L 8.0 6.17 L 8.0 6.33 L 8.0 6.5 L 8.0 6.67 L 8.0 6.83 L 8.0 7.0 L 8.0 7.17 L 8.0 7.33 L 8.0 7.5 L 8.0 7.67 L 8.0 7.83 L 8.0 8.0" fill="none" stroke="#111" stroke-width="1.24" stroke-linecap="round" stroke-linejoin="round"/>
<path d="M 10.0 4.0 L 10.0 4.17 L 10.0 4.33 L 10.0 4.5 L 10.0 4.67 L 10.0 4.83 L 10.0 5.0 L 10.0 5.17 L 10.0 5.33 L 10.0 5.5 L 10.0 5.67 L 10.0 5.83 L 10.0 6.0 L 10.0 6.17 L 10.0 6.33 L 10.0 6.5 L 10.0 6.67 L 10.0 6.83 L 10.0 7.0 L 10.0 7.17 L 10.0 7.33 L 10.0 7.5 L 10.0 7.67 L 10.0 7.83 L 10.0 8.0" fill="none" stroke="#111" stroke-width="1.24" stroke-linecap="round" stroke-linejoin="round"/>
<path d="M 7.0 9.0 L 6.99 9.61 L 7.01 10.21 L 7.08 10.81 L 7.19 11.41 L 7.33 12.0 L 7.52 12.57 L 7.74 13.14 L 7.99 13.69 L 8.29 14.22 L 8.61 14.73 L 8.97 15.21 L 9.36 15.68 L 9.78 16.11 L 10.23 16.52 L 10.7 16.9 L 11.2 17.24 L 11.71 17.56 L 12.25 17.84 L 12.81 18.08 L 13.38 18.28 L 13.96 18.45 L 14.55 18.58 L 15.15 18.67 L 15.75 18.72" fill="none" stroke="#111" stroke-width="1.24" stroke-linecap="round" stroke-linejoin="round"/>
<path d="M 10.0 9.0 L 9.92 9.17 L 9.83 9.33 L 9.75 9.5 L 9.67 9.67 L 9.58 9.83 L 9.5 10.0 L 9.42 10.17 L 9.33 10.33 L 9.25 10.5 L 9.17 10.67 L 9.08 10.83 L 9.0 11.0 L 8.92 11.17 L 8.83 11.33 L 8.75 11.5 L 8.67 11.67 L 8.58 11.83 L 8.5 12.0 L 8.42 12.17 L 8.33 12.33 L 8.25 12.5 L 8.17 12.67 L 8.08 12.83 L 8.0 13.0" fill="none" stroke="#111" stroke-width="1.24" stroke-linecap="round" stroke-linejoin="round"/>
<path d="M 9.0 18.0 L 9.38 18.21 L 9.75 18.42 L 10.12 18.62 L 10.5 18.83 L 10.88 19.04 L 11.25 19.25 L 11.62 19.46 L 12.0 19.67 L 12.38 19.88 L 12.75 20.08 L 13.12 20.29 L 13.5 20.5 L 13.88 20.71 L 14.25 20.92 L 14.63 21.12 L 15.0 21.33 L 15.38 21.54 L 15.75 21.75 L 16.12 21.96 L 16.5 22.17 L 16.88 22.38 L 17.25 22.58 L 17.62 22.79 L 18.0 23.0" fill="none" stroke="#111" stroke-width="1.24" stroke-linecap="round" stroke-linejoin="round"/>
<path d="M 9.0 19.0 L 9.21 19.29 L 9.42 19.58 L 9.62 19.88 L 9.83 20.17 L 10.04 20.46 L 10.25 20.75 L 10.46 21.04 L 10.67 21.33 L 10.88 21.62 L 11.08 21.92 L 11.29 22.21 L 11.5 22.5 L 11.71 22.79 L 11.92 23.08 L 12.12 23.38 L 12.33 23.67 L 12.54 23.96 L 12.75 24.25 L 12.96 24.54 L 13.17 24.83 L 13.38 25.12 L 13.58 25.42 L 13.79 25.71 L 14.0 26.0" fill="none" stroke="#111" stroke-width="1.24" stroke-linecap="round" stroke-linejoin="round"/>
<path d="M 11.0 22.0 L 10.64 22.28 L 10.3 22.59 L 9.98 22.93 L 9.69 23.29 L 9.43 23.67 L 9.21 24.08 L 9.01 24.49 L 8.85 24.93 L 8.73 25.37 L 8.64 25.82 L 8.58 26.28 L 8.56 26.74 L 8.58 27.2 L 8.64 27.66 L 8.73 28.11 L 8.85 28.56 L 9.01 28.99 L 9.21 29.41 L 9.43 29.81 L 9.69 30.19 L 9.98 30.55 L 10.3 30.89 L 10.64 31.2 L 11.0 31.48" fill="none" stroke="#111" stroke-width="1.24" stroke-linecap="round" stroke-linejoin="round"/>
<path d="M 14.0 21.0 L 14.04 21.17 L 14.08 21.33 L 14.12 21.5 L 14.17 21.67 L 14.21 21.83 L 14.25 22.0 L 14.29 22.17 L 14.33 22.33 L 14.38 22.5 L 14.42 22.67 L 14.46 22.83 L 14.5 23.0 L 14.54 23.17 L 14.58 23.33 L 14.62 23.5 L 14.67 23.67 L 14.71 23.83 L 14.75 24.0 L 14.79 24.17 L 14.83 24.33 L 14.88 24.5 L 14.92 24.67 L 14.96 24.83 L 15.0 25.0" fill="none" stroke="#111" stroke-width="1.24" stroke-linecap="round" stroke-linejoin="round"/>
<path d="M 14.0 7.0 L 14.0 7.25 L 14.0 7.5 L 14.0 7.75 L 14.0 8.0 L 14.0 8.25 L 14.0 8.5 L 14.0 8.75 L 14.0 9.0 L 14.0 9.25 L 14.0 9.5 L 14.0 9.75 L 14.0 10.0 L 14.0 10.25 L 14.0 10.5 L 14.0 10.75 L 14.0 11.0 L 14.0 11.25 L 14.0 11.5 L 14.0 11.75 L 14.0 12.0 L 14.0 12.25 L 14.0 12.5 L 14.0 12.75 L 14.0 13.0" fill="none" stroke="#111" stroke-width="1.24" stroke-linecap="round" stroke-linejoin="round"/>
<path d="M 14.0 8.0 L 14.12 8.0 L 14.25 8.0 L 14.38 8.0 L 14.5 8.0 L 14.62 8.0 L 14.75 8.0 L 14.88 8.0 L 15.0 8.0 L 15.12 8.0 L 15.25 8.0 L 15.38 8.0 L 15.5 8.0 L 15.62 8.0 L 15.75 8.0 L 15.88 8.0 L 16.0 8.0 L 16.12 8.0 L 16.25 8.0 L 16.38 8.0 L 16.5 8.0 L 16.62 8.0 L 16.75 8.0 L 16.88 8.0 L 17.0 8.0" fill="none" stroke="#111" stroke-width="1.24" stroke-linecap="round" stroke-linejoin="round"/>
<path d="M 14.0 10.0 L 14.17 10.0 L 14.33 10.0 L 14.5 10.0 L 14.67 10.0 L 14.83 10.0 L 15.0 10.0 L 15.17 10.0 L 15.33 10.0 L 15.5 10.0 L 15.67 10.0 L 15.83 10.0 L 16.0 10.0 L 16.17 10.0 L 16.33 10.0 L 16.5 10.0 L 16.67 10.0 L 16.83 10.0 L 17.0 10.0 L 17.17 10.0 L 17.33 10.0 L 17.5 10.0 L 17.67 10.0 L 17.83 10.0 L 18.0 10.0" fill="none" stroke="#111" stroke-width="1.24" stroke-linecap="round" stroke-linejoin="round"/>
<path d="M 18.0 5.0 L 18.0 5.42 L 18.0 5.83 L 18.0 6.25 L 18.0 6.67 L 18.0 7.08 L 18.0 7.5 L 18.0 7.92 L 18.0 8.33 L 18.0 8.75 L 18.0 9.17 L 18.0 9.58 L 18.0 10.0 L 18.0 10.42 L 18.0 10.83 L 18.0 11.25 L 18.0 11.67 L 18.0 12.08 L 18.0 12.5 L 18.0 12.92 L 18.0 13.33 L 18.0 13.75 L 18.0 14.17 L 18.0 14.58 L 18.0 15.0" fill="none" stroke="#111" stroke-width="1.24" stroke-linecap="round" stroke-linejoin="round"/>
</svg>
