<?xml version="1.0" encoding="UTF-8"?>
<svg xmlns="http://www.w3.org/2000/svg" viewBox="0 0 30.54 34.00">
<path d="M 12.02 4.0 L 11.51 4.69 L 11.13 5.46 L 10.88 6.29 L 10.79 7.15 L 10.86 8.01 L 11.07 8.84 L 11.43 9.62 L 11.92 10.33 L 12.52 10.94 L 13.23 11.44 L 14.01 11.8 L 14.85 12.01 L 15.71 12.08 L 16.56 11.99 L 17.39 11.75 L 18.16 11.37 L 18.86 10.86 L 19.45 10.24 L 19.92 9.52 L 20.26 8.72 L 20.45 7.88 L 20.49 7.02 L 20.38 6.17 L 20.12 5.35" fill="none" stroke="#111" stroke-width="1.19" stroke-linecap="round" stroke-linejoin="round"/>
<path d="M 12.02 6.0 L 12.23 6.04 L 12.44 6.08 L 12.65 6.12 L 12.86 6.17 L 13.06 6.21 L 13.27 6.25 L 13.48 6.29 L 13.69 6.33 L 13.9 6.38 L 14.11 6.42 L 14.31 6.46 L 14.52 6.5 L 14.73 6.54 L 14.94 6.58 L 15.15 6.62 L 15.36 6.67 L 15.56 6.71 L 15.77 6.75 L 15.98 6.79 L 16.19 6.83 L 16.4 6.88 L 16.61 6.92 L 16.81 6.96 L 17.02 7.0" fill="none" stroke="#111" stroke-width="1.19" stroke-linecap="round" stroke-linejoin="round"/>
<path d="M 4.02 15.0 L 4.0 15.85 L 4.13 16.7 L 4.41 17.51 L 4.83 18.25 L 5.37 18.91 L 6.02 19.46 L 6.76 19.89 L 7.57 20.17 L 8.41 20.31 L 9.26 20.3 L 10.1 20.13 L 10.9 19.82 L 11.62 19.37 L 12.26 18.8 L 12.78 18.13 L 13.17 17.37 L 13.43 16.55 L 13.53 15.71 L 13.48 14.85 L 13.28 14.02 L 12.93 13.24 L 12.46 12.54 L 11.86 11.93 L 11.16 11.43" fill="none" stroke="#111" stroke-width="1.19" stroke-linecap="round" stroke-linejoin="round"/>
<path d="M 4.02 18.0 L 4.19 17.92 L 4.36 17.83 L 4.52 17.75 L 4.69 17.67 L 4.86 17.58 L 5.02 17.5 L 5.19 17.42 L 5.36 17.33 L 5.52 17.25 L 5.69 17.17 L 5.86 17.08 L 6.02 17.0 L 6.19 16.92 L 6.36 16.83 L 6.52 16.75 L 6.69 16.67 L 6.86 16.58 L 7.02 16.5 L 7.19 16.42 L 7.36 16.33 L 7.52 16.25 L 7.69 16.17 L 7.86 16.08 L 8.02 16.0" fill="none" stroke="#111" stroke-width="1.19" stroke-linecap="round" stroke-linejoin="round"/>
<path d="M 20.02 14.0 L 19.4 14.43 L 18.87 14.96 L 18.43 15.58 L 18.11 16.26 L 17.91 16.98 L 17.83 17.73 L 17.89 18.48 L 18.08 19.21 L 18.39 19.9 L 18.81 20.52 L 19.34 21.07 L 19.95 21.51 L 20.62 21.84 L 21.35 22.05 L 22.1 22.13 L 22.85 22.08 L 23.58 21.9 L 24.27 21.6 L 24.9 21.18 L 25.45 20.66 L 25.9 20.05 L 26.23 19.38 L 26.45 18.66 L 26.54 17.91" fill="none" stroke="#111" stroke-width="1.19" stroke-linecap="round" stroke-linejoin="round"/>
<path d="M 20.02 16.0 L 20.19 16.12 L 20.36 16.25 L 20.52 16.38 L 20.69 16.5 L 20.86 16.62 L 21.02 16.75 L 21.19 16.88 L 21.36 17.0 L 21.52 17.12 L 21.69 17.25 L 21.86 17.38 L 22.02 17.5 L 22.19 17.62 L 22.36 17.75 L 22.52 17.88 L 22.69 18.0 L 22.86 18.12 L 23.02 18.25 L 23.19 18.38 L 23.36 18.5 L 23.52 18.62 L 23.69 18.75 L 23.86 18.88 L 24.02 19.0" fill="none" stroke="#111" stroke-width="1.19" stroke-linecap="round" stroke-linejoin="round"/>
<path d="M 14.02 12.0 L 14.02 12.75 L 14.02 13.5 L 14.02 14.25 L 14.02 15.0 L 14.02 15.75 L 14.02 16.5 L 14.02 17.25 L 14.02 18.0 L 14.02 18.75 L 14.02 19.5 L 14.02 20.25 L 14.02 21.0 L 14.02 21.75 L 14.02 22.5 L 14.02 23.25 L 14.02 24.0 L 14.02 24.75 L 14.02 25.5 L 14.02 26.25 L 14.02 27.0 L 14.02 27.75 L 14.02 28.5 L 14.02 29.25 L 14.02 30.0" fill="none" stroke="#111" stroke-width="1.19" stroke-linecap="round" stroke-linejoin="round"/>
<path d="M 8.02 21.0 L 7.95 22.08 L 8.03 23.16 L 8.28 24.21 L 8.68 25.22 L 9.22 26.15 L 9.9 26.99 L 10.7 27.73 L 11.6 28.33 L 12.57 28.79 L 13.61 29.1 L 14.68 29.26 L 15.76 29.25 L 16.83 29.08 L 17.86 28.75 L 18.83 28.27 L 19.72 27.65 L 20.51 26.91 L 21.17 26.05 L 21.7 25.11 L 22.09 24.1 L 22.32 23.04 L 22.38 21.96 L 22.29 20.88 L 22.03 19.83" fill="none" stroke="#111" stroke-width="1.19" stroke-linecap="round" stroke-linejoin="round"/>
</svg>
