<?xml version="1.0" encoding="UTF-8"?>
<svg xmlns="http://www.w3.org/2000/svg" viewBox="0 0 16.01 36.00">
<path d="M 5.01 4.0 L 5.01 4.21 L 5.01 4.42 L 5.01 4.62 L 5.01 4.83 L 5.01 5.04 L 5.01 5.25 L 5.01 5.46 L 5.01 5.67 L 5.01 5.88 L 5.01 6.08 L 5.01 6.29 L 5.01 6.5 L 5.01 6.71 L 5.01 6.92 L 5.01 7.12 L 5.01 7.33 L 5.01 7.54 L 5.01 7.75 L 5.01 7.96 L 5.01 8.17 L 5.01 8.38 L 5.01 8.58 L 5.01 8.79 L 5.01 9.0 L 5.01 9.0 L 5.31 9.08 L 5.6 9.17 L 5.89 9.25 L 6.18 9.33 L 6.47 9.42 L 6.76 9.5 L 7.06 9.58 L 7.35 9.67 L 7.64 9.75 L 7.93 9.83 L 8.22 9.92 L 8.51 10.0 L 8.81 10.08 L 9.1 10.17 L 9.39 10.25 L 9.68 10.33 L 9.97 10.42 L 10.26 10.5 L 10.56 10.58 L 10.85 10.67 L 11.14 10.75 L 11.43 10.83 L 11.72 10.92 L 12.01 11.0 L 12.01 11.0 L 12.01 11.08 L 12.01 11.17 L 12.01 11.25 L 12.01 11.33 L 12.01 11.42 L 12.01 11.5 L 12.01 11.58 L 12.01 11.67 L 12.01 11.75 L 12.01 11.83 L 12.01 11.92 L 12.01 12.0 L 12.01 12.08 L 12.01 12.17 L 12.01 12.25 L 12.01 12.33 L 12.01 12.42 L 12.01 12.5 L 12.01 12.58 L 12.01 12.67 L 12.01 12.75 L 12.01 12.83 L 12.01 12.92 L 12.01 13.0" fill="none" stroke="#111" stroke-width="1.26" stroke-linecap="round" stroke-linejoin="round"/>
<path d="M 5.01 5.0 L 5.26 5.12 L 5.51 5.25 L 5.76 5.38 L 6.01 5.5 L 6.26 5.62 L 6.51 5.75 L 6.76 5.88 L 7.01 6.0 L 7.26 6.12 L 7.51 6.25 L 7.76 6.38 L 8.01 6.5 L 8.26 6.62 L 8.51 6.75 L 8.76 6.88 L 9.01 7.0 L 9.26 7.12 L 9.51 7.25 L 9.76 7.38 L 10.01 7.5 L 10.26 7.62 L 10.51 7.75 L 10.76 7.88 L 11.01 8.0 L 11.01 8.0 L 11.01 7.88 L 11.01 7.75 L 11.01 7.62 L 11.01 7.5 L 11.01 7.38 L 11.01 7.25 L 11.01 7.12 L 11.01 7.0 L 11.01 6.88 L 11.01 6.75 L 11.01 6.62 L 11.01 6.5 L 11.01 6.38 L 11.01 6.25 L 11.01 6.12 L 11.01 6.0 L 11.01 5.88 L 11.01 5.75 L 11.01 5.62 L 11.01 5.5 L 11.01 5.38 L 11.01 5.25 L 11.01 5.12 L 11.01 5.0" fill="none" stroke="#111" stroke-width="1.26" stroke-linecap="round" stroke-linejoin="round"/>
<path d="M 8.01 6.0 L 8.01 6.5 L 8.01 7.0 L 8.01 7.5 L 8.01 8.0 L 8.01 8.5 L 8.01 9.0 L 8.01 9.5 L 8.01 10.0 L 8.01 10.5 L 8.01 11.0 L 8.01 11.5 L 8.01 12.0 L 8.01 12.5 L 8.01 13.0 L 8.01 13.5 L 8.01 14.0 L 8.01 14.5 L 8.01 15.0 L 8.01 15.5 L 8.01 16.0 L 8.01 16.5 L 8.01 17.0 L 8.01 17.5 L 8.01 18.0 L 8.01 18.0 L 8.35 18.0 L 8.69 18.03 L 9.03 18.1 L 9.35 18.2 L 9.67 18.32 L 9.97 18.48 L 10.25 18.67 L 10.52 18.88 L 10.76 19.12 L 10.98 19.37 L 11.18 19.65 L 11.34 19.95 L 11.48 20.26 L 11.59 20.58 L 11.66 20.92 L 11.7 21.25 L 11.72 21.59 L 11.69 21.93 L 11.64 22.27 L 11.55 22.6 L 11.43 22.92 L 11.29 23.22 L 11.11 23.51 L 10.91 23.78" fill="none" stroke="#111" stroke-width="1.26" stroke-linecap="round" stroke-linejoin="round"/>
<path d="M 8.01 13.0 L 8.14 13.04 L 8.26 13.08 L 8.39 13.12 L 8.51 13.17 L 8.64 13.21 L 8.76 13.25 L 8.89 13.29 L 9.01 13.33 L 9.14 13.38 L 9.26 13.42 L 9.39 13.46 L 9.51 13.5 L 9.64 13.54 L 9.76 13.58 L 9.89 13.62 L 10.01 13.67 L 10.14 13.71 L 10.26 13.75 L 10.39 13.79 L 10.51 13.83 L 10.64 13.88 L 10.76 13.92 L 10.89 13.96 L 11.01 14.0" fill="none" stroke="#111" stroke-width="1.26" stroke-linecap="round" stroke-linejoin="round"/>
<path d="M 6.01 11.0 L 6.01 11.38 L 6.01 11.75 L 6.01 12.12 L 6.01 12.5 L 6.01 12.88 L 6.01 13.25 L 6.01 13.62 L 6.01 14.0 L 6.01 14.38 L 6.01 14.75 L 6.01 15.12 L 6.01 15.5 L 6.01 15.88 L 6.01 16.25 L 6.01 16.62 L 6.01 17.0 L 6.01 17.38 L 6.01 17.75 L 6.01 18.12 L 6.01 18.5 L 6.01 18.88 L 6.01 19.25 L 6.01 19.62 L 6.01 20.0 L 6.01 20.0 L 6.26 20.14 L 6.5 20.3 L 6.73 20.47 L 6.94 20.65 L 7.15 20.85 L 7.34 21.06 L 7.51 21.28 L 7.68 21.52 L 7.82 21.76 L 7.96 22.01 L 8.07 22.27 L 8.17 22.54 L 8.25 22.81 L 8.31 23.09 L 8.36 23.37 L 8.39 23.65 L 8.4 23.94 L 8.39 24.22 L 8.36 24.51 L 8.32 24.79 L 8.26 25.07 L 8.18 25.34 L 8.08 25.61 L 7.97 25.87" fill="none" stroke="#111" stroke-width="1.26" stroke-linecap="round" stroke-linejoin="round"/>
<path d="M 5.01 23.0 L 5.14 23.04 L 5.26 23.08 L 5.39 23.12 L 5.51 23.17 L 5.64 23.21 L 5.76 23.25 L 5.89 23.29 L 6.01 23.33 L 6.14 23.38 L 6.26 23.42 L 6.39 23.46 L 6.51 23.5 L 6.64 23.54 L 6.76 23.58 L 6.89 23.62 L 7.01 23.67 L 7.14 23.71 L 7.26 23.75 L 7.39 23.79 L 7.51 23.83 L 7.64 23.88 L 7.76 23.92 L 7.89 23.96 L 8.01 24.0" fill="none" stroke="#111" stroke-width="1.26" stroke-linecap="round" stroke-linejoin="round"/>
<path d="M 4.01 23.0 L 4.0 23.4 L 4.02 23.8 L 4.08 24.2 L 4.16 24.59 L 4.29 24.97 L 4.44 25.34 L 4.62 25.69 L 4.84 26.03 L 5.08 26.35 L 5.35 26.65 L 5.64 26.92 L 5.96 27.17 L 6.3 27.39 L 6.65 27.58 L 7.02 27.73 L 7.4 27.86 L 7.79 27.95 L 8.18 28.01 L 8.58 28.04 L 8.98 28.03 L 9.38 27.99 L 9.77 27.91 L 10.16 27.8 L 10.53 27.66 L 11.01 28.0 L 11.01 28.12 L 11.01 28.25 L 11.01 28.38 L 11.01 28.5 L 11.01 28.62 L 11.01 28.75 L 11.01 28.88 L 11.01 29.0 L 11.01 29.12 L 11.01 29.25 L 11.01 29.38 L 11.01 29.5 L 11.01 29.62 L 11.01 29.75 L 11.01 29.88 L 11.01 30.0 L 11.01 30.12 L 11.01 30.25 L 11.01 30.38 L 11.01 30.5 L 11.01 30.62 L 11.01 30.75 L 11.01 30.88 L 11.01 31.0" fill="none" stroke="#111" stroke-width="1.26" stroke-linecap="round" stroke-linejoin="round"/>
<path d="M 11.01 28.0 L 10.72 28.12 L 10.43 28.25 L 10.14 28.38 L 9.85 28.5 L 9.56 28.62 L 9.26 28.75 L 8.97 28.88 L 8.68 29.0 L 8.39 29.12 L 8.1 29.25 L 7.81 29.38 L 7.51 29.5 L 7.22 29.62 L 6.93 29.75 L 6.64 29.88 L 6.35 30.0 L 6.06 30.12 L 5.76 30.25 L 5.47 30.38 L 5.18 30.5 L 4.89 30.62 L 4.6 30.75 L 4.31 30.88 L 4.01 31.0" fill="none" stroke="#111" stroke-width="1.26" stroke-linecap="round" stroke-linejoin="round"/>
<path d="M 4.01 29.0 L 4.01 29.12 L 4.01 29.25 L 4.01 29.38 L 4.01 29.5 L 4.01 29.62 L 4.01 29.75 L 4.01 29.88 L 4.01 30.0 L 4.01 30.12 L 4.01 30.25 L 4.01 30.38 L 4.01 30.5 L 4.01 30.62 L 4.01 30.75 L 4.01 30.88 L 4.01 31.0 L 4.01 31.12 L 4.01 31.25 L 4.01 31.38 L 4.01 31.5 L 4.01 31.62 L 4.01 31.75 L 4.01 31.88 L 4.01 32.0" fill="none" stroke="#111" stroke-width="1.26" stroke-linecap="round" stroke-linejoin="round"/>
<path d="M 7.01 27.0 L 7.01 27.12 L 7.01 27.25 L 7.01 27.38 L 7.01 27.5 L 7.01 27.62 L 7.01 27.75 L 7.01 27.88 L 7.01 28.0 L 7.01 28.12 L 7.01 28.25 L 7.01 28.38 L 7.01 28.5 L 7.01 28.62 L 7.01 28.75 L 7.01 28.88 L 7.01 29.0 L 7.01 29.12 L 7.01 29.25 L 7.01 29.38 L 7.01 29.5 L 7.01 29.62 L 7.01 29.75 L 7.01 29.88 L 7.01 30.0" fill="none" stroke="#111" stroke-width="1.26" stroke-linecap="round" stroke-linejoin="round"/>
<path d="M 8.01 29.0 L 8.14 29.08 L 8.26 29.17 L 8.39 29.25 L 8.51 29.33 L 8.64 29.42 L 8.76 29.5 L 8.89 29.58 L 9.01 29.67 L 9.14 29.75 L 9.26 29.83 L 9.39 29.92 L 9.51 30.0 L 9.64 30.08 L 9.76 30.17 L 9.89 30.25 L 10.01 30.33 L 10.14 30.42 L 10.26 30.5 L 10.39 30.58 L 10.51 30.67 L 10.64 30.75 L 10.76 30.83 L 10.89 30.92 L 11.01 31.0" fill="none" stroke="#111" stroke-width="1.26" stroke-linecap="round" stroke-linejoin="round"/>
</svg>
