<?xml version="1.0" encoding="UTF-8"?>
<svg xmlns="http://www.w3.org/2000/svg" viewBox="0 0 23.00 32.00">
<path d="M 10.0 4.0 L 9.92 4.17 L 9.83 4.33 L 9.75 4.5 L 9.67 4.67 L 9.58 4.83 L 9.5 5.0 L 9.42 5.17 L 9.33 5.33 L 9.25 5.5 L 9.17 5.67 L 9.08 5.83 L 9.0 6.0 L 8.92 6.17 L 8.83 6.33 L 8.75 6.5 L 8.67 6.67 L 8.58 6.83 L 8.5 7.0 L 8.42 7.17 L 8.33 7.33 L 8.25 7.5 L 8.17 7.67 L 8.08 7.83 L 8.0 8.0" fill="none" stroke="#111" stroke-width="1.12" stroke-linecap="round" stroke-linejoin="round"/>
<path d="M 8.0 8.0 L 8.12 8.08 L 8.25 8.17 L 8.38 8.25 L 8.5 8.33 L 8.62 8.42 L 8.75 8.5 L 8.88 8.58 L 9.0 8.67 L 9.12 8.75 L 9.25 8.83 L 9.38 8.92 L 9.5 9.0 L 9.62 9.08 L 9.75 9.17 L 9.88 9.25 L 10.0 9.33 L 10.12 9.42 L 10.25 9.5 L 10.38 9.58 L 10.5 9.67 L 10.62 9.75 L 10.75 9.83 L 10.88 9.92 L 11.0 10.0" fill="none" stroke="#111" stroke-width="1.12" stroke-linecap="round" stroke-linejoin="round"/>
<path d="M 10.0 4.0 L 10.08 4.21 L 10.17 4.42 L 10.25 4.62 L 10.33 4.83 L 10.42 5.04 L 10.5 5.25 L 10.58 5.46 L 10.67 5.67 L 10.75 5.88 L 10.83 6.08 L 10.92 6.29 L 11.0 6.5 L 11.08 6.71 L 11.17 6.92 L 11.25 7.12 L 11.33 7.33 L 11.42 7.54 L 11.5 7.75 L 11.58 7.96 L 11.67 8.17 L 11.75 8.38 L 11.83 8.58 L 11.92 8.79 L 12.0 9.0 L 12.0 9.0 L 11.96 9.04 L 11.92 9.08 L 11.88 9.12 L 11.83 9.17 L 11.79 9.21 L 11.75 9.25 L 11.71 9.29 L 11.67 9.33 L 11.62 9.38 L 11.58 9.42 L 11.54 9.46 L 11.5 9.5 L 11.46 9.54 L 11.42 9.58 L 11.38 9.62 L 11.33 9.67 L 11.29 9.71 L 11.25 9.75 L 11.21 9.79 L 11.17 9.83 L 11.12 9.88 L 11.08 9.92 L 11.04 9.96 L 11.0 10.0" fill="none" stroke="#111" stroke-width="1.12" stroke-linecap="round" stroke-linejoin="round"/>
<path d="M 11.0 10.0 L 10.83 10.21 L 10.67 10.42 L 10.5 10.62 L 10.33 10.83 L 10.17 11.04 L 10.0 11.25 L 9.83 11.46 L 9.67 11.67 L 9.5 11.88 L 9.33 12.08 L 9.17 12.29 L 9.0 12.5 L 8.83 12.71 L 8.67 12.92 L 8.5 13.12 L 8.33 13.33 L 8.17 13.54 L 8.0 13.75 L 7.83 13.96 L 7.67 14.17 L 7.5 14.38 L 7.33 14.58 L 7.17 14.79 L 7.0 15.0 L 7.0 15.0 L 6.69 15.83 L 6.53 16.7 L 6.53 17.58 L 6.69 18.45 L 7.0 19.28 L 7.46 20.03 L 8.04 20.7 L 8.73 21.24 L 9.51 21.66 L 10.36 21.93 L 11.23 22.04 L 12.11 21.99 L 12.97 21.79 L 13.78 21.44 L 14.52 20.94 L 15.15 20.33 L 15.66 19.61 L 16.03 18.81 L 16.26 17.95 L 16.33 17.07 L 16.24 16.19 L 15.99 15.34 L 15.59 14.55 L 15.06 13.85 L 14.0 14.0 L 13.88 13.83 L 13.75 13.67 L 13.62 13.5 L 13.5 13.33 L 13.38 13.17 L 13.25 13.0 L 13.12 12.83 L 13.0 12.67 L 12.88 12.5 L 12.75 12.33 L 12.62 12.17 L 12.5 12.0 L 12.38 11.83 L 12.25 11.67 L 12.12 11.5 L 12.0 11.33 L 11.88 11.17 L 11.75 11.0 L 11.62 10.83 L 11.5 10.67 L 11.38 10.5 L 11.25 10.33 L 11.12 10.17 L 11.0 10.0" fill="none" stroke="#111" stroke-width="1.12" stroke-linecap="round" stroke-linejoin="round"/>
<path d="M 8.0 14.0 L 8.25 14.29 L 8.5 14.58 L 8.75 14.88 L 9.0 15.17 L 9.25 15.46 L 9.5 15.75 L 9.75 16.04 L 10.0 16.33 L 10.25 16.62 L 10.5 16.92 L 10.75 17.21 L 11.0 17.5 L 11.25 17.79 L 11.5 18.08 L 11.75 18.38 L 12.0 18.67 L 12.25 18.96 L 12.5 19.25 L 12.75 19.54 L 13.0 19.83 L 13.25 20.12 L 13.5 20.42 L 13.75 20.71 L 14.0 21.0" fill="none" stroke="#111" stroke-width="1.12" stroke-linecap="round" stroke-linejoin="round"/>
<path d="M 13.0 14.0 L 12.83 14.25 L 12.67 14.5 L 12.5 14.75 L 12.33 15.0 L 12.17 15.25 L 12.0 15.5 L 11.83 15.75 L 11.67 16.0 L 11.5 16.25 L 11.33 16.5 L 11.17 16.75 L 11.0 17.0 L 10.83 17.25 L 10.67 17.5 L 10.5 17.75 L 10.33 18.0 L 10.17 18.25 L 10.0 18.5 L 9.83 18.75 L 9.67 19.0 L 9.5 19.25 L 9.33 19.5 L 9.17 19.75 L 9.0 20.0" fill="none" stroke="#111" stroke-width="1.12" stroke-linecap="round" stroke-linejoin="round"/>
<path d="M 4.0 10.0 L 4.12 10.21 L 4.25 10.42 L 4.38 10.62 L 4.5 10.83 L 4.62 11.04 L 4.75 11.25 L 4.88 11.46 L 5.0 11.67 L 5.12 11.88 L 5.25 12.08 L 5.38 12.29 L 5.5 12.5 L 5.62 12.71 L 5.75 12.92 L 5.88 13.12 L 6.0 13.33 L 6.12 13.54 L 6.25 13.75 L 6.38 13.96 L 6.5 14.17 L 6.62 14.38 L 6.75 14.58 L 6.88 14.79 L 7.0 15.0" fill="none" stroke="#111" stroke-width="1.12" stroke-linecap="round" stroke-linejoin="round"/>
<path d="M 4.0 26.0 L 4.17 25.79 L 4.33 25.58 L 4.5 25.38 L 4.67 25.17 L 4.83 24.96 L 5.0 24.75 L 5.17 24.54 L 5.33 24.33 L 5.5 24.12 L 5.67 23.92 L 5.83 23.71 L 6.0 23.5 L 6.17 23.29 L 6.33 23.08 L 6.5 22.88 L 6.67 22.67 L 6.83 22.46 L 7.0 22.25 L 7.17 22.04 L 7.33 21.83 L 7.5 21.62 L 7.67 21.42 L 7.83 21.21 L 8.0 21.0" fill="none" stroke="#111" stroke-width="1.12" stroke-linecap="round" stroke-linejoin="round"/>
<path d="M 19.0 25.0 L 18.83 24.83 L 18.67 24.67 L 18.5 24.5 L 18.33 24.33 L 18.17 24.17 L 18.0 24.0 L 17.83 23.83 L 17.67 23.67 L 17.5 23.5 L 17.33 23.33 L 17.17 23.17 L 17.0 23.0 L 16.83 22.83 L 16.67 22.67 L 16.5 22.5 L 16.33 22.33 L 16.17 22.17 L 16.0 22.0 L 15.83 21.83 L 15.67 21.67 L 15.5 21.5 L 15.33 21.33 L 15.17 21.17 L 15.0 21.0" fill="none" stroke="#111" stroke-width="1.12" stroke-linecap="round" stroke-linejoin="round"/>
<path d="M 17.0 10.0 L 16.88 10.17 L 16.75 10.33 L 16.62 10.5 L 16.5 10.67 L 16.38 10.83 L 16.25 11.0 L 16.12 11.17 L 16.0 11.33 L 15.88 11.5 L 15.75 11.67 L 15.62 11.83 L 15.5 12.0 L 15.38 12.17 L 15.25 12.33 L 15.12 12.5 L 15.0 12.67 L 14.88 12.83 L 14.75 13.0 L 14.62 13.17 L 14.5 13.33 L 14.38 13.5 L 14.25 13.67 L 14.12 13.83 L 14.0 14.0" fill="none" stroke="#111" stroke-width="1.12" stroke-linecap="round" stroke-linejoin="round"/>
<path d="M 15.0 10.0 L 15.04 10.12 L 15.08 10.25 L 15.12 10.38 L 15.17 10.5 L 15.21 10.62 L 15.25 10.75 L 15.29 10.88 L 15.33 11.0 L 15.38 11.12 L 15.42 11.25 L 15.46 11.38 L 15.5 11.5 L 15.54 11.62 L 15.58 11.75 L 15.62 11.88 L 15.67 12.0 L 15.71 12.12 L 15.75 12.25 L 15.79 12.38 L 15.83 12.5 L 15.88 12.62 L 15.92 12.75 L 15.96 12.88 L 16.0 13.0 L 16.0 13.0 L 16.12 12.96 L 16.25 12.92 L 16.38 12.88 L 16.5 12.83 L 16.62 12.79 L 16.75 12.75 L 16.88 12.71 L 17.0 12.67 L 17.12 12.62 L 17.25 12.58 L 17.38 12.54 L 17.5 12.5 L 17.62 12.46 L 17.75 12.42 L 17.88 12.38 L 18.0 12.33 L 18.12 12.29 L 18.25 12.25 L 18.38 12.21 L 18.5 12.17 L 18.62 12.12 L 18.75 12.08 L 18.88 12.04 L 19.0 12.0" fill="none" stroke="#111" stroke-width="1.12" stroke-linecap="round" stroke-linejoin="round"/>
<path d="M 6.0 11.0 L 5.92 11.12 L 5.83 11.25 L 5.75 11.38 L 5.67 11.5 L 5.58 11.62 L 5.5 11.75 L 5.42 11.88 L 5.33 12.0 L 5.25 12.12 L 5.17 12.25 L 5.08 12.38 L 5.0 12.5 L 4.92 12.62 L 4.83 12.75 L 4.75 12.88 L 4.67 13.0 L 4.58 13.12 L 4.5 13.25 L 4.42 13.38 L 4.33 13.5 L 4.25 13.62 L 4.17 13.75 L 4.08 13.88 L 4.0 14.0" fill="none" stroke="#111" stroke-width="1.12" stroke-linecap="round" stroke-linejoin="round"/>
<path d="M 5.0 21.0 L 5.08 21.17 L 5.17 21.33 L 5.25 21.5 L 5.33 21.67 L 5.42 21.83 L 5.5 22.0 L 5.58 22.17 L 5.67 22.33 L 5.75 22.5 L 5.83 22.67 L 5.92 22.83 L 6.0 23.0 L 6.08 23.17 L 6.17 23.33 L 6.25 23.5 L 6.33 23.67 L 6.42 23.83 L 6.5 24.0 L 6.58 24.17 L 6.67 24.33 L 6.75 24.5 L 6.83 24.67 L 6.92 24.83 L 7.0 25.0" fill="none" stroke="#111" stroke-width="1.12" stroke-linecap="round" stroke-linejoin="round"/>
<path d="M 11.0 23.0 L 11.04 23.21 L 11.08 23.42 L 11.12 23.62 L 11.17 23.83 L 11.21 24.04 L 11.25 24.25 L 11.29 24.46 L 11.33 24.67 L 11.38 24.88 L 11.42 25.08 L 11.46 25.29 L 11.5 25.5 L 11.54 25.71 L 11.58 25.92 L 11.62 26.12 L 11.67 26.33 L 11.71 26.54 L 11.75 26.75 L 11.79 26.96 L 11.83 27.17 L 11.88 27.38 L 11.92 27.58 L 11.96 27.79 L 12.0 28.0" fill="none" stroke="#111" stroke-width="1.12" stroke-linecap="round" stroke-linejoin="round"/>
</svg>
