<?xml version="1.0" encoding="UTF-8"?>
<svg xmlns="http://www.w3.org/2000/svg" viewBox="0 0 19.00 36.36">
<path d="M 10.0 11.0 L 9.88 11.21 L 9.75 11.42 L 9.62 11.62 L 9.5 11.83 L 9.38 12.04 L 9.25 12.25 L 9.12 12.46 L 9.0 12.67 L 8.88 12.88 L 8.75 13.08 L 8.62 13.29 L 8.5 13.5 L 8.38 13.71 L 8.25 13.92 L 8.12 14.12 L 8.0 14.33 L 7.88 14.54 L 7.75 14.75 L 7.63 14.96 L 7.5 15.17 L 7.38 15.38 L 7.25 15.58 L 7.13 15.79 L 7.0 16.0 L 7.0 16.0 L 7.08 16.27 L 7.16 16.54 L 7.24 16.81 L 7.33 17.08 L 7.43 17.35 L 7.52 17.62 L 7.63 17.88 L 7.74 18.14 L 7.85 18.4 L 7.96 18.66 L 8.08 18.92 L 8.21 19.17 L 8.34 19.42 L 8.47 19.67 L 8.61 19.92 L 8.75 20.17 L 8.89 20.41 L 9.04 20.65 L 9.2 20.89 L 9.35 21.13 L 9.51 21.36 L 9.68 21.59 L 9.85 21.82 L 10.02 22.04" fill="none" stroke="#111" stroke-width="1.27" stroke-linecap="round" stroke-linejoin="round"/>
<path d="M 10.0 11.0 L 10.34 11.37 L 10.66 11.75 L 10.96 12.16 L 11.22 12.59 L 11.46 13.03 L 11.67 13.49 L 11.85 13.96 L 12.0 14.44 L 12.11 14.93 L 12.19 15.43 L 12.24 15.93 L 12.26 16.43 L 12.24 16.94 L 12.19 17.44 L 12.11 17.93 L 12.0 18.42 L 11.85 18.9 L 11.67 19.38 L 11.46 19.83 L 11.22 20.28 L 10.96 20.7 L 10.66 21.11 L 10.34 21.5 L 10.0 21.87" fill="none" stroke="#111" stroke-width="1.27" stroke-linecap="round" stroke-linejoin="round"/>
<path d="M 13.0 4.0 L 12.96 4.12 L 12.92 4.25 L 12.88 4.38 L 12.83 4.5 L 12.79 4.62 L 12.75 4.75 L 12.71 4.88 L 12.67 5.0 L 12.62 5.12 L 12.58 5.25 L 12.54 5.38 L 12.5 5.5 L 12.46 5.62 L 12.42 5.75 L 12.38 5.88 L 12.33 6.0 L 12.29 6.12 L 12.25 6.25 L 12.21 6.38 L 12.17 6.5 L 12.12 6.62 L 12.08 6.75 L 12.04 6.88 L 12.0 7.0" fill="none" stroke="#111" stroke-width="1.27" stroke-linecap="round" stroke-linejoin="round"/>
<path d="M 13.0 4.0 L 13.32 4.34 L 13.61 4.7 L 13.88 5.09 L 14.11 5.49 L 14.32 5.9 L 14.49 6.34 L 14.63 6.78 L 14.74 7.23 L 14.81 7.69 L 14.85 8.16 L 14.86 8.62 L 14.83 9.09 L 14.77 9.55 L 14.67 10.01 L 14.54 10.45 L 14.37 10.89 L 14.18 11.31 L 13.95 11.72 L 13.7 12.11 L 13.41 12.48 L 13.1 12.82 L 12.77 13.15 L 12.41 13.44 L 12.03 13.71" fill="none" stroke="#111" stroke-width="1.27" stroke-linecap="round" stroke-linejoin="round"/>
<path d="M 7.0 19.0 L 6.88 19.33 L 6.75 19.67 L 6.62 20.0 L 6.5 20.33 L 6.38 20.67 L 6.25 21.0 L 6.12 21.33 L 6.0 21.67 L 5.88 22.0 L 5.75 22.33 L 5.63 22.67 L 5.5 23.0 L 5.38 23.33 L 5.25 23.67 L 5.13 24.0 L 5.0 24.33 L 4.88 24.67 L 4.75 25.0 L 4.63 25.33 L 4.5 25.67 L 4.38 26.0 L 4.25 26.33 L 4.13 26.67 L 4.0 27.0 L 4.0 27.0 L 4.31 27.02 L 4.61 27.07 L 4.91 27.15 L 5.2 27.25 L 5.49 27.37 L 5.76 27.52 L 6.02 27.69 L 6.26 27.87 L 6.49 28.08 L 6.7 28.31 L 6.89 28.55 L 7.06 28.81 L 7.2 29.08 L 7.33 29.36 L 7.43 29.65 L 7.51 29.95 L 7.56 30.26 L 7.58 30.56 L 7.59 30.87 L 7.56 31.18 L 7.51 31.48 L 7.44 31.78 L 7.34 32.08 L 7.21 32.36" fill="none" stroke="#111" stroke-width="1.27" stroke-linecap="round" stroke-linejoin="round"/>
<path d="M 12.0 19.0 L 12.12 19.38 L 12.25 19.75 L 12.38 20.12 L 12.5 20.5 L 12.62 20.88 L 12.75 21.25 L 12.88 21.62 L 13.0 22.0 L 13.12 22.38 L 13.25 22.75 L 13.38 23.12 L 13.5 23.5 L 13.62 23.88 L 13.75 24.25 L 13.88 24.62 L 14.0 25.0 L 14.12 25.38 L 14.25 25.75 L 14.38 26.12 L 14.5 26.5 L 14.62 26.88 L 14.75 27.25 L 14.88 27.62 L 15.0 28.0 L 15.0 28.0 L 14.88 28.08 L 14.75 28.17 L 14.62 28.25 L 14.5 28.33 L 14.38 28.42 L 14.25 28.5 L 14.12 28.58 L 14.0 28.67 L 13.88 28.75 L 13.75 28.83 L 13.62 28.92 L 13.5 29.0 L 13.38 29.08 L 13.25 29.17 L 13.12 29.25 L 13.0 29.33 L 12.88 29.42 L 12.75 29.5 L 12.62 29.58 L 12.5 29.67 L 12.38 29.75 L 12.25 29.83 L 12.12 29.92 L 12.0 30.0" fill="none" stroke="#111" stroke-width="1.27" stroke-linecap="round" stroke-linejoin="round"/>
<path d="M 6.0 22.0 L 6.08 22.17 L 6.17 22.33 L 6.25 22.5 L 6.33 22.67 L 6.42 22.83 L 6.5 23.0 L 6.58 23.17 L 6.67 23.33 L 6.75 23.5 L 6.83 23.67 L 6.92 23.83 L 7.0 24.0 L 7.08 24.17 L 7.17 24.33 L 7.25 24.5 L 7.33 24.67 L 7.42 24.83 L 7.5 25.0 L 7.58 25.17 L 7.67 25.33 L 7.75 25.5 L 7.83 25.67 L 7.92 25.83 L 8.0 26.0" fill="none" stroke="#111" stroke-width="1.27" stroke-linecap="round" stroke-linejoin="round"/>
<path d="M 13.0 23.0 L 12.92 23.12 L 12.83 23.25 L 12.75 23.38 L 12.67 23.5 L 12.58 23.62 L 12.5 23.75 L 12.42 23.88 L 12.33 24.0 L 12.25 24.12 L 12.17 24.25 L 12.08 24.38 L 12.0 24.5 L 11.92 24.62 L 11.83 24.75 L 11.75 24.88 L 11.67 25.0 L 11.58 25.12 L 11.5 25.25 L 11.42 25.38 L 11.33 25.5 L 11.25 25.62 L 11.17 25.75 L 11.08 25.88 L 11.0 26.0" fill="none" stroke="#111" stroke-width="1.27" stroke-linecap="round" stroke-linejoin="round"/>
<path d="M 6.0 14.0 L 6.29 14.0 L 6.58 14.0 L 6.88 14.0 L 7.17 14.0 L 7.46 14.0 L 7.75 14.0 L 8.04 14.0 L 8.33 14.0 L 8.62 14.0 L 8.92 14.0 L 9.21 14.0 L 9.5 14.0 L 9.79 14.0 L 10.08 14.0 L 10.38 14.0 L 10.67 14.0 L 10.96 14.0 L 11.25 14.0 L 11.54 14.0 L 11.83 14.0 L 12.12 14.0 L 12.42 14.0 L 12.71 14.0 L 13.0 14.0" fill="none" stroke="#111" stroke-width="1.27" stroke-linecap="round" stroke-linejoin="round"/>
<path d="M 6.0 17.0 L 6.29 17.0 L 6.58 17.0 L 6.88 17.0 L 7.17 17.0 L 7.46 17.0 L 7.75 17.0 L 8.04 17.0 L 8.33 17.0 L 8.62 17.0 L 8.92 17.0 L 9.21 17.0 L 9.5 17.0 L 9.79 17.0 L 10.08 17.0 L 10.38 17.0 L 10.67 17.0 L 10.96 17.0 L 11.25 17.0 L 11.54 17.0 L 11.83 17.0 L 12.12 17.0 L 12.42 17.0 L 12.71 17.0 L 13.0 17.0" fill="none" stroke="#111" stroke-width="1.27" stroke-linecap="round" stroke-linejoin="round"/>
<path d="M 9.0 13.0 L 8.61 12.8 L 8.24 12.56 L 7.88 12.29 L 7.56 11.99 L 7.26 11.67 L 6.99 11.32 L 6.74 10.95 L 6.53 10.56 L 6.36 10.16 L 6.22 9.74 L 6.11 9.31 L 6.05 8.87 L 6.02 8.43 L 6.02 7.99 L 6.07 7.55 L 6.15 7.12 L 6.27 6.69 L 6.42 6.28 L 6.61 5.88 L 6.84 5.5 L 7.09 5.13 L 7.37 4.8 L 7.68 4.48 L 8.02 4.2 L 8.0 4.0 L 8.04 4.12 L 8.08 4.25 L 8.12 4.38 L 8.17 4.5 L 8.21 4.62 L 8.25 4.75 L 8.29 4.88 L 8.33 5.0 L 8.38 5.12 L 8.42 5.25 L 8.46 5.38 L 8.5 5.5 L 8.54 5.62 L 8.58 5.75 L 8.62 5.88 L 8.67 6.0 L 8.71 6.12 L 8.75 6.25 L 8.79 6.38 L 8.83 6.5 L 8.88 6.62 L 8.92 6.75 L 8.96 6.88 L 9.0 7.0" fill="none" stroke="#111" stroke-width="1.27" stroke-linecap="round" stroke-linejoin="round"/>
</svg>
