<?xml version="1.0" encoding="UTF-8"?>
<svg xmlns="http://www.w3.org/2000/svg" viewBox="0 0 24.97 37.00">
<path d="M 7.0 5.0 L 6.87 5.2 L 6.77 5.41 L 6.71 5.64 L 6.67 5.87 L 6.67 6.1 L 6.71 6.34 L 6.78 6.56 L 6.88 6.77 L 7.01 6.97 L 7.17 7.14 L 7.35 7.29 L 7.55 7.41 L 7.77 7.5 L 8.0 7.56 L 8.23 7.58 L 8.47 7.57 L 8.7 7.52 L 8.92 7.44 L 9.13 7.33 L 9.32 7.19 L 9.48 7.03 L 9.63 6.84 L 9.74 6.63 L 9.82 6.41 L 9.0 6.0 L 8.92 5.96 L 8.83 5.92 L 8.75 5.88 L 8.67 5.83 L 8.58 5.79 L 8.5 5.75 L 8.42 5.71 L 8.33 5.67 L 8.25 5.62 L 8.17 5.58 L 8.08 5.54 L 8.0 5.5 L 7.92 5.46 L 7.83 5.42 L 7.75 5.38 L 7.67 5.33 L 7.58 5.29 L 7.5 5.25 L 7.42 5.21 L 7.33 5.17 L 7.25 5.12 L 7.17 5.08 L 7.08 5.04 L 7.0 5.0" fill="none" stroke="#111" stroke-width="1.30" stroke-linecap="round" stroke-linejoin="round"/>
<path d="M 14.0 4.0 L 13.85 4.19 L 13.73 4.4 L 13.65 4.63 L 13.6 4.87 L 13.59 5.11 L 13.62 5.35 L 13.68 5.59 L 13.78 5.81 L 13.91 6.01 L 14.07 6.2 L 14.26 6.35 L 14.46 6.48 L 14.69 6.57 L 14.93 6.62 L 15.17 6.64 L 15.41 6.62 L 15.65 6.57 L 15.87 6.48 L 16.08 6.36 L 16.27 6.2 L 16.43 6.02 L 16.56 5.82 L 16.66 5.6 L 16.72 5.36 L 16.0 5.0 L 15.92 4.96 L 15.83 4.92 L 15.75 4.88 L 15.67 4.83 L 15.58 4.79 L 15.5 4.75 L 15.42 4.71 L 15.33 4.67 L 15.25 4.62 L 15.17 4.58 L 15.08 4.54 L 15.0 4.5 L 14.92 4.46 L 14.83 4.42 L 14.75 4.38 L 14.67 4.33 L 14.58 4.29 L 14.5 4.25 L 14.42 4.21 L 14.33 4.17 L 14.25 4.12 L 14.17 4.08 L 14.08 4.04 L 14.0 4.0" fill="none" stroke="#111" stroke-width="1.30" stroke-linecap="round" stroke-linejoin="round"/>
<path d="M 8.0 7.0 L 8.39 7.21 L 8.77 7.44 L 9.14 7.68 L 9.49 7.94 L 9.83 8.23 L 10.16 8.52 L 10.47 8.84 L 10.76 9.17 L 11.04 9.51 L 11.3 9.86 L 11.55 10.23 L 11.77 10.61 L 11.97 11.01 L 12.16 11.41 L 12.32 11.82 L 12.47 12.23 L 12.59 12.66 L 12.69 13.09 L 12.77 13.52 L 12.83 13.96 L 12.87 14.4 L 12.88 14.84 L 12.88 15.28 L 12.85 15.72 L 13.0 16.0 L 12.96 16.0 L 12.92 16.0 L 12.88 16.0 L 12.83 16.0 L 12.79 16.0 L 12.75 16.0 L 12.71 16.0 L 12.67 16.0 L 12.62 16.0 L 12.58 16.0 L 12.54 16.0 L 12.5 16.0 L 12.46 16.0 L 12.42 16.0 L 12.38 16.0 L 12.33 16.0 L 12.29 16.0 L 12.25 16.0 L 12.21 16.0 L 12.17 16.0 L 12.12 16.0 L 12.08 16.0 L 12.04 16.0 L 12.0 16.0 L 12.0 16.0 L 12.04 16.0 L 12.08 16.0 L 12.12 16.0 L 12.17 16.0 L 12.21 16.0 L 12.25 16.0 L 12.29 16.0 L 12.33 16.0 L 12.38 16.0 L 12.42 16.0 L 12.46 16.0 L 12.5 16.0 L 12.54 16.0 L 12.58 16.0 L 12.62 16.0 L 12.67 16.0 L 12.71 16.0 L 12.75 16.0 L 12.79 16.0 L 12.83 16.0 L 12.88 16.0 L 12.92 16.0 L 12.96 16.0 L 13.0 16.0" fill="none" stroke="#111" stroke-width="1.30" stroke-linecap="round" stroke-linejoin="round"/>
<path d="M 14.0 7.0 L 13.92 7.21 L 13.83 7.42 L 13.75 7.62 L 13.67 7.83 L 13.58 8.04 L 13.5 8.25 L 13.42 8.46 L 13.33 8.67 L 13.25 8.88 L 13.17 9.08 L 13.08 9.29 L 13.0 9.5 L 12.92 9.71 L 12.83 9.92 L 12.75 10.12 L 12.67 10.33 L 12.58 10.54 L 12.5 10.75 L 12.42 10.96 L 12.33 11.17 L 12.25 11.38 L 12.17 11.58 L 12.08 11.79 L 12.0 12.0 L 12.0 12.0 L 11.86 12.12 L 11.73 12.25 L 11.61 12.4 L 11.5 12.55 L 11.4 12.7 L 11.31 12.87 L 11.24 13.04 L 11.18 13.22 L 11.13 13.4 L 11.09 13.58 L 11.07 13.76 L 11.06 13.95 L 11.07 14.14 L 11.09 14.32 L 11.13 14.5 L 11.18 14.68 L 11.24 14.86 L 11.31 15.03 L 11.4 15.2 L 11.5 15.35 L 11.61 15.5 L 11.73 15.65 L 11.86 15.78 L 12.0 15.9" fill="none" stroke="#111" stroke-width="1.30" stroke-linecap="round" stroke-linejoin="round"/>
<path d="M 11.0 16.0 L 10.77 16.37 L 10.55 16.74 L 10.35 17.12 L 10.15 17.51 L 9.97 17.9 L 9.8 18.3 L 9.64 18.7 L 9.5 19.11 L 9.37 19.52 L 9.25 19.94 L 9.15 20.36 L 9.05 20.78 L 8.98 21.21 L 8.91 21.63 L 8.86 22.06 L 8.82 22.5 L 8.8 22.93 L 8.79 23.36 L 8.79 23.79 L 8.81 24.22 L 8.84 24.66 L 8.88 25.09 L 8.94 25.52 L 9.01 25.94 L 9.0 26.0 L 9.19 26.09 L 9.37 26.19 L 9.56 26.28 L 9.74 26.39 L 9.92 26.49 L 10.1 26.6 L 10.28 26.71 L 10.46 26.82 L 10.63 26.94 L 10.8 27.05 L 10.97 27.18 L 11.14 27.3 L 11.31 27.43 L 11.47 27.56 L 11.64 27.69 L 11.8 27.82 L 11.95 27.96 L 12.11 28.1 L 12.26 28.24 L 12.41 28.39 L 12.56 28.54 L 12.71 28.69 L 12.85 28.84 L 12.99 28.99 L 13.0 29.0 L 13.48 28.58 L 13.92 28.13 L 14.32 27.65 L 14.68 27.13 L 15.0 26.58 L 15.28 26.01 L 15.5 25.42 L 15.68 24.82 L 15.81 24.2 L 15.89 23.57 L 15.92 22.94 L 15.9 22.31 L 15.82 21.68 L 15.7 21.06 L 15.53 20.45 L 15.3 19.86 L 15.03 19.29 L 14.72 18.74 L 14.36 18.22 L 13.96 17.73 L 13.52 17.28 L 13.05 16.86 L 12.54 16.48 L 12.01 16.14 L 12.0 16.0 L 11.96 16.04 L 11.92 16.08 L 11.88 16.12 L 11.83 16.17 L 11.79 16.21 L 11.75 16.25 L 11.71 16.29 L 11.67 16.33 L 11.62 16.38 L 11.58 16.42 L 11.54 16.46 L 11.5 16.5 L 11.46 16.54 L 11.42 16.58 L 11.38 16.62 L 11.33 16.67 L 11.29 16.71 L 11.25 16.75 L 11.21 16.79 L 11.17 16.83 L 11.12 16.88 L 11.08 16.92 L 11.04 16.96 L 11.0 17.0" fill="none" stroke="#111" stroke-width="1.30" stroke-linecap="round" stroke-linejoin="round"/>
<path d="M 7.0 14.0 L 7.0 14.12 L 7.0 14.25 L 7.0 14.38 L 7.0 14.5 L 7.0 14.62 L 7.0 14.75 L 7.0 14.88 L 7.0 15.0 L 7.0 15.12 L 7.0 15.25 L 7.0 15.38 L 7.0 15.5 L 7.0 15.62 L 7.0 15.75 L 7.0 15.88 L 7.0 16.0 L 7.0 16.12 L 7.0 16.25 L 7.0 16.38 L 7.0 16.5 L 7.0 16.62 L 7.0 16.75 L 7.0 16.88 L 7.0 17.0 L 7.0 17.0 L 6.92 17.04 L 6.83 17.08 L 6.75 17.12 L 6.67 17.17 L 6.58 17.21 L 6.5 17.25 L 6.42 17.29 L 6.33 17.33 L 6.25 17.38 L 6.17 17.42 L 6.08 17.46 L 6.0 17.5 L 5.92 17.54 L 5.83 17.58 L 5.75 17.62 L 5.67 17.67 L 5.58 17.71 L 5.5 17.75 L 5.42 17.79 L 5.33 17.83 L 5.25 17.88 L 5.17 17.92 L 5.08 17.96 L 5.0 18.0" fill="none" stroke="#111" stroke-width="1.30" stroke-linecap="round" stroke-linejoin="round"/>
<path d="M 5.0 16.0 L 5.17 16.17 L 5.33 16.33 L 5.5 16.5 L 5.67 16.67 L 5.83 16.83 L 6.0 17.0 L 6.17 17.17 L 6.33 17.33 L 6.5 17.5 L 6.67 17.67 L 6.83 17.83 L 7.0 18.0 L 7.17 18.17 L 7.33 18.33 L 7.5 18.5 L 7.67 18.67 L 7.83 18.83 L 8.0 19.0 L 8.17 19.17 L 8.33 19.33 L 8.5 19.5 L 8.67 19.67 L 8.83 19.83 L 9.0 20.0" fill="none" stroke="#111" stroke-width="1.30" stroke-linecap="round" stroke-linejoin="round"/>
<path d="M 20.0 12.0 L 19.88 12.08 L 19.75 12.17 L 19.62 12.25 L 19.5 12.33 L 19.38 12.42 L 19.25 12.5 L 19.12 12.58 L 19.0 12.67 L 18.88 12.75 L 18.75 12.83 L 18.62 12.92 L 18.5 13.0 L 18.38 13.08 L 18.25 13.17 L 18.12 13.25 L 18.0 13.33 L 17.88 13.42 L 17.75 13.5 L 17.62 13.58 L 17.5 13.67 L 17.38 13.75 L 17.25 13.83 L 17.12 13.92 L 17.0 14.0 L 17.0 14.0 L 16.92 14.17 L 16.83 14.33 L 16.75 14.5 L 16.67 14.67 L 16.58 14.83 L 16.5 15.0 L 16.42 15.17 L 16.33 15.33 L 16.25 15.5 L 16.17 15.67 L 16.08 15.83 L 16.0 16.0 L 15.92 16.17 L 15.83 16.33 L 15.75 16.5 L 15.67 16.67 L 15.58 16.83 L 15.5 17.0 L 15.42 17.17 L 15.33 17.33 L 15.25 17.5 L 15.17 17.67 L 15.08 17.83 L 15.0 18.0" fill="none" stroke="#111" stroke-width="1.30" stroke-linecap="round" stroke-linejoin="round"/>
<path d="M 17.0 11.0 L 17.12 11.17 L 17.25 11.33 L 17.38 11.5 L 17.5 11.67 L 17.62 11.83 L 17.75 12.0 L 17.88 12.17 L 18.0 12.33 L 18.12 12.5 L 18.25 12.67 L 18.38 12.83 L 18.5 13.0 L 18.62 13.17 L 18.75 13.33 L 18.88 13.5 L 19.0 13.67 L 19.12 13.83 L 19.25 14.0 L 19.38 14.17 L 19.5 14.33 L 19.62 14.5 L 19.75 14.67 L 19.88 14.83 L 20.0 15.0" fill="none" stroke="#111" stroke-width="1.30" stroke-linecap="round" stroke-linejoin="round"/>
<path d="M 11.0 18.0 L 11.17 18.0 L 11.33 18.0 L 11.5 18.0 L 11.67 18.0 L 11.83 18.0 L 12.0 18.0 L 12.17 18.0 L 12.33 18.0 L 12.5 18.0 L 12.67 18.0 L 12.83 18.0 L 13.0 18.0 L 13.17 18.0 L 13.33 18.0 L 13.5 18.0 L 13.67 18.0 L 13.83 18.0 L 14.0 18.0 L 14.17 18.0 L 14.33 18.0 L 14.5 18.0 L 14.67 18.0 L 14.83 18.0 L 15.0 18.0" fill="none" stroke="#111" stroke-width="1.30" stroke-linecap="round" stroke-linejoin="round"/>
<path d="M 10.0 20.0 L 10.17 20.0 L 10.33 20.0 L 10.5 20.0 L 10.67 20.0 L 10.83 20.0 L 11.0 20.0 L 11.17 20.0 L 11.33 20.0 L 11.5 20.0 L 11.67 20.0 L 11.83 20.0 L 12.0 20.0 L 12.17 20.0 L 12.33 20.0 L 12.5 20.0 L 12.67 20.0 L 12.83 20.0 L 13.0 20.0 L 13.17 20.0 L 13.33 20.0 L 13.5 20.0 L 13.67 20.0 L 13.83 20.0 L 14.0 20.0" fill="none" stroke="#111" stroke-width="1.30" stroke-linecap="round" stroke-linejoin="round"/>
<path d="M 9.0 23.0 L 9.25 22.96 L 9.5 22.92 L 9.75 22.88 L 10.0 22.83 L 10.25 22.79 L 10.5 22.75 L 10.75 22.71 L 11.0 22.67 L 11.25 22.62 L 11.5 22.58 L 11.75 22.54 L 12.0 22.5 L 12.25 22.46 L 12.5 22.42 L 12.75 22.38 L 13.0 22.33 L 13.25 22.29 L 13.5 22.25 L 13.75 22.21 L 14.0 22.17 L 14.25 22.12 L 14.5 22.08 L 14.75 22.04 L 15.0 22.0" fill="none" stroke="#111" stroke-width="1.30" stroke-linecap="round" stroke-linejoin="round"/>
<path d="M 9.0 26.0 L 9.21 26.0 L 9.42 26.0 L 9.62 26.0 L 9.83 26.0 L 10.04 26.0 L 10.25 26.0 L 10.46 26.0 L 10.67 26.0 L 10.88 26.0 L 11.08 26.0 L 11.29 26.0 L 11.5 26.0 L 11.71 26.0 L 11.92 26.0 L 12.12 26.0 L 12.33 26.0 L 12.54 26.0 L 12.75 26.0 L 12.96 26.0 L 13.17 26.0 L 13.38 26.0 L 13.58 26.0 L 13.79 26.0 L 14.0 26.0" fill="none" stroke="#111" stroke-width="1.30" stroke-linecap="round" stroke-linejoin="round"/>
<path d="M 12.0 16.0 L 12.0 16.5 L 12.0 17.0 L 12.0 17.5 L 12.0 18.0 L 12.0 18.5 L 12.0 19.0 L 12.0 19.5 L 12.0 20.0 L 12.0 20.5 L 12.0 21.0 L 12.0 21.5 L 12.0 22.0 L 12.0 22.5 L 12.0 23.0 L 12.0 23.5 L 12.0 24.0 L 12.0 24.5 L 12.0 25.0 L 12.0 25.5 L 12.0 26.0 L 12.0 26.5 L 12.0 27.0 L 12.0 27.5 L 12.0 28.0" fill="none" stroke="#111" stroke-width="1.30" stroke-linecap="round" stroke-linejoin="round"/>
<path d="M 9.0 27.0 L 8.82 27.0 L 8.65 27.01 L 8.47 27.03 L 8.3 27.08 L 8.13 27.13 L 7.97 27.2 L 7.82 27.29 L 7.67 27.39 L 7.53 27.5 L 7.41 27.62 L 7.29 27.75 L 7.19 27.89 L 7.09 28.04 L 7.02 28.2 L 6.95 28.37 L 6.9 28.54 L 6.87 28.71 L 6.85 28.88 L 6.85 29.06 L 6.86 29.24 L 6.89 29.41 L 6.93 29.58 L 6.99 29.75 L 7.06 29.91 L 7.0 30.0 L 6.88 30.12 L 6.75 30.25 L 6.62 30.38 L 6.5 30.5 L 6.38 30.62 L 6.25 30.75 L 6.12 30.88 L 6.0 31.0 L 5.88 31.12 L 5.75 31.25 L 5.62 31.38 L 5.5 31.5 L 5.38 31.62 L 5.25 31.75 L 5.12 31.88 L 5.0 32.0 L 4.88 32.12 L 4.75 32.25 L 4.62 32.38 L 4.5 32.5 L 4.38 32.62 L 4.25 32.75 L 4.12 32.88 L 4.0 33.0" fill="none" stroke="#111" stroke-width="1.30" stroke-linecap="round" stroke-linejoin="round"/>
<path d="M 16.0 25.0 L 16.08 25.04 L 16.17 25.08 L 16.25 25.12 L 16.33 25.17 L 16.42 25.21 L 16.5 25.25 L 16.58 25.29 L 16.67 25.33 L 16.75 25.38 L 16.83 25.42 L 16.92 25.46 L 17.0 25.5 L 17.08 25.54 L 17.17 25.58 L 17.25 25.62 L 17.33 25.67 L 17.42 25.71 L 17.5 25.75 L 17.58 25.79 L 17.67 25.83 L 17.75 25.88 L 17.83 25.92 L 17.92 25.96 L 18.0 26.0" fill="none" stroke="#111" stroke-width="1.30" stroke-linecap="round" stroke-linejoin="round"/>
<path d="M 18.0 26.0 L 18.02 26.25 L 18.06 26.5 L 18.1 26.74 L 18.16 26.99 L 18.22 27.23 L 18.29 27.47 L 18.37 27.7 L 18.46 27.93 L 18.56 28.16 L 18.67 28.39 L 18.78 28.61 L 18.91 28.83 L 19.04 29.04 L 19.18 29.24 L 19.33 29.45 L 19.48 29.64 L 19.65 29.83 L 19.82 30.01 L 20.0 30.19 L 20.18 30.36 L 20.37 30.52 L 20.57 30.67 L 20.77 30.82 L 20.97 30.96" fill="none" stroke="#111" stroke-width="1.30" stroke-linecap="round" stroke-linejoin="round"/>
</svg>
