<?xml version="1.0" encoding="UTF-8"?>
<svg xmlns="http://www.w3.org/2000/svg" viewBox="0 0 20.00 28.74">
<path d="M 4.0 5.0 L 4.39 5.76 L 4.75 6.53 L 5.08 7.31 L 5.38 8.11 L 5.65 8.91 L 5.89 9.73 L 6.1 10.55 L 6.29 11.38 L 6.44 12.22 L 6.56 13.06 L 6.65 13.91 L 6.7 14.76 L 6.73 15.61 L 6.73 16.46 L 6.69 17.31 L 6.62 18.16 L 6.53 19.0 L 6.4 19.84 L 6.24 20.68 L 6.05 21.51 L 5.83 22.33 L 5.58 23.14 L 5.3 23.95 L 4.99 24.74" fill="none" stroke="#111" stroke-width="1.01" stroke-linecap="round" stroke-linejoin="round"/>
<path d="M 7.0 10.0 L 7.17 9.75 L 7.33 9.5 L 7.5 9.25 L 7.67 9.0 L 7.83 8.75 L 8.0 8.5 L 8.17 8.25 L 8.33 8.0 L 8.5 7.75 L 8.67 7.5 L 8.83 7.25 L 9.0 7.0 L 9.17 6.75 L 9.33 6.5 L 9.5 6.25 L 9.67 6.0 L 9.83 5.75 L 10.0 5.5 L 10.17 5.25 L 10.33 5.0 L 10.5 4.75 L 10.67 4.5 L 10.83 4.25 L 11.0 4.0 L 11.0 4.0 L 11.21 4.25 L 11.42 4.5 L 11.62 4.75 L 11.83 5.0 L 12.04 5.25 L 12.25 5.5 L 12.46 5.75 L 12.67 6.0 L 12.88 6.25 L 13.08 6.5 L 13.29 6.75 L 13.5 7.0 L 13.71 7.25 L 13.92 7.5 L 14.12 7.75 L 14.33 8.0 L 14.54 8.25 L 14.75 8.5 L 14.96 8.75 L 15.17 9.0 L 15.38 9.25 L 15.58 9.5 L 15.79 9.75 L 16.0 10.0" fill="none" stroke="#111" stroke-width="1.01" stroke-linecap="round" stroke-linejoin="round"/>
<path d="M 7.0 13.0 L 7.33 13.0 L 7.67 13.0 L 8.0 13.0 L 8.33 13.0 L 8.67 13.0 L 9.0 13.0 L 9.33 13.0 L 9.67 13.0 L 10.0 13.0 L 10.33 13.0 L 10.67 13.0 L 11.0 13.0 L 11.33 13.0 L 11.67 13.0 L 12.0 13.0 L 12.33 13.0 L 12.67 13.0 L 13.0 13.0 L 13.33 13.0 L 13.67 13.0 L 14.0 13.0 L 14.33 13.0 L 14.67 13.0 L 15.0 13.0" fill="none" stroke="#111" stroke-width="1.01" stroke-linecap="round" stroke-linejoin="round"/>
<path d="M 11.0 4.0 L 11.26 4.76 L 11.49 5.52 L 11.68 6.3 L 11.83 7.09 L 11.94 7.88 L 12.02 8.68 L 12.06 9.48 L 12.06 10.28 L 12.02 11.08 L 11.94 11.87 L 11.82 12.66 L 11.67 13.45 L 11.47 14.23 L 11.24 14.99 L 10.98 15.75 L 10.67 16.49 L 10.34 17.21 L 9.97 17.92 L 9.56 18.61 L 9.12 19.28 L 8.65 19.93 L 8.15 20.55 L 7.62 21.15 L 7.06 21.73" fill="none" stroke="#111" stroke-width="1.01" stroke-linecap="round" stroke-linejoin="round"/>
<path d="M 11.0 16.0 L 11.21 16.29 L 11.42 16.58 L 11.62 16.88 L 11.83 17.17 L 12.04 17.46 L 12.25 17.75 L 12.46 18.04 L 12.67 18.33 L 12.88 18.62 L 13.08 18.92 L 13.29 19.21 L 13.5 19.5 L 13.71 19.79 L 13.92 20.08 L 14.12 20.38 L 14.33 20.67 L 14.54 20.96 L 14.75 21.25 L 14.96 21.54 L 15.17 21.83 L 15.38 22.12 L 15.58 22.42 L 15.79 22.71 L 16.0 23.0" fill="none" stroke="#111" stroke-width="1.01" stroke-linecap="round" stroke-linejoin="round"/>
</svg>
