<?xml version="1.0" encoding="UTF-8"?>
<svg xmlns="http://www.w3.org/2000/svg" viewBox="0 0 27.06 40.94">
<path d="M 8.21 4.0 L 8.33 4.62 L 8.46 5.25 L 8.58 5.88 L 8.71 6.5 L 8.83 7.12 L 8.96 7.75 L 9.08 8.38 L 9.21 9.0 L 9.33 9.62 L 9.46 10.25 L 9.58 10.88 L 9.71 11.5 L 9.83 12.13 L 9.96 12.75 L 10.08 13.38 L 10.21 14.0 L 10.33 14.63 L 10.46 15.25 L 10.58 15.88 L 10.71 16.5 L 10.83 17.12 L 10.96 17.75 L 11.08 18.38 L 11.21 19.0 L 11.21 19.0 L 10.27 19.29 L 9.36 19.67 L 8.5 20.14 L 7.69 20.71 L 6.94 21.35 L 6.26 22.06 L 5.67 22.85 L 5.15 23.69 L 4.73 24.57 L 4.4 25.5 L 4.16 26.46 L 4.03 27.43 L 4.0 28.42 L 4.07 29.4 L 4.24 30.37 L 4.52 31.32 L 4.88 32.23 L 5.34 33.1 L 5.89 33.92 L 6.52 34.67 L 7.23 35.36 L 8.0 35.97 L 8.83 36.5 L 9.71 36.94" fill="none" stroke="#111" stroke-width="1.43" stroke-linecap="round" stroke-linejoin="round"/>
<path d="M 5.21 12.0 L 5.5 11.79 L 5.79 11.58 L 6.08 11.38 L 6.37 11.17 L 6.67 10.96 L 6.96 10.75 L 7.25 10.54 L 7.54 10.33 L 7.83 10.12 L 8.12 9.92 L 8.42 9.71 L 8.71 9.5 L 9.0 9.29 L 9.29 9.08 L 9.58 8.88 L 9.87 8.67 L 10.17 8.46 L 10.46 8.25 L 10.75 8.04 L 11.04 7.83 L 11.33 7.62 L 11.62 7.42 L 11.92 7.21 L 12.21 7.0 L 12.21 7.0 L 12.45 7.57 L 12.64 8.15 L 12.78 8.75 L 12.87 9.36 L 12.9 9.97 L 12.89 10.58 L 12.83 11.2 L 12.71 11.8 L 12.54 12.39 L 12.33 12.97 L 12.07 13.52 L 11.76 14.05 L 11.41 14.56 L 11.02 15.03 L 10.59 15.47 L 10.12 15.87 L 9.62 16.23 L 9.1 16.55 L 8.54 16.82 L 7.97 17.05 L 7.38 17.22 L 6.78 17.35 L 6.17 17.42 L 5.56 17.45" fill="none" stroke="#111" stroke-width="1.43" stroke-linecap="round" stroke-linejoin="round"/>
<path d="M 5.21 11.0 L 5.25 11.25 L 5.29 11.5 L 5.33 11.75 L 5.37 12.0 L 5.42 12.25 L 5.46 12.5 L 5.5 12.75 L 5.54 13.0 L 5.58 13.25 L 5.62 13.5 L 5.67 13.75 L 5.71 14.0 L 5.75 14.25 L 5.79 14.5 L 5.83 14.75 L 5.87 15.0 L 5.92 15.25 L 5.96 15.5 L 6.0 15.75 L 6.04 16.0 L 6.08 16.25 L 6.12 16.5 L 6.17 16.75 L 6.21 17.0" fill="none" stroke="#111" stroke-width="1.43" stroke-linecap="round" stroke-linejoin="round"/>
<path d="M 15.21 15.0 L 14.87 14.33 L 14.66 13.61 L 14.58 12.87 L 14.63 12.12 L 14.81 11.39 L 15.12 10.71 L 15.54 10.09 L 16.07 9.56 L 16.68 9.12 L 17.35 8.8 L 18.08 8.6 L 18.82 8.54 L 19.57 8.6 L 20.29 8.8 L 20.97 9.12 L 21.58 9.56 L 22.1 10.09 L 22.53 10.71 L 22.83 11.39 L 23.01 12.12 L 23.06 12.87 L 22.98 13.61 L 22.77 14.33 L 22.44 15.0 L 21.21 15.0 L 20.96 15.0 L 20.71 15.0 L 20.46 15.0 L 20.21 15.0 L 19.96 15.0 L 19.71 15.0 L 19.46 15.0 L 19.21 15.0 L 18.96 15.0 L 18.71 15.0 L 18.46 15.0 L 18.21 15.0 L 17.96 15.0 L 17.71 15.0 L 17.46 15.0 L 17.21 15.0 L 16.96 15.0 L 16.71 15.0 L 16.46 15.0 L 16.21 15.0 L 15.96 15.0 L 15.71 15.0 L 15.46 15.0 L 15.21 15.0" fill="none" stroke="#111" stroke-width="1.43" stroke-linecap="round" stroke-linejoin="round"/>
<path d="M 15.21 12.0 L 15.37 12.0 L 15.54 12.0 L 15.71 12.0 L 15.87 12.0 L 16.04 12.0 L 16.21 12.0 L 16.37 12.0 L 16.54 12.0 L 16.71 12.0 L 16.87 12.0 L 17.04 12.0 L 17.21 12.0 L 17.37 12.0 L 17.54 12.0 L 17.71 12.0 L 17.87 12.0 L 18.04 12.0 L 18.21 12.0 L 18.37 12.0 L 18.54 12.0 L 18.71 12.0 L 18.87 12.0 L 19.04 12.0 L 19.21 12.0" fill="none" stroke="#111" stroke-width="1.43" stroke-linecap="round" stroke-linejoin="round"/>
</svg>
