<?xml version="1.0" encoding="UTF-8"?>
<svg xmlns="http://www.w3.org/2000/svg" viewBox="0 0 28.34 33.42">
<path d="M 9.27 6.0 L 9.1 6.33 L 8.95 6.66 L 8.82 7.01 L 8.71 7.36 L 8.63 7.72 L 8.57 8.08 L 8.53 8.45 L 8.52 8.81 L 8.53 9.18 L 8.56 9.55 L 8.62 9.91 L 8.69 10.27 L 8.79 10.63 L 8.92 10.97 L 9.06 11.31 L 9.23 11.64 L 9.41 11.96 L 9.62 12.26 L 9.84 12.55 L 10.08 12.83 L 10.34 13.09 L 10.62 13.34 L 10.91 13.56 L 11.21 13.77 L 11.27 14.0 L 11.84 14.13 L 12.43 14.21 L 13.01 14.23 L 13.6 14.19 L 14.18 14.09 L 14.75 13.94 L 15.3 13.73 L 15.83 13.46 L 16.33 13.15 L 16.79 12.79 L 17.22 12.38 L 17.6 11.93 L 17.94 11.45 L 18.23 10.94 L 18.47 10.4 L 18.65 9.84 L 18.77 9.26 L 18.84 8.68 L 18.85 8.09 L 18.8 7.5 L 18.7 6.92 L 18.53 6.36 L 18.32 5.81 L 18.05 5.29" fill="none" stroke="#111" stroke-width="1.17" stroke-linecap="round" stroke-linejoin="round"/>
<path d="M 13.27 4.0 L 13.38 4.34 L 13.47 4.69 L 13.55 5.04 L 13.6 5.39 L 13.65 5.75 L 13.67 6.11 L 13.68 6.46 L 13.67 6.82 L 13.64 7.18 L 13.6 7.54 L 13.53 7.89 L 13.46 8.24 L 13.36 8.58 L 13.25 8.93 L 13.12 9.26 L 12.98 9.59 L 12.82 9.91 L 12.64 10.22 L 12.45 10.53 L 12.25 10.82 L 12.03 11.1 L 11.8 11.38 L 11.55 11.64 L 11.29 11.89" fill="none" stroke="#111" stroke-width="1.17" stroke-linecap="round" stroke-linejoin="round"/>
<path d="M 13.27 8.0 L 13.35 8.08 L 13.43 8.17 L 13.52 8.25 L 13.6 8.33 L 13.68 8.42 L 13.77 8.5 L 13.85 8.58 L 13.93 8.67 L 14.02 8.75 L 14.1 8.83 L 14.18 8.92 L 14.27 9.0 L 14.35 9.08 L 14.43 9.17 L 14.52 9.25 L 14.6 9.33 L 14.68 9.42 L 14.77 9.5 L 14.85 9.58 L 14.93 9.67 L 15.02 9.75 L 15.1 9.83 L 15.18 9.92 L 15.27 10.0" fill="none" stroke="#111" stroke-width="1.17" stroke-linecap="round" stroke-linejoin="round"/>
<path d="M 4.27 21.0 L 4.07 21.79 L 4.0 22.59 L 4.06 23.4 L 4.24 24.19 L 4.55 24.94 L 4.96 25.63 L 5.49 26.25 L 6.1 26.78 L 6.79 27.2 L 7.54 27.51 L 8.32 27.7 L 9.13 27.77 L 9.94 27.7 L 10.72 27.51 L 11.47 27.2 L 12.16 26.78 L 12.77 26.25 L 13.3 25.63 L 13.72 24.94 L 14.02 24.19 L 14.2 23.4 L 14.26 22.59 L 14.19 21.79 L 13.99 21.0" fill="none" stroke="#111" stroke-width="1.17" stroke-linecap="round" stroke-linejoin="round"/>
<path d="M 9.27 19.0 L 9.14 19.29 L 9.02 19.58 L 8.89 19.88 L 8.77 20.17 L 8.64 20.46 L 8.52 20.75 L 8.39 21.04 L 8.27 21.33 L 8.14 21.62 L 8.02 21.92 L 7.89 22.21 L 7.77 22.5 L 7.64 22.79 L 7.52 23.08 L 7.39 23.38 L 7.27 23.67 L 7.14 23.96 L 7.02 24.25 L 6.89 24.54 L 6.77 24.83 L 6.64 25.12 L 6.52 25.42 L 6.39 25.71 L 6.27 26.0" fill="none" stroke="#111" stroke-width="1.17" stroke-linecap="round" stroke-linejoin="round"/>
<path d="M 8.27 23.0 L 8.39 23.12 L 8.52 23.25 L 8.64 23.38 L 8.77 23.5 L 8.89 23.62 L 9.02 23.75 L 9.14 23.88 L 9.27 24.0 L 9.39 24.12 L 9.52 24.25 L 9.64 24.38 L 9.77 24.5 L 9.89 24.62 L 10.02 24.75 L 10.14 24.88 L 10.27 25.0 L 10.39 25.12 L 10.52 25.25 L 10.64 25.38 L 10.77 25.5 L 10.89 25.62 L 11.02 25.75 L 11.14 25.88 L 11.27 26.0" fill="none" stroke="#111" stroke-width="1.17" stroke-linecap="round" stroke-linejoin="round"/>
<path d="M 14.27 24.0 L 14.27 24.78 L 14.39 25.56 L 14.63 26.3 L 14.99 27.0 L 15.44 27.64 L 15.99 28.2 L 16.62 28.66 L 17.32 29.03 L 18.06 29.28 L 18.83 29.41 L 19.62 29.42 L 20.39 29.31 L 21.14 29.08 L 21.85 28.74 L 22.49 28.29 L 23.06 27.75 L 23.54 27.13 L 23.91 26.44 L 24.17 25.7 L 24.32 24.93 L 24.34 24.15 L 24.24 23.37 L 24.03 22.62 L 23.7 21.9" fill="none" stroke="#111" stroke-width="1.17" stroke-linecap="round" stroke-linejoin="round"/>
<path d="M 19.27 20.0 L 19.41 20.36 L 19.53 20.73 L 19.62 21.1 L 19.69 21.48 L 19.74 21.86 L 19.76 22.24 L 19.75 22.63 L 19.73 23.01 L 19.67 23.39 L 19.6 23.77 L 19.5 24.14 L 19.37 24.51 L 19.23 24.86 L 19.06 25.21 L 18.87 25.54 L 18.66 25.87 L 18.42 26.17 L 18.17 26.47 L 17.9 26.74 L 17.62 27.0 L 17.32 27.24 L 17.0 27.46 L 16.67 27.66 L 16.33 27.83" fill="none" stroke="#111" stroke-width="1.17" stroke-linecap="round" stroke-linejoin="round"/>
<path d="M 19.27 25.0 L 19.31 25.08 L 19.35 25.17 L 19.39 25.25 L 19.43 25.33 L 19.48 25.42 L 19.52 25.5 L 19.56 25.58 L 19.6 25.67 L 19.64 25.75 L 19.68 25.83 L 19.73 25.92 L 19.77 26.0 L 19.81 26.08 L 19.85 26.17 L 19.89 26.25 L 19.93 26.33 L 19.98 26.42 L 20.02 26.5 L 20.06 26.58 L 20.1 26.67 L 20.14 26.75 L 20.18 26.83 L 20.23 26.92 L 20.27 27.0" fill="none" stroke="#111" stroke-width="1.17" stroke-linecap="round" stroke-linejoin="round"/>
</svg>
