<?xml version="1.0" encoding="UTF-8"?>
<svg xmlns="http://www.w3.org/2000/svg" viewBox="0 0 22.00 28.00">
<path d="M 9.0 6.0 L 8.49 6.6 L 8.03 7.24 L 7.61 7.91 L 7.24 8.61 L 6.93 9.33 L 6.66 10.07 L 6.45 10.83 L 6.29 11.6 L 6.18 12.38 L 6.14 13.17 L 6.15 13.96 L 6.21 14.74 L 6.33 15.52 L 6.5 16.29 L 6.73 17.04 L 7.01 17.78 L 7.35 18.49 L 7.73 19.18 L 8.16 19.84 L 8.64 20.47 L 9.16 21.06 L 9.72 21.62 L 10.32 22.13 L 10.95 22.6 L 11.0 23.0 L 11.71 22.48 L 12.38 21.91 L 12.99 21.27 L 13.54 20.59 L 14.03 19.86 L 14.46 19.09 L 14.82 18.29 L 15.11 17.46 L 15.33 16.61 L 15.47 15.74 L 15.53 14.86 L 15.52 13.99 L 15.44 13.11 L 15.27 12.25 L 15.04 11.4 L 14.73 10.58 L 14.35 9.78 L 13.9 9.02 L 13.39 8.31 L 12.82 7.64 L 12.19 7.02 L 11.52 6.46 L 10.79 5.96 L 10.03 5.53" fill="none" stroke="#111" stroke-width="0.98" stroke-linecap="round" stroke-linejoin="round"/>
<path d="M 4.0 24.0 L 4.54 23.96 L 5.08 23.92 L 5.62 23.88 L 6.17 23.83 L 6.71 23.79 L 7.25 23.75 L 7.79 23.71 L 8.33 23.67 L 8.88 23.62 L 9.42 23.58 L 9.96 23.54 L 10.5 23.5 L 11.04 23.46 L 11.58 23.42 L 12.13 23.38 L 12.67 23.33 L 13.21 23.29 L 13.75 23.25 L 14.29 23.21 L 14.83 23.17 L 15.38 23.12 L 15.92 23.08 L 16.46 23.04 L 17.0 23.0" fill="none" stroke="#111" stroke-width="0.98" stroke-linecap="round" stroke-linejoin="round"/>
<path d="M 6.0 4.0 L 6.04 4.12 L 6.08 4.25 L 6.12 4.38 L 6.17 4.5 L 6.21 4.62 L 6.25 4.75 L 6.29 4.88 L 6.33 5.0 L 6.38 5.12 L 6.42 5.25 L 6.46 5.38 L 6.5 5.5 L 6.54 5.62 L 6.58 5.75 L 6.62 5.88 L 6.67 6.0 L 6.71 6.12 L 6.75 6.25 L 6.79 6.38 L 6.83 6.5 L 6.88 6.62 L 6.92 6.75 L 6.96 6.88 L 7.0 7.0" fill="none" stroke="#111" stroke-width="0.98" stroke-linecap="round" stroke-linejoin="round"/>
<path d="M 4.0 10.0 L 4.0 10.17 L 4.0 10.33 L 4.0 10.5 L 4.0 10.67 L 4.0 10.83 L 4.0 11.0 L 4.0 11.17 L 4.0 11.33 L 4.0 11.5 L 4.0 11.67 L 4.0 11.83 L 4.0 12.0 L 4.0 12.17 L 4.0 12.33 L 4.0 12.5 L 4.0 12.67 L 4.0 12.83 L 4.0 13.0 L 4.0 13.17 L 4.0 13.33 L 4.0 13.5 L 4.0 13.67 L 4.0 13.83 L 4.0 14.0" fill="none" stroke="#111" stroke-width="0.98" stroke-linecap="round" stroke-linejoin="round"/>
<path d="M 15.0 5.0 L 15.12 5.21 L 15.25 5.42 L 15.38 5.62 L 15.5 5.83 L 15.62 6.04 L 15.75 6.25 L 15.88 6.46 L 16.0 6.67 L 16.12 6.88 L 16.25 7.08 L 16.38 7.29 L 16.5 7.5 L 16.62 7.71 L 16.75 7.92 L 16.88 8.12 L 17.0 8.33 L 17.12 8.54 L 17.25 8.75 L 17.38 8.96 L 17.5 9.17 L 17.62 9.38 L 17.75 9.58 L 17.88 9.79 L 18.0 10.0" fill="none" stroke="#111" stroke-width="0.98" stroke-linecap="round" stroke-linejoin="round"/>
</svg>
