<?xml version="1.0" encoding="UTF-8"?>
<svg xmlns="http://www.w3.org/2000/svg" viewBox="0 0 23.00 31.00">
<path d="M 8.0 5.0 L 7.88 5.62 L 7.86 6.26 L 7.93 6.89 L 8.1 7.5 L 8.36 8.08 L 8.7 8.61 L 9.12 9.08 L 9.61 9.48 L 10.16 9.81 L 10.75 10.04 L 11.36 10.19 L 12.0 10.24 L 12.63 10.19 L 13.25 10.04 L 13.83 9.81 L 14.38 9.48 L 14.87 9.08 L 15.29 8.61 L 15.63 8.08 L 15.89 7.5 L 16.06 6.89 L 16.14 6.26 L 16.11 5.62 L 15.99 5.0" fill="none" stroke="#111" stroke-width="1.09" stroke-linecap="round" stroke-linejoin="round"/>
<path d="M 8.0 5.0 L 7.83 5.38 L 7.67 5.75 L 7.5 6.12 L 7.33 6.5 L 7.17 6.88 L 7.0 7.25 L 6.83 7.62 L 6.67 8.0 L 6.5 8.38 L 6.33 8.75 L 6.17 9.12 L 6.0 9.5 L 5.83 9.88 L 5.67 10.25 L 5.5 10.62 L 5.33 11.0 L 5.17 11.38 L 5.0 11.75 L 4.83 12.12 L 4.67 12.5 L 4.5 12.88 L 4.33 13.25 L 4.17 13.62 L 4.0 14.0" fill="none" stroke="#111" stroke-width="1.09" stroke-linecap="round" stroke-linejoin="round"/>
<path d="M 15.0 4.0 L 15.17 4.38 L 15.33 4.75 L 15.5 5.12 L 15.67 5.5 L 15.83 5.88 L 16.0 6.25 L 16.17 6.62 L 16.33 7.0 L 16.5 7.38 L 16.67 7.75 L 16.83 8.12 L 17.0 8.5 L 17.17 8.88 L 17.33 9.25 L 17.5 9.62 L 17.67 10.0 L 17.83 10.38 L 18.0 10.75 L 18.17 11.12 L 18.33 11.5 L 18.5 11.88 L 18.67 12.25 L 18.83 12.62 L 19.0 13.0" fill="none" stroke="#111" stroke-width="1.09" stroke-linecap="round" stroke-linejoin="round"/>
<path d="M 11.0 13.0 L 11.0 13.58 L 11.0 14.17 L 11.0 14.75 L 11.0 15.33 L 11.0 15.92 L 11.0 16.5 L 11.0 17.08 L 11.0 17.67 L 11.0 18.25 L 11.0 18.83 L 11.0 19.42 L 11.0 20.0 L 11.0 20.58 L 11.0 21.17 L 11.0 21.75 L 11.0 22.33 L 11.0 22.92 L 11.0 23.5 L 11.0 24.08 L 11.0 24.67 L 11.0 25.25 L 11.0 25.83 L 11.0 26.42 L 11.0 27.0" fill="none" stroke="#111" stroke-width="1.09" stroke-linecap="round" stroke-linejoin="round"/>
<path d="M 7.0 15.0 L 7.21 15.25 L 7.42 15.5 L 7.62 15.75 L 7.83 16.0 L 8.04 16.25 L 8.25 16.5 L 8.46 16.75 L 8.67 17.0 L 8.88 17.25 L 9.08 17.5 L 9.29 17.75 L 9.5 18.0 L 9.71 18.25 L 9.92 18.5 L 10.12 18.75 L 10.33 19.0 L 10.54 19.25 L 10.75 19.5 L 10.96 19.75 L 11.17 20.0 L 11.38 20.25 L 11.58 20.5 L 11.79 20.75 L 12.0 21.0 L 12.0 21.0 L 12.17 20.75 L 12.33 20.5 L 12.5 20.25 L 12.67 20.0 L 12.83 19.75 L 13.0 19.5 L 13.17 19.25 L 13.33 19.0 L 13.5 18.75 L 13.67 18.5 L 13.83 18.25 L 14.0 18.0 L 14.17 17.75 L 14.33 17.5 L 14.5 17.25 L 14.67 17.0 L 14.83 16.75 L 15.0 16.5 L 15.17 16.25 L 15.33 16.0 L 15.5 15.75 L 15.67 15.5 L 15.83 15.25 L 16.0 15.0" fill="none" stroke="#111" stroke-width="1.09" stroke-linecap="round" stroke-linejoin="round"/>
</svg>
