<?xml version="1.0" encoding="UTF-8"?>
<svg xmlns="http://www.w3.org/2000/svg" viewBox="0 0 18.00 32.00">
<path d="M 10.0 4.0 L 9.96 5.0 L 9.92 6.0 L 9.88 7.0 L 9.83 8.0 L 9.79 9.0 L 9.75 10.0 L 9.71 11.0 L 9.67 12.0 L 9.62 13.0 L 9.58 14.0 L 9.54 15.0 L 9.5 16.0 L 9.46 17.0 L 9.42 18.0 L 9.37 19.0 L 9.33 20.0 L 9.29 21.0 L 9.25 22.0 L 9.21 23.0 L 9.17 24.0 L 9.12 25.0 L 9.08 26.0 L 9.04 27.0 L 9.0 28.0" fill="none" stroke="#111" stroke-width="1.12" stroke-linecap="round" stroke-linejoin="round"/>
<path d="M 4.0 11.0 L 4.42 11.0 L 4.83 11.0 L 5.25 11.0 L 5.67 11.0 L 6.08 11.0 L 6.5 11.0 L 6.92 11.0 L 7.33 11.0 L 7.75 11.0 L 8.17 11.0 L 8.58 11.0 L 9.0 11.0 L 9.42 11.0 L 9.83 11.0 L 10.25 11.0 L 10.67 11.0 L 11.08 11.0 L 11.5 11.0 L 11.92 11.0 L 12.33 11.0 L 12.75 11.0 L 13.17 11.0 L 13.58 11.0 L 14.0 11.0" fill="none" stroke="#111" stroke-width="1.12" stroke-linecap="round" stroke-linejoin="round"/>
<path d="M 5.0 11.0 L 5.17 11.38 L 5.33 11.75 L 5.5 12.12 L 5.67 12.5 L 5.83 12.88 L 6.0 13.25 L 6.17 13.62 L 6.33 14.0 L 6.5 14.38 L 6.67 14.75 L 6.83 15.12 L 7.0 15.5 L 7.17 15.88 L 7.33 16.25 L 7.5 16.62 L 7.67 17.0 L 7.83 17.38 L 8.0 17.75 L 8.17 18.12 L 8.33 18.5 L 8.5 18.88 L 8.67 19.25 L 8.83 19.62 L 9.0 20.0" fill="none" stroke="#111" stroke-width="1.12" stroke-linecap="round" stroke-linejoin="round"/>
<path d="M 14.0 11.0 L 13.83 11.38 L 13.67 11.75 L 13.5 12.12 L 13.33 12.5 L 13.17 12.88 L 13.0 13.25 L 12.83 13.62 L 12.67 14.0 L 12.5 14.38 L 12.33 14.75 L 12.17 15.12 L 12.0 15.5 L 11.83 15.88 L 11.67 16.25 L 11.5 16.62 L 11.33 17.0 L 11.17 17.38 L 11.0 17.75 L 10.83 18.12 L 10.67 18.5 L 10.5 18.88 L 10.33 19.25 L 10.17 19.62 L 10.0 20.0" fill="none" stroke="#111" stroke-width="1.12" stroke-linecap="round" stroke-linejoin="round"/>
</svg>
