<?xml version="1.0" encoding="UTF-8"?>
<svg xmlns="http://www.w3.org/2000/svg" viewBox="0 0 22.06 33.12">
<path d="M 8.0 4.0 L 8.04 4.5 L 8.08 5.0 L 8.12 5.5 L 8.17 6.0 L 8.21 6.5 L 8.25 7.0 L 8.29 7.5 L 8.33 8.0 L 8.38 8.5 L 8.42 9.0 L 8.46 9.5 L 8.5 10.0 L 8.54 10.5 L 8.58 11.0 L 8.62 11.5 L 8.67 12.0 L 8.71 12.5 L 8.75 13.0 L 8.79 13.5 L 8.83 14.0 L 8.88 14.5 L 8.92 15.0 L 8.96 15.5 L 9.0 16.0" fill="none" stroke="#111" stroke-width="1.16" stroke-linecap="round" stroke-linejoin="round"/>
<path d="M 5.0 7.0 L 5.33 7.29 L 5.67 7.58 L 6.0 7.88 L 6.33 8.17 L 6.67 8.46 L 7.0 8.75 L 7.33 9.04 L 7.67 9.33 L 8.0 9.62 L 8.33 9.92 L 8.67 10.21 L 9.0 10.5 L 9.33 10.79 L 9.67 11.08 L 10.0 11.38 L 10.33 11.67 L 10.67 11.96 L 11.0 12.25 L 11.33 12.54 L 11.67 12.83 L 12.0 13.12 L 12.33 13.42 L 12.67 13.71 L 13.0 14.0" fill="none" stroke="#111" stroke-width="1.16" stroke-linecap="round" stroke-linejoin="round"/>
<path d="M 12.0 6.0 L 11.88 6.17 L 11.75 6.33 L 11.62 6.5 L 11.5 6.67 L 11.38 6.83 L 11.25 7.0 L 11.12 7.17 L 11.0 7.33 L 10.88 7.5 L 10.75 7.67 L 10.62 7.83 L 10.5 8.0 L 10.38 8.17 L 10.25 8.33 L 10.12 8.5 L 10.0 8.67 L 9.88 8.83 L 9.75 9.0 L 9.62 9.17 L 9.5 9.33 L 9.38 9.5 L 9.25 9.67 L 9.12 9.83 L 9.0 10.0" fill="none" stroke="#111" stroke-width="1.16" stroke-linecap="round" stroke-linejoin="round"/>
<path d="M 8.0 14.0 L 7.83 14.12 L 7.67 14.25 L 7.5 14.38 L 7.33 14.5 L 7.17 14.62 L 7.0 14.75 L 6.83 14.88 L 6.67 15.0 L 6.5 15.12 L 6.33 15.25 L 6.17 15.38 L 6.0 15.5 L 5.83 15.62 L 5.67 15.75 L 5.5 15.88 L 5.33 16.0 L 5.17 16.12 L 5.0 16.25 L 4.83 16.38 L 4.67 16.5 L 4.5 16.62 L 4.33 16.75 L 4.17 16.88 L 4.0 17.0" fill="none" stroke="#111" stroke-width="1.16" stroke-linecap="round" stroke-linejoin="round"/>
<path d="M 9.0 16.0 L 8.77 16.51 L 8.56 17.03 L 8.35 17.55 L 8.15 18.08 L 7.97 18.61 L 7.8 19.14 L 7.63 19.68 L 7.48 20.22 L 7.34 20.76 L 7.21 21.31 L 7.1 21.86 L 6.99 22.41 L 6.9 22.96 L 6.81 23.52 L 6.74 24.08 L 6.68 24.63 L 6.63 25.19 L 6.59 25.75 L 6.57 26.31 L 6.56 26.88 L 6.55 27.44 L 6.56 28.0 L 6.58 28.56 L 6.61 29.12" fill="none" stroke="#111" stroke-width="1.16" stroke-linecap="round" stroke-linejoin="round"/>
<path d="M 9.0 16.0 L 9.08 16.12 L 9.17 16.25 L 9.25 16.38 L 9.33 16.5 L 9.42 16.62 L 9.5 16.75 L 9.58 16.88 L 9.67 17.0 L 9.75 17.12 L 9.83 17.25 L 9.92 17.38 L 10.0 17.5 L 10.08 17.62 L 10.17 17.75 L 10.25 17.88 L 10.33 18.0 L 10.42 18.12 L 10.5 18.25 L 10.58 18.38 L 10.67 18.5 L 10.75 18.62 L 10.83 18.75 L 10.92 18.88 L 11.0 19.0 L 11.0 19.0 L 11.0 19.38 L 11.0 19.75 L 11.0 20.12 L 11.0 20.5 L 11.0 20.88 L 11.0 21.25 L 11.0 21.62 L 11.0 22.0 L 11.0 22.38 L 11.0 22.75 L 11.0 23.12 L 11.0 23.5 L 11.0 23.88 L 11.0 24.25 L 11.0 24.62 L 11.0 25.0 L 11.0 25.38 L 11.0 25.75 L 11.0 26.12 L 11.0 26.5 L 11.0 26.88 L 11.0 27.25 L 11.0 27.62 L 11.0 28.0" fill="none" stroke="#111" stroke-width="1.16" stroke-linecap="round" stroke-linejoin="round"/>
<path d="M 5.0 29.0 L 5.38 29.0 L 5.75 29.0 L 6.12 29.0 L 6.5 29.0 L 6.88 29.0 L 7.25 29.0 L 7.62 29.0 L 8.0 29.0 L 8.38 29.0 L 8.75 29.0 L 9.12 29.0 L 9.5 29.0 L 9.88 29.0 L 10.25 29.0 L 10.62 29.0 L 11.0 29.0 L 11.38 29.0 L 11.75 29.0 L 12.12 29.0 L 12.5 29.0 L 12.88 29.0 L 13.25 29.0 L 13.62 29.0 L 14.0 29.0" fill="none" stroke="#111" stroke-width="1.16" stroke-linecap="round" stroke-linejoin="round"/>
<path d="M 12.0 5.0 L 12.53 5.61 L 13.05 6.23 L 13.54 6.87 L 14.01 7.53 L 14.45 8.2 L 14.87 8.89 L 15.27 9.59 L 15.64 10.31 L 15.99 11.04 L 16.31 11.78 L 16.6 12.53 L 16.87 13.29 L 17.11 14.06 L 17.33 14.84 L 17.52 15.63 L 17.68 16.42 L 17.81 17.21 L 17.91 18.01 L 17.99 18.82 L 18.04 19.62 L 18.06 20.43 L 18.05 21.24 L 18.01 22.04 L 17.95 22.85" fill="none" stroke="#111" stroke-width="1.16" stroke-linecap="round" stroke-linejoin="round"/>
<path d="M 15.0 4.0 L 15.12 4.17 L 15.25 4.33 L 15.38 4.5 L 15.5 4.67 L 15.62 4.83 L 15.75 5.0 L 15.88 5.17 L 16.0 5.33 L 16.12 5.5 L 16.25 5.67 L 16.38 5.83 L 16.5 6.0 L 16.62 6.17 L 16.75 6.33 L 16.88 6.5 L 17.0 6.67 L 17.12 6.83 L 17.25 7.0 L 17.38 7.17 L 17.5 7.33 L 17.62 7.5 L 17.75 7.67 L 17.88 7.83 L 18.0 8.0" fill="none" stroke="#111" stroke-width="1.16" stroke-linecap="round" stroke-linejoin="round"/>
<path d="M 18.0 8.0 L 17.79 8.17 L 17.58 8.33 L 17.38 8.5 L 17.17 8.67 L 16.96 8.83 L 16.75 9.0 L 16.54 9.17 L 16.33 9.33 L 16.12 9.5 L 15.92 9.67 L 15.71 9.83 L 15.5 10.0 L 15.29 10.17 L 15.08 10.33 L 14.88 10.5 L 14.67 10.67 L 14.46 10.83 L 14.25 11.0 L 14.04 11.17 L 13.83 11.33 L 13.62 11.5 L 13.42 11.67 L 13.21 11.83 L 13.0 12.0" fill="none" stroke="#111" stroke-width="1.16" stroke-linecap="round" stroke-linejoin="round"/>
</svg>
