<?xml version="1.0" encoding="UTF-8"?>
<svg xmlns="http://www.w3.org/2000/svg" viewBox="0 0 24.80 29.56">
<path d="M 11.06 4.0 L 10.61 4.5 L 10.19 5.03 L 9.81 5.59 L 9.46 6.17 L 9.15 6.76 L 8.88 7.38 L 8.65 8.02 L 8.46 8.66 L 8.31 9.32 L 8.2 9.99 L 8.14 10.66 L 8.12 11.33 L 8.14 12.01 L 8.2 12.68 L 8.31 13.35 L 8.46 14.0 L 8.65 14.65 L 8.88 15.28 L 9.15 15.9 L 9.46 16.5 L 9.81 17.08 L 10.19 17.64 L 10.61 18.17 L 11.06 18.67" fill="none" stroke="#111" stroke-width="1.03" stroke-linecap="round" stroke-linejoin="round"/>
<path d="M 11.06 4.0 L 11.61 4.42 L 12.12 4.89 L 12.6 5.39 L 13.04 5.92 L 13.44 6.49 L 13.79 7.08 L 14.11 7.7 L 14.37 8.33 L 14.59 8.99 L 14.76 9.66 L 14.89 10.34 L 14.96 11.03 L 14.98 11.72 L 14.95 12.41 L 14.87 13.1 L 14.74 13.78 L 14.56 14.44 L 14.33 15.1 L 14.05 15.73 L 13.73 16.34 L 13.37 16.93 L 12.96 17.49 L 12.51 18.02 L 12.03 18.51" fill="none" stroke="#111" stroke-width="1.03" stroke-linecap="round" stroke-linejoin="round"/>
<path d="M 6.06 19.0 L 6.52 19.0 L 6.98 19.0 L 7.44 19.0 L 7.89 19.0 L 8.35 19.0 L 8.81 19.0 L 9.27 19.0 L 9.73 19.0 L 10.19 19.0 L 10.64 19.0 L 11.1 19.0 L 11.56 19.0 L 12.02 19.0 L 12.48 19.0 L 12.94 19.0 L 13.39 19.0 L 13.85 19.0 L 14.31 19.0 L 14.77 19.0 L 15.23 19.0 L 15.69 19.0 L 16.14 19.0 L 16.6 19.0 L 17.06 19.0" fill="none" stroke="#111" stroke-width="1.03" stroke-linecap="round" stroke-linejoin="round"/>
<path d="M 4.06 6.0 L 4.32 6.25 L 4.56 6.51 L 4.79 6.79 L 5.01 7.07 L 5.22 7.36 L 5.41 7.67 L 5.58 7.98 L 5.74 8.3 L 5.89 8.63 L 6.02 8.97 L 6.13 9.31 L 6.22 9.65 L 6.3 10.0 L 6.36 10.35 L 6.41 10.71 L 6.43 11.07 L 6.44 11.43 L 6.44 11.78 L 6.41 12.14 L 6.37 12.5 L 6.31 12.85 L 6.24 13.2 L 6.14 13.55 L 6.03 13.89 L 6.06 14.0 L 6.14 14.21 L 6.23 14.42 L 6.31 14.62 L 6.39 14.83 L 6.48 15.04 L 6.56 15.25 L 6.64 15.46 L 6.73 15.67 L 6.81 15.88 L 6.89 16.08 L 6.98 16.29 L 7.06 16.5 L 7.14 16.71 L 7.23 16.92 L 7.31 17.12 L 7.39 17.33 L 7.48 17.54 L 7.56 17.75 L 7.64 17.96 L 7.73 18.17 L 7.81 18.38 L 7.89 18.58 L 7.98 18.79 L 8.06 19.0" fill="none" stroke="#111" stroke-width="1.03" stroke-linecap="round" stroke-linejoin="round"/>
<path d="M 7.06 13.0 L 6.78 13.44 L 6.51 13.89 L 6.26 14.34 L 6.01 14.81 L 5.78 15.27 L 5.57 15.75 L 5.36 16.23 L 5.17 16.72 L 5.0 17.21 L 4.84 17.71 L 4.69 18.21 L 4.55 18.71 L 4.43 19.22 L 4.33 19.73 L 4.24 20.25 L 4.16 20.76 L 4.1 21.28 L 4.05 21.8 L 4.02 22.32 L 4.0 22.84 L 4.0 23.37 L 4.01 23.89 L 4.04 24.41 L 4.08 24.93" fill="none" stroke="#111" stroke-width="1.03" stroke-linecap="round" stroke-linejoin="round"/>
<path d="M 16.06 14.0 L 16.6 14.22 L 17.13 14.49 L 17.62 14.79 L 18.1 15.14 L 18.54 15.52 L 18.95 15.94 L 19.32 16.39 L 19.66 16.87 L 19.96 17.37 L 20.21 17.9 L 20.42 18.45 L 20.58 19.01 L 20.7 19.58 L 20.78 20.16 L 20.8 20.75 L 20.78 21.33 L 20.7 21.92 L 20.59 22.49 L 20.42 23.05 L 20.21 23.6 L 19.96 24.13 L 19.66 24.63 L 19.33 25.11 L 18.95 25.56" fill="none" stroke="#111" stroke-width="1.03" stroke-linecap="round" stroke-linejoin="round"/>
<path d="M 17.06 9.0 L 17.19 9.21 L 17.31 9.42 L 17.44 9.62 L 17.56 9.83 L 17.69 10.04 L 17.81 10.25 L 17.94 10.46 L 18.06 10.67 L 18.19 10.88 L 18.31 11.08 L 18.44 11.29 L 18.56 11.5 L 18.69 11.71 L 18.81 11.92 L 18.94 12.12 L 19.06 12.33 L 19.19 12.54 L 19.31 12.75 L 19.44 12.96 L 19.56 13.17 L 19.69 13.38 L 19.81 13.58 L 19.94 13.79 L 20.06 14.0" fill="none" stroke="#111" stroke-width="1.03" stroke-linecap="round" stroke-linejoin="round"/>
<path d="M 20.06 14.0 L 19.89 14.17 L 19.73 14.33 L 19.56 14.5 L 19.39 14.67 L 19.23 14.83 L 19.06 15.0 L 18.89 15.17 L 18.73 15.33 L 18.56 15.5 L 18.39 15.67 L 18.23 15.83 L 18.06 16.0 L 17.89 16.17 L 17.73 16.33 L 17.56 16.5 L 17.39 16.67 L 17.23 16.83 L 17.06 17.0 L 16.89 17.17 L 16.73 17.33 L 16.56 17.5 L 16.39 17.67 L 16.23 17.83 L 16.06 18.0" fill="none" stroke="#111" stroke-width="1.03" stroke-linecap="round" stroke-linejoin="round"/>
</svg>
