<?xml version="1.0" encoding="UTF-8"?>
<svg xmlns="http://www.w3.org/2000/svg" viewBox="0 0 21.00 35.91">
<path d="M 6.0 4.0 L 6.08 4.21 L 6.17 4.42 L 6.25 4.62 L 6.33 4.83 L 6.42 5.04 L 6.5 5.25 L 6.58 5.46 L 6.67 5.67 L 6.75 5.88 L 6.83 6.08 L 6.92 6.29 L 7.0 6.5 L 7.08 6.71 L 7.17 6.92 L 7.25 7.12 L 7.33 7.33 L 7.42 7.54 L 7.5 7.75 L 7.58 7.96 L 7.67 8.17 L 7.75 8.38 L 7.83 8.58 L 7.92 8.79 L 8.0 9.0" fill="none" stroke="#111" stroke-width="1.26" stroke-linecap="round" stroke-linejoin="round"/>
<path d="M 6.0 4.0 L 5.92 4.17 L 5.83 4.33 L 5.75 4.5 L 5.67 4.67 L 5.58 4.83 L 5.5 5.0 L 5.42 5.17 L 5.33 5.33 L 5.25 5.5 L 5.17 5.67 L 5.08 5.83 L 5.0 6.0 L 4.92 6.17 L 4.83 6.33 L 4.75 6.5 L 4.67 6.67 L 4.58 6.83 L 4.5 7.0 L 4.42 7.17 L 4.33 7.33 L 4.25 7.5 L 4.17 7.67 L 4.08 7.83 L 4.0 8.0" fill="none" stroke="#111" stroke-width="1.26" stroke-linecap="round" stroke-linejoin="round"/>
<path d="M 10.0 4.0 L 9.92 4.21 L 9.83 4.42 L 9.75 4.62 L 9.67 4.83 L 9.58 5.04 L 9.5 5.25 L 9.42 5.46 L 9.33 5.67 L 9.25 5.88 L 9.17 6.08 L 9.08 6.29 L 9.0 6.5 L 8.92 6.71 L 8.83 6.92 L 8.75 7.12 L 8.67 7.33 L 8.58 7.54 L 8.5 7.75 L 8.42 7.96 L 8.33 8.17 L 8.25 8.38 L 8.17 8.58 L 8.08 8.79 L 8.0 9.0" fill="none" stroke="#111" stroke-width="1.26" stroke-linecap="round" stroke-linejoin="round"/>
<path d="M 10.0 4.0 L 10.08 4.17 L 10.17 4.33 L 10.25 4.5 L 10.33 4.67 L 10.42 4.83 L 10.5 5.0 L 10.58 5.17 L 10.67 5.33 L 10.75 5.5 L 10.83 5.67 L 10.92 5.83 L 11.0 6.0 L 11.08 6.17 L 11.17 6.33 L 11.25 6.5 L 11.33 6.67 L 11.42 6.83 L 11.5 7.0 L 11.58 7.17 L 11.67 7.33 L 11.75 7.5 L 11.83 7.67 L 11.92 7.83 L 12.0 8.0" fill="none" stroke="#111" stroke-width="1.26" stroke-linecap="round" stroke-linejoin="round"/>
<path d="M 8.0 9.0 L 7.96 9.25 L 7.92 9.5 L 7.88 9.75 L 7.83 10.0 L 7.79 10.25 L 7.75 10.5 L 7.71 10.75 L 7.67 11.0 L 7.62 11.25 L 7.58 11.5 L 7.54 11.75 L 7.5 12.0 L 7.46 12.25 L 7.42 12.5 L 7.38 12.75 L 7.33 13.0 L 7.29 13.25 L 7.25 13.5 L 7.21 13.75 L 7.17 14.0 L 7.12 14.25 L 7.08 14.5 L 7.04 14.75 L 7.0 15.0" fill="none" stroke="#111" stroke-width="1.26" stroke-linecap="round" stroke-linejoin="round"/>
<path d="M 6.0 9.0 L 6.04 9.12 L 6.08 9.25 L 6.12 9.38 L 6.17 9.5 L 6.21 9.62 L 6.25 9.75 L 6.29 9.88 L 6.33 10.0 L 6.38 10.12 L 6.42 10.25 L 6.46 10.38 L 6.5 10.5 L 6.54 10.62 L 6.58 10.75 L 6.62 10.88 L 6.67 11.0 L 6.71 11.12 L 6.75 11.25 L 6.79 11.38 L 6.83 11.5 L 6.88 11.62 L 6.92 11.75 L 6.96 11.88 L 7.0 12.0" fill="none" stroke="#111" stroke-width="1.26" stroke-linecap="round" stroke-linejoin="round"/>
<path d="M 10.0 9.0 L 9.92 9.12 L 9.83 9.25 L 9.75 9.38 L 9.67 9.5 L 9.58 9.62 L 9.5 9.75 L 9.42 9.88 L 9.33 10.0 L 9.25 10.12 L 9.17 10.25 L 9.08 10.38 L 9.0 10.5 L 8.92 10.62 L 8.83 10.75 L 8.75 10.88 L 8.67 11.0 L 8.58 11.12 L 8.5 11.25 L 8.42 11.38 L 8.33 11.5 L 8.25 11.62 L 8.17 11.75 L 8.08 11.88 L 8.0 12.0" fill="none" stroke="#111" stroke-width="1.26" stroke-linecap="round" stroke-linejoin="round"/>
<path d="M 10.0 12.0 L 10.29 12.21 L 10.58 12.42 L 10.88 12.62 L 11.17 12.83 L 11.46 13.04 L 11.75 13.25 L 12.04 13.46 L 12.33 13.67 L 12.62 13.88 L 12.92 14.08 L 13.21 14.29 L 13.5 14.5 L 13.79 14.71 L 14.08 14.92 L 14.38 15.12 L 14.67 15.33 L 14.96 15.54 L 15.25 15.75 L 15.54 15.96 L 15.83 16.17 L 16.12 16.38 L 16.42 16.58 L 16.71 16.79 L 17.0 17.0" fill="none" stroke="#111" stroke-width="1.26" stroke-linecap="round" stroke-linejoin="round"/>
<path d="M 13.0 14.0 L 12.79 14.38 L 12.58 14.75 L 12.38 15.12 L 12.17 15.5 L 11.96 15.88 L 11.75 16.25 L 11.54 16.62 L 11.33 17.0 L 11.12 17.38 L 10.92 17.75 L 10.71 18.12 L 10.5 18.5 L 10.29 18.88 L 10.08 19.25 L 9.88 19.62 L 9.67 20.0 L 9.46 20.38 L 9.25 20.75 L 9.04 21.12 L 8.83 21.5 L 8.62 21.88 L 8.42 22.25 L 8.21 22.62 L 8.0 23.0" fill="none" stroke="#111" stroke-width="1.26" stroke-linecap="round" stroke-linejoin="round"/>
<path d="M 10.0 19.0 L 10.08 19.21 L 10.17 19.42 L 10.25 19.62 L 10.33 19.83 L 10.42 20.04 L 10.5 20.25 L 10.58 20.46 L 10.67 20.67 L 10.75 20.88 L 10.83 21.08 L 10.92 21.29 L 11.0 21.5 L 11.08 21.71 L 11.17 21.92 L 11.25 22.12 L 11.33 22.33 L 11.42 22.54 L 11.5 22.75 L 11.58 22.96 L 11.67 23.17 L 11.75 23.38 L 11.83 23.58 L 11.92 23.79 L 12.0 24.0 L 12.0 24.0 L 11.75 24.12 L 11.5 24.25 L 11.25 24.38 L 11.0 24.5 L 10.75 24.62 L 10.5 24.75 L 10.25 24.88 L 10.0 25.0 L 9.75 25.12 L 9.5 25.25 L 9.25 25.38 L 9.0 25.5 L 8.75 25.62 L 8.5 25.75 L 8.25 25.88 L 8.0 26.0 L 7.75 26.12 L 7.5 26.25 L 7.25 26.38 L 7.0 26.5 L 6.75 26.62 L 6.5 26.75 L 6.25 26.88 L 6.0 27.0" fill="none" stroke="#111" stroke-width="1.26" stroke-linecap="round" stroke-linejoin="round"/>
<path d="M 9.0 22.0 L 9.26 22.35 L 9.51 22.71 L 9.74 23.08 L 9.96 23.46 L 10.16 23.84 L 10.35 24.24 L 10.52 24.64 L 10.68 25.05 L 10.82 25.46 L 10.95 25.88 L 11.06 26.3 L 11.15 26.72 L 11.23 27.15 L 11.29 27.59 L 11.33 28.02 L 11.36 28.46 L 11.37 28.89 L 11.37 29.33 L 11.34 29.76 L 11.3 30.2 L 11.25 30.63 L 11.18 31.06 L 11.09 31.49 L 10.98 31.91" fill="none" stroke="#111" stroke-width="1.26" stroke-linecap="round" stroke-linejoin="round"/>
</svg>
