<?xml version="1.0" encoding="UTF-8"?>
<svg xmlns="http://www.w3.org/2000/svg" viewBox="0 0 24.00 46.74">
<path d="M 7.0 6.0 L 7.04 6.25 L 7.08 6.5 L 7.12 6.75 L 7.17 7.0 L 7.21 7.25 L 7.25 7.5 L 7.29 7.75 L 7.33 8.0 L 7.38 8.25 L 7.42 8.5 L 7.46 8.75 L 7.5 9.0 L 7.54 9.25 L 7.58 9.5 L 7.62 9.75 L 7.67 10.0 L 7.71 10.25 L 7.75 10.5 L 7.79 10.75 L 7.83 11.0 L 7.88 11.25 L 7.92 11.5 L 7.96 11.75 L 8.0 12.0" fill="none" stroke="#111" stroke-width="1.64" stroke-linecap="round" stroke-linejoin="round"/>
<path d="M 7.0 6.0 L 7.17 5.96 L 7.33 5.92 L 7.5 5.88 L 7.67 5.83 L 7.83 5.79 L 8.0 5.75 L 8.17 5.71 L 8.33 5.67 L 8.5 5.62 L 8.67 5.58 L 8.83 5.54 L 9.0 5.5 L 9.17 5.46 L 9.33 5.42 L 9.5 5.38 L 9.67 5.33 L 9.83 5.29 L 10.0 5.25 L 10.17 5.21 L 10.33 5.17 L 10.5 5.12 L 10.67 5.08 L 10.83 5.04 L 11.0 5.0" fill="none" stroke="#111" stroke-width="1.64" stroke-linecap="round" stroke-linejoin="round"/>
<path d="M 11.0 5.0 L 10.96 5.29 L 10.92 5.58 L 10.88 5.88 L 10.83 6.17 L 10.79 6.46 L 10.75 6.75 L 10.71 7.04 L 10.67 7.33 L 10.62 7.62 L 10.58 7.92 L 10.54 8.21 L 10.5 8.5 L 10.46 8.79 L 10.42 9.08 L 10.38 9.38 L 10.33 9.67 L 10.29 9.96 L 10.25 10.25 L 10.21 10.54 L 10.17 10.83 L 10.12 11.12 L 10.08 11.42 L 10.04 11.71 L 10.0 12.0" fill="none" stroke="#111" stroke-width="1.64" stroke-linecap="round" stroke-linejoin="round"/>
<path d="M 15.0 4.0 L 14.92 4.29 L 14.83 4.58 L 14.75 4.88 L 14.67 5.17 L 14.58 5.46 L 14.5 5.75 L 14.42 6.04 L 14.33 6.33 L 14.25 6.62 L 14.17 6.92 L 14.08 7.21 L 14.0 7.5 L 13.92 7.79 L 13.83 8.08 L 13.75 8.38 L 13.67 8.67 L 13.58 8.96 L 13.5 9.25 L 13.42 9.54 L 13.33 9.83 L 13.25 10.12 L 13.17 10.42 L 13.08 10.71 L 13.0 11.0" fill="none" stroke="#111" stroke-width="1.64" stroke-linecap="round" stroke-linejoin="round"/>
<path d="M 15.0 4.0 L 15.12 4.04 L 15.25 4.08 L 15.38 4.12 L 15.5 4.17 L 15.62 4.21 L 15.75 4.25 L 15.88 4.29 L 16.0 4.33 L 16.12 4.38 L 16.25 4.42 L 16.38 4.46 L 16.5 4.5 L 16.62 4.54 L 16.75 4.58 L 16.88 4.62 L 17.0 4.67 L 17.12 4.71 L 17.25 4.75 L 17.38 4.79 L 17.5 4.83 L 17.62 4.88 L 17.75 4.92 L 17.88 4.96 L 18.0 5.0" fill="none" stroke="#111" stroke-width="1.64" stroke-linecap="round" stroke-linejoin="round"/>
<path d="M 18.0 5.0 L 17.92 5.25 L 17.83 5.5 L 17.75 5.75 L 17.67 6.0 L 17.58 6.25 L 17.5 6.5 L 17.42 6.75 L 17.33 7.0 L 17.25 7.25 L 17.17 7.5 L 17.08 7.75 L 17.0 8.0 L 16.92 8.25 L 16.83 8.5 L 16.75 8.75 L 16.67 9.0 L 16.58 9.25 L 16.5 9.5 L 16.42 9.75 L 16.33 10.0 L 16.25 10.25 L 16.17 10.5 L 16.08 10.75 L 16.0 11.0" fill="none" stroke="#111" stroke-width="1.64" stroke-linecap="round" stroke-linejoin="round"/>
<path d="M 4.0 12.0 L 4.67 11.96 L 5.33 11.92 L 6.0 11.88 L 6.67 11.83 L 7.33 11.79 L 8.0 11.75 L 8.67 11.71 L 9.33 11.67 L 10.0 11.62 L 10.67 11.58 L 11.33 11.54 L 12.0 11.5 L 12.67 11.46 L 13.33 11.42 L 14.0 11.38 L 14.67 11.33 L 15.33 11.29 L 16.0 11.25 L 16.67 11.21 L 17.33 11.17 L 18.0 11.12 L 18.67 11.08 L 19.33 11.04 L 20.0 11.0" fill="none" stroke="#111" stroke-width="1.64" stroke-linecap="round" stroke-linejoin="round"/>
<path d="M 13.0 12.0 L 13.17 12.42 L 13.33 12.83 L 13.5 13.25 L 13.67 13.67 L 13.83 14.08 L 14.0 14.5 L 14.17 14.92 L 14.33 15.33 L 14.5 15.75 L 14.67 16.17 L 14.83 16.58 L 15.0 17.0 L 15.17 17.42 L 15.33 17.83 L 15.5 18.25 L 15.67 18.67 L 15.83 19.08 L 16.0 19.5 L 16.17 19.92 L 16.33 20.33 L 16.5 20.75 L 16.67 21.17 L 16.83 21.58 L 17.0 22.0" fill="none" stroke="#111" stroke-width="1.64" stroke-linecap="round" stroke-linejoin="round"/>
<path d="M 17.0 22.0 L 16.08 22.45 L 15.19 22.96 L 14.34 23.53 L 13.54 24.17 L 12.78 24.86 L 12.07 25.6 L 11.42 26.39 L 10.83 27.23 L 10.3 28.11 L 9.84 29.02 L 9.44 29.97 L 9.11 30.94 L 8.85 31.93 L 8.66 32.94 L 8.55 33.95 L 8.51 34.98 L 8.54 36.0 L 8.65 37.02 L 8.83 38.03 L 9.08 39.02 L 9.4 40.0 L 9.79 40.94 L 10.25 41.86 L 10.78 42.74" fill="none" stroke="#111" stroke-width="1.64" stroke-linecap="round" stroke-linejoin="round"/>
<path d="M 13.0 12.0 L 12.92 12.5 L 12.83 13.0 L 12.75 13.5 L 12.67 14.0 L 12.58 14.5 L 12.5 15.0 L 12.42 15.5 L 12.33 16.0 L 12.25 16.5 L 12.17 17.0 L 12.08 17.5 L 12.0 18.0 L 11.92 18.5 L 11.83 19.0 L 11.75 19.5 L 11.67 20.0 L 11.58 20.5 L 11.5 21.0 L 11.42 21.5 L 11.33 22.0 L 11.25 22.5 L 11.17 23.0 L 11.08 23.5 L 11.0 24.0" fill="none" stroke="#111" stroke-width="1.64" stroke-linecap="round" stroke-linejoin="round"/>
</svg>
