<?xml version="1.0" encoding="UTF-8"?>
<svg xmlns="http://www.w3.org/2000/svg" viewBox="0 0 30.30 44.61">
<path d="M 16.3 5.0 L 16.16 5.32 L 16.04 5.66 L 15.96 6.0 L 15.9 6.35 L 15.88 6.7 L 15.88 7.05 L 15.92 7.4 L 15.99 7.75 L 16.09 8.09 L 16.21 8.42 L 16.37 8.73 L 16.55 9.04 L 16.76 9.32 L 16.99 9.59 L 17.25 9.83 L 17.52 10.05 L 17.82 10.25 L 18.13 10.42 L 18.45 10.56 L 18.78 10.67 L 19.13 10.75 L 19.48 10.81 L 19.83 10.83 L 20.18 10.82" fill="none" stroke="#111" stroke-width="1.56" stroke-linecap="round" stroke-linejoin="round"/>
<path d="M 20.3 11.0 L 20.47 10.92 L 20.63 10.83 L 20.8 10.75 L 20.97 10.67 L 21.13 10.58 L 21.3 10.5 L 21.47 10.42 L 21.63 10.33 L 21.8 10.25 L 21.97 10.17 L 22.13 10.08 L 22.3 10.0 L 22.47 9.92 L 22.63 9.83 L 22.8 9.75 L 22.97 9.67 L 23.13 9.58 L 23.3 9.5 L 23.47 9.42 L 23.63 9.33 L 23.8 9.25 L 23.97 9.17 L 24.13 9.08 L 24.3 9.0" fill="none" stroke="#111" stroke-width="1.56" stroke-linecap="round" stroke-linejoin="round"/>
<path d="M 23.3 4.0 L 23.34 4.21 L 23.38 4.42 L 23.43 4.62 L 23.47 4.83 L 23.51 5.04 L 23.55 5.25 L 23.59 5.46 L 23.63 5.67 L 23.68 5.88 L 23.72 6.08 L 23.76 6.29 L 23.8 6.5 L 23.84 6.71 L 23.88 6.92 L 23.93 7.12 L 23.97 7.33 L 24.01 7.54 L 24.05 7.75 L 24.09 7.96 L 24.13 8.17 L 24.18 8.38 L 24.22 8.58 L 24.26 8.79 L 24.3 9.0" fill="none" stroke="#111" stroke-width="1.56" stroke-linecap="round" stroke-linejoin="round"/>
<path d="M 16.3 6.0 L 16.59 6.0 L 16.88 6.0 L 17.18 6.0 L 17.47 6.0 L 17.76 6.0 L 18.05 6.0 L 18.34 6.0 L 18.63 6.0 L 18.93 6.0 L 19.22 6.0 L 19.51 6.0 L 19.8 6.0 L 20.09 6.0 L 20.38 6.0 L 20.68 6.0 L 20.97 6.0 L 21.26 6.0 L 21.55 6.0 L 21.84 6.0 L 22.13 6.0 L 22.43 6.0 L 22.72 6.0 L 23.01 6.0 L 23.3 6.0" fill="none" stroke="#111" stroke-width="1.56" stroke-linecap="round" stroke-linejoin="round"/>
<path d="M 20.3 11.0 L 20.3 11.38 L 20.3 11.75 L 20.3 12.12 L 20.3 12.5 L 20.3 12.88 L 20.3 13.25 L 20.3 13.62 L 20.3 14.0 L 20.3 14.38 L 20.3 14.75 L 20.3 15.12 L 20.3 15.5 L 20.3 15.88 L 20.3 16.25 L 20.3 16.62 L 20.3 17.0 L 20.3 17.38 L 20.3 17.75 L 20.3 18.12 L 20.3 18.5 L 20.3 18.88 L 20.3 19.25 L 20.3 19.62 L 20.3 20.0 L 20.3 20.0 L 20.31 20.32 L 20.3 20.64 L 20.28 20.96 L 20.24 21.28 L 20.18 21.6 L 20.11 21.91 L 20.03 22.22 L 19.93 22.53 L 19.81 22.83 L 19.68 23.12 L 19.54 23.41 L 19.38 23.68 L 19.21 23.96 L 19.02 24.22 L 18.82 24.47 L 18.61 24.71 L 18.39 24.95 L 18.16 25.17 L 17.92 25.38 L 17.66 25.57 L 17.4 25.76 L 17.13 25.93 L 16.85 26.09 L 16.56 26.23" fill="none" stroke="#111" stroke-width="1.56" stroke-linecap="round" stroke-linejoin="round"/>
<path d="M 20.3 20.0 L 20.43 20.25 L 20.55 20.5 L 20.68 20.75 L 20.8 21.0 L 20.93 21.25 L 21.05 21.5 L 21.18 21.75 L 21.3 22.0 L 21.43 22.25 L 21.55 22.5 L 21.68 22.75 L 21.8 23.0 L 21.93 23.25 L 22.05 23.5 L 22.18 23.75 L 22.3 24.0 L 22.43 24.25 L 22.55 24.5 L 22.68 24.75 L 22.8 25.0 L 22.93 25.25 L 23.05 25.5 L 23.18 25.75 L 23.3 26.0" fill="none" stroke="#111" stroke-width="1.56" stroke-linecap="round" stroke-linejoin="round"/>
<path d="M 19.3 11.0 L 18.97 11.03 L 18.66 11.1 L 18.35 11.22 L 18.06 11.37 L 17.79 11.55 L 17.55 11.77 L 17.34 12.02 L 17.16 12.3 L 17.02 12.59 L 16.91 12.9 L 16.85 13.22 L 16.83 13.55 L 16.85 13.87 L 16.91 14.2 L 17.02 14.51 L 17.16 14.8 L 17.34 15.07 L 17.55 15.32 L 17.79 15.54 L 18.06 15.73 L 18.35 15.88 L 18.66 15.99 L 18.97 16.07 L 19.3 16.1 L 19.3 16.0 L 19.09 16.21 L 18.88 16.42 L 18.68 16.62 L 18.47 16.83 L 18.26 17.04 L 18.05 17.25 L 17.84 17.46 L 17.63 17.67 L 17.43 17.88 L 17.22 18.08 L 17.01 18.29 L 16.8 18.5 L 16.59 18.71 L 16.38 18.92 L 16.18 19.12 L 15.97 19.33 L 15.76 19.54 L 15.55 19.75 L 15.34 19.96 L 15.13 20.17 L 14.93 20.38 L 14.72 20.58 L 14.51 20.79 L 14.3 21.0" fill="none" stroke="#111" stroke-width="1.56" stroke-linecap="round" stroke-linejoin="round"/>
<path d="M 20.3 11.0 L 20.6 11.01 L 20.9 11.05 L 21.19 11.12 L 21.47 11.23 L 21.73 11.37 L 21.98 11.54 L 22.2 11.74 L 22.4 11.97 L 22.58 12.21 L 22.72 12.48 L 22.83 12.76 L 22.9 13.05 L 22.95 13.34 L 22.95 13.65 L 22.92 13.94 L 22.86 14.24 L 22.76 14.52 L 22.63 14.79 L 22.47 15.04 L 22.28 15.28 L 22.06 15.48 L 21.82 15.67 L 21.56 15.82 L 21.29 15.94 L 21.3 16.0 L 21.51 16.17 L 21.72 16.33 L 21.93 16.5 L 22.13 16.67 L 22.34 16.83 L 22.55 17.0 L 22.76 17.17 L 22.97 17.33 L 23.18 17.5 L 23.38 17.67 L 23.59 17.83 L 23.8 18.0 L 24.01 18.17 L 24.22 18.33 L 24.43 18.5 L 24.63 18.67 L 24.84 18.83 L 25.05 19.0 L 25.26 19.17 L 25.47 19.33 L 25.68 19.5 L 25.88 19.67 L 26.09 19.83 L 26.3 20.0" fill="none" stroke="#111" stroke-width="1.56" stroke-linecap="round" stroke-linejoin="round"/>
<path d="M 14.3 30.0 L 14.25 29.72 L 14.23 29.44 L 14.25 29.16 L 14.31 28.89 L 14.4 28.62 L 14.53 28.37 L 14.69 28.14 L 14.87 27.93 L 15.09 27.74 L 15.33 27.59 L 15.58 27.47 L 15.85 27.38 L 16.13 27.33 L 16.41 27.32 L 16.69 27.34 L 16.96 27.4 L 17.23 27.5 L 17.48 27.63 L 17.71 27.79 L 17.92 27.98 L 18.1 28.2 L 18.25 28.44 L 18.36 28.69 L 18.45 28.96 L 18.3 29.0 L 18.38 28.83 L 18.47 28.67 L 18.55 28.5 L 18.63 28.33 L 18.72 28.17 L 18.8 28.0 L 18.88 27.83 L 18.97 27.67 L 19.05 27.5 L 19.13 27.33 L 19.22 27.17 L 19.3 27.0 L 19.38 26.83 L 19.47 26.67 L 19.55 26.5 L 19.63 26.33 L 19.72 26.17 L 19.8 26.0 L 19.88 25.83 L 19.97 25.67 L 20.05 25.5 L 20.13 25.33 L 20.22 25.17 L 20.3 25.0 L 20.3 25.0 L 20.75 26.11 L 21.07 27.27 L 21.27 28.45 L 21.33 29.65 L 21.27 30.85 L 21.07 32.03 L 20.75 33.19 L 20.3 34.3 L 19.73 35.36 L 19.05 36.35 L 18.27 37.26 L 17.39 38.08 L 16.42 38.79 L 15.39 39.4 L 14.29 39.89 L 13.15 40.26 L 11.97 40.5 L 10.78 40.61 L 9.58 40.59 L 8.39 40.44 L 7.22 40.16 L 6.09 39.75 L 5.01 39.23 L 4.0 38.58" fill="none" stroke="#111" stroke-width="1.56" stroke-linecap="round" stroke-linejoin="round"/>
</svg>
