<?xml version="1.0" encoding="UTF-8"?>
<svg xmlns="http://www.w3.org/2000/svg" viewBox="0 0 24.33 34.89">
<path d="M 7.0 5.89 L 7.04 6.18 L 7.08 6.48 L 7.12 6.77 L 7.17 7.06 L 7.21 7.35 L 7.25 7.64 L 7.29 7.93 L 7.33 8.23 L 7.38 8.52 L 7.42 8.81 L 7.46 9.1 L 7.5 9.39 L 7.54 9.68 L 7.58 9.98 L 7.62 10.27 L 7.67 10.56 L 7.71 10.85 L 7.75 11.14 L 7.79 11.43 L 7.83 11.73 L 7.88 12.02 L 7.92 12.31 L 7.96 12.6 L 8.0 12.89" fill="none" stroke="#111" stroke-width="1.22" stroke-linecap="round" stroke-linejoin="round"/>
<path d="M 5.0 6.89 L 4.92 7.12 L 4.85 7.35 L 4.79 7.59 L 4.75 7.83 L 4.73 8.07 L 4.72 8.31 L 4.73 8.56 L 4.75 8.8 L 4.79 9.04 L 4.84 9.27 L 4.91 9.51 L 4.99 9.74 L 5.09 9.96 L 5.2 10.17 L 5.33 10.38 L 5.47 10.58 L 5.62 10.77 L 5.78 10.95 L 5.95 11.12 L 6.13 11.28 L 6.33 11.43 L 6.53 11.56 L 6.74 11.68 L 6.96 11.79" fill="none" stroke="#111" stroke-width="1.22" stroke-linecap="round" stroke-linejoin="round"/>
<path d="M 10.0 5.89 L 10.0 6.06 L 10.0 6.23 L 10.0 6.39 L 10.0 6.56 L 10.0 6.73 L 10.0 6.89 L 10.0 7.06 L 10.0 7.23 L 10.0 7.39 L 10.0 7.56 L 10.0 7.73 L 10.0 7.89 L 10.0 8.06 L 10.0 8.23 L 10.0 8.39 L 10.0 8.56 L 10.0 8.73 L 10.0 8.89 L 10.0 9.06 L 10.0 9.23 L 10.0 9.39 L 10.0 9.56 L 10.0 9.73 L 10.0 9.89" fill="none" stroke="#111" stroke-width="1.22" stroke-linecap="round" stroke-linejoin="round"/>
<path d="M 10.0 9.89 L 9.92 9.98 L 9.83 10.06 L 9.75 10.14 L 9.67 10.23 L 9.58 10.31 L 9.5 10.39 L 9.42 10.48 L 9.33 10.56 L 9.25 10.64 L 9.17 10.73 L 9.08 10.81 L 9.0 10.89 L 8.92 10.98 L 8.83 11.06 L 8.75 11.14 L 8.67 11.23 L 8.58 11.31 L 8.5 11.39 L 8.42 11.48 L 8.33 11.56 L 8.25 11.64 L 8.17 11.73 L 8.08 11.81 L 8.0 11.89" fill="none" stroke="#111" stroke-width="1.22" stroke-linecap="round" stroke-linejoin="round"/>
<path d="M 4.0 14.89 L 4.0 15.02 L 4.0 15.14 L 4.0 15.27 L 4.0 15.39 L 4.0 15.52 L 4.0 15.64 L 4.0 15.77 L 4.0 15.89 L 4.0 16.02 L 4.0 16.14 L 4.0 16.27 L 4.0 16.39 L 4.0 16.52 L 4.0 16.64 L 4.0 16.77 L 4.0 16.89 L 4.0 17.02 L 4.0 17.14 L 4.0 17.27 L 4.0 17.39 L 4.0 17.52 L 4.0 17.64 L 4.0 17.77 L 4.0 17.89" fill="none" stroke="#111" stroke-width="1.22" stroke-linecap="round" stroke-linejoin="round"/>
<path d="M 4.0 13.89 L 4.25 13.89 L 4.5 13.89 L 4.75 13.89 L 5.0 13.89 L 5.25 13.89 L 5.5 13.89 L 5.75 13.89 L 6.0 13.89 L 6.25 13.89 L 6.5 13.89 L 6.75 13.89 L 7.0 13.89 L 7.25 13.89 L 7.5 13.89 L 7.75 13.89 L 8.0 13.89 L 8.25 13.89 L 8.5 13.89 L 8.75 13.89 L 9.0 13.89 L 9.25 13.89 L 9.5 13.89 L 9.75 13.89 L 10.0 13.89" fill="none" stroke="#111" stroke-width="1.22" stroke-linecap="round" stroke-linejoin="round"/>
<path d="M 10.0 13.89 L 10.0 14.1 L 10.0 14.31 L 10.0 14.52 L 10.0 14.73 L 10.0 14.93 L 10.0 15.14 L 10.0 15.35 L 10.0 15.56 L 10.0 15.77 L 10.0 15.98 L 10.0 16.18 L 10.0 16.39 L 10.0 16.6 L 10.0 16.81 L 10.0 17.02 L 10.0 17.23 L 10.0 17.43 L 10.0 17.64 L 10.0 17.85 L 10.0 18.06 L 10.0 18.27 L 10.0 18.48 L 10.0 18.68 L 10.0 18.89" fill="none" stroke="#111" stroke-width="1.22" stroke-linecap="round" stroke-linejoin="round"/>
<path d="M 4.0 18.89 L 4.25 18.89 L 4.5 18.89 L 4.75 18.89 L 5.0 18.89 L 5.25 18.89 L 5.5 18.89 L 5.75 18.89 L 6.0 18.89 L 6.25 18.89 L 6.5 18.89 L 6.75 18.89 L 7.0 18.89 L 7.25 18.89 L 7.5 18.89 L 7.75 18.89 L 8.0 18.89 L 8.25 18.89 L 8.5 18.89 L 8.75 18.89 L 9.0 18.89 L 9.25 18.89 L 9.5 18.89 L 9.75 18.89 L 10.0 18.89" fill="none" stroke="#111" stroke-width="1.22" stroke-linecap="round" stroke-linejoin="round"/>
<path d="M 4.0 15.89 L 4.17 15.89 L 4.33 15.89 L 4.5 15.89 L 4.67 15.89 L 4.83 15.89 L 5.0 15.89 L 5.17 15.89 L 5.33 15.89 L 5.5 15.89 L 5.67 15.89 L 5.83 15.89 L 6.0 15.89 L 6.17 15.89 L 6.33 15.89 L 6.5 15.89 L 6.67 15.89 L 6.83 15.89 L 7.0 15.89 L 7.17 15.89 L 7.33 15.89 L 7.5 15.89 L 7.67 15.89 L 7.83 15.89 L 8.0 15.89" fill="none" stroke="#111" stroke-width="1.22" stroke-linecap="round" stroke-linejoin="round"/>
<path d="M 7.0 18.89 L 6.96 19.14 L 6.92 19.39 L 6.88 19.64 L 6.83 19.89 L 6.79 20.14 L 6.75 20.39 L 6.71 20.64 L 6.67 20.89 L 6.62 21.14 L 6.58 21.39 L 6.54 21.64 L 6.5 21.89 L 6.46 22.14 L 6.42 22.39 L 6.38 22.64 L 6.33 22.89 L 6.29 23.14 L 6.25 23.39 L 6.21 23.64 L 6.17 23.89 L 6.12 24.14 L 6.08 24.39 L 6.04 24.64 L 6.0 24.89" fill="none" stroke="#111" stroke-width="1.22" stroke-linecap="round" stroke-linejoin="round"/>
<path d="M 8.0 18.89 L 8.04 19.18 L 8.08 19.48 L 8.12 19.77 L 8.17 20.06 L 8.21 20.35 L 8.25 20.64 L 8.29 20.93 L 8.33 21.23 L 8.38 21.52 L 8.42 21.81 L 8.46 22.1 L 8.5 22.39 L 8.54 22.68 L 8.58 22.98 L 8.62 23.27 L 8.67 23.56 L 8.71 23.85 L 8.75 24.14 L 8.79 24.43 L 8.83 24.73 L 8.88 25.02 L 8.92 25.31 L 8.96 25.6 L 9.0 25.89" fill="none" stroke="#111" stroke-width="1.22" stroke-linecap="round" stroke-linejoin="round"/>
<path d="M 4.0 24.89 L 4.29 25.02 L 4.58 25.14 L 4.88 25.27 L 5.17 25.39 L 5.46 25.52 L 5.75 25.64 L 6.04 25.77 L 6.33 25.89 L 6.62 26.02 L 6.92 26.14 L 7.21 26.27 L 7.5 26.39 L 7.79 26.52 L 8.08 26.64 L 8.38 26.77 L 8.67 26.89 L 8.96 27.02 L 9.25 27.14 L 9.54 27.27 L 9.83 27.39 L 10.12 27.52 L 10.42 27.64 L 10.71 27.77 L 11.0 27.89" fill="none" stroke="#111" stroke-width="1.22" stroke-linecap="round" stroke-linejoin="round"/>
<path d="M 13.0 4.89 L 13.0 5.06 L 13.0 5.23 L 13.0 5.39 L 13.0 5.56 L 13.0 5.73 L 13.0 5.89 L 13.0 6.06 L 13.0 6.23 L 13.0 6.39 L 13.0 6.56 L 13.0 6.73 L 13.0 6.89 L 13.0 7.06 L 13.0 7.23 L 13.0 7.39 L 13.0 7.56 L 13.0 7.73 L 13.0 7.89 L 13.0 8.06 L 13.0 8.23 L 13.0 8.39 L 13.0 8.56 L 13.0 8.73 L 13.0 8.89 L 13.0 8.89 L 13.34 9.14 L 13.7 9.33 L 14.09 9.48 L 14.49 9.58 L 14.91 9.62 L 15.32 9.6 L 15.73 9.53 L 16.13 9.41 L 16.5 9.24 L 16.85 9.01 L 17.17 8.75 L 17.45 8.44 L 17.69 8.1 L 17.88 7.73 L 18.02 7.34 L 18.1 6.94 L 18.14 6.52 L 18.11 6.11 L 18.04 5.7 L 17.91 5.31 L 17.73 4.93 L 17.5 4.59 L 17.23 4.27 L 16.91 4.0" fill="none" stroke="#111" stroke-width="1.22" stroke-linecap="round" stroke-linejoin="round"/>
<path d="M 13.0 5.89 L 13.17 5.89 L 13.33 5.89 L 13.5 5.89 L 13.67 5.89 L 13.83 5.89 L 14.0 5.89 L 14.17 5.89 L 14.33 5.89 L 14.5 5.89 L 14.67 5.89 L 14.83 5.89 L 15.0 5.89 L 15.17 5.89 L 15.33 5.89 L 15.5 5.89 L 15.67 5.89 L 15.83 5.89 L 16.0 5.89 L 16.17 5.89 L 16.33 5.89 L 16.5 5.89 L 16.67 5.89 L 16.83 5.89 L 17.0 5.89" fill="none" stroke="#111" stroke-width="1.22" stroke-linecap="round" stroke-linejoin="round"/>
<path d="M 15.0 10.89 L 14.27 11.17 L 13.6 11.58 L 13.02 12.1 L 12.55 12.72 L 12.2 13.42 L 11.98 14.17 L 11.91 14.95 L 11.98 15.72 L 12.19 16.48 L 12.54 17.17 L 13.02 17.8 L 13.59 18.32 L 14.26 18.73 L 14.99 19.01 L 15.76 19.15 L 16.54 19.14 L 17.31 18.99 L 18.03 18.7 L 18.69 18.29 L 19.26 17.76 L 19.73 17.13 L 20.07 16.42 L 20.27 15.67 L 20.33 14.89 L 19.0 13.89 L 18.83 13.77 L 18.67 13.64 L 18.5 13.52 L 18.33 13.39 L 18.17 13.27 L 18.0 13.14 L 17.83 13.02 L 17.67 12.89 L 17.5 12.77 L 17.33 12.64 L 17.17 12.52 L 17.0 12.39 L 16.83 12.27 L 16.67 12.14 L 16.5 12.02 L 16.33 11.89 L 16.17 11.77 L 16.0 11.64 L 15.83 11.52 L 15.67 11.39 L 15.5 11.27 L 15.33 11.14 L 15.17 11.02 L 15.0 10.89" fill="none" stroke="#111" stroke-width="1.22" stroke-linecap="round" stroke-linejoin="round"/>
<path d="M 16.0 11.89 L 16.0 12.35 L 16.0 12.81 L 15.99 13.27 L 15.98 13.73 L 15.97 14.19 L 15.95 14.65 L 15.92 15.11 L 15.89 15.57 L 15.86 16.03 L 15.82 16.49 L 15.77 16.95 L 15.72 17.41 L 15.67 17.86 L 15.61 18.32 L 15.55 18.78 L 15.48 19.23 L 15.41 19.69 L 15.34 20.14 L 15.26 20.59 L 15.17 21.05 L 15.08 21.5 L 14.99 21.95 L 14.89 22.4 L 14.78 22.85" fill="none" stroke="#111" stroke-width="1.22" stroke-linecap="round" stroke-linejoin="round"/>
<path d="M 13.0 14.89 L 13.25 14.89 L 13.5 14.89 L 13.75 14.89 L 14.0 14.89 L 14.25 14.89 L 14.5 14.89 L 14.75 14.89 L 15.0 14.89 L 15.25 14.89 L 15.5 14.89 L 15.75 14.89 L 16.0 14.89 L 16.25 14.89 L 16.5 14.89 L 16.75 14.89 L 17.0 14.89 L 17.25 14.89 L 17.5 14.89 L 17.75 14.89 L 18.0 14.89 L 18.25 14.89 L 18.5 14.89 L 18.75 14.89 L 19.0 14.89" fill="none" stroke="#111" stroke-width="1.22" stroke-linecap="round" stroke-linejoin="round"/>
<path d="M 15.0 21.89 L 14.88 22.06 L 14.75 22.23 L 14.62 22.39 L 14.5 22.56 L 14.38 22.73 L 14.25 22.89 L 14.12 23.06 L 14.0 23.23 L 13.88 23.39 L 13.75 23.56 L 13.62 23.73 L 13.5 23.89 L 13.38 24.06 L 13.25 24.23 L 13.12 24.39 L 13.0 24.56 L 12.88 24.73 L 12.75 24.89 L 12.62 25.06 L 12.5 25.23 L 12.38 25.39 L 12.25 25.56 L 12.12 25.73 L 12.0 25.89" fill="none" stroke="#111" stroke-width="1.22" stroke-linecap="round" stroke-linejoin="round"/>
<path d="M 16.0 21.89 L 16.04 22.24 L 16.07 22.59 L 16.09 22.94 L 16.1 23.29 L 16.09 23.63 L 16.08 23.98 L 16.05 24.33 L 16.02 24.68 L 15.97 25.03 L 15.91 25.37 L 15.85 25.71 L 15.77 26.05 L 15.68 26.39 L 15.58 26.73 L 15.46 27.06 L 15.34 27.38 L 15.21 27.71 L 15.07 28.03 L 14.92 28.34 L 14.76 28.65 L 14.58 28.96 L 14.4 29.25 L 14.21 29.55 L 14.01 29.83" fill="none" stroke="#111" stroke-width="1.22" stroke-linecap="round" stroke-linejoin="round"/>
<path d="M 16.0 24.89 L 16.04 25.14 L 16.08 25.39 L 16.12 25.64 L 16.17 25.89 L 16.21 26.14 L 16.25 26.39 L 16.29 26.64 L 16.33 26.89 L 16.38 27.14 L 16.42 27.39 L 16.46 27.64 L 16.5 27.89 L 16.54 28.14 L 16.58 28.39 L 16.62 28.64 L 16.67 28.89 L 16.71 29.14 L 16.75 29.39 L 16.79 29.64 L 16.83 29.89 L 16.88 30.14 L 16.92 30.39 L 16.96 30.64 L 17.0 30.89" fill="none" stroke="#111" stroke-width="1.22" stroke-linecap="round" stroke-linejoin="round"/>
<path d="M 16.0 22.89 L 16.17 22.98 L 16.33 23.06 L 16.5 23.14 L 16.67 23.23 L 16.83 23.31 L 17.0 23.39 L 17.17 23.48 L 17.33 23.56 L 17.5 23.64 L 17.67 23.73 L 17.83 23.81 L 18.0 23.89 L 18.17 23.98 L 18.33 24.06 L 18.5 24.14 L 18.67 24.23 L 18.83 24.31 L 19.0 24.39 L 19.17 24.48 L 19.33 24.56 L 19.5 24.64 L 19.67 24.73 L 19.83 24.81 L 20.0 24.89" fill="none" stroke="#111" stroke-width="1.22" stroke-linecap="round" stroke-linejoin="round"/>
</svg>
