<?xml version="1.0" encoding="UTF-8"?>
<svg xmlns="http://www.w3.org/2000/svg" viewBox="0 0 22.00 33.27">
<path d="M 9.0 4.0 L 9.0 4.67 L 9.0 5.33 L 9.0 6.0 L 9.0 6.67 L 9.0 7.33 L 9.0 8.0 L 9.0 8.67 L 9.0 9.33 L 9.0 10.0 L 9.0 10.67 L 9.0 11.33 L 9.0 12.0 L 9.0 12.67 L 9.0 13.33 L 9.0 14.0 L 9.0 14.67 L 9.0 15.33 L 9.0 16.0 L 9.0 16.67 L 9.0 17.33 L 9.0 18.0 L 9.0 18.67 L 9.0 19.33 L 9.0 20.0" fill="none" stroke="#111" stroke-width="1.16" stroke-linecap="round" stroke-linejoin="round"/>
<path d="M 6.0 6.0 L 5.87 6.72 L 5.84 7.44 L 5.93 8.17 L 6.13 8.87 L 6.43 9.53 L 6.83 10.14 L 7.32 10.68 L 7.88 11.14 L 8.51 11.51 L 9.18 11.78 L 9.89 11.95 L 10.62 12.0 L 11.34 11.95 L 12.05 11.78 L 12.73 11.51 L 13.35 11.14 L 13.92 10.68 L 14.4 10.14 L 14.8 9.53 L 15.1 8.87 L 15.3 8.17 L 15.39 7.44 L 15.36 6.72 L 15.23 6.0" fill="none" stroke="#111" stroke-width="1.16" stroke-linecap="round" stroke-linejoin="round"/>
<path d="M 4.0 19.0 L 4.11 18.45 L 4.28 17.91 L 4.5 17.4 L 4.79 16.92 L 5.12 16.47 L 5.5 16.05 L 5.93 15.69 L 6.39 15.37 L 6.89 15.11 L 7.41 14.9 L 7.95 14.75 L 8.5 14.67 L 9.06 14.64 L 9.62 14.68 L 10.18 14.78 L 10.71 14.94 L 11.23 15.16 L 11.72 15.43 L 12.18 15.76 L 12.59 16.14 L 12.97 16.55 L 13.29 17.01 L 13.56 17.5 L 13.78 18.02" fill="none" stroke="#111" stroke-width="1.16" stroke-linecap="round" stroke-linejoin="round"/>
<path d="M 10.0 22.0 L 10.0 22.25 L 10.0 22.5 L 10.0 22.75 L 10.0 23.0 L 10.0 23.25 L 10.0 23.5 L 10.0 23.75 L 10.0 24.0 L 10.0 24.25 L 10.0 24.5 L 10.0 24.75 L 10.0 25.0 L 10.0 25.25 L 10.0 25.5 L 10.0 25.75 L 10.0 26.0 L 10.0 26.25 L 10.0 26.5 L 10.0 26.75 L 10.0 27.0 L 10.0 27.25 L 10.0 27.5 L 10.0 27.75 L 10.0 28.0 L 10.0 28.0 L 10.32 28.28 L 10.66 28.53 L 11.02 28.74 L 11.41 28.92 L 11.81 29.07 L 12.21 29.17 L 12.63 29.24 L 13.06 29.27 L 13.48 29.26 L 13.9 29.2 L 14.31 29.11 L 14.71 28.98 L 15.1 28.82 L 15.47 28.61 L 15.83 28.38 L 16.15 28.11 L 16.45 27.81 L 16.72 27.48 L 16.96 27.13 L 17.17 26.76 L 17.34 26.38 L 17.47 25.97 L 17.57 25.56 L 17.62 25.14 L 18.0 25.0 L 17.87 24.64 L 17.7 24.28 L 17.52 23.94 L 17.31 23.62 L 17.07 23.31 L 16.81 23.02 L 16.53 22.75 L 16.24 22.5 L 15.92 22.28 L 15.59 22.08 L 15.24 21.9 L 14.89 21.75 L 14.52 21.63 L 14.14 21.53 L 13.76 21.47 L 13.37 21.43 L 12.99 21.42 L 12.6 21.44 L 12.22 21.49 L 11.84 21.57 L 11.46 21.67 L 11.1 21.81 L 10.75 21.97 L 10.4 22.15" fill="none" stroke="#111" stroke-width="1.16" stroke-linecap="round" stroke-linejoin="round"/>
<path d="M 12.0 24.0 L 12.12 24.0 L 12.25 24.0 L 12.38 24.0 L 12.5 24.0 L 12.62 24.0 L 12.75 24.0 L 12.88 24.0 L 13.0 24.0 L 13.12 24.0 L 13.25 24.0 L 13.38 24.0 L 13.5 24.0 L 13.62 24.0 L 13.75 24.0 L 13.88 24.0 L 14.0 24.0 L 14.12 24.0 L 14.25 24.0 L 14.38 24.0 L 14.5 24.0 L 14.62 24.0 L 14.75 24.0 L 14.88 24.0 L 15.0 24.0" fill="none" stroke="#111" stroke-width="1.16" stroke-linecap="round" stroke-linejoin="round"/>
</svg>
