<?xml version="1.0" encoding="UTF-8"?>
<svg xmlns="http://www.w3.org/2000/svg" viewBox="0 0 22.95 33.56">
<path d="M 11.0 4.0 L 11.17 4.29 L 11.33 4.58 L 11.5 4.88 L 11.67 5.17 L 11.83 5.46 L 12.0 5.75 L 12.17 6.04 L 12.33 6.33 L 12.5 6.62 L 12.67 6.92 L 12.83 7.21 L 13.0 7.5 L 13.17 7.79 L 13.33 8.08 L 13.5 8.38 L 13.67 8.67 L 13.83 8.96 L 14.0 9.25 L 14.17 9.54 L 14.33 9.83 L 14.5 10.12 L 14.67 10.42 L 14.83 10.71 L 15.0 11.0 L 15.0 11.0 L 13.88 11.39 L 12.82 11.92 L 11.83 12.58 L 10.94 13.36 L 10.14 14.24 L 9.47 15.22 L 8.92 16.27 L 8.51 17.39 L 8.24 18.54 L 8.12 19.72 L 8.15 20.91 L 8.32 22.08 L 8.64 23.22 L 9.11 24.32 L 9.7 25.34 L 10.42 26.29 L 11.25 27.14 L 12.18 27.87 L 13.2 28.49 L 14.28 28.97 L 15.42 29.31 L 16.59 29.51 L 17.77 29.56 L 18.95 29.46" fill="none" stroke="#111" stroke-width="1.17" stroke-linecap="round" stroke-linejoin="round"/>
<path d="M 4.0 10.0 L 4.78 9.84 L 5.58 9.78 L 6.38 9.83 L 7.16 9.99 L 7.92 10.25 L 8.63 10.6 L 9.29 11.05 L 9.89 11.58 L 10.41 12.19 L 10.85 12.86 L 11.19 13.58 L 11.43 14.34 L 11.57 15.12 L 11.61 15.92 L 11.54 16.72 L 11.37 17.5 L 11.09 18.24 L 10.72 18.95 L 10.25 19.6 L 9.71 20.18 L 9.09 20.69 L 8.41 21.11 L 7.68 21.43 L 6.92 21.66" fill="none" stroke="#111" stroke-width="1.17" stroke-linecap="round" stroke-linejoin="round"/>
<path d="M 8.0 9.0 L 8.0 9.21 L 8.0 9.42 L 8.0 9.62 L 8.0 9.83 L 8.0 10.04 L 8.0 10.25 L 8.0 10.46 L 8.0 10.67 L 8.0 10.88 L 8.0 11.08 L 8.0 11.29 L 8.0 11.5 L 8.0 11.71 L 8.0 11.92 L 8.0 12.12 L 8.0 12.33 L 8.0 12.54 L 8.0 12.75 L 8.0 12.96 L 8.0 13.17 L 8.0 13.38 L 8.0 13.58 L 8.0 13.79 L 8.0 14.0" fill="none" stroke="#111" stroke-width="1.17" stroke-linecap="round" stroke-linejoin="round"/>
<path d="M 11.0 4.0 L 10.75 4.17 L 10.5 4.33 L 10.25 4.5 L 10.0 4.67 L 9.75 4.83 L 9.5 5.0 L 9.25 5.17 L 9.0 5.33 L 8.75 5.5 L 8.5 5.67 L 8.25 5.83 L 8.0 6.0 L 7.75 6.17 L 7.5 6.33 L 7.25 6.5 L 7.0 6.67 L 6.75 6.83 L 6.5 7.0 L 6.25 7.17 L 6.0 7.33 L 5.75 7.5 L 5.5 7.67 L 5.25 7.83 L 5.0 8.0" fill="none" stroke="#111" stroke-width="1.17" stroke-linecap="round" stroke-linejoin="round"/>
<path d="M 17.0 18.0 L 16.33 17.86 L 15.65 17.84 L 14.98 17.94 L 14.33 18.15 L 13.73 18.48 L 13.19 18.9 L 12.74 19.41 L 12.39 20.0 L 12.14 20.63 L 12.01 21.3 L 12.0 21.99 L 12.1 22.66 L 12.33 23.3 L 12.66 23.9 L 13.09 24.43 L 13.61 24.87 L 14.19 25.22 L 14.83 25.46 L 15.5 25.58 L 16.19 25.59 L 16.86 25.47 L 17.5 25.24 L 18.09 24.9 L 18.62 24.47" fill="none" stroke="#111" stroke-width="1.17" stroke-linecap="round" stroke-linejoin="round"/>
<path d="M 14.0 19.0 L 14.0 19.12 L 14.0 19.25 L 14.0 19.38 L 14.0 19.5 L 14.0 19.62 L 14.0 19.75 L 14.0 19.88 L 14.0 20.0 L 14.0 20.12 L 14.0 20.25 L 14.0 20.38 L 14.0 20.5 L 14.0 20.62 L 14.0 20.75 L 14.0 20.88 L 14.0 21.0 L 14.0 21.12 L 14.0 21.25 L 14.0 21.38 L 14.0 21.5 L 14.0 21.62 L 14.0 21.75 L 14.0 21.88 L 14.0 22.0" fill="none" stroke="#111" stroke-width="1.17" stroke-linecap="round" stroke-linejoin="round"/>
</svg>
