<?xml version="1.0" encoding="UTF-8"?>
<svg xmlns="http://www.w3.org/2000/svg" viewBox="0 0 25.00 33.00">
<path d="M 8.0 5.0 L 8.0 6.0 L 8.0 7.0 L 8.0 8.0 L 8.0 9.0 L 8.0 10.0 L 8.0 11.0 L 8.0 12.0 L 8.0 13.0 L 8.0 14.0 L 8.0 15.0 L 8.0 16.0 L 8.0 17.0 L 8.0 18.0 L 8.0 19.0 L 8.0 20.0 L 8.0 21.0 L 8.0 22.0 L 8.0 23.0 L 8.0 24.0 L 8.0 25.0 L 8.0 26.0 L 8.0 27.0 L 8.0 28.0 L 8.0 29.0" fill="none" stroke="#111" stroke-width="1.16" stroke-linecap="round" stroke-linejoin="round"/>
<path d="M 4.0 9.0 L 4.12 9.25 L 4.25 9.5 L 4.38 9.75 L 4.5 10.0 L 4.62 10.25 L 4.75 10.5 L 4.88 10.75 L 5.0 11.0 L 5.12 11.25 L 5.25 11.5 L 5.38 11.75 L 5.5 12.0 L 5.62 12.25 L 5.75 12.5 L 5.88 12.75 L 6.0 13.0 L 6.13 13.25 L 6.25 13.5 L 6.38 13.75 L 6.5 14.0 L 6.62 14.25 L 6.75 14.5 L 6.88 14.75 L 7.0 15.0" fill="none" stroke="#111" stroke-width="1.16" stroke-linecap="round" stroke-linejoin="round"/>
<path d="M 12.0 7.0 L 11.83 7.21 L 11.67 7.42 L 11.5 7.62 L 11.33 7.83 L 11.17 8.04 L 11.0 8.25 L 10.83 8.46 L 10.67 8.67 L 10.5 8.88 L 10.33 9.08 L 10.17 9.29 L 10.0 9.5 L 9.83 9.71 L 9.67 9.92 L 9.5 10.12 L 9.33 10.33 L 9.17 10.54 L 9.0 10.75 L 8.83 10.96 L 8.67 11.17 L 8.5 11.38 L 8.33 11.58 L 8.17 11.79 L 8.0 12.0" fill="none" stroke="#111" stroke-width="1.16" stroke-linecap="round" stroke-linejoin="round"/>
<path d="M 8.0 21.0 L 7.83 21.21 L 7.67 21.42 L 7.5 21.62 L 7.33 21.83 L 7.17 22.04 L 7.0 22.25 L 6.83 22.46 L 6.67 22.67 L 6.5 22.88 L 6.33 23.08 L 6.17 23.29 L 6.0 23.5 L 5.83 23.71 L 5.67 23.92 L 5.5 24.12 L 5.33 24.33 L 5.17 24.54 L 5.0 24.75 L 4.83 24.96 L 4.67 25.17 L 4.5 25.38 L 4.33 25.58 L 4.17 25.79 L 4.0 26.0" fill="none" stroke="#111" stroke-width="1.16" stroke-linecap="round" stroke-linejoin="round"/>
<path d="M 8.0 21.0 L 8.17 21.17 L 8.33 21.33 L 8.5 21.5 L 8.67 21.67 L 8.83 21.83 L 9.0 22.0 L 9.17 22.17 L 9.33 22.33 L 9.5 22.5 L 9.67 22.67 L 9.83 22.83 L 10.0 23.0 L 10.17 23.17 L 10.33 23.33 L 10.5 23.5 L 10.67 23.67 L 10.83 23.83 L 11.0 24.0 L 11.17 24.17 L 11.33 24.33 L 11.5 24.5 L 11.67 24.67 L 11.83 24.83 L 12.0 25.0" fill="none" stroke="#111" stroke-width="1.16" stroke-linecap="round" stroke-linejoin="round"/>
<path d="M 12.0 6.0 L 12.17 6.21 L 12.33 6.42 L 12.5 6.62 L 12.67 6.83 L 12.83 7.04 L 13.0 7.25 L 13.17 7.46 L 13.33 7.67 L 13.5 7.88 L 13.67 8.08 L 13.83 8.29 L 14.0 8.5 L 14.17 8.71 L 14.33 8.92 L 14.5 9.12 L 14.67 9.33 L 14.83 9.54 L 15.0 9.75 L 15.17 9.96 L 15.33 10.17 L 15.5 10.38 L 15.67 10.58 L 15.83 10.79 L 16.0 11.0" fill="none" stroke="#111" stroke-width="1.16" stroke-linecap="round" stroke-linejoin="round"/>
<path d="M 16.0 4.0 L 16.04 5.04 L 16.08 6.08 L 16.12 7.12 L 16.17 8.17 L 16.21 9.21 L 16.25 10.25 L 16.29 11.29 L 16.33 12.33 L 16.38 13.38 L 16.42 14.42 L 16.46 15.46 L 16.5 16.5 L 16.54 17.54 L 16.58 18.58 L 16.62 19.62 L 16.67 20.67 L 16.71 21.71 L 16.75 22.75 L 16.79 23.79 L 16.83 24.83 L 16.88 25.88 L 16.92 26.92 L 16.96 27.96 L 17.0 29.0" fill="none" stroke="#111" stroke-width="1.16" stroke-linecap="round" stroke-linejoin="round"/>
<path d="M 17.0 20.0 L 16.79 20.17 L 16.58 20.33 L 16.38 20.5 L 16.17 20.67 L 15.96 20.83 L 15.75 21.0 L 15.54 21.17 L 15.33 21.33 L 15.12 21.5 L 14.92 21.67 L 14.71 21.83 L 14.5 22.0 L 14.29 22.17 L 14.08 22.33 L 13.88 22.5 L 13.67 22.67 L 13.46 22.83 L 13.25 23.0 L 13.04 23.17 L 12.83 23.33 L 12.62 23.5 L 12.42 23.67 L 12.21 23.83 L 12.0 24.0" fill="none" stroke="#111" stroke-width="1.16" stroke-linecap="round" stroke-linejoin="round"/>
<path d="M 21.0 8.0 L 20.83 8.21 L 20.67 8.42 L 20.5 8.62 L 20.33 8.83 L 20.17 9.04 L 20.0 9.25 L 19.83 9.46 L 19.67 9.67 L 19.5 9.88 L 19.33 10.08 L 19.17 10.29 L 19.0 10.5 L 18.83 10.71 L 18.67 10.92 L 18.5 11.12 L 18.33 11.33 L 18.17 11.54 L 18.0 11.75 L 17.83 11.96 L 17.67 12.17 L 17.5 12.38 L 17.33 12.58 L 17.17 12.79 L 17.0 13.0" fill="none" stroke="#111" stroke-width="1.16" stroke-linecap="round" stroke-linejoin="round"/>
<path d="M 17.0 20.0 L 17.17 20.21 L 17.33 20.42 L 17.5 20.62 L 17.67 20.83 L 17.83 21.04 L 18.0 21.25 L 18.17 21.46 L 18.33 21.67 L 18.5 21.88 L 18.67 22.08 L 18.83 22.29 L 19.0 22.5 L 19.17 22.71 L 19.33 22.92 L 19.5 23.12 L 19.67 23.33 L 19.83 23.54 L 20.0 23.75 L 20.17 23.96 L 20.33 24.17 L 20.5 24.38 L 20.67 24.58 L 20.83 24.79 L 21.0 25.0" fill="none" stroke="#111" stroke-width="1.16" stroke-linecap="round" stroke-linejoin="round"/>
<path d="M 12.0 10.0 L 12.0 10.33 L 12.0 10.67 L 12.0 11.0 L 12.0 11.33 L 12.0 11.67 L 12.0 12.0 L 12.0 12.33 L 12.0 12.67 L 12.0 13.0 L 12.0 13.33 L 12.0 13.67 L 12.0 14.0 L 12.0 14.33 L 12.0 14.67 L 12.0 15.0 L 12.0 15.33 L 12.0 15.67 L 12.0 16.0 L 12.0 16.33 L 12.0 16.67 L 12.0 17.0 L 12.0 17.33 L 12.0 17.67 L 12.0 18.0" fill="none" stroke="#111" stroke-width="1.16" stroke-linecap="round" stroke-linejoin="round"/>
<path d="M 10.0 18.0 L 10.17 18.0 L 10.33 18.0 L 10.5 18.0 L 10.67 18.0 L 10.83 18.0 L 11.0 18.0 L 11.17 18.0 L 11.33 18.0 L 11.5 18.0 L 11.67 18.0 L 11.83 18.0 L 12.0 18.0 L 12.17 18.0 L 12.33 18.0 L 12.5 18.0 L 12.67 18.0 L 12.83 18.0 L 13.0 18.0 L 13.17 18.0 L 13.33 18.0 L 13.5 18.0 L 13.67 18.0 L 13.83 18.0 L 14.0 18.0" fill="none" stroke="#111" stroke-width="1.16" stroke-linecap="round" stroke-linejoin="round"/>
</svg>
