<?xml version="1.0" encoding="UTF-8"?>
<svg xmlns="http://www.w3.org/2000/svg" viewBox="0 0 22.00 26.00">
<path d="M 4.0 4.0 L 4.0 4.29 L 4.0 4.58 L 4.0 4.88 L 4.0 5.17 L 4.0 5.46 L 4.0 5.75 L 4.0 6.04 L 4.0 6.33 L 4.0 6.62 L 4.0 6.92 L 4.0 7.21 L 4.0 7.5 L 4.0 7.79 L 4.0 8.08 L 4.0 8.38 L 4.0 8.67 L 4.0 8.96 L 4.0 9.25 L 4.0 9.54 L 4.0 9.83 L 4.0 10.12 L 4.0 10.42 L 4.0 10.71 L 4.0 11.0" fill="none" stroke="#111" stroke-width="0.91" stroke-linecap="round" stroke-linejoin="round"/>
<path d="M 4.0 4.0 L 4.33 4.0 L 4.67 4.0 L 5.0 4.0 L 5.33 4.0 L 5.67 4.0 L 6.0 4.0 L 6.33 4.0 L 6.67 4.0 L 7.0 4.0 L 7.33 4.0 L 7.67 4.0 L 8.0 4.0 L 8.33 4.0 L 8.67 4.0 L 9.0 4.0 L 9.33 4.0 L 9.67 4.0 L 10.0 4.0 L 10.33 4.0 L 10.67 4.0 L 11.0 4.0 L 11.33 4.0 L 11.67 4.0 L 12.0 4.0" fill="none" stroke="#111" stroke-width="0.91" stroke-linecap="round" stroke-linejoin="round"/>
<path d="M 12.0 4.0 L 12.0 4.29 L 12.0 4.58 L 12.0 4.88 L 12.0 5.17 L 12.0 5.46 L 12.0 5.75 L 12.0 6.04 L 12.0 6.33 L 12.0 6.62 L 12.0 6.92 L 12.0 7.21 L 12.0 7.5 L 12.0 7.79 L 12.0 8.08 L 12.0 8.38 L 12.0 8.67 L 12.0 8.96 L 12.0 9.25 L 12.0 9.54 L 12.0 9.83 L 12.0 10.12 L 12.0 10.42 L 12.0 10.71 L 12.0 11.0" fill="none" stroke="#111" stroke-width="0.91" stroke-linecap="round" stroke-linejoin="round"/>
<path d="M 4.0 8.0 L 4.29 8.0 L 4.58 8.0 L 4.88 8.0 L 5.17 8.0 L 5.46 8.0 L 5.75 8.0 L 6.04 8.0 L 6.33 8.0 L 6.62 8.0 L 6.92 8.0 L 7.21 8.0 L 7.5 8.0 L 7.79 8.0 L 8.08 8.0 L 8.38 8.0 L 8.67 8.0 L 8.96 8.0 L 9.25 8.0 L 9.54 8.0 L 9.83 8.0 L 10.12 8.0 L 10.42 8.0 L 10.71 8.0 L 11.0 8.0" fill="none" stroke="#111" stroke-width="0.91" stroke-linecap="round" stroke-linejoin="round"/>
<path d="M 8.0 4.0 L 8.0 4.29 L 8.0 4.58 L 8.0 4.88 L 8.0 5.17 L 8.0 5.46 L 8.0 5.75 L 8.0 6.04 L 8.0 6.33 L 8.0 6.62 L 8.0 6.92 L 8.0 7.21 L 8.0 7.5 L 8.0 7.79 L 8.0 8.08 L 8.0 8.38 L 8.0 8.67 L 8.0 8.96 L 8.0 9.25 L 8.0 9.54 L 8.0 9.83 L 8.0 10.12 L 8.0 10.42 L 8.0 10.71 L 8.0 11.0" fill="none" stroke="#111" stroke-width="0.91" stroke-linecap="round" stroke-linejoin="round"/>
<path d="M 4.0 11.0 L 4.33 11.0 L 4.67 11.0 L 5.0 11.0 L 5.33 11.0 L 5.67 11.0 L 6.0 11.0 L 6.33 11.0 L 6.67 11.0 L 7.0 11.0 L 7.33 11.0 L 7.67 11.0 L 8.0 11.0 L 8.33 11.0 L 8.67 11.0 L 9.0 11.0 L 9.33 11.0 L 9.67 11.0 L 10.0 11.0 L 10.33 11.0 L 10.67 11.0 L 11.0 11.0 L 11.33 11.0 L 11.67 11.0 L 12.0 11.0" fill="none" stroke="#111" stroke-width="0.91" stroke-linecap="round" stroke-linejoin="round"/>
<path d="M 9.0 14.0 L 9.04 14.33 L 9.08 14.67 L 9.12 15.0 L 9.17 15.33 L 9.21 15.67 L 9.25 16.0 L 9.29 16.33 L 9.33 16.67 L 9.38 17.0 L 9.42 17.33 L 9.46 17.67 L 9.5 18.0 L 9.54 18.33 L 9.58 18.67 L 9.62 19.0 L 9.67 19.33 L 9.71 19.67 L 9.75 20.0 L 9.79 20.33 L 9.83 20.67 L 9.88 21.0 L 9.92 21.33 L 9.96 21.67 L 10.0 22.0" fill="none" stroke="#111" stroke-width="0.91" stroke-linecap="round" stroke-linejoin="round"/>
<path d="M 9.0 14.0 L 9.33 14.0 L 9.67 14.0 L 10.0 14.0 L 10.33 14.0 L 10.67 14.0 L 11.0 14.0 L 11.33 14.0 L 11.67 14.0 L 12.0 14.0 L 12.33 14.0 L 12.67 14.0 L 13.0 14.0 L 13.33 14.0 L 13.67 14.0 L 14.0 14.0 L 14.33 14.0 L 14.67 14.0 L 15.0 14.0 L 15.33 14.0 L 15.67 14.0 L 16.0 14.0 L 16.33 14.0 L 16.67 14.0 L 17.0 14.0 L 17.0 14.0 L 17.04 14.33 L 17.08 14.67 L 17.12 15.0 L 17.17 15.33 L 17.21 15.67 L 17.25 16.0 L 17.29 16.33 L 17.33 16.67 L 17.38 17.0 L 17.42 17.33 L 17.46 17.67 L 17.5 18.0 L 17.54 18.33 L 17.58 18.67 L 17.62 19.0 L 17.67 19.33 L 17.71 19.67 L 17.75 20.0 L 17.79 20.33 L 17.83 20.67 L 17.88 21.0 L 17.92 21.33 L 17.96 21.67 L 18.0 22.0" fill="none" stroke="#111" stroke-width="0.91" stroke-linecap="round" stroke-linejoin="round"/>
<path d="M 9.0 18.0 L 9.33 17.96 L 9.67 17.92 L 10.0 17.88 L 10.33 17.83 L 10.67 17.79 L 11.0 17.75 L 11.33 17.71 L 11.67 17.67 L 12.0 17.62 L 12.33 17.58 L 12.67 17.54 L 13.0 17.5 L 13.33 17.46 L 13.67 17.42 L 14.0 17.38 L 14.33 17.33 L 14.67 17.29 L 15.0 17.25 L 15.33 17.21 L 15.67 17.17 L 16.0 17.12 L 16.33 17.08 L 16.67 17.04 L 17.0 17.0" fill="none" stroke="#111" stroke-width="0.91" stroke-linecap="round" stroke-linejoin="round"/>
<path d="M 13.0 14.0 L 13.04 14.33 L 13.08 14.67 L 13.12 15.0 L 13.17 15.33 L 13.21 15.67 L 13.25 16.0 L 13.29 16.33 L 13.33 16.67 L 13.38 17.0 L 13.42 17.33 L 13.46 17.67 L 13.5 18.0 L 13.54 18.33 L 13.58 18.67 L 13.62 19.0 L 13.67 19.33 L 13.71 19.67 L 13.75 20.0 L 13.79 20.33 L 13.83 20.67 L 13.88 21.0 L 13.92 21.33 L 13.96 21.67 L 14.0 22.0" fill="none" stroke="#111" stroke-width="0.91" stroke-linecap="round" stroke-linejoin="round"/>
<path d="M 10.0 22.0 L 10.29 22.0 L 10.58 22.0 L 10.88 22.0 L 11.17 22.0 L 11.46 22.0 L 11.75 22.0 L 12.04 22.0 L 12.33 22.0 L 12.62 22.0 L 12.92 22.0 L 13.21 22.0 L 13.5 22.0 L 13.79 22.0 L 14.08 22.0 L 14.38 22.0 L 14.67 22.0 L 14.96 22.0 L 15.25 22.0 L 15.54 22.0 L 15.83 22.0 L 16.12 22.0 L 16.42 22.0 L 16.71 22.0 L 17.0 22.0" fill="none" stroke="#111" stroke-width="0.91" stroke-linecap="round" stroke-linejoin="round"/>
</svg>
