<?xml version="1.0" encoding="UTF-8"?>
<svg xmlns="http://www.w3.org/2000/svg" viewBox="0 0 25.00 36.00">
<path d="M 10.0 4.0 L 9.75 4.62 L 9.5 5.25 L 9.25 5.88 L 9.0 6.5 L 8.75 7.12 L 8.5 7.75 L 8.25 8.38 L 8.0 9.0 L 7.75 9.62 L 7.5 10.25 L 7.25 10.87 L 7.0 11.5 L 6.75 12.12 L 6.5 12.75 L 6.25 13.37 L 6.0 14.0 L 5.75 14.62 L 5.5 15.25 L 5.25 15.87 L 5.0 16.5 L 4.75 17.12 L 4.5 17.75 L 4.25 18.38 L 4.0 19.0" fill="none" stroke="#111" stroke-width="1.26" stroke-linecap="round" stroke-linejoin="round"/>
<path d="M 8.0 9.0 L 8.4 9.42 L 8.78 9.86 L 9.13 10.32 L 9.45 10.81 L 9.74 11.31 L 10.0 11.83 L 10.23 12.36 L 10.43 12.9 L 10.59 13.46 L 10.72 14.03 L 10.82 14.6 L 10.88 15.18 L 10.91 15.76 L 10.9 16.34 L 10.86 16.91 L 10.78 17.49 L 10.67 18.06 L 10.53 18.62 L 10.35 19.17 L 10.14 19.71 L 9.89 20.24 L 9.62 20.75 L 9.31 21.24 L 8.98 21.72 L 9.0 22.0 L 9.08 22.42 L 9.17 22.83 L 9.25 23.25 L 9.33 23.67 L 9.42 24.08 L 9.5 24.5 L 9.58 24.92 L 9.67 25.33 L 9.75 25.75 L 9.83 26.17 L 9.92 26.58 L 10.0 27.0 L 10.08 27.42 L 10.17 27.83 L 10.25 28.25 L 10.33 28.67 L 10.42 29.08 L 10.5 29.5 L 10.58 29.92 L 10.67 30.33 L 10.75 30.75 L 10.83 31.17 L 10.92 31.58 L 11.0 32.0" fill="none" stroke="#111" stroke-width="1.26" stroke-linecap="round" stroke-linejoin="round"/>
<path d="M 13.0 4.0 L 13.04 4.79 L 13.08 5.58 L 13.12 6.38 L 13.17 7.17 L 13.21 7.96 L 13.25 8.75 L 13.29 9.54 L 13.33 10.33 L 13.37 11.12 L 13.42 11.92 L 13.46 12.71 L 13.5 13.5 L 13.54 14.29 L 13.58 15.08 L 13.62 15.88 L 13.67 16.67 L 13.71 17.46 L 13.75 18.25 L 13.79 19.04 L 13.83 19.83 L 13.88 20.62 L 13.92 21.42 L 13.96 22.21 L 14.0 23.0" fill="none" stroke="#111" stroke-width="1.26" stroke-linecap="round" stroke-linejoin="round"/>
<path d="M 13.0 5.0 L 13.66 5.2 L 14.3 5.46 L 14.91 5.79 L 15.48 6.19 L 16.0 6.64 L 16.48 7.14 L 16.9 7.69 L 17.26 8.28 L 17.55 8.9 L 17.78 9.55 L 17.94 10.23 L 18.03 10.91 L 18.05 11.6 L 17.99 12.29 L 17.87 12.97 L 17.67 13.63 L 17.4 14.27 L 17.07 14.88 L 16.68 15.45 L 16.23 15.97 L 15.73 16.45 L 15.18 16.87 L 14.59 17.23 L 13.96 17.53" fill="none" stroke="#111" stroke-width="1.26" stroke-linecap="round" stroke-linejoin="round"/>
<path d="M 14.0 10.0 L 14.29 10.12 L 14.58 10.25 L 14.87 10.38 L 15.17 10.5 L 15.46 10.62 L 15.75 10.75 L 16.04 10.88 L 16.33 11.0 L 16.62 11.12 L 16.92 11.25 L 17.21 11.38 L 17.5 11.5 L 17.79 11.62 L 18.08 11.75 L 18.38 11.88 L 18.67 12.0 L 18.96 12.12 L 19.25 12.25 L 19.54 12.38 L 19.83 12.5 L 20.12 12.62 L 20.42 12.75 L 20.71 12.88 L 21.0 13.0 L 21.0 13.0 L 20.6 13.47 L 20.23 13.96 L 19.89 14.47 L 19.56 14.99 L 19.27 15.53 L 18.99 16.09 L 18.75 16.65 L 18.53 17.23 L 18.35 17.81 L 18.19 18.41 L 18.06 19.01 L 17.95 19.61 L 17.88 20.23 L 17.84 20.84 L 17.83 21.45 L 17.84 22.07 L 17.89 22.68 L 17.96 23.29 L 18.07 23.9 L 18.2 24.5 L 18.37 25.09 L 18.56 25.68 L 18.78 26.25 L 19.03 26.82" fill="none" stroke="#111" stroke-width="1.26" stroke-linecap="round" stroke-linejoin="round"/>
</svg>
