<?xml version="1.0" encoding="UTF-8"?>
<svg xmlns="http://www.w3.org/2000/svg" viewBox="0 0 19.89 29.72">
<path d="M 10.89 5.0 L 10.72 5.25 L 10.55 5.5 L 10.39 5.75 L 10.22 6.0 L 10.05 6.25 L 9.89 6.5 L 9.72 6.75 L 9.55 7.0 L 9.39 7.25 L 9.22 7.5 L 9.05 7.75 L 8.89 8.0 L 8.72 8.25 L 8.55 8.5 L 8.39 8.75 L 8.22 9.0 L 8.05 9.25 L 7.89 9.5 L 7.72 9.75 L 7.55 10.0 L 7.39 10.25 L 7.22 10.5 L 7.05 10.75 L 6.89 11.0" fill="none" stroke="#111" stroke-width="1.04" stroke-linecap="round" stroke-linejoin="round"/>
<path d="M 10.89 5.0 L 11.1 5.25 L 11.3 5.5 L 11.51 5.75 L 11.72 6.0 L 11.93 6.25 L 12.14 6.5 L 12.35 6.75 L 12.55 7.0 L 12.76 7.25 L 12.97 7.5 L 13.18 7.75 L 13.39 8.0 L 13.6 8.25 L 13.8 8.5 L 14.01 8.75 L 14.22 9.0 L 14.43 9.25 L 14.64 9.5 L 14.85 9.75 L 15.05 10.0 L 15.26 10.25 L 15.47 10.5 L 15.68 10.75 L 15.89 11.0" fill="none" stroke="#111" stroke-width="1.04" stroke-linecap="round" stroke-linejoin="round"/>
<path d="M 10.89 5.0 L 10.89 5.29 L 10.89 5.58 L 10.89 5.88 L 10.89 6.17 L 10.89 6.46 L 10.89 6.75 L 10.89 7.04 L 10.89 7.33 L 10.89 7.62 L 10.89 7.92 L 10.89 8.21 L 10.89 8.5 L 10.89 8.79 L 10.89 9.08 L 10.89 9.38 L 10.89 9.67 L 10.89 9.96 L 10.89 10.25 L 10.89 10.54 L 10.89 10.83 L 10.89 11.12 L 10.89 11.42 L 10.89 11.71 L 10.89 12.0" fill="none" stroke="#111" stroke-width="1.04" stroke-linecap="round" stroke-linejoin="round"/>
<path d="M 10.89 12.0 L 10.52 12.44 L 10.19 12.92 L 9.91 13.42 L 9.67 13.95 L 9.48 14.5 L 9.34 15.06 L 9.26 15.63 L 9.22 16.2 L 9.24 16.78 L 9.31 17.36 L 9.43 17.92 L 9.6 18.47 L 9.83 19.0 L 10.09 19.52 L 10.41 20.0 L 10.77 20.45 L 11.16 20.87 L 11.6 21.26 L 12.06 21.6 L 12.56 21.9 L 13.08 22.15 L 13.62 22.35 L 14.18 22.5 L 14.74 22.61" fill="none" stroke="#111" stroke-width="1.04" stroke-linecap="round" stroke-linejoin="round"/>
<path d="M 11.89 12.0 L 12.15 12.47 L 12.37 12.96 L 12.55 13.47 L 12.69 13.99 L 12.78 14.52 L 12.82 15.05 L 12.82 15.59 L 12.78 16.13 L 12.69 16.66 L 12.56 17.18 L 12.38 17.68 L 12.16 18.18 L 11.9 18.65 L 11.6 19.09 L 11.26 19.51 L 10.89 19.9 L 10.49 20.26 L 10.06 20.58 L 9.6 20.87 L 9.12 21.11 L 8.63 21.31 L 8.11 21.48 L 7.59 21.59 L 7.06 21.66" fill="none" stroke="#111" stroke-width="1.04" stroke-linecap="round" stroke-linejoin="round"/>
<path d="M 8.89 4.0 L 8.11 4.7 L 7.39 5.46 L 6.73 6.27 L 6.13 7.14 L 5.61 8.04 L 5.15 8.98 L 4.76 9.96 L 4.46 10.96 L 4.23 11.98 L 4.07 13.01 L 4.0 14.06 L 4.01 15.1 L 4.1 16.15 L 4.26 17.18 L 4.51 18.2 L 4.83 19.19 L 5.23 20.16 L 5.7 21.1 L 6.24 21.99 L 6.85 22.85 L 7.52 23.65 L 8.25 24.4 L 9.04 25.09 L 9.87 25.72" fill="none" stroke="#111" stroke-width="1.04" stroke-linecap="round" stroke-linejoin="round"/>
</svg>
