<?xml version="1.0" encoding="UTF-8"?>
<svg xmlns="http://www.w3.org/2000/svg" viewBox="0 0 17.44 40.51">
<path d="M 13.44 4.0 L 13.34 5.42 L 13.22 6.84 L 13.07 8.25 L 12.89 9.66 L 12.68 11.07 L 12.46 12.47 L 12.2 13.87 L 11.92 15.27 L 11.61 16.65 L 11.28 18.04 L 10.92 19.41 L 10.54 20.78 L 10.13 22.15 L 9.69 23.5 L 9.23 24.85 L 8.75 26.18 L 8.24 27.51 L 7.71 28.83 L 7.15 30.14 L 6.57 31.44 L 5.96 32.72 L 5.33 34.0 L 4.68 35.26 L 4.0 36.51" fill="none" stroke="#111" stroke-width="1.42" stroke-linecap="round" stroke-linejoin="round"/>
<path d="M 6.44 14.0 L 6.73 13.71 L 7.02 13.42 L 7.31 13.12 L 7.61 12.83 L 7.9 12.54 L 8.19 12.25 L 8.48 11.96 L 8.77 11.67 L 9.06 11.38 L 9.36 11.08 L 9.65 10.79 L 9.94 10.5 L 10.23 10.21 L 10.52 9.92 L 10.81 9.62 L 11.11 9.33 L 11.4 9.04 L 11.69 8.75 L 11.98 8.46 L 12.27 8.17 L 12.56 7.88 L 12.86 7.58 L 13.15 7.29 L 13.44 7.0" fill="none" stroke="#111" stroke-width="1.42" stroke-linecap="round" stroke-linejoin="round"/>
</svg>
