<?xml version="1.0" encoding="UTF-8"?>
<svg xmlns="http://www.w3.org/2000/svg" viewBox="0 0 23.21 34.00">
<path d="M 10.05 4.0 L 9.97 4.17 L 9.89 4.33 L 9.8 4.5 L 9.72 4.67 L 9.64 4.83 L 9.55 5.0 L 9.47 5.17 L 9.39 5.33 L 9.3 5.5 L 9.22 5.67 L 9.14 5.83 L 9.05 6.0 L 8.97 6.17 L 8.89 6.33 L 8.8 6.5 L 8.72 6.67 L 8.64 6.83 L 8.55 7.0 L 8.47 7.17 L 8.39 7.33 L 8.3 7.5 L 8.22 7.67 L 8.14 7.83 L 8.05 8.0 L 8.05 8.0 L 8.56 8.26 L 9.04 8.56 L 9.51 8.89 L 9.95 9.25 L 10.37 9.64 L 10.76 10.05 L 11.13 10.49 L 11.46 10.95 L 11.76 11.44 L 12.03 11.94 L 12.26 12.46 L 12.46 13.0 L 12.62 13.54 L 12.75 14.1 L 12.83 14.66 L 12.88 15.23 L 12.9 15.8 L 12.87 16.37 L 12.81 16.94 L 12.7 17.5 L 12.56 18.05 L 12.39 18.59 L 12.18 19.12 L 11.93 19.64" fill="none" stroke="#111" stroke-width="1.19" stroke-linecap="round" stroke-linejoin="round"/>
<path d="M 10.05 4.0 L 10.18 4.17 L 10.3 4.33 L 10.43 4.5 L 10.55 4.67 L 10.68 4.83 L 10.8 5.0 L 10.93 5.17 L 11.05 5.33 L 11.18 5.5 L 11.3 5.67 L 11.43 5.83 L 11.55 6.0 L 11.68 6.17 L 11.8 6.33 L 11.93 6.5 L 12.05 6.67 L 12.18 6.83 L 12.3 7.0 L 12.43 7.17 L 12.55 7.33 L 12.68 7.5 L 12.8 7.67 L 12.93 7.83 L 13.05 8.0" fill="none" stroke="#111" stroke-width="1.19" stroke-linecap="round" stroke-linejoin="round"/>
<path d="M 11.05 5.0 L 10.97 5.17 L 10.89 5.33 L 10.8 5.5 L 10.72 5.67 L 10.64 5.83 L 10.55 6.0 L 10.47 6.17 L 10.39 6.33 L 10.3 6.5 L 10.22 6.67 L 10.14 6.83 L 10.05 7.0 L 9.97 7.17 L 9.89 7.33 L 9.8 7.5 L 9.72 7.67 L 9.64 7.83 L 9.55 8.0 L 9.47 8.17 L 9.39 8.33 L 9.3 8.5 L 9.22 8.67 L 9.14 8.83 L 9.05 9.0 L 9.05 9.0 L 8.79 9.16 L 8.53 9.33 L 8.28 9.51 L 8.03 9.7 L 7.8 9.89 L 7.57 10.1 L 7.35 10.32 L 7.14 10.54 L 6.93 10.77 L 6.74 11.01 L 6.55 11.26 L 6.37 11.51 L 6.21 11.77 L 6.05 12.04 L 5.91 12.31 L 5.77 12.59 L 5.65 12.87 L 5.53 13.15 L 5.43 13.45 L 5.34 13.74 L 5.26 14.04 L 5.19 14.34 L 5.13 14.64 L 5.09 14.95" fill="none" stroke="#111" stroke-width="1.19" stroke-linecap="round" stroke-linejoin="round"/>
<path d="M 10.05 10.0 L 9.77 10.25 L 9.49 10.51 L 9.23 10.79 L 8.97 11.07 L 8.72 11.35 L 8.48 11.65 L 8.25 11.95 L 8.04 12.26 L 7.83 12.58 L 7.63 12.91 L 7.44 13.24 L 7.27 13.58 L 7.1 13.92 L 6.95 14.27 L 6.81 14.62 L 6.68 14.98 L 6.56 15.34 L 6.46 15.7 L 6.36 16.07 L 6.28 16.44 L 6.21 16.82 L 6.15 17.19 L 6.11 17.57 L 6.08 17.95" fill="none" stroke="#111" stroke-width="1.19" stroke-linecap="round" stroke-linejoin="round"/>
<path d="M 11.05 12.0 L 10.93 12.25 L 10.8 12.5 L 10.68 12.75 L 10.55 13.0 L 10.43 13.25 L 10.3 13.5 L 10.18 13.75 L 10.05 14.0 L 9.93 14.25 L 9.8 14.5 L 9.68 14.75 L 9.55 15.0 L 9.43 15.25 L 9.3 15.5 L 9.18 15.75 L 9.05 16.0 L 8.93 16.25 L 8.8 16.5 L 8.68 16.75 L 8.55 17.0 L 8.43 17.25 L 8.3 17.5 L 8.18 17.75 L 8.05 18.0" fill="none" stroke="#111" stroke-width="1.19" stroke-linecap="round" stroke-linejoin="round"/>
<path d="M 12.05 15.0 L 11.97 15.17 L 11.89 15.33 L 11.8 15.5 L 11.72 15.67 L 11.64 15.83 L 11.55 16.0 L 11.47 16.17 L 11.39 16.33 L 11.3 16.5 L 11.22 16.67 L 11.14 16.83 L 11.05 17.0 L 10.97 17.17 L 10.89 17.33 L 10.8 17.5 L 10.72 17.67 L 10.64 17.83 L 10.55 18.0 L 10.47 18.17 L 10.39 18.33 L 10.3 18.5 L 10.22 18.67 L 10.14 18.83 L 10.05 19.0" fill="none" stroke="#111" stroke-width="1.19" stroke-linecap="round" stroke-linejoin="round"/>
<path d="M 9.05 14.0 L 9.14 14.17 L 9.22 14.33 L 9.3 14.5 L 9.39 14.67 L 9.47 14.83 L 9.55 15.0 L 9.64 15.17 L 9.72 15.33 L 9.8 15.5 L 9.89 15.67 L 9.97 15.83 L 10.05 16.0 L 10.14 16.17 L 10.22 16.33 L 10.3 16.5 L 10.39 16.67 L 10.47 16.83 L 10.55 17.0 L 10.64 17.17 L 10.72 17.33 L 10.8 17.5 L 10.89 17.67 L 10.97 17.83 L 11.05 18.0" fill="none" stroke="#111" stroke-width="1.19" stroke-linecap="round" stroke-linejoin="round"/>
<path d="M 4.05 16.0 L 4.0 15.35 L 4.12 14.71 L 4.4 14.12 L 4.83 13.62 L 5.37 13.25 L 5.99 13.03 L 6.64 12.99 L 7.28 13.11 L 7.87 13.4 L 8.36 13.83 L 8.73 14.37 L 8.94 14.99 L 8.98 15.64 L 8.85 16.28 L 8.56 16.87 L 8.13 17.36 L 7.58 17.72 L 6.96 17.93 L 6.31 17.97 L 5.67 17.83 L 5.09 17.54 L 4.6 17.1 L 4.24 16.55 L 4.04 15.93 L 5.05 21.0 L 5.39 21.29 L 5.75 21.56 L 6.12 21.81 L 6.51 22.04 L 6.91 22.24 L 7.32 22.42 L 7.75 22.57 L 8.18 22.69 L 8.62 22.79 L 9.06 22.85 L 9.51 22.9 L 9.96 22.91 L 10.4 22.9 L 10.85 22.85 L 11.29 22.79 L 11.73 22.69 L 12.16 22.57 L 12.59 22.42 L 13.0 22.24 L 13.4 22.04 L 13.79 21.81 L 14.16 21.56 L 14.52 21.29 L 14.86 21.0 L 15.05 21.0 L 15.09 20.75 L 15.14 20.5 L 15.18 20.25 L 15.22 20.0 L 15.26 19.75 L 15.3 19.5 L 15.34 19.25 L 15.39 19.0 L 15.43 18.75 L 15.47 18.5 L 15.51 18.25 L 15.55 18.0 L 15.59 17.75 L 15.64 17.5 L 15.68 17.25 L 15.72 17.0 L 15.76 16.75 L 15.8 16.5 L 15.84 16.25 L 15.89 16.0 L 15.93 15.75 L 15.97 15.5 L 16.01 15.25 L 16.05 15.0 L 16.05 15.0 L 15.8 14.77 L 15.58 14.52 L 15.39 14.23 L 15.24 13.93 L 15.13 13.6 L 15.07 13.27 L 15.04 12.93 L 15.07 12.59 L 15.13 12.26 L 15.24 11.94 L 15.39 11.63 L 15.57 11.35 L 15.79 11.09 L 16.04 10.86 L 16.32 10.67 L 16.63 10.51 L 16.95 10.4 L 17.28 10.32 L 17.62 10.29 L 17.96 10.31 L 18.29 10.36 L 18.62 10.46 L 18.93 10.61 L 19.21 10.78 L 19.05 11.0 L 19.03 11.25 L 18.99 11.5 L 18.95 11.74 L 18.9 11.99 L 18.83 12.23 L 18.76 12.47 L 18.68 12.7 L 18.59 12.93 L 18.49 13.16 L 18.38 13.39 L 18.27 13.61 L 18.14 13.83 L 18.01 14.04 L 17.87 14.24 L 17.72 14.45 L 17.57 14.64 L 17.4 14.83 L 17.23 15.01 L 17.06 15.19 L 16.87 15.36 L 16.68 15.52 L 16.49 15.67 L 16.28 15.82 L 16.08 15.96" fill="none" stroke="#111" stroke-width="1.19" stroke-linecap="round" stroke-linejoin="round"/>
<path d="M 5.05 22.0 L 5.05 22.33 L 5.05 22.67 L 5.05 23.0 L 5.05 23.33 L 5.05 23.67 L 5.05 24.0 L 5.05 24.33 L 5.05 24.67 L 5.05 25.0 L 5.05 25.33 L 5.05 25.67 L 5.05 26.0 L 5.05 26.33 L 5.05 26.67 L 5.05 27.0 L 5.05 27.33 L 5.05 27.67 L 5.05 28.0 L 5.05 28.33 L 5.05 28.67 L 5.05 29.0 L 5.05 29.33 L 5.05 29.67 L 5.05 30.0" fill="none" stroke="#111" stroke-width="1.19" stroke-linecap="round" stroke-linejoin="round"/>
<path d="M 5.05 26.0 L 5.08 25.67 L 5.16 25.36 L 5.27 25.05 L 5.42 24.76 L 5.61 24.49 L 5.83 24.25 L 6.08 24.04 L 6.35 23.86 L 6.64 23.72 L 6.95 23.61 L 7.27 23.55 L 7.6 23.53 L 7.93 23.55 L 8.25 23.61 L 8.56 23.72 L 8.85 23.86 L 9.13 24.04 L 9.37 24.25 L 9.59 24.49 L 9.78 24.76 L 9.93 25.05 L 10.04 25.36 L 10.12 25.67 L 10.15 26.0 L 10.05 26.0 L 10.14 25.83 L 10.22 25.67 L 10.3 25.5 L 10.39 25.33 L 10.47 25.17 L 10.55 25.0 L 10.64 24.83 L 10.72 24.67 L 10.8 24.5 L 10.89 24.33 L 10.97 24.17 L 11.05 24.0 L 11.14 23.83 L 11.22 23.67 L 11.3 23.5 L 11.39 23.33 L 11.47 23.17 L 11.55 23.0 L 11.64 22.83 L 11.72 22.67 L 11.8 22.5 L 11.89 22.33 L 11.97 22.17 L 12.05 22.0 L 12.05 22.0 L 11.84 22.36 L 11.71 22.75 L 11.64 23.17 L 11.65 23.58 L 11.74 23.99 L 11.89 24.38 L 12.12 24.73 L 12.4 25.03 L 12.74 25.28 L 13.11 25.46 L 13.51 25.58 L 13.93 25.61 L 14.34 25.58 L 14.75 25.46 L 15.12 25.28 L 15.46 25.03 L 15.74 24.73 L 15.97 24.38 L 16.12 23.99 L 16.21 23.58 L 16.22 23.17 L 16.15 22.75 L 16.01 22.36 L 15.81 22.0" fill="none" stroke="#111" stroke-width="1.19" stroke-linecap="round" stroke-linejoin="round"/>
<path d="M 10.05 26.0 L 10.05 26.17 L 10.05 26.33 L 10.05 26.5 L 10.05 26.67 L 10.05 26.83 L 10.05 27.0 L 10.05 27.17 L 10.05 27.33 L 10.05 27.5 L 10.05 27.67 L 10.05 27.83 L 10.05 28.0 L 10.05 28.17 L 10.05 28.33 L 10.05 28.5 L 10.05 28.67 L 10.05 28.83 L 10.05 29.0 L 10.05 29.17 L 10.05 29.33 L 10.05 29.5 L 10.05 29.67 L 10.05 29.83 L 10.05 30.0" fill="none" stroke="#111" stroke-width="1.19" stroke-linecap="round" stroke-linejoin="round"/>
<path d="M 15.05 26.0 L 15.05 26.12 L 15.05 26.25 L 15.05 26.38 L 15.05 26.5 L 15.05 26.62 L 15.05 26.75 L 15.05 26.88 L 15.05 27.0 L 15.05 27.12 L 15.05 27.25 L 15.05 27.38 L 15.05 27.5 L 15.05 27.62 L 15.05 27.75 L 15.05 27.88 L 15.05 28.0 L 15.05 28.12 L 15.05 28.25 L 15.05 28.38 L 15.05 28.5 L 15.05 28.62 L 15.05 28.75 L 15.05 28.88 L 15.05 29.0" fill="none" stroke="#111" stroke-width="1.19" stroke-linecap="round" stroke-linejoin="round"/>
</svg>
