<?xml version="1.0" encoding="UTF-8"?>
<svg xmlns="http://www.w3.org/2000/svg" viewBox="0 0 23.16 36.85">
<path d="M 10.16 4.0 L 10.12 4.29 L 10.08 4.58 L 10.04 4.88 L 9.99 5.17 L 9.95 5.46 L 9.91 5.75 L 9.87 6.04 L 9.83 6.33 L 9.79 6.62 L 9.74 6.92 L 9.7 7.21 L 9.66 7.5 L 9.62 7.79 L 9.58 8.08 L 9.54 8.38 L 9.49 8.67 L 9.45 8.96 L 9.41 9.25 L 9.37 9.54 L 9.33 9.83 L 9.29 10.12 L 9.24 10.42 L 9.2 10.71 L 9.16 11.0 L 9.16 11.0 L 8.71 11.19 L 8.28 11.41 L 7.87 11.67 L 7.48 11.96 L 7.12 12.29 L 6.79 12.64 L 6.49 13.03 L 6.22 13.43 L 5.99 13.86 L 5.8 14.3 L 5.64 14.77 L 5.53 15.24 L 5.45 15.72 L 5.42 16.2 L 5.42 16.69 L 5.47 17.17 L 5.56 17.65 L 5.69 18.12 L 5.86 18.57 L 6.07 19.01 L 6.32 19.43 L 6.6 19.83 L 6.91 20.2 L 7.25 20.55 L 7.16 21.0 L 7.24 20.88 L 7.33 20.75 L 7.41 20.62 L 7.49 20.5 L 7.58 20.38 L 7.66 20.25 L 7.74 20.12 L 7.83 20.0 L 7.91 19.88 L 7.99 19.75 L 8.08 19.62 L 8.16 19.5 L 8.24 19.38 L 8.33 19.25 L 8.41 19.12 L 8.49 19.0 L 8.58 18.88 L 8.66 18.75 L 8.74 18.62 L 8.83 18.5 L 8.91 18.38 L 8.99 18.25 L 9.08 18.12 L 9.16 18.0" fill="none" stroke="#111" stroke-width="1.29" stroke-linecap="round" stroke-linejoin="round"/>
<path d="M 10.16 11.0 L 10.63 11.2 L 11.09 11.44 L 11.51 11.74 L 11.9 12.07 L 12.26 12.44 L 12.57 12.84 L 12.85 13.28 L 13.07 13.74 L 13.25 14.22 L 13.38 14.72 L 13.46 15.23 L 13.49 15.74 L 13.46 16.25 L 13.38 16.76 L 13.25 17.26 L 13.07 17.74 L 12.85 18.2 L 12.57 18.63 L 12.26 19.04 L 11.9 19.41 L 11.51 19.74 L 11.09 20.03 L 10.63 20.28 L 10.16 20.48 L 10.16 21.0 L 10.16 20.92 L 10.16 20.83 L 10.16 20.75 L 10.16 20.67 L 10.16 20.58 L 10.16 20.5 L 10.16 20.42 L 10.16 20.33 L 10.16 20.25 L 10.16 20.17 L 10.16 20.08 L 10.16 20.0 L 10.16 19.92 L 10.16 19.83 L 10.16 19.75 L 10.16 19.67 L 10.16 19.58 L 10.16 19.5 L 10.16 19.42 L 10.16 19.33 L 10.16 19.25 L 10.16 19.17 L 10.16 19.08 L 10.16 19.0" fill="none" stroke="#111" stroke-width="1.29" stroke-linecap="round" stroke-linejoin="round"/>
<path d="M 4.16 8.0 L 4.06 8.52 L 4.01 9.04 L 4.0 9.56 L 4.04 10.09 L 4.13 10.61 L 4.27 11.11 L 4.45 11.61 L 4.67 12.08 L 4.94 12.53 L 5.25 12.96 L 5.59 13.36 L 5.97 13.72 L 6.38 14.05 L 6.82 14.34 L 7.28 14.58 L 7.77 14.79 L 8.27 14.95 L 8.78 15.06 L 9.3 15.13 L 9.83 15.15 L 10.35 15.12 L 10.87 15.05 L 11.38 14.92 L 11.88 14.76 L 12.16 15.0 L 12.2 14.71 L 12.24 14.42 L 12.29 14.12 L 12.33 13.83 L 12.37 13.54 L 12.41 13.25 L 12.45 12.96 L 12.49 12.67 L 12.54 12.38 L 12.58 12.08 L 12.62 11.79 L 12.66 11.5 L 12.7 11.21 L 12.74 10.92 L 12.79 10.62 L 12.83 10.33 L 12.87 10.04 L 12.91 9.75 L 12.95 9.46 L 12.99 9.17 L 13.04 8.88 L 13.08 8.58 L 13.12 8.29 L 13.16 8.0" fill="none" stroke="#111" stroke-width="1.29" stroke-linecap="round" stroke-linejoin="round"/>
<path d="M 19.16 12.0 L 19.04 12.21 L 18.91 12.42 L 18.79 12.62 L 18.66 12.83 L 18.54 13.04 L 18.41 13.25 L 18.29 13.46 L 18.16 13.67 L 18.04 13.88 L 17.91 14.08 L 17.79 14.29 L 17.66 14.5 L 17.54 14.71 L 17.41 14.92 L 17.29 15.12 L 17.16 15.33 L 17.04 15.54 L 16.91 15.75 L 16.79 15.96 L 16.66 16.17 L 16.54 16.38 L 16.41 16.58 L 16.29 16.79 L 16.16 17.0 L 16.16 17.0 L 16.55 17.63 L 16.9 18.29 L 17.2 18.97 L 17.46 19.66 L 17.67 20.37 L 17.84 21.1 L 17.97 21.83 L 18.04 22.57 L 18.07 23.31 L 18.05 24.05 L 17.98 24.79 L 17.87 25.53 L 17.71 26.25 L 17.51 26.97 L 17.25 27.66 L 16.96 28.35 L 16.62 29.01 L 16.24 29.65 L 15.82 30.26 L 15.36 30.84 L 14.87 31.4 L 14.34 31.92 L 13.78 32.4 L 13.19 32.85" fill="none" stroke="#111" stroke-width="1.29" stroke-linecap="round" stroke-linejoin="round"/>
<path d="M 17.16 21.0 L 16.99 21.25 L 16.83 21.5 L 16.66 21.75 L 16.49 22.0 L 16.33 22.25 L 16.16 22.5 L 15.99 22.75 L 15.83 23.0 L 15.66 23.25 L 15.49 23.5 L 15.33 23.75 L 15.16 24.0 L 14.99 24.25 L 14.83 24.5 L 14.66 24.75 L 14.49 25.0 L 14.33 25.25 L 14.16 25.5 L 13.99 25.75 L 13.83 26.0 L 13.66 26.25 L 13.49 26.5 L 13.33 26.75 L 13.16 27.0" fill="none" stroke="#111" stroke-width="1.29" stroke-linecap="round" stroke-linejoin="round"/>
</svg>
