<?xml version="1.0" encoding="UTF-8"?>
<svg xmlns="http://www.w3.org/2000/svg" viewBox="0 0 25.00 30.00">
<path d="M 6.0 4.0 L 6.0 4.92 L 6.0 5.83 L 6.0 6.75 L 6.0 7.67 L 6.0 8.58 L 6.0 9.5 L 6.0 10.42 L 6.0 11.33 L 6.0 12.25 L 6.0 13.17 L 6.0 14.08 L 6.0 15.0 L 6.0 15.92 L 6.0 16.83 L 6.0 17.75 L 6.0 18.67 L 6.0 19.58 L 6.0 20.5 L 6.0 21.42 L 6.0 22.33 L 6.0 23.25 L 6.0 24.17 L 6.0 25.08 L 6.0 26.0" fill="none" stroke="#111" stroke-width="1.05" stroke-linecap="round" stroke-linejoin="round"/>
<path d="M 17.0 4.0 L 17.04 4.88 L 17.08 5.75 L 17.12 6.62 L 17.17 7.5 L 17.21 8.38 L 17.25 9.25 L 17.29 10.12 L 17.33 11.0 L 17.38 11.88 L 17.42 12.75 L 17.46 13.62 L 17.5 14.5 L 17.54 15.38 L 17.58 16.25 L 17.62 17.12 L 17.67 18.0 L 17.71 18.88 L 17.75 19.75 L 17.79 20.63 L 17.83 21.5 L 17.88 22.38 L 17.92 23.25 L 17.96 24.13 L 18.0 25.0" fill="none" stroke="#111" stroke-width="1.05" stroke-linecap="round" stroke-linejoin="round"/>
<path d="M 6.0 4.0 L 5.92 4.25 L 5.83 4.5 L 5.75 4.75 L 5.67 5.0 L 5.58 5.25 L 5.5 5.5 L 5.42 5.75 L 5.33 6.0 L 5.25 6.25 L 5.17 6.5 L 5.08 6.75 L 5.0 7.0 L 4.92 7.25 L 4.83 7.5 L 4.75 7.75 L 4.67 8.0 L 4.58 8.25 L 4.5 8.5 L 4.42 8.75 L 4.33 9.0 L 4.25 9.25 L 4.17 9.5 L 4.08 9.75 L 4.0 10.0" fill="none" stroke="#111" stroke-width="1.05" stroke-linecap="round" stroke-linejoin="round"/>
<path d="M 6.0 4.0 L 6.08 4.17 L 6.17 4.33 L 6.25 4.5 L 6.33 4.67 L 6.42 4.83 L 6.5 5.0 L 6.58 5.17 L 6.67 5.33 L 6.75 5.5 L 6.83 5.67 L 6.92 5.83 L 7.0 6.0 L 7.08 6.17 L 7.17 6.33 L 7.25 6.5 L 7.33 6.67 L 7.42 6.83 L 7.5 7.0 L 7.58 7.17 L 7.67 7.33 L 7.75 7.5 L 7.83 7.67 L 7.92 7.83 L 8.0 8.0" fill="none" stroke="#111" stroke-width="1.05" stroke-linecap="round" stroke-linejoin="round"/>
<path d="M 17.0 4.0 L 16.92 4.21 L 16.83 4.42 L 16.75 4.62 L 16.67 4.83 L 16.58 5.04 L 16.5 5.25 L 16.42 5.46 L 16.33 5.67 L 16.25 5.88 L 16.17 6.08 L 16.08 6.29 L 16.0 6.5 L 15.92 6.71 L 15.83 6.92 L 15.75 7.12 L 15.67 7.33 L 15.58 7.54 L 15.5 7.75 L 15.42 7.96 L 15.33 8.17 L 15.25 8.38 L 15.17 8.58 L 15.08 8.79 L 15.0 9.0" fill="none" stroke="#111" stroke-width="1.05" stroke-linecap="round" stroke-linejoin="round"/>
<path d="M 17.0 4.0 L 17.17 4.17 L 17.33 4.33 L 17.5 4.5 L 17.67 4.67 L 17.83 4.83 L 18.0 5.0 L 18.17 5.17 L 18.33 5.33 L 18.5 5.5 L 18.67 5.67 L 18.83 5.83 L 19.0 6.0 L 19.17 6.17 L 19.33 6.33 L 19.5 6.5 L 19.67 6.67 L 19.83 6.83 L 20.0 7.0 L 20.17 7.17 L 20.33 7.33 L 20.5 7.5 L 20.67 7.67 L 20.83 7.83 L 21.0 8.0" fill="none" stroke="#111" stroke-width="1.05" stroke-linecap="round" stroke-linejoin="round"/>
<path d="M 6.0 13.0 L 6.46 12.96 L 6.92 12.92 L 7.38 12.88 L 7.83 12.83 L 8.29 12.79 L 8.75 12.75 L 9.21 12.71 L 9.67 12.67 L 10.12 12.62 L 10.58 12.58 L 11.04 12.54 L 11.5 12.5 L 11.96 12.46 L 12.42 12.42 L 12.88 12.38 L 13.33 12.33 L 13.79 12.29 L 14.25 12.25 L 14.71 12.21 L 15.17 12.17 L 15.62 12.12 L 16.08 12.08 L 16.54 12.04 L 17.0 12.0" fill="none" stroke="#111" stroke-width="1.05" stroke-linecap="round" stroke-linejoin="round"/>
<path d="M 6.0 16.0 L 6.46 16.0 L 6.92 16.0 L 7.38 16.0 L 7.83 16.0 L 8.29 16.0 L 8.75 16.0 L 9.21 16.0 L 9.67 16.0 L 10.12 16.0 L 10.58 16.0 L 11.04 16.0 L 11.5 16.0 L 11.96 16.0 L 12.42 16.0 L 12.88 16.0 L 13.33 16.0 L 13.79 16.0 L 14.25 16.0 L 14.71 16.0 L 15.17 16.0 L 15.62 16.0 L 16.08 16.0 L 16.54 16.0 L 17.0 16.0" fill="none" stroke="#111" stroke-width="1.05" stroke-linecap="round" stroke-linejoin="round"/>
<path d="M 9.0 17.0 L 9.01 17.36 L 9.0 17.72 L 8.98 18.08 L 8.94 18.43 L 8.89 18.79 L 8.82 19.14 L 8.74 19.49 L 8.64 19.84 L 8.53 20.18 L 8.4 20.51 L 8.26 20.84 L 8.11 21.17 L 7.94 21.49 L 7.76 21.8 L 7.57 22.1 L 7.36 22.39 L 7.14 22.68 L 6.91 22.95 L 6.67 23.22 L 6.42 23.47 L 6.16 23.72 L 5.88 23.95 L 5.6 24.17 L 5.31 24.38" fill="none" stroke="#111" stroke-width="1.05" stroke-linecap="round" stroke-linejoin="round"/>
<path d="M 9.0 17.0 L 9.08 17.21 L 9.17 17.42 L 9.25 17.62 L 9.33 17.83 L 9.42 18.04 L 9.5 18.25 L 9.58 18.46 L 9.67 18.67 L 9.75 18.88 L 9.83 19.08 L 9.92 19.29 L 10.0 19.5 L 10.08 19.71 L 10.17 19.92 L 10.25 20.12 L 10.33 20.33 L 10.42 20.54 L 10.5 20.75 L 10.58 20.96 L 10.67 21.17 L 10.75 21.38 L 10.83 21.58 L 10.92 21.79 L 11.0 22.0" fill="none" stroke="#111" stroke-width="1.05" stroke-linecap="round" stroke-linejoin="round"/>
<path d="M 11.0 22.0 L 11.0 22.17 L 11.0 22.33 L 11.0 22.5 L 11.0 22.67 L 11.0 22.83 L 11.0 23.0 L 11.0 23.17 L 11.0 23.33 L 11.0 23.5 L 11.0 23.67 L 11.0 23.83 L 11.0 24.0 L 11.0 24.17 L 11.0 24.33 L 11.0 24.5 L 11.0 24.67 L 11.0 24.83 L 11.0 25.0 L 11.0 25.17 L 11.0 25.33 L 11.0 25.5 L 11.0 25.67 L 11.0 25.83 L 11.0 26.0" fill="none" stroke="#111" stroke-width="1.05" stroke-linecap="round" stroke-linejoin="round"/>
<path d="M 11.0 22.0 L 11.12 21.79 L 11.25 21.58 L 11.38 21.38 L 11.5 21.17 L 11.62 20.96 L 11.75 20.75 L 11.88 20.54 L 12.0 20.33 L 12.12 20.12 L 12.25 19.92 L 12.38 19.71 L 12.5 19.5 L 12.62 19.29 L 12.75 19.08 L 12.88 18.88 L 13.0 18.67 L 13.12 18.46 L 13.25 18.25 L 13.38 18.04 L 13.5 17.83 L 13.62 17.62 L 13.75 17.42 L 13.88 17.21 L 14.0 17.0" fill="none" stroke="#111" stroke-width="1.05" stroke-linecap="round" stroke-linejoin="round"/>
<path d="M 14.0 17.0 L 14.12 17.17 L 14.25 17.33 L 14.38 17.5 L 14.5 17.67 L 14.62 17.83 L 14.75 18.0 L 14.88 18.17 L 15.0 18.33 L 15.12 18.5 L 15.25 18.67 L 15.38 18.83 L 15.5 19.0 L 15.62 19.17 L 15.75 19.33 L 15.88 19.5 L 16.0 19.67 L 16.12 19.83 L 16.25 20.0 L 16.38 20.17 L 16.5 20.33 L 16.62 20.5 L 16.75 20.67 L 16.88 20.83 L 17.0 21.0" fill="none" stroke="#111" stroke-width="1.05" stroke-linecap="round" stroke-linejoin="round"/>
</svg>
