<?xml version="1.0" encoding="UTF-8"?>
<svg xmlns="http://www.w3.org/2000/svg" viewBox="0 0 19.00 34.00">
<path d="M 4.0 7.0 L 4.33 6.88 L 4.67 6.75 L 5.0 6.62 L 5.33 6.5 L 5.67 6.38 L 6.0 6.25 L 6.33 6.12 L 6.67 6.0 L 7.0 5.88 L 7.33 5.75 L 7.67 5.62 L 8.0 5.5 L 8.33 5.38 L 8.67 5.25 L 9.0 5.12 L 9.33 5.0 L 9.67 4.88 L 10.0 4.75 L 10.33 4.62 L 10.67 4.5 L 11.0 4.38 L 11.33 4.25 L 11.67 4.12 L 12.0 4.0 L 12.0 4.0 L 12.08 4.17 L 12.17 4.33 L 12.25 4.5 L 12.33 4.67 L 12.42 4.83 L 12.5 5.0 L 12.58 5.17 L 12.67 5.33 L 12.75 5.5 L 12.83 5.67 L 12.92 5.83 L 13.0 6.0 L 13.08 6.17 L 13.17 6.33 L 13.25 6.5 L 13.33 6.67 L 13.42 6.83 L 13.5 7.0 L 13.58 7.17 L 13.67 7.33 L 13.75 7.5 L 13.83 7.67 L 13.92 7.83 L 14.0 8.0 L 14.0 8.0 L 13.61 7.86 L 13.21 7.75 L 12.8 7.67 L 12.39 7.63 L 11.98 7.62 L 11.56 7.64 L 11.15 7.69 L 10.75 7.77 L 10.35 7.89 L 9.96 8.03 L 9.59 8.21 L 9.23 8.42 L 8.89 8.65 L 8.56 8.91 L 8.26 9.19 L 7.98 9.5 L 7.73 9.83 L 7.5 10.17 L 7.3 10.54 L 7.13 10.92 L 6.99 11.31 L 6.88 11.7 L 6.81 12.11 L 6.76 12.52" fill="none" stroke="#111" stroke-width="1.19" stroke-linecap="round" stroke-linejoin="round"/>
<path d="M 5.0 9.0 L 5.17 8.92 L 5.33 8.83 L 5.5 8.75 L 5.67 8.67 L 5.83 8.58 L 6.0 8.5 L 6.17 8.42 L 6.33 8.33 L 6.5 8.25 L 6.67 8.17 L 6.83 8.08 L 7.0 8.0 L 7.17 7.92 L 7.33 7.83 L 7.5 7.75 L 7.67 7.67 L 7.83 7.58 L 8.0 7.5 L 8.17 7.42 L 8.33 7.33 L 8.5 7.25 L 8.67 7.17 L 8.83 7.08 L 9.0 7.0" fill="none" stroke="#111" stroke-width="1.19" stroke-linecap="round" stroke-linejoin="round"/>
<path d="M 9.0 11.0 L 8.96 11.29 L 8.92 11.58 L 8.88 11.88 L 8.83 12.17 L 8.79 12.46 L 8.75 12.75 L 8.71 13.04 L 8.67 13.33 L 8.62 13.62 L 8.58 13.92 L 8.54 14.21 L 8.5 14.5 L 8.46 14.79 L 8.42 15.08 L 8.38 15.38 L 8.33 15.67 L 8.29 15.96 L 8.25 16.25 L 8.21 16.54 L 8.17 16.83 L 8.12 17.12 L 8.08 17.42 L 8.04 17.71 L 8.0 18.0 L 8.0 18.0 L 8.29 18.5 L 8.58 19.0 L 8.88 19.5 L 9.17 20.0 L 9.46 20.5 L 9.75 21.0 L 10.04 21.5 L 10.33 22.0 L 10.62 22.5 L 10.92 23.0 L 11.21 23.5 L 11.5 24.0 L 11.79 24.5 L 12.08 25.0 L 12.38 25.5 L 12.67 26.0 L 12.96 26.5 L 13.25 27.0 L 13.54 27.5 L 13.83 28.0 L 14.12 28.5 L 14.42 29.0 L 14.71 29.5 L 15.0 30.0" fill="none" stroke="#111" stroke-width="1.19" stroke-linecap="round" stroke-linejoin="round"/>
<path d="M 6.0 24.0 L 6.33 23.83 L 6.67 23.67 L 7.0 23.5 L 7.33 23.33 L 7.67 23.17 L 8.0 23.0 L 8.33 22.83 L 8.67 22.67 L 9.0 22.5 L 9.33 22.33 L 9.67 22.17 L 10.0 22.0 L 10.33 21.83 L 10.67 21.67 L 11.0 21.5 L 11.33 21.33 L 11.67 21.17 L 12.0 21.0 L 12.33 20.83 L 12.67 20.67 L 13.0 20.5 L 13.33 20.33 L 13.67 20.17 L 14.0 20.0" fill="none" stroke="#111" stroke-width="1.19" stroke-linecap="round" stroke-linejoin="round"/>
<path d="M 5.0 14.0 L 5.0 14.21 L 5.0 14.42 L 5.0 14.62 L 5.0 14.83 L 5.0 15.04 L 5.0 15.25 L 5.0 15.46 L 5.0 15.67 L 5.0 15.88 L 5.0 16.08 L 5.0 16.29 L 5.0 16.5 L 5.0 16.71 L 5.0 16.92 L 5.0 17.12 L 5.0 17.33 L 5.0 17.54 L 5.0 17.75 L 5.0 17.96 L 5.0 18.17 L 5.0 18.38 L 5.0 18.58 L 5.0 18.79 L 5.0 19.0" fill="none" stroke="#111" stroke-width="1.19" stroke-linecap="round" stroke-linejoin="round"/>
<path d="M 12.0 12.0 L 12.0 12.12 L 12.0 12.25 L 12.0 12.38 L 12.0 12.5 L 12.0 12.62 L 12.0 12.75 L 12.0 12.88 L 12.0 13.0 L 12.0 13.12 L 12.0 13.25 L 12.0 13.38 L 12.0 13.5 L 12.0 13.62 L 12.0 13.75 L 12.0 13.88 L 12.0 14.0 L 12.0 14.12 L 12.0 14.25 L 12.0 14.38 L 12.0 14.5 L 12.0 14.62 L 12.0 14.75 L 12.0 14.88 L 12.0 15.0" fill="none" stroke="#111" stroke-width="1.19" stroke-linecap="round" stroke-linejoin="round"/>
</svg>
