<?xml version="1.0" encoding="UTF-8"?>
<svg xmlns="http://www.w3.org/2000/svg" viewBox="0 0 28.46 54.08">
<path d="M 5.0 49.0 L 4.94 49.11 L 4.91 49.23 L 4.9 49.36 L 4.9 49.48 L 4.93 49.6 L 4.99 49.72 L 5.06 49.82 L 5.14 49.91 L 5.24 49.98 L 5.36 50.03 L 5.48 50.07 L 5.6 50.08 L 5.73 50.07 L 5.85 50.03 L 5.96 49.98 L 6.06 49.91 L 6.15 49.82 L 6.22 49.72 L 6.27 49.6 L 6.3 49.48 L 6.31 49.36 L 6.3 49.23 L 6.26 49.11 L 6.21 49.0 L 6.0 49.0 L 5.96 49.0 L 5.92 49.0 L 5.88 49.0 L 5.83 49.0 L 5.79 49.0 L 5.75 49.0 L 5.71 49.0 L 5.67 49.0 L 5.62 49.0 L 5.58 49.0 L 5.54 49.0 L 5.5 49.0 L 5.46 49.0 L 5.42 49.0 L 5.38 49.0 L 5.33 49.0 L 5.29 49.0 L 5.25 49.0 L 5.21 49.0 L 5.17 49.0 L 5.12 49.0 L 5.08 49.0 L 5.04 49.0 L 5.0 49.0" fill="none" stroke="#111" stroke-width="1.89" stroke-linecap="round" stroke-linejoin="round"/>
<path d="M 11.0 5.0 L 11.16 4.93 L 11.33 4.87 L 11.5 4.83 L 11.67 4.8 L 11.85 4.79 L 12.03 4.79 L 12.2 4.81 L 12.37 4.84 L 12.54 4.89 L 12.71 4.96 L 12.87 5.04 L 13.02 5.13 L 13.16 5.23 L 13.29 5.35 L 13.42 5.47 L 13.53 5.61 L 13.62 5.76 L 13.71 5.91 L 13.78 6.08 L 13.84 6.24 L 13.88 6.41 L 13.9 6.59 L 13.92 6.76 L 13.91 6.94 L 14.0 7.0 L 14.25 7.0 L 14.5 7.0 L 14.75 7.0 L 15.0 7.0 L 15.25 7.0 L 15.5 7.0 L 15.75 7.0 L 16.0 7.0 L 16.25 7.0 L 16.5 7.0 L 16.75 7.0 L 17.0 7.0 L 17.25 7.0 L 17.5 7.0 L 17.75 7.0 L 18.0 7.0 L 18.25 7.0 L 18.5 7.0 L 18.75 7.0 L 19.0 7.0 L 19.25 7.0 L 19.5 7.0 L 19.75 7.0 L 20.0 7.0 L 20.0 7.0 L 20.0 6.88 L 20.0 6.75 L 20.0 6.62 L 20.0 6.5 L 20.0 6.38 L 20.0 6.25 L 20.0 6.12 L 20.0 6.0 L 20.0 5.88 L 20.0 5.75 L 20.0 5.62 L 20.0 5.5 L 20.0 5.38 L 20.0 5.25 L 20.0 5.12 L 20.0 5.0 L 20.0 4.88 L 20.0 4.75 L 20.0 4.62 L 20.0 4.5 L 20.0 4.38 L 20.0 4.25 L 20.0 4.12 L 20.0 4.0 L 20.0 4.0 L 20.08 4.0 L 20.17 4.0 L 20.25 4.0 L 20.33 4.0 L 20.42 4.0 L 20.5 4.0 L 20.58 4.0 L 20.67 4.0 L 20.75 4.0 L 20.83 4.0 L 20.92 4.0 L 21.0 4.0 L 21.08 4.0 L 21.17 4.0 L 21.25 4.0 L 21.33 4.0 L 21.42 4.0 L 21.5 4.0 L 21.58 4.0 L 21.67 4.0 L 21.75 4.0 L 21.83 4.0 L 21.92 4.0 L 22.0 4.0" fill="none" stroke="#111" stroke-width="1.89" stroke-linecap="round" stroke-linejoin="round"/>
<path d="M 17.0 7.0 L 17.0 7.38 L 17.0 7.75 L 17.0 8.12 L 17.0 8.5 L 17.0 8.88 L 17.0 9.25 L 17.0 9.62 L 17.0 10.0 L 17.0 10.38 L 17.0 10.75 L 17.0 11.12 L 17.0 11.5 L 17.0 11.88 L 17.0 12.25 L 17.0 12.62 L 17.0 13.0 L 17.0 13.38 L 17.0 13.75 L 17.0 14.12 L 17.0 14.5 L 17.0 14.88 L 17.0 15.25 L 17.0 15.62 L 17.0 16.0" fill="none" stroke="#111" stroke-width="1.89" stroke-linecap="round" stroke-linejoin="round"/>
<path d="M 15.0 8.0 L 14.96 8.08 L 14.92 8.17 L 14.88 8.25 L 14.83 8.33 L 14.79 8.42 L 14.75 8.5 L 14.71 8.58 L 14.67 8.67 L 14.62 8.75 L 14.58 8.83 L 14.54 8.92 L 14.5 9.0 L 14.46 9.08 L 14.42 9.17 L 14.38 9.25 L 14.33 9.33 L 14.29 9.42 L 14.25 9.5 L 14.21 9.58 L 14.17 9.67 L 14.12 9.75 L 14.08 9.83 L 14.04 9.92 L 14.0 10.0" fill="none" stroke="#111" stroke-width="1.89" stroke-linecap="round" stroke-linejoin="round"/>
<path d="M 15.0 8.0 L 15.04 8.08 L 15.08 8.17 L 15.12 8.25 L 15.17 8.33 L 15.21 8.42 L 15.25 8.5 L 15.29 8.58 L 15.33 8.67 L 15.38 8.75 L 15.42 8.83 L 15.46 8.92 L 15.5 9.0 L 15.54 9.08 L 15.58 9.17 L 15.62 9.25 L 15.67 9.33 L 15.71 9.42 L 15.75 9.5 L 15.79 9.58 L 15.83 9.67 L 15.88 9.75 L 15.92 9.83 L 15.96 9.92 L 16.0 10.0" fill="none" stroke="#111" stroke-width="1.89" stroke-linecap="round" stroke-linejoin="round"/>
<path d="M 19.0 7.0 L 18.96 7.12 L 18.92 7.25 L 18.88 7.38 L 18.83 7.5 L 18.79 7.62 L 18.75 7.75 L 18.71 7.88 L 18.67 8.0 L 18.62 8.12 L 18.58 8.25 L 18.54 8.38 L 18.5 8.5 L 18.46 8.62 L 18.42 8.75 L 18.38 8.88 L 18.33 9.0 L 18.29 9.12 L 18.25 9.25 L 18.21 9.38 L 18.17 9.5 L 18.12 9.62 L 18.08 9.75 L 18.04 9.88 L 18.0 10.0" fill="none" stroke="#111" stroke-width="1.89" stroke-linecap="round" stroke-linejoin="round"/>
<path d="M 19.0 7.0 L 19.04 7.12 L 19.08 7.25 L 19.12 7.38 L 19.17 7.5 L 19.21 7.62 L 19.25 7.75 L 19.29 7.88 L 19.33 8.0 L 19.38 8.12 L 19.42 8.25 L 19.46 8.38 L 19.5 8.5 L 19.54 8.62 L 19.58 8.75 L 19.62 8.88 L 19.67 9.0 L 19.71 9.12 L 19.75 9.25 L 19.79 9.38 L 19.83 9.5 L 19.88 9.62 L 19.92 9.75 L 19.96 9.88 L 20.0 10.0" fill="none" stroke="#111" stroke-width="1.89" stroke-linecap="round" stroke-linejoin="round"/>
<path d="M 14.0 12.0 L 14.0 12.75 L 14.0 13.5 L 14.0 14.25 L 14.0 15.0 L 14.0 15.75 L 14.0 16.5 L 14.0 17.25 L 14.0 18.0 L 14.0 18.75 L 14.0 19.5 L 14.0 20.25 L 14.0 21.0 L 14.0 21.75 L 14.0 22.5 L 14.0 23.25 L 14.0 24.0 L 14.0 24.75 L 14.0 25.5 L 14.0 26.25 L 14.0 27.0 L 14.0 27.75 L 14.0 28.5 L 14.0 29.25 L 14.0 30.0" fill="none" stroke="#111" stroke-width="1.89" stroke-linecap="round" stroke-linejoin="round"/>
<path d="M 11.0 22.0 L 11.0 22.17 L 11.0 22.33 L 11.0 22.5 L 11.0 22.67 L 11.0 22.83 L 11.0 23.0 L 11.0 23.17 L 11.0 23.33 L 11.0 23.5 L 11.0 23.67 L 11.0 23.83 L 11.0 24.0 L 11.0 24.17 L 11.0 24.33 L 11.0 24.5 L 11.0 24.67 L 11.0 24.83 L 11.0 25.0 L 11.0 25.17 L 11.0 25.33 L 11.0 25.5 L 11.0 25.67 L 11.0 25.83 L 11.0 26.0" fill="none" stroke="#111" stroke-width="1.89" stroke-linecap="round" stroke-linejoin="round"/>
<path d="M 12.0 22.0 L 12.21 22.0 L 12.42 22.0 L 12.62 22.0 L 12.83 22.0 L 13.04 22.0 L 13.25 22.0 L 13.46 22.0 L 13.67 22.0 L 13.88 22.0 L 14.08 22.0 L 14.29 22.0 L 14.5 22.0 L 14.71 22.0 L 14.92 22.0 L 15.12 22.0 L 15.33 22.0 L 15.54 22.0 L 15.75 22.0 L 15.96 22.0 L 16.17 22.0 L 16.38 22.0 L 16.58 22.0 L 16.79 22.0 L 17.0 22.0" fill="none" stroke="#111" stroke-width="1.89" stroke-linecap="round" stroke-linejoin="round"/>
<path d="M 17.0 22.0 L 17.0 22.17 L 17.0 22.33 L 17.0 22.5 L 17.0 22.67 L 17.0 22.83 L 17.0 23.0 L 17.0 23.17 L 17.0 23.33 L 17.0 23.5 L 17.0 23.67 L 17.0 23.83 L 17.0 24.0 L 17.0 24.17 L 17.0 24.33 L 17.0 24.5 L 17.0 24.67 L 17.0 24.83 L 17.0 25.0 L 17.0 25.17 L 17.0 25.33 L 17.0 25.5 L 17.0 25.67 L 17.0 25.83 L 17.0 26.0" fill="none" stroke="#111" stroke-width="1.89" stroke-linecap="round" stroke-linejoin="round"/>
<path d="M 4.0 24.0 L 4.83 24.0 L 5.67 24.0 L 6.5 24.0 L 7.33 24.0 L 8.17 24.0 L 9.0 24.0 L 9.83 24.0 L 10.67 24.0 L 11.5 24.0 L 12.33 24.0 L 13.17 24.0 L 14.0 24.0 L 14.83 24.0 L 15.67 24.0 L 16.5 24.0 L 17.33 24.0 L 18.17 24.0 L 19.0 24.0 L 19.83 24.0 L 20.67 24.0 L 21.5 24.0 L 22.33 24.0 L 23.17 24.0 L 24.0 24.0" fill="none" stroke="#111" stroke-width="1.89" stroke-linecap="round" stroke-linejoin="round"/>
<path d="M 11.0 26.0 L 11.25 26.0 L 11.5 26.0 L 11.75 26.0 L 12.0 26.0 L 12.25 26.0 L 12.5 26.0 L 12.75 26.0 L 13.0 26.0 L 13.25 26.0 L 13.5 26.0 L 13.75 26.0 L 14.0 26.0 L 14.25 26.0 L 14.5 26.0 L 14.75 26.0 L 15.0 26.0 L 15.25 26.0 L 15.5 26.0 L 15.75 26.0 L 16.0 26.0 L 16.25 26.0 L 16.5 26.0 L 16.75 26.0 L 17.0 26.0" fill="none" stroke="#111" stroke-width="1.89" stroke-linecap="round" stroke-linejoin="round"/>
<path d="M 7.0 22.0 L 6.84 22.14 L 6.69 22.29 L 6.56 22.45 L 6.44 22.63 L 6.35 22.81 L 6.27 23.01 L 6.21 23.21 L 6.17 23.42 L 6.15 23.63 L 6.15 23.84 L 6.17 24.05 L 6.21 24.26 L 6.27 24.46 L 6.35 24.65 L 6.45 24.84 L 6.56 25.02 L 6.7 25.18 L 6.85 25.33 L 7.01 25.46 L 7.18 25.58 L 7.37 25.68 L 7.56 25.77 L 7.76 25.83 L 7.97 25.87 L 8.0 26.0 L 8.23 25.91 L 8.46 25.8 L 8.67 25.67 L 8.87 25.53 L 9.06 25.36 L 9.23 25.18 L 9.39 24.99 L 9.53 24.78 L 9.65 24.56 L 9.75 24.33 L 9.83 24.1 L 9.89 23.86 L 9.93 23.61 L 9.95 23.36 L 9.94 23.11 L 9.91 22.86 L 9.86 22.62 L 9.79 22.38 L 9.7 22.15 L 9.59 21.92 L 9.46 21.71 L 9.32 21.51 L 9.15 21.32 L 8.97 21.15 L 9.0 21.0 L 8.92 21.04 L 8.83 21.08 L 8.75 21.12 L 8.67 21.17 L 8.58 21.21 L 8.5 21.25 L 8.42 21.29 L 8.33 21.33 L 8.25 21.38 L 8.17 21.42 L 8.08 21.46 L 8.0 21.5 L 7.92 21.54 L 7.83 21.58 L 7.75 21.62 L 7.67 21.67 L 7.58 21.71 L 7.5 21.75 L 7.42 21.79 L 7.33 21.83 L 7.25 21.88 L 7.17 21.92 L 7.08 21.96 L 7.0 22.0" fill="none" stroke="#111" stroke-width="1.89" stroke-linecap="round" stroke-linejoin="round"/>
<path d="M 8.0 21.0 L 8.0 21.21 L 8.0 21.42 L 8.0 21.62 L 8.0 21.83 L 8.0 22.04 L 8.0 22.25 L 8.0 22.46 L 8.0 22.67 L 8.0 22.88 L 8.0 23.08 L 8.0 23.29 L 8.0 23.5 L 8.0 23.71 L 8.0 23.92 L 8.0 24.12 L 8.0 24.33 L 8.0 24.54 L 8.0 24.75 L 8.0 24.96 L 8.0 25.17 L 8.0 25.38 L 8.0 25.58 L 8.0 25.79 L 8.0 26.0" fill="none" stroke="#111" stroke-width="1.89" stroke-linecap="round" stroke-linejoin="round"/>
<path d="M 19.0 21.0 L 18.6 21.43 L 18.29 21.93 L 18.07 22.47 L 17.95 23.05 L 17.93 23.64 L 18.02 24.22 L 18.22 24.77 L 18.51 25.28 L 18.88 25.73 L 19.33 26.11 L 19.85 26.4 L 20.4 26.59 L 20.98 26.68 L 21.57 26.67 L 22.14 26.55 L 22.69 26.33 L 23.18 26.01 L 23.62 25.61 L 23.97 25.15 L 24.23 24.62 L 24.4 24.06 L 24.46 23.47 L 24.42 22.89 L 24.27 22.32 L 23.0 22.0 L 22.83 21.96 L 22.67 21.92 L 22.5 21.88 L 22.33 21.83 L 22.17 21.79 L 22.0 21.75 L 21.83 21.71 L 21.67 21.67 L 21.5 21.62 L 21.33 21.58 L 21.17 21.54 L 21.0 21.5 L 20.83 21.46 L 20.67 21.42 L 20.5 21.38 L 20.33 21.33 L 20.17 21.29 L 20.0 21.25 L 19.83 21.21 L 19.67 21.17 L 19.5 21.12 L 19.33 21.08 L 19.17 21.04 L 19.0 21.0" fill="none" stroke="#111" stroke-width="1.89" stroke-linecap="round" stroke-linejoin="round"/>
<path d="M 21.0 21.0 L 21.0 21.21 L 21.0 21.42 L 21.0 21.62 L 21.0 21.83 L 21.0 22.04 L 21.0 22.25 L 21.0 22.46 L 21.0 22.67 L 21.0 22.88 L 21.0 23.08 L 21.0 23.29 L 21.0 23.5 L 21.0 23.71 L 21.0 23.92 L 21.0 24.12 L 21.0 24.33 L 21.0 24.54 L 21.0 24.75 L 21.0 24.96 L 21.0 25.17 L 21.0 25.38 L 21.0 25.58 L 21.0 25.79 L 21.0 26.0" fill="none" stroke="#111" stroke-width="1.89" stroke-linecap="round" stroke-linejoin="round"/>
</svg>
