<?xml version="1.0" encoding="UTF-8"?>
<svg xmlns="http://www.w3.org/2000/svg" viewBox="0 0 20.03 37.00">
<path d="M 9.03 5.0 L 9.03 5.79 L 9.03 6.58 L 9.03 7.38 L 9.03 8.17 L 9.03 8.96 L 9.03 9.75 L 9.03 10.54 L 9.03 11.33 L 9.03 12.12 L 9.03 12.92 L 9.03 13.71 L 9.03 14.5 L 9.03 15.29 L 9.03 16.08 L 9.03 16.88 L 9.03 17.67 L 9.03 18.46 L 9.03 19.25 L 9.03 20.04 L 9.03 20.83 L 9.03 21.62 L 9.03 22.42 L 9.03 23.21 L 9.03 24.0" fill="none" stroke="#111" stroke-width="1.30" stroke-linecap="round" stroke-linejoin="round"/>
<path d="M 9.03 11.0 L 8.54 11.45 L 8.09 11.94 L 7.7 12.47 L 7.35 13.04 L 7.05 13.63 L 6.81 14.25 L 6.63 14.89 L 6.51 15.54 L 6.45 16.2 L 6.45 16.86 L 6.5 17.52 L 6.62 18.18 L 6.8 18.81 L 7.04 19.43 L 7.33 20.03 L 7.68 20.6 L 8.07 21.13 L 8.52 21.62 L 9.0 22.07 L 9.53 22.48 L 10.09 22.83 L 10.68 23.14 L 11.29 23.38 L 11.93 23.57" fill="none" stroke="#111" stroke-width="1.30" stroke-linecap="round" stroke-linejoin="round"/>
<path d="M 9.03 11.0 L 9.51 11.45 L 9.96 11.94 L 10.35 12.46 L 10.7 13.03 L 10.99 13.62 L 11.23 14.23 L 11.41 14.87 L 11.53 15.51 L 11.59 16.17 L 11.59 16.83 L 11.53 17.49 L 11.41 18.13 L 11.24 18.77 L 11.0 19.39 L 10.71 19.98 L 10.37 20.54 L 9.98 21.07 L 9.54 21.56 L 9.05 22.01 L 8.53 22.41 L 7.97 22.77 L 7.39 23.07 L 6.78 23.31 L 6.14 23.5" fill="none" stroke="#111" stroke-width="1.30" stroke-linecap="round" stroke-linejoin="round"/>
<path d="M 7.03 15.0 L 7.24 15.04 L 7.45 15.08 L 7.65 15.12 L 7.86 15.17 L 8.07 15.21 L 8.28 15.25 L 8.49 15.29 L 8.7 15.33 L 8.9 15.38 L 9.11 15.42 L 9.32 15.46 L 9.53 15.5 L 9.74 15.54 L 9.95 15.58 L 10.15 15.62 L 10.36 15.67 L 10.57 15.71 L 10.78 15.75 L 10.99 15.79 L 11.2 15.83 L 11.4 15.88 L 11.61 15.92 L 11.82 15.96 L 12.03 16.0" fill="none" stroke="#111" stroke-width="1.30" stroke-linecap="round" stroke-linejoin="round"/>
<path d="M 4.03 4.0 L 4.11 4.17 L 4.2 4.33 L 4.28 4.5 L 4.36 4.67 L 4.45 4.83 L 4.53 5.0 L 4.61 5.17 L 4.7 5.33 L 4.78 5.5 L 4.86 5.67 L 4.95 5.83 L 5.03 6.0 L 5.11 6.17 L 5.2 6.33 L 5.28 6.5 L 5.36 6.67 L 5.45 6.83 L 5.53 7.0 L 5.61 7.17 L 5.7 7.33 L 5.78 7.5 L 5.86 7.67 L 5.95 7.83 L 6.03 8.0 L 6.03 8.0 L 5.72 8.28 L 5.44 8.58 L 5.17 8.9 L 4.93 9.23 L 4.72 9.59 L 4.53 9.96 L 4.37 10.34 L 4.24 10.73 L 4.13 11.13 L 4.06 11.54 L 4.02 11.95 L 4.0 12.36 L 4.02 12.77 L 4.06 13.19 L 4.13 13.59 L 4.24 13.99 L 4.37 14.38 L 4.53 14.77 L 4.72 15.13 L 4.93 15.49 L 5.17 15.83 L 5.44 16.14 L 5.72 16.44 L 6.03 16.72" fill="none" stroke="#111" stroke-width="1.30" stroke-linecap="round" stroke-linejoin="round"/>
<path d="M 14.03 4.0 L 13.95 4.17 L 13.86 4.33 L 13.78 4.5 L 13.7 4.67 L 13.61 4.83 L 13.53 5.0 L 13.45 5.17 L 13.36 5.33 L 13.28 5.5 L 13.2 5.67 L 13.11 5.83 L 13.03 6.0 L 12.95 6.17 L 12.86 6.33 L 12.78 6.5 L 12.7 6.67 L 12.61 6.83 L 12.53 7.0 L 12.45 7.17 L 12.36 7.33 L 12.28 7.5 L 12.2 7.67 L 12.11 7.83 L 12.03 8.0 L 12.03 8.0 L 12.22 8.29 L 12.4 8.59 L 12.56 8.89 L 12.7 9.21 L 12.83 9.53 L 12.95 9.86 L 13.04 10.19 L 13.12 10.53 L 13.18 10.87 L 13.23 11.21 L 13.25 11.56 L 13.26 11.9 L 13.25 12.25 L 13.23 12.6 L 13.18 12.94 L 13.12 13.28 L 13.04 13.62 L 12.95 13.95 L 12.83 14.28 L 12.7 14.6 L 12.56 14.92 L 12.4 15.22 L 12.22 15.52 L 12.03 15.81" fill="none" stroke="#111" stroke-width="1.30" stroke-linecap="round" stroke-linejoin="round"/>
<path d="M 12.03 10.0 L 11.99 10.08 L 11.95 10.17 L 11.9 10.25 L 11.86 10.33 L 11.82 10.42 L 11.78 10.5 L 11.74 10.58 L 11.7 10.67 L 11.65 10.75 L 11.61 10.83 L 11.57 10.92 L 11.53 11.0 L 11.49 11.08 L 11.45 11.17 L 11.4 11.25 L 11.36 11.33 L 11.32 11.42 L 11.28 11.5 L 11.24 11.58 L 11.2 11.67 L 11.15 11.75 L 11.11 11.83 L 11.07 11.92 L 11.03 12.0" fill="none" stroke="#111" stroke-width="1.30" stroke-linecap="round" stroke-linejoin="round"/>
<path d="M 6.03 8.0 L 6.15 8.12 L 6.28 8.25 L 6.4 8.38 L 6.53 8.5 L 6.65 8.62 L 6.78 8.75 L 6.9 8.88 L 7.03 9.0 L 7.15 9.12 L 7.28 9.25 L 7.4 9.38 L 7.53 9.5 L 7.65 9.62 L 7.78 9.75 L 7.9 9.88 L 8.03 10.0 L 8.15 10.12 L 8.28 10.25 L 8.4 10.38 L 8.53 10.5 L 8.65 10.62 L 8.78 10.75 L 8.9 10.88 L 9.03 11.0" fill="none" stroke="#111" stroke-width="1.30" stroke-linecap="round" stroke-linejoin="round"/>
<path d="M 12.03 7.0 L 11.9 7.17 L 11.78 7.33 L 11.65 7.5 L 11.53 7.67 L 11.4 7.83 L 11.28 8.0 L 11.15 8.17 L 11.03 8.33 L 10.9 8.5 L 10.78 8.67 L 10.65 8.83 L 10.53 9.0 L 10.4 9.17 L 10.28 9.33 L 10.15 9.5 L 10.03 9.67 L 9.9 9.83 L 9.78 10.0 L 9.65 10.17 L 9.53 10.33 L 9.4 10.5 L 9.28 10.67 L 9.15 10.83 L 9.03 11.0" fill="none" stroke="#111" stroke-width="1.30" stroke-linecap="round" stroke-linejoin="round"/>
<path d="M 6.03 10.0 L 6.07 10.04 L 6.11 10.08 L 6.15 10.12 L 6.2 10.17 L 6.24 10.21 L 6.28 10.25 L 6.32 10.29 L 6.36 10.33 L 6.4 10.38 L 6.45 10.42 L 6.49 10.46 L 6.53 10.5 L 6.57 10.54 L 6.61 10.58 L 6.65 10.62 L 6.7 10.67 L 6.74 10.71 L 6.78 10.75 L 6.82 10.79 L 6.86 10.83 L 6.9 10.88 L 6.95 10.92 L 6.99 10.96 L 7.03 11.0" fill="none" stroke="#111" stroke-width="1.30" stroke-linecap="round" stroke-linejoin="round"/>
<path d="M 5.03 21.0 L 4.81 21.27 L 4.62 21.56 L 4.45 21.87 L 4.31 22.19 L 4.2 22.52 L 4.11 22.85 L 4.05 23.2 L 4.02 23.54 L 4.01 23.89 L 4.04 24.24 L 4.09 24.59 L 4.17 24.92 L 4.28 25.25 L 4.42 25.58 L 4.58 25.88 L 4.77 26.18 L 4.98 26.46 L 5.21 26.72 L 5.46 26.96 L 5.74 27.17 L 6.02 27.37 L 6.33 27.54 L 6.65 27.69 L 6.97 27.8" fill="none" stroke="#111" stroke-width="1.30" stroke-linecap="round" stroke-linejoin="round"/>
<path d="M 6.03 22.0 L 5.99 22.12 L 5.95 22.25 L 5.9 22.38 L 5.86 22.5 L 5.82 22.62 L 5.78 22.75 L 5.74 22.88 L 5.7 23.0 L 5.65 23.12 L 5.61 23.25 L 5.57 23.38 L 5.53 23.5 L 5.49 23.62 L 5.45 23.75 L 5.4 23.88 L 5.36 24.0 L 5.32 24.12 L 5.28 24.25 L 5.24 24.38 L 5.2 24.5 L 5.15 24.62 L 5.11 24.75 L 5.07 24.88 L 5.03 25.0" fill="none" stroke="#111" stroke-width="1.30" stroke-linecap="round" stroke-linejoin="round"/>
<path d="M 7.03 25.0 L 6.9 25.29 L 6.78 25.58 L 6.65 25.88 L 6.53 26.17 L 6.4 26.46 L 6.28 26.75 L 6.15 27.04 L 6.03 27.33 L 5.9 27.62 L 5.78 27.92 L 5.65 28.21 L 5.53 28.5 L 5.4 28.79 L 5.28 29.08 L 5.15 29.38 L 5.03 29.67 L 4.9 29.96 L 4.78 30.25 L 4.65 30.54 L 4.53 30.83 L 4.4 31.12 L 4.28 31.42 L 4.15 31.71 L 4.03 32.0" fill="none" stroke="#111" stroke-width="1.30" stroke-linecap="round" stroke-linejoin="round"/>
<path d="M 13.03 20.0 L 13.27 20.42 L 13.47 20.85 L 13.65 21.29 L 13.79 21.75 L 13.91 22.22 L 13.98 22.69 L 14.03 23.17 L 14.04 23.65 L 14.02 24.12 L 13.96 24.6 L 13.88 25.07 L 13.75 25.53 L 13.6 25.99 L 13.42 26.43 L 13.2 26.86 L 12.95 27.27 L 12.68 27.66 L 12.38 28.04 L 12.05 28.39 L 11.7 28.71 L 11.33 29.02 L 10.94 29.29 L 10.53 29.54 L 10.1 29.76" fill="none" stroke="#111" stroke-width="1.30" stroke-linecap="round" stroke-linejoin="round"/>
<path d="M 11.03 25.0 L 11.24 25.33 L 11.45 25.67 L 11.65 26.0 L 11.86 26.33 L 12.07 26.67 L 12.28 27.0 L 12.49 27.33 L 12.7 27.67 L 12.9 28.0 L 13.11 28.33 L 13.32 28.67 L 13.53 29.0 L 13.74 29.33 L 13.95 29.67 L 14.15 30.0 L 14.36 30.33 L 14.57 30.67 L 14.78 31.0 L 14.99 31.33 L 15.2 31.67 L 15.4 32.0 L 15.61 32.33 L 15.82 32.67 L 16.03 33.0" fill="none" stroke="#111" stroke-width="1.30" stroke-linecap="round" stroke-linejoin="round"/>
</svg>
