<?xml version="1.0" encoding="UTF-8"?>
<svg xmlns="http://www.w3.org/2000/svg" viewBox="0 0 17.29 29.74">
<path d="M 10.38 4.0 L 9.34 4.57 L 8.37 5.25 L 7.47 6.03 L 6.66 6.89 L 5.95 7.84 L 5.34 8.85 L 4.83 9.93 L 4.44 11.05 L 4.17 12.2 L 4.03 13.38 L 4.0 14.56 L 4.1 15.74 L 4.32 16.91 L 4.66 18.04 L 5.12 19.14 L 5.69 20.17 L 6.36 21.15 L 7.14 22.05 L 8.0 22.86 L 8.94 23.58 L 9.95 24.2 L 11.02 24.71 L 12.14 25.1 L 13.29 25.37" fill="none" stroke="#111" stroke-width="1.04" stroke-linecap="round" stroke-linejoin="round"/>
<path d="M 10.38 4.0 L 10.69 4.64 L 10.94 5.29 L 11.15 5.97 L 11.31 6.66 L 11.42 7.36 L 11.47 8.06 L 11.48 8.77 L 11.43 9.47 L 11.33 10.17 L 11.17 10.86 L 10.97 11.54 L 10.71 12.2 L 10.41 12.84 L 10.06 13.45 L 9.67 14.04 L 9.23 14.6 L 8.76 15.12 L 8.24 15.61 L 7.69 16.05 L 7.11 16.46 L 6.51 16.82 L 5.87 17.13 L 5.22 17.4 L 4.54 17.61 L 4.38 18.0 L 4.95 17.81 L 5.53 17.68 L 6.12 17.6 L 6.71 17.57 L 7.31 17.59 L 7.9 17.68 L 8.48 17.81 L 9.05 18.0 L 9.6 18.23 L 10.12 18.52 L 10.62 18.85 L 11.08 19.23 L 11.51 19.64 L 11.9 20.1 L 12.24 20.58 L 12.54 21.1 L 12.79 21.64 L 12.99 22.2 L 13.14 22.78 L 13.24 23.37 L 13.28 23.96 L 13.27 24.56 L 13.21 25.15 L 13.09 25.74" fill="none" stroke="#111" stroke-width="1.04" stroke-linecap="round" stroke-linejoin="round"/>
</svg>
