<?xml version="1.0" encoding="UTF-8"?>
<svg xmlns="http://www.w3.org/2000/svg" viewBox="0 0 20.00 30.00">
<path d="M 11.0 4.0 L 11.21 4.0 L 11.42 4.0 L 11.62 4.0 L 11.83 4.0 L 12.04 4.0 L 12.25 4.0 L 12.46 4.0 L 12.67 4.0 L 12.88 4.0 L 13.08 4.0 L 13.29 4.0 L 13.5 4.0 L 13.71 4.0 L 13.92 4.0 L 14.12 4.0 L 14.33 4.0 L 14.54 4.0 L 14.75 4.0 L 14.96 4.0 L 15.17 4.0 L 15.38 4.0 L 15.58 4.0 L 15.79 4.0 L 16.0 4.0 L 16.0 4.0 L 16.0 4.92 L 16.0 5.83 L 16.0 6.75 L 16.0 7.67 L 16.0 8.58 L 16.0 9.5 L 16.0 10.42 L 16.0 11.33 L 16.0 12.25 L 16.0 13.17 L 16.0 14.08 L 16.0 15.0 L 16.0 15.92 L 16.0 16.83 L 16.0 17.75 L 16.0 18.67 L 16.0 19.58 L 16.0 20.5 L 16.0 21.42 L 16.0 22.33 L 16.0 23.25 L 16.0 24.17 L 16.0 25.08 L 16.0 26.0" fill="none" stroke="#111" stroke-width="1.05" stroke-linecap="round" stroke-linejoin="round"/>
<path d="M 10.0 10.0 L 10.21 10.04 L 10.42 10.08 L 10.62 10.12 L 10.83 10.17 L 11.04 10.21 L 11.25 10.25 L 11.46 10.29 L 11.67 10.33 L 11.88 10.38 L 12.08 10.42 L 12.29 10.46 L 12.5 10.5 L 12.71 10.54 L 12.92 10.58 L 13.12 10.62 L 13.33 10.67 L 13.54 10.71 L 13.75 10.75 L 13.96 10.79 L 14.17 10.83 L 14.37 10.88 L 14.58 10.92 L 14.79 10.96 L 15.0 11.0" fill="none" stroke="#111" stroke-width="1.05" stroke-linecap="round" stroke-linejoin="round"/>
<path d="M 10.0 19.0 L 10.25 19.0 L 10.5 19.0 L 10.75 19.0 L 11.0 19.0 L 11.25 19.0 L 11.5 19.0 L 11.75 19.0 L 12.0 19.0 L 12.25 19.0 L 12.5 19.0 L 12.75 19.0 L 13.0 19.0 L 13.25 19.0 L 13.5 19.0 L 13.75 19.0 L 14.0 19.0 L 14.25 19.0 L 14.5 19.0 L 14.75 19.0 L 15.0 19.0 L 15.25 19.0 L 15.5 19.0 L 15.75 19.0 L 16.0 19.0" fill="none" stroke="#111" stroke-width="1.05" stroke-linecap="round" stroke-linejoin="round"/>
<path d="M 12.0 4.0 L 12.12 4.21 L 12.25 4.42 L 12.38 4.62 L 12.5 4.83 L 12.62 5.04 L 12.75 5.25 L 12.88 5.46 L 13.0 5.67 L 13.12 5.88 L 13.25 6.08 L 13.37 6.29 L 13.5 6.5 L 13.62 6.71 L 13.75 6.92 L 13.88 7.12 L 14.0 7.33 L 14.12 7.54 L 14.25 7.75 L 14.37 7.96 L 14.5 8.17 L 14.62 8.38 L 14.75 8.58 L 14.87 8.79 L 15.0 9.0" fill="none" stroke="#111" stroke-width="1.05" stroke-linecap="round" stroke-linejoin="round"/>
<path d="M 12.0 11.0 L 12.17 11.25 L 12.33 11.5 L 12.5 11.75 L 12.67 12.0 L 12.83 12.25 L 13.0 12.5 L 13.17 12.75 L 13.33 13.0 L 13.5 13.25 L 13.67 13.5 L 13.83 13.75 L 14.0 14.0 L 14.17 14.25 L 14.33 14.5 L 14.5 14.75 L 14.67 15.0 L 14.83 15.25 L 15.0 15.5 L 15.17 15.75 L 15.33 16.0 L 15.5 16.25 L 15.67 16.5 L 15.83 16.75 L 16.0 17.0" fill="none" stroke="#111" stroke-width="1.05" stroke-linecap="round" stroke-linejoin="round"/>
<path d="M 12.0 19.0 L 12.17 19.21 L 12.33 19.42 L 12.5 19.62 L 12.67 19.83 L 12.83 20.04 L 13.0 20.25 L 13.17 20.46 L 13.33 20.67 L 13.5 20.88 L 13.67 21.08 L 13.83 21.29 L 14.0 21.5 L 14.17 21.71 L 14.33 21.92 L 14.5 22.12 L 14.67 22.33 L 14.83 22.54 L 15.0 22.75 L 15.17 22.96 L 15.33 23.17 L 15.5 23.38 L 15.67 23.58 L 15.83 23.79 L 16.0 24.0" fill="none" stroke="#111" stroke-width="1.05" stroke-linecap="round" stroke-linejoin="round"/>
<path d="M 7.0 6.0 L 7.0 6.54 L 7.0 7.08 L 7.0 7.62 L 7.0 8.17 L 7.0 8.71 L 7.0 9.25 L 7.0 9.79 L 7.0 10.33 L 7.0 10.88 L 7.0 11.42 L 7.0 11.96 L 7.0 12.5 L 7.0 13.04 L 7.0 13.58 L 7.0 14.12 L 7.0 14.67 L 7.0 15.21 L 7.0 15.75 L 7.0 16.29 L 7.0 16.83 L 7.0 17.38 L 7.0 17.92 L 7.0 18.46 L 7.0 19.0" fill="none" stroke="#111" stroke-width="1.05" stroke-linecap="round" stroke-linejoin="round"/>
<path d="M 7.0 19.0 L 6.92 19.25 L 6.83 19.5 L 6.75 19.75 L 6.67 20.0 L 6.58 20.25 L 6.5 20.5 L 6.42 20.75 L 6.33 21.0 L 6.25 21.25 L 6.17 21.5 L 6.08 21.75 L 6.0 22.0 L 5.92 22.25 L 5.83 22.5 L 5.75 22.75 L 5.67 23.0 L 5.58 23.25 L 5.5 23.5 L 5.42 23.75 L 5.33 24.0 L 5.25 24.25 L 5.17 24.5 L 5.08 24.75 L 5.0 25.0" fill="none" stroke="#111" stroke-width="1.05" stroke-linecap="round" stroke-linejoin="round"/>
<path d="M 7.0 19.0 L 7.12 19.21 L 7.25 19.42 L 7.37 19.62 L 7.5 19.83 L 7.62 20.04 L 7.75 20.25 L 7.87 20.46 L 8.0 20.67 L 8.12 20.88 L 8.25 21.08 L 8.38 21.29 L 8.5 21.5 L 8.62 21.71 L 8.75 21.92 L 8.88 22.12 L 9.0 22.33 L 9.12 22.54 L 9.25 22.75 L 9.37 22.96 L 9.5 23.17 L 9.62 23.38 L 9.75 23.58 L 9.87 23.79 L 10.0 24.0" fill="none" stroke="#111" stroke-width="1.05" stroke-linecap="round" stroke-linejoin="round"/>
<path d="M 7.0 10.0 L 6.87 10.17 L 6.75 10.33 L 6.62 10.5 L 6.5 10.67 L 6.37 10.83 L 6.25 11.0 L 6.12 11.17 L 6.0 11.33 L 5.87 11.5 L 5.75 11.67 L 5.62 11.83 L 5.5 12.0 L 5.37 12.17 L 5.25 12.33 L 5.12 12.5 L 5.0 12.67 L 4.87 12.83 L 4.75 13.0 L 4.62 13.17 L 4.5 13.33 L 4.37 13.5 L 4.25 13.67 L 4.12 13.83 L 4.0 14.0" fill="none" stroke="#111" stroke-width="1.05" stroke-linecap="round" stroke-linejoin="round"/>
<path d="M 7.0 10.0 L 7.17 10.12 L 7.33 10.25 L 7.5 10.38 L 7.67 10.5 L 7.83 10.62 L 8.0 10.75 L 8.17 10.88 L 8.33 11.0 L 8.5 11.12 L 8.67 11.25 L 8.83 11.38 L 9.0 11.5 L 9.17 11.62 L 9.33 11.75 L 9.5 11.88 L 9.67 12.0 L 9.83 12.12 L 10.0 12.25 L 10.17 12.38 L 10.33 12.5 L 10.5 12.62 L 10.67 12.75 L 10.83 12.88 L 11.0 13.0" fill="none" stroke="#111" stroke-width="1.05" stroke-linecap="round" stroke-linejoin="round"/>
</svg>
