<?xml version="1.0" encoding="UTF-8"?>
<svg xmlns="http://www.w3.org/2000/svg" viewBox="0 0 23.00 29.00">
<path d="M 4.0 4.0 L 4.0 4.88 L 4.0 5.75 L 4.0 6.62 L 4.0 7.5 L 4.0 8.38 L 4.0 9.25 L 4.0 10.12 L 4.0 11.0 L 4.0 11.88 L 4.0 12.75 L 4.0 13.62 L 4.0 14.5 L 4.0 15.38 L 4.0 16.25 L 4.0 17.12 L 4.0 18.0 L 4.0 18.88 L 4.0 19.75 L 4.0 20.62 L 4.0 21.5 L 4.0 22.38 L 4.0 23.25 L 4.0 24.12 L 4.0 25.0" fill="none" stroke="#111" stroke-width="1.02" stroke-linecap="round" stroke-linejoin="round"/>
<path d="M 4.0 4.0 L 4.25 4.0 L 4.5 4.0 L 4.75 4.0 L 5.0 4.0 L 5.25 4.0 L 5.5 4.0 L 5.75 4.0 L 6.0 4.0 L 6.25 4.0 L 6.5 4.0 L 6.75 4.0 L 7.0 4.0 L 7.25 4.0 L 7.5 4.0 L 7.75 4.0 L 8.0 4.0 L 8.25 4.0 L 8.5 4.0 L 8.75 4.0 L 9.0 4.0 L 9.25 4.0 L 9.5 4.0 L 9.75 4.0 L 10.0 4.0" fill="none" stroke="#111" stroke-width="1.02" stroke-linecap="round" stroke-linejoin="round"/>
<path d="M 4.0 11.0 L 4.25 10.96 L 4.5 10.92 L 4.75 10.88 L 5.0 10.83 L 5.25 10.79 L 5.5 10.75 L 5.75 10.71 L 6.0 10.67 L 6.25 10.62 L 6.5 10.58 L 6.75 10.54 L 7.0 10.5 L 7.25 10.46 L 7.5 10.42 L 7.75 10.38 L 8.0 10.33 L 8.25 10.29 L 8.5 10.25 L 8.75 10.21 L 9.0 10.17 L 9.25 10.12 L 9.5 10.08 L 9.75 10.04 L 10.0 10.0" fill="none" stroke="#111" stroke-width="1.02" stroke-linecap="round" stroke-linejoin="round"/>
<path d="M 4.0 17.0 L 4.21 17.0 L 4.42 17.0 L 4.62 17.0 L 4.83 17.0 L 5.04 17.0 L 5.25 17.0 L 5.46 17.0 L 5.67 17.0 L 5.88 17.0 L 6.08 17.0 L 6.29 17.0 L 6.5 17.0 L 6.71 17.0 L 6.92 17.0 L 7.12 17.0 L 7.33 17.0 L 7.54 17.0 L 7.75 17.0 L 7.96 17.0 L 8.17 17.0 L 8.38 17.0 L 8.58 17.0 L 8.79 17.0 L 9.0 17.0" fill="none" stroke="#111" stroke-width="1.02" stroke-linecap="round" stroke-linejoin="round"/>
<path d="M 9.0 5.0 L 8.92 5.27 L 8.83 5.54 L 8.73 5.8 L 8.61 6.06 L 8.48 6.3 L 8.33 6.55 L 8.17 6.78 L 8.0 7.0 L 7.82 7.22 L 7.62 7.42 L 7.42 7.61 L 7.2 7.8 L 6.98 7.97 L 6.74 8.12 L 6.5 8.27 L 6.25 8.4 L 6.0 8.52 L 5.73 8.62 L 5.47 8.71 L 5.19 8.79 L 4.92 8.85 L 4.64 8.89 L 4.36 8.92 L 4.08 8.94" fill="none" stroke="#111" stroke-width="1.02" stroke-linecap="round" stroke-linejoin="round"/>
<path d="M 9.0 10.0 L 8.93 10.33 L 8.85 10.66 L 8.75 10.98 L 8.65 11.3 L 8.52 11.61 L 8.39 11.92 L 8.24 12.22 L 8.07 12.51 L 7.9 12.8 L 7.71 13.08 L 7.51 13.35 L 7.31 13.62 L 7.08 13.87 L 6.85 14.12 L 6.61 14.35 L 6.36 14.57 L 6.1 14.79 L 5.83 14.99 L 5.55 15.18 L 5.26 15.35 L 4.97 15.52 L 4.67 15.67 L 4.36 15.81 L 4.05 15.94" fill="none" stroke="#111" stroke-width="1.02" stroke-linecap="round" stroke-linejoin="round"/>
<path d="M 8.0 17.0 L 7.83 17.25 L 7.67 17.5 L 7.5 17.75 L 7.33 18.0 L 7.17 18.25 L 7.0 18.5 L 6.83 18.75 L 6.67 19.0 L 6.5 19.25 L 6.33 19.5 L 6.17 19.75 L 6.0 20.0 L 5.83 20.25 L 5.67 20.5 L 5.5 20.75 L 5.33 21.0 L 5.17 21.25 L 5.0 21.5 L 4.83 21.75 L 4.67 22.0 L 4.5 22.25 L 4.33 22.5 L 4.17 22.75 L 4.0 23.0" fill="none" stroke="#111" stroke-width="1.02" stroke-linecap="round" stroke-linejoin="round"/>
<path d="M 13.0 4.0 L 12.53 4.34 L 12.13 4.77 L 11.81 5.25 L 11.58 5.79 L 11.45 6.35 L 11.42 6.93 L 11.5 7.51 L 11.67 8.07 L 11.95 8.58 L 12.3 9.04 L 12.74 9.43 L 13.23 9.73 L 13.77 9.95 L 14.34 10.06 L 14.93 10.07 L 15.5 9.98 L 16.05 9.79 L 16.56 9.5 L 17.0 9.13 L 17.38 8.69 L 17.67 8.18 L 17.87 7.63 L 17.96 7.06 L 17.96 6.48 L 17.0 6.0 L 16.83 5.92 L 16.67 5.83 L 16.5 5.75 L 16.33 5.67 L 16.17 5.58 L 16.0 5.5 L 15.83 5.42 L 15.67 5.33 L 15.5 5.25 L 15.33 5.17 L 15.17 5.08 L 15.0 5.0 L 14.83 4.92 L 14.67 4.83 L 14.5 4.75 L 14.33 4.67 L 14.17 4.58 L 14.0 4.5 L 13.83 4.42 L 13.67 4.33 L 13.5 4.25 L 13.33 4.17 L 13.17 4.08 L 13.0 4.0" fill="none" stroke="#111" stroke-width="1.02" stroke-linecap="round" stroke-linejoin="round"/>
<path d="M 13.0 7.0 L 13.08 7.0 L 13.17 7.0 L 13.25 7.0 L 13.33 7.0 L 13.42 7.0 L 13.5 7.0 L 13.58 7.0 L 13.67 7.0 L 13.75 7.0 L 13.83 7.0 L 13.92 7.0 L 14.0 7.0 L 14.08 7.0 L 14.17 7.0 L 14.25 7.0 L 14.33 7.0 L 14.42 7.0 L 14.5 7.0 L 14.58 7.0 L 14.67 7.0 L 14.75 7.0 L 14.83 7.0 L 14.92 7.0 L 15.0 7.0" fill="none" stroke="#111" stroke-width="1.02" stroke-linecap="round" stroke-linejoin="round"/>
<path d="M 10.0 12.0 L 10.38 11.96 L 10.75 11.92 L 11.12 11.88 L 11.5 11.83 L 11.88 11.79 L 12.25 11.75 L 12.62 11.71 L 13.0 11.67 L 13.38 11.62 L 13.75 11.58 L 14.12 11.54 L 14.5 11.5 L 14.88 11.46 L 15.25 11.42 L 15.62 11.38 L 16.0 11.33 L 16.38 11.29 L 16.75 11.25 L 17.12 11.21 L 17.5 11.17 L 17.88 11.12 L 18.25 11.08 L 18.62 11.04 L 19.0 11.0" fill="none" stroke="#111" stroke-width="1.02" stroke-linecap="round" stroke-linejoin="round"/>
<path d="M 14.0 11.0 L 14.0 11.58 L 14.0 12.17 L 14.0 12.75 L 14.0 13.33 L 14.0 13.92 L 14.0 14.5 L 14.0 15.08 L 14.0 15.67 L 14.0 16.25 L 14.0 16.83 L 14.0 17.42 L 14.0 18.0 L 14.0 18.58 L 14.0 19.17 L 14.0 19.75 L 14.0 20.33 L 14.0 20.92 L 14.0 21.5 L 14.0 22.08 L 14.0 22.67 L 14.0 23.25 L 14.0 23.83 L 14.0 24.42 L 14.0 25.0" fill="none" stroke="#111" stroke-width="1.02" stroke-linecap="round" stroke-linejoin="round"/>
</svg>
