<?xml version="1.0" encoding="UTF-8"?>
<svg xmlns="http://www.w3.org/2000/svg" viewBox="0 0 21.00 32.00">
<path d="M 4.0 4.0 L 4.0 4.96 L 4.0 5.92 L 4.0 6.88 L 4.0 7.83 L 4.0 8.79 L 4.0 9.75 L 4.0 10.71 L 4.0 11.67 L 4.0 12.62 L 4.0 13.58 L 4.0 14.54 L 4.0 15.5 L 4.0 16.46 L 4.0 17.42 L 4.0 18.38 L 4.0 19.33 L 4.0 20.29 L 4.0 21.25 L 4.0 22.21 L 4.0 23.17 L 4.0 24.12 L 4.0 25.08 L 4.0 26.04 L 4.0 27.0" fill="none" stroke="#111" stroke-width="1.12" stroke-linecap="round" stroke-linejoin="round"/>
<path d="M 4.0 4.0 L 4.25 4.0 L 4.5 4.0 L 4.75 4.0 L 5.0 4.0 L 5.25 4.0 L 5.5 4.0 L 5.75 4.0 L 6.0 4.0 L 6.25 4.0 L 6.5 4.0 L 6.75 4.0 L 7.0 4.0 L 7.25 4.0 L 7.5 4.0 L 7.75 4.0 L 8.0 4.0 L 8.25 4.0 L 8.5 4.0 L 8.75 4.0 L 9.0 4.0 L 9.25 4.0 L 9.5 4.0 L 9.75 4.0 L 10.0 4.0" fill="none" stroke="#111" stroke-width="1.12" stroke-linecap="round" stroke-linejoin="round"/>
<path d="M 4.0 11.0 L 4.21 11.0 L 4.42 11.0 L 4.62 11.0 L 4.83 11.0 L 5.04 11.0 L 5.25 11.0 L 5.46 11.0 L 5.67 11.0 L 5.88 11.0 L 6.08 11.0 L 6.29 11.0 L 6.5 11.0 L 6.71 11.0 L 6.92 11.0 L 7.12 11.0 L 7.33 11.0 L 7.54 11.0 L 7.75 11.0 L 7.96 11.0 L 8.17 11.0 L 8.38 11.0 L 8.58 11.0 L 8.79 11.0 L 9.0 11.0" fill="none" stroke="#111" stroke-width="1.12" stroke-linecap="round" stroke-linejoin="round"/>
<path d="M 4.0 18.0 L 4.21 18.04 L 4.42 18.08 L 4.62 18.12 L 4.83 18.17 L 5.04 18.21 L 5.25 18.25 L 5.46 18.29 L 5.67 18.33 L 5.88 18.38 L 6.08 18.42 L 6.29 18.46 L 6.5 18.5 L 6.71 18.54 L 6.92 18.58 L 7.12 18.62 L 7.33 18.67 L 7.54 18.71 L 7.75 18.75 L 7.96 18.79 L 8.17 18.83 L 8.38 18.88 L 8.58 18.92 L 8.79 18.96 L 9.0 19.0" fill="none" stroke="#111" stroke-width="1.12" stroke-linecap="round" stroke-linejoin="round"/>
<path d="M 9.0 5.0 L 8.79 5.17 L 8.58 5.33 L 8.38 5.5 L 8.17 5.67 L 7.96 5.83 L 7.75 6.0 L 7.54 6.17 L 7.33 6.33 L 7.12 6.5 L 6.92 6.67 L 6.71 6.83 L 6.5 7.0 L 6.29 7.17 L 6.08 7.33 L 5.88 7.5 L 5.67 7.67 L 5.46 7.83 L 5.25 8.0 L 5.04 8.17 L 4.83 8.33 L 4.62 8.5 L 4.42 8.67 L 4.21 8.83 L 4.0 9.0" fill="none" stroke="#111" stroke-width="1.12" stroke-linecap="round" stroke-linejoin="round"/>
<path d="M 8.0 11.0 L 7.99 11.28 L 7.96 11.56 L 7.91 11.84 L 7.85 12.12 L 7.77 12.39 L 7.69 12.65 L 7.58 12.92 L 7.46 13.17 L 7.33 13.42 L 7.19 13.66 L 7.03 13.9 L 6.86 14.12 L 6.68 14.34 L 6.48 14.54 L 6.28 14.74 L 6.06 14.92 L 5.84 15.09 L 5.61 15.25 L 5.37 15.4 L 5.12 15.53 L 4.86 15.65 L 4.6 15.75 L 4.33 15.85 L 4.06 15.92" fill="none" stroke="#111" stroke-width="1.12" stroke-linecap="round" stroke-linejoin="round"/>
<path d="M 8.0 18.0 L 8.05 18.26 L 8.08 18.53 L 8.09 18.8 L 8.07 19.07 L 8.03 19.34 L 7.97 19.6 L 7.89 19.86 L 7.78 20.1 L 7.66 20.34 L 7.51 20.57 L 7.35 20.78 L 7.16 20.98 L 6.96 21.16 L 6.75 21.33 L 6.52 21.47 L 6.29 21.6 L 6.04 21.71 L 5.78 21.79 L 5.52 21.85 L 5.25 21.89 L 4.98 21.91 L 4.71 21.9 L 4.45 21.87 L 4.18 21.82" fill="none" stroke="#111" stroke-width="1.12" stroke-linecap="round" stroke-linejoin="round"/>
<path d="M 11.0 11.0 L 11.48 11.44 L 11.92 11.92 L 12.33 12.42 L 12.71 12.95 L 13.04 13.51 L 13.33 14.09 L 13.58 14.69 L 13.79 15.31 L 13.95 15.94 L 14.07 16.58 L 14.14 17.23 L 14.16 17.88 L 14.14 18.53 L 14.07 19.18 L 13.95 19.82 L 13.79 20.45 L 13.58 21.06 L 13.33 21.66 L 13.04 22.25 L 12.71 22.8 L 12.33 23.34 L 11.92 23.84 L 11.48 24.32 L 11.0 24.76 L 11.0 19.0 L 11.28 19.25 L 11.56 19.51 L 11.83 19.79 L 12.08 20.07 L 12.33 20.35 L 12.57 20.65 L 12.8 20.95 L 13.02 21.26 L 13.22 21.58 L 13.42 21.91 L 13.61 22.24 L 13.78 22.58 L 13.95 22.92 L 14.1 23.27 L 14.24 23.62 L 14.37 23.98 L 14.49 24.34 L 14.6 24.7 L 14.69 25.07 L 14.77 25.44 L 14.84 25.82 L 14.9 26.19 L 14.94 26.57 L 14.97 26.95" fill="none" stroke="#111" stroke-width="1.12" stroke-linecap="round" stroke-linejoin="round"/>
<path d="M 14.0 16.0 L 14.12 16.17 L 14.25 16.33 L 14.38 16.5 L 14.5 16.67 L 14.62 16.83 L 14.75 17.0 L 14.88 17.17 L 15.0 17.33 L 15.12 17.5 L 15.25 17.67 L 15.38 17.83 L 15.5 18.0 L 15.62 18.17 L 15.75 18.33 L 15.88 18.5 L 16.0 18.67 L 16.12 18.83 L 16.25 19.0 L 16.38 19.17 L 16.5 19.33 L 16.62 19.5 L 16.75 19.67 L 16.88 19.83 L 17.0 20.0" fill="none" stroke="#111" stroke-width="1.12" stroke-linecap="round" stroke-linejoin="round"/>
<path d="M 11.0 20.0 L 10.92 20.33 L 10.83 20.67 L 10.75 21.0 L 10.67 21.33 L 10.58 21.67 L 10.5 22.0 L 10.42 22.33 L 10.33 22.67 L 10.25 23.0 L 10.17 23.33 L 10.08 23.67 L 10.0 24.0 L 9.92 24.33 L 9.83 24.67 L 9.75 25.0 L 9.67 25.33 L 9.58 25.67 L 9.5 26.0 L 9.42 26.33 L 9.33 26.67 L 9.25 27.0 L 9.17 27.33 L 9.08 27.67 L 9.0 28.0" fill="none" stroke="#111" stroke-width="1.12" stroke-linecap="round" stroke-linejoin="round"/>
</svg>
