<?xml version="1.0" encoding="UTF-8"?>
<svg xmlns="http://www.w3.org/2000/svg" viewBox="0 0 27.87 35.71">
<path d="M 12.0 8.0 L 12.12 7.83 L 12.25 7.67 L 12.38 7.5 L 12.5 7.33 L 12.62 7.17 L 12.75 7.0 L 12.88 6.83 L 13.0 6.67 L 13.12 6.5 L 13.25 6.33 L 13.38 6.17 L 13.5 6.0 L 13.62 5.83 L 13.75 5.67 L 13.88 5.5 L 14.0 5.33 L 14.12 5.17 L 14.25 5.0 L 14.38 4.83 L 14.5 4.67 L 14.62 4.5 L 14.75 4.33 L 14.88 4.17 L 15.0 4.0 L 15.0 4.0 L 15.08 4.17 L 15.17 4.33 L 15.25 4.5 L 15.33 4.67 L 15.42 4.83 L 15.5 5.0 L 15.58 5.17 L 15.67 5.33 L 15.75 5.5 L 15.83 5.67 L 15.92 5.83 L 16.0 6.0 L 16.08 6.17 L 16.17 6.33 L 16.25 6.5 L 16.33 6.67 L 16.42 6.83 L 16.5 7.0 L 16.58 7.17 L 16.67 7.33 L 16.75 7.5 L 16.83 7.67 L 16.92 7.83 L 17.0 8.0" fill="none" stroke="#111" stroke-width="1.25" stroke-linecap="round" stroke-linejoin="round"/>
<path d="M 22.0 6.0 L 21.92 5.92 L 21.83 5.83 L 21.75 5.75 L 21.67 5.67 L 21.58 5.58 L 21.5 5.5 L 21.42 5.42 L 21.33 5.33 L 21.25 5.25 L 21.17 5.17 L 21.08 5.08 L 21.0 5.0 L 20.92 4.92 L 20.83 4.83 L 20.75 4.75 L 20.67 4.67 L 20.58 4.58 L 20.5 4.5 L 20.42 4.42 L 20.33 4.33 L 20.25 4.25 L 20.17 4.17 L 20.08 4.08 L 20.0 4.0" fill="none" stroke="#111" stroke-width="1.25" stroke-linecap="round" stroke-linejoin="round"/>
<path d="M 20.0 4.0 L 19.51 4.46 L 19.06 4.95 L 18.63 5.46 L 18.23 6.0 L 17.87 6.56 L 17.54 7.14 L 17.24 7.74 L 16.98 8.35 L 16.76 8.98 L 16.57 9.63 L 16.43 10.28 L 16.32 10.94 L 16.25 11.6 L 16.22 12.27 L 16.23 12.94 L 16.28 13.61 L 16.37 14.27 L 16.5 14.93 L 16.67 15.57 L 16.87 16.21 L 17.11 16.83 L 17.39 17.44 L 17.7 18.03 L 18.05 18.6" fill="none" stroke="#111" stroke-width="1.25" stroke-linecap="round" stroke-linejoin="round"/>
<path d="M 14.0 10.0 L 14.29 10.0 L 14.58 10.0 L 14.88 10.0 L 15.17 10.0 L 15.46 10.0 L 15.75 10.0 L 16.04 10.0 L 16.33 10.0 L 16.62 10.0 L 16.92 10.0 L 17.21 10.0 L 17.5 10.0 L 17.79 10.0 L 18.08 10.0 L 18.38 10.0 L 18.67 10.0 L 18.96 10.0 L 19.25 10.0 L 19.54 10.0 L 19.83 10.0 L 20.12 10.0 L 20.42 10.0 L 20.71 10.0 L 21.0 10.0" fill="none" stroke="#111" stroke-width="1.25" stroke-linecap="round" stroke-linejoin="round"/>
<path d="M 14.0 13.0 L 14.29 13.0 L 14.58 13.0 L 14.88 13.0 L 15.17 13.0 L 15.46 13.0 L 15.75 13.0 L 16.04 13.0 L 16.33 13.0 L 16.62 13.0 L 16.92 13.0 L 17.21 13.0 L 17.5 13.0 L 17.79 13.0 L 18.08 13.0 L 18.38 13.0 L 18.67 13.0 L 18.96 13.0 L 19.25 13.0 L 19.54 13.0 L 19.83 13.0 L 20.12 13.0 L 20.42 13.0 L 20.71 13.0 L 21.0 13.0" fill="none" stroke="#111" stroke-width="1.25" stroke-linecap="round" stroke-linejoin="round"/>
<path d="M 16.0 17.0 L 16.25 17.0 L 16.5 17.0 L 16.75 17.0 L 17.0 17.0 L 17.25 17.0 L 17.5 17.0 L 17.75 17.0 L 18.0 17.0 L 18.25 17.0 L 18.5 17.0 L 18.75 17.0 L 19.0 17.0 L 19.25 17.0 L 19.5 17.0 L 19.75 17.0 L 20.0 17.0 L 20.25 17.0 L 20.5 17.0 L 20.75 17.0 L 21.0 17.0 L 21.25 17.0 L 21.5 17.0 L 21.75 17.0 L 22.0 17.0" fill="none" stroke="#111" stroke-width="1.25" stroke-linecap="round" stroke-linejoin="round"/>
<path d="M 8.0 16.0 L 8.04 16.58 L 8.08 17.17 L 8.12 17.75 L 8.17 18.33 L 8.21 18.92 L 8.25 19.5 L 8.29 20.08 L 8.33 20.67 L 8.38 21.25 L 8.42 21.83 L 8.46 22.42 L 8.5 23.0 L 8.54 23.58 L 8.58 24.17 L 8.62 24.75 L 8.67 25.33 L 8.71 25.92 L 8.75 26.5 L 8.79 27.08 L 8.83 27.67 L 8.88 28.25 L 8.92 28.83 L 8.96 29.42 L 9.0 30.0" fill="none" stroke="#111" stroke-width="1.25" stroke-linecap="round" stroke-linejoin="round"/>
<path d="M 9.0 22.0 L 9.38 21.96 L 9.75 21.92 L 10.12 21.88 L 10.5 21.83 L 10.88 21.79 L 11.25 21.75 L 11.62 21.71 L 12.0 21.67 L 12.38 21.62 L 12.75 21.58 L 13.12 21.54 L 13.5 21.5 L 13.88 21.46 L 14.25 21.42 L 14.62 21.38 L 15.0 21.33 L 15.38 21.29 L 15.75 21.25 L 16.12 21.21 L 16.5 21.17 L 16.88 21.12 L 17.25 21.08 L 17.62 21.04 L 18.0 21.0" fill="none" stroke="#111" stroke-width="1.25" stroke-linecap="round" stroke-linejoin="round"/>
<path d="M 8.0 19.0 L 8.58 19.04 L 9.17 19.08 L 9.75 19.12 L 10.33 19.17 L 10.92 19.21 L 11.5 19.25 L 12.08 19.29 L 12.67 19.33 L 13.25 19.38 L 13.83 19.42 L 14.42 19.46 L 15.0 19.5 L 15.58 19.54 L 16.17 19.58 L 16.75 19.62 L 17.33 19.67 L 17.92 19.71 L 18.5 19.75 L 19.08 19.79 L 19.67 19.83 L 20.25 19.88 L 20.83 19.92 L 21.42 19.96 L 22.0 20.0" fill="none" stroke="#111" stroke-width="1.25" stroke-linecap="round" stroke-linejoin="round"/>
<path d="M 8.0 19.0 L 7.88 19.12 L 7.75 19.25 L 7.62 19.38 L 7.5 19.5 L 7.38 19.62 L 7.25 19.75 L 7.12 19.88 L 7.0 20.0 L 6.88 20.12 L 6.75 20.25 L 6.62 20.38 L 6.5 20.5 L 6.38 20.62 L 6.25 20.75 L 6.12 20.88 L 6.0 21.0 L 5.88 21.12 L 5.75 21.25 L 5.62 21.38 L 5.5 21.5 L 5.38 21.62 L 5.25 21.75 L 5.12 21.88 L 5.0 22.0" fill="none" stroke="#111" stroke-width="1.25" stroke-linecap="round" stroke-linejoin="round"/>
<path d="M 8.0 22.0 L 7.83 22.12 L 7.67 22.25 L 7.5 22.38 L 7.33 22.5 L 7.17 22.62 L 7.0 22.75 L 6.83 22.88 L 6.67 23.0 L 6.5 23.12 L 6.33 23.25 L 6.17 23.38 L 6.0 23.5 L 5.83 23.62 L 5.67 23.75 L 5.5 23.88 L 5.33 24.0 L 5.17 24.12 L 5.0 24.25 L 4.83 24.38 L 4.67 24.5 L 4.5 24.62 L 4.33 24.75 L 4.17 24.88 L 4.0 25.0" fill="none" stroke="#111" stroke-width="1.25" stroke-linecap="round" stroke-linejoin="round"/>
<path d="M 8.0 25.0 L 7.88 25.12 L 7.75 25.25 L 7.62 25.38 L 7.5 25.5 L 7.38 25.62 L 7.25 25.75 L 7.12 25.88 L 7.0 26.0 L 6.88 26.12 L 6.75 26.25 L 6.62 26.38 L 6.5 26.5 L 6.38 26.62 L 6.25 26.75 L 6.12 26.88 L 6.0 27.0 L 5.88 27.12 L 5.75 27.25 L 5.62 27.38 L 5.5 27.5 L 5.38 27.62 L 5.25 27.75 L 5.12 27.88 L 5.0 28.0" fill="none" stroke="#111" stroke-width="1.25" stroke-linecap="round" stroke-linejoin="round"/>
<path d="M 18.0 19.0 L 17.81 19.62 L 17.66 20.24 L 17.55 20.88 L 17.48 21.52 L 17.45 22.16 L 17.46 22.8 L 17.52 23.45 L 17.61 24.08 L 17.74 24.71 L 17.92 25.33 L 18.13 25.94 L 18.38 26.53 L 18.67 27.11 L 18.99 27.67 L 19.35 28.2 L 19.75 28.71 L 20.17 29.2 L 20.62 29.65 L 21.11 30.08 L 21.61 30.47 L 22.15 30.84 L 22.7 31.16 L 23.28 31.46 L 23.87 31.71" fill="none" stroke="#111" stroke-width="1.25" stroke-linecap="round" stroke-linejoin="round"/>
<path d="M 20.0 25.0 L 19.92 25.17 L 19.83 25.33 L 19.75 25.5 L 19.67 25.67 L 19.58 25.83 L 19.5 26.0 L 19.42 26.17 L 19.33 26.33 L 19.25 26.5 L 19.17 26.67 L 19.08 26.83 L 19.0 27.0 L 18.92 27.17 L 18.83 27.33 L 18.75 27.5 L 18.67 27.67 L 18.58 27.83 L 18.5 28.0 L 18.42 28.17 L 18.33 28.33 L 18.25 28.5 L 18.17 28.67 L 18.08 28.83 L 18.0 29.0" fill="none" stroke="#111" stroke-width="1.25" stroke-linecap="round" stroke-linejoin="round"/>
</svg>
