<?xml version="1.0" encoding="UTF-8"?>
<svg xmlns="http://www.w3.org/2000/svg" viewBox="0 0 21.10 46.56">
<path d="M 7.97 6.0 L 7.88 6.58 L 7.8 7.17 L 7.72 7.75 L 7.63 8.33 L 7.55 8.92 L 7.47 9.5 L 7.38 10.08 L 7.3 10.67 L 7.22 11.25 L 7.13 11.83 L 7.05 12.42 L 6.97 13.0 L 6.88 13.58 L 6.8 14.17 L 6.72 14.75 L 6.63 15.33 L 6.55 15.92 L 6.47 16.5 L 6.38 17.08 L 6.3 17.67 L 6.22 18.25 L 6.13 18.83 L 6.05 19.42 L 5.97 20.0" fill="none" stroke="#111" stroke-width="1.63" stroke-linecap="round" stroke-linejoin="round"/>
<path d="M 4.97 7.0 L 5.05 7.17 L 5.13 7.33 L 5.22 7.5 L 5.3 7.67 L 5.38 7.83 L 5.47 8.0 L 5.55 8.17 L 5.63 8.33 L 5.72 8.5 L 5.8 8.67 L 5.88 8.83 L 5.97 9.0 L 6.05 9.17 L 6.13 9.33 L 6.22 9.5 L 6.3 9.67 L 6.38 9.83 L 6.47 10.0 L 6.55 10.17 L 6.63 10.33 L 6.72 10.5 L 6.8 10.67 L 6.88 10.83 L 6.97 11.0 L 6.97 11.0 L 7.13 10.88 L 7.3 10.75 L 7.47 10.62 L 7.63 10.5 L 7.8 10.38 L 7.97 10.25 L 8.13 10.12 L 8.3 10.0 L 8.47 9.88 L 8.63 9.75 L 8.8 9.62 L 8.97 9.5 L 9.13 9.38 L 9.3 9.25 L 9.47 9.12 L 9.63 9.0 L 9.8 8.88 L 9.97 8.75 L 10.13 8.62 L 10.3 8.5 L 10.47 8.38 L 10.63 8.25 L 10.8 8.12 L 10.97 8.0" fill="none" stroke="#111" stroke-width="1.63" stroke-linecap="round" stroke-linejoin="round"/>
<path d="M 5.97 4.0 L 5.97 4.08 L 5.97 4.17 L 5.97 4.25 L 5.97 4.33 L 5.97 4.42 L 5.97 4.5 L 5.97 4.58 L 5.97 4.67 L 5.97 4.75 L 5.97 4.83 L 5.97 4.92 L 5.97 5.0 L 5.97 5.08 L 5.97 5.17 L 5.97 5.25 L 5.97 5.33 L 5.97 5.42 L 5.97 5.5 L 5.97 5.58 L 5.97 5.67 L 5.97 5.75 L 5.97 5.83 L 5.97 5.92 L 5.97 6.0" fill="none" stroke="#111" stroke-width="1.63" stroke-linecap="round" stroke-linejoin="round"/>
<path d="M 9.97 4.0 L 9.97 4.12 L 9.97 4.25 L 9.97 4.38 L 9.97 4.5 L 9.97 4.62 L 9.97 4.75 L 9.97 4.88 L 9.97 5.0 L 9.97 5.12 L 9.97 5.25 L 9.97 5.38 L 9.97 5.5 L 9.97 5.62 L 9.97 5.75 L 9.97 5.88 L 9.97 6.0 L 9.97 6.12 L 9.97 6.25 L 9.97 6.38 L 9.97 6.5 L 9.97 6.62 L 9.97 6.75 L 9.97 6.88 L 9.97 7.0" fill="none" stroke="#111" stroke-width="1.63" stroke-linecap="round" stroke-linejoin="round"/>
<path d="M 12.97 10.0 L 12.97 10.62 L 12.97 11.25 L 12.97 11.88 L 12.97 12.5 L 12.97 13.12 L 12.97 13.75 L 12.97 14.38 L 12.97 15.0 L 12.97 15.62 L 12.97 16.25 L 12.97 16.88 L 12.97 17.5 L 12.97 18.12 L 12.97 18.75 L 12.97 19.38 L 12.97 20.0 L 12.97 20.62 L 12.97 21.25 L 12.97 21.88 L 12.97 22.5 L 12.97 23.12 L 12.97 23.75 L 12.97 24.38 L 12.97 25.0" fill="none" stroke="#111" stroke-width="1.63" stroke-linecap="round" stroke-linejoin="round"/>
<path d="M 12.97 25.0 L 12.8 25.12 L 12.63 25.25 L 12.47 25.38 L 12.3 25.5 L 12.13 25.62 L 11.97 25.75 L 11.8 25.88 L 11.63 26.0 L 11.47 26.12 L 11.3 26.25 L 11.13 26.38 L 10.97 26.5 L 10.8 26.62 L 10.63 26.75 L 10.47 26.88 L 10.3 27.0 L 10.13 27.12 L 9.97 27.25 L 9.8 27.38 L 9.63 27.5 L 9.47 27.62 L 9.3 27.75 L 9.13 27.88 L 8.97 28.0 L 8.97 28.0 L 9.61 28.35 L 10.24 28.74 L 10.85 29.15 L 11.43 29.59 L 12.0 30.07 L 12.54 30.56 L 13.06 31.09 L 13.55 31.64 L 14.01 32.21 L 14.44 32.81 L 14.84 33.42 L 15.22 34.05 L 15.56 34.71 L 15.87 35.37 L 16.14 36.06 L 16.39 36.75 L 16.59 37.46 L 16.77 38.17 L 16.9 38.89 L 17.01 39.62 L 17.07 40.36 L 17.1 41.09 L 17.1 41.83 L 17.05 42.56" fill="none" stroke="#111" stroke-width="1.63" stroke-linecap="round" stroke-linejoin="round"/>
<path d="M 12.97 16.0 L 12.72 16.35 L 12.47 16.69 L 12.19 17.02 L 11.91 17.33 L 11.6 17.63 L 11.29 17.91 L 10.96 18.18 L 10.61 18.43 L 10.26 18.67 L 9.89 18.88 L 9.52 19.08 L 9.13 19.27 L 8.74 19.43 L 8.34 19.57 L 7.93 19.7 L 7.52 19.8 L 7.1 19.89 L 6.68 19.96 L 6.26 20.0 L 5.84 20.03 L 5.41 20.03 L 4.99 20.01 L 4.56 19.98 L 4.14 19.92" fill="none" stroke="#111" stroke-width="1.63" stroke-linecap="round" stroke-linejoin="round"/>
<path d="M 7.97 16.0 L 8.18 16.32 L 8.35 16.65 L 8.5 17.0 L 8.6 17.37 L 8.67 17.74 L 8.7 18.12 L 8.69 18.5 L 8.64 18.88 L 8.55 19.25 L 8.43 19.61 L 8.27 19.95 L 8.08 20.28 L 7.85 20.58 L 7.59 20.86 L 7.31 21.12 L 7.0 21.34 L 6.67 21.53 L 6.32 21.68 L 5.96 21.8 L 5.59 21.88 L 5.21 21.93 L 4.83 21.93 L 4.46 21.9 L 4.08 21.82" fill="none" stroke="#111" stroke-width="1.63" stroke-linecap="round" stroke-linejoin="round"/>
<path d="M 12.97 20.0 L 12.65 20.27 L 12.32 20.53 L 11.99 20.78 L 11.66 21.02 L 11.32 21.26 L 10.97 21.48 L 10.62 21.7 L 10.26 21.91 L 9.9 22.11 L 9.53 22.3 L 9.15 22.48 L 8.78 22.66 L 8.4 22.82 L 8.01 22.97 L 7.62 23.12 L 7.23 23.26 L 6.84 23.38 L 6.44 23.5 L 6.04 23.6 L 5.63 23.7 L 5.23 23.79 L 4.82 23.86 L 4.41 23.93 L 4.0 23.98" fill="none" stroke="#111" stroke-width="1.63" stroke-linecap="round" stroke-linejoin="round"/>
<path d="M 8.97 21.0 L 8.95 21.32 L 8.91 21.63 L 8.85 21.95 L 8.78 22.25 L 8.68 22.56 L 8.56 22.85 L 8.43 23.14 L 8.28 23.42 L 8.11 23.69 L 7.92 23.95 L 7.72 24.19 L 7.5 24.43 L 7.27 24.64 L 7.02 24.85 L 6.77 25.03 L 6.5 25.2 L 6.22 25.35 L 5.93 25.49 L 5.63 25.6 L 5.33 25.7 L 5.02 25.78 L 4.71 25.83 L 4.39 25.87 L 4.08 25.89" fill="none" stroke="#111" stroke-width="1.63" stroke-linecap="round" stroke-linejoin="round"/>
</svg>
