<?xml version="1.0" encoding="UTF-8"?>
<svg xmlns="http://www.w3.org/2000/svg" viewBox="0 0 19.94 32.00">
<path d="M 15.94 5.0 L 15.9 5.96 L 15.86 6.92 L 15.82 7.88 L 15.77 8.83 L 15.73 9.79 L 15.69 10.75 L 15.65 11.71 L 15.61 12.67 L 15.57 13.62 L 15.52 14.58 L 15.48 15.54 L 15.44 16.5 L 15.4 17.46 L 15.36 18.42 L 15.32 19.38 L 15.27 20.33 L 15.23 21.29 L 15.19 22.25 L 15.15 23.21 L 15.11 24.17 L 15.07 25.12 L 15.02 26.08 L 14.98 27.04 L 14.94 28.0" fill="none" stroke="#111" stroke-width="1.12" stroke-linecap="round" stroke-linejoin="round"/>
<path d="M 11.94 4.0 L 12.11 4.04 L 12.27 4.08 L 12.44 4.12 L 12.61 4.17 L 12.77 4.21 L 12.94 4.25 L 13.11 4.29 L 13.27 4.33 L 13.44 4.38 L 13.61 4.42 L 13.77 4.46 L 13.94 4.5 L 14.11 4.54 L 14.27 4.58 L 14.44 4.62 L 14.61 4.67 L 14.77 4.71 L 14.94 4.75 L 15.11 4.79 L 15.27 4.83 L 15.44 4.88 L 15.61 4.92 L 15.77 4.96 L 15.94 5.0" fill="none" stroke="#111" stroke-width="1.12" stroke-linecap="round" stroke-linejoin="round"/>
<path d="M 11.94 4.0 L 11.83 4.27 L 11.75 4.56 L 11.69 4.85 L 11.67 5.15 L 11.68 5.44 L 11.71 5.74 L 11.78 6.03 L 11.87 6.31 L 12.0 6.58 L 12.15 6.83 L 12.32 7.07 L 12.52 7.29 L 12.74 7.49 L 12.98 7.67 L 13.24 7.82 L 13.51 7.94 L 13.79 8.04 L 14.08 8.1 L 14.37 8.14 L 14.67 8.15 L 14.96 8.12 L 15.26 8.07 L 15.54 7.99 L 15.82 7.87" fill="none" stroke="#111" stroke-width="1.12" stroke-linecap="round" stroke-linejoin="round"/>
<path d="M 11.94 11.0 L 12.07 11.08 L 12.19 11.17 L 12.32 11.25 L 12.44 11.33 L 12.57 11.42 L 12.69 11.5 L 12.82 11.58 L 12.94 11.67 L 13.07 11.75 L 13.19 11.83 L 13.32 11.92 L 13.44 12.0 L 13.57 12.08 L 13.69 12.17 L 13.82 12.25 L 13.94 12.33 L 14.07 12.42 L 14.19 12.5 L 14.32 12.58 L 14.44 12.67 L 14.57 12.75 L 14.69 12.83 L 14.82 12.92 L 14.94 13.0" fill="none" stroke="#111" stroke-width="1.12" stroke-linecap="round" stroke-linejoin="round"/>
<path d="M 11.94 11.0 L 11.84 11.26 L 11.77 11.52 L 11.71 11.79 L 11.68 12.06 L 11.66 12.34 L 11.67 12.61 L 11.7 12.89 L 11.75 13.16 L 11.82 13.42 L 11.92 13.68 L 12.03 13.93 L 12.16 14.17 L 12.31 14.4 L 12.48 14.62 L 12.66 14.83 L 12.87 15.01 L 13.08 15.19 L 13.31 15.34 L 13.55 15.48 L 13.79 15.6 L 14.05 15.69 L 14.32 15.77 L 14.59 15.83 L 14.86 15.86" fill="none" stroke="#111" stroke-width="1.12" stroke-linecap="round" stroke-linejoin="round"/>
<path d="M 10.94 17.0 L 11.11 17.08 L 11.27 17.17 L 11.44 17.25 L 11.61 17.33 L 11.77 17.42 L 11.94 17.5 L 12.11 17.58 L 12.27 17.67 L 12.44 17.75 L 12.61 17.83 L 12.77 17.92 L 12.94 18.0 L 13.11 18.08 L 13.27 18.17 L 13.44 18.25 L 13.61 18.33 L 13.77 18.42 L 13.94 18.5 L 14.11 18.58 L 14.27 18.67 L 14.44 18.75 L 14.61 18.83 L 14.77 18.92 L 14.94 19.0" fill="none" stroke="#111" stroke-width="1.12" stroke-linecap="round" stroke-linejoin="round"/>
<path d="M 10.94 17.0 L 10.94 17.21 L 10.94 17.42 L 10.94 17.62 L 10.94 17.83 L 10.94 18.04 L 10.94 18.25 L 10.94 18.46 L 10.94 18.67 L 10.94 18.88 L 10.94 19.08 L 10.94 19.29 L 10.94 19.5 L 10.94 19.71 L 10.94 19.92 L 10.94 20.12 L 10.94 20.33 L 10.94 20.54 L 10.94 20.75 L 10.94 20.96 L 10.94 21.17 L 10.94 21.38 L 10.94 21.58 L 10.94 21.79 L 10.94 22.0" fill="none" stroke="#111" stroke-width="1.12" stroke-linecap="round" stroke-linejoin="round"/>
<path d="M 10.94 21.0 L 11.11 21.08 L 11.27 21.17 L 11.44 21.25 L 11.61 21.33 L 11.77 21.42 L 11.94 21.5 L 12.11 21.58 L 12.27 21.67 L 12.44 21.75 L 12.61 21.83 L 12.77 21.92 L 12.94 22.0 L 13.11 22.08 L 13.27 22.17 L 13.44 22.25 L 13.61 22.33 L 13.77 22.42 L 13.94 22.5 L 14.11 22.58 L 14.27 22.67 L 14.44 22.75 L 14.61 22.83 L 14.77 22.92 L 14.94 23.0" fill="none" stroke="#111" stroke-width="1.12" stroke-linecap="round" stroke-linejoin="round"/>
<path d="M 8.94 4.0 L 8.94 4.29 L 8.94 4.58 L 8.94 4.88 L 8.94 5.17 L 8.94 5.46 L 8.94 5.75 L 8.94 6.04 L 8.94 6.33 L 8.94 6.62 L 8.94 6.92 L 8.94 7.21 L 8.94 7.5 L 8.94 7.79 L 8.94 8.08 L 8.94 8.38 L 8.94 8.67 L 8.94 8.96 L 8.94 9.25 L 8.94 9.54 L 8.94 9.83 L 8.94 10.12 L 8.94 10.42 L 8.94 10.71 L 8.94 11.0" fill="none" stroke="#111" stroke-width="1.12" stroke-linecap="round" stroke-linejoin="round"/>
<path d="M 8.94 4.0 L 8.53 4.08 L 8.12 4.2 L 7.73 4.35 L 7.35 4.53 L 6.99 4.75 L 6.66 5.0 L 6.34 5.28 L 6.05 5.58 L 5.79 5.91 L 5.56 6.26 L 5.36 6.64 L 5.19 7.02 L 5.06 7.42 L 4.97 7.83 L 4.91 8.25 L 4.89 8.67 L 4.91 9.09 L 4.96 9.51 L 5.06 9.92 L 5.18 10.32 L 5.35 10.71 L 5.54 11.08 L 5.77 11.43 L 6.03 11.76" fill="none" stroke="#111" stroke-width="1.12" stroke-linecap="round" stroke-linejoin="round"/>
<path d="M 8.94 7.0 L 8.58 7.2 L 8.24 7.41 L 7.9 7.63 L 7.57 7.88 L 7.25 8.13 L 6.95 8.4 L 6.65 8.68 L 6.37 8.98 L 6.11 9.29 L 5.85 9.61 L 5.61 9.94 L 5.39 10.28 L 5.18 10.63 L 4.99 10.99 L 4.81 11.35 L 4.65 11.73 L 4.51 12.11 L 4.38 12.5 L 4.28 12.89 L 4.19 13.29 L 4.11 13.69 L 4.06 14.09 L 4.02 14.5 L 4.0 14.91" fill="none" stroke="#111" stroke-width="1.12" stroke-linecap="round" stroke-linejoin="round"/>
<path d="M 6.94 18.0 L 6.86 18.25 L 6.77 18.5 L 6.69 18.75 L 6.61 19.0 L 6.52 19.25 L 6.44 19.5 L 6.36 19.75 L 6.27 20.0 L 6.19 20.25 L 6.11 20.5 L 6.02 20.75 L 5.94 21.0 L 5.86 21.25 L 5.77 21.5 L 5.69 21.75 L 5.61 22.0 L 5.52 22.25 L 5.44 22.5 L 5.36 22.75 L 5.27 23.0 L 5.19 23.25 L 5.11 23.5 L 5.02 23.75 L 4.94 24.0" fill="none" stroke="#111" stroke-width="1.12" stroke-linecap="round" stroke-linejoin="round"/>
<path d="M 6.94 18.0 L 6.98 18.33 L 7.02 18.67 L 7.07 19.0 L 7.11 19.33 L 7.15 19.67 L 7.19 20.0 L 7.23 20.33 L 7.27 20.67 L 7.32 21.0 L 7.36 21.33 L 7.4 21.67 L 7.44 22.0 L 7.48 22.33 L 7.52 22.67 L 7.57 23.0 L 7.61 23.33 L 7.65 23.67 L 7.69 24.0 L 7.73 24.33 L 7.77 24.67 L 7.82 25.0 L 7.86 25.33 L 7.9 25.67 L 7.94 26.0" fill="none" stroke="#111" stroke-width="1.12" stroke-linecap="round" stroke-linejoin="round"/>
<path d="M 5.94 22.0 L 6.3 22.03 L 6.65 22.08 L 7.0 22.15 L 7.35 22.26 L 7.68 22.38 L 8.01 22.53 L 8.32 22.7 L 8.63 22.89 L 8.92 23.1 L 9.19 23.33 L 9.45 23.58 L 9.68 23.85 L 9.9 24.13 L 10.1 24.43 L 10.28 24.74 L 10.44 25.06 L 10.57 25.39 L 10.68 25.73 L 10.77 26.08 L 10.83 26.43 L 10.86 26.79 L 10.88 27.15 L 10.86 27.51 L 10.83 27.86" fill="none" stroke="#111" stroke-width="1.12" stroke-linecap="round" stroke-linejoin="round"/>
</svg>
