<?xml version="1.0" encoding="UTF-8"?>
<svg xmlns="http://www.w3.org/2000/svg" viewBox="0 0 21.00 28.00">
<path d="M 4.0 5.0 L 4.04 5.79 L 4.08 6.58 L 4.12 7.38 L 4.17 8.17 L 4.21 8.96 L 4.25 9.75 L 4.29 10.54 L 4.33 11.33 L 4.38 12.12 L 4.42 12.92 L 4.46 13.71 L 4.5 14.5 L 4.54 15.29 L 4.58 16.08 L 4.63 16.88 L 4.67 17.67 L 4.71 18.46 L 4.75 19.25 L 4.79 20.04 L 4.83 20.83 L 4.88 21.62 L 4.92 22.42 L 4.96 23.21 L 5.0 24.0" fill="none" stroke="#111" stroke-width="0.98" stroke-linecap="round" stroke-linejoin="round"/>
<path d="M 4.0 5.0 L 4.0 5.0 L 4.0 5.0 L 4.0 5.0 L 4.0 5.0 L 4.0 5.0 L 4.0 5.0 L 4.0 5.0 L 4.0 5.0 L 4.0 5.0 L 4.0 5.0 L 4.0 5.0 L 4.0 5.0 L 4.0 5.0 L 4.0 5.0 L 4.0 5.0 L 4.0 5.0 L 4.0 5.0 L 4.0 5.0 L 4.0 5.0 L 4.0 5.0 L 4.0 5.0 L 4.0 5.0 L 4.0 5.0 L 4.0 5.0" fill="none" stroke="#111" stroke-width="0.98" stroke-linecap="round" stroke-linejoin="round"/>
<path d="M 4.0 5.0 L 4.54 4.96 L 5.08 4.92 L 5.62 4.88 L 6.17 4.83 L 6.71 4.79 L 7.25 4.75 L 7.79 4.71 L 8.33 4.67 L 8.88 4.62 L 9.42 4.58 L 9.96 4.54 L 10.5 4.5 L 11.04 4.46 L 11.58 4.42 L 12.13 4.38 L 12.67 4.33 L 13.21 4.29 L 13.75 4.25 L 14.29 4.21 L 14.83 4.17 L 15.38 4.12 L 15.92 4.08 L 16.46 4.04 L 17.0 4.0" fill="none" stroke="#111" stroke-width="0.98" stroke-linecap="round" stroke-linejoin="round"/>
<path d="M 17.0 4.0 L 17.0 4.75 L 17.0 5.5 L 17.0 6.25 L 17.0 7.0 L 17.0 7.75 L 17.0 8.5 L 17.0 9.25 L 17.0 10.0 L 17.0 10.75 L 17.0 11.5 L 17.0 12.25 L 17.0 13.0 L 17.0 13.75 L 17.0 14.5 L 17.0 15.25 L 17.0 16.0 L 17.0 16.75 L 17.0 17.5 L 17.0 18.25 L 17.0 19.0 L 17.0 19.75 L 17.0 20.5 L 17.0 21.25 L 17.0 22.0" fill="none" stroke="#111" stroke-width="0.98" stroke-linecap="round" stroke-linejoin="round"/>
<path d="M 5.0 24.0 L 5.5 23.92 L 6.0 23.83 L 6.5 23.75 L 7.0 23.67 L 7.5 23.58 L 8.0 23.5 L 8.5 23.42 L 9.0 23.33 L 9.5 23.25 L 10.0 23.17 L 10.5 23.08 L 11.0 23.0 L 11.5 22.92 L 12.0 22.83 L 12.5 22.75 L 13.0 22.67 L 13.5 22.58 L 14.0 22.5 L 14.5 22.42 L 15.0 22.33 L 15.5 22.25 L 16.0 22.17 L 16.5 22.08 L 17.0 22.0" fill="none" stroke="#111" stroke-width="0.98" stroke-linecap="round" stroke-linejoin="round"/>
<path d="M 10.0 7.0 L 9.88 7.33 L 9.75 7.67 L 9.62 8.0 L 9.5 8.33 L 9.38 8.67 L 9.25 9.0 L 9.12 9.33 L 9.0 9.67 L 8.88 10.0 L 8.75 10.33 L 8.62 10.67 L 8.5 11.0 L 8.38 11.33 L 8.25 11.67 L 8.12 12.0 L 8.0 12.33 L 7.88 12.67 L 7.75 13.0 L 7.63 13.33 L 7.5 13.67 L 7.38 14.0 L 7.25 14.33 L 7.13 14.67 L 7.0 15.0" fill="none" stroke="#111" stroke-width="0.98" stroke-linecap="round" stroke-linejoin="round"/>
<path d="M 10.0 7.0 L 10.21 7.29 L 10.42 7.58 L 10.62 7.88 L 10.83 8.17 L 11.04 8.46 L 11.25 8.75 L 11.46 9.04 L 11.67 9.33 L 11.88 9.62 L 12.08 9.92 L 12.29 10.21 L 12.5 10.5 L 12.71 10.79 L 12.92 11.08 L 13.12 11.38 L 13.33 11.67 L 13.54 11.96 L 13.75 12.25 L 13.96 12.54 L 14.17 12.83 L 14.38 13.12 L 14.58 13.42 L 14.79 13.71 L 15.0 14.0" fill="none" stroke="#111" stroke-width="0.98" stroke-linecap="round" stroke-linejoin="round"/>
<path d="M 10.0 7.0 L 10.04 7.29 L 10.08 7.58 L 10.12 7.88 L 10.17 8.17 L 10.21 8.46 L 10.25 8.75 L 10.29 9.04 L 10.33 9.33 L 10.38 9.62 L 10.42 9.92 L 10.46 10.21 L 10.5 10.5 L 10.54 10.79 L 10.58 11.08 L 10.62 11.38 L 10.67 11.67 L 10.71 11.96 L 10.75 12.25 L 10.79 12.54 L 10.83 12.83 L 10.88 13.12 L 10.92 13.42 L 10.96 13.71 L 11.0 14.0" fill="none" stroke="#111" stroke-width="0.98" stroke-linecap="round" stroke-linejoin="round"/>
<path d="M 11.0 14.0 L 10.83 14.25 L 10.67 14.5 L 10.5 14.75 L 10.33 15.0 L 10.17 15.25 L 10.0 15.5 L 9.83 15.75 L 9.67 16.0 L 9.5 16.25 L 9.33 16.5 L 9.17 16.75 L 9.0 17.0 L 8.83 17.25 L 8.67 17.5 L 8.5 17.75 L 8.33 18.0 L 8.17 18.25 L 8.0 18.5 L 7.83 18.75 L 7.67 19.0 L 7.5 19.25 L 7.33 19.5 L 7.17 19.75 L 7.0 20.0" fill="none" stroke="#111" stroke-width="0.98" stroke-linecap="round" stroke-linejoin="round"/>
<path d="M 10.0 14.0 L 10.21 14.25 L 10.42 14.5 L 10.62 14.75 L 10.83 15.0 L 11.04 15.25 L 11.25 15.5 L 11.46 15.75 L 11.67 16.0 L 11.88 16.25 L 12.08 16.5 L 12.29 16.75 L 12.5 17.0 L 12.71 17.25 L 12.92 17.5 L 13.12 17.75 L 13.33 18.0 L 13.54 18.25 L 13.75 18.5 L 13.96 18.75 L 14.17 19.0 L 14.38 19.25 L 14.58 19.5 L 14.79 19.75 L 15.0 20.0" fill="none" stroke="#111" stroke-width="0.98" stroke-linecap="round" stroke-linejoin="round"/>
</svg>
