<?xml version="1.0" encoding="UTF-8"?>
<svg xmlns="http://www.w3.org/2000/svg" viewBox="0 0 24.75 36.96">
<path d="M 11.78 4.0 L 10.79 4.89 L 9.85 5.83 L 8.98 6.83 L 8.17 7.88 L 7.42 8.98 L 6.74 10.12 L 6.13 11.31 L 5.6 12.52 L 5.13 13.77 L 4.75 15.04 L 4.44 16.33 L 4.22 17.64 L 4.07 18.96 L 4.0 20.29 L 4.01 21.62 L 4.11 22.94 L 4.28 24.26 L 4.53 25.57 L 4.87 26.85 L 5.28 28.12 L 5.76 29.35 L 6.32 30.56 L 6.95 31.73 L 7.66 32.86" fill="none" stroke="#111" stroke-width="1.29" stroke-linecap="round" stroke-linejoin="round"/>
<path d="M 8.78 10.0 L 8.82 10.29 L 8.86 10.58 L 8.9 10.88 L 8.94 11.17 L 8.99 11.46 L 9.03 11.75 L 9.07 12.04 L 9.11 12.33 L 9.15 12.62 L 9.19 12.92 L 9.24 13.21 L 9.28 13.5 L 9.32 13.79 L 9.36 14.08 L 9.4 14.38 L 9.44 14.67 L 9.49 14.96 L 9.53 15.25 L 9.57 15.54 L 9.61 15.83 L 9.65 16.12 L 9.69 16.42 L 9.74 16.71 L 9.78 17.0 L 9.78 17.0 L 9.89 17.33 L 9.98 17.66 L 10.05 17.99 L 10.09 18.33 L 10.12 18.68 L 10.12 19.02 L 10.1 19.36 L 10.06 19.7 L 10.0 20.04 L 9.92 20.37 L 9.81 20.7 L 9.69 21.02 L 9.54 21.33 L 9.38 21.63 L 9.19 21.92 L 8.99 22.2 L 8.77 22.47 L 8.54 22.72 L 8.29 22.95 L 8.02 23.17 L 7.74 23.37 L 7.45 23.55 L 7.15 23.71 L 6.84 23.86" fill="none" stroke="#111" stroke-width="1.29" stroke-linecap="round" stroke-linejoin="round"/>
<path d="M 6.78 14.0 L 6.78 14.17 L 6.78 14.33 L 6.78 14.5 L 6.78 14.67 L 6.78 14.83 L 6.78 15.0 L 6.78 15.17 L 6.78 15.33 L 6.78 15.5 L 6.78 15.67 L 6.78 15.83 L 6.78 16.0 L 6.78 16.17 L 6.78 16.33 L 6.78 16.5 L 6.78 16.67 L 6.78 16.83 L 6.78 17.0 L 6.78 17.17 L 6.78 17.33 L 6.78 17.5 L 6.78 17.67 L 6.78 17.83 L 6.78 18.0" fill="none" stroke="#111" stroke-width="1.29" stroke-linecap="round" stroke-linejoin="round"/>
<path d="M 11.78 5.0 L 11.86 5.21 L 11.94 5.42 L 12.03 5.62 L 12.11 5.83 L 12.19 6.04 L 12.28 6.25 L 12.36 6.46 L 12.44 6.67 L 12.53 6.88 L 12.61 7.08 L 12.69 7.29 L 12.78 7.5 L 12.86 7.71 L 12.94 7.92 L 13.03 8.12 L 13.11 8.33 L 13.19 8.54 L 13.28 8.75 L 13.36 8.96 L 13.44 9.17 L 13.53 9.38 L 13.61 9.58 L 13.69 9.79 L 13.78 10.0" fill="none" stroke="#111" stroke-width="1.29" stroke-linecap="round" stroke-linejoin="round"/>
<path d="M 12.78 12.0 L 12.83 12.5 L 12.88 13.0 L 12.91 13.51 L 12.94 14.01 L 12.96 14.51 L 12.97 15.02 L 12.98 15.52 L 12.97 16.03 L 12.96 16.53 L 12.94 17.03 L 12.91 17.54 L 12.87 18.04 L 12.82 18.54 L 12.77 19.04 L 12.71 19.54 L 12.64 20.04 L 12.56 20.54 L 12.47 21.04 L 12.38 21.53 L 12.27 22.02 L 12.16 22.52 L 12.04 23.01 L 11.91 23.49 L 11.78 23.98" fill="none" stroke="#111" stroke-width="1.29" stroke-linecap="round" stroke-linejoin="round"/>
<path d="M 15.78 15.0 L 16.26 15.38 L 16.71 15.8 L 17.11 16.25 L 17.47 16.75 L 17.78 17.28 L 18.04 17.83 L 18.25 18.4 L 18.41 18.99 L 18.51 19.6 L 18.55 20.21 L 18.53 20.82 L 18.46 21.43 L 18.33 22.03 L 18.15 22.61 L 17.91 23.17 L 17.62 23.71 L 17.28 24.22 L 16.9 24.7 L 16.47 25.14 L 16.01 25.53 L 15.5 25.88 L 14.97 26.19 L 14.42 26.44 L 13.84 26.64" fill="none" stroke="#111" stroke-width="1.29" stroke-linecap="round" stroke-linejoin="round"/>
<path d="M 12.78 19.0 L 13.25 19.49 L 13.7 19.99 L 14.15 20.5 L 14.59 21.01 L 15.01 21.54 L 15.43 22.08 L 15.83 22.62 L 16.22 23.17 L 16.6 23.74 L 16.97 24.3 L 17.32 24.88 L 17.66 25.47 L 17.99 26.06 L 18.31 26.66 L 18.61 27.26 L 18.9 27.87 L 19.18 28.49 L 19.45 29.11 L 19.7 29.74 L 19.94 30.38 L 20.16 31.01 L 20.37 31.66 L 20.57 32.31 L 20.75 32.96" fill="none" stroke="#111" stroke-width="1.29" stroke-linecap="round" stroke-linejoin="round"/>
</svg>
