<?xml version="1.0" encoding="UTF-8"?>
<svg xmlns="http://www.w3.org/2000/svg" viewBox="0 0 24.00 32.00">
<path d="M 13.0 5.0 L 13.29 5.0 L 13.58 5.0 L 13.88 5.0 L 14.17 5.0 L 14.46 5.0 L 14.75 5.0 L 15.04 5.0 L 15.33 5.0 L 15.62 5.0 L 15.92 5.0 L 16.21 5.0 L 16.5 5.0 L 16.79 5.0 L 17.08 5.0 L 17.38 5.0 L 17.67 5.0 L 17.96 5.0 L 18.25 5.0 L 18.54 5.0 L 18.83 5.0 L 19.12 5.0 L 19.42 5.0 L 19.71 5.0 L 20.0 5.0" fill="none" stroke="#111" stroke-width="1.12" stroke-linecap="round" stroke-linejoin="round"/>
<path d="M 13.0 7.0 L 13.25 7.0 L 13.5 7.0 L 13.75 7.0 L 14.0 7.0 L 14.25 7.0 L 14.5 7.0 L 14.75 7.0 L 15.0 7.0 L 15.25 7.0 L 15.5 7.0 L 15.75 7.0 L 16.0 7.0 L 16.25 7.0 L 16.5 7.0 L 16.75 7.0 L 17.0 7.0 L 17.25 7.0 L 17.5 7.0 L 17.75 7.0 L 18.0 7.0 L 18.25 7.0 L 18.5 7.0 L 18.75 7.0 L 19.0 7.0" fill="none" stroke="#111" stroke-width="1.12" stroke-linecap="round" stroke-linejoin="round"/>
<path d="M 13.0 10.0 L 13.25 9.96 L 13.5 9.92 L 13.75 9.88 L 14.0 9.83 L 14.25 9.79 L 14.5 9.75 L 14.75 9.71 L 15.0 9.67 L 15.25 9.62 L 15.5 9.58 L 15.75 9.54 L 16.0 9.5 L 16.25 9.46 L 16.5 9.42 L 16.75 9.38 L 17.0 9.33 L 17.25 9.29 L 17.5 9.25 L 17.75 9.21 L 18.0 9.17 L 18.25 9.12 L 18.5 9.08 L 18.75 9.04 L 19.0 9.0" fill="none" stroke="#111" stroke-width="1.12" stroke-linecap="round" stroke-linejoin="round"/>
<path d="M 13.0 4.0 L 13.0 4.25 L 13.0 4.5 L 13.0 4.75 L 13.0 5.0 L 13.0 5.25 L 13.0 5.5 L 13.0 5.75 L 13.0 6.0 L 13.0 6.25 L 13.0 6.5 L 13.0 6.75 L 13.0 7.0 L 13.0 7.25 L 13.0 7.5 L 13.0 7.75 L 13.0 8.0 L 13.0 8.25 L 13.0 8.5 L 13.0 8.75 L 13.0 9.0 L 13.0 9.25 L 13.0 9.5 L 13.0 9.75 L 13.0 10.0" fill="none" stroke="#111" stroke-width="1.12" stroke-linecap="round" stroke-linejoin="round"/>
<path d="M 19.0 5.0 L 19.0 5.17 L 19.0 5.33 L 19.0 5.5 L 19.0 5.67 L 19.0 5.83 L 19.0 6.0 L 19.0 6.17 L 19.0 6.33 L 19.0 6.5 L 19.0 6.67 L 19.0 6.83 L 19.0 7.0 L 19.0 7.17 L 19.0 7.33 L 19.0 7.5 L 19.0 7.67 L 19.0 7.83 L 19.0 8.0 L 19.0 8.17 L 19.0 8.33 L 19.0 8.5 L 19.0 8.67 L 19.0 8.83 L 19.0 9.0" fill="none" stroke="#111" stroke-width="1.12" stroke-linecap="round" stroke-linejoin="round"/>
<path d="M 16.0 5.0 L 16.0 5.67 L 16.0 6.33 L 16.0 7.0 L 16.0 7.67 L 16.0 8.33 L 16.0 9.0 L 16.0 9.67 L 16.0 10.33 L 16.0 11.0 L 16.0 11.67 L 16.0 12.33 L 16.0 13.0 L 16.0 13.67 L 16.0 14.33 L 16.0 15.0 L 16.0 15.67 L 16.0 16.33 L 16.0 17.0 L 16.0 17.67 L 16.0 18.33 L 16.0 19.0 L 16.0 19.67 L 16.0 20.33 L 16.0 21.0" fill="none" stroke="#111" stroke-width="1.12" stroke-linecap="round" stroke-linejoin="round"/>
<path d="M 16.0 16.0 L 15.92 16.17 L 15.83 16.33 L 15.75 16.5 L 15.67 16.67 L 15.58 16.83 L 15.5 17.0 L 15.42 17.17 L 15.33 17.33 L 15.25 17.5 L 15.17 17.67 L 15.08 17.83 L 15.0 18.0 L 14.92 18.17 L 14.83 18.33 L 14.75 18.5 L 14.67 18.67 L 14.58 18.83 L 14.5 19.0 L 14.42 19.17 L 14.33 19.33 L 14.25 19.5 L 14.17 19.67 L 14.08 19.83 L 14.0 20.0" fill="none" stroke="#111" stroke-width="1.12" stroke-linecap="round" stroke-linejoin="round"/>
<path d="M 16.0 15.0 L 16.44 15.32 L 16.85 15.68 L 17.23 16.08 L 17.57 16.5 L 17.87 16.96 L 18.13 17.44 L 18.34 17.94 L 18.51 18.46 L 18.63 18.99 L 18.71 19.54 L 18.73 20.08 L 18.71 20.63 L 18.63 21.17 L 18.51 21.7 L 18.34 22.22 L 18.13 22.72 L 17.87 23.2 L 17.56 23.66 L 17.22 24.08 L 16.85 24.48 L 16.43 24.84 L 15.99 25.16 L 15.52 25.44 L 15.03 25.67" fill="none" stroke="#111" stroke-width="1.12" stroke-linecap="round" stroke-linejoin="round"/>
<path d="M 17.0 20.0 L 17.08 20.33 L 17.17 20.67 L 17.25 21.0 L 17.33 21.33 L 17.42 21.67 L 17.5 22.0 L 17.58 22.33 L 17.67 22.67 L 17.75 23.0 L 17.83 23.33 L 17.92 23.67 L 18.0 24.0 L 18.08 24.33 L 18.17 24.67 L 18.25 25.0 L 18.33 25.33 L 18.42 25.67 L 18.5 26.0 L 18.58 26.33 L 18.67 26.67 L 18.75 27.0 L 18.83 27.33 L 18.92 27.67 L 19.0 28.0" fill="none" stroke="#111" stroke-width="1.12" stroke-linecap="round" stroke-linejoin="round"/>
<path d="M 15.0 23.0 L 15.12 22.88 L 15.25 22.75 L 15.38 22.62 L 15.5 22.5 L 15.62 22.38 L 15.75 22.25 L 15.88 22.12 L 16.0 22.0 L 16.12 21.88 L 16.25 21.75 L 16.38 21.62 L 16.5 21.5 L 16.62 21.38 L 16.75 21.25 L 16.88 21.12 L 17.0 21.0 L 17.12 20.88 L 17.25 20.75 L 17.38 20.62 L 17.5 20.5 L 17.62 20.38 L 17.75 20.25 L 17.88 20.12 L 18.0 20.0" fill="none" stroke="#111" stroke-width="1.12" stroke-linecap="round" stroke-linejoin="round"/>
<path d="M 9.0 5.0 L 8.79 5.25 L 8.58 5.5 L 8.38 5.75 L 8.17 6.0 L 7.96 6.25 L 7.75 6.5 L 7.54 6.75 L 7.33 7.0 L 7.12 7.25 L 6.92 7.5 L 6.71 7.75 L 6.5 8.0 L 6.29 8.25 L 6.08 8.5 L 5.88 8.75 L 5.67 9.0 L 5.46 9.25 L 5.25 9.5 L 5.04 9.75 L 4.83 10.0 L 4.62 10.25 L 4.42 10.5 L 4.21 10.75 L 4.0 11.0" fill="none" stroke="#111" stroke-width="1.12" stroke-linecap="round" stroke-linejoin="round"/>
<path d="M 9.0 6.0 L 9.08 6.17 L 9.17 6.33 L 9.25 6.5 L 9.33 6.67 L 9.42 6.83 L 9.5 7.0 L 9.58 7.17 L 9.67 7.33 L 9.75 7.5 L 9.83 7.67 L 9.92 7.83 L 10.0 8.0 L 10.08 8.17 L 10.17 8.33 L 10.25 8.5 L 10.33 8.67 L 10.42 8.83 L 10.5 9.0 L 10.58 9.17 L 10.67 9.33 L 10.75 9.5 L 10.83 9.67 L 10.92 9.83 L 11.0 10.0" fill="none" stroke="#111" stroke-width="1.12" stroke-linecap="round" stroke-linejoin="round"/>
<path d="M 6.0 9.0 L 6.17 9.0 L 6.33 9.0 L 6.5 9.0 L 6.67 9.0 L 6.83 9.0 L 7.0 9.0 L 7.17 9.0 L 7.33 9.0 L 7.5 9.0 L 7.67 9.0 L 7.83 9.0 L 8.0 9.0 L 8.17 9.0 L 8.33 9.0 L 8.5 9.0 L 8.67 9.0 L 8.83 9.0 L 9.0 9.0 L 9.17 9.0 L 9.33 9.0 L 9.5 9.0 L 9.67 9.0 L 9.83 9.0 L 10.0 9.0" fill="none" stroke="#111" stroke-width="1.12" stroke-linecap="round" stroke-linejoin="round"/>
<path d="M 6.0 11.0 L 6.17 11.0 L 6.33 11.0 L 6.5 11.0 L 6.67 11.0 L 6.83 11.0 L 7.0 11.0 L 7.17 11.0 L 7.33 11.0 L 7.5 11.0 L 7.67 11.0 L 7.83 11.0 L 8.0 11.0 L 8.17 11.0 L 8.33 11.0 L 8.5 11.0 L 8.67 11.0 L 8.83 11.0 L 9.0 11.0 L 9.17 11.0 L 9.33 11.0 L 9.5 11.0 L 9.67 11.0 L 9.83 11.0 L 10.0 11.0" fill="none" stroke="#111" stroke-width="1.12" stroke-linecap="round" stroke-linejoin="round"/>
<path d="M 7.0 9.0 L 7.0 9.12 L 7.0 9.25 L 7.0 9.38 L 7.0 9.5 L 7.0 9.62 L 7.0 9.75 L 7.0 9.88 L 7.0 10.0 L 7.0 10.12 L 7.0 10.25 L 7.0 10.38 L 7.0 10.5 L 7.0 10.62 L 7.0 10.75 L 7.0 10.88 L 7.0 11.0 L 7.0 11.12 L 7.0 11.25 L 7.0 11.38 L 7.0 11.5 L 7.0 11.62 L 7.0 11.75 L 7.0 11.88 L 7.0 12.0" fill="none" stroke="#111" stroke-width="1.12" stroke-linecap="round" stroke-linejoin="round"/>
<path d="M 10.0 9.0 L 10.0 9.12 L 10.0 9.25 L 10.0 9.38 L 10.0 9.5 L 10.0 9.62 L 10.0 9.75 L 10.0 9.88 L 10.0 10.0 L 10.0 10.12 L 10.0 10.25 L 10.0 10.38 L 10.0 10.5 L 10.0 10.62 L 10.0 10.75 L 10.0 10.88 L 10.0 11.0 L 10.0 11.12 L 10.0 11.25 L 10.0 11.38 L 10.0 11.5 L 10.0 11.62 L 10.0 11.75 L 10.0 11.88 L 10.0 12.0" fill="none" stroke="#111" stroke-width="1.12" stroke-linecap="round" stroke-linejoin="round"/>
<path d="M 7.0 12.0 L 6.96 12.12 L 6.92 12.25 L 6.88 12.38 L 6.83 12.5 L 6.79 12.62 L 6.75 12.75 L 6.71 12.88 L 6.67 13.0 L 6.62 13.12 L 6.58 13.25 L 6.54 13.38 L 6.5 13.5 L 6.46 13.62 L 6.42 13.75 L 6.38 13.88 L 6.33 14.0 L 6.29 14.12 L 6.25 14.25 L 6.21 14.38 L 6.17 14.5 L 6.12 14.62 L 6.08 14.75 L 6.04 14.88 L 6.0 15.0 L 6.0 15.0 L 6.08 15.04 L 6.17 15.08 L 6.25 15.12 L 6.33 15.17 L 6.42 15.21 L 6.5 15.25 L 6.58 15.29 L 6.67 15.33 L 6.75 15.38 L 6.83 15.42 L 6.92 15.46 L 7.0 15.5 L 7.08 15.54 L 7.17 15.58 L 7.25 15.62 L 7.33 15.67 L 7.42 15.71 L 7.5 15.75 L 7.58 15.79 L 7.67 15.83 L 7.75 15.88 L 7.83 15.92 L 7.92 15.96 L 8.0 16.0" fill="none" stroke="#111" stroke-width="1.12" stroke-linecap="round" stroke-linejoin="round"/>
<path d="M 7.0 12.0 L 7.17 12.04 L 7.33 12.08 L 7.5 12.12 L 7.67 12.17 L 7.83 12.21 L 8.0 12.25 L 8.17 12.29 L 8.33 12.33 L 8.5 12.38 L 8.67 12.42 L 8.83 12.46 L 9.0 12.5 L 9.17 12.54 L 9.33 12.58 L 9.5 12.62 L 9.67 12.67 L 9.83 12.71 L 10.0 12.75 L 10.17 12.79 L 10.33 12.83 L 10.5 12.88 L 10.67 12.92 L 10.83 12.96 L 11.0 13.0" fill="none" stroke="#111" stroke-width="1.12" stroke-linecap="round" stroke-linejoin="round"/>
<path d="M 11.0 13.0 L 11.0 13.08 L 11.0 13.17 L 11.0 13.25 L 11.0 13.33 L 11.0 13.42 L 11.0 13.5 L 11.0 13.58 L 11.0 13.67 L 11.0 13.75 L 11.0 13.83 L 11.0 13.92 L 11.0 14.0 L 11.0 14.08 L 11.0 14.17 L 11.0 14.25 L 11.0 14.33 L 11.0 14.42 L 11.0 14.5 L 11.0 14.58 L 11.0 14.67 L 11.0 14.75 L 11.0 14.83 L 11.0 14.92 L 11.0 15.0" fill="none" stroke="#111" stroke-width="1.12" stroke-linecap="round" stroke-linejoin="round"/>
<path d="M 11.0 15.0 L 10.83 15.04 L 10.67 15.08 L 10.5 15.12 L 10.33 15.17 L 10.17 15.21 L 10.0 15.25 L 9.83 15.29 L 9.67 15.33 L 9.5 15.38 L 9.33 15.42 L 9.17 15.46 L 9.0 15.5 L 8.83 15.54 L 8.67 15.58 L 8.5 15.62 L 8.33 15.67 L 8.17 15.71 L 8.0 15.75 L 7.83 15.79 L 7.67 15.83 L 7.5 15.88 L 7.33 15.92 L 7.17 15.96 L 7.0 16.0" fill="none" stroke="#111" stroke-width="1.12" stroke-linecap="round" stroke-linejoin="round"/>
<path d="M 8.0 16.0 L 8.0 16.17 L 8.0 16.33 L 8.0 16.5 L 8.0 16.67 L 8.0 16.83 L 8.0 17.0 L 8.0 17.17 L 8.0 17.33 L 8.0 17.5 L 8.0 17.67 L 8.0 17.83 L 8.0 18.0 L 8.0 18.17 L 8.0 18.33 L 8.0 18.5 L 8.0 18.67 L 8.0 18.83 L 8.0 19.0 L 8.0 19.17 L 8.0 19.33 L 8.0 19.5 L 8.0 19.67 L 8.0 19.83 L 8.0 20.0" fill="none" stroke="#111" stroke-width="1.12" stroke-linecap="round" stroke-linejoin="round"/>
<path d="M 10.0 16.0 L 10.0 16.17 L 10.0 16.33 L 10.0 16.5 L 10.0 16.67 L 10.0 16.83 L 10.0 17.0 L 10.0 17.17 L 10.0 17.33 L 10.0 17.5 L 10.0 17.67 L 10.0 17.83 L 10.0 18.0 L 10.0 18.17 L 10.0 18.33 L 10.0 18.5 L 10.0 18.67 L 10.0 18.83 L 10.0 19.0 L 10.0 19.17 L 10.0 19.33 L 10.0 19.5 L 10.0 19.67 L 10.0 19.83 L 10.0 20.0" fill="none" stroke="#111" stroke-width="1.12" stroke-linecap="round" stroke-linejoin="round"/>
<path d="M 5.0 20.0 L 5.25 20.0 L 5.5 20.0 L 5.75 20.0 L 6.0 20.0 L 6.25 20.0 L 6.5 20.0 L 6.75 20.0 L 7.0 20.0 L 7.25 20.0 L 7.5 20.0 L 7.75 20.0 L 8.0 20.0 L 8.25 20.0 L 8.5 20.0 L 8.75 20.0 L 9.0 20.0 L 9.25 20.0 L 9.5 20.0 L 9.75 20.0 L 10.0 20.0 L 10.25 20.0 L 10.5 20.0 L 10.75 20.0 L 11.0 20.0" fill="none" stroke="#111" stroke-width="1.12" stroke-linecap="round" stroke-linejoin="round"/>
<path d="M 11.0 20.0 L 10.92 20.12 L 10.83 20.25 L 10.75 20.38 L 10.67 20.5 L 10.58 20.62 L 10.5 20.75 L 10.42 20.88 L 10.33 21.0 L 10.25 21.12 L 10.17 21.25 L 10.08 21.38 L 10.0 21.5 L 9.92 21.62 L 9.83 21.75 L 9.75 21.88 L 9.67 22.0 L 9.58 22.12 L 9.5 22.25 L 9.42 22.38 L 9.33 22.5 L 9.25 22.62 L 9.17 22.75 L 9.08 22.88 L 9.0 23.0" fill="none" stroke="#111" stroke-width="1.12" stroke-linecap="round" stroke-linejoin="round"/>
<path d="M 5.0 20.0 L 5.17 20.12 L 5.33 20.25 L 5.5 20.38 L 5.67 20.5 L 5.83 20.62 L 6.0 20.75 L 6.17 20.88 L 6.33 21.0 L 6.5 21.12 L 6.67 21.25 L 6.83 21.38 L 7.0 21.5 L 7.17 21.62 L 7.33 21.75 L 7.5 21.88 L 7.67 22.0 L 7.83 22.12 L 8.0 22.25 L 8.17 22.38 L 8.33 22.5 L 8.5 22.62 L 8.67 22.75 L 8.83 22.88 L 9.0 23.0" fill="none" stroke="#111" stroke-width="1.12" stroke-linecap="round" stroke-linejoin="round"/>
</svg>
