<?xml version="1.0" encoding="UTF-8"?>
<svg xmlns="http://www.w3.org/2000/svg" viewBox="0 0 24.93 33.00">
<path d="M 14.0 4.0 L 13.53 4.43 L 13.09 4.89 L 12.7 5.39 L 12.35 5.92 L 12.05 6.48 L 11.8 7.07 L 11.6 7.67 L 11.45 8.29 L 11.36 8.92 L 11.32 9.55 L 11.33 10.19 L 11.4 10.82 L 11.52 11.44 L 11.7 12.05 L 11.93 12.65 L 12.21 13.22 L 12.54 13.76 L 12.91 14.28 L 13.32 14.76 L 13.78 15.2 L 14.27 15.61 L 14.8 15.96 L 15.35 16.28 L 15.93 16.54 L 16.0 17.0 L 15.68 17.38 L 15.37 17.77 L 15.07 18.16 L 14.78 18.57 L 14.51 18.98 L 14.25 19.41 L 14.0 19.84 L 13.77 20.27 L 13.55 20.72 L 13.35 21.17 L 13.16 21.63 L 12.98 22.09 L 12.82 22.56 L 12.67 23.04 L 12.54 23.52 L 12.42 24.0 L 12.32 24.48 L 12.23 24.97 L 12.15 25.46 L 12.1 25.96 L 12.06 26.45 L 12.03 26.95 L 12.02 27.44 L 12.02 27.94" fill="none" stroke="#111" stroke-width="1.16" stroke-linecap="round" stroke-linejoin="round"/>
<path d="M 6.0 12.0 L 6.08 12.29 L 6.17 12.58 L 6.25 12.88 L 6.33 13.17 L 6.42 13.46 L 6.5 13.75 L 6.58 14.04 L 6.67 14.33 L 6.75 14.62 L 6.83 14.92 L 6.92 15.21 L 7.0 15.5 L 7.08 15.79 L 7.17 16.08 L 7.25 16.38 L 7.33 16.67 L 7.42 16.96 L 7.5 17.25 L 7.58 17.54 L 7.67 17.83 L 7.75 18.12 L 7.83 18.42 L 7.92 18.71 L 8.0 19.0 L 8.0 19.0 L 7.84 19.26 L 7.7 19.53 L 7.55 19.8 L 7.41 20.07 L 7.28 20.35 L 7.16 20.63 L 7.04 20.91 L 6.93 21.19 L 6.82 21.48 L 6.72 21.77 L 6.63 22.06 L 6.54 22.35 L 6.46 22.65 L 6.38 22.94 L 6.32 23.24 L 6.26 23.54 L 6.2 23.84 L 6.15 24.14 L 6.11 24.45 L 6.08 24.75 L 6.05 25.05 L 6.03 25.36 L 6.02 25.67 L 6.01 25.97" fill="none" stroke="#111" stroke-width="1.16" stroke-linecap="round" stroke-linejoin="round"/>
<path d="M 18.0 9.0 L 18.39 9.25 L 18.76 9.54 L 19.11 9.85 L 19.43 10.19 L 19.73 10.55 L 20.0 10.93 L 20.23 11.34 L 20.44 11.76 L 20.61 12.19 L 20.74 12.64 L 20.84 13.1 L 20.91 13.56 L 20.93 14.03 L 20.93 14.5 L 20.88 14.96 L 20.8 15.42 L 20.69 15.87 L 20.53 16.32 L 20.35 16.75 L 20.13 17.16 L 19.88 17.55 L 19.6 17.93 L 19.29 18.28 L 18.96 18.61 L 19.0 19.0 L 19.0 19.42 L 19.0 19.83 L 19.0 20.25 L 19.0 20.67 L 19.0 21.08 L 19.0 21.5 L 19.0 21.92 L 19.0 22.33 L 19.0 22.75 L 19.0 23.17 L 19.0 23.58 L 19.0 24.0 L 19.0 24.42 L 19.0 24.83 L 19.0 25.25 L 19.0 25.67 L 19.0 26.08 L 19.0 26.5 L 19.0 26.92 L 19.0 27.33 L 19.0 27.75 L 19.0 28.17 L 19.0 28.58 L 19.0 29.0" fill="none" stroke="#111" stroke-width="1.16" stroke-linecap="round" stroke-linejoin="round"/>
<path d="M 7.0 15.0 L 6.87 15.17 L 6.75 15.33 L 6.62 15.5 L 6.5 15.67 L 6.37 15.83 L 6.25 16.0 L 6.12 16.17 L 6.0 16.33 L 5.87 16.5 L 5.75 16.67 L 5.62 16.83 L 5.5 17.0 L 5.37 17.17 L 5.25 17.33 L 5.12 17.5 L 5.0 17.67 L 4.87 17.83 L 4.75 18.0 L 4.62 18.17 L 4.5 18.33 L 4.37 18.5 L 4.25 18.67 L 4.12 18.83 L 4.0 19.0" fill="none" stroke="#111" stroke-width="1.16" stroke-linecap="round" stroke-linejoin="round"/>
<path d="M 12.0 11.0 L 11.92 11.33 L 11.83 11.67 L 11.75 12.0 L 11.67 12.33 L 11.58 12.67 L 11.5 13.0 L 11.42 13.33 L 11.33 13.67 L 11.25 14.0 L 11.17 14.33 L 11.08 14.67 L 11.0 15.0 L 10.92 15.33 L 10.83 15.67 L 10.75 16.0 L 10.67 16.33 L 10.58 16.67 L 10.5 17.0 L 10.42 17.33 L 10.33 17.67 L 10.25 18.0 L 10.17 18.33 L 10.08 18.67 L 10.0 19.0" fill="none" stroke="#111" stroke-width="1.16" stroke-linecap="round" stroke-linejoin="round"/>
<path d="M 19.0 10.0 L 18.88 10.17 L 18.75 10.33 L 18.62 10.5 L 18.5 10.67 L 18.38 10.83 L 18.25 11.0 L 18.12 11.17 L 18.0 11.33 L 17.88 11.5 L 17.75 11.67 L 17.62 11.83 L 17.5 12.0 L 17.38 12.17 L 17.25 12.33 L 17.12 12.5 L 17.0 12.67 L 16.88 12.83 L 16.75 13.0 L 16.62 13.17 L 16.5 13.33 L 16.38 13.5 L 16.25 13.67 L 16.12 13.83 L 16.0 14.0" fill="none" stroke="#111" stroke-width="1.16" stroke-linecap="round" stroke-linejoin="round"/>
</svg>
