<?xml version="1.0" encoding="UTF-8"?>
<svg xmlns="http://www.w3.org/2000/svg" viewBox="0 0 38.70 35.73">
<path d="M 7.0 18.07 L 7.42 18.03 L 7.83 17.99 L 8.25 17.95 L 8.67 17.9 L 9.08 17.86 L 9.5 17.82 L 9.92 17.78 L 10.33 17.74 L 10.75 17.7 L 11.17 17.65 L 11.58 17.61 L 12.0 17.57 L 12.42 17.53 L 12.83 17.49 L 13.25 17.45 L 13.67 17.4 L 14.08 17.36 L 14.5 17.32 L 14.92 17.28 L 15.33 17.24 L 15.75 17.2 L 16.17 17.15 L 16.58 17.11 L 17.0 17.07" fill="none" stroke="#111" stroke-width="1.35" stroke-linecap="round" stroke-linejoin="round"/>
<path d="M 4.0 21.07 L 4.84 22.37 L 5.78 23.59 L 6.83 24.72 L 7.97 25.76 L 9.2 26.69 L 10.5 27.52 L 11.87 28.22 L 13.3 28.81 L 14.77 29.27 L 16.28 29.6 L 17.81 29.8 L 19.35 29.87 L 20.89 29.8 L 22.42 29.6 L 23.93 29.27 L 25.4 28.81 L 26.83 28.22 L 28.2 27.52 L 29.5 26.69 L 30.73 25.76 L 31.87 24.72 L 32.92 23.59 L 33.87 22.37 L 34.7 21.07" fill="none" stroke="#111" stroke-width="1.35" stroke-linecap="round" stroke-linejoin="round"/>
<path d="M 4.0 21.07 L 4.58 21.07 L 5.17 21.07 L 5.75 21.07 L 6.33 21.07 L 6.92 21.07 L 7.5 21.07 L 8.08 21.07 L 8.67 21.07 L 9.25 21.07 L 9.83 21.07 L 10.42 21.07 L 11.0 21.07 L 11.58 21.07 L 12.17 21.07 L 12.75 21.07 L 13.33 21.07 L 13.92 21.07 L 14.5 21.07 L 15.08 21.07 L 15.67 21.07 L 16.25 21.07 L 16.83 21.07 L 17.42 21.07 L 18.0 21.07" fill="none" stroke="#111" stroke-width="1.35" stroke-linecap="round" stroke-linejoin="round"/>
<path d="M 10.0 17.07 L 10.0 17.2 L 10.0 17.32 L 10.0 17.45 L 10.0 17.57 L 10.0 17.7 L 10.0 17.82 L 10.0 17.95 L 10.0 18.07 L 10.0 18.2 L 10.0 18.32 L 10.0 18.45 L 10.0 18.57 L 10.0 18.7 L 10.0 18.82 L 10.0 18.95 L 10.0 19.07 L 10.0 19.2 L 10.0 19.32 L 10.0 19.45 L 10.0 19.57 L 10.0 19.7 L 10.0 19.82 L 10.0 19.95 L 10.0 20.07" fill="none" stroke="#111" stroke-width="1.35" stroke-linecap="round" stroke-linejoin="round"/>
<path d="M 13.0 17.07 L 13.0 17.24 L 13.0 17.4 L 13.0 17.57 L 13.0 17.74 L 13.0 17.9 L 13.0 18.07 L 13.0 18.24 L 13.0 18.4 L 13.0 18.57 L 13.0 18.74 L 13.0 18.9 L 13.0 19.07 L 13.0 19.24 L 13.0 19.4 L 13.0 19.57 L 13.0 19.74 L 13.0 19.9 L 13.0 20.07 L 13.0 20.24 L 13.0 20.4 L 13.0 20.57 L 13.0 20.74 L 13.0 20.9 L 13.0 21.07" fill="none" stroke="#111" stroke-width="1.35" stroke-linecap="round" stroke-linejoin="round"/>
<path d="M 8.0 25.07 L 8.29 25.07 L 8.58 25.07 L 8.88 25.07 L 9.17 25.07 L 9.46 25.07 L 9.75 25.07 L 10.04 25.07 L 10.33 25.07 L 10.62 25.07 L 10.92 25.07 L 11.21 25.07 L 11.5 25.07 L 11.79 25.07 L 12.08 25.07 L 12.38 25.07 L 12.67 25.07 L 12.96 25.07 L 13.25 25.07 L 13.54 25.07 L 13.83 25.07 L 14.12 25.07 L 14.42 25.07 L 14.71 25.07 L 15.0 25.07" fill="none" stroke="#111" stroke-width="1.35" stroke-linecap="round" stroke-linejoin="round"/>
<path d="M 9.0 15.07 L 8.56 14.21 L 8.27 13.28 L 8.15 12.32 L 8.21 11.35 L 8.44 10.41 L 8.83 9.53 L 9.37 8.72 L 10.04 8.03 L 10.83 7.46 L 11.7 7.04 L 12.64 6.79 L 13.6 6.7 L 14.57 6.79 L 15.5 7.04 L 16.38 7.46 L 17.16 8.03 L 17.84 8.72 L 18.38 9.53 L 18.77 10.41 L 18.99 11.35 L 19.05 12.32 L 18.93 13.28 L 18.65 14.21 L 18.21 15.07" fill="none" stroke="#111" stroke-width="1.35" stroke-linecap="round" stroke-linejoin="round"/>
<path d="M 9.0 8.07 L 9.29 8.07 L 9.58 8.07 L 9.88 8.07 L 10.17 8.07 L 10.46 8.07 L 10.75 8.07 L 11.04 8.07 L 11.33 8.07 L 11.62 8.07 L 11.92 8.07 L 12.21 8.07 L 12.5 8.07 L 12.79 8.07 L 13.08 8.07 L 13.38 8.07 L 13.67 8.07 L 13.96 8.07 L 14.25 8.07 L 14.54 8.07 L 14.83 8.07 L 15.12 8.07 L 15.42 8.07 L 15.71 8.07 L 16.0 8.07" fill="none" stroke="#111" stroke-width="1.35" stroke-linecap="round" stroke-linejoin="round"/>
<path d="M 12.0 9.07 L 12.14 9.3 L 12.26 9.53 L 12.37 9.78 L 12.47 10.03 L 12.55 10.28 L 12.61 10.54 L 12.66 10.81 L 12.69 11.07 L 12.7 11.34 L 12.7 11.61 L 12.68 11.87 L 12.65 12.14 L 12.59 12.4 L 12.53 12.66 L 12.44 12.91 L 12.34 13.16 L 12.23 13.4 L 12.1 13.63 L 11.95 13.86 L 11.8 14.07 L 11.62 14.28 L 11.44 14.47 L 11.25 14.66 L 11.04 14.83" fill="none" stroke="#111" stroke-width="1.35" stroke-linecap="round" stroke-linejoin="round"/>
<path d="M 10.0 12.07 L 10.09 11.82 L 10.22 11.58 L 10.36 11.36 L 10.53 11.15 L 10.72 10.96 L 10.92 10.79 L 11.15 10.64 L 11.39 10.52 L 11.64 10.42 L 11.9 10.35 L 12.16 10.31 L 12.43 10.3 L 12.7 10.31 L 12.96 10.35 L 13.22 10.42 L 13.47 10.52 L 13.71 10.64 L 13.93 10.79 L 14.14 10.96 L 14.33 11.15 L 14.5 11.36 L 14.64 11.58 L 14.76 11.82 L 14.86 12.07" fill="none" stroke="#111" stroke-width="1.35" stroke-linecap="round" stroke-linejoin="round"/>
<path d="M 12.0 13.07 L 12.04 13.15 L 12.08 13.24 L 12.12 13.32 L 12.17 13.4 L 12.21 13.49 L 12.25 13.57 L 12.29 13.65 L 12.33 13.74 L 12.38 13.82 L 12.42 13.9 L 12.46 13.99 L 12.5 14.07 L 12.54 14.15 L 12.58 14.24 L 12.62 14.32 L 12.67 14.4 L 12.71 14.49 L 12.75 14.57 L 12.79 14.65 L 12.83 14.74 L 12.88 14.82 L 12.92 14.9 L 12.96 14.99 L 13.0 15.07" fill="none" stroke="#111" stroke-width="1.35" stroke-linecap="round" stroke-linejoin="round"/>
<path d="M 13.0 5.07 L 13.9 4.59 L 14.86 4.24 L 15.86 4.05 L 16.88 4.0 L 17.9 4.11 L 18.88 4.36 L 19.82 4.77 L 20.69 5.3 L 21.47 5.96 L 22.14 6.73 L 22.69 7.59 L 23.1 8.53 L 23.37 9.51 L 23.49 10.52 L 23.46 11.54 L 23.28 12.55 L 22.95 13.51 L 22.47 14.42 L 21.87 15.24 L 21.15 15.97 L 20.34 16.58 L 19.44 17.06 L 18.48 17.4 L 17.47 17.6" fill="none" stroke="#111" stroke-width="1.35" stroke-linecap="round" stroke-linejoin="round"/>
<path d="M 23.0 14.07 L 23.57 14.63 L 24.11 15.23 L 24.62 15.85 L 25.09 16.5 L 25.53 17.17 L 25.93 17.86 L 26.29 18.58 L 26.61 19.32 L 26.89 20.07 L 27.13 20.83 L 27.32 21.61 L 27.48 22.4 L 27.59 23.19 L 27.65 23.99 L 27.68 24.79 L 27.65 25.6 L 27.59 26.4 L 27.48 27.19 L 27.33 27.98 L 27.14 28.76 L 26.9 29.52 L 26.62 30.27 L 26.3 31.01 L 25.94 31.73" fill="none" stroke="#111" stroke-width="1.35" stroke-linecap="round" stroke-linejoin="round"/>
</svg>
