<?xml version="1.0" encoding="UTF-8"?>
<svg xmlns="http://www.w3.org/2000/svg" viewBox="0 0 22.00 36.00">
<path d="M 6.0 4.0 L 5.86 4.73 L 5.75 5.46 L 5.66 6.19 L 5.6 6.93 L 5.57 7.67 L 5.57 8.41 L 5.59 9.15 L 5.64 9.88 L 5.72 10.62 L 5.82 11.35 L 5.95 12.08 L 6.1 12.8 L 6.29 13.52 L 6.5 14.23 L 6.73 14.93 L 6.99 15.62 L 7.27 16.3 L 7.58 16.98 L 7.92 17.64 L 8.28 18.28 L 8.66 18.92 L 9.06 19.54 L 9.49 20.14 L 9.94 20.73 L 10.0 21.0 L 10.53 20.51 L 11.03 20.0 L 11.51 19.46 L 11.95 18.89 L 12.36 18.3 L 12.73 17.69 L 13.08 17.05 L 13.38 16.4 L 13.65 15.74 L 13.88 15.05 L 14.07 14.36 L 14.22 13.66 L 14.33 12.95 L 14.41 12.23 L 14.44 11.51 L 14.43 10.8 L 14.38 10.08 L 14.29 9.36 L 14.17 8.66 L 14.0 7.96 L 13.79 7.27 L 13.55 6.59 L 13.27 5.93 L 12.95 5.29" fill="none" stroke="#111" stroke-width="1.26" stroke-linecap="round" stroke-linejoin="round"/>
<path d="M 13.0 6.0 L 12.75 6.25 L 12.5 6.5 L 12.25 6.75 L 12.0 7.0 L 11.75 7.25 L 11.5 7.5 L 11.25 7.75 L 11.0 8.0 L 10.75 8.25 L 10.5 8.5 L 10.25 8.75 L 10.0 9.0 L 9.75 9.25 L 9.5 9.5 L 9.25 9.75 L 9.0 10.0 L 8.75 10.25 L 8.5 10.5 L 8.25 10.75 L 8.0 11.0 L 7.75 11.25 L 7.5 11.5 L 7.25 11.75 L 7.0 12.0" fill="none" stroke="#111" stroke-width="1.26" stroke-linecap="round" stroke-linejoin="round"/>
<path d="M 13.0 9.0 L 12.79 9.29 L 12.58 9.58 L 12.38 9.88 L 12.17 10.17 L 11.96 10.46 L 11.75 10.75 L 11.54 11.04 L 11.33 11.33 L 11.12 11.62 L 10.92 11.92 L 10.71 12.21 L 10.5 12.5 L 10.29 12.79 L 10.08 13.08 L 9.88 13.38 L 9.67 13.67 L 9.46 13.96 L 9.25 14.25 L 9.04 14.54 L 8.83 14.83 L 8.63 15.12 L 8.42 15.42 L 8.21 15.71 L 8.0 16.0" fill="none" stroke="#111" stroke-width="1.26" stroke-linecap="round" stroke-linejoin="round"/>
<path d="M 6.0 4.0 L 6.29 4.38 L 6.58 4.75 L 6.88 5.12 L 7.17 5.5 L 7.46 5.88 L 7.75 6.25 L 8.04 6.62 L 8.33 7.0 L 8.62 7.38 L 8.92 7.75 L 9.21 8.12 L 9.5 8.5 L 9.79 8.88 L 10.08 9.25 L 10.38 9.62 L 10.67 10.0 L 10.96 10.38 L 11.25 10.75 L 11.54 11.12 L 11.83 11.5 L 12.12 11.88 L 12.42 12.25 L 12.71 12.62 L 13.0 13.0" fill="none" stroke="#111" stroke-width="1.26" stroke-linecap="round" stroke-linejoin="round"/>
<path d="M 7.0 11.0 L 7.21 11.21 L 7.42 11.42 L 7.62 11.62 L 7.83 11.83 L 8.04 12.04 L 8.25 12.25 L 8.46 12.46 L 8.67 12.67 L 8.88 12.88 L 9.08 13.08 L 9.29 13.29 L 9.5 13.5 L 9.71 13.71 L 9.92 13.92 L 10.12 14.12 L 10.33 14.33 L 10.54 14.54 L 10.75 14.75 L 10.96 14.96 L 11.17 15.17 L 11.38 15.38 L 11.58 15.58 L 11.79 15.79 L 12.0 16.0" fill="none" stroke="#111" stroke-width="1.26" stroke-linecap="round" stroke-linejoin="round"/>
<path d="M 4.0 23.0 L 4.58 22.96 L 5.17 22.92 L 5.75 22.88 L 6.33 22.83 L 6.92 22.79 L 7.5 22.75 L 8.08 22.71 L 8.67 22.67 L 9.25 22.62 L 9.83 22.58 L 10.42 22.54 L 11.0 22.5 L 11.58 22.46 L 12.17 22.42 L 12.75 22.38 L 13.33 22.33 L 13.92 22.29 L 14.5 22.25 L 15.08 22.21 L 15.67 22.17 L 16.25 22.12 L 16.83 22.08 L 17.42 22.04 L 18.0 22.0" fill="none" stroke="#111" stroke-width="1.26" stroke-linecap="round" stroke-linejoin="round"/>
<path d="M 10.0 21.0 L 10.0 21.46 L 10.0 21.92 L 10.0 22.38 L 10.0 22.83 L 10.0 23.29 L 10.0 23.75 L 10.0 24.21 L 10.0 24.67 L 10.0 25.12 L 10.0 25.58 L 10.0 26.04 L 10.0 26.5 L 10.0 26.96 L 10.0 27.42 L 10.0 27.88 L 10.0 28.33 L 10.0 28.79 L 10.0 29.25 L 10.0 29.71 L 10.0 30.17 L 10.0 30.62 L 10.0 31.08 L 10.0 31.54 L 10.0 32.0" fill="none" stroke="#111" stroke-width="1.26" stroke-linecap="round" stroke-linejoin="round"/>
</svg>
