<?xml version="1.0" encoding="UTF-8"?>
<svg xmlns="http://www.w3.org/2000/svg" viewBox="0 0 21.00 37.00">
<path d="M 5.0 16.0 L 5.33 15.96 L 5.67 15.92 L 6.0 15.88 L 6.33 15.83 L 6.67 15.79 L 7.0 15.75 L 7.33 15.71 L 7.67 15.67 L 8.0 15.62 L 8.33 15.58 L 8.67 15.54 L 9.0 15.5 L 9.33 15.46 L 9.67 15.42 L 10.0 15.38 L 10.33 15.33 L 10.67 15.29 L 11.0 15.25 L 11.33 15.21 L 11.67 15.17 L 12.0 15.12 L 12.33 15.08 L 12.67 15.04 L 13.0 15.0" fill="none" stroke="#111" stroke-width="1.30" stroke-linecap="round" stroke-linejoin="round"/>
<path d="M 5.0 15.0 L 5.16 14.64 L 5.36 14.3 L 5.59 13.98 L 5.84 13.68 L 6.12 13.4 L 6.42 13.15 L 6.74 12.92 L 7.08 12.73 L 7.44 12.56 L 7.81 12.43 L 8.19 12.33 L 8.57 12.26 L 8.97 12.23 L 9.36 12.24 L 9.75 12.27 L 10.14 12.35 L 10.52 12.45 L 10.88 12.59 L 11.24 12.76 L 11.58 12.96 L 11.89 13.19 L 12.19 13.45 L 12.46 13.73 L 12.71 14.04" fill="none" stroke="#111" stroke-width="1.30" stroke-linecap="round" stroke-linejoin="round"/>
<path d="M 5.0 16.0 L 5.23 16.41 L 5.51 16.8 L 5.82 17.16 L 6.17 17.48 L 6.54 17.77 L 6.95 18.02 L 7.38 18.23 L 7.82 18.39 L 8.28 18.5 L 8.75 18.57 L 9.23 18.59 L 9.7 18.56 L 10.17 18.49 L 10.63 18.36 L 11.07 18.19 L 11.5 17.98 L 11.9 17.72 L 12.27 17.43 L 12.61 17.1 L 12.92 16.73 L 13.18 16.34 L 13.41 15.92 L 13.59 15.49 L 13.73 15.03" fill="none" stroke="#111" stroke-width="1.30" stroke-linecap="round" stroke-linejoin="round"/>
<path d="M 9.0 12.0 L 9.0 12.29 L 9.0 12.58 L 9.0 12.88 L 9.0 13.17 L 9.0 13.46 L 9.0 13.75 L 9.0 14.04 L 9.0 14.33 L 9.0 14.62 L 9.0 14.92 L 9.0 15.21 L 9.0 15.5 L 9.0 15.79 L 9.0 16.08 L 9.0 16.38 L 9.0 16.67 L 9.0 16.96 L 9.0 17.25 L 9.0 17.54 L 9.0 17.83 L 9.0 18.12 L 9.0 18.42 L 9.0 18.71 L 9.0 19.0" fill="none" stroke="#111" stroke-width="1.30" stroke-linecap="round" stroke-linejoin="round"/>
<path d="M 4.0 4.0 L 4.0 4.12 L 4.0 4.25 L 4.0 4.38 L 4.0 4.5 L 4.0 4.62 L 4.0 4.75 L 4.0 4.88 L 4.0 5.0 L 4.0 5.12 L 4.0 5.25 L 4.0 5.38 L 4.0 5.5 L 4.0 5.62 L 4.0 5.75 L 4.0 5.88 L 4.0 6.0 L 4.0 6.12 L 4.0 6.25 L 4.0 6.38 L 4.0 6.5 L 4.0 6.62 L 4.0 6.75 L 4.0 6.88 L 4.0 7.0" fill="none" stroke="#111" stroke-width="1.30" stroke-linecap="round" stroke-linejoin="round"/>
<path d="M 4.0 4.0 L 4.17 4.0 L 4.33 4.0 L 4.5 4.0 L 4.67 4.0 L 4.83 4.0 L 5.0 4.0 L 5.17 4.0 L 5.33 4.0 L 5.5 4.0 L 5.67 4.0 L 5.83 4.0 L 6.0 4.0 L 6.17 4.0 L 6.33 4.0 L 6.5 4.0 L 6.67 4.0 L 6.83 4.0 L 7.0 4.0 L 7.17 4.0 L 7.33 4.0 L 7.5 4.0 L 7.67 4.0 L 7.83 4.0 L 8.0 4.0" fill="none" stroke="#111" stroke-width="1.30" stroke-linecap="round" stroke-linejoin="round"/>
<path d="M 8.0 4.0 L 8.0 4.12 L 8.0 4.25 L 8.0 4.38 L 8.0 4.5 L 8.0 4.62 L 8.0 4.75 L 8.0 4.88 L 8.0 5.0 L 8.0 5.12 L 8.0 5.25 L 8.0 5.38 L 8.0 5.5 L 8.0 5.62 L 8.0 5.75 L 8.0 5.88 L 8.0 6.0 L 8.0 6.12 L 8.0 6.25 L 8.0 6.38 L 8.0 6.5 L 8.0 6.62 L 8.0 6.75 L 8.0 6.88 L 8.0 7.0" fill="none" stroke="#111" stroke-width="1.30" stroke-linecap="round" stroke-linejoin="round"/>
<path d="M 4.0 7.0 L 4.12 6.96 L 4.25 6.92 L 4.38 6.88 L 4.5 6.83 L 4.62 6.79 L 4.75 6.75 L 4.88 6.71 L 5.0 6.67 L 5.12 6.62 L 5.25 6.58 L 5.38 6.54 L 5.5 6.5 L 5.62 6.46 L 5.75 6.42 L 5.88 6.38 L 6.0 6.33 L 6.12 6.29 L 6.25 6.25 L 6.38 6.21 L 6.5 6.17 L 6.62 6.12 L 6.75 6.08 L 6.88 6.04 L 7.0 6.0" fill="none" stroke="#111" stroke-width="1.30" stroke-linecap="round" stroke-linejoin="round"/>
<path d="M 6.0 7.0 L 6.12 7.21 L 6.25 7.42 L 6.38 7.62 L 6.5 7.83 L 6.62 8.04 L 6.75 8.25 L 6.88 8.46 L 7.0 8.67 L 7.12 8.88 L 7.25 9.08 L 7.38 9.29 L 7.5 9.5 L 7.62 9.71 L 7.75 9.92 L 7.88 10.12 L 8.0 10.33 L 8.12 10.54 L 8.25 10.75 L 8.38 10.96 L 8.5 11.17 L 8.62 11.38 L 8.75 11.58 L 8.88 11.79 L 9.0 12.0" fill="none" stroke="#111" stroke-width="1.30" stroke-linecap="round" stroke-linejoin="round"/>
<path d="M 11.0 6.0 L 11.0 6.12 L 11.0 6.25 L 11.0 6.38 L 11.0 6.5 L 11.0 6.62 L 11.0 6.75 L 11.0 6.88 L 11.0 7.0 L 11.0 7.12 L 11.0 7.25 L 11.0 7.38 L 11.0 7.5 L 11.0 7.62 L 11.0 7.75 L 11.0 7.88 L 11.0 8.0 L 11.0 8.12 L 11.0 8.25 L 11.0 8.38 L 11.0 8.5 L 11.0 8.62 L 11.0 8.75 L 11.0 8.88 L 11.0 9.0" fill="none" stroke="#111" stroke-width="1.30" stroke-linecap="round" stroke-linejoin="round"/>
<path d="M 11.0 6.0 L 11.08 6.0 L 11.17 6.0 L 11.25 6.0 L 11.33 6.0 L 11.42 6.0 L 11.5 6.0 L 11.58 6.0 L 11.67 6.0 L 11.75 6.0 L 11.83 6.0 L 11.92 6.0 L 12.0 6.0 L 12.08 6.0 L 12.17 6.0 L 12.25 6.0 L 12.33 6.0 L 12.42 6.0 L 12.5 6.0 L 12.58 6.0 L 12.67 6.0 L 12.75 6.0 L 12.83 6.0 L 12.92 6.0 L 13.0 6.0" fill="none" stroke="#111" stroke-width="1.30" stroke-linecap="round" stroke-linejoin="round"/>
<path d="M 13.0 6.0 L 13.0 6.08 L 13.0 6.17 L 13.0 6.25 L 13.0 6.33 L 13.0 6.42 L 13.0 6.5 L 13.0 6.58 L 13.0 6.67 L 13.0 6.75 L 13.0 6.83 L 13.0 6.92 L 13.0 7.0 L 13.0 7.08 L 13.0 7.17 L 13.0 7.25 L 13.0 7.33 L 13.0 7.42 L 13.0 7.5 L 13.0 7.58 L 13.0 7.67 L 13.0 7.75 L 13.0 7.83 L 13.0 7.92 L 13.0 8.0" fill="none" stroke="#111" stroke-width="1.30" stroke-linecap="round" stroke-linejoin="round"/>
<path d="M 11.0 7.0 L 11.08 7.04 L 11.17 7.08 L 11.25 7.12 L 11.33 7.17 L 11.42 7.21 L 11.5 7.25 L 11.58 7.29 L 11.67 7.33 L 11.75 7.38 L 11.83 7.42 L 11.92 7.46 L 12.0 7.5 L 12.08 7.54 L 12.17 7.58 L 12.25 7.62 L 12.33 7.67 L 12.42 7.71 L 12.5 7.75 L 12.58 7.79 L 12.67 7.83 L 12.75 7.88 L 12.83 7.92 L 12.92 7.96 L 13.0 8.0" fill="none" stroke="#111" stroke-width="1.30" stroke-linecap="round" stroke-linejoin="round"/>
<path d="M 12.0 8.0 L 11.92 8.12 L 11.83 8.25 L 11.75 8.38 L 11.67 8.5 L 11.58 8.62 L 11.5 8.75 L 11.42 8.88 L 11.33 9.0 L 11.25 9.12 L 11.17 9.25 L 11.08 9.38 L 11.0 9.5 L 10.92 9.62 L 10.83 9.75 L 10.75 9.88 L 10.67 10.0 L 10.58 10.12 L 10.5 10.25 L 10.42 10.38 L 10.33 10.5 L 10.25 10.62 L 10.17 10.75 L 10.08 10.88 L 10.0 11.0" fill="none" stroke="#111" stroke-width="1.30" stroke-linecap="round" stroke-linejoin="round"/>
<path d="M 9.0 19.0 L 9.0 19.12 L 9.0 19.25 L 9.0 19.38 L 9.0 19.5 L 9.0 19.62 L 9.0 19.75 L 9.0 19.88 L 9.0 20.0 L 9.0 20.12 L 9.0 20.25 L 9.0 20.38 L 9.0 20.5 L 9.0 20.62 L 9.0 20.75 L 9.0 20.88 L 9.0 21.0 L 9.0 21.12 L 9.0 21.25 L 9.0 21.38 L 9.0 21.5 L 9.0 21.62 L 9.0 21.75 L 9.0 21.88 L 9.0 22.0" fill="none" stroke="#111" stroke-width="1.30" stroke-linecap="round" stroke-linejoin="round"/>
<path d="M 9.0 22.0 L 9.21 21.96 L 9.42 21.92 L 9.62 21.88 L 9.83 21.83 L 10.04 21.79 L 10.25 21.75 L 10.46 21.71 L 10.67 21.67 L 10.88 21.62 L 11.08 21.58 L 11.29 21.54 L 11.5 21.5 L 11.71 21.46 L 11.92 21.42 L 12.12 21.38 L 12.33 21.33 L 12.54 21.29 L 12.75 21.25 L 12.96 21.21 L 13.17 21.17 L 13.38 21.12 L 13.58 21.08 L 13.79 21.04 L 14.0 21.0" fill="none" stroke="#111" stroke-width="1.30" stroke-linecap="round" stroke-linejoin="round"/>
<path d="M 11.0 19.0 L 11.25 19.08 L 11.5 19.17 L 11.75 19.25 L 12.0 19.33 L 12.25 19.42 L 12.5 19.5 L 12.75 19.58 L 13.0 19.67 L 13.25 19.75 L 13.5 19.83 L 13.75 19.92 L 14.0 20.0 L 14.25 20.08 L 14.5 20.17 L 14.75 20.25 L 15.0 20.33 L 15.25 20.42 L 15.5 20.5 L 15.75 20.58 L 16.0 20.67 L 16.25 20.75 L 16.5 20.83 L 16.75 20.92 L 17.0 21.0" fill="none" stroke="#111" stroke-width="1.30" stroke-linecap="round" stroke-linejoin="round"/>
<path d="M 13.0 21.0 L 13.0 21.17 L 13.0 21.33 L 13.0 21.5 L 13.0 21.67 L 13.0 21.83 L 13.0 22.0 L 13.0 22.17 L 13.0 22.33 L 13.0 22.5 L 13.0 22.67 L 13.0 22.83 L 13.0 23.0 L 13.0 23.17 L 13.0 23.33 L 13.0 23.5 L 13.0 23.67 L 13.0 23.83 L 13.0 24.0 L 13.0 24.17 L 13.0 24.33 L 13.0 24.5 L 13.0 24.67 L 13.0 24.83 L 13.0 25.0 L 13.0 25.0 L 12.78 24.93 L 12.56 24.89 L 12.33 24.86 L 12.11 24.84 L 11.88 24.85 L 11.65 24.88 L 11.43 24.92 L 11.21 24.98 L 10.99 25.06 L 10.79 25.16 L 10.59 25.27 L 10.4 25.4 L 10.23 25.55 L 10.06 25.71 L 9.91 25.88 L 9.77 26.06 L 9.65 26.25 L 9.55 26.45 L 9.46 26.66 L 9.39 26.88 L 9.34 27.1 L 9.3 27.33 L 9.29 27.56 L 9.29 27.78" fill="none" stroke="#111" stroke-width="1.30" stroke-linecap="round" stroke-linejoin="round"/>
<path d="M 13.0 25.0 L 12.96 25.33 L 12.92 25.67 L 12.88 26.0 L 12.83 26.33 L 12.79 26.67 L 12.75 27.0 L 12.71 27.33 L 12.67 27.67 L 12.62 28.0 L 12.58 28.33 L 12.54 28.67 L 12.5 29.0 L 12.46 29.33 L 12.42 29.67 L 12.38 30.0 L 12.33 30.33 L 12.29 30.67 L 12.25 31.0 L 12.21 31.33 L 12.17 31.67 L 12.12 32.0 L 12.08 32.33 L 12.04 32.67 L 12.0 33.0" fill="none" stroke="#111" stroke-width="1.30" stroke-linecap="round" stroke-linejoin="round"/>
<path d="M 13.0 26.0 L 13.08 26.21 L 13.17 26.42 L 13.25 26.62 L 13.33 26.83 L 13.42 27.04 L 13.5 27.25 L 13.58 27.46 L 13.67 27.67 L 13.75 27.88 L 13.83 28.08 L 13.92 28.29 L 14.0 28.5 L 14.08 28.71 L 14.17 28.92 L 14.25 29.12 L 14.33 29.33 L 14.42 29.54 L 14.5 29.75 L 14.58 29.96 L 14.67 30.17 L 14.75 30.38 L 14.83 30.58 L 14.92 30.79 L 15.0 31.0" fill="none" stroke="#111" stroke-width="1.30" stroke-linecap="round" stroke-linejoin="round"/>
</svg>
