<?xml version="1.0" encoding="UTF-8"?>
<svg xmlns="http://www.w3.org/2000/svg" viewBox="0 0 26.91 38.42">
<path d="M 13.0 6.0 L 13.04 6.57 L 13.04 7.13 L 13.0 7.7 L 12.9 8.26 L 12.77 8.81 L 12.59 9.35 L 12.36 9.88 L 12.1 10.38 L 11.8 10.86 L 11.46 11.31 L 11.08 11.74 L 10.67 12.13 L 10.23 12.49 L 9.76 12.82 L 9.27 13.1 L 8.76 13.35 L 8.23 13.55 L 7.68 13.71 L 7.13 13.83 L 6.56 13.9 L 6.0 13.92 L 5.43 13.9 L 4.86 13.84 L 4.31 13.73" fill="none" stroke="#111" stroke-width="1.34" stroke-linecap="round" stroke-linejoin="round"/>
<path d="M 13.0 11.0 L 13.35 11.26 L 13.71 11.51 L 14.08 11.74 L 14.46 11.96 L 14.84 12.16 L 15.24 12.35 L 15.64 12.52 L 16.05 12.68 L 16.46 12.82 L 16.88 12.95 L 17.3 13.06 L 17.72 13.15 L 18.15 13.23 L 18.59 13.29 L 19.02 13.33 L 19.46 13.36 L 19.89 13.37 L 20.33 13.37 L 20.76 13.34 L 21.2 13.3 L 21.63 13.25 L 22.06 13.18 L 22.49 13.09 L 22.91 12.98" fill="none" stroke="#111" stroke-width="1.34" stroke-linecap="round" stroke-linejoin="round"/>
<path d="M 7.0 4.0 L 7.04 4.25 L 7.07 4.51 L 7.09 4.76 L 7.1 5.02 L 7.11 5.28 L 7.12 5.53 L 7.11 5.79 L 7.1 6.05 L 7.08 6.3 L 7.06 6.56 L 7.02 6.81 L 6.98 7.07 L 6.94 7.32 L 6.89 7.57 L 6.83 7.82 L 6.76 8.07 L 6.69 8.32 L 6.61 8.56 L 6.53 8.8 L 6.43 9.04 L 6.34 9.28 L 6.23 9.51 L 6.12 9.75 L 6.0 9.97" fill="none" stroke="#111" stroke-width="1.34" stroke-linecap="round" stroke-linejoin="round"/>
<path d="M 8.0 6.0 L 8.04 6.08 L 8.08 6.17 L 8.12 6.25 L 8.17 6.33 L 8.21 6.42 L 8.25 6.5 L 8.29 6.58 L 8.33 6.67 L 8.38 6.75 L 8.42 6.83 L 8.46 6.92 L 8.5 7.0 L 8.54 7.08 L 8.58 7.17 L 8.62 7.25 L 8.67 7.33 L 8.71 7.42 L 8.75 7.5 L 8.79 7.58 L 8.83 7.67 L 8.88 7.75 L 8.92 7.83 L 8.96 7.92 L 9.0 8.0" fill="none" stroke="#111" stroke-width="1.34" stroke-linecap="round" stroke-linejoin="round"/>
<path d="M 4.0 6.0 L 4.04 6.17 L 4.08 6.33 L 4.12 6.5 L 4.17 6.67 L 4.21 6.83 L 4.25 7.0 L 4.29 7.17 L 4.33 7.33 L 4.38 7.5 L 4.42 7.67 L 4.46 7.83 L 4.5 8.0 L 4.54 8.17 L 4.58 8.33 L 4.62 8.5 L 4.67 8.67 L 4.71 8.83 L 4.75 9.0 L 4.79 9.17 L 4.83 9.33 L 4.88 9.5 L 4.92 9.67 L 4.96 9.83 L 5.0 10.0 L 5.0 10.0 L 5.29 10.07 L 5.59 10.12 L 5.9 10.15 L 6.2 10.15 L 6.5 10.13 L 6.8 10.08 L 7.1 10.01 L 7.39 9.92 L 7.67 9.8 L 7.94 9.66 L 8.19 9.5 L 8.44 9.32 L 8.67 9.12 L 8.88 8.91 L 9.07 8.67 L 9.25 8.43 L 9.4 8.16 L 9.54 7.89 L 9.65 7.61 L 9.74 7.32 L 9.8 7.02 L 9.84 6.72 L 9.86 6.42 L 9.85 6.12" fill="none" stroke="#111" stroke-width="1.34" stroke-linecap="round" stroke-linejoin="round"/>
<path d="M 17.0 4.0 L 17.03 4.17 L 17.06 4.35 L 17.08 4.52 L 17.1 4.7 L 17.1 4.87 L 17.11 5.05 L 17.1 5.23 L 17.09 5.4 L 17.07 5.58 L 17.04 5.75 L 17.01 5.93 L 16.97 6.1 L 16.92 6.27 L 16.87 6.44 L 16.81 6.6 L 16.75 6.77 L 16.67 6.93 L 16.6 7.09 L 16.51 7.24 L 16.42 7.4 L 16.33 7.54 L 16.23 7.69 L 16.12 7.83 L 16.01 7.97" fill="none" stroke="#111" stroke-width="1.34" stroke-linecap="round" stroke-linejoin="round"/>
<path d="M 17.0 6.0 L 17.08 6.08 L 17.17 6.17 L 17.25 6.25 L 17.33 6.33 L 17.42 6.42 L 17.5 6.5 L 17.58 6.58 L 17.67 6.67 L 17.75 6.75 L 17.83 6.83 L 17.92 6.92 L 18.0 7.0 L 18.08 7.08 L 18.17 7.17 L 18.25 7.25 L 18.33 7.33 L 18.42 7.42 L 18.5 7.5 L 18.58 7.58 L 18.67 7.67 L 18.75 7.75 L 18.83 7.83 L 18.92 7.92 L 19.0 8.0" fill="none" stroke="#111" stroke-width="1.34" stroke-linecap="round" stroke-linejoin="round"/>
<path d="M 15.0 6.0 L 14.93 6.4 L 14.92 6.8 L 14.98 7.19 L 15.09 7.58 L 15.26 7.94 L 15.48 8.28 L 15.75 8.57 L 16.06 8.83 L 16.41 9.03 L 16.78 9.18 L 17.17 9.27 L 17.57 9.3 L 17.97 9.27 L 18.36 9.18 L 18.73 9.03 L 19.08 8.83 L 19.39 8.57 L 19.66 8.28 L 19.88 7.94 L 20.05 7.58 L 20.16 7.19 L 20.21 6.8 L 20.21 6.4 L 20.14 6.0" fill="none" stroke="#111" stroke-width="1.34" stroke-linecap="round" stroke-linejoin="round"/>
<path d="M 11.0 15.0 L 10.33 15.64 L 9.71 16.34 L 9.15 17.07 L 8.64 17.85 L 8.19 18.66 L 7.8 19.5 L 7.48 20.37 L 7.22 21.26 L 7.02 22.17 L 6.9 23.09 L 6.84 24.01 L 6.85 24.94 L 6.93 25.86 L 7.08 26.78 L 7.3 27.68 L 7.58 28.57 L 7.93 29.43 L 8.34 30.26 L 8.81 31.06 L 9.34 31.82 L 9.92 32.54 L 10.56 33.22 L 11.24 33.84 L 11.97 34.42" fill="none" stroke="#111" stroke-width="1.34" stroke-linecap="round" stroke-linejoin="round"/>
<path d="M 12.0 17.0 L 12.0 17.08 L 12.0 17.17 L 12.0 17.25 L 12.0 17.33 L 12.0 17.42 L 12.0 17.5 L 12.0 17.58 L 12.0 17.67 L 12.0 17.75 L 12.0 17.83 L 12.0 17.92 L 12.0 18.0 L 12.0 18.08 L 12.0 18.17 L 12.0 18.25 L 12.0 18.33 L 12.0 18.42 L 12.0 18.5 L 12.0 18.58 L 12.0 18.67 L 12.0 18.75 L 12.0 18.83 L 12.0 18.92 L 12.0 19.0" fill="none" stroke="#111" stroke-width="1.34" stroke-linecap="round" stroke-linejoin="round"/>
<path d="M 12.0 22.0 L 12.0 22.25 L 12.0 22.5 L 12.0 22.75 L 12.0 23.0 L 12.0 23.25 L 12.0 23.5 L 12.0 23.75 L 12.0 24.0 L 12.0 24.25 L 12.0 24.5 L 12.0 24.75 L 12.0 25.0 L 12.0 25.25 L 12.0 25.5 L 12.0 25.75 L 12.0 26.0 L 12.0 26.25 L 12.0 26.5 L 12.0 26.75 L 12.0 27.0 L 12.0 27.25 L 12.0 27.5 L 12.0 27.75 L 12.0 28.0" fill="none" stroke="#111" stroke-width="1.34" stroke-linecap="round" stroke-linejoin="round"/>
<path d="M 15.0 20.0 L 15.0 20.17 L 15.0 20.33 L 15.0 20.5 L 15.0 20.67 L 15.0 20.83 L 15.0 21.0 L 15.0 21.17 L 15.0 21.33 L 15.0 21.5 L 15.0 21.67 L 15.0 21.83 L 15.0 22.0 L 15.0 22.17 L 15.0 22.33 L 15.0 22.5 L 15.0 22.67 L 15.0 22.83 L 15.0 23.0 L 15.0 23.17 L 15.0 23.33 L 15.0 23.5 L 15.0 23.67 L 15.0 23.83 L 15.0 24.0" fill="none" stroke="#111" stroke-width="1.34" stroke-linecap="round" stroke-linejoin="round"/>
<path d="M 15.0 15.0 L 15.29 15.08 L 15.58 15.17 L 15.88 15.25 L 16.17 15.33 L 16.46 15.42 L 16.75 15.5 L 17.04 15.58 L 17.33 15.67 L 17.62 15.75 L 17.92 15.83 L 18.21 15.92 L 18.5 16.0 L 18.79 16.08 L 19.08 16.17 L 19.38 16.25 L 19.67 16.33 L 19.96 16.42 L 20.25 16.5 L 20.54 16.58 L 20.83 16.67 L 21.12 16.75 L 21.42 16.83 L 21.71 16.92 L 22.0 17.0" fill="none" stroke="#111" stroke-width="1.34" stroke-linecap="round" stroke-linejoin="round"/>
<path d="M 19.0 17.0 L 19.35 17.64 L 19.65 18.29 L 19.91 18.97 L 20.11 19.67 L 20.27 20.38 L 20.37 21.09 L 20.42 21.82 L 20.42 22.54 L 20.37 23.27 L 20.27 23.98 L 20.11 24.69 L 19.91 25.39 L 19.66 26.07 L 19.35 26.73 L 19.01 27.36 L 18.61 27.97 L 18.18 28.55 L 17.7 29.1 L 17.19 29.61 L 16.64 30.08 L 16.06 30.52 L 15.45 30.91 L 14.81 31.25 L 14.15 31.55" fill="none" stroke="#111" stroke-width="1.34" stroke-linecap="round" stroke-linejoin="round"/>
</svg>
