<?xml version="1.0" encoding="UTF-8"?>
<svg xmlns="http://www.w3.org/2000/svg" viewBox="0 0 22.00 24.00">
<path d="M 4.0 4.0 L 4.04 4.67 L 4.08 5.33 L 4.12 6.0 L 4.17 6.67 L 4.21 7.33 L 4.25 8.0 L 4.29 8.67 L 4.33 9.33 L 4.38 10.0 L 4.42 10.67 L 4.46 11.33 L 4.5 12.0 L 4.54 12.67 L 4.58 13.33 L 4.62 14.0 L 4.67 14.67 L 4.71 15.33 L 4.75 16.0 L 4.79 16.67 L 4.83 17.33 L 4.88 18.0 L 4.92 18.67 L 4.96 19.33 L 5.0 20.0" fill="none" stroke="#111" stroke-width="0.84" stroke-linecap="round" stroke-linejoin="round"/>
<path d="M 4.0 4.0 L 4.58 4.0 L 5.17 4.0 L 5.75 4.0 L 6.33 4.0 L 6.92 4.0 L 7.5 4.0 L 8.08 4.0 L 8.67 4.0 L 9.25 4.0 L 9.83 4.0 L 10.42 4.0 L 11.0 4.0 L 11.58 4.0 L 12.17 4.0 L 12.75 4.0 L 13.33 4.0 L 13.92 4.0 L 14.5 4.0 L 15.08 4.0 L 15.67 4.0 L 16.25 4.0 L 16.83 4.0 L 17.42 4.0 L 18.0 4.0" fill="none" stroke="#111" stroke-width="0.84" stroke-linecap="round" stroke-linejoin="round"/>
<path d="M 18.0 4.0 L 18.0 4.62 L 18.0 5.25 L 18.0 5.88 L 18.0 6.5 L 18.0 7.12 L 18.0 7.75 L 18.0 8.38 L 18.0 9.0 L 18.0 9.62 L 18.0 10.25 L 18.0 10.88 L 18.0 11.5 L 18.0 12.12 L 18.0 12.75 L 18.0 13.38 L 18.0 14.0 L 18.0 14.62 L 18.0 15.25 L 18.0 15.88 L 18.0 16.5 L 18.0 17.12 L 18.0 17.75 L 18.0 18.38 L 18.0 19.0" fill="none" stroke="#111" stroke-width="0.84" stroke-linecap="round" stroke-linejoin="round"/>
<path d="M 5.0 20.0 L 5.5 19.96 L 6.0 19.92 L 6.5 19.88 L 7.0 19.83 L 7.5 19.79 L 8.0 19.75 L 8.5 19.71 L 9.0 19.67 L 9.5 19.62 L 10.0 19.58 L 10.5 19.54 L 11.0 19.5 L 11.5 19.46 L 12.0 19.42 L 12.5 19.38 L 13.0 19.33 L 13.5 19.29 L 14.0 19.25 L 14.5 19.21 L 15.0 19.17 L 15.5 19.12 L 16.0 19.08 L 16.5 19.04 L 17.0 19.0" fill="none" stroke="#111" stroke-width="0.84" stroke-linecap="round" stroke-linejoin="round"/>
<path d="M 6.0 13.0 L 6.29 13.0 L 6.58 13.0 L 6.88 13.0 L 7.17 13.0 L 7.46 13.0 L 7.75 13.0 L 8.04 13.0 L 8.33 13.0 L 8.62 13.0 L 8.92 13.0 L 9.21 13.0 L 9.5 13.0 L 9.79 13.0 L 10.08 13.0 L 10.38 13.0 L 10.67 13.0 L 10.96 13.0 L 11.25 13.0 L 11.54 13.0 L 11.83 13.0 L 12.12 13.0 L 12.42 13.0 L 12.71 13.0 L 13.0 13.0" fill="none" stroke="#111" stroke-width="0.84" stroke-linecap="round" stroke-linejoin="round"/>
<path d="M 9.0 9.0 L 9.0 9.33 L 9.0 9.67 L 9.0 10.0 L 9.0 10.33 L 9.0 10.67 L 9.0 11.0 L 9.0 11.33 L 9.0 11.67 L 9.0 12.0 L 9.0 12.33 L 9.0 12.67 L 9.0 13.0 L 9.0 13.33 L 9.0 13.67 L 9.0 14.0 L 9.0 14.33 L 9.0 14.67 L 9.0 15.0 L 9.0 15.33 L 9.0 15.67 L 9.0 16.0 L 9.0 16.33 L 9.0 16.67 L 9.0 17.0" fill="none" stroke="#111" stroke-width="0.84" stroke-linecap="round" stroke-linejoin="round"/>
</svg>
