<?xml version="1.0" encoding="UTF-8"?>
<svg xmlns="http://www.w3.org/2000/svg" viewBox="0 0 19.00 36.00">
<path d="M 15.0 4.0 L 14.21 4.53 L 13.46 5.1 L 12.75 5.73 L 12.08 6.39 L 11.45 7.1 L 10.87 7.85 L 10.34 8.63 L 9.86 9.45 L 9.43 10.29 L 9.06 11.16 L 8.74 12.06 L 8.48 12.97 L 8.28 13.89 L 8.14 14.83 L 8.06 15.77 L 8.04 16.72 L 8.08 17.67 L 8.18 18.61 L 8.34 19.54 L 8.56 20.46 L 8.84 21.37 L 9.18 22.25 L 9.57 23.11 L 10.01 23.95 L 10.0 24.0 L 9.75 24.33 L 9.5 24.67 L 9.25 25.0 L 9.0 25.33 L 8.75 25.67 L 8.5 26.0 L 8.25 26.33 L 8.0 26.67 L 7.75 27.0 L 7.5 27.33 L 7.25 27.67 L 7.0 28.0 L 6.75 28.33 L 6.5 28.67 L 6.25 29.0 L 6.0 29.33 L 5.75 29.67 L 5.5 30.0 L 5.25 30.33 L 5.0 30.67 L 4.75 31.0 L 4.5 31.33 L 4.25 31.67 L 4.0 32.0" fill="none" stroke="#111" stroke-width="1.26" stroke-linecap="round" stroke-linejoin="round"/>
</svg>
