<?xml version="1.0" encoding="UTF-8"?>
<svg xmlns="http://www.w3.org/2000/svg" viewBox="0 0 21.00 28.00">
<path d="M 4.0 4.0 L 4.0 4.83 L 4.0 5.67 L 4.0 6.5 L 4.0 7.33 L 4.0 8.17 L 4.0 9.0 L 4.0 9.83 L 4.0 10.67 L 4.0 11.5 L 4.0 12.33 L 4.0 13.17 L 4.0 14.0 L 4.0 14.83 L 4.0 15.67 L 4.0 16.5 L 4.0 17.33 L 4.0 18.17 L 4.0 19.0 L 4.0 19.83 L 4.0 20.67 L 4.0 21.5 L 4.0 22.33 L 4.0 23.17 L 4.0 24.0" fill="none" stroke="#111" stroke-width="0.98" stroke-linecap="round" stroke-linejoin="round"/>
<path d="M 4.0 4.0 L 4.54 4.0 L 5.08 4.0 L 5.62 4.0 L 6.17 4.0 L 6.71 4.0 L 7.25 4.0 L 7.79 4.0 L 8.33 4.0 L 8.88 4.0 L 9.42 4.0 L 9.96 4.0 L 10.5 4.0 L 11.04 4.0 L 11.58 4.0 L 12.12 4.0 L 12.67 4.0 L 13.21 4.0 L 13.75 4.0 L 14.29 4.0 L 14.83 4.0 L 15.38 4.0 L 15.92 4.0 L 16.46 4.0 L 17.0 4.0" fill="none" stroke="#111" stroke-width="0.98" stroke-linecap="round" stroke-linejoin="round"/>
<path d="M 17.0 4.0 L 17.0 4.79 L 17.0 5.58 L 17.0 6.38 L 17.0 7.17 L 17.0 7.96 L 17.0 8.75 L 17.0 9.54 L 17.0 10.33 L 17.0 11.12 L 17.0 11.92 L 17.0 12.71 L 17.0 13.5 L 17.0 14.29 L 17.0 15.08 L 17.0 15.88 L 17.0 16.67 L 17.0 17.46 L 17.0 18.25 L 17.0 19.04 L 17.0 19.83 L 17.0 20.62 L 17.0 21.42 L 17.0 22.21 L 17.0 23.0" fill="none" stroke="#111" stroke-width="0.98" stroke-linecap="round" stroke-linejoin="round"/>
<path d="M 11.0 5.0 L 10.75 5.67 L 10.5 6.33 L 10.25 7.0 L 10.0 7.67 L 9.75 8.33 L 9.5 9.0 L 9.25 9.67 L 9.0 10.33 L 8.75 11.0 L 8.5 11.67 L 8.25 12.33 L 8.0 13.0 L 7.75 13.67 L 7.5 14.33 L 7.25 15.0 L 7.0 15.67 L 6.75 16.33 L 6.5 17.0 L 6.25 17.67 L 6.0 18.33 L 5.75 19.0 L 5.5 19.67 L 5.25 20.33 L 5.0 21.0" fill="none" stroke="#111" stroke-width="0.98" stroke-linecap="round" stroke-linejoin="round"/>
<path d="M 11.0 6.0 L 11.21 6.46 L 11.42 6.92 L 11.62 7.38 L 11.83 7.83 L 12.04 8.29 L 12.25 8.75 L 12.46 9.21 L 12.67 9.67 L 12.88 10.12 L 13.08 10.58 L 13.29 11.04 L 13.5 11.5 L 13.71 11.96 L 13.92 12.42 L 14.12 12.88 L 14.33 13.33 L 14.54 13.79 L 14.75 14.25 L 14.96 14.71 L 15.17 15.17 L 15.38 15.62 L 15.58 16.08 L 15.79 16.54 L 16.0 17.0" fill="none" stroke="#111" stroke-width="0.98" stroke-linecap="round" stroke-linejoin="round"/>
</svg>
