<?xml version="1.0" encoding="UTF-8"?>
<svg xmlns="http://www.w3.org/2000/svg" viewBox="0 0 22.00 34.00">
<path d="M 13.0 4.0 L 13.04 5.04 L 13.08 6.08 L 13.12 7.12 L 13.17 8.17 L 13.21 9.21 L 13.25 10.25 L 13.29 11.29 L 13.33 12.33 L 13.38 13.38 L 13.42 14.42 L 13.46 15.46 L 13.5 16.5 L 13.54 17.54 L 13.58 18.58 L 13.62 19.62 L 13.67 20.67 L 13.71 21.71 L 13.75 22.75 L 13.79 23.79 L 13.83 24.83 L 13.87 25.88 L 13.92 26.92 L 13.96 27.96 L 14.0 29.0" fill="none" stroke="#111" stroke-width="1.19" stroke-linecap="round" stroke-linejoin="round"/>
<path d="M 13.0 13.0 L 12.71 13.33 L 12.42 13.67 L 12.12 14.0 L 11.83 14.33 L 11.54 14.67 L 11.25 15.0 L 10.96 15.33 L 10.67 15.67 L 10.38 16.0 L 10.08 16.33 L 9.79 16.67 L 9.5 17.0 L 9.21 17.33 L 8.92 17.67 L 8.62 18.0 L 8.33 18.33 L 8.04 18.67 L 7.75 19.0 L 7.46 19.33 L 7.17 19.67 L 6.88 20.0 L 6.58 20.33 L 6.29 20.67 L 6.0 21.0" fill="none" stroke="#111" stroke-width="1.19" stroke-linecap="round" stroke-linejoin="round"/>
<path d="M 10.0 9.0 L 10.04 9.21 L 10.08 9.42 L 10.12 9.62 L 10.17 9.83 L 10.21 10.04 L 10.25 10.25 L 10.29 10.46 L 10.33 10.67 L 10.38 10.88 L 10.42 11.08 L 10.46 11.29 L 10.5 11.5 L 10.54 11.71 L 10.58 11.92 L 10.62 12.12 L 10.67 12.33 L 10.71 12.54 L 10.75 12.75 L 10.79 12.96 L 10.83 13.17 L 10.88 13.38 L 10.92 13.58 L 10.96 13.79 L 11.0 14.0" fill="none" stroke="#111" stroke-width="1.19" stroke-linecap="round" stroke-linejoin="round"/>
<path d="M 16.0 7.0 L 16.04 7.21 L 16.08 7.42 L 16.12 7.62 L 16.17 7.83 L 16.21 8.04 L 16.25 8.25 L 16.29 8.46 L 16.33 8.67 L 16.38 8.88 L 16.42 9.08 L 16.46 9.29 L 16.5 9.5 L 16.54 9.71 L 16.58 9.92 L 16.62 10.12 L 16.67 10.33 L 16.71 10.54 L 16.75 10.75 L 16.79 10.96 L 16.83 11.17 L 16.88 11.38 L 16.92 11.58 L 16.96 11.79 L 17.0 12.0" fill="none" stroke="#111" stroke-width="1.19" stroke-linecap="round" stroke-linejoin="round"/>
<path d="M 17.0 15.0 L 17.04 15.33 L 17.08 15.67 L 17.12 16.0 L 17.17 16.33 L 17.21 16.67 L 17.25 17.0 L 17.29 17.33 L 17.33 17.67 L 17.38 18.0 L 17.42 18.33 L 17.46 18.67 L 17.5 19.0 L 17.54 19.33 L 17.58 19.67 L 17.62 20.0 L 17.67 20.33 L 17.71 20.67 L 17.75 21.0 L 17.79 21.33 L 17.83 21.67 L 17.88 22.0 L 17.92 22.33 L 17.96 22.67 L 18.0 23.0" fill="none" stroke="#111" stroke-width="1.19" stroke-linecap="round" stroke-linejoin="round"/>
<path d="M 12.0 19.0 L 12.0 19.25 L 12.0 19.5 L 12.0 19.75 L 12.0 20.0 L 12.0 20.25 L 12.0 20.5 L 12.0 20.75 L 12.0 21.0 L 12.0 21.25 L 12.0 21.5 L 12.0 21.75 L 12.0 22.0 L 12.0 22.25 L 12.0 22.5 L 12.0 22.75 L 12.0 23.0 L 12.0 23.25 L 12.0 23.5 L 12.0 23.75 L 12.0 24.0 L 12.0 24.25 L 12.0 24.5 L 12.0 24.75 L 12.0 25.0" fill="none" stroke="#111" stroke-width="1.19" stroke-linecap="round" stroke-linejoin="round"/>
<path d="M 7.0 4.0 L 7.4 4.57 L 7.75 5.17 L 8.07 5.79 L 8.33 6.43 L 8.56 7.09 L 8.73 7.76 L 8.86 8.45 L 8.95 9.14 L 8.98 9.83 L 8.96 10.53 L 8.9 11.22 L 8.79 11.91 L 8.63 12.59 L 8.42 13.25 L 8.16 13.9 L 7.87 14.53 L 7.53 15.13 L 7.14 15.72 L 6.72 16.27 L 6.26 16.79 L 5.77 17.28 L 5.24 17.73 L 4.68 18.15 L 4.1 18.52" fill="none" stroke="#111" stroke-width="1.19" stroke-linecap="round" stroke-linejoin="round"/>
<path d="M 4.0 26.0 L 4.25 25.79 L 4.5 25.58 L 4.75 25.38 L 5.0 25.17 L 5.25 24.96 L 5.5 24.75 L 5.75 24.54 L 6.0 24.33 L 6.25 24.12 L 6.5 23.92 L 6.75 23.71 L 7.0 23.5 L 7.25 23.29 L 7.5 23.08 L 7.75 22.88 L 8.0 22.67 L 8.25 22.46 L 8.5 22.25 L 8.75 22.04 L 9.0 21.83 L 9.25 21.62 L 9.5 21.42 L 9.75 21.21 L 10.0 21.0 L 10.0 21.0 L 10.0 21.38 L 10.0 21.75 L 10.0 22.12 L 10.0 22.5 L 10.0 22.88 L 10.0 23.25 L 10.0 23.62 L 10.0 24.0 L 10.0 24.38 L 10.0 24.75 L 10.0 25.12 L 10.0 25.5 L 10.0 25.88 L 10.0 26.25 L 10.0 26.62 L 10.0 27.0 L 10.0 27.38 L 10.0 27.75 L 10.0 28.12 L 10.0 28.5 L 10.0 28.88 L 10.0 29.25 L 10.0 29.62 L 10.0 30.0" fill="none" stroke="#111" stroke-width="1.19" stroke-linecap="round" stroke-linejoin="round"/>
</svg>
