<?xml version="1.0" encoding="UTF-8"?>
<svg xmlns="http://www.w3.org/2000/svg" viewBox="0 0 21.97 35.00">
<path d="M 17.97 4.0 L 16.68 4.36 L 15.44 4.85 L 14.25 5.46 L 13.12 6.17 L 12.06 7.0 L 11.09 7.92 L 10.22 8.93 L 9.44 10.02 L 8.78 11.18 L 8.23 12.4 L 7.8 13.66 L 7.49 14.96 L 7.31 16.29 L 7.26 17.62 L 7.34 18.96 L 7.54 20.28 L 7.88 21.57 L 8.33 22.83 L 8.91 24.04 L 9.6 25.18 L 10.39 26.26 L 11.29 27.25 L 12.28 28.15 L 13.35 28.95" fill="none" stroke="#111" stroke-width="1.23" stroke-linecap="round" stroke-linejoin="round"/>
<path d="M 4.97 8.0 L 5.38 8.23 L 5.77 8.51 L 6.13 8.82 L 6.45 9.17 L 6.74 9.54 L 6.99 9.95 L 7.2 10.38 L 7.36 10.82 L 7.47 11.28 L 7.54 11.75 L 7.56 12.23 L 7.53 12.7 L 7.46 13.17 L 7.33 13.63 L 7.16 14.07 L 6.95 14.5 L 6.69 14.9 L 6.4 15.27 L 6.07 15.61 L 5.7 15.92 L 5.31 16.18 L 4.89 16.41 L 4.45 16.59 L 4.0 16.73" fill="none" stroke="#111" stroke-width="1.23" stroke-linecap="round" stroke-linejoin="round"/>
<path d="M 7.97 12.0 L 8.39 11.96 L 8.8 11.92 L 9.22 11.88 L 9.64 11.83 L 10.05 11.79 L 10.47 11.75 L 10.89 11.71 L 11.3 11.67 L 11.72 11.62 L 12.14 11.58 L 12.55 11.54 L 12.97 11.5 L 13.39 11.46 L 13.8 11.42 L 14.22 11.38 L 14.64 11.33 L 15.05 11.29 L 15.47 11.25 L 15.89 11.21 L 16.3 11.17 L 16.72 11.12 L 17.14 11.08 L 17.55 11.04 L 17.97 11.0" fill="none" stroke="#111" stroke-width="1.23" stroke-linecap="round" stroke-linejoin="round"/>
<path d="M 8.97 31.0 L 9.34 31.0 L 9.72 31.0 L 10.09 31.0 L 10.47 31.0 L 10.84 31.0 L 11.22 31.0 L 11.59 31.0 L 11.97 31.0 L 12.34 31.0 L 12.72 31.0 L 13.09 31.0 L 13.47 31.0 L 13.84 31.0 L 14.22 31.0 L 14.59 31.0 L 14.97 31.0 L 15.34 31.0 L 15.72 31.0 L 16.09 31.0 L 16.47 31.0 L 16.84 31.0 L 17.22 31.0 L 17.59 31.0 L 17.97 31.0" fill="none" stroke="#111" stroke-width="1.23" stroke-linecap="round" stroke-linejoin="round"/>
</svg>
