<?xml version="1.0" encoding="UTF-8"?>
<svg xmlns="http://www.w3.org/2000/svg" viewBox="0 0 21.86 34.00">
<path d="M 4.0 7.0 L 4.04 7.29 L 4.08 7.58 L 4.12 7.88 L 4.17 8.17 L 4.21 8.46 L 4.25 8.75 L 4.29 9.04 L 4.33 9.33 L 4.38 9.62 L 4.42 9.92 L 4.46 10.21 L 4.5 10.5 L 4.54 10.79 L 4.58 11.08 L 4.62 11.38 L 4.67 11.67 L 4.71 11.96 L 4.75 12.25 L 4.79 12.54 L 4.83 12.83 L 4.88 13.12 L 4.92 13.42 L 4.96 13.71 L 5.0 14.0 L 5.0 14.0 L 5.44 13.63 L 5.9 13.28 L 6.37 12.94 L 6.85 12.62 L 7.34 12.31 L 7.84 12.02 L 8.35 11.75 L 8.86 11.5 L 9.39 11.27 L 9.93 11.05 L 10.47 10.85 L 11.02 10.67 L 11.57 10.51 L 12.13 10.37 L 12.69 10.25 L 13.26 10.15 L 13.83 10.06 L 14.41 10.0 L 14.98 9.96 L 15.56 9.94 L 16.14 9.93 L 16.71 9.95 L 17.29 9.99 L 17.86 10.04" fill="none" stroke="#111" stroke-width="1.19" stroke-linecap="round" stroke-linejoin="round"/>
<path d="M 14.0 10.0 L 13.58 9.88 L 13.17 9.75 L 12.75 9.62 L 12.33 9.5 L 11.92 9.38 L 11.5 9.25 L 11.08 9.12 L 10.67 9.0 L 10.25 8.88 L 9.83 8.75 L 9.42 8.62 L 9.0 8.5 L 8.58 8.38 L 8.17 8.25 L 7.75 8.13 L 7.33 8.0 L 6.92 7.88 L 6.5 7.75 L 6.08 7.63 L 5.67 7.5 L 5.25 7.38 L 4.83 7.25 L 4.42 7.13 L 4.0 7.0" fill="none" stroke="#111" stroke-width="1.19" stroke-linecap="round" stroke-linejoin="round"/>
<path d="M 14.0 4.0 L 14.0 5.08 L 14.0 6.17 L 14.0 7.25 L 14.0 8.33 L 14.0 9.42 L 14.0 10.5 L 14.0 11.58 L 14.0 12.67 L 14.0 13.75 L 14.0 14.83 L 14.0 15.92 L 14.0 17.0 L 14.0 18.08 L 14.0 19.17 L 14.0 20.25 L 14.0 21.33 L 14.0 22.42 L 14.0 23.5 L 14.0 24.58 L 14.0 25.67 L 14.0 26.75 L 14.0 27.83 L 14.0 28.92 L 14.0 30.0" fill="none" stroke="#111" stroke-width="1.19" stroke-linecap="round" stroke-linejoin="round"/>
<path d="M 10.0 30.0 L 10.29 30.0 L 10.58 30.0 L 10.88 30.0 L 11.17 30.0 L 11.46 30.0 L 11.75 30.0 L 12.04 30.0 L 12.33 30.0 L 12.62 30.0 L 12.92 30.0 L 13.21 30.0 L 13.5 30.0 L 13.79 30.0 L 14.08 30.0 L 14.38 30.0 L 14.67 30.0 L 14.96 30.0 L 15.25 30.0 L 15.54 30.0 L 15.83 30.0 L 16.12 30.0 L 16.42 30.0 L 16.71 30.0 L 17.0 30.0" fill="none" stroke="#111" stroke-width="1.19" stroke-linecap="round" stroke-linejoin="round"/>
<path d="M 5.0 19.0 L 5.17 19.0 L 5.33 19.0 L 5.5 19.0 L 5.67 19.0 L 5.83 19.0 L 6.0 19.0 L 6.17 19.0 L 6.33 19.0 L 6.5 19.0 L 6.67 19.0 L 6.83 19.0 L 7.0 19.0 L 7.17 19.0 L 7.33 19.0 L 7.5 19.0 L 7.67 19.0 L 7.83 19.0 L 8.0 19.0 L 8.17 19.0 L 8.33 19.0 L 8.5 19.0 L 8.67 19.0 L 8.83 19.0 L 9.0 19.0 L 9.0 19.0 L 9.0 19.17 L 9.0 19.33 L 9.0 19.5 L 9.0 19.67 L 9.0 19.83 L 9.0 20.0 L 9.0 20.17 L 9.0 20.33 L 9.0 20.5 L 9.0 20.67 L 9.0 20.83 L 9.0 21.0 L 9.0 21.17 L 9.0 21.33 L 9.0 21.5 L 9.0 21.67 L 9.0 21.83 L 9.0 22.0 L 9.0 22.17 L 9.0 22.33 L 9.0 22.5 L 9.0 22.67 L 9.0 22.83 L 9.0 23.0 L 9.0 23.0 L 8.83 23.0 L 8.67 23.0 L 8.5 23.0 L 8.33 23.0 L 8.17 23.0 L 8.0 23.0 L 7.83 23.0 L 7.67 23.0 L 7.5 23.0 L 7.33 23.0 L 7.17 23.0 L 7.0 23.0 L 6.83 23.0 L 6.67 23.0 L 6.5 23.0 L 6.33 23.0 L 6.17 23.0 L 6.0 23.0 L 5.83 23.0 L 5.67 23.0 L 5.5 23.0 L 5.33 23.0 L 5.17 23.0 L 5.0 23.0 L 5.0 23.0 L 5.0 22.83 L 5.0 22.67 L 5.0 22.5 L 5.0 22.33 L 5.0 22.17 L 5.0 22.0 L 5.0 21.83 L 5.0 21.67 L 5.0 21.5 L 5.0 21.33 L 5.0 21.17 L 5.0 21.0 L 5.0 20.83 L 5.0 20.67 L 5.0 20.5 L 5.0 20.33 L 5.0 20.17 L 5.0 20.0 L 5.0 19.83 L 5.0 19.67 L 5.0 19.5 L 5.0 19.33 L 5.0 19.17 L 5.0 19.0" fill="none" stroke="#111" stroke-width="1.19" stroke-linecap="round" stroke-linejoin="round"/>
</svg>
