<?xml version="1.0" encoding="UTF-8"?>
<svg xmlns="http://www.w3.org/2000/svg" viewBox="0 0 23.64 36.00">
<path d="M 12.64 5.0 L 12.21 5.82 L 11.84 6.67 L 11.53 7.55 L 11.29 8.44 L 11.12 9.35 L 11.01 10.27 L 10.96 11.2 L 10.99 12.12 L 11.08 13.04 L 11.24 13.96 L 11.46 14.86 L 11.75 15.74 L 12.1 16.59 L 12.51 17.42 L 12.99 18.22 L 13.51 18.98 L 14.1 19.7 L 14.73 20.38 L 15.41 21.01 L 16.14 21.59 L 16.9 22.11 L 17.7 22.58 L 18.53 22.98 L 19.39 23.33" fill="none" stroke="#111" stroke-width="1.26" stroke-linecap="round" stroke-linejoin="round"/>
<path d="M 19.64 24.0 L 19.64 24.17 L 19.64 24.33 L 19.64 24.5 L 19.64 24.67 L 19.64 24.83 L 19.64 25.0 L 19.64 25.17 L 19.64 25.33 L 19.64 25.5 L 19.64 25.67 L 19.64 25.83 L 19.64 26.0 L 19.64 26.17 L 19.64 26.33 L 19.64 26.5 L 19.64 26.67 L 19.64 26.83 L 19.64 27.0 L 19.64 27.17 L 19.64 27.33 L 19.64 27.5 L 19.64 27.67 L 19.64 27.83 L 19.64 28.0 L 19.64 28.0 L 19.31 27.79 L 18.97 27.58 L 18.64 27.38 L 18.31 27.17 L 17.97 26.96 L 17.64 26.75 L 17.31 26.54 L 16.97 26.33 L 16.64 26.12 L 16.31 25.92 L 15.97 25.71 L 15.64 25.5 L 15.31 25.29 L 14.97 25.08 L 14.64 24.88 L 14.31 24.67 L 13.97 24.46 L 13.64 24.25 L 13.31 24.04 L 12.97 23.83 L 12.64 23.62 L 12.31 23.42 L 11.97 23.21 L 11.64 23.0 L 11.64 23.0 L 11.76 23.38 L 11.89 23.75 L 12.01 24.12 L 12.14 24.5 L 12.26 24.88 L 12.39 25.25 L 12.51 25.62 L 12.64 26.0 L 12.76 26.38 L 12.89 26.75 L 13.01 27.12 L 13.14 27.5 L 13.26 27.88 L 13.39 28.25 L 13.51 28.62 L 13.64 29.0 L 13.76 29.38 L 13.89 29.75 L 14.01 30.12 L 14.14 30.5 L 14.26 30.88 L 14.39 31.25 L 14.51 31.62 L 14.64 32.0" fill="none" stroke="#111" stroke-width="1.26" stroke-linecap="round" stroke-linejoin="round"/>
<path d="M 7.64 4.0 L 7.68 4.67 L 7.72 5.33 L 7.76 6.0 L 7.81 6.67 L 7.85 7.33 L 7.89 8.0 L 7.93 8.67 L 7.97 9.33 L 8.01 10.0 L 8.06 10.67 L 8.1 11.33 L 8.14 12.0 L 8.18 12.67 L 8.22 13.33 L 8.26 14.0 L 8.31 14.67 L 8.35 15.33 L 8.39 16.0 L 8.43 16.67 L 8.47 17.33 L 8.51 18.0 L 8.56 18.67 L 8.6 19.33 L 8.64 20.0" fill="none" stroke="#111" stroke-width="1.26" stroke-linecap="round" stroke-linejoin="round"/>
<path d="M 13.64 10.0 L 14.09 10.32 L 14.52 10.67 L 14.94 11.04 L 15.33 11.43 L 15.7 11.84 L 16.05 12.27 L 16.37 12.72 L 16.67 13.19 L 16.94 13.67 L 17.19 14.17 L 17.4 14.68 L 17.59 15.2 L 17.75 15.73 L 17.88 16.27 L 17.99 16.81 L 18.06 17.36 L 18.1 17.91 L 18.11 18.47 L 18.09 19.02 L 18.04 19.57 L 17.96 20.12 L 17.86 20.66 L 17.72 21.2 L 17.55 21.73" fill="none" stroke="#111" stroke-width="1.26" stroke-linecap="round" stroke-linejoin="round"/>
<path d="M 4.64 13.0 L 4.47 13.32 L 4.32 13.64 L 4.2 13.98 L 4.11 14.33 L 4.05 14.68 L 4.01 15.04 L 4.0 15.39 L 4.02 15.75 L 4.07 16.11 L 4.14 16.46 L 4.24 16.8 L 4.37 17.14 L 4.52 17.46 L 4.7 17.77 L 4.91 18.07 L 5.13 18.35 L 5.38 18.61 L 5.64 18.85 L 5.93 19.07 L 6.23 19.26 L 6.54 19.43 L 6.87 19.58 L 7.21 19.7 L 7.55 19.79" fill="none" stroke="#111" stroke-width="1.26" stroke-linecap="round" stroke-linejoin="round"/>
<path d="M 7.64 12.0 L 7.42 12.6 L 7.22 13.21 L 7.01 13.81 L 6.82 14.42 L 6.64 15.03 L 6.46 15.65 L 6.29 16.27 L 6.13 16.88 L 5.98 17.5 L 5.83 18.13 L 5.69 18.75 L 5.56 19.38 L 5.44 20.0 L 5.33 20.63 L 5.22 21.26 L 5.13 21.9 L 5.04 22.53 L 4.96 23.16 L 4.88 23.8 L 4.82 24.43 L 4.76 25.07 L 4.71 25.71 L 4.67 26.35 L 4.64 26.99" fill="none" stroke="#111" stroke-width="1.26" stroke-linecap="round" stroke-linejoin="round"/>
</svg>
