<?xml version="1.0" encoding="UTF-8"?>
<svg xmlns="http://www.w3.org/2000/svg" viewBox="0 0 23.00 44.48">
<path d="M 4.0 4.0 L 4.62 4.0 L 5.25 4.0 L 5.88 4.0 L 6.5 4.0 L 7.12 4.0 L 7.75 4.0 L 8.38 4.0 L 9.0 4.0 L 9.62 4.0 L 10.25 4.0 L 10.88 4.0 L 11.5 4.0 L 12.12 4.0 L 12.75 4.0 L 13.38 4.0 L 14.0 4.0 L 14.62 4.0 L 15.25 4.0 L 15.88 4.0 L 16.5 4.0 L 17.12 4.0 L 17.75 4.0 L 18.38 4.0 L 19.0 4.0 L 19.0 4.0 L 17.14 4.62 L 15.35 5.42 L 13.65 6.39 L 12.05 7.52 L 10.58 8.81 L 9.24 10.24 L 8.04 11.79 L 7.01 13.45 L 6.14 15.21 L 5.45 17.04 L 4.95 18.94 L 4.64 20.87 L 4.52 22.83 L 4.59 24.78 L 4.86 26.72 L 5.32 28.63 L 5.96 30.48 L 6.79 32.26 L 7.78 33.94 L 8.94 35.52 L 10.25 36.98 L 11.7 38.3 L 13.27 39.47 L 14.95 40.48" fill="none" stroke="#111" stroke-width="1.56" stroke-linecap="round" stroke-linejoin="round"/>
</svg>
