<?xml version="1.0" encoding="UTF-8"?>
<svg xmlns="http://www.w3.org/2000/svg" viewBox="0 0 22.70 29.93">
<path d="M 11.7 15.0 L 11.76 15.38 L 11.78 15.76 L 11.77 16.15 L 11.72 16.53 L 11.64 16.9 L 11.53 17.27 L 11.38 17.63 L 11.21 17.97 L 11.0 18.29 L 10.77 18.6 L 10.51 18.88 L 10.22 19.14 L 9.92 19.37 L 9.59 19.58 L 9.25 19.75 L 8.89 19.9 L 8.53 20.01 L 8.15 20.09 L 7.77 20.13 L 7.38 20.14 L 7.0 20.12 L 6.62 20.06 L 6.25 19.97 L 5.88 19.85" fill="none" stroke="#111" stroke-width="1.05" stroke-linecap="round" stroke-linejoin="round"/>
<path d="M 10.7 17.0 L 10.84 17.31 L 11.01 17.61 L 11.19 17.9 L 11.39 18.18 L 11.61 18.45 L 11.84 18.7 L 12.09 18.94 L 12.36 19.15 L 12.63 19.36 L 12.92 19.54 L 13.23 19.7 L 13.54 19.85 L 13.86 19.97 L 14.18 20.08 L 14.52 20.16 L 14.85 20.22 L 15.2 20.27 L 15.54 20.28 L 15.88 20.28 L 16.22 20.26 L 16.56 20.21 L 16.9 20.14 L 17.23 20.05 L 17.56 19.94" fill="none" stroke="#111" stroke-width="1.05" stroke-linecap="round" stroke-linejoin="round"/>
<path d="M 6.7 4.0 L 6.62 4.17 L 6.53 4.33 L 6.45 4.5 L 6.37 4.67 L 6.28 4.83 L 6.2 5.0 L 6.12 5.17 L 6.03 5.33 L 5.95 5.5 L 5.87 5.67 L 5.78 5.83 L 5.7 6.0 L 5.62 6.17 L 5.53 6.33 L 5.45 6.5 L 5.37 6.67 L 5.28 6.83 L 5.2 7.0 L 5.12 7.17 L 5.03 7.33 L 4.95 7.5 L 4.87 7.67 L 4.78 7.83 L 4.7 8.0 L 4.7 8.0 L 5.01 8.14 L 5.31 8.29 L 5.6 8.48 L 5.87 8.68 L 6.13 8.9 L 6.37 9.14 L 6.59 9.4 L 6.78 9.68 L 6.96 9.97 L 7.12 10.27 L 7.25 10.59 L 7.35 10.91 L 7.43 11.24 L 7.49 11.58 L 7.52 11.91 L 7.52 12.25 L 7.5 12.59 L 7.45 12.93 L 7.37 13.26 L 7.27 13.59 L 7.15 13.9 L 7.0 14.21 L 6.83 14.5 L 6.64 14.78 L 6.7 15.0 L 6.62 14.88 L 6.53 14.75 L 6.45 14.62 L 6.37 14.5 L 6.28 14.38 L 6.2 14.25 L 6.12 14.12 L 6.03 14.0 L 5.95 13.88 L 5.87 13.75 L 5.78 13.62 L 5.7 13.5 L 5.62 13.38 L 5.53 13.25 L 5.45 13.12 L 5.37 13.0 L 5.28 12.88 L 5.2 12.75 L 5.12 12.62 L 5.03 12.5 L 4.95 12.38 L 4.87 12.25 L 4.78 12.12 L 4.7 12.0 L 4.7 12.0 L 5.11 11.91 L 5.5 11.78 L 5.88 11.62 L 6.25 11.41 L 6.59 11.18 L 6.91 10.91 L 7.2 10.61 L 7.47 10.29 L 7.69 9.94 L 7.89 9.57 L 8.05 9.18 L 8.17 8.78 L 8.25 8.38 L 8.29 7.96 L 8.29 7.54 L 8.25 7.13 L 8.18 6.72 L 8.06 6.32 L 7.9 5.93 L 7.71 5.56 L 7.49 5.21 L 7.23 4.89 L 6.94 4.59 L 6.62 4.31" fill="none" stroke="#111" stroke-width="1.05" stroke-linecap="round" stroke-linejoin="round"/>
<path d="M 4.7 16.0 L 4.34 16.88 L 4.1 17.81 L 4.0 18.75 L 4.03 19.71 L 4.18 20.65 L 4.47 21.56 L 4.88 22.42 L 5.4 23.22 L 6.03 23.93 L 6.75 24.56 L 7.55 25.08 L 8.42 25.48 L 9.33 25.76 L 10.27 25.91 L 11.22 25.93 L 12.17 25.82 L 13.09 25.58 L 13.97 25.21 L 14.8 24.73 L 15.54 24.14 L 16.2 23.45 L 16.76 22.67 L 17.2 21.83 L 17.53 20.93 L 17.7 21.0 L 17.74 20.75 L 17.78 20.5 L 17.82 20.25 L 17.87 20.0 L 17.91 19.75 L 17.95 19.5 L 17.99 19.25 L 18.03 19.0 L 18.07 18.75 L 18.12 18.5 L 18.16 18.25 L 18.2 18.0 L 18.24 17.75 L 18.28 17.5 L 18.32 17.25 L 18.37 17.0 L 18.41 16.75 L 18.45 16.5 L 18.49 16.25 L 18.53 16.0 L 18.57 15.75 L 18.62 15.5 L 18.66 15.25 L 18.7 15.0" fill="none" stroke="#111" stroke-width="1.05" stroke-linecap="round" stroke-linejoin="round"/>
<path d="M 15.7 4.0 L 15.39 4.25 L 15.11 4.52 L 14.85 4.82 L 14.62 5.14 L 14.42 5.47 L 14.25 5.83 L 14.11 6.2 L 14.01 6.58 L 13.94 6.96 L 13.9 7.35 L 13.9 7.75 L 13.93 8.14 L 13.99 8.53 L 14.09 8.91 L 14.23 9.28 L 14.39 9.63 L 14.59 9.97 L 14.81 10.3 L 15.06 10.6 L 15.34 10.87 L 15.64 11.13 L 15.97 11.35 L 16.31 11.55 L 16.66 11.71 L 16.7 12.0 L 16.62 12.12 L 16.53 12.25 L 16.45 12.38 L 16.37 12.5 L 16.28 12.62 L 16.2 12.75 L 16.12 12.88 L 16.03 13.0 L 15.95 13.12 L 15.87 13.25 L 15.78 13.38 L 15.7 13.5 L 15.62 13.62 L 15.53 13.75 L 15.45 13.88 L 15.37 14.0 L 15.28 14.12 L 15.2 14.25 L 15.12 14.38 L 15.03 14.5 L 14.95 14.62 L 14.87 14.75 L 14.78 14.88 L 14.7 15.0 L 14.7 15.0 L 14.49 14.68 L 14.31 14.35 L 14.15 14.0 L 14.01 13.65 L 13.9 13.29 L 13.82 12.91 L 13.76 12.54 L 13.73 12.16 L 13.73 11.78 L 13.76 11.4 L 13.81 11.02 L 13.89 10.65 L 13.99 10.29 L 14.12 9.93 L 14.28 9.58 L 14.46 9.25 L 14.67 8.93 L 14.89 8.62 L 15.14 8.34 L 15.41 8.07 L 15.69 7.82 L 16.0 7.59 L 16.32 7.38 L 16.65 7.2 L 16.7 7.0 L 16.62 6.92 L 16.53 6.83 L 16.45 6.75 L 16.37 6.67 L 16.28 6.58 L 16.2 6.5 L 16.12 6.42 L 16.03 6.33 L 15.95 6.25 L 15.87 6.17 L 15.78 6.08 L 15.7 6.0 L 15.62 5.92 L 15.53 5.83 L 15.45 5.75 L 15.37 5.67 L 15.28 5.58 L 15.2 5.5 L 15.12 5.42 L 15.03 5.33 L 14.95 5.25 L 14.87 5.17 L 14.78 5.08 L 14.7 5.0" fill="none" stroke="#111" stroke-width="1.05" stroke-linecap="round" stroke-linejoin="round"/>
</svg>
