<?xml version="1.0" encoding="UTF-8"?>
<svg xmlns="http://www.w3.org/2000/svg" viewBox="0 0 26.82 34.41">
<path d="M 12.0 4.0 L 12.29 4.0 L 12.58 4.0 L 12.88 4.0 L 13.17 4.0 L 13.46 4.0 L 13.75 4.0 L 14.04 4.0 L 14.33 4.0 L 14.62 4.0 L 14.92 4.0 L 15.21 4.0 L 15.5 4.0 L 15.79 4.0 L 16.08 4.0 L 16.38 4.0 L 16.67 4.0 L 16.96 4.0 L 17.25 4.0 L 17.54 4.0 L 17.83 4.0 L 18.12 4.0 L 18.42 4.0 L 18.71 4.0 L 19.0 4.0 L 19.0 4.0 L 18.27 4.63 L 17.6 5.32 L 16.97 6.05 L 16.41 6.83 L 15.9 7.65 L 15.45 8.5 L 15.07 9.39 L 14.75 10.3 L 14.5 11.23 L 14.33 12.17 L 14.22 13.13 L 14.18 14.09 L 14.22 15.06 L 14.33 16.01 L 14.5 16.96 L 14.75 17.89 L 15.07 18.8 L 15.45 19.69 L 15.9 20.54 L 16.41 21.36 L 16.97 22.13 L 17.6 22.87 L 18.27 23.55 L 19.0 24.19" fill="none" stroke="#111" stroke-width="1.20" stroke-linecap="round" stroke-linejoin="round"/>
<path d="M 4.0 16.0 L 4.17 16.0 L 4.33 16.0 L 4.5 16.0 L 4.67 16.0 L 4.83 16.0 L 5.0 16.0 L 5.17 16.0 L 5.33 16.0 L 5.5 16.0 L 5.67 16.0 L 5.83 16.0 L 6.0 16.0 L 6.17 16.0 L 6.33 16.0 L 6.5 16.0 L 6.67 16.0 L 6.83 16.0 L 7.0 16.0 L 7.17 16.0 L 7.33 16.0 L 7.5 16.0 L 7.67 16.0 L 7.83 16.0 L 8.0 16.0" fill="none" stroke="#111" stroke-width="1.20" stroke-linecap="round" stroke-linejoin="round"/>
<path d="M 14.0 16.0 L 14.25 16.0 L 14.5 16.0 L 14.75 16.0 L 15.0 16.0 L 15.25 16.0 L 15.5 16.0 L 15.75 16.0 L 16.0 16.0 L 16.25 16.0 L 16.5 16.0 L 16.75 16.0 L 17.0 16.0 L 17.25 16.0 L 17.5 16.0 L 17.75 16.0 L 18.0 16.0 L 18.25 16.0 L 18.5 16.0 L 18.75 16.0 L 19.0 16.0 L 19.25 16.0 L 19.5 16.0 L 19.75 16.0 L 20.0 16.0" fill="none" stroke="#111" stroke-width="1.20" stroke-linecap="round" stroke-linejoin="round"/>
<path d="M 6.0 16.0 L 5.19 17.45 L 4.66 19.03 L 4.41 20.68 L 4.47 22.34 L 4.82 23.97 L 5.47 25.5 L 6.37 26.9 L 7.52 28.11 L 8.86 29.09 L 10.36 29.82 L 11.96 30.26 L 13.62 30.41 L 15.27 30.26 L 16.88 29.82 L 18.38 29.09 L 19.72 28.11 L 20.86 26.9 L 21.77 25.5 L 22.41 23.97 L 22.77 22.34 L 22.82 20.68 L 22.58 19.03 L 22.04 17.45 L 21.23 16.0" fill="none" stroke="#111" stroke-width="1.20" stroke-linecap="round" stroke-linejoin="round"/>
<path d="M 6.0 22.0 L 6.5 22.0 L 7.0 22.0 L 7.5 22.0 L 8.0 22.0 L 8.5 22.0 L 9.0 22.0 L 9.5 22.0 L 10.0 22.0 L 10.5 22.0 L 11.0 22.0 L 11.5 22.0 L 12.0 22.0 L 12.5 22.0 L 13.0 22.0 L 13.5 22.0 L 14.0 22.0 L 14.5 22.0 L 15.0 22.0 L 15.5 22.0 L 16.0 22.0 L 16.5 22.0 L 17.0 22.0 L 17.5 22.0 L 18.0 22.0" fill="none" stroke="#111" stroke-width="1.20" stroke-linecap="round" stroke-linejoin="round"/>
<path d="M 7.0 22.0 L 7.42 22.29 L 7.83 22.58 L 8.25 22.88 L 8.67 23.17 L 9.08 23.46 L 9.5 23.75 L 9.92 24.04 L 10.33 24.33 L 10.75 24.62 L 11.17 24.92 L 11.58 25.21 L 12.0 25.5 L 12.42 25.79 L 12.83 26.08 L 13.25 26.38 L 13.67 26.67 L 14.08 26.96 L 14.5 27.25 L 14.92 27.54 L 15.33 27.83 L 15.75 28.12 L 16.17 28.42 L 16.58 28.71 L 17.0 29.0" fill="none" stroke="#111" stroke-width="1.20" stroke-linecap="round" stroke-linejoin="round"/>
<path d="M 18.0 22.0 L 17.58 22.33 L 17.17 22.67 L 16.75 23.0 L 16.33 23.33 L 15.92 23.67 L 15.5 24.0 L 15.08 24.33 L 14.67 24.67 L 14.25 25.0 L 13.83 25.33 L 13.42 25.67 L 13.0 26.0 L 12.58 26.33 L 12.17 26.67 L 11.75 27.0 L 11.33 27.33 L 10.92 27.67 L 10.5 28.0 L 10.08 28.33 L 9.67 28.67 L 9.25 29.0 L 8.83 29.33 L 8.42 29.67 L 8.0 30.0" fill="none" stroke="#111" stroke-width="1.20" stroke-linecap="round" stroke-linejoin="round"/>
</svg>
