<?xml version="1.0" encoding="UTF-8"?>
<svg xmlns="http://www.w3.org/2000/svg" viewBox="0 0 26.69 36.86">
<path d="M 10.35 4.86 L 10.51 5.11 L 10.68 5.36 L 10.85 5.61 L 11.01 5.86 L 11.18 6.11 L 11.35 6.36 L 11.51 6.61 L 11.68 6.86 L 11.85 7.11 L 12.01 7.36 L 12.18 7.61 L 12.35 7.86 L 12.51 8.11 L 12.68 8.36 L 12.85 8.61 L 13.01 8.86 L 13.18 9.11 L 13.35 9.36 L 13.51 9.61 L 13.68 9.86 L 13.85 10.11 L 14.01 10.36 L 14.18 10.61 L 14.35 10.86 L 14.35 10.86 L 14.23 10.53 L 14.14 10.2 L 14.08 9.87 L 14.03 9.52 L 14.0 9.18 L 14.0 8.84 L 14.02 8.5 L 14.06 8.16 L 14.12 7.82 L 14.21 7.48 L 14.31 7.16 L 14.43 6.84 L 14.58 6.53 L 14.74 6.23 L 14.93 5.93 L 15.13 5.66 L 15.35 5.39 L 15.58 5.14 L 15.84 4.91 L 16.1 4.69 L 16.38 4.49 L 16.67 4.31 L 16.97 4.14 L 17.28 4.0" fill="none" stroke="#111" stroke-width="1.29" stroke-linecap="round" stroke-linejoin="round"/>
<path d="M 7.35 6.86 L 7.71 7.44 L 8.12 7.99 L 8.58 8.49 L 9.09 8.95 L 9.65 9.35 L 10.23 9.71 L 10.85 10.0 L 11.49 10.24 L 12.16 10.41 L 12.83 10.52 L 13.52 10.56 L 14.2 10.54 L 14.88 10.46 L 15.55 10.31 L 16.2 10.1 L 16.83 9.83 L 17.43 9.5 L 17.99 9.11 L 18.52 8.67 L 19.0 8.18 L 19.44 7.65 L 19.82 7.09 L 20.14 6.48 L 20.41 5.85" fill="none" stroke="#111" stroke-width="1.29" stroke-linecap="round" stroke-linejoin="round"/>
<path d="M 5.35 31.86 L 4.95 30.89 L 4.62 29.9 L 4.36 28.9 L 4.17 27.87 L 4.05 26.83 L 4.0 25.79 L 4.03 24.75 L 4.12 23.71 L 4.29 22.68 L 4.53 21.67 L 4.84 20.67 L 5.22 19.7 L 5.66 18.76 L 6.17 17.84 L 6.74 16.97 L 7.37 16.14 L 8.05 15.35 L 8.79 14.62 L 9.58 13.93 L 10.41 13.3 L 11.28 12.73 L 12.19 12.23 L 13.14 11.78 L 14.11 11.41 L 14.35 10.86 L 15.21 11.35 L 16.04 11.9 L 16.84 12.5 L 17.59 13.14 L 18.31 13.84 L 18.98 14.58 L 19.6 15.36 L 20.16 16.17 L 20.68 17.02 L 21.14 17.91 L 21.54 18.82 L 21.89 19.75 L 22.17 20.71 L 22.4 21.68 L 22.56 22.66 L 22.66 23.65 L 22.69 24.64 L 22.66 25.64 L 22.57 26.63 L 22.42 27.61 L 22.2 28.59 L 21.92 29.54 L 21.59 30.48 L 21.19 31.39" fill="none" stroke="#111" stroke-width="1.29" stroke-linecap="round" stroke-linejoin="round"/>
<path d="M 6.35 19.86 L 6.87 19.55 L 7.4 19.26 L 7.95 19.0 L 8.51 18.77 L 9.08 18.56 L 9.66 18.38 L 10.25 18.23 L 10.84 18.1 L 11.44 18.0 L 12.05 17.93 L 12.65 17.89 L 13.26 17.87 L 13.86 17.89 L 14.47 17.93 L 15.07 18.0 L 15.67 18.1 L 16.27 18.23 L 16.85 18.38 L 17.43 18.56 L 18.0 18.77 L 18.56 19.0 L 19.11 19.26 L 19.65 19.55 L 20.17 19.86" fill="none" stroke="#111" stroke-width="1.29" stroke-linecap="round" stroke-linejoin="round"/>
<path d="M 5.35 21.86 L 5.9 22.33 L 6.49 22.76 L 7.1 23.16 L 7.74 23.51 L 8.4 23.82 L 9.08 24.08 L 9.77 24.3 L 10.48 24.47 L 11.2 24.59 L 11.92 24.67 L 12.65 24.7 L 13.38 24.68 L 14.1 24.61 L 14.82 24.49 L 15.53 24.32 L 16.23 24.11 L 16.91 23.85 L 17.57 23.55 L 18.21 23.2 L 18.83 22.81 L 19.42 22.39 L 19.98 21.92 L 20.51 21.42 L 21.0 20.88" fill="none" stroke="#111" stroke-width="1.29" stroke-linecap="round" stroke-linejoin="round"/>
<path d="M 14.35 10.86 L 14.3 11.77 L 14.26 12.69 L 14.22 13.61 L 14.18 14.52 L 14.14 15.44 L 14.1 16.36 L 14.05 17.27 L 14.01 18.19 L 13.97 19.11 L 13.93 20.02 L 13.89 20.94 L 13.85 21.86 L 13.8 22.77 L 13.76 23.69 L 13.72 24.61 L 13.68 25.52 L 13.64 26.44 L 13.6 27.36 L 13.55 28.27 L 13.51 29.19 L 13.47 30.11 L 13.43 31.02 L 13.39 31.94 L 13.35 32.86" fill="none" stroke="#111" stroke-width="1.29" stroke-linecap="round" stroke-linejoin="round"/>
</svg>
