<?xml version="1.0" encoding="UTF-8"?>
<svg xmlns="http://www.w3.org/2000/svg" viewBox="0 0 17.15 34.79">
<path d="M 12.0 4.0 L 11.67 4.38 L 11.33 4.75 L 11.0 5.12 L 10.67 5.5 L 10.33 5.88 L 10.0 6.25 L 9.67 6.62 L 9.33 7.0 L 9.0 7.38 L 8.67 7.75 L 8.33 8.12 L 8.0 8.5 L 7.67 8.88 L 7.33 9.25 L 7.0 9.62 L 6.67 10.0 L 6.33 10.38 L 6.0 10.75 L 5.67 11.12 L 5.33 11.5 L 5.0 11.88 L 4.67 12.25 L 4.33 12.62 L 4.0 13.0" fill="none" stroke="#111" stroke-width="1.22" stroke-linecap="round" stroke-linejoin="round"/>
<path d="M 6.0 5.0 L 6.95 5.57 L 7.85 6.22 L 8.68 6.96 L 9.44 7.77 L 10.12 8.64 L 10.71 9.58 L 11.21 10.57 L 11.62 11.6 L 11.93 12.66 L 12.14 13.75 L 12.25 14.86 L 12.25 15.97 L 12.14 17.07 L 11.94 18.16 L 11.63 19.23 L 11.23 20.26 L 10.73 21.25 L 10.14 22.19 L 9.46 23.07 L 8.71 23.88 L 7.88 24.62 L 6.98 25.27 L 6.03 25.84 L 5.03 26.32" fill="none" stroke="#111" stroke-width="1.22" stroke-linecap="round" stroke-linejoin="round"/>
<path d="M 6.0 15.0 L 6.63 15.43 L 7.24 15.88 L 7.83 16.37 L 8.39 16.88 L 8.92 17.42 L 9.43 17.99 L 9.91 18.58 L 10.36 19.19 L 10.78 19.83 L 11.17 20.48 L 11.53 21.16 L 11.85 21.85 L 12.14 22.55 L 12.39 23.27 L 12.61 24.0 L 12.79 24.74 L 12.93 25.49 L 13.04 26.24 L 13.11 27.0 L 13.15 27.76 L 13.14 28.52 L 13.1 29.28 L 13.02 30.04 L 12.91 30.79" fill="none" stroke="#111" stroke-width="1.22" stroke-linecap="round" stroke-linejoin="round"/>
</svg>
