<?xml version="1.0" encoding="UTF-8"?>
<svg xmlns="http://www.w3.org/2000/svg" viewBox="0 0 23.00 39.95">
<path d="M 5.0 5.0 L 5.46 4.96 L 5.92 4.92 L 6.38 4.88 L 6.83 4.83 L 7.29 4.79 L 7.75 4.75 L 8.21 4.71 L 8.67 4.67 L 9.12 4.62 L 9.58 4.58 L 10.04 4.54 L 10.5 4.5 L 10.96 4.46 L 11.42 4.42 L 11.88 4.38 L 12.33 4.33 L 12.79 4.29 L 13.25 4.25 L 13.71 4.21 L 14.17 4.17 L 14.62 4.12 L 15.08 4.08 L 15.54 4.04 L 16.0 4.0" fill="none" stroke="#111" stroke-width="1.40" stroke-linecap="round" stroke-linejoin="round"/>
<path d="M 5.0 9.0 L 5.48 8.84 L 5.96 8.69 L 6.45 8.56 L 6.94 8.43 L 7.43 8.31 L 7.92 8.2 L 8.42 8.11 L 8.92 8.02 L 9.41 7.94 L 9.91 7.87 L 10.42 7.81 L 10.92 7.77 L 11.42 7.73 L 11.93 7.7 L 12.43 7.69 L 12.94 7.68 L 13.44 7.69 L 13.95 7.7 L 14.45 7.73 L 14.96 7.76 L 15.46 7.81 L 15.96 7.86 L 16.46 7.93 L 16.96 8.0" fill="none" stroke="#111" stroke-width="1.40" stroke-linecap="round" stroke-linejoin="round"/>
<path d="M 7.0 5.0 L 7.17 5.29 L 7.33 5.58 L 7.5 5.88 L 7.67 6.17 L 7.83 6.46 L 8.0 6.75 L 8.17 7.04 L 8.33 7.33 L 8.5 7.62 L 8.67 7.92 L 8.83 8.21 L 9.0 8.5 L 9.17 8.79 L 9.33 9.08 L 9.5 9.38 L 9.67 9.67 L 9.83 9.96 L 10.0 10.25 L 10.17 10.54 L 10.33 10.83 L 10.5 11.12 L 10.67 11.42 L 10.83 11.71 L 11.0 12.0 L 11.0 12.0 L 11.12 11.67 L 11.25 11.33 L 11.38 11.0 L 11.5 10.67 L 11.62 10.33 L 11.75 10.0 L 11.88 9.67 L 12.0 9.33 L 12.12 9.0 L 12.25 8.67 L 12.38 8.33 L 12.5 8.0 L 12.62 7.67 L 12.75 7.33 L 12.88 7.0 L 13.0 6.67 L 13.12 6.33 L 13.25 6.0 L 13.38 5.67 L 13.5 5.33 L 13.62 5.0 L 13.75 4.67 L 13.88 4.33 L 14.0 4.0" fill="none" stroke="#111" stroke-width="1.40" stroke-linecap="round" stroke-linejoin="round"/>
<path d="M 5.0 13.0 L 5.58 12.96 L 6.17 12.92 L 6.75 12.88 L 7.33 12.83 L 7.92 12.79 L 8.5 12.75 L 9.08 12.71 L 9.67 12.67 L 10.25 12.62 L 10.83 12.58 L 11.42 12.54 L 12.0 12.5 L 12.58 12.46 L 13.17 12.42 L 13.75 12.38 L 14.33 12.33 L 14.92 12.29 L 15.5 12.25 L 16.08 12.21 L 16.67 12.17 L 17.25 12.12 L 17.83 12.08 L 18.42 12.04 L 19.0 12.0" fill="none" stroke="#111" stroke-width="1.40" stroke-linecap="round" stroke-linejoin="round"/>
<path d="M 4.0 13.0 L 4.12 13.21 L 4.25 13.42 L 4.38 13.62 L 4.5 13.83 L 4.62 14.04 L 4.75 14.25 L 4.88 14.46 L 5.0 14.67 L 5.12 14.88 L 5.25 15.08 L 5.38 15.29 L 5.5 15.5 L 5.62 15.71 L 5.75 15.92 L 5.88 16.12 L 6.0 16.33 L 6.12 16.54 L 6.25 16.75 L 6.38 16.96 L 6.5 17.17 L 6.62 17.38 L 6.75 17.58 L 6.88 17.79 L 7.0 18.0 L 7.0 18.0 L 6.61 18.77 L 6.26 19.55 L 5.97 20.36 L 5.74 21.19 L 5.55 22.03 L 5.42 22.88 L 5.35 23.74 L 5.33 24.6 L 5.37 25.46 L 5.46 26.31 L 5.61 27.16 L 5.81 28.0 L 6.07 28.82 L 6.38 29.62 L 6.74 30.4 L 7.15 31.16 L 7.61 31.88 L 8.12 32.58 L 8.67 33.24 L 9.26 33.87 L 9.89 34.45 L 10.55 35.0 L 11.25 35.5 L 11.99 35.95" fill="none" stroke="#111" stroke-width="1.40" stroke-linecap="round" stroke-linejoin="round"/>
<path d="M 6.0 26.0 L 6.21 26.17 L 6.42 26.33 L 6.62 26.5 L 6.83 26.67 L 7.04 26.83 L 7.25 27.0 L 7.46 27.17 L 7.67 27.33 L 7.88 27.5 L 8.08 27.67 L 8.29 27.83 L 8.5 28.0 L 8.71 28.17 L 8.92 28.33 L 9.12 28.5 L 9.33 28.67 L 9.54 28.83 L 9.75 29.0 L 9.96 29.17 L 10.17 29.33 L 10.38 29.5 L 10.58 29.67 L 10.79 29.83 L 11.0 30.0" fill="none" stroke="#111" stroke-width="1.40" stroke-linecap="round" stroke-linejoin="round"/>
<path d="M 12.0 23.0 L 12.44 23.04 L 12.88 23.04 L 13.32 22.97 L 13.75 22.86 L 14.16 22.69 L 14.55 22.48 L 14.91 22.22 L 15.23 21.92 L 15.52 21.58 L 15.76 21.21 L 15.96 20.81 L 16.11 20.39 L 16.2 19.96 L 16.25 19.52 L 16.24 19.07 L 16.17 18.64 L 16.05 18.21 L 15.89 17.8 L 15.67 17.41 L 15.41 17.05 L 15.11 16.73 L 14.77 16.44 L 14.4 16.2 L 14.0 16.01 L 14.0 16.0 L 13.6 16.66 L 13.24 17.34 L 12.91 18.04 L 12.62 18.75 L 12.37 19.48 L 12.15 20.22 L 11.98 20.97 L 11.84 21.73 L 11.75 22.49 L 11.69 23.26 L 11.68 24.03 L 11.7 24.8 L 11.77 25.57 L 11.87 26.33 L 12.02 27.09 L 12.2 27.84 L 12.43 28.58 L 12.69 29.3 L 12.99 30.01 L 13.32 30.7 L 13.7 31.38 L 14.1 32.03 L 14.54 32.67 L 15.02 33.27 L 15.0 33.0 L 15.45 32.65 L 15.85 32.25 L 16.2 31.81 L 16.5 31.33 L 16.75 30.82 L 16.93 30.28 L 17.05 29.73 L 17.11 29.16 L 17.1 28.6 L 17.02 28.04 L 16.89 27.49 L 16.69 26.96 L 16.43 26.45 L 16.11 25.98 L 15.74 25.55 L 15.33 25.17 L 14.87 24.83 L 14.38 24.55 L 13.86 24.33 L 13.32 24.16 L 12.76 24.07 L 12.19 24.03 L 11.63 24.06 L 11.07 24.16" fill="none" stroke="#111" stroke-width="1.40" stroke-linecap="round" stroke-linejoin="round"/>
</svg>
