<?xml version="1.0" encoding="UTF-8"?>
<svg xmlns="http://www.w3.org/2000/svg" viewBox="0 0 25.15 25.00">
<path d="M 4.0 4.0 L 4.3 4.38 L 4.57 4.77 L 4.83 5.18 L 5.06 5.6 L 5.28 6.03 L 5.47 6.47 L 5.64 6.92 L 5.79 7.38 L 5.92 7.84 L 6.02 8.31 L 6.1 8.79 L 6.15 9.26 L 6.18 9.74 L 6.19 10.22 L 6.18 10.71 L 6.14 11.18 L 6.07 11.66 L 5.99 12.13 L 5.87 12.6 L 5.74 13.06 L 5.59 13.52 L 5.41 13.97 L 5.21 14.4 L 4.98 14.83 L 5.0 15.0 L 5.12 15.21 L 5.25 15.42 L 5.38 15.62 L 5.5 15.83 L 5.62 16.04 L 5.75 16.25 L 5.88 16.46 L 6.0 16.67 L 6.12 16.88 L 6.25 17.08 L 6.38 17.29 L 6.5 17.5 L 6.62 17.71 L 6.75 17.92 L 6.88 18.12 L 7.0 18.33 L 7.12 18.54 L 7.25 18.75 L 7.38 18.96 L 7.5 19.17 L 7.62 19.38 L 7.75 19.58 L 7.88 19.79 L 8.0 20.0" fill="none" stroke="#111" stroke-width="0.88" stroke-linecap="round" stroke-linejoin="round"/>
<path d="M 8.0 6.0 L 7.34 7.04 L 6.88 8.18 L 6.63 9.38 L 6.62 10.61 L 6.83 11.82 L 7.27 12.98 L 7.91 14.03 L 8.73 14.94 L 9.71 15.69 L 10.81 16.24 L 11.99 16.58 L 13.22 16.69 L 14.44 16.58 L 15.62 16.24 L 16.72 15.69 L 17.7 14.94 L 18.52 14.03 L 19.16 12.98 L 19.6 11.82 L 19.81 10.61 L 19.8 9.38 L 19.56 8.18 L 19.1 7.04 L 18.43 6.0" fill="none" stroke="#111" stroke-width="0.88" stroke-linecap="round" stroke-linejoin="round"/>
<path d="M 9.0 11.0 L 9.33 11.0 L 9.67 11.0 L 10.0 11.0 L 10.33 11.0 L 10.67 11.0 L 11.0 11.0 L 11.33 11.0 L 11.67 11.0 L 12.0 11.0 L 12.33 11.0 L 12.67 11.0 L 13.0 11.0 L 13.33 11.0 L 13.67 11.0 L 14.0 11.0 L 14.33 11.0 L 14.67 11.0 L 15.0 11.0 L 15.33 11.0 L 15.67 11.0 L 16.0 11.0 L 16.33 11.0 L 16.67 11.0 L 17.0 11.0" fill="none" stroke="#111" stroke-width="0.88" stroke-linecap="round" stroke-linejoin="round"/>
<path d="M 9.0 8.0 L 9.33 8.0 L 9.67 8.0 L 10.0 8.0 L 10.33 8.0 L 10.67 8.0 L 11.0 8.0 L 11.33 8.0 L 11.67 8.0 L 12.0 8.0 L 12.33 8.0 L 12.67 8.0 L 13.0 8.0 L 13.33 8.0 L 13.67 8.0 L 14.0 8.0 L 14.33 8.0 L 14.67 8.0 L 15.0 8.0 L 15.33 8.0 L 15.67 8.0 L 16.0 8.0 L 16.33 8.0 L 16.67 8.0 L 17.0 8.0" fill="none" stroke="#111" stroke-width="0.88" stroke-linecap="round" stroke-linejoin="round"/>
<path d="M 13.0 5.0 L 13.0 5.42 L 13.0 5.83 L 13.0 6.25 L 13.0 6.67 L 13.0 7.08 L 13.0 7.5 L 13.0 7.92 L 13.0 8.33 L 13.0 8.75 L 13.0 9.17 L 13.0 9.58 L 13.0 10.0 L 13.0 10.42 L 13.0 10.83 L 13.0 11.25 L 13.0 11.67 L 13.0 12.08 L 13.0 12.5 L 13.0 12.92 L 13.0 13.33 L 13.0 13.75 L 13.0 14.17 L 13.0 14.58 L 13.0 15.0" fill="none" stroke="#111" stroke-width="0.88" stroke-linecap="round" stroke-linejoin="round"/>
<path d="M 20.0 4.0 L 20.18 4.39 L 20.35 4.78 L 20.5 5.18 L 20.63 5.58 L 20.75 5.99 L 20.86 6.4 L 20.95 6.82 L 21.02 7.24 L 21.08 7.66 L 21.12 8.09 L 21.14 8.51 L 21.15 8.94 L 21.14 9.37 L 21.12 9.79 L 21.08 10.22 L 21.02 10.64 L 20.95 11.06 L 20.86 11.48 L 20.75 11.89 L 20.63 12.3 L 20.5 12.7 L 20.35 13.1 L 20.18 13.49 L 20.0 13.88 L 20.0 14.0 L 20.04 14.29 L 20.08 14.58 L 20.12 14.88 L 20.17 15.17 L 20.21 15.46 L 20.25 15.75 L 20.29 16.04 L 20.33 16.33 L 20.38 16.62 L 20.42 16.92 L 20.46 17.21 L 20.5 17.5 L 20.54 17.79 L 20.58 18.08 L 20.62 18.38 L 20.67 18.67 L 20.71 18.96 L 20.75 19.25 L 20.79 19.54 L 20.83 19.83 L 20.88 20.12 L 20.92 20.42 L 20.96 20.71 L 21.0 21.0" fill="none" stroke="#111" stroke-width="0.88" stroke-linecap="round" stroke-linejoin="round"/>
</svg>
