<?xml version="1.0" encoding="UTF-8"?>
<svg xmlns="http://www.w3.org/2000/svg" viewBox="0 0 21.19 37.00">
<path d="M 4.0 4.0 L 4.04 5.08 L 4.08 6.17 L 4.12 7.25 L 4.17 8.33 L 4.21 9.42 L 4.25 10.5 L 4.29 11.58 L 4.33 12.67 L 4.38 13.75 L 4.42 14.83 L 4.46 15.92 L 4.5 17.0 L 4.54 18.08 L 4.58 19.17 L 4.63 20.25 L 4.67 21.33 L 4.71 22.42 L 4.75 23.5 L 4.79 24.58 L 4.83 25.67 L 4.88 26.75 L 4.92 27.83 L 4.96 28.92 L 5.0 30.0" fill="none" stroke="#111" stroke-width="1.30" stroke-linecap="round" stroke-linejoin="round"/>
<path d="M 4.0 7.0 L 4.17 7.04 L 4.33 7.08 L 4.5 7.12 L 4.67 7.17 L 4.83 7.21 L 5.0 7.25 L 5.17 7.29 L 5.33 7.33 L 5.5 7.38 L 5.67 7.42 L 5.83 7.46 L 6.0 7.5 L 6.17 7.54 L 6.33 7.58 L 6.5 7.62 L 6.67 7.67 L 6.83 7.71 L 7.0 7.75 L 7.17 7.79 L 7.33 7.83 L 7.5 7.88 L 7.67 7.92 L 7.83 7.96 L 8.0 8.0 L 8.0 8.0 L 8.25 8.43 L 8.51 8.86 L 8.79 9.27 L 9.08 9.68 L 9.38 10.07 L 9.7 10.46 L 10.03 10.83 L 10.37 11.2 L 10.72 11.55 L 11.09 11.89 L 11.47 12.21 L 11.86 12.52 L 12.25 12.82 L 12.66 13.11 L 13.08 13.38 L 13.51 13.64 L 13.94 13.88 L 14.39 14.11 L 14.84 14.32 L 15.3 14.52 L 15.76 14.7 L 16.23 14.87 L 16.71 15.01 L 17.19 15.15" fill="none" stroke="#111" stroke-width="1.30" stroke-linecap="round" stroke-linejoin="round"/>
<path d="M 4.0 15.0 L 4.21 14.96 L 4.42 14.92 L 4.62 14.88 L 4.83 14.83 L 5.04 14.79 L 5.25 14.75 L 5.46 14.71 L 5.67 14.67 L 5.88 14.62 L 6.08 14.58 L 6.29 14.54 L 6.5 14.5 L 6.71 14.46 L 6.92 14.42 L 7.12 14.38 L 7.33 14.33 L 7.54 14.29 L 7.75 14.25 L 7.96 14.21 L 8.17 14.17 L 8.38 14.12 L 8.58 14.08 L 8.79 14.04 L 9.0 14.0" fill="none" stroke="#111" stroke-width="1.30" stroke-linecap="round" stroke-linejoin="round"/>
<path d="M 11.0 16.0 L 10.88 16.12 L 10.75 16.25 L 10.62 16.38 L 10.5 16.5 L 10.38 16.62 L 10.25 16.75 L 10.12 16.88 L 10.0 17.0 L 9.88 17.12 L 9.75 17.25 L 9.62 17.38 L 9.5 17.5 L 9.38 17.62 L 9.25 17.75 L 9.12 17.88 L 9.0 18.0 L 8.88 18.12 L 8.75 18.25 L 8.62 18.38 L 8.5 18.5 L 8.38 18.62 L 8.25 18.75 L 8.12 18.88 L 8.0 19.0 L 8.0 19.0 L 8.19 19.37 L 8.44 19.71 L 8.74 20.0 L 9.08 20.24 L 9.46 20.42 L 9.86 20.54 L 10.27 20.59 L 10.69 20.57 L 11.1 20.48 L 11.49 20.32 L 11.84 20.11 L 12.16 19.84 L 12.43 19.52 L 12.65 19.16 L 12.8 18.77 L 12.89 18.37 L 12.91 17.95 L 12.86 17.53 L 12.74 17.13 L 12.56 16.75 L 12.32 16.41 L 12.03 16.11 L 11.7 15.87 L 11.32 15.68" fill="none" stroke="#111" stroke-width="1.30" stroke-linecap="round" stroke-linejoin="round"/>
<path d="M 7.0 21.0 L 7.12 21.17 L 7.25 21.33 L 7.38 21.5 L 7.5 21.67 L 7.62 21.83 L 7.75 22.0 L 7.88 22.17 L 8.0 22.33 L 8.12 22.5 L 8.25 22.67 L 8.38 22.83 L 8.5 23.0 L 8.62 23.17 L 8.75 23.33 L 8.88 23.5 L 9.0 23.67 L 9.12 23.83 L 9.25 24.0 L 9.38 24.17 L 9.5 24.33 L 9.62 24.5 L 9.75 24.67 L 9.88 24.83 L 10.0 25.0" fill="none" stroke="#111" stroke-width="1.30" stroke-linecap="round" stroke-linejoin="round"/>
<path d="M 16.0 19.0 L 15.79 19.21 L 15.58 19.42 L 15.38 19.62 L 15.17 19.83 L 14.96 20.04 L 14.75 20.25 L 14.54 20.46 L 14.33 20.67 L 14.12 20.88 L 13.92 21.08 L 13.71 21.29 L 13.5 21.5 L 13.29 21.71 L 13.08 21.92 L 12.88 22.12 L 12.67 22.33 L 12.46 22.54 L 12.25 22.75 L 12.04 22.96 L 11.83 23.17 L 11.62 23.38 L 11.42 23.58 L 11.21 23.79 L 11.0 24.0" fill="none" stroke="#111" stroke-width="1.30" stroke-linecap="round" stroke-linejoin="round"/>
<path d="M 10.0 21.0 L 10.0 21.5 L 10.0 22.0 L 10.0 22.5 L 10.0 23.0 L 10.0 23.5 L 10.0 24.0 L 10.0 24.5 L 10.0 25.0 L 10.0 25.5 L 10.0 26.0 L 10.0 26.5 L 10.0 27.0 L 10.0 27.5 L 10.0 28.0 L 10.0 28.5 L 10.0 29.0 L 10.0 29.5 L 10.0 30.0 L 10.0 30.5 L 10.0 31.0 L 10.0 31.5 L 10.0 32.0 L 10.0 32.5 L 10.0 33.0" fill="none" stroke="#111" stroke-width="1.30" stroke-linecap="round" stroke-linejoin="round"/>
</svg>
