<?xml version="1.0" encoding="UTF-8"?>
<svg xmlns="http://www.w3.org/2000/svg" viewBox="0 0 21.17 28.00">
<path d="M 6.69 4.0 L 6.18 4.49 L 5.73 5.02 L 5.32 5.59 L 4.96 6.19 L 4.65 6.82 L 4.41 7.48 L 4.22 8.15 L 4.09 8.84 L 4.02 9.54 L 4.02 10.24 L 4.07 10.94 L 4.19 11.63 L 4.37 12.31 L 4.6 12.97 L 4.89 13.61 L 5.24 14.22 L 5.64 14.8 L 6.09 15.33 L 6.58 15.83 L 7.12 16.28 L 7.69 16.69 L 8.3 17.04 L 8.94 17.33 L 9.6 17.57" fill="none" stroke="#111" stroke-width="0.98" stroke-linecap="round" stroke-linejoin="round"/>
<path d="M 7.69 4.0 L 7.73 4.29 L 7.77 4.58 L 7.81 4.88 L 7.85 5.17 L 7.9 5.46 L 7.94 5.75 L 7.98 6.04 L 8.02 6.33 L 8.06 6.62 L 8.1 6.92 L 8.15 7.21 L 8.19 7.5 L 8.23 7.79 L 8.27 8.08 L 8.31 8.38 L 8.35 8.67 L 8.4 8.96 L 8.44 9.25 L 8.48 9.54 L 8.52 9.83 L 8.56 10.12 L 8.6 10.42 L 8.65 10.71 L 8.69 11.0 L 8.69 11.0 L 8.1 11.25 L 7.54 11.55 L 7.0 11.9 L 6.5 12.29 L 6.04 12.73 L 5.62 13.2 L 5.24 13.71 L 4.9 14.26 L 4.62 14.83 L 4.39 15.42 L 4.21 16.03 L 4.08 16.66 L 4.01 17.29 L 4.0 17.93 L 4.04 18.56 L 4.14 19.19 L 4.3 19.81 L 4.51 20.41 L 4.77 20.99 L 5.08 21.55 L 5.44 22.07 L 5.84 22.57 L 6.29 23.02 L 6.77 23.43 L 6.69 24.0 L 6.81 23.75 L 6.94 23.5 L 7.06 23.25 L 7.19 23.0 L 7.31 22.75 L 7.44 22.5 L 7.56 22.25 L 7.69 22.0 L 7.81 21.75 L 7.94 21.5 L 8.06 21.25 L 8.19 21.0 L 8.31 20.75 L 8.44 20.5 L 8.56 20.25 L 8.69 20.0 L 8.81 19.75 L 8.94 19.5 L 9.06 19.25 L 9.19 19.0 L 9.31 18.75 L 9.44 18.5 L 9.56 18.25 L 9.69 18.0" fill="none" stroke="#111" stroke-width="0.98" stroke-linecap="round" stroke-linejoin="round"/>
<path d="M 15.69 4.0 L 15.52 4.29 L 15.35 4.58 L 15.19 4.88 L 15.02 5.17 L 14.85 5.46 L 14.69 5.75 L 14.52 6.04 L 14.35 6.33 L 14.19 6.62 L 14.02 6.92 L 13.85 7.21 L 13.69 7.5 L 13.52 7.79 L 13.35 8.08 L 13.19 8.38 L 13.02 8.67 L 12.85 8.96 L 12.69 9.25 L 12.52 9.54 L 12.35 9.83 L 12.19 10.12 L 12.02 10.42 L 11.85 10.71 L 11.69 11.0 L 11.69 11.0 L 12.32 11.18 L 12.94 11.41 L 13.53 11.7 L 14.09 12.05 L 14.62 12.45 L 15.1 12.89 L 15.55 13.38 L 15.94 13.9 L 16.29 14.46 L 16.58 15.05 L 16.82 15.67 L 17.0 16.3 L 17.11 16.95 L 17.17 17.61 L 17.17 18.27 L 17.1 18.92 L 16.98 19.57 L 16.79 20.2 L 16.55 20.81 L 16.25 21.4 L 15.89 21.96 L 15.49 22.48 L 15.04 22.96 L 14.55 23.4 L 14.69 24.0 L 14.24 23.63 L 13.83 23.22 L 13.45 22.78 L 13.11 22.32 L 12.81 21.82 L 12.55 21.3 L 12.34 20.76 L 12.17 20.21 L 12.05 19.64 L 11.98 19.06 L 11.95 18.48 L 11.98 17.9 L 12.05 17.33 L 12.17 16.76 L 12.33 16.21 L 12.55 15.67 L 12.8 15.15 L 13.1 14.65 L 13.44 14.18 L 13.82 13.74 L 14.24 13.34 L 14.68 12.97 L 15.16 12.63 L 15.66 12.34 L 15.69 12.0 L 15.69 11.67 L 15.69 11.33 L 15.69 11.0 L 15.69 10.67 L 15.69 10.33 L 15.69 10.0 L 15.69 9.67 L 15.69 9.33 L 15.69 9.0 L 15.69 8.67 L 15.69 8.33 L 15.69 8.0 L 15.69 7.67 L 15.69 7.33 L 15.69 7.0 L 15.69 6.67 L 15.69 6.33 L 15.69 6.0 L 15.69 5.67 L 15.69 5.33 L 15.69 5.0 L 15.69 4.67 L 15.69 4.33 L 15.69 4.0" fill="none" stroke="#111" stroke-width="0.98" stroke-linecap="round" stroke-linejoin="round"/>
</svg>
