<?xml version="1.0" encoding="UTF-8"?>
<svg xmlns="http://www.w3.org/2000/svg" viewBox="0 0 25.00 34.00">
<path d="M 8.0 4.0 L 7.88 4.25 L 7.75 4.5 L 7.62 4.75 L 7.5 5.0 L 7.38 5.25 L 7.25 5.5 L 7.12 5.75 L 7.0 6.0 L 6.88 6.25 L 6.75 6.5 L 6.62 6.75 L 6.5 7.0 L 6.38 7.25 L 6.25 7.5 L 6.12 7.75 L 6.0 8.0 L 5.88 8.25 L 5.75 8.5 L 5.62 8.75 L 5.5 9.0 L 5.38 9.25 L 5.25 9.5 L 5.12 9.75 L 5.0 10.0" fill="none" stroke="#111" stroke-width="1.19" stroke-linecap="round" stroke-linejoin="round"/>
<path d="M 7.0 7.0 L 7.46 7.83 L 7.92 8.67 L 8.38 9.5 L 8.83 10.33 L 9.29 11.17 L 9.75 12.0 L 10.21 12.83 L 10.67 13.67 L 11.12 14.5 L 11.58 15.33 L 12.04 16.17 L 12.5 17.0 L 12.96 17.83 L 13.42 18.67 L 13.87 19.5 L 14.33 20.33 L 14.79 21.17 L 15.25 22.0 L 15.71 22.83 L 16.17 23.67 L 16.62 24.5 L 17.08 25.33 L 17.54 26.17 L 18.0 27.0" fill="none" stroke="#111" stroke-width="1.19" stroke-linecap="round" stroke-linejoin="round"/>
<path d="M 16.0 29.0 L 16.21 28.79 L 16.42 28.58 L 16.62 28.38 L 16.83 28.17 L 17.04 27.96 L 17.25 27.75 L 17.46 27.54 L 17.67 27.33 L 17.88 27.12 L 18.08 26.92 L 18.29 26.71 L 18.5 26.5 L 18.71 26.29 L 18.92 26.08 L 19.12 25.88 L 19.33 25.67 L 19.54 25.46 L 19.75 25.25 L 19.96 25.04 L 20.17 24.83 L 20.38 24.62 L 20.58 24.42 L 20.79 24.21 L 21.0 24.0" fill="none" stroke="#111" stroke-width="1.19" stroke-linecap="round" stroke-linejoin="round"/>
<path d="M 14.0 4.0 L 14.25 4.21 L 14.5 4.42 L 14.75 4.62 L 15.0 4.83 L 15.25 5.04 L 15.5 5.25 L 15.75 5.46 L 16.0 5.67 L 16.25 5.88 L 16.5 6.08 L 16.75 6.29 L 17.0 6.5 L 17.25 6.71 L 17.5 6.92 L 17.75 7.12 L 18.0 7.33 L 18.25 7.54 L 18.5 7.75 L 18.75 7.96 L 19.0 8.17 L 19.25 8.38 L 19.5 8.58 L 19.75 8.79 L 20.0 9.0" fill="none" stroke="#111" stroke-width="1.19" stroke-linecap="round" stroke-linejoin="round"/>
<path d="M 17.0 6.0 L 16.58 6.88 L 16.17 7.75 L 15.75 8.62 L 15.33 9.5 L 14.92 10.38 L 14.5 11.25 L 14.08 12.12 L 13.67 13.0 L 13.25 13.88 L 12.83 14.75 L 12.42 15.62 L 12.0 16.5 L 11.58 17.38 L 11.17 18.25 L 10.75 19.12 L 10.33 20.0 L 9.92 20.88 L 9.5 21.75 L 9.08 22.62 L 8.67 23.5 L 8.25 24.38 L 7.83 25.25 L 7.42 26.12 L 7.0 27.0" fill="none" stroke="#111" stroke-width="1.19" stroke-linecap="round" stroke-linejoin="round"/>
<path d="M 4.0 25.0 L 4.21 25.21 L 4.42 25.42 L 4.62 25.62 L 4.83 25.83 L 5.04 26.04 L 5.25 26.25 L 5.46 26.46 L 5.67 26.67 L 5.88 26.88 L 6.08 27.08 L 6.29 27.29 L 6.5 27.5 L 6.71 27.71 L 6.92 27.92 L 7.12 28.12 L 7.33 28.33 L 7.54 28.54 L 7.75 28.75 L 7.96 28.96 L 8.17 29.17 L 8.38 29.38 L 8.58 29.58 L 8.79 29.79 L 9.0 30.0" fill="none" stroke="#111" stroke-width="1.19" stroke-linecap="round" stroke-linejoin="round"/>
</svg>
