<?xml version="1.0" encoding="UTF-8"?>
<svg xmlns="http://www.w3.org/2000/svg" viewBox="0 0 27.00 33.93">
<path d="M 4.0 12.0 L 4.38 12.0 L 4.75 12.0 L 5.12 12.0 L 5.5 12.0 L 5.88 12.0 L 6.25 12.0 L 6.62 12.0 L 7.0 12.0 L 7.38 12.0 L 7.75 12.0 L 8.12 12.0 L 8.5 12.0 L 8.88 12.0 L 9.25 12.0 L 9.62 12.0 L 10.0 12.0 L 10.38 12.0 L 10.75 12.0 L 11.12 12.0 L 11.5 12.0 L 11.88 12.0 L 12.25 12.0 L 12.62 12.0 L 13.0 12.0" fill="none" stroke="#111" stroke-width="1.19" stroke-linecap="round" stroke-linejoin="round"/>
<path d="M 5.0 12.0 L 5.04 12.21 L 5.08 12.42 L 5.12 12.62 L 5.17 12.83 L 5.21 13.04 L 5.25 13.25 L 5.29 13.46 L 5.33 13.67 L 5.38 13.88 L 5.42 14.08 L 5.46 14.29 L 5.5 14.5 L 5.54 14.71 L 5.58 14.92 L 5.62 15.12 L 5.67 15.33 L 5.71 15.54 L 5.75 15.75 L 5.79 15.96 L 5.83 16.17 L 5.88 16.38 L 5.92 16.58 L 5.96 16.79 L 6.0 17.0 L 6.0 17.0 L 5.97 17.39 L 5.96 17.77 L 5.96 18.16 L 5.98 18.55 L 6.01 18.94 L 6.05 19.32 L 6.11 19.7 L 6.19 20.09 L 6.27 20.46 L 6.38 20.84 L 6.49 21.21 L 6.62 21.57 L 6.76 21.93 L 6.92 22.29 L 7.09 22.64 L 7.27 22.98 L 7.47 23.31 L 7.67 23.64 L 7.89 23.96 L 8.12 24.27 L 8.37 24.58 L 8.62 24.87 L 8.88 25.15 L 9.16 25.43" fill="none" stroke="#111" stroke-width="1.19" stroke-linecap="round" stroke-linejoin="round"/>
<path d="M 13.0 12.0 L 12.92 12.25 L 12.83 12.5 L 12.75 12.75 L 12.67 13.0 L 12.58 13.25 L 12.5 13.5 L 12.42 13.75 L 12.33 14.0 L 12.25 14.25 L 12.17 14.5 L 12.08 14.75 L 12.0 15.0 L 11.92 15.25 L 11.83 15.5 L 11.75 15.75 L 11.67 16.0 L 11.58 16.25 L 11.5 16.5 L 11.42 16.75 L 11.33 17.0 L 11.25 17.25 L 11.17 17.5 L 11.08 17.75 L 11.0 18.0 L 11.0 18.0 L 11.06 18.27 L 11.11 18.54 L 11.15 18.81 L 11.18 19.08 L 11.19 19.36 L 11.19 19.64 L 11.17 19.91 L 11.14 20.18 L 11.1 20.46 L 11.04 20.73 L 10.98 20.99 L 10.9 21.26 L 10.8 21.51 L 10.7 21.77 L 10.58 22.02 L 10.45 22.26 L 10.31 22.5 L 10.16 22.72 L 9.99 22.95 L 9.82 23.16 L 9.63 23.36 L 9.44 23.56 L 9.24 23.75 L 9.03 23.92" fill="none" stroke="#111" stroke-width="1.19" stroke-linecap="round" stroke-linejoin="round"/>
<path d="M 6.0 17.0 L 6.21 17.0 L 6.42 17.0 L 6.62 17.0 L 6.83 17.0 L 7.04 17.0 L 7.25 17.0 L 7.46 17.0 L 7.67 17.0 L 7.88 17.0 L 8.08 17.0 L 8.29 17.0 L 8.5 17.0 L 8.71 17.0 L 8.92 17.0 L 9.12 17.0 L 9.33 17.0 L 9.54 17.0 L 9.75 17.0 L 9.96 17.0 L 10.17 17.0 L 10.38 17.0 L 10.58 17.0 L 10.79 17.0 L 11.0 17.0" fill="none" stroke="#111" stroke-width="1.19" stroke-linecap="round" stroke-linejoin="round"/>
<path d="M 13.0 8.0 L 13.42 8.0 L 13.83 8.0 L 14.25 8.0 L 14.67 8.0 L 15.08 8.0 L 15.5 8.0 L 15.92 8.0 L 16.33 8.0 L 16.75 8.0 L 17.17 8.0 L 17.58 8.0 L 18.0 8.0 L 18.42 8.0 L 18.83 8.0 L 19.25 8.0 L 19.67 8.0 L 20.08 8.0 L 20.5 8.0 L 20.92 8.0 L 21.33 8.0 L 21.75 8.0 L 22.17 8.0 L 22.58 8.0 L 23.0 8.0" fill="none" stroke="#111" stroke-width="1.19" stroke-linecap="round" stroke-linejoin="round"/>
<path d="M 18.0 4.0 L 18.0 4.25 L 18.0 4.5 L 18.0 4.75 L 18.0 5.0 L 18.0 5.25 L 18.0 5.5 L 18.0 5.75 L 18.0 6.0 L 18.0 6.25 L 18.0 6.5 L 18.0 6.75 L 18.0 7.0 L 18.0 7.25 L 18.0 7.5 L 18.0 7.75 L 18.0 8.0 L 18.0 8.25 L 18.0 8.5 L 18.0 8.75 L 18.0 9.0 L 18.0 9.25 L 18.0 9.5 L 18.0 9.75 L 18.0 10.0 L 18.0 10.0 L 18.35 10.34 L 18.69 10.69 L 19.0 11.06 L 19.3 11.45 L 19.57 11.86 L 19.82 12.28 L 20.04 12.71 L 20.25 13.15 L 20.42 13.61 L 20.58 14.07 L 20.7 14.54 L 20.8 15.02 L 20.88 15.5 L 20.92 15.99 L 20.94 16.47 L 20.94 16.96 L 20.91 17.45 L 20.85 17.93 L 20.76 18.41 L 20.65 18.89 L 20.51 19.35 L 20.35 19.81 L 20.16 20.26 L 19.95 20.7 L 20.0 21.0 L 19.75 21.0 L 19.5 21.0 L 19.25 21.0 L 19.0 21.0 L 18.75 21.0 L 18.5 21.0 L 18.25 21.0 L 18.0 21.0 L 17.75 21.0 L 17.5 21.0 L 17.25 21.0 L 17.0 21.0 L 16.75 21.0 L 16.5 21.0 L 16.25 21.0 L 16.0 21.0 L 15.75 21.0 L 15.5 21.0 L 15.25 21.0 L 15.0 21.0 L 14.75 21.0 L 14.5 21.0 L 14.25 21.0 L 14.0 21.0" fill="none" stroke="#111" stroke-width="1.19" stroke-linecap="round" stroke-linejoin="round"/>
<path d="M 19.0 21.0 L 18.84 21.35 L 18.7 21.71 L 18.57 22.07 L 18.45 22.43 L 18.35 22.8 L 18.26 23.18 L 18.18 23.55 L 18.12 23.93 L 18.07 24.31 L 18.03 24.7 L 18.01 25.08 L 18.0 25.46 L 18.01 25.85 L 18.03 26.23 L 18.07 26.62 L 18.12 27.0 L 18.18 27.38 L 18.26 27.75 L 18.35 28.13 L 18.45 28.5 L 18.57 28.86 L 18.7 29.22 L 18.84 29.58 L 19.0 29.93" fill="none" stroke="#111" stroke-width="1.19" stroke-linecap="round" stroke-linejoin="round"/>
<path d="M 14.0 12.0 L 14.17 11.96 L 14.33 11.92 L 14.5 11.88 L 14.67 11.83 L 14.83 11.79 L 15.0 11.75 L 15.17 11.71 L 15.33 11.67 L 15.5 11.62 L 15.67 11.58 L 15.83 11.54 L 16.0 11.5 L 16.17 11.46 L 16.33 11.42 L 16.5 11.38 L 16.67 11.33 L 16.83 11.29 L 17.0 11.25 L 17.17 11.21 L 17.33 11.17 L 17.5 11.12 L 17.67 11.08 L 17.83 11.04 L 18.0 11.0" fill="none" stroke="#111" stroke-width="1.19" stroke-linecap="round" stroke-linejoin="round"/>
</svg>
