<?xml version="1.0" encoding="UTF-8"?>
<svg xmlns="http://www.w3.org/2000/svg" viewBox="0 0 21.17 40.56">
<path d="M 12.0 10.63 L 11.49 10.39 L 11.02 10.06 L 10.61 9.66 L 10.28 9.2 L 10.02 8.69 L 9.86 8.15 L 9.78 7.58 L 9.81 7.01 L 9.92 6.46 L 10.13 5.92 L 10.42 5.44 L 10.78 5.0 L 11.22 4.63 L 11.71 4.34 L 12.24 4.14 L 12.8 4.02 L 13.37 4.0 L 13.93 4.07 L 14.48 4.24 L 14.99 4.49 L 15.45 4.83 L 15.85 5.23 L 16.17 5.7 L 16.42 6.22 L 14.0 8.63 L 13.92 8.71 L 13.83 8.8 L 13.75 8.88 L 13.67 8.96 L 13.58 9.05 L 13.5 9.13 L 13.42 9.21 L 13.33 9.3 L 13.25 9.38 L 13.17 9.46 L 13.08 9.55 L 13.0 9.63 L 12.92 9.71 L 12.83 9.8 L 12.75 9.88 L 12.67 9.96 L 12.58 10.05 L 12.5 10.13 L 12.42 10.21 L 12.33 10.3 L 12.25 10.38 L 12.17 10.46 L 12.08 10.55 L 12.0 10.63" fill="none" stroke="#111" stroke-width="1.42" stroke-linecap="round" stroke-linejoin="round"/>
<path d="M 12.0 10.63 L 12.0 10.88 L 12.0 11.13 L 12.0 11.38 L 12.0 11.63 L 12.0 11.88 L 12.0 12.13 L 12.0 12.38 L 12.0 12.63 L 12.0 12.88 L 12.0 13.13 L 12.0 13.38 L 12.0 13.63 L 12.0 13.88 L 12.0 14.13 L 12.0 14.38 L 12.0 14.63 L 12.0 14.88 L 12.0 15.13 L 12.0 15.38 L 12.0 15.63 L 12.0 15.88 L 12.0 16.13 L 12.0 16.38 L 12.0 16.63" fill="none" stroke="#111" stroke-width="1.42" stroke-linecap="round" stroke-linejoin="round"/>
<path d="M 12.0 16.63 L 12.86 16.89 L 13.68 17.25 L 14.44 17.73 L 15.13 18.3 L 15.73 18.97 L 16.24 19.7 L 16.65 20.51 L 16.94 21.35 L 17.12 22.23 L 17.17 23.13 L 17.11 24.02 L 16.92 24.9 L 16.61 25.74 L 16.2 26.54 L 15.68 27.27 L 15.06 27.93 L 14.37 28.49 L 13.6 28.96 L 12.78 29.31 L 11.91 29.56 L 11.03 29.68 L 10.13 29.68 L 9.24 29.56 L 8.37 29.32 L 8.0 30.63 L 8.0 30.76 L 8.0 30.88 L 8.0 31.01 L 8.0 31.13 L 8.0 31.26 L 8.0 31.38 L 8.0 31.51 L 8.0 31.63 L 8.0 31.76 L 8.0 31.88 L 8.0 32.01 L 8.0 32.13 L 8.0 32.26 L 8.0 32.38 L 8.0 32.51 L 8.0 32.63 L 8.0 32.76 L 8.0 32.88 L 8.0 33.01 L 8.0 33.13 L 8.0 33.26 L 8.0 33.38 L 8.0 33.51 L 8.0 33.63 L 8.0 33.63 L 8.25 33.51 L 8.5 33.38 L 8.75 33.26 L 9.0 33.13 L 9.25 33.01 L 9.5 32.88 L 9.75 32.76 L 10.0 32.63 L 10.25 32.51 L 10.5 32.38 L 10.75 32.26 L 11.0 32.13 L 11.25 32.01 L 11.5 31.88 L 11.75 31.76 L 12.0 31.63 L 12.25 31.51 L 12.5 31.38 L 12.75 31.26 L 13.0 31.13 L 13.25 31.01 L 13.5 30.88 L 13.75 30.76 L 14.0 30.63 L 14.0 30.63 L 14.03 30.9 L 14.05 31.17 L 14.06 31.44 L 14.06 31.71 L 14.05 31.98 L 14.03 32.25 L 14.0 32.51 L 13.96 32.78 L 13.91 33.05 L 13.85 33.31 L 13.78 33.57 L 13.7 33.83 L 13.61 34.08 L 13.51 34.33 L 13.4 34.58 L 13.28 34.82 L 13.16 35.06 L 13.02 35.29 L 12.87 35.52 L 12.72 35.74 L 12.56 35.95 L 12.39 36.16 L 12.21 36.36 L 12.02 36.56" fill="none" stroke="#111" stroke-width="1.42" stroke-linecap="round" stroke-linejoin="round"/>
<path d="M 4.0 24.63 L 4.08 24.42 L 4.17 24.21 L 4.25 24.01 L 4.33 23.8 L 4.42 23.59 L 4.5 23.38 L 4.58 23.17 L 4.67 22.96 L 4.75 22.76 L 4.83 22.55 L 4.92 22.34 L 5.0 22.13 L 5.08 21.92 L 5.17 21.71 L 5.25 21.51 L 5.33 21.3 L 5.42 21.09 L 5.5 20.88 L 5.58 20.67 L 5.67 20.46 L 5.75 20.26 L 5.83 20.05 L 5.92 19.84 L 6.0 19.63 L 6.0 19.63 L 6.21 19.46 L 6.42 19.3 L 6.62 19.13 L 6.83 18.96 L 7.04 18.8 L 7.25 18.63 L 7.46 18.46 L 7.67 18.3 L 7.88 18.13 L 8.08 17.96 L 8.29 17.8 L 8.5 17.63 L 8.71 17.46 L 8.92 17.3 L 9.12 17.13 L 9.33 16.96 L 9.54 16.8 L 9.75 16.63 L 9.96 16.46 L 10.17 16.3 L 10.38 16.13 L 10.58 15.96 L 10.79 15.8 L 11.0 15.63 L 11.0 15.63 L 11.29 15.71 L 11.59 15.76 L 11.9 15.78 L 12.2 15.78 L 12.5 15.76 L 12.8 15.71 L 13.1 15.64 L 13.39 15.55 L 13.67 15.43 L 13.94 15.29 L 14.19 15.13 L 14.44 14.95 L 14.67 14.75 L 14.88 14.54 L 15.07 14.3 L 15.25 14.06 L 15.4 13.8 L 15.54 13.52 L 15.65 13.24 L 15.74 12.95 L 15.8 12.65 L 15.84 12.35 L 15.86 12.05 L 15.85 11.75 L 16.0 11.63 L 15.22 11.6 L 14.44 11.64 L 13.67 11.73 L 12.9 11.89 L 12.16 12.1 L 11.43 12.38 L 10.72 12.71 L 10.04 13.1 L 9.4 13.53 L 8.79 14.02 L 8.23 14.56 L 7.7 15.14 L 7.23 15.76 L 6.8 16.41 L 6.43 17.1 L 6.12 17.81 L 5.86 18.54 L 5.66 19.3 L 5.52 20.06 L 5.44 20.84 L 5.43 21.62 L 5.47 22.4 L 5.58 23.17 L 5.75 23.93" fill="none" stroke="#111" stroke-width="1.42" stroke-linecap="round" stroke-linejoin="round"/>
<path d="M 12.0 16.63 L 11.57 17.01 L 11.16 17.41 L 10.79 17.85 L 10.45 18.31 L 10.14 18.79 L 9.87 19.3 L 9.64 19.83 L 9.45 20.37 L 9.31 20.92 L 9.2 21.49 L 9.13 22.06 L 9.11 22.63 L 9.13 23.2 L 9.2 23.77 L 9.31 24.34 L 9.45 24.89 L 9.64 25.43 L 9.87 25.96 L 10.14 26.46 L 10.45 26.95 L 10.79 27.41 L 11.16 27.85 L 11.57 28.25 L 12.0 28.63" fill="none" stroke="#111" stroke-width="1.42" stroke-linecap="round" stroke-linejoin="round"/>
<path d="M 12.0 19.63 L 12.12 19.86 L 12.23 20.09 L 12.33 20.33 L 12.43 20.56 L 12.52 20.8 L 12.61 21.05 L 12.69 21.29 L 12.76 21.54 L 12.82 21.78 L 12.88 22.03 L 12.94 22.29 L 12.98 22.54 L 13.02 22.79 L 13.05 23.05 L 13.08 23.3 L 13.1 23.56 L 13.11 23.82 L 13.11 24.07 L 13.11 24.33 L 13.1 24.59 L 13.08 24.84 L 13.06 25.1 L 13.03 25.35 L 13.0 25.61" fill="none" stroke="#111" stroke-width="1.42" stroke-linecap="round" stroke-linejoin="round"/>
<path d="M 13.0 21.63 L 12.92 21.71 L 12.83 21.8 L 12.75 21.88 L 12.67 21.96 L 12.58 22.05 L 12.5 22.13 L 12.42 22.21 L 12.33 22.3 L 12.25 22.38 L 12.17 22.46 L 12.08 22.55 L 12.0 22.63 L 11.92 22.71 L 11.83 22.8 L 11.75 22.88 L 11.67 22.96 L 11.58 23.05 L 11.5 23.13 L 11.42 23.21 L 11.33 23.3 L 11.25 23.38 L 11.17 23.46 L 11.08 23.55 L 11.0 23.63" fill="none" stroke="#111" stroke-width="1.42" stroke-linecap="round" stroke-linejoin="round"/>
</svg>
