<?xml version="1.0" encoding="UTF-8"?>
<svg xmlns="http://www.w3.org/2000/svg" viewBox="0 0 21.61 34.18">
<path d="M 10.13 4.0 L 10.18 4.55 L 10.2 5.09 L 10.19 5.64 L 10.15 6.19 L 10.09 6.73 L 10.0 7.27 L 9.88 7.81 L 9.73 8.34 L 9.56 8.86 L 9.36 9.37 L 9.13 9.87 L 8.88 10.35 L 8.61 10.83 L 8.31 11.29 L 7.99 11.73 L 7.65 12.16 L 7.28 12.57 L 6.9 12.96 L 6.49 13.33 L 6.07 13.68 L 5.63 14.0 L 5.17 14.31 L 4.7 14.59 L 4.22 14.84 L 4.13 15.0 L 4.13 15.29 L 4.13 15.58 L 4.13 15.88 L 4.13 16.17 L 4.13 16.46 L 4.13 16.75 L 4.13 17.04 L 4.13 17.33 L 4.13 17.62 L 4.13 17.92 L 4.13 18.21 L 4.13 18.5 L 4.13 18.79 L 4.13 19.08 L 4.13 19.38 L 4.13 19.67 L 4.13 19.96 L 4.13 20.25 L 4.13 20.54 L 4.13 20.83 L 4.13 21.12 L 4.13 21.42 L 4.13 21.71 L 4.13 22.0 L 4.13 22.0 L 4.0 23.09 L 4.04 24.19 L 4.26 25.27 L 4.65 26.29 L 5.2 27.24 L 5.9 28.09 L 6.72 28.82 L 7.65 29.41 L 8.67 29.84 L 9.73 30.1 L 10.83 30.18 L 11.93 30.09 L 12.99 29.82 L 14.0 29.38 L 14.93 28.79 L 15.75 28.06 L 16.44 27.2 L 16.98 26.25 L 17.36 25.22 L 17.57 24.14 L 17.61 23.04 L 17.47 21.95 L 17.15 20.9 L 16.67 19.91 L 16.13 20.0 L 16.13 19.79 L 16.13 19.58 L 16.13 19.38 L 16.13 19.17 L 16.13 18.96 L 16.13 18.75 L 16.13 18.54 L 16.13 18.33 L 16.13 18.12 L 16.13 17.92 L 16.13 17.71 L 16.13 17.5 L 16.13 17.29 L 16.13 17.08 L 16.13 16.88 L 16.13 16.67 L 16.13 16.46 L 16.13 16.25 L 16.13 16.04 L 16.13 15.83 L 16.13 15.62 L 16.13 15.42 L 16.13 15.21 L 16.13 15.0 L 16.13 15.0 L 15.78 15.04 L 15.42 15.05 L 15.07 15.04 L 14.71 15.0 L 14.36 14.94 L 14.02 14.86 L 13.68 14.75 L 13.35 14.61 L 13.03 14.46 L 12.72 14.28 L 12.42 14.08 L 12.14 13.86 L 11.88 13.63 L 11.63 13.37 L 11.4 13.1 L 11.19 12.81 L 11.0 12.51 L 10.83 12.2 L 10.68 11.87 L 10.56 11.54 L 10.46 11.2 L 10.38 10.85 L 10.33 10.5 L 10.3 10.14" fill="none" stroke="#111" stroke-width="1.20" stroke-linecap="round" stroke-linejoin="round"/>
<path d="M 10.13 4.0 L 10.42 4.21 L 10.72 4.42 L 11.01 4.62 L 11.3 4.83 L 11.59 5.04 L 11.88 5.25 L 12.17 5.46 L 12.47 5.67 L 12.76 5.88 L 13.05 6.08 L 13.34 6.29 L 13.63 6.5 L 13.92 6.71 L 14.22 6.92 L 14.51 7.12 L 14.8 7.33 L 15.09 7.54 L 15.38 7.75 L 15.67 7.96 L 15.97 8.17 L 16.26 8.38 L 16.55 8.58 L 16.84 8.79 L 17.13 9.0" fill="none" stroke="#111" stroke-width="1.20" stroke-linecap="round" stroke-linejoin="round"/>
<path d="M 6.13 18.0 L 6.22 18.21 L 6.3 18.42 L 6.38 18.62 L 6.47 18.83 L 6.55 19.04 L 6.63 19.25 L 6.72 19.46 L 6.8 19.67 L 6.88 19.88 L 6.97 20.08 L 7.05 20.29 L 7.13 20.5 L 7.22 20.71 L 7.3 20.92 L 7.38 21.12 L 7.47 21.33 L 7.55 21.54 L 7.63 21.75 L 7.72 21.96 L 7.8 22.17 L 7.88 22.38 L 7.97 22.58 L 8.05 22.79 L 8.13 23.0" fill="none" stroke="#111" stroke-width="1.20" stroke-linecap="round" stroke-linejoin="round"/>
</svg>
