<?xml version="1.0" encoding="UTF-8"?>
<svg xmlns="http://www.w3.org/2000/svg" viewBox="0 0 17.77 40.89">
<path d="M 12.83 4.0 L 13.15 5.01 L 13.4 6.04 L 13.58 7.09 L 13.71 8.14 L 13.77 9.2 L 13.77 10.26 L 13.71 11.32 L 13.58 12.37 L 13.39 13.41 L 13.14 14.44 L 12.83 15.46 L 12.46 16.45 L 12.03 17.42 L 11.54 18.36 L 11.0 19.27 L 10.4 20.15 L 9.75 20.99 L 9.06 21.79 L 8.31 22.54 L 7.53 23.26 L 6.7 23.92 L 5.83 24.53 L 4.93 25.09 L 4.0 25.59" fill="none" stroke="#111" stroke-width="1.43" stroke-linecap="round" stroke-linejoin="round"/>
<path d="M 7.83 10.0 L 8.34 11.04 L 8.82 12.08 L 9.27 13.14 L 9.69 14.22 L 10.08 15.3 L 10.44 16.39 L 10.78 17.5 L 11.08 18.61 L 11.35 19.73 L 11.6 20.85 L 11.81 21.98 L 12.0 23.12 L 12.15 24.26 L 12.27 25.41 L 12.37 26.56 L 12.43 27.71 L 12.46 28.86 L 12.46 30.01 L 12.43 31.16 L 12.37 32.31 L 12.28 33.46 L 12.15 34.61 L 12.0 35.75 L 11.82 36.89" fill="none" stroke="#111" stroke-width="1.43" stroke-linecap="round" stroke-linejoin="round"/>
</svg>
