<?xml version="1.0" encoding="UTF-8"?>
<svg xmlns="http://www.w3.org/2000/svg" viewBox="0 0 22.51 39.00">
<path d="M 7.51 4.0 L 7.51 5.29 L 7.51 6.58 L 7.51 7.88 L 7.51 9.17 L 7.51 10.46 L 7.51 11.75 L 7.51 13.04 L 7.51 14.33 L 7.51 15.62 L 7.51 16.92 L 7.51 18.21 L 7.51 19.5 L 7.51 20.79 L 7.51 22.08 L 7.51 23.38 L 7.51 24.67 L 7.51 25.96 L 7.51 27.25 L 7.51 28.54 L 7.51 29.83 L 7.51 31.12 L 7.51 32.42 L 7.51 33.71 L 7.51 35.0" fill="none" stroke="#111" stroke-width="1.37" stroke-linecap="round" stroke-linejoin="round"/>
<path d="M 12.51 6.0 L 12.55 7.12 L 12.59 8.25 L 12.63 9.38 L 12.67 10.5 L 12.71 11.62 L 12.76 12.75 L 12.8 13.88 L 12.84 15.0 L 12.88 16.12 L 12.92 17.25 L 12.96 18.38 L 13.01 19.5 L 13.05 20.62 L 13.09 21.75 L 13.13 22.88 L 13.17 24.0 L 13.21 25.12 L 13.26 26.25 L 13.3 27.38 L 13.34 28.5 L 13.38 29.62 L 13.42 30.75 L 13.46 31.88 L 13.51 33.0" fill="none" stroke="#111" stroke-width="1.37" stroke-linecap="round" stroke-linejoin="round"/>
<path d="M 7.51 14.0 L 7.01 14.19 L 6.54 14.44 L 6.09 14.73 L 5.68 15.07 L 5.3 15.45 L 4.97 15.87 L 4.68 16.31 L 4.44 16.79 L 4.25 17.29 L 4.11 17.8 L 4.03 18.33 L 4.0 18.86 L 4.03 19.4 L 4.11 19.92 L 4.25 20.44 L 4.44 20.94 L 4.68 21.41 L 4.97 21.86 L 5.3 22.28 L 5.68 22.65 L 6.09 22.99 L 6.54 23.29 L 7.01 23.53 L 7.51 23.73" fill="none" stroke="#111" stroke-width="1.37" stroke-linecap="round" stroke-linejoin="round"/>
<path d="M 12.51 14.0 L 12.76 14.21 L 13.01 14.42 L 13.26 14.62 L 13.51 14.83 L 13.76 15.04 L 14.01 15.25 L 14.26 15.46 L 14.51 15.67 L 14.76 15.88 L 15.01 16.08 L 15.26 16.29 L 15.51 16.5 L 15.76 16.71 L 16.01 16.92 L 16.26 17.12 L 16.51 17.33 L 16.76 17.54 L 17.01 17.75 L 17.26 17.96 L 17.51 18.17 L 17.76 18.38 L 18.01 18.58 L 18.26 18.79 L 18.51 19.0 L 18.51 19.0 L 18.3 19.17 L 18.09 19.33 L 17.88 19.5 L 17.67 19.67 L 17.46 19.83 L 17.26 20.0 L 17.05 20.17 L 16.84 20.33 L 16.63 20.5 L 16.42 20.67 L 16.21 20.83 L 16.01 21.0 L 15.8 21.17 L 15.59 21.33 L 15.38 21.5 L 15.17 21.67 L 14.96 21.83 L 14.76 22.0 L 14.55 22.17 L 14.34 22.33 L 14.13 22.5 L 13.92 22.67 L 13.71 22.83 L 13.51 23.0" fill="none" stroke="#111" stroke-width="1.37" stroke-linecap="round" stroke-linejoin="round"/>
</svg>
