<?xml version="1.0" encoding="UTF-8"?>
<svg xmlns="http://www.w3.org/2000/svg" viewBox="0 0 16.79 36.00">
<path d="M 9.78 17.0 L 9.84 17.23 L 9.88 17.46 L 9.9 17.69 L 9.91 17.92 L 9.89 18.16 L 9.86 18.39 L 9.81 18.61 L 9.74 18.84 L 9.66 19.06 L 9.56 19.27 L 9.44 19.47 L 9.31 19.66 L 9.16 19.84 L 9.0 20.01 L 8.83 20.17 L 8.64 20.31 L 8.45 20.44 L 8.24 20.55 L 8.03 20.64 L 7.81 20.72 L 7.58 20.78 L 7.35 20.83 L 7.12 20.85 L 6.89 20.86 L 6.78 21.0 L 7.37 21.08 L 7.95 21.22 L 8.5 21.42 L 9.04 21.67 L 9.55 21.98 L 10.02 22.34 L 10.45 22.74 L 10.85 23.18 L 11.19 23.66 L 11.48 24.18 L 11.73 24.72 L 11.91 25.28 L 12.04 25.86 L 12.1 26.45 L 12.11 27.04 L 12.06 27.63 L 11.95 28.21 L 11.78 28.78 L 11.55 29.33 L 11.27 29.85 L 10.94 30.34 L 10.56 30.79 L 10.13 31.2 L 9.67 31.57 L 9.78 32.0 L 9.45 31.6 L 9.15 31.17 L 8.89 30.71 L 8.67 30.24 L 8.49 29.75 L 8.36 29.24 L 8.26 28.73 L 8.21 28.21 L 8.21 27.69 L 8.25 27.17 L 8.34 26.65 L 8.46 26.14 L 8.64 25.65 L 8.85 25.17 L 9.1 24.71 L 9.39 24.28 L 9.72 23.87 L 10.08 23.49 L 10.47 23.15 L 10.89 22.84 L 11.34 22.56 L 11.8 22.33 L 12.29 22.13 L 12.79 21.98 L 12.78 22.0 L 12.66 21.79 L 12.53 21.58 L 12.41 21.38 L 12.28 21.17 L 12.16 20.96 L 12.03 20.75 L 11.91 20.54 L 11.78 20.33 L 11.66 20.12 L 11.53 19.92 L 11.41 19.71 L 11.28 19.5 L 11.16 19.29 L 11.03 19.08 L 10.91 18.88 L 10.78 18.67 L 10.66 18.46 L 10.53 18.25 L 10.41 18.04 L 10.28 17.83 L 10.16 17.62 L 10.03 17.42 L 9.91 17.21 L 9.78 17.0" fill="none" stroke="#111" stroke-width="1.26" stroke-linecap="round" stroke-linejoin="round"/>
<path d="M 10.78 4.0 L 11.18 4.69 L 11.52 5.41 L 11.79 6.15 L 12.01 6.92 L 12.15 7.7 L 12.24 8.49 L 12.25 9.28 L 12.21 10.07 L 12.09 10.86 L 11.91 11.63 L 11.67 12.39 L 11.36 13.12 L 11.0 13.83 L 10.57 14.5 L 10.1 15.13 L 9.57 15.72 L 8.99 16.27 L 8.37 16.77 L 7.71 17.21 L 7.02 17.6 L 6.3 17.93 L 5.55 18.19 L 4.78 18.4 L 4.0 18.54" fill="none" stroke="#111" stroke-width="1.26" stroke-linecap="round" stroke-linejoin="round"/>
<path d="M 4.78 14.0 L 4.83 14.29 L 4.87 14.58 L 4.91 14.88 L 4.95 15.17 L 4.99 15.46 L 5.03 15.75 L 5.08 16.04 L 5.12 16.33 L 5.16 16.62 L 5.2 16.92 L 5.24 17.21 L 5.28 17.5 L 5.33 17.79 L 5.37 18.08 L 5.41 18.38 L 5.45 18.67 L 5.49 18.96 L 5.53 19.25 L 5.58 19.54 L 5.62 19.83 L 5.66 20.12 L 5.7 20.42 L 5.74 20.71 L 5.78 21.0" fill="none" stroke="#111" stroke-width="1.26" stroke-linecap="round" stroke-linejoin="round"/>
</svg>
