<?xml version="1.0" encoding="UTF-8"?>
<svg xmlns="http://www.w3.org/2000/svg" viewBox="0 0 24.00 30.00">
<path d="M 5.0 14.0 L 5.62 14.0 L 6.25 14.0 L 6.88 14.0 L 7.5 14.0 L 8.12 14.0 L 8.75 14.0 L 9.38 14.0 L 10.0 14.0 L 10.62 14.0 L 11.25 14.0 L 11.88 14.0 L 12.5 14.0 L 13.12 14.0 L 13.75 14.0 L 14.38 14.0 L 15.0 14.0 L 15.62 14.0 L 16.25 14.0 L 16.88 14.0 L 17.5 14.0 L 18.12 14.0 L 18.75 14.0 L 19.38 14.0 L 20.0 14.0" fill="none" stroke="#111" stroke-width="1.05" stroke-linecap="round" stroke-linejoin="round"/>
<path d="M 12.0 6.0 L 12.0 6.75 L 12.0 7.5 L 12.0 8.25 L 12.0 9.0 L 12.0 9.75 L 12.0 10.5 L 12.0 11.25 L 12.0 12.0 L 12.0 12.75 L 12.0 13.5 L 12.0 14.25 L 12.0 15.0 L 12.0 15.75 L 12.0 16.5 L 12.0 17.25 L 12.0 18.0 L 12.0 18.75 L 12.0 19.5 L 12.0 20.25 L 12.0 21.0 L 12.0 21.75 L 12.0 22.5 L 12.0 23.25 L 12.0 24.0" fill="none" stroke="#111" stroke-width="1.05" stroke-linecap="round" stroke-linejoin="round"/>
<path d="M 8.0 6.0 L 8.0 6.25 L 8.0 6.5 L 8.0 6.75 L 8.0 7.0 L 8.0 7.25 L 8.0 7.5 L 8.0 7.75 L 8.0 8.0 L 8.0 8.25 L 8.0 8.5 L 8.0 8.75 L 8.0 9.0 L 8.0 9.25 L 8.0 9.5 L 8.0 9.75 L 8.0 10.0 L 8.0 10.25 L 8.0 10.5 L 8.0 10.75 L 8.0 11.0 L 8.0 11.25 L 8.0 11.5 L 8.0 11.75 L 8.0 12.0" fill="none" stroke="#111" stroke-width="1.05" stroke-linecap="round" stroke-linejoin="round"/>
<path d="M 6.0 7.0 L 6.08 7.12 L 6.17 7.25 L 6.25 7.38 L 6.33 7.5 L 6.42 7.62 L 6.5 7.75 L 6.58 7.88 L 6.67 8.0 L 6.75 8.12 L 6.83 8.25 L 6.92 8.38 L 7.0 8.5 L 7.08 8.62 L 7.17 8.75 L 7.25 8.88 L 7.33 9.0 L 7.42 9.12 L 7.5 9.25 L 7.58 9.38 L 7.67 9.5 L 7.75 9.62 L 7.83 9.75 L 7.92 9.88 L 8.0 10.0" fill="none" stroke="#111" stroke-width="1.05" stroke-linecap="round" stroke-linejoin="round"/>
<path d="M 10.0 8.0 L 9.92 8.12 L 9.83 8.25 L 9.75 8.38 L 9.67 8.5 L 9.58 8.62 L 9.5 8.75 L 9.42 8.88 L 9.33 9.0 L 9.25 9.12 L 9.17 9.25 L 9.08 9.38 L 9.0 9.5 L 8.92 9.62 L 8.83 9.75 L 8.75 9.88 L 8.67 10.0 L 8.58 10.12 L 8.5 10.25 L 8.42 10.38 L 8.33 10.5 L 8.25 10.62 L 8.17 10.75 L 8.08 10.88 L 8.0 11.0" fill="none" stroke="#111" stroke-width="1.05" stroke-linecap="round" stroke-linejoin="round"/>
<path d="M 15.0 5.0 L 15.0 5.29 L 15.0 5.58 L 15.0 5.88 L 15.0 6.17 L 15.0 6.46 L 15.0 6.75 L 15.0 7.04 L 15.0 7.33 L 15.0 7.62 L 15.0 7.92 L 15.0 8.21 L 15.0 8.5 L 15.0 8.79 L 15.0 9.08 L 15.0 9.38 L 15.0 9.67 L 15.0 9.96 L 15.0 10.25 L 15.0 10.54 L 15.0 10.83 L 15.0 11.12 L 15.0 11.42 L 15.0 11.71 L 15.0 12.0" fill="none" stroke="#111" stroke-width="1.05" stroke-linecap="round" stroke-linejoin="round"/>
<path d="M 13.0 8.0 L 13.08 8.08 L 13.17 8.17 L 13.25 8.25 L 13.33 8.33 L 13.42 8.42 L 13.5 8.5 L 13.58 8.58 L 13.67 8.67 L 13.75 8.75 L 13.83 8.83 L 13.92 8.92 L 14.0 9.0 L 14.08 9.08 L 14.17 9.17 L 14.25 9.25 L 14.33 9.33 L 14.42 9.42 L 14.5 9.5 L 14.58 9.58 L 14.67 9.67 L 14.75 9.75 L 14.83 9.83 L 14.92 9.92 L 15.0 10.0" fill="none" stroke="#111" stroke-width="1.05" stroke-linecap="round" stroke-linejoin="round"/>
<path d="M 18.0 6.0 L 17.88 6.12 L 17.75 6.25 L 17.62 6.38 L 17.5 6.5 L 17.38 6.62 L 17.25 6.75 L 17.12 6.88 L 17.0 7.0 L 16.88 7.12 L 16.75 7.25 L 16.62 7.38 L 16.5 7.5 L 16.38 7.62 L 16.25 7.75 L 16.12 7.88 L 16.0 8.0 L 15.88 8.12 L 15.75 8.25 L 15.62 8.38 L 15.5 8.5 L 15.38 8.62 L 15.25 8.75 L 15.12 8.88 L 15.0 9.0" fill="none" stroke="#111" stroke-width="1.05" stroke-linecap="round" stroke-linejoin="round"/>
<path d="M 8.0 16.0 L 8.0 16.25 L 8.0 16.5 L 8.0 16.75 L 8.0 17.0 L 8.0 17.25 L 8.0 17.5 L 8.0 17.75 L 8.0 18.0 L 8.0 18.25 L 8.0 18.5 L 8.0 18.75 L 8.0 19.0 L 8.0 19.25 L 8.0 19.5 L 8.0 19.75 L 8.0 20.0 L 8.0 20.25 L 8.0 20.5 L 8.0 20.75 L 8.0 21.0 L 8.0 21.25 L 8.0 21.5 L 8.0 21.75 L 8.0 22.0" fill="none" stroke="#111" stroke-width="1.05" stroke-linecap="round" stroke-linejoin="round"/>
<path d="M 5.0 17.0 L 5.12 17.17 L 5.25 17.33 L 5.38 17.5 L 5.5 17.67 L 5.62 17.83 L 5.75 18.0 L 5.88 18.17 L 6.0 18.33 L 6.12 18.5 L 6.25 18.67 L 6.38 18.83 L 6.5 19.0 L 6.62 19.17 L 6.75 19.33 L 6.88 19.5 L 7.0 19.67 L 7.12 19.83 L 7.25 20.0 L 7.38 20.17 L 7.5 20.33 L 7.62 20.5 L 7.75 20.67 L 7.88 20.83 L 8.0 21.0" fill="none" stroke="#111" stroke-width="1.05" stroke-linecap="round" stroke-linejoin="round"/>
<path d="M 10.0 17.0 L 9.92 17.12 L 9.83 17.25 L 9.75 17.38 L 9.67 17.5 L 9.58 17.62 L 9.5 17.75 L 9.42 17.88 L 9.33 18.0 L 9.25 18.12 L 9.17 18.25 L 9.08 18.38 L 9.0 18.5 L 8.92 18.62 L 8.83 18.75 L 8.75 18.88 L 8.67 19.0 L 8.58 19.12 L 8.5 19.25 L 8.42 19.38 L 8.33 19.5 L 8.25 19.62 L 8.17 19.75 L 8.08 19.88 L 8.0 20.0" fill="none" stroke="#111" stroke-width="1.05" stroke-linecap="round" stroke-linejoin="round"/>
<path d="M 15.0 15.0 L 15.0 15.29 L 15.0 15.58 L 15.0 15.88 L 15.0 16.17 L 15.0 16.46 L 15.0 16.75 L 15.0 17.04 L 15.0 17.33 L 15.0 17.62 L 15.0 17.92 L 15.0 18.21 L 15.0 18.5 L 15.0 18.79 L 15.0 19.08 L 15.0 19.38 L 15.0 19.67 L 15.0 19.96 L 15.0 20.25 L 15.0 20.54 L 15.0 20.83 L 15.0 21.12 L 15.0 21.42 L 15.0 21.71 L 15.0 22.0" fill="none" stroke="#111" stroke-width="1.05" stroke-linecap="round" stroke-linejoin="round"/>
<path d="M 14.0 17.0 L 14.04 17.12 L 14.08 17.25 L 14.12 17.38 L 14.17 17.5 L 14.21 17.62 L 14.25 17.75 L 14.29 17.88 L 14.33 18.0 L 14.38 18.12 L 14.42 18.25 L 14.46 18.38 L 14.5 18.5 L 14.54 18.62 L 14.58 18.75 L 14.62 18.88 L 14.67 19.0 L 14.71 19.12 L 14.75 19.25 L 14.79 19.38 L 14.83 19.5 L 14.88 19.62 L 14.92 19.75 L 14.96 19.88 L 15.0 20.0" fill="none" stroke="#111" stroke-width="1.05" stroke-linecap="round" stroke-linejoin="round"/>
<path d="M 18.0 16.0 L 17.88 16.17 L 17.75 16.33 L 17.62 16.5 L 17.5 16.67 L 17.38 16.83 L 17.25 17.0 L 17.12 17.17 L 17.0 17.33 L 16.88 17.5 L 16.75 17.67 L 16.62 17.83 L 16.5 18.0 L 16.38 18.17 L 16.25 18.33 L 16.12 18.5 L 16.0 18.67 L 15.88 18.83 L 15.75 19.0 L 15.62 19.17 L 15.5 19.33 L 15.38 19.5 L 15.25 19.67 L 15.12 19.83 L 15.0 20.0" fill="none" stroke="#111" stroke-width="1.05" stroke-linecap="round" stroke-linejoin="round"/>
<path d="M 4.0 4.0 L 4.0 4.92 L 4.0 5.83 L 4.0 6.75 L 4.0 7.67 L 4.0 8.58 L 4.0 9.5 L 4.0 10.42 L 4.0 11.33 L 4.0 12.25 L 4.0 13.17 L 4.0 14.08 L 4.0 15.0 L 4.0 15.92 L 4.0 16.83 L 4.0 17.75 L 4.0 18.67 L 4.0 19.58 L 4.0 20.5 L 4.0 21.42 L 4.0 22.33 L 4.0 23.25 L 4.0 24.17 L 4.0 25.08 L 4.0 26.0" fill="none" stroke="#111" stroke-width="1.05" stroke-linecap="round" stroke-linejoin="round"/>
<path d="M 4.0 4.0 L 4.62 4.0 L 5.25 4.0 L 5.88 4.0 L 6.5 4.0 L 7.12 4.0 L 7.75 4.0 L 8.38 4.0 L 9.0 4.0 L 9.62 4.0 L 10.25 4.0 L 10.88 4.0 L 11.5 4.0 L 12.12 4.0 L 12.75 4.0 L 13.38 4.0 L 14.0 4.0 L 14.62 4.0 L 15.25 4.0 L 15.88 4.0 L 16.5 4.0 L 17.12 4.0 L 17.75 4.0 L 18.38 4.0 L 19.0 4.0" fill="none" stroke="#111" stroke-width="1.05" stroke-linecap="round" stroke-linejoin="round"/>
<path d="M 19.0 4.0 L 19.04 4.88 L 19.08 5.75 L 19.12 6.62 L 19.17 7.5 L 19.21 8.38 L 19.25 9.25 L 19.29 10.12 L 19.33 11.0 L 19.38 11.88 L 19.42 12.75 L 19.46 13.62 L 19.5 14.5 L 19.54 15.38 L 19.58 16.25 L 19.62 17.12 L 19.67 18.0 L 19.71 18.88 L 19.75 19.75 L 19.79 20.63 L 19.83 21.5 L 19.88 22.38 L 19.92 23.25 L 19.96 24.13 L 20.0 25.0" fill="none" stroke="#111" stroke-width="1.05" stroke-linecap="round" stroke-linejoin="round"/>
<path d="M 4.0 26.0 L 4.67 25.96 L 5.33 25.92 L 6.0 25.88 L 6.67 25.83 L 7.33 25.79 L 8.0 25.75 L 8.67 25.71 L 9.33 25.67 L 10.0 25.62 L 10.67 25.58 L 11.33 25.54 L 12.0 25.5 L 12.67 25.46 L 13.33 25.42 L 14.0 25.38 L 14.67 25.33 L 15.33 25.29 L 16.0 25.25 L 16.67 25.21 L 17.33 25.17 L 18.0 25.12 L 18.67 25.08 L 19.33 25.04 L 20.0 25.0" fill="none" stroke="#111" stroke-width="1.05" stroke-linecap="round" stroke-linejoin="round"/>
</svg>
