<?xml version="1.0" encoding="UTF-8"?>
<svg xmlns="http://www.w3.org/2000/svg" viewBox="0 0 21.82 34.13">
<path d="M 4.0 4.0 L 4.25 4.46 L 4.5 4.92 L 4.75 5.38 L 5.0 5.83 L 5.25 6.29 L 5.5 6.75 L 5.75 7.21 L 6.0 7.67 L 6.25 8.12 L 6.5 8.58 L 6.75 9.04 L 7.0 9.5 L 7.25 9.96 L 7.5 10.42 L 7.75 10.88 L 8.0 11.33 L 8.25 11.79 L 8.5 12.25 L 8.75 12.71 L 9.0 13.17 L 9.25 13.62 L 9.5 14.08 L 9.75 14.54 L 10.0 15.0 L 10.0 15.0 L 9.4 15.59 L 8.85 16.23 L 8.37 16.93 L 7.96 17.67 L 7.63 18.44 L 7.37 19.24 L 7.19 20.07 L 7.09 20.9 L 7.08 21.75 L 7.14 22.59 L 7.29 23.42 L 7.52 24.23 L 7.82 25.02 L 8.2 25.77 L 8.65 26.48 L 9.17 27.15 L 9.75 27.76 L 10.39 28.31 L 11.08 28.8 L 11.81 29.22 L 12.58 29.56 L 13.38 29.83 L 14.21 30.02 L 15.04 30.13 L 15.0 30.0 L 15.41 29.8 L 15.79 29.55 L 16.16 29.27 L 16.49 28.96 L 16.79 28.62 L 17.06 28.25 L 17.29 27.86 L 17.48 27.44 L 17.63 27.01 L 17.74 26.57 L 17.8 26.12 L 17.82 25.66 L 17.8 25.21 L 17.74 24.76 L 17.63 24.31 L 17.48 23.88 L 17.29 23.47 L 17.06 23.07 L 16.79 22.7 L 16.49 22.36 L 16.16 22.05 L 15.79 21.77 L 15.41 21.53 L 15.0 21.32" fill="none" stroke="#111" stroke-width="1.19" stroke-linecap="round" stroke-linejoin="round"/>
</svg>
