<?xml version="1.0" encoding="UTF-8"?>
<svg xmlns="http://www.w3.org/2000/svg" viewBox="0 0 29.00 28.98">
<path d="M 5.0 4.0 L 5.38 4.0 L 5.75 4.0 L 6.12 4.0 L 6.5 4.0 L 6.88 4.0 L 7.25 4.0 L 7.62 4.0 L 8.0 4.0 L 8.38 4.0 L 8.75 4.0 L 9.12 4.0 L 9.5 4.0 L 9.88 4.0 L 10.25 4.0 L 10.62 4.0 L 11.0 4.0 L 11.38 4.0 L 11.75 4.0 L 12.12 4.0 L 12.5 4.0 L 12.88 4.0 L 13.25 4.0 L 13.62 4.0 L 14.0 4.0" fill="none" stroke="#111" stroke-width="1.02" stroke-linecap="round" stroke-linejoin="round"/>
<path d="M 4.0 11.0 L 4.46 11.0 L 4.92 11.0 L 5.38 11.0 L 5.83 11.0 L 6.29 11.0 L 6.75 11.0 L 7.21 11.0 L 7.67 11.0 L 8.12 11.0 L 8.58 11.0 L 9.04 11.0 L 9.5 11.0 L 9.96 11.0 L 10.42 11.0 L 10.88 11.0 L 11.33 11.0 L 11.79 11.0 L 12.25 11.0 L 12.71 11.0 L 13.17 11.0 L 13.62 11.0 L 14.08 11.0 L 14.54 11.0 L 15.0 11.0" fill="none" stroke="#111" stroke-width="1.02" stroke-linecap="round" stroke-linejoin="round"/>
<path d="M 9.0 4.0 L 9.12 4.9 L 9.22 5.8 L 9.29 6.7 L 9.34 7.61 L 9.36 8.52 L 9.36 9.42 L 9.33 10.33 L 9.27 11.24 L 9.19 12.14 L 9.08 13.04 L 8.95 13.94 L 8.8 14.83 L 8.61 15.72 L 8.41 16.6 L 8.17 17.48 L 7.92 18.35 L 7.64 19.21 L 7.33 20.07 L 7.0 20.91 L 6.65 21.75 L 6.27 22.57 L 5.87 23.39 L 5.45 24.19 L 5.0 24.98" fill="none" stroke="#111" stroke-width="1.02" stroke-linecap="round" stroke-linejoin="round"/>
<path d="M 12.0 14.0 L 12.12 14.04 L 12.25 14.08 L 12.38 14.12 L 12.5 14.17 L 12.62 14.21 L 12.75 14.25 L 12.88 14.29 L 13.0 14.33 L 13.12 14.38 L 13.25 14.42 L 13.38 14.46 L 13.5 14.5 L 13.62 14.54 L 13.75 14.58 L 13.88 14.62 L 14.0 14.67 L 14.12 14.71 L 14.25 14.75 L 14.38 14.79 L 14.5 14.83 L 14.62 14.88 L 14.75 14.92 L 14.88 14.96 L 15.0 15.0 L 15.0 15.0 L 15.08 15.23 L 15.15 15.46 L 15.21 15.7 L 15.25 15.94 L 15.27 16.18 L 15.28 16.42 L 15.27 16.66 L 15.25 16.91 L 15.21 17.15 L 15.16 17.38 L 15.09 17.62 L 15.01 17.84 L 14.91 18.07 L 14.8 18.28 L 14.67 18.49 L 14.53 18.69 L 14.38 18.88 L 14.22 19.06 L 14.05 19.23 L 13.87 19.39 L 13.67 19.54 L 13.47 19.67 L 13.26 19.79 L 13.04 19.9 L 13.0 20.0 L 12.92 19.96 L 12.83 19.92 L 12.75 19.88 L 12.67 19.83 L 12.58 19.79 L 12.5 19.75 L 12.42 19.71 L 12.33 19.67 L 12.25 19.62 L 12.17 19.58 L 12.08 19.54 L 12.0 19.5 L 11.92 19.46 L 11.83 19.42 L 11.75 19.38 L 11.67 19.33 L 11.58 19.29 L 11.5 19.25 L 11.42 19.21 L 11.33 19.17 L 11.25 19.12 L 11.17 19.08 L 11.08 19.04 L 11.0 19.0" fill="none" stroke="#111" stroke-width="1.02" stroke-linecap="round" stroke-linejoin="round"/>
<path d="M 11.0 16.0 L 11.35 16.0 L 11.7 16.02 L 12.04 16.05 L 12.39 16.1 L 12.73 16.17 L 13.07 16.25 L 13.41 16.34 L 13.74 16.45 L 14.06 16.57 L 14.38 16.71 L 14.7 16.87 L 15.0 17.03 L 15.3 17.21 L 15.59 17.4 L 15.87 17.61 L 16.15 17.83 L 16.41 18.06 L 16.66 18.3 L 16.9 18.55 L 17.13 18.81 L 17.35 19.08 L 17.55 19.37 L 17.74 19.66 L 17.92 19.96 L 18.0 20.0 L 18.29 20.04 L 18.58 20.08 L 18.88 20.12 L 19.17 20.17 L 19.46 20.21 L 19.75 20.25 L 20.04 20.29 L 20.33 20.33 L 20.62 20.38 L 20.92 20.42 L 21.21 20.46 L 21.5 20.5 L 21.79 20.54 L 22.08 20.58 L 22.38 20.62 L 22.67 20.67 L 22.96 20.71 L 23.25 20.75 L 23.54 20.79 L 23.83 20.83 L 24.12 20.88 L 24.42 20.92 L 24.71 20.96 L 25.0 21.0" fill="none" stroke="#111" stroke-width="1.02" stroke-linecap="round" stroke-linejoin="round"/>
</svg>
