<?xml version="1.0" encoding="UTF-8"?>
<svg xmlns="http://www.w3.org/2000/svg" viewBox="0 0 28.95 33.94">
<path d="M 5.46 4.0 L 5.71 4.12 L 5.96 4.25 L 6.21 4.38 L 6.46 4.5 L 6.71 4.62 L 6.96 4.75 L 7.21 4.88 L 7.46 5.0 L 7.71 5.12 L 7.96 5.25 L 8.21 5.38 L 8.46 5.5 L 8.71 5.62 L 8.96 5.75 L 9.21 5.88 L 9.46 6.0 L 9.71 6.12 L 9.96 6.25 L 10.21 6.38 L 10.46 6.5 L 10.71 6.62 L 10.96 6.75 L 11.21 6.88 L 11.46 7.0 L 11.46 7.0 L 10.96 8.2 L 10.56 9.44 L 10.26 10.71 L 10.07 11.99 L 9.97 13.29 L 9.99 14.59 L 10.1 15.89 L 10.32 17.17 L 10.65 18.43 L 11.07 19.66 L 11.59 20.85 L 12.2 22.0 L 12.91 23.09 L 13.7 24.13 L 14.57 25.09 L 15.51 25.99 L 16.53 26.8 L 17.6 27.53 L 18.73 28.18 L 19.91 28.73 L 21.13 29.18 L 22.38 29.54 L 23.66 29.79 L 24.95 29.94" fill="none" stroke="#111" stroke-width="1.19" stroke-linecap="round" stroke-linejoin="round"/>
<path d="M 10.46 24.0 L 10.54 23.88 L 10.62 23.75 L 10.71 23.62 L 10.79 23.5 L 10.87 23.38 L 10.96 23.25 L 11.04 23.12 L 11.12 23.0 L 11.21 22.88 L 11.29 22.75 L 11.37 22.62 L 11.46 22.5 L 11.54 22.38 L 11.62 22.25 L 11.71 22.12 L 11.79 22.0 L 11.87 21.88 L 11.96 21.75 L 12.04 21.62 L 12.12 21.5 L 12.21 21.38 L 12.29 21.25 L 12.37 21.12 L 12.46 21.0 L 12.46 21.0 L 12.25 20.52 L 12.12 20.01 L 12.09 19.49 L 12.15 18.96 L 12.29 18.46 L 12.52 17.99 L 12.82 17.56 L 13.2 17.2 L 13.63 16.9 L 14.11 16.68 L 14.61 16.55 L 15.14 16.5 L 15.66 16.55 L 16.17 16.68 L 16.64 16.9 L 17.07 17.2 L 17.45 17.56 L 17.76 17.99 L 17.98 18.46 L 18.13 18.96 L 18.18 19.49 L 18.15 20.01 L 18.03 20.52 L 17.82 21.0" fill="none" stroke="#111" stroke-width="1.19" stroke-linecap="round" stroke-linejoin="round"/>
<path d="M 4.46 6.0 L 4.2 6.64 L 4.05 7.3 L 4.0 7.98 L 4.06 8.67 L 4.22 9.33 L 4.48 9.96 L 4.84 10.55 L 5.29 11.07 L 5.81 11.51 L 6.39 11.87 L 7.02 12.14 L 7.68 12.3 L 8.37 12.36 L 9.05 12.31 L 9.71 12.16 L 10.35 11.91 L 10.94 11.56 L 11.47 11.13 L 11.92 10.61 L 12.29 10.04 L 12.57 9.41 L 12.74 8.75 L 12.81 8.07 L 12.78 7.39" fill="none" stroke="#111" stroke-width="1.19" stroke-linecap="round" stroke-linejoin="round"/>
</svg>
