<?xml version="1.0" encoding="UTF-8"?>
<svg xmlns="http://www.w3.org/2000/svg" viewBox="0 0 27.22 39.58">
<path d="M 10.22 4.0 L 10.22 4.12 L 10.22 4.25 L 10.22 4.38 L 10.22 4.5 L 10.22 4.62 L 10.22 4.75 L 10.22 4.88 L 10.22 5.0 L 10.22 5.12 L 10.22 5.25 L 10.22 5.38 L 10.22 5.5 L 10.22 5.62 L 10.22 5.75 L 10.22 5.88 L 10.22 6.0 L 10.22 6.12 L 10.22 6.25 L 10.22 6.38 L 10.22 6.5 L 10.22 6.62 L 10.22 6.75 L 10.22 6.88 L 10.22 7.0" fill="none" stroke="#111" stroke-width="1.39" stroke-linecap="round" stroke-linejoin="round"/>
<path d="M 10.22 6.0 L 10.47 6.25 L 10.72 6.5 L 10.97 6.75 L 11.22 7.0 L 11.47 7.25 L 11.72 7.5 L 11.97 7.75 L 12.22 8.0 L 12.47 8.25 L 12.72 8.5 L 12.97 8.75 L 13.22 9.0 L 13.47 9.25 L 13.72 9.5 L 13.97 9.75 L 14.22 10.0 L 14.47 10.25 L 14.72 10.5 L 14.97 10.75 L 15.22 11.0 L 15.47 11.25 L 15.72 11.5 L 15.97 11.75 L 16.22 12.0" fill="none" stroke="#111" stroke-width="1.39" stroke-linecap="round" stroke-linejoin="round"/>
<path d="M 15.22 9.0 L 15.81 8.85 L 16.41 8.81 L 17.02 8.89 L 17.59 9.09 L 18.12 9.39 L 18.58 9.79 L 18.95 10.27 L 19.22 10.81 L 19.39 11.4 L 19.44 12.0 L 19.37 12.61 L 19.18 13.18 L 18.89 13.72 L 18.5 14.18 L 18.03 14.57 L 17.49 14.85 L 16.91 15.03 L 16.31 15.09 L 15.7 15.03 L 15.12 14.86 L 14.58 14.57 L 14.11 14.19 L 13.72 13.73 L 13.42 13.2" fill="none" stroke="#111" stroke-width="1.39" stroke-linecap="round" stroke-linejoin="round"/>
<path d="M 11.22 14.0 L 11.22 14.21 L 11.22 14.42 L 11.22 14.62 L 11.22 14.83 L 11.22 15.04 L 11.22 15.25 L 11.22 15.46 L 11.22 15.67 L 11.22 15.88 L 11.22 16.08 L 11.22 16.29 L 11.22 16.5 L 11.22 16.71 L 11.22 16.92 L 11.22 17.12 L 11.22 17.33 L 11.22 17.54 L 11.22 17.75 L 11.22 17.96 L 11.22 18.17 L 11.22 18.38 L 11.22 18.58 L 11.22 18.79 L 11.22 19.0" fill="none" stroke="#111" stroke-width="1.39" stroke-linecap="round" stroke-linejoin="round"/>
<path d="M 14.22 13.0 L 14.26 13.21 L 14.3 13.42 L 14.34 13.62 L 14.39 13.83 L 14.43 14.04 L 14.47 14.25 L 14.51 14.46 L 14.55 14.67 L 14.59 14.88 L 14.64 15.08 L 14.68 15.29 L 14.72 15.5 L 14.76 15.71 L 14.8 15.92 L 14.84 16.12 L 14.89 16.33 L 14.93 16.54 L 14.97 16.75 L 15.01 16.96 L 15.05 17.17 L 15.09 17.38 L 15.14 17.58 L 15.18 17.79 L 15.22 18.0 L 15.22 18.0 L 14.46 18.41 L 13.74 18.86 L 13.04 19.37 L 12.39 19.92 L 11.77 20.52 L 11.2 21.15 L 10.67 21.83 L 10.18 22.54 L 9.75 23.28 L 9.37 24.05 L 9.05 24.84 L 8.78 25.66 L 8.56 26.49 L 8.41 27.33 L 8.31 28.19 L 8.27 29.04 L 8.29 29.9 L 8.37 30.75 L 8.51 31.6 L 8.71 32.44 L 8.96 33.26 L 9.27 34.06 L 9.63 34.83 L 10.05 35.58" fill="none" stroke="#111" stroke-width="1.39" stroke-linecap="round" stroke-linejoin="round"/>
<path d="M 15.22 18.0 L 15.39 18.25 L 15.55 18.5 L 15.72 18.75 L 15.89 19.0 L 16.05 19.25 L 16.22 19.5 L 16.39 19.75 L 16.55 20.0 L 16.72 20.25 L 16.89 20.5 L 17.05 20.75 L 17.22 21.0 L 17.39 21.25 L 17.55 21.5 L 17.72 21.75 L 17.89 22.0 L 18.05 22.25 L 18.22 22.5 L 18.39 22.75 L 18.55 23.0 L 18.72 23.25 L 18.89 23.5 L 19.05 23.75 L 19.22 24.0 L 19.22 24.0 L 18.96 24.44 L 18.73 24.9 L 18.52 25.37 L 18.34 25.84 L 18.18 26.33 L 18.05 26.83 L 17.95 27.33 L 17.87 27.83 L 17.82 28.34 L 17.8 28.85 L 17.81 29.37 L 17.84 29.88 L 17.9 30.39 L 17.99 30.89 L 18.1 31.39 L 18.24 31.88 L 18.41 32.37 L 18.6 32.84 L 18.82 33.3 L 19.06 33.75 L 19.32 34.19 L 19.61 34.61 L 19.92 35.02 L 20.26 35.41" fill="none" stroke="#111" stroke-width="1.39" stroke-linecap="round" stroke-linejoin="round"/>
<path d="M 9.22 23.0 L 9.59 23.0 L 9.97 23.0 L 10.34 23.0 L 10.72 23.0 L 11.09 23.0 L 11.47 23.0 L 11.84 23.0 L 12.22 23.0 L 12.59 23.0 L 12.97 23.0 L 13.34 23.0 L 13.72 23.0 L 14.09 23.0 L 14.47 23.0 L 14.84 23.0 L 15.22 23.0 L 15.59 23.0 L 15.97 23.0 L 16.34 23.0 L 16.72 23.0 L 17.09 23.0 L 17.47 23.0 L 17.84 23.0 L 18.22 23.0" fill="none" stroke="#111" stroke-width="1.39" stroke-linecap="round" stroke-linejoin="round"/>
<path d="M 9.22 27.0 L 9.64 27.0 L 10.05 27.0 L 10.47 27.0 L 10.89 27.0 L 11.3 27.0 L 11.72 27.0 L 12.14 27.0 L 12.55 27.0 L 12.97 27.0 L 13.39 27.0 L 13.8 27.0 L 14.22 27.0 L 14.64 27.0 L 15.05 27.0 L 15.47 27.0 L 15.89 27.0 L 16.3 27.0 L 16.72 27.0 L 17.14 27.0 L 17.55 27.0 L 17.97 27.0 L 18.39 27.0 L 18.8 27.0 L 19.22 27.0" fill="none" stroke="#111" stroke-width="1.39" stroke-linecap="round" stroke-linejoin="round"/>
<path d="M 8.22 30.0 L 8.59 30.0 L 8.97 30.0 L 9.34 30.0 L 9.72 30.0 L 10.09 30.0 L 10.47 30.0 L 10.84 30.0 L 11.22 30.0 L 11.59 30.0 L 11.97 30.0 L 12.34 30.0 L 12.72 30.0 L 13.09 30.0 L 13.47 30.0 L 13.84 30.0 L 14.22 30.0 L 14.59 30.0 L 14.97 30.0 L 15.34 30.0 L 15.72 30.0 L 16.09 30.0 L 16.47 30.0 L 16.84 30.0 L 17.22 30.0" fill="none" stroke="#111" stroke-width="1.39" stroke-linecap="round" stroke-linejoin="round"/>
<path d="M 14.22 22.0 L 14.28 22.56 L 14.33 23.12 L 14.35 23.69 L 14.37 24.25 L 14.36 24.81 L 14.34 25.38 L 14.3 25.94 L 14.25 26.5 L 14.18 27.06 L 14.09 27.62 L 13.99 28.17 L 13.87 28.72 L 13.74 29.27 L 13.59 29.81 L 13.42 30.35 L 13.24 30.88 L 13.04 31.41 L 12.83 31.93 L 12.6 32.45 L 12.36 32.96 L 12.1 33.46 L 11.83 33.95 L 11.54 34.44 L 11.24 34.91" fill="none" stroke="#111" stroke-width="1.39" stroke-linecap="round" stroke-linejoin="round"/>
<path d="M 14.22 31.0 L 14.39 31.17 L 14.55 31.33 L 14.72 31.5 L 14.89 31.67 L 15.05 31.83 L 15.22 32.0 L 15.39 32.17 L 15.55 32.33 L 15.72 32.5 L 15.89 32.67 L 16.05 32.83 L 16.22 33.0 L 16.39 33.17 L 16.55 33.33 L 16.72 33.5 L 16.89 33.67 L 17.05 33.83 L 17.22 34.0 L 17.39 34.17 L 17.55 34.33 L 17.72 34.5 L 17.89 34.67 L 18.05 34.83 L 18.22 35.0" fill="none" stroke="#111" stroke-width="1.39" stroke-linecap="round" stroke-linejoin="round"/>
<path d="M 8.22 25.0 L 7.84 25.14 L 7.47 25.3 L 7.11 25.49 L 6.77 25.7 L 6.44 25.93 L 6.12 26.18 L 5.83 26.46 L 5.55 26.75 L 5.29 27.06 L 5.05 27.39 L 4.84 27.73 L 4.65 28.08 L 4.48 28.45 L 4.33 28.83 L 4.22 29.21 L 4.12 29.61 L 4.06 30.0 L 4.01 30.41 L 4.0 30.81 L 4.01 31.21 L 4.05 31.61 L 4.12 32.01 L 4.21 32.41 L 4.32 32.79" fill="none" stroke="#111" stroke-width="1.39" stroke-linecap="round" stroke-linejoin="round"/>
<path d="M 5.22 31.0 L 5.34 30.92 L 5.47 30.83 L 5.59 30.75 L 5.72 30.67 L 5.84 30.58 L 5.97 30.5 L 6.09 30.42 L 6.22 30.33 L 6.34 30.25 L 6.47 30.17 L 6.59 30.08 L 6.72 30.0 L 6.84 29.92 L 6.97 29.83 L 7.09 29.75 L 7.22 29.67 L 7.34 29.58 L 7.47 29.5 L 7.59 29.42 L 7.72 29.33 L 7.84 29.25 L 7.97 29.17 L 8.09 29.08 L 8.22 29.0" fill="none" stroke="#111" stroke-width="1.39" stroke-linecap="round" stroke-linejoin="round"/>
<path d="M 19.22 25.0 L 19.34 25.08 L 19.47 25.17 L 19.59 25.25 L 19.72 25.33 L 19.84 25.42 L 19.97 25.5 L 20.09 25.58 L 20.22 25.67 L 20.34 25.75 L 20.47 25.83 L 20.59 25.92 L 20.72 26.0 L 20.84 26.08 L 20.97 26.17 L 21.09 26.25 L 21.22 26.33 L 21.34 26.42 L 21.47 26.5 L 21.59 26.58 L 21.72 26.67 L 21.84 26.75 L 21.97 26.83 L 22.09 26.92 L 22.22 27.0" fill="none" stroke="#111" stroke-width="1.39" stroke-linecap="round" stroke-linejoin="round"/>
<path d="M 23.22 26.0 L 23.18 26.21 L 23.14 26.42 L 23.09 26.62 L 23.05 26.83 L 23.01 27.04 L 22.97 27.25 L 22.93 27.46 L 22.89 27.67 L 22.84 27.88 L 22.8 28.08 L 22.76 28.29 L 22.72 28.5 L 22.68 28.71 L 22.64 28.92 L 22.59 29.12 L 22.55 29.33 L 22.51 29.54 L 22.47 29.75 L 22.43 29.96 L 22.39 30.17 L 22.34 30.38 L 22.3 30.58 L 22.26 30.79 L 22.22 31.0" fill="none" stroke="#111" stroke-width="1.39" stroke-linecap="round" stroke-linejoin="round"/>
<path d="M 17.22 29.0 L 17.43 29.08 L 17.64 29.17 L 17.84 29.25 L 18.05 29.33 L 18.26 29.42 L 18.47 29.5 L 18.68 29.58 L 18.89 29.67 L 19.09 29.75 L 19.3 29.83 L 19.51 29.92 L 19.72 30.0 L 19.93 30.08 L 20.14 30.17 L 20.34 30.25 L 20.55 30.33 L 20.76 30.42 L 20.97 30.5 L 21.18 30.58 L 21.39 30.67 L 21.59 30.75 L 21.8 30.83 L 22.01 30.92 L 22.22 31.0" fill="none" stroke="#111" stroke-width="1.39" stroke-linecap="round" stroke-linejoin="round"/>
</svg>
