<?xml version="1.0" encoding="UTF-8"?>
<svg xmlns="http://www.w3.org/2000/svg" viewBox="0 0 21.00 30.00">
<path d="M 13.0 9.0 L 12.88 9.21 L 12.75 9.42 L 12.62 9.62 L 12.5 9.83 L 12.38 10.04 L 12.25 10.25 L 12.12 10.46 L 12.0 10.67 L 11.88 10.88 L 11.75 11.08 L 11.62 11.29 L 11.5 11.5 L 11.38 11.71 L 11.25 11.92 L 11.12 12.12 L 11.0 12.33 L 10.88 12.54 L 10.75 12.75 L 10.62 12.96 L 10.5 13.17 L 10.38 13.38 L 10.25 13.58 L 10.13 13.79 L 10.0 14.0" fill="none" stroke="#111" stroke-width="1.05" stroke-linecap="round" stroke-linejoin="round"/>
<path d="M 13.0 10.0 L 13.12 10.21 L 13.25 10.42 L 13.38 10.62 L 13.5 10.83 L 13.62 11.04 L 13.75 11.25 L 13.88 11.46 L 14.0 11.67 L 14.12 11.88 L 14.25 12.08 L 14.38 12.29 L 14.5 12.5 L 14.62 12.71 L 14.75 12.92 L 14.88 13.12 L 15.0 13.33 L 15.12 13.54 L 15.25 13.75 L 15.38 13.96 L 15.5 14.17 L 15.62 14.38 L 15.75 14.58 L 15.88 14.79 L 16.0 15.0" fill="none" stroke="#111" stroke-width="1.05" stroke-linecap="round" stroke-linejoin="round"/>
<path d="M 13.0 10.0 L 13.0 10.42 L 13.0 10.83 L 13.0 11.25 L 13.0 11.67 L 13.0 12.08 L 13.0 12.5 L 13.0 12.92 L 13.0 13.33 L 13.0 13.75 L 13.0 14.17 L 13.0 14.58 L 13.0 15.0 L 13.0 15.42 L 13.0 15.83 L 13.0 16.25 L 13.0 16.67 L 13.0 17.08 L 13.0 17.5 L 13.0 17.92 L 13.0 18.33 L 13.0 18.75 L 13.0 19.17 L 13.0 19.58 L 13.0 20.0" fill="none" stroke="#111" stroke-width="1.05" stroke-linecap="round" stroke-linejoin="round"/>
<path d="M 9.0 7.0 L 9.0 7.62 L 9.0 8.25 L 9.0 8.88 L 9.0 9.5 L 9.0 10.12 L 9.0 10.75 L 9.0 11.38 L 9.0 12.0 L 9.0 12.62 L 9.0 13.25 L 9.0 13.88 L 9.0 14.5 L 9.0 15.12 L 9.0 15.75 L 9.0 16.38 L 9.0 17.0 L 9.0 17.62 L 9.0 18.25 L 9.0 18.88 L 9.0 19.5 L 9.0 20.12 L 9.0 20.75 L 9.0 21.38 L 9.0 22.0" fill="none" stroke="#111" stroke-width="1.05" stroke-linecap="round" stroke-linejoin="round"/>
<path d="M 4.0 5.0 L 4.54 4.96 L 5.08 4.92 L 5.62 4.88 L 6.17 4.83 L 6.71 4.79 L 7.25 4.75 L 7.79 4.71 L 8.33 4.67 L 8.88 4.62 L 9.42 4.58 L 9.96 4.54 L 10.5 4.5 L 11.04 4.46 L 11.58 4.42 L 12.13 4.38 L 12.67 4.33 L 13.21 4.29 L 13.75 4.25 L 14.29 4.21 L 14.83 4.17 L 15.38 4.12 L 15.92 4.08 L 16.46 4.04 L 17.0 4.0" fill="none" stroke="#111" stroke-width="1.05" stroke-linecap="round" stroke-linejoin="round"/>
<path d="M 10.0 7.0 L 10.29 7.0 L 10.58 7.0 L 10.88 7.0 L 11.17 7.0 L 11.46 7.0 L 11.75 7.0 L 12.04 7.0 L 12.33 7.0 L 12.62 7.0 L 12.92 7.0 L 13.21 7.0 L 13.5 7.0 L 13.79 7.0 L 14.08 7.0 L 14.38 7.0 L 14.67 7.0 L 14.96 7.0 L 15.25 7.0 L 15.54 7.0 L 15.83 7.0 L 16.12 7.0 L 16.42 7.0 L 16.71 7.0 L 17.0 7.0" fill="none" stroke="#111" stroke-width="1.05" stroke-linecap="round" stroke-linejoin="round"/>
<path d="M 17.0 4.0 L 17.0 4.12 L 17.0 4.25 L 17.0 4.38 L 17.0 4.5 L 17.0 4.62 L 17.0 4.75 L 17.0 4.88 L 17.0 5.0 L 17.0 5.12 L 17.0 5.25 L 17.0 5.38 L 17.0 5.5 L 17.0 5.62 L 17.0 5.75 L 17.0 5.88 L 17.0 6.0 L 17.0 6.12 L 17.0 6.25 L 17.0 6.38 L 17.0 6.5 L 17.0 6.62 L 17.0 6.75 L 17.0 6.88 L 17.0 7.0" fill="none" stroke="#111" stroke-width="1.05" stroke-linecap="round" stroke-linejoin="round"/>
<path d="M 4.0 6.0 L 4.0 6.83 L 4.0 7.67 L 4.0 8.5 L 4.0 9.33 L 4.0 10.17 L 4.0 11.0 L 4.0 11.83 L 4.0 12.67 L 4.0 13.5 L 4.0 14.33 L 4.0 15.17 L 4.0 16.0 L 4.0 16.83 L 4.0 17.67 L 4.0 18.5 L 4.0 19.33 L 4.0 20.17 L 4.0 21.0 L 4.0 21.83 L 4.0 22.67 L 4.0 23.5 L 4.0 24.33 L 4.0 25.17 L 4.0 26.0" fill="none" stroke="#111" stroke-width="1.05" stroke-linecap="round" stroke-linejoin="round"/>
<path d="M 4.0 26.0 L 4.54 26.0 L 5.08 26.0 L 5.62 26.0 L 6.17 26.0 L 6.71 26.0 L 7.25 26.0 L 7.79 26.0 L 8.33 26.0 L 8.88 26.0 L 9.42 26.0 L 9.96 26.0 L 10.5 26.0 L 11.04 26.0 L 11.58 26.0 L 12.12 26.0 L 12.67 26.0 L 13.21 26.0 L 13.75 26.0 L 14.29 26.0 L 14.83 26.0 L 15.38 26.0 L 15.92 26.0 L 16.46 26.0 L 17.0 26.0" fill="none" stroke="#111" stroke-width="1.05" stroke-linecap="round" stroke-linejoin="round"/>
<path d="M 9.0 22.0 L 9.33 22.0 L 9.67 22.0 L 10.0 22.0 L 10.33 22.0 L 10.67 22.0 L 11.0 22.0 L 11.33 22.0 L 11.67 22.0 L 12.0 22.0 L 12.33 22.0 L 12.67 22.0 L 13.0 22.0 L 13.33 22.0 L 13.67 22.0 L 14.0 22.0 L 14.33 22.0 L 14.67 22.0 L 15.0 22.0 L 15.33 22.0 L 15.67 22.0 L 16.0 22.0 L 16.33 22.0 L 16.67 22.0 L 17.0 22.0" fill="none" stroke="#111" stroke-width="1.05" stroke-linecap="round" stroke-linejoin="round"/>
<path d="M 17.0 22.0 L 17.0 22.17 L 17.0 22.33 L 17.0 22.5 L 17.0 22.67 L 17.0 22.83 L 17.0 23.0 L 17.0 23.17 L 17.0 23.33 L 17.0 23.5 L 17.0 23.67 L 17.0 23.83 L 17.0 24.0 L 17.0 24.17 L 17.0 24.33 L 17.0 24.5 L 17.0 24.67 L 17.0 24.83 L 17.0 25.0 L 17.0 25.17 L 17.0 25.33 L 17.0 25.5 L 17.0 25.67 L 17.0 25.83 L 17.0 26.0" fill="none" stroke="#111" stroke-width="1.05" stroke-linecap="round" stroke-linejoin="round"/>
<path d="M 5.0 8.0 L 5.12 8.12 L 5.25 8.25 L 5.38 8.38 L 5.5 8.5 L 5.62 8.62 L 5.75 8.75 L 5.88 8.88 L 6.0 9.0 L 6.12 9.12 L 6.25 9.25 L 6.38 9.38 L 6.5 9.5 L 6.62 9.62 L 6.75 9.75 L 6.88 9.88 L 7.0 10.0 L 7.12 10.12 L 7.25 10.25 L 7.38 10.38 L 7.5 10.5 L 7.62 10.62 L 7.75 10.75 L 7.88 10.88 L 8.0 11.0" fill="none" stroke="#111" stroke-width="1.05" stroke-linecap="round" stroke-linejoin="round"/>
<path d="M 8.0 10.0 L 7.88 10.21 L 7.75 10.42 L 7.62 10.62 L 7.5 10.83 L 7.38 11.04 L 7.25 11.25 L 7.12 11.46 L 7.0 11.67 L 6.88 11.88 L 6.75 12.08 L 6.63 12.29 L 6.5 12.5 L 6.38 12.71 L 6.25 12.92 L 6.12 13.12 L 6.0 13.33 L 5.88 13.54 L 5.75 13.75 L 5.63 13.96 L 5.5 14.17 L 5.38 14.38 L 5.25 14.58 L 5.13 14.79 L 5.0 15.0" fill="none" stroke="#111" stroke-width="1.05" stroke-linecap="round" stroke-linejoin="round"/>
<path d="M 5.0 15.0 L 5.08 15.12 L 5.17 15.25 L 5.25 15.38 L 5.33 15.5 L 5.42 15.62 L 5.5 15.75 L 5.58 15.88 L 5.67 16.0 L 5.75 16.12 L 5.83 16.25 L 5.92 16.38 L 6.0 16.5 L 6.08 16.62 L 6.17 16.75 L 6.25 16.88 L 6.33 17.0 L 6.42 17.12 L 6.5 17.25 L 6.58 17.38 L 6.67 17.5 L 6.75 17.62 L 6.83 17.75 L 6.92 17.88 L 7.0 18.0" fill="none" stroke="#111" stroke-width="1.05" stroke-linecap="round" stroke-linejoin="round"/>
<path d="M 7.0 18.0 L 6.88 18.17 L 6.75 18.33 L 6.62 18.5 L 6.5 18.67 L 6.38 18.83 L 6.25 19.0 L 6.12 19.17 L 6.0 19.33 L 5.88 19.5 L 5.75 19.67 L 5.62 19.83 L 5.5 20.0 L 5.38 20.17 L 5.25 20.33 L 5.12 20.5 L 5.0 20.67 L 4.88 20.83 L 4.75 21.0 L 4.62 21.17 L 4.5 21.33 L 4.38 21.5 L 4.25 21.67 L 4.12 21.83 L 4.0 22.0" fill="none" stroke="#111" stroke-width="1.05" stroke-linecap="round" stroke-linejoin="round"/>
</svg>
