<?xml version="1.0" encoding="UTF-8"?>
<svg xmlns="http://www.w3.org/2000/svg" viewBox="0 0 30.84 36.36">
<path d="M 5.0 10.0 L 5.42 10.0 L 5.83 10.0 L 6.25 10.0 L 6.67 10.0 L 7.08 10.0 L 7.5 10.0 L 7.92 10.0 L 8.33 10.0 L 8.75 10.0 L 9.17 10.0 L 9.58 10.0 L 10.0 10.0 L 10.42 10.0 L 10.83 10.0 L 11.25 10.0 L 11.67 10.0 L 12.08 10.0 L 12.5 10.0 L 12.92 10.0 L 13.33 10.0 L 13.75 10.0 L 14.17 10.0 L 14.58 10.0 L 15.0 10.0" fill="none" stroke="#111" stroke-width="1.27" stroke-linecap="round" stroke-linejoin="round"/>
<path d="M 4.0 14.0 L 4.42 14.0 L 4.83 14.0 L 5.25 14.0 L 5.67 14.0 L 6.08 14.0 L 6.5 14.0 L 6.92 14.0 L 7.33 14.0 L 7.75 14.0 L 8.17 14.0 L 8.58 14.0 L 9.0 14.0 L 9.42 14.0 L 9.83 14.0 L 10.25 14.0 L 10.67 14.0 L 11.08 14.0 L 11.5 14.0 L 11.92 14.0 L 12.33 14.0 L 12.75 14.0 L 13.17 14.0 L 13.58 14.0 L 14.0 14.0" fill="none" stroke="#111" stroke-width="1.27" stroke-linecap="round" stroke-linejoin="round"/>
<path d="M 4.0 14.0 L 4.17 14.62 L 4.33 15.25 L 4.5 15.88 L 4.67 16.5 L 4.83 17.12 L 5.0 17.75 L 5.17 18.38 L 5.33 19.0 L 5.5 19.62 L 5.67 20.25 L 5.83 20.88 L 6.0 21.5 L 6.17 22.12 L 6.33 22.75 L 6.5 23.38 L 6.67 24.0 L 6.83 24.62 L 7.0 25.25 L 7.17 25.88 L 7.33 26.5 L 7.5 27.12 L 7.67 27.75 L 7.83 28.38 L 8.0 29.0" fill="none" stroke="#111" stroke-width="1.27" stroke-linecap="round" stroke-linejoin="round"/>
<path d="M 14.0 14.0 L 13.75 14.62 L 13.5 15.25 L 13.25 15.88 L 13.0 16.5 L 12.75 17.12 L 12.5 17.75 L 12.25 18.38 L 12.0 19.0 L 11.75 19.62 L 11.5 20.25 L 11.25 20.88 L 11.0 21.5 L 10.75 22.12 L 10.5 22.75 L 10.25 23.38 L 10.0 24.0 L 9.75 24.62 L 9.5 25.25 L 9.25 25.88 L 9.0 26.5 L 8.75 27.12 L 8.5 27.75 L 8.25 28.38 L 8.0 29.0" fill="none" stroke="#111" stroke-width="1.27" stroke-linecap="round" stroke-linejoin="round"/>
<path d="M 6.0 10.0 L 6.0 10.17 L 6.0 10.33 L 6.0 10.5 L 6.0 10.67 L 6.0 10.83 L 6.0 11.0 L 6.0 11.17 L 6.0 11.33 L 6.0 11.5 L 6.0 11.67 L 6.0 11.83 L 6.0 12.0 L 6.0 12.17 L 6.0 12.33 L 6.0 12.5 L 6.0 12.67 L 6.0 12.83 L 6.0 13.0 L 6.0 13.17 L 6.0 13.33 L 6.0 13.5 L 6.0 13.67 L 6.0 13.83 L 6.0 14.0" fill="none" stroke="#111" stroke-width="1.27" stroke-linecap="round" stroke-linejoin="round"/>
<path d="M 12.0 10.0 L 12.0 10.12 L 12.0 10.25 L 12.0 10.38 L 12.0 10.5 L 12.0 10.62 L 12.0 10.75 L 12.0 10.88 L 12.0 11.0 L 12.0 11.12 L 12.0 11.25 L 12.0 11.38 L 12.0 11.5 L 12.0 11.62 L 12.0 11.75 L 12.0 11.88 L 12.0 12.0 L 12.0 12.12 L 12.0 12.25 L 12.0 12.38 L 12.0 12.5 L 12.0 12.62 L 12.0 12.75 L 12.0 12.88 L 12.0 13.0" fill="none" stroke="#111" stroke-width="1.27" stroke-linecap="round" stroke-linejoin="round"/>
<path d="M 5.0 18.0 L 5.25 18.0 L 5.5 18.0 L 5.75 18.0 L 6.0 18.0 L 6.25 18.0 L 6.5 18.0 L 6.75 18.0 L 7.0 18.0 L 7.25 18.0 L 7.5 18.0 L 7.75 18.0 L 8.0 18.0 L 8.25 18.0 L 8.5 18.0 L 8.75 18.0 L 9.0 18.0 L 9.25 18.0 L 9.5 18.0 L 9.75 18.0 L 10.0 18.0 L 10.25 18.0 L 10.5 18.0 L 10.75 18.0 L 11.0 18.0" fill="none" stroke="#111" stroke-width="1.27" stroke-linecap="round" stroke-linejoin="round"/>
<path d="M 7.0 22.0 L 7.12 22.0 L 7.25 22.0 L 7.38 22.0 L 7.5 22.0 L 7.62 22.0 L 7.75 22.0 L 7.88 22.0 L 8.0 22.0 L 8.12 22.0 L 8.25 22.0 L 8.38 22.0 L 8.5 22.0 L 8.62 22.0 L 8.75 22.0 L 8.88 22.0 L 9.0 22.0 L 9.12 22.0 L 9.25 22.0 L 9.38 22.0 L 9.5 22.0 L 9.62 22.0 L 9.75 22.0 L 9.88 22.0 L 10.0 22.0" fill="none" stroke="#111" stroke-width="1.27" stroke-linecap="round" stroke-linejoin="round"/>
<path d="M 4.0 6.0 L 4.0 6.08 L 4.0 6.17 L 4.0 6.25 L 4.0 6.33 L 4.0 6.42 L 4.0 6.5 L 4.0 6.58 L 4.0 6.67 L 4.0 6.75 L 4.0 6.83 L 4.0 6.92 L 4.0 7.0 L 4.0 7.08 L 4.0 7.17 L 4.0 7.25 L 4.0 7.33 L 4.0 7.42 L 4.0 7.5 L 4.0 7.58 L 4.0 7.67 L 4.0 7.75 L 4.0 7.83 L 4.0 7.92 L 4.0 8.0" fill="none" stroke="#111" stroke-width="1.27" stroke-linecap="round" stroke-linejoin="round"/>
<path d="M 9.0 5.0 L 9.0 5.12 L 9.0 5.25 L 9.0 5.38 L 9.0 5.5 L 9.0 5.62 L 9.0 5.75 L 9.0 5.88 L 9.0 6.0 L 9.0 6.12 L 9.0 6.25 L 9.0 6.38 L 9.0 6.5 L 9.0 6.62 L 9.0 6.75 L 9.0 6.88 L 9.0 7.0 L 9.0 7.12 L 9.0 7.25 L 9.0 7.38 L 9.0 7.5 L 9.0 7.62 L 9.0 7.75 L 9.0 7.88 L 9.0 8.0" fill="none" stroke="#111" stroke-width="1.27" stroke-linecap="round" stroke-linejoin="round"/>
<path d="M 13.0 4.0 L 13.0 4.17 L 13.0 4.33 L 13.0 4.5 L 13.0 4.67 L 13.0 4.83 L 13.0 5.0 L 13.0 5.17 L 13.0 5.33 L 13.0 5.5 L 13.0 5.67 L 13.0 5.83 L 13.0 6.0 L 13.0 6.17 L 13.0 6.33 L 13.0 6.5 L 13.0 6.67 L 13.0 6.83 L 13.0 7.0 L 13.0 7.17 L 13.0 7.33 L 13.0 7.5 L 13.0 7.67 L 13.0 7.83 L 13.0 8.0" fill="none" stroke="#111" stroke-width="1.27" stroke-linecap="round" stroke-linejoin="round"/>
<path d="M 19.0 9.0 L 19.85 9.26 L 20.67 9.61 L 21.45 10.05 L 22.17 10.57 L 22.83 11.17 L 23.42 11.84 L 23.93 12.57 L 24.36 13.36 L 24.7 14.18 L 24.95 15.04 L 25.09 15.92 L 25.14 16.81 L 25.09 17.7 L 24.95 18.58 L 24.7 19.44 L 24.36 20.27 L 23.93 21.05 L 23.42 21.78 L 22.83 22.45 L 22.17 23.05 L 21.45 23.57 L 20.67 24.01 L 19.85 24.37 L 19.0 24.62 L 19.0 25.0 L 19.51 24.51 L 20.08 24.11 L 20.71 23.81 L 21.38 23.6 L 22.08 23.5 L 22.78 23.51 L 23.47 23.63 L 24.13 23.86 L 24.75 24.19 L 25.32 24.6 L 25.81 25.11 L 26.21 25.68 L 26.53 26.3 L 26.74 26.97 L 26.84 27.67 L 26.84 28.37 L 26.72 29.06 L 26.51 29.73 L 26.18 30.35 L 25.77 30.92 L 25.27 31.41 L 24.71 31.82 L 24.08 32.14 L 23.42 32.36" fill="none" stroke="#111" stroke-width="1.27" stroke-linecap="round" stroke-linejoin="round"/>
<path d="M 21.0 12.0 L 20.83 12.33 L 20.67 12.67 L 20.5 13.0 L 20.33 13.33 L 20.17 13.67 L 20.0 14.0 L 19.83 14.33 L 19.67 14.67 L 19.5 15.0 L 19.33 15.33 L 19.17 15.67 L 19.0 16.0 L 18.83 16.33 L 18.67 16.67 L 18.5 17.0 L 18.33 17.33 L 18.17 17.67 L 18.0 18.0 L 17.83 18.33 L 17.67 18.67 L 17.5 19.0 L 17.33 19.33 L 17.17 19.67 L 17.0 20.0" fill="none" stroke="#111" stroke-width="1.27" stroke-linecap="round" stroke-linejoin="round"/>
</svg>
