<?xml version="1.0" encoding="UTF-8"?>
<svg xmlns="http://www.w3.org/2000/svg" viewBox="0 0 28.00 32.70">
<path d="M 13.0 8.0 L 13.0 8.58 L 13.0 9.17 L 13.0 9.75 L 13.0 10.33 L 13.0 10.92 L 13.0 11.5 L 13.0 12.08 L 13.0 12.67 L 13.0 13.25 L 13.0 13.83 L 13.0 14.42 L 13.0 15.0 L 13.0 15.58 L 13.0 16.17 L 13.0 16.75 L 13.0 17.33 L 13.0 17.92 L 13.0 18.5 L 13.0 19.08 L 13.0 19.67 L 13.0 20.25 L 13.0 20.83 L 13.0 21.42 L 13.0 22.0" fill="none" stroke="#111" stroke-width="1.14" stroke-linecap="round" stroke-linejoin="round"/>
<path d="M 9.0 20.0 L 8.46 18.88 L 8.12 17.69 L 8.0 16.46 L 8.09 15.22 L 8.4 14.02 L 8.91 12.89 L 9.62 11.87 L 10.49 10.99 L 11.5 10.27 L 12.62 9.74 L 13.82 9.42 L 15.06 9.31 L 16.29 9.42 L 17.49 9.74 L 18.61 10.27 L 19.63 10.99 L 20.5 11.87 L 21.2 12.89 L 21.72 14.02 L 22.02 15.22 L 22.12 16.46 L 21.99 17.69 L 21.66 18.88 L 21.12 20.0" fill="none" stroke="#111" stroke-width="1.14" stroke-linecap="round" stroke-linejoin="round"/>
<path d="M 9.0 12.0 L 9.38 12.04 L 9.75 12.08 L 10.12 12.12 L 10.5 12.17 L 10.88 12.21 L 11.25 12.25 L 11.62 12.29 L 12.0 12.33 L 12.38 12.38 L 12.75 12.42 L 13.12 12.46 L 13.5 12.5 L 13.88 12.54 L 14.25 12.58 L 14.62 12.62 L 15.0 12.67 L 15.38 12.71 L 15.75 12.75 L 16.12 12.79 L 16.5 12.83 L 16.88 12.88 L 17.25 12.92 L 17.62 12.96 L 18.0 13.0" fill="none" stroke="#111" stroke-width="1.14" stroke-linecap="round" stroke-linejoin="round"/>
<path d="M 9.0 16.0 L 9.33 16.0 L 9.67 16.0 L 10.0 16.0 L 10.33 16.0 L 10.67 16.0 L 11.0 16.0 L 11.33 16.0 L 11.67 16.0 L 12.0 16.0 L 12.33 16.0 L 12.67 16.0 L 13.0 16.0 L 13.33 16.0 L 13.67 16.0 L 14.0 16.0 L 14.33 16.0 L 14.67 16.0 L 15.0 16.0 L 15.33 16.0 L 15.67 16.0 L 16.0 16.0 L 16.33 16.0 L 16.67 16.0 L 17.0 16.0" fill="none" stroke="#111" stroke-width="1.14" stroke-linecap="round" stroke-linejoin="round"/>
<path d="M 4.0 8.0 L 4.21 8.0 L 4.42 8.0 L 4.62 8.0 L 4.83 8.0 L 5.04 8.0 L 5.25 8.0 L 5.46 8.0 L 5.67 8.0 L 5.88 8.0 L 6.08 8.0 L 6.29 8.0 L 6.5 8.0 L 6.71 8.0 L 6.92 8.0 L 7.12 8.0 L 7.33 8.0 L 7.54 8.0 L 7.75 8.0 L 7.96 8.0 L 8.17 8.0 L 8.38 8.0 L 8.58 8.0 L 8.79 8.0 L 9.0 8.0" fill="none" stroke="#111" stroke-width="1.14" stroke-linecap="round" stroke-linejoin="round"/>
<path d="M 7.0 5.0 L 6.96 5.25 L 6.92 5.5 L 6.88 5.75 L 6.83 6.0 L 6.79 6.25 L 6.75 6.5 L 6.71 6.75 L 6.67 7.0 L 6.62 7.25 L 6.58 7.5 L 6.54 7.75 L 6.5 8.0 L 6.46 8.25 L 6.42 8.5 L 6.38 8.75 L 6.33 9.0 L 6.29 9.25 L 6.25 9.5 L 6.21 9.75 L 6.17 10.0 L 6.12 10.25 L 6.08 10.5 L 6.04 10.75 L 6.0 11.0" fill="none" stroke="#111" stroke-width="1.14" stroke-linecap="round" stroke-linejoin="round"/>
<path d="M 17.0 7.0 L 17.25 7.0 L 17.5 7.0 L 17.75 7.0 L 18.0 7.0 L 18.25 7.0 L 18.5 7.0 L 18.75 7.0 L 19.0 7.0 L 19.25 7.0 L 19.5 7.0 L 19.75 7.0 L 20.0 7.0 L 20.25 7.0 L 20.5 7.0 L 20.75 7.0 L 21.0 7.0 L 21.25 7.0 L 21.5 7.0 L 21.75 7.0 L 22.0 7.0 L 22.25 7.0 L 22.5 7.0 L 22.75 7.0 L 23.0 7.0" fill="none" stroke="#111" stroke-width="1.14" stroke-linecap="round" stroke-linejoin="round"/>
<path d="M 20.0 4.0 L 20.0 4.29 L 20.0 4.58 L 20.0 4.88 L 20.0 5.17 L 20.0 5.46 L 20.0 5.75 L 20.0 6.04 L 20.0 6.33 L 20.0 6.62 L 20.0 6.92 L 20.0 7.21 L 20.0 7.5 L 20.0 7.79 L 20.0 8.08 L 20.0 8.38 L 20.0 8.67 L 20.0 8.96 L 20.0 9.25 L 20.0 9.54 L 20.0 9.83 L 20.0 10.12 L 20.0 10.42 L 20.0 10.71 L 20.0 11.0" fill="none" stroke="#111" stroke-width="1.14" stroke-linecap="round" stroke-linejoin="round"/>
<path d="M 4.0 22.0 L 4.17 22.0 L 4.33 22.0 L 4.5 22.0 L 4.67 22.0 L 4.83 22.0 L 5.0 22.0 L 5.17 22.0 L 5.33 22.0 L 5.5 22.0 L 5.67 22.0 L 5.83 22.0 L 6.0 22.0 L 6.17 22.0 L 6.33 22.0 L 6.5 22.0 L 6.67 22.0 L 6.83 22.0 L 7.0 22.0 L 7.17 22.0 L 7.33 22.0 L 7.5 22.0 L 7.67 22.0 L 7.83 22.0 L 8.0 22.0" fill="none" stroke="#111" stroke-width="1.14" stroke-linecap="round" stroke-linejoin="round"/>
<path d="M 6.0 20.0 L 6.04 20.25 L 6.08 20.5 L 6.12 20.75 L 6.17 21.0 L 6.21 21.25 L 6.25 21.5 L 6.29 21.75 L 6.33 22.0 L 6.38 22.25 L 6.42 22.5 L 6.46 22.75 L 6.5 23.0 L 6.54 23.25 L 6.58 23.5 L 6.62 23.75 L 6.67 24.0 L 6.71 24.25 L 6.75 24.5 L 6.79 24.75 L 6.83 25.0 L 6.88 25.25 L 6.92 25.5 L 6.96 25.75 L 7.0 26.0" fill="none" stroke="#111" stroke-width="1.14" stroke-linecap="round" stroke-linejoin="round"/>
<path d="M 17.0 21.0 L 17.29 21.0 L 17.58 21.0 L 17.88 21.0 L 18.17 21.0 L 18.46 21.0 L 18.75 21.0 L 19.04 21.0 L 19.33 21.0 L 19.62 21.0 L 19.92 21.0 L 20.21 21.0 L 20.5 21.0 L 20.79 21.0 L 21.08 21.0 L 21.38 21.0 L 21.67 21.0 L 21.96 21.0 L 22.25 21.0 L 22.54 21.0 L 22.83 21.0 L 23.12 21.0 L 23.42 21.0 L 23.71 21.0 L 24.0 21.0" fill="none" stroke="#111" stroke-width="1.14" stroke-linecap="round" stroke-linejoin="round"/>
<path d="M 21.0 18.0 L 20.96 18.29 L 20.92 18.58 L 20.88 18.88 L 20.83 19.17 L 20.79 19.46 L 20.75 19.75 L 20.71 20.04 L 20.67 20.33 L 20.62 20.62 L 20.58 20.92 L 20.54 21.21 L 20.5 21.5 L 20.46 21.79 L 20.42 22.08 L 20.38 22.38 L 20.33 22.67 L 20.29 22.96 L 20.25 23.25 L 20.21 23.54 L 20.17 23.83 L 20.12 24.12 L 20.08 24.42 L 20.04 24.71 L 20.0 25.0" fill="none" stroke="#111" stroke-width="1.14" stroke-linecap="round" stroke-linejoin="round"/>
<path d="M 10.0 23.0 L 9.75 23.62 L 9.6 24.26 L 9.56 24.93 L 9.64 25.59 L 9.84 26.23 L 10.13 26.83 L 10.52 27.36 L 11.0 27.83 L 11.55 28.2 L 12.16 28.48 L 12.8 28.64 L 13.47 28.7 L 14.13 28.64 L 14.78 28.48 L 15.38 28.2 L 15.93 27.83 L 16.41 27.36 L 16.8 26.83 L 17.1 26.23 L 17.29 25.59 L 17.37 24.93 L 17.34 24.26 L 17.19 23.62 L 16.94 23.0" fill="none" stroke="#111" stroke-width="1.14" stroke-linecap="round" stroke-linejoin="round"/>
</svg>
