<?xml version="1.0" encoding="UTF-8"?>
<svg xmlns="http://www.w3.org/2000/svg" viewBox="0 0 26.74 31.02">
<path d="M 12.99 4.0 L 12.78 4.25 L 12.57 4.5 L 12.37 4.75 L 12.16 5.0 L 11.95 5.25 L 11.74 5.5 L 11.53 5.75 L 11.32 6.0 L 11.12 6.25 L 10.91 6.5 L 10.7 6.75 L 10.49 7.0 L 10.28 7.25 L 10.07 7.5 L 9.87 7.75 L 9.66 8.0 L 9.45 8.25 L 9.24 8.5 L 9.03 8.75 L 8.82 9.0 L 8.62 9.25 L 8.41 9.5 L 8.2 9.75 L 7.99 10.0 L 7.99 10.0 L 8.27 10.69 L 8.52 11.4 L 8.73 12.11 L 8.92 12.84 L 9.07 13.57 L 9.19 14.31 L 9.28 15.05 L 9.34 15.79 L 9.37 16.54 L 9.36 17.29 L 9.32 18.03 L 9.25 18.78 L 9.15 19.51 L 9.01 20.25 L 8.84 20.98 L 8.65 21.7 L 8.42 22.41 L 8.16 23.11 L 7.87 23.8 L 7.55 24.47 L 7.2 25.13 L 6.82 25.78 L 6.42 26.41 L 5.99 27.02" fill="none" stroke="#111" stroke-width="1.09" stroke-linecap="round" stroke-linejoin="round"/>
<path d="M 12.99 4.0 L 13.28 4.25 L 13.57 4.5 L 13.87 4.75 L 14.16 5.0 L 14.45 5.25 L 14.74 5.5 L 15.03 5.75 L 15.32 6.0 L 15.62 6.25 L 15.91 6.5 L 16.2 6.75 L 16.49 7.0 L 16.78 7.25 L 17.07 7.5 L 17.37 7.75 L 17.66 8.0 L 17.95 8.25 L 18.24 8.5 L 18.53 8.75 L 18.82 9.0 L 19.12 9.25 L 19.41 9.5 L 19.7 9.75 L 19.99 10.0" fill="none" stroke="#111" stroke-width="1.09" stroke-linecap="round" stroke-linejoin="round"/>
<path d="M 19.99 10.0 L 19.94 10.43 L 19.88 10.87 L 19.82 11.3 L 19.75 11.73 L 19.67 12.16 L 19.59 12.59 L 19.5 13.02 L 19.4 13.44 L 19.3 13.87 L 19.19 14.29 L 19.07 14.71 L 18.95 15.13 L 18.82 15.55 L 18.69 15.96 L 18.55 16.38 L 18.4 16.79 L 18.24 17.2 L 18.08 17.6 L 17.92 18.01 L 17.75 18.41 L 17.57 18.81 L 17.38 19.2 L 17.19 19.6 L 17.0 19.99 L 16.99 20.0 L 17.12 20.31 L 17.26 20.62 L 17.39 20.93 L 17.53 21.23 L 17.68 21.54 L 17.83 21.84 L 17.98 22.14 L 18.13 22.44 L 18.28 22.74 L 18.44 23.03 L 18.61 23.33 L 18.77 23.62 L 18.94 23.91 L 19.11 24.2 L 19.29 24.49 L 19.46 24.78 L 19.64 25.06 L 19.83 25.34 L 20.01 25.62 L 20.2 25.9 L 20.4 26.18 L 20.59 26.45 L 20.79 26.73 L 20.99 27.0" fill="none" stroke="#111" stroke-width="1.09" stroke-linecap="round" stroke-linejoin="round"/>
<path d="M 8.99 21.0 L 9.37 21.0 L 9.74 21.0 L 10.12 21.0 L 10.49 21.0 L 10.87 21.0 L 11.24 21.0 L 11.62 21.0 L 11.99 21.0 L 12.37 21.0 L 12.74 21.0 L 13.12 21.0 L 13.49 21.0 L 13.87 21.0 L 14.24 21.0 L 14.62 21.0 L 14.99 21.0 L 15.37 21.0 L 15.74 21.0 L 16.12 21.0 L 16.49 21.0 L 16.87 21.0 L 17.24 21.0 L 17.62 21.0 L 17.99 21.0" fill="none" stroke="#111" stroke-width="1.09" stroke-linecap="round" stroke-linejoin="round"/>
<path d="M 8.99 10.0 L 9.41 10.0 L 9.82 10.0 L 10.24 10.0 L 10.66 10.0 L 11.07 10.0 L 11.49 10.0 L 11.91 10.0 L 12.32 10.0 L 12.74 10.0 L 13.16 10.0 L 13.57 10.0 L 13.99 10.0 L 14.41 10.0 L 14.82 10.0 L 15.24 10.0 L 15.66 10.0 L 16.07 10.0 L 16.49 10.0 L 16.91 10.0 L 17.32 10.0 L 17.74 10.0 L 18.16 10.0 L 18.57 10.0 L 18.99 10.0" fill="none" stroke="#111" stroke-width="1.09" stroke-linecap="round" stroke-linejoin="round"/>
<path d="M 8.99 15.0 L 9.37 15.04 L 9.74 15.08 L 10.12 15.12 L 10.49 15.17 L 10.87 15.21 L 11.24 15.25 L 11.62 15.29 L 11.99 15.33 L 12.37 15.38 L 12.74 15.42 L 13.12 15.46 L 13.49 15.5 L 13.87 15.54 L 14.24 15.58 L 14.62 15.62 L 14.99 15.67 L 15.37 15.71 L 15.74 15.75 L 16.12 15.79 L 16.49 15.83 L 16.87 15.88 L 17.24 15.92 L 17.62 15.96 L 17.99 16.0" fill="none" stroke="#111" stroke-width="1.09" stroke-linecap="round" stroke-linejoin="round"/>
<path d="M 13.99 10.0 L 14.3 10.72 L 14.55 11.46 L 14.75 12.22 L 14.89 12.99 L 14.98 13.77 L 15.01 14.55 L 14.98 15.34 L 14.89 16.12 L 14.75 16.89 L 14.55 17.64 L 14.3 18.39 L 14.0 19.11 L 13.64 19.81 L 13.23 20.47 L 12.78 21.11 L 12.28 21.72 L 11.74 22.28 L 11.15 22.81 L 10.54 23.29 L 9.88 23.72 L 9.2 24.11 L 8.49 24.44 L 7.76 24.72 L 7.01 24.95" fill="none" stroke="#111" stroke-width="1.09" stroke-linecap="round" stroke-linejoin="round"/>
<path d="M 12.99 22.0 L 13.23 22.27 L 13.47 22.54 L 13.72 22.8 L 13.97 23.06 L 14.23 23.31 L 14.49 23.56 L 14.76 23.8 L 15.03 24.03 L 15.31 24.26 L 15.6 24.49 L 15.88 24.71 L 16.17 24.92 L 16.47 25.13 L 16.77 25.33 L 17.07 25.52 L 17.38 25.71 L 17.69 25.89 L 18.01 26.07 L 18.33 26.24 L 18.65 26.4 L 18.97 26.56 L 19.3 26.7 L 19.63 26.85 L 19.97 26.98" fill="none" stroke="#111" stroke-width="1.09" stroke-linecap="round" stroke-linejoin="round"/>
<path d="M 8.99 13.0 L 8.41 12.86 L 7.81 12.81 L 7.22 12.85 L 6.64 12.99 L 6.08 13.22 L 5.57 13.53 L 5.12 13.92 L 4.73 14.37 L 4.42 14.88 L 4.19 15.43 L 4.05 16.01 L 4.0 16.61 L 4.05 17.21 L 4.19 17.79 L 4.42 18.34 L 4.73 18.85 L 5.12 19.3 L 5.57 19.69 L 6.08 20.0 L 6.64 20.23 L 7.22 20.37 L 7.81 20.41 L 8.41 20.36 L 8.99 20.22" fill="none" stroke="#111" stroke-width="1.09" stroke-linecap="round" stroke-linejoin="round"/>
<path d="M 18.99 13.0 L 19.41 13.07 L 19.82 13.17 L 20.22 13.32 L 20.6 13.51 L 20.97 13.74 L 21.3 14.0 L 21.61 14.3 L 21.88 14.62 L 22.12 14.98 L 22.33 15.35 L 22.49 15.74 L 22.62 16.15 L 22.7 16.57 L 22.74 16.99 L 22.74 17.42 L 22.69 17.84 L 22.6 18.26 L 22.47 18.67 L 22.29 19.06 L 22.08 19.43 L 21.84 19.77 L 21.55 20.09 L 21.24 20.38 L 20.9 20.64" fill="none" stroke="#111" stroke-width="1.09" stroke-linecap="round" stroke-linejoin="round"/>
<path d="M 17.99 16.0 L 18.12 16.08 L 18.24 16.17 L 18.37 16.25 L 18.49 16.33 L 18.62 16.42 L 18.74 16.5 L 18.87 16.58 L 18.99 16.67 L 19.12 16.75 L 19.24 16.83 L 19.37 16.92 L 19.49 17.0 L 19.62 17.08 L 19.74 17.17 L 19.87 17.25 L 19.99 17.33 L 20.12 17.42 L 20.24 17.5 L 20.37 17.58 L 20.49 17.67 L 20.62 17.75 L 20.74 17.83 L 20.87 17.92 L 20.99 18.0" fill="none" stroke="#111" stroke-width="1.09" stroke-linecap="round" stroke-linejoin="round"/>
</svg>
