<?xml version="1.0" encoding="UTF-8"?>
<svg xmlns="http://www.w3.org/2000/svg" viewBox="0 0 28.36 39.84">
<path d="M 4.0 8.84 L 4.12 9.22 L 4.25 9.59 L 4.38 9.97 L 4.5 10.34 L 4.62 10.72 L 4.75 11.09 L 4.88 11.47 L 5.0 11.84 L 5.12 12.22 L 5.25 12.59 L 5.38 12.97 L 5.5 13.34 L 5.62 13.72 L 5.75 14.09 L 5.88 14.47 L 6.0 14.84 L 6.12 15.22 L 6.25 15.59 L 6.38 15.97 L 6.5 16.34 L 6.62 16.72 L 6.75 17.09 L 6.88 17.47 L 7.0 17.84 L 7.0 17.84 L 7.0 17.34 L 7.0 16.84 L 7.0 16.34 L 7.0 15.84 L 7.0 15.34 L 7.0 14.84 L 7.0 14.34 L 7.0 13.84 L 7.0 13.34 L 7.0 12.84 L 7.0 12.34 L 7.0 11.84 L 7.0 11.34 L 7.0 10.84 L 7.0 10.34 L 7.0 9.84 L 7.0 9.34 L 7.0 8.84 L 7.0 8.34 L 7.0 7.84 L 7.0 7.34 L 7.0 6.84 L 7.0 6.34 L 7.0 5.84" fill="none" stroke="#111" stroke-width="1.39" stroke-linecap="round" stroke-linejoin="round"/>
<path d="M 5.0 10.84 L 5.41 10.79 L 5.82 10.71 L 6.22 10.6 L 6.61 10.47 L 7.0 10.32 L 7.37 10.14 L 7.73 9.94 L 8.08 9.71 L 8.41 9.46 L 8.73 9.19 L 9.03 8.91 L 9.31 8.6 L 9.57 8.28 L 9.81 7.94 L 10.02 7.58 L 10.22 7.22 L 10.39 6.84 L 10.53 6.45 L 10.65 6.05 L 10.75 5.65 L 10.82 5.24 L 10.86 4.83 L 10.88 4.41 L 10.87 4.0" fill="none" stroke="#111" stroke-width="1.39" stroke-linecap="round" stroke-linejoin="round"/>
<path d="M 12.0 5.84 L 12.12 6.18 L 12.25 6.51 L 12.41 6.83 L 12.59 7.14 L 12.78 7.44 L 13.0 7.72 L 13.23 7.99 L 13.48 8.25 L 13.74 8.49 L 14.02 8.71 L 14.31 8.92 L 14.62 9.11 L 14.93 9.27 L 15.26 9.42 L 15.59 9.55 L 15.93 9.65 L 16.28 9.74 L 16.63 9.8 L 16.98 9.84 L 17.34 9.86 L 17.7 9.85 L 18.05 9.82 L 18.4 9.77 L 18.75 9.7" fill="none" stroke="#111" stroke-width="1.39" stroke-linecap="round" stroke-linejoin="round"/>
<path d="M 16.0 6.84 L 15.62 7.49 L 15.34 8.18 L 15.18 8.91 L 15.14 9.66 L 15.22 10.4 L 15.42 11.12 L 15.74 11.79 L 16.16 12.41 L 16.67 12.96 L 17.27 13.41 L 17.92 13.76 L 18.63 14.0 L 19.37 14.12 L 20.12 14.12 L 20.85 14.0 L 21.56 13.76 L 22.22 13.42 L 22.82 12.97 L 23.33 12.43 L 23.75 11.81 L 24.07 11.13 L 24.27 10.41 L 24.36 9.67 L 24.32 8.92" fill="none" stroke="#111" stroke-width="1.39" stroke-linecap="round" stroke-linejoin="round"/>
<path d="M 12.0 14.84 L 11.92 15.3 L 11.83 15.76 L 11.75 16.22 L 11.67 16.68 L 11.58 17.14 L 11.5 17.59 L 11.42 18.05 L 11.33 18.51 L 11.25 18.97 L 11.17 19.43 L 11.08 19.89 L 11.0 20.34 L 10.92 20.8 L 10.83 21.26 L 10.75 21.72 L 10.67 22.18 L 10.58 22.64 L 10.5 23.09 L 10.42 23.55 L 10.33 24.01 L 10.25 24.47 L 10.17 24.93 L 10.08 25.39 L 10.0 25.84 L 10.0 25.84 L 10.72 25.79 L 11.44 25.86 L 12.13 26.06 L 12.78 26.36 L 13.37 26.78 L 13.89 27.28 L 14.3 27.87 L 14.62 28.52 L 14.81 29.22 L 14.89 29.93 L 14.84 30.65 L 14.67 31.35 L 14.39 32.01 L 13.99 32.62 L 13.5 33.15 L 12.93 33.58 L 12.29 33.92 L 11.6 34.14 L 10.89 34.24 L 10.17 34.21 L 9.46 34.07 L 8.79 33.8 L 8.17 33.43 L 7.63 32.96 L 9.0 28.84 L 9.08 29.14 L 9.17 29.43 L 9.25 29.72 L 9.33 30.01 L 9.42 30.3 L 9.5 30.59 L 9.58 30.89 L 9.67 31.18 L 9.75 31.47 L 9.83 31.76 L 9.92 32.05 L 10.0 32.34 L 10.08 32.64 L 10.17 32.93 L 10.25 33.22 L 10.33 33.51 L 10.42 33.8 L 10.5 34.09 L 10.58 34.39 L 10.67 34.68 L 10.75 34.97 L 10.83 35.26 L 10.92 35.55 L 11.0 35.84" fill="none" stroke="#111" stroke-width="1.39" stroke-linecap="round" stroke-linejoin="round"/>
<path d="M 12.0 15.84 L 12.12 16.3 L 12.25 16.76 L 12.38 17.22 L 12.5 17.68 L 12.62 18.14 L 12.75 18.59 L 12.88 19.05 L 13.0 19.51 L 13.12 19.97 L 13.25 20.43 L 13.38 20.89 L 13.5 21.34 L 13.62 21.8 L 13.75 22.26 L 13.88 22.72 L 14.0 23.18 L 14.12 23.64 L 14.25 24.09 L 14.38 24.55 L 14.5 25.01 L 14.62 25.47 L 14.75 25.93 L 14.88 26.39 L 15.0 26.84" fill="none" stroke="#111" stroke-width="1.39" stroke-linecap="round" stroke-linejoin="round"/>
</svg>
