<?xml version="1.0" encoding="UTF-8"?>
<svg xmlns="http://www.w3.org/2000/svg" viewBox="0 0 25.83 36.00">
<path d="M 4.0 4.0 L 4.42 4.21 L 4.83 4.42 L 5.25 4.62 L 5.67 4.83 L 6.08 5.04 L 6.5 5.25 L 6.92 5.46 L 7.33 5.67 L 7.75 5.88 L 8.17 6.08 L 8.58 6.29 L 9.0 6.5 L 9.42 6.71 L 9.83 6.92 L 10.25 7.12 L 10.67 7.33 L 11.08 7.54 L 11.5 7.75 L 11.92 7.96 L 12.33 8.17 L 12.75 8.38 L 13.17 8.58 L 13.58 8.79 L 14.0 9.0" fill="none" stroke="#111" stroke-width="1.26" stroke-linecap="round" stroke-linejoin="round"/>
<path d="M 7.0 4.0 L 6.58 4.86 L 6.29 5.78 L 6.14 6.73 L 6.14 7.69 L 6.29 8.64 L 6.57 9.56 L 7.0 10.42 L 7.55 11.21 L 8.21 11.91 L 8.97 12.49 L 9.81 12.96 L 10.71 13.29 L 11.65 13.49 L 12.61 13.54 L 13.57 13.44 L 14.5 13.2 L 15.38 12.82 L 16.2 12.31 L 16.93 11.68 L 17.55 10.95 L 18.06 10.13 L 18.44 9.25 L 18.68 8.32 L 18.77 7.36" fill="none" stroke="#111" stroke-width="1.26" stroke-linecap="round" stroke-linejoin="round"/>
<path d="M 5.0 20.0 L 5.1 21.14 L 5.37 22.25 L 5.83 23.3 L 6.44 24.26 L 7.21 25.11 L 8.1 25.82 L 9.1 26.38 L 10.17 26.77 L 11.29 26.99 L 12.43 27.02 L 13.57 26.86 L 14.66 26.52 L 15.68 26.01 L 16.61 25.35 L 17.41 24.54 L 18.08 23.61 L 18.59 22.58 L 18.92 21.49 L 19.07 20.36 L 19.04 19.22 L 18.83 18.1 L 18.43 17.02 L 17.87 16.03 L 17.15 15.14" fill="none" stroke="#111" stroke-width="1.26" stroke-linecap="round" stroke-linejoin="round"/>
<path d="M 8.0 23.0 L 8.35 23.04 L 8.71 23.05 L 9.07 23.04 L 9.42 23.0 L 9.77 22.94 L 10.12 22.86 L 10.46 22.75 L 10.79 22.61 L 11.11 22.46 L 11.42 22.28 L 11.71 22.08 L 11.99 21.86 L 12.26 21.63 L 12.51 21.37 L 12.74 21.1 L 12.95 20.81 L 13.14 20.51 L 13.3 20.2 L 13.45 19.87 L 13.57 19.54 L 13.67 19.2 L 13.75 18.85 L 13.8 18.5 L 13.83 18.14" fill="none" stroke="#111" stroke-width="1.26" stroke-linecap="round" stroke-linejoin="round"/>
<path d="M 16.0 13.0 L 15.77 13.58 L 15.58 14.17 L 15.44 14.77 L 15.34 15.38 L 15.28 16.0 L 15.27 16.62 L 15.31 17.24 L 15.39 17.85 L 15.52 18.46 L 15.69 19.06 L 15.9 19.64 L 16.16 20.2 L 16.46 20.75 L 16.8 21.27 L 17.17 21.76 L 17.58 22.23 L 18.02 22.66 L 18.49 23.06 L 19.0 23.43 L 19.52 23.75 L 20.07 24.04 L 20.64 24.29 L 21.23 24.49 L 21.83 24.65" fill="none" stroke="#111" stroke-width="1.26" stroke-linecap="round" stroke-linejoin="round"/>
<path d="M 19.0 27.0 L 18.83 26.88 L 18.67 26.75 L 18.5 26.62 L 18.33 26.5 L 18.17 26.38 L 18.0 26.25 L 17.83 26.12 L 17.67 26.0 L 17.5 25.88 L 17.33 25.75 L 17.17 25.62 L 17.0 25.5 L 16.83 25.38 L 16.67 25.25 L 16.5 25.12 L 16.33 25.0 L 16.17 24.88 L 16.0 24.75 L 15.83 24.62 L 15.67 24.5 L 15.5 24.38 L 15.33 24.25 L 15.17 24.12 L 15.0 24.0 L 15.0 24.0 L 14.96 24.33 L 14.92 24.67 L 14.88 25.0 L 14.83 25.33 L 14.79 25.67 L 14.75 26.0 L 14.71 26.33 L 14.67 26.67 L 14.62 27.0 L 14.58 27.33 L 14.54 27.67 L 14.5 28.0 L 14.46 28.33 L 14.42 28.67 L 14.38 29.0 L 14.33 29.33 L 14.29 29.67 L 14.25 30.0 L 14.21 30.33 L 14.17 30.67 L 14.12 31.0 L 14.08 31.33 L 14.04 31.67 L 14.0 32.0" fill="none" stroke="#111" stroke-width="1.26" stroke-linecap="round" stroke-linejoin="round"/>
</svg>
