<?xml version="1.0" encoding="UTF-8"?>
<svg xmlns="http://www.w3.org/2000/svg" viewBox="0 0 25.94 37.00">
<path d="M 14.0 4.0 L 13.77 4.52 L 13.58 5.05 L 13.41 5.59 L 13.29 6.14 L 13.2 6.7 L 13.14 7.26 L 13.13 7.82 L 13.14 8.39 L 13.2 8.95 L 13.29 9.51 L 13.42 10.06 L 13.58 10.6 L 13.77 11.13 L 14.0 11.64 L 14.26 12.14 L 14.56 12.63 L 14.88 13.09 L 15.24 13.53 L 15.62 13.95 L 16.02 14.34 L 16.45 14.7 L 16.91 15.04 L 17.38 15.35 L 17.87 15.62 L 18.0 16.0 L 17.68 16.37 L 17.37 16.74 L 17.06 17.12 L 16.76 17.5 L 16.46 17.89 L 16.17 18.28 L 15.89 18.68 L 15.61 19.08 L 15.34 19.49 L 15.07 19.89 L 14.81 20.31 L 14.55 20.72 L 14.31 21.14 L 14.07 21.57 L 13.83 21.99 L 13.6 22.43 L 13.38 22.86 L 13.16 23.3 L 12.95 23.74 L 12.75 24.18 L 12.56 24.63 L 12.37 25.08 L 12.18 25.53 L 12.01 25.99" fill="none" stroke="#111" stroke-width="1.30" stroke-linecap="round" stroke-linejoin="round"/>
<path d="M 15.0 4.0 L 15.48 4.41 L 15.91 4.86 L 16.3 5.35 L 16.64 5.88 L 16.93 6.44 L 17.16 7.02 L 17.33 7.62 L 17.45 8.24 L 17.51 8.86 L 17.51 9.49 L 17.44 10.11 L 17.32 10.73 L 17.14 11.33 L 16.9 11.91 L 16.61 12.46 L 16.26 12.98 L 15.87 13.47 L 15.43 13.92 L 14.95 14.32 L 14.44 14.68 L 13.89 14.99 L 13.32 15.24 L 12.72 15.43 L 12.11 15.57 L 12.0 16.0 L 12.21 16.32 L 12.42 16.64 L 12.64 16.96 L 12.86 17.28 L 13.08 17.59 L 13.31 17.9 L 13.54 18.21 L 13.77 18.52 L 14.01 18.82 L 14.25 19.12 L 14.5 19.42 L 14.75 19.71 L 15.0 20.0 L 15.26 20.29 L 15.52 20.57 L 15.78 20.86 L 16.04 21.13 L 16.31 21.41 L 16.59 21.68 L 16.86 21.95 L 17.14 22.22 L 17.42 22.48 L 17.71 22.74 L 17.99 22.99 L 18.0 23.0 L 17.79 23.42 L 17.58 23.83 L 17.38 24.25 L 17.17 24.67 L 16.96 25.08 L 16.75 25.5 L 16.54 25.92 L 16.33 26.33 L 16.12 26.75 L 15.92 27.17 L 15.71 27.58 L 15.5 28.0 L 15.29 28.42 L 15.08 28.83 L 14.88 29.25 L 14.67 29.67 L 14.46 30.08 L 14.25 30.5 L 14.04 30.92 L 13.83 31.33 L 13.62 31.75 L 13.42 32.17 L 13.21 32.58 L 13.0 33.0" fill="none" stroke="#111" stroke-width="1.30" stroke-linecap="round" stroke-linejoin="round"/>
<path d="M 14.0 23.0 L 14.48 23.26 L 14.94 23.55 L 15.4 23.84 L 15.84 24.15 L 16.28 24.48 L 16.7 24.82 L 17.12 25.18 L 17.52 25.54 L 17.91 25.93 L 18.28 26.32 L 18.64 26.73 L 18.99 27.15 L 19.32 27.58 L 19.64 28.02 L 19.94 28.47 L 20.23 28.93 L 20.5 29.41 L 20.76 29.89 L 21.0 30.37 L 21.22 30.87 L 21.42 31.37 L 21.61 31.89 L 21.78 32.4 L 21.94 32.92" fill="none" stroke="#111" stroke-width="1.30" stroke-linecap="round" stroke-linejoin="round"/>
<path d="M 9.0 6.0 L 9.19 6.51 L 9.35 7.02 L 9.49 7.55 L 9.6 8.08 L 9.68 8.61 L 9.73 9.15 L 9.76 9.69 L 9.75 10.24 L 9.72 10.78 L 9.66 11.31 L 9.57 11.85 L 9.45 12.38 L 9.3 12.9 L 9.13 13.41 L 8.93 13.92 L 8.71 14.41 L 8.46 14.89 L 8.18 15.35 L 7.88 15.81 L 7.56 16.24 L 7.21 16.66 L 6.85 17.06 L 6.46 17.43 L 6.05 17.79" fill="none" stroke="#111" stroke-width="1.30" stroke-linecap="round" stroke-linejoin="round"/>
<path d="M 4.0 27.0 L 4.25 26.62 L 4.5 26.25 L 4.75 25.88 L 5.0 25.5 L 5.25 25.12 L 5.5 24.75 L 5.75 24.38 L 6.0 24.0 L 6.25 23.62 L 6.5 23.25 L 6.75 22.88 L 7.0 22.5 L 7.25 22.12 L 7.5 21.75 L 7.75 21.38 L 8.0 21.0 L 8.25 20.62 L 8.5 20.25 L 8.75 19.88 L 9.0 19.5 L 9.25 19.12 L 9.5 18.75 L 9.75 18.38 L 10.0 18.0" fill="none" stroke="#111" stroke-width="1.30" stroke-linecap="round" stroke-linejoin="round"/>
<path d="M 9.0 20.0 L 9.0 20.5 L 9.0 21.0 L 9.0 21.5 L 9.0 22.0 L 9.0 22.5 L 9.0 23.0 L 9.0 23.5 L 9.0 24.0 L 9.0 24.5 L 9.0 25.0 L 9.0 25.5 L 9.0 26.0 L 9.0 26.5 L 9.0 27.0 L 9.0 27.5 L 9.0 28.0 L 9.0 28.5 L 9.0 29.0 L 9.0 29.5 L 9.0 30.0 L 9.0 30.5 L 9.0 31.0 L 9.0 31.5 L 9.0 32.0" fill="none" stroke="#111" stroke-width="1.30" stroke-linecap="round" stroke-linejoin="round"/>
</svg>
