<?xml version="1.0" encoding="UTF-8"?>
<svg xmlns="http://www.w3.org/2000/svg" viewBox="0 0 24.00 38.00">
<path d="M 7.0 4.0 L 7.25 4.62 L 7.5 5.25 L 7.75 5.88 L 8.0 6.5 L 8.25 7.12 L 8.5 7.75 L 8.75 8.38 L 9.0 9.0 L 9.25 9.62 L 9.5 10.25 L 9.75 10.87 L 10.0 11.5 L 10.25 12.12 L 10.5 12.75 L 10.75 13.37 L 11.0 14.0 L 11.25 14.62 L 11.5 15.25 L 11.75 15.87 L 12.0 16.5 L 12.25 17.12 L 12.5 17.75 L 12.75 18.38 L 13.0 19.0 L 13.0 19.0 L 12.43 19.3 L 11.87 19.62 L 11.33 19.96 L 10.79 20.32 L 10.28 20.7 L 9.78 21.1 L 9.29 21.52 L 8.82 21.96 L 8.37 22.42 L 7.93 22.89 L 7.52 23.38 L 7.12 23.89 L 6.75 24.41 L 6.39 24.95 L 6.06 25.49 L 5.75 26.06 L 5.46 26.63 L 5.19 27.21 L 4.94 27.81 L 4.72 28.41 L 4.53 29.02 L 4.35 29.64 L 4.2 30.27 L 4.08 30.9" fill="none" stroke="#111" stroke-width="1.33" stroke-linecap="round" stroke-linejoin="round"/>
<path d="M 4.0 19.0 L 4.29 18.48 L 4.6 17.96 L 4.93 17.46 L 5.28 16.96 L 5.63 16.48 L 6.01 16.01 L 6.4 15.56 L 6.8 15.11 L 7.22 14.68 L 7.66 14.26 L 8.1 13.86 L 8.56 13.47 L 9.03 13.1 L 9.51 12.74 L 10.01 12.4 L 10.51 12.08 L 11.03 11.77 L 11.56 11.48 L 12.09 11.2 L 12.63 10.94 L 13.18 10.71 L 13.74 10.48 L 14.31 10.28 L 14.88 10.1 L 15.0 10.0 L 14.83 9.88 L 14.67 9.75 L 14.5 9.62 L 14.33 9.5 L 14.17 9.38 L 14.0 9.25 L 13.83 9.12 L 13.67 9.0 L 13.5 8.88 L 13.33 8.75 L 13.17 8.62 L 13.0 8.5 L 12.83 8.38 L 12.67 8.25 L 12.5 8.12 L 12.33 8.0 L 12.17 7.88 L 12.0 7.75 L 11.83 7.62 L 11.67 7.5 L 11.5 7.38 L 11.33 7.25 L 11.17 7.12 L 11.0 7.0 L 11.0 7.0 L 10.4 7.06 L 9.81 7.17 L 9.23 7.34 L 8.67 7.57 L 8.13 7.85 L 7.63 8.18 L 7.16 8.56 L 6.73 8.99 L 6.35 9.45 L 6.01 9.95 L 5.72 10.48 L 5.49 11.04 L 5.31 11.62 L 5.19 12.21 L 5.13 12.81 L 5.12 13.41 L 5.18 14.01 L 5.3 14.6 L 5.47 15.18 L 5.7 15.74 L 5.98 16.28 L 6.31 16.78 L 6.69 17.25 L 7.12 17.68" fill="none" stroke="#111" stroke-width="1.33" stroke-linecap="round" stroke-linejoin="round"/>
<path d="M 5.0 6.0 L 5.25 5.92 L 5.5 5.83 L 5.75 5.75 L 6.0 5.67 L 6.25 5.58 L 6.5 5.5 L 6.75 5.42 L 7.0 5.33 L 7.25 5.25 L 7.5 5.17 L 7.75 5.08 L 8.0 5.0 L 8.25 4.92 L 8.5 4.83 L 8.75 4.75 L 9.0 4.67 L 9.25 4.58 L 9.5 4.5 L 9.75 4.42 L 10.0 4.33 L 10.25 4.25 L 10.5 4.17 L 10.75 4.08 L 11.0 4.0" fill="none" stroke="#111" stroke-width="1.33" stroke-linecap="round" stroke-linejoin="round"/>
<path d="M 9.0 22.0 L 9.17 22.21 L 9.33 22.42 L 9.5 22.62 L 9.67 22.83 L 9.83 23.04 L 10.0 23.25 L 10.17 23.46 L 10.33 23.67 L 10.5 23.88 L 10.67 24.08 L 10.83 24.29 L 11.0 24.5 L 11.17 24.71 L 11.33 24.92 L 11.5 25.12 L 11.67 25.33 L 11.83 25.54 L 12.0 25.75 L 12.17 25.96 L 12.33 26.17 L 12.5 26.38 L 12.67 26.58 L 12.83 26.79 L 13.0 27.0" fill="none" stroke="#111" stroke-width="1.33" stroke-linecap="round" stroke-linejoin="round"/>
<path d="M 10.0 29.0 L 9.9 28.55 L 9.84 28.08 L 9.82 27.62 L 9.85 27.15 L 9.92 26.69 L 10.03 26.24 L 10.19 25.8 L 10.39 25.38 L 10.62 24.98 L 10.89 24.6 L 11.2 24.25 L 11.54 23.93 L 11.91 23.65 L 12.3 23.4 L 12.72 23.18 L 13.15 23.01 L 13.6 22.88 L 14.05 22.8 L 14.52 22.75 L 14.98 22.75 L 15.45 22.8 L 15.9 22.88 L 16.35 23.01 L 16.78 23.19" fill="none" stroke="#111" stroke-width="1.33" stroke-linecap="round" stroke-linejoin="round"/>
<path d="M 13.0 27.0 L 12.96 27.12 L 12.92 27.25 L 12.88 27.38 L 12.83 27.5 L 12.79 27.62 L 12.75 27.75 L 12.71 27.88 L 12.67 28.0 L 12.62 28.12 L 12.58 28.25 L 12.54 28.38 L 12.5 28.5 L 12.46 28.62 L 12.42 28.75 L 12.38 28.88 L 12.33 29.0 L 12.29 29.12 L 12.25 29.25 L 12.21 29.38 L 12.17 29.5 L 12.12 29.62 L 12.08 29.75 L 12.04 29.88 L 12.0 30.0 L 12.0 30.0 L 12.25 30.25 L 12.52 30.47 L 12.81 30.65 L 13.13 30.8 L 13.46 30.92 L 13.8 30.99 L 14.15 31.02 L 14.5 31.02 L 14.85 30.97 L 15.19 30.88 L 15.51 30.76 L 15.82 30.6 L 16.11 30.4 L 16.38 30.17 L 16.61 29.91 L 16.82 29.63 L 16.99 29.32 L 17.12 29.0 L 17.22 28.66 L 17.27 28.32 L 17.29 27.97 L 17.26 27.62 L 17.2 27.28 L 17.09 26.94 L 17.0 27.0 L 16.83 27.0 L 16.67 27.0 L 16.5 27.0 L 16.33 27.0 L 16.17 27.0 L 16.0 27.0 L 15.83 27.0 L 15.67 27.0 L 15.5 27.0 L 15.33 27.0 L 15.17 27.0 L 15.0 27.0 L 14.83 27.0 L 14.67 27.0 L 14.5 27.0 L 14.33 27.0 L 14.17 27.0 L 14.0 27.0 L 13.83 27.0 L 13.67 27.0 L 13.5 27.0 L 13.33 27.0 L 13.17 27.0 L 13.0 27.0" fill="none" stroke="#111" stroke-width="1.33" stroke-linecap="round" stroke-linejoin="round"/>
<path d="M 12.0 31.0 L 12.0 31.08 L 12.0 31.17 L 12.0 31.25 L 12.0 31.33 L 12.0 31.42 L 12.0 31.5 L 12.0 31.58 L 12.0 31.67 L 12.0 31.75 L 12.0 31.83 L 12.0 31.92 L 12.0 32.0 L 12.0 32.08 L 12.0 32.17 L 12.0 32.25 L 12.0 32.33 L 12.0 32.42 L 12.0 32.5 L 12.0 32.58 L 12.0 32.67 L 12.0 32.75 L 12.0 32.83 L 12.0 32.92 L 12.0 33.0" fill="none" stroke="#111" stroke-width="1.33" stroke-linecap="round" stroke-linejoin="round"/>
<path d="M 16.0 31.0 L 16.04 31.12 L 16.08 31.25 L 16.12 31.38 L 16.17 31.5 L 16.21 31.62 L 16.25 31.75 L 16.29 31.88 L 16.33 32.0 L 16.38 32.12 L 16.42 32.25 L 16.46 32.38 L 16.5 32.5 L 16.54 32.62 L 16.58 32.75 L 16.62 32.88 L 16.67 33.0 L 16.71 33.12 L 16.75 33.25 L 16.79 33.38 L 16.83 33.5 L 16.88 33.62 L 16.92 33.75 L 16.96 33.88 L 17.0 34.0" fill="none" stroke="#111" stroke-width="1.33" stroke-linecap="round" stroke-linejoin="round"/>
<path d="M 19.0 29.0 L 19.04 29.08 L 19.08 29.17 L 19.12 29.25 L 19.17 29.33 L 19.21 29.42 L 19.25 29.5 L 19.29 29.58 L 19.33 29.67 L 19.38 29.75 L 19.42 29.83 L 19.46 29.92 L 19.5 30.0 L 19.54 30.08 L 19.58 30.17 L 19.62 30.25 L 19.67 30.33 L 19.71 30.42 L 19.75 30.5 L 19.79 30.58 L 19.83 30.67 L 19.88 30.75 L 19.92 30.83 L 19.96 30.92 L 20.0 31.0" fill="none" stroke="#111" stroke-width="1.33" stroke-linecap="round" stroke-linejoin="round"/>
</svg>
