<?xml version="1.0" encoding="UTF-8"?>
<svg xmlns="http://www.w3.org/2000/svg" viewBox="0 0 25.00 33.31">
<path d="M 21.0 4.31 L 19.58 4.07 L 18.14 4.0 L 16.71 4.11 L 15.3 4.4 L 13.93 4.86 L 12.63 5.48 L 11.42 6.26 L 10.32 7.18 L 9.33 8.23 L 8.48 9.4 L 7.79 10.65 L 7.25 11.99 L 6.88 13.38 L 6.68 14.81 L 6.66 16.25 L 6.82 17.68 L 7.15 19.08 L 7.65 20.43 L 8.32 21.7 L 9.13 22.89 L 10.09 23.97 L 11.17 24.92 L 12.36 25.73 L 13.64 26.39" fill="none" stroke="#111" stroke-width="1.17" stroke-linecap="round" stroke-linejoin="round"/>
<path d="M 11.0 6.31 L 11.04 6.68 L 11.08 7.06 L 11.12 7.43 L 11.17 7.81 L 11.21 8.18 L 11.25 8.56 L 11.29 8.93 L 11.33 9.31 L 11.38 9.68 L 11.42 10.06 L 11.46 10.43 L 11.5 10.81 L 11.54 11.18 L 11.58 11.56 L 11.62 11.93 L 11.67 12.31 L 11.71 12.68 L 11.75 13.06 L 11.79 13.43 L 11.83 13.81 L 11.88 14.18 L 11.92 14.56 L 11.96 14.93 L 12.0 15.31 L 12.0 15.31 L 12.33 15.26 L 12.67 15.22 L 13.0 15.18 L 13.33 15.14 L 13.67 15.1 L 14.0 15.06 L 14.33 15.01 L 14.67 14.97 L 15.0 14.93 L 15.33 14.89 L 15.67 14.85 L 16.0 14.81 L 16.33 14.76 L 16.67 14.72 L 17.0 14.68 L 17.33 14.64 L 17.67 14.6 L 18.0 14.56 L 18.33 14.51 L 18.67 14.47 L 19.0 14.43 L 19.33 14.39 L 19.67 14.35 L 20.0 14.31" fill="none" stroke="#111" stroke-width="1.17" stroke-linecap="round" stroke-linejoin="round"/>
<path d="M 19.0 19.31 L 18.38 19.35 L 17.75 19.39 L 17.12 19.43 L 16.5 19.47 L 15.88 19.51 L 15.25 19.56 L 14.62 19.6 L 14.0 19.64 L 13.38 19.68 L 12.75 19.72 L 12.12 19.76 L 11.5 19.81 L 10.88 19.85 L 10.25 19.89 L 9.63 19.93 L 9.0 19.97 L 8.38 20.01 L 7.75 20.06 L 7.12 20.1 L 6.5 20.14 L 5.88 20.18 L 5.25 20.22 L 4.62 20.26 L 4.0 20.31 L 4.0 20.31 L 4.04 20.68 L 4.08 21.06 L 4.12 21.43 L 4.17 21.81 L 4.21 22.18 L 4.25 22.56 L 4.29 22.93 L 4.33 23.31 L 4.38 23.68 L 4.42 24.06 L 4.46 24.43 L 4.5 24.81 L 4.54 25.18 L 4.58 25.56 L 4.62 25.93 L 4.67 26.31 L 4.71 26.68 L 4.75 27.06 L 4.79 27.43 L 4.83 27.81 L 4.88 28.18 L 4.92 28.56 L 4.96 28.93 L 5.0 29.31 L 5.0 29.31 L 5.58 29.31 L 6.17 29.31 L 6.75 29.31 L 7.33 29.31 L 7.92 29.31 L 8.5 29.31 L 9.08 29.31 L 9.67 29.31 L 10.25 29.31 L 10.83 29.31 L 11.42 29.31 L 12.0 29.31 L 12.58 29.31 L 13.17 29.31 L 13.75 29.31 L 14.33 29.31 L 14.92 29.31 L 15.5 29.31 L 16.08 29.31 L 16.67 29.31 L 17.25 29.31 L 17.83 29.31 L 18.42 29.31 L 19.0 29.31 L 19.0 29.31 L 19.0 29.06 L 19.0 28.81 L 19.0 28.56 L 19.0 28.31 L 19.0 28.06 L 19.0 27.81 L 19.0 27.56 L 19.0 27.31 L 19.0 27.06 L 19.0 26.81 L 19.0 26.56 L 19.0 26.31 L 19.0 26.06 L 19.0 25.81 L 19.0 25.56 L 19.0 25.31 L 19.0 25.06 L 19.0 24.81 L 19.0 24.56 L 19.0 24.31 L 19.0 24.06 L 19.0 23.81 L 19.0 23.56 L 19.0 23.31 L 19.0 23.31 L 18.62 23.35 L 18.25 23.39 L 17.88 23.43 L 17.5 23.47 L 17.12 23.51 L 16.75 23.56 L 16.38 23.6 L 16.0 23.64 L 15.62 23.68 L 15.25 23.72 L 14.88 23.76 L 14.5 23.81 L 14.12 23.85 L 13.75 23.89 L 13.38 23.93 L 13.0 23.97 L 12.62 24.01 L 12.25 24.06 L 11.88 24.1 L 11.5 24.14 L 11.12 24.18 L 10.75 24.22 L 10.37 24.26 L 10.0 24.31" fill="none" stroke="#111" stroke-width="1.17" stroke-linecap="round" stroke-linejoin="round"/>
</svg>
