<?xml version="1.0" encoding="UTF-8"?>
<svg xmlns="http://www.w3.org/2000/svg" viewBox="0 0 29.75 39.00">
<path d="M 7.0 10.0 L 7.0 10.62 L 7.0 11.25 L 7.0 11.88 L 7.0 12.5 L 7.0 13.12 L 7.0 13.75 L 7.0 14.38 L 7.0 15.0 L 7.0 15.62 L 7.0 16.25 L 7.0 16.88 L 7.0 17.5 L 7.0 18.12 L 7.0 18.75 L 7.0 19.38 L 7.0 20.0 L 7.0 20.62 L 7.0 21.25 L 7.0 21.88 L 7.0 22.5 L 7.0 23.12 L 7.0 23.75 L 7.0 24.38 L 7.0 25.0" fill="none" stroke="#111" stroke-width="1.37" stroke-linecap="round" stroke-linejoin="round"/>
<path d="M 4.0 11.0 L 4.09 11.36 L 4.21 11.72 L 4.37 12.06 L 4.57 12.37 L 4.8 12.67 L 5.05 12.95 L 5.34 13.19 L 5.64 13.4 L 5.97 13.59 L 6.32 13.73 L 6.67 13.84 L 7.04 13.91 L 7.41 13.95 L 7.79 13.94 L 8.16 13.9 L 8.53 13.82 L 8.88 13.7 L 9.22 13.54 L 9.54 13.35 L 9.84 13.13 L 10.12 12.88 L 10.37 12.6 L 10.59 12.29 L 10.78 11.97" fill="none" stroke="#111" stroke-width="1.37" stroke-linecap="round" stroke-linejoin="round"/>
<path d="M 4.0 24.0 L 4.17 23.83 L 4.33 23.67 L 4.5 23.5 L 4.67 23.33 L 4.83 23.17 L 5.0 23.0 L 5.17 22.83 L 5.33 22.67 L 5.5 22.5 L 5.67 22.33 L 5.83 22.17 L 6.0 22.0 L 6.17 21.83 L 6.33 21.67 L 6.5 21.5 L 6.67 21.33 L 6.83 21.17 L 7.0 21.0 L 7.17 20.83 L 7.33 20.67 L 7.5 20.5 L 7.67 20.33 L 7.83 20.17 L 8.0 20.0 L 8.0 20.0 L 8.04 20.12 L 8.08 20.25 L 8.12 20.38 L 8.17 20.5 L 8.21 20.62 L 8.25 20.75 L 8.29 20.88 L 8.33 21.0 L 8.38 21.12 L 8.42 21.25 L 8.46 21.38 L 8.5 21.5 L 8.54 21.62 L 8.58 21.75 L 8.62 21.88 L 8.67 22.0 L 8.71 22.12 L 8.75 22.25 L 8.79 22.38 L 8.83 22.5 L 8.88 22.62 L 8.92 22.75 L 8.96 22.88 L 9.0 23.0" fill="none" stroke="#111" stroke-width="1.37" stroke-linecap="round" stroke-linejoin="round"/>
<path d="M 15.0 4.0 L 15.0 4.29 L 15.0 4.58 L 15.0 4.88 L 15.0 5.17 L 15.0 5.46 L 15.0 5.75 L 15.0 6.04 L 15.0 6.33 L 15.0 6.62 L 15.0 6.92 L 15.0 7.21 L 15.0 7.5 L 15.0 7.79 L 15.0 8.08 L 15.0 8.38 L 15.0 8.67 L 15.0 8.96 L 15.0 9.25 L 15.0 9.54 L 15.0 9.83 L 15.0 10.12 L 15.0 10.42 L 15.0 10.71 L 15.0 11.0 L 15.0 11.0 L 14.75 11.14 L 14.51 11.3 L 14.29 11.47 L 14.07 11.65 L 13.87 11.85 L 13.68 12.06 L 13.5 12.28 L 13.34 12.52 L 13.19 12.76 L 13.06 13.01 L 12.94 13.27 L 12.84 13.54 L 12.76 13.81 L 12.7 14.09 L 12.65 14.37 L 12.63 14.65 L 12.62 14.94 L 12.62 15.22 L 12.65 15.51 L 12.69 15.79 L 12.76 16.07 L 12.83 16.34 L 12.93 16.61 L 13.04 16.87" fill="none" stroke="#111" stroke-width="1.37" stroke-linecap="round" stroke-linejoin="round"/>
<path d="M 15.0 11.0 L 15.27 11.03 L 15.54 11.09 L 15.81 11.17 L 16.06 11.27 L 16.31 11.38 L 16.55 11.52 L 16.78 11.68 L 16.99 11.85 L 17.19 12.04 L 17.38 12.24 L 17.55 12.46 L 17.7 12.69 L 17.83 12.93 L 17.94 13.18 L 18.04 13.44 L 18.11 13.7 L 18.16 13.97 L 18.19 14.25 L 18.2 14.52 L 18.18 14.8 L 18.15 15.07 L 18.09 15.34 L 18.01 15.6 L 17.92 15.86" fill="none" stroke="#111" stroke-width="1.37" stroke-linecap="round" stroke-linejoin="round"/>
<path d="M 11.0 9.0 L 11.28 8.57 L 11.6 8.17 L 11.95 7.81 L 12.34 7.48 L 12.75 7.18 L 13.19 6.93 L 13.66 6.72 L 14.14 6.56 L 14.64 6.44 L 15.14 6.37 L 15.65 6.35 L 16.16 6.37 L 16.66 6.45 L 17.16 6.57 L 17.64 6.74 L 18.1 6.95 L 18.54 7.21 L 18.96 7.51 L 19.34 7.84 L 19.69 8.21 L 20.0 8.61 L 20.28 9.04 L 20.51 9.5 L 20.7 9.97" fill="none" stroke="#111" stroke-width="1.37" stroke-linecap="round" stroke-linejoin="round"/>
<path d="M 11.0 17.0 L 11.0 17.25 L 11.0 17.5 L 11.0 17.75 L 11.0 18.0 L 11.0 18.25 L 11.0 18.5 L 11.0 18.75 L 11.0 19.0 L 11.0 19.25 L 11.0 19.5 L 11.0 19.75 L 11.0 20.0 L 11.0 20.25 L 11.0 20.5 L 11.0 20.75 L 11.0 21.0 L 11.0 21.25 L 11.0 21.5 L 11.0 21.75 L 11.0 22.0 L 11.0 22.25 L 11.0 22.5 L 11.0 22.75 L 11.0 23.0" fill="none" stroke="#111" stroke-width="1.37" stroke-linecap="round" stroke-linejoin="round"/>
<path d="M 12.0 20.0 L 12.33 19.9 L 12.68 19.83 L 13.03 19.81 L 13.38 19.82 L 13.72 19.88 L 14.06 19.97 L 14.38 20.11 L 14.69 20.28 L 14.97 20.48 L 15.23 20.72 L 15.46 20.98 L 15.65 21.27 L 15.82 21.58 L 15.94 21.91 L 16.03 22.25 L 16.08 22.59 L 16.08 22.94 L 16.05 23.29 L 15.97 23.63 L 15.86 23.96 L 15.71 24.28 L 15.52 24.58 L 15.31 24.85 L 15.06 25.09 L 15.0 25.0 L 15.0 25.17 L 15.0 25.33 L 15.0 25.5 L 15.0 25.67 L 15.0 25.83 L 15.0 26.0 L 15.0 26.17 L 15.0 26.33 L 15.0 26.5 L 15.0 26.67 L 15.0 26.83 L 15.0 27.0 L 15.0 27.17 L 15.0 27.33 L 15.0 27.5 L 15.0 27.67 L 15.0 27.83 L 15.0 28.0 L 15.0 28.17 L 15.0 28.33 L 15.0 28.5 L 15.0 28.67 L 15.0 28.83 L 15.0 29.0 L 15.0 29.0 L 15.12 29.25 L 15.25 29.5 L 15.38 29.75 L 15.5 30.0 L 15.62 30.25 L 15.75 30.5 L 15.88 30.75 L 16.0 31.0 L 16.12 31.25 L 16.25 31.5 L 16.38 31.75 L 16.5 32.0 L 16.62 32.25 L 16.75 32.5 L 16.88 32.75 L 17.0 33.0 L 17.12 33.25 L 17.25 33.5 L 17.38 33.75 L 17.5 34.0 L 17.62 34.25 L 17.75 34.5 L 17.88 34.75 L 18.0 35.0" fill="none" stroke="#111" stroke-width="1.37" stroke-linecap="round" stroke-linejoin="round"/>
<path d="M 21.0 13.0 L 21.0 13.71 L 21.0 14.42 L 21.0 15.12 L 21.0 15.83 L 21.0 16.54 L 21.0 17.25 L 21.0 17.96 L 21.0 18.67 L 21.0 19.38 L 21.0 20.08 L 21.0 20.79 L 21.0 21.5 L 21.0 22.21 L 21.0 22.92 L 21.0 23.62 L 21.0 24.33 L 21.0 25.04 L 21.0 25.75 L 21.0 26.46 L 21.0 27.17 L 21.0 27.88 L 21.0 28.58 L 21.0 29.29 L 21.0 30.0" fill="none" stroke="#111" stroke-width="1.37" stroke-linecap="round" stroke-linejoin="round"/>
<path d="M 18.0 14.0 L 18.08 14.21 L 18.17 14.42 L 18.25 14.62 L 18.33 14.83 L 18.42 15.04 L 18.5 15.25 L 18.58 15.46 L 18.67 15.67 L 18.75 15.88 L 18.83 16.08 L 18.92 16.29 L 19.0 16.5 L 19.08 16.71 L 19.17 16.92 L 19.25 17.12 L 19.33 17.33 L 19.42 17.54 L 19.5 17.75 L 19.58 17.96 L 19.67 18.17 L 19.75 18.38 L 19.83 18.58 L 19.92 18.79 L 20.0 19.0 L 20.0 19.0 L 20.21 18.83 L 20.42 18.67 L 20.62 18.5 L 20.83 18.33 L 21.04 18.17 L 21.25 18.0 L 21.46 17.83 L 21.67 17.67 L 21.88 17.5 L 22.08 17.33 L 22.29 17.17 L 22.5 17.0 L 22.71 16.83 L 22.92 16.67 L 23.12 16.5 L 23.33 16.33 L 23.54 16.17 L 23.75 16.0 L 23.96 15.83 L 24.17 15.67 L 24.38 15.5 L 24.58 15.33 L 24.79 15.17 L 25.0 15.0" fill="none" stroke="#111" stroke-width="1.37" stroke-linecap="round" stroke-linejoin="round"/>
<path d="M 17.0 26.0 L 17.13 25.54 L 17.31 25.1 L 17.53 24.67 L 17.8 24.28 L 18.11 23.91 L 18.45 23.57 L 18.82 23.27 L 19.22 23.01 L 19.65 22.8 L 20.1 22.62 L 20.56 22.5 L 21.03 22.42 L 21.51 22.39 L 21.98 22.42 L 22.46 22.48 L 22.92 22.6 L 23.37 22.77 L 23.8 22.98 L 24.21 23.23 L 24.59 23.52 L 24.93 23.85 L 25.24 24.22 L 25.52 24.61 L 25.75 25.03" fill="none" stroke="#111" stroke-width="1.37" stroke-linecap="round" stroke-linejoin="round"/>
</svg>
