<?xml version="1.0" encoding="UTF-8"?>
<svg xmlns="http://www.w3.org/2000/svg" viewBox="0 0 24.50 34.68">
<path d="M 5.43 6.26 L 6.14 5.42 L 7.01 4.75 L 8.01 4.27 L 9.08 4.02 L 10.18 4.0 L 11.26 4.21 L 12.28 4.64 L 13.17 5.28 L 13.92 6.09 L 14.48 7.04 L 14.82 8.09 L 14.94 9.19 L 14.82 10.28 L 14.48 11.33 L 13.92 12.28 L 13.17 13.09 L 12.28 13.73 L 11.26 14.16 L 10.18 14.37 L 9.08 14.35 L 8.01 14.1 L 7.01 13.63 L 6.14 12.95 L 5.43 12.11" fill="none" stroke="#111" stroke-width="1.21" stroke-linecap="round" stroke-linejoin="round"/>
<path d="M 10.43 13.26 L 10.38 13.68 L 10.34 14.09 L 10.3 14.51 L 10.26 14.93 L 10.22 15.34 L 10.18 15.76 L 10.13 16.18 L 10.09 16.59 L 10.05 17.01 L 10.01 17.43 L 9.97 17.84 L 9.93 18.26 L 9.88 18.68 L 9.84 19.09 L 9.8 19.51 L 9.76 19.93 L 9.72 20.34 L 9.68 20.76 L 9.63 21.18 L 9.59 21.59 L 9.55 22.01 L 9.51 22.43 L 9.47 22.84 L 9.43 23.26" fill="none" stroke="#111" stroke-width="1.21" stroke-linecap="round" stroke-linejoin="round"/>
<path d="M 4.43 15.26 L 4.63 15.47 L 4.84 15.68 L 5.05 15.89 L 5.26 16.09 L 5.47 16.3 L 5.68 16.51 L 5.88 16.72 L 6.09 16.93 L 6.3 17.14 L 6.51 17.34 L 6.72 17.55 L 6.93 17.76 L 7.13 17.97 L 7.34 18.18 L 7.55 18.39 L 7.76 18.59 L 7.97 18.8 L 8.18 19.01 L 8.38 19.22 L 8.59 19.43 L 8.8 19.64 L 9.01 19.84 L 9.22 20.05 L 9.43 20.26 L 9.43 20.26 L 9.63 20.05 L 9.84 19.84 L 10.05 19.64 L 10.26 19.43 L 10.47 19.22 L 10.68 19.01 L 10.88 18.8 L 11.09 18.59 L 11.3 18.39 L 11.51 18.18 L 11.72 17.97 L 11.93 17.76 L 12.13 17.55 L 12.34 17.34 L 12.55 17.14 L 12.76 16.93 L 12.97 16.72 L 13.18 16.51 L 13.38 16.3 L 13.59 16.09 L 13.8 15.89 L 14.01 15.68 L 14.22 15.47 L 14.43 15.26" fill="none" stroke="#111" stroke-width="1.21" stroke-linecap="round" stroke-linejoin="round"/>
<path d="M 4.43 21.26 L 4.13 22.26 L 4.0 23.3 L 4.05 24.34 L 4.28 25.35 L 4.68 26.32 L 5.24 27.2 L 5.95 27.97 L 6.77 28.61 L 7.69 29.1 L 8.68 29.43 L 9.71 29.58 L 10.75 29.55 L 11.78 29.35 L 12.75 28.97 L 13.64 28.44 L 14.43 27.76 L 15.1 26.95 L 15.61 26.05 L 15.96 25.06 L 16.14 24.04 L 16.15 22.99 L 15.97 21.97 L 15.62 20.98 L 15.11 20.07" fill="none" stroke="#111" stroke-width="1.21" stroke-linecap="round" stroke-linejoin="round"/>
<path d="M 4.43 23.26 L 4.8 23.26 L 5.18 23.26 L 5.55 23.26 L 5.93 23.26 L 6.3 23.26 L 6.68 23.26 L 7.05 23.26 L 7.43 23.26 L 7.8 23.26 L 8.18 23.26 L 8.55 23.26 L 8.93 23.26 L 9.3 23.26 L 9.68 23.26 L 10.05 23.26 L 10.43 23.26 L 10.8 23.26 L 11.18 23.26 L 11.55 23.26 L 11.93 23.26 L 12.3 23.26 L 12.68 23.26 L 13.05 23.26 L 13.43 23.26" fill="none" stroke="#111" stroke-width="1.21" stroke-linecap="round" stroke-linejoin="round"/>
<path d="M 14.43 10.26 L 14.51 10.47 L 14.59 10.68 L 14.68 10.89 L 14.76 11.09 L 14.84 11.3 L 14.93 11.51 L 15.01 11.72 L 15.09 11.93 L 15.18 12.14 L 15.26 12.34 L 15.34 12.55 L 15.43 12.76 L 15.51 12.97 L 15.59 13.18 L 15.68 13.39 L 15.76 13.59 L 15.84 13.8 L 15.93 14.01 L 16.01 14.22 L 16.09 14.43 L 16.18 14.64 L 16.26 14.84 L 16.34 15.05 L 16.43 15.26" fill="none" stroke="#111" stroke-width="1.21" stroke-linecap="round" stroke-linejoin="round"/>
<path d="M 16.43 12.26 L 16.59 12.14 L 16.76 12.01 L 16.93 11.89 L 17.09 11.76 L 17.26 11.64 L 17.43 11.51 L 17.59 11.39 L 17.76 11.26 L 17.93 11.14 L 18.09 11.01 L 18.26 10.89 L 18.43 10.76 L 18.59 10.64 L 18.76 10.51 L 18.93 10.39 L 19.09 10.26 L 19.26 10.14 L 19.43 10.01 L 19.59 9.89 L 19.76 9.76 L 19.93 9.64 L 20.09 9.51 L 20.26 9.39 L 20.43 9.26 L 20.43 9.26 L 20.43 9.47 L 20.43 9.68 L 20.43 9.89 L 20.43 10.09 L 20.43 10.3 L 20.43 10.51 L 20.43 10.72 L 20.43 10.93 L 20.43 11.14 L 20.43 11.34 L 20.43 11.55 L 20.43 11.76 L 20.43 11.97 L 20.43 12.18 L 20.43 12.39 L 20.43 12.59 L 20.43 12.8 L 20.43 13.01 L 20.43 13.22 L 20.43 13.43 L 20.43 13.64 L 20.43 13.84 L 20.43 14.05 L 20.43 14.26 L 20.43 14.26 L 20.3 14.39 L 20.18 14.51 L 20.05 14.64 L 19.93 14.76 L 19.8 14.89 L 19.68 15.01 L 19.55 15.14 L 19.43 15.26 L 19.3 15.39 L 19.18 15.51 L 19.05 15.64 L 18.93 15.76 L 18.8 15.89 L 18.68 16.01 L 18.55 16.14 L 18.43 16.26 L 18.3 16.39 L 18.18 16.51 L 18.05 16.64 L 17.93 16.76 L 17.8 16.89 L 17.68 17.01 L 17.55 17.14 L 17.43 17.26" fill="none" stroke="#111" stroke-width="1.21" stroke-linecap="round" stroke-linejoin="round"/>
<path d="M 17.43 17.26 L 17.96 17.7 L 18.45 18.18 L 18.89 18.71 L 19.29 19.27 L 19.63 19.86 L 19.92 20.49 L 20.16 21.13 L 20.33 21.8 L 20.45 22.48 L 20.5 23.16 L 20.5 23.85 L 20.43 24.54 L 20.3 25.21 L 20.12 25.87 L 19.87 26.52 L 19.57 27.14 L 19.22 27.73 L 18.81 28.28 L 18.36 28.8 L 17.86 29.27 L 17.32 29.7 L 16.75 30.08 L 16.14 30.41 L 15.51 30.68" fill="none" stroke="#111" stroke-width="1.21" stroke-linecap="round" stroke-linejoin="round"/>
</svg>
