<?xml version="1.0" encoding="UTF-8"?>
<svg xmlns="http://www.w3.org/2000/svg" viewBox="0 0 24.03 40.39">
<path d="M 6.03 4.0 L 6.24 4.0 L 6.45 4.0 L 6.66 4.0 L 6.87 4.0 L 7.08 4.0 L 7.28 4.0 L 7.49 4.0 L 7.7 4.0 L 7.91 4.0 L 8.12 4.0 L 8.33 4.0 L 8.53 4.0 L 8.74 4.0 L 8.95 4.0 L 9.16 4.0 L 9.37 4.0 L 9.58 4.0 L 9.78 4.0 L 9.99 4.0 L 10.2 4.0 L 10.41 4.0 L 10.62 4.0 L 10.83 4.0 L 11.03 4.0 L 11.03 4.0 L 10.99 4.38 L 10.95 4.75 L 10.91 5.12 L 10.87 5.5 L 10.83 5.88 L 10.78 6.25 L 10.74 6.62 L 10.7 7.0 L 10.66 7.38 L 10.62 7.75 L 10.58 8.12 L 10.53 8.5 L 10.49 8.88 L 10.45 9.25 L 10.41 9.62 L 10.37 10.0 L 10.33 10.38 L 10.28 10.75 L 10.24 11.12 L 10.2 11.5 L 10.16 11.88 L 10.12 12.25 L 10.08 12.63 L 10.03 13.0" fill="none" stroke="#111" stroke-width="1.41" stroke-linecap="round" stroke-linejoin="round"/>
<path d="M 7.03 14.0 L 7.37 13.92 L 7.7 13.83 L 8.03 13.75 L 8.37 13.67 L 8.7 13.58 L 9.03 13.5 L 9.37 13.42 L 9.7 13.33 L 10.03 13.25 L 10.37 13.17 L 10.7 13.08 L 11.03 13.0 L 11.37 12.92 L 11.7 12.83 L 12.03 12.75 L 12.37 12.67 L 12.7 12.58 L 13.03 12.5 L 13.37 12.42 L 13.7 12.33 L 14.03 12.25 L 14.37 12.17 L 14.7 12.08 L 15.03 12.0" fill="none" stroke="#111" stroke-width="1.41" stroke-linecap="round" stroke-linejoin="round"/>
<path d="M 6.03 8.0 L 6.62 7.96 L 7.2 7.92 L 7.78 7.88 L 8.37 7.83 L 8.95 7.79 L 9.53 7.75 L 10.12 7.71 L 10.7 7.67 L 11.28 7.62 L 11.87 7.58 L 12.45 7.54 L 13.03 7.5 L 13.62 7.46 L 14.2 7.42 L 14.78 7.38 L 15.37 7.33 L 15.95 7.29 L 16.53 7.25 L 17.12 7.21 L 17.7 7.17 L 18.28 7.12 L 18.87 7.08 L 19.45 7.04 L 20.03 7.0" fill="none" stroke="#111" stroke-width="1.41" stroke-linecap="round" stroke-linejoin="round"/>
<path d="M 11.03 14.0 L 10.95 14.21 L 10.87 14.42 L 10.78 14.62 L 10.7 14.83 L 10.62 15.04 L 10.53 15.25 L 10.45 15.46 L 10.37 15.67 L 10.28 15.88 L 10.2 16.08 L 10.12 16.29 L 10.03 16.5 L 9.95 16.71 L 9.87 16.92 L 9.78 17.12 L 9.7 17.33 L 9.62 17.54 L 9.53 17.75 L 9.45 17.96 L 9.37 18.17 L 9.28 18.38 L 9.2 18.58 L 9.12 18.79 L 9.03 19.0 L 9.03 19.0 L 9.84 19.39 L 10.62 19.85 L 11.34 20.38 L 12.01 20.97 L 12.63 21.62 L 13.18 22.33 L 13.67 23.08 L 14.09 23.88 L 14.43 24.71 L 14.69 25.57 L 14.87 26.44 L 14.97 27.34 L 14.99 28.23 L 14.93 29.13 L 14.78 30.01 L 14.55 30.88 L 14.25 31.73 L 13.87 32.54 L 13.41 33.31 L 12.89 34.04 L 12.3 34.72 L 11.65 35.34 L 10.95 35.9 L 10.19 36.39" fill="none" stroke="#111" stroke-width="1.41" stroke-linecap="round" stroke-linejoin="round"/>
<path d="M 11.03 14.0 L 11.33 14.17 L 11.62 14.33 L 11.91 14.5 L 12.2 14.67 L 12.49 14.83 L 12.78 15.0 L 13.08 15.17 L 13.37 15.33 L 13.66 15.5 L 13.95 15.67 L 14.24 15.83 L 14.53 16.0 L 14.83 16.17 L 15.12 16.33 L 15.41 16.5 L 15.7 16.67 L 15.99 16.83 L 16.28 17.0 L 16.58 17.17 L 16.87 17.33 L 17.16 17.5 L 17.45 17.67 L 17.74 17.83 L 18.03 18.0" fill="none" stroke="#111" stroke-width="1.41" stroke-linecap="round" stroke-linejoin="round"/>
<path d="M 14.03 16.0 L 13.31 16.26 L 12.6 16.56 L 11.91 16.89 L 11.23 17.26 L 10.58 17.67 L 9.95 18.11 L 9.34 18.58 L 8.76 19.08 L 8.2 19.62 L 7.68 20.18 L 7.18 20.77 L 6.72 21.38 L 6.29 22.02 L 5.89 22.68 L 5.53 23.36 L 5.21 24.06 L 4.92 24.77 L 4.67 25.5 L 4.46 26.24 L 4.29 26.99 L 4.15 27.75 L 4.06 28.51 L 4.01 29.28 L 4.0 30.05" fill="none" stroke="#111" stroke-width="1.41" stroke-linecap="round" stroke-linejoin="round"/>
<path d="M 13.03 22.0 L 12.78 22.38 L 12.53 22.75 L 12.28 23.12 L 12.03 23.5 L 11.78 23.88 L 11.53 24.25 L 11.28 24.62 L 11.03 25.0 L 10.78 25.38 L 10.53 25.75 L 10.28 26.12 L 10.03 26.5 L 9.78 26.88 L 9.53 27.25 L 9.28 27.62 L 9.03 28.0 L 8.78 28.38 L 8.53 28.75 L 8.28 29.12 L 8.03 29.5 L 7.78 29.88 L 7.53 30.25 L 7.28 30.62 L 7.03 31.0" fill="none" stroke="#111" stroke-width="1.41" stroke-linecap="round" stroke-linejoin="round"/>
</svg>
