<?xml version="1.0" encoding="UTF-8"?>
<svg xmlns="http://www.w3.org/2000/svg" viewBox="0 0 27.74 36.00">
<path d="M 6.16 4.0 L 6.66 4.0 L 7.16 4.0 L 7.66 4.0 L 8.16 4.0 L 8.66 4.0 L 9.16 4.0 L 9.66 4.0 L 10.16 4.0 L 10.66 4.0 L 11.16 4.0 L 11.66 4.0 L 12.16 4.0 L 12.66 4.0 L 13.16 4.0 L 13.66 4.0 L 14.16 4.0 L 14.66 4.0 L 15.16 4.0 L 15.66 4.0 L 16.16 4.0 L 16.66 4.0 L 17.16 4.0 L 17.66 4.0 L 18.16 4.0" fill="none" stroke="#111" stroke-width="1.26" stroke-linecap="round" stroke-linejoin="round"/>
<path d="M 10.16 5.0 L 10.29 5.25 L 10.41 5.5 L 10.54 5.75 L 10.66 6.0 L 10.79 6.25 L 10.91 6.5 L 11.04 6.75 L 11.16 7.0 L 11.29 7.25 L 11.41 7.5 L 11.54 7.75 L 11.66 8.0 L 11.79 8.25 L 11.91 8.5 L 12.04 8.75 L 12.16 9.0 L 12.29 9.25 L 12.41 9.5 L 12.54 9.75 L 12.66 10.0 L 12.79 10.25 L 12.91 10.5 L 13.04 10.75 L 13.16 11.0 L 13.16 11.0 L 13.29 10.75 L 13.41 10.5 L 13.54 10.25 L 13.66 10.0 L 13.79 9.75 L 13.91 9.5 L 14.04 9.25 L 14.16 9.0 L 14.29 8.75 L 14.41 8.5 L 14.54 8.25 L 14.66 8.0 L 14.79 7.75 L 14.91 7.5 L 15.04 7.25 L 15.16 7.0 L 15.29 6.75 L 15.41 6.5 L 15.54 6.25 L 15.66 6.0 L 15.79 5.75 L 15.91 5.5 L 16.04 5.25 L 16.16 5.0" fill="none" stroke="#111" stroke-width="1.26" stroke-linecap="round" stroke-linejoin="round"/>
<path d="M 4.16 19.0 L 4.07 18.57 L 4.02 18.14 L 4.0 17.7 L 4.01 17.27 L 4.06 16.83 L 4.15 16.4 L 4.27 15.98 L 4.42 15.57 L 4.6 15.18 L 4.81 14.8 L 5.05 14.43 L 5.32 14.09 L 5.62 13.77 L 5.94 13.47 L 6.29 13.2 L 6.65 12.96 L 7.03 12.75 L 7.43 12.57 L 7.84 12.42 L 8.26 12.31 L 8.69 12.23 L 9.13 12.18 L 9.56 12.17 L 10.0 12.19 L 10.16 12.0 L 10.72 11.33 L 11.36 10.72 L 12.06 10.19 L 12.82 9.75 L 13.62 9.4 L 14.46 9.15 L 15.33 8.99 L 16.2 8.94 L 17.08 8.99 L 17.94 9.14 L 18.78 9.39 L 19.59 9.74 L 20.35 10.17 L 21.05 10.7 L 21.69 11.3 L 22.26 11.97 L 22.74 12.7 L 23.13 13.48 L 23.43 14.31 L 23.63 15.16 L 23.74 16.03 L 23.74 16.91 L 23.63 17.78 L 23.43 18.63" fill="none" stroke="#111" stroke-width="1.26" stroke-linecap="round" stroke-linejoin="round"/>
<path d="M 15.16 12.0 L 15.33 12.39 L 15.44 12.81 L 15.48 13.23 L 15.46 13.66 L 15.37 14.08 L 15.21 14.48 L 15.0 14.85 L 14.73 15.18 L 14.41 15.47 L 14.06 15.71 L 13.67 15.89 L 13.26 16.0 L 12.83 16.05 L 12.4 16.04 L 11.98 15.96 L 11.58 15.81 L 11.2 15.61 L 10.86 15.35 L 10.57 15.04 L 10.32 14.69 L 10.14 14.3 L 10.01 13.89 L 9.95 13.47 L 9.96 13.04" fill="none" stroke="#111" stroke-width="1.26" stroke-linecap="round" stroke-linejoin="round"/>
<path d="M 10.16 16.0 L 9.91 16.08 L 9.66 16.17 L 9.41 16.25 L 9.16 16.33 L 8.91 16.42 L 8.66 16.5 L 8.41 16.58 L 8.16 16.67 L 7.91 16.75 L 7.66 16.83 L 7.41 16.92 L 7.16 17.0 L 6.91 17.08 L 6.66 17.17 L 6.41 17.25 L 6.16 17.33 L 5.91 17.42 L 5.66 17.5 L 5.41 17.58 L 5.16 17.67 L 4.91 17.75 L 4.66 17.83 L 4.41 17.92 L 4.16 18.0" fill="none" stroke="#111" stroke-width="1.26" stroke-linecap="round" stroke-linejoin="round"/>
<path d="M 13.16 16.0 L 13.46 16.61 L 13.73 17.23 L 13.96 17.87 L 14.15 18.52 L 14.3 19.18 L 14.42 19.85 L 14.5 20.52 L 14.54 21.2 L 14.54 21.87 L 14.5 22.55 L 14.43 23.22 L 14.31 23.89 L 14.16 24.55 L 13.97 25.2 L 13.75 25.84 L 13.48 26.47 L 13.19 27.08 L 12.85 27.67 L 12.49 28.24 L 12.09 28.79 L 11.67 29.31 L 11.21 29.82 L 10.73 30.29 L 10.22 30.74" fill="none" stroke="#111" stroke-width="1.26" stroke-linecap="round" stroke-linejoin="round"/>
<path d="M 13.16 17.0 L 13.0 17.25 L 12.83 17.5 L 12.66 17.75 L 12.5 18.0 L 12.33 18.25 L 12.16 18.5 L 12.0 18.75 L 11.83 19.0 L 11.66 19.25 L 11.5 19.5 L 11.33 19.75 L 11.16 20.0 L 11.0 20.25 L 10.83 20.5 L 10.66 20.75 L 10.5 21.0 L 10.33 21.25 L 10.16 21.5 L 10.0 21.75 L 9.83 22.0 L 9.66 22.25 L 9.5 22.5 L 9.33 22.75 L 9.16 23.0" fill="none" stroke="#111" stroke-width="1.26" stroke-linecap="round" stroke-linejoin="round"/>
<path d="M 14.16 26.0 L 14.29 26.17 L 14.41 26.33 L 14.54 26.5 L 14.66 26.67 L 14.79 26.83 L 14.91 27.0 L 15.04 27.17 L 15.16 27.33 L 15.29 27.5 L 15.41 27.67 L 15.54 27.83 L 15.66 28.0 L 15.79 28.17 L 15.91 28.33 L 16.04 28.5 L 16.16 28.67 L 16.29 28.83 L 16.41 29.0 L 16.54 29.17 L 16.66 29.33 L 16.79 29.5 L 16.91 29.67 L 17.04 29.83 L 17.16 30.0" fill="none" stroke="#111" stroke-width="1.26" stroke-linecap="round" stroke-linejoin="round"/>
<path d="M 5.16 32.0 L 5.83 31.92 L 6.5 31.83 L 7.16 31.75 L 7.83 31.67 L 8.5 31.58 L 9.16 31.5 L 9.83 31.42 L 10.5 31.33 L 11.16 31.25 L 11.83 31.17 L 12.5 31.08 L 13.16 31.0 L 13.83 30.92 L 14.5 30.83 L 15.16 30.75 L 15.83 30.67 L 16.5 30.58 L 17.16 30.5 L 17.83 30.42 L 18.5 30.33 L 19.16 30.25 L 19.83 30.17 L 20.5 30.08 L 21.16 30.0" fill="none" stroke="#111" stroke-width="1.26" stroke-linecap="round" stroke-linejoin="round"/>
</svg>
