<?xml version="1.0" encoding="UTF-8"?>
<svg xmlns="http://www.w3.org/2000/svg" viewBox="0 0 22.00 39.95">
<path d="M 11.0 9.0 L 10.96 9.92 L 10.92 10.83 L 10.88 11.75 L 10.83 12.67 L 10.79 13.58 L 10.75 14.5 L 10.71 15.42 L 10.67 16.33 L 10.62 17.25 L 10.58 18.17 L 10.54 19.08 L 10.5 20.0 L 10.46 20.92 L 10.42 21.83 L 10.38 22.75 L 10.33 23.67 L 10.29 24.58 L 10.25 25.5 L 10.21 26.42 L 10.17 27.33 L 10.13 28.25 L 10.08 29.17 L 10.04 30.08 L 10.0 31.0" fill="none" stroke="#111" stroke-width="1.40" stroke-linecap="round" stroke-linejoin="round"/>
<path d="M 11.0 14.0 L 11.29 14.0 L 11.58 14.0 L 11.88 14.0 L 12.17 14.0 L 12.46 14.0 L 12.75 14.0 L 13.04 14.0 L 13.33 14.0 L 13.62 14.0 L 13.92 14.0 L 14.21 14.0 L 14.5 14.0 L 14.79 14.0 L 15.08 14.0 L 15.38 14.0 L 15.67 14.0 L 15.96 14.0 L 16.25 14.0 L 16.54 14.0 L 16.83 14.0 L 17.12 14.0 L 17.42 14.0 L 17.71 14.0 L 18.0 14.0" fill="none" stroke="#111" stroke-width="1.40" stroke-linecap="round" stroke-linejoin="round"/>
<path d="M 18.0 10.0 L 17.96 10.25 L 17.92 10.5 L 17.88 10.75 L 17.83 11.0 L 17.79 11.25 L 17.75 11.5 L 17.71 11.75 L 17.67 12.0 L 17.62 12.25 L 17.58 12.5 L 17.54 12.75 L 17.5 13.0 L 17.46 13.25 L 17.42 13.5 L 17.38 13.75 L 17.33 14.0 L 17.29 14.25 L 17.25 14.5 L 17.21 14.75 L 17.17 15.0 L 17.12 15.25 L 17.08 15.5 L 17.04 15.75 L 17.0 16.0" fill="none" stroke="#111" stroke-width="1.40" stroke-linecap="round" stroke-linejoin="round"/>
<path d="M 12.0 22.0 L 12.17 22.0 L 12.33 22.0 L 12.5 22.0 L 12.67 22.0 L 12.83 22.0 L 13.0 22.0 L 13.17 22.0 L 13.33 22.0 L 13.5 22.0 L 13.67 22.0 L 13.83 22.0 L 14.0 22.0 L 14.17 22.0 L 14.33 22.0 L 14.5 22.0 L 14.67 22.0 L 14.83 22.0 L 15.0 22.0 L 15.17 22.0 L 15.33 22.0 L 15.5 22.0 L 15.67 22.0 L 15.83 22.0 L 16.0 22.0" fill="none" stroke="#111" stroke-width="1.40" stroke-linecap="round" stroke-linejoin="round"/>
<path d="M 16.0 19.0 L 16.04 19.25 L 16.08 19.5 L 16.12 19.75 L 16.17 20.0 L 16.21 20.25 L 16.25 20.5 L 16.29 20.75 L 16.33 21.0 L 16.38 21.25 L 16.42 21.5 L 16.46 21.75 L 16.5 22.0 L 16.54 22.25 L 16.58 22.5 L 16.62 22.75 L 16.67 23.0 L 16.71 23.25 L 16.75 23.5 L 16.79 23.75 L 16.83 24.0 L 16.88 24.25 L 16.92 24.5 L 16.96 24.75 L 17.0 25.0" fill="none" stroke="#111" stroke-width="1.40" stroke-linecap="round" stroke-linejoin="round"/>
<path d="M 11.0 26.0 L 11.48 26.23 L 11.94 26.48 L 12.4 26.76 L 12.84 27.05 L 13.27 27.36 L 13.68 27.69 L 14.08 28.04 L 14.47 28.41 L 14.84 28.79 L 15.19 29.19 L 15.52 29.6 L 15.83 30.03 L 16.13 30.47 L 16.4 30.92 L 16.66 31.39 L 16.89 31.86 L 17.1 32.35 L 17.29 32.84 L 17.46 33.35 L 17.61 33.86 L 17.73 34.37 L 17.83 34.89 L 17.91 35.42 L 17.96 35.95" fill="none" stroke="#111" stroke-width="1.40" stroke-linecap="round" stroke-linejoin="round"/>
<path d="M 14.0 23.0 L 14.11 23.34 L 14.2 23.69 L 14.28 24.04 L 14.34 24.39 L 14.38 24.75 L 14.4 25.11 L 14.41 25.46 L 14.4 25.82 L 14.37 26.18 L 14.33 26.54 L 14.27 26.89 L 14.19 27.24 L 14.09 27.58 L 13.98 27.93 L 13.85 28.26 L 13.71 28.59 L 13.55 28.91 L 13.37 29.22 L 13.18 29.53 L 12.98 29.82 L 12.76 30.1 L 12.53 30.38 L 12.28 30.64 L 12.03 30.89" fill="none" stroke="#111" stroke-width="1.40" stroke-linecap="round" stroke-linejoin="round"/>
<path d="M 4.0 4.0 L 4.31 4.25 L 4.61 4.51 L 4.91 4.78 L 5.2 5.05 L 5.48 5.33 L 5.75 5.63 L 6.01 5.93 L 6.26 6.23 L 6.51 6.55 L 6.74 6.87 L 6.97 7.2 L 7.19 7.53 L 7.39 7.87 L 7.59 8.22 L 7.78 8.57 L 7.95 8.93 L 8.12 9.29 L 8.27 9.66 L 8.41 10.03 L 8.55 10.41 L 8.67 10.79 L 8.78 11.17 L 8.88 11.56 L 8.97 11.95" fill="none" stroke="#111" stroke-width="1.40" stroke-linecap="round" stroke-linejoin="round"/>
<path d="M 9.0 5.0 L 8.61 5.25 L 8.24 5.54 L 7.89 5.85 L 7.57 6.19 L 7.27 6.55 L 7.0 6.93 L 6.77 7.34 L 6.56 7.76 L 6.39 8.19 L 6.26 8.64 L 6.16 9.1 L 6.09 9.56 L 6.07 10.03 L 6.07 10.5 L 6.12 10.96 L 6.2 11.42 L 6.31 11.87 L 6.47 12.32 L 6.65 12.75 L 6.87 13.16 L 7.12 13.55 L 7.4 13.93 L 7.71 14.28 L 8.04 14.61" fill="none" stroke="#111" stroke-width="1.40" stroke-linecap="round" stroke-linejoin="round"/>
</svg>
