<?xml version="1.0" encoding="UTF-8"?>
<svg xmlns="http://www.w3.org/2000/svg" viewBox="0 0 24.88 40.43">
<path d="M 7.88 9.46 L 7.92 9.25 L 7.97 9.04 L 8.01 8.83 L 8.05 8.63 L 8.09 8.42 L 8.13 8.21 L 8.17 8.0 L 8.22 7.79 L 8.26 7.58 L 8.3 7.38 L 8.34 7.17 L 8.38 6.96 L 8.42 6.75 L 8.47 6.54 L 8.51 6.33 L 8.55 6.13 L 8.59 5.92 L 8.63 5.71 L 8.67 5.5 L 8.72 5.29 L 8.76 5.08 L 8.8 4.88 L 8.84 4.67 L 8.88 4.46 L 8.88 4.46 L 9.29 4.29 L 9.7 4.16 L 10.13 4.07 L 10.56 4.02 L 11.0 4.0 L 11.43 4.02 L 11.87 4.08 L 12.29 4.18 L 12.71 4.31 L 13.11 4.48 L 13.49 4.69 L 13.86 4.93 L 14.2 5.19 L 14.52 5.49 L 14.81 5.82 L 15.07 6.17 L 15.3 6.54 L 15.5 6.93 L 15.66 7.33 L 15.79 7.75 L 15.88 8.18 L 15.93 8.61 L 15.94 9.05 L 15.91 9.48 L 15.88 9.46 L 15.62 9.61 L 15.35 9.76 L 15.08 9.89 L 14.8 10.0 L 14.51 10.11 L 14.22 10.2 L 13.93 10.27 L 13.63 10.34 L 13.33 10.39 L 13.03 10.42 L 12.73 10.44 L 12.43 10.45 L 12.12 10.44 L 11.82 10.42 L 11.52 10.39 L 11.22 10.34 L 10.92 10.27 L 10.63 10.2 L 10.34 10.11 L 10.05 10.0 L 9.77 9.89 L 9.5 9.76 L 9.23 9.61 L 8.97 9.46" fill="none" stroke="#111" stroke-width="1.41" stroke-linecap="round" stroke-linejoin="round"/>
<path d="M 10.88 10.46 L 10.77 10.82 L 10.63 11.18 L 10.48 11.52 L 10.3 11.86 L 10.11 12.19 L 9.9 12.5 L 9.67 12.81 L 9.42 13.1 L 9.16 13.37 L 8.89 13.64 L 8.6 13.88 L 8.3 14.11 L 7.98 14.32 L 7.65 14.52 L 7.32 14.69 L 6.97 14.85 L 6.62 14.99 L 6.25 15.11 L 5.89 15.2 L 5.51 15.28 L 5.14 15.33 L 4.76 15.37 L 4.38 15.38 L 4.0 15.37" fill="none" stroke="#111" stroke-width="1.41" stroke-linecap="round" stroke-linejoin="round"/>
<path d="M 12.88 10.46 L 13.22 10.71 L 13.55 10.96 L 13.88 11.21 L 14.22 11.46 L 14.55 11.71 L 14.88 11.96 L 15.22 12.21 L 15.55 12.46 L 15.88 12.71 L 16.22 12.96 L 16.55 13.21 L 16.88 13.46 L 17.22 13.71 L 17.55 13.96 L 17.88 14.21 L 18.22 14.46 L 18.55 14.71 L 18.88 14.96 L 19.22 15.21 L 19.55 15.46 L 19.88 15.71 L 20.22 15.96 L 20.55 16.21 L 20.88 16.46" fill="none" stroke="#111" stroke-width="1.41" stroke-linecap="round" stroke-linejoin="round"/>
<path d="M 4.88 19.46 L 5.05 19.33 L 5.22 19.21 L 5.38 19.08 L 5.55 18.96 L 5.72 18.83 L 5.88 18.71 L 6.05 18.58 L 6.22 18.46 L 6.38 18.33 L 6.55 18.21 L 6.72 18.08 L 6.88 17.96 L 7.05 17.83 L 7.22 17.71 L 7.38 17.58 L 7.55 17.46 L 7.72 17.33 L 7.88 17.21 L 8.05 17.08 L 8.22 16.96 L 8.38 16.83 L 8.55 16.71 L 8.72 16.58 L 8.88 16.46 L 8.88 16.46 L 8.71 16.98 L 8.58 17.5 L 8.47 18.04 L 8.41 18.58 L 8.37 19.12 L 8.38 19.66 L 8.41 20.21 L 8.49 20.75 L 8.6 21.28 L 8.74 21.8 L 8.91 22.32 L 9.12 22.82 L 9.36 23.31 L 9.64 23.78 L 9.94 24.23 L 10.27 24.67 L 10.63 25.08 L 11.01 25.46 L 11.42 25.82 L 11.85 26.15 L 12.3 26.46 L 12.77 26.73 L 13.26 26.98 L 13.76 27.19" fill="none" stroke="#111" stroke-width="1.41" stroke-linecap="round" stroke-linejoin="round"/>
<path d="M 12.88 23.46 L 13.12 23.25 L 13.34 23.02 L 13.55 22.79 L 13.76 22.54 L 13.95 22.29 L 14.12 22.03 L 14.29 21.75 L 14.44 21.48 L 14.57 21.19 L 14.7 20.9 L 14.81 20.6 L 14.9 20.3 L 14.98 19.99 L 15.04 19.68 L 15.09 19.37 L 15.13 19.05 L 15.15 18.74 L 15.15 18.42 L 15.14 18.1 L 15.11 17.79 L 15.07 17.47 L 15.02 17.16 L 14.94 16.85 L 14.86 16.55 L 14.88 16.46 L 15.09 16.54 L 15.3 16.63 L 15.51 16.71 L 15.72 16.79 L 15.92 16.88 L 16.13 16.96 L 16.34 17.04 L 16.55 17.13 L 16.76 17.21 L 16.97 17.29 L 17.17 17.38 L 17.38 17.46 L 17.59 17.54 L 17.8 17.63 L 18.01 17.71 L 18.22 17.79 L 18.42 17.88 L 18.63 17.96 L 18.84 18.04 L 19.05 18.13 L 19.26 18.21 L 19.47 18.29 L 19.67 18.38 L 19.88 18.46" fill="none" stroke="#111" stroke-width="1.41" stroke-linecap="round" stroke-linejoin="round"/>
<path d="M 17.88 22.46 L 17.91 22.84 L 17.93 23.22 L 17.92 23.61 L 17.9 23.99 L 17.86 24.37 L 17.8 24.75 L 17.72 25.13 L 17.63 25.5 L 17.52 25.87 L 17.39 26.23 L 17.24 26.58 L 17.08 26.93 L 16.9 27.27 L 16.7 27.6 L 16.49 27.92 L 16.27 28.23 L 16.02 28.53 L 15.77 28.82 L 15.5 29.09 L 15.22 29.35 L 14.93 29.6 L 14.62 29.83 L 14.31 30.05 L 13.98 30.26" fill="none" stroke="#111" stroke-width="1.41" stroke-linecap="round" stroke-linejoin="round"/>
<path d="M 14.88 22.46 L 15.25 22.98 L 15.61 23.51 L 15.96 24.04 L 16.3 24.58 L 16.62 25.13 L 16.94 25.68 L 17.25 26.24 L 17.55 26.81 L 17.84 27.38 L 18.12 27.95 L 18.38 28.53 L 18.64 29.11 L 18.89 29.7 L 19.12 30.3 L 19.35 30.89 L 19.56 31.5 L 19.76 32.1 L 19.95 32.71 L 20.13 33.32 L 20.3 33.94 L 20.46 34.56 L 20.61 35.18 L 20.74 35.8 L 20.87 36.43" fill="none" stroke="#111" stroke-width="1.41" stroke-linecap="round" stroke-linejoin="round"/>
</svg>
