<?xml version="1.0" encoding="UTF-8"?>
<svg xmlns="http://www.w3.org/2000/svg" viewBox="0 0 21.00 38.93">
<path d="M 6.0 9.0 L 6.46 9.0 L 6.92 9.0 L 7.38 9.0 L 7.83 9.0 L 8.29 9.0 L 8.75 9.0 L 9.21 9.0 L 9.67 9.0 L 10.12 9.0 L 10.58 9.0 L 11.04 9.0 L 11.5 9.0 L 11.96 9.0 L 12.42 9.0 L 12.88 9.0 L 13.33 9.0 L 13.79 9.0 L 14.25 9.0 L 14.71 9.0 L 15.17 9.0 L 15.62 9.0 L 16.08 9.0 L 16.54 9.0 L 17.0 9.0" fill="none" stroke="#111" stroke-width="1.36" stroke-linecap="round" stroke-linejoin="round"/>
<path d="M 6.0 15.0 L 6.0 14.75 L 6.0 14.5 L 6.0 14.25 L 6.0 14.0 L 6.0 13.75 L 6.0 13.5 L 6.0 13.25 L 6.0 13.0 L 6.0 12.75 L 6.0 12.5 L 6.0 12.25 L 6.0 12.0 L 6.0 11.75 L 6.0 11.5 L 6.0 11.25 L 6.0 11.0 L 6.0 10.75 L 6.0 10.5 L 6.0 10.25 L 6.0 10.0 L 6.0 9.75 L 6.0 9.5 L 6.0 9.25 L 6.0 9.0" fill="none" stroke="#111" stroke-width="1.36" stroke-linecap="round" stroke-linejoin="round"/>
<path d="M 17.0 17.0 L 17.0 16.67 L 17.0 16.33 L 17.0 16.0 L 17.0 15.67 L 17.0 15.33 L 17.0 15.0 L 17.0 14.67 L 17.0 14.33 L 17.0 14.0 L 17.0 13.67 L 17.0 13.33 L 17.0 13.0 L 17.0 12.67 L 17.0 12.33 L 17.0 12.0 L 17.0 11.67 L 17.0 11.33 L 17.0 11.0 L 17.0 10.67 L 17.0 10.33 L 17.0 10.0 L 17.0 9.67 L 17.0 9.33 L 17.0 9.0" fill="none" stroke="#111" stroke-width="1.36" stroke-linecap="round" stroke-linejoin="round"/>
<path d="M 8.0 6.0 L 8.17 6.12 L 8.33 6.25 L 8.5 6.38 L 8.67 6.5 L 8.83 6.62 L 9.0 6.75 L 9.17 6.88 L 9.33 7.0 L 9.5 7.12 L 9.67 7.25 L 9.83 7.38 L 10.0 7.5 L 10.17 7.62 L 10.33 7.75 L 10.5 7.88 L 10.67 8.0 L 10.83 8.12 L 11.0 8.25 L 11.17 8.38 L 11.33 8.5 L 11.5 8.62 L 11.67 8.75 L 11.83 8.88 L 12.0 9.0 L 12.0 9.0 L 12.08 8.79 L 12.17 8.58 L 12.25 8.38 L 12.33 8.17 L 12.42 7.96 L 12.5 7.75 L 12.58 7.54 L 12.67 7.33 L 12.75 7.12 L 12.83 6.92 L 12.92 6.71 L 13.0 6.5 L 13.08 6.29 L 13.17 6.08 L 13.25 5.88 L 13.33 5.67 L 13.42 5.46 L 13.5 5.25 L 13.58 5.04 L 13.67 4.83 L 13.75 4.62 L 13.83 4.42 L 13.92 4.21 L 14.0 4.0" fill="none" stroke="#111" stroke-width="1.36" stroke-linecap="round" stroke-linejoin="round"/>
<path d="M 11.0 9.0 L 11.04 9.42 L 11.08 9.83 L 11.12 10.25 L 11.17 10.67 L 11.21 11.08 L 11.25 11.5 L 11.29 11.92 L 11.33 12.33 L 11.38 12.75 L 11.42 13.17 L 11.46 13.58 L 11.5 14.0 L 11.54 14.42 L 11.58 14.83 L 11.62 15.25 L 11.67 15.67 L 11.71 16.08 L 11.75 16.5 L 11.79 16.92 L 11.83 17.33 L 11.88 17.75 L 11.92 18.17 L 11.96 18.58 L 12.0 19.0" fill="none" stroke="#111" stroke-width="1.36" stroke-linecap="round" stroke-linejoin="round"/>
<path d="M 4.0 19.0 L 4.2 19.64 L 4.38 20.29 L 4.55 20.94 L 4.71 21.59 L 4.85 22.25 L 4.98 22.91 L 5.09 23.57 L 5.2 24.23 L 5.29 24.9 L 5.36 25.57 L 5.43 26.24 L 5.47 26.91 L 5.51 27.58 L 5.53 28.25 L 5.54 28.92 L 5.53 29.59 L 5.51 30.26 L 5.48 30.93 L 5.43 31.6 L 5.37 32.27 L 5.3 32.94 L 5.21 33.61 L 5.11 34.27 L 5.0 34.93" fill="none" stroke="#111" stroke-width="1.36" stroke-linecap="round" stroke-linejoin="round"/>
<path d="M 8.0 18.0 L 8.24 18.63 L 8.47 19.26 L 8.68 19.9 L 8.87 20.55 L 9.04 21.2 L 9.2 21.85 L 9.34 22.51 L 9.46 23.18 L 9.56 23.84 L 9.65 24.51 L 9.72 25.18 L 9.77 25.85 L 9.8 26.52 L 9.82 27.2 L 9.82 27.87 L 9.8 28.54 L 9.76 29.21 L 9.7 29.89 L 9.63 30.55 L 9.53 31.22 L 9.43 31.89 L 9.3 32.55 L 9.15 33.21 L 8.99 33.86" fill="none" stroke="#111" stroke-width="1.36" stroke-linecap="round" stroke-linejoin="round"/>
<path d="M 5.0 22.0 L 5.17 21.96 L 5.33 21.92 L 5.5 21.88 L 5.67 21.83 L 5.83 21.79 L 6.0 21.75 L 6.17 21.71 L 6.33 21.67 L 6.5 21.62 L 6.67 21.58 L 6.83 21.54 L 7.0 21.5 L 7.17 21.46 L 7.33 21.42 L 7.5 21.38 L 7.67 21.33 L 7.83 21.29 L 8.0 21.25 L 8.17 21.21 L 8.33 21.17 L 8.5 21.12 L 8.67 21.08 L 8.83 21.04 L 9.0 21.0" fill="none" stroke="#111" stroke-width="1.36" stroke-linecap="round" stroke-linejoin="round"/>
<path d="M 5.0 31.0 L 5.12 30.96 L 5.25 30.92 L 5.38 30.88 L 5.5 30.83 L 5.62 30.79 L 5.75 30.75 L 5.88 30.71 L 6.0 30.67 L 6.12 30.62 L 6.25 30.58 L 6.38 30.54 L 6.5 30.5 L 6.62 30.46 L 6.75 30.42 L 6.88 30.38 L 7.0 30.33 L 7.12 30.29 L 7.25 30.25 L 7.38 30.21 L 7.5 30.17 L 7.62 30.12 L 7.75 30.08 L 7.88 30.04 L 8.0 30.0" fill="none" stroke="#111" stroke-width="1.36" stroke-linecap="round" stroke-linejoin="round"/>
<path d="M 10.0 26.0 L 10.25 26.0 L 10.5 26.0 L 10.75 26.0 L 11.0 26.0 L 11.25 26.0 L 11.5 26.0 L 11.75 26.0 L 12.0 26.0 L 12.25 26.0 L 12.5 26.0 L 12.75 26.0 L 13.0 26.0 L 13.25 26.0 L 13.5 26.0 L 13.75 26.0 L 14.0 26.0 L 14.25 26.0 L 14.5 26.0 L 14.75 26.0 L 15.0 26.0 L 15.25 26.0 L 15.5 26.0 L 15.75 26.0 L 16.0 26.0" fill="none" stroke="#111" stroke-width="1.36" stroke-linecap="round" stroke-linejoin="round"/>
<path d="M 10.0 29.0 L 10.25 29.0 L 10.5 29.0 L 10.75 29.0 L 11.0 29.0 L 11.25 29.0 L 11.5 29.0 L 11.75 29.0 L 12.0 29.0 L 12.25 29.0 L 12.5 29.0 L 12.75 29.0 L 13.0 29.0 L 13.25 29.0 L 13.5 29.0 L 13.75 29.0 L 14.0 29.0 L 14.25 29.0 L 14.5 29.0 L 14.75 29.0 L 15.0 29.0 L 15.25 29.0 L 15.5 29.0 L 15.75 29.0 L 16.0 29.0" fill="none" stroke="#111" stroke-width="1.36" stroke-linecap="round" stroke-linejoin="round"/>
<path d="M 16.0 19.0 L 16.04 19.62 L 16.08 20.25 L 16.12 20.88 L 16.17 21.5 L 16.21 22.12 L 16.25 22.75 L 16.29 23.38 L 16.33 24.0 L 16.38 24.62 L 16.42 25.25 L 16.46 25.88 L 16.5 26.5 L 16.54 27.12 L 16.58 27.75 L 16.62 28.38 L 16.67 29.0 L 16.71 29.62 L 16.75 30.25 L 16.79 30.88 L 16.83 31.5 L 16.88 32.12 L 16.92 32.75 L 16.96 33.38 L 17.0 34.0" fill="none" stroke="#111" stroke-width="1.36" stroke-linecap="round" stroke-linejoin="round"/>
<path d="M 6.0 12.0 L 6.46 12.0 L 6.92 12.0 L 7.38 12.0 L 7.83 12.0 L 8.29 12.0 L 8.75 12.0 L 9.21 12.0 L 9.67 12.0 L 10.12 12.0 L 10.58 12.0 L 11.04 12.0 L 11.5 12.0 L 11.96 12.0 L 12.42 12.0 L 12.88 12.0 L 13.33 12.0 L 13.79 12.0 L 14.25 12.0 L 14.71 12.0 L 15.17 12.0 L 15.62 12.0 L 16.08 12.0 L 16.54 12.0 L 17.0 12.0" fill="none" stroke="#111" stroke-width="1.36" stroke-linecap="round" stroke-linejoin="round"/>
</svg>
