<?xml version="1.0" encoding="UTF-8"?>
<svg xmlns="http://www.w3.org/2000/svg" viewBox="0 0 20.91 35.25">
<path d="M 4.0 20.73 L 4.39 20.25 L 4.77 19.75 L 5.13 19.25 L 5.47 18.73 L 5.79 18.2 L 6.09 17.66 L 6.37 17.11 L 6.64 16.54 L 6.88 15.97 L 7.1 15.39 L 7.3 14.81 L 7.48 14.21 L 7.64 13.62 L 7.78 13.01 L 7.9 12.4 L 8.0 11.79 L 8.07 11.17 L 8.12 10.55 L 8.15 9.94 L 8.16 9.31 L 8.14 8.69 L 8.11 8.08 L 8.05 7.46 L 7.97 6.84 L 8.0 6.73 L 8.66 7.54 L 9.27 8.4 L 9.83 9.29 L 10.32 10.22 L 10.76 11.17 L 11.14 12.16 L 11.45 13.16 L 11.7 14.18 L 11.88 15.22 L 12.0 16.26 L 12.05 17.31 L 12.03 18.36 L 11.95 19.41 L 11.8 20.45 L 11.58 21.48 L 11.3 22.49 L 10.96 23.48 L 10.55 24.45 L 10.08 25.39 L 9.56 26.3 L 8.98 27.18 L 8.34 28.02 L 7.65 28.81 L 6.91 29.56" fill="none" stroke="#111" stroke-width="1.23" stroke-linecap="round" stroke-linejoin="round"/>
<path d="M 8.0 13.73 L 8.12 13.81 L 8.25 13.89 L 8.38 13.98 L 8.5 14.06 L 8.62 14.14 L 8.75 14.23 L 8.88 14.31 L 9.0 14.39 L 9.12 14.48 L 9.25 14.56 L 9.38 14.64 L 9.5 14.73 L 9.62 14.81 L 9.75 14.89 L 9.88 14.98 L 10.0 15.06 L 10.12 15.14 L 10.25 15.23 L 10.38 15.31 L 10.5 15.39 L 10.62 15.48 L 10.75 15.56 L 10.88 15.64 L 11.0 15.73" fill="none" stroke="#111" stroke-width="1.23" stroke-linecap="round" stroke-linejoin="round"/>
<path d="M 12.0 9.73 L 12.29 9.65 L 12.57 9.54 L 12.85 9.42 L 13.11 9.26 L 13.35 9.09 L 13.59 8.9 L 13.8 8.69 L 14.0 8.46 L 14.17 8.21 L 14.32 7.95 L 14.46 7.68 L 14.56 7.4 L 14.65 7.11 L 14.7 6.81 L 14.74 6.51 L 14.74 6.21 L 14.72 5.91 L 14.68 5.61 L 14.61 5.32 L 14.52 5.03 L 14.4 4.76 L 14.26 4.49 L 14.09 4.24 L 13.91 4.0" fill="none" stroke="#111" stroke-width="1.23" stroke-linecap="round" stroke-linejoin="round"/>
<path d="M 15.0 5.73 L 15.29 6.07 L 15.56 6.42 L 15.81 6.8 L 16.04 7.19 L 16.24 7.59 L 16.42 8.0 L 16.57 8.42 L 16.69 8.85 L 16.79 9.29 L 16.85 9.74 L 16.9 10.18 L 16.91 10.63 L 16.9 11.08 L 16.85 11.53 L 16.79 11.97 L 16.69 12.41 L 16.57 12.84 L 16.42 13.26 L 16.24 13.68 L 16.04 14.08 L 15.81 14.46 L 15.56 14.84 L 15.29 15.19 L 15.0 15.53 L 15.0 15.73 L 15.39 16.37 L 15.74 17.03 L 16.04 17.72 L 16.29 18.42 L 16.49 19.15 L 16.64 19.88 L 16.74 20.62 L 16.79 21.37 L 16.79 22.12 L 16.73 22.87 L 16.63 23.61 L 16.47 24.34 L 16.26 25.06 L 16.01 25.77 L 15.7 26.45 L 15.35 27.11 L 14.96 27.75 L 14.52 28.36 L 14.04 28.93 L 13.52 29.48 L 12.97 29.98 L 12.38 30.45 L 11.76 30.87 L 11.12 31.25" fill="none" stroke="#111" stroke-width="1.23" stroke-linecap="round" stroke-linejoin="round"/>
</svg>
