<?xml version="1.0" encoding="UTF-8"?>
<svg xmlns="http://www.w3.org/2000/svg" viewBox="0 0 24.00 40.73">
<path d="M 6.0 21.0 L 6.58 20.75 L 7.17 20.5 L 7.75 20.25 L 8.33 20.0 L 8.92 19.75 L 9.5 19.5 L 10.08 19.25 L 10.67 19.0 L 11.25 18.75 L 11.83 18.5 L 12.42 18.25 L 13.0 18.0 L 13.58 17.75 L 14.17 17.5 L 14.75 17.25 L 15.33 17.0 L 15.92 16.75 L 16.5 16.5 L 17.08 16.25 L 17.67 16.0 L 18.25 15.75 L 18.83 15.5 L 19.42 15.25 L 20.0 15.0" fill="none" stroke="#111" stroke-width="1.43" stroke-linecap="round" stroke-linejoin="round"/>
<path d="M 6.0 21.0 L 6.0 21.29 L 6.0 21.58 L 6.0 21.88 L 6.0 22.17 L 6.0 22.46 L 6.0 22.75 L 6.0 23.04 L 6.0 23.33 L 6.0 23.62 L 6.0 23.92 L 6.0 24.21 L 6.0 24.5 L 6.0 24.79 L 6.0 25.08 L 6.0 25.38 L 6.0 25.67 L 6.0 25.96 L 6.0 26.25 L 6.0 26.54 L 6.0 26.83 L 6.0 27.12 L 6.0 27.42 L 6.0 27.71 L 6.0 28.0" fill="none" stroke="#111" stroke-width="1.43" stroke-linecap="round" stroke-linejoin="round"/>
<path d="M 6.0 25.0 L 6.7 25.12 L 7.41 25.19 L 8.12 25.21 L 8.83 25.19 L 9.54 25.12 L 10.24 25.0 L 10.94 24.83 L 11.62 24.62 L 12.28 24.36 L 12.92 24.06 L 13.55 23.71 L 14.15 23.33 L 14.72 22.9 L 15.26 22.44 L 15.77 21.94 L 16.24 21.41 L 16.68 20.85 L 17.08 20.26 L 17.44 19.65 L 17.76 19.01 L 18.03 18.35 L 18.26 17.68 L 18.44 16.99 L 18.58 16.29" fill="none" stroke="#111" stroke-width="1.43" stroke-linecap="round" stroke-linejoin="round"/>
<path d="M 12.0 22.0 L 11.88 21.93 L 11.76 21.85 L 11.64 21.77 L 11.54 21.67 L 11.43 21.57 L 11.34 21.47 L 11.25 21.36 L 11.17 21.24 L 11.1 21.12 L 11.03 20.99 L 10.97 20.86 L 10.92 20.73 L 10.88 20.59 L 10.85 20.45 L 10.83 20.31 L 10.81 20.17 L 10.81 20.03 L 10.81 19.89 L 10.82 19.75 L 10.85 19.61 L 10.88 19.47 L 10.92 19.33 L 10.97 19.2 L 11.02 19.07" fill="none" stroke="#111" stroke-width="1.43" stroke-linecap="round" stroke-linejoin="round"/>
<path d="M 12.0 19.0 L 12.12 19.04 L 12.25 19.08 L 12.38 19.12 L 12.5 19.17 L 12.62 19.21 L 12.75 19.25 L 12.88 19.29 L 13.0 19.33 L 13.12 19.38 L 13.25 19.42 L 13.38 19.46 L 13.5 19.5 L 13.62 19.54 L 13.75 19.58 L 13.88 19.62 L 14.0 19.67 L 14.12 19.71 L 14.25 19.75 L 14.38 19.79 L 14.5 19.83 L 14.62 19.88 L 14.75 19.92 L 14.88 19.96 L 15.0 20.0 L 15.0 20.0 L 14.96 20.04 L 14.92 20.08 L 14.88 20.12 L 14.83 20.17 L 14.79 20.21 L 14.75 20.25 L 14.71 20.29 L 14.67 20.33 L 14.62 20.38 L 14.58 20.42 L 14.54 20.46 L 14.5 20.5 L 14.46 20.54 L 14.42 20.58 L 14.38 20.62 L 14.33 20.67 L 14.29 20.71 L 14.25 20.75 L 14.21 20.79 L 14.17 20.83 L 14.12 20.88 L 14.08 20.92 L 14.04 20.96 L 14.0 21.0" fill="none" stroke="#111" stroke-width="1.43" stroke-linecap="round" stroke-linejoin="round"/>
<path d="M 6.0 4.0 L 6.21 4.21 L 6.42 4.42 L 6.62 4.62 L 6.83 4.83 L 7.04 5.04 L 7.25 5.25 L 7.46 5.46 L 7.67 5.67 L 7.88 5.88 L 8.08 6.08 L 8.29 6.29 L 8.5 6.5 L 8.71 6.71 L 8.92 6.92 L 9.12 7.12 L 9.33 7.33 L 9.54 7.54 L 9.75 7.75 L 9.96 7.96 L 10.17 8.17 L 10.38 8.38 L 10.58 8.58 L 10.79 8.79 L 11.0 9.0 L 11.0 9.0 L 11.17 8.79 L 11.33 8.58 L 11.5 8.38 L 11.67 8.17 L 11.83 7.96 L 12.0 7.75 L 12.17 7.54 L 12.33 7.33 L 12.5 7.12 L 12.67 6.92 L 12.83 6.71 L 13.0 6.5 L 13.17 6.29 L 13.33 6.08 L 13.5 5.88 L 13.67 5.67 L 13.83 5.46 L 14.0 5.25 L 14.17 5.04 L 14.33 4.83 L 14.5 4.62 L 14.67 4.42 L 14.83 4.21 L 15.0 4.0" fill="none" stroke="#111" stroke-width="1.43" stroke-linecap="round" stroke-linejoin="round"/>
<path d="M 11.0 4.0 L 11.04 4.62 L 11.08 5.25 L 11.12 5.88 L 11.17 6.5 L 11.21 7.12 L 11.25 7.75 L 11.29 8.38 L 11.33 9.0 L 11.38 9.62 L 11.42 10.25 L 11.46 10.88 L 11.5 11.5 L 11.54 12.12 L 11.58 12.75 L 11.62 13.37 L 11.67 14.0 L 11.71 14.62 L 11.75 15.25 L 11.79 15.88 L 11.83 16.5 L 11.88 17.12 L 11.92 17.75 L 11.96 18.38 L 12.0 19.0" fill="none" stroke="#111" stroke-width="1.43" stroke-linecap="round" stroke-linejoin="round"/>
<path d="M 5.0 11.0 L 5.25 11.23 L 5.49 11.47 L 5.73 11.71 L 5.96 11.96 L 6.19 12.22 L 6.4 12.48 L 6.61 12.75 L 6.82 13.02 L 7.01 13.3 L 7.2 13.58 L 7.38 13.87 L 7.55 14.16 L 7.72 14.46 L 7.87 14.76 L 8.02 15.07 L 8.16 15.38 L 8.3 15.69 L 8.42 16.01 L 8.53 16.33 L 8.64 16.65 L 8.74 16.98 L 8.83 17.3 L 8.91 17.63 L 8.98 17.97" fill="none" stroke="#111" stroke-width="1.43" stroke-linecap="round" stroke-linejoin="round"/>
<path d="M 4.0 14.0 L 4.12 14.04 L 4.25 14.08 L 4.38 14.12 L 4.5 14.17 L 4.62 14.21 L 4.75 14.25 L 4.88 14.29 L 5.0 14.33 L 5.12 14.38 L 5.25 14.42 L 5.38 14.46 L 5.5 14.5 L 5.62 14.54 L 5.75 14.58 L 5.88 14.62 L 6.0 14.67 L 6.12 14.71 L 6.25 14.75 L 6.38 14.79 L 6.5 14.83 L 6.62 14.88 L 6.75 14.92 L 6.88 14.96 L 7.0 15.0" fill="none" stroke="#111" stroke-width="1.43" stroke-linecap="round" stroke-linejoin="round"/>
<path d="M 14.0 17.0 L 13.97 16.54 L 13.95 16.08 L 13.95 15.62 L 13.97 15.15 L 14.01 14.69 L 14.07 14.24 L 14.14 13.78 L 14.24 13.33 L 14.35 12.88 L 14.48 12.44 L 14.62 12.0 L 14.79 11.57 L 14.97 11.14 L 15.16 10.72 L 15.38 10.31 L 15.6 9.91 L 15.85 9.52 L 16.11 9.14 L 16.38 8.77 L 16.67 8.41 L 16.98 8.06 L 17.29 7.72 L 17.62 7.4 L 17.96 7.09 L 18.0 7.0 L 18.08 7.08 L 18.17 7.17 L 18.25 7.25 L 18.33 7.33 L 18.42 7.42 L 18.5 7.5 L 18.58 7.58 L 18.67 7.67 L 18.75 7.75 L 18.83 7.83 L 18.92 7.92 L 19.0 8.0 L 19.08 8.08 L 19.17 8.17 L 19.25 8.25 L 19.33 8.33 L 19.42 8.42 L 19.5 8.5 L 19.58 8.58 L 19.67 8.67 L 19.75 8.75 L 19.83 8.83 L 19.92 8.92 L 20.0 9.0" fill="none" stroke="#111" stroke-width="1.43" stroke-linecap="round" stroke-linejoin="round"/>
<path d="M 15.0 12.0 L 15.12 11.92 L 15.25 11.83 L 15.38 11.75 L 15.5 11.67 L 15.62 11.58 L 15.75 11.5 L 15.88 11.42 L 16.0 11.33 L 16.12 11.25 L 16.25 11.17 L 16.38 11.08 L 16.5 11.0 L 16.62 10.92 L 16.75 10.83 L 16.88 10.75 L 17.0 10.67 L 17.12 10.58 L 17.25 10.5 L 17.38 10.42 L 17.5 10.33 L 17.62 10.25 L 17.75 10.17 L 17.88 10.08 L 18.0 10.0 L 18.0 10.0 L 18.04 10.08 L 18.08 10.17 L 18.12 10.25 L 18.17 10.33 L 18.21 10.42 L 18.25 10.5 L 18.29 10.58 L 18.33 10.67 L 18.38 10.75 L 18.42 10.83 L 18.46 10.92 L 18.5 11.0 L 18.54 11.08 L 18.58 11.17 L 18.62 11.25 L 18.67 11.33 L 18.71 11.42 L 18.75 11.5 L 18.79 11.58 L 18.83 11.67 L 18.88 11.75 L 18.92 11.83 L 18.96 11.92 L 19.0 12.0" fill="none" stroke="#111" stroke-width="1.43" stroke-linecap="round" stroke-linejoin="round"/>
<path d="M 9.0 28.0 L 9.38 27.83 L 9.75 27.67 L 10.12 27.5 L 10.5 27.33 L 10.88 27.17 L 11.25 27.0 L 11.62 26.83 L 12.0 26.67 L 12.38 26.5 L 12.75 26.33 L 13.12 26.17 L 13.5 26.0 L 13.88 25.83 L 14.25 25.67 L 14.62 25.5 L 15.0 25.33 L 15.38 25.17 L 15.75 25.0 L 16.12 24.83 L 16.5 24.67 L 16.88 24.5 L 17.25 24.33 L 17.62 24.17 L 18.0 24.0" fill="none" stroke="#111" stroke-width="1.43" stroke-linecap="round" stroke-linejoin="round"/>
<path d="M 12.0 27.0 L 12.0 27.21 L 12.0 27.42 L 12.0 27.62 L 12.0 27.83 L 12.0 28.04 L 12.0 28.25 L 12.0 28.46 L 12.0 28.67 L 12.0 28.88 L 12.0 29.08 L 12.0 29.29 L 12.0 29.5 L 12.0 29.71 L 12.0 29.92 L 12.0 30.12 L 12.0 30.33 L 12.0 30.54 L 12.0 30.75 L 12.0 30.96 L 12.0 31.17 L 12.0 31.38 L 12.0 31.58 L 12.0 31.79 L 12.0 32.0" fill="none" stroke="#111" stroke-width="1.43" stroke-linecap="round" stroke-linejoin="round"/>
<path d="M 16.0 25.0 L 16.17 25.53 L 16.31 26.06 L 16.42 26.61 L 16.49 27.16 L 16.54 27.71 L 16.56 28.26 L 16.55 28.82 L 16.51 29.37 L 16.44 29.92 L 16.34 30.46 L 16.2 31.0 L 16.04 31.53 L 15.85 32.05 L 15.64 32.56 L 15.39 33.06 L 15.12 33.54 L 14.82 34.01 L 14.5 34.46 L 14.15 34.89 L 13.78 35.3 L 13.39 35.69 L 12.97 36.06 L 12.54 36.41 L 12.09 36.73" fill="none" stroke="#111" stroke-width="1.43" stroke-linecap="round" stroke-linejoin="round"/>
</svg>
