<?xml version="1.0" encoding="UTF-8"?>
<svg xmlns="http://www.w3.org/2000/svg" viewBox="0 0 27.60 35.00">
<path d="M 4.0 9.0 L 4.5 8.79 L 5.0 8.58 L 5.5 8.38 L 6.0 8.17 L 6.5 7.96 L 7.0 7.75 L 7.5 7.54 L 8.0 7.33 L 8.5 7.12 L 9.0 6.92 L 9.5 6.71 L 10.0 6.5 L 10.5 6.29 L 11.0 6.08 L 11.5 5.88 L 12.0 5.67 L 12.5 5.46 L 13.0 5.25 L 13.5 5.04 L 14.0 4.83 L 14.5 4.62 L 15.0 4.42 L 15.5 4.21 L 16.0 4.0" fill="none" stroke="#111" stroke-width="1.23" stroke-linecap="round" stroke-linejoin="round"/>
<path d="M 4.0 9.0 L 4.73 9.21 L 5.47 9.39 L 6.22 9.55 L 6.97 9.7 L 7.72 9.82 L 8.48 9.92 L 9.23 9.99 L 9.99 10.05 L 10.76 10.08 L 11.52 10.09 L 12.28 10.08 L 13.04 10.05 L 13.8 10.0 L 14.56 9.93 L 15.32 9.83 L 16.07 9.71 L 16.82 9.57 L 17.57 9.41 L 18.31 9.23 L 19.04 9.02 L 19.77 8.8 L 20.49 8.56 L 21.21 8.29 L 21.91 8.0" fill="none" stroke="#111" stroke-width="1.23" stroke-linecap="round" stroke-linejoin="round"/>
<path d="M 12.0 6.0 L 11.94 6.72 L 11.94 7.44 L 12.01 8.16 L 12.15 8.87 L 12.35 9.56 L 12.62 10.23 L 12.95 10.87 L 13.33 11.48 L 13.77 12.06 L 14.27 12.58 L 14.8 13.06 L 15.39 13.49 L 16.0 13.86 L 16.65 14.18 L 17.33 14.43 L 18.03 14.62 L 18.74 14.74 L 19.46 14.79 L 20.18 14.78 L 20.9 14.7 L 21.61 14.55 L 22.3 14.34 L 22.96 14.07 L 23.6 13.74" fill="none" stroke="#111" stroke-width="1.23" stroke-linecap="round" stroke-linejoin="round"/>
<path d="M 7.0 23.0 L 7.54 22.96 L 8.08 22.92 L 8.62 22.88 L 9.17 22.83 L 9.71 22.79 L 10.25 22.75 L 10.79 22.71 L 11.33 22.67 L 11.88 22.62 L 12.42 22.58 L 12.96 22.54 L 13.5 22.5 L 14.04 22.46 L 14.58 22.42 L 15.13 22.38 L 15.67 22.33 L 16.21 22.29 L 16.75 22.25 L 17.29 22.21 L 17.83 22.17 L 18.38 22.12 L 18.92 22.08 L 19.46 22.04 L 20.0 22.0" fill="none" stroke="#111" stroke-width="1.23" stroke-linecap="round" stroke-linejoin="round"/>
<path d="M 10.0 27.0 L 10.38 27.0 L 10.75 27.0 L 11.12 27.0 L 11.5 27.0 L 11.88 27.0 L 12.25 27.0 L 12.62 27.0 L 13.0 27.0 L 13.38 27.0 L 13.75 27.0 L 14.12 27.0 L 14.5 27.0 L 14.88 27.0 L 15.25 27.0 L 15.62 27.0 L 16.0 27.0 L 16.38 27.0 L 16.75 27.0 L 17.12 27.0 L 17.5 27.0 L 17.88 27.0 L 18.25 27.0 L 18.62 27.0 L 19.0 27.0" fill="none" stroke="#111" stroke-width="1.23" stroke-linecap="round" stroke-linejoin="round"/>
<path d="M 7.0 31.0 L 7.5 31.0 L 8.0 31.0 L 8.5 31.0 L 9.0 31.0 L 9.5 31.0 L 10.0 31.0 L 10.5 31.0 L 11.0 31.0 L 11.5 31.0 L 12.0 31.0 L 12.5 31.0 L 13.0 31.0 L 13.5 31.0 L 14.0 31.0 L 14.5 31.0 L 15.0 31.0 L 15.5 31.0 L 16.0 31.0 L 16.5 31.0 L 17.0 31.0 L 17.5 31.0 L 18.0 31.0 L 18.5 31.0 L 19.0 31.0" fill="none" stroke="#111" stroke-width="1.23" stroke-linecap="round" stroke-linejoin="round"/>
<path d="M 7.0 23.0 L 7.0 23.33 L 7.0 23.67 L 7.0 24.0 L 7.0 24.33 L 7.0 24.67 L 7.0 25.0 L 7.0 25.33 L 7.0 25.67 L 7.0 26.0 L 7.0 26.33 L 7.0 26.67 L 7.0 27.0 L 7.0 27.33 L 7.0 27.67 L 7.0 28.0 L 7.0 28.33 L 7.0 28.67 L 7.0 29.0 L 7.0 29.33 L 7.0 29.67 L 7.0 30.0 L 7.0 30.33 L 7.0 30.67 L 7.0 31.0" fill="none" stroke="#111" stroke-width="1.23" stroke-linecap="round" stroke-linejoin="round"/>
<path d="M 19.0 27.0 L 19.0 27.17 L 19.0 27.33 L 19.0 27.5 L 19.0 27.67 L 19.0 27.83 L 19.0 28.0 L 19.0 28.17 L 19.0 28.33 L 19.0 28.5 L 19.0 28.67 L 19.0 28.83 L 19.0 29.0 L 19.0 29.17 L 19.0 29.33 L 19.0 29.5 L 19.0 29.67 L 19.0 29.83 L 19.0 30.0 L 19.0 30.17 L 19.0 30.33 L 19.0 30.5 L 19.0 30.67 L 19.0 30.83 L 19.0 31.0" fill="none" stroke="#111" stroke-width="1.23" stroke-linecap="round" stroke-linejoin="round"/>
</svg>
