<?xml version="1.0" encoding="UTF-8"?>
<svg xmlns="http://www.w3.org/2000/svg" viewBox="0 0 20.35 41.52">
<path d="M 8.35 4.52 L 8.39 4.77 L 8.43 5.02 L 8.48 5.27 L 8.52 5.52 L 8.56 5.77 L 8.6 6.02 L 8.64 6.27 L 8.68 6.52 L 8.73 6.77 L 8.77 7.02 L 8.81 7.27 L 8.85 7.52 L 8.89 7.77 L 8.93 8.02 L 8.98 8.27 L 9.02 8.52 L 9.06 8.77 L 9.1 9.02 L 9.14 9.27 L 9.18 9.52 L 9.23 9.77 L 9.27 10.02 L 9.31 10.27 L 9.35 10.52 L 9.35 10.52 L 8.87 10.45 L 8.38 10.44 L 7.9 10.48 L 7.42 10.57 L 6.95 10.71 L 6.51 10.9 L 6.08 11.14 L 5.69 11.43 L 5.33 11.75 L 5.0 12.11 L 4.71 12.5 L 4.47 12.93 L 4.28 13.37 L 4.14 13.84 L 4.04 14.32 L 4.0 14.8 L 4.01 15.29 L 4.07 15.77 L 4.19 16.24 L 4.35 16.7 L 4.57 17.14 L 4.83 17.55 L 5.13 17.93 L 5.47 18.28 L 5.35 18.52 L 5.39 18.52 L 5.43 18.52 L 5.48 18.52 L 5.52 18.52 L 5.56 18.52 L 5.6 18.52 L 5.64 18.52 L 5.68 18.52 L 5.73 18.52 L 5.77 18.52 L 5.81 18.52 L 5.85 18.52 L 5.89 18.52 L 5.93 18.52 L 5.98 18.52 L 6.02 18.52 L 6.06 18.52 L 6.1 18.52 L 6.14 18.52 L 6.18 18.52 L 6.23 18.52 L 6.27 18.52 L 6.31 18.52 L 6.35 18.52 L 6.35 18.52 L 6.39 18.47 L 6.43 18.43 L 6.48 18.39 L 6.52 18.35 L 6.56 18.31 L 6.6 18.27 L 6.64 18.22 L 6.68 18.18 L 6.73 18.14 L 6.77 18.1 L 6.81 18.06 L 6.85 18.02 L 6.89 17.97 L 6.93 17.93 L 6.98 17.89 L 7.02 17.85 L 7.06 17.81 L 7.1 17.77 L 7.14 17.72 L 7.18 17.68 L 7.23 17.64 L 7.27 17.6 L 7.31 17.56 L 7.35 17.52" fill="none" stroke="#111" stroke-width="1.45" stroke-linecap="round" stroke-linejoin="round"/>
<path d="M 10.35 8.52 L 10.6 8.72 L 10.85 8.93 L 11.1 9.14 L 11.35 9.35 L 11.6 9.56 L 11.85 9.77 L 12.1 9.97 L 12.35 10.18 L 12.6 10.39 L 12.85 10.6 L 13.1 10.81 L 13.35 11.02 L 13.6 11.22 L 13.85 11.43 L 14.1 11.64 L 14.35 11.85 L 14.6 12.06 L 14.85 12.27 L 15.1 12.47 L 15.35 12.68 L 15.6 12.89 L 15.85 13.1 L 16.1 13.31 L 16.35 13.52 L 16.35 13.52 L 16.24 13.71 L 16.13 13.91 L 16.03 14.11 L 15.92 14.31 L 15.82 14.51 L 15.72 14.71 L 15.62 14.91 L 15.53 15.12 L 15.44 15.32 L 15.35 15.53 L 15.26 15.74 L 15.17 15.94 L 15.09 16.15 L 15.01 16.36 L 14.94 16.57 L 14.86 16.79 L 14.79 17.0 L 14.72 17.21 L 14.65 17.43 L 14.59 17.64 L 14.52 17.86 L 14.46 18.08 L 14.41 18.29 L 14.35 18.51 L 14.35 18.52 L 14.31 18.39 L 14.27 18.27 L 14.23 18.14 L 14.18 18.02 L 14.14 17.89 L 14.1 17.77 L 14.06 17.64 L 14.02 17.52 L 13.98 17.39 L 13.93 17.27 L 13.89 17.14 L 13.85 17.02 L 13.81 16.89 L 13.77 16.77 L 13.73 16.64 L 13.68 16.52 L 13.64 16.39 L 13.6 16.27 L 13.56 16.14 L 13.52 16.02 L 13.48 15.89 L 13.43 15.77 L 13.39 15.64 L 13.35 15.52" fill="none" stroke="#111" stroke-width="1.45" stroke-linecap="round" stroke-linejoin="round"/>
<path d="M 4.35 7.52 L 4.31 8.49 L 4.43 9.45 L 4.72 10.38 L 5.16 11.25 L 5.74 12.03 L 6.45 12.7 L 7.26 13.24 L 8.15 13.63 L 9.09 13.86 L 10.06 13.93 L 11.03 13.83 L 11.97 13.57 L 12.85 13.15 L 13.64 12.59 L 14.33 11.9 L 14.89 11.1 L 15.3 10.22 L 15.56 9.28 L 15.65 8.31 L 15.58 7.34 L 15.34 6.4 L 14.94 5.51 L 14.4 4.7 L 13.73 4.0" fill="none" stroke="#111" stroke-width="1.45" stroke-linecap="round" stroke-linejoin="round"/>
<path d="M 10.35 17.52 L 9.83 17.73 L 9.34 18.0 L 8.88 18.33 L 8.46 18.7 L 8.09 19.12 L 7.76 19.57 L 7.49 20.06 L 7.27 20.58 L 7.11 21.12 L 7.01 21.67 L 6.97 22.23 L 7.0 22.79 L 7.08 23.34 L 7.23 23.89 L 7.44 24.41 L 7.7 24.9 L 8.02 25.37 L 8.38 25.79 L 8.79 26.17 L 9.25 26.51 L 9.73 26.79 L 10.24 27.02 L 10.78 27.19 L 11.33 27.29 L 11.35 27.52 L 11.52 27.27 L 11.68 27.02 L 11.85 26.77 L 12.02 26.52 L 12.18 26.27 L 12.35 26.02 L 12.52 25.77 L 12.68 25.52 L 12.85 25.27 L 13.02 25.02 L 13.18 24.77 L 13.35 24.52 L 13.52 24.27 L 13.68 24.02 L 13.85 23.77 L 14.02 23.52 L 14.18 23.27 L 14.35 23.02 L 14.52 22.77 L 14.68 22.52 L 14.85 22.27 L 15.02 22.02 L 15.18 21.77 L 15.35 21.52 L 15.35 21.52 L 15.14 21.39 L 14.93 21.27 L 14.73 21.14 L 14.52 21.02 L 14.31 20.89 L 14.1 20.77 L 13.89 20.64 L 13.68 20.52 L 13.48 20.39 L 13.27 20.27 L 13.06 20.14 L 12.85 20.02 L 12.64 19.89 L 12.43 19.77 L 12.23 19.64 L 12.02 19.52 L 11.81 19.39 L 11.6 19.27 L 11.39 19.14 L 11.18 19.02 L 10.98 18.89 L 10.77 18.77 L 10.56 18.64 L 10.35 18.52" fill="none" stroke="#111" stroke-width="1.45" stroke-linecap="round" stroke-linejoin="round"/>
<path d="M 8.35 20.52 L 8.45 20.77 L 8.57 21.01 L 8.71 21.23 L 8.88 21.44 L 9.07 21.63 L 9.28 21.8 L 9.5 21.95 L 9.74 22.07 L 9.99 22.17 L 10.25 22.23 L 10.51 22.28 L 10.78 22.29 L 11.05 22.28 L 11.31 22.23 L 11.57 22.17 L 11.82 22.07 L 12.06 21.95 L 12.28 21.8 L 12.49 21.63 L 12.68 21.44 L 12.85 21.23 L 12.99 21.01 L 13.11 20.77 L 13.21 20.52" fill="none" stroke="#111" stroke-width="1.45" stroke-linecap="round" stroke-linejoin="round"/>
<path d="M 11.35 22.52 L 11.55 22.94 L 11.72 23.38 L 11.87 23.82 L 11.98 24.28 L 12.07 24.74 L 12.12 25.2 L 12.15 25.67 L 12.15 26.14 L 12.11 26.61 L 12.05 27.07 L 11.96 27.53 L 11.84 27.98 L 11.69 28.43 L 11.52 28.86 L 11.31 29.28 L 11.08 29.69 L 10.83 30.08 L 10.55 30.46 L 10.24 30.81 L 9.92 31.15 L 9.57 31.47 L 9.21 31.76 L 8.82 32.03 L 8.42 32.27 L 8.35 32.52 L 8.6 32.72 L 8.85 32.93 L 9.1 33.14 L 9.35 33.35 L 9.6 33.56 L 9.85 33.77 L 10.1 33.97 L 10.35 34.18 L 10.6 34.39 L 10.85 34.6 L 11.1 34.81 L 11.35 35.02 L 11.6 35.22 L 11.85 35.43 L 12.1 35.64 L 12.35 35.85 L 12.6 36.06 L 12.85 36.27 L 13.1 36.47 L 13.35 36.68 L 13.6 36.89 L 13.85 37.1 L 14.1 37.31 L 14.35 37.52" fill="none" stroke="#111" stroke-width="1.45" stroke-linecap="round" stroke-linejoin="round"/>
<path d="M 11.35 30.52 L 11.54 30.79 L 11.7 31.07 L 11.83 31.37 L 11.94 31.68 L 12.02 32.0 L 12.06 32.33 L 12.08 32.66 L 12.06 32.99 L 12.02 33.31 L 11.94 33.63 L 11.84 33.94 L 11.7 34.24 L 11.54 34.53 L 11.36 34.8 L 11.15 35.05 L 10.91 35.29 L 10.66 35.5 L 10.39 35.68 L 10.1 35.84 L 9.8 35.97 L 9.49 36.07 L 9.16 36.14 L 8.84 36.19 L 8.51 36.2" fill="none" stroke="#111" stroke-width="1.45" stroke-linecap="round" stroke-linejoin="round"/>
</svg>
