<?xml version="1.0" encoding="UTF-8"?>
<svg xmlns="http://www.w3.org/2000/svg" viewBox="0 0 17.97 36.53">
<path d="M 6.98 6.0 L 6.98 7.0 L 6.98 8.0 L 6.98 9.0 L 6.98 10.0 L 6.98 11.0 L 6.98 12.0 L 6.98 13.0 L 6.98 14.0 L 6.98 15.0 L 6.98 16.0 L 6.98 17.0 L 6.98 18.0 L 6.98 19.0 L 6.98 20.0 L 6.98 21.0 L 6.98 22.0 L 6.98 23.0 L 6.98 24.0 L 6.98 25.0 L 6.98 26.0 L 6.98 27.0 L 6.98 28.0 L 6.98 29.0 L 6.98 30.0" fill="none" stroke="#111" stroke-width="1.28" stroke-linecap="round" stroke-linejoin="round"/>
<path d="M 4.98 4.0 L 6.32 4.7 L 7.59 5.53 L 8.77 6.48 L 9.85 7.53 L 10.82 8.69 L 11.68 9.94 L 12.41 11.27 L 13.0 12.66 L 13.46 14.1 L 13.78 15.58 L 13.95 17.08 L 13.97 18.59 L 13.84 20.1 L 13.57 21.59 L 13.15 23.04 L 12.6 24.45 L 11.91 25.8 L 11.09 27.07 L 10.15 28.25 L 9.1 29.34 L 7.95 30.32 L 6.71 31.19 L 5.39 31.93 L 4.0 32.53" fill="none" stroke="#111" stroke-width="1.28" stroke-linecap="round" stroke-linejoin="round"/>
</svg>
