<?xml version="1.0" encoding="UTF-8"?>
<svg xmlns="http://www.w3.org/2000/svg" viewBox="0 0 18.89 34.00">
<path d="M 14.89 6.0 L 14.68 5.92 L 14.47 5.83 L 14.26 5.75 L 14.06 5.67 L 13.85 5.58 L 13.64 5.5 L 13.43 5.42 L 13.22 5.33 L 13.01 5.25 L 12.81 5.17 L 12.6 5.08 L 12.39 5.0 L 12.18 4.92 L 11.97 4.83 L 11.76 4.75 L 11.56 4.67 L 11.35 4.58 L 11.14 4.5 L 10.93 4.42 L 10.72 4.33 L 10.51 4.25 L 10.31 4.17 L 10.1 4.08 L 9.89 4.0 L 9.89 4.0 L 9.89 5.0 L 9.89 6.0 L 9.89 7.0 L 9.89 8.0 L 9.89 9.0 L 9.89 10.0 L 9.89 11.0 L 9.89 12.0 L 9.89 13.0 L 9.89 14.0 L 9.89 15.0 L 9.89 16.0 L 9.89 17.0 L 9.89 18.0 L 9.89 19.0 L 9.89 20.0 L 9.89 21.0 L 9.89 22.0 L 9.89 23.0 L 9.89 24.0 L 9.89 25.0 L 9.89 26.0 L 9.89 27.0 L 9.89 28.0" fill="none" stroke="#111" stroke-width="1.19" stroke-linecap="round" stroke-linejoin="round"/>
<path d="M 6.89 27.0 L 7.14 27.12 L 7.39 27.25 L 7.64 27.38 L 7.89 27.5 L 8.14 27.62 L 8.39 27.75 L 8.64 27.88 L 8.89 28.0 L 9.14 28.12 L 9.39 28.25 L 9.64 28.38 L 9.89 28.5 L 10.14 28.62 L 10.39 28.75 L 10.64 28.88 L 10.89 29.0 L 11.14 29.12 L 11.39 29.25 L 11.64 29.38 L 11.89 29.5 L 12.14 29.62 L 12.39 29.75 L 12.64 29.88 L 12.89 30.0" fill="none" stroke="#111" stroke-width="1.19" stroke-linecap="round" stroke-linejoin="round"/>
<path d="M 8.89 8.0 L 8.72 7.92 L 8.56 7.83 L 8.39 7.75 L 8.22 7.67 L 8.06 7.58 L 7.89 7.5 L 7.72 7.42 L 7.56 7.33 L 7.39 7.25 L 7.22 7.17 L 7.06 7.08 L 6.89 7.0 L 6.72 6.92 L 6.56 6.83 L 6.39 6.75 L 6.22 6.67 L 6.06 6.58 L 5.89 6.5 L 5.72 6.42 L 5.56 6.33 L 5.39 6.25 L 5.22 6.17 L 5.06 6.08 L 4.89 6.0" fill="none" stroke="#111" stroke-width="1.19" stroke-linecap="round" stroke-linejoin="round"/>
<path d="M 4.89 6.0 L 4.65 6.34 L 4.45 6.7 L 4.28 7.08 L 4.15 7.47 L 4.06 7.88 L 4.01 8.29 L 4.0 8.7 L 4.03 9.12 L 4.1 9.53 L 4.22 9.92 L 4.37 10.31 L 4.55 10.68 L 4.78 11.03 L 5.03 11.36 L 5.32 11.65 L 5.64 11.92 L 5.98 12.16 L 6.34 12.36 L 6.72 12.53 L 7.11 12.66 L 7.52 12.75 L 7.93 12.79 L 8.34 12.8 L 8.76 12.77" fill="none" stroke="#111" stroke-width="1.19" stroke-linecap="round" stroke-linejoin="round"/>
</svg>
