<?xml version="1.0" encoding="UTF-8"?>
<svg xmlns="http://www.w3.org/2000/svg" viewBox="0 0 34.84 42.00">
<path d="M 9.0 4.0 L 9.0 4.46 L 9.0 4.92 L 9.0 5.38 L 9.0 5.83 L 9.0 6.29 L 9.0 6.75 L 9.0 7.21 L 9.0 7.67 L 9.0 8.12 L 9.0 8.58 L 9.0 9.04 L 9.0 9.5 L 9.0 9.96 L 9.0 10.42 L 9.0 10.88 L 9.0 11.33 L 9.0 11.79 L 9.0 12.25 L 9.0 12.71 L 9.0 13.17 L 9.0 13.62 L 9.0 14.08 L 9.0 14.54 L 9.0 15.0" fill="none" stroke="#111" stroke-width="1.47" stroke-linecap="round" stroke-linejoin="round"/>
<path d="M 4.0 15.0 L 4.0 15.25 L 4.0 15.5 L 4.0 15.75 L 4.0 16.0 L 4.0 16.25 L 4.0 16.5 L 4.0 16.75 L 4.0 17.0 L 4.0 17.25 L 4.0 17.5 L 4.0 17.75 L 4.0 18.0 L 4.0 18.25 L 4.0 18.5 L 4.0 18.75 L 4.0 19.0 L 4.0 19.25 L 4.0 19.5 L 4.0 19.75 L 4.0 20.0 L 4.0 20.25 L 4.0 20.5 L 4.0 20.75 L 4.0 21.0 L 4.0 21.0 L 4.55 21.42 L 5.14 21.77 L 5.77 22.05 L 6.42 22.27 L 7.1 22.41 L 7.78 22.48 L 8.47 22.48 L 9.16 22.39 L 9.83 22.24 L 10.48 22.01 L 11.1 21.71 L 11.69 21.35 L 12.23 20.92 L 12.72 20.44 L 13.16 19.91 L 13.54 19.33 L 13.85 18.71 L 14.09 18.07 L 14.26 17.4 L 14.36 16.72 L 14.38 16.03 L 14.32 15.34 L 14.19 14.66 L 13.99 14.01" fill="none" stroke="#111" stroke-width="1.47" stroke-linecap="round" stroke-linejoin="round"/>
<path d="M 5.0 17.0 L 5.33 16.96 L 5.67 16.92 L 6.0 16.88 L 6.33 16.83 L 6.67 16.79 L 7.0 16.75 L 7.33 16.71 L 7.67 16.67 L 8.0 16.62 L 8.33 16.58 L 8.67 16.54 L 9.0 16.5 L 9.33 16.46 L 9.67 16.42 L 10.0 16.38 L 10.33 16.33 L 10.67 16.29 L 11.0 16.25 L 11.33 16.21 L 11.67 16.17 L 12.0 16.12 L 12.33 16.08 L 12.67 16.04 L 13.0 16.0" fill="none" stroke="#111" stroke-width="1.47" stroke-linecap="round" stroke-linejoin="round"/>
<path d="M 5.0 38.0 L 5.47 36.77 L 6.04 35.59 L 6.69 34.45 L 7.44 33.37 L 8.27 32.35 L 9.18 31.4 L 10.16 30.53 L 11.21 29.73 L 12.31 29.02 L 13.47 28.4 L 14.68 27.88 L 15.92 27.45 L 17.19 27.13 L 18.49 26.9 L 19.79 26.78 L 21.11 26.76 L 22.42 26.85 L 23.72 27.04 L 25.0 27.33 L 26.25 27.72 L 27.47 28.22 L 28.65 28.8 L 29.77 29.48 L 30.84 30.25" fill="none" stroke="#111" stroke-width="1.47" stroke-linecap="round" stroke-linejoin="round"/>
<path d="M 7.0 30.0 L 7.29 29.88 L 7.58 29.75 L 7.88 29.62 L 8.17 29.5 L 8.46 29.38 L 8.75 29.25 L 9.04 29.12 L 9.33 29.0 L 9.62 28.88 L 9.92 28.75 L 10.21 28.62 L 10.5 28.5 L 10.79 28.38 L 11.08 28.25 L 11.38 28.12 L 11.67 28.0 L 11.96 27.88 L 12.25 27.75 L 12.54 27.62 L 12.83 27.5 L 13.12 27.38 L 13.42 27.25 L 13.71 27.12 L 14.0 27.0" fill="none" stroke="#111" stroke-width="1.47" stroke-linecap="round" stroke-linejoin="round"/>
</svg>
