<?xml version="1.0" encoding="UTF-8"?>
<svg xmlns="http://www.w3.org/2000/svg" viewBox="0 0 20.20 33.00">
<path d="M 10.75 4.0 L 10.13 4.13 L 9.52 4.3 L 8.93 4.53 L 8.35 4.8 L 7.8 5.11 L 7.28 5.47 L 6.78 5.86 L 6.32 6.3 L 5.89 6.76 L 5.5 7.26 L 5.16 7.79 L 4.85 8.35 L 4.59 8.93 L 4.38 9.52 L 4.21 10.13 L 4.09 10.76 L 4.02 11.39 L 4.0 12.02 L 4.03 12.65 L 4.11 13.28 L 4.24 13.9 L 4.42 14.51 L 4.64 15.1 L 4.91 15.68" fill="none" stroke="#111" stroke-width="1.16" stroke-linecap="round" stroke-linejoin="round"/>
<path d="M 10.75 4.0 L 11.24 4.14 L 11.73 4.32 L 12.2 4.53 L 12.66 4.77 L 13.09 5.05 L 13.51 5.36 L 13.9 5.7 L 14.27 6.06 L 14.61 6.45 L 14.92 6.86 L 15.2 7.3 L 15.44 7.75 L 15.66 8.22 L 15.84 8.71 L 15.98 9.2 L 16.09 9.71 L 16.16 10.22 L 16.2 10.73 L 16.19 11.25 L 16.15 11.77 L 16.07 12.28 L 15.96 12.78 L 15.81 13.27 L 15.63 13.76" fill="none" stroke="#111" stroke-width="1.16" stroke-linecap="round" stroke-linejoin="round"/>
<path d="M 11.75 7.0 L 11.54 7.29 L 11.33 7.58 L 11.12 7.88 L 10.91 8.17 L 10.71 8.46 L 10.5 8.75 L 10.29 9.04 L 10.08 9.33 L 9.87 9.62 L 9.66 9.92 L 9.46 10.21 L 9.25 10.5 L 9.04 10.79 L 8.83 11.08 L 8.62 11.38 L 8.41 11.67 L 8.21 11.96 L 8.0 12.25 L 7.79 12.54 L 7.58 12.83 L 7.37 13.12 L 7.16 13.42 L 6.96 13.71 L 6.75 14.0" fill="none" stroke="#111" stroke-width="1.16" stroke-linecap="round" stroke-linejoin="round"/>
<path d="M 7.75 8.0 L 8.0 8.21 L 8.25 8.42 L 8.5 8.62 L 8.75 8.83 L 9.0 9.04 L 9.25 9.25 L 9.5 9.46 L 9.75 9.67 L 10.0 9.88 L 10.25 10.08 L 10.5 10.29 L 10.75 10.5 L 11.0 10.71 L 11.25 10.92 L 11.5 11.12 L 11.75 11.33 L 12.0 11.54 L 12.25 11.75 L 12.5 11.96 L 12.75 12.17 L 13.0 12.38 L 13.25 12.58 L 13.5 12.79 L 13.75 13.0" fill="none" stroke="#111" stroke-width="1.16" stroke-linecap="round" stroke-linejoin="round"/>
<path d="M 5.75 10.0 L 6.08 9.96 L 6.41 9.92 L 6.75 9.88 L 7.08 9.83 L 7.41 9.79 L 7.75 9.75 L 8.08 9.71 L 8.41 9.67 L 8.75 9.62 L 9.08 9.58 L 9.41 9.54 L 9.75 9.5 L 10.08 9.46 L 10.41 9.42 L 10.75 9.38 L 11.08 9.33 L 11.41 9.29 L 11.75 9.25 L 12.08 9.21 L 12.41 9.17 L 12.75 9.12 L 13.08 9.08 L 13.41 9.04 L 13.75 9.0" fill="none" stroke="#111" stroke-width="1.16" stroke-linecap="round" stroke-linejoin="round"/>
<path d="M 7.75 16.0 L 8.0 16.0 L 8.25 16.0 L 8.5 16.0 L 8.75 16.0 L 9.0 16.0 L 9.25 16.0 L 9.5 16.0 L 9.75 16.0 L 10.0 16.0 L 10.25 16.0 L 10.5 16.0 L 10.75 16.0 L 11.0 16.0 L 11.25 16.0 L 11.5 16.0 L 11.75 16.0 L 12.0 16.0 L 12.25 16.0 L 12.5 16.0 L 12.75 16.0 L 13.0 16.0 L 13.25 16.0 L 13.5 16.0 L 13.75 16.0" fill="none" stroke="#111" stroke-width="1.16" stroke-linecap="round" stroke-linejoin="round"/>
<path d="M 10.75 16.0 L 10.71 16.54 L 10.66 17.08 L 10.62 17.62 L 10.58 18.17 L 10.54 18.71 L 10.5 19.25 L 10.46 19.79 L 10.41 20.33 L 10.37 20.88 L 10.33 21.42 L 10.29 21.96 L 10.25 22.5 L 10.21 23.04 L 10.16 23.58 L 10.12 24.12 L 10.08 24.67 L 10.04 25.21 L 10.0 25.75 L 9.96 26.29 L 9.91 26.83 L 9.87 27.38 L 9.83 27.92 L 9.79 28.46 L 9.75 29.0" fill="none" stroke="#111" stroke-width="1.16" stroke-linecap="round" stroke-linejoin="round"/>
</svg>
