<?xml version="1.0" encoding="UTF-8"?>
<svg xmlns="http://www.w3.org/2000/svg" viewBox="0 0 21.10 41.24">
<path d="M 11.1 4.0 L 11.1 4.46 L 11.1 4.92 L 11.1 5.38 L 11.1 5.83 L 11.1 6.29 L 11.1 6.75 L 11.1 7.21 L 11.1 7.67 L 11.1 8.12 L 11.1 8.58 L 11.1 9.04 L 11.1 9.5 L 11.1 9.96 L 11.1 10.42 L 11.1 10.88 L 11.1 11.33 L 11.1 11.79 L 11.1 12.25 L 11.1 12.71 L 11.1 13.17 L 11.1 13.62 L 11.1 14.08 L 11.1 14.54 L 11.1 15.0" fill="none" stroke="#111" stroke-width="1.44" stroke-linecap="round" stroke-linejoin="round"/>
<path d="M 12.1 8.0 L 12.42 8.14 L 12.72 8.31 L 13.01 8.49 L 13.29 8.69 L 13.55 8.91 L 13.8 9.14 L 14.04 9.39 L 14.26 9.66 L 14.46 9.93 L 14.64 10.23 L 14.81 10.53 L 14.95 10.84 L 15.08 11.16 L 15.18 11.48 L 15.27 11.82 L 15.33 12.16 L 15.37 12.5 L 15.39 12.84 L 15.39 13.18 L 15.36 13.52 L 15.31 13.87 L 15.24 14.2 L 15.15 14.53 L 15.04 14.86" fill="none" stroke="#111" stroke-width="1.44" stroke-linecap="round" stroke-linejoin="round"/>
<path d="M 12.1 4.0 L 12.51 4.19 L 12.88 4.42 L 13.24 4.69 L 13.56 5.0 L 13.84 5.34 L 14.09 5.71 L 14.29 6.1 L 14.45 6.51 L 14.56 6.94 L 14.63 7.38 L 14.65 7.82 L 14.61 8.27 L 14.54 8.7 L 14.41 9.13 L 14.24 9.54 L 14.02 9.92 L 13.77 10.28 L 13.47 10.62 L 13.14 10.91 L 12.78 11.17 L 12.4 11.39 L 11.99 11.57 L 11.57 11.7 L 11.13 11.78" fill="none" stroke="#111" stroke-width="1.44" stroke-linecap="round" stroke-linejoin="round"/>
<path d="M 10.1 16.0 L 10.1 16.17 L 10.1 16.33 L 10.1 16.5 L 10.1 16.67 L 10.1 16.83 L 10.1 17.0 L 10.1 17.17 L 10.1 17.33 L 10.1 17.5 L 10.1 17.67 L 10.1 17.83 L 10.1 18.0 L 10.1 18.17 L 10.1 18.33 L 10.1 18.5 L 10.1 18.67 L 10.1 18.83 L 10.1 19.0 L 10.1 19.17 L 10.1 19.33 L 10.1 19.5 L 10.1 19.67 L 10.1 19.83 L 10.1 20.0" fill="none" stroke="#111" stroke-width="1.44" stroke-linecap="round" stroke-linejoin="round"/>
<path d="M 12.1 16.0 L 12.1 16.12 L 12.1 16.25 L 12.1 16.38 L 12.1 16.5 L 12.1 16.62 L 12.1 16.75 L 12.1 16.88 L 12.1 17.0 L 12.1 17.12 L 12.1 17.25 L 12.1 17.38 L 12.1 17.5 L 12.1 17.62 L 12.1 17.75 L 12.1 17.88 L 12.1 18.0 L 12.1 18.12 L 12.1 18.25 L 12.1 18.38 L 12.1 18.5 L 12.1 18.62 L 12.1 18.75 L 12.1 18.88 L 12.1 19.0" fill="none" stroke="#111" stroke-width="1.44" stroke-linecap="round" stroke-linejoin="round"/>
<path d="M 9.1 18.0 L 9.02 18.08 L 8.94 18.17 L 8.85 18.25 L 8.77 18.33 L 8.69 18.42 L 8.6 18.5 L 8.52 18.58 L 8.44 18.67 L 8.35 18.75 L 8.27 18.83 L 8.19 18.92 L 8.1 19.0 L 8.02 19.08 L 7.94 19.17 L 7.85 19.25 L 7.77 19.33 L 7.69 19.42 L 7.6 19.5 L 7.52 19.58 L 7.44 19.67 L 7.35 19.75 L 7.27 19.83 L 7.19 19.92 L 7.1 20.0 L 7.1 20.0 L 7.52 20.42 L 7.94 20.83 L 8.35 21.25 L 8.77 21.67 L 9.19 22.08 L 9.6 22.5 L 10.02 22.92 L 10.44 23.33 L 10.85 23.75 L 11.27 24.17 L 11.69 24.58 L 12.1 25.0 L 12.52 25.42 L 12.94 25.83 L 13.35 26.25 L 13.77 26.67 L 14.19 27.08 L 14.6 27.5 L 15.02 27.92 L 15.44 28.33 L 15.85 28.75 L 16.27 29.17 L 16.69 29.58 L 17.1 30.0 L 17.1 30.0 L 16.98 30.17 L 16.85 30.33 L 16.73 30.5 L 16.6 30.67 L 16.48 30.83 L 16.35 31.0 L 16.23 31.17 L 16.1 31.33 L 15.98 31.5 L 15.85 31.67 L 15.73 31.83 L 15.6 32.0 L 15.48 32.17 L 15.35 32.33 L 15.23 32.5 L 15.1 32.67 L 14.98 32.83 L 14.85 33.0 L 14.73 33.17 L 14.6 33.33 L 14.48 33.5 L 14.35 33.67 L 14.23 33.83 L 14.1 34.0 L 14.1 34.0 L 14.06 33.92 L 14.02 33.83 L 13.98 33.75 L 13.94 33.67 L 13.9 33.58 L 13.85 33.5 L 13.81 33.42 L 13.77 33.33 L 13.73 33.25 L 13.69 33.17 L 13.65 33.08 L 13.6 33.0 L 13.56 32.92 L 13.52 32.83 L 13.48 32.75 L 13.44 32.67 L 13.4 32.58 L 13.35 32.5 L 13.31 32.42 L 13.27 32.33 L 13.23 32.25 L 13.19 32.17 L 13.15 32.08 L 13.1 32.0" fill="none" stroke="#111" stroke-width="1.44" stroke-linecap="round" stroke-linejoin="round"/>
<path d="M 13.1 18.0 L 12.01 18.16 L 10.94 18.44 L 9.9 18.84 L 8.92 19.35 L 8.0 19.97 L 7.15 20.68 L 6.38 21.49 L 5.71 22.37 L 5.14 23.32 L 4.68 24.33 L 4.34 25.38 L 4.11 26.46 L 4.0 27.57 L 4.01 28.68 L 4.15 29.78 L 4.41 30.85 L 4.78 31.9 L 5.27 32.89 L 5.86 33.83 L 6.56 34.69 L 7.34 35.47 L 8.21 36.17 L 9.15 36.76 L 10.14 37.24" fill="none" stroke="#111" stroke-width="1.44" stroke-linecap="round" stroke-linejoin="round"/>
</svg>
