<?xml version="1.0" encoding="UTF-8"?>
<svg xmlns="http://www.w3.org/2000/svg" viewBox="0 0 17.00 35.90">
<path d="M 8.0 4.0 L 8.24 4.36 L 8.47 4.72 L 8.7 5.08 L 8.93 5.44 L 9.15 5.81 L 9.38 6.18 L 9.6 6.54 L 9.82 6.91 L 10.04 7.28 L 10.25 7.66 L 10.46 8.03 L 10.67 8.4 L 10.88 8.78 L 11.08 9.16 L 11.29 9.53 L 11.49 9.91 L 11.68 10.3 L 11.88 10.68 L 12.07 11.06 L 12.26 11.45 L 12.45 11.83 L 12.64 12.22 L 12.82 12.61 L 13.0 13.0 L 13.0 13.0 L 12.63 13.25 L 12.25 13.5 L 11.88 13.75 L 11.5 14.0 L 11.13 14.25 L 10.75 14.5 L 10.38 14.75 L 10.0 15.0 L 9.63 15.25 L 9.25 15.5 L 8.88 15.75 L 8.5 16.0 L 8.12 16.25 L 7.75 16.5 L 7.38 16.75 L 7.0 17.0 L 6.63 17.25 L 6.25 17.5 L 5.88 17.75 L 5.5 18.0 L 5.13 18.25 L 4.75 18.5 L 4.38 18.75 L 4.0 19.0" fill="none" stroke="#111" stroke-width="1.26" stroke-linecap="round" stroke-linejoin="round"/>
<path d="M 9.0 6.0 L 8.86 6.73 L 8.75 7.47 L 8.66 8.21 L 8.6 8.95 L 8.56 9.69 L 8.54 10.44 L 8.55 11.18 L 8.58 11.93 L 8.63 12.67 L 8.71 13.41 L 8.81 14.15 L 8.94 14.88 L 9.08 15.61 L 9.26 16.34 L 9.45 17.05 L 9.67 17.77 L 9.91 18.47 L 10.18 19.17 L 10.46 19.86 L 10.77 20.53 L 11.1 21.2 L 11.45 21.86 L 11.82 22.5 L 12.21 23.14 L 12.0 22.0 L 11.71 22.34 L 11.43 22.68 L 11.16 23.04 L 10.91 23.41 L 10.67 23.78 L 10.45 24.16 L 10.24 24.56 L 10.04 24.96 L 9.86 25.36 L 9.69 25.77 L 9.54 26.19 L 9.41 26.62 L 9.29 27.04 L 9.18 27.48 L 9.09 27.91 L 9.02 28.35 L 8.97 28.79 L 8.93 29.24 L 8.9 29.68 L 8.9 30.13 L 8.9 30.57 L 8.93 31.01 L 8.97 31.46 L 9.03 31.9" fill="none" stroke="#111" stroke-width="1.26" stroke-linecap="round" stroke-linejoin="round"/>
</svg>
