<?xml version="1.0" encoding="UTF-8"?>
<svg xmlns="http://www.w3.org/2000/svg" viewBox="0 0 27.83 35.00">
<path d="M 12.0 7.0 L 11.83 7.17 L 11.67 7.33 L 11.5 7.5 L 11.33 7.67 L 11.17 7.83 L 11.0 8.0 L 10.83 8.17 L 10.67 8.33 L 10.5 8.5 L 10.33 8.67 L 10.17 8.83 L 10.0 9.0 L 9.83 9.17 L 9.67 9.33 L 9.5 9.5 L 9.33 9.67 L 9.17 9.83 L 9.0 10.0 L 8.83 10.17 L 8.67 10.33 L 8.5 10.5 L 8.33 10.67 L 8.17 10.83 L 8.0 11.0 L 8.0 11.0 L 8.3 11.8 L 8.57 12.6 L 8.81 13.41 L 9.02 14.24 L 9.2 15.07 L 9.36 15.9 L 9.48 16.74 L 9.57 17.59 L 9.63 18.43 L 9.66 19.28 L 9.66 20.13 L 9.63 20.98 L 9.57 21.83 L 9.48 22.67 L 9.36 23.51 L 9.21 24.35 L 9.03 25.18 L 8.82 26.0 L 8.58 26.82 L 8.32 27.62 L 8.02 28.42 L 7.69 29.2 L 7.34 29.98 L 6.96 30.74" fill="none" stroke="#111" stroke-width="1.23" stroke-linecap="round" stroke-linejoin="round"/>
<path d="M 12.0 6.0 L 12.21 6.33 L 12.42 6.67 L 12.62 7.0 L 12.83 7.33 L 13.04 7.67 L 13.25 8.0 L 13.46 8.33 L 13.67 8.67 L 13.88 9.0 L 14.08 9.33 L 14.29 9.67 L 14.5 10.0 L 14.71 10.33 L 14.92 10.67 L 15.12 11.0 L 15.33 11.33 L 15.54 11.67 L 15.75 12.0 L 15.96 12.33 L 16.17 12.67 L 16.38 13.0 L 16.58 13.33 L 16.79 13.67 L 17.0 14.0 L 17.0 14.0 L 16.61 14.65 L 16.26 15.31 L 15.94 15.99 L 15.65 16.69 L 15.41 17.4 L 15.2 18.13 L 15.03 18.86 L 14.89 19.6 L 14.8 20.35 L 14.75 21.1 L 14.73 21.86 L 14.75 22.61 L 14.82 23.36 L 14.92 24.11 L 15.06 24.85 L 15.24 25.58 L 15.46 26.3 L 15.72 27.01 L 16.01 27.71 L 16.34 28.38 L 16.7 29.04 L 17.1 29.69 L 17.53 30.3 L 17.99 30.9" fill="none" stroke="#111" stroke-width="1.23" stroke-linecap="round" stroke-linejoin="round"/>
<path d="M 9.0 19.0 L 9.25 19.0 L 9.5 19.0 L 9.75 19.0 L 10.0 19.0 L 10.25 19.0 L 10.5 19.0 L 10.75 19.0 L 11.0 19.0 L 11.25 19.0 L 11.5 19.0 L 11.75 19.0 L 12.0 19.0 L 12.25 19.0 L 12.5 19.0 L 12.75 19.0 L 13.0 19.0 L 13.25 19.0 L 13.5 19.0 L 13.75 19.0 L 14.0 19.0 L 14.25 19.0 L 14.5 19.0 L 14.75 19.0 L 15.0 19.0" fill="none" stroke="#111" stroke-width="1.23" stroke-linecap="round" stroke-linejoin="round"/>
<path d="M 10.0 21.0 L 10.17 21.04 L 10.33 21.08 L 10.5 21.12 L 10.67 21.17 L 10.83 21.21 L 11.0 21.25 L 11.17 21.29 L 11.33 21.33 L 11.5 21.38 L 11.67 21.42 L 11.83 21.46 L 12.0 21.5 L 12.17 21.54 L 12.33 21.58 L 12.5 21.62 L 12.67 21.67 L 12.83 21.71 L 13.0 21.75 L 13.17 21.79 L 13.33 21.83 L 13.5 21.88 L 13.67 21.92 L 13.83 21.96 L 14.0 22.0" fill="none" stroke="#111" stroke-width="1.23" stroke-linecap="round" stroke-linejoin="round"/>
<path d="M 4.0 31.0 L 4.58 31.0 L 5.17 31.0 L 5.75 31.0 L 6.33 31.0 L 6.92 31.0 L 7.5 31.0 L 8.08 31.0 L 8.67 31.0 L 9.25 31.0 L 9.83 31.0 L 10.42 31.0 L 11.0 31.0 L 11.58 31.0 L 12.17 31.0 L 12.75 31.0 L 13.33 31.0 L 13.92 31.0 L 14.5 31.0 L 15.08 31.0 L 15.67 31.0 L 16.25 31.0 L 16.83 31.0 L 17.42 31.0 L 18.0 31.0" fill="none" stroke="#111" stroke-width="1.23" stroke-linecap="round" stroke-linejoin="round"/>
<path d="M 21.0 4.0 L 20.96 4.33 L 20.92 4.67 L 20.88 5.0 L 20.83 5.33 L 20.79 5.67 L 20.75 6.0 L 20.71 6.33 L 20.67 6.67 L 20.62 7.0 L 20.58 7.33 L 20.54 7.67 L 20.5 8.0 L 20.46 8.33 L 20.42 8.67 L 20.38 9.0 L 20.33 9.33 L 20.29 9.67 L 20.25 10.0 L 20.21 10.33 L 20.17 10.67 L 20.12 11.0 L 20.08 11.33 L 20.04 11.67 L 20.0 12.0 L 20.0 12.0 L 20.04 12.21 L 20.08 12.42 L 20.12 12.62 L 20.17 12.83 L 20.21 13.04 L 20.25 13.25 L 20.29 13.46 L 20.33 13.67 L 20.38 13.88 L 20.42 14.08 L 20.46 14.29 L 20.5 14.5 L 20.54 14.71 L 20.58 14.92 L 20.62 15.12 L 20.67 15.33 L 20.71 15.54 L 20.75 15.75 L 20.79 15.96 L 20.83 16.17 L 20.88 16.38 L 20.92 16.58 L 20.96 16.79 L 21.0 17.0 L 21.0 17.0 L 21.43 17.41 L 21.83 17.85 L 22.2 18.31 L 22.53 18.8 L 22.83 19.31 L 23.09 19.84 L 23.31 20.39 L 23.5 20.95 L 23.64 21.53 L 23.75 22.11 L 23.81 22.7 L 23.83 23.29 L 23.81 23.88 L 23.75 24.47 L 23.64 25.05 L 23.5 25.63 L 23.31 26.19 L 23.09 26.74 L 22.83 27.27 L 22.53 27.78 L 22.2 28.27 L 21.83 28.73 L 21.43 29.17 L 21.0 29.58" fill="none" stroke="#111" stroke-width="1.23" stroke-linecap="round" stroke-linejoin="round"/>
<path d="M 22.0 19.0 L 21.83 19.25 L 21.67 19.5 L 21.5 19.75 L 21.33 20.0 L 21.17 20.25 L 21.0 20.5 L 20.83 20.75 L 20.67 21.0 L 20.5 21.25 L 20.33 21.5 L 20.17 21.75 L 20.0 22.0 L 19.83 22.25 L 19.67 22.5 L 19.5 22.75 L 19.33 23.0 L 19.17 23.25 L 19.0 23.5 L 18.83 23.75 L 18.67 24.0 L 18.5 24.25 L 18.33 24.5 L 18.17 24.75 L 18.0 25.0" fill="none" stroke="#111" stroke-width="1.23" stroke-linecap="round" stroke-linejoin="round"/>
</svg>
