<?xml version="1.0" encoding="UTF-8"?>
<svg xmlns="http://www.w3.org/2000/svg" viewBox="0 0 31.22 23.36">
<path d="M 4.0 8.0 L 4.88 7.96 L 5.75 7.92 L 6.62 7.88 L 7.5 7.83 L 8.38 7.79 L 9.25 7.75 L 10.12 7.71 L 11.0 7.67 L 11.88 7.62 L 12.75 7.58 L 13.62 7.54 L 14.5 7.5 L 15.38 7.46 L 16.25 7.42 L 17.12 7.38 L 18.0 7.33 L 18.88 7.29 L 19.75 7.25 L 20.63 7.21 L 21.5 7.17 L 22.38 7.12 L 23.25 7.08 L 24.13 7.04 L 25.0 7.0" fill="none" stroke="#111" stroke-width="1.09" stroke-linecap="round" stroke-linejoin="round"/>
<path d="M 7.0 4.0 L 6.35 5.68 L 5.98 7.44 L 5.92 9.23 L 6.16 11.02 L 6.7 12.73 L 7.52 14.33 L 8.6 15.78 L 9.9 17.01 L 11.4 18.02 L 13.04 18.75 L 14.78 19.2 L 16.57 19.36 L 18.36 19.2 L 20.1 18.75 L 21.74 18.02 L 23.24 17.01 L 24.54 15.78 L 25.62 14.33 L 26.44 12.73 L 26.97 11.02 L 27.22 9.23 L 27.15 7.44 L 26.79 5.68 L 26.14 4.0" fill="none" stroke="#111" stroke-width="1.09" stroke-linecap="round" stroke-linejoin="round"/>
<path d="M 8.0 9.0 L 8.38 9.48 L 8.77 9.94 L 9.17 10.4 L 9.59 10.84 L 10.01 11.28 L 10.45 11.7 L 10.9 12.11 L 11.37 12.5 L 11.84 12.89 L 12.32 13.26 L 12.81 13.62 L 13.31 13.96 L 13.82 14.29 L 14.34 14.61 L 14.87 14.91 L 15.41 15.2 L 15.95 15.47 L 16.5 15.73 L 17.06 15.97 L 17.62 16.2 L 18.2 16.41 L 18.77 16.61 L 19.35 16.79 L 19.94 16.96" fill="none" stroke="#111" stroke-width="1.09" stroke-linecap="round" stroke-linejoin="round"/>
<path d="M 22.0 9.0 L 21.59 9.51 L 21.16 10.0 L 20.73 10.5 L 20.29 10.98 L 19.84 11.46 L 19.39 11.93 L 18.93 12.39 L 18.46 12.84 L 17.98 13.29 L 17.49 13.73 L 17.0 14.16 L 16.5 14.58 L 16.0 15.0 L 15.48 15.4 L 14.97 15.8 L 14.44 16.19 L 13.91 16.57 L 13.37 16.94 L 12.83 17.31 L 12.28 17.66 L 11.72 18.0 L 11.16 18.34 L 10.59 18.67 L 10.02 18.98" fill="none" stroke="#111" stroke-width="1.09" stroke-linecap="round" stroke-linejoin="round"/>
</svg>
