<?xml version="1.0" encoding="UTF-8"?>
<svg xmlns="http://www.w3.org/2000/svg" viewBox="0 0 24.79 35.11">
<path d="M 14.02 4.0 L 13.12 4.66 L 12.27 5.39 L 11.48 6.18 L 10.76 7.04 L 10.12 7.96 L 9.55 8.92 L 9.06 9.93 L 8.66 10.97 L 8.34 12.05 L 8.11 13.14 L 7.98 14.25 L 7.93 15.37 L 7.98 16.49 L 8.11 17.6 L 8.34 18.7 L 8.66 19.77 L 9.06 20.82 L 9.55 21.82 L 10.12 22.79 L 10.76 23.7 L 11.48 24.56 L 12.27 25.36 L 13.12 26.09 L 14.02 26.75 L 14.02 27.0 L 14.23 26.75 L 14.44 26.5 L 14.65 26.25 L 14.86 26.0 L 15.06 25.75 L 15.27 25.5 L 15.48 25.25 L 15.69 25.0 L 15.9 24.75 L 16.11 24.5 L 16.31 24.25 L 16.52 24.0 L 16.73 23.75 L 16.94 23.5 L 17.15 23.25 L 17.36 23.0 L 17.56 22.75 L 17.77 22.5 L 17.98 22.25 L 18.19 22.0 L 18.4 21.75 L 18.61 21.5 L 18.81 21.25 L 19.02 21.0 L 19.02 21.0 L 18.98 20.79 L 18.94 20.58 L 18.9 20.38 L 18.86 20.17 L 18.81 19.96 L 18.77 19.75 L 18.73 19.54 L 18.69 19.33 L 18.65 19.12 L 18.61 18.92 L 18.56 18.71 L 18.52 18.5 L 18.48 18.29 L 18.44 18.08 L 18.4 17.88 L 18.36 17.67 L 18.31 17.46 L 18.27 17.25 L 18.23 17.04 L 18.19 16.83 L 18.15 16.62 L 18.11 16.42 L 18.06 16.21 L 18.02 16.0 L 18.02 16.0 L 17.63 15.8 L 17.26 15.59 L 16.89 15.35 L 16.54 15.1 L 16.2 14.83 L 15.87 14.54 L 15.56 14.23 L 15.27 13.91 L 15.0 13.57 L 14.74 13.22 L 14.5 12.86 L 14.28 12.49 L 14.08 12.1 L 13.89 11.71 L 13.73 11.3 L 13.59 10.89 L 13.48 10.47 L 13.38 10.05 L 13.31 9.62 L 13.26 9.19 L 13.23 8.75 L 13.22 8.32 L 13.23 7.89 L 13.27 7.45" fill="none" stroke="#111" stroke-width="1.23" stroke-linecap="round" stroke-linejoin="round"/>
<path d="M 9.02 14.0 L 9.28 14.15 L 9.55 14.3 L 9.83 14.43 L 10.11 14.54 L 10.39 14.65 L 10.68 14.74 L 10.97 14.82 L 11.27 14.88 L 11.57 14.93 L 11.87 14.96 L 12.17 14.98 L 12.48 14.99 L 12.78 14.98 L 13.08 14.96 L 13.39 14.93 L 13.69 14.88 L 13.98 14.82 L 14.28 14.74 L 14.57 14.65 L 14.85 14.54 L 15.13 14.43 L 15.41 14.3 L 15.67 14.15 L 15.93 14.0" fill="none" stroke="#111" stroke-width="1.23" stroke-linecap="round" stroke-linejoin="round"/>
<path d="M 9.02 17.0 L 9.4 17.0 L 9.77 17.0 L 10.15 17.0 L 10.52 17.0 L 10.9 17.0 L 11.27 17.0 L 11.65 17.0 L 12.02 17.0 L 12.4 17.0 L 12.77 17.0 L 13.15 17.0 L 13.52 17.0 L 13.9 17.0 L 14.27 17.0 L 14.65 17.0 L 15.02 17.0 L 15.4 17.0 L 15.77 17.0 L 16.15 17.0 L 16.52 17.0 L 16.9 17.0 L 17.27 17.0 L 17.65 17.0 L 18.02 17.0" fill="none" stroke="#111" stroke-width="1.23" stroke-linecap="round" stroke-linejoin="round"/>
<path d="M 8.02 20.0 L 8.44 20.04 L 8.86 20.08 L 9.27 20.12 L 9.69 20.17 L 10.11 20.21 L 10.52 20.25 L 10.94 20.29 L 11.36 20.33 L 11.77 20.38 L 12.19 20.42 L 12.61 20.46 L 13.02 20.5 L 13.44 20.54 L 13.86 20.58 L 14.27 20.62 L 14.69 20.67 L 15.11 20.71 L 15.52 20.75 L 15.94 20.79 L 16.36 20.83 L 16.77 20.88 L 17.19 20.92 L 17.61 20.96 L 18.02 21.0" fill="none" stroke="#111" stroke-width="1.23" stroke-linecap="round" stroke-linejoin="round"/>
<path d="M 12.02 8.0 L 12.06 8.75 L 12.11 9.5 L 12.15 10.25 L 12.19 11.0 L 12.23 11.75 L 12.27 12.5 L 12.31 13.25 L 12.36 14.0 L 12.4 14.75 L 12.44 15.5 L 12.48 16.25 L 12.52 17.0 L 12.56 17.75 L 12.61 18.5 L 12.65 19.25 L 12.69 20.0 L 12.73 20.75 L 12.77 21.5 L 12.81 22.25 L 12.86 23.0 L 12.9 23.75 L 12.94 24.5 L 12.98 25.25 L 13.02 26.0" fill="none" stroke="#111" stroke-width="1.23" stroke-linecap="round" stroke-linejoin="round"/>
<path d="M 6.02 8.0 L 5.98 8.25 L 5.94 8.5 L 5.9 8.75 L 5.86 9.0 L 5.81 9.25 L 5.77 9.5 L 5.73 9.75 L 5.69 10.0 L 5.65 10.25 L 5.61 10.5 L 5.56 10.75 L 5.52 11.0 L 5.48 11.25 L 5.44 11.5 L 5.4 11.75 L 5.36 12.0 L 5.31 12.25 L 5.27 12.5 L 5.23 12.75 L 5.19 13.0 L 5.15 13.25 L 5.11 13.5 L 5.06 13.75 L 5.02 14.0" fill="none" stroke="#111" stroke-width="1.23" stroke-linecap="round" stroke-linejoin="round"/>
<path d="M 17.02 9.0 L 17.11 9.17 L 17.19 9.33 L 17.27 9.5 L 17.36 9.67 L 17.44 9.83 L 17.52 10.0 L 17.61 10.17 L 17.69 10.33 L 17.77 10.5 L 17.86 10.67 L 17.94 10.83 L 18.02 11.0 L 18.11 11.17 L 18.19 11.33 L 18.27 11.5 L 18.36 11.67 L 18.44 11.83 L 18.52 12.0 L 18.61 12.17 L 18.69 12.33 L 18.77 12.5 L 18.86 12.67 L 18.94 12.83 L 19.02 13.0" fill="none" stroke="#111" stroke-width="1.23" stroke-linecap="round" stroke-linejoin="round"/>
<path d="M 4.02 22.0 L 4.0 23.12 L 4.13 24.23 L 4.4 25.31 L 4.81 26.35 L 5.36 27.33 L 6.04 28.22 L 6.82 29.02 L 7.71 29.7 L 8.68 30.26 L 9.71 30.69 L 10.79 30.97 L 11.9 31.11 L 13.02 31.1 L 14.13 30.95 L 15.2 30.64 L 16.23 30.2 L 17.19 29.63 L 18.06 28.93 L 18.84 28.12 L 19.5 27.22 L 20.03 26.23 L 20.43 25.19 L 20.68 24.1 L 20.79 22.99" fill="none" stroke="#111" stroke-width="1.23" stroke-linecap="round" stroke-linejoin="round"/>
</svg>
