<?xml version="1.0" encoding="UTF-8"?>
<svg xmlns="http://www.w3.org/2000/svg" viewBox="0 0 27.00 36.00">
<path d="M 13.0 4.0 L 12.89 4.57 L 12.75 5.14 L 12.58 5.7 L 12.39 6.25 L 12.17 6.79 L 11.93 7.32 L 11.66 7.84 L 11.37 8.34 L 11.06 8.83 L 10.72 9.31 L 10.36 9.77 L 9.98 10.21 L 9.58 10.63 L 9.16 11.04 L 8.73 11.42 L 8.27 11.79 L 7.8 12.13 L 7.31 12.45 L 6.81 12.74 L 6.3 13.02 L 5.77 13.27 L 5.23 13.49 L 4.68 13.69 L 4.13 13.86 L 4.0 14.0 L 4.04 14.62 L 4.08 15.25 L 4.12 15.88 L 4.17 16.5 L 4.21 17.12 L 4.25 17.75 L 4.29 18.38 L 4.33 19.0 L 4.38 19.62 L 4.42 20.25 L 4.46 20.88 L 4.5 21.5 L 4.54 22.12 L 4.58 22.75 L 4.62 23.38 L 4.67 24.0 L 4.71 24.62 L 4.75 25.25 L 4.79 25.88 L 4.83 26.5 L 4.88 27.12 L 4.92 27.75 L 4.96 28.38 L 5.0 29.0" fill="none" stroke="#111" stroke-width="1.26" stroke-linecap="round" stroke-linejoin="round"/>
<path d="M 13.0 4.0 L 13.24 4.51 L 13.5 5.02 L 13.76 5.52 L 14.04 6.01 L 14.34 6.5 L 14.64 6.98 L 14.96 7.45 L 15.28 7.91 L 15.62 8.36 L 15.98 8.81 L 16.34 9.24 L 16.71 9.67 L 17.1 10.08 L 17.49 10.49 L 17.9 10.89 L 18.31 11.27 L 18.74 11.65 L 19.17 12.01 L 19.61 12.36 L 20.07 12.71 L 20.53 13.04 L 21.0 13.35 L 21.47 13.66 L 21.96 13.95 L 22.0 14.0 L 22.04 14.75 L 22.08 15.5 L 22.12 16.25 L 22.17 17.0 L 22.21 17.75 L 22.25 18.5 L 22.29 19.25 L 22.33 20.0 L 22.38 20.75 L 22.42 21.5 L 22.46 22.25 L 22.5 23.0 L 22.54 23.75 L 22.58 24.5 L 22.62 25.25 L 22.67 26.0 L 22.71 26.75 L 22.75 27.5 L 22.79 28.25 L 22.83 29.0 L 22.88 29.75 L 22.92 30.5 L 22.96 31.25 L 23.0 32.0" fill="none" stroke="#111" stroke-width="1.26" stroke-linecap="round" stroke-linejoin="round"/>
<path d="M 8.0 18.0 L 7.54 18.97 L 7.25 20.0 L 7.14 21.07 L 7.23 22.14 L 7.5 23.18 L 7.95 24.15 L 8.56 25.03 L 9.31 25.8 L 10.19 26.41 L 11.16 26.87 L 12.2 27.15 L 13.26 27.24 L 14.33 27.15 L 15.37 26.87 L 16.34 26.41 L 17.22 25.8 L 17.97 25.03 L 18.58 24.15 L 19.03 23.18 L 19.3 22.14 L 19.38 21.07 L 19.28 20.0 L 18.99 18.97 L 18.53 18.0" fill="none" stroke="#111" stroke-width="1.26" stroke-linecap="round" stroke-linejoin="round"/>
<path d="M 9.0 19.0 L 9.04 19.08 L 9.08 19.17 L 9.12 19.25 L 9.17 19.33 L 9.21 19.42 L 9.25 19.5 L 9.29 19.58 L 9.33 19.67 L 9.38 19.75 L 9.42 19.83 L 9.46 19.92 L 9.5 20.0 L 9.54 20.08 L 9.58 20.17 L 9.62 20.25 L 9.67 20.33 L 9.71 20.42 L 9.75 20.5 L 9.79 20.58 L 9.83 20.67 L 9.88 20.75 L 9.92 20.83 L 9.96 20.92 L 10.0 21.0" fill="none" stroke="#111" stroke-width="1.26" stroke-linecap="round" stroke-linejoin="round"/>
<path d="M 14.0 16.0 L 14.0 16.35 L 13.98 16.7 L 13.95 17.04 L 13.9 17.39 L 13.83 17.73 L 13.75 18.07 L 13.66 18.41 L 13.55 18.74 L 13.43 19.06 L 13.29 19.38 L 13.13 19.7 L 12.97 20.0 L 12.79 20.3 L 12.6 20.59 L 12.39 20.87 L 12.17 21.15 L 11.94 21.41 L 11.7 21.66 L 11.45 21.9 L 11.19 22.13 L 10.92 22.35 L 10.63 22.55 L 10.34 22.74 L 10.04 22.92" fill="none" stroke="#111" stroke-width="1.26" stroke-linecap="round" stroke-linejoin="round"/>
<path d="M 13.0 20.0 L 13.21 20.12 L 13.42 20.25 L 13.62 20.38 L 13.83 20.5 L 14.04 20.62 L 14.25 20.75 L 14.46 20.88 L 14.67 21.0 L 14.88 21.12 L 15.08 21.25 L 15.29 21.38 L 15.5 21.5 L 15.71 21.62 L 15.92 21.75 L 16.12 21.88 L 16.33 22.0 L 16.54 22.12 L 16.75 22.25 L 16.96 22.38 L 17.17 22.5 L 17.38 22.62 L 17.58 22.75 L 17.79 22.88 L 18.0 23.0" fill="none" stroke="#111" stroke-width="1.26" stroke-linecap="round" stroke-linejoin="round"/>
<path d="M 18.0 19.0 L 17.92 19.08 L 17.83 19.17 L 17.75 19.25 L 17.67 19.33 L 17.58 19.42 L 17.5 19.5 L 17.42 19.58 L 17.33 19.67 L 17.25 19.75 L 17.17 19.83 L 17.08 19.92 L 17.0 20.0 L 16.92 20.08 L 16.83 20.17 L 16.75 20.25 L 16.67 20.33 L 16.58 20.42 L 16.5 20.5 L 16.42 20.58 L 16.33 20.67 L 16.25 20.75 L 16.17 20.83 L 16.08 20.92 L 16.0 21.0" fill="none" stroke="#111" stroke-width="1.26" stroke-linecap="round" stroke-linejoin="round"/>
</svg>
