<?xml version="1.0" encoding="UTF-8"?>
<svg xmlns="http://www.w3.org/2000/svg" viewBox="0 0 23.63 36.61">
<path d="M 5.0 4.0 L 5.06 4.44 L 5.17 4.87 L 5.32 5.29 L 5.51 5.69 L 5.74 6.07 L 6.01 6.42 L 6.32 6.75 L 6.65 7.04 L 7.02 7.29 L 7.41 7.5 L 7.82 7.68 L 8.24 7.81 L 8.68 7.89 L 9.12 7.93 L 9.56 7.93 L 10.01 7.87 L 10.44 7.78 L 10.86 7.64 L 11.27 7.45 L 11.65 7.23 L 12.01 6.96 L 12.34 6.66 L 12.63 6.33 L 12.89 5.97 L 13.0 6.0 L 13.04 6.21 L 13.08 6.42 L 13.12 6.62 L 13.17 6.83 L 13.21 7.04 L 13.25 7.25 L 13.29 7.46 L 13.33 7.67 L 13.38 7.88 L 13.42 8.08 L 13.46 8.29 L 13.5 8.5 L 13.54 8.71 L 13.58 8.92 L 13.62 9.12 L 13.67 9.33 L 13.71 9.54 L 13.75 9.75 L 13.79 9.96 L 13.83 10.17 L 13.88 10.38 L 13.92 10.58 L 13.96 10.79 L 14.0 11.0 L 14.0 11.0 L 13.79 11.04 L 13.58 11.08 L 13.38 11.12 L 13.17 11.17 L 12.96 11.21 L 12.75 11.25 L 12.54 11.29 L 12.33 11.33 L 12.12 11.38 L 11.92 11.42 L 11.71 11.46 L 11.5 11.5 L 11.29 11.54 L 11.08 11.58 L 10.88 11.62 L 10.67 11.67 L 10.46 11.71 L 10.25 11.75 L 10.04 11.79 L 9.83 11.83 L 9.62 11.88 L 9.42 11.92 L 9.21 11.96 L 9.0 12.0 L 9.0 12.0 L 8.76 11.89 L 8.51 11.8 L 8.25 11.73 L 7.99 11.68 L 7.73 11.65 L 7.46 11.65 L 7.19 11.67 L 6.93 11.71 L 6.67 11.78 L 6.42 11.86 L 6.18 11.97 L 5.94 12.1 L 5.72 12.24 L 5.51 12.41 L 5.32 12.59 L 5.14 12.79 L 4.98 13.0 L 4.84 13.22 L 4.72 13.46 L 4.61 13.71 L 4.53 13.96 L 4.47 14.22 L 4.44 14.48 L 4.42 14.75" fill="none" stroke="#111" stroke-width="1.28" stroke-linecap="round" stroke-linejoin="round"/>
<path d="M 9.0 8.0 L 9.0 8.46 L 9.0 8.92 L 9.0 9.38 L 9.0 9.83 L 9.0 10.29 L 9.0 10.75 L 9.0 11.21 L 9.0 11.67 L 9.0 12.12 L 9.0 12.58 L 9.0 13.04 L 9.0 13.5 L 9.0 13.96 L 9.0 14.42 L 9.0 14.88 L 9.0 15.33 L 9.0 15.79 L 9.0 16.25 L 9.0 16.71 L 9.0 17.17 L 9.0 17.62 L 9.0 18.08 L 9.0 18.54 L 9.0 19.0" fill="none" stroke="#111" stroke-width="1.28" stroke-linecap="round" stroke-linejoin="round"/>
<path d="M 11.0 8.0 L 11.0 8.12 L 11.0 8.25 L 11.0 8.38 L 11.0 8.5 L 11.0 8.62 L 11.0 8.75 L 11.0 8.88 L 11.0 9.0 L 11.0 9.12 L 11.0 9.25 L 11.0 9.38 L 11.0 9.5 L 11.0 9.62 L 11.0 9.75 L 11.0 9.88 L 11.0 10.0 L 11.0 10.12 L 11.0 10.25 L 11.0 10.38 L 11.0 10.5 L 11.0 10.62 L 11.0 10.75 L 11.0 10.88 L 11.0 11.0" fill="none" stroke="#111" stroke-width="1.28" stroke-linecap="round" stroke-linejoin="round"/>
<path d="M 7.0 28.0 L 6.52 27.17 L 6.19 26.27 L 6.03 25.32 L 6.05 24.36 L 6.24 23.42 L 6.6 22.53 L 7.12 21.72 L 7.77 21.01 L 8.54 20.44 L 9.41 20.02 L 10.33 19.76 L 11.29 19.67 L 12.24 19.76 L 13.17 20.02 L 14.03 20.44 L 14.8 21.01 L 15.46 21.72 L 15.97 22.53 L 16.33 23.42 L 16.52 24.36 L 16.54 25.32 L 16.38 26.27 L 16.06 27.17 L 15.57 28.0" fill="none" stroke="#111" stroke-width="1.28" stroke-linecap="round" stroke-linejoin="round"/>
<path d="M 7.0 24.0 L 7.21 23.92 L 7.42 23.83 L 7.62 23.75 L 7.83 23.67 L 8.04 23.58 L 8.25 23.5 L 8.46 23.42 L 8.67 23.33 L 8.88 23.25 L 9.08 23.17 L 9.29 23.08 L 9.5 23.0 L 9.71 22.92 L 9.92 22.83 L 10.12 22.75 L 10.33 22.67 L 10.54 22.58 L 10.75 22.5 L 10.96 22.42 L 11.17 22.33 L 11.38 22.25 L 11.58 22.17 L 11.79 22.08 L 12.0 22.0" fill="none" stroke="#111" stroke-width="1.28" stroke-linecap="round" stroke-linejoin="round"/>
<path d="M 4.0 30.0 L 4.6 30.52 L 5.25 30.99 L 5.93 31.41 L 6.64 31.77 L 7.38 32.06 L 8.14 32.3 L 8.92 32.47 L 9.71 32.57 L 10.51 32.61 L 11.31 32.58 L 12.1 32.48 L 12.88 32.32 L 13.65 32.1 L 14.39 31.81 L 15.11 31.46 L 15.79 31.05 L 16.44 30.59 L 17.05 30.07 L 17.61 29.51 L 18.13 28.9 L 18.59 28.24 L 18.99 27.56 L 19.34 26.84 L 19.63 26.09" fill="none" stroke="#111" stroke-width="1.28" stroke-linecap="round" stroke-linejoin="round"/>
<path d="M 7.0 32.0 L 7.25 31.96 L 7.5 31.92 L 7.75 31.88 L 8.0 31.83 L 8.25 31.79 L 8.5 31.75 L 8.75 31.71 L 9.0 31.67 L 9.25 31.62 L 9.5 31.58 L 9.75 31.54 L 10.0 31.5 L 10.25 31.46 L 10.5 31.42 L 10.75 31.38 L 11.0 31.33 L 11.25 31.29 L 11.5 31.25 L 11.75 31.21 L 12.0 31.17 L 12.25 31.12 L 12.5 31.08 L 12.75 31.04 L 13.0 31.0" fill="none" stroke="#111" stroke-width="1.28" stroke-linecap="round" stroke-linejoin="round"/>
</svg>
