<?xml version="1.0" encoding="UTF-8"?>
<svg xmlns="http://www.w3.org/2000/svg" viewBox="0 0 31.00 30.00">
<path d="M 9.0 24.0 L 9.31 23.62 L 9.6 23.23 L 9.87 22.82 L 10.11 22.39 L 10.32 21.95 L 10.51 21.5 L 10.67 21.03 L 10.8 20.56 L 10.9 20.08 L 10.97 19.6 L 11.02 19.11 L 11.03 18.62 L 11.02 18.13 L 10.97 17.64 L 10.9 17.16 L 10.8 16.68 L 10.67 16.21 L 10.51 15.75 L 10.32 15.29 L 10.11 14.85 L 9.87 14.43 L 9.6 14.01 L 9.31 13.62 L 9.0 13.24 L 9.0 13.0 L 9.44 12.64 L 9.9 12.31 L 10.38 11.99 L 10.86 11.7 L 11.36 11.43 L 11.87 11.18 L 12.4 10.96 L 12.93 10.76 L 13.47 10.59 L 14.02 10.44 L 14.57 10.31 L 15.13 10.21 L 15.7 10.14 L 16.26 10.09 L 16.83 10.07 L 17.4 10.07 L 17.97 10.1 L 18.53 10.16 L 19.1 10.24 L 19.65 10.35 L 20.21 10.48 L 20.75 10.64 L 21.29 10.82 L 21.82 11.03 L 22.0 11.0 L 22.26 11.46 L 22.51 11.94 L 22.75 12.42 L 22.97 12.9 L 23.17 13.4 L 23.36 13.9 L 23.54 14.4 L 23.7 14.91 L 23.84 15.43 L 23.97 15.95 L 24.08 16.47 L 24.18 17.0 L 24.26 17.52 L 24.32 18.05 L 24.37 18.59 L 24.4 19.12 L 24.41 19.65 L 24.41 20.19 L 24.39 20.72 L 24.36 21.26 L 24.31 21.79 L 24.24 22.32 L 24.16 22.85 L 24.06 23.37 L 24.0 23.0 L 24.12 23.08 L 24.25 23.17 L 24.38 23.25 L 24.5 23.33 L 24.62 23.42 L 24.75 23.5 L 24.88 23.58 L 25.0 23.67 L 25.12 23.75 L 25.25 23.83 L 25.38 23.92 L 25.5 24.0 L 25.62 24.08 L 25.75 24.17 L 25.88 24.25 L 26.0 24.33 L 26.12 24.42 L 26.25 24.5 L 26.38 24.58 L 26.5 24.67 L 26.62 24.75 L 26.75 24.83 L 26.88 24.92 L 27.0 25.0" fill="none" stroke="#111" stroke-width="1.09" stroke-linecap="round" stroke-linejoin="round"/>
<path d="M 11.0 17.0 L 11.5 16.88 L 12.0 16.75 L 12.5 16.62 L 13.0 16.5 L 13.5 16.38 L 14.0 16.25 L 14.5 16.12 L 15.0 16.0 L 15.5 15.88 L 16.0 15.75 L 16.5 15.62 L 17.0 15.5 L 17.5 15.38 L 18.0 15.25 L 18.5 15.12 L 19.0 15.0 L 19.5 14.88 L 20.0 14.75 L 20.5 14.62 L 21.0 14.5 L 21.5 14.38 L 22.0 14.25 L 22.5 14.12 L 23.0 14.0" fill="none" stroke="#111" stroke-width="1.09" stroke-linecap="round" stroke-linejoin="round"/>
<path d="M 4.0 10.0 L 4.17 9.96 L 4.33 9.92 L 4.5 9.88 L 4.67 9.83 L 4.83 9.79 L 5.0 9.75 L 5.17 9.71 L 5.33 9.67 L 5.5 9.62 L 5.67 9.58 L 5.83 9.54 L 6.0 9.5 L 6.17 9.46 L 6.33 9.42 L 6.5 9.38 L 6.67 9.33 L 6.83 9.29 L 7.0 9.25 L 7.17 9.21 L 7.33 9.17 L 7.5 9.12 L 7.67 9.08 L 7.83 9.04 L 8.0 9.0" fill="none" stroke="#111" stroke-width="1.09" stroke-linecap="round" stroke-linejoin="round"/>
<path d="M 11.0 8.0 L 11.12 7.96 L 11.25 7.92 L 11.38 7.88 L 11.5 7.83 L 11.62 7.79 L 11.75 7.75 L 11.88 7.71 L 12.0 7.67 L 12.12 7.62 L 12.25 7.58 L 12.38 7.54 L 12.5 7.5 L 12.62 7.46 L 12.75 7.42 L 12.88 7.38 L 13.0 7.33 L 13.12 7.29 L 13.25 7.25 L 13.38 7.21 L 13.5 7.17 L 13.62 7.12 L 13.75 7.08 L 13.88 7.04 L 14.0 7.0" fill="none" stroke="#111" stroke-width="1.09" stroke-linecap="round" stroke-linejoin="round"/>
<path d="M 20.0 4.0 L 20.17 4.08 L 20.33 4.17 L 20.5 4.25 L 20.67 4.33 L 20.83 4.42 L 21.0 4.5 L 21.17 4.58 L 21.33 4.67 L 21.5 4.75 L 21.67 4.83 L 21.83 4.92 L 22.0 5.0 L 22.17 5.08 L 22.33 5.17 L 22.5 5.25 L 22.67 5.33 L 22.83 5.42 L 23.0 5.5 L 23.17 5.58 L 23.33 5.67 L 23.5 5.75 L 23.67 5.83 L 23.83 5.92 L 24.0 6.0" fill="none" stroke="#111" stroke-width="1.09" stroke-linecap="round" stroke-linejoin="round"/>
<path d="M 7.0 20.0 L 6.92 20.25 L 6.83 20.5 L 6.75 20.75 L 6.67 21.0 L 6.58 21.25 L 6.5 21.5 L 6.42 21.75 L 6.33 22.0 L 6.25 22.25 L 6.17 22.5 L 6.08 22.75 L 6.0 23.0 L 5.92 23.25 L 5.83 23.5 L 5.75 23.75 L 5.67 24.0 L 5.58 24.25 L 5.5 24.5 L 5.42 24.75 L 5.33 25.0 L 5.25 25.25 L 5.17 25.5 L 5.08 25.75 L 5.0 26.0" fill="none" stroke="#111" stroke-width="1.09" stroke-linecap="round" stroke-linejoin="round"/>
<path d="M 26.0 11.0 L 26.04 11.12 L 26.08 11.25 L 26.12 11.38 L 26.17 11.5 L 26.21 11.62 L 26.25 11.75 L 26.29 11.88 L 26.33 12.0 L 26.38 12.12 L 26.42 12.25 L 26.46 12.38 L 26.5 12.5 L 26.54 12.62 L 26.58 12.75 L 26.62 12.88 L 26.67 13.0 L 26.71 13.12 L 26.75 13.25 L 26.79 13.38 L 26.83 13.5 L 26.88 13.62 L 26.92 13.75 L 26.96 13.88 L 27.0 14.0" fill="none" stroke="#111" stroke-width="1.09" stroke-linecap="round" stroke-linejoin="round"/>
</svg>
