<?xml version="1.0" encoding="UTF-8"?>
<svg xmlns="http://www.w3.org/2000/svg" viewBox="0 0 25.00 39.00">
<path d="M 10.0 7.0 L 10.0 8.17 L 10.0 9.33 L 10.0 10.5 L 10.0 11.67 L 10.0 12.83 L 10.0 14.0 L 10.0 15.17 L 10.0 16.33 L 10.0 17.5 L 10.0 18.67 L 10.0 19.83 L 10.0 21.0 L 10.0 22.17 L 10.0 23.33 L 10.0 24.5 L 10.0 25.67 L 10.0 26.83 L 10.0 28.0 L 10.0 29.17 L 10.0 30.33 L 10.0 31.5 L 10.0 32.67 L 10.0 33.83 L 10.0 35.0" fill="none" stroke="#111" stroke-width="1.37" stroke-linecap="round" stroke-linejoin="round"/>
<path d="M 4.0 13.0 L 4.0 13.33 L 4.0 13.67 L 4.0 14.0 L 4.0 14.33 L 4.0 14.67 L 4.0 15.0 L 4.0 15.33 L 4.0 15.67 L 4.0 16.0 L 4.0 16.33 L 4.0 16.67 L 4.0 17.0 L 4.0 17.33 L 4.0 17.67 L 4.0 18.0 L 4.0 18.33 L 4.0 18.67 L 4.0 19.0 L 4.0 19.33 L 4.0 19.67 L 4.0 20.0 L 4.0 20.33 L 4.0 20.67 L 4.0 21.0" fill="none" stroke="#111" stroke-width="1.37" stroke-linecap="round" stroke-linejoin="round"/>
<path d="M 4.0 17.0 L 4.25 17.0 L 4.5 17.0 L 4.75 17.0 L 5.0 17.0 L 5.25 17.0 L 5.5 17.0 L 5.75 17.0 L 6.0 17.0 L 6.25 17.0 L 6.5 17.0 L 6.75 17.0 L 7.0 17.0 L 7.25 17.0 L 7.5 17.0 L 7.75 17.0 L 8.0 17.0 L 8.25 17.0 L 8.5 17.0 L 8.75 17.0 L 9.0 17.0 L 9.25 17.0 L 9.5 17.0 L 9.75 17.0 L 10.0 17.0" fill="none" stroke="#111" stroke-width="1.37" stroke-linecap="round" stroke-linejoin="round"/>
<path d="M 4.0 26.0 L 4.0 26.33 L 4.0 26.67 L 4.0 27.0 L 4.0 27.33 L 4.0 27.67 L 4.0 28.0 L 4.0 28.33 L 4.0 28.67 L 4.0 29.0 L 4.0 29.33 L 4.0 29.67 L 4.0 30.0 L 4.0 30.33 L 4.0 30.67 L 4.0 31.0 L 4.0 31.33 L 4.0 31.67 L 4.0 32.0 L 4.0 32.33 L 4.0 32.67 L 4.0 33.0 L 4.0 33.33 L 4.0 33.67 L 4.0 34.0" fill="none" stroke="#111" stroke-width="1.37" stroke-linecap="round" stroke-linejoin="round"/>
<path d="M 4.0 27.0 L 4.25 27.0 L 4.5 27.0 L 4.75 27.0 L 5.0 27.0 L 5.25 27.0 L 5.5 27.0 L 5.75 27.0 L 6.0 27.0 L 6.25 27.0 L 6.5 27.0 L 6.75 27.0 L 7.0 27.0 L 7.25 27.0 L 7.5 27.0 L 7.75 27.0 L 8.0 27.0 L 8.25 27.0 L 8.5 27.0 L 8.75 27.0 L 9.0 27.0 L 9.25 27.0 L 9.5 27.0 L 9.75 27.0 L 10.0 27.0" fill="none" stroke="#111" stroke-width="1.37" stroke-linecap="round" stroke-linejoin="round"/>
<path d="M 16.0 4.0 L 16.0 4.46 L 16.0 4.92 L 16.0 5.38 L 16.0 5.83 L 16.0 6.29 L 16.0 6.75 L 16.0 7.21 L 16.0 7.67 L 16.0 8.12 L 16.0 8.58 L 16.0 9.04 L 16.0 9.5 L 16.0 9.96 L 16.0 10.42 L 16.0 10.88 L 16.0 11.33 L 16.0 11.79 L 16.0 12.25 L 16.0 12.71 L 16.0 13.17 L 16.0 13.62 L 16.0 14.08 L 16.0 14.54 L 16.0 15.0" fill="none" stroke="#111" stroke-width="1.37" stroke-linecap="round" stroke-linejoin="round"/>
<path d="M 16.0 8.0 L 16.21 8.12 L 16.42 8.25 L 16.62 8.38 L 16.83 8.5 L 17.04 8.62 L 17.25 8.75 L 17.46 8.88 L 17.67 9.0 L 17.88 9.12 L 18.08 9.25 L 18.29 9.38 L 18.5 9.5 L 18.71 9.62 L 18.92 9.75 L 19.12 9.88 L 19.33 10.0 L 19.54 10.12 L 19.75 10.25 L 19.96 10.38 L 20.17 10.5 L 20.38 10.62 L 20.58 10.75 L 20.79 10.88 L 21.0 11.0" fill="none" stroke="#111" stroke-width="1.37" stroke-linecap="round" stroke-linejoin="round"/>
<path d="M 14.0 18.0 L 14.0 18.42 L 14.0 18.83 L 14.0 19.25 L 14.0 19.67 L 14.0 20.08 L 14.0 20.5 L 14.0 20.92 L 14.0 21.33 L 14.0 21.75 L 14.0 22.17 L 14.0 22.58 L 14.0 23.0 L 14.0 23.42 L 14.0 23.83 L 14.0 24.25 L 14.0 24.67 L 14.0 25.08 L 14.0 25.5 L 14.0 25.92 L 14.0 26.33 L 14.0 26.75 L 14.0 27.17 L 14.0 27.58 L 14.0 28.0" fill="none" stroke="#111" stroke-width="1.37" stroke-linecap="round" stroke-linejoin="round"/>
<path d="M 14.0 18.0 L 14.25 17.92 L 14.5 17.83 L 14.75 17.75 L 15.0 17.67 L 15.25 17.58 L 15.5 17.5 L 15.75 17.42 L 16.0 17.33 L 16.25 17.25 L 16.5 17.17 L 16.75 17.08 L 17.0 17.0 L 17.25 16.92 L 17.5 16.83 L 17.75 16.75 L 18.0 16.67 L 18.25 16.58 L 18.5 16.5 L 18.75 16.42 L 19.0 16.33 L 19.25 16.25 L 19.5 16.17 L 19.75 16.08 L 20.0 16.0 L 20.0 16.0 L 20.0 16.58 L 20.0 17.17 L 20.0 17.75 L 20.0 18.33 L 20.0 18.92 L 20.0 19.5 L 20.0 20.08 L 20.0 20.67 L 20.0 21.25 L 20.0 21.83 L 20.0 22.42 L 20.0 23.0 L 20.0 23.58 L 20.0 24.17 L 20.0 24.75 L 20.0 25.33 L 20.0 25.92 L 20.0 26.5 L 20.0 27.08 L 20.0 27.67 L 20.0 28.25 L 20.0 28.83 L 20.0 29.42 L 20.0 30.0" fill="none" stroke="#111" stroke-width="1.37" stroke-linecap="round" stroke-linejoin="round"/>
<path d="M 14.0 24.0 L 14.21 23.83 L 14.42 23.67 L 14.62 23.5 L 14.83 23.33 L 15.04 23.17 L 15.25 23.0 L 15.46 22.83 L 15.67 22.67 L 15.88 22.5 L 16.08 22.33 L 16.29 22.17 L 16.5 22.0 L 16.71 21.83 L 16.92 21.67 L 17.12 21.5 L 17.33 21.33 L 17.54 21.17 L 17.75 21.0 L 17.96 20.83 L 18.17 20.67 L 18.38 20.5 L 18.58 20.33 L 18.79 20.17 L 19.0 20.0" fill="none" stroke="#111" stroke-width="1.37" stroke-linecap="round" stroke-linejoin="round"/>
</svg>
