<?xml version="1.0" encoding="UTF-8"?>
<svg xmlns="http://www.w3.org/2000/svg" viewBox="0 0 21.00 37.00">
<path d="M 5.0 4.0 L 5.21 4.25 L 5.42 4.5 L 5.62 4.75 L 5.83 5.0 L 6.04 5.25 L 6.25 5.5 L 6.46 5.75 L 6.67 6.0 L 6.88 6.25 L 7.08 6.5 L 7.29 6.75 L 7.5 7.0 L 7.71 7.25 L 7.92 7.5 L 8.12 7.75 L 8.33 8.0 L 8.54 8.25 L 8.75 8.5 L 8.96 8.75 L 9.17 9.0 L 9.38 9.25 L 9.58 9.5 L 9.79 9.75 L 10.0 10.0 L 10.0 10.0 L 10.29 9.75 L 10.58 9.5 L 10.88 9.25 L 11.17 9.0 L 11.46 8.75 L 11.75 8.5 L 12.04 8.25 L 12.33 8.0 L 12.62 7.75 L 12.92 7.5 L 13.21 7.25 L 13.5 7.0 L 13.79 6.75 L 14.08 6.5 L 14.38 6.25 L 14.67 6.0 L 14.96 5.75 L 15.25 5.5 L 15.54 5.25 L 15.83 5.0 L 16.12 4.75 L 16.42 4.5 L 16.71 4.25 L 17.0 4.0" fill="none" stroke="#111" stroke-width="1.30" stroke-linecap="round" stroke-linejoin="round"/>
<path d="M 11.0 4.0 L 10.96 4.54 L 10.92 5.08 L 10.88 5.62 L 10.83 6.17 L 10.79 6.71 L 10.75 7.25 L 10.71 7.79 L 10.67 8.33 L 10.62 8.88 L 10.58 9.42 L 10.54 9.96 L 10.5 10.5 L 10.46 11.04 L 10.42 11.58 L 10.38 12.13 L 10.33 12.67 L 10.29 13.21 L 10.25 13.75 L 10.21 14.29 L 10.17 14.83 L 10.12 15.38 L 10.08 15.92 L 10.04 16.46 L 10.0 17.0" fill="none" stroke="#111" stroke-width="1.30" stroke-linecap="round" stroke-linejoin="round"/>
<path d="M 4.0 16.0 L 4.29 15.71 L 4.58 15.42 L 4.88 15.12 L 5.17 14.83 L 5.46 14.54 L 5.75 14.25 L 6.04 13.96 L 6.33 13.67 L 6.62 13.38 L 6.92 13.08 L 7.21 12.79 L 7.5 12.5 L 7.79 12.21 L 8.08 11.92 L 8.38 11.62 L 8.67 11.33 L 8.96 11.04 L 9.25 10.75 L 9.54 10.46 L 9.83 10.17 L 10.12 9.88 L 10.42 9.58 L 10.71 9.29 L 11.0 9.0 L 11.0 9.0 L 11.25 9.29 L 11.5 9.58 L 11.75 9.88 L 12.0 10.17 L 12.25 10.46 L 12.5 10.75 L 12.75 11.04 L 13.0 11.33 L 13.25 11.62 L 13.5 11.92 L 13.75 12.21 L 14.0 12.5 L 14.25 12.79 L 14.5 13.08 L 14.75 13.38 L 15.0 13.67 L 15.25 13.96 L 15.5 14.25 L 15.75 14.54 L 16.0 14.83 L 16.25 15.12 L 16.5 15.42 L 16.75 15.71 L 17.0 16.0" fill="none" stroke="#111" stroke-width="1.30" stroke-linecap="round" stroke-linejoin="round"/>
<path d="M 7.0 18.0 L 7.25 18.0 L 7.5 18.0 L 7.75 18.0 L 8.0 18.0 L 8.25 18.0 L 8.5 18.0 L 8.75 18.0 L 9.0 18.0 L 9.25 18.0 L 9.5 18.0 L 9.75 18.0 L 10.0 18.0 L 10.25 18.0 L 10.5 18.0 L 10.75 18.0 L 11.0 18.0 L 11.25 18.0 L 11.5 18.0 L 11.75 18.0 L 12.0 18.0 L 12.25 18.0 L 12.5 18.0 L 12.75 18.0 L 13.0 18.0 L 13.0 18.0 L 12.96 18.21 L 12.92 18.42 L 12.88 18.62 L 12.83 18.83 L 12.79 19.04 L 12.75 19.25 L 12.71 19.46 L 12.67 19.67 L 12.62 19.88 L 12.58 20.08 L 12.54 20.29 L 12.5 20.5 L 12.46 20.71 L 12.42 20.92 L 12.38 21.12 L 12.33 21.33 L 12.29 21.54 L 12.25 21.75 L 12.21 21.96 L 12.17 22.17 L 12.12 22.38 L 12.08 22.58 L 12.04 22.79 L 12.0 23.0 L 12.0 23.0 L 11.75 22.96 L 11.5 22.92 L 11.25 22.88 L 11.0 22.83 L 10.75 22.79 L 10.5 22.75 L 10.25 22.71 L 10.0 22.67 L 9.75 22.62 L 9.5 22.58 L 9.25 22.54 L 9.0 22.5 L 8.75 22.46 L 8.5 22.42 L 8.25 22.38 L 8.0 22.33 L 7.75 22.29 L 7.5 22.25 L 7.25 22.21 L 7.0 22.17 L 6.75 22.12 L 6.5 22.08 L 6.25 22.04 L 6.0 22.0 L 6.0 22.0 L 6.04 21.83 L 6.08 21.67 L 6.12 21.5 L 6.17 21.33 L 6.21 21.17 L 6.25 21.0 L 6.29 20.83 L 6.33 20.67 L 6.38 20.5 L 6.42 20.33 L 6.46 20.17 L 6.5 20.0 L 6.54 19.83 L 6.58 19.67 L 6.62 19.5 L 6.67 19.33 L 6.71 19.17 L 6.75 19.0 L 6.79 18.83 L 6.83 18.67 L 6.88 18.5 L 6.92 18.33 L 6.96 18.17 L 7.0 18.0" fill="none" stroke="#111" stroke-width="1.30" stroke-linecap="round" stroke-linejoin="round"/>
<path d="M 10.0 23.0 L 9.96 23.42 L 9.92 23.83 L 9.88 24.25 L 9.83 24.67 L 9.79 25.08 L 9.75 25.5 L 9.71 25.92 L 9.67 26.33 L 9.62 26.75 L 9.58 27.17 L 9.54 27.58 L 9.5 28.0 L 9.46 28.42 L 9.42 28.83 L 9.38 29.25 L 9.33 29.67 L 9.29 30.08 L 9.25 30.5 L 9.21 30.92 L 9.17 31.33 L 9.12 31.75 L 9.08 32.17 L 9.04 32.58 L 9.0 33.0" fill="none" stroke="#111" stroke-width="1.30" stroke-linecap="round" stroke-linejoin="round"/>
<path d="M 4.0 30.0 L 4.46 29.75 L 4.92 29.5 L 5.38 29.25 L 5.83 29.0 L 6.29 28.75 L 6.75 28.5 L 7.21 28.25 L 7.67 28.0 L 8.12 27.75 L 8.58 27.5 L 9.04 27.25 L 9.5 27.0 L 9.96 26.75 L 10.42 26.5 L 10.88 26.25 L 11.33 26.0 L 11.79 25.75 L 12.25 25.5 L 12.71 25.25 L 13.17 25.0 L 13.62 24.75 L 14.08 24.5 L 14.54 24.25 L 15.0 24.0" fill="none" stroke="#111" stroke-width="1.30" stroke-linecap="round" stroke-linejoin="round"/>
</svg>
