<?xml version="1.0" encoding="UTF-8"?>
<svg xmlns="http://www.w3.org/2000/svg" viewBox="0 0 26.64 39.00">
<path d="M 8.0 5.0 L 8.12 5.21 L 8.25 5.42 L 8.38 5.62 L 8.5 5.83 L 8.62 6.04 L 8.75 6.25 L 8.88 6.46 L 9.0 6.67 L 9.12 6.88 L 9.25 7.08 L 9.38 7.29 L 9.5 7.5 L 9.62 7.71 L 9.75 7.92 L 9.88 8.12 L 10.0 8.33 L 10.12 8.54 L 10.25 8.75 L 10.38 8.96 L 10.5 9.17 L 10.62 9.38 L 10.75 9.58 L 10.88 9.79 L 11.0 10.0 L 11.0 10.0 L 10.52 10.07 L 10.06 10.18 L 9.6 10.34 L 9.17 10.54 L 8.75 10.78 L 8.36 11.06 L 8.0 11.38 L 7.67 11.73 L 7.38 12.11 L 7.12 12.52 L 6.9 12.95 L 6.73 13.4 L 6.6 13.86 L 6.51 14.33 L 6.48 14.81 L 6.48 15.29 L 6.54 15.77 L 6.64 16.24 L 6.78 16.7 L 6.97 17.14 L 7.19 17.57 L 7.46 17.96 L 7.77 18.34 L 8.11 18.68 L 8.0 19.0 L 8.12 18.88 L 8.25 18.75 L 8.38 18.62 L 8.5 18.5 L 8.62 18.38 L 8.75 18.25 L 8.88 18.12 L 9.0 18.0 L 9.12 17.88 L 9.25 17.75 L 9.38 17.62 L 9.5 17.5 L 9.62 17.38 L 9.75 17.25 L 9.88 17.12 L 10.0 17.0 L 10.12 16.88 L 10.25 16.75 L 10.38 16.62 L 10.5 16.5 L 10.62 16.38 L 10.75 16.25 L 10.88 16.12 L 11.0 16.0 L 11.0 16.0 L 10.5 15.88 L 10.02 15.71 L 9.56 15.49 L 9.11 15.24 L 8.69 14.95 L 8.3 14.62 L 7.93 14.26 L 7.61 13.87 L 7.32 13.45 L 7.06 13.0 L 6.85 12.54 L 6.68 12.05 L 6.56 11.56 L 6.48 11.05 L 6.44 10.54 L 6.46 10.03 L 6.51 9.52 L 6.62 9.02 L 6.76 8.53 L 6.95 8.06 L 7.19 7.6 L 7.46 7.17 L 7.77 6.76 L 8.12 6.38" fill="none" stroke="#111" stroke-width="1.37" stroke-linecap="round" stroke-linejoin="round"/>
<path d="M 8.0 19.0 L 8.0 19.58 L 8.0 20.17 L 8.0 20.75 L 8.0 21.33 L 8.0 21.92 L 8.0 22.5 L 8.0 23.08 L 8.0 23.67 L 8.0 24.25 L 8.0 24.83 L 8.0 25.42 L 8.0 26.0 L 8.0 26.58 L 8.0 27.17 L 8.0 27.75 L 8.0 28.33 L 8.0 28.92 L 8.0 29.5 L 8.0 30.08 L 8.0 30.67 L 8.0 31.25 L 8.0 31.83 L 8.0 32.42 L 8.0 33.0" fill="none" stroke="#111" stroke-width="1.37" stroke-linecap="round" stroke-linejoin="round"/>
<path d="M 6.0 23.0 L 6.25 23.33 L 6.5 23.67 L 6.75 24.0 L 7.0 24.33 L 7.25 24.67 L 7.5 25.0 L 7.75 25.33 L 8.0 25.67 L 8.25 26.0 L 8.5 26.33 L 8.75 26.67 L 9.0 27.0 L 9.25 27.33 L 9.5 27.67 L 9.75 28.0 L 10.0 28.33 L 10.25 28.67 L 10.5 29.0 L 10.75 29.33 L 11.0 29.67 L 11.25 30.0 L 11.5 30.33 L 11.75 30.67 L 12.0 31.0" fill="none" stroke="#111" stroke-width="1.37" stroke-linecap="round" stroke-linejoin="round"/>
<path d="M 15.0 4.0 L 14.92 4.17 L 14.83 4.33 L 14.75 4.5 L 14.67 4.67 L 14.58 4.83 L 14.5 5.0 L 14.42 5.17 L 14.33 5.33 L 14.25 5.5 L 14.17 5.67 L 14.08 5.83 L 14.0 6.0 L 13.92 6.17 L 13.83 6.33 L 13.75 6.5 L 13.67 6.67 L 13.58 6.83 L 13.5 7.0 L 13.42 7.17 L 13.33 7.33 L 13.25 7.5 L 13.17 7.67 L 13.08 7.83 L 13.0 8.0 L 13.0 8.0 L 13.17 8.25 L 13.33 8.5 L 13.5 8.75 L 13.67 9.0 L 13.83 9.25 L 14.0 9.5 L 14.17 9.75 L 14.33 10.0 L 14.5 10.25 L 14.67 10.5 L 14.83 10.75 L 15.0 11.0 L 15.17 11.25 L 15.33 11.5 L 15.5 11.75 L 15.67 12.0 L 15.83 12.25 L 16.0 12.5 L 16.17 12.75 L 16.33 13.0 L 16.5 13.25 L 16.67 13.5 L 16.83 13.75 L 17.0 14.0 L 17.0 14.0 L 16.92 14.04 L 16.83 14.08 L 16.75 14.12 L 16.67 14.17 L 16.58 14.21 L 16.5 14.25 L 16.42 14.29 L 16.33 14.33 L 16.25 14.38 L 16.17 14.42 L 16.08 14.46 L 16.0 14.5 L 15.92 14.54 L 15.83 14.58 L 15.75 14.62 L 15.67 14.67 L 15.58 14.71 L 15.5 14.75 L 15.42 14.79 L 15.33 14.83 L 15.25 14.88 L 15.17 14.92 L 15.08 14.96 L 15.0 15.0 L 15.0 15.0 L 14.69 14.77 L 14.41 14.5 L 14.16 14.21 L 13.94 13.89 L 13.76 13.55 L 13.61 13.2 L 13.5 12.83 L 13.42 12.45 L 13.39 12.06 L 13.4 11.68 L 13.44 11.3 L 13.53 10.92 L 13.66 10.55 L 13.82 10.2 L 14.02 9.87 L 14.25 9.56 L 14.51 9.28 L 14.8 9.03 L 15.11 8.8 L 15.45 8.61 L 15.8 8.46 L 16.17 8.35 L 16.55 8.27 L 16.93 8.23 L 17.0 8.0 L 16.96 7.83 L 16.92 7.67 L 16.88 7.5 L 16.83 7.33 L 16.79 7.17 L 16.75 7.0 L 16.71 6.83 L 16.67 6.67 L 16.62 6.5 L 16.58 6.33 L 16.54 6.17 L 16.5 6.0 L 16.46 5.83 L 16.42 5.67 L 16.38 5.5 L 16.33 5.33 L 16.29 5.17 L 16.25 5.0 L 16.21 4.83 L 16.17 4.67 L 16.12 4.5 L 16.08 4.33 L 16.04 4.17 L 16.0 4.0" fill="none" stroke="#111" stroke-width="1.37" stroke-linecap="round" stroke-linejoin="round"/>
<path d="M 15.0 16.0 L 14.91 16.42 L 14.81 16.83 L 14.69 17.24 L 14.56 17.65 L 14.41 18.05 L 14.24 18.44 L 14.07 18.83 L 13.87 19.21 L 13.66 19.58 L 13.44 19.94 L 13.21 20.3 L 12.96 20.64 L 12.69 20.98 L 12.42 21.3 L 12.13 21.62 L 11.83 21.92 L 11.52 22.22 L 11.2 22.5 L 10.87 22.76 L 10.53 23.02 L 10.18 23.26 L 9.82 23.49 L 9.45 23.7 L 9.07 23.9" fill="none" stroke="#111" stroke-width="1.37" stroke-linecap="round" stroke-linejoin="round"/>
<path d="M 7.0 29.0 L 6.88 29.08 L 6.75 29.17 L 6.62 29.25 L 6.5 29.33 L 6.38 29.42 L 6.25 29.5 L 6.12 29.58 L 6.0 29.67 L 5.88 29.75 L 5.75 29.83 L 5.62 29.92 L 5.5 30.0 L 5.38 30.08 L 5.25 30.17 L 5.12 30.25 L 5.0 30.33 L 4.88 30.42 L 4.75 30.5 L 4.62 30.58 L 4.5 30.67 L 4.38 30.75 L 4.25 30.83 L 4.12 30.92 L 4.0 31.0" fill="none" stroke="#111" stroke-width="1.37" stroke-linecap="round" stroke-linejoin="round"/>
<path d="M 16.0 20.0 L 16.04 20.62 L 16.08 21.25 L 16.12 21.88 L 16.17 22.5 L 16.21 23.12 L 16.25 23.75 L 16.29 24.38 L 16.33 25.0 L 16.38 25.62 L 16.42 26.25 L 16.46 26.88 L 16.5 27.5 L 16.54 28.12 L 16.58 28.75 L 16.62 29.38 L 16.67 30.0 L 16.71 30.62 L 16.75 31.25 L 16.79 31.88 L 16.83 32.5 L 16.88 33.12 L 16.92 33.75 L 16.96 34.38 L 17.0 35.0" fill="none" stroke="#111" stroke-width="1.37" stroke-linecap="round" stroke-linejoin="round"/>
<path d="M 13.0 22.0 L 13.12 22.12 L 13.25 22.25 L 13.38 22.38 L 13.5 22.5 L 13.62 22.62 L 13.75 22.75 L 13.88 22.88 L 14.0 23.0 L 14.12 23.12 L 14.25 23.25 L 14.38 23.38 L 14.5 23.5 L 14.62 23.62 L 14.75 23.75 L 14.88 23.88 L 15.0 24.0 L 15.12 24.12 L 15.25 24.25 L 15.38 24.38 L 15.5 24.5 L 15.62 24.62 L 15.75 24.75 L 15.88 24.88 L 16.0 25.0 L 16.0 25.0 L 16.21 24.79 L 16.42 24.58 L 16.62 24.38 L 16.83 24.17 L 17.04 23.96 L 17.25 23.75 L 17.46 23.54 L 17.67 23.33 L 17.88 23.12 L 18.08 22.92 L 18.29 22.71 L 18.5 22.5 L 18.71 22.29 L 18.92 22.08 L 19.12 21.88 L 19.33 21.67 L 19.54 21.46 L 19.75 21.25 L 19.96 21.04 L 20.17 20.83 L 20.38 20.62 L 20.58 20.42 L 20.79 20.21 L 21.0 20.0" fill="none" stroke="#111" stroke-width="1.37" stroke-linecap="round" stroke-linejoin="round"/>
<path d="M 11.0 33.0 L 11.2 32.42 L 11.45 31.86 L 11.75 31.33 L 12.11 30.83 L 12.5 30.37 L 12.94 29.94 L 13.42 29.56 L 13.93 29.22 L 14.47 28.93 L 15.03 28.69 L 15.61 28.51 L 16.21 28.38 L 16.82 28.31 L 17.43 28.29 L 18.04 28.33 L 18.64 28.43 L 19.24 28.59 L 19.81 28.79 L 20.36 29.06 L 20.89 29.37 L 21.38 29.73 L 21.84 30.13 L 22.26 30.58 L 22.64 31.06" fill="none" stroke="#111" stroke-width="1.37" stroke-linecap="round" stroke-linejoin="round"/>
</svg>
