<?xml version="1.0" encoding="UTF-8"?>
<svg xmlns="http://www.w3.org/2000/svg" viewBox="0 0 25.24 37.03">
<path d="M 8.05 6.03 L 8.26 6.12 L 8.46 6.2 L 8.67 6.28 L 8.88 6.37 L 9.09 6.45 L 9.3 6.53 L 9.51 6.62 L 9.71 6.7 L 9.92 6.78 L 10.13 6.87 L 10.34 6.95 L 10.55 7.03 L 10.76 7.12 L 10.96 7.2 L 11.17 7.28 L 11.38 7.37 L 11.59 7.45 L 11.8 7.53 L 12.01 7.62 L 12.21 7.7 L 12.42 7.78 L 12.63 7.87 L 12.84 7.95 L 13.05 8.03 L 13.05 8.03 L 12.72 8.94 L 12.44 9.86 L 12.23 10.8 L 12.09 11.76 L 12.0 12.72 L 11.98 13.68 L 12.02 14.64 L 12.12 15.6 L 12.29 16.55 L 12.52 17.49 L 12.81 18.41 L 13.16 19.3 L 13.57 20.18 L 14.04 21.02 L 14.56 21.83 L 15.13 22.61 L 15.75 23.35 L 16.42 24.04 L 17.13 24.69 L 17.88 25.29 L 18.68 25.84 L 19.5 26.34 L 20.36 26.78 L 21.24 27.16" fill="none" stroke="#111" stroke-width="1.30" stroke-linecap="round" stroke-linejoin="round"/>
<path d="M 13.05 15.03 L 13.34 14.99 L 13.63 14.97 L 13.92 14.96 L 14.21 14.97 L 14.5 14.99 L 14.79 15.02 L 15.08 15.08 L 15.36 15.14 L 15.64 15.22 L 15.92 15.32 L 16.19 15.43 L 16.45 15.55 L 16.71 15.69 L 16.96 15.84 L 17.2 16.0 L 17.43 16.18 L 17.66 16.37 L 17.87 16.56 L 18.07 16.77 L 18.26 16.99 L 18.44 17.22 L 18.61 17.46 L 18.77 17.71 L 18.91 17.96" fill="none" stroke="#111" stroke-width="1.30" stroke-linecap="round" stroke-linejoin="round"/>
<path d="M 20.05 15.03 L 19.96 15.53 L 19.88 16.03 L 19.8 16.53 L 19.71 17.03 L 19.63 17.53 L 19.55 18.03 L 19.46 18.53 L 19.38 19.03 L 19.3 19.53 L 19.21 20.03 L 19.13 20.53 L 19.05 21.03 L 18.96 21.53 L 18.88 22.03 L 18.8 22.53 L 18.71 23.03 L 18.63 23.53 L 18.55 24.03 L 18.46 24.53 L 18.38 25.03 L 18.3 25.53 L 18.21 26.03 L 18.13 26.53 L 18.05 27.03 L 18.05 27.03 L 17.61 27.12 L 17.18 27.19 L 16.74 27.24 L 16.3 27.28 L 15.86 27.3 L 15.42 27.31 L 14.97 27.31 L 14.53 27.29 L 14.09 27.25 L 13.65 27.2 L 13.22 27.14 L 12.78 27.06 L 12.35 26.97 L 11.92 26.86 L 11.5 26.73 L 11.08 26.6 L 10.66 26.45 L 10.25 26.28 L 9.85 26.1 L 9.45 25.91 L 9.06 25.7 L 8.67 25.49 L 8.3 25.25 L 7.93 25.01 L 8.05 25.03 L 8.33 24.62 L 8.58 24.18 L 8.78 23.72 L 8.94 23.24 L 9.07 22.75 L 9.14 22.25 L 9.18 21.75 L 9.17 21.25 L 9.11 20.74 L 9.01 20.25 L 8.87 19.77 L 8.68 19.3 L 8.46 18.85 L 8.2 18.42 L 7.9 18.01 L 7.56 17.64 L 7.19 17.29 L 6.8 16.98 L 6.38 16.7 L 5.93 16.46 L 5.47 16.27 L 4.99 16.11 L 4.5 16.0 L 4.0 15.93" fill="none" stroke="#111" stroke-width="1.30" stroke-linecap="round" stroke-linejoin="round"/>
<path d="M 8.05 16.03 L 7.84 15.86 L 7.63 15.67 L 7.44 15.48 L 7.26 15.27 L 7.08 15.06 L 6.92 14.84 L 6.77 14.61 L 6.62 14.37 L 6.5 14.13 L 6.38 13.88 L 6.27 13.63 L 6.18 13.37 L 6.1 13.1 L 6.03 12.84 L 5.97 12.57 L 5.93 12.3 L 5.9 12.02 L 5.89 11.75 L 5.89 11.47 L 5.9 11.2 L 5.92 10.92 L 5.96 10.65 L 6.01 10.38 L 6.07 10.11 L 6.05 10.03 L 6.26 10.06 L 6.48 10.1 L 6.69 10.16 L 6.89 10.24 L 7.09 10.33 L 7.28 10.44 L 7.45 10.57 L 7.62 10.71 L 7.77 10.87 L 7.91 11.04 L 8.03 11.22 L 8.13 11.41 L 8.22 11.61 L 8.29 11.82 L 8.35 12.03 L 8.38 12.24 L 8.4 12.46 L 8.39 12.68 L 8.37 12.9 L 8.33 13.11 L 8.27 13.32 L 8.19 13.52 L 8.1 13.72 L 7.98 13.91" fill="none" stroke="#111" stroke-width="1.30" stroke-linecap="round" stroke-linejoin="round"/>
<path d="M 17.05 10.03 L 16.93 9.81 L 16.81 9.57 L 16.7 9.34 L 16.6 9.1 L 16.5 8.86 L 16.41 8.61 L 16.33 8.37 L 16.26 8.12 L 16.19 7.87 L 16.13 7.61 L 16.08 7.36 L 16.03 7.1 L 15.99 6.85 L 15.96 6.59 L 15.93 6.33 L 15.92 6.07 L 15.91 5.81 L 15.9 5.55 L 15.91 5.29 L 15.92 5.03 L 15.94 4.77 L 15.97 4.51 L 16.0 4.26 L 16.04 4.0 L 16.05 4.03 L 16.39 4.15 L 16.73 4.3 L 17.05 4.48 L 17.35 4.68 L 17.64 4.9 L 17.91 5.15 L 18.15 5.42 L 18.37 5.71 L 18.57 6.02 L 18.74 6.34 L 18.89 6.68 L 19.0 7.03 L 19.09 7.38 L 19.14 7.74 L 19.17 8.11 L 19.16 8.47 L 19.13 8.83 L 19.06 9.19 L 18.97 9.55 L 18.84 9.89 L 18.69 10.22 L 18.51 10.54 L 18.3 10.84 L 18.07 11.13" fill="none" stroke="#111" stroke-width="1.30" stroke-linecap="round" stroke-linejoin="round"/>
<path d="M 8.05 10.03 L 8.21 10.2 L 8.38 10.37 L 8.55 10.53 L 8.71 10.7 L 8.88 10.87 L 9.05 11.03 L 9.21 11.2 L 9.38 11.37 L 9.55 11.53 L 9.71 11.7 L 9.88 11.87 L 10.05 12.03 L 10.21 12.2 L 10.38 12.37 L 10.55 12.53 L 10.71 12.7 L 10.88 12.87 L 11.05 13.03 L 11.21 13.2 L 11.38 13.37 L 11.55 13.53 L 11.71 13.7 L 11.88 13.87 L 12.05 14.03" fill="none" stroke="#111" stroke-width="1.30" stroke-linecap="round" stroke-linejoin="round"/>
<path d="M 15.05 17.03 L 15.27 17.05 L 15.49 17.1 L 15.71 17.16 L 15.91 17.25 L 16.11 17.36 L 16.29 17.49 L 16.46 17.64 L 16.61 17.81 L 16.74 17.99 L 16.85 18.19 L 16.94 18.4 L 17.01 18.61 L 17.05 18.83 L 17.07 19.06 L 17.06 19.28 L 17.03 19.5 L 16.98 19.72 L 16.9 19.93 L 16.8 20.13 L 16.68 20.32 L 16.54 20.5 L 16.38 20.66 L 16.21 20.8 L 16.02 20.92 L 16.05 21.03 L 15.83 21.01 L 15.62 20.97 L 15.41 20.91 L 15.2 20.83 L 15.01 20.74 L 14.82 20.63 L 14.64 20.5 L 14.48 20.35 L 14.33 20.2 L 14.19 20.03 L 14.07 19.85 L 13.96 19.66 L 13.87 19.46 L 13.8 19.25 L 13.75 19.04 L 13.71 18.82 L 13.7 18.61 L 13.7 18.39 L 13.72 18.17 L 13.77 17.96 L 13.83 17.75 L 13.9 17.54 L 14.0 17.35 L 14.11 17.16 L 14.05 17.03 L 14.09 17.03 L 14.13 17.03 L 14.17 17.03 L 14.21 17.03 L 14.26 17.03 L 14.3 17.03 L 14.34 17.03 L 14.38 17.03 L 14.42 17.03 L 14.46 17.03 L 14.51 17.03 L 14.55 17.03 L 14.59 17.03 L 14.63 17.03 L 14.67 17.03 L 14.71 17.03 L 14.76 17.03 L 14.8 17.03 L 14.84 17.03 L 14.88 17.03 L 14.92 17.03 L 14.96 17.03 L 15.01 17.03 L 15.05 17.03" fill="none" stroke="#111" stroke-width="1.30" stroke-linecap="round" stroke-linejoin="round"/>
<path d="M 11.05 27.03 L 11.01 27.24 L 10.96 27.45 L 10.92 27.66 L 10.88 27.87 L 10.84 28.08 L 10.8 28.28 L 10.76 28.49 L 10.71 28.7 L 10.67 28.91 L 10.63 29.12 L 10.59 29.33 L 10.55 29.53 L 10.51 29.74 L 10.46 29.95 L 10.42 30.16 L 10.38 30.37 L 10.34 30.58 L 10.3 30.78 L 10.26 30.99 L 10.21 31.2 L 10.17 31.41 L 10.13 31.62 L 10.09 31.83 L 10.05 32.03" fill="none" stroke="#111" stroke-width="1.30" stroke-linecap="round" stroke-linejoin="round"/>
<path d="M 15.05 27.03 L 15.13 27.24 L 15.21 27.45 L 15.3 27.66 L 15.38 27.87 L 15.46 28.08 L 15.55 28.28 L 15.63 28.49 L 15.71 28.7 L 15.8 28.91 L 15.88 29.12 L 15.96 29.33 L 16.05 29.53 L 16.13 29.74 L 16.21 29.95 L 16.3 30.16 L 16.38 30.37 L 16.46 30.58 L 16.55 30.78 L 16.63 30.99 L 16.71 31.2 L 16.8 31.41 L 16.88 31.62 L 16.96 31.83 L 17.05 32.03" fill="none" stroke="#111" stroke-width="1.30" stroke-linecap="round" stroke-linejoin="round"/>
<path d="M 9.05 32.03 L 9.4 32.19 L 9.76 32.34 L 10.12 32.47 L 10.48 32.58 L 10.85 32.69 L 11.23 32.78 L 11.6 32.85 L 11.98 32.92 L 12.36 32.97 L 12.74 33.0 L 13.13 33.02 L 13.51 33.03 L 13.9 33.02 L 14.28 33.0 L 14.66 32.97 L 15.04 32.92 L 15.42 32.85 L 15.8 32.78 L 16.17 32.69 L 16.54 32.58 L 16.91 32.47 L 17.27 32.34 L 17.63 32.19 L 17.98 32.03" fill="none" stroke="#111" stroke-width="1.30" stroke-linecap="round" stroke-linejoin="round"/>
</svg>
