<?xml version="1.0" encoding="UTF-8"?>
<svg xmlns="http://www.w3.org/2000/svg" viewBox="0 0 25.00 37.00">
<path d="M 7.0 9.0 L 7.04 9.92 L 7.08 10.83 L 7.12 11.75 L 7.17 12.67 L 7.21 13.58 L 7.25 14.5 L 7.29 15.42 L 7.33 16.33 L 7.38 17.25 L 7.42 18.17 L 7.46 19.08 L 7.5 20.0 L 7.54 20.92 L 7.58 21.83 L 7.62 22.75 L 7.67 23.67 L 7.71 24.58 L 7.75 25.5 L 7.79 26.42 L 7.83 27.33 L 7.88 28.25 L 7.92 29.17 L 7.96 30.08 L 8.0 31.0" fill="none" stroke="#111" stroke-width="1.30" stroke-linecap="round" stroke-linejoin="round"/>
<path d="M 12.0 6.0 L 12.04 7.04 L 12.08 8.08 L 12.12 9.12 L 12.17 10.17 L 12.21 11.21 L 12.25 12.25 L 12.29 13.29 L 12.33 14.33 L 12.38 15.38 L 12.42 16.42 L 12.46 17.46 L 12.5 18.5 L 12.54 19.54 L 12.58 20.58 L 12.62 21.62 L 12.67 22.67 L 12.71 23.71 L 12.75 24.75 L 12.79 25.79 L 12.83 26.83 L 12.87 27.88 L 12.92 28.92 L 12.96 29.96 L 13.0 31.0" fill="none" stroke="#111" stroke-width="1.30" stroke-linecap="round" stroke-linejoin="round"/>
<path d="M 17.0 4.0 L 17.0 5.21 L 17.0 6.42 L 17.0 7.62 L 17.0 8.83 L 17.0 10.04 L 17.0 11.25 L 17.0 12.46 L 17.0 13.67 L 17.0 14.88 L 17.0 16.08 L 17.0 17.29 L 17.0 18.5 L 17.0 19.71 L 17.0 20.92 L 17.0 22.12 L 17.0 23.33 L 17.0 24.54 L 17.0 25.75 L 17.0 26.96 L 17.0 28.17 L 17.0 29.38 L 17.0 30.58 L 17.0 31.79 L 17.0 33.0" fill="none" stroke="#111" stroke-width="1.30" stroke-linecap="round" stroke-linejoin="round"/>
<path d="M 10.0 10.0 L 10.17 10.12 L 10.33 10.25 L 10.5 10.38 L 10.67 10.5 L 10.83 10.62 L 11.0 10.75 L 11.17 10.88 L 11.33 11.0 L 11.5 11.12 L 11.67 11.25 L 11.83 11.38 L 12.0 11.5 L 12.17 11.62 L 12.33 11.75 L 12.5 11.88 L 12.67 12.0 L 12.83 12.12 L 13.0 12.25 L 13.17 12.38 L 13.33 12.5 L 13.5 12.62 L 13.67 12.75 L 13.83 12.88 L 14.0 13.0" fill="none" stroke="#111" stroke-width="1.30" stroke-linecap="round" stroke-linejoin="round"/>
<path d="M 4.0 12.0 L 4.12 12.21 L 4.25 12.42 L 4.38 12.62 L 4.5 12.83 L 4.62 13.04 L 4.75 13.25 L 4.88 13.46 L 5.0 13.67 L 5.12 13.88 L 5.25 14.08 L 5.38 14.29 L 5.5 14.5 L 5.62 14.71 L 5.75 14.92 L 5.88 15.12 L 6.0 15.33 L 6.12 15.54 L 6.25 15.75 L 6.38 15.96 L 6.5 16.17 L 6.62 16.38 L 6.75 16.58 L 6.88 16.79 L 7.0 17.0 L 7.0 17.0 L 7.12 16.75 L 7.25 16.5 L 7.38 16.25 L 7.5 16.0 L 7.62 15.75 L 7.75 15.5 L 7.88 15.25 L 8.0 15.0 L 8.12 14.75 L 8.25 14.5 L 8.38 14.25 L 8.5 14.0 L 8.62 13.75 L 8.75 13.5 L 8.88 13.25 L 9.0 13.0 L 9.12 12.75 L 9.25 12.5 L 9.38 12.25 L 9.5 12.0 L 9.62 11.75 L 9.75 11.5 L 9.88 11.25 L 10.0 11.0" fill="none" stroke="#111" stroke-width="1.30" stroke-linecap="round" stroke-linejoin="round"/>
<path d="M 5.0 24.0 L 5.62 23.96 L 6.25 23.92 L 6.88 23.88 L 7.5 23.83 L 8.12 23.79 L 8.75 23.75 L 9.38 23.71 L 10.0 23.67 L 10.62 23.62 L 11.25 23.58 L 11.88 23.54 L 12.5 23.5 L 13.12 23.46 L 13.75 23.42 L 14.37 23.38 L 15.0 23.33 L 15.62 23.29 L 16.25 23.25 L 16.88 23.21 L 17.5 23.17 L 18.12 23.12 L 18.75 23.08 L 19.38 23.04 L 20.0 23.0" fill="none" stroke="#111" stroke-width="1.30" stroke-linecap="round" stroke-linejoin="round"/>
<path d="M 13.0 18.0 L 13.17 17.79 L 13.33 17.58 L 13.5 17.38 L 13.67 17.17 L 13.83 16.96 L 14.0 16.75 L 14.17 16.54 L 14.33 16.33 L 14.5 16.12 L 14.67 15.92 L 14.83 15.71 L 15.0 15.5 L 15.17 15.29 L 15.33 15.08 L 15.5 14.88 L 15.67 14.67 L 15.83 14.46 L 16.0 14.25 L 16.17 14.04 L 16.33 13.83 L 16.5 13.62 L 16.67 13.42 L 16.83 13.21 L 17.0 13.0 L 17.0 13.0 L 16.92 12.79 L 16.83 12.58 L 16.75 12.38 L 16.67 12.17 L 16.58 11.96 L 16.5 11.75 L 16.42 11.54 L 16.33 11.33 L 16.25 11.12 L 16.17 10.92 L 16.08 10.71 L 16.0 10.5 L 15.92 10.29 L 15.83 10.08 L 15.75 9.88 L 15.67 9.67 L 15.58 9.46 L 15.5 9.25 L 15.42 9.04 L 15.33 8.83 L 15.25 8.62 L 15.17 8.42 L 15.08 8.21 L 15.0 8.0" fill="none" stroke="#111" stroke-width="1.30" stroke-linecap="round" stroke-linejoin="round"/>
<path d="M 5.0 28.0 L 5.12 27.83 L 5.25 27.67 L 5.38 27.5 L 5.5 27.33 L 5.62 27.17 L 5.75 27.0 L 5.88 26.83 L 6.0 26.67 L 6.12 26.5 L 6.25 26.33 L 6.38 26.17 L 6.5 26.0 L 6.62 25.83 L 6.75 25.67 L 6.88 25.5 L 7.0 25.33 L 7.12 25.17 L 7.25 25.0 L 7.38 24.83 L 7.5 24.67 L 7.62 24.5 L 7.75 24.33 L 7.88 24.17 L 8.0 24.0 L 8.0 24.0 L 8.04 24.17 L 8.08 24.33 L 8.12 24.5 L 8.17 24.67 L 8.21 24.83 L 8.25 25.0 L 8.29 25.17 L 8.33 25.33 L 8.38 25.5 L 8.42 25.67 L 8.46 25.83 L 8.5 26.0 L 8.54 26.17 L 8.58 26.33 L 8.62 26.5 L 8.67 26.67 L 8.71 26.83 L 8.75 27.0 L 8.79 27.17 L 8.83 27.33 L 8.88 27.5 L 8.92 27.67 L 8.96 27.83 L 9.0 28.0" fill="none" stroke="#111" stroke-width="1.30" stroke-linecap="round" stroke-linejoin="round"/>
<path d="M 10.0 29.0 L 10.12 28.75 L 10.25 28.5 L 10.38 28.25 L 10.5 28.0 L 10.62 27.75 L 10.75 27.5 L 10.88 27.25 L 11.0 27.0 L 11.12 26.75 L 11.25 26.5 L 11.38 26.25 L 11.5 26.0 L 11.62 25.75 L 11.75 25.5 L 11.88 25.25 L 12.0 25.0 L 12.12 24.75 L 12.25 24.5 L 12.38 24.25 L 12.5 24.0 L 12.62 23.75 L 12.75 23.5 L 12.88 23.25 L 13.0 23.0 L 13.0 23.0 L 13.08 23.25 L 13.17 23.5 L 13.25 23.75 L 13.33 24.0 L 13.42 24.25 L 13.5 24.5 L 13.58 24.75 L 13.67 25.0 L 13.75 25.25 L 13.83 25.5 L 13.92 25.75 L 14.0 26.0 L 14.08 26.25 L 14.17 26.5 L 14.25 26.75 L 14.33 27.0 L 14.42 27.25 L 14.5 27.5 L 14.58 27.75 L 14.67 28.0 L 14.75 28.25 L 14.83 28.5 L 14.92 28.75 L 15.0 29.0" fill="none" stroke="#111" stroke-width="1.30" stroke-linecap="round" stroke-linejoin="round"/>
<path d="M 14.0 31.0 L 14.12 30.71 L 14.25 30.42 L 14.38 30.12 L 14.5 29.83 L 14.62 29.54 L 14.75 29.25 L 14.88 28.96 L 15.0 28.67 L 15.12 28.38 L 15.25 28.08 L 15.38 27.79 L 15.5 27.5 L 15.62 27.21 L 15.75 26.92 L 15.88 26.62 L 16.0 26.33 L 16.12 26.04 L 16.25 25.75 L 16.38 25.46 L 16.5 25.17 L 16.62 24.88 L 16.75 24.58 L 16.88 24.29 L 17.0 24.0 L 17.0 24.0 L 17.17 24.21 L 17.33 24.42 L 17.5 24.62 L 17.67 24.83 L 17.83 25.04 L 18.0 25.25 L 18.17 25.46 L 18.33 25.67 L 18.5 25.88 L 18.67 26.08 L 18.83 26.29 L 19.0 26.5 L 19.17 26.71 L 19.33 26.92 L 19.5 27.12 L 19.67 27.33 L 19.83 27.54 L 20.0 27.75 L 20.17 27.96 L 20.33 28.17 L 20.5 28.38 L 20.67 28.58 L 20.83 28.79 L 21.0 29.0" fill="none" stroke="#111" stroke-width="1.30" stroke-linecap="round" stroke-linejoin="round"/>
<path d="M 17.0 15.0 L 17.17 14.83 L 17.33 14.67 L 17.5 14.5 L 17.67 14.33 L 17.83 14.17 L 18.0 14.0 L 18.17 13.83 L 18.33 13.67 L 18.5 13.5 L 18.67 13.33 L 18.83 13.17 L 19.0 13.0 L 19.17 12.83 L 19.33 12.67 L 19.5 12.5 L 19.67 12.33 L 19.83 12.17 L 20.0 12.0 L 20.17 11.83 L 20.33 11.67 L 20.5 11.5 L 20.67 11.33 L 20.83 11.17 L 21.0 11.0" fill="none" stroke="#111" stroke-width="1.30" stroke-linecap="round" stroke-linejoin="round"/>
</svg>
