<?xml version="1.0" encoding="UTF-8"?>
<svg xmlns="http://www.w3.org/2000/svg" viewBox="0 0 25.13 38.00">
<path d="M 4.0 10.0 L 4.17 10.46 L 4.33 10.92 L 4.5 11.38 L 4.67 11.83 L 4.83 12.29 L 5.0 12.75 L 5.17 13.21 L 5.33 13.67 L 5.5 14.12 L 5.67 14.58 L 5.83 15.04 L 6.0 15.5 L 6.17 15.96 L 6.33 16.42 L 6.5 16.88 L 6.67 17.33 L 6.83 17.79 L 7.0 18.25 L 7.17 18.71 L 7.33 19.17 L 7.5 19.62 L 7.67 20.08 L 7.83 20.54 L 8.0 21.0 L 8.0 21.0 L 7.67 21.38 L 7.37 21.79 L 7.09 22.2 L 6.83 22.63 L 6.59 23.08 L 6.38 23.53 L 6.19 24.0 L 6.02 24.48 L 5.89 24.96 L 5.77 25.45 L 5.69 25.95 L 5.63 26.45 L 5.6 26.95 L 5.59 27.46 L 5.61 27.96 L 5.66 28.46 L 5.74 28.96 L 5.84 29.45 L 5.96 29.94 L 6.12 30.42 L 6.3 30.89 L 6.5 31.35 L 6.73 31.8 L 6.98 32.24" fill="none" stroke="#111" stroke-width="1.33" stroke-linecap="round" stroke-linejoin="round"/>
<path d="M 7.0 4.0 L 6.35 5.22 L 5.92 6.53 L 5.74 7.9 L 5.8 9.28 L 6.11 10.62 L 6.65 11.89 L 7.41 13.04 L 8.37 14.04 L 9.48 14.85 L 10.73 15.45 L 12.06 15.82 L 13.43 15.94 L 14.81 15.82 L 16.14 15.45 L 17.38 14.85 L 18.5 14.04 L 19.45 13.04 L 20.22 11.89 L 20.76 10.62 L 21.07 9.28 L 21.13 7.9 L 20.95 6.53 L 20.52 5.22 L 19.87 4.0" fill="none" stroke="#111" stroke-width="1.33" stroke-linecap="round" stroke-linejoin="round"/>
<path d="M 7.0 7.0 L 7.46 6.96 L 7.92 6.92 L 8.38 6.88 L 8.83 6.83 L 9.29 6.79 L 9.75 6.75 L 10.21 6.71 L 10.67 6.67 L 11.12 6.62 L 11.58 6.58 L 12.04 6.54 L 12.5 6.5 L 12.96 6.46 L 13.42 6.42 L 13.88 6.38 L 14.33 6.33 L 14.79 6.29 L 15.25 6.25 L 15.71 6.21 L 16.17 6.17 L 16.62 6.12 L 17.08 6.08 L 17.54 6.04 L 18.0 6.0" fill="none" stroke="#111" stroke-width="1.33" stroke-linecap="round" stroke-linejoin="round"/>
<path d="M 9.0 11.0 L 9.42 11.0 L 9.83 11.0 L 10.25 11.0 L 10.67 11.0 L 11.08 11.0 L 11.5 11.0 L 11.92 11.0 L 12.33 11.0 L 12.75 11.0 L 13.17 11.0 L 13.58 11.0 L 14.0 11.0 L 14.42 11.0 L 14.83 11.0 L 15.25 11.0 L 15.67 11.0 L 16.08 11.0 L 16.5 11.0 L 16.92 11.0 L 17.33 11.0 L 17.75 11.0 L 18.17 11.0 L 18.58 11.0 L 19.0 11.0" fill="none" stroke="#111" stroke-width="1.33" stroke-linecap="round" stroke-linejoin="round"/>
<path d="M 12.0 7.0 L 12.04 8.08 L 12.08 9.17 L 12.12 10.25 L 12.17 11.33 L 12.21 12.42 L 12.25 13.5 L 12.29 14.58 L 12.33 15.67 L 12.38 16.75 L 12.42 17.83 L 12.46 18.92 L 12.5 20.0 L 12.54 21.08 L 12.58 22.17 L 12.63 23.25 L 12.67 24.33 L 12.71 25.42 L 12.75 26.5 L 12.79 27.58 L 12.83 28.67 L 12.88 29.75 L 12.92 30.83 L 12.96 31.92 L 13.0 33.0" fill="none" stroke="#111" stroke-width="1.33" stroke-linecap="round" stroke-linejoin="round"/>
<path d="M 9.0 20.0 L 8.97 20.38 L 8.97 20.77 L 8.99 21.15 L 9.05 21.53 L 9.13 21.9 L 9.25 22.27 L 9.39 22.63 L 9.55 22.97 L 9.74 23.31 L 9.96 23.62 L 10.2 23.92 L 10.46 24.2 L 10.74 24.47 L 11.04 24.7 L 11.36 24.92 L 11.69 25.11 L 12.04 25.28 L 12.39 25.42 L 12.76 25.53 L 13.13 25.61 L 13.51 25.67 L 13.9 25.7 L 14.28 25.69 L 14.66 25.66 L 15.0 26.0 L 15.21 26.33 L 15.42 26.67 L 15.62 27.0 L 15.83 27.33 L 16.04 27.67 L 16.25 28.0 L 16.46 28.33 L 16.67 28.67 L 16.88 29.0 L 17.08 29.33 L 17.29 29.67 L 17.5 30.0 L 17.71 30.33 L 17.92 30.67 L 18.12 31.0 L 18.33 31.33 L 18.54 31.67 L 18.75 32.0 L 18.96 32.33 L 19.17 32.67 L 19.38 33.0 L 19.58 33.33 L 19.79 33.67 L 20.0 34.0" fill="none" stroke="#111" stroke-width="1.33" stroke-linecap="round" stroke-linejoin="round"/>
<path d="M 17.0 18.0 L 16.83 18.12 L 16.67 18.25 L 16.5 18.38 L 16.33 18.5 L 16.17 18.62 L 16.0 18.75 L 15.83 18.88 L 15.67 19.0 L 15.5 19.12 L 15.33 19.25 L 15.17 19.38 L 15.0 19.5 L 14.83 19.62 L 14.67 19.75 L 14.5 19.88 L 14.33 20.0 L 14.17 20.12 L 14.0 20.25 L 13.83 20.38 L 13.67 20.5 L 13.5 20.62 L 13.33 20.75 L 13.17 20.88 L 13.0 21.0" fill="none" stroke="#111" stroke-width="1.33" stroke-linecap="round" stroke-linejoin="round"/>
<path d="M 13.0 27.0 L 12.79 27.21 L 12.58 27.42 L 12.38 27.62 L 12.17 27.83 L 11.96 28.04 L 11.75 28.25 L 11.54 28.46 L 11.33 28.67 L 11.12 28.88 L 10.92 29.08 L 10.71 29.29 L 10.5 29.5 L 10.29 29.71 L 10.08 29.92 L 9.88 30.12 L 9.67 30.33 L 9.46 30.54 L 9.25 30.75 L 9.04 30.96 L 8.83 31.17 L 8.62 31.38 L 8.42 31.58 L 8.21 31.79 L 8.0 32.0" fill="none" stroke="#111" stroke-width="1.33" stroke-linecap="round" stroke-linejoin="round"/>
</svg>
