<?xml version="1.0" encoding="UTF-8"?>
<svg xmlns="http://www.w3.org/2000/svg" viewBox="0 0 25.33 39.00">
<path d="M 10.24 4.0 L 10.58 4.0 L 10.92 4.03 L 11.25 4.1 L 11.58 4.2 L 11.89 4.32 L 12.2 4.48 L 12.48 4.67 L 12.75 4.88 L 12.99 5.12 L 13.21 5.37 L 13.4 5.65 L 13.57 5.95 L 13.71 6.26 L 13.82 6.58 L 13.89 6.92 L 13.93 7.25 L 13.94 7.59 L 13.92 7.93 L 13.87 8.27 L 13.78 8.6 L 13.66 8.92 L 13.51 9.22 L 13.34 9.51 L 13.13 9.78" fill="none" stroke="#111" stroke-width="1.37" stroke-linecap="round" stroke-linejoin="round"/>
<path d="M 11.24 5.0 L 11.2 5.17 L 11.16 5.33 L 11.12 5.5 L 11.08 5.67 L 11.03 5.83 L 10.99 6.0 L 10.95 6.17 L 10.91 6.33 L 10.87 6.5 L 10.83 6.67 L 10.78 6.83 L 10.74 7.0 L 10.7 7.17 L 10.66 7.33 L 10.62 7.5 L 10.58 7.67 L 10.53 7.83 L 10.49 8.0 L 10.45 8.17 L 10.41 8.33 L 10.37 8.5 L 10.33 8.67 L 10.28 8.83 L 10.24 9.0" fill="none" stroke="#111" stroke-width="1.37" stroke-linecap="round" stroke-linejoin="round"/>
<path d="M 9.24 11.0 L 9.12 11.23 L 9.03 11.47 L 8.96 11.71 L 8.91 11.97 L 8.89 12.22 L 8.89 12.48 L 8.92 12.73 L 8.97 12.98 L 9.05 13.23 L 9.15 13.47 L 9.27 13.69 L 9.41 13.9 L 9.58 14.1 L 9.76 14.28 L 9.96 14.44 L 10.17 14.59 L 10.4 14.71 L 10.64 14.8 L 10.88 14.88 L 11.13 14.93 L 11.39 14.95 L 11.65 14.95 L 11.9 14.93 L 12.15 14.88" fill="none" stroke="#111" stroke-width="1.37" stroke-linecap="round" stroke-linejoin="round"/>
<path d="M 14.24 11.0 L 14.35 11.19 L 14.45 11.38 L 14.53 11.59 L 14.59 11.8 L 14.63 12.01 L 14.65 12.23 L 14.65 12.45 L 14.64 12.66 L 14.61 12.88 L 14.55 13.09 L 14.48 13.3 L 14.39 13.5 L 14.29 13.69 L 14.16 13.87 L 14.03 14.04 L 13.87 14.19 L 13.71 14.34 L 13.53 14.46 L 13.35 14.58 L 13.15 14.67 L 12.95 14.75 L 12.74 14.81 L 12.52 14.85 L 12.31 14.87" fill="none" stroke="#111" stroke-width="1.37" stroke-linecap="round" stroke-linejoin="round"/>
<path d="M 9.24 12.0 L 9.45 12.0 L 9.66 12.0 L 9.87 12.0 L 10.08 12.0 L 10.28 12.0 L 10.49 12.0 L 10.7 12.0 L 10.91 12.0 L 11.12 12.0 L 11.33 12.0 L 11.53 12.0 L 11.74 12.0 L 11.95 12.0 L 12.16 12.0 L 12.37 12.0 L 12.58 12.0 L 12.78 12.0 L 12.99 12.0 L 13.2 12.0 L 13.41 12.0 L 13.62 12.0 L 13.83 12.0 L 14.03 12.0 L 14.24 12.0" fill="none" stroke="#111" stroke-width="1.37" stroke-linecap="round" stroke-linejoin="round"/>
<path d="M 6.24 6.0 L 6.06 6.24 L 5.89 6.49 L 5.75 6.76 L 5.63 7.03 L 5.54 7.32 L 5.47 7.61 L 5.43 7.91 L 5.41 8.21 L 5.41 8.51 L 5.45 8.81 L 5.51 9.11 L 5.59 9.4 L 5.7 9.68 L 5.83 9.95 L 5.98 10.21 L 6.16 10.46 L 6.35 10.69 L 6.57 10.9 L 6.8 11.09 L 7.04 11.26 L 7.31 11.42 L 7.58 11.54 L 7.86 11.65 L 8.15 11.73" fill="none" stroke="#111" stroke-width="1.37" stroke-linecap="round" stroke-linejoin="round"/>
<path d="M 6.24 8.0 L 6.33 8.08 L 6.41 8.17 L 6.49 8.25 L 6.58 8.33 L 6.66 8.42 L 6.74 8.5 L 6.83 8.58 L 6.91 8.67 L 6.99 8.75 L 7.08 8.83 L 7.16 8.92 L 7.24 9.0 L 7.33 9.08 L 7.41 9.17 L 7.49 9.25 L 7.58 9.33 L 7.66 9.42 L 7.74 9.5 L 7.83 9.58 L 7.91 9.67 L 7.99 9.75 L 8.08 9.83 L 8.16 9.92 L 8.24 10.0" fill="none" stroke="#111" stroke-width="1.37" stroke-linecap="round" stroke-linejoin="round"/>
<path d="M 17.24 4.0 L 17.33 4.29 L 17.41 4.58 L 17.47 4.87 L 17.53 5.17 L 17.57 5.47 L 17.6 5.77 L 17.62 6.07 L 17.63 6.37 L 17.63 6.67 L 17.62 6.97 L 17.59 7.27 L 17.55 7.57 L 17.51 7.87 L 17.45 8.17 L 17.37 8.46 L 17.29 8.75 L 17.2 9.04 L 17.1 9.32 L 16.98 9.6 L 16.86 9.87 L 16.72 10.14 L 16.58 10.41 L 16.42 10.66 L 16.25 10.92" fill="none" stroke="#111" stroke-width="1.37" stroke-linecap="round" stroke-linejoin="round"/>
<path d="M 17.24 6.0 L 17.16 6.04 L 17.08 6.08 L 16.99 6.12 L 16.91 6.17 L 16.83 6.21 L 16.74 6.25 L 16.66 6.29 L 16.58 6.33 L 16.49 6.38 L 16.41 6.42 L 16.33 6.46 L 16.24 6.5 L 16.16 6.54 L 16.08 6.58 L 15.99 6.62 L 15.91 6.67 L 15.83 6.71 L 15.74 6.75 L 15.66 6.79 L 15.58 6.83 L 15.49 6.88 L 15.41 6.92 L 15.33 6.96 L 15.24 7.0" fill="none" stroke="#111" stroke-width="1.37" stroke-linecap="round" stroke-linejoin="round"/>
<path d="M 9.24 17.0 L 9.24 17.38 L 9.24 17.75 L 9.24 18.12 L 9.24 18.5 L 9.24 18.88 L 9.24 19.25 L 9.24 19.62 L 9.24 20.0 L 9.24 20.38 L 9.24 20.75 L 9.24 21.12 L 9.24 21.5 L 9.24 21.88 L 9.24 22.25 L 9.24 22.62 L 9.24 23.0 L 9.24 23.38 L 9.24 23.75 L 9.24 24.12 L 9.24 24.5 L 9.24 24.88 L 9.24 25.25 L 9.24 25.62 L 9.24 26.0 L 9.24 26.0 L 9.37 26.04 L 9.49 26.08 L 9.62 26.12 L 9.74 26.17 L 9.87 26.21 L 9.99 26.25 L 10.12 26.29 L 10.24 26.33 L 10.37 26.38 L 10.49 26.42 L 10.62 26.46 L 10.74 26.5 L 10.87 26.54 L 10.99 26.58 L 11.12 26.62 L 11.24 26.67 L 11.37 26.71 L 11.49 26.75 L 11.62 26.79 L 11.74 26.83 L 11.87 26.88 L 11.99 26.92 L 12.12 26.96 L 12.24 27.0" fill="none" stroke="#111" stroke-width="1.37" stroke-linecap="round" stroke-linejoin="round"/>
<path d="M 15.24 17.0 L 15.51 17.4 L 15.75 17.82 L 15.96 18.26 L 16.13 18.71 L 16.27 19.17 L 16.37 19.65 L 16.43 20.13 L 16.46 20.61 L 16.45 21.09 L 16.4 21.57 L 16.32 22.05 L 16.19 22.52 L 16.04 22.97 L 15.85 23.42 L 15.62 23.85 L 15.36 24.25 L 15.08 24.64 L 14.76 25.01 L 14.42 25.35 L 14.05 25.66 L 13.65 25.94 L 13.24 26.19 L 12.81 26.41 L 12.36 26.6" fill="none" stroke="#111" stroke-width="1.37" stroke-linecap="round" stroke-linejoin="round"/>
<path d="M 9.24 17.0 L 9.49 17.0 L 9.74 17.0 L 9.99 17.0 L 10.24 17.0 L 10.49 17.0 L 10.74 17.0 L 10.99 17.0 L 11.24 17.0 L 11.49 17.0 L 11.74 17.0 L 11.99 17.0 L 12.24 17.0 L 12.49 17.0 L 12.74 17.0 L 12.99 17.0 L 13.24 17.0 L 13.49 17.0 L 13.74 17.0 L 13.99 17.0 L 14.24 17.0 L 14.49 17.0 L 14.74 17.0 L 14.99 17.0 L 15.24 17.0" fill="none" stroke="#111" stroke-width="1.37" stroke-linecap="round" stroke-linejoin="round"/>
<path d="M 9.24 20.0 L 9.45 20.0 L 9.66 20.0 L 9.87 20.0 L 10.08 20.0 L 10.28 20.0 L 10.49 20.0 L 10.7 20.0 L 10.91 20.0 L 11.12 20.0 L 11.33 20.0 L 11.53 20.0 L 11.74 20.0 L 11.95 20.0 L 12.16 20.0 L 12.37 20.0 L 12.58 20.0 L 12.78 20.0 L 12.99 20.0 L 13.2 20.0 L 13.41 20.0 L 13.62 20.0 L 13.83 20.0 L 14.03 20.0 L 14.24 20.0" fill="none" stroke="#111" stroke-width="1.37" stroke-linecap="round" stroke-linejoin="round"/>
<path d="M 9.24 22.0 L 9.45 22.0 L 9.66 22.0 L 9.87 22.0 L 10.08 22.0 L 10.28 22.0 L 10.49 22.0 L 10.7 22.0 L 10.91 22.0 L 11.12 22.0 L 11.33 22.0 L 11.53 22.0 L 11.74 22.0 L 11.95 22.0 L 12.16 22.0 L 12.37 22.0 L 12.58 22.0 L 12.78 22.0 L 12.99 22.0 L 13.2 22.0 L 13.41 22.0 L 13.62 22.0 L 13.83 22.0 L 14.03 22.0 L 14.24 22.0" fill="none" stroke="#111" stroke-width="1.37" stroke-linecap="round" stroke-linejoin="round"/>
<path d="M 5.24 15.0 L 4.99 15.42 L 4.76 15.86 L 4.57 16.31 L 4.4 16.78 L 4.26 17.25 L 4.15 17.73 L 4.07 18.22 L 4.02 18.71 L 4.0 19.2 L 4.01 19.69 L 4.05 20.18 L 4.13 20.67 L 4.23 21.15 L 4.36 21.62 L 4.53 22.09 L 4.72 22.54 L 4.94 22.99 L 5.18 23.41 L 5.45 23.82 L 5.75 24.22 L 6.07 24.59 L 6.42 24.94 L 6.78 25.27 L 7.17 25.58" fill="none" stroke="#111" stroke-width="1.37" stroke-linecap="round" stroke-linejoin="round"/>
<path d="M 5.24 20.0 L 5.33 20.08 L 5.41 20.17 L 5.49 20.25 L 5.58 20.33 L 5.66 20.42 L 5.74 20.5 L 5.83 20.58 L 5.91 20.67 L 5.99 20.75 L 6.08 20.83 L 6.16 20.92 L 6.24 21.0 L 6.33 21.08 L 6.41 21.17 L 6.49 21.25 L 6.58 21.33 L 6.66 21.42 L 6.74 21.5 L 6.83 21.58 L 6.91 21.67 L 6.99 21.75 L 7.08 21.83 L 7.16 21.92 L 7.24 22.0" fill="none" stroke="#111" stroke-width="1.37" stroke-linecap="round" stroke-linejoin="round"/>
<path d="M 19.24 14.0 L 19.68 14.53 L 20.07 15.09 L 20.41 15.69 L 20.7 16.31 L 20.94 16.95 L 21.13 17.61 L 21.25 18.29 L 21.32 18.97 L 21.33 19.66 L 21.29 20.34 L 21.18 21.02 L 21.02 21.69 L 20.81 22.34 L 20.54 22.97 L 20.21 23.57 L 19.84 24.15 L 19.42 24.69 L 18.96 25.2 L 18.45 25.66 L 17.91 26.08 L 17.34 26.46 L 16.73 26.78 L 16.1 27.05 L 15.45 27.27" fill="none" stroke="#111" stroke-width="1.37" stroke-linecap="round" stroke-linejoin="round"/>
<path d="M 19.24 17.0 L 19.12 17.08 L 18.99 17.17 L 18.87 17.25 L 18.74 17.33 L 18.62 17.42 L 18.49 17.5 L 18.37 17.58 L 18.24 17.67 L 18.12 17.75 L 17.99 17.83 L 17.87 17.92 L 17.74 18.0 L 17.62 18.08 L 17.49 18.17 L 17.37 18.25 L 17.24 18.33 L 17.12 18.42 L 16.99 18.5 L 16.87 18.58 L 16.74 18.67 L 16.62 18.75 L 16.49 18.83 L 16.37 18.92 L 16.24 19.0" fill="none" stroke="#111" stroke-width="1.37" stroke-linecap="round" stroke-linejoin="round"/>
<path d="M 19.24 22.0 L 19.12 22.08 L 18.99 22.17 L 18.87 22.25 L 18.74 22.33 L 18.62 22.42 L 18.49 22.5 L 18.37 22.58 L 18.24 22.67 L 18.12 22.75 L 17.99 22.83 L 17.87 22.92 L 17.74 23.0 L 17.62 23.08 L 17.49 23.17 L 17.37 23.25 L 17.24 23.33 L 17.12 23.42 L 16.99 23.5 L 16.87 23.58 L 16.74 23.67 L 16.62 23.75 L 16.49 23.83 L 16.37 23.92 L 16.24 24.0" fill="none" stroke="#111" stroke-width="1.37" stroke-linecap="round" stroke-linejoin="round"/>
<path d="M 8.24 30.0 L 8.24 30.21 L 8.24 30.42 L 8.24 30.62 L 8.24 30.83 L 8.24 31.04 L 8.24 31.25 L 8.24 31.46 L 8.24 31.67 L 8.24 31.88 L 8.24 32.08 L 8.24 32.29 L 8.24 32.5 L 8.24 32.71 L 8.24 32.92 L 8.24 33.12 L 8.24 33.33 L 8.24 33.54 L 8.24 33.75 L 8.24 33.96 L 8.24 34.17 L 8.24 34.38 L 8.24 34.58 L 8.24 34.79 L 8.24 35.0" fill="none" stroke="#111" stroke-width="1.37" stroke-linecap="round" stroke-linejoin="round"/>
<path d="M 8.24 30.0 L 8.53 30.0 L 8.83 30.0 L 9.12 30.0 L 9.41 30.0 L 9.7 30.0 L 9.99 30.0 L 10.28 30.0 L 10.58 30.0 L 10.87 30.0 L 11.16 30.0 L 11.45 30.0 L 11.74 30.0 L 12.03 30.0 L 12.33 30.0 L 12.62 30.0 L 12.91 30.0 L 13.2 30.0 L 13.49 30.0 L 13.78 30.0 L 14.08 30.0 L 14.37 30.0 L 14.66 30.0 L 14.95 30.0 L 15.24 30.0 L 15.24 30.0 L 15.24 30.21 L 15.24 30.42 L 15.24 30.62 L 15.24 30.83 L 15.24 31.04 L 15.24 31.25 L 15.24 31.46 L 15.24 31.67 L 15.24 31.88 L 15.24 32.08 L 15.24 32.29 L 15.24 32.5 L 15.24 32.71 L 15.24 32.92 L 15.24 33.12 L 15.24 33.33 L 15.24 33.54 L 15.24 33.75 L 15.24 33.96 L 15.24 34.17 L 15.24 34.38 L 15.24 34.58 L 15.24 34.79 L 15.24 35.0" fill="none" stroke="#111" stroke-width="1.37" stroke-linecap="round" stroke-linejoin="round"/>
<path d="M 9.24 32.0 L 9.45 32.0 L 9.66 32.0 L 9.87 32.0 L 10.08 32.0 L 10.28 32.0 L 10.49 32.0 L 10.7 32.0 L 10.91 32.0 L 11.12 32.0 L 11.33 32.0 L 11.53 32.0 L 11.74 32.0 L 11.95 32.0 L 12.16 32.0 L 12.37 32.0 L 12.58 32.0 L 12.78 32.0 L 12.99 32.0 L 13.2 32.0 L 13.41 32.0 L 13.62 32.0 L 13.83 32.0 L 14.03 32.0 L 14.24 32.0" fill="none" stroke="#111" stroke-width="1.37" stroke-linecap="round" stroke-linejoin="round"/>
<path d="M 12.24 30.0 L 12.24 30.17 L 12.24 30.33 L 12.24 30.5 L 12.24 30.67 L 12.24 30.83 L 12.24 31.0 L 12.24 31.17 L 12.24 31.33 L 12.24 31.5 L 12.24 31.67 L 12.24 31.83 L 12.24 32.0 L 12.24 32.17 L 12.24 32.33 L 12.24 32.5 L 12.24 32.67 L 12.24 32.83 L 12.24 33.0 L 12.24 33.17 L 12.24 33.33 L 12.24 33.5 L 12.24 33.67 L 12.24 33.83 L 12.24 34.0" fill="none" stroke="#111" stroke-width="1.37" stroke-linecap="round" stroke-linejoin="round"/>
<path d="M 8.24 35.0 L 8.53 35.0 L 8.83 35.0 L 9.12 35.0 L 9.41 35.0 L 9.7 35.0 L 9.99 35.0 L 10.28 35.0 L 10.58 35.0 L 10.87 35.0 L 11.16 35.0 L 11.45 35.0 L 11.74 35.0 L 12.03 35.0 L 12.33 35.0 L 12.62 35.0 L 12.91 35.0 L 13.2 35.0 L 13.49 35.0 L 13.78 35.0 L 14.08 35.0 L 14.37 35.0 L 14.66 35.0 L 14.95 35.0 L 15.24 35.0" fill="none" stroke="#111" stroke-width="1.37" stroke-linecap="round" stroke-linejoin="round"/>
</svg>
