<?xml version="1.0" encoding="UTF-8"?>
<svg xmlns="http://www.w3.org/2000/svg" viewBox="0 0 22.00 31.00">
<path d="M 4.0 4.0 L 4.0 4.67 L 4.0 5.33 L 4.0 6.0 L 4.0 6.67 L 4.0 7.33 L 4.0 8.0 L 4.0 8.67 L 4.0 9.33 L 4.0 10.0 L 4.0 10.67 L 4.0 11.33 L 4.0 12.0 L 4.0 12.67 L 4.0 13.33 L 4.0 14.0 L 4.0 14.67 L 4.0 15.33 L 4.0 16.0 L 4.0 16.67 L 4.0 17.33 L 4.0 18.0 L 4.0 18.67 L 4.0 19.33 L 4.0 20.0" fill="none" stroke="#111" stroke-width="1.09" stroke-linecap="round" stroke-linejoin="round"/>
<path d="M 4.0 4.0 L 4.25 4.0 L 4.5 4.0 L 4.75 4.0 L 5.0 4.0 L 5.25 4.0 L 5.5 4.0 L 5.75 4.0 L 6.0 4.0 L 6.25 4.0 L 6.5 4.0 L 6.75 4.0 L 7.0 4.0 L 7.25 4.0 L 7.5 4.0 L 7.75 4.0 L 8.0 4.0 L 8.25 4.0 L 8.5 4.0 L 8.75 4.0 L 9.0 4.0 L 9.25 4.0 L 9.5 4.0 L 9.75 4.0 L 10.0 4.0 L 10.0 4.0 L 10.0 4.67 L 10.0 5.33 L 10.0 6.0 L 10.0 6.67 L 10.0 7.33 L 10.0 8.0 L 10.0 8.67 L 10.0 9.33 L 10.0 10.0 L 10.0 10.67 L 10.0 11.33 L 10.0 12.0 L 10.0 12.67 L 10.0 13.33 L 10.0 14.0 L 10.0 14.67 L 10.0 15.33 L 10.0 16.0 L 10.0 16.67 L 10.0 17.33 L 10.0 18.0 L 10.0 18.67 L 10.0 19.33 L 10.0 20.0" fill="none" stroke="#111" stroke-width="1.09" stroke-linecap="round" stroke-linejoin="round"/>
<path d="M 4.0 20.0 L 4.25 20.0 L 4.5 20.0 L 4.75 20.0 L 5.0 20.0 L 5.25 20.0 L 5.5 20.0 L 5.75 20.0 L 6.0 20.0 L 6.25 20.0 L 6.5 20.0 L 6.75 20.0 L 7.0 20.0 L 7.25 20.0 L 7.5 20.0 L 7.75 20.0 L 8.0 20.0 L 8.25 20.0 L 8.5 20.0 L 8.75 20.0 L 9.0 20.0 L 9.25 20.0 L 9.5 20.0 L 9.75 20.0 L 10.0 20.0" fill="none" stroke="#111" stroke-width="1.09" stroke-linecap="round" stroke-linejoin="round"/>
<path d="M 7.0 15.0 L 7.46 15.0 L 7.92 15.0 L 8.38 15.0 L 8.83 15.0 L 9.29 15.0 L 9.75 15.0 L 10.21 15.0 L 10.67 15.0 L 11.12 15.0 L 11.58 15.0 L 12.04 15.0 L 12.5 15.0 L 12.96 15.0 L 13.42 15.0 L 13.88 15.0 L 14.33 15.0 L 14.79 15.0 L 15.25 15.0 L 15.71 15.0 L 16.17 15.0 L 16.62 15.0 L 17.08 15.0 L 17.54 15.0 L 18.0 15.0" fill="none" stroke="#111" stroke-width="1.09" stroke-linecap="round" stroke-linejoin="round"/>
<path d="M 17.0 11.0 L 16.3 11.3 L 15.63 11.65 L 15.0 12.07 L 14.41 12.54 L 13.86 13.07 L 13.36 13.64 L 12.92 14.25 L 12.53 14.9 L 12.21 15.59 L 11.95 16.3 L 11.75 17.03 L 11.62 17.78 L 11.57 18.54 L 11.57 19.29 L 11.65 20.05 L 11.8 20.79 L 12.01 21.52 L 12.29 22.22 L 12.63 22.9 L 13.03 23.54 L 13.49 24.15 L 14.0 24.71 L 14.56 25.22 L 15.17 25.68" fill="none" stroke="#111" stroke-width="1.09" stroke-linecap="round" stroke-linejoin="round"/>
<path d="M 12.0 27.0 L 12.25 27.0 L 12.5 27.0 L 12.75 27.0 L 13.0 27.0 L 13.25 27.0 L 13.5 27.0 L 13.75 27.0 L 14.0 27.0 L 14.25 27.0 L 14.5 27.0 L 14.75 27.0 L 15.0 27.0 L 15.25 27.0 L 15.5 27.0 L 15.75 27.0 L 16.0 27.0 L 16.25 27.0 L 16.5 27.0 L 16.75 27.0 L 17.0 27.0 L 17.25 27.0 L 17.5 27.0 L 17.75 27.0 L 18.0 27.0" fill="none" stroke="#111" stroke-width="1.09" stroke-linecap="round" stroke-linejoin="round"/>
</svg>
