<?xml version="1.0" encoding="UTF-8"?>
<svg xmlns="http://www.w3.org/2000/svg" viewBox="0 0 23.16 36.87">
<path d="M 6.0 5.7 L 6.0 5.91 L 6.0 6.12 L 6.0 6.33 L 6.0 6.54 L 6.0 6.74 L 6.0 6.95 L 6.0 7.16 L 6.0 7.37 L 6.0 7.58 L 6.0 7.79 L 6.0 7.99 L 6.0 8.2 L 6.0 8.41 L 6.0 8.62 L 6.0 8.83 L 6.0 9.04 L 6.0 9.24 L 6.0 9.45 L 6.0 9.66 L 6.0 9.87 L 6.0 10.08 L 6.0 10.29 L 6.0 10.49 L 6.0 10.7 L 6.0 10.7 L 6.46 11.02 L 6.96 11.28 L 7.49 11.47 L 8.04 11.6 L 8.6 11.65 L 9.16 11.63 L 9.72 11.54 L 10.26 11.38 L 10.77 11.15 L 11.25 10.86 L 11.7 10.51 L 12.09 10.11 L 12.43 9.66 L 12.7 9.17 L 12.92 8.65 L 13.06 8.1 L 13.14 7.55 L 13.14 6.98 L 13.08 6.43 L 12.94 5.88 L 12.73 5.36 L 12.46 4.86 L 12.13 4.41 L 11.74 4.0" fill="none" stroke="#111" stroke-width="1.29" stroke-linecap="round" stroke-linejoin="round"/>
<path d="M 7.0 7.7 L 7.17 7.66 L 7.33 7.62 L 7.5 7.58 L 7.67 7.54 L 7.83 7.49 L 8.0 7.45 L 8.17 7.41 L 8.33 7.37 L 8.5 7.33 L 8.67 7.29 L 8.83 7.24 L 9.0 7.2 L 9.17 7.16 L 9.33 7.12 L 9.5 7.08 L 9.67 7.04 L 9.83 6.99 L 10.0 6.95 L 10.17 6.91 L 10.33 6.87 L 10.5 6.83 L 10.67 6.79 L 10.83 6.74 L 11.0 6.7" fill="none" stroke="#111" stroke-width="1.29" stroke-linecap="round" stroke-linejoin="round"/>
<path d="M 9.0 11.7 L 9.0 12.58 L 9.0 13.45 L 9.0 14.33 L 9.0 15.2 L 9.0 16.08 L 9.0 16.95 L 9.0 17.83 L 9.0 18.7 L 9.0 19.58 L 9.0 20.45 L 9.0 21.33 L 9.0 22.2 L 9.0 23.08 L 9.0 23.95 L 9.0 24.83 L 9.0 25.7 L 9.0 26.58 L 9.0 27.45 L 9.0 28.33 L 9.0 29.2 L 9.0 30.08 L 9.0 30.95 L 9.0 31.83 L 9.0 32.7" fill="none" stroke="#111" stroke-width="1.29" stroke-linecap="round" stroke-linejoin="round"/>
<path d="M 8.0 13.7 L 7.85 13.82 L 7.71 13.94 L 7.57 14.07 L 7.43 14.21 L 7.3 14.35 L 7.18 14.49 L 7.06 14.64 L 6.94 14.79 L 6.84 14.95 L 6.74 15.11 L 6.64 15.28 L 6.55 15.45 L 6.47 15.62 L 6.39 15.8 L 6.33 15.97 L 6.26 16.15 L 6.21 16.34 L 6.16 16.52 L 6.12 16.71 L 6.09 16.89 L 6.06 17.08 L 6.04 17.27 L 6.03 17.46 L 6.02 17.65 L 6.0 17.7 L 6.27 17.93 L 6.57 18.13 L 6.88 18.3 L 7.21 18.44 L 7.55 18.54 L 7.9 18.61 L 8.26 18.64 L 8.61 18.64 L 8.97 18.6 L 9.32 18.52 L 9.66 18.41 L 9.98 18.27 L 10.29 18.09 L 10.59 17.89 L 10.85 17.66 L 11.1 17.4 L 11.31 17.11 L 11.5 16.81 L 11.66 16.49 L 11.78 16.15 L 11.87 15.81 L 11.92 15.45 L 11.94 15.1 L 11.92 14.74 L 12.0 14.7 L 11.92 14.66 L 11.83 14.62 L 11.75 14.58 L 11.67 14.54 L 11.58 14.49 L 11.5 14.45 L 11.42 14.41 L 11.33 14.37 L 11.25 14.33 L 11.17 14.29 L 11.08 14.24 L 11.0 14.2 L 10.92 14.16 L 10.83 14.12 L 10.75 14.08 L 10.67 14.04 L 10.58 13.99 L 10.5 13.95 L 10.42 13.91 L 10.33 13.87 L 10.25 13.83 L 10.17 13.79 L 10.08 13.74 L 10.0 13.7" fill="none" stroke="#111" stroke-width="1.29" stroke-linecap="round" stroke-linejoin="round"/>
<path d="M 9.0 19.7 L 8.88 19.74 L 8.75 19.79 L 8.62 19.83 L 8.5 19.87 L 8.38 19.91 L 8.25 19.95 L 8.12 19.99 L 8.0 20.04 L 7.88 20.08 L 7.75 20.12 L 7.62 20.16 L 7.5 20.2 L 7.38 20.24 L 7.25 20.29 L 7.12 20.33 L 7.0 20.37 L 6.88 20.41 L 6.75 20.45 L 6.62 20.49 L 6.5 20.54 L 6.38 20.58 L 6.25 20.62 L 6.12 20.66 L 6.0 20.7 L 6.0 20.7 L 5.99 20.88 L 5.98 21.05 L 5.98 21.22 L 5.99 21.4 L 5.99 21.57 L 6.01 21.74 L 6.02 21.91 L 6.04 22.09 L 6.07 22.26 L 6.1 22.43 L 6.14 22.6 L 6.18 22.77 L 6.22 22.93 L 6.27 23.1 L 6.32 23.27 L 6.38 23.43 L 6.44 23.59 L 6.51 23.75 L 6.58 23.91 L 6.65 24.07 L 6.73 24.22 L 6.81 24.37 L 6.9 24.52 L 6.99 24.67 L 7.0 24.7 L 7.32 24.86 L 7.66 24.99 L 8.0 25.09 L 8.35 25.16 L 8.71 25.19 L 9.07 25.19 L 9.42 25.16 L 9.78 25.1 L 10.12 25.0 L 10.46 24.87 L 10.78 24.72 L 11.09 24.53 L 11.38 24.32 L 11.65 24.08 L 11.89 23.82 L 12.11 23.54 L 12.31 23.24 L 12.47 22.92 L 12.61 22.59 L 12.71 22.25 L 12.79 21.9 L 12.83 21.54 L 12.84 21.18 L 12.82 20.82 L 13.0 20.7 L 12.83 20.66 L 12.67 20.62 L 12.5 20.58 L 12.33 20.54 L 12.17 20.49 L 12.0 20.45 L 11.83 20.41 L 11.67 20.37 L 11.5 20.33 L 11.33 20.29 L 11.17 20.24 L 11.0 20.2 L 10.83 20.16 L 10.67 20.12 L 10.5 20.08 L 10.33 20.04 L 10.17 19.99 L 10.0 19.95 L 9.83 19.91 L 9.67 19.87 L 9.5 19.83 L 9.33 19.79 L 9.17 19.74 L 9.0 19.7" fill="none" stroke="#111" stroke-width="1.29" stroke-linecap="round" stroke-linejoin="round"/>
<path d="M 4.0 28.7 L 4.15 28.22 L 4.34 27.76 L 4.59 27.32 L 4.89 26.92 L 5.22 26.55 L 5.6 26.21 L 6.01 25.93 L 6.45 25.69 L 6.92 25.49 L 7.4 25.36 L 7.9 25.27 L 8.4 25.25 L 8.9 25.27 L 9.4 25.36 L 9.88 25.49 L 10.34 25.69 L 10.78 25.93 L 11.2 26.21 L 11.57 26.55 L 11.91 26.92 L 12.21 27.32 L 12.45 27.76 L 12.65 28.22 L 12.8 28.7" fill="none" stroke="#111" stroke-width="1.29" stroke-linecap="round" stroke-linejoin="round"/>
<path d="M 16.0 11.7 L 15.83 12.4 L 15.68 13.09 L 15.53 13.79 L 15.41 14.5 L 15.3 15.2 L 15.2 15.91 L 15.12 16.62 L 15.05 17.33 L 15.0 18.05 L 14.96 18.76 L 14.94 19.48 L 14.93 20.19 L 14.94 20.9 L 14.96 21.62 L 15.0 22.33 L 15.05 23.05 L 15.12 23.76 L 15.2 24.47 L 15.3 25.18 L 15.41 25.88 L 15.53 26.58 L 15.68 27.29 L 15.83 27.98 L 16.0 28.68" fill="none" stroke="#111" stroke-width="1.29" stroke-linecap="round" stroke-linejoin="round"/>
<path d="M 14.0 8.7 L 14.86 9.51 L 15.65 10.38 L 16.37 11.31 L 17.02 12.29 L 17.59 13.33 L 18.07 14.4 L 18.47 15.51 L 18.78 16.64 L 19.0 17.8 L 19.13 18.97 L 19.16 20.15 L 19.11 21.32 L 18.96 22.49 L 18.72 23.64 L 18.39 24.78 L 17.98 25.88 L 17.47 26.94 L 16.89 27.96 L 16.23 28.94 L 15.49 29.86 L 14.68 30.71 L 13.81 31.51 L 12.88 32.23 L 11.9 32.87" fill="none" stroke="#111" stroke-width="1.29" stroke-linecap="round" stroke-linejoin="round"/>
<path d="M 17.0 16.7 L 17.0 16.87 L 17.0 17.04 L 17.0 17.2 L 17.0 17.37 L 17.0 17.54 L 17.0 17.7 L 17.0 17.87 L 17.0 18.04 L 17.0 18.2 L 17.0 18.37 L 17.0 18.54 L 17.0 18.7 L 17.0 18.87 L 17.0 19.04 L 17.0 19.2 L 17.0 19.37 L 17.0 19.54 L 17.0 19.7 L 17.0 19.87 L 17.0 20.04 L 17.0 20.2 L 17.0 20.37 L 17.0 20.54 L 17.0 20.7" fill="none" stroke="#111" stroke-width="1.29" stroke-linecap="round" stroke-linejoin="round"/>
</svg>
