<?xml version="1.0" encoding="UTF-8"?>
<svg xmlns="http://www.w3.org/2000/svg" viewBox="0 0 21.00 39.89">
<path d="M 11.0 4.0 L 11.0 4.5 L 11.0 5.0 L 11.0 5.5 L 11.0 6.0 L 11.0 6.5 L 11.0 7.0 L 11.0 7.5 L 11.0 8.0 L 11.0 8.5 L 11.0 9.0 L 11.0 9.5 L 11.0 10.0 L 11.0 10.5 L 11.0 11.0 L 11.0 11.5 L 11.0 12.0 L 11.0 12.5 L 11.0 13.0 L 11.0 13.5 L 11.0 14.0 L 11.0 14.5 L 11.0 15.0 L 11.0 15.5 L 11.0 16.0" fill="none" stroke="#111" stroke-width="1.40" stroke-linecap="round" stroke-linejoin="round"/>
<path d="M 8.0 6.0 L 8.13 6.21 L 8.25 6.42 L 8.38 6.62 L 8.5 6.83 L 8.63 7.04 L 8.75 7.25 L 8.88 7.46 L 9.0 7.67 L 9.13 7.88 L 9.25 8.08 L 9.38 8.29 L 9.5 8.5 L 9.63 8.71 L 9.75 8.92 L 9.88 9.12 L 10.0 9.33 L 10.13 9.54 L 10.25 9.75 L 10.38 9.96 L 10.5 10.17 L 10.63 10.38 L 10.75 10.58 L 10.88 10.79 L 11.0 11.0" fill="none" stroke="#111" stroke-width="1.40" stroke-linecap="round" stroke-linejoin="round"/>
<path d="M 16.0 5.0 L 15.79 5.25 L 15.58 5.5 L 15.38 5.75 L 15.17 6.0 L 14.96 6.25 L 14.75 6.5 L 14.54 6.75 L 14.33 7.0 L 14.13 7.25 L 13.92 7.5 L 13.71 7.75 L 13.5 8.0 L 13.29 8.25 L 13.08 8.5 L 12.88 8.75 L 12.67 9.0 L 12.46 9.25 L 12.25 9.5 L 12.04 9.75 L 11.83 10.0 L 11.63 10.25 L 11.42 10.5 L 11.21 10.75 L 11.0 11.0" fill="none" stroke="#111" stroke-width="1.40" stroke-linecap="round" stroke-linejoin="round"/>
<path d="M 13.0 17.0 L 12.63 17.25 L 12.25 17.5 L 11.88 17.75 L 11.5 18.0 L 11.13 18.25 L 10.75 18.5 L 10.38 18.75 L 10.0 19.0 L 9.63 19.25 L 9.25 19.5 L 8.88 19.75 L 8.5 20.0 L 8.12 20.25 L 7.75 20.5 L 7.38 20.75 L 7.0 21.0 L 6.63 21.25 L 6.25 21.5 L 5.88 21.75 L 5.5 22.0 L 5.13 22.25 L 4.75 22.5 L 4.38 22.75 L 4.0 23.0 L 4.0 23.0 L 4.28 23.49 L 4.53 23.98 L 4.77 24.49 L 4.99 25.0 L 5.19 25.52 L 5.37 26.05 L 5.52 26.58 L 5.66 27.13 L 5.78 27.67 L 5.88 28.22 L 5.95 28.77 L 6.0 29.33 L 6.04 29.89 L 6.05 30.44 L 6.04 31.0 L 6.0 31.56 L 5.95 32.12 L 5.88 32.67 L 5.78 33.22 L 5.66 33.76 L 5.53 34.31 L 5.37 34.84 L 5.19 35.37 L 4.99 35.89" fill="none" stroke="#111" stroke-width="1.40" stroke-linecap="round" stroke-linejoin="round"/>
<path d="M 5.0 19.0 L 5.21 19.0 L 5.42 19.0 L 5.63 19.0 L 5.83 19.0 L 6.04 19.0 L 6.25 19.0 L 6.46 19.0 L 6.67 19.0 L 6.88 19.0 L 7.08 19.0 L 7.29 19.0 L 7.5 19.0 L 7.71 19.0 L 7.92 19.0 L 8.13 19.0 L 8.33 19.0 L 8.54 19.0 L 8.75 19.0 L 8.96 19.0 L 9.17 19.0 L 9.38 19.0 L 9.58 19.0 L 9.79 19.0 L 10.0 19.0" fill="none" stroke="#111" stroke-width="1.40" stroke-linecap="round" stroke-linejoin="round"/>
<path d="M 10.0 19.0 L 9.92 19.25 L 9.83 19.5 L 9.75 19.75 L 9.67 20.0 L 9.58 20.25 L 9.5 20.5 L 9.42 20.75 L 9.33 21.0 L 9.25 21.25 L 9.17 21.5 L 9.08 21.75 L 9.0 22.0 L 8.92 22.25 L 8.83 22.5 L 8.75 22.75 L 8.67 23.0 L 8.58 23.25 L 8.5 23.5 L 8.42 23.75 L 8.33 24.0 L 8.25 24.25 L 8.17 24.5 L 8.08 24.75 L 8.0 25.0" fill="none" stroke="#111" stroke-width="1.40" stroke-linecap="round" stroke-linejoin="round"/>
<path d="M 11.0 23.0 L 11.0 23.5 L 11.0 24.0 L 11.0 24.5 L 11.0 25.0 L 11.0 25.5 L 11.0 26.0 L 11.0 26.5 L 11.0 27.0 L 11.0 27.5 L 11.0 28.0 L 11.0 28.5 L 11.0 29.0 L 11.0 29.5 L 11.0 30.0 L 11.0 30.5 L 11.0 31.0 L 11.0 31.5 L 11.0 32.0 L 11.0 32.5 L 11.0 33.0 L 11.0 33.5 L 11.0 34.0 L 11.0 34.5 L 11.0 35.0" fill="none" stroke="#111" stroke-width="1.40" stroke-linecap="round" stroke-linejoin="round"/>
<path d="M 11.0 28.0 L 10.83 28.17 L 10.67 28.33 L 10.5 28.5 L 10.33 28.67 L 10.17 28.83 L 10.0 29.0 L 9.83 29.17 L 9.67 29.33 L 9.5 29.5 L 9.33 29.67 L 9.17 29.83 L 9.0 30.0 L 8.83 30.17 L 8.67 30.33 L 8.5 30.5 L 8.33 30.67 L 8.17 30.83 L 8.0 31.0 L 7.83 31.17 L 7.67 31.33 L 7.5 31.5 L 7.33 31.67 L 7.17 31.83 L 7.0 32.0" fill="none" stroke="#111" stroke-width="1.40" stroke-linecap="round" stroke-linejoin="round"/>
<path d="M 11.0 28.0 L 11.25 28.17 L 11.5 28.33 L 11.75 28.5 L 12.0 28.67 L 12.25 28.83 L 12.5 29.0 L 12.75 29.17 L 13.0 29.33 L 13.25 29.5 L 13.5 29.67 L 13.75 29.83 L 14.0 30.0 L 14.25 30.17 L 14.5 30.33 L 14.75 30.5 L 15.0 30.67 L 15.25 30.83 L 15.5 31.0 L 15.75 31.17 L 16.0 31.33 L 16.25 31.5 L 16.5 31.67 L 16.75 31.83 L 17.0 32.0" fill="none" stroke="#111" stroke-width="1.40" stroke-linecap="round" stroke-linejoin="round"/>
</svg>
