<?xml version="1.0" encoding="UTF-8"?>
<svg xmlns="http://www.w3.org/2000/svg" viewBox="0 0 20.00 35.00">
<path d="M 4.0 11.0 L 4.0 11.79 L 4.0 12.58 L 4.0 13.38 L 4.0 14.17 L 4.0 14.96 L 4.0 15.75 L 4.0 16.54 L 4.0 17.33 L 4.0 18.12 L 4.0 18.92 L 4.0 19.71 L 4.0 20.5 L 4.0 21.29 L 4.0 22.08 L 4.0 22.88 L 4.0 23.67 L 4.0 24.46 L 4.0 25.25 L 4.0 26.04 L 4.0 26.83 L 4.0 27.62 L 4.0 28.42 L 4.0 29.21 L 4.0 30.0" fill="none" stroke="#111" stroke-width="1.23" stroke-linecap="round" stroke-linejoin="round"/>
<path d="M 16.0 10.0 L 16.0 10.88 L 16.0 11.75 L 16.0 12.62 L 16.0 13.5 L 16.0 14.38 L 16.0 15.25 L 16.0 16.12 L 16.0 17.0 L 16.0 17.88 L 16.0 18.75 L 16.0 19.62 L 16.0 20.5 L 16.0 21.38 L 16.0 22.25 L 16.0 23.12 L 16.0 24.0 L 16.0 24.88 L 16.0 25.75 L 16.0 26.62 L 16.0 27.5 L 16.0 28.38 L 16.0 29.25 L 16.0 30.12 L 16.0 31.0" fill="none" stroke="#111" stroke-width="1.23" stroke-linecap="round" stroke-linejoin="round"/>
<path d="M 5.0 17.0 L 5.42 17.0 L 5.83 17.0 L 6.25 17.0 L 6.67 17.0 L 7.08 17.0 L 7.5 17.0 L 7.92 17.0 L 8.33 17.0 L 8.75 17.0 L 9.17 17.0 L 9.58 17.0 L 10.0 17.0 L 10.42 17.0 L 10.83 17.0 L 11.25 17.0 L 11.67 17.0 L 12.08 17.0 L 12.5 17.0 L 12.92 17.0 L 13.33 17.0 L 13.75 17.0 L 14.17 17.0 L 14.58 17.0 L 15.0 17.0" fill="none" stroke="#111" stroke-width="1.23" stroke-linecap="round" stroke-linejoin="round"/>
<path d="M 5.0 21.0 L 5.42 21.0 L 5.83 21.0 L 6.25 21.0 L 6.67 21.0 L 7.08 21.0 L 7.5 21.0 L 7.92 21.0 L 8.33 21.0 L 8.75 21.0 L 9.17 21.0 L 9.58 21.0 L 10.0 21.0 L 10.42 21.0 L 10.83 21.0 L 11.25 21.0 L 11.67 21.0 L 12.08 21.0 L 12.5 21.0 L 12.92 21.0 L 13.33 21.0 L 13.75 21.0 L 14.17 21.0 L 14.58 21.0 L 15.0 21.0" fill="none" stroke="#111" stroke-width="1.23" stroke-linecap="round" stroke-linejoin="round"/>
<path d="M 5.0 11.0 L 5.21 11.21 L 5.42 11.42 L 5.62 11.62 L 5.83 11.83 L 6.04 12.04 L 6.25 12.25 L 6.46 12.46 L 6.67 12.67 L 6.88 12.88 L 7.08 13.08 L 7.29 13.29 L 7.5 13.5 L 7.71 13.71 L 7.92 13.92 L 8.12 14.12 L 8.33 14.33 L 8.54 14.54 L 8.75 14.75 L 8.96 14.96 L 9.17 15.17 L 9.38 15.38 L 9.58 15.58 L 9.79 15.79 L 10.0 16.0 L 10.0 16.0 L 10.21 15.79 L 10.42 15.58 L 10.62 15.38 L 10.83 15.17 L 11.04 14.96 L 11.25 14.75 L 11.46 14.54 L 11.67 14.33 L 11.88 14.12 L 12.08 13.92 L 12.29 13.71 L 12.5 13.5 L 12.71 13.29 L 12.92 13.08 L 13.12 12.88 L 13.33 12.67 L 13.54 12.46 L 13.75 12.25 L 13.96 12.04 L 14.17 11.83 L 14.38 11.62 L 14.58 11.42 L 14.79 11.21 L 15.0 11.0" fill="none" stroke="#111" stroke-width="1.23" stroke-linecap="round" stroke-linejoin="round"/>
<path d="M 5.0 26.0 L 5.22 25.48 L 5.49 24.99 L 5.81 24.53 L 6.18 24.11 L 6.6 23.74 L 7.06 23.41 L 7.55 23.14 L 8.06 22.92 L 8.6 22.76 L 9.15 22.66 L 9.71 22.62 L 10.27 22.65 L 10.83 22.73 L 11.37 22.88 L 11.89 23.09 L 12.39 23.35 L 12.85 23.67 L 13.27 24.03 L 13.66 24.44 L 13.99 24.89 L 14.27 25.38 L 14.5 25.89 L 14.67 26.43 L 14.78 26.98" fill="none" stroke="#111" stroke-width="1.23" stroke-linecap="round" stroke-linejoin="round"/>
<path d="M 11.0 4.0 L 10.96 4.42 L 10.92 4.83 L 10.88 5.25 L 10.83 5.67 L 10.79 6.08 L 10.75 6.5 L 10.71 6.92 L 10.67 7.33 L 10.62 7.75 L 10.58 8.17 L 10.54 8.58 L 10.5 9.0 L 10.46 9.42 L 10.42 9.83 L 10.38 10.25 L 10.33 10.67 L 10.29 11.08 L 10.25 11.5 L 10.21 11.92 L 10.17 12.33 L 10.12 12.75 L 10.08 13.17 L 10.04 13.58 L 10.0 14.0" fill="none" stroke="#111" stroke-width="1.23" stroke-linecap="round" stroke-linejoin="round"/>
<path d="M 10.0 9.0 L 9.83 8.88 L 9.67 8.75 L 9.5 8.62 L 9.33 8.5 L 9.17 8.38 L 9.0 8.25 L 8.83 8.12 L 8.67 8.0 L 8.5 7.88 L 8.33 7.75 L 8.17 7.62 L 8.0 7.5 L 7.83 7.38 L 7.67 7.25 L 7.5 7.12 L 7.33 7.0 L 7.17 6.88 L 7.0 6.75 L 6.83 6.62 L 6.67 6.5 L 6.5 6.38 L 6.33 6.25 L 6.17 6.12 L 6.0 6.0" fill="none" stroke="#111" stroke-width="1.23" stroke-linecap="round" stroke-linejoin="round"/>
</svg>
