<?xml version="1.0" encoding="UTF-8"?>
<svg xmlns="http://www.w3.org/2000/svg" viewBox="0 0 29.72 35.00">
<path d="M 10.0 5.0 L 10.04 6.0 L 10.08 7.0 L 10.12 8.0 L 10.17 9.0 L 10.21 10.0 L 10.25 11.0 L 10.29 12.0 L 10.33 13.0 L 10.38 14.0 L 10.42 15.0 L 10.46 16.0 L 10.5 17.0 L 10.54 18.0 L 10.58 19.0 L 10.62 20.0 L 10.67 21.0 L 10.71 22.0 L 10.75 23.0 L 10.79 24.0 L 10.83 25.0 L 10.88 26.0 L 10.92 27.0 L 10.96 28.0 L 11.0 29.0" fill="none" stroke="#111" stroke-width="1.23" stroke-linecap="round" stroke-linejoin="round"/>
<path d="M 6.0 21.0 L 6.17 21.29 L 6.33 21.58 L 6.5 21.88 L 6.67 22.17 L 6.83 22.46 L 7.0 22.75 L 7.17 23.04 L 7.33 23.33 L 7.5 23.62 L 7.67 23.92 L 7.83 24.21 L 8.0 24.5 L 8.17 24.79 L 8.33 25.08 L 8.5 25.38 L 8.67 25.67 L 8.83 25.96 L 9.0 26.25 L 9.17 26.54 L 9.33 26.83 L 9.5 27.12 L 9.67 27.42 L 9.83 27.71 L 10.0 28.0" fill="none" stroke="#111" stroke-width="1.23" stroke-linecap="round" stroke-linejoin="round"/>
<path d="M 4.0 31.0 L 4.25 30.62 L 4.5 30.25 L 4.75 29.88 L 5.0 29.5 L 5.25 29.12 L 5.5 28.75 L 5.75 28.38 L 6.0 28.0 L 6.25 27.62 L 6.5 27.25 L 6.75 26.88 L 7.0 26.5 L 7.25 26.12 L 7.5 25.75 L 7.75 25.38 L 8.0 25.0 L 8.25 24.62 L 8.5 24.25 L 8.75 23.88 L 9.0 23.5 L 9.25 23.12 L 9.5 22.75 L 9.75 22.38 L 10.0 22.0" fill="none" stroke="#111" stroke-width="1.23" stroke-linecap="round" stroke-linejoin="round"/>
<path d="M 12.0 21.0 L 12.29 21.38 L 12.58 21.75 L 12.88 22.12 L 13.17 22.5 L 13.46 22.88 L 13.75 23.25 L 14.04 23.62 L 14.33 24.0 L 14.62 24.38 L 14.92 24.75 L 15.21 25.12 L 15.5 25.5 L 15.79 25.88 L 16.08 26.25 L 16.38 26.62 L 16.67 27.0 L 16.96 27.38 L 17.25 27.75 L 17.54 28.12 L 17.83 28.5 L 18.12 28.88 L 18.42 29.25 L 18.71 29.62 L 19.0 30.0" fill="none" stroke="#111" stroke-width="1.23" stroke-linecap="round" stroke-linejoin="round"/>
<path d="M 14.0 18.0 L 14.2 18.44 L 14.38 18.9 L 14.54 19.36 L 14.67 19.83 L 14.77 20.31 L 14.85 20.79 L 14.91 21.28 L 14.94 21.77 L 14.94 22.26 L 14.92 22.75 L 14.87 23.23 L 14.79 23.72 L 14.69 24.2 L 14.57 24.67 L 14.42 25.13 L 14.24 25.59 L 14.04 26.04 L 13.82 26.47 L 13.58 26.9 L 13.31 27.31 L 13.02 27.7 L 12.71 28.08 L 12.39 28.44 L 12.04 28.79" fill="none" stroke="#111" stroke-width="1.23" stroke-linecap="round" stroke-linejoin="round"/>
<path d="M 14.0 4.0 L 13.83 4.83 L 13.7 5.67 L 13.63 6.52 L 13.61 7.37 L 13.63 8.22 L 13.71 9.06 L 13.85 9.9 L 14.03 10.73 L 14.26 11.55 L 14.54 12.35 L 14.87 13.13 L 15.24 13.9 L 15.66 14.64 L 16.13 15.35 L 16.63 16.03 L 17.18 16.68 L 17.76 17.3 L 18.38 17.88 L 19.04 18.42 L 19.72 18.92 L 20.44 19.38 L 21.18 19.79 L 21.94 20.16 L 22.73 20.49" fill="none" stroke="#111" stroke-width="1.23" stroke-linecap="round" stroke-linejoin="round"/>
<path d="M 18.0 4.0 L 17.86 4.7 L 17.76 5.41 L 17.71 6.12 L 17.7 6.83 L 17.73 7.54 L 17.81 8.25 L 17.94 8.95 L 18.11 9.65 L 18.32 10.33 L 18.57 10.99 L 18.86 11.64 L 19.2 12.27 L 19.57 12.88 L 19.98 13.47 L 20.43 14.02 L 20.91 14.55 L 21.42 15.05 L 21.96 15.51 L 22.53 15.94 L 23.13 16.33 L 23.75 16.69 L 24.39 17.0 L 25.04 17.28 L 25.72 17.51" fill="none" stroke="#111" stroke-width="1.23" stroke-linecap="round" stroke-linejoin="round"/>
<path d="M 15.0 7.0 L 15.17 6.96 L 15.33 6.92 L 15.5 6.88 L 15.67 6.83 L 15.83 6.79 L 16.0 6.75 L 16.17 6.71 L 16.33 6.67 L 16.5 6.62 L 16.67 6.58 L 16.83 6.54 L 17.0 6.5 L 17.17 6.46 L 17.33 6.42 L 17.5 6.38 L 17.67 6.33 L 17.83 6.29 L 18.0 6.25 L 18.17 6.21 L 18.33 6.17 L 18.5 6.12 L 18.67 6.08 L 18.83 6.04 L 19.0 6.0" fill="none" stroke="#111" stroke-width="1.23" stroke-linecap="round" stroke-linejoin="round"/>
<path d="M 17.0 17.0 L 17.17 16.88 L 17.33 16.75 L 17.5 16.62 L 17.67 16.5 L 17.83 16.38 L 18.0 16.25 L 18.17 16.12 L 18.33 16.0 L 18.5 15.88 L 18.67 15.75 L 18.83 15.62 L 19.0 15.5 L 19.17 15.38 L 19.33 15.25 L 19.5 15.12 L 19.67 15.0 L 19.83 14.88 L 20.0 14.75 L 20.17 14.62 L 20.33 14.5 L 20.5 14.38 L 20.67 14.25 L 20.83 14.12 L 21.0 14.0" fill="none" stroke="#111" stroke-width="1.23" stroke-linecap="round" stroke-linejoin="round"/>
<path d="M 19.0 19.0 L 19.12 18.88 L 19.25 18.75 L 19.38 18.62 L 19.5 18.5 L 19.62 18.38 L 19.75 18.25 L 19.88 18.12 L 20.0 18.0 L 20.12 17.88 L 20.25 17.75 L 20.38 17.62 L 20.5 17.5 L 20.62 17.38 L 20.75 17.25 L 20.88 17.12 L 21.0 17.0 L 21.12 16.88 L 21.25 16.75 L 21.38 16.62 L 21.5 16.5 L 21.62 16.38 L 21.75 16.25 L 21.88 16.12 L 22.0 16.0" fill="none" stroke="#111" stroke-width="1.23" stroke-linecap="round" stroke-linejoin="round"/>
</svg>
