<?xml version="1.0" encoding="UTF-8"?>
<svg xmlns="http://www.w3.org/2000/svg" viewBox="0 0 25.14 39.00">
<path d="M 10.14 9.0 L 10.51 9.21 L 10.87 9.45 L 11.21 9.7 L 11.54 9.98 L 11.84 10.28 L 12.13 10.59 L 12.39 10.93 L 12.64 11.28 L 12.86 11.64 L 13.06 12.02 L 13.23 12.41 L 13.38 12.81 L 13.5 13.22 L 13.59 13.64 L 13.66 14.06 L 13.71 14.48 L 13.72 14.91 L 13.71 15.33 L 13.67 15.76 L 13.6 16.18 L 13.51 16.6 L 13.39 17.01 L 13.25 17.41 L 13.08 17.8 L 13.14 18.0 L 13.14 18.71 L 13.14 19.42 L 13.14 20.12 L 13.14 20.83 L 13.14 21.54 L 13.14 22.25 L 13.14 22.96 L 13.14 23.67 L 13.14 24.38 L 13.14 25.08 L 13.14 25.79 L 13.14 26.5 L 13.14 27.21 L 13.14 27.92 L 13.14 28.62 L 13.14 29.33 L 13.14 30.04 L 13.14 30.75 L 13.14 31.46 L 13.14 32.17 L 13.14 32.88 L 13.14 33.58 L 13.14 34.29 L 13.14 35.0" fill="none" stroke="#111" stroke-width="1.37" stroke-linecap="round" stroke-linejoin="round"/>
<path d="M 9.14 21.0 L 9.35 21.21 L 9.56 21.42 L 9.77 21.62 L 9.98 21.83 L 10.19 22.04 L 10.39 22.25 L 10.6 22.46 L 10.81 22.67 L 11.02 22.88 L 11.23 23.08 L 11.44 23.29 L 11.64 23.5 L 11.85 23.71 L 12.06 23.92 L 12.27 24.12 L 12.48 24.33 L 12.69 24.54 L 12.89 24.75 L 13.1 24.96 L 13.31 25.17 L 13.52 25.38 L 13.73 25.58 L 13.94 25.79 L 14.14 26.0" fill="none" stroke="#111" stroke-width="1.37" stroke-linecap="round" stroke-linejoin="round"/>
<path d="M 13.14 20.0 L 13.48 19.62 L 13.81 19.25 L 14.14 18.88 L 14.48 18.5 L 14.81 18.12 L 15.14 17.75 L 15.48 17.38 L 15.81 17.0 L 16.14 16.62 L 16.48 16.25 L 16.81 15.88 L 17.14 15.5 L 17.48 15.12 L 17.81 14.75 L 18.14 14.38 L 18.48 14.0 L 18.81 13.62 L 19.14 13.25 L 19.48 12.88 L 19.81 12.5 L 20.14 12.12 L 20.48 11.75 L 20.81 11.38 L 21.14 11.0" fill="none" stroke="#111" stroke-width="1.37" stroke-linecap="round" stroke-linejoin="round"/>
<path d="M 7.14 33.0 L 7.39 32.49 L 7.68 32.0 L 8.01 31.54 L 8.39 31.12 L 8.81 30.74 L 9.27 30.4 L 9.76 30.11 L 10.27 29.87 L 10.8 29.68 L 11.35 29.54 L 11.91 29.46 L 12.48 29.43 L 13.05 29.46 L 13.61 29.54 L 14.16 29.68 L 14.69 29.87 L 15.2 30.11 L 15.69 30.4 L 16.14 30.74 L 16.56 31.12 L 16.94 31.54 L 17.28 32.0 L 17.57 32.49 L 17.81 33.0" fill="none" stroke="#111" stroke-width="1.37" stroke-linecap="round" stroke-linejoin="round"/>
<path d="M 10.14 7.0 L 10.14 7.21 L 10.14 7.42 L 10.14 7.62 L 10.14 7.83 L 10.14 8.04 L 10.14 8.25 L 10.14 8.46 L 10.14 8.67 L 10.14 8.88 L 10.14 9.08 L 10.14 9.29 L 10.14 9.5 L 10.14 9.71 L 10.14 9.92 L 10.14 10.12 L 10.14 10.33 L 10.14 10.54 L 10.14 10.75 L 10.14 10.96 L 10.14 11.17 L 10.14 11.38 L 10.14 11.58 L 10.14 11.79 L 10.14 12.0" fill="none" stroke="#111" stroke-width="1.37" stroke-linecap="round" stroke-linejoin="round"/>
<path d="M 6.14 4.0 L 5.72 4.2 L 5.34 4.49 L 5.02 4.84 L 4.77 5.24 L 4.61 5.69 L 4.54 6.16 L 4.56 6.63 L 4.67 7.09 L 4.86 7.53 L 5.14 7.91 L 5.48 8.24 L 5.89 8.49 L 6.33 8.66 L 6.8 8.74 L 7.27 8.73 L 7.73 8.63 L 8.17 8.44 L 8.56 8.17 L 8.89 7.83 L 9.15 7.43 L 9.33 6.99 L 9.42 6.53 L 9.41 6.05 L 9.32 5.59 L 8.14 5.0 L 8.1 4.96 L 8.06 4.92 L 8.02 4.88 L 7.98 4.83 L 7.94 4.79 L 7.89 4.75 L 7.85 4.71 L 7.81 4.67 L 7.77 4.62 L 7.73 4.58 L 7.69 4.54 L 7.64 4.5 L 7.6 4.46 L 7.56 4.42 L 7.52 4.38 L 7.48 4.33 L 7.44 4.29 L 7.39 4.25 L 7.35 4.21 L 7.31 4.17 L 7.27 4.12 L 7.23 4.08 L 7.19 4.04 L 7.14 4.0" fill="none" stroke="#111" stroke-width="1.37" stroke-linecap="round" stroke-linejoin="round"/>
<path d="M 17.14 7.0 L 16.79 7.19 L 16.48 7.44 L 16.2 7.73 L 15.98 8.07 L 15.81 8.43 L 15.71 8.82 L 15.67 9.22 L 15.69 9.62 L 15.78 10.01 L 15.93 10.38 L 16.14 10.72 L 16.4 11.03 L 16.7 11.29 L 17.04 11.5 L 17.42 11.65 L 17.81 11.73 L 18.21 11.76 L 18.61 11.72 L 18.99 11.61 L 19.36 11.45 L 19.69 11.22 L 19.99 10.95 L 20.23 10.63 L 20.43 10.28 L 19.14 9.0 L 19.06 8.92 L 18.98 8.83 L 18.89 8.75 L 18.81 8.67 L 18.73 8.58 L 18.64 8.5 L 18.56 8.42 L 18.48 8.33 L 18.39 8.25 L 18.31 8.17 L 18.23 8.08 L 18.14 8.0 L 18.06 7.92 L 17.98 7.83 L 17.89 7.75 L 17.81 7.67 L 17.73 7.58 L 17.64 7.5 L 17.56 7.42 L 17.48 7.33 L 17.39 7.25 L 17.31 7.17 L 17.23 7.08 L 17.14 7.0" fill="none" stroke="#111" stroke-width="1.37" stroke-linecap="round" stroke-linejoin="round"/>
<path d="M 9.14 15.0 L 8.93 15.26 L 8.77 15.56 L 8.67 15.89 L 8.64 16.22 L 8.67 16.56 L 8.77 16.89 L 8.93 17.19 L 9.14 17.45 L 9.41 17.66 L 9.71 17.83 L 10.03 17.92 L 10.37 17.96 L 10.71 17.92 L 11.03 17.83 L 11.33 17.66 L 11.59 17.45 L 11.81 17.19 L 11.97 16.89 L 12.07 16.56 L 12.1 16.22 L 12.07 15.89 L 11.97 15.56 L 11.81 15.26 L 11.59 15.0" fill="none" stroke="#111" stroke-width="1.37" stroke-linecap="round" stroke-linejoin="round"/>
<path d="M 17.14 21.0 L 17.19 21.21 L 17.23 21.42 L 17.27 21.62 L 17.31 21.83 L 17.35 22.04 L 17.39 22.25 L 17.44 22.46 L 17.48 22.67 L 17.52 22.88 L 17.56 23.08 L 17.6 23.29 L 17.64 23.5 L 17.69 23.71 L 17.73 23.92 L 17.77 24.12 L 17.81 24.33 L 17.85 24.54 L 17.89 24.75 L 17.94 24.96 L 17.98 25.17 L 18.02 25.38 L 18.06 25.58 L 18.1 25.79 L 18.14 26.0 L 18.14 26.0 L 18.27 25.88 L 18.39 25.75 L 18.52 25.62 L 18.64 25.5 L 18.77 25.38 L 18.89 25.25 L 19.02 25.12 L 19.14 25.0 L 19.27 24.88 L 19.39 24.75 L 19.52 24.62 L 19.64 24.5 L 19.77 24.38 L 19.89 24.25 L 20.02 24.12 L 20.14 24.0 L 20.27 23.88 L 20.39 23.75 L 20.52 23.62 L 20.64 23.5 L 20.77 23.38 L 20.89 23.25 L 21.02 23.12 L 21.14 23.0 L 21.14 23.0 L 21.02 22.92 L 20.89 22.83 L 20.77 22.75 L 20.64 22.67 L 20.52 22.58 L 20.39 22.5 L 20.27 22.42 L 20.14 22.33 L 20.02 22.25 L 19.89 22.17 L 19.77 22.08 L 19.64 22.0 L 19.52 21.92 L 19.39 21.83 L 19.27 21.75 L 19.14 21.67 L 19.02 21.58 L 18.89 21.5 L 18.77 21.42 L 18.64 21.33 L 18.52 21.25 L 18.39 21.17 L 18.27 21.08 L 18.14 21.0" fill="none" stroke="#111" stroke-width="1.37" stroke-linecap="round" stroke-linejoin="round"/>
<path d="M 7.14 23.0 L 6.59 22.94 L 6.04 23.01 L 5.51 23.18 L 5.03 23.47 L 4.63 23.85 L 4.31 24.31 L 4.1 24.82 L 4.0 25.37 L 4.02 25.93 L 4.16 26.47 L 4.41 26.96 L 4.76 27.4 L 5.19 27.75 L 5.69 28.0 L 6.23 28.13 L 6.78 28.16 L 7.33 28.06 L 7.85 27.85 L 8.31 27.53 L 8.69 27.12 L 8.97 26.65 L 9.15 26.12 L 9.21 25.56 L 9.16 25.01" fill="none" stroke="#111" stroke-width="1.37" stroke-linecap="round" stroke-linejoin="round"/>
</svg>
