<?xml version="1.0" encoding="UTF-8"?>
<svg xmlns="http://www.w3.org/2000/svg" viewBox="0 0 25.00 39.61">
<path d="M 4.0 10.0 L 4.71 9.96 L 5.42 9.92 L 6.12 9.88 L 6.83 9.83 L 7.54 9.79 L 8.25 9.75 L 8.96 9.71 L 9.67 9.67 L 10.38 9.62 L 11.08 9.58 L 11.79 9.54 L 12.5 9.5 L 13.21 9.46 L 13.92 9.42 L 14.62 9.38 L 15.33 9.33 L 16.04 9.29 L 16.75 9.25 L 17.46 9.21 L 18.17 9.17 L 18.88 9.12 L 19.58 9.08 L 20.29 9.04 L 21.0 9.0" fill="none" stroke="#111" stroke-width="1.39" stroke-linecap="round" stroke-linejoin="round"/>
<path d="M 7.0 6.0 L 7.04 6.04 L 7.08 6.08 L 7.12 6.12 L 7.17 6.17 L 7.21 6.21 L 7.25 6.25 L 7.29 6.29 L 7.33 6.33 L 7.38 6.38 L 7.42 6.42 L 7.46 6.46 L 7.5 6.5 L 7.54 6.54 L 7.58 6.58 L 7.62 6.62 L 7.67 6.67 L 7.71 6.71 L 7.75 6.75 L 7.79 6.79 L 7.83 6.83 L 7.88 6.88 L 7.92 6.92 L 7.96 6.96 L 8.0 7.0" fill="none" stroke="#111" stroke-width="1.39" stroke-linecap="round" stroke-linejoin="round"/>
<path d="M 11.0 4.0 L 11.0 4.12 L 11.0 4.25 L 11.0 4.38 L 11.0 4.5 L 11.0 4.62 L 11.0 4.75 L 11.0 4.88 L 11.0 5.0 L 11.0 5.12 L 11.0 5.25 L 11.0 5.38 L 11.0 5.5 L 11.0 5.62 L 11.0 5.75 L 11.0 5.88 L 11.0 6.0 L 11.0 6.12 L 11.0 6.25 L 11.0 6.38 L 11.0 6.5 L 11.0 6.62 L 11.0 6.75 L 11.0 6.88 L 11.0 7.0" fill="none" stroke="#111" stroke-width="1.39" stroke-linecap="round" stroke-linejoin="round"/>
<path d="M 16.0 5.0 L 16.0 5.04 L 16.0 5.08 L 16.0 5.12 L 16.0 5.17 L 16.0 5.21 L 16.0 5.25 L 16.0 5.29 L 16.0 5.33 L 16.0 5.38 L 16.0 5.42 L 16.0 5.46 L 16.0 5.5 L 16.0 5.54 L 16.0 5.58 L 16.0 5.62 L 16.0 5.67 L 16.0 5.71 L 16.0 5.75 L 16.0 5.79 L 16.0 5.83 L 16.0 5.88 L 16.0 5.92 L 16.0 5.96 L 16.0 6.0" fill="none" stroke="#111" stroke-width="1.39" stroke-linecap="round" stroke-linejoin="round"/>
<path d="M 8.0 12.0 L 7.92 12.12 L 7.83 12.25 L 7.75 12.38 L 7.67 12.5 L 7.58 12.62 L 7.5 12.75 L 7.42 12.88 L 7.33 13.0 L 7.25 13.12 L 7.17 13.25 L 7.08 13.38 L 7.0 13.5 L 6.92 13.62 L 6.83 13.75 L 6.75 13.88 L 6.67 14.0 L 6.58 14.12 L 6.5 14.25 L 6.42 14.38 L 6.33 14.5 L 6.25 14.62 L 6.17 14.75 L 6.08 14.88 L 6.0 15.0" fill="none" stroke="#111" stroke-width="1.39" stroke-linecap="round" stroke-linejoin="round"/>
<path d="M 11.0 12.0 L 11.04 12.08 L 11.08 12.17 L 11.12 12.25 L 11.17 12.33 L 11.21 12.42 L 11.25 12.5 L 11.29 12.58 L 11.33 12.67 L 11.38 12.75 L 11.42 12.83 L 11.46 12.92 L 11.5 13.0 L 11.54 13.08 L 11.58 13.17 L 11.62 13.25 L 11.67 13.33 L 11.71 13.42 L 11.75 13.5 L 11.79 13.58 L 11.83 13.67 L 11.88 13.75 L 11.92 13.83 L 11.96 13.92 L 12.0 14.0" fill="none" stroke="#111" stroke-width="1.39" stroke-linecap="round" stroke-linejoin="round"/>
<path d="M 17.0 11.0 L 17.08 11.08 L 17.17 11.17 L 17.25 11.25 L 17.33 11.33 L 17.42 11.42 L 17.5 11.5 L 17.58 11.58 L 17.67 11.67 L 17.75 11.75 L 17.83 11.83 L 17.92 11.92 L 18.0 12.0 L 18.08 12.08 L 18.17 12.17 L 18.25 12.25 L 18.33 12.33 L 18.42 12.42 L 18.5 12.5 L 18.58 12.58 L 18.67 12.67 L 18.75 12.75 L 18.83 12.83 L 18.92 12.92 L 19.0 13.0" fill="none" stroke="#111" stroke-width="1.39" stroke-linecap="round" stroke-linejoin="round"/>
<path d="M 8.0 16.0 L 8.08 16.25 L 8.17 16.5 L 8.25 16.75 L 8.33 17.0 L 8.42 17.25 L 8.5 17.5 L 8.58 17.75 L 8.67 18.0 L 8.75 18.25 L 8.83 18.5 L 8.92 18.75 L 9.0 19.0 L 9.08 19.25 L 9.17 19.5 L 9.25 19.75 L 9.33 20.0 L 9.42 20.25 L 9.5 20.5 L 9.58 20.75 L 9.67 21.0 L 9.75 21.25 L 9.83 21.5 L 9.92 21.75 L 10.0 22.0 L 10.0 22.0 L 10.43 22.17 L 10.88 22.3 L 11.34 22.39 L 11.8 22.43 L 12.27 22.43 L 12.73 22.39 L 13.19 22.3 L 13.64 22.17 L 14.07 22.0 L 14.48 21.79 L 14.88 21.54 L 15.24 21.25 L 15.58 20.93 L 15.89 20.58 L 16.16 20.21 L 16.4 19.8 L 16.6 19.38 L 16.75 18.94 L 16.87 18.49 L 16.94 18.03 L 16.96 17.57 L 16.95 17.1 L 16.89 16.64 L 16.78 16.19" fill="none" stroke="#111" stroke-width="1.39" stroke-linecap="round" stroke-linejoin="round"/>
<path d="M 8.0 18.0 L 8.33 17.96 L 8.67 17.92 L 9.0 17.88 L 9.33 17.83 L 9.67 17.79 L 10.0 17.75 L 10.33 17.71 L 10.67 17.67 L 11.0 17.62 L 11.33 17.58 L 11.67 17.54 L 12.0 17.5 L 12.33 17.46 L 12.67 17.42 L 13.0 17.38 L 13.33 17.33 L 13.67 17.29 L 14.0 17.25 L 14.33 17.21 L 14.67 17.17 L 15.0 17.12 L 15.33 17.08 L 15.67 17.04 L 16.0 17.0" fill="none" stroke="#111" stroke-width="1.39" stroke-linecap="round" stroke-linejoin="round"/>
<path d="M 11.0 22.0 L 11.0 22.12 L 11.0 22.25 L 11.0 22.38 L 11.0 22.5 L 11.0 22.62 L 11.0 22.75 L 11.0 22.88 L 11.0 23.0 L 11.0 23.12 L 11.0 23.25 L 11.0 23.38 L 11.0 23.5 L 11.0 23.62 L 11.0 23.75 L 11.0 23.88 L 11.0 24.0 L 11.0 24.12 L 11.0 24.25 L 11.0 24.38 L 11.0 24.5 L 11.0 24.62 L 11.0 24.75 L 11.0 24.88 L 11.0 25.0" fill="none" stroke="#111" stroke-width="1.39" stroke-linecap="round" stroke-linejoin="round"/>
<path d="M 14.0 22.0 L 14.0 22.17 L 14.0 22.33 L 14.0 22.5 L 14.0 22.67 L 14.0 22.83 L 14.0 23.0 L 14.0 23.17 L 14.0 23.33 L 14.0 23.5 L 14.0 23.67 L 14.0 23.83 L 14.0 24.0 L 14.0 24.17 L 14.0 24.33 L 14.0 24.5 L 14.0 24.67 L 14.0 24.83 L 14.0 25.0 L 14.0 25.17 L 14.0 25.33 L 14.0 25.5 L 14.0 25.67 L 14.0 25.83 L 14.0 26.0" fill="none" stroke="#111" stroke-width="1.39" stroke-linecap="round" stroke-linejoin="round"/>
<path d="M 7.0 26.0 L 7.84 24.99 L 8.88 24.18 L 10.06 23.61 L 11.34 23.3 L 12.65 23.27 L 13.94 23.52 L 15.15 24.03 L 16.22 24.79 L 17.11 25.75 L 17.78 26.88 L 18.19 28.13 L 18.33 29.44 L 18.19 30.74 L 17.78 31.99 L 17.11 33.12 L 16.22 34.09 L 15.15 34.85 L 13.94 35.36 L 12.65 35.61 L 11.34 35.57 L 10.06 35.26 L 8.88 34.69 L 7.84 33.89 L 7.0 32.88" fill="none" stroke="#111" stroke-width="1.39" stroke-linecap="round" stroke-linejoin="round"/>
<path d="M 10.0 27.0 L 10.17 27.21 L 10.33 27.42 L 10.5 27.62 L 10.67 27.83 L 10.83 28.04 L 11.0 28.25 L 11.17 28.46 L 11.33 28.67 L 11.5 28.88 L 11.67 29.08 L 11.83 29.29 L 12.0 29.5 L 12.17 29.71 L 12.33 29.92 L 12.5 30.12 L 12.67 30.33 L 12.83 30.54 L 13.0 30.75 L 13.17 30.96 L 13.33 31.17 L 13.5 31.38 L 13.67 31.58 L 13.83 31.79 L 14.0 32.0" fill="none" stroke="#111" stroke-width="1.39" stroke-linecap="round" stroke-linejoin="round"/>
<path d="M 10.0 31.0 L 10.29 30.88 L 10.58 30.75 L 10.88 30.62 L 11.17 30.5 L 11.46 30.38 L 11.75 30.25 L 12.04 30.12 L 12.33 30.0 L 12.62 29.88 L 12.92 29.75 L 13.21 29.62 L 13.5 29.5 L 13.79 29.38 L 14.08 29.25 L 14.38 29.12 L 14.67 29.0 L 14.96 28.88 L 15.25 28.75 L 15.54 28.62 L 15.83 28.5 L 16.12 28.38 L 16.42 28.25 L 16.71 28.12 L 17.0 28.0" fill="none" stroke="#111" stroke-width="1.39" stroke-linecap="round" stroke-linejoin="round"/>
</svg>
