<?xml version="1.0" encoding="UTF-8"?>
<svg xmlns="http://www.w3.org/2000/svg" viewBox="0 0 23.37 41.20">
<path d="M 9.97 6.2 L 10.26 6.2 L 10.55 6.2 L 10.85 6.2 L 11.14 6.2 L 11.43 6.2 L 11.72 6.2 L 12.01 6.2 L 12.3 6.2 L 12.6 6.2 L 12.89 6.2 L 13.18 6.2 L 13.47 6.2 L 13.76 6.2 L 14.05 6.2 L 14.35 6.2 L 14.64 6.2 L 14.93 6.2 L 15.22 6.2 L 15.51 6.2 L 15.8 6.2 L 16.1 6.2 L 16.39 6.2 L 16.68 6.2 L 16.97 6.2" fill="none" stroke="#111" stroke-width="1.44" stroke-linecap="round" stroke-linejoin="round"/>
<path d="M 9.97 5.2 L 9.73 6.01 L 9.64 6.85 L 9.7 7.69 L 9.89 8.51 L 10.23 9.29 L 10.7 9.99 L 11.28 10.6 L 11.95 11.11 L 12.71 11.49 L 13.52 11.73 L 14.35 11.83 L 15.2 11.78 L 16.02 11.59 L 16.8 11.26 L 17.5 10.8 L 18.12 10.23 L 18.63 9.55 L 19.02 8.8 L 19.27 8.0 L 19.37 7.16 L 19.34 6.32 L 19.15 5.49 L 18.83 4.71 L 18.37 4.0" fill="none" stroke="#111" stroke-width="1.44" stroke-linecap="round" stroke-linejoin="round"/>
<path d="M 9.97 17.2 L 10.14 17.66 L 10.3 18.12 L 10.47 18.58 L 10.64 19.03 L 10.8 19.49 L 10.97 19.95 L 11.14 20.41 L 11.3 20.87 L 11.47 21.33 L 11.64 21.78 L 11.8 22.24 L 11.97 22.7 L 12.14 23.16 L 12.3 23.62 L 12.47 24.08 L 12.64 24.53 L 12.8 24.99 L 12.97 25.45 L 13.14 25.91 L 13.3 26.37 L 13.47 26.83 L 13.64 27.28 L 13.8 27.74 L 13.97 28.2" fill="none" stroke="#111" stroke-width="1.44" stroke-linecap="round" stroke-linejoin="round"/>
<path d="M 15.97 15.2 L 15.89 15.74 L 15.8 16.28 L 15.72 16.83 L 15.64 17.37 L 15.55 17.91 L 15.47 18.45 L 15.39 18.99 L 15.3 19.53 L 15.22 20.08 L 15.14 20.62 L 15.05 21.16 L 14.97 21.7 L 14.89 22.24 L 14.8 22.78 L 14.72 23.33 L 14.64 23.87 L 14.55 24.41 L 14.47 24.95 L 14.39 25.49 L 14.3 26.03 L 14.22 26.58 L 14.14 27.12 L 14.05 27.66 L 13.97 28.2" fill="none" stroke="#111" stroke-width="1.44" stroke-linecap="round" stroke-linejoin="round"/>
<path d="M 10.97 20.2 L 11.3 20.16 L 11.64 20.12 L 11.97 20.08 L 12.3 20.03 L 12.64 19.99 L 12.97 19.95 L 13.3 19.91 L 13.64 19.87 L 13.97 19.83 L 14.3 19.78 L 14.64 19.74 L 14.97 19.7 L 15.3 19.66 L 15.64 19.62 L 15.97 19.58 L 16.3 19.53 L 16.64 19.49 L 16.97 19.45 L 17.3 19.41 L 17.64 19.37 L 17.97 19.33 L 18.3 19.28 L 18.64 19.24 L 18.97 19.2" fill="none" stroke="#111" stroke-width="1.44" stroke-linecap="round" stroke-linejoin="round"/>
<path d="M 18.97 19.2 L 18.97 18.91 L 18.97 18.62 L 18.97 18.33 L 18.97 18.03 L 18.97 17.74 L 18.97 17.45 L 18.97 17.16 L 18.97 16.87 L 18.97 16.58 L 18.97 16.28 L 18.97 15.99 L 18.97 15.7 L 18.97 15.41 L 18.97 15.12 L 18.97 14.83 L 18.97 14.53 L 18.97 14.24 L 18.97 13.95 L 18.97 13.66 L 18.97 13.37 L 18.97 13.08 L 18.97 12.78 L 18.97 12.49 L 18.97 12.2" fill="none" stroke="#111" stroke-width="1.44" stroke-linecap="round" stroke-linejoin="round"/>
<path d="M 4.97 12.2 L 5.41 12.52 L 5.82 12.88 L 6.2 13.28 L 6.54 13.7 L 6.84 14.16 L 7.1 14.64 L 7.31 15.14 L 7.48 15.66 L 7.6 16.19 L 7.68 16.74 L 7.7 17.28 L 7.68 17.83 L 7.6 18.37 L 7.48 18.9 L 7.31 19.42 L 7.1 19.92 L 6.84 20.4 L 6.53 20.86 L 6.19 21.28 L 5.82 21.68 L 5.4 22.04 L 4.96 22.36 L 4.49 22.64 L 4.0 22.87" fill="none" stroke="#111" stroke-width="1.44" stroke-linecap="round" stroke-linejoin="round"/>
<path d="M 7.97 24.2 L 7.85 24.53 L 7.72 24.87 L 7.6 25.2 L 7.47 25.53 L 7.35 25.87 L 7.22 26.2 L 7.1 26.53 L 6.97 26.87 L 6.85 27.2 L 6.72 27.53 L 6.6 27.87 L 6.47 28.2 L 6.35 28.53 L 6.22 28.87 L 6.1 29.2 L 5.97 29.53 L 5.85 29.87 L 5.72 30.2 L 5.6 30.53 L 5.47 30.87 L 5.35 31.2 L 5.22 31.53 L 5.1 31.87 L 4.97 32.2" fill="none" stroke="#111" stroke-width="1.44" stroke-linecap="round" stroke-linejoin="round"/>
<path d="M 7.97 23.2 L 8.14 23.78 L 8.3 24.37 L 8.47 24.95 L 8.64 25.53 L 8.8 26.12 L 8.97 26.7 L 9.14 27.28 L 9.3 27.87 L 9.47 28.45 L 9.64 29.03 L 9.8 29.62 L 9.97 30.2 L 10.14 30.78 L 10.3 31.37 L 10.47 31.95 L 10.64 32.53 L 10.8 33.12 L 10.97 33.7 L 11.14 34.28 L 11.3 34.87 L 11.47 35.45 L 11.64 36.03 L 11.8 36.62 L 11.97 37.2" fill="none" stroke="#111" stroke-width="1.44" stroke-linecap="round" stroke-linejoin="round"/>
</svg>
