<?xml version="1.0" encoding="UTF-8"?>
<svg xmlns="http://www.w3.org/2000/svg" viewBox="0 0 22.78 34.75">
<path d="M 7.25 5.0 L 7.29 5.25 L 7.33 5.5 L 7.37 5.75 L 7.41 6.0 L 7.46 6.25 L 7.5 6.5 L 7.54 6.75 L 7.58 7.0 L 7.62 7.25 L 7.66 7.5 L 7.71 7.75 L 7.75 8.0 L 7.79 8.25 L 7.83 8.5 L 7.87 8.75 L 7.91 9.0 L 7.96 9.25 L 8.0 9.5 L 8.04 9.75 L 8.08 10.0 L 8.12 10.25 L 8.16 10.5 L 8.21 10.75 L 8.25 11.0 L 8.25 11.0 L 8.41 11.0 L 8.58 11.0 L 8.75 11.0 L 8.91 11.0 L 9.08 11.0 L 9.25 11.0 L 9.41 11.0 L 9.58 11.0 L 9.75 11.0 L 9.91 11.0 L 10.08 11.0 L 10.25 11.0 L 10.41 11.0 L 10.58 11.0 L 10.75 11.0 L 10.91 11.0 L 11.08 11.0 L 11.25 11.0 L 11.41 11.0 L 11.58 11.0 L 11.75 11.0 L 11.91 11.0 L 12.08 11.0 L 12.25 11.0" fill="none" stroke="#111" stroke-width="1.22" stroke-linecap="round" stroke-linejoin="round"/>
<path d="M 7.25 7.0 L 7.5 7.0 L 7.75 7.0 L 8.0 7.0 L 8.25 7.0 L 8.5 7.0 L 8.75 7.0 L 9.0 7.0 L 9.25 7.0 L 9.5 7.0 L 9.75 7.0 L 10.0 7.0 L 10.25 7.0 L 10.5 7.0 L 10.75 7.0 L 11.0 7.0 L 11.25 7.0 L 11.5 7.0 L 11.75 7.0 L 12.0 7.0 L 12.25 7.0 L 12.5 7.0 L 12.75 7.0 L 13.0 7.0 L 13.25 7.0" fill="none" stroke="#111" stroke-width="1.22" stroke-linecap="round" stroke-linejoin="round"/>
<path d="M 13.25 4.0 L 13.21 4.29 L 13.16 4.58 L 13.12 4.88 L 13.08 5.17 L 13.04 5.46 L 13.0 5.75 L 12.96 6.04 L 12.91 6.33 L 12.87 6.62 L 12.83 6.92 L 12.79 7.21 L 12.75 7.5 L 12.71 7.79 L 12.66 8.08 L 12.62 8.38 L 12.58 8.67 L 12.54 8.96 L 12.5 9.25 L 12.46 9.54 L 12.41 9.83 L 12.37 10.12 L 12.33 10.42 L 12.29 10.71 L 12.25 11.0" fill="none" stroke="#111" stroke-width="1.22" stroke-linecap="round" stroke-linejoin="round"/>
<path d="M 10.25 14.0 L 10.72 14.41 L 11.13 14.9 L 11.45 15.44 L 11.69 16.02 L 11.84 16.63 L 11.89 17.26 L 11.84 17.89 L 11.7 18.5 L 11.46 19.08 L 11.14 19.62 L 10.73 20.11 L 10.26 20.52 L 9.73 20.86 L 9.15 21.11 L 8.54 21.27 L 7.91 21.34 L 7.29 21.3 L 6.67 21.17 L 6.08 20.95 L 5.53 20.64 L 5.04 20.25 L 4.61 19.78 L 4.26 19.26 L 4.0 18.69" fill="none" stroke="#111" stroke-width="1.22" stroke-linecap="round" stroke-linejoin="round"/>
<path d="M 13.25 15.0 L 13.12 15.12 L 13.0 15.25 L 12.87 15.38 L 12.75 15.5 L 12.62 15.62 L 12.5 15.75 L 12.37 15.88 L 12.25 16.0 L 12.12 16.12 L 12.0 16.25 L 11.87 16.38 L 11.75 16.5 L 11.62 16.62 L 11.5 16.75 L 11.37 16.88 L 11.25 17.0 L 11.12 17.12 L 11.0 17.25 L 10.87 17.38 L 10.75 17.5 L 10.62 17.62 L 10.5 17.75 L 10.37 17.88 L 10.25 18.0" fill="none" stroke="#111" stroke-width="1.22" stroke-linecap="round" stroke-linejoin="round"/>
<path d="M 18.25 7.0 L 18.04 7.25 L 17.83 7.5 L 17.62 7.75 L 17.41 8.0 L 17.21 8.25 L 17.0 8.5 L 16.79 8.75 L 16.58 9.0 L 16.37 9.25 L 16.16 9.5 L 15.96 9.75 L 15.75 10.0 L 15.54 10.25 L 15.33 10.5 L 15.12 10.75 L 14.91 11.0 L 14.71 11.25 L 14.5 11.5 L 14.29 11.75 L 14.08 12.0 L 13.87 12.25 L 13.66 12.5 L 13.46 12.75 L 13.25 13.0" fill="none" stroke="#111" stroke-width="1.22" stroke-linecap="round" stroke-linejoin="round"/>
<path d="M 18.25 11.0 L 18.37 11.46 L 18.46 11.93 L 18.53 12.4 L 18.57 12.87 L 18.59 13.34 L 18.58 13.82 L 18.54 14.29 L 18.48 14.76 L 18.39 15.23 L 18.27 15.69 L 18.13 16.15 L 17.97 16.59 L 17.78 17.03 L 17.57 17.45 L 17.33 17.87 L 17.08 18.26 L 16.8 18.65 L 16.5 19.02 L 16.18 19.37 L 15.84 19.7 L 15.48 20.01 L 15.11 20.31 L 14.72 20.58 L 14.32 20.83" fill="none" stroke="#111" stroke-width="1.22" stroke-linecap="round" stroke-linejoin="round"/>
<path d="M 15.25 13.0 L 15.71 13.63 L 16.14 14.29 L 16.53 14.96 L 16.9 15.65 L 17.24 16.35 L 17.55 17.07 L 17.82 17.8 L 18.06 18.54 L 18.27 19.3 L 18.44 20.06 L 18.58 20.83 L 18.68 21.6 L 18.75 22.38 L 18.78 23.16 L 18.78 23.94 L 18.75 24.72 L 18.68 25.5 L 18.57 26.27 L 18.43 27.04 L 18.25 27.8 L 18.05 28.56 L 17.8 29.3 L 17.53 30.03 L 17.22 30.75" fill="none" stroke="#111" stroke-width="1.22" stroke-linecap="round" stroke-linejoin="round"/>
</svg>
