<?xml version="1.0" encoding="UTF-8"?>
<svg xmlns="http://www.w3.org/2000/svg" viewBox="0 0 18.52 34.87">
<path d="M 5.52 5.0 L 5.73 4.96 L 5.93 4.92 L 6.14 4.88 L 6.35 4.83 L 6.56 4.79 L 6.77 4.75 L 6.98 4.71 L 7.18 4.67 L 7.39 4.62 L 7.6 4.58 L 7.81 4.54 L 8.02 4.5 L 8.23 4.46 L 8.43 4.42 L 8.64 4.38 L 8.85 4.33 L 9.06 4.29 L 9.27 4.25 L 9.48 4.21 L 9.68 4.17 L 9.89 4.12 L 10.1 4.08 L 10.31 4.04 L 10.52 4.0 L 10.52 4.0 L 10.52 4.12 L 10.52 4.25 L 10.52 4.38 L 10.52 4.5 L 10.52 4.62 L 10.52 4.75 L 10.52 4.88 L 10.52 5.0 L 10.52 5.12 L 10.52 5.25 L 10.52 5.38 L 10.52 5.5 L 10.52 5.62 L 10.52 5.75 L 10.52 5.88 L 10.52 6.0 L 10.52 6.12 L 10.52 6.25 L 10.52 6.38 L 10.52 6.5 L 10.52 6.62 L 10.52 6.75 L 10.52 6.88 L 10.52 7.0" fill="none" stroke="#111" stroke-width="1.22" stroke-linecap="round" stroke-linejoin="round"/>
<path d="M 4.52 8.0 L 4.77 8.0 L 5.02 8.0 L 5.27 8.0 L 5.52 8.0 L 5.77 8.0 L 6.02 8.0 L 6.27 8.0 L 6.52 8.0 L 6.77 8.0 L 7.02 8.0 L 7.27 8.0 L 7.52 8.0 L 7.77 8.0 L 8.02 8.0 L 8.27 8.0 L 8.52 8.0 L 8.77 8.0 L 9.02 8.0 L 9.27 8.0 L 9.52 8.0 L 9.77 8.0 L 10.02 8.0 L 10.27 8.0 L 10.52 8.0" fill="none" stroke="#111" stroke-width="1.22" stroke-linecap="round" stroke-linejoin="round"/>
<path d="M 7.52 4.0 L 7.57 4.46 L 7.64 4.93 L 7.74 5.38 L 7.86 5.83 L 8.01 6.28 L 8.18 6.71 L 8.37 7.14 L 8.59 7.55 L 8.83 7.95 L 9.09 8.34 L 9.36 8.72 L 9.66 9.08 L 9.98 9.42 L 10.31 9.75 L 10.67 10.06 L 11.03 10.34 L 11.42 10.61 L 11.81 10.86 L 12.22 11.09 L 12.64 11.29 L 13.07 11.47 L 13.51 11.63 L 13.96 11.77 L 14.41 11.88 L 14.52 12.0 L 14.52 12.33 L 14.52 12.67 L 14.52 13.0 L 14.52 13.33 L 14.52 13.67 L 14.52 14.0 L 14.52 14.33 L 14.52 14.67 L 14.52 15.0 L 14.52 15.33 L 14.52 15.67 L 14.52 16.0 L 14.52 16.33 L 14.52 16.67 L 14.52 17.0 L 14.52 17.33 L 14.52 17.67 L 14.52 18.0 L 14.52 18.33 L 14.52 18.67 L 14.52 19.0 L 14.52 19.33 L 14.52 19.67 L 14.52 20.0" fill="none" stroke="#111" stroke-width="1.22" stroke-linecap="round" stroke-linejoin="round"/>
<path d="M 4.52 8.0 L 4.31 8.47 L 4.15 8.96 L 4.05 9.46 L 4.0 9.98 L 4.01 10.49 L 4.08 11.0 L 4.21 11.5 L 4.39 11.98 L 4.62 12.44 L 4.91 12.87 L 5.24 13.27 L 5.61 13.63 L 6.02 13.94 L 6.46 14.2 L 6.93 14.42 L 7.42 14.58 L 7.92 14.68 L 8.43 14.73 L 8.95 14.72 L 9.46 14.66 L 9.96 14.53 L 10.44 14.36 L 10.9 14.12 L 11.33 13.84 L 11.52 14.0 L 11.52 14.38 L 11.52 14.75 L 11.52 15.12 L 11.52 15.5 L 11.52 15.88 L 11.52 16.25 L 11.52 16.62 L 11.52 17.0 L 11.52 17.38 L 11.52 17.75 L 11.52 18.12 L 11.52 18.5 L 11.52 18.88 L 11.52 19.25 L 11.52 19.62 L 11.52 20.0 L 11.52 20.38 L 11.52 20.75 L 11.52 21.12 L 11.52 21.5 L 11.52 21.88 L 11.52 22.25 L 11.52 22.62 L 11.52 23.0" fill="none" stroke="#111" stroke-width="1.22" stroke-linecap="round" stroke-linejoin="round"/>
<path d="M 5.52 13.0 L 5.48 13.5 L 5.43 14.0 L 5.39 14.5 L 5.35 15.0 L 5.31 15.5 L 5.27 16.0 L 5.23 16.5 L 5.18 17.0 L 5.14 17.5 L 5.1 18.0 L 5.06 18.5 L 5.02 19.0 L 4.98 19.5 L 4.93 20.0 L 4.89 20.5 L 4.85 21.0 L 4.81 21.5 L 4.77 22.0 L 4.73 22.5 L 4.68 23.0 L 4.64 23.5 L 4.6 24.0 L 4.56 24.5 L 4.52 25.0" fill="none" stroke="#111" stroke-width="1.22" stroke-linecap="round" stroke-linejoin="round"/>
<path d="M 7.52 16.0 L 7.39 16.08 L 7.27 16.17 L 7.14 16.25 L 7.02 16.33 L 6.89 16.42 L 6.77 16.5 L 6.64 16.58 L 6.52 16.67 L 6.39 16.75 L 6.27 16.83 L 6.14 16.92 L 6.02 17.0 L 5.89 17.08 L 5.77 17.17 L 5.64 17.25 L 5.52 17.33 L 5.39 17.42 L 5.27 17.5 L 5.14 17.58 L 5.02 17.67 L 4.89 17.75 L 4.77 17.83 L 4.64 17.92 L 4.52 18.0" fill="none" stroke="#111" stroke-width="1.22" stroke-linecap="round" stroke-linejoin="round"/>
<path d="M 6.52 19.0 L 6.82 19.25 L 7.1 19.52 L 7.36 19.82 L 7.59 20.14 L 7.79 20.47 L 7.96 20.83 L 8.1 21.2 L 8.21 21.58 L 8.28 21.96 L 8.32 22.35 L 8.32 22.75 L 8.29 23.14 L 8.22 23.53 L 8.12 23.91 L 7.99 24.28 L 7.83 24.63 L 7.63 24.97 L 7.41 25.3 L 7.15 25.6 L 6.87 25.87 L 6.57 26.13 L 6.25 26.35 L 5.91 26.55 L 5.55 26.71" fill="none" stroke="#111" stroke-width="1.22" stroke-linecap="round" stroke-linejoin="round"/>
<path d="M 5.52 22.0 L 5.77 22.3 L 6.01 22.62 L 6.23 22.95 L 6.44 23.28 L 6.63 23.63 L 6.8 23.99 L 6.95 24.36 L 7.08 24.73 L 7.2 25.11 L 7.29 25.49 L 7.36 25.88 L 7.42 26.28 L 7.45 26.67 L 7.46 27.07 L 7.46 27.46 L 7.43 27.86 L 7.38 28.25 L 7.32 28.64 L 7.23 29.03 L 7.12 29.41 L 6.99 29.79 L 6.85 30.15 L 6.68 30.51 L 6.5 30.87" fill="none" stroke="#111" stroke-width="1.22" stroke-linecap="round" stroke-linejoin="round"/>
</svg>
