<?xml version="1.0" encoding="UTF-8"?>
<svg xmlns="http://www.w3.org/2000/svg" viewBox="0 0 18.77 40.41">
<path d="M 6.77 11.0 L 6.69 10.96 L 6.6 10.92 L 6.52 10.88 L 6.44 10.83 L 6.35 10.79 L 6.27 10.75 L 6.19 10.71 L 6.1 10.67 L 6.02 10.62 L 5.94 10.58 L 5.85 10.54 L 5.77 10.5 L 5.69 10.46 L 5.6 10.42 L 5.52 10.38 L 5.44 10.33 L 5.35 10.29 L 5.27 10.25 L 5.19 10.21 L 5.1 10.17 L 5.02 10.12 L 4.94 10.08 L 4.85 10.04 L 4.77 10.0 L 4.77 10.0 L 4.82 9.69 L 4.87 9.39 L 4.94 9.09 L 5.02 8.79 L 5.11 8.5 L 5.22 8.21 L 5.33 7.92 L 5.45 7.64 L 5.59 7.36 L 5.74 7.09 L 5.89 6.82 L 6.06 6.56 L 6.23 6.31 L 6.42 6.06 L 6.61 5.82 L 6.82 5.59 L 7.03 5.37 L 7.25 5.15 L 7.48 4.95 L 7.72 4.75 L 7.96 4.56 L 8.21 4.38 L 8.47 4.21 L 8.74 4.05 L 8.77 4.0 L 9.06 4.08 L 9.35 4.18 L 9.64 4.28 L 9.92 4.38 L 10.21 4.5 L 10.48 4.62 L 10.76 4.75 L 11.03 4.89 L 11.3 5.03 L 11.56 5.18 L 11.82 5.34 L 12.08 5.51 L 12.33 5.68 L 12.57 5.86 L 12.82 6.04 L 13.05 6.24 L 13.28 6.43 L 13.51 6.64 L 13.73 6.85 L 13.94 7.06 L 14.15 7.28 L 14.36 7.51 L 14.55 7.74 L 14.74 7.98 L 14.77 8.0 L 14.73 8.12 L 14.69 8.25 L 14.65 8.38 L 14.6 8.5 L 14.56 8.62 L 14.52 8.75 L 14.48 8.88 L 14.44 9.0 L 14.4 9.12 L 14.35 9.25 L 14.31 9.38 L 14.27 9.5 L 14.23 9.62 L 14.19 9.75 L 14.15 9.88 L 14.1 10.0 L 14.06 10.12 L 14.02 10.25 L 13.98 10.38 L 13.94 10.5 L 13.9 10.62 L 13.85 10.75 L 13.81 10.88 L 13.77 11.0" fill="none" stroke="#111" stroke-width="1.41" stroke-linecap="round" stroke-linejoin="round"/>
<path d="M 8.77 10.0 L 8.85 9.96 L 8.94 9.92 L 9.02 9.88 L 9.1 9.83 L 9.19 9.79 L 9.27 9.75 L 9.35 9.71 L 9.44 9.67 L 9.52 9.62 L 9.6 9.58 L 9.69 9.54 L 9.77 9.5 L 9.85 9.46 L 9.94 9.42 L 10.02 9.38 L 10.1 9.33 L 10.19 9.29 L 10.27 9.25 L 10.35 9.21 L 10.44 9.17 L 10.52 9.12 L 10.6 9.08 L 10.69 9.04 L 10.77 9.0" fill="none" stroke="#111" stroke-width="1.41" stroke-linecap="round" stroke-linejoin="round"/>
<path d="M 9.77 9.0 L 10.08 9.42 L 10.38 9.86 L 10.66 10.3 L 10.92 10.76 L 11.17 11.22 L 11.41 11.69 L 11.63 12.17 L 11.83 12.65 L 12.01 13.14 L 12.18 13.64 L 12.34 14.15 L 12.47 14.65 L 12.59 15.17 L 12.69 15.68 L 12.78 16.2 L 12.84 16.72 L 12.89 17.24 L 12.93 17.77 L 12.94 18.29 L 12.94 18.82 L 12.92 19.35 L 12.88 19.87 L 12.82 20.39 L 12.75 20.91 L 12.77 21.0 L 12.81 21.51 L 12.81 22.02 L 12.78 22.54 L 12.72 23.05 L 12.63 23.55 L 12.5 24.05 L 12.34 24.54 L 12.16 25.01 L 11.94 25.48 L 11.69 25.93 L 11.42 26.36 L 11.11 26.77 L 10.79 27.17 L 10.44 27.54 L 10.06 27.89 L 9.66 28.22 L 9.25 28.52 L 8.81 28.79 L 8.36 29.03 L 7.9 29.25 L 7.42 29.43 L 6.93 29.59 L 6.43 29.71 L 5.93 29.8 L 5.77 30.0 L 5.53 30.04 L 5.3 30.12 L 5.08 30.22 L 4.87 30.34 L 4.68 30.49 L 4.51 30.66 L 4.36 30.86 L 4.23 31.06 L 4.13 31.29 L 4.06 31.52 L 4.01 31.76 L 4.0 32.0 L 4.01 32.24 L 4.06 32.48 L 4.13 32.71 L 4.23 32.94 L 4.36 33.15 L 4.51 33.34 L 4.68 33.51 L 4.87 33.66 L 5.08 33.78 L 5.3 33.88 L 5.53 33.96 L 5.77 34.0 L 5.77 34.0 L 5.82 33.54 L 5.96 33.1 L 6.19 32.7 L 6.48 32.35 L 6.84 32.06 L 7.25 31.85 L 7.69 31.72 L 8.15 31.67 L 8.61 31.72 L 9.05 31.86 L 9.46 32.07 L 9.81 32.37 L 10.11 32.72 L 10.32 33.13 L 10.46 33.57 L 10.51 34.03 L 10.47 34.49 L 10.34 34.93 L 10.12 35.34 L 9.83 35.7 L 9.48 35.99 L 9.08 36.22 L 8.64 36.36 L 8.18 36.41" fill="none" stroke="#111" stroke-width="1.41" stroke-linecap="round" stroke-linejoin="round"/>
<path d="M 12.77 15.0 L 12.28 15.39 L 11.8 15.81 L 11.33 16.23 L 10.88 16.68 L 10.45 17.14 L 10.03 17.61 L 9.63 18.1 L 9.25 18.6 L 8.88 19.12 L 8.53 19.65 L 8.2 20.19 L 7.89 20.74 L 7.6 21.3 L 7.33 21.87 L 7.08 22.45 L 6.86 23.04 L 6.65 23.64 L 6.46 24.24 L 6.29 24.85 L 6.15 25.47 L 6.03 26.09 L 5.92 26.71 L 5.85 27.34 L 5.79 27.97" fill="none" stroke="#111" stroke-width="1.41" stroke-linecap="round" stroke-linejoin="round"/>
</svg>
