<?xml version="1.0" encoding="UTF-8"?>
<svg xmlns="http://www.w3.org/2000/svg" viewBox="0 0 26.87 37.82">
<path d="M 12.77 10.82 L 11.83 12.04 L 10.54 12.89 L 9.04 13.27 L 7.49 13.14 L 6.08 12.51 L 4.95 11.45 L 4.23 10.08 L 4.0 8.55 L 4.28 7.03 L 5.05 5.68 L 6.21 4.66 L 7.65 4.08 L 9.19 4.0 L 10.68 4.43 L 11.95 5.33 L 12.85 6.58 L 13.29 8.07 L 13.21 9.62 L 12.64 11.05 L 11.63 12.22 L 10.29 13.0 L 8.76 13.29 L 7.23 13.07 L 5.86 12.35" fill="none" stroke="#111" stroke-width="1.32" stroke-linecap="round" stroke-linejoin="round"/>
<path d="M 17.77 17.82 L 17.77 18.19 L 17.77 18.57 L 17.77 18.94 L 17.77 19.32 L 17.77 19.69 L 17.77 20.07 L 17.77 20.44 L 17.77 20.82 L 17.77 21.19 L 17.77 21.57 L 17.77 21.94 L 17.77 22.32 L 17.77 22.69 L 17.77 23.07 L 17.77 23.44 L 17.77 23.82 L 17.77 24.19 L 17.77 24.57 L 17.77 24.94 L 17.77 25.32 L 17.77 25.69 L 17.77 26.07 L 17.77 26.44 L 17.77 26.82" fill="none" stroke="#111" stroke-width="1.32" stroke-linecap="round" stroke-linejoin="round"/>
<path d="M 12.77 21.82 L 12.82 21.65 L 12.86 21.48 L 12.9 21.32 L 12.94 21.15 L 12.98 20.98 L 13.02 20.82 L 13.07 20.65 L 13.11 20.48 L 13.15 20.32 L 13.19 20.15 L 13.23 19.98 L 13.27 19.82 L 13.32 19.65 L 13.36 19.48 L 13.4 19.32 L 13.44 19.15 L 13.48 18.98 L 13.52 18.82 L 13.57 18.65 L 13.61 18.48 L 13.65 18.32 L 13.69 18.15 L 13.73 17.98 L 13.77 17.82 L 13.77 17.82 L 13.94 17.94 L 14.11 18.07 L 14.27 18.19 L 14.44 18.32 L 14.61 18.44 L 14.77 18.57 L 14.94 18.69 L 15.11 18.82 L 15.27 18.94 L 15.44 19.07 L 15.61 19.19 L 15.77 19.32 L 15.94 19.44 L 16.11 19.57 L 16.27 19.69 L 16.44 19.82 L 16.61 19.94 L 16.77 20.07 L 16.94 20.19 L 17.11 20.32 L 17.27 20.44 L 17.44 20.57 L 17.61 20.69 L 17.77 20.82 L 17.77 20.82 L 17.73 20.44 L 17.74 20.06 L 17.8 19.69 L 17.92 19.32 L 18.09 18.98 L 18.31 18.67 L 18.57 18.4 L 18.87 18.16 L 19.2 17.98 L 19.55 17.84 L 19.92 17.76 L 20.3 17.73 L 20.68 17.76 L 21.05 17.84 L 21.4 17.98 L 21.73 18.16 L 22.03 18.4 L 22.3 18.67 L 22.51 18.98 L 22.68 19.32 L 22.8 19.69 L 22.87 20.06 L 22.87 20.44 L 22.83 20.82 L 21.77 20.82 L 21.77 20.82 L 21.77 20.82 L 21.77 20.82 L 21.77 20.82 L 21.77 20.82 L 21.77 20.82 L 21.77 20.82 L 21.77 20.82 L 21.77 20.82 L 21.77 20.82 L 21.77 20.82 L 21.77 20.82 L 21.77 20.82 L 21.77 20.82 L 21.77 20.82 L 21.77 20.82 L 21.77 20.82 L 21.77 20.82 L 21.77 20.82 L 21.77 20.82 L 21.77 20.82 L 21.77 20.82 L 21.77 20.82 L 21.77 20.82" fill="none" stroke="#111" stroke-width="1.32" stroke-linecap="round" stroke-linejoin="round"/>
<path d="M 14.77 21.82 L 14.9 21.9 L 15.02 21.98 L 15.15 22.07 L 15.27 22.15 L 15.4 22.23 L 15.52 22.32 L 15.65 22.4 L 15.77 22.48 L 15.9 22.57 L 16.02 22.65 L 16.15 22.73 L 16.27 22.82 L 16.4 22.9 L 16.52 22.98 L 16.65 23.07 L 16.77 23.15 L 16.9 23.23 L 17.02 23.32 L 17.15 23.4 L 17.27 23.48 L 17.4 23.57 L 17.52 23.65 L 17.65 23.73 L 17.77 23.82" fill="none" stroke="#111" stroke-width="1.32" stroke-linecap="round" stroke-linejoin="round"/>
<path d="M 17.77 23.82 L 17.86 23.73 L 17.94 23.65 L 18.02 23.57 L 18.11 23.48 L 18.19 23.4 L 18.27 23.32 L 18.36 23.23 L 18.44 23.15 L 18.52 23.07 L 18.61 22.98 L 18.69 22.9 L 18.77 22.82 L 18.86 22.73 L 18.94 22.65 L 19.02 22.57 L 19.11 22.48 L 19.19 22.4 L 19.27 22.32 L 19.36 22.23 L 19.44 22.15 L 19.52 22.07 L 19.61 21.98 L 19.69 21.9 L 19.77 21.82" fill="none" stroke="#111" stroke-width="1.32" stroke-linecap="round" stroke-linejoin="round"/>
<path d="M 12.77 27.82 L 12.9 28.07 L 13.02 28.32 L 13.15 28.57 L 13.27 28.82 L 13.4 29.07 L 13.52 29.32 L 13.65 29.57 L 13.77 29.82 L 13.9 30.07 L 14.02 30.32 L 14.15 30.57 L 14.27 30.82 L 14.4 31.07 L 14.52 31.32 L 14.65 31.57 L 14.77 31.82 L 14.9 32.07 L 15.02 32.32 L 15.15 32.57 L 15.27 32.82 L 15.4 33.07 L 15.52 33.32 L 15.65 33.57 L 15.77 33.82" fill="none" stroke="#111" stroke-width="1.32" stroke-linecap="round" stroke-linejoin="round"/>
<path d="M 15.77 27.82 L 15.77 28.07 L 15.77 28.32 L 15.77 28.57 L 15.77 28.82 L 15.77 29.07 L 15.77 29.32 L 15.77 29.57 L 15.77 29.82 L 15.77 30.07 L 15.77 30.32 L 15.77 30.57 L 15.77 30.82 L 15.77 31.07 L 15.77 31.32 L 15.77 31.57 L 15.77 31.82 L 15.77 32.07 L 15.77 32.32 L 15.77 32.57 L 15.77 32.82 L 15.77 33.07 L 15.77 33.32 L 15.77 33.57 L 15.77 33.82" fill="none" stroke="#111" stroke-width="1.32" stroke-linecap="round" stroke-linejoin="round"/>
<path d="M 13.77 29.82 L 13.98 29.73 L 14.19 29.65 L 14.4 29.57 L 14.61 29.48 L 14.82 29.4 L 15.02 29.32 L 15.23 29.23 L 15.44 29.15 L 15.65 29.07 L 15.86 28.98 L 16.07 28.9 L 16.27 28.82 L 16.48 28.73 L 16.69 28.65 L 16.9 28.57 L 17.11 28.48 L 17.32 28.4 L 17.52 28.32 L 17.73 28.23 L 17.94 28.15 L 18.15 28.07 L 18.36 27.98 L 18.57 27.9 L 18.77 27.82" fill="none" stroke="#111" stroke-width="1.32" stroke-linecap="round" stroke-linejoin="round"/>
<path d="M 9.77 4.82 L 9.82 5.11 L 9.86 5.4 L 9.9 5.69 L 9.94 5.98 L 9.98 6.27 L 10.02 6.57 L 10.07 6.86 L 10.11 7.15 L 10.15 7.44 L 10.19 7.73 L 10.23 8.02 L 10.27 8.32 L 10.32 8.61 L 10.36 8.9 L 10.4 9.19 L 10.44 9.48 L 10.48 9.77 L 10.52 10.07 L 10.57 10.36 L 10.61 10.65 L 10.65 10.94 L 10.69 11.23 L 10.73 11.52 L 10.77 11.82 L 10.77 11.82 L 10.65 12.02 L 10.52 12.23 L 10.4 12.44 L 10.27 12.65 L 10.15 12.86 L 10.02 13.07 L 9.9 13.27 L 9.77 13.48 L 9.65 13.69 L 9.52 13.9 L 9.4 14.11 L 9.27 14.32 L 9.15 14.52 L 9.02 14.73 L 8.9 14.94 L 8.77 15.15 L 8.65 15.36 L 8.52 15.57 L 8.4 15.77 L 8.27 15.98 L 8.15 16.19 L 8.02 16.4 L 7.9 16.61 L 7.77 16.82" fill="none" stroke="#111" stroke-width="1.32" stroke-linecap="round" stroke-linejoin="round"/>
<path d="M 11.77 18.82 L 11.61 19.19 L 11.44 19.57 L 11.27 19.94 L 11.11 20.32 L 10.94 20.69 L 10.77 21.07 L 10.61 21.44 L 10.44 21.82 L 10.27 22.19 L 10.11 22.57 L 9.94 22.94 L 9.77 23.32 L 9.61 23.69 L 9.44 24.07 L 9.27 24.44 L 9.11 24.82 L 8.94 25.19 L 8.77 25.57 L 8.61 25.94 L 8.44 26.32 L 8.27 26.69 L 8.11 27.07 L 7.94 27.44 L 7.77 27.82" fill="none" stroke="#111" stroke-width="1.32" stroke-linecap="round" stroke-linejoin="round"/>
<path d="M 10.77 21.82 L 10.77 22.07 L 10.77 22.32 L 10.77 22.57 L 10.77 22.82 L 10.77 23.07 L 10.77 23.32 L 10.77 23.57 L 10.77 23.82 L 10.77 24.07 L 10.77 24.32 L 10.77 24.57 L 10.77 24.82 L 10.77 25.07 L 10.77 25.32 L 10.77 25.57 L 10.77 25.82 L 10.77 26.07 L 10.77 26.32 L 10.77 26.57 L 10.77 26.82 L 10.77 27.07 L 10.77 27.32 L 10.77 27.57 L 10.77 27.82" fill="none" stroke="#111" stroke-width="1.32" stroke-linecap="round" stroke-linejoin="round"/>
</svg>
