<?xml version="1.0" encoding="UTF-8"?>
<svg xmlns="http://www.w3.org/2000/svg" viewBox="0 0 18.57 39.00">
<path d="M 6.57 4.0 L 6.61 4.38 L 6.66 4.75 L 6.7 5.12 L 6.74 5.5 L 6.78 5.88 L 6.82 6.25 L 6.86 6.62 L 6.91 7.0 L 6.95 7.38 L 6.99 7.75 L 7.03 8.12 L 7.07 8.5 L 7.11 8.88 L 7.16 9.25 L 7.2 9.62 L 7.24 10.0 L 7.28 10.38 L 7.32 10.75 L 7.36 11.12 L 7.41 11.5 L 7.45 11.88 L 7.49 12.25 L 7.53 12.63 L 7.57 13.0 L 7.57 13.0 L 7.02 13.3 L 6.5 13.65 L 6.01 14.05 L 5.57 14.5 L 5.18 15.0 L 4.83 15.52 L 4.55 16.09 L 4.32 16.67 L 4.15 17.28 L 4.04 17.9 L 4.0 18.53 L 4.02 19.16 L 4.1 19.79 L 4.25 20.4 L 4.46 20.99 L 4.73 21.56 L 5.05 22.11 L 5.42 22.61 L 5.85 23.08 L 6.32 23.5 L 6.83 23.87 L 7.37 24.19 L 7.95 24.45 L 8.54 24.65 L 8.57 25.0 L 9.21 24.76 L 9.83 24.46 L 10.4 24.09 L 10.93 23.65 L 11.4 23.16 L 11.81 22.61 L 12.17 22.03 L 12.45 21.41 L 12.66 20.76 L 12.8 20.09 L 12.85 19.4 L 12.84 18.72 L 12.74 18.04 L 12.57 17.38 L 12.33 16.74 L 12.01 16.14 L 11.63 15.57 L 11.18 15.05 L 10.68 14.58 L 10.14 14.18 L 9.54 13.84 L 8.92 13.56 L 8.26 13.36 L 7.59 13.23" fill="none" stroke="#111" stroke-width="1.37" stroke-linecap="round" stroke-linejoin="round"/>
<path d="M 7.57 24.0 L 7.61 24.46 L 7.66 24.92 L 7.7 25.38 L 7.74 25.83 L 7.78 26.29 L 7.82 26.75 L 7.86 27.21 L 7.91 27.67 L 7.95 28.12 L 7.99 28.58 L 8.03 29.04 L 8.07 29.5 L 8.11 29.96 L 8.16 30.42 L 8.2 30.88 L 8.24 31.33 L 8.28 31.79 L 8.32 32.25 L 8.36 32.71 L 8.41 33.17 L 8.45 33.62 L 8.49 34.08 L 8.53 34.54 L 8.57 35.0" fill="none" stroke="#111" stroke-width="1.37" stroke-linecap="round" stroke-linejoin="round"/>
<path d="M 7.57 7.0 L 7.86 7.25 L 8.16 7.5 L 8.45 7.75 L 8.74 8.0 L 9.03 8.25 L 9.32 8.5 L 9.61 8.75 L 9.91 9.0 L 10.2 9.25 L 10.49 9.5 L 10.78 9.75 L 11.07 10.0 L 11.36 10.25 L 11.66 10.5 L 11.95 10.75 L 12.24 11.0 L 12.53 11.25 L 12.82 11.5 L 13.11 11.75 L 13.41 12.0 L 13.7 12.25 L 13.99 12.5 L 14.28 12.75 L 14.57 13.0" fill="none" stroke="#111" stroke-width="1.37" stroke-linecap="round" stroke-linejoin="round"/>
</svg>
