<?xml version="1.0" encoding="UTF-8"?>
<svg xmlns="http://www.w3.org/2000/svg" viewBox="0 0 29.88 38.53">
<path d="M 7.89 9.0 L 8.02 9.35 L 8.12 9.72 L 8.19 10.08 L 8.23 10.46 L 8.24 10.83 L 8.23 11.21 L 8.19 11.58 L 8.12 11.95 L 8.02 12.31 L 7.9 12.66 L 7.75 13.01 L 7.58 13.34 L 7.38 13.66 L 7.16 13.96 L 6.92 14.25 L 6.65 14.51 L 6.37 14.76 L 6.07 14.98 L 5.75 15.19 L 5.42 15.36 L 5.08 15.52 L 4.73 15.64 L 4.37 15.74 L 4.0 15.82" fill="none" stroke="#111" stroke-width="1.35" stroke-linecap="round" stroke-linejoin="round"/>
<path d="M 7.89 12.0 L 8.02 12.17 L 8.14 12.33 L 8.27 12.5 L 8.39 12.67 L 8.52 12.83 L 8.64 13.0 L 8.77 13.17 L 8.89 13.33 L 9.02 13.5 L 9.14 13.67 L 9.27 13.83 L 9.39 14.0 L 9.52 14.17 L 9.64 14.33 L 9.77 14.5 L 9.89 14.67 L 10.02 14.83 L 10.14 15.0 L 10.27 15.17 L 10.39 15.33 L 10.52 15.5 L 10.64 15.67 L 10.77 15.83 L 10.89 16.0" fill="none" stroke="#111" stroke-width="1.35" stroke-linecap="round" stroke-linejoin="round"/>
<path d="M 7.89 14.0 L 8.04 14.29 L 8.16 14.6 L 8.26 14.9 L 8.35 15.22 L 8.41 15.54 L 8.45 15.86 L 8.48 16.19 L 8.48 16.51 L 8.46 16.84 L 8.42 17.16 L 8.36 17.48 L 8.28 17.8 L 8.18 18.11 L 8.07 18.42 L 7.93 18.71 L 7.77 19.0 L 7.6 19.27 L 7.41 19.54 L 7.2 19.79 L 6.97 20.03 L 6.74 20.25 L 6.49 20.46 L 6.22 20.65 L 5.95 20.82 L 5.89 21.0 L 6.07 21.44 L 6.25 21.88 L 6.42 22.33 L 6.58 22.78 L 6.74 23.22 L 6.9 23.67 L 7.05 24.12 L 7.2 24.58 L 7.34 25.03 L 7.48 25.49 L 7.61 25.94 L 7.74 26.4 L 7.86 26.86 L 7.98 27.32 L 8.09 27.79 L 8.2 28.25 L 8.3 28.71 L 8.4 29.18 L 8.5 29.65 L 8.58 30.11 L 8.67 30.58 L 8.75 31.05 L 8.82 31.52 L 8.89 31.99" fill="none" stroke="#111" stroke-width="1.35" stroke-linecap="round" stroke-linejoin="round"/>
<path d="M 7.89 17.0 L 8.27 17.22 L 8.63 17.46 L 8.96 17.73 L 9.27 18.03 L 9.56 18.36 L 9.82 18.71 L 10.05 19.07 L 10.25 19.46 L 10.41 19.86 L 10.55 20.27 L 10.65 20.69 L 10.71 21.11 L 10.74 21.55 L 10.74 21.98 L 10.7 22.41 L 10.62 22.84 L 10.51 23.25 L 10.37 23.66 L 10.19 24.06 L 9.98 24.44 L 9.75 24.8 L 9.48 25.14 L 9.19 25.46 L 8.87 25.75" fill="none" stroke="#111" stroke-width="1.35" stroke-linecap="round" stroke-linejoin="round"/>
<path d="M 9.89 21.0 L 9.77 21.08 L 9.64 21.17 L 9.52 21.25 L 9.39 21.33 L 9.27 21.42 L 9.14 21.5 L 9.02 21.58 L 8.89 21.67 L 8.77 21.75 L 8.64 21.83 L 8.52 21.92 L 8.39 22.0 L 8.27 22.08 L 8.14 22.17 L 8.02 22.25 L 7.89 22.33 L 7.77 22.42 L 7.64 22.5 L 7.52 22.58 L 7.39 22.67 L 7.27 22.75 L 7.14 22.83 L 7.02 22.92 L 6.89 23.0" fill="none" stroke="#111" stroke-width="1.35" stroke-linecap="round" stroke-linejoin="round"/>
<path d="M 5.89 27.0 L 5.98 27.08 L 6.06 27.17 L 6.14 27.25 L 6.23 27.33 L 6.31 27.42 L 6.39 27.5 L 6.48 27.58 L 6.56 27.67 L 6.64 27.75 L 6.73 27.83 L 6.81 27.92 L 6.89 28.0 L 6.98 28.08 L 7.06 28.17 L 7.14 28.25 L 7.23 28.33 L 7.31 28.42 L 7.39 28.5 L 7.48 28.58 L 7.56 28.67 L 7.64 28.75 L 7.73 28.83 L 7.81 28.92 L 7.89 29.0" fill="none" stroke="#111" stroke-width="1.35" stroke-linecap="round" stroke-linejoin="round"/>
<path d="M 11.89 25.0 L 11.77 25.17 L 11.64 25.33 L 11.52 25.5 L 11.39 25.67 L 11.27 25.83 L 11.14 26.0 L 11.02 26.17 L 10.89 26.33 L 10.77 26.5 L 10.64 26.67 L 10.52 26.83 L 10.39 27.0 L 10.27 27.17 L 10.14 27.33 L 10.02 27.5 L 9.89 27.67 L 9.77 27.83 L 9.64 28.0 L 9.52 28.17 L 9.39 28.33 L 9.27 28.5 L 9.14 28.67 L 9.02 28.83 L 8.89 29.0" fill="none" stroke="#111" stroke-width="1.35" stroke-linecap="round" stroke-linejoin="round"/>
<path d="M 13.89 4.0 L 14.23 5.24 L 14.54 6.49 L 14.83 7.74 L 15.09 9.0 L 15.32 10.26 L 15.53 11.53 L 15.72 12.8 L 15.87 14.08 L 16.01 15.36 L 16.11 16.64 L 16.2 17.92 L 16.25 19.2 L 16.28 20.49 L 16.29 21.77 L 16.26 23.06 L 16.22 24.34 L 16.14 25.62 L 16.04 26.91 L 15.92 28.18 L 15.77 29.46 L 15.59 30.73 L 15.39 32.0 L 15.16 33.27 L 14.91 34.53" fill="none" stroke="#111" stroke-width="1.35" stroke-linecap="round" stroke-linejoin="round"/>
<path d="M 13.89 16.0 L 13.77 16.12 L 13.64 16.25 L 13.52 16.38 L 13.39 16.5 L 13.27 16.62 L 13.14 16.75 L 13.02 16.88 L 12.89 17.0 L 12.77 17.12 L 12.64 17.25 L 12.52 17.38 L 12.39 17.5 L 12.27 17.62 L 12.14 17.75 L 12.02 17.88 L 11.89 18.0 L 11.77 18.12 L 11.64 18.25 L 11.52 18.38 L 11.39 18.5 L 11.27 18.62 L 11.14 18.75 L 11.02 18.88 L 10.89 19.0" fill="none" stroke="#111" stroke-width="1.35" stroke-linecap="round" stroke-linejoin="round"/>
<path d="M 15.89 18.0 L 15.73 18.08 L 15.56 18.17 L 15.39 18.25 L 15.23 18.33 L 15.06 18.42 L 14.89 18.5 L 14.73 18.58 L 14.56 18.67 L 14.39 18.75 L 14.23 18.83 L 14.06 18.92 L 13.89 19.0 L 13.73 19.08 L 13.56 19.17 L 13.39 19.25 L 13.23 19.33 L 13.06 19.42 L 12.89 19.5 L 12.73 19.58 L 12.56 19.67 L 12.39 19.75 L 12.23 19.83 L 12.06 19.92 L 11.89 20.0" fill="none" stroke="#111" stroke-width="1.35" stroke-linecap="round" stroke-linejoin="round"/>
<path d="M 14.89 12.0 L 15.14 12.21 L 15.39 12.42 L 15.64 12.62 L 15.89 12.83 L 16.14 13.04 L 16.39 13.25 L 16.64 13.46 L 16.89 13.67 L 17.14 13.88 L 17.39 14.08 L 17.64 14.29 L 17.89 14.5 L 18.14 14.71 L 18.39 14.92 L 18.64 15.12 L 18.89 15.33 L 19.14 15.54 L 19.39 15.75 L 19.64 15.96 L 19.89 16.17 L 20.14 16.38 L 20.39 16.58 L 20.64 16.79 L 20.89 17.0 L 20.89 17.0 L 20.74 17.22 L 20.62 17.45 L 20.52 17.7 L 20.45 17.95 L 20.42 18.21 L 20.42 18.48 L 20.45 18.74 L 20.51 19.0 L 20.6 19.25 L 20.73 19.48 L 20.88 19.7 L 21.05 19.9 L 21.25 20.07 L 21.47 20.22 L 21.7 20.35 L 21.95 20.44 L 22.21 20.5 L 22.47 20.53 L 22.74 20.53 L 23.0 20.5 L 23.25 20.43 L 23.5 20.33 L 23.73 20.21 L 23.95 20.06 L 23.89 20.0 L 23.85 20.35 L 23.82 20.7 L 23.81 21.04 L 23.8 21.39 L 23.8 21.74 L 23.81 22.09 L 23.84 22.44 L 23.88 22.79 L 23.92 23.13 L 23.98 23.48 L 24.05 23.82 L 24.13 24.16 L 24.22 24.5 L 24.32 24.83 L 24.43 25.16 L 24.55 25.49 L 24.68 25.82 L 24.83 26.13 L 24.98 26.45 L 25.14 26.76 L 25.31 27.06 L 25.49 27.36 L 25.68 27.66 L 25.88 27.94" fill="none" stroke="#111" stroke-width="1.35" stroke-linecap="round" stroke-linejoin="round"/>
<path d="M 21.89 17.0 L 21.94 17.04 L 21.98 17.08 L 22.02 17.12 L 22.06 17.17 L 22.1 17.21 L 22.14 17.25 L 22.19 17.29 L 22.23 17.33 L 22.27 17.38 L 22.31 17.42 L 22.35 17.46 L 22.39 17.5 L 22.44 17.54 L 22.48 17.58 L 22.52 17.62 L 22.56 17.67 L 22.6 17.71 L 22.64 17.75 L 22.69 17.79 L 22.73 17.83 L 22.77 17.88 L 22.81 17.92 L 22.85 17.96 L 22.89 18.0 L 22.89 18.0 L 22.81 18.17 L 22.73 18.33 L 22.64 18.5 L 22.56 18.67 L 22.48 18.83 L 22.39 19.0 L 22.31 19.17 L 22.23 19.33 L 22.14 19.5 L 22.06 19.67 L 21.98 19.83 L 21.89 20.0 L 21.81 20.17 L 21.73 20.33 L 21.64 20.5 L 21.56 20.67 L 21.48 20.83 L 21.39 21.0 L 21.31 21.17 L 21.23 21.33 L 21.14 21.5 L 21.06 21.67 L 20.98 21.83 L 20.89 22.0 L 20.89 22.0 L 20.94 22.04 L 20.98 22.08 L 21.02 22.12 L 21.06 22.17 L 21.1 22.21 L 21.14 22.25 L 21.19 22.29 L 21.23 22.33 L 21.27 22.38 L 21.31 22.42 L 21.35 22.46 L 21.39 22.5 L 21.44 22.54 L 21.48 22.58 L 21.52 22.62 L 21.56 22.67 L 21.6 22.71 L 21.64 22.75 L 21.69 22.79 L 21.73 22.83 L 21.77 22.88 L 21.81 22.92 L 21.85 22.96 L 21.89 23.0" fill="none" stroke="#111" stroke-width="1.35" stroke-linecap="round" stroke-linejoin="round"/>
<path d="M 11.89 7.0 L 12.1 7.0 L 12.31 7.0 L 12.52 7.0 L 12.73 7.0 L 12.94 7.0 L 13.14 7.0 L 13.35 7.0 L 13.56 7.0 L 13.77 7.0 L 13.98 7.0 L 14.19 7.0 L 14.39 7.0 L 14.6 7.0 L 14.81 7.0 L 15.02 7.0 L 15.23 7.0 L 15.44 7.0 L 15.64 7.0 L 15.85 7.0 L 16.06 7.0 L 16.27 7.0 L 16.48 7.0 L 16.69 7.0 L 16.89 7.0 L 16.89 7.0 L 16.89 7.25 L 16.9 7.5 L 16.93 7.75 L 16.97 7.99 L 17.04 8.24 L 17.12 8.47 L 17.21 8.7 L 17.33 8.93 L 17.45 9.14 L 17.6 9.35 L 17.75 9.54 L 17.92 9.72 L 18.11 9.89 L 18.3 10.05 L 18.51 10.19 L 18.72 10.32 L 18.94 10.43 L 19.17 10.53 L 19.41 10.61 L 19.65 10.67 L 19.9 10.72 L 20.15 10.75 L 20.4 10.76 L 20.65 10.75" fill="none" stroke="#111" stroke-width="1.35" stroke-linecap="round" stroke-linejoin="round"/>
<path d="M 10.89 8.0 L 11.15 8.28 L 11.41 8.56 L 11.68 8.83 L 11.96 9.08 L 12.25 9.33 L 12.54 9.57 L 12.85 9.8 L 13.16 10.02 L 13.48 10.22 L 13.8 10.42 L 14.13 10.61 L 14.47 10.78 L 14.81 10.95 L 15.16 11.1 L 15.51 11.24 L 15.87 11.37 L 16.23 11.49 L 16.6 11.6 L 16.97 11.69 L 17.34 11.77 L 17.71 11.84 L 18.09 11.9 L 18.46 11.94 L 18.84 11.97" fill="none" stroke="#111" stroke-width="1.35" stroke-linecap="round" stroke-linejoin="round"/>
</svg>
