<?xml version="1.0" encoding="UTF-8"?>
<svg xmlns="http://www.w3.org/2000/svg" viewBox="0 0 22.00 34.00">
<path d="M 4.0 7.0 L 4.0 7.21 L 4.0 7.42 L 4.0 7.62 L 4.0 7.83 L 4.0 8.04 L 4.0 8.25 L 4.0 8.46 L 4.0 8.67 L 4.0 8.88 L 4.0 9.08 L 4.0 9.29 L 4.0 9.5 L 4.0 9.71 L 4.0 9.92 L 4.0 10.12 L 4.0 10.33 L 4.0 10.54 L 4.0 10.75 L 4.0 10.96 L 4.0 11.17 L 4.0 11.38 L 4.0 11.58 L 4.0 11.79 L 4.0 12.0" fill="none" stroke="#111" stroke-width="1.19" stroke-linecap="round" stroke-linejoin="round"/>
<path d="M 10.0 4.0 L 10.0 4.17 L 10.0 4.33 L 10.0 4.5 L 10.0 4.67 L 10.0 4.83 L 10.0 5.0 L 10.0 5.17 L 10.0 5.33 L 10.0 5.5 L 10.0 5.67 L 10.0 5.83 L 10.0 6.0 L 10.0 6.17 L 10.0 6.33 L 10.0 6.5 L 10.0 6.67 L 10.0 6.83 L 10.0 7.0 L 10.0 7.17 L 10.0 7.33 L 10.0 7.5 L 10.0 7.67 L 10.0 7.83 L 10.0 8.0" fill="none" stroke="#111" stroke-width="1.19" stroke-linecap="round" stroke-linejoin="round"/>
<path d="M 18.0 6.0 L 18.0 6.21 L 18.0 6.42 L 18.0 6.62 L 18.0 6.83 L 18.0 7.04 L 18.0 7.25 L 18.0 7.46 L 18.0 7.67 L 18.0 7.88 L 18.0 8.08 L 18.0 8.29 L 18.0 8.5 L 18.0 8.71 L 18.0 8.92 L 18.0 9.12 L 18.0 9.33 L 18.0 9.54 L 18.0 9.75 L 18.0 9.96 L 18.0 10.17 L 18.0 10.38 L 18.0 10.58 L 18.0 10.79 L 18.0 11.0" fill="none" stroke="#111" stroke-width="1.19" stroke-linecap="round" stroke-linejoin="round"/>
<path d="M 5.0 14.0 L 5.21 14.62 L 5.42 15.25 L 5.62 15.88 L 5.83 16.5 L 6.04 17.12 L 6.25 17.75 L 6.46 18.38 L 6.67 19.0 L 6.88 19.62 L 7.08 20.25 L 7.29 20.88 L 7.5 21.5 L 7.71 22.12 L 7.92 22.75 L 8.12 23.38 L 8.33 24.0 L 8.54 24.62 L 8.75 25.25 L 8.96 25.88 L 9.17 26.5 L 9.38 27.12 L 9.58 27.75 L 9.79 28.38 L 10.0 29.0 L 10.0 29.0 L 10.0 28.21 L 10.0 27.42 L 10.0 26.62 L 10.0 25.83 L 10.0 25.04 L 10.0 24.25 L 10.0 23.46 L 10.0 22.67 L 10.0 21.88 L 10.0 21.08 L 10.0 20.29 L 10.0 19.5 L 10.0 18.71 L 10.0 17.92 L 10.0 17.12 L 10.0 16.33 L 10.0 15.54 L 10.0 14.75 L 10.0 13.96 L 10.0 13.17 L 10.0 12.38 L 10.0 11.58 L 10.0 10.79 L 10.0 10.0" fill="none" stroke="#111" stroke-width="1.19" stroke-linecap="round" stroke-linejoin="round"/>
<path d="M 6.0 19.0 L 6.76 18.96 L 7.52 18.87 L 8.27 18.72 L 9.01 18.51 L 9.73 18.25 L 10.42 17.93 L 11.09 17.56 L 11.73 17.15 L 12.34 16.68 L 12.91 16.17 L 13.45 15.62 L 13.93 15.04 L 14.38 14.41 L 14.77 13.76 L 15.12 13.07 L 15.41 12.37 L 15.65 11.64 L 15.83 10.9 L 15.96 10.14 L 16.03 9.38 L 16.04 8.62 L 15.99 7.86 L 15.89 7.1 L 15.73 6.35" fill="none" stroke="#111" stroke-width="1.19" stroke-linecap="round" stroke-linejoin="round"/>
<path d="M 15.0 19.0 L 15.0 19.38 L 15.0 19.75 L 15.0 20.12 L 15.0 20.5 L 15.0 20.88 L 15.0 21.25 L 15.0 21.62 L 15.0 22.0 L 15.0 22.38 L 15.0 22.75 L 15.0 23.12 L 15.0 23.5 L 15.0 23.88 L 15.0 24.25 L 15.0 24.62 L 15.0 25.0 L 15.0 25.38 L 15.0 25.75 L 15.0 26.12 L 15.0 26.5 L 15.0 26.88 L 15.0 27.25 L 15.0 27.62 L 15.0 28.0" fill="none" stroke="#111" stroke-width="1.19" stroke-linecap="round" stroke-linejoin="round"/>
<path d="M 4.0 21.0 L 4.0 21.38 L 4.0 21.75 L 4.0 22.12 L 4.0 22.5 L 4.0 22.88 L 4.0 23.25 L 4.0 23.62 L 4.0 24.0 L 4.0 24.38 L 4.0 24.75 L 4.0 25.12 L 4.0 25.5 L 4.0 25.88 L 4.0 26.25 L 4.0 26.62 L 4.0 27.0 L 4.0 27.38 L 4.0 27.75 L 4.0 28.12 L 4.0 28.5 L 4.0 28.88 L 4.0 29.25 L 4.0 29.62 L 4.0 30.0" fill="none" stroke="#111" stroke-width="1.19" stroke-linecap="round" stroke-linejoin="round"/>
</svg>
