<?xml version="1.0" encoding="UTF-8"?>
<svg xmlns="http://www.w3.org/2000/svg" viewBox="0 0 18.38 40.94">
<path d="M 8.38 4.0 L 8.38 4.33 L 8.38 4.67 L 8.38 5.0 L 8.38 5.33 L 8.38 5.67 L 8.38 6.0 L 8.38 6.33 L 8.38 6.67 L 8.38 7.0 L 8.38 7.33 L 8.38 7.67 L 8.38 8.0 L 8.38 8.33 L 8.38 8.67 L 8.38 9.0 L 8.38 9.33 L 8.38 9.67 L 8.38 10.0 L 8.38 10.33 L 8.38 10.67 L 8.38 11.0 L 8.38 11.33 L 8.38 11.67 L 8.38 12.0 L 8.38 12.0 L 7.67 12.54 L 7.02 13.14 L 6.42 13.8 L 5.88 14.5 L 5.4 15.25 L 4.98 16.03 L 4.64 16.85 L 4.37 17.7 L 4.17 18.56 L 4.05 19.44 L 4.0 20.33 L 4.03 21.22 L 4.14 22.1 L 4.32 22.97 L 4.57 23.82 L 4.9 24.64 L 5.3 25.44 L 5.76 26.19 L 6.29 26.91 L 6.88 27.57 L 7.52 28.18 L 8.22 28.74 L 8.96 29.23 L 9.73 29.66 L 9.38 25.0 L 9.54 25.48 L 9.68 25.97 L 9.82 26.45 L 9.94 26.95 L 10.04 27.44 L 10.14 27.94 L 10.21 28.44 L 10.28 28.95 L 10.33 29.45 L 10.36 29.96 L 10.39 30.46 L 10.39 30.97 L 10.39 31.48 L 10.36 31.98 L 10.33 32.49 L 10.28 32.99 L 10.21 33.5 L 10.14 34.0 L 10.04 34.5 L 9.94 34.99 L 9.82 35.49 L 9.68 35.97 L 9.54 36.46 L 9.38 36.94" fill="none" stroke="#111" stroke-width="1.43" stroke-linecap="round" stroke-linejoin="round"/>
<path d="M 6.38 13.0 L 6.71 13.29 L 7.04 13.58 L 7.38 13.88 L 7.71 14.17 L 8.04 14.46 L 8.38 14.75 L 8.71 15.04 L 9.04 15.33 L 9.38 15.62 L 9.71 15.92 L 10.04 16.21 L 10.38 16.5 L 10.71 16.79 L 11.04 17.08 L 11.38 17.38 L 11.71 17.67 L 12.04 17.96 L 12.38 18.25 L 12.71 18.54 L 13.04 18.83 L 13.38 19.12 L 13.71 19.42 L 14.04 19.71 L 14.38 20.0" fill="none" stroke="#111" stroke-width="1.43" stroke-linecap="round" stroke-linejoin="round"/>
</svg>
