<?xml version="1.0" encoding="UTF-8"?>
<svg xmlns="http://www.w3.org/2000/svg" viewBox="0 0 22.40 38.00">
<path d="M 7.33 5.0 L 7.1 5.65 L 6.89 6.3 L 6.7 6.96 L 6.53 7.63 L 6.38 8.3 L 6.25 8.97 L 6.13 9.65 L 6.04 10.33 L 5.97 11.02 L 5.92 11.7 L 5.89 12.39 L 5.88 13.08 L 5.89 13.77 L 5.92 14.45 L 5.97 15.14 L 6.04 15.82 L 6.13 16.5 L 6.25 17.18 L 6.38 17.86 L 6.53 18.53 L 6.7 19.19 L 6.89 19.85 L 7.1 20.51 L 7.33 21.16 L 7.33 21.0 L 7.0 21.25 L 6.68 21.52 L 6.38 21.8 L 6.09 22.1 L 5.81 22.41 L 5.55 22.74 L 5.32 23.08 L 5.09 23.44 L 4.89 23.8 L 4.71 24.17 L 4.55 24.56 L 4.41 24.95 L 4.28 25.35 L 4.18 25.75 L 4.11 26.16 L 4.05 26.57 L 4.01 26.99 L 4.0 27.41 L 4.01 27.82 L 4.04 28.24 L 4.09 28.65 L 4.17 29.06 L 4.26 29.47 L 4.38 29.87" fill="none" stroke="#111" stroke-width="1.33" stroke-linecap="round" stroke-linejoin="round"/>
<path d="M 10.33 4.0 L 10.38 4.43 L 10.42 4.86 L 10.44 5.29 L 10.45 5.72 L 10.45 6.15 L 10.44 6.58 L 10.42 7.01 L 10.39 7.43 L 10.34 7.86 L 10.29 8.29 L 10.22 8.71 L 10.14 9.14 L 10.05 9.56 L 9.95 9.98 L 9.84 10.39 L 9.72 10.8 L 9.58 11.21 L 9.44 11.62 L 9.28 12.02 L 9.11 12.41 L 8.94 12.81 L 8.75 13.19 L 8.55 13.58 L 8.34 13.95" fill="none" stroke="#111" stroke-width="1.33" stroke-linecap="round" stroke-linejoin="round"/>
<path d="M 14.33 4.0 L 14.41 4.51 L 14.47 5.02 L 14.51 5.53 L 14.54 6.04 L 14.56 6.56 L 14.57 7.07 L 14.56 7.58 L 14.53 8.1 L 14.5 8.61 L 14.45 9.12 L 14.38 9.63 L 14.3 10.14 L 14.21 10.64 L 14.11 11.14 L 13.99 11.64 L 13.86 12.14 L 13.71 12.63 L 13.56 13.12 L 13.39 13.61 L 13.2 14.09 L 13.01 14.56 L 12.8 15.03 L 12.58 15.49 L 12.34 15.95" fill="none" stroke="#111" stroke-width="1.33" stroke-linecap="round" stroke-linejoin="round"/>
<path d="M 11.33 7.0 L 11.46 7.0 L 11.58 7.0 L 11.71 7.0 L 11.83 7.0 L 11.96 7.0 L 12.08 7.0 L 12.21 7.0 L 12.33 7.0 L 12.46 7.0 L 12.58 7.0 L 12.71 7.0 L 12.83 7.0 L 12.96 7.0 L 13.08 7.0 L 13.21 7.0 L 13.33 7.0 L 13.46 7.0 L 13.58 7.0 L 13.71 7.0 L 13.83 7.0 L 13.96 7.0 L 14.08 7.0 L 14.21 7.0 L 14.33 7.0" fill="none" stroke="#111" stroke-width="1.33" stroke-linecap="round" stroke-linejoin="round"/>
<path d="M 10.33 11.0 L 10.5 11.0 L 10.67 11.0 L 10.83 11.0 L 11.0 11.0 L 11.17 11.0 L 11.33 11.0 L 11.5 11.0 L 11.67 11.0 L 11.83 11.0 L 12.0 11.0 L 12.17 11.0 L 12.33 11.0 L 12.5 11.0 L 12.67 11.0 L 12.83 11.0 L 13.0 11.0 L 13.17 11.0 L 13.33 11.0 L 13.5 11.0 L 13.67 11.0 L 13.83 11.0 L 14.0 11.0 L 14.17 11.0 L 14.33 11.0" fill="none" stroke="#111" stroke-width="1.33" stroke-linecap="round" stroke-linejoin="round"/>
<path d="M 8.33 13.0 L 8.5 13.0 L 8.67 13.0 L 8.83 13.0 L 9.0 13.0 L 9.17 13.0 L 9.33 13.0 L 9.5 13.0 L 9.67 13.0 L 9.83 13.0 L 10.0 13.0 L 10.17 13.0 L 10.33 13.0 L 10.5 13.0 L 10.67 13.0 L 10.83 13.0 L 11.0 13.0 L 11.17 13.0 L 11.33 13.0 L 11.5 13.0 L 11.67 13.0 L 11.83 13.0 L 12.0 13.0 L 12.17 13.0 L 12.33 13.0" fill="none" stroke="#111" stroke-width="1.33" stroke-linecap="round" stroke-linejoin="round"/>
<path d="M 13.33 17.0 L 13.3 17.44 L 13.26 17.88 L 13.2 18.31 L 13.12 18.75 L 13.02 19.18 L 12.91 19.6 L 12.78 20.02 L 12.63 20.44 L 12.47 20.85 L 12.3 21.25 L 12.11 21.65 L 11.9 22.04 L 11.68 22.42 L 11.44 22.79 L 11.19 23.15 L 10.93 23.51 L 10.65 23.85 L 10.36 24.18 L 10.06 24.5 L 9.75 24.81 L 9.42 25.1 L 9.09 25.39 L 8.74 25.66 L 8.38 25.92" fill="none" stroke="#111" stroke-width="1.33" stroke-linecap="round" stroke-linejoin="round"/>
<path d="M 16.33 17.0 L 16.14 17.45 L 15.95 17.9 L 15.76 18.35 L 15.58 18.8 L 15.39 19.25 L 15.21 19.7 L 15.03 20.16 L 14.86 20.61 L 14.68 21.07 L 14.51 21.53 L 14.34 21.98 L 14.17 22.44 L 14.01 22.9 L 13.84 23.36 L 13.68 23.82 L 13.52 24.28 L 13.37 24.74 L 13.21 25.21 L 13.06 25.67 L 12.91 26.13 L 12.76 26.6 L 12.62 27.06 L 12.48 27.53 L 12.33 28.0" fill="none" stroke="#111" stroke-width="1.33" stroke-linecap="round" stroke-linejoin="round"/>
<path d="M 12.33 19.0 L 12.46 19.04 L 12.58 19.08 L 12.71 19.12 L 12.83 19.17 L 12.96 19.21 L 13.08 19.25 L 13.21 19.29 L 13.33 19.33 L 13.46 19.38 L 13.58 19.42 L 13.71 19.46 L 13.83 19.5 L 13.96 19.54 L 14.08 19.58 L 14.21 19.62 L 14.33 19.67 L 14.46 19.71 L 14.58 19.75 L 14.71 19.79 L 14.83 19.83 L 14.96 19.88 L 15.08 19.92 L 15.21 19.96 L 15.33 20.0" fill="none" stroke="#111" stroke-width="1.33" stroke-linecap="round" stroke-linejoin="round"/>
<path d="M 11.33 23.0 L 11.42 23.08 L 11.5 23.17 L 11.58 23.25 L 11.67 23.33 L 11.75 23.42 L 11.83 23.5 L 11.92 23.58 L 12.0 23.67 L 12.08 23.75 L 12.17 23.83 L 12.25 23.92 L 12.33 24.0 L 12.42 24.08 L 12.5 24.17 L 12.58 24.25 L 12.67 24.33 L 12.75 24.42 L 12.83 24.5 L 12.92 24.58 L 13.0 24.67 L 13.08 24.75 L 13.17 24.83 L 13.25 24.92 L 13.33 25.0" fill="none" stroke="#111" stroke-width="1.33" stroke-linecap="round" stroke-linejoin="round"/>
<path d="M 10.33 25.0 L 10.46 25.04 L 10.58 25.08 L 10.71 25.12 L 10.83 25.17 L 10.96 25.21 L 11.08 25.25 L 11.21 25.29 L 11.33 25.33 L 11.46 25.38 L 11.58 25.42 L 11.71 25.46 L 11.83 25.5 L 11.96 25.54 L 12.08 25.58 L 12.21 25.62 L 12.33 25.67 L 12.46 25.71 L 12.58 25.75 L 12.71 25.79 L 12.83 25.83 L 12.96 25.88 L 13.08 25.92 L 13.21 25.96 L 13.33 26.0" fill="none" stroke="#111" stroke-width="1.33" stroke-linecap="round" stroke-linejoin="round"/>
<path d="M 17.33 5.0 L 17.29 5.29 L 17.25 5.58 L 17.21 5.88 L 17.17 6.17 L 17.13 6.46 L 17.08 6.75 L 17.04 7.04 L 17.0 7.33 L 16.96 7.62 L 16.92 7.92 L 16.88 8.21 L 16.83 8.5 L 16.79 8.79 L 16.75 9.08 L 16.71 9.38 L 16.67 9.67 L 16.63 9.96 L 16.58 10.25 L 16.54 10.54 L 16.5 10.83 L 16.46 11.12 L 16.42 11.42 L 16.38 11.71 L 16.33 12.0 L 16.33 12.0 L 16.66 12.48 L 16.95 12.97 L 17.22 13.47 L 17.47 13.99 L 17.68 14.52 L 17.87 15.06 L 18.03 15.62 L 18.17 16.17 L 18.27 16.74 L 18.34 17.31 L 18.39 17.88 L 18.4 18.45 L 18.39 19.03 L 18.34 19.6 L 18.27 20.17 L 18.17 20.73 L 18.03 21.29 L 17.87 21.84 L 17.68 22.38 L 17.47 22.91 L 17.22 23.43 L 16.95 23.94 L 16.66 24.43 L 16.33 24.9 L 16.33 25.0 L 16.42 25.38 L 16.5 25.75 L 16.58 26.12 L 16.67 26.5 L 16.75 26.88 L 16.83 27.25 L 16.92 27.62 L 17.0 28.0 L 17.08 28.38 L 17.17 28.75 L 17.25 29.12 L 17.33 29.5 L 17.42 29.88 L 17.5 30.25 L 17.58 30.62 L 17.67 31.0 L 17.75 31.38 L 17.83 31.75 L 17.92 32.12 L 18.0 32.5 L 18.08 32.88 L 18.17 33.25 L 18.25 33.62 L 18.33 34.0" fill="none" stroke="#111" stroke-width="1.33" stroke-linecap="round" stroke-linejoin="round"/>
</svg>
