<?xml version="1.0" encoding="UTF-8"?>
<svg xmlns="http://www.w3.org/2000/svg" viewBox="0 0 24.00 28.71">
<path d="M 4.0 4.0 L 4.62 4.0 L 5.25 4.0 L 5.88 4.0 L 6.5 4.0 L 7.12 4.0 L 7.75 4.0 L 8.38 4.0 L 9.0 4.0 L 9.62 4.0 L 10.25 4.0 L 10.88 4.0 L 11.5 4.0 L 12.12 4.0 L 12.75 4.0 L 13.38 4.0 L 14.0 4.0 L 14.62 4.0 L 15.25 4.0 L 15.88 4.0 L 16.5 4.0 L 17.12 4.0 L 17.75 4.0 L 18.38 4.0 L 19.0 4.0 L 19.0 4.0 L 19.04 4.71 L 19.08 5.42 L 19.12 6.12 L 19.17 6.83 L 19.21 7.54 L 19.25 8.25 L 19.29 8.96 L 19.33 9.67 L 19.38 10.38 L 19.42 11.08 L 19.46 11.79 L 19.5 12.5 L 19.54 13.21 L 19.58 13.92 L 19.62 14.62 L 19.67 15.33 L 19.71 16.04 L 19.75 16.75 L 19.79 17.46 L 19.83 18.17 L 19.88 18.88 L 19.92 19.58 L 19.96 20.29 L 20.0 21.0" fill="none" stroke="#111" stroke-width="1.00" stroke-linecap="round" stroke-linejoin="round"/>
<path d="M 9.0 4.0 L 9.46 4.33 L 9.92 4.67 L 10.38 5.0 L 10.83 5.33 L 11.29 5.67 L 11.75 6.0 L 12.21 6.33 L 12.67 6.67 L 13.12 7.0 L 13.58 7.33 L 14.04 7.67 L 14.5 8.0 L 14.96 8.33 L 15.42 8.67 L 15.88 9.0 L 16.33 9.33 L 16.79 9.67 L 17.25 10.0 L 17.71 10.33 L 18.17 10.67 L 18.62 11.0 L 19.08 11.33 L 19.54 11.67 L 20.0 12.0" fill="none" stroke="#111" stroke-width="1.00" stroke-linecap="round" stroke-linejoin="round"/>
<path d="M 6.0 7.0 L 6.0 7.17 L 6.0 7.33 L 6.0 7.5 L 6.0 7.67 L 6.0 7.83 L 6.0 8.0 L 6.0 8.17 L 6.0 8.33 L 6.0 8.5 L 6.0 8.67 L 6.0 8.83 L 6.0 9.0 L 6.0 9.17 L 6.0 9.33 L 6.0 9.5 L 6.0 9.67 L 6.0 9.83 L 6.0 10.0 L 6.0 10.17 L 6.0 10.33 L 6.0 10.5 L 6.0 10.67 L 6.0 10.83 L 6.0 11.0" fill="none" stroke="#111" stroke-width="1.00" stroke-linecap="round" stroke-linejoin="round"/>
<path d="M 11.0 10.0 L 11.23 10.52 L 11.42 11.06 L 11.58 11.6 L 11.7 12.16 L 11.79 12.72 L 11.84 13.29 L 11.86 13.86 L 11.84 14.42 L 11.78 14.99 L 11.69 15.55 L 11.56 16.11 L 11.4 16.65 L 11.2 17.19 L 10.97 17.71 L 10.71 18.21 L 10.41 18.7 L 10.09 19.16 L 9.74 19.61 L 9.35 20.03 L 8.95 20.43 L 8.51 20.8 L 8.06 21.14 L 7.58 21.45 L 7.09 21.73" fill="none" stroke="#111" stroke-width="1.00" stroke-linecap="round" stroke-linejoin="round"/>
<path d="M 11.0 18.0 L 11.17 18.12 L 11.33 18.25 L 11.5 18.38 L 11.67 18.5 L 11.83 18.62 L 12.0 18.75 L 12.17 18.88 L 12.33 19.0 L 12.5 19.12 L 12.67 19.25 L 12.83 19.38 L 13.0 19.5 L 13.17 19.62 L 13.33 19.75 L 13.5 19.88 L 13.67 20.0 L 13.83 20.12 L 14.0 20.25 L 14.17 20.38 L 14.33 20.5 L 14.5 20.62 L 14.67 20.75 L 14.83 20.88 L 15.0 21.0" fill="none" stroke="#111" stroke-width="1.00" stroke-linecap="round" stroke-linejoin="round"/>
<path d="M 13.0 11.0 L 13.0 11.17 L 13.0 11.33 L 13.0 11.5 L 13.0 11.67 L 13.0 11.83 L 13.0 12.0 L 13.0 12.17 L 13.0 12.33 L 13.0 12.5 L 13.0 12.67 L 13.0 12.83 L 13.0 13.0 L 13.0 13.17 L 13.0 13.33 L 13.0 13.5 L 13.0 13.67 L 13.0 13.83 L 13.0 14.0 L 13.0 14.17 L 13.0 14.33 L 13.0 14.5 L 13.0 14.67 L 13.0 14.83 L 13.0 15.0" fill="none" stroke="#111" stroke-width="1.00" stroke-linecap="round" stroke-linejoin="round"/>
<path d="M 4.0 13.0 L 4.04 13.42 L 4.08 13.83 L 4.12 14.25 L 4.17 14.67 L 4.21 15.08 L 4.25 15.5 L 4.29 15.92 L 4.33 16.33 L 4.38 16.75 L 4.42 17.17 L 4.46 17.58 L 4.5 18.0 L 4.54 18.42 L 4.58 18.83 L 4.62 19.25 L 4.67 19.67 L 4.71 20.08 L 4.75 20.5 L 4.79 20.92 L 4.83 21.33 L 4.87 21.75 L 4.92 22.17 L 4.96 22.58 L 5.0 23.0 L 5.0 23.0 L 5.83 23.57 L 6.72 24.03 L 7.66 24.37 L 8.64 24.6 L 9.63 24.71 L 10.64 24.68 L 11.63 24.54 L 12.59 24.27 L 13.52 23.89 L 14.39 23.39 L 15.19 22.79 L 15.92 22.1 L 16.55 21.32 L 17.08 20.46 L 17.5 19.55 L 17.8 18.6 L 17.98 17.61 L 18.04 16.61 L 17.97 15.61 L 17.78 14.62 L 17.47 13.67 L 17.04 12.76 L 16.51 11.92 L 15.87 11.14" fill="none" stroke="#111" stroke-width="1.00" stroke-linecap="round" stroke-linejoin="round"/>
</svg>
