<?xml version="1.0" encoding="UTF-8"?>
<svg xmlns="http://www.w3.org/2000/svg" viewBox="0 0 28.31 33.94">
<path d="M 13.93 4.0 L 13.42 5.02 L 12.97 6.07 L 12.56 7.14 L 12.2 8.22 L 11.89 9.32 L 11.64 10.44 L 11.43 11.56 L 11.28 12.69 L 11.19 13.83 L 11.14 14.97 L 11.15 16.11 L 11.21 17.26 L 11.32 18.39 L 11.49 19.52 L 11.71 20.64 L 11.98 21.75 L 12.3 22.85 L 12.68 23.93 L 13.1 24.99 L 13.57 26.03 L 14.09 27.05 L 14.66 28.04 L 15.27 29.0 L 15.92 29.94" fill="none" stroke="#111" stroke-width="1.19" stroke-linecap="round" stroke-linejoin="round"/>
<path d="M 4.93 15.0 L 4.37 16.52 L 4.06 18.11 L 4.0 19.73 L 4.2 21.33 L 4.66 22.89 L 5.35 24.35 L 6.27 25.69 L 7.39 26.86 L 8.68 27.84 L 10.11 28.6 L 11.64 29.12 L 13.24 29.4 L 14.86 29.41 L 16.46 29.17 L 18.0 28.68 L 19.45 27.95 L 20.76 27.0 L 21.91 25.86 L 22.85 24.54 L 23.58 23.1 L 24.07 21.55 L 24.31 19.95 L 24.28 18.33 L 24.01 16.73" fill="none" stroke="#111" stroke-width="1.19" stroke-linecap="round" stroke-linejoin="round"/>
<path d="M 6.93 23.0 L 7.32 23.24 L 7.73 23.46 L 8.15 23.65 L 8.58 23.81 L 9.02 23.95 L 9.47 24.05 L 9.93 24.13 L 10.39 24.17 L 10.85 24.19 L 11.31 24.17 L 11.77 24.13 L 12.23 24.05 L 12.68 23.94 L 13.12 23.81 L 13.55 23.65 L 13.97 23.46 L 14.38 23.24 L 14.77 22.99 L 15.14 22.72 L 15.5 22.43 L 15.84 22.11 L 16.15 21.78 L 16.44 21.42 L 16.71 21.04" fill="none" stroke="#111" stroke-width="1.19" stroke-linecap="round" stroke-linejoin="round"/>
</svg>
