<?xml version="1.0" encoding="UTF-8"?>
<svg xmlns="http://www.w3.org/2000/svg" viewBox="0 0 20.01 40.96">
<path d="M 8.08 12.0 L 7.4 12.58 L 6.76 13.22 L 6.19 13.91 L 5.67 14.65 L 5.22 15.42 L 4.83 16.24 L 4.52 17.08 L 4.27 17.95 L 4.11 18.83 L 4.02 19.73 L 4.0 20.63 L 4.06 21.52 L 4.2 22.41 L 4.41 23.29 L 4.7 24.14 L 5.05 24.97 L 5.48 25.76 L 5.97 26.51 L 6.53 27.22 L 7.14 27.88 L 7.8 28.49 L 8.52 29.03 L 9.28 29.51 L 10.08 29.93" fill="none" stroke="#111" stroke-width="1.43" stroke-linecap="round" stroke-linejoin="round"/>
<path d="M 10.08 5.0 L 10.34 5.35 L 10.59 5.71 L 10.82 6.08 L 11.04 6.46 L 11.24 6.84 L 11.43 7.24 L 11.6 7.64 L 11.76 8.05 L 11.9 8.46 L 12.03 8.88 L 12.14 9.3 L 12.23 9.72 L 12.31 10.15 L 12.37 10.59 L 12.42 11.02 L 12.44 11.46 L 12.45 11.89 L 12.45 12.33 L 12.43 12.76 L 12.39 13.2 L 12.33 13.63 L 12.26 14.06 L 12.17 14.49 L 12.07 14.91" fill="none" stroke="#111" stroke-width="1.43" stroke-linecap="round" stroke-linejoin="round"/>
<path d="M 14.08 4.0 L 14.12 4.39 L 14.14 4.78 L 14.13 5.17 L 14.11 5.55 L 14.07 5.94 L 14.02 6.33 L 13.94 6.71 L 13.84 7.09 L 13.73 7.46 L 13.6 7.82 L 13.45 8.18 L 13.29 8.54 L 13.1 8.88 L 12.9 9.21 L 12.69 9.54 L 12.46 9.85 L 12.22 10.16 L 11.96 10.45 L 11.68 10.72 L 11.4 10.99 L 11.1 11.24 L 10.79 11.47 L 10.47 11.69 L 10.14 11.9" fill="none" stroke="#111" stroke-width="1.43" stroke-linecap="round" stroke-linejoin="round"/>
<path d="M 8.08 13.0 L 8.01 13.52 L 7.98 14.05 L 7.99 14.58 L 8.05 15.11 L 8.16 15.63 L 8.31 16.13 L 8.5 16.62 L 8.74 17.1 L 9.01 17.55 L 9.33 17.98 L 9.68 18.37 L 10.06 18.74 L 10.47 19.07 L 10.91 19.36 L 11.38 19.62 L 11.86 19.83 L 12.36 20.0 L 12.87 20.13 L 13.4 20.21 L 13.92 20.25 L 14.45 20.24 L 14.98 20.18 L 15.5 20.08 L 16.01 19.93" fill="none" stroke="#111" stroke-width="1.43" stroke-linecap="round" stroke-linejoin="round"/>
<path d="M 11.08 20.0 L 10.97 20.36 L 10.86 20.73 L 10.76 21.1 L 10.66 21.47 L 10.57 21.84 L 10.49 22.21 L 10.41 22.58 L 10.34 22.96 L 10.27 23.34 L 10.21 23.71 L 10.16 24.09 L 10.12 24.47 L 10.08 24.85 L 10.04 25.23 L 10.02 25.61 L 10.0 25.99 L 9.99 26.37 L 9.98 26.76 L 9.98 27.14 L 9.99 27.52 L 10.0 27.9 L 10.02 28.28 L 10.05 28.66 L 10.08 29.04" fill="none" stroke="#111" stroke-width="1.43" stroke-linecap="round" stroke-linejoin="round"/>
<path d="M 13.08 24.0 L 13.32 24.37 L 13.52 24.75 L 13.7 25.14 L 13.86 25.55 L 13.98 25.96 L 14.08 26.38 L 14.15 26.81 L 14.18 27.24 L 14.19 27.68 L 14.17 28.11 L 14.12 28.54 L 14.04 28.97 L 13.93 29.39 L 13.8 29.8 L 13.63 30.2 L 13.44 30.59 L 13.22 30.96 L 12.98 31.32 L 12.71 31.66 L 12.43 31.99 L 12.11 32.29 L 11.78 32.57 L 11.44 32.83 L 11.07 33.06" fill="none" stroke="#111" stroke-width="1.43" stroke-linecap="round" stroke-linejoin="round"/>
<path d="M 11.08 26.0 L 11.39 26.38 L 11.69 26.77 L 11.97 27.17 L 12.23 27.58 L 12.48 28.0 L 12.72 28.43 L 12.94 28.86 L 13.14 29.31 L 13.33 29.76 L 13.5 30.22 L 13.65 30.68 L 13.79 31.15 L 13.91 31.62 L 14.01 32.1 L 14.1 32.58 L 14.17 33.07 L 14.22 33.55 L 14.25 34.04 L 14.26 34.53 L 14.26 35.02 L 14.24 35.51 L 14.2 35.99 L 14.15 36.48 L 14.07 36.96" fill="none" stroke="#111" stroke-width="1.43" stroke-linecap="round" stroke-linejoin="round"/>
</svg>
