<?xml version="1.0" encoding="UTF-8"?>
<svg xmlns="http://www.w3.org/2000/svg" viewBox="0 0 25.10 40.01">
<path d="M 18.1 4.06 L 17.62 4.03 L 17.14 4.01 L 16.66 4.0 L 16.18 4.01 L 15.7 4.03 L 15.22 4.06 L 14.74 4.11 L 14.26 4.18 L 13.79 4.25 L 13.32 4.35 L 12.85 4.45 L 12.38 4.57 L 11.92 4.71 L 11.46 4.85 L 11.01 5.01 L 10.56 5.19 L 10.12 5.37 L 9.68 5.57 L 9.25 5.79 L 8.82 6.01 L 8.41 6.25 L 7.99 6.5 L 7.59 6.76 L 7.2 7.04" fill="none" stroke="#111" stroke-width="1.40" stroke-linecap="round" stroke-linejoin="round"/>
<path d="M 7.1 8.06 L 7.34 8.53 L 7.63 8.96 L 7.96 9.37 L 8.34 9.73 L 8.75 10.06 L 9.19 10.34 L 9.65 10.58 L 10.14 10.76 L 10.64 10.9 L 11.16 10.98 L 11.68 11.01 L 12.2 10.99 L 12.72 10.91 L 13.23 10.78 L 13.72 10.59 L 14.18 10.36 L 14.63 10.08 L 15.04 9.76 L 15.41 9.39 L 15.75 8.99 L 16.04 8.56 L 16.29 8.1 L 16.48 7.61 L 16.63 7.11 L 17.1 7.06 L 17.06 6.98 L 17.02 6.9 L 16.98 6.81 L 16.93 6.73 L 16.89 6.65 L 16.85 6.56 L 16.81 6.48 L 16.77 6.4 L 16.73 6.31 L 16.68 6.23 L 16.64 6.15 L 16.6 6.06 L 16.56 5.98 L 16.52 5.9 L 16.48 5.81 L 16.43 5.73 L 16.39 5.65 L 16.35 5.56 L 16.31 5.48 L 16.27 5.4 L 16.23 5.31 L 16.18 5.23 L 16.14 5.15 L 16.1 5.06" fill="none" stroke="#111" stroke-width="1.40" stroke-linecap="round" stroke-linejoin="round"/>
<path d="M 10.1 6.06 L 10.14 6.15 L 10.18 6.23 L 10.23 6.31 L 10.27 6.4 L 10.31 6.48 L 10.35 6.56 L 10.39 6.65 L 10.43 6.73 L 10.48 6.81 L 10.52 6.9 L 10.56 6.98 L 10.6 7.06 L 10.64 7.15 L 10.68 7.23 L 10.73 7.31 L 10.77 7.4 L 10.81 7.48 L 10.85 7.56 L 10.89 7.65 L 10.93 7.73 L 10.98 7.81 L 11.02 7.9 L 11.06 7.98 L 11.1 8.06" fill="none" stroke="#111" stroke-width="1.40" stroke-linecap="round" stroke-linejoin="round"/>
<path d="M 13.1 5.06 L 13.14 5.15 L 13.18 5.23 L 13.23 5.31 L 13.27 5.4 L 13.31 5.48 L 13.35 5.56 L 13.39 5.65 L 13.43 5.73 L 13.48 5.81 L 13.52 5.9 L 13.56 5.98 L 13.6 6.06 L 13.64 6.15 L 13.68 6.23 L 13.73 6.31 L 13.77 6.4 L 13.81 6.48 L 13.85 6.56 L 13.89 6.65 L 13.93 6.73 L 13.98 6.81 L 14.02 6.9 L 14.06 6.98 L 14.1 7.06" fill="none" stroke="#111" stroke-width="1.40" stroke-linecap="round" stroke-linejoin="round"/>
<path d="M 13.1 9.06 L 13.43 9.77 L 13.77 10.48 L 14.1 11.19 L 14.43 11.9 L 14.77 12.61 L 15.1 13.31 L 15.43 14.02 L 15.77 14.73 L 16.1 15.44 L 16.43 16.15 L 16.77 16.86 L 17.1 17.56 L 17.43 18.27 L 17.77 18.98 L 18.1 19.69 L 18.43 20.4 L 18.77 21.11 L 19.1 21.81 L 19.43 22.52 L 19.77 23.23 L 20.1 23.94 L 20.43 24.65 L 20.77 25.36 L 21.1 26.06" fill="none" stroke="#111" stroke-width="1.40" stroke-linecap="round" stroke-linejoin="round"/>
<path d="M 10.1 17.06 L 10.19 16.7 L 10.3 16.34 L 10.43 15.98 L 10.59 15.64 L 10.76 15.3 L 10.96 14.98 L 11.18 14.67 L 11.41 14.37 L 11.66 14.09 L 11.93 13.83 L 12.22 13.58 L 12.52 13.35 L 12.83 13.14 L 13.16 12.95 L 13.5 12.78 L 13.85 12.63 L 14.2 12.51 L 14.57 12.4 L 14.94 12.32 L 15.31 12.27 L 15.69 12.23 L 16.06 12.22 L 16.44 12.23 L 16.82 12.27" fill="none" stroke="#111" stroke-width="1.40" stroke-linecap="round" stroke-linejoin="round"/>
<path d="M 17.1 10.06 L 16.93 10.11 L 16.77 10.15 L 16.6 10.19 L 16.43 10.23 L 16.27 10.27 L 16.1 10.31 L 15.93 10.36 L 15.77 10.4 L 15.6 10.44 L 15.43 10.48 L 15.27 10.52 L 15.1 10.56 L 14.93 10.61 L 14.77 10.65 L 14.6 10.69 L 14.43 10.73 L 14.27 10.77 L 14.1 10.81 L 13.93 10.86 L 13.77 10.9 L 13.6 10.94 L 13.43 10.98 L 13.27 11.02 L 13.1 11.06" fill="none" stroke="#111" stroke-width="1.40" stroke-linecap="round" stroke-linejoin="round"/>
<path d="M 14.1 19.06 L 14.18 18.94 L 14.27 18.81 L 14.35 18.69 L 14.43 18.56 L 14.52 18.44 L 14.6 18.31 L 14.68 18.19 L 14.77 18.06 L 14.85 17.94 L 14.93 17.81 L 15.02 17.69 L 15.1 17.56 L 15.18 17.44 L 15.27 17.31 L 15.35 17.19 L 15.43 17.06 L 15.52 16.94 L 15.6 16.81 L 15.68 16.69 L 15.77 16.56 L 15.85 16.44 L 15.93 16.31 L 16.02 16.19 L 16.1 16.06" fill="none" stroke="#111" stroke-width="1.40" stroke-linecap="round" stroke-linejoin="round"/>
<path d="M 14.1 25.06 L 14.23 24.77 L 14.35 24.48 L 14.48 24.19 L 14.6 23.9 L 14.73 23.61 L 14.85 23.31 L 14.98 23.02 L 15.1 22.73 L 15.23 22.44 L 15.35 22.15 L 15.48 21.86 L 15.6 21.56 L 15.73 21.27 L 15.85 20.98 L 15.98 20.69 L 16.1 20.4 L 16.23 20.11 L 16.35 19.81 L 16.48 19.52 L 16.6 19.23 L 16.73 18.94 L 16.85 18.65 L 16.98 18.36 L 17.1 18.06 L 17.1 18.06 L 17.27 18.11 L 17.43 18.15 L 17.6 18.19 L 17.77 18.23 L 17.93 18.27 L 18.1 18.31 L 18.27 18.36 L 18.43 18.4 L 18.6 18.44 L 18.77 18.48 L 18.93 18.52 L 19.1 18.56 L 19.27 18.61 L 19.43 18.65 L 19.6 18.69 L 19.77 18.73 L 19.93 18.77 L 20.1 18.81 L 20.27 18.86 L 20.43 18.9 L 20.6 18.94 L 20.77 18.98 L 20.93 19.02 L 21.1 19.06" fill="none" stroke="#111" stroke-width="1.40" stroke-linecap="round" stroke-linejoin="round"/>
<path d="M 7.1 16.06 L 7.23 16.61 L 7.35 17.15 L 7.48 17.69 L 7.6 18.23 L 7.73 18.77 L 7.85 19.31 L 7.98 19.86 L 8.1 20.4 L 8.23 20.94 L 8.35 21.48 L 8.48 22.02 L 8.6 22.56 L 8.73 23.11 L 8.85 23.65 L 8.98 24.19 L 9.1 24.73 L 9.23 25.27 L 9.35 25.81 L 9.48 26.36 L 9.6 26.9 L 9.73 27.44 L 9.85 27.98 L 9.98 28.52 L 10.1 29.06" fill="none" stroke="#111" stroke-width="1.40" stroke-linecap="round" stroke-linejoin="round"/>
<path d="M 4.1 20.06 L 4.0 20.76 L 4.01 21.47 L 4.14 22.16 L 4.38 22.82 L 4.73 23.44 L 5.17 23.99 L 5.69 24.46 L 6.28 24.84 L 6.93 25.12 L 7.61 25.29 L 8.32 25.35 L 9.02 25.29 L 9.7 25.11 L 10.35 24.83 L 10.94 24.45 L 11.46 23.98 L 11.9 23.42 L 12.24 22.81 L 12.48 22.15 L 12.61 21.45 L 12.62 20.75 L 12.52 20.05 L 12.3 19.38 L 11.98 18.75" fill="none" stroke="#111" stroke-width="1.40" stroke-linecap="round" stroke-linejoin="round"/>
<path d="M 5.1 22.06 L 5.35 21.98 L 5.6 21.9 L 5.85 21.81 L 6.1 21.73 L 6.35 21.65 L 6.6 21.56 L 6.85 21.48 L 7.1 21.4 L 7.35 21.31 L 7.6 21.23 L 7.85 21.15 L 8.1 21.06 L 8.35 20.98 L 8.6 20.9 L 8.85 20.81 L 9.1 20.73 L 9.35 20.65 L 9.6 20.56 L 9.85 20.48 L 10.1 20.4 L 10.35 20.31 L 10.6 20.23 L 10.85 20.15 L 11.1 20.06" fill="none" stroke="#111" stroke-width="1.40" stroke-linecap="round" stroke-linejoin="round"/>
<path d="M 9.1 28.06 L 8.82 28.32 L 8.54 28.58 L 8.27 28.85 L 8.02 29.13 L 7.77 29.42 L 7.53 29.71 L 7.3 30.02 L 7.08 30.33 L 6.88 30.65 L 6.68 30.97 L 6.49 31.3 L 6.32 31.64 L 6.15 31.98 L 6.0 32.33 L 5.86 32.68 L 5.73 33.04 L 5.61 33.4 L 5.5 33.77 L 5.41 34.14 L 5.33 34.51 L 5.26 34.88 L 5.2 35.26 L 5.16 35.63 L 5.13 36.01" fill="none" stroke="#111" stroke-width="1.40" stroke-linecap="round" stroke-linejoin="round"/>
<path d="M 5.1 27.06 L 5.12 27.35 L 5.15 27.63 L 5.19 27.9 L 5.25 28.18 L 5.33 28.45 L 5.42 28.72 L 5.52 28.98 L 5.64 29.24 L 5.77 29.49 L 5.91 29.73 L 6.07 29.96 L 6.24 30.19 L 6.42 30.4 L 6.62 30.61 L 6.82 30.8 L 7.04 30.99 L 7.26 31.16 L 7.49 31.32 L 7.73 31.46 L 7.98 31.59 L 8.24 31.71 L 8.5 31.82 L 8.77 31.91 L 9.04 31.99" fill="none" stroke="#111" stroke-width="1.40" stroke-linecap="round" stroke-linejoin="round"/>
<path d="M 10.1 25.06 L 10.46 25.35 L 10.8 25.64 L 11.14 25.95 L 11.48 26.26 L 11.8 26.58 L 12.12 26.91 L 12.42 27.25 L 12.72 27.6 L 13.01 27.95 L 13.28 28.32 L 13.55 28.68 L 13.81 29.06 L 14.06 29.44 L 14.29 29.83 L 14.52 30.23 L 14.74 30.63 L 14.94 31.04 L 15.14 31.45 L 15.32 31.87 L 15.5 32.29 L 15.66 32.72 L 15.81 33.15 L 15.95 33.58 L 16.07 34.02" fill="none" stroke="#111" stroke-width="1.40" stroke-linecap="round" stroke-linejoin="round"/>
<path d="M 14.1 25.06 L 14.05 25.28 L 13.99 25.5 L 13.93 25.72 L 13.87 25.93 L 13.8 26.15 L 13.74 26.36 L 13.67 26.58 L 13.59 26.79 L 13.52 27.0 L 13.44 27.21 L 13.36 27.42 L 13.28 27.63 L 13.19 27.84 L 13.11 28.05 L 13.02 28.26 L 12.93 28.46 L 12.83 28.66 L 12.73 28.87 L 12.63 29.07 L 12.53 29.27 L 12.43 29.47 L 12.32 29.67 L 12.21 29.86 L 12.1 30.06" fill="none" stroke="#111" stroke-width="1.40" stroke-linecap="round" stroke-linejoin="round"/>
</svg>
