<?xml version="1.0" encoding="UTF-8"?>
<svg xmlns="http://www.w3.org/2000/svg" viewBox="0 0 23.00 31.98">
<path d="M 11.0 4.0 L 10.78 4.27 L 10.56 4.55 L 10.36 4.84 L 10.17 5.14 L 9.99 5.45 L 9.82 5.76 L 9.67 6.07 L 9.53 6.4 L 9.4 6.72 L 9.28 7.06 L 9.17 7.39 L 9.08 7.73 L 9.0 8.08 L 8.94 8.43 L 8.88 8.77 L 8.84 9.13 L 8.82 9.48 L 8.81 9.83 L 8.81 10.18 L 8.82 10.54 L 8.85 10.89 L 8.89 11.24 L 8.95 11.59 L 9.02 11.93 L 9.0 12.0 L 9.08 12.04 L 9.17 12.08 L 9.25 12.12 L 9.33 12.17 L 9.42 12.21 L 9.5 12.25 L 9.58 12.29 L 9.67 12.33 L 9.75 12.38 L 9.83 12.42 L 9.92 12.46 L 10.0 12.5 L 10.08 12.54 L 10.17 12.58 L 10.25 12.62 L 10.33 12.67 L 10.42 12.71 L 10.5 12.75 L 10.58 12.79 L 10.67 12.83 L 10.75 12.88 L 10.83 12.92 L 10.92 12.96 L 11.0 13.0" fill="none" stroke="#111" stroke-width="1.12" stroke-linecap="round" stroke-linejoin="round"/>
<path d="M 11.0 4.0 L 11.08 4.17 L 11.17 4.33 L 11.25 4.5 L 11.33 4.67 L 11.42 4.83 L 11.5 5.0 L 11.58 5.17 L 11.67 5.33 L 11.75 5.5 L 11.83 5.67 L 11.92 5.83 L 12.0 6.0 L 12.08 6.17 L 12.17 6.33 L 12.25 6.5 L 12.33 6.67 L 12.42 6.83 L 12.5 7.0 L 12.58 7.17 L 12.67 7.33 L 12.75 7.5 L 12.83 7.67 L 12.92 7.83 L 13.0 8.0 L 13.0 8.0 L 12.92 8.21 L 12.83 8.42 L 12.75 8.62 L 12.67 8.83 L 12.58 9.04 L 12.5 9.25 L 12.42 9.46 L 12.33 9.67 L 12.25 9.88 L 12.17 10.08 L 12.08 10.29 L 12.0 10.5 L 11.92 10.71 L 11.83 10.92 L 11.75 11.12 L 11.67 11.33 L 11.58 11.54 L 11.5 11.75 L 11.42 11.96 L 11.33 12.17 L 11.25 12.38 L 11.17 12.58 L 11.08 12.79 L 11.0 13.0" fill="none" stroke="#111" stroke-width="1.12" stroke-linecap="round" stroke-linejoin="round"/>
<path d="M 9.0 8.0 L 9.17 8.0 L 9.33 8.0 L 9.5 8.0 L 9.67 8.0 L 9.83 8.0 L 10.0 8.0 L 10.17 8.0 L 10.33 8.0 L 10.5 8.0 L 10.67 8.0 L 10.83 8.0 L 11.0 8.0 L 11.17 8.0 L 11.33 8.0 L 11.5 8.0 L 11.67 8.0 L 11.83 8.0 L 12.0 8.0 L 12.17 8.0 L 12.33 8.0 L 12.5 8.0 L 12.67 8.0 L 12.83 8.0 L 13.0 8.0" fill="none" stroke="#111" stroke-width="1.12" stroke-linecap="round" stroke-linejoin="round"/>
<path d="M 10.0 13.0 L 9.85 13.17 L 9.71 13.34 L 9.58 13.53 L 9.47 13.72 L 9.36 13.92 L 9.27 14.13 L 9.2 14.34 L 9.13 14.55 L 9.08 14.77 L 9.05 15.0 L 9.03 15.22 L 9.02 15.44 L 9.03 15.67 L 9.05 15.89 L 9.08 16.12 L 9.13 16.33 L 9.2 16.55 L 9.27 16.76 L 9.36 16.97 L 9.47 17.17 L 9.58 17.36 L 9.71 17.55 L 9.85 17.72 L 10.0 17.89 L 10.0 18.0 L 10.34 18.04 L 10.67 18.04 L 11.01 17.99 L 11.33 17.9 L 11.64 17.77 L 11.93 17.59 L 12.2 17.38 L 12.43 17.14 L 12.63 16.87 L 12.79 16.57 L 12.92 16.25 L 12.99 15.92 L 13.03 15.59 L 13.01 15.25 L 12.96 14.91 L 12.86 14.59 L 12.72 14.29 L 12.53 14.0 L 12.32 13.74 L 12.07 13.51 L 11.79 13.32 L 11.49 13.17 L 11.17 13.06 L 10.84 12.99" fill="none" stroke="#111" stroke-width="1.12" stroke-linecap="round" stroke-linejoin="round"/>
<path d="M 10.0 20.0 L 10.0 20.29 L 10.0 20.58 L 10.0 20.88 L 10.0 21.17 L 10.0 21.46 L 10.0 21.75 L 10.0 22.04 L 10.0 22.33 L 10.0 22.62 L 10.0 22.92 L 10.0 23.21 L 10.0 23.5 L 10.0 23.79 L 10.0 24.08 L 10.0 24.38 L 10.0 24.67 L 10.0 24.96 L 10.0 25.25 L 10.0 25.54 L 10.0 25.83 L 10.0 26.12 L 10.0 26.42 L 10.0 26.71 L 10.0 27.0" fill="none" stroke="#111" stroke-width="1.12" stroke-linecap="round" stroke-linejoin="round"/>
<path d="M 8.0 19.0 L 8.17 19.21 L 8.33 19.42 L 8.5 19.62 L 8.67 19.83 L 8.83 20.04 L 9.0 20.25 L 9.17 20.46 L 9.33 20.67 L 9.5 20.88 L 9.67 21.08 L 9.83 21.29 L 10.0 21.5 L 10.17 21.71 L 10.33 21.92 L 10.5 22.12 L 10.67 22.33 L 10.83 22.54 L 11.0 22.75 L 11.17 22.96 L 11.33 23.17 L 11.5 23.38 L 11.67 23.58 L 11.83 23.79 L 12.0 24.0" fill="none" stroke="#111" stroke-width="1.12" stroke-linecap="round" stroke-linejoin="round"/>
<path d="M 8.0 25.0 L 8.21 24.75 L 8.42 24.5 L 8.62 24.25 L 8.83 24.0 L 9.04 23.75 L 9.25 23.5 L 9.46 23.25 L 9.67 23.0 L 9.88 22.75 L 10.08 22.5 L 10.29 22.25 L 10.5 22.0 L 10.71 21.75 L 10.92 21.5 L 11.12 21.25 L 11.33 21.0 L 11.54 20.75 L 11.75 20.5 L 11.96 20.25 L 12.17 20.0 L 12.38 19.75 L 12.58 19.5 L 12.79 19.25 L 13.0 19.0" fill="none" stroke="#111" stroke-width="1.12" stroke-linecap="round" stroke-linejoin="round"/>
<path d="M 6.0 27.0 L 6.31 27.15 L 6.62 27.3 L 6.94 27.42 L 7.26 27.54 L 7.59 27.64 L 7.92 27.73 L 8.26 27.81 L 8.59 27.87 L 8.94 27.92 L 9.28 27.95 L 9.62 27.97 L 9.96 27.98 L 10.31 27.97 L 10.65 27.95 L 10.99 27.92 L 11.33 27.87 L 11.67 27.81 L 12.0 27.73 L 12.34 27.64 L 12.66 27.54 L 12.99 27.42 L 13.31 27.3 L 13.62 27.15 L 13.93 27.0" fill="none" stroke="#111" stroke-width="1.12" stroke-linecap="round" stroke-linejoin="round"/>
<path d="M 4.0 8.0 L 4.08 8.38 L 4.17 8.75 L 4.25 9.12 L 4.33 9.5 L 4.42 9.88 L 4.5 10.25 L 4.58 10.62 L 4.67 11.0 L 4.75 11.38 L 4.83 11.75 L 4.92 12.12 L 5.0 12.5 L 5.08 12.88 L 5.17 13.25 L 5.25 13.62 L 5.33 14.0 L 5.42 14.38 L 5.5 14.75 L 5.58 15.12 L 5.67 15.5 L 5.75 15.88 L 5.83 16.25 L 5.92 16.62 L 6.0 17.0 L 6.0 17.0 L 5.74 17.3 L 5.5 17.61 L 5.27 17.94 L 5.06 18.27 L 4.87 18.62 L 4.7 18.97 L 4.55 19.34 L 4.41 19.71 L 4.3 20.09 L 4.2 20.47 L 4.13 20.86 L 4.08 21.25 L 4.04 21.64 L 4.03 22.04 L 4.04 22.43 L 4.07 22.83 L 4.12 23.22 L 4.19 23.61 L 4.28 23.99 L 4.39 24.37 L 4.52 24.75 L 4.67 25.11 L 4.83 25.47 L 5.02 25.82" fill="none" stroke="#111" stroke-width="1.12" stroke-linecap="round" stroke-linejoin="round"/>
<path d="M 16.0 4.0 L 15.92 4.54 L 15.83 5.08 L 15.75 5.62 L 15.67 6.17 L 15.58 6.71 L 15.5 7.25 L 15.42 7.79 L 15.33 8.33 L 15.25 8.88 L 15.17 9.42 L 15.08 9.96 L 15.0 10.5 L 14.92 11.04 L 14.83 11.58 L 14.75 12.12 L 14.67 12.67 L 14.58 13.21 L 14.5 13.75 L 14.42 14.29 L 14.33 14.83 L 14.25 15.38 L 14.17 15.92 L 14.08 16.46 L 14.0 17.0 L 14.0 17.0 L 14.21 16.96 L 14.42 16.92 L 14.62 16.88 L 14.83 16.83 L 15.04 16.79 L 15.25 16.75 L 15.46 16.71 L 15.67 16.67 L 15.88 16.62 L 16.08 16.58 L 16.29 16.54 L 16.5 16.5 L 16.71 16.46 L 16.92 16.42 L 17.12 16.38 L 17.33 16.33 L 17.54 16.29 L 17.75 16.25 L 17.96 16.21 L 18.17 16.17 L 18.38 16.12 L 18.58 16.08 L 18.79 16.04 L 19.0 16.0 L 19.0 16.0 L 18.92 16.25 L 18.83 16.5 L 18.75 16.75 L 18.67 17.0 L 18.58 17.25 L 18.5 17.5 L 18.42 17.75 L 18.33 18.0 L 18.25 18.25 L 18.17 18.5 L 18.08 18.75 L 18.0 19.0 L 17.92 19.25 L 17.83 19.5 L 17.75 19.75 L 17.67 20.0 L 17.58 20.25 L 17.5 20.5 L 17.42 20.75 L 17.33 21.0 L 17.25 21.25 L 17.17 21.5 L 17.08 21.75 L 17.0 22.0" fill="none" stroke="#111" stroke-width="1.12" stroke-linecap="round" stroke-linejoin="round"/>
<path d="M 15.0 7.0 L 15.17 7.21 L 15.33 7.42 L 15.5 7.62 L 15.67 7.83 L 15.83 8.04 L 16.0 8.25 L 16.17 8.46 L 16.33 8.67 L 16.5 8.88 L 16.67 9.08 L 16.83 9.29 L 17.0 9.5 L 17.17 9.71 L 17.33 9.92 L 17.5 10.12 L 17.67 10.33 L 17.83 10.54 L 18.0 10.75 L 18.17 10.96 L 18.33 11.17 L 18.5 11.38 L 18.67 11.58 L 18.83 11.79 L 19.0 12.0 L 19.0 12.0 L 18.79 12.17 L 18.58 12.33 L 18.38 12.5 L 18.17 12.67 L 17.96 12.83 L 17.75 13.0 L 17.54 13.17 L 17.33 13.33 L 17.12 13.5 L 16.92 13.67 L 16.71 13.83 L 16.5 14.0 L 16.29 14.17 L 16.08 14.33 L 15.88 14.5 L 15.67 14.67 L 15.46 14.83 L 15.25 15.0 L 15.04 15.17 L 14.83 15.33 L 14.62 15.5 L 14.42 15.67 L 14.21 15.83 L 14.0 16.0" fill="none" stroke="#111" stroke-width="1.12" stroke-linecap="round" stroke-linejoin="round"/>
</svg>
