<?xml version="1.0" encoding="UTF-8"?>
<svg xmlns="http://www.w3.org/2000/svg" viewBox="0 0 25.74 38.00">
<path d="M 10.98 4.0 L 10.76 4.52 L 10.59 5.07 L 10.48 5.62 L 10.41 6.18 L 10.4 6.75 L 10.43 7.32 L 10.52 7.88 L 10.66 8.43 L 10.85 8.96 L 11.09 9.48 L 11.37 9.97 L 11.7 10.43 L 12.07 10.86 L 12.48 11.26 L 12.92 11.61 L 13.39 11.93 L 13.89 12.2 L 14.41 12.43 L 14.95 12.6 L 15.5 12.73 L 16.06 12.8 L 16.63 12.82 L 17.19 12.8 L 17.76 12.72" fill="none" stroke="#111" stroke-width="1.33" stroke-linecap="round" stroke-linejoin="round"/>
<path d="M 6.98 11.0 L 7.1 10.96 L 7.23 10.92 L 7.35 10.88 L 7.48 10.83 L 7.6 10.79 L 7.73 10.75 L 7.85 10.71 L 7.98 10.67 L 8.1 10.62 L 8.23 10.58 L 8.35 10.54 L 8.48 10.5 L 8.6 10.46 L 8.73 10.42 L 8.85 10.38 L 8.98 10.33 L 9.1 10.29 L 9.23 10.25 L 9.35 10.21 L 9.48 10.17 L 9.6 10.12 L 9.73 10.08 L 9.85 10.04 L 9.98 10.0" fill="none" stroke="#111" stroke-width="1.33" stroke-linecap="round" stroke-linejoin="round"/>
<path d="M 12.98 11.0 L 12.69 11.45 L 12.4 11.9 L 12.1 12.34 L 11.79 12.77 L 11.47 13.2 L 11.14 13.62 L 10.8 14.04 L 10.46 14.44 L 10.11 14.85 L 9.75 15.24 L 9.39 15.63 L 9.01 16.01 L 8.63 16.39 L 8.24 16.75 L 7.85 17.11 L 7.44 17.46 L 7.04 17.8 L 6.62 18.14 L 6.2 18.47 L 5.77 18.79 L 5.34 19.1 L 4.9 19.4 L 4.45 19.69 L 4.0 19.98" fill="none" stroke="#111" stroke-width="1.33" stroke-linecap="round" stroke-linejoin="round"/>
<path d="M 11.98 13.0 L 11.93 13.82 L 11.92 14.64 L 11.96 15.47 L 12.05 16.29 L 12.17 17.1 L 12.35 17.9 L 12.56 18.7 L 12.82 19.48 L 13.11 20.25 L 13.45 21.0 L 13.83 21.73 L 14.25 22.44 L 14.7 23.13 L 15.2 23.79 L 15.72 24.42 L 16.28 25.02 L 16.87 25.6 L 17.49 26.14 L 18.14 26.64 L 18.82 27.12 L 19.52 27.55 L 20.24 27.95 L 20.98 28.3 L 21.74 28.62" fill="none" stroke="#111" stroke-width="1.33" stroke-linecap="round" stroke-linejoin="round"/>
<path d="M 15.98 25.0 L 15.64 25.38 L 15.31 25.75 L 14.98 26.12 L 14.64 26.5 L 14.31 26.88 L 13.98 27.25 L 13.64 27.62 L 13.31 28.0 L 12.98 28.38 L 12.64 28.75 L 12.31 29.12 L 11.98 29.5 L 11.64 29.88 L 11.31 30.25 L 10.98 30.62 L 10.64 31.0 L 10.31 31.38 L 9.98 31.75 L 9.64 32.12 L 9.31 32.5 L 8.98 32.88 L 8.64 33.25 L 8.31 33.62 L 7.98 34.0" fill="none" stroke="#111" stroke-width="1.33" stroke-linecap="round" stroke-linejoin="round"/>
<path d="M 9.98 17.0 L 10.32 17.1 L 10.64 17.25 L 10.94 17.44 L 11.21 17.67 L 11.46 17.93 L 11.66 18.22 L 11.82 18.54 L 11.95 18.87 L 12.02 19.22 L 12.05 19.58 L 12.04 19.93 L 11.97 20.28 L 11.86 20.62 L 11.71 20.94 L 11.52 21.24 L 11.29 21.51 L 11.02 21.75 L 10.73 21.95 L 10.41 22.11 L 10.08 22.23 L 9.73 22.3 L 9.37 22.33 L 9.02 22.31 L 8.67 22.24" fill="none" stroke="#111" stroke-width="1.33" stroke-linecap="round" stroke-linejoin="round"/>
<path d="M 7.98 19.0 L 7.89 19.39 L 7.83 19.78 L 7.8 20.17 L 7.8 20.57 L 7.82 20.96 L 7.88 21.35 L 7.96 21.74 L 8.08 22.12 L 8.22 22.48 L 8.38 22.84 L 8.58 23.19 L 8.8 23.52 L 9.04 23.83 L 9.3 24.12 L 9.58 24.4 L 9.89 24.65 L 10.21 24.88 L 10.55 25.09 L 10.9 25.27 L 11.26 25.42 L 11.64 25.55 L 12.02 25.64 L 12.41 25.72 L 12.8 25.76" fill="none" stroke="#111" stroke-width="1.33" stroke-linecap="round" stroke-linejoin="round"/>
</svg>
