<?xml version="1.0" encoding="UTF-8"?>
<svg xmlns="http://www.w3.org/2000/svg" viewBox="0 0 23.85 27.00">
<path d="M 12.85 4.0 L 12.6 4.42 L 12.35 4.83 L 12.1 5.25 L 11.85 5.67 L 11.6 6.08 L 11.35 6.5 L 11.1 6.92 L 10.85 7.33 L 10.6 7.75 L 10.35 8.17 L 10.1 8.58 L 9.85 9.0 L 9.6 9.42 L 9.35 9.83 L 9.1 10.25 L 8.85 10.67 L 8.6 11.08 L 8.35 11.5 L 8.1 11.92 L 7.85 12.33 L 7.6 12.75 L 7.35 13.17 L 7.1 13.58 L 6.85 14.0" fill="none" stroke="#111" stroke-width="0.95" stroke-linecap="round" stroke-linejoin="round"/>
<path d="M 12.85 4.0 L 13.1 4.42 L 13.35 4.83 L 13.6 5.25 L 13.85 5.67 L 14.1 6.08 L 14.35 6.5 L 14.6 6.92 L 14.85 7.33 L 15.1 7.75 L 15.35 8.17 L 15.6 8.58 L 15.85 9.0 L 16.1 9.42 L 16.35 9.83 L 16.6 10.25 L 16.85 10.67 L 17.1 11.08 L 17.35 11.5 L 17.6 11.92 L 17.85 12.33 L 18.1 12.75 L 18.35 13.17 L 18.6 13.58 L 18.85 14.0" fill="none" stroke="#111" stroke-width="0.95" stroke-linecap="round" stroke-linejoin="round"/>
<path d="M 6.85 14.0 L 6.47 14.22 L 6.12 14.46 L 5.78 14.73 L 5.47 15.03 L 5.18 15.36 L 4.93 15.71 L 4.7 16.07 L 4.5 16.46 L 4.33 16.86 L 4.2 17.27 L 4.1 17.69 L 4.03 18.11 L 4.0 18.55 L 4.01 18.98 L 4.05 19.41 L 4.12 19.84 L 4.23 20.25 L 4.37 20.66 L 4.55 21.06 L 4.76 21.44 L 5.0 21.8 L 5.26 22.14 L 5.56 22.46 L 5.88 22.75 L 5.85 23.0 L 6.01 22.83 L 6.18 22.67 L 6.35 22.5 L 6.51 22.33 L 6.68 22.17 L 6.85 22.0 L 7.01 21.83 L 7.18 21.67 L 7.35 21.5 L 7.51 21.33 L 7.68 21.17 L 7.85 21.0 L 8.01 20.83 L 8.18 20.67 L 8.35 20.5 L 8.51 20.33 L 8.68 20.17 L 8.85 20.0 L 9.01 19.83 L 9.18 19.67 L 9.35 19.5 L 9.51 19.33 L 9.68 19.17 L 9.85 19.0 L 9.85 19.0 L 9.72 18.79 L 9.6 18.58 L 9.47 18.38 L 9.35 18.17 L 9.22 17.96 L 9.1 17.75 L 8.97 17.54 L 8.85 17.33 L 8.72 17.12 L 8.6 16.92 L 8.47 16.71 L 8.35 16.5 L 8.22 16.29 L 8.1 16.08 L 7.97 15.88 L 7.85 15.67 L 7.72 15.46 L 7.6 15.25 L 7.47 15.04 L 7.35 14.83 L 7.22 14.62 L 7.1 14.42 L 6.97 14.21 L 6.85 14.0" fill="none" stroke="#111" stroke-width="0.95" stroke-linecap="round" stroke-linejoin="round"/>
<path d="M 17.85 14.0 L 17.76 14.21 L 17.68 14.42 L 17.6 14.62 L 17.51 14.83 L 17.43 15.04 L 17.35 15.25 L 17.26 15.46 L 17.18 15.67 L 17.1 15.88 L 17.01 16.08 L 16.93 16.29 L 16.85 16.5 L 16.76 16.71 L 16.68 16.92 L 16.6 17.12 L 16.51 17.33 L 16.43 17.54 L 16.35 17.75 L 16.26 17.96 L 16.18 18.17 L 16.1 18.38 L 16.01 18.58 L 15.93 18.79 L 15.85 19.0" fill="none" stroke="#111" stroke-width="0.95" stroke-linecap="round" stroke-linejoin="round"/>
<path d="M 15.85 19.0 L 15.97 19.17 L 16.1 19.33 L 16.22 19.5 L 16.35 19.67 L 16.47 19.83 L 16.6 20.0 L 16.72 20.17 L 16.85 20.33 L 16.97 20.5 L 17.1 20.67 L 17.22 20.83 L 17.35 21.0 L 17.47 21.17 L 17.6 21.33 L 17.72 21.5 L 17.85 21.67 L 17.97 21.83 L 18.1 22.0 L 18.22 22.17 L 18.35 22.33 L 18.47 22.5 L 18.6 22.67 L 18.72 22.83 L 18.85 23.0" fill="none" stroke="#111" stroke-width="0.95" stroke-linecap="round" stroke-linejoin="round"/>
<path d="M 18.85 23.0 L 18.89 22.79 L 18.93 22.58 L 18.97 22.38 L 19.01 22.17 L 19.06 21.96 L 19.1 21.75 L 19.14 21.54 L 19.18 21.33 L 19.22 21.12 L 19.26 20.92 L 19.31 20.71 L 19.35 20.5 L 19.39 20.29 L 19.43 20.08 L 19.47 19.88 L 19.51 19.67 L 19.56 19.46 L 19.6 19.25 L 19.64 19.04 L 19.68 18.83 L 19.72 18.62 L 19.76 18.42 L 19.81 18.21 L 19.85 18.0" fill="none" stroke="#111" stroke-width="0.95" stroke-linecap="round" stroke-linejoin="round"/>
<path d="M 19.85 17.0 L 19.76 16.88 L 19.68 16.75 L 19.6 16.62 L 19.51 16.5 L 19.43 16.38 L 19.35 16.25 L 19.26 16.12 L 19.18 16.0 L 19.1 15.88 L 19.01 15.75 L 18.93 15.62 L 18.85 15.5 L 18.76 15.38 L 18.68 15.25 L 18.6 15.12 L 18.51 15.0 L 18.43 14.88 L 18.35 14.75 L 18.26 14.62 L 18.18 14.5 L 18.1 14.38 L 18.01 14.25 L 17.93 14.12 L 17.85 14.0" fill="none" stroke="#111" stroke-width="0.95" stroke-linecap="round" stroke-linejoin="round"/>
</svg>
