<?xml version="1.0" encoding="UTF-8"?>
<svg xmlns="http://www.w3.org/2000/svg" viewBox="0 0 23.01 40.00">
<path d="M 6.01 9.0 L 6.51 8.92 L 7.01 8.83 L 7.51 8.75 L 8.01 8.67 L 8.51 8.58 L 9.01 8.5 L 9.51 8.42 L 10.01 8.33 L 10.51 8.25 L 11.01 8.17 L 11.51 8.08 L 12.01 8.0 L 12.51 7.92 L 13.01 7.83 L 13.51 7.75 L 14.01 7.67 L 14.51 7.58 L 15.01 7.5 L 15.51 7.42 L 16.01 7.33 L 16.51 7.25 L 17.01 7.17 L 17.51 7.08 L 18.01 7.0" fill="none" stroke="#111" stroke-width="1.40" stroke-linecap="round" stroke-linejoin="round"/>
<path d="M 8.01 4.0 L 8.01 4.08 L 8.01 4.17 L 8.01 4.25 L 8.01 4.33 L 8.01 4.42 L 8.01 4.5 L 8.01 4.58 L 8.01 4.67 L 8.01 4.75 L 8.01 4.83 L 8.01 4.92 L 8.01 5.0 L 8.01 5.08 L 8.01 5.17 L 8.01 5.25 L 8.01 5.33 L 8.01 5.42 L 8.01 5.5 L 8.01 5.58 L 8.01 5.67 L 8.01 5.75 L 8.01 5.83 L 8.01 5.92 L 8.01 6.0" fill="none" stroke="#111" stroke-width="1.40" stroke-linecap="round" stroke-linejoin="round"/>
<path d="M 11.01 5.0 L 11.05 5.04 L 11.1 5.08 L 11.14 5.12 L 11.18 5.17 L 11.22 5.21 L 11.26 5.25 L 11.3 5.29 L 11.35 5.33 L 11.39 5.38 L 11.43 5.42 L 11.47 5.46 L 11.51 5.5 L 11.55 5.54 L 11.6 5.58 L 11.64 5.62 L 11.68 5.67 L 11.72 5.71 L 11.76 5.75 L 11.8 5.79 L 11.85 5.83 L 11.89 5.88 L 11.93 5.92 L 11.97 5.96 L 12.01 6.0" fill="none" stroke="#111" stroke-width="1.40" stroke-linecap="round" stroke-linejoin="round"/>
<path d="M 15.01 4.0 L 15.01 4.04 L 15.01 4.08 L 15.01 4.12 L 15.01 4.17 L 15.01 4.21 L 15.01 4.25 L 15.01 4.29 L 15.01 4.33 L 15.01 4.38 L 15.01 4.42 L 15.01 4.46 L 15.01 4.5 L 15.01 4.54 L 15.01 4.58 L 15.01 4.62 L 15.01 4.67 L 15.01 4.71 L 15.01 4.75 L 15.01 4.79 L 15.01 4.83 L 15.01 4.88 L 15.01 4.92 L 15.01 4.96 L 15.01 5.0" fill="none" stroke="#111" stroke-width="1.40" stroke-linecap="round" stroke-linejoin="round"/>
<path d="M 9.01 10.0 L 9.01 10.04 L 9.01 10.08 L 9.01 10.12 L 9.01 10.17 L 9.01 10.21 L 9.01 10.25 L 9.01 10.29 L 9.01 10.33 L 9.01 10.38 L 9.01 10.42 L 9.01 10.46 L 9.01 10.5 L 9.01 10.54 L 9.01 10.58 L 9.01 10.62 L 9.01 10.67 L 9.01 10.71 L 9.01 10.75 L 9.01 10.79 L 9.01 10.83 L 9.01 10.88 L 9.01 10.92 L 9.01 10.96 L 9.01 11.0" fill="none" stroke="#111" stroke-width="1.40" stroke-linecap="round" stroke-linejoin="round"/>
<path d="M 12.01 10.0 L 12.01 10.04 L 12.01 10.08 L 12.01 10.12 L 12.01 10.17 L 12.01 10.21 L 12.01 10.25 L 12.01 10.29 L 12.01 10.33 L 12.01 10.38 L 12.01 10.42 L 12.01 10.46 L 12.01 10.5 L 12.01 10.54 L 12.01 10.58 L 12.01 10.62 L 12.01 10.67 L 12.01 10.71 L 12.01 10.75 L 12.01 10.79 L 12.01 10.83 L 12.01 10.88 L 12.01 10.92 L 12.01 10.96 L 12.01 11.0" fill="none" stroke="#111" stroke-width="1.40" stroke-linecap="round" stroke-linejoin="round"/>
<path d="M 16.01 10.0 L 16.01 10.08 L 16.01 10.17 L 16.01 10.25 L 16.01 10.33 L 16.01 10.42 L 16.01 10.5 L 16.01 10.58 L 16.01 10.67 L 16.01 10.75 L 16.01 10.83 L 16.01 10.92 L 16.01 11.0 L 16.01 11.08 L 16.01 11.17 L 16.01 11.25 L 16.01 11.33 L 16.01 11.42 L 16.01 11.5 L 16.01 11.58 L 16.01 11.67 L 16.01 11.75 L 16.01 11.83 L 16.01 11.92 L 16.01 12.0" fill="none" stroke="#111" stroke-width="1.40" stroke-linecap="round" stroke-linejoin="round"/>
<path d="M 9.01 14.0 L 9.3 13.96 L 9.6 13.92 L 9.89 13.88 L 10.18 13.83 L 10.47 13.79 L 10.76 13.75 L 11.05 13.71 L 11.35 13.67 L 11.64 13.62 L 11.93 13.58 L 12.22 13.54 L 12.51 13.5 L 12.8 13.46 L 13.1 13.42 L 13.39 13.38 L 13.68 13.33 L 13.97 13.29 L 14.26 13.25 L 14.55 13.21 L 14.85 13.17 L 15.14 13.12 L 15.43 13.08 L 15.72 13.04 L 16.01 13.0 L 16.01 13.0 L 16.39 13.83 L 16.62 14.72 L 16.71 15.63 L 16.65 16.54 L 16.45 17.43 L 16.1 18.28 L 15.62 19.06 L 15.02 19.75 L 14.31 20.33 L 13.52 20.8 L 12.67 21.13 L 11.77 21.31 L 10.86 21.35 L 9.95 21.24 L 9.07 20.99 L 8.25 20.6 L 7.5 20.07 L 6.84 19.44 L 6.29 18.7 L 5.87 17.89 L 5.59 17.02 L 5.45 16.12 L 5.46 15.2 L 5.62 14.3" fill="none" stroke="#111" stroke-width="1.40" stroke-linecap="round" stroke-linejoin="round"/>
<path d="M 8.01 17.0 L 8.35 17.0 L 8.68 17.0 L 9.01 17.0 L 9.35 17.0 L 9.68 17.0 L 10.01 17.0 L 10.35 17.0 L 10.68 17.0 L 11.01 17.0 L 11.35 17.0 L 11.68 17.0 L 12.01 17.0 L 12.35 17.0 L 12.68 17.0 L 13.01 17.0 L 13.35 17.0 L 13.68 17.0 L 14.01 17.0 L 14.35 17.0 L 14.68 17.0 L 15.01 17.0 L 15.35 17.0 L 15.68 17.0 L 16.01 17.0" fill="none" stroke="#111" stroke-width="1.40" stroke-linecap="round" stroke-linejoin="round"/>
<path d="M 11.01 22.0 L 10.82 22.59 L 10.61 23.17 L 10.4 23.75 L 10.17 24.33 L 9.94 24.91 L 9.7 25.48 L 9.45 26.04 L 9.2 26.61 L 8.93 27.17 L 8.66 27.72 L 8.38 28.28 L 8.09 28.82 L 7.79 29.37 L 7.48 29.91 L 7.17 30.44 L 6.85 30.97 L 6.52 31.5 L 6.18 32.02 L 5.84 32.53 L 5.48 33.04 L 5.12 33.54 L 4.76 34.04 L 4.38 34.54 L 4.0 35.02" fill="none" stroke="#111" stroke-width="1.40" stroke-linecap="round" stroke-linejoin="round"/>
<path d="M 14.01 21.0 L 14.05 21.21 L 14.1 21.42 L 14.14 21.62 L 14.18 21.83 L 14.22 22.04 L 14.26 22.25 L 14.3 22.46 L 14.35 22.67 L 14.39 22.88 L 14.43 23.08 L 14.47 23.29 L 14.51 23.5 L 14.55 23.71 L 14.6 23.92 L 14.64 24.12 L 14.68 24.33 L 14.72 24.54 L 14.76 24.75 L 14.8 24.96 L 14.85 25.17 L 14.89 25.38 L 14.93 25.58 L 14.97 25.79 L 15.01 26.0 L 15.01 26.0 L 14.8 25.96 L 14.6 25.92 L 14.39 25.88 L 14.18 25.83 L 13.97 25.79 L 13.76 25.75 L 13.55 25.71 L 13.35 25.67 L 13.14 25.62 L 12.93 25.58 L 12.72 25.54 L 12.51 25.5 L 12.3 25.46 L 12.1 25.42 L 11.89 25.38 L 11.68 25.33 L 11.47 25.29 L 11.26 25.25 L 11.05 25.21 L 10.85 25.17 L 10.64 25.12 L 10.43 25.08 L 10.22 25.04 L 10.01 25.0" fill="none" stroke="#111" stroke-width="1.40" stroke-linecap="round" stroke-linejoin="round"/>
<path d="M 16.01 25.0 L 16.14 25.46 L 16.26 25.92 L 16.39 26.38 L 16.51 26.83 L 16.64 27.29 L 16.76 27.75 L 16.89 28.21 L 17.01 28.67 L 17.14 29.12 L 17.26 29.58 L 17.39 30.04 L 17.51 30.5 L 17.64 30.96 L 17.76 31.42 L 17.89 31.88 L 18.01 32.33 L 18.14 32.79 L 18.26 33.25 L 18.39 33.71 L 18.51 34.17 L 18.64 34.62 L 18.76 35.08 L 18.89 35.54 L 19.01 36.0" fill="none" stroke="#111" stroke-width="1.40" stroke-linecap="round" stroke-linejoin="round"/>
<path d="M 18.01 24.0 L 18.08 24.27 L 18.13 24.54 L 18.16 24.81 L 18.19 25.08 L 18.2 25.36 L 18.2 25.64 L 18.18 25.91 L 18.15 26.18 L 18.11 26.46 L 18.06 26.73 L 17.99 26.99 L 17.91 27.26 L 17.82 27.51 L 17.71 27.77 L 17.59 28.02 L 17.46 28.26 L 17.32 28.5 L 17.17 28.72 L 17.01 28.95 L 16.83 29.16 L 16.65 29.36 L 16.45 29.56 L 16.25 29.75 L 16.04 29.92" fill="none" stroke="#111" stroke-width="1.40" stroke-linecap="round" stroke-linejoin="round"/>
<path d="M 5.01 24.0 L 5.18 24.25 L 5.35 24.5 L 5.51 24.75 L 5.68 25.0 L 5.85 25.25 L 6.01 25.5 L 6.18 25.75 L 6.35 26.0 L 6.51 26.25 L 6.68 26.5 L 6.85 26.75 L 7.01 27.0 L 7.18 27.25 L 7.35 27.5 L 7.51 27.75 L 7.68 28.0 L 7.85 28.25 L 8.01 28.5 L 8.18 28.75 L 8.35 29.0 L 8.51 29.25 L 8.68 29.5 L 8.85 29.75 L 9.01 30.0" fill="none" stroke="#111" stroke-width="1.40" stroke-linecap="round" stroke-linejoin="round"/>
</svg>
