<?xml version="1.0" encoding="UTF-8"?>
<svg xmlns="http://www.w3.org/2000/svg" viewBox="0 0 24.07 44.80">
<path d="M 13.07 6.0 L 13.03 6.57 L 12.98 7.14 L 12.92 7.71 L 12.85 8.27 L 12.77 8.84 L 12.67 9.4 L 12.57 9.96 L 12.45 10.52 L 12.32 11.07 L 12.18 11.63 L 12.03 12.18 L 11.87 12.72 L 11.69 13.27 L 11.51 13.81 L 11.31 14.34 L 11.11 14.87 L 10.89 15.4 L 10.66 15.92 L 10.42 16.44 L 10.18 16.96 L 9.92 17.46 L 9.65 17.97 L 9.37 18.47 L 9.08 18.96 L 9.07 19.0 L 9.77 19.66 L 10.42 20.37 L 11.02 21.13 L 11.56 21.93 L 12.04 22.77 L 12.45 23.64 L 12.79 24.54 L 13.07 25.47 L 13.28 26.41 L 13.41 27.37 L 13.47 28.33 L 13.46 29.3 L 13.37 30.26 L 13.22 31.21 L 12.99 32.15 L 12.69 33.07 L 12.32 33.96 L 11.89 34.82 L 11.39 35.65 L 10.83 36.44 L 10.22 37.18 L 9.55 37.87 L 8.83 38.52 L 8.06 39.1" fill="none" stroke="#111" stroke-width="1.57" stroke-linecap="round" stroke-linejoin="round"/>
<path d="M 11.07 15.0 L 11.32 15.12 L 11.57 15.25 L 11.81 15.39 L 12.04 15.54 L 12.28 15.69 L 12.5 15.86 L 12.72 16.04 L 12.93 16.22 L 13.13 16.41 L 13.33 16.61 L 13.51 16.82 L 13.69 17.03 L 13.86 17.26 L 14.02 17.48 L 14.18 17.72 L 14.32 17.96 L 14.45 18.2 L 14.58 18.46 L 14.69 18.71 L 14.79 18.97 L 14.89 19.23 L 14.97 19.5 L 15.04 19.77 L 15.1 20.04 L 15.07 20.0 L 14.94 20.12 L 14.82 20.25 L 14.69 20.38 L 14.57 20.5 L 14.44 20.62 L 14.32 20.75 L 14.19 20.88 L 14.07 21.0 L 13.94 21.12 L 13.82 21.25 L 13.69 21.38 L 13.57 21.5 L 13.44 21.62 L 13.32 21.75 L 13.19 21.88 L 13.07 22.0 L 12.94 22.12 L 12.82 22.25 L 12.69 22.38 L 12.57 22.5 L 12.44 22.62 L 12.32 22.75 L 12.19 22.88 L 12.07 23.0" fill="none" stroke="#111" stroke-width="1.57" stroke-linecap="round" stroke-linejoin="round"/>
<path d="M 10.07 5.0 L 9.86 5.5 L 9.65 6.0 L 9.44 6.5 L 9.23 7.0 L 9.02 7.5 L 8.82 8.0 L 8.61 8.5 L 8.4 9.0 L 8.19 9.5 L 7.98 10.0 L 7.77 10.5 L 7.57 11.0 L 7.36 11.5 L 7.15 12.0 L 6.94 12.5 L 6.73 13.0 L 6.52 13.5 L 6.32 14.0 L 6.11 14.5 L 5.9 15.0 L 5.69 15.5 L 5.48 16.0 L 5.27 16.5 L 5.07 17.0 L 5.07 17.0 L 5.49 17.83 L 5.87 18.68 L 6.22 19.55 L 6.53 20.43 L 6.8 21.33 L 7.02 22.23 L 7.21 23.15 L 7.35 24.07 L 7.45 25.0 L 7.51 25.93 L 7.53 26.87 L 7.5 27.8 L 7.43 28.73 L 7.32 29.66 L 7.17 30.58 L 6.98 31.49 L 6.74 32.4 L 6.47 33.29 L 6.15 34.17 L 5.8 35.03 L 5.41 35.88 L 4.97 36.71 L 4.5 37.52 L 4.0 38.3" fill="none" stroke="#111" stroke-width="1.57" stroke-linecap="round" stroke-linejoin="round"/>
<path d="M 20.07 4.0 L 19.94 4.33 L 19.82 4.67 L 19.69 5.0 L 19.57 5.33 L 19.44 5.67 L 19.32 6.0 L 19.19 6.33 L 19.07 6.67 L 18.94 7.0 L 18.82 7.33 L 18.69 7.67 L 18.57 8.0 L 18.44 8.33 L 18.32 8.67 L 18.19 9.0 L 18.07 9.33 L 17.94 9.67 L 17.82 10.0 L 17.69 10.33 L 17.57 10.67 L 17.44 11.0 L 17.32 11.33 L 17.19 11.67 L 17.07 12.0 L 17.07 12.0 L 17.57 13.16 L 18.02 14.34 L 18.42 15.55 L 18.77 16.76 L 19.06 18.0 L 19.29 19.24 L 19.47 20.49 L 19.59 21.75 L 19.66 23.02 L 19.67 24.28 L 19.63 25.55 L 19.52 26.81 L 19.37 28.07 L 19.15 29.31 L 18.88 30.55 L 18.56 31.78 L 18.18 32.98 L 17.75 34.17 L 17.26 35.34 L 16.73 36.49 L 16.14 37.61 L 15.5 38.71 L 14.82 39.77 L 14.09 40.8" fill="none" stroke="#111" stroke-width="1.57" stroke-linecap="round" stroke-linejoin="round"/>
</svg>
