<?xml version="1.0" encoding="UTF-8"?>
<svg xmlns="http://www.w3.org/2000/svg" viewBox="0 0 24.24 31.68">
<path d="M 4.5 6.0 L 4.31 7.0 L 4.16 8.0 L 4.06 9.01 L 4.01 10.02 L 4.0 11.04 L 4.04 12.05 L 4.13 13.06 L 4.27 14.07 L 4.46 15.06 L 4.69 16.05 L 4.97 17.03 L 5.29 17.99 L 5.66 18.93 L 6.07 19.86 L 6.53 20.77 L 7.03 21.65 L 7.57 22.51 L 8.15 23.34 L 8.77 24.14 L 9.42 24.92 L 10.11 25.66 L 10.84 26.37 L 11.6 27.04 L 12.39 27.68" fill="none" stroke="#111" stroke-width="1.11" stroke-linecap="round" stroke-linejoin="round"/>
<path d="M 11.5 4.0 L 11.1 4.89 L 10.77 5.81 L 10.51 6.75 L 10.32 7.71 L 10.2 8.68 L 10.15 9.66 L 10.18 10.64 L 10.28 11.61 L 10.46 12.57 L 10.7 13.52 L 11.02 14.44 L 11.41 15.34 L 11.86 16.21 L 12.37 17.04 L 12.95 17.83 L 13.58 18.57 L 14.27 19.27 L 15.01 19.91 L 15.79 20.49 L 16.62 21.02 L 17.48 21.47 L 18.38 21.87 L 19.3 22.19 L 20.24 22.45" fill="none" stroke="#111" stroke-width="1.11" stroke-linecap="round" stroke-linejoin="round"/>
<path d="M 5.5 10.0 L 5.75 9.88 L 6.0 9.75 L 6.25 9.62 L 6.5 9.5 L 6.75 9.38 L 7.0 9.25 L 7.25 9.12 L 7.5 9.0 L 7.75 8.88 L 8.0 8.75 L 8.25 8.62 L 8.5 8.5 L 8.75 8.38 L 9.0 8.25 L 9.25 8.12 L 9.5 8.0 L 9.75 7.88 L 10.0 7.75 L 10.25 7.62 L 10.5 7.5 L 10.75 7.38 L 11.0 7.25 L 11.25 7.12 L 11.5 7.0" fill="none" stroke="#111" stroke-width="1.11" stroke-linecap="round" stroke-linejoin="round"/>
<path d="M 5.5 13.0 L 5.8 12.88 L 6.09 12.75 L 6.38 12.62 L 6.67 12.5 L 6.96 12.38 L 7.25 12.25 L 7.55 12.12 L 7.84 12.0 L 8.13 11.88 L 8.42 11.75 L 8.71 11.62 L 9.0 11.5 L 9.3 11.38 L 9.59 11.25 L 9.88 11.12 L 10.17 11.0 L 10.46 10.88 L 10.75 10.75 L 11.05 10.62 L 11.34 10.5 L 11.63 10.38 L 11.92 10.25 L 12.21 10.12 L 12.5 10.0" fill="none" stroke="#111" stroke-width="1.11" stroke-linecap="round" stroke-linejoin="round"/>
<path d="M 7.5 23.0 L 7.75 22.83 L 8.0 22.67 L 8.25 22.5 L 8.5 22.33 L 8.75 22.17 L 9.0 22.0 L 9.25 21.83 L 9.5 21.67 L 9.75 21.5 L 10.0 21.33 L 10.25 21.17 L 10.5 21.0 L 10.75 20.83 L 11.0 20.67 L 11.25 20.5 L 11.5 20.33 L 11.75 20.17 L 12.0 20.0 L 12.25 19.83 L 12.5 19.67 L 12.75 19.5 L 13.0 19.33 L 13.25 19.17 L 13.5 19.0" fill="none" stroke="#111" stroke-width="1.11" stroke-linecap="round" stroke-linejoin="round"/>
<path d="M 9.5 25.0 L 9.75 24.79 L 10.0 24.58 L 10.25 24.38 L 10.5 24.17 L 10.75 23.96 L 11.0 23.75 L 11.25 23.54 L 11.5 23.33 L 11.75 23.12 L 12.0 22.92 L 12.25 22.71 L 12.5 22.5 L 12.75 22.29 L 13.0 22.08 L 13.25 21.88 L 13.5 21.67 L 13.75 21.46 L 14.0 21.25 L 14.25 21.04 L 14.5 20.83 L 14.75 20.62 L 15.0 20.42 L 15.25 20.21 L 15.5 20.0" fill="none" stroke="#111" stroke-width="1.11" stroke-linecap="round" stroke-linejoin="round"/>
</svg>
