<?xml version="1.0" encoding="UTF-8"?>
<svg xmlns="http://www.w3.org/2000/svg" viewBox="0 0 23.00 36.00">
<path d="M 10.0 4.0 L 10.58 5.02 L 11.1 6.08 L 11.55 7.17 L 11.93 8.28 L 12.24 9.42 L 12.49 10.57 L 12.66 11.73 L 12.76 12.9 L 12.79 14.08 L 12.75 15.26 L 12.63 16.43 L 12.44 17.59 L 12.19 18.74 L 11.86 19.87 L 11.46 20.97 L 11.0 22.06 L 10.47 23.11 L 9.88 24.12 L 9.23 25.1 L 8.51 26.04 L 7.75 26.93 L 6.92 27.77 L 6.05 28.57 L 5.13 29.3" fill="none" stroke="#111" stroke-width="1.26" stroke-linecap="round" stroke-linejoin="round"/>
<path d="M 11.0 22.0 L 11.33 22.42 L 11.67 22.83 L 12.0 23.25 L 12.33 23.67 L 12.67 24.08 L 13.0 24.5 L 13.33 24.92 L 13.67 25.33 L 14.0 25.75 L 14.33 26.17 L 14.67 26.58 L 15.0 27.0 L 15.33 27.42 L 15.67 27.83 L 16.0 28.25 L 16.33 28.67 L 16.67 29.08 L 17.0 29.5 L 17.33 29.92 L 17.67 30.33 L 18.0 30.75 L 18.33 31.17 L 18.67 31.58 L 19.0 32.0" fill="none" stroke="#111" stroke-width="1.26" stroke-linecap="round" stroke-linejoin="round"/>
<path d="M 4.0 17.0 L 4.29 16.36 L 4.64 15.74 L 5.04 15.17 L 5.49 14.63 L 6.0 14.13 L 6.54 13.69 L 7.13 13.3 L 7.75 12.97 L 8.4 12.69 L 9.07 12.48 L 9.76 12.33 L 10.46 12.25 L 11.17 12.23 L 11.87 12.28 L 12.57 12.4 L 13.25 12.57 L 13.91 12.82 L 14.55 13.12 L 15.15 13.48 L 15.72 13.9 L 16.25 14.36 L 16.73 14.88 L 17.16 15.44 L 17.53 16.03" fill="none" stroke="#111" stroke-width="1.26" stroke-linecap="round" stroke-linejoin="round"/>
<path d="M 6.0 5.0 L 6.0 5.17 L 6.0 5.33 L 6.0 5.5 L 6.0 5.67 L 6.0 5.83 L 6.0 6.0 L 6.0 6.17 L 6.0 6.33 L 6.0 6.5 L 6.0 6.67 L 6.0 6.83 L 6.0 7.0 L 6.0 7.17 L 6.0 7.33 L 6.0 7.5 L 6.0 7.67 L 6.0 7.83 L 6.0 8.0 L 6.0 8.17 L 6.0 8.33 L 6.0 8.5 L 6.0 8.67 L 6.0 8.83 L 6.0 9.0" fill="none" stroke="#111" stroke-width="1.26" stroke-linecap="round" stroke-linejoin="round"/>
<path d="M 12.0 5.0 L 12.21 5.17 L 12.42 5.33 L 12.62 5.5 L 12.83 5.67 L 13.04 5.83 L 13.25 6.0 L 13.46 6.17 L 13.67 6.33 L 13.88 6.5 L 14.08 6.67 L 14.29 6.83 L 14.5 7.0 L 14.71 7.17 L 14.92 7.33 L 15.12 7.5 L 15.33 7.67 L 15.54 7.83 L 15.75 8.0 L 15.96 8.17 L 16.17 8.33 L 16.38 8.5 L 16.58 8.67 L 16.79 8.83 L 17.0 9.0" fill="none" stroke="#111" stroke-width="1.26" stroke-linecap="round" stroke-linejoin="round"/>
<path d="M 6.0 19.0 L 5.92 19.25 L 5.83 19.5 L 5.75 19.75 L 5.67 20.0 L 5.58 20.25 L 5.5 20.5 L 5.42 20.75 L 5.33 21.0 L 5.25 21.25 L 5.17 21.5 L 5.08 21.75 L 5.0 22.0 L 4.92 22.25 L 4.83 22.5 L 4.75 22.75 L 4.67 23.0 L 4.58 23.25 L 4.5 23.5 L 4.42 23.75 L 4.33 24.0 L 4.25 24.25 L 4.17 24.5 L 4.08 24.75 L 4.0 25.0" fill="none" stroke="#111" stroke-width="1.26" stroke-linecap="round" stroke-linejoin="round"/>
<path d="M 14.0 19.0 L 14.12 19.21 L 14.25 19.42 L 14.38 19.62 L 14.5 19.83 L 14.62 20.04 L 14.75 20.25 L 14.88 20.46 L 15.0 20.67 L 15.12 20.88 L 15.25 21.08 L 15.38 21.29 L 15.5 21.5 L 15.62 21.71 L 15.75 21.92 L 15.88 22.12 L 16.0 22.33 L 16.12 22.54 L 16.25 22.75 L 16.38 22.96 L 16.5 23.17 L 16.62 23.38 L 16.75 23.58 L 16.88 23.79 L 17.0 24.0" fill="none" stroke="#111" stroke-width="1.26" stroke-linecap="round" stroke-linejoin="round"/>
</svg>
