<?xml version="1.0" encoding="UTF-8"?>
<svg xmlns="http://www.w3.org/2000/svg" viewBox="0 0 20.44 33.77">
<path d="M 12.44 4.0 L 12.44 4.29 L 12.44 4.58 L 12.44 4.88 L 12.44 5.17 L 12.44 5.46 L 12.44 5.75 L 12.44 6.04 L 12.44 6.33 L 12.44 6.62 L 12.44 6.92 L 12.44 7.21 L 12.44 7.5 L 12.44 7.79 L 12.44 8.08 L 12.44 8.38 L 12.44 8.67 L 12.44 8.96 L 12.44 9.25 L 12.44 9.54 L 12.44 9.83 L 12.44 10.12 L 12.44 10.42 L 12.44 10.71 L 12.44 11.0" fill="none" stroke="#111" stroke-width="1.18" stroke-linecap="round" stroke-linejoin="round"/>
<path d="M 8.44 6.0 L 8.61 6.21 L 8.78 6.42 L 8.94 6.62 L 9.11 6.83 L 9.28 7.04 L 9.44 7.25 L 9.61 7.46 L 9.78 7.67 L 9.94 7.88 L 10.11 8.08 L 10.28 8.29 L 10.44 8.5 L 10.61 8.71 L 10.78 8.92 L 10.94 9.12 L 11.11 9.33 L 11.28 9.54 L 11.44 9.75 L 11.61 9.96 L 11.78 10.17 L 11.94 10.38 L 12.11 10.58 L 12.28 10.79 L 12.44 11.0" fill="none" stroke="#111" stroke-width="1.18" stroke-linecap="round" stroke-linejoin="round"/>
<path d="M 16.44 6.0 L 16.28 6.21 L 16.11 6.42 L 15.94 6.62 L 15.78 6.83 L 15.61 7.04 L 15.44 7.25 L 15.28 7.46 L 15.11 7.67 L 14.94 7.88 L 14.78 8.08 L 14.61 8.29 L 14.44 8.5 L 14.28 8.71 L 14.11 8.92 L 13.94 9.12 L 13.78 9.33 L 13.61 9.54 L 13.44 9.75 L 13.28 9.96 L 13.11 10.17 L 12.94 10.38 L 12.78 10.58 L 12.61 10.79 L 12.44 11.0" fill="none" stroke="#111" stroke-width="1.18" stroke-linecap="round" stroke-linejoin="round"/>
<path d="M 12.44 11.0 L 12.32 11.21 L 12.19 11.42 L 12.07 11.62 L 11.94 11.83 L 11.82 12.04 L 11.69 12.25 L 11.57 12.46 L 11.44 12.67 L 11.32 12.88 L 11.19 13.08 L 11.07 13.29 L 10.94 13.5 L 10.82 13.71 L 10.69 13.92 L 10.57 14.12 L 10.44 14.33 L 10.32 14.54 L 10.19 14.75 L 10.07 14.96 L 9.94 15.17 L 9.82 15.38 L 9.69 15.58 L 9.57 15.79 L 9.44 16.0 L 9.44 16.0 L 9.65 16.42 L 9.86 16.83 L 10.07 17.25 L 10.28 17.67 L 10.48 18.08 L 10.69 18.5 L 10.9 18.92 L 11.11 19.33 L 11.32 19.75 L 11.53 20.17 L 11.73 20.58 L 11.94 21.0 L 12.15 21.42 L 12.36 21.83 L 12.57 22.25 L 12.78 22.67 L 12.98 23.08 L 13.19 23.5 L 13.4 23.92 L 13.61 24.33 L 13.82 24.75 L 14.03 25.17 L 14.23 25.58 L 14.44 26.0 L 14.44 26.0 L 14.32 26.08 L 14.19 26.17 L 14.07 26.25 L 13.94 26.33 L 13.82 26.42 L 13.69 26.5 L 13.57 26.58 L 13.44 26.67 L 13.32 26.75 L 13.19 26.83 L 13.07 26.92 L 12.94 27.0 L 12.82 27.08 L 12.69 27.17 L 12.57 27.25 L 12.44 27.33 L 12.32 27.42 L 12.19 27.5 L 12.07 27.58 L 11.94 27.67 L 11.82 27.75 L 11.69 27.83 L 11.57 27.92 L 11.44 28.0 L 11.44 28.0 L 11.08 27.6 L 10.75 27.16 L 10.46 26.7 L 10.22 26.22 L 10.01 25.71 L 9.85 25.2 L 9.74 24.66 L 9.67 24.13 L 9.65 23.58 L 9.68 23.04 L 9.75 22.5 L 9.87 21.97 L 10.04 21.46 L 10.25 20.95 L 10.5 20.47 L 10.79 20.02 L 11.12 19.59 L 11.49 19.19 L 11.89 18.82 L 12.32 18.49 L 12.78 18.2 L 13.26 17.95 L 13.77 17.74 L 14.28 17.58 L 14.44 17.0 L 14.36 16.75 L 14.28 16.5 L 14.19 16.25 L 14.11 16.0 L 14.03 15.75 L 13.94 15.5 L 13.86 15.25 L 13.78 15.0 L 13.69 14.75 L 13.61 14.5 L 13.53 14.25 L 13.44 14.0 L 13.36 13.75 L 13.28 13.5 L 13.19 13.25 L 13.11 13.0 L 13.03 12.75 L 12.94 12.5 L 12.86 12.25 L 12.78 12.0 L 12.69 11.75 L 12.61 11.5 L 12.53 11.25 L 12.44 11.0" fill="none" stroke="#111" stroke-width="1.18" stroke-linecap="round" stroke-linejoin="round"/>
<path d="M 5.44 10.0 L 5.34 10.42 L 5.25 10.85 L 5.18 11.28 L 5.12 11.71 L 5.08 12.15 L 5.06 12.58 L 5.05 13.02 L 5.06 13.46 L 5.09 13.89 L 5.14 14.33 L 5.2 14.76 L 5.27 15.19 L 5.37 15.61 L 5.48 16.04 L 5.6 16.45 L 5.75 16.87 L 5.9 17.27 L 6.08 17.67 L 6.27 18.07 L 6.47 18.45 L 6.69 18.83 L 6.92 19.2 L 7.16 19.56 L 7.42 19.91" fill="none" stroke="#111" stroke-width="1.18" stroke-linecap="round" stroke-linejoin="round"/>
<path d="M 7.44 13.0 L 7.0 13.59 L 6.59 14.21 L 6.2 14.84 L 5.84 15.48 L 5.52 16.15 L 5.22 16.83 L 4.95 17.52 L 4.72 18.22 L 4.52 18.93 L 4.35 19.65 L 4.21 20.38 L 4.11 21.11 L 4.04 21.84 L 4.0 22.58 L 4.0 23.32 L 4.03 24.06 L 4.1 24.8 L 4.19 25.53 L 4.33 26.26 L 4.49 26.98 L 4.69 27.69 L 4.92 28.4 L 5.18 29.09 L 5.47 29.77" fill="none" stroke="#111" stroke-width="1.18" stroke-linecap="round" stroke-linejoin="round"/>
</svg>
