<?xml version="1.0" encoding="UTF-8"?>
<svg xmlns="http://www.w3.org/2000/svg" viewBox="0 0 24.66 30.00">
<path d="M 12.0 5.0 L 11.74 5.36 L 11.49 5.72 L 11.22 6.08 L 10.96 6.44 L 10.69 6.79 L 10.42 7.14 L 10.14 7.49 L 9.87 7.83 L 9.59 8.18 L 9.3 8.52 L 9.01 8.86 L 8.72 9.19 L 8.43 9.52 L 8.13 9.85 L 7.83 10.18 L 7.53 10.5 L 7.22 10.83 L 6.92 11.14 L 6.6 11.46 L 6.29 11.77 L 5.97 12.08 L 5.65 12.39 L 5.33 12.69 L 5.0 13.0 L 5.0 13.0 L 4.96 13.54 L 4.92 14.08 L 4.88 14.62 L 4.83 15.17 L 4.79 15.71 L 4.75 16.25 L 4.71 16.79 L 4.67 17.33 L 4.62 17.88 L 4.58 18.42 L 4.54 18.96 L 4.5 19.5 L 4.46 20.04 L 4.42 20.58 L 4.38 21.12 L 4.33 21.67 L 4.29 22.21 L 4.25 22.75 L 4.21 23.29 L 4.17 23.83 L 4.12 24.38 L 4.08 24.92 L 4.04 25.46 L 4.0 26.0" fill="none" stroke="#111" stroke-width="1.05" stroke-linecap="round" stroke-linejoin="round"/>
<path d="M 12.0 4.0 L 12.84 4.59 L 13.65 5.23 L 14.42 5.9 L 15.16 6.62 L 15.86 7.37 L 16.51 8.16 L 17.13 8.99 L 17.7 9.84 L 18.22 10.73 L 18.69 11.64 L 19.12 12.57 L 19.5 13.53 L 19.82 14.51 L 20.1 15.5 L 20.32 16.5 L 20.48 17.51 L 20.6 18.53 L 20.66 19.56 L 20.66 20.59 L 20.61 21.61 L 20.51 22.64 L 20.35 23.65 L 20.14 24.66 L 19.87 25.65" fill="none" stroke="#111" stroke-width="1.05" stroke-linecap="round" stroke-linejoin="round"/>
<path d="M 8.0 14.0 L 7.41 14.96 L 7.02 16.02 L 6.82 17.13 L 6.82 18.26 L 7.04 19.36 L 7.45 20.41 L 8.05 21.37 L 8.81 22.2 L 9.71 22.88 L 10.72 23.38 L 11.8 23.68 L 12.93 23.79 L 14.05 23.68 L 15.13 23.38 L 16.14 22.88 L 17.05 22.2 L 17.81 21.37 L 18.41 20.41 L 18.82 19.36 L 19.03 18.26 L 19.04 17.13 L 18.84 16.02 L 18.44 14.96 L 17.85 14.0" fill="none" stroke="#111" stroke-width="1.05" stroke-linecap="round" stroke-linejoin="round"/>
<path d="M 8.0 17.0 L 8.29 17.0 L 8.58 17.0 L 8.88 17.0 L 9.17 17.0 L 9.46 17.0 L 9.75 17.0 L 10.04 17.0 L 10.33 17.0 L 10.62 17.0 L 10.92 17.0 L 11.21 17.0 L 11.5 17.0 L 11.79 17.0 L 12.08 17.0 L 12.38 17.0 L 12.67 17.0 L 12.96 17.0 L 13.25 17.0 L 13.54 17.0 L 13.83 17.0 L 14.12 17.0 L 14.42 17.0 L 14.71 17.0 L 15.0 17.0" fill="none" stroke="#111" stroke-width="1.05" stroke-linecap="round" stroke-linejoin="round"/>
<path d="M 8.0 20.0 L 8.29 19.96 L 8.58 19.92 L 8.88 19.88 L 9.17 19.83 L 9.46 19.79 L 9.75 19.75 L 10.04 19.71 L 10.33 19.67 L 10.62 19.62 L 10.92 19.58 L 11.21 19.54 L 11.5 19.5 L 11.79 19.46 L 12.08 19.42 L 12.38 19.38 L 12.67 19.33 L 12.96 19.29 L 13.25 19.25 L 13.54 19.21 L 13.83 19.17 L 14.12 19.12 L 14.42 19.08 L 14.71 19.04 L 15.0 19.0" fill="none" stroke="#111" stroke-width="1.05" stroke-linecap="round" stroke-linejoin="round"/>
<path d="M 11.0 14.0 L 11.04 14.38 L 11.08 14.75 L 11.12 15.12 L 11.17 15.5 L 11.21 15.88 L 11.25 16.25 L 11.29 16.62 L 11.33 17.0 L 11.38 17.38 L 11.42 17.75 L 11.46 18.12 L 11.5 18.5 L 11.54 18.88 L 11.58 19.25 L 11.62 19.62 L 11.67 20.0 L 11.71 20.38 L 11.75 20.75 L 11.79 21.12 L 11.83 21.5 L 11.88 21.88 L 11.92 22.25 L 11.96 22.62 L 12.0 23.0" fill="none" stroke="#111" stroke-width="1.05" stroke-linecap="round" stroke-linejoin="round"/>
</svg>
