<?xml version="1.0" encoding="UTF-8"?>
<svg xmlns="http://www.w3.org/2000/svg" viewBox="0 0 25.00 38.00">
<path d="M 11.0 7.0 L 11.0 7.75 L 11.0 8.5 L 11.0 9.25 L 11.0 10.0 L 11.0 10.75 L 11.0 11.5 L 11.0 12.25 L 11.0 13.0 L 11.0 13.75 L 11.0 14.5 L 11.0 15.25 L 11.0 16.0 L 11.0 16.75 L 11.0 17.5 L 11.0 18.25 L 11.0 19.0 L 11.0 19.75 L 11.0 20.5 L 11.0 21.25 L 11.0 22.0 L 11.0 22.75 L 11.0 23.5 L 11.0 24.25 L 11.0 25.0" fill="none" stroke="#111" stroke-width="1.33" stroke-linecap="round" stroke-linejoin="round"/>
<path d="M 4.0 23.0 L 4.23 22.29 L 4.54 21.62 L 4.91 20.97 L 5.34 20.37 L 5.84 19.82 L 6.38 19.32 L 6.98 18.88 L 7.62 18.5 L 8.29 18.19 L 9.0 17.95 L 9.72 17.79 L 10.46 17.7 L 11.2 17.68 L 11.94 17.74 L 12.67 17.88 L 13.38 18.09 L 14.07 18.37 L 14.72 18.72 L 15.33 19.14 L 15.9 19.62 L 16.42 20.15 L 16.88 20.74 L 17.27 21.36 L 17.6 22.03" fill="none" stroke="#111" stroke-width="1.33" stroke-linecap="round" stroke-linejoin="round"/>
<path d="M 13.0 6.0 L 13.33 6.42 L 13.67 6.83 L 14.0 7.25 L 14.33 7.67 L 14.67 8.08 L 15.0 8.5 L 15.33 8.92 L 15.67 9.33 L 16.0 9.75 L 16.33 10.17 L 16.67 10.58 L 17.0 11.0 L 17.33 11.42 L 17.67 11.83 L 18.0 12.25 L 18.33 12.67 L 18.67 13.08 L 19.0 13.5 L 19.33 13.92 L 19.67 14.33 L 20.0 14.75 L 20.33 15.17 L 20.67 15.58 L 21.0 16.0" fill="none" stroke="#111" stroke-width="1.33" stroke-linecap="round" stroke-linejoin="round"/>
<path d="M 7.0 27.0 L 7.33 27.0 L 7.67 27.0 L 8.0 27.0 L 8.33 27.0 L 8.67 27.0 L 9.0 27.0 L 9.33 27.0 L 9.67 27.0 L 10.0 27.0 L 10.33 27.0 L 10.67 27.0 L 11.0 27.0 L 11.33 27.0 L 11.67 27.0 L 12.0 27.0 L 12.33 27.0 L 12.67 27.0 L 13.0 27.0 L 13.33 27.0 L 13.67 27.0 L 14.0 27.0 L 14.33 27.0 L 14.67 27.0 L 15.0 27.0 L 15.0 27.0 L 15.0 27.25 L 15.0 27.5 L 15.0 27.75 L 15.0 28.0 L 15.0 28.25 L 15.0 28.5 L 15.0 28.75 L 15.0 29.0 L 15.0 29.25 L 15.0 29.5 L 15.0 29.75 L 15.0 30.0 L 15.0 30.25 L 15.0 30.5 L 15.0 30.75 L 15.0 31.0 L 15.0 31.25 L 15.0 31.5 L 15.0 31.75 L 15.0 32.0 L 15.0 32.25 L 15.0 32.5 L 15.0 32.75 L 15.0 33.0 L 15.0 33.0 L 14.62 33.04 L 14.25 33.08 L 13.88 33.12 L 13.5 33.17 L 13.12 33.21 L 12.75 33.25 L 12.38 33.29 L 12.0 33.33 L 11.62 33.38 L 11.25 33.42 L 10.88 33.46 L 10.5 33.5 L 10.12 33.54 L 9.75 33.58 L 9.38 33.62 L 9.0 33.67 L 8.62 33.71 L 8.25 33.75 L 7.87 33.79 L 7.5 33.83 L 7.12 33.88 L 6.75 33.92 L 6.37 33.96 L 6.0 34.0 L 6.0 34.0 L 6.08 33.71 L 6.17 33.42 L 6.25 33.12 L 6.33 32.83 L 6.42 32.54 L 6.5 32.25 L 6.58 31.96 L 6.67 31.67 L 6.75 31.38 L 6.83 31.08 L 6.92 30.79 L 7.0 30.5 L 7.08 30.21 L 7.17 29.92 L 7.25 29.62 L 7.33 29.33 L 7.42 29.04 L 7.5 28.75 L 7.58 28.46 L 7.67 28.17 L 7.75 27.88 L 7.83 27.58 L 7.92 27.29 L 8.0 27.0" fill="none" stroke="#111" stroke-width="1.33" stroke-linecap="round" stroke-linejoin="round"/>
<path d="M 9.0 31.0 L 9.12 30.96 L 9.25 30.92 L 9.38 30.88 L 9.5 30.83 L 9.62 30.79 L 9.75 30.75 L 9.88 30.71 L 10.0 30.67 L 10.12 30.62 L 10.25 30.58 L 10.38 30.54 L 10.5 30.5 L 10.62 30.46 L 10.75 30.42 L 10.88 30.38 L 11.0 30.33 L 11.12 30.29 L 11.25 30.25 L 11.38 30.21 L 11.5 30.17 L 11.62 30.12 L 11.75 30.08 L 11.88 30.04 L 12.0 30.0" fill="none" stroke="#111" stroke-width="1.33" stroke-linecap="round" stroke-linejoin="round"/>
<path d="M 15.0 4.0 L 15.04 4.08 L 15.08 4.17 L 15.12 4.25 L 15.17 4.33 L 15.21 4.42 L 15.25 4.5 L 15.29 4.58 L 15.33 4.67 L 15.38 4.75 L 15.42 4.83 L 15.46 4.92 L 15.5 5.0 L 15.54 5.08 L 15.58 5.17 L 15.62 5.25 L 15.67 5.33 L 15.71 5.42 L 15.75 5.5 L 15.79 5.58 L 15.83 5.67 L 15.88 5.75 L 15.92 5.83 L 15.96 5.92 L 16.0 6.0 L 16.0 6.0 L 16.09 6.04 L 16.18 6.08 L 16.27 6.13 L 16.36 6.18 L 16.44 6.24 L 16.52 6.31 L 16.59 6.37 L 16.66 6.45 L 16.72 6.53 L 16.78 6.61 L 16.83 6.69 L 16.88 6.78 L 16.92 6.87 L 16.96 6.97 L 16.99 7.06 L 17.01 7.16 L 17.03 7.26 L 17.04 7.36 L 17.05 7.46 L 17.05 7.56 L 17.04 7.66 L 17.02 7.76 L 17.0 7.86 L 16.98 7.96 L 17.0 8.0 L 16.79 8.12 L 16.58 8.25 L 16.38 8.38 L 16.17 8.5 L 15.96 8.62 L 15.75 8.75 L 15.54 8.88 L 15.33 9.0 L 15.12 9.12 L 14.92 9.25 L 14.71 9.38 L 14.5 9.5 L 14.29 9.62 L 14.08 9.75 L 13.88 9.88 L 13.67 10.0 L 13.46 10.12 L 13.25 10.25 L 13.04 10.38 L 12.83 10.5 L 12.62 10.62 L 12.42 10.75 L 12.21 10.88 L 12.0 11.0" fill="none" stroke="#111" stroke-width="1.33" stroke-linecap="round" stroke-linejoin="round"/>
</svg>
