<?xml version="1.0" encoding="UTF-8"?>
<svg xmlns="http://www.w3.org/2000/svg" viewBox="0 0 24.83 38.19">
<path d="M 14.23 4.0 L 13.99 4.72 L 13.75 5.43 L 13.51 6.15 L 13.28 6.87 L 13.05 7.59 L 12.82 8.31 L 12.59 9.04 L 12.36 9.76 L 12.14 10.48 L 11.92 11.21 L 11.7 11.93 L 11.49 12.66 L 11.28 13.38 L 11.07 14.11 L 10.86 14.84 L 10.66 15.57 L 10.45 16.29 L 10.25 17.02 L 10.06 17.76 L 9.86 18.49 L 9.67 19.22 L 9.48 19.95 L 9.29 20.68 L 9.11 21.42 L 9.23 21.0 L 9.92 21.29 L 10.61 21.6 L 11.27 21.95 L 11.92 22.32 L 12.56 22.72 L 13.18 23.14 L 13.78 23.59 L 14.36 24.06 L 14.92 24.56 L 15.46 25.08 L 15.98 25.62 L 16.48 26.18 L 16.95 26.76 L 17.4 27.37 L 17.82 27.99 L 18.22 28.62 L 18.59 29.27 L 18.93 29.94 L 19.25 30.62 L 19.53 31.31 L 19.79 32.02 L 20.02 32.73 L 20.22 33.46 L 20.39 34.19" fill="none" stroke="#111" stroke-width="1.34" stroke-linecap="round" stroke-linejoin="round"/>
<path d="M 14.23 11.0 L 14.66 11.29 L 15.08 11.6 L 15.47 11.93 L 15.85 12.28 L 16.21 12.66 L 16.54 13.05 L 16.86 13.46 L 17.15 13.89 L 17.41 14.33 L 17.65 14.79 L 17.87 15.25 L 18.06 15.74 L 18.22 16.23 L 18.36 16.72 L 18.47 17.23 L 18.55 17.74 L 18.6 18.25 L 18.62 18.77 L 18.62 19.29 L 18.58 19.8 L 18.52 20.32 L 18.43 20.82 L 18.31 21.33 L 18.17 21.82 L 18.23 22.0 L 17.6 22.21 L 16.99 22.45 L 16.38 22.73 L 15.79 23.03 L 15.22 23.37 L 14.67 23.74 L 14.13 24.13 L 13.62 24.56 L 13.13 25.0 L 12.67 25.48 L 12.23 25.98 L 11.82 26.5 L 11.43 27.04 L 11.08 27.6 L 10.75 28.18 L 10.46 28.77 L 10.2 29.38 L 9.97 30.0 L 9.77 30.64 L 9.61 31.28 L 9.48 31.93 L 9.38 32.59 L 9.32 33.25 L 9.3 33.91" fill="none" stroke="#111" stroke-width="1.34" stroke-linecap="round" stroke-linejoin="round"/>
<path d="M 8.23 11.0 L 8.58 10.44 L 8.98 9.92 L 9.43 9.44 L 9.93 9.0 L 10.46 8.61 L 11.02 8.27 L 11.62 7.99 L 12.24 7.77 L 12.87 7.6 L 13.52 7.5 L 14.18 7.45 L 14.84 7.47 L 15.49 7.56 L 16.14 7.7 L 16.76 7.9 L 17.37 8.16 L 17.95 8.48 L 18.49 8.85 L 19.0 9.27 L 19.46 9.73 L 19.88 10.24 L 20.25 10.79 L 20.57 11.36 L 20.83 11.97" fill="none" stroke="#111" stroke-width="1.34" stroke-linecap="round" stroke-linejoin="round"/>
<path d="M 7.23 15.0 L 7.27 15.58 L 7.32 16.17 L 7.36 16.75 L 7.4 17.33 L 7.44 17.92 L 7.48 18.5 L 7.52 19.08 L 7.57 19.67 L 7.61 20.25 L 7.65 20.83 L 7.69 21.42 L 7.73 22.0 L 7.77 22.58 L 7.82 23.17 L 7.86 23.75 L 7.9 24.33 L 7.94 24.92 L 7.98 25.5 L 8.02 26.08 L 8.07 26.67 L 8.11 27.25 L 8.15 27.83 L 8.19 28.42 L 8.23 29.0" fill="none" stroke="#111" stroke-width="1.34" stroke-linecap="round" stroke-linejoin="round"/>
<path d="M 7.23 15.0 L 6.74 15.49 L 6.28 16.01 L 5.86 16.57 L 5.48 17.15 L 5.14 17.75 L 4.84 18.38 L 4.59 19.02 L 4.38 19.68 L 4.21 20.36 L 4.09 21.04 L 4.02 21.73 L 4.0 22.43 L 4.02 23.12 L 4.09 23.81 L 4.21 24.49 L 4.38 25.17 L 4.59 25.83 L 4.84 26.48 L 5.14 27.1 L 5.48 27.71 L 5.86 28.29 L 6.28 28.84 L 6.74 29.36 L 7.23 29.85" fill="none" stroke="#111" stroke-width="1.34" stroke-linecap="round" stroke-linejoin="round"/>
</svg>
