<?xml version="1.0" encoding="UTF-8"?>
<svg xmlns="http://www.w3.org/2000/svg" viewBox="0 0 25.00 36.00">
<path d="M 12.0 6.0 L 12.0 7.08 L 12.0 8.17 L 12.0 9.25 L 12.0 10.33 L 12.0 11.42 L 12.0 12.5 L 12.0 13.58 L 12.0 14.67 L 12.0 15.75 L 12.0 16.83 L 12.0 17.92 L 12.0 19.0 L 12.0 20.08 L 12.0 21.17 L 12.0 22.25 L 12.0 23.33 L 12.0 24.42 L 12.0 25.5 L 12.0 26.58 L 12.0 27.67 L 12.0 28.75 L 12.0 29.83 L 12.0 30.92 L 12.0 32.0" fill="none" stroke="#111" stroke-width="1.26" stroke-linecap="round" stroke-linejoin="round"/>
<path d="M 9.0 4.0 L 8.96 4.33 L 8.92 4.67 L 8.88 5.0 L 8.83 5.33 L 8.79 5.67 L 8.75 6.0 L 8.71 6.33 L 8.67 6.67 L 8.62 7.0 L 8.58 7.33 L 8.54 7.67 L 8.5 8.0 L 8.46 8.33 L 8.42 8.67 L 8.38 9.0 L 8.33 9.33 L 8.29 9.67 L 8.25 10.0 L 8.21 10.33 L 8.17 10.67 L 8.12 11.0 L 8.08 11.33 L 8.04 11.67 L 8.0 12.0 L 8.0 12.0 L 8.17 12.12 L 8.33 12.25 L 8.5 12.38 L 8.67 12.5 L 8.83 12.62 L 9.0 12.75 L 9.17 12.88 L 9.33 13.0 L 9.5 13.12 L 9.67 13.25 L 9.83 13.38 L 10.0 13.5 L 10.17 13.62 L 10.33 13.75 L 10.5 13.88 L 10.67 14.0 L 10.83 14.12 L 11.0 14.25 L 11.17 14.38 L 11.33 14.5 L 11.5 14.62 L 11.67 14.75 L 11.83 14.88 L 12.0 15.0" fill="none" stroke="#111" stroke-width="1.26" stroke-linecap="round" stroke-linejoin="round"/>
<path d="M 7.0 17.0 L 7.46 17.0 L 7.92 17.0 L 8.38 17.0 L 8.83 17.0 L 9.29 17.0 L 9.75 17.0 L 10.21 17.0 L 10.67 17.0 L 11.12 17.0 L 11.58 17.0 L 12.04 17.0 L 12.5 17.0 L 12.96 17.0 L 13.42 17.0 L 13.88 17.0 L 14.33 17.0 L 14.79 17.0 L 15.25 17.0 L 15.71 17.0 L 16.17 17.0 L 16.62 17.0 L 17.08 17.0 L 17.54 17.0 L 18.0 17.0" fill="none" stroke="#111" stroke-width="1.26" stroke-linecap="round" stroke-linejoin="round"/>
<path d="M 15.0 4.0 L 15.48 4.37 L 15.92 4.78 L 16.32 5.24 L 16.67 5.73 L 16.96 6.26 L 17.2 6.81 L 17.38 7.39 L 17.5 7.98 L 17.56 8.59 L 17.55 9.19 L 17.48 9.79 L 17.36 10.38 L 17.17 10.96 L 16.92 11.51 L 16.62 12.03 L 16.26 12.52 L 15.86 12.97 L 15.41 13.38 L 14.92 13.74 L 14.4 14.04 L 13.85 14.29 L 13.28 14.48 L 12.69 14.62 L 12.09 14.69" fill="none" stroke="#111" stroke-width="1.26" stroke-linecap="round" stroke-linejoin="round"/>
<path d="M 4.0 27.0 L 4.33 26.67 L 4.67 26.33 L 5.0 26.0 L 5.33 25.67 L 5.67 25.33 L 6.0 25.0 L 6.33 24.67 L 6.67 24.33 L 7.0 24.0 L 7.33 23.67 L 7.67 23.33 L 8.0 23.0 L 8.33 22.67 L 8.67 22.33 L 9.0 22.0 L 9.33 21.67 L 9.67 21.33 L 10.0 21.0 L 10.33 20.67 L 10.67 20.33 L 11.0 20.0 L 11.33 19.67 L 11.67 19.33 L 12.0 19.0" fill="none" stroke="#111" stroke-width="1.26" stroke-linecap="round" stroke-linejoin="round"/>
<path d="M 12.0 19.0 L 12.38 19.38 L 12.75 19.75 L 13.12 20.12 L 13.5 20.5 L 13.88 20.88 L 14.25 21.25 L 14.62 21.62 L 15.0 22.0 L 15.38 22.38 L 15.75 22.75 L 16.12 23.12 L 16.5 23.5 L 16.88 23.88 L 17.25 24.25 L 17.62 24.62 L 18.0 25.0 L 18.38 25.38 L 18.75 25.75 L 19.12 26.12 L 19.5 26.5 L 19.88 26.88 L 20.25 27.25 L 20.62 27.62 L 21.0 28.0" fill="none" stroke="#111" stroke-width="1.26" stroke-linecap="round" stroke-linejoin="round"/>
</svg>
