<?xml version="1.0" encoding="UTF-8"?>
<svg xmlns="http://www.w3.org/2000/svg" viewBox="0 0 21.00 36.00">
<path d="M 12.0 4.0 L 11.88 4.25 L 11.75 4.5 L 11.62 4.75 L 11.5 5.0 L 11.38 5.25 L 11.25 5.5 L 11.12 5.75 L 11.0 6.0 L 10.88 6.25 L 10.75 6.5 L 10.62 6.75 L 10.5 7.0 L 10.38 7.25 L 10.25 7.5 L 10.12 7.75 L 10.0 8.0 L 9.88 8.25 L 9.75 8.5 L 9.62 8.75 L 9.5 9.0 L 9.38 9.25 L 9.25 9.5 L 9.12 9.75 L 9.0 10.0 L 9.0 10.0 L 8.96 10.29 L 8.92 10.58 L 8.88 10.88 L 8.83 11.17 L 8.79 11.46 L 8.75 11.75 L 8.71 12.04 L 8.67 12.33 L 8.62 12.62 L 8.58 12.92 L 8.54 13.21 L 8.5 13.5 L 8.46 13.79 L 8.42 14.08 L 8.38 14.38 L 8.33 14.67 L 8.29 14.96 L 8.25 15.25 L 8.21 15.54 L 8.17 15.83 L 8.12 16.12 L 8.08 16.42 L 8.04 16.71 L 8.0 17.0 L 8.0 17.0 L 8.17 17.0 L 8.33 17.0 L 8.5 17.0 L 8.67 17.0 L 8.83 17.0 L 9.0 17.0 L 9.17 17.0 L 9.33 17.0 L 9.5 17.0 L 9.67 17.0 L 9.83 17.0 L 10.0 17.0 L 10.17 17.0 L 10.33 17.0 L 10.5 17.0 L 10.67 17.0 L 10.83 17.0 L 11.0 17.0 L 11.17 17.0 L 11.33 17.0 L 11.5 17.0 L 11.67 17.0 L 11.83 17.0 L 12.0 17.0 L 12.0 17.0 L 12.04 16.92 L 12.08 16.83 L 12.12 16.75 L 12.17 16.67 L 12.21 16.58 L 12.25 16.5 L 12.29 16.42 L 12.33 16.33 L 12.38 16.25 L 12.42 16.17 L 12.46 16.08 L 12.5 16.0 L 12.54 15.92 L 12.58 15.83 L 12.62 15.75 L 12.67 15.67 L 12.71 15.58 L 12.75 15.5 L 12.79 15.42 L 12.83 15.33 L 12.88 15.25 L 12.92 15.17 L 12.96 15.08 L 13.0 15.0" fill="none" stroke="#111" stroke-width="1.26" stroke-linecap="round" stroke-linejoin="round"/>
<path d="M 12.0 5.0 L 12.51 5.18 L 13.0 5.4 L 13.48 5.66 L 13.94 5.95 L 14.37 6.28 L 14.77 6.63 L 15.15 7.02 L 15.5 7.44 L 15.81 7.88 L 16.09 8.34 L 16.33 8.83 L 16.53 9.33 L 16.7 9.84 L 16.83 10.37 L 16.91 10.91 L 16.95 11.44 L 16.96 11.99 L 16.92 12.53 L 16.84 13.06 L 16.71 13.59 L 16.55 14.1 L 16.35 14.61 L 16.11 15.09 L 15.84 15.56 L 16.0 16.0 L 15.96 15.92 L 15.92 15.83 L 15.88 15.75 L 15.83 15.67 L 15.79 15.58 L 15.75 15.5 L 15.71 15.42 L 15.67 15.33 L 15.62 15.25 L 15.58 15.17 L 15.54 15.08 L 15.5 15.0 L 15.46 14.92 L 15.42 14.83 L 15.38 14.75 L 15.33 14.67 L 15.29 14.58 L 15.25 14.5 L 15.21 14.42 L 15.17 14.33 L 15.12 14.25 L 15.08 14.17 L 15.04 14.08 L 15.0 14.0" fill="none" stroke="#111" stroke-width="1.26" stroke-linecap="round" stroke-linejoin="round"/>
<path d="M 7.0 7.0 L 7.3 7.43 L 7.63 7.83 L 8.01 8.2 L 8.42 8.52 L 8.86 8.8 L 9.33 9.03 L 9.82 9.22 L 10.32 9.35 L 10.84 9.43 L 11.36 9.46 L 11.89 9.44 L 12.4 9.36 L 12.91 9.24 L 13.4 9.06 L 13.87 8.83 L 14.32 8.55 L 14.73 8.23 L 15.11 7.88 L 15.46 7.48 L 15.76 7.05 L 16.01 6.59 L 16.22 6.11 L 16.38 5.62 L 16.48 5.1" fill="none" stroke="#111" stroke-width="1.26" stroke-linecap="round" stroke-linejoin="round"/>
<path d="M 9.0 11.0 L 9.29 10.96 L 9.58 10.92 L 9.88 10.88 L 10.17 10.83 L 10.46 10.79 L 10.75 10.75 L 11.04 10.71 L 11.33 10.67 L 11.62 10.62 L 11.92 10.58 L 12.21 10.54 L 12.5 10.5 L 12.79 10.46 L 13.08 10.42 L 13.38 10.38 L 13.67 10.33 L 13.96 10.29 L 14.25 10.25 L 14.54 10.21 L 14.83 10.17 L 15.12 10.12 L 15.42 10.08 L 15.71 10.04 L 16.0 10.0" fill="none" stroke="#111" stroke-width="1.26" stroke-linecap="round" stroke-linejoin="round"/>
<path d="M 4.0 16.0 L 4.12 16.17 L 4.25 16.33 L 4.38 16.5 L 4.5 16.67 L 4.62 16.83 L 4.75 17.0 L 4.88 17.17 L 5.0 17.33 L 5.12 17.5 L 5.25 17.67 L 5.38 17.83 L 5.5 18.0 L 5.62 18.17 L 5.75 18.33 L 5.88 18.5 L 6.0 18.67 L 6.12 18.83 L 6.25 19.0 L 6.38 19.17 L 6.5 19.33 L 6.62 19.5 L 6.75 19.67 L 6.88 19.83 L 7.0 20.0 L 7.0 20.0 L 6.9 20.49 L 6.8 20.99 L 6.71 21.48 L 6.63 21.98 L 6.55 22.47 L 6.47 22.97 L 6.4 23.47 L 6.34 23.96 L 6.28 24.46 L 6.22 24.96 L 6.17 25.46 L 6.13 25.96 L 6.09 26.46 L 6.05 26.97 L 6.03 27.47 L 6.0 27.97 L 5.98 28.47 L 5.97 28.97 L 5.96 29.48 L 5.96 29.98 L 5.96 30.48 L 5.97 30.98 L 5.98 31.49 L 6.0 31.99" fill="none" stroke="#111" stroke-width="1.26" stroke-linecap="round" stroke-linejoin="round"/>
<path d="M 13.0 23.0 L 13.0 23.38 L 13.0 23.75 L 13.0 24.12 L 13.0 24.5 L 13.0 24.88 L 13.0 25.25 L 13.0 25.62 L 13.0 26.0 L 13.0 26.38 L 13.0 26.75 L 13.0 27.12 L 13.0 27.5 L 13.0 27.88 L 13.0 28.25 L 13.0 28.62 L 13.0 29.0 L 13.0 29.38 L 13.0 29.75 L 13.0 30.12 L 13.0 30.5 L 13.0 30.88 L 13.0 31.25 L 13.0 31.62 L 13.0 32.0" fill="none" stroke="#111" stroke-width="1.26" stroke-linecap="round" stroke-linejoin="round"/>
<path d="M 17.0 21.0 L 16.88 21.17 L 16.75 21.33 L 16.62 21.5 L 16.5 21.67 L 16.38 21.83 L 16.25 22.0 L 16.12 22.17 L 16.0 22.33 L 15.88 22.5 L 15.75 22.67 L 15.62 22.83 L 15.5 23.0 L 15.38 23.17 L 15.25 23.33 L 15.12 23.5 L 15.0 23.67 L 14.88 23.83 L 14.75 24.0 L 14.62 24.17 L 14.5 24.33 L 14.38 24.5 L 14.25 24.67 L 14.12 24.83 L 14.0 25.0" fill="none" stroke="#111" stroke-width="1.26" stroke-linecap="round" stroke-linejoin="round"/>
<path d="M 9.0 24.0 L 9.29 24.33 L 9.58 24.67 L 9.88 25.0 L 10.17 25.33 L 10.46 25.67 L 10.75 26.0 L 11.04 26.33 L 11.33 26.67 L 11.62 27.0 L 11.92 27.33 L 12.21 27.67 L 12.5 28.0 L 12.79 28.33 L 13.08 28.67 L 13.38 29.0 L 13.67 29.33 L 13.96 29.67 L 14.25 30.0 L 14.54 30.33 L 14.83 30.67 L 15.12 31.0 L 15.42 31.33 L 15.71 31.67 L 16.0 32.0" fill="none" stroke="#111" stroke-width="1.26" stroke-linecap="round" stroke-linejoin="round"/>
<path d="M 13.0 29.0 L 12.83 29.12 L 12.67 29.25 L 12.5 29.38 L 12.33 29.5 L 12.17 29.62 L 12.0 29.75 L 11.83 29.88 L 11.67 30.0 L 11.5 30.12 L 11.33 30.25 L 11.17 30.38 L 11.0 30.5 L 10.83 30.62 L 10.67 30.75 L 10.5 30.88 L 10.33 31.0 L 10.17 31.12 L 10.0 31.25 L 9.83 31.38 L 9.67 31.5 L 9.5 31.62 L 9.33 31.75 L 9.17 31.88 L 9.0 32.0" fill="none" stroke="#111" stroke-width="1.26" stroke-linecap="round" stroke-linejoin="round"/>
</svg>
