<?xml version="1.0" encoding="UTF-8"?>
<svg xmlns="http://www.w3.org/2000/svg" viewBox="0 0 25.05 36.00">
<path d="M 8.0 15.0 L 8.38 14.96 L 8.75 14.92 L 9.12 14.88 L 9.5 14.83 L 9.88 14.79 L 10.25 14.75 L 10.62 14.71 L 11.0 14.67 L 11.38 14.62 L 11.75 14.58 L 12.12 14.54 L 12.5 14.5 L 12.88 14.46 L 13.25 14.42 L 13.62 14.38 L 14.0 14.33 L 14.38 14.29 L 14.75 14.25 L 15.12 14.21 L 15.5 14.17 L 15.88 14.12 L 16.25 14.08 L 16.62 14.04 L 17.0 14.0" fill="none" stroke="#111" stroke-width="1.26" stroke-linecap="round" stroke-linejoin="round"/>
<path d="M 8.0 20.0 L 8.38 20.0 L 8.75 20.0 L 9.12 20.0 L 9.5 20.0 L 9.88 20.0 L 10.25 20.0 L 10.62 20.0 L 11.0 20.0 L 11.38 20.0 L 11.75 20.0 L 12.12 20.0 L 12.5 20.0 L 12.88 20.0 L 13.25 20.0 L 13.62 20.0 L 14.0 20.0 L 14.38 20.0 L 14.75 20.0 L 15.12 20.0 L 15.5 20.0 L 15.88 20.0 L 16.25 20.0 L 16.62 20.0 L 17.0 20.0" fill="none" stroke="#111" stroke-width="1.26" stroke-linecap="round" stroke-linejoin="round"/>
<path d="M 12.0 15.0 L 12.08 15.68 L 12.15 16.37 L 12.2 17.05 L 12.22 17.74 L 12.23 18.42 L 12.23 19.11 L 12.2 19.8 L 12.15 20.48 L 12.09 21.17 L 12.01 21.85 L 11.91 22.53 L 11.79 23.21 L 11.66 23.88 L 11.5 24.55 L 11.33 25.21 L 11.14 25.87 L 10.94 26.53 L 10.71 27.18 L 10.47 27.82 L 10.21 28.46 L 9.94 29.09 L 9.65 29.71 L 9.34 30.32 L 9.01 30.93" fill="none" stroke="#111" stroke-width="1.26" stroke-linecap="round" stroke-linejoin="round"/>
<path d="M 7.0 8.0 L 6.96 8.29 L 6.92 8.58 L 6.88 8.88 L 6.83 9.17 L 6.79 9.46 L 6.75 9.75 L 6.71 10.04 L 6.67 10.33 L 6.62 10.62 L 6.58 10.92 L 6.54 11.21 L 6.5 11.5 L 6.46 11.79 L 6.42 12.08 L 6.38 12.38 L 6.33 12.67 L 6.29 12.96 L 6.25 13.25 L 6.21 13.54 L 6.17 13.83 L 6.12 14.12 L 6.08 14.42 L 6.04 14.71 L 6.0 15.0" fill="none" stroke="#111" stroke-width="1.26" stroke-linecap="round" stroke-linejoin="round"/>
<path d="M 4.0 10.0 L 4.08 10.21 L 4.17 10.42 L 4.25 10.62 L 4.33 10.83 L 4.42 11.04 L 4.5 11.25 L 4.58 11.46 L 4.67 11.67 L 4.75 11.88 L 4.83 12.08 L 4.92 12.29 L 5.0 12.5 L 5.08 12.71 L 5.17 12.92 L 5.25 13.12 L 5.33 13.33 L 5.42 13.54 L 5.5 13.75 L 5.58 13.96 L 5.67 14.17 L 5.75 14.38 L 5.83 14.58 L 5.92 14.79 L 6.0 15.0 L 6.0 15.0 L 6.12 14.79 L 6.25 14.58 L 6.38 14.38 L 6.5 14.17 L 6.62 13.96 L 6.75 13.75 L 6.88 13.54 L 7.0 13.33 L 7.12 13.12 L 7.25 12.92 L 7.38 12.71 L 7.5 12.5 L 7.62 12.29 L 7.75 12.08 L 7.88 11.88 L 8.0 11.67 L 8.12 11.46 L 8.25 11.25 L 8.38 11.04 L 8.5 10.83 L 8.62 10.62 L 8.75 10.42 L 8.88 10.21 L 9.0 10.0" fill="none" stroke="#111" stroke-width="1.26" stroke-linecap="round" stroke-linejoin="round"/>
<path d="M 13.0 4.0 L 13.04 4.33 L 13.08 4.67 L 13.12 5.0 L 13.17 5.33 L 13.21 5.67 L 13.25 6.0 L 13.29 6.33 L 13.33 6.67 L 13.38 7.0 L 13.42 7.33 L 13.46 7.67 L 13.5 8.0 L 13.54 8.33 L 13.58 8.67 L 13.62 9.0 L 13.67 9.33 L 13.71 9.67 L 13.75 10.0 L 13.79 10.33 L 13.83 10.67 L 13.88 11.0 L 13.92 11.33 L 13.96 11.67 L 14.0 12.0" fill="none" stroke="#111" stroke-width="1.26" stroke-linecap="round" stroke-linejoin="round"/>
<path d="M 10.0 6.0 L 10.17 6.25 L 10.33 6.5 L 10.5 6.75 L 10.67 7.0 L 10.83 7.25 L 11.0 7.5 L 11.17 7.75 L 11.33 8.0 L 11.5 8.25 L 11.67 8.5 L 11.83 8.75 L 12.0 9.0 L 12.17 9.25 L 12.33 9.5 L 12.5 9.75 L 12.67 10.0 L 12.83 10.25 L 13.0 10.5 L 13.17 10.75 L 13.33 11.0 L 13.5 11.25 L 13.67 11.5 L 13.83 11.75 L 14.0 12.0 L 14.0 12.0 L 14.12 11.75 L 14.25 11.5 L 14.38 11.25 L 14.5 11.0 L 14.62 10.75 L 14.75 10.5 L 14.88 10.25 L 15.0 10.0 L 15.12 9.75 L 15.25 9.5 L 15.38 9.25 L 15.5 9.0 L 15.62 8.75 L 15.75 8.5 L 15.88 8.25 L 16.0 8.0 L 16.12 7.75 L 16.25 7.5 L 16.38 7.25 L 16.5 7.0 L 16.62 6.75 L 16.75 6.5 L 16.88 6.25 L 17.0 6.0" fill="none" stroke="#111" stroke-width="1.26" stroke-linecap="round" stroke-linejoin="round"/>
<path d="M 18.0 7.0 L 18.47 7.55 L 18.9 8.13 L 19.3 8.74 L 19.66 9.36 L 19.98 10.01 L 20.26 10.68 L 20.5 11.36 L 20.7 12.06 L 20.86 12.77 L 20.97 13.48 L 21.03 14.21 L 21.05 14.93 L 21.03 15.65 L 20.97 16.37 L 20.86 17.09 L 20.7 17.8 L 20.5 18.5 L 20.26 19.18 L 19.98 19.85 L 19.66 20.5 L 19.3 21.12 L 18.9 21.73 L 18.47 22.31 L 18.0 22.86 L 18.0 23.0 L 18.12 23.38 L 18.25 23.75 L 18.38 24.12 L 18.5 24.5 L 18.62 24.88 L 18.75 25.25 L 18.88 25.62 L 19.0 26.0 L 19.12 26.38 L 19.25 26.75 L 19.38 27.12 L 19.5 27.5 L 19.62 27.88 L 19.75 28.25 L 19.88 28.62 L 20.0 29.0 L 20.12 29.38 L 20.25 29.75 L 20.38 30.12 L 20.5 30.5 L 20.62 30.88 L 20.75 31.25 L 20.88 31.62 L 21.0 32.0" fill="none" stroke="#111" stroke-width="1.26" stroke-linecap="round" stroke-linejoin="round"/>
</svg>
