<?xml version="1.0" encoding="UTF-8"?>
<svg xmlns="http://www.w3.org/2000/svg" viewBox="0 0 27.28 39.53">
<path d="M 5.28 4.0 L 5.7 4.28 L 6.11 4.58 L 6.49 4.91 L 6.85 5.26 L 7.19 5.64 L 7.5 6.03 L 7.79 6.45 L 8.05 6.88 L 8.29 7.32 L 8.5 7.78 L 8.67 8.25 L 8.82 8.74 L 8.94 9.23 L 9.03 9.72 L 9.08 10.22 L 9.11 10.73 L 9.1 11.23 L 9.06 11.74 L 8.99 12.24 L 8.89 12.73 L 8.75 13.22 L 8.59 13.69 L 8.4 14.16 L 8.18 14.61" fill="none" stroke="#111" stroke-width="1.38" stroke-linecap="round" stroke-linejoin="round"/>
<path d="M 9.28 4.0 L 9.2 4.17 L 9.12 4.33 L 9.03 4.5 L 8.95 4.67 L 8.87 4.83 L 8.78 5.0 L 8.7 5.17 L 8.62 5.33 L 8.53 5.5 L 8.45 5.67 L 8.37 5.83 L 8.28 6.0 L 8.2 6.17 L 8.12 6.33 L 8.03 6.5 L 7.95 6.67 L 7.87 6.83 L 7.78 7.0 L 7.7 7.17 L 7.62 7.33 L 7.53 7.5 L 7.45 7.67 L 7.37 7.83 L 7.28 8.0 L 7.28 8.0 L 6.97 8.14 L 6.67 8.31 L 6.38 8.49 L 6.1 8.69 L 5.84 8.91 L 5.58 9.14 L 5.35 9.39 L 5.13 9.66 L 4.93 9.93 L 4.74 10.23 L 4.58 10.53 L 4.43 10.84 L 4.31 11.16 L 4.2 11.48 L 4.12 11.82 L 4.06 12.16 L 4.02 12.5 L 4.0 12.84 L 4.0 13.18 L 4.03 13.52 L 4.08 13.87 L 4.14 14.2 L 4.23 14.53 L 4.34 14.86" fill="none" stroke="#111" stroke-width="1.38" stroke-linecap="round" stroke-linejoin="round"/>
<path d="M 4.28 13.0 L 4.54 12.74 L 4.82 12.51 L 5.12 12.31 L 5.44 12.13 L 5.77 11.99 L 6.11 11.88 L 6.47 11.79 L 6.83 11.74 L 7.19 11.73 L 7.55 11.75 L 7.91 11.8 L 8.26 11.88 L 8.61 11.99 L 8.94 12.14 L 9.25 12.32 L 9.55 12.52 L 9.83 12.75 L 10.09 13.01 L 10.32 13.29 L 10.53 13.59 L 10.7 13.91 L 10.85 14.24 L 10.97 14.58 L 11.05 14.93 L 11.28 15.0 L 11.28 15.29 L 11.28 15.58 L 11.28 15.88 L 11.28 16.17 L 11.28 16.46 L 11.28 16.75 L 11.28 17.04 L 11.28 17.33 L 11.28 17.62 L 11.28 17.92 L 11.28 18.21 L 11.28 18.5 L 11.28 18.79 L 11.28 19.08 L 11.28 19.38 L 11.28 19.67 L 11.28 19.96 L 11.28 20.25 L 11.28 20.54 L 11.28 20.83 L 11.28 21.12 L 11.28 21.42 L 11.28 21.71 L 11.28 22.0 L 11.28 22.0 L 11.11 22.22 L 10.95 22.45 L 10.8 22.7 L 10.68 22.95 L 10.57 23.21 L 10.49 23.48 L 10.42 23.75 L 10.38 24.03 L 10.35 24.31 L 10.35 24.59 L 10.36 24.87 L 10.4 25.15 L 10.45 25.43 L 10.53 25.7 L 10.63 25.97 L 10.74 26.22 L 10.88 26.47 L 11.03 26.71 L 11.2 26.94 L 11.38 27.15 L 11.58 27.35 L 11.79 27.53 L 12.02 27.7 L 12.26 27.85 L 12.28 28.0 L 12.33 27.88 L 12.37 27.75 L 12.41 27.62 L 12.45 27.5 L 12.49 27.38 L 12.53 27.25 L 12.58 27.12 L 12.62 27.0 L 12.66 26.88 L 12.7 26.75 L 12.74 26.62 L 12.78 26.5 L 12.83 26.38 L 12.87 26.25 L 12.91 26.12 L 12.95 26.0 L 12.99 25.88 L 13.03 25.75 L 13.08 25.62 L 13.12 25.5 L 13.16 25.38 L 13.2 25.25 L 13.24 25.12 L 13.28 25.0" fill="none" stroke="#111" stroke-width="1.38" stroke-linecap="round" stroke-linejoin="round"/>
<path d="M 14.28 6.0 L 14.41 6.08 L 14.53 6.17 L 14.66 6.25 L 14.78 6.33 L 14.91 6.42 L 15.03 6.5 L 15.16 6.58 L 15.28 6.67 L 15.41 6.75 L 15.53 6.83 L 15.66 6.92 L 15.78 7.0 L 15.91 7.08 L 16.03 7.17 L 16.16 7.25 L 16.28 7.33 L 16.41 7.42 L 16.53 7.5 L 16.66 7.58 L 16.78 7.67 L 16.91 7.75 L 17.03 7.83 L 17.16 7.92 L 17.28 8.0 L 17.28 8.0 L 17.37 7.83 L 17.45 7.67 L 17.53 7.5 L 17.62 7.33 L 17.7 7.17 L 17.78 7.0 L 17.87 6.83 L 17.95 6.67 L 18.03 6.5 L 18.12 6.33 L 18.2 6.17 L 18.28 6.0 L 18.37 5.83 L 18.45 5.67 L 18.53 5.5 L 18.62 5.33 L 18.7 5.17 L 18.78 5.0 L 18.87 4.83 L 18.95 4.67 L 19.03 4.5 L 19.12 4.33 L 19.2 4.17 L 19.28 4.0" fill="none" stroke="#111" stroke-width="1.38" stroke-linecap="round" stroke-linejoin="round"/>
<path d="M 17.28 8.0 L 17.41 7.96 L 17.53 7.92 L 17.66 7.88 L 17.78 7.83 L 17.91 7.79 L 18.03 7.75 L 18.16 7.71 L 18.28 7.67 L 18.41 7.62 L 18.53 7.58 L 18.66 7.54 L 18.78 7.5 L 18.91 7.46 L 19.03 7.42 L 19.16 7.38 L 19.28 7.33 L 19.41 7.29 L 19.53 7.25 L 19.66 7.21 L 19.78 7.17 L 19.91 7.12 L 20.03 7.08 L 20.16 7.04 L 20.28 7.0 L 20.28 7.0 L 20.76 7.38 L 21.15 7.85 L 21.44 8.38 L 21.63 8.96 L 21.7 9.56 L 21.65 10.17 L 21.49 10.76 L 21.22 11.3 L 20.86 11.78 L 20.4 12.19 L 19.88 12.5 L 19.3 12.7 L 18.7 12.79 L 18.1 12.76 L 17.51 12.62 L 16.95 12.37 L 16.46 12.01 L 16.04 11.57 L 15.72 11.06 L 15.5 10.49 L 15.39 9.89 L 15.4 9.29 L 15.52 8.69 L 15.76 8.13" fill="none" stroke="#111" stroke-width="1.38" stroke-linecap="round" stroke-linejoin="round"/>
<path d="M 16.28 11.0 L 16.45 10.96 L 16.62 10.92 L 16.78 10.88 L 16.95 10.83 L 17.12 10.79 L 17.28 10.75 L 17.45 10.71 L 17.62 10.67 L 17.78 10.62 L 17.95 10.58 L 18.12 10.54 L 18.28 10.5 L 18.45 10.46 L 18.62 10.42 L 18.78 10.38 L 18.95 10.33 L 19.12 10.29 L 19.28 10.25 L 19.45 10.21 L 19.62 10.17 L 19.78 10.12 L 19.95 10.08 L 20.12 10.04 L 20.28 10.0" fill="none" stroke="#111" stroke-width="1.38" stroke-linecap="round" stroke-linejoin="round"/>
<path d="M 17.28 8.0 L 17.37 8.29 L 17.45 8.58 L 17.53 8.88 L 17.62 9.17 L 17.7 9.46 L 17.78 9.75 L 17.87 10.04 L 17.95 10.33 L 18.03 10.62 L 18.12 10.92 L 18.2 11.21 L 18.28 11.5 L 18.37 11.79 L 18.45 12.08 L 18.53 12.38 L 18.62 12.67 L 18.7 12.96 L 18.78 13.25 L 18.87 13.54 L 18.95 13.83 L 19.03 14.12 L 19.12 14.42 L 19.2 14.71 L 19.28 15.0" fill="none" stroke="#111" stroke-width="1.38" stroke-linecap="round" stroke-linejoin="round"/>
<path d="M 21.28 10.0 L 21.37 10.08 L 21.45 10.17 L 21.53 10.25 L 21.62 10.33 L 21.7 10.42 L 21.78 10.5 L 21.87 10.58 L 21.95 10.67 L 22.03 10.75 L 22.12 10.83 L 22.2 10.92 L 22.28 11.0 L 22.37 11.08 L 22.45 11.17 L 22.53 11.25 L 22.62 11.33 L 22.7 11.42 L 22.78 11.5 L 22.87 11.58 L 22.95 11.67 L 23.03 11.75 L 23.12 11.83 L 23.2 11.92 L 23.28 12.0" fill="none" stroke="#111" stroke-width="1.38" stroke-linecap="round" stroke-linejoin="round"/>
<path d="M 16.28 12.0 L 17.14 12.73 L 17.93 13.53 L 18.67 14.38 L 19.33 15.29 L 19.93 16.24 L 20.46 17.24 L 20.91 18.27 L 21.28 19.33 L 21.57 20.41 L 21.78 21.52 L 21.91 22.64 L 21.95 23.76 L 21.91 24.89 L 21.78 26.0 L 21.57 27.11 L 21.28 28.2 L 20.91 29.26 L 20.46 30.29 L 19.93 31.28 L 19.33 32.24 L 18.67 33.14 L 17.93 34.0 L 17.14 34.79 L 16.28 35.53" fill="none" stroke="#111" stroke-width="1.38" stroke-linecap="round" stroke-linejoin="round"/>
</svg>
