<?xml version="1.0" encoding="UTF-8"?>
<svg xmlns="http://www.w3.org/2000/svg" viewBox="0 0 23.00 37.00">
<path d="M 7.0 4.0 L 7.66 4.69 L 8.26 5.43 L 8.81 6.22 L 9.29 7.05 L 9.7 7.92 L 10.04 8.81 L 10.31 9.73 L 10.51 10.66 L 10.63 11.61 L 10.68 12.57 L 10.65 13.53 L 10.55 14.48 L 10.37 15.42 L 10.11 16.34 L 9.79 17.24 L 9.39 18.11 L 8.93 18.95 L 8.4 19.75 L 7.81 20.5 L 7.16 21.21 L 6.46 21.86 L 5.71 22.45 L 4.92 22.98 L 4.08 23.45 L 4.0 24.0 L 4.38 24.38 L 4.75 24.75 L 5.12 25.12 L 5.5 25.5 L 5.88 25.88 L 6.25 26.25 L 6.62 26.62 L 7.0 27.0 L 7.38 27.38 L 7.75 27.75 L 8.12 28.12 L 8.5 28.5 L 8.88 28.88 L 9.25 29.25 L 9.62 29.62 L 10.0 30.0 L 10.38 30.38 L 10.75 30.75 L 11.12 31.12 L 11.5 31.5 L 11.88 31.88 L 12.25 32.25 L 12.62 32.62 L 13.0 33.0" fill="none" stroke="#111" stroke-width="1.30" stroke-linecap="round" stroke-linejoin="round"/>
<path d="M 9.0 16.0 L 9.42 16.21 L 9.83 16.42 L 10.25 16.62 L 10.67 16.83 L 11.08 17.04 L 11.5 17.25 L 11.92 17.46 L 12.33 17.67 L 12.75 17.88 L 13.17 18.08 L 13.58 18.29 L 14.0 18.5 L 14.42 18.71 L 14.83 18.92 L 15.25 19.12 L 15.67 19.33 L 16.08 19.54 L 16.5 19.75 L 16.92 19.96 L 17.33 20.17 L 17.75 20.38 L 18.17 20.58 L 18.58 20.79 L 19.0 21.0" fill="none" stroke="#111" stroke-width="1.30" stroke-linecap="round" stroke-linejoin="round"/>
<path d="M 7.0 20.0 L 7.42 20.25 L 7.83 20.5 L 8.25 20.75 L 8.67 21.0 L 9.08 21.25 L 9.5 21.5 L 9.92 21.75 L 10.33 22.0 L 10.75 22.25 L 11.17 22.5 L 11.58 22.75 L 12.0 23.0 L 12.42 23.25 L 12.83 23.5 L 13.25 23.75 L 13.67 24.0 L 14.08 24.25 L 14.5 24.5 L 14.92 24.75 L 15.33 25.0 L 15.75 25.25 L 16.17 25.5 L 16.58 25.75 L 17.0 26.0" fill="none" stroke="#111" stroke-width="1.30" stroke-linecap="round" stroke-linejoin="round"/>
</svg>
