<?xml version="1.0" encoding="UTF-8"?>
<svg xmlns="http://www.w3.org/2000/svg" viewBox="0 0 25.24 32.00">
<path d="M 12.34 10.0 L 11.39 9.66 L 10.4 9.48 L 9.39 9.48 L 8.4 9.65 L 7.45 9.98 L 6.57 10.47 L 5.78 11.11 L 5.12 11.87 L 4.6 12.73 L 4.23 13.67 L 4.03 14.66 L 4.0 15.66 L 4.14 16.66 L 4.45 17.62 L 4.92 18.51 L 5.54 19.31 L 6.28 19.99 L 7.13 20.54 L 8.05 20.93 L 9.04 21.16 L 10.04 21.21 L 11.04 21.1 L 12.01 20.81 L 12.91 20.37 L 13.34 28.0 L 14.22 27.99 L 15.1 27.89 L 15.96 27.67 L 16.79 27.36 L 17.57 26.95 L 18.31 26.46 L 18.98 25.88 L 19.57 25.22 L 20.09 24.5 L 20.51 23.73 L 20.84 22.91 L 21.08 22.05 L 21.21 21.18 L 21.24 20.29 L 21.16 19.41 L 20.98 18.54 L 20.7 17.7 L 20.32 16.9 L 19.85 16.15 L 19.29 15.46 L 18.66 14.84 L 17.96 14.3 L 17.2 13.85 L 16.39 13.49 L 17.34 9.0 L 17.29 9.08 L 17.25 9.17 L 17.21 9.25 L 17.17 9.33 L 17.13 9.42 L 17.09 9.5 L 17.04 9.58 L 17.0 9.67 L 16.96 9.75 L 16.92 9.83 L 16.88 9.92 L 16.84 10.0 L 16.79 10.08 L 16.75 10.17 L 16.71 10.25 L 16.67 10.33 L 16.63 10.42 L 16.59 10.5 L 16.54 10.58 L 16.5 10.67 L 16.46 10.75 L 16.42 10.83 L 16.38 10.92 L 16.34 11.0" fill="none" stroke="#111" stroke-width="1.12" stroke-linecap="round" stroke-linejoin="round"/>
<path d="M 10.34 4.0 L 10.38 4.0 L 10.42 4.0 L 10.46 4.0 L 10.5 4.0 L 10.54 4.0 L 10.59 4.0 L 10.63 4.0 L 10.67 4.0 L 10.71 4.0 L 10.75 4.0 L 10.79 4.0 L 10.84 4.0 L 10.88 4.0 L 10.92 4.0 L 10.96 4.0 L 11.0 4.0 L 11.04 4.0 L 11.09 4.0 L 11.13 4.0 L 11.17 4.0 L 11.21 4.0 L 11.25 4.0 L 11.29 4.0 L 11.34 4.0" fill="none" stroke="#111" stroke-width="1.12" stroke-linecap="round" stroke-linejoin="round"/>
<path d="M 16.34 4.0 L 16.34 4.08 L 16.34 4.17 L 16.34 4.25 L 16.34 4.33 L 16.34 4.42 L 16.34 4.5 L 16.34 4.58 L 16.34 4.67 L 16.34 4.75 L 16.34 4.83 L 16.34 4.92 L 16.34 5.0 L 16.34 5.08 L 16.34 5.17 L 16.34 5.25 L 16.34 5.33 L 16.34 5.42 L 16.34 5.5 L 16.34 5.58 L 16.34 5.67 L 16.34 5.75 L 16.34 5.83 L 16.34 5.92 L 16.34 6.0" fill="none" stroke="#111" stroke-width="1.12" stroke-linecap="round" stroke-linejoin="round"/>
<path d="M 12.34 16.0 L 12.29 16.21 L 12.25 16.42 L 12.21 16.62 L 12.17 16.83 L 12.13 17.04 L 12.09 17.25 L 12.04 17.46 L 12.0 17.67 L 11.96 17.88 L 11.92 18.08 L 11.88 18.29 L 11.84 18.5 L 11.79 18.71 L 11.75 18.92 L 11.71 19.12 L 11.67 19.33 L 11.63 19.54 L 11.59 19.75 L 11.54 19.96 L 11.5 20.17 L 11.46 20.38 L 11.42 20.58 L 11.38 20.79 L 11.34 21.0" fill="none" stroke="#111" stroke-width="1.12" stroke-linecap="round" stroke-linejoin="round"/>
<path d="M 15.34 16.0 L 15.42 16.21 L 15.5 16.42 L 15.59 16.62 L 15.67 16.83 L 15.75 17.04 L 15.84 17.25 L 15.92 17.46 L 16.0 17.67 L 16.09 17.88 L 16.17 18.08 L 16.25 18.29 L 16.34 18.5 L 16.42 18.71 L 16.5 18.92 L 16.59 19.12 L 16.67 19.33 L 16.75 19.54 L 16.84 19.75 L 16.92 19.96 L 17.0 20.17 L 17.09 20.38 L 17.17 20.58 L 17.25 20.79 L 17.34 21.0" fill="none" stroke="#111" stroke-width="1.12" stroke-linecap="round" stroke-linejoin="round"/>
<path d="M 5.34 11.0 L 5.34 11.17 L 5.34 11.33 L 5.34 11.5 L 5.34 11.67 L 5.34 11.83 L 5.34 12.0 L 5.34 12.17 L 5.34 12.33 L 5.34 12.5 L 5.34 12.67 L 5.34 12.83 L 5.34 13.0 L 5.34 13.17 L 5.34 13.33 L 5.34 13.5 L 5.34 13.67 L 5.34 13.83 L 5.34 14.0 L 5.34 14.17 L 5.34 14.33 L 5.34 14.5 L 5.34 14.67 L 5.34 14.83 L 5.34 15.0" fill="none" stroke="#111" stroke-width="1.12" stroke-linecap="round" stroke-linejoin="round"/>
<path d="M 7.34 19.0 L 7.38 19.21 L 7.42 19.42 L 7.46 19.62 L 7.5 19.83 L 7.54 20.04 L 7.59 20.25 L 7.63 20.46 L 7.67 20.67 L 7.71 20.88 L 7.75 21.08 L 7.79 21.29 L 7.84 21.5 L 7.88 21.71 L 7.92 21.92 L 7.96 22.12 L 8.0 22.33 L 8.04 22.54 L 8.09 22.75 L 8.13 22.96 L 8.17 23.17 L 8.21 23.38 L 8.25 23.58 L 8.29 23.79 L 8.34 24.0" fill="none" stroke="#111" stroke-width="1.12" stroke-linecap="round" stroke-linejoin="round"/>
</svg>
