<?xml version="1.0" encoding="UTF-8"?>
<svg xmlns="http://www.w3.org/2000/svg" viewBox="0 0 18.00 39.64">
<path d="M 12.0 4.0 L 11.88 4.55 L 11.79 5.09 L 11.7 5.65 L 11.64 6.2 L 11.59 6.76 L 11.56 7.31 L 11.55 7.87 L 11.56 8.43 L 11.58 8.99 L 11.62 9.54 L 11.68 10.1 L 11.76 10.65 L 11.85 11.2 L 11.96 11.74 L 12.09 12.29 L 12.24 12.83 L 12.4 13.36 L 12.58 13.89 L 12.77 14.41 L 12.98 14.93 L 13.21 15.44 L 13.45 15.94 L 13.71 16.43 L 13.99 16.92 L 14.0 17.0 L 13.43 17.63 L 12.9 18.29 L 12.41 18.98 L 11.96 19.7 L 11.56 20.44 L 11.2 21.21 L 10.88 22.0 L 10.62 22.8 L 10.4 23.62 L 10.23 24.45 L 10.11 25.29 L 10.04 26.14 L 10.02 26.98 L 10.05 27.83 L 10.13 28.68 L 10.26 29.51 L 10.44 30.34 L 10.67 31.16 L 10.95 31.96 L 11.27 32.74 L 11.65 33.5 L 12.06 34.24 L 12.52 34.95 L 13.02 35.64" fill="none" stroke="#111" stroke-width="1.39" stroke-linecap="round" stroke-linejoin="round"/>
<path d="M 5.0 12.0 L 5.25 12.42 L 5.5 12.83 L 5.75 13.25 L 6.0 13.67 L 6.25 14.08 L 6.5 14.5 L 6.75 14.92 L 7.0 15.33 L 7.25 15.75 L 7.5 16.17 L 7.75 16.58 L 8.0 17.0 L 8.25 17.42 L 8.5 17.83 L 8.75 18.25 L 9.0 18.67 L 9.25 19.08 L 9.5 19.5 L 9.75 19.92 L 10.0 20.33 L 10.25 20.75 L 10.5 21.17 L 10.75 21.58 L 11.0 22.0" fill="none" stroke="#111" stroke-width="1.39" stroke-linecap="round" stroke-linejoin="round"/>
<path d="M 7.0 10.0 L 7.12 10.17 L 7.25 10.33 L 7.38 10.5 L 7.5 10.67 L 7.62 10.83 L 7.75 11.0 L 7.88 11.17 L 8.0 11.33 L 8.12 11.5 L 8.25 11.67 L 8.38 11.83 L 8.5 12.0 L 8.62 12.17 L 8.75 12.33 L 8.88 12.5 L 9.0 12.67 L 9.12 12.83 L 9.25 13.0 L 9.38 13.17 L 9.5 13.33 L 9.62 13.5 L 9.75 13.67 L 9.88 13.83 L 10.0 14.0" fill="none" stroke="#111" stroke-width="1.39" stroke-linecap="round" stroke-linejoin="round"/>
<path d="M 4.0 19.0 L 4.12 19.21 L 4.25 19.42 L 4.38 19.62 L 4.5 19.83 L 4.62 20.04 L 4.75 20.25 L 4.88 20.46 L 5.0 20.67 L 5.12 20.88 L 5.25 21.08 L 5.38 21.29 L 5.5 21.5 L 5.62 21.71 L 5.75 21.92 L 5.88 22.12 L 6.0 22.33 L 6.12 22.54 L 6.25 22.75 L 6.38 22.96 L 6.5 23.17 L 6.62 23.38 L 6.75 23.58 L 6.88 23.79 L 7.0 24.0" fill="none" stroke="#111" stroke-width="1.39" stroke-linecap="round" stroke-linejoin="round"/>
</svg>
