<?xml version="1.0" encoding="UTF-8"?>
<svg xmlns="http://www.w3.org/2000/svg" viewBox="0 0 21.78 34.56">
<path d="M 11.45 4.0 L 10.51 4.23 L 9.59 4.55 L 8.72 4.98 L 7.9 5.49 L 7.13 6.08 L 6.44 6.76 L 5.82 7.5 L 5.28 8.31 L 4.83 9.17 L 4.47 10.07 L 4.21 11.0 L 4.06 11.96 L 4.0 12.93 L 4.05 13.9 L 4.2 14.85 L 4.45 15.79 L 4.8 16.69 L 5.24 17.56 L 5.77 18.37 L 6.38 19.12 L 7.08 19.8 L 7.83 20.4 L 8.65 20.92 L 9.52 21.35" fill="none" stroke="#111" stroke-width="1.21" stroke-linecap="round" stroke-linejoin="round"/>
<path d="M 11.45 4.0 L 11.05 4.47 L 10.7 4.98 L 10.4 5.51 L 10.15 6.08 L 9.96 6.67 L 9.83 7.27 L 9.76 7.88 L 9.75 8.5 L 9.8 9.11 L 9.91 9.72 L 10.08 10.31 L 10.31 10.88 L 10.59 11.43 L 10.93 11.95 L 11.31 12.43 L 11.74 12.87 L 12.21 13.27 L 12.72 13.62 L 13.26 13.92 L 13.83 14.16 L 14.41 14.35 L 15.02 14.48 L 15.63 14.54 L 16.24 14.55" fill="none" stroke="#111" stroke-width="1.21" stroke-linecap="round" stroke-linejoin="round"/>
<path d="M 10.45 13.0 L 10.21 13.27 L 9.97 13.55 L 9.75 13.83 L 9.53 14.13 L 9.33 14.42 L 9.13 14.73 L 8.95 15.04 L 8.77 15.36 L 8.61 15.68 L 8.45 16.01 L 8.31 16.34 L 8.18 16.68 L 8.06 17.02 L 7.95 17.37 L 7.85 17.72 L 7.76 18.07 L 7.68 18.42 L 7.62 18.78 L 7.56 19.14 L 7.52 19.5 L 7.49 19.86 L 7.47 20.22 L 7.46 20.58 L 7.47 20.95" fill="none" stroke="#111" stroke-width="1.21" stroke-linecap="round" stroke-linejoin="round"/>
<path d="M 12.45 14.0 L 12.53 14.25 L 12.62 14.5 L 12.7 14.75 L 12.78 15.0 L 12.87 15.25 L 12.95 15.5 L 13.03 15.75 L 13.12 16.0 L 13.2 16.25 L 13.28 16.5 L 13.37 16.75 L 13.45 17.0 L 13.53 17.25 L 13.62 17.5 L 13.7 17.75 L 13.78 18.0 L 13.87 18.25 L 13.95 18.5 L 14.03 18.75 L 14.12 19.0 L 14.2 19.25 L 14.28 19.5 L 14.37 19.75 L 14.45 20.0 L 14.45 20.0 L 13.71 20.19 L 13.01 20.48 L 12.36 20.87 L 11.77 21.35 L 11.25 21.9 L 10.82 22.53 L 10.48 23.21 L 10.24 23.93 L 10.11 24.67 L 10.08 25.43 L 10.16 26.19 L 10.35 26.92 L 10.64 27.63 L 11.03 28.28 L 11.51 28.87 L 12.06 29.39 L 12.68 29.82 L 13.36 30.16 L 14.08 30.4 L 14.83 30.53 L 15.59 30.56 L 16.35 30.48 L 17.08 30.29 L 17.78 30.0 L 16.45 26.0 L 16.2 25.75 L 15.95 25.5 L 15.7 25.25 L 15.45 25.0 L 15.2 24.75 L 14.95 24.5 L 14.7 24.25 L 14.45 24.0 L 14.2 23.75 L 13.95 23.5 L 13.7 23.25 L 13.45 23.0 L 13.2 22.75 L 12.95 22.5 L 12.7 22.25 L 12.45 22.0 L 12.2 21.75 L 11.95 21.5 L 11.7 21.25 L 11.45 21.0 L 11.2 20.75 L 10.95 20.5 L 10.7 20.25 L 10.45 20.0 L 10.45 20.0 L 10.57 19.83 L 10.7 19.67 L 10.82 19.5 L 10.95 19.33 L 11.07 19.17 L 11.2 19.0 L 11.32 18.83 L 11.45 18.67 L 11.57 18.5 L 11.7 18.33 L 11.82 18.17 L 11.95 18.0 L 12.07 17.83 L 12.2 17.67 L 12.32 17.5 L 12.45 17.33 L 12.57 17.17 L 12.7 17.0 L 12.82 16.83 L 12.95 16.67 L 13.07 16.5 L 13.2 16.33 L 13.32 16.17 L 13.45 16.0" fill="none" stroke="#111" stroke-width="1.21" stroke-linecap="round" stroke-linejoin="round"/>
</svg>
