<?xml version="1.0" encoding="UTF-8"?>
<svg xmlns="http://www.w3.org/2000/svg" viewBox="0 0 22.29 41.71">
<path d="M 13.37 4.0 L 13.37 4.92 L 13.37 5.83 L 13.37 6.75 L 13.37 7.67 L 13.37 8.58 L 13.37 9.5 L 13.37 10.42 L 13.37 11.33 L 13.37 12.25 L 13.37 13.17 L 13.37 14.08 L 13.37 15.0 L 13.37 15.92 L 13.37 16.83 L 13.37 17.75 L 13.37 18.67 L 13.37 19.58 L 13.37 20.5 L 13.37 21.42 L 13.37 22.33 L 13.37 23.25 L 13.37 24.17 L 13.37 25.08 L 13.37 26.0" fill="none" stroke="#111" stroke-width="1.46" stroke-linecap="round" stroke-linejoin="round"/>
<path d="M 9.37 6.0 L 9.54 6.21 L 9.7 6.42 L 9.87 6.62 L 10.04 6.83 L 10.2 7.04 L 10.37 7.25 L 10.54 7.46 L 10.7 7.67 L 10.87 7.88 L 11.04 8.08 L 11.2 8.29 L 11.37 8.5 L 11.54 8.71 L 11.7 8.92 L 11.87 9.12 L 12.04 9.33 L 12.2 9.54 L 12.37 9.75 L 12.54 9.96 L 12.7 10.17 L 12.87 10.38 L 13.04 10.58 L 13.2 10.79 L 13.37 11.0 L 13.37 11.0 L 13.49 10.75 L 13.62 10.5 L 13.74 10.25 L 13.87 10.0 L 13.99 9.75 L 14.12 9.5 L 14.24 9.25 L 14.37 9.0 L 14.49 8.75 L 14.62 8.5 L 14.74 8.25 L 14.87 8.0 L 14.99 7.75 L 15.12 7.5 L 15.24 7.25 L 15.37 7.0 L 15.49 6.75 L 15.62 6.5 L 15.74 6.25 L 15.87 6.0 L 15.99 5.75 L 16.12 5.5 L 16.24 5.25 L 16.37 5.0" fill="none" stroke="#111" stroke-width="1.46" stroke-linecap="round" stroke-linejoin="round"/>
<path d="M 13.37 11.0 L 13.2 11.17 L 13.04 11.33 L 12.87 11.5 L 12.7 11.67 L 12.54 11.83 L 12.37 12.0 L 12.2 12.17 L 12.04 12.33 L 11.87 12.5 L 11.7 12.67 L 11.54 12.83 L 11.37 13.0 L 11.2 13.17 L 11.04 13.33 L 10.87 13.5 L 10.7 13.67 L 10.54 13.83 L 10.37 14.0 L 10.2 14.17 L 10.04 14.33 L 9.87 14.5 L 9.7 14.67 L 9.54 14.83 L 9.37 15.0 L 9.37 15.0 L 9.11 15.47 L 8.88 15.97 L 8.7 16.47 L 8.55 17.0 L 8.43 17.53 L 8.36 18.06 L 8.33 18.6 L 8.34 19.14 L 8.39 19.68 L 8.48 20.22 L 8.6 20.74 L 8.77 21.26 L 8.97 21.76 L 9.21 22.25 L 9.49 22.71 L 9.8 23.16 L 10.14 23.58 L 10.51 23.97 L 10.91 24.34 L 11.34 24.67 L 11.79 24.97 L 12.26 25.24 L 12.75 25.48 L 13.25 25.67 L 13.37 26.0 L 13.87 25.8 L 14.36 25.57 L 14.83 25.3 L 15.28 25.0 L 15.71 24.67 L 16.11 24.3 L 16.48 23.91 L 16.82 23.49 L 17.13 23.04 L 17.41 22.57 L 17.65 22.09 L 17.85 21.59 L 18.02 21.07 L 18.14 20.55 L 18.23 20.01 L 18.28 19.47 L 18.29 18.93 L 18.26 18.39 L 18.19 17.85 L 18.07 17.32 L 17.92 16.8 L 17.74 16.3 L 17.51 15.8 L 17.25 15.33 L 17.37 15.0 L 17.2 14.83 L 17.04 14.67 L 16.87 14.5 L 16.7 14.33 L 16.54 14.17 L 16.37 14.0 L 16.2 13.83 L 16.04 13.67 L 15.87 13.5 L 15.7 13.33 L 15.54 13.17 L 15.37 13.0 L 15.2 12.83 L 15.04 12.67 L 14.87 12.5 L 14.7 12.33 L 14.54 12.17 L 14.37 12.0 L 14.2 11.83 L 14.04 11.67 L 13.87 11.5 L 13.7 11.33 L 13.54 11.17 L 13.37 11.0" fill="none" stroke="#111" stroke-width="1.46" stroke-linecap="round" stroke-linejoin="round"/>
<path d="M 5.37 17.0 L 5.07 17.52 L 4.81 18.07 L 4.58 18.62 L 4.39 19.19 L 4.23 19.78 L 4.12 20.37 L 4.04 20.97 L 4.0 21.57 L 4.0 22.17 L 4.04 22.77 L 4.12 23.37 L 4.23 23.96 L 4.39 24.54 L 4.58 25.11 L 4.81 25.67 L 5.07 26.21 L 5.37 26.74 L 5.7 27.24 L 6.07 27.72 L 6.46 28.18 L 6.88 28.61 L 7.33 29.01 L 7.81 29.38 L 8.3 29.72" fill="none" stroke="#111" stroke-width="1.46" stroke-linecap="round" stroke-linejoin="round"/>
<path d="M 9.37 18.0 L 9.7 17.88 L 10.04 17.75 L 10.37 17.62 L 10.7 17.5 L 11.04 17.38 L 11.37 17.25 L 11.7 17.12 L 12.04 17.0 L 12.37 16.88 L 12.7 16.75 L 13.04 16.62 L 13.37 16.5 L 13.7 16.38 L 14.04 16.25 L 14.37 16.12 L 14.7 16.0 L 15.04 15.88 L 15.37 15.75 L 15.7 15.62 L 16.04 15.5 L 16.37 15.38 L 16.7 15.25 L 17.04 15.12 L 17.37 15.0" fill="none" stroke="#111" stroke-width="1.46" stroke-linecap="round" stroke-linejoin="round"/>
<path d="M 9.37 22.0 L 9.7 21.88 L 10.04 21.75 L 10.37 21.62 L 10.7 21.5 L 11.04 21.38 L 11.37 21.25 L 11.7 21.12 L 12.04 21.0 L 12.37 20.88 L 12.7 20.75 L 13.04 20.62 L 13.37 20.5 L 13.7 20.38 L 14.04 20.25 L 14.37 20.12 L 14.7 20.0 L 15.04 19.88 L 15.37 19.75 L 15.7 19.62 L 16.04 19.5 L 16.37 19.38 L 16.7 19.25 L 17.04 19.12 L 17.37 19.0" fill="none" stroke="#111" stroke-width="1.46" stroke-linecap="round" stroke-linejoin="round"/>
<path d="M 9.37 22.0 L 8.78 22.44 L 8.22 22.91 L 7.68 23.42 L 7.18 23.96 L 6.71 24.52 L 6.28 25.12 L 5.88 25.74 L 5.52 26.38 L 5.2 27.04 L 4.91 27.72 L 4.67 28.41 L 4.47 29.12 L 4.32 29.84 L 4.2 30.57 L 4.13 31.3 L 4.1 32.03 L 4.12 32.77 L 4.18 33.5 L 4.29 34.23 L 4.43 34.95 L 4.62 35.66 L 4.86 36.36 L 5.13 37.04 L 5.44 37.71" fill="none" stroke="#111" stroke-width="1.46" stroke-linecap="round" stroke-linejoin="round"/>
<path d="M 12.37 26.0 L 12.0 26.34 L 11.67 26.72 L 11.36 27.12 L 11.1 27.55 L 10.87 28.0 L 10.69 28.47 L 10.55 28.95 L 10.45 29.45 L 10.39 29.95 L 10.38 30.45 L 10.41 30.95 L 10.49 31.45 L 10.61 31.94 L 10.77 32.42 L 10.98 32.88 L 11.22 33.32 L 11.5 33.74 L 11.82 34.13 L 12.17 34.49 L 12.55 34.82 L 12.96 35.11 L 13.4 35.37 L 13.85 35.59 L 14.32 35.76 L 14.37 36.0 L 14.68 35.61 L 14.95 35.2 L 15.2 34.78 L 15.41 34.33 L 15.59 33.87 L 15.73 33.4 L 15.83 32.92 L 15.9 32.43 L 15.94 31.94 L 15.93 31.44 L 15.89 30.95 L 15.81 30.46 L 15.7 29.98 L 15.55 29.51 L 15.36 29.06 L 15.14 28.62 L 14.89 28.19 L 14.61 27.79 L 14.29 27.41 L 13.95 27.05 L 13.59 26.72 L 13.19 26.42 L 12.78 26.15 L 12.35 25.91" fill="none" stroke="#111" stroke-width="1.46" stroke-linecap="round" stroke-linejoin="round"/>
</svg>
