<?xml version="1.0" encoding="UTF-8"?>
<svg xmlns="http://www.w3.org/2000/svg" viewBox="0 0 28.56 39.52">
<path d="M 9.0 9.52 L 8.92 10.18 L 8.83 10.85 L 8.75 11.52 L 8.67 12.18 L 8.58 12.85 L 8.5 13.52 L 8.42 14.18 L 8.33 14.85 L 8.25 15.52 L 8.17 16.18 L 8.08 16.85 L 8.0 17.52 L 7.92 18.18 L 7.83 18.85 L 7.75 19.52 L 7.67 20.18 L 7.58 20.85 L 7.5 21.52 L 7.42 22.18 L 7.33 22.85 L 7.25 23.52 L 7.17 24.18 L 7.08 24.85 L 7.0 25.52 L 7.0 25.52 L 7.43 25.51 L 7.85 25.53 L 8.27 25.59 L 8.69 25.68 L 9.1 25.8 L 9.49 25.95 L 9.88 26.13 L 10.25 26.34 L 10.6 26.58 L 10.93 26.84 L 11.25 27.13 L 11.54 27.44 L 11.8 27.78 L 12.04 28.13 L 12.25 28.5 L 12.43 28.88 L 12.58 29.28 L 12.7 29.69 L 12.79 30.1 L 12.84 30.53 L 12.87 30.95 L 12.86 31.38 L 12.82 31.8 L 12.74 32.22 L 13.0 32.52 L 12.75 32.31 L 12.5 32.1 L 12.25 31.89 L 12.0 31.68 L 11.75 31.48 L 11.5 31.27 L 11.25 31.06 L 11.0 30.85 L 10.75 30.64 L 10.5 30.43 L 10.25 30.23 L 10.0 30.02 L 9.75 29.81 L 9.5 29.6 L 9.25 29.39 L 9.0 29.18 L 8.75 28.98 L 8.5 28.77 L 8.25 28.56 L 8.0 28.35 L 7.75 28.14 L 7.5 27.93 L 7.25 27.73 L 7.0 27.52 L 7.0 27.52 L 7.04 27.85 L 7.08 28.18 L 7.12 28.52 L 7.17 28.85 L 7.21 29.18 L 7.25 29.52 L 7.29 29.85 L 7.33 30.18 L 7.38 30.52 L 7.42 30.85 L 7.46 31.18 L 7.5 31.52 L 7.54 31.85 L 7.58 32.18 L 7.62 32.52 L 7.67 32.85 L 7.71 33.18 L 7.75 33.52 L 7.79 33.85 L 7.83 34.18 L 7.88 34.52 L 7.92 34.85 L 7.96 35.18 L 8.0 35.52" fill="none" stroke="#111" stroke-width="1.38" stroke-linecap="round" stroke-linejoin="round"/>
<path d="M 4.0 18.52 L 4.0 18.35 L 4.0 18.18 L 4.0 18.02 L 4.0 17.85 L 4.0 17.68 L 4.0 17.52 L 4.0 17.35 L 4.0 17.18 L 4.0 17.02 L 4.0 16.85 L 4.0 16.68 L 4.0 16.52 L 4.0 16.35 L 4.0 16.18 L 4.0 16.02 L 4.0 15.85 L 4.0 15.68 L 4.0 15.52 L 4.0 15.35 L 4.0 15.18 L 4.0 15.02 L 4.0 14.85 L 4.0 14.68 L 4.0 14.52 L 4.0 14.52 L 4.66 14.35 L 5.33 14.25 L 6.01 14.21 L 6.68 14.23 L 7.36 14.32 L 8.02 14.47 L 8.66 14.68 L 9.28 14.95 L 9.88 15.28 L 10.44 15.67 L 10.96 16.1 L 11.43 16.59 L 11.86 17.11 L 12.24 17.67 L 12.57 18.27 L 12.83 18.9 L 13.04 19.54 L 13.18 20.21 L 13.26 20.88 L 13.28 21.56 L 13.23 22.23 L 13.12 22.9 L 12.95 23.56 L 12.71 24.2" fill="none" stroke="#111" stroke-width="1.38" stroke-linecap="round" stroke-linejoin="round"/>
<path d="M 14.0 20.52 L 13.58 20.43 L 13.17 20.35 L 12.75 20.27 L 12.33 20.18 L 11.92 20.1 L 11.5 20.02 L 11.08 19.93 L 10.67 19.85 L 10.25 19.77 L 9.83 19.68 L 9.42 19.6 L 9.0 19.52 L 8.58 19.43 L 8.17 19.35 L 7.75 19.27 L 7.33 19.18 L 6.92 19.1 L 6.5 19.02 L 6.08 18.93 L 5.67 18.85 L 5.25 18.77 L 4.83 18.68 L 4.42 18.6 L 4.0 18.52" fill="none" stroke="#111" stroke-width="1.38" stroke-linecap="round" stroke-linejoin="round"/>
<path d="M 14.0 18.52 L 12.97 18.32 L 11.93 18.47 L 10.99 18.96 L 10.27 19.73 L 9.84 20.69 L 9.75 21.74 L 10.01 22.76 L 10.59 23.63 L 11.43 24.27 L 12.43 24.6 L 13.48 24.58 L 14.47 24.22 L 15.28 23.55 L 15.83 22.66 L 16.05 21.63 L 15.93 20.58 L 15.47 19.64 L 14.72 18.9 L 13.77 18.44 L 12.72 18.32 L 11.7 18.56 L 10.81 19.11 L 10.14 19.93 L 9.79 20.92 L 21.0 14.52 L 21.08 14.29 L 21.2 14.07 L 21.34 13.88 L 21.51 13.7 L 21.7 13.55 L 21.9 13.42 L 22.13 13.32 L 22.36 13.26 L 22.6 13.22 L 22.84 13.22 L 23.09 13.25 L 23.32 13.31 L 23.55 13.4 L 23.76 13.52 L 23.95 13.67 L 24.12 13.84 L 24.27 14.04 L 24.39 14.25 L 24.48 14.47 L 24.54 14.71 L 24.56 14.95 L 24.56 15.19 L 24.52 15.44 L 24.45 15.67 L 24.0 15.52 L 23.92 15.6 L 23.83 15.68 L 23.75 15.77 L 23.67 15.85 L 23.58 15.93 L 23.5 16.02 L 23.42 16.1 L 23.33 16.18 L 23.25 16.27 L 23.17 16.35 L 23.08 16.43 L 23.0 16.52 L 22.92 16.6 L 22.83 16.68 L 22.75 16.77 L 22.67 16.85 L 22.58 16.93 L 22.5 17.02 L 22.42 17.1 L 22.33 17.18 L 22.25 17.27 L 22.17 17.35 L 22.08 17.43 L 22.0 17.52" fill="none" stroke="#111" stroke-width="1.38" stroke-linecap="round" stroke-linejoin="round"/>
<path d="M 17.0 11.52 L 15.95 10.61 L 15.26 9.39 L 15.03 8.02 L 15.27 6.65 L 15.96 5.44 L 17.01 4.53 L 18.31 4.03 L 19.7 4.0 L 21.02 4.44 L 22.12 5.29 L 22.86 6.47 L 23.17 7.83 L 23.0 9.21 L 22.38 10.45 L 21.37 11.41 L 20.1 11.98 L 18.71 12.08 L 17.37 11.71 L 16.23 10.92 L 15.42 9.78 L 15.05 8.44 L 15.15 7.05 L 15.71 5.78 L 16.66 4.77" fill="none" stroke="#111" stroke-width="1.38" stroke-linecap="round" stroke-linejoin="round"/>
<path d="M 14.0 27.52 L 14.23 27.1 L 14.51 26.72 L 14.82 26.36 L 15.17 26.03 L 15.54 25.74 L 15.95 25.5 L 16.38 25.29 L 16.82 25.13 L 17.28 25.01 L 17.75 24.95 L 18.23 24.93 L 18.7 24.95 L 19.17 25.03 L 19.63 25.15 L 20.07 25.32 L 20.5 25.54 L 20.9 25.79 L 21.27 26.09 L 21.61 26.42 L 21.92 26.78 L 22.18 27.18 L 22.41 27.59 L 22.59 28.03 L 22.73 28.49" fill="none" stroke="#111" stroke-width="1.38" stroke-linecap="round" stroke-linejoin="round"/>
</svg>
