<?xml version="1.0" encoding="UTF-8"?>
<svg xmlns="http://www.w3.org/2000/svg" viewBox="0 0 38.01 43.57">
<path d="M 24.35 4.0 L 24.35 4.54 L 24.35 5.08 L 24.35 5.62 L 24.35 6.17 L 24.35 6.71 L 24.35 7.25 L 24.35 7.79 L 24.35 8.33 L 24.35 8.88 L 24.35 9.42 L 24.35 9.96 L 24.35 10.5 L 24.35 11.04 L 24.35 11.58 L 24.35 12.12 L 24.35 12.67 L 24.35 13.21 L 24.35 13.75 L 24.35 14.29 L 24.35 14.83 L 24.35 15.38 L 24.35 15.92 L 24.35 16.46 L 24.35 17.0 L 24.35 17.0 L 24.8 17.43 L 25.19 17.91 L 25.53 18.43 L 25.82 18.98 L 26.04 19.56 L 26.19 20.16 L 26.28 20.77 L 26.3 21.39 L 26.25 22.01 L 26.13 22.62 L 25.95 23.21 L 25.7 23.78 L 25.4 24.32 L 25.03 24.82 L 24.61 25.28 L 24.15 25.69 L 23.64 26.05 L 23.1 26.35 L 22.52 26.58 L 21.93 26.76 L 21.32 26.86 L 20.7 26.9 L 20.08 26.87 L 19.46 26.77 L 19.35 27.0 L 20.26 26.89 L 21.17 26.85 L 22.08 26.88 L 22.99 26.97 L 23.89 27.12 L 24.78 27.34 L 25.65 27.62 L 26.49 27.97 L 27.31 28.37 L 28.1 28.83 L 28.85 29.35 L 29.57 29.92 L 30.24 30.54 L 30.86 31.2 L 31.44 31.91 L 31.96 32.66 L 32.43 33.44 L 32.84 34.26 L 33.2 35.1 L 33.49 35.97 L 33.72 36.85 L 33.88 37.75 L 33.98 38.66 L 34.01 39.57" fill="none" stroke="#111" stroke-width="1.52" stroke-linecap="round" stroke-linejoin="round"/>
<path d="M 24.35 10.0 L 25.08 9.93 L 25.82 10.0 L 26.52 10.22 L 27.17 10.56 L 27.75 11.03 L 28.22 11.59 L 28.57 12.24 L 28.8 12.94 L 28.88 13.68 L 28.82 14.41 L 28.62 15.12 L 28.28 15.78 L 27.83 16.36 L 27.27 16.84 L 26.63 17.21 L 25.93 17.44 L 25.2 17.54 L 24.47 17.49 L 23.75 17.3 L 23.09 16.98 L 22.5 16.54 L 22.01 15.99 L 21.63 15.35 L 21.38 14.66" fill="none" stroke="#111" stroke-width="1.52" stroke-linecap="round" stroke-linejoin="round"/>
<path d="M 23.35 10.0 L 22.91 10.27 L 22.5 10.57 L 22.11 10.91 L 21.74 11.26 L 21.4 11.65 L 21.09 12.06 L 20.81 12.49 L 20.57 12.93 L 20.35 13.4 L 20.17 13.88 L 20.02 14.37 L 19.91 14.87 L 19.84 15.38 L 19.8 15.89 L 19.8 16.4 L 19.84 16.91 L 19.92 17.42 L 20.03 17.92 L 20.17 18.41 L 20.36 18.89 L 20.57 19.36 L 20.82 19.8 L 21.1 20.23 L 21.41 20.64" fill="none" stroke="#111" stroke-width="1.52" stroke-linecap="round" stroke-linejoin="round"/>
<path d="M 12.35 14.0 L 12.35 13.79 L 12.35 13.58 L 12.35 13.38 L 12.35 13.17 L 12.35 12.96 L 12.35 12.75 L 12.35 12.54 L 12.35 12.33 L 12.35 12.12 L 12.35 11.92 L 12.35 11.71 L 12.35 11.5 L 12.35 11.29 L 12.35 11.08 L 12.35 10.88 L 12.35 10.67 L 12.35 10.46 L 12.35 10.25 L 12.35 10.04 L 12.35 9.83 L 12.35 9.62 L 12.35 9.42 L 12.35 9.21 L 12.35 9.0 L 12.35 9.0 L 12.67 8.91 L 13.0 8.85 L 13.33 8.83 L 13.66 8.85 L 13.99 8.91 L 14.31 9.0 L 14.62 9.13 L 14.91 9.3 L 15.18 9.49 L 15.42 9.72 L 15.64 9.97 L 15.83 10.25 L 15.98 10.54 L 16.1 10.85 L 16.18 11.18 L 16.23 11.51 L 16.24 11.84 L 16.21 12.17 L 16.14 12.5 L 16.04 12.81 L 15.9 13.12 L 15.73 13.4 L 15.52 13.66 L 15.29 13.9 L 15.35 14.0 L 15.6 14.05 L 15.85 14.12 L 16.1 14.22 L 16.33 14.33 L 16.55 14.47 L 16.76 14.62 L 16.96 14.79 L 17.14 14.98 L 17.3 15.18 L 17.45 15.39 L 17.57 15.62 L 17.68 15.86 L 17.77 16.1 L 17.83 16.35 L 17.87 16.61 L 17.89 16.87 L 17.89 17.13 L 17.87 17.39 L 17.82 17.64 L 17.75 17.89 L 17.66 18.14 L 17.55 18.37 L 17.42 18.6 L 17.27 18.81 L 17.35 19.0 L 16.72 19.57 L 16.03 20.06 L 15.29 20.48 L 14.5 20.82 L 13.69 21.07 L 12.86 21.22 L 12.01 21.29 L 11.16 21.27 L 10.32 21.15 L 9.49 20.94 L 8.7 20.64 L 7.94 20.26 L 7.22 19.8 L 6.56 19.27 L 5.96 18.66 L 5.44 18.0 L 4.98 17.28 L 4.61 16.51 L 4.32 15.71 L 4.12 14.89 L 4.02 14.04 L 4.0 13.19 L 4.08 12.35 L 4.24 11.51" fill="none" stroke="#111" stroke-width="1.52" stroke-linecap="round" stroke-linejoin="round"/>
<path d="M 12.35 14.0 L 12.27 14.04 L 12.18 14.08 L 12.1 14.12 L 12.02 14.17 L 11.93 14.21 L 11.85 14.25 L 11.77 14.29 L 11.68 14.33 L 11.6 14.38 L 11.52 14.42 L 11.43 14.46 L 11.35 14.5 L 11.27 14.54 L 11.18 14.58 L 11.1 14.62 L 11.02 14.67 L 10.93 14.71 L 10.85 14.75 L 10.77 14.79 L 10.68 14.83 L 10.6 14.88 L 10.52 14.92 L 10.43 14.96 L 10.35 15.0" fill="none" stroke="#111" stroke-width="1.52" stroke-linecap="round" stroke-linejoin="round"/>
</svg>
