<?xml version="1.0" encoding="UTF-8"?>
<svg xmlns="http://www.w3.org/2000/svg" viewBox="0 0 27.00 40.98">
<path d="M 9.0 5.0 L 9.0 5.29 L 9.0 5.58 L 9.0 5.88 L 9.0 6.17 L 9.0 6.46 L 9.0 6.75 L 9.0 7.04 L 9.0 7.33 L 9.0 7.62 L 9.0 7.92 L 9.0 8.21 L 9.0 8.5 L 9.0 8.79 L 9.0 9.08 L 9.0 9.38 L 9.0 9.67 L 9.0 9.96 L 9.0 10.25 L 9.0 10.54 L 9.0 10.83 L 9.0 11.12 L 9.0 11.42 L 9.0 11.71 L 9.0 12.0" fill="none" stroke="#111" stroke-width="1.43" stroke-linecap="round" stroke-linejoin="round"/>
<path d="M 12.0 4.0 L 11.96 4.33 L 11.92 4.67 L 11.88 5.0 L 11.83 5.33 L 11.79 5.67 L 11.75 6.0 L 11.71 6.33 L 11.67 6.67 L 11.62 7.0 L 11.58 7.33 L 11.54 7.67 L 11.5 8.0 L 11.46 8.33 L 11.42 8.67 L 11.38 9.0 L 11.33 9.33 L 11.29 9.67 L 11.25 10.0 L 11.21 10.33 L 11.17 10.67 L 11.12 11.0 L 11.08 11.33 L 11.04 11.67 L 11.0 12.0" fill="none" stroke="#111" stroke-width="1.43" stroke-linecap="round" stroke-linejoin="round"/>
<path d="M 5.0 12.0 L 5.33 12.0 L 5.67 12.0 L 6.0 12.0 L 6.33 12.0 L 6.67 12.0 L 7.0 12.0 L 7.33 12.0 L 7.67 12.0 L 8.0 12.0 L 8.33 12.0 L 8.67 12.0 L 9.0 12.0 L 9.33 12.0 L 9.67 12.0 L 10.0 12.0 L 10.33 12.0 L 10.67 12.0 L 11.0 12.0 L 11.33 12.0 L 11.67 12.0 L 12.0 12.0 L 12.33 12.0 L 12.67 12.0 L 13.0 12.0 L 13.0 12.0 L 12.96 12.25 L 12.92 12.5 L 12.88 12.75 L 12.83 13.0 L 12.79 13.25 L 12.75 13.5 L 12.71 13.75 L 12.67 14.0 L 12.62 14.25 L 12.58 14.5 L 12.54 14.75 L 12.5 15.0 L 12.46 15.25 L 12.42 15.5 L 12.38 15.75 L 12.33 16.0 L 12.29 16.25 L 12.25 16.5 L 12.21 16.75 L 12.17 17.0 L 12.12 17.25 L 12.08 17.5 L 12.04 17.75 L 12.0 18.0 L 12.0 18.0 L 11.67 17.96 L 11.33 17.92 L 11.0 17.88 L 10.67 17.83 L 10.33 17.79 L 10.0 17.75 L 9.67 17.71 L 9.33 17.67 L 9.0 17.62 L 8.67 17.58 L 8.33 17.54 L 8.0 17.5 L 7.67 17.46 L 7.33 17.42 L 7.0 17.38 L 6.67 17.33 L 6.33 17.29 L 6.0 17.25 L 5.67 17.21 L 5.33 17.17 L 5.0 17.12 L 4.67 17.08 L 4.33 17.04 L 4.0 17.0 L 4.0 17.0 L 4.04 16.79 L 4.08 16.58 L 4.12 16.38 L 4.17 16.17 L 4.21 15.96 L 4.25 15.75 L 4.29 15.54 L 4.33 15.33 L 4.38 15.12 L 4.42 14.92 L 4.46 14.71 L 4.5 14.5 L 4.54 14.29 L 4.58 14.08 L 4.62 13.88 L 4.67 13.67 L 4.71 13.46 L 4.75 13.25 L 4.79 13.04 L 4.83 12.83 L 4.88 12.62 L 4.92 12.42 L 4.96 12.21 L 5.0 12.0" fill="none" stroke="#111" stroke-width="1.43" stroke-linecap="round" stroke-linejoin="round"/>
<path d="M 7.0 18.0 L 7.0 18.29 L 7.0 18.58 L 7.0 18.88 L 7.0 19.17 L 7.0 19.46 L 7.0 19.75 L 7.0 20.04 L 7.0 20.33 L 7.0 20.62 L 7.0 20.92 L 7.0 21.21 L 7.0 21.5 L 7.0 21.79 L 7.0 22.08 L 7.0 22.38 L 7.0 22.67 L 7.0 22.96 L 7.0 23.25 L 7.0 23.54 L 7.0 23.83 L 7.0 24.12 L 7.0 24.42 L 7.0 24.71 L 7.0 25.0" fill="none" stroke="#111" stroke-width="1.43" stroke-linecap="round" stroke-linejoin="round"/>
<path d="M 9.0 18.0 L 9.04 18.29 L 9.08 18.58 L 9.12 18.88 L 9.17 19.17 L 9.21 19.46 L 9.25 19.75 L 9.29 20.04 L 9.33 20.33 L 9.38 20.62 L 9.42 20.92 L 9.46 21.21 L 9.5 21.5 L 9.54 21.79 L 9.58 22.08 L 9.62 22.38 L 9.67 22.67 L 9.71 22.96 L 9.75 23.25 L 9.79 23.54 L 9.83 23.83 L 9.88 24.12 L 9.92 24.42 L 9.96 24.71 L 10.0 25.0" fill="none" stroke="#111" stroke-width="1.43" stroke-linecap="round" stroke-linejoin="round"/>
<path d="M 14.0 23.0 L 14.12 22.77 L 14.23 22.54 L 14.33 22.31 L 14.43 22.07 L 14.52 21.83 L 14.61 21.59 L 14.69 21.34 L 14.76 21.1 L 14.82 20.85 L 14.88 20.6 L 14.94 20.35 L 14.98 20.09 L 15.02 19.84 L 15.05 19.58 L 15.08 19.33 L 15.1 19.07 L 15.11 18.82 L 15.11 18.56 L 15.11 18.3 L 15.1 18.05 L 15.08 17.79 L 15.06 17.53 L 15.03 17.28 L 15.0 17.03 L 15.0 17.0 L 15.33 16.96 L 15.67 16.92 L 16.0 16.88 L 16.33 16.83 L 16.67 16.79 L 17.0 16.75 L 17.33 16.71 L 17.67 16.67 L 18.0 16.62 L 18.33 16.58 L 18.67 16.54 L 19.0 16.5 L 19.33 16.46 L 19.67 16.42 L 20.0 16.38 L 20.33 16.33 L 20.67 16.29 L 21.0 16.25 L 21.33 16.21 L 21.67 16.17 L 22.0 16.12 L 22.33 16.08 L 22.67 16.04 L 23.0 16.0 L 23.0 16.0 L 23.0 16.17 L 23.0 16.33 L 23.0 16.5 L 23.0 16.67 L 23.0 16.83 L 23.0 17.0 L 23.0 17.17 L 23.0 17.33 L 23.0 17.5 L 23.0 17.67 L 23.0 17.83 L 23.0 18.0 L 23.0 18.17 L 23.0 18.33 L 23.0 18.5 L 23.0 18.67 L 23.0 18.83 L 23.0 19.0 L 23.0 19.17 L 23.0 19.33 L 23.0 19.5 L 23.0 19.67 L 23.0 19.83 L 23.0 20.0 L 23.0 20.0 L 22.54 20.04 L 22.08 20.08 L 21.62 20.12 L 21.17 20.17 L 20.71 20.21 L 20.25 20.25 L 19.79 20.29 L 19.33 20.33 L 18.88 20.38 L 18.42 20.42 L 17.96 20.46 L 17.5 20.5 L 17.04 20.54 L 16.58 20.58 L 16.12 20.62 L 15.67 20.67 L 15.21 20.71 L 14.75 20.75 L 14.29 20.79 L 13.83 20.83 L 13.38 20.88 L 12.92 20.92 L 12.46 20.96 L 12.0 21.0" fill="none" stroke="#111" stroke-width="1.43" stroke-linecap="round" stroke-linejoin="round"/>
<path d="M 19.0 13.0 L 19.37 13.71 L 19.69 14.44 L 19.96 15.2 L 20.16 15.97 L 20.32 16.76 L 20.41 17.56 L 20.44 18.36 L 20.42 19.16 L 20.34 19.95 L 20.2 20.74 L 20.0 21.52 L 19.75 22.28 L 19.44 23.02 L 19.08 23.73 L 18.66 24.42 L 18.2 25.07 L 17.69 25.69 L 17.14 26.27 L 16.55 26.81 L 15.92 27.3 L 15.25 27.75 L 14.55 28.14 L 13.83 28.49 L 13.08 28.77 L 13.0 29.0 L 13.0 29.17 L 13.0 29.33 L 13.0 29.5 L 13.0 29.67 L 13.0 29.83 L 13.0 30.0 L 13.0 30.17 L 13.0 30.33 L 13.0 30.5 L 13.0 30.67 L 13.0 30.83 L 13.0 31.0 L 13.0 31.17 L 13.0 31.33 L 13.0 31.5 L 13.0 31.67 L 13.0 31.83 L 13.0 32.0 L 13.0 32.17 L 13.0 32.33 L 13.0 32.5 L 13.0 32.67 L 13.0 32.83 L 13.0 33.0 L 13.0 33.0 L 13.25 32.83 L 13.5 32.67 L 13.75 32.5 L 14.0 32.33 L 14.25 32.17 L 14.5 32.0 L 14.75 31.83 L 15.0 31.67 L 15.25 31.5 L 15.5 31.33 L 15.75 31.17 L 16.0 31.0 L 16.25 30.83 L 16.5 30.67 L 16.75 30.5 L 17.0 30.33 L 17.25 30.17 L 17.5 30.0 L 17.75 29.83 L 18.0 29.67 L 18.25 29.5 L 18.5 29.33 L 18.75 29.17 L 19.0 29.0 L 19.0 29.0 L 19.04 29.34 L 19.07 29.67 L 19.09 30.01 L 19.11 30.35 L 19.12 30.69 L 19.12 31.03 L 19.12 31.36 L 19.1 31.7 L 19.09 32.04 L 19.06 32.38 L 19.03 32.72 L 18.99 33.05 L 18.95 33.39 L 18.89 33.72 L 18.83 34.05 L 18.77 34.39 L 18.7 34.72 L 18.62 35.05 L 18.53 35.37 L 18.44 35.7 L 18.34 36.02 L 18.23 36.34 L 18.12 36.66 L 18.0 36.98" fill="none" stroke="#111" stroke-width="1.43" stroke-linecap="round" stroke-linejoin="round"/>
</svg>
