<?xml version="1.0" encoding="UTF-8"?>
<svg xmlns="http://www.w3.org/2000/svg" viewBox="0 0 27.00 38.94">
<path d="M 6.0 13.0 L 6.38 13.04 L 6.75 13.08 L 7.12 13.12 L 7.5 13.17 L 7.88 13.21 L 8.25 13.25 L 8.62 13.29 L 9.0 13.33 L 9.38 13.38 L 9.75 13.42 L 10.12 13.46 L 10.5 13.5 L 10.88 13.54 L 11.25 13.58 L 11.62 13.62 L 12.0 13.67 L 12.38 13.71 L 12.75 13.75 L 13.12 13.79 L 13.5 13.83 L 13.88 13.88 L 14.25 13.92 L 14.63 13.96 L 15.0 14.0 L 15.0 14.0 L 14.96 14.25 L 14.92 14.5 L 14.88 14.75 L 14.83 15.0 L 14.79 15.25 L 14.75 15.5 L 14.71 15.75 L 14.67 16.0 L 14.62 16.25 L 14.58 16.5 L 14.54 16.75 L 14.5 17.0 L 14.46 17.25 L 14.42 17.5 L 14.38 17.75 L 14.33 18.0 L 14.29 18.25 L 14.25 18.5 L 14.21 18.75 L 14.17 19.0 L 14.12 19.25 L 14.08 19.5 L 14.04 19.75 L 14.0 20.0 L 14.0 20.0 L 13.62 20.0 L 13.25 20.0 L 12.88 20.0 L 12.5 20.0 L 12.12 20.0 L 11.75 20.0 L 11.38 20.0 L 11.0 20.0 L 10.62 20.0 L 10.25 20.0 L 9.88 20.0 L 9.5 20.0 L 9.12 20.0 L 8.75 20.0 L 8.38 20.0 L 8.0 20.0 L 7.62 20.0 L 7.25 20.0 L 6.88 20.0 L 6.5 20.0 L 6.12 20.0 L 5.75 20.0 L 5.38 20.0 L 5.0 20.0 L 5.0 20.0 L 5.04 19.71 L 5.08 19.42 L 5.12 19.12 L 5.17 18.83 L 5.21 18.54 L 5.25 18.25 L 5.29 17.96 L 5.33 17.67 L 5.38 17.38 L 5.42 17.08 L 5.46 16.79 L 5.5 16.5 L 5.54 16.21 L 5.58 15.92 L 5.62 15.62 L 5.67 15.33 L 5.71 15.04 L 5.75 14.75 L 5.79 14.46 L 5.83 14.17 L 5.88 13.88 L 5.92 13.58 L 5.96 13.29 L 6.0 13.0" fill="none" stroke="#111" stroke-width="1.36" stroke-linecap="round" stroke-linejoin="round"/>
<path d="M 6.0 4.0 L 6.0 4.21 L 6.0 4.42 L 6.0 4.62 L 6.0 4.83 L 6.0 5.04 L 6.0 5.25 L 6.0 5.46 L 6.0 5.67 L 6.0 5.88 L 6.0 6.08 L 6.0 6.29 L 6.0 6.5 L 6.0 6.71 L 6.0 6.92 L 6.0 7.12 L 6.0 7.33 L 6.0 7.54 L 6.0 7.75 L 6.0 7.96 L 6.0 8.17 L 6.0 8.38 L 6.0 8.58 L 6.0 8.79 L 6.0 9.0 L 6.0 9.0 L 6.26 9.11 L 6.53 9.21 L 6.8 9.29 L 7.08 9.35 L 7.36 9.4 L 7.64 9.42 L 7.93 9.43 L 8.21 9.42 L 8.5 9.39 L 8.78 9.34 L 9.05 9.28 L 9.33 9.2 L 9.59 9.1 L 9.85 8.99 L 10.11 8.85 L 10.35 8.71 L 10.58 8.54 L 10.8 8.37 L 11.02 8.18 L 11.21 7.97 L 11.4 7.76 L 11.57 7.53 L 11.73 7.29 L 11.87 7.04 L 12.0 7.0 L 11.96 6.88 L 11.92 6.75 L 11.88 6.62 L 11.83 6.5 L 11.79 6.38 L 11.75 6.25 L 11.71 6.12 L 11.67 6.0 L 11.62 5.88 L 11.58 5.75 L 11.54 5.62 L 11.5 5.5 L 11.46 5.38 L 11.42 5.25 L 11.38 5.12 L 11.33 5.0 L 11.29 4.88 L 11.25 4.75 L 11.21 4.62 L 11.17 4.5 L 11.12 4.38 L 11.08 4.25 L 11.04 4.12 L 11.0 4.0" fill="none" stroke="#111" stroke-width="1.36" stroke-linecap="round" stroke-linejoin="round"/>
<path d="M 9.0 5.0 L 9.0 5.29 L 9.0 5.58 L 9.0 5.88 L 9.0 6.17 L 9.0 6.46 L 9.0 6.75 L 9.0 7.04 L 9.0 7.33 L 9.0 7.62 L 9.0 7.92 L 9.0 8.21 L 9.0 8.5 L 9.0 8.79 L 9.0 9.08 L 9.0 9.38 L 9.0 9.67 L 9.0 9.96 L 9.0 10.25 L 9.0 10.54 L 9.0 10.83 L 9.0 11.12 L 9.0 11.42 L 9.0 11.71 L 9.0 12.0" fill="none" stroke="#111" stroke-width="1.36" stroke-linecap="round" stroke-linejoin="round"/>
<path d="M 9.0 20.0 L 8.92 20.25 L 8.83 20.5 L 8.75 20.75 L 8.67 21.0 L 8.58 21.25 L 8.5 21.5 L 8.42 21.75 L 8.33 22.0 L 8.25 22.25 L 8.17 22.5 L 8.08 22.75 L 8.0 23.0 L 7.92 23.25 L 7.83 23.5 L 7.75 23.75 L 7.67 24.0 L 7.58 24.25 L 7.5 24.5 L 7.42 24.75 L 7.33 25.0 L 7.25 25.25 L 7.17 25.5 L 7.08 25.75 L 7.0 26.0 L 7.0 26.0 L 7.21 26.0 L 7.42 26.0 L 7.62 26.0 L 7.83 26.0 L 8.04 26.0 L 8.25 26.0 L 8.46 26.0 L 8.67 26.0 L 8.88 26.0 L 9.08 26.0 L 9.29 26.0 L 9.5 26.0 L 9.71 26.0 L 9.92 26.0 L 10.12 26.0 L 10.33 26.0 L 10.54 26.0 L 10.75 26.0 L 10.96 26.0 L 11.17 26.0 L 11.38 26.0 L 11.58 26.0 L 11.79 26.0 L 12.0 26.0 L 12.0 26.0 L 11.92 25.75 L 11.83 25.5 L 11.75 25.25 L 11.67 25.0 L 11.58 24.75 L 11.5 24.5 L 11.42 24.25 L 11.33 24.0 L 11.25 23.75 L 11.17 23.5 L 11.08 23.25 L 11.0 23.0 L 10.92 22.75 L 10.83 22.5 L 10.75 22.25 L 10.67 22.0 L 10.58 21.75 L 10.5 21.5 L 10.42 21.25 L 10.33 21.0 L 10.25 20.75 L 10.17 20.5 L 10.08 20.25 L 10.0 20.0" fill="none" stroke="#111" stroke-width="1.36" stroke-linecap="round" stroke-linejoin="round"/>
<path d="M 4.0 26.0 L 4.05 26.82 L 4.22 27.62 L 4.5 28.39 L 4.88 29.11 L 5.36 29.77 L 5.92 30.36 L 6.56 30.87 L 7.27 31.28 L 8.03 31.59 L 8.82 31.79 L 9.63 31.88 L 10.45 31.86 L 11.26 31.72 L 12.03 31.47 L 12.77 31.12 L 13.45 30.66 L 14.06 30.12 L 14.59 29.5 L 15.03 28.81 L 15.37 28.06 L 15.6 27.28 L 15.71 26.47 L 15.72 25.65 L 15.61 24.84" fill="none" stroke="#111" stroke-width="1.36" stroke-linecap="round" stroke-linejoin="round"/>
<path d="M 5.0 27.0 L 5.33 27.04 L 5.67 27.08 L 6.0 27.12 L 6.33 27.17 L 6.67 27.21 L 7.0 27.25 L 7.33 27.29 L 7.67 27.33 L 8.0 27.38 L 8.33 27.42 L 8.67 27.46 L 9.0 27.5 L 9.33 27.54 L 9.67 27.58 L 10.0 27.62 L 10.33 27.67 L 10.67 27.71 L 11.0 27.75 L 11.33 27.79 L 11.67 27.83 L 12.0 27.88 L 12.33 27.92 L 12.67 27.96 L 13.0 28.0" fill="none" stroke="#111" stroke-width="1.36" stroke-linecap="round" stroke-linejoin="round"/>
<path d="M 16.0 21.0 L 15.83 20.57 L 15.7 20.12 L 15.61 19.66 L 15.57 19.2 L 15.57 18.73 L 15.61 18.27 L 15.7 17.81 L 15.83 17.36 L 16.0 16.93 L 16.21 16.52 L 16.46 16.12 L 16.75 15.76 L 17.07 15.42 L 17.42 15.11 L 17.79 14.84 L 18.2 14.6 L 18.62 14.4 L 19.06 14.25 L 19.51 14.13 L 19.97 14.06 L 20.43 14.04 L 20.9 14.05 L 21.36 14.11 L 21.81 14.22 L 22.0 14.0 L 22.04 14.17 L 22.08 14.33 L 22.12 14.5 L 22.17 14.67 L 22.21 14.83 L 22.25 15.0 L 22.29 15.17 L 22.33 15.33 L 22.38 15.5 L 22.42 15.67 L 22.46 15.83 L 22.5 16.0 L 22.54 16.17 L 22.58 16.33 L 22.62 16.5 L 22.67 16.67 L 22.71 16.83 L 22.75 17.0 L 22.79 17.17 L 22.83 17.33 L 22.88 17.5 L 22.92 17.67 L 22.96 17.83 L 23.0 18.0 L 23.0 18.0 L 22.6 17.97 L 22.19 17.95 L 21.79 17.95 L 21.39 17.96 L 20.98 17.98 L 20.58 18.02 L 20.18 18.07 L 19.78 18.14 L 19.39 18.22 L 19.0 18.31 L 18.61 18.42 L 18.22 18.54 L 17.84 18.67 L 17.47 18.82 L 17.09 18.98 L 16.73 19.15 L 16.37 19.34 L 16.02 19.54 L 15.68 19.75 L 15.34 19.97 L 15.01 20.21 L 14.69 20.45 L 14.38 20.71 L 14.08 20.97" fill="none" stroke="#111" stroke-width="1.36" stroke-linecap="round" stroke-linejoin="round"/>
<path d="M 20.0 6.0 L 19.81 6.74 L 19.64 7.48 L 19.49 8.22 L 19.36 8.97 L 19.25 9.73 L 19.16 10.48 L 19.09 11.24 L 19.04 12.0 L 19.02 12.76 L 19.01 13.52 L 19.02 14.28 L 19.05 15.04 L 19.1 15.8 L 19.18 16.56 L 19.27 17.31 L 19.38 18.07 L 19.51 18.81 L 19.67 19.56 L 19.84 20.3 L 20.03 21.04 L 20.24 21.77 L 20.48 22.49 L 20.73 23.21 L 21.0 23.92 L 21.0 24.0 L 20.73 23.89 L 20.44 23.81 L 20.15 23.75 L 19.85 23.73 L 19.56 23.73 L 19.26 23.77 L 18.97 23.84 L 18.69 23.93 L 18.42 24.06 L 18.17 24.21 L 17.93 24.38 L 17.71 24.58 L 17.51 24.8 L 17.33 25.04 L 17.18 25.3 L 17.06 25.57 L 16.96 25.85 L 16.9 26.14 L 16.86 26.43 L 16.85 26.73 L 16.88 27.02 L 16.93 27.31 L 17.01 27.6 L 17.13 27.87 L 17.0 28.0 L 17.21 27.92 L 17.42 27.83 L 17.62 27.75 L 17.83 27.67 L 18.04 27.58 L 18.25 27.5 L 18.46 27.42 L 18.67 27.33 L 18.88 27.25 L 19.08 27.17 L 19.29 27.08 L 19.5 27.0 L 19.71 26.92 L 19.92 26.83 L 20.12 26.75 L 20.33 26.67 L 20.54 26.58 L 20.75 26.5 L 20.96 26.42 L 21.17 26.33 L 21.38 26.25 L 21.58 26.17 L 21.79 26.08 L 22.0 26.0 L 22.0 26.0 L 21.91 26.45 L 21.8 26.9 L 21.68 27.34 L 21.54 27.78 L 21.39 28.21 L 21.22 28.64 L 21.04 29.07 L 20.85 29.48 L 20.64 29.89 L 20.42 30.3 L 20.18 30.69 L 19.93 31.08 L 19.67 31.46 L 19.39 31.83 L 19.11 32.19 L 18.81 32.54 L 18.5 32.88 L 18.18 33.21 L 17.85 33.53 L 17.51 33.83 L 17.15 34.13 L 16.79 34.41 L 16.42 34.68 L 16.04 34.94" fill="none" stroke="#111" stroke-width="1.36" stroke-linecap="round" stroke-linejoin="round"/>
</svg>
