<?xml version="1.0" encoding="UTF-8"?>
<svg xmlns="http://www.w3.org/2000/svg" viewBox="0 0 24.96 40.63">
<path d="M 13.58 19.0 L 13.92 18.34 L 14.2 17.65 L 14.4 16.94 L 14.54 16.21 L 14.59 15.47 L 14.57 14.72 L 14.48 13.99 L 14.31 13.26 L 14.07 12.56 L 13.76 11.88 L 13.38 11.24 L 12.94 10.65 L 12.44 10.1 L 11.89 9.6 L 11.29 9.16 L 10.65 8.79 L 9.97 8.48 L 9.27 8.24 L 8.55 8.07 L 7.81 7.98 L 7.06 7.97 L 6.32 8.03 L 5.59 8.16 L 4.88 8.37 L 4.58 8.0 L 4.51 8.68 L 4.49 9.37 L 4.53 10.06 L 4.63 10.74 L 4.78 11.41 L 4.99 12.07 L 5.25 12.71 L 5.56 13.32 L 5.92 13.91 L 6.32 14.47 L 6.77 14.99 L 7.26 15.47 L 7.79 15.92 L 8.35 16.31 L 8.95 16.66 L 9.56 16.97 L 10.21 17.22 L 10.87 17.41 L 11.54 17.56 L 12.22 17.64 L 12.91 17.67 L 13.6 17.65 L 14.28 17.57 L 14.96 17.44" fill="none" stroke="#111" stroke-width="1.42" stroke-linecap="round" stroke-linejoin="round"/>
<path d="M 8.58 4.0 L 8.54 4.58 L 8.49 5.17 L 8.45 5.75 L 8.41 6.33 L 8.37 6.92 L 8.33 7.5 L 8.29 8.08 L 8.24 8.67 L 8.2 9.25 L 8.16 9.83 L 8.12 10.42 L 8.08 11.0 L 8.04 11.58 L 7.99 12.17 L 7.95 12.75 L 7.91 13.33 L 7.87 13.92 L 7.83 14.5 L 7.79 15.08 L 7.74 15.67 L 7.7 16.25 L 7.66 16.83 L 7.62 17.42 L 7.58 18.0 L 7.58 18.0 L 7.95 18.47 L 8.31 18.95 L 8.67 19.43 L 9.03 19.92 L 9.38 20.41 L 9.72 20.9 L 10.06 21.4 L 10.39 21.91 L 10.71 22.41 L 11.03 22.92 L 11.34 23.44 L 11.65 23.95 L 11.95 24.48 L 12.24 25.0 L 12.53 25.53 L 12.81 26.06 L 13.09 26.6 L 13.35 27.13 L 13.62 27.68 L 13.87 28.22 L 14.12 28.77 L 14.36 29.32 L 14.6 29.87 L 14.83 30.43 L 14.58 30.0 L 14.07 29.48 L 13.51 29.03 L 12.89 28.64 L 12.23 28.34 L 11.54 28.11 L 10.83 27.97 L 10.11 27.92 L 9.38 27.95 L 8.67 28.07 L 7.97 28.28 L 7.31 28.56 L 6.68 28.93 L 6.1 29.37 L 5.58 29.87 L 5.12 30.43 L 4.74 31.05 L 4.43 31.7 L 4.2 32.39 L 4.06 33.1 L 4.0 33.83 L 4.03 34.55 L 4.15 35.27 L 4.35 35.96 L 4.63 36.63" fill="none" stroke="#111" stroke-width="1.42" stroke-linecap="round" stroke-linejoin="round"/>
<path d="M 18.58 7.0 L 18.86 7.32 L 19.12 7.66 L 19.35 8.02 L 19.55 8.39 L 19.72 8.79 L 19.85 9.19 L 19.95 9.6 L 20.01 10.03 L 20.05 10.45 L 20.04 10.88 L 20.0 11.3 L 19.92 11.72 L 19.81 12.13 L 19.67 12.54 L 19.5 12.92 L 19.29 13.3 L 19.05 13.65 L 18.78 13.98 L 18.49 14.29 L 18.17 14.58 L 17.83 14.84 L 17.47 15.06 L 17.1 15.26 L 16.7 15.43 L 16.58 16.0 L 16.74 16.38 L 16.91 16.75 L 17.08 17.12 L 17.24 17.5 L 17.41 17.88 L 17.58 18.25 L 17.74 18.62 L 17.91 19.0 L 18.08 19.38 L 18.24 19.75 L 18.41 20.12 L 18.58 20.5 L 18.74 20.88 L 18.91 21.25 L 19.08 21.62 L 19.24 22.0 L 19.41 22.38 L 19.58 22.75 L 19.74 23.12 L 19.91 23.5 L 20.08 23.88 L 20.24 24.25 L 20.41 24.62 L 20.58 25.0 L 20.58 25.0 L 20.36 25.11 L 20.15 25.23 L 19.95 25.36 L 19.75 25.51 L 19.57 25.67 L 19.4 25.84 L 19.23 26.02 L 19.08 26.21 L 18.95 26.41 L 18.82 26.62 L 18.71 26.83 L 18.61 27.05 L 18.53 27.28 L 18.46 27.52 L 18.41 27.75 L 18.37 27.99 L 18.35 28.23 L 18.34 28.48 L 18.35 28.72 L 18.37 28.96 L 18.41 29.2 L 18.47 29.44 L 18.53 29.67 L 18.62 29.9" fill="none" stroke="#111" stroke-width="1.42" stroke-linecap="round" stroke-linejoin="round"/>
<path d="M 18.58 14.0 L 19.03 14.33 L 19.45 14.71 L 19.82 15.13 L 20.14 15.58 L 20.42 16.07 L 20.64 16.59 L 20.8 17.12 L 20.91 17.67 L 20.96 18.23 L 20.94 18.79 L 20.87 19.35 L 20.74 19.89 L 20.55 20.42 L 20.3 20.93 L 20.01 21.4 L 19.66 21.84 L 19.27 22.24 L 18.84 22.6 L 18.37 22.91 L 17.87 23.16 L 17.35 23.37 L 16.8 23.51 L 16.25 23.6 L 15.69 23.62 L 15.58 24.0 L 15.7 24.21 L 15.83 24.42 L 15.95 24.62 L 16.08 24.83 L 16.2 25.04 L 16.33 25.25 L 16.45 25.46 L 16.58 25.67 L 16.7 25.88 L 16.83 26.08 L 16.95 26.29 L 17.08 26.5 L 17.2 26.71 L 17.33 26.92 L 17.45 27.12 L 17.58 27.33 L 17.7 27.54 L 17.83 27.75 L 17.95 27.96 L 18.08 28.17 L 18.2 28.38 L 18.33 28.58 L 18.45 28.79 L 18.58 29.0" fill="none" stroke="#111" stroke-width="1.42" stroke-linecap="round" stroke-linejoin="round"/>
</svg>
