<?xml version="1.0" encoding="UTF-8"?>
<svg xmlns="http://www.w3.org/2000/svg" viewBox="0 0 29.00 43.81">
<path d="M 11.0 8.0 L 11.58 8.17 L 12.17 8.33 L 12.75 8.5 L 13.33 8.67 L 13.92 8.83 L 14.5 9.0 L 15.08 9.17 L 15.67 9.33 L 16.25 9.5 L 16.83 9.67 L 17.42 9.83 L 18.0 10.0 L 18.58 10.17 L 19.17 10.33 L 19.75 10.5 L 20.33 10.67 L 20.92 10.83 L 21.5 11.0 L 22.08 11.17 L 22.67 11.33 L 23.25 11.5 L 23.83 11.67 L 24.42 11.83 L 25.0 12.0" fill="none" stroke="#111" stroke-width="1.53" stroke-linecap="round" stroke-linejoin="round"/>
<path d="M 13.0 4.0 L 13.29 4.21 L 13.58 4.42 L 13.88 4.62 L 14.17 4.83 L 14.46 5.04 L 14.75 5.25 L 15.04 5.46 L 15.33 5.67 L 15.62 5.88 L 15.92 6.08 L 16.21 6.29 L 16.5 6.5 L 16.79 6.71 L 17.08 6.92 L 17.38 7.12 L 17.67 7.33 L 17.96 7.54 L 18.25 7.75 L 18.54 7.96 L 18.83 8.17 L 19.12 8.38 L 19.42 8.58 L 19.71 8.79 L 20.0 9.0 L 20.0 9.0 L 19.97 9.6 L 19.9 10.21 L 19.78 10.8 L 19.61 11.38 L 19.4 11.95 L 19.15 12.5 L 18.85 13.02 L 18.52 13.53 L 18.14 14.0 L 17.73 14.45 L 17.29 14.86 L 16.81 15.23 L 16.31 15.57 L 15.78 15.87 L 15.23 16.12 L 14.66 16.33 L 14.08 16.5 L 13.49 16.62 L 12.89 16.69 L 12.28 16.71 L 11.68 16.69 L 11.07 16.62 L 10.48 16.51 L 9.9 16.35" fill="none" stroke="#111" stroke-width="1.53" stroke-linecap="round" stroke-linejoin="round"/>
<path d="M 19.0 12.0 L 19.9 12.99 L 20.71 14.05 L 21.44 15.17 L 22.08 16.35 L 22.62 17.57 L 23.06 18.83 L 23.4 20.13 L 23.64 21.44 L 23.77 22.78 L 23.79 24.11 L 23.7 25.45 L 23.51 26.77 L 23.22 28.08 L 22.82 29.35 L 22.32 30.59 L 21.72 31.79 L 21.03 32.93 L 20.25 34.02 L 19.39 35.04 L 18.44 35.99 L 17.43 36.86 L 16.34 37.65 L 15.2 38.34 L 14.01 38.95" fill="none" stroke="#111" stroke-width="1.53" stroke-linecap="round" stroke-linejoin="round"/>
<path d="M 17.0 13.0 L 16.78 13.68 L 16.6 14.38 L 16.44 15.08 L 16.33 15.78 L 16.24 16.5 L 16.19 17.21 L 16.18 17.93 L 16.2 18.64 L 16.25 19.36 L 16.34 20.07 L 16.47 20.78 L 16.62 21.48 L 16.81 22.17 L 17.04 22.85 L 17.29 23.52 L 17.58 24.18 L 17.9 24.82 L 18.25 25.44 L 18.63 26.05 L 19.04 26.64 L 19.48 27.21 L 19.94 27.76 L 20.43 28.28 L 20.95 28.78 L 21.0 29.0 L 20.62 29.17 L 20.25 29.33 L 19.88 29.5 L 19.5 29.67 L 19.12 29.83 L 18.75 30.0 L 18.38 30.17 L 18.0 30.33 L 17.62 30.5 L 17.25 30.67 L 16.88 30.83 L 16.5 31.0 L 16.12 31.17 L 15.75 31.33 L 15.38 31.5 L 15.0 31.67 L 14.63 31.83 L 14.25 32.0 L 13.88 32.17 L 13.5 32.33 L 13.12 32.5 L 12.75 32.67 L 12.38 32.83 L 12.0 33.0" fill="none" stroke="#111" stroke-width="1.53" stroke-linecap="round" stroke-linejoin="round"/>
<path d="M 11.0 22.0 L 10.91 22.62 L 10.92 23.24 L 11.01 23.86 L 11.2 24.45 L 11.47 25.01 L 11.83 25.53 L 12.25 25.98 L 12.74 26.37 L 13.28 26.68 L 13.86 26.91 L 14.47 27.05 L 15.1 27.09 L 15.72 27.05 L 16.33 26.91 L 16.91 26.68 L 17.45 26.37 L 17.94 25.98 L 18.36 25.53 L 18.72 25.01 L 18.99 24.45 L 19.18 23.86 L 19.27 23.24 L 19.28 22.62 L 19.19 22.0 L 16.0 22.0 L 15.96 21.92 L 15.92 21.83 L 15.88 21.75 L 15.83 21.67 L 15.79 21.58 L 15.75 21.5 L 15.71 21.42 L 15.67 21.33 L 15.62 21.25 L 15.58 21.17 L 15.54 21.08 L 15.5 21.0 L 15.46 20.92 L 15.42 20.83 L 15.38 20.75 L 15.33 20.67 L 15.29 20.58 L 15.25 20.5 L 15.21 20.42 L 15.17 20.33 L 15.12 20.25 L 15.08 20.17 L 15.04 20.08 L 15.0 20.0" fill="none" stroke="#111" stroke-width="1.53" stroke-linecap="round" stroke-linejoin="round"/>
<path d="M 12.0 23.0 L 12.12 22.96 L 12.25 22.92 L 12.38 22.88 L 12.5 22.83 L 12.62 22.79 L 12.75 22.75 L 12.88 22.71 L 13.0 22.67 L 13.12 22.62 L 13.25 22.58 L 13.38 22.54 L 13.5 22.5 L 13.62 22.46 L 13.75 22.42 L 13.88 22.38 L 14.0 22.33 L 14.12 22.29 L 14.25 22.25 L 14.38 22.21 L 14.5 22.17 L 14.62 22.12 L 14.75 22.08 L 14.88 22.04 L 15.0 22.0" fill="none" stroke="#111" stroke-width="1.53" stroke-linecap="round" stroke-linejoin="round"/>
<path d="M 4.0 12.0 L 4.57 13.07 L 5.12 14.14 L 5.64 15.23 L 6.14 16.33 L 6.61 17.44 L 7.07 18.56 L 7.5 19.69 L 7.9 20.83 L 8.28 21.97 L 8.63 23.13 L 8.96 24.29 L 9.27 25.46 L 9.55 26.63 L 9.81 27.81 L 10.04 29.0 L 10.24 30.19 L 10.42 31.38 L 10.57 32.58 L 10.7 33.78 L 10.8 34.99 L 10.88 36.19 L 10.93 37.4 L 10.95 38.61 L 10.95 39.81" fill="none" stroke="#111" stroke-width="1.53" stroke-linecap="round" stroke-linejoin="round"/>
</svg>
