<?xml version="1.0" encoding="UTF-8"?>
<svg xmlns="http://www.w3.org/2000/svg" viewBox="0 0 24.24 36.00">
<path d="M 5.24 22.0 L 4.9 21.44 L 4.62 20.85 L 4.38 20.24 L 4.2 19.61 L 4.08 18.97 L 4.01 18.32 L 4.0 17.66 L 4.05 17.01 L 4.15 16.36 L 4.31 15.73 L 4.52 15.11 L 4.79 14.51 L 5.11 13.94 L 5.47 13.4 L 5.89 12.89 L 6.34 12.42 L 6.84 11.99 L 7.36 11.61 L 7.93 11.27 L 8.51 10.99 L 9.13 10.75 L 9.75 10.57 L 10.4 10.45 L 11.05 10.38 L 11.24 10.0 L 11.65 10.56 L 12.0 11.16 L 12.28 11.79 L 12.5 12.44 L 12.65 13.12 L 12.73 13.81 L 12.73 14.5 L 12.67 15.19 L 12.53 15.87 L 12.32 16.53 L 12.04 17.16 L 11.7 17.76 L 11.3 18.33 L 10.84 18.85 L 10.33 19.31 L 9.78 19.73 L 9.18 20.08 L 8.55 20.37 L 7.9 20.59 L 7.22 20.74 L 6.53 20.82 L 5.84 20.83 L 5.15 20.77 L 4.47 20.63" fill="none" stroke="#111" stroke-width="1.26" stroke-linecap="round" stroke-linejoin="round"/>
<path d="M 8.24 4.0 L 9.01 4.78 L 9.72 5.61 L 10.36 6.51 L 10.91 7.45 L 11.39 8.44 L 11.79 9.46 L 12.1 10.51 L 12.32 11.58 L 12.45 12.67 L 12.49 13.77 L 12.43 14.86 L 12.29 15.95 L 12.06 17.02 L 11.74 18.07 L 11.33 19.09 L 10.84 20.07 L 10.27 21.0 L 9.63 21.89 L 8.91 22.72 L 8.13 23.49 L 7.28 24.19 L 6.38 24.81 L 5.43 25.36 L 4.44 25.83 L 4.24 27.0 L 4.36 27.21 L 4.49 27.42 L 4.61 27.62 L 4.74 27.83 L 4.86 28.04 L 4.99 28.25 L 5.11 28.46 L 5.24 28.67 L 5.36 28.88 L 5.49 29.08 L 5.61 29.29 L 5.74 29.5 L 5.86 29.71 L 5.99 29.92 L 6.11 30.12 L 6.24 30.33 L 6.36 30.54 L 6.49 30.75 L 6.61 30.96 L 6.74 31.17 L 6.86 31.38 L 6.99 31.58 L 7.11 31.79 L 7.24 32.0 L 7.24 32.0 L 7.32 31.32 L 7.48 30.65 L 7.73 30.01 L 8.06 29.41 L 8.46 28.85 L 8.93 28.34 L 9.46 27.9 L 10.04 27.53 L 10.66 27.24 L 11.31 27.03 L 11.99 26.9 L 12.67 26.85 L 13.36 26.9 L 14.03 27.03 L 14.69 27.24 L 15.31 27.53 L 15.89 27.9 L 16.41 28.34 L 16.88 28.85 L 17.28 29.41 L 17.61 30.01 L 17.86 30.65 L 18.02 31.32 L 18.11 32.0" fill="none" stroke="#111" stroke-width="1.26" stroke-linecap="round" stroke-linejoin="round"/>
<path d="M 14.24 22.0 L 14.2 21.92 L 14.16 21.83 L 14.11 21.75 L 14.07 21.67 L 14.03 21.58 L 13.99 21.5 L 13.95 21.42 L 13.91 21.33 L 13.86 21.25 L 13.82 21.17 L 13.78 21.08 L 13.74 21.0 L 13.7 20.92 L 13.66 20.83 L 13.61 20.75 L 13.57 20.67 L 13.53 20.58 L 13.49 20.5 L 13.45 20.42 L 13.41 20.33 L 13.36 20.25 L 13.32 20.17 L 13.28 20.08 L 13.24 20.0" fill="none" stroke="#111" stroke-width="1.26" stroke-linecap="round" stroke-linejoin="round"/>
<path d="M 14.24 20.0 L 14.38 19.51 L 14.51 19.02 L 14.65 18.53 L 14.77 18.04 L 14.89 17.55 L 15.01 17.05 L 15.12 16.56 L 15.23 16.06 L 15.33 15.56 L 15.42 15.06 L 15.51 14.57 L 15.6 14.07 L 15.68 13.56 L 15.76 13.06 L 15.83 12.56 L 15.89 12.06 L 15.95 11.55 L 16.01 11.05 L 16.06 10.54 L 16.11 10.04 L 16.15 9.53 L 16.18 9.02 L 16.21 8.52 L 16.24 8.01" fill="none" stroke="#111" stroke-width="1.26" stroke-linecap="round" stroke-linejoin="round"/>
<path d="M 16.24 15.0 L 16.36 15.17 L 16.49 15.33 L 16.61 15.5 L 16.74 15.67 L 16.86 15.83 L 16.99 16.0 L 17.11 16.17 L 17.24 16.33 L 17.36 16.5 L 17.49 16.67 L 17.61 16.83 L 17.74 17.0 L 17.86 17.17 L 17.99 17.33 L 18.11 17.5 L 18.24 17.67 L 18.36 17.83 L 18.49 18.0 L 18.61 18.17 L 18.74 18.33 L 18.86 18.5 L 18.99 18.67 L 19.11 18.83 L 19.24 19.0" fill="none" stroke="#111" stroke-width="1.26" stroke-linecap="round" stroke-linejoin="round"/>
<path d="M 18.24 20.0 L 18.32 19.96 L 18.41 19.92 L 18.49 19.88 L 18.57 19.83 L 18.66 19.79 L 18.74 19.75 L 18.82 19.71 L 18.91 19.67 L 18.99 19.62 L 19.07 19.58 L 19.16 19.54 L 19.24 19.5 L 19.32 19.46 L 19.41 19.42 L 19.49 19.38 L 19.57 19.33 L 19.66 19.29 L 19.74 19.25 L 19.82 19.21 L 19.91 19.17 L 19.99 19.12 L 20.07 19.08 L 20.16 19.04 L 20.24 19.0" fill="none" stroke="#111" stroke-width="1.26" stroke-linecap="round" stroke-linejoin="round"/>
</svg>
