<?xml version="1.0" encoding="UTF-8"?>
<svg xmlns="http://www.w3.org/2000/svg" viewBox="0 0 27.01 36.00">
<path d="M 9.01 6.0 L 8.93 6.58 L 8.84 7.17 L 8.76 7.75 L 8.68 8.33 L 8.59 8.92 L 8.51 9.5 L 8.43 10.08 L 8.34 10.67 L 8.26 11.25 L 8.18 11.83 L 8.09 12.42 L 8.01 13.0 L 7.93 13.58 L 7.84 14.17 L 7.76 14.75 L 7.68 15.33 L 7.59 15.92 L 7.51 16.5 L 7.43 17.08 L 7.34 17.67 L 7.26 18.25 L 7.18 18.83 L 7.09 19.42 L 7.01 20.0 L 7.01 20.0 L 7.33 20.2 L 7.65 20.42 L 7.95 20.66 L 8.25 20.9 L 8.53 21.17 L 8.8 21.44 L 9.05 21.73 L 9.29 22.03 L 9.52 22.34 L 9.73 22.66 L 9.92 22.99 L 10.1 23.33 L 10.27 23.67 L 10.41 24.03 L 10.54 24.39 L 10.66 24.76 L 10.75 25.13 L 10.83 25.5 L 10.89 25.88 L 10.93 26.27 L 10.95 26.65 L 10.95 27.03 L 10.94 27.42 L 10.91 27.8 L 11.01 28.0 L 10.8 27.88 L 10.59 27.75 L 10.38 27.62 L 10.18 27.5 L 9.97 27.38 L 9.76 27.25 L 9.55 27.12 L 9.34 27.0 L 9.13 26.88 L 8.93 26.75 L 8.72 26.62 L 8.51 26.5 L 8.3 26.38 L 8.09 26.25 L 7.88 26.12 L 7.68 26.0 L 7.47 25.88 L 7.26 25.75 L 7.05 25.62 L 6.84 25.5 L 6.63 25.38 L 6.43 25.25 L 6.22 25.12 L 6.01 25.0 L 6.01 25.0 L 6.09 25.29 L 6.18 25.58 L 6.26 25.88 L 6.34 26.17 L 6.43 26.46 L 6.51 26.75 L 6.59 27.04 L 6.68 27.33 L 6.76 27.62 L 6.84 27.92 L 6.93 28.21 L 7.01 28.5 L 7.09 28.79 L 7.18 29.08 L 7.26 29.38 L 7.34 29.67 L 7.43 29.96 L 7.51 30.25 L 7.59 30.54 L 7.68 30.83 L 7.76 31.12 L 7.84 31.42 L 7.93 31.71 L 8.01 32.0" fill="none" stroke="#111" stroke-width="1.26" stroke-linecap="round" stroke-linejoin="round"/>
<path d="M 12.01 13.0 L 11.68 12.88 L 11.34 12.75 L 11.01 12.62 L 10.68 12.5 L 10.34 12.38 L 10.01 12.25 L 9.68 12.12 L 9.34 12.0 L 9.01 11.88 L 8.68 11.75 L 8.34 11.62 L 8.01 11.5 L 7.68 11.38 L 7.34 11.25 L 7.01 11.12 L 6.68 11.0 L 6.34 10.88 L 6.01 10.75 L 5.68 10.62 L 5.34 10.5 L 5.01 10.38 L 4.68 10.25 L 4.34 10.12 L 4.01 10.0" fill="none" stroke="#111" stroke-width="1.26" stroke-linecap="round" stroke-linejoin="round"/>
<path d="M 4.01 10.0 L 4.0 10.47 L 4.03 10.95 L 4.1 11.42 L 4.21 11.88 L 4.35 12.33 L 4.53 12.77 L 4.75 13.2 L 5.0 13.6 L 5.28 13.98 L 5.6 14.34 L 5.94 14.67 L 6.31 14.97 L 6.7 15.24 L 7.11 15.47 L 7.54 15.67 L 7.99 15.84 L 8.44 15.97 L 8.91 16.06 L 9.38 16.11 L 9.86 16.12 L 10.33 16.09 L 10.8 16.03 L 11.27 15.92 L 11.72 15.78" fill="none" stroke="#111" stroke-width="1.26" stroke-linecap="round" stroke-linejoin="round"/>
<path d="M 10.01 13.0 L 10.05 13.25 L 10.09 13.5 L 10.13 13.75 L 10.18 14.0 L 10.22 14.25 L 10.26 14.5 L 10.3 14.75 L 10.34 15.0 L 10.38 15.25 L 10.43 15.5 L 10.47 15.75 L 10.51 16.0 L 10.55 16.25 L 10.59 16.5 L 10.63 16.75 L 10.68 17.0 L 10.72 17.25 L 10.76 17.5 L 10.8 17.75 L 10.84 18.0 L 10.88 18.25 L 10.93 18.5 L 10.97 18.75 L 11.01 19.0" fill="none" stroke="#111" stroke-width="1.26" stroke-linecap="round" stroke-linejoin="round"/>
<path d="M 17.01 6.0 L 17.01 7.04 L 17.01 8.08 L 17.01 9.12 L 17.01 10.17 L 17.01 11.21 L 17.01 12.25 L 17.01 13.29 L 17.01 14.33 L 17.01 15.38 L 17.01 16.42 L 17.01 17.46 L 17.01 18.5 L 17.01 19.54 L 17.01 20.58 L 17.01 21.62 L 17.01 22.67 L 17.01 23.71 L 17.01 24.75 L 17.01 25.79 L 17.01 26.83 L 17.01 27.88 L 17.01 28.92 L 17.01 29.96 L 17.01 31.0" fill="none" stroke="#111" stroke-width="1.26" stroke-linecap="round" stroke-linejoin="round"/>
<path d="M 13.01 11.0 L 13.18 10.79 L 13.34 10.58 L 13.51 10.38 L 13.68 10.17 L 13.84 9.96 L 14.01 9.75 L 14.18 9.54 L 14.34 9.33 L 14.51 9.12 L 14.68 8.92 L 14.84 8.71 L 15.01 8.5 L 15.18 8.29 L 15.34 8.08 L 15.51 7.88 L 15.68 7.67 L 15.84 7.46 L 16.01 7.25 L 16.18 7.04 L 16.34 6.83 L 16.51 6.62 L 16.68 6.42 L 16.84 6.21 L 17.01 6.0" fill="none" stroke="#111" stroke-width="1.26" stroke-linecap="round" stroke-linejoin="round"/>
<path d="M 13.01 6.0 L 13.05 6.29 L 13.09 6.58 L 13.13 6.88 L 13.18 7.17 L 13.22 7.46 L 13.26 7.75 L 13.3 8.04 L 13.34 8.33 L 13.38 8.62 L 13.43 8.92 L 13.47 9.21 L 13.51 9.5 L 13.55 9.79 L 13.59 10.08 L 13.63 10.38 L 13.68 10.67 L 13.72 10.96 L 13.76 11.25 L 13.8 11.54 L 13.84 11.83 L 13.88 12.12 L 13.93 12.42 L 13.97 12.71 L 14.01 13.0" fill="none" stroke="#111" stroke-width="1.26" stroke-linecap="round" stroke-linejoin="round"/>
<path d="M 19.01 6.0 L 19.18 6.29 L 19.34 6.58 L 19.51 6.88 L 19.68 7.17 L 19.84 7.46 L 20.01 7.75 L 20.18 8.04 L 20.34 8.33 L 20.51 8.62 L 20.68 8.92 L 20.84 9.21 L 21.01 9.5 L 21.18 9.79 L 21.34 10.08 L 21.51 10.38 L 21.68 10.67 L 21.84 10.96 L 22.01 11.25 L 22.18 11.54 L 22.34 11.83 L 22.51 12.12 L 22.68 12.42 L 22.84 12.71 L 23.01 13.0" fill="none" stroke="#111" stroke-width="1.26" stroke-linecap="round" stroke-linejoin="round"/>
<path d="M 22.01 4.0 L 21.84 4.25 L 21.68 4.5 L 21.51 4.75 L 21.34 5.0 L 21.18 5.25 L 21.01 5.5 L 20.84 5.75 L 20.68 6.0 L 20.51 6.25 L 20.34 6.5 L 20.18 6.75 L 20.01 7.0 L 19.84 7.25 L 19.68 7.5 L 19.51 7.75 L 19.34 8.0 L 19.18 8.25 L 19.01 8.5 L 18.84 8.75 L 18.68 9.0 L 18.51 9.25 L 18.34 9.5 L 18.18 9.75 L 18.01 10.0" fill="none" stroke="#111" stroke-width="1.26" stroke-linecap="round" stroke-linejoin="round"/>
<path d="M 17.01 15.0 L 16.84 15.21 L 16.68 15.42 L 16.51 15.62 L 16.34 15.83 L 16.18 16.04 L 16.01 16.25 L 15.84 16.46 L 15.68 16.67 L 15.51 16.88 L 15.34 17.08 L 15.18 17.29 L 15.01 17.5 L 14.84 17.71 L 14.68 17.92 L 14.51 18.12 L 14.34 18.33 L 14.18 18.54 L 14.01 18.75 L 13.84 18.96 L 13.68 19.17 L 13.51 19.38 L 13.34 19.58 L 13.18 19.79 L 13.01 20.0" fill="none" stroke="#111" stroke-width="1.26" stroke-linecap="round" stroke-linejoin="round"/>
<path d="M 17.01 15.0 L 17.22 15.21 L 17.43 15.42 L 17.63 15.62 L 17.84 15.83 L 18.05 16.04 L 18.26 16.25 L 18.47 16.46 L 18.68 16.67 L 18.88 16.88 L 19.09 17.08 L 19.3 17.29 L 19.51 17.5 L 19.72 17.71 L 19.93 17.92 L 20.13 18.12 L 20.34 18.33 L 20.55 18.54 L 20.76 18.75 L 20.97 18.96 L 21.18 19.17 L 21.38 19.38 L 21.59 19.58 L 21.8 19.79 L 22.01 20.0" fill="none" stroke="#111" stroke-width="1.26" stroke-linecap="round" stroke-linejoin="round"/>
<path d="M 17.01 20.0 L 16.84 20.17 L 16.68 20.33 L 16.51 20.5 L 16.34 20.67 L 16.18 20.83 L 16.01 21.0 L 15.84 21.17 L 15.68 21.33 L 15.51 21.5 L 15.34 21.67 L 15.18 21.83 L 15.01 22.0 L 14.84 22.17 L 14.68 22.33 L 14.51 22.5 L 14.34 22.67 L 14.18 22.83 L 14.01 23.0 L 13.84 23.17 L 13.68 23.33 L 13.51 23.5 L 13.34 23.67 L 13.18 23.83 L 13.01 24.0" fill="none" stroke="#111" stroke-width="1.26" stroke-linecap="round" stroke-linejoin="round"/>
<path d="M 17.01 21.0 L 17.18 21.08 L 17.34 21.17 L 17.51 21.25 L 17.68 21.33 L 17.84 21.42 L 18.01 21.5 L 18.18 21.58 L 18.34 21.67 L 18.51 21.75 L 18.68 21.83 L 18.84 21.92 L 19.01 22.0 L 19.18 22.08 L 19.34 22.17 L 19.51 22.25 L 19.68 22.33 L 19.84 22.42 L 20.01 22.5 L 20.18 22.58 L 20.34 22.67 L 20.51 22.75 L 20.68 22.83 L 20.84 22.92 L 21.01 23.0" fill="none" stroke="#111" stroke-width="1.26" stroke-linecap="round" stroke-linejoin="round"/>
</svg>
