<?xml version="1.0" encoding="UTF-8"?>
<svg xmlns="http://www.w3.org/2000/svg" viewBox="0 0 19.98 30.10">
<path d="M 4.0 6.0 L 4.08 6.25 L 4.17 6.5 L 4.25 6.75 L 4.33 7.0 L 4.42 7.25 L 4.5 7.5 L 4.58 7.75 L 4.67 8.0 L 4.75 8.25 L 4.83 8.5 L 4.92 8.75 L 5.0 9.0 L 5.08 9.25 L 5.17 9.5 L 5.25 9.75 L 5.33 10.0 L 5.42 10.25 L 5.5 10.5 L 5.58 10.75 L 5.67 11.0 L 5.75 11.25 L 5.83 11.5 L 5.92 11.75 L 6.0 12.0 L 6.0 12.0 L 5.74 12.44 L 5.49 12.9 L 5.27 13.36 L 5.06 13.83 L 4.87 14.31 L 4.7 14.8 L 4.54 15.29 L 4.41 15.79 L 4.3 16.29 L 4.21 16.8 L 4.13 17.31 L 4.08 17.82 L 4.05 18.34 L 4.03 18.85 L 4.04 19.37 L 4.07 19.89 L 4.12 20.4 L 4.19 20.91 L 4.27 21.42 L 4.38 21.92 L 4.51 22.42 L 4.66 22.92 L 4.82 23.4 L 5.01 23.89" fill="none" stroke="#111" stroke-width="1.05" stroke-linecap="round" stroke-linejoin="round"/>
<path d="M 8.0 9.0 L 8.12 8.79 L 8.25 8.58 L 8.38 8.38 L 8.5 8.17 L 8.62 7.96 L 8.75 7.75 L 8.88 7.54 L 9.0 7.33 L 9.12 7.12 L 9.25 6.92 L 9.38 6.71 L 9.5 6.5 L 9.62 6.29 L 9.75 6.08 L 9.88 5.88 L 10.0 5.67 L 10.12 5.46 L 10.25 5.25 L 10.38 5.04 L 10.5 4.83 L 10.62 4.62 L 10.75 4.42 L 10.88 4.21 L 11.0 4.0 L 11.0 4.0 L 11.12 4.17 L 11.25 4.33 L 11.38 4.5 L 11.5 4.67 L 11.62 4.83 L 11.75 5.0 L 11.88 5.17 L 12.0 5.33 L 12.12 5.5 L 12.25 5.67 L 12.38 5.83 L 12.5 6.0 L 12.62 6.17 L 12.75 6.33 L 12.88 6.5 L 13.0 6.67 L 13.12 6.83 L 13.25 7.0 L 13.38 7.17 L 13.5 7.33 L 13.62 7.5 L 13.75 7.67 L 13.88 7.83 L 14.0 8.0" fill="none" stroke="#111" stroke-width="1.05" stroke-linecap="round" stroke-linejoin="round"/>
<path d="M 11.0 4.0 L 11.0 4.33 L 11.0 4.67 L 11.0 5.0 L 11.0 5.33 L 11.0 5.67 L 11.0 6.0 L 11.0 6.33 L 11.0 6.67 L 11.0 7.0 L 11.0 7.33 L 11.0 7.67 L 11.0 8.0 L 11.0 8.33 L 11.0 8.67 L 11.0 9.0 L 11.0 9.33 L 11.0 9.67 L 11.0 10.0 L 11.0 10.33 L 11.0 10.67 L 11.0 11.0 L 11.0 11.33 L 11.0 11.67 L 11.0 12.0" fill="none" stroke="#111" stroke-width="1.05" stroke-linecap="round" stroke-linejoin="round"/>
<path d="M 8.0 14.0 L 8.29 13.92 L 8.58 13.83 L 8.88 13.75 L 9.17 13.67 L 9.46 13.58 L 9.75 13.5 L 10.04 13.42 L 10.33 13.33 L 10.62 13.25 L 10.92 13.17 L 11.21 13.08 L 11.5 13.0 L 11.79 12.92 L 12.08 12.83 L 12.38 12.75 L 12.67 12.67 L 12.96 12.58 L 13.25 12.5 L 13.54 12.42 L 13.83 12.33 L 14.12 12.25 L 14.42 12.17 L 14.71 12.08 L 15.0 12.0 L 15.0 12.0 L 15.11 12.5 L 15.16 13.01 L 15.17 13.52 L 15.13 14.02 L 15.03 14.53 L 14.89 15.01 L 14.7 15.49 L 14.46 15.94 L 14.18 16.37 L 13.86 16.76 L 13.51 17.13 L 13.11 17.45 L 12.69 17.74 L 12.24 17.98 L 11.77 18.18 L 11.28 18.33 L 10.78 18.43 L 10.28 18.48 L 9.77 18.48 L 9.26 18.43 L 8.76 18.33 L 8.27 18.18 L 7.8 17.98 L 7.35 17.74" fill="none" stroke="#111" stroke-width="1.05" stroke-linecap="round" stroke-linejoin="round"/>
<path d="M 8.0 19.0 L 8.09 19.25 L 8.21 19.49 L 8.37 19.71 L 8.55 19.91 L 8.75 20.08 L 8.97 20.23 L 9.21 20.35 L 9.47 20.44 L 9.73 20.49 L 10.0 20.51 L 10.26 20.5 L 10.53 20.45 L 10.78 20.37 L 11.03 20.25 L 11.25 20.11 L 11.46 19.94 L 11.64 19.74 L 11.8 19.53 L 11.93 19.29 L 12.02 19.04 L 12.09 18.78 L 12.12 18.51 L 12.11 18.25 L 12.08 17.98 L 12.0 18.0 L 11.81 18.31 L 11.63 18.62 L 11.45 18.94 L 11.28 19.26 L 11.11 19.58 L 10.95 19.9 L 10.79 20.23 L 10.64 20.56 L 10.49 20.89 L 10.35 21.23 L 10.22 21.56 L 10.09 21.9 L 9.96 22.24 L 9.84 22.59 L 9.73 22.93 L 9.62 23.28 L 9.52 23.62 L 9.42 23.97 L 9.33 24.32 L 9.25 24.68 L 9.17 25.03 L 9.09 25.39 L 9.03 25.74 L 8.96 26.1" fill="none" stroke="#111" stroke-width="1.05" stroke-linecap="round" stroke-linejoin="round"/>
<path d="M 13.0 17.0 L 13.14 17.31 L 13.28 17.62 L 13.4 17.94 L 13.52 18.26 L 13.63 18.58 L 13.73 18.9 L 13.82 19.23 L 13.9 19.56 L 13.97 19.89 L 14.04 20.23 L 14.09 20.56 L 14.14 20.9 L 14.18 21.24 L 14.21 21.58 L 14.23 21.92 L 14.24 22.26 L 14.24 22.6 L 14.23 22.94 L 14.21 23.28 L 14.19 23.62 L 14.15 23.95 L 14.11 24.29 L 14.06 24.63 L 14.0 24.96 L 14.0 25.0 L 13.91 24.62 L 13.84 24.23 L 13.78 23.84 L 13.74 23.44 L 13.72 23.05 L 13.7 22.66 L 13.71 22.26 L 13.72 21.87 L 13.76 21.47 L 13.81 21.08 L 13.87 20.69 L 13.95 20.31 L 14.04 19.92 L 14.15 19.54 L 14.27 19.17 L 14.41 18.8 L 14.56 18.43 L 14.72 18.07 L 14.9 17.72 L 15.09 17.38 L 15.3 17.04 L 15.51 16.71 L 15.74 16.39 L 15.98 16.08" fill="none" stroke="#111" stroke-width="1.05" stroke-linecap="round" stroke-linejoin="round"/>
</svg>
