<?xml version="1.0" encoding="UTF-8"?>
<svg xmlns="http://www.w3.org/2000/svg" viewBox="0 0 20.00 33.00">
<path d="M 16.0 8.0 L 15.51 6.89 L 14.79 5.9 L 13.89 5.09 L 12.83 4.49 L 11.67 4.12 L 10.46 4.0 L 9.25 4.14 L 8.1 4.53 L 7.05 5.16 L 6.16 5.99 L 5.46 6.98 L 4.99 8.11 L 4.77 9.3 L 4.8 10.52 L 5.09 11.7 L 5.62 12.8 L 6.36 13.76 L 7.3 14.54 L 8.37 15.11 L 9.54 15.44 L 10.76 15.52 L 11.96 15.34 L 13.1 14.91 L 14.12 14.25" fill="none" stroke="#111" stroke-width="1.16" stroke-linecap="round" stroke-linejoin="round"/>
<path d="M 4.0 29.0 L 4.46 28.96 L 4.92 28.92 L 5.38 28.88 L 5.83 28.83 L 6.29 28.79 L 6.75 28.75 L 7.21 28.71 L 7.67 28.67 L 8.12 28.63 L 8.58 28.58 L 9.04 28.54 L 9.5 28.5 L 9.96 28.46 L 10.42 28.42 L 10.88 28.38 L 11.33 28.33 L 11.79 28.29 L 12.25 28.25 L 12.71 28.21 L 13.17 28.17 L 13.62 28.13 L 14.08 28.08 L 14.54 28.04 L 15.0 28.0" fill="none" stroke="#111" stroke-width="1.16" stroke-linecap="round" stroke-linejoin="round"/>
</svg>
