<?xml version="1.0" encoding="UTF-8"?>
<svg xmlns="http://www.w3.org/2000/svg" viewBox="0 0 21.00 38.00">
<path d="M 4.0 9.0 L 4.04 9.33 L 4.08 9.67 L 4.12 10.0 L 4.17 10.33 L 4.21 10.67 L 4.25 11.0 L 4.29 11.33 L 4.33 11.67 L 4.38 12.0 L 4.42 12.33 L 4.46 12.67 L 4.5 13.0 L 4.54 13.33 L 4.58 13.67 L 4.62 14.0 L 4.67 14.33 L 4.71 14.67 L 4.75 15.0 L 4.79 15.33 L 4.83 15.67 L 4.88 16.0 L 4.92 16.33 L 4.96 16.67 L 5.0 17.0" fill="none" stroke="#111" stroke-width="1.33" stroke-linecap="round" stroke-linejoin="round"/>
<path d="M 5.0 12.0 L 5.17 11.88 L 5.33 11.75 L 5.5 11.62 L 5.67 11.5 L 5.83 11.38 L 6.0 11.25 L 6.17 11.12 L 6.33 11.0 L 6.5 10.88 L 6.67 10.75 L 6.83 10.62 L 7.0 10.5 L 7.17 10.38 L 7.33 10.25 L 7.5 10.12 L 7.67 10.0 L 7.83 9.88 L 8.0 9.75 L 8.17 9.62 L 8.33 9.5 L 8.5 9.38 L 8.67 9.25 L 8.83 9.12 L 9.0 9.0 L 9.0 9.0 L 9.24 9.22 L 9.49 9.42 L 9.74 9.62 L 9.99 9.82 L 10.26 10.01 L 10.52 10.18 L 10.8 10.36 L 11.07 10.52 L 11.36 10.68 L 11.64 10.82 L 11.93 10.96 L 12.23 11.09 L 12.52 11.22 L 12.82 11.33 L 13.13 11.44 L 13.44 11.53 L 13.75 11.62 L 14.06 11.7 L 14.37 11.77 L 14.69 11.83 L 15.01 11.88 L 15.33 11.93 L 15.65 11.96 L 15.97 11.99" fill="none" stroke="#111" stroke-width="1.33" stroke-linecap="round" stroke-linejoin="round"/>
<path d="M 5.0 14.0 L 5.25 14.3 L 5.53 14.59 L 5.83 14.84 L 6.15 15.07 L 6.49 15.27 L 6.84 15.44 L 7.21 15.58 L 7.59 15.69 L 7.98 15.76 L 8.37 15.79 L 8.77 15.8 L 9.16 15.77 L 9.55 15.7 L 9.93 15.6 L 10.3 15.47 L 10.66 15.3 L 11.01 15.11 L 11.33 14.88 L 11.63 14.63 L 11.91 14.35 L 12.17 14.05 L 12.4 13.73 L 12.59 13.39 L 12.76 13.03" fill="none" stroke="#111" stroke-width="1.33" stroke-linecap="round" stroke-linejoin="round"/>
<path d="M 8.0 6.0 L 8.04 6.12 L 8.08 6.25 L 8.12 6.38 L 8.17 6.5 L 8.21 6.62 L 8.25 6.75 L 8.29 6.88 L 8.33 7.0 L 8.38 7.12 L 8.42 7.25 L 8.46 7.38 L 8.5 7.5 L 8.54 7.62 L 8.58 7.75 L 8.62 7.88 L 8.67 8.0 L 8.71 8.12 L 8.75 8.25 L 8.79 8.38 L 8.83 8.5 L 8.88 8.62 L 8.92 8.75 L 8.96 8.88 L 9.0 9.0" fill="none" stroke="#111" stroke-width="1.33" stroke-linecap="round" stroke-linejoin="round"/>
<path d="M 9.0 16.0 L 8.96 16.12 L 8.92 16.25 L 8.88 16.38 L 8.83 16.5 L 8.79 16.62 L 8.75 16.75 L 8.71 16.88 L 8.67 17.0 L 8.62 17.12 L 8.58 17.25 L 8.54 17.38 L 8.5 17.5 L 8.46 17.62 L 8.42 17.75 L 8.38 17.88 L 8.33 18.0 L 8.29 18.12 L 8.25 18.25 L 8.21 18.38 L 8.17 18.5 L 8.12 18.62 L 8.08 18.75 L 8.04 18.88 L 8.0 19.0" fill="none" stroke="#111" stroke-width="1.33" stroke-linecap="round" stroke-linejoin="round"/>
<path d="M 17.0 4.0 L 15.7 4.44 L 14.44 5.0 L 13.24 5.67 L 12.11 6.46 L 11.06 7.34 L 10.09 8.32 L 9.22 9.39 L 8.46 10.53 L 7.8 11.74 L 7.26 13.0 L 6.84 14.31 L 6.54 15.65 L 6.37 17.02 L 6.33 18.39 L 6.42 19.76 L 6.63 21.12 L 6.97 22.46 L 7.43 23.75 L 8.02 25.0 L 8.71 26.18 L 9.51 27.3 L 10.42 28.34 L 11.41 29.28 L 12.49 30.13" fill="none" stroke="#111" stroke-width="1.33" stroke-linecap="round" stroke-linejoin="round"/>
<path d="M 8.0 34.0 L 8.29 33.92 L 8.58 33.83 L 8.88 33.75 L 9.17 33.67 L 9.46 33.58 L 9.75 33.5 L 10.04 33.42 L 10.33 33.33 L 10.62 33.25 L 10.92 33.17 L 11.21 33.08 L 11.5 33.0 L 11.79 32.92 L 12.08 32.83 L 12.38 32.75 L 12.67 32.67 L 12.96 32.58 L 13.25 32.5 L 13.54 32.42 L 13.83 32.33 L 14.12 32.25 L 14.42 32.17 L 14.71 32.08 L 15.0 32.0" fill="none" stroke="#111" stroke-width="1.33" stroke-linecap="round" stroke-linejoin="round"/>
</svg>
