<?xml version="1.0" encoding="UTF-8"?>
<svg xmlns="http://www.w3.org/2000/svg" viewBox="0 0 28.00 36.00">
<path d="M 4.0 16.0 L 4.54 16.0 L 5.08 16.0 L 5.62 16.0 L 6.17 16.0 L 6.71 16.0 L 7.25 16.0 L 7.79 16.0 L 8.33 16.0 L 8.88 16.0 L 9.42 16.0 L 9.96 16.0 L 10.5 16.0 L 11.04 16.0 L 11.58 16.0 L 12.12 16.0 L 12.67 16.0 L 13.21 16.0 L 13.75 16.0 L 14.29 16.0 L 14.83 16.0 L 15.38 16.0 L 15.92 16.0 L 16.46 16.0 L 17.0 16.0 L 17.0 16.0 L 17.0 16.33 L 17.0 16.67 L 17.0 17.0 L 17.0 17.33 L 17.0 17.67 L 17.0 18.0 L 17.0 18.33 L 17.0 18.67 L 17.0 19.0 L 17.0 19.33 L 17.0 19.67 L 17.0 20.0 L 17.0 20.33 L 17.0 20.67 L 17.0 21.0 L 17.0 21.33 L 17.0 21.67 L 17.0 22.0 L 17.0 22.33 L 17.0 22.67 L 17.0 23.0 L 17.0 23.33 L 17.0 23.67 L 17.0 24.0" fill="none" stroke="#111" stroke-width="1.26" stroke-linecap="round" stroke-linejoin="round"/>
<path d="M 9.0 14.0 L 9.0 13.92 L 9.0 13.83 L 9.0 13.75 L 9.0 13.67 L 9.0 13.58 L 9.0 13.5 L 9.0 13.42 L 9.0 13.33 L 9.0 13.25 L 9.0 13.17 L 9.0 13.08 L 9.0 13.0 L 9.0 12.92 L 9.0 12.83 L 9.0 12.75 L 9.0 12.67 L 9.0 12.58 L 9.0 12.5 L 9.0 12.42 L 9.0 12.33 L 9.0 12.25 L 9.0 12.17 L 9.0 12.08 L 9.0 12.0 L 9.0 12.0 L 9.21 12.0 L 9.42 12.0 L 9.62 12.0 L 9.83 12.0 L 10.04 12.0 L 10.25 12.0 L 10.46 12.0 L 10.67 12.0 L 10.88 12.0 L 11.08 12.0 L 11.29 12.0 L 11.5 12.0 L 11.71 12.0 L 11.92 12.0 L 12.12 12.0 L 12.33 12.0 L 12.54 12.0 L 12.75 12.0 L 12.96 12.0 L 13.17 12.0 L 13.38 12.0 L 13.58 12.0 L 13.79 12.0 L 14.0 12.0 L 14.0 12.0 L 14.0 12.08 L 14.0 12.17 L 14.0 12.25 L 14.0 12.33 L 14.0 12.42 L 14.0 12.5 L 14.0 12.58 L 14.0 12.67 L 14.0 12.75 L 14.0 12.83 L 14.0 12.92 L 14.0 13.0 L 14.0 13.08 L 14.0 13.17 L 14.0 13.25 L 14.0 13.33 L 14.0 13.42 L 14.0 13.5 L 14.0 13.58 L 14.0 13.67 L 14.0 13.75 L 14.0 13.83 L 14.0 13.92 L 14.0 14.0" fill="none" stroke="#111" stroke-width="1.26" stroke-linecap="round" stroke-linejoin="round"/>
<path d="M 11.0 13.0 L 10.5 13.55 L 10.06 14.14 L 9.67 14.77 L 9.35 15.43 L 9.09 16.12 L 8.9 16.83 L 8.78 17.56 L 8.73 18.3 L 8.75 19.03 L 8.83 19.77 L 8.99 20.49 L 9.22 21.19 L 9.51 21.87 L 9.87 22.52 L 10.28 23.13 L 10.75 23.69 L 11.28 24.21 L 11.85 24.68 L 12.46 25.09 L 13.11 25.44 L 13.79 25.73 L 14.49 25.95 L 15.21 26.11 L 15.95 26.19 L 14.0 21.0 L 13.92 20.79 L 13.83 20.58 L 13.75 20.38 L 13.67 20.17 L 13.58 19.96 L 13.5 19.75 L 13.42 19.54 L 13.33 19.33 L 13.25 19.12 L 13.17 18.92 L 13.08 18.71 L 13.0 18.5 L 12.92 18.29 L 12.83 18.08 L 12.75 17.88 L 12.67 17.67 L 12.58 17.46 L 12.5 17.25 L 12.42 17.04 L 12.33 16.83 L 12.25 16.62 L 12.17 16.42 L 12.08 16.21 L 12.0 16.0" fill="none" stroke="#111" stroke-width="1.26" stroke-linecap="round" stroke-linejoin="round"/>
<path d="M 6.0 17.0 L 6.12 17.28 L 6.25 17.55 L 6.39 17.81 L 6.53 18.08 L 6.69 18.33 L 6.85 18.59 L 7.02 18.83 L 7.2 19.08 L 7.39 19.31 L 7.58 19.54 L 7.78 19.76 L 7.99 19.98 L 8.21 20.19 L 8.43 20.39 L 8.66 20.58 L 8.89 20.77 L 9.14 20.95 L 9.38 21.12 L 9.63 21.28 L 9.89 21.44 L 10.15 21.58 L 10.42 21.72 L 10.69 21.85 L 10.97 21.97" fill="none" stroke="#111" stroke-width="1.26" stroke-linecap="round" stroke-linejoin="round"/>
<path d="M 14.0 21.0 L 14.08 21.04 L 14.17 21.08 L 14.25 21.12 L 14.33 21.17 L 14.42 21.21 L 14.5 21.25 L 14.58 21.29 L 14.67 21.33 L 14.75 21.38 L 14.83 21.42 L 14.92 21.46 L 15.0 21.5 L 15.08 21.54 L 15.17 21.58 L 15.25 21.62 L 15.33 21.67 L 15.42 21.71 L 15.5 21.75 L 15.58 21.79 L 15.67 21.83 L 15.75 21.88 L 15.83 21.92 L 15.92 21.96 L 16.0 22.0" fill="none" stroke="#111" stroke-width="1.26" stroke-linecap="round" stroke-linejoin="round"/>
<path d="M 7.0 9.0 L 7.71 8.96 L 8.42 8.92 L 9.12 8.88 L 9.83 8.83 L 10.54 8.79 L 11.25 8.75 L 11.96 8.71 L 12.67 8.67 L 13.38 8.62 L 14.08 8.58 L 14.79 8.54 L 15.5 8.5 L 16.21 8.46 L 16.92 8.42 L 17.62 8.38 L 18.33 8.33 L 19.04 8.29 L 19.75 8.25 L 20.46 8.21 L 21.17 8.17 L 21.88 8.12 L 22.58 8.08 L 23.29 8.04 L 24.0 8.0" fill="none" stroke="#111" stroke-width="1.26" stroke-linecap="round" stroke-linejoin="round"/>
<path d="M 24.0 4.0 L 22.81 4.51 L 21.67 5.13 L 20.59 5.84 L 19.57 6.65 L 18.63 7.54 L 17.78 8.52 L 17.01 9.57 L 16.35 10.68 L 15.78 11.84 L 15.32 13.05 L 14.96 14.3 L 14.72 15.57 L 14.6 16.86 L 14.59 18.16 L 14.69 19.45 L 14.91 20.73 L 15.24 21.98 L 15.68 23.2 L 16.23 24.38 L 16.88 25.5 L 17.63 26.56 L 18.47 27.55 L 19.39 28.46 L 20.39 29.28" fill="none" stroke="#111" stroke-width="1.26" stroke-linecap="round" stroke-linejoin="round"/>
<path d="M 16.0 32.0 L 16.29 32.0 L 16.58 32.0 L 16.88 32.0 L 17.17 32.0 L 17.46 32.0 L 17.75 32.0 L 18.04 32.0 L 18.33 32.0 L 18.62 32.0 L 18.92 32.0 L 19.21 32.0 L 19.5 32.0 L 19.79 32.0 L 20.08 32.0 L 20.38 32.0 L 20.67 32.0 L 20.96 32.0 L 21.25 32.0 L 21.54 32.0 L 21.83 32.0 L 22.12 32.0 L 22.42 32.0 L 22.71 32.0 L 23.0 32.0" fill="none" stroke="#111" stroke-width="1.26" stroke-linecap="round" stroke-linejoin="round"/>
</svg>
