<?xml version="1.0" encoding="UTF-8"?>
<svg xmlns="http://www.w3.org/2000/svg" viewBox="0 0 24.00 32.00">
<path d="M 12.0 5.0 L 12.0 5.62 L 12.0 6.25 L 12.0 6.88 L 12.0 7.5 L 12.0 8.12 L 12.0 8.75 L 12.0 9.38 L 12.0 10.0 L 12.0 10.62 L 12.0 11.25 L 12.0 11.88 L 12.0 12.5 L 12.0 13.12 L 12.0 13.75 L 12.0 14.38 L 12.0 15.0 L 12.0 15.62 L 12.0 16.25 L 12.0 16.88 L 12.0 17.5 L 12.0 18.12 L 12.0 18.75 L 12.0 19.38 L 12.0 20.0" fill="none" stroke="#111" stroke-width="1.12" stroke-linecap="round" stroke-linejoin="round"/>
<path d="M 11.0 4.0 L 10.71 4.04 L 10.42 4.08 L 10.12 4.12 L 9.83 4.17 L 9.54 4.21 L 9.25 4.25 L 8.96 4.29 L 8.67 4.33 L 8.38 4.38 L 8.08 4.42 L 7.79 4.46 L 7.5 4.5 L 7.21 4.54 L 6.92 4.58 L 6.62 4.63 L 6.33 4.67 L 6.04 4.71 L 5.75 4.75 L 5.46 4.79 L 5.17 4.83 L 4.88 4.88 L 4.58 4.92 L 4.29 4.96 L 4.0 5.0 L 4.0 5.0 L 4.0 5.96 L 4.0 6.92 L 4.0 7.88 L 4.0 8.83 L 4.0 9.79 L 4.0 10.75 L 4.0 11.71 L 4.0 12.67 L 4.0 13.62 L 4.0 14.58 L 4.0 15.54 L 4.0 16.5 L 4.0 17.46 L 4.0 18.42 L 4.0 19.38 L 4.0 20.33 L 4.0 21.29 L 4.0 22.25 L 4.0 23.21 L 4.0 24.17 L 4.0 25.12 L 4.0 26.08 L 4.0 27.04 L 4.0 28.0 L 4.0 28.0 L 4.67 28.0 L 5.33 28.0 L 6.0 28.0 L 6.67 28.0 L 7.33 28.0 L 8.0 28.0 L 8.67 28.0 L 9.33 28.0 L 10.0 28.0 L 10.67 28.0 L 11.33 28.0 L 12.0 28.0 L 12.67 28.0 L 13.33 28.0 L 14.0 28.0 L 14.67 28.0 L 15.33 28.0 L 16.0 28.0 L 16.67 28.0 L 17.33 28.0 L 18.0 28.0 L 18.67 28.0 L 19.33 28.0 L 20.0 28.0 L 20.0 28.0 L 20.0 27.67 L 20.0 27.33 L 20.0 27.0 L 20.0 26.67 L 20.0 26.33 L 20.0 26.0 L 20.0 25.67 L 20.0 25.33 L 20.0 25.0 L 20.0 24.67 L 20.0 24.33 L 20.0 24.0 L 20.0 23.67 L 20.0 23.33 L 20.0 23.0 L 20.0 22.67 L 20.0 22.33 L 20.0 22.0 L 20.0 21.67 L 20.0 21.33 L 20.0 21.0 L 20.0 20.67 L 20.0 20.33 L 20.0 20.0 L 20.0 20.0 L 19.32 19.76 L 18.63 19.57 L 17.93 19.43 L 17.22 19.34 L 16.5 19.3 L 15.78 19.31 L 15.07 19.37 L 14.36 19.47 L 13.66 19.63 L 12.97 19.83 L 12.3 20.09 L 11.65 20.38 L 11.02 20.73 L 10.41 21.11 L 9.84 21.54 L 9.29 22.01 L 8.78 22.51 L 8.3 23.05 L 7.87 23.62 L 7.47 24.21 L 7.12 24.84 L 6.81 25.49 L 6.54 26.15 L 6.33 26.84" fill="none" stroke="#111" stroke-width="1.12" stroke-linecap="round" stroke-linejoin="round"/>
<path d="M 4.0 13.0 L 4.29 13.0 L 4.58 13.0 L 4.88 13.0 L 5.17 13.0 L 5.46 13.0 L 5.75 13.0 L 6.04 13.0 L 6.33 13.0 L 6.62 13.0 L 6.92 13.0 L 7.21 13.0 L 7.5 13.0 L 7.79 13.0 L 8.08 13.0 L 8.38 13.0 L 8.67 13.0 L 8.96 13.0 L 9.25 13.0 L 9.54 13.0 L 9.83 13.0 L 10.12 13.0 L 10.42 13.0 L 10.71 13.0 L 11.0 13.0" fill="none" stroke="#111" stroke-width="1.12" stroke-linecap="round" stroke-linejoin="round"/>
<path d="M 8.0 5.0 L 8.0 5.83 L 8.0 6.67 L 8.0 7.5 L 8.0 8.33 L 8.0 9.17 L 8.0 10.0 L 8.0 10.83 L 8.0 11.67 L 8.0 12.5 L 8.0 13.33 L 8.0 14.17 L 8.0 15.0 L 8.0 15.83 L 8.0 16.67 L 8.0 17.5 L 8.0 18.33 L 8.0 19.17 L 8.0 20.0 L 8.0 20.83 L 8.0 21.67 L 8.0 22.5 L 8.0 23.33 L 8.0 24.17 L 8.0 25.0" fill="none" stroke="#111" stroke-width="1.12" stroke-linecap="round" stroke-linejoin="round"/>
<path d="M 11.0 23.0 L 11.38 23.04 L 11.75 23.08 L 12.12 23.12 L 12.5 23.17 L 12.88 23.21 L 13.25 23.25 L 13.62 23.29 L 14.0 23.33 L 14.38 23.38 L 14.75 23.42 L 15.12 23.46 L 15.5 23.5 L 15.88 23.54 L 16.25 23.58 L 16.62 23.62 L 17.0 23.67 L 17.38 23.71 L 17.75 23.75 L 18.12 23.79 L 18.5 23.83 L 18.88 23.88 L 19.25 23.92 L 19.62 23.96 L 20.0 24.0" fill="none" stroke="#111" stroke-width="1.12" stroke-linecap="round" stroke-linejoin="round"/>
<path d="M 15.0 20.0 L 15.0 20.33 L 15.0 20.67 L 15.0 21.0 L 15.0 21.33 L 15.0 21.67 L 15.0 22.0 L 15.0 22.33 L 15.0 22.67 L 15.0 23.0 L 15.0 23.33 L 15.0 23.67 L 15.0 24.0 L 15.0 24.33 L 15.0 24.67 L 15.0 25.0 L 15.0 25.33 L 15.0 25.67 L 15.0 26.0 L 15.0 26.33 L 15.0 26.67 L 15.0 27.0 L 15.0 27.33 L 15.0 27.67 L 15.0 28.0" fill="none" stroke="#111" stroke-width="1.12" stroke-linecap="round" stroke-linejoin="round"/>
</svg>
