<?xml version="1.0" encoding="UTF-8"?>
<svg xmlns="http://www.w3.org/2000/svg" viewBox="0 0 27.00 39.00">
<path d="M 11.0 12.0 L 10.96 12.83 L 10.91 13.67 L 10.87 14.5 L 10.83 15.33 L 10.79 16.17 L 10.75 17.0 L 10.71 17.83 L 10.66 18.67 L 10.62 19.5 L 10.58 20.33 L 10.54 21.17 L 10.5 22.0 L 10.46 22.83 L 10.41 23.67 L 10.37 24.5 L 10.33 25.33 L 10.29 26.17 L 10.25 27.0 L 10.21 27.83 L 10.16 28.67 L 10.12 29.5 L 10.08 30.33 L 10.04 31.17 L 10.0 32.0" fill="none" stroke="#111" stroke-width="1.37" stroke-linecap="round" stroke-linejoin="round"/>
<path d="M 20.0 4.0 L 19.96 5.29 L 19.91 6.58 L 19.87 7.88 L 19.83 9.17 L 19.79 10.46 L 19.75 11.75 L 19.71 13.04 L 19.66 14.33 L 19.62 15.62 L 19.58 16.92 L 19.54 18.21 L 19.5 19.5 L 19.46 20.79 L 19.41 22.08 L 19.37 23.38 L 19.33 24.67 L 19.29 25.96 L 19.25 27.25 L 19.21 28.54 L 19.16 29.83 L 19.12 31.13 L 19.08 32.42 L 19.04 33.71 L 19.0 35.0" fill="none" stroke="#111" stroke-width="1.37" stroke-linecap="round" stroke-linejoin="round"/>
<path d="M 17.0 8.0 L 17.08 7.88 L 17.16 7.75 L 17.25 7.62 L 17.33 7.5 L 17.41 7.38 L 17.5 7.25 L 17.58 7.12 L 17.66 7.0 L 17.75 6.88 L 17.83 6.75 L 17.91 6.62 L 18.0 6.5 L 18.08 6.38 L 18.16 6.25 L 18.25 6.12 L 18.33 6.0 L 18.41 5.88 L 18.5 5.75 L 18.58 5.62 L 18.66 5.5 L 18.75 5.38 L 18.83 5.25 L 18.91 5.12 L 19.0 5.0 L 19.0 5.0 L 19.16 5.17 L 19.33 5.33 L 19.5 5.5 L 19.66 5.67 L 19.83 5.83 L 20.0 6.0 L 20.16 6.17 L 20.33 6.33 L 20.5 6.5 L 20.66 6.67 L 20.83 6.83 L 21.0 7.0 L 21.16 7.17 L 21.33 7.33 L 21.5 7.5 L 21.66 7.67 L 21.83 7.83 L 22.0 8.0 L 22.16 8.17 L 22.33 8.33 L 22.5 8.5 L 22.66 8.67 L 22.83 8.83 L 23.0 9.0" fill="none" stroke="#111" stroke-width="1.37" stroke-linecap="round" stroke-linejoin="round"/>
<path d="M 11.0 13.0 L 11.33 13.0 L 11.66 13.0 L 12.0 13.0 L 12.33 13.0 L 12.66 13.0 L 13.0 13.0 L 13.33 13.0 L 13.66 13.0 L 14.0 13.0 L 14.33 13.0 L 14.66 13.0 L 15.0 13.0 L 15.33 13.0 L 15.66 13.0 L 16.0 13.0 L 16.33 13.0 L 16.66 13.0 L 17.0 13.0 L 17.33 13.0 L 17.66 13.0 L 18.0 13.0 L 18.33 13.0 L 18.66 13.0 L 19.0 13.0" fill="none" stroke="#111" stroke-width="1.37" stroke-linecap="round" stroke-linejoin="round"/>
<path d="M 7.0 18.0 L 6.63 18.29 L 6.29 18.62 L 5.98 18.98 L 5.72 19.37 L 5.49 19.78 L 5.3 20.21 L 5.15 20.66 L 5.05 21.12 L 4.99 21.59 L 4.98 22.06 L 5.01 22.53 L 5.09 23.0 L 5.22 23.45 L 5.39 23.89 L 5.6 24.31 L 5.85 24.71 L 6.13 25.09 L 6.46 25.43 L 6.81 25.74 L 7.19 26.02 L 7.6 26.26 L 8.03 26.45 L 8.48 26.61 L 8.93 26.72" fill="none" stroke="#111" stroke-width="1.37" stroke-linecap="round" stroke-linejoin="round"/>
<path d="M 10.0 21.0 L 9.7 21.56 L 9.41 22.13 L 9.12 22.69 L 8.84 23.26 L 8.56 23.83 L 8.28 24.4 L 8.01 24.98 L 7.74 25.55 L 7.48 26.13 L 7.22 26.71 L 6.96 27.29 L 6.71 27.87 L 6.46 28.46 L 6.22 29.04 L 5.98 29.63 L 5.74 30.22 L 5.51 30.81 L 5.28 31.4 L 5.06 32.0 L 4.84 32.6 L 4.62 33.19 L 4.41 33.79 L 4.2 34.39 L 4.0 34.99" fill="none" stroke="#111" stroke-width="1.37" stroke-linecap="round" stroke-linejoin="round"/>
<path d="M 14.0 16.0 L 14.12 16.04 L 14.25 16.08 L 14.37 16.12 L 14.5 16.17 L 14.62 16.21 L 14.75 16.25 L 14.87 16.29 L 15.0 16.33 L 15.12 16.38 L 15.25 16.42 L 15.37 16.46 L 15.5 16.5 L 15.62 16.54 L 15.75 16.58 L 15.87 16.62 L 16.0 16.67 L 16.12 16.71 L 16.25 16.75 L 16.37 16.79 L 16.5 16.83 L 16.62 16.88 L 16.75 16.92 L 16.87 16.96 L 17.0 17.0" fill="none" stroke="#111" stroke-width="1.37" stroke-linecap="round" stroke-linejoin="round"/>
<path d="M 11.0 21.0 L 11.33 21.0 L 11.66 21.0 L 12.0 21.0 L 12.33 21.0 L 12.66 21.0 L 13.0 21.0 L 13.33 21.0 L 13.66 21.0 L 14.0 21.0 L 14.33 21.0 L 14.66 21.0 L 15.0 21.0 L 15.33 21.0 L 15.66 21.0 L 16.0 21.0 L 16.33 21.0 L 16.66 21.0 L 17.0 21.0 L 17.33 21.0 L 17.66 21.0 L 18.0 21.0 L 18.33 21.0 L 18.66 21.0 L 19.0 21.0" fill="none" stroke="#111" stroke-width="1.37" stroke-linecap="round" stroke-linejoin="round"/>
<path d="M 15.0 21.0 L 14.83 21.29 L 14.66 21.58 L 14.5 21.88 L 14.33 22.17 L 14.16 22.46 L 14.0 22.75 L 13.83 23.04 L 13.66 23.33 L 13.5 23.62 L 13.33 23.92 L 13.16 24.21 L 13.0 24.5 L 12.83 24.79 L 12.66 25.08 L 12.5 25.38 L 12.33 25.67 L 12.16 25.96 L 12.0 26.25 L 11.83 26.54 L 11.66 26.83 L 11.5 27.12 L 11.33 27.42 L 11.16 27.71 L 11.0 28.0" fill="none" stroke="#111" stroke-width="1.37" stroke-linecap="round" stroke-linejoin="round"/>
<path d="M 16.0 21.0 L 16.12 21.29 L 16.25 21.58 L 16.37 21.88 L 16.5 22.17 L 16.62 22.46 L 16.75 22.75 L 16.87 23.04 L 17.0 23.33 L 17.12 23.62 L 17.25 23.92 L 17.37 24.21 L 17.5 24.5 L 17.62 24.79 L 17.75 25.08 L 17.87 25.38 L 18.0 25.67 L 18.12 25.96 L 18.25 26.25 L 18.37 26.54 L 18.5 26.83 L 18.62 27.12 L 18.75 27.42 L 18.87 27.71 L 19.0 28.0" fill="none" stroke="#111" stroke-width="1.37" stroke-linecap="round" stroke-linejoin="round"/>
</svg>
