<?xml version="1.0" encoding="UTF-8"?>
<svg xmlns="http://www.w3.org/2000/svg" viewBox="0 0 39.15 29.57">
<path d="M 21.2 4.0 L 21.47 4.29 L 21.76 4.55 L 22.06 4.8 L 22.38 5.04 L 22.71 5.25 L 23.05 5.44 L 23.4 5.61 L 23.76 5.76 L 24.14 5.88 L 24.52 5.98 L 24.9 6.06 L 25.29 6.12 L 25.68 6.15 L 26.07 6.16 L 26.46 6.14 L 26.85 6.1 L 27.24 6.03 L 27.62 5.95 L 28.0 5.84 L 28.37 5.7 L 28.73 5.55 L 29.08 5.37 L 29.41 5.17 L 29.74 4.95 L 30.2 5.0 L 30.59 5.28 L 30.97 5.58 L 31.33 5.89 L 31.68 6.22 L 32.02 6.56 L 32.34 6.92 L 32.65 7.29 L 32.94 7.67 L 33.21 8.06 L 33.47 8.47 L 33.71 8.88 L 33.94 9.31 L 34.14 9.74 L 34.33 10.18 L 34.5 10.63 L 34.65 11.09 L 34.78 11.55 L 34.89 12.02 L 34.98 12.49 L 35.05 12.97 L 35.11 13.44 L 35.14 13.92 L 35.15 14.4 L 35.14 14.88" fill="none" stroke="#111" stroke-width="1.37" stroke-linecap="round" stroke-linejoin="round"/>
<path d="M 20.2 10.0 L 20.35 10.4 L 20.53 10.79 L 20.76 11.16 L 21.03 11.49 L 21.33 11.8 L 21.66 12.08 L 22.01 12.31 L 22.4 12.51 L 22.8 12.67 L 23.21 12.78 L 23.63 12.85 L 24.06 12.87 L 24.49 12.85 L 24.92 12.78 L 25.33 12.67 L 25.73 12.51 L 26.11 12.31 L 26.47 12.08 L 26.8 11.8 L 27.1 11.49 L 27.36 11.16 L 27.59 10.79 L 27.78 10.4 L 27.92 10.0 L 28.2 10.0 L 28.45 10.08 L 28.7 10.17 L 28.95 10.25 L 29.2 10.33 L 29.45 10.42 L 29.7 10.5 L 29.95 10.58 L 30.2 10.67 L 30.45 10.75 L 30.7 10.83 L 30.95 10.92 L 31.2 11.0 L 31.45 11.08 L 31.7 11.17 L 31.95 11.25 L 32.2 11.33 L 32.45 11.42 L 32.7 11.5 L 32.95 11.58 L 33.2 11.67 L 33.45 11.75 L 33.7 11.83 L 33.95 11.92 L 34.2 12.0" fill="none" stroke="#111" stroke-width="1.37" stroke-linecap="round" stroke-linejoin="round"/>
<path d="M 29.2 5.0 L 30.0 6.72 L 30.55 8.54 L 30.85 10.41 L 30.89 12.31 L 30.67 14.19 L 30.2 16.03 L 29.48 17.79 L 28.53 19.43 L 27.37 20.93 L 26.01 22.26 L 24.49 23.38 L 22.82 24.3 L 21.05 24.97 L 19.2 25.4 L 17.31 25.57 L 15.42 25.49 L 13.55 25.14 L 11.75 24.55 L 10.04 23.71 L 8.47 22.66 L 7.05 21.39 L 5.82 19.95 L 4.8 18.35 L 4.0 16.63" fill="none" stroke="#111" stroke-width="1.37" stroke-linecap="round" stroke-linejoin="round"/>
<path d="M 24.2 18.0 L 24.41 17.92 L 24.62 17.83 L 24.83 17.75 L 25.04 17.67 L 25.24 17.58 L 25.45 17.5 L 25.66 17.42 L 25.87 17.33 L 26.08 17.25 L 26.29 17.17 L 26.49 17.08 L 26.7 17.0 L 26.91 16.92 L 27.12 16.83 L 27.33 16.75 L 27.54 16.67 L 27.74 16.58 L 27.95 16.5 L 28.16 16.42 L 28.37 16.33 L 28.58 16.25 L 28.79 16.17 L 28.99 16.08 L 29.2 16.0" fill="none" stroke="#111" stroke-width="1.37" stroke-linecap="round" stroke-linejoin="round"/>
<path d="M 23.2 21.0 L 23.24 21.12 L 23.29 21.25 L 23.33 21.38 L 23.37 21.5 L 23.41 21.62 L 23.45 21.75 L 23.49 21.88 L 23.54 22.0 L 23.58 22.12 L 23.62 22.25 L 23.66 22.38 L 23.7 22.5 L 23.74 22.62 L 23.79 22.75 L 23.83 22.88 L 23.87 23.0 L 23.91 23.12 L 23.95 23.25 L 23.99 23.38 L 24.04 23.5 L 24.08 23.62 L 24.12 23.75 L 24.16 23.88 L 24.2 24.0" fill="none" stroke="#111" stroke-width="1.37" stroke-linecap="round" stroke-linejoin="round"/>
</svg>
