<?xml version="1.0" encoding="UTF-8"?>
<svg xmlns="http://www.w3.org/2000/svg" viewBox="0 0 27.96 37.94">
<path d="M 13.27 4.0 L 12.39 4.18 L 11.54 4.43 L 10.7 4.75 L 9.9 5.13 L 9.12 5.58 L 8.39 6.09 L 7.7 6.66 L 7.06 7.28 L 6.47 7.95 L 5.93 8.67 L 5.46 9.42 L 5.05 10.21 L 4.7 11.04 L 4.42 11.88 L 4.21 12.75 L 4.07 13.63 L 4.0 14.52 L 4.0 15.42 L 4.08 16.31 L 4.22 17.19 L 4.44 18.05 L 4.73 18.9 L 5.08 19.72 L 5.5 20.51" fill="none" stroke="#111" stroke-width="1.33" stroke-linecap="round" stroke-linejoin="round"/>
<path d="M 14.27 4.0 L 15.25 4.36 L 16.2 4.8 L 17.11 5.3 L 17.99 5.87 L 18.82 6.51 L 19.6 7.2 L 20.33 7.95 L 21.0 8.75 L 21.61 9.6 L 22.15 10.49 L 22.63 11.42 L 23.04 12.38 L 23.37 13.37 L 23.64 14.38 L 23.82 15.41 L 23.93 16.45 L 23.96 17.49 L 23.92 18.54 L 23.8 19.57 L 23.6 20.6 L 23.32 21.61 L 22.98 22.59 L 22.56 23.55 L 22.07 24.47" fill="none" stroke="#111" stroke-width="1.33" stroke-linecap="round" stroke-linejoin="round"/>
<path d="M 9.27 10.0 L 9.35 10.0 L 9.43 10.0 L 9.52 10.0 L 9.6 10.0 L 9.68 10.0 L 9.77 10.0 L 9.85 10.0 L 9.93 10.0 L 10.02 10.0 L 10.1 10.0 L 10.18 10.0 L 10.27 10.0 L 10.35 10.0 L 10.43 10.0 L 10.52 10.0 L 10.6 10.0 L 10.68 10.0 L 10.77 10.0 L 10.85 10.0 L 10.93 10.0 L 11.02 10.0 L 11.1 10.0 L 11.18 10.0 L 11.27 10.0" fill="none" stroke="#111" stroke-width="1.33" stroke-linecap="round" stroke-linejoin="round"/>
<path d="M 10.27 11.0 L 10.27 11.33 L 10.27 11.67 L 10.27 12.0 L 10.27 12.33 L 10.27 12.67 L 10.27 13.0 L 10.27 13.33 L 10.27 13.67 L 10.27 14.0 L 10.27 14.33 L 10.27 14.67 L 10.27 15.0 L 10.27 15.33 L 10.27 15.67 L 10.27 16.0 L 10.27 16.33 L 10.27 16.67 L 10.27 17.0 L 10.27 17.33 L 10.27 17.67 L 10.27 18.0 L 10.27 18.33 L 10.27 18.67 L 10.27 19.0" fill="none" stroke="#111" stroke-width="1.33" stroke-linecap="round" stroke-linejoin="round"/>
<path d="M 8.27 19.0 L 8.48 19.04 L 8.68 19.08 L 8.89 19.12 L 9.1 19.17 L 9.31 19.21 L 9.52 19.25 L 9.73 19.29 L 9.93 19.33 L 10.14 19.38 L 10.35 19.42 L 10.56 19.46 L 10.77 19.5 L 10.98 19.54 L 11.18 19.58 L 11.39 19.62 L 11.6 19.67 L 11.81 19.71 L 12.02 19.75 L 12.23 19.79 L 12.43 19.83 L 12.64 19.88 L 12.85 19.92 L 13.06 19.96 L 13.27 20.0" fill="none" stroke="#111" stroke-width="1.33" stroke-linecap="round" stroke-linejoin="round"/>
<path d="M 15.27 11.0 L 15.39 10.96 L 15.52 10.92 L 15.64 10.88 L 15.77 10.83 L 15.89 10.79 L 16.02 10.75 L 16.14 10.71 L 16.27 10.67 L 16.39 10.62 L 16.52 10.58 L 16.64 10.54 L 16.77 10.5 L 16.89 10.46 L 17.02 10.42 L 17.14 10.38 L 17.27 10.33 L 17.39 10.29 L 17.52 10.25 L 17.64 10.21 L 17.77 10.17 L 17.89 10.12 L 18.02 10.08 L 18.14 10.04 L 18.27 10.0" fill="none" stroke="#111" stroke-width="1.33" stroke-linecap="round" stroke-linejoin="round"/>
<path d="M 17.27 11.0 L 17.27 11.38 L 17.27 11.75 L 17.27 12.12 L 17.27 12.5 L 17.27 12.88 L 17.27 13.25 L 17.27 13.62 L 17.27 14.0 L 17.27 14.38 L 17.27 14.75 L 17.27 15.12 L 17.27 15.5 L 17.27 15.88 L 17.27 16.25 L 17.27 16.62 L 17.27 17.0 L 17.27 17.38 L 17.27 17.75 L 17.27 18.12 L 17.27 18.5 L 17.27 18.88 L 17.27 19.25 L 17.27 19.62 L 17.27 20.0" fill="none" stroke="#111" stroke-width="1.33" stroke-linecap="round" stroke-linejoin="round"/>
<path d="M 15.27 20.0 L 15.39 19.96 L 15.52 19.92 L 15.64 19.88 L 15.77 19.83 L 15.89 19.79 L 16.02 19.75 L 16.14 19.71 L 16.27 19.67 L 16.39 19.62 L 16.52 19.58 L 16.64 19.54 L 16.77 19.5 L 16.89 19.46 L 17.02 19.42 L 17.14 19.38 L 17.27 19.33 L 17.39 19.29 L 17.52 19.25 L 17.64 19.21 L 17.77 19.17 L 17.89 19.12 L 18.02 19.08 L 18.14 19.04 L 18.27 19.0" fill="none" stroke="#111" stroke-width="1.33" stroke-linecap="round" stroke-linejoin="round"/>
<path d="M 10.27 21.0 L 9.99 21.49 L 9.73 21.98 L 9.49 22.48 L 9.26 22.99 L 9.05 23.51 L 8.86 24.03 L 8.68 24.56 L 8.52 25.09 L 8.37 25.63 L 8.24 26.17 L 8.13 26.72 L 8.04 27.27 L 7.96 27.82 L 7.9 28.38 L 7.86 28.93 L 7.84 29.49 L 7.83 30.05 L 7.84 30.6 L 7.87 31.16 L 7.92 31.72 L 7.98 32.27 L 8.06 32.82 L 8.16 33.37 L 8.28 33.92" fill="none" stroke="#111" stroke-width="1.33" stroke-linecap="round" stroke-linejoin="round"/>
<path d="M 7.27 21.0 L 7.31 21.34 L 7.37 21.67 L 7.44 22.0 L 7.54 22.33 L 7.64 22.65 L 7.77 22.97 L 7.91 23.28 L 8.06 23.58 L 8.23 23.88 L 8.41 24.16 L 8.61 24.44 L 8.82 24.71 L 9.05 24.96 L 9.28 25.21 L 9.53 25.44 L 9.79 25.66 L 10.06 25.87 L 10.34 26.06 L 10.63 26.24 L 10.93 26.4 L 11.23 26.55 L 11.55 26.69 L 11.87 26.8 L 12.19 26.91" fill="none" stroke="#111" stroke-width="1.33" stroke-linecap="round" stroke-linejoin="round"/>
<path d="M 16.27 23.0 L 16.59 23.38 L 16.9 23.77 L 17.2 24.16 L 17.48 24.57 L 17.76 24.98 L 18.02 25.41 L 18.26 25.84 L 18.5 26.27 L 18.71 26.72 L 18.92 27.17 L 19.11 27.63 L 19.29 28.09 L 19.45 28.56 L 19.6 29.04 L 19.73 29.52 L 19.85 30.0 L 19.95 30.48 L 20.04 30.97 L 20.11 31.46 L 20.17 31.96 L 20.21 32.45 L 20.24 32.95 L 20.25 33.44 L 20.24 33.94" fill="none" stroke="#111" stroke-width="1.33" stroke-linecap="round" stroke-linejoin="round"/>
<path d="M 18.27 22.0 L 18.35 22.23 L 18.42 22.46 L 18.47 22.7 L 18.51 22.94 L 18.54 23.18 L 18.55 23.42 L 18.54 23.66 L 18.52 23.91 L 18.48 24.15 L 18.42 24.38 L 18.36 24.62 L 18.27 24.84 L 18.18 25.07 L 18.06 25.28 L 17.94 25.49 L 17.8 25.69 L 17.65 25.88 L 17.49 26.06 L 17.32 26.23 L 17.13 26.39 L 16.94 26.54 L 16.74 26.67 L 16.53 26.79 L 16.31 26.9" fill="none" stroke="#111" stroke-width="1.33" stroke-linecap="round" stroke-linejoin="round"/>
</svg>
