<?xml version="1.0" encoding="UTF-8"?>
<svg xmlns="http://www.w3.org/2000/svg" viewBox="0 0 23.87 38.00">
<path d="M 11.9 4.0 L 11.9 5.25 L 11.9 6.5 L 11.9 7.75 L 11.9 9.0 L 11.9 10.25 L 11.9 11.5 L 11.9 12.75 L 11.9 14.0 L 11.9 15.25 L 11.9 16.5 L 11.9 17.75 L 11.9 19.0 L 11.9 20.25 L 11.9 21.5 L 11.9 22.75 L 11.9 24.0 L 11.9 25.25 L 11.9 26.5 L 11.9 27.75 L 11.9 29.0 L 11.9 30.25 L 11.9 31.5 L 11.9 32.75 L 11.9 34.0" fill="none" stroke="#111" stroke-width="1.33" stroke-linecap="round" stroke-linejoin="round"/>
<path d="M 8.9 6.0 L 9.03 6.21 L 9.15 6.42 L 9.28 6.62 L 9.4 6.83 L 9.53 7.04 L 9.65 7.25 L 9.78 7.46 L 9.9 7.67 L 10.03 7.88 L 10.15 8.08 L 10.28 8.29 L 10.4 8.5 L 10.53 8.71 L 10.65 8.92 L 10.78 9.12 L 10.9 9.33 L 11.03 9.54 L 11.15 9.75 L 11.28 9.96 L 11.4 10.17 L 11.53 10.38 L 11.65 10.58 L 11.78 10.79 L 11.9 11.0 L 11.9 11.0 L 12.11 10.75 L 12.32 10.5 L 12.53 10.25 L 12.74 10.0 L 12.94 9.75 L 13.15 9.5 L 13.36 9.25 L 13.57 9.0 L 13.78 8.75 L 13.99 8.5 L 14.19 8.25 L 14.4 8.0 L 14.61 7.75 L 14.82 7.5 L 15.03 7.25 L 15.24 7.0 L 15.44 6.75 L 15.65 6.5 L 15.86 6.25 L 16.07 6.0 L 16.28 5.75 L 16.49 5.5 L 16.69 5.25 L 16.9 5.0" fill="none" stroke="#111" stroke-width="1.33" stroke-linecap="round" stroke-linejoin="round"/>
<path d="M 10.9 13.0 L 10.37 13.28 L 9.84 13.58 L 9.34 13.9 L 8.85 14.26 L 8.37 14.63 L 7.92 15.03 L 7.49 15.45 L 7.08 15.89 L 6.69 16.35 L 6.32 16.83 L 5.98 17.33 L 5.66 17.84 L 5.37 18.37 L 5.11 18.92 L 4.87 19.47 L 4.66 20.04 L 4.48 20.61 L 4.32 21.2 L 4.2 21.79 L 4.11 22.38 L 4.04 22.98 L 4.01 23.58 L 4.0 24.19 L 4.02 24.79" fill="none" stroke="#111" stroke-width="1.33" stroke-linecap="round" stroke-linejoin="round"/>
<path d="M 6.9 11.0 L 6.99 11.42 L 7.07 11.83 L 7.15 12.25 L 7.24 12.67 L 7.32 13.08 L 7.4 13.5 L 7.49 13.92 L 7.57 14.33 L 7.65 14.75 L 7.74 15.17 L 7.82 15.58 L 7.9 16.0 L 7.99 16.42 L 8.07 16.83 L 8.15 17.25 L 8.24 17.67 L 8.32 18.08 L 8.4 18.5 L 8.49 18.92 L 8.57 19.33 L 8.65 19.75 L 8.74 20.17 L 8.82 20.58 L 8.9 21.0" fill="none" stroke="#111" stroke-width="1.33" stroke-linecap="round" stroke-linejoin="round"/>
<path d="M 16.9 9.0 L 17.12 9.42 L 17.31 9.85 L 17.47 10.3 L 17.6 10.75 L 17.7 11.21 L 17.76 11.68 L 17.8 12.15 L 17.81 12.62 L 17.78 13.09 L 17.72 13.56 L 17.63 14.03 L 17.51 14.48 L 17.36 14.93 L 17.18 15.37 L 16.97 15.79 L 16.73 16.2 L 16.47 16.59 L 16.18 16.96 L 15.87 17.32 L 15.53 17.65 L 15.17 17.95 L 14.79 18.24 L 14.4 18.5 L 13.99 18.73" fill="none" stroke="#111" stroke-width="1.33" stroke-linecap="round" stroke-linejoin="round"/>
<path d="M 14.9 12.0 L 15.29 12.39 L 15.66 12.8 L 16.02 13.22 L 16.36 13.65 L 16.7 14.09 L 17.01 14.55 L 17.31 15.01 L 17.6 15.48 L 17.87 15.96 L 18.12 16.45 L 18.36 16.95 L 18.58 17.46 L 18.78 17.97 L 18.97 18.49 L 19.14 19.02 L 19.29 19.55 L 19.42 20.08 L 19.54 20.62 L 19.64 21.16 L 19.72 21.71 L 19.79 22.26 L 19.83 22.81 L 19.86 23.36 L 19.87 23.91" fill="none" stroke="#111" stroke-width="1.33" stroke-linecap="round" stroke-linejoin="round"/>
<path d="M 6.9 30.0 L 7.11 29.75 L 7.32 29.5 L 7.53 29.25 L 7.74 29.0 L 7.94 28.75 L 8.15 28.5 L 8.36 28.25 L 8.57 28.0 L 8.78 27.75 L 8.99 27.5 L 9.19 27.25 L 9.4 27.0 L 9.61 26.75 L 9.82 26.5 L 10.03 26.25 L 10.24 26.0 L 10.44 25.75 L 10.65 25.5 L 10.86 25.25 L 11.07 25.0 L 11.28 24.75 L 11.49 24.5 L 11.69 24.25 L 11.9 24.0 L 11.9 24.0 L 12.07 24.21 L 12.24 24.42 L 12.4 24.62 L 12.57 24.83 L 12.74 25.04 L 12.9 25.25 L 13.07 25.46 L 13.24 25.67 L 13.4 25.88 L 13.57 26.08 L 13.74 26.29 L 13.9 26.5 L 14.07 26.71 L 14.24 26.92 L 14.4 27.12 L 14.57 27.33 L 14.74 27.54 L 14.9 27.75 L 15.07 27.96 L 15.24 28.17 L 15.4 28.38 L 15.57 28.58 L 15.74 28.79 L 15.9 29.0" fill="none" stroke="#111" stroke-width="1.33" stroke-linecap="round" stroke-linejoin="round"/>
<path d="M 7.9 32.0 L 8.18 31.57 L 8.49 31.17 L 8.85 30.81 L 9.23 30.47 L 9.65 30.18 L 10.09 29.93 L 10.55 29.72 L 11.03 29.55 L 11.53 29.43 L 12.03 29.36 L 12.54 29.34 L 13.05 29.37 L 13.55 29.44 L 14.04 29.56 L 14.52 29.73 L 14.98 29.95 L 15.42 30.2 L 15.83 30.5 L 16.22 30.84 L 16.57 31.21 L 16.88 31.61 L 17.15 32.04 L 17.38 32.49 L 17.56 32.97" fill="none" stroke="#111" stroke-width="1.33" stroke-linecap="round" stroke-linejoin="round"/>
</svg>
