<?xml version="1.0" encoding="UTF-8"?>
<svg xmlns="http://www.w3.org/2000/svg" viewBox="0 0 28.00 33.96">
<path d="M 5.0 10.96 L 5.23 10.04 L 5.56 9.16 L 5.98 8.31 L 6.49 7.52 L 7.09 6.78 L 7.77 6.12 L 8.51 5.54 L 9.32 5.04 L 10.17 4.63 L 11.06 4.32 L 11.99 4.11 L 12.93 4.0 L 13.87 4.0 L 14.81 4.1 L 15.74 4.3 L 16.63 4.61 L 17.49 5.01 L 18.3 5.5 L 19.04 6.08 L 19.72 6.74 L 20.33 7.47 L 20.85 8.26 L 21.28 9.1 L 21.61 9.98" fill="none" stroke="#111" stroke-width="1.19" stroke-linecap="round" stroke-linejoin="round"/>
<path d="M 4.0 16.96 L 4.25 16.75 L 4.5 16.55 L 4.75 16.34 L 5.0 16.13 L 5.25 15.92 L 5.5 15.71 L 5.75 15.5 L 6.0 15.3 L 6.25 15.09 L 6.5 14.88 L 6.75 14.67 L 7.0 14.46 L 7.25 14.25 L 7.5 14.05 L 7.75 13.84 L 8.0 13.63 L 8.25 13.42 L 8.5 13.21 L 8.75 13.0 L 9.0 12.8 L 9.25 12.59 L 9.5 12.38 L 9.75 12.17 L 10.0 11.96 L 10.0 11.96 L 10.04 12.55 L 10.08 13.13 L 10.12 13.71 L 10.17 14.3 L 10.21 14.88 L 10.25 15.46 L 10.29 16.05 L 10.33 16.63 L 10.38 17.21 L 10.42 17.8 L 10.46 18.38 L 10.5 18.96 L 10.54 19.55 L 10.58 20.13 L 10.62 20.71 L 10.67 21.3 L 10.71 21.88 L 10.75 22.46 L 10.79 23.05 L 10.83 23.63 L 10.88 24.21 L 10.92 24.8 L 10.96 25.38 L 11.0 25.96 L 11.0 25.96 L 11.46 26.13 L 11.92 26.3 L 12.38 26.46 L 12.83 26.63 L 13.29 26.8 L 13.75 26.96 L 14.21 27.13 L 14.67 27.3 L 15.12 27.46 L 15.58 27.63 L 16.04 27.8 L 16.5 27.96 L 16.96 28.13 L 17.42 28.3 L 17.88 28.46 L 18.33 28.63 L 18.79 28.8 L 19.25 28.96 L 19.71 29.13 L 20.17 29.3 L 20.62 29.46 L 21.08 29.63 L 21.54 29.8 L 22.0 29.96" fill="none" stroke="#111" stroke-width="1.19" stroke-linecap="round" stroke-linejoin="round"/>
<path d="M 18.0 27.96 L 18.0 27.3 L 18.0 26.63 L 18.0 25.96 L 18.0 25.3 L 18.0 24.63 L 18.0 23.96 L 18.0 23.3 L 18.0 22.63 L 18.0 21.96 L 18.0 21.3 L 18.0 20.63 L 18.0 19.96 L 18.0 19.3 L 18.0 18.63 L 18.0 17.96 L 18.0 17.3 L 18.0 16.63 L 18.0 15.96 L 18.0 15.3 L 18.0 14.63 L 18.0 13.96 L 18.0 13.3 L 18.0 12.63 L 18.0 11.96 L 18.0 11.96 L 18.25 12.09 L 18.5 12.21 L 18.75 12.34 L 19.0 12.46 L 19.25 12.59 L 19.5 12.71 L 19.75 12.84 L 20.0 12.96 L 20.25 13.09 L 20.5 13.21 L 20.75 13.34 L 21.0 13.46 L 21.25 13.59 L 21.5 13.71 L 21.75 13.84 L 22.0 13.96 L 22.25 14.09 L 22.5 14.21 L 22.75 14.34 L 23.0 14.46 L 23.25 14.59 L 23.5 14.71 L 23.75 14.84 L 24.0 14.96" fill="none" stroke="#111" stroke-width="1.19" stroke-linecap="round" stroke-linejoin="round"/>
<path d="M 11.0 10.96 L 11.29 11.13 L 11.58 11.3 L 11.88 11.46 L 12.17 11.63 L 12.46 11.8 L 12.75 11.96 L 13.04 12.13 L 13.33 12.3 L 13.62 12.46 L 13.92 12.63 L 14.21 12.8 L 14.5 12.96 L 14.79 13.13 L 15.08 13.3 L 15.38 13.46 L 15.67 13.63 L 15.96 13.8 L 16.25 13.96 L 16.54 14.13 L 16.83 14.3 L 17.12 14.46 L 17.42 14.63 L 17.71 14.8 L 18.0 14.96" fill="none" stroke="#111" stroke-width="1.19" stroke-linecap="round" stroke-linejoin="round"/>
<path d="M 10.0 16.96 L 10.38 17.13 L 10.75 17.3 L 11.12 17.46 L 11.5 17.63 L 11.88 17.8 L 12.25 17.96 L 12.62 18.13 L 13.0 18.3 L 13.38 18.46 L 13.75 18.63 L 14.12 18.8 L 14.5 18.96 L 14.88 19.13 L 15.25 19.3 L 15.62 19.46 L 16.0 19.63 L 16.38 19.8 L 16.75 19.96 L 17.12 20.13 L 17.5 20.3 L 17.88 20.46 L 18.25 20.63 L 18.62 20.8 L 19.0 20.96" fill="none" stroke="#111" stroke-width="1.19" stroke-linecap="round" stroke-linejoin="round"/>
<path d="M 11.0 21.96 L 11.25 22.09 L 11.5 22.21 L 11.75 22.34 L 12.0 22.46 L 12.25 22.59 L 12.5 22.71 L 12.75 22.84 L 13.0 22.96 L 13.25 23.09 L 13.5 23.21 L 13.75 23.34 L 14.0 23.46 L 14.25 23.59 L 14.5 23.71 L 14.75 23.84 L 15.0 23.96 L 15.25 24.09 L 15.5 24.21 L 15.75 24.34 L 16.0 24.46 L 16.25 24.59 L 16.5 24.71 L 16.75 24.84 L 17.0 24.96" fill="none" stroke="#111" stroke-width="1.19" stroke-linecap="round" stroke-linejoin="round"/>
<path d="M 17.0 11.96 L 16.71 12.17 L 16.42 12.38 L 16.12 12.59 L 15.83 12.8 L 15.54 13.0 L 15.25 13.21 L 14.96 13.42 L 14.67 13.63 L 14.38 13.84 L 14.08 14.05 L 13.79 14.25 L 13.5 14.46 L 13.21 14.67 L 12.92 14.88 L 12.62 15.09 L 12.33 15.3 L 12.04 15.5 L 11.75 15.71 L 11.46 15.92 L 11.17 16.13 L 10.88 16.34 L 10.58 16.55 L 10.29 16.75 L 10.0 16.96" fill="none" stroke="#111" stroke-width="1.19" stroke-linecap="round" stroke-linejoin="round"/>
<path d="M 18.0 14.96 L 17.71 15.25 L 17.42 15.55 L 17.12 15.84 L 16.83 16.13 L 16.54 16.42 L 16.25 16.71 L 15.96 17.0 L 15.67 17.3 L 15.38 17.59 L 15.08 17.88 L 14.79 18.17 L 14.5 18.46 L 14.21 18.75 L 13.92 19.05 L 13.62 19.34 L 13.33 19.63 L 13.04 19.92 L 12.75 20.21 L 12.46 20.5 L 12.17 20.8 L 11.88 21.09 L 11.58 21.38 L 11.29 21.67 L 11.0 21.96" fill="none" stroke="#111" stroke-width="1.19" stroke-linecap="round" stroke-linejoin="round"/>
<path d="M 19.0 20.96 L 18.75 21.17 L 18.5 21.38 L 18.25 21.59 L 18.0 21.8 L 17.75 22.0 L 17.5 22.21 L 17.25 22.42 L 17.0 22.63 L 16.75 22.84 L 16.5 23.05 L 16.25 23.25 L 16.0 23.46 L 15.75 23.67 L 15.5 23.88 L 15.25 24.09 L 15.0 24.3 L 14.75 24.5 L 14.5 24.71 L 14.25 24.92 L 14.0 25.13 L 13.75 25.34 L 13.5 25.55 L 13.25 25.75 L 13.0 25.96" fill="none" stroke="#111" stroke-width="1.19" stroke-linecap="round" stroke-linejoin="round"/>
</svg>
