<?xml version="1.0" encoding="UTF-8"?>
<svg xmlns="http://www.w3.org/2000/svg" viewBox="0 0 27.16 46.00">
<path d="M 4.0 16.11 L 4.5 16.15 L 5.0 16.2 L 5.5 16.24 L 6.0 16.28 L 6.5 16.32 L 7.0 16.36 L 7.5 16.4 L 8.0 16.45 L 8.5 16.49 L 9.0 16.53 L 9.5 16.57 L 10.0 16.61 L 10.5 16.65 L 11.0 16.7 L 11.5 16.74 L 12.0 16.78 L 12.5 16.82 L 13.0 16.86 L 13.5 16.9 L 14.0 16.95 L 14.5 16.99 L 15.0 17.03 L 15.5 17.07 L 16.0 17.11" fill="none" stroke="#111" stroke-width="1.61" stroke-linecap="round" stroke-linejoin="round"/>
<path d="M 7.0 17.11 L 7.12 17.36 L 7.25 17.61 L 7.38 17.86 L 7.5 18.11 L 7.62 18.36 L 7.75 18.61 L 7.88 18.86 L 8.0 19.11 L 8.12 19.36 L 8.25 19.61 L 8.38 19.86 L 8.5 20.11 L 8.62 20.36 L 8.75 20.61 L 8.88 20.86 L 9.0 21.11 L 9.12 21.36 L 9.25 21.61 L 9.38 21.86 L 9.5 22.11 L 9.62 22.36 L 9.75 22.61 L 9.88 22.86 L 10.0 23.11 L 10.0 23.11 L 10.21 22.82 L 10.42 22.53 L 10.62 22.24 L 10.83 21.95 L 11.04 21.65 L 11.25 21.36 L 11.46 21.07 L 11.67 20.78 L 11.88 20.49 L 12.08 20.2 L 12.29 19.9 L 12.5 19.61 L 12.71 19.32 L 12.92 19.03 L 13.12 18.74 L 13.33 18.45 L 13.54 18.15 L 13.75 17.86 L 13.96 17.57 L 14.17 17.28 L 14.38 16.99 L 14.58 16.7 L 14.79 16.4 L 15.0 16.11" fill="none" stroke="#111" stroke-width="1.61" stroke-linecap="round" stroke-linejoin="round"/>
<path d="M 10.0 23.11 L 10.0 23.82 L 10.0 24.53 L 10.0 25.24 L 10.0 25.95 L 10.0 26.65 L 10.0 27.36 L 10.0 28.07 L 10.0 28.78 L 10.0 29.49 L 10.0 30.2 L 10.0 30.9 L 10.0 31.61 L 10.0 32.32 L 10.0 33.03 L 10.0 33.74 L 10.0 34.45 L 10.0 35.15 L 10.0 35.86 L 10.0 36.57 L 10.0 37.28 L 10.0 37.99 L 10.0 38.7 L 10.0 39.4 L 10.0 40.11" fill="none" stroke="#111" stroke-width="1.61" stroke-linecap="round" stroke-linejoin="round"/>
<path d="M 14.0 12.11 L 12.62 11.51 L 11.54 10.44 L 10.93 9.06 L 10.85 7.56 L 11.32 6.12 L 12.29 4.96 L 13.6 4.21 L 15.1 4.0 L 16.57 4.34 L 17.82 5.19 L 18.68 6.43 L 19.03 7.9 L 18.83 9.4 L 18.1 10.72 L 16.94 11.69 L 15.51 12.18 L 14.0 12.11 L 12.61 11.51 L 11.54 10.44 L 10.93 9.06 L 10.85 7.55 L 11.33 6.12 L 12.29 4.95 L 13.61 4.21" fill="none" stroke="#111" stroke-width="1.61" stroke-linecap="round" stroke-linejoin="round"/>
<path d="M 19.0 28.11 L 19.39 28.59 L 19.77 29.09 L 20.13 29.59 L 20.47 30.11 L 20.79 30.64 L 21.09 31.18 L 21.37 31.74 L 21.64 32.3 L 21.88 32.87 L 22.1 33.45 L 22.3 34.03 L 22.48 34.63 L 22.64 35.23 L 22.78 35.83 L 22.9 36.44 L 23.0 37.05 L 23.07 37.67 L 23.12 38.29 L 23.15 38.91 L 23.16 39.53 L 23.14 40.15 L 23.11 40.76 L 23.05 41.38 L 22.97 42.0" fill="none" stroke="#111" stroke-width="1.61" stroke-linecap="round" stroke-linejoin="round"/>
<path d="M 21.0 25.11 L 21.25 25.49 L 21.47 25.89 L 21.65 26.3 L 21.8 26.73 L 21.92 27.17 L 22.01 27.62 L 22.06 28.07 L 22.07 28.52 L 22.05 28.97 L 21.99 29.42 L 21.9 29.87 L 21.77 30.3 L 21.61 30.73 L 21.42 31.14 L 21.2 31.53 L 20.94 31.91 L 20.66 32.26 L 20.35 32.59 L 20.01 32.9 L 19.66 33.18 L 19.28 33.43 L 18.88 33.65 L 18.47 33.83 L 18.04 33.99" fill="none" stroke="#111" stroke-width="1.61" stroke-linecap="round" stroke-linejoin="round"/>
</svg>
