<?xml version="1.0" encoding="UTF-8"?>
<svg xmlns="http://www.w3.org/2000/svg" viewBox="0 0 22.20 61.01">
<path d="M 6.2 4.0 L 6.66 4.0 L 7.12 4.0 L 7.58 4.0 L 8.04 4.0 L 8.49 4.0 L 8.95 4.0 L 9.41 4.0 L 9.87 4.0 L 10.33 4.0 L 10.79 4.0 L 11.24 4.0 L 11.7 4.0 L 12.16 4.0 L 12.62 4.0 L 13.08 4.0 L 13.54 4.0 L 13.99 4.0 L 14.45 4.0 L 14.91 4.0 L 15.37 4.0 L 15.83 4.0 L 16.29 4.0 L 16.74 4.0 L 17.2 4.0" fill="none" stroke="#111" stroke-width="2.14" stroke-linecap="round" stroke-linejoin="round"/>
<path d="M 10.2 33.0 L 10.08 33.33 L 9.95 33.67 L 9.83 34.0 L 9.7 34.33 L 9.58 34.67 L 9.45 35.0 L 9.33 35.33 L 9.2 35.67 L 9.08 36.0 L 8.95 36.33 L 8.83 36.67 L 8.7 37.0 L 8.58 37.33 L 8.45 37.67 L 8.33 38.0 L 8.2 38.33 L 8.08 38.67 L 7.95 39.0 L 7.83 39.33 L 7.7 39.67 L 7.58 40.0 L 7.45 40.33 L 7.33 40.67 L 7.2 41.0 L 7.2 41.0 L 7.48 41.67 L 7.72 42.35 L 7.93 43.05 L 8.1 43.75 L 8.23 44.47 L 8.33 45.19 L 8.39 45.91 L 8.42 46.63 L 8.4 47.36 L 8.35 48.08 L 8.27 48.8 L 8.14 49.52 L 7.98 50.22 L 7.79 50.92 L 7.55 51.61 L 7.29 52.28 L 6.99 52.94 L 6.65 53.59 L 6.29 54.21 L 5.89 54.82 L 5.46 55.4 L 5.0 55.96 L 4.51 56.5 L 4.0 57.01" fill="none" stroke="#111" stroke-width="2.14" stroke-linecap="round" stroke-linejoin="round"/>
<path d="M 11.2 33.0 L 11.71 33.5 L 12.19 34.04 L 12.64 34.6 L 13.05 35.18 L 13.43 35.79 L 13.77 36.42 L 14.08 37.07 L 14.35 37.73 L 14.58 38.41 L 14.77 39.1 L 14.92 39.8 L 15.03 40.51 L 15.1 41.22 L 15.12 41.93 L 15.11 42.65 L 15.05 43.36 L 14.96 44.07 L 14.82 44.78 L 14.64 45.47 L 14.42 46.15 L 14.16 46.82 L 13.87 47.47 L 13.54 48.11 L 13.17 48.72 L 13.2 49.0 L 13.41 49.29 L 13.62 49.58 L 13.83 49.88 L 14.04 50.17 L 14.24 50.46 L 14.45 50.75 L 14.66 51.04 L 14.87 51.33 L 15.08 51.62 L 15.29 51.92 L 15.49 52.21 L 15.7 52.5 L 15.91 52.79 L 16.12 53.08 L 16.33 53.38 L 16.54 53.67 L 16.74 53.96 L 16.95 54.25 L 17.16 54.54 L 17.37 54.83 L 17.58 55.12 L 17.79 55.42 L 17.99 55.71 L 18.2 56.0" fill="none" stroke="#111" stroke-width="2.14" stroke-linecap="round" stroke-linejoin="round"/>
<path d="M 4.2 56.0 L 4.79 56.0 L 5.37 56.0 L 5.95 56.0 L 6.54 56.0 L 7.12 56.0 L 7.7 56.0 L 8.29 56.0 L 8.87 56.0 L 9.45 56.0 L 10.04 56.0 L 10.62 56.0 L 11.2 56.0 L 11.79 56.0 L 12.37 56.0 L 12.95 56.0 L 13.54 56.0 L 14.12 56.0 L 14.7 56.0 L 15.29 56.0 L 15.87 56.0 L 16.45 56.0 L 17.04 56.0 L 17.62 56.0 L 18.2 56.0" fill="none" stroke="#111" stroke-width="2.14" stroke-linecap="round" stroke-linejoin="round"/>
<path d="M 9.2 45.0 L 9.41 45.0 L 9.62 45.0 L 9.83 45.0 L 10.04 45.0 L 10.24 45.0 L 10.45 45.0 L 10.66 45.0 L 10.87 45.0 L 11.08 45.0 L 11.29 45.0 L 11.49 45.0 L 11.7 45.0 L 11.91 45.0 L 12.12 45.0 L 12.33 45.0 L 12.54 45.0 L 12.74 45.0 L 12.95 45.0 L 13.16 45.0 L 13.37 45.0 L 13.58 45.0 L 13.79 45.0 L 13.99 45.0 L 14.2 45.0" fill="none" stroke="#111" stroke-width="2.14" stroke-linecap="round" stroke-linejoin="round"/>
<path d="M 10.2 36.0 L 10.2 36.25 L 10.2 36.5 L 10.2 36.75 L 10.2 37.0 L 10.2 37.25 L 10.2 37.5 L 10.2 37.75 L 10.2 38.0 L 10.2 38.25 L 10.2 38.5 L 10.2 38.75 L 10.2 39.0 L 10.2 39.25 L 10.2 39.5 L 10.2 39.75 L 10.2 40.0 L 10.2 40.25 L 10.2 40.5 L 10.2 40.75 L 10.2 41.0 L 10.2 41.25 L 10.2 41.5 L 10.2 41.75 L 10.2 42.0" fill="none" stroke="#111" stroke-width="2.14" stroke-linecap="round" stroke-linejoin="round"/>
<path d="M 10.2 36.0 L 10.33 36.25 L 10.45 36.5 L 10.58 36.75 L 10.7 37.0 L 10.83 37.25 L 10.95 37.5 L 11.08 37.75 L 11.2 38.0 L 11.33 38.25 L 11.45 38.5 L 11.58 38.75 L 11.7 39.0 L 11.83 39.25 L 11.95 39.5 L 12.08 39.75 L 12.2 40.0 L 12.33 40.25 L 12.45 40.5 L 12.58 40.75 L 12.7 41.0 L 12.83 41.25 L 12.95 41.5 L 13.08 41.75 L 13.2 42.0" fill="none" stroke="#111" stroke-width="2.14" stroke-linecap="round" stroke-linejoin="round"/>
<path d="M 10.2 40.0 L 10.29 40.0 L 10.37 40.0 L 10.45 40.0 L 10.54 40.0 L 10.62 40.0 L 10.7 40.0 L 10.79 40.0 L 10.87 40.0 L 10.95 40.0 L 11.04 40.0 L 11.12 40.0 L 11.2 40.0 L 11.29 40.0 L 11.37 40.0 L 11.45 40.0 L 11.54 40.0 L 11.62 40.0 L 11.7 40.0 L 11.79 40.0 L 11.87 40.0 L 11.95 40.0 L 12.04 40.0 L 12.12 40.0 L 12.2 40.0" fill="none" stroke="#111" stroke-width="2.14" stroke-linecap="round" stroke-linejoin="round"/>
<path d="M 11.2 47.0 L 11.12 47.25 L 11.04 47.5 L 10.95 47.75 L 10.87 48.0 L 10.79 48.25 L 10.7 48.5 L 10.62 48.75 L 10.54 49.0 L 10.45 49.25 L 10.37 49.5 L 10.29 49.75 L 10.2 50.0 L 10.12 50.25 L 10.04 50.5 L 9.95 50.75 L 9.87 51.0 L 9.79 51.25 L 9.7 51.5 L 9.62 51.75 L 9.54 52.0 L 9.45 52.25 L 9.37 52.5 L 9.29 52.75 L 9.2 53.0" fill="none" stroke="#111" stroke-width="2.14" stroke-linecap="round" stroke-linejoin="round"/>
<path d="M 12.2 47.0 L 12.29 47.21 L 12.37 47.42 L 12.45 47.62 L 12.54 47.83 L 12.62 48.04 L 12.7 48.25 L 12.79 48.46 L 12.87 48.67 L 12.95 48.88 L 13.04 49.08 L 13.12 49.29 L 13.2 49.5 L 13.29 49.71 L 13.37 49.92 L 13.45 50.12 L 13.54 50.33 L 13.62 50.54 L 13.7 50.75 L 13.79 50.96 L 13.87 51.17 L 13.95 51.38 L 14.04 51.58 L 14.12 51.79 L 14.2 52.0" fill="none" stroke="#111" stroke-width="2.14" stroke-linecap="round" stroke-linejoin="round"/>
<path d="M 10.2 50.0 L 10.33 50.0 L 10.45 50.0 L 10.58 50.0 L 10.7 50.0 L 10.83 50.0 L 10.95 50.0 L 11.08 50.0 L 11.2 50.0 L 11.33 50.0 L 11.45 50.0 L 11.58 50.0 L 11.7 50.0 L 11.83 50.0 L 11.95 50.0 L 12.08 50.0 L 12.2 50.0 L 12.33 50.0 L 12.45 50.0 L 12.58 50.0 L 12.7 50.0 L 12.83 50.0 L 12.95 50.0 L 13.08 50.0 L 13.2 50.0" fill="none" stroke="#111" stroke-width="2.14" stroke-linecap="round" stroke-linejoin="round"/>
</svg>
