<?xml version="1.0" encoding="UTF-8"?>
<svg xmlns="http://www.w3.org/2000/svg" viewBox="0 0 30.67 35.24">
<path d="M 12.08 4.0 L 12.13 5.12 L 12.17 6.25 L 12.21 7.38 L 12.25 8.5 L 12.29 9.62 L 12.33 10.75 L 12.38 11.88 L 12.42 13.0 L 12.46 14.12 L 12.5 15.25 L 12.54 16.38 L 12.58 17.5 L 12.63 18.62 L 12.67 19.75 L 12.71 20.88 L 12.75 22.0 L 12.79 23.12 L 12.83 24.25 L 12.88 25.38 L 12.92 26.5 L 12.96 27.62 L 13.0 28.75 L 13.04 29.88 L 13.08 31.0" fill="none" stroke="#111" stroke-width="1.23" stroke-linecap="round" stroke-linejoin="round"/>
<path d="M 6.08 24.0 L 6.75 23.96 L 7.42 23.92 L 8.08 23.88 L 8.75 23.83 L 9.42 23.79 L 10.08 23.75 L 10.75 23.71 L 11.42 23.67 L 12.08 23.62 L 12.75 23.58 L 13.42 23.54 L 14.08 23.5 L 14.75 23.46 L 15.42 23.42 L 16.08 23.38 L 16.75 23.33 L 17.42 23.29 L 18.08 23.25 L 18.75 23.21 L 19.42 23.17 L 20.08 23.12 L 20.75 23.08 L 21.42 23.04 L 22.08 23.0" fill="none" stroke="#111" stroke-width="1.23" stroke-linecap="round" stroke-linejoin="round"/>
<path d="M 5.08 15.0 L 4.39 16.84 L 4.03 18.76 L 4.0 20.73 L 4.31 22.66 L 4.95 24.52 L 5.9 26.24 L 7.13 27.77 L 8.61 29.06 L 10.28 30.08 L 12.11 30.8 L 14.03 31.19 L 15.99 31.24 L 17.94 30.96 L 19.8 30.34 L 21.53 29.42 L 23.08 28.21 L 24.39 26.75 L 25.43 25.09 L 26.18 23.27 L 26.59 21.35 L 26.67 19.39 L 26.42 17.45 L 25.83 15.58 L 24.93 13.83" fill="none" stroke="#111" stroke-width="1.23" stroke-linecap="round" stroke-linejoin="round"/>
</svg>
