<?xml version="1.0" encoding="UTF-8"?>
<svg xmlns="http://www.w3.org/2000/svg" viewBox="0 0 31.00 34.02">
<path d="M 10.0 4.0 L 10.04 4.67 L 10.16 5.33 L 10.37 5.97 L 10.66 6.58 L 11.03 7.15 L 11.47 7.65 L 11.97 8.1 L 12.53 8.48 L 13.14 8.78 L 13.77 9.0 L 14.43 9.13 L 15.11 9.17 L 15.78 9.13 L 16.44 9.0 L 17.08 8.78 L 17.68 8.48 L 18.24 8.1 L 18.74 7.65 L 19.18 7.15 L 19.55 6.58 L 19.84 5.97 L 20.05 5.33 L 20.18 4.67 L 20.21 4.0" fill="none" stroke="#111" stroke-width="1.19" stroke-linecap="round" stroke-linejoin="round"/>
<path d="M 15.0 8.0 L 15.0 8.79 L 15.0 9.58 L 15.0 10.38 L 15.0 11.17 L 15.0 11.96 L 15.0 12.75 L 15.0 13.54 L 15.0 14.33 L 15.0 15.12 L 15.0 15.92 L 15.0 16.71 L 15.0 17.5 L 15.0 18.29 L 15.0 19.08 L 15.0 19.88 L 15.0 20.67 L 15.0 21.46 L 15.0 22.25 L 15.0 23.04 L 15.0 23.83 L 15.0 24.62 L 15.0 25.42 L 15.0 26.21 L 15.0 27.0" fill="none" stroke="#111" stroke-width="1.19" stroke-linecap="round" stroke-linejoin="round"/>
<path d="M 12.0 8.0 L 11.99 8.31 L 11.98 8.61 L 11.96 8.92 L 11.93 9.22 L 11.9 9.52 L 11.85 9.83 L 11.81 10.13 L 11.75 10.43 L 11.69 10.73 L 11.62 11.03 L 11.55 11.32 L 11.47 11.62 L 11.38 11.91 L 11.29 12.2 L 11.19 12.49 L 11.08 12.78 L 10.97 13.06 L 10.85 13.34 L 10.72 13.62 L 10.59 13.9 L 10.46 14.17 L 10.31 14.44 L 10.16 14.71 L 10.01 14.97" fill="none" stroke="#111" stroke-width="1.19" stroke-linecap="round" stroke-linejoin="round"/>
<path d="M 11.0 13.0 L 11.04 13.08 L 11.08 13.17 L 11.12 13.25 L 11.17 13.33 L 11.21 13.42 L 11.25 13.5 L 11.29 13.58 L 11.33 13.67 L 11.38 13.75 L 11.42 13.83 L 11.46 13.92 L 11.5 14.0 L 11.54 14.08 L 11.58 14.17 L 11.62 14.25 L 11.67 14.33 L 11.71 14.42 L 11.75 14.5 L 11.79 14.58 L 11.83 14.67 L 11.88 14.75 L 11.92 14.83 L 11.96 14.92 L 12.0 15.0" fill="none" stroke="#111" stroke-width="1.19" stroke-linecap="round" stroke-linejoin="round"/>
<path d="M 7.0 9.0 L 7.25 9.12 L 7.5 9.25 L 7.75 9.38 L 8.0 9.5 L 8.25 9.62 L 8.5 9.75 L 8.75 9.88 L 9.0 10.0 L 9.25 10.12 L 9.5 10.25 L 9.75 10.38 L 10.0 10.5 L 10.25 10.62 L 10.5 10.75 L 10.75 10.88 L 11.0 11.0 L 11.25 11.12 L 11.5 11.25 L 11.75 11.38 L 12.0 11.5 L 12.25 11.62 L 12.5 11.75 L 12.75 11.88 L 13.0 12.0" fill="none" stroke="#111" stroke-width="1.19" stroke-linecap="round" stroke-linejoin="round"/>
<path d="M 10.0 8.0 L 9.85 8.1 L 9.7 8.22 L 9.57 8.34 L 9.44 8.47 L 9.32 8.61 L 9.2 8.75 L 9.1 8.91 L 9.01 9.07 L 8.93 9.23 L 8.85 9.4 L 8.79 9.57 L 8.74 9.75 L 8.7 9.93 L 8.68 10.11 L 8.66 10.29 L 8.65 10.48 L 8.66 10.66 L 8.68 10.84 L 8.71 11.03 L 8.75 11.21 L 8.81 11.38 L 8.87 11.55 L 8.94 11.72 L 9.03 11.88" fill="none" stroke="#111" stroke-width="1.19" stroke-linecap="round" stroke-linejoin="round"/>
<path d="M 18.0 8.0 L 18.1 8.45 L 18.19 8.91 L 18.26 9.37 L 18.32 9.83 L 18.38 10.29 L 18.41 10.76 L 18.44 11.22 L 18.45 11.69 L 18.45 12.15 L 18.44 12.62 L 18.42 13.08 L 18.38 13.54 L 18.34 14.01 L 18.28 14.47 L 18.2 14.93 L 18.12 15.38 L 18.02 15.84 L 17.91 16.29 L 17.79 16.74 L 17.66 17.19 L 17.51 17.63 L 17.35 18.07 L 17.19 18.5 L 17.01 18.93" fill="none" stroke="#111" stroke-width="1.19" stroke-linecap="round" stroke-linejoin="round"/>
<path d="M 18.0 16.0 L 18.12 16.08 L 18.25 16.17 L 18.38 16.25 L 18.5 16.33 L 18.62 16.42 L 18.75 16.5 L 18.88 16.58 L 19.0 16.67 L 19.12 16.75 L 19.25 16.83 L 19.38 16.92 L 19.5 17.0 L 19.62 17.08 L 19.75 17.17 L 19.88 17.25 L 20.0 17.33 L 20.12 17.42 L 20.25 17.5 L 20.38 17.58 L 20.5 17.67 L 20.62 17.75 L 20.75 17.83 L 20.88 17.92 L 21.0 18.0" fill="none" stroke="#111" stroke-width="1.19" stroke-linecap="round" stroke-linejoin="round"/>
<path d="M 16.0 14.0 L 16.08 13.88 L 16.17 13.75 L 16.25 13.62 L 16.33 13.5 L 16.42 13.38 L 16.5 13.25 L 16.58 13.12 L 16.67 13.0 L 16.75 12.88 L 16.83 12.75 L 16.92 12.62 L 17.0 12.5 L 17.08 12.38 L 17.17 12.25 L 17.25 12.12 L 17.33 12.0 L 17.42 11.88 L 17.5 11.75 L 17.58 11.62 L 17.67 11.5 L 17.75 11.38 L 17.83 11.25 L 17.92 11.12 L 18.0 11.0 L 18.0 11.0 L 18.08 11.17 L 18.17 11.33 L 18.25 11.5 L 18.33 11.67 L 18.42 11.83 L 18.5 12.0 L 18.58 12.17 L 18.67 12.33 L 18.75 12.5 L 18.83 12.67 L 18.92 12.83 L 19.0 13.0 L 19.08 13.17 L 19.17 13.33 L 19.25 13.5 L 19.33 13.67 L 19.42 13.83 L 19.5 14.0 L 19.58 14.17 L 19.67 14.33 L 19.75 14.5 L 19.83 14.67 L 19.92 14.83 L 20.0 15.0" fill="none" stroke="#111" stroke-width="1.19" stroke-linecap="round" stroke-linejoin="round"/>
<path d="M 20.0 9.0 L 20.17 9.21 L 20.33 9.42 L 20.5 9.62 L 20.67 9.83 L 20.83 10.04 L 21.0 10.25 L 21.17 10.46 L 21.33 10.67 L 21.5 10.88 L 21.67 11.08 L 21.83 11.29 L 22.0 11.5 L 22.17 11.71 L 22.33 11.92 L 22.5 12.12 L 22.67 12.33 L 22.83 12.54 L 23.0 12.75 L 23.17 12.96 L 23.33 13.17 L 23.5 13.38 L 23.67 13.58 L 23.83 13.79 L 24.0 14.0" fill="none" stroke="#111" stroke-width="1.19" stroke-linecap="round" stroke-linejoin="round"/>
<path d="M 21.0 7.0 L 21.17 7.17 L 21.32 7.36 L 21.45 7.57 L 21.56 7.79 L 21.64 8.02 L 21.7 8.25 L 21.73 8.49 L 21.74 8.74 L 21.71 8.98 L 21.67 9.22 L 21.6 9.45 L 21.5 9.67 L 21.38 9.89 L 21.24 10.08 L 21.07 10.26 L 20.89 10.43 L 20.69 10.57 L 20.48 10.69 L 20.26 10.78 L 20.03 10.85 L 19.79 10.9 L 19.54 10.92 L 19.3 10.91 L 19.06 10.88" fill="none" stroke="#111" stroke-width="1.19" stroke-linecap="round" stroke-linejoin="round"/>
<path d="M 24.0 10.0 L 23.92 10.04 L 23.83 10.08 L 23.75 10.12 L 23.67 10.17 L 23.58 10.21 L 23.5 10.25 L 23.42 10.29 L 23.33 10.33 L 23.25 10.38 L 23.17 10.42 L 23.08 10.46 L 23.0 10.5 L 22.92 10.54 L 22.83 10.58 L 22.75 10.62 L 22.67 10.67 L 22.58 10.71 L 22.5 10.75 L 22.42 10.79 L 22.33 10.83 L 22.25 10.88 L 22.17 10.92 L 22.08 10.96 L 22.0 11.0" fill="none" stroke="#111" stroke-width="1.19" stroke-linecap="round" stroke-linejoin="round"/>
<path d="M 11.0 23.0 L 11.33 23.0 L 11.67 23.0 L 12.0 23.0 L 12.33 23.0 L 12.67 23.0 L 13.0 23.0 L 13.33 23.0 L 13.67 23.0 L 14.0 23.0 L 14.33 23.0 L 14.67 23.0 L 15.0 23.0 L 15.33 23.0 L 15.67 23.0 L 16.0 23.0 L 16.33 23.0 L 16.67 23.0 L 17.0 23.0 L 17.33 23.0 L 17.67 23.0 L 18.0 23.0 L 18.33 23.0 L 18.67 23.0 L 19.0 23.0 L 19.0 23.0 L 19.0 23.25 L 19.0 23.5 L 19.0 23.75 L 19.0 24.0 L 19.0 24.25 L 19.0 24.5 L 19.0 24.75 L 19.0 25.0 L 19.0 25.25 L 19.0 25.5 L 19.0 25.75 L 19.0 26.0 L 19.0 26.25 L 19.0 26.5 L 19.0 26.75 L 19.0 27.0 L 19.0 27.25 L 19.0 27.5 L 19.0 27.75 L 19.0 28.0 L 19.0 28.25 L 19.0 28.5 L 19.0 28.75 L 19.0 29.0 L 19.0 29.0 L 18.55 29.3 L 18.07 29.56 L 17.56 29.76 L 17.03 29.91 L 16.5 29.99 L 15.95 30.02 L 15.41 30.0 L 14.87 29.91 L 14.35 29.77 L 13.84 29.57 L 13.36 29.31 L 12.9 29.01 L 12.49 28.66 L 12.11 28.27 L 11.77 27.84 L 11.49 27.37 L 11.26 26.88 L 11.08 26.37 L 10.95 25.84 L 10.89 25.29 L 10.88 24.75 L 10.93 24.21 L 11.04 23.67 L 11.21 23.15" fill="none" stroke="#111" stroke-width="1.19" stroke-linecap="round" stroke-linejoin="round"/>
<path d="M 4.0 25.0 L 4.0 25.12 L 4.0 25.25 L 4.0 25.38 L 4.0 25.5 L 4.0 25.62 L 4.0 25.75 L 4.0 25.88 L 4.0 26.0 L 4.0 26.12 L 4.0 26.25 L 4.0 26.38 L 4.0 26.5 L 4.0 26.62 L 4.0 26.75 L 4.0 26.88 L 4.0 27.0 L 4.0 27.12 L 4.0 27.25 L 4.0 27.38 L 4.0 27.5 L 4.0 27.62 L 4.0 27.75 L 4.0 27.88 L 4.0 28.0" fill="none" stroke="#111" stroke-width="1.19" stroke-linecap="round" stroke-linejoin="round"/>
<path d="M 5.0 27.0 L 5.88 26.96 L 6.75 26.92 L 7.62 26.88 L 8.5 26.83 L 9.38 26.79 L 10.25 26.75 L 11.12 26.71 L 12.0 26.67 L 12.88 26.62 L 13.75 26.58 L 14.62 26.54 L 15.5 26.5 L 16.38 26.46 L 17.25 26.42 L 18.12 26.38 L 19.0 26.33 L 19.88 26.29 L 20.75 26.25 L 21.63 26.21 L 22.5 26.17 L 23.38 26.12 L 24.25 26.08 L 25.13 26.04 L 26.0 26.0" fill="none" stroke="#111" stroke-width="1.19" stroke-linecap="round" stroke-linejoin="round"/>
<path d="M 27.0 23.0 L 27.0 23.21 L 27.0 23.42 L 27.0 23.62 L 27.0 23.83 L 27.0 24.04 L 27.0 24.25 L 27.0 24.46 L 27.0 24.67 L 27.0 24.88 L 27.0 25.08 L 27.0 25.29 L 27.0 25.5 L 27.0 25.71 L 27.0 25.92 L 27.0 26.12 L 27.0 26.33 L 27.0 26.54 L 27.0 26.75 L 27.0 26.96 L 27.0 27.17 L 27.0 27.38 L 27.0 27.58 L 27.0 27.79 L 27.0 28.0" fill="none" stroke="#111" stroke-width="1.19" stroke-linecap="round" stroke-linejoin="round"/>
<path d="M 6.0 26.0 L 6.08 25.92 L 6.17 25.83 L 6.25 25.75 L 6.33 25.67 L 6.42 25.58 L 6.5 25.5 L 6.58 25.42 L 6.67 25.33 L 6.75 25.25 L 6.83 25.17 L 6.92 25.08 L 7.0 25.0 L 7.08 24.92 L 7.17 24.83 L 7.25 24.75 L 7.33 24.67 L 7.42 24.58 L 7.5 24.5 L 7.58 24.42 L 7.67 24.33 L 7.75 24.25 L 7.83 24.17 L 7.92 24.08 L 8.0 24.0 L 8.0 24.0 L 8.46 24.07 L 8.91 24.22 L 9.32 24.43 L 9.7 24.7 L 10.04 25.03 L 10.31 25.41 L 10.53 25.83 L 10.67 26.27 L 10.75 26.73 L 10.76 27.2 L 10.69 27.66 L 10.55 28.11 L 10.34 28.53 L 10.07 28.91 L 9.75 29.25 L 9.37 29.53 L 8.96 29.75 L 8.52 29.9 L 8.06 29.98 L 7.59 29.99 L 7.12 29.93 L 6.68 29.8 L 6.25 29.59 L 5.87 29.33 L 6.0 29.0 L 6.0 28.92 L 6.0 28.83 L 6.0 28.75 L 6.0 28.67 L 6.0 28.58 L 6.0 28.5 L 6.0 28.42 L 6.0 28.33 L 6.0 28.25 L 6.0 28.17 L 6.0 28.08 L 6.0 28.0 L 6.0 27.92 L 6.0 27.83 L 6.0 27.75 L 6.0 27.67 L 6.0 27.58 L 6.0 27.5 L 6.0 27.42 L 6.0 27.33 L 6.0 27.25 L 6.0 27.17 L 6.0 27.08 L 6.0 27.0" fill="none" stroke="#111" stroke-width="1.19" stroke-linecap="round" stroke-linejoin="round"/>
<path d="M 8.0 25.0 L 8.04 25.17 L 8.08 25.33 L 8.12 25.5 L 8.17 25.67 L 8.21 25.83 L 8.25 26.0 L 8.29 26.17 L 8.33 26.33 L 8.38 26.5 L 8.42 26.67 L 8.46 26.83 L 8.5 27.0 L 8.54 27.17 L 8.58 27.33 L 8.62 27.5 L 8.67 27.67 L 8.71 27.83 L 8.75 28.0 L 8.79 28.17 L 8.83 28.33 L 8.88 28.5 L 8.92 28.67 L 8.96 28.83 L 9.0 29.0" fill="none" stroke="#111" stroke-width="1.19" stroke-linecap="round" stroke-linejoin="round"/>
<path d="M 23.0 22.0 L 23.08 22.12 L 23.17 22.25 L 23.25 22.38 L 23.33 22.5 L 23.42 22.62 L 23.5 22.75 L 23.58 22.88 L 23.67 23.0 L 23.75 23.12 L 23.83 23.25 L 23.92 23.38 L 24.0 23.5 L 24.08 23.62 L 24.17 23.75 L 24.25 23.88 L 24.33 24.0 L 24.42 24.12 L 24.5 24.25 L 24.58 24.38 L 24.67 24.5 L 24.75 24.62 L 24.83 24.75 L 24.92 24.88 L 25.0 25.0 L 25.0 25.0 L 24.96 25.53 L 24.83 26.04 L 24.61 26.52 L 24.3 26.95 L 23.93 27.31 L 23.49 27.61 L 23.0 27.82 L 22.49 27.94 L 21.96 27.96 L 21.44 27.89 L 20.94 27.73 L 20.48 27.48 L 20.07 27.15 L 19.72 26.75 L 19.46 26.29 L 19.28 25.79 L 19.19 25.27 L 19.2 24.75 L 19.3 24.23 L 19.49 23.74 L 19.77 23.29 L 20.13 22.9 L 20.55 22.59 L 21.02 22.35" fill="none" stroke="#111" stroke-width="1.19" stroke-linecap="round" stroke-linejoin="round"/>
<path d="M 23.0 23.0 L 23.0 23.17 L 23.0 23.33 L 23.0 23.5 L 23.0 23.67 L 23.0 23.83 L 23.0 24.0 L 23.0 24.17 L 23.0 24.33 L 23.0 24.5 L 23.0 24.67 L 23.0 24.83 L 23.0 25.0 L 23.0 25.17 L 23.0 25.33 L 23.0 25.5 L 23.0 25.67 L 23.0 25.83 L 23.0 26.0 L 23.0 26.17 L 23.0 26.33 L 23.0 26.5 L 23.0 26.67 L 23.0 26.83 L 23.0 27.0" fill="none" stroke="#111" stroke-width="1.19" stroke-linecap="round" stroke-linejoin="round"/>
</svg>
