<?xml version="1.0" encoding="UTF-8"?>
<svg xmlns="http://www.w3.org/2000/svg" viewBox="0 0 25.85 39.00">
<path d="M 13.91 4.0 L 13.82 4.38 L 13.74 4.75 L 13.66 5.12 L 13.57 5.5 L 13.49 5.88 L 13.41 6.25 L 13.32 6.62 L 13.24 7.0 L 13.16 7.38 L 13.07 7.75 L 12.99 8.12 L 12.91 8.5 L 12.82 8.88 L 12.74 9.25 L 12.66 9.62 L 12.57 10.0 L 12.49 10.38 L 12.41 10.75 L 12.32 11.12 L 12.24 11.5 L 12.16 11.88 L 12.07 12.25 L 11.99 12.62 L 11.91 13.0 L 11.91 13.0 L 12.31 13.09 L 12.71 13.22 L 13.09 13.38 L 13.46 13.59 L 13.8 13.82 L 14.12 14.09 L 14.41 14.39 L 14.67 14.71 L 14.9 15.06 L 15.1 15.43 L 15.26 15.82 L 15.38 16.22 L 15.46 16.62 L 15.5 17.04 L 15.5 17.46 L 15.46 17.87 L 15.39 18.28 L 15.27 18.68 L 15.11 19.07 L 14.92 19.44 L 14.69 19.79 L 14.44 20.11 L 14.15 20.41 L 13.83 20.69 L 13.91 21.0 L 13.87 21.58 L 13.82 22.17 L 13.78 22.75 L 13.74 23.33 L 13.7 23.92 L 13.66 24.5 L 13.62 25.08 L 13.57 25.67 L 13.53 26.25 L 13.49 26.83 L 13.45 27.42 L 13.41 28.0 L 13.37 28.58 L 13.32 29.17 L 13.28 29.75 L 13.24 30.33 L 13.2 30.92 L 13.16 31.5 L 13.12 32.08 L 13.07 32.67 L 13.03 33.25 L 12.99 33.83 L 12.95 34.42 L 12.91 35.0" fill="none" stroke="#111" stroke-width="1.37" stroke-linecap="round" stroke-linejoin="round"/>
<path d="M 6.91 6.0 L 6.84 6.43 L 6.78 6.86 L 6.74 7.29 L 6.7 7.72 L 6.69 8.15 L 6.68 8.58 L 6.69 9.02 L 6.72 9.45 L 6.76 9.88 L 6.81 10.31 L 6.87 10.74 L 6.95 11.16 L 7.04 11.58 L 7.15 12.0 L 7.26 12.42 L 7.4 12.83 L 7.54 13.24 L 7.7 13.64 L 7.87 14.04 L 8.05 14.44 L 8.24 14.82 L 8.45 15.2 L 8.67 15.58 L 8.9 15.94" fill="none" stroke="#111" stroke-width="1.37" stroke-linecap="round" stroke-linejoin="round"/>
<path d="M 11.91 7.0 L 11.35 7.28 L 10.81 7.59 L 10.29 7.93 L 9.77 8.28 L 9.28 8.66 L 8.8 9.06 L 8.34 9.48 L 7.9 9.92 L 7.48 10.38 L 7.08 10.85 L 6.7 11.35 L 6.34 11.86 L 6.01 12.38 L 5.7 12.92 L 5.41 13.48 L 5.15 14.04 L 4.91 14.62 L 4.7 15.2 L 4.52 15.8 L 4.36 16.4 L 4.23 17.01 L 4.13 17.62 L 4.05 18.24 L 4.0 18.86" fill="none" stroke="#111" stroke-width="1.37" stroke-linecap="round" stroke-linejoin="round"/>
<path d="M 15.91 5.0 L 15.97 5.33 L 16.02 5.67 L 16.07 6.01 L 16.1 6.35 L 16.13 6.69 L 16.14 7.02 L 16.15 7.36 L 16.15 7.7 L 16.14 8.04 L 16.12 8.38 L 16.09 8.72 L 16.05 9.06 L 16.01 9.4 L 15.95 9.73 L 15.89 10.07 L 15.81 10.4 L 15.73 10.73 L 15.64 11.06 L 15.54 11.38 L 15.43 11.7 L 15.31 12.02 L 15.19 12.34 L 15.05 12.65 L 14.91 12.96" fill="none" stroke="#111" stroke-width="1.37" stroke-linecap="round" stroke-linejoin="round"/>
<path d="M 13.91 8.0 L 14.44 8.37 L 14.96 8.77 L 15.46 9.18 L 15.95 9.61 L 16.43 10.05 L 16.88 10.52 L 17.33 10.99 L 17.75 11.49 L 18.16 11.99 L 18.54 12.52 L 18.91 13.05 L 19.27 13.6 L 19.6 14.16 L 19.91 14.73 L 20.2 15.31 L 20.47 15.9 L 20.72 16.51 L 20.95 17.11 L 21.15 17.73 L 21.34 18.36 L 21.5 18.99 L 21.64 19.62 L 21.75 20.26 L 21.85 20.91" fill="none" stroke="#111" stroke-width="1.37" stroke-linecap="round" stroke-linejoin="round"/>
<path d="M 11.91 14.0 L 11.8 14.52 L 11.68 15.03 L 11.56 15.54 L 11.43 16.06 L 11.3 16.57 L 11.17 17.08 L 11.03 17.59 L 10.88 18.09 L 10.73 18.6 L 10.57 19.1 L 10.42 19.61 L 10.25 20.11 L 10.08 20.61 L 9.91 21.11 L 9.73 21.6 L 9.55 22.1 L 9.36 22.59 L 9.16 23.08 L 8.97 23.57 L 8.76 24.06 L 8.56 24.55 L 8.35 25.03 L 8.13 25.51 L 7.91 25.99" fill="none" stroke="#111" stroke-width="1.37" stroke-linecap="round" stroke-linejoin="round"/>
</svg>
