<?xml version="1.0" encoding="UTF-8"?>
<svg xmlns="http://www.w3.org/2000/svg" viewBox="0 0 19.32 37.89">
<path d="M 6.38 4.0 L 5.77 4.88 L 5.25 5.82 L 4.82 6.79 L 4.47 7.8 L 4.22 8.84 L 4.06 9.9 L 4.0 10.97 L 4.04 12.04 L 4.17 13.1 L 4.4 14.14 L 4.72 15.16 L 5.13 16.15 L 5.64 17.09 L 6.22 17.99 L 6.88 18.83 L 7.62 19.6 L 8.42 20.31 L 9.29 20.94 L 10.21 21.49 L 11.17 21.95 L 12.17 22.32 L 13.2 22.61 L 14.26 22.79 L 15.32 22.88" fill="none" stroke="#111" stroke-width="1.33" stroke-linecap="round" stroke-linejoin="round"/>
<path d="M 9.38 10.0 L 8.93 10.92 L 8.51 11.86 L 8.12 12.8 L 7.74 13.75 L 7.39 14.72 L 7.06 15.69 L 6.76 16.66 L 6.48 17.65 L 6.23 18.64 L 6.0 19.64 L 5.79 20.64 L 5.61 21.65 L 5.46 22.66 L 5.33 23.68 L 5.22 24.7 L 5.14 25.72 L 5.08 26.74 L 5.05 27.76 L 5.05 28.79 L 5.07 29.81 L 5.11 30.83 L 5.18 31.85 L 5.28 32.87 L 5.4 33.89" fill="none" stroke="#111" stroke-width="1.33" stroke-linecap="round" stroke-linejoin="round"/>
</svg>
